<?xml version="1.0" encoding="utf-8"?>
<!-- Generator: Adobe Illustrator 15.0.0, SVG Export Plug-In . SVG Version: 6.00 Build 0)  -->
<!DOCTYPE svg PUBLIC "-//W3C//DTD SVG 1.1//EN" "http://www.w3.org/Graphics/SVG/1.1/DTD/svg11.dtd">
<svg version="1.1" id="Ebene_1" xmlns="http://www.w3.org/2000/svg" xmlns:xlink="http://www.w3.org/1999/xlink" x="0px" y="0px"
	 width="1920px" height="1080px" viewBox="0 0 1920 1080" enable-background="new 0 0 1920 1080" xml:space="preserve">

<path fill="#F4E0B6" stroke="#FFFFFF" d="M947.189,476.039l-0.031,0.043l-0.022-0.018l-0.015-0.05l-0.02-0.042l-0.022-0.064
	l0.009-0.068l0.061-0.039l0.073-0.019l0.006,0.009l-0.016,0.033l0.012,0.019l0.015,0.065l-0.023,0.069L947.189,476.039z
	 M954.794,475.366l-0.016,0.063l-0.044,0.052l-0.018,0.004l0.02-0.021l0.015-0.028l-0.007-0.035l-0.025-0.022l-0.031-0.001
	l-0.129,0.019l0.006-0.047l0.087-0.064l0.051-0.021l0.021-0.002l0.043,0.014l0.023,0.041L954.794,475.366z M952.635,461.433
	l-0.036,0.014l-0.034-0.017l-0.025-0.027l-0.017-0.041l-0.007-0.048l-0.019-0.077l-0.028-0.092l0.016-0.02l0.054,0.064l0.027,0.044
	l0.025,0.039l0.042,0.089L952.635,461.433z M958.862,459.236l0.236,0.245l0.13,0.068l-0.033,0.049l-0.04,0.019l-0.032,0.031
	l-0.011,0.09l0.027,0.003l0.009,0.003l0.003,0.039l-0.053,0.036l0.015,0.02l0.03,0.053l0.015,0.02l-0.028,0.049l0.037,0.016
	l0.094-0.006l0.109,0.04l0.045-0.014l-0.003,0.026l-0.003,0.067l-0.003,0.028l0.256,0.043l0.05,0.023l0.046,0.049l0.028,0.06
	l-0.002,0.055l0.003,0.038l0.064,0.175l-0.101,0.174l-0.058,0.066l-0.078,0.048l0.042,0.093l0.031-0.028l0.034,0.024l0.04,0.042
	l0.09,0.05l0.013,0.044l-0.009,0.063l-0.016,0.079l0.044,0.041l0.197,0.04l0.092-0.024l0.032,0.013l0.016,0.03l0.029,0.046
	l0.012,0.001l0.015-0.008l0.024-0.023l0.011,0.067l0.021,0.057l0.028,0.041l0.079,0.043l0.085,0.096l0.091,0.077l0.058,0.091
	l0.057,0.06l0.06-0.041l-0.021-0.013l-0.01-0.014l-0.01-0.025l0.045-0.023l0.031-0.062l0.015-0.091v-0.117l-0.019-0.123
	l-0.018-0.088l0.014-0.055l0.076-0.03l0.329,0.051l0.183-0.031l0.012-0.044l-0.001-0.055l0.011-0.045l0.18-0.084l0.025-0.068
	l0.011-0.089l0.039-0.067l0.097-0.083l0.067-0.035l0.225-0.005l0.064,0.026l0.107,0.097l0.063,0.036l0.499-0.004l-0.115,0.111
	l-0.454,0.128l-0.199,0.116l-0.24,0.02l-0.079,0.051l-0.057,0.096l0.066,0.033l0.034,0.036l0.018,0.05l0.015,0.014l0.065,0.116
	l0.013,0.029l0.021,0.036l-0.008,0.07l-0.025,0.097l-0.018,0.042l-0.239,0.188l-0.044,0.012l-0.165-0.015l-0.066,0.047l-0.039,0.126
	l0.087,0.073l0.042,0.023l0.158,0.034l0.038,0.052l0.023,0.116l-0.027,0.015l-0.046,0.039l-0.03,0.017l0.058,0.047l0.304,0.056
	l0.18,0.1l0.122,0.01l0.206-0.152l0.136,0.004l0.062,0.039l0.058,0.064l0.044,0.096l0.025,0.139l0.021,0.073l0.041,0.03l0.037,0.013
	l0.019,0.024l0.013,0.07l0.037,0.138l0.008,0.067l-0.006,0.022l-0.032,0.028l-0.01,0.024l0.001,0.026l0.009,0.067l-0.001,0.025
	l-0.05,0.14l-0.007,0.039l-0.028,0.021l-0.16,0.175l-0.188,0.108l-0.055,0.063l0.013,0.105l-0.046,0.078l-0.126,0.117l0.08,0.007
	l0.067-0.043l0.114-0.132l-0.032,0.116l-0.067,0.124l-0.023,0.103l0.1,0.059l0.095-0.012l0.203-0.082l0.566-0.062l0.2-0.076
	l0.107-0.01l0.093,0.098l-0.096,0.235l-0.062,0.053l0.012,0.052l0.023,0.052l0.012,0.023l0.015,0.017l0.064,0.052l0.18,0.13
	l0.055,0.064l-0.143,0.021l-0.074,0.046l-0.053,0.146l-0.128,0.132l-0.045,0.121l-0.188,0.199l-0.035,0.069l-0.024,0.085
	l-0.007,0.098l0.031-0.042l0.047-0.123l0.027-0.022l0.03-0.011l0.083-0.073l0.025-0.036l0.042-0.089l0.297-0.417l0.056-0.03
	l0.073,0.027l0.226,0.175l-0.048-0.063l-0.083-0.087l-0.035-0.07l0.619,0.406l0.077,0.021l0.289-0.03l0.05,0.013l0.034,0.033
	l0.027,0.074l0.008,0.062l-0.011,0.039l-0.034,0.007l0.003,0.037l0.084,0.008l0.039,0.016l0.027,0.039l0.008,0.042l-0.003,0.054
	l-0.006,0.068l0.022,0.045l0.026,0.036l0.052,0.049l0.11-0.155l0.064-0.038l0.082,0.028l0.017,0.027l0.007,0.038l0.003,0.036
	l0.005,0.02l0.018,0.007l0.038-0.006l0.017,0.008l0.104,0.11l0.02,0.03l0.017,0.132l-0.031,0.077l-0.044,0.052l-0.023,0.05
	l0.01,0.035l0.042,0.117l0.005,0.053l-0.016,0.021l-0.088,0.05l0.031,0.039l0.004,0.045l-0.005,0.055l0.007,0.067l-0.085,0.049
	l-0.249-0.065l-0.103,0.041l0.07,0.062l0.217,0.095l0.018,0.099l-0.055,0.06l-0.084,0.024l-0.135-0.016l-0.056,0.01l-0.108,0.052
	l-0.224,0.009l-0.065,0.034l0.047,0.061l0.418-0.092l0.131,0.027l0.257-0.031l0.083,0.033l0.143,0.099l0.075,0.078l0.031,0.064
	l0.017,0.035l-0.061,0.04l-0.095,0.146l-0.057,0.029l-0.336,0.038l-0.364-0.046l-0.154,0.017l-0.168-0.021l0.09,0.073l0.311-0.021
	l0.422,0.097l0.184-0.021l0.103,0.012l0.029,0.023l-0.009,0.042l-0.036,0.061l-0.004,0.036l0.005,0.028l0.002,0.022l-0.012,0.026
	l-0.099,0.031l-0.09-0.003l-0.084,0.022l0.004,0.044l0.207-0.014l0.054,0.046l0.003,0.037l-0.025,0.003l-0.023,0.013l-0.019,0.024
	l-0.019,0.033l0.085,0.01l0.028,0.016l0.022,0.03l0.019,0.028l0.013,0.013l0.025-0.015l0.036-0.076l0.021-0.016l0.004-0.023
	l0.065-0.132l0.1-0.108l0.016,0.087l0.011,0.126l0.002,0.119l-0.009,0.069l0.004,0.044l0.054,0.04l0.021,0.058l-0.012,0.07
	l-0.04,0.075l-0.052,0.04l-0.111,0.018l-0.051,0.036l0.056,0.086l0.029,0.058l-0.004,0.025l-0.04,0.015l-0.077,0.075l-0.041,0.015
	l-0.2-0.068l-0.167,0.008l-0.06-0.035l-0.03-0.058l-0.03-0.085l-0.035-0.076l-0.046-0.039l-0.045-0.019l-0.096-0.069l-0.146-0.063
	l-0.164-0.156l-0.088-0.041l0.024,0.066l0.031,0.052l0.038,0.037l0.031,0.021l-0.09,0.088l-0.556-0.052l0.003,0.044l0.871,0.187
	l0.029,0.027l0.043,0.049l0.039,0.062l0.019,0.06l0.026,0.035l0.136,0.123l0.294,0.155l0.063,0.092l-0.107,0.069l-0.135-0.035
	l-0.25-0.138l-0.27,0.01l-0.174-0.088l-0.046,0.018l0.172,0.127l0.4,0.132l0.189,0.157l0.025,0.037l0.031,0.057l0.013,0.052
	l-0.027,0.019l-0.043,0.014l-0.062,0.075l-0.034,0.014l-0.297-0.139l-0.075,0.056l0.307,0.148l0.055,0.051l0.007,0.063l-0.077,0.014
	l-0.314-0.05l-0.09-0.044l-0.015,0.026l-0.022,0.019l-0.053,0.024l0.004,0.044l0.094,0.107l0.051,0.071l0.048,0.084l-0.043,0.01
	l-0.118,0.089l-0.604,0.044l-0.102-0.042l-0.058-0.039l-0.039-0.044l-0.1-0.241l-0.075-0.075l-0.086-0.146l-0.043-0.036
	l-0.221-0.073l0.029,0.038l0.031,0.015l0.064,0.008l0.041,0.032l0.001,0.061l-0.014,0.065l-0.003,0.042l0.048,0.056l0.145,0.087
	l0.046,0.012l0.005,0.04v0.073l0.047,0.099l0.059,0.087l0.039,0.038l0.146,0.063l0.055,0.057l-0.025,0.063l0.022,0.043l-0.477-0.204
	l-0.136,0.085l0.051,0.056l0.115,0.068l0.058,0.064l0.032,0.07l0.002,0.056l-0.025,0.042l-0.051,0.027l-0.371-0.048l-0.032,0.034
	l0.04,0.083l0.061,0.073l0.03,0.003l0.033,0.064l0.063,0.046l0.055,0.01l0.007-0.042l0.114-0.013l0.15-0.214l0.083-0.047l0.02,0.032
	l-0.037,0.06l-0.231,0.251l-0.031,0.064l-0.006,0.053l0.002,0.12l-0.008,0.045l-0.08,0.136l-0.008,0.052l0.006,0.037l0.005,0.021
	l0.009,0.042v0.021l-0.014,0.018l-0.015,0.008l-0.011,0.015l-0.003,0.036l-0.005,0.025l-0.023,0.088l-0.009,0.017l-0.289-0.007
	l-0.198,0.039l-0.07,0.02l0.115-0.072l0.245-0.033l0.125-0.031l-0.075-0.054l-0.315-0.085l-0.022,0.006l-0.002,0.024l0.012,0.079
	l-0.01,0.016l-0.02,0.009l-0.055,0.047l-0.033,0.008l-0.013,0.015l-0.049,0.094l-0.029,0.026l-0.15,0.07l-0.059,0.052l-0.053,0.064
	l-0.031,0.066l0.011-0.066l0.008-0.026l0.012-0.022l-0.004-0.042l-0.02-0.002l-0.014,0.056l-0.04,0.046l-0.046,0.03l-0.031,0.01
	l-0.009,0.017l0.011,0.044l0.024,0.045l0.031,0.023l0.061,0.001l0.025-0.009l0.025-0.021l0.021,0.084l0.03,0.082l-0.063-0.01
	l-0.076,0.087l-0.054,0.019l-0.132-0.03l-0.059-0.032l-0.06-0.05l-0.097-0.111l-0.056-0.051l-0.061-0.026l-0.024,0.013l-0.047,0.07
	l-0.025,0.02l-0.035-0.011l-0.034-0.027l-0.034-0.013l-0.033,0.033l0.038,0.048l-0.027,0.025l-0.032,0.006l-0.07-0.012l0.045-0.153
	l-0.003-0.036l-0.09,0.01l-0.044-0.009l-0.022-0.044l-0.019-0.093l-0.036-0.064l-0.039-0.026l-0.032,0.025l0.003,0.041l0.024,0.031
	l0.02,0.032l0.015,0.043l0.012,0.062l-0.04-0.029l-0.082-0.038l-0.04-0.034l-0.001-0.037l0.021-0.078l-0.051-0.129l-0.078-0.124
	l-0.064-0.059l-0.063-0.066l-0.114-0.056l-0.073-0.029l0.051,0.043l0.1,0.05l0.06,0.034l0.035,0.07l0.062,0.152l0.028,0.052
	l-0.022,0.029l-0.023,0.006l-0.024-0.015l-0.027-0.033l0.003,0.044l0.062,0.056l0.016,0.091l-0.016,0.1l-0.038,0.079l-0.068,0.023
	l-0.161-0.062l-0.062,0.034l0.042,0.037l0.044,0.018l0.094,0.013l-0.069,0.044l-0.178,0.034l-0.164-0.008l-0.167,0.034l-0.072,0.044
	l-0.016-0.031l-0.02-0.03l-0.009-0.029l-0.073,0.089l-0.243,0.148l0.235-0.039l0.058,0.044l-0.091,0.059l-0.73,0.098l-0.099,0.07
	l0.136,0.02l0.001,0.036l-0.174,0.115l-0.061,0.01l-0.026,0.011l-0.093,0.091l-0.066,0.035l-0.026,0.025l-0.018,0.047l-0.035-0.061
	l-0.029-0.015l-0.028,0.02l-0.029,0.039l0.002,0.04l0.039,0.006l0.003,0.036l-0.167,0.083l-0.063,0.006l0.013-0.081l-0.149,0.083
	l-0.07,0.07l-0.04,0.09l0.047,0.009l0.036-0.026l0.027-0.029l-0.067,0.125l-0.038,0.044l-0.199,0.13l-0.13,0.176l-0.087,0.03
	l0.035-0.013l0.035-0.022l0.028-0.041l0.012-0.067l-0.421,0.259l-0.387,0.042l-0.059-0.025l-0.052-0.058l0.023,0.039l0.026,0.029
	l0.026,0.02l0.029,0.008l-0.053,0.021l-0.047,0.003l0.013,0.063l0.003,0.082l-0.013,0.067l-0.032,0.023l-0.014-0.021l-0.008-0.042
	l-0.003-0.08l-0.008-0.02l-0.055-0.051l-0.116-0.151l-0.031-0.031l-0.047-0.021l-0.023,0.013l-0.006,0.05l0.003,0.087l0.015,0.111
	l0.002,0.075l-0.017,0.033l-0.039-0.025l-0.008-0.054l0.008-0.146l-0.012-0.055l-0.024-0.072l-0.022-0.041l-0.008,0.037l0.008,0.157
	l-0.002,0.073l-0.012,0.065l0.042,0.06l-0.013,0.038l-0.045,0.019l-0.058-0.001l0.027-0.127v-0.059l-0.02-0.051l0.011-0.049
	l0.005-0.021l0.011-0.008l0.025-0.012v-0.034l-0.011-0.031l-0.008-0.002l0.01-0.155l-0.001-0.085l-0.011-0.039l-0.01-0.025
	l-0.034-0.05l-0.035-0.031l-0.014,0.03l-0.001,0.151l0.008,0.063l0.026,0.057l-0.046,0.031l-0.055-0.012l-0.048,0.001l-0.027,0.069
	l0.039,0.066l0.019,0.07l0.022,0.066l0.051,0.054l-0.051,0.058l-0.107,0.006l-0.21-0.038l-0.044-0.021l-0.109-0.087l-0.039,0.019
	l-0.038,0.034l-0.029-0.006l-0.016-0.102l-0.355,0.143l-0.4,0.056l-0.273,0.013l0.031-0.037l0.018-0.048l-0.004-0.063l-0.018-0.062
	l-0.02,0.08l-0.034,0.05l-0.042,0.01l-0.044-0.047l0.008,0.034l0,0.015l0.003,0.011l0.013,0.023l0.001,0.044l-0.377,0.178
	l0.024-0.124l0.076-0.061l0.093-0.016l0.083,0.006l-0.001-0.044l-0.199-0.123l-0.072-0.081l-0.013,0.077l0.004,0.032l0.014,0.051
	l-0.074,0.034l-0.073-0.024l-0.075-0.043l-0.081-0.016l0.062,0.053l0.001,0.037l-0.074-0.015l-0.034,0.007l-0.029,0.028
	l-0.049-0.033l-0.053,0.026l-0.042,0.058l-0.015,0.062l-0.013,0.102l-0.038,0.064l-0.053,0.011l-0.056-0.064l-0.038,0.044
	l-0.012,0.049l0.016,0.044l0.05,0.025l0.037-0.006l0.057-0.045l0.045-0.005l0.236,0.063l0.079-0.01l-0.121,0.198l-0.076,0.047
	l-0.081-0.053l0.01-0.008h0.003l0.002-0.003l0.004-0.021l-0.121-0.021l0.005,0.056l-0.084-0.021l-0.045,0.025l0.039,0.003
	l0.026,0.021l0.012,0.042l-0.009,0.066l0.223,0.026l0.041-0.026l-0.068,0.187l-0.102,0.165l-0.133,0.11l-0.303,0.072l-0.192,0.097
	l-0.187,0.007l-0.102-0.137l0.037-0.037l0.084-0.013l0.032-0.027l0.038-0.056l0.037-0.023l0.095,0.009l-0.001-0.04l-0.084-0.016
	l-0.159,0.017l-0.083-0.015l-0.208-0.147l-0.061-0.022l0.02,0.047l-0.023,0.005l-0.008,0.01l-0.008,0.018l0.029,0.042l0.067,0.111
	l0.021,0.025l0.03,0.042l0.016,0.085l0.011,0.084l0.012,0.039l0.125,0.029l0.071,0.011l0.05,0.018l-0.642-0.023l-0.37,0.093
	l-0.632,0.042l-0.155-0.033l-0.583-0.26l-0.245,0.015l-0.088-0.038l0.034,0.002l0.013-0.006l0.015-0.021l-0.108-0.042l-0.055-0.036
	l-0.045-0.044l-0.061,0.065l-0.41-0.15l-0.039-0.022l-0.159-0.135l-0.25-0.089l-0.356-0.275l-0.49-0.208l-0.097-0.093l0.041,0.001
	l0.024-0.019l-0.003-0.03l-0.039-0.033l-0.037-0.009l-0.051,0.026l-0.039,0.004l-0.292-0.101l0.009,0.031l0.305,0.114l-0.806-0.164
	l-0.052-0.063l-0.013,0.009l-0.009,0.01l-0.007,0.013l-0.011,0.014l-0.015-0.023l-0.009-0.004l-0.02-0.002l0.021,0.078l-0.235,0.048
	l-0.113-0.002l-0.462-0.25l-0.045-0.04l0.043,0.026l0.048,0.005l0.05-0.02l0.048-0.047l-0.04,0.001l-0.07-0.015l-0.038,0.001
	l0.014-0.095l0.006-0.026l-0.055,0.081l-0.05,0.038l-0.055-0.002l-0.067-0.037l0-0.037l0.103,0.017l-0.041-0.083l-0.055-0.042
	l-0.059-0.031l-0.054-0.046l-0.048-0.09l-0.025-0.067l-0.035-0.029l-0.076,0.02v0.036l0.104,0.111l0.061,0.085l0.042,0.09
	l-0.2-0.121l-0.092-0.087l-0.056-0.129l0.011-0.011l0.029-0.041l-0.022-0.023l-0.04-0.085l0.084-0.102l0.096-0.067l0.204-0.065
	l0.095,0.021l0.167,0.124l0.1-0.007l-0.051-0.048l-0.073-0.096l-0.041-0.03l-0.23-0.074l0.092-0.166l0.015-0.06l-0.01-0.08
	l-0.035-0.016l-0.026,0.026l0.01,0.045v0.037l-0.037,0.063l-0.131,0.173l-0.085,0.101l-0.059,0.064l-0.073,0.035l-0.024,0.027
	l-0.003,0.057l0.002,0.068l-0.009,0.06l-0.023,0.062l-0.014,0.015l-0.136-0.043l-0.131-0.077l-0.102-0.021l-0.209-0.106l0.196-0.036
	l0.036,0.008l0.072,0.047l0.045-0.004l0.006-0.035l0.04-0.019l0.1-0.014v-0.04l-0.083,0.016v-0.041l0.01-0.003l0.022-0.001
	l0.011-0.004v-0.037l-0.215,0.088l-0.075,0.003v-0.037l0.104-0.137l0.031-0.185l-0.04-0.145l-0.112-0.014l-0.001,0.037l0.085,0.014
	l-0.011,0.083l-0.057,0.107l-0.114,0.153l-0.072,0.062l-0.081,0.031l-0.082-0.025l0.031,0.09l0.011,0.022l-0.121-0.092l-0.268-0.108
	l-0.382-0.056l-0.127-0.059l-0.072-0.017l-0.071-0.034l-0.059-0.081l0.017-0.049l-0.003-0.058l-0.028-0.133l0.232-0.029l0.129-0.049
	l0.088-0.084l-0.224,0.042l-0.141-0.045h-0.052l-0.154,0.063l-0.032,0.031l-0.027,0.041l-0.094,0.104l-0.034,0.028l-0.001,0.037
	l0.151,0.031l0.075,0.043l0.037,0.083l-0.062-0.019l-0.134,0.006l-0.14,0.04l-0.084,0.045l-0.05,0.07L943.95,474l-0.014,0.004
	l-0.009,0.013l-0.009,0.016l-0.012,0.015l-0.875,0.258l-0.103-0.045l-0.097-0.076l-0.091-0.042l-0.098,0.004l-0.498,0.243
	l-0.121,0.026l-0.042,0.005l-0.153,0.069l-0.794-0.027l-0.063,0.048l-0.057,0.083l-0.056,0.057l-0.063-0.03l0.044-0.047l-0.07,0.012
	l-0.113,0.081l-0.094,0.042l-0.059,0.06l-0.034,0.025l-0.032,0.011l-0.284,0.017l-0.066,0.034l-0.015,0.019l-0.017,0.029
	l-0.02,0.027l-0.023,0.015l-0.035-0.012l-0.041-0.071l-0.032-0.012l0.02-0.064l0.025-0.041l0.02-0.042l0.007-0.068l-0.01-0.063
	l-0.023-0.025l-0.03-0.018l-0.032-0.042l0.048-0.067l0.067-0.224l0.029-0.051l0.13-0.021l0.021-0.023l-0.011-0.059l-0.03,0.005
	l-0.068,0.051l-0.057-0.003l-0.06-0.033l-0.048-0.066l-0.015-0.107l0.05-0.121l0.013-0.049l0.005-0.068v-0.123l0.004-0.055
	l-0.001-0.046l0.02-0.054l0.032-0.046l0.038-0.028l0.042,0.007l0.085,0.074l0.098,0.046l0.076,0.094l0.065,0.13l0.034,0.147
	l-0.042,0.007l0.046,0.055l0.071,0.008l0.286-0.034l0.071-0.027l0.047-0.049l-0.031-0.038l0.018-0.049l0.043-0.049l0.036-0.034
	l0.043-0.027l0.141-0.044l0.109-0.091l0.034-0.017l0.036,0.007l0.074,0.046l0.039,0.007l0.079-0.039l0.147-0.135l0.247-0.085
	l0.082-0.062l0.071-0.111l0.024,0.029l0.019,0.004l0.018-0.017l0.018-0.031l0.001-0.036l-0.049-0.038l-0.07-0.032l-0.068-0.008
	l-0.051,0.035l0.034-0.101l0.074-0.059l0.082-0.021l0.055,0.017l-0.024,0.01l-0.056,0.047l0.053,0.016l0.06-0.003l0.059-0.021
	l0.051-0.03l0-0.044l-0.06,0.01l0.042-0.04l0.018-0.011l-0.178-0.118l-0.097-0.03l-0.101,0.013l0.09-0.076l0.439-0.006l0.02,0.02
	l0.015,0.025l0.016,0.017l0.091,0.029l0.047-0.012l0.045-0.05l-0.034,0.011l-0.032,0.003l-0.029-0.011l-0.026-0.022l0.036-0.052
	l0.022-0.023l0.026-0.02l-0.06-0.03l0.077-0.039l0.103,0.011l0.04-0.008l0.061-0.013l0.064-0.129l-0.103,0.07l-0.055,0.016
	l-0.022-0.035l0.022-0.074l0.047-0.043l0.094-0.058l-0.059-0.023l-0.088,0.007l-0.09,0.028l-0.066,0.042l0.021-0.104l-0.032-0.04
	l-0.057-0.002l-0.082,0.016l-0.028,0.015l-0.027,0.021l-0.021,0.032l-0.109-0.001l0.087-0.081l0.029-0.054l-0.012-0.084l0.183-0.144
	l0.091-0.105l0.066-0.112l0.053-0.131l0.029-0.04l0.052-0.037l0.064-0.024l0.129-0.006l0.055-0.009l-0.058-0.012l-0.025-0.018
	l-0.023,0.004l0.122-0.109l0.063-0.039l0.07-0.022l0.401,0.021l0.07-0.027l0.05-0.08l0.034-0.052l-0.134,0.09l-0.07-0.017
	l0.001-0.037l0.028-0.004l0.024-0.014l0.047-0.041l0.003-0.028l-0.004-0.006l-0.009,0.001l-0.007-0.004l0.017-0.004l-0.53,0.068
	l-0.252,0.097l-0.225,0.217l-0.013,0.027l-0.01,0.034l-0.015,0.038l-0.027,0.037l-0.024,0.021l-0.058,0.028l-0.027,0.007
	l-0.046,0.023l-0.135,0.109l-0.043,0.053l-0.112,0.106l-0.139,0.007l-0.26-0.042l0.002-0.044l0.125-0.085l0.119-0.118l0.101-0.139
	l0.063-0.046l0.062,0.023l0.056-0.061l0.13-0.06l0.058-0.043l-0.259,0.021l-0.081,0.039l-0.058,0.044l-0.045,0.022l-0.044-0.024
	l-0.052-0.091l0.041-0.063l0.009-0.072l0.003-0.084l0.026-0.096l0.02-0.01l0.023,0.014l0.021-0.002l0.018-0.104l0.017-0.052
	l0.039-0.088l0.007-0.064l0.074-0.074l0.332-0.208l0.173-0.046l-0.012-0.05l-0.027-0.025l-0.037-0.003l-0.042,0.015l0.001-0.037
	l0.055-0.054l0.115-0.154l0.098-0.057l0.048-0.06l0.029-0.026l0.039-0.014l0.123-0.015l-0.014,0.109l0.058,0.007l0.074-0.012
	l0.036,0.053l0.037,0.037l0.242-0.031l-0.047-0.024l-0.102,0.028l-0.051-0.003l-0.041-0.033l-0.062-0.082l-0.052-0.02l0.12-0.067
	l0.001-0.036l-0.301,0.054l0.001-0.044l0.168-0.121l0.056-0.06l0.048-0.021l0.229-0.008v-0.045l-0.226-0.001l-0.071,0.015
	l-0.189,0.188l-0.074,0.022v-0.041l0.079-0.078l0.029-0.05l0.018-0.061l-0.118,0.133l-0.034,0.023l-0.027,0.036l-0.023,0.141
	l-0.036,0.038l-0.03,0.022l-0.124,0.127l-0.152,0.078l-0.046,0.042l0.016,0.079l-0.085-0.012l-0.083,0.035l-0.172,0.158
	l-0.072,0.086l-0.046,0.032l-0.045-0.008l-0.03-0.052l0.006-0.06l0.05-0.139l-0.061,0.027l-0.031,0.072l-0.01,0.092l-0.003,0.093
	l-0.013,0.03l-0.073,0.126l-0.014,0.056l-0.001,0.042l-0.005,0.036l-0.025,0.039l-0.104,0.018l-0.018,0.023l-0.011,0.023
	l-0.024,0.023l-0.03,0.018l-0.024,0.009l-0.046-0.011l-0.051-0.044l-0.042-0.07l-0.023-0.089l-0.026,0.041l-0.024,0.025
	l-0.024,0.019l-0.027,0.013l0.043-0.082l0.039-0.099l0.015-0.091l-0.027-0.062l0.013-0.011l0.029-0.036l-0.022-0.02l-0.023-0.011
	l-0.024-0.002l-0.028,0.005l0.013-0.021l0.031-0.067l0-0.037l-0.135,0.112l-0.083,0.049l-0.063,0.005l-0.049-0.063l-0.019-0.093
	l0.015-0.097l0.043-0.068l0-0.037h-0.05l-0.035-0.037l-0.023-0.045l-0.015-0.021l-0.037-0.01l-0.041-0.036l-0.037-0.047
	l-0.029-0.046l0.072,0.015l0.073,0.055l0.074,0.029l0.076-0.066l-0.06,0.011l0.02-0.071l0.028-0.049l0.037-0.036l0.039-0.028
	l-0.026-0.027l-0.011-0.006l0-0.042l0.34-0.208l0.084-0.109l0.002-0.041l-0.183,0.169l-0.097,0.062l-0.094,0.033l-0.081,0.059
	l-0.091,0.1l-0.083,0.066l-0.055-0.045l0.039-0.031l0.084-0.115l0.06-0.064l0.035-0.049l0.03-0.066l-0.02-0.037l0.025-0.016
	l0.017-0.019l0.04-0.061l-0.062-0.056l-0.086-0.006l-0.184,0.039l0.043-0.088l-0.058,0.01l0.021-0.063l0.058-0.127l0.026-0.075
	l-0.029,0.013l-0.027,0.029l-0.023,0.043l-0.022,0.054l-0.017-0.051l-0.022-0.019l-0.027,0.011l-0.031,0.035l-0.001,0.041
	l-0.156-0.013l-0.045,0.028l-0.089,0.1l-0.047,0.025l-0.002,0.045l0.022,0.001l0.055,0.025l-0.266,0.092l-0.067-0.035l0.067-0.003
	l0.035-0.01l0.024-0.028l-0.006-0.033l-0.027-0.043l-0.034-0.038l-0.024-0.016l-0.302,0.052l0.042,0.036l0.147,0.057l-0.002,0.041
	l-0.076,0.01l-0.131-0.084l-0.081,0.001l0.02-0.003l-0.356,0.031l-0.34,0.057l-0.39,0.038l-0.158-0.13l-0.156,0.016l-0.276,0.101
	l-0.003,0.018l-0.053,0.088l-0.021,0.027l-0.031,0.031l-0.033,0.024l-0.035,0.012l-0.324-0.039l0.031-0.03l0.034-0.021l0.035-0.011
	l-0.046-0.011l-0.11,0.07l-0.09,0.113l-0.019,0.12l-0.06,0.148l-0.081,0.07l-0.209,0.038l-0.062,0.024l-0.128,0.083l-0.058,0.015
	l-0.198-0.075l-0.041-0.052l-0.039-0.008l-0.028-0.024l-0.006-0.099l-0.013-0.05l-0.11-0.155l-0.046-0.086l-0.037-0.092
	l-0.063-0.241l0.021-0.047l0.054,0.044l0.053-0.031l0.11-0.127l0.056-0.039l0.31-0.125l0.06-0.003l0.219,0.099l0.307,0.001
	l0.028-0.02l0.056-0.084l0.027-0.031l0.116-0.013l0.03-0.031l0.109-0.163l0.119-0.055l0.253-0.001l0.002-0.045l-0.016-0.014
	l-0.007-0.016l-0.005-0.02l-0.008-0.024l0.118-0.026l0.038,0.025l-0.025,0.104l0.037,0.019l0.025-0.036l0.023-0.043l0.032-0.003
	l0.007,0.056l-0.003,0.083l0.012,0.041l0.055-0.07l0.043,0.031l0.052-0.031l0.045-0.064l0.02-0.062l-0.007-0.059l-0.018-0.074
	l-0.011-0.083l0.012-0.084l0.083-0.109l0.119-0.038l0.229-0.006l-0.024,0.072l-0.038,0.053l-0.083,0.065l0.007,0.021l0.01,0.057
	l-0.033,0.012l-0.024,0.026l-0.021,0.041l-0.025,0.056l0.147,0.181l-0.013-0.087l0.001-0.075l0.015-0.066l0.031-0.064l0.019-0.016
	l0.054-0.019l0.024-0.017l0.02-0.037l0.021-0.08l0.015-0.039l0.082-0.105l0.082-0.021l0.074,0.046l0.06,0.095l0.048-0.07
	l0.061-0.048l0.176-0.068l0.173-0.135l-0.044-0.019l-0.207,0.062l0.001-0.046l0.121-0.044l0.22-0.232l0.113-0.044l-0.018,0.028
	l-0.021,0.02l0.05,0.004l0.046,0.021l-0.006,0.046l-0.002,0.008h0.002l0.003,0.023l-0.042,0.06l-0.087,0.058l-0.033,0.04
	l0.037,0.003l0.047-0.011l0.05-0.027l0.042-0.04l0.014,0.112l0.023,0.045l0.092,0.023l0.124,0.083l0.046,0.009l0.002-0.037
	l-0.035-0.013l-0.031-0.032l-0.066-0.098l0.081-0.106l0.043-0.036l0.056-0.011l0.01-0.081l0.053-0.033l0.237-0.032l0.235-0.09h0.382
	l0.252,0.072l0.03-0.021l0.045-0.062l0.026-0.021l0.215-0.039l0.057,0.014l0.061,0.031l0.059,0.009l0.005-0.006l0.05-0.049
	l0.074,0.032l0.318-0.104l0.077-0.071l0.005-0.075l-0.049-0.05l-0.087,0.003l0.032-0.085l0.034-0.032l0.042-0.022l0.054-0.054
	l0.039-0.076l0.127-0.329l0.016-0.209l-0.09-0.068l-0.125,0.034l-0.09,0.098l0,0.041l0.021-0.004l-0.001,0.045l-0.44,0.407
	l-0.144,0.079l-0.806,0.006l-0.199-0.112l-0.031-0.007l-0.014,0.006l-0.042,0.034l-0.259,0.083l-0.075-0.017l-0.052-0.049
	l0.045-0.033l0.084-0.038l0.066-0.064l0.02,0.028l0.021,0.008l0.053-0.008l0-0.044l-0.061-0.031l-0.072,0.006l-0.138,0.072
	l0.033-0.093l0.055-0.095l0.098-0.129l0.134-0.08l0.051-0.06l-0.003-0.097l0.042-0.023l0.101-0.002l0.027-0.028l0.088-0.16
	l0.077-0.066l0.318-0.137l0.272-0.234l0.105-0.133l0.185-0.117l0.067-0.076l-0.007-0.006l-0.007,0.003l-0.005-0.004l0.002-0.028
	l0.042-0.003l0.067,0.057l0.042-0.003l-0.022-0.088l-0.013-0.028l0.178-0.125l0.371-0.173l0.107-0.077l0.07-0.049l-0.274,0.131
	l-0.099,0.021l-0.201-0.003l-0.168,0.076l-0.056,0.007l0.059-0.104l0.062-0.082l-0.099-0.071l-0.036-0.058l-0.011-0.089
	l-0.038,0.032l-0.04,0.022l-0.041,0.013l-0.04,0.003l0.014,0.083l-0.025,0.032l-0.041-0.001l-0.029-0.016l-0.023-0.049l-0.049-0.135
	L942,464.427l0.012,0.1l-0.01,0.086l-0.026,0.08l-0.043,0.075l-0.052,0.065l-0.028,0.026l-0.026,0.014l-0.011,0.028l-0.019,0.06
	l-0.024,0.061l-0.028,0.031l-0.107,0.029l-0.047-0.009l-0.072-0.092l-0.16-0.106l-0.116-0.032l-0.014-0.05l0.058-0.109l0.063-0.051
	l0.313-0.118l0.134-0.106l0.068-0.031l0.032-0.032l0.01-0.063l0.002-0.071l0.009-0.055l0.025-0.047l0.032-0.038l0.063-0.056
	l-0.084,0.037l-0.214,0.305l-0.098,0.09l-0.093,0.055l-0.199,0.05l0.001-0.042l0.122-0.099l0.038-0.049l0-0.045l-0.058,0.015
	l-0.043,0.044l-0.077,0.101l-0.058,0.031l-0.034-0.019l-0.032-0.027l-0.049,0.001l-0.001,0.045l0.032,0.04l-0.016,0.057
	l-0.042,0.054l-0.158,0.084l-0.04-0.012l-0.026-0.099v-0.098l0.013-0.075l0.002-0.075l-0.032-0.096l-0.047-0.203l-0.031-0.068
	l-0.037,0.063l0.001,0.032l-0.005,0.066l0.002,0.064l0.039,0.12l-0.001,0.048l-0.017,0.049l-0.058,0.116l-0.032,0.046l-0.036,0.01
	l-0.039-0.05l-0.049-0.104l-0.023-0.006l-0.023,0.16l-0.023,0.052l-0.032,0.028l-0.036,0.004l-0.021-0.021l-0.02-0.045l-0.056-0.177
	l-0.009-0.097l0.024-0.104l0.067-0.125l-0.024-0.028l-0.014,0.01l-0.014,0.023l-0.026,0.008l-0.072-0.032l-0.048,0.009l-0.016,0.012
	l-0.015,0.037l0.001,0.035l0.02,0.125l0.024,0.07l0.057,0.445l-0.041,0.046l-0.047-0.001l-0.051-0.015l-0.05,0.004l0.001-0.037
	l0.019-0.054l-0.012-0.038l-0.03-0.021l-0.038-0.002l-0.093,0.043l-0.031-0.002v-0.057l-0.023,0.01l-0.071,0.007l0.002-0.045
	l0.07-0.072l0.131-0.176l0.075-0.046l-0.025-0.061l-0.044-0.038l-0.096-0.039l-0.02,0.137l-0.062,0.126l-0.073,0.069l-0.056-0.027
	l-0.015-0.063l-0.01-0.072l-0.014-0.057l-0.029-0.02l-0.008,0.042l-0.022,0.192l-0.01,0.059l-0.063,0.079l-0.168,0.066l-0.081,0.054
	l-0.149-0.042l-0.078-0.061l0.012-0.09l0-0.037l-0.079,0.054l-0.053,0.127l-0.01,0.131l0.049,0.07l-0.001,0.044l-0.039,0.04
	l-0.066,0.104l-0.04,0.04l-0.045,0.021l-0.184,0.011l-0.075-0.018l-0.044,0.001l-0.042-0.012l-0.031-0.039l-0.028-0.048
	l-0.016,0.004l-0.018,0.006l-0.015,0.01l-0.03,0.031l0.013,0.006l0.008,0.007l0.018,0.021l-0.082,0.043l-0.151,0.134l-0.378,0.131
	l-0.083-0.03l-0.006,0.072l-0.013,0.026l-0.018,0.009l-0.025,0.026l-0.113,0.18l-0.515,0.211l-0.127,0.007l-0.108-0.052l0.002-0.045
	l0.018-0.049l-0.009-0.042l-0.026-0.035l-0.031-0.027l0.05-0.004l0.021,0.008l0.021,0.022l0.015-0.112l-0.047-0.047l-0.064,0.018
	l-0.032,0.084l-0.061-0.08l-0.413-0.092l-0.79,0.197l-0.098-0.002l-0.052-0.09l0.124-0.084l0.065-0.065l0.03-0.065l0.036-0.046
	l0.167-0.117l0.052-0.06l0.017-0.095l0.007-0.109l0.021-0.091l0.087-0.064l0.051-0.066l0.041-0.019h0.069l0.257,0.103l0.077-0.001
	l0.045,0.019l0.14,0.151l0.104,0.046l0.189,0.016l0.043,0.049l0.036,0.062l0.045,0.048l0.08,0.024l0.082-0.019l0.161-0.1
	l-0.126,0.026l-0.064-0.006l-0.05-0.016l-0.042-0.046l-0.035-0.064l-0.039-0.055l-0.053-0.018l-0.127-0.114l-0.069-0.106
	l-0.081-0.093l-0.042-0.078l0.409,0.011l0.262,0.1l0.084,0.01l-0.047-0.084l-0.069-0.067l-0.076-0.042l-0.116-0.02l-0.139-0.063
	l-0.124-0.021l-0.057-0.043l-0.091-0.111l-0.1-0.191l-0.004-0.075l0.008-0.073l0.001-0.07l-0.024-0.067l0.121-0.112l0.118-0.012
	l1.123,0.397l0.024,0.024l0.045,0.083l0.071,0.04l0.018,0.025l0.023,0.103l-0.015,0.07l-0.034,0.067l-0.027,0.095l0.048,0.016
	l0.065-0.056l0.122-0.163l0.009,0.028l0.042,0.045l0.033-0.062l0.149,0.009l0.067-0.031l0.003-0.041l-0.024-0.007l-0.01-0.012
	l-0.019-0.052l0.049-0.012l0.127-0.101l0.045-0.013l0.044-0.001l0.042-0.012l0.04-0.044l-0.329,0.081l-0.147-0.019l-0.105-0.045
	l-0.037-0.034l-0.045-0.063l-0.023-0.063l0.028-0.035l0.176-0.101l0.037,0.007l0.041,0.028l0.227-0.067l0.075-0.071l0.058-0.022
	l0.119,0.021l0.059-0.004l0.059-0.058l-0.033-0.026l-0.017-0.007l-0.024,0.005l0.003-0.037l0.133-0.104l0.042-0.053l-0.151,0.045
	l-0.09,0.051l-0.123,0.118l-0.742,0.109l-0.143-0.028l-0.09-0.067l-0.147,0.073l-0.032-0.021l-0.034-0.057l-0.151-0.134
	l-0.078-0.149l-0.048-0.188l0.02-0.184l0.124-0.139l0.053-0.012l0.15,0.06l0.202,0.007l0.049,0.022l0.081,0.083l0.048,0.028
	l0.052-0.003l0.175-0.076l0.333,0.065l0.112-0.02l0.19,0.097l0.104,0.021l0.097-0.06l-0.224-0.026l-0.068-0.07l-0.227,0.02
	l-0.069-0.025l-0.122-0.083l-0.281-0.012l-0.061-0.033l-0.139-0.159l-0.073-0.026l-0.033-0.05l-0.058-0.013l-0.119-0.086
	l-0.104-0.122l-0.021-0.046l0.009-0.186l0.022-0.101l0.044-0.079l0.114-0.057l0.139,0.006l0.479,0.187l0.144,0.01l0.1-0.069
	l0.008,0.094l0.029,0.075l0.045,0.048l0.055,0.009l0.001-0.038l-0.042-0.056l-0.076-0.175l-0.054-0.03l-0.062-0.002l-0.122-0.035
	l-0.063-0.002l-0.03-0.015l-0.077-0.088l-0.152-0.104l-0.085-0.101l0.092-0.083l0.237-0.062l0.178-0.004l0.233,0.139l-0.063-0.043
	l-0.098-0.141l-0.06-0.023l-0.261,0.051l-0.063-0.032l0.003-0.045l0.029-0.051l0.042-0.062l0.048-0.054l0.027-0.016l0.02-0.011
	l0.112-0.024l0.045-0.042l0.008-0.082l0.063-0.039l0.422,0.036l0.268,0.136l0.081,0.003l0.052,0.029l0.064,0.08l0.042,0.102
	l-0.014,0.091l0.012,0.128l0.144-0.216l0.055-0.033l0.028,0.011l0.025,0.032l0.035,0.068l0.047,0.057l0.003,0.032l-0.003,0.088
	l0.011,0.095l0,0.059l-0.02,0.047l-0.05,0.086l-0.011,0.014l-0.132,0.233l-0.029,0.064l0.017-0.003l0.062-0.097l0.158-0.193
	l0.059-0.092l0.018-0.051l0.014-0.058l0.02-0.048l0.031-0.021l0.032,0.012l0.018,0.042l0.034,0.136l-0.014,0.029l-0.006,0.02
	l0.042-0.042l0.046-0.067l0.044-0.041l0.041,0.033l-0.053,0.149l-0.07,0.153l-0.084,0.129l-0.094,0.074l0.11-0.025l0.051-0.033
	l0.048-0.061l0.059-0.166l0.043-0.099l0.032-0.025l0.031,0.157l-0.025,0.171l-0.031,0.146l0.011,0.083l0.106-0.31l0-0.135
	l0.018-0.158l0.029-0.149l0.033-0.107l0.025-0.049l0.016-0.012l0.185-0.019l0.018,0.016l0.003,0.081l0.016,0.046l0.023,0.025
	l0.102,0.083l0.092,0.151l0.016,0.019l0.001,0.027l-0.018,0.134l-0.013,0.069l-0.02,0.063l-0.023,0.033l0.006,0.021l0.011,0.012
	l-0.156,0.384l-0.033,0.116l0.018,0.048l0.037-0.017l0.074-0.246l0.201-0.477l0.022-0.122l0.001-0.045l0.06-0.022l0.036,0.051
	l0.029,0.08l0.039,0.069l0.021,0.001l0.017-0.018l0.017-0.003l0.021,0.047l-0.003,0.05l-0.017,0.049l-0.004,0.041l0.037,0.022
	l0.006-0.032l0.015-0.063l0.02-0.05l0.021,0.01l-0.002,0.042l-0.025,0.209l-0.027,0.073l-0.068,0.127l-0.029,0.072l0,0.039
	l0.108-0.074l0.12-0.358l0.09-0.079l0.002-0.045l-0.056-0.045l-0.027-0.111l-0.015-0.129l-0.021-0.103l-0.037-0.079l-0.049-0.071
	l-0.057-0.049l-0.057-0.013l0.031-0.084l0.016-0.076l0.018-0.072l0.042-0.068l0.054-0.034l0.056-0.014l0.048-0.032l0.035-0.088
	l-0.057,0.012l-0.138,0.087l-0.053,0.055l-0.052,0.028l-0.226-0.06l-0.149-0.116l-0.641-0.135l-0.184-0.149l-0.102-0.249l0.13-0.098
	l0.409-0.174l0.085-0.012l0.287,0.029l0.076-0.013l0.028,0.004l0.015,0.022l0.008,0.027l0.011,0.021l0.07,0.055l0.038,0.001
	l0.039-0.043l-0.018-0.018l-0.013-0.025l-0.02-0.075l0.134-0.025l0.07-0.03l0.124-0.11l0.138-0.038l0.064-0.06l-0.374,0.125
	l-0.11-0.032l-0.053-0.042l0.013-0.01l0.044-0.012l0.045-0.05l0.031-0.052l0.042-0.044l0.046-0.029l0.045-0.007l0-0.046l-0.06-0.02
	l-0.036,0.019l-0.112,0.124l-0.141,0.096l-0.163,0.044h-0.126l-0.022-0.009l-0.001-0.066l0.026-0.048l0.058-0.071l0.012-0.046
	l0.019-0.124l0.012-0.041l0.039-0.043l0.132-0.075l-0.119,0.045l-0.091,0.074l-0.224,0.251l-0.052,0.035l-0.114,0.037l-0.032-0.029
	l0.022-0.083l0.045-0.091l0.039-0.054l0.002-0.045l-0.094,0.052l-0.048,0.044l-0.048,0.063l-0.116,0.195l-0.021,0.018l-0.069,0.083
	l-0.426-0.023l-0.109-0.039l-0.07-0.074l-0.042-0.032l-0.019-0.036l0.04-0.064l0.105-0.025l0.129,0.022l0.117-0.037l0.068-0.201
	l-0.076,0.004l-0.084-0.043l-0.075-0.073l-0.053-0.082l0.085-0.077l0.083,0.021l0.082,0.053l0.08,0.023l-0.017-0.064l-0.012-0.027
	l-0.021-0.027l0.298-0.1l0.02,0.004l0.016,0.022l0.019,0.07l0.016,0.022l0.057,0.003l0.027-0.051l-0.008-0.059l-0.042-0.024
	l-0.045-0.007l-0.128-0.084l0.271-0.05l0.047,0.01l0.092,0.068l0.121,0.021l0.093,0.09l0.053,0.024l0.07-0.024l0.11-0.133
	l0.066-0.055l-0.005-0.021l-0.009-0.059l0.108-0.055l0.085,0.047l0.083,0.075l0.185,0.048l0.042-0.016l0.015-0.078l-0.017-0.057
	l-0.07-0.031l-0.018-0.055l0.086-0.003l0.082,0.061l0.06,0.107l0.021,0.139l0.044,0.082l0.218,0.067l0.066,0.101l-0.042,0.069
	l0.034,0.03l0.115,0.001l-0.001,0.042l-0.049-0.005l-0.021,0.03l-0.007,0.054l-0.001,0.064l0.012,0.029l0.023,0.037l0.004,0.046
	l-0.045,0.051l-0.001,0.046l0.034,0.034l0.039-0.044l0.045-0.039l0.046-0.027l0.042-0.009l0.023,0.022l0.021,0.037l0.027,0.013
	l0.022-0.046l0.043-0.084l0.044-0.021l0.023,0.038l-0.018,0.091l0.196-0.058l0.05,0.009l0.024-0.043l0.025-0.006l0.022,0.013
	l0.021,0.018l0.015,0.02l0.095,0.125l-0.027,0.048l-0.166,0.155l0.037,0.014l0.035-0.023l0.038-0.039l0.042-0.027l0.041,0.001
	l0.126,0.071l0.034,0.04l0.021,0.014l0.028-0.004l0.056-0.043l0.03-0.012l0.172,0.048l-0.009,0.023l-0.013,0.06l0.047,0.019
	l0.024,0.067l-0.001,0.074l-0.039,0.041l0.009,0.036l0.021,0.056l0.004,0.029l0-0.002l0.003,0.099l0.01,0.114l0.018,0.037
	l0.037,0.023l0.04-0.013l0.05-0.036l0.047-0.021l0.034,0.036l0.004,0.083l-0.027,0.082l-0.035,0.076l-0.023,0.068l0.036-0.015
	l0.044-0.037l0.039-0.043l0.017-0.035l0.004-0.102l-0.003-0.046l-0.055-0.11l0.036-0.041l0.1-0.064l0.124-0.033l0.021,0.016
	l0.013,0.042l0.011,0.043l0.01,0.019l0.052,0.011l-0.035,0.054l-0.061,0.055l-0.026,0.014l-0.02,0.062l0.011,0.042l0.052,0.072
	l0.07,0.038l0.303-0.136l0.08,0.002l0.065,0.021l0.049,0.061l0.031,0.122l-0.394,0.113l-0.077,0.07l-0.296,0.137l-0.041,0.008
	l0.049,0.076l0.078-0.025l0.16-0.108l0.262-0.095l0.081,0.026l-0.035,0.058l-0.122,0.102l0,0.041l0.302-0.138l0.073,0.041
	l0.039,0.114l0.007,0.103l-0.035,0.087l-0.085,0.063l0.132,0.056l0,0.045l-0.145,0.319l-0.053,0.089l-0.084,0.084l-0.287,0.155
	l-0.001,0.045l0.061-0.008l0.105-0.039l0.047,0.004l0.148,0.056l0.043,0.03L944,463.013l-0.084,0.073l-0.382,0.06l-0.027-0.022
	l-0.044-0.07l-0.013-0.014l-0.053-0.026l-0.05-0.069l-0.031-0.078l-0.003-0.051l-0.067-0.073l-0.085-0.025l-0.091,0.02l-0.081,0.061
	l0.054-0.003l0.13,0.051l0.043,0.03l0.006,0.016l0.056,0.087l0.011,0.007l0.005,0.071l-0.01,0.05l-0.022,0.044l-0.037,0.055
	l0.044,0.033l0.023,0.026l0.009,0.029l0.012,0.078l0.032,0.04l0.032,0.019l0.014,0.013l0.048,0.031l0.471-0.103l0.08,0.022
	l0.037,0.071l-0.03,0.075l-0.151,0.235l-0.057,0.066l-0.001,0.042l0.139-0.095l0.175-0.174l0.15-0.06l0.057,0.248l-0.064,0.232
	l-0.147,0.241l-0.169,0.187l-0.137,0.076l-0.001,0.042l0.289-0.156l0.112-0.109l0.062-0.032l0.064-0.001l0.04,0.024l0.079,0.105
	l0.107,0.07l0.027,0.053l-0.022,0.104l0.04,0.014l0.006,0.044l-0.008,0.063v0.076l0.015,0.13l-0.002,0.092l-0.015,0.124v0.06
	l0.106,0.294l0.038,0.055l-0.013,0.013l-0.002,0.004l-0.001,0.005l-0.007,0.019l0.056,0.043l0.057,0.088l0.029,0.111l-0.029,0.111
	v0.038l0.046,0.027l0.019-0.017l0.03-0.028l0.024-0.086l-0.04-0.139l-0.007-0.096l-0.007-0.042l-0.025-0.057l-0.048-0.081
	l-0.021-0.048l0.043-0.076l0.017-0.021l-0.01-0.05l0.02-0.042l0.029-0.04l0.023-0.042l0.016-0.096v-0.083l-0.051-0.445l-0.008-0.188
	l0.038-0.093l0.086,0.026l0.06,0.096l0.083,0.239l0.081,0.131l0.012,0.039l0.019,0.04l0.097,0.009l0.039,0.023l0.022-0.049
	l-0.073-0.124l-0.065-0.172l-0.047-0.188l-0.022-0.173l-0.008-0.14l0.001-0.099l0.013-0.091l0.013-0.036l0.035-0.064l0.013-0.032
	l0.032-0.18l0.01-0.041l0.088-0.167l0.324-0.289l0.177-0.244l0.053-0.036l0.055-0.025l0.04-0.033l0.011-0.062l0.036-0.014
	l0.028,0.013l0.052,0.059h0.013l0.037-0.016l0.009,0.003l0.007,0.052l-0.008,0.019l-0.014,0.006l-0.008,0.016l-0.021,0.247
	l-0.004,0.122l0.021,0.085l-0.035,0.11l-0.003,0.105l0.031,0.057l0.064-0.036l-0.029-0.105l0.006-0.099l0.037-0.054l0.067,0.033
	l0.024,0.035l0.002,0.024l-0.001,0.035l0.011,0.068l-0.013,0.048l-0.006,0.042v0.034l0.01-0.004l0.053,0.017l0.017,0.012
	l0.019,0.046l0.01,0.038l0.014,0.034l0.031,0.031l0.032,0.017l0.034,0.007l0.036-0.001l0.036-0.013l0.011-0.008l0.055-0.045
	l0.024-0.07l0.015-0.097l0.035-0.136l-0.033-0.019l-0.043-0.072l-0.032-0.01l-0.098,0.028l-0.047-0.002l-0.04-0.032l0.096-0.053
	l0.09-0.023l0.038-0.021l0.079-0.074l0.042-0.021l0.036,0.049l-0.014,0.271l0.042,0.078l-0.009-0.094l0.027-0.078l0.019-0.074
	l-0.035-0.083l0.033-0.087l0.092-0.138l0.045-0.082l0.01-0.047l0.004-0.099l0.015-0.048l0.027-0.029l0.053-0.01l0.059-0.028
	l-0.063,0.002l-0.039-0.067l-0.005-0.083l0.039-0.048l0.037-0.032l0.028-0.068l0.017-0.09l0.008-0.1l-0.023-0.151l-0.055-0.13
	l-0.069-0.098l-0.066-0.049v-0.045l0.076-0.078l-0.028-0.171l-0.072-0.182l-0.107-0.191l-0.019-0.052l-0.017-0.206l-0.018-0.097
	l-0.03-0.072l-0.04-0.055l-0.05-0.042l0.044-0.069l0.04-0.101l0.014-0.102l-0.036-0.07l0.057-0.058l0.068-0.025l0.118-0.012
	l0.027-0.016l0.051-0.064l0.028-0.026l0.037-0.018l0.099-0.012l0.055-0.04l0.102-0.136l0.046-0.035l0.137,0.015l0.031-0.004
	l0.032-0.004l0.06-0.063l0.015,0.126l0.037,0.068l0.055,0.034l0.066,0.025l-0.018,0.049l0.029,0.019l0.021,0.041l0.027,0.086
	l0.037,0.086l0.119,0.227l0.018,0.058l0.009,0.049l0.016,0.042l0.034,0.033l-0.011,0.017l-0.017,0.042l-0.009,0.017l0.055,0.093
	l0.073,0.083l0.053,0.088l-0.005,0.11l0.051,0.054l0.152,0.056l0.114,0.091l0.035,0.006l0.031,0.012l0.035,0.058l0.016,0.021
	l0.038,0.002l0.014,0.013l0.018,0.047l0.007,0.045l0.005,0.043l0.009,0.042l0.063,0.135l0.018,0.048l0.013,0.078l0.016,0.167
	l0.02,0.073l0.062,0.088l0.145,0.069l0.057,0.088l0.018-0.125l0.02-0.042l0.088,0.029l0.011,0.013l0.039,0.059l0.021,0.021
	l0.033,0.016l0.08,0.013l-0.025,0.008l-0.02,0.016l-0.009,0.025l0.011,0.052l0.023,0.007l0.053-0.02l0.03-0.03l0.025-0.079
	l0.031-0.166l0.019-0.173v-0.152l-0.021-0.147l-0.042-0.159l-0.082-0.228l-0.008-0.041l-0.167-0.201l-0.002-0.043l0.013-0.054
	l0.024-0.043l0.033-0.013h0.052l0.056-0.019l0.053-0.04l0.042-0.061l-0.031-0.041l-0.028-0.056l-0.022-0.064l-0.028-0.135
	l-0.001-0.021l0.012-0.014l0.026-0.043l0.05-0.045l0.16-0.041l0.373,0.023l0.132,0.117l0.07,0.026l-0.007-0.102l0.022-0.02
	l0.021-0.01h0.024l0.027,0.013l-0.007,0.021l-0.01,0.058l0.057,0.031l0.096,0.109l0.057,0.024l-0.036-0.037l-0.025-0.04
	l-0.019-0.048l-0.015-0.061l0.019,0.004v-0.038l-0.015-0.014l-0.028-0.031l-0.016-0.013v-0.037l0.025-0.037l0.028-0.137l0.018-0.061
	l0.027-0.032l0.095-0.056l0.248-0.031l0.089,0.058l-0.018,0.191l0.054-0.008l0.036-0.046l0.062-0.118l-0.014-0.062l-0.009-0.025
	l0.05-0.025l0.075,0.027l0.141,0.09l-0.021,0.086l-0.044,0.124l-0.007,0.088l0.031,0.004l0.197-0.145l0.081,0.033l0.069,0.087
	l0.059,0.092l0.052,0.048l0.026,0.049l-0.029,0.09l-0.076,0.139l0.036,0.009l0.039-0.001l0.038-0.014l0.027-0.03l0.032-0.017
	l0.038,0.034l0.037,0.047l0.031,0.027l0.046,0.054l0.028,0.112l0.024,0.127l0.032,0.101l-0.047,0.172l-0.02,0.102l0.008,0.048
	l0.201,0.086l0.13,0.099l0.208,0.068l0.029,0.025l0.031,0.054l0.049,0.109l0.066,0.059l0.022,0.066l0.017,0.073l0.026,0.085
	l0.006,0.028l0.011,0.021l0.022,0.012l0.05,0.003l0.025,0.009l0.02,0.027l0.03,0.08l0.009,0.051l-0.002,0.167l0.013,0.071
	l0.055,0.118l0.017,0.049l0.006,0.253l0.01,0.041l0.024,0.022l0.086,0.123l0.136,0.148l-0.014,0.078l0.018,0.111l0.036,0.092
	l0.046,0.023l0.033-0.069l-0.005-0.111l-0.027-0.113l-0.031-0.078l-0.023-0.026l-0.06-0.051l-0.018-0.027l-0.014-0.071l0.007-0.037
	l0.014-0.024l0.01-0.032l-0.004-0.058l-0.007-0.043l-0.004-0.044l0.009-0.062l0.015-0.022l0.046-0.03l0.013-0.016l0.014-0.11
	l-0.011-0.098l-0.093-0.303l-0.002-0.02l-0.001-0.083l-0.007-0.024l-0.018-0.002l-0.02,0.003l-0.016-0.009l-0.057-0.118
	l-0.022-0.025l-0.003-0.007l-0.004-0.013l-0.007-0.014l-0.016-0.008l-0.013,0.01l-0.021,0.053l-0.01,0.011l-0.038-0.03l-0.089-0.117
	l-0.03-0.049l0.023-0.081l-0.013-0.083l-0.036-0.068l-0.083-0.063l-0.059-0.136l-0.036-0.065l-0.001-0.041l0.021,0.004l-0.001-0.046
	l-0.08-0.185l-0.042-0.29l0.008-0.282l0.07-0.161l0.037-0.007l0.248,0.064l0.038,0.027l0.068,0.066l0.039,0.019l0.117,0.012
	l0.043,0.02l-0.004,0.021v0.008l-0.002,0.004l-0.012,0.008l0.104,0.074l0.271-0.01l0.119,0.069l0.024,0.052l0.032,0.125l0.026,0.049
	l0.031,0.02l0.111,0.008l0.049,0.035l0.092,0.131l0.053,0.036l0.038,0.036l0.114,0.174l0.036,0.073l0.051,0.183l0.035,0.088
	l0.091,0.077l0.049,0.069l0.076,0.137l0.104,0.27l0.042,0.086l0.007-0.113l-0.027-0.094l-0.039-0.088l-0.032-0.095l0.054,0.014
	l0.063-0.004l0.061-0.019l0.048-0.03l-0.253-0.036l-0.069-0.063l0.44,0.075l0.032,0.035l0.021,0.073l0.043,0.119l0.018,0.003
	l0.013-0.04l0.001-0.044l-0.012-0.043l-0.026-0.041l-0.001-0.038l0.035-0.021l0.03-0.04l0.014-0.059l-0.011-0.082l0.042-0.036
	l0.017-0.027l0.012-0.043v-0.034l-0.011-0.096l0.003-0.078l0.031-0.076l0.066-0.067l0.078-0.046l0.068-0.011l0.027-0.027
	l0.013-0.068v-0.071l-0.013-0.034l-0.031-0.025l0.013-0.04l0.052-0.075l0.071-0.056l0.166-0.027l0.024-0.101l0.075,0.074
	l0.276,0.076l0.073,0.058l0.003,0.005l0.058,0.115l0.118,0.279l-0.001,0.032v0.013l0.002,0.013l0.003,0.029l-0.037-0.006
	l0.001,0.042l0.034,0.031l0.035,0.02h0.033l0.031-0.028l-0.018-0.008l-0.042-0.043l0.095-0.049l0.339-0.025l0.103,0.047l-0.044-0.01
	l-0.043,0.005l-0.04,0.021l-0.037,0.036l0.036,0.028l0.054,0.097l0.018-0.004l0.05-0.111l0.03-0.043l0.031-0.01l0.081,0.082
	l0.062,0.117l0.065,0.103l0.089,0.035l-0.002-0.039l-0.09-0.073l-0.046-0.05l-0.031-0.049l-0.025-0.083l-0.003-0.06l-0.014-0.05
	l-0.052-0.053l0.119-0.059l0.183-0.024l0.108-0.044l0.063,0.009l-0.233,0.086l-0.072,0.061l0.234-0.043l0.056,0.012l0.069,0.067
	l0.115,0.165l0.071,0.021l-0.002-0.045l-0.101-0.106l-0.052-0.077l-0.024-0.071l0.006-0.09l0.023-0.073l0.038-0.054l0.046-0.032
	v-0.028l-0.005-0.008l0.009-0.028l0.02-0.043l0.016-0.056l0.004-0.056l-0.011-0.095l-0.021-0.053l-0.027-0.046l-0.049-0.1
	l-0.014-0.023l-0.016-0.015l-0.017-0.007l-0.015-0.025l-0.009-0.053l-0.005-0.055l-0.007-0.034l-0.077-0.068l-0.021-0.053
	l0.013-0.104l-0.008-0.003l-0.028-0.003l0.009-0.019l0.015-0.043l0.009-0.019l-0.021-0.021l-0.014-0.028l-0.028-0.083l0.057,0.011
	l-0.002-0.042l-0.05-0.067l-0.061-0.204l-0.081-0.095l0.021-0.079l0.051-0.065l0.058,0.001l0.017,0.039l0.004,0.046l0.01,0.04
	l0.031,0.013l0.006-0.026l0.007-0.057l0.019-0.053l0.033-0.021l0.074-0.017l0.043,0.01l0.003,0.048l-0.01,0.065l0.011,0.059
	l0.026,0.046l0.028,0.025l-0.006-0.035l-0.004-0.027l-0.004-0.028l-0.011-0.035l0.041-0.009l0.076-0.047l0.024-0.006l0.042,0.039
	l0.031,0.052l0.035,0.044l0.046,0.017l-0.035,0.03l-0.018,0.005l0.048,0.046h0.049l0.051-0.015l0.017-0.003l-0.003-0.045
	l0.028-0.039l0.023-0.053l0.03-0.033l0.005,0.017l0.023,0.073l0.031,0.017l0.027-0.031l0.015-0.111l0.022-0.023l0.058-0.017
	l0.074,0.012l0.156,0.086l0.03-0.009L958.862,459.236z M953.579,458.242l-0.051,0.025l-0.05-0.081l-0.009-0.102l0.028-0.011
	l0.071,0.097l0.021,0.019L953.579,458.242z"/></svg>