<?xml version="1.0" encoding="utf-8"?>
<!-- Generator: Adobe Illustrator 15.0.0, SVG Export Plug-In . SVG Version: 6.00 Build 0)  -->
<!DOCTYPE svg PUBLIC "-//W3C//DTD SVG 1.1//EN" "http://www.w3.org/Graphics/SVG/1.1/DTD/svg11.dtd">
<svg version="1.1" id="Ebene_1" xmlns="http://www.w3.org/2000/svg" xmlns:xlink="http://www.w3.org/1999/xlink" x="0px" y="0px"
	 width="1920px" height="1080px" viewBox="0 0 1920 1080" enable-background="new 0 0 1920 1080" xml:space="preserve">

<path fill="#222222" d="M1418.423,275.785l0.003,0.015l-0.01,0.013l-0.016-0.001l-0.019-0.011l-0.011-0.007l-0.017-0.02l0.004-0.01
	l0.011-0.004h0.002l0.019,0.004L1418.423,275.785z M1417.947,275.847l0.012,0.007l-0.016,0.006L1417.947,275.847z M1416.65,277.392
	l0.004,0.021l-0.018,0.009l-0.013-0.008l-0.019-0.04l0.009-0.011L1416.65,277.392z M1415.766,275.793l0.026,0.028l-0.003,0.023
	l-0.018,0.007l-0.021-0.001l-0.02-0.02l-0.001-0.013l0.018-0.019L1415.766,275.793z M1415.457,271.096l0.01,0.003l-0.01,0.006
	V271.096z M1414.777,275.33l0.002,0.02l-0.024,0.012l-0.031-0.015l-0.002-0.011l0.009-0.013l0.023-0.006L1414.777,275.33z
	 M1414.775,275.807l0.001,0.016l-0.024,0.022l-0.025,0.003l-0.007-0.01l0.024-0.028l0.016-0.007L1414.775,275.807z M1414.646,275.37
	l0.024,0.024l-0.008,0.021l-0.025,0.001l-0.012-0.009l-0.003-0.014l0.008-0.017L1414.646,275.37z M1412.888,268.964l0.03,0.031
	l-0.013,0.017l-0.023,0.009l-0.034-0.008l-0.004-0.015l-0.004-0.048l0.007-0.011l0.002-0.004l0.024-0.012l0.009,0.006l0.002,0.01
	L1412.888,268.964z M1412.381,268.866l0.005,0.006l-0.003,0.025l-0.006,0.031l-0.018,0.017l-0.022,0.003l-0.009-0.007l0.004-0.048
	l0.007-0.014l0.002-0.003l0.024-0.016L1412.381,268.866z M1411.245,276.176l0.003,0.021l-0.016,0.032l-0.012-0.003l-0.021-0.03
	l-0.004-0.019l0.021-0.019L1411.245,276.176z M1410.848,272.732l0.02-0.004l0.027,0.006l0.012,0.009l-0.004,0.021l-0.028,0.021
	l-0.015-0.004l0.004-0.011L1410.848,272.732z"/></svg>