<?xml version="1.0" encoding="utf-8"?>
<!-- Generator: Adobe Illustrator 15.0.0, SVG Export Plug-In . SVG Version: 6.00 Build 0)  -->
<!DOCTYPE svg PUBLIC "-//W3C//DTD SVG 1.1//EN" "http://www.w3.org/Graphics/SVG/1.1/DTD/svg11.dtd">
<svg version="1.1" id="Ebene_1" xmlns="http://www.w3.org/2000/svg" xmlns:xlink="http://www.w3.org/1999/xlink" x="0px" y="0px"
	 width="1920px" height="1080px" viewBox="0 0 1920 1080" enable-background="new 0 0 1920 1080" xml:space="preserve">

<path fill="#F4E0B6" stroke="#FFFFFF" d="M1293.908,592.295l0.04,0.021l-0.16,0.1l-0.071,0.045l-0.096,0.024l0.058-0.097
	l0.094-0.057l0.075-0.016L1293.908,592.295z M1292.408,592.952l0.089-0.026l0.07-0.052l0.11-0.009l0.089,0.052l0.058,0.059
	l-0.049,0.064l-0.061,0.061l-0.186,0.054h-0.164l-0.123,0.047l-0.026-0.05l0.05-0.07l0.064-0.038l0.03-0.05L1292.408,592.952z
	 M1288.365,595.668l0.13-0.039l0.069-0.058l0.153-0.077l0.2-0.136l0.19-0.049l0.197-0.232l0.081-0.035h0.001l0.065,0.022
	l-0.039,0.063l-0.001,0.077l0.06-0.002l0.114,0.036l-0.149,0.073l-0.043,0.051l-0.058,0.076l-0.243,0.119l-0.21,0.138l-0.061-0.017
	l-0.11-0.025l-0.03,0.02l-0.029,0.02l-0.069,0.096l-0.041,0.042h-0.033l-0.119-0.028l-0.029-0.013l-0.02,0.021l-0.127,0.034
	l-0.049,0.053l-0.037,0.052h-0.051l-0.031,0.001l-0.214,0.049l-0.076-0.04l0.049-0.064l0.06-0.06l0.111-0.078l0.16-0.07
	L1288.365,595.668z M1249.129,620.419l0.045,0.063l-0.024,0.06l-0.038,0.009l-0.091-0.016l-0.045-0.008l-0.038,0.043l-0.041,0.009
	l-0.057-0.048l0.015-0.039l0.029-0.034l0.09-0.065l0.078-0.012l0.019,0.009L1249.129,620.419z M1292.594,589.073l0.164-0.095
	l0.098-0.089l0.103-0.094l0.331,0.006l0.529-0.035l0.258-0.106l0.214-0.092l-0.013-0.167l-0.062-0.128l0.1-0.116l0.098-0.055
	l0.116-0.029l0.133-0.132l0.163-0.111l0.08-0.209l0.04-0.062l0.044-0.142l-0.007-0.087l0.111-0.1l0.115,0.006l0.111-0.007
	l0.154-0.022l0.056-0.066l0.024-0.068l0.034-0.009l0.095,0.011l0.077,0.008l0.088-0.062l0.125-0.059l0.109,0.027l0.097-0.029
	l0.227-0.059l0.223-0.106l0.285-0.052l0.126-0.048l0.358-0.046l0.105-0.105l0.039-0.11l0.054-0.032l0.094-0.02l-0.001,0.094
	l-0.103,0.135l-0.069,0.101l-0.073,0.08l-0.014,0.068l0.106,0.112l-0.118,0.216l-0.121,0.146l-0.116,0.201l-0.225,0.139l-0.11,0.183
	l-0.004,0.063l0.026,0.167l-0.016,0.054l-0.07,0.133l-0.033,0.189l-0.029,0.082l-0.148,0.093l-0.2,0.171l-0.087,0.048l-0.057,0.075
	l-0.024,0.151l-0.134,0.048h-0.001l-0.093,0.033l-0.11,0.133l-0.167,0.174l-0.452,0.499l-0.188,0.172l-0.294,0.174l-0.321,0.121
	l-0.263,0.107l-0.178-0.01l-0.157-0.023l-0.16-0.022l-0.162-0.044l-0.159,0.054l-0.304,0.032l-0.747,0.097l-0.206-0.005
	l-0.038-0.014l0.011-0.056l0.155-0.061l0.083-0.078l0.045-0.121l0.007-0.03l-0.03-0.041l-0.039-0.1l-0.028-0.053l-0.283-0.209
	l0.043-0.071l0.064-0.071l0.164-0.166l-0.021-0.091l-0.016-0.097l-0.002-0.072l0.076-0.073L1292.594,589.073z M1242.513,618.459
	L1242.513,618.459l-0.051-0.043l-0.011-0.007v-0.002l-0.04-0.104l-0.044-0.246l0.07-0.237l0.058-0.088l0.085,0.006l0.053,0.087
	l-0.016,0.208l0.044,0.108l-0.009,0.065L1242.513,618.459z M1242.017,617.129l-0.004,0.045l-0.114,0.074l-0.041-0.15l0,0
	l-0.111,0.027l-0.145,0.02l-0.064-0.009l-0.083-0.009l-0.021-0.014l-0.101-0.063l-0.016-0.086l0.021-0.126l0.044-0.12l0.05-0.063
	l0.006-0.048l0.23,0.059l0.072,0.04l0.036,0.043l0.072,0.187l0.101,0.129l0,0L1242.017,617.129z M1236.25,611.898l0.051-0.022
	l0.04-0.049l0.026-0.063l0.044-0.022l0.04,0.05l0.081,0.183l0.034,0.06l0.035,0.027l0.018,0.037l-0.004,0.03l0.009,0.005
	l0.018-0.022l0.016,0.024l0.019,0.171l-0.012,0.074l-0.056,0.035l-0.073-0.004l-0.102-0.034l-0.074-0.088l-0.041-0.125l-0.162-0.21
	l-0.009-0.101l0.007-0.084l0.013-0.058l-0.013-0.045l-0.006-0.039l0.05-0.104l0.037-0.007l0.049,0.02l-0.046,0.135l0.009,0.033
	l0.022-0.006l0.018,0.018l0.006,0.034l-0.014,0.052l-0.033,0.066L1236.25,611.898z M1271.733,574.703l0.798,0.297l0.801,0.296
	l0.801,0.297l0,0v0.002l-0.046,0.107l-0.147,0.203l-0.189,0.088l-0.006,0.073l-0.042,0.046l-0.046,0.042l-0.021,0.054l-0.004,0.133
	l-0.015,0.067l-0.073,0.109l-0.064,0.185l-0.145,0.167l-0.051,0.098l-0.067,0.2l-0.038,0.074l-0.441,0.587l-0.155,0.322
	l-0.165,0.651l-0.107,0.632l0.001,0.186l0.023,0.118l0.063,0.189l0.01,0.245l0.014,0.066l0.031,0.062l0.041,0.037l0.059,0.038
	l0.051,0.025l0.018,0.006l0.043,0.094l0.004,0.166l0.119,0.187l0.008,0.183l0.055,0.082l0.107,0.047l0.147,0.039l0.132,0.059
	l0.118,0.19l0.126,0.004l0.202-0.044l0.063,0.052l0.25,0.297l0.193,0.151l0.209,0.129h0.054l0.04,0.002l0.031,0.016l0.021,0.028
	l0.014,0.05l0.015,0.022l0.029,0.035l0.018,0.038v0.038l-0.022,0.033l-0.083,0.08l-0.477,0.649l-0.008,0.055l-0.001,0.051
	l-0.006,0.036l-0.027,0.038l-0.058,0.055l-0.034,0.041l-0.213,0.368l-0.07,0.216l0.092,0.081l0.014,0.02l-0.005,0.011l-0.011,0.009
	l-0.002,0.007l0.048,0.042l-0.009,0.017l-0.035,0.005l-0.035,0.011l-0.046,0.009h-0.06l-0.05,0.022l-0.017,0.075l-0.016,0.037
	l-0.173,0.201l-0.166,0.415l-0.006,0.087l0.035,0.071l0.102,0.056l0.079,0.013l0.025,0.025l-0.059,0.098l-0.408,0.377l-0.056,0.084
	l-0.038,0.088l-0.023,0.087l0.006,0.183l-0.079,0.067l-0.021,0.038l0.013,0.031l-0.046,0.04l-0.127,0.243l-0.026,0.077l-0.139,0.051
	l-0.074,0.132l-0.046,0.146l-0.049,0.096l-0.634,0.833l-0.764,0.848l-0.598,0.798l-0.413,0.379l-0.249,0.443l-0.055,0.144
	l-0.07,0.472l-0.03,0.081l-0.144,0.157l-0.127,0.3l-0.1,0.37l-0.058,0.049l-0.108,0.03l-0.082,0.1l-0.104,0.203l-0.06,0.081
	l-0.029,0.032l-0.04,0.034l-0.106-0.062l-0.068-0.025l-0.033,0.032l-0.044,0.064l-0.246,0.221l-0.421,0.628l-0.713,0.897
	l-0.248,0.611l-0.114,0.196l-0.163,0.169l-0.047,0.101l-0.062,0.226l-0.208,0.406l-0.06,0.222l0.089,0.149l-0.049,0.025
	l-0.093,0.018l-0.108,0.034l-0.089,0.081l-0.046,0.105l-0.01,0.098l0.058,0.425l0.057,0.193l0.119,0.192l0.053-0.005l0.044,0.044
	l0.035,0.053l0.015,0.032l-0.02,0.069l-0.111,0.188l-0.013,0.051l0.066,0.112l-0.026,0.078l-0.063,0.068l-0.038,0.081l0.007,0.044
	l0.024,0.037l0.086,0.09l0.007,0.031l-0.01,0.042l-0.002,0.048l0.062,0.141l-0.032,0.095l-0.098,0.178l0.026,0.464l-0.037,0.101
	l-0.018,0.025l-0.018,0.071l-0.013,0.029l-0.022,0.025l-0.037,0.018l-0.499,0.348l-0.05,0.073l-0.044,0.284l-0.026,0.045
	l-0.033,0.026l-0.026,0.031l-0.007,0.057l-0.16-0.027l-0.171,0.081l-0.321,0.236l0.028,0.007l0.055,0.024l-0.171,0.13l-0.36,0.479
	l-0.07-0.111l-0.127-0.012l-0.135,0.023l-0.103,0.004v0.049l-0.164,0.034l-0.452,0.187l-0.033,0.078l-0.162,0.222l-0.063,0.064
	l-0.022,0.078l0.012,0.387l-0.104,0.229l-0.45,0.665l-0.037,0.119l-0.026,0.577l-0.119,0.823l-0.072,0.205l-0.708,0.966
	l-0.871,0.967l-0.155,0.487l-0.346,0.549l-0.059,0.063l-0.093,0.047l-0.19,0.063l-0.097,0.068l-0.068,0.087l-0.112,0.2l-0.07,0.076
	l-0.865,0.606l-0.206,0.101l-0.134,0.017l-0.07,0.022l-0.005,0.038l-0.011,0.023l-0.08,0.111l-0.309,0.307l-0.682,0.529
	l-0.059,0.067l-0.088,0.148l-0.05,0.055l-0.183,0.114l-0.068,0.061l-0.022,0.065l-0.462,0.521l-0.078,0.167l-0.05,0.665l-0.04,0.158
	l-0.009,0.098l0.082,0.187l0.019,0.376l-0.026,0.203l-0.098,0.175l-0.565,0.662l-0.09,0.197l-0.039,0.226l0.004,0.108l0.012,0.051
	l0.013,0.056l0.002,0.007l0.035,0.09l0.055,0.08l0.003,0.015l0.118,0.31l0.027,0.047l0.168,0.146l0.04,0.07l-0.06,0.078
	l-0.104,0.048l-0.131,0.029l-0.11-0.008l-0.048-0.066l0.046-0.072l0.092-0.052l0.065-0.058l-0.032-0.091l-0.018,0.01l-0.136-0.035
	l-0.02-0.013l-0.022-0.01l-0.011-0.024l-0.014-0.014l-0.031,0.012l-0.017,0.026l0.013,0.02l0.021,0.017l0.004,0.013l0.014,0.065
	l-0.006,0.019l-0.025,0.01l-0.056,0.009l-0.029,0.014l-0.09,0.07l-0.031,0.042l0.003,0.036l0.025,0.083l-0.02,0.101l-0.065,0.067
	l-0.109-0.021l-0.028,0.067l0.014,0.047l0.108,0.088l0.008-0.048l0.02-0.023l0.141-0.076h0.031l0.035,0.055l0.016,0.063l-0.02,0.088
	l-0.045,0.077l-0.063,0.028l-0.16,0.036l-0.056,0.004l-0.055-0.017l-0.017-0.019l-0.022-0.007l-0.07,0.017l-0.111,0.063l-0.06,0.084
	l-0.069,0.203l-0.021-0.016l-0.035-0.013l-0.023-0.01l-0.018-0.055l-0.075-0.036l-0.101-0.02l-0.09-0.002l-0.224,0.059l-0.179,0.114
	l-0.129,0.141l-0.073,0.145l-0.063,0.328l-0.021,0.406l0.01,0.027l0.015,0.07l-0.012,0.047l-0.066-0.045l-0.024,0.008l-0.065,0.104
	l-0.096,0.111l-0.16,0.308l-0.085,0.074l-0.091,0.047l-0.076,0.056l-0.086,0.187l-0.088,0.067l-0.105,0.026l-0.098-0.024
	l0.061-0.033l0.118-0.051l0.062-0.035l0.01-0.053l-0.049-0.052l-0.058-0.016l-0.02,0.066l-0.121,0.062l-0.088,0.142l-0.132,0.297
	l-0.092,0.111l-0.067,0.05l-0.135,0.039l-0.081,0.136l-0.058,0.05l-0.122,0.005l-0.199-0.093l-0.086,0.012l-0.096,0.047
	l-0.094,0.018l-0.18,0.007l-0.095,0.014l-0.101,0.026l-0.102,0.042l-0.1,0.057l-0.072,0.02l-0.237,0.019l-0.108,0.026l-0.145,0.104
	l-0.054,0.01l-0.101-0.001l-0.058,0.008l-0.044,0.019l-0.035,0.055l-0.037,0.389l-0.005,0.035l-0.03,0.069l-0.079,0.068
	l-0.104,0.052l-0.058-0.022l-0.203-0.38l-0.133-0.158l-0.159-0.116l-0.195-0.072l-0.222-0.027l-0.051-0.03l-0.057-0.041
	l-0.058-0.013l-0.052-0.006l-0.04-0.023l-0.075-0.075l-0.083-0.066l-0.088-0.052l-0.093-0.038l-0.283-0.062l-0.063-0.03
	l-0.034-0.028l-0.132-0.062l-0.128-0.075l-0.046-0.021l-0.501-0.127l-0.339-0.225l-0.055-0.164l-0.082-0.161l-0.592-0.731
	l-0.025-0.182l-0.016-0.046l-0.019-0.035l-0.005-0.038l0.025-0.051l-0.162-0.089l-0.228-0.287l-0.141-0.131l-0.347-0.153
	l-0.055-0.031l-0.324-0.299l-0.055-0.02l-0.501-0.092l-0.274-0.15l-0.24-0.12l-0.199-0.063l-0.302-0.268l-0.156-0.119l-0.143-0.092
	l-0.246-0.15l-0.433-0.29l-0.101-0.057l-0.124-0.109l-0.149-0.08l-0.124-0.116l-0.04-0.029l-0.041-0.006l-0.117-0.001l-0.035-0.012
	l-0.033-0.052l0.002-0.033l0.036-0.013l0.068,0.004l0.109,0.049l0.204,0.148l0.104,0.009l-0.098-0.118l-0.053-0.047l-0.066-0.032
	l-0.081-0.205l-0.157-0.101l-0.182-0.065l-0.152-0.098l-0.016-0.034l0.002-0.066l-0.011-0.03l-0.026-0.02l-0.02-0.006l-0.016,0.001
	l-0.059-0.037h-0.045l-0.037,0.005l-0.024-0.005l-0.026-0.013l-0.035-0.008l-0.043-0.011l-0.146-0.115l-0.042-0.04l-0.162-0.109
	l-0.388-0.1l-0.166-0.112l-0.077-0.077l-0.031-0.047l0.037-0.016l0.045,0.019l0.016,0.03l0.014,0.041l0.039,0.043l0.092,0.054
	l0.116,0.046l0.126,0.026l0.114-0.007l-0.044-0.059l-0.087-0.15l-0.072-0.076l-0.163-0.112l-0.129-0.119l-0.063-0.034l-0.07-0.018
	l-0.181-0.024l-0.088-0.021l-0.083-0.047l-0.09-0.085l-0.163-0.226l-0.078-0.055l-0.108-0.027l-0.19,0.036l-0.217-0.019
	l-0.122,0.007l-0.121,0.02l-0.109,0.03l-0.105,0.04l-0.078,0.055l-0.029,0.073l0.048,0.095l-0.035,0.042l-0.117,0.029l-0.133-0.011
	l-0.08-0.083l-0.071-0.037l0.039-0.035l0.156-0.063l0.06-0.056l0.021-0.058l-0.012-0.057l-0.034-0.063l-0.038-0.038l-0.09-0.03
	l-0.051-0.042l-0.056-0.257l-0.004-0.064l0.064,0.035l0.045,0.073l0.022,0.079v0.063l0.104-0.02l0.091-0.006l0.272,0.02l0.043,0.015
	l0.052,0.044l0.052,0.082l0.035,0.015l0.071-0.011l-0.023-0.035l-0.023-0.017l-0.023-0.007l-0.025-0.003l0.007-0.103l-0.051-0.106
	l-0.266-0.294l-0.156-0.112l-0.158-0.065l-0.063-0.044l-0.034-0.045l-0.025-0.046l-0.037-0.053l-0.042-0.044l-0.048-0.039
	l-0.057-0.035l-0.14-0.059l-0.34-0.1l-0.02-0.038l0.002-0.088l-0.071-0.013l-0.074-0.021l-0.072-0.036l-0.065-0.058l-0.077-0.166
	l-0.059-0.052l-0.11,0.03l-0.022-0.08l0.012-0.06l0.022-0.061l0.015-0.074l-0.002-0.062l-0.013-0.045l-0.031-0.045l-0.051-0.063
	l-0.072-0.124l-0.012-0.111l0.022-0.103l0.035-0.093l0.023-0.106l-0.018-0.097l-0.059-0.101l-0.422-0.556l-0.165-0.169l-0.571-0.47
	l-0.261-0.276l-0.028-0.024l-0.09-0.063h0.004l-0.007-0.013l-0.018-0.019l-0.023-0.02l-0.028-0.013l-0.064-0.018l-0.013-0.005
	l0.132-0.194l0.088-0.152l0.042-0.136l-0.019-0.086l-0.059-0.061l-0.061-0.052l-0.028-0.06l0.026-0.048l0.128-0.132l0.04-0.061
	l0.087-0.217l0.032-0.119l-0.008-0.101l-0.116-0.322l-0.048-0.084l-0.064-0.085l-0.026-0.067l0.032-0.055l0.111-0.052l0.195-0.064
	l0.055-0.06l-0.037-0.088l-0.008-0.006l-0.1-0.074l-0.086-0.033l-0.054-0.046l-0.013-0.119l0.013-0.05l0.022-0.04l0.012-0.041
	l-0.018-0.052l-0.049-0.046l-0.062-0.024l-0.065-0.001l-0.176,0.064l-0.074-0.003l-0.168-0.107l-0.21-0.092l-0.07-0.054
	l-0.058-0.114l-0.063-0.193l-0.048-0.085l-0.071-0.083l-0.095-0.068l-0.085-0.042l-0.068-0.052l-0.046-0.096l-0.049-0.208
	l-0.046-0.094l-0.08-0.086l-0.041-0.093l0.027-0.117l0.066-0.113l0.071-0.081l0.051-0.104l-0.053-0.085l-0.11-0.055h-0.122
	l-0.279,0.088l-0.004-0.026l-0.002-0.348l0.097-0.513l0.162-0.442l0.058-0.093l0.074-0.069l0.083-0.035l0.135-0.09l0.075-0.029
	l0.383-0.087l0.242-0.025l0.516,0.093l0.264,0.006l0.099-0.03l0.07-0.05l0.13-0.119l0.163-0.097l0.065-0.052l0.067-0.091
	l0.031-0.006l0.037,0.042l0.057,0.083l0.04,0.02l0.029,0.008l0.034-0.004l0.054-0.023l0.078-0.079l0.011-0.1l-0.015-0.11v-0.107
	l0.047-0.103l0.071-0.039l0.211-0.035l0.111-0.059l0.045-0.086l-0.001-0.11l-0.026-0.136l0.022-0.08l0.086-0.048l0.202-0.072
	l0.068-0.058l0.239-0.279l0.34-0.308l0.242-0.163l0.311-0.14l0.103-0.086l0.164-0.262l0.069-0.078l0.785-0.566l0.479-0.344
	l0.097-0.07l0.653-0.473l0.257-0.118l0.939-0.118l0.228-0.075l0.895-0.525l1.05-0.621l0.803-0.473l1.03-0.611l0.568-0.562
	l0.766-0.758l0.219-0.029l0.556,0.137l0.64,0.157l0.731,0.18l0.078-0.009l0.057-0.039l0.54-0.365l0.111-0.112l0.076-0.132
	l0.239-0.622l0.222-0.577v-0.007l-0.02-0.229l-0.366-0.863l-0.258-0.609l-0.045-0.165l-0.032-0.724l-0.052-1.109l-0.058-1.177
	l-0.032-0.673l-0.029-0.575l0.034-0.124l0.274-0.614l0.369-0.824l0.409-0.921l0.367-0.824l0.307-0.693l0.094-0.214l0.246-0.401
	l0.438-0.455l0.546-0.565l0.546-0.567l0.547-0.568l0.547-0.57l0.547-0.571l0.547-0.573l0.548-0.574l0.548-0.576l0.547-0.577
	l0.55-0.578l0.549-0.58l0.549-0.581l0.549-0.583l0.551-0.585l0.552-0.586l0.551-0.587l0.543-0.581l0.088,0.035l0.354,0.14
	l0.538,0.213l0.539,0.215l0.54,0.213l0.541,0.214l0.541,0.215l0.545,0.214l0.544,0.215l0.545,0.215l0.548,0.213l0.547,0.218
	l0.549,0.214l0.552,0.216l0.551,0.216l0.553,0.216l0.554,0.217l0.556,0.218l0.412,0.159l-0.006,0.009l-0.019,0.02l-0.004,0.007
	l0.097-0.016l0.162-0.115l0.093-0.033l0.099,0.016l0.491,0.182L1271.733,574.703z"/></svg>