<?xml version="1.0" encoding="utf-8"?>
<!-- Generator: Adobe Illustrator 15.0.0, SVG Export Plug-In . SVG Version: 6.00 Build 0)  -->
<!DOCTYPE svg PUBLIC "-//W3C//DTD SVG 1.1//EN" "http://www.w3.org/Graphics/SVG/1.1/DTD/svg11.dtd">
<svg version="1.1" id="Ebene_1" xmlns="http://www.w3.org/2000/svg" xmlns:xlink="http://www.w3.org/1999/xlink" x="0px" y="0px"
	 width="1920px" height="1080px" viewBox="0 0 1920 1080" enable-background="new 0 0 1920 1080" xml:space="preserve">

<path fill="#F4E0B6" stroke="#FFFFFF" d="M602.859,640.469l-0.095-0.052l0.159-0.063l0.099-0.006l0.104,0.003l0.079,0.03
	l-0.044,0.048l-0.061,0.057l-0.124,0.024L602.859,640.469z M630.65,635.823l-0.046-0.009l-0.046-0.046l-0.006-0.041l0.083,0.01
	l0.065,0.039L630.65,635.823z M630.381,626.116l0.023,0.047l0.019,0.012l0.034,0.039l0.006,0.036l0.026,0.032l0.047,0.031
	l-0.023,0.025l-0.069-0.018l-0.082-0.029l-0.079-0.045l-0.067-0.057l-0.048-0.08l-0.005-0.066l0.036-0.148l0.106,0.03l0.039,0.021
	l0.119,0.117l0.094,0.123l-0.025,0.029L630.381,626.116z M633.565,621.87l0.422,0.638l0.473,0.713l0.089,0.077l0.132,0.033
	l0.692,0.02l0.496,0.015l0.161,0.06l0.047,0.083l0.063,0.223l0.065,0.062l0.097,0.056l0.072,0.097l0.132,0.234l0.018,0.023
	l0.015,0.022l0.011,0.024l0.007,0.024l-0.006,0.183l0.01,0.055l0.02,0.048l0.031,0.046l0.043,0.036l0.055,0.012l0.358,0.011
	l0.054,0.003l0.023,0.048l-0.018,0.038l-0.038,0.042l-0.037,0.057l-0.009,0.044l-0.003,0.106l-0.015,0.036l0.01,0.071l0.133,0.208
	l0.02,0.06l0.002,0.067l0.046,0.096l0.021,0.109l-0.072,0.11l-0.086-0.01h-0.028l-0.047,0.02l-0.012,0.028l0.001,0.029l-0.003,0.021
	l0.03,0.138l-0.002,0.043l0.077-0.001l0.066,0.046l0.026,0.025l0.033,0.029l0.058,0.026l0.014,0.128l0.033,0.052l0.081-0.004
	l0.029,0.02l0.009,0.085l0.163,0.004l0.059,0.066l0.094-0.016l0.066,0.029l0.02,0.063l-0.043,0.084l0.086,0.37l0.017,0.033
	l0.035,0.032l0.048,0.02h0.095l0.037,0.01l0.097,0.101l0.024,0.002l0.174-0.041l0.373,0.086l0.027,0.01l0.336,0.121l0.215,0.027
	l0.112-0.106l0.091-0.176l0.152-0.182l0.019-0.02l0.013-0.024l0.049-0.001l0.021,0.022l0.028,0.019l0.028,0.022l0.001,0.153
	l-0.06,0.267l-0.102,0.258l-0.125,0.126l0.003-0.116l0.122-0.344l-0.219,0.383l-0.124,0.13l-0.213,0.021l0.075,0.03h0.07
	l0.073-0.008l0.085,0.003l-0.038,0.008l-0.027,0.022l-0.019,0.035l-0.013,0.047l0.059-0.04l0.102-0.082l0.07-0.038l-0.276,0.693
	l-0.257,0.769l-0.126,0.705l-0.084,1.587l0.023,0.093l-0.009,0.508l0.029,0.274l0.15,0.013l0.019,0.05l0.097,0.095l-0.005,0.048
	l-0.064,0.081l-0.043,0.076l-0.02,0.079l0.007,0.094l-0.049,0.424l0.025,0.086L639,634.013l0.038,0.296l0.139,0.039l-0.033,0.084
	l-0.124,0.189l-0.027,0.104l0.023,0.094l0.205,0.29l0.094,0.077l0.104,0.062l0.088,0.07l0.047,0.1l-0.029,0.23l0.035,0.091
	l0.002,0.006l0,0l-0.09,0.19l-0.035-0.018l-0.037-0.079l-0.057-0.053l-0.07,0.026l-0.158,0.152l-0.075,0.037l-0.064-0.028
	l-0.068-0.067l-0.056-0.071l-0.026-0.048l-0.003-0.079l0.033-0.141l-0.002-0.078l-0.048-0.007l-0.028-0.042l-0.053-0.27
	l-0.165-0.262l-0.087-0.043l-0.138,0.015l-0.107,0.035l-0.042,0.035l-0.026,0.126l-0.071,0.136l-0.003,0.038l0.021,0.028
	l0.009,0.023l-0.037,0.031l-0.096-0.006l-0.257-0.121l-0.105-0.024l-0.087,0.036l-0.083,0.075l-0.3,0.36l-0.437,0.521l-0.597,0.713
	l-0.041,0.049l0.177,0.032l0.04,0.025l0.011,0.042l-0.012,0.042l-0.016,0.042l-0.004,0.04l0.013,0.031l0.061,0.106l0.077,0.276
	l0.141,0.195l0.025,0.077l-0.047,0.261l-0.018,0.052l-0.008,0.004l-0.142,0.058l-0.198-0.007l-0.605-0.11l-0.083,0.003l-0.09,0.029
	l0.004,0.032l0.016,0.043l-0.051,0.061l-0.08,0.02l-0.2-0.004l-0.068,0.014l-0.061,0.062l-0.031,0.075l-0.01,0.083l0.007,0.241
	l-0.013,0.149l-0.042,0.148l-0.079,0.156l-0.235,0.32l-0.144,0.146l-0.151,0.103l-0.199,0.055l-0.163-0.019l-0.157-0.042
	l-0.182-0.019l-0.353,0.058l-0.296-0.018l-0.065,0.007l-0.052,0.051l0.004,0.069l0.062,0.151l0.002,0.039l-0.011,0.092l0.009,0.034
	l0.026,0.02l0.071,0.013l0.036,0.032l0.042,0.09l-0.009,0.064l-0.099,0.152l-0.199,0.656l-0.191,0.182l-0.113,0.083l-0.021-0.084
	l0.065-0.064l0.097-0.052l0.078-0.055l0.034-0.062l0.137-0.708l-0.012-0.178l-0.21-0.749l-0.025-0.242l0.265-0.073l0.034,0.003
	l0.063-0.029l0.098-0.026l0.089-0.047l0.033-0.09l0.008-0.27l0.019-0.066l0.053-0.065l0.051-0.002l0.069,0.02l0.105,0.002
	l-0.038-0.051l-0.133-0.077l-0.043-0.063l-0.002-0.058l0.059-0.227l0.034-0.013l0.021-0.012l0.03-0.02l0.03,0.02l-0.019,0.1
	l-0.018,0.044l-0.045,0.062l0.011,0.021l0.175,0.034l0.028-0.032l-0.038-0.064l-0.024-0.089l-0.006-0.09l0.012-0.074l-0.03-0.02
	l-0.08,0.034l-0.083-0.049l-0.082-0.07l-0.08-0.031l0.019-0.079l0.001-0.096l-0.034-0.071l-0.091-0.009l-0.068-0.169l0.015-0.094
	l0.107-0.073l-0.029-0.022l-0.032-0.017l0.08-0.061l-0.033-0.074l-0.076-0.078l-0.052-0.073l-0.07,0.035l-0.021-0.02l-0.011-0.039
	l-0.044-0.029l-0.041,0.01l-0.032,0.027l-0.041,0.015l-0.07-0.028l-0.126-0.116l-0.078-0.017l-0.097,0.072l0.056-0.002l0.001-0.005
	l0.027,0.02l-0.043,0.329l-0.039,0.082l-0.031,0.198l-0.001,0.064l0.033,0.067l0.122,0.155l0.059,0.051l0.03,0.077l-0.002,0.106
	l0.016,0.083l0.082,0.002l-0.09,0.109l-0.047,0.039l-0.052,0.012l-0.025,0.03l-0.011,0.134l-0.105,0.169l-0.149,0.151l-0.143,0.077
	l-0.102-0.061l-0.119-0.155l-0.089-0.171l-0.021-0.106l0.027,0.019l0.006,0.026l0.01,0.019l0.055,0.046l-0.053-0.093l-0.016-0.046
	l-0.008-0.055l-0.054,0.063l-0.16-0.276l-0.08-0.071l-0.298-0.145l-0.075-0.048l-0.04-0.071l-0.007-0.097l0.012-0.208l-0.079-0.6
	l0.009-0.057l-0.015-0.018l-0.06-0.096l-0.012-0.035l0.105-0.144l0.311-0.115l0.062-0.014l0.104,0.004l0.063,0.013l0.01,0.026
	l-0.008,0.035l0.056-0.01l0.247-0.091l0.055-0.012l0.004-0.104l0.135-0.035l0.176,0.016l0.132,0.043l0.023-0.026l-0.085-0.072
	l-0.051-0.028l-0.056,0.006l-0.098,0.02l-0.072-0.01l0.019-0.054l0.085-0.061l0.125-0.03l0.154,0.019l0.08-0.002l0.063-0.035
	l0.012-0.062l-0.031-0.067l-0.016-0.075l0.056-0.083l0.047,0.099l0.031,0.039l0.052,0.036l0.001-0.049l-0.012-0.045l-0.034-0.076
	l-0.009-0.039l0.002-0.029l-0.011-0.027l-0.048-0.04l0.08,0.005l0.012-0.028l-0.015-0.036l-0.002-0.025l0.061-0.035l0.054-0.02
	l0.058-0.012l0.075-0.007l0.144-0.375l0.011-0.052l-0.005-0.125l-0.055,0.01l0.01-0.188l0.037-0.205l-0.015-0.19l-0.149-0.145
	l0.107-0.104l-0.013-0.158l-0.074-0.153l-0.077-0.088l-0.063-0.548l-0.204-0.374l-0.019-0.077l-0.279-0.438l-0.027-0.018
	l-0.046,0.001l-0.023-0.017l-0.005-0.031l0.013-0.045l-0.082-0.014L632,632.058l-0.005-0.067l-0.063-0.062l0.117-0.049l0.035-0.151
	l-0.028-0.175l-0.078-0.108l-0.024,0.029l0.032,0.032l0.017,0.027l0.021,0.079l-0.097-0.095l-0.089-0.222l-0.094-0.1l-0.104-0.081
	l-0.445-0.545l-0.104-0.084l-0.061-0.025l-0.071-0.021l-0.068-0.026l-0.051-0.048l-0.014-0.076l0.026-0.062l0.016-0.055
	l-0.048-0.053l-0.004,0.023l-0.005,0.019l-0.017,0.036l-0.023-0.104l-0.072-0.21l0.024-0.084l0.037-0.068l-0.013-0.054l-0.033-0.052
	l-0.021-0.059l0.023-0.054l0.047-0.04l0.013-0.037l-0.071-0.043l0.06-0.037l0.037-0.049l0.028-0.052l0.033-0.039l0.068-0.03
	l0.14-0.022l0.094-0.054l0.063-0.016l0.072-0.025l0.069-0.052l0.031-0.06l0.005-0.067l-0.009-0.112l0.048-0.37l-0.016-0.069
	l-0.044-0.077l0.066-0.058l0.148-0.056l-0.031-0.157l0.017-0.055l0.078-0.048l-0.092-0.12l-0.419-0.22l0.028-0.031l0.072,0.016
	l0.075,0.038l0.15,0.102l0.025-0.029l-0.133-0.1l-0.104-0.104l-0.079-0.111l-0.057-0.124l-0.037-0.191v-0.036l-0.022-0.025
	l-0.024-0.073l-0.003-0.065l0.039-0.005l-0.04-0.085L631,626.445l-0.055-0.108l-0.009-0.069l-0.02-0.028l-0.03-0.006l-0.033,0.004
	l-0.028-0.013l-0.014-0.055l0.067-0.027l0.034-0.024l-0.008-0.024l-0.01-0.02l-0.012-0.089l-0.1-0.028l-0.299-0.192l-0.061-0.072
	l-0.027-0.094l-0.01-0.182l0.023-0.028l0.094-0.059l0.003-0.141l-0.074-0.25l-0.051,0.104l0.046,0.172l-0.064,0.122l-0.165,0.203
	l-0.077,0.133l-0.02,0.114l-0.088-0.003l-0.044,0.063l0.002,0.09l0.092,0.135l0.003,0.081l-0.038,0.145l0.028,0.018l0.047,0.01
	l0.005,0.021l-0.02,0.033l-0.04-0.022l-0.035-0.032l-0.028-0.035l-0.02-0.034l-0.023,0.026l0.02,0.125l0.023,0.15l0.172,0.282
	l0.017,0.039l0.041,0.01l0.045,0.074l0.085,0.206l0.056,0.075l0.082,0.058l0.108,0.021l0.016,0.074l0.05,0.14l0.013,0.074
	l-0.023,0.025l-0.105-0.038l-0.051,0.064l-0.01,0.106l0.01,0.093l-0.046-0.013h-0.055l-0.1,0.017l0.04,0.071l0.069,0.059
	l0.162,0.102l-0.024,0.026l-0.097-0.001l-0.106-0.021l-0.107-0.001l-0.096,0.055l-0.032,0.008l-0.153-0.013l-0.047,0.017
	l-0.093,0.064l-0.048,0.021l-0.078-0.157l-0.068-0.055l-0.083,0.037l-0.012,0.046l-0.006,0.127l-0.025,0.011l-0.201-0.028
	l-0.029-0.01l-0.036,0.011l-0.149-0.018l-0.053,0.02l-0.359,0.229l-0.108,0.047l-0.112,0.032l-0.032-0.021l0.096-0.326l0.062-0.721
	l0.026-0.071v-0.03l-0.019-0.052l-0.071-0.118l0.021-0.039l0.036-0.038l0.024-0.032l-0.005-0.181l-0.074-0.175l-0.327-0.478
	l-0.049-0.02h-0.101l-0.038-0.01l-0.034-0.038l-0.021-0.081l-0.039-0.042l-0.027-0.021l-0.004-0.013l0.006-0.017l0.001-0.029
	l-0.018-0.035l-0.032-0.01l-0.028,0.001l-0.011,0.006l-0.179-0.242l-0.103-0.098l-0.013-0.034l-0.004-0.035l-0.02-0.04l-0.051-0.031
	l-0.049-0.004l-0.031-0.019l0.005-0.074l0.104-0.058l0.051-0.139l0.029-0.827l0.015-0.064l0.068-0.136l0.019-0.116l0.192-0.513
	l0.093-0.131l0.047-0.084l0.023-0.07l0.111-0.015l0.062-0.024l0.021-0.04l0.011-0.176l-0.028-0.072l0.07-0.02l0.128-0.007
	l0.116-0.037l0.099-0.046l0.049,0.08l0.081-0.019l0.091-0.042l0.153-0.004l0.033-0.102l0.005-0.121l-0.005-0.074h0.044l0.018,0.001
	l0.023,0.01l0.027-0.029l-0.06-0.041l0.026-0.027l0.058,0.023l0.059-0.007l0.109-0.054l0.03,0.02l0.017,0.089l0.117,0.023
	l0.129,0.013l0.06,0.052l0.027,0.02l0.044-0.059l0.039-0.017l0.038,0.001l0.041-0.003l0.099-0.037l0.012,0.014l0.049,0.042
	l0.249-0.042l0.022-0.041l0.002-0.042l-0.023-0.075l-0.334,0.051l0.009-0.018l0.011-0.011l0.001-0.012l-0.023-0.011l0.024-0.026
	l0.097-0.019l0.052-0.001l0.047,0.015l-0.002-0.05l-0.007,0.001l-0.014,0.004l-0.018,0.003l-0.021-0.001l0.042-0.026l0.013-0.012
	l0.061,0.021l0.024-0.027l-0.03-0.02l0.029-0.032l0.122-0.004l0.143-0.133l0.225-0.292l0.001-0.117l-0.087-0.158l-0.124-0.119
	l-0.104-0.001l-0.026-0.019l-0.034-0.175l-0.001-0.06l0.014,0.021l0.036,0.006l0.032-0.018l0.002-0.044l-0.025-0.03l-0.091-0.049
	l-0.034-0.023l-0.086-0.132l-0.049-0.125l-0.07-0.123l-0.145-0.132l0.028-0.03l0.12,0.043l0.255,0.047l0.114,0.059l0.006-0.037
	l0.002-0.023l-0.012-0.023l-0.034-0.034l0.026-0.026l0.225,0.133l0.043,0.049l-0.006,0.048l-0.041,0.032l-0.039,0.024l-0.003,0.02
	l0.01,0.021l0.011,0.087l0.027,0.019l0.061-0.01l0.023-0.025l-0.007-0.08l0.075,0.002l0.104,0.05l0.083,0.063l0.018,0.033
	l0.005,0.063l0.029,0.03l0.037,0.01l0.034-0.015l0.021-0.032v-0.038l0.029-0.031l0.084,0.021l0.059-0.034l0.034-0.063l0.009-0.073
	l-0.011-0.042l-0.047-0.078l-0.012-0.042l-0.003-0.061l0.01-0.011l0.025,0.011h0.047l0.119-0.014l0.02,0.046l0.009,0.07l0.089,0.058
	l0.092-0.01l0.043-0.069l0.006-0.089l-0.019-0.073l-0.024-0.039l0,0l0.25-0.09l0.228-0.109l0.261-0.071l0.195,0.041l0.068,0.144
	l0.028,0.187l0.071,0.17l0.296,0.449l0.396,0.6L633.565,621.87z"/></svg>