<?xml version="1.0" encoding="utf-8"?>
<!-- Generator: Adobe Illustrator 15.0.0, SVG Export Plug-In . SVG Version: 6.00 Build 0)  -->
<!DOCTYPE svg PUBLIC "-//W3C//DTD SVG 1.1//EN" "http://www.w3.org/Graphics/SVG/1.1/DTD/svg11.dtd">
<svg version="1.1" id="Ebene_1" xmlns="http://www.w3.org/2000/svg" xmlns:xlink="http://www.w3.org/1999/xlink" x="0px" y="0px"
	 width="1920px" height="1080px" viewBox="0 0 1920 1080" enable-background="new 0 0 1920 1080" xml:space="preserve">

<path fill="#F4E0B6" stroke="#FFFFFF" d="M734.632,675.185l-0.049-0.011l-0.048-0.032l-0.003-0.034l0.029-0.014l0.014-0.017v-0.021
	l0.011-0.009l0.036,0.003l0.022,0.025l0.031,0.061l-0.01,0.045L734.632,675.185z M735.281,674.93l-0.042-0.021l-0.028-0.034
	l0.018-0.009l0.051,0.014l0.037-0.017l0.014-0.045l0.025-0.042l0.05-0.007l0.03,0.013l0.003,0.023l-0.013,0.045l-0.038,0.02
	l-0.037,0.015l-0.033,0.032L735.281,674.93z M736.255,674.523l-0.014-0.004l0.025-0.058l0.071-0.051l0.029,0.027l-0.083,0.069
	L736.255,674.523z M736.424,673.823l-0.091,0.013l0.03,0.017l-0.047,0.017l-0.003-0.045l-0.021-0.037l-0.036-0.032l-0.047-0.024
	l0.017-0.035l0.05,0.055l0.102,0.031l0.019-0.036l-0.009-0.048v-0.029l0.052-0.019l0.153-0.016l0.068-0.017l-0.003,0.021
	l-0.006,0.017l-0.003,0.018l0.009,0.025l-0.089,0.029L736.424,673.823z M737.021,673.267l-0.103,0.022l-0.073-0.107l-0.144-0.326
	l0.037-0.148l0.091-0.147l0.117-0.088l-0.001-0.022l0.004-0.055l0.117,0.04l0.1-0.075l0.096-0.113l0.106-0.074l0.071-0.007
	l0.055,0.011l0.043,0.022l0.091,0.073l0.022,0.027v0.039l-0.009,0.079l-0.066,0.221l-0.146,0.273l-0.196,0.239L737.021,673.267z"/></svg>