<?xml version="1.0" encoding="utf-8"?>
<!-- Generator: Adobe Illustrator 15.0.0, SVG Export Plug-In . SVG Version: 6.00 Build 0)  -->
<!DOCTYPE svg PUBLIC "-//W3C//DTD SVG 1.1//EN" "http://www.w3.org/Graphics/SVG/1.1/DTD/svg11.dtd">
<svg version="1.1" id="Ebene_1" xmlns="http://www.w3.org/2000/svg" xmlns:xlink="http://www.w3.org/1999/xlink" x="0px" y="0px"
	 width="1920px" height="1080px" viewBox="0 0 1920 1080" enable-background="new 0 0 1920 1080" xml:space="preserve">

<path fill="#F4E0B6" stroke="#FFFFFF" d="M732.522,677.197l-0.226,0.003l0.018-0.033h-0.045l-0.039,0.01l-0.035,0.026l-0.029,0.039
	l-0.033-0.029l-0.03-0.032l-0.025-0.036l-0.02-0.041l-0.063,0.019l-0.077-0.022l-0.073-0.047l-0.05-0.053l0.193-0.02l0.04-0.014
	l0.049-0.06l0.018-0.059l0.008-0.063l0.022-0.068l0.077-0.09l0.178-0.13l0.045-0.077l0.402-0.184l0.093,0.031l0.084,0.065
	l0.056,0.109l-0.01,0.013l-0.039,0.013l-0.007,0.095l-0.028,0.07l-0.134,0.216l-0.025,0.025l-0.035,0.021l-0.063,0.055l-0.018,0.037
	l-0.018,0.087l-0.018,0.008l-0.026-0.001l-0.026,0.021l-0.023,0.032l-0.022,0.037L732.522,677.197z M734.448,675.624l-0.063,0.08
	l-0.053,0.093l-0.059-0.063l-0.079-0.017l-0.087,0.002l-0.083-0.012l0.028-0.02l0.065-0.055l0.029-0.021l-0.012-0.009l-0.043-0.021
	l0.016-0.015l0.047-0.03l0.071,0.077l0.094-0.05l0.101-0.081l0.094-0.025l-0.014,0.088L734.448,675.624z"/></svg>