<?xml version="1.0" encoding="utf-8"?>
<!-- Generator: Adobe Illustrator 15.0.0, SVG Export Plug-In . SVG Version: 6.00 Build 0)  -->
<!DOCTYPE svg PUBLIC "-//W3C//DTD SVG 1.1//EN" "http://www.w3.org/Graphics/SVG/1.1/DTD/svg11.dtd">
<svg version="1.1" id="Ebene_1" xmlns="http://www.w3.org/2000/svg" xmlns:xlink="http://www.w3.org/1999/xlink" x="0px" y="0px"
	 width="1920px" height="1080px" viewBox="0 0 1920 1080" enable-background="new 0 0 1920 1080" xml:space="preserve">

<path fill="#F4E0B6" stroke="#FFFFFF" d="M1052.566,549.354l0.021,0.014l0.043,0.032h0.003l0.04,0.029l0.6,0.126l0.039,0.019
	l0.013,0.02l0.089,0.095l0.013-0.002l0.367,0.148l0.062-0.044l0.072-0.119l0.007,0.003l0.001,0.002l0.138,0.101l0.13,0.013
	l0.114,0.045l0.067,0.184l-0.003,0.074l-0.062,0.182l0.001,0.043l0.014,0.082v0.033l-0.056,0.155l-0.035,0.19l-0.018,0.1
	l0.004,0.163l0.047,0.146l0.051,0.064l0.057,0.051l0.051,0.06l0.037,0.092l-0.007,0.067l-0.028,0.062l-0.018,0.057l0.02,0.04
	l0.074-0.003l0.194-0.031l0.055-0.04l0.062-0.005l0.149-0.071l0.054-0.01l0.632-0.017l0.014,0.052l0.017,0.006l0.019-0.009
	l0.017,0.01l0.01,0.025l0.003,0.045l0.032,0.104l0.008,0.049l0.021,0.039l0.059,0.041l0.096,0.029l0.358-0.007l0.158,0.067
	l0.082,0.016l0.145-0.005l0.042-0.013l0.021-0.005l0.068-0.048l0.105-0.11l0.013-0.055l-0.005-0.037l-0.011-0.035l-0.007-0.06
	l0.016-0.09l0.044-0.026l0.064-0.005l0.072-0.029l-0.03-0.081l0.015-0.116l0.042-0.11l0.067-0.079l0.015-0.008l0.017-0.003
	l0.021,0.006v-0.002v0.002l0.043,0.021l0.101,0.077l0.132,0.045l0.039,0.021l0.046,0.067l0.02,0.157l0.042,0.088l0.039,0.144
	l0.005,0.043l-0.008,0.034l-0.035,0.099l0.031,0.062l0.045,0.055l0.031,0.057l-0.015,0.065l-0.039,0.049l0.005,0.045l0.021,0.048
	l0.017,0.062l-0.008,0.062l-0.021,0.041l0.002,0.045l0.057,0.074l0.079,0.042l0.132-0.031l0.084,0.031l0.054,0.072l0.041,0.112
	l0.018,0.113l-0.007,0.037l-0.008,0.046l-0.051,0.029l-0.235,0.019l-0.101,0.046l-0.041,0.009l-0.039-0.005l-0.026-0.013
	l-0.025-0.017l-0.03-0.013l-0.14,0.003l-0.031-0.042l-0.019-0.094l-0.024-0.046l-0.063-0.022l-0.077,0.027l-0.252,0.179
	l-0.022,0.026l-0.001,0.035l0.018,0.152l-0.013,0.041l-0.04,0.087l-0.012,0.046l0.009,0.033l0.035,0.093l0.005,0.051l0.02,0.037
	l0.02,0.03l0.023,0.018l0.033,0.009l-0.02,0.106l0.07,0.042l0.102,0.004l0.144-0.022l0.061,0.004l0.04,0.038l0.014,0.103
	l-0.011,0.036l-0.041,0.077l-0.007,0.049l0.007,0.063l0.014,0.04l0.025,0.031l0.047,0.038l0.172,0.081l0.068,0.062l-0.007,0.097
	l-0.064,0.081l-0.109,0.091l-0.101,0.034l-0.04-0.097l-0.058-0.062l-0.158-0.063l-0.069-0.042l-0.055-0.088l-0.034-0.084
	l-0.048-0.062l-0.093-0.022l-0.067,0.005l-0.062,0.016l-0.122,0.067l-0.162,0.17l-0.055,0.04l-0.042,0.006l-0.091-0.019l-0.033,0.01
	l-0.019,0.05l0.013,0.05l0.023,0.048l0.011,0.033l-0.021,0.079l-0.049,0.042l-0.349,0.113l-0.079-0.002l-0.081-0.021l-0.058-0.039
	l-0.12-0.133l-0.035-0.013l-0.081-0.015l-0.03-0.014l-0.014-0.021l-0.021-0.067l-0.175-0.405l-0.021-0.023l-0.021,0.013
	l-0.035,0.052l-0.011,0.033l0.001,0.034l-0.005,0.03l-0.027,0.023l-0.027-0.001l-0.104-0.046l-0.022-0.054l-0.066,0.006l-0.14,0.067
	l-0.038,0.071l-0.014,0.122l0.016,0.113l0.052,0.048l0.05,0.014l0.022,0.041l0.013,0.056l0.023,0.062l0.099,0.139l0.026,0.055
	l0.016,0.101l-0.021,0.211l0.014,0.168l-0.012,0.055l-0.021,0.043l-0.031,0.028l-0.023,0.035l-0.002,0.049l0.006,0.053l-0.007,0.049
	v0.005l-0.167,0.22l-0.025,0.103l0.009,0.057l0.043,0.096l0.01,0.056l-0.009,0.048l-0.022,0.026l-0.06,0.044l-0.056,0.085
	l0.005,0.052l0.11,0.132l-0.065,0.125l-0.004,0.013l0.003,0.013l0.006,0.008l0.01,0.01l0.046,0.022l0.055,0.069l0.043,0.03
	l0.035,0.007l0.072-0.01l0.035,0.009l0.062,0.061l0.017,0.076l-0.022,0.171l-0.054,0.149l-0.099,0.014l-0.116-0.01l-0.107,0.075
	l-0.014-0.069l-0.002-0.057l-0.007-0.058l-0.032-0.071l-0.038-0.05l-0.047-0.048l-0.089-0.076l-0.055-0.059l-0.03-0.02l-0.026-0.01
	l-0.21-0.033l-0.054-0.002l-0.053,0.014v-0.012l0.004-0.025l0.01-0.138l0.048-0.134l0.008-0.115l-0.114-0.074h-0.053l-0.094,0.032
	l-0.052,0.01l-0.029-0.007l-0.036-0.034l-0.012-0.001h-0.017l-0.018,0.016l-0.031,0.056l-0.018,0.02l-0.055,0.016l-0.173-0.035
	h-0.066l-0.035-0.006l-0.298-0.216l-0.119-0.059l-0.099-0.014l-0.093-0.006l-0.073-0.026l-0.059-0.059l-0.052-0.102l-0.029-0.114
	l-0.033-0.24l-0.035-0.127l-0.05-0.129l-0.049-0.094l-0.063-0.047l-0.093,0.013l-0.038,0.022l-0.12,0.069l-0.067,0.071l-0.04,0.088
	l-0.006,0.063l0.019,0.015l0.025,0.008l0.018,0.043l-0.003,0.046l-0.019,0.045l-0.024,0.038l-0.071,0.071l-0.079,0.241l-0.048,0.064
	l-0.123,0.071l-0.057,0.051l-0.038,0.079l-0.015,0.051v0.042l0.018,0.013l0.093,0.038l0.154,0.143l0.066,0.155l-0.016,0.161
	l-0.094,0.155l-0.03,0.022l-0.06,0.028l-0.022,0.032l-0.007,0.052l0.012,0.052l0.018,0.048l0.028,0.129l-0.004,0.01l-0.005,0.074
	l0.001,0.01l-0.022,0.062l-0.016,0.024l-0.025,0.018l-0.201,0.119l-0.033,0.048l-0.01,0.074l0.021,0.084l-0.062,0.023l-0.003,0.009
	l0.008,0.048l0.011,0.021l-0.003,0.017l-0.031,0.034l-0.018,0.004l-0.062,0.002l-0.085,0.027l-0.168-0.006l-0.029,0.013l-0.02,0.019
	l-0.023,0.016l-0.044-0.002l-0.008-0.01l-0.089-0.064l-0.06-0.026l-0.06-0.013l-0.345,0.022l-0.041,0.042l-0.013,0.059l-0.021,0.054
	l-0.062,0.029l-0.077,0.067l-0.139,0.189l-0.086,0.064l-0.243,0.047l-0.036,0.027l-0.069,0.079l-0.165,0.138l-0.089,0.046
	l-0.101,0.032l-0.103,0.012l-0.088-0.02l-0.194-0.109l-0.033-0.029l-0.032-0.04l-0.05-0.071l-0.067-0.08l-0.028-0.041l-0.019-0.006
	l-0.292-0.167l-0.082-0.01l-0.022,0.02l-0.015,0.028l-0.018,0.025l-0.03,0.004l-0.035-0.012l-0.007-0.012v-0.021l-0.013-0.032
	l0.003-0.007l-0.017-0.044l-0.021-0.042l-0.008,0.008l0.007-0.027l0.014-0.037l0.011-0.04l-0.008-0.034l-0.064-0.031l-0.266,0.022
	l-0.054-0.065l-0.022-0.157l-0.001-0.173l0.038-0.242l-0.112-0.097l-0.15-0.079l-0.095-0.082v-0.056l0.051-0.118l-0.004-0.079
	l-0.02-0.042l-0.014-0.031l0.266-0.032l0.141-0.05l0.038-0.104l-0.087-0.063l-0.167-0.031l-0.3-0.005l-0.573-0.025l-0.073,0.008
	l-0.264,0.102l-0.042,0.033l-0.136,0.202l-0.041,0.043l-0.199,0.087l-0.047,0.042l-0.035,0.061l-0.218,0.791l-0.005,0.151
	l0.035,0.171l-0.018,0.028l-0.008,0.03l-0.002,0.035l0.003,0.041l0.104-0.196l0.047-0.281l0.02,0.023l0.008,0.019l0.055,0.063
	l0.02,0.015l0.038,0.007l0.044-0.038l0.026,0.001l0.05,0.097l-0.053,0.108l-0.156,0.187l-0.098,0.228l-0.086,0.082l-0.123-0.016
	l-0.142,0.048l-0.131,0.074l-0.062,0.065l0.01-0.107l0.009-0.051l-0.003-0.041l-0.078-0.052l-0.054-0.05l-0.005-0.055l0.06-0.07
	l0.158-0.145l0.006-0.003l0.005-0.002h0.006h0.027l0.02-0.005l0.017-0.007l0.063-0.041l0.003-0.033l-0.016-0.039l-0.015-0.048
	l-0.021-0.13l-0.001-0.038l0.013-0.112l0.015-0.136l-0.021-0.048l-0.06-0.055l-0.063-0.035l-0.185-0.046l-0.018-0.006l0.024-0.043
	l-0.005-0.031l-0.016-0.026l-0.012-0.035l-0.007-0.011l-0.015-0.017l-0.013-0.019l-0.008-0.022l0.003-0.031l0.023-0.047l0.047-0.213
	l0.065-0.166l-0.104-0.06l-0.029-0.057l0.024-0.064l0.292-0.494l0.183-0.184l0.022-0.035l0.051-0.111l0.085-0.085l0.025-0.033
	l0.021-0.053l-0.002-0.04l-0.026-0.072l-0.031-0.019l-0.024-0.017l-0.018-0.022l-0.002-0.022l-0.001-0.157l0.01-0.045l0.001-0.015
	v-0.031l-0.015-0.063l-0.027-0.045l-0.066-0.063l-0.026-0.036l-0.008-0.168l0.122-0.128l0.297-0.2l0.153-0.213l0.037-0.12
	l-0.065-0.07l0.018-0.081l0.019-0.036l0.068-0.051l0.002-0.031l0.008-0.011l0.037-0.035l-0.029-0.074l0.081-0.059l0.134-0.232
	l0.005-0.009l0.024-0.11l0.06-0.116l0.156-0.21l-0.051-0.105l-0.013-0.096l0.039-0.075l0.026-0.012l0.014-0.011l0.024-0.073
	l0.025-0.026l0.027-0.02l0.022-0.026l0.008-0.055l-0.047-0.035l-0.062-0.026l-0.058-0.022l-0.047,0.043l-0.353,0.145l-0.004-0.062
	l0.013-0.08l0.026-0.069l0.063-0.07l-0.024-0.083l0.074-0.042l0.04-0.042l0.032-0.052l0.01-0.045l-0.033-0.046l-0.053-0.052
	l-0.024-0.047l0.051-0.033l0.02-0.029l0.025-0.016l0.03-0.001l0.035,0.013l0.083-0.013l0.144-0.072l0.077-0.005l0.047,0.01
	l0.007-0.002l0.036-0.004l0.08-0.033l-0.011,0.141l0.042,0.066l0.08,0.02h0.099l0.017,0.006l0.014,0.013l0.019,0.013l0.027,0.002
	l0.019-0.011l0.098-0.084l0.075-0.039l0.087-0.024l0.128-0.032l0.026-0.021l0.047-0.039l0.023-0.067l0.009-0.026l-0.005-0.044
	l-0.013-0.023l-0.022-0.016l-0.015-0.009l-0.023-0.022l-0.011-0.026l0.031-0.021l0.053,0.002l0.018,0.005l0.032,0.008l0.041-0.007
	l0.032-0.055l0.003-0.008l-0.001-0.016l-0.004-0.012h-0.001l-0.006-0.01l-0.032-0.022l-0.013-0.015l-0.001-0.016l0.014-0.015
	l0.034-0.004l0.022-0.016l0.004-0.027l-0.017-0.045l-0.01,0.004l-0.065-0.022l-0.009-0.001l0.084-0.128l0.013-0.018l0.057-0.062
	l0.094-0.072l0.001-0.001l0.14-0.093l0.065-0.027l-0.001,0.121l-0.021,0.039l-0.071,0.022l-0.008,0.002l0.134,0.023l0.052,0.01
	l0.07-0.011l0.123-0.068l0.111-0.063l0.045-0.049l0.027-0.071l0.025-0.101l0.051,0.008l0.198-0.049l0.025,0.013l0.024,0.039
	l0.022,0.038l0.014,0.016l0.393-0.122l0.126-0.071l0.022-0.029l0.007-0.022l0.004-0.026l0.016-0.037l0.017-0.026l0.053-0.056
	l0.05-0.032l0.013-0.028l0.008-0.025l0.011-0.016l0.153-0.077l0.055-0.018h0.086l0.036-0.009l0.023,0.014l0.031,0.037l0.037,0.035
	l0.037,0.01l0.124-0.006l0.193-0.061l0.009-0.005l0.078-0.04l-0.004-0.022l0.008-0.085l0.07-0.09l0.087-0.036l0.062,0.028
	l0.058,0.047l0.009,0.005l0.039,0.023l0.036-0.025l0.002-0.014l0.005-0.026l-0.01-0.032l-0.013-0.031l-0.007-0.03l-0.007-0.016
	l-0.014-0.015l-0.012-0.018l-0.003-0.025l0.008-0.014l0.014-0.011l0.013-0.005l0.006,0.005l0.012,0.027l0.022,0.004l-0.021-0.109
	l-0.028,0.006h-0.016l-0.04-0.004l-0.044,0.007l-0.137,0.069l-0.037,0.038l-0.031,0.042l-0.035,0.037l-0.054,0.02l-0.075-0.016
	l-0.097-0.032l-0.016,0.001l-0.053-0.001v-0.054l-0.021-0.035l-0.024-0.026l-0.009-0.035l0.019-0.042l0.06-0.064l0.022-0.039
	l-0.01-0.094l0.002-0.036l0.019-0.071l0.019-0.021l0.034-0.01l0.149-0.082l0.037-0.038l-0.053-0.059l0.037-0.042l0.077-0.021
	l0.063,0.008l0.016,0.029l0.024,0.056l0.03,0.049l0.037,0.013l0.027-0.036l-0.019-0.1l0.017-0.036h0.044l0.044,0.033l0.043,0.044
	l0.034,0.026l0.034-0.003l0.03-0.017l0.031-0.004l0.036,0.037l-0.002,0.019l-0.018,0.071l0.001,0.031l0.025,0.032l0.034,0.022
	l0.021,0.03l0.017,0.025l0.156-0.052l-0.034-0.02l-0.005-0.094l0.082-0.022l0.119,0.023l0.104,0.046l-0.051,0.031l0.011,0.031
	l0.06,0.026l0.002,0.001l0.111,0.037l0.08-0.006l0.113-0.048l0.095-0.07l0.029-0.065l0.048-0.041l0.347-0.071L1052.566,549.354z"/></svg>