<?xml version="1.0" encoding="utf-8"?>
<!-- Generator: Adobe Illustrator 15.0.0, SVG Export Plug-In . SVG Version: 6.00 Build 0)  -->
<!DOCTYPE svg PUBLIC "-//W3C//DTD SVG 1.1//EN" "http://www.w3.org/Graphics/SVG/1.1/DTD/svg11.dtd">
<svg version="1.1" id="Ebene_1" xmlns="http://www.w3.org/2000/svg" xmlns:xlink="http://www.w3.org/1999/xlink" x="0px" y="0px"
	 width="1920px" height="1080px" viewBox="0 0 1920 1080" enable-background="new 0 0 1920 1080" xml:space="preserve">

<path fill="#F4E0B6" stroke="#FFFFFF" d="M1194.154,447.604l-0.127,0.21l-0.144,0.197l-0.157,0.178l-0.169,0.16l-0.179,0.141
	l-0.187,0.123l-0.192,0.102l-0.2,0.083l-0.202,0.062l-0.205,0.042l-0.205,0.019l-0.206-0.002l-0.202-0.023l-0.199-0.046
	l-0.192-0.068l-0.188-0.091l-0.178-0.114l-0.166-0.135l-0.146-0.15l-0.13-0.165l-0.111-0.177l-0.093-0.189l-0.074-0.198
	l-0.055-0.206l-0.036-0.213l-0.017-0.217l0.002-0.221l0.022-0.222l0.041-0.223l0.062-0.221l0.083-0.218l0.103-0.214l0.122-0.208
	l0.143-0.195l0.153-0.178l0.166-0.161l0.176-0.141l0.184-0.123l0.193-0.103l0.198-0.084l0.202-0.063l0.205-0.043l0.207-0.022
	l0.206-0.001l0.204,0.021l0.202,0.042l0.196,0.066l0.19,0.09l0.182,0.112l0.169,0.133l0.15,0.15l0.131,0.164l0.115,0.178l0.094,0.19
	l0.075,0.2l0.056,0.208l0.037,0.215l0.017,0.22l-0.004,0.223l-0.023,0.226l-0.044,0.225l-0.064,0.224l-0.084,0.221L1194.154,447.604
	z"/></svg>