<?xml version="1.0" encoding="utf-8"?>
<!-- Generator: Adobe Illustrator 15.0.0, SVG Export Plug-In . SVG Version: 6.00 Build 0)  -->
<!DOCTYPE svg PUBLIC "-//W3C//DTD SVG 1.1//EN" "http://www.w3.org/Graphics/SVG/1.1/DTD/svg11.dtd">
<svg version="1.1" id="Ebene_1" xmlns="http://www.w3.org/2000/svg" xmlns:xlink="http://www.w3.org/1999/xlink" x="0px" y="0px"
	 width="1920px" height="1080px" viewBox="0 0 1920 1080" enable-background="new 0 0 1920 1080" xml:space="preserve">

<path fill="#F4E0B6" stroke="#FFFFFF" d="M1125.681,790.385l-0.013,0.104l-0.139-0.01l0.019-0.022l0.004-0.032l0.016-0.024
	l-0.084-0.041l-0.058-0.055l-0.025-0.064l0.02-0.067l0.168,0.077L1125.681,790.385z M1135.619,756.792l0.104-0.034l0.648-0.366
	l0.312-0.174l1.056-0.594l0.071-0.04l1.436-0.808l1.43-0.805l1.428-0.805l0.128,0.209l0.195,0.477l0.641,1.563l0.129,0.315
	l0.517,1.257l0.648,1.583l0.652,1.592l-1.448,0.82l-0.354,0.198l-1.098,0.622l-1.456,0.822l-0.111,0.063l-1.348,0.762l-0.534,0.301
	l-0.132,0.104l-0.09,0.07l0.01,0.105l0.07,0.185l0.014,0.091l-0.03,0.104l-0.068,0.066l-0.094,0.033l-0.104,0.003l-0.112-0.033
	l-0.198-0.112l-0.108-0.026l-0.089,0.007l-0.154,0.063l0,0l-0.004-0.037l-0.049-0.103l-0.099-0.138l-0.018-0.078l0.022-0.062
	l0.054-0.063l0.065-0.059l0.061-0.042l-0.042-0.016l-0.069,0.009l-0.077,0.023l-0.062,0.028l-0.058,0.01l-0.156-0.02l-0.067,0.016
	l-0.179,0.169l-0.059,0.013l-0.044-0.05l-0.005-0.08l0.018-0.076l0.022-0.042l-0.072,0.102l-0.063,0.186l-0.043,0.193l-0.005,0.112
	l-0.017,0.063l-0.142,0.141l-0.097,0.137l-0.072-0.05l-0.191-0.255l-0.07-0.056l-0.074-0.029l-0.098-0.006l-0.101,0.024
	l-0.056,0.054l-0.046,0.066l-0.142,0.126l-0.111,0.17l-0.066,0.063l-0.056-0.011l-0.177-0.097l-0.085-0.022l-0.015-0.067
	l-0.031-0.042l-0.103-0.069l0.062-0.082l0.029-0.106l0.007-0.113l-0.041-0.364l0.001-0.136l0.037-0.08l0.056-0.094l0.022-0.158
	l-0.001-0.17l-0.019-0.125l-0.102-0.229l-0.02-0.111l0.105-0.15l0.107-0.329l0.032-0.187l0.012-0.02l-0.002-0.039l0.011-0.042
	l0.007-0.055l-0.014-0.07l-0.011-0.208l0.01-0.226l0.062-0.154l0.074-0.01l0.088,0.038l0.108-0.012l0.121-0.096l0.071-0.105
	l0.058-0.117l0.083-0.129l-0.096,0.063l-0.134,0.281l-0.097,0.022l-0.308-0.133l-0.139-0.128l-0.013-0.193l0.149-0.519l0.003-0.03
	l0.002-0.084l0.012-0.048l0.067-0.139l0.02-0.07l0.005-0.055l-0.005-0.146l0.006-0.048l0.012-0.037v-0.051l-0.039-0.157l0.008-0.053
	l0.012-0.044l-0.002-0.036l0.004-0.074l0.09-0.308l-0.027-0.235l-0.116-0.241l-0.325-0.419l-0.091-0.088l-0.033-0.042l-0.031-0.064
	l-0.015-0.069l0.008-0.053l0.01-0.044v-0.037l-0.25-0.773l-0.066-0.128l-0.081-0.081l-0.091-0.113l0.022-0.139l0.062-0.138
	l0.095,0.07l0.048,0.11l0.033,0.134l0.058,0.117l0.099,0.062l0.16,0.061l0.162,0.036l0.102-0.01l0.094-0.022L1135.619,756.792z
	 M1126.249,750.583l0.066-0.031l0.031-0.068l0.123-0.019l0.167-0.057l0.16-0.096l0.11-0.136l0.023,0.017l0.019,0.003l0.043-0.014
	l0.199,0.122l0.085,0.075l0.065,0.115l0.035,0.114l0.02,0.115l0.004,0.107l-0.01,0.1l-0.102,0.284l0.011,0.19l-0.071,0.321
	l-0.007,0.026l0.022,0.371l-0.053,0.126l0.028,0.153l-0.001,0.039l-0.003,0.025l-0.101,0.178l0.018,0.104l0.101,0.274l0.006,0.114
	l-0.102,0.427l-0.041,0.428l-0.02,0.091l-0.061-0.015l-0.133,0.005l-0.041-0.025l-0.024,0.033l-0.081,0.008l-0.169-0.019
	l-0.029,0.035l-0.099,0.092l-0.05,0.025l-0.063,0.002l-0.133-0.025l-0.068,0.017l-0.105,0.055l-0.128,0.031l-0.125-0.038
	l-0.104-0.155l-0.046-0.052l-0.073-0.054l-0.06-0.062l-0.01-0.074v-0.064l-0.064-0.269l-0.01-0.134l0.009-0.186l0.054-0.147
	l0.128-0.024l0.046-0.076l0.083-0.041l0.186-0.055l0.067-0.085l-0.01-0.111l-0.053-0.102l-0.075-0.058l0.046-0.074l0.051-0.108
	l0.037-0.116v-0.091l-0.17-0.564l-0.015-0.242l0.032-0.321l0.094-0.297l0.171-0.176l-0.002,0.029l0.004,0.071L1126.249,750.583z"/></svg>