<?xml version="1.0" encoding="utf-8"?>
<!-- Generator: Adobe Illustrator 15.0.0, SVG Export Plug-In . SVG Version: 6.00 Build 0)  -->
<!DOCTYPE svg PUBLIC "-//W3C//DTD SVG 1.1//EN" "http://www.w3.org/Graphics/SVG/1.1/DTD/svg11.dtd">
<svg version="1.1" id="Ebene_1" xmlns="http://www.w3.org/2000/svg" xmlns:xlink="http://www.w3.org/1999/xlink" x="0px" y="0px"
	 width="1920px" height="1080px" viewBox="0 0 1920 1080" enable-background="new 0 0 1920 1080" xml:space="preserve">

<path fill="#F4E0B6" stroke="#FFFFFF" d="M1299.21,735.914l-0.078,0.215l-0.078,0.033l-0.061-0.074l-0.026-0.151l0.009-0.14
	l0.056-0.241l0.139-0.094l0.104-0.049l0.051,0.064l-0.021,0.094L1299.21,735.914z M1299.219,733.911l0.005,0.415l-0.022,0.129
	l0.006,0.043l0.015,0.035l0.007,0.037l0.012,0.126l-0.002,0.036l-0.016,0.084l0.007,0.041l0.003,0.075l-0.055,0.028l-0.143,0.022
	l-0.112,0.12l-0.012,0.146l0.02,0.136l-0.016,0.096l-0.146,0.177l-0.083,0.071l-0.074,0.043l-0.107,0.004l-0.179-0.085l-0.099-0.028
	l0.037-0.033l0.075-0.044l0.032-0.039l-0.005-0.014l-0.003-0.044l0.001-0.042l0.006-0.005l-0.005-0.047l0.021-0.022l0.031-0.014
	l0.023-0.023l0.108-0.324l0.018-0.156l-0.065-0.038l-0.01-0.103l0.037-0.068l0.066-0.049l0.083-0.044l0.068-0.057l0.112-0.151
	l0.071-0.06l-0.042-0.03l-0.047,0.016l-0.112,0.075l-0.012-0.032l0.049-0.045l0.035-0.055l0.058-0.112l0.078-0.098l0.026-0.063
	l-0.021-0.154l0.005-0.1l0.019-0.094l0.028-0.051l0.012-0.039l-0.008-0.162l-0.012-0.06l0.104,0.054l0.06,0.177L1299.219,733.911z
	 M1292.162,725.209l-0.052,0.046l-0.052,0.024l-0.041-0.074l-0.028-0.104l-0.05-0.162l-0.058-0.105l0.035-0.075l0.027,0.078
	l0.062,0.086l0.064,0.047l-0.009,0.075l0.058,0.056L1292.162,725.209z M1292.836,725.22l0.103,0.136l0.041,0.076l0.055,0.075
	l0.158,0.124l0.149,0.225l0.036,0.005l0.104-0.034l0.04,0.067l0.015,0.074l0.007,0.079l0.02,0.079l0.036,0.087l0.036,0.062
	l0.042,0.051l0.06,0.051l-0.022,0.11l-0.006,0.058l0.009,0.069l0.054-0.069l0.054,0.011l0.06,0.044l0.065,0.022l-0.03-0.082
	l0.011-0.069l0.035-0.025l0.05,0.056l0.02-0.014l0.004-0.009l-0.004-0.008l-0.003-0.025l0.084-0.017l-0.044-0.115l-0.087-0.151
	l-0.038-0.124l0.131,0.081l0.102,0.134l0.402,0.756l0.036,0.041l0.226,0.192l0.072,0.248l-0.052,0.227l-0.139,0.154l-0.191,0.031
	l-0.096-0.035l-0.1-0.063l-0.088-0.085l-0.274-0.418l-0.021-0.087l-0.089,0.093l0.023,0.059l0.072,0.049l0.057,0.06l0.043,0.126
	l-0.01,0.042l-0.151,0.013l-0.021-0.116l-0.061-0.07l-0.179-0.086l-0.25-0.188l-0.055-0.018l-0.05-0.016l-0.046,0.074l0.015,0.04
	l0.029-0.011l0.01,0.016l0.007,0.025l0.017,0.027l-0.083-0.018l0.016,0.095l0.065,0.116l0.073,0.035l-0.008,0.014l-0.002,0.016
	l-0.018,0.013h-0.05l-0.055-0.009l-0.024-0.012l-0.02-0.018l-0.357-0.193l-0.077-0.062l-0.157-0.214l-0.079-0.077l0.069-0.328
	l-0.163-0.298l-0.222-0.294l-0.103-0.321l-0.031-0.063l-0.022-0.067l-0.009-0.063l0.003-0.05l0.026,0.021l0.057,0.038l0.026,0.022
	l0.018-0.19l0.101-0.253l0.034-0.146l-0.031-0.194l-0.13-0.428l0.044-0.144l0.121,0.139l0.263,0.227l0.104,0.18l0.059,0.249
	l0.033,0.088L1292.836,725.22z M1293.283,722.046l-0.121,0.077l-0.112-0.035l-0.11-0.062l-0.068-0.049l-0.082-0.039l-0.081-0.055
	l0.006-0.081l0.05,0.004l0.089,0.016l0.081,0.055l0.093,0.071l0.087-0.007l0.08-0.018l0.074,0.048L1293.283,722.046z
	 M1292.315,718.834l0.015,0.021l0.048-0.037l0.002-0.052l-0.009-0.05l0.02-0.04l0.031,0.009l0.111,0.049l0.025,0.018l0.275,0.031
	l0.056,0.022l0.028,0.064l0.034,0.051l0.027,0.009l0.014-0.061l-0.021-0.043l-0.039-0.044l-0.023-0.064l0.028-0.098l0.022,0.037
	l0.031,0.034l0.02,0.029l0.002-0.115l-0.017-0.129l-0.031-0.111l-0.037-0.069l0.082,0.016l0.045,0.116l0.04,0.142l0.136,0.183
	l-0.012,0.131l-0.054,0.123l-0.049,0.073l0.063,0.087l0.027,0.117l0.015,0.125l0.026,0.116l0.111,0.145l0.016,0.028l0.033-0.048
	l-0.018-0.055l-0.029-0.051l-0.003-0.032l0.071-0.003l0.046,0.097l0.053,0.232l0.128,0.332l0.001,0.109l0.052,0.022l-0.024,0.109
	l0.054,0.571l-0.012,0.079l-0.011,0.033l0.007,0.039l0.037,0.097l0.007,0.086l-0.036,0.033l-0.044-0.029l-0.017-0.112l-0.025,0.015
	l0.004,0.107l-0.003,0.042l-0.012,0.041l0.039,0.05v0.076l-0.03,0.085l-0.046,0.087l-0.039,0.038l-0.021-0.014l0.002-0.044
	l0.029-0.053l-0.017-0.042l-0.058,0.056l-0.036,0.064l-0.035,0.029l-0.059-0.049l-0.159,0.094l-0.078,0.012l-0.057-0.063
	l-0.075-0.195l-0.016-0.1l0.013-0.102l-0.054-0.044l0.055-0.042l0.177-0.055l-0.068-0.061l-0.153-0.091l-0.061-0.071l0.081-0.018
	l0.096-0.042l0.074-0.062l0.026-0.075l-0.06,0.014l-0.054,0.004l-0.05-0.011l-0.048-0.032l0.072-0.039l0.099-0.096l0.072-0.043
	l0.104,0.007l0.041-0.042l-0.013-0.13l-0.077,0.092l-0.129,0.023l-0.275-0.044l-0.032,0.059l-0.064,0.011l-0.076-0.029l-0.063-0.053
	l0.06-0.003l0.045,0.011l0.036-0.007l0.034-0.049l0.051-0.009l0.17-0.056l0.085-0.051l-0.051-0.023l-0.008-0.128l-0.054-0.082
	l-0.062-0.004l-0.033,0.113l-0.021-0.128v-0.043l-0.044-0.027l-0.047-0.008l-0.048,0.023l-0.04,0.066l-0.015-0.067l-0.003-0.031
	l0.003-0.042l-0.044-0.058l-0.025-0.082l0.001-0.073l0.034-0.023l0.066,0.001l0.018-0.032l-0.022-0.046l-0.052-0.042l-0.051-0.006
	l-0.18,0.013l-0.007-0.062l0.04-0.099l-0.003-0.068l-0.053,0.074l-0.078-0.082l-0.007-0.096l0.052-0.062l0.105,0.016l-0.018-0.101
	l-0.073-0.025l-0.096-0.008l-0.082-0.049l-0.027-0.064l-0.034-0.174l-0.028-0.088l0.022,0.022l0.021,0.019l0.02,0.008l0.017-0.001
	l0.046,0.004l0.047,0.041L1292.315,718.834z M1252.319,722.622l0.057,0.017l0.037-0.025v-0.083l0.027-0.015l0.102,0.246l0.072,0.031
	l0.115-0.09l-0.038-0.041l-0.084-0.14l0.027-0.016l0.056-0.019l0.034-0.06l0.045-0.015l0.082,0.121l0.026,0.123l-0.007,0.123
	l0.007,0.107l0.062,0.079l0.001-0.021v-0.008l-0.001-0.009l0.013-0.021l0.024,0.097l-0.021,0.108l-0.047,0.08l-0.052,0.016
	l-0.018,0.08l-0.027,0.062l-0.042,0.039l-0.062,0.006l-0.075-0.079l-0.066-0.106l-0.071-0.081l-0.095,0.002l-0.045-0.064
	l-0.086-0.499L1252.319,722.622z M1250.449,723.472l0.033,0.017l0.012-0.057l-0.002,0.057l0.006,0.055l0.011,0.058l0.02,0.057
	l0.028-0.016l0.007-0.103l0.039-0.011l0.047,0.052l0.035,0.087l0.041,0.32l-0.032,0.088l-0.058,0.082l-0.067,0.063l-0.069,0.039
	l0.01,0.005l-0.01,0.02l-0.018,0.025l-0.015,0.014h-0.021l-0.01-0.022l-0.007-0.026l-0.012-0.013l-0.028-0.019l-0.024-0.032
	l-0.024-0.006l-0.034,0.066l-0.007-0.086l0.03-0.106l0.011-0.102l-0.061-0.079l-0.051,0.005l-0.09,0.069l-0.034-0.026l-0.006-0.059
	l0.025-0.055l0.05-0.07l0.057-0.107l0.042-0.111l0.047-0.094l0.078-0.06l0.033,0.062L1250.449,723.472z M1249.6,723.993l0.103,0.165
	l0.113,0.126l0.152-0.01l0.057-0.025l0.01,0.028l0.002,0.071l0.04,0.106l0.063,0.068l0.079,0.053l0.072,0.065l0.045,0.104
	l-0.012,0.062l-0.088,0.262l-0.052,0.077l-0.069-0.001l-0.072-0.057l-0.053-0.076l-0.029-0.092l-0.012-0.151l-0.039-0.077
	l-0.057-0.041l-0.138-0.044l-0.073-0.055l0.031-0.097l-0.052-0.013l-0.091,0.045l-0.079,0.081l-0.126-0.179l0.073-0.02l0.028-0.071
	l-0.006-0.095l-0.029-0.094l-0.082,0.102l-0.058-0.15l-0.051-0.338l0.028-0.015l0.059,0.107l0.068,0.013h0.069l0.044,0.036
	L1249.6,723.993z M1249.064,723.535l-0.006,0.046l-0.063,0.009l-0.075-0.013l-0.038-0.013l-0.062-0.066l-0.037-0.078l-0.017-0.087
	l-0.007-0.097l0.052,0.025l0.035,0.084l0.052,0.063l0.063,0.032l0.07-0.019l0.09-0.029v0.042L1249.064,723.535z M1253.68,719.401
	l0.009,0.075l0.086,0.063l0.312,0.022l0.097-0.122l0.016-0.019l-0.001-0.052l0.038-0.022l0.044-0.007l0.02,0.002l0.198-0.2
	l0.041-0.013l0.06,0.069l0.075,0.063l0.054,0.08l-0.006,0.233l0.063,0.022l0.195-0.052l0.02,0.042l-0.037,0.073l0.078,0.055
	l0.21,0.075h0.029l0.017-0.018l0.017-0.006l0.026,0.042l0.018,0.043l0.009,0.035l0.009,0.076l-0.025,0.001l-0.039,0.026
	l-0.001,0.048l0.087,0.061l-0.153,0.068l-0.135-0.026l-0.133-0.055l-0.142-0.01l0.011,0.074l-0.019,0.058l-0.047,0.033l-0.072,0.004
	l-0.313-0.081l-0.094,0.014l-0.233,0.122l-0.129,0.025l-0.142-0.03l-0.062,0.01l-0.031,0.046l-0.037,0.032l-0.072-0.048l-0.022-0.05
	v-0.066l0.066-0.315l0.008-0.102l-0.023-0.074l-0.041,0.003l-0.136,0.057l-0.027,0.003l-0.035,0.02l-0.051-0.048l-0.114-0.05
	l-0.066-0.064l0.046-0.022l0.035-0.012l0.032,0.01l0.047,0.034l0.054-0.088l0.031-0.077l0.042-0.151l0.011-0.076l0.011-0.029
	l0.037-0.032l0.024-0.003l0.105-0.003l0.035,0.016l0.03,0.102L1253.68,719.401z M1254.071,718.246l0.021,0.036l-0.012,0.023
	l-0.05,0.002l-0.027,0.017l0.032,0.038l0.071,0.043l0.019,0.02l0.029,0.071v0.034l-0.013,0.026l-0.024,0.11l-0.084,0.231
	l-0.026-0.013l-0.02,0.003l-0.017,0.006l-0.021,0.003l-0.136-0.058l-0.066-0.041v-0.032l0.006-0.04l-0.035-0.061l-0.05-0.056
	l-0.033-0.032l0.063-0.035l-0.055-0.073l0.034-0.052l0.158-0.098l0.089-0.079l0.05-0.03l0.05,0.003L1254.071,718.246z
	 M1248.272,721.465l-0.07,0.214l-0.026-0.117l0.016-0.1l0.007-0.104l-0.058-0.134l0.021-0.011h0.018l0.04,0.016l0.051,0.126
	L1248.272,721.465z M1248.174,720.309l0.106,0.057l0.039,0.03l0.042,0.055l-0.262-0.047l0.068,0.162l0.038,0.185l0.01,0.383
	l-0.095-0.274l-0.046-0.096l0.013,0.019l0.007,0.016l0.011,0.007l0.021-0.017l-0.104-0.209l-0.063-0.086l-0.086-0.059l0.107-0.142
	l0.02-0.007l0.029,0.013L1248.174,720.309z M1241.307,719.617l0.095,0.003l0.298-0.171l0.842-0.484l0.843-0.483l0.099-0.057
	l0.744-0.429l0.844-0.482l0.727-0.418l0.003,0.197l0.058,0.1l0.081,0.009l0.072-0.112l0.035-0.062l-0.019-0.126l-0.037-0.116
	l0.063-0.036l0.004,0.008l0.029,0.063l0.037,0.049l0.027-0.015l0.025-0.04l0.031-0.035l0.072,0.001l0.007,0.096l-0.022,0.116
	l-0.021,0.064l0.075,0.075l0.034,0.069l0.029,0.072l0.042,0.079l0.06,0.057l0.072,0.053l0.059,0.05l0.019,0.055l0.02,0.161
	l0.232,0.568l0.04,0.189l0.016,0.287l0.09,0.258l0.019,0.151l0.027,0.083l0.085,0.175l0.033,0.088l0.016,0.087l-0.241,0.006
	l0.049,0.177l0.14,0.239l0.029,0.189l0.172,0.123l0.033,0.148l-0.016,0.184l0.019,0.224l0.181,0.473l0.018,0.194l0.022,0.103
	l0.144,0.406l0.027,0.183l-0.049,0.411l0.016,0.179l0.055,0.181l0.091,0.202l0.052-0.017l0.008-0.041l-0.005-0.048l0.018-0.033
	l0.048-0.021l0.03-0.008l0.026-0.013l0.036-0.038l0.021-0.055l0.007-0.06l0.024-0.055l0.078-0.054l0.026,0.192l0.025,0.082
	l-0.003,0.055l0.007,0.032l0.021,0.017l0.068,0.02l0.022,0.022l0.018,0.07l-0.013,0.135l0.01,0.063l0.029,0.047l0.076,0.035
	l0.028,0.034l0.025,0.276l-0.005,0.056l0.039,0.045l0.072,0.386l0.084,0.162l0.006,0.054l-0.014,0.095l-0.002,0.057l0.012,0.046
	l0.052,0.11l0.045,0.067l0.052,0.01l0.078-0.049l0.083-0.133l0.04-0.146l0.065-0.118l0.153-0.044l0.01,0.07l-0.001,0.029
	l0.087-0.002l0.065,0.031l0.011,0.036l-0.077,0.028l0.058,0.107l0.048,0.06l0.138,0.087l0.074-0.013l0.041,0.007l0.014,0.106
	l0.028,0.036l0.038,0.031l0.025,0.037l0.011,0.086l-0.004,0.088l-0.026,0.087l-0.052,0.081l-0.067,0.047l-0.063,0.026l-0.033,0.036
	l0.022,0.089l0.071,0.082l0.068-0.001l0.061-0.016l0.05,0.041l0.148,0.304l0.052,0.03l0.06-0.049l0.113-0.133l0.135-0.078
	l0.068-0.057l0.043-0.058l0.031,0.1l-0.035,0.032l-0.063,0.006l-0.052,0.029l-0.014,0.029l-0.005,0.017l0.01,0.024l0.021,0.042
	l0.019,0.049l-0.01,0.013l-0.021,0.004l-0.04,0.051l-0.062,0.028l-0.018,0.029l-0.004,0.062l0.017,0.033l0.021,0.02l0.013,0.022
	l0.009,0.164l0.038,0.109l0.007,0.029l0.017,0.002l0.083-0.05l0.029-0.007l0.032,0.032l0.048,0.086l0.097,0.292l0.068,0.132
	l0.112,0.07l0.041-0.075l0.036-0.106l0.02-0.114l-0.007-0.092l-0.048-0.064l-0.154-0.161l-0.026-0.035l0.007-0.025l-0.026-0.035
	l-0.059-0.062l-0.017-0.063l0.009-0.048l0.021-0.044l0.02-0.06l0.04-0.037l0.073,0.027l0.067,0.065l0.029,0.09l0.06-0.068
	l0.078-0.057l-0.046-0.05l-0.103-0.171l-0.031-0.064l-0.025-0.038l-0.027-0.013l-0.015-0.017l0.011-0.049l0.023-0.016l0.026,0.03
	l0.038,0.083l0.097-0.106l0.067,0.056l0.043,0.108l0.025,0.053l0.118-0.027l0.063,0.063l0.053,0.112l0.075,0.116l0.093,0.042
	l0.09-0.031l0.052-0.089l-0.017-0.121l-0.043-0.042l-0.124-0.038l-0.042-0.02l-0.025-0.042l-0.045-0.11l-0.022-0.036l-0.034-0.017
	l-0.042-0.008l-0.051-0.026l-0.083-0.109l-0.058-0.039l-0.058-0.028l-0.041-0.001l-0.044,0.01l-0.044-0.01l-0.035-0.028
	l-0.008-0.043l0.017-0.048l0.03-0.023l0.04-0.02l0.048-0.04l0.026-0.01l0.027,0.008l0.022-0.013l0.021-0.062l-0.001-0.031
	l-0.009-0.035l-0.016-0.026l-0.021-0.004l-0.029-0.021l-0.048-0.146l-0.025-0.045l-0.084-0.099l-0.009-0.118l0.05-0.056l0.089,0.08
	l0.032-0.019l-0.029-0.057l-0.018-0.049l-0.01-0.05l-0.007-0.055l0.061,0.056l0.174,0.084l0.096,0.059l-0.006-0.049l0.003-0.017
	l-0.009-0.012l-0.041-0.031l0.029-0.034l0.041-0.022l0.05-0.004l0.054,0.008l0.014,0.058l0.056,0.038l0.065,0.001l0.047-0.053
	l0.082,0.091l0.021,0.046l0.059-0.101l-0.021-0.092l-0.033-0.089l0.026-0.078l-0.073-0.07l-0.064-0.02l-0.067-0.006l-0.106-0.026
	l-0.085,0.006l-0.043-0.005l-0.03-0.022l-0.044-0.063l-0.037-0.022l-0.051,0.001l-0.06,0.018l-0.057-0.003l-0.051-0.057
	l-0.035-0.079l-0.025-0.079l-0.01-0.069l0.011-0.061h0.025l0.173-0.088l0.048,0.05l0.063,0.013l0.066-0.021l0.053-0.051l0.033-0.147
	l-0.016-0.339l0.083-0.052l-0.069-0.187l-0.051-0.089l-0.047-0.024l-0.027-0.008l-0.014-0.035l0.006-0.042l0.044-0.018l0.026,0.018
	l0.074,0.08l0.037,0.02l0.09-0.019l0.044-0.048l0.032-0.061l0.047-0.049l0.057-0.036l0.021-0.007l0.205,0.197l0.063,0.019
	l0.086-0.025l0.033-0.003l-0.007,0.038l-0.036,0.074l-0.006-0.022h-0.035l-0.046,0.014l-0.025,0.02l0.037,0.123l0.149,0.095
	l0.171,0.076l0.021,0.08l0.103,0.055l0.12-0.038l0.206-0.123l0.006,0.031l0.017,0.072l0.002,0.031l0.05-0.031l0.048-0.026
	l0.054-0.013l0.055-0.001l0.016-0.062l0.041-0.021l0.055,0.012l0.064,0.024l0.009-0.079l0.057-0.126l-0.004-0.077l0.032-0.019
	l0.053,0.075l0.041,0.093l0.021,0.099l-0.003,0.091l-0.04,0.127l-0.008,0.066l0.011,0.193l0.121-0.021l0.074-0.145l0.153-0.594
	l-0.013-0.091l-0.047-0.123l-0.015-0.064l-0.016-0.112l-0.004-0.115l0.018-0.071l0.086,0.104l0.047,0.09l0.058,0.081l0.118,0.073
	l0.102,0.083l0.022,0.102l-0.007,0.109l0.007,0.096l0.045-0.076l0.116-0.256l0.047,0.023l0.009,0.047l0.066,0.107l0.034,0.075
	l0.029-0.085l0.01-0.171l0.042-0.083l0.063-0.008l0.053-0.102l0.048-0.007l0.055,0.035l0.035,0.029l0.032,0.018l0.05-0.009
	l0.016,0.035l0.001,0.085l-0.022,0.079l-0.01,0.079l0.037,0.097l0.042-0.043h0.045l0.044,0.033l0.047,0.055l-0.091,0.071
	l0.036,0.079l0.077,0.095l0.032,0.118l-0.034-0.005l-0.079,0.016l0.07,0.086l0.041,0.036l0.042,0.032l0.021-0.044l0.039-0.014
	l0.116,0.012l-0.039,0.134l0.016,0.083l0.075,0.021l0.136-0.055l0.08,0.037l0.035,0.161l0.007,0.269l0.031,0.071l0.046,0.052
	l0.017,0.044l-0.166,0.156l-0.054,0.037l-0.045,0.045l-0.101,0.184l-0.087,0.104l-0.004,0.054l0.07,0.05l0.063-0.072l0.112-0.002
	l0.207,0.051l0.018,0.038l-0.119,0.078l-0.007,0.074l0.037,0.074l0.016,0.075l-0.006,0.112l0.027,0.097l0.051,0.077l0.066,0.048
	l0.033-0.02l0.004-0.092l0.072-0.244v-0.067l-0.03-0.251l-0.047-0.066l-0.042-0.127l-0.027-0.141v-0.105l0.057-0.119l0.06-0.083
	l0.033-0.09l-0.021-0.145l0.034-0.02l0.071,0.135l0.086,0.063l0.104,0.021l0.331-0.001l0.105-0.02l0.051-0.038l0.005-0.048
	l-0.014-0.045l-0.026-0.038l-0.039-0.024l-0.084-0.018l-0.042,0.028l-0.03,0.042l-0.044,0.019l-0.083-0.006l-0.014-0.02
	l-0.027-0.078l-0.013-0.018l-0.045,0.013l-0.146,0.094l-0.009-0.123l0.033-0.08l0.012-0.057l-0.068-0.06l-0.032-0.002l-0.095,0.002
	l-0.034-0.005l-0.032-0.021l-0.064-0.068l-0.038-0.032l-0.048-0.02l-0.119-0.044l-0.028-0.014l-0.029-0.078l0.023-0.041l0.036-0.013
	h0.021l0.009-0.065l0.01-0.021l-0.019-0.017l-0.072-0.048l-0.029-0.011l-0.12-0.025l-0.06-0.046l-0.067-0.083l-0.039-0.091
	l0.029-0.067l-0.017-0.045l0.021-0.244l0.017-0.04l-0.069-0.081l-0.175-0.08l-0.058-0.058l-0.038-0.104l0.004-0.074l0.044-0.041
	l0.081-0.007l-0.103-0.171l0.029-0.224l0.109-0.212l0.146-0.14l0.396-0.163l0.206-0.037l0.042,0.091l0.07,0.052l0.115,0.103
	l0.065,0.036l0.021-0.009l0.101-0.017l0.008,0.007l0.024,0.009l0.034,0.082l0.027,0.009h0.048l0.148,0.042l0.076-0.006l0.056-0.033
	l0.223-0.174l0.096-0.097l0.032,0.004l0.049,0.016l0.037-0.004l-0.02-0.094l0.008-0.038l0.022-0.026l0.042-0.003l0.021,0.029
	l0.016,0.059l0.006,0.058l-0.006,0.022l0.073,0.004l0.076-0.035l0.059-0.046l0.022-0.026l0.047,0.082l0.046,0.03l0.055-0.015
	l0.075-0.052l-0.042-0.029l-0.026-0.032l-0.012-0.041l0.006-0.056l0.073,0.004l0.038-0.052l0.008-0.082l-0.024-0.09l-0.046-0.031
	h-0.206l-0.085-0.018l-0.003-0.003l0.044-0.025l0.077-0.151l0.085-0.104l0.024-0.074l0.114,0.024l0.101-0.055l0.045-0.085
	l-0.051-0.073l-0.044-0.013h-0.031l-0.027-0.014l-0.03-0.045l-0.003-0.056l0.011-0.08l0.024-0.074l0.027-0.043l0.07-0.06
	l0.142-0.191l0.046-0.091l0.021-0.218l0.04-0.1l0.102-0.021l0.087-0.238l0.042-0.08l0.18-0.169l0.023-0.079l0.042-0.036l0.166-0.37
	l-0.035-0.05l-0.037-0.022l-0.033-0.01l-0.02-0.013l-0.021-0.056l-0.017-0.105l-0.023-0.055l-0.176-0.185l-0.211-0.083l-0.194,0.045
	l-0.121,0.204l-0.122,0.308l-0.032,0.049l-0.057,0.067l-0.03,0.099l-0.042,0.201l-0.233-0.008l-0.287,0.092l-0.281,0.144
	l-0.213,0.156l-0.1,0.13l-0.063,0.046l-0.052-0.032l-0.055-0.062l-0.077-0.029l-0.157-0.013l-0.157,0.013l-0.105,0.061l-0.064,0.112
	l-0.027,0.162l-0.067-0.046l-0.035-0.031l-0.033-0.041l-0.023-0.063l0.004-0.101l-0.011-0.072l-0.021-0.039l-0.038-0.056
	l-0.031-0.044l-0.012,0.008l-0.009-0.072l0.006-0.011l0.02,0.01l0.026-0.006l0.132-0.065l-0.004-0.009l0.132-0.025l0.032,0.008
	l0.002-0.079l-0.037-0.078l-0.069-0.052l-0.089-0.003l0.024-0.094l0.1,0.022l0.115,0.075l0.073,0.064l0.03-0.017l-0.079-0.165
	l0.08-0.029l0.272,0.094l-0.006-0.049l0.007-0.028l0.056-0.059l-0.238-0.16l0.059-0.22l0.17-0.031l0.416,0.082l0.214-0.119
	l0.045-0.003l-0.008-0.097l0.021-0.108l-0.02-0.092l-0.116-0.06l-0.024,0.048l-0.012,0.012l-0.017-0.005l-0.045,0.002l0.014-0.02
	l0.005-0.003v-0.007l-0.002-0.028l-0.21,0.049l-0.207,0.09l0.077-0.169l-0.006-0.037l-0.067-0.043l-0.137-0.024l-0.047-0.03
	l-0.002-0.086l-0.063,0.022l-0.051,0.034l-0.022,0.046l0.015,0.064l-0.156,0.104l-0.108,0.262l-0.124,0.213l-0.204-0.043
	l0.071-0.148l0.012-0.02l-0.04-0.084l-0.016-0.044l-0.002-0.126l-0.03-0.19l0.001-0.081l0.066-0.196l0.092-0.094l0.277-0.149
	l0.034,0.166l0.08,0.041l0.1-0.036l0.1-0.06l0.047-0.059l0.021-0.077l0.01-0.072l0.009-0.035l0.063-0.039l0.034-0.041l0.016-0.055
	l0.006-0.083l-0.015-0.082l-0.029-0.044l-0.016-0.036l0.031-0.068l0.018,0.01l0.167-0.041l0.043,0.025l0.063-0.014l0.046-0.051
	l-0.012-0.09l-0.037-0.014l-0.171-0.036l-0.065-0.022l-0.01,0.062l-0.083-0.062l-0.045-0.027l-0.042-0.017l-0.137-0.023
	l-0.045-0.019l-0.073-0.065l0.019-0.035l0.177-0.073l0.472-0.272l0.031-0.031l0.02-0.039l0.005-0.073l-0.019-0.075l-0.041-0.061
	l-0.058-0.032l-0.028,0.055l-0.038,0.026l-0.041,0.012l-0.05-0.002l0.03-0.079l0.023-0.027l0.005-0.02l-0.028-0.065l-0.023-0.034
	l-0.104-0.066l-0.043,0.056l-0.042,0.021l-0.043-0.021l-0.04-0.063l-0.031,0.052l-0.039,0.037l-0.042,0.013l-0.046-0.012
	l0.037-0.098l0.068-0.048l0.072-0.036l0.05-0.071l0.008-0.108l-0.021-0.104l-0.044-0.05l-0.062,0.054l-0.056-0.045l-0.066-0.028
	l-0.05-0.042l-0.002-0.085l0.047-0.07l0.067-0.025l0.126,0.005l0.024,0.01l0.035,0.014l0.04,0.01l0.049-0.013l0.035-0.035
	l0.034-0.091l0.03-0.036l0.078-0.034l0.069-0.011l0.04-0.025l-0.011-0.077l0.091,0.035l0.073,0.074l0.074,0.062l0.095-0.011
	l0.13-0.082l0.045-0.02l0.052-0.007l0.096,0.006l0.049-0.009l0.016-0.025l0.011-0.039l0.004-0.039l-0.002-0.014l0.026-0.012
	l0.047,0.016l0.025-0.007l0.031-0.034l0.002-0.036l-0.027-0.02l-0.044,0.009l-0.02-0.018l-0.036-0.041l-0.043-0.043l-0.054-0.012
	l-0.043,0.023l-0.034,0.046l-0.044,0.099l-0.028-0.067l-0.031-0.025l-0.079-0.025l-0.021,0.002l-0.018,0.02l-0.017,0.011
	l-0.096-0.098l-0.055-0.027l-0.021-0.023l-0.022-0.014l-0.053-0.003l-0.042,0.014l-0.077,0.058l-0.039,0.02l-0.082-0.01
	l-0.077-0.042l-0.032-0.07l0.048-0.099l0.34-0.043l-0.055-0.047l-0.07-0.034l-0.065,0.005l-0.055,0.065l-0.007-0.039l-0.006-0.016
	l-0.003-0.013l0.011-0.029l-0.188-0.081l-0.066-0.066l0.014-0.116l0.098-0.007l0.268-0.201l0.106-0.054l0.057-0.008l0.113,0.012
	l0.101-0.04h0.046l0.099,0.04l-0.01,0.021l0.003,0.047l0.013,0.05l0.019,0.021l0.055-0.017l0.012-0.052l-0.014-0.066l-0.022-0.059
	l-0.076-0.081l-0.119-0.056l-0.129-0.021l-0.1,0.021l-0.018-0.036l0.001-0.024l-0.008-0.043l-0.003-0.032l-0.029,0.017l-0.066,0.094
	l-0.129,0.014l-0.117-0.092l-0.027-0.225l0.027-0.123l0.044-0.097l0.11-0.179l0.04-0.102l0.045-0.28l-0.037-0.05l-0.083-0.048
	l-0.049-0.049l0.066-0.073l0.114-0.056l0.029-0.026l0.01-0.04l-0.009-0.047l-0.002-0.047l0.025-0.034l0.09-0.203l-0.008-0.045
	l0.33,0.032l1.322,0.129l1.321,0.127l0.995,0.097l0.322,0.031l1.316,0.129l1.315,0.127l0.278,0.028l1.033,0.101l1.311,0.129
	l1.309,0.127l1.307,0.129l1.304,0.131l1.303,0.127l1.301,0.128l1.3,0.13l1.297,0.129l1.297,0.129l0.462,0.047l0.832,0.084
	l0.498,0.049l0.13,0.103l0.343,0.578l0.042,0.07l0.386,0.649l-0.081,0.055l-0.026,0.076l0.018,0.088l0.049,0.1l-0.085,0.058
	l-0.08,0.134l-0.062,0.16l-0.03,0.129l-0.002,0.064l0.004,0.077l0.016,0.072l0.033,0.057l0.051,0.022l0.082-0.031l0.042,0.032
	l0.021,0.105l0.01,0.133l0.047,0.069l0.215-0.139l0.104-0.046l0.112-0.022l0.108,0.003l0.097,0.038l0.071,0.067l0.228,0.307
	l0.095,0.091l0.106,0.067l0.346,0.081l0.543,0.131l0.542,0.13l0.542,0.129l0.541,0.129l0.539,0.13l0.541,0.128l0.498,0.12
	l0.042,0.012l0.54,0.127l0.539,0.13l0.537,0.129l0.539,0.131l0.538,0.129l0.537,0.129l0.538,0.13l0.537,0.129l0.533,0.129
	l0.046,0.019l0.094-0.017l0.093,0.141l0.048,0.196l-0.049,0.146l-0.097,0.146l0.122-0.008l0.073-0.03l0.054,0.01l0.062,0.117
	l0.041,0.124l0.022,0.107l0.005,0.105l-0.027,0.386l-0.032,0.102l-0.06-0.069l-0.029-0.119l-0.013-0.124l-0.027-0.116l-0.069-0.081
	l0.033,0.333l-0.03,0.142l-0.104,0.048l0.142,0.106l0.034,0.047l0.144,0.31l0.008,0.064l-0.021,0.042l-0.083,0.012l-0.032,0.043
	l-0.007,0.038l-0.001,0.133l0.022,0.082l0.064-0.041l0.119-0.154l0.037,0.083l0.104,0.104l0.029,0.048l-0.003,0.052l-0.103,0.281
	l-0.011,0.064v0.282l-0.04,0.332l0.001,0.049l0.053,0.021l0.031-0.072l0.029-0.148l0.055,0.053l0.079,0.807l-0.002,0.15
	l-0.022,0.139l-0.033,0.064l-0.041,0.061l-0.024,0.065l0.016,0.084l0.038,0.035l0.045,0.001l0.046,0.018l0.042,0.084l0.026,0.253
	l-0.004,0.398l-0.044,0.378l-0.104,0.196h0.076l0.016,0.13l0.1,0.259l-0.005,0.128l-0.022,0.119l-0.002,0.249l-0.028,0.239
	l0.016,0.137l0.034,0.137l0.141,0.354l0.003,0.064l-0.015,0.055l-0.007,0.062l0.002,0.061l0.005,0.021l0.031,0.153l0.001,0.134
	l0.015,0.139l0.058,0.129l0.031,0.025l0.088,0.048l0.035,0.026l0.129,0.185l0.041,0.045l0.039,0.018l0.132,0.023l0.101,0.032
	l0.021,0.029l0.101,0.197l0.042,0.136l0.015,0.135l-0.021,0.109l0.089,0.116l0.138,0.297l0.112,0.105l0.067,0.015l0.07,0.006
	l0.063,0.012l0.039,0.042l0.031,0.055l0.045,0.05l0.052,0.041l0.056,0.026l0.036,0.009l0.026-0.002l0.062-0.029l0.039-0.001
	l0.029,0.027l0.028,0.031l0.03,0.016l0.063-0.02l0.13-0.061l0.063,0.007l0.054-0.004l0.042-0.046l-0.022-0.042l-0.047,0.001
	l-0.089,0.006l-0.119-0.024l0.151-0.022h0.116l0.366,0.148l0.236,0.134l0.161,0.037l0.055,0.028l0.124,0.103l0.062,0.027
	l0.099,0.015l0.055,0.019l0.055,0.046l0.046,0.062l0.034,0.064l0.083,0.12l0.126,0.112l0.111,0.028l0.037-0.134l0.082,0.146
	l0.063,0.223l0.078,0.19l0.133,0.053l-0.042-0.097l-0.023-0.037l-0.038-0.035l0.086-0.038l0.078-0.004l0.166,0.022l0.079-0.016
	l0.145-0.059l0.072,0.007l0.079-0.007l0.167-0.092l0.045,0.013l0.048,0.064l0.136,0.086l0.102,0.14l0.354,0.225l0.028,0.029
	l0.016,0.055l-0.009,0.046l-0.013,0.039l0.002,0.042l0.175,0.322l0.051,0.146l-0.071,0.028l-0.019,0.094l0.022,0.164l-0.002,0.078
	l-0.032,0.073l-0.044,0.022l-0.052-0.031l-0.051-0.084l-0.13,0.26l-0.002,0.011l-0.013,0.077l0.012,0.109l0.022,0.092l0.012,0.089
	l-0.022,0.103l-0.039,0.086l-0.021,0.028l-0.036,0.025l-0.03,0.036l0.021,0.038l0.039,0.036l0.03,0.035l-0.004,0.074l-0.057,0.049
	l-0.074,0.032l-0.055,0.034l0.079,0.062l0.069,0.036l0.057,0.052l0.046,0.116l0.011,0.089l0.003,0.131l-0.009,0.124l-0.068,0.193
	l0.026,0.229l0.154,0.63l0.048,0.108l0.063,0.1l0.125,0.14l0.056,0.091l0.004,0.094l0.015,0.084l0.146,0.157l0.015,0.106
	l-0.092,0.381l0.124-0.109l0.046-0.185l-0.005-0.21l-0.03-0.192l0.097,0.031l0.083,0.043l0.038,0.073l-0.042,0.116l0.163-0.109
	l0.081-0.03l0.106,0.023l0.178,0.074l0.045,0.067l0.021,0.146l0.001,0.208l0.021,0.068l0.121,0.159l0.086,0.205l0.059,0.084
	l0.049-0.086l0.014-0.037l0.051,0.169l0.002,0.18l-0.039,0.348l0.038,0.553l-0.01,0.178h-0.038l-0.014,0.009l-0.01,0.017
	l-0.033,0.025l0.063,0.062l0.063,0.193l0.049,0.087l-0.077,0.001l0.016,0.042l0.013,0.114l-0.11-0.055l-0.05-0.013l-0.05,0.007
	l0.067,0.058l0.025,0.06l-0.014,0.063l-0.056,0.064l0.11,0.105l0.092,0.117l0.078,0.138l0.068,0.155l0.091,0.32l0.072,0.141
	l0.221,0.1l0.104,0.092l0.094,0.113l0.064,0.109l0.165,0.441l0.015,0.115l0.178-0.031l0.039,0.019l0.029,0.035l0.032,0.027
	l0.056-0.01l0.094-0.039l0.039,0.017l0.026,0.063l0.064,0.101l0.072,0.064l0.063,0.015l0.064-0.002l0.077,0.017l0.067,0.054
	l0.123,0.155l0.083,0.059l0.17,0.044l0.046,0.035l-0.056,0.052l-0.055,0.024l-0.037,0.003l-0.088-0.023l-0.014-0.006l-0.122-0.048
	l-0.143-0.081l-0.086-0.011l-0.08,0.059l-0.041,0.051l-0.023,0.022l-0.013,0.023l-0.032,0.196l0.08-0.006l0.259-0.171l-0.026,0.116
	l0.007,0.062l0.046,0.013l0.092-0.036l0.088-0.012l0.028,0.071l0.015,0.117l0.04,0.118l0.019,0.015l0.055,0.016l0.018,0.014
	l0.039,0.098l0.003,0.009l-0.004,0.064l0.004,0.021l0.015,0.008h0.025l0.026,0.004l0.022,0.026l0.007,0.058l-0.013,0.046
	l-0.004,0.047l0.032,0.053l0.064,0.066l0.017,0.04l0.003,0.062l0.057-0.05l0.06-0.082l0.053-0.089l0.03-0.073l0.053-0.033
	l0.091,0.035l0.304,0.18l0.136,0.111l0.084,0.148l-0.007,0.2l0.012,0.039l0.043,0.028l0.05,0.025l0.035,0.029l0.022,0.058
	l0.017,0.117l0.015,0.054l0.081,0.163l0.009,0.07l-0.025,0.119l-0.036,0.091l-0.036,0.031l-0.046,0.014l-0.068,0.047l-0.044,0.059
	l-0.004,0.059l0.03,0.071l0.053,0.093l0.031-0.044l0.048-0.036l0.09-0.053l-0.013-0.063l0.015-0.032l0.054,0.003l0.042,0.019
	l0.021,0.007l0.021-0.005l0.06-0.002l0.028,0.05l0.013,0.064l0.015,0.041l0.05,0.032l0.151,0.056l0.077,0.083l0.163,0.255
	l0.077,0.053l0.079,0.019l0.002,0.039l-0.022,0.051l0.006,0.049l0.044,0.043l0.036,0.024l0.086,0.038l0.047,0.043l0.025,0.112
	l0.08,0.078l-0.023,0.054l-0.075,0.085l-0.043,0.119l-0.003,0.055h0.044l0.176-0.096l0.034-0.013l0.029,0.03l0.09,0.12l0.049,0.039
	l0.098,0.022l0.049,0.021l0.053,0.043l0.088,0.132l0.008,0.122l-0.064,0.092l-0.136,0.05l0.065,0.05l0.17,0.046l0.022,0.043
	l-0.034,0.062l-0.124,0.152l-0.122,0.109l0.021,0.06l0.106,0.102l0.028,0.1l-0.005,0.089l-0.028,0.084l-0.044,0.087l0.104-0.081
	l0.096-0.394l0.096-0.036l0.075,0.008l0.128-0.079l0.138,0.06l0.062-0.022l0.063-0.036l0.064-0.019l0.149,0.041l0.468,0.373
	l0.123,0.291l0.097,0.135l0.021-0.084l-0.009-0.097l-0.035-0.09l-0.053-0.067l-0.079-0.083l-0.008-0.047l0.05-0.034l0.092-0.029
	l0.073-0.011l0.164-0.003l0.097-0.021l0.206-0.018l0.02-0.016h0.017l0.036,0.049l0.018,0.07l-0.004,0.084l0.016,0.082l0.069,0.067
	l0.031,0.041l-0.022,0.042l-0.034,0.045l-0.002,0.037l0.039,0.03l0.024-0.01l0.02-0.022l0.02-0.016l0.095,0.016l0.038-0.012v-0.048
	l-0.018-0.055l0.002-0.037l0.024-0.02l0.056-0.002l0.071,0.015l0.144,0.053l0.072,0.014l-0.021-0.046l-0.003-0.036v-0.034
	l-0.002-0.042l0.046,0.009l0.029-0.004l0.023-0.024l0.026-0.045l-0.086,0.016l-0.274,0.006l0.07-0.291l0.068-0.009l0.047,0.045
	l0.041,0.064l0.047,0.05l0.054,0.018l0.121,0.004l0.064,0.021l0.041,0.034l0.284,0.291l0.063,0.025l0.008-0.014l0.163-0.042
	l0.024-0.003l0.127-0.121l-0.018-0.111l-0.085-0.052l-0.071,0.059l-0.044-0.051l-0.002-0.053l0.031-0.047l0.053-0.037l0.048-0.003
	l0.035,0.03l0.037,0.045l0.043,0.034l0.074,0.071l-0.01,0.104l-0.044,0.115l-0.026,0.108l0.027-0.017l0.062-0.025l0.026-0.017
	l0.02,0.199l0.015,0.061l0.026,0.032l0.04,0.024l0.038,0.038l0.023,0.068l-0.014,0.184l-0.08,0.234l-0.11,0.211l-0.243,0.26
	l-0.113,0.229l-0.149,0.428l-0.036,0.166l-0.029,0.084l-0.104,0.113l-0.364,0.773l-0.065,0.092l-0.369,0.451l-0.308,0.569
	l-0.092,0.11l-0.666,0.558l-0.327,0.201l-0.065,0.067l-0.053,0.078l-0.552,1.215l-0.077,0.116l-0.096,0.093l-0.116,0.059
	l-0.107,0.009l-0.222-0.02l-0.113,0.029l-0.106,0.137l-0.138,0.111l-0.57,0.291l-0.134,0.115l-0.069,0.173l-0.052,0.1l-0.082,0.071
	l-0.041,0.072l-0.098,0.275l-0.061,0.087l-0.05,0.022l-0.104,0.022l-0.055,0.021l-0.043,0.035l-0.069,0.092l-0.114,0.104
	l-0.043,0.104l-0.041,0.189l-0.295,0.545l-0.048,0.206h-0.003l-0.16-0.02l-0.384,0.079l-0.188-0.01l-0.355-0.159l-0.206-0.042
	l-0.213,0.067l-0.038,0.034l-0.077,0.096l-0.046,0.035l-0.059,0.01l-0.114-0.025l-0.048,0.004l-0.018-0.001l-0.041-0.033
	l-0.014-0.009l-0.025,0.014l-0.018,0.022l-0.007,0.022l0.003,0.007l-0.034,0.016l-0.099,0.049l-0.228,0.176l-0.021,0.068
	l-0.033,0.03l-0.172,0.103l-0.063,0.058l-0.2,0.313l-0.012,0.058l0.019,0.078l0.026,0.257l-0.016,0.08l0.043,0.087l-0.018,0.26
	l0.022,0.121l0.045,0.058l0.052,0.047l0.032,0.057l-0.008,0.082l-0.031,0.083l-0.061,0.116l-0.249,0.315l-0.119,0.271l-0.059,0.094
	l-0.084,0.065l-0.136,0.07l-0.085,0.068l-0.117,0.172l-0.079,0.067l-0.042,0.054l-0.009,0.077l0.005,0.079l-0.005,0.063l-0.02,0.053
	l-0.021,0.032l-0.075,0.058l-0.099,0.05l-0.24,0.043l-0.043-0.002l-0.114-0.052l-0.061-0.001l-0.039,0.023l-0.025,0.036
	l-0.022,0.041l-0.033,0.043l-0.146,0.099l-0.196,0.072l-0.401,0.096l-0.186-0.004l-0.209-0.063l-0.186-0.104l-0.114-0.123
	l-0.049,0.079l-0.024,0.052l-0.031,0.041l-0.378,0.245l-0.069,0.019l-0.139-0.021l-0.087,0.035l-0.051-0.001l-0.061,0.064
	l-0.084,0.356l-0.035,0.257l-0.021,0.061l-0.037,0.054l-0.128,0.149l-0.024,0.06l-0.01,0.044l-0.021,0.037l-0.108,0.073
	l-0.053,0.058l-0.247,0.186l-0.077,0.03l-0.132-0.005l-0.028,0.003l-0.038-0.011l-0.074-0.102l-0.045-0.01l-0.495,0.26l-0.018,0.021
	l-0.011,0.034l-0.02,0.037l-0.124,0.092l-0.133,0.131l-0.06,0.04l-0.05,0.008l-0.085-0.01l-0.056,0.017l-0.161,0.124l-0.064-0.012
	l-0.076-0.068l-0.057-0.093l-0.004-0.087l-0.069-0.081l-0.059-0.104l-0.062-0.08l-0.086-0.001l-0.042,0.011l-0.04-0.01l-0.042-0.018
	l-0.05-0.015l-0.05,0.003l-0.105,0.021l-0.049,0.002l-0.202-0.026l-0.107,0.003l-0.06,0.035l-0.07,0.07l-0.1-0.005l-0.078-0.072
	l-0.007-0.128l-0.118-0.063l-0.069-0.002l-0.159,0.087l-0.031,0.005l-0.145,0.007l-0.19,0.055l-0.037,0.072l-0.05,0.257
	l-0.046,0.104l-0.193,0.155l-0.056,0.093l0.08,0.089l-0.035,0.064l-0.018,0.089l-0.007,0.086l0.015,0.114l-0.03,0.053l-0.198,0.188
	l-0.004,0.001l-0.072,0.116l-0.078,0.016l-0.081,0.006l-0.046,0.027l0.032,0.086l-0.055,0.008l-0.033-0.017l-0.025-0.027
	l-0.038-0.025l-0.052-0.012l-0.021,0.007l-0.012,0.02l-0.023,0.024l0.001,0.004l-0.045,0.057l-0.018,0.011l-0.106,0.049
	l-0.046,0.007l-0.041-0.017l-0.02-0.022l-0.174,0.099l-1.767,0.906l-0.025-0.038l-0.112-0.249l-0.041-0.064l-0.047-0.045
	l-0.039-0.034l-0.022-0.023l-0.034-0.025l-0.056-0.019l-0.063-0.027l-0.095-0.112l-0.112-0.03l-0.033-0.028l-0.076-0.081
	l-0.115-0.038l-0.129-0.007l-0.213,0.026l-0.037,0.014l-0.026,0.029l-0.03,0.082l-0.025,0.018l-0.044-0.022l-0.182-0.146l0.02-0.028
	l0.021-0.052l0.018-0.028l-0.013-0.03l-0.087-0.007l-0.086-0.041l-0.08-0.074l-0.063-0.104l-0.03-0.038l-0.043-0.023l-0.047-0.008
	l-0.085,0.019l-0.034-0.019l-0.032-0.036l-0.044-0.035l-0.288-0.088l-0.07-0.068l-0.066-0.111l-0.146-0.168l-0.063-0.089
	l-0.033-0.132l0.028-0.167l0.014-0.077l-0.013-0.239l-0.013-0.054l-0.098-0.216l-0.083-0.332l-0.072-0.117l0.007-0.055l0.032-0.071
	l-0.04-0.056l-0.04-0.022l-0.038-0.008l-0.031-0.018l-0.016-0.019l-0.048-0.029l0.009-0.133l-0.051-0.104l-0.084-0.076l-0.147-0.074
	l-0.023-0.022l-0.04-0.095l-0.037-0.051l-0.018,0.004l-0.016,0.002l-0.036,0.022h-0.044l-0.06-0.037l-0.058-0.049l-0.05-0.058
	l-0.021-0.035l-0.015-0.024l-0.02-0.067l-0.01-0.129l-0.013-0.052l-0.059-0.081l-0.152-0.111l-0.067-0.095l-0.154-0.577
	l-0.023-0.054l-0.035-0.055l-0.085-0.088l-0.158-0.238l-0.306-0.285l-0.107-0.15l-0.014-0.052l-0.006-0.116l-0.017-0.061l-0.03-0.05
	l-0.126-0.142l-0.223-0.138l-0.094-0.075l-0.699-0.373l-0.015-0.017l-0.116-0.043l-0.024-0.002l-0.146-0.062l-0.042-0.025
	l-0.063-0.081l-0.051-0.083l-0.057-0.05l-0.151,0.016l-0.646-0.276h-0.003l0,0l-0.15,0.001l-0.116-0.052l-0.042-0.004l-0.236-0.123
	l-0.077-0.006l-0.066-0.032l-0.007-0.001l-0.179-0.03l-0.177,0.019l-0.036,0.109l-0.021,0.097l-0.058,0.148l-0.006,0.157
	l0.181,0.178l0.032,0.09l0.038,0.165l0.038,0.091l0.015,0.071l-0.013,0.07l-0.04,0.081l0.016,0.032l-0.03,0.125l-0.068-0.014
	l-0.092-0.073l-0.148-0.044l-0.158-0.017l-0.121,0.007l-0.149-0.022l-0.166-0.066l-0.155-0.02l-0.118,0.117l-0.078,0.133
	l-0.101,0.074l-0.002,0.002l-0.123,0.037l-0.15,0.024l-0.152,0.061l-0.081,0.104l-0.069,0.122l-0.115,0.107l-0.183,0.082
	l-0.096,0.017l-0.089-0.019l-0.095-0.063l-0.159-0.144l-0.117-0.042l-0.331-0.063l-0.091,0.01l-0.033,0.029l-0.043,0.087
	l-0.031,0.033l-0.053,0.021l-0.103,0.017l-0.06,0.033l-0.021,0.031l-0.033,0.087l-0.03,0.036l-0.021-0.001l-0.15,0.011l-0.129,0.032
	l-0.046,0.004l-0.371-0.089l-0.327-0.125l-0.098-0.01l-0.081,0.049l-0.059,0.091l-0.027,0.115l-0.089-0.011l-0.382,0.034
	l-0.268-0.04l-0.034,0.008l-0.07,0.05l-0.037,0.004l-0.042-0.022l-0.048-0.065l-0.033-0.028l-0.094-0.042l-0.069-0.003l-0.317,0.137
	l-0.409,0.108l-0.167,0.071l-0.078-0.013l-0.112-0.072l-0.189-0.179l-0.079-0.042l-0.211-0.033l-0.195,0.045l-0.547,0.316
	l-0.096,0.035l-0.102,0.013l-0.119-0.025l-0.243-0.096l-0.051-0.002l-0.063-0.003l-0.039,0.018l-0.071,0.067l-0.037,0.027
	l-0.051,0.008l-0.162-0.014l-0.117,0.042l-0.052,0.069l-0.035,0.086l-0.068,0.091l-0.203,0.049l-0.181-0.144l-0.117-0.241
	l-0.017-0.244l-0.729,0.151l-0.095,0.063l-0.101,0.169l-0.069,0.084l-0.085,0.047l-0.088,0.007l-0.584-0.135l-0.172-0.095
	l-0.135-0.19l-0.089-0.184l-0.091-0.109l-0.125-0.034l-0.189,0.037l-0.092-0.012l-0.151-0.069l-0.086-0.003l-0.065,0.029
	l-0.055,0.039l-0.058,0.023l-0.078-0.011l-0.031-0.026l-0.058-0.082l-0.031-0.021l-0.051-0.006l-0.01,0.015l-0.001,0.026
	l-0.024,0.029l-0.043,0.039l-0.176,0.212l-0.02,0.042l-0.028,0.033l-0.06,0.021l-0.065-0.015l-0.142-0.079l-0.069-0.012
	l-0.102,0.058l-0.048,0.077l-0.01-0.009l-0.057-0.146l-0.04-0.051l-0.057,0.003l-0.125-0.035l-0.095-0.18l-0.105-0.33l-0.156-0.115
	l-0.344-0.042l-0.143-0.091l-0.01,0.017l-0.006,0.003v0.006l0.005,0.026l-0.082-0.035l-0.121-0.117l-0.079-0.037h-0.077
	l-0.067,0.008l-0.062-0.018l-0.06-0.078l-0.02-0.046l-0.007-0.021l-0.007-0.019l-0.025-0.03l-0.02-0.013l-0.032-0.014l-0.035-0.022
	l-0.067-0.086l-0.047-0.032l-0.038-0.046l-0.02-0.08l0.032-0.017l0.014,0.017l0.044,0.038l-0.021-0.097l-0.059-0.087l-0.074-0.071
	l-0.069-0.052l-0.046,0.087l-0.009,0.029l-0.086-0.058l-0.076-0.085l-0.117-0.201l-0.046-0.053l-0.168-0.11l-0.078-0.042
	l-0.137-0.035l-0.063-0.031l-0.118-0.155l-0.076-0.043l-0.158-0.053l-0.617-0.634l-0.063-0.005l-0.066-0.05l-0.064-0.066
	l-0.056-0.046l-0.064-0.016l-0.146,0.003l-0.066-0.011l-0.066-0.054l-0.069-0.078l-0.073-0.057l-0.089,0.008l-0.052-0.05
	l-0.343-0.249l-0.018-0.209l-0.025-0.107l-0.069-0.016l-0.021-0.049l-0.062-0.267l-0.033-0.101l-0.125-0.178l-0.41-0.355
	l-0.137-0.153l-0.036-0.013l-0.07,0.009l-0.034-0.046l-0.015-0.061l-0.005-0.033l-0.062-0.08l-0.09-0.064l-0.094-0.041l-0.08-0.007
	v-0.075l0.025-0.008l0.039,0.021l0.039,0.004l0.119-0.066l0.038-0.074l-0.043-0.101l-0.075-0.106l-0.052-0.088l0.002-0.044
	l0.028-0.09l-0.002-0.033l-0.103-0.206l-0.104-0.072l-0.296-0.04l-0.064-0.052l-0.139-0.021l-0.471-0.21l-0.173-0.157l-0.096-0.107
	l-0.021-0.06l-0.285-0.151l-0.23-0.211l-0.061-0.021l-0.088,0.016l-0.105-0.019l-0.69-0.242l-0.098-0.075l-0.074-0.083l-0.105-0.042
	l-0.115-0.008l-0.106,0.023l-0.191,0.115l-0.152,0.165l-0.223,0.397l-0.063-0.116l-0.088-0.042l-0.199-0.004l-0.313-0.089
	l-0.669-0.34l-0.101-0.081l-0.053-0.028l-0.119,0.023l-0.065-0.014l-0.047-0.041l-0.006-0.063l0.004-0.119l-0.044-0.126
	l-0.204-0.323l-0.156-0.328l-0.022-0.119l0.006-0.168l0.029-0.162l0.046-0.103l0.044-0.02l0.102,0.013l0.055-0.013l0.022-0.038
	l0.125-0.471l0.064-0.12l0.091-0.083l-0.052-0.097l-0.067-0.206l-0.05-0.102l-0.162-0.211l-1.089-0.948l-0.152-0.082l-0.313-0.106
	l-0.164-0.093l-0.123-0.146l-0.043-0.122l-0.026-0.143l-0.006-0.145l0.011-0.122l-0.021-0.102l-0.062-0.137l-0.07-0.121
	l-0.044-0.058l0.024-0.032l0.008-0.017l0.016-0.006l0.043,0.004l-0.017-0.078l-0.083-0.088l-0.004-0.075l0.009-0.065l-0.016-0.033
	l-0.031-0.031l-0.037-0.055l-0.022-0.011l-0.025,0.017l-0.024,0.007l-0.016-0.032l0.003-0.032l0.016-0.014l0.017-0.012l0.007-0.013
	v-0.037l0.007-0.029l0.001-0.041l-0.021-0.064l-0.063-0.119l-0.09-0.105l-0.103-0.084l-0.189-0.102l-0.076-0.079l-0.003-0.052
	l-0.006-0.037l-0.017-0.03l-0.035-0.015l-0.026,0.01l-0.022,0.015l-0.022,0.002l-0.129-0.073l-0.065-0.02l-0.101,0.02l-0.146,0.007
	l-0.041-0.001l-0.06-0.029l-0.04-0.031l-0.047-0.023l-0.074-0.004l-0.053,0.008l-0.142,0.061l-0.096,0.013l-0.019-0.035l0.055-0.197
	l-0.015-0.035l-0.045-0.025l-0.055-0.025l-0.044-0.03l-0.033-0.049l-0.19-0.373l-0.471-1.429l-0.139-0.322l0.168-0.042l0.188-0.085
	l0.024-0.002l0.026-0.075l-0.017-0.066l-0.032-0.069l-0.023-0.084l0.013-0.047l0.053-0.085v-0.058l-0.034-0.091l-0.003-0.022
	l0.046-0.093l0.051-0.02h0.063l0.081-0.026l0.03-0.038l0.168-0.264l0.066-0.268l0.101-0.188l0.022-0.067l0.063-0.123l0.014-0.115
	l-0.053-0.387l0.007-0.104l0.148-0.471l0.033-0.27l-0.006-0.274l-0.006-0.04l-0.031-0.238l-0.119-0.428l-0.002-0.14l0.088-0.418
	l-0.01-0.452l0.069-0.15l0.238-0.034l-0.033-0.103l-0.056-0.076l-0.067-0.066l-0.064-0.082l-0.047-0.101v-0.004l-0.018-0.115
	l0.007-0.451l-0.018-0.118l-0.049-0.1l-0.064-0.102l-0.008-0.078l0.07-0.18v-0.027l-0.016-0.073l0.003-0.022l0.067-0.055l0.01-0.004
	l0.008,0.007l0.081-0.056l-0.002-0.015l-0.016-0.05v-0.019l0.103-0.101l0.023-0.031l0.017-0.057l0.017-0.117l0.149-0.236
	l0.049-0.204l-0.067-0.147l-0.18-0.011l-0.041-0.005l0.021-0.166l0.037-0.144l0.062-0.129l0.094-0.126l0.052-0.039l0.028-0.055
	l0.004-0.064l-0.018-0.072l0.153,0.002l0.115-0.086l0.064-0.15l-0.006-0.185l-0.018-0.029l-0.068-0.086l-0.023-0.039l0.009-0.145
	l-0.025-0.152l-0.027-0.073l-0.038-0.065l-0.039-0.028l-0.084-0.018l-0.035-0.033l-0.013-0.033l-0.016-0.084l-0.015-0.029
	l-0.082-0.051l-0.174-0.062l-0.063-0.068l-0.014-0.104l0.041-0.273l-0.001-0.036l-0.002-0.083l-0.106,0.059l-0.175,0.19
	l-0.098,0.072l-0.07,0.011l-0.146-0.022l-0.066,0.007l-0.054,0.035l-0.034,0.048l-0.04,0.041l-0.067,0.018l-0.023-0.017
	l-0.059-0.083l-0.028-0.026l-0.026-0.004l-0.075,0.004l-0.399-0.046l-0.04,0.014l-0.05,0.063l-0.024,0.085l-0.014,0.199
	l-0.016,0.025l-0.002-0.003l-0.054-0.058l-0.063-0.025l-0.048-0.026l-0.01-0.073l-0.096,0.02l-0.107-0.039l-0.202-0.112
	l-0.058-0.088l-0.009-0.151l0.016-0.217l-0.068-0.141l-0.028-0.092v-0.093l0.092-0.479l-0.023-0.121l-0.08,0.105l-0.116,0.182
	l-0.076,0.093l-0.088,0.049l-0.08-0.03l-0.05-0.145l0.002-0.09l0.045-0.185l0.009-0.094l-0.011-0.069l-0.052-0.196l-0.085-0.604
	l0.001-0.153l0.034-0.313l0.056-0.113l0.104-0.041l0.115-0.021l0.092-0.061l0.024-0.081l-0.011-0.187l0.027-0.078l0.054-0.043
	l0.058-0.009l0.308,0.007l0.044-0.01l0.034-0.036l0.021-0.042l0.054-0.055l0.045-0.09l0.057-0.084l0.032-0.086l-0.005-0.131
	l-0.038-0.124l-0.209-0.368l-0.083-0.268l-0.154-0.709l-0.12-0.14l-0.089-0.054l-0.111-0.046l-0.107-0.003l-0.073,0.07l-0.104-0.358
	l-0.088-0.141l-0.15,0.052v-0.059l0.011-0.051l0.038-0.114l-0.086-0.078l-0.018-0.103l0.005-0.11l-0.022-0.108l-0.149-0.206
	l-0.046-0.049l-0.024-0.184l-0.038-0.045l-0.078-0.055l-0.025-0.023l-0.028-0.061l-0.164-0.476l-0.068-0.148l-0.093-0.1
	l-0.083,0.111l-0.106-0.026l-0.107-0.103l-0.146-0.178l-0.042-0.03l-0.094-0.044l-0.139-0.081l-0.063-0.058l0.008-0.047l-0.02-0.074
	l-0.065-0.151l-0.101-0.134l-0.122-0.017l-0.098,0.036l-0.372,0.035l-0.058-0.007l-0.11-0.042l-0.068-0.016l-0.17,0.009
	l-0.087-0.021l-0.07-0.077l-0.017-0.043l-0.006-0.041l-0.002-0.029l-0.004-0.021l-0.033-0.041l-0.077-0.045l-0.085-0.099
	l-0.17-0.124l-0.07-0.067l-0.092-0.136l-0.037-0.023l-0.082-0.019l-0.015,0.019l-0.021,0.036l-0.032,0.028l-0.057-0.01l-0.025-0.031
	l-0.005-0.04l0.002-0.042l-0.008-0.04l-0.054-0.068l-0.097-0.018l-0.046-0.054l-0.018-0.073l0.003-0.082l0.013-0.067l0.002-0.01
	l0.019-0.059l0.06-0.026l0.049,0.008l0.04,0.019h0.033l0.053-0.037l0.073-0.074l0.218-0.159l0.106-0.044l0.132-0.021l0.028-0.094
	l0.055-0.31l0.046-0.081l0.14-0.168l0.116-0.212L1241.307,719.617z"/></svg>