<?xml version="1.0" encoding="utf-8"?>
<!-- Generator: Adobe Illustrator 15.0.0, SVG Export Plug-In . SVG Version: 6.00 Build 0)  -->
<!DOCTYPE svg PUBLIC "-//W3C//DTD SVG 1.1//EN" "http://www.w3.org/Graphics/SVG/1.1/DTD/svg11.dtd">
<svg version="1.1" id="Ebene_1" xmlns="http://www.w3.org/2000/svg" xmlns:xlink="http://www.w3.org/1999/xlink" x="0px" y="0px"
	 width="1920px" height="1080px" viewBox="0 0 1920 1080" enable-background="new 0 0 1920 1080" xml:space="preserve">

<path fill="#F4E0B6" stroke="#FFFFFF" d="M732.542,684.391l-0.354,0.243l-0.372,0.18l-0.068-0.06l-0.096,0.063l-0.096,0.127
	l-0.066,0.136l-0.068,0.328l-0.056,0.148l-0.179,0.048l-0.067,0.132l-0.031,0.094l-0.092,0.281l-0.012,0.075l-0.004,0.076
	l0.009,0.162l0.089,0.208l-0.194,0.078l-0.179,0.213l-0.146,0.273l-0.096,0.255l-0.077-0.072l-0.117-0.021l-0.128,0.013l-0.11,0.028
	l-0.102,0.015l-0.114-0.014l-0.213-0.053l-0.044-0.021l-0.062-0.024l-0.229-0.189l-0.096-0.042l-0.293-0.09l-0.309-0.214
	l-0.371-0.167l-0.003-0.003l-0.149-0.123l-0.044-0.013l-0.146-0.013l-0.048-0.021l-0.092-0.024l-0.046-0.018l-0.052-0.043
	l-0.028-0.047l-0.022-0.052l-0.03-0.058l-0.064-0.068l-0.079-0.06l-0.356-0.201l-0.105-0.042l-0.097-0.003l-0.088,0.02l-0.109,0.009
	l-0.104-0.012l-0.072-0.041l-0.053-0.116l0.074-0.04l0.175-0.004l0.029-0.006l0.054,0.01l0.149,0.048l0.043-0.015l0.08-0.047
	l0.094-0.019l0.089,0.001l0.375,0.073h0.024l0.204,0.004l0.188-0.052l0.003-0.001l0.072-0.144l0.069-0.001l0.063,0.033l0.19,0.161
	l0.167,0.084l0.012,0.006l0.047,0.023l0.058,0.008l0.081-0.019l0.083-0.036l0.064-0.042l0.064-0.086l0.013-0.038l0.017-0.047
	l0.02-0.087l0.036-0.094l0.005-0.029l-0.018-0.055l-0.002-0.028l0.012-0.025l0.015-0.001l0.016,0.005l0.014-0.01l0.016-0.039
	l0.024-0.104l0.001-0.041l0.027-0.072l0.072-0.078l0.132-0.114l0.121-0.162l0.098-0.182l0.049-0.193l-0.024-0.196l0.045-0.012
	l-0.098-0.217l-0.06-0.088l-0.085-0.126l-0.077-0.069l-0.201-0.134l-0.021-0.024l-0.006-0.035l0.003-0.068l0.3-0.045l0.069,0.004
	l0.159,0.111l0.215,0.056l0.102,0.061l0.017,0.01l0.065,0.003l0.056-0.029l0.031-0.008l-0.009,0.069l0.031,0.018l0.009-0.015
	l0.024-0.05l0.025,0.016l-0.009,0.024v0.017l0.004,0.015l0.002,0.024l-0.049,0.017l0.039,0.012l0.035-0.009l0.027-0.014l0.017-0.005
	l0.08,0.041l0.006,0.007l0.052-0.016l0.131-0.058l0.039-0.01l0.061,0.027l0.015,0.005l0.202,0.151l0.475,0.27l0.05-0.012l0.1-0.02
	l0.255,0.102l0.093,0.007l0.568,0.23L732.542,684.391z M735.339,682.917l-0.056,0.117l-0.087,0.133l-0.083,0.084l-0.04-0.037
	l-0.025-0.015l-0.062,0.057l-0.04-0.013l-0.033-0.038l-0.04-0.021l-0.019,0.015l-0.109,0.058l-0.017-0.004l-0.128,0.013l-0.044,0.01
	l-0.061,0.006l-0.051-0.03l-0.044-0.039l-0.038-0.022l-0.32,0.002l-0.083-0.021l-0.166,0.044l-0.085-0.007l0.01-0.09h-0.08
	l-0.05-0.042l-0.011-0.064l0.046-0.064h0.045l0.062,0.02l0.065,0.007l0.055-0.048l0.071-0.036l0.478-0.062l0.116-0.039l0.061-0.012
	l0.066-0.001l0.164,0.02l0.13,0.036l0.063-0.004l0.055,0.019l0.043,0.078l0.033,0.013l0.13-0.06l0.063-0.011L735.339,682.917z"/></svg>