<?xml version="1.0" encoding="utf-8"?>
<!-- Generator: Adobe Illustrator 15.0.0, SVG Export Plug-In . SVG Version: 6.00 Build 0)  -->
<!DOCTYPE svg PUBLIC "-//W3C//DTD SVG 1.1//EN" "http://www.w3.org/Graphics/SVG/1.1/DTD/svg11.dtd">
<svg version="1.1" id="Ebene_1" xmlns="http://www.w3.org/2000/svg" xmlns:xlink="http://www.w3.org/1999/xlink" x="0px" y="0px"
	 width="1920px" height="1080px" viewBox="0 0 1920 1080" enable-background="new 0 0 1920 1080" xml:space="preserve">

<path fill="#F4E0B6" stroke="#FFFFFF" d="M1353.847,326.413l0.066-0.021l0.048-0.02l0.15-0.024l0.018-0.009l0.031-0.033l0.021-0.011
	l0.025,0.003l0.054,0.021l0.029-0.003l0.074-0.052l0.06-0.067l0.064-0.054l0.096-0.015l0.085-0.072l0.154-0.239l0.329-0.266
	l0.093-0.124l0.04-0.035l0.053-0.021l0.118-0.027l0.055-0.022l0.077-0.079l0.07-0.099l0.063-0.057l0.056,0.045l0.013,0.014
	l0.013,0.011l0.018,0.01l0.017,0.006l0.179-0.027l0.1-0.15l0.079-0.181l0.123-0.117l0.35-0.103l0.193-0.017l0.271,0.055l0.107,0.005
	l0.106-0.008l0.075-0.019l0.049-0.026l0.009-0.01l-0.009-0.019l0.015-0.227l-0.008-0.047l-0.079-0.144l-0.116-0.112l-0.146-0.07
	l-0.372-0.058l-0.066-0.083l0.074-0.076l0.215-0.011l0.185,0.036l0.091-0.002l0.06-0.044v-0.075l-0.112-0.327l-0.015-0.025
	l0.011-0.022l0.063-0.026l0.052-0.011l0.054-0.002l0.318,0.043h0.115l0.104-0.03l0.014-0.001h0.014l0.013,0.002l0.014,0.005
	l0.077,0.096l0.189,0.186l0.079,0.103l0.31,0.234l-0.026-0.068l-0.049-0.094l-0.033-0.087l0.017-0.059l0.053,0.012l0.223,0.171
	l0.095,0.03l0.213,0.03l0.077,0.025l0.049,0.06l0.026,0.15l0.05,0.077l0.086,0.06l0.022-0.031l-0.003-0.082l0.011-0.095l0.031-0.061
	l0.044-0.051l0.054-0.035l0.058-0.016l0.041,0.01l0.091,0.049l0.045,0.005l0.048-0.021l0.012-0.028l0.004-0.035l0.031-0.041
	l0.082-0.038l0.004-0.001l0.182-0.019l0.085-0.02l0.043-0.014l0.034-0.017l0.018-0.033l-0.003-0.063l0.056-0.102l0.084-0.056
	l0.218-0.071l0.311-0.098l0.144-0.063l0.166-0.104l0.068-0.056l0.023-0.025l0.023-0.043l0.018-0.076l0.015-0.042l0.022-0.034
	l0.048-0.054l0.018-0.04l0.005-0.05l-0.007-0.032l-0.013-0.056V322.5l0.025-0.068l0.15-0.227l0.051-0.114l0.01-0.045l0.002-0.023
	l-0.023-0.113l-0.002-0.008l-0.044-0.094l-0.026-0.033l-0.029-0.018l-0.01-0.023l0.027-0.057l0.058-0.046l0.163-0.061l0.063-0.039
	l0.027-0.03l0.022-0.032l0.014-0.036l0.006-0.044l0,0l0,0l0,0l0.077-0.259l0.056-0.078l0.197-0.145l0.092-0.084l0.02-0.011
	l0.014-0.018l0.011-0.046l-0.002-0.039l-0.015-0.054l-0.021-0.05l-0.022-0.027l-0.038-0.003l-0.093,0.034h-0.046l-0.06-0.028
	l-0.016-0.029l-0.003-0.038l-0.015-0.055l-0.051-0.093l-0.031-0.021l-0.046,0.009l-0.096-0.001l-0.075-0.024l-0.092-0.047
	l-0.084-0.055l-0.048-0.048l-0.014-0.049l0.019-0.085l-0.001-0.044l-0.019-0.041l-0.054-0.07l-0.021-0.037l-0.081-0.327
	l-0.034-0.091l-0.009-0.044l0.006-0.05l-0.016-0.159l-0.224-0.224v-0.155l0.02-0.026l0.054-0.06l0.021-0.034l0.01-0.04l0.009-0.097
	l0.011-0.044l0.055-0.118l0.022-0.03l0.038-0.021l0.1-0.034l0.024-0.014v-0.03l-0.021-0.1l-0.001-0.04l0.016-0.038l0.024-0.039
	l0.03-0.036l0.03-0.029l0.073-0.043l0.149-0.053l0.072-0.049l0.028-0.033l0.03-0.064l0.025-0.031l0.036-0.02l0.084-0.027
	l0.036-0.027l0.033-0.084l0.004-0.098l0.017-0.086l0.068-0.051l0.149-0.025l0.08-0.064l0.124-0.209l0.101-0.235l0.07-0.055
	l0.018,0.007l0.109,0.042l0.371,0.319l0.07,0.102l0.028,0.111l-0.028,0.11l-0.094,0.098l0.178,0.11v0.001l0.157,0.266l0.086,0.038
	l0.098-0.128l0.058-0.17l0.027-0.618l0.037-0.055l0.147-0.084l0.056-0.063l0.076-0.157l0.055-0.058l0.038-0.011l0.055-0.008
	l0.055-0.001l0.042,0.007l0.062,0.036l0.009,0.035l-0.005,0.035l0.026,0.04l0.062,0.023l0.095,0.016l0.095,0.006l0.063-0.011
	l0.085-0.138l-0.027-0.188l-0.054-0.202l0.002-0.175l0.238-0.361l0.035-0.001l0.05,0.03l0.105,0.004l0.093-0.048l0.122-0.155
	l0.075-0.024l0.018,0.016l0.01,0.06l0.011,0.017l0.028,0.004l0.041-0.007h0.089l0.058-0.007l0.058-0.002l0.063,0.022l0.015,0.019
	l0.036,0.047l0.005,0.058l-0.022,0.126l0.008,0.083l0.021,0.022l0.041,0.012l0.063,0.048l0.071,0.104l0.129,0.252l0.102,0.093
	l0.086,0.036l0.026-0.02l0.016-0.126l0.035-0.079l0.027-0.03l0.043,0.003l0.078,0.017l0.146,0.059l0.06,0.093l0.043,0.111
	l0.092,0.114l0.021,0.085l0.003,0.06l0.013,0.055l0.046,0.074l0.06,0.063l0.061,0.042l0.369,0.177l0.048,0.044l0.002,0.04
	l-0.05,0.07l-0.013,0.037l0.011,0.04l0.042,0.072l0.015,0.039l0.007,0.103l-0.022,0.072l-0.168,0.23l-0.057,0.104l-0.027,0.034
	l-0.067,0.054l-0.062,0.035l-0.044,0.046l-0.016,0.086l0.016,0.082l0.12,0.217l-0.143,0.064l-0.063,0.146l-0.055,0.051l0.027,0.129
	l0.039,0.188l-0.006,0.094l0.021,0.025l0.03,0.033l0.068,0.04l0.026,0.039l0.008,0.09l-0.034,0.079l-0.125,0.196l-0.018,0.048
	l0.016,0.042l0.072,0.034l0.06-0.004l0.253-0.059l0.071-0.042l0.093-0.128l0.046-0.044l0.079-0.02l0.082,0.003l0.078-0.005
	l0.067-0.043l0.001,0.001v-0.001l0,0l0.055,0.025l0.019,0.04l0.008,0.047l0.024,0.047l0.049,0.034l0.108,0.03l0.047,0.021
	l0.064,0.041l0.002,0.002l-0.019,0.013l0.003,0.064l0.032,0.108l0.046,0.105l0.017,0.095l0.042,0.056l0.129,0.102l0.049,0.073
	l0.06,0.166l0.043,0.063l0.079,0.046l0.024-0.042l0.004-0.08l0.014-0.068l0.116-0.045l0.035-0.019l0.024-0.028l0.067-0.104
	l0.105-0.118v-0.006l-0.034-0.097l0.001-0.092l0.027-0.087l0.257-0.46l0.136-0.162l0.049-0.04l0.096-0.005l0.086,0.009l0.042-0.034
	l-0.031-0.132l0.028-0.084v-0.002l0.055-0.058l0.064-0.049l0.062-0.063l0.044-0.079l0.029-0.072l0.039-0.067l0.074-0.066
	l0.204-0.104l0.047-0.049l0.023-0.076l-0.007-0.138l0.027-0.08l0.051-0.068l0.059-0.047l0.244-0.126l0.053-0.046l0.092-0.138
	l0.054-0.058l0.133-0.106l0.051-0.061l0.016-0.043l0.013-0.083l0.02-0.042l0.026-0.021l0.084-0.042l0.032-0.031l0.022-0.049
	l0.037-0.177l0.064-0.164l0.01-0.06l-0.005-0.254l0.042-0.112l0.121-0.032l0.051-0.04l0.025-0.075l0.003-0.086l-0.018-0.076
	l0.021-0.07l0.146-0.207l0.045-0.102v-0.054l-0.012-0.053l-0.005-0.052l0.021-0.053l0.223-0.103l0.073-0.088l0.041-0.025
	l0.059,0.006l0.017,0.001l0.078,0.04l0.004,0.045l-0.021,0.049l0.004,0.055l0.083,0.072l0.138,0.072l0.261,0.093l0.196,0.043
	l0.136-0.034l0.108-0.092l0.112-0.127l0.087-0.069l0.058,0.008l0.063,0.034l0.099,0.007l0.064-0.035l0.151-0.201l0.035-0.021
	l0.076-0.031l0.03-0.027l0.018-0.045l-0.003-0.046l-0.007-0.116l-0.015-0.023l0.004-0.02l0.053-0.024l0.054-0.001l0.114,0.039
	l0.054,0.003l0.072-0.04l0.057-0.066l0.04-0.077l0.022-0.068l0.02-0.031l0.02-0.008l0.007-0.011l-0.026-0.043l-0.032-0.021
	l-0.105-0.031l-0.043-0.03l-0.032-0.083l0.012-0.094l0.042-0.084l0.06-0.062l0.045-0.022l0.132-0.023l0.029,0.001l0.024,0.011
	l0.018,0.013l0.012,0.004l0.018-0.019l0.016-0.048l0.015-0.016l0.174-0.057l0.035-0.033l0.049-0.072l0.039-0.034l0.053-0.019
	l0.11-0.005l0.048-0.012l0.036-0.027l0.065-0.098l0,0l0.13-0.047l0.025-0.009l0.362,0.087l0.165-0.034l0.174-0.155l0.23-0.092
	l0.146-0.084l0.081-0.033l0.187-0.039l0.079-0.033l0.048-0.05l0.118-0.22l0.105-0.135l0.12-0.105l0.405-0.251l0.105-0.084l0,0
	l0.509-0.34l0.696-0.676l0.06-0.092l0.01-0.064l-0.032-0.054l-0.066-0.071l-0.039-0.022l-0.041-0.014l-0.028-0.026v-0.056
	l0.026-0.051l0.041-0.006l0.051,0.01l0.06-0.005l0.034-0.02l0.07-0.055l0.029-0.014l0.044,0.007l0.075,0.043l0.05,0.007l0.074-0.018
	l0.238-0.113l0.22-0.195l0.085-0.038l0.028,0.005l0.05,0.033l0.021,0.005l0.161-0.062l0.045-0.018l0.048-0.007l0,0l0.036-0.036
	l0.043-0.072l0.038-0.083l0.017-0.075l0.038-0.1l-0.117-0.134l0.082-0.032l0.107,0.008l1.296,0.105l0.12-0.015l0.105-0.032
	l0.123-0.092l0.058-0.079l0.041-0.087l0.009-0.059l0.036-0.065l0.057-0.014l0.259,0.043l0.056-0.001l0.196-0.047l0.132-0.059
	l0.084-0.092l-0.017-0.135l0.054,0.005l0.022-0.012l-0.001-0.03l-0.018-0.046l-0.031-0.043l-0.003-0.005l-0.037-0.011l-0.037-0.004
	l-0.04-0.023l-0.076-0.127l-0.047-0.054l-0.081-0.024l-0.165-0.11l0.009-0.106l0.13-0.067l0.196,0.003l0.161,0.033l0.014,0.006
	l0.016,0.016l0.02,0.013l0.027,0.002l0.016-0.017l-0.01-0.031l-0.016-0.029l-0.002-0.017l0.134-0.043l0.062-0.036l0.071-0.072
	l0.067-0.104l0.029-0.027l0.049-0.018l0.11-0.006l0.033-0.008l0.037-0.045l0.011-0.057v-0.153l0.028-0.172l0.024-0.064l0.005-0.011
	l0.046-0.079l0.07-0.081l0.064-0.033l0.263-0.027l0.063-0.021l0.018-0.01l0.04-0.023l0.055-0.051l0.048-0.065l0.021-0.059
	l0.013-0.062l0.024-0.068l0.087-0.11l0.23-0.148l0.102-0.095l0.045-0.123l-0.011-0.13l-0.059-0.254l0.001-0.087l0.024-0.019
	l0.056,0.013l0.01,0.002l0.083,0.011l0.057-0.016l0.04-0.028l0.044-0.002l0.067,0.06l0.058,0.07l0.229,0.141l0.079,0.074l0.03,0.068
	l0.026,0.173l0.029,0.083l0.201,0.327l0.01,0.039l-0.01,0.04l-0.022,0.041l-0.017,0.045l0.012,0.055l0.052,0.055l0.261,0.134
	l0.104,0.014l0.074-0.046l0.163-0.235l0.053-0.042l0.072-0.014l0.205-0.005l0.078-0.015l0.07-0.037l0.064-0.071l0.099-0.164
	l0.058-0.054l0.465-0.203l0.04-0.053l-0.019-0.033l-0.043-0.032l-0.033-0.048v-0.032l0.027-0.088l-0.008-0.026l-0.017-0.025
	l0.006-0.021l0.062-0.02l0,0l0.037-0.011l0.021-0.019v-0.026l-0.018-0.034l0.035-0.058l0.1-0.005l0.115,0.011l0.09-0.012
	l0.056-0.081l-0.024-0.196l0.024-0.077l0.041-0.011l0.018-0.005l0.189,0.005l0.089-0.023l0.065-0.05l0.169-0.188l0.078-0.061
	l0.07-0.024l0.076,0.004l0.232,0.051l0.03,0.016l0.009,0.03l-0.024,0.021l-0.015,0.026l0.041,0.045l0.045,0.021l0.162,0.021
	l0.094,0.033l0.071,0.053l0.028,0.03l0.049,0.067l0.036,0.024l0.049,0.002l0.091-0.035l0.054,0.008l0.053,0.053l0.004,0.071
	l-0.026,0.122l0.005,0.074l0.021,0.077l0.037,0.133l0.004,0.085l0.042,0.046l0.066,0.009l0.081-0.025l0.072,0.013l0.067-0.014
	l0.056-0.032l0.044-0.05l0.042-0.068l0.234-0.255l0.044-0.036l0.051,0.016l0.094,0.074l0.188,0.205l0.066,0.041l0.076-0.01
	l0.079-0.039l0.073-0.018l0.061,0.057l0.05-0.026l0.042-0.043l0.048-0.031l0.07,0.013l0.053,0.066l0.23,0.169l0.034,0.073
	l0.032,0.032l0.111,0.045l0.027,0.017l0.046,0.036l0.041,0.017l0.039,0.005l0.042-0.002l0.043,0.003l0.037,0.017l0.05,0.063
	l-0.005,0.053l-0.055,0.102l-0.021,0.083l-0.021,0.043l-0.085,0.08l-0.1,0.115l-0.01,0.083l0.063,0.074l0.119,0.089l0.021,0.025
	l0.031,0.056l0.024,0.021l0.032,0.009l0.1,0.017l0.101,0.056l0.02,0.041l-0.015,0.068v0.001v0.001l0,0l-0.003,0.068l0.058,0.042
	l0.085,0.033l0.077,0.043l0.114,0.134l0.095,0.147l0.03,0.104l-0.027,0.047l-0.063,0.034l-0.065,0.07l-0.028,0.056l0.002,0.014
	l0.026,0.005l0.171,0.147l0.145,0.101l0.012,0.021l0.011,0.058l0.126,0.061l0.031,0.004l0.025,0.019l0.015,0.059l-0.011,0.045
	l-0.061,0.081l-0.017,0.04l0.002,0.049l0.014,0.027l0.021,0.024l0.1,0.186l-0.005,0.067l-0.029,0.062l-0.051,0.06l-0.133,0.11
	l-0.249,0.14l-0.075,0.029l-0.032,0.019l-0.042,0.032l-0.018,0.019l-0.121,0.323l-0.035,0.053l-0.048,0.073l-0.15,0.077
	l-0.032,0.044l-0.029,0.103l-0.027,0.038l-0.047,0.011l-0.16,0.01l-0.063,0.013l-0.099,0.048l-0.026,0.026l0.092,0.105l0.017,0.035
	l0.002,0.03l0.013,0.024l0.049,0.012l0.048,0.002l0.037-0.007l0.024-0.018l0.015-0.032l0.03,0.002l-0.008,0.07l-0.017,0.057
	l-0.008,0.048l0.024,0.045l0.021,0.011l0.036,0.012l0.033-0.001l0.033-0.05l0.033,0.023l0.028,0.036l0.004,0.018l0.095,0.056
	l0.047,0.121l0.025,0.25l0.004,0.03l0.016,0.063l-0.008,0.062l-0.014,0.044l-0.193,0.261l-0.032,0.024l0.083,0.049l0.26,0.07
	l0.106,0.04l0.102,0.078l0.044,0.077l0.007,0.089l-0.016,0.16l-0.026,0.108l0.002,0.072l-0.006,0.049l0.002,0.024l0.02,0.014
	l0.078,0.02l0.024,0.014v0.079l-0.083,0.195l-0.021,0.09l0.054,0.026l0.058,0.012l0.057-0.001l0.055-0.016l0.081-0.083l0.082-0.043
	l0.098-0.007l0.123,0.029l0.104-0.029l0.066-0.058l0.113-0.148l0.089-0.064l0.304-0.09l0.077-0.056l0.07-0.068l0.075-0.053
	l0.097-0.015l0.091,0.042l0.063,0.078l0.056,0.087l0.068,0.073l0.075,0.063l0.237,0.012l0.085,0.076l0.002,0.092l-0.074,0.232
	l-0.01,0.108l0.044,0.119l0.009,0.115l-0.033,0.112l-0.011,0.017l-0.065,0.099l-0.387,0.361l-0.127,0.067l-0.141,0.038l-0.127,0.058
	l-0.079,0.122l-0.005,0.049l0.012,0.101l-0.01,0.064l-0.037,0.071l-0.034,0.043l-0.005,0.047l0.052,0.077l-0.09,0.026l-0.081,0.063
	l-0.042,0.079l0.024,0.073l-0.039,0.022l-0.037,0.027l-0.032,0.033l-0.027,0.035l0.092,0.138l0.037,0.072l0.02,0.079l0.072,0.117
	l0.041,0.133l0.015,0.139l-0.007,0.131l-0.014,0.074l-0.021,0.044l-0.04,0.035l-0.182,0.1l-0.023,0.032l-0.024,0.064l-0.02,0.03
	l-0.093,0.076l-0.454,0.229l-0.106,0.034l-0.117,0.005l-0.158-0.017l0.006-0.063l-0.049-0.246l-0.033-0.087l-0.037-0.036
	l-0.104-0.066l-0.028-0.035l0.007-0.045l0.063-0.075l0.006-0.059l-0.021-0.029l-0.087-0.095l-0.03-0.04l-0.017-0.055l-0.018-0.125
	l-0.023-0.049l-0.035-0.023l-0.112-0.05l-0.049-0.028l-0.036-0.033l-0.099-0.117l-0.199-0.166l-0.132-0.069l-0.146-0.025
	l-0.336,0.034l-0.151-0.022l-0.228-0.058l-0.05,0.013l-0.09,0.04l-0.113-0.003l-0.112-0.033l-0.09-0.044l-0.014-0.023l-0.013-0.064
	l-0.019-0.021l-0.026-0.001l-0.071,0.025l-0.075-0.002l-0.03-0.011l-0.003-0.02l0.005-0.07l-0.009-0.027l-0.108-0.045l-0.162,0.061
	l-0.092-0.054l-0.114-0.193l-0.064-0.049l-0.03,0.119l0,0v0.001l0,0l-0.05,0.054l-0.207,0.113l-0.021,0.005l-0.057-0.007
	l-0.024,0.008l-0.006,0.02l0.009,0.06l-0.008,0.023l-0.127,0.1l-0.025,0.098l-0.084,0.03l-0.111-0.011l-0.105-0.028l-0.1-0.041
	l-0.067-0.046l-0.197-0.206l-0.103-0.136l-0.083-0.139l-0.008-0.018l-0.134-0.018l-0.106,0.005l-0.022,0.013l0.015,0.09
	l-0.002,0.087l-0.022,0.09l-0.052,0.067l-0.092,0.019l-0.107-0.051l-0.059-0.097l-0.062-0.218l-0.1-0.171l-0.02-0.02l-0.054-0.06
	l-0.089-0.036l-0.207-0.028l-0.107-0.03l-0.301-0.14l-0.251-0.07l-0.236,0.022l-0.2,0.108l-0.146,0.188l-0.08,0.188l-0.018,0.097
	l0.008,0.188l-0.014,0.065l-0.035,0.052l-0.063,0.051l-0.081,0.042l-0.414,0.139l-0.186,0.036l-0.174-0.026l-0.122-0.12
	l-0.034-0.099l-0.027-0.05l-0.035-0.03l-0.015,0.001l-0.024,0.003l-0.027,0.032l-0.021,0.041l-0.166,0.511l-0.018,0.185l-0.01,0.045
	l-0.252,0.565l-0.053,0.119l-0.082,0.088l-0.103,0.061l-0.119,0.032l-0.129,0.004l-0.22-0.026l-0.107,0.004l-0.095,0.039
	l-0.035,0.033l-0.056,0.083l-0.024,0.037l-0.03,0.033l-0.104,0.077l-0.032,0.033l-0.079,0.113l-0.04,0.038l-0.046,0.024
	l-0.052,0.015l-0.155,0.027l-0.089,0.027l-0.084,0.04l-0.08,0.052l-0.071,0.068l-0.155,0.238l-0.075,0.072l-0.088,0.039
	l-0.101,0.012l-0.111-0.007l-0.207-0.042l-0.203-0.07l-0.178-0.081l-0.054-0.012l-0.054-0.003l-0.406,0.056l-0.057-0.004
	l-0.044-0.011l-0.014-0.004l-0.109-0.042l-0.056-0.014l-0.059-0.003l-0.055,0.01l-0.103,0.034l-0.055,0.009l-0.16-0.002
	l-0.288-0.003l-0.106-0.033l-0.698-0.363l-0.106-0.032l-0.223-0.04l-0.29-0.021l-0.235-0.04l-0.06-0.003l-0.057,0.006l-0.252,0.08
	l-0.027,0.015l-0.033,0.029l-0.048,0.072l-0.028,0.032l-0.042,0.028l-0.143,0.053l-0.142,0.074l-0.061,0.046l-0.151,0.197
	l-0.036,0.08l-0.416,0.65l-0.132,0.116l-0.17,0.115l-0.039,0.016l-0.097,0.018l-0.031,0.008l-0.031,0.014l-0.087,0.057l-0.215,0.077
	l-0.095,0.058l-0.197,0.269l-0.024,0.022l-0.017,0.014l-0.046,0.031l-0.054,0.021l-0.148,0.026l-0.463,0.146l-0.05,0.029
	l-0.034,0.019l-0.277,0.248l-0.078,0.051l-0.097,0.041l-0.496,0.134l-0.415,0.175l-0.098,0.072l-0.064,0.102l-0.02,0.106l0.02,0.1
	l0.055,0.092l0.082,0.082l0.027,0.023l0.02,0.018l0.012,0.021l0.003,0.034l-0.02,0.069l-0.051,0.034l-0.063,0.022l-0.059,0.039
	l-0.051,0.06l-0.042,0.066l-0.032,0.071l-0.018,0.075l-0.031,0.255l-0.021,0.059l-0.136,0.238l-0.028,0.035l-0.037,0.034
	l-0.051,0.058l-0.09,0.25l-0.018,0.112l-0.037,0.109l-0.006,0.039l0.008,0.063l-0.002,0.022l-0.021,0.08l-0.093,0.233l-0.003,0.045
	l0.052,0.362l0.041,0.113l0.068,0.106l0.092,0.085l0.112,0.059l0.031,0.005l0.02-0.005l0.02-0.01l0.026-0.006l0.019-0.035
	l0.146-0.17l0.041-0.022l0.044,0.01l0.033,0.044l0.017,0.06l0.018,0.167l0.03,0.102l0.014,0.135l0.011,0.039l0.022,0.042
	l0.059,0.055l0.071,0.037l0.159,0.045l0.102,0.042l0.067,0.062l0.043,0.08l0.028,0.098l-0.002-0.002l-0.005-0.003l-0.003-0.003
	l-0.02-0.013v0.003l0.01,0.021l0.017,0.036l0.042,0.044l0.063,0.03l0.087,0.018l0.284-0.002l0.047,0.028l0.027,0.047l0.067,0.048
	l0.064,0.06l0.025,0.081l-0.025,0.072l-0.102,0.126l-0.027,0.078l0.012,0.075l0.151,0.405l0.035,0.071l0.05,0.034l0.128,0.277
	l0.146,0.183l0.037,0.073l0.028,0.164l0.036,0.067l0.072,0.033l0.09-0.015l0.072-0.034l0.035,0.005l-0.02,0.097l-0.133,0.215
	l-0.022,0.062l-0.045-0.007l-0.31-0.115l-0.196,0.033l-0.087,0.134l-0.028,0.381l-0.044,0.16l-0.089,0.139l-0.114,0.108l-0.115,0.07
	l-0.002,0.135l-0.078,0.124l-0.222,0.197l-0.153,0.086l-0.022,0.031l-0.017,0.015l-0.109,0.123l-0.086,0.031l-0.082,0.006
	l-0.07,0.02l-0.054,0.076l-0.025,0.204l-0.017,0.129l0.022,0.036l0.073,0.081l0.7,0.777l0.022,0.097l-0.115,0.158l-0.063,0.17
	l-0.058,0.034l-0.002,0.029l0.066,0.083l0.087,0.048l0.201,0.068l0.311,0.153l0.095,0.029l0.053,0.429l0.045,0.08l0.09,0.052
	l0.05,0.056l-0.074,0.094l0.073,0.01l0.063,0.02l0.052,0.028l0.04,0.035l0.025,0.088l0.016,0.055l0.092-0.089l0.058,0.098
	l0.054,0.161l0.089,0.102l0.037,0.024l0.034,0.026l0.038,0.023l0.011,0.01l-0.098,0.028l-0.03,0.004l-0.021,0.002l-0.005,0.011
	l0.007,0.019l0.016,0.023l0.055,0.067v0.069l-0.012,0.067l0.017,0.065l0.039,0.033l0.018-0.027l0.007-0.046l0.009-0.022l0.03,0.008
	l0.012,0.008l0.101,0.095l0.009,0.03l-0.005,0.034l0.016,0.06l0.385,0.559l0.108,0.1l0.175,0.116l0.037,0.034l0.018,0.058
	l0.007,0.062l0.024,0.05l0.072,0.021l0,0l0.107,0.094l0.023,0.028l0.023,0.047l0.001,0.016l-0.015,0.018l-0.065,0.123l-0.093,0.123
	l-0.022,0.074l-0.087,0.051l-0.074,0.065l-0.063,0.074l-0.053,0.081l-0.053,0.193l-0.045,0.158L1376.27,335l-0.107-0.015
	l-0.098-0.077l-0.171-0.178l-0.213-0.126l-0.037-0.015l-0.086-0.034l-0.099-0.005l-0.05,0.003l-0.04-0.016l-0.028-0.033
	l-0.021-0.046l-0.011-0.005l-0.011-0.003h-0.01l-0.01,0.002l-0.036,0.024l-0.034,0.007l-0.029-0.012l-0.023-0.037l-0.033-0.099
	l-0.062-0.034l-0.167-0.009l-0.096-0.031l-0.049-0.042l-0.069-0.154l-0.098-0.134l-0.112-0.089l-0.121-0.076l-0.125-0.098
	l-0.044-0.066l-0.081-0.157l-0.06-0.043l-0.07,0.004l-0.187,0.052l-0.093,0.001l-0.087-0.03l-0.176-0.093l-0.075-0.021l-0.044,0.01
	l-0.026,0.026l-0.021,0.03l-0.03,0.022l-0.1,0.021l-0.035,0.01l-0.17-0.022l-0.048-0.016l-0.033-0.029l-0.081-0.09l-0.03-0.018
	l-0.067,0.035l-0.158,0.266l-0.038,0.031l-0.109,0.089l-0.091,0.05l-0.087,0.019l-0.095-0.038l-0.127-0.15l-0.091-0.046
	l-0.048-0.015l-0.021-0.021l-0.14-0.312l-0.055-0.068l-0.052-0.023l-0.106-0.012l-0.048-0.019l-0.029-0.036l-0.022-0.083
	l-0.017-0.042l-0.112-0.142l-0.074-0.068l-0.071-0.035l-0.078,0.013l-0.116,0.089l-0.09,0.012l-0.075-0.026l-0.15-0.088l-0.08-0.033
	l-0.289-0.016l-0.092-0.021l-0.084-0.047l-0.119-0.127l-0.068-0.055l-0.152-0.065l-0.066-0.041l-0.172-0.215l-0.145,0.018
	l-0.149,0.1l-0.19,0.169l-0.064,0.043l-0.075,0.02l-0.114-0.006l-0.278-0.053l-0.407,0.034l-0.03-0.003l-0.022-0.01l-0.028-0.005
	l-0.041,0.009l-0.021,0.024l-0.022,0.073l-0.023,0.026l-0.146,0.006l-0.192-0.051l-0.164-0.091l-0.057-0.109l-0.02-0.105
	l-0.101-0.075l-0.133-0.042l-0.117-0.007l-0.063,0.008l-0.05,0.015l-0.041,0.03l-0.038,0.053l-0.026,0.073l0.008,0.049l0.026,0.044
	l0.024,0.055l0.021,0.112l0.005,0.125l-0.021,0.126l-0.058,0.115l-0.139,0.177l-0.045,0.092l-0.025,0.122l-0.027,0.393l-0.009,0.025
	l0.002,0.024l0.024,0.046l0.02,0.02l0.091,0.068l0.204,0.211l0.179,0.232l0.058,0.052l-0.015,0.032l-0.051,0.025l-0.049,0.033
	l-0.043,0.059l-0.172,0.34l-0.005,0.118l0.063,0.104l0.081,0.062l0.057,0.045l-0.002,0.078l-0.05,0.122l-0.067,0.119l-0.057,0.071
	l-0.063,0.046l-0.072,0.002l-0.077-0.011l-0.081,0.003l-0.064,0.027l-0.123,0.074l-0.063,0.027l-0.084,0.014l-0.156-0.012
	l-0.076,0.003l-0.059,0.021l-0.064,0.037l-0.039,0.021l-0.067,0.011l-0.085-0.032l-0.136-0.129l-0.071-0.068l-0.129-0.069
	l-0.039-0.037l-0.021-0.038l-0.028-0.091l-0.022-0.042l-0.07-0.053l-0.076-0.03l-0.162-0.045l-0.294-0.16l0,0l-0.327-0.16
	l-0.187-0.06l-0.244-0.028l-0.049,0.002l0.005,0.021l0.06,0.032l0.015,0.036l-0.033,0.068l-0.051,0.065l-0.043,0.027l-0.027,0.011
	l-0.039,0.069l-0.027,0.031l-0.029,0.012l-0.066,0.014l-0.039,0.015l-0.162,0.091l-0.587,0.167l-0.106,0.073l-0.063,0.159
	l0.023,0.166l0.078,0.145l0.104,0.104l0.166,0.078l0.009,0.01l0.001,0.024l0.027,0.104l0.009,0.014l0.034,0.047l0.186,0.026
	l0.062,0.077l-0.007,0.079l-0.049,0.073l-0.08,0.048l-0.097,0.011l-0.162-0.034l-0.082-0.005l-0.063-0.007l-0.064-0.022
	l-0.055-0.059l-0.062-0.054l-0.083-0.032l-0.101-0.024l-0.144-0.064l-0.416-0.121l-0.159-0.072l-0.119-0.076l-0.062-0.009
	l-0.073-0.043l-0.132-0.119l-0.058-0.031l-0.077-0.03l-0.053-0.053l-0.095-0.136l-0.131-0.134l-0.056-0.078l-0.035-0.181
	l-0.06-0.064l-0.069-0.051l-0.056-0.069l-0.009-0.085l0.099-0.372l0.07-0.178l0.007-0.102l-0.035-0.149l-0.062-0.142l-0.027-0.043
	l-0.057-0.091l-0.098-0.128l-0.03-0.004l-0.038,0.122l0.033,0.399l-0.066,0.072l-0.093-0.023l-0.188-0.069l-0.101-0.024
	l-0.021-0.021l-0.048-0.09l-0.03-0.027l-0.037,0.001l-0.135,0.034l-0.028-0.085l-0.024-0.203l-0.04-0.088l-0.067-0.064l-0.4-0.288
	l-0.557-0.222l-0.056-0.014l-0.052-0.005l-0.036-0.021l-0.009-0.059l0.006-0.04l0.013-0.038l0.018-0.034l0.027-0.029l0.039-0.081
	l-0.004-0.1l-0.054-0.169l-0.035-0.054l-0.139-0.168l-0.016-0.063l-0.177-0.436l-0.447-0.676l-0.023-0.065l-0.068-0.026
	l-0.086-0.003l0.012-0.067l0.081-0.041l0.138,0.015l0.372,0.139h0.101l0.026-0.03l0.081-0.115l0.065-0.071l-0.002-0.02l0.001-0.011
	l0.039-0.002l0.129,0.071l0.088,0.08l0.029-0.005l0.045-0.033l0.019-0.006l0.063,0.016l0.17,0.068l0.06-0.042l0.134-0.044
	l0.066-0.033l0.069-0.058l0.03-0.065l-0.002-0.076l-0.033-0.098l-0.126-0.23l-0.024-0.088l-0.052-0.505l0.01-0.098l0.025-0.09
	l0.063-0.139l0.005-0.03l0.016-0.017l0.054-0.011l0.042,0.013l0.042,0.031l0.044,0.022l0.047-0.014l0.016-0.063l-0.061-0.18
	l0.009-0.083l0.063-0.058l0.153-0.059l0.057-0.062l0.007-0.059l-0.007-0.087l-0.02-0.083l-0.03-0.052l-0.047-0.013l-0.045-0.013
	l-0.068,0.02l-0.055,0.007l-0.049-0.064l0.029-0.095l-0.004-0.041l-0.021-0.038l-0.027-0.03l-0.022-0.012l-0.015-0.008l-0.047-0.01
	l-0.063,0.007l-0.053,0.028l-0.046,0.042l-0.039,0.05l-0.104,0.214l-0.061,0.052l-0.082,0.021l-0.079-0.013l-0.171-0.067l-0.46-0.08
	l-0.094-0.076l-0.088-0.03l-0.19,0.033l-0.076-0.017l-0.036-0.069l-0.005-0.096l-0.019-0.094l-0.078-0.064l-0.094-0.003
	l-0.043,0.057l-0.03,0.077l-0.051,0.058l-0.051,0.009l-0.096-0.027l-0.046-0.002l-0.04,0.019l-0.068,0.062l-0.03,0.014l-0.071-0.007
	l-0.081-0.027l-0.254-0.12l-0.044-0.004l-0.108,0.092l-0.035,0.018l-0.122,0.037l-0.144,0.08l-0.041,0.006l-0.035-0.002
	l-0.037,0.003l-0.044,0.023l-0.058,0.147l-0.067,0.085l-0.069,0.032l-0.188,0.002l-0.1,0.021l-0.202,0.091l-0.101,0.026
	l-0.104-0.012l-0.078-0.04l-0.088-0.034l-0.126,0.006l-0.086,0.042l-0.173,0.109h-0.081l-0.077-0.08l-0.033-0.043l-0.021-0.047
	l0.006-0.054l0.021-0.05l0.013-0.051l-0.021-0.06l-0.034-0.026l-0.188-0.085l-0.073-0.021l-0.02-0.008l-0.069-0.084l-0.006-0.012
	l-0.091-0.021l-0.091-0.006l-0.094-0.017l-0.098-0.055l-0.069-0.07l-0.068-0.098l-0.05-0.111l-0.01-0.124l0.003-0.038l0.004-0.019
	l0.119-0.112l0.318-0.099l0.116-0.091l0.029-0.105l-0.057-0.048l-0.091-0.031l-0.079-0.054l-0.021-0.079l0.013-0.186l-0.03-0.096
	l-0.003-0.09l0.014-0.083l0.086-0.251l0.019-0.04l0.032-0.038l0.04-0.014l0.043,0.002l0.039-0.023L1353.847,326.413z"/></svg>