<?xml version="1.0" encoding="utf-8"?>
<!-- Generator: Adobe Illustrator 15.0.0, SVG Export Plug-In . SVG Version: 6.00 Build 0)  -->
<!DOCTYPE svg PUBLIC "-//W3C//DTD SVG 1.1//EN" "http://www.w3.org/Graphics/SVG/1.1/DTD/svg11.dtd">
<svg version="1.1" id="Ebene_1" xmlns="http://www.w3.org/2000/svg" xmlns:xlink="http://www.w3.org/1999/xlink" x="0px" y="0px"
	 width="1920px" height="1080px" viewBox="0 0 1920 1080" enable-background="new 0 0 1920 1080" xml:space="preserve">

<path fill="#F4E0B6" stroke="#FFFFFF" d="M1357.002,276.467l0.038-0.034l-0.011-0.029h0.027l0.021,0.029l-0.003-0.051v-0.047
	l0.011-0.02l0.034,0.047l0.022,0.016l0.058-0.024l-0.001,0.033l0.008,0.109l-0.04-0.014l-0.139-0.001l0.001,0.04l-0.03-0.009
	l-0.061-0.002l0.011-0.027L1357.002,276.467z M1356.713,276.06l0.028-0.025l-0.007-0.027l0.015-0.032l0.061-0.031l0.026-0.033
	l0.046,0.001l0.032,0.025l0.042-0.016l0.039-0.019l0.008,0.019l0.085-0.027l0.011,0.051l-0.018,0.012l-0.028,0.032h-0.049
	l-0.054,0.012l-0.022,0.028l0.02,0.024l0.009-0.024h0.035l0.004,0.017l0.035,0.029l0.047-0.028l0.032,0.013l0.031-0.015l0.011,0.048
	l-0.071,0.006l-0.01-0.014l-0.023,0.011l0.021,0.043l-0.01,0.02l-0.025-0.02l-0.018,0.029l-0.029-0.02l-0.024,0.009l-0.007,0.036
	l-0.04-0.005l0.035,0.052l0.026,0.017l-0.001,0.01l-0.025,0.008l-0.031,0.007l-0.021,0.036l-0.005,0.067l-0.014,0.028l-0.036,0.016
	l-0.021,0.006l-0.036,0.02l-0.012,0.025l-0.028-0.004l-0.007-0.009l-0.011-0.02l-0.018-0.036l-0.014-0.041l0.014-0.045l0.019-0.028
	l0.011-0.036l0.001-0.053l-0.036-0.04l-0.021-0.036l0.017-0.039L1356.713,276.06z M1356.514,276.733l0.039,0.006l-0.016,0.016
	l-0.006,0.033l-0.001,0.027l0.072,0.009l-0.012,0.069h0.061l-0.018-0.039l0.059,0.02l0.11-0.004v0.061l-0.014,0.036l0.072-0.048
	l0.049,0.062l0.065-0.093l0.049,0.062l0.036,0.076l-0.032,0.005l-0.101-0.001v0.047v0.04v0.057l0.059,0.072v0.028l0.022,0.013
	l0.011-0.041h0.027l0.026,0.039l0.005,0.052l-0.052,0.051l-0.033,0.006l0.011,0.035l0.031,0.042l0.053,0.061l0.02,0.053
	l-0.035,0.029l-0.061,0.005l-0.049,0.001l-0.025-0.008l0.001-0.042l-0.046-0.001l-0.009-0.031l-0.028-0.001l-0.021,0.026l0,0
	l-0.002-0.002l-0.028-0.037l-0.024-0.028l-0.009-0.003l-0.007-0.038l-0.032-0.03l-0.061-0.036l0.001-0.078l0.005-0.042l0.031-0.027
	l-0.018-0.042l-0.057-0.097l0.016-0.061l-0.05-0.03l-0.007-0.036l-0.053-0.03l-0.06-0.074l0.031-0.012l-0.078-0.097l0.016-0.022
	l0.027-0.023L1356.514,276.733z M1355.442,276.225l0.034-0.041l0.002-0.069l0.005-0.086l-0.003-0.037l-0.001-0.021l0.041,0.032
	l0.025,0.021l0.031,0.03v0.021l0.049,0.003l-0.01-0.036l-0.018-0.003l-0.014-0.048l-0.019-0.015l-0.061-0.033l-0.003-0.015
	l0.015-0.012l-0.015-0.024l0.015-0.012l0.037,0.019l-0.006-0.024l0.026-0.026l0.03,0.002l0.014-0.021l-0.02-0.033l0.018-0.007
	l0.028,0.001l0.037,0.008l0.002-0.031l0.028-0.017l0.02-0.038l-0.035-0.115l-0.015-0.025l0.024-0.009l0.063,0.077l0.044,0.045
	l0.021,0.049l0.024,0.053l0.035,0.05l0.032,0.019l0.028,0.043v0.032l-0.082,0.06l0.01,0.059l-0.014,0.021l0.021,0.011l0.039-0.006
	l0.01-0.02l0.032-0.006l-0.008,0.029l-0.02,0.002l-0.019,0.03l0.007,0.047l0.021,0.016l0.017,0.079l0.021-0.037l0.033-0.045
	l0.037-0.052l0.033-0.047l0.037,0.007l0.018-0.02l0.047,0.022l-0.009-0.025l-0.065-0.032l-0.045-0.045l-0.048-0.016l-0.001-0.024
	l0.021-0.031l0.001-0.065l0.023-0.009l0.044,0.009l0.028-0.021l-0.046-0.016l-0.028-0.052l-0.082,0.05l-0.042-0.051l-0.015-0.053
	l-0.039,0.003l-0.067-0.095l0.021-0.005l0.006-0.023l0.044,0.023l0.012-0.043l0.07-0.009l0.029,0.021l0.038-0.019l-0.027-0.022
	l0.067-0.019l-0.003-0.02l-0.079,0.002l-0.093-0.035l0.029-0.032l0.04,0.002l0.028-0.011l0.003-0.065l0.015-0.057l0.035,0.009
	l0.072-0.016l-0.024,0.049l-0.005,0.031l0.096,0.048l-0.012-0.019l0.06-0.042l0.099-0.019l0.004,0.013l-0.023,0.003l-0.002,0.039
	l0.038-0.012l0.041,0.017l0.02,0.021l0.015,0.04l0.061,0.013l-0.033,0.022h-0.056l0.027,0.042l-0.031,0.012l-0.032,0.026
	l-0.071-0.007l-0.024,0.058l-0.04,0.006l0.025,0.036l0.011,0.042l-0.043,0.057l-0.001,0.033l0.058,0.038l0.067-0.019l0.039-0.026
	l0.032,0.013l-0.036,0.038l-0.046,0.003l0.018,0.033l0.028,0.012l0.043-0.042l0.117-0.027l0.007-0.019l0.013-0.058l0.052-0.003
	v-0.016l-0.007-0.033l0.044-0.032l0.029,0.024l0.023,0.033l-0.011,0.03l0.003,0.006l0.025-0.003l0.035,0.001l-0.014-0.043
	l0.037-0.012h0.031l0.018,0.027l-0.029,0.031l-0.027,0.043l-0.04-0.006l-0.075,0.027l-0.028,0.035l-0.035-0.003l-0.028-0.003
	l-0.029,0.044l0.078,0.018l0.043-0.006l0.063,0.059l-0.047,0.044l-0.086,0.067l0.044-0.012v0.009l-0.08,0.07l0.044,0.037l0.031-0.02
	h0.014l-0.014,0.031l0.034,0.009l0.016,0.021l0.01,0.019l-0.024,0.02l-0.051-0.005l-0.024,0.01l-0.021,0.003v0.023h-0.032
	l-0.028,0.03l-0.034,0.056l-0.03,0.058l0.024,0.003l-0.071,0.042l-0.061,0.009l-0.019,0.026l0.031,0.03l-0.014,0.076l0.015,0.003
	v0.033l0.017,0.013l-0.011,0.038l0.011,0.032l0.019,0.042l0.021,0.08l-0.015,0.022h-0.025v0.067l-0.023,0.028l-0.013,0.038
	l-0.058,0.023l-0.004,0.016l-0.032,0.009l0.03,0.026l0.039-0.041l0.009,0.081l0.036,0.041l-0.033,0.059v0.02l-0.033,0.046
	l-0.053-0.016l-0.05,0.031l-0.046,0.055l-0.045-0.051l-0.005-0.087l-0.032-0.042l-0.102-0.055l-0.042-0.097l-0.136-0.088v-0.026
	l0.012-0.032l0.027,0.004l0.033,0.003l-0.011-0.015l-0.014-0.049v-0.013l-0.018-0.007l-0.025,0.004l-0.035-0.001l-0.024-0.048
	l-0.018-0.065l-0.018-0.015l-0.033-0.017l-0.011-0.032l-0.006-0.02l-0.015-0.03l-0.029,0.012l-0.022-0.038l0.001-0.069l0.024-0.022
	l0.007-0.014l-0.048-0.048l-0.007-0.038l0.007-0.043l-0.063-0.022l-0.038-0.033L1355.442,276.225z"/></svg>