<?xml version="1.0" encoding="utf-8"?>
<!-- Generator: Adobe Illustrator 15.0.0, SVG Export Plug-In . SVG Version: 6.00 Build 0)  -->
<!DOCTYPE svg PUBLIC "-//W3C//DTD SVG 1.1//EN" "http://www.w3.org/Graphics/SVG/1.1/DTD/svg11.dtd">
<svg version="1.1" id="Ebene_1" xmlns="http://www.w3.org/2000/svg" xmlns:xlink="http://www.w3.org/1999/xlink" x="0px" y="0px"
	 width="1920px" height="1080px" viewBox="0 0 1920 1080" enable-background="new 0 0 1920 1080" xml:space="preserve">

<path fill="#F4E0B6" stroke="#FFFFFF" d="M1403.063,761.955l0.021-0.002l0.059-0.031h0.021l0.065,0.028l0.021,0.029l0.013,0.179
	l0.049,0.044l0.061,0.023l0.076,0.138l0.119,0.082l0.031,0.05l0.013,0.133l-0.001,0.157l-0.026,0.182l0.002,0.088l0.043,0.074
	l-0.119,0.083l-0.125,0.158l-0.065,0.157l0.055,0.074l0.01,0.037l0.035,0.037l0.01,0.027l-0.01,0.057l-0.027,0.02l-0.033,0.008
	l-0.025,0.025l-0.049,0.146l-0.029,0.066l-0.057,0.066l-0.407,0.278l-0.423,0.213l-0.155,0.039l-0.252,0.006l-0.145,0.032
	l-0.099,0.084l-0.34-0.161l-0.078-0.053l-0.035-0.063l0.076-0.059l0.131-0.017l0.067-0.037l0.019-0.079v-0.16l-0.016-0.053
	l-0.061-0.012l0.019-0.145l-0.047-0.298l-0.004-0.17l0.019-0.104l0.076-0.268l0.035-0.059l0.007-0.021l0.097-0.132l0.046-0.039
	l0.105-0.07l0.047-0.039l0.071-0.119v-0.104l-0.014-0.102l0.054-0.169l0.03-0.213l0.021-0.068l0.017-0.041l0.123-0.161l0.032-0.028
	l0.069-0.029l0.026-0.028l0.016-0.044l0.024-0.05l0.052-0.034l0.084-0.016l0.243-0.013l0.066,0.011l0.037,0.05l-0.014,0.104
	l0.029,0.045l0.045,0.039l0.055,0.077l0.057,0.062l0.024,0.058L1403.063,761.955z M1433.793,750.019l-0.106,0.1l-0.181-0.116
	l-0.033-0.003l0.006-0.113l0.043-0.062l0.066-0.053l0.186-0.178l0.18-0.117l0.189-0.086l0.132,0.008l0.105-0.009l-0.015,0.122
	l-0.104,0.162l-0.173,0.115l-0.128,0.06l-0.086,0.077L1433.793,750.019z M1386.96,708.472l0.026,0.122l-0.145-0.1l-0.139-0.133
	l-0.044-0.067l-0.014-0.062l0.005-0.02l0.01-0.019l0.018-0.016l0.025-0.013l0.066,0.122L1386.96,708.472z"/></svg>