<?xml version="1.0" encoding="utf-8"?>
<!-- Generator: Adobe Illustrator 15.0.0, SVG Export Plug-In . SVG Version: 6.00 Build 0)  -->
<!DOCTYPE svg PUBLIC "-//W3C//DTD SVG 1.1//EN" "http://www.w3.org/Graphics/SVG/1.1/DTD/svg11.dtd">
<svg version="1.1" id="Ebene_1" xmlns="http://www.w3.org/2000/svg" xmlns:xlink="http://www.w3.org/1999/xlink" x="0px" y="0px"
	 width="1920px" height="1080px" viewBox="0 0 1920 1080" enable-background="new 0 0 1920 1080" xml:space="preserve">

<path fill="#F4E0B6" stroke="#FFFFFF" d="M1351.633,372.038l0.342-0.089l0.196,0.005l0.101,0.035l0.195,0.093l0.106,0.037
	l0.077,0.063l-0.012,0.103l-0.037,0.111v0.095l0.025,0.006l0.04-0.012l0.038,0.007l0.02,0.062l-0.012,0.048l-0.033,0.034
	l-0.044,0.018l-0.088-0.001l-0.035,0.006l-0.034-0.01l-0.09-0.097l-0.049-0.025l-0.114-0.03l-0.197-0.024l-0.335,0.019l-0.174-0.07
	l-0.089-0.067l-0.038-0.055l0.013-0.049l0.062-0.056l0.065-0.007l0.071,0.041l0.071,0.052l0.064,0.031l-0.075-0.094l-0.11-0.056
	l-0.122-0.025l-0.112,0.007l0.001-0.086l-0.009-0.082l0.077,0.018l0.024,0.008L1351.633,372.038z M1349.402,385.133l0.076,0.083
	l-0.098,0.123l-0.316,0.166l-0.019-0.005l-0.024-0.039l-0.086-0.056l-0.095-0.024l-0.17,0.002l-0.078-0.008l-0.09,0.006
	l-0.044-0.017l0.007-0.057l0.016-0.017l0.026-0.01l0.03-0.004h0.072l0.334,0.045l0.153-0.014l0.078-0.092l0.089-0.092
	L1349.402,385.133z M1351.465,372.466l0.04,0.052l-0.087,0.02l-0.387-0.172l-0.251-0.027l-0.081-0.038l-0.057-0.048l-0.104-0.14
	l0.019-0.015l0.017-0.003l0.039,0.003l0.188-0.011l0.068,0.009l0.074,0.034l0.113,0.096l0.161,0.076L1351.465,372.466z
	 M1349.588,378.045l0.102,0.075l-0.03,0.033l-0.007,0.031l0.092,0.065l0.092,0.105l0.055,0.109l-0.018,0.082l-0.036-0.009
	l-0.002-0.036l-0.012-0.065l0.002-0.039l-0.062,0.026l-0.028,0.017l-0.028,0.03l-0.027-0.04l-0.037-0.009l-0.045-0.005l-0.05-0.024
	l-0.03-0.028l-0.02-0.026l-0.156-0.369l0.1,0.027l0.025-0.013l0.035-0.008l0.081-0.007L1349.588,378.045z M1349.804,379.367
	l0.02,0.051l-0.014,0.018l-0.225-0.06l-0.111-0.049l-0.101-0.074l-0.167-0.15l-0.072-0.105l-0.009-0.114l0.104,0.045l0.171,0.167
	l0.36,0.213L1349.804,379.367z M1349.222,379.146l-0.005,0.03l-0.098-0.056l-0.131-0.098l-0.097-0.1l-0.003-0.067l0.115,0.061
	l0.123,0.172L1349.222,379.146z M1349.6,378.825l0.022,0.085l-0.041,0.055l-0.076,0.017l-0.084-0.02l-0.063-0.044l-0.046-0.044
	l-0.057-0.041l-0.1-0.038l-0.154-0.03l-0.043-0.029l-0.037-0.073l0.038-0.023l0.21-0.13l0.139-0.027l0.146,0.086l0.041,0.116
	L1349.6,378.825z M1348.503,377.651l0.281,0.17l-0.048-0.012h-0.033l-0.059,0.011l0.155,0.098l0.18,0.076l0.158,0.084l0.097,0.131
	l0.013,0.095l-0.03,0.043l-0.058,0.006l-0.065-0.012l-0.039-0.036l-0.111-0.203l-0.037,0.021l0.08,0.23l0.044,0.038l-0.005,0.03
	l-0.111-0.04l-0.1-0.056l-0.069-0.073l-0.017-0.091l-0.025-0.068l-0.113-0.16l0.011-0.057l-0.049-0.055l-0.042-0.068l-0.02-0.063
	L1348.503,377.651z M1348.55,376.01l0.046-0.001l0.259,0.067l0.106,0.065l0.008,0.097l-0.081,0.029l-0.134-0.04l-0.139-0.071
	l-0.101-0.064l0.04-0.02l-0.027-0.033l-0.002-0.021L1348.55,376.01z M1348.636,375.87l0.037,0.065l-0.256-0.07l-0.091-0.051
	l0.037-0.058l0.09,0.019l0.1,0.04L1348.636,375.87z M1348.225,375.752l0.234,0.241l-0.04,0.064l-0.065-0.031l-0.074-0.069
	l-0.062-0.046l-0.214-0.072l-0.113-0.058l-0.068-0.068l0.041-0.025l0.076-0.008l0.092,0.005l0.098,0.021L1348.225,375.752z
	 M1349.157,375.546l0.042,0.103l-0.025,0.113l-0.029,0.07l-0.044,0.043l-0.075,0.012l-0.131-0.174l-0.114-0.118l-0.075-0.052
	l-0.227-0.103l-0.336-0.09l-0.367-0.121l-0.001-0.084l0.104-0.14l0.102-0.081l0.126-0.004l0.071-0.054l0.18-0.002l0.111,0.026
	l0.16,0.018l0.134,0.112l0.065,0.064l0.055,0.046l0.104,0.088l0.062,0.116l0.03,0.077l0.004,0.063L1349.157,375.546z
	 M1347.234,377.223l0.129-0.037l0.141-0.016l0.115,0.019l-0.106,0.026l-0.038,0.002l0.08,0.056l0.195,0.021l0.079,0.052
	l-0.047,0.012l-0.052-0.009l-0.054-0.014l-0.05-0.008l0.006-0.032l-0.091,0.007l-0.194-0.014l-0.09,0.008l-0.024,0.022l0.001,0.033
	l-0.012,0.024l-0.064-0.006l-0.027-0.019l-0.005-0.031l0.011-0.03l0.021-0.02L1347.234,377.223z M1347.253,377.128l0.025,0.037
	l-0.276-0.102l0.015-0.008l0.007-0.022l0.056-0.006l0.052,0.006l0.094,0.022l0.018,0.055L1347.253,377.128z M1347.541,374.76
	l-0.014,0.119l-0.072,0.08l-0.125-0.079l-0.042-0.179l-0.023-0.205l0.101-0.027l0.104,0.074l0.046,0.112L1347.541,374.76z
	 M1348.065,372.993l-0.01,0.226l-0.102,0.125l-0.213,0.088l-0.202,0.03l-0.158-0.011l-0.227-0.168l-0.033-0.108l0.581-0.279
	l0.209,0.018L1348.065,372.993z M1348.723,376.667l0.327,0.342l0.055,0.099l-0.021,0.002l-0.053,0.014l0.09,0.136l0.019,0.049
	l0.18,0.174l0.008,0.045l0.021,0.065l0.014,0.066l-0.014,0.046l-0.112,0.011l-0.128-0.092l-0.132-0.125l-0.125-0.09l0.321,0.355
	l0.002,0.078l-0.1,0.005l-0.134-0.054l-0.13-0.089l-0.095-0.095l-0.114,0.025l-0.17-0.092l-0.374-0.3l-0.075-0.043l-0.089-0.04
	l-0.28-0.073l-0.078-0.051l-0.147,0.001l-0.096-0.015l-0.056-0.034l-0.029-0.008l-0.098,0.029l-0.3-0.021l-0.123,0.023l-0.076,0.058
	l-0.222,0.214l-0.033,0.07l-0.18-0.024l-0.165-0.054l-0.376-0.207l-0.048-0.045l-0.026-0.06l-0.017-0.088l-0.005-0.086l0.006-0.092
	l0.149-0.01l0.178-0.006l0.144-0.024l0.168-0.039l0.124-0.036l0.097-0.052l0.126-0.043l0.237,0.026l0.157-0.02l0.124-0.081
	l0.211-0.159l0.129-0.065l0.44,0.211l0.775,0.195L1348.723,376.667z M1345.082,376.788l0.111-0.068l0.053-0.075l0.11-0.06
	l0.11-0.042l0.001,0.077l-0.058,0.15l-0.038,0.169l0.098,0.167l0.013,0.077l0.058,0.087l0.117,0.04l0.078-0.004l0.071,0.085
	l-0.061,0.032l-0.063,0.045l-0.045-0.005l-0.052,0.006l-0.039,0.038l-0.058,0.116l-0.048-0.055l-0.044-0.017l-0.134-0.022
	l-0.087-0.025l-0.082-0.036l-0.059-0.051l-0.015-0.069l0.055-0.151l0.002-0.08l-0.061-0.048l0.001-0.04l0.03-0.183L1345.082,376.788
	z M1344.646,376.487l0.091-0.081l0.03,0.007l-0.016,0.12l-0.011,0.038l0.042-0.044l0.05-0.035l0.051-0.023l0.049-0.012l-0.038,0.14
	l-0.025,0.037l-0.041,0.026l-0.104,0.03l-0.038,0.032l-0.021,0.044l0.004,0.021l0.017,0.021l0.009,0.044l-0.001,0.053l-0.02,0.125
	l-0.018,0.046l-0.12,0.045l-0.137-0.131l-0.093-0.185l0.009-0.117l0.097-0.077L1344.646,376.487z M1344.337,377.214l0.016,0.044
	l-0.2-0.012l-0.074,0.006l0.03-0.179l-0.003-0.039l-0.014-0.042l0.052-0.019l0.033,0.016l0.055,0.089L1344.337,377.214z
	 M1342.776,376.507l0.155-0.143l0.111-0.011l-0.145,0.138l-0.051,0.082l0.049,0.04l0.024,0.093l-0.038,0.081l-0.074,0.068
	l-0.169,0.106l-0.075,0.032l-0.042-0.026l0.022-0.119l0.085-0.151L1342.776,376.507z M1326.251,381.674l0.076-0.073l0.063-0.091
	l0.012-0.036l0.018-0.095l0.033-0.048l0.052-0.016l0.059-0.01l0.051-0.024l0.04-0.04l0.029-0.042l0.046-0.098l0.033,0.031
	l0.039,0.021l0.035-0.002l0.02-0.036l0.021-0.029l0.081,0.028l0.041-0.016l0.069-0.089l0.058-0.047l0.061,0.005l0.078,0.066
	l0.034,0.071l0.044,0.188l0.027,0.043l0.069-0.064l-0.054-0.417l0.092-0.145l0.08-0.017l0.085-0.006l0.075-0.023l0.047-0.067
	l-0.012-0.078l-0.141-0.111l-0.039-0.107l0.045-0.114l0.228-0.146l0.065-0.116l-0.007-0.211l-0.04-0.107h-0.092l-0.025,0.044
	l-0.012,0.054l-0.037,0.023l-0.097-0.044l0.017,0.048l0.003,0.043l-0.02,0.033l-0.042,0.018l-0.143,0.004l-0.077,0.096l-0.066,0.119
	l-0.112,0.066l-0.079-0.02l-0.08-0.062l-0.066-0.078l-0.04-0.071l-0.02-0.083l0.02-0.038l0.049-0.03l0.063-0.058l0.035-0.043
	l0.086-0.047l0.04-0.032l0.029-0.043l0.043-0.091l0.039-0.032l0.06-0.005l0.038,0.026l0.033,0.004l0.045-0.066l0.049-0.099
	l0.041-0.022l0.064,0.014l0.011,0.045l-0.04,0.057l-0.004,0.053l0.125,0.032l0.082-0.007l0.158-0.051l0.08-0.012l0.291,0.042
	l0.091-0.01l0.071-0.04l0.181-0.263l0.055-0.054l0.067-0.031l0.096-0.002l0.05-0.026l0.1-0.14l0.14-0.074l0.069-0.067l0.056-0.08
	l0.023-0.07l-0.026-0.084l-0.035-0.067l0.01-0.052l0.108-0.042l0.013-0.019l0.008-0.021l0.001-0.024l-0.003-0.024l0,0v-0.001h-0.002
	l0.029-0.248l0.006-0.021l0.012-0.021l0.015-0.019l0.116-0.034l0.059-0.026l0.031-0.039l-0.001-0.063l-0.036-0.045l-0.057-0.029
	l-0.063-0.012l-0.121-0.072l-0.115-0.239l-0.072-0.06l-0.064,0.019l-0.014,0.058v0.065l-0.029,0.039l-0.056-0.016l-0.03-0.06
	l-0.019-0.074l-0.02-0.061l-0.027,0.081l-0.048,0.063l-0.064,0.013l-0.075-0.071l-0.02-0.036l-0.008-0.034l0.004-0.033l0.043-0.084
	l-0.021-0.01l-0.061,0.016l-0.143-0.03l-0.033-0.042l-0.012-0.104l0.031-0.077l0.074-0.005l0.096,0.029l0.101,0.031l0.018,0.011
	l0.012-0.008l0.035-0.047l0.011-0.032l0.011-0.091l0.01-0.039l0.05-0.042l0.075-0.007l0.081,0.001l0.069-0.019l0.089-0.037
	l0.06,0.01l0.057,0.027l0.083,0.016l0.047-0.015l0.131-0.061l0.068-0.016l0.038-0.016l0.015-0.024l-0.008-0.033l-0.023-0.04v-0.001
	v0l-0.004-0.008v-0.009l0.004-0.006l0.005-0.003l0.086-0.04l0.06,0.031l0.037,0.076l0.012,0.094l0.064-0.069l0.02-0.069l0.034-0.028
	l0.107,0.049l0.285,0.28l0.11,0.048l0.437,0.032l0.255-0.037l0.193,0.004l0.32,0.13l0.352,0.104l0.22,0.13l0.118,0.068l0.046,0.02
	l0.13,0.056l0.164,0.027l0.174,0.005l0.102-0.028l0.026-0.067l-0.032-0.177l0.025-0.173l0.587-0.891l0.279-0.665l0.206-0.312
	l0.032-0.158l-0.008-0.48l0.099-0.359l-0.012-0.191l0.014-0.063l0.024-0.046l0.06-0.086l0.059-0.158l0.003-0.041l-0.01-0.028
	l-0.039-0.061l-0.007-0.027l0.021-0.069l0.043-0.049l0.05-0.045l0.042-0.058l0.037-0.121l0.026-0.521l0.002-0.039l-0.023-0.154
	l0.019-0.742l0.052-0.245l0.002-0.057l-0.031-0.109l0.007-0.048l0.146-0.187l0.309-0.61l0.049-0.17l0.001-0.044l-0.011-0.097
	l0.001-0.049l-0.002-0.056l-0.046-0.088l-0.009-0.042l0.019-0.076l0.041-0.024l0.059-0.017l0.068-0.056l0.031-0.071l0.025-0.112
	l0.002-0.108l-0.035-0.056l-0.071-0.042l0.008-0.052l0.037-0.05l0.018-0.036l-0.018-0.037l-0.053-0.042l-0.02-0.035l0.002-0.069
	l0.056-0.209l0.025-0.488l0.079-0.237l-0.013-0.09l-0.015-0.126l0.031-0.141l0.058-0.133l0.066-0.107l0.031-0.027l0.073-0.027
	l0.029-0.02l0.018-0.033l0.015-0.063l0.027-0.026l0.013-0.021l-0.007-0.065l0.014-0.034l0.028-0.023l0.094-0.045l0.062-0.049
	l0.045-0.045l0.035-0.054l0.033-0.074l0.069-0.222l0.032-0.032l0.107-0.047l0.072-0.112l0.083-0.094l0.089,0.003l0.045,0.002h0.001
	h0.002l0.015-0.032l0.038-0.069l0.002-0.001v-0.001l0.014,0.003h0.001l0.125-0.118l0,0l0.026-0.036v-0.001l0.024-0.013h0.001
	l0.025,0.042v0.001v0.001l0.064-0.098l0,0l0.046-0.033l0.079-0.016h0.002l0.083,0.005l0.049,0.026l0.083,0.083l0.013,0.167
	l0.042,0.292l-0.012,0.042l-0.021,0.029l0,0l-0.026,0.012h-0.003l-0.034-0.003h-0.001l-0.226,0.258l0,0l-0.083,0.155l0.033,0.143
	l0.074,0.042l0.085,0.002l0,0l0.159-0.022h0.002l0.077,0.01l0.071,0.02l0.07,0.03l0.571,0.374l0.174,0.086l0.156,0.059l0.067,0.04
	l0.061,0.064l0.008,0.017l0.032,0.061l0.027,0.078l0.043,0.067l0.085,0.044l0.289,0.046l0.13,0.048l0.101,0.114l0.03,0.126
	l-0.012,0.133l-0.093,0.365l0.055,0.02l0.176-0.062l0.063,0.011l-0.046,0.078l-0.082,0.082l-0.043,0.032l0.014,0.106l0.082,0.036
	h0.194l0.092,0.026l0.384,0.196l0.075,0.052l0.026,0.065l-0.037,0.085l-0.153,0.105h-0.044l-0.106-0.019l-0.033,0.004l-0.011,0.046
	l-0.106,0.271l0.054,0.06l0.092,0.01l0.1-0.004l0.083,0.018l0.063,0.07l0.016,0.085l-0.027,0.085l-0.063,0.068l-0.08,0.022
	l-0.203,0.032l-0.024,0.043l0.053,0.034l0.289,0.123l0.094,0.061l0.059,0.059l0.03,0.076l0.014,0.112l-0.011,0.192l-0.042,0.163
	l-0.13,0.324l-0.015,0.192l0.11,0.085l0.178,0.052l0.186,0.095l0.025,0.064l-0.016,0.047l-0.021,0.031l-0.008,0.015l-0.016,0.058
	l0.018,0.087l0.042,0.073l0.055,0.063l0.235,0.221l0.063,0.036l0.065,0.012l0.118-0.022l0.062-0.004l0.088,0.036l0.242,0.156
	l0.069,0.067l0.026,0.094l-0.007,0.088l0.013,0.078l0.083,0.066l0.105,0.007l0.05-0.063l0.04-0.068l0.075-0.011l0.07,0.06
	l-0.016,0.063l-0.002,0.059l0.11,0.045h0.087l0.259-0.072l0.089-0.014l0.162,0.001l0.085-0.021l0.04-0.029l0.062-0.067l0.048-0.019
	l0.038-0.002l0.121,0.009l0.212-0.01l0.103-0.023l0.054-0.047l0.024-0.056l0.03-0.008l0.034,0.029l0.035,0.057l0.039,0.043
	l0.039,0.001l0.042-0.015l0.051-0.007l0.781,0.088l0.206-0.01l0.161-0.073l0.064-0.143l-0.154-0.057l-0.413-0.016l-0.21-0.052
	l-0.107-0.053l-0.06-0.068l0.013-0.103l0.081-0.071l0.102-0.043l0.076-0.021h-0.006l-0.029-0.024l-0.004-0.002l0.043-0.021
	l0.032,0.007l0.026,0.012l0.025,0.002l0.075-0.051l0.002-0.012l0.151,0.006l0.053-0.009l0.364-0.018l0.125,0.006l0.018-0.008
	l0.019-0.041l0.02-0.007l0.141,0.03l0.053-0.007l0.073-0.043l0.031-0.056l0.021-0.058l0.04-0.056l0.057-0.015l0.047,0.013
	l0.019-0.011l-0.028-0.084l-0.03-0.036l-0.042-0.029l-0.036-0.031l-0.01-0.045l0.011-0.031l0.016-0.03l0.013-0.031l-0.002-0.034
	l-0.011-0.067l-0.007-0.13l-0.025-0.065l-0.031-0.043l-0.056-0.094l-0.029-0.04l-0.1-0.104l-0.018-0.01l-0.022-0.003l-0.021-0.007
	l-0.016-0.027l0.001-0.015l0.012-0.042v-0.013l-0.062-0.086l-0.04-0.03l-0.059,0.003l-0.154,0.022l-0.337-0.012l-0.161,0.03
	l-0.193-0.021l-0.22-0.145l-0.2-0.187l-0.135-0.156l-0.049-0.088l-0.064-0.276l-0.037-0.085l-0.055-0.074l-0.149-0.144l-0.185-0.053
	l-0.565-0.014l-0.181-0.039l-0.101-0.033l-0.057-0.043l0.007-0.064l0.074-0.04l0.098-0.035l0.236-0.139l0.047-0.061l-0.009-0.112
	l-0.053-0.093l-0.175-0.195l-0.067-0.093l-0.032-0.206l0.146-0.058l0.188-0.001l0.092-0.042l-0.052-0.083l-0.209-0.109l-0.031-0.085
	l0.064-0.081l0.018,0.003l0.085,0.011l0.191,0.101l0.159,0.024l0.565-0.042l0.233,0.03l0.073-0.004l0.042-0.014l0.063-0.045
	l0.045-0.015l0.037,0.001l0.064,0.022l0.034,0.002l0.033-0.014l0.056-0.049l0.025-0.011l0.045,0.006l0.09,0.035l0.048,0.01
	l0.082-0.004l0.048-0.01l0.049,0.008l0.08,0.052l0.152,0.121l0.067,0.036l0.188,0.049l0.688,0.046l0.328,0.083l0.166,0.003
	l0.137-0.056l0.083-0.135l0.091-0.046l0.375,0.048l0.148,0.003l0.079-0.036l0.122-0.097l0.079-0.033l0.077-0.002l0.371,0.055
	l0.274,0.077l0.081,0.002l0.158-0.024l0.083,0.012l1.597,0.107l0.119,0.035l0.017,0.058l-0.012,0.068l0.039,0.065l0.337-0.026
	l0.324,0.015h0.043l0.044,0.007l0.299,0.003l0.146,0.021l0.722,0.254l1.151,0.205l0.125,0.018l0.247,0.009l0.511-0.051l0.051,0.003
	l0.05,0.003l0.071,0.061l0.079,0.112l0.053,0.125l-0.005,0.096l-0.069,0.041l-0.104,0.009l-0.2-0.011l-0.206,0.044l-0.045,0.113
	l0.011,0.162l-0.046,0.191l-0.052,0.098l-0.034,0.043l-0.045,0.029l-0.089,0.012l-0.082-0.01l-0.082,0.001l-0.088,0.042l-0.07,0.137
	l0.18,0.226l-0.023,0.146l0.001,0.08l0.086,0.075l0.195,0.112l0.163,0.174l0.08,0.045l0.095,0.023l0.196,0.014l0.094,0.029
	l0.139,0.061l0.073,0.034l0.089-0.006l0.072-0.019l0.115-0.085l0.076-0.013l0.079-0.009l0.183-0.153l0.181,0.076l0.2,0.056
	l0.199,0.026l0.185-0.006l0.219-0.085l0.055-0.01l0.091,0.013l0.268-0.025l0.066-0.019l0.055-0.002l0.05,0.023l0.032,0.049
	l-0.021,0.024l-0.038,0.016l-0.023,0.02l-0.049,0.026l-0.267,0.047l-0.61,0.183l-0.325,0.002l-0.054,0.02l-0.237,0.194l-0.069,0.03
	l-0.152,0.041l-0.086,0.034l-0.266,0.149l-0.084,0.014l-0.103-0.018l-0.306-0.115l-0.116-0.02l-0.096,0.002l-0.494,0.146
	l-0.053,0.032l-0.036,0.044l-0.076,0.028l-0.09,0.011l-0.082-0.005l0.005-0.029l0.018-0.005l0.003-0.003l0.002-0.006l0.013-0.013
	l-0.081-0.056l-0.083-0.078l-0.04-0.087l0.044-0.081l-0.063,0.045l-0.095,0.025l-0.104,0.002l-0.09-0.024l-0.048-0.052l-0.049-0.079
	l-0.061-0.061h-0.083l-0.071-0.09l-0.034-0.021l-0.049,0.007l-0.041-0.039l-0.042-0.001l-0.037,0.025l-0.014,0.025l-0.048-0.025
	l-0.042-0.028l-0.041-0.01l-0.041,0.008l0.038,0.017l0.015,0.012l0.012,0.022l0.005-0.034l0.155,0.1l0.062,0.071l-0.014,0.079
	l-0.063,0.021l-0.074-0.031l-0.071-0.043l-0.058-0.012l-0.004,0.031l0.079,0.044l-0.014,0.041l-0.063,0.028l-0.072,0.001
	l-0.105-0.042l-0.02-0.048l-0.004-0.063l-0.055-0.085l-0.036,0.02l0.042,0.091l-0.045,0.022l-0.067-0.047l-0.028-0.118l-0.033-0.008
	l-0.015,0.218l0.015,0.097l0.009,0.077l-0.046,0.034l-0.113-0.036l-0.096-0.073l-0.028-0.093l-0.054,0.024l-0.043-0.029l-0.03-0.06
	l-0.019-0.069l-0.036-0.009l-0.002,0.051l0.015,0.048l0.028,0.044l0.039,0.04l-0.063,0.01l-0.103-0.002l-0.193-0.027l-0.048,0.002
	l-0.083,0.047l-0.047,0.003l-0.181-0.044l-0.507-0.002l-0.167-0.033l0.027-0.043l0.013-0.013l-0.066,0.008l0.002,0.043l0.057,0.048
	l0.091,0.022l-0.004,0.029l-0.091,0.029l-0.111,0.02h-0.121l-0.118-0.025l-0.07-0.04l-0.04-0.054l-0.03-0.049l-0.038-0.034
	l-0.081-0.014l-0.045,0.03l-0.029,0.044l-0.031,0.026l-0.121-0.015l-0.046-0.095l-0.014-0.128l-0.036-0.112l-0.077-0.071
	l-0.321-0.189l-0.002,0.029l-0.013,0.065l0.069,0.027l0.178,0.089l0.038,0.002l0.02,0.039l0.048,0.065l0.044,0.083l0.016,0.087
	l0.021,0.021l0.04,0.127l0.044,0.045l0.077,0.007l0.044-0.041l0.029-0.053l0.037-0.034l0.092,0.024l0.046,0.093l-0.023,0.098
	l-0.119,0.044l-0.558-0.056l-0.183,0.006l-0.639,0.165l-0.883,0.39l-0.08,0.131l-0.084,0.063l-0.098,0.043l-0.081,0.017l0.015,0.041
	l-0.028,0.024l-0.053,0.007l-0.061-0.007l-0.058-0.023l-0.051-0.059l-0.134-0.063l-0.188-0.124l-0.114-0.031l-0.005,0.034
	l0.086,0.037l0.236,0.142l0.045,0.059l0.013,0.109l0.068,0.082l0.102,0.051l0.117,0.014l-0.062,0.057l-0.041,0.059l-0.029,0.072
	l-0.02,0.1l0.035,0.009l0.043-0.089l0.048-0.001l0.033,0.057l0.007,0.085l-0.034,0.239l0.039-0.077l0.045-0.065l0.034-0.029
	l0.067,0.031l0.031,0.068l0.006,0.083l-0.008,0.075l-0.005,0.004l-0.052,0.133l0.003,0.021l-0.005,0.017l-0.019,0.001l-0.073-0.021
	l-0.013-0.001l-0.029,0.051l-0.02,0.067l-0.027,0.157l0.029,0.007l0.06-0.045l0.056-0.009l0.029,0.042l-0.021,0.106l0.037,0.009
	l0.108-0.25l0.069-0.11l0.104-0.027l0.059,0.032l0.063,0.054l0.174,0.1l0.072,0.115l0.053,0.103l0.013,0.129l0.009,0.239
	l-0.112,0.155l-0.145,0.057l-0.213-0.001l-0.063,0.031l-0.093,0.028l-0.153,0.016l-0.049,0.027l0.011,0.072l0.079-0.052l0.142-0.028
	l0.145-0.001l0.09,0.034l0.03,0.106l-0.002,0.156l-0.029,0.138l-0.059,0.048l-0.07,0.012l-0.107,0.104l-0.05,0.018l-0.045,0.004
	l-0.099,0.045h-0.141l-0.03,0.045l-0.011,0.14l-0.031,0.014l-0.181,0.01l-0.034,0.029l-0.026,0.037l-0.029,0.03l-0.091,0.008
	l-0.101,0.042l-0.034,0.006l-0.053-0.006l-0.139,0.023l-0.168-0.009l-0.091,0.015l-0.077,0.024l-0.085,0.013l-0.11-0.015
	l-0.063,0.009l-0.524,0.236l-0.134,0.017l-0.057-0.004l-0.051-0.013l-0.283-0.129l-0.194-0.058l-0.1-0.054l-0.084-0.076l-0.081-0.06
	l-0.094-0.005l0.006-0.029l-0.169,0.036l-0.063-0.013l-0.033-0.062l-0.007,0.014l-0.004,0.013l-0.007,0.006l-0.023-0.008l0.02,0.125
	l-0.113,0.053l-0.15,0.007l-0.091-0.012l-0.278-0.079l-0.102-0.067l-0.047-0.13l0.047-0.267l-0.037-0.122l-0.175-0.049l-0.068,0.004
	l-0.031,0.019l-0.013,0.044l-0.012,0.08l0.018,0.019l0.051-0.029l0.076-0.065l0.093,0.057l-0.059,0.069l-0.014,0.049l0.034,0.101
	l0.018,0.126l0.031,0.076l-0.021,0.017l-0.198,0.021l-0.131-0.053l-0.098-0.103l-0.032-0.128l-0.037,0.02l0.018,0.013l0.005,0.002
	v0.006l0.004,0.021l-0.051,0.024l-0.006,0.077l0.038,0.185l0.07-0.008l0.037,0.034l0.01,0.061l-0.007,0.074l-0.02,0.075
	l-0.029,0.054l-0.092,0.098l0.08-0.018l0.06-0.051l0.041-0.069l0.024-0.073l0.036-0.168l0.045-0.027l0.428,0.102l0.049,0.027
	l0.022,0.043l0.063,0.057l0.078,0.05l0.073,0.028l-0.089,0.138l-0.322,0.855l-0.092,0.16l-0.126,0.13l0.055,0.019l0.058-0.03
	l0.448-0.505l0.068-0.057l0.067-0.027l0.063-0.013l0.052-0.029l0.055-0.138l0.084-0.111l0.037-0.065l0.083-0.293l0.038-0.029
	l0.219-0.084l0.081,0.001l0.171,0.028l-0.029,0.012l-0.054,0.023l-0.049,0.031l0.097,0.002l0.284,0.053l0.111,0.046l0.149,0.171
	l0.022,0.036l-0.022,0.051l-0.042,0.001l-0.043-0.034l-0.025-0.053l-0.033-0.008l-0.005,0.031l0.058,0.069l0.039,0.064l0.021,0.072
	l0.005,0.093l-0.033,0.171l0.011,0.064l0.076,0.042l0.03,0.003l0.108,0.007l0.161-0.025l0.158-0.048l0.129-0.063l0.027-0.004
	l0.053,0.022l0.037-0.004l0.007-0.01l0.005-0.018l0.01-0.019l0.019-0.009l0.051-0.044l0.036-0.011l0.04,0.036l0.022,0.077
	l-0.019,0.067l-0.028,0.064l-0.007,0.067l0.093,0.116l0.151,0.084l0.125,0.091l0.005,0.138l0.076-0.059l0.06,0.036l0.015,0.069
	l-0.065,0.042l0.047,0.117l0.061-0.056l0.064-0.121l0.059-0.078l-0.08-0.067l0.026-0.075l0.079-0.064l0.079-0.032l0.053-0.001
	l0.152,0.022l0.163-0.016l0.171,0.026l0.031,0.022l0.05,0.061l0.016,0.046l-0.004,0.11l0.02,0.05l0.067,0.045l0.257,0.124
	l0.073,0.02l-0.048-0.028l-0.024-0.036l-0.016-0.037l-0.027-0.03l-0.049-0.017l-0.098-0.01l-0.05-0.024l-0.058-0.063l-0.028-0.08
	l0.003-0.085l0.03-0.084l0.126-0.14l0.151-0.047l0.168-0.014l0.179-0.035l-0.035,0.064l-0.016,0.021l0.109,0.026l0.092-0.01
	l0.186-0.047l0.101,0.002l0.101,0.021l0.192,0.079l0.344,0.245l0.149,0.154l0.007,0.098l0.045,0.141l0.033,0.061l0.039,0.032
	l0.063,0.028l0.07,0.048l0.203,0.193l0.047,0.059l0.014,0.06l-0.024,0.058l-0.047,0.071l-0.053,0.058l-0.043,0.02l-0.115-0.059
	l-0.211-0.174l-0.111-0.049l-0.146,0.018l-0.065-0.007l-0.146-0.067l-0.062-0.001l-0.032,0.072l0.103,0.006l0.205,0.103l0.07,0.008
	l0.039-0.03l0.018-0.027l0.021-0.019l0.053-0.005l0.035,0.016l0.029,0.031l0.028,0.044l0.007,0.009l0.007,0.011l0.015,0.013
	l0.066,0.031l-0.004,0.018l-0.016,0.02l0.007,0.021l0.047,0.027l0.146,0.054l0.058,0.035l0.039,0.031l0.11,0.119l0.056,0.077
	l0.016,0.017l0.081,0.042l0.161,0.138l0.085,0.043l0.181,0.068l0.173,0.092l0.088,0.062l0.058,0.065l0.17,0.315l0.031,0.078
	l0.004,0.093l-0.032,0.093l-0.099,0.158l-0.03,0.079l-0.052,0.064h-0.083l-0.056-0.048l0.028-0.077l-0.074,0.018l-0.042-0.04
	l-0.037-0.06l-0.053-0.04l-0.043-0.003l-0.029,0.005l-0.03-0.006l-0.046-0.036l0.053,0.063l0.183,0.136l0.034,0.056l0.008,0.049
	l0.056,0.077l0.012,0.047l-0.014,0.038l-0.06,0.048l-0.016,0.055l-0.123-0.067l-0.261-0.083l-0.101-0.081l-0.028-0.053l-0.022-0.063
	l-0.029-0.064l-0.053-0.056l-0.069-0.042l-0.06-0.025l-0.057-0.031l-0.06-0.063l-0.136-0.238l-0.024-0.03l-0.053-0.05l-0.026-0.032
	l-0.011-0.046l0.017-0.039l0.026-0.032l0.01-0.024l-0.05-0.116l-0.096-0.102l-0.123-0.069l-0.13-0.02l0.194,0.139l0.1,0.087
	l0.036,0.079l-0.005,0.129l0.031,0.09l0.241,0.355l0.042,0.046l0.1,0.066l0.079,0.084l0.032,0.023l0.018,0.032l0.002,0.071
	l-0.016,0.044l-0.083,0.134l-0.063-0.045l-0.072-0.025l-0.052-0.05l-0.029-0.054l-0.013-0.046l-0.028-0.039l-0.072-0.033
	l-0.146-0.023l-0.051-0.035l-0.068-0.037l-0.041-0.057l-0.014-0.059l-0.022-0.053l-0.054-0.042l0.021,0.133l0.073,0.082l0.226,0.136
	l0.046,0.057l0.099,0.158l0.036,0.038l0.221,0.047l0.06,0.028l0.047,0.087l-0.045,0.076l-0.093,0.051l-0.1,0.003l-0.05-0.003
	l-0.116,0.012l-0.06-0.002l-0.357-0.086l-0.207-0.01l-0.122-0.021l-0.05-0.001l-0.101,0.036l-0.052,0.011h-0.065l-0.053-0.007
	l-0.051-0.021l-0.062-0.034l-0.204-0.152l-0.47-0.532l-0.056-0.042l-0.056-0.033l-0.049-0.042l-0.035-0.069l0.061,0.15l0.012,0.019
	l0.122,0.19l0.066,0.085l0.07,0.046l0.072,0.057l-0.037,0.075l-0.13,0.113l0.102,0.018l0.086-0.004l0.086,0.005l0.1,0.045
	l0.325,0.293l0.112-0.029l0.18-0.003l0.334,0.034l0.169,0.038l0.079,0.036l0.056,0.057l0.027,0.09l-0.019,0.067l-0.031,0.067
	l-0.015,0.089l0.035,0.01l0.059-0.088l0.064-0.07l0.085-0.035l0.116,0.01l0.046,0.019l0.082,0.047l0.051,0.014l0.049-0.007
	l0.106-0.038l0.099-0.014l0.062-0.031l0.066-0.009l0.072,0.053l0.006,0.037l0.003,0.111l0.082,0.149l0.028,0.036l0.021,0.014
	l0.017,0.022l0.018,0.053l0.02,0.095l-0.002,0.052l-0.027,0.015l-0.074,0.006l0.005,0.063l0.033,0.083l0.018,0.066l-0.02,0.077
	l-0.031,0.084l-0.044,0.072l-0.055,0.045l-0.042,0.01l-0.055,0.004l-0.054-0.012l-0.076-0.074l-0.048-0.003l-0.104,0.042
	l0.245,0.206l0.099-0.03l0.137-0.058l0.124-0.077l0.062-0.082l0.056-0.028l0.087,0.077l0.052,0.123l-0.048,0.109l-0.045,0.047
	l-0.01,0.053l0.001,0.123l0.024,0.021l0.14-0.017l0.042,0.001l0.073,0.114l-0.077,0.084l-0.219,0.082l-0.084-0.033h-0.21
	l-0.109-0.044l-0.055-0.056l-0.083-0.114l-0.068-0.057l-0.077-0.037l-0.354-0.077l-0.276-0.114l-0.095-0.052l-0.171-0.166
	l-0.102-0.055l-0.106-0.011l-0.108,0.013l-0.1,0.034l-0.082,0.044l-0.067-0.015l-0.157-0.194l-0.072-0.06l-0.104-0.034l-0.097-0.044
	l-0.088-0.056l-0.077-0.068l0.028,0.062l0.053,0.061l0.121,0.101l0.044,0.07l0.04,0.029l0.118-0.012l0.037,0.039l0.051,0.109
	l0.076,0.079l0.064,0.012l0.182-0.053l0.063-0.007l0.049,0.001l0.11,0.028l0.057,0.026l0.084,0.074l0.045,0.024l0.302,0.122
	l0.066,0.043l0.03,0.1l-0.082,0.019l-0.215-0.053l-0.05-0.027l-0.091-0.076l-0.063-0.021l-0.517,0.08l-0.101-0.014l-0.212-0.083
	l-0.098-0.021l-0.112,0.018l-0.005,0.035l0.312,0.127l0.616,0.129l0.007-0.035l-0.066-0.023l-0.06-0.04l-0.03-0.035l0.016-0.009
	l0.043,0.005l0.062-0.001l0.063-0.008l0.047-0.017l0.06-0.01l0.069,0.023l0.115,0.073l0.018,0.03l0.001,0.061l0.015,0.017
	l0.035,0.005l0.025-0.005l0.029-0.012l0.058-0.002l0.128-0.024l0.049-0.024l0.034,0.001l0.251,0.115l0.048,0.063l0.033,0.075
	l0.046,0.078l0.076,0.076l0.068,0.024l0.082,0.006l0.119,0.021l0.108,0.048l0.085,0.071l0.065,0.085l0.113,0.212l-0.004,0.055
	l-0.151,0.085l-0.077,0.005l-0.125-0.027l-0.216-0.075l-0.085-0.051l-0.138-0.103l-0.111-0.044l-0.102-0.006l-0.178,0.042
	l-0.088-0.002l-0.006,0.035l0.07,0.05l0.063,0.004l0.065-0.014l0.072-0.002l0.077,0.021l0.041,0.03l0.064,0.102l0.05,0.065
	l0.043,0.043l0.167,0.127l0.035,0.035l-0.002,0.023l-0.068,0.009l-0.005,0.032l0.122,0.032l0.198,0.004l0.115,0.052l0.154,0.128
	l0.057,0.001l0.063-0.087l0.052,0.073l0.043,0.097l0.022,0.107l-0.006,0.096l-0.064,0.076l-0.095,0.003l-0.085-0.042l-0.029-0.061
	l-0.052-0.024l-0.422,0.037l-0.042-0.004l-0.058-0.014l-0.024,0.015l0.02,0.051l0.04,0.06l0.04,0.031l0.018,0.035l-0.027,0.059
	l-0.07,0.089l-0.049,0.037l-0.035,0.012l-0.416,0.007l-0.083-0.012l-0.099-0.041l-0.194-0.108l-0.113-0.033l-0.107,0.005
	l-0.156,0.068h-0.079l-0.217-0.092l-0.093-0.01l-0.004-0.002l-0.084-0.111l-0.118-0.023l-0.102-0.001l-0.086,0.017l-0.294,0.135
	l-0.109,0.017l-0.032-0.08l-0.142,0.042l-0.064,0.009l-0.267-0.017l-0.048-0.012l-0.047-0.027l-0.058-0.059l-0.035-0.02
	l-0.116-0.011l-0.207,0.033l-0.186-0.009l-0.053,0.045l-0.08,0.131l-0.048-0.125l-0.107-0.06l-0.133-0.017l-0.131,0.011
	l-0.112,0.029l-0.11-0.01l-0.065-0.002l-0.148,0.018l-0.089-0.014l-0.062-0.05l-0.052-0.071l-0.063-0.071l-0.061-0.038l-0.091-0.045
	l-0.091-0.034l-0.067-0.007l-0.059,0.04l-0.063,0.119l-0.073,0.037l-0.244,0.036l-0.085,0.028l-0.122,0.059l-0.058,0.003
	l-0.093-0.03l-0.129-0.083l-0.244-0.081l-0.109-0.098l-0.211-0.328l-0.076-0.153l-0.037-0.053l-0.047-0.039l-0.039-0.011
	l-0.028,0.021l-0.019,0.128l-0.017,0.039l-0.026,0.034l-0.167,0.298l-0.029,0.075l-0.002,0.064l0.018,0.047l0.021,0.04l0.011,0.042
	l-0.011,0.048l-0.15,0.282l-0.064,0.047l-0.101,0.021l-0.105-0.026l-0.084-0.07l-0.149-0.162l-0.528-0.391l-0.102-0.039
	l-0.059,0.048l0.034,0.074l0.07,0.078l0.01,0.064l-0.142,0.032l-0.032,0.044l-0.112,0.112l-0.097,0.055l-0.206,0.057l-0.084,0.049
	l-0.014,0.035l-0.008,0.095l-0.028,0.041l-0.055,0.033l-0.032-0.006l-0.034-0.027l-0.058-0.025l-0.021,0.019l-0.019,0.045
	l-0.029,0.039l-0.055-0.009l-0.416-0.223l-0.046-0.006l-0.079,0.012l-0.045-0.014l-0.048-0.038l-0.088-0.098l-0.051-0.041
	l-0.044-0.012l-0.044-0.002l-0.045-0.008l-0.042-0.028l-0.042-0.09l0.013-0.092l0.026-0.095l-0.001-0.093l-0.035-0.076l-0.129-0.223
	l-0.047-0.061l-0.083-0.038l-0.104-0.015l-0.096,0.001l-0.062,0.015l-0.083-0.082l-0.057-0.074l-0.046-0.01l-0.046,0.105
	l-0.063-0.003l-0.088,0.067l-0.059,0.007l-0.043-0.019l-0.094-0.058l-0.053-0.021l-0.103-0.006l-0.046-0.012l-0.053-0.042
	l-0.033-0.059l-0.018-0.113l-0.019-0.082v0l-0.038-0.026l-0.064-0.075l-0.04-0.028l-0.02,0.005l-0.081-0.01l-0.021,0.003
	l-0.193-0.028l-0.154,0.068l-0.116,0.126l-0.04,0.094l0.099,0.081l0.088,0.098l-0.014,0.104l-0.116,0.207l-0.07,0.296l-0.042,0.101
	l-0.323,0.27l-0.835,1.043l-0.054,0.125h-0.035l-0.077,0.022l-0.057,0.026l-0.021,0.014l-0.025-0.002l-0.248-0.073l-0.031,0.006
	l-0.078,0.048l-0.105,0.018l-0.046,0.067l-0.042,0.083l-0.139-0.067l-0.078-0.064l-0.07-0.084l-0.203-0.083l-0.011-0.058
	l0.002-0.061l-0.037-0.046l-0.062-0.025l-0.057-0.029l-0.026-0.04l0.021-0.058l-0.077-0.069l-0.047-0.082l-0.052-0.062l-0.093-0.013
	l-0.176,0.012l-0.045,0.01l-0.03,0.019l-0.021-0.006l-0.072-0.264l-0.01-0.093l0.025-0.087l0.063-0.061l0.092-0.041l0.102-0.016
	l0.086,0.021l0.015-0.056l0.086-0.179l0.022-0.075l-0.022-0.051l-0.123-0.124l-0.164-0.217l-0.098-0.087l-0.122-0.051l-0.105-0.143
	l-0.128-0.094l-0.303-0.127l-0.268-0.064l-0.07-0.068l0.006-0.163l0.033-0.07l0.083-0.127l0.055-0.114l0.014-0.019l0.006-0.02
	l-0.002-0.056l-0.013-0.038l-0.049-0.073l-0.006-0.045l0.035-0.159l0.053-0.132l0.15-0.247l0.078-0.264l-0.018-0.045l-0.093-0.075
	l-0.028-0.04v-0.039l0.016-0.027l0.021-0.026l0.165-0.282l0.03-0.115l-0.113,0.038l-0.001-0.087l-0.044-0.027l-0.065-0.005
	l-0.063-0.022l-0.042-0.054l-0.085-0.205l-0.038-0.044l-0.046-0.025l-0.048-0.002l-0.044,0.023l-0.033,0.225l-0.035,0.103
	l-0.089,0.055l-0.025,0.021l-0.024,0.093l-0.021,0.043l-0.034,0.025l-0.146,0.072l-0.054,0.005l-0.047-0.009l-0.042,0.002
	l-0.043,0.039l-0.029-0.006l-0.152-0.125l-0.102-0.021l-0.07,0.023l-0.06,0.044l-0.072,0.037l-0.041,0.03l-0.077,0.125l0.083,0.02
	l0.011,0.05l-0.01,0.042l-0.016,0.039l-0.001,0.038l0.028,0.059l0.038,0.052l0.029,0.052l0.003,0.057l-0.039,0.09l-0.119,0.12
	l-0.059,0.078l-0.046,0.191l-0.035,0.089l-0.053,0.033l-0.075,0.016l-0.113,0.098l-0.104,0.02l-0.115,0.148l-0.071,0.046
	l-0.293-0.063l-0.151,0.084l-0.277,0.269l-0.354,0.187l-0.102,0.127l0.013,0.219l0.026,0.087l0.019,0.101l-0.013,0.086l-0.071,0.042
	l-0.095,0.005l-0.045,0.01l-0.091,0.049l-0.042-0.012l-0.04-0.019l-0.078,0.01l-0.215-0.026l-0.02-0.02l-0.009-0.028l-0.03-0.035
	l-0.249-0.162l-0.139-0.133l-0.06-0.139l-0.084-0.058l-0.053-0.008l-0.032,0.017l-0.022,0.024l-0.025,0.009l-0.049-0.007
	l-0.021-0.014l-0.023-0.021l-0.142-0.096l-0.048-0.053l-0.06-0.176l-0.024-0.049l-0.028-0.039l-0.022-0.04l-0.009-0.056l0.001-0.098
	l-0.031-0.289l-0.028-0.092l-0.063-0.058l-0.172-0.042l-0.064-0.036l-0.077-0.094l-0.044-0.084l-0.081-0.249l-0.033-0.044
	l-0.039-0.034l-0.014-0.032l0.038-0.038l0.02-0.027l0.011-0.041l0.004-0.046l-0.002-0.036l0.035-0.096l-0.12-0.024l-0.271,0.017
	l-0.115,0.035l-0.077,0.104l-0.102,0.246l-0.065,0.092l-0.004,0.033l0.028,0.025l0.105,0.044l0.023,0.029l-0.028,0.054l-0.069,0.015
	l-0.078-0.017l-0.057-0.043l0,0l-0.081-0.085l-0.28-0.179l-0.06-0.053l-0.075-0.08l-0.044-0.073l0.034-0.034l0.088,0.018
	l0.098,0.033l0.095,0.013l0.076-0.041l0.077-0.146l0.047-0.063l0.076-0.04l0.055-0.044l0.062-0.034L1326.251,381.674z"/></svg>