<?xml version="1.0" encoding="utf-8"?>
<!-- Generator: Adobe Illustrator 15.0.0, SVG Export Plug-In . SVG Version: 6.00 Build 0)  -->
<!DOCTYPE svg PUBLIC "-//W3C//DTD SVG 1.1//EN" "http://www.w3.org/Graphics/SVG/1.1/DTD/svg11.dtd">
<svg version="1.1" id="Ebene_1" xmlns="http://www.w3.org/2000/svg" xmlns:xlink="http://www.w3.org/1999/xlink" x="0px" y="0px"
	 width="1920px" height="1080px" viewBox="0 0 1920 1080" enable-background="new 0 0 1920 1080" xml:space="preserve">

<path fill="#F4E0B6" stroke="#FFFFFF" d="M1084.239,560.722l0.036,0.059l-0.008,0.071l-0.039,0.064l-0.056,0.038l-0.021-0.025
	l-0.026,0.007h-0.058l-0.013,0.051l-0.034,0.029l-0.051-0.003l-0.058-0.04l0.027-0.037l-0.013-0.039l-0.025-0.016l-0.016,0.037
	l-0.021,0.01v-0.058l0.042-0.046l0.083-0.054l0.199-0.058L1084.239,560.722z M1085.512,560.007l-0.018,0.042l0.03-0.018l0.033-0.013
	l0.035-0.006l0.035,0.007l0.009-0.036l0.065,0.009l0.146-0.064l0.145,0.018l0.164-0.04l0.082-0.002l-0.005,0.013l-0.001,0.003
	l-0.001,0.022l0.178-0.062l0.023-0.032l0.086,0.023l0.182-0.004l0.091,0.051l-1.217,0.19l-0.015,0.062h-0.071l-0.084-0.028
	l-0.051-0.028l0.047-0.035l0.078-0.079l0.057-0.022l-0.013,0.013L1085.512,560.007z M1083.369,560.136l0.183-0.035l0.161-0.072
	l0.035-0.032l0.05-0.067l0.329-0.189l0.268-0.033l0.052-0.048l0.082,0.045l0.067,0.022l0.144,0.03l-0.006,0.04l-0.071-0.005
	l-0.061,0.031l-0.123,0.09l-0.299,0.067l-0.121,0.064l-0.18,0.185l-0.13,0.082l-0.361,0.085l-0.165,0.02l-0.051,0.03l0.009,0.021
	l-0.06,0.006l-0.066-0.012l0.15-0.202l-0.014-0.03l-0.064,0.007l-0.124,0.039l-0.06,0.002l0.045-0.067l0.064-0.031l0.072-0.02
	l0.067-0.03l0.081,0.01L1083.369,560.136z M1084.109,559.522l0.06-0.004l0.239-0.144l0.256-0.076l0.527-0.024l0.137,0.02
	l0.119,0.036l0.012,0.013l0.011,0.022l0.015,0.022l0.02,0.017l0.016-0.002l0.031-0.022l0.016-0.005l0.071,0.016h0.03l0.034-0.013
	l0.008-0.013l-0.02-0.037l0.007-0.013l0.021-0.005l0.037,0.009l0.018-0.003l0.039-0.011l0.034,0.003l0.062,0.011l0.134-0.016
	l0.067,0.002l0.055,0.029l0.018-0.009l0.04-0.026l0.185,0.065l0.084-0.015l-0.124-0.028l-0.049-0.035l0.012-0.064l-0.031-0.017
	l-0.068,0.07l-0.097-0.012l0.009-0.074l0.02-0.061l0.058-0.046l0.071-0.017l0.146-0.01l0.067-0.019l0.018-0.023l0.014-0.031
	l0.024-0.013l0.057,0.029l0.027,0.035l0.044,0.099l0.028,0.042l0.161,0.101l0.042,0.007l0.117-0.02l0.098,0.02l0.196,0.084
	l0.097,0.025l0.208,0.028l0.682,0.102l0.123,0.008l0.186-0.022l0.077-0.042l0.044,0.008l0.102,0.061l0,0l0.004,0.001l0.058,0.007
	l0.109-0.037l0.057-0.006l0.045,0.058l0.048,0.136l0.036,0.067l0.05,0.052l0.058,0.038l0.061,0.026l0.029,0.003l0.065,0.005
	l0.036,0.038l0.025,0.062l-0.113-0.069l-0.053-0.008l-0.112,0.021l-0.056-0.008l-0.03-0.055l-0.67-0.088l-0.093-0.053l-0.017-0.038
	l-0.021-0.058l-0.023-0.051l-0.028-0.014l-0.165,0.045l-0.154-0.013l-0.053,0.011l-0.052,0.021l-0.052,0.01l-0.048-0.009
	l-0.039-0.031l0.059-0.027l-0.093-0.031l-0.038-0.018l-0.036-0.04l-0.021,0.062l-0.093-0.001l-0.18-0.056l-0.218-0.009l-0.095-0.038
	l-0.007-0.104l-0.08,0.042l-0.121-0.028l-0.092,0.021l-0.018,0.011l-0.019,0.021l-0.014,0.022v0.042l-0.021,0.001l-0.024-0.007
	l-0.012-0.006l-0.025-0.003l-0.098-0.025l-0.049,0.003l0.079,0.027l0.046,0.024l0.086,0.082l0.009,0.018l-0.014,0.022l-0.021,0.004
	l-0.012-0.024l-0.011-0.031l-0.014-0.02l-0.078-0.011l-0.177,0.007l-0.146,0.035h-0.191l-0.176,0.044l-0.297,0.018l-0.042-0.104
	l-0.099-0.016l-0.217,0.046l-0.313-0.059l-0.115,0.016l-0.063-0.013l-0.028-0.002l-0.039,0.01l-0.313,0.144l-0.108,0.022
	l-0.058,0.001l-0.07-0.009l-0.049-0.029l0.012-0.055l-0.014-0.026h-0.034l-0.026-0.013l-0.026-0.018l-0.03-0.018l0.069-0.017
	L1084.109,559.522z M1081.477,560.486l-0.002,0.013l0.057-0.061l0.037-0.014l0.051,0.01l0.004-0.024l0.008-0.017l0.013,0.002
	l0.023,0.034l0.003,0.028l-0.012,0.028l-0.022,0.04l-0.015,0.062l-0.021,0.043l-0.227,0.197l-0.099,0.053l-0.081,0.009l0.047-0.063
	l-0.021-0.065l-0.047-0.038l-0.025,0.02l-0.019,0.009l-0.067-0.035l0.006-0.02l0.009-0.013l0.014-0.011l0.02-0.012l0.049-0.074
	l0.102-0.073l0.119-0.05l0.104-0.004L1081.477,560.486z M1082.275,559.377l0.086,0.025l0.01-0.008l0.02-0.034l0.017-0.016
	l0.037-0.017l0.095-0.025l0.047-0.003l0.028,0.013l0.034,0.022l0.04,0.023l0.047,0.007l0.011,0.019l-0.002,0.007l-0.009,0.003
	l-0.007,0.009l0.079,0.018l0.076-0.004l0.074-0.02l0.285-0.132l0.036-0.048l0.06,0.021l0.062-0.007l0.188-0.074l0.198-0.034
	l0.264-0.135l0.14-0.047l0.136,0.001l-0.735,0.336l-0.738,0.335l-0.063,0.037l-0.358,0.076l-0.294,0.018l-0.098,0.022l-0.07-0.013
	l-0.037,0.007l-0.157,0.004l0.004-0.023l0.011-0.016l0.031-0.016l0.047,0.005l0.03-0.021l0.052-0.077l0.033,0.021l0.001-0.021
	l0.016-0.053l0.011,0.025l0.092-0.081l0.116,0.015l0.113,0.028l0.082-0.04l-0.12-0.05l-0.102-0.011l-0.04-0.02l0.046-0.013
	L1082.275,559.377z M1082.779,558.597l0.033-0.004l0.021-0.015l0.008-0.029l0.036,0.01l0.085,0.038l0.037-0.004l0.024-0.016
	l0.024-0.005l0.04,0.031l-0.003,0.09l-0.011,0.035l-0.03-0.005l-0.018,0.097l-0.088,0.067l-0.536,0.262l-0.202,0.06l-0.213,0.026
	l-0.296-0.029l-0.076-0.041l0.032,0.006l0.022,0.007l0.021-0.01l-0.011-0.025l0.007-0.007l0.016-0.004l0.015-0.01l-0.03-0.022
	l-0.011-0.028l0.011-0.026l0.031-0.023l-0.073-0.054l-0.084-0.077l0.06-0.029l0.021-0.006l0.142-0.006l0.58-0.234l0.404-0.066
	l0.014,0.026l-0.04,0.019L1082.779,558.597z M1081.166,559.021l0.044,0.06l0.075-0.045l0.077,0.02l0.085,0.047l0.102,0.027
	l-0.021,0.071l-0.091,0.016l-0.255-0.036l-0.175,0.004l-0.079,0.022l-0.011-0.018l0.001-0.008l0.008-0.002l0.007-0.009l-0.04-0.01
	l-0.021-0.025l0.004-0.03l0.038-0.028l0.175-0.062L1081.166,559.021z M1081.088,558.578l0.143-0.008l-0.002,0.03l-0.105,0.061
	l-0.163,0.04l-0.042,0.024l-0.019,0.025l-0.033,0.023l-0.049,0.014l-0.042,0.005l-0.028-0.008l-0.009-0.021l0.018-0.019l0.014-0.004
	l0.021-0.005l0.042-0.013l0.016-0.03l-0.027-0.029l0.039-0.041l0.146-0.039L1081.088,558.578z M1078.879,558.838l0.22,0.002
	l-0.198,0.025l-0.021,0.024l-0.042-0.022l-0.172-0.039l-0.058-0.003l0.01-0.04l0.021,0.016h0.014l0.096-0.027l0.048,0.015
	l0.042,0.028L1078.879,558.838z M1077.694,558.658l0.116,0.036l-0.034-0.007l-0.211-0.004l-0.072-0.014l-0.098-0.054l-0.107-0.023
	l-0.057-0.021l-0.066-0.036l-0.039-0.042l0.026-0.042l0.086,0.029l0.033,0.035l0.309,0.087l0.057,0.032L1077.694,558.658z
	 M1077.716,558.12l0.031,0.042l-0.027-0.003h-0.025l-0.025,0.005l-0.026,0.01l-0.026,0.003l-0.019-0.012l-0.015-0.017l-0.018-0.009
	l-0.086,0.009l-0.05-0.004l-0.044-0.029l0.01-0.015v-0.02h-0.048l-0.07-0.014l-0.065-0.02l-0.033-0.024l-0.039-0.042l-0.121-0.055
	l-0.046-0.033l0.057-0.022h0.058l0.212,0.052l0.093-0.017l0.02-0.002l0.018,0.02l0.04,0.064l0.016,0.02l0.028,0.013l0.048,0.002
	l0.029,0.006l0.037,0.018l0.045,0.032L1077.716,558.12z M1076.766,557.714l0.1,0.052l0.074,0.108l-0.055-0.024l-0.053-0.043
	l-0.044-0.025l-0.022,0.033l-0.018,0.009l-0.012-0.017l-0.011-0.009l-0.011-0.008l-0.014-0.013l-0.01,0.058l-0.077-0.021
	l-0.095-0.046l-0.108-0.03l-0.161-0.084l-0.072-0.02l-0.001-0.018v-0.004l0.002-0.003l0.006-0.013l-0.021-0.017l-0.056-0.052
	L1076.766,557.714z M1075.456,557.857l0.026,0.002l0.016-0.024l0.021-0.009l0.026,0.009l0.03,0.023l-0.032,0.031l-0.07,0.007
	l-0.066-0.027l-0.021-0.068l0.034,0.038L1075.456,557.857z M1076.009,557.916l0.032,0.001l0.03-0.038l0.005,0.047v0.017l0.044-0.011
	l0.035,0.014l0.029,0.035l0.029,0.055l0.034,0.045l0.046,0.029l0.206,0.091l0.04,0.004l0.047-0.014l0.019,0.017l0.135,0.084
	l0.282,0.059l0.031,0.044l-0.062,0.056l-0.202-0.055l-0.03,0.028l0.02,0.007l0.017,0.016l0.021,0.016l0.099,0.022l0.025,0.008
	l0.03,0.007l0.021-0.012l0.019-0.002l0.022,0.031l-0.004,0.026l-0.038-0.006l-0.041-0.017l-0.014-0.01l-0.135-0.019l-0.063-0.02
	l-0.066-0.033l-0.2-0.131l-0.109-0.054l-0.23-0.203l-0.086-0.031l-0.1-0.003l-0.371-0.161l-0.026-0.043l-0.031-0.029l-0.066-0.044
	l0.015-0.01l0.015-0.004l0.012-0.003l0.088,0.042l0.225,0.062l0.027,0.021l0.031,0.031l0.031,0.025l0.03,0.003l0.046-0.004
	L1076.009,557.916z M1075.042,557.478l-0.008,0.028l-0.037,0.008l-0.05-0.03l-0.011-0.035l0.03-0.013l0.003-0.019l-0.013-0.03
	l0.018-0.013l0.054,0.013l0.075,0.027l0.006,0.025l-0.043,0.02L1075.042,557.478z M1074.652,557.429l-0.004,0.02l-0.063-0.007
	l-0.173-0.06l-0.026-0.029l0.065,0.003l0.117,0.025L1074.652,557.429z M1075.021,557.072l-0.017,0.042l-0.054,0.005l-0.043-0.01
	l-0.074-0.025l-0.011-0.035l0.009-0.062l-0.071-0.122l0.01-0.01l0.01-0.012l0.032-0.018l0.043,0.003l0.041,0.026l0.023,0.039
	l-0.002,0.039l0.003,0.029l0.01,0.013l0.042,0.031L1075.021,557.072z M1072.947,556.661l-0.021,0.013l-0.044-0.008l-0.043,0.003
	l-0.031-0.017l-0.014-0.038l-0.007-0.033l-0.01-0.089l0.03-0.101l0.048-0.01l0.017,0.041l-0.007,0.032l-0.036,0.025l-0.002,0.007
	l-0.003,0.01l0.005,0.016l0.016,0.018l0.002,0.025l0.012,0.022l0.013,0.009l0.035,0.027L1072.947,556.661z M1074.662,556.005
	l0.152,0.038l-0.066-0.116l0.07-0.033l0.129,0.022l0.121,0.05l0.116,0.081l0.063,0.024l0.126-0.01l0.053,0.032l0.057,0.05
	l0.071,0.052l-0.062,0.016l-0.112-0.035l-0.065,0.021l-0.005-0.049v-0.019l-0.154-0.02l-0.067,0.003l-0.044-0.012l-0.048-0.003
	l-0.051,0.022l0.012,0.027l0.201,0.021l0.396,0.244l0.188,0.038l-0.063-0.019l-0.07-0.035l-0.073-0.054l-0.067-0.075l0.149,0.009
	l0.405,0.172l0.084,0.013l0.064,0.03l0.116,0.04l0.059,0.027l-0.05,0.041l-0.088-0.011l-0.097-0.025l-0.079-0.003l0.013,0.028
	l0.057-0.012l0.067,0.012l0.066,0.026l0.056,0.035l-0.061,0.024l0.015,0.021l0.015,0.011l0.017,0.005l0.019,0.003l-0.07,0.008
	l-0.155-0.001l-0.074,0.023l0.012,0.025l0.161,0.033l0.012,0.025l-0.076,0.013l-0.076-0.01l-0.074-0.03l-0.072-0.044l-0.012-0.026
	l0.041-0.017l-0.014-0.03l-0.03-0.004l-0.022-0.011l-0.047-0.044l0.031-0.01l0.019-0.016l0.007-0.023l0.001-0.039l-0.097-0.017
	l-0.03,0.001l-0.026,0.017l-0.035,0.045l-0.026,0.009l-0.047-0.021l-0.101-0.088l-0.25-0.073l-0.029,0.007l-0.196-0.029
	l-0.012-0.023l0.015-0.014l0.021-0.029l0.014-0.016l-0.065-0.051l-0.142-0.09l-0.016-0.033l-0.046-0.013l-0.477-0.251l-0.092-0.067
	l-0.071-0.079l0.014-0.006l0.011,0.003l0.174,0.084L1074.662,556.005z M1073.377,556.539l0.169,0.101l0.354,0.155l0.058,0.072
	l-0.063,0.034l-0.113-0.042l-0.154-0.088l-0.053-0.012l-0.013-0.027l0.07-0.009l0.024,0.003l-0.13-0.073l-0.062-0.018l-0.065-0.002
	l-0.002,0.052l-0.024,0.027l-0.04,0.007l-0.044-0.012l-0.011-0.024l0.02-0.009l0,0l-0.007-0.009l-0.022-0.015l0.023-0.089
	l-0.056-0.072l-0.137-0.102l-0.037-0.047l-0.08-0.119l-0.035-0.07l0.078,0.016l0.09,0.004l0.072,0.033l0.021,0.105l0.029,0.031
	l0.043,0.06l0.063,0.106L1073.377,556.539z M1073.942,555.111l0.026,0.039l-0.029,0.057l0.013,0.025l0.028,0.005l0.165,0.064
	l0.09,0.012l0.046,0.018l0.147,0.105l0.06,0.073l-0.002,0.069l-0.114-0.037l-0.216-0.103l-0.127-0.034l0.014,0.031l0.016,0.017
	l0.047,0.019l-0.05-0.01l-0.054,0.006l-0.045,0.018l-0.025,0.024l-0.184-0.089l0.035-0.017l0.038-0.013l0.039-0.006l0.04,0.003
	l-0.012-0.025l-0.017-0.01l-0.006-0.008l-0.006-0.013l-0.016-0.02l0.065,0.02l0.021,0.013l0.02-0.009l-0.072-0.064l-0.041-0.025
	l-0.052-0.01l-0.013-0.01l-0.03-0.039l0.065-0.016l0.066-0.007l-0.016-0.013l-0.03-0.037l0.059-0.019L1073.942,555.111z
	 M1072.916,555.012l0.007,0.084l-0.006,0.07l0.034,0.02l0.004,0.083l0.021,0.061l0.07,0.131l0.091,0.105l0.036,0.065l-0.031,0.044
	l0.034,0.039l0.063,0.045l0.024,0.028l0.022,0.042l0.004,0.059l0.018,0.053l0.058,0.083l0.068,0.048l0.072,0.038l0.066,0.05
	l-0.001,0.044l0.016,0.033l0.025,0.004l0.027-0.037l0.044,0.046l-0.007,0.038l-0.011,0.032l-0.017,0.02l-0.035,0.007l-0.087,0.036
	l-0.199-0.094l-0.191-0.169l-0.072-0.184l-0.014,0.001l-0.011-0.003l-0.011-0.004l-0.016-0.003l-0.02,0.026l-0.032-0.022
	l-0.036-0.049l-0.062-0.132l-0.021-0.036l-0.021-0.01l-0.031,0.01l-0.072-0.036l-0.156-0.228l-0.084-0.037l-0.007-0.019
	l-0.002-0.013l0.004-0.033l-0.059-0.063l0.021-0.023h0.082l0.029,0.008l0.088,0.06l0.035,0.005l0.053-0.02l0.028-0.016l0.007-0.03
	l-0.015-0.064l-0.021-0.019l-0.042-0.059l-0.015-0.043l0.061,0.027l0.01-0.036l-0.084-0.029l-0.073-0.055l-0.2-0.213l-0.031-0.026
	l-0.24-0.124l-0.048-0.039l-0.029-0.06l-0.006-0.099l0.009-0.07l0.021-0.057l0.048-0.038l0.084-0.002l0.044,0.04l0.063,0.168
	l0.052,0.097l0.051,0.065l0.12,0.129l0.137,0.116l0.026,0.017l0.053,0.016l0.071-0.019l0.045,0.003l0.044,0.042L1072.916,555.012z
	 M1072.646,553.682l0.117,0.011l-0.03,0.012l-0.01,0.005l0.019,0.028l0.02,0.021l0.021,0.013l0.02,0.008l0.077,0.058l0.08,0.077
	l-0.061,0.068l0.058,0.012l0.096-0.027l0.054-0.046l0.05,0.068l0.029,0.158l0.057,0.079l0.057,0.025l0.06-0.006l0.13-0.052
	l0.052,0.117l0.247,0.089l0.096,0.095l-0.019,0.007l-0.022,0.041l-0.033,0.023l-0.04,0.007l-0.044-0.011l-0.027,0.046l0.012,0.025
	l0.056,0.02v0.031l-0.035,0.035l-0.053,0.029l-0.057,0.005l-0.185-0.036l-0.1,0.003l-0.026-0.025l-0.03-0.064l-0.06-0.151
	l-0.031-0.026l-0.039,0.048l0.012,0.028l0.055,0.014l-0.075,0.039l-0.25,0.061l-0.086,0.006l-0.1-0.028l-0.096-0.049l-0.07-0.052
	l0.007-0.045l0.018-0.028l0.026-0.016l0.034-0.014l0.003-0.022l-0.019-0.038l-0.015-0.04l0.02-0.028l0.11-0.049l0.035-0.044
	l-0.051-0.046l0.014-0.071l0.001-0.041l-0.01-0.038l-0.021-0.029l-0.024-0.026l-0.011-0.031l0.017-0.05l-0.014-0.048l-0.02-0.033
	l-0.024-0.019l-0.031,0.004l0.021-0.063L1072.646,553.682z M1075.424,546.159l0.038-0.011l0.035-0.02l0.032-0.012l0.033,0.006
	l0.071,0.029l0.032,0.007l0.025-0.007l0.058-0.035l0.033-0.008l0.034,0.004l0.094,0.023l0.023,0.008l0.158,0.021l0.055,0.021
	l0.017-0.009l-0.004-0.042l0.01-0.021l0.025-0.007l0.033,0.005l0.081-0.017l0.081,0.015l0.081,0.04l0.082,0.058l0.086,0.046
	l0.11,0.016l0.069,0.059l0.02-0.008l-0.006-0.069l0.025,0.005l0.084-0.017h0.016l0.018,0.004l0.018,0.007l0.02,0.012l0.026,0.008
	l0.002-0.019l-0.004-0.021l0.016-0.007l0.053,0.021l0.042,0.022l0.027,0.016l0.059,0.055l0.021,0.068l0.052,0.052l0.065,0.069
	l0.031,0.015l0.028,0.009l0.165,0.078l0.132,0.1l0.044,0.024l0.208,0.056l0.037,0.02l0.035,0.038l0.051,0.021l0.186,0.042
	l0.052,0.002l0.232-0.096l0.041,0.004l0.184,0.097l0.034,0.032l0.097,0.115l0.027,0.038l0.052,0.059l0.053-0.004l0.049-0.015
	l0.042,0.025l-0.019,0.013l-0.028,0.032l-0.017,0.014l0.014,0.027l0.049-0.005l0.007,0.003l0.041,0.013l0.032-0.007l0.006-0.064
	l0.05,0.062l0.014,0.038l0.014,0.008l0.055-0.029l0.055-0.056h0.036l0.05,0.058l0.01-0.02l0.005-0.019l0.001-0.017l0.017-0.026
	l0.247-0.097l0.132-0.031h0.126l0.201,0.081l0.039,0.028l0.02,0.032l0.044,0.053l0.025,0.045l0.015,0.02l0.019,0.025l0.031,0.005
	l0.065-0.025l0.395-0.051l0.111,0.021l0.102,0.071l0.009,0.015l0.03-0.021l0.002-0.037l-0.002-0.037l0.02-0.027l0.046-0.022
	l0.194-0.089l0.337-0.055l0.033-0.016l0.024-0.026l0.03-0.058l0.022-0.02l0.229-0.109l0.061-0.007l0.118,0.024l0.065-0.029
	l0.073,0.031l0.058-0.004l0.039-0.043l0.033-0.047l0.046-0.02l0.077,0.037l0,0l0.021-0.002l0.021-0.008l0.018-0.011l0.019-0.016
	l0.033-0.067l0.036-0.168l0.031-0.052h0.077l0.06-0.062l0.07-0.162l0.013-0.058l0.002-0.148l0.018-0.067l0.003-0.003l-0.004-0.029
	l-0.016-0.052V545.9l0.032-0.093l0.047-0.036l0.162-0.019l0.14,0.006l0.036-0.011l0.021-0.031l-0.001-0.033l-0.006-0.042
	l0.007-0.058l0.053,0.016l0.013-0.006l0.016-0.009l0.031-0.056l0.048-0.044l0.021-0.032l0.013-0.044l0.039-0.024l0.047,0.055
	l-0.032,0.055l-0.011,0.031l-0.012,0.043l0.081,0.019l0.046,0.018l0.024,0.028l-0.008,0.035l-0.031,0.025l-0.085,0.05l0.047,0.115
	l0.007,0.026l-0.002,0.021l0.003,0.02l0.023,0.02l0.064,0.025l0.037,0.023l0.132,0.062l0.043,0.057l0.072,0.116l0.049,0.04
	l0.054,0.013l0.063,0.004l0.058,0.018l0.046,0.05l0.002,0.042l-0.023,0.145l-0.02,0.038l-0.017,0.05l0.025,0.082l0.034,0.076
	l0.008,0.04l0.033,0.007l0.102,0.064l0.04,0.014l0.052-0.025l0.022-0.046l0.01-0.049l0.037-0.049l0.015-0.028l0.021-0.02
	l0.035,0.007l0.034,0.023l0.019,0.016l0.021,0.013l0.04,0.012h0.059l0.044-0.012l0.046,0.003l0.062,0.043l-0.042,0.119l-0.179,0.057
	l-0.024,0.007l0.013,0.117l0.056,0.066l0.04,0.016l0.083,0.032l0.04,0.039l-0.004,0.052l-0.114,0.14l0.067,0.047l0.068,0.032
	l0.066,0.011l0.062-0.013l0.116-0.056l0.037,0.003l0.028,0.033l0.024,0.043l0.026,0.035l0.116,0.052l0.131,0.002l0.639-0.126
	l0.08,0.053h0.066l0.07,0.066l0.041,0.097l-0.017,0.049l-0.005,0.014l-0.237,0.129l-0.019-0.003l-0.04-0.025l-0.017-0.001
	l-0.015,0.02l-0.003,0.024l0.001,0.021l-0.009,0.017l-0.11,0.073l-0.062,0.025l-0.064,0.007l-0.045-0.017l-0.092-0.052l-0.044-0.002
	l-0.053,0.044l0.048,0.05l0.074,0.058l0.021,0.07l-0.055,0.042l-0.165,0.062l-0.023,0.059l0.021,0.034l0.039,0.02l0.042,0.015
	l0.034,0.016l0.046,0.039l0.027,0.035l0.06,0.091l0.081,0.106l0.025,0.042l0.012,0.04l0.012,0.055l0.016,0.053l0.025,0.038
	l0.044,0.014l0.048-0.051l0.04,0.018l0.042,0.055l-0.006,0.039l-0.025,0.03l-0.018,0.03l-0.007,0.096l-0.01,0.047l-0.022,0.036
	l-0.044,0.016l-0.089-0.035l-0.044,0.006l-0.055,0.079l0.049,0.077l0.119,0.087l-0.027,0.025l-0.083,0.042l-0.239,0.123
	l-0.102,0.013l-0.063-0.008l0,0l-0.092-0.013l-0.148-0.06l-0.089-0.101l0.001-0.048l0.038-0.076l-0.012-0.044l-0.01-0.013
	l-0.024-0.013l-0.012-0.008l-0.009-0.012l-0.01-0.021l-0.006-0.007l-0.02-0.021l-0.017-0.014l-0.017-0.005l-0.023,0.002
	l-0.084,0.029l-0.04,0.001l-0.054-0.023l-0.213-0.168l-0.024-0.012l-0.021-0.003l-0.02,0.012l-0.007,0.023l0.004,0.027l0.007,0.027
	l0.001,0.022l-0.02,0.026h-0.029l-0.033-0.017l-0.031-0.024l-0.045-0.043l-0.022-0.012h-0.025l-0.018,0.012l-0.027,0.043
	l-0.016,0.017l-0.023,0.01l-0.051,0.011l-0.023,0.009l-0.033,0.038l0.004,0.008l0.013,0.028l0.038,0.042l0.033,0.055l-0.07,0.03
	l-0.088,0.008l-0.033-0.006l-0.059-0.007l-0.062-0.025l0,0l-0.098-0.039l-0.07-0.019l-0.065,0.001l-0.209,0.077l-0.051,0.002
	l-0.176-0.034l-0.081,0.006l-0.063,0.048l-0.012,0.053l0.018,0.054l0.023,0.052v0.051l-0.034,0.054l-0.054,0.043l-0.028,0.012l0,0
	l-0.034,0.015l-0.062,0.017l-0.077-0.001l-0.226-0.069l-0.058-0.004l-0.044,0.021l-0.031,0.041l-0.072,0.289l-0.025,0.067
	l-0.018,0.025l-0.071,0.05l-0.066,0.074l-0.026,0.018l-0.069,0.002l-0.074-0.023l-0.26-0.132l-0.113-0.042l-0.108-0.008
	l-0.097,0.037l-0.047,0.061l-0.051,0.161l-0.041,0.064l-0.029,0.019l-0.065,0.021l-0.134,0.086l-0.018,0.017l0.002-0.032
	l-0.015-0.097l-0.051,0.067l-0.031,0.021l-0.041,0.004l0.008-0.035l-0.002-0.026l-0.015-0.021l-0.029-0.02l-0.029-0.004
	l-0.005,0.021l0.004,0.029l0.001,0.018l-0.081,0.074l-0.05,0.029l-0.05-0.004l-0.037-0.012l-0.124-0.019l-0.063,0.002l-0.146-0.022
	l0.002,0.145l-0.003,0.023l-0.132,0.073l-0.022,0.03l-0.218-0.003h-0.092l-0.167-0.037l-0.112-0.097l-0.012,0.022l-0.031,0.049
	l-0.01,0.023l-0.004-0.039l-0.01-0.026l-0.016-0.022l-0.025-0.026l-0.004,0.064l-0.039-0.008l-0.055-0.027l-0.05,0.004l0.024,0.022
	l0.021,0.023l-0.057,0.034l-0.026-0.015l-0.016-0.036l-0.019-0.03l-0.064-0.076l-0.035-0.011l-0.047,0.101l0.001,0.022l-0.007,0.045
	l-0.015,0.047l-0.017,0.024l0.005,0.053l-0.018,0.031l-0.026,0.029l-0.016,0.041l0.008,0.056l0.019,0.035l0.009,0.03l-0.02,0.05
	l-0.07,0.042l-0.651,0.084l-0.17,0.068l-0.093,0.152l0.005,0.251l-0.011,0.078l-0.021,0.038l-0.064,0.058l-0.018,0.029l-0.005,0.048
	l0.012,0.022l0.019,0.023l0.017,0.051l0.001,0.039l-0.007,0.136l0.022,0.13l0,0l0.011,0.063l-0.062,0.051l-0.118,0.023h-0.132
	l-0.105-0.016l-0.387-0.146l-0.081-0.045l-0.136-0.133l-0.078-0.055l-0.048-0.012l-0.07,0.015l-0.034-0.008l-0.007-0.02
	l-0.002-0.035l-0.016-0.036l-0.042-0.025l-0.042-0.003l-0.033,0.013l-0.06,0.042l-0.281,0.112l-0.145,0.094l-0.037,0.087
	l-0.017,0.041l0.008,0.104l0.012,0.032l0.122,0.238l0.017,0.068l0.013,0.206l0.034,0.077l0.091,0.107l0.021,0.078l-0.015,0.156
	l0.007,0.049l0.004,0.033l0.057,0.099l0.078,0.065l0.08,0.052l0.063,0.066l0.02,0.078l-0.041,0.046l-0.051,0.044l-0.017,0.075
	l0.034,0.067l0.065,0.056l0.128,0.09l0.026,0.015l0.091,0.018l0.039,0.026l0.039,0.034l0.037,0.016l0.04-0.025l0.023-0.021
	l0.051-0.026l0.021-0.02l0.009-0.035l-0.001-0.042l0.009-0.033l0.037-0.015l0.031,0.015l0.028,0.033l0.027,0.039l0.026,0.031
	l0.033,0.013l0.021-0.017l0.018-0.024l0.022-0.007l0.053,0.029l0.067,0.093l0.066,0.039l0.038,0.007l0.042-0.004l0.076-0.02h0.043
	l0.041,0.029l0.037,0.043l0.035,0.051l-0.002,0.007l-0.018,0.022l0.011,0.061l-0.02,0.081l0.008,0.075l0.089,0.038l0.063-0.019
	l0.085-0.094l0.066-0.017l0.055,0.031l0.053,0.062l0.051,0.072l0.165,0.17l0.056,0.067l0.029,0.063l-0.004,0.037l-0.018,0.027
	l-0.011,0.024l0.013,0.033l0.006-0.019l0.032-0.012l0.061-0.011l0.077,0.013l0.047,0.018l0.024,0.034l0.003,0.002l0.024,0.071
	l0.005,0.039l0.001,0.079l0.012,0.047l0.031,0.061l0.086,0.115l0.136,0.15l0.081,0.048l0.189,0.08l0.078,0.056l0.137,0.131
	l0.076,0.052l0.084,0.03l0.044,0.012l0.037,0.003l0.033-0.01l0.072-0.041h0.035l0.067,0.045l0.04,0.054l0.047,0.036l0.149-0.01
	l0.069,0.017l0.071,0.033l0.054,0.034l0.141,0.085l0.212,0.083l0.157,0.088l0.174,0.06l0.05,0.047l0.042,0.064l0.064,0.074
	l0.074,0.048l0.447,0.112l0.687,0.265l0.222,0.101l0.132,0.041l0.093,0.029l0.217,0.019l0.304-0.087l0.119,0.02l0.096,0.082
	l0.107,0.363l0.16,0.169l0.196,0.122l0.173,0.057l0.077,0.011l0.045,0.013l0.039,0.035l0.064,0.07l0.07,0.062l0.071,0.032
	l0.034,0.005l0.526,0.079l0.049,0.022l0.141,0.064l0.19,0.169h0.001l0,0l0.002,0.002l0.062,0.104l-0.053,0.101l-0.143,0.105l0,0
	h-0.002l-0.114-0.01l-0.035,0.039l-0.071-0.007l-0.075-0.031l-0.051-0.027l-0.075-0.055l-0.035-0.045l0.007-0.048l0.051-0.064
	l-0.049,0.003l-0.039,0.041l-0.038,0.056l-0.048,0.048l0.016-0.02l0.036-0.07l-0.029,0.011l-0.031,0.01l-0.031-0.004l-0.035-0.025
	l0.009-0.037l-0.035-0.029l-0.013-0.016l-0.037,0.084l-0.142-0.044l-0.263-0.14l-0.527-0.025l-0.14-0.036l-0.062-0.003l-0.03-0.009
	l-0.043-0.045l-0.033-0.011h-0.035l-0.032,0.009l-0.024-0.002l-0.031-0.014l-0.054-0.035l-0.014-0.014l-0.034-0.05l-0.013-0.012
	l-0.016-0.002l-0.043,0.007l-0.016-0.001l-0.446-0.234l-0.109-0.018l-0.044-0.016l-0.033-0.017l-0.032-0.009l-0.402,0.115
	l-0.207,0.002l-0.222,0.047l-0.357-0.073l-0.01-0.01l-0.011-0.017l-0.016-0.016h-0.02l-0.017,0.012l-0.018,0.03l-0.014,0.012
	l-0.124,0.023l-0.221,0.099l-0.013-0.028l0.058-0.026l0.06-0.048l0.052-0.057l0.033-0.06l-0.063-0.01l-0.075,0.016l-0.288,0.121
	l-0.029,0.025l-0.039,0.061l-0.018,0.016l-0.05,0.031l-0.104,0.093l-0.355,0.168l0.014,0.028l0.108-0.019l0.056,0.012l0.049,0.049
	l-0.182,0.08l0.026,0.04l-0.045,0.015l-0.113,0.003l-0.081,0.03l-0.041-0.001l-0.059-0.019l-0.019,0.007l0.013,0.028l-0.047-0.009
	l-0.065,0.029l-0.036-0.021l0.001,0.008l0.007,0.012v0.011l-0.016,0.006l-0.015-0.048l0.013-0.014l0.023-0.009l0.019-0.03
	l-0.001-0.028l-0.018-0.017l-0.016-0.019l0.001-0.038l-0.046,0.027l-0.015,0.015l-0.01,0.022l-0.027-0.036l-0.032-0.009
	l-0.079,0.006l0.046-0.026l-0.006-0.031l-0.037-0.014l-0.051,0.022l-0.012-0.023l0.01-0.015l0.009-0.02l0.009-0.016l-0.04-0.008
	h-0.014l0.009-0.035l-0.033-0.019l0.008-0.039l-0.047-0.053l0.021-0.037l0.109-0.045l-0.013-0.03l-0.146,0.029l-0.048,0.023
	l0.024-0.039l0.029-0.01l0.031,0.003l0.024-0.004l0.027-0.024l-0.018-0.025l-0.038-0.017l-0.039-0.003l0.033-0.033l0.006-0.038
	l-0.023-0.033l-0.048-0.017l0.037,0.074l-0.022,0.015l-0.101-0.027l-0.058-0.019l-0.02,0.009l-0.03,0.007l-0.021,0.001l-0.028-0.011
	l-0.069-0.048l-0.031-0.016l-0.15-0.014l-0.049-0.017l-0.071,0.003l-0.198,0.069l-0.062-0.026l-0.072-0.078l-0.085-0.003
	l-0.086,0.011l-0.073-0.042l0.106,0.002l0.052-0.009l0.049-0.016l-0.014-0.03h-0.021l-0.013,0.005l-0.004,0.009l-0.002,0.004
	l-0.11-0.034l-0.235-0.012l-0.111-0.035l-0.007-0.003l-0.103-0.067l-0.057-0.026h-0.052l-0.048,0.015l-0.03,0.002l-0.026-0.001
	l-0.044-0.011l-0.028-0.021l-0.024-0.022l-0.036-0.024l-0.25-0.125l-0.129-0.083l-0.079-0.032l-0.07,0.002l-0.193-0.099
	l-0.004-0.014l-0.197-0.087l-0.042-0.006l-0.037-0.01l-0.024-0.024l-0.007-0.045l-0.062-0.015l-0.227-0.092l0.013-0.094l-0.064-0.08
	l-0.097-0.052l-0.08-0.015l0.016-0.057l0.041-0.055l0.054-0.013l0.057,0.069l0.055,0.031l0.05-0.058v-0.075l-0.089-0.022l0.02-0.016
	v-0.01l0.002-0.002l0.02,0.009l0.021-0.009l-0.037-0.043l-0.018-0.013l0.19,0.034l0.097,0.053l0.046,0.014l0.048-0.015l-0.104-0.125
	l0.021-0.02l0.008-0.017l0.002-0.02l0.005-0.027l-0.046,0.005l-0.046-0.018l-0.047-0.032l-0.046-0.039l0.066-0.004l0.117,0.039
	l0.096-0.004l0.266,0.029l0.055-0.003l0.249-0.064l0.062-0.032l-0.012-0.051l-0.052-0.01l-0.206,0.055l-0.021-0.007l-0.141-0.075
	l-0.031-0.006l-0.35-0.016l-0.063-0.023l-0.596-0.242l-0.225-0.135l-0.123-0.056l-0.101-0.003l-0.021-0.016l-0.13-0.036
	l-0.024,0.007l-0.033-0.028l-0.499-0.333l-0.113-0.116l0.011-0.066l-0.031-0.057l-0.052-0.064l-0.048-0.079l-0.108-0.226
	l-0.025-0.072l-0.053-0.286v-0.074l-0.016-0.087l-0.063-0.082l-0.345-0.321l-0.041-0.065l-0.052-0.037l-0.061-0.015l-0.223-0.022
	l-0.425-0.112l-0.237-0.135l-0.051-0.004l-0.072-0.031l-0.046-0.047l0.023-0.057l-0.049-0.021l-0.142-0.034l0.08,0.041l0.012,0.003
	l0.005,0.036l-0.018,0.028l-0.03,0.013l-0.034-0.01l-0.062-0.028l-0.386-0.029l-0.125,0.021l-0.064-0.008l-0.052,0.011l-0.035,0.062
	l-0.019,0.123v0.147l0.022,0.158l0.095,0.299l0.02,0.148l0.002,0.007l0.002,0.017l-0.027,0.123l-0.103,0.002l0.073,0.039l0.02,0.064
	l-0.011,0.074l-0.026,0.065l-0.032-0.022l0.004,0.04l0.011,0.029l0.047,0.071l-0.014-0.002l-0.025-0.002l-0.015-0.005l0.012,0.027
	l0.069,0.033l0.058,0.08l0.035,0.1l-0.003,0.089l-0.022,0.04l-0.025,0.007l-0.028-0.005l-0.035,0.005l-0.03,0.027l-0.02,0.045
	l-0.012,0.051v0.038l-0.02,0.008l-0.027-0.085l0.007-0.047l-0.002-0.037l-0.058-0.067l-0.087-0.031l-0.022-0.027l-0.009-0.031
	l-0.011-0.019l-0.037,0.009l0.032,0.045l0.02,0.078l0.028,0.028l0.038,0.007l0.03-0.009l0.026,0.002l0.029,0.035l-0.019,0.045
	l-0.006,0.097l-0.009,0.029l-0.021-0.016l-0.018,0.007l0.025,0.024l0.02,0.031l0.014,0.04l0.003,0.045l-0.026,0.002l-0.012,0.008
	l0.007,0.011l0.024,0.016l0.013,0.027l-0.015,0.009l-0.002,0.006l0.004,0.009l0.004,0.018l-0.037-0.006l-0.057,0.047l-0.047,0.017
	l0.031,0.01l0.023,0.011l0.04,0.037l-0.02,0.008l0.011,0.025l0.02-0.008l0.014,0.03l-0.014,0.024l-0.007,0.023l-0.002,0.062
	l0.02,0.028l0.009,0.007l0.004,0.011l0.005,0.039l0.029-0.015h0.023l0.021,0.014l0.031,0.023l-0.105,0.05l-0.056,0.013l-0.056-0.011
	l0.002,0.019l0.002,0.006l-0.01,0.014l-0.047-0.059l-0.03,0.004l-0.026,0.02l-0.036-0.007l-0.009,0.038h0.038l0.041,0.011
	l0.03,0.029l0.004,0.048l0.057,0.058l0.021,0.012l-0.032,0.042l-0.029-0.035l-0.029-0.067l-0.033-0.059l-0.03-0.008h-0.103
	l-0.034,0.009v-0.017l-0.005-0.031l0.001-0.015h-0.01l-0.021,0.012l-0.009,0.003l0.007-0.036l-0.033-0.022l-0.029,0.021
	l-0.054,0.002l-0.062-0.014l-0.056-0.028l0.012-0.034l0.05,0.03l0.048-0.004l0.032-0.041l-0.001-0.071l-0.072,0.051l-0.034,0.005
	l-0.047-0.027l-0.012-0.024l0.007-0.017l0.003-0.033l0.004-0.026l-0.05-0.024l-0.137-0.135l-0.179-0.079l-0.243-0.151l-0.032-0.01
	l-0.056-0.027l-0.067-0.018l-0.065,0.013l0.002-0.031l-0.002-0.048l0.004-0.022l-0.115-0.071l0.055-0.081l0.251-0.123l-0.068-0.004
	l-0.074,0.02l-0.136,0.06l-0.063,0.052l-0.035,0.012l-0.028-0.029l-0.013-0.045l-0.007-0.039l-0.017-0.027l-0.038-0.005l0.002-0.034
	l-0.007-0.021l-0.02-0.015l-0.034-0.01l-0.01-0.026l0.018-0.023l0.001-0.031l-0.016-0.033l-0.033-0.035l0.002-0.049l-0.021-0.042
	l-0.035-0.028l-0.048-0.007l-0.001-0.029l0.008-0.027l0.018-0.021l0.031-0.013l-0.012-0.025l-0.035-0.003l-0.032-0.009l-0.026-0.018
	l-0.024-0.027l0.028-0.017l0.02-0.025l0.028-0.055l-0.042-0.004l-0.08,0.029l-0.029,0.006l-0.048-0.02l-0.049-0.038l-0.021-0.043
	l0.035-0.035l-0.011-0.026l-0.051-0.022l-0.195-0.215l0.002-0.011l0.006-0.013l0.001-0.015l-0.021-0.011l-0.002-0.004l0.003-0.009
	l-0.005-0.033l-0.095-0.093l-0.036-0.058l-0.007-0.063l0.019-0.008l0.039,0.013l0.161,0.01l0.064-0.015l0.17,0.076l0.09-0.04
	l0.285-0.129l0.178,0.03l0.057,0.023l0.052-0.005l0.167-0.039l0.021-0.036l0.009-0.051l0.024-0.059l0.111-0.113l0.016-0.067
	l-0.095-0.048l-0.02-0.045l-0.002-0.033l0.015-0.022l0.049-0.009l0.086-0.014l0.051,0.003l0.057,0.023l0,0l0.097,0.023l0.089-0.004
	l0.071-0.025h0.002l0.007-0.003l0.068-0.044l0.111-0.121l0.065-0.053l0.071-0.01l0.139,0.003l0.146-0.03l0.13-0.068l0.084-0.109
	l0.032-0.072l0.077-0.131l0.007-0.085l-0.01-0.064l-0.029-0.1l-0.006-0.019l-0.006-0.059l0.01-0.052l0.038-0.112l0.01-0.058
	l-0.001-0.099l0.013-0.034l0.013-0.013l0.027-0.027l0.04,0.004l0.034,0.062l0.031,0.077l0.027,0.055l0.05,0.04l0.055,0.024
	l0.135,0.038h0.025l0.022,0.002h0.001l0.027,0.016l0.02,0.031l0.022,0.077l0.011,0.02l0.079,0.026l0.323,0.006l0,0l0,0l0,0
	l0.099,0.097l0.132-0.025l0.104-0.097l0.014-0.119l-0.029-0.093l0.052-0.023l0.085,0.016l0.071,0.024l0.045-0.012l0.027-0.008
	l0.041,0.003l0.04,0.013l0.143-0.056l0.04,0.013l0.294,0.092l0.139-0.037l0.102-0.096l0.133-0.129l0.097-0.038l0.027-0.023
	l0.015-0.033l0.02-0.096l0.016-0.035l-0.189-0.036l-0.073-0.054l-0.064-0.076l-0.065-0.102l-0.003-0.003l-0.037-0.039l-0.04-0.035
	l-0.018-0.033l0.027-0.033l0.012-0.025l-0.004-0.038l0.003-0.036l0.072-0.064l0.028-0.034l0.033-0.03l0.06-0.025l-0.031-0.029
	l-0.084-0.059l-0.008-0.005l-0.071-0.032l-0.013-0.004l-0.008,0.01l-0.031,0.023l-0.008,0.018l0.005,0.018l-0.009,0.015
	l-0.044,0.001l-0.034-0.009l-0.024-0.013l-0.054-0.043l-0.04-0.016l-0.025-0.003l-0.014-0.014l-0.001-0.01l-0.003-0.046l0.011-0.038
	l0.087-0.115l0.067-0.06l0.239-0.213l0.002-0.003l0.02-0.039l-0.021-0.04l-0.031-0.037l-0.004-0.044l0.025-0.027l0.034-0.01
	l0.037-0.005l0.035-0.007l0.024-0.023l0.034-0.066l0.021-0.026l0.082-0.02l0.115-0.026l0.109-0.054l0.05-0.04l0.044-0.055
	l0.011-0.054l-0.029-0.059l-0.07-0.068l-0.037-0.047l-0.011-0.055l-0.002-0.057l-0.01-0.058l-0.026-0.07l-0.063-0.125l-0.042-0.082
	v-0.002l-0.017-0.092l0.01-0.064l-0.007-0.05l-0.024-0.015l-0.044-0.028l-0.047-0.01h-0.094l-0.046-0.006l-0.033-0.014l-0.084-0.036
	l-0.082-0.076l-0.048-0.104l-0.012-0.135l0.006-0.124l0.004-0.019l0.015-0.067l0.048-0.059l0.049-0.017l0.212-0.071l0.038-0.06
	l0.013-0.123l0.02-0.035l0.008-0.013l0.032-0.039l0.04-0.03l0.128-0.061l0.004-0.002l0.009-0.004l0.074-0.098l0.063-0.084
	l0.088-0.058l0.028-0.023l0.011-0.011l0.046-0.056l0.038-0.063l0.016-0.048l0.002-0.012l-0.005-0.064l-0.023-0.055l-0.033-0.056
	l-0.033-0.074l0.095-0.02l0.018-0.003l0.031-0.021l0.017-0.035l0.007-0.039l0.013-0.037l0.031-0.021h0.033l0.099,0.036l0.052,0.006
	l0.052-0.01l0.024-0.012l0.09-0.068l0.065-0.028l0.007-0.017l-0.005-0.011l-0.021-0.034l-0.021-0.014l-0.063-0.012l-0.027-0.013
	l-0.023-0.03l-0.025-0.068l-0.018-0.032l-0.086-0.1l-0.037-0.051l-0.011-0.026l-0.014-0.035l0.035-0.116l0.004-0.013l0.071-0.074
	l0.032-0.045l0.046-0.042l0.014-0.048l0.005-0.018l0.032,0.02l0.003,0.001l0.003-0.038L1075.424,546.159z"/></svg>