<?xml version="1.0" encoding="utf-8"?>
<!-- Generator: Adobe Illustrator 15.0.0, SVG Export Plug-In . SVG Version: 6.00 Build 0)  -->
<!DOCTYPE svg PUBLIC "-//W3C//DTD SVG 1.1//EN" "http://www.w3.org/Graphics/SVG/1.1/DTD/svg11.dtd">
<svg version="1.1" id="Ebene_1" xmlns="http://www.w3.org/2000/svg" xmlns:xlink="http://www.w3.org/1999/xlink" x="0px" y="0px"
	 width="1920px" height="1080px" viewBox="0 0 1920 1080" enable-background="new 0 0 1920 1080" xml:space="preserve">

<path fill="#F4E0B6" stroke="#FFFFFF" d="M1077.938,486.021l0.371-0.238l0.085,0.165l0.068,0.098l0.031,0.103l0.038,0.081
	l0.093,0.03l0.293-0.026l0.2,0.068l0.052,0.018l0.307,0.009l0.063,0.013l0.064,0.044l0.074,0.093l0.139,0.248l0.066,0.142
	l0.036,0.105l-0.024,0.108l-0.134,0.233v0.09l0.077,0.06l0.075-0.003l0.076,0.011l0.079,0.103l0.018,0.054l0.022,0.115l0.016,0.055
	l0.021,0.048l0.048,0.088l0.022,0.053l0.063,0.426l0.047,0.178l0.041-0.011l0.043-0.012l0.111-0.223l0.074-0.085l0.114-0.031
	l0.072,0.012l0.149,0.051l0.072,0.01l0.049,0.054l0.02,0.124l0.012,0.133l0.02,0.086l0.083,0.049l0.313,0.029l0.066,0.058
	l0.121,0.19l0.066,0.083l0.072,0.05l0.067,0.022l0.23-0.02l0.056,0.007l0.044,0.041l0.009,0.048l-0.02,0.095l0.018,0.058
	l0.032,0.036l0.04,0.027l0.21,0.084l0.04,0.023l0.035,0.041l0.083,0.15l0.066,0.093l0.068,0.075l0.268,0.232l0.033,0.042
	l0.035,0.065l0.007,0.041v0.039l0.009,0.057l0.044,0.111l0.049,0.107l0.037,0.107l0.008,0.11l-0.121-0.007l-0.068,0.099l-0.02,0.054
	l-0.031,0.084l-0.063,0.109l-0.077,0.079l-0.019,0.033l-0.01,0.061l0.007,0.06l0.013,0.064l0.008,0.073l-0.072,0.219l-0.021,0.12
	l0.054,0.107l0.013,0.184l-0.123,0.294l0.054,0.225l0.108,0.211l0.035,0.103l0.021,0.076l-0.056,0.048l-0.295,0.147l-0.087,0.021
	l-0.096-0.001l-0.098-0.034l-0.011,0.085l-0.037,0.174l-0.03,0.046l-0.083,0.001l-0.215-0.041l-0.065,0.002l-0.1,0.039l-0.263,0.218
	l-0.002,0.005l-0.028,0.062l-0.026,0.248l0.024,0.33l-0.01,0.083l-0.119,0.208l-0.048,0.035l-0.149,0.022l-0.063,0.03l-0.035,0.065
	l0.006,0.118l-0.133,0.067l-0.148,0.039l-0.406,0.027l-0.208-0.03l-0.253-0.157l-0.129-0.099l-0.111-0.061l-0.344-0.074
	l-0.236-0.084l-0.179-0.014l-0.286-0.025l-0.29-0.104l-0.111-0.041l-0.186-0.021l-0.044-0.013l-0.045-0.033l-0.127-0.119
	l-0.037-0.029l-0.035,0.004l-0.127,0.09l-0.042,0.014l-0.146,0.007l-0.134,0.119l-0.262,0.095l-0.595,0.212l-0.116-0.017
	l-0.142-0.092l-0.118-0.116l-0.047-0.029l-0.126-0.046l-0.048-0.031l-0.07-0.066l-0.209-0.228l-0.163-0.148l-0.081-0.049
	l-0.058,0.01l-0.013,0.049l0.018,0.05l0.026,0.049l0.007,0.046l-0.016,0.014l-0.062,0.008l-0.021,0.014l-0.147,0.212l-0.059,0.085
	l-0.046,0.126l-0.029,0.368l-0.016,0.072l-0.084,0.154l-0.056,0.079l-0.086,0.021l-0.207-0.032l-0.09,0.01l-0.062,0.052
	l-0.186,0.304l-0.053,0.045l-0.003,0.003l-0.076,0.024l-0.102-0.003l-0.312-0.061l-0.296,0.052l-0.035,0.006l-0.076,0.04
	l-0.134,0.124l-0.077,0.027l-0.011-0.013l-0.013-0.029l-0.022-0.03l-0.035-0.02l-0.022,0.002l-0.056,0.045l-0.162,0.078
	l-0.059,0.063l-0.09,0.161l-0.084,0.039l-0.294,0.021l-0.19,0.013l-0.056,0.017l-0.227,0.208l-0.026,0.052l0.045,0.035l-0.041,0.192
	l-0.099,0.091l-0.15-0.031l-0.2-0.171l-0.123-0.097l-0.099-0.004l-0.072,0.059l-0.04,0.085l-0.049,0.107l-0.243,0.313l-0.032,0.024
	l-0.049,0.003l-0.163-0.061l-0.079-0.002l-0.008-0.001l-0.165,0.042l-0.665,0.379l-0.055,0.004l-0.121-0.023l-0.057-0.001
	l-0.107,0.045l-0.186,0.259l-0.029,0.042l-0.472,0.654l-0.199,0.113l-0.06,0.09l-0.183,0.427l-0.028,0.031l-0.104,0.059l-0.05,0.075
	l-0.045,0.119l-0.032,0.137l-0.008,0.126l0.035,0.162l0.047,0.129l0.01,0.101l-0.078,0.074l-0.137,0.07l-0.076,0.068v-0.001v-0.001
	l-0.014-0.02l-0.107-0.151l-0.108-0.128l-0.249-0.226l-0.075-0.083l-0.061-0.089l-0.009-0.03l-0.023-0.098l-0.022-0.053
	l-0.024-0.047l-0.023-0.04l-0.115-0.161l-0.051-0.085l-0.041-0.087l-0.016-0.077v-0.075l-0.005-0.041l-0.01-0.046l-0.021-0.052
	l-0.046-0.087l-0.012-0.05l-0.056-0.065l-0.049-0.078l-0.008-0.048l0.063,0.022l0.039,0.039l0.073,0.109l0.048,0.042v0.077
	l0.024,0.008l0.021,0.003l0.033,0.063l0.016,0.03l-0.003,0.074l0.096,0.055l0.025,0.003l0.016-0.021l0.002-0.034l-0.013-0.037
	l-0.074-0.081l-0.045-0.076l-0.037-0.077l-0.016-0.052l-0.026-0.025l-0.051-0.072l-0.034-0.038l-0.029-0.025l-0.021-0.016
	l-0.062-0.018h-0.031l-0.022,0.008l-0.021-0.001l-0.034-0.027l-0.035-0.045l-0.004-0.022l0.002-0.025l-0.072-0.193l-0.052-0.296
	l-0.047-0.157l-0.184-0.388l-0.056-0.084l-0.059-0.07l-0.042-0.073l-0.013-0.092l0.117-0.227l0.001-0.051l0.099-0.175l0.017-0.067
	l0.012-0.18l0.008-0.039l0.019-0.033l0.031-0.095l0.035-0.108l0.005-0.111l-0.022-0.149l-0.057-0.171l-0.095-0.183l-0.031-0.043
	l-0.087-0.108l-0.021-0.049l-0.013-0.074l-0.016-0.041l-0.16-0.288l-0.044-0.096l-0.026-0.087l-0.014-0.093l0.003-0.079l0.025-0.044
	l0.012-0.051l-0.042-0.284l0.038-0.311l-0.029-0.646l0.023-0.118l0.064-0.103l0.397-0.242l0.079-0.083l0.298-0.481l0.438-0.715
	l0.077-0.081l0.048-0.031l0.02-0.022l0.018-0.033l0.022-0.027l0.036-0.01l0.031,0.003l0.002,0.005l-0.006,0.018l0.008,0.037
	l0.071,0.18l0.092,0.188l0.057,0.085l0.058,0.054l0.23,0.132l0.749,0.201l0.278,0.13l0.273,0.074l0.155,0.009l0.086-0.021
	l0.037-0.001l0.025,0.031l0.024,0.043l0.035,0.038l0.108,0.082l0.021,0.017l0.063,0.061l0.065,0.077l0.104,0.146l0.063,0.07
	l0.053,0.017l0.042,0.03l0.29,0.375l0.061,0.055l0.046,0.012l0.049-0.005l0.181,0.076l0.229-0.02l0.212-0.065l0.043,0.009
	l0.204,0.113l0.031,0.007l0.021,0.005l0.124-0.021l0.15-0.061l0.324-0.311l0.096-0.146l0.041-0.063l0.04-0.125l0.005-0.085
	l-0.005-0.075l0.007-0.061l0.07-0.074l0.051-0.108l0.13-0.274l-0.017-0.073l0.014-0.075l0.031-0.063l0.029-0.037l-0.026-0.047
	l0.004-0.043l0.03-0.071l0.042-0.266l-0.022-0.149l-0.081-0.187l-0.124-0.198l-0.365-0.519l-0.097-0.162l-0.065-0.092l-0.047-0.03
	l-0.044-0.045l-0.057-0.122l-0.065-0.177l-0.174-0.245l-0.044-0.052l-0.196-0.12l-0.077-0.066l-0.046-0.08l-0.142-0.194
	l-0.066-0.102l-0.024-0.06l-0.016-0.062l-0.005-0.061l0.119-0.011l0.06-0.038l0.033-0.06l-0.001-0.059l-0.023-0.125l0.007-0.05
	l0.058-0.099l0.05-0.178l0.037-0.036l0.161-0.071l0.122-0.091l0.018-0.049l-0.03-0.145l0.006-0.063l0.078-0.02l0.079,0.007
	l0.063-0.022l0.01-0.037l0.019-0.071l0.031-0.067l0.15-0.121l0.031-0.074l0.046-0.219l0.01-0.051l0.029-0.06l0.041-0.046
	l0.099-0.062l0.079,0.008l0.083,0.074l0.083,0.097l0.081,0.08l0.048,0.01l0.034-0.02l0.047-0.079l0.007-0.086l-0.056-0.062
	l-0.13-0.084l-0.042-0.078l0.012-0.045l0.043-0.016l0.059,0.012l0.032,0.022l0.072,0.064l0.028,0.019l0.026,0.001l0.012-0.011
	l0.009-0.016l0.021-0.014h0.116l0.23,0.097l0.119,0.009l0.087-0.026l0.029,0.004l0.039,0.021l0.017,0.023l0.004,0.004l0.02,0.028
	l0.031,0.028l0.083,0.039l0.066,0.003l0.055-0.022l0.052-0.036l0.09-0.112l0.019-0.023l0.033-0.018l0.068,0.041l0.073,0.077
	l0.078,0.072l0.088,0.024l0.477-0.225l0.034-0.002l0.028,0.013l0.031,0.037l0.008,0.031l0.003,0.034l0.018,0.044l0.06,0.086
	l0.051,0.042l0.366,0.074l0.125,0.047l0.419,0.241l0.13,0.05l0.13,0.016l0.035-0.003l0.218-0.023h0.001l0.059,0.017l0.139,0.068
	l0.069,0.025l0.029-0.026l0.013-0.047l0.018-0.036l0.023-0.006l0.061,0.007l0.024-0.005l0.015-0.025l-0.006-0.033l-0.012-0.037
	l-0.002-0.036l0.026-0.101l0.043-0.087l0.057-0.07l0.172-0.092l0.031-0.036l0.018-0.07l-0.011-0.076l-0.017-0.077v-0.076
	l0.027-0.044l0.04,0.005l0.041,0.017l0.038-0.013l0.032-0.033l0.037-0.022l0.091-0.019l0.077,0.013l0.158,0.083l0.077,0.028
	l0.067-0.004l0.178-0.096l0.409-0.074L1077.938,486.021z"/></svg>