<?xml version="1.0" encoding="utf-8"?>
<!-- Generator: Adobe Illustrator 15.0.0, SVG Export Plug-In . SVG Version: 6.00 Build 0)  -->
<!DOCTYPE svg PUBLIC "-//W3C//DTD SVG 1.1//EN" "http://www.w3.org/Graphics/SVG/1.1/DTD/svg11.dtd">
<svg version="1.1" id="Ebene_1" xmlns="http://www.w3.org/2000/svg" xmlns:xlink="http://www.w3.org/1999/xlink" x="0px" y="0px"
	 width="1920px" height="1080px" viewBox="0 0 1920 1080" enable-background="new 0 0 1920 1080" xml:space="preserve">

<path fill="#F4E0B6" stroke="#FFFFFF" d="M278.287,102.735l-0.058,0.086l-0.133,0.063l0.025-0.086l0.109-0.122l-0.003-0.06
	l-0.047-0.009l-0.064,0.032l-0.119,0.079l-0.132-0.026l-0.026-0.182l0.032-0.366l0.134-0.028l0.302-0.131l0.111-0.001l0.046,0.091
	l0.009,0.159l-0.021,0.174l-0.051,0.13l-0.075,0.098L278.287,102.735z M278.191,98.424h-0.039l-0.011-0.025l0.023-0.053l-0.041-0.03
	l-0.026-0.022l-0.045-0.067l-0.032,0.015l0.013,0.114l-0.039,0.004l-0.05-0.045l-0.012-0.034l0.002-0.046l-0.005-0.086l0.022-0.07
	l0.082,0.005l0.071,0.014l0.051-0.015l0.048-0.003l0.058,0.052l0.038,0.064l0.012,0.062l-0.018,0.063l-0.044,0.076L278.191,98.424z
	 M284.428,122.638l-0.017-0.004l0.004-0.019l0.017,0.002L284.428,122.638z M285.165,102.351l-0.106,0.014l-0.081,0.068l-0.078,0.106
	l-0.061,0.111l-0.029,0.076l0.005,0.189l0.068,0.191l0.102,0.171l0.105,0.127l-0.1,0.085l-0.186,0.078l-0.208,0.046l-0.163-0.008
	l-0.23,0.133l-0.111,0.034l-0.062-0.052l-0.027-0.063l-0.102-0.187l-0.118-0.127l-0.038-0.245l0.039-0.231l0.146-0.052l0.019-0.138
	l-0.004-0.161l-0.035-0.151l-0.073-0.105l0.012-0.021l0.014-0.019l0.017-0.017l0.021-0.015l0.048,0.044l0.069,0.047l0.084,0.023
	l0.092-0.027l0.035-0.048l0.088-0.177l0.041-0.063l0.085-0.074l0.134-0.077l0.083-0.061l0.075-0.081l0.164-0.244l0.056,0.067
	l0.032,0.066l0.015,0.074l0.007,0.088l-0.025,0.17v0.098l0.099,0.063l0.308,0.272l-0.065,0.044L285.165,102.351z M286.536,92.162
	l-0.056-0.008l-0.037-0.046l-0.072-0.131l0.02-0.045l0.013-0.039l0.004-0.046l-0.002-0.062l0.036,0.032l0.022,0.041l0.016,0.049
	l0.008,0.06l0.017,0.044L286.536,92.162z M287.723,97.021l-0.084,0.083l-0.101-0.004l-0.108-0.032l-0.108,0.008l-0.062,0.032
	l-0.128,0.096l-0.125,0.138l-0.071,0.008l-0.122-0.029l-0.067,0.012l-0.035,0.035l-0.01,0.054l-0.004,0.065l-0.017,0.07
	l-0.033,0.079l-0.019,0.062l-0.012,0.167l0.009,0.07l0.017,0.054l-0.004,0.048l-0.05,0.056l-0.022,0.032l-0.045,0.059l-0.018,0.037
	l-0.106-0.024l-0.054,0.002l-0.044,0.023l-0.047,0.074l-0.007,0.07l0.009,0.069l-0.002,0.07l-0.031,0.093l-0.053,0.115l-0.06,0.06
	l-0.103-0.162l-0.083-0.004l-0.2,0.09l-0.108,0.035l-0.074-0.007l-0.062-0.042l-0.071-0.065l0.014-0.112l-0.031-0.13l0.012-0.131
	l0.145-0.119l0.013-0.054l-0.01-0.098l-0.002-0.104l0.041-0.065l0.085-0.048l0.021-0.044l-0.076-0.544l0.008-0.192l0.074-0.2
	l0.095-0.192l0.033-0.031l0.045-0.031l0.036-0.042l0.01-0.138l0.045-0.057l0.07-0.028l0.079,0.006l0.125-0.312l0.062-0.076
	l0.06,0.363l0.051,0.107l0.079,0.084l0.076,0.042l0.166,0.038l0.214,0.093l0.119,0.009l0.107-0.083l0.019-0.087l0.04-0.354
	l-0.145-0.417l0.048-0.034l0.119-0.024l0.127,0.018l0.079,0.094l0.072,0.184l0.001,0.045l-0.021,0.053l-0.006,0.049l0.005,0.053
	l0.014,0.066l0.03,0.05l0.049,0.026l0.06,0.004l0.058-0.014l0.098,0.173l-0.106,0.524L287.723,97.021z M288.452,92.351l-0.061,0.068
	l-0.049,0.071l-0.025,0.083l-0.035,0.178l-0.029,0.044l-0.064,0.002l-0.035-0.053l-0.033-0.177l-0.035-0.066l-0.054-0.036
	l-0.062-0.008l-0.055,0.012l-0.019-0.01l-0.222,0.004l-0.071-0.01l-0.081,0.034l-0.144,0.087l-0.029,0.049l0.017,0.078l0.061,0.158
	l-0.417-0.056l-0.128-0.046l-0.074-0.067l-0.081-0.106l-0.069-0.123l-0.035-0.11l0.025-0.063l0.027-0.053l0.053,0.075l0.072,0.057
	l0.167,0.086l0.136,0.045l0.077,0.014l0.099-0.026l0.32-0.159l0.083-0.002l0.092,0.033l0.12,0.024l0.125,0.007l0.103-0.016
	l0.095-0.071l0.106-0.172l0.034-0.074l-0.013-0.021l-0.027-0.026l0.051-0.008l0.065,0.041l0.057,0.07l0.03,0.079L288.5,92.28
	L288.452,92.351z M286.386,75.85l-0.03,0.145l-0.055,0.163l-0.066,0.142l-0.113,0.126l-0.017,0.073l-0.018,0.164l-0.334,0.677
	l-0.048,0.127l-0.064,0.352l0.012,0.131l0.075,0.115l0.009,0.038l-0.129,0.155l-0.04,0.093l0.014,0.116l0.053-0.089l0.161-0.18
	l0.166-0.127l0.044-0.007l0.016,0.057l-0.083,1.273l-0.095,0.265l-0.266,0.494l-0.046,0.122l-0.042,0.157l-0.025,0.155l0.002,0.115
	l-0.097,0.259l-0.009,0.074l-0.007,0.211l-0.046,0.12l-0.147,0.261l-0.017,0.112l-0.025,0.07l-0.201,0.342l-0.157,0.426l0.01,0.062
	l-0.05,0.229l-0.052,0.129l-0.076,0.004l-0.036,0.135l0.052,0.248l-0.05,0.138l-0.005,0.129l-0.097,0.295l0.049,0.683l-0.006,0.024
	l-0.037,0.071l-0.007,0.043l0.011,0.017l0.026,0.021l0.025,0.029l0.012,0.038l-0.005,0.084l-0.012,0.036l-0.022,0.031l-0.03,0.065
	l-0.068,0.194l-0.059,0.078l-0.088,0.012l-0.203,0.165l-0.061,0.099l-0.033,0.116l-0.021,0.113l-0.036,0.099l-0.076,0.069
	l-0.004,0.059l0.042,0.331l-0.003,0.121l-0.02,0.045l-0.183,0.06l-0.128,0.02l-0.035-0.001l-0.045-0.007l-0.033,0.026l-0.028,0.04
	l-0.034,0.03l-0.085,0.063l-0.046,0.077l-0.074,0.253l-0.034,0.203l-0.034,0.102l-0.051,0.11l-0.004,0.051l0.03,0.156l-0.006,0.052
	l-0.032,0.027l-0.062,0.004l0.021,0.028l0.006,0.014l0.008,0.008l0.024,0.011l-0.082,0.241l-0.05,0.111l-0.05,0.048l-0.01,0.04
	l-0.011,0.023l-0.036,0.048l-0.023-0.099l-0.002-0.099l0.016-0.102l0.029-0.106l-0.043,0.049l-0.047,0.083l-0.031,0.094l-0.004,0.08
	l-0.018,0.076l-0.067,0.082l-0.075,0.077l-0.047,0.065l-0.016,0.16l0.011,0.39l-0.064,0.153l0.08,0.152l-0.034,0.19l-0.098,0.176
	l-0.111,0.102l0.046,0.093l-0.208,0.166l-0.06,0.157l0.089-0.11l0.038-0.025l0.045,0.009l0.041,0.042l0.011,0.055l-0.021,0.066
	l-0.055,0.07l0.055,0.01l0.059-0.019l0.054-0.051l0.038-0.085l0.003,0.115l-0.068,0.125l-0.269,0.352L281.94,91l-0.052-0.006
	l-0.006-0.135l-0.044,0.068l-0.065,0.296l-0.056-0.012l0.006,0.048l0.035,0.064l0.027,0.028l0.064-0.046l0.041-0.058l0.03-0.059
	l0.033-0.049l0.113-0.107l0.093-0.058l0.047,0.027l-0.029,0.144l-0.12,0.255v0.067l0.021,0.151l-0.01,0.065l-0.032,0.029
	l-0.027-0.033l-0.025-0.045l-0.026-0.006l-0.017,0.036l-0.001,0.043l0.007,0.054l-0.052,0.041l-0.094,0.055l-0.058,0.043l0.09,0.108
	l0.027,0.106l-0.022,0.118l-0.154,0.404l-0.008,0.043l0.001,0.084l-0.011,0.036l-0.076,0.1l-0.063,0.255l-0.034,0.254l-0.009,0.513
	l-0.032,0.014l-0.04-0.16l-0.036,0.018l-0.014,0.051l-0.027,0.027l-0.029,0.021l-0.021,0.032l-0.005,0.045l0.013,0.081l0.005,0.217
	l-0.016,0.098l-0.083,0.112l-0.084,0.287l-0.031,0.042l-0.089,0.063l-0.037,0.056l-0.012,0.043l-0.01,0.119l-0.044-0.028
	l-0.063,0.176l-0.181,0.364l-0.023,0.131l-0.042,0.135l-0.097,0.214l-0.049,0.175l0.088,0.021l-0.069,0.252l-0.005,0.084
	l-0.039,0.018l-0.037-0.032l-0.031-0.037l-0.025-0.043l-0.023-0.05l-0.039,0.019l-0.006,0.055l0.06,0.157l0.005,0.08l-0.01,0.072
	l-0.003,0.052l0.029,0.022l-0.083,0.084l-0.035,0.085l-0.001,0.101l0.018,0.126l0.012,0.361l-0.019,0.098l-0.121,0.375l-0.05,0.082
	l-0.081,0.107l-0.042,0.027l-0.135,0.052l-0.036-0.01l-0.046-0.022l-0.031,0.012l0.008,0.089l-0.008,0.059l-0.04,0.069l-0.084,0.125
	l-0.088,0.261l-0.047,0.055l-0.051,0.006l-0.016-0.031l-0.013-0.04l-0.039-0.013l-0.03,0.028l-0.028,0.053l-0.035,0.046
	l-0.051,0.004l-0.039-0.004l-0.135,0.017l-0.079-0.011l-0.043-0.013l-0.05-0.023l0.023-0.021l0.018-0.028l-0.021-0.026l-0.033-0.018
	l-0.042-0.057l-0.024-0.019l-0.025,0.019l-0.039,0.044l-0.167-0.122l-0.064-0.089l-0.016-0.147l0.065,0.099l0.037,0.034l0.056,0.01
	l-0.024-0.086l-0.02-0.033l0.032-0.064l0.059-0.061l0.063-0.079l0.014-0.033l0.055-0.045l-0.046-0.019l-0.081-0.002l-0.041,0.007
	l0.009-0.055l0.042-0.052l0.051-0.053l0.041-0.056l0.012,0.021l0.039,0.041l0.051-0.079l-0.028-0.045l-0.079-0.006l-0.153,0.046
	l-0.029,0.002l-0.029,0.011l-0.052,0.045l-0.003,0.019l-0.037,0.131L278.4,98.26l-0.008-0.083l0.001-0.075l-0.005-0.029l-0.03-0.003
	l-0.038-0.022l-0.035-0.033l-0.021-0.036l-0.008-0.154l0.044-0.104l0.074-0.025l0.079,0.086l0.032-0.015l-0.035-0.098l-0.021-0.128
	l0.028-0.1l0.104-0.008l0.021-0.053l-0.046-0.073l0.007-0.149l0.044-0.153l0.06-0.085l0.003-0.029l-0.082-0.106l-0.028-0.053
	l-0.002-0.049l0.016-0.166l0.014-0.062l0.047-0.042l0.038,0.024l0.037,0.011l0.036-0.086l0.003-0.059l-0.021-0.176l-0.02-0.054
	l-0.091-0.028l-0.126,0.013l-0.096-0.019l-0.003-0.124l-0.021,0.008l-0.01,0.002l-0.006-0.008l-0.007-0.02l-0.085,0.088
	l-0.039-0.046l0.004-0.085l0.042-0.032l0.049-0.004l0.134-0.051l0.063,0.013l0.035-0.015l-0.026-0.082l-0.002-0.083l0.022-0.083
	l0.046-0.079l0.04,0.187l0.04,0.071l0.066,0.021l-0.021-0.105l0.037-0.054l0.171-0.057l-0.019-0.055l-0.013-0.131l-0.028-0.047
	l-0.034-0.005l-0.101,0.02l-0.024-0.006l-0.027-0.068l-0.033-0.015l-0.043,0.001l-0.058-0.017l-0.033-0.044l0.026-0.042l0.058-0.016
	l0.067,0.026l0.015-0.072l0.079-0.193l0.032-0.014l0.027,0.029l0.023,0.01l0.032-0.002l0.046-0.014l-0.009-0.035l-0.064-0.034
	l-0.011-0.161l-0.045,0.033l-0.065-0.092l0.006-0.109l0.02-0.11l-0.026-0.1l0.098-0.05l0.065-0.088L278.895,94l-0.001-0.09
	l0.015-0.086l0.041-0.092l-0.007-0.075l-0.124-0.039l0.016-0.078l0.024-0.078l0.034,0.014h0.031l0.039-0.013l0.053-0.025
	l0.009,0.035l-0.035,0.07l-0.006,0.074l0.032,0.038l0.082-0.037l0.041-0.057l0.013-0.132l0.041-0.074l0.039,0.157l0.005,0.07
	l-0.009,0.064l0.054-0.031l0.026-0.042l0.004-0.051l-0.013-0.063l0.025-0.044l0.07-0.023l0.069-0.006l0.02,0.009l0.105-0.1
	l0.03-0.096l0.001-0.222l-0.054-0.053l0.005-0.044l0.045-0.012l0.066,0.039l0.009-0.07l0.029-0.061l0.045-0.045l0.063-0.026
	l-0.072-0.067l-0.058-0.01l-0.132,0.067l-0.038-0.012l-0.015-0.061l-0.006-0.072l-0.008-0.043l-0.02,0.034l-0.063,0.024
	l-0.052-0.018l0.02-0.097l0.076-0.128l0.032-0.074l0.014-0.207l0.141-0.199l0.018-0.102l-0.001-0.043l0.011-0.055l0.036-0.098
	l0.007-0.043l-0.017-0.026l-0.027-0.021l-0.017-0.035l-0.04-0.169l0.014-0.069l0.076-0.051l-0.016,0.143l0.042-0.063l0.093-0.225
	l0.041-0.02l0.055,0.002l0.04-0.012l0.005-0.06l-0.028-0.056l-0.037-0.009l-0.046,0.024l-0.049,0.047l0.003-0.11l0.055-0.048
	l0.079-0.028l0.082-0.055l0.041-0.073l0.028-0.082l0.047-0.073l0.101-0.047l-0.011-0.043l-0.095-0.009l-0.082-0.028l-0.067-0.054
	l-0.044-0.083l0.109-0.046l0.058-0.035l0.012-0.054l-0.036-0.107l-0.012,0.001l-0.025,0.014l-0.027,0.005l-0.021-0.03l-0.004-0.033
	l0.127-0.93l0.093-0.246l0.126,0.019l0.039-0.019l-0.046-0.072l0.001-0.055l0.03-0.005l0.042,0.075l0.035-0.121l-0.043-0.087
	l-0.074-0.075l-0.05-0.083l-0.01-0.109l0.073-0.727l0.035-0.107l0.06-0.082l0.151-0.135l0.029-0.031l-0.018-0.116l0.013-0.087
	l0.063-0.215l-0.001-0.052l-0.013-0.054l-0.001-0.047l0.03-0.034l0.055-0.116l0.007-0.024l0.271-0.377l0.047-0.035l0.031,0.006
	l0.025-0.008l0.019-0.054l0.008-0.021l-0.011-0.041l-0.031-0.045l-0.026-0.029l0.003,0.004l-0.081,0.017l-0.038-0.04l0.012-0.066
	l0.067-0.065L281,85.57l-0.038-0.033l-0.018-0.049l0.012-0.08l0.129,0.062l0.084-0.057l0.023-0.115l-0.054-0.12l0.093,0.011
	l0.045-0.052l0.049-0.182l-0.085-0.019l-0.107,0.072l-0.081-0.012l-0.049-0.048l-0.002-0.063l0.027-0.067l0.048-0.061l0.048,0.003
	l0.046-0.018l0.051-0.003l0.053,0.012l0.034-0.067l0.001-0.047l-0.006-0.048l0.015-0.065l0.025-0.05l0.05-0.07l0.334-0.656
	l0.066-0.065l0.111-0.063l0.084-0.037l0.092-0.054l0.044-0.075l-0.062-0.098l0.071-0.027l0.019,0.002l0.03,0.015l0.04-0.019
	l-0.009-0.041l0.001-0.032l0.008-0.07l0.05,0.015l0.021-0.018l-0.011-0.042l-0.043-0.054l-0.065,0.016l-0.024-0.064l0.026-0.075
	l0.078-0.064l-0.006-0.04l-0.028-0.069l-0.042-0.033l-0.046,0.063l-0.047-0.02l-0.045-0.026l0.221-0.233l0.083-0.126l0.025-0.125
	l0.099,0.081l0.032-0.074l0.012-0.148l0.039-0.132l0.031,0.091l0.046,0.034l0.051-0.018l0.044-0.058l0.017-0.091l-0.012-0.081
	l0.009-0.063l0.083-0.043l-0.011-0.037l-0.075-0.069l0.014-0.112l0.083-0.203l-0.001-0.07l-0.028-0.125l0.006-0.076l0.021-0.039
	l0.1-0.134l-0.013-0.146l0.03-0.136l0.159-0.375l0.056-0.231l0.051-0.116l0.07-0.103l0.015,0.038l0.009,0.095l0.055,0.082
	l0.096,0.005l0.061-0.072l0.026-0.112l-0.009-0.115l0.035-0.119l0.218-0.258l0.029-0.141l0.325-0.367l-0.029-0.023l-0.013-0.026
	l-0.01-0.026l-0.017-0.03l0.08-0.109l0.114-0.492l0.094-0.151l0.203-0.18l0.072-0.051l0.082-0.075l0.022-0.091l0.006-0.097
	l0.034-0.086l0.104-0.084l0.03,0.065l-0.008,0.188l0.07,0.031l0.098-0.022l0.165-0.081l0.032-0.044l0.056-0.099l0.048-0.11
	l0.012-0.084l-0.06-0.295l0.007-0.084l0.082,0.005l0.072-0.03l0.026-0.058l-0.051-0.072l-0.048,0.054l-0.069-0.004l-0.063-0.036
	l-0.035-0.047l-0.002-0.101l0.043-0.054l0.046-0.041l0.01-0.065l0.031-0.117l0.112-0.033l0.1,0.078l0.001,0.21l0.078,0.025
	l0.06-0.057l0.097-0.18l0.043,0.058l0.064,0.02l0.072-0.027l0.063-0.078l0.038-0.122l-0.03-0.068l-0.053-0.061l-0.038-0.09
	l0.042-0.021l0.029,0.021l0.03,0.007h0.072l0.003-0.102l0.042-0.057l0.068-0.027l0.084-0.008l0.006,0.051L286.386,75.85z
	 M286.409,77.3l-0.088,0.151l-0.002-0.13l0.035-0.214l0.05-0.187l0.091-0.079l0.232-0.119l0.01,0.042l-0.235,0.424L286.409,77.3z
	 M286.432,75.632l-0.05,0.009l-0.05-0.009l0.068-0.081l-0.049-0.079l0.028-0.078l0.117-0.127l0.041-0.022l0.055,0.021l0.137-0.03
	l0.025,0.043l-0.03,0.081l-0.135,0.124l-0.052,0.096l-0.052,0.033L286.432,75.632z M287.632,73.004l-0.164-0.103l0.304-0.364
	l0.114-0.086l0.228-0.103l0.072-0.075l0.028-0.132l0.078,0.004l-0.02,0.123l-0.062,0.114l-0.227,0.259l-0.165,0.133l-0.069,0.075
	l-0.08,0.118L287.632,73.004z"/></svg>