<?xml version="1.0" encoding="utf-8"?>
<!-- Generator: Adobe Illustrator 15.0.0, SVG Export Plug-In . SVG Version: 6.00 Build 0)  -->
<!DOCTYPE svg PUBLIC "-//W3C//DTD SVG 1.1//EN" "http://www.w3.org/Graphics/SVG/1.1/DTD/svg11.dtd">
<svg version="1.1" id="Ebene_1" xmlns="http://www.w3.org/2000/svg" xmlns:xlink="http://www.w3.org/1999/xlink" x="0px" y="0px"
	 width="1920px" height="1080px" viewBox="0 0 1920 1080" enable-background="new 0 0 1920 1080" xml:space="preserve">

<path fill="#F4E0B6" stroke="#FFFFFF" d="M706.043,662.022l-0.034,0.008l-0.042-0.035l-0.009-0.032l0.036-0.242l0.029-0.09
	l0.042-0.082l0.103-0.128l0.058-0.085l0.035-0.103l0.001-0.135l-0.046-0.091l-0.171-0.146l-0.07-0.082l-0.041-0.098l0.019-0.088
	l0.109-0.054l-0.012-0.043l0.049-0.042l0.051-0.027l0.054-0.004l0.055,0.035l0.038,0.068l0.01,0.168l0.018,0.047l0.056,0.059
	l0.168,0.274l0.115,0.095l0.026,0.035l0.015,0.037l0.016,0.065l-0.008,0.049l-0.057-0.01l-0.066,0.025l-0.113,0.245l-0.06,0.081
	l-0.051,0.009l-0.075-0.039l-0.044,0.011l-0.021,0.039l-0.03,0.136l-0.017,0.05l-0.033,0.037l-0.052,0.045L706.043,662.022z
	 M740.171,650.655l-0.056,0.011l-0.077-0.06l0.005-0.132l0.068-0.146l0.032,0.062l-0.006,0.071l0.033,0.046l0.045,0.102
	L740.171,650.655z M739.446,649.446l-0.042-0.006l-0.027-0.064l0.047-0.064l0.056-0.005l0.02,0.037l-0.005,0.069L739.446,649.446z
	 M1030.618,537.453l0.072,0.011l0.12-0.028l0.124,0.006l0.069-0.026l0.253-0.191l0.026-0.054l-0.013-0.096l0.015-0.047l0.065-0.013
	l0.078,0.01l0.05,0.017l0.029,0.022l0.057,0.064l0.035,0.022l0.037,0.003l0.074-0.008l0.037,0.017l0.021,0.003l0.106-0.016
	l0.028-0.086l0.013-0.021l0.06-0.009l0.077,0.022l0.005,0.02l0.012,0.112l-0.002,0.05l-0.067,0.182l-0.112,0.147l-0.313,0.269
	l-0.104,0.135l-0.061,0.038l-0.353,0.087l-0.042-0.007l-0.062-0.041l-0.02-0.047l-0.011-0.052l-0.034-0.056l-0.067-0.022
	l-0.403-0.034l-0.08,0.006l-0.073,0.021l-0.111,0.053l-0.047,0.014l-0.041,0.021l-0.022,0.041l0.011,0.055l0.025,0.056l0.006,0.045
	l-0.136,0.055l-0.1,0.011l-0.08-0.016l-0.024-0.004l-0.097-0.062l-0.077-0.105l-0.031-0.108l-0.023-0.119l-0.081-0.171l0,0
	l0.438-0.262l0.033-0.045l0.045-0.017l0.228,0.076l0.316,0.013L1030.618,537.453z M1030.954,535.661l0.022,0.022l0.027,0.02
	l0.037,0.017l0.133,0.006l0.07,0.024l0.029,0.073l-0.017,0.055l-0.038,0.045l-0.046,0.032l-0.215,0.096l-0.054,0.009l-0.124-0.013
	l-0.077-0.031l-0.048-0.055l-0.037-0.055l-0.059-0.027l-0.131-0.017l-0.024-0.014l-0.027-0.021l-0.031-0.014l-0.04,0.007
	l-0.048,0.102l-0.012,0.02l-0.132,0.038l-0.065-0.004l-0.059-0.046l-0.037-0.151l0.087-0.094l0.239-0.093l0.011-0.007l0.05-0.007
	l0.046,0.011l0.287-0.058l0.07-0.001l0.06,0.024L1030.954,535.661z M1034.965,530.356l0.126,0.189l0.028,0.09l0.002,0.127
	l-0.015,0.101l-0.032,0.108l-0.052,0.091l-0.071,0.049l-0.079,0.037l-0.116,0.101l-0.07,0.034l-0.027,0.03l-0.031,0.104
	l-0.035,0.031l-0.046,0.015l-0.036,0.024l-0.067,0.062l0.071,0.136l0.021,0.119l-0.032,0.099l-0.091,0.066l-0.188,0.056
	l-0.088-0.013l-0.218-0.092l-0.11-0.027l-0.222-0.024l-0.052,0.006l-0.129,0.039l-0.071-0.017l-0.037-0.049l-0.03-0.064
	l-0.053-0.064l0.04-0.039l0.057-0.1l0.149-0.141l0.083-0.15l0.188-0.139l0.092-0.15l0.094-0.071l0.027-0.04l0.013-0.191l0.016-0.025
	l0.061-0.009l0.026-0.012l0.086-0.155l0.038-0.046l0.147-0.097l0.039-0.054l0.105,0.063L1034.965,530.356z M1031.418,528.524
	l0.01,0.029l0.059-0.014v0.066l-0.014,0.082l-0.041,0.14l-0.1,0.141l-0.024,0.139l-0.089,0.05l-0.113-0.016l-0.095-0.105
	l-0.021-0.126l0.013-0.151l0.035-0.13l0.099-0.147l0.021-0.155l0.035-0.132l0.091-0.017l0.021,0.024l0.014,0.021l0.006,0.022
	l-0.01,0.027l0.062,0.054l0.057,0.076l0.024,0.073L1031.418,528.524z M1031.367,527.959l-0.053,0.08l-0.103-0.019l0.071-0.182
	l0.131-0.213l0.158-0.158l0.15-0.015l0.011,0.032l-0.076,0.019l-0.029,0.029l-0.072,0.05l-0.156,0.27L1031.367,527.959z
	 M1032.491,526.78l-0.108,0.085l-0.092,0.05l-0.34,0.266l-0.081,0.019l-0.058-0.063l0.005-0.087l0.136-0.089l0.035-0.058
	l0.065-0.014l0.356-0.169l0.034-0.047l0.029-0.039l0.394-0.183l-0.036,0.106l-0.071,0.047l-0.163,0.047l0.011,0.015l0.018,0.033
	l0.012,0.016l-0.031,0.027L1032.491,526.78z M1036.506,525.614l0.227,0.355l0.017,0.002l0.086,0.03l0.009,0.01l0.016,0.006
	l0.022,0.018l0.027,0.017l0.098,0.005l0.134,0.033l0.044-0.03l0.033,0.021h0.037l0.03-0.019l0.014-0.033l0.02-0.005l0.011,0.032
	l-0.016,0.026l-0.006,0.016l0.007,0.02l0.028,0.035l0.031,0.073l0.103,0.025l0.221-0.003l0.031-0.008l0.055,0.128l0.027,0.073
	l0.019,0.074l0.008,0.084l-0.004,0.112l0.006,0.04l0.021,0.054l0.022,0.026l0.021,0.021l0.025,0.037l0.143,0.322l0.054,0.166
	l0.025,0.153l-0.006,0.17l-0.104,0.422l-0.002,0.066v0.087l0.029,0.159l0.148,0.502l0.035,0.166l-0.017,0.113l-0.111-0.003
	l-0.05-0.006l-0.133,0.058l-0.166-0.004l-0.267,0.077l-0.085,0.055l-0.039,0.05l-0.036,0.048l0.041,0.041l0.008,0.042l0.002,0.042
	l0.013,0.038l0.031,0.024l0.119,0.053l-0.13,0.121l-0.046,0.016l0.061,0.063l0.038,0.079l0.031,0.079l0.042,0.064l0.078,0.049
	l0.088,0.016l0.236-0.03l0.166,0.016l0.085-0.008l0.072-0.025l0.063-0.039l0.019-0.032l0.007-0.036l0.015-0.014l0.271,0.229
	l0.081,0.107l0.034,0.173l-0.012,0.146l0.005,0.074l0.027,0.084l0.06,0.09l0.027,0.025l0.012,0.013v0.025l-0.1,0.109l-0.019,0.045
	l-0.028,0.125l-0.04,0.066l-0.104,0.087l-0.035,0.072l-0.02,0.144l-0.025,0.042l-0.162,0.064l-0.016,0.005l-0.036,0.04l-0.031,0.062
	l-0.006,0.031l-0.004,0.063l-0.014,0.035l-0.028,0.026l-0.028,0.011l-0.022,0.019l-0.003,0.053l0.029,0.067l0.058,0.02l0.069,0.001
	l0.223,0.052l0.101,0.057l0.022,0.017l0.018,0.029l0.018,0.056l-0.01,0.019l-0.021,0.01l-0.014,0.031l-0.025,0.134l-0.039,0.097
	l-0.063,0.063l-0.252,0.075l-0.253,0.175l-0.104,0.144l-0.04,0.034l-0.059,0.016l-0.203-0.004l0.059,0.097l0.004,0.049l-0.099,0.059
	l-0.033-0.07l-0.056-0.014l-0.116,0.014l-0.019-0.013l-0.051-0.048l-0.027-0.014l-0.025,0.004l-0.082,0.043l-0.111-0.014
	l-0.119-0.049l-0.107-0.018l-0.08,0.077l0.043,0.019l0.146,0.083l0.06,0.049l-0.05,0.001h-0.074h-0.103l-0.107,0.062l-0.034,0.034
	l-0.045,0.059l-0.048,0.039l-0.111,0.051l-0.037,0.046l0.005,0.042l0.082,0.034l0.068,0.079l0.025,0.094l-0.03,0.058l-0.013,0.021
	l0.015,0.051l0.033,0.003l0.083-0.024l0.039,0.008l0.081,0.031l0.038,0.021l0.005,0.139l0.095,0.066l0.226,0.034l0.001,0.11
	l0.006,0.069l0.031,0.052l0.283,0.209l0.162,0.101l0.072,0.145l0.042,0.08l0.021,0.093l0.01,0.102l0.024,0.084l0.062,0.039
	l-0.002,0.046l0.025,0.101l0.003,0.062l-0.016,0.046l-0.057,0.072l-0.021,0.036l-0.057,0.31l-0.037,0.09l-0.013,0.058l0.005,0.098
	l0.026,0.104l0.05,0.078l0.081,0.018l0.112-0.136l0.074,0.004l-0.018,0.02l-0.049,0.071l0.081,0.041l-0.025,0.067l-0.137,0.133
	l-0.201,0.279l-0.022,0.055l-0.018,0.131l-0.022,0.046l-0.054,0.021l-0.051-0.025l-0.049-0.035l-0.049-0.012l-0.067,0.064
	l0.052,0.103l0.09,0.118l0.041,0.113l0.038-0.018l0.063-0.058l0.036-0.021l0.042-0.005l0.086,0.004l0.102-0.041l0.014,0.022
	l-0.004,0.043v0.041l0.027,0.063l0.02,0.035l0.03,0.018l0.084,0.024l0.106,0.007l0.001,0.02l-0.007,0.028l0.004,0.031l0.057,0.087
	l0.012,0.038l-0.002,0.051l-0.02,0.047l-0.068,0.011l-0.033,0.034l-0.01,0.052l0.016,0.04l0.02,0.041l0.004,0.057l-0.029,0.049
	l-0.049,0.001l0.032,0.055l0.035,0.031l0.036,0.012l0.029,0.022l0.013,0.062l-0.055,0.027l-0.217,0.05l-0.036-0.003l0,0
	l-0.037-0.001l-0.253,0.074l-0.038-0.013l-0.082-0.049l-0.033-0.003l-0.02,0.026l-0.016,0.055l-0.008,0.025l-0.028,0.015
	l-0.035,0.001l-0.063-0.017l-0.005-0.112l-0.012-0.055h-0.051l-0.073-0.014l-0.022-0.007l-0.061-0.021l-0.071-0.056l-0.04-0.1
	l0.136-0.287l0.029-0.022l0.03-0.021l0.011-0.016l0.02-0.066l0.015-0.117l0.016-0.066l-0.034-0.008l-0.028,0.007l-0.06,0.035
	l0.054-0.212l0.01-0.123l-0.058-0.042l-0.014-0.062v-0.048l0.02-0.021l0.045,0.02l0.012-0.035l0.005-0.037v-0.069l-0.014-0.017
	l-0.009-0.011l-0.019-0.031l0.032-0.006l0.03-0.014l0.026-0.02l0.021-0.024l-0.091-0.053l-0.008-0.055l0.028-0.05l-0.016-0.02
	l-0.045-0.05l-0.051,0.008l-0.084,0.046l-0.049-0.021l-0.09-0.067l-0.058-0.015l-0.038,0.007l-0.115,0.056l-0.05,0.014l-0.04-0.014
	l-0.039-0.025l-0.048-0.015l-0.183-0.007l-0.064-0.028l-0.021-0.011l-0.044-0.101l-0.051-0.082l-0.078-0.056l-0.082-0.025
	l-0.065,0.01l-0.05,0.042l-0.094,0.116l-0.055,0.038l-0.354,0.074l-0.085,0.046l-0.018,0.01h-0.056l-0.056-0.161l-0.073-0.052
	l-0.056,0.008l-0.111,0.04l-0.06-0.016l-0.024-0.026l-0.063-0.094l-0.028-0.035l-0.138-0.084l-0.033-0.04l-0.022-0.101l0.009-0.083
	l-0.016-0.078l-0.092-0.093l-0.107-0.035l-0.012-0.008l-0.041,0.022l-0.009,0.031l0.005,0.046l-0.003,0.062l-0.022,0.085
	l-0.038,0.105l-0.052,0.089l-0.059,0.034l-0.131-0.022l-0.058-0.001l-0.21,0.043l-0.069-0.011l-0.003-0.059l0.032-0.013l0.148,0.027
	l-0.048-0.074l-0.01-0.073l-0.003-0.07l-0.028-0.067l-0.043-0.031l-0.061-0.02l-0.06-0.007l-0.044,0.005l-0.082,0.073l-0.14,0.328
	l-0.024,0.031l-0.034,0.023l-0.046,0.014h-0.102l-0.08,0.037l-0.04,0.005l-0.069-0.026l-0.009-0.045l0.006-0.063l-0.021-0.079
	l-0.036-0.032l-0.039,0.003l-0.083,0.035l-0.141,0.095l-0.126,0.125l0.048,0.029l0.004,0.034l-0.009,0.041l0.013,0.048l0.037,0.035
	l0.091,0.062l0.032,0.041l0.011,0.083l-0.048,0.042l-0.141,0.025l-0.063-0.006l-0.126-0.031l-0.026,0.006l-0.061,0.012l-0.017-0.011
	l-0.041-0.049l-0.025-0.053l-0.014-0.047l-0.017-0.035l-0.037-0.013l-0.021,0.052l-0.058,0.035l-0.271,0.056l-0.068-0.006
	l-0.07-0.021l-0.208-0.099l-0.055-0.009l-0.128,0.017l-0.033,0.035l-0.037,0.182l-0.021,0.056l-0.037,0.035l-0.104,0.035
	l-0.031,0.033l-0.03,0.013l-0.036-0.007l-0.107-0.064l-0.208-0.045l-0.15-0.081l-0.048,0.007l-0.111,0.073l-0.065,0.018
	l-0.181,0.003l-0.063-0.017l-0.065-0.055l-0.063-0.064l-0.053-0.046l-0.124-0.062l-0.048-0.042l-0.035-0.071l0.019-0.049
	l0.251-0.253l0.774-0.268l0.068-0.007l0.053,0.014l0.062,0.032l0.06,0.047l0.05,0.06l-0.028,0.02l-0.04,0.044l-0.014,0.022
	l0.008,0.028l0.294-0.037l0.162,0.022l0.156,0.074l0.062,0.063l0.109,0.146l0.062,0.048l0.079,0.003l0.147-0.058l0.066,0.016
	l0.054-0.034l0.098-0.018l0.031-0.017l0.052-0.028l0.007-0.115l-0.056-0.094l-0.085-0.059l-0.1-0.028l-0.028,0.003l-0.112,0.006
	l-0.139-0.024l-0.047,0.007l-0.091,0.034l-0.048,0.004l-0.084-0.025l-0.303-0.158l0.135-0.109l0.073-0.039l0.269-0.05l0.086,0.004
	l0.087,0.041l0.002,0.001l-0.042-0.084l-0.049-0.026l-0.011,0.002l-0.119,0.024l-0.035-0.005l-0.036-0.013l-0.032-0.021
	l-0.027-0.038l-0.025-0.05l-0.018-0.052l-0.004-0.042l0.025-0.05l0.046-0.032l0.098-0.032l-0.042-0.024l-0.091-0.035l-0.226-0.011
	l-0.062-0.05l-0.068-0.15l-0.079-0.084l-0.092-0.046l-0.102-0.037l-0.043,0.054l-0.068,0.041l-0.077,0.017l-0.052,0.029
	l-0.005,0.021l-0.02,0.01l-0.029,0.006l-0.067-0.123l0.067-0.076l0.168-0.098l0.017-0.039l0.057-0.019l0.104-0.001l0.097,0.024
	h0.013l0.021-0.007l0.026-0.02l0.026-0.04l-0.036-0.038l-0.106-0.083l-0.024-0.011l-0.024-0.016l-0.015-0.026l-0.005-0.038
	l0.006-0.028l0.007-0.022l0.003-0.017l-0.033-0.067l-0.113-0.168l-0.057-0.071l0.005-0.038l0.01-0.037l0.147-0.001l0.107-0.046
	l0.081-0.085l0.263-0.596l0.194-0.597l0.129-0.594l0.015-0.546l-0.018-0.136l-0.011-0.035l0.019-0.131l-0.167-0.931l-0.024-0.242
	l-0.014-0.071l-0.02-0.152l0.022-0.338l-0.021-0.16l-0.024-0.086l-0.025-0.114l-0.009-0.101l0.02-0.048l0.186-0.016l0.021-0.033
	l0.033,0.028l0.002,0.152l0.096,0.069l0.128,0.006l0.111-0.035l0.055-0.051l0.088-0.134l0.054-0.035l0.108-0.043l0.097-0.076
	l0.411-0.646l0.026-0.06l0.038-0.056l0.122-0.062l0.045-0.052l0.021-0.128l-0.026-0.336l0.01-0.156l0.062-0.139l0.045-0.069
	l0.089-0.069l0.031-0.065l0.022-0.075l0.034-0.065l0.051-0.034l0.128-0.057l0.071-0.108l0.394-0.294l0.077-0.097l0.063-0.023
	l0.156-0.143l0.27-0.083l0.303-0.088l0.244-0.071l0.032,0.002l0.064,0.031l0.031,0.003l0.021-0.015l0.053-0.074l0.376-0.229
	l0.627-0.275l0.291-0.026l0.068,0.011L1036.506,525.614z M1032.199,529.279l0.238,0.252l0.048,0.098l0.105,0.294l0.06,0.052
	l0.037,0.012l0.043,0.028l0.042,0.011l0.031-0.035l0.02-0.038l0.028-0.024l0.039-0.015l0.046-0.009l0.168,0.028l0.028,0.02
	l0.029,0.055l0.03,0.062l0.024,0.044l-0.08,0.07l-0.028,0.048l-0.001,0.12l-0.029,0.064l-0.142,0.151l-0.037,0.026l-0.04,0.017
	l-0.068-0.039l-0.024-0.008l-0.087-0.01l-0.097,0.041l-0.017,0.089l0.043,0.116l0.084,0.126l0.163,0.183l0.061,0.109l-0.039,0.073
	l0.014,0.018l0.03,0.043l-0.024,0.008l-0.048,0.041l0.042,0.02l0.03,0.035l0.035,0.034l0.055,0.011l-0.005,0.053l-0.013,0.046
	l-0.022,0.035l-0.028,0.019l-0.022,0.046l0.001,0.076l-0.011,0.056l-0.056-0.022l0.011,0.034l-0.026-0.014l-0.02-0.004l-0.045,0.004
	l0.012,0.034l-0.005,0.004l-0.016,0.013l-0.01,0.025l0.216,0.063l0.054,0.004l0.134-0.022l0.066,0.007l0.179,0.062l0.061,0.008
	l0.071-0.007l0.12-0.044l0.061-0.01l0.332,0.124l0.146,0.027l0.127-0.02l0.229-0.122l0.022-0.043l0.021-0.241l0.08-0.189
	l0.064-0.092l0.151-0.092l0.083-0.074l0.07-0.093l0.039-0.084l0.063-0.19l0.022-0.108l-0.001-0.116l-0.026-0.092l-0.04-0.083
	l-0.094-0.161l-0.045-0.071l-0.046-0.043l-0.051-0.018h-0.054l-0.373,0.117l-0.051-0.002l-0.035-0.028l-0.111-0.109l-0.045-0.02
	l-0.078-0.066l-0.064-0.18l-0.045-0.197l-0.015-0.121l0.02-0.129l0.04-0.107l0.064-0.082l0.094-0.047l-0.041-0.015l-0.226-0.006
	l-0.044,0.013l-0.041,0.029l-0.048,0.058l-0.024,0.022l-0.046,0.017l-0.046,0.002l-0.083-0.026l-0.038-0.001l-0.186,0.039
	l-0.098-0.001l-0.078-0.035l-0.027-0.018l-0.025-0.007l-0.021-0.009l-0.021-0.027l-0.013-0.047l0.008-0.018l0.016-0.009l0.013-0.063
	l0.039-0.036l0.014-0.043l-0.063-0.063l0.029-0.064l-0.013-0.078l-0.037-0.072l-0.045-0.045v-0.059l-0.018-0.061l-0.031-0.054
	l-0.034-0.011l-0.043-0.04l-0.034-0.038l-0.063-0.093l-0.192,0.21l-0.325,0.504l-0.1,0.104l-0.104,0.078L1032.199,529.279z
	 M1033.765,526.124l0.136,0.031l-0.259,0.133l-0.291,0.072l-0.065,0.037l-0.116,0.096l-0.078,0.001l-0.072-0.057l-0.007-0.073
	l0.035-0.051l0.049,0.008L1033.765,526.124z M1034.447,525.976l-0.031,0.085l-0.027-0.024l-0.006-0.015l0.009-0.027l-0.05-0.056
	l0.049-0.079l0.09-0.074l0.068-0.037l0.271-0.097l0.086,0.005l0.012,0.031l-0.039,0.01L1034.447,525.976z M1035.153,525.345
	l0.178,0.026l-0.014,0.002l-0.008,0.008l-0.005,0.015v0.02l-0.112-0.007l-0.06-0.017l-0.017-0.03L1035.153,525.345z"/></svg>