<?xml version="1.0" encoding="utf-8"?>
<!-- Generator: Adobe Illustrator 15.0.0, SVG Export Plug-In . SVG Version: 6.00 Build 0)  -->
<!DOCTYPE svg PUBLIC "-//W3C//DTD SVG 1.1//EN" "http://www.w3.org/Graphics/SVG/1.1/DTD/svg11.dtd">
<svg version="1.1" id="Ebene_1" xmlns="http://www.w3.org/2000/svg" xmlns:xlink="http://www.w3.org/1999/xlink" x="0px" y="0px"
	 width="1920px" height="1080px" viewBox="0 0 1920 1080" enable-background="new 0 0 1920 1080" xml:space="preserve">

<path fill="#F4E0B6" stroke="#FFFFFF" d="M1460.039,291.364l0.058-0.003l0.037,0.016l-0.035,0.048l-0.026,0.051l0.024,0.048
	l0.055,0.041l0.057,0.024l-0.081,0.053l-0.252,0.077l-0.053,0.052l-0.055,0.099l-0.128,0.018l-0.271-0.049l-0.249-0.02l-1.017,0.059
	l-0.306-0.021l-0.194-0.083l0.081-0.175l0.193-0.098l0.256-0.046l1.07,0.035l0.456-0.027l0.358-0.096L1460.039,291.364z
	 M1457.8,329.017l0.007,0.107l-0.035,0.074l-0.128,0.088l-0.076,0.034l-0.054-0.004l-0.034-0.006l-0.105,0.014l-0.054-0.011
	l-0.033-0.029l-0.039-0.071l-0.03-0.038l-0.095-0.062l-0.092-0.011l-0.093,0.012l-0.103,0.002l-0.064-0.02l-0.063-0.038l-0.039-0.05
	l0.01-0.057l0.027-0.021l0.035-0.005l0.075,0.002l0.045-0.009l0.12-0.055l0.081-0.023l0.264-0.036l0.308,0.021l0.072,0.021
	l0.056,0.07L1457.8,329.017z M1455.604,344.488l0.023,0.088l-0.056,0.029l-0.086-0.051l-0.044-0.107l0.062-0.036l0.068,0.031
	L1455.604,344.488z M1455.996,344.456l0.015,0.043l-0.04,0.003l-0.066-0.018l-0.377-0.184l-0.13-0.093l-0.043-0.101l0.04-0.064
	l0.082,0.004l0.044,0.012l0.079,0.003l0.143,0.035l0.079,0.085l0.046,0.111l0.063,0.089l0.035,0.037L1455.996,344.456z
	 M1449.28,258.166l0.087-0.035l-0.003,0.276l0.002,0.35l0.001,0.23l-0.036,0.176l-0.033,0.034l-0.272,0.276l-0.072,0.021
	l-0.077-0.036l-0.074-0.088l-0.059-0.102l-0.028-0.078l0.006-0.095l0.069-0.184l0.018-0.093l0.029-0.056l0.067-0.05l0.124-0.071
	l0.056-0.049l0.031-0.045l0.014-0.049l0.005-0.07l0.087-0.238L1449.28,258.166L1449.28,258.166z M1447.69,254.266l0.004,0.035
	l-0.02,0.029l-0.019,0.001l-0.124,0.01l-0.03,0.026l-0.058,0.063l-0.032,0.02l-0.063,0.019l-0.017-0.018l-0.001-0.052v-0.014
	l-0.001-0.073l0.036-0.259l0.037-0.115l0.083-0.061l0.083,0.018l0.038,0.114l0.002,0.189L1447.69,254.266z M1446.375,255.266
	l0.074-0.088l-0.099-0.065l0.003-0.129l0.059-0.145l0.072-0.113l0.044-0.001l0.007,0.074l0.039,0.046l0.066,0.02l0.088-0.009
	l-0.103,0.101l-0.017,0.025l0.027,0.025l0.054,0.016l0.038,0.021l-0.019,0.04l-0.069,0.081l-0.044,0.083l-0.022,0.08l-0.006,0.068
	l-0.011,0.02l-0.051,0.047l-0.018,0.025l-0.037,0.174l-0.121,0.347l-0.037,0.002l-0.002-0.398l-0.019-0.055l-0.039-0.033
	l-0.042-0.028l-0.024-0.036l0.02-0.101l0.084-0.048L1446.375,255.266z M1442.765,271.537l0.106,0.087l-0.003,0.049l-0.068,0.098
	l0.009,0.041l0.096,0.099l0.086,0.125l-0.086-0.008l-0.449-0.14l-0.057-0.041l-0.153-0.143l-0.036-0.078l0.127-0.034l0.288-0.057
	L1442.765,271.537z M1440.791,347.416l0.094-0.032l0.051-0.075l0.057-0.042l0.202,0.128l0.229,0.057l0.106,0.039l0.271,0.17
	l0.106,0.035l-0.067,0.278l-0.004,0.211l0.014,0.009l0.014,0.006l0.007,0.018l-0.014,0.027l-0.029,0.019l-0.027,0.001l-0.045-0.08
	l-0.083-0.031l-0.314-0.022l-0.277-0.052l-0.055,0.003l-0.046,0.018l-0.037,0.02l-0.028,0.007l-0.058-0.02l-0.045-0.026l-0.04-0.009
	l-0.044,0.028l-0.024-0.071l0.033-0.021l0.054-0.014l0.027-0.045l-0.016-0.046l-0.035-0.036l-0.041-0.032l-0.026-0.033l-0.024-0.105
	l0.007-0.106l0.037-0.097L1440.791,347.416z M1439.672,256.982l0.003,0.031l-0.003,0.036l-0.015,0.047l-0.026,0.036l-0.04,0.009
	l-0.053-0.028l-0.044-0.054l-0.02-0.06l-0.006-0.131l0.025-0.068l0.054-0.018l0.056,0.025l0.024,0.056l0.007,0.032L1439.672,256.982
	z M1436.436,349.355l0.026,0.063l-0.085,0.072l-0.09,0.015l-0.019,0.046l-0.117,0.022l-0.103-0.117l-0.178-0.103l-0.051-0.131
	l-0.068-0.079h0.1l0.047,0.047l0.064,0.049l0.071,0.01l0.037,0.016l0.096,0.011l0.101-0.017l0.087,0.034L1436.436,349.355z
	 M1434.967,348.864l0.061-0.053l0.058-0.1l0.048,0.014l0.026-0.034l0.046-0.038l0.07,0.034l0.078,0.056l0.093-0.04l0.054-0.011
	l0.048-0.002l0.029,0.059l0.021,0.079l0.053,0.054l0.044,0.073l0.083,0.038l-0.062,0.076l-0.141,0.004v0.102l0.035,0.1l0.108,0.1
	l0.087,0.086l-0.002,0.086l0.072,0.079l0.031,0.069l0.016,0.045l-0.285,0.025l-0.102-0.052l-0.15-0.007l-0.034,0.08l-0.036,0.132
	l0.005,0.097l-0.084,0.032l-0.103,0.005l-0.243-0.034l0.057-0.119l-0.046-0.109l0.014-0.169l0.061-0.07l0.03-0.177l-0.015-0.082
	l-0.074-0.097l-0.102-0.081l-0.002-0.05l0.002-0.08l-0.051,0.016l-0.044,0.002l0.009-0.047l0.024-0.043l0.129-0.022
	L1434.967,348.864z M1433.521,346.826l0.005-0.079l-0.012-0.002l-0.053-0.086l-0.003-0.048l0.009-0.06l0.024-0.051l0.042-0.03
	l0.657-0.095l0.111-0.042l0.103-0.087l0.086-0.138l0.028-0.046l0.043-0.11l0.012-0.088l-0.014-0.136l0.025-0.074l0.137-0.147
	l0.052-0.087l0.113-0.303l0.094-0.165l0.028-0.09l-0.011-0.095l-0.257-0.374l0.002-0.089l0.037-0.002l0.129,0.021l0.05-0.007
	l0.037-0.038l0.009-0.047l0.001-0.054l0.012-0.058l0.081-0.107l0.113-0.032l0.275,0.025l0.068-0.002l0.063-0.014l0.12-0.045
	l0.049-0.003l0.053,0.02l0.049,0.024l0.005,0.002l0.052,0.017l0.168,0.022l0.05-0.006l0.087-0.031l-0.002-0.023l-0.038-0.034
	l-0.021-0.067l0.013-0.069l0.066-0.208l-0.024-0.102l-0.159-0.161l-0.021-0.103l0.159-0.145l0.034-0.082l-0.051-0.247l0.028-0.063
	l0.075-0.024l0.12,0.003l0.141,0.03l0.048,0.054l0.033,0.073l0.096,0.084l0.133,0.025l0.091-0.071l0.085-0.085l0.116-0.021
	l0.229,0.06l0.332,0.056l0.19,0.065l0.109,0.023l0.106,0.056l0.037,0.101l0.021,0.113l0.06,0.096l0.479,0.285l0.065,0.044
	l0.068,0.023l0.067-0.001l0.049-0.021l0.071-0.03l0.14-0.041l0.048-0.029l0.024-0.048l-0.004-0.1l0.015-0.05l0.091-0.105
	l0.131-0.081l0.149-0.059l0.149-0.039l0.049-0.082l-0.049-0.153l-0.158-0.269l-0.084-0.094l-0.103-0.081l-0.118-0.062l-0.13-0.034
	l-0.265-0.103l-0.089-0.172l-0.037-0.211l-0.102-0.217l-0.127-0.201l-0.229-0.594l-0.073-0.19l-0.027-0.125l0.032-0.108l0.125-0.065
	l0.066-0.015l0.048-0.022l0.028-0.036l0.013-0.06l0.024-0.046l0.047,0.005l0.06,0.023l0.052,0.01l0.271-0.066l0.102-0.066
	l0.029-0.105l-0.027-0.055l-0.006-0.006l-0.091-0.102l-0.018-0.065l0.025-0.065l0.06-0.033l0.071-0.023l0.064-0.036l0.069-0.102
	l-0.008-0.086l-0.073-0.072l-0.122-0.058l-0.034-0.033l-0.102-0.166l-0.05-0.04l-0.053-0.024l-0.049-0.033l-0.04-0.063l-0.161-0.192
	l-0.222-0.063l-0.25-0.036l-0.24-0.11l-0.171-0.151l-0.319-0.427l-0.149-0.158l-0.185-0.083l-0.454-0.037l-0.305-0.074l0.111-0.117
	l0.214-0.249l0.035-0.054l-0.031-0.125l-0.066-0.033l-0.047,0.038l0.027,0.088l-0.09-0.07l0.008-0.111l0.262-0.567l0.082-0.105
	l0.261-0.182l1.386-0.443l0.152-0.088l0.103-0.098l0.04-0.038l0.198-0.249l0.109-0.106l0.144-0.083l0.191-0.044l0.091-0.041
	l0.076-0.131l0.849-0.824l0.129-0.205l0.055-0.208l0.064-0.076l0.274-0.236l0.623-0.405l0.954-0.416l0.507-0.12l0.99-0.399
	l0.642-0.229l0.114-0.018l0.042-0.015l0.124-0.077l0.061-0.021l0.067,0.005l0.176,0.06l0.135,0.008l0.25-0.022l0.903,0.019
	l0.137,0.022l0.11,0.065l0.119,0.049l0.268-0.032l0.088,0.02l0.559-0.104l0.182,0.01l0.066,0.021l0.21,0.096l0.07,0.05l0.037,0.04
	l0.1,0.085l0.046,0.025l0.053,0.004l0.157-0.015l0.062,0.041l0.021,0.032l0.007,0.011l0.018,0.044l0.034,0.048l0.162,0.127
	l0.094,0.057l0.105,0.019l0.188-0.013l0.563-0.129l0.151,0.038l-0.087,0.109l0.174,0.11l0.271,0.089l0.198,0.042l0.225,0.021
	l0.11,0.029l0.001,0.092l0.076,0.062l0.104,0.056l0.083,0.032l0.122,0.009l0.102-0.015l0.517-0.143l0.076-0.01l0.152-0.074
	l0.199-0.157l0.208-0.1l0.177,0.096l-0.039-0.185l0.629,0.333l0.253,0.058l0.76,0.001l0.122-0.021l0.123-0.01l1.491,0.29
	l0.247-0.006l0.441-0.122l0.389-0.203l0.733-0.546l0.006-0.01l0.034-0.059l0.02-0.08l0.007-0.094l0.018-0.026l0.086-0.071
	l0.025-0.055l-0.009-0.052l-0.07-0.136l0.037-0.079l0.044-0.002l0.053,0.019l0.058-0.009l0.171-0.166l0.097-0.054l0.354-0.097
	l0.145,0.063l0.12,0.018l0.116-0.026l0.586-0.329l0.052-0.041l0.102-0.106l0.042-0.032l0.065-0.016l0.126,0.013l0.07-0.004
	l0.068-0.027l0.137-0.078l0.076-0.012l0.058,0.019l0.123,0.066l0.075,0.021l0.129-0.022l0.366-0.211l0.396-0.092l0.158-0.082
	l0.159-0.045l0.067-0.028l0.153-0.096l0.068-0.027l0.139-0.028l0.124,0.006l0.274,0.044l0.131-0.011l0.138-0.044l0.073-0.067
	l-0.062-0.071v-0.034l0.308-0.116l0.291-0.015l0.167-0.083l0.093-0.018l0.216,0.016l0.088-0.022l0.089-0.054l0.082-0.034
	l0.066,0.036l0.086-0.027l0.266-0.009l0.349-0.071l0.294-0.021l0.16,0.013l0.07,0.044l0.058,0.051l0.28,0.016l0.098,0.038
	l-0.001,0.204l0.021,0.03l0.093,0.067l0.021,0.029l-0.015,0.243l-0.026,0.103l-0.104,0.208l-0.044,0.037l-0.065-0.002l-0.123-0.017
	l-0.091,0.02l-0.067,0.056l-0.06,0.068l-0.064,0.047l-0.235,0.003l-0.111-0.158l-0.092-0.209l-0.178-0.152l-0.027,0.099l0.028,0.099
	l0.063,0.097l0.159,0.201l0.023,0.042l-0.043,0.015l-0.116,0.02l-0.42,0.125l-0.228,0.102l-0.1,0.111l0.077,0.04l0.173-0.036
	l0.384-0.162l0.089,0.008l0.178,0.048l0.084-0.003l0.092-0.014l0.098-0.002l0.1,0.026l0.183,0.212l-0.076,0.251l-0.291,0.437
	l0.013,0.14l0.132,0.232l0.031,0.117l-0.023,0.217l0.01,0.083l0.055,0.093l0.412,0.327l0.153,0.18l-0.043,0.188l-0.029,0.007
	l-0.065,0.031l-0.048,0.036l0.03,0.023l0.072,0.003l0.096-0.015l0.053,0.001l0.072,0.023l0.17,0.117l0.223,0.104l-0.125,0.052
	l-0.194,0.168l-0.126,0.062l-0.129,0.032l-0.696,0.093l-0.247,0.071l-0.205,0.128l-0.175,0.209l-0.293,0.61l-0.677,0.836
	l-0.125,0.207l-0.041,0.115l-0.016,0.124l-0.026,0.086l-0.067,0.053l-0.169,0.069l-0.146,0.086l-0.133,0.113l-0.115,0.138
	l-0.093,0.157l0.037,0.093l0.046,0.275l-0.004,0.092l-0.079,0.112l-0.126,0.055l-0.271,0.069l-0.123,0.075l-0.42,0.391l-0.079,0.05
	l-0.08,0.029l-0.012-0.048l-0.021-0.009l-0.027,0.009l-0.027,0l-0.081,0.059l-0.085,0.086l-0.141,0.188l-0.369,0.714l-0.428,0.816
	l-0.124,0.168l-0.14,0.129l-0.531,0.341l-0.033,0.056l-0.028,0.113l-0.072,0.098l-0.098,0.052l-0.109-0.023l-0.026,0.086
	l-0.041,0.082l-0.112,0.145l0.071,0.105l0.01,0.173l0.09,0.079l-0.156,0.017l-0.201-0.017l-0.174,0.005l-0.076,0.082l-0.021,0.034
	l-0.052,0.045l-0.1,0.065l-0.364,0.06l-0.068,0.039l-0.036,0.068l-0.031,0.254l-0.048,0.061l-0.068,0.045l-0.079,0.084l-0.064,0.29
	l-0.06,0.103l-0.038,0.178l-0.06,0.111l-0.18,0.19l-0.174,0.101l-0.478,0.203l-0.169,0.145l-0.066,0.229l-0.029,0.238l-0.104,0.117
	l-0.281-0.133l-0.02,0.119l-0.084-0.022l-0.377-0.323l-0.081-0.09l-0.033-0.083l-0.069-0.07l-0.162-0.023h-0.299l-0.081,0.024
	l-0.143,0.135l-0.079,0.024l-0.811-0.006l-0.123,0.015l-0.102,0.063l-0.184,0.159l-0.047,0.015l-0.057,0.011l-0.048,0.025
	l-0.032,0.104l-0.029,0.048l-0.035,0.039l-0.029,0.015l-0.101,0.023l-0.391,0.201l-0.195,0.141l-0.056,0.026l-0.143,0.024
	l-0.178,0.081l-0.275,0.012l-0.133,0.021l-0.135,0.071l-0.314,0.346l-0.066,0.124l-0.042,0.046l-0.046,0.023l-0.17,0.06l-0.201,0.11
	l-0.073,0.08l-0.055,0.244l-0.065,0.048l-0.104-0.021l-0.142-0.077l-0.1-0.111l-0.047-0.027l-0.021,0.059l0.018,0.122l0.02,0.063
	l0.023,0.029l0.026,0.063l-0.05,0.126l-0.079,0.125l-0.054,0.068l-0.093,0.046l-0.098,0.019l-0.111-0.002l-0.308-0.047l-0.099-0.042
	l-0.043-0.074l0.024-0.335l-0.017-0.109l-0.119-0.102l-0.044-0.1l-0.021-0.112l0.023-0.085l-0.134,0.034l0.013,0.127l0.07,0.138
	l0.042,0.066l-0.018,0.136l-0.096,0.011l-0.144-0.041l-0.158-0.021l-0.083,0.043l-0.219,0.247l-0.099,0.074l-0.089,0.093
	l-0.029,0.115l0.082,0.136l-0.125,0.035l-0.198,0.021l-0.184-0.004l-0.079-0.046l-0.031,0.076l-0.076,0.014l-0.094-0.011
	l-0.096,0.007l-0.069,0.051l-0.015,0.051l-0.035,0.018l-0.132-0.047l-0.153-0.072l-0.083-0.03l-0.114-0.024l-0.079-0.035
	l-0.082-0.114l-0.084-0.036l-0.166-0.039l-0.393-0.153l-0.162-0.094l0.034,0.087l-0.03,0.09l-0.081,0.069l-0.115,0.016l-0.121-0.036
	l-0.11-0.067l-0.052-0.078l0.058-0.075l-0.084-0.049l-0.069-0.052l-0.053-0.054l-0.036-0.06l-0.028,0.124l0.046,0.123v0.088
	l-0.168,0.008l-0.298-0.025l-0.078-0.062l-0.009-0.154l-0.044-0.007l-0.007,0.03l-0.036,0.073l-0.084-0.054l-0.04,0.007
	l-0.042,0.098l-0.01,0.054l0.018,0.037l-0.008,0.026l-0.086,0.017l-0.083-0.006l-0.101-0.057l-0.062-0.009l-0.021,0.028
	l-0.004,0.052l-0.025,0.043l-0.079,0.003l0.03,0.059l0.012,0.059l-0.003,0.126l-0.027,0.055l-0.052-0.034l-0.045-0.062l-0.001-0.031
	l-0.081-0.009l-0.026,0.016l-0.021,0.037l-0.061,0.054l-0.03,0.049l0.013,0.061l0.037,0.059l0.041,0.043l-0.085,0.052l-0.08,0.019
	l-0.082,0.006l-0.088,0.019l-0.172,0.105l-0.127,0.014l-0.205,0.048l-0.085,0.032l-0.138,0.022l-0.049-0.016l-0.004-0.02
	l0.008-0.024l-0.015-0.025l-0.064-0.065l-0.054-0.068l-0.069-0.057l-0.195-0.068l-0.183-0.105l-0.123-0.031l-0.066,0.004
	l-0.121,0.033l-0.036,0.006l-0.072-0.024l-0.107-0.068l-0.065-0.021l-0.077,0.006l-0.273,0.085l-0.173,0.084l-0.082,0.015
	l-0.135-0.011l-0.509-0.11l-0.14,0.013l-0.24,0.084l-0.128,0.006l-0.503-0.04l0.023-0.044l0.019-0.06l-0.002-0.061l-0.034-0.05
	l-0.059-0.017l-0.037,0.035l-0.026,0.046l-0.027,0.021l-0.688-0.164l-1.188-0.038l-0.103,0.028l-0.114,0.061l-0.129,0.043
	l-0.266,0.054l-0.388,0.131l-0.235,0.028l-0.092,0.067l-0.14,0.149l-0.189,0.105l-0.255,0.075l-0.274,0.039l-0.251-0.005
	l-0.109,0.003l-0.089-0.057l-0.126-0.065l-0.144-0.044l-0.052-0.005l-0.101,0.001l-0.052-0.013l-0.061-0.044l-0.04-0.053
	l-0.05-0.039l-0.084-0.002l-0.136,0.021l-0.098-0.009l-0.234-0.071l-0.13-0.027l-0.066-0.025l-0.047-0.041l-0.023-0.078l0.033-0.042
	l0.02-0.011l0.031-0.019L1433.521,346.826z M1435.063,260.832l0.005,0.151l-0.024,0.151l-0.047,0.126l-0.039,0.046l-0.049,0.019
	l-0.05-0.012l-0.04-0.043l-0.021-0.051l-0.013-0.249l-0.024-0.077l-0.051-0.057l-0.094-0.02l-0.049,0.045l-0.01,0.176l-0.076,0.02
	l-0.068-0.056l-0.031-0.199l-0.057-0.079l0.175-0.127l0.175-0.088l0.174,0.017l0.172,0.181L1435.063,260.832z M1433.244,263.838
	l0.402-0.074l-0.059,0.091l-0.019,0.054l0.022,0.023l0.175,0.028l0.034,0.001l0.056-0.057l0.031-0.078l0.049-0.071l0.116-0.033
	l0.22,0.016l0.148,0.049l0.27,0.159l0.195,0.084l0.243,0.066l0.197-0.03l0.055-0.201l-0.059-0.102l-0.104-0.075l-0.1-0.057
	l-0.045-0.048l-0.033-0.067l-0.241-0.214l-0.132-0.157l-0.069-0.03l-0.195-0.015l-0.023-0.024l-0.012-0.032l-0.031-0.034
	l-0.152-0.063l-0.208-0.174l-0.083-0.024l-0.115,0.033l-0.245,0.114l-0.119-0.003l-0.063-0.038l-0.007-0.039l0.018-0.045
	l0.014-0.061l-0.019-0.042l-0.041-0.031l-0.04-0.013l-0.019,0.02l-0.027,0.037l-0.059,0.012l-0.063-0.008l-0.038-0.019l-0.013-0.051
	l0.018-0.059l0.023-0.056l0.009-0.038l-0.027-0.042l-0.074-0.073l0.005-0.032l0.022-0.038l0.062-0.125l0.011-0.041l0.021-0.017
	l0.174-0.257l0.027-0.028l0.043-0.021l0.097-0.006l0.27,0.025l0.056,0.021l0.042,0.066l0.097,0.019l0.116-0.011l0.093-0.031
	l0.264-0.182l0.102-0.03l0.35-0.022l0.091-0.022l0.118-0.059l0.042-0.065l-0.009-0.198l0.028-0.078l0.065-0.067l0.14-0.11
	l0.129-0.125l0.07-0.087l0.03-0.081l-0.021-0.08l-0.063-0.052l-0.224-0.112l-0.107-0.074v-0.041l0.087-0.019l0.153-0.007
	l0.005-0.021l0.13-0.117l-0.008,0.02l0.025,0.012l0.037,0.004l0.026-0.004l0.011-0.019l0.017-0.063l0.01-0.021l0.077-0.075
	l0.027-0.048l0.01-0.064l-0.039-0.069l-0.011-0.051l0.028-0.049l0.155-0.123l0.089-0.055l0.123-0.053l-0.001-0.033l-0.048-0.018
	l-0.021-0.022l0.004-0.028l0.026-0.032l0.04-0.024l0.043-0.007l0.05-0.001l0.063-0.008l0.053-0.018l0.1-0.047l0.038-0.01
	l0.053,0.018l0.052,0.032l0.051,0.021l0.151-0.054l0.376,0.035l0.085,0.03l0.01,0.074l-0.034,0.165l0.036,0.091l0.069,0.087
	l0.147,0.14l0.097,0.042l0.091-0.029l0.145-0.11l0.22-0.086l0.035-0.073l0.032-0.018l0.058-0.008l0.042-0.014l0.047-0.003
	l0.069,0.02l0.049,0.04l0.018,0.046l0.024,0.037l0.069,0.012l0.093-0.035l0.021-0.071l0.035-0.071l0.139-0.036l0.094,0.027
	l0.08,0.069l0.123,0.169l0.247,0.623l0.149,0.116l-0.018-0.087l-0.143-0.281l-0.038-0.125l-0.004-0.352l-0.05-0.331l0.03-0.247
	l-0.012-0.087l-0.064-0.027l-0.142,0.046l-0.037-0.051l0.003-0.052l0.02-0.058l0.013-0.072l-0.008-0.088l-0.054-0.233l-0.037-0.047
	l-0.074-0.029l-0.071-0.067l-0.109-0.132l-0.241-0.154l-0.053-0.085l-0.027-0.02l-0.018-0.035l0.021-0.071l0.197-0.176l0.057-0.013
	l0.063,0.001l0.052-0.007l0.05-0.087l0.069-0.015l0.117,0.003l0.132-0.029l0.32-0.218l0.028-0.029l0.037-0.004l0.229,0.138
	l0.051,0.073l0.037,0.109l0.007,0.116l-0.038,0.093l0.033,0.083l-0.03,0.31l0.032,0.082l0.07,0.052l0.069,0.008l0.031-0.047
	l0.043-0.022l0.444-0.162l0.039-0.042l0.005-0.022l-0.013-0.029l-0.015-0.06l-0.028-0.075l-0.107-0.195l-0.023-0.083l0.01-0.041
	l0.049-0.035l0.02-0.047l-0.011-0.038l-0.023-0.047l-0.013-0.051l0.026-0.05l0.083-0.053l0.021-0.037l-0.025-0.047l-0.063-0.037
	l-0.052,0.001l-0.06,0.023l-0.101-0.03l-0.04-0.021l-0.042-0.03l-0.047-0.013l-0.104,0.043l-0.062-0.005l-0.067-0.076l-0.026-0.221
	l-0.106-0.202l0.026-0.108l0.154-0.264l0.009-0.025l-0.024-0.023l-0.07-0.052l-0.019-0.042l0.022-0.05l0.034-0.047l0.017-0.032
	l0.026-0.1l0.338-0.52l0.163-0.181l0.047-0.07l0.046-0.088l0.055-0.075l0.073-0.031l0.057,0.015l0.034,0.036l0.021,0.034
	l0.021,0.015l0.327,0.036l0.125,0.03l0.121,0.011l0.12-0.038v-0.034l-0.146-0.044l-0.065-0.028l-0.051-0.036l-0.058-0.021
	l-0.153,0.013l-0.062-0.018l-0.104-0.126l0.001-0.109l0.076-0.099l0.328-0.247l0.103-0.1l0.043-0.088l0.027-0.132l0.075-0.102
	l0.114-0.069l0.139-0.037l-0.032-0.036l-0.029-0.021l-0.037-0.007l-0.06,0.005l0.204-0.244l0.03-0.094l0.054-0.106l0.12-0.089
	l0.123-0.023l0.058,0.086l0.05-0.056l0.032-0.08v-0.082l-0.042-0.058l-0.078-0.011l-0.06,0.032l-0.051,0.016l-0.048-0.064
	l0.003-0.123l0.142-0.243l0.005-0.15l-0.217-0.381l-0.023-0.126l0.042-0.081l0.089-0.077l0.186-0.126l0.124-0.114l0.075-0.049
	l0.094-0.024l0.127,0.006l0.192,0.039l0.099,0.005l0.27-0.036l0.146,0.005l0.115,0.11l0.309,0.23l0.132,0.193l0.393,0.903
	l0.32,0.924l0.129,0.175l0.061,0.116l0.044,0.123l0.013,0.106l-0.02,0.079l-0.077,0.161l-0.025,0.145l-0.034,0.106l0.001,0.063
	l0.025,0.06l0.135,0.143l0.079,0.106l-0.002,0.049l-0.054,0.067l-0.044,0.03l-0.178,0.097l-0.232,0.181l-0.092,0.16l-0.036,0.105
	l0.03,0.046l-0.017,0.049l0.081,0.105l0.152,0.15l-0.032,0.041l0.021,0.024l0.058,0.009l0.077-0.011l-0.054,0.195l0.126,0.175
	l0.369,0.271l0.073,0.082l0.046,0.036l0.063,0.012l0.071-0.008l0.023-0.021l0.014-0.034l0.095-0.133l0.034-0.034l0.053-0.031
	l0.168-0.062l0.213-0.127l0.191-0.145l0.166-0.163l0.147-0.179l0.069-0.068l0.037-0.043l0.016-0.046l0.001-0.046l0.017-0.105
	l0.019-0.041l0.035-0.024l0.106-0.044l0.041-0.024l0.032-0.033l0.025-0.037l0.041-0.088l-0.1-0.01l-0.021-0.067l0.028-0.092
	l0.052-0.074l0.079-0.057l0.073-0.014l0.073,0.024l0.075,0.053l0.076,0.017l0.064-0.046l0.056-0.063l0.048-0.033l0.035-0.043
	l-0.056-0.09l-0.125-0.14l0.032-0.059l0.02-0.124l0.027-0.062l0.08,0.025l0.11-0.063l0.25-0.209l0.044-0.004l0.063,0.04l0.04,0.055
	l-0.008,0.044l-0.028,0.052l-0.021,0.079l0.1-0.031l0.089,0.021l0.074,0.047l0.061,0.051l0.065,0.075l0.021,0.071l-0.008,0.199
	l0.013,0.084l0.055,0.162l0.019,0.096l0.007,0.219l-0.024,0.117l-0.063,0.082l0.103,0.063l0.029,0.038l0.153,0.453l0.046,0.409
	l0.045,0.119l0.399,0.658l0.003,0.11l-0.104,0.316l-0.016,0.084l-0.031,0.063l-0.209,0.201l-0.049,0.073l-0.023,0.043l-0.009,0.044
	l-0.024,0.019l-0.111,0.038l-0.024,0.02l-0.009,0.069l-0.071,0.159l-0.025,0.127l-0.018,0.047l-0.09,0.113l-0.104,0.061
	l-0.113,0.048l-0.111,0.083l0.011,0.076l0.084,0.109l0.101,0.096l0.065,0.042l0.051-0.021l0.068-0.098l0.063-0.024l0.244-0.007
	l0.063-0.02l0.083-0.08l0.075-0.009l0.066,0.021l0.056,0.042l0.084,0.103l0.038,0.033l0.051,0.024l0.042,0.03l0.05,0.014
	l0.031-0.021l0.099-0.092l0.049-0.036l-0.005,0.051l0.007,0.043l0.099,0.207l-0.047,0.046l-0.036,0.082l0.011,0.139l-0.003,0.083
	l-0.03,0.173l-0.046,0.142l-0.085,0.122l-0.35,0.293l-0.244,0.416l-0.151,0.189l-0.062,0.042l-0.055,0.031l-0.04,0.039l-0.016,0.074
	l0.019,0.062l0.086,0.078l0.031,0.048l0.024,0.93l-0.09,0.286v0.208l0.089,0.395l-0.049,0.194l-0.152,0.188l-0.014,0.09l0.158,0.157
	l0.033,0.095l0.004,0.098l-0.06,0.132l0.076,0.128l-0.005,0.066l-0.373,0.227l-0.009,0.056l0.075,0.033l0.123,0.105l0.085,0.038
	l0.06-0.003l0.044-0.025l0.038-0.012l0.047,0.041l0.027,0.088l-0.026,0.057l-0.003,0.055l0.15,0.122l0.02,0.052l-0.009,0.052
	l-0.027,0.051l-0.253,0.132l-0.075,0.02l-0.029,0.019l-0.015,0.035l0.006,0.035l-0.002,0.034l-0.153,0.138l0.029,0.129l0.084,0.14
	l0.048,0.142l-0.01,0.07l-0.071,0.227l-0.007,0.117l-0.012,0.053l-0.033,0.054l0.127,0.041l0.072,0.038l0.051,0.053l0.065,0.09
	l0.281,0.24l0.04,0.063l-0.033,0.084l-0.072,0.053l-0.094,0.032l-0.098,0.022l-0.043,0.031l-0.04,0.063l-0.053,0.121l-0.016,0.213
	l-0.029,0.101l-0.085,0.048l-0.094,0.024l-0.049,0.045l0.009,0.06l0.077,0.065l0.188,0.048l0.195-0.006l0.177,0.021l0.191,0.19
	l0.076,0.019l0.062,0.024l0.021,0.069l-0.031,0.049l-0.052,0.036l-0.019,0.039l0.233,0.215l0.055,0.035l0.039,0.034l0.033,0.102
	l0.055,0.044l0.139,0.039l0.103,0.029l0.523,0.054l0.257,0.062l0.231,0.096l0.065,0.047l0.115,0.177l0.042,0.036l0.136,0.002
	l0.084-0.082l0.068-0.104l0.086-0.072l0.197-0.005l0.694,0.193l0.234,0.029h0.238l0.143-0.022l0.361-0.128l0.063-0.006l0.122,0.011
	l0.06-0.002l0.075-0.019l0.178-0.085l0.125-0.041l0.065-0.003l0.058,0.029l0.024,0.054l-0.016,0.045l-0.026,0.046l-0.011,0.05
	l0.132,0.108l0.279,0.092l0.909,0.173l0.104-0.004l0.116-0.081l0.031-0.077l0.046-0.013l0.279,0.177l0.109,0.031l0.257,0.019
	l0.119,0.041l0.041,0.082l0.028,0.21l0.172,0.334l0.031,0.161l-0.082,0.147l-0.23,0.131l-0.024,0.07l0.156,0.087l0.213,0.086
	l0.079,0.06l0.238,0.293l0.094,0.083l0.127,0.068l0.07,0.021l0.064,0.013l0.063,0.019l0.07,0.04l0.07,0.07l0.023,0.044l0.027,0.012
	l0.081-0.026l0.206-0.136l0.119-0.033l0.149,0.056l0.046,0.056l0.012,0.055l0.024,0.046l0.075,0.032l0.06-0.005l0.122-0.056
	l0.059-0.017l0.127,0.023l0.137,0.045l0.123,0.012l0.086-0.077l0.002-0.058l-0.064-0.111l-0.02-0.056l0.008-0.061l0.024-0.067
	l0.034-0.063l0.042-0.051l0.099-0.078l0.143-0.079l0.143-0.059l0.108-0.012l0.12,0.069l0.044,0.106l0.024,0.234l0.083,0.111
	l0.262,0.193l0.057,0.08l0.046,0.089l0.225,0.22l0.077,0.099l-0.021,0.199l0.042,0.063l0.134,0.036l0.129-0.007l0.096-0.015
	l0.072,0.033l0.055,0.139l0.064,0.4l0.107,0.157l0.241,0.079l0.338,0.06l0.114-0.004l0.055-0.02l0.098-0.059l0.063-0.011
	l0.207,0.006l0.052-0.005l0.138-0.053l0.008-0.06l-0.044-0.083l-0.018-0.121l0.04-0.05l0.082-0.022l0.095,0.001l0.078,0.014
	l0.127,0.045l0.104,0.024h0.107l0.132-0.021l0.117,0.009l0.076,0.066l0.134,0.292l0.042,0.28l0.024,0.052l0.049,0.055l0.059,0.047
	l0.055,0.028l0.068,0.016l0.042-0.006l0.047-0.017l0.077-0.017l0.193-0.005l0.433,0.059l0.328,0.099l0.268,0.136l0.107,0.077
	l0.177,0.184l0.106,0.06l0.152,0.001l0.134-0.024l0.135-0.001l0.122,0.034l0.095,0.084l0.034,0.122l-0.041,0.112l-0.354,0.413
	l-0.072,0.12l-0.02,0.122l0.03,0.1l0.394,0.777l0.006,0.013l0.093,0.113l0.02,0.051l-0.026,0.068l-0.061,0.052l-0.068,0.048
	l-0.058,0.052l-0.071,0.191l0.005,0.21l0.141,0.755l0.047,0.097l0.122,0.121l0.478,0.32l0.671,0.838l0.035,0.131l-0.088,0.147
	l-0.379,0.257l-0.076,0.113l-0.006,0.11l0.037,0.111l0.103,0.208l-0.01,0.236l-0.362,0.38l-0.111,0.248l-0.076,0.303l-0.018,0.234
	l-0.027,0.074l-0.16,0.169l-0.112,0.189l-0.021,0.2l0.042,0.206l0.082,0.201l-0.005,0.078l-0.05,0.015l-0.067-0.032l-0.142-0.163
	l-0.104-0.084l-0.119-0.061l-0.139-0.033l-0.142,0.002l-0.087,0.046l-0.059,0.087l-0.061,0.125l-0.017,0.088l0.012,0.253
	l-0.027,0.102l-0.036,0.086l-0.014,0.085l0.042,0.098l0.056,0.053l0.06,0.033l0.053,0.039l0.033,0.063l-0.003,0.035l-0.049,0.134
	l-0.099,1.555l0.033,0.13l0.072,0.086l0.088,0.074l0.083,0.094l0.036,0.093l0.037,0.325l0.049,0.125l0.344,0.612l0.091,0.1
	l0.158,0.043l0.055-0.024l0.005-0.118l0.055-0.032l0.074,0.006l0.066,0.02l0.396,0.174l0.956,0.305l0.074,0.039l0.037,0.072
	l0.022,0.134l-0.003,0.425l0.127,0.336l0.669,0.478l0.099,0.321l-0.055,0.149l-0.139,0.27l-0.048,0.14l-0.009,0.094l0.012,0.078
	l0.207,0.448l0.211,0.131l0.038,0.066l-0.143,0.053l-0.108,0.017l-0.095,0.026l-0.06,0.052l-0.004,0.093l0.08,0.211l0.024,0.104
	l-0.008,0.112l-0.041,0.116l-0.378,0.693l-0.014,0.105l0.364,1.195l0.012,0.332l0.033,0.161l0.085,0.149l0.302,0.308l0.099,0.057
	l0.114,0.009l0.052,0.013l0.031,0.041l-0.007,0.028l-0.055,0.052l-0.01,0.013l0.041,0.069l0.02,0.005l0.049,0.108l-0.001,0.021
	l-0.025,0.059v0.028l0.043,0.061l0.112,0.104l0.03,0.07l-0.011,0.072l-0.043,0.044l-0.051,0.034l-0.028,0.037l-0.006,0.06
	l0.021,0.022l0.048,0.021l0.077,0.056l0.127,0.228l-0.039,0.25l-0.144,0.237l-0.19,0.19l-0.364,0.205l-0.095,0.083l-0.033,0.064
	l-0.072,0.266l0.016,0.077l0.026,0.073l-0.02,0.048l-0.13,0.003l-0.155,0.019l-0.463,0.241l-0.271,0.101l-0.128,0.072l-0.061,0.092
	l-0.05,0.308l-0.044,0.098l-0.107,0.114l-0.242,0.1l-0.107,0.093l-0.109,0.183l-0.068,0.063l-0.134,0.057l-0.373,0.082l-0.103,0.06
	l-0.058,0.093v0.101l0.015,0.105l-0.011,0.105l-0.091,0.086l-0.269,0.08l-0.044,0.036l0.066,0.103l-0.01,0.031l-0.176,0.004
	l-0.067,0.032l-0.481,0.442l-0.154,0.094l-0.129,0.05l-0.123,0.022l-0.287-0.009l-0.495-0.062l-0.119,0.021l-0.043,0.09l-0.002,0.23
	l-0.029,0.067l-0.061,0.057l-0.076,0.043l-0.076,0.032l-0.078,0.022h-0.046l-0.047-0.005l-0.227,0.021l-0.094-0.01l-0.078-0.048
	l-0.192-0.201l-0.076-0.061l-0.139-0.086l-0.289-0.154l-0.333-0.115l0.004-0.001l0.105-0.018l0.139-0.004l0.253-0.038l0.123,0
	l0.101,0.023l0.086,0.03l0.101,0.008l0.139-0.04l0.26-0.14l0.118-0.09l0.093-0.102l0.164-0.314l0.147-0.179l0.107-0.208l0.081-0.085
	l0.107-0.057l0.218-0.077l0.101-0.058l0.02-0.073l-0.006-0.259l-0.013-0.064l-0.049-0.082l-0.016-0.114l0.008-0.668l0.02-0.069
	l0.085-0.098l0.02-0.057l-0.016-0.026l-0.081-0.084l-0.026-0.041l-0.021-0.049l-0.005-0.031l0.021-0.03l0.167-0.117l0.013-0.035
	l-0.109-0.031l-0.074-0.054l-0.037-0.015l-0.038,0.002l-0.063,0.021l-0.026,0.006l-0.198-0.002l-0.059-0.011l-0.138-0.071
	l-0.062-0.087l0.032-0.07l0.183-0.032l0.075-0.044l0.039-0.014l0.041-0.002l0.089,0.014l0.04-0.003l0.045-0.017l0.035-0.021
	l0.028-0.027l0.024-0.034l0.018-0.036l0.012-0.046l0.01-0.115l-0.026-0.055l-0.117-0.069l-0.064-0.161l-0.062-0.097l-0.013-0.085
	l0.113-0.062l0.097,0.068l0.087,0.051l0.097,0.03l0.125,0.016l0.05,0.021l0.114,0.099l0.072,0.033l-0.069-0.143l-0.008-0.074
	l0.034-0.074l0.071-0.046l0.066-0.011l0.054-0.015l0.028-0.058l-0.014-0.048l-0.066-0.112l-0.006-0.062l0.03-0.069l0.142-0.208
	l0.109-0.297l0.09-0.13l0.149-0.06l0.157,0.037l0.114,0.099l0.154,0.205l0.046,0.002l-0.004-0.139l-0.023-0.11l-0.058-0.1
	l-0.108-0.109l-0.12-0.057l-0.122,0.001l-0.114,0.021l-0.097-0.001l-0.131-0.145l0.041-0.241l0.22-0.438l0.177-0.218l0.48-0.38
	l0.162-0.195l0.189-0.304l0.025-0.066l-0.021-0.126l-0.108-0.179l-0.042-0.111l0.081-0.167l0.188-0.183l0.118-0.202l-0.128-0.23
	l-0.005,0.087l-0.065,0.143l-0.017,0.07l-0.039,0.022l-0.175,0.042l-0.04,0.036l-0.016,0.082l-0.063,0.144l-0.01,0.076l0.022,0.063
	l0.104,0.193l0.005,0.114l-0.036,0.096l-0.067,0.083l-0.094,0.072l-0.083,0.092l-0.112,0.227l-0.088,0.083l-0.3,0.083l-0.117,0.096
	l-0.076,0.02l-0.185-0.001l-0.052-0.009l-0.217-0.079l-0.23-0.052l-0.081-0.052l-0.068-0.304l-0.005-0.115l0.043-0.101l0.112-0.064
	l0.146-0.063l0.086-0.082l-0.064-0.122l-0.015-0.067l0.062-0.071l0.055-0.085l-0.037-0.115l-0.039,0.104l-0.027,0.05l-0.086,0.089
	l-0.006,0.047l0.002,0.045l-0.033,0.103l0.003,0.034l-0.017,0.017l-0.074,0.002l-0.104,0.056l-0.028,0.01l-0.022,0.019l-0.023,0.093
	l-0.014,0.032l-0.03,0.021l-0.248,0.111l-0.084,0.023l-0.093,0.007l-0.036-0.026l-0.035-0.119l-0.037-0.038l-0.035,0.007
	l-0.061,0.076l-0.052,0.018l-0.125-0.022l-0.114-0.048l-0.213-0.125l-0.405-0.179l-0.575-0.171l-0.145-0.016l-0.03-0.03l0.012-0.063
	l0.041-0.102l-0.013-0.127l-0.135,0.129l-0.149,0.004l-0.078-0.075l0.008-0.093l0.044-0.101l0.046-0.188l-0.011-0.044l-0.053-0.072
	l-0.046-0.036l-0.16-0.102l-0.049-0.018l-0.05,0.046l0.023,0.063l0.063,0.055l0.154,0.048l0.014,0.049l-0.025,0.053l-0.109,0.139
	l-0.021,0.106l0.064,0.375l-0.012,0.073l-0.067,0.025l-0.142-0.001l-0.099-0.036l-0.101-0.082l-0.058-0.106l0.025-0.104l-0.117,0.05
	l-0.044,0.097l-0.021,0.091l-0.05,0.04l-0.112-0.012l-0.29-0.074l-0.432-0.068l-0.168-0.071l-0.122-0.136l0.103-0.04l0.051-0.066
	l0.064-0.172l0.063-0.058l0.188-0.122l0.042-0.042l0.018-0.029l0.035-0.032l0.026-0.035l-0.015-0.044l-0.131-0.168l-0.018-0.048
	l-0.032-0.176l0.012-0.038l0.082-0.091l0.069-0.1l-0.111,0.039l-0.127,0.099l-0.187,0.163l-0.075,0.04l-0.259,0.052l-0.091,0.037
	l0.012-0.16l0.045-0.142l0.006-0.125l-0.103-0.105l0.016-0.028l0.008-0.007l-0.004-0.008l-0.02-0.03l-0.051,0.111l-0.056,0.193
	l-0.063,0.081l-0.066,0.063l-0.066,0.05l-0.096,0.025l-0.149-0.007l-0.376-0.105l-0.24-0.034l-0.089-0.038l-0.066-0.059
	l-0.335-0.382l-0.411-0.577l-0.09-0.161l-0.225-0.99l-0.03-0.788l-0.453-1.475l-0.438-1.432l-0.193-0.787l-0.146-0.318l0.002-0.06
	l-0.326-0.898l-0.105-0.172l-0.343-0.281l-0.23-0.112l-0.134,0.063l-0.054-0.04l-0.106-0.137l-0.254-0.25l-0.034-0.056l-0.057-0.022
	l-0.315-0.177l-0.412-0.405l-0.166-0.096l-0.047-0.018l-0.049-0.011l-0.129-0.011l-0.061-0.028l-0.109-0.12l-0.037-0.028
	l-0.063-0.036l-0.321-0.249l-0.241-0.122l-0.136-0.044l-0.139-0.018l-0.11-0.043l-0.093-0.098l-0.142-0.212l-1.241-1.247
	l-1.611-1.08l-0.284-0.109l-0.232,0.033l-0.195-0.109l-0.249-0.054l-0.278-0.001l-0.553,0.106l-0.095-0.033l-0.037-0.115
	l0.183-0.327l0.05-0.276l0.064-0.106l0.148-0.163l0.056-0.123l0.046-0.059l0.12-0.038l0.019-0.031l0.002-0.078l0.017-0.037
	l0.038-0.012l0.047-0.003l0.039-0.017l0.068-0.053l0.064-0.029l0.165-0.038l0.164,0.001l0.121-0.068l0.264-0.032l0.056,0.017
	l0.072,0.071l0.034,0.017l0.089-0.008l0.055-0.022l0.014-0.173l0.051-0.22l-0.043-0.207l0.007-0.093l0.078-0.063l0.373-0.103
	l0.116-0.049l0.113-0.071l0.344-0.317l0.088-0.106l0.045-0.04l0.062-0.025l0.147-0.037l0.047-0.025l0.028-0.208l-0.162-0.239
	l-0.521-0.467l-0.086-0.039l-0.245-0.028l-0.114-0.036l-0.201-0.116l-0.109-0.036l-0.104,0.016l0.076,0.158l-0.122,0.003
	l-0.054-0.03l-0.036-0.032l-0.137-0.121l-0.101-0.055l-0.098-0.038l-0.224-0.046l-0.169-0.013l-0.028,0.039l0.015,0.074
	l-0.043,0.099l-0.163,0.091l-0.215,0.029l-0.686,0.023l-0.131,0.016l-0.12,0.029l-0.217,0.097l-0.108,0.037l-0.097-0.003
	l-0.006-0.006l-0.047-0.043l-0.09-0.184l-0.063-0.085l-0.18-0.163l-0.066-0.09l-0.035-0.113l0.006-0.091l0.018-0.092l-0.002-0.088
	l-0.058-0.081l-0.089-0.033l-0.098-0.004l-0.089-0.016l-0.133-0.114l-0.03-0.055l-0.035-0.047l-0.04-0.04l-0.054-0.029l0.119-0.035
	l0.226-0.005l0.212-0.03l0.001-0.001l0.463,0.035l0.476-0.02l0.228-0.044l0.457-0.164l0.23-0.059l0.58-0.061l0.083-0.04l0.053-0.067
	l0.125-0.287l0.024-0.106l-0.017-0.15l0.017-0.042l0.079-0.079l0.025-0.053l-0.006-0.097l0.02-0.045l0.072-0.091l0.06-0.117
	l0.005-0.111l-0.094-0.072l-0.122,0.013l-0.126,0.074l-0.194,0.177l-0.181,0.117l-0.23,0.067l-0.248,0.029l-0.231-0.001
	l-0.232-0.041l-0.101-0.007l-0.139,0.021l-1.104,0.332l-0.208,0.125l-0.051,0.064l-0.037,0.068l-0.054,0.045l-0.134,0.004
	l0.003-0.084l-0.012-0.076l-0.044-0.057l-0.193-0.047l-0.052-0.059l0.008-0.069l0.081-0.056l0.041-0.016l0.012-0.026l-0.01-0.109
	l0.011-0.047l0.022-0.051l0.033-0.04l0.113-0.054l0.035-0.088l0.002-0.104l-0.018-0.081l-0.048-0.059l-0.194-0.166l-0.034-0.021
	l-0.204-0.199l-0.236-0.159l-0.038-0.062l-0.02-0.102l-0.052-0.096l-0.064-0.079l-0.066-0.046l-0.093-0.03l-0.234-0.033
	l-0.211-0.006l-0.057-0.01l-0.118-0.052l-0.05-0.042l-0.033-0.044l-0.045-0.02l-0.077,0.034l0.104,0.188l-0.007,0.185l-0.081,0.17
	l-0.445,0.446l-0.054,0.013l-0.049-0.011l-0.037,0.003l-0.015,0.052l0.014,0.022l0.098,0.097l-0.07,0.028l-0.082-0.015l-0.09-0.03
	l-0.188-0.032l-0.077-0.035l-0.06-0.035l-0.044-0.016l-0.062-0.059l-0.176-0.258l-0.117-0.059l-0.086-0.056l-0.291-0.35
	l-0.438-0.172l-0.113-0.097l0.132-0.071l0.37,0.169l0.166-0.103l-0.06-0.026l-0.156-0.021l-0.063-0.023l0.17-0.171l0.053-0.104
	l0.036-0.439l-0.011-0.144l-0.049-0.131l-0.153-0.152l-0.227-0.126l-0.253-0.096l-0.231-0.06l-0.251-0.035l-0.11-0.028l-0.094-0.052
	l-0.068-0.072l-0.287-0.443l-0.1-0.077l-0.131-0.031l-0.263-0.012l-0.111-0.029l-0.564-0.297l-0.248-0.067l-0.167,0.079l0.046,0.11
	l-0.074,0.04l-0.107-0.048l-0.056-0.15l-0.063-0.086l-0.402-0.229l-0.109-0.104l-0.035-0.063l-0.015-0.082l0.022-0.059l0.039-0.075
	l0.013-0.062l-0.056-0.025l-0.188,0.022l-0.016,0.061l0.053,0.093l0.018,0.125l-0.036,0.001l-0.082-0.134l-0.096-0.076l-0.02-0.021
	l-0.008-0.036l0.008-0.099l-0.035-0.046l-0.019-0.009l-0.031,0.001l-0.182-0.04l-0.036-0.014l-0.046-0.024l-0.062-0.044
	l-0.382-0.432l-0.085-0.073l-0.079-0.087l-0.048-0.091l-0.062-0.072l-0.121-0.028l-0.102-0.002l-0.108-0.014l-0.085-0.036
	l-0.034-0.065l-0.076-0.085l-0.469-0.297l-0.08-0.072l-0.078-0.05l-0.1-0.028l-0.143-0.007l-0.19,0.011l-0.058-0.007l-0.044-0.02
	l-0.094-0.059l-0.058-0.019l-0.215,0.012l-0.095-0.016l-0.075-0.137l-0.087-0.04l-0.221-0.043l-0.124-0.004l-0.049-0.01l-0.02-0.035
	l-0.019-0.02l-0.091-0.051l-0.066-0.026l-0.048-0.041l-0.035-0.052l-0.01-0.056l0.022-0.016l0.127-0.053l0.148-0.205
	L1433.244,263.838z M1431.25,262.976l0.136,0.009l0.081,0.048l-0.096,0.092l0.039,0.071l0.105,0.023l0.101-0.055l0.134,0.465
	l0.054-0.024l0.028-0.043l0.033-0.026l0.06,0.023l0.025,0.044l0.006,0.068l-0.008,0.071l-0.022,0.051l-0.498-0.226l-0.036-0.069
	l-0.045-0.164l-0.034-0.066l-0.268-0.194l0.073-0.07L1431.25,262.976z M1431.895,261.792l0.104,0.073l-0.047,0.085l0.042,0.09
	l0.063,0.283l0.031,0.061l0.031,0.027l0.07,0.128l0.034,0.044l0.064,0.032l0.063,0.019l0.057,0.026l0.045,0.052l-0.135,0.039
	l-0.425,0.047l-0.091-0.022l-0.04-0.019l-0.248,0.01l-0.051-0.017l-0.028-0.025l-0.03-0.077l-0.03-0.047l-0.136-0.114l-0.086-0.107
	l-0.03-0.06l-0.01-0.066l-0.075-0.364l0.038-0.117l0.09-0.06l0.132-0.009l0.428,0.037L1431.895,261.792z"/></svg>