<?xml version="1.0" encoding="utf-8"?>
<!-- Generator: Adobe Illustrator 15.0.0, SVG Export Plug-In . SVG Version: 6.00 Build 0)  -->
<!DOCTYPE svg PUBLIC "-//W3C//DTD SVG 1.1//EN" "http://www.w3.org/Graphics/SVG/1.1/DTD/svg11.dtd">
<svg version="1.1" id="Ebene_1" xmlns="http://www.w3.org/2000/svg" xmlns:xlink="http://www.w3.org/1999/xlink" x="0px" y="0px"
	 width="1920px" height="1080px" viewBox="0 0 1920 1080" enable-background="new 0 0 1920 1080" xml:space="preserve">

<path fill="#F4E0B6" stroke="#FFFFFF" d="M543.769,953.644L543.769,953.644L543.769,953.644l0.102-0.126l0.125-0.235l0.01,0.039
	l-0.007,0.143l0.002,0.052l0.014,0.08l0.003,0.047l-0.028,0.069l-0.061,0.009L543.769,953.644z M554.215,958.416l0.023,0.049
	l0.058-0.003l-0.001,0.028l0.006,0.011l0.011,0.007l0.012,0.013l0.021,0.037l0.083,0.017l0.036,0.029l0.011,0.046l0.005,0.058
	l0.01,0.048l0.025,0.016l0.039-0.032l0.017-0.05l0.018-0.034l0.043,0.007l0.012,0.021l0.007,0.059l0.018,0.022h0.024l0.032-0.015
	l0.031-0.012l0.026,0.014l-0.002,0.031l-0.028,0.11l0.006,0.041l0.032,0.01l0.105-0.023l0.296,0.074l0.057,0.078l-0.034,0.019
	l0.038,0.04l0.078-0.016l0.064-0.002l-0.006,0.081l-0.074,0.013l-0.034,0.014l-0.038,0.022l-0.08,0.07l-0.036,0.018l-0.04-0.007
	l-0.046-0.02h-0.038l-0.179,0.035l-0.029-0.01l-0.017-0.038l0.037-0.032l0.096-0.067l0.023-0.02l0.026-0.068l-0.022-0.023
	l-0.049,0.008l-0.057,0.022l-0.051,0.016l-0.042-0.009l-0.079-0.053l-0.006-0.014l-0.012-0.011l-0.031-0.001l-0.023,0.01
	l-0.021,0.021l-0.019,0.021l-0.017,0.014l-0.074-0.001l-0.236-0.086l-0.04,0.035l-0.044,0.003l-0.032-0.028l0.002-0.059l0.028-0.045
	l0.047-0.05l0.087-0.08l-0.043-0.023h-0.022l-0.03,0.008l-0.013-0.05l-0.029-0.013l-0.083,0.023l-0.176,0.014l-0.04,0.013
	l-0.077,0.035l-0.043,0.013l-0.05-0.001l-0.045-0.016l-0.081-0.045l0.016-0.013l0.013-0.011l0.014-0.01l0.021-0.006l0.019-0.031
	l-0.028-0.016l-0.03-0.004l-0.033,0.004l-0.037,0.018l0.005,0.013l0.006,0.036l-0.045,0.014l-0.144-0.007l-0.047,0.019l-0.08,0.06
	l-0.037,0.019l-0.047-0.01l-0.117-0.071l-0.024-0.029l0.01-0.044l0.032-0.023l0.044-0.019l0.046-0.03l-0.122-0.265l0.057-0.073
	l0.079-0.02l0.078-0.009l0.054-0.033l0.058-0.026l0.05,0.072l0.063,0.151l0.054,0.02l0.173,0.021l0.066-0.022l-0.044-0.216
	l0.016-0.077l0.079,0.01l0.007,0.031l0.001,0.124l0.008,0.051l0.062,0.075l0.031,0.003l0.066-0.013l0.023,0.003l0.021,0.01
	l0.021,0.017l0.008,0.032l-0.022,0.057l-0.036,0.064l-0.008,0.029l0.01,0.02l0.031,0.009l0.017-0.02l0.01-0.031l0.013-0.028
	l0.042-0.069l0.028-0.061l0.035-0.054l0.064-0.049l0.018,0.017L554.215,958.416z M549.028,945.984l-0.151,0.496l-0.026,0.068
	l-0.047,0.063l-0.003-0.057l0.02-0.104l0.094-0.338l-0.04-0.067l-0.053-0.02l-0.078,0.003l-0.11,0.023l-0.11,0.037l-0.208,0.098
	l-0.226,0.068l-0.187,0.154l-0.101,0.137l-0.05,0.172l0.036,0.178l0.073,0.195l0.094,0.061l0.091,0.097l0.142,0.132l0.274,0.106
	l0.12,0.226l-0.025,0.159l-0.007,0.103l-0.093,0.138l-0.01,0.04l-0.012,0.096l-0.08,0.209l-0.027,0.096l-0.014,0.345l-0.008,0.066
	l0.168,0.772l0.092,0.225l0.018,0.093l-0.026,0.069l-0.057,0.048l0.066,0.028l0.061,0.014l0.042,0.094l0.119,0.188l-0.005,0.06
	l-0.076-0.017l-0.066,0.062l-0.045,0.107l-0.005,0.077l0.314,0.964l0.21,0.496l0.193,0.281l0.096,0.193l0.001,0.101l0.054,0.101
	l0.246,0.337l0.062,0.246l-0.025,0.309l0.098,0.374l0.001,0.14l0.057,0.096l-0.034,0.117l0.062,0.076l0.062,0.054l0.076,0.089
	l0.129,0.259l0.56,0.871l0.025,0.029l0.06,0.044l0.026,0.028l0.037,0.12l0.018,0.025l0.169,0.111l0.134,0.142l0.611,0.225
	l0.106,0.087l0.063,0.032l0.207,0.016l0.321,0.262l0.016,0.046l-0.055,0.048l-0.078,0.035l-0.056,0.004l-0.037,0.026l-0.2,0.187
	l-0.002,0.028l-0.013,0.052l-0.003,0.028l-0.124,0.033l-0.036,0.022l-0.02,0.04l-0.016,0.055l-0.019,0.044l-0.069,0.001
	l-0.115,0.031l-0.036,0.017l-0.211,0.227l-0.046,0.018l-0.046,0.003l-0.032-0.009l-0.043-0.041l0.011-0.04l0.03-0.045l0.017-0.062
	l-0.039-0.076l-0.08-0.043l-0.077,0.013l-0.029,0.095l-0.098,0.051l-0.175-0.126l-0.094-0.02l-0.039,0.025l-0.036,0.037
	l-0.038,0.031l-0.048,0.011l-0.054-0.015l-0.032-0.033l-0.012-0.05l0.006-0.07l0.01-0.021l0.04-0.06l0.016-0.036l0.006-0.032
	l0.002-0.029l-0.026-0.023l-0.04-0.028l-0.043-0.028l-0.118-0.013l-0.115-0.152l-0.084,0.017l-0.127-0.122l-0.07,0.009l-0.001,0.084
	l0.016,0.088l-0.083,0.051l-0.093,0.032l-0.184-0.036l-0.158-0.022l-0.177-0.113l-0.285-0.146l-0.151-0.023l-0.033,0.077
	l-0.044,0.061l-0.144-0.032l-0.073-0.008l-0.206-0.118l-0.161-0.199l-0.044-0.081l-0.017-0.084l-0.003-0.087l-0.011-0.07
	l-0.116-0.274l-0.052-0.061l-0.249-0.178l-0.144-0.209l-0.675-0.432l-0.446-0.334l-0.313-0.131l-0.579-0.403l-0.306-0.246
	l-0.058-0.153l-0.213-0.139l-0.08-0.149l-0.055-0.065l-0.053,0.023l-0.043,0.104l-0.027,0.032l-0.054,0.025l-0.477-0.189
	l-0.053-0.048l-0.021-0.064l-0.01-0.153l-0.036-0.165l-0.01-0.013l0,0l0.616-1.154l0.614-1.151l0.612-1.145l0.61-1.142l0.607-1.138
	l0.607-1.135l0.604-1.13l0.602-1.128l0,0l0.049,0.103l0.003,0.048l-0.024,0.161v0.05l0.029,0.328l-0.002,0.384l0.013,0.081
	l0.083,0.244l0.016,0.146l-0.009,0.167L549.028,945.984z M593.65,906.24l-0.145,0.052l-0.126,0.084l-0.112,0.038l-0.08-0.047
	l-0.052-0.072l0.088-0.102l0.008-0.085l-0.108,0.001l-0.078-0.049l-0.017-0.074l0.092-0.036l0.122-0.07l0.108-0.139l0.169-0.144
	l0.052,0.026l0.067,0.058l0.099,0.063l0.026,0.129l-0.015,0.135l-0.005,0.14L593.65,906.24z M594.074,905.699l-0.054,0.047
	l0.021-0.096l0.029-0.115l-0.011-0.13l-0.006-0.28l0.025-0.181l0.156-0.162l0.055,0.029l0.069,0.078l0.063,0.089l0.007,0.152
	l-0.11,0.151l-0.133,0.203L594.074,905.699z M597.048,901.503l0.013,0.011l0.027-0.014l0.031-0.035l0.021-0.01l0.007,0.044
	l-0.007,0.104l-0.06,0.216l-0.027,0.06l-0.059,0.038l-0.061-0.031l-0.048-0.064l-0.02-0.059l-0.016-0.078l-0.141-0.178l-0.039-0.083
	l-0.021-0.081l-0.012-0.246l0.012-0.092l0.034-0.06l0.061,0.024l0.074,0.119l0.245,0.245l-0.001,0.132L597.048,901.503z
	 M597.125,900.843l0.043,0.126l-0.016,0.057l-0.048,0.025l-0.061-0.005l-0.054-0.032l-0.041-0.06l-0.083-0.229l-0.069,0.019
	l-0.05-0.044l-0.003-0.064l0.074-0.048l0.221,0.153L597.125,900.843z M622.654,828.658l0.142,0.826l0.062,0.136l0.089,0.099
	l0.533,0.227h0.034l0.026-0.009l0.026-0.005l0.033,0.014l0.227,0.181l0.177,0.132l0.963,0.536l0.612,0.344l0.578,0.549l0.166,0.291
	l0.12,0.118l0.037,0.011l0.083,0.009l0.032,0.011l0.024,0.028l0.068,0.056l0.037,0.092l0.057,0.088l0.061,0.059l0.02,0.045
	l0.024,0.174l0.003,0.065l-0.015,0.099l-0.035,0.064l-0.056,0.04l-0.08,0.031l-0.088,0.071l0.006,0.097l0.043,0.097l0.022,0.07
	l-0.021,0.046l-0.072,0.061l-0.023,0.039l0.002,0.04l0.038,0.082v0.03l-0.032,0.103l0.009,0.103l0.08,0.314l-0.041,0.057
	l-0.049,0.023l-0.05,0.019l-0.038,0.035l-0.027,0.036l-0.063,0.067l-0.029,0.043l-0.026,0.063l0.009,0.036l0.024,0.031l0.02,0.049
	l-0.029,0.265l0.02,0.055l0.056,0.081l-0.004,0.113l-0.05,0.115l-0.082,0.077l0.011,0.08l-0.095,0.191l0.047,0.07l0.024-0.054
	l0.259-0.252l0.076-0.059l0.168-0.282l0.5-0.5l0.106-0.064l0.289-0.071l0.162-0.079l0.682-0.555l0.044-0.015l0.095,0.002
	l0.054-0.028l0.283-0.226l0.185-0.189l0.07-0.045l0.026-0.002l0.029,0.005l0.036,0.003l0.044-0.013l0.031-0.025l0.059-0.068
	l0.086-0.067l0.015-0.022l0.02-0.005l0.064,0.007l0.106,0.036l0.318,0.22l0.052,0.074l0.067,0.222l0.03,0.043l0.255-0.054
	l0.077,0.001l0.151,0.056l1.116,0.668l1.114,0.67l0.002,0.002l0.544,0.284l0.135,0.122l0.043,0.043l-0.012,0.042l-0.067,0.161
	l-0.023,0.039l-0.03,0.026l-0.005,0.062l-0.074,0.125l-0.015,0.084l0.016,0.086l0.117,0.184l0.083,0.203l0.013,0.069l-0.006,0.045
	l-0.017,0.038l-0.007,0.033l0.025,0.029l0.031,0.028l0.02,0.035l0.009,0.041v0.04l-0.025-0.014l-0.01,0.065l-0.038,0.032
	l-0.044,0.02l-0.027,0.029l0.005,0.053l0.028,0.05l0.039,0.042l0.037,0.029l0.07,0.071l0.029,0.089l0.015,0.166l0.033,0.048
	l0.114,0.131l0.013,0.046l-0.011,0.073l0.022,0.098l0.14,0.322l0.052,0.068l0.023,0.019l0.115,0.094l0.032,0.035l0.016,0.032
	l-0.002,0.023l-0.009,0.021l-0.027,0.043l-0.009,0.034l0.017,0.018l0.025,0.013l0.016,0.016l0.021,0.142l-0.015,0.087l-0.061,0.052
	l-0.092,0.04l-0.029,0.05l0.022,0.066l0.062,0.094l0.037,0.038l0.023,0.01l0.008,0.015l-0.006,0.052l-0.077,0.069l-0.032,0.051
	l0.041,0.084l-0.1,0.064l0.002,0.029l0.038,0.044l0.003,0.046l-0.011,0.053l-0.004,0.055l0.03,0.167l-0.005,0.036l-0.013,0.041
	l-0.004,0.038l0.017,0.027l-0.005,0.016l0.012,0.046l0.02,0.045l0.017,0.01l-0.015,0.057l0.004,0.064l0.026,0.125l0.002,0.11
	l-0.023,0.182l0.003,0.081l-0.016,0.043l-0.074,0.079l-0.001,0.024l-0.01,0.018l0.003,0.104l0.038,0.216l0.239,0.479l0.009,0.046
	l0.006,0.165l0.018,0.063l0.05,0.094l0.018,0.056l0.008,0.069l-0.001,0.05l-0.019,0.052l-0.042,0.073l-0.026,0.076l0.019,0.057
	l0.036,0.055l0.028,0.064l0.016,0.096l0.018,0.036l0.038,0.042l0.166,0.101l0.035,0.055l0.058,0.297l0.021,0.035l0.037,0.032
	l0.061,0.041l-0.036,0.021l-0.044,0.035l-0.027,0.036l0.032,0.072l-0.023,0.109l0.02,0.04l0.072,0.049l0.057,0.052l0.041,0.06
	l0.029,0.069l0.018,0.063l0.019,0.048l0.041,0.043l0.077,0.052l0.162,0.241l-0.003,0.065l-0.018,0.074l0.003,0.074l0.059,0.066
	l0.021,0.033l0.024,0.11l0.018,0.043l0.022,0.015l0.072,0.038l0.023,0.02l0.021,0.063l0.013,0.079l0.022,0.082l0.047,0.057
	l0.021,0.06l-0.037,0.085l-0.067,0.081l-0.071,0.042l0.01,0.055l-0.004,0.139l0.058,0.108l0.01,0.107l-0.008,0.105l-0.026,0.055
	l0.007,0.035l-0.004,0.114l0.012,0.055l0.064,0.138l0.156,0.043l0.087,0.142l0.055,0.17l0.061,0.121l0.066,0.052l0.102,0.061
	l0.206,0.12l0.026,0.031l0.031,0.105l0.028,0.03l0.164,0.09l0.037,0.028l0.03,0.037l0.039,0.07l0.027,0.026l-0.01,0.024
	l-0.023,0.156l0.015,0.02l0.12,0.082l0.043,0.069l0.061,0.154l0.186,0.175l0.125,0.07l0.029,0.025l0.021,0.048l0.028,0.102
	l0.023,0.045l0.028,0.025l0.113,0.063l0.243,0.21l0.263,0.151l0.094,0.033l0.2,0.042l0.076,0.038l0.051,0.055l0.701,1.605
	l0.042,0.22l0.006,0.12l0.009,0.039l0.027,0.034l0.078,0.065l0.035,0.073l0.055,0.052l0.015,0.039l0.01,0.064l0.018,0.052
	l0.048,0.096l0.053,0.079l0.009,0.032l-0.005,0.034l-0.015,0.04l-0.007,0.037l0.058,0.091l0.056,0.201l0.008,0.058l-0.019,0.178
	l0.01,0.105l0.085,0.115l0.009,0.081l0.023,0.032l0.047,0.04l0.011,0.037l0.002,0.036l0.016,0.048l0.11,0.14l0.051,0.132
	l0.062,0.078l0.072,0.167l0.051,0.068l0.063,0.041l0.019,0.017l0.02,0.042l0.022,0.112l0.018,0.048l0.09,0.095l0.322,0.916
	l0.059,0.063l0.17,0.114l0.038,0.047l0.012,0.035l0.019,0.029l0.011,0.029l-0.011,0.035l0.005,0.029l0.652,0.629l0.051,0.088
	l0.014,0.07l0.004,0.164l0.054,0.387l-0.003,0.049l-0.009,0.036l0.003,0.032l0.035,0.042l0.042,0.019l0.057,0.006l0.062-0.003
	l0.163-0.04l0.084-0.005l0.064,0.039l0.164,0.409l-0.005,0.078l0.044,0.023l0.154,0.273l0.032,0.025l0.082,0.038l0.027,0.027
	l0.001,0.047l-0.017,0.05l-0.003,0.052l0.036,0.047l0.269,0.176l0.049,0.067l0.02,0.074l0.03,0.272l0.025,0.071l0.07,0.122
	l0.008,0.074l-0.056,0.313l0.003,0.135l0.054,0.139v0.001l-0.076,0.329l-0.029,0.045l0.097,0.303l0.011,0.08l-0.009,0.064
	l-0.037,0.063l-0.264,0.294l-0.063,0.055l-0.069,0.016l-0.053-0.02l-0.055,0.004l-0.074,0.076l-0.039,0.008l-0.054-0.033
	l-0.089-0.077l-0.019,0.013l-0.074,0.071l-0.032,0.02l-0.046,0.002l-0.035-0.019l-0.034-0.025l-0.04-0.022l-0.091-0.017
	l-0.069,0.014l-0.144,0.062v0.044l0.012,0.039l0.021,0.035l0.03,0.032l-0.068,0.023l-0.097,0.022l-0.099,0.007l-0.076-0.018
	l-0.071-0.002l-0.037,0.079l-0.035,0.159l-0.071,0.026l-0.034,0.003l-0.068,0.004l-0.096-0.008l-0.088-0.02l-0.028,0.02
	l-0.008,0.032l0.058,0.078l-0.023,0.041l-0.048,0.03l-0.04,0.016l-0.182,0.02l-0.064,0.039l0.124,0.147l-0.033,0.049l-0.084,0.031
	l-0.582,0.039l-0.155-0.01l-0.271-0.062l-0.058,0.013l-0.116,0.104l-0.082,0.057l-0.056,0.021l0.005-0.033l-0.004-0.034
	l-0.015-0.033l-0.026-0.034l-0.037,0.072l0.015,0.063l0.035,0.062l0.024,0.066l-0.031,0.052l-0.088,0.007l-0.097-0.017l-0.061-0.022
	l-0.045,0.008l-0.04,0.061l-0.064,0.129l-0.049,0.055l-0.052,0.042l-0.245,0.126l-0.063,0.043l-0.021,0.055l0.03,0.129l-0.037,0.031
	l-0.069,0.006l-0.03,0.021l-0.054,0.059l-0.057,0.047l-0.048,0.049l-0.029,0.071l0.003,0.034l0.039,0.104l0.002,0.04l-0.006,0.071
	l0.004,0.032l-0.037,0.01l-0.084,0.005l-0.021,0.004l-0.029,0.044l-0.006,0.043v0.042l-0.015,0.039l-0.032,0.012l-0.041-0.022
	l-0.09-0.089l-0.009-0.023l-0.013-0.001l-0.045,0.03l-0.063,0.061l-0.203,0.283l-0.025,0.01l-0.028-0.012l-0.04-0.028l-0.065-0.02
	l-0.021,0.042l-0.002,0.06l-0.008,0.037l-0.078,0.02l-0.05-0.046l-0.046-0.058l-0.067-0.018l-0.095,0.055l0.005,0.078l0.03,0.084
	l-0.021,0.078l-0.068,0.007l-0.161-0.084l-0.057,0.013l-0.062,0.027l-0.091-0.018l-0.173-0.056l-0.076,0.003l-0.059,0.029
	l-0.025,0.053l0.019,0.077l-0.061,0.035l-0.108,0.035l-0.063,0.032l-0.032,0.021l-0.022,0.021l-0.044,0.06l-0.026,0.01l-0.022-0.022
	l-0.001-0.002l-0.012-0.03l0.003-0.012l0.009-0.015l0.009-0.031l-0.007-0.028h-0.001l-0.042-0.003l-0.038,0.013l-0.034,0.019
	l-0.029,0.021l-0.03,0.027l-0.046,0.066l-0.032,0.06l-0.042,0.029l-0.188-0.079l-0.104-0.005l-0.098,0.045l-0.088,0.096l-0.012,0.06
	l0.016,0.075l0.041,0.114l-0.005,0.097l-0.045,0.078l-0.136,0.174l-0.002,0.005l0.021-0.005l0.38,0.063l0.95,0.506l0.329,0.281
	l0.051,0.029l0.223,0.094l0.102,0.071l0,0l0.051,0.052l0.167,0.168l0.001,0.002l0.071,0.109l0.039,0.04l0.125,0.128h0.001
	l0.108,0.142l0.001,0.001l0.288,0.29l0.028,0.039h0.001l0.347,0.622l0.04,0.054l0.016,0.021l0.079,0.064l0.364,0.171l0.086,0.058
	l0.01,0.013l0.057,0.065l0.015,0.038l0.018,0.088l0.007,0.04l0.022,0.04l0.025,0.029l0.121,0.141l0.001,0.001l0.022,0.038
	l0.037,0.133l0.017,0.039l0.028,0.035h0.001l0.075,0.054l0.025,0.022l0.124,0.091l0.125,0.048l0.447,0.037l0.152,0.031l0.128,0.068
	l0,0l0.083,0.123l0.062,0.338l0.068,0.151v0.001l0.136,0.06l0.259-0.019l0.178,0.055l0.099,0.03l0.194,0.179l0.001,0.001
	l0.018,0.254l-0.008,0.14l0.017,0.154l0.044,0.146l0.072,0.109l0.002,0.001l0.121,0.05l0.121-0.051l0.123-0.081l0.129-0.049
	l0.114-0.028l0.089-0.046l0.07-0.074l0.057-0.108l0.074-0.067l0.105,0.01l0.112,0.038l0.097,0.017l0.216-0.055l0.095-0.005
	l0.116,0.008l0.081,0.063l0.07,0.069l0.001,0.003l0.16,0.232l0,0l0.062,0.064l0.063,0.04l0.018,0.011l0.088,0.043l0.077,0.051
	l0.048,0.068l0.001,0.103l-0.047,0.171l0.002,0.056l0.023,0.05l0.07,0.084l0.122,0.242l0.19-0.012l0.214-0.059l0.142-0.007
	l0.092,0.042l0.098,0.007l0.098-0.026l0.09-0.062l0.039-0.048l0.013-0.035l0.015-0.026l0.097-0.045l0.034-0.033l0.022-0.042
	l0.016-0.054l0.027-0.203l0.041-0.053l0.103,0.037l0.074,0.009l0.066-0.052l0.066-0.066l0.079-0.032l0.07,0.038l0.084,0.071
	l0.086,0.047l0.075-0.034l0.128-0.162l0.073-0.061l0.089-0.043l0.099-0.022l0.085,0.001l0.08,0.025l0.167,0.087l0.224,0.021
	l0.079,0.057l0.05,0.075l0.037,0.074l0.041,0.051l0.125,0.097l0.086,0.039l0.084-0.007l0.068-0.071l0.059-0.176l0.067-0.046
	l0.367-0.065l0.084,0.022l0.17,0.097l0.072,0.011l0.088-0.022l0.071-0.032l0.07-0.048l0.165-0.137l0.088-0.048l0.091-0.014
	l0.094,0.035l0.147,0.099l0.016,0.032l0.001,0.028l0.011,0.021l0.046,0.008l0.088-0.026l0.086-0.063l0.076-0.081l0.063-0.081
	l0.039-0.075l0.02-0.063l0.033-0.055l0.08-0.043l0.093-0.025l0.148-0.013l0.185-0.044l0.064-0.029l0.059-0.049l0.193-0.2
	l0.024-0.014l0.019-0.016l0.135-0.08l0.119-0.164l0.044-0.077l0.017-0.015l0.009-0.009l0.062-0.029l0.077-0.028l0.051-0.025
	l0.022-0.056l-0.008-0.112l0.028-0.065l0.237-0.185l0.062-0.082l0.049-0.142l0.064-0.121l0.017-0.047l0.024-0.037l0.049-0.025
	l0.036,0.006l0.084,0.052l0.036,0.008l0.069-0.033l0.047-0.07l0.093-0.184l0.061-0.048l0.078-0.032l0.08-0.042l0.064-0.076
	l0.01-0.061l-0.008-0.145l0.02-0.061l0.043-0.079l0.078-0.232l0.071-0.097l0.056-0.013l0.113,0.087l0.075,0.002l0.043-0.081
	l0.033-0.153l0.053-0.06l0.147,0.074l0.036,0.051l-0.013,0.056l-0.034,0.057l-0.004,0.05l0.082,0.031l0.047,0.075l0.029,0.086
	l-0.002,0.087l-0.044,0.085l-0.023,0.037l-0.019,0.044l0.005,0.037l0.044,0.008l0.037-0.021l0.041-0.089l0.029-0.036l0.042-0.016
	l0.087,0.008l0.045-0.01l0.033-0.03l0.025-0.039l0.029-0.033l0.049-0.017l0.042,0.007l0.027,0.021l0.041,0.066l0.041,0.015
	l0.11-0.034h0.057l0.081,0.043l0.039,0.051l0.004,0.068l-0.023,0.101l0.002,0.051l0.035-0.007l0.062-0.044l0.032,0.017l0.02,0.016
	l0.049,0.063l0.07,0.04l0.032-0.074l0.018-0.162l0.035,0.004l0.03,0.031l0.047,0.065l0.047,0.025l0.052,0.001l0.161-0.039
	l0.033-0.002l0.022,0.008l0.014,0.016l0.002,0.026l-0.067,0.059l-0.071,0.04l-0.063,0.047l-0.043,0.079l-0.005,0.044l0.003,0.057
	l0.015,0.048l0.031,0.022l0.031-0.016l0.027-0.041l0.023-0.048l0.024-0.036l0.045-0.017l0.021,0.043l0.015,0.097l0.048,0.02h0.031
	l0.028,0.008l0.038,0.042l0.038,0.081l0.002,0.081l-0.024,0.08l-0.048,0.08l-0.04,0.111l0.072,0.037l0.186,0.011l0.012,0.066
	l-0.023,0.104l-0.062,0.158l-0.028,0.026l-0.034,0.017l-0.035,0.026l-0.028,0.052l-0.007,0.054l0.019,0.107l0.002,0.055l-0.02,0.089
	l-0.038,0.071l-0.172,0.203l-0.104,0.223l-0.031,0.035l-0.035,0.025l-0.032,0.027l-0.025,0.052l-0.004,0.055l0.036,0.178v0.002l0,0
	l0.019,0.165l-0.044,0.138l-0.067,0.136l-0.049,0.157l-0.004,0.334l-0.024,0.157l-0.092,0.159l-0.127,0.092l-0.287,0.098
	l-0.107,0.087l-0.213,0.365l-0.083,0.111l0,0l-0.078,0.007l-0.042,0.008l-0.027,0.019l-0.021,0.039l-0.016,0.048l-0.005,0.031
	l0.013-0.009l-0.056,0.056l-0.134,0.096l-0.053,0.067l-0.085,0.148l-0.054,0.063l-0.071,0.052l-0.04,0.002l-0.036-0.017l-0.035-0.01
	l-0.037,0.033l-0.018,0.055l0.011,0.042l0.021,0.032l0.007,0.022l-0.025,0.036l-0.059,0.037l-0.024,0.039l0.006,0.013l0.038,0.03
	l0.007,0.016l-0.062,0.159l-0.12,0.243l-0.088,0.106l-0.136,0.102l-0.368,0.2l-0.032,0.013l-0.033-0.004l-0.056-0.028l-0.026-0.001
	l-0.048,0.038l-0.07,0.107l-0.043,0.046l-0.033,0.012l-0.069-0.003l-0.029,0.009l-0.018,0.027l0.005,0.057l-0.024,0.029
	l-0.081,0.036l-0.058-0.003l-0.006-0.037l0.015-0.08l0.005-0.081l-0.028-0.052l-0.048,0.005l-0.111,0.094L651,874.379l-0.047-0.045
	l-0.014-0.068l-0.021-0.055l-0.06-0.008l-0.042,0.043l-0.02,0.061l-0.03,0.036l-0.076-0.031l-0.018-0.022l-0.004-0.021l-0.008-0.021
	l-0.028-0.016l-0.034,0.009l-0.073,0.049l-0.435,0.096l-0.128-0.07l-0.073-0.103l0.064-0.074l-0.01-0.046l-0.021-0.055l-0.088,0.035
	l-0.275,0.182l-0.034,0.017l-0.034,0.01l-0.035,0.022l-0.047,0.079l-0.03,0.027l-0.033-0.005l-0.041-0.022l-0.044-0.012
	l-0.039,0.022l-0.032,0.025l-0.046,0.021l-0.044,0.013l-0.028,0.005l-0.066-0.044l-0.024-0.068l-0.005-0.077l-0.014-0.074
	l-0.08,0.12l-0.03,0.031l-0.049,0.022l-0.048,0.006l-0.029-0.016l0.011-0.039l0.049-0.092l-0.003-0.065l-0.04-0.049l-0.136-0.086
	l-0.063-0.023l-0.041,0.031l-0.003,0.118l-0.037,0.047l-0.097-0.006l-0.257-0.085l-0.031-0.022l-0.024-0.04l0.001-0.026l0.017-0.09
	v-0.021l-0.022-0.024l-0.012-0.02l-0.02-0.01l-0.047,0.002l-0.045,0.018l-0.042,0.028l-0.066,0.054l-0.083,0.043l-0.075,0.01
	l-0.036-0.029l0.033-0.078l0.001-0.024l-0.025-0.013l-0.038,0.006l-0.039,0.032l-0.035,0.051l-0.022,0.025l-0.025,0.008
	l-0.043-0.004l-0.035-0.014l-0.067-0.06l-0.034-0.021l-0.169-0.051l-0.017-0.021l0.001-0.01l-0.002-0.041l-0.002-0.01l-0.006-0.016
	l0.018-0.014l0.027-0.014l0.019-0.011l0.01-0.053l-0.05-0.019l-0.071,0.005l-0.051,0.014l-0.073,0.059l-0.077,0.084l-0.082,0.06
	l-0.09-0.015l-0.079-0.056l-0.036-0.007l-0.092,0.139l-0.131,0.146l-0.076,0.07l-0.046,0.021l-0.082-0.02l-0.279,0.033l-0.085-0.043
	l-0.046-0.061l-0.035-0.067l-0.054-0.06l-0.074-0.012l-0.009,0.081l0.035,0.16l-0.007,0.107l-0.04,0.029l-0.052-0.034l-0.042-0.092
	l-0.044-0.008l-0.072-0.048l-0.037-0.01l-0.025,0.017l-0.097,0.083l-0.056-0.061l-0.023-0.114l-0.04-0.054l-0.084-0.02l-0.09,0.026
	l-0.081,0.034l-0.184,0.011l-0.041-0.01l-0.03-0.03l-0.05-0.072l-0.043-0.023l-0.085,0.013l-0.059,0.061l-0.059,0.049l-0.086-0.021
	l-0.034-0.021l-0.03-0.007l-0.028,0.007l-0.028,0.03l-0.052,0.079l-0.021,0.015l-0.047,0.022l-0.267,0.067l-0.039,0.019
	l-0.095-0.032l-0.037-0.019l-0.014-0.026l0.002-0.031l-0.013-0.027l-0.054-0.01l-0.027,0.01l-0.092,0.059l-0.025,0.004l-0.064,0.003
	l-0.031,0.004l-0.036,0.02l-0.025,0.024l-0.027,0.013l-0.042-0.017l-0.031-0.041l0.014-0.033l0.026-0.031l0.006-0.031l-0.064-0.065
	l-0.072,0.02l-0.058,0.039l-0.007,0.006l-0.051,0.012h-0.045l-0.229,0.036l-0.257-0.07l-0.121,0.004l-0.047,0.105l0.018,0.056
	l0.087,0.147l0.035,0.04l0.033,0.051l0.002,0.066l-0.021,0.119l-0.166,0.14l-0.059,0.038l-0.063,0.02l-0.057,0.003l-0.021-0.032
	l0.039-0.082l-0.003-0.102l-0.097-0.111l-0.122-0.107l-0.079-0.091l-0.189-0.038l-0.097,0.014l-0.035,0.086l-0.009,0.039
	l-0.122,0.168l-0.021,0.023l-0.024,0.008h-0.042l-0.035-0.009l-0.113-0.059l-0.121-0.016l-0.124-0.045l-0.066,0.029l-0.051,0.062
	l-0.038,0.07l-0.105,0.141l-0.12,0.042l-0.3,0.005l-0.509,0.17l-0.159-0.002l-0.171-0.074l-0.087-0.015l-0.068,0.037l-0.237,0.297
	l-0.16,0.08l-0.311-0.021l-0.161,0.1l-0.106,0.146l-0.062,0.062l-0.086,0.04l-0.073-0.005l-0.261-0.094l-0.153-0.018l-0.171,0.003
	l-0.179,0.034l-0.173,0.069l-0.056,0.031l-0.054,0.04l-0.039,0.051l-0.012,0.063l-0.083,0.049l-0.159,0.119l-0.078,0.033
	l-0.09,0.016h-0.059l-0.154-0.019h-0.043l-0.039,0.008l-0.037,0.014l-0.04,0.021l-0.031,0.034l-0.025,0.042l-0.028,0.029
	l-0.073-0.006l-0.052,0.022l-0.048,0.034l-0.031,0.032l-0.033,0.02l-0.402,0.052l-0.058,0.035l-0.048,0.015l-0.194,0.018
	l-0.082,0.021l-0.129,0.096l-0.163,0.036l-0.042,0.029l-0.049,0.021l-0.404,0.092l-0.096,0.012l-0.08-0.022l-0.142-0.091
	l-0.148-0.07l-0.172-0.041l-0.147,0.02l-0.138,0.086l-0.324,0.403l-0.059,0.043l-0.419,0.028l-0.561,0.181l-0.198,0.003l-0.08-0.019
	l-0.152-0.068l-0.072-0.043l-0.051,0.017l-0.04,0.09l-0.061,0.185l-0.121,0.127l-0.148,0.07l-1.008,0.153l-0.16,0.05l-0.128,0.104
	l-0.083,0.15l-0.025,0.188l-0.001,0.102l-0.033,0.198l-0.029,0.099l-0.058,0.146l-0.043,0.109l-0.037,0.071l-0.05,0.097l-0.1,0.154
	l-0.029,0.035l-0.078,0.075l-0.053,0.044l-0.049-0.012l-0.067-0.057l-0.156-0.054h-0.085l-0.068,0.048l-0.009,0.055l0,0.283
	l-0.089,0.186l-0.142,0.086l-0.161,0.067l-0.148,0.134l-0.088,0.176l-0.064,0.094l-0.059,0.022l-0.158,0.092l-0.039,0.009
	l-0.078,0.007l-0.038,0.01l-0.079,0.057l-0.127,0.153l-0.076,0.048l-0.077,0.01l-0.166-0.007l-0.094,0.01l-0.115,0.087l0.013,0.143
	l0.019,0.054l0.038,0.114l0.012,0.158l-0.087,0.177l-0.136,0.142l-0.566,0.436l-0.066,0.031l-0.096-0.02l-0.166-0.07l-0.089-0.016
	l-0.074,0.004l-0.149,0.04l-0.071,0.062l-0.011,0.098l0.024,0.177l-0.047,0.133l-0.093,0.162l-0.119,0.157l-0.126,0.119
	l-0.144,0.065l-0.068,0.063l-0.016,0.1l0.021,0.423l-0.039,0.127l-0.091,0.1l-0.386,0.153l-0.186,0.11l-0.057,0.02l-0.007,0.007
	l0.006-0.01l-0.17,0.122l-0.117,0.157l-0.266,0.469l-0.11,0.287l-0.209,0.398l-0.019,0.094l-0.008,0.186l-0.021,0.066l-0.057,0.062
	l-0.14,0.109l-0.063,0.072l-0.078,0.186l-0.055,0.095l-0.054,0.022l-0.18,0.022l-0.043-0.01l-0.082-0.038l-0.039-0.026l-0.385-0.36
	l-0.141-0.024l-0.027,0.01l-0.042,0.018l-0.028,0.03l0.041,0.064l-0.018,0.029l-0.037,0.027l-0.032,0.032l-0.061,0.073l-0.14,0.142
	l-0.05,0.067l-0.056,0.188l-0.041,0.093l-0.055,0.016l-0.073-0.008l-0.106,0.027l-0.169,0.07l-0.145,0.094l-0.151,0.126
	l-0.139,0.143l-0.109,0.138l-0.088,0.176l-0.031,0.032l-0.078,0.054l-0.206,0.25l-0.053,0.082l-0.07,0.162l-0.03,0.15l0.01,0.346
	l-0.017,0.077l-0.031,0.082l-0.1,0.173l-0.095,0.224l-0.032,0.034l-0.042,0.03l-0.015,0.02l-0.009,0.013l0.024,0.035l0.022,0.026
	l0.05,0.084l0.009,0.034l-0.014,0.07l-0.038,0.079l-0.109,0.155l-0.096,0.104l-0.032,0.042l-0.007,0.023l-0.014,0.083l-0.02,0.045
	l-0.175,0.042l-0.031,0.02l-0.049,0.039l-0.029,0.016l-0.082,0.022l-0.086,0.004l-0.071-0.024l-0.039-0.062l-0.02-0.022
	l-0.107-0.076l-0.031,0.005l-0.028,0.017l-0.031,0.012l-0.043-0.016l0.109,0.218l0.022,0.081l0.037,0.127l-0.008,0.09l-0.133,0.078
	l-0.059,0.009l-0.06,0.017l-0.088,0.035l-0.029,0.051l-0.012,0.064l0.029,0.124l-0.01,0.04l-0.053,0.069l-0.021,0.036l0.038,0.09
	l0.035,0.066l0.03,0.09l0.06,0.13l0.013,0.08l0.002,0.114l-0.019,0.115l-0.011,0.125l0.129,0.314l0.055,0.218l0.068,0.124
	l0.102,0.086l0.063,0.064l0.053,0.116l0.083,0.088l0.071,0.091l0.013,0.205l0.058,0.087l0.18,0.095l0.03,0.027l0.014,0.104
	l0.075,0.178l0.05,0.231l0.155,0.232l0.115,0.363l0.18,0.256l0.025,0.182l0.057,0.179l0.092,0.481l0.008,0.213l0.029,0.234
	l0.017,0.113l-0.012,0.314l-0.036,0.302l-0.026,0.222l-0.046,0.099l-0.155,0.121l-0.199,0.063l-0.244,0.083l-0.607,0.255
	l-0.163,0.053l-0.127,0.105l-0.082,0.083L618.099,898l-0.113,0.089l-0.061,0.151l-0.07,0.164l-0.068,0.105l-0.016,0.035
	l-0.015,0.047l0.022,0.084l-0.012,0.047l-0.002,0.013l-0.061,0.253l-0.043,0.083l-0.011,0.04l0.034,0.063l0.016,0.098l0.001,0.022
	l-0.038,0.093l-0.008,0.101l0.13,0.684l0.172,0.392l0.112,0.118l0.042,0.08l-0.006,0.065l-0.085,0.016l0.002,0.038l0.09-0.016
	l0.087,0.001l0.165,0.034l0.074,0.035l0.185,0.146l0.024-0.104l0.045-0.048l0.047,0.017l0.03,0.091l-0.014,0.057l-0.064,0.171
	l-0.004,0.042l0.009,0.104l-0.319,0.444l-0.068,0.245l-0.05,0.094l-0.327,0.496l-0.277,0.419l-0.119,0.146l-0.134,0.084
	l-0.576,0.188l-0.591,0.246l-0.837,0.404l-0.266,0.163l-0.619,0.223l-0.179,0.045l-0.504,0.065l-0.244,0.113l-0.057,0.01
	l-0.063-0.007l-0.43,0.131l-0.176,0.075l-0.169,0.097l-0.151,0.115l-0.128,0.132l-0.118,0.15l-0.01,0.027l-0.004,0.057l-0.009,0.031
	l-0.016,0.02l-0.038,0.025l-0.013,0.013l-0.064,0.11l-0.037,0.038l-0.155,0.087l-0.179,0.046l-0.392,0.006l-0.411-0.031
	l-0.307,0.012l-0.626-0.036l-0.108-0.05l-0.051-0.005l-0.234,0.024l-0.148-0.011l-0.434-0.093l-0.149-0.005l-0.067-0.013
	l-0.28-0.129l-0.259-0.07l-0.292-0.016l-0.533-0.201l-0.739-0.193l-0.234,0.001l-0.102-0.038l-0.129-0.022l-0.916-0.373
	l-0.917-0.372l-0.598-0.106l-0.069-0.033l-0.194-0.139l-1.459-0.596l-0.502-0.215l-0.479-0.229l-0.667-0.26l-0.319-0.208
	l-0.059-0.066l-0.036-0.028l-0.039-0.015h-0.034l-0.059,0.007l-0.308-0.101l-0.51-0.425l-0.261-0.16l-0.226-0.056l-0.044,0.007
	l-0.056-0.007l-0.409-0.348l-0.018-0.059l-0.042-0.048l-0.007-0.053l-0.011-0.021l-0.023-0.014l-0.026-0.004h-0.024l-0.02-0.003
	l-0.134-0.048l-0.135-0.093l-0.439-0.497l-0.074-0.122l-0.036-0.128l0.009-0.146l0.034-0.162l0.005-0.093l-0.024-0.053l-0.443-0.325
	l-0.032-0.056l-0.052-0.064l-0.087,0.004l-0.067,0.042l0.007,0.052l-0.066,0.068l-0.033,0.171l-0.056,0.054l0.062-0.012l0.041,0.022
	l0.014,0.047l-0.018,0.055l-0.092,0.134l-0.009,0.032l0.018,0.042l0.042,0.024l0.107,0.036l-0.014,0.019l-0.047,0.035l-0.053,0.049
	l-0.024,0.057l-0.095-0.005l-0.05,0.018l-0.119,0.108l-0.078,0.059l-0.04,0.022l-0.039,0.016l-0.021,0.023l-0.001,0.038l0.005,0.043
	l-0.006,0.041l-0.044,0.065l-0.05,0.05l-0.041,0.055l-0.02,0.082l0.014,0.091l0.066,0.181l0.015,0.102l-0.043-0.028l-0.029-0.032
	l-0.051-0.087l-0.07,0.022l0.002,0.056l0.046,0.067l0.06,0.058l0.219,0.146l0.06,0.061l0.155,0.255l0.064,0.167l0.005,0.137
	l-0.026,0.047l-0.039,0.037l-0.045,0.025l-0.045,0.01l-0.046-0.004l-0.018-0.022l-0.006-0.029l-0.011-0.029l-0.039-0.066
	l-0.073-0.249l-0.006-0.11l0.002-0.027l0.009-0.05l-0.003-0.024l-0.015-0.026l-0.015-0.004l-0.015,0.001l-0.014-0.007l-0.047-0.048
	l-0.168-0.085l-0.014,0.037l-0.013,0.044l-0.004,0.042l0.008,0.041l0.029,0.023l0.042,0.019l0.031,0.024l-0.007,0.044l-0.023,0.091
	l0.007,0.112l0.048,0.187l0.034,0.063l0.117,0.125l0.068,0.051l0.005,0.026l-0.013,0.042l-0.024,0.052l-0.038,0.032l-0.054,0.013
	l-0.035,0.022l-0.17,0.256l-0.045,0.029l-0.039,0.034l-0.384,0.462l-0.211,0.326l-0.054,0.054l-0.015-0.013h-0.138l-0.02,0.011
	l-0.192-0.171l-0.04-0.075l-0.061-0.18l-0.035,0.032l-0.012,0.047l0.012,0.111l-0.091-0.01l-0.035,0.02l-0.022,0.053l-0.055,0.095
	l-0.051,0.056l-0.12,0.109l-0.098,0.115l-0.15,0.12l-0.042,0.019l-0.031,0.03l-0.058,0.267l-0.051,0.075l-0.139,0.128l-0.048,0.055
	l-0.07,0.058l-0.085,0.001l-0.085-0.018l-0.074-0.006l-0.078,0.02l-0.091,0.035l-0.088,0.05l-0.063,0.066l-0.02,0.062l-0.017,0.214
	l-0.091,0.247l0.004,0.05l-0.01,0.018l-0.007,0.116l0.014,0.039l0.07,0.084l0.055,0.125l0.026,0.03l-0.002,0.026l-0.057,0.086
	l-0.001,0.026l0.02,0.056l-0.005,0.08l0.016,0.058l0.085-0.014l-0.065,0.191l-0.059,0.096l-0.072,0.013l-0.119-0.108l-0.005-0.023
	l-0.002-0.094l-0.018-0.04l-0.023,0.034l-0.014,0.032l-0.005,0.032l0.002,0.036l-0.005,0.049l-0.023,0.028l-0.025,0.009
	l-0.011-0.005l-0.008,0.073l0.012,0.028l0.301,0.003l0.108,0.02l0.093,0.05l-0.059,0.021l-0.149,0.016l-0.05,0.033l-0.04,0.054
	l-0.094,0.096l-0.044,0.06l-0.043,0.04l-0.187,0.118l-0.201,0.154l-0.136,0.054l-0.555-0.033l-0.468,0.007l-0.238-0.039l-0.07,0.007
	l-0.082,0.019l-0.071-0.006l-0.068-0.026l-0.075-0.042l-0.061-0.055l-0.032-0.006l-0.058,0.02l-0.112,0.02l-0.071,0.024
	l-0.234-0.068l-0.44-0.024l-0.146-0.049l-0.596-0.396l-0.145-0.035l-0.073-0.029l-0.253-0.187l-0.416-0.217l-0.44-0.273
	l-0.107-0.104l-0.083-0.136l-0.118-0.446l-0.093-0.131l-0.119-0.066l-0.018-0.033l0.015-0.042l0.034-0.032l0.058-0.038l-0.011-0.045
	l-0.076-0.021l-0.097-0.015l-0.07-0.02l-0.096-0.098l-0.472-0.776l-0.322-0.33l-0.183-0.292l-0.222-0.21l-0.132-0.091l-0.21-0.096
	l-0.089-0.06l-0.058-0.07l0.031-0.059l0.075-0.009l0.087,0.02l0.045,0.041l-0.05,0.058l0.021,0.01l0.027,0.004l0.021-0.001
	l0.005-0.005l0.17,0.103l0.055,0.022l0.044-0.009l0.022-0.094l-0.066-0.081l-0.029-0.063l0.131-0.036l-0.041-0.091l-0.231-0.222
	l-0.171-0.072l-0.128-0.013l-0.041,0.008l0.047,0.037l0.108,0.029l0.042,0.047l-0.073,0.034l-0.008,0.041l0.021,0.046l0.01,0.056
	l-0.285-0.181l-0.065-0.004l-0.063,0.02l-0.335,0.055l-0.047,0.017l-0.03,0.028l-0.046,0.085l-0.031,0.031l-0.081,0.046
	l-0.079,0.063l-0.072,0.072l-0.063,0.083l-0.088,0.157l-0.291,0.693l-0.145,0.514l-0.063,0.122l-0.052,0.256l-0.05,0.129
	l-0.033,0.138l0.056,0.259l-0.024,0.143l-0.069,0.105l-0.098,0.115l-0.104,0.095l-0.084,0.054l-0.084,0.092l-0.05,0.153
	l-0.043,0.262l-0.084,0.135l-0.144,0.134l-0.276,0.206l-0.136,0.138l-0.062,0.142l-0.014,0.119l-0.042,0.395l0.018,0.181
	l0.044,0.164l0.132,0.277l0.033,0.029l0.063,0.031l0.03,0.021l0.014,0.028l0.023,0.065l0.045,0.077l0.056,0.068l0.049,0.045
	l0.14,0.084l0.053,0.054l0.027,0.081l0.036,0.075l0.071,0.03l0.083,0.011l0.076,0.022l0.074,0.051l0.031,0.032l0.013,0.039
	l0.009,0.077l-0.008,0.029l-0.095-0.012l-0.088,0.024l-0.396,0.188l-0.042,0.028l-0.09,0.104v0.044l0.07,0.066l0.234,0.114
	l0.079,0.124l0.097,0.055l0.107,0.039l0.074,0.015l0.083,0.004l0.054,0.01l0.5,0.346l0.077,0.021l0.065-0.044l0.02-0.001
	l0.126-0.034l0.039-0.025l0.02-0.021l0.038-0.07l0.01-0.022l-0.003-0.028l0.011-0.027l0.013-0.007h0.019l0.021-0.003l0.019-0.02
	l0.021-0.05l0.016-0.089l0.016-0.041l0.002-0.061l-0.041-0.06l-0.116-0.091l-0.312-0.164l-0.139-0.106l-0.076-0.147l0.123,0.004
	l0.435,0.183l0.459,0.007l0.325-0.033l0.309,0.03l0.201,0.051l0.098,0.097l0.04,0.165l-0.003,0.147l-0.049,0.278l-0.031,0.077
	l-0.017,0.07l0.014,0.076l0.04,0.137l-0.02,0.174l-0.072,0.169l-0.246,0.368l-0.292,0.603l-0.126,0.132l-0.163,0.116l-0.135,0.123
	l-0.047,0.161l-0.256,0.108l-0.23-0.021l-0.645-0.204l-0.173-0.105l-0.063-0.022l-0.158-0.011l-0.116-0.042l-0.047-0.114
	l-0.021-0.116l-0.005-0.2l-0.016-0.091l-0.04-0.059l-0.025-0.067l0.053-0.087l0.074-0.075l0.043-0.038l0.187-0.2l0.049-0.01
	l0.041,0.004l0.001-0.046l-0.028-0.09l-0.008-0.017l-0.03-0.045l-0.006-0.022l0.002-0.032l-0.005-0.017l-0.069-0.116l-0.01-0.063
	l0.027-0.08l0.001-0.067l-0.039-0.081l-0.087-0.12l-0.115-0.121l-0.289-0.173l-0.222-0.084l-0.083-0.016l-0.084-0.005l-0.107,0.022
	l-0.11-0.034h-0.043l-0.033,0.008l-0.222,0.101l-0.079,0.022l-0.066-0.01l-0.147-0.065l-0.161-0.039l-0.093,0.011l-0.068,0.037
	l-0.064,0.052l-0.08,0.053l-0.144,0.048l-0.051,0.046l-0.034,0.105l0.01,0.075l0.096,0.094l0.048,0.125l0.144,0.16l0.242,0.368
	l0.054,0.12l0.048,0.164l0.032,0.071l0.076,0.074l0.043,0.073l0.025,0.026l0.042,0.023l0.084,0.021l0.073,0.038l0.025,0.02
	l0.017,0.024l0.013,0.075l0.032,0.059l0.01,0.036l0.034,0.067l0.071,0.039l0.274,0.038l0.037,0.016l-0.007,0.017l-0.023,0.12
	l-0.041,0.042l-0.096,0.026l-0.461,0.031l-0.404-0.056l-0.647-0.157l-0.697,0.067l-0.154,0.064l-0.084,0.022l-0.08,0.008
	l-0.059-0.007l-0.079,0.067l-0.036,0.071l-0.021,0.076l-0.037,0.086l-0.058,0.058l-0.069,0.018l-0.072,0.004l-0.362,0.112
	l-0.217,0.137l-0.083,0.036l-0.227,0.052l-0.045,0.003l-0.217,0.135l-0.032,0.035l-0.071,0.035l-0.029,0.03l-0.124,0.226
	l-0.021,0.069l-0.013,0.159l-0.046,0.041l-0.061,0.071l-0.045,0.072l0.005,0.047l0.02,0.049l-0.016,0.078l-0.025,0.084l-0.012,0.066
	l-0.02,0.06l-0.097,0.142l-0.019,0.055l0.03,0.035l0.061,0.014l0.002,0.063l-0.091,0.013l-0.025,0.103l-0.034,0.064l0.032,0.066
	l0.101,0.051l-0.101,0.02l-0.094,0.032l-0.053,0.057l-0.028,0.059l-0.025,0.06l0.022,0.041l-0.024,0.081l-0.056-0.003l-0.096-0.032
	l-0.071-0.005l-0.07,0.021l-0.102,0.113l-0.049,0.1l-0.029,0.062l0.004,0.077l0.003,0.039l0.014,0.027l0.008,0.039l-0.034,0.032
	l-0.011,0.037l-0.014,0.047l0.023,0.042l-0.027,0.022l-0.024,0.03l0.007,0.063l0.048,0.023l0.012,0.029l-0.038,0.067l-0.012,0.048
	l-0.041-0.003l-0.035,0.023l-0.019,0.028l-0.037-0.016l-0.034-0.015l-0.031,0.015l-0.036,0.034l-0.027-0.009l-0.029,0.012
	l0.008,0.026l-0.01,0.021l-0.029-0.005l-0.011,0.005l0.013,0.024l-0.017,0.007l-0.028-0.022l-0.008-0.032h-0.02l-0.016,0.02
	l0.002,0.031l-0.021,0.014l-0.022-0.001l-0.024,0.01l-0.026-0.005l-0.023,0.022l0.006,0.021l0.026,0.023l-0.002,0.026l-0.019,0.016
	l-0.026,0.017l-0.021,0.019l0.01,0.035l0.02,0.004l0.02,0.007l0.018-0.002l0.031,0.034l-0.013,0.021l-0.025,0.011l-0.01,0.022
	l0.014,0.022l-0.009,0.021l-0.033-0.008l-0.03-0.031l-0.024,0.003l-0.02,0.013l-0.021,0.023h-0.02l0.003-0.03l0.031-0.035
	l0.005-0.039l-0.03-0.022l-0.034-0.009l-0.024,0.016l-0.017-0.009l-0.013-0.018h-0.029l-0.014,0.017l-0.005,0.041l0.012,0.027
	l-0.013,0.027l-0.031-0.002l-0.025-0.026l-0.03,0.004l-0.028,0.019l-0.012,0.039l0.014,0.041l0.022,0.014l0.004,0.03l0.022,0.019
	l-0.02,0.021l-0.04,0.007l-0.014-0.012l0.017-0.037l-0.021-0.012l-0.023,0.007l-0.023,0.02l-0.024,0.022l-0.005-0.026l-0.013-0.025
	l0.014-0.04l-0.01-0.021l-0.016,0.002l-0.005-0.012l-0.005-0.023h-0.032l-0.038-0.007l-0.034-0.018l-0.022,0.019l-0.021,0.032
	l-0.008,0.046l-0.038-0.026l-0.022,0.014l-0.054-0.034l-0.149-0.008l-0.16,0.055l-0.044-0.052l-0.177,0.029l-0.081,0.031
	l-0.06,0.039l-0.04,0.019l-0.033,0.018l-0.077,0.072l-0.055,0.11l-0.039,0.058l-0.044,0.049l-0.032,0.026l-0.042-0.009l-0.038,0.006
	l-0.044,0.081l0.01,0.034l-0.023,0.003l-0.03,0.027l-0.014,0.106l0.039,0.044l0.034,0.017l0.001,0.022l0.02,0.014l0.001,0.025
	l-0.001,0.034l0.046,0.023l-0.001,0.001l0.05,0.002l0.036,0.04l0.029,0.072l0.076,0.024l0.021,0.09l0.037,0.047l0.002,0.084
	l-0.039-0.012l-0.063,0.022l-0.043,0.002l-0.027,0.017l-0.035,0.005l-0.028-0.034l-0.039,0.018l-0.043,0.01l-0.011,0.055
	l0.012,0.055l-0.02,0.061l-0.039-0.039l-0.018-0.038l-0.046,0.016v0.032l0.007,0.078l-0.153,0.014l-0.048-0.052l-0.06-0.022
	l-0.055,0.062l-0.06-0.173l-0.02-0.071l-0.101-0.04l-0.048-0.024l-0.065,0.027l-0.024-0.042l0.045-0.067l-0.006-0.071l-0.043-0.017
	l-0.04-0.031l-0.058-0.008l-0.042,0.07l-0.021,0.056l-0.056-0.034l-0.096-0.004l-0.062-0.068l-0.014-0.109l-0.042-0.122l-0.08-0.039
	l-0.143-0.159l-0.176-0.058l-0.079-0.062l-0.107,0.057l-0.155,0.032l-0.1,0.038l-0.03-0.067l-0.033-0.033l-0.056-0.035l-0.036-0.021
	l-0.057-0.013l-0.031,0.022l-0.051-0.041l-0.054,0.026l-0.203-0.043l-0.103,0.001l-0.119,0.039l-0.053,0.087l0.111,0.116
	l0.043,0.058l-0.092,0.049l-0.208-0.255l-0.041-0.032l-0.061,0.106l0.106,0.097l0.016,0.105l-0.055,0.088l-0.098-0.06l-0.294-0.164
	l-0.349-0.116l-0.239-0.1l-0.21-0.009l-0.13,0.034l-0.189,0.033l-0.25,0.1l-0.176,0.116l-0.176,0.078l-0.167,0.092l-0.18,0.107
	l-0.118,0.074l-0.195,0.058l-0.127,0.079l-0.063,0.025l-0.091,0.012l-0.077,0.059l-0.086,0.084l-0.067,0.122l-0.029,0.065
	l0.024,0.08l-0.034,0.031l-0.029,0.011l-0.053-0.019l-0.032,0.055l-0.041,0.041l-0.011,0.029l0.005,0.041l-0.032,0.035l-0.051,0.011
	l-0.047-0.042l-0.119,0.022l-0.061,0.017l-0.053,0.01l-0.129,0.121l-0.117,0.018l-0.069,0.059l-0.098,0.045l-0.069,0.052
	l-0.013,0.119l-0.086,0.002l-0.111,0.069l-0.023,0.022l-0.24,0.238l-0.081,0.099l-0.074,0.116l-0.067,0.136l-0.211,0.696
	l-0.08,0.362l-0.018,0.178l-0.024,0.648l0.072,0.238l0.035,0.115l0.108,0.115l0.068,0.074l0.009,0.047l-0.005,0.097l0.06,0.135
	l0.097,0.083l0.04,0.069l-0.025,0.139l0.043,0.131l0.009,0.203l-0.013,0.114l0.024,0.022l0.034,0.021l0.019,0.026l-0.005,0.07
	l0.013,0.023l0.015,0.039l0.083,0.408l0.018,0.333l0.046,0.154l0.163,0.251l0.106,0.047l0.051,0.108l0.131,0.019l0.038,0.059
	l0.058,0.023l0.064,0.012l0.059,0.026l0.033,0.039l0.057,0.101l0.036,0.035l0.153,0.066l0.037,0.039l0.016,0.037l0.128,0.106
	l0.238,0.215l0.317,0.142l0.185,0.022l0.076,0.023l0.057,0.045l0.097,0.199l0.095,0.067l0.022,0.099l-0.03,0.119l0.031,0.089
	l0.014,0.085l0.012,0.038l0.067,0.194l-0.069,0.061l-0.075,0.239l-0.037,0.147l-0.041,0.143l-0.187,0.244l-0.249,0.385l-0.199,0.192
	l-0.22,0.214l-0.389,0.354l-0.068,0.001l-0.079-0.041l-0.062-0.056l-0.12-0.097l-0.151-0.093l-0.119,0.031l-0.153,0.067l-0.096,0.01
	l-0.083-0.01l-0.212-0.003l-0.234,0.03l-0.069-0.015l-0.195-0.124l-0.046-0.012l0.102,0.116l0.109,0.046l0.266-0.007l0.074,0.017
	l0.167,0.041l0.329-0.005l0.116-0.045l0.141,0.045l0.11,0.079l0.066,0.049l0.013,0.08l-0.069,0.229l-0.063,0.196l0.026,0.113
	l0.081,0.078l0.059,0.07l-0.099,0.014l-0.042,0.032l0.035,0.062l0.022,0.038l-0.074-0.017l-0.083-0.012l-0.069-0.025l0.014-0.088
	l-0.109-0.125l-0.092-0.004l-0.097,0.057l-0.056,0.063l0.034,0.074l-0.073,0.088l-0.021,0.016l-0.029,0.012l-0.033,0.045
	l-0.07,0.007l-0.011,0.046l0.036,0.097l0.074,0.077l-0.021,0.07l-0.095,0.049l-0.08-0.023l0.008-0.064l-0.036-0.048l-0.066,0.004
	l-0.063-0.039l-0.128-0.054l-0.088-0.017l-0.064,0.002l-0.089,0.018l-0.074,0.083l-0.066,0.041l-0.041,0.03l-0.139-0.006
	l-0.118-0.014l-0.144,0.097l-0.114-0.016l-0.069,0.026l-0.101,0.061l-0.125,0.113l-0.034,0.145l-0.038-0.003l-0.076-0.068
	l-0.088-0.052l-0.072-0.041l-0.019,0.016l-0.068,0.014l-0.017,0.063l-0.059,0.08l-0.115,0.008l-0.136-0.023l-0.081-0.045
	l-0.209-0.077l-0.164,0.035l-0.191,0.001l-0.103,0.042l-0.134,0.024l-0.135,0.067l-0.07,0.007l-0.055,0.082l-0.061,0.072
	l-0.073-0.009l-0.085-0.003l-0.202-0.071l-0.22,0.051l-0.248,0.021l-0.1,0.045l-0.134,0.188l-0.164,0.063l-0.076,0.085l-0.063,0.083
	l-0.188,0.04l-0.239-0.015l-0.299,0.033l-0.635,0.241l-0.118,0.104l-0.12,0.128l-0.065,0.081l-0.074,0.02l-0.07,0.024l-0.064,0.101
	l0.04,0.049l-0.023,0.077l-0.051,0.007l-0.033,0.013l-0.06-0.003l-0.032,0.025l-0.034,0.033l-0.042,0.03l-0.073,0.091l-0.111,0.039
	l-0.092-0.012l0.003,0.051l0.011,0.055l-0.006,0.051l-0.045,0.037l-0.043-0.01l-0.055,0.02l-0.062,0.006l0.016,0.048l-0.031,0.053
	l-0.114,0.037l-0.158-0.057l-0.017,0.022l0.035,0.048l0.054,0.031l0.177,0.088l0.112-0.039l0.116-0.123l0.053-0.109l0.071-0.035
	l0.08-0.109l0.078-0.036l0.033-0.009l0.031,0.035l0.005,0.078l-0.042,0.077l-0.094,0.153l-0.227,0.16l-0.047,0.066l-0.199,0.246
	l-0.22,0.262l-0.078,0.105l-0.097,0.178l-0.071,0.086l-0.101,0.161l-0.02,0.067l-0.26,0.363l-0.229,0.231l-0.071,0.08l-0.086,0.067
	l-0.046,0.043l-0.022,0.012l-0.187,0.137l-0.251,0.09l-0.325,0.073l-0.338,0.053l-0.298-0.016l-0.249-0.072l-0.169-0.111
	l-0.029-0.029l-0.01-0.042l-0.004-0.144l-0.041-0.063l-0.005-0.129l0.006-0.1l0.034-0.119l0.01-0.124l-0.017-0.119l-0.047-0.122
	l0.001-0.129l0.029-0.101l0.024-0.17l-0.013-0.133l0.01-0.307l0.003-0.086l-0.021-0.072l-0.04-0.073l-0.048-0.059l-0.048-0.032
	l0.102,0.197l0.008,0.065l-0.017,0.07l-0.005,0.181l0.002,0.212l-0.05,0.206L555,932.896l-0.063,0.021l-0.12,0.02l-0.072-0.01
	l-0.085,0.01l-0.074-0.028l-0.094-0.08l-0.165-0.063l-0.173-0.118l-0.138,0.026l-0.105-0.001l-0.077-0.035l-0.134,0.016l-0.016,0.03
	l0.012,0.008l0.028,0.011l0.012,0.009l0.063,0.023l0.147,0.062l0.125-0.032l0.087-0.004l0.04,0.007l0.033,0.02l0.065,0.049
	l0.088,0.032l0.116,0.099l0.109,0.082h0.104l0.123,0.002l0.05,0.014l0.032,0.036l0.009,0.034l-0.024,0.091l0.032,0.062l0.019,0.049
	l-0.021,0.038l-0.029,0.062l-0.03,0.094l0.004,0.104l0.025,0.118l0.034,0.067l0.062,0.045l0.031,0.042l0.004,0.064l0.06,0.059
	l0.002,0.077l-0.076,0.067l-0.105-0.009l-0.087,0.026l-0.071,0.012l-0.563-0.022l-0.399,0.003l-0.073-0.052l-0.095,0.03
	l-0.037,0.054l-0.094-0.015l-0.042-0.013l-0.032-0.034l-0.07,0.007l-0.06,0.087l-0.069,0.014l-0.211,0.113l-0.127,0.064
	l-0.086,0.074l-0.107,0.08l-0.169,0.113l-0.098,0.087l-0.083,0.056l-0.105,0.18l-0.272,0.258l-0.136,0.138l-0.068,0.084l-0.03,0.072
	l-0.018,0.123l-0.122,0.268l-0.07,0.129l-0.077,0.094l-0.083,0.022l-0.163,0.022l-0.222,0.092l-0.319,0.074l-0.172,0.069
	l-0.129,0.122l0.118-0.042l0.217-0.062l0.125-0.025l0.205-0.021l0.105-0.01l0.078,0.027l-0.017,0.087l-0.039,0.083l-0.06,0.188
	l-0.113,0.349l-0.07,0.227l-0.056,0.132v0.108l-0.073,0.187l-0.054,0.203l-0.143,0.872l-0.027,0.1l-0.042,0.088l-0.059,0.062
	l-0.073,0.022l-0.039-0.032l-0.038-0.05l-0.07-0.035l-0.073,0.011l-0.141,0.072h-0.059l-0.066-0.042l-0.052-0.047l-0.198-0.308
	l-0.182-0.112l-0.046-0.016l-0.035-0.004l-0.098,0.008l-0.152-0.05l-0.076-0.012l-0.171,0.051l-0.146-0.016l-0.076,0.007
	l0.622,0.138l0.125,0.039l0.111,0.083l0.203,0.243l0.079,0.115l-0.056,0.061l-0.2,0.053l-0.013,0.025l0.05,0.025l0.057,0.001
	l0.27-0.016l0.158-0.043l0.101-0.032l0.077,0.025l0.049,0.069l0.039,0.154l-0.093,0.554l0.019,0.246l-0.061,0.557l-0.03,0.465
	l0.055,0.87l0.058,0.626l0.01,0.171l-0.015,0.092l-0.05,0.05l-0.111,0.043l-0.071,0.034l-0.06,0.049l-0.052-0.002l0.006-0.058
	l0.044-0.047l0.013-0.097l0.083-0.15l0.007-0.055l-0.047-0.047l-0.17-0.15l-0.033-0.035l-0.048-0.09l-0.035-0.04l-0.448-0.338
	l-0.073-0.088l-0.25-0.415l-0.419-0.429l-0.671-0.362l-0.344-0.422l-0.327-0.399l-0.231-0.281l-0.202-0.103l-0.564-0.283
	l-0.566-0.279l-0.567-0.28l-0.569-0.279l-0.569-0.275l-0.57-0.276l-0.572-0.271l-0.574-0.271l-0.204-0.096l-0.082-0.139l0.101-0.177
	l0.097-0.121l0.033-0.131l-0.012-0.124l-0.037-0.106l-0.06-0.283l-0.099-0.247l-0.077-0.131l-0.204-0.191l-0.03-0.065l0.006-0.101
	l0.091-0.244l0.014-0.081l-0.021-0.093l-0.055-0.045l-0.069-0.029l-0.063-0.046l-0.006-0.123l0.134-0.097l0.28-0.116l0.023-0.029
	l0.017-0.041l0.014-0.042l0.017-0.039l0.03-0.038l0.033-0.025l0.032-0.02l0.03-0.025l0.05-0.069l0.116-0.24l0.053-0.089l0.048-0.054
	l0.19-0.113l0.06-0.048l0.034-0.059l-0.015-0.078l-0.129-0.228l-0.038-0.137l0.015-0.171l0.038-0.087l0.05-0.051l0.125-0.072
	l0.086-0.066l0.052-0.026l0.051,0.001l0.082,0.02l0.087-0.074l0.125-0.184l0.2-0.352l0.062-0.171l-0.002-0.133l-0.027-0.124
	l-0.013-0.15l0.011-0.084l0.027-0.062l0.047-0.049l0.196-0.171l0.038-0.064l-0.035-0.054l-0.053-0.045l-0.065-0.117l-0.285-0.225
	l-0.141,0.009l-0.287,0.136l-0.119-0.046l-0.036-0.059l-0.063-0.208l-0.042-0.06l-0.067-0.013l-0.423,0.053l-0.133,0.039
	l-0.291,0.134l-0.153,0.043l-0.143,0.003l-0.114-0.052l-0.06-0.132l0.042-0.149l0.08-0.16l0.055-0.165l0.002-0.074l-0.038-0.206
	l-0.001-0.084l0.021-0.074l0.114-0.244l0.075-0.243l0.035-0.084l0.089-0.17l0.036-0.087l0.036-0.145l0.021-0.161l0.004-0.158
	l-0.013-0.132l-0.027-0.069l-0.079-0.111l-0.183-0.465l0.025-0.127l0.086-0.118l0.256-0.196l0.032-0.053l0.012-0.088l-0.009-0.067
	l-0.084-0.196l-0.02-0.083l0.036-0.047l0.062-0.034l0.06-0.042l0.044-0.071l0.029-0.064l0.039-0.054l0.214-0.094l0.098-0.078
	l0.048-0.117l-0.011-0.167l-0.043-0.131l-0.014-0.072l0.013-0.076l0.049-0.065l0.063-0.048l0.058-0.056l0.031-0.086l-0.002-0.077
	l-0.036-0.127l-0.011-0.067l0.003-0.094l0.024-0.043l0.125-0.055l0.07-0.058l0.022-0.059l0.011-0.067l0.036-0.082l0.061-0.056
	l0.071-0.023l0.136-0.024l0.072-0.035l0.038-0.046l0.041-0.146l0.047-0.106l0.055-0.024l0.855,0.352l0.045-0.071l0.043-0.016
	l0.099,0.013l0.014-0.025l-0.159-0.111l-0.007-0.041l-0.01-0.063l0.045-0.106l0.084-0.088l0.282-0.151l0.054-0.045l0.031-0.049
	l0.025-0.055l0.036-0.059l0.083-0.077l0.285-0.18l0,0l0.036-0.023l0.16-0.061l0.153,0.007l0.279,0.085l0.14,0.008l0.144-0.036
	l0.293-0.128l0.23-0.114l0.128-0.086l0.088-0.114l0.089-0.156l0.193-0.446l0.048-0.257l0.079-0.221l0.218-0.193l0.148-0.039
	l0.144-0.016l0.203,0.017l0.063-0.017l0.13-0.077l0.06-0.043l0.023-0.01l0.041,0.002l0.036,0.02l0.068,0.063l0.041,0.006
	l0.048-0.051l0.011-0.083l-0.004-0.086l0.005-0.066l0.038-0.068l0.109-0.141l0.045-0.078l0.174-0.525l0.014-0.097l-0.076-0.077
	l-0.021-0.03l-0.006-0.038l0.01-0.039l0.016-0.038l0.007-0.042l-0.016-0.081l-0.038-0.045l-0.046-0.035l-0.044-0.058l-0.046-0.124
	l-0.017-0.145l0.037-0.139l0.118-0.107l0.124-0.095l0.21-0.256l0.113-0.116l0.486-0.352l0.064-0.056l0.051-0.057l0.046-0.064
	l0.045-0.077l0.157-0.198l0.023-0.058l-0.025-0.063l-0.048-0.045l-0.017-0.052l0.073-0.085l0.069-0.042l0.069-0.019l0.134,0.004
	l0.072,0.028l0.136,0.094l0.065,0.016l0.066-0.02l0.121-0.073l0.379-0.175l0.105-0.077l0.058-0.061l0.017-0.043l0.003-0.048
	l0.015-0.077l0.029-0.072l0.034-0.045l0.043-0.01l0.056,0.027l0.117,0.202l0.078,0.071l0.113-0.011l0.099-0.081l0.058-0.112
	l0.021-0.123l-0.011-0.111l-0.045-0.094l-0.125-0.188l-0.021-0.103l0.053-0.074l0.236-0.029l0.086-0.041l-0.003-0.075l-0.051-0.131
	l-0.001-0.068l0.031-0.059l0.164-0.221l0.027-0.023l0.033-0.019l0.028-0.02l0.019-0.032l0.003-0.039l-0.003-0.036l0.003-0.036
	l0.021-0.038l0.073-0.039l0.083,0.015l0.144,0.064l0.072,0.005l0.06-0.02l0.128-0.08l0.073-0.031l0.2-0.02l0.142-0.06l0.081-0.115
	l0.102-0.315l0.042-0.069l0.052-0.053l0.046-0.057l0.024-0.082l0.064-0.599l0.043-0.156l0.074-0.162l0.101-0.181l0.045-0.12
	l-0.015-0.105l-0.112-0.194l-0.07-0.198l-0.017-0.027l-0.021-0.021l-0.006-0.025l0.027-0.037l0.034-0.013l0.044,0.006l0.222,0.069
	l0.077,0.013l0.081-0.01l0.063-0.029l0.116-0.093l0.06-0.039l0.324-0.139l0.16-0.068l0.039-0.163l0.008-0.137l-0.025-0.12
	l-0.067-0.108l-0.098-0.101l-0.023-0.058l0.015-0.078l0.043-0.055l0.053-0.045l0.037-0.058l-0.003-0.093l-0.039-0.106L555,911.623
	l0.023-0.068l0.021-0.025l0.082-0.055l0.026-0.033l0.006-0.028l0.001-0.029l0.011-0.031l0.038-0.064l0.032-0.04l0.101-0.079
	l0.026-0.013l0.031-0.011l0.028-0.014l0.02-0.024l0.003-0.033l-0.02-0.064l-0.002-0.02l0.089-0.073l0.133-0.017l0.137,0.016
	l0.1,0.029l0.211,0.117l0.111,0.028l0.144-0.032l0.062-0.051l0.021-0.063l0.001-0.146l0.016-0.093l0.025-0.038l0.343,0.015
	l0.068-0.008l0.066-0.026l0.118-0.074l0.067-0.019l0.11-0.063l0.048-0.138l0.005-0.161l-0.019-0.136l-0.045-0.134l-0.099-0.181
	l-0.037-0.195l-0.005-0.06l0.04-0.209l0.005-0.296l-0.041-0.155l-0.093-0.061l-0.116-0.033l-0.105-0.076l-0.027-0.059l-0.028-0.132
	l-0.024-0.055l-0.056-0.047l-0.07-0.024l-0.077-0.007l-0.076,0.004l-0.12-0.036l-0.088-0.107l-0.078-0.128l-0.093-0.097
	l-0.128-0.049l-0.048-0.046l0.009-0.072l0.083-0.127l0.034-0.064l0.064-0.237l0.079-0.072l0.092,0.014l0.087,0.094l0.051,0.058
	l0.343,0.252l0.071,0.02l0.071-0.014l0.058-0.03l0.059-0.02l0.075,0.021l0.058,0.043l0.151,0.174l0.115,0.062l0.316,0.003
	l0.138,0.029l0.095,0.092l0.144,0.265l0.102,0.097l0.12,0.027l0.137-0.026l0.127-0.084l0.097-0.143l0.046-0.153l0.029-0.066
	l0.055-0.069l0.124-0.098l0.07-0.044l0.044-0.012l0.063,0.026l0.063,0.014l0.065-0.02l0.069-0.071l0.037-0.077l-0.003-0.051
	l-0.018-0.049l-0.009-0.072l0.013-0.079l0.021-0.064l0.013-0.063l-0.016-0.077l-0.046-0.074l-0.064-0.049l-0.147-0.074l-0.387-0.293
	l-0.589-0.273l-0.129-0.106l-0.125-0.059l-0.141-0.021l-0.12-0.053l-0.059-0.157l0.025-0.077l0.069-0.021h0.08l0.055-0.009
	l0.056-0.067l0.006-0.065l-0.008-0.073l0.01-0.077l0.046-0.066l0.121-0.09l0.037-0.069l0.013-0.078l-0.008-0.213l0.032-0.171
	l0.094-0.021l0.13,0.018l0.139-0.042l0.086-0.053l0.385-0.237l0.068-0.065l0.025-0.055l-0.029-0.348l-0.012-0.067l-0.015-0.029
	l-0.041-0.055l-0.005-0.032l0.015-0.049l0.026-0.025l0.028-0.021l0.025-0.032l0.038-0.091l-0.016-0.02l-0.052,0.007l-0.073-0.007
	l-0.041-0.051l0.022-0.071l0.052-0.066l0.056-0.04l0.065-0.012l0.145,0.009l0.07-0.004l0.073-0.031l0.041-0.043l0.092-0.24
	l0.012-0.052l-0.012-0.042l-0.079-0.149l-0.01-0.027l-0.005-0.031l-0.002-0.031l-0.006-0.033l-0.022-0.035l-0.062-0.039
	l-0.081-0.037l-0.059-0.045l0.005-0.068l0.021-0.017l0.095-0.054l0.002-0.001l0.042-0.084l-0.001-0.074l-0.033-0.062l-0.051-0.042
	l-0.032-0.009l-0.038,0.002l-0.034-0.006l-0.023-0.029l-0.003-0.05l0.022-0.014l0.033-0.004l0.031-0.024l0.042-0.117l0.013-0.028
	l0.035-0.026l0.031-0.009l0.03-0.004l0.034-0.017l0.026-0.028l0.063-0.116l0.031-0.023l0.042,0.005l0.077,0.028l0.143-0.003
	l0.063,0.015l0.115,0.088l0.052-0.032l0.042-0.07l0.032-0.072l0.01-0.035l0.015-0.07l0.018-0.04l0.024-0.033l0.061-0.054
	l0.026-0.034l0.013-0.08l-0.036-0.071l-0.213-0.239l-0.406-0.254l-0.102-0.121l-0.069-0.164l-0.028-0.19l0.029-0.2l0.086-0.131
	l0.192-0.229l0.087-0.13l0.253-0.586l0.018-0.069l0.024-0.156l0.023-0.059l0.073-0.082l0.017-0.029l0.009-0.041l-0.004-0.073
	l0.006-0.034l0.084-0.135l0.113-0.08l0.125-0.035l0.188-0.007l0.027-0.036l0.003-0.054l-0.018-0.185l0.016-0.044l0.152-0.194
	l0.009-0.088l-0.081-0.219l0.013-0.119l0.073-0.083l0.108-0.06l0.114-0.042l0.1-0.069l0.074-0.097l0.084-0.087l0.127-0.037
	l0.095,0.049l0.01,0.1l-0.004,0.107l0.052,0.071l0.051,0.002l0.043-0.024l0.041-0.032l0.044-0.02h0.046l0.227,0.062l0.103-0.002
	l0.101-0.028l0.079-0.062l0.091-0.212l0.002-0.035l-0.022-0.094l-0.004-0.042l-0.008-0.067l0.03-0.056l0.044-0.055l0.036-0.068
	l0.081-0.312l-0.004-0.146l-0.024-0.131v-0.134l0.066-0.151l0.034-0.145l-0.048-0.329l0.058-0.119l0.067-0.031l0.13-0.012
	l0.063-0.021l0.063-0.053l0.011-0.051l-0.012-0.059l-0.008-0.079l0.011-0.077l0.022-0.05l0.08-0.109l0.044-0.073l0.024-0.057
	l0.014-0.063l0.01-0.079l0.039-0.167l0.066-0.122l0.201-0.229l0.054-0.074l0.021-0.065l0.027-0.15l0.037-0.082l0.038-0.017
	l0.042-0.009l0.048-0.058l0.078-0.136l0.095-0.129l0.045-0.084l0.029-0.167l0.019-0.04l0.021-0.045l0.128-0.141l0.037-0.075
	l0.022-0.112l0.001-0.085l-0.031-0.237l0.011-0.104l0.103-0.474l0.039-0.034l0.35-0.138l0.12-0.091l0.087-0.138l0.009-0.042
	l-0.009-0.056l0.016-0.041l0.022-0.023l0.105-0.079l0.284-0.301l0.046-0.035l0.041,0.005l0.11,0.098l0.038,0.021l0.047-0.018
	l0.263-0.229l0.044-0.058l0.021-0.039l0.015-0.041l0.005-0.04l-0.009-0.038l-0.025-0.039L565.924,890l-0.048-0.003l-0.023,0.007
	l-0.017,0.019l-0.018,0.007l-0.035-0.026l-0.012-0.031l-0.016-0.126l-0.046-0.143l-0.013-0.08l0.01-0.078l0.019-0.026l0.054-0.045
	l0.011-0.013l0.005-0.047l0.021-0.039l0.081-0.109l0.031-0.03l0.023-0.031l0-0.036l-0.005-0.045l0.015-0.026l0.065-0.032
	l0.108,0.038l0.104,0.133l0.105,0.075l0.113-0.133l0.014-0.043l0.018-0.096l0.015-0.046l0.024-0.031l0.029-0.01l0.028-0.006
	l0.026-0.013l0.238-0.198l0.066-0.071l0.014-0.064l-0.019-0.064l-0.059-0.147l-0.008-0.061l0.012-0.063l0.036-0.09l0.026-0.093
	l0.025-0.194l0.03-0.088l0.052-0.063l0.064-0.056l0.047-0.061l-0.012-0.145l0.034-0.088l0.056-0.08l0.062-0.058l0.076-0.036
	l0.039,0.019l0.049,0.178l0.012,0.042l0.026,0.058l0.046,0.036l0.083,0.017l0.069,0.024l0.05,0.037l0.053,0.022l0.075-0.027
	l0.094-0.131l-0.076-0.198l0.14-0.083l0.069-0.031l0.11-0.078l0.06-0.029l0.057-0.048l0.013-0.146l0.041-0.074l0.079-0.04
	l0.087-0.011l0.084-0.026l0.072-0.083l0.189-0.306l0.229-0.547l0.088-0.32l0.055-0.104l0.167-0.229l0.097-0.072l0.133-0.045
	l0.352-0.012l0.113-0.03l0.068-0.037l0.028-0.018h0.03l0.25,0.072h0.062l0.246-0.05l0.113,0.004l0.118,0.058l0.123,0.082
	l0.075,0.019l0.07-0.021l0.089-0.072l0.029-0.013h0.115l0.024-0.004l0.023-0.036l-0.001-0.032l-0.006-0.034l0.007-0.036l0.024-0.042
	l0.018-0.022l0.062-0.045l0.131-0.069l0.062-0.045l0.049-0.073l0.027-0.167l-0.047-0.143l-0.076-0.135l-0.056-0.143l-0.004-0.171
	l0.18-0.69l0.05-0.122l0.065-0.117l0.093-0.116l0.006-0.01l0.004-0.012l0.002-0.013l0.018-0.081l0.019-0.093l0.034-0.072
	l0.074-0.044l0.02-0.018l0.013-0.021l0.008-0.022l0.003-0.026l-0.029-0.154l0.004-0.078l0.023-0.09l0.012-0.096l-0.007-0.188
	l0.061-0.178l-0.005-0.29l0.097-0.597l0.066-0.187l0.044-0.08l0.049-0.045l0.058-0.026l0.071-0.022l0.098-0.011l0.027-0.016
	l0.025-0.045l-0.003-0.088l0.014-0.047l0.054-0.068l0.123-0.123l0.048-0.073l0.029-0.1l-0.006-0.091l-0.035-0.181l0.012-0.229
	l0.023-0.124l0.042-0.09l0.061-0.058l0.199-0.091l0.075-0.064l0.041-0.074l0.03-0.08l0.042-0.083l0.068-0.071l0.07-0.029
	l0.145-0.008l-0.068-0.16l-0.009-0.081l0.064-0.202l-0.002-0.053l-0.066-0.112l-0.034-0.085l0.021,0.005l0.055,0.045l0.061,0.031
	l0.076-0.01l0.052-0.044l0.013-0.062l-0.06-0.104l0.017-0.028l0.031-0.023l0.023-0.025l0.017-0.032l0.014-0.012l0.007-0.017v-0.052
	l-0.013-0.035l-0.024-0.028l-0.019-0.03l0.003-0.048l0.023-0.033l0.037-0.022l0.038-0.021l0.03-0.022l0.186-0.172l0.052-0.068
	l0.065-0.149l0.042-0.054l0.07-0.021l0.06,0.038l0.039,0.071l0.042,0.058l0.067-0.012l0.038-0.062l0.085-0.285l0.076-0.144
	l0.112-0.168l0.127-0.112l0.055,0.012l0.064,0.014l0.052,0.054l0.054,0.039l0.062,0.016l0.077-0.01l0.067-0.044l0.096-0.135
	l0.054-0.042l0.064,0.01l0.06,0.051l0.096,0.12l0.018,0.032l0.008,0.031l0.017,0.023l0.315,0.067l0.052-0.029l0.047-0.091
	l0.007-0.054l-0.007-0.106l0.015-0.055l0.025-0.029l0.103-0.072l0.02-0.031l0.009-0.035l0.012-0.035l0.033-0.027l0.034-0.012h0.036
	l0.068,0.015l0.057-0.01l0.193-0.095l0.021-0.004l0.044,0.002l0.02-0.006l0.023-0.021l0.028-0.049l0.017-0.019l0.07-0.06
	l0.035-0.017l0.049,0.005l0.066,0.051l0.104,0.155l0.091,0.039l0.082-0.008l0.083-0.037l0.027-0.02l0.05-0.036l0.103-0.107
	l0.038-0.027l0.085-0.033l0.046-0.039l0.02-0.066l0.03-0.284l0.023-0.045l0.061-0.062l0.028-0.013l0.037-0.008l0.033-0.015
	l0.02-0.027l-0.008-0.041l-0.073-0.025l-0.018-0.029l0.071-0.138l0.303-0.105l0.049-0.132l-0.004-0.108l0.058-0.466l0.028-0.063
	l0.104-0.125l0.041-0.076l0.058-0.166l0.112-0.145l0.004-0.071l-0.021-0.075l-0.012-0.087l0.056-0.296l0.021-0.064l0.052-0.014
	l0.071,0.016l0.057-0.019l0.014-0.114l-0.077-0.128l-0.136-0.09l-0.104-0.107l0.016-0.18l0.214-0.139l0.58,0.087l0.195-0.241
	l0.125-0.277l0.005-0.01l0.201-0.248l0.551-0.475l0.01-0.053l-0.021-0.055l-0.019-0.079l0.006-0.082l0.034-0.012l0.059,0.013
	l0.082-0.003l0.129-0.088l0.182-0.28l0.114-0.107l0.094-0.037l0.191-0.047l0.095-0.051l0.168-0.151l0.088-0.063l0.215-0.051
	l0.066-0.058l0.042-0.091l0.044-0.121l0.057-0.117l0.066-0.075l0.046-0.015l0.037-0.011l0.18,0.052l0.066,0.039l0.059,0.049
	l0.093,0.101l0.026-0.005l0.017-0.025l0.019-0.016l0.272,0.016l0.033-0.031l0.02-0.107l-0.002-0.192l0.006-0.063l0.019-0.071
	l0.021-0.034l0.029-0.026l0.044-0.052l0.18-0.28l0.09-0.18l0.023-0.121l-0.054-0.045l-0.061-0.007l-0.023-0.028l0.06-0.106
	l0.108-0.135l0.039-0.065l0.098-0.331l0.045-0.082l0.047-0.032l0.155-0.032l0.063-0.022l0.031-0.058l-0.023-0.171l0.005-0.078
	l0.043-0.073l0.18-0.185l0.019-0.042l0.007-0.039l0.011-0.037l0.033-0.035l0.028-0.007l0.078,0.007h0.032l0.034-0.04l0.106-0.173
	l0.043-0.059l0.063-0.042l0.141-0.064l0.056-0.048l0.036-0.078l0.013-0.167l0.082-0.226l-0.027-0.13l-0.075-0.117l-0.092-0.104
	l-0.124-0.04l-0.243,0.127l-0.095-0.025l0.019-0.285l-0.007-0.07l-0.063-0.151l-0.021-0.081l0.006-0.081l0.039-0.077l0.171-0.194
	l0.03-0.086v-0.08l0.002-0.011l0.011-0.062l0.067-0.066l0.065-0.015l0.12,0.027l0.063-0.01l0.058-0.048l0.116-0.146l0.06-0.059
	l0.11-0.079l0.024-0.047l-0.029-0.06l-0.057-0.067l-0.04-0.065l-0.052-0.161l-0.064-0.303l0.008-0.142l0.134-0.462l0.042-0.09
	l0.044-0.067l0.026-0.029l0.033-0.02l0.077,0.036l0.037,0.003l-0.014-0.136l0.028-0.07l0.043-0.069l0.033-0.087l0.002-0.1
	l-0.03-0.071l-0.089-0.139l0.001-0.148l0.155-0.281l-0.013-0.086l-0.013-0.081l-0.061-0.071l-0.051-0.039l-0.024-0.053l0.023-0.108
	l0.018-0.034l0.044-0.065l0.018-0.037l0.008-0.044l0.001-0.008l0.003-0.102l0.017-0.052l0.022-0.031l0.056-0.053l0.023-0.032
	l0.001-0.032l-0.033-0.07l0.004-0.045l0.04-0.074l0.009-0.033l-0.005-0.047l-0.025-0.087l0.003-0.042l0.028-0.042l0.069-0.02
	l0.063,0.046l0.11,0.128l0.085,0.039l0.048-0.02l0.101-0.128l0.06-0.041l0.057-0.028l0.045-0.042l0.029-0.079l-0.004-0.084
	l-0.027-0.104l-0.038-0.099l-0.039-0.063l-0.134-0.097l-0.123-0.059l-0.099-0.087l-0.056-0.186l-0.001-0.089l0.016-0.103
	l0.031-0.101l0.092-0.163l-0.002-0.081l-0.042-0.17l0.005-0.449l0.017-0.112l0.031-0.072l0.119-0.155l0.084-0.138l0.069-0.146
	l0.049-0.068l0.121-0.093l0.047-0.067l0.024-0.091l0.013-0.086l0.031-0.077l0.152-0.116l0.048-0.063l0.074-0.153l0.046-0.074
	l0.049-0.05l0.336-0.202l0.055-0.007l0.049,0.065l-0.017,0.096l-0.027,0.097l0.015,0.068l0.057,0.012l0.077-0.022l0.072-0.041
	l0.087-0.101l0.07-0.058l0.138-0.084l0.078,0.001l0.13,0.096l0.045,0.01l0.021-0.052l-0.014-0.074l-0.052-0.136l-0.022-0.093
	l-0.002-0.078l0.021-0.077l0.338-0.502l0.118-0.113l0.031-0.02l0.1-0.049l0.045-0.036l0.018-0.039l0.011-0.045l0.022-0.05
	l0.054-0.071l0.05-0.052l0.125-0.087l0.121-0.109l0.213-0.266l0.124-0.077l0.077-0.009l0.067,0.002l0.063-0.019l0.065-0.067
	l0.026-0.09l-0.012-0.186l0.036-0.067l0.11,0.004l0.207,0.282l0.099,0.089l0.138,0.028h0.126l0.127-0.029l0.139-0.057l0.065-0.049
	l0.046-0.065l0.082-0.146l0.051-0.064l0.029-0.029l0.031-0.024l0.046-0.016l0.081,0.006l0.042-0.01l0.119-0.123l0.023-0.161
	l-0.05-0.16l-0.103-0.111l-0.141-0.051l-0.046-0.039l0.01-0.078l0.043-0.047l0.207-0.117l0.117-0.118l0.095-0.134l0.29-0.513
	l0.129-0.366v-0.001l-0.003-0.066l-0.047-0.12l0.006-0.093l0.046-0.089l0.074-0.111l0.062-0.114l0.112-0.415l0.008-0.053
	l0.001-0.053l-0.007-0.052l0.071-0.218l0.003-0.07l-0.003-0.067l0.005-0.065l0.027-0.07l0.111-0.182l0.073-0.063l0.093-0.006
	l0.042,0.005l0.046-0.003l0.045-0.013l0.039-0.027l0.009-0.03l-0.013-0.074l0.006-0.023l0.028-0.018h0.021l0.021,0.003l0.077-0.021
	l0.121-0.012l0.055-0.017l0.046-0.035l0.017-0.026l0.023-0.016l0.068,0.006l0.186,0.059l0.094,0.003l0.105-0.052l0.067-0.073
	l0.059-0.102l0.08-0.208l0.024-0.085l0.04-0.08l0.053-0.071l0.065-0.062l0.063-0.041l0.069-0.029l0.037-0.022l0.02-0.03l0.016-0.034
	l0.024-0.032l0.192-0.129l0.046-0.064l0.032-0.094l0.036-0.193l0.029-0.094l0.077-0.13l0.109-0.106l0.125-0.083l0.125-0.065
	l0.036-0.005l0.031,0.007l0.031-0.002l0.034-0.037l0.222-0.407l0.177-0.19l0.01-0.01l0.24-0.081l0.262-0.054l0.251-0.119l0.065-0.05
	l0.142-0.186l0.071-0.015l0.052,0.066l0.044,0.087l0.043,0.044l0.049-0.024l0.158-0.119l0.142-0.082l0.283-0.238l0.098-0.028
	l0.019-0.026l0.003-0.032l0.02-0.031l0.064-0.04l0.063-0.017l0.067,0.002l0.231,0.053l0.124-0.021l0.115-0.075l0.444-0.522
	l0.111-0.132l0.045-0.036l0.047-0.008l0.119,0.003l0.034-0.021l0.016-0.064v-0.062l0.006-0.061l0.036-0.063l0.046-0.029l0.116-0.033
	l0.054-0.024l0.186-0.144l0.089-0.089l0.059-0.089l0.014-0.058l0.026-0.055l0.038-0.045l0.048-0.032l0.08-0.014l0.154-0.002
	l0.08-0.018l0.067-0.033l0.372-0.304l0.047-0.058l0.074-0.158l0.042-0.065l0.078-0.074l0.274-0.167l0.082-0.035l0.062-0.005
	l0.144,0.036l0.153,0.093l0.08,0.146l0.065,0.156l0.104,0.129l0.092,0.035l0.064-0.033l0.063-0.066l0.086-0.064l0.096-0.034
	l0.103-0.013l0.1,0.013l0.18,0.088l0.082,0.02l0.191,0.016l0.04,0.017l0.094,0.062l0.027,0.012l0.022-0.025l0.043-0.104l0.032-0.045
	l0.059-0.064l0.131-0.111l0.057-0.062l0.048-0.117l0.007-0.138l-0.153-1.3l-0.035-0.22l-0.009-0.2l0.029-0.199l0.079-0.216
	l0.168-0.305l0.107-0.147l0.114-0.113l0.173-0.081l0.626-0.115l0.111-0.117l0.078-0.216l0.297-1.142l0.129-0.347l0.022-0.119
	l-0.001-0.118l-0.03-0.109l-0.012-0.129l0.053-0.114l0.061-0.104l0.011-0.099l0.08-0.034l0.003-0.104l-0.042-0.231l0.019-0.081
	l0.033-0.077l0.092-0.14l0.487-0.478l0.359-0.354l0.119-0.056l0.021-0.01l0.089-0.004l0.056,0.026l0.052,0.045l0.073,0.042
	l0.084,0.026l0.087,0.007l0.072-0.029l0.039-0.081l-0.021-0.144l-0.056-0.165l-0.018-0.162l0.091-0.142l0.03-0.033l0.005-0.03
	l-0.005-0.033l-0.002-0.041l-0.004-0.024l-0.022-0.054l-0.004-0.026l0.008-0.02l0.015-0.019l0.014-0.011l0.006-0.003l0.003-0.07
	l-0.004-0.045l-0.03-0.035l-0.07-0.039l-0.015-0.036l-0.058-0.096l-0.016-0.053v-0.035l0.032-0.255l0.034-0.068l0.068-0.076
	l0.379-0.277l0.111-0.113l0.038-0.054l0.045-0.049l0.051-0.025l0.055,0.015l0.016,0.133l0.027,0.046l0.066-0.062l0.088-0.109
	l0.31-0.237l0.082-0.002l0.056,0.045l0.051,0.056l0.067,0.028l0.068-0.019l0.248-0.146l0.093-0.094l0.033-0.021l0.087-0.01
	l0.146,0.013l0.219,0.021l0.218,0.021l0.219,0.02l0.219,0.02l0.551,0.04l0.552,0.041l0.552,0.041l0.551,0.042l0.041,0.004
	l0.085,0.011l0.086,0.012l0.04,0.004l0.17,0.022l0.231-0.001l0.144-0.073l0.219-0.217l0.336-0.335l0.338-0.335l0.034-0.033
	l0.712-0.706l0.713-0.705l0.714-0.704l0.181-0.178l0.088-0.112l-0.252-1.071l0.358-0.215l0.176-0.071l0.393-0.07l0.073-0.037
	l0.055-0.084l0.175-0.389l0.063,0.031l0.075,0.053l0.063,0.018l0.063-0.006l0.065-0.037l0.117-0.039l0.125,0.002l0.475,0.095
	l0.056-0.005l0.025-0.041l0.043-0.128l0.027-0.027l0.08-0.034l0.076-0.075l0.207-0.273l0.078-0.078l0.091-0.054l0.125-0.027
	l0.061,0.004l0.037,0.026l0.032,0.036l0.066,0.048l0.047,0.054l0.021,0.007l0.024-0.02l0.027-0.025l0.025-0.011l0.484,0.117
	l0.558,0.125l0.125-0.02l0.036-0.029l0.044-0.027l0.046-0.017l0.041-0.001l0.05,0.02l0.009,0.017h0.011l0.049-0.036l0.048-0.05
	l0.244-0.353l0.54-0.561l0.076,0.013l0.247,0.276l0.111,0.169l0.041,0.188l-0.066,0.219l0.006,0.032l0.297,0.248L622.654,828.658z"
	/></svg>