<?xml version="1.0" encoding="utf-8"?>
<!-- Generator: Adobe Illustrator 15.0.0, SVG Export Plug-In . SVG Version: 6.00 Build 0)  -->
<!DOCTYPE svg PUBLIC "-//W3C//DTD SVG 1.1//EN" "http://www.w3.org/Graphics/SVG/1.1/DTD/svg11.dtd">
<svg version="1.1" id="Ebene_1" xmlns="http://www.w3.org/2000/svg" xmlns:xlink="http://www.w3.org/1999/xlink" x="0px" y="0px"
	 width="1920px" height="1080px" viewBox="0 0 1920 1080" enable-background="new 0 0 1920 1080" xml:space="preserve">

<path fill="#F4E0B6" stroke="#FFFFFF" d="M1323.096,366.393l0.191,0.075l0.23,0.269l0.17,0.072l0.354-0.01l0.073-0.024l0.116-0.099
	l0.085-0.019l0.085-0.049l0.047-0.09l0.04-0.102l0.057-0.085h0.001l0.108-0.047l0.071,0.012l0.04-0.013l0.011-0.13l-0.048-0.361
	l0.003-0.121l0.038-0.154l-0.009-0.06l-0.066-0.149l-0.007-0.054l0.126-0.069l0.732-0.213l0.058-0.004l0.074,0.049l0.084,0.161
	l0.058,0.076l0.038,0.026l0.085,0.035l0.037,0.023l0.032,0.033l0.046,0.07l0.015,0.016l0.013,0.015l0.062,0.048l0.076,0.041
	l0.082,0.034l0.085,0.022l0.158-0.017l0.244-0.165l0.16-0.038l0,0l0.279-0.008l0.068,0.033l0.15,0.07l0.122,0.197l-0.01,0.271
	l-0.05,0.068l-0.137,0.109l-0.044,0.069l0.006,0.069l0.063,0.005l0.067,0.017l0.025,0.103l0.071-0.036l0.077,0.015l0.045,0.048
	l-0.021,0.066l-0.07,0.031l-0.077-0.006l-0.072,0.007l-0.057,0.071l-0.001,0.136l0.121,0.318l0.035,0.143l-0.014,0.216l-0.018,0.067
	l-0.089,0.179l-0.013,0.079l0.023,0.171l-0.009,0.082l-0.06,0.045l-0.225,0.048l-0.066,0.026l-0.029,0.059l-0.043,0.172
	l-0.002,0.063l0.037,0.09l0.063,0.063l0.077,0.057l0.075,0.072l0.043,0.069l0.03,0.078l0.018,0.081l0.005,0.077l-0.015,0.091
	l-0.034,0.055l-0.099,0.109l-0.062,0.141l-0.052,0.312l-0.047,0.148l-0.022,0.13l0.053,0.239l0.005,0.026l-0.037,0.279l-0.135,1.009
	l-0.17,0.55l-0.337,0.43l-0.354,0.333l-0.051,0.142l0.01,0.097l0.037,0.075l0.044,0.073l0.037,0.086l0.01,0.087l-0.038,0.161
	l-0.009,0.082l0.062,0.171l0.257,0.186l0.073,0.135l0.012,0.18l-0.053,0.514l0.016,0.297l-0.011,0.099l-0.016,0.042l-0.044,0.083
	l-0.002,0.005l-0.012,0.034l-0.012,0.015l-0.036,0.026l-0.006,0.018l0.015,0.029l0.021,0.015l0.021,0.007l0.011,0.005l0.01,0.002
	l0.026,0.015l0.027,0.022l0.019,0.026l-0.003,0.017l-0.026,0.038l-0.006,0.017l-0.033,0.177l-0.009,0.024l-0.024,0.067l-0.146,0.21
	l-0.023,0.096l0.029,0.171l-0.015,0.082l-0.052,0.043l-0.113-0.105l-0.084-0.012l-0.105,0.088l-0.098,0.158l-0.066,0.174
	l-0.024,0.286l-0.108,0.136l-0.145,0.14l-0.104,0.099l0.009,0.196l-0.016,0.061l-0.006,0.058l0.025,0.058l0.035,0.058l0.021,0.062
	l0.006,0.132l-0.014,0.128l-0.065,0.248l-0.065,0.129l-0.081,0.043l-0.102,0.01l-0.129,0.028l-0.088,0.05l-0.093,0.083l-0.069,0.098
	l-0.016,0.096l0.021,0.05l0.002,0.053l-0.016,0.052l-0.035,0.039l-0.054,0.018l-0.045-0.012l-0.046-0.021l-0.061-0.005l-0.105,0.054
	l-0.01,0.092l0.051,0.104l0.074,0.094l-0.235-0.039h-0.001l-0.255-0.072l-0.123-0.012l-0.117,0.028l-0.092,0.08l-0.196,0.239
	l-0.037,0.034l-0.012,0.01l-0.127-0.075l-0.138-0.114l-0.111-0.133l-0.048-0.133l-0.01-0.285l-0.033-0.078l-0.02-0.045l-0.128-0.073
	l-0.05-0.121l0.046-0.154l0.093-0.073l-0.063-0.135l-0.125,0.039l-0.193,0.026l-0.199,0.004l-0.104-0.06l-0.09-0.066l-0.051-0.092
	l-0.028,0.006l-0.046,0.009l-0.053-0.004l-0.053-0.04l-0.02-0.073l-0.045-0.069l-0.053-0.005l-0.058-0.08l0.001-0.079l-0.065-0.047
	l-0.054-0.068l-0.023-0.068l-0.021-0.134l0.021-0.044l0.006-0.014l0.007-0.016l0.028-0.039l0.019-0.019l-0.054-0.028l-0.151-0.175
	l-0.261-0.269l-0.171-0.133l-0.161-0.083l-0.062-0.174l-0.039-0.199l-0.081-0.191l-0.154-0.201l-0.322-0.308l-0.024-0.022v-0.001
	l-0.146-0.148l-0.064-0.083l-0.047-0.089l-0.013-0.096l-0.046-0.103l-0.2-0.269l-0.03-0.09l-0.007-0.086l0.021-0.545l-0.036-0.185
	l-0.114-0.112l-0.067-0.051l-0.038-0.081l-0.058-0.168l-0.032-0.049l-0.075-0.091l-0.03-0.048l-0.013-0.052l0.021-0.03l-0.053-0.173
	l0.066-0.147l-0.028-0.095l0.006-0.084l-0.041-0.377l0.092-0.215l0.087-0.111l0.005-0.104l-0.085-0.126l-0.021-0.125l0.138-0.127
	l0.167,0.044l0.198-0.082l0.059-0.156l-0.178-0.158l0.029-0.143l0.102-0.106l0.035-0.169l0.193-0.173l0.053-0.18l0.095-0.153
	l0.16-0.003l0.019,0.139l0.134,0.125l-0.013,0.146l0.109,0.164l0.23,0.108l0.007-0.077l0.017-0.075l0.095-0.271l-0.004-0.102
	l0.011-0.108l-0.039-0.142l-0.001-0.075l0.029-0.066l0.152-0.154l0.055-0.114l0.063-0.135l0.069-0.263l0.103-0.238l0.217-0.175
	l0.07-0.047l0.099-0.126l0.055-0.181l-0.007-0.184l-0.083-0.143l0,0v-0.001l-0.076-0.083l-0.163-0.23l-0.044-0.096l0.002-0.116
	l0.037-0.105l0.013-0.103l-0.067-0.109l0.177-0.042l0.144-0.107l0.229-0.289l0.039-0.07l0.022-0.039l0.021-0.06l0.032-0.156
	l0.101-0.154l0.055-0.17l0.043-0.088l0.057-0.08l0.063-0.057l0.117-0.038l0.087,0.039l0.081,0.073l0.105,0.066l0.104,0.031
	L1323.096,366.393z"/></svg>