<?xml version="1.0" encoding="utf-8"?>
<!-- Generator: Adobe Illustrator 15.0.0, SVG Export Plug-In . SVG Version: 6.00 Build 0)  -->
<!DOCTYPE svg PUBLIC "-//W3C//DTD SVG 1.1//EN" "http://www.w3.org/Graphics/SVG/1.1/DTD/svg11.dtd">
<svg version="1.1" id="Ebene_1" xmlns="http://www.w3.org/2000/svg" xmlns:xlink="http://www.w3.org/1999/xlink" x="0px" y="0px"
	 width="1920px" height="1080px" viewBox="0 0 1920 1080" enable-background="new 0 0 1920 1080" xml:space="preserve">

<path fill="#F4E0B6" stroke="#FFFFFF" d="M1244.104,728.187l-0.034,0.313l-0.001,0.153l0.085,0.604l0.052,0.196l0.011,0.069
	l-0.009,0.094l-0.045,0.185l-0.002,0.09l0.05,0.145l0.08,0.03l0.088-0.049l0.076-0.093l0.116-0.182l0.08-0.105l0.023,0.121
	l-0.092,0.479v0.093l0.028,0.092l0.068,0.141l-0.016,0.217l0.009,0.151l0.058,0.088l0.202,0.112l0.107,0.039l0.096-0.02l0.01,0.073
	l0.048,0.026l0.063,0.025l0.054,0.058l0.002,0.003l0.016-0.025l0.014-0.199l0.024-0.085l0.05-0.063l0.04-0.014l0.399,0.046
	l0.075-0.004l0.026,0.004l0.028,0.026l0.059,0.083l0.023,0.017l0.067-0.018l0.04-0.041l0.034-0.048l0.054-0.035l0.066-0.007
	l0.146,0.022l0.07-0.011l0.098-0.072l0.175-0.19l0.106-0.059l0.002,0.083l0.001,0.036l-0.041,0.273l0.014,0.104l0.063,0.068
	l0.174,0.062l0.082,0.051l0.015,0.029l0.016,0.084l0.013,0.033l0.035,0.033l0.084,0.018l0.039,0.028l0.038,0.065l0.027,0.073
	l0.025,0.152l-0.009,0.145l0.023,0.039l0.068,0.086l0.018,0.029l0.006,0.185l-0.064,0.15l-0.115,0.086l-0.153-0.002l0.018,0.072
	l-0.004,0.064l-0.028,0.055l-0.052,0.039l-0.094,0.126l-0.062,0.129l-0.037,0.144l-0.021,0.166l0.041,0.005l0.18,0.011l0.067,0.147
	l-0.049,0.204l-0.149,0.236l-0.017,0.117l-0.017,0.057l-0.023,0.031l-0.103,0.101v0.019l0.016,0.05l0.002,0.015l-0.081,0.056
	l-0.008-0.007l-0.01,0.004l-0.067,0.055l-0.003,0.022l0.016,0.073v0.027l-0.07,0.18l0.008,0.078l0.064,0.102l0.049,0.1l0.018,0.118
	l-0.007,0.451l0.018,0.115v0.004l0.047,0.101l0.064,0.082l0.067,0.066l0.056,0.076l0.033,0.103l-0.238,0.034l-0.069,0.15l0.01,0.452
	l-0.088,0.418l0.002,0.14l0.119,0.428l0.031,0.238l0.006,0.04l0.006,0.274l-0.033,0.27l-0.148,0.471l-0.007,0.104l0.053,0.387
	l-0.014,0.115l-0.063,0.123l-0.022,0.067l-0.101,0.188l-0.066,0.268l-0.168,0.264l-0.03,0.038l-0.081,0.026h-0.063l-0.051,0.02
	l-0.046,0.093l0.003,0.022l0.034,0.091v0.058l-0.053,0.085l-0.013,0.047l0.023,0.084l0.032,0.069l0.017,0.066l-0.026,0.075
	l-0.024,0.002l-0.188,0.085l-0.168,0.042l-0.071-0.164l-0.068-0.106l-0.11-0.069l-0.246-0.087l-0.111-0.052l-0.337-0.235l-0.1-0.1
	l-0.073-0.108l-0.082-0.095l-0.09-0.042l-0.092-0.022l-0.077-0.047l-0.074-0.101l-0.053-0.098l-0.06-0.081l-0.087-0.055
	l-0.064-0.028l-0.047-0.032l-0.1-0.08l-0.185-0.109l-0.047-0.036l-0.037-0.053l-0.011-0.051l-0.005-0.051l-0.021-0.062l-0.046-0.043
	l-0.136-0.054l-0.104-0.109l-0.064-0.018l-0.067-0.008l-0.068-0.026l-0.047-0.042l-0.102-0.162l-0.402-0.406l-0.969-1.934
	l-0.178-0.185l-0.204-0.032l-0.216,0.07l-0.203,0.125l-0.072-0.161l-0.018-0.083l0.043-0.172l0.01-0.037l-0.115-0.029l-0.085-0.087
	l-0.2-0.352l-0.041-0.116l-0.015-0.11l0.037-0.07l-0.012-0.074l-0.022-0.033l-0.192-0.292l-0.083-0.058l-0.091-0.021l-0.095,0.009
	l-0.089,0.034l-0.108,0.009l-0.088-0.074l-0.076-0.103l-0.071-0.071l-0.095-0.016l-0.101,0.013l-0.09-0.004l-0.075-0.07
	l-0.053-0.082l-0.046-0.042l-0.129-0.08l-0.117-0.122l-0.042-0.032l-0.087,0.003l-0.099,0.043l-0.097,0.019l-0.083-0.071
	l-0.052-0.119l-0.02-0.11l0.026-0.092l0.084-0.066l-0.128-0.097l-0.209-0.587l0.04-0.18l0.25-0.171l0.079-0.028l0.348-0.013
	l0.121-0.02l0.203-0.079l0.11-0.027l0.111,0.01l0.081,0.019l0.017,0.023l0.026,0.067l0.055,0.064l0.003,0.005l0.155,0.056
	l0.063,0.052l0.022,0.065l-0.014,0.128l0.014,0.065l0.042,0.058l0.102,0.088l0.04,0.066l0.094,0.08l0.104-0.076l0.141-0.211
	l0.074-0.058l0.097-0.029l0.182-0.058l0.141,0.013l0.067-0.083l0.051-0.113l0.091-0.071l0.047-0.024l0.027-0.037l0.021-0.044
	l0.103-0.134l0.033-0.016l0.058-0.009l0.227-0.033l0.093-0.032l0.093-0.073l0.026-0.056l-0.006-0.062l-0.045-0.122l0.008-0.07
	l0.051-0.03l0.119-0.021l0.113-0.061l0.08-0.071l0.054-0.109l0.034-0.165l0.009-0.133l-0.003-0.145l-0.019-0.143l-0.038-0.135
	l-0.028-0.063l-0.27-0.572l-0.114-0.469l-0.25-0.405l-0.114-0.298l-0.026-0.051l-0.003-0.038l0.045-0.027l0.05,0.004l0.047,0.016
	l0.013,0.004l0.122,0.037l0.038-0.015l0.035-0.025l0.046-0.023l0.062-0.007l0.081,0.021l0.243,0.121l0.115,0.037l0.132,0.022
	l0.129-0.01l0.1-0.062l0.044-0.109l0.045-0.429l-0.01-0.045l-0.024-0.052l-0.004-0.046l0.057-0.023l0.183,0.003l0.065-0.018
	l0.07-0.046l0.075-0.07l0.068-0.082l0.044-0.077l0.025-0.1l0.004-0.045l0.003-0.041l0.019-0.075l0.06-0.067h0.028l0.165-0.039
	l0.011-0.016l0.037,0.017l0.063,0.064l0.049,0.029l0.37,0.105l0.193,0.002L1244.104,728.187z"/></svg>