<?xml version="1.0" encoding="utf-8"?>
<!-- Generator: Adobe Illustrator 15.0.0, SVG Export Plug-In . SVG Version: 6.00 Build 0)  -->
<!DOCTYPE svg PUBLIC "-//W3C//DTD SVG 1.1//EN" "http://www.w3.org/Graphics/SVG/1.1/DTD/svg11.dtd">
<svg version="1.1" id="Ebene_1" xmlns="http://www.w3.org/2000/svg" xmlns:xlink="http://www.w3.org/1999/xlink" x="0px" y="0px"
	 width="1920px" height="1080px" viewBox="0 0 1920 1080" enable-background="new 0 0 1920 1080" xml:space="preserve">

<path fill="#F4E0B6" stroke="#FFFFFF" d="M1415.495,355.05l0.028,0.108l-0.028,0.094l-0.072,0.04l-0.102-0.056l-0.035-0.082
	l0.035-0.075l0.077-0.042L1415.495,355.05z M1414.091,353.793l0.045-0.099l-0.016-0.025l-0.003-0.015l0.023-0.063l0.037,0.006
	l-0.016,0.079l0.015,0.033l0.032,0.007l0.034-0.001l0.044-0.022l0.024-0.039l0.028-0.019l0.06,0.041l0.025,0.102l0.087,0.072
	l0.096,0.052l0.044,0.045l0.028,0.087l0.114,0.196l-0.011,0.072l0.06,0.029l0.05,0.032l0.041,0.021l0.037-0.01l0.219,0.172
	l0.059,0.073l-0.104-0.006l0.015,0.056l-0.115-0.003l-0.146-0.03l-0.076-0.024l-0.047-0.029l-0.156-0.043l-0.015-0.071l-0.037-0.045
	l-0.036-0.024l-0.019-0.017l-0.017-0.033l-0.044-0.029l-0.049-0.026l-0.035-0.026l-0.03-0.043l-0.074-0.15l-0.131-0.171
	L1414.091,353.793z M1414.03,354.085l0.153,0.076l-0.433-0.076l-0.032,0.006l-0.074,0.037l-0.045,0.004l-0.062-0.03l-0.048-0.042
	l-0.043-0.024l-0.05,0.022l-0.04-0.006l0.003-0.087l0.091-0.119l0.036-0.087l0.024,0.003l0.007,0.009l-0.001,0.013l0.005,0.017
	l0.031,0.02l0.022,0.02l0.025,0.004l0.035-0.024l0.042,0.085l0.037,0.061l0.058,0.042L1414.03,354.085z M1411.746,355.15
	l0.005-0.053l-0.003-0.03l0.033-0.022l0.04-0.017l0.098-0.025l0.031,0.031l0.021,0.03l0.007,0.035l-0.008,0.045l0.089-0.031
	l0.03-0.021l0.048,0.12l-0.027,0.078l-0.077,0.009l-0.102-0.094l-0.072,0.02l-0.102,0.003l-0.091-0.031l-0.034-0.083l0.081,0.06
	L1411.746,355.15z M1411.78,353.632l0.001,0.075l-0.104,0.02l-0.076-0.036l-0.045-0.07l-0.019-0.084v-0.08l0.014,0.008l0.023,0.018
	l0.014,0.008l0.116,0.055L1411.78,353.632z M1409.989,351.566l0.193,0.093l0.047,0.081l-0.004,0.088l-0.041,0.05l-0.066-0.042
	l-0.015-0.047l0.002-0.038l-0.006-0.03l-0.049-0.02l-0.038,0.008l-0.017,0.034l0.004,0.047l0.023,0.048l-0.074-0.013l-0.078,0.016
	l-0.084,0.003l-0.076-0.01l-0.054-0.023l0.071-0.115l0.11-0.1L1409.989,351.566z M1409.662,354.778l0.062,0.142l-0.053-0.045
	l-0.051-0.029l-0.052-0.01l-0.061,0.011l-0.152-0.057l-0.055-0.09l0.008-0.101l0.032-0.094l0.146,0.079l0.103,0.087
	L1409.662,354.778z M1409.383,353.14h0.105l0.104,0.012l0.098-0.009l0.063-0.049l0.055-0.06l0.072-0.04l0.101,0.002l0.106,0.018
	l0.08-0.014l0.02-0.095l0.067,0.057l0.065,0.031l0.063-0.001l0.06-0.042l-0.005,0.026l0.009,0.008l0.017,0.002l0.018,0.009
	l0.116,0.079l0.044,0.052l0.014,0.089l-0.027,0.066l-0.062,0.013l-0.176-0.038l0.017-0.018l0.02-0.011l-0.059-0.086l-0.054,0.01
	l-0.072,0.079l-0.078-0.016l-0.168-0.07l-0.091-0.008l-0.015,0.017l-0.027,0.065l-0.018,0.012l-0.048-0.006h-0.032l-0.023,0.007
	l-0.124,0.067l-0.097,0.083l0.024,0.016l0.024,0.021l0.022,0.013l-0.186,0l-0.029,0.043l-0.006,0.045l0.022,0.039l0.058,0.023
	l0.032,0.038l0.104,0.173l0.018,0.058l-0.058,0.051l-0.084-0.059l-0.129-0.144l-0.024-0.02l-0.04-0.074l-0.021-0.029l-0.035-0.016
	l-0.094-0.034l-0.036-0.028l-0.016-0.067l0.019-0.089l0.046-0.09l0.065-0.062l0.086-0.035L1409.383,353.14z M1409.239,352.009
	l0.001,0.037l-0.07,0.006l-0.084-0.032l-0.048-0.058l0.008-0.043l0.085,0.007l0.063,0.036L1409.239,352.009z M1409.148,351.481
	l0.15,0.018l0.034,0.015l0.013,0.041l-0.035,0.014l-0.053-0.001l-0.039-0.007l0.015,0.052l0.028,0.039l0.044,0.025l0.057,0.013
	l-0.057,0.102l-0.1,0.028l-0.106-0.024l-0.077-0.057l-0.063-0.093l-0.035-0.038l-0.041-0.03l-0.051-0.018l-0.096-0.004l-0.037-0.01
	l-0.087-0.068l0.017-0.033l0.082-0.012l0.205-0.003l0.082,0.011L1409.148,351.481z M1407.669,352.573l0.014-0.027l-0.01-0.047
	v-0.042l0.041-0.011l0.052,0.044l0.038,0.085l0.037,0.168l-0.07-0.012l-0.085,0.006l-0.062,0.045l-0.046,0.044l-0.039,0.002
	l-0.022-0.063l-0.005-0.106l0.009-0.144l0.104,0.051L1407.669,352.573z M1406.271,352.289l0.15,0.068l-0.043,0.03l0.027,0.014
	l0.022,0.016l0.024,0.014l0.033,0.009l-0.049,0.037l-0.097,0.054l-0.044,0.013l0.037,0.041l0.029,0.021l0.03,0.005l0.05-0.008
	l0.001,0.084l0.031,0.048l0.044-0.006l0.03-0.072l0.022,0.053l0.009,0.06l-0.003,0.059l-0.018,0.05l-0.028,0.052l-0.025-0.002
	l-0.083-0.017l0.02-0.046l-0.006-0.046l-0.03-0.047l-0.049-0.045l-0.05,0.007l-0.112-0.001l-0.043,0.011l-0.05-0.001l-0.035-0.052
	l-0.029-0.061l-0.025-0.032l-0.043,0.003l-0.021,0.021l-0.023,0.019h-0.062l-0.045-0.023l-0.049-0.08l-0.098-0.048l-0.016-0.037
	l-0.005-0.035l-0.013-0.021l-0.06-0.013l-0.105,0.013l-0.059-0.005l-0.109-0.043l-0.279-0.195l-0.236-0.065l-0.071-0.042
	l0.009-0.065l0.12-0.054l0.149-0.032l0.102-0.007l0.048,0.024l0.016,0.036l0.004,0.036l0.017,0.025l0.05,0.017l0.168,0.021
	l0.219,0.098l0.109,0.03l0.107-0.02l0.13,0.088L1406.271,352.289z M1404.52,356.047l0.056-0.004l-0.029,0.072l-0.021,0.022
	l-0.08,0.061l0.008-0.093L1404.52,356.047z M1404.809,350.731l0.042-0.02l0.054-0.008l0.065-0.002l0.058,0.003l0.162,0.033
	l0.151,0.073l0.413,0.055l0.067,0.028l0.079,0.084l0.067,0.028l0.073,0.007l0.131-0.001l0.072,0.006l-0.046,0.048l-0.104,0.061
	l-0.043,0.033l-0.023,0.049l-0.02,0.062l-0.029,0.053l-0.05,0.022l0.101,0.103l-0.018,0.045l-0.089,0.001l-0.115-0.032l0.028,0.043
	l-0.004,0.023l-0.026,0.012l-0.041,0.013l-0.106-0.053l-0.077,0.028l-0.054,0.054l-0.043,0.026l-0.153,0.033l-0.068-0.025
	l-0.013-0.12l-0.045,0.024l-0.087,0.075l-0.036,0.013l-0.069-0.023l-0.022-0.032l-0.008-0.036l-0.022-0.033l-0.009-0.024
	l-0.022-0.043l-0.024-0.018l-0.016,0.055l-0.003,0.053l-0.007,0.043l-0.022,0.03l-0.05,0.014l-0.018-0.118l0.05-0.214l-0.006-0.074
	l-0.022,0.013l-0.017,0.007l-0.04,0.004l0.005-0.064l0.049-0.134l-0.008-0.062l-0.027-0.121l0.009-0.065L1404.809,350.731z
	 M1404.916,353.215l0.11-0.009l-0.022-0.125l0.064,0.019l0.047,0.039l0.035,0.052l0.025,0.055l0.021-0.036l0.035-0.015l0.044,0.008
	l0.05,0.038l0.109-0.067l0.049-0.023l0.069-0.01l-0.084,0.109l-0.038,0.032l-0.035,0.004l-0.028,0.026l-0.124,0.053l-0.063,0.078
	l-0.04,0.018l-0.014-0.066l-0.047-0.027l-0.106-0.021l-0.102,0.014l-0.038,0.07l-0.134-0.047l-0.294,0.009l-0.119-0.092l0.199,0.045
	h0.059l0.034-0.021l0.121-0.108l0.072-0.024L1404.916,353.215z M1404.182,355.027l0.139-0.001l-0.004,0.021l-0.039,0.077
	l-0.126,0.019l-0.067-0.017l-0.13-0.127l0.049-0.042l0.053-0.011l0.052,0.021l0.05,0.049L1404.182,355.027z M1404.373,351.956
	l0.062,0.063l-0.007,0.06l-0.025,0.033l-0.136-0.022l-0.099-0.031l-0.029-0.05l0.072-0.084l0.074-0.008L1404.373,351.956z
	 M1404.043,352.012l0.015,0.042l-0.016,0.036l-0.157,0.068l-0.073-0.057l-0.028-0.087l0.021-0.039h0.051l0.104-0.013l0.044,0.013
	L1404.043,352.012z M1403.697,350.66l0.069-0.096l-0.023-0.095l0.046-0.068l0.146-0.119l0.064-0.182l0.052-0.075l0.079,0.018
	l-0.034-0.005l0.034,0.14l-0.016,0.29l0.037,0.11l0.072,0.094l0.063,0.11l0.032,0.106l-0.018,0.085l-0.164,0.045l-0.068,0.006
	l-0.074-0.009l-0.042-0.02l-0.075-0.061l-0.04-0.017l-0.055,0.001l-0.026,0.021l-0.02,0.03l-0.065,0.043l-0.018,0.02l-0.026,0.013
	l-0.055-0.003l-0.165-0.029l-0.165,0.011l-0.069-0.01l-0.058-0.05l0.059-0.022l0.137-0.114l0.155-0.076l0.177-0.048L1403.697,350.66
	z M1402.542,352.568l0.063,0.02l-0.023-0.052l-0.024-0.072v-0.063l0.044-0.02l0.224,0.026l0.051,0.021l-0.082,0.025l-0.067,0.053
	l-0.023,0.078l0.047,0.098l-0.017,0.026l-0.009,0.008l-0.009,0.006l-0.127,0.047l-0.108,0.08l-0.075,0.013l-0.096-0.031
	l-0.116-0.065l-0.099-0.082l-0.038-0.073l0.011-0.095l0.027-0.078l0.052-0.046l0.086-0.007l0.051,0.013l0.104,0.035l0.045,0.023
	l0.037,0.033l0.033,0.042L1402.542,352.568z M1401.665,352.422l0.024,0.048l-0.006,0.03l-0.017,0.031l-0.014,0.045l0.029,0.009
	l0.149,0.108l0.039,0.049l0.031,0.056l0.02,0.057l0.005,0.043l0.03,0.017l0.184,0.072l-0.096,0.029l-0.018,0.02l-0.09,0.004
	l-0.014,0.063l0.01,0.073l-0.028,0.043l-0.072-0.027l-0.051-0.071l-0.053-0.06l-0.073,0.013l0.047,0.073l0.022,0.025l0.032,0.022
	l-0.002,0.036l-0.149-0.035l-0.056-0.083l-0.025-0.11l-0.082-0.17l-0.003-0.055l0.022-0.024l0.049,0.038l0.045,0.057l0.032,0.027
	l0.033-0.002l0.051-0.034l-0.009-0.068l0.004-0.026l0.015-0.044l-0.057-0.008l-0.059-0.015l-0.046-0.024l-0.04-0.098l-0.058-0.038
	l-0.063-0.027l-0.031-0.022l0.031-0.068l0.097-0.036l0.115,0.003L1401.665,352.422z M1401.564,350.353l0.02,0.067l-0.03,0.063
	l-0.078,0.025l-0.354-0.132l-0.102-0.074l0.098-0.055l0.086,0.002l0.292,0.063L1401.564,350.353z M1400.996,351.376l0.039,0.119
	l-0.065,0.107l-0.06,0.021l-0.056-0.006l-0.137-0.044l-0.016-0.019l-0.003-0.035l-0.011-0.036l-0.037-0.024l-0.033-0.02l0.029-0.022
	l0.048-0.016h0.017l0.169-0.08L1400.996,351.376z M1400.56,353.399l0.114,0.079l-0.023-0.002l-0.015,0.006l-0.014,0.011l-0.02,0.01
	l-0.035,0.002l-0.007,0.008l-0.001,0.018l0.003,0.031l-0.039-0.007l-0.032-0.029l-0.019,0.011l-0.024,0.023l-0.048,0.006
	l-0.016-0.023l-0.021-0.05l-0.011-0.049l0.02-0.018l0.088-0.005l0.045-0.023L1400.56,353.399z M1400.68,350.734l0.229-0.081
	l-0.134-0.042l-0.165-0.072l-0.083-0.078l0.111-0.056l0.147,0.003l0.202,0.037l0.192,0.058l0.117,0.066l0.485,0.405l0.175,0.235
	l-0.08,0.226l-0.111-0.066l-0.027-0.026l-0.11-0.036l-0.212-0.107l-0.122-0.036h-0.05l-0.076,0.031l-0.069,0.009l-0.02,0.02h-0.028
	l-0.028-0.025l-0.026-0.043l-0.027-0.037l-0.036-0.002l-0.186,0.062l-0.242,0.015l-0.251-0.04l-0.211-0.104l0.09-0.07l0.09-0.255
	l0.104-0.072l0.048,0.008l0.222,0.075L1400.68,350.734z M1399.472,353.197l-0.002,0.055l-0.037,0.071l-0.107-0.01l-0.065-0.044
	v-0.056l0.089-0.042l0.083-0.003L1399.472,353.197z M1397.958,350.787l0.011-0.036l-0.023-0.038l-0.014-0.043l0.038-0.05
	l0.059-0.022l0.034,0.017l0.048,0.064l0.042,0.039l0.02,0.03l0.022,0.028l0.055,0.031l0.048,0.016l0.165,0.021l0.226-0.017
	l0.108,0.015l0.06,0.07l-0.106-0.014l-0.129,0.044l-0.091-0.019l-0.104,0.018l-0.335,0.008l-0.327,0.055l-0.109,0.004l-0.102-0.01
	l-0.234-0.055l-0.057-0.036l0.01-0.068l0.081-0.022l0.53-0.007L1397.958,350.787z M1394.197,351.956l-0.003,0.035l-0.086-0.002
	l-0.146-0.023l-0.128-0.044l-0.025-0.069l0.041-0.023l0.057,0.038l0.099,0.037L1394.197,351.956z M1390.737,374.058l0.051,0.114
	l-0.382-0.13l-0.065-0.029l-0.012-0.024l0.072-0.013l0.237,0.033L1390.737,374.058z M1386.749,371.565l0.06,0.085l-0.013,0.072
	l-0.061-0.07l-0.085-0.053l-0.074-0.07l-0.038-0.113l0.031,0.007l0.086,0.062L1386.749,371.565z M1385.241,351.603l0.065,0.034
	l-0.103,0.015l-0.348-0.031l0.032-0.021l0.03-0.014l0.036-0.006h0.041l0.082-0.021l0.084,0.013L1385.241,351.603z M1382.544,365.115
	l0.013,0.131l-0.055,0.138l-0.075,0.098l-0.035-0.007l-0.061-0.112l-0.092-0.091l-0.202-0.146l-0.175-0.17l-0.067-0.097l0.072-0.008
	v0.001l0.08,0.007l0.139-0.017l0.064,0.003l0.065,0.034l0.142,0.121L1382.544,365.115z M1382.131,366.987l-0.004,0.036l-0.038-0.008
	l-0.12-0.099h-0.185l-0.33,0.063l-0.155-0.071l-0.075-0.153l-0.062-0.191l-0.11-0.185l-0.078-0.07l-0.155-0.108l-0.061-0.051
	l-0.13-0.18l-0.337-0.381l-0.105-0.177l0.13-0.068l0.256,0.028l0.247,0.116l0.224,0.173l0.289,0.311l0.036,0.058l0.031,0.086
	l0.061,0.284l0.038,0.083l0.022,0.035l0.041,0.008l0.048,0.004l0.032,0.012l0.058,0.063l0.076,0.126l0.058,0.061l0.081-0.004
	l0.075,0.056L1382.131,366.987z M1381.655,351.425l0.104,0.133l-0.063,0.136l-0.224-0.01l-0.082,0.039l-0.176,0.161l-0.153-0.076
	l-0.04-0.072l-0.109-0.03l-0.128-0.001l-0.1,0.018l-0.093,0.042l-0.058,0.017l-0.063,0.001l-0.031-0.024l-0.021-0.036l-0.028-0.022
	l-0.055,0.021l-0.061-0.061l-0.046-0.085l-0.027-0.091l-0.007-0.079l0.109-0.178l0.042-0.105l0.021-0.097l0.098,0.001l0.091,0.012
	l0.144,0.128l0.078,0.019l0.194,0.021l0.104,0.028l0.054,0.037l0.037,0.037l0.042,0.035l0.066,0.026l0.044,0.002l0.18,0.05
	L1381.655,351.425z M1366.582,367.128l0.018-0.112v-0.17l0.039-0.025l0.121,0.016l0.143,0.061l0.055,0.015l0.061,0.001l0.117-0.018
	l0.049,0.001l0.117,0.042l0.105,0.068l0.085,0.092l0.054,0.112l0.002,0.089l-0.019,0.118l-0.037,0.102l-0.041,0.038l-0.064,0.011
	l-0.067,0.043l-0.11,0.095l-0.599,0.333l-0.045,0.013l-0.131,0.013l0.021-0.447l-0.029-0.117l-0.065-0.07l-0.02-0.055l0.115-0.072
	l0.093-0.083l0.019-0.043L1366.582,367.128z M1363.622,365.886l0.088-0.063l-0.029-0.086l-0.002-0.104l0.03-0.1l0.066-0.077
	l0.078-0.071l0.128-0.158l0.084-0.05l0.07,0.001l0.103,0.029l0.087,0.051l0.033,0.064l0.022,0.072l0.135,0.141l0.053,0.091
	l0.011,0.011l0.008,0.019l0.004,0.03l-0.014,0.025l-0.026,0.006l-0.028,0.003l-0.01,0.017l0.022,0.065l0.039,0.008l0.045-0.007
	l0.039,0.017l0.015,0.041l-0.003,0.054l-0.017,0.102l-0.002,0.101l-0.013,0.026l-0.046,0.044l-0.066,0.042l-0.183,0.074l-0.06,0.008
	l-0.053-0.001l-0.065,0.033l-0.058-0.001l-0.013,0.001l-0.012,0.008l-0.017,0.009l-0.029-0.002l-0.019-0.015l0.005-0.024v-0.023
	l-0.03-0.013l-0.082,0.018l-0.049,0.058l-0.068,0.144l-0.053,0.057l-0.06,0.036l-0.18,0.042v-0.05l-0.017-0.025l-0.034-0.003
	l-0.047,0.021l-0.203-0.235l0.002-0.042l0.014-0.035l0.021-0.085l0.015-0.033l0.041-0.035l0.041-0.015l0.04-0.01l0.044-0.02
	L1363.622,365.886z M1362.112,366.917l0.075,0.047l-0.243,0.211l-0.119,0.05l-0.554,0.037l-0.16-0.017l0.02-0.089l0.077-0.081
	l0.055-0.039l0.048-0.027l0.031-0.007l0.044-0.021l0.047-0.057l0.059-0.055l0.077-0.015l0.225,0.071l0.091,0.001l0.154-0.02
	L1362.112,366.917z M1361.485,369.157l-0.004,0.03l-0.094,0.004l-0.215-0.028l-0.086,0.015l-0.099,0.043l-0.569,0.166l-0.083-0.003
	l-0.026,0.007l-0.023,0.021l-0.029,0.017l-0.049-0.008l-0.045-0.026l-0.018-0.028l0.011-0.026l0.035-0.023l0.062-0.069l0.042-0.022
	l0.043-0.016l0.045-0.009l0.047,0.004h0.073l0.597-0.089l0.177,0.005L1361.485,369.157z M1323.939,340.887l0.072-0.085l-0.058-0.124
	l-0.041-0.13l0.121-0.1l0.498-0.078l0.149-0.078l0.057-0.124l-0.082-0.271l0.089-0.144l0.281-0.146l0.101-0.123l0.062-0.048
	l0.073,0.009l0.123,0.059l0.049-0.018l0.048-0.159l0.05-0.063l0.288-0.226l0.016-0.012l0.079-0.021l0.085,0.011l0.401,0.093
	l0.091,0.033l0.092,0.063l0.054-0.017l0.098-0.132l0.076-0.056l0.082-0.033l0.066,0.013l0.028,0.088l0.038,0.076l0.083-0.01
	l0.091-0.053l0.106-0.124l0.046-0.009l0.059,0.02l0.089,0.017l0.044-0.01l0.026-0.021l0.028-0.008l0.102,0.059l0.043-0.003
	l0.23-0.101l0.154-0.042l0.362-0.025l0.162-0.052l0.08-0.128l-0.021-0.151l-0.096-0.098l-0.136-0.063l-0.145-0.046l-0.167-0.025
	l-0.083-0.026l-0.033-0.048l0.021-0.045l0.136-0.195l0.071-0.062l-0.042-0.132l0.073-0.076l0.188-0.056l0.061-0.048l0.01-0.106
	l-0.02-0.054l-0.026-0.043l-0.02-0.042l0.003-0.05l0.027-0.032l0.049-0.033l0.054-0.025l0.042-0.015l0.096,0.006l0.176,0.074
	l0.184,0.042l0.402,0.043l0.048-0.004l0.016-0.024l0.005-0.03l0.022-0.022l0.148-0.019l0.147,0.04l0.289,0.149l0.129,0.049
	l0.145,0.029l0.301,0.008l0.084-0.023l0.032-0.042l0.026-0.052l0.07-0.052l0.094-0.01l0.075,0.038l0.072,0.059l0.081,0.047
	l0.408-0.028l0.042,0.004l0.044,0.021l0.062,0.071l0.046,0.026h0.09l0.158-0.076l0.088-0.019l0.092,0.021l0.159,0.089l0.093,0.026
	l0.154-0.035l0.039,0.002l0.037,0.009l0.039,0.005l0.046-0.007l0.099-0.004l0.082,0.043l0.14,0.11l0.149,0.055l0.587,0.115
	l0.085,0.031l0.081,0.039l0.071,0.053l0.171,0.198l0.092,0.051l0.083,0.035l0.076,0.022l0.047-0.018l-0.005-0.085l0.045-0.029
	l0.231-0.065l0.075-0.004l0.041,0.029l0.021,0.037l0.022,0.029l0.096,0.015l0.033,0.031l0.104,0.172l-0.002,0.058l-0.057,0.018
	l-0.162-0.033l-0.01,0.025l0.018,0.076l0.02,0.17l0.041,0.061l0.065,0.031l0.08,0.006l0.081-0.014l0.172-0.05l0.085-0.005
	l0.101,0.024l0.062-0.019l0.013-0.041l-0.003-0.05l0.021-0.047l0.047-0.031l0.222-0.102l0.092-0.023l0.021-0.018l0.026-0.048
	l0.029-0.016l0.059-0.001l0.061,0.02l0.054,0.032l0.041,0.036l0.14,0.245l0.019,0.071l-0.011,0.039l-0.024,0.036l-0.062,0.112
	l-0.09,0.082l-0.03,0.048l-0.007,0.073l0.028,0.054l0.101,0.117l0.044,0.064l0.071,0.05l0.149,0.082l0.03,0.036l0.02,0.035
	l0.027,0.031l0.052,0.018l0.057,0.011l0.035,0.019l0.174,0.192l0.055,0.033l0.194,0.088l0.062,0.053l0.043,0.07l0.032,0.094
	l0.02,0.1l-0.017,0.052l-0.137,0.102l-0.042,0.057l-0.164,0.323l0.002,0.043l0.056,0.017l0.223,0.035l0.069,0.034l0.05,0.057
	l0.062,0.089l0.027,0.026l0.029,0.007l0.124-0.001l0.042-0.01l0.046-0.005l0.173,0.037l0.066,0.004l0.031,0.021l0.004,0.079
	l0.037,0.068l0.092,0.073l0.184,0.107l0.044,0.057l0.063,0.188l0.038,0.076l0.221,0.236l0.039,0.097l-0.003,0.09l-0.042,0.036
	l-0.067,0.019l-0.081,0.035l-0.102,0.14l0.098,0.115l0.349,0.166l0.193,0.134l0.097,0.089l0.043,0.076l0.015,0.082l0.039,0.024
	l0.169,0.006l0.313,0.064l0.154,0.006l0.146-0.042l0.144-0.134l0.078-0.038l0.088,0.049l0.028,0.078l-0.012,0.093l-0.054,0.167
	l0.004,0.097l0.048,0.102l0.118,0.188l0.153,0.323v0.001l0.098,0.032l0.583,0.08l0.61,0.219l0.105,0.022l0.04-0.021l-0.007-0.354
	l0.011-0.102l0.021-0.063l0.037-0.026l0.047-0.014l0.05-0.004h0.047l0.059-0.012l0.066-0.069l0.051-0.022l0.099,0.012l0.018,0.07
	l-0.002,0.09l0.041,0.074l0.122-0.005l0.153-0.295l0.17,0.005l0.031,0.03l0.021,0.036l0.028,0.034l0.048,0.021l0.056-0.003
	l0.089-0.045l0.05-0.01l0.108,0.033l0.096,0.071l0.739,0.972l0.098-0.055l0.095-0.157l0.134-0.139l0.04-0.017l0.045-0.01
	l0.092-0.005l-0.071-0.067l-0.019-0.049l-0.013-0.039l-0.019-0.097l-0.027-0.091l-0.19-0.26l-0.046-0.093l-0.02-0.099l0.001-0.064
	l-0.009-0.062l-0.054-0.09l-0.175-0.208l-0.031-0.064l-0.251-0.984l-0.038-0.34l0.024-0.16l0.118-0.301l0.021-0.159l-0.016-0.075
	l-0.063-0.148l-0.018-0.076l0.01-0.169l0.031-0.167l0.045-0.117l0.146-0.148l0.067-0.106l0.037-0.059l-0.027-0.057l-0.013-0.069
	l-0.047-0.13l-0.008-0.179l-0.049-0.159l0.015-0.438l-0.026-0.167l-0.025-0.049l0.011-0.003l0.136-0.005l0.133,0.097l0.216,0.429
	l0.153,0.237l0.022,0.08l0.016,0.086l0.022,0.076l0.036,0.026l0.04-0.024l0.08-0.024l0.039,0.014l0.11,0.054l0.06,0.012l0.344,0.027
	l0.035,0.02l0.022,0.024l0.03,0.004l0.049-0.043l0.018-0.038l0.011-0.1l0.058-0.12l0.048-0.165l0.059-0.057l0.073-0.013l0.232,0.034
	l0.083-0.02l0.302-0.13l0.024-0.024l0.027-0.002l0.06,0.041l0.028,0.035l0.097,0.221l0.045,0.06l0.063,0.025l0.25-0.041l0.036-0.037
	l-0.018-0.091l0.008-0.08l0.07-0.055l0.1-0.034l0.19-0.03l0.093,0.004l0.087,0.023l0.08,0.049l0.02,0.04l0.013,0.053l0.021,0.042
	l0.047,0.007l0.015-0.029l0.014-0.155l0.127-0.041l0.369,0.283l0.152,0.031l0.069-0.314l0.064-0.152l0.02-0.082l-0.001-0.083
	l0.016-0.072l0.068-0.018l0.092-0.012l0.09-0.054l0.046-0.079l0.01-0.074l-0.004-0.166l0.009-0.037l0.046-0.103l0.014-0.062
	l0.008-0.016l0.002-0.01v-0.04l0.019-0.02l0.086,0.012l0.032-0.006l0.029-0.028l0.023-0.026l0.006-0.035l-0.02-0.053l-0.069-0.104
	l-0.018-0.043l-0.01-0.082l-0.036-0.046l-0.07-0.046l-0.059-0.062l-0.005-0.087l0.057-0.065l0.188-0.101l0.072-0.085l0.046-0.319
	l0.045-0.058l0.065,0.002l0.068,0.026l0.076,0.017l0.081-0.023l0.229-0.119l0.107,0.001l0.071,0.111l-0.021,0.13l-0.148,0.215
	l0.02,0.075l0.053,0.018l0.211,0.008l0.08,0.023l0.067,0.059l0.118,0.127l0.169,0.114l0.027,0.041l0.01,0.055l0.015,0.052
	l0.025,0.048l0.037,0.045l0.118,0.021l0.539-0.121l0.101,0.006l0.152,0.07l0.092,0.028l0.048-0.003l0.084-0.029l0.05,0l0.052,0.028
	l0.048,0.044l0.255,0.316l0.069,0.186l0.059,0.034l0.035-0.008l0.035-0.019l0.059,0.001l0.055,0.029l0.084,0.093l0.05,0.041
	l0.222,0.09l0.071,0.041l0.175,0.174l0.09,0.046l0.082-0.056l0.057,0.144l0.11-0.079l0.112-0.184l0.064-0.169l0.068-0.329
	l0.001-0.154l-0.083-0.279l-0.002-0.061l0.116-0.208l0.011-0.063v-0.15l0.146-0.393l0.025-0.035l0.042-0.028l0.085-0.027
	l0.028-0.015l0.055-0.08l-0.032-0.048l-0.062-0.055l-0.035-0.093l0.024-0.063l0.163-0.242l0.034-0.029l0.04-0.02l0.026-0.029
	l-0.002-0.057l-0.031-0.04l-0.093-0.018l-0.035-0.03l-0.006-0.084l0.092-0.318l0.057,0.042l0.064,0.012l0.063-0.014l0.054-0.038
	l0.158-0.043l0.175,0.073l0.324,0.205l0.104,0.027l0.081-0.006l0.172-0.048l0.267-0.007l0.081-0.034l0.103-0.143l0.044-0.37
	l0.067-0.158l0.06-0.055l0.038-0.029l0.028-0.01l0.042,0.018l0.012,0.035l0.004,0.045l0.021,0.049l0.06,0.061l0.074,0.052
	l0.077,0.039l0.066,0.023l0.078,0.01l0.104-0.001l0.1-0.017l0.064-0.036l0.07-0.081l0.229-0.115l0.051-0.102l-0.021-0.05
	l-0.097-0.157l-0.029-0.066l-0.037-0.143l-0.032-0.068l-0.051-0.063l0,0l-0.001-0.001l0,0l-0.076-0.066l-0.048-0.059l-0.022-0.071
	l0.002-0.093l0.027-0.085l0.048-0.062l0.123-0.114l0.082-0.009l0.072-0.03l0.046-0.051l-0.001-0.077l-0.015-0.103l0.062-0.207
	l0.002-0.113l-0.046-0.226l-0.04-0.112l-0.065-0.078h-0.002v-0.001l0,0l-0.081-0.198l-0.229-0.265l-0.246-0.214l-0.132-0.185
	l-0.075-0.197l-0.087-0.436l-0.026-0.084l-0.138-0.239l-0.038-0.06l-0.029-0.063l-0.016-0.064l0.046-0.151l0.075-0.016l0.23,0.021
	l0.052-0.03l0.042-0.05l0.091-0.041l0.099-0.018l0.067,0.019l0.056-0.024l0.053,0.035l0.062,0.052l0.084,0.027l0.072-0.01
	l0.086,0.003l0.068,0.026l0.023,0.065l0.447,0.676l0.177,0.436l0.016,0.063l0.139,0.168l0.035,0.054l0.054,0.169l0.004,0.1
	l-0.039,0.081l-0.027,0.029l-0.018,0.034l-0.013,0.038l-0.006,0.04l0.009,0.059l0.036,0.021l0.052,0.005l0.056,0.014l0.557,0.222
	l0.4,0.288l0.067,0.064l0.04,0.088l0.024,0.203l0.028,0.085l0.135-0.034l0.037-0.001l0.03,0.027l0.048,0.09l0.021,0.021l0.101,0.024
	l0.188,0.069l0.093,0.023l0.066-0.072l-0.033-0.399l0.038-0.122l0.03,0.004l0.098,0.128l0.057,0.091l0.027,0.043l0.062,0.142
	l0.035,0.149l-0.007,0.102l-0.07,0.178l-0.099,0.372l0.009,0.085l0.056,0.069l0.069,0.051l0.06,0.064l0.035,0.181l0.056,0.078
	l0.131,0.134l0.095,0.136l0.053,0.053l0.077,0.03l0.058,0.031l0.132,0.119l0.073,0.043l0.062,0.009l0.119,0.076l0.159,0.072
	l0.416,0.121l0.144,0.064l0.101,0.024l0.083,0.032l0.062,0.054l0.055,0.059l0.064,0.022l0.063,0.007l0.082,0.005l-0.143,0.174
	l-0.056,0.027l-0.047,0.016l-0.043,0.022l-0.042,0.052l-0.02,0.062l-0.003,0.051l-0.021,0.045l-0.07,0.042l-0.042,0.037l-0.044,0.01
	l-0.048,0.003l-0.044,0.021l-0.041,0.04l-0.006,0.021l0.008,0.022l0.014,0.246l0.024,0.104l0.045,0.088l0.068,0.062l0.167,0.085
	l0.072,0.052l0.063,0.086l0.021,0.081l-0.018,0.18l0.007,0.093l0.056,0.176l0.007,0.087l-0.013,0.042l-0.054,0.06l-0.021,0.037
	l-0.009,0.045l0.005,0.083l-0.007,0.042l-0.146,0.322l-0.173,0.191l-0.03,0.059l0.024,0.091l0.083-0.028l0.189-0.135l0.092-0.023
	l0.281-0.006l0.172-0.119l0.079-0.019l0.117,0.042l0.077,0.059l0.004,0.008l0.024,0.046l0.022,0.056l0.057,0.068l0.111,0.167
	l0.117,0.562l0.006,0.116l-0.054,0.083l-0.163,0.149l-0.044,0.072l-0.072,0.174l-0.017,0.085l0.009,0.186l0.061,0.21l0.108,0.185
	l0.153,0.114l0.323,0.103l0.048,0.003l0.089-0.012l0.045,0.004l0.021,0.015l0.024,0.025l0.03,0.027l0.049,0.017l0.116,0.004
	l0.092-0.007l0.091,0.01l0.115,0.055l0.098,0.076l0.048,0.071l0.053,0.185l0.104,0.18l0.008,0.073l-0.141,0.064l-0.059,0.047
	l-0.051,0.056l-0.075,0.124l0.181,0.297l0.02,0.091l0.021,0.408l0.027,0.084l0.034,0.044l0.092,0.094l0.02,0.038l0.01,0.104
	l0.025,0.096l0.038,0.054l0.032,0.012l0.004,0.019l-0.044,0.071l-0.043,0.04l-0.049,0.027l-0.031,0.034v0.05v0.015l0.068,0.171
	l-0.015,0.205l-0.041,0.207l-0.016,0.182l0.076,0.218l0.014,0.117l-0.068,0.073l-0.051,0.002l-0.098-0.023l-0.05,0.013l-0.021,0.03
	l-0.064,0.144l-0.183,0.15l-0.063,0.084l0.008,0.119l-0.025,0.055l-0.086,0.042l-0.073,0.055l0.013,0.099l0.063,0.042l0.308,0.115
	l0.088,0.01l0.178-0.006l0.085,0.017l0.058,0.034l0.01,0.04l-0.006,0.044l0.01,0.052l0.032,0.045l0.073,0.08l0.028,0.042
	l0.114,0.307l0.003,0.078l0.004,0.094l0.055,0.05l0.088,0.02l0.097,0.008l0.063-0.004l0.024-0.013l0.027,0.002l0.067,0.042
	l0.048,0.048l0.118,0.175l0.193,0.188l0.033,0.003l0.098-0.018l0.049,0.002l0.119-0.008l0.097-0.047l0.087-0.026l0.092,0.052
	l0.013,0.047l-0.009,0.05l0.003,0.043l0.05,0.028l0.046-0.018l0.112-0.104l0.049-0.032l0.095-0.018l0.087,0.004l0.377,0.087
	l0.066,0.042l0.067,0.078l0.191,0.323l0.085,0.065l0.184,0.063l0.072,0.046l0.063,0.077l0.06,0.108l0.042,0.056l0.061-0.008
	l0.113-0.084l0.094-0.094l0.058-0.04l0.062-0.008l0.126,0.04l0.04,0.003l0.187-0.024l0.087,0.001l0.108,0.018l0.183,0.01
	l0.198-0.018l0.201,0.003l0.192,0.071l0.052,0.038l0.009,0.016l-0.009,0.021l0.04,0.229l-0.031,0.242l0.021,0.095l0.183,0.358
	l0.069,0.194l-0.028,0.214l0.01,0.117l-0.012,0.048l-0.037,0.044l-0.035,0.014l-0.042,0.006l-0.16,0.066l-0.031,0.036l-0.008,0.032
	l-0.021,0.097l0.058-0.019l0.104-0.081l0.097-0.035l0.074-0.006l0.234-0.064l0.196-0.083l0.109,0.004l0.112,0.019l0.123-0.005
	l0.114-0.044l0.103-0.075l0.087-0.085l0.063-0.083l-0.031-0.049l-0.034-0.026l-0.227-0.128l-0.011-0.01l-0.007-0.055l0.12-0.217
	l0.039-0.052l0.076-0.015l0.09,0.019l0.072,0.048l0.024,0.074l0.044,0.022l0.107-0.033l0.356-0.176l0.034-0.012h0.028l0.042,0.007
	l0.059,0.001l0.095-0.027l0.054,0l0.028,0.009l0.045,0.029l0.023,0.009h0.043l0.005-0.016l-0.003-0.021l0.015-0.017l0.037-0.058
	l0.021-0.006l0.061-0.003l0.173-0.038l0.026-0.016l0.028-0.009l0.059-0.011h0.059l0.024,0.019l0.013,0.018l0.074,0.143l0.221,0.172
	l0.07,0.042l0.238-0.021l0.004,0.109l0.071-0.025l0.055-0.048l0.062-0.036l0.068-0.01l0.06-0.016l0.107-0.095l0.055-0.031h0.051
	l0.057,0.009l0.063,0.004l0.07-0.017l0.064-0.033l0.672-0.536l0.125-0.1l0.052-0.06l0.064-0.101l0.034-0.043l0.052-0.033
	l0.076-0.007l0.173-0.074l0.146-0.022l0.07-0.021l0.073-0.049l0.037-0.058l0.031-0.064l0.041-0.048l0.071-0.015l0.061,0.013
	l0.103,0.035l0.064,0.001l0.051-0.029l0.423-0.329l0.05-0.066l0.081-0.076l0.257-0.121l0.085-0.093l0.04,0.045l0.054,0.031
	l0.043-0.002l0.012-0.122l0.039,0.003l0.042,0.031l0.016,0.021l0.117-0.043l0.068-0.052l0.033-0.077l0.024-0.227l0.037-0.089
	l0.063-0.074l0.093-0.07l0.081-0.036l0.168-0.051l0.069-0.039l0.068-0.016l0.083,0.013l0.073-0.005l0.041-0.067l0.035-0.038
	l0.07-0.019l0.144-0.017l-0.048,0.051l-0.02,0.05l0.021,0.041l0.068,0.024l0.062-0.009l0.03-0.038l0.022-0.042l0.044-0.028
	l0.053,0.023l0.057,0.067l0.042,0.084l0.015,0.071l0.077,0.07l0.092,0.054l0.089,0.006l0.122-0.12l0.059-0.014l0.138-0.01
	l0.101-0.049l0.129-0.142l0.098-0.053l0.053-0.011l0.045-0.001l0.045,0.01l0.051,0.024l0.055,0.008l0.054-0.02l0.415-0.219
	l0.092-0.023l0.053,0.016l0.1,0.065l0.055,0.003l0.15-0.036l0.364-0.007l0.077-0.017l0.072-0.079l-0.052-0.084l-0.203-0.176
	l-0.206-0.321l-0.113-0.082l-0.202-0.074l-0.077-0.051l-0.075-0.112l0.171,0.011l0.096-0.073l0.081-0.096l0.129-0.061l0.091,0.012
	l0.213,0.083l0.224,0.06l0.076,0.037l0.148,0.157l0.086,0.074l0.096,0.046l0.105,0.027l0.116,0.017l0.042,0.028l0.116,0.132
	l0.027,0.046l0.004,0.074l-0.025,0.029l-0.037,0.02l-0.03,0.051l-0.062,0.281l-0.005,0.083l0.041,0.106l0.08,0.054l0.098,0.046
	l0.093,0.083l0.04,0.06l0.018,0.038l0.003,0.041l-0.005,0.062l-0.02,0.044l-0.031,0.053l-0.013,0.055l0.037,0.048l0.068-0.003
	l0.197-0.095l0.102-0.016l0.089,0.03l0.19,0.091l0.12,0.017l0.213,0.002l0.091,0.025l0.492,0.234l0.116,0.034l0.188,0.013
	l0.083,0.006l0.287,0.059l0.758,0.016l0.255,0.035l0.232,0.083l0.139,0.15l-0.11-0.003l-0.086,0.057l-0.065,0.087l-0.051,0.089
	l0.042,0.099l0.023,0.081l0.025,0.177l0.02,0.035l0.039,0.01l0.088-0.005l0.044,0.014l0.026,0.03l0.021,0.047l0.005,0.006
	l0.018,0.015l0.024,0.016l0.026,0.012l0.013-0.011l0.021-0.025l0.025-0.025l0.03-0.007l0.076,0.014l0.033,0.018l0.008,0.035
	l-0.035,0.066l-0.116,0.145l-0.04,0.08l-0.027,0.105l0.008,0.061l0.235,0.21l0.065,0.083l0.033,0.091l-0.005,0.036l-0.02,0.144
	l0.06,0.007h0.002l0.081-0.019l0.073-0.017l0.092,0.04l0.169,0.13l0.097,0.039l0.123-0.015l0,0l0.169-0.119h0.001l0.113-0.006
	l0.051,0.024l0.042,0.034l0.047,0.028l0.04,0.008l0.026,0.005l0.054-0.01l0.182-0.064l0.114-0.013l0.184,0.037l0.106,0.01
	l0.028-0.009l0.048-0.044l0.034-0.009l0.024,0.006l0.072,0.029l0.103-0.021l0.448-0.185l0.623-0.479l0.105-0.045l0.114-0.022
	l0.125-0.005l0.074-0.023l0.029-0.055l0.038-0.056l0.735-0.213l0.304-0.168l0.043-0.033l0.049-0.056l0.017-0.031l0.023-0.071
	l0.02-0.033l0.034-0.025l0.089-0.046l0.028-0.029l0.008-0.073l-0.017-0.059l0.011-0.045l0.246-0.075l0.129-0.088l0.49-0.494
	l0.055-0.095l0.044-0.11l0.063-0.074l0.086-0.035l0.117,0.008l0.097-0.009l0.203-0.122l0.102-0.042l0.116-0.03l0.063-0.034
	l0.128-0.131l0.032-0.017l0.079-0.011l0.032-0.014l0.016-0.023l0.024-0.063l0.017-0.02l0.045-0.018l0.035-0.005l0.039,0.008
	l0.061,0.021l0.09,0.014l0.25-0.015l0.085-0.023l0.168-0.13l0.046-0.02l0.048-0.021l0.135,0.021l0.116,0.035l0.434,0.06l0.812-0.042
	l0.101,0.011l0.256,0.068h0.101l0.051,0.008l0.053,0.029l0.041,0.036l0.047,0.027l0.071,0.009l0.198-0.029l0.107-0.003l0.088,0.029
	l0.004,0.004l0.058,0.077l0.009,0.196l0.031,0.098l0.083,0.073l0.102,0.017l0.117,0.003l0.129,0.036l0.12,0.062l0.114,0.046
	l0.106-0.007l0.096-0.093l0.06-0.074l0.09-0.077l0.105-0.05l0.103,0.005l0.058,0.03l0.044,0.033l0.047,0.026l0.067,0.017
	l0.049-0.003l0.162-0.037l0.162,0.009l0.053-0.008l0.06-0.03l0.104-0.08l0.063-0.027l0.107-0.001l0.101,0.022l0.093,0.011
	l0.095-0.036l0.025-0.04l0.025-0.109l0.038-0.045l0.05-0.014l0.105,0.006l0.043-0.01l0.032-0.041l0.041-0.108l0.042-0.03
	l0.058-0.022l0.055-0.04l0.05-0.046l0.155-0.218l0.075-0.034h0.049l0.081,0.001l0.111,0.019l0.114,0.033l0.055,0.027l0.11,0.071
	l0.052,0.021l0.108-0.003l0.218-0.077l0.118-0.015l0.292,0.034h0.102l0.065-0.017l0.101-0.06l0.061-0.024l0.058-0.004l0.095,0.028
	l0.056,0.005l0.057-0.01l0.107-0.036l0.054-0.01l0.071,0.021l0.045,0.047l0.039,0.054l0.049,0.034l0.095-0.002l0.022-0.066
	l-0.079-0.291l0.001-0.05l0.024-0.041l0.047-0.012l0.048,0.019l0.053,0.03l0.06,0.018l0.245,0.118l0.145,0.039l0.08-0.066
	l0.038-0.088l0.069-0.057l0.092-0.019l0.107,0.022l0.207,0.11l0.108,0.034l0.119-0.017l0.084-0.048l0.088-0.075l0.068-0.084
	l0.03-0.079l0.052-0.002l0.348,0.127l0.123,0.062l0.434,0.389l0.048,0.066l0.001,0.207l0.017,0.117l0.05,0.09l0.085,0.06
	l0.124,0.027l0.215,0.025l0.089,0.032l0.103,0.063l0.084,0.075l0.146,0.167l0.083,0.061l0.13,0.048l0.093,0.022l0.087,0.045
	l0.204,0.223l0.08,0.066l0.211,0.11l0.115,0.079l0.195,0.193l0.117,0.083l0.47,0.228l0.042,0.042l0.032,0.112l0.026,0.054
	l0.049,0.045l0.107,0.064l0.051,0.041l0.041,0.061l0.03,0.044l0.098,0.217l0.084,0.096l0.047,0.03l0.159,0.071l0.063,0.053
	l-0.005,0.048l-0.031,0.048l-0.021,0.054l-0.015,0.062l-0.015,0.023l0.006,0.021l0.049,0.054l0.045,0.036l0.055,0.029l0.058,0.022
	l0.056,0.012h0.065l0.112-0.022l0.08,0.012l0.107,0.037l0.041,0.028l0.042,0.045l0.004,0.024l0.073,0.191l-0.005,0.054l-0.024,0.039
	l-0.015,0.046l0.027,0.072l0.049,0.05l0.057,0.032l0.052,0.028l0.045,0.044l0.01,0.038l0.001,0.108l0.013,0.05l0.086,0.111
	l0.301,0.273l0.119,0.071l0.23,0.083l0.07-0.006l0.094-0.082l0.06-0.023l0.345-0.013l0.109,0.022l0.203,0.105l0.273,0.098
	l0.324,0.151l0.016,0.04l0.021,0.029l0.03,0.024l0.132,0.084l0.267,0.126l0.211,0.07l0.081,0.06l0.119,0.133l0.161,0.133l0.602,0.38
	l0.21,0.185l0.076,0.102l-0.056,0.03l-0.052,0.001l-0.082,0.033l-0.044,0.009l-0.055-0.004l-0.112-0.026l-0.055-0.006l-0.178,0.001
	l-0.248-0.038l-0.183,0.072l-0.062,0.005l-0.041-0.002l-0.035-0.012l-0.217-0.123l-0.089-0.039l-0.249-0.067l-0.191-0.09
	l-0.114-0.02l-0.324,0.027l-0.166,0.063l-0.11-0.015l-0.229-0.076l-0.229-0.013l-0.406,0.094l-0.232-0.018l-0.23-0.041l-0.074-0.034
	l-0.025-0.071l0.023-0.106l0.051-0.056l0.167-0.061l-0.059-0.062l-0.077-0.011l-0.075,0.024l-0.05,0.042l-0.029-0.064l0.012-0.055
	l0.043-0.046l0.061-0.035l-0.084-0.048l-0.146-0.063l-0.061-0.038l-0.122-0.107l-0.075-0.027l-0.097,0.015l0.008-0.052l-0.01-0.046
	l-0.022-0.045l-0.04-0.041l-0.023,0.05l-0.02,0.121l-0.025,0.042l-0.035,0.017l-0.043,0.007l-0.036-0.02l-0.034-0.168l-0.062-0.067
	l-0.06-0.056l-0.025-0.075l0.012-0.022l0.052-0.046l0.018-0.044l-0.016-0.012l-0.022-0.075l-0.011-0.075l0.02-0.011l-0.062-0.041
	l-0.094-0.038l-0.1-0.021l-0.074,0.012l-0.032-0.043l-0.052,0.023l-0.074,0.076l-0.033,0.013l-0.061-0.024l-0.025-0.032
	l-0.012-0.039l-0.023-0.045l-0.065-0.042l-0.076,0.008l-0.096,0.022h-0.117l0.022,0.094l-0.046,0.056l-0.175,0.062l-0.049-0.232
	l-0.062-0.118l-0.104-0.063l-0.167-0.029l-0.15-0.089l-0.111-0.045l-0.032-0.036l-0.029-0.017l-0.095,0.049l-0.26,0.056
	l-0.091,0.008l-0.093-0.012l-0.094-0.045l0.024,0.127l-0.049,0.015l-0.186-0.074l-0.104-0.062l-0.031-0.106l-0.007-0.198
	l-0.076,0.033l-0.209-0.023l-0.088,0.03l-0.016,0.043l0.033,0.088l-0.028,0.039l-0.051,0.003l-0.086-0.054l-0.048,0.02l-0.083-0.082
	l-0.082-0.026l-0.192-0.018l-0.091-0.027l-0.12-0.051l-0.086-0.067l0.014-0.078l-0.031-0.065l0.02-0.035l0.037-0.03l0.021-0.051
	l-0.019-0.06l-0.051-0.017l-0.062-0.007l-0.048-0.03l-0.007-0.066l0.021-0.091l0.038-0.086l0.042-0.053l0.002-0.034l-0.158,0.048
	l-0.096,0.343l-0.106,0.091l-0.127-0.057l-0.116-0.129l-0.118-0.087l-0.141,0.06l0.095-0.02l0.062,0.039l0.04,0.056l0.058,0.055
	l0.208,0.151l0.003,0.034l-0.014,0.084l0.021,0.02l0.01,0.015l0.062,0.071l0.014,0.015l0.023,0.061l0.063,0.027l0.077,0.017
	l0.064,0.037l0.055,0.061l0.019,0.045l-0.017,0.048l-0.09,0.117l-0.133,0.132l-0.042,0.025l-0.055-0.001l-0.066,0.016l-0.044-0.008
	l-0.039-0.019l-0.102-0.077l-0.02-0.031l0.008-0.027l-0.003-0.016l-0.058-0.003l-0.009,0.135l-0.114-0.098l-0.021-0.028
	l-0.007-0.038l0.002-0.047l0.007-0.038l0.007-0.011l-0.076-0.058l-0.096-0.054l-0.068-0.077l0.001-0.127l-0.08,0.049l-0.002,0.104
	l0.058,0.221l-0.025,0.404l-0.106-0.063l-0.033-0.106l0.02-0.244l-0.017-0.09l-0.049-0.103l-0.06-0.087l-0.111-0.077l-0.021-0.063
	l-0.009-0.062l-0.015-0.029l-0.177-0.036l-0.057-0.003l-0.092,0.02l-0.063,0.028l-0.061,0.001l-0.079-0.061l0.003,0.237
	l-0.039,0.027l-0.062,0.057l-0.068,0.044l-0.057-0.012l-0.064-0.044l-0.05,0.015l-0.051,0.023l-0.075-0.019l-0.023-0.039
	l-0.018-0.067l-0.014-0.113l-0.039-0.007l-0.005,0.073l-0.056-0.056l-0.072-0.153l-0.055-0.078l-0.061-0.03l-0.064,0.006
	l-0.055,0.025l-0.021,0.031l0.015,0.168l0.058,0.119l0.076,0.11l0.071,0.135l-0.022,0.037l-0.037,0.083l-0.024,0.033l-0.088,0.066
	l-0.101,0.022l-0.1-0.022l-0.095-0.075l-0.054-0.09l-0.026-0.101l-0.067-0.454l-0.061-0.115l-0.102-0.061l-0.088,0.019l-0.054,0.069
	l-0.075,0.15l-0.134,0.099l-0.024,0.026l-0.028,0.062l-0.057,0.002l-0.114-0.045l-0.116-0.025l-0.064-0.035l-0.03-0.066l-0.01-0.115
	l0.012-0.186l-0.012-0.063l-0.034-0.042l-0.036-0.01l-0.019,0.03l-0.01,0.039l-0.05,0.058l-0.024,0.037l-0.013,0.053l-0.001,0.056
	l-0.008,0.051l-0.032,0.04l-0.111,0.02l-0.109-0.059l-0.107-0.083l-0.11-0.054l-0.018-0.019l0.004-0.036l0.008-0.036l-0.004-0.019
	l-0.034-0.001l-0.079,0.021l-0.148-0.038l-0.063-0.039l-0.05-0.043l-0.027-0.037l-0.039-0.027l-0.077-0.022l-0.015,0.015
	l0.024,0.142l-0.014,0.063l-0.027,0.028l-0.035-0.001l-0.037-0.025l-0.015-0.041l0.006-0.053l-0.006-0.049l-0.048-0.037
	l-0.027,0.038l0.01,0.212l-0.056,0.039l-0.058-0.008l0.013-0.005l-0.005-0.026l-0.022-0.055l-0.004-0.037l-0.016-0.028l-0.06-0.031
	l-0.431,0.011l-0.032,0.041l-0.147,0.092l-0.049,0.048l-0.111-0.07l-0.045-0.04l-0.018-0.039l-0.028,0.013l-0.194,0.034
	l-0.111,0.033l-0.054,0.003l-0.202-0.018l-0.061-0.019l-0.037-0.045l-0.154,0.006l-0.381-0.041l-0.081,0.048l-0.039,0.056
	l-0.231,0.219l-0.19-0.006l-0.066,0.014l0.07,0.061l-0.05,0.016l-0.053,0.003l-0.055-0.008l-0.06-0.013l-0.164,0.034l-0.071-0.01
	l-0.048-0.072l-0.036,0.001l-0.04-0.005l-0.098-0.025l0.024,0.048l0.039,0.032l0.104,0.048l-0.087-0.02h-0.079l-0.069,0.017
	l-0.057,0.021l-0.021,0.019l-0.02,0.027l-0.026,0.024l-0.043,0.01l-0.04-0.01l-0.042-0.056l-0.039-0.019l-0.06,0.016l-0.176,0.083
	l-0.109,0.026l-0.051,0.041l-0.044,0.058l-0.026,0.061l-0.063-0.03l-0.046,0.014l-0.078,0.087l-0.109-0.021l-0.279,0.136
	l-0.127,0.031l0.039-0.03l-0.065-0.043l-0.041,0.118l-0.003,0.094l-0.044,0.055l-0.167-0.008l-0.184-0.088l-0.079-0.025
	l-0.073-0.001l-0.066,0.005l-0.067-0.008l-0.071-0.044l-0.059,0.02l-0.287,0.021l-0.229-0.04l-0.057,0.002l-0.046,0.008l-0.04-0.004
	l-0.035-0.037l-0.033-0.006l-0.057,0.045l-0.091,0.051l-0.1,0.04l-0.087,0.008l-0.002,0.031l0.062,0.017l0.106,0.041l0.061,0.015
	l0.028-0.01l0.09-0.054l0.028-0.01l0.143,0.031l0.066,0.035l0.067,0.065l0.066,0.021l0.2-0.038l0.094-0.005l0.097,0.028l0.179,0.077
	l0.424,0.116l0.243-0.027l0.093,0.003l0.087,0.029l0.095,0.053l0.028,0.021l0.021,0.022l0.03,0.022l0.054,0.028l0.062,0.023
	l0.05,0.011l0.106,0.003l0.067-0.047l0.043-0.009l0.031,0.044l-0.007,0.038l-0.032,0.03l-0.077,0.049l0.039,0.014l0.035,0.025
	l0.03,0.013l-0.058,0.001l-0.071-0.016l-0.06-0.004l-0.027,0.03l-0.024,0.019l-0.047-0.033l-0.046-0.052l-0.021-0.039l-0.028,0.015
	l-0.054,0.019l-0.029,0.014l-0.015-0.074l-0.06-0.042l-0.082-0.012l-0.084,0.019l0.01-0.08l-0.039-0.012l-0.053,0.032l-0.027,0.059
	l-0.002,0.116l-0.011,0.035l-0.036,0.058l-0.029-0.021l-0.08-0.047l-0.029-0.023l-0.064,0.111l-0.161,0.017l-0.127-0.052
	l0.032-0.099l-0.23-0.01l-0.216-0.034l-0.08-0.043l-0.05-0.017l-0.023,0.016l-0.011,0.026l-0.024,0.036l-0.032,0.031l-0.034,0.01
	l-0.124-0.007l-0.217,0.028h-0.109l-0.113-0.042l-0.15-0.135l-0.074-0.052l-0.07-0.017l-0.088-0.066l-0.065-0.024l-0.051-0.001
	l-0.185,0.027l0.005-0.066l-0.07,0.005l-0.058,0.017l-0.011,0.027l0.062,0.038l-0.334,0.176l-0.301,0.078l-0.167,0.075l-0.116,0.017
	l-0.124,0.001l-0.108-0.011l-0.11-0.034l-0.15-0.092l-0.097-0.038l0.042,0.05l0.05,0.044l0.027,0.042l-0.027,0.047l-0.05,0.01
	l-0.234,0.008l-0.292,0.097l-0.152,0.012l-0.129-0.078l-0.099,0.104l-0.136,0.046l-0.144-0.024l-0.12-0.112l-0.042-0.197l0.13-0.101
	l0.178-0.085l0.095-0.154l-0.245,0.128l-0.117,0.029l-0.028-0.093l-0.037,0.066l-0.044,0.062l-0.06,0.021l-0.081-0.055l-0.033,0.028
	l-0.049,0.025l-0.049,0.016l-0.034,0.004l-0.024,0.005l0.017,0.026l0.052,0.043l0.012-0.006l0.031-0.011l0.037-0.006l0.031,0.007
	l0.052,0.08l-0.038,0.061l-0.093,0.035l-0.111-0.007l-0.003,0.033l0.091,0.029l0.217,0.002l0.038,0.047l0.012,0.029l0.025,0.03
	l0.021,0.042v0.061l-0.017,0.03l-0.028,0.023l-0.034,0.016l-0.034,0.01l-0.594,0.027l-0.158,0.07v0.001l-0.049-0.036l-0.054-0.021
	l-0.12-0.021l-0.057-0.021l-0.068-0.057l-0.043-0.019l-0.126-0.008l-0.081,0.027l-0.057,0.055l-0.051,0.073l-0.041-0.034
	l-0.021-0.042l-0.005-0.047l0.011-0.053l-0.037,0.013l-0.069,0.013l-0.038,0.014l-0.08-0.073l-0.1-0.034l-0.406-0.058l-0.08-0.033
	l-0.088-0.073l-0.008,0.133l-0.02,0.067l-0.064,0.042l-0.23,0.085l-0.046,0.003l-0.083-0.012l-0.131-0.032l-0.058,0.008
	l-0.059,0.046l-0.046-0.022l-0.03-0.028l-0.017-0.036l-0.002-0.046l-0.168-0.08l0.027-0.025l-0.016-0.043l-0.066-0.107l-0.063,0.028
	l-0.369,0.056l-0.067-0.014l-0.134-0.083l-0.066,0.021l-0.314,0.062l-0.029-0.008l-0.036-0.025l-0.043-0.007l-0.042,0.005
	l-0.036,0.015l-0.046-0.028l-0.072-0.009l-0.077,0.011l-0.065,0.027l-0.047,0.014l-0.044-0.017l-0.041-0.028l-0.038-0.018
	l-0.04,0.009l-0.085,0.052l-0.041,0.011l-0.029-0.011l-0.038-0.051l-0.029-0.021l-0.328-0.062l-0.068,0.016l-0.026,0.069
	l-0.136-0.055l-0.132,0.076l-0.208,0.225l-0.185,0.098l-0.139,0.107l-0.045,0.023l-0.023-0.005l-0.205-0.003l-0.051-0.012
	l-0.036-0.018l-0.021-0.03l-0.005-0.043l-0.024-0.076l-0.069-0.067l-0.088-0.053l-0.558-0.193l-0.1-0.062l-0.06-0.024l-0.063-0.007
	l-0.049,0.006l-0.098,0.028l-0.202,0.016l-0.216-0.023l-0.214-0.055l-0.193-0.085l-0.143-0.096l-0.121-0.127l-0.081-0.154
	l-0.021-0.18v-0.001l-0.039,0.016l-0.03,0.024l-0.026,0.032l-0.019,0.039l0.027,0.049l0.146,0.27l0.029,0.112v0.083l-0.065,0.297
	l-0.001,0.121l0.012,0.113l0.013,0.03l0.021,0.026l0.019,0.028l0.005,0.038l-0.005,0.026l-0.027,0.053l-0.008,0.031l-0.008,0.137
	l0.024,0.102l0.059,0.088l0.094,0.095l-0.752,0.02l-0.119-0.021l-0.125,0.013l0.129,0.113l-0.044,0.113l-0.207,0.107l-0.177,0.041
	l-0.189,0.013l-0.137-0.025l-0.097-0.088l-0.064,0.032l-0.053,0.003l-0.045-0.01l-0.124-0.057l-0.004,0.034l0.103,0.062l0.062,0.027
	l0.07,0.02l-0.039,0.043l-0.062,0.008l-0.073-0.012l-0.072-0.02l-0.126-0.089l-0.037,0.032l0.001,0.043l0.023,0.055l-0.104,0.021
	l-0.126-0.039l-0.244-0.105l-0.08-0.011l-0.043,0.007l-0.09,0.063l-0.042,0.023l-0.067,0.023l-0.073,0.015l-0.066-0.006
	l-0.119-0.105l0.044-0.125l0.068-0.136l-0.049-0.139l-0.106,0.164l-0.039,0.087l-0.022,0.095l0.014,0.116l0.057,0.059l0.084,0.044
	l0.094,0.072l-0.111,0.056l-0.171,0.035l-0.161-0.009l-0.076-0.079l-0.034-0.006l-0.03,0.094l-0.083,0.018l-0.109-0.005
	l-0.103,0.029l-0.057,0.084l-0.044,0.111l-0.06,0.068l-0.102-0.048l-0.427,0.438l-0.051,0.034l-0.053,0.017l-0.085-0.002
	l-0.159-0.037l-0.068,0.012l0.071,0.069l0.187,0.074l0.07,0.049l-0.028,0.012l-0.047,0.028l-0.032,0.005l0.011,0.032l0.016,0.032
	l0.018,0.027l0.018,0.018l0.033-0.025l0.153-0.08l0.118-0.137l0.119-0.102l0.16,0.029l0.108,0.119l0.092,0.136l0.128,0.101
	l0.222,0.012l0.352-0.123l0.179-0.037l0.209,0.036l0.068,0.041l0.146,0.114l0.218,0.078l0.027,0.057l-0.053,0.149l0.048-0.004
	l0.047-0.013l0.045-0.02l0.042-0.027l-0.012,0.06l-0.035,0.099l-0.011,0.061l0.036,0.006l0.041-0.058l0.051-0.051l0.061-0.035
	l0.07-0.011l0.076,0.025l0.106,0.091l0.11,0.05l0.165,0.101l0.006,0.073l0.028,0.039l0.043,0.001l0.056-0.04l0.117,0.108
	l0.068,0.096l0.12,0.217l0.051,0.056l0.134,0.112l0.266,0.142l0.13,0.215l0.126,0.141l0.08,0.29l0.035,0.304l0.005,0.297
	l-0.148,0.146l-0.031,0.106l-0.062,0.085l-0.272,0.272l-0.084,0.064l-0.077,0.02l-0.125-0.02l-0.097-0.003l-0.086,0.013
	l-0.212,0.055l-0.108,0.01l-0.104-0.006l-0.109-0.019l-0.074-0.058l-0.11-0.216l-0.046-0.069l-0.028,0.138l0.169,0.279l0.013,0.174
	l0.049-0.019l0.104-0.063l0.048-0.008l0.189,0.004l0.09-0.032l0.16-0.094l0.097-0.006l0.059,0.022l0.102,0.069l0.053,0.018
	l0.056-0.002l0.113-0.035l0.339-0.167l0.144-0.047l0.063-0.072l0.074-0.029l0.114,0.096l0.037,0.087l0.194,0.132l0.077,0.324
	l0.033,0.287l0.03,0.104l0.004,0.124l-0.044,0.094l-0.111,0.023l-0.061,0.042l-0.166,0.312l0.288-0.234l0.128,0.021l0.246,0.286
	l0.151,0.22l0.024,0.093l-0.022,0.091l-0.037-0.005l-0.062-0.045l-0.09-0.032l0.065,0.099l0.082,0.074l0.063,0.082l0.001,0.121
	l-0.041-0.023l-0.131-0.044l0.309,0.413l0.147,0.129l0.011,0.106l-0.033,0.097l-0.07,0.033l-0.083-0.011l-0.103-0.003l-0.095,0.013
	l-0.054,0.036l0.484,0.062l0.103,0.056l0.19,0.177l0.085,0.048l0.241,0.048l0.062,0.029l0.188,0.149l0.671,0.832l0.188,0.343
	l0.124,0.172l0.046,0.089l0.025,0.101l-0.005,0.109l-0.071,0.301l-0.031,0.073l-0.065,0.019l-0.501-0.077l-0.039-0.046l-0.024-0.063
	l-0.065-0.065l-0.087-0.043l-0.086,0.001l-0.096-0.141l-0.142-0.109l-0.163-0.081l-0.164-0.058l-0.109-0.02l-0.081,0.007
	l-0.169,0.041l-0.095-0.005l-0.059-0.032l-0.058-0.046l-0.096-0.044l-0.003,0.03l0.045,0.046l0.04,0.056l0.047,0.049l0.063,0.026
	l0.084-0.003l0.159-0.035l0.099,0.005l0.228,0.061l0.062,0.033l0.172,0.183l0.217,0.117l0.124,0.136l0.03,0.12l-0.137,0.036
	l-0.104-0.059l-0.122-0.107l-0.145-0.095l-0.17-0.021l0.255,0.22l0.154,0.106l0.17,0.066l0.379,0.045l0.114,0.082l0.026,0.199
	l-0.07,0.128l-0.154,0.062l-0.196,0.006l-0.197-0.036l-0.561-0.227l-0.165,0.008l0.268,0.159l-0.215,0.005l-0.209-0.105
	l-0.152-0.168l-0.05-0.188l0.026-0.159l-0.005-0.053l-0.028-0.047l-0.022,0.013l-0.017,0.047l-0.01,0.055l-0.014,0.032l-0.051,0.013
	l-0.014,0.022l0.004,0.027l0.018,0.079v0.037l0.008,0.036l-0.018,0.026l-0.072,0.019l-0.003,0.033l0.08,0.052l0.179,0.174
	l0.085,0.134l0.133,0.041l0.26,0.025l0.136,0.033l0.623,0.219l0.118,0.064l0.077,0.08l0.014,0.054l0.007,0.07l0.015,0.064
	l0.033,0.032l0.035,0.017l0.039,0.03l0.029,0.033l0.011,0.027l-0.005,0.126l-0.013,0.058l-0.087,0.152l-0.047,0.213l-0.046,0.048
	l-0.086-0.076l-0.028-0.06l-0.021-0.06l-0.028-0.056l-0.06-0.043l-0.041-0.007l-0.049,0.007l-0.041,0.016l-0.018,0.022l0.108,0.116
	l0.014,0.055l-0.122-0.001l-0.159-0.043l-0.065-0.005l-0.151,0.03l-0.063-0.007l-0.063-0.039l-0.075-0.068l-0.064-0.075
	l-0.024-0.054l-0.001-0.084l-0.024-0.094l-0.058-0.078l-0.099-0.038l0.089,0.191l-0.097,0.003l-0.225-0.026l-0.172,0.045
	l-0.078-0.015l-0.07-0.041l-0.136-0.12l-0.06-0.077l-0.035-0.092l-0.004-0.118l-0.019-0.094l-0.06-0.092l-0.085-0.075l-0.091-0.047
	l0.029,0.029l0.059,0.078l0.024,0.019l0.028,0.03l0.009,0.122l0.029,0.096l-0.016,0.107l0.016,0.049l0.149,0.153l0.023,0.019
	l0.038,0.063l0.101,0.047l0.22,0.052l0.055,0.001l0.108-0.023l0.05-0.001l0.031-0.003l0.023-0.012l0.024-0.004l0.106,0.087
	l0.022,0.01l0.066,0.059l0.163,0.329l0.088,0.082l0.305,0.208l0.058,0.063l0.053,0.081l0.034,0.092l-0.002,0.1l-0.052,0.114
	l-0.076,0.032l-0.097,0.001l-0.111,0.021l0.092,0.033l-0.015,0.048l-0.073,0.045l-0.088,0.026l-0.077-0.153l-0.077-0.2l-0.104-0.209
	l-0.164-0.18l-0.249-0.1l-0.037-0.044l-0.035-0.053l-0.046-0.048l-0.045-0.029l-0.043-0.021l-0.102-0.025l-0.017-0.023l-0.021-0.046
	l-0.037-0.045l-0.071-0.021l0.043,0.102l0.057,0.058l0.156,0.101l0.207,0.177l0.095,0.057l0.115,0.087l0.06,0.093l0.045,0.099
	l0.241,0.333l0.049,0.134l-0.032,0.109l-0.136-0.008l-0.161-0.166l-0.219-0.313l-0.169-0.14l-0.202-0.12l-0.22-0.087l-0.223-0.033
	l-0.168,0.039l-0.086-0.001l-0.083-0.06l-0.081-0.075l-0.3-0.162l-0.033-0.035l-0.004-0.05l0.014-0.055l-0.034-0.007l-0.062,0.04
	l-0.485-0.026l-0.057-0.014l-0.063-0.036l-0.025-0.038l-0.007-0.042l-0.022-0.036l-0.072-0.019l0.064,0.187l-0.02,0.063l-0.11,0.01
	l0.108,0.057l0.45,0.029l0.292,0.063l0.075,0.042l0.12,0.142l0.066,0.04l0.125,0.057l0.11,0.102l0.075,0.123l0.022,0.117
	l-0.036,0.002l-0.075-0.069l-0.121-0.137l-0.196-0.144l-0.092,0.008l0.005,0.059l0.075,0.073l0.159,0.073l0.048,0.042l0.039,0.052
	l0.014,0.05l-0.019,0.056l-0.035,0.032l-0.038,0.023l-0.029,0.032l-0.027,0.086l0.037,0.036l0.204,0.029l0.117,0.032l0.094,0.042
	l0.075,0.047l0.4,0.341l0.145,0.168l0.063,0.17l0.004,0.104l0.027,0.082l0.07,0.062l0.137,0.046l0.052,0.051l0.022,0.098
	l-0.011,0.101l-0.046,0.061l0.104,0.127l0.025,0.076l-0.045,0.049l-0.208,0.079l-0.076,0.007l-0.079-0.015l-0.571-0.154
	l-0.573-0.239l-0.383-0.072l-0.061-0.027l-0.024-0.023l-0.062-0.075l-0.039-0.031l-0.392-0.157l-0.311-0.044l-0.052-0.035
	l0.071-0.161l0.007-0.11l-0.094-0.071l-0.146-0.07l-0.074-0.002l-0.048,0.081l-0.032-0.007l-0.048-0.132l-0.081-0.067l-0.252-0.056
	l-0.077-0.027l-0.137-0.074l-0.057-0.022l-0.071-0.036l-0.093-0.113l-0.061-0.034l-0.214-0.037l-0.083,0.003l-0.134,0.035
	l-0.078,0.006l-0.07-0.033l-0.022-0.045l0.017-0.046l0.024-0.049l0.003-0.055l-0.037-0.068l-0.184-0.185l-0.01,0.098l-0.074-0.063
	l-0.087-0.038l-0.339-0.069l-0.045-0.015l-0.048-0.031l-0.109-0.104l-0.061-0.042l-0.089-0.042l-0.087-0.003l-0.078,0.12
	l-0.064,0.011l-0.069-0.024l-0.04-0.06l0.126-0.199l-0.014-0.042l-0.024-0.022l-0.017-0.043l-0.024-0.041l-0.045-0.02l-0.044,0.014
	l-0.026,0.035l-0.02,0.039l-0.027,0.022l-0.066,0.002l-0.224-0.063l-0.061-0.047l-0.004-0.071l-0.021-0.064l-0.117-0.029l0.023-0.06
	l0.032-0.058l0.046-0.048l0.06-0.036l-0.339,0.013l-0.525-0.069l-0.069-0.01l-0.084-0.035l-0.056-0.014l-0.07,0.003l-0.074,0.02
	l-0.029,0.013l-0.027,0.001l-0.063-0.011l-0.125-0.061l0.039-0.073l0.103-0.075l0.07-0.073l-0.072,0.012l-0.178,0.053l-0.055-0.014
	l-0.054-0.032l-0.058,0.016l-0.086,0.058l-0.104,0.031l-0.106,0.007l-0.226-0.032l-0.106,0.023l-0.216,0.16l-0.154,0.012
	l-0.296-0.05l-0.134,0.001l-0.371,0.095l-0.074-0.001l-0.067-0.046l-0.047-0.16l-0.047-0.061l-0.112-0.039l-0.12-0.004l-0.112,0.021
	l-0.146,0.062l-0.056-0.006l-0.057-0.013l-0.058,0.001l-0.049,0.016l-0.063,0.042l-0.033,0.013l-0.198-0.011l-0.105,0.013
	l-0.052,0.068v0.223l-0.018,0.089l-0.063,0.053l-0.045-0.001l-0.068-0.017l-0.066-0.022l-0.038-0.024l-0.009-0.041l0.07-0.039
	l-0.019-0.079l0.063-0.048l0.012-0.049l-0.022-0.042l-0.079-0.076l-0.021-0.043l-0.088,0.039l-0.092,0.008l-0.077,0.031
	l-0.041,0.108l-0.042,0.063l-0.082,0.013l-0.097,0.003l-0.082,0.021l-0.296,0.184l-0.153,0.067l-0.157,0.034l0.025-0.063
	l-0.044-0.025l-0.413-0.045l-0.057,0.008l-0.51,0.372l-0.037-0.008l0.005-0.035l0.076-0.071l0.02-0.175l-0.026-0.333l-0.043,0.065
	l-0.039,0.046l0.067,0.133l-0.04,0.067l-0.23,0.091l-0.191,0.103l-0.096,0.006l-0.139-0.038l0.033,0.059l0.065,0.036l0.07,0.018
	l0.058,0.004l0.01,0.076l-0.037,0.095l-0.067,0.083l-0.081,0.038l0.017,0.05l0.013,0.022l-0.1,0.051l-0.147-0.003l-0.143-0.054
	l-0.081-0.099l-0.178,0.024l-0.067-0.01l-0.061-0.023l-0.077-0.064l-0.036-0.019l-0.084-0.068l-0.011-0.015l-0.033,0.001
	l-0.038,0.005h-0.035l-0.065-0.144l-0.029-0.042l-0.009,0.067l0.018,0.116l-0.006,0.047l-0.044,0.068l-0.037-0.001l-0.047-0.036
	l-0.077-0.039l-0.05-0.006l-0.11,0.005l-0.074-0.021l-0.06-0.036l-0.121-0.09l-0.063-0.027l-0.411-0.055l-0.076-0.036l-0.04-0.057
	l-0.097-0.068l-0.109-0.045l-0.077,0.017l0.12,0.074l0.215,0.175l0.141,0.057l0.256,0.018l0.149,0.033l0.06,0.067l0.048,0.066
	l0.092,0.099l0.051,0.112l-0.08,0.109l-0.054,0.01l-0.123-0.021l-0.049,0.008l-0.035,0.049l0.025,0.051l0.061,0.041l0.068,0.019
	l0.039-0.016l0.167-0.118l0.065-0.025l0.042,0.008l0.04,0.024l0.055,0.023l0.327,0.061l0.099-0.003l0.06-0.02l0.109-0.057
	l0.064-0.001l0.055,0.017l0.071,0.039l0.039,0.014l0.051,0.029l0.12,0.142l0.005,0.012l0.013,0.045l0.005,0.01l0.027,0.007
	l0.038-0.001l0.033-0.006l0.01-0.008l0.038,0.074l-0.049,0.04l-0.078,0.045l-0.091,0.181l-0.27,0.192l-0.06,0.083l-0.106,0.188
	l-0.062,0.062l-0.058,0.026l-0.05,0.016l-0.047,0.021l-0.047,0.042l-0.018,0.046l0.008,0.038l-0.012,0.033l-0.07,0.028l-0.055-0.004
	l-0.111-0.04l-0.055,0.01l-0.044,0.019l-0.059,0.013l-0.061,0.006l-0.05-0.003l-0.08,0.015l-0.158,0.134l-0.078,0.047l-0.283,0.066
	l-0.041,0.042l-0.406,0.192l-0.103,0.029l-0.085-0.001l-0.206-0.051l-0.068-0.049l-0.063-0.096l-0.032-0.115l0.021-0.106
	l0.038-0.026l0.046-0.006l0.042-0.011l0.022-0.039l0.02-0.161l0.164-0.059l0.117-0.002l0.063,0.091l0.166-0.176l0.057-0.095
	l0.035-0.137l0.125,0.002l0.123-0.125l0.084-0.186l0.008-0.179l-0.061-0.164l-0.186-0.353l-0.091-0.117l-0.021-0.009l-0.062-0.004
	l-0.021-0.01l-0.006-0.016l-0.008-0.041l-0.009-0.015l-0.108-0.106l-0.066-0.045l-0.088-0.023l-0.162-0.017l-0.055-0.042
	l-0.037-0.011l-0.037,0.024l-0.003,0.027l0.011,0.153l-0.035,0.104l-0.057,0.032l-0.053-0.034l-0.027-0.093l-0.031,0.043
	l-0.016,0.048l-0.014,0.111l-0.021,0.044l-0.137,0.099l-0.152,0.162l-0.101,0.075l-0.103,0.019l-0.063,0.027l-0.093,0.16
	l-0.078,0.023l-0.087-0.055l-0.037-0.092l0.007-0.107l0.042-0.094l-0.087,0.007l-0.068-0.055l-0.063-0.079l-0.067-0.069l-0.11,0.043
	l-0.035,0.022l0.132,0.067l0.12,0.101l0.066,0.123l-0.032,0.137l-0.043,0.04l-0.065,0.023h-0.079l-0.087-0.029l-0.054-0.047
	l-0.037-0.12l-0.051-0.058l-0.034,0.134l0.065,0.079l0.092,0.05l0.042,0.052l-0.029,0.211l-0.056,0.046l-0.121-0.023l0.12,0.085
	l0.042,0.047l0.018,0.072l-0.315-0.072l-0.059-0.037l-0.331-0.335l-0.049-0.104l0.005-0.114l0.034-0.156l-0.061,0.031l-0.06,0.002
	l-0.039-0.032l-0.002-0.072l-0.044,0.015l-0.038,0.023l-0.027,0.029l-0.01,0.04l0.016,0.031l0.068,0.016l0.013,0.023l-0.03,0.238
	l0.007,0.054l0.012,0.038l-0.002,0.043l-0.016,0.083l0.017,0.018l0.083,0.055l0.026,0.038l-0.004,0.064l-0.03,0.06l-0.045,0.047
	l-0.05,0.028l-0.011-0.026l-0.03-0.045l-0.014-0.034l-0.088,0.158l-0.053,0.04l-0.049-0.077l-0.045,0.062l-0.061,0.01l-0.049-0.034
	l-0.009-0.075l-0.037,0.003l-0.037,0.01l0.022,0.063l0.026,0.055l0.04,0.045l0.057,0.031l-0.028,0.017l-0.053,0.045l-0.028,0.018
	l0.108,0.059l0.032,0.038l0.008,0.052l-0.027,0.048l-0.056,0.045l-0.064,0.031l-0.057,0.006l-0.121-0.002l-0.264,0.038l-0.118-0.02
	l-0.004,0.035l0.184,0.044l0.095,0.033l0.015,0.054l-0.062,0.013l-0.318,0.001l-0.006,0.032l0.099,0.058l0.068,0.081l0.042,0.101
	l0.02,0.108l-0.028,0.127l-0.065,0.126l-0.04,0.111l0.043,0.077l-0.043,0.063l-0.055,0.055l-0.063,0.04l-0.068,0.021l0.095,0.016
	l0.083-0.015l0.17-0.051l0.35-0.019l0.573-0.155l0.13,0.018l-0.092,0.079l-0.135,0.047l-0.277,0.057l-0.252,0.018l-0.145,0.027
	l-0.069,0.064l0.047,0.12l0.141,0.066l0.165,0.019l0.191-0.044l0.155,0.009l0.072-0.005l0.083-0.043l0.016-0.015l0.016-0.02
	l0.021-0.01l0.075-0.031l0.011,0.003l-0.117,0.068l-0.02,0.043l-0.016,0.02l-0.067,0.031l-0.143,0.026l-0.407,0.163l-0.089,0.012
	l-0.132-0.011l-0.094,0.028l-0.149,0.094l-0.146,0.063l-0.058,0.039l-0.051,0.012l-0.145-0.025l-0.062,0.004l0.033-0.08l0.013-0.259
	l-0.019-0.062l-0.054-0.062l-0.104-0.099l0.028-0.006l0.021-0.006l0.022-0.002l0.032,0.006l0.005-0.034l-0.242-0.158l-0.042-0.036
	l-0.03-0.007l0.018,0.157l0.18,0.244l0.069,0.154l-0.042,0.127l-0.156-0.022l-0.247-0.124l-0.071-0.102l-0.354-0.19l-0.072-0.089
	l-0.03-0.126l-0.103-0.074l-0.236-0.099l0.057,0.103l0.189,0.089l0.061,0.077l-0.023,0.073l-0.099,0.021l-0.126-0.015l-0.103-0.029
	l-0.291-0.252l-0.168-0.111l-0.112,0.033l0.088,0.042l0.104,0.065l0.098,0.076l0.07,0.082l0.102,0.086l0.138,0.044l0.271,0.04
	l0.206,0.09l0.172,0.144l0.325,0.359l0.347,0.264l0.01,0.018l0.022,0.033l0.017,0.048l-0.002,0.061l-0.02,0.032l-0.03,0.018
	l-0.066,0.025l-0.268,0.245l-0.064,0.038l-0.073-0.025l-0.068-0.039l-0.065-0.056l-0.056-0.075l-0.16-0.35l-0.011-0.182l-0.038-0.21
	l-0.028,0.036l-0.015,0.038l-0.014,0.093l-0.016,0.055l-0.023,0.012l-0.031,0.001l-0.048,0.022l-0.105,0.091l-0.053,0.035
	l-0.067,0.016l-0.436-0.06l-0.082,0.003l-0.054,0.043l-0.022,0.104l0.111,0.007l0.094,0.076l0.027,0.084l-0.089,0.031l-0.016-0.076
	l-0.001-0.026l-0.116,0.107l-0.155,0.009l-0.168-0.016l-0.15,0.042l-0.146,0.066l-0.313,0.103l-0.11,0.108l0.236-0.062l0.338-0.136
	l0.052-0.006l0.387,0.05l0.282-0.033l0.08,0.014l0.217,0.086l0.505,0.08l0.095,0.062l-0.064,0.02l-0.115,0.057l-0.081,0.026
	l-0.563,0.08l-0.15,0.063l-0.453,0.34l-0.084,0.032l-0.23-0.011l-0.104,0.038l-0.189,0.13l-0.056,0.023l-0.045,0.006l-0.032,0.022
	l-0.02,0.064l-0.023,0.044l-0.081,0.079l-0.022,0.044l-0.055,0.07l-0.11,0.022l-0.227-0.005l-0.768,0.082l-0.137,0.05l-0.081,0.015
	l-0.439-0.056l-0.062,0.01l-0.183,0.153l-0.079,0.009l-0.076,0.013l-0.115,0.085l-0.072,0.019l-0.089,0.006l-0.073-0.034
	l-0.139-0.061l-0.094-0.029l-0.196-0.014l-0.095-0.023l-0.08-0.045l-0.163-0.174l-0.195-0.112l-0.086-0.075l-0.001-0.08l0.023-0.146
	l-0.18-0.226l0.07-0.137l0.088-0.042l0.082-0.001l0.082,0.01l0.089-0.012l0.045-0.029l0.034-0.043l0.052-0.098l0.046-0.191
	l-0.011-0.162l0.045-0.113l0.206-0.044l0.2,0.011l0.104-0.009l0.069-0.041l0.005-0.096l-0.053-0.125l-0.079-0.112l-0.071-0.061
	l-0.05-0.003l-0.051-0.003l-0.511,0.051l-0.247-0.009l-0.125-0.018l-1.151-0.205l-0.722-0.254l-0.146-0.021l-0.299-0.003
	l-0.008-0.04l-0.014-0.038l-0.02-0.037l-0.025-0.034l-0.056-0.067l-0.009-0.061l0.003-0.058l-0.02-0.058l-0.061-0.049l-0.065-0.016
	l-0.068-0.005l-0.07-0.017l-0.088-0.048l0.006-0.011l0.009-0.021l-0.01-0.023l-0.049-0.014l-0.137-0.017l-0.062-0.028l-0.028-0.053
	l0.048-0.104l0.251-0.241l0.318-0.23l0.12-0.055l0.143-0.005l0.142,0.01l0.052-0.038l-0.038-0.064l-0.131-0.075l-0.099-0.059
	l-0.013-0.073l0.053-0.065l0.094-0.039l0.031-0.018l0.016-0.024l0.004-0.03l-0.014-0.035l-0.008-0.013l-0.011-0.011l-0.031-0.012
	l-0.034-0.006h-0.035l-0.035,0.006l-0.066,0.015l-0.065-0.001l-0.062-0.023l-0.146-0.12l-0.028-0.053l-0.005-0.059l-0.021-0.091
	l-0.041,0.005l-0.322-0.082l-0.036-0.001l-0.025-0.016l-0.012-0.06l0.003-0.043l0.037-0.116l0.039-0.078l0.056-0.051l0.041-0.062
	l-0.016-0.109l-0.16,0.05l-0.06-0.016l-0.006-0.007l0.006-0.021l-0.029-0.109l-0.001-0.046l-0.016-0.04l-0.057-0.035l-0.047-0.014
	l-0.563-0.092l-0.202,0.012l-0.191,0.124l-0.083,0.02l-0.162,0.011l-0.111-0.021l-0.18-0.093l-0.103-0.031l-0.097,0.006
	l-0.189,0.062l-0.096,0.014l-0.102-0.008l-0.373-0.128l-0.106-0.178l0.01-0.015l-0.104-0.067l-0.162-0.205l-0.088-0.088
	l-0.086-0.028l-0.101,0.006l-0.183,0.05l-0.105,0.013l-0.135-0.008l-0.125-0.037l-0.077-0.075l-0.021-0.121l0.034-0.083l0.076-0.055
	l0.103-0.039l0.089-0.077l0.01-0.12l-0.039-0.13l-0.06-0.104l-0.079-0.089l-0.337-0.269l-0.059-0.016l-0.059-0.003l-0.073-0.016
	l-0.313-0.109l-0.201-0.026l-0.081-0.025l-0.072-0.045l-0.107-0.115l-0.038-0.025l-0.042-0.012l-0.055-0.004l-0.278-0.035
	l-0.132-0.032l-0.885-0.351l-0.156-0.027l-0.053,0.008l-0.094,0.042l-0.053,0.016l-0.115,0.118l-0.556-0.051l-0.167-0.043
	l-0.077-0.003l-0.034,0.011l-0.027,0.021l-0.052,0.027l-0.167,0.06l-0.083,0.018l-0.086,0.004l-0.101-0.014l-0.09-0.027
	l-0.024-0.008l-0.102-0.055l-0.067-0.072l-0.023-0.126l0.063-0.076l0.211-0.081l0.062-0.032l0.166-0.112l0.067-0.014l0.062-0.001
	l0.048-0.025l0.024-0.078l0.006-0.094l-0.055-0.155l-0.014-0.08l0.018-0.026l0.037-0.015l0.028-0.022l-0.004-0.045l-0.02-0.032
	l-0.028-0.028l-0.032-0.025l-0.036-0.019l-0.048-0.123l0.021-0.215l0.063-0.218l0.069-0.13l0.26-0.124l0.058-0.083l0.01-0.361
	l0.05-0.121l0.065-0.114l0.061-0.145l0.033-0.097l0.174-0.222l0.065-0.059l0.097-0.043l0.079-0.048l0.016-0.075l-0.049-0.065
	l-0.013-0.017l-0.093-0.035l-0.104-0.017l-0.092-0.027l-0.086-0.063l-0.234-0.258l-0.064-0.031l-0.176-0.062l-0.041-0.03
	l-0.047-0.058l-0.078-0.037l-0.166-0.053l-0.168-0.091l-0.461-0.322l-0.075-0.035l-0.154-0.048l-0.071-0.039l-0.033-0.042
	l-0.05-0.106l-0.034-0.038l-0.038-0.013l-0.082-0.003l-0.027-0.007l-0.047-0.062l-0.029-0.061l-0.047-0.051l-0.186-0.052
	l-0.052-0.041l-0.032-0.058l-0.03-0.077l-0.228-0.111l-0.062-0.047l-0.041-0.063l-0.094-0.221l-0.099-0.076l-0.305-0.159
	l-0.068-0.052l-0.003-0.067l0.01-0.054l0.001-0.055l-0.026-0.068l-0.056-0.065l-0.074-0.053l-0.085-0.034l-0.081-0.019l-0.135-0.054
	l-0.202-0.224l-0.111-0.094l-0.384-0.167l-0.082-0.089l-0.131-0.112l-0.192-0.065l-0.197-0.01l-0.144,0.047l-0.096,0.14
	l-0.061,0.167l-0.08,0.143l-0.156,0.072l-0.192-0.026l-0.65-0.398l-0.136-0.129l-0.076-0.105l-0.034-0.047l-0.075-0.162
	l-0.018-0.088l0.007-0.152l-0.012-0.085l-0.048-0.089l-0.158-0.147l-0.066-0.078l-0.01-0.041l0.012-0.084l-0.015-0.045l-0.019-0.007
	l-0.048,0.026l-0.023-0.007l-0.014-0.021l-0.018-0.05l-0.013-0.02l-0.493-0.5l-0.029-0.041l-0.01-0.044l0.002-0.093l-0.02-0.043
	l-0.078-0.045l-0.104-0.013l-0.488-0.013l-0.089-0.023l-0.095-0.049l-0.035-0.058l-0.032-0.171l-0.035-0.08l-0.162-0.22l-0.14-0.167
	l-0.084-0.068l-0.097-0.016l-0.063,0.042l-0.072,0.143l-0.058,0.047l-0.314-0.022l-0.036-0.026l-0.03-0.039l-0.031-0.027
	l-0.037,0.008l-0.023,0.03l-0.014,0.034l-0.018,0.032l-0.035,0.025l-0.146,0.024l-0.186-0.019l-0.182-0.046l-0.139-0.058
	l-0.145-0.091l-0.066-0.023h-0.091l-0.164,0.049l-0.074-0.006l-0.079-0.077l0,0l-0.042-0.076l-0.116-0.153l-0.063-0.058
	l-0.047-0.034l-0.03-0.011l-0.029-0.005l-0.129-0.041l-0.03-0.022l-0.036-0.051l-0.013-0.041l-0.009-0.097l-0.011-0.046l-0.03-0.042
	l-0.077-0.077l-0.026-0.045v-0.082l0.105-0.046l0.008-0.033l0.015-0.057l-0.012-0.083l-0.049-0.171l-0.054-0.344l-0.034-0.085
	l-0.134-0.155l-0.177-0.135l-0.135-0.145l-0.016-0.185l0.03-0.092l0.016-0.085l-0.023-0.076l-0.086-0.07l-0.102-0.064l-0.052-0.058
	l-0.016-0.071l0.007-0.199l-0.012-0.059l-0.046-0.053l-0.165-0.144l-0.19-0.224l-0.024-0.122l-0.008-0.245l-0.041-0.126
	l-0.093-0.137l-0.116-0.118l-0.263-0.208l-0.193-0.204l-0.139-0.289l-0.082-0.31l-0.019-1.137l0.055-0.274l0.031-0.06l0.004-0.088
	l-0.015-0.092l-0.026-0.072l-0.086-0.102l-0.072-0.051l-0.03-0.052l0.04-0.108l0.027-0.034l0.026-0.02l0.018-0.027l0.006-0.053
	l-0.018-0.047l-0.063-0.083l-0.012-0.05l0.016-0.073l0.031-0.075l0.088-0.131l0.062-0.063l0.064-0.042l0.158-0.059l0.064-0.037
	l0.13-0.112l0.04-0.018l0.083,0.051l0.07,0.054l0.072,0.01l0.09-0.081l0.342-0.521l0.039-0.03l0.042-0.022l0.037-0.026l0.026-0.043
	l0.004-0.041l-0.015-0.049l-0.009-0.036v-0.044l0.028-0.048l0.032-0.029l0.02-0.03l-0.013-0.059l-0.027-0.021l-0.11-0.064
	l-0.034-0.014l-0.052,0.014l-0.031,0.03l-0.028,0.033l-0.037,0.024l-0.043,0.003l-0.082-0.013l-0.04,0.018l-0.133,0.092l-0.963,0.51
	l-0.176,0.067l-0.09,0.002l-0.124-0.079l-0.067-0.006l-0.041,0.009l-0.087-0.001l-0.043-0.005l-0.044,0.004l-0.075,0.033
	l-0.048,0.008l-0.095-0.018l-0.084-0.05l-0.069-0.07l-0.05-0.078l-0.088-0.184l-0.052-0.084l-0.153-0.172l-0.026-0.061l-0.02-0.139
	l-0.01-0.063l0.004-0.026l-0.014-0.018l-0.058-0.018l-0.047-0.022l-0.019-0.034l-0.016-0.087l-0.022-0.028l-0.061-0.045
	l-0.012-0.029l-0.008-0.046l-0.017-0.039l-0.152-0.24l-0.063-0.078l-0.065-0.067l-0.038-0.058l-0.026-0.082l-0.007-0.083
	l0.018-0.063l0.063-0.038l0.061,0.009l0.034-0.012l-0.02-0.096l-0.032-0.084l-0.029-0.025l-0.054-0.002l-0.102-0.017l-0.07-0.031
	l-0.12-0.092l-0.061-0.034l-0.131,0.006l-0.239,0.16l-0.122,0.035l-0.15-0.054l-0.256-0.172l-0.127-0.001l-0.074-0.058l-0.061-0.161
	l-0.04-0.042l-0.092-0.044l-0.01-0.06l0.023-0.073l0.011-0.081l-0.044-0.055l-0.087-0.035l-0.171-0.031l-0.043,0.001l-0.043,0.006
	l-0.041-0.001l-0.037-0.027l-0.058-0.076l-0.034-0.03l-0.049-0.021l-0.063-0.068l-0.151-0.089l-0.069-0.059l-0.147-0.084
	l-0.03-0.082l0.07-0.076L1323.939,340.887z"/></svg>