<?xml version="1.0" encoding="utf-8"?>
<!-- Generator: Adobe Illustrator 15.0.0, SVG Export Plug-In . SVG Version: 6.00 Build 0)  -->
<!DOCTYPE svg PUBLIC "-//W3C//DTD SVG 1.1//EN" "http://www.w3.org/Graphics/SVG/1.1/DTD/svg11.dtd">
<svg version="1.1" id="Ebene_1" xmlns="http://www.w3.org/2000/svg" xmlns:xlink="http://www.w3.org/1999/xlink" x="0px" y="0px"
	 width="1920px" height="1080px" viewBox="0 0 1920 1080" enable-background="new 0 0 1920 1080" xml:space="preserve">

<path fill="#F4E0B6" stroke="#FFFFFF" d="M741.539,647.375l-0.316,0.021l-0.001-0.023l-0.015-0.034l-0.007-0.029l-0.123,0.02
	l-0.062-0.011l-0.065-0.038l0.164-0.064l0.042-0.008l0.053,0.007l0.106,0.036l0.055,0.001l0.111-0.039l0.088-0.046l0.095-0.021
	l0.127,0.044l0.095,0.035l0.041,0.026l-0.015,0.026l-0.15,0.093l-0.05,0.023l-0.057,0.006L741.539,647.375z M740.981,644.954
	l-0.033,0.02l0.015-0.035L740.981,644.954z"/></svg>