<?xml version="1.0" encoding="utf-8"?>
<!-- Generator: Adobe Illustrator 15.0.0, SVG Export Plug-In . SVG Version: 6.00 Build 0)  -->
<!DOCTYPE svg PUBLIC "-//W3C//DTD SVG 1.1//EN" "http://www.w3.org/Graphics/SVG/1.1/DTD/svg11.dtd">
<svg version="1.1" id="Ebene_1" xmlns="http://www.w3.org/2000/svg" xmlns:xlink="http://www.w3.org/1999/xlink" x="0px" y="0px"
	 width="1920px" height="1080px" viewBox="0 0 1920 1080" enable-background="new 0 0 1920 1080" xml:space="preserve">

<path fill="#F4E0B6" stroke="#FFFFFF" d="M1270.805,414.284l0.264,2.053l0.256,2.073l-1.474,0.045l-1.475,0.042l0.012-0.023
	l0.063-0.189l0.062-0.069l0.084-0.035l0.169-0.046l0.078-0.047l0.063-0.069l0.052-0.085l0.074-0.178l0.043-0.195l0.035-0.096
	l0.056-0.075l0.063-0.038l0.145-0.046l0.066-0.037l0.12-0.133l0.072-0.156l0.088-0.34l0.064-0.128l0.088-0.086l0.227-0.141
	l0.118-0.112l0.061-0.123l0.071-0.298l0.055-0.161l0.017-0.031l0.325-0.583l0.027-0.136l-0.014-0.145l-0.037-0.174l0.004-0.065
	l0.019-0.06L1270.805,414.284z"/></svg>