<?xml version="1.0" encoding="utf-8"?>
<!-- Generator: Adobe Illustrator 15.0.0, SVG Export Plug-In . SVG Version: 6.00 Build 0)  -->
<!DOCTYPE svg PUBLIC "-//W3C//DTD SVG 1.1//EN" "http://www.w3.org/Graphics/SVG/1.1/DTD/svg11.dtd">
<svg version="1.1" id="Ebene_1" xmlns="http://www.w3.org/2000/svg" xmlns:xlink="http://www.w3.org/1999/xlink" x="0px" y="0px"
	 width="1920px" height="1080px" viewBox="0 0 1920 1080" enable-background="new 0 0 1920 1080" xml:space="preserve">

<path fill="#F4E0B6" stroke="#FFFFFF" d="M1069.146,503.729l0.044,0.079l-0.175,0.034l0,0v-0.001l0.006-0.411l-0.036-0.308
	l-0.09-0.403l-0.169-0.379l-0.023-0.082l-0.024-0.015l-0.009-0.047l-0.066-0.078l-0.138-0.277l-0.082-0.109l0.129,0.063l0.135,0.177
	l0.206,0.378l0.022,0.058l0.018,0.084l0.022,0.054l0.085,0.165l0.012,0.084l0.001,0.09l0.022,0.074l0.076,0.037l0.015,0.027
	l-0.011,0.063v0.104l0.015,0.116l0.03,0.098l0.016,0.103L1069.146,503.729z M1075.443,494.004l0.163,0.148l0.209,0.228l0.07,0.066
	l0.048,0.031l0.126,0.046l0.047,0.029l0.118,0.116l0.142,0.092l0.116,0.017l0.595-0.212l0.262-0.095l0.134-0.119l0.146-0.007
	l0.042-0.014l0.127-0.09l0.035-0.004l0.037,0.029l0.127,0.119l0.045,0.033l0.044,0.013l0.186,0.021l0.111,0.041l0.29,0.104
	l0.286,0.025l0.179,0.014l0.236,0.084l0.344,0.074l0.111,0.061l0.129,0.099l0.253,0.157l0.208,0.03l0.406-0.027l0.148-0.039
	l0.133-0.067l0.082,0.087l0.075,0.109l0.063,0.114l0.033,0.107l0.001,0.101l-0.014,0.101l0.003,0.104l0.05,0.108l0.096,0.063
	l0.021,0.054l-0.027,0.135l0.009,0.059l0.064,0.176l0.008,0.049l0.011,0.139l0.025,0.091l0.036,0.038l0.052,0.005l0.165-0.028
	l0.04-0.021l0.111-0.121l0.414-0.157l0.077,0.01l0.063,0.059l0.016,0.083l-0.028,0.078l-0.047,0.051l-0.071,0.079l-0.022,0.043
	l-0.022,0.108l-0.005,0.074l0.012,0.054l0.056,0.125l0.048,0.138l0.002,0.082l-0.044,0.04l-0.306,0.031l-0.03,0.024l-0.007,0.032
	l0.001,0.033l-0.004,0.024l-0.018,0.021l-0.019,0.011l-0.292,0.083l-0.09,0.08v0.164l0.023,0.051l0.063,0.103l0.026,0.053
	l0.011,0.042l0.031,0.245v0.088l-0.002,0.085l-0.01,0.061l-0.052,0.1l-0.24,0.226l-0.043,0.023l-0.095,0.03l-0.042,0.022
	l-0.063,0.091l-0.012,0.04l0.01,0.037l0.019,0.04l0.012,0.051l-0.013,0.088l-0.027,0.075l-0.016,0.077l0.023,0.094l0.024,0.036
	l0.069,0.072l0.021,0.034l0.012,0.042l-0.007,0.015l-0.016,0.009l-0.015,0.025l-0.022,0.077l-0.002,0.053l0.025,0.061l0.135,0.21
	l0.021,0.046l0.018,0.049l0.01,0.046l0.015,0.047l0.029,0.054l0.064,0.075l0.144,0.115l0.062,0.074l0.036,0.091l0.006,0.084
	l-0.015,0.074l-0.089,0.171l-0.005,0.071l0.024,0.1l0.055,0.116l0.053,0.087l0.039,0.085l0.012,0.115l-0.026,0.198l0.009,0.117
	l0.06,0.107l0.063,0.036l0.062-0.009l0.096-0.066l0.094-0.16l0.028-0.03l0.042,0.001l0.034,0.026l0.031,0.037l0.068,0.06l0.018,0.01
	l0.011-0.003l0.021-0.026l0.012-0.003l0.037,0.014l0.038,0.018l0.041,0.027l0.042,0.037l0.018,0.008l0.016-0.002l0.017,0.002
	l0.021,0.021l0.006,0.021l-0.005,0.056l0.005,0.024l0.109,0.192l0.021,0.076l-0.028,0.074l-0.024,0.021l-0.094,0.039l-0.019,0.026
	l-0.006,0.076l-0.014,0.029l-0.051,0.031l-0.226,0.084l-0.082,0.004l-0.083-0.022l-0.062-0.065v-0.04l0.053-0.063l-0.002-0.041
	l-0.035-0.028l-0.073,0.001l-0.019-0.045l0.03-0.057l0.058-0.026l0.01-0.028l-0.302-0.141l-0.024-0.016l-0.024-0.007l-0.034,0.009
	l-0.041,0.065l-0.007,0.199l-0.034,0.071l-0.183,0.123l-0.181,0.03l-0.037,0.032l0.002,0.072l0.067,0.225l0.013,0.11l-0.029,0.168
	l-0.062,0.128l-0.094,0.078l-0.228,0.03L1081,503.69l-0.101,0.074l-0.009,0.015l-0.042,0.083l0.006,0.032l0.019,0.032l0.018,0.027
	l0.009,0.017l-0.026,0.053l-0.005,0.04l-0.014,0.011l0.003,0.016l0.048,0.058l0.079,0.075l0.073,0.053l0.067,0.068l0.061,0.117l0,0
	v0.001l0,0l0.012,0.088l-0.028,0.047l-0.136,0.113l-0.046,0.021l-0.055-0.016l-0.077-0.065l-0.012-0.001l-0.01,0.002l-0.008,0.007
	l-0.029,0.078l-0.132,0.116l-0.077,0.14l-0.123,0.407l-0.06,0.094l-0.084,0.046l-0.089,0.019l-0.077,0.048l-0.051,0.017
	l-0.048-0.027l-0.109-0.098l-0.114-0.047l-0.089,0.014l-0.068,0.059l-0.099,0.164l-0.059,0.06l-0.148,0.086l-0.045,0.011
	l-0.097-0.008l-0.045,0.004l-0.032,0.027l-0.118,0.21l-0.017,0.013l-0.023,0.004l-0.058-0.003l-0.019,0.006l-0.027,0.035
	l-0.022,0.055l-0.136,0.104l-0.087,0.118l-0.035,0.024l-0.049,0.006l-0.288-0.019l-0.094,0.022l-0.004-0.031l-0.012-0.024
	l-0.019-0.017l-0.024-0.011l-0.038-0.008l-0.036-0.02l-0.03-0.033l-0.024-0.046l0.002-0.025l0.003-0.023l0.015-0.042l-0.002-0.084
	l-0.053-0.095l-0.146-0.179l-0.067-0.08l-0.079-0.08l-0.079-0.066l-0.074-0.04l-0.028-0.002l-0.06,0.012l-0.034-0.004l-0.039-0.021
	l-0.092-0.063l-0.042-0.026l-0.066-0.015l-0.069-0.017l-0.233,0.028l-0.122-0.01l-0.217-0.049l-0.056,0.001l-0.041,0.037
	l-0.042,0.055l-0.054,0.029l-0.077-0.039l-0.024-0.045l-0.014-0.056l-0.014-0.045l-0.027-0.016l-0.087,0.033l-0.036-0.004
	l-0.03-0.02l-0.028-0.028l-0.032-0.025l-0.04-0.014l-0.027,0.007l-0.047,0.04l-0.027,0.01l-0.185-0.001l-0.055,0.02l-0.042,0.061
	v0.008l0.005,0.148l-0.024,0.062l-0.288-0.19l-0.143-0.114l-0.105-0.159l-0.164-0.34l-0.06-0.231l-0.032-0.082l-0.027-0.045
	l-0.068-0.089l-0.023-0.044l-0.006-0.035l0.008-0.108l-0.009-0.018l-0.017-0.017l-0.017-0.018l-0.006-0.024l0.004-0.011l0.017-0.015
	l0.012-0.036l0.029-0.046l0.006-0.033v-0.075l0.042-0.095l0.014-0.06l-0.011-0.091l-0.035-0.078l-0.054-0.074l-0.13-0.155
	l-0.049-0.044l-0.048-0.021l-0.178,0.005l-0.037-0.022l-0.006-0.072l-0.038,0.004l-0.037-0.016l-0.033-0.02l-0.024-0.01
	l-0.026,0.004l-0.131,0.071l-0.051-0.001l-0.055-0.038l-0.084-0.079l-0.146-0.174l-0.073-0.071l-0.036-0.017l-0.022-0.01
	l-0.076-0.003l-0.202,0.207l-0.417,0.154l-0.047,0.017l-0.217,0.204l-0.013,0.048l-0.005,0.053l-0.026,0.057l-0.05,0.034
	l-0.075,0.011l-0.077-0.02l-0.06-0.061l-0.038-0.07l-0.033-0.044l-0.04-0.007l-0.058,0.038l-0.035,0.081l-0.015,0.02l-0.028,0.003
	l-0.079-0.011l-0.095,0.021l-0.062-0.008l-0.12-0.033l-0.183,0.046l-0.06-0.015l-0.07-0.036l-0.239-0.051l-0.122-0.001l-0.242,0.113
	l-0.124-0.03l-0.287-0.191l-0.112-0.041l-0.054,0.039l-0.104,0.268l0,0l-0.008-0.022l-0.063-0.095l-0.017-0.032l0.007-0.026
	l0.02-0.002l0.016-0.01l-0.009-0.051l-0.023-0.034l-0.043-0.042l-0.044-0.036l-0.025-0.011l-0.029-0.009l-0.032-0.042l-0.05-0.1
	l-0.027,0.009l-0.062,0.206l-0.031-0.027l-0.006-0.009l0.006-0.007l-0.025-0.263l0.002-0.043l0.012-0.066l-0.057-0.107l-0.12-0.162
	l-0.097-0.115l-0.021-0.033l-0.019-0.009l-0.036-0.016l-0.041-0.024l-0.032-0.036l-0.025-0.054l-0.015-0.037l-0.017-0.033
	l-0.03-0.041l-0.218-0.204l-0.058-0.068l-0.051-0.079l-0.037-0.036l-0.191-0.13l-0.037-0.016l-0.029-0.004l-0.029-0.021
	l-0.067-0.104l-0.067-0.074l-0.23-0.352l-0.103-0.193l-0.02-0.05l-0.01-0.072l-0.017-0.043l-0.198-0.376l-0.093-0.148l0.076-0.068
	l0.137-0.07l0.078-0.074l-0.01-0.101l-0.047-0.129l-0.035-0.162l0.008-0.126l0.032-0.137l0.045-0.119l0.05-0.075l0.104-0.059
	l0.028-0.031l0.183-0.427l0.06-0.09l0.199-0.113l0.472-0.654l0.029-0.042l0.186-0.259l0.107-0.045l0.057,0.001l0.121,0.023
	l0.055-0.004l0.665-0.379l0.165-0.042l0.008,0.001l0.079,0.002l0.163,0.061l0.049-0.003l0.032-0.024l0.243-0.313l0.049-0.107
	l0.04-0.085l0.072-0.059l0.099,0.004l0.123,0.097l0.2,0.171l0.15,0.031l0.099-0.091l0.041-0.192l-0.045-0.035l0.026-0.052
	l0.227-0.208l0.056-0.017l0.19-0.013l0.294-0.021l0.084-0.039l0.09-0.161l0.059-0.063l0.162-0.078l0.056-0.045l0.022-0.002
	l0.035,0.02l0.022,0.03l0.013,0.029l0.011,0.013l0.077-0.027l0.134-0.124l0.076-0.04l0.035-0.006l0.296-0.052l0.312,0.061
	l0.102,0.003l0.076-0.024l0.003-0.003l0.053-0.045l0.186-0.304l0.062-0.052l0.09-0.01l0.207,0.032l0.086-0.021l0.056-0.079
	l0.084-0.154l0.016-0.072l0.029-0.368l0.046-0.126l0.059-0.085l0.147-0.212l0.021-0.014l0.062-0.008l0.016-0.014l-0.007-0.046
	l-0.026-0.049l-0.018-0.05l0.013-0.049l0.058-0.01L1075.443,494.004z"/></svg>