<?xml version="1.0" encoding="utf-8"?>
<!-- Generator: Adobe Illustrator 15.0.0, SVG Export Plug-In . SVG Version: 6.00 Build 0)  -->
<!DOCTYPE svg PUBLIC "-//W3C//DTD SVG 1.1//EN" "http://www.w3.org/Graphics/SVG/1.1/DTD/svg11.dtd">
<svg version="1.1" id="Ebene_1" xmlns="http://www.w3.org/2000/svg" xmlns:xlink="http://www.w3.org/1999/xlink" x="0px" y="0px"
	 width="1920px" height="1080px" viewBox="0 0 1920 1080" enable-background="new 0 0 1920 1080" xml:space="preserve">

<path fill="#F4E0B6" stroke="#FFFFFF" d="M544.688,470.073l-0.014-0.04l-0.008-0.043l-0.071-0.206l0.013-0.123l0.063-0.031
	l0.101,0.111l0.072,0.324l-0.009,0.032l-0.037,0.013h-0.044l-0.031-0.007L544.688,470.073z M651.407,586.831l-0.023-0.019
	l0.041-0.018l0.134-0.021l0.083-0.02l0.055-0.022l0.112-0.075l0.216-0.184l0.042-0.024l0.045-0.021l0.052-0.016l0.063-0.007
	l-0.19,0.074l-0.128,0.178l-0.17,0.094L651.407,586.831z M652.75,586.271l-0.127,0.045l0.115-0.093l0.244-0.332l0.003,0.093
	l-0.14,0.199L652.75,586.271z M636.529,572.841l-0.056,0.053l-0.005-0.025l0.001-0.023l-0.139-0.019l-0.066-0.021l-0.059-0.035
	l0.046-0.013l0.045-0.003l0.046,0.009l0.048,0.018l-0.084-0.056l-0.188-0.061l-0.055-0.05l-0.354,0.065l-0.202-0.008l-0.161-0.084
	l0.213-0.063l-0.323-0.056l-0.171-0.053l-0.141-0.077l-0.077-0.062l-0.02-0.03l0.044-0.011l0.117-0.007l0.068,0.011l0.243,0.076
	l0.135,0.065l0.321,0.073l0.248,0.035l0.245,0.088l0.251,0.07l0.072,0.049l-0.004,0.048l-0.011,0.046L636.529,572.841z
	 M552.755,493.786l-0.037-0.114l-0.026-0.135l-0.089-0.092l0.059-0.149l0.038-0.127l0.024-0.127l0.027-0.354l0.042-0.017
	l0.106-0.023l0.144-0.013l0.135,0.037l0.249,0.153l-0.007,0.161l-0.058,0.216l-0.099,0.174l-0.132,0.034l-0.007,0.109l-0.058,0.132
	l-0.089,0.113l-0.101,0.056L552.755,493.786z M556.016,492.698L556,492.694l0.013-0.032l0.036-0.042l0.056-0.029l0.056-0.003
	l0.145,0.02h0.066l0.078-0.043l-0.019,0.077l-0.035,0.073l-0.094,0.137l-0.142-0.115l-0.075-0.042L556.016,492.698z
	 M661.218,580.698l-0.326,0.108l-0.157,0.081l-0.116,0.011h-0.194l-0.099,0.025l-0.246,0.092l-0.076,0.049l-0.033,0.006
	l-0.053-0.009h-0.058l-0.05,0.023l-0.039,0.013l-0.072,0.013l-0.353,0.014l-0.084-0.02l0.006-0.055l0.057-0.081l0.093-0.193
	l0.064-0.095l0.154-0.145l0.176-0.106l0.387-0.139l0.255-0.059l0.037,0.01l0.104-0.002l0.046,0.009l0.032,0.023l0.014,0.027
	l0.008,0.024l0.008,0.016l0.033,0.041l0.06,0.104l0.028,0.034l0.06,0.027l0.124,0.019l0.038,0.045l0.087,0.029l0.097,0.004
	l0.074-0.034l0.021-0.008l0.017,0.013l0.005,0.027l-0.016,0.032l-0.019,0.005L661.218,580.698z M663.572,578.317l-0.048,0.235
	l-0.025-0.105l0.03-0.165l0.063-0.139l0.081-0.028l-0.06,0.085L663.572,578.317z M586.286,509.184l0.007,0.028l-0.005,0.028
	l-0.108,0.058l-0.095,0.05l-0.023-0.055l-0.073-0.028l-0.045-0.139l0.028-0.084l0.183,0.021l0.076,0.084L586.286,509.184z
	 M586.176,507.754l0.015,0.08l0.071,0.104l0.075,0.084l0.056,0.061l-0.047,0.037l0.002,0.065l-0.045,0.031l-0.12-0.052l-0.096,0.033
	l-0.066,0.023l-0.058-0.076l-0.056-0.155l-0.058-0.072l-0.012-0.105l-0.071-0.097l0.026-0.118l0.167,0.043l0.111,0.019l0.04,0.055
	L586.176,507.754z M586.271,506.192l0.063,0.114l0.099,0.089l0.021,0.077l0.096,0.229l0.005,0.096l-0.056,0.021l-0.073,0.025
	l-0.007,0.096v0.058l-0.018,0.049l0.003,0.032l0.007,0.028l-0.063-0.015l-0.058,0.01l-0.04,0.041l-0.026,0.034l-0.054-0.023
	l-0.033,0.013l-0.054-0.004l-0.058-0.006l-0.045,0.026l-0.005-0.028l-0.028-0.019l0.033-0.015l0.045-0.006v-0.054l-0.022-0.039
	l-0.107-0.216l-0.059-0.254l0.023-0.007l0.031-0.008l0.038-0.026l0.015-0.06l0.04-0.07l0.023-0.085l0.009-0.04l0.051,0.016
	l0.053-0.033l0.051-0.042v-0.075L586.271,506.192z M586.579,505.834l-0.035,0.029l0.01,0.03l-0.056,0.05l-0.071-0.009l-0.009,0.048
	l-0.159-0.052l0.056-0.109l0.093-0.024l0.096-0.019l0.014,0.039L586.579,505.834z M624.285,541.911l-0.082,0.01l-0.097-0.123
	l0.044-0.197l0.123-0.209l0.14-0.155v0.101l-0.058,0.087l-0.073,0.087l-0.045,0.101l0.048,0.21V541.911z M657.285,564.914
	l0.033,0.194l-0.028,0.252l-0.075,0.174l-0.222,0.145l-0.154,0.073l-0.099-0.01l-0.038-0.054l-0.04-0.096l-0.002-0.046l0.051-0.035
	l0.031-0.088l0.038-0.016l0.079,0.033l0.134,0.002l0.095-0.083l0.009-0.124l-0.003-0.099l0.063-0.084l-0.04-0.113l-0.062-0.104
	l-0.084-0.034l-0.071,0.035l-0.018-0.04l0.062-0.038l0.084-0.014l0.1-0.028l0.077,0.028L657.285,564.914z M627.312,537.935
	l-0.14-0.058l0.07-0.017l0.122,0.003l0.061-0.007l0.238-0.083l0.089-0.006l-0.062,0.077l-0.177,0.067L627.312,537.935z
	 M584.965,483.912l-0.115,0.033l-0.034-0.067l-0.054-0.086l-0.12-0.162l-0.025-0.069l0.051-0.013l0.031-0.115l0.051-0.143
	l0.137-0.17l0.114-0.146l0.061-0.016l0.067-0.005l0.121-0.222l0.193-0.089l0.083-0.041l0.02,0.035l-0.023,0.069l-0.063,0.05
	l-0.022,0.097l-0.021,0.058l-0.017,0.065l-0.072,0.113l-0.064,0.123l-0.016,0.1l-0.083,0.161v0.05l-0.023,0.108l-0.08,0.151
	l-0.05,0.039L584.965,483.912z M582.27,472.785l0.013,0.148l0.009,0.204l-0.063,0.332l-0.027,0.045l0.019-0.5l-0.032-0.182
	l-0.053-0.223l-0.125-0.219l-0.069-0.147l0.019-0.069l0.07,0.017l0.046,0.029v0.082l0.04,0.098l0.072,0.161l0.025,0.107
	L582.27,472.785z M582.245,469.952l0.02,0.068l0.104,0.327l0.037,0.143l0.045,0.092l-0.03,0.112l0.04,0.07l-0.069,0.029
	l-0.056,0.083l-0.014,0.073l-0.061,0.055l0.019,0.129l0.031,0.141l-0.037,0.172l-0.21,0.318l-0.052,0.153l0.029,0.064l-0.033,0.035
	l-0.093-0.002l-0.047,0.068l-0.101,0.002l-0.083-0.019l-0.091,0.066l0.142-0.291l0.057-0.169l0.082-0.385l0.079-0.307l0.063-0.213
	l0.029-0.267l0.025-0.062l-0.003-0.077l0.053-0.129l0.01-0.246l-0.004-0.178l0.033-0.052l0.1,0.069L582.245,469.952z
	 M585.431,479.55l-0.081,0.021l0.024,0.116l-0.035,0.172l-0.041,0.093l0.014,0.066l-0.071,0.06l-0.049,0.075l-0.022,0.071
	l-0.068,0.007l-0.037-0.082L585,480.141l-0.064,0.071l-0.051-0.038l-0.057-0.006l-0.095,0.025l-0.033-0.137l0.046-0.032l0.027-0.043
	l0.068-0.011l0.016-0.054l-0.009-0.054l-0.048-0.023l0.043-0.04l0.036-0.043l0.061,0.087l0.025-0.024l-0.007-0.046l0.025-0.026
	l0.004-0.063l0.014-0.062l0.037-0.052l0.075-0.065l0.049,0.003l0.011-0.072l0.043-0.018l0.051,0.064l0.048,0.021l-0.024-0.05
	l0.008-0.083l0.061-0.023l-0.033-0.062l0.035-0.035l0.048,0.003l0-0.066l0.03-0.042l0.091,0.061l0.056-0.013l0.001,0.079
	l-0.051,0.072l-0.03,0.062l-0.031,0.095L585.431,479.55z M586.492,477.482l-0.025,0.038l-0.028,0.014l-0.012-0.041l0.037-0.022
	l-0.01-0.035l-0.019-0.034l0.027-0.062l0.018-0.005l0.065,0.046l0.029,0.022l-0.007,0.033l-0.061,0.017L586.492,477.482z
	 M578.053,447.333l-0.003-0.005l0.002-0.004l0.004-0.002l0.003,0.005l-0.001,0.003L578.053,447.333z M587.518,476.698l-0.038,0.042
	l-0.006,0.05l-0.018,0.073l-0.053,0.024l-0.028,0.069l-0.083,0.065l-0.14,0.044l-0.082,0.126l-0.039,0.065l-0.065,0.072l-0.08,0.148
	l-0.038,0.086l-0.034-0.039l-0.06-0.111l-0.012-0.06l-0.024-0.051l-0.06-0.019l0.004-0.035l0.04,0.008l0.047,0.013l0.042-0.025
	l0.007-0.077l0.018-0.09l0.002-0.108l0.026-0.014l0.009-0.077l-0.03-0.067l-0.025-0.06l0.035-0.016l0.045,0.011l0.062-0.088
	l-0.002-0.076l0.074-0.082l0.045-0.023l0.036-0.061l0.027-0.067l0.047-0.034l0.068-0.051l0.035-0.065l-0.032-0.086l0.038-0.078
	l-0.02-0.048l0.049-0.05l0.074-0.041l0.047-0.002l0.067-0.041l0.109-0.042l0.041-0.008l0.019,0.002v0.035l-0.035,0.069l-0.124,0.143
	l-0.039,0.136l0.033,0.169l0.017,0.191L587.518,476.698z M584.32,467.535l-0.071,0.036l-0.039-0.036l0.01-0.064l-0.084-0.01
	l-0.05,0.014l-0.154,0.093l-0.049-0.033l-0.122,0.099l-0.039,0.073l-0.025,0.058l-0.043-0.016l-0.017-0.078l-0.019-0.051h-0.036
	l-0.033,0.003l-0.048-0.005l-0.04,0.04l-0.075,0.054l-0.027,0.034l-0.01,0.076l-0.014,0.062l-0.023,0.05l-0.014,0.032l0.008,0.048
	l-0.016-0.006l-0.015-0.022l-0.01,0.017l-0.046,0.096l-0.076,0.064l-0.07,0.196l-0.035,0.07l-0.065,0.04l-0.032,0.014l-0.01,0.032
	l0.011,0.021l-0.078,0.094l-0.1-0.021l-0.045-0.011l-0.055-0.028l-0.053,0.007l-0.027,0.034l-0.049,0.053l-0.021,0.237l-0.039,0.07
	l-0.082,0.169l0.015,0.042l-0.058,0.031l-0.019,0.053l-0.062,0.083l-0.072,0.022l-0.006-0.055l0.005-0.162l0.02-0.086h0.031
	l0.09-0.086l0.065-0.091l0.041-0.112l0.019-0.081l-0.019-0.053l0.103-0.142l-0.004-0.084l0.028-0.045l0.053,0.026l0.054-0.015
	l0.02,0.033l0.005,0.053l0.015,0.042l0.061,0.011l0.096-0.035l0.08-0.067l0.077-0.087l0.04-0.087l0.042-0.103l0.025-0.068l0.03-0.11
	l0.012-0.124l0-0.049l-0.003-0.072l-0.019-0.08l-0.016-0.046l-0.014-0.025l-0.032-0.025l-0.045-0.004l-0.035,0.02l-0.087,0.067
	l-0.015-0.003l0.028-0.078l0.07-0.064l0.041-0.241l0.061-0.012l0.023-0.014l0.016,0.005l0.031,0.051l0.166,0.013l0.264-0.019
	l0.777-0.068l0.262-0.034l0.528-0.095l0.401-0.088l0.144-0.063l0.061-0.001l0.026,0.071l-0.223,0.154l-0.11,0.014l-0.229,0.01
	l-0.135-0.013l-0.37,0.107l-0.165,0.021l-0.064,0.091l-0.045,0.048l-0.074,0.022l-0.036,0.058L584.32,467.535z M588.473,475.305
	l-0.037-0.024l-0.015-0.055l0.031-0.024l0.052-0.059l0.055-0.022l0.127,0.055l0.021,0.06l0.021,0.046l0.041,0.019l-0.02,0.02
	l-0.037-0.011l-0.091-0.019l-0.097,0.032L588.473,475.305z M595.491,484.298l0.128,0.287l0.024,0.076l-0.053,0.171l0.009,0.085
	l-0.126-0.047l-0.068-0.192l-0.044-0.229l-0.06-0.158l-0.026-0.036l-0.017-0.053l-0.022-0.042l-0.032-0.043l-0.259-0.283
	l-0.029-0.082l0.052-0.067l0.464,0.52L595.491,484.298z M585.919,466.978l-0.019-0.026l0.019-0.064l0.031-0.066l0.087-0.021
	l0.091,0.011l0.183-0.045l0.229-0.093l0.213-0.063l0.1-0.036l0.11-0.081l0.03,0.006l-0.006,0.036l-0.073,0.033l-0.084,0.054
	l-0.125,0.054l-0.099,0.046l-0.115,0.022l-0.152,0.061l-0.097,0.087l-0.087,0.037l-0.073-0.01l-0.077,0.002L585.919,466.978z
	 M590.118,474.1l-0.045-0.059l0.013-0.152l0.168-0.232l0.16-0.076l0.128,0.009l0.095,0.012l0.031,0.047l-0.081,0.07l0.005,0.052
	l-0.101,0.024l-0.13,0.124L590.118,474.1z M590.161,472.089l-0.042,0.064l-0.016,0.064l-0.01,0.035l-0.065,0.081l-0.055,0.006
	l-0.063-0.006l-0.051-0.015l-0.007-0.043l0.044-0.087l0.023-0.037l0.048-0.017l0.061-0.087l0.025-0.05l0.036-0.023l0.024,0.098
	l0.028-0.014L590.161,472.089z M590.035,470.731l-0.012-0.014l0.027-0.064l0.03-0.054l0.052-0.024l0.053-0.023l0.037-0.042
	l0.02,0.003l-0.001,0.023l-0.046,0.037l-0.002,0.041l-0.028-0.001l-0.019,0.038l-0.011,0.014l-0.021-0.011l-0.038,0.028
	l-0.015,0.034L590.035,470.731z M591.956,470.956l-0.122-0.034l-0.148,0.007l-0.152,0.091l0.013,0.069l-0.057,0.026l-0.006,0.042
	l-0.054,0.027l-0.036,0.008l0.019-0.045l-0.009-0.044l0.034-0.07l0.003-0.05l0.045-0.077l-0.023-0.064l-0.037-0.03l-0.029,0.019
	l-0.055,0.021l-0.092-0.019l-0.067-0.036l-0.125-0.019l-0.138-0.054l-0.07-0.015l-0.02,0.031l-0.091,0.011l-0.073,0.055
	l-0.065-0.015l-0.021-0.051l-0.068-0.007l-0.1,0.066l-0.074,0.056l-0.04-0.007l0.045-0.083l-0.004-0.043l0.011-0.079l0.038-0.017
	l0.055-0.056l0.048-0.016l0.128,0.022l0.062-0.042l0.186-0.037l0.059-0.042l0.088,0.021l0.071-0.009l0.095,0.006l0.069,0.055
	l0.058,0.005l0.072-0.06l0.113-0.036l0.046-0.076l0.04-0.025l0.039,0.077l0.092,0.142l0.049-0.042l0.042,0.035l-0.023,0.064
	l-0.005,0.118l0.079,0.123l0.054,0.003L591.956,470.956z M591.689,469.553l-0.019-0.023l0.022,0.007l0.027,0.006l0.021-0.009
	l0.01-0.05l0.035-0.02l0.076,0.036l0.012,0.04l0.003,0.032l-0.047,0.034l-0.041,0.009l-0.021-0.007l-0.01,0.038l-0.035,0.007
	l-0.019-0.056L591.689,469.553z M591.205,456.996l-0.002,0.055l0.023,0.01l0.029,0.017l0.021,0.033l-0.002,0.038l-0.057,0.105
	l-0.077,0.141l-0.042,0.076l-0.036,0.024l-0.015-0.046l0.014-0.061l0.013-0.077l0.002-0.171l-0.011-0.187l-0.016-0.153l-0.005-0.072
	l0.01-0.047l0.057,0.013l0.057,0.056l0.069,0.065l0.008,0.055v0.06l-0.01,0.059L591.205,456.996z M599.158,474.678l-0.031-0.036
	l0.051-0.188l-0.017-0.153l-0.008-0.186l-0.021-0.106l0.02-0.074l0.028,0.038l0.01,0.129l0.023,0.213l0.023,0.182L599.158,474.678z
	 M595.722,462.154l-0.101-0.04l-0.02-0.128l0.095-0.083l0.096-0.083l0.039-0.1l0.151,0.043l-0.043,0.194l-0.088,0.173
	L595.722,462.154z M599.241,470.499l-0.088,0.024l-0.017-0.365l0.045-0.133l0.201-0.129l0.124-0.057l0.132-0.025l0.066-0.007
	l-0.208,0.081l-0.224,0.157l-0.053,0.16L599.241,470.499z M597.275,462.593l-0.047-0.104l-0.021-0.077l0.021-0.09l0.064-0.013
	l0.062,0.111l-0.002,0.11l-0.031,0.059L597.275,462.593z M593.406,443.623l-0.027-0.038l0.001-0.034l0.083-0.062l0.042-0.091
	l-0.011-0.09l0.002-0.066l0.04-0.006l0.006,0.082l0.007,0.04l-0.026,0.086l-0.02,0.089l-0.01,0.061l-0.036,0.036L593.406,443.623z
	 M600.917,463.844l-0.063,0.085l-0.012-0.102l0.044-0.069l0.04-0.065l0.059,0.019L600.917,463.844z M594.962,440.299l-0.026,0.045
	l0.036,0.037l0.018,0.06l-0.026,0.031l-0.02-0.056l-0.037-0.004l-0.038-0.061l0.015-0.069l0.027-0.02l0.033,0.001L594.962,440.299z
	 M594.57,442.95l-0.05-0.006l-0.071,0.07l-0.079,0.001l-0.063,0.084l-0.034-0.006l-0.033,0.024l0.001-0.046l0.008-0.036v-0.071
	l-0.051-0.047l-0.034-0.044l0.029-0.048l-0.034-0.063l0.021-0.052l0.132-0.111l0.054-0.137l-0.004-0.139l-0.069-0.076l-0.037-0.073
	l-0.083-0.019l0.038-0.086l0.175-0.049l0.072,0.075l0.418,0.163l0.273,0.073l0.122-0.151l0.158-0.12l0.149-0.039l0.17-0.031
	l0.076,0.045l0.074,0.085l-0.046,0.159l-0.101,0.031l-0.111,0.119l-0.011,0.067l-0.053,0.014l-0.054,0.07l-0.107,0.086l-0.147,0.01
	l-0.107,0.055l-0.074,0.116l-0.102,0.07l-0.105,0.024l-0.042,0.044l-0.067-0.009l-0.046-0.055l-0.04,0.013l-0.067-0.024
	L594.57,442.95z M601.284,454.588l-0.052-0.048l0.012-0.051l0.02-0.026l-0.006-0.032l0.098-0.106l0.018-0.09l0.001-0.121
	l0.045-0.108l-0.031-0.144l0.04-0.004l0.013-0.049l0.029-0.05l0.021-0.055l0.018-0.07l0.035,0.192l-0.07,0.391l-0.041,0.109
	l-0.01,0.059l-0.028,0.043l-0.009,0.1l-0.032,0.039l-0.004,0.051L601.284,454.588z M602.419,455.297l-0.007,0.065l-0.053,0.035
	l-0.015,0.042l-0.061,0.003l-0.075,0.042l-0.085-0.007l-0.053-0.087l-0.021-0.135l-0.036-0.043l0.044-0.001l0.117-0.134l0.1-0.059
	l0.035,0.062l0.034,0.028l0.028,0.136L602.419,455.297z M602.176,449.535l-0.018,0.007l-0.016-0.051l0.006-0.037h0.025l0.014-0.032
	l0.013-0.041l0.028-0.001l0.019,0.007l0.004-0.028l0.031-0.026l0.031-0.013l0.002-0.039l0.031-0.027l0.022-0.039l0.031,0.036
	l0.01,0.038v0.044l-0.02,0.015l-0.032-0.007l-0.022,0.005l-0.007,0.033l-0.025,0.004l-0.041,0.019l-0.021,0.046l-0.03,0.009
	l-0.003,0.029l-0.029,0.016L602.176,449.535z M593.659,425.737l-0.184-0.063l-0.022-0.097l-0.051-0.043l-0.012-0.035l-0.051,0.025
	l0.027-0.065l0.063-0.007l0.036,0.047l0.097-0.093l0.066-0.054l0.087-0.019l0.085-0.07l0.042-0.107l0.096,0.023l0.118-0.102
	l0.053-0.078l0.036-0.08l0.045-0.132l0.075-0.047l0.062-0.059l0.07-0.056l0.087-0.019l0.098,0.005l0.097,0.07l0.082,0.117
	l0.089,0.033l0.05,0.104l-0.015,0.104l-0.1-0.045l-0.081-0.031l-0.077,0.02l-0.086,0.076l-0.069,0.096l-0.017,0.095l-0.099,0.165
	l-0.21,0.141l-0.105-0.002l-0.164,0.114L593.659,425.737z M605.368,455.498l-0.072,0.066l-0.033,0.091l-0.021,0.025l-0.047,0.002
	l-0.05,0.017l-0.06-0.005l-0.05,0.063l-0.082,0.018l-0.135,0.311l-0.289,0.41l-0.205-0.006l-0.164,0.079l-0.273,0.059l-0.1-0.043
	l-0.055,0.066l-0.127-0.038l-0.105,0.024l-0.091-0.03l-0.1,0.022l-0.098,0.075l0.003,0.073l-0.041,0.072l-0.047-0.039l0.001-0.076
	l-0.053-0.063l-0.122-0.068l0.048-0.132l-0.025-0.111l-0.061-0.056l0.053-0.078l-0.021-0.086l0.06-0.142l0.011-0.094l-0.041-0.061
	l0.005-0.067l-0.043-0.101l0.002-0.074l0.067-0.04l-0.033-0.153l0.045-0.038l0.009-0.17l0.013-0.177l0.03-0.103l-0.024-0.057
	l0.014-0.072l0.133,0.104l0.14,0.115l0.126,0.032l0.03,0.026l0.05,0.001l0.059-0.004l0.052,0.003l0.069-0.005l0.039-0.046
	l0.027-0.08l0.198-0.127l0.22-0.096l0.222-0.064l0.206-0.034l0.079-0.001l0.083,0.015l0.08,0.032l0.07,0.055l-0.031,0.121
	l0.04,0.111l0.118,0.074l0.095,0.06l0.054,0.096l0.049,0.148l0.044,0.082l0.074,0.039l0.064,0.024l0.047,0.062l-0.048,0.008
	L605.368,455.498z M604.58,448.258l0.027,0.127l-0.04,0.104l-0.071,0.225l-0.103,0.136l0.011,0.144l-0.039,0.024l-0.024,0.07
	l-0.038,0.015l-0.042,0.101l-0.074,0.113l-0.046,0.01l-0.021,0.094l-0.069-0.035l-0.085-0.031l-0.089,0.028l-0.039,0.042
	l-0.116,0.073l-0.024,0.166l0.045,0.219l-0.031,0.073l0.023,0.063l0.058,0.023l0.021,0.069l0.001,0.053l0.047,0.085l0.035,0.087
	l0.009,0.087l0.065,0.113l-0.039,0.11l-0.101-0.013l-0.104,0.059l-0.045,0.065l-0.099,0.045l-0.056,0.03l-0.016,0.048h-0.061
	l-0.111,0.04l-0.138,0.067l-0.037,0.045l-0.074,0.114l-0.027,0.036l-0.055,0.01l-0.067,0.091l0.011,0.058l0.004,0.082l-0.008,0.048
	l0.015,0.091l-0.16-0.009l-0.057,0.044l-0.144,0.072l-0.007-0.05l0.045-0.102l-0.003-0.069l0.045-0.099l-0.005-0.197l0.072-0.091
	l0.011-0.111l-0.004-0.08l0.023-0.1l0.047-0.07l0.014-0.053l0.066-0.063l0.046-0.104l0.047-0.13l0.043-0.072l-0.017-0.066
	l0.029-0.067l0.001-0.087l0.012-0.125l0.068-0.085l0.001-0.156l0.038-0.134l0.103-0.211l0.052-0.005l0.06-0.074l0.034-0.114
	l-0.03-0.076l-0.035-0.087l0.007-0.092l0.051-0.069l0.087-0.053l0.035-0.062l0.015-0.087l0.059-0.074l0.014-0.054l0.049-0.053
	l0.029-0.107l0.035-0.031l0.036-0.087l0.027-0.12l0.109-0.082l0.123-0.031l0.133,0.022l0.158-0.025l0.074-0.064l0.07-0.05
	l0.042,0.048l-0.027,0.023l-0.006,0.061l0.048,0.058l0.046,0.05l0.034-0.017l0.021,0.068l-0.058,0.03L604.58,448.258z
	 M605.013,442.595l-0.03-0.059l0.01-0.095l0.059,0.008l0.046-0.039l0.026,0.086l-0.078,0.049L605.013,442.595z M604.552,432.813
	l-0.021-0.051l0.002-0.046l0.029-0.014l0.037,0.031l0.003,0.025l-0.025,0.043L604.552,432.813z M612.966,437.056l-0.118,0.156
	l-0.024-0.065v-0.07l0.019-0.064l0.029-0.05l-0.111-0.073l0.012-0.279l0.132-0.27l0.242-0.048l0.031,0.163l-0.082,0.301
	L612.966,437.056z M611.69,423.236l-0.008-0.018l0.047-0.041l0.032-0.021l0.012-0.021l0.041-0.033v0.033l-0.014,0.021l-0.043,0.036
	l-0.03,0.027L611.69,423.236z M617.057,444.014l0.188,2.378l0.199,2.401l0.208,2.427l0.219,2.452l0.025,0.312l0.025,0.312
	l0.026,0.314l0.026,0.312l0.025,0.314l0.026,0.314l0.027,0.314l0.027,0.314l0.013,0.168l0.096,0.337l0.119,0.304l0.089,0.224
	l0.089,0.225l0.09,0.226l0.089,0.225l0.089,0.225l0.09,0.227l0.09,0.226l0.09,0.226l0.09,0.226l0.091,0.228l0.09,0.226l0.091,0.228
	l0.091,0.226l0.09,0.227l0.092,0.229l0.091,0.227l0.091,0.229l0.092,0.227l0.092,0.229l0.091,0.229l0.093,0.228l0.092,0.229
	l0.14,0.201l0.152,0.194l0.152,0.194l0.151,0.193l0.152,0.193l0.151,0.193l0.151,0.193l0.151,0.193l0.151,0.192l0.151,0.192
	l0.151,0.193l0.151,0.191l0.151,0.192l0.151,0.191l0.151,0.191l0.15,0.191l0.151,0.191l0.15,0.19l0.151,0.19l0.151,0.19l0.15,0.19
	l0.15,0.19l0.077,0.097l0.073,0.092l0.15,0.189l0.054,0.069l0.096,0.12l0.15,0.189l0.15,0.189l0.15,0.188l0.15,0.188l0.15,0.188
	l0.149,0.188l0.15,0.188l0.149,0.188l0.15,0.187l0.149,0.188l0.15,0.187l0.148,0.186l0.149,0.188l0.149,0.186l0.149,0.187
	l0.149,0.186l0.15,0.185l0.032-0.021l0.034-0.021l0.033-0.02l0.033-0.021l0.033-0.02l0.033-0.021l0.033-0.02l0.033-0.02l0.033-0.021
	l0.033-0.021l0.033-0.019l0.033-0.021l0.033-0.021l0.033-0.02l0.033-0.021l0.034-0.021l0.032-0.021l0.033-0.021l0.033-0.019
	l0.033-0.021l0.034-0.021l0.032-0.02l0.034-0.021l0.033-0.021l0.033-0.02l0.033-0.021l0.033-0.02l0.033-0.021l0.033-0.021
	l0.033-0.02l0.033-0.02l0.033-0.021l0.033-0.021l0.033-0.02l0.033-0.021l0.033-0.021l0.033-0.02l0.033-0.021l0.033-0.02l0.033-0.021
	l0.033-0.021l0.033-0.02l0.033-0.02l0.032-0.021l0.033-0.02l0.033-0.021l0.033-0.021l0.033-0.02l0.033-0.021l0.033-0.021
	l0.033-0.021l0.033-0.02l0.033-0.021l0.033-0.02l0.033-0.02l0.033-0.021l0.033-0.02l0.033-0.021l0.033-0.019l0.033-0.021
	l0.033-0.021l0.033-0.02l0.033-0.021l0.033-0.021l0.088,0.112l0.089,0.113l0.088,0.111l0.089,0.112l0.089,0.112l0.088,0.112
	l0.09,0.111l0.088,0.112l0.088,0.112l0.089,0.111l0.088,0.111l0.089,0.112l0.089,0.111l0.088,0.111l0.089,0.111l0.088,0.111
	l0.089,0.111l0.088,0.111l0.088,0.11l0.088,0.111l0.088,0.111l0.088,0.11l0.088,0.111l0.089,0.11l0.088,0.111l0.088,0.11l0.088,0.11
	l0.087,0.11l0.088,0.111l0.088,0.11l0.087,0.11l0.088,0.109l0.088,0.11l0.088,0.11l0.088,0.109l0.088,0.11l0.088,0.11l0.088,0.109
	l0.089,0.109l0.087,0.11l0.089,0.109l0.087,0.109l0.088,0.109l0.087,0.109l0.088,0.109l0.087,0.109l0.088,0.109l0.087,0.109
	l0.088,0.109l0.088,0.108l0.088,0.108l0.088,0.108l0.088,0.109l0.087,0.108l0.087,0.108l0.089,0.109l0.087,0.108l0.088,0.107
	l0.087,0.108l0.088,0.108l0.087,0.107l0.087,0.108l0.087,0.108l0.087,0.108l0.143,0.173l0.021,0.057l-0.002,0.031l-0.003,0.058
	l0.048,0.093l0.165,0.173l0.07,0.19l-0.014,0.22l-0.068,0.216l-0.086,0.177l-0.219,0.308l-0.039,0.099l-0.049,0.299l-0.035,0.085
	l-0.031,0.046l-0.022,0.022l-0.014,0.022l-0.01,0.045l0.042,0.193l-0.021,0.078l0.04,0.121l0.096,0.202l0.036,0.193l0.037,0.097
	l0.074,0.11l0.033,0.083l0.031,0.255v0.082l-0.016,0.053l-0.051,0.08l-0.018,0.053l0.022,0.107l0.006,0.07l-0.015,0.01l0.034,0.084
	l0.006,0.111l-0.081,0.545l-0.058,0.083l-0.024,0.077l0.07,0.435l0.034,0.086l0.006,0.042l-0.025,0.169l0.011,0.123l0.022,0.098
	l0.004,0.092l-0.043,0.106l-0.114,0.159l-0.029,0.081l0.038,0.135l-0.039,0.244l0.038,0.489l-0.055,0.288l0.001,0.078l0.072,0.139
	l0.089,0.304l-0.001,0.041l-0.009,0.038l-0.002,0.042l0.017,0.055l0.019,0.019l0.025,0.01l0.058,0.006l0.018,0.012l0.022,0.054
	l0.016,0.028l0.011,0.039l-0.031,0.082l0.02,0.051l0.032,0.044l0.014,0.039l-0.012,0.037l-0.042,0.039l0.019,0.008l0.004,0.026
	l-0.013,0.089l0.057,0.005l-0.053,0.333l0.034,0.098l0.049,0.085l0.033,0.113l0.009,0.118l-0.022,0.097l-0.036,0.042l-0.045,0.039
	l-0.038,0.042l-0.018,0.051l0.022,0.048l0.091,0.14l0.009,0.037l-0.028,0.058l-0.028,0.211l-0.037,0.099l-0.035,0.04l-0.086,0.071
	l-0.036,0.039l0.021,0.093l-0.01,0.031l-0.028,0.018l-0.069,0.01l-0.035,0.016l-0.041,0.041l-0.023,0.081l-0.036,0.038l-0.07,0.041
	l-0.033,0.013l-0.018,0.023l-0.021,0.067l-0.005,0.05l0.015,0.074l-0.008,0.044l-0.03,0.034l-0.046,0.039L634,487.044l-0.001,0.033
	l0.02,0.108l-0.057,0.132l-0.077,0.133l-0.044,0.109l0.004,0.042l0.028,0.093l-0.004,0.063l-0.089,0.184l-0.019,0.104l-0.089,0.08
	l-0.166,0.102l-0.115,0.053l-0.207,0.052l-0.099,0.048l-0.096,0.082l-0.177,0.241l-0.037,0.028l-0.078,0.038l-0.036,0.037
	l-0.01,0.033l-0.015,0.093l-0.011,0.026l-0.03,0.047l-0.022,0.137l-0.156,0.195l-0.023,0.042l-0.016,0.129l0.009,0.107l-0.02,0.1
	l-0.154,0.163l-0.065,0.158l-0.04,0.07l-0.056,0.05l-0.044,0.032l-0.029,0.046l-0.009,0.098l0.039,0.278l-0.003,0.092l-0.017,0.032
	l-0.03,0.042l-0.02,0.044l0.005,0.036l0.014,0.039l0.089,0.461l-0.023,0.083l0.099,0.046l0.101,0.11l0.063,0.12l-0.021,0.12
	l0.017,0.143l0.016,0.043v0.042l-0.094,0.179l-0.026,0.229l0.007,0.136l0.056,0.182l-0.034,0.333l0.054,0.208l0.202,0.444
	l0.175,0.288l0.23,0.288l0.026,0.051l0.001,0.06l-0.026,0.049l-0.126,0.035l0.001,0.045l0.028,0.055l0.018,0.049l0.013,0.293
	l0.042,0.159l0.229,0.404l0.102,0.102l0.021,0.035l0.005,0.051l-0.016,0.033l-0.022,0.033l-0.016,0.048l-0.012,0.338l0.061,0.232
	l0.029,0.057l0.008,0.053l-0.003,0.182l0.029,0.073l0.067,0.025l0.073,0.005l0.04,0.03l-0.033,0.102l0.033,0.012l0.072,0.044
	l-0.027,0.011l-0.087,0.031l0.02,0.081l0.216,0.229l0.136,0.254l0.116,0.167l0.139,0.063l0.164-0.03l0.164-0.089l0.043,0.029
	l0.003,0.023l0.098-0.032l0.058-0.01l0.056,0.013l0.221,0.097l0.056,0.014h0.075l0.312-0.048l0.133,0.023l0.032,0.12l0.053-0.005
	l0.288,0.083l0.114,0.09l0.057,0.029l0.016-0.07l-0.024-0.136l0.013-0.059l0.053-0.037l0.214-0.065l0.08-0.056l0.051-0.024
	l0.053,0.002l0.078,0.02l0.024,0.015l0.021,0.023l0.029,0.026l0.05,0.021l0.017-0.014l0.034-0.073l0.029-0.013l0.09-0.005
	l0.051-0.036l0.035-0.048l0.041-0.046l0.064-0.034l0.058-0.009l0.063-0.002l0.424-0.104l0.058,0.015l0.053-0.001l0.04-0.062
	l0.05,0.024l0.023-0.002l0.034-0.061l0.064,0.031l0.047,0.005l0.104-0.015l0.01-0.007l0.171-0.021l0.02,0.012l0.075-0.025
	l0.291-0.027l0.057-0.023l0.042-0.022l0.04-0.013l0.056,0.007l0.028,0.026l0.126,0.146l0.075,0.056l0.197,0.084l0.091,0.05
	l0.006,0.021l-0.028,0.049l0.008,0.026l0.026,0.022l0.021,0.005h0.016l0.068,0.017l0.079-0.007l0.037,0.023l0.345,0.438l0.022-0.003
	l0.211-0.003l0.054-0.018l0.12-0.074l0.053-0.016l0.054,0.008l0.051,0.039l0.056,0.031l0.11-0.021l0.053,0.02l0.045,0.085
	l-0.002,0.085l0.008,0.075l0.078,0.056l-0.06,0.074l0.021,0.071l0.111,0.146l0.069,0.242l0.003,0.071l0.068,0.18l0.362,0.33
	l0.067,0.119l0.108,0.019l0.035,0.07l0.006,0.086l0.02,0.067l0.035,0.035l0.039,0.029l0.043,0.022l0.046,0.01l0.043,0.019
	l0.028,0.041l0.044,0.092l0.115,0.125l0.068,0.022l0.022,0.025l-0.034,0.044l0.007,0.048l0.47,0.67l0.203,0.175l0.073,0.042
	l0.079,0.009l0.094-0.043l0.029-0.001l0.016,0.034l-0.004,0.048l-0.029,0.042l-0.026,0.008l-0.103,0.02l-0.044,0.014l0.051,0.095
	l0.088,0.035l0.101,0.021l0.09,0.054l0.019,0.039l-0.031,0.065l0.012,0.05l0.034,0.045l0.042,0.036l0.047,0.029l0.047,0.021
	l-0.067,0.024l-0.043,0.05l-0.027,0.063l-0.036,0.13l-0.051,0.08l-0.057,0.12l-0.016,0.054v0.055l0.02,0.065l0.092,0.097
	l0.009,0.048l-0.071,0.042l-0.013,0.004l0.012-0.007l-0.052-0.011l-0.073,0.009l-0.072,0.023l-0.044,0.032l-0.013,0.049v0.072
	l0.02,0.055h0.039l0.121-0.032l0.137,0.026l0.087,0.069l-0.03,0.095l-0.096,0.046l-0.145,0.035l-0.142,0.009l-0.085-0.022
	l-0.088-0.068h-0.055l-0.024,0.041l-0.003,0.045l0.042,0.124l0.095,0.059l0.21,0.037l0.081,0.058l-0.002,0.067l-0.06,0.049
	l-0.137,0.01l-0.011,0.01l-0.001,0.032l0.094,0.052l0.105,0.117l0.065,0.138l-0.019,0.11l0.063,0.028l0.031,0.038l0.017,0.04
	l0.019,0.034l0.06,0.047l0.042,0.001l0.018-0.005l0.003,0.005l-0.042,0.083l-0.106,0.103l-0.043,0.057l-0.023,0.055l-0.011,0.06
	l0.001,0.062l0.011,0.059l0.129,0.359l0.005,0.144l-0.024,0.141l0.003,0.047l0.083,0.237l0.015,0.114l-0.015,0.093l-0.069,0.186
	l-0.114,0.038l-0.03,0.07l0.026,0.313l-0.013,0.028l-0.01,0.038l0.028,0.049l0.038,0.051l0.019,0.043l-0.028,0.073l-0.207,0.213
	l-0.094,0.195l-0.072,0.081l-0.12,0.034v0.045l-0.021,0.041l-0.036,0.041l-0.052,0.042l-0.008,0.042l0.009,0.069l-0.003,0.077
	l-0.046,0.07l-0.004,0.022l0.023,0.075l0.005,0.031l-0.021,0.035l-0.073,0.016l-0.018,0.035l0.01,0.034l0.048,0.055l0.009,0.035
	l-0.008,0.032l-0.023,0.052l-0.006,0.032l-0.02,0.052l-0.308,0.396l-0.047,0.116l-0.046,0.267l-0.075,0.049l0.009,0.065l0.042,0.116
	l0.006,0.06l-0.023,0.045l-0.104,0.07l-0.042,0.039l-0.036,0.114l0.021,0.112l0.085,0.197l-0.158-0.063l-0.048,0.004l-0.041,0.04
	l-0.007,0.052l0.004,0.048l-0.009,0.032l-0.132,0.132l-0.112,0.144l-0.036,0.211l-0.038,0.126l-0.064,0.053l-0.098,0.035
	l-0.046,0.094l-0.008,0.116l0.017,0.097l0.079,0.116l0.016,0.032l-0.025,0.038l-0.051,0.051l-0.042,0.054l0.006,0.05l0.046,0.068
	l0.164,0.497l-0.002,0.119l-0.063,0.098l-0.052,0.045l-0.019,0.034l-0.008,0.093l0.004,0.085l0.019,0.033l-0.023,0.016l-0.038,0.01
	l-0.029,0.019l-0.045,0.078l-0.029,0.067l-0.019,0.074l-0.011,0.102l0.032,0.069l0.057,0.091l0.014,0.068l-0.1,0.005l-0.025,0.082
	l-0.02,0.114v0.113l0.028,0.076l-0.01,0.024l-0.055,0.018l-0.093,0.019l-0.034,0.048l0.005,0.045l0.014,0.05l-0.009,0.055
	l-0.034,0.036l-0.099,0.059l-0.034,0.036l0.014,0.021l0.007,0.082l-0.005,0.079l-0.021,0.017l0.07,0.103v0.008l0.002,0.072
	l-0.023,0.074l-0.008,0.084l0.014,0.049l0.042,0.081l0.008,0.038l-0.02,0.042l-0.039,0.045l-0.03,0.044l0.009,0.042l-0.027,0.1
	l-0.01,0.04l0.002,0.032l0.127,0.128l-0.001,0.04l-0.033,0.09l-0.004,0.026l0.041,0.041l0.118,0.042l0.056,0.036l0.017,0.049
	l-0.036,0.104l0.004,0.036l0.04,0.077l0.036,0.101l0.005,0.124l-0.032,0.076l-0.163,0.13l-0.103,0.062l-0.041,0.036l0.002,0.035
	l0.052,0.059l0.012,0.041l-0.02,0.042l-0.045,0.057l-0.02,0.013l-0.148,0.121l-0.058,0.028l-0.125,0.042l-0.092,0.052l-0.071,0.022
	l-0.046,0.03l-0.052,0.018l-0.129-0.007l-0.067,0.01l0.061,0.133l0.008,0.036l-0.005,0.016l-0.025,0.033l-0.005,0.02l0.021,0.058
	l0.003,0.017l-0.011,0.101l-0.028,0.091l-0.047,0.083l-0.071,0.069l-0.091,0.048l-0.227,0.086l-0.089,0.057l-0.011,0.023
	l-0.007,0.034l-0.013,0.04l-0.031,0.037l-0.044,0.018l-0.203,0.034l0,0l-0.002-0.004l-0.056,0.015l-0.026,0.034l-0.02,0.078
	l-0.019,0.026l0.017,0.061l0.059,0.103l0.033,0.096l-0.062,0.037l-0.131,0.024l-0.012,0.078l0.069,0.196l-0.025,0.08l-0.061,0.09
	l-0.164,0.159l-0.066,0.04l-0.058,0.013l-0.06,0.004l-0.072,0.014l-0.063,0.083l-0.045,0.027l-0.027-0.046l0.021-0.036l0.05-0.044
	l0.043-0.049l0.005-0.055l-0.042-0.042l-0.058-0.012l-0.062,0.015l-0.051,0.031l0.073,0.073l-0.038,0.105l-0.015,0.1l0.142,0.058
	l0.07,0.001l0.035-0.013l0.037-0.022l0.071-0.026l0.072-0.014l0.063,0.003l0.125,0.022l0.017,0.102l-0.009,0.029l-0.034,0.038v0.028
	l0.013,0.019l0.001,0.02l-0.039,0.045l-0.17,0.122l-0.055,0.056l-0.086,0.133l-0.056,0.06l-0.2,0.129l-0.037,0.06l-0.023-0.062
	l-0.013-0.079l-0.022-0.054l-0.049,0.009l-0.032,0.054l-0.027,0.143l-0.037,0.057l-0.047,0.114l0.06,0.14l0.142,0.162l-0.007,0.007
	l-0.072,0.099l0.05,0.115l0.07,0.111l-0.011,0.087l-0.072,0.133l-0.044,0.049l-0.062,0.02l-0.084,0.011l-0.074,0.019l-0.037,0.045
	l0.013,0.125l0.058,0.078l0.077,0.061l0.068,0.073l0.006,0.026l-0.012,0.053l0.014,0.027l0.029,0.02l0.086,0.041l0.085,0.088
	l0.01,0.049l-0.032,0.083l0.112,0.009l0.035,0.211l0.1,0.068l0.011,0.054l0.025,0.041l0.039,0.025l0.048,0.002l0.018,0.058
	l0.036,0.021l0.041,0.012l0.031,0.033l0.004,0.032l-0.012,0.108l0.045,0.186l-0.01,0.076l-0.082,0.04l0.054,0.045l0.043,0.05
	l0.024,0.056l0.001,0.064l-0.102-0.001l-0.012,0.023l0.027,0.035l0.021,0.036l0.003,0.131l0.014,0.061l0.037,0.055l0.296,0.143
	l0.047,0.148l0.084,0.135l0.062,0.136l-0.017,0.147l0.131-0.003l0.066,0.125l0.048,0.167l0.072,0.121l-0.11,0.04l-0.042,0.032
	l0.028,0.053l0.095,0.094l-0.004,0.044l-0.044,0.186l-0.004,0.065l0.138,0.393l0.095,0.166l0.12,0.127l0.215,0.129l0.055,0.083
	l-0.067,0.109l0.018,0.048l0.103,0.054l0.171,0.061l0.053,0.046l0.178,0.226l0.257,0.199l0.274,0.268l0.05,0.085l-0.053,0.058
	l0.034,0.059l0.295,0.321l0.056,0.082l0.034,0.091l0.016,0.11l-0.018,0.076l-0.033,0.081l-0.016,0.082l0.06,0.139l-0.003,0.294
	l0.022,0.099l0.033,0.075l0.05,0.068l0.074,0.076l-0.004,0.048l-0.042,0.071l-0.02,0.083l0.063,0.084l0.03,0.003l0.025-0.019
	l0.025-0.009l0.028,0.028l0.004,0.04l-0.018,0.035l-0.011,0.035l0.025,0.044l0.106,0.043l0.079-0.063l0.063-0.099l0.062-0.07
	l0.036-0.005l0.141,0.03l0.019,0.097l0.11,0.06l0.128,0.012l0.074-0.044l0.06,0.037l0.161,0.176l0.257,0.208h-0.001l-0.638,0.355
	l-0.117,0.164l-0.104,0.041l-0.184,0.15l-0.108,0.031l-0.111,0.017l-0.201,0.091l-0.341,0.112l-0.468,0.154l-0.642,0.161
	l-1.343,0.21l-1.672,0.763l-1.681,0.762l-1.945,1.241l-0.154,0.102l-0.184,0.119l-0.848,0.647l-0.101,0.028l-0.092-0.041
	l-0.244-0.272l-0.025,0.02l0.106,0.097l0.072,0.084l0.008,0.087l-0.083,0.104l-0.397,0.283l0.026,0.024l0.136-0.067l0.286-0.203
	l0.153-0.069l-0.102,0.159l-0.896,0.61l-0.45,0.265l-0.773,0.569l-1.071,1.063l-0.545,0.374l0.241-0.191l0.061-0.059h-0.087
	l-0.54,0.244l-0.089,0.022l-0.263-0.01l-0.043,0.014l-0.055,0.05l-0.045,0.004l-0.03-0.021l-0.075-0.119l-0.01,0.14l-0.073,0.076
	l-0.433,0.125l-0.077,0.038l-0.049,0.056l0.001,0.06l0.045,0.042l0.069,0.022l0.072-0.001l0.045-0.034l0.11-0.117l0.068-0.034
	l0.091-0.008l0.02,0.022l-0.029,0.043l-0.058,0.062l-0.114,0.09l-0.414,0.208l-0.299,0.45l-0.127,0.091l-0.039,0.062l-0.173,0.203
	l-0.032,0.051l-0.018,0.057l-0.171,0.31l-0.49,0.426l-0.104,0.161l-0.48,1.421l-0.061,0.75l0.031,0.1l0.021,0.356l0.024,0.051
	l-0.016,0.088l0.103,0.405l-0.068,0.236l-0.18,0.131l-0.228,0.091l-0.212,0.119l-0.093,0.039l-0.295,0.055l-0.103,0.007
	l-0.116,0.022l-0.117,0.056l-0.216,0.134l-0.03-0.027l0.232-0.284l0.109-0.259l0.101-0.136l-0.003-0.051l0.026-0.026l0.137-0.002
	l0.11,0.018l0.123,0.037l0.089,0.054l0.007,0.063l0.109-0.021l0.086-0.029l0.077-0.042l0.076-0.059l0.034-0.089l-0.014-0.127
	l-0.052-0.225l-0.024-0.313l0.041-0.136l0.001-0.371l0.082-0.384l-0.019-0.142l0.02-0.052l0.049-0.046l0.211-0.29l0.052-0.119
	l-0.036-0.154l0.252-0.766l0.078-0.158l-0.077,0.092l-0.083,0.185l-0.012,0.069l-0.051,0.091l-0.128,0.273l-0.14,0.165l-0.328,0.3
	l-0.194,0.301l-0.292,0.348l-0.1,0.187l-0.242,0.749l-0.001,0.108l0.03,0.087l0.056,0.057l0.081,0.034l0.108,0.017l-0.006,0.081
	l-0.082,0.059l-0.208,0.106l-0.07,0.085l-0.264,0.682l-0.042,0.043l0.042,0.074l-0.025,0.073l-0.123,0.152l-0.382,0.73l-0.245,0.687
	l-0.202,0.659l-0.098,0.153l-0.035,0.092l-0.035-0.007l-0.038-0.004l-0.094,0.01l-0.188,0.488l-0.079,0.87l0.019,0.222l0.076,0.216
	l0.014,0.124l-0.1,0.187l-0.014,0.113l0.01,0.181l-0.044,0.516l0.044,0.39l-0.005,0.136l-0.065,0.145l-0.002,0.069l0.008,0.066
	l0.009,0.035l0.029,0.049l-0.003,0.062l-0.095,0.325l-0.038,0.49l-0.132,0.567l-0.033,0.401l-0.063,0.166l-0.253,0.46l-0.315,0.351
	l-0.345,0.531l-0.029,0.101l-0.015,0.248l-0.058,0.087l-0.142,0.049l-0.052,0.056l-0.076,0.166l-0.13,0.156l-0.057,0.104
	l-0.024,0.106l0.043,0.131l0.062,0.527l0.022,0.082l0.149,0.05l-0.016,0.083l-0.083,0.097l-0.05,0.087l-0.02,0.084l-0.149,0.229
	l-0.034,0.106l-0.006,0.119l0.03,0.116l0.078,0.101l0.108,0.089l0.046,0.059l-0.021,0.067l-0.232,0.3l-0.091,0.182l-0.055,0.174
	l-0.023,0.163l0.012,0.24l0.032,0.139l0.055,0.093l0.058,0.063l0.069,0.099l0.051,0.102l0.008,0.08l-0.024,0.032l-0.117,0.091
	l-0.052-0.133l-0.049-0.287l-0.164-0.243l-0.005-0.244l-0.071-0.101l-0.137-0.031l0.019,0.143l0.08,0.18l0.055,0.084l-0.036,0.099
	l0.014,0.146l0.064,0.248l-0.031,0.026l-0.067-0.061l-0.067-0.133l-0.05-0.062l-0.073-0.014l-0.042,0.066l-0.014,0.09l0.014,0.058
	l0.069,0.055l0.059,0.03l0.141,0.041l0.03-0.003l0.021-0.014l0.028-0.003l0.05,0.032l0.034,0.032l0.313,0.471l0.077,0.091
	l0.034,0.101l0.011,0.145l0.041,0.115l0.125,0.008l-0.065-0.224l-0.183-0.307l-0.109-0.287l0.158-0.167l0.082,0.412l0.21,0.382
	l0.306,0.357l0.521,0.462l0.395,0.283l0.27,0.234l0.061,0.074l0.036,0.089l0.022,0.226l0.133,0.493l-0.004,0.096l-0.064,0.093
	l-0.017,0.078l0.055,0.104l0.457,0.515l0.037,0.085l0.176,0.177l0.039,0.113l-0.043,0.163l-0.184,0.379l-0.045,0.187l0.021,0.441
	l-0.014,0.187l-0.191,0.505l0.018,0.027l0.042,0.186l0.029,0.063l0.113,0.114l0.083,0.161l0.13,0.086l0.142,0.072l0.099,0.064
	l0.192,0.068l0.688,0.418l0.37,0.177l0.147,0.03l0.156,0.049l0.379,0.198l0.12,0.004l0.119,0.028l0.59,0.245l-0.069,0.017
	l-0.075,0.003l-0.074,0.011l-0.069,0.039l0.022,0.055l0.369,0.229l0.09,0.038l0.09,0.014l0.078-0.013l0.038-0.032l0.007-0.039
	l0.014-0.035l0.054-0.018h0.047l0.076,0.017l0.04,0.001l0.041,0.058l0.07,0.039l0.083,0.022l0.085,0.01l-0.047,0.089l0.071,0.078
	l0.308,0.171l0.093-0.002l0.188-0.071l0.05-0.114l0.002-0.029l-0.038-0.024l-0.073-0.03l-0.076-0.021l-0.047,0.002l-0.08-0.006
	l-0.376-0.158h-0.045l-0.082,0.012l-0.042-0.005l-0.208-0.12l-0.234-0.029l-0.063-0.017l-0.048-0.037l-0.055-0.029l-0.083-0.003
	l0.109-0.04l0.112,0.029l0.102,0.042l0.076-0.01l0.081,0.006l1.019,0.371l0.217,0.111l0.485,0.312l0.548,0.472l0.625,0.474
	l-0.024,0.022l-0.101,0.023l-0.061,0.005l-0.059-0.016l-0.014,0.046l-0.082,0.09l-0.01,0.054l0.041,0.029l0.083,0.029l0.09,0.021
	l0.063,0.005l-0.063,0.052l-0.121,0.032l-0.062,0.047l0.028,0.021l0.141-0.028l0.055-0.003l-0.006-0.047l0.094,0.053l0.083-0.032
	l0.032-0.082l-0.061-0.102l-0.07-0.084l0.042-0.025l0.099,0.019l0.104,0.051l0.661,0.518l0.418,0.2l0.306,0.058h0.357l0.19-0.032
	l0.083-0.021l0.058-0.025l0.056,0.014l0.032,0.035l-0.008,0.038l-0.069,0.155l-0.345,0.38l-0.05,0.139l0.136-0.078l0.029-0.083
	l0.086-0.076l0.189-0.127l0.056-0.096l0.079-0.246l0.039-0.058l0.088,0.022l0.104,0.075l0.173,0.156l0.099,0.06l0.503,0.247
	l0.41,0.179l0.471,0.341l0.458,0.309l0.563,0.349l0.31,0.271l0.096,0.127l-0.002,0.193l0.086,0.294v0.045l-0.045,0.044l-0.068,0.021
	l-0.072-0.001l-0.056-0.028l0.045-0.01l0.037-0.016l-0.065-0.021l-0.057-0.032l-0.11-0.086l-0.024-0.049l0.047-0.032l0.058-0.031
	l0.008-0.047l-0.026-0.027l-0.032-0.011l-0.139-0.007l-0.02-0.013l-0.009-0.024l-0.029-0.036l-0.064-0.035l-0.035,0.01l0.006,0.039
	l0.054,0.051l-0.029,0.026l-0.065-0.027l-0.053-0.039l-0.035-0.051l-0.012-0.064l-0.014,0.028l-0.015,0.017l-0.011,0.021
	l-0.008,0.032l-0.058-0.001l-0.053,0.008l-0.052,0.021l-0.052,0.03l0.036,0.002l0.101,0.017l0.018,0.107l0.022,0.048l0.043,0.052
	l0.113,0.048l0.061,0.036l0.007,0.035l-0.024,0.068l0.02,0.094l0.046,0.096l0.059,0.072l-0.031-0.156l-0.048-0.15l-0.007-0.142
	l0.097-0.134l0.043,0.1l0.01,0.068l0.039,0.051l0.129,0.047l-0.13,0.032l0.037,0.061l0.023,0.07l0.001,0.068l-0.031,0.059
	l-0.031-0.069l-0.017,0.008l-0.008,0.009l-0.01,0.003l-0.018-0.016l0.028,0.098l0.116,0.167l-0.002,0.078l-0.064,0.042l-0.211,0.025
	l-0.082,0.035l-0.018,0.074l0.007,0.122l0.025,0.114l0.037,0.05l0.1-0.027l0.038-0.065l0.021-0.086l0.047-0.092l0.001,0.057
	l0.021,0.05l0.038,0.04l0.051,0.035l0.009-0.082l-0.01-0.093l0.017-0.076l0.086-0.034l0.053,0.129l0.183,0.252l0.071,0.139
	l0.095,0.039l0.14,0.184l0.093,0.088l0.215,0.132l0.114,0.052l0.103,0.021l-0.048,0.059l-0.012,0.058l0.025,0.042l0.062,0.004
	l0.052-0.036l0.085-0.132l0.047-0.054l-0.027-0.022l-0.026,0.016l-0.045,0.016l-0.033,0.023l-0.045-0.032l-0.147-0.042l0.001-0.033
	l0.057-0.021l0.182-0.018h0.054l0.141,0.029l0.3,0.106l0.176,0.033l0.041,0.069l0.083,0.043l0.093,0.025l0.078,0.01l0.076-0.012
	l0.184-0.06l0.045-0.006l0.124,0.115l0.068,0.052l0.049,0.002l0.07-0.012l0.195,0.082l0.098,0.012l-0.042-0.079l-0.06-0.034
	l-0.144-0.034l-0.235-0.104l-0.085-0.015l0.413-0.174l0.121-0.111l0.034-0.174l-0.008-0.108l-0.019-0.039l-0.043-0.042l-0.049-0.021
	l-0.04,0.01l-0.037,0.015l-0.042-0.007l-0.061-0.084l0.021-0.219l-0.049-0.087l0.143-0.043l0.164-0.016l0.152,0.013l0.24,0.093
	l0.2,0.02l0.203-0.004l0.139-0.025l-0.111-0.057l-0.443-0.024l-0.376-0.09l-0.18-0.005l-0.081,0.092l-0.055-0.013l-0.001-0.032
	l-0.148-0.019l-0.061-0.026l-0.08-0.058l-0.07-0.071l0.02-0.031l0.188-0.022l0.344,0.027l0.381,0.078l0.528,0.081l0.663,0.195
	l0.587-0.002l0.117,0.029l0.237,0.083l0.491,0.064l0.661-0.099l0.133,0.013l0.167,0.064l0.229,0.01l0.229-0.039l0.17-0.081
	l0.776-0.652l0.191-0.122l0.084-0.068l0.073-0.087l0.045-0.07l0.058-0.062l0.113-0.064l0.227-0.093l0.181-0.045l0.366,0.038
	l0.568,0.061l0.297-0.025l0.191-0.122l0.065-0.036l0.07-0.059l0.046-0.079l0.083-0.288l0.032-0.051l0.033-0.032l0.084-0.064
	l0.281-0.271l0.218-0.15l0.192-0.208l0.085-0.073l0.253-0.164l0.15-0.139l0.241-0.34l0.156-0.158l0.395-0.232l0.378-0.321
	l0.135-0.064l0.436-0.049l0.137-0.041l0.24-0.155l0.303-0.127l0.13-0.111l-0.029-0.022l-0.248,0.153l-0.201,0.077l-0.038,0.02
	l-0.104,0.071l-0.15,0.062l-0.16,0.025l-0.127-0.042l0.024-0.024l0.167-0.029l0.886-0.454l0.098-0.026l0.123-0.003l0.658,0.109
	l0.134,0.007l0.328,0.119l0.226,0.007l0.116,0.032l0.057,0.025l0.127,0.081l0.263,0.096l0.375,0.036l0.086,0.031l0.078,0.042
	l0.499,0.182l0.465,0.267l0.296,0.239l0.599,0.336l0.768,0.506l0.384,0.165l0.164,0.103l0.066,0.097l0.036,0.033l0.046,0.021
	l0.11,0.031l0.032,0.012l0.365,0.208l0.31,0.132l0.179,0.114l0.088,0.041l0.179,0.056l0.542,0.264l0.203,0.028l0.417-0.011
	l0.099,0.031l0.252,0.161l0.091,0.036l0.189,0.051l0.091,0.042l0.289,0.229l0.05,0.062l0.077,0.151l0.054,0.064l0.073,0.044
	l0.151,0.062l0.22,0.143l0.084,0.033l0.08,0.009l0.072,0.022l0.23,0.194l-0.047-0.082l-0.072-0.089l-0.087-0.068l-0.188-0.036
	l-0.177-0.089l-0.033-0.02l0.045-0.018l0.113,0.021l0.106,0.041l0.115,0.062l0.111,0.032l0.042,0.021l0.046,0.05l0.122,0.168
	l0.315,0.251l0.076,0.078l0.143,0.271l0.116,0.161l0.283,0.297l0.167,0.232l0.001,0.022l-0.054-0.001l-0.049-0.017l-0.049-0.035
	l-0.037-0.042l-0.015-0.048l-0.034-0.067l-0.217-0.246l-0.056-0.084l0.025,0.136l0.059,0.143l0.086,0.135l0.106,0.107l0.252,0.2
	l0.096,0.116l0.058,0.051l0.085,0.021l-0.149-0.128l-0.058-0.077l-0.024-0.083l0.036-0.004l0.217,0.226l0.14,0.229l0.077,0.074
	l0.111,0.08l0.027,0.029l-0.001,0.025l-0.01,0.036l0.004,0.043l0.042,0.044l-0.04-0.006l-0.03-0.009l-0.016-0.017l0.007-0.03
	l-0.022-0.019l-0.005,0.068l0.063,0.06l0.181,0.107l0.071,0.071l0.148,0.229l0.235,0.171l0.04,0.07l0.031,0.073l0.077,0.046
	l0.364,0.101l0.068-0.003l0.114-0.032l0.057-0.011l0.051-0.019l0.023-0.036l0.012-0.043l0.017-0.035l0.034-0.024l0.027-0.014
	l0.003-0.026l-0.036-0.062l-0.08-0.069l-0.111-0.045l-0.118-0.022l-0.104,0.002l-0.1-0.02l-0.087-0.068l-0.071-0.09l-0.046-0.083
	l-0.047,0.004l0.027-0.066l0.02-0.025l-0.084-0.017l-0.162-0.006l-0.096-0.034l-0.009,0.021v0.003l0.005,0.004l0.008,0.019
	l-0.052-0.016l-0.019-0.033l0.014-0.043l0.048-0.043l0.194,0.001l0.075-0.008l0.041,0.003l0.032,0.017l0.083,0.071l0.098,0.109
	l0.021,0.042l0.062,0.075l0.129,0.054l0.573,0.135l0.096,0.05l0.177,0.272l0.03,0.084l0.014,0.176l-0.051,0.415l-0.017,0.049
	l-0.003,0.049l-0.012,0.042l-0.051,0.086l0.001,0.042l0.018,0.042l0.027,0.043l0.056-0.033l0.039,0.022l0.054,0.084l0.091,0.075
	l0.025,0.048l-0.113,0.226l-0.035,0.052l-0.06,0.049l-0.116,0.064l-0.046,0.037l-0.162,0.178l-0.189,0.255l-0.068,0.236l0.201,0.121
	l-0.041,0.024l-0.031,0.013l-0.031,0.007l-0.229,0.102l-0.041,0.013l-0.138,0.06l-0.017,0.028l-0.013,0.048l-0.013,0.021
	l-0.032,0.027l-0.013-0.006l-0.012-0.017l-0.027-0.006l-0.036-0.003l-0.073-0.026h-0.038l-0.041,0.016l-0.035,0.023l-0.077,0.075
	l-0.047,0.037l-0.246,0.142l-0.267,0.118l-0.035,0.037l-0.564,0.14l-0.681,0.091l-0.188,0.06l-0.077,0.011l-0.316-0.042
	l-0.107,0.009l-0.242-0.032l-0.389,0.039l-1.01,0.256l-0.155,0.087l-0.06-0.027l-0.046,0.007l-0.031,0.032l-0.008,0.049
	l-0.186-0.017l-0.164,0.032l-0.153,0.068l-0.355,0.225l-0.167,0.14l-0.277,0.316l-0.05,0.105l-0.056,0.213l-0.057,0.094
	l-0.041,0.035l-0.156,0.107h-0.034l-0.032-0.013l-0.043,0.002l-0.204,0.121l-0.064,0.031l0.13-0.158l0.042-0.038l0.03-0.008
	l0.046,0.03l0.049-0.007l0.038,0.014l0.054-0.021l0.051-0.039l0.14-0.139l-0.015-0.108l0.016-0.049l0.05-0.062l0.014-0.038
	l-0.018-0.03l-0.035-0.012l-0.039,0.02l-0.021,0.034l0.003,0.056l-0.012,0.036l-0.097,0.128l-0.051,0.049l-0.043,0.025l0.036-0.004
	l0.029,0.001l0.058,0.01l-0.365,0.094l-0.063,0.007h-0.032l-0.053,0.009h-0.051l-0.025-0.025l-0.004-0.061l-0.013-0.039
	l-0.036-0.011l-0.079,0.03l-0.063-0.04l-0.173,0.04l-0.187,0.074l-0.138,0.073l-0.175,0.061l-0.158,0.085l-0.073,0.014l-0.04-0.044
	l0.064,0.008l0.084-0.019l0.071-0.042l0.023-0.063l-0.046-0.024l-0.203-0.158l-0.033-0.036l-0.067,0.025l-0.082,0.063l-0.074,0.077
	l-0.045,0.064l-0.01,0.083l0.049,0.146l-0.024,0.042l0.015,0.035l0.028,0.039l0.041,0.035l0.048,0.031l-0.077,0.039l-0.113,0.097
	l-0.078,0.052l0.08,0.05l0.085-0.001l0.091-0.022l0.096-0.014l0.064,0.01l0.139,0.053l0.075,0.018l0.08,0.108l0.038,0.106
	l0.019,0.024l0.036,0.006l0.03-0.016l0.029-0.021l0.03-0.007l0.035,0.026l0.007,0.037l0.013,0.027l0.051-0.008l0.005,0.02
	l0.001,0.016l0.005,0.012l0.013,0.019l-0.071-0.016l-0.026,0.027l0.125,0.05l0.123-0.029l0.068-0.064l-0.044-0.053l-0.016,0.056
	l-0.022,0.026l-0.048-0.017l-0.116-0.088l-0.09-0.097l-0.037-0.052l-0.032-0.063l0.081,0.057l0.206,0.207l0.023-0.025l0.016-0.027
	l0.115-0.069l0.063-0.059l-0.052,0.188l-0.044,0.105l-0.048,0.026l-0.06,0.016l-0.265,0.213l-0.109,0.039l-0.115,0.022l-0.107-0.003
	l-0.082-0.03l-0.038-0.006l-0.2,0.02l-0.048-0.01l-0.156-0.086l0.087,0.035l0.062-0.015l0.055-0.037l0.069-0.033l-0.167-0.067
	l-0.252-0.052l-0.257,0.006l-0.179,0.109l0.027,0.02l0.1-0.054l0.023,0.019l-0.087,0.033l-0.11,0.017l-0.067,0.024l0.045,0.062
	l-0.225,0.093l-0.107,0.064l0.006,0.069l0.055,0.07l0.012,0.053l0.04,0.028l0.138-0.003l0.204-0.035l0.103-0.034l0.076-0.051
	l0.088-0.02l0.115,0.048l0.192,0.123l-0.221,0.091h0.079l0.085-0.019h0.086l0.079,0.055l-0.024,0.025l-0.109-0.023l-0.114,0.01
	l-0.226,0.059l-0.125,0.058l-0.231,0.162l-0.11,0.032l-0.049,0.111l-0.16,0.074l-0.251,0.114l-0.201,0.057l-0.534,0.424
	l-0.568,0.346l-0.168,0.053l-0.184,0.029l-0.184,0.055l-0.18,0.094l-0.173,0.146l-0.136,0.179l-0.083,0.07l-0.123,0.038
	l-0.078,0.043l-0.265,0.245l-0.114,0.061l-0.427,0.107l-0.072,0.04l-0.065,0.046l-0.164,0.075l-0.067,0.048l-0.232,0.244
	l-0.029-0.022l0.087-0.105l0.058-0.094l-0.132,0.024l-0.032-0.054l0.033-0.061l0.061-0.004l0.072-0.017l0.113-0.077l0.104-0.088
	l0.046-0.051l-0.048,0.028l-0.056,0.021l-0.055,0.016l-0.043,0.009l0.019-0.063l0.046-0.025l0.063-0.022l0.068-0.052l-0.005-0.013
	l0.001-0.102l0.014-0.019l0.034-0.029l0.034-0.035l0.014-0.042l-0.087-0.105l-0.006-0.011l-0.005-0.029l0.035-0.028l0.043-0.014
	l0.013,0.007l0.042-0.071l0.019-0.054l-0.018-0.05l-0.07-0.064l-0.08-0.103l-0.103-0.259l-0.07-0.095l-0.014-0.057l0.046-0.066
	l0.06-0.052l0.027-0.018l0.264-0.041l0.052-0.103l0.116-0.046l0.128-0.026l0.089-0.037l0.041-0.026l0.095-0.029l0.052-0.039
	l-0.005-0.012l-0.002-0.032l0.002-0.036l0.01-0.025l0.027-0.021l0.031-0.015l0.025-0.007h0.006l0.166-0.136l0.073-0.081l0.028-0.086
	l0.01-0.085l0.034-0.084l0.117-0.164l-0.153-0.001l-0.186,0.021l-0.177,0.046l-0.127,0.076l-0.058,0.046l-0.081,0.047l-0.081,0.03
	l-0.056-0.006l0.001-0.047l0.072-0.057l0.093-0.059l-0.038,0.019l-0.086,0.011l-0.084-0.035l-0.096-0.069l-0.047-0.006l-0.294,0.006
	l-0.051,0.01l-0.049,0.018l-0.05,0.032l0.104,0.029l0.131,0.003l0.134-0.02l0.115-0.038l-0.038,0.082l-0.063,0.033l-0.075,0.026
	l-0.074,0.064l0.049-0.014l0.066-0.01l0.066,0.003l0.048,0.021l0.019,0.049l-0.05,0.009l-0.064-0.01l-0.026-0.01l-0.264,0.104
	l-0.195,0.04l-0.281,0.099l-0.074,0.047l-0.194,0.049l-0.099,0.042l-0.054-0.029l-0.023-0.004h-0.029l-0.009,0.01l-0.019-0.021
	l-0.242-0.182l-0.037-0.016l-0.034-0.007l-0.026-0.013l-0.014-0.039l-0.005-0.062l-0.015-0.022l-0.032-0.015l-0.061-0.013
	l-0.103-0.034l-0.038-0.022l-0.03-0.041l-0.019-0.045l-0.035-0.035l-0.202-0.008l-0.057,0.004l-0.058,0.025l-0.13,0.095l-0.12,0.062
	l-0.107,0.083l-0.055,0.032l-0.115,0.032l-0.243,0.032l-0.094,0.031l-0.076,0.052l-0.064,0.053l-0.016,0.01l-0.053,0.035
	l-0.094,0.026l-0.078-0.004l-0.163-0.038l-0.183-0.013l0.003,0.022l-0.036,0.063l-0.053,0.03l-0.242,0.074l-0.046,0.028
	l-0.093,0.074l-0.052,0.031l-0.091,0.024l-0.078-0.004l-0.081-0.013l-0.102-0.001l-0.051,0.02l-0.198,0.103l-0.075,0.011
	l-0.333-0.019l-0.045,0.013l-0.098,0.069l-0.052,0.011l-0.045-0.017l-0.076-0.204l-0.017-0.075l0.048-0.146l-0.031-0.036
	l-0.053-0.025l-0.042-0.042l-0.021-0.097l-0.001-0.104l-0.012-0.103l-0.059-0.091l-0.432-0.145l-0.19,0.043l-0.174,0.125
	l-0.315,0.325l-0.868-0.67l-0.869-0.674l-0.871-0.677l-0.872-0.678l-0.874-0.682l-0.875-0.686l-0.877-0.686l-0.879-0.691
	l-0.173-0.136l-0.103-0.045l-0.065,0.008l-1.045,1.015l-1.048,1.019l-1.769-1.402l-0.036-0.018l-0.077,0.043l0.054,0.112
	l0.103,0.122l0.031,0.08l-0.059,0.113l0.07,0.077l0.124,0.069l0.106,0.092l0.011,0.068l-0.026,0.085l-0.046,0.086l-0.05,0.064
	l-0.009,0.036l0.064,0.084l0.017,0.048l-0.01,0.041l-0.047,0.082l-0.021,0.051l-0.015,0.081l0,0.251l0.025,0.047l0.108,0.066
	l0.036,0.042l-0.002,0.039l-0.053,0.088l-0.018,0.044l-0.013,0.266l-0.019,0.057l-0.061,0.091l0.009,0.077l0.106,0.17l0.006,0.034
	l0.001,0.09l0.01,0.026l0.056,0.016l0.031-0.038l0.019-0.046l0.024-0.01l0.07,0.056l0.047,0.051l-0.021,0.038l-0.128,0.011
	l0.047,0.102l0.01,0.197l0.036,0.097l0.201,0.294l0.047,0.038l0.068,0.001l0.027,0.071l-0.025,0.024l-0.06,0.035l0.016,0.089
	l0.08,0.178l0.017,0.089l-0.083,0.564l-0.082,0.178l-0.144,0.046l-0.023,0.024l0.04,0.021l0.028,0.01l0.026-0.001l0.038-0.017
	l0.025,0.072l-0.067,0.044l-0.091,0.042l-0.047,0.072l-0.091,0.031l0.021,0.042l0.06,0.052l0.02,0.062l-0.037,0.042l-0.057,0.006
	l-0.064-0.002l-0.058,0.021l0.063,0.026l0.063,0.053l0.047,0.055l0.012,0.029l0.031,0.009l0.135,0.052l0.04,0.031l-0.063,0.095
	l-0.009,0.054l0.141,0.033l0.034,0.046l0.014,0.054l0.003,0.039l-0.021,0.059l-0.039,0.028l-0.011,0.029l0.114,0.113l0.025,0.05
	l0.012,0.04l0.015,0.028l0.052,0.029l0.052,0.014l0.017,0.022l-0.046,0.061l-0.049,0.05l-0.017,0.025l-0.023,0.108l-0.047-0.064
	l-0.053-0.047l-0.058-0.01l-0.064,0.045l0.027,0.022l0.028-0.027l0.029,0.02l-0.016,0.075l-0.085,0.042l-0.113,0.006l-0.097-0.036
	l-0.043-0.008l0.015,0.06l0.04,0.064l0.034,0.01l-0.041,0.04l-0.035-0.01l-0.026-0.035l-0.009-0.033l-0.015,0.007l-0.01,0.01
	l-0.01,0.002l-0.017-0.016l-0.005,0.03l-0.017,0.062l-0.005,0.031l-0.046-0.046l-0.007-0.016l-0.001-0.031l-0.093,0.012
	l-0.032,0.043l0.011,0.06l0.036,0.062l-0.07-0.018l-0.084-0.002l-0.082,0.029l-0.057,0.082l0.058,0.151l-0.011,0.059l-0.124-0.036
	l-0.024,0.024l0.007,0.085l-0.173-0.001l-0.05,0.077l0.031,0.022l0.028-0.003l0.011,0.003l0.013,0.005l0.032,0.01l-0.044,0.021
	l-0.082,0.033l-0.034,0.007l-0.002,0.002l-0.001-0.002l-0.098-0.032l-0.089-0.053l-0.37-0.28l-0.57-0.433l-0.571-0.436l-0.571-0.435
	l-0.024-0.02l-0.547-0.419l-0.573-0.438l-0.574-0.438l-0.574-0.441l-0.575-0.44l-0.19-0.146l-0.098-0.021l-0.108,0.017l-0.243,0.068
	l-0.199,0.058l-0.526,0.151l-0.744,0.213l-0.857,0.244l-0.858,0.243l-0.408,0.116l-0.344,0.099l-0.534,0.151l-0.202,0.057
	l-0.099,0.045l-0.073,0.073L620,583.791l-0.105,1.045l-0.263,0.105l-0.09,0.012l-0.078-0.021l-0.061-0.038l-0.068-0.026
	l-0.097,0.006l-0.147,0.114l-0.238,0.247l-0.17,0.078l-0.184,0.022l-0.07,0.031l-0.081,0.084l-0.025,0.039l-0.06,0.124l-0.03,0.031
	l-0.064,0.052l-0.027,0.031l-0.123,0.246l-0.072,0.076l-0.08,0.046l-0.248,0.078l-0.335,0.155l-0.164,0.022l-0.099-0.053l0,0
	l-0.002-0.032l0.023-0.429L617,585.321l-0.043-0.881l-0.044-1.366l0.02-0.933l0.036-0.148l0.085-0.08l0.033,0.09l0.128,0.196
	l0.003,0.062l-0.068,0.077l-0.049,0.091l-0.013,0.091l0.044,0.074l0.037-0.113l0.132-0.184l0.019-0.106l-0.025-0.077l-0.054-0.101
	l-0.074-0.087l-0.085-0.038l0.059-0.074l-0.036-0.045l-0.054,0.009l0.005,0.09l-0.063-0.063l-0.066-0.372l-0.108-0.198l-0.035-0.109
	l0.051-0.158l-0.119-0.472l0.016-0.684l0.04-0.168l0.005-0.09l-0.079-0.139l-0.223-1.556l-0.041-0.089l-0.183-1.052l-0.167-0.597
	l-0.358-1.01l0.075,0.021l0.096,0.086l0.062,0.028l-0.017,0.063l0.043,0.041l0.081,0.018l0.101-0.01l0.012-0.155l0.044-0.122
	l0.02-0.11l-0.062-0.125l-0.405-0.497l-0.069-0.164l-0.009-0.063L615.678,574l0.003-0.102l0.031-0.07l0.092-0.125l-0.038-0.071
	l-0.114-0.04l-0.133-0.032l-0.196-0.116l-0.134-0.189l-0.08-0.22l-0.037-0.213v-0.163l-0.026-0.078l-0.078-0.086l-0.102-0.037
	l-0.069,0.049l-0.058,0.078l-0.07,0.057l-0.03-0.024l-0.019-0.048l-0.032-0.002l-0.018,0.026l0.023,0.04l0.043,0.053l-0.024,0.02
	l-0.057-0.013l-0.063-0.042l0.144,0.532l0.135,0.261l0.146,0.065l-0.211-0.36l0.026-0.022l0.105,0.093l0.113,0.193l0.066,0.078
	l0.115,0.083l0.037,0.043l0.038,0.077l0.064,0.189l-0.031,0.028l-0.059-0.047l-0.029,0.025l0.242,0.294l0.086,0.145l0.031,0.157
	l-0.036,0.223l0.013,0.071l0.09,0.162l0.029,0.08l-0.021,0.068l-1.005-1.845l-0.019-0.088l-0.064-0.188l-0.165-0.195l-0.39-0.327
	l0.029,0.023l-0.227-0.184l-0.097-0.104l-0.035-0.09l-0.1-0.032l-0.096-0.064l-0.169-0.146l-0.075-0.088l0.012-0.059l0.069-0.027
	l0.092,0.007l0.479,0.198l0.272,0.033l0.21-0.143l-0.001-0.076l-0.12-0.172l-0.03-0.086l-0.01-0.055l-0.027-0.034l-0.038-0.021
	l-0.043-0.011l-0.08,0.046l-0.032,0.009l-0.034-0.009l-0.063-0.029l-0.024-0.007l-0.091-0.001l-0.058,0.004l-0.009,0.017
	l-0.177-0.045l-0.083-0.03l-0.177,0.039l-0.101-0.009l0.026-0.102l0.028-0.057l0.056-0.042l0.086,0.002l0.102,0.021l0.08-0.01
	l0.021-0.095l0.001-0.107l0.028-0.054l0.042-0.044l0.041-0.07l0.005-0.055l-0.007-0.085l-0.018-0.087l-0.029-0.053l-0.131-0.074
	l-0.148-0.035l-0.157-0.003l-0.448,0.08l-0.07-0.009l-0.251-0.2l-0.05,0.087l-0.06-0.006l-0.06-0.035h-0.049l-0.121,0.024
	l-0.036,0.042l0.055,0.095l0.149,0.189l0.136,0.133l0.155,0.109l0.13,0.09l0.06,0.037l0.108,0.054l0.069,0.008l0.156-0.011
	l0.041,0.019l-0.038,0.078l-0.19-0.053l-0.223-0.109l-0.137-0.09l0.107,0.151l0.401,0.301l0.082,0.141l-0.031,0.134h-0.045
	l-0.161-0.233l-0.338-0.257l-0.27-0.145l-0.212-0.131l-0.135-0.064l-0.231-0.136l-0.159-0.132l-0.07-0.086l-0.056-0.045l-0.063-0.04
	l-0.049-0.002l-0.02,0.027l-0.009,0.044l-0.073-0.021l-0.098-0.109l-0.084-0.002l-0.076-0.061l-0.074-0.06l-0.105-0.009
	l-0.062,0.047l-0.112-0.048l-0.095-0.009l-0.041,0.042h-0.035l-0.069-0.035l-0.067,0.003l-0.158-0.092l-0.109-0.021l-0.244,0.032
	l-0.061,0.096l-0.077-0.019l-0.118-0.004l-0.154-0.058l-0.072,0.043l-0.069,0.016l-0.257-0.2l-0.057,0.021l-0.364-0.232l-0.09,0.015
	l-0.136-0.084l-0.078,0.027l-0.283-0.101l-0.202-0.143l-0.141-0.074l-0.114-0.062l-0.107-0.024l-0.06-0.004l-0.048,0.042
	l-0.109-0.067l-0.121-0.058l-0.139-0.063l-0.167-0.08l-0.071-0.004l-0.384-0.195l-0.083,0.012l-0.192-0.093l-0.191-0.036
	l-0.115-0.058l-0.19-0.026l-0.062-0.039l-0.05,0.008l-0.065-0.02l-0.027-0.053l-0.088-0.005l-0.055,0.063l-0.496-0.151l-0.231-0.039
	l-0.213-0.187l-0.338-0.258l-0.141-0.171l-0.114-0.12l-0.128-0.003l-0.148-0.048l-0.12-0.014l-0.095-0.058l-0.087-0.083
	l-0.082-0.098l-0.054-0.004l-0.164-0.285l-0.171-0.35l-0.447-0.521l-0.181-0.152l-0.16-0.493l-0.195-0.284l-0.104-0.136l-0.026-0.18
	l0.033,0.003l0.044-0.161l-0.073-0.04l-0.064-0.141l-0.105-0.339l-0.132-0.222l-0.196-0.278l-0.086-0.068l-0.224-0.257l-0.153-0.042
	l-0.359-0.367l-0.212-0.342l-0.15-0.079l-0.203-0.264l-0.193-0.162l-0.091-0.021l-0.07-0.006l-0.135-0.158l-0.196-0.238l-0.049-0.1
	l-0.018-0.127l-0.076-0.119l-0.009-0.067l-0.011-0.055l-0.013-0.037l-0.021-0.102l-0.089-0.421l-0.067-0.216l-0.216-0.589
	l-0.113-0.174l-0.083-0.172l0.005-0.136l0.191,0.277l0.123,0.127l0.121,0.002l-0.074-0.048l-0.018-0.09l-0.025-0.077l-0.1-0.014
	l-0.052-0.105l-0.07-0.097l0.005-0.008l0.007-0.028l0.001-0.033l-0.014-0.031l-0.01,0.01h-0.042l-0.051-0.01l-0.038-0.016
	l-0.081-0.078l-0.308-0.483l-0.48-0.563l-0.184-0.317l-0.063-0.118l-0.048-0.063l-0.022-0.036l0.008-0.02l-0.036-0.071l0.001-0.022
	l0.016,0.014l0.031-0.004l0.035-0.041l0.019-0.134l-0.024-0.251l-0.037-0.551l0.068-0.329l0.002-0.214l0.019-0.044l-0.021-0.047
	l-0.07-0.051l-0.049-0.07l-0.056-0.011l-0.036-0.028l-0.058-0.025l-0.082-0.043l-0.056,0.004l-0.055,0.017l-0.02,0.007l-0.114-0.148
	l-0.082-0.064l-0.107-0.204l-0.613-0.962l-0.546-0.768l-0.232-0.31l-0.461-0.521l-0.273-0.245l-0.242-0.165l-0.106-0.145
	l-0.085-0.133l-0.077-0.131l-0.071-0.156l-0.055-0.128l-0.057-0.355l-0.034-0.165l-0.032-0.021l-0.053,0.004l-0.034-0.055
	l0.008-0.037l-0.027-0.055l0.057,0.02l0.024,0.059l0.05-0.014l0.008-0.042l-0.023-0.031l-0.042-0.01l-0.029-0.039l-0.036-0.029
	l-0.002-0.055l0.041,0.017l0.046-0.022l0.068-0.008l0.018,0.02l0.039,0.015l0.034-0.022l0.006-0.057l-0.02-0.048l-0.051-0.067
	l-0.101-0.041l-0.077-0.015l-0.028,0.033l0.055,0.025l0.007,0.036l-0.078-0.001l-0.07-0.048l0.002-0.051l0.079-0.097l-0.013-0.044
	l-0.002-0.174l0.03-0.048l-0.068-0.185l-0.217-0.374l-0.164-0.24l-0.146-0.268l-0.198-0.35l-0.237-0.44l-0.726-1.246l-0.267-0.448
	l-0.189-0.3l-0.172-0.363l-0.159-0.275l-0.215-0.325l-0.161-0.288l-0.164-0.266l-0.077-0.197l-0.102-0.042l0.028-0.065l0.083,0.021
	l0.087-0.077l0.003-0.137l-0.006-0.229l-0.117-0.405l0.06-0.122l-0.162-0.474l-0.243-0.433l-0.116-0.263l-0.187-0.318l0.047-0.042
	l0.071,0.046l0.096-0.053l0.027-0.078l0.018-0.085l-0.027-0.263l-0.115-0.131l-0.157-0.082l0.047-0.067l-0.058-0.049l0.009-0.077
	l-0.077-0.059l0.067-0.082l-0.039-0.088l-0.096-0.145l0.16-0.144l0.056-0.22l-0.039-0.166l-0.049-0.313l0.068-0.131l-0.007-0.101
	l0.08-0.076l0.027-0.3l-0.113-0.249l-0.04-0.08l-0.111-0.367l-0.148-0.319l-0.137-0.244l-0.33-0.227l-0.125,0.022l-0.158-0.031
	l-0.153-0.002l-0.12-0.037l-0.101-0.026l-0.073-0.056l-0.096-0.216l-0.132-0.34l-0.43-0.663l-0.153-0.29l-0.166-0.168l-0.244-0.438
	l-0.394-0.41l-0.185-0.245l-0.362-0.755l-0.217-0.538l-0.141-0.28l-0.153-0.151l-0.225-0.238l0.013-0.097l-0.092-0.051l-0.212-0.444
	l-0.094-0.066l-0.157-0.28l-0.029-0.104l-0.104-0.185l-0.104-0.062l-0.025-0.116l-0.085-0.269l-0.194-0.415l0.096-0.251l0.33-0.619
	l0.026-0.285l-0.01-0.054l0.009-0.08l-0.015-0.1l-0.025-0.117l-0.055-0.19l-0.049-0.067l0.034-0.048l0.244,0.005l0.062-0.147
	l-0.017-0.242l0.011-0.452l-0.198-1.039l0.003-0.202l-0.246-0.648l-0.2-0.528l-0.179-0.326l-0.089-0.167l-0.065-0.12l-0.065-0.113
	l-0.045-0.088l0.166-0.096l0.119,0.083h0.078l0.058-0.074l-0.026-0.165l-0.044-0.056l-0.099-0.009l-0.005-0.036l0.093-0.05
	l-0.035-0.079l-0.093-0.068l-0.068-0.007l-0.059,0.066l-0.05-0.027l0.009-0.063l-0.018-0.061h-0.12l-0.108-0.019l0.058-0.129
	l-0.09-0.196l-0.025-0.112l-0.309-0.446l-0.152-0.219l-0.084-0.216l-0.017-0.071l0.032-0.056l0.051-0.06l-0.023-0.044l-0.056-0.044
	l-0.043-0.058l-0.002-0.054l0.024-0.024l0.013-0.024l-0.031-0.057l-0.033-0.028l-0.157-0.096l-0.103-0.09l-0.01-0.046l0.143-0.083
	l0.163-0.067l0.047-0.049l-0.041-0.079l-0.057-0.037l-0.119-0.038l-0.045-0.026l-0.037-0.046l-0.023-0.037l-0.038-0.022
	l-0.083-0.003l-0.161-0.465l-0.044-0.236l0.022-0.19l0.179-0.207l0.055-0.116l-0.081-0.174l0.041-0.031l0.116-0.042l0.04-0.046
	l0.01-0.052l0.001-0.051l0.008-0.043l0.269-0.194l-0.011-0.209l-0.057-0.061l-0.075-0.043l-0.036-0.042l0.004-0.143l-0.023-0.125
	l-0.024-0.437l0.044-0.383l0.186-0.521l0.011-0.228l0.061-0.093l0.012-0.09l-0.011-0.208l0.026-0.114l0.104-0.256l0.14-0.529
	l0.066-0.09l0.046-0.046l0.051-0.104l0.046-0.047l0.22-0.147l0.294-0.255l0.058-0.081l0.01-0.064l-0.027-0.109l-0.002-0.067
	l0.066-0.159l0.045-0.176l-0.057-0.163l0.108-0.218l0.093-0.172l0.073-0.11l0.154,0.012l0.806,0.255l0.229,0.177l0.314,0.307
	l0.083,0.051l0.124,0.04l0.346,0.278l0.145,0.131l0.215,0.06h0.152l0.128,0.062l0.116,0.005l0.116,0.008l0.124-0.034l0.178-0.101
	l0.012-0.15l-0.066-0.176l0.164-0.305l-0.004-0.226l-0.05-0.113l-0.074-0.009l-0.162-0.029l-0.127-0.08l-0.066-0.183l-0.149-0.167
	l-0.067-0.217l-0.153-0.036l0.003-0.09l0.095,0.008l0.108,0.013l0.033,0.044l0.029,0.054l0.137,0.04l0.168-0.033l0.111-0.008
	l0.136-0.04l0.074-0.019l0.058,0.007l0.033,0.045l0.156,0.004l0.288-0.039l0.271,0.06l0.074,0.042l0.095-0.012l0.148,0.025
	l0.125-0.022l0.102-0.018l0.104-0.005l0.066,0.035l-0.004,0.057l0.048,0.053l0.037,0.042l0.181,0.028l0.154,0.01l0.164-0.082
	l0.119-0.097l0.04-0.075l0.16-0.038l0.122-0.106l0.179,0.001l0.348-0.303l0.208-0.267l0.283-0.099l0.139-0.017l0.208-0.017
	l0.118,0.05l0.043-0.042l0.054-0.103l0.08-0.084l0.029-0.077l0.013-0.078l-0.017-0.08l-0.049-0.067l-0.088,0.017l-0.065-0.056
	l-0.004-0.124l-0.085-0.222l-0.1-0.452l-0.041-0.137l-0.004-0.246l0.135-0.194l0.399-0.892l0.253-0.767l0.107-0.19l0.232-0.215
	l0.742-0.425l0.289-0.245l0.324-0.41l0.259-0.346l0.192-0.226l0.097-0.155l0.118,0.036l0.04-0.075l0.025-0.08l-0.018-0.057
	l-0.095-0.001l-0.029-0.03l0.231-0.22l0.091-0.298l0.016-0.59l0.07-0.364l0.003-0.124l-0.062-0.26l0.002-0.048l0.008-0.019
	l-0.002-0.028l0.003-0.034l0.024-0.033l0.215,0.001l-0.07-0.053l-0.081-0.036l-0.088-0.023l-0.097-0.011l0.28-1.53l-0.007-0.056
	l-0.049-0.099l-0.021-0.064l-0.012-0.132l0.092-0.728l-0.032-0.104l-0.063-0.044l-0.074-0.022l-0.058-0.029l-0.018-0.063
	l0.031-0.034l0.191-0.11l0.044-0.068l0.098-0.316l-0.007-0.112l0.024-0.032l0.09,0.03l0.023-0.026l0.016-0.03l0.007-0.034v-0.008
	l0.177-0.373v-0.092l-0.048-0.09l-0.021-0.119l-0.006-0.285l0.004-0.036l0.011-0.043l0.073-0.125l0.023-0.073l-0.05-0.153
	l0.019-0.118l0.061-0.197l0.022-0.222l-0.016-0.119l-0.114-0.23l0.054-0.112l0.191-0.189l0.034-0.115l0.01-0.137l0.028-0.134
	l0.161-0.19l0.116-0.279l0.096-1.014l-0.037-0.325l-0.048-0.107l-0.017-0.08l0.01-0.381l-0.158-0.919l-0.072-0.416l0.005-0.083
	l0.101-0.093l0.009-0.086l-0.087-0.224l-0.033-0.246l0.002-0.444l-0.324-1.449l0.01-0.13l0.058-0.088l0.065-0.02l0.031,0.03
	l0.008,0.051l-0.002,0.047l-0.01,0.028l-0.021,0.021l-0.058,0.034l0.003,0.017l0.132,0.478l0.031,0.055l0.176,0.876l0.031,0.091
	l0.015,0.07l0.031,0.1l-0.002-0.075l-0.041-0.186l-0.02-0.093l0.064-0.013l0.041,0.109l0.026,0.216l0.021-0.004l0.045-0.002
	l0.024-0.006l-0.014-0.015l-0.032-0.03l-0.012-0.017l0.102,0.01l0.079,0.021l0.08-0.001l0.097-0.056l0.049-0.062l0.232-0.411
	l0.008-0.079l-0.035-0.097l-0.063-0.082l-0.082-0.063l-0.093-0.036l-0.096-0.004l0.044,0.073l0.16,0.089l-0.001,0.055l-0.062,0.008
	l-0.233-0.042l-0.079-0.023l-0.17-0.106l-0.018-0.118l0.032-0.125l-0.021-0.127l-0.14-0.053l-0.043-0.028l-0.026-0.038l-0.014-0.041
	l-0.011-0.138l0.018-0.053l0.023-0.029l0.062-0.046l0.02-0.038v-0.046l-0.035-0.081l-0.012-0.039l0.021-0.306l-0.034-0.067
	l-0.105-0.043l0.009-0.141l-0.015-0.147l-0.045-0.141l-0.08-0.121l-0.035,0.052l-0.003,0.057l0.013,0.101l-0.023,0.235l0.007,0.115
	l0.065,0.263l-0.025,0.104l-0.083-0.143l-0.101-0.469l-0.012-0.609l0.028-0.084l0.061-0.065l0.163-0.134l0.061-0.078l0.052-0.097
	l0.025-0.094l-0.017-0.068l-0.003-0.03l0.019-0.041l0.028-0.029l0.032,0.007l0.041,0.053l0.022,0.053l0.023,0.109l-0.001,0.056
	l0.016,0.106l0.062,0.076l0.139-0.035l0.069-0.076l0.042-0.106l0.013-0.105l-0.01-0.078l0.105,0.022l0.084-0.043l0.15-0.137
	l0.084-0.042l0.083-0.02l0.189-0.014l0.024-0.095l-0.012-0.272l-0.038-0.067l-0.096,0.056l-0.213,0.221l-0.015,0.029l-0.022,0.024
	l-0.065,0.04l-0.186,0.07l-0.183,0.096l-0.066,0.02l-0.047-0.014l-0.025-0.031l-0.01-0.028l-0.001-0.028l0.004-0.037l-0.01-0.046
	l-0.037,0.001l-0.044,0.012l-0.033-0.012l-0.047-0.233l0.062-0.259l0.399-0.803l0.041-0.193l-0.009-0.245l-0.038-0.115l-0.005-0.065
	l0.035-0.061l0.091,0.098l0.071,0.116l0.024,0.11l-0.053,0.084l-0.071,0.479l-0.096,0.138l-0.012,0.03l0.021,0.029l0.038,0.02
	l0.036,0.013l0.02,0.009l0.02,0.123l0.012,0.03l0.05,0.03l0.048-0.009l0.102-0.069l0.055-0.061l-0.04-0.042l-0.062-0.043
	l-0.013-0.063l0.034-0.016l0.128-0.008l0.036,0.003l0.072,0.015l0.028,0.011l-0.003,0.028l-0.017,0.063l-0.016,0.151l0.032,0.098
	l0.153,0.206l0.074,0.191l0.073,0.015l0.07-0.021l0.044-0.04l-0.003-0.73l-0.021-0.077l-0.062-0.079l-0.007,0.06l-0.034,0.014
	l-0.053-0.021l-0.063-0.048l-0.041-0.064l-0.011-0.072l0.016-0.136l0.087-0.207l0.007-0.044l-0.063-0.059l-0.078-0.025l-0.066-0.033
	l-0.031-0.08l-0.093-0.038l-0.115-0.114l-0.096-0.14l-0.033-0.109l0.136-0.113l0.037-0.015l0.02,0.038l0.025,0.148l0.023,0.063
	l0.054-0.053l0.144-0.091l0.053-0.052l0.013-0.072l-0.047-0.138l0.003-0.062l-0.64,0.215l-0.137-0.009l0.039-0.035l0.24-0.113
	l0.079-0.048l0.061-0.101l0.02-0.11l-0.009-0.109l-0.022-0.098l-0.237-0.589l-0.07-0.382l-0.115-0.216l-0.151-0.209l-0.149-0.161
	l0.176,0.058l0.156,0.2l0.206,0.395l-0.047-0.143l-0.01-0.271l-0.092-0.157l-0.3-0.197l-0.114-0.11l0.031-0.117l0.172,0.187
	l0.072,0.02l0.035-0.106l0.023-0.043l0.04-0.022l0.024-0.024l-0.025-0.047l-0.026-0.013l-0.093-0.027l-0.049-0.028l0.2-0.05
	l0.081-0.032l0.239-0.139l0.063-0.054l-0.019-0.031l-0.054-0.028l-0.047-0.041l-0.078-0.2l0.008-0.013l0.021-0.02l0.013-0.026
	l-0.012-0.032l-0.031-0.025l-0.063-0.03l-0.025-0.02l-0.06-0.091l-0.035-0.07l-0.043-0.021l-0.086,0.051l-0.04,0.048l-0.009,0.042
	l-0.016,0.039l-0.055,0.038l-0.067,0.025l-0.048,0.007l-0.047-0.005l-0.062-0.015l-0.119-0.042l-0.063-0.061l-0.014-0.076
	l0.031-0.09l0.013,0.024l0.042,0.024l0.039-0.003l0.009-0.054l-0.022-0.041l-0.229-0.219l-0.09-0.044l-0.068,0.019l-0.024,0.104
	l-0.129-0.125l-0.032-0.207l0.053-0.386l0.136,0.074l0.045,0.017h0.074l0.079-0.013l0.079,0.001l0.074,0.046l0.083,0.192
	l0.036,0.033l0.066,0.038l-0.018,0.062l-0.075,0.084l0.015,0.058l0.012,0.012l0.039-0.01l0.095-0.006l0.026-0.01l0.053-0.043
	l0.026-0.012l0.037,0.006l0.041,0.031l0.465,0.099l0.112,0.005l0.032-0.013l0.01-0.02l0.014-0.02l0.043-0.008l0.026,0.006
	l0.037,0.017l0.019,0.021l0.044-0.006l0.154-0.108l0.137-0.014l0.326,0.085l0.125-0.038l0.036-0.091l-0.109-0.018l-0.294,0.02
	l-0.159-0.004l-0.219,0.026l-0.135-0.033l-0.15-0.08l-0.271-0.182l-0.152-0.053l-0.36-0.013l-0.157-0.051l-0.071-0.143l-0.172-0.078
	l-0.078-0.078l0.002-0.096l0.069-0.126l0.072-0.1l0.021-0.061l-0.018-0.058l-0.04-0.065l-0.061-0.186l-0.02-0.172l-0.04-0.006
	l-0.047,0.047l-0.032,0.06l-0.008,0.063l0.017,0.478l-0.042,0.142l-0.115,0.042l0.002-0.168l0.05-0.184l0.018-0.194l-0.094-0.198
	l-0.472-0.511l-0.106-0.196l0.17,0.063l0.155,0.107l0.123,0.141l0.075,0.162l0.082-0.057l0.091-0.046l0.036-0.001l0.076,0.019
	l0.033-0.006l0.026-0.022l0.003-0.021l-0.002-0.017l0.011-0.015l0.023-0.072l-0.016-0.128l-0.038-0.132l-0.044-0.087l-0.083-0.083
	l-0.075-0.038l-0.087,0.012l-0.299,0.169l-0.052,0.005l0.031-0.095l0.112-0.03l0.136-0.069l0.105-0.08l0.017-0.066l-0.051-0.121
	l0.065-0.076l0.119-0.044l0.244-0.062l0.065-0.004l0.014,0.007l0.104-0.057l0.066-0.048l0.033-0.043l0.043-0.084l0.084-0.1
	l0.087-0.064l0.233-0.123l0.099-0.028l0.431,0.005l0.341,0.064l0.175,0.017l0.256-0.062l0.514-0.015l0.248-0.011l0.095-0.033
	l0.07-0.012l0.021,0.04l-0.049,0.053l-0.152,0.015l-0.056-0.016l-0.063-0.006l-0.059-0.001l-0.049,0.004l-0.003,0.001l-0.088,0.022
	l-0.104,0.07l-0.06,0.019l-0.074,0.012l-0.063,0.023l-0.027,0.051l0.029,0.055l0.069,0.014l0.079-0.014l0.18-0.062l0.386-0.017
	l0.112-0.034l0.275-0.152l0.083,0.012l0.079,0.092l0.057,0.113l0.016,0.077l-0.064,0.093l-0.103,0.053l-0.111,0.012l-0.091-0.032
	l-0.032,0.019l0.047,0.12l-0.003,0.331l0.05,0.071l0.059-0.026l0.063-0.136l0.063-0.044l0.063,0.017l0.061,0.043l0.054,0.016
	l0.045-0.064l-0.121-0.125l0.122-0.234l0.091-0.178l-0.04-0.171v0.029l-0.006,0.03l-0.013,0.032l-0.022,0.034l-0.056-0.11
	l-0.035-0.056l-0.047-0.045l-0.263-0.043l-0.044-0.042l0.06-0.058l0.412-0.146l0.173-0.143l0.154-0.168l0.032-0.171l0.087-0.31
	l-0.033-0.288l0.086-0.256l-0.002-0.213l-0.068-0.164l-0.101-0.142l0.006-0.057l0.059,0.043l0.056,0.111l0.054,0.129l0.069-0.08
	l-0.009-0.047l0.071-0.001l0.031-0.059l-0.064-0.089l-0.048-0.069l0.026-0.066l0.059-0.054l-0.073-0.039l-0.087-0.027l0.068-0.082
	l-0.047-0.091l-0.115-0.018l-0.087-0.01l-0.067,0.02l0.004,0.05l0.042,0.062l0.034,0.058l-0.018,0.035l-0.045,0.002l-0.044,0.013
	l0.031,0.122l0.032,0.055l-0.042,0.017l-0.07-0.213l-0.238-0.382l-0.191-0.191l-0.104-0.038l-0.06,0.019l-0.103-0.154l-0.059-0.183
	l-0.097-0.247v-0.114l0.045-0.357l0.078-0.22l0.144-0.138l0.149-0.14l0.047-0.133l0.1-0.156l0.063-0.06l0.042-0.076l0.09-0.294
	l0.068-0.012l-0.03,0.082l-0.088,0.25l0.016,0.138l0.182-0.282l0.101-0.064l0.186-0.164l0.054-0.277l-0.004-0.097l-0.033-0.094
	l-0.052-0.088l-0.033-0.103l-0.024-0.039l-0.036-0.032l-0.042-0.025l-0.04-0.016l-0.077-0.012l-0.065-0.034l0.048-0.229l-0.04-0.387
	l-0.04-0.278l-0.017-0.161l-0.031-0.153l-0.022-0.153l-0.021-0.145l0.018-0.241l0.001-0.111l0.116-0.31l0.12-0.29l0.056-0.337
	l0.012-0.124l-0.033-0.229l-0.048-0.123l0.045-0.041l0.053,0.184l0.044,0.163l0.04,0.169l0.072,0.048l0.041-0.158l0.089-0.23
	l0.048-0.083l0.026-0.003l0.044,0.002l0.033-0.019l-0.005-0.092l0.009-0.038l0.027-0.068l-0.11-0.067l-0.055-0.051l-0.025-0.057
	l0.004-0.074l0.03-0.043l0.129-0.07l0.113-0.092l0.018-0.209l0.313-0.187l0.142-0.143l0.269-0.349l0.163-0.095l0.103,0.012
	l0.072,0.081l0.061,0.105l0.087,0.025l0.076-0.058l-0.01-0.076l-0.061-0.058l-0.077-0.01l0.184-0.044l0.051,0.01l0.055,0.059
	l0.033,0.067l0.036,0.048l0.063,0.001l-0.059-0.199l0.002-0.122l0.07-0.054l0.147,0.003l-0.02-0.086l0.02-0.077l0.051-0.047
	l0.075-0.001l-0.037,0.059l0.002,0.045l0.036,0.02l0.107-0.028l0.022,0.032l0.013,0.054l0.136,0.266l0.071,0.046l0.088-0.084
	l-0.077-0.093l-0.01-0.394l-0.058-0.136l-0.028,0.099l-0.034-0.014l-0.02-0.089l0.034-0.229l-0.002-0.11l-0.064-0.446l-0.057-0.207
	l-0.083-0.192l-0.114-0.188l0.037-0.02l0.034,0.053l0.118,0.139l0.05-0.081l0.038-0.048l0.043-0.034l0.063-0.038l0.043-0.06
	l0.009-0.084l-0.026-0.065L602,466.72l-0.14,0.075l-0.091,0.023l-0.093-0.019l-0.144-0.053l0.04,0.078v0.058l-0.036,0.045
	l-0.066,0.043l-0.075,0.012l-0.1-0.009l-0.061-0.031l0.042-0.053v-0.03l0.098-0.21v-0.035l-0.023-0.095l0.001-0.048l0.015-0.038
	l0.022-0.035l0.019-0.041l0.007-0.054l0.075,0.043l0.023,0.025l0.025,0.047l0.046-0.14l0.038-0.161l0.012-0.165l-0.055-0.116
	l-0.069-0.094l-0.132-0.051l-0.061-0.158l-0.039-0.097l0.054-0.009l0.048,0.02l0.034-0.078l0.009-0.104l-0.023-0.053l0.047-0.121
	l-0.028-0.181l0.059-0.11l0.048-0.125l0.066-0.187l-0.021-0.19l0.083-0.13l0.052-0.152l0.152-0.208l0.092-0.265l0.208-0.167
	l0.035-0.079l-0.002-0.02l-0.033-0.077l-0.002-0.039l0.018-0.028l0.025-0.025l0.053-0.08l0.101-0.078l0.041-0.062l0.084-0.343
	l0.06-0.118l0.095-0.096l0.07,0.003l0.071,0.026l0.097-0.026l-0.1-0.179l-0.021-0.271l-0.031-0.445l0.019-0.428l-0.008-0.154
	l-0.021-0.147l-0.007-0.065l0.174-0.194l0.154-0.204l0.185-0.222l0.361-1.239l0.092-0.177l0.032-0.078l0.042,0.005l0.023,0.067
	l0.044,0.051l0.093,0.065l0.023,0.047l-0.035,0.065l-0.04,0.054l-0.028,0.054l0.002,0.06l0.03,0.021l0.053-0.004l0.059-0.021
	l0.05-0.035l0.071-0.111l-0.029-0.084l-0.053-0.092l-0.036-0.129l0.061-0.214l0.052-0.122l-0.004-0.239l-0.02-0.156l0.085-0.078
	l-0.001-0.087l0.055-0.016l0.034-0.111l0.03-0.164l0.06-0.079l0.047-0.074l0.019-0.053l0.001-0.066l-0.013-0.08l-0.048-0.113
	l-0.012-0.095l0.023-0.04l0.056,0.034l0.05,0.028l0.04-0.04l0.042-0.037l0.176-0.182l0.11-0.073l-0.003-0.081l0.05-0.013
	l0.091,0.016l0.073,0.019l0.049-0.034l0.077-0.114l0.049-0.137l0.054-0.005l0.034-0.133l0.002-0.117l0.22-0.031l0.126-0.054
	l0.111-0.142l0.142-0.173l0.026-0.167l-0.096-0.272l-0.036-0.04l-0.042-0.023l-0.026,0.004l-0.035,0.036l-0.065,0.011l0.006-0.055
	l0.058-0.129l-0.003-0.236l0.026-0.123l0.136-0.127l0.164-0.008l0.233,0.017l0.11-0.011l0.113-0.058l0.043-0.083l-0.019-0.123
	l0.015-0.082l0.028-0.083l0.107-0.048l0.09-0.066l0.053-0.247l0.077-0.29l0.241-0.285l0.05-0.059l0.033-0.066l-0.041-0.084
	l0.068-0.16l0.058-0.074l0.172-0.146l0.073-0.129l0.056-0.132l0.056-0.102l0.242-0.255l0.048-0.094l0.017-0.115l-0.036-0.026
	l0.003-0.101l-0.073-0.089l0.004-0.106l0.058-0.063l0.106,0.021l0.076-0.072l0.158-0.03l0.134-0.036l0.058-0.077l0.049-0.081
	l0.062-0.107l0.082-0.047l0.272-0.1l0.273-0.146l0.103-0.124l0.061-0.126l0.05-0.126l0.032-0.1l0.015-0.129l-0.013-0.043
	l-0.009-0.055l-0.059-0.023l0.019-0.046l0.118,0.015l0.153-0.068l0.202-0.113l0.175-0.142l0.107-0.147l0.141-0.35l0.141-0.513
	l0.265-0.474l0.226-0.355l0.47-0.451l0.122-0.155l0.183,0.016l0.328-0.103l0.193-0.084l0.157-0.097l0.284-0.335l0.07-0.037
	l0.024,0.036l-0.035,0.06l-0.047,0.047l-0.084,0.093l-0.126,0.153l-0.005,0.043l0.049,0.014l0.202,0.022l0.236-0.11l0.216-0.11
	l0.169-0.059l0.035-0.144l0.102-0.188l0.027-0.167l-0.047-0.15l-0.042,0.031l-0.003,0.096l-0.004,0.074l-0.045-0.003l-0.007-0.104
	l0.012-0.109l0.019-0.261l0.09-0.118l0.033-0.098l0.112-0.123l-0.03-0.063l-0.062-0.065l-0.038-0.067l-0.051,0.097l-0.009,0.081
	l0.006,0.082l-0.016,0.06l-0.041-0.052l-0.025-0.211l-0.173-0.851l-0.041-0.268L613,443.66l0.078-0.097l-0.014-0.154l-0.058-0.191
	l0.038-0.147l0.04,0.02l0.021,0.1l0.056,0.026l0.119-0.123l0.224-0.21l0.149-0.069l0.107-0.203l0.063-0.354l0.001-0.262l0.035-0.119
	l-0.049-0.15l0.012-0.273l0.008-0.164l0.069-0.089l-0.1-0.116l-0.04-0.058l-0.03-0.064l0.041-0.129l0.179-0.117l0.009-0.094
	l-0.066,0.018l-0.259,0.132l-0.046,0.016l-0.024,0.054l0.004,0.041l0.014,0.025l0.012,0.002l-0.041,0.074l-0.018-0.013l-0.028-0.034
	l-0.116-0.041l-0.067,0.015l-0.043-0.037l-0.031-0.06l-0.055-0.003l-0.035-0.009l-0.039-0.003l-0.078-0.021l-0.076-0.213
	l-0.084-0.233l-0.065-0.21l-0.006-0.291l0.044-0.157l-0.012-0.159l0.015-0.171l0.025-0.073l0.043-0.103l0.009-0.078l0.053-0.043
	l0.005-0.196l0.033-0.321l0.018-0.124l-0.018-0.085l0.064-0.107l-0.011-0.188l0.104-0.323l0.127-0.319l-0.013-0.105l-0.139-0.358
	l-0.011-0.052l0.011-0.057l0.049-0.132l0.012-0.023l-0.002-0.055l0.034-0.131l-0.007-0.066l-0.047-0.178l-0.004-0.055l0.029-0.092
	l0.1-0.197l0.009-0.077l-0.014-0.112l0.067-0.366v-0.002l0.004-0.129l-0.007-0.068l-0.018-0.065l-0.007-0.054l0.021-0.094v-0.036
	l0.019-0.03l0.053-0.035l0.049-0.046l0.011-0.052l-0.033-0.017l-0.053,0.028l-0.052,0.05l-0.083,0.122l-0.013,0.031l-0.011,0.062
	l0.003,0.042l0.024,0.137l-0.005,0.103l-0.02,0.096l-0.03,0.089l-0.042,0.078l0.021,0.13l-0.043,0.131l-0.06,0.109l-0.065,0.07
	l0.006,0.08l-0.045,0.063l-0.314,0.223l-0.084,0.09l-0.064,0.115l-0.09,0.115l-0.108,0.006l-0.233-0.09l-0.191-0.006l-0.213,0.035
	l-0.653,0.322l-0.331,0.028l-0.262,0.143l-0.452,0.155l-0.101,0.021l-0.193,0.121l-0.113,0.172l-0.063,0.182l-0.036,0.161
	l-0.037,0.009l-0.106-0.053l-0.098,0.051l-0.065,0.094l-0.027,0.119l-0.01,0.399l-0.012,0.1l-0.02,0.031l-0.031,0.025l-0.039,0.045
	l-0.159,0.085l-0.049,0.032l-0.069,0.054l-0.078,0.01l-0.034,0.048l-0.059,0.07l-0.224,0.087l-0.054,0.059l-0.064,0.078
	l-0.054-0.011l-0.139-0.001l-0.101,0.102l-0.071,0.062l-0.173,0.046l-0.122,0.143l-0.115,0.189l-0.073,0.108l-0.049,0.031
	l-0.041,0.034l-0.048,0.029l-0.044,0.052l-0.07,0.091l-0.068,0.036l-0.098,0.001l-0.101,0.058l-0.068,0.076l-0.145,0.042
	l-0.114,0.02l-0.042,0.052l-0.26,0.076l-0.097,0.003l-0.041,0.014l-0.051,0.035l-0.044,0.086l-0.075,0.009l-0.115,0.017
	l-0.081,0.016l-0.084-0.021l-0.07,0.067l-0.027,0.059l-0.076,0.1l-0.031,0.083l-0.059,0.028l-0.061,0.067l0.003,0.118l-0.088,0.09
	l-0.053,0.123l-0.105,0.046l-0.12,0.198l-0.101,0.133l-0.095,0.113l-0.007,0.314l-0.122,0.111l-0.019,0.089l0.043,0.169
	l-0.059,0.093l-0.035,0.066l-0.137,0.031l-0.085,0.114l-0.015,0.047l-0.014-0.034l-0.036-0.014l-0.031,0.009l-0.007,0.071
	l-0.019,0.023l-0.043,0.022l-0.057,0.05l-0.023,0.076l-0.002,0.063l0.024,0.036l-0.002,0.061l-0.032,0.061l-0.035,0.016
	l-0.022,0.049l0.013,0.096l0.035,0.094l0.017,0.035l0.043,0.028l0.024-0.007l0.021,0.001l-0.008-0.033l0.018-0.02l0.028-0.006
	l0.008,0.041l0.025,0.002l0.015,0.008l-0.005,0.013l0.008,0.026l0.013,0.008l-0.004,0.035l-0.017,0.024l0.009,0.014l-0.019,0.026
	l0.014,0.014l0.023,0.052l-0.007,0.049l-0.028,0.063l0.008,0.037l-0.011,0.01l0.013,0.065l-0.015,0.038l-0.054,0.045l-0.02,0.035
	l0.001,0.034l-0.021,0.031v0.023l-0.014,0.016l-0.004,0.019l-0.007,0.026l-0.002,0.032l-0.001,0.032l-0.031,0.042l-0.004,0.019
	l0.021,0.024l0.01,0.006l-0.002,0.048l-0.036,0.026l-0.014,0.06l-0.027,0.018l0.007,0.029l-0.022,0.058l-0.021,0.05l-0.013,0.014
	v0.083l-0.015,0.051l0.008,0.044l-0.021,0.13l-0.056,0.047l-0.016,0.027l-0.022,0.048l-0.036,0.042l0.015,0.076l-0.002,0.014
	l-0.023,0.028l-0.006,0.032l-0.013,0.01l-0.002,0.048l0.01,0.051l0.022,0.058l-0.021,0.089l-0.04,0.063l-0.034,0.07l-0.019,0.054
	l0.004,0.035l-0.052,0.08v0.076l-0.023,0.061l-0.036,0.089l-0.049,0.106l-0.01,0.111l-0.037,0.112l0.003,0.089l0.01,0.065
	l-0.02,0.05l-0.073,0.033l-0.012,0.055l0.014,0.065l-0.002,0.058l-0.026,0.058l0.01,0.052l-0.004,0.103l-0.283,0.697l-0.049,0.224
	l-0.034,0.093l-0.081,0.069l-0.013,0.048l-0.025,0.025l-0.088-0.05l-0.076-0.016l-0.064-0.025l-0.052,0.034l-0.009,0.062
	l-0.002,0.048l-0.078,0.021l-0.033,0.073l0.015,0.016l-0.02,0.032l-0.036,0.021l0.019,0.055l0.015,0.026l-0.044,0.023l-0.055,0.067
	l-0.037,0.087l0.009,0.068l-0.04,0.073l-0.103,0.092l-0.098,0.155l-0.047,0.096l-0.064,0.009l-0.024-0.053L602,449.224l-0.031-0.019
	l-0.05,0.014l-0.065,0.044l-0.012,0.081l-0.077,0.069l-0.084,0.031l-0.034-0.036l-0.039,0.005l-0.052,0.098l-0.052,0.063
	l-0.057,0.07l-0.011,0.054l-0.045,0.03l0.025,0.112l0.063,0.114l0.031,0.01l0.016-0.019l0.077,0.003l0.012-0.074l0.033-0.047
	l0.029,0.031l0.025-0.028l0.042,0.006l0.018,0.024l0.014,0.061l0.001,0.076l0.063,0.029l0.051,0.008l-0.037,0.072l-0.075,0.021
	l-0.032,0.115l0.036,0.023l0.03-0.011l0.066,0.077l-0.012,0.036l-0.031-0.007l-0.018-0.018l-0.082,0.022l0.02,0.157l-0.027,0.01
	l-0.027-0.055l-0.037,0.01l-0.02,0.06l-0.034,0.043l-0.002,0.058l-0.038-0.021l-0.052,0.019l-0.066,0.032l-0.045,0.003l-0.056,0.063
	l-0.002,0.084l-0.093,0.032l0.042,0.116l0.048,0.116l0.049,0.025l0.069,0.033l0.044,0.012l0.063,0.074l0.053,0.024l0.027,0.151
	l-0.028,0.101l-0.026,0.051l-0.066,0.049l-0.005,0.06l-0.019,0.052l-0.067,0.01l-0.019,0.064l-0.064,0.039l-0.083,0.019
	l-0.116,0.137l0.001,0.038l-0.098,0.088l-0.141,0.16l-0.036,0.168l-0.056,0.063l-0.123,0.035l-0.107,0.123l-0.058,0.059
	l-0.088,0.075l-0.092,0.031l-0.094,0.121l-0.019,0.139l-0.029,0.025l-0.002,0.112l0.027,0.136l-0.042,0.043l0.011,0.214l0.059,0.162
	l0.126,0.193l0.096,0.128l-0.026,0.121l-0.04,0.013l-0.007,0.073l-0.026,0.017l-0.05-0.013l-0.009,0.016l0.011,0.071l0.023,0.023
	l0.039,0.007l0.022,0.063l-0.055,0.023l-0.035,0.033l-0.039-0.022l-0.078-0.003l-0.022,0.038l-0.068,0.065l-0.076,0.012
	l-0.217,0.009l-0.121,0.037l-0.03,0.05l-0.085,0.023l-0.045,0.07l-0.036,0.095l-0.012,0.094l-0.041,0.03l-0.101,0.263l-0.026,0.044
	l0.005,0.051l-0.017,0.043l-0.042-0.024l-0.035,0.006l-0.083,0.021l-0.038-0.011l-0.066,0.01l-0.157,0.057l-0.153,0.146
	l-0.016,0.028l-0.002,0.047l-0.049,0.037l-0.062-0.015l-0.073-0.005l-0.071,0.026l-0.061,0.071l-0.047,0.112l0.028,0.094
	l-0.005,0.057l-0.068,0.031l-0.071,0.067l-0.028,0.01l-0.14,0.017l-0.083,0.069l-0.061,0.034l-0.034,0.009l-0.035,0.026
	l-0.025-0.019l-0.054,0.017l-0.091,0.019l-0.061,0.127l-0.013,0.107l-0.032,0.044l-0.011,0.09l0.027-0.006l0.003,0.03l-0.035,0.017
	l-0.053,0.069l-0.034-0.002l-0.081,0.048l-0.015,0.07l-0.057,0.009l-0.051,0.061l-0.041,0.09l-0.043,0.113l-0.039,0.075
	l-0.001,0.047l-0.021,0.045l0.027,0.045l0.009,0.03l-0.019,0.052l-0.04,0.048l-0.018,0.07l-0.042,0.036l-0.017,0.148l-0.059,0.042
	l-0.005,0.207l0.039,0.126l0.009,0.097l-0.015,0.09l0.011,0.111l0.001,0.08l-0.018,0.052l-0.018,0.086l-0.021,0.08l0.031,0.23
	l-0.018,0.107l-0.026,0.211l-0.049,0.147l-0.064,0.043l-0.048,0.159l-0.092,0.11l-0.168,0.12l-0.08,0.032l-0.086,0.12l-0.065,0.104
	l-0.067,0.017l-0.05,0.056l-0.057,0.099l-0.011,0.112l-0.067,0.072l-0.044,0.071l0.011,0.102l-0.049,0.063l-0.107,0.096
	l-0.014,0.091l-0.092,0.119l-0.034,0.093l-0.111,0.013l-0.033-0.015l-0.044-0.002l-0.043,0.015l-0.023,0.134l-0.035,0.104
	l-0.035,0.097l-0.036,0.05l-0.005,0.069l0.03,0.122l-0.053,0.158l-0.005,0.171l0.052,0.112l-0.021,0.034l-0.003,0.069l0.046,0.261
	l-0.071,0.155l0.062,0.19l0.006,0.061l-0.043,0.013l-0.02,0.046l-0.044,0.039l-0.051-0.062l-0.006-0.081l-0.091-0.06l-0.133-0.038
	l-0.124,0.007l-0.085,0.028l-0.106,0.04l-0.102,0.161l-0.022,0.132l-0.002,0.063l-0.04,0.039l-0.06,0.125l-0.084,0.083l-0.008,0.071
	l0.007,0.17l-0.087,0.084l-0.081,0.306l-0.102,0.104l-0.07,0.057l-0.034,0.013l-0.057-0.042l-0.059,0.002l-0.054,0.022l0.01-0.088
	l-0.174-0.007l-0.089,0.083l0.009,0.09l-0.048,0.177l-0.06,0.103l-0.06,0.062l-0.04,0.031l-0.044,0.051l0.009,0.12l-0.031,0.103
	l-0.058,0.121l-0.18,0.192l-0.049,0.178l-0.021,0.187l0.101,0.089l0.225,0.131l0.053-0.05l0.024-0.097l0.092-0.2l0.063-0.225
	l0.007-0.098l0.066-0.103l0.019-0.192l0.103-0.145l-0.019-0.039l0.037-0.031l0.048-0.008l0.034-0.041l0.139-0.073l0.051-0.066
	l0.066-0.042l0.071-0.075l0.071-0.004l0.026-0.068l0.021-0.046l0.043-0.021l0.026-0.038l0.025-0.051l0.058-0.026l0.017-0.057
	l0.034-0.013l0.047,0.09l0.052,0.023l0.045,0.032l-0.017,0.164l-0.039,0.039l-0.018,0.173l-0.05,0.181l-0.078,0.151l-0.066,0.089
	l-0.061,0.309l0.034,0.068l-0.051,0.058l-0.037,0.063l-0.017,0.06l-0.031,0.024l0.008,0.144l-0.028,0.034l-0.005,0.103l-0.027,0.013
	v0.161l0.001,0.083l-0.031,0.032l-0.006,0.071l-0.132,0.044l-0.114,0.05l-0.113,0.082l-0.262,0.103l-0.084,0.075l-0.017,0.116
	l0.006,0.162l0.003,0.141l0.017,0.134l0.028,0.037l0.028-0.002l0.034,0.067l-0.042,0.019l-0.015,0.043l-0.01,0.098l-0.032-0.027
	l-0.053-0.01l-0.099,0.047l-0.125-0.017l-0.13,0.084l-0.109,0.043l-0.084,0.097l-0.026,0.174l0.001,0.064l-0.019,0.042l-0.025,0.022
	l-0.04-0.049l-0.034,0.023l-0.036,0.083l0.002,0.113l-0.048,0.114l-0.07,0.077l-0.066,0.059l-0.11,0.08l-0.018-0.068l-0.139,0.048
	l-0.031,0.08l-0.039,0.026l-0.09,0.13l-0.071,0.013l-0.077,0.069l-0.016,0.085l-0.059,0.072l-0.097,0.049l-0.073,0.098l-0.064,0.098
	l-0.024,0.149l-0.063,0.025l-0.055,0.064l-0.054,0.023l-0.036-0.024l-0.06,0.019l-0.071-0.046l-0.061,0.001l-0.067,0.087
	l-0.127,0.072l-0.086-0.021l-0.078-0.046l-0.088,0.084l-0.084,0.087l-0.071,0.11l-0.04,0.044l-0.068,0.06l-0.072-0.004l-0.027,0.05
	l-0.141,0.098l-0.01,0.058l0.017,0.03l0.017,0.005l-0.011,0.054l-0.036,0.079l-0.019,0.029l-0.01,0.044l-0.034-0.016l-0.006-0.025
	l0.012-0.041l0.025-0.021l-0.003-0.056l-0.023,0.02l-0.066,0.062l-0.057,0.041l-0.047,0.042l-0.031,0.049l-0.012,0.097l-0.048,0.103
	l0.005,0.104l-0.007,0.055l-0.038,0.078l-0.035,0.04l-0.003,0.056l0.03,0.016l0.017,0.039l-0.094,0.138l-0.038,0.003l-0.057,0.052
	l-0.064,0.072l-0.061,0.079l-0.075,0.044l-0.04,0.045l-0.07,0.072l-0.046,0.085l-0.019,0.085l-0.095,0.111l0.01,0.085l-0.011,0.042
	l-0.037,0.024l-0.061,0.085l-0.008,0.066l-0.037,0.056l-0.004,0.073l0.019,0.061l0.026,0.012l-0.01,0.031l0.032,0.118l0.052,0.021
	l-0.009,0.02l-0.054-0.014l-0.019,0.023l0.006,0.057l0.03,0.012l0.017,0.026l-0.012,0.046l0.012,0.041l0.029,0.001l0.007,0.023
	l-0.009,0.03l0.012,0.081l-0.039,0.054l-0.052-0.024l-0.063,0.086l-0.032,0.02l-0.035-0.021l-0.055,0.04l-0.03-0.033l-0.058,0.038
	l-0.022,0.048l-0.073,0.088l-0.02,0.079l-0.117,0.086l-0.044,0.054l-0.091,0.152l-0.083,0.066l-0.022,0.064l-0.003,0.116
	l-0.031,0.011l-0.02,0.076l-0.034,0.045l-0.018-0.013l-0.039,0.018l-0.008,0.053l-0.002,0.046l-0.016-0.009l-0.029,0.003
	l-0.024,0.042l-0.032-0.009l-0.005-0.025l-0.07,0.005l-0.032,0.028l-0.034,0.072l-0.063,0.024l-0.083,0.102l-0.008,0.07l-0.08,0.098
	l-0.015,0.057l-0.018,0.027l-0.035-0.028l-0.088,0.063l-0.076,0.087l-0.037,0.1l-0.001,0.093l-0.016,0.002l-0.012,0.055
	l-0.022,0.006l-0.021,0.023l-0.017,0.048l-0.032,0.02l-0.024,0.041l-0.067,0.054l-0.001,0.1l-0.022,0.021l0.011,0.114l-0.021,0.053
	l-0.06,0.012l-0.027,0.05l-0.026,0.068l0.014,0.078l0.011,0.047l0.021-0.007l0.019,0.013l-0.007,0.055l-0.025,0.041l-0.032,0.172
	l-0.033,0.005l-0.011,0.023l-0.035,0.012L587,475.868l-0.03,0.031l-0.068,0.041l-0.049,0.039l-0.036,0.11l-0.046,0.073l-0.037,0.089
	l-0.033,0.011l-0.003,0.062l0.013,0.031l-0.011,0.033l-0.009,0.027l-0.011-0.005l-0.018-0.029l-0.02-0.009l-0.002,0.031
	l-0.028,0.014l-0.023,0.113l-0.026,0.013l-0.007,0.053l-0.024-0.012l-0.025,0.011l-0.027,0.042l-0.013,0.016l-0.046,0.016
	l-0.027,0.055l-0.027,0.044l-0.031,0.023l-0.036,0.023l-0.023,0.058l-0.031,0.033l-0.025,0.021l-0.006,0.023l0.006,0.016
	l-0.007,0.017l-0.045-0.001l-0.036,0.013l-0.017,0.02l-0.077,0.017l-0.059,0.029l-0.116-0.039l-0.105,0.002l-0.067,0.01
	l-0.041,0.042l-0.065-0.003l-0.042-0.085l-0.113-0.038l-0.109,0.02l-0.133,0.048l-0.101,0.012l-0.104,0.061l-0.07,0.033l-0.084,0.08
	l-0.045,0.044l-0.043-0.019l-0.045,0.052l-0.104,0.103l-0.034,0.016l-0.044,0.077l-0.136,0.323l-0.059,0.044l-0.049,0.037
	l-0.061-0.021l-0.061,0.031l-0.037,0.048l-0.05-0.007l-0.036,0.072l-0.03,0.053l-0.05,0.013l-0.035,0.055l-0.072,0.018l-0.114,0.255
	l-0.027,0.027l-0.015,0.118l-0.036-0.001l-0.103,0.151l-0.056,0.127l-0.071,0.078l-0.011,0.091l-0.003,0.125l-0.07,0.069
	l-0.006,0.089l-0.034,0.038l-0.001,0.165l0.01,0.197l0.021,0.176l0.024,0.223l0.061,0.333l0.108,0.321l0.04,0.116l0.002,0.035
	l-0.037,0.007l-0.066-0.04l-0.06-0.072l-0.06-0.089l0.007-0.074l0.02-0.191l-0.023-0.194l-0.033,0.009l-0.023,0.074l-0.087,0.021
	l-0.029,0.077l-0.038,0.048l-0.05-0.01l-0.05,0.072l0.034,0.155l0.081,0.114l0.006,0.067l0.038,0.054l0.043-0.017l0.054-0.025
	l0.042-0.013l0.027,0.015l0.111,0.074l0.137,0.052l0.222-0.088l-0.016-0.074l0.055-0.021l0.048-0.022l0.004-0.063l0.008-0.05
	l0.024,0.007l0.043-0.018l0.044-0.036l0.001-0.042l-0.06,0.019l-0.02-0.035l0.095-0.074l0.041,0.007l0.023-0.041l0.057-0.001
	l0.021-0.039l0.05-0.015l0.021-0.036l0.029,0.088l0.032,0.009l-0.001-0.058l0.022-0.036l0.052,0.035l0.039,0.083l0.047,0.029
	l0.051,0.002l0.035,0.13l0.026,0.178l0.031,0.008l-0.011,0.104l-0.032,0.046l-0.031-0.03l-0.065,0.03l-0.027,0.056l0.006,0.077
	l-0.035,0.08l0.004,0.081l-0.02,0.068l-0.041,0.083l-0.051,0.031l-0.035,0.072l-0.032,0.047l0.015,0.186l-0.024,0.086l-0.031,0.091
	l0.007,0.059l-0.014,0.131l0.019,0.085l-0.011,0.031l-0.008,0.054l-0.032,0.046l0.006,0.075l-0.032,0.046l-0.002,0.093l-0.016,0.117
	l-0.015,0.107l-0.033,0.101l-0.106,0.094l-0.025,0.058l-0.077,0.033l-0.005,0.036l-0.214,0.162l-0.099,0.063l0.019,0.089l0.09,0.104
	l0.049,0.129l0.223,0.173l0.236,0.137l0.123,0.058l0.046,0.025l-0.027,0.022l-0.044,0.039l-0.031,0.045l0.017,0.069l-0.021,0.067
	l-0.05,0.019l-0.039-0.011l-0.054,0.019l-0.124-0.029l-0.024-0.027l-0.03-0.001l-0.038,0.028l-0.103,0.03l-0.064,0.018l-0.065,0.049
	l-0.069,0.094l-0.018,0.056l0.014,0.055l0.012,0.043l-0.009,0.033l0,0.055l0.002,0.027v0.056l0.033,0.078l-0.044,0.259l-0.001,0.14
	l-0.054,0.106l0.011,0.093l-0.175,0.015l-0.142,0.075l-0.1,0.109l-0.141,0.158l-0.133,0.062l-0.019,0.132l0.046,0.119l0.041,0.105
	l-0.007,0.053l0.04,0.081l0.047,0.068l0.048,0.145l-0.009,0.062l0.027,0.064l0.083,0.14l0.059,0.09l0.001,0.049l-0.051,0.051
	l0.037,0.094l0.077,0.118l0.011,0.056l-0.037,0.021l-0.086-0.013l-0.077,0.036l-0.07,0.112l-0.045,0.208l-0.006,0.132l-0.086,0.074
	l-0.107,0.029l-0.064,0.044l0.035,0.073l-0.071,0.047l-0.069,0.019l-0.088-0.036l-0.048,0.043l-0.097,0.052l-0.041,0.049
	l-0.127,0.059l-0.08,0.05l-0.1-0.001l-0.037-0.007l-0.056,0.028l-0.103,0.072l-0.057,0.027l-0.071,0.008l-0.132,0.009l-0.069,0.024
	l-0.08-0.021l-0.142-0.004l-0.225-0.012l-0.084-0.03l-0.154,0.007l-0.063-0.035l-0.097,0.014l-0.226-0.123l-0.119-0.013l-0.14-0.144
	l-0.139-0.063l-0.284-0.168l-0.182-0.06l-0.136-0.06l-0.093,0.026l-0.027,0.05l-0.193-0.029l-0.139-0.12l-0.354-0.129l-0.119,0.049
	l-0.167-0.037l-0.11-0.03l-0.119-0.038l-0.048-0.032l-0.12-0.124l-0.117-0.057l-0.047,0.02l-0.006,0.06l-0.188-0.183l-0.092-0.097
	l-0.019-0.072l-0.039-0.074l-0.028-0.142l0.062-0.243l0.053-0.15l0.07-0.164l0.124-0.209l0.044-0.051l0.096-0.115l0.019-0.074
	l0.148-0.147l0.144-0.089l0.72-0.739l0.334-0.258l0.141-0.131l0.028-0.097l0.038-0.077l0.158-0.267l0.069-0.086l0.044-0.125
	l0.091-0.089l0.215-0.36l0.032-0.099l0.223-0.345l0.122-0.41l0.05-0.398l0.035-0.892l0.021-0.4l0.143-0.589l0.354-0.963l0.248-0.589
	l0.098-0.313l0.026-0.143l-0.011-0.075l0.063-0.052l0.031-0.097l0.132-0.342l0.041-0.181l0.076-0.281l0.031-0.18l0.06-0.081
	l0.057-0.195l0.059-0.339l0.04-0.2l0.024-0.234l0.026-0.266l0.091-0.428l0.034-0.395l0.12-1.217l0.019-0.048l0.009,0.081
	l-0.049,0.572l0.054-0.133l0.03-0.283l0.015-0.237l-0.011-0.104l0.028-0.138l0.085-0.104l0.092-0.303l0.02-0.146l-0.024-0.152
	l0.064-0.246l0.116-0.229l0.166-0.159l0.135-0.214l0.046-0.054l-0.007,0.059l0.02,0.068l0.052-0.117l0.035-0.164l0.03-0.094
	l-0.026-0.101l-0.08,0.046l-0.059,0.097l-0.134-0.016l-0.031-0.172l0.018-0.088l-0.046-0.056l-0.049-0.089l-0.024-0.146
	l-0.004-0.101l-0.06,0.176l-0.027,0.158l-0.049-0.106l0.006-0.077l-0.041-0.045l-0.058-0.049l0.042-0.07l0.088-0.058l0.062-0.019
	l0.135-0.045l0.23-0.262l0.141-0.174l0.049-0.146l0.069-0.174l0.086-0.187l0.045-0.182l0.048-0.111l0.028,0.009l-0.036,0.171
	l0.022,0.014l0.036-0.024l0.028-0.151l0.06-0.169l0.073-0.145l0.066-0.077l0.08-0.063l0.095-0.104l0.076-0.116l0.023-0.099
	l-0.134,0.129l-0.127,0.097l-0.103,0.111l-0.057,0.174l-0.023-0.027l-0.086-0.063l-0.012,0.046l-0.04,0.092l-0.014,0.046
	l-0.032-0.044l-0.006-0.051l0.018-0.054l0.04-0.053l-0.126-0.048l0.059-0.125l0.225-0.244l0.05,0.037l0.05,0.004l0.048-0.031
	l0.044-0.063l-0.082-0.063l-0.072,0.016l-0.152,0.118l-0.104,0.067l-0.052,0.059l-0.047-0.115l0.027-0.115l0.041-0.089l0.06-0.075
	l0.088-0.071l0.161-0.072l0.051-0.041l0.021-0.051l-0.006-0.047l0.003-0.042l0.074-0.089l0.044,0.049l0.109,0.063l0.048,0.011
	l0.103-0.1l0.013-0.033l0.019-0.033l0.043-0.02l0.03,0.011l0.068,0.055l0.043,0.002l0.032-0.026l0.05-0.095l0.053-0.044l0.041-0.028
	l0.029-0.064l-0.038-0.023l-0.093-0.018l-0.088,0.053l-0.078-0.028l-0.08-0.008l-0.088,0.087l-0.076,0.097l-0.12-0.009l-0.102-0.022
	l-0.013-0.067l0.083-0.08l0.079-0.019l0.133-0.045l0.021-0.069l0.017-0.017l0.053-0.045l0.039,0.016l0.032,0.072l0.058,0.006
	l0.034-0.067l0.068,0.008l0.118,0.016l0.163-0.037l0.033-0.049l0.095-0.001l0.055-0.039l-0.018-0.06l0.033-0.021l0.012-0.073
	l0.083-0.015l0.058-0.013l0.07-0.069l0.098-0.04l0.156-0.031l0.165-0.001l0.159,0.037l0.129,0.038l0.089-0.006l0.164-0.08
	l0.278-0.136l0.148-0.076l0.003-0.083l0.065-0.039l0.099-0.014l0.061,0.025l0.091-0.036l0.04-0.021l-0.009-0.079l0.08,0.017
	l0.099,0.124l0.069,0.081l-0.001-0.078l-0.056-0.139l-0.046-0.058l0.042-0.056l0.045,0.04l0.065,0.049l0.092-0.058l0.184-0.122
	l0.099-0.086l0.117-0.013l0.175-0.083l0.285-0.206l0.141-0.11l0.026-0.051l-0.042-0.032l-0.082,0.052l-0.537,0.297l-0.233,0.09
	l-0.205,0.082l-0.048-0.026l0.058-0.038l0.121-0.057l0.295-0.129l0.673-0.376l0.273-0.192l0.125-0.217l0.192-0.161l0.13-0.205
	l0.293-0.287l0.167-0.219l0.062-0.18l0.096-0.174l0.02-0.183l-0.075-0.151l0.072-0.145l0.156-0.111l0.131-0.126l0.198-0.254
	l0.148-0.315l0.057-0.187l0.03-0.283l-0.007-0.063l-0.047-0.057l-0.064-0.014l-0.066-0.023l-0.046-0.088l0.082-0.431l0.021-0.005
	l0.076-0.032l0.041-0.058l-0.065-0.053l-0.058-0.082l0.025-0.11l0.078-0.094l0.009-0.034l-0.023-0.097l-0.088-0.235l-0.005-0.082
	l0.167-0.348l0.036-0.194l0.033-0.221l0.03-0.142l0.043-0.188l0.083-0.256l0.076-0.303l0.036-0.348l0.049-0.042l0.009-0.008
	l0.021-0.016l0.021-0.02l0.009-0.028l-0.005-0.034l-0.04-0.105l0.001-0.109l0.047-0.119l0.06-0.2l0.038-0.128l0.068-0.022
	l0.082-0.053l0.061-0.005l0.053-0.032l0.021-0.054l0.067-0.121l0.056-0.099l0.067-0.137l0.02-0.091l0.046-0.093l0.063-0.103
	l0.043-0.06l0.063-0.032l0.063-0.017l0.064,0.063l0.037,0.023l0.004-0.061l-0.011-0.047l-0.044-0.064l-0.054-0.063l-0.064,0.012
	l-0.068,0.013l-0.04-0.076l-0.031-0.053l-0.038,0.047l-0.039,0.015l-0.048-0.061l0.01-0.07l0.039-0.073l0.048-0.063l0.067-0.045
	l0.018-0.052l0.036,0.024l0.039,0.103l0.052,0.027l0.073,0.06l0.044,0.03l0.083,0.032l0.078,0.019l0.063,0.059l0.071,0.023
	l0.101-0.016l0.065,0.011l0.255-0.142l0.077-0.074l0.05-0.117l-0.011-0.112l-0.066-0.066l-0.134-0.017l-0.315,0.138l-0.165,0.035
	l-0.17-0.094l0.016-0.088l-0.086-0.041l-0.076,0.002l-0.046,0.023l-0.042,0.017l-0.039,0.031l-0.059,0.024l-0.075,0.028
	l-0.046-0.009l-0.042-0.076l0.066-0.289l0.022-0.26l-0.028-0.224l-0.018-0.111l-0.058-0.154l-0.041-0.125l-0.114-0.153l-0.145-0.018
	l-0.093-0.005l-0.087-0.058l-0.115,0.055l-0.025-0.063l-0.101-0.072l-0.019-0.142l0.01-0.257l0.168-0.27l0.047-0.403l0.054-0.083
	l0.069-0.056l0.128-0.173l0.231-0.354l0.1-0.209l0.033-0.238l0.03-0.188l-0.011-0.192l-0.059-0.286l-0.048-0.07l-0.065,0.04
	l-0.038-0.048l-0.04-0.041l0.009-0.076l0.124-0.341l0.138-0.158l0.088-0.175l0.095-0.237l0.032-0.221l0.02-0.229l-0.034-0.153
	l0.007-0.175l-0.087-0.192l-0.04-0.081l-0.111,0.032l0.054-0.19l0.047-0.214l0.008-0.281l-0.126-0.101l0.025-0.099l0.069,0.008
	l0.045-0.036l0.057-0.022l0.001-0.093l0.008-0.121l-0.046-0.056l0.082-0.112l0.217-0.103l0.215-0.091l0.178-0.132l0.189-0.185
	l0.063-0.172l0.02-0.063l0.029-0.172l-0.02-0.101l0.103-0.146l-0.003-0.216l0.009-0.309l0.011-0.218l-0.035-0.097l0.103-0.141
	l0.023-0.031l0.057-0.114l0.02-0.03l0.117-0.134l0.05-0.17l0.008-0.155l-0.029-0.037l-0.071-0.003l0.011-0.072l0.033-0.054
	l0.04-0.105l0.033,0.007l-0.025,0.098l0.022,0.045l0.102-0.022l0.052-0.044l0.041-0.056l0.027-0.063l0.007-0.07l-0.025-0.074
	l-0.046-0.014l-0.054-0.005l-0.074,0.021l0.006-0.078l-0.002-0.121l0.109-0.097l0.057-0.099l-0.001-0.141l-0.011-0.083l-0.077-0.042
	l0.045-0.078l0.04-0.09l0.076-0.103l0.095-0.052l0.06-0.1l0.059-0.048l0.062-0.05l0.006-0.026l0.083-0.205l0.092,0.125l0.007,0.084
	l-0.028,0.126l-0.055,0.079l0.063,0.261l0.122,0.203l0.039,0.221l0.027,0.081l0.009,0.124l-0.05,0.072l0.02,0.117l0.088,0.159
	l0.014,0.126l0.022,0.141l0.029,0.085l-0.042,0.048l-0.006,0.065l0.009,0.1l0.039,0.118l0.014,0.185l0.033,0.192l0.095,0.156
	l0.098,0.204l-0.013,0.201l0.135,0.153l0.11,0.134l0.135,0.107l0.071,0.031l0.062,0.048l0.099,0.051l0.097,0.075l0.051,0.042
	l0.04,0.036l0.017,0.048l0.009,0.072l-0.01,0.041l-0.035,0.022l-0.036,0.033l-0.086,0.069l-0.086,0.012l-0.087,0.007l-0.073-0.004
	l-0.055,0.001l-0.061,0.076l-0.104,0.19l-0.008,0.133l-0.065,0.166l-0.017,0.111l0.026,0.162l-0.028,0.133l-0.004,0.161
	l-0.035,0.111l-0.051,0.087l-0.024,0.054l-0.052,0.02l-0.009,0.057l0.015,0.05l-0.057,0.012l-0.036,0.034l0.044,0.035l0.053,0.046
	l0.055,0.019l0.034-0.011l0.093,0.062l0.073,0.021l0.081-0.014l0.016-0.05l-0.034-0.03l0.029-0.029l0.01-0.027l0.013-0.017
	l-0.028-0.028l-0.008-0.037l0.027-0.023l0.029,0.017l0.023,0.04l0.033,0.056l-0.005,0.044l-0.03,0.026l-0.016,0.034l0.038,0.059
	v0.056l-0.041,0.025l-0.014,0.06l-0.002,0.109l0.026,0.152l0.031,0.078l0.026,0.007l0.063,0.015l0.056,0.014l0.054,0.003
	l0.069,0.049l0.071-0.015l0.038-0.044l0.018-0.077l-0.011-0.062l0.021-0.036l0.006-0.097l-0.009-0.058l0.003-0.033l0.034-0.027
	l0.012-0.052l-0.012-0.02l-0.044-0.02l-0.012-0.051l-0.03-0.063l-0.014-0.029l0-0.027l0.069-0.107l0.064-0.083l0.032-0.047
	l0.029-0.072l-0.001-0.045l-0.024-0.003l-0.039,0.044l-0.058,0.081l-0.055,0.022l-0.009,0.057l-0.034,0.057l-0.05,0.05l-0.039-0.001
	l-0.013-0.04l-0.031,0.005l-0.035,0.012l-0.003-0.023l0.009-0.046l-0.018-0.053l-0.042-0.025l-0.057-0.044l-0.044-0.061l-0.013-0.07
	l0.01-0.057l0.033-0.059l0.021-0.066l0.055-0.038l0.06-0.05l0.035-0.064l0.031-0.067l0.051-0.091l0.072-0.041l0.059-0.04
	l0.055-0.018l0.048,0.018h0.062l0.121,0.037l0.086,0.029l0.063-0.01l0.012-0.033l-0.007-0.053l-0.005-0.028l0.013-0.018l0.034,0.03
	l0.028,0.027l0.031-0.005l0.009-0.03v-0.056l0.014-0.043l0.026-0.039l0.04,0.006l0.042-0.016l0.005-0.053l-0.003-0.041l-0.04-0.036
	l-0.038,0.014l-0.044-0.004l-0.027-0.037l-0.042-0.026l-0.043-0.045l-0.012-0.066l-0.07-0.083l-0.067-0.017l-0.062-0.026
	l-0.044-0.046l0.055-0.082l0.081-0.023l0.07-0.014l0.086,0.011l0.056,0.023l0.112,0.067l0.073,0.005l0.101,0.047l0.03,0.011
	l0.149,0.058l0.25,0.064l0.142,0.058l0.036,0.072l-0.115,0.094l-0.091,0.025l-0.09-0.067l-0.065-0.034l-0.047,0.002l-0.046,0.014
	l-0.058,0.105l-0.067,0.083l-0.051,0.03l-0.123,0.208l0.168-0.008l0.095-0.032l0.092-0.071l0.064-0.103L596,448.768l0.018-0.042
	l0.035-0.005l0.061,0.048l-0.007,0.091l-0.043,0.126l-0.05,0.083l0.082,0.039l0.126,0.033l0.051-0.013l-0.009-0.049l-0.003-0.07
	l0.043-0.097l-0.018-0.087l-0.034-0.071l0.076-0.046l0.136-0.072l0.055-0.053l0.03-0.061l0.029,0.002l0.054,0.002l0.134,0.03
	l0.119,0.011l0.101,0.004l0.084,0.034l0.021-0.036l0.051-0.046l0.068-0.065l0.022-0.062l-0.02-0.058l-0.058-0.032l-0.004-0.067
	l0.032-0.062l0.01-0.051h0.079h0.097l0.124,0.009l0.208,0.007l0.339-0.043l0.156-0.008l0.14-0.028l0.062-0.082l0.002-0.084
	l0.024-0.056l0.089-0.029l0.069-0.03l0.012-0.062l0.03-0.051l0.039-0.04l0.035-0.078l0.023-0.099l-0.026-0.094l-0.045-0.102
	l0.005-0.077l0.083-0.026l0.098-0.032l0.116-0.072l0.088-0.098l0.037-0.074l0.004-0.057l-0.044-0.124l-0.056-0.142l-0.053-0.04
	l-0.019-0.148l0.067-0.041l0.018,0.015l0.042-0.036l0.051-0.047l-0.004-0.139l0.082-0.138l-0.037-0.182l0.089-0.044l0.071-0.042
	l0.044-0.104l0.083-0.045l0.072-0.089l-0.068-0.093l0.135-0.162l0.108-0.023l0.059-0.132l-0.037-0.093l0.079-0.053l0.044-0.141
	l0.06-0.133l-0.028-0.14l-0.039-0.066l-0.033-0.027l-0.013-0.036l0.021-0.088l0.073-0.073l0.079-0.083l0.041-0.049l-0.029-0.068
	l-0.097-0.054l0.135-0.14l0.162-0.072l0.067-0.068l0.065-0.09l0.075-0.069l0.054-0.075l-0.008-0.166l-0.002-0.177l-0.111-0.042
	l0.074-0.14l0.105-0.086l0.039-0.062l0.107-0.081l0.052-0.049l0.01-0.055l-0.05-0.174l0.104-0.315l0.091-0.176l0.094-0.214
	l0.13-0.334l0.145-0.353l-0.031-0.771l-0.096-0.445l0.219-0.373l0.101-0.364l-0.017-0.498l0.098-0.353l0.069-0.199l-0.013-0.144
	l-0.109-0.072l0.042-0.141l0.009-0.104l0.067-0.102l0.032-0.158l0.078-0.161l-0.033-0.15l0.164-0.518l0.107-0.037l0.13-0.02
	l0.143-0.054l0.094-0.073l0.077-0.06l0.13-0.091l0.074-0.157l0.054-0.073l0.034-0.105l-0.001-0.106l-0.064-0.23l0.05-0.045
	l0.372-0.055l0.273-0.087l0.138-0.106l0.023-0.023l0.049-0.078l0.036-0.029l0.058-0.022l0.167-0.044l0.212-0.106l0.194-0.143
	l0.129-0.169l0.119-0.121l0.057-0.193l0.031-0.2l0.006-0.202l-0.067-0.213l0.155,0.089l0.073,0.025l0.075-0.016l0.055-0.063
	l0.054-0.107l0.033-0.118l-0.006-0.092l-0.056,0.077l-0.04,0.073l-0.046,0.063l-0.076,0.044l-0.056-0.032l-0.028-0.051l0.029-0.05
	l0.022-0.086l-0.042-0.024l-0.053-0.004l-0.039,0.022l-0.003,0.05l-0.04,0.074l-0.097,0.074l-0.121,0.124l-0.042-0.123l0.145-0.112
	l0.206-0.192l0.149-0.185l0.735-0.24l0.482-0.258l0.226-0.208l0.084-0.057l0.034-0.074l-0.037-0.196l0.107-0.314l-0.029-0.121
	l0.107-0.195l0.074-0.131l0.051-0.067l0.104-0.182l0.003-0.105l-0.112-0.169l-0.037-0.142l0.148-0.097l0.206-0.015l0.31-0.098
	l0.294-0.087l0.284-0.312l0.375-0.805l0.251-0.358l0.041-0.078l0.006-0.037l0.057-0.114l0.019-0.057V428.5l0.037-0.128l-0.001-0.074
	l0.013-0.065l0.022-0.03l0.03-0.027l0.037-0.057l0.064-0.24l0.036-0.046l0.031-0.144l0.056-0.056l0.061-0.006l-0.008-0.018
	l0.035,0.059l0.036,0.112l0.07-0.141l0.076-0.022l0.086-0.005l0.139-0.021l0.078-0.075l0.067-0.104l0.014-0.045l0.002-0.082
	l-0.029-0.126l0.086-0.183l0.05-0.073l0.031,0.216l-0.031,0.18l0.011,0.091l0.082,0.062l0.11,0.022l0.108,0.01l0.15-0.029
	l0.106-0.035l0.092-0.052l0.056-0.069l-0.033-0.191l-0.009-0.104l0.07-0.133l0.012-0.139l-0.017-0.083l-0.004-0.105l0.116-0.06
	l0.14-0.075l0.04-0.083l-0.051-0.164l-0.028-0.199l0.086-0.167l0.085-0.092l0.157-0.091l0.283-0.172l0.188-0.186l0.164-0.17
	l0.051-0.081l0.037-0.098l0.014-0.107l-0.032-0.223l0.031-0.095l0.354-0.425l0.142-0.146l0.123-0.156l0.062-0.088l0.076-0.05
	l0.084-0.049l0.103-0.053l0.053-0.022l0.034-0.021l0.161,0.368l0.148,0.333l0.149,0.333l0.149,0.333l0.15,0.334l0.149,0.334
	l0.151,0.334l0.15,0.335l0.151,0.334l0.151,0.335l0.152,0.336l0.152,0.336l0.153,0.336l0.152,0.336l0.153,0.336l0.154,0.337
	l0.154,0.337l0.154,0.337l0.155,0.338l0.155,0.338l0.155,0.338l0.156,0.338l0.156,0.339l0.157,0.339l0.157,0.34l0.158,0.339
	l0.157,0.34l0.159,0.34l0.158,0.342l0.16,0.341l0.16,0.341l0.16,0.342l0.087,0.187l0,0l-0.005,0.005l-0.132,0.022l-0.098,0.001
	l-0.102-0.018l-0.048-0.02l-0.121-0.071l-0.042-0.009l-0.155-0.016l-0.082,0.088l-0.106,0.044l-0.219,0.028l-0.075-0.036
	l0.001,0.016v0.014l0.014,0.204l0.148,2.286l0.158,2.308l0.167,2.332L617.057,444.014z M639.475,529.713l-0.08,0.065l-0.016,0.105
	l0.061,0.091l-0.109,0.028l-0.186,0.013l-0.099,0.019l-0.04,0.067l-0.061,0.039l-0.027,0.033l0.064,0.047l-0.05,0.037l-0.07,0.024
	l-0.068-0.003l-0.044-0.041l0.001-0.052l0.062-0.072l-0.006-0.06l-0.141-0.093l-0.035-0.032l-0.036-0.055l-0.023-0.053l0.014-0.025
	l0.076,0.022l-0.022-0.074l0.061,0.028l0.053,0.004l0.037-0.023l0.01-0.049l-0.016-0.029l-0.036-0.037l-0.1-0.079l0.007-0.003
	l-0.01-0.024l-0.019-0.03l-0.016-0.021l-0.045-0.024l-0.025,0.021l-0.019,0.058l-0.164,0.097h-0.039l-0.047-0.004l-0.07,0.023
	l-0.072,0.037l-0.049,0.034l-0.041-0.006l-0.036-0.063l-0.048-0.122l-0.045-0.029l-0.054-0.018l-0.112-0.026l0.084,0.05l0.022,0.021
	l0.038,0.058l0.03,0.073l0.036,0.064l0.056,0.029l0.011,0.063l-0.077,0.132l-0.105,0.14l-0.083,0.081l-0.068,0.023l-0.122,0.01
	l-0.446,0.288l-0.142,0.047l-0.138,0.013l-0.128-0.016l0.067,0.012l0.086,0.037l0.072,0.039l0.02,0.027l-0.022,0.032l-0.012,0.045
	l0.003,0.047l0.021,0.038l0.036,0.048l0.034,0.066l0.026,0.069l0.019,0.111l-0.003,0.035l-0.026,0.035l-0.064,0.048l-0.022-0.066
	l-0.036-0.037l-0.039,0.01l-0.03,0.063l-0.125,0.015l-0.057-0.005l-0.045-0.027L636.43,531l-0.06,0.018l-0.062,0.056l-0.039,0.064
	l0.008,0.053l0.048,0.06l-0.022,0.016l-0.056,0.001l-0.053,0.015l-0.101,0.201l-0.084,0.101l-0.096-0.006l-0.08,0.009l-0.05,0.105
	l0.023,0.08l0.142-0.064l0.025,0.024l-0.087,0.062l-0.241,0.165l-0.557,0.221l-0.158,0.101l-0.039,0.003l-0.029-0.041l-0.021-0.071
	l0.006-0.031l0.056-0.109l-0.003-0.005l-0.006-0.043v-0.008l-0.01-0.022l0.023-0.007l0.05,0.001l0.03-0.039l0.029-0.024l0.013-0.025
	l-0.015-0.053l-0.081-0.005l-0.055-0.039l-0.032-0.059l-0.014-0.067l-0.032,0.08l-0.065,0.004l-0.075-0.022l-0.063-0.001
	l-0.058,0.052l0.002,0.049l0.041,0.037l0.062,0.008l-0.204,0.088l-0.084,0.059l-0.045,0.08l0.011,0.077l0.052,0.08l0.077,0.064
	l0.09,0.022h0.104l0.114,0.02l0.061,0.049l-0.057,0.088l-0.075,0.048l-0.173,0.079l-0.785,0.575l-0.193,0.096l-0.244,0.168
	l-0.085,0.042l-0.072,0.02l0.003-0.035l0.011-0.033l0.017-0.032l0.03-0.038l-0.027-0.024l-0.119,0.079l-0.067,0.101l0.004,0.064
	l0.094-0.035l-0.07,0.105l-0.128,0.1l-0.146,0.07l-0.119,0.02l-0.035,0.119l-0.146,0.176l-0.328,0.303l0.071-0.018l1.844-1.307
	l0.632-0.371l0.766-0.501l0.838-0.377l0.593-0.346l0.187-0.08l0.07-0.015l0.062-0.006l0.058-0.014l0.157-0.112l0.052-0.024
	l0.195-0.023l0.086-0.072l0.067-0.085l0.086-0.073l0.337-0.056l0.023-0.038l0.389-0.212l0.023,0.022l-0.084,0.07l0.433-0.068
	l0.245-0.07l0.118-0.101l0.022-0.04l0.045-0.045l0.052-0.037l0.045-0.016l0.011-0.03l0.013-0.063l0.025-0.045l0.047,0.015
	l0.101,0.051l0.07-0.025l0.009-0.076l-0.083-0.099l-0.044-0.054l-0.006-0.047l0.007-0.043v-0.043l-0.068-0.21L639.475,529.713z"/></svg>