<?xml version="1.0" encoding="utf-8"?>
<!-- Generator: Adobe Illustrator 15.0.0, SVG Export Plug-In . SVG Version: 6.00 Build 0)  -->
<!DOCTYPE svg PUBLIC "-//W3C//DTD SVG 1.1//EN" "http://www.w3.org/Graphics/SVG/1.1/DTD/svg11.dtd">
<svg version="1.1" id="Ebene_1" xmlns="http://www.w3.org/2000/svg" xmlns:xlink="http://www.w3.org/1999/xlink" x="0px" y="0px"
	 width="1920px" height="1080px" viewBox="0 0 1920 1080" enable-background="new 0 0 1920 1080" xml:space="preserve">

<path fill="#F4E0B6" stroke="#FFFFFF" d="M1169.338,519.373l0.374,0.057l0.078,0.031l0.066,0.052l0.067,0.083l0.083,0.145
	l0.055,0.041l0.081-0.016l0.078-0.114l0.014-0.139l0.051-0.089l0.037,0.007l0.148,0.03l0.095,0.042l0.062,0.012l0.053-0.021
	l0.137-0.106l0.068-0.02l0.16,0.006l0,0l0.044-0.011l0.035-0.023l0.024-0.034l0.017-0.042l0.018-0.04l0.095-0.332l0.045-0.096
	l0.257-0.382l0.012-0.018l0.062-0.059l0.098-0.041l0.1-0.015l0.063,0.02l0.053,0.057l0.068,0.094l0,0l0,0l0.165,0.13l0.036,0.064
	l0.041,0.229l0.044,0.083l0.048,0.021l0.021,0.009l0.187-0.104l0.095-0.008l0.101,0.006l0.107-0.011l0.056-0.019l0.22-0.07
	l0.101-0.001l0.042,0.011l0.029,0.02l0.017,0.029l0.003,0.04l0.011,0.143l0.062,0.101l0.105,0.064l0.14,0.039l0.158,0.032
	l0.152,0.054l0.487,0.248l0.425,0.144l-0.023,0.028l-0.192,0.108l-0.249,0.089l-0.676,0.414l-0.084,0.034l-0.186,0.076l-0.243,0.22
	l-0.187,0.106l-0.077,0.066l-0.024,0.015l-0.015,0.009l-0.085,0.02l-0.053,0.029l-0.04,0.021l-0.087,0.026l-0.092,0.016
	l-0.063-0.007l-0.038-0.031l-0.018-0.036l-0.015-0.039l-0.025-0.04l-0.032-0.011l-0.092,0.031l-0.042,0.005l-0.039-0.017
	l-0.086-0.052l-0.035-0.017l-0.049-0.003l-0.039,0.009l-0.037,0.004l-0.05-0.018l-0.021-0.071l-0.047-0.021l-0.056,0.011
	l-0.044,0.027l-0.039,0.012l-0.024-0.029l-0.022-0.038l-0.025-0.015l-0.029,0.021l-0.015,0.032l-0.008,0.029l-0.002,0.014
	l-0.36,0.167l-0.052,0.086l-0.063-0.036l-0.179-0.142l-0.051-0.019l-0.053-0.011l-0.047-0.021l-0.146-0.062l-0.051-0.012
	l-0.037,0.009l-0.056-0.007l-0.054-0.016l-0.029-0.016l-0.03-0.003l-0.155,0.024l-0.02-0.003l-0.02-0.01l-0.021-0.004l-0.026,0.013
	l-0.028,0.028l-0.017,0.01l-0.111,0.015l-0.031-0.016l-0.015-0.061l-0.099,0.003l-0.094-0.039l-0.37-0.25l-0.098-0.043l-0.091,0.013
	l0.001-0.02l-0.006-0.023l-0.063,0.055l-0.066,0.042l-0.016,0.003l-0.059,0.013l-0.016-0.003l-0.066-0.014l-0.146-0.101
	l-0.063-0.018l0.047-0.102l0.104-0.135l0.118-0.105l0.072-0.105l0.035-0.102l0.009-0.022l0.031-0.165l0.07-0.125l0.13-0.039
	L1169.338,519.373z M1182.064,503.093h0.076l0.063,0.039l0.017,0.052l-0.061,0.041l-0.022,0.044l-0.07,0.01l-0.075-0.022
	l-0.037-0.048l0.062-0.01l0.018-0.034l0.005-0.041L1182.064,503.093z M1180.857,503.388l0.048-0.017l0.027-0.054l0.038,0.002
	l0.075,0.062l0.062,0.009l0.061-0.006l0.072,0.017l0.041,0.037l0.002,0.043l-0.03,0.048l-0.055,0.052l-0.067-0.093l-0.196-0.021
	L1180.857,503.388z M1165.992,514.871l0.006,0.063l-0.068,0.046l-0.095-0.054v-0.016l0.005-0.015l0.009-0.011l0.013-0.007
	L1165.992,514.871z M1165.293,515.107l0.033,0.113l-0.123,0.055l-0.07-0.01l-0.062-0.036l-0.033-0.055l0.015-0.066l0.124-0.072
	L1165.293,515.107z M1166.312,508.826l0.068-0.038l0.066-0.07l0.132-0.099l0.071-0.018l0.073,0.05l0.114,0.148l0.066,0.043
	l0.08-0.007l0.049-0.047l0.018-0.072l0.018-0.152l0.035-0.07l0.084-0.121l0.009-0.053l0.004-0.027l0.004-0.085l0.021-0.021
	l0.045,0.027l0.146,0.109l0.057,0.032l0.062,0.014l0.31-0.011l0.068-0.017l0.04-0.022l0.075-0.057l0.043-0.015l0.03,0.007
	l0.07,0.048l0.035,0.017l0.076,0.011l0.228-0.019l0.157,0.039l0.116,0.078l0.095,0.026l0.003-0.004l0.092-0.118l0.03-0.067
	l0.04-0.057l0.059-0.034l0.084,0.006l0.072,0.041l0.063,0.047l0.063,0.031l0.077-0.011h0.012l0.039,0.001l0.04,0.018l0.039,0.024
	l0.046,0.021l0.171,0.02l0.058,0.02l0.086,0.072l0.16,0.18l0.097,0.052l0.087-0.001l0.305-0.077l0.078-0.037l0.029-0.012
	l0.291-0.239l0.074-0.037l0.166,0.028l0.081-0.01l0.053-0.051l0.036-0.15l0.031-0.068l0.058-0.045l0.198-0.067l0.113-0.038
	l0.059-0.039l0.166-0.194l0.035-0.042l0.078-0.143l0.025-0.097l-0.021-0.043l-0.053-0.03l-0.077-0.057l-0.059-0.076l-0.007-0.057
	l0.011-0.059l-0.004-0.082l-0.036-0.082l-0.038-0.065l0.001-0.054l0.077-0.056l0.026-0.09l-0.143-0.323l-0.039-0.14l0.036-0.136
	l0.24-0.353l0.038-0.116l0.025-0.248l0.091-0.358l-0.001-0.122l-0.041-0.147l-0.17-0.396l-0.004-0.04l-0.039-0.397l-0.063-0.317
	l0.048-0.004l0.124-0.033l0.167-0.013l0.519,0.075l0.171-0.004l0.085,0.016l0.094,0.065l0.361,0.013l0.297,0.105l0.07-0.034
	l0.085-0.001l0.082,0.019l0.063,0.021l0.143,0.023l0.029,0.01h0.026l0.082-0.046l0.032-0.01l0.093,0.017l0.277,0.093l0.232,0.077
	l0.088,0.016l0.094,0.029l0.085,0.055l0.313,0.253l0.075,0.044l0.054-0.004l0.055,0.021l0.275,0.19l0.318,0.072l0.645,0.021
	l0.063,0.01l0.075,0.03l0.1-0.01l0.188-0.05l0.043-0.074l0.091-0.009l0.101,0.008l0.079-0.026l0.061,0.003l0.06,0.083l0.076,0.168
	l0.047,0.079l0.031,0.04l0.039,0.033l0.031,0.01l0.075,0.005l0.025,0.009l0.004,0.001l0.047,0.011l0.089-0.005l0.087-0.015
	l0.051-0.02l0.119-0.11l0.063-0.039l0.064-0.019l0.172-0.016l0.075-0.029l0.146-0.118l0.146-0.082l0.066-0.058l0.038-0.059
	l0.087-0.207l0.052-0.075l0.307-0.296l0.043-0.002l0.034,0.011l0.032,0.015l0.033,0.01l0.102,0.007l0.093-0.008l0.082-0.027
	l0.283-0.196l0.07-0.022l0.077,0.02l0.109,0.042l0.11,0.029l0.082-0.022l0.076-0.04h0.099l0.105,0.026l0.093,0.04l0.3,0.242
	l0.045,0.008l0.083,0.038l0.083,0.054l0.037,0.054l-0.146-0.041l-0.136-0.023l-0.138-0.005l-0.23,0.034l-0.086,0.027l-0.079,0.041
	l-0.132,0.105l-0.13,0.07l-0.059,0.048l-0.026,0.033l-0.021,0.053l-0.018,0.031l-0.101,0.104l-0.027,0.066l-0.019,0.163
	l-0.051,0.053l-0.035,0.004l-0.086-0.018h-0.042l-0.037,0.018l-0.08,0.058l-0.104,0.035l-0.024,0.082l-0.013,0.164l0.096,0.06
	l-0.002,0.148l-0.053,0.163l-0.137,0.216l-0.067,0.24l-0.132,0.277l-0.014,0.081l0.005,0.209l-0.016,0.076l0.008,0.066l0.063,0.076
	l0.103,0.075l0.037,0.033l-0.089,0.197l0.023,0.078l0.072,0.06l0.102,0.03l0.048,0.001l0.065-0.01l0.045,0.003l0.044,0.023
	l0.007,0.036l-0.011,0.043l-0.006,0.088l-0.011,0.031l-0.006,0.034l0.013,0.052l0.028,0.051l0.026,0.031l0.079,0.052l0.101,0.039
	l0.047,0.029l0.025,0.05l0.001,0.048l-0.005,0.036l0.005,0.034l0.025,0.037l0.022,0.013l0.026,0.009l0.026,0.012l0.021,0.025
	l0.003,0.026l-0.013,0.074l0.029,0.063l0.021,0.02l0.037,0.007l0.031,0.055l0.059,0.03l0.139,0.019l0.025,0.032l-0.01,0.063
	l-0.033,0.107l0.01,0.145l0.008,0.124l0.031,0.134l0.059,0.054l0.022,0.085l0.044,0.1l0.055,0.098l0.053,0.077l0.091,0.086
	l0.087,0.034l0.46-0.033l0.069,0.005l0.063,0.021l0.012,0.016l-0.001,0.024l0.092,0.126l0.036,0.029l0.06,0.015l-0.049,0.017
	l-0.045,0.004l-0.043-0.006l-0.042-0.012l-0.017,0.016l0.058,0.039l0.076,0.031l0.079,0.014l0.07-0.014l0.023,0.024l-0.074,0.046
	l-0.077-0.001l-0.081-0.014l-0.222,0.052l-0.057,0.121l0.015,0.154l0.076,0.132l0.356,0.358l0.032,0.052l0.045,0.07l0.066,0.144
	l0.038,0.063l0.106,0.125l0.057,0.082l0.031,0.083l-0.068,0.335l-0.068,0.146l-0.132,0.016l-0.028-0.046l-0.028-0.026l-0.018-0.025
	l0.001-0.051l0.099-0.143l0.021-0.062l-0.014-0.086l-0.042-0.087l-0.063-0.067l-0.092-0.032l-0.079,0.027l-0.131,0.125l-0.029-0.03
	l-0.147-0.12l-0.048-0.026l-0.084,0.009l-0.063,0.039l-0.11,0.117l-0.021,0.042l0.01,0.042l0.022,0.044l0.024,0.069l0.014,0.02
	l0.035,0.034l0.02,0.032l-0.005,0.02l-0.013,0.013l-0.004,0.009l0.145,0.159l0.088,0.072l0.113,0.028l0.067,0.09l0.158,0.308
	l0.013,0.031l0.062,0.171l0.002,0.013l0.01,0.165l-0.12,0.072l0.115,0.115l0.059,0.048l0.063,0.039l0.215,0.09l0.51,0.493
	l0.557,0.538v0l0,0l-0.209,0.138l-0.087,0.084l-0.031,0.091l-0.003,0.104l-0.029,0.109l-0.044,0.102l-0.048,0.082l-0.137,0.113
	l-0.014,0.013l-0.164,0.005l-0.189-0.046l-0.077-0.007l-0.146-0.015l-0.093-0.016l-0.092-0.002l-0.108-0.024l-0.08,0.005
	l-0.078-0.01l-0.104-0.069l-0.1-0.042l-0.063,0.062l-0.078,0.195l-0.085,0.08l-0.092,0.003l-0.101-0.019l-0.229,0.028l-0.059-0.051
	l-0.051-0.075l-0.06-0.036l-0.032-0.021l-0.062,0.006l-0.52,0.18l-0.305,0.036l-0.144-0.042l-0.136-0.129l-0.012-0.063l0.061-0.221
	l-0.013-0.029l-0.024-0.024l-0.011-0.03l0.415-0.57l0.049-0.174l0,0l-0.001-0.001l0,0l0.001-0.001l-0.011-0.059l-0.02-0.063
	l-0.001-0.002l-0.031-0.057l-0.042-0.047l-0.055-0.028l-0.241-0.086l-0.077,0.001l-0.212,0.089l-0.289,0.007l-0.151-0.025
	l-0.12-0.053l-0.104-0.118l-0.041-0.142l0.01-0.147l0.046-0.133l0.137-0.196l0.053-0.229l0.049-0.089l0.02-0.036l-0.175-0.062
	l-0.17-0.025l-0.339,0.019l-0.942-0.077l-0.303,0.014l-0.084,0.016l-0.045,0.027l-0.002,0.001l0.013,0.074l-0.005,0.053
	l-0.025,0.039l-0.205,0.194l-0.048,0.078l-0.019,0.084l-0.002,0.081l-0.007,0.223l-0.155,0.485l-0.022,0.073l-0.011,0.274
	l-0.013,0.057l-0.054,0.063l-0.128,0.243l-0.056,0.167l-0.021,0.155l0.022,0.293l0,0l-0.006,0.173l-0.039,0.121l-0.015,0.047
	l-0.173,0.356l-0.057,0.198l0.001,0.054l0.022,0.042l0.042,0.242l0.074,0.17l0.009,0.038l0.002,0.059l-0.008,0.027l-0.08,0.241
	l-0.026,0.037l-0.05,0.028l-0.105,0.039l-0.041,0.042l-0.025,0.062l-0.002,0.001l-0.01,0.072l0.002,0.075l0.039,0.182l0.004,0.035
	l-0.006,0.037l-0.022,0.065l-0.005,0.037l0.012,0.081l0.05,0.144l-0.007,0.083l-0.084,0.224l-0.012,0.086l0.006,0.079l0.064,0.223
	l0.014,0.077v0.075l-0.012,0.073l-0.018,0.068l-0.038,0.078l-0.046,0.048l-0.271-0.103l-0.047-0.028l-0.041-0.038l-0.033-0.046
	l-0.028-0.05l-0.005-0.014l-0.007-0.012l-0.063-0.139l-0.079-0.101l-0.103-0.082l-0.135-0.077l-0.112,0.01l-0.136,0.036
	l-0.129-0.002l-0.098-0.1l0.01-0.114l0.105-0.077l0.237-0.074l0.028-0.036l0.044-0.204l0.055-0.055l0.014-0.034l-0.031-0.015
	l-0.011-0.005l-0.037-0.003l-0.031,0.001l-0.188,0.031l-0.126-0.005l-0.071-0.023l-0.063-0.04l-0.064-0.03l-0.075,0.006l-0.27,0.099
	l-0.148,0.018l-0.133-0.07l-0.045-0.119l0.037-0.132l0.164-0.22v0l0.019-0.047l-0.005-0.042l-0.027-0.032l-0.052-0.018l-0.05-0.057
	l0.006-0.057l0.017-0.061l-0.016-0.064l-0.059-0.047l-0.072-0.013l-0.07,0.014l-0.052,0.032l-0.154,0.176l-0.061,0.04l-0.066,0.01
	l-0.139-0.022l-0.064,0.005l-0.098,0.08l-0.099,0.262l-0.075,0.106l-0.075,0.038l-0.072,0.001l-0.169-0.057l-0.08-0.009
	l-0.069,0.019l-0.127,0.067l-0.144,0.013l-0.287-0.106h-0.137l-0.213,0.108l-0.127,0.039l-0.082,0.025l-0.226-0.004l-0.058-0.022
	l-0.335-0.125l-0.114-0.008l-0.104,0.033l-0.303,0.23l-0.117,0.042l-0.048-0.042l-0.033-0.03l0.072-0.262l0.499-0.338l0.168-0.191
	l0.01-0.063l-0.015-0.053l-0.11-0.184l-0.014-0.035l0.013-0.105l-0.01-0.113l-0.042-0.113l-0.151-0.26l-0.016-0.021l-0.02-0.019
	l-0.022-0.015l-0.148-0.023h-0.069l-0.057,0.016l-0.055,0.058l-0.028,0.046l-0.014,0.021l-0.055,0.047l-0.223-0.014l-0.004-0.001
	l-0.922,0.238l-0.284,0.004l-0.246-0.098l-0.058-0.019l-0.085,0.017l-0.048-0.004l-0.046-0.025l-0.073-0.069l-0.041-0.023
	l-0.096-0.014l-0.091,0.009l-0.093-0.002l-0.107-0.043l-0.058-0.063l-0.072-0.081l-0.037-0.175l0.027-0.178l0.061-0.149l0.115-0.287
	v-0.141l-0.077-0.185l-0.073-0.07l-0.065,0.02l-0.066,0.054l-0.067,0.033l-0.079-0.002l-0.239-0.036l-0.119,0.009l-0.031,0.018
	l-0.046,0.026l-0.062-0.004l-0.077-0.131l-0.088-0.064l-0.065,0.075l-0.013,0.035l-0.068,0.173l-0.067,0.047l-0.155,0.061
	l-0.136,0.101l-0.074,0.005l-0.079-0.005l-0.083,0.018l-0.162-0.007l-0.063,0.018l0.047,0.069l0.021,0.055l-0.054,0.042
	l-0.091,0.016l-0.083-0.026l-0.07-0.135l0.267-0.229l0.031-0.148l-0.052-0.05l-0.077-0.017l-0.229,0.023l-0.058,0.027l-0.169,0.159
	l-0.062,0.022l-0.052-0.029l-0.038-0.096l-0.276-0.111l0.067-0.432l0.104-0.688l0.058-0.107l0.088-0.075l0.07-0.021l0.183-0.054
	l0.047-0.03l0.047-0.053l0.063-0.107l0.044-0.029l0.075,0.007l0.155-0.002l0.499-0.209l0.2-0.126l0.081-0.034l0.023,0.017
	l-0.02,0.055l-0.041,0.077l0.008,0.125l0.149,0.037l0.188-0.011l0.076-0.018l0.203-0.045l0.508-0.23l0.139-0.104l0.059-0.066
	l0.033-0.066l0.029-0.108l0.027-0.104l0.045-0.068l0.195-0.187l0.061-0.029h0.077l0.16,0.02l0.277-0.011l0.083-0.021l0.199-0.099
	l0.076-0.004l0.161,0.026l0.071-0.018l0.055-0.057l-0.009-0.058l-0.033-0.065l-0.021-0.083l0.023-0.086l0.056-0.044l0.062-0.034
	l0.043-0.058l-0.01-0.083l-0.003-0.034l-0.08-0.128l-0.093-0.127l-0.058-0.115l-0.005-0.035l0.005-0.065l-0.004-0.036l-0.016-0.027
	l-0.051-0.062l-0.02-0.031l-0.002-0.048l0.024-0.018l0.004-0.011l-0.062-0.034l-0.193-0.042l-0.101-0.006l-0.044-0.012l-0.006,0.001
	l-0.028,0.006l-0.026,0.053l-0.127-0.053l-0.194,0.048l-0.348,0.139l-0.222,0.006l-0.064,0.038l-0.043,0.015l-0.218,0.039
	l-0.097-0.013l-0.09-0.052l-0.141-0.111l-0.026-0.021l-0.156-0.052l-0.023-0.013l-0.033,0.035l0.006,0.042l0.016,0.043l-0.006,0.04
	l-0.121,0.009l-0.172-0.12l-0.158-0.169l-0.082-0.138l0.002-0.1l0.05-0.06l0.146-0.089l0.048-0.057l0.023-0.059l0.007-0.069
	l-0.013-0.238l-0.025-0.141L1166.312,508.826z M1167.793,515.482l0.114-0.059l0.027-0.148l-0.044-0.121l-0.103,0.026l-0.042,0.031
	l-0.038,0.037l-0.027,0.044l-0.011,0.054l0.015,0.048l0.026,0.04l0.037,0.031L1167.793,515.482z"/></svg>