<?xml version="1.0" encoding="utf-8"?>
<!-- Generator: Adobe Illustrator 15.0.0, SVG Export Plug-In . SVG Version: 6.00 Build 0)  -->
<!DOCTYPE svg PUBLIC "-//W3C//DTD SVG 1.1//EN" "http://www.w3.org/Graphics/SVG/1.1/DTD/svg11.dtd">
<svg version="1.1" id="Ebene_1" xmlns="http://www.w3.org/2000/svg" xmlns:xlink="http://www.w3.org/1999/xlink" x="0px" y="0px"
	 width="1920px" height="1080px" viewBox="0 0 1920 1080" enable-background="new 0 0 1920 1080" xml:space="preserve">

<path fill="#F4E0B6" stroke="#FFFFFF" d="M1285.912,767.518l-0.035,0.047l-0.053,0.011l-0.055-0.011l-0.037-0.016l0.009-0.073
	l-0.026-0.147l0.026-0.063l0.146,0.002l-0.047,0.076l0.021,0.055l0.044,0.052L1285.912,767.518z M1285.1,763.895l0.112,0.03
	l-0.114-0.032l-0.031-0.026L1285.1,763.895z M1284.061,763.554l0.086,0.041h-0.002l-0.086-0.042l-0.078-0.073L1284.061,763.554z
	 M1278.125,756.759l0.646,0.276l-0.648-0.276H1278.125z M1277.434,756.543l0.066,0.032l-0.073-0.033L1277.434,756.543z
	 M1272.854,758.59l0.371,0.089l0.046-0.004l0.129-0.032l0.15-0.011l0.021,0.001l0.03-0.036l0.033-0.087l0.021-0.031l0.06-0.033
	l0.103-0.017l0.053-0.021l0.031-0.033l0.043-0.087l0.033-0.029l0.091-0.01l0.331,0.063l0.117,0.042l0.159,0.144l0.095,0.063
	l0.089,0.019l0.096-0.017l0.183-0.082l0.115-0.107l0.069-0.122l0.081-0.104l0.152-0.061l0.15-0.024l0.123-0.037l0.002-0.002
	l0.101-0.074l0.078-0.133l0.118-0.117l0.155,0.02l0.166,0.066l0.149,0.022l0.121-0.007l0.158,0.017l0.148,0.044l0.092,0.073
	l0.068,0.014l-0.014,0.053l0.053,0.171l0.189,0.322l0.224,0.213l0.042,0.002l0.035-0.015h0.033l0.032,0.042l0.077,0.169l0.201,0.307
	l0.274,0.262l0.615,0.385l0.359,0.144l0.186,0.04l0.1,0.031l0.061,0.053l0.054,0.063l0.081,0.05l0.241,0.115l0.064,0.051
	l0.121,0.144l0.104,0.096l0.016,0.011l-0.003,0.064l-0.023,0.021l-0.032,0.009l-0.028,0.034l-0.04,0.105l-0.004,0.058l0.078,0.148
	l0.029,0.036l0.033,0.031l0.02,0.033l-0.013,0.049l-0.071,0.123l-0.016,0.048l0.005,0.103l0.06,0.063l0.083,0.047l0.072,0.062
	l0.025,0.061l0.05,0.18l0.033,0.077l0.178,0.23l0.498,0.89l0.262,0.615l0.101,0.145l0.101,0.059l-0.01,0.294l0.026,0.138
	l0.104,0.099l0.044,0.032l0.023,0.049l0.045,0.125l0.047,0.07l0.049,0.025l0.051,0.008l0.059,0.028l0.209,0.227l0.303,0.583
	l0.236,0.296l0.063,0.14l0.042,0.038l0.051,0.033l0.052,0.057l0.081,0.116l0.066,0.155l0.007,0.115l-0.087,0.272l-0.031,0.054
	l-0.014,0.045l-0.003,0.036l0.012,0.067l-0.002,0.032l-0.029,0.065l-0.068,0.116l-0.021,0.064l0.002,0.132l0.033,0.161l0.063,0.138
	l0.097,0.068l-0.286,0.659l-0.018,0.104l0.011,0.097l0.063,0.191l0.059,0.262l0.055,0.16l0.057,0.255l0.039,0.082l0.179,0.286
	l0.179,0.185l0.027,0.044l0.026,0.051l0.034,0.036l0.09-0.006l0.037,0.023l0.027,0.042l0.008,0.04l0.107-0.025l0.075-0.058
	l0.081-0.045l0.129,0.019l0.32,0.352l0.063,0.098l0.018,0.045l-0.006,0.059l-0.017,0.07l0.001,0.052l0.041,0.122l0.055,0.116
	l0.073,0.109l0.164,0.181l0.166,0.129l0.101,0.048l0.19-0.008l0.051,0.1l0.049,0.257l0.069,0.085l0.183,0.058l0.084,0.059
	l0.031,0.058l0.023,0.123l0.036,0.051l0.045,0.016l0.019-0.044l-0.003-0.064l-0.01-0.055l0.044,0.061l0.031,0.155l0.03,0.083
	l0.156,0.21l0.354,0.754l0.187,0.303l0.039,0.141l-0.025,0.184l0.008,0.16l0.085,0.146l0.122,0.125l0.411,0.29l0.183,0.165
	l0.127,0.063l0.062,0.039l0.061,0.026l0.065-0.011l0.069-0.055l0.104-0.121l0.066-0.026l0.074,0.012l0.056,0.039l0.112,0.101
	l0.087,0.039l0.176,0.058l0.053,0.052l0.054,0.031l0.088,0.02l0.076,0.037l0.014,0.086l-0.007,0.109l0.028,0.063l0.045,0.06
	l0.03,0.089l-0.003,0.047l-0.044,0.097l-0.009,0.046l0.018,0.046l0.064,0.063l0.021,0.034l0.025,0.251l-0.003,0.068l-0.049,0.18
	l-0.021,0.135l0.034,0.127l0.25,0.361l0.051,0.055l0.23,0.111l0.047,0.037l0.037,0.055l0.059,0.062l0.064,0.054l0.053,0.032
	l0.098,0.02l0.069-0.013l0.065-0.026l0.084-0.007l0.101,0.03l0.024,0.062l0.005,0.07l0.039,0.064l0.08,0.014l0.057-0.052l0.05-0.074
	l0.055-0.058l0.053-0.042l0.061-0.069l0.043-0.079l0.003-0.065l-0.012-0.044l0.007-0.029l0.032-0.058l-0.011-0.042l-0.046-0.032
	l-0.054-0.03l-0.037-0.032l-0.018-0.146l0.044-0.161l0.023-0.147l-0.076-0.097l-0.124-0.097l-0.038-0.127l0.051-0.102l0.144-0.024
	l0.074,0.021l0.137,0.056l0.072,0.008l0.035,0.178l0.121,0.174l0.149,0.079l0.116-0.104l0.032,0.017l0.068,0.02l0.03,0.017
	l0.087-0.064l0.144,0.045l0.146,0.109l0.092,0.115l0.044,0.032l0.16,0.08l0.03,0.02l0.08-0.01l0.077,0.036l0.138,0.095l0.28,0.087
	l0.017,0.015l0.025,0.023l0.028,0.022l0.028,0.007l0.035-0.023l0.039-0.08l0.026-0.026l0.014-0.051l-0.002-0.092l-0.013-0.092
	l-0.021-0.046l-0.116-0.075l-0.338-0.292l-0.103-0.117l-0.092-0.157l-0.228-0.154l-0.067-0.058l-0.032-0.081l-0.02-0.082
	l-0.03-0.073l-0.102-0.101l-0.259-0.174l-0.09-0.116l-0.081-0.155l-0.052-0.082l-0.076-0.091l-0.041-0.074l-0.027-0.022
	l-0.083-0.042l-0.079-0.05l-0.12-0.137l-0.081-0.12l-0.098-0.058l-0.17,0.049l-0.42,0.237l-0.064,0.023l-0.096-0.001l-0.142-0.058
	l-0.075-0.112l-0.105-0.313l-0.165-0.289l-0.023-0.079l-0.007-0.042l0.027-0.003l0.005,0.002l0.166,0.02l0.611,0.206l0.524,0.176
	l0.569,0.285l0.704,0.353l0.595,0.298l0.559,0.28l0.535,0.441l0.574,0.312l0.695,0.376l0.239,0.129l0.24,0.131l0.297,0.119
	l0.077,0.043l0.059,0.066l0.465,0.942l0.045,0.028l0.057-0.021l0.088-0.046l0.02,0.475l0.015,0.35l0.025,0.607l0.023,0.128
	l0.047,0.106l0.05,0.065l0.284,0.38l0.342,0.454l0.07,0.194l0.002,0.004l0.136,0.373l0.214,0.588l0.151,0.418l0.246,0.673
	l0.034,0.191l0.022,0.13l0.033,0.071l0.083,0.126l0.027,0.073l0.005,0.119l-0.027,0.104l-0.197,0.368l-0.032,0.047l-0.035,0.022
	l-0.084,0.023l-0.04,0.022l-0.331,0.322l-0.092,0.061l-0.009,0.036l0.019,0.077l-0.007,0.053l-0.053,0.024h-0.065l-0.051-0.019
	l-0.063-0.061l-0.089-0.014l-0.094,0.017l-0.082,0.037l-0.079,0.071l-0.052,0.095l-0.158,0.418l-0.009,0.042l-0.038,0.159
	l0.001,0.206l0.065,0.223l0.03,0.044l0.105,0.101l0.003,0.053l-0.038,0.173l0.004,0.025l0.012,0.068l0.079,0.179l0.015,0.092
	l-0.026,0.09l-0.19,0.344l-0.033,0.064l0.154,0.166l0.113,0.078l0.037,0.036l0.04,0.026l0.053-0.007l0.04-0.013l0.104-0.007
	l0.032,0.002l0.027,0.013l0.043,0.036l0.024,0.016l0.018,0.003l0.041-0.002l0.016,0.003l0.146,0.065l0.023,0.018l0.144,0.289
	l0.056,0.08l0.158,0.135l0.07,0.101l-0.06,0.144l0.032,0.098l0.084,0.165l-0.003,0.026l-0.017,0.032l-0.009,0.034l0.014,0.026
	l0.028,0.013l0.167,0.016l0.041,0.026l0.005,0.068l-0.006,0.103l0.027,0.076l0.108,0.149l0.047,0.087l0.022,0.08l0.005,0.072
	l-0.007,0.066h-0.001l-0.215,0.141l-0.409,0.189l-0.225,0.071l-0.09-0.032l-0.039-0.121l-0.227-0.148l-0.031-0.156l0.052-0.12
	l0.077-0.105l0.058-0.11l-0.008-0.147l-0.052-0.149l-0.075-0.16l-0.099-0.119l-0.122-0.027l-0.134,0.063l-0.113,0.073l-0.123,0.039
	l-0.163-0.042l-0.121-0.068l-0.053-0.022l-0.074-0.015l-0.031,0.002l-0.066,0.02l-0.035-0.003l-0.034-0.023l-0.051-0.08
	l-0.033-0.028l-0.037-0.008l-0.05-0.01l-0.085,0.004l-0.08-0.009l-0.069-0.049l-0.071-0.081l-0.061-0.045l-0.263-0.075l-0.068-0.04
	l-0.139-0.111l-0.079-0.035l-0.318-0.016l-0.036,0.003l-0.034-0.007l-0.109-0.108l-0.039-0.03l-0.042-0.019l-0.178-0.039
	l-0.074-0.028l-0.073-0.046l-0.254-0.252l-0.135-0.055l-0.189,0.063l-0.142,0.066l-0.117-0.046l-0.344-0.308l-0.053-0.161
	l-0.054-0.33l-0.074-0.116l-0.115-0.067l-0.509-0.209l-0.076-0.008h-0.165l-0.07-0.021l-0.101-0.103l-0.081-0.156l-0.052-0.168
	l-0.009-0.135l0.053-0.192l0.045-0.096l0.051-0.072l0.071-0.069l0.031-0.051v-0.004l0.077-0.503l-0.018-0.17l-0.069-0.187
	l-0.161-0.252l-0.069-0.152l0.017-0.103l0.054-0.077l0.017-0.181l0.055-0.097l0.002-0.069l-0.032-0.125l-0.006-0.065l0.016-0.09
	l0.032-0.063l0.038-0.058l0.035-0.072l0.021-0.157l-0.038-0.126l-0.188-0.301l-0.201-0.325l-0.026-0.083l0.016-0.068l-0.033-0.046
	l-0.052-0.044l-0.039-0.059l-0.005-0.077l0.025-0.168l-0.001-0.083l-0.026-0.079l-0.061-0.055l-0.076-0.045l-0.069-0.055
	l-0.066-0.078l-0.044-0.072l-0.154-0.336l-0.088-0.132l-0.105-0.112l-0.134-0.11l-0.11-0.137l-0.068-0.3l-0.074-0.15l-0.133-0.112
	l-0.317-0.118l-0.151-0.077l-0.27-0.23l-0.094-0.057l-0.059-0.037l-0.145-0.007l-0.033,0.025l-0.021,0.038l-0.018,0.042l-0.02,0.039
	l-0.03,0.023l-0.069,0.025l-0.028,0.021l-0.33,0.366l-0.292,0.164l-0.103,0.129l-0.007,0.062l0.005,0.141l-0.021,0.039l-0.457,0.161
	l-0.118,0.062l-0.097,0.09l-0.164,0.28l-0.093,0.106l-0.12,0.047l-0.304-0.069l-0.072,0.074l-0.014,0.134l0.027,0.151l0.073,0.157
	l0.024,0.088l-0.026,0.052l-0.082,0.013l-0.069-0.021l-0.063-0.042l-0.058-0.061l-0.138-0.143l-0.062-0.039l-0.064-0.016
	l-0.135,0.001l-0.066-0.015l-0.062-0.041l-0.047-0.046l-0.052-0.04l-0.077-0.023l-0.211,0.006l-0.074-0.02l-0.124-0.069
	l-0.419-0.347l-0.121-0.072l-0.112-0.089l-0.023-0.017l-0.042-0.015l-0.044,0.003l-0.077-0.011l-0.054-0.024l-0.188-0.13
	l-0.057-0.073l-0.086-0.236l-0.105-0.106l-0.129-0.029l-0.286-0.019l-0.112-0.055l-0.25-0.194l-0.083-0.022l-0.029,0.047
	l0.017,0.137l-0.019,0.059l-0.119,0.119l-0.041,0.064l-0.023,0.097l-0.019,0.292l-0.065,0.06l-0.158-0.084l-0.054-0.058
	l-0.096-0.236l-0.004-0.031l-0.014-0.023l-0.04-0.027h-0.042l-0.071,0.042l-0.049-0.011l-0.059-0.059l-0.042-0.064l-0.047-0.061
	l-0.333-0.165l-0.086-0.027l-0.149,0.016l-0.165,0.048l-0.145,0.004l-0.082-0.11l0.02-0.074l0.112-0.157l0.011-0.068l-0.049-0.042
	l-0.268-0.157l-0.133,0.005l-0.15,0.078l-0.144,0.036l-0.117-0.12l-0.028-0.104l0.023-0.057l0.061-0.024l0.09-0.013l0.047-0.037
	l0.061-0.161l0.035-0.066l0.139-0.104l0.034-0.069l-0.032-0.113l-0.042-0.082l-0.026-0.076l0.011-0.069l0.068-0.052l0.084-0.13
	l-0.01-0.216l-0.063-0.274l-0.065-0.29l-0.011-0.219l0.034-0.196l0.104-0.104l-0.008-0.076l-0.038-0.048l-0.116-0.071l-0.068-0.06
	l-0.055-0.069l-0.042-0.077l-0.178-0.546l-0.023-0.342l-0.041-0.139l-0.089-0.094l-0.148-0.049l-0.147-0.019l-0.052-0.036
	l-0.185-0.326l-0.024-0.09l-0.004-0.155l0.031-0.324l-0.005-0.346l0.014-0.085l0.03-0.089l0.026-0.033l0.031-0.009l0.035,0.013
	l0.034,0.028l0.043,0.014l0.026-0.036l0.021-0.057l0.023-0.039l0.055-0.053l0.03-0.02l0.045-0.01l0.044,0.017l0.097,0.077
	l0.029,0.015l0.041-0.024l0.009-0.034l-0.002-0.039l0.012-0.041l0.015-0.026l0.011-0.026l0.016-0.029l0.035-0.036l0.037-0.076
	l-0.007-0.196l0.02-0.085l0.025-0.034l0.1-0.078l0.054-0.023l0.05,0.001l0.047,0.006l0.037-0.006l0.081-0.071l0.063-0.116
	l0.04-0.141l0.014-0.141l0.025-0.073l0.098-0.123l0.012-0.074l-0.051-0.118l0.003-0.045l0.056-0.046l-0.006-0.093l0.074-0.131
	l0.012-0.021l0.003-0.095l-0.052-0.093l-0.057,0.006l-0.067,0.04l-0.191,0.022l-0.257,0.265l-0.173,0.021l-0.145-0.097l-0.227-0.287
	l-0.123-0.125l-0.078-0.039l-0.175-0.062l-0.066-0.061l-0.081-0.155l-0.059-0.164l-0.038-0.516l-0.076-0.262l-0.011-0.087
	l-0.021-0.081l-0.048-0.059l-0.095-0.079l-0.037-0.074l-0.028-0.207l-0.066-0.181l-0.408-0.742l-0.062-0.063l-0.09-0.042
	l-0.074,0.022l-0.068,0.051l-0.069,0.036l-0.083,0.009l-0.031-0.029l-0.008-0.18l-0.015-0.104l-0.022-0.062l-0.21-0.393l0.007-0.088
	l0.154,0.04l0.003-0.082l-0.027-0.062l-0.037-0.058l-0.024-0.07l0.007-0.035l0.05-0.065l0.012-0.034l-0.007-0.032l-0.04-0.046
	l-0.008-0.035l0.055-0.664l-0.006-0.164l-0.029-0.16l-0.259-0.193l-0.143-0.055l-0.134-0.079l-0.122-0.099l-0.108-0.122
	l-0.079-0.134l-0.08-0.139l-0.103-0.133l-0.089-0.026l-0.054,0.041l-0.051,0.029l-0.047-0.01l-0.027-0.07l-0.003-0.105l0.031-0.036
	l0.051-0.01l0.052-0.025l0.042-0.077l0.015-0.176l0.028-0.077l0.046-0.052l0.095-0.082l0.047-0.057l0.052-0.044l0.153-0.043
	l0.067-0.029l0.041-0.06l0.036-0.126l0.057-0.049l0.06-0.105l0.007-0.108l-0.021-0.229l0.083-0.371l0.037-0.071l0.041-0.057
	l0.102-0.224l0.034-0.102l0.015-0.155l-0.01-0.018l-0.01-0.018l-0.025-0.046l-0.071-0.071l-0.06-0.126l-0.123,0.045l-0.104-0.051
	l-0.184-0.171l-0.052-0.025l-0.173-0.056l-0.063-0.036l-0.25-0.238l-0.069-0.109l-0.101-0.284l-0.081-0.147l-0.097-0.046
	l-0.115-0.021l-0.134-0.075l-0.129,0.017l-0.11-0.031l-0.109-0.049l-0.13-0.038l-0.426,0.013l-0.099-0.057l-0.056-0.127
	l-0.036-0.136l-0.027-0.271l0.021-0.29l-0.019-0.119l-0.091-0.12l-0.157-0.157l-0.045-0.022l-0.188,0.02l-0.066-0.002l-0.074-0.025
	l-0.064-0.039l-0.124-0.099l-0.073-0.032l-0.142-0.017l-0.072-0.048l-0.046-0.065l-0.007-0.054l0.003-0.05l-0.013-0.06l-0.042-0.071
	l-0.05-0.056l-0.119-0.089l-0.116-0.022l-0.235,0.111h-0.124l0.035,0.14l0.055,0.151l0.005,0.109l-0.112,0.013l-0.044-0.035
	l-0.037-0.053l-0.043-0.042h-0.058l-0.051,0.046l-0.028,0.063l-0.036,0.05l-0.065,0.01l-0.114-0.104l-0.092-0.395l-0.065-0.131
	h-0.047l-0.094-0.032l-0.036-0.005l-0.048,0.029l-0.018,0.04l-0.021,0.023l-0.06-0.017l-0.051-0.055l-0.146-0.28l0.027-0.115
	l0.059-0.091l0.081-0.049l0.098,0.01L1272.854,758.59z"/></svg>