<?xml version="1.0" encoding="utf-8"?>
<!-- Generator: Adobe Illustrator 15.0.0, SVG Export Plug-In . SVG Version: 6.00 Build 0)  -->
<!DOCTYPE svg PUBLIC "-//W3C//DTD SVG 1.1//EN" "http://www.w3.org/Graphics/SVG/1.1/DTD/svg11.dtd">
<svg version="1.1" id="Ebene_1" xmlns="http://www.w3.org/2000/svg" xmlns:xlink="http://www.w3.org/1999/xlink" x="0px" y="0px"
	 width="1920px" height="1080px" viewBox="0 0 1920 1080" enable-background="new 0 0 1920 1080" xml:space="preserve">

<path fill="#F4E0B6" stroke="#FFFFFF" d="M743.857,654.613l0.035,0.087l0.023-0.035l0.024-0.02l0.065-0.033l0.002,0.049l0.019,0.038
	l0.034,0.026l0.047,0.019l-0.031,0.013l-0.02,0.01l-0.022,0.003l-0.039-0.012l-0.015,0.07l0.023,0.05l0.052,0.027l0.068-0.002
	l0.029,0.016l0.008,0.032l0.002,0.028l-0.008,0.058l-0.025-0.018l-0.055-0.025l-0.025-0.017l0.01,0.067l0.021,0.042l0.007,0.032
	l-0.035,0.045l-0.083,0.051l-0.044-0.021l-0.036-0.055l-0.053-0.052l-0.038-0.001l-0.021,0.036l-0.038,0.115l-0.056,0.034
	l-0.045-0.066l-0.03-0.096l-0.01-0.046l-0.03-0.007l-0.1-0.003l-0.059-0.02l-0.08-0.044l-0.043-0.039l-0.08-0.147l-0.004-0.053
	l0.057-0.044l0.043-0.039l0.008-0.049l0.021-0.035h0.08l-0.021-0.027l-0.055-0.09l0.065-0.019l0.084,0.006l0.103,0.021l-0.001-0.072
	l0.033-0.047l0.059-0.024l0.075-0.008l0.114,0.083l0.008,0.104L743.857,654.613z M744.923,652.081l0.04,0.048l0.096,0.014
	l0.044,0.038l0.035,0.083l0.017,0.096l0.003,0.097l-0.009,0.086l-0.04,0.14l-0.034,0.073l-0.042,0.062l-0.067,0.065h-0.034
	l-0.037-0.026l-0.079-0.011l0.017-0.089l-0.04-0.091l-0.128-0.165h-0.065l0.013-0.071l0.083-0.177l0.025-0.087l0.012-0.077
	l0.02-0.074l0.047-0.081l0.006,0.021l-0.001,0.019l-0.012,0.036l-0.004,0.063l0.019,0.11l-0.003,0.055l-0.033,0.059l-0.042,0.043
	l-0.021,0.039l0.03,0.052l0.062-0.069l0.063-0.104l0.026-0.107l-0.046-0.078l-0.003-0.063l0.062-0.069l0.07-0.003l0.021,0.146
	l-0.035,0.001L744.923,652.081z"/></svg>