<?xml version="1.0" encoding="utf-8"?>
<!-- Generator: Adobe Illustrator 15.0.0, SVG Export Plug-In . SVG Version: 6.00 Build 0)  -->
<!DOCTYPE svg PUBLIC "-//W3C//DTD SVG 1.1//EN" "http://www.w3.org/Graphics/SVG/1.1/DTD/svg11.dtd">
<svg version="1.1" id="Ebene_1" xmlns="http://www.w3.org/2000/svg" xmlns:xlink="http://www.w3.org/1999/xlink" x="0px" y="0px"
	 width="1920px" height="1080px" viewBox="0 0 1920 1080" enable-background="new 0 0 1920 1080" xml:space="preserve">

<path fill="#F4E0B6" stroke="#FFFFFF" d="M1336.99,161.017l0.013,0.021l-0.012,0.039l-0.028,0.022l-0.029-0.027l-0.005-0.046
	l0.034-0.014L1336.99,161.017z M1321.773,98.188l0.01,0.029l-0.002,0.041l-0.027,0.006l-0.04-0.032l0.016-0.034L1321.773,98.188z
	 M1321.669,98.346l0.103,0.032l-0.077,0.115l-0.042-0.061L1321.669,98.346z M1345.949,237.299l0.074-0.103l-0.021-0.081l0.014-0.154
	l0.037-0.161l0.049-0.103l0.117-0.018l0.162,0.07l0.231,0.153l0.011,0.09l-0.082,0.441l-0.002,0.256l-0.047,0.066l-0.126-0.053
	l0.013-0.016l0.007-0.015l0.012-0.03l-0.061-0.032l0.021-0.045l0.033-0.051l-0.022-0.052l-0.046-0.02l-0.16-0.006l-0.168-0.035
	l-0.038-0.003l-0.041-0.008l-0.008-0.029l0.014-0.034L1345.949,237.299z M1345.854,240.538l0.018-0.058l0.046-0.011l0.055,0.024
	l0.04,0.048l-0.015,0.045l0.027,0.163l-0.02,0.037l-0.048,0.006l-0.053-0.022l-0.034-0.042l0.006-0.051L1345.854,240.538z
	 M1345.66,235.397l0.198,0.009l0.176,0.033l0.13,0.111l0.027,0.141l-0.031,0.154l-0.079,0.081l-0.115-0.074l-0.029,0.045
	l-0.052,0.021l-0.046,0.029l-0.018,0.072l-0.008,0.07l-0.027,0.047l-0.032,0.001l-0.021-0.067l-0.034-0.024l-0.079-0.036
	l-0.02-0.014l-0.013-0.052l0.023-0.018l0.032-0.009l0.016-0.023l0.029-0.036l0.018-0.037l0.007-0.046l-0.009-0.095l-0.014-0.044
	l-0.023-0.038l-0.066-0.037l-0.085-0.023l-0.072-0.034l-0.036-0.064l-0.043-0.044l-0.277-0.106l-0.083-0.049l-0.016-0.027
	l0.028-0.034l0.055-0.019l0.047,0.018l0.039,0.028l0.086,0.033l0.222,0.123L1345.66,235.397z M1334.668,162.489l0.046,0.049
	l-0.157,0.044l-0.067,0.005l-0.063-0.016l-0.039-0.048l-0.026-0.082l-0.012-0.083l0.007-0.049l0.05-0.051l0.029,0.032l0.018,0.065
	l0.024,0.051l0.061,0.033L1334.668,162.489z M1343.756,231.697l0.029,0.15l-0.01,0.073l-0.052,0.048l-0.055,0.002l-0.019-0.034
	l-0.011-0.031l-0.049-0.004l-0.047-0.011l-0.013-0.053l0.022-0.074l0.016-0.036l0.04-0.037l0.09-0.035L1343.756,231.697z
	 M1343.81,231.062l0.009-0.031l-0.017-0.088l0.011-0.073l0.037-0.093l0.049-0.082l0.052-0.038l0.037,0.032l0.028,0.082l0.037,0.159
	l0.032,0.345l-0.022,0.171l-0.082,0.016l-0.057-0.013l-0.258-0.025l-0.164,0.015l-0.051,0.021l-0.075,0.052l0.003-0.01l0.006-0.049
	l0.02-0.046l0.013-0.022l0.02-0.019l0.051-0.038l0.121-0.062l0.057-0.037l0.026-0.024L1343.81,231.062z M1331.416,163.449
	l0.04,0.029l-0.032,0.07l-0.06,0.037l-0.054-0.005l-0.019-0.06l0.024-0.052l0.048-0.022L1331.416,163.449z M1340.011,238.577
	l0.001,0.006l-0.001,0.018l-0.028-0.007L1340.011,238.577z M1339.93,238.896l0.02,0.068l-0.049-0.005l-0.023-0.069l-0.002-0.023
	l0.05-0.036L1339.93,238.896z M1336.664,207.417l0.008,0.045l-0.008,0.047l-0.022,0.083l-0.059,0.006l-0.068-0.024l-0.082-0.049
	l-0.019-0.018l-0.01-0.023l0.005-0.035l0.063-0.105l0.025,0.024l0.037,0.021l0.045,0.014h0.046L1336.664,207.417z M1339.143,238.383
	l0.005,0.003l-0.009,0.002L1339.143,238.383z M1336.158,207.229l0.006,0.029l-0.015,0.037l-0.048,0.054l-0.057,0.014l-0.016-0.05
	l0.016-0.084l0.044-0.035l0.048,0.016L1336.158,207.229z M1336.874,223.628l0.048,0.025l-0.017,0.036l-0.053,0.017l-0.044,0.008
	l-0.025,0.002l-0.095-0.003l-0.06-0.025l-0.015-0.038l0.029-0.027l0.019-0.007l0.031-0.003l0.058,0.003l0.061,0.011
	L1336.874,223.628z M1336.453,225.998l0.013,0.025l-0.004,0.026l-0.016,0.031l-0.022,0.024l-0.027,0.013l-0.06,0.039l-0.026,0.079
	l-0.016,0.089l-0.031,0.071l-0.06,0.031l-0.048-0.031l-0.037-0.064l-0.024-0.071l-0.008-0.041l0.005-0.073l0.029-0.074l0.051-0.065
	l0.068-0.043l0.041-0.006l0.046,0.007l0.042,0.017l0.031,0.022l0.021,0.006l0.018-0.009L1336.453,225.998z M1335.021,224.34
	l0.035,0.025l0.002,0.04l0.015,0.047l-0.018,0.027l-0.052-0.018l-0.031-0.027l-0.012-0.041l0.014-0.041L1335.021,224.34z
	 M1324.634,161.353l-0.003-0.048l-0.015-0.055l0.032-0.009l0.048,0.04l0.033-0.016l0.012-0.052l-0.012-0.066l0.035-0.01l0.021,0.017
	l0.008,0.001l0.012-0.004l0.028,0.002l-0.026-0.036l-0.007-0.019l0.013-0.017l0.035-0.031l0.021,0.052l0.032,0.018l0.04-0.01
	l0.048-0.038l-0.043,0.109l-0.123,0.137l-0.247,0.206l-0.009-0.028l0.001-0.022l0.017-0.05l0.035-0.029L1324.634,161.353z
	 M1334.127,222.143l0.126-0.022l0.031,0.101l-0.034,0.116l-0.07,0.025l-0.03-0.055v-0.11L1334.127,222.143z M1334.055,220.103
	l0.02,0.004v0.017l-0.005,0.019l0.007,0.012l0.233,0.101l0.095,0.073l0.046,0.102l0.028,0.181l0.026,0.051l0.032,0.025l0.052,0.03
	l0.055,0.023l0.042,0.007l0.013-0.014l0.004-0.024l0.013-0.021l0.042-0.004l0.035,0.009l0.013,0.012l0.006,0.021l0.046,0.094
	l0.02,0.073l0.002,0.076l-0.022,0.068l0.112,0.066l0.24,0.182l0.035,0.046l0.01,0.048l0.022,0.034l0.072,0.005l0.018,0.027
	l0.029,0.283l0.014,0.042l0.022,0.03l0.077,0.043l0.033-0.021l0.016-0.051l0.025-0.044l0.057-0.028l0.127-0.032l0.057-0.028
	l0.053-0.05l0.063-0.096l0.057-0.048l0.027,0.071l-0.018,0.083l-0.03,0.09l-0.012,0.086l0.039,0.046l0.395,0.157l0.078,0.017
	l0.086-0.001l0.054-0.035l-0.008-0.066l-0.025-0.073l0.006-0.056l0.097,0.025l0.126,0.056l0.089,0.075l-0.007,0.086l0.049,0.048
	l0.124,0.051l0.029,0.059l0.023,0.238h-0.171l-0.305,0.126l-0.105,0.004l0.002-0.083l-0.09-0.067l-0.121-0.045l-0.092-0.02
	l0.002-0.074l-0.074-0.044l-0.093-0.02l-0.053-0.005l-0.092,0.025l-0.193,0.083l-0.092,0.027l-0.105,0.006l-0.049-0.03l-0.016-0.065
	l-0.011-0.136l-0.013-0.05l-0.026-0.044l-0.049-0.014l-0.001-0.015l-0.119-0.046l-0.024-0.004l-0.092-0.126l-0.064-0.149
	l-0.084-0.131l-0.153-0.073l-0.081,0.002l-0.056,0.034l-0.027,0.065l-0.012,0.192l-0.045,0.042l-0.07,0.012l-0.08,0.007
	l-0.145,0.052l-0.036,0.003l-0.011-0.028l-0.007-0.141l-0.03-0.178l0.01-0.095l0.052-0.063l0.038,0.002l0.041,0.023l0.048,0.01
	l0.059-0.037l0.017-0.038l-0.004-0.042l-0.063-0.166l-0.154-0.2l-0.074,0.042l-0.057-0.024l-0.144-0.149l-0.027-0.015l-0.092-0.008
	l-0.021-0.027l-0.009-0.027l-0.017-0.012l-0.069-0.026l-0.107-0.141l-0.062-0.027l-0.086-0.005l-0.149-0.044l-0.1,0.011l0.296-0.354
	l0.07-0.035l0.02,0.015l0.026,0.009l0.032-0.003l0.031-0.021l0.038-0.02l0.036,0.013l0.029,0.022l0.021,0.011l0.119,0.041
	l0.015,0.002L1334.055,220.103z M1332.538,219.716l0.039,0.021l0.003,0.07l-0.03,0.088l-0.019,0.022l-0.007,0.02l-0.016,0.023
	l-0.036,0.005l-0.01-0.021l-0.004-0.027l-0.043-0.024l-0.036-0.049l0.012-0.063l0.034-0.035l0.028-0.015L1332.538,219.716z
	 M1332.799,221.736l0.05,0.101l-0.073-0.031l-0.261-0.175l-0.063-0.025l-0.002-0.023l0.116,0.017l0.128,0.055L1332.799,221.736z
	 M1322.754,161.441l0.166-0.018l0.062,0.059l-0.031,0.104l-0.107,0.12l0.033-0.173l-0.039,0.029l-0.033,0.034l-0.024,0.036
	l-0.013,0.035l-0.038-0.052l-0.02-0.063l0.006-0.061L1322.754,161.441z M1322.48,161.738l0.039,0.022l-0.056,0.039l-0.073,0.018
	l-0.059-0.01v-0.045l0.041-0.029l0.054-0.005L1322.48,161.738z M1323.352,167.707l0.074,0.019l-0.071,0.029l-0.025-0.021
	L1323.352,167.707z M1330.686,219.095l0.055,0.049l0.121,0.046l0.045,0.033l-0.012,0.054l0.07,0.01l0.015,0.032l-0.006,0.039
	l0.013,0.031l0.044,0.047l0.02,0.057l-0.008,0.061l-0.032,0.056l-0.041,0.029l-0.057,0.015l-0.056,0.003l-0.043-0.005l-0.042-0.014
	l-0.013-0.017l-0.005-0.033l-0.018-0.059l0.005-0.159l-0.009-0.075l-0.043-0.061l-0.057-0.054l-0.112-0.189l0.014-0.009l0.004-0.002
	l0.001-0.003l0.006-0.015l0.063,0.029L1330.686,219.095z M1320.325,162.393l0.077-0.035l-0.047,0.089l-0.035-0.007L1320.325,162.393
	z M1319.896,162.904l0.046,0.008l-0.045,0.022l-0.017-0.012L1319.896,162.904z M1319.92,163.022l0.047,0.008l-0.046,0.023
	l-0.016-0.012L1319.92,163.022z M1328.923,221.072l0.054,0.001l-0.029,0.041l-0.071,0.02l0.009-0.029l0.023-0.01L1328.923,221.072z
	 M1329.369,218.094l0.027,0.052l-0.018,0.074l-0.06,0.039l-0.064,0.02l-0.029,0.017l-0.016,0.091l-0.06,0.022l-0.128-0.015
	l-0.238,0.116l-0.056-0.013l-0.076-0.006h-0.172l-0.022-0.019l-0.027-0.059l-0.077-0.118l0.081-0.087l0.253-0.084l0.109-0.062
	l0.031-0.048l0.027-0.06l0.035-0.052l0.056-0.028l0.077,0.011l0.14,0.078l0.096,0.029l0.06,0.045L1329.369,218.094z
	 M1327.058,217.367l0.019-0.048l-0.036-0.144l0.036,0.017l0.04,0.026l0.038,0.016l0.033-0.009l0.033-0.055l0.032-0.101l0.021-0.039
	l-0.031-0.114l0.063-0.098l0.09-0.026l0.049,0.101l-0.062,0.082l-0.008,0.012l-0.019,0.014l0.009,0.021l0.02,0.017l0.011-0.001
	l0.019-0.004l0.035,0.017l0.022,0.023l-0.021,0.015l-0.005,0.01l-0.054,0.047l-0.012,0.006l0.002,0.045l0.024,0.083l-0.007,0.038
	l-0.029,0.019l-0.11,0.024l-0.04,0.013l-0.143,0.131l-0.066,0.035l-0.029-0.057l-0.015-0.128L1327.058,217.367z M1326.168,214.348
	l0.04,0.063l0.006,0.088l-0.032,0.181l-0.238-0.217l-0.117-0.156l-0.045-0.042l0.076-0.014l0.117,0.021l0.117,0.038
	L1326.168,214.348z M1325.661,215.544l0.028,0.017l0.004,0.029v0.033l0.009,0.025l0.038,0.044l0.092,0.157l0.02,0.056l0.011,0.022
	l0.021,0.007l0.032,0.002l0.031,0.012l0.016,0.035l0.054,0.074l0.201,0.082l0.054,0.077l0.02,0.01l0.137,0.107l0.028,0.042
	l-0.029,0.111l0.011,0.055l0.058-0.039l0.052,0.021l0.037,0.027l0.026,0.034l0.023,0.038l0.034-0.051l0.057-0.111l0.038-0.052
	l0.16,0.191l0.01,0.034l0.097,0.006l0.008,0.051l-0.011,0.073l0.039,0.072l0.022-0.054l0.058-0.049l0.061-0.029l0.031,0.009
	l-0.012,0.043l-0.095,0.128l-0.112,0.225l-0.053,0.034l-0.064,0.004l-0.061,0.012l-0.044,0.053l0.072,0.042l0.008,0.055
	l-0.051,0.148l-0.014,0.141l-0.013,0.062l-0.037,0.059l-0.027,0.004l-0.023-0.032l-0.014-0.032l0.001-0.035l0.02-0.041l-0.049-0.108
	l0.021-0.135l-0.01-0.118l-0.138-0.06l0.016,0.147l-0.02,0.061l-0.059,0.056l-0.041-0.05l-0.046-0.038l-0.037-0.041l-0.031-0.094
	l-0.019-0.028l-0.071-0.073l-0.067-0.048l-0.011-0.001l-0.022-0.102l-0.004-0.095l-0.03-0.072l-0.104-0.041l0.019-0.08l-0.031-0.071
	l-0.064-0.052l-0.078-0.026l0.042-0.036l0.022-0.044l0.017-0.05l0.024-0.052l-0.175-0.043l-0.105-0.096l-0.173-0.239l0.161,0.025
	l0.042-0.017l0.008-0.066l-0.028-0.043l-0.059-0.033l-0.146-0.056l-0.021,0.007l-0.03,0.02l-0.035,0.011l-0.034-0.019l-0.003-0.059
	l0.058-0.05l0.142-0.061l0.026-0.02l0.021-0.028l0.025-0.022L1325.661,215.544z M1321.223,216.654l0.006,0.05l-0.025,0.036
	l-0.033,0.022l-0.046-0.008l-0.022-0.025l0.003-0.011l0.006-0.011v-0.019l0.015-0.013l0.043-0.025L1321.223,216.654z
	 M1320.362,216.256l0.083,0.078l-0.099,0.048l-0.058,0.015l-0.056-0.005l-0.044-0.119l0.064-0.041L1320.362,216.256z
	 M1319.135,216.014l0.023-0.101l-0.004-0.016l-0.003-0.018l0.005-0.02l0.01-0.021l0.121-0.035l0.079-0.132l0.014,0.019l0.017,0.004
	l0.008,0.228l-0.06,0.054l-0.04,0.054l-0.101,0.045L1319.135,216.014z M1319.255,217.193l0.021,0.043l-0.013,0.029l-0.035,0.026
	l-0.03,0.001l-0.009-0.025l0.004-0.033l0.016-0.028l0.026-0.022L1319.255,217.193z M1318.767,215.682l0.026,0.024l-0.011,0.07
	l-0.009,0.043l-0.039,0.047l-0.006,0.011l-0.014,0.006l-0.023-0.002l-0.017-0.007l-0.038-0.028l-0.032,0.017l-0.006-0.016
	l-0.024-0.031l0.048-0.028l0.046-0.035l0.07-0.049l0.016-0.008l0.009-0.012L1318.767,215.682z M1316.217,213.879l0.068-0.109
	l0.037-0.184l0.087-0.141l0.021-0.16l0.106-0.161l0.157-0.005l0.23,0.053l0.191,0.143l0.088,0.091l0.037,0.116l0.033,0.112
	l0.024,0.124l-0.033,0.198l-0.068,0.053l-0.15,0.091l-0.201,0.129l-0.111,0.046l-0.126,0.031l-0.021-0.037l-0.023-0.144
	l-0.113-0.052l-0.093-0.066l-0.076-0.011l-0.01-0.083L1316.217,213.879z M1316.297,215.199l0.048-0.11l-0.031-0.041l0.036-0.077
	l0.023-0.094l0.063-0.086l0.053-0.009l0.012,0.083l0.056,0.027l0.022,0.074l-0.073,0.088l-0.057,0.004l-0.039,0.021l0.04,0.063
	l-0.058,0.049l-0.034,0.05l-0.046,0.046L1316.297,215.199z M1308.994,174.23l0.021,0.049l-0.027,0.029l-0.024,0.007l-0.029-0.02
	l-0.008-0.04l0.019-0.044L1308.994,174.23z M1315.527,211.844l0.037,0.065l0.008,0.057l0.088,0.023l0.065,0.035l0.1-0.009
	l0.085,0.041l0.067-0.014l0.037,0.006l0.027-0.038l0.049-0.028l0.054,0.017h0.049l0.063-0.043l0.07,0.046l0.06-0.005l0.002,0.074
	l0.034,0.073l0.024,0.067l0.056,0.052l0.055,0.012l0.009,0.061l-0.043,0.019l-0.049,0.049l-0.062-0.002l-0.082-0.008l-0.116,0.031
	l-0.07,0.048l-0.088,0.031l-0.041-0.002l0.015-0.043l0.003-0.034l-0.077-0.012l-0.116-0.081l-0.181-0.086l-0.136-0.025l-0.116-0.017
	l-0.067,0.01l-0.136,0.034l-0.057,0.03l-0.044-0.002l-0.033,0.03l-0.065-0.042l-0.078-0.042l-0.137-0.053l-0.052,0.009l-0.027-0.054
	l-0.102-0.017l-0.094,0.022l-0.146-0.059l-0.06-0.039l-0.027-0.019l-0.019-0.024l-0.008-0.037l0.071-0.015l0.104-0.063l0.066-0.068
	l0.068,0.055l0.143-0.023l0.165-0.059l0.179,0.071l0.084-0.031l0.139-0.021l0.066,0.015l0.043,0.046l0.074-0.011L1315.527,211.844z
	 M1315.104,218.279l0.019,0.014l-0.024,0.01l-0.01-0.01L1315.104,218.279z M1314.983,216.299l0.006,0.046l-0.021,0.065l-0.008,0.008
	l-0.018,0.004l-0.035,0.028l-0.02-0.013l-0.02-0.027l-0.039-0.032l-0.012-0.025l0.007-0.032l0.016-0.028l0.028-0.051l0.035-0.011
	l0.047,0.03L1314.983,216.299z M1304.865,176.558l0.003,0.008l-0.01-0.001L1304.865,176.558z M1304.861,176.569l0.009,0.005
	l-0.005,0.002l-0.01,0.003L1304.861,176.569z M1311.458,217.706l0.081,0.078l-0.026,0.076l-0.044,0.078l-0.077,0.028l-0.043-0.076
	l-0.153-0.032l-0.146-0.08l-0.04-0.052l-0.038-0.08l-0.076-0.043l-0.094-0.021l-0.092-0.011l0.063-0.039l0.087-0.044l0.08-0.016
	l0.042,0.046l0.04,0.034l0.254,0.096l0.147,0.027L1311.458,217.706z M1310.331,217.309l0.102-0.162l0.007-0.032l-0.029-0.007
	l-0.041,0.023l-0.028-0.016l-0.017-0.056l0.005-0.02l0.021,0.016h0.02l0.026-0.011l0.03,0.001l0.026-0.005l0.017-0.013l0.013-0.003
	l0.032,0.004l0.033,0.022l0.007,0.036l0.011,0.035l0.039,0.046l0.005,0.053l-0.027,0.033l-0.008,0.022l-0.01,0.017l-0.021,0.011
	l-0.027,0.018l-0.032,0.03l-0.033,0.008l-0.022-0.023l-0.009,0.014l0.023,0.039l0.047,0.023l0.011,0.028l-0.013,0.016l-0.027,0.005
	l-0.051-0.003l-0.05-0.026l-0.038-0.046L1310.331,217.309z M1309.117,216.313l0.027,0.067l-0.025,0.061l-0.059,0.036l-0.077-0.01
	l-0.038,0.045l-0.069,0.042l-0.075,0.028l-0.065,0.002l-0.026-0.026v-0.042l0.022-0.086l-0.011-0.088l0.025-0.048l0.084-0.039
	l0.053,0.004l0.188,0.038L1309.117,216.313z M1308.459,216.199l0.023,0.027l-0.009,0.019l-0.047,0.006h-0.05l-0.047-0.008
	l-0.025-0.019l-0.007-0.021l-0.012-0.008l-0.016-0.002l-0.021-0.042l0.021-0.067l0.032-0.029l0.027,0.008l0.047,0.03l0.044,0.035
	l0.024,0.036L1308.459,216.199z M1300.505,178.98l0.116-0.104l-0.035,0.084L1300.505,178.98z M1307.259,215.764l-0.001-0.032
	l-0.023-0.068l-0.071-0.106l-0.016-0.063l0.055-0.053l0.102,0.115l0.444,0.093l0.115,0.101l-0.021,0.017l-0.05,0.011l-0.095,0.013
	l-0.048,0.025l0.017,0.04l0.063,0.063l0.032,0.15l0.027,0.072l0.05,0.082l-0.105,0.095l-0.061,0.043l-0.062,0.008l-0.026-0.015
	l-0.014-0.023l-0.018-0.052l-0.023-0.031l-0.097-0.062l-0.073-0.077l-0.035-0.052l-0.065-0.131l-0.068-0.073l-0.004-0.03
	l0.016-0.026l0.032-0.015L1307.259,215.764z M1307.31,216.511l0.179-0.065l0.372-0.069l0.033-0.014l0.026-0.016l0.033-0.011
	l0.12-0.007l0.036,0.002l0.028,0.012l0.046,0.025l0.027,0.032l0.048,0.085l0.033,0.012l0.179,0.049l0.021,0.019l0.053,0.08
	l0.035,0.027l0.119,0.067l0.046,0.047l0.067,0.084l0.054,0.088l0.008,0.064l-0.04,0.01l-0.237-0.02l0.041,0.039l0.006,0.042
	l-0.002,0.041l0.046,0.061l-0.021,0.005l-0.045-0.006l-0.028-0.011l-0.122-0.102l-0.06-0.069l-0.016-0.051l-0.004-0.046
	l-0.016-0.041l-0.05-0.036l0.004,0.04l-0.001,0.032l-0.016,0.064l0.047,0.077l-0.029,0.071l-0.076,0.057l-0.096,0.032l-0.049,0.003
	l-0.044-0.008l-0.035-0.021l-0.029-0.027l-0.067,0.035l-0.089-0.007l-0.094-0.032l-0.079-0.04l-0.103-0.025l-0.084,0.032
	l-0.126,0.106l-0.004-0.048l0.018-0.038l0.021-0.036l0.007-0.04l-0.017-0.049l-0.054-0.071l-0.039-0.095l-0.037-0.062l-0.032-0.071
	l-0.005-0.08L1307.31,216.511z M1306.773,215.571l0.035,0.005l0.031,0.008l0.023-0.027l0.046-0.012h0.073l0.053,0.012l0.019,0.051
	l0.019,0.026l0.039-0.019l-0.011,0.026l-0.031,0.053l-0.05,0.018l-0.06-0.01l-0.034,0.02l-0.015,0.034l-0.03,0.008l-0.098-0.042
	l-0.004-0.01l0.018-0.004l-0.008-0.011l-0.032-0.028l-0.018-0.029l0.013-0.04L1306.773,215.571z M1305.081,207.58l0.034,0.047
	l-0.014,0.028l-0.057,0.021l-0.054,0.012l-0.054-0.006l-0.027-0.013l0.011-0.028l0.008-0.013l0.011-0.018l0.031-0.032l0.037-0.019
	l0.037-0.004L1305.081,207.58z M1306.961,221.765l0.07-0.039l0.175,0.005l0.06-0.06l0.054-0.097l0.065-0.067l0.043-0.035h0.004
	l0.015,0.005l0.011,0.068l0.007,0.088l0.059,0.146l-0.053,0.015l-0.014,0.089l0.02,0.016l0.012,0.031l0.021,0.011l0.049,0.007
	l0.019-0.015l0.009-0.02l0.058-0.064l0.055,0.002l0.052,0.001l0.072,0.055l-0.03,0.073l-0.091,0.087l0.008,0.09l0.036,0.185
	l0.05,0.032l-0.063,0.14l-0.012,0.071l-0.073-0.002l-0.058-0.019l-0.034-0.006l-0.043-0.012l-0.037-0.018l-0.014-0.027l0.018-0.008
	l0.094-0.024l0.037-0.015h-0.027l-0.124-0.033h-0.044l-0.049,0.006l-0.047,0.01l-0.041,0.017l-0.019,0.013l-0.017,0.014
	l-0.019,0.012l-0.024,0.004l-0.023-0.003l-0.053-0.018l-0.07,0.043l-0.065-0.025l-0.037-0.033l-0.01-0.069l0.05-0.032l0.112-0.069
	l-0.019-0.02l-0.038-0.057l-0.028-0.078l-0.099-0.125l-0.053-0.012l-0.064-0.084l0.076-0.025h0.033l0.039-0.004l0.01-0.067
	L1306.961,221.765z M1306.745,221.542h0.032l0.061,0.039l0.078,0.036l0.012,0.025l-0.002,0.034l-0.035,0.076l-0.007,0.032
	l-0.042,0.025l-0.139,0.016l-0.035,0.01l-0.03-0.006l-0.009-0.033l0.016-0.043l0.046-0.032l0.049-0.018l0.026-0.017l0.008-0.016
	l-0.014-0.002l-0.012,0.004l-0.014,0.005l-0.035,0.016l-0.039,0.022l-0.042,0.019l-0.014-0.018l0.051-0.1l0.02-0.032l0.017-0.015
	L1306.745,221.542z M1306.451,221.404l0.093-0.023l0.05,0.006l0.016,0.027l0.021,0.006l0.013-0.014l0.027-0.01l0.042,0.011
	l0.003,0.018l-0.037,0.012l-0.015,0.027v0.035l-0.01,0.011l-0.019-0.011l-0.022,0.003l-0.021,0.018l-0.016,0.02l-0.013,0.024
	l-0.055,0.062l-0.004,0.023l0.013,0.024l-0.028,0.013l-0.041-0.033l0.01-0.071l0.059-0.068l0.005-0.02l-0.053,0.018l-0.012-0.007
	l0.012-0.035l-0.021-0.014l-0.049,0.002l-0.02-0.01l0.015-0.02l0.01-0.009L1306.451,221.404z M1306.288,221.143l0.014-0.003
	l0.145-0.014l0.036,0.011l0.003,0.023l-0.038,0.007l-0.007,0.015l-0.022,0.03l-0.004,0.038l0.026,0.05l-0.005,0.021l-0.02,0.018
	l-0.01,0.018l-0.008,0.007l-0.068,0.024l-0.039,0.004l-0.005-0.032l0.028-0.076l-0.005-0.015l-0.021,0.008l-0.019,0.024
	l-0.025,0.023l-0.024,0.009l-0.018,0.013l-0.016,0.003l-0.015-0.011l-0.014-0.006l-0.013,0.002l-0.006-0.029l0.013-0.068
	l0.029-0.046l0.033-0.02l0.037-0.018L1306.288,221.143z M1297.829,179.315l0.04,0.029l0.013,0.061l-0.016,0.082l-0.035,0.075
	l-0.086,0.071l-0.143,0.179l-0.063,0.032l-0.063-0.03l-0.037-0.063l0.043-0.111l0.031-0.103l0.008-0.112l0.021-0.106l0.072-0.084
	l0.063,0.018L1297.829,179.315z M1305.621,220.973l0.077-0.004l0.131-0.021l0.018-0.047l-0.131-0.211l0.086-0.063l0.081,0.014
	l0.048,0.068l0.099,0.06l0.02,0.072l0.083,0.055l0.059,0.021l0.067-0.002l0.068-0.041l0.03-0.002l0.051-0.002l0.003,0.039
	l-0.008,0.072l0.06,0.016l0.037-0.033l0.058-0.007l0.037,0.008l-0.009,0.075l-0.085,0.007l-0.091,0.038l-0.146,0.018l-0.065-0.016
	l-0.096,0.071l-0.016,0.036l-0.009,0.137l-0.012,0.038h-0.057l-0.035-0.059l-0.073-0.075l0.052-0.063l-0.063-0.066l-0.085,0.058
	l-0.176,0.002l-0.027-0.06l0.107-0.025l-0.012-0.037l-0.015-0.021l-0.088,0.011l-0.058,0.021l-0.088-0.006l-0.039-0.056
	l-0.082-0.006l-0.054,0.038l-0.047,0.016l-0.187-0.018l0.029-0.042l0.08-0.007l0.042,0.01l0.042,0.008l0.033-0.033l0.018-0.034
	l0.094,0.008l0.082,0.013l0.075,0.024L1305.621,220.973z M1304.569,220.932l0.054,0.05l0.052,0.02l0.009,0.03l-0.003,0.062
	l-0.021,0.045l-0.018,0.026l-0.002,0.024l0.009,0.016l-0.04,0.001l-0.07-0.039l-0.032-0.052l-0.016-0.033l-0.053-0.05l0.005-0.028
	l0.062-0.039l0.032-0.031L1304.569,220.932z M1303.738,219.503l0.191-0.053l0.062,0.014l0.084,0.04l0.061,0.046l0.029-0.045
	l0.061,0.037l0.029,0.042l0.044-0.006l0.042,0.044l0.064-0.014l0.094,0.021l0.228,0.144l0.107,0.115l0.057,0.131l-0.022,0.072
	l-0.005,0.06l-0.047-0.002l-0.104-0.003l0.06-0.05l0.055-0.101l-0.02-0.056l-0.038-0.019l-0.015,0.016l-0.019,0.03v0.043
	l-0.043,0.033l-0.064-0.007l-0.053-0.038l-0.001-0.087l-0.07,0.043l-0.092,0.021l-0.111-0.101l-0.127,0.004l-0.102,0.009
	l-0.072-0.19l-0.111-0.034l0.013-0.031l0.04-0.033l-0.058-0.055l-0.04,0.067l-0.063,0.002L1303.738,219.503z M1303.348,219.565
	l0.025-0.009l-0.019-0.063l0.031-0.017l0.049,0.025l0.029,0.047v0.057l-0.017,0.051l0.015,0.027l0.021,0.007l0.006,0.017v0.033
	l-0.043-0.007l-0.072-0.058l-0.052-0.058l-0.003-0.038L1303.348,219.565z M1295.634,182.215l0.003-0.001l-0.002,0.013
	L1295.634,182.215z M1300.53,209.624l0.044-0.092l0.018,0.001l0.021,0.058l0.001,0.081l-0.04,0.132l0.021,0.059l-0.065-0.015
	l-0.038-0.046l-0.009-0.064l0.018-0.073L1300.53,209.624z M1301.817,219.004l0.047-0.01l0.043-0.022l0.035-0.06l0.018-0.063
	l0.009,0.02l0.022,0.033l0.01,0.02l0.027-0.004l0.025-0.093l0.061-0.009l0.064,0.051l0.017,0.086l0.017,0.094l0.093,0.033
	l0.086-0.006l-0.009,0.041l-0.054,0.083l-0.053,0.06l-0.067-0.004l-0.021,0.042l0.04,0.047l-0.055,0.038l-0.072,0.021l0.036-0.121
	l0.002-0.039l-0.029,0.004l-0.064,0.112l-0.086,0.021l-0.052,0.013l-0.009-0.081l-0.073,0.031l-0.077-0.011l-0.052-0.021h-0.05
	l0.035-0.05l0.039-0.26l0.035-0.008L1301.817,219.004z M1294.406,181.17l0.029,0.046l0.007,0.066l-0.023,0.061l-0.077,0.027
	l-0.082-0.032l-0.019-0.068l0.019-0.044l0.018-0.021l0.056-0.043l0.028-0.004L1294.406,181.17z M1299.861,209.565l0.133-0.132
	l-0.013-0.052l-0.036-0.045l-0.072-0.068l-0.007-0.022l-0.001-0.059l-0.009-0.021l-0.032-0.016l-0.05-0.001l-0.021-0.02
	l-0.016-0.043l-0.007-0.102l-0.011-0.059l0.052,0.036l0.12,0.061l0.01,0.03l-0.008,0.039l0.044,0.086l0.028,0.033l0.037,0.009
	l0.109-0.014h0.044l0.049,0.004l-0.01,0.046l0.017,0.083l-0.009,0.033l-0.035,0.021l-0.042,0.003l-0.04,0.011l-0.029,0.044
	l0.037,0.02l-0.028,0.059l0.028,0.02l0.047,0.003l0.033,0.011l0.014,0.045l-0.013,0.07l0.024,0.039l-0.027,0.034l0.025,0.015
	l0.018,0.015l0.03,0.034l-0.083,0.046l-0.09,0.074l-0.1,0.045l-0.113-0.04l-0.051-0.085l-0.005-0.105l0.022-0.105L1299.861,209.565z
	 M1300.803,214.452l0.039-0.042l0.06-0.002l0.01,0.058l0.04-0.021l0.031-0.016l0.04,0.019l0.028,0.012l0.051,0.055l0.06-0.004
	l0.018-0.002l0.011-0.019l0.009-0.076l-0.033-0.077l0.149-0.011l0.031-0.015l0.112-0.033l0.081-0.051l0.178-0.149l0.118-0.073
	l0.071-0.077l0.034-0.088l-0.019-0.063l0.005-0.101l-0.001-0.166l0.02-0.125l-0.01-0.14l0.083-0.119l-0.019-0.149l0.002-0.173
	l-0.061-0.184l-0.036-0.015l-0.141-0.117l-0.077-0.049l-0.1-0.015l-0.07-0.044l-0.056-0.078l-0.036-0.112l-0.015-0.083l-0.02-0.06
	l0.015-0.069l0.03-0.084l-0.021-0.073l-0.001-0.079l0.101-0.103l0.145-0.117l0.101-0.081l0.083-0.043l0.089-0.027l0.127,0.021
	l0.118-0.052l0.099,0.021l0.147,0.044l0.104-0.006l0.019,0.031l-0.029,0.094l-0.02,0.065l0.039,0.065l0.065,0.008l0.068-0.023
	l0.058,0.005l0.037,0.091l0.022,0.03l0.071,0.006l0.025,0.073l0.013,0.076l-0.021,0.038l-0.053,0.064l0.029,0.1l0.104,0.012
	l0.289-0.096l0.043-0.078l0.017-0.078l-0.03-0.246l-0.107-0.146l0.05-0.187l-0.077-0.029l0.042-0.208l0.005-0.235l-0.053-0.103
	l-0.092-0.115l-0.003-0.071l0.144,0.056l0.1,0.023l0.066-0.015l0.036,0.024l0.032,0.057l0.092,0.053l0.078,0.003l0.121,0.045
	l0.043-0.136l-0.084-0.088l-0.021-0.12l0.013-0.045l0.085,0.092l0.075,0.047l0.056,0.012l0.021-0.072l-0.024-0.036v-0.059
	l0.029-0.044l-0.005-0.051l-0.051-0.004l-0.057,0.002l-0.007-0.03l0.066-0.045l0.035-0.034l0.02-0.04l0.001-0.035l-0.019-0.032
	l-0.03-0.019h-0.104l0.113-0.089l0.058,0.005l0.041,0.094l0.016,0.148l0.012,0.061l0.085,0.012l0.084,0.047l0.129-0.008l0.022-0.048
	l0.063-0.09l-0.008-0.057l0.058-0.048l-0.021-0.038l-0.016-0.034l0.009-0.027l0.022-0.024l0.008-0.03l-0.031-0.042l0.023-0.002
	l0.019-0.02l-0.016-0.028l-0.072-0.038l0.003-0.103l0.004-0.082l0.042-0.019v0.077l0.052,0.072l0.027,0.067l0.107,0.102l0.073,0.037
	l0.025-0.022l0.012-0.038l0.028-0.022l0.079,0.027l0.034,0.029l0.022,0.03l0.03,0.029l0.056,0.021l-0.003-0.05l-0.034-0.109
	l0.022-0.026l0.063,0.016l0.06,0.051l0.04,0.065l0.006,0.056l0.079,0.061l0.006,0.183l0.099,0.019l0.123-0.021l0.013,0.001h0.022
	l0.021,0.013l0.014,0.017l0.014,0.008l0.075-0.004l0.066-0.007l0.023,0.028l-0.067,0.067l-0.01,0.048l0.064,0.01l0.046,0.054
	l0.086,0.033l0.049,0.042l0.024,0.014l0.022,0.008l0.007-0.003l0.012-0.008l0.034-0.009l0.051,0.006l0.129,0.047l0.03,0.018
	l0.025,0.05l0.004,0.08l0.021,0.012l0.08,0.01l0.139,0.042l0.055-0.021l0.042-0.048l-0.011-0.065l0.009-0.027l0.065-0.08
	l0.093,0.059l0.035,0.081l-0.016,0.067v0.076l0.087-0.003l0.059-0.078l0.079-0.074l0.083,0.086l0.029,0.037l0.017,0.043l0.021,0.028
	l0.041,0.008l0.121,0.009l0.104-0.008l0.022,0.007l0.014,0.02l0.033,0.026l0.094,0.025l0.228,0.008l0.17,0.042l0.222,0.009
	l0.285,0.03l0.438,0.06l0.497,0.064l0.133,0.021l0.079-0.023h0.052l0.107-0.05l0.068-0.06l0.022-0.116l0.042,0.006l0.082,0.043
	l0.038,0.006l0.506,0.012l0.131-0.042l0.117,0.107l0.063,0.037l0.075,0.005l0.008,0.01l0.094,0.037l0.045,0.009l0.055-0.005
	l0.027-0.014l0.014-0.017l0.02-0.012l0.094-0.017l0.027,0.015l0.057,0.041l0.032,0.005l0.218,0.002l0.042,0.013l0.077,0.039
	l0.042,0.008l0.032-0.001l0.029,0.004l0.025,0.023l-0.015,0.017l-0.005,0.012l-0.006,0.028l-0.029-0.012l-0.013-0.003l-0.02-0.001
	l0.05,0.152l0.016,0.073l-0.022,0.067l-0.03,0.023l-0.074,0.01l-0.043,0.019l-0.024,0.021l-0.069,0.088l-0.032,0.032l-0.003,0.019
	l-0.002,0.03l0.035,0.081l-0.042,0.075l-0.025,0.047l0.02,0.077l0.034,0.078l0.088,0.135l0.052,0.05l0.06,0.036l0.123,0.047
	l0.181,0.028l0.032-0.053l0.021-0.139l0.016-0.097l0.03-0.087l0.05-0.021l0.036,0.005l0.067,0.074l0.07,0.023l0.017-0.076
	l-0.071-0.116l0.033-0.035l0.281,0.24l0.006,0.107l0.042,0.091l0.096-0.009l0.063,0.028l0.146,0.043l0.068,0.034l0.055,0.042
	l0.053,0.052l0.045,0.059l0.037,0.062l0.067,0.134l0.042,0.095l0.026,0.098l0.057,0.099l0.064,0.064l0.043,0.017l0.066,0.156
	l0.141,0.099l0.07,0.057l0.02,0.077l-0.297,0.026l-0.104-0.085l-0.117-0.139l-0.05-0.047l-0.302-0.038l-0.071,0.055l-0.185-0.075
	l-0.15-0.013l-0.226,0.01l-0.084,0.02l-0.118,0.069l-0.123,0.072l-0.136,0.11l-0.079,0.188l-0.11,0.061l-0.199-0.019l-0.069,0.049
	l-0.01,0.234l-0.029,0.074l-0.004,0.04l-0.024,0.047l-0.052,0.038l-0.128-0.07l-0.061-0.085l0.008-0.098l-0.021-0.097l0.009-0.096
	l0.069-0.054l0.119-0.007l0.031-0.018l0.011-0.055l-0.01-0.05l-0.022-0.034l-0.081-0.056l-0.153-0.065l-0.18-0.015l-0.158,0.048
	l-0.084,0.125l0.027,0.147l-0.046,0.212l0.07,0.151l0.161,0.1l0.045,0.004l0.116-0.003l0.04,0.01l0.133,0.085l0.052,0.021
	l0.157,0.011l0.117,0.045l0.133,0.03l0.187,0.015l0.086-0.006l0.09-0.032l0.236-0.156l0.174-0.076l0.081-0.056l0.028-0.067
	l0.012-0.057l0.104-0.099v-0.145l0.055-0.016l0.162,0.021l0.076,0.001l0.093,0.012l0.044,0.059l0.038,0.071l0.085,0.055
	l-0.046,0.058l0.008,0.043l0.027,0.042l0.007,0.053l-0.02,0.064l-0.027,0.023l-0.062,0.013l-0.098,0.053l-0.058,0.056l-0.073,0.185
	l0.063,0.598l0.015,0.086l0.054,0.096l0.006,0.104l-0.06,0.049l-0.08,0.025l-0.062,0.032l-0.089,0.053l-0.048,0.062l-0.002-0.044
	v-0.063l-0.053,0.003l-0.072,0.056l-0.086,0.117l-0.075,0.128l-0.037,0.091l-0.064-0.092l-0.015-0.03l-0.003-0.036l0.014-0.054
	l0.001-0.033l0.011-0.05l0.083-0.088l0.035-0.058l-0.112-0.047l-0.202-0.159l-0.146-0.021l-0.079-0.036l-0.166-0.019h-0.15
	l-0.102,0.056l-0.101-0.036l-0.081,0.019l-0.064,0.052l-0.107,0.128l-0.204,0.182l-0.031,0.056l-0.081,0.195l-0.014,0.064
	l-0.041,0.015l-0.092,0.056l-0.167-0.011l-0.041-0.031l0.029-0.131l0.016-0.05l-0.092,0.121l-0.06,0.052l-0.13-0.049l-0.197,0.009
	l-0.086,0.04l-0.091,0.048l-0.035,0.048l-0.021,0.02l-0.047,0.069l-0.083,0.017l-0.048-0.044l-0.104-0.053l-0.107,0.017
	l-0.079,0.107l-0.135-0.084l-0.08-0.149l0.131-0.14l-0.035-0.072l-0.065-0.072l-0.053-0.04l-0.031-0.007l-0.122-0.019h-0.004
	l-0.021-0.011l-0.016-0.03l-0.016-0.004l-0.063,0.014l-0.016-0.001l-0.333-0.23l-0.117-0.021l-0.025-0.007l-0.038-0.045
	l-0.024-0.013l-0.043-0.001l-0.037,0.019l-0.041,0.001l-0.092-0.016l-0.013-0.027l0.082-0.115l-0.054-0.028l-0.055,0.003
	l-0.121,0.035l-0.036-0.014l-0.146-0.076l-0.061-0.074l-0.115-0.019l-0.111,0.033l-0.053,0.075l-0.049-0.025l-0.023-0.04
	l-0.014-0.11l-0.054,0.041l-0.057,0.098l-0.053,0.021l-0.039-0.015l-0.272-0.233l-0.08-0.046l-0.117-0.027l0.018,0.102l0.207,0.604
	l0.039,0.058l-0.02,0.056l-0.066-0.025l-0.063-0.061l-0.168-0.241l-0.086-0.069l-0.028-0.039l-0.004-0.06l-0.03-0.058l-0.012-0.031
	l-0.007-0.036l-0.032,0.005l-0.014,0.055l-0.037,0.048l-0.049,0.035l-0.046,0.017l-0.031-0.002l-0.036-0.011l-0.062-0.034
	l-0.025-0.01l-0.019,0.01l-0.017,0.016l-0.028,0.013l-0.079,0.062l-0.188,0.329l-0.156,0.204l-0.044,0.119l-0.076,0.043
	l-0.284,0.071l-0.192,0.022l-0.08,0.04l-0.057,0.006l-0.021,0.009l-0.015,0.025l-0.003,0.021l0.003,0.021l-0.008,0.017l-0.044,0.088
	l-0.028,0.032l-0.047,0.025l-0.038,0.004l-0.022,0.017l0.002,0.105l-0.01,0.089l0.003,0.055l0.007,0.038l-0.11,0.142l-0.033,0.07
	l0.138,0.063l0.131,0.139l0.116,0.086l-0.026,0.095l0.081-0.03l0.067-0.062l0.127-0.078l0.25-0.208l0.063-0.082l0.09-0.001
	l0.027,0.053l0.097-0.014l0.069,0.048l0.04,0.09l0.063,0.046l0.04,0.049l0.049,0.067l0.025,0.035l0.022-0.069l0.05-0.047
	l0.049-0.089l-0.014-0.094l-0.021-0.062l-0.159-0.162l-0.04-0.241l0.07-0.136l0.092-0.061l0.168-0.108l0.057-0.019l0.142-0.027
	l0.04,0.002l0.106,0.056l0.061,0.006l0.064-0.048l0.102,0.057l0.09,0.126l0.025,0.141l0.033,0.031l0.049-0.012l0.039,0.018
	l0.02,0.064l0.057,0.011l0.022,0.029l0.027,0.091l0.056,0.058l0.006,0.059l-0.052-0.02l-0.065,0.025l-0.021,0.057l-0.031,0.038
	l-0.023,0.072l-0.088,0.015l-0.1,0.019l0.002-0.054l-0.025-0.041l-0.06-0.043l-0.037-0.035l-0.046-0.041l-0.051-0.036l-0.044-0.028
	l-0.082,0.023l-0.017,0.048l-0.017,0.037l-0.028,0.02l-0.025-0.008l-0.042-0.009l-0.035,0.051l0.006,0.116l0.035,0.033l0.005,0.045
	l-0.009,0.127l0.062,0.105l0.062,0.045l0.066,0.058l0.034,0.087l0.043,0.062l0.021,0.076l-0.033,0.035l-0.037,0.008l-0.012,0.015
	l0.035,0.03l0.053-0.03l0.079,0.037l0.147,0.076l0.083,0.039l0.086,0.02l0.07,0.068l0.05,0.067l0.01,0.052l0.037,0.008l0.072,0.01
	l0.093,0.078l0.075,0.076l0.044,0.004l-0.01,0.027l-0.009,0.054l0.039,0.046l0.024,0.032l-0.052,0.033l-0.056-0.053l-0.024-0.043
	l-0.029-0.047l-0.033-0.025l-0.115-0.026l-0.074-0.029l-0.069-0.028l-0.067-0.003l-0.024,0.02l0.029,0.037l-0.024,0.028
	l-0.035,0.005l-0.014-0.044l-0.038-0.019l-0.019-0.038l0.042-0.039l-0.037-0.038l-0.11-0.035l0.031,0.132l-0.063,0.008l-0.148,0.102
	l-0.029,0.044l-0.017,0.036l-0.022,0.026l-0.054,0.017l-0.044,0.028l-0.012,0.065l0.043,0.032l0.026,0.041l-0.089,0.059
	l-0.043,0.096l-0.061,0.051l-0.064,0.043l-0.043,0.021l-0.051,0.013l-0.054,0.021l-0.039,0.038l-0.03,0.042l-0.009,0.053
	l-0.128,0.047l-0.101,0.01l-0.053-0.045l-0.068-0.017l-0.055,0.022l-0.074,0.003l-0.031-0.03l-0.13,0.009l-0.12-0.051l0.046-0.156
	l0.074-0.067l0.01-0.004l0.041-0.001l0.01-0.004v-0.012l-0.027-0.021l-0.027-0.018l0.007-0.02l0.028-0.022l0.031,0.021l0.106,0.039
	l0.069,0.001l0.053-0.031l-0.026-0.035l-0.104-0.04l0.018-0.122l0.059-0.068l0.063-0.051l0.041,0.021l0.042,0.002l0.104-0.024
	l0.067-0.005l0.039,0.026l-0.037,0.028l-0.104,0.036l0.005,0.033l0.155-0.036l0.036-0.059l0.069-0.024l0.057,0.042l0.04-0.085
	l0.017-0.033l0.031-0.039l0.021-0.042l0.025-0.019l-0.016-0.017l-0.03-0.013l-0.031-0.049l-0.038-0.017l-0.069-0.022l0.038-0.208
	l0.055-0.21l-0.024-0.056l-0.067,0.078l-0.26,0.25l-0.127,0.026l-0.068-0.026l-0.105-0.016l-0.09,0.021l-0.074,0.141l-0.098,0.133
	l0.053,0.102l0.058,0.064l0.007,0.038l-0.086,0.02l-0.051,0.103l0.035,0.037l0.06,0.036l0.014,0.051l-0.029,0.061l-0.046,0.021
	l-0.107,0.053v-0.023l0.008-0.04l-0.078,0.026l-0.038,0.003l-0.028-0.049l-0.039,0.012l0.002,0.041l0.086,0.061l-0.043,0.025
	l-0.055,0.017l-0.057,0.003l-0.013,0.053l0.094-0.024l0.098,0.001l0.035,0.01l-0.007,0.029l0.006,0.061l0.053,0.021l0.014,0.024
	l-0.108,0.032l-0.03-0.077l-0.052-0.005l-0.042,0.021l-0.03,0.039l-0.02,0.045l-0.013,0.042l-0.039-0.006l-0.027,0.004l-0.021,0.016
	l-0.028,0.032l0.024,0.025l0.01,0.037l-0.007,0.042l-0.052,0.075l-0.006,0.039l0.014,0.098l-0.06,0.055l-0.136-0.022l-0.073,0.003
	l-0.026-0.028l0.004-0.028l-0.041-0.035l-0.028,0.012l-0.046,0.027l-0.08,0.061h-0.122h-0.103l-0.052-0.038l0.081-0.12l-0.025-0.088
	l-0.175-0.084l0.036-0.03l0.121-0.007l0.028-0.098l-0.072-0.154l0.037-0.248l0.07-0.038l0.002-0.001l0.111-0.037l0.044-0.035
	l0.033-0.046l0.016-0.054l-0.058,0.022l-0.096,0.04l-0.143,0.003l-0.093-0.035l-0.053-0.038l-0.048,0.042l-0.036-0.021l-0.099,0.216
	l-0.07,0.085l-0.039,0.043l-0.063-0.029l-0.065-0.017l-0.02-0.052l0.07-0.075l0.049-0.031l0.05-0.036l0.016-0.053l-0.03-0.031
	l-0.06,0.027l-0.095,0.102l-0.136,0.048l-0.097-0.054l-0.086,0.019l0.05-0.067l0.006-0.067l-0.063-0.082l0.051-0.132l0.072-0.084
	l0.047,0.009l0.059,0.035l0.053,0.009l0.02-0.05l-0.045-0.029l0.041-0.023l0.042-0.006l0.035-0.038l0.016-0.055l-0.002-0.107
	l-0.027-0.041l-0.053-0.036h-0.11l-0.048-0.033l-0.066-0.108l-0.032-0.063l0.006-0.046l-0.037-0.035l-0.015-0.014l-0.014-0.047
	l-0.029-0.047l-0.045-0.038l-0.059-0.015l0.008,0.046l0.046,0.115l-0.009,0.038l-0.059,0.019l-0.009,0.035l-0.001,0.047
	l-0.018,0.021l-0.031,0.001l-0.04-0.015l-0.041-0.035l-0.013-0.037l-0.006-0.037l-0.02-0.036l-0.063-0.056l-0.052,0.02l-0.051-0.015
	l-0.003-0.042l-0.007-0.042l-0.011-0.032l-0.019-0.025l-0.031-0.021l-0.112,0.005l0.016-0.051l0.023-0.046l0.037-0.024l0.047,0.028
	l0.068-0.027l0.022-0.057l0.013-0.026l-0.027-0.074l0.035-0.019l0.071,0.027l0.021-0.033l0.019-0.049l0.009-0.021l-0.024-0.016
	l-0.007-0.023l-0.024-0.011l-0.061-0.028l-0.01-0.056l-0.013-0.105l-0.035-0.052l-0.018-0.065l-0.055-0.024l-0.065-0.001
	l-0.089-0.005l-0.032,0.021l-0.045,0.024l0.054,0.066l0.067,0.058l0.029,0.043l-0.021,0.052l-0.018,0.046l-0.02,0.028l0.019,0.041
	l-0.031,0.051l-0.073,0.033l-0.036-0.013l0.002-0.041l0.062-0.032l0.026-0.056v-0.083l-0.089-0.143l-0.062-0.05l-0.067-0.04
	l-0.055-0.042l-0.029-0.056l-0.046-0.022l-0.078-0.047l-0.087,0.005l-0.074,0.023l-0.002,0.043l-0.029,0.034l-0.056,0.003
	l-0.025-0.014l-0.021-0.027l-0.032-0.033l-0.037-0.015l-0.139-0.021l0.026-0.036l-0.01-0.038l-0.068-0.077l-0.039-0.026l-0.03-0.007
	l-0.024-0.019l-0.021-0.061l-0.012-0.18l-0.024-0.076l-0.071-0.069l-0.185-0.086l-0.019-0.028l-0.014-0.047l-0.002-0.045
	l0.018-0.058l-0.066-0.083l-0.022-0.128l-0.001-0.145l0.09,0.011l-0.033-0.051l-0.014-0.095l0.047-0.045l0.071-0.049l0.021-0.065
	l-0.018-0.061l-0.043-0.041l-0.086-0.045l-0.1-0.014l-0.101-0.088l-0.056-0.108l0.036-0.05l0.096-0.003l0.059,0.025l0.028,0.006
	l0.025-0.006L1300.803,214.452z M1299.552,208.368l0.03,0.072l-0.022,0.048l-0.057,0.019l-0.056-0.025l-0.043-0.032l-0.026-0.023
	l-0.01-0.015l-0.02-0.022l-0.048-0.037l-0.029-0.014l0.011-0.012l0.046-0.01l0.05-0.003l0.026,0.002l0.023,0.011l0.021,0.004
	l0.044-0.006L1299.552,208.368z M1293.68,181.735l0.034,0.111l-0.093,0.104l-0.149,0.009l-0.116-0.091l-0.036-0.129l0.087-0.102
	l0.157,0.018L1293.68,181.735z M1298.857,208.771l0.056-0.019l-0.063-0.089l0.082-0.027l0.113,0.021l0.03,0.052l-0.033,0.095
	l0.042,0.204l-0.02,0.091l-0.088-0.057l-0.066-0.078l-0.073-0.036l-0.103,0.07l-0.055-0.029l-0.037-0.042l-0.021-0.047l-0.004-0.041
	l0.021-0.036l0.021,0.006h0.021l0.018,0.008l0.009,0.026l0.049-0.041l0.05-0.02L1298.857,208.771z M1298.27,206.801l-0.003-0.041
	l-0.009-0.021l0.018-0.013l0.052,0.019l0.218,0.151l0.042,0.06l-0.024,0.047l-0.077,0.016l-0.062-0.001l-0.025-0.018l-0.001-0.023
	v-0.02l-0.034,0.017l-0.06,0.042l-0.064-0.015l-0.032-0.081l0.013-0.066l0.03-0.025L1298.27,206.801z M1298.475,208.016l0.046,0.012
	l0.026,0.029l0.018,0.026l-0.006,0.011l-0.029,0.006l-0.01,0.024l0.007,0.03l-0.03,0.106l-0.031,0.04l-0.05-0.015l-0.022-0.05
	l0.008-0.078l0.001-0.038l0.024-0.068L1298.475,208.016z M1297.93,207.453l0.104-0.005l0.09,0.02h0.051l0.046,0.034l0.035,0.082
	l0.014,0.075l-0.021,0.055l-0.054,0.037l-0.055-0.003l-0.026-0.024l-0.006-0.011l-0.068-0.1l-0.006-0.042l-0.034-0.037l-0.073-0.037
	l-0.033-0.021L1297.93,207.453z M1298.082,206.958l0.077,0.051l0.02,0.134l0.097,0.121l-0.022,0.04l-0.095-0.014l-0.024-0.021
	l-0.028-0.058l-0.026-0.015l-0.046,0.005l-0.024,0.022l-0.01,0.033l0.004,0.036l-0.103-0.054l-0.095-0.065l-0.031-0.073l0.088-0.074
	l0.129-0.066L1298.082,206.958z M1298.484,209.823l0.032,0.059l-0.021,0.047l-0.039,0.011l-0.125-0.054l-0.065-0.035l-0.047-0.052
	l-0.035-0.048l0.003-0.038l0.034-0.029l0.04-0.013l0.02-0.002l0.089,0.06L1298.484,209.823z M1300.037,221.311l-0.003-0.023
	l-0.03-0.027l-0.01-0.034l-0.039-0.046l-0.007-0.049l-0.031,0.021l-0.03,0.011l-0.008-0.041l0.018-0.037l0.037-0.056l0.087-0.008
	l0.031-0.047l-0.067-0.006l-0.007-0.096l0.023-0.021l0.041,0.009l0.039,0.06l0.061,0.02l0.076-0.022l0.049-0.021l0.053,0.05
	l0.007,0.043l0.024-0.005l0.015-0.02l0.053,0.003l0.069-0.004l0.052-0.004l0.018,0.007l0.01,0.024l0.036,0.01l0.051-0.006
	l0.077,0.014l0.029,0.042l0.043,0.002l0.035,0.038l0.035,0.005l0.004,0.047l0.027,0.011l0.031,0.038l-0.039,0.022l-0.004,0.021
	l-0.042,0.053l-0.013,0.033l0.032,0.043l0.012,0.021l-0.174,0.03l-0.105-0.017l-0.111,0.028l-0.142,0.003l-0.035-0.027l-0.066,0.011
	l-0.107-0.011l-0.19,0.017l-0.062-0.023l-0.001-0.068l0.027-0.015l0.038,0.009L1300.037,221.311z M1296.693,202.876l0.123-0.023
	l0.041-0.027l0.005-0.066l-0.024-0.025l-0.111-0.063l-0.039-0.011l0.049-0.092l0.011-0.092l0.044-0.05l0.137,0.025l0.056-0.166
	l0.001-0.049l0.01-0.05l0.064-0.1l0.009-0.058l-0.036-0.097l-0.006-0.048l0.025-0.026l0.034-0.022l0.038-0.047l0.052-0.106
	l-0.016-0.11l-0.094-0.086l-0.036-0.253l-0.052-0.072l-0.019-0.045l-0.094-0.032l0.048-0.025l0.058,0.03l0.069,0.011l-0.023-0.06
	l-0.088-0.051l-0.042-0.067l0.067,0.011l0.079,0.037l0.039-0.003l0.034-0.005l0.022-0.013l0.031,0.071l0.001-0.045l0.012-0.038
	l-0.016-0.051l0.064,0.018l0.075,0.027l0.049,0.001l0.024-0.013l0.116,0.045l0.116-0.021l0.073-0.028l0.021,0.02l0.084,0.008
	l0.028-0.001l0.044-0.01l0.086-0.039l0.034-0.028l0.012-0.029l-0.011-0.047h-0.049l-0.019-0.037l0.099-0.076l0.067-0.062
	l0.051-0.142l0.047,0.014l0.014-0.052l0.072-0.014l0.063-0.016l0.056,0.037l0.046,0.006l0.029,0.047l0.034,0.038l0.112,0.042
	l0.02-0.063l-0.048-0.214l0.026-0.006l0.013,0.033l0.026,0.035l0.012,0.031l0.031-0.006l-0.051-0.118l-0.041-0.063l0.016-0.047
	l0.055,0.064l0.076,0.104l0.094,0.129l0.063,0.038l0.042,0.132l0.08,0.02l0.029,0.107l0.129,0.008l0.035,0.089l0.075,0.017
	l0.262,0.269l0.111,0.19l0.104,0.09l0.044-0.059l0.119,0.075l0.056,0.001l0.037,0.022l0.029,0.048l-0.004,0.054l0.045,0.046
	l0.073-0.027l0.055-0.004l0.065,0.056l0.119,0.069l0.23,0.068l0.393,0.04l0.172-0.007l0.134,0.011l0.062-0.004l0.116-0.003
	l0.104-0.017l0.063,0.042l-0.136,0.102l-0.086,0.081l0.02,0.054l-0.007,0.085l-0.092,0.012l-0.087,0.128l-0.172,0.193l-0.128,0.083
	l-0.021,0.119l-0.029,0.116l-0.085,0.124l-0.142,0.094l0.021,0.276l-0.023,0.369l-0.062,0.106l0.085,0.25l0.102,0.235l0.074,0.059
	l0.099,0.149l0.195,0.283l0.114,0.039l0.069-0.032l0.067,0.048l0.055,0.087l0.03,0.087l0.014,0.061l0.016,0.039l0.023,0.029
	l0.04,0.031l0.11,0.052l0.014,0.018l-0.079,0.003l-0.007,0.029l-0.014,0.029l0.062,0.068l0.094,0.072l0.102,0.039l0.083-0.031
	l0.058,0.014l0.034-0.016l0.027-0.03l0.028-0.021l0.021-0.009l0.013-0.018l0.021-0.008h0.032l0.02,0.012l0.016,0.016l0.018,0.005
	h0.106l0.065,0.036l0.061,0.045l0.038,0.039l0.094-0.028l0.025-0.035l0.045,0.053l-0.047,0.033l0.007,0.052l0.132,0.074l0.234,0.085
	l0.14,0.072l0.065,0.029l0.066-0.02l0.041-0.003l0.024,0.027l-0.031,0.067l-0.034,0.092l0.092,0.119l0.175,0.033l0.173-0.004
	l0.191-0.094l0.156-0.002l0.037,0.043l0.012,0.112l0.056,0.013l0.074-0.025l0.094-0.007l0.023-0.062l0.048-0.036l0.03-0.039
	l0.054-0.086l0.056-0.063l0.073-0.055l0.084-0.017l0.057,0.092l-0.024,0.075l-0.016,0.034l-0.028,0.026l-0.08,0.053l-0.029,0.026
	l-0.042,0.077l-0.018,0.099l0.031,0.083l0.104,0.026l-0.066,0.048l0.005,0.054l0.049,0.05l0.063,0.043l0.049,0.06l0.011,0.08
	l-0.01,0.079l-0.02,0.061l-0.079,0.126l-0.056,0.081l0.078,0.17l0.142,0.121l-0.088,0.047l-0.118,0.008l-0.132-0.066l-0.148-0.04
	l-0.142-0.092l-0.063-0.037l-0.058-0.006l0.048,0.266l0.02,0.047l0.003,0.034l-0.083,0.185l-0.012,0.067l0.053-0.062l0.004,0.075
	l-0.018,0.069l0.013,0.045l0.097,0.01l0.007-0.025l0.027-0.04l0.013-0.025l0.04,0.061v0.066l-0.033,0.059l-0.133,0.096l-0.082-0.071
	l-0.088,0.06l-0.073-0.038l-0.039-0.014l-0.12,0.101l-0.07,0.052l0.007,0.119l-0.022,0.088l0.171,0.06l-0.006,0.058l-0.118-0.05
	l-0.06,0.025l-0.058-0.034l0.046-0.181l-0.025-0.073l-0.061-0.035l0.012,0.078l-0.067-0.011l-0.06,0.01l-0.039,0.032l-0.005,0.055
	l-0.028,0.005l-0.01-0.086l-0.007-0.016l-0.018-0.014l-0.037-0.023l-0.033-0.003l-0.008,0.042l0.016,0.113l-0.019,0.04l-0.057,0.032
	l-0.056-0.001l-0.039-0.074l-0.042,0.045l-0.022,0.047l-0.024,0.062l0.049,0.024l0.021,0.062l-0.072,0.029l-0.042-0.092l0.005-0.101
	l-0.005-0.055l0.055-0.015l0.034-0.072l0.049-0.041l-0.066-0.063l-0.074,0.022l-0.072-0.03l-0.033-0.082l-0.05-0.04l-0.062,0.057
	l-0.024,0.053l-0.065-0.055l0.008,0.066l0.033,0.059l-0.035,0.027l-0.011,0.044l-0.021,0.032l-0.063,0.011l-0.07-0.066l-0.027-0.064
	l-0.033-0.007l0.019,0.149l0.094,0.245l-0.011,0.076l-0.021,0.047l-0.008,0.046l-0.054-0.012l-0.022-0.024l-0.017-0.062
	l-0.027-0.025l-0.028-0.002l-0.126,0.007l0.069,0.062l-0.048,0.055l-0.101,0.017l-0.094-0.049l-0.03,0.005l0.009,0.052l-0.037-0.008
	l-0.031-0.018l-0.024-0.027l-0.018-0.033l-0.069,0.169l0.002,0.07l0.017,0.07l0.027,0.037l0.028,0.041l-0.02,0.06l0.094,0.098
	l0.044,0.089l0.104,0.136l0.092,0.118l0.097,0.1l0.073,0.028l0.052,0.024l0.008,0.064l-0.019,0.053l-0.078-0.021l0.107,0.126
	l0.13,0.165l-0.009,0.06l-0.084-0.06l-0.061-0.075l-0.17-0.137l-0.077-0.146l0.009-0.071l-0.028-0.047l-0.033,0.043l-0.035,0.014
	l-0.047-0.054l-0.06-0.101l-0.01-0.084l-0.058-0.063l-0.013-0.09l-0.113-0.094l-0.294-0.412l-0.065-0.051l-0.076-0.013l-0.045-0.017
	l-0.146-0.085l-0.033-0.03l-0.087-0.067l-0.222-0.354l-0.073-0.053l-0.084-0.09l-0.136-0.097l-0.194-0.044l-0.131,0.03l-0.117,0.043
	l-0.166-0.004l-0.123-0.006h-0.125l-0.053-0.156l-0.11,0.01l-0.103-0.04l-0.177,0.043l-0.094-0.095l-0.149-0.162l-0.081-0.044
	l-0.093-0.205l-0.074,0.001l-0.048-0.021l-0.073,0.03l0.007,0.077l0.007,0.041l-0.044-0.001l-0.001-0.07l-0.008-0.05l-0.102-0.034
	l0.062-0.057l0.014-0.031l0.026-0.024l0.02-0.044l0.209-0.255l0.252-0.158l0.07-0.048l0.059-0.042l0.039-0.044l0.021-0.087
	l0.022-0.08l-0.006-0.076l-0.058-0.094l-0.054-0.129l-0.063-0.125l-0.082-0.004l-0.062-0.107l-0.003-0.082l-0.059-0.078l-0.01-0.07
	l0.02-0.078l-0.052-0.206l0.002-0.092l0.034-0.195l-0.01-0.095l-0.041-0.076l-0.056-0.054l-0.063-0.039l-0.063-0.031l-0.072-0.043
	l-0.135-0.106l-0.076-0.037l-0.087-0.012l-0.206,0.013l-0.188,0.045l-0.072,0.033l-0.056,0.043l-0.051,0.059l-0.04,0.072
	l-0.026,0.07l-0.034,0.067l-0.066,0.068l0.03-0.088l0.025-0.123l0.004-0.112l-0.036-0.06l0.058-0.082l-0.057-0.102l-0.107-0.099
	l-0.1-0.07l-0.101-0.087l-0.148-0.213l-0.093-0.102l-0.052-0.024l-0.065-0.018l-0.06-0.023l-0.03-0.043l-0.012-0.032l-0.032-0.058
	l-0.013-0.035l0.004-0.038l0.03-0.064l0.005-0.072l0.029-0.055l0.008-0.043l-0.009-0.035l-0.035-0.054l-0.008-0.035l0.007-0.14
	l-0.036-0.02l-0.104-0.028l0.058-0.075l-0.031-0.018l-0.064,0.006l-0.041-0.003l-0.021-0.06l0.02-0.041l0.044-0.029
	L1296.693,202.876z M1297.051,204.596l0.016,0.009l-0.01,0.03l-0.044,0.038l-0.056-0.002l-0.07-0.04l-0.026-0.006v-0.029
	l0.046-0.043l0.058-0.017l0.037,0.014l0.024,0.024L1297.051,204.596z M1292.578,183.077l0.077,0.045l-0.07,0.077l-0.055,0.01
	l-0.167-0.001l-0.037-0.011l-0.04-0.028l-0.063-0.034l-0.024-0.033l0.081-0.028l0.147-0.012L1292.578,183.077z M1295.561,198.776
	l0.111,0.106l-0.015,0.059l-0.033,0.029l-0.135-0.114L1295.561,198.776z M1296.213,203.205l0.107,0.053v0.031l-0.02,0.037v0.002
	l-0.021,0.076l-0.011,0.039l-0.009,0.014l-0.013-0.004l-0.024-0.026l-0.012-0.032l-0.055-0.056l-0.019-0.042l0.011-0.018l0.02-0.036
	l-0.002-0.025l0.004-0.011L1296.213,203.205z M1294.062,192.55l0.025,0.026l-0.029,0.03l-0.032,0.028l-0.04-0.069l-0.039-0.02
	l-0.001-0.04l0.038-0.001l0.04,0.01L1294.062,192.55z M1293.926,192.651l0.029,0.064l-0.016,0.033l-0.042-0.059l-0.063-0.083
	l-0.037-0.016l-0.02-0.051l0.041,0.021l0.031-0.011l0.022,0.053L1293.926,192.651z M1295.875,202.205l0.131-0.005l0.253,0.035
	l-0.035,0.026l-0.016,0.04l0.001,0.049l0.018,0.054l-0.028,0.005l-0.024-0.07l-0.042-0.01l-0.022,0.04l0.033,0.078l0.066,0.042
	l0.084,0.026l0.071,0.032l0.026,0.066l-0.159,0.016l-0.043,0.03l-0.024,0.083l0.018,0.069l0.037,0.067l0.015,0.06l-0.055,0.045
	l-0.037-0.033l-0.048,0.006l-0.054,0.016l-0.052-0.005l0.013-0.115l-0.043-0.088l-0.13-0.143l-0.022-0.043l-0.039-0.133
	l-0.059-0.125l-0.009-0.052l0.041,0.008l0.039-0.017l0.042-0.028L1295.875,202.205z M1296.25,199.985l0.077-0.025l0.048-0.041
	l0.074-0.112l0.07-0.045l0.049,0.07l0.046,0.104l0.073,0.083l0.06,0.102l0.059,0.076l0.139,0.105l0.076,0.176l0.021,0.088
	l-0.082,0.024l-0.02,0.089l-0.013,0.015l-0.091-0.026l-0.063-0.028l0.065,0.128l-0.081,0.103l-0.094,0.056l-0.07-0.035l-0.126-0.028
	l0.006-0.087l-0.04-0.054l-0.575-0.19l-0.082-0.083l-0.055-0.062l-0.03-0.025l-0.038-0.015l-0.083-0.017l-0.044-0.017l-0.099-0.029
	l-0.103-0.131l-0.032-0.056l-0.151-0.067l-0.109-0.049l-0.043-0.075l0.059-0.113l0.052-0.02l0.065,0.033l0.076,0.044l0.1,0.011
	l0.117,0.019l0.113,0.088l0.157,0.061l0.175,0.081l0.17-0.013l0.04-0.002l0.05-0.024l0.053-0.013L1296.25,199.985z
	 M1298.125,220.687l0.032-0.028l0.032-0.042l0.03-0.031l0.062,0.007l0.029,0.018l0.023,0.028l0.003-0.034l0.016-0.039l0.045-0.008
	l0.073,0.016l0.019,0.03l-0.017,0.042l0.016,0.032l0.041-0.044l0.044-0.064l0.038,0.004l0.041,0.003l0.116,0.017l0.182,0.042
	l0.168,0.14l0.141,0.066l0.122-0.037l0.094,0.071l0.065-0.001l-0.024-0.056l-0.081-0.055l0.031-0.01l0.064,0.013l0.028,0.011
	l0.071-0.025l0.046-0.049l0.011-0.034l0.063,0.019l0.037,0.049l0.033,0.021l0.08,0.029l0.044,0.086l-0.008,0.074l-0.08,0.083
	l-0.047-0.051l0.017-0.094l-0.126,0.011l-0.015,0.05l0.089,0.057l0.003,0.041l-0.083,0.017l-0.045,0.003l-0.056-0.008l0.038,0.039
	l0.056,0.03l0.07-0.033l0.025,0.022l-0.046,0.061l0.031,0.085l-0.007,0.074l-0.058-0.016l-0.019-0.088l-0.034-0.043l-0.164,0.018
	l-0.086,0.033l-0.041-0.026l-0.012-0.035l0.007-0.02l-0.032-0.016l-0.063-0.042l-0.027,0.011l0.067,0.048l0.019,0.046l-0.049,0.024
	l-0.116-0.032l-0.153-0.037l-0.077-0.069l-0.03,0.007l-0.07,0.074l0.028,0.062l-0.06,0.017l-0.082-0.042l-0.074-0.005l-0.204-0.029
	l-0.009-0.048l-0.011-0.09l0.004-0.066l-0.048-0.038l-0.101-0.058l-0.021-0.058l-0.029,0.033l-0.045-0.012l-0.002-0.057l-0.038-0.04
	L1298.125,220.687z M1290.887,182.809l0.021,0.04l0.019,0.083l-0.054,0.274l-0.071,0.052l-0.213,0.053l-0.138,0.018l-0.003-0.183
	l0.019-0.078l0.021-0.087l0.056-0.065l0.081-0.049l0.098-0.033l0.113-0.026L1290.887,182.809z M1292.523,193.213l0.009,0.028
	l-0.157,0.075l-0.01-0.049l0.053-0.063l0.057-0.022l0.021,0.04L1292.523,193.213z M1290.206,208.383l0.047-0.057l0.004,0.054
	l0.032,0.136l-0.006,0.026l-0.02,0.023l-0.027,0.018l-0.03,0.007l-0.057-0.034l0.011-0.082L1290.206,208.383z M1290.046,208.288
	l0.088,0.062l-0.129,0.026l-0.135,0.016l-0.107-0.026l-0.05-0.097l0.08-0.069l0.125,0.023L1290.046,208.288z M1289.701,208.299
	l0.031,0.072l-0.035,0.017l-0.025-0.005L1289.701,208.299z M1289.677,208.589l0.014-0.071l-0.025-0.062l-0.006-0.05l0.038-0.009
	l0.034-0.002l0.022,0.05l0.031,0.049l0.082,0.009l0.045-0.016l0.03-0.018l0.026-0.001l0.037,0.035l0.012,0.032l-0.004,0.035
	l-0.015,0.031l-0.018,0.014l-0.043,0.009l-0.021,0.01l-0.004,0.02l0.005,0.037l0.027,0.032l0.045-0.02l0.072-0.055l0.051,0.025
	l0.002,0.052l-0.03,0.067l-0.045,0.07l-0.103-0.058l-0.158-0.142L1289.677,208.589z M1289.1,207.4l0.051,0.014l0.036,0.043
	l-0.048,0.038l0.004,0.034l0.031,0.03l0.036,0.023l0.025-0.048l0.037-0.021l0.045,0.006l0.041,0.036l0.004,0.029l-0.001,0.152
	l0.016,0.081l-0.01,0.027l-0.118,0.203l-0.009,0.039l-0.042,0.027l-0.278,0.02l-0.095-0.033l-0.256-0.264l0.052-0.013l0.016-0.033
	v-0.041l0.004-0.035l0.013-0.015l0.037-0.019l0.018-0.015l0.014-0.026l0.006-0.05l0.01-0.022l0.022-0.025l0.038-0.023l0.02-0.017
	l0.063-0.068L1289.1,207.4z M1282.096,194.723l0.037-0.006l0.037-0.015l0.043,0.019l0.039,0.056l0.02,0.068l0.039,0.061l0.041,0.042
	l0.008,0.035l0.034,0.055l0.003,0.014l-0.041,0.044l-0.07,0.092l-0.063,0.055l-0.037-0.016l0.009-0.034l0.028-0.021l0.007-0.021
	l-0.023-0.019l-0.017-0.022l-0.01-0.033l-0.02-0.031l-0.025-0.022l-0.014-0.025l0.002-0.031l0.021-0.035l0.018-0.043l-0.013-0.034
	l-0.026-0.024l-0.056-0.03l-0.032-0.05l0.027-0.031L1282.096,194.723z M1276.762,190.547l0.048-0.034l-0.011-0.031l-0.086-0.008
	l-0.02-0.135l-0.087-0.161l-0.021-0.129l0.175-0.044l0.092,0.014l0.274,0.094l0.094,0.021l0.182,0.005l0.079,0.035l0.389,0.361
	l0.233,0.357l0.029,0.079l0.004,0.041l-0.011,0.042l-0.026,0.036l-0.041,0.021l-0.052-0.001l-0.024-0.027l-0.08-0.169l-0.038-0.034
	l-0.061-0.003l-0.2,0.049l-0.083-0.021l-0.161-0.087l-0.077-0.027l-0.11,0.137l0.146,0.228l-0.115,0.088l-0.104,0.026l-0.096,0.012
	l-0.093-0.003l-0.094-0.02l-0.242-0.103l-0.156-0.021l-0.079-0.056l-0.067-0.058l-0.055-0.02l-0.21-0.125l-0.092-0.081l-0.292-0.088
	l-0.036-0.024l-0.023-0.039l-0.025-0.09l0.015-0.027l0.049-0.009l0.306-0.029l0.287,0.008l0.392,0.07h0.09L1276.762,190.547z
	 M1260.444,191.201l0.002-0.028l-0.018-0.061l0.009-0.022l0.021-0.02l0.049,0.017l0.078,0.088l-0.014,0.021l-0.057,0.032
	l-0.032,0.008l-0.028-0.007L1260.444,191.201z M1259.184,184.133l-0.045-0.15l-0.065-0.102l-0.093-0.104l-0.111-0.078l-0.093-0.056
	l-0.074-0.044l-0.067-0.03l0.016-0.016l0.027-0.02l0.033,0.015l0.039-0.024l0.017,0.002l0.028,0.022l0.017-0.011l0.014-0.021
	l0.051-0.005l0.063,0.029h0.072l0.104,0.002l0.087,0.006l0.268-0.019l0.121-0.016l0.047-0.011l0.282-0.03l0.097-0.043l0.042-0.026
	l0.057-0.001l0.06-0.019l0.049-0.021l0.286-0.042l0.236-0.075l0.192-0.064l0.051-0.025l0.457-0.18l0.389-0.181l0.233-0.123
	l0.308-0.218l0.074-0.069l0.042-0.048l0.078-0.134l0.016-0.056l-0.019-0.057l-0.047-0.031l-0.031-0.056l0.036-0.036l0.039-0.041
	l0.055-0.152l0.162-0.274l0.028-0.047l0.1-0.141l0.079-0.05l0.024-0.078l0.053-0.055l0.043-0.032l0.096-0.084l0.025-0.018
	l0.051-0.027l0.03-0.038l0.056-0.086l0.145-0.15l0.102-0.075l0.06,0.013l0.025,0.031l0.048,0.024l0.05,0.005l0.038-0.023
	l0.021-0.057l0.009-0.11l0.02-0.055l0.077-0.07l0.067,0.025l0.075,0.051l0.104,0.01l0.103-0.049l0.055-0.066l0.135-0.299l0.01-0.045
	v-0.043l0.012-0.038l0.091-0.049l0.042-0.03l0.046-0.021l0.05,0.004l0.068,0.026l0.035,0.001l0.068-0.063l0.028-0.034l0.023-0.034
	l0.033-0.033l0.133-0.053l0.054-0.03l0.251-0.167l0.019-0.017l0.024-0.003l0.029-0.021l0.031-0.018l0.039,0.004l0.056,0.028
	l0.025,0.004l0.114-0.004l0.2-0.047l0.07-0.009l0.114,0.021l0.068-0.002l0.052-0.04l-0.219-0.122l-0.041-0.083l0.047,0.006
	l0.032-0.001l0.022-0.015l0.021-0.027l0.086,0.01l0.044-0.026l0.063-0.134l0.008-0.022l0.011-0.02l0.025-0.017l0.045-0.009
	l0.023,0.012l0.02,0.016l0.036,0.001l0.021,0.019l0.192,0.086l0.053,0.048l0.079,0.11l0.063,0.036l0.059-0.09l-0.037-0.092
	l-0.089-0.065l-0.094-0.013l-0.035-0.02l0.015-0.063l0.038-0.043l0.039,0.039l0.035,0.015l0.066-0.012l0.072-0.021l0.037,0.016
	l0.031,0.075l0.02,0.033l0.007,0.036l0.021,0.037l0.034,0.027l0.094,0.06l0.043,0.034l0.014-0.107l0.072,0.022l0.1,0.079
	l0.096,0.058l0.003-0.079l-0.05-0.075l-0.069-0.062l-0.062-0.038l0.104-0.042l0.087,0.056l0.136,0.158l0.01-0.035l0.022-0.031
	l0.035-0.025l0.006,0.032l0.025,0.062l0.006,0.031l0.06-0.013l0.061-0.021l-0.033-0.122l-0.026-0.056l0.006-0.001l0.09-0.036
	l0.091,0.052l0.067,0.093l0.012,0.092l0.064-0.031l0.013-0.053l-0.038-0.121l0.088,0.018l0.07,0.063l0.053,0.088l0.035,0.094
	l0.044-0.083l0.075-0.216l0.049-0.033l0.063,0.075l-0.005,0.224l0.08,0.051l0.032-0.182l0.032-0.059l0.029,0.037l0.022,0.042
	l0.019,0.045l0.011,0.048l0.034-0.009l0.01-0.046l0.025-0.066l0.033-0.041l0.026,0.026l0.013,0.164l0.064,0.143l0.018,0.08
	l-0.026,0.079l0.065-0.021l0.046-0.035l0.038-0.043l0.046-0.041l0.006,0.044l0.019,0.034l0.075,0.034l0.002-0.062l0.036-0.033
	l0.046,0.001l0.034,0.044l-0.003,0.054l-0.026,0.061l-0.037,0.056l-0.038,0.039l-0.036-0.043l-0.051-0.016l0.04,0.162l0.065,0.033
	l0.088-0.035l0.184-0.072l0.2-0.153l0.088-0.045l-0.032,0.097l-0.019,0.017l-0.057,0.031l-0.022,0.021l-0.007,0.023l0.013,0.018
	l0.02,0.02l0.015,0.026l0.022,0.072l0.023,0.034l0.046,0.003l0.084-0.022l0.084-0.034l0.037-0.023h0.033l0.072,0.035l0.162,0.126
	l0.065,0.018l0.011-0.045l0.024-0.035l0.058-0.058l0.034-0.083l0.04-0.034l0.073,0.004l0.025,0.02l-0.008,0.023l-0.014,0.026
	l0.006,0.023l0.02,0.015l0.077,0.029l0.035,0.029l0.058,0.084l0.033,0.032l0.069,0.052l0.025-0.008l0.035-0.053l0.008-0.048
	l-0.041-0.179l0.025-0.019l0.071,0.008l0.074,0.021l0.035,0.016l0.173,0.13l0.038-0.076l0.053-0.08l0.013-0.066l-0.078-0.036
	l0.055-0.07l0.061-0.039l0.074-0.02l0.098-0.011v0.045l-0.017,0.035l-0.031,0.032l-0.04,0.028l0.183,0.004l0.049,0.009l0.007-0.025
	l0.013-0.014l0.015-0.011l0.016-0.017l0.055,0.086l0.033,0.037l0.029-0.004l0.042-0.041l0.04-0.009l0.035-0.014l0.032-0.05
	l-0.047-0.033l-0.032-0.07l-0.002-0.078l0.045-0.06l-0.004,0.063l0.011,0.052l0.036,0.036l0.07,0.011l0.025-0.104l0.088-0.042
	l0.095-0.03l0.055-0.068l0.04,0.011l0.135,0.01l-0.004,0.029l-0.069,0.131l-0.007,0.029l0.014,0.056l-0.007,0.029l-0.028,0.022
	l-0.031-0.005l-0.028-0.008l-0.022,0.008l-0.024,0.046l-0.022,0.138l-0.036-0.011l-0.104-0.006l-0.027,0.055l0.008,0.033
	l0.022,0.031l0.015,0.046l-0.001,0.048l-0.01,0.044l-0.051,0.105l-0.008,0.086l0.035,0.107l0.143,0.264l0.065,0.092l0.09,0.062
	l0.115,0.003l0.1-0.04l0.012,0.018l0.019,0.067l-0.024,0.025l-0.17,0.113l0.031,0.026l0.018,0.03l0.002,0.035l-0.016,0.037
	l0.066,0.056l0.081,0.037l0.09,0.018l0.093-0.004l-0.029-0.031l-0.017-0.041l0.004-0.04l0.036-0.028l0.037,0.001l0.032,0.023
	l0.032,0.032l0.037,0.029l0.189,0.091l0.2,0.063l0.187,0.033l0.584,0.003l0.196-0.026l0.187-0.057l0.315-0.141l0.01-0.005
	l0.148-0.148l0.188-0.191l0.146-0.088l0.062-0.032l0.035-0.047l0.053-0.035l0.09-0.024l0.04,0.001l0.07,0.021l0.03-0.003
	l0.025-0.021l0.049-0.07l0.042-0.024l1.196-0.394l0.151-0.019l0.351-0.009l0.141-0.041l0.066,0.008l0.415-0.116l0.053-0.004
	l0.166,0.024l0.408-0.059l0.173,0.009l0.159,0.099l0.02,0.028l0.046,0.093l0.115,0.103l0.05,0.084l0.077,0.04l0.023,0.027
	l0.031,0.023l0.054-0.005l0.078-0.022l0.053,0.005l0.044,0.005l0.277,0.093l0.085,0.018l0.722-0.003l0.407,0.114l0.165,0.018
	l0.337-0.037l0.069-0.022l0.16-0.098l0.07-0.024l0.123-0.001l0.186,0.104l0.113,0.032l0.164-0.056l0.367-0.15l0.263-0.204
	l0.328-0.242l0.771-0.813l0.17-0.221l0.072-0.065l0.01-0.049l0.003-0.03l0.002-0.023l0.011-0.042l0.034-0.031l0.117,0.012
	l0.048,0.021l-0.02,0.063l-0.034,0.038l-0.03,0.059l0.046,0.092l0.089,0.111l0.116,0.177l-0.067,0.039l0.102,0.202l0.229,0.208
	l0.5,0.333l0.398,0.143l0.528,0.011l0.214-0.139l0.115-0.066l0.195-0.016l0.173-0.026l0.119-0.013l0.106,0.04l0.011,0.118
	l0.12,0.044l0.066-0.031l0.065,0.034l0.005,0.073l-0.051,0.051l0.081,0.043l0.014,0.103l0.114,0.036l0.026,0.149l0.03,0.178v0.088
	l0.141,0.082l0.104-0.006l0.098,0.079l0.021,0.078l0.125,0.11l0.11,0.097l0.067,0.024l0.084,0.001l0.074,0.026l0.074-0.022
	l0.085-0.012l0.067,0.022l0.051,0.026l0.065,0.051l0.046,0.096l0.024,0.067l-0.003,0.053l0.024,0.056l0.024,0.046l-0.018,0.025
	l-0.018,0.072l-0.044-0.001l-0.06,0.023l-0.026,0.059l-0.016,0.138l0.012,0.088l-0.034,0.028l-0.05,0.011l-0.015-0.048l-0.008-0.074
	l-0.007-0.043l-0.025-0.051l-0.035-0.042l-0.046-0.015l-0.018-0.05l0.002-0.077l-0.024-0.022l-0.043-0.006l-0.061,0.025
	l-0.021,0.055l-0.009,0.086l-0.045,0.017l-0.054-0.034h-0.053l-0.049,0.022l-0.076,0.059l-0.046,0.022l-0.161,0.04l-0.083,0.095
	l-0.063,0.004l-0.062,0.026l-0.067-0.003l-0.098-0.087l-0.054-0.042l-0.101,0.023l-0.097,0.101l-0.099,0.021l-0.014,0.175
	l-0.013,0.112l-0.017,0.008l-0.018-0.083l-0.071-0.072l-0.083,0.021l-0.068-0.04l-0.082-0.004l0.008-0.201l-0.08-0.041l-0.06,0.017
	l-0.131,0.066l-0.063-0.036l-0.063-0.1l-0.079-0.052l-0.034-0.089l-0.09-0.074l-0.094-0.034l-0.122-0.056l-0.16-0.083l-0.009-0.074
	l-0.072-0.013l-0.058-0.002l0.018,0.062l-0.081,0.035l-0.077,0.035l-0.037,0.075l-0.052,0.083l-0.032,0.069l-0.06,0.116l0.026,0.047
	l-0.041,0.062l0.015,0.134l0.076,0.103l0.094-0.104l0.085,0.092l0.058,0.046l-0.033,0.034l0.003,0.047l-0.019,0.04l0.003,0.027
	l-0.012,0.061l0.046,0.018l0.069,0.006l-0.023,0.062l-0.065,0.032l0.014,0.052l0.094,0.002l0.079,0.025l-0.05,0.073l-0.105,0.024
	l-0.046,0.055l0.105,0.002l0.125-0.079l0.077-0.086l0.055-0.016l0.112-0.088l0.069,0.032l0.061-0.021l0.01,0.003l0.051,0.02
	l0.111,0.112l0.117,0.095l0.041,0.097l-0.01,0.09l0.03,0.056l0.056,0.023l0.015-0.086l0.018-0.081l0.022-0.034l0.064,0.005
	l0.076-0.04l0.011,0.048l-0.019,0.107l0.053,0.044l0.053-0.04l0.037-0.072l0.17-0.035l0.063,0.004l0.071-0.022l0.058-0.007
	l0.041-0.048l-0.061-0.013l0.021-0.057l0.085-0.095l-0.023-0.161l0.062-0.063l0.09,0.058l0.014-0.019l0.014-0.01l0.015-0.008
	l0.072-0.002l0.029,0.156l0.089,0.068l0.077,0.004l0.071-0.061l0.037-0.05l0.036-0.029l0.027,0.034l0.018,0.04v0.095l0.052,0.054
	l-0.002,0.038l-0.031,0.028l-0.052-0.006l-0.095,0.033l-0.111,0.081l-0.064-0.075l-0.033,0.026l-0.006,0.065l-0.057,0.043
	l-0.108,0.145l-0.028,0.021l-0.044,0.034l0.008,0.048l-0.085,0.042l0.042,0.061l0.011,0.08l0.035,0.073l-0.038,0.092l0.025,0.209
	l0.145,0.312l0.083,0.177l0.095,0.176l0.146,0.168l0.161,0.114l0.231-0.046l0.197-0.116l-0.026,0.161l0.21,0.079l0.166,0.006
	l0.1-0.022l-0.012-0.122l0.088-0.005l0.09-0.004l0.073,0.025l0.087-0.081l0.016-0.128l0.091-0.073l0.16-0.065l0.162-0.011
	l0.033,0.08l0.07,0.067l0.071,0.026l0.066,0.001l0.095,0.013l0.088,0.042l0.074,0.011l0.053,0.023l0.031,0.062l0.051,0.017
	l0.041,0.022l0.071,0.033l0.048-0.029l0.035,0.014l0.069,0.017l0.084-0.008l0.081-0.029l0.06-0.041l0.035,0.038l0.004,0.039
	l-0.024,0.038l-0.015,0.104l0.185,0.139l0.102,0.12l0.103,0.079l-0.015,0.068l-0.038,0.067l-0.047,0.059l-0.071,0.115l-0.077-0.007
	l-0.031,0.024l-0.017,0.034l-0.003,0.033l-0.009,0.032l-0.037,0.032l-0.079,0.023l-0.086,0.03l-0.05-0.038l-0.054-0.009
	l-0.024-0.045l-0.126,0.096l-0.126,0.076l-0.083-0.02l-0.079,0.002l-0.01,0.011l-0.091,0.021l-0.039,0.038l-0.073-0.02l-0.062-0.041
	l-0.021-0.048l-0.058,0.061l-0.038,0.029l-0.1,0.068l-0.104,0.034l-0.117-0.032l-0.113-0.009l-0.025-0.16l-0.006-0.117l-0.022-0.075
	l-0.018-0.073l-0.06-0.041l-0.162,0.264l-0.081,0.083l-0.067,0.161l-0.003,0.244l0.026,0.191l0.083,0.112l0.072,0.089l0.055,0.193
	l0.111,0.106l0.226,0.052l0.109,0.095l0.144-0.024l0.032-0.058l-0.092,0.023l-0.047-0.046l0.001-0.043l0.18,0.025l0.136,0.155
	l0.1,0.133l0.081,0.1l0.097,0.112l0.072,0.039l0.076,0.007l0.072,0.025l0.092,0.011l0.042-0.019l0.075-0.063l0.097,0.037
	l0.053,0.033l0.164,0.047l0.158,0.14l0.149,0.101l0.245-0.002l0.091,0.011l0.082-0.05l0.002-0.1l0.048-0.076l0.041,0.019l0.01,0.176
	l-0.111,0.613l0.018,0.322l0.06,0.291l0.216,0.36l-0.045,0.454l0.048,0.35l0.041,0.185l0.146,0.451l0.165,0.318l0.428,0.707
	l0.021,0.178l0.098,0.183l0.017,0.051l0.017,0.058l-0.06-0.016l-0.038-0.016l-0.098-0.03l-0.138-0.006l-0.097-0.062l0.089-0.135
	l0.029-0.021l0.023-0.032l-0.043-0.021l-0.02-0.005l-0.048-0.053l-0.041-0.056l-0.036-0.051l-0.102-0.096l-0.139-0.145l-0.049-0.064
	l-0.139-0.059v-0.063l0.093-0.029l0.073-0.001l0.001-0.032l-0.082-0.007l-0.083,0.023l0.003-0.096l-0.035-0.026l-0.021,0.12
	l-0.09-0.012l-0.055-0.002l-0.026,0.018l-0.085,0.116l-0.034,0.081l0.034,0.046l-0.012,0.086l-0.011,0.096l0.074,0.044l-0.008,0.056
	l0.084-0.005l0.085-0.012l0.043,0.063l-0.091,0.019l0.024,0.051l-0.014,0.072l0.014,0.073l0.033,0.074l0.049,0.044l-0.026,0.067
	l0.052,0.078l0.006,0.085l-0.004,0.044l-0.072,0.08l-0.02,0.032l-0.062,0.092l-0.015,0.077l-0.118,0.01l-0.195-0.035l-0.112,0.042
	l0.064,0.023l0.129,0.02l0.122,0.047l0.07,0.013l0.086,0l0.24-0.014l0.046-0.056l0.069-0.059l0.028-0.109l0.088-0.058l0.075-0.016
	l0.014,0.102l-0.029,0.137l-0.048,0.153l-0.032,0.097l-0.047,0.057l-0.072,0.023l-0.091-0.02l-0.08,0.002l-0.081-0.013l-0.066,0.018
	l-0.082,0.051l-0.055,0.064l0.011,0.062l-0.102,0.042l-0.104,0.028l-0.084,0.018l-0.075,0.012l-0.085-0.02l-0.085-0.022
	l-0.095-0.031l-0.086-0.016l-0.092-0.034l-0.123,0.017l-0.083,0.007l-0.008,0.057l0.154,0.023l0.105,0.009l-0.091,0.04l-0.063,0.019
	l-0.007,0.055l0.199-0.083l0.044,0.095l-0.092,0.037l0.01,0.036l0.109-0.019l0.032,0.07l-0.003,0.108l0.019,0.023l-0.002,0.078
	l0.154,0.143l0.094,0.066l0.074,0.02l0.029-0.001l0.046,0.009l0.024-0.001l0.021-0.014l-0.004-0.067l0.061,0.051l0.079-0.028
	l0.106,0.011l0.177,0.053l0.28,0.142l0.177,0.08l0.204-0.017l0.091,0.002l0.095-0.012l0.02-0.014l0.062-0.056l0.013-0.02
	l0.014-0.043l0.053-0.009l0.065,0.003l0.047-0.006l0.052-0.057l0.011-0.071l-0.034-0.17l0.004-0.084l0.039-0.073l0.049-0.067
	l0.04-0.068l0.12-0.331l0.037-0.216l0.032-0.051l-0.023-0.037l-0.011-0.055l0.005-0.056l0.02-0.044l0.048-0.038l0.045-0.019
	l0.041-0.021l0.034-0.047l0.008-0.054l-0.014-0.041l-0.006-0.035l0.039-0.043l0.047-0.016l0.171-0.003l-0.012,0.052l0.004,0.046
	l0.023,0.035l0.05,0.021l0.024-0.025l0.02-0.034l0.006-0.042l-0.015-0.048l0.066,0.047l0.034,0.015l0.04,0.012l0.04-0.041
	l0.069-0.042l0.08-0.029l0.072,0.001l0.037,0.031l0.079,0.125l0.026,0.057l0.009,0.067l-0.005,0.1l-0.023,0.083l-0.049,0.018
	l-0.03-0.052l-0.002-0.086l0.015-0.085l0.022-0.054l-0.028,0.014l-0.04,0.017l-0.021,0.014l0.022-0.058l-0.101-0.008l-0.051,0.051
	l-0.006,0.079l0.036,0.072l0.029-0.017l0.014-0.001l0.016,0.001l0.033-0.003l-0.063,0.152l0.065,0.052l0.048,0.114l0.001,0.094
	l-0.075-0.005l-0.103-0.039v0.067l0.061,0.11l0.077,0.089l0.005-0.075l0.052-0.007l0.063,0.035l0.078,0.111l0.056,0.047l0.021,0.057
	l-0.063,0.089l0.032,0.017l0.016,0.014l0.016,0.006l0.04-0.005l-0.031,0.119l0.002,0.04l0.058,0.008l0.044,0.011l0.031,0.02
	l0.066-0.051l0.013,0.045l-0.019,0.13l0.147,0.146l0.052,0.032l0.025,0.124l0.129,0.164l0.163,0.116l0.128-0.022l0.025-0.051
	l0.01-0.034l0.022-0.016l0.066,0.008l0.025,0.014l0.027,0.027l0.02,0.032l0.013,0.029l-0.013,0.044l-0.076,0.068l-0.008,0.034
	l0.027,0.019l0.108,0.042l0.04,0.038l0.032-0.007l-0.012-0.057l0.007-0.045l0.03-0.033l0.056-0.021l0.053-0.085l0.042-0.045
	l0.024,0.007l0.027,0.002l0.117-0.03h0.039l0.037,0.05l-0.016,0.05l-0.041,0.045l-0.044,0.035l0.065,0.039l0.054,0.046l0.027-0.006
	l-0.002-0.091l0.053-0.042l0.05,0.014l-0.015,0.074h0.084l0.032,0.022l0.049,0.127l0.015,0.015l0.038,0.022l0.063,0.027l0.02,0.018
	l0.014,0.042l0.007,0.083l0.226,0.094l0.545,0.09l0.23,0.043l0.018,0.008l0.141,0.01l0.06,0.063l0.079,0.001l0.052,0.07l0.06-0.02
	l0.031-0.092l0.079,0.038l0.16,0.101l0.042,0.065l0.063,0.024l0.112,0.205l0.052,0.065l0.054,0.034l0.109,0.037l0.082-0.047
	l0.056-0.008l-0.004,0.071l0.062,0.035l-0.077,0.042l-0.088-0.051l-0.055,0.034l0.036,0.385l0.006,0.124l-0.095,0.613l-0.009,0.187
	l-0.076,0.16l-0.028,0.053l-0.043,0.05l-0.062,0.015l-0.054-0.011l-0.071,0.063l-0.021,0.028l-0.004,0.023l-0.033,0.051
	l-0.002,0.067l-0.051,0.068l-0.112-0.038l-0.046-0.136l-0.031-0.086l-0.047,0.054l-0.102,0.226l-0.02,0.083l-0.049,0.047
	l0.021,0.068l-0.055,0.131l0.02,0.123l-0.07,0.027l-0.046,0.143l-0.088,0.111l-0.151,0.115l-0.051,0.147l0.028,0.068l0.045,0.129
	l0.03,0.02h-0.046l-0.033-0.013l-0.015,0.039l-0.025-0.021l-0.012-0.058l-0.054,0.017l-0.048,0.043l-0.063-0.047l-0.067-0.051
	l-0.014,0.027l0.012,0.068l-0.081,0.023l-0.076-0.048l-0.022-0.081l-0.034-0.052l-0.068-0.086l-0.073-0.018l-0.067,0.009
	l-0.031,0.045l-0.027,0.085l-0.018,0.092l0.005,0.065l-0.167-0.046l-0.009-0.009l-0.019-0.027l-0.014-0.011l-0.021-0.002
	l-0.041,0.008l-0.059,0.044l-0.025-0.098l-0.018-0.148l-0.064,0.001l-0.063,0.054l-0.082,0.073l0.018,0.063l-0.176,0.091
	l-0.053,0.074l-0.058,0.119l-0.009,0.127l-0.09-0.021l-0.169-0.099l-0.187-0.374l-0.188-0.149l-0.11-0.075l-0.169-0.117
	l-0.197-0.093l-0.089-0.057l-0.105,0.016l-0.048,0.015l-0.035-0.063l-0.048-0.022l-0.042-0.027l-0.081-0.007l-0.098,0.018
	l-0.132,0.026l-0.103,0.056l-0.105,0.037l-0.154-0.003l0.038,0.053l0.033,0.058l-0.021,0.076l-0.068,0.102l0.024,0.089l0.029,0.114
	l0.113-0.025l0.04,0.125l-0.107,0.018l0.07,0.123l0.161-0.122l0.004,0.123l-0.093,0.046l0.024,0.067l0.107-0.015l0.104,0.266
	l0.079,0.109l0.037,0.125l-0.053,0.126l0.032,0.142l0.003,0.074l-0.087,0.111l-0.023,0.12l-0.048,0.086l-0.09,0.237l-0.018,0.132
	l-0.088,0.168l-0.028,0.077l-0.008,0.19l0.138,0.481l-0.001,0.027l-0.011,0.024l-0.004,0.021l0.02,0.021l0.018,0.016l0.02,0.021
	l0.018,0.022l0.007,0.022l0.005,0.051l-0.008,0.041l-0.032,0.027l-0.064,0.01l0.014,0.024l0.02,0.021l0.025,0.015h0.031l0.037-0.002
	l0.007,0.01l-0.003,0.019l0.015,0.019l0.147,0.071l0.028,0.028l0.007,0.053l-0.016,0.045l-0.02,0.037l-0.003,0.034l0.025,0.045
	l0.046,0.033l0.054,0.01l0.047-0.017l0.024,0.103l-0.012,0.2l0.007,0.111l-0.025,0.111l0.011,0.045l0.065-0.045l0.011-0.041
	l0.005-0.205l0.015,0.028l0.024,0.071l0.016,0.024l0.119,0.056l0.021,0.012l0.016,0.028l0.053,0.053l0.027,0.064l0.018,0.027
	l0.051,0.049l0.016-0.03l0.001-0.032l-0.013-0.034l-0.028-0.033l0.108,0.025l0.099,0.096l0.075,0.123l0.039,0.107l-0.009,0.058
	l-0.067,0.099l-0.005,0.074l0.024,0.13l0.022,0.054l0.076,0.084l0.037,0.06l0.049,0.036l0.071-0.031l0.018-0.056l-0.052-0.047
	l-0.127-0.08l-0.036-0.059l-0.024-0.068l0.004-0.065l0.045-0.05l0.078-0.013l0.06,0.036l0.051,0.052l0.051,0.038l0.014-0.012
	l0.009-0.005l0.034-0.021l-0.017,0.116l0.109,0.044l0.153,0.019l0.112,0.047l0.003,0.302l0.028,0.14l0.106-0.038l-0.001,0.125
	l-0.082,0.07l-0.101,0.066l-0.06,0.11l0.02,0.023l-0.017,0.028l-0.038,0.026l-0.048,0.019l0.038,0.02l-0.015,0.068l0.037,0.051
	l0.052,0.05l0.061,0.101l0.116,0.151l0.036,0.032l0.032,0.005l0.029,0.021l0.021,0.027l0.025,0.067l0.021,0.024l0.024,0.015
	l0.02,0.021l0.136,0.216l-0.195-0.116l-0.103-0.032l-0.024,0.088l0.019,0.039l0.071,0.071l0.028,0.041l0.015,0.1l0.031,0.038
	l0.075,0.002l0.022-0.033l0.099,0.02l0.385,0.205l0.062,0.049l0.072,0.103l0.023,0.049l0.005,0.046l-0.037,0.026l-0.037-0.013
	l-0.023-0.044l-0.02-0.05l-0.023-0.033l-0.083-0.021l-0.043,0.049l-0.01,0.085l0.02,0.092l-0.032,0.006l-0.066-0.059l-0.075,0.055
	l-0.014,0.077l0.234,0.025l0.069,0.05l0.053,0.062l0.063,0.038l0.045-0.085l0.085-0.043l0.088,0.006l0.05,0.058l-0.006,0.029
	l-0.033,0.055l-0.006,0.02l0.015,0.019l0.048,0.036l0.04,0.065l0.101,0.069l0.026,0.032l-0.02,0.069l-0.074,0.037l-0.179,0.027
	v-0.018l-0.05-0.032l-0.093-0.044l-0.037-0.035l0.04-0.023l0.069-0.009l0.058,0.003l-0.031-0.071l-0.155-0.026l-0.031-0.077
	l-0.033,0.006l-0.039,0.07l-0.025,0.076l-0.001,0.043l0.009,0.037l0.003,0.037l-0.016,0.043l0.043,0.047l0.133-0.052l0.101,0.085
	l0.066,0.146l0.109,0.394l0.063,0.101l0.097,0.099l-0.095,0.083l0.047,0.062l0.097,0.056l0.063,0.07l0.022,0.058l0.03-0.012
	l0.037-0.042l0.044-0.028l0.037,0.02l0.022,0.053l0.021,0.113l0.045,0.083l0.146,0.155l0.024,0.107l-0.015,0.022l-0.027,0.021
	l-0.027,0.016l-0.012,0.01l0.014,0.034l0.022,0.014l0.023,0.008l0.017,0.01l0.071,0.092l0.006,0.044l-0.047,0.046l-0.071-0.045
	l-0.05,0.044l-0.049,0.076l-0.104,0.067l-0.049,0.063l-0.017,0.017l-0.058,0.011l-0.038-0.007l-0.036-0.001l-0.049,0.03
	l-0.011-0.024l-0.028-0.043l-0.009-0.029l-0.043,0.027l-0.027,0.038l-0.028,0.085l0.046,0.052l0.033,0.069l0.012,0.076l-0.057,0.15
	l0.024,0.081l0.099,0.127l0.119,0.109l0.443,0.269l0.056-0.045l0.088-0.041l0.062-0.02l0.1-0.031l0.11-0.001l0.054,0.034
	l0.043,0.046l0.077,0.032l0.195-0.023l0.167-0.076l0.154-0.036l0.16,0.095l0.055,0.084l0.02,0.053l0.04,0.02l0.111-0.012
	l0.078-0.034l0.153-0.109l0.067-0.019l0.058,0.034l0.121,0.151l0.116,0.095l0.057,0.068l0.013,0.055l-0.076,0.001l-0.074-0.069
	l-0.023-0.009l-0.071-0.017l-0.037-0.001l0.039-0.041l-0.002-0.045l-0.035-0.032l-0.067-0.005l-0.076,0.028l-0.036,0.044
	l-0.021,0.051l-0.026,0.05l-0.028,0.074l-0.04,0.251l-0.002,0.087l-0.017,0.026l-0.114,0.115l-0.021,0.046l-0.024,0.112l-0.015,0.04
	l-0.063,0.099l-0.031,0.078l0.027,0.067l0.116,0.063l-0.009-0.055l0.026-0.004l0.028,0.132l-0.018,0.048l-0.07,0.02l-0.107-0.097
	l-0.072-0.051l-0.028,0.009l-0.004,0.036l-0.031,0.06l-0.044,0.233l0.075,0.134l-0.004,0.058l0.038,0.042l0.068,0.109l0.018,0.041
	l0.018,0.103l-0.013,0.02l-0.024,0.017l-0.003,0.02l0.052,0.022l0.045-0.042l0.054-0.022l0.05,0.008l0.035,0.049l0.008,0.025
	l-0.003,0.017l-0.014,0.01l-0.028,0.006l-0.035,0.018v0.024l0.018,0.016l0.012-0.002l-0.021,0.126l-0.013,0.036l-0.058,0.077
	l-0.013,0.041l0.034,0.048l0.031-0.024l0.021-0.005l0.037,0.015l-0.001,0.01l0.039,0.031h0.027l0.018,0.01l0.017-0.002l0.018,0.005
	l0.02,0.03l-0.001,0.025l-0.021,0.028l-0.029,0.022l-0.025,0.017l0.046,0.012l0.032,0.018l0.012,0.025l-0.014,0.037l-0.064-0.023
	l-0.08,0.003l-0.067,0.027l-0.023,0.045l0.033,0.021l0.209,0.07l0.134,0.067l0.046,0.033l0.146,0.167l0.018,0.051l-0.054,0.041
	l0.02,0.025l0.013,0.032l-0.004,0.031l-0.027,0.017l-0.038,0.015l0.001,0.019l0.02,0.021l0.015,0.024l0.012,0.005l0.024,0.019
	l0.026,0.024l0.015,0.031l-0.012,0.022l-0.034,0.015l-0.041,0.047l-0.052,0.004l-0.038-0.015l-0.021,0.006l-0.003,0.034
	l-0.073,0.141l-0.12,0.1l-0.013,0.121l-0.026,0.146l0.159,0.057l0.217,0.139l0.136,0.118l0.104,0.005l0.044,0.033l-0.035,0.07
	l-0.033,0.025l-0.015,0.058l-0.056,0.006l-0.009-0.072l-0.11-0.022l-0.049,0.016l-0.067-0.01l-0.053-0.006l-0.046,0.025
	l-0.029,0.033l-0.109-0.01l-0.049,0.042l0.006,0.097l-0.043,0.026l-0.058,0.025l-0.04,0.032l-0.047,0.013l-0.079-0.032l-0.051-0.042
	l-0.037-0.043l-0.046-0.038l-0.077-0.024h-0.059l-0.037,0.019l-0.029,0.021l-0.107,0.038l-0.079,0.066l-0.048,0.02l-0.016,0.01
	l-0.035,0.064l-0.038,0.024l-0.034-0.008l-0.035-0.021l-0.033-0.01l-0.137,0.009l-0.055-0.003l-0.057-0.018l0.013-0.045
	l-0.001-0.062l-0.018-0.052l-0.038-0.019l-0.016-0.022l-0.059-0.149l-0.038-0.053l-0.039-0.078l-0.042,0.067l0.011,0.054
	l-0.009,0.148l-0.009,0.04l0.041,0.018l0.012,0.007l-0.008,0.048l-0.054-0.011l-0.055-0.023l-0.044-0.035l-0.062-0.058l0.009-0.053
	l0.033-0.056l0.05-0.002l0.014-0.035l-0.003-0.048l-0.017-0.054l-0.024-0.048l-0.031-0.034l-0.025-0.047l0.035-0.101l0.006-0.063
	l-0.018-0.067l0.141-0.05l0.033-0.054l-0.005-0.072l-0.052-0.016l-0.073-0.037l-0.062,0.081l-0.028,0.016l-0.057,0.006l0.009-0.083
	l-0.027-0.051l-0.036-0.099l-0.027-0.064l0.033-0.051l0.079-0.078l0.002,0.057l-0.033,0.065l-0.003,0.038l0.021,0.042l0.046,0.021
	l0.055,0.014l0.06,0.007l0.065-0.001l-0.018-0.023l-0.042-0.042l-0.014-0.025l-0.037-0.179l-0.063-0.138l-0.108-0.026l-0.017-0.114
	l-0.066-0.177l-0.13,0.026l-0.06-0.04l-0.127-0.093l-0.044-0.014l-0.082,0.041l-0.023-0.022l-0.031-0.075l-0.13-0.124l-0.069-0.048
	l-0.08-0.042l-0.049-0.008l-0.102,0.01l-0.024-0.024l-0.009-0.077l0.002-0.042l-0.039,0.014l-0.071,0.012l-0.079,0.003l-0.034-0.063
	l0.016-0.058l0.009-0.105l-0.05-0.046l-0.037-0.004l-0.021-0.022l-0.007-0.12l-0.037-0.125l-0.074-0.156l-0.074-0.112l-0.042-0.062
	l-0.052-0.059h-0.104l-0.04-0.007l-0.063-0.016l-0.031-0.081l-0.036-0.013l-0.091-0.07l-0.131-0.105l-0.132-0.131l-0.142-0.066
	l-0.056-0.042l0.007-0.075l-0.063-0.015l-0.098,0.007l-0.188-0.15l-0.081-0.065l-0.094-0.083l-0.202-0.188l-0.106-0.059
	l-0.046-0.124l-0.051-0.078l-0.077-0.075l-0.137-0.013l-0.104-0.099l-0.075-0.074l-0.049-0.026l-0.047,0.019l-0.076-0.046
	l-0.067-0.01l-0.206-0.19l-0.104-0.089l-0.077-0.116l-0.058,0.002l-0.033-0.064l-0.064-0.085l-0.079-0.16l-0.057-0.057l-0.089-0.033
	l-0.081-0.031l-0.118-0.009l-0.076,0.004l-0.059,0.012l-0.06,0.022l-0.021,0.07l-0.042,0.094l-0.046,0.037l-0.051-0.035
	l-0.021-0.075l-0.045-0.092l-0.013-0.072l-0.02-0.123l-0.023-0.051l-0.024-0.018l-0.025,0.043l-0.019,0.076l-0.017-0.038
	l-0.03-0.058l-0.032-0.08l-0.082-0.098l-0.07-0.113l-0.039-0.097l-0.049-0.211l-0.039-0.085l-0.01-0.087l-0.112,0.007l-0.023-0.066
	l0.001-0.087l-0.036-0.067l-0.074-0.021l-0.061-0.025l-0.036-0.042l0.01-0.066l-0.061-0.027l-0.062,0.011l0.008-0.055l0.045-0.064
	l0.051-0.093l0.022-0.062l-0.063-0.116l-0.016-0.064l-0.057-0.056l0.017-0.025l0.049,0.019l0.013-0.021l-0.003-0.043l-0.021-0.022
	l-0.044-0.069l-0.023-0.074l-0.02-0.081l0.027-0.072l0.038,0.043l0.023,0.049l0.029,0.042l0.03,0.059l0.068,0.035l0.012,0.009
	l0.054-0.008l0.049-0.034l0.057-0.027l0.05-0.125l0.041-0.143l0.001-0.121l0.005-0.077l-0.005-0.074l-0.022-0.063l-0.169-0.06
	l-0.12-0.175l-0.077-0.112l-0.087-0.193l0.018-0.206l0.012-0.383l-0.18-0.663l-0.169-0.341l0.059-0.114l-0.175-0.503l-0.092-0.23
	l-0.049-0.084l-0.063-0.063l-0.103-0.028l-0.07-0.175l-0.009-0.035l-0.014-0.034l-0.08-0.042l-0.07-0.13l-0.112-0.181l-0.096-0.104
	l-0.109-0.128l0.017-0.211l-0.063-0.21l-0.03-0.165l-0.069-0.279l-0.02-0.118l0.003-0.06l0.008-0.083l0.044-0.042l-0.072-0.066
	l-0.009-0.067l0.048-0.025l-0.024-0.045l0.008-0.072l0.006-0.045l-0.077-0.063l-0.018-0.021l-0.022-0.035l-0.052,0.027l-0.093-0.092
	l-0.023-0.084l-0.022-0.066l-0.051-0.05l-0.139-0.131l-0.056,0.019l-0.096-0.176l-0.075-0.178l-0.034-0.096l-0.053-0.055
	l0.046-0.103l0.071-0.059l0.025-0.064l0.075-0.078l0.092-0.064l0.076-0.024l0.064,0.012l-0.031,0.085l0.067,0.066l0.104,0.026
	l0.06,0.003l0.044,0.027l0.142,0.08l0.11,0.042l0.089-0.02l0.018-0.034l-0.016-0.039l-0.079,0.012l-0.049-0.043l-0.085-0.035
	l-0.041-0.042l0.086-0.039l0.01-0.049l0.015-0.024l0.029,0.028l0.01,0.038l0.006,0.046l0.072-0.011l0.078-0.263l-0.034-0.05
	l-0.033-0.024l0.063-0.058l0.064,0.01l0.043,0.009l0.092,0.019l0.037-0.001l0.047-0.032l-0.042-0.035l-0.08-0.02l-0.08-0.033
	l-0.011-0.068l0.024-0.101l-0.031-0.023l-0.11,0.023l0.047,0.103l-0.021,0.097l-0.11,0.073l-0.092-0.073l-0.025-0.043l-0.025-0.109
	l-0.025-0.046l-0.043-0.03l-0.053-0.027l-0.051-0.004l-0.074-0.077l0.076,0.003l0.071,0.007l0.013-0.072l0.02-0.054l0.072,0.001
	l0.042-0.017l0.03,0.001l0.021-0.006l0.002-0.037l-0.021-0.023l-0.038-0.02l-0.081-0.021l0.081-0.018l0.082-0.003l0.059-0.022
	l0.01-0.075l-0.019-0.109l-0.011-0.033l-0.021-0.033l-0.057-0.065l-0.06-0.021l-0.084-0.06l-0.064-0.08l0.021-0.087l0.024,0.014
	l0.054,0.079h0.131l0.041,0.04l0.01-0.092l-0.092-0.183l-0.018-0.106l-0.047-0.043l-0.073-0.025l-0.089,0.02l0.072,0.092
	l-0.071,0.064l-0.011,0.069l-0.083-0.039l-0.063-0.113l0.021-0.042l0.061-0.045l-0.02-0.08l0.068-0.081l0.007-0.067l-0.052-0.082
	l-0.01,0.045l-0.027,0.035l-0.086,0.076l-0.034-0.002l-0.019-0.041l0.027-0.047l-0.03-0.049l-0.036-0.05l-0.03,0.02l-0.018,0.032
	l-0.028,0.033l-0.058,0.026l-0.016,0.019l-0.049,0.067l-0.053,0.029l-0.015-0.042l0.034-0.077l0.029-0.057l0.021-0.061l-0.057-0.122
	l0.034-0.039l0.023-0.043l-0.062-0.065l-0.056-0.033l-0.003-0.078l-0.028-0.032l-0.06,0.008l-0.037,0.081l-0.1-0.016l-0.066,0.009
	l-0.05,0.029l0.021,0.048l-0.122,0.029l-0.072-0.084l-0.144-0.119l0.073-0.071l0.039,0.001l0.063-0.044l0.076-0.048l0.059,0.006
	l0.007,0.038l0.052,0.008l0.034-0.072l0.048-0.027l-0.032-0.079l-0.08-0.004l-0.027-0.02l-0.029-0.003l-0.062,0.017l-0.057-0.026
	l-0.042,0.009l-0.082,0.017l-0.079-0.01l-0.069,0.018l-0.079,0.062l-0.063,0.06l-0.054,0.036l-0.043,0.096l-0.113,0.168
	l-0.048,0.085l-0.126,0.021l-0.101,0.025l-0.087,0.112l-0.048,0.064l-0.124,0.004l-0.071-0.079l-0.065-0.036l-0.162-0.034
	l-0.114-0.026l-0.143-0.018l-0.264-0.134l-0.117-0.032l-0.076-0.033l-0.121-0.031l-0.084,0.079l-0.034-0.01l-0.021-0.077
	l-0.006-0.068l-0.081-0.116l-0.325-0.249l-0.127-0.049l-0.121-0.161l-0.142-0.108l-0.223-0.138l-1.196-0.551l-0.345-0.116
	l-0.68-0.122h-0.089l-0.105,0.026l-0.02,0.033l-0.021,0.035l-0.045,0.004l-0.083-0.015l-0.132,0.004l-0.079,0.048l-0.044,0.079
	l-0.142,0.075l-0.023,0.048l-0.093,0.029l-0.23,0.021l-0.063,0.037l-0.024,0.055l0.02,0.035l0.051-0.003l0.012,0.074l-0.049,0.036
	l-0.118,0.01l-0.11-0.004l-0.078-0.014l-0.071-0.043l-0.044,0.04l-0.063-0.043l-0.093-0.031l-0.076-0.01l-0.047,0.045l-0.121,0.039
	l-0.168-0.069l-0.101-0.111l-0.163-0.19l-0.071-0.134l0.023-0.094l-0.031-0.114l-0.312-0.357l-0.045-0.094l-0.104-0.053
	l-0.086-0.067l-0.288-0.486l-0.065-0.141l0.024-0.183l0.039-0.048l0.093,0.006l0.051-0.019l0.024-0.06l0.063-0.003l0.038,0.01
	l0.052,0.089l0.012,0.065l0.005,0.08l0.045,0.064l0.047,0.046l0.074,0.011l0.158-0.003l0.09-0.066l-0.007-0.072l0.07-0.008
	l0.063-0.003l0.055,0.014l0.076,0.052l0.049,0.019l0.014,0.079l0.004,0.17l0.127,0.192l0.111,0.036l0.121,0.056l0.088-0.019
	l0.051,0.053l0.044,0.073l0.063,0.009l0.04,0.041l-0.022,0.138l-0.031,0.085l-0.03,0.063l-0.058-0.028l-0.033-0.006l0.01,0.033
	l0.051,0.024l0.023,0.039l0.04,0.006l0.075,0.021l0.132,0.063l0.14,0.016l0.01-0.063l0.097-0.014l0.037,0.014l0.014,0.071
	l0.097-0.02l0.061,0.013l0.021-0.058l-0.03-0.066l-0.06-0.068l-0.005-0.074l0.099-0.14l0.007-0.067l-0.059-0.08l-0.194-0.035
	l-0.046-0.045l0.011-0.036l0.079-0.045l0.257-0.039l0.243-0.079l0.147,0.071l0.112-0.017l0.223,0.095l0.141-0.103l0.069-0.203
	l0.07-0.125l0.017-0.191l0.047-0.125l-0.023-0.153l-0.069-0.158l-0.015-0.223l-0.055-0.124l-0.103-0.043l-0.108-0.106l-0.13-0.014
	l-0.092-0.031h-0.078l-0.074-0.008l-0.082,0.042l-0.124-0.023l-0.068-0.064l-0.145-0.17l-0.141-0.312l-0.165-0.342l-0.302-0.418
	l-0.199-0.306l-0.331-0.326l-0.134-0.181l-0.107-0.066l-0.114-0.055l-0.02-0.261l-0.072-0.15l-0.1-0.126l-0.285-0.248l-0.509-0.32
	l-0.354-0.361l-0.137-0.074l-0.162-0.035l-0.212-0.048l-0.244-0.086l-0.234-0.173l-0.17-0.07l-0.186-0.028l-0.604-0.021
	l-0.179-0.025l-0.166-0.079l-0.279-0.217l-0.441-0.401l-0.048-0.02l-0.021-0.087l-0.059-0.149l-0.22-0.274l-0.081-0.071l-0.236-0.2
	l-0.502-0.28l-0.104-0.041l-0.088-0.006l-0.945,0.129l-0.179,0.005l-0.205-0.025l-0.276-0.075l-0.49-0.07l-0.204-0.021l-0.175-0.064
	l-0.378-0.254l-0.179-0.076l-0.197-0.052l-0.595-0.006l-0.45-0.046l-0.143-0.001l-0.169,0.019l-0.079-0.004l-0.093-0.02l-0.09,0.008
	l-0.185,0.042l-0.147,0.018l-0.182-0.004l-0.125-0.025l-0.084-0.102l-0.16-0.083l-0.384,0.005l-0.462,0.013l-0.876,0.194
	l-0.131,0.035l-0.166,0.125l-0.106,0.028l-0.129,0.08l-0.094,0.116l-0.091,0.173l-0.036,0.187l0.069,0.152l0.062,0.036l0.06,0.021
	l0.053,0.03l0.034,0.062l0.067,0.237l-0.029,0.04l-0.101,0.08l-0.04,0.041l-0.074,0.104l-0.088,0.042l-0.048-0.047l-0.02,0.077
	l-0.12,0.045l-0.079,0.009l0.06-0.182l0.031-0.231l-0.016-0.08l-0.149-0.135l-0.187-0.096l-0.558-0.138l-0.213-0.003l-0.092,0.043
	l-0.154-0.014l-0.066-0.014l-0.445,0.085l-0.104,0.011l-0.044,0.061l-0.028,0.059l-0.083,0.159l-0.049,0.081l-0.066,0.031
	l-0.197,0.041l-0.191,0.06l-0.104,0.031l-0.032,0.054l-0.071,0.029l-0.055,0.066l0.053,0.137l-0.011,0.078l-0.086,0.009
	l-0.095-0.052l-0.098-0.051l-0.046-0.086l-0.116-0.018l-0.056-0.066l-0.083-0.019l-0.125-0.032l-0.121-0.012l-0.163-0.14
	l-0.015-0.086l0.047-0.113l0.01-0.051l-0.018-0.052l-0.041-0.059l-0.067-0.038l-0.157-0.125l0.014-0.086l-0.045-0.071l-0.073-0.047
	l-0.088-0.025l-0.302-0.018l-0.293,0.031l-0.089-0.003l-0.106,0.034l-0.099,0.011l-0.127,0.024l-0.004-0.011l0.083-0.085l0.022-0.04
	l0.011-0.052l0.023-0.034l-0.023-0.043l-0.102,0.053l-0.035,0.034l-0.036-0.019l-0.016-0.028v-0.042l-0.007-0.042l-0.035,0.022
	l-0.016,0.026l0.025,0.07l0.01,0.039l0.018,0.063l-0.018,0.029l-0.022,0.021l0.027,0.019l0.026,0.02l-0.016,0.015l-0.11,0.036
	l-0.055,0.018l-0.105,0.113l-0.015,0.075l0.009,0.063l0.008,0.063l-0.045,0.021l-0.034-0.032l-0.032-0.088l-0.007-0.085
	l-0.077-0.042l-0.108-0.005l-0.09,0.011l-0.041,0.029l-0.048,0.006l-0.116,0.022l-0.051-0.019l-0.053,0.026l-0.035-0.006
	l0.035-0.075l0.022-0.083l0.004-0.049l0.052-0.083l0.091-0.127l0.036-0.112l-0.021-0.077l-0.093-0.08l-0.114-0.022l-0.053-0.077
	l-0.022-0.169l0.075-0.171l0.092-0.063l0.126-0.013l0.133-0.028l0.049,0.001l0.056-0.018l0.089-0.046l0.131-0.054l0.135-0.088
	l0.484-0.207l0.158-0.16l0.028-0.201l-0.067-0.164l-0.157-0.079l-0.101-0.056l-0.16-0.028l-0.025,0.027l-0.049,0.025l-0.036-0.005
	l-0.021-0.009l-0.002,0.032l0.02,0.03l-0.005,0.027l-0.018,0.031l-0.023-0.028l-0.018-0.042l-0.033,0.017l-0.032,0.003l-0.038-0.028
	l-0.024,0.017l-0.026-0.007l-0.096-0.013l-0.02-0.019l-0.007-0.054l0.046-0.057l-0.02-0.091l0.006-0.04l0.048-0.048l0.027-0.042
	l0.028-0.066l0.026-0.009l0.012,0.005l0.001,0.001l0.026,0.003l0.04-0.005l0.005-0.02l-0.007-0.042v-0.078l0.023-0.101l0.003-0.048
	l-0.02-0.038l0.015-0.042l0.042-0.035l0.051-0.053l0.011-0.039l0.021-0.078l-0.018-0.054l-0.05-0.068l-0.073-0.044l-0.113-0.053
	l-0.387-0.051h-0.139l-0.306,0.066l-0.075-0.002l-0.038,0.017l-0.06-0.006l-0.046-0.03l-0.056-0.019l-0.09,0.003l-0.126,0.064
	l-0.101,0.085l-0.099,0.108l-0.087,0.141l-0.031,0.097l0.018,0.082l0.075,0.012l0.046,0.013l0.049,0.021l0.017-0.007l-0.002-0.024
	l-0.038-0.012l-0.034-0.015l-0.012-0.009l0.016-0.002h0.024l0.065,0.021l0.135,0.092l0.037,0.063l0.087,0.063l0.076,0.034
	l0.014,0.089l-0.014,0.115l0.025,0.045l0.002,0.057l0.045,0.043l0.092,0.04l0.041,0.139l0.063,0.048l0.004,0.06l0.024,0.042
	l0.118,0.1l0.094,0.027l0.017,0.06l-0.038,0.136l-0.178,0.051l-0.051,0.013l-0.062-0.032l-0.134,0.012l-0.072,0.037l-0.132-0.012
	l-0.116,0.008l-0.086,0.008l-0.037,0.011l-0.049-0.033l-0.132,0.003l-0.105,0.015l-0.148,0.004l-0.072-0.043l-0.198-0.063
	l-0.055-0.039l-0.025-0.005l-0.096,0.004l-0.053,0.02l-0.044,0.037l-0.021-0.01l-0.051,0.001l-0.044-0.014l0.046-0.064l0.025-0.099
	l0.043-0.064l0.036-0.064l0.013-0.062l0.008-0.041l-0.006-0.068l-0.035-0.161l0.03-0.174l0.1-0.165l0.055-0.08l0.029-0.088
	l0.031-0.025l0.034-0.053l0.044-0.17L1259.184,184.133z M1257.814,191.34l0.16,0.103l-0.004,0.039l-0.025,0.045l-0.043,0.034
	l-0.054,0.003l-0.034,0.028l-0.037,0.019l-0.092,0.023l-0.035,0.019l-0.046,0.048l-0.043,0.02l-0.087,0.009l-0.095-0.011
	l-0.083-0.027l-0.053-0.044l-0.016-0.039l-0.044-0.07l-0.017-0.04l-0.027-0.037l-0.097-0.084l-0.023-0.033l0.036-0.069l0.102,0.013
	l0.2,0.073l0.125-0.007l0.11-0.026l0.106-0.013L1257.814,191.34z M1244.536,172.801l0.04,0.042l-0.007,0.043l-0.076,0.011
	l-0.058-0.025l-0.088-0.094l-0.051-0.036l-0.049,0.536l-0.054-0.321l0.003-0.099l0.034-0.144l0.03-0.074l0.041-0.023l0.041,0.037
	l0.085,0.125l0.044,0.017L1244.536,172.801z M1243.729,176.412l0.01,0.021v0.003L1243.729,176.412z M1243.402,178.391l0.086,0.11
	l0.025,0.163v0.321l-0.037-0.003l-0.025-0.063l-0.015-0.086v-0.085l0.021-0.063l0.007-0.062l-0.056-0.16L1243.402,178.391z
	 M1242.295,188.975l0.026,0.056l0.003,0.058l-0.049,0.211l-0.058,0.133l-0.084,0.094l-0.105-0.022l-0.022,0.023l-0.04,0.031
	l-0.015,0.017l-0.175-0.081l-0.034-0.037l-0.047-0.071v-0.12l0.033-0.131l0.059-0.108l0.117-0.158l0.057-0.047l0.055,0.01
	l0.057,0.028l0.068,0.004l0.026,0.013L1242.295,188.975z M1241.045,190.29l-0.013-0.045l-0.046-0.043l-0.038-0.053l0.017-0.065
	l0.077-0.038l0.482-0.083l0.143-0.005l0.143,0.01l-0.055,0.041l-0.024,0.003l-0.045-0.008l-0.133,0.129l-0.089,0.068l-0.09,0.042
	l-0.226,0.039l-0.046,0.03l-0.118,0.141l-0.027-0.019l-0.013-0.02v-0.021l0.015-0.02l0.018-0.014L1241.045,190.29z M1239.828,186.92
	l0.2-0.203l0.088-0.174l0.11-0.354l0.075-0.165l0.903-1.46l0.432-0.413l0.071-0.083l0.036-0.143l0.217-0.248l0.489-0.882
	l0.019-0.128l0.169-0.211l0.069-0.254l0.172-0.342l0.12-0.366l-0.002-0.077l0.009-0.063l0.09-0.174l0.029-0.079l-0.016-0.162
	l0.011-0.046l0.114-0.101l0.021-0.01l0.073-0.127l0.013-0.038l0.114-0.603l0.01-0.87l0.03-0.009l0.067,0.293l0.053,0.041
	l0.023-0.025l0.052-0.11l0.022-0.029l0.155-0.102l-0.033-0.029l-0.019-0.009l0.03-0.067l0.014-0.054l-0.003-0.052l-0.175-0.513
	l0.001-0.032l-0.142-0.065l-0.066-0.045l-0.038-0.05l-0.13-0.426l0.012-0.136l0.027-0.081l0.015-0.004l0.025,0.042l0.058,0.053
	l0.075,0.029l0.248,0.003l0.008-0.13l-0.015-0.052l-0.043-0.042l-0.058-0.022l-0.082-0.017l-0.089-0.006l-0.074,0.009l-0.148-0.006
	l-0.07-0.086l0.026-0.088l0.138-0.015l0.119-0.088l0.046-0.054l0.003-0.062l0.023-0.04l0.129-0.106l0.021-0.043l0.006-0.036
	l0.053-0.186l0.004-0.065l-0.006-0.134l-0.099-0.518l-0.174-0.614l-0.095-0.157l-0.147-0.121l-0.569-0.271l-0.465-0.201
	l-0.067-0.022l-0.239-0.199l-0.227-0.112l-0.047-0.057l-0.068-0.043l-0.364-0.07l-0.176-0.097l-0.105-0.043h-0.103l-0.03-0.007
	l-0.032-0.026l-0.01-0.034l0.078-0.059l0.081-0.098l0.041-0.037l0.199-0.063l0.197,0.021l0.339,0.121l0.107,0.008l0.235-0.039
	l0.084,0.006l0.502,0.192l0.18,0.04l0.191,0.024l0.187,0.002l0.069-0.063l0.102-0.01l0.102,0.011h0.112l0.086,0.029l0.057-0.006
	l0.058-0.023l0.032-0.02l0.249-0.248l0.05-0.073l0.146-0.307l0.047-0.066l0.063-0.065l0.08-0.058l0.096-0.043l0.031-0.024
	l0.024-0.067l0.066-0.043l0.095-0.081l0.348-0.223l0.148-0.134l0.109-0.174l0.06-0.213l0.06,0.108l-0.098,0.285l0.016,0.112
	l0.049,0.021l0.055-0.009l0.038-0.038l-0.001-0.063l-0.01-0.068l0.008-0.071l0.022-0.031l0.042,0.053l0.047-0.086l0.01-0.122
	l-0.014-0.126l-0.086-0.313l0.008-0.097l0.037-0.115l-0.063,0.002l-0.023,0.042l-0.021,0.056l-0.055,0.038l-0.041-0.013l-0.16-0.098
	l-0.21-0.095l-0.048-0.035l-0.059-0.084l-0.042-0.039l-0.037-0.012l-0.037-0.001l-0.038-0.009l-0.044-0.035l-0.03-0.048
	l-0.054-0.172l-0.021-0.027l-0.061-0.03l-0.019-0.018l-0.005-0.026l0.005-0.019l0.007-0.016v-0.012l-0.011-0.046l-0.011-0.131
	l0.006-0.05l0.051,0.009l0.028,0.023l0.03,0.08l0.034,0.03l0.111,0.033l0.036,0.04l0.081,0.129l0.032,0.026l0.073,0.035l0.025,0.036
	l0.021,0.112l0.03,0.048l0.039,0.019l0.049,0.007l0.059,0.017l0.122,0.066l0.047,0.014l0.058,0.005l0.124-0.006l0.059,0.002
	l0.045,0.01l0.161,0.06l0.009-0.058l0.026,0.038l0.02,0.075l0.01,0.081l-0.021,0.111l0.031,0.057l0.074,0.102l0.141,0.362
	l0.068,0.067l0.1,0.055l0.072,0.084l0.143,0.263l0.039,0.049l0.053,0.034l0.072,0.001l0.076-0.039l0.001-0.051l-0.023-0.06
	l0.003-0.064l0.053,0.019l0.031,0.03l0.063,0.132l0.023,0.004l0.031-0.004l0.047,0.014l0.079,0.068l0.035,0.086l0.012,0.19
	l0.085-0.104l0.042-0.036l0.064-0.006l0.042,0.024l0.034,0.045l0.123,0.227l0.038,0.124v0.125l-0.05,0.123l-0.043,0.021l-0.06,0.009
	l-0.044,0.026l0.003,0.073l0.013,0.042l0.002,0.025l0.005,0.019l0.02,0.024l0.03,0.019l0.074,0.019l0.021,0.021l0.035,0.022
	l0.07,0.018l0.077,0.008l0.06-0.005l0.057-0.042l0.03-0.067l0.022-0.071l0.031-0.058l0.101,0.132l0.071,0.549l0.122,0.269
	l0.081,0.076l0.022,0.117l0.008,0.293l-0.013,0.038l-0.024,0.044l-0.034,0.029l-0.047,0.03l-0.035,0.039l-0.004,0.052l0.033,0.078
	l0.296,0.46l0.401,0.431l0.567,0.436l0.512,0.218l0.621,0.403l0.338,0.145l0.825,0.245l0.732,0.164l0.211,0.003l0.223-0.042
	l0.241-0.121l0.101-0.037l0.095-0.021l0.109-0.015l0.399-0.016l0.105,0.012l0.116,0.071l0.217-0.018l0.076,0.021l-0.001,0.062
	l-0.033,0.102l-0.046,0.097l-0.037,0.047l-0.07,0.062l-0.063,0.11l-0.049,0.115l-0.163,0.666v0.797l-0.166,0.88l0.007,0.336
	l-0.221,0.765l-0.136,0.27l-0.154,0.257l0.071,0.386l-0.084,0.342l-0.155,0.258l-0.012,0.068l0.005,0.081l-0.054,0.29l0.023,0.345
	l0.108,0.313l0.163,0.287l0.301,0.381l0.617,0.459l0.073,0.085l0.085,0.05l0.027,0.038l0.018,0.041l0.025,0.037l0.031,0.033
	l0.271,0.219l0.086,0.046l0.336,0.121l0.068,0.042l0.026,0.035l0.021,0.042l0.011,0.045l-0.006,0.049l-0.018,0.03l-0.033,0.043
	l-0.035,0.03l-0.022-0.01l-0.015-0.147l-0.021-0.027l-0.051,0.004l-0.018,0.051v0.106l-0.031,0.086l-0.023,0.04l-0.03,0.031
	l-0.169,0.088l-0.463,0.768l-0.017,0.185l0.022,0.083l0.107,0.219l0.037,0.262l0.033,0.085l0.112,0.133l0.16,0.11l0.188,0.085
	l0.382,0.105l0.203,0.026l0.208,0.001l0.211-0.031l0.192-0.09l0.084-0.137l0.078-0.411l0.053-0.138l0.196-0.335l0.008-0.074
	l-0.035-0.078l-0.085-0.122l-0.088-0.221l-0.04-0.063l-0.055-0.063l0.077-0.251l0.106-0.089l0.177-0.233l0.038-0.074l0.048-0.159
	l0.037-0.075l0.222-0.316l0.033-0.078l0.017-0.079l-0.003-0.085l-0.021-0.093l-0.006-0.089l0.023-0.098l0.157-0.338l0.066-0.085
	l0.049,0.024l0.073,0.16l0.054,0.07l0.059,0.051l0.275,0.156l0.093,0.118l0.006,0.177l-0.07,0.351v0.194l0.054,0.173l0.14,0.134
	l0.044,0.073l-0.054,0.052l-0.073-0.012l-0.059-0.044l-0.058-0.027l-0.073,0.044l-0.039,0.082l0.002,0.092l0.038,0.083l0.074,0.051
	l0.091,0.015l0.208,0.002l0.095,0.019l0.17,0.181l0.043,0.026l0.041,0.032l0.108,0.176l0.046,0.052l0.185,0.025l0.353-0.135
	l0.158-0.002l0.114,0.091l0.27,0.41l0.059,0.042l0.089,0.046l0.103,0.031l0.1-0.003l0.084,0.019l0.012,0.088l-0.026,0.189
	l0.013,0.039l0.044,0.053l0.016,0.032l-0.003,0.046l-0.039,0.108l-0.003,0.043l-0.021,0.059l-0.074,0.059l-0.171,0.1l-0.226,0.177
	l-0.092,0.04l-0.101,0.01l-0.162-0.03l-0.295,0.019l-0.337-0.106l-0.194,0.007l-0.023-0.01l-0.016-0.081l-0.014-0.027l-0.053-0.021
	l-0.044,0.001l-0.102,0.021l-0.025,0.009l-0.032,0.033l-0.027,0.008l-0.024-0.007l-0.027-0.02l-0.029-0.03l-0.056,0.007
	l-0.073,0.017l-0.032-0.006l-0.064,0.043l-0.079,0.042l-0.084,0.027l-0.074-0.004l-0.093,0.151l-0.256,0.262l-0.081,0.148
	l-0.045,0.392l-0.061,0.085l-0.018,0.009l-0.017,0.024l-0.112,0.103l-0.012,0.039l-0.006,0.119l-0.076,0.191l-0.038,0.051
	l-0.099,0.063l-0.169,0.083l-0.093,0.006l-0.104-0.018l-0.272-0.084l-0.109-0.011l-0.217,0.011l-0.202,0.054l-0.316,0.147
	l-0.183,0.008l-0.199-0.072l-0.104-0.124l-0.12-0.332l-0.044-0.077l-0.054-0.046l-0.223-0.097l-0.033-0.027l-0.024-0.033
	l-0.017-0.041l-0.027-0.024l-0.053-0.018l-0.202-0.041l-0.079-0.03l-0.036-0.053l0.035-0.095l0.103-0.114l0.039-0.067l-0.006-0.077
	l-0.079-0.059l-0.112,0.005l-0.104,0.021l-0.054-0.013l-0.056-0.054l-0.1-0.028l-0.211-0.037l-0.083-0.037l-0.3-0.175l-0.14-0.119
	l-0.093-0.043l-0.092,0.003l-0.055,0.055l-0.055,0.071l-0.095,0.055l-0.056,0.042l-0.18,0.23l-0.083,0.147l-0.062,0.16l-0.092,0.137
	l-0.172,0.079l-0.368-0.014l-0.05-0.171l-0.044-0.081l-0.066-0.052l-0.048-0.007l-0.05,0.003l-0.047-0.002l-0.034-0.022l-0.01-0.048
	l0.02-0.053l0.024-0.047l0.01-0.031l0.005-0.066l0.119-0.355l0.035-0.077l0.097-0.14l0.032-0.085l0.034-0.282l0.024-0.043
	l0.052-0.071l0.012-0.041l-0.002-0.051l-0.165-0.341l-0.185-0.234l-0.034-0.078l0.012-0.044l0.069,0.018l0.088,0.005l0.063-0.084
	v-0.041l-0.024-0.133l0.012-0.159l-0.011-0.09l0.02-0.085l-0.004-0.046l-0.024-0.063l-0.022-0.044l-0.08-0.079l-0.277-0.211
	l-0.316-0.165l-0.16-0.055l-0.2-0.041l-0.217-0.001l-0.207,0.061l-0.107,0.079l-0.218,0.274l-0.107,0.073l-0.093,0.017l-0.09-0.02
	l-0.104-0.035l-0.156,0.115l-0.032,0.042l-0.088,0.014l-0.172,0.136l-0.096,0.052l-0.091,0.002l-0.126-0.019l-0.19-0.046
	l-0.074-0.043l-0.076-0.064l-0.062-0.069l-0.068-0.141l-0.046-0.06l-0.06-0.052l-0.219-0.151l-0.158-0.071l-0.188-0.04l-0.229-0.002
	l-0.195,0.025l-0.191,0.044l-0.934,0.326l-0.175,0.012l-0.598-0.133l-0.833,0.077l-0.208,0.044l-0.546,0.207l-0.511,0.259
	l-0.279,0.2l-0.796,0.733l-0.18,0.095l-0.21,0.029l-0.04-0.011l-0.103-0.044l-0.053-0.015l-0.053-0.002l-0.047,0.005l-0.043,0.002
	l-0.146-0.038l-0.075,0.019l-0.13,0.079l-0.068,0.027l-0.079,0.015l-0.082-0.007l-0.082-0.042l0.016-0.047l0.03-0.032l0.046-0.024
	l0.06-0.019l0.038-0.032l-0.014-0.041l-0.057-0.069l-0.071-0.151l-0.101-0.152l-0.12-0.092l-0.025-0.032l-0.031-0.017l-0.057,0.009
	l-0.062,0.019l-0.048,0.008l-0.093-0.029l-0.1-0.066l-0.05-0.079l0.027-0.065l0.115-0.097l0.045-0.051l0.006-0.054L1239.828,186.92z
	"/></svg>