<?xml version="1.0" encoding="utf-8"?>
<!-- Generator: Adobe Illustrator 15.0.0, SVG Export Plug-In . SVG Version: 6.00 Build 0)  -->
<!DOCTYPE svg PUBLIC "-//W3C//DTD SVG 1.1//EN" "http://www.w3.org/Graphics/SVG/1.1/DTD/svg11.dtd">
<svg version="1.1" id="Ebene_1" xmlns="http://www.w3.org/2000/svg" xmlns:xlink="http://www.w3.org/1999/xlink" x="0px" y="0px"
	 width="1920px" height="1080px" viewBox="0 0 1920 1080" enable-background="new 0 0 1920 1080" xml:space="preserve">

<path fill="#F4E0B6" stroke="#FFFFFF" d="M1114.912,539.219l0.027,0.056l0.277,0.461l0.037,0.043l0.067,0.049l0.057,0.028
	l0.044,0.031l0.036,0.053l0.037,0.11l0.031,0.147l0.015,0.131l-0.015,0.069l-0.018,0.032l-0.05,0.2l-0.003,0.053l0.016,0.055
	l0.039,0.067l-0.07-0.03l-0.163,0.01l-0.039-0.005l-0.054-0.017l-0.084,0.014l-0.144,0.056l-0.053,0.05l-0.068,0.117l-0.042,0.043
	l-0.181,0.104l-0.051,0.042l-0.065,0.128l-0.01,0.149l0.009,0.041l0.097,0.494l0.001,0.086l-0.025,0.064l-0.154,0.166l-0.017,0.041
	l-0.015,0.019l-0.027,0.015l0.018,0.027l0.137,0.013l0.037,0.017l0.023,0.046l0.049,0.196l0.076,0.206l0.002,0.048l-0.008,0.039
	l-0.005,0.04l0.014,0.05l0.058,0.081l0.146,0.146l0.057,0.07l0.143,0.264l0.051,0.047l-0.029,0.077l0.037,0.062l0.071,0.067
	l0.077,0.09l0.11,0.181l0.037,0.074l0.009,0.031l-0.135,0.095l-0.162,0.064l-0.123,0.073l-0.024,0.022l-0.005,0.035l0.013,0.064
	l0.017,0.046l0.024,0.032l0.037,0.016l0.056-0.003l-0.064,0.058l-0.088,0.127l-0.055,0.051l-0.022,0.074l0.066,0.095l0.094,0.086
	l0.063,0.049l-0.059,0.006l-0.259,0.151l-0.052,0.097l0.012,0.099l0.037,0.105l0.026,0.112l-0.063,0.006l-0.005,0.052l0.035,0.055
	l0.056,0.015l0.006,0.032l0.01,0.022l0.048,0.05l-0.011-0.034l0.002-0.007h-0.002l-0.021-0.009l-0.027-0.089l0.143,0.039
	l0.033-0.009l0.015-0.054l-0.005-0.057l0.016-0.035l0.077,0.016v-0.055l0.026-0.01l0.035,0.008l0.029-0.001l0.032-0.036l0.016-0.034
	l0.021-0.028l0.045-0.011l0.01,0.02v0.006l-0.006,0.003l-0.005,0.011l0.056,0.055l0.056,0.029l0.048-0.017l0.038-0.087l0.026,0.033
	l0.027,0.009l0.026-0.011l0.025-0.025l0.018,0.027l-0.013,0.015l-0.029,0.048l0.043,0.023l0.019,0.001l0.027-0.01l-0.003,0.054
	l0.028,0.053l0.049,0.042l0.055,0.019l0.052-0.007l0.029-0.023l0.027-0.033l0.042-0.029l0.015,0.024l-0.003,0.03l0.012,0.02
	l0.025,0.013l0.036,0.006l-0.032,0.1l0.01,0.091l0.056,0.062l0.104,0.015l-0.007,0.017l0.001,0.005l0.003,0.018l0.141,0.004
	l0.03,0.014l0.029,0.02l0.055,0.018l0.057,0.01l0.043-0.002l0.002,0.018l0.01,0.033l0.002,0.016l0.111-0.003l0.037,0.013
	l0.111,0.072l0.207,0.003l0.041,0.026l0.044,0.02l0.046-0.012l0.014,0.049l0.035,0.026l0.045,0.013l0.041,0.004l0.014,0.02
	l-0.001,0.008l-0.007,0.005l-0.007,0.009l0.053,0.014l0.051,0.035l0.035,0.051l0.01,0.056l0.032,0.032l0,0l-0.114,0.039
	l-0.049,0.013l-0.126,0.101l-0.045,0.012l-0.095,0.01l-0.079,0.023l-0.026,0.016l-0.048,0.041l-0.013,0.003l-0.013,0.005
	l-0.01,0.009l-0.009,0.011l0.016,0.044l0.03,0.05l0.017,0.041h0.061l0.005,0.028l-0.025,0.035l-0.034,0.023l-0.047,0.011
	l-0.193,0.009l-0.104,0.061l-0.181,0.188l0.016,0.042l0.003,0.024l-0.016,0.01l-0.031-0.004l-0.004,0.044l-0.017,0.037l-0.046,0.058
	l0.009,0.007l0.012,0.001l0.012-0.001l0.01,0.001l-0.003,0.013l-0.013,0.02l-0.001,0.013l0.049-0.007l-0.033,0.048l-0.053-0.003
	l-0.123-0.055l-0.063-0.01l-0.274,0.01l-0.103-0.019l-0.105-0.035l-0.229-0.11l-0.121-0.031l-0.121,0.002l-0.111,0.038l-0.055,0.045
	l-0.019,0.049l-0.011,0.121l0.002,0.021l0.006,0.014l-0.008,0.013l-0.079,0.023l-0.063,0.035l-0.028,0.021l-0.064-0.009h-0.063
	l-0.061,0.016l-0.049,0.029l-0.004,0.001l-0.046,0.074l0.009,0.156l-0.031,0.069l-0.028,0.041l-0.001,0.053l0.004,0.06l-0.008,0.056
	l-0.02,0.021l-0.058,0.022l-0.021,0.031l-0.012,0.048l-0.025,0.016l-0.032,0.007l-0.029,0.02l-0.019,0.036l-0.017,0.049
	l-0.014,0.042l-0.016,0.025l-0.037,0.01l-0.077-0.014l-0.034,0.003l-0.028,0.03l-0.022,0.097l-0.016,0.038l-0.05,0.039l-0.288,0.113
	l-0.047,0.037l-0.025,0.059l-0.027,0.136l-0.012,0.028l-0.006,0.027l0.003,0.032l0.014,0.012h0.046l0.017,0.008l0.011,0.022
	l0.008,0.041l0.008,0.021l0.013,0.025l0.014,0.028l0.029,0.075l0.018,0.084l-0.007,0.074l-0.107,0.121l-0.295,0.159l-0.055,0.173
	l0.015,0.113l0.039,0.088l0.063,0.064l0.053,0.024l-0.102,0.074l-0.068,0.018l-0.055-0.01l-0.126-0.042h-0.03l-0.043,0.021
	l-0.025,0.097l-0.151,0.095l-0.063,0.066l-0.038,0.106l-0.016,0.021l-0.019,0.013l-0.015,0.017l-0.007,0.034l0.012,0.056l0.03,0.057
	l0.04,0.049l0.039,0.036l0.024,0.012l0.039,0.02l0.051-0.006l0.044-0.016l0.042-0.004l0.041,0.014l0.035,0.022l0.082,0.081
	l0.02,0.028l0.031,0.062l0.02,0.022l0.023,0.004l0.049-0.018l0.026,0.008l0.044,0.041l0.029,0.042l0.021,0.045l0.019,0.053
	l-0.012,0.054l0.009,0.029l0.069,0.049l0.022,0.012l0.061,0.013l0.022,0.018l0.013,0.034l-0.009,0.017l-0.014,0.017l-0.002,0.032
	l0.024,0.112l0.015,0.122l-0.002,0.071l-0.013,0.021l-0.024,0.006l-0.206,0.199l-0.026,0.04l-0.045,0.096l-0.045,0.068l-0.029,0.023
	l-0.042,0.016l-0.04,0.022l-0.048,0.079l-0.035,0.03l-0.068,0.011l-0.138-0.044l-0.077,0.013l-0.021,0.027l-0.063,0.135
	l-0.094,0.065l-0.025,0.029l-0.02,0.047l-0.007,0.032l-0.013,0.025l-0.029,0.022l-0.03,0.008h-0.081l-0.033,0.006l-0.26,0.129
	l-0.03,0.035l-0.001,0.05l0.006,0.052l-0.006,0.045l-0.021,0.028l-0.023,0.012l-0.026,0.005l-0.03,0.015l-0.066,0.055l-0.385,0.433
	l-0.063,0.043l-0.071,0.028l-0.076-0.002l-0.218-0.098l-0.081-0.014l-0.014,0.001l-0.136,0.012l-0.018-0.008l-0.045-0.024
	l-0.015-0.005l-0.014,0.007l-0.041,0.038l-0.577,0.069l-0.119-0.005l-0.04,0.019l-0.025,0.021l-0.047,0.057l-0.104,0.069l0.02,0.057
	l0.046,0.062l0.007,0.07l-0.058,0.029l-0.095-0.021l-0.167-0.068l-0.085-0.02l-0.066,0.004l-0.061,0.024l-0.064,0.037l-0.004-0.047
	l-0.1,0.059l-0.044,0.011l-0.067-0.016l-0.01-0.012l-0.017-0.047l-0.014-0.018l-0.02-0.006l-0.037-0.002l-0.016-0.005l-0.028-0.015
	l-0.022-0.007l-0.022-0.01l-0.025-0.026l-0.07-0.101l-0.092-0.08l-0.09-0.02l-0.063,0.078l-0.055,0.049l-0.012,0.116l-0.036,0.034
	l-0.065,0.023l-0.041,0.029l-0.079,0.083l-0.024,0.019l-0.081,0.033l-0.022,0.019l-0.012,0.021l-0.018,0.019l-0.03,0.005
	l-0.018-0.018l-0.012-0.036l-0.021-0.032l-0.075-0.005l-0.076-0.026l-0.046,0.033l-0.041,0.055l-0.03,0.058l-0.002,0.005
	l-0.021,0.062l0.002,0.03l0.021,0.066v0.02l-0.021,0.01l-0.022-0.01l-0.024-0.015l-0.032-0.005l-0.1,0.021l-0.119,0.055
	l-0.061,0.086l0.076,0.119l0.056,0.08l0.018,0.033l-0.002,0.039l-0.022,0.034l-0.037,0.013l-0.088-0.009l0.005,0.033l-0.008,0.018
	l-0.015,0.011l-0.009,0.021l-0.021,0.074l-0.04,0.026l-0.189-0.024l-0.025,0.01l-0.037,0.115l-0.032,0.049l-0.051,0.048
	l-0.057,0.041l-0.052,0.026l-0.031,0.043l-0.004,0.146l-0.039,0.037l-0.107,0.031l-0.093,0.053l-0.045,0.052l-0.03,0.114
	l-0.006,0.01l-0.022,0.043l-0.098,0.049l-0.243,0.006l-0.287,0.148l-0.046,0.048l-0.051,0.112l-0.035,0.056l-0.057,0.042
	l-0.047-0.013l-0.051-0.029l-0.074-0.009l-0.049,0.032l-0.051,0.064l-0.041,0.077l-0.02,0.063l0.006,0.035l0.035,0.072l0.005,0.045
	l-0.011,0.041l-0.021,0.035l-0.054,0.054l-0.113,0.08l-0.619,0.225l0.039-0.093l-0.028-0.077l-0.06-0.072l-0.051-0.079l-0.004-0.027
	l0.011-0.061l-0.003-0.022l-0.017-0.02l-0.038-0.031l-0.015-0.017l-0.154-0.265l-0.034-0.058l-0.021-0.071l-0.011-0.023l-0.02-0.022
	l-0.051-0.028l-0.021-0.017l-0.033-0.049l-0.028-0.058l-0.02-0.058l-0.011-0.052l0.007-0.021l0.037-0.037l0.011-0.019l-0.002-0.023
	l-0.012-0.066l0.003-0.056l0.004-0.081l-0.018-0.106l-0.053-0.09l-0.095-0.054l-0.038,0.002l-0.07,0.035l-0.038,0.003l-0.035-0.02
	l-0.141-0.111l-0.103-0.116l-0.043-0.035l-0.021-0.008h-0.044l-0.013-0.006l-0.007-0.001l-0.023-0.025l-0.029-0.058l-0.02-0.025
	l-0.079-0.071l-0.07-0.077l-0.056-0.09l-0.03-0.038l-0.044-0.03h-0.002l-0.031-0.049v-0.002l-0.021-0.023l-0.025-0.012l-0.045-0.004
	l-0.017,0.007l-0.034,0.039l-0.021,0.013l-0.032-0.007l-0.024-0.02l-0.021-0.022l-0.021-0.008l-0.03,0.012l-0.128,0.076
	l-0.022,0.004l-0.021-0.01l-0.02-0.011l-0.02-0.005l-0.096,0.028l-0.178,0.004h-0.034l-0.346-0.045l-0.093-0.029l-0.019-0.01
	l-0.067-0.042l-0.098-0.091l-0.152-0.023l-0.489-0.232l0.038-0.06l0.118-0.065l0.042-0.045l0.011-0.075l-0.031-0.167l0.012-0.081
	l0.033-0.047l0.031-0.026l0.02-0.039l-0.003-0.078l-0.039-0.163l-0.034-0.085l-0.043-0.052l0,0l-0.052-0.044l-0.061-0.026
	l-0.121-0.016l-0.224-0.06l-0.016,0.001l-0.032-0.083l-0.047-0.175l-0.015-0.045l-0.038-0.103l-0.049-0.043l-0.004-0.181
	l0.019-0.058l-0.003-0.013l-0.006-0.013l-0.008-0.011l-0.01-0.012l-0.061-0.01l-0.069-0.037l-0.156-0.131l-0.019-0.007l-0.003-0.019
	v-0.017l0.004-0.039l0.012-0.035l0.051-0.077l0.017-0.042l0.006-0.094l0.014-0.033l0.039-0.024l0.054-0.018l0.013-0.022l0.001-0.002
	l0.002-0.03l0.024-0.048l0.071-0.051l0.245-0.057l0.074-0.067l0.065-0.084l0.012-0.058l-0.001-0.009l-0.007-0.052l-0.054-0.216
	l-0.01-0.058l0.002-0.045l0.022-0.036l0.067-0.062l0.029-0.033l0,0v-0.002l0,0l0.008-0.074l0.056-0.176l-0.002-0.04l-0.018-0.081
	l-0.002-0.035l0.013-0.035l0.034-0.049l0.015-0.029l0.008-0.119l-0.019-0.155l-0.041-0.145l-0.032-0.048l-0.029-0.043l-0.058,0.006
	l-0.155,0.043l-0.067-0.004l-0.061-0.019l-0.13-0.062l-0.106-0.032l-0.032-0.017l-0.024-0.025l-0.048-0.067l-0.027-0.023
	l-0.063-0.034l-0.313-0.095l-0.034-0.004l-0.02-0.003l-0.058,0.004l-0.028,0.012l-0.052,0.031l-0.032,0.005l-0.026-0.01
	l-0.011-0.003l-0.067-0.051l-0.034-0.011l-0.029,0.006l-0.059,0.036l-0.034,0.008l-0.038-0.005l-0.067-0.032l-0.031-0.009
	l-0.117,0.004l-0.059-0.015l-0.067-0.061l-0.152-0.157l-0.073-0.053l-0.014-0.019l-0.007-0.021l-0.004-0.024l-0.002-0.011
	l-0.004-0.012l-0.006-0.008l-0.008-0.007l-0.017-0.009l-0.012-0.014l-0.005-0.016l0.002-0.019v-0.003v-0.003h-0.002l-0.002-0.002
	l-0.049-0.037l-0.051-0.088l-0.047-0.042l-0.044-0.013l-0.106-0.002l-0.053-0.014l-0.049-0.027l-0.048-0.035l-0.046-0.042
	l-0.04-0.044l-0.018-0.032l-0.025-0.071l-0.019-0.028l-0.121-0.049l-0.094-0.085l-0.031-0.094l-0.013-0.109l-0.039-0.134
	l-0.058-0.12l-0.002-0.025l-0.001-0.065l-0.002-0.021l-0.026-0.064l-0.061-0.113l-0.021-0.053l0.005-0.07l0.049-0.062l0.08-0.062
	l0.039-0.031l0.061-0.035l0.01-0.058l-0.01-0.065l0.006-0.065l0.046-0.052l0.06-0.027l0.044-0.037v-0.077l-0.02-0.035l-0.063-0.071
	l-0.022-0.037l-0.019-0.047l-0.034-0.131l-0.004,0.002l-0.013-0.01l-0.014-0.019l-0.01-0.026l0.003-0.009l0.017-0.077l0.004-0.092
	l0.011-0.04l0.087-0.12l0.822,0.09l0.124-0.012l0.135-0.052l0.07-0.003l0.079-0.007l0.091,0.106l0.019,0.145l-0.066,0.107
	l-0.057,0.042l-0.09,0.097l-0.053,0.04l-0.035,0.065l0.018,0.105l0.092,0.327l0.051,0.089l0.075,0.054l0.104,0.024l0.097-0.026
	l0.352-0.234l0.21-0.142l0.063-0.081l0.085-0.074l0.074-0.113l0.23-0.175l0.455-0.221l0.393,0.002l0.086-0.031l0.046-0.015
	l0.204-0.184l0.068-0.021l0.209,0.006l1.106-0.296l0.03-0.008l0.476-0.302l0.057-0.036l0.04-0.041l0.087-0.206l0.078-0.085
	l0.1-0.042l0.541-0.084l0.147-0.024l0.14-0.054l0.556-0.376l0.392-0.068l0.371-0.18l0.128-0.038l0.123,0.002l0.012,0.001
	l0.137,0.019l0.135,0.001l0.129-0.053l0.053-0.054l0.084-0.117l0.037-0.032l0.016-0.013l0.127-0.065l0.059-0.044l0.035-0.056
	l0.043-0.042l0.047-0.064l0.036-0.07l0.02-0.067l0.027-0.063l0.166-0.105l0.017-0.011l0.085-0.116l0.001-0.145l-0.004-0.019
	l0.035-0.146l0.053-0.097l0.031-0.243l-0.011-0.066l-0.001-0.061l0.183-0.438l-0.015-0.07l0.005-0.104l0.032-0.172l0.063-0.108
	l0.186-0.188l0.157-0.224l0.053-0.045l0.206-0.168l0.488-0.405l0.07-0.087l0.051-0.039l0.021-0.022l0.032-0.067l0.027-0.026
	l0.121-0.073l0.078-0.088l0.162-0.31l0.296-0.226l0.043-0.088l0.271,0.004l0.318-0.116l0.076-0.003l0.062-0.046h0.006l0.065,0.009
	l0.04,0.094l0.096,0.031l0.196-0.02l0.05,0.01l0.109,0.062l0.042,0.003l0.51-0.322l0.127-0.148l0.075-0.016l0.123,0.082l0.032,0.013
	l0.195,0.08l0.148-0.154l0.12-0.221l0.138-0.112h0.001l0.131,0.07l0.39,0.359l0.136,0.017l0.713-0.092l0.635-0.262L1114.912,539.219
	z"/></svg>