<?xml version="1.0" encoding="utf-8"?>
<!-- Generator: Adobe Illustrator 15.0.0, SVG Export Plug-In . SVG Version: 6.00 Build 0)  -->
<!DOCTYPE svg PUBLIC "-//W3C//DTD SVG 1.1//EN" "http://www.w3.org/Graphics/SVG/1.1/DTD/svg11.dtd">
<svg version="1.1" id="Ebene_1" xmlns="http://www.w3.org/2000/svg" xmlns:xlink="http://www.w3.org/1999/xlink" x="0px" y="0px"
	 width="1920px" height="1080px" viewBox="0 0 1920 1080" enable-background="new 0 0 1920 1080" xml:space="preserve">

<path fill="#F4E0B6" stroke="#FFFFFF" d="M276.589,314.546l-0.002-0.044l0.039-0.055l0.084-0.023l0.133,0.009l0.114,0.046
	l0.028,0.09l-0.058,0.072l-0.035,0.03l-0.043,0.02l-0.021-0.02l-0.045-0.058l-0.018-0.013l-0.004,0.002l-0.088,0.003l-0.004,0.012
	l-0.049-0.034L276.589,314.546z M294.438,302.594l-0.023-0.124l0.007-0.056l0.027-0.045l0.031,0.002l0.024,0.077l0.014,0.074
	l0.004,0.166l-0.03-0.017l-0.023-0.021l-0.018-0.026L294.438,302.594z M296.933,295.396l-0.014-0.183l0.026-0.044l0.052-0.021
	l0.072-0.004l0.023,0.024l0.013,0.051l0.004,0.112l-0.038,0.102l-0.073,0.019L296.933,295.396z M292.766,356.91l-0.175-0.191
	l0.014-0.046l0.021-0.038l0.051-0.057l0.035,0.007l-0.007,0.096l0.101,0.169l0.019,0.106L292.766,356.91z M301.2,287.76
	l-0.005-0.013l0.001-0.019l0.117-0.013l0.111-0.04l0.103-0.021l0.089,0.045l-0.005,0.039l-0.05,0.04l-0.062,0.032l-0.042,0.012
	l-0.114-0.011l-0.121-0.026L301.2,287.76z M298.505,352.5l-0.015-0.049l0.085,0.118l-0.012-0.004l-0.037-0.016L298.505,352.5z
	 M300.625,340.861l0.038-0.359l0.024,0.093l-0.019,0.087l-0.03,0.086L300.625,340.861z M302.166,333.361l-0.058-0.126l0.053-0.114
	l0.118-0.059l0.139,0.037l0.047,0.09l-0.072,0.072L302.166,333.361z M300.568,356.151l-0.095,0.036l0.233-0.267l-0.024,0.097
	l-0.045,0.077L300.568,356.151z M301.316,352.118l-0.046,0.003l0.028-0.037l0.009-0.042L301.3,352l-0.023-0.043l0.048,0.048
	l0.011,0.063L301.316,352.118z M301.915,351.55l-0.04-0.07l0.047,0.049l0.031-0.001l0.021-0.025l0.013-0.03l0.018,0.082
	l-0.036,0.022L301.915,351.55z M302.052,351.081h-0.042l0.074-0.035l0.022-0.018l-0.003,0.035l-0.02,0.015L302.052,351.081z
	 M302.169,350.635v-0.009l0.021-0.018v0.01l-0.007,0.017l-0.002,0.009L302.169,350.635z M302.265,350.661l-0.035,0.021l-0.058,0.004
	l0.004-0.009l0.009-0.002l0.009-0.001l0.01-0.006l0.019-0.017l0.021-0.01l0.007-0.015l-0.021-0.034l0.039,0.036L302.265,350.661z
	 M305.781,340.399l-0.001-0.016l0.019,0.058v0.002l-0.014-0.03L305.781,340.399z M305.621,343.081l-0.172,0.073l-0.208-0.004
	l-0.08-0.113l0.068,0.082l0.054,0.02l0.293-0.057l0.026-0.013l0.012-0.021l-0.018-0.086l0.013,0.021l0.015,0.048l0.002,0.024
	L305.621,343.081z M311.732,335.698l-0.004-0.06l0.054,0.078l0.047,0.053l0.056-0.005l0.079-0.098l0.018,0.033l-0.031,0.05
	l-0.053,0.047l-0.053,0.019l-0.059-0.018l-0.036-0.043L311.732,335.698z M312.731,341.304l-0.04-0.048l0.039,0.02l0.022-0.005h0.022
	l0.021-0.009l0.016-0.03l-0.006,0.053l-0.032,0.027L312.731,341.304z M312.875,343.175l-0.029-0.028l0.011-0.041l0.009-0.013
	l0.017-0.011l0.005,0.045l-0.002,0.036L312.875,343.175z M314.284,332.303l-0.075,0.033l-0.088-0.026l0.075-0.004l0.048-0.034
	l0.019-0.051l-0.016-0.053l0.061,0.071L314.284,332.303z M314.438,334.762l-0.069,0.108l-0.103,0.027l-0.034-0.119l0.083,0.084
	l0.056-0.044l0.022-0.098l-0.014-0.083L314.438,334.762z M315.333,343.58l-0.024-0.003l0.108-0.151l-0.005,0.031l-0.008,0.032
	l-0.025,0.061l-0.03,0.025L315.333,343.58z M315.765,354.555l-0.071,0.141l-0.107,0.123l-0.083,0.047l-0.112,0.224l-0.101,0.102
	l-0.102-0.064l0.008,0.004l0.022,0.008l0.033,0.004l0.04-0.006l0.04-0.021l0.034-0.037l0.032-0.053l0.057-0.132l0.024-0.038
	l0.026-0.023l0.033-0.019l0.04-0.032l0.144-0.191l0.022-0.055l-0.026-0.024l-0.039-0.006l-0.019,0.001l0.021-0.012l0.021-0.006
	l0.019-0.01l0.015-0.025L315.765,354.555z M317.877,335.348l-0.071,0.021l0.017-0.011l0.058-0.02l0.063-0.054l0.149-0.238
	l0.072-0.072l0.056-0.033l0.021-0.009l-0.099,0.103l-0.202,0.285L317.877,335.348z M316.646,352.249l-0.132,0.029l0.512-0.358
	l-0.067,0.106l-0.146,0.124L316.646,352.249z M318.96,334.817l-0.136,0.013l0.181-0.09l0.179-0.189l0.206-0.073l0.064-0.046
	l0.188-0.17l-0.034,0.037l-0.102,0.165l-0.224,0.089l-0.112,0.081l-0.101,0.104L318.96,334.817z M321.391,324.988l-0.126,0.04
	l-0.009-0.003l0.021-0.018l0.043-0.02l0.053-0.005l-0.037-0.026l-0.023-0.025l-0.004-0.021l0.026-0.02l0.073,0.06L321.391,324.988z
	 M320.536,335.203l0.004-0.074l0.02-0.068l0.03-0.038h0.056l0.063,0.03l0.107,0.068l0.092,0.107l0.163,0.115l0.094,0.182
	l0.128,0.358l0.06,0.1l-0.026,0.122l-0.096,0.007l-0.103-0.054l-0.068-0.101l-0.167-0.165l-0.112-0.238l-0.109-0.158l-0.121-0.142
	L320.536,335.203z M323.742,291.758l-0.056-0.023l0.045-0.043l0.063,0.055L323.742,291.758z M322.402,327.435l-0.102-0.1
	l0.091,0.067l0.358-0.291l-0.078,0.113l-0.131,0.141L322.402,327.435z M323.36,297.571l-0.058,0.174l-0.051,0.346l-0.127,0.093
	l-0.217,0.037l-0.21-0.044l-0.104-0.154l0.014-0.069l0.079-0.233l0.035-0.063l0.202-0.132l0.216-0.1l0.166-0.03l0.033-0.019
	l0.003-0.041l-0.035-0.025l-0.043-0.018l-0.02-0.026l-0.01-0.088l-0.077-0.26l-0.004-0.095l0.015-0.069l0.061-0.134l0.049-0.246
	l0.032-0.047l0.286-0.062l0.043-0.026l0.034-0.039l0.083-0.038l0.098-0.029l0.087-0.01l0.226,0.053l0.128,0.132l0.071,0.18
	l0.049,0.199l0.016,0.195l-0.042,0.196l-0.084,0.179l-0.111,0.14l-0.052,0.041l-0.066,0.034l-0.076,0.022l-0.086,0.004l-0.316-0.03
	l-0.098,0.006L323.36,297.571z M324.538,295.53l-0.208-0.096l-0.125-0.083l-0.083-0.094l0.006-0.083l0.058-0.099l0.1-0.122
	l0.112-0.097l0.098-0.025l0.05,0.048l0.036,0.083l0.004,0.078l-0.045,0.032l-0.05,0.015l-0.002,0.035l0.02,0.035l0.012,0.009
	l0.009,0.035l0.018,0.03l0.004,0.034l-0.035,0.047l0.059,0.016l0.029,0.039l0.007,0.055l-0.001,0.062l-0.023,0.046H324.538z
	 M323.419,323.655l-0.074,0.03l0.094-0.099l0.053-0.161l-0.001,0.083l-0.024,0.082L323.419,323.655z M323.929,314.815l-0.209,0.092
	l0.34-0.21l-0.05,0.065L323.929,314.815z M323.089,332.641l-0.029-0.002l0.019-0.006l0.014,0.002l0.072,0.002l0.04-0.012
	l0.042-0.046l0.021-0.06l0.006-0.065l0.011,0.098l-0.039,0.067l-0.08,0.03l-0.016-0.002L323.089,332.641z M322.074,346.332
	l-0.025,0.023l0.011-0.09l0.03-0.005l0.014,0.002l0.031,0.019l0.082,0.079l0.03,0.103l-0.11-0.154l-0.033-0.024l-0.01,0.003
	l-0.005,0.019L322.074,346.332z M324.542,314.04l-0.285,0.037l0.064-0.03l0.062-0.017l0.072-0.002L324.542,314.04z M325.422,325.526
	l-0.003-0.025l0.004-0.026l0.012-0.024l0.015-0.025l0.035-0.037l0.02-0.015l0.021-0.013v0.049l-0.021,0.045l-0.036,0.04
	L325.422,325.526z M326.877,296.592l-0.062-0.068l0.019,0.001l0.014,0.004l0.031,0.012l0.017,0.035l0.004,0.018l0.001,0.018
	L326.877,296.592z M327.959,277.555v-0.018l0.062-0.039l0.152-0.042l0.066-0.032l-0.003,0.034l-0.023,0.023l-0.038,0.012
	l-0.049,0.003l-0.045,0.024l-0.068,0.023L327.959,277.555z M327.936,290.45l-0.042-0.021l0.011-0.039l-0.031-0.01l-0.021-0.019
	l-0.011-0.027v-0.037l0.071-0.076l0.033-0.027l0.046-0.008l0.063,0.025l0.019,0.053l0.002,0.053l0.014,0.023l0.04,0.016
	l-0.006,0.035l-0.036,0.038l-0.051,0.026l-0.041,0.001L327.936,290.45z M327.651,288.749l-0.087-0.164l-0.017-0.058l0.035-0.044
	v-0.022l-0.049-0.011l-0.026-0.012l-0.016-0.029l-0.008-0.038l0.003-0.04l0.063-0.084l0.162-0.039l0.443-0.013l0.069,0.017
	l0.058,0.058l0.007,0.062l-0.021,0.08l-0.036,0.068l-0.037,0.028l-0.12,0.045l-0.386,0.251L327.651,288.749z M327.125,321.106
	l-0.071,0.068l-0.094,0.031l-0.048,0.008l0.056-0.047l0.092-0.048l0.046-0.065l-0.083-0.098l0.021-0.001l0.018,0.006l0.037,0.02
	L327.125,321.106z M328.123,290.217l-0.015-0.06l0.061-0.022l0.058-0.001l0.057,0.014l0.118,0.045l0.054,0.033l0.008,0.028
	l-0.076,0.009l-0.159,0.076l-0.024-0.01l-0.015-0.029l-0.033-0.036L328.123,290.217z M327.453,320.705l-0.06,0.025l0.018-0.035
	l0.024-0.034l0.057-0.061l0.03,0.016l-0.02,0.042L327.453,320.705z M327.425,324.045l-0.078,0.083l-0.177,0.134l0.241-0.28
	l0.002-0.238l0.036-0.198l0.013,0.393L327.425,324.045z M327.427,323.276l-0.039,0.17l0.032-0.22l0.157-0.163l0.117-0.176
	l-0.048,0.156L327.427,323.276z M328.994,288.304l-0.018-0.01l0.002,0.084l-0.007,0.043l-0.014,0.019l-0.023,0.005l-0.034,0.022
	l-0.026,0.003l-0.024-0.015l-0.021-0.032l-0.022-0.044l-0.154-0.013l-0.063-0.017l0.02-0.041l0.025-0.034l0.118-0.234l0.025-0.024
	l0.025-0.001l0.175,0.026l0.056,0.057l0.012,0.093l-0.003,0.132L328.994,288.304z M329.432,287.121l-0.105,0.003l0.002-0.069
	l0.069-0.061l0.092-0.031l0.071,0.021l0.027,0.074l-0.057,0.043L329.432,287.121z M328.041,322.376l-0.116,0.011l0.011-0.017
	l0.227-0.098l0.123-0.127l0.068-0.148l0.041-0.087v0.018l-0.031,0.087l-0.031,0.146l-0.04,0.065l-0.162,0.115L328.041,322.376z
	 M329.76,284.945l-0.036-0.052l0.02-0.032l0.028,0.01L329.76,284.945z M328.42,320.473l-0.08-0.032l0.1,0.001l0.034-0.006
	l0.178-0.118l-0.049,0.064l-0.086,0.061L328.42,320.473z M329.145,319.753l-0.021-0.004l0.022,0.073l-0.02,0.07l-0.042,0.059
	l-0.042,0.037l0.063-0.143l-0.013-0.091l0.066-0.032l-0.005,0.028L329.145,319.753z M330.474,311.286l-0.12-0.055l0.024-0.125
	l0.062-0.106l0.086-0.039l0.104,0.076l0.034,0.128l-0.069,0.091L330.474,311.286z M329.332,314.944l-0.064,0.046l0.06-0.084
	l0.285-0.095l0.14-0.093l0.248-0.083l0.252-0.037l0.113-0.063l0.243-0.01l-0.085,0.005l-0.114,0.022l-0.101,0.037l-0.044,0.046
	l-0.059,0.017l-0.256,0.016l-0.059,0.021l-0.043,0.009l-0.234,0.167L329.332,314.944z M330.741,314.538l-0.017-0.431l0.076,0.238
	l0.016,0.121L330.741,314.538z M330.116,328.773l-0.427-0.277l0.116,0.049l0.12,0.072l0.108,0.081L330.116,328.773z
	 M329.687,339.683l-0.043,0.08l-0.081-0.027l0.079-0.021l0.016-0.12l-0.073-0.148l0.09,0.111L329.687,339.683z M331.413,316.388
	l-0.267,0.211l0.32-0.278L331.413,316.388z M331.658,313.335l-0.047-0.006l0.249-0.211l-0.125,0.152L331.658,313.335z
	 M330.6,336.374l-0.085-0.105l0.008-0.043l0.024-0.025l0.031,0.002l0.033,0.036l0.012,0.131l-0.003,0.042L330.6,336.374z
	 M332.15,302.84l-0.016-0.056l0.073-0.088l0.113-0.027l0.1,0.023l0.035,0.064l-0.028,0.018l-0.118,0.043l-0.04,0.03l-0.042,0.038
	l-0.043-0.007L332.15,302.84z M332.059,310.735l-0.031-0.004l0.092-0.031l0.044-0.021l0.04-0.028l-0.012,0.019l-0.048,0.05
	l-0.058,0.014L332.059,310.735z M332.859,274.957l-0.022-0.027l0.003-0.015l0.038,0.025l0.053,0.011l0.039-0.006l0.028-0.025
	l0.013-0.041l0.013,0.053l-0.03,0.026l-0.053,0.007l-0.052,0.004L332.859,274.957z M331.488,317.128l-0.129-0.008l0.218-0.064
	l0.41-0.202l0.105-0.129l-0.032,0.12l-0.089,0.064l-0.231,0.09l-0.153,0.101L331.488,317.128z M332.022,319.18l-0.038-0.054
	l0.003-0.048l0.031-0.028l0.045-0.008l0.049,0.014l0.004,0.078l-0.04,0.045L332.022,319.18z M333.482,315.624l-0.038-0.027
	l0.077-0.082l0.068-0.296l0.097-0.107l-0.126,0.298l-0.03,0.114l-0.003,0.053l-0.018,0.037L333.482,315.624z M334.276,312.232
	l-0.144-0.053l0.093,0.028l0.109,0.021l0.045-0.006l0.036-0.021l0.015-0.017l0.027-0.042l0.002,0.016l-0.025,0.038l-0.011,0.02
	l-0.03,0.016l-0.054,0.012L334.276,312.232z M334.861,310.426l-0.073,0.018l0.077-0.049l0.083-0.042l0.04-0.079l-0.016,0.068
	l-0.046,0.05L334.861,310.426z M335.081,307.562l-0.044,0.001l0.026-0.018l0.012-0.02l0.009-0.021l0.013-0.022l-0.001,0.063
	L335.081,307.562z M335.198,305.255l-0.035,0.057l0.1-0.182l0.014,0.023l-0.031,0.046L335.198,305.255z M335.837,306.468
	l-0.156,0.141l0.214-0.224l0.058-0.081l-0.047,0.087L335.837,306.468z M336.03,304.472l-0.072,0.016l0.02-0.009l0.015-0.01
	l0.015-0.004L336.03,304.472z M336.575,303.975l-0.188,0.028l0.066-0.034l0.069-0.049l0.082-0.076l0.077-0.114l0.1-0.289
	l-0.021,0.189l-0.064,0.2L336.575,303.975z M337.064,301.438l-0.083-0.03l0.116-0.083l0.095-0.187l-0.017,0.103l-0.045,0.121
	L337.064,301.438z M337.509,316.857l-0.112-0.034l0.021,0.1l0.122,0.19l-0.063-0.055l-0.062-0.087l-0.046-0.096l-0.016-0.082
	l0.062-0.01l0.132,0.063l0.209,0.129L337.509,316.857z M338.662,312.432l-0.087-0.103l0.106,0.061l0.1,0.038l0.106-0.136
	l-0.023,0.125l-0.089,0.045L338.662,312.432z M338.793,313.788l-0.006-0.052l0.004-0.052l0.021,0.153l0.017,0.052l-0.021-0.049
	L338.793,313.788z M338.727,318.689l-0.052-0.01l-0.025-0.016l-0.07-0.097l-0.082-0.158l-0.016-0.047l-0.03-0.048l-0.148-0.16
	l-0.049-0.084l0.229,0.247l0.11,0.214l0.103,0.116l-0.045-0.122l-0.01-0.198l-0.044-0.223l0.049,0.088l0.025,0.108l0.009,0.207
	l0.047,0.1l0.019,0.059L338.727,318.689z M339.27,314.33l-0.12-0.063l0.102,0.028l0.016-0.08l-0.001-0.249l0.035,0.26L339.27,314.33
	z M338.898,336.082l-0.033-0.029l0.035-0.041l0.135-0.093l-0.029,0.043L338.898,336.082z M357.289,351.414l-0.035-0.182l0.049-0.063
	l0.088-0.024l0.1,0.011l0.182,0.107l0.083,0.003l0.178-0.057l-0.014,0.167l-0.026,0.071l-0.054,0.061l-0.174,0.052l-0.212-0.035
	L357.289,351.414z M360.373,349.483l-0.077-0.075l0.097-0.051l0.103,0.023l0.106,0.036l0.105-0.011l0.063,0.064l0.128,0.088
	l0.084,0.1l-0.066,0.098l-0.028,0.063l-0.054,0.06l-0.054,0.032l-0.022-0.021l-0.008-0.021l-0.022-0.016l-0.024-0.016l-0.018-0.013
	l-0.015-0.027l-0.004-0.051l-0.012-0.032l-0.076-0.08L360.373,349.483z M361.656,350.926l-0.009,0.05l0.008,0.059l0.022,0.042
	l0.025,0.033l0.016,0.032l0.003,0.116l-0.049-0.031l-0.222-0.297l-0.044-0.124l-0.025-0.129l-0.008-0.201l0.02-0.271l0.018-0.056
	l0.017-0.023l0.009-0.059l-0.003-0.061l-0.015-0.03l-0.169-0.027l-0.089-0.049l-0.002-0.048l0.036-0.067l0.059-0.198l0.067-0.077
	l0.078-0.056l0.066-0.03l0.074-0.015h0.088l0.071,0.031l0.047,0.166l0.249,0.485l0.03,0.188l-0.036,0.152l-0.119,0.041l-0.076,0.046
	l-0.051,0.085l-0.032,0.105l-0.014,0.102L361.656,350.926z M364.195,345.339l-0.029,0.059l0.036,0.076l-0.163-0.091l-0.185-0.071
	l-0.15-0.093l-0.055-0.161l0.057-0.085l0.375-0.182l0.072,0.108l0.093,0.106l0.073,0.112l0.01,0.128L364.195,345.339z
	 M366.728,348.142l-0.008,0.039l0.026,0.088l-0.016,0.055l-0.102,0.151l-0.086,0.043l-0.071-0.038l-0.049-0.084l-0.021-0.098
	l-0.007-0.227l-0.038-0.095l-0.092-0.084l0.082,0.034l0.08-0.014l0.082-0.03l0.086-0.007l0.2,0.204l-0.002,0.038L366.728,348.142z
	 M367.361,344.995l-0.145,0.626l-0.006,0.156l0.006,0.039l0.043,0.078l0.016,0.052l-0.026-0.004l-0.015-0.011l-0.012-0.017
	l-0.044-0.043l-0.087-0.065l-0.137,0.117l-0.072,0.021l-0.122-0.009l-0.083-0.039l0.014-0.06l0.093-0.109l-0.118-0.044l-0.08-0.095
	l-0.018-0.101l0.077-0.061l0.002-0.038l-0.056-0.072l-0.064-0.213l-0.038-0.051l-0.094-0.038l0.021-0.053l0.064-0.056l0.073-0.094
	l0.08-0.023l0.258-0.014l0.108,0.005l0.049-0.004l0.048-0.04l0.041-0.005l0.198,0.099L367.361,344.995z M371.612,343.119
	l-0.007-0.053l0.076-0.037l0.207,0.028l0.155,0.132l0.067,0.18l-0.062,0.17l-0.06-0.084l-0.013-0.028l-0.015-0.092l-0.046-0.049
	l-0.166-0.068l-0.077-0.044L371.612,343.119z"/></svg>