<?xml version="1.0" encoding="utf-8"?>
<!-- Generator: Adobe Illustrator 15.0.0, SVG Export Plug-In . SVG Version: 6.00 Build 0)  -->
<!DOCTYPE svg PUBLIC "-//W3C//DTD SVG 1.1//EN" "http://www.w3.org/Graphics/SVG/1.1/DTD/svg11.dtd">
<svg version="1.1" id="Ebene_1" xmlns="http://www.w3.org/2000/svg" xmlns:xlink="http://www.w3.org/1999/xlink" x="0px" y="0px"
	 width="1920px" height="1080px" viewBox="0 0 1920 1080" enable-background="new 0 0 1920 1080" xml:space="preserve">

<path fill="#F4E0B6" stroke="#FFFFFF" d="M1087.086,542.859l0.285,0.132l0.063,0.043l0.153,0.156l0.075,0.042l0.064,0.011
	l0.134-0.004l0.069,0.008l0.216,0.064l0.062-0.001l0.111-0.041l0.063-0.005l0.065,0.022l0.178,0.118l0.029,0.009l0.064,0.009
	l0.031,0.015l0.027,0.028l0.048,0.078l0.011,0.012l0.02,0.022l0.051,0.032l0.105,0.05l0.055,0.04l0.049,0.015l0.041-0.011
	l0.031-0.029l0.02-0.048l-0.007-0.053l0.006-0.048l0.023-0.028l0.044,0.002l0.043,0.026l0.019,0.038l0.008,0.043l0.015,0.043
	l0.111,0.206l0.021,0.061l0.007,0.039l0.007,0.089l0.031,0.111l0.043,0.059l0.155,0.102l0.084,0.074l0.021,0.059l-0.018,0.062
	l-0.036,0.083l0.046,0.046l0.055,0.007l0.058-0.01l0.058-0.001l0.062,0.022l0.161,0.088l0.264,0.071l0.181,0.089l0.061,0.014
	l0.121-0.006l0.162-0.007l0.041,0.009l0.037,0.015l0.036,0.011l0.037-0.009l0.021-0.026l0.018-0.073l0.024-0.022l0.063,0.012
	l0.168,0.092l0.074,0.031l0.126,0.018l0.06-0.005l0.119-0.055l0.343-0.061l0.101,0.003l0.102,0.022l0.113,0.048l0.042,0.018
	l0.04,0.045l0.015,0.057l-0.018,0.047l-0.034,0.02l-0.021,0.03l-0.011,0.037l-0.004,0.044l0.008,0.003l0.014,0.023l0.016,0.029
	l0.009,0.021l0.001,0.02l-0.008,0.042v0.02l0.019,0.062l0.013,0.028l0.002,0.023l-0.019,0.048l-0.023,0.025l-0.068,0.042
	l-0.021,0.027l-0.003,0.042l0.008,0.048l0.024,0.029l0.042-0.008l0.048-0.022l0.02,0.015l0.007,0.031l0.014,0.02l0.088,0.012
	l0.146-0.047h0.088l0.115-0.013l0.062,0.016l0.056,0.052l0.032,0.08l-0.021,0.055l-0.096,0.09l-0.071,0.053l-0.165,0.076
	l-0.061,0.064l-0.019,0.052l-0.002,0.056l0.019,0.059l0.058-0.003h0.001h0.002l0.07,0.013l0.104,0.079l0.057-0.002l0.25-0.095
	l0.162-0.104l0.063-0.013l0.073,0.021l0.058,0.051l0.056,0.062l0.063,0.058l0.156,0.05l0.158-0.029l0.143-0.077l0.11-0.09
	l0.077-0.099l0.041-0.037l0.052-0.014h0.321l0.097-0.032l0.042,0.013l0.179,0.148l0.021,0.025l0.02,0.023l0.036,0.044l0.032,0.022
	l0.043,0.011l0.042,0.004l0.039,0.013l0.091,0.097l0.074,0.022l0.077-0.005l0.063-0.025l0.056-0.052l0.016-0.058l0.004-0.742
	l-0.016-0.072l0.023-0.052l0.1-0.088l0.036-0.062l0.038-0.16l0.017-0.037l0.069-0.034l0.056-0.016l0.055,0.003l0.309,0.112
	l0.137,0.026l0.118-0.004l0.232-0.091l0.057,0.008l0.224,0.083l0.023,0.078l-0.021,0.077l-0.045,0.062l-0.048,0.039l-0.067,0.019
	l-0.137-0.016l-0.072,0.009l-0.058,0.028l-0.047,0.046l-0.019,0.062l0.019,0.073l0.028,0.072l-0.003,0.051l-0.026,0.036
	l-0.095,0.057l-0.021,0.022l-0.01,0.027l0.008,0.044l0.021,0.056l0.027,0.052l0.025,0.026l0.089,0.024l0.026,0.02l0.019,0.028
	l0.026,0.064l0.02,0.029l0.11,0.087l0.129,0.062l0.138,0.03l0.132-0.007l0.124-0.046l0.066-0.005l0.051,0.042l0.091,0.193
	l0.047,0.051h0.003l-0.087,0.12l-0.011,0.04l-0.004,0.092l-0.017,0.077l-0.003,0.009l0.01,0.026l0.014,0.019l0.013,0.01l0.004-0.002
	l0.034,0.131l0.019,0.047l0.022,0.037l0.063,0.071l0.02,0.035v0.077l-0.044,0.037l-0.06,0.027l-0.046,0.052l-0.006,0.065l0.01,0.065
	l-0.01,0.058l-0.061,0.035l-0.039,0.031l-0.08,0.062l-0.049,0.062l-0.005,0.07l0.021,0.053l0.061,0.113l0.026,0.064l0.002,0.021
	l0.001,0.065l0.002,0.025l0.058,0.12l0.039,0.134l0.013,0.109l0.031,0.094l0.094,0.085l0.121,0.049l0.019,0.028l0.025,0.071
	l0.018,0.032l0.04,0.044l0.046,0.042l0.048,0.035l0.049,0.027l0.053,0.014l0.106,0.002l0.044,0.013l0.047,0.042l0.051,0.088
	l0.049,0.037l0.002,0.002h0.002v0.003v0.003l-0.002,0.019l0.005,0.016l0.012,0.014l0.017,0.009l0.008,0.007l0.006,0.008l0.004,0.012
	l0.002,0.011l0.004,0.024l0.007,0.021l0.014,0.019l0.073,0.053l0.152,0.157l0.067,0.061l0.059,0.015l0.117-0.004l0.031,0.009
	l0.067,0.032l0.038,0.005l0.034-0.008l0.059-0.036l0.029-0.006l0.034,0.011l0.067,0.051l0.011,0.003l0.026,0.01l0.032-0.005
	l0.052-0.031l0.028-0.012l0.058-0.004l0.02,0.003l0.034,0.004l0.313,0.095l0.063,0.034l0.027,0.023l0.048,0.067l0.024,0.025
	l0.032,0.017l0.106,0.032l0.13,0.062l0.061,0.019l0.067,0.004l0.155-0.043l0.058-0.006l0.029,0.043l0.032,0.048l0.041,0.145
	l0.019,0.155l-0.008,0.119l-0.015,0.029l-0.034,0.049l-0.013,0.035l0.002,0.035l0.018,0.081l0.002,0.04l-0.056,0.176l-0.008,0.074
	l0,0v0.002l0,0l-0.029,0.033l-0.067,0.062l-0.022,0.036l-0.002,0.045l0.01,0.058l0.054,0.216l0.007,0.052l0.001,0.009l-0.012,0.058
	l-0.065,0.084l-0.074,0.067l-0.245,0.057l-0.071,0.051l-0.024,0.048l-0.002,0.03l-0.001,0.002l-0.013,0.022l-0.054,0.018
	l-0.039,0.024l-0.014,0.033l-0.006,0.094l-0.017,0.042l-0.051,0.077l-0.012,0.035l-0.004,0.039v0.017l0.003,0.019l0.019,0.007
	l0.156,0.131l0.069,0.037l0.061,0.01l0.01,0.012l0.008,0.011l0.006,0.013l0.003,0.013l-0.019,0.058l0.004,0.181l0.049,0.043
	l0.038,0.103l0.015,0.045l0.047,0.175l0.032,0.083l0.016-0.001l0.224,0.06l0.121,0.016l0.061,0.026l0.052,0.044l0,0l0.043,0.052
	l0.034,0.085l0.039,0.163l0.003,0.078l-0.02,0.039l-0.031,0.026l-0.033,0.047l-0.012,0.081l0.031,0.167l-0.011,0.075l-0.042,0.045
	l-0.118,0.065l-0.038,0.06l-0.059,0.026l-0.062,0.007l-0.064-0.01l-0.069-0.028l-0.022-0.023l-0.037-0.064l-0.024-0.012
	l-0.022,0.019l-0.032,0.119l-0.304,0.377l-0.09,0.071l-0.047,0.019l-0.054,0.021l-0.112,0.016l-0.195,0.001l-0.04,0.012l-0.022,0.03
	l-0.052,0.138l-0.018,0.016l-0.114,0.059l-0.051,0.043l-0.188,0.32l-0.025,0.043l-0.015,0.071l-0.027,0.051h-0.001l-0.051,0.023
	l-0.115,0.024l-0.141,0.078h-0.04l-0.088-0.093l-0.202-0.112l-0.046-0.095l0.026-0.097l0.142-0.142l0.03-0.088l-0.021-0.067
	l-0.079-0.115l-0.026-0.063l0.002-0.058l0.053-0.177l0.016-0.311l-0.019-0.105l-0.011-0.014l-0.039-0.024l-0.012-0.014l-0.001-0.014
	l0.015-0.02v-0.01l-0.002-0.013l-0.026-0.089l-0.009-0.01l0.018-0.036l0.026-0.032l0.019-0.036l-0.002-0.044l-0.07-0.072
	l-0.077-0.009l-0.021-0.001l-0.096,0.023l-0.061,0.035l-0.094,0.12l-0.041,0.022l-0.065-0.007l-0.154-0.067l-0.063-0.017
	l-0.076,0.013l-0.309,0.109l-0.067,0.039l-0.035,0.02l-0.055,0.01l-0.04-0.006l-0.004-0.011l0.007-0.02v-0.024l-0.023-0.065
	l-0.03-0.151l-0.023-0.071l-0.042-0.081l-0.011-0.021l-0.044-0.016l-0.058,0.027l-0.104,0.026l-0.038-0.003l-0.081-0.02l-0.04-0.001
	l-0.035,0.008l-0.067,0.035l-0.036,0.009l-0.131-0.055l-0.081-0.115l-0.068-0.119l-0.09-0.064l-0.053,0.017l-0.023,0.049
	l-0.029,0.043l-0.065-0.005l-0.052-0.039l-0.15-0.182l-0.093-0.069l-0.063-0.013l-0.196,0.089l-0.07,0.007l-0.044-0.001
	l-0.303-0.019l-0.275-0.016l-0.035-0.022l0.01-0.008l-0.018-0.057l-0.026-0.061l-0.013-0.018l0.018-0.048l0.033-0.006l0.01-0.004
	l-0.057-0.041l-0.032-0.017l-0.045-0.016l-0.077-0.017l-0.033,0.005l-0.05,0.01l-0.066,0.043l-0.054,0.067l-0.135,0.284l-0.05,0.058
	l-0.091,0.052l-0.015,0.028l0.008,0.06l0.029,0.041l0.073,0.056l0.069,0.073l0.035,0.029l0.03,0.017l0.029-0.006l0.028-0.02
	l0.029-0.013l0.034,0.013l0.037,0.104l0.009,0.159l-0.016,0.157l-0.029,0.09l-0.033,0.018l-0.038,0.007l-0.03,0.016l-0.012,0.041
	l0.003,0.072l-0.002,0.035l-0.011,0.032l-0.045,0.048l-0.052,0.025l-0.041,0.04l-0.016,0.089l0.033,0.121l0.071,0.027l0.084,0.008
	l0.04,0.039l0.031,0.031l-0.02,0.119l-0.107,0.13l-0.211,0.173l-0.051-0.167l-0.055-0.096l-0.079-0.039l-0.224-0.001l-0.207-0.034
	l-0.101,0.008l-0.162,0.062l-0.039,0.004l-0.042,0.007l-0.264-0.087l-0.009-0.003l-0.149-0.049l-0.235-0.036l-0.044-0.016
	l-0.042-0.028l-0.037-0.031l-0.037-0.021l-0.042,0.005l-0.02,0.029l-0.031,0.103l-0.023,0.037l-0.093,0.057l-0.099,0.04
	l-0.081,0.009l-0.084-0.02l-0.088-0.042l-0.163-0.113l-0.023,0.008l-0.013,0.035l-0.029,0.032l-0.065,0.023l-0.147,0.025
	l-0.075-0.003l-0.073-0.021l-0.147-0.073l-0.01-0.003l-0.146-0.036l-0.051-0.03l-0.105-0.087l-0.061-0.035l-0.261-0.094
	l-0.212-0.125l-0.065-0.012l-0.484,0.016l-0.108-0.029l-0.1-0.081l-0.059-0.113l0.012-0.121l0.063-0.03l0.001-0.084l-0.019-0.101
	l0.008-0.086l0.026-0.023l0.079-0.025l0.033-0.017l0.024-0.037l0.039-0.085l0.026-0.025l0.063,0.007l0.081,0.039l0.077,0.055
	l0.059,0.057l0.04,0.023l0.009-0.045l-0.009-0.104l0.033-0.021l0.13-0.01l0.016-0.024l-0.002-0.02l-0.018-0.015l-0.029-0.01
	l-0.035-0.035l-0.032-0.053l-0.023-0.061l-0.011-0.053l0.036-0.108l-0.059-0.103l-0.18-0.186l-0.123-0.104l-0.452-0.176
	l-0.278-0.174l-0.144-0.069l-0.138-0.028l-0.044-0.006l0.017-0.046l-0.008-0.032l-0.039-0.043l-0.016-0.028l-0.003-0.045
	l0.014-0.034l0.05-0.049l0.041-0.022l0.044-0.005l0.098,0.017l0.109,0.033l0.049,0.006l0.039-0.022l0.037-0.033l0.146-0.086
	l0.171-0.063l0.065-0.041l0.056-0.059l0.073-0.145l0.021-0.078l-0.009-0.077l-0.06-0.064l-0.052-0.016l-0.021,0.022l-0.006,0.032
	l-0.005,0.016l-0.037-0.009l-0.075-0.033l-0.12-0.009l-0.029-0.017l-0.09-0.051l-0.065-0.02l-0.03-0.017l-0.042-0.067l-0.04-0.02
	l-0.018,0.009l-0.015,0.047l-0.015,0.015l-0.025-0.003l-0.045-0.016l-0.172-0.03l-0.082-0.031l-0.044-0.042l-0.046-0.078
	l-0.078-0.067l-0.085-0.049l-0.069-0.018l-0.036,0.01l-0.08,0.066l-0.042,0.018l-0.029,0.005l-0.074-0.002l-0.135,0.032l-0.07,0.002
	l-0.083-0.038l-0.132-0.106l-0.062-0.068l-0.044-0.074l-0.018-0.094l0.016-0.07l0.004-0.074l-0.05-0.112l-0.134-0.155l-0.024-0.066
	l0.083-0.082l0.014-0.029l0.005-0.037v-0.039l-0.009-0.03l-0.035-0.063l-0.008-0.029l0.005-0.025l0.022-0.032l0.006-0.02
	l0.019-0.294l-0.02-0.139l0.003-0.046l0.014-0.048l0.033-0.077l0.006-0.054l-0.007-0.089l-0.144-0.53l0.002-0.023l0.013-0.011
	l0.005-0.016l-0.023-0.041l-0.025-0.027l-0.021-0.019l-0.025-0.007l-0.025-0.012l0,0l-0.018-0.007l0.001,0.004l-0.005,0.009
	l-0.027,0.016l-0.033,0.004l-0.083-0.028l-0.026,0.013l-0.016,0.024l-0.025,0.017l-0.138,0.033l-0.025,0.019l-0.04,0.046
	l-0.027,0.015l-0.024-0.013l-0.026-0.029l-0.03-0.015l-0.032,0.025l-0.159,0.309l-0.038,0.039l-0.053,0.036l-0.076,0.071
	l-0.119-0.087l-0.049-0.077l0.055-0.079l0.044-0.006l0.089,0.035l0.044-0.016l0.022-0.036l0.01-0.047l0.007-0.096l0.018-0.03
	l0.025-0.03l0.006-0.039l-0.042-0.055l-0.04-0.018l-0.048,0.051l-0.044-0.014l-0.025-0.038l-0.016-0.053l-0.012-0.055l-0.012-0.04
	l-0.025-0.042l-0.081-0.106l-0.06-0.091l-0.027-0.035l-0.046-0.039l-0.034-0.016l-0.042-0.015l-0.039-0.02l-0.021-0.034l0.023-0.059
	l0.165-0.062l0.055-0.042l-0.021-0.07l-0.074-0.058l-0.048-0.05l0.053-0.044l0.044,0.002l0.092,0.052l0.045,0.017l0.064-0.007
	l0.062-0.025l0.11-0.073l0.009-0.017l-0.001-0.021l0.003-0.024l0.015-0.02l0.017,0.001l0.04,0.025l0.019,0.003l0.237-0.129
	l0.005-0.014l0.017-0.049l-0.041-0.097l-0.07-0.066h-0.066l-0.08-0.053l-0.639,0.126l-0.131-0.002l-0.116-0.052l-0.026-0.035
	l-0.024-0.043l-0.028-0.033l-0.037-0.003l-0.116,0.056l-0.062,0.013l-0.066-0.011l-0.068-0.032l-0.067-0.047l0.114-0.14l0.004-0.052
	l-0.04-0.039l-0.083-0.032l-0.04-0.016l-0.056-0.066l-0.013-0.117l0.024-0.007l0.179-0.057l0.042-0.119l-0.062-0.043l-0.046-0.003
	l-0.044,0.012h-0.059l-0.04-0.012l-0.021-0.013l-0.019-0.016l-0.034-0.023l-0.035-0.007l-0.021,0.02l-0.015,0.028l-0.037,0.049
	l-0.01,0.049l-0.022,0.046l-0.052,0.025l-0.04-0.014l-0.102-0.064l-0.033-0.007l-0.008-0.04l-0.034-0.076l-0.025-0.082l0.017-0.05
	l0.02-0.038l0.023-0.145l-0.002-0.042l-0.046-0.05l-0.058-0.018l-0.063-0.004l-0.054-0.013l-0.049-0.04l-0.072-0.116l-0.043-0.057
	l-0.132-0.062l-0.037-0.023l-0.064-0.025l-0.023-0.02l-0.003-0.02l0.002-0.021l-0.007-0.026l-0.047-0.115l0.085-0.05l0.031-0.025
	l0.008-0.035l-0.024-0.028l-0.046-0.018l-0.081-0.019l0.012-0.043l0.011-0.031l0.032-0.055l-0.047-0.055l0.178-0.068h0.065
	l0.013-0.017l-0.004-0.015l-0.015-0.014l-0.038-0.025l-0.012-0.013l-0.004-0.017l0.002-0.019l0.042-0.079l0.075-0.022l0.043-0.038
	l-0.057-0.12l0.006-0.097l0.051-0.06l0.073-0.007l0.081,0.059v0.002l0.081,0.007l0.257-0.093l0.07-0.053l0.01-0.057l-0.012-0.054
	l-0.005-0.06l0.021-0.04l0.015-0.029l0.046-0.037l0.102-0.05l0.037-0.038l0.013-0.045l0.001-0.051l0.006-0.046l0.025-0.033
	l0.029-0.021l0.018-0.02l0.028-0.062l0.005-0.038l-0.001-0.036l0.006-0.038l0.053-0.074l-0.023-0.03l-0.039-0.027l-0.022-0.03
	l0.017-0.064l0.042-0.074l0.053-0.066l0.047-0.033l0.061-0.026l0.145-0.111l0.06-0.026l0.068-0.008l0.079,0.01l0.225,0.024
	l0.053-0.013l0.182-0.21l0.032-0.037l0.099-0.08l0.185-0.07l0.148,0.009l0.074-0.048l0.052-0.07l0.024-0.017l0.051-0.011
	l0.021,0.004l0.049,0.025l0.026,0.001l0.02-0.013l0.051-0.067l0.06-0.004L1087.086,542.859z"/></svg>