<?xml version="1.0" encoding="utf-8"?>
<!-- Generator: Adobe Illustrator 15.0.0, SVG Export Plug-In . SVG Version: 6.00 Build 0)  -->
<!DOCTYPE svg PUBLIC "-//W3C//DTD SVG 1.1//EN" "http://www.w3.org/Graphics/SVG/1.1/DTD/svg11.dtd">
<svg version="1.1" id="Ebene_1" xmlns="http://www.w3.org/2000/svg" xmlns:xlink="http://www.w3.org/1999/xlink" x="0px" y="0px"
	 width="1920px" height="1080px" viewBox="0 0 1920 1080" enable-background="new 0 0 1920 1080" xml:space="preserve">

<path fill="#F4E0B6" stroke="#FFFFFF" d="M303.898,260.771l-0.007-0.053l0.007-0.061l0.021-0.044l0.038-0.035l0.053-0.033
	l0.054,0.018l0.054,0.035l0.04,0.043l0.013,0.041l-0.021,0.056l-0.042,0.046l-0.106,0.088l-0.052,0.012l-0.034-0.046
	L303.898,260.771z M306.93,253.064l-0.043-0.005l-0.038-0.021l0.015-0.117l-0.003-0.013l0.04-0.083l-0.019-0.166l0.047-0.058
	l0.036,0.03l0.087,0.021l0.055,0.003l0.031,0.031l0.017,0.107l-0.001,0.081l-0.02,0.085l-0.043,0.067l-0.069,0.031L306.93,253.064z
	 M312.096,263.052l-0.035-0.044l0.015-0.049l0.069-0.04h0.081l0.029,0.043l-0.02,0.06l-0.062,0.051L312.096,263.052z
	 M312.783,259.804l-0.033-0.062l0.017-0.079l0.068-0.065l0.112-0.025l0.019,0.062l-0.038,0.099l-0.059,0.083L312.783,259.804z
	 M313.637,258.964l-0.028,0.022l0.048-0.056l-0.006,0.02L313.637,258.964z M313.682,258.875l-0.004-0.014l0.013,0.005l0.019,0.034
	L313.682,258.875z M313.611,261.362l-0.068-0.055l0.063-0.002l0.045-0.023l0.03-0.03l0.034-0.027l0.065-0.012l0.038,0.019
	l0.111,0.09l0.028,0.031l-0.1-0.005l-0.127,0.015L313.611,261.362z M316.243,256.037l-0.033,0.026l0.017,0.059l-0.014-0.003
	l-0.01-0.006l-0.015-0.02l0.021-0.054l0.045-0.057l0.042-0.024l0.017,0.042l-0.023,0.022L316.243,256.037z M318.169,252.369
	l-0.038,0.048l-0.039,0.004l0.018-0.016l0.03-0.008l0.004-0.014l-0.088-0.037l-0.017-0.001l-0.103,0.019l-0.047-0.025l0.001-0.046
	l0.043-0.034l0.059-0.009l0.091,0.016l0.032,0.015l0.043,0.036L318.169,252.369z M356.744,221.766l-0.015-0.021l0.013-0.018
	l0.039-0.015l0.009,0.04l0.001,0.019l-0.005,0.021L356.744,221.766z M360.121,244.623l-0.218,0.212l0.21-0.242l0,0l0.04-0.042
	l0.016-0.01L360.121,244.623z M361.94,244.057l-0.045-0.054l0.051-0.006l0.042,0.083L361.94,244.057z M367.816,258.768v-0.101
	l0.025-0.082l0.061-0.09l0.063-0.056l0.034,0.025l-0.148,0.302L367.816,258.768z"/></svg>