<?xml version="1.0" encoding="utf-8"?>
<!-- Generator: Adobe Illustrator 15.0.0, SVG Export Plug-In . SVG Version: 6.00 Build 0)  -->
<!DOCTYPE svg PUBLIC "-//W3C//DTD SVG 1.1//EN" "http://www.w3.org/Graphics/SVG/1.1/DTD/svg11.dtd">
<svg version="1.1" id="Ebene_1" xmlns="http://www.w3.org/2000/svg" xmlns:xlink="http://www.w3.org/1999/xlink" x="0px" y="0px"
	 width="1920px" height="1080px" viewBox="0 0 1920 1080" enable-background="new 0 0 1920 1080" xml:space="preserve">

<path fill="#F4E0B6" stroke="#FFFFFF" d="M1054.583,505.761l0.025,0.003l0.024-0.01l0.031-0.006l0.03-0.012l0.02-0.018l0.008,0.025
	l-0.016,0.038l-0.029,0.02l0.003,0.025l0.035,0.045l0.019,0.039l0.005,0.02l-0.008,0.017l-0.022,0.007l-0.013,0.001l-0.108-0.035
	l-0.052-0.057v-0.079l0.025-0.034L1054.583,505.761z M1055.341,498.815l0.024,0l0.015-0.023l-0.004-0.044l0.016-0.006l0.011,0.02
	l0.01,0.01l0.012,0.009l0.013,0.014l0.021,0.015l0.021,0.018l0.018,0.021l0.018,0.026l-0.062,0.036l-0.022,0.078l-0.006,0.189
	l0.116,0.111l0.037,0.067l0.019,0.133l0.02,0.04l0.005,0.02l-0.005,0.011l-0.025,0.03l-0.005,0.011l0.008,0.047l0.022,0.073
	l0.012,0.045l-0.004,0.242l0.017,0.073l0.041,0.126l-0.017,0.069l-0.041,0.047l-0.035,0.061l0.033,0.033l0.032,0.018l0.031,0.008
	l0.031-0.002l-0.024,0.067l-0.013,0.065l-0.007,0.151l0.044,0.051l0.06,0.089l0.038,0.089l-0.019,0.055l0.001,0.059l0.074,0.256
	l0.013,0.095l-0.007,0.003l-0.078,0.114l-0.005,0.031l0.004,0.045l0.011,0.046l0.016,0.047l0.02,0.046l0.031,0.097l0.079,0.522
	l0.021,0.098l0.041,0.109l0.011,0.043l0.001,0.055l-0.007,0.046l-0.013,0.024l-0.022,0.028l0.003,0.046l0.033,0.104l0.012,0.026
	l0.022,0.007l0.012,0.023l0.004,0.025l0.002,0.057l0.006,0.024l0.031,0.08l0.016,0.054l0.007,0.048l0.004,0.098l0.012,0.108
	l0.021,0.104l0.023,0.091l0.015,0.037l0.052,0.103l0.014,0.048l-0.004,0.078l0.013,0.048l0.015,0.08l0.02,0.351l-0.018,0.074
	l-0.036,0.062l-0.052,0.025l-0.063-0.035l-0.023-0.04l-0.044-0.105l-0.02-0.044l-0.091-0.11l-0.026-0.106l-0.05-0.113l-0.096-0.189
	l-0.013-0.08l-0.054-0.074l-0.065-0.076l-0.054-0.08l-0.163-0.398l-0.015-0.047l-0.024-0.16l0.007-0.127l-0.009-0.04l-0.028-0.101
	l-0.097-1.235l0.019-0.063l0.042-0.04l0.07-0.034l0.056-0.047l0.009-0.07l-0.041-0.189l-0.025-0.327l0.005-0.303l-0.026-0.313
	l-0.118-0.355l-0.013-0.05l0.012-0.032l0.038-0.048l0.011-0.055l-0.005-0.044l-0.116-0.263l-0.026-0.083l0.024-0.082l0.013-0.153
	l0.021-0.055l0.032-0.043l0.026-0.008L1055.341,498.815z M1058.218,494.812l0.076,0.044l-0.042-0.125l0.01-0.074l0.017-0.063
	l-0.022-0.088l-0.025-0.023l-0.035-0.028l-0.02-0.029l0.024-0.028l0.129-0.094l0.013,0.029l0.005,0.096l0.066,0.023l0.053-0.029
	l-0.03-0.06l0.022-0.042l0.037-0.038l0.044-0.022l0.038,0.003l-0.002,0.036l0.032,0.038l0.042,0.044l0.046,0.032l0.045,0.002
	l0.036,0.016l0.128,0.095l0.035,0.035l-0.152,0.091l-0.032,0.096l0.072,0.174l-0.046-0.03l-0.04-0.01l-0.017,0.019l0.024,0.057
	l-0.003,0.045l0.009,0.054l0.026,0.052l0.046,0.042l-0.079,0.068l-0.081,0.04l-0.033,0.003l-0.069-0.021l-0.029,0.002l-0.026,0.026
	l0.012,0.031l0.028,0.037l0.022,0.041l0.046,0.169l0.016,0.13l0.011,0.052l0.003,0.032l0.007,0.041l0.018,0.046l0.021,0.006
	l0.112-0.012l0.013,0.081l0.018,0.069l0.022,0.068l0.032,0.073l0.013,0.069l-0.001,0.079l0.015,0.065l0.058,0.031l0.018,0.079
	l0.032,0.039l0.038,0.005l0.038-0.024l-0.001,0.029l0.016,0.079l0.109-0.001l0.104-0.02l0.001-0.02l-0.011-0.031l0.004-0.024
	l0.038,0.002l0.051,0.012l0.019,0.011l0.032,0.026l0.037,0.041l0.04,0.057l0.017,0.059l-0.024,0.041l-0.072,0.032h-0.011
	l-0.037-0.01l-0.016,0.002l-0.007,0.015l-0.007,0.055l-0.011,0.017l-0.065,0.056l-0.047,0.085l-0.028,0.106l-0.013,0.11
	l-0.046,0.123l-0.001,0.076l0.06,0.08l0.022,0.002l0.044-0.032l0.027,0.006l0.078,0.139l-0.061,0.081l0.011,0.014l-0.182,0.144
	l-0.042,0.07l0.018,0.034l0.03-0.014l0.015,0.028l-0.045,0.039l-0.205,0.302l-0.032,0.077l-0.015,0.091l0.161-0.071l-0.031,0.072
	l-0.119,0.168l-0.007,0.077l0.099,0.239l0.054,0.046l0.052,0.017l0.1-0.004l-0.129,0.057l0.015,0.031l0.049,0.02l-0.033,0.084
	l-0.007,0.047l0.022,0.106l-0.017,0.042l-0.163,0.218l-0.073,0.05l-0.095-0.013l0.011-0.358l-0.013-0.042l-0.026-0.043l-0.037-0.054
	l0.011-0.054l0.07-0.072l0.018-0.05l-0.009-0.065l-0.04-0.13l-0.007-0.062l-0.037,0.063l-0.021,0.086l-0.027,0.067l-0.063,0.001
	l-0.018-0.034l0.012-0.054l-0.003-0.072l-0.024-0.06l-0.043-0.016l-0.001-0.028l-0.011-0.048v-0.027l-0.125-0.006l-0.248-0.359
	l-0.206-0.071l-0.038-0.088l-0.009-0.102l0.052-0.113l-0.011-0.096l-0.033-0.098l-0.045-0.063l0.003-0.07l-0.02-0.025l-0.03-0.007
	l-0.03-0.016l-0.017-0.017l-0.043-0.033l-0.017-0.022l-0.027-0.059l-0.019-0.024l-0.055-0.049l-0.069-0.079l-0.068-0.097
	l-0.055-0.104l-0.044-0.186l0.01-0.169l0.168-0.6l0.025-0.737l0.03-0.145l0.089-0.111l0.035-0.006l0.046,0.004l0.039-0.007
	l0.021-0.036l-0.002-0.041l-0.02-0.072l-0.011-0.05l-0.007-0.099l0.005-0.09l0.018-0.075l0.035-0.058l0.051-0.032l0.054,0.004
	l0.061,0.038l0.069,0.071l0.013,0.022l0.003,0.021l0.001,0.021l0.005,0.021l0.019,0.025l0.019,0.008l0.016,0.004l0.012,0.012
	l0.026,0.042L1058.218,494.812z M1058.877,493.668l0.048,0.071h0.037l0.062-0.062l0.074-0.034l0.044,0.001l0.062,0.023l-0.005,0.027
	l-0.009,0.018l-0.016,0.01l-0.02,0.005l-0.003,0.075l-0.13,0.011l-0.036,0.052l-0.021,0.072l-0.077,0.086l-0.011,0.104l0.045,0.014
	l0.031,0.02l0.021,0.029l0.014,0.044l-0.003,0.159l0.009,0.026l-0.04,0.01l-0.044-0.004l-0.047-0.016l-0.049-0.026l-0.165-0.133
	l-0.021-0.057v-0.041l0.014-0.091l-0.006-0.052l-0.012-0.051l-0.007-0.049l0.008-0.05l0.03-0.032l0.079-0.032l0.016-0.053l0.02-0.01
	l0.042-0.003l0.043-0.014L1058.877,493.668z M1041.055,500.234l0.034,0.081l0.016,0.027l0.021,0.017l0.03,0.14l0.002,0.03
	l-0.02,0.037l-0.024,0.003l-0.021-0.027l-0.013-0.061l-0.048-0.005l-0.02,0.054l0.002,0.085l0.032,0.135l-0.008,0.045l-0.019,0.028
	l-0.057,0.002l-0.007,0.034l-0.004,0.043l-0.012,0.031l-0.034,0.009l-0.03-0.014l-0.026-0.021l-0.021-0.012l-0.067,0.014
	l-0.021-0.012l-0.029-0.058l-0.024-0.037l-0.031-0.037l-0.027-0.04l-0.008-0.041l0.02-0.031l0.073-0.007l0.028-0.018l-0.062-0.013
	l-0.058,0.019h-0.051l-0.048-0.066l-0.015-0.091l0.037-0.037l0.114-0.008l0.228-0.073l0.043-0.041l0.025-0.055l0.033-0.04
	L1041.055,500.234z M1040.813,499.299l0.074,0.062l0.055,0.085l0.047,0.105l0.084,0.214l0.015,0.097l-0.044,0.043l-0.06,0.03
	l-0.08,0.135l-0.15-0.004l-0.047,0.058l-0.076-0.075l-0.075-0.001l-0.061,0.048l-0.034,0.07l-0.005,0.056l0.004,0.037l-0.002,0.02
	l-0.025,0.006l-0.032-0.008l-0.11-0.056l0.066,0.165l-0.016,0.005l-0.063-0.114l-0.021-0.028l-0.114-0.065l-0.039-0.034
	l-0.022-0.071l0.02-0.088l0.142-0.325l0.071-0.06l0.036-0.083l0.025-0.031l0.04-0.015l0.079-0.006l0.03-0.026l-0.032-0.048
	l-0.016-0.05V499.3l0.016-0.033l-0.029-0.043l-0.014-0.017l0.027-0.041l0.041-0.014l0.099,0.001l0.069,0.098l0.064,0.029
	L1040.813,499.299z M1052.832,494.733l-0.026,0.016l-0.026-0.009l-0.059-0.059l-0.04-0.061l0.015-0.041l0.064,0.006l0.035,0.012
	l0.021,0.027l0.024,0.061L1052.832,494.733z M1058.205,491.95l-0.075,0.076l-0.108-0.016l-0.152-0.157l0.078-0.036l0.08,0.013
	l0.145-0.027l0.085,0.025L1058.205,491.95z M1052.533,494.148l0.016,0.007l0.007,0.03l-0.005,0.049l-0.02,0.025l-0.029,0.005
	l0.064,0.027l0.003,0.017l-0.027,0.01l-0.003,0.031l0.024,0.032l0.058,0.035l0.084,0.033l0.048-0.022l0.033-0.039h0.025l-0.007,0.01
	l-0.005,0.003l0.002,0.03l-0.002,0.018l-0.011,0.036l-0.022,0.029l-0.036,0.018l-0.053,0.004l-0.06-0.018l-0.054-0.042l-0.035-0.038
	l-0.021-0.017l-0.021-0.021l-0.011-0.032l-0.026-0.025l-0.045-0.029l-0.009-0.047l0.029-0.04l0.018-0.016l0.021-0.031l0.015-0.01
	l0.013,0.002l0.023-0.025L1052.533,494.148z M1054.674,490.054l-0.012,0.059l-0.034,0.051l-0.01,0.026l-0.013,0.018l-0.02,0.004
	l0.003,0.027l0.038,0.023h0.042l0.013,0.018l-0.056,0.042l-0.026,0.037l-0.065,0.058l-0.029,0.062l-0.023,0.01l-0.022-0.004
	l-0.02-0.01l-0.016-0.043l0.001-0.084l0.013-0.061l0.046-0.105l0.029-0.022l0.032-0.013l0.018-0.016l0.007-0.019l0.028-0.033
	l0.042-0.078l0.02,0.006L1054.674,490.054z M1054.234,489.923l0.008,0.021l-0.063,0.077l0.01,0.008l0.004-0.016l0.015-0.009
	l0.02,0.005l0.018,0.058v0.023l-0.028-0.018l-0.024-0.002l-0.006,0.025l-0.02,0.008l-0.043-0.025l-0.002,0.006l0.029,0.043
	l0.019,0.041l0.023,0.04l0.006,0.042l-0.021,0.034l-0.036,0.001l-0.068-0.035l-0.008,0.008l-0.011,0.021l-0.012,0.06l-0.021,0.043
	l-0.019-0.001l-0.013-0.029l-0.004-0.019l-0.019-0.073l0.001-0.034l0.02-0.021l0.004-0.022l-0.017-0.025l-0.009-0.034l0.003-0.05
	l0.014-0.033l0.054-0.012l0.043-0.046l0.047-0.031L1054.234,489.923z M1053.264,490.906l-0.008,0.021l0.02,0.034l0.047,0.049
	l-0.011,0.011l-0.11-0.076l0.009,0.023l-0.022,0.003l-0.048-0.047l-0.035-0.079l-0.033-0.034l-0.02,0.005l-0.02-0.032l-0.034-0.083
	l-0.015-0.086l-0.005-0.064l-0.014-0.039l-0.018-0.026l-0.022-0.05l-0.067-0.126l-0.004-0.056l0.023-0.012l0.021,0.031l0.021,0.025
	l0.012,0.002h0.013l0.035,0.02l0.042,0.047l0.047,0.058l0.05,0.072l0.036,0.07l0.01,0.044l0.012,0.04l0.034,0.049l0.023,0.046
	l0.013,0.05l0.016,0.049l0.01,0.035L1053.264,490.906z M1054.698,489.533l-0.028,0.056l0.009,0.034l0.004,0.025l0.014,0.03
	l0.01,0.031l0.003,0.022v0.025l-0.002,0.032l-0.013,0.022h-0.024l-0.011,0.005l-0.003,0.02l-0.021,0.012h-0.027l-0.04-0.021
	l-0.049-0.035l-0.024-0.033l0.003-0.022l0.017-0.006l0.014-0.02l-0.021-0.024l-0.037-0.028l-0.005-0.019l0.015-0.001l0.017-0.019
	l0.009-0.037l-0.01-0.034l-0.023-0.007l-0.004-0.026l0.059-0.108l0.016-0.071l0.02-0.053l0.021-0.039l0.032-0.01l0.038,0.045
	l0.02,0.037l0.012,0.009l0.018,0.024l0.004,0.023l-0.003,0.014L1054.698,489.533z M1055.006,488.598l-0.101,0.179l-0.025-0.003
	l-0.013-0.058v-0.064l0.009-0.058l0.023-0.026l0.032,0.001l0.067-0.019l0.018,0.001L1055.006,488.598z M1054.953,488.267
	l0.005,0.016l0.007,0.013l-0.001,0.011l-0.007,0.011l-0.018,0.003l-0.033-0.01l-0.029-0.002l-0.014,0.004l-0.011,0.008l-0.03-0.009
	l-0.019-0.049l0.002-0.073l0.021-0.063l0.033-0.033l0.035-0.008l0.02,0.001l0.016-0.002l0.027,0.014l0.007,0.032l-0.008,0.031
	l-0.005,0.032L1054.953,488.267z M1054.317,488.388l0.269,0.053l-0.113,0.056l-0.055,0.009l-0.077-0.03l0.054,0.103l0.05,0.018
	l0.097-0.058l-0.016,0.113l-0.076,0.019l-0.172-0.058l-0.098,0.008l-0.014-0.008l-0.051-0.052l-0.022-0.019l-0.053-0.019
	l-0.146-0.01l0.262-0.11L1054.317,488.388z M1054.511,487.817l0.023,0.003l0.029,0.011l0.067,0.045l0.02,0.003l0.011,0.001
	l0.019,0.025l0.037,0.058l0.015,0.062l-0.014,0.051l-0.071,0.099l-0.01,0.009l-0.02-0.016l-0.009-0.037l0.009-0.018l-0.002-0.016
	l-0.018-0.026l-0.024-0.04l-0.035-0.036l-0.042-0.02l-0.042-0.026l-0.021-0.017l-0.043-0.029l0.013-0.028l0.092-0.037l0.001-0.016
	L1054.511,487.817z M1053.525,488.293l-0.032,0.025l-0.022,0.003l-0.045,0.019l0.021,0.011l0.053,0.037l0.001,0.058l-0.042,0.036
	l-0.062,0.014l-0.074-0.013l-0.058-0.021l-0.03-0.03l-0.028-0.032l-0.027-0.019l-0.015-0.036l0.026-0.035l0.294-0.036
	L1053.525,488.293z M1054.846,487.576l-0.012,0.026l-0.026-0.007l-0.019-0.03l0.002-0.039l0.03,0.002l0.024,0.025V487.576z
	 M1055.056,487.543l-0.012,0.036l-0.05-0.011l-0.05-0.03l-0.017-0.008l-0.016-0.008l-0.016-0.032l0.006-0.035l0.031-0.012
	l0.048,0.019l0.026,0.018l0.021,0.019L1055.056,487.543z M1054.877,487.4l-0.009,0.066l-0.051,0.014l-0.063-0.063l-0.006-0.083
	l0.041-0.054l0.026-0.019h0.012l0.029,0.014l0.021,0.033V487.4z M1054.107,487.076l0.014,0.003l0.008-0.004l0.087-0.078l0.008,0.026
	l-0.093,0.121l-0.021,0.093l-0.018,0.021l-0.007,0.033l0.012,0.049l-0.018,0.016l-0.047-0.01l-0.01,0.007l0.014,0.022l-0.006,0.014
	l-0.014,0.002l0.071,0.083l0.017,0.053l-0.016,0.027l-0.025-0.006l-0.029-0.035l0.083,0.154l-0.02,0.001l-0.017,0.028l0.001,0.033
	l-0.014,0.005l-0.025-0.022l-0.028-0.038l-0.033-0.037l-0.041-0.029l-0.039-0.037l-0.025-0.045l-0.018-0.018l-0.02-0.018
	l-0.009-0.041l0.014-0.03l0.028-0.014l0.029,0.001l0.045,0.043l-0.001-0.005l-0.015-0.02l-0.002-0.021l0.008-0.013l0.015-0.008
	l0.009-0.013l-0.005-0.005l-0.013,0.011l-0.015,0.005l-0.014-0.008l-0.014-0.002l-0.015,0.009l-0.014-0.013l-0.005-0.041
	l0.002-0.045l0.017-0.077l0.008-0.052l0.021-0.049l0.04-0.043l0.049-0.021h0.056l0.034,0.019L1054.107,487.076z M1054.545,486.375
	l-0.007,0.025l-0.024,0.02l-0.043,0.013l-0.029-0.007l0.038,0.157l0.004,0.049l-0.017,0.019l-0.016,0.022l-0.063-0.003l-0.037-0.05
	l-0.002-0.055l0.053-0.272l0.022-0.033l0.041,0.012l0.06,0.052l0.012,0.001l0.02,0.016l0.006,0.021l-0.008,0.004L1054.545,486.375z
	 M1054.235,486.793l-0.024,0.024l-0.031,0.01l-0.008-0.014l0.028-0.042l0.027-0.062l0.015-0.079l0.004-0.044l0.033-0.148
	l0.075-0.174l0.02,0.042l-0.007,0.087l-0.035,0.189l-0.002,0.014l-0.029,0.068l-0.002,0.016l0.007,0.014l-0.004,0.014l-0.016,0.01
	l-0.013,0.015L1054.235,486.793z M1054.139,485.465l0.013,0.027l0.003-0.007l0.002-0.007l0.006,0.001l0.015,0.012l0.015,0.027
	l0.002,0.03l-0.01,0.034l-0.027,0.029l-0.035,0.013l-0.037-0.001l-0.022-0.004l-0.001,0.016l-0.006,0.021l-0.021,0.005l-0.053,0.036
	l-0.031-0.034l-0.012-0.086l0.008-0.223l-0.009-0.072l0.011-0.019l0.025-0.001l0.03,0.01l0.039,0.024l0.042,0.044l0.033,0.061
	L1054.139,485.465z M1052.83,483.962l0.004,0.003l0.01-0.011l0.006-0.015l0.016,0.004l0.032,0.034l0.019,0.034l-0.037,0.059
	l-0.038,0.036l-0.061,0.011l-0.032-0.001l-0.022-0.022l-0.042-0.052l-0.023-0.042l-0.01-0.025l-0.006-0.034l0.006-0.018l0.011-0.005
	l-0.009-0.018l-0.063-0.039l0.003-0.027l0.049-0.01l0.045,0.011l0.032,0.021l0.024,0.03l0.025,0.013h0.027l0.024,0.021l0.015,0.029
	L1052.83,483.962z M1051.422,482.969l0.088,0.035l0.047,0.049l-0.04,0.009l-0.074-0.024l-0.035,0.005l0.054,0.057l0.209,0.183
	l0.06,0.067l0.044,0.037l0.031-0.01l0.02-0.078l0.039,0.065l0.031,0.04l0.07,0.07l0.016,0.006l0.019,0.001l0.019,0.003l0.015,0.017
	l0.016,0.05l-0.02,0.009l-0.128-0.022l-0.198-0.103l-0.161-0.021l-0.078-0.088l-0.072-0.124l-0.106-0.241l-0.029-0.053l-0.078-0.09
	l-0.009-0.039l0.02-0.022l0.044,0.005l0.022,0.02l0.049,0.036l0.021,0.022l0.01,0.018l0.007,0.025l0.011,0.028l0.021,0.027
	L1051.422,482.969z M1045.229,472.152l0.028,0.006l0.036-0.054l0.048-0.01l0.03,0.004l0.021,0.039l0.026,0.072l0.005,0.058
	l0.011,0.031v0.018l-0.027,0.005l-0.021,0.016l0.005,0.025l0.022,0.007l0.024,0.023l0.002,0.032l-0.074,0.081l-0.121,0.022
	l-0.094-0.086l-0.02-0.092l-0.011-0.069l-0.019-0.056l0.003-0.057l0.041-0.037l0.046,0.002L1045.229,472.152z M1048.558,465.173
	l-0.032,0.02l-0.021-0.049l0.012-0.152l0.012,0.001l0.021,0.029l0.013,0.057l0.005,0.049L1048.558,465.173z M1048.556,464.856
	l-0.015,0.042l-0.018,0.001l-0.014,0.008l-0.01,0.053l-0.031-0.048l-0.091-0.262l-0.004-0.045l0.007-0.03l0.013-0.019l0.004-0.051
	l0.014-0.062l0.015-0.019l0.003,0.011v0.021l0.005,0.02l0.02,0.02l0.009,0.022l-0.001,0.03l0.012,0.037l0.025,0.037l0.027,0.047
	l0.025,0.065l0.012,0.069L1048.556,464.856z M1048.374,464.456l-0.042,0.143l-0.002-0.041l-0.042-0.042l-0.026-0.004l-0.018,0.02
	l-0.015,0.033l-0.025-0.171l0.086-0.021L1048.374,464.456z M1046.732,454.579l0.01,0.051l-0.021,0.061l-0.014,0.027l-0.143,0.089
	l-0.028-0.008l-0.028-0.056l-0.012-0.061l0.015-0.023l0.027,0.006l0.023,0.023l0.031,0.009l0.02-0.05l0.007-0.07l0.036-0.02
	l0.045,0.005L1046.732,454.579z M1046.461,454.888l0.014,0.031l-0.027,0.001l-0.026-0.008l-0.023-0.003l-0.102,0.021l-0.021-0.017
	l-0.042-0.051l-0.021-0.046l-0.005-0.023l-0.027-0.052l0.001-0.038l0.033-0.016l0.09,0.009l0.026,0.025l-0.005,0.028l0.015,0.031
	l0.042,0.032l0.034,0.018l0.022,0.022L1046.461,454.888z M1046.924,454.075l-0.013,0.016l-0.035,0.007l-0.052-0.005l-0.064-0.053
	l-0.012-0.048l0.049,0.009l0.028,0.013l0.018-0.005l0.041,0.007l0.03,0.027L1046.924,454.075z M1046.317,454.314l0.016-0.006
	l0.01-0.012l0.025,0.01l0.038,0.03l0.066,0.024l0.024,0.046l-0.013,0.038l-0.025,0.004l-0.045-0.032l-0.043-0.022l-0.041-0.009
	l-0.031,0.004l-0.005,0.024l0.029,0.04l-0.003,0.01l0.009,0.018l0.02,0.026l0.042,0.031l0.016,0.019l-0.008,0.01l-0.036-0.005
	l-0.157-0.083l-0.1-0.073l-0.046-0.055l0.01-0.032l0.017-0.029l0.03-0.007L1046.317,454.314z M1046.759,453.654l0.02,0.052
	l-0.02,0.034l-0.001,0.031l0.018,0.041l0.007,0.039l-0.007,0.026l-0.023,0.004l-0.028-0.005l-0.004,0.006l0.016,0.013l-0.015,0.002
	l-0.08-0.014l-0.021-0.017l-0.031-0.039l-0.002-0.032l0.018-0.012l0.029-0.01l0.026-0.025l0.059-0.101L1046.759,453.654z
	 M1046.659,453.633l-0.01,0.048l-0.038,0.012l-0.038-0.021l-0.021-0.019l0.006-0.049l0.049-0.029L1046.659,453.633z
	 M1047.079,452.754l0.013,0.037l-0.025,0.001l-0.013,0.006l0.009,0.031l0.027,0.04l0.059,0.067l-0.038-0.005l-0.093-0.04l-0.1-0.06
	l-0.085-0.082l-0.039-0.09l0.019-0.044l0.049-0.021l0.072,0.019l0.028,0.037l-0.024,0.019l0.011,0.014l0.044,0.011l0.045,0.019
	L1047.079,452.754z M1048.446,451.73l0.019,0.048l0.007,0.039l-0.001,0.026l0.004,0.021l0.012,0.014v0.046l-0.022,0.109
	l-0.102-0.016l-0.074-0.055l-0.06-0.109l-0.002-0.035l0.038,0.038l0.025,0.01l-0.002-0.027l-0.027-0.063h0.014l0.035,0.018
	l0.029,0.003l0.024-0.006l0.013-0.026l0.003-0.037h0.016l0.022,0.019l-0.004-0.021l-0.015-0.037l0.008-0.004l0.018,0.016
	L1048.446,451.73z M1046.721,452.852l0.015,0.051l-0.092,0.027l-0.05-0.007l-0.029-0.019l-0.028-0.021l-0.016-0.031l-0.016-0.048
	l-0.033-0.066l-0.036-0.081l0.01-0.032l0.137,0.061l0.065,0.068L1046.721,452.852z M1038.441,438.726l0.104,0.024l0.031-0.018
	l0.022-0.027l0.032-0.017l0.079,0.033l0.102,0.073l0.09,0.045l0.072-0.104l0.074,0.033l0.17,0.146l0.092,0.053l0.366,0.076
	l0.048,0.03l0.036,0.039l0.028,0.041l0.035,0.041l0.052,0.042l0.14,0.074l0.076,0.077l0.06,0.13l0.037,0.032l0.026,0.042
	l0.065,0.139l0.019,0.052l0.016,0.03l0.03,0.046l0.011,0.008h0.011l0.027,0.023l0.035-0.021l0.076-0.199l0.057-0.034l0.045,0.028
	l0.05,0.046l0.246,0.282l0.032,0.042l0.038,0.039l0.207,0.076l0.072,0.021l0.278,0.146l0.148-0.009l0.071,0.051l0.05,0.094
	l0.016,0.126l-0.025,0.086l-0.091,0.118l-0.025,0.09l0.023,0.11l0.062,0.128l0.077,0.126l0.07,0.107l0.174,0.314l0.044,0.062
	l0.065,0.074l0.138,0.2l0.063,0.08l0.118,0.117l0.06,0.076l0.077,0.124l-0.001,0.07l-0.031,0.09l-0.011,0.084l0.054,0.053
	l0.028,0.127l0.015,0.114l0.035,0.113l0.093,0.118l0.108,0.06l0.062-0.041l0.048-0.075l0.065-0.046l0.169,0.028l0.132-0.038
	l0.051,0.001l0.043,0.026l0.063,0.121l0.063,0.158l0.068,0.124l0.084,0.014l0.054,0.184l0.001,0.115l-0.135,0.216l-0.008,0.064
	l0.032,0.09l0.051,0.105l0.03,0.033l0.042,0.003l0.025,0.075l0.015,0.066l0.009,0.061l0.002,0.052l0.07,0.098l0.069,0.051
	l0.069,0.038l0.108,0.082l0.031,0.015l0.033,0.023l0.038,0.054l0.037,0.067l0.03,0.043l0.027,0.034l0.039,0.04l0.159,0.136
	l0.088,0.061l0.051,0.019l0.068-0.001l0.083,0.046l0.249,0.211l0.129,0.074l0.081,0.055l0.128,0.114l0.215,0.218l0.025,0.035
	l0.019,0.051l-0.017,0.031l-0.042,0.019l-0.032,0.034l0.029,0.109l0.007,0.146l0.02,0.038l0.128,0.18l0.06,0.106l0.051,0.107
	l0.041,0.104l0.03,0.093l0.064,0.084l0.06,0.09l0.048,0.091l0.027,0.089l-0.012,0.066l-0.049,0.131l0.028,0.06l-0.007,0.07
	l-0.036,0.063l-0.018,0.068l0.046,0.083l-0.031,0.045l-0.025,0.075v0.102l0.047,0.126l0.044,0.06l0.087,0.077l0.037,0.048
	l0.042,0.069l0.063,0.089l0.038,0.071l0.023,0.057l0.022,0.076l0.026,0.053l0.037,0.054l0.092,0.102l0.09,0.125l0.208,0.225
	l0.096,0.062l0.101,0.032l0.229-0.021l0.077,0.042l0.289,0.29l0.043,0.036l0.037,0.023l0.075,0.031l0.036,0.023l0.059,0.062
	l0.191,0.229l0.046,0.075l0.06,0.116l0.096,0.081l0.104,0.073l0.154,0.18l0.151,0.104l0.051,0.093l0.012,0.115l-0.056,0.049
	l-0.153,0.032l0.028,0.024l0.013,0.015l0.01,0.007l0.025,0.003l-0.026,0.054l-0.103,0.025l-0.025,0.052l0.008,0.036l0.033,0.092
	l0.003,0.035l-0.017,0.015l-0.022-0.006l-0.025-0.011h-0.036l-0.028-0.009l-0.029-0.02l-0.025-0.031l-0.031-0.044l-0.01,0.006
	l-0.004,0.04l-0.09,0.047l-0.054,0.005l-0.056-0.056l-0.063-0.074l-0.062-0.013l-0.092,0.044l-0.014,0.039l0.018,0.14l-0.005,0.049
	l-0.022,0.011l-0.027-0.018l-0.023-0.023l-0.016-0.013l-0.146,0.077l-0.096,0.013l-0.028-0.077l-0.026-0.017l-0.021,0.019
	l-0.015,0.029l0.007,0.008l0.021,0.072l-0.003,0.023l-0.01,0.014l-0.005,0.02l0.006,0.04l0.033,0.012l0.023,0.024l0.021,0.037
	l0.025,0.053l0.019,0.044l-0.006,0.013l-0.022-0.001l-0.035,0.009l-0.049-0.017l-0.063-0.068l-0.06-0.087l-0.032-0.077l-0.036,0.028
	l-0.003,0.057l0.006,0.063l-0.005,0.049l-0.04,0.023l-0.059-0.017l-0.126-0.063l-0.043-0.006l-0.031,0.018l-0.002,0.049l0.047,0.09
	l0.05,0.055l0.052,0.03l0.095,0.033l-0.015,0.042l-0.078,0.13l-0.005,0.034l-0.004,0.079l0.055,0.096l-0.019,0.079l-0.052,0.01
	l-0.043-0.112l-0.129-0.112l-0.04-0.02l-0.111,0.038l-0.115-0.012l-0.023-0.009l-0.088-0.069h-0.032l-0.032,0.042l-0.035,0.011
	l-0.076-0.038l-0.171-0.18l-0.082-0.061l-0.321-0.106l-0.045,0.005l-0.024,0.035l0.052,0.04l0.084,0.043l0.048,0.047l0.029,0.041
	l0.078,0.127l0.045,0.063l0.035,0.046l0.032,0.05l0.036,0.079l0.023,0.076l0.01,0.067l-0.005,0.05l-0.022,0.028l-0.055-0.124
	l-0.081-0.039l-0.122,0.026l-0.015,0.033l-0.017,0.112l-0.016,0.019l-0.036-0.039l-0.02-0.062l-0.008-0.062l0.002-0.036l-0.06-0.053
	l-0.051-0.029l-0.096-0.031l-0.007-0.021l-0.018-0.056l-0.153,0.032l-0.058,0.045l0.047,0.098l-0.059,0.071l0.152,0.101l0.028,0.064
	l-0.022,0.019l-0.074,0.001l0.047,0.037l0.087,0.097l0.057,0.038l0.008,0.165l-0.097-0.002l-0.121-0.048l-0.068,0.029l0.082,0.062
	l0.063,0.031l0.057,0.004l0.141-0.03l0.063,0.02l0.072,0.067l0.097,0.132l-0.026,0.007l-0.021,0.015l-0.015,0.025l-0.006,0.037
	l-0.086-0.114l-0.072-0.039l-0.051,0.021l-0.021,0.066l0.027,0.019l0.024,0.032l0.017,0.042l0.009,0.052l0.03,0.021l0.036,0.037
	l0.077,0.087l-0.025,0.052l-0.131,0.077l0.171-0.007l0.07-0.034l-0.021-0.121l-0.038-0.048l-0.083-0.047l-0.035-0.044l-0.009-0.051
	l0.04,0.007l0.057,0.035l0.04,0.034l0.002,0.038l0.132,0.006l0.026,0.027l-0.042,0.119l0.012,0.05l0.043,0.034l0.06,0.014
	l0.089-0.008l0.023,0.015l0.041,0.043l0.075,0.094l-0.024,0.058l-0.057-0.023l-0.067-0.049l-0.055-0.015l-0.063,0.015l-0.053-0.004
	l-0.075-0.034l-0.026,0.003l-0.004,0.044l0.049,0.067l-0.061,0.011l-0.277-0.066l-0.177,0.001l-0.104-0.063l-0.048-0.021
	l-0.091,0.015l-0.109-0.054l-0.141,0.011l-0.043-0.016l-0.033-0.02l-0.091-0.079l-0.045-0.028l-0.083-0.017l-0.049-0.028
	l0.157,0.189l0.183,0.076l0.308,0.037l0.246,0.097l0.162,0.01l0.04,0.014l0.052,0.031l0.087,0.063l0.037,0.01l0.034-0.021
	l-0.021,0.072l-0.104,0.055l-0.041,0.047l-0.007,0.027l0.004,0.016l0.009,0.021l0.01,0.043l-0.008,0.028l-0.029-0.016l-0.034-0.022
	l-0.018,0.008l-0.028,0.065l-0.308,0.028l-0.035,0.028l0.181,0.13l0.084,0.035l0.026-0.049l-0.069-0.038l-0.021-0.002l0.043-0.031
	l0.197,0.112l0.078,0.024l0.023,0.078l0.022,0.066l0.013,0.055l-0.01,0.043l-0.032,0.011l-0.048-0.021l-0.098-0.078l0.014,0.071
	l0.035,0.049l0.04,0.042l0.024,0.05l-0.006,0.053l-0.035,0.026l-0.048-0.007l-0.044-0.049l-0.025,0.085l-0.038,0.061l-0.056,0.034
	l-0.196,0.005l-0.028,0.027l0.065,0.059l-0.084,0.049l-0.055,0.008l-0.09-0.076l-0.042,0.024l-0.062,0.072l0.016,0.032l0.1,0.003
	l0.025-0.016l0.017,0.032l-0.148,0.042l-0.063,0.054l0.006,0.098l0.016,0.001l0.028,0.012l0.012,0.003l-0.039,0.107l0.047-0.006
	l0.057,0.012l0.064,0.031l0.063,0.05l0.051,0.023l0.05-0.007l0.021-0.043l-0.039-0.082l0.043-0.002l0.053,0.021l0.108,0.061
	l0.094,0.03l0.057,0.042l0.035,0.076l-0.007,0.125l-0.054,0.104l-0.078,0.057l-0.086-0.017l-0.048-0.043l-0.104-0.115l-0.057-0.051
	l-0.053-0.037l-0.052-0.029l-0.051-0.014l-0.045,0.007l-0.079-0.031l-0.117-0.083l-0.109-0.061l-0.058,0.041l0.014,0.002
	l0.028,0.012l0.016,0.003l0.009,0.076l-0.075,0.045l0.012,0.082l0.278-0.041l0.095,0.038l0.242,0.188l0.186,0.102l0.305,0.249
	l0.073,0.098l-0.011,0.064l-0.101,0.061l0.04,0.02l0.035,0.039l0.026,0.053l0.045,0.165l0.024,0.023v0v0l0.035-0.004l0.058,0.014
	l-0.022,0.062l-0.162,0.073l-0.004,0.046l0.06,0.067l0.071,0.056l0.03,0.016l-0.027,0.091l-0.013,0.018l-0.023,0l-0.053-0.01
	l-0.02,0.012l0.004,0.009l0.009,0.024l0.007,0.026l0.004,0.017l-0.016,0.049l-0.007,0.053l0.019,0.05l0.056,0.041l-0.014,0.049
	l-0.222,0.131l-0.014,0.03l0.016,0.041l0.026,0.025l0.029,0.031l0.019,0.06l0.004,0.044v0.051l-0.007,0.043l-0.021,0.021
	l0.092,0.125l-0.009,0.074l-0.019,0.057l0.063,0.082l-0.014,0.045l-0.05,0.064l-0.031,0.02l-0.043-0.009l-0.04-0.049l-0.036-0.058
	l-0.027-0.034l-0.039-0.001l-0.02,0.035l0.004,0.061l0.029,0.076l0.044,0.06l0.038,0.017l0.072-0.001l0.02,0.057l0.007,0.021
	l0.061,0.032l0.044,0.002l0.075-0.035l0.101-0.1l0.156,0.003l0.068,0.021l0.052,0.067l-0.011,0.037l-0.104,0.038l-0.027,0.034
	l0.077,0.069l0.076,0.048l0.135,0.049l0.019,0.035l-0.031,0.018v0.033l0.026,0.035l0.045,0.024l0.017,0.032l-0.063-0.001
	l-0.152-0.073l-0.063-0.003l-0.061-0.018l-0.078-0.057l-0.069-0.038l-0.037,0.039l0.015,0.077l0.05,0.084l0.065,0.072l0.063,0.041
	l0.065-0.006l0.066-0.025l0.072-0.001l0.082,0.07l-0.032,0.024l0.026,0.048l0.054,0.043l0.051,0.01l0.043-0.019h0.024l0.027,0.01
	l0.023,0.02l0.051,0.058l0.014,0.011l0.023,0.008l0.065,0.059l0.025,0.007l0.011-0.023l-0.009-0.03l-0.017-0.022l-0.007,0.002
	l-0.02-0.068l-0.022-0.048l0.001-0.025l0.053,0.006l0.074,0.047l0.093,0.073l0.059,0.026l-0.044-0.137l0.017-0.009l0.028,0.011
	l0.02,0.019l0.063,0.117l0.053,0.047l0.045,0.022l0.041-0.001l0.036-0.021l-0.006,0.045l-0.013,0.04l-0.023,0.023l-0.036-0.004
	l-0.104-0.079l-0.024-0.009l-0.042,0.142l-0.033,0.064l-0.05-0.037l-0.024-0.032l-0.021-0.01l-0.016,0.008l-0.003,0.023l0.011,0.033
	l0.018,0.007l0.031-0.005l0.083,0.071l0.04,0.013l0.008-0.042l0.012-0.027l0.071-0.051l0.03-0.002l0.02,0.018l0.058,0.076
	l0.024,0.034l0.018,0.089l0.032,0.052l0.042,0.021l0.041-0.007l0.009-0.025l-0.016-0.083l0.004-0.022l0.046-0.008l0.052,0.004
	l-0.051-0.066l0.026-0.013l0.035,0.014l0.04,0.04l0.038,0.066l0.015,0.056l-0.019,0.017l-0.025,0.014l-0.01,0.043l-0.004,0.044
	l-0.031,0.056l-0.003,0.047l0.006,0.271l-0.029,0.131l-0.001,0.084l-0.022,0.071l-0.066-0.028l-0.077-0.062l-0.052-0.027
	l0.032,0.041l0.025,0.041l0.02,0.044l0.015,0.048l0.021,0.009l0.014,0.014l0.014,0.017l0.018,0.019l-0.024,0.03l-0.029,0.076
	l-0.03,0.021l-0.037-0.004l-0.022-0.012l-0.008,0.015l-0.019,0.551l-0.003,0.013l-0.075-0.002l-0.012-0.003l-0.002,0.034
	l0.029,0.176l-0.041,0.285l0.016,0.114l0.068,0.075l0.035,0.097l0.021,0.227l0.007,0.022l0.012,0.028l0.024,0.066v-0.012
	l0.014,0.016l0.017,0.026l0.012,0.019l0.006,0.018l-0.007,0.006l-0.006,0.011l0.009,0.028l0.049,0.102l0.022,0.055l-0.002,0.028
	l-0.018,0.022l-0.003,0.031l0.002,0.028l0.001,0.013l-0.026,0.051l0.006,0.089l0.05,0.188l0.047,0.179l0.005,0.055l-0.042,0.145
	l-0.085,0.047l-0.004,0.039l0.025,0.072l0.032,0.026l0.034-0.006l0.028-0.021l0.019,0.138l-0.001,0.059h-0.025l-0.103-0.095
	l-0.041-0.02l-0.039,0.009l-0.031,0.165l0.027,0.068l0.005,0.049l-0.018,0.019l-0.037-0.019l-0.009-0.062l-0.028-0.043l-0.039-0.031
	l-0.074-0.041l-0.011-0.001l0.035,0.293l-0.01,0.073l-0.063-0.009l0.032,0.035l0.012,0.026l0.008,0.029l0.02,0.045l0.069,0.102
	l0.017,0.031l0.018,0.061l0.011,0.066v0.054l-0.015,0.027l-0.043,0.002l-0.043-0.033l-0.033-0.06l-0.02-0.081l-0.026-0.046
	l-0.052-0.058l-0.058-0.044l-0.035-0.006l0.018,0.077l0.16,0.303l0.043,0.133l-0.02,0.022l-0.05-0.021l-0.053-0.045l-0.029-0.053
	l-0.012-0.063l-0.022-0.078l-0.027-0.074l-0.035-0.059l-0.006,0.084l0.019,0.125l0.043,0.132l0.072,0.107l-0.054,0.009l-0.124,0.074
	l-0.015,0.021l-0.012,0.032l-0.02,0.02l-0.033-0.015l-0.039-0.043l-0.019-0.018l-0.021-0.009l-0.041,0.009l-0.033,0.033l-0.021,0.05
	l-0.005,0.06l0.017,0.075l0.032,0.054l0.087,0.086l-0.2-0.011l-0.029,0.01l-0.01,0.052l-0.049,0.079l-0.005,0.026l0.036,0.144
	l-0.028,0.122l-0.047,0.111l-0.024,0.113l0.02,0.054l0.102,0.117l0.07,0.109l0.001,0.022l-0.039,0.04l-0.008,0.03l-0.005,0.053
	l-0.02,0.076l-0.019,0.023l-0.13-0.023l-0.042-0.068l-0.019-0.056l-0.029-0.041l-0.066-0.015l-0.005-0.022l-0.015-0.036
	l-0.005-0.018l-0.037-0.008l-0.097-0.061l-0.129,0.002l-0.045-0.024l-0.079-0.057l-0.067-0.023l-0.046,0.025l-0.021,0.085
	l0.036,0.019l0.035,0.01h0.062l0.035,0.139l0.047,0.028l0.063-0.007l0.089,0.031l-0.033,0.071l-0.021,0.028l-0.031,0.02l0.003,0.022
	l0.042,0.034l0.148,0.098l0.025,0.032l0.032,0.057l-0.01,0.022l-0.054-0.009l-0.104-0.039l-0.286-0.167l-0.069-0.007l0.019,0.042
	l0.137,0.139l-0.029,0.043l-0.063-0.023l-0.069-0.043l-0.052-0.013l-0.008,0.046l0.034,0.088l0.088,0.174l0.021,0.049l0.031,0.085
	l0.021,0.045l0.076,0.151l0.012,0.078l-0.011,0.045l-0.032-0.005l-0.05-0.081l-0.005,0.101l-0.085,0.083l-0.021,0.075l0.02,0.007
	l0.058,0.045l-0.007,0.043l0.021,0.133l0.004,0.065l0.043-0.02l0.007,0.097l-0.042,0.011l-0.138-0.076l0.019,0.123l0.065,0.047
	l0.076,0.001l0.053-0.016l0.014,0.064l-0.02,0.017l-0.029,0.007l-0.011,0.038l0.012,0.056l0.015,0.042l0.001,0.031l-0.031,0.02
	l-0.018-0.018l-0.102-0.062l-0.017-0.007l-0.033-0.024l-0.065-0.031l-0.036-0.029l-0.022-0.07l-0.042-0.023l-0.047-0.009
	l-0.043-0.018l-0.061-0.036l-0.056-0.008l-0.019,0.028l0.054,0.075l-0.02,0.028l-0.141-0.003l-0.087,0.029l-0.03,0.03l-0.017,0.046
	l0.066,0.033l0.397,0.011l-0.003,0.087l-0.05,0.058l-0.134,0.062l0.033,0.045l0.015,0.017l-0.009,0.063l-0.031,0.009l-0.048-0.032
	l-0.044-0.066l-0.045-0.078l0.033-0.04l0.101-0.045l-0.019-0.037l-0.225,0.022l-0.043,0.057l0.044,0.021l0.032,0.036l0.029,0.045
	l0.035,0.044l0.108,0.107l0.033,0.038l-0.349,0.022l-0.094,0.046l0.018,0.034l0.044-0.017l0.06,0.006l0.063,0.024l0.053,0.036
	l0.044,0.047l0.041,0.057l0.021,0.052l-0.021,0.034l-0.053-0.002l-0.06-0.02l-0.05,0.002l-0.024,0.059l0.009,0.055l0.02,0.059
	l0.012,0.062l-0.01,0.06l0.07-0.031l-0.046,0.13l-0.022,0.023l0.001,0.033l0.045,0.125l-0.003,0.035l-0.03-0.008l-0.128-0.089
	l-0.044-0.014l-0.038,0.001l-0.029,0.022l-0.016,0.046l0.097,0.032l0.056,0.026l0.057,0.054l-0.15,0.027l-0.012-0.008l-0.044-0.045
	l-0.021-0.016l-0.023-0.005l0.004,0.02l0.013,0.028l0.004,0.019l0.006,0.006l-0.003,0.071l-0.031,0.059l-0.104,0.085l0.074,0.025
	l0.527-0.237l0.068,0.005l0.072,0.046l0.049,0.068l-0.005,0.032l-0.042-0.012l-0.057-0.064l-0.015,0.006l0.03,0.104l-0.037,0.043
	l-0.067,0.005l-0.161-0.028l-0.02,0.036l0.027,0.106l0.139,0.042l0.039,0.004l0.058-0.065l0.039-0.023l0.043,0.027l0.029,0.112
	l-0.077,0.048l-0.172,0.018l0.065,0.056l0.123,0.005l0.048,0.043l0.018,0.047l-0.003,0.041l-0.013,0.03l-0.044,0.037l-0.01,0.028
	l-0.004,0.031l-0.011,0.028l-0.035,0.044l-0.021,0.013h-0.048l-0.034,0.012l-0.019-0.001l-0.015-0.013l-0.016-0.021l-0.019-0.031
	l-0.118-0.073l-0.051-0.021l-0.041,0.016l0.014,0.017l0.035,0.048l-0.102,0.042l0.016,0.031l0.032,0.01l0.022,0.033l0.011,0.045
	l0.003,0.05l0.061,0.009l0.022-0.122l0.059,0.015l0.026,0.175l-0.004,0.071l-0.028,0.04l-0.009,0.029v0.049l-0.01,0.032l-0.04-0.02
	l-0.018-0.032l-0.007-0.043l-0.001-0.04l0.002-0.022l-0.039-0.005l-0.002,0.046l0.015,0.07l0.008,0.065l-0.02,0.057l-0.038,0.024
	l-0.098,0.023l-0.013-0.052l-0.004-0.021l-0.051-0.02l-0.045,0.007l-0.079,0.042l0.01-0.107l0.196-0.049l0.011-0.103l-0.108-0.006
	l-0.056-0.015l-0.056-0.046v-0.012l-0.002-0.006v-0.006l-0.002-0.014l-0.04,0.035l-0.043,0.087l-0.028,0.104l0.006,0.084
	l-0.006,0.025l-0.041-0.002l-0.049-0.016l-0.03-0.019l-0.026-0.042l-0.081-0.177l-0.011-0.013l-0.042-0.036l-0.017-0.025
	l-0.008-0.027l-0.002-0.051l-0.003-0.018l-0.048-0.072l-0.024,0.01l-0.021,0.039l-0.031,0.012l-0.033-0.031l-0.124-0.168
	l-0.039-0.034l-0.037-0.024l-0.037-0.016l-0.037-0.007l0.003-0.029l-0.01-0.091l-0.043,0.027l-0.028,0.102l-0.021,0.033
	l-0.049-0.005l-0.056-0.029l-0.047-0.016l-0.024,0.038l0.38,0.148l0.113,0.078l0.084,0.081l0.127,0.138l0.1,0.143l0.007,0.099
	l0.018,0.037l0.126,0.033l0.039,0.021l0.045,0.031l0.017,0.014l0.043,0.098l0.042,0.048l0.128,0.092l0.061,0.086l0.022,0.058
	l0.021,0.093l0.018,0.029l0.034,0.043l0.004,0.028l-0.015,0.019l-0.018,0.011l-0.02-0.003l-0.07-0.027l-0.028-0.001l-0.129,0.055
	l0.071,0.046l0.394,0.023l0.028,0.054l0.027,0.04l0.029,0.025l0.032,0.013l-0.037,0.037l-0.078,0.223l-0.021-0.01l-0.033-0.061
	l-0.087-0.14l-0.015-0.03l-0.014-0.012l-0.029,0.007l-0.006,0.021l0.009,0.042l0.053,0.166l0.018,0.043l0.016,0.036l0.013,0.044
	l-0.009,0.026l-0.035,0.042l0.062,0.055l-0.002,0.159l-0.013,0.072l-0.031,0.036l-0.031-0.008l-0.068-0.051l-0.025-0.006
	l-0.108,0.045l-0.068,0.076l-0.025,0.06v0.066l0.042,0.083l0.049,0.016l0.054,0.005l0.056,0.055l-0.283,0.101l-0.039-0.004
	l-0.034-0.012l-0.074-0.056l-0.016-0.005l-0.192-0.165l-0.165-0.115l-0.033-0.011l-0.03,0.044l0.035,0.131l-0.022,0.042
	l-0.039,0.026l-0.021,0.044l0.002,0.061l0.035,0.077l0.176,0.133l0.014,0.016l0.023,0.038l0.023,0.044l0.011,0.031l-0.005,0.029
	l-0.02,0.021l-0.023,0.014l-0.023,0.005l0.04,0.02l0.044,0.031l0.038,0.048l0.019,0.068l0.022,0.053l0.046,0.055l0.052,0.041
	l0.036,0.011l0.058-0.044l0.032-0.005l0.056,0.028l0.038,0.037l0.039,0.047l0.041,0.041l0.037,0.017l0.015,0.031l-0.021,0.007
	l-0.009,0.013l-0.012,0.042l0.239,0.042l0.031-0.042l0.079-0.007l0.091,0.015l0.063,0.024l-0.11,0.208l-0.046,0.038l-0.018-0.021
	l-0.002-0.15l-0.047-0.011l-0.033,0.026l-0.017,0.049v0.056l0.026,0.077l0.04,0.078l0.039,0.069l0.024,0.045l0.017,0.071
	l0.001,0.018l0.004,0.1l0.018,0.074l0.042,0.099l0.03,0.06l0.008,0.045l-0.024,0.059l0.062,0.01l0.011,0.075l-0.019,0.138
	l0.036,0.014l0.054,0.032l0.038,0.037l-0.011,0.029l-0.095,0.061l-0.015,0.025l0.012,0.057l0.032,0.052l0.015,0.046l-0.037,0.037
	l-0.014,0.023l0.004,0.043l0.018,0.056l0.029,0.062l0.037,0.059l0.071,0.074l0.023,0.035l0.009,0.036l-0.018,0.038l0.005,0.027
	l-0.006-0.008l0.016,0.038l0.02,0.039l0.003-0.001l0.007,0.001l0.017,0.008l0.017,0.025l0.008,0.048v0.027l0.003,0.027l0.01,0.027
	l0.021,0.024l0.036,0.008l0.096-0.08l0.012,0.05l-0.003,0.039l-0.012,0.026l-0.022,0.016l0.019,0.036l0.047,0.009l0.03,0.053
	l0.027,0.076l0.035,0.08l0.055,0.085l0.029,0.019l0.092-0.074l0.025-0.039l0.034-0.022l0.062,0.028l0.055,0.046l0.039,0.05
	l0.025,0.055l0.01,0.061l0.016,0.071l0.034,0.086l0.022,0.077l-0.018,0.045l-0.045,0.014l-0.041-0.002l-0.043-0.021l-0.053-0.039
	l-0.179-0.177l-0.083-0.062l-0.09-0.016l0.034,0.062l0.034,0.044l0.071,0.076l-0.092,0.01l-0.048-0.028l-0.028-0.077l-0.117-0.048
	l-0.104,0.01l-0.181,0.084l0.054,0.044l0.041,0.005l0.072-0.034l0.195,0.039l0.02,0.089l-0.042,0.081l-0.065,0.061l-0.054,0.026
	l0.016,0.034l0.019-0.001l0.058,0.014l-0.047,0.054l-0.121-0.005l-0.024,0.066l0.31-0.044l0.078,0.044l-0.032,0.049l-0.042,0.007
	l-0.104-0.022l-0.052,0.008l-0.14,0.07l0.015,0.034l0.075-0.036l0.042,0.004l0.049,0.043l-0.068,0.087l-0.094,0.056l0.081,0.03
	l0.249-0.042l0.016,0.034l-0.211,0.076l-0.01,0.036l0.031,0.017l0.058-0.001l0.061,0.026l0.062-0.006l0.029,0.003l0.018,0.036
	l-0.09,0.037l0.015,0.031l0.105,0.009l0.031,0.018l0.038,0.055l0.003,0.037l-0.009,0.037l0.001,0.057l0.034,0.036l0.027,0.037
	l0.032,0.027l0.032,0.011l0.027-0.012l0.001-0.03l-0.001-0.035l0.013-0.023l0.022,0.009l0.02,0.033l0.005,0.039l-0.013,0.024
	l-0.023,0.015l-0.019,0.022l-0.01,0.031l-0.004,0.039l-0.033-0.032l-0.048-0.035l-0.031-0.008l0.024,0.1l-0.021,0.061l0.015,0.052
	l0.023,0.024l0.119,0.092l0.094,0.04l0.09,0.007l0.029,0.052l0.214,0.045l-0.056,0.045l-0.077,0.014l-0.17-0.018l0.078,0.083
	l0.079,0.021l0.077-0.003l0.07,0.012l-0.097,0.033l-0.045,0.003l-0.17-0.075l-0.045-0.002l-0.048,0.012l0.016,0.034l0.065,0.007
	l0.099,0.042l0.104,0.061l0.081,0.063l0.084,0.106l-0.014,0.058l-0.042,0.055l-0.005,0.093l0.105,0.033l0.047,0.127l0.004,0.046
	l-0.016,0.053l0.076,0.047l0.037,0.059l-0.007,0.049l-0.055,0.024l0.031,0.005l0.061-0.023l0.027,0.006l0.023,0.024l0.02,0.032
	l0.007,0.029l-0.011,0.018l-0.009,0.03l0.009,0.059l0.021,0.07l0.023,0.065l0.018,0.017l0.028,0.019l0.03,0.012l-0.021,0.07
	l-0.01,0.019l0.106-0.067l0.056-0.014l0.05,0.037l-0.112,0.092l-0.016,0.078l0.044,0.142l0.024,0.06l0.012,0.019l0.072,0.035
	l0.041-0.011l0.022,0.004l0.022,0.063l0.021,0.03l0.047,0.051l0.014,0.012l0.024-0.04l0.022,0.002l0.021,0.018l0.21,0.243
	l-0.015,0.013l-0.013,0.022l-0.006,0.026l0.007,0.028l0.035,0.053l0.017-0.004l0.014-0.018l0.025,0.013l0.035,0.061l0.02,0.052
	l0.021,0.041l0.048,0.028l0.049-0.003l0.032-0.017l0.019,0.012l0.008,0.08l-0.011,0.045l-0.05,0.073l-0.023,0.103l-0.051,0.101
	l-0.04,0.043v0.027l0.011,0.021l0.02,0.005l0.024-0.017l0.036-0.045l0.021-0.016l0.053-0.002l0.076,0.052l0.087,0.003l0.173,0.065
	l-0.058,0.103l0.017,0.033l0.048,0.014l0.047-0.011l0.032-0.027l0.006-0.006l0.017-0.051l0.026-0.044l0.267-0.177l0.063-0.02
	l0.062,0.024l0.054,0.029l0.107,0.022l0.053,0.037l-0.006,0.054l-0.053,0.085l-0.005,0.028l0.04,0.068l0.084,0.093l0.031,0.048
	l0.077,0.088l0.098,0.024l0.169-0.039l-0.018-0.036l-0.098-0.125l0.011-0.17l0.067-0.155l0.189-0.167l0.067-0.023l0.085,0.03
	l0.125,0.147l0.023,0.06l0.012,0.054l-0.004,0.044l-0.014,0.031l0.017,0.033l0.06-0.019l0.074,0.017l0.157,0.073l0.104,0.03
	l0.023,0.025l0.052,0.072l0.021,0.023l0.123,0.083l0.111,0.036l0.222-0.001l-0.023,0.042l-0.026,0.087l-0.008,0.054l0.017,0.035
	l0.052,0.028l0.027,0.019l0.03,0.024l0.019-0.048l0.022-0.098l0.029-0.045l0.032-0.026l0.031-0.005l0.089,0.007l0.15-0.073
	l0.06,0.016l0.005,0.016l0.018,0.039l0.022,0.045l0.02,0.033l0.019,0.011l0.073,0.028l0.016,0.032l-0.023,0.021l-0.029,0.006
	l-0.024,0.014l-0.011,0.038l0.366-0.006l0.136,0.062l-0.065,0.09l-0.433,0.006l-0.114-0.063l-0.211-0.149l0.111,0.154l0.149,0.092
	l0.153,0.068l0.128,0.082l-0.036,0.021l-0.042-0.013l-0.092-0.054l0.072,0.108l0.077,0.048l0.146,0.035l0.09,0.049l0.042,0.011
	l0.036-0.017l0.019-0.025l0.008-0.035l-0.01-0.041l-0.003-0.009l0.07,0.143l0.038,0.068l0.027,0.033l0.119,0.139l0.044,0.063
	l0.014-0.006l-0.022-0.076l-0.043-0.092l-0.054-0.087l-0.055-0.061l0.033-0.049l0.051-0.038l0.063-0.013l0.116,0.048l0.087-0.011
	l0.059,0.039l0.049,0.072l0.076,0.165l0.049,0.061l0.171,0.109l0.048,0.052l-0.094-0.108l-0.102-0.1l-0.082-0.114l-0.04-0.149
	L1053,484.2l0.039,0.005l0.018,0.016l0.03,0.078l0.045,0.077l0.04,0.055l0.271,0.309l0.186,0.184l0.073,0.042l0.112-0.008
	l0.068,0.013l0.054,0.019l0.015,0.007l0.007,0.011l0.017,0.04l0.007,0.011l0.062,0.041l0.022,0.006l0.025-0.014l-0.016-0.021
	l-0.032-0.049l-0.016-0.02l0.043-0.009l0.049,0.004l0.025,0.071l0.091,0.189l0.022,0.038l-0.076,0.027l-0.042-0.011l-0.299-0.21
	l-0.121-0.068l-0.087-0.01l0.052,0.05l0.149,0.114l0.051,0.076l0.013,0.088l-0.022,0.293l-0.022,0.052l-0.043,0.036l-0.1,0.038
	l-0.043,0.035l-0.016,0.055l0.022,0.07l0.04-0.019l0.06-0.084l0.542-0.279l0.125,0.018l0.029,0.116l-0.005,0.08l-0.03,0.058
	l-0.112,0.104l-0.041,0.019l-0.045-0.006l-0.039-0.027l-0.059-0.06l-0.029-0.018l0.014,0.093l-0.018,0.082l-0.032,0.065
	l-0.139,0.127l-0.027,0.072l0.028,0.069l-0.075,0.04l-0.008,0.018l0.018,0.043l0.007,0.037l-0.004,0.029l-0.011,0.023l0.107-0.047
	l0.004,0.043l-0.005,0.055l-0.012,0.049l-0.015,0.024l-0.029-0.003l-0.032-0.02l-0.031-0.014l-0.03,0.011l0.088,0.068l0.041,0.045
	l-0.01,0.032l-0.021,0.028l-0.021,0.089l-0.072,0.087l-0.06,0.188l-0.101,0.109l-0.028,0.084l-0.029,0.189l-0.041,0.102
	l-0.068,0.049l-0.181,0.054l0.017,0.032l0.107,0.031l-0.017,0.043l-0.064,0.018l-0.025,0.025l0.052,0.007l0.057,0.024l0.018,0.071
	l0.057,0.023l0.065-0.004l0.047-0.014l-0.041,0.084l-0.136,0.055l-0.154,0.012l-0.1-0.041l0.017-0.029l0.022-0.021l0.03-0.008
	l0.037,0.012l-0.026-0.036l-0.056-0.092l-0.026-0.022l-0.03,0.006l-0.024,0.074l-0.022,0.029l-0.023-0.003l-0.047-0.032l-0.02-0.001
	l-0.008,0.017l-0.007,0.054l-0.01,0.014l-0.013,0.034l0.026,0.052l0.041,0.049l0.034,0.027l-0.048,0.085l-0.022,0.019l-0.029,0.002
	l-0.068-0.02h-0.033l0.464,0.187l-0.069,0.055l-0.04,0.004l0.026,0.055l0.175-0.075l0.034-0.059l0.027-0.003l0.047,0.053
	l0.015-0.005l-0.023-0.236l0.112-0.123l0.175-0.041l0.165,0.016l-0.005,0.021l-0.006,0.044l-0.004,0.02l0.078-0.006l0.026-0.021
	l0.001-0.062l-0.139-0.132l-0.048-0.058l0.106-0.047l-0.122-0.027l-0.063-0.028l-0.063-0.069l0.135-0.047l0.072,0.003l0.085,0.031
	l0.012,0.016l0.04,0.057l0.013,0.017l0.199,0.028l0.004,0.07l-0.039,0.017h-0.055l-0.046,0.013l0.065,0.009l0.09-0.008l0.091,0.011
	l0.069,0.063l0.019,0.078l-0.028,0.052l-0.111,0.058l-0.031,0.027l-0.025,0.036l-0.033,0.024l-0.047-0.005l-0.039-0.011
	l-0.075,0.007l-0.032,0.01l-0.171,0.112l-0.074-0.003l-0.007-0.024l-0.02-0.059l-0.007-0.023l-0.046,0.017l-0.029,0.038
	l-0.019,0.051l-0.012,0.061l0.04,0.009l0.041,0.021l0.039,0.029l0.035,0.029l0.016,0.032l-0.076,0.031l-0.013,0.033l0.043,0.052
	l0.17,0.022l0.062-0.005l0.085,0.022l0.089,0.047l0.074,0.071l-0.295-0.093l-0.044,0.03l0.026,0.057l0.053,0.019l0.056-0.003
	l0.036-0.009l0.029,0.022l0.042,0.051l0.039,0.029l0.028-0.048l0.002,0.021l0.003,0.018v0.018l-0.005,0.021l0.018,0.032l0.044-0.054
	l0.024-0.008l0.031,0.039l0.021,0.058l0.006,0.051l-0.013,0.028l-0.038-0.014l-0.054,0.011l-0.07,0.065l-0.058,0.084l-0.015,0.067
	l0.021-0.019l0.024-0.004l0.029,0.013l0.029,0.034l-0.156,0.203l-0.059,0.045l0.018-0.04l0.041-0.069l0.018-0.04l-0.047-0.019
	l0.008-0.022l0.01-0.02l-0.015-0.028l-0.039,0.011l-0.03,0.024l-0.02,0.039l-0.006,0.056l-0.015,0.037l-0.071,0.042l-0.021,0.03
	l-0.005,0.041l0.006,0.132l-0.017,0.034l-0.123,0.046l0.016,0.021l0.034,0.051l0.016,0.02l-0.072-0.007l-0.025,0.015l-0.011,0.04
	l0.07,0.057l0.005,0.094l-0.015,0.116l0.016,0.124l0.031,0.054l0.029,0.03l0.022,0.036l0.01,0.072l-0.012,0.048l-0.028,0.04
	l-0.04,0.019l-0.043-0.015l0.015,0.063l0.027,0.065l0.065,0.134l-0.044-0.018l-0.046-0.035l-0.035-0.05l-0.016-0.068l-0.046-0.054
	l-0.016-0.016l-0.035-0.018l-0.017,0.007l-0.01,0.017l-0.017,0.007l-0.049-0.011l-0.034-0.017l-0.088-0.073l-0.045-0.021
	l0.035,0.061l0.076,0.09l0.075,0.064l0.014,0.093l0.002,0.037l-0.009,0.02l-0.023-0.017l-0.021-0.051l-0.018-0.057l-0.008-0.039
	l-0.095-0.005l-0.048-0.084l-0.039-0.11l-0.066-0.078l-0.017-0.035l-0.001-0.083l-0.059-0.148l-0.069-0.141l-0.034-0.062
	l-0.016-0.019l-0.024-0.124l-0.027-0.054l-0.035-0.015l-0.023,0.028l-0.008,0.05l0.01,0.051l0.067,0.146l0.021,0.073l-0.01,0.039
	l-0.031-0.011l-0.134-0.076l-0.027-0.071l-0.005-0.125l-0.019-0.067l-0.034-0.051l-0.045-0.04l-0.045-0.031l-0.039-0.021
	l0.109,0.146l0.007,0.083l-0.005,0.067l-0.018,0.055l-0.033,0.047l0.068,0.09l0.039,0.105l0.04,0.09l0.069,0.048l0.013,0.083
	l0.032,0.109l0.018,0.075l-0.033-0.013l-0.012,0.038v0.001l-0.003,0.022v0.025l0.03,0.019l0.028,0.012l0.026,0.003l0.024-0.003
	l0.014,0.032l-0.003,0.048l0.037,0.006l0.043,0.017l0.016,0.081l-0.024,0.056l-0.052,0.013l-0.059-0.001l-0.051,0.012l0.05,0.048
	l0.052,0.03l0.101,0.031l0.015,0.029l-0.049,0.021l0.025,0.014l0.023,0.006l-0.065,0.024l-0.243-0.076l-0.095-0.01l0.015,0.032
	l0.056,0.016l0.034,0.047l0.047,0.15l0.019,0.086l0.013,0.037l0.023,0.007l0.021,0.001l0.08,0.03l-0.048,0.066l-0.313,0.048
	l0.139,0.094l0.046,0.064l-0.015,0.08l-0.122,0.044l-0.059,0.045l0.04,0.084l-0.263,0.103l-0.083,0.004l-0.04-0.021l-0.085-0.062
	l-0.039-0.003l-0.021,0.022l-0.047,0.072l-0.037,0.027l0.041,0.006l0.077-0.02l0.04,0.024l0.02,0.041l0.005,0.044l-0.005,0.039
	l-0.008,0.022l0.063,0.014l0.091-0.053l0.054-0.006l0.013,0.028l-0.023,0.084l-0.004,0.078l-0.014,0.056l-0.056,0.018l-0.18-0.037
	l-0.091,0.018l-0.012,0.096l0.112-0.04l0.059,0.021l0.079,0.071l-0.053,0.021l-0.169,0.159l-0.844,0.226l-0.846,0.22l0.017,0.035
	l0.036,0.003l0.04,0.022l0.028,0.036l0.004,0.046l-0.03,0.025l-0.108,0.015l-0.036,0.031l0.013,0.028l0.021-0.028l0.025-0.021
	l0.028,0.003l0.037,0.043l0.031-0.053l0.13,0.015l0.029-0.06l0.009-0.068l0.023-0.027l0.037,0.005l0.079,0.045l0.012,0.002
	l0.01,0.015l0.027,0.063l0.03,0.036l0.033,0.006l0.028-0.016l0.011-0.029l-0.011-0.063l-0.022-0.079l-0.016-0.074l0.007-0.052
	l0.037-0.003l0.15,0.024l0.045,0.016l0.268-0.121l0.059,0.001l0.069,0.037l0.043,0.011l0.101-0.025l0.062,0.027l-0.016-0.021
	l-0.03-0.05l-0.016-0.021l0.096-0.004l0.029-0.01l0.019,0.096l0.05,0.068l0.065,0.033l0.066-0.012l-0.009,0.036l-0.007,0.011
	l0.012,0.026l0.063-0.026l0.017,0.035l-0.003,0.053l0.041,0.012l0.102-0.008l0.187,0.074l-0.038,0.058l-0.114,0.051l-0.039,0.046
	l0.052,0.059l-0.027,0.073l-0.063,0.065l-0.052,0.034l-0.01,0.017l-0.008,0.054l-0.007,0.016l-0.02,0.004l-0.042-0.011l-0.02-0.001
	l-0.311,0.06l-0.178-0.036l-0.267,0.01l-0.048,0.067l0.089-0.022l0.619,0.08l0.082-0.021l0.041,0.01l0.049,0.05l0.021,0.043
	l0.01,0.042l0.015,0.04l0.03,0.037l0.02-0.011l0.027-0.034l0.02-0.037l-0.004-0.019l0.039,0.012l0.023,0.021l0.061,0.106
	l-0.364,0.07l0.062,0.034l0.118,0.037l0.055,0.025l0.015,0.053l0.021,0.03l0.034,0.002l0.023-0.015l0.004-0.023l-0.014-0.029
	l-0.035-0.037l0.121-0.086l0.051-0.01l0.019,0.094l-0.011,0.012l-0.043,0.007l-0.013,0.007l0.005,0.016l0.012,0.028l0.013,0.033
	v0.025l-0.018,0.028l-0.079,0.05l0.016,0.032l0.059-0.008l0.223,0.04l-0.01,0.036l-0.005,0.011l0.045,0.017l0.049,0.038l0.046,0.055
	l0.038,0.063l0.025,0.063l-0.007,0.017l-0.026-0.004l-0.033,0.001l-0.013,0.021l0.022,0.026l0.034,0.023l0.031,0.009l-0.008,0.178
	l-0.171-0.036l-0.216-0.109l-0.143-0.039l0.072,0.067l0.137,0.057l0.072,0.067l-0.017,0.005l-0.03,0.017l-0.016,0.004l0.094,0.069
	l0.133,0.08l0.088,0.07l-0.037,0.044l0.035,0.057l0.002,0.039l-0.02,0.023l-0.038,0.007l0.067,0.019l0.05,0.002l0.049,0.014
	l0.065,0.055v0.046l-0.016,0.02l-0.027-0.005l-0.035-0.028l-0.046,0.075l0.003,0.033l0.054,0.038l-0.064-0.014l-0.115-0.12
	l-0.038-0.003l-0.008,0.063l0.043,0.056l0.104,0.09l0.025-0.018l0.038-0.007l0.002,0.004l0.066,0.076l0.039,0.031l0.017-0.032
	l0.007-0.044l0.022,0.003l0.032,0.041l0.038,0.072l0.025,0.021l0.101,0.053l0.037,0.03l-0.04,0.016l-0.118-0.026l0.054,0.061
	l0.102,0.042l0.031,0.047l-0.002,0.061l-0.041,0.015l-0.054-0.012l-0.048-0.023l-0.1-0.096l-0.024-0.005l0.036,0.099l-0.005,0.041
	l-0.047,0.022l-0.102,0.021l-0.012-0.044l-0.018-0.04l-0.027-0.036l-0.033-0.032l0.025-0.015l0.026-0.005l0.029,0.003l0.031,0.011
	l-0.471-0.234l-0.021,0.012l-0.008,0.031l0.012,0.045l0.021,0.029l0.033,0.025l0.106,0.066l0.168,0.013l-0.005,0.019l-0.007,0.048
	l-0.005,0.019l0.037,0.041l0.022,0.042l0.007,0.041l-0.01,0.037l-0.067-0.033l-0.063-0.015l-0.121,0.001l0.06,0.047l-0.001,0.041
	l-0.023-0.009l-0.057,0l0.018,0.034l0.787,0.395l0.103,0.033l-0.002,0.038l-0.047,0.001l-0.151-0.039l-0.053-0.025l-0.325-0.224
	l-0.407-0.14l0.058,0.075l0.051,0.042l0.121,0.052l0.18,0.045l0.165,0.097l0.037,0.032l0.031,0.031l0.03,0.02l0.035,0l0.034,0.007
	l0.126,0.061l0.049,0.031l-0.014,0.046l0.048-0.021l0.051,0.001l0.052,0.028l0.055,0.055l-0.052,0.021l0.016,0.031l0.031-0.013
	l0.016,0.035l-0.166,0.047h-0.085l-0.099-0.019l0.036,0.036l0.068,0.035l0.032,0.022l0.058,0.063l0.012,0.041l-0.026,0.02
	l-0.063-0.003l0.043,0.04l0.033,0.001l0.029-0.006l0.037,0.021l0.04,0.052l-0.001,0.024l-0.018,0.02l-0.01,0.033l-0.008,0.041
	l-0.033,0.094l-0.013,0.02l-0.021-0.012l-0.026-0.041l-0.023-0.052l-0.019-0.045l-0.009,0.031l-0.019,0.016l-0.024,0.001
	l-0.032-0.014l0.049,0.044l0.021,0.013l0.025,0.012l-0.011,0.07l-0.01,0.017l0.015,0.032l0.064,0.01l0.015,0.031l-0.063,0.027
	l0.014,0.029l0.187-0.069l0.103,0.001l0.156,0.162l0.11,0.097l0.059,0.074l-0.079,0.008l0.065,0.063l-0.004,0.026l-0.031,0.018
	l-0.021,0.039l0.014,0.06l0.035,0.042l0.05,0.021l0.055-0.002l-0.026,0.045l-0.037,0.032l-0.012,0.044l0.054,0.078l-0.154,0.027
	l-0.049,0.047l0.019,0.114l0.11,0.029l-0.002,0.052l-0.017,0.03l0.004,0.021l0.058,0.029l-0.132,0.189l0.003,0.104l0.132,0.125
	l-0.036,0.096l0.032,0.117l0.072,0.116l0.087,0.088l0.126,0.098l0.043,0.022l0.031,0.004l0.012-0.012l0.015-0.004l0.039,0.027
	l0.092,0.09l-0.023,0.041l0.039,0.047l0.062,0.046l0.043,0.042l-0.027,0.015l-0.102,0.001l-0.01-0.011l-0.005-0.023l-0.01-0.02
	l-0.021-0.002l-0.014,0.011l-0.003,0.013l0.001,0.013v0.007l-0.005,0.015l0.006,0.025l0.008,0.027l0.003,0.021l-0.007,0.011
	l-0.012-0.004l-0.015-0.007l-0.043,0.007l-0.069-0.002l-0.031,0.011l0.034,0.026l0.032,0.02l0.029,0.011l0.028,0.004l0.017,0.034
	l-0.048,0.021l-0.012,0.057l0.022,0.079l0.058,0.091l0.049,0.046l0.045,0.025l0.032,0.027l0.012,0.053l-0.006,0.151l0.014,0.03
	l0.065,0.119l0.022,0.05l0.014,0.048l0.037,0.248l0.018,0.043l0.043,0.043l0.041,0.01l0.021-0.031l0.012-0.043l0.02-0.028
	l0.028,0.007l0.022,0.034l0.013,0.043l0.001,0.034l-0.022,0.024l-0.08-0.006l-0.041,0.006l-0.032,0.028l-0.029,0.062l-0.032,0.024
	v0.029l0.041,0.047l0.079,0.08l0.075,0.143l0.034,0.084l0.013,0.072l-0.017,0.045l-0.033,0.032l-0.042,0.011l-0.082-0.027
	l-0.027,0.021l-0.019,0.034l-0.021,0.023l-0.016,0.026l-0.006,0.045l0.006,0.15l0.005,0.027l0.012,0.023l0.02,0.049l0.034,0.102
	l0.044,0.108l0.006,0.051l-0.065,0.034l0.005,0.051l0.025,0.094l-0.006,0.287l0.021,0.185l0.105,0.407l0.102,0.395l-0.005,0.03
	l-0.021,0.027l0.003,0.043l0.012,0.049l0.003,0.045l-0.016,0.07l-0.053,0.129l-0.014,0.074l0.01,0.383l-0.021,0.096l-0.045,0.009
	l-0.064-0.027l-0.087-0.011l0.004-0.182l-0.022-0.095l-0.066-0.02l-0.098,0.1l-0.063,0.022l-0.081-0.063l-0.018,0.032l-0.02-0.008
	l-0.023-0.02l-0.029-0.004l-0.033,0.003l-0.055-0.028l-0.022-0.001l-0.022,0.056l-0.013,0.095l-0.03,0.059l-0.069-0.048l0.004-0.035
	l-0.001-0.062l-0.015-0.056l-0.033-0.013l-0.028,0.024l-0.055,0.118l-0.078,0.096l-0.006,0.029l0.028,0.072l-0.003,0.022
	l-0.069-0.022l-0.028-0.015l-0.034-0.023l-0.039-0.018l-0.042,0.003l-0.031,0.022l-0.017,0.031l-0.013,0.08l0.005,0.05l0.013,0.03
	l-0.002,0.022l-0.107,0.049l-0.038,0.004l-0.041-0.015l0.035-0.046l0.02-0.009l-0.034-0.038l-0.104-0.094l-0.017,0.099l-0.068,0.101
	l-0.095,0.06l-0.099-0.022l-0.026-0.012l-0.017,0.015l-0.011,0.024l-0.015,0.017l-0.093,0.037l-0.026-0.009l-0.045-0.076
	l-0.027-0.022l-0.016,0.009l-0.05,0.048l-0.021,0.012l0.02,0.025l0.051,0.064l0.021,0.023l-0.18-0.012l-0.094,0.016l-0.045,0.063
	l-0.048,0.036l-0.088,0.016l-0.061,0.026l0.037,0.074l-0.038,0.04l-0.056-0.018l-0.066-0.035l-0.065-0.01l-0.122,0.048l-0.046,0.05
	l-0.009,0.078l0.009,0.041l0.02,0.055l0.023,0.046l0.026,0.014l0.042,0.001l0.031,0.027l0.03,0.038l0.03,0.031l0.117,0.082
	l0.049,0.048l0.061,0.071l-0.021,0.026l-0.02,0.039l-0.015,0.045l-0.006,0.042l-0.011,0.026l-0.021-0.014l-0.032-0.043l-0.05,0.019
	l-0.001,0.042l-0.007,0.023l-0.023,0.002l-0.023-0.005l-0.02,0.001l-0.069,0.027l-0.027,0.005l-0.015-0.016l0.018-0.056
	l-0.032-0.018l-0.032-0.024l-0.03-0.036l-0.024-0.056l-0.023,0.085l-0.041-0.023l-0.021-0.017l0.001-0.014l-0.025,0.025
	l-0.038,0.065l-0.019,0.018l-0.06,0.041l-0.029,0.058l-0.023,0.162l-0.042,0.153l-0.033,0.069l-0.039,0.038l-0.032,0.058
	l0.006,0.099l0.013,0.095l-0.012,0.05l-0.076,0.096l-0.025,0.178l0.018,0.214l0.058,0.198l0.064,0.177l0.036,0.073l0.061,0.068
	l0.064,0.039l0.13,0.039l0.057,0.045l0.026,0.047l0.02,0.05l0.025,0.049l0.045,0.047l0.041,0.026l0.08,0.037l0.182,0.136l0.06,0.074
	l0.032,0.103l-0.01,0.073l-0.065,0.21l-0.029,0.048l-0.017,0.044l-0.021,0.258l-0.019,0.085l-0.031,0.054l-0.049,0.038l-0.163,0.06
	l-0.081,0.013l-0.086-0.001l-0.257-0.061l-0.077-0.003l-0.088,0.021l-0.034,0.022l-0.046,0.063l-0.031,0.028l-0.035,0.012
	l-0.133,0.017l-0.323,0.152l-0.039,0.029l-0.015,0.044l-0.006,0.05l-0.016,0.05l-0.029,0.034l-0.116,0.02l-0.078,0.055l-0.164,0.249
	l-0.062,0.056l-0.169,0.078l-0.086,0.017l-0.486-0.009l-0.139,0.045l-0.06-0.001l-0.029,0.005l-0.019-0.002l-0.058-0.025
	l-0.028-0.006l-0.06,0.003l-0.046,0.033l-0.021,0.027l-0.021,0.052l-0.026,0.018l-0.029,0.004l-0.043-0.009l-0.028,0.004
	l-0.042,0.038l-0.036,0.049l-0.039,0.01l-0.044-0.076l0.012-0.187l0.017-0.006l0.016-0.002l0.021,0.008l0.037,0.024l0.057,0.012
	l0.063-0.025l0.046-0.049l0.015-0.058l-0.04-0.053l-0.005-0.032l0.025-0.008l0.045,0.017l-0.078-0.115l-0.207-0.163l-0.081-0.114
	l-0.031-0.157l0.035-0.113l0.119-0.192l0.012-0.049l0.005-0.065l-0.005-0.07l-0.017-0.065l-0.055-0.083l-0.06-0.039l-0.049-0.02
	l-0.069-0.06l-0.042,0.027l-0.047,0.014l-0.061-0.083l-0.062,0.026l-0.055-0.002l-0.056-0.057l0.028-0.017l0.013-0.026l-0.005-0.041
	l-0.02-0.062l-0.115-0.188l-0.125-0.058l-0.127-0.02l-0.116-0.071l-0.056-0.062l-0.021-0.035l-0.03-0.066l-0.016-0.018l-0.026-0.02
	l-0.029-0.015l-0.021-0.003l-0.046-0.022l-0.048-0.07l-0.047-0.08l-0.045-0.054l-0.063-0.029l-0.051-0.015l-0.044-0.033
	l-0.049-0.085l-0.038-0.044l-0.348-0.222l-0.031-0.024l-0.189-0.191l-0.047-0.036l-0.084-0.138l-0.026-0.04l-0.119-0.116
	l-0.075-0.097l-0.131-0.041l-0.059-0.047l0.581,0.049l0.024,0.009l0.06,0.056l0.026,0.008l0.023,0.003l0.056,0.031l0.024,0.003
	l0.02-0.014l0.025-0.033l0.019-0.013l0.111-0.023l0.046-0.025l0.027-0.052l0.006-0.075l-0.016-0.078l-0.034-0.056l-0.145-0.028
	l-0.094-0.083l-0.165-0.178l-0.291-0.091l-0.101-0.088l0.019-0.197l0.117-0.105l0.348,0.011l0.118-0.109l0.013-0.067l0.004-0.098
	l-0.01-0.11l-0.028-0.101l-0.049-0.087l-0.167-0.186l-0.13-0.189l-0.061-0.045l-0.082,0.005l-0.058,0.028l-0.081,0.073l-0.039,0.018
	l-0.04,0.009h-0.043l-0.193-0.107l-0.047-0.049l-0.059-0.099l-0.059-0.037l-0.063-0.026l-0.07-0.062l-0.126-0.158l-0.028-0.107
	l-0.026-0.049l-0.21-0.064l-0.018-0.011l-0.01-0.019l-0.008-0.016l-0.01-0.011l-0.02-0.004l-0.046,0.001l-0.017-0.005l-0.086-0.075
	l-0.036-0.018l-0.089,0.008l-0.082-0.022l-0.104,0.001l-0.068-0.039l-0.062-0.073l-0.051-0.098l-0.004-0.025l0.004-0.048v-0.016
	l-0.014-0.027l-0.03-0.042l-0.012-0.024l-0.017-0.024l-0.029-0.032l-0.033-0.025l-0.094-0.013l-0.102-0.038l-0.096-0.064
	l-0.04-0.083l-0.022-0.005l-0.07-0.037l0.017-0.087l-0.036-0.06l-0.123-0.1l-0.023-0.034l-0.047-0.091l-0.02-0.042l-0.015,0.003
	l-0.073,0.031l-0.038-0.01l0.047-0.1l0.011-0.049l-0.034-0.009l-0.058,0.017l-0.053,0.003l-0.057-0.014l-0.069-0.035l0.069-0.024
	l0.03-0.02l0.026-0.031l-0.046-0.011l-0.041,0.002l-0.08,0.025l-0.014-0.031l0.015-0.037l0.004-0.037l0.008-0.032l0.047-0.041
	l0.001-0.03l-0.013-0.031l-0.023-0.024l-0.02-0.058l-0.036-0.038l-0.042-0.025l-0.037-0.018l-0.012-0.011l-0.017-0.021l-0.02-0.018
	l-0.021-0.004l-0.018,0.015l-0.029,0.038l-0.016,0.005l-0.066-0.04l0.011-0.069l0.037-0.089l0.014-0.092l-0.119,0.039l0.04-0.056
	l0.005-0.05l-0.027-0.054l-0.146-0.143l-0.022-0.014l-0.022,0.012l-0.007,0.028l-0.006,0.031l-0.014,0.019l-0.01,0.083l0.097,0.331
	l0.005,0.103l-0.052-0.076l-0.048,0.033l-0.042,0.013l-0.023-0.134l-0.026,0.012l-0.028,0.006l-0.029-0.002l-0.032-0.015
	l0.013-0.052l-0.029-0.062l-0.048-0.069l-0.041-0.074l-0.022-0.08l0.002-0.06l0.018-0.046l0.026-0.041l-0.059-0.024l-0.054-0.012
	l0.015-0.012l0.022-0.041l-0.072-0.032l-0.021-0.007l0.006-0.084l-0.124-0.258l-0.037-0.125l-0.014-0.006l-0.033-0.008h-0.014
	l0.015,0.071l-0.017,0.042l-0.033,0.004l-0.032-0.042l-0.04-0.071l-0.041-0.043l-0.039-0.034l-0.032-0.042l-0.019-0.108l0.153-0.07
	l0.004-0.087l-0.04,0.048l-0.063,0.037l-0.07,0.023l-0.066,0.007l-0.157-0.036l-0.058,0.011l0.044,0.08l-0.029,0.024l-0.045,0.013
	l-0.045-0.012l-0.025-0.052l-0.019-0.06l0.134-0.324l0.007-0.041l-0.019-0.03l-0.05,0.004l-0.053,0.026l-0.028,0.031l-0.096-0.067
	l-0.087-0.081l-0.08-0.051l-0.079,0.016l0.027-0.085l0.021-0.033l0.029-0.02l-0.066-0.09l0.013-0.06l0.107-0.091l-0.012-0.03
	l-0.034,0.011l-0.013-0.032l0.02-0.018l0.008-0.012l-0.004-0.053l-0.092-0.023l-0.016-0.087l0.025-0.234l-0.017-0.127l-0.021-0.07
	l-0.038-0.054l-0.043-0.041l-0.031-0.044l-0.01-0.048l0.021-0.048l-0.017-0.015l-0.009-0.014l-0.02-0.031l0.054-0.034l-0.01-0.094
	l-0.106-0.322l-0.004-0.034l0.021-0.021l0.032-0.012l0.021-0.021l0.008-0.035l-0.009-0.06l-0.036,0.02l-0.038-0.004l-0.037-0.033
	l-0.069-0.122l-0.041-0.032l-0.042-0.025l-0.041-0.037l-0.06-0.11l0.014-0.083l0.106-0.122l-0.055-0.05l-0.046,0.029l-0.072,0.11
	l-0.14,0.027l-0.057,0.033l0.026,0.068l-0.025,0.037l-0.078,0.026l-0.073,0.164l-0.017,0.023l-0.008,0.023l-0.018,0.103
	l-0.014,0.034l-0.031,0.019l-0.039,0.007l-0.04-0.004l-0.038-0.011l0.021,0.021l0.052,0.067l-0.094-0.002l-0.053-0.066l-0.024-0.11
	l-0.012-0.133l0.001-0.152l0.021-0.122l0.068-0.201l-0.048-0.021l0.012-0.063l0.023-0.048l0.062-0.067l-0.071-0.059l-0.045,0.047
	l-0.027,0.094l-0.013,0.082l-0.05-0.054l-0.113-0.149l-0.044-0.067l-0.015,0.005l0.072,0.135l0.063,0.167l0.042,0.173l0.01,0.152
	l-0.022,0.135l-0.035,0.11l-0.112,0.195l-0.006-0.077l0.005-0.062l0.015-0.051l0.022-0.042l-0.015-0.036l-0.034,0.018l-0.054,0.065
	l-0.03-0.004l-0.038-0.057l-0.007-0.057l0.014-0.046l0.023-0.022l0.083-0.037l-0.032-0.03l-0.074-0.057l-0.044-0.117l-0.04,0.018
	l-0.006,0.047l0.009,0.065l0.003,0.067l-0.018,0.04l-0.03,0.029l-0.026-0.003l-0.009-0.058l0.006-0.222l0.013-0.114v-0.057
	l-0.008-0.073v0.059l-0.042,0.186l-0.026,0.047l-0.009,0.028v0.023l0.005,0.063l-0.001,0.023l-0.051,0.057l-0.081-0.008
	l-0.062,0.021l-0.003,0.143l-0.04-0.023l-0.015-0.03l-0.008-0.039l-0.014-0.051l-0.025-0.041l-0.084-0.09l-0.023-0.089l0.025-0.039
	l0.091-0.015l-0.058-0.09l0.006-0.056l0.027-0.045l0.018-0.065l-0.112-0.031l-0.024-0.021l-0.017-0.027l-0.039-0.036l-0.017-0.025
	l-0.003-0.024l0.004-0.021l0.006-0.015l0.007-0.001l-0.056-0.144l-0.009-0.038l0.009-0.041l0.014-0.022l0.01-0.024l-0.004-0.051
	l-0.051,0.016l-0.015-0.063l-0.02-0.017l-0.025-0.008l-0.025-0.033l-0.017-0.042l-0.003-0.052l-0.018-0.042l-0.051-0.062
	l-0.154-0.116l-0.028-0.098l-0.009-0.046l-0.018-0.007l-0.062,0.02l-0.04-0.033l-0.031-0.087l-0.006-0.087l0.043-0.037l-0.035-0.063
	l-0.004-0.045l0.009-0.046l-0.001-0.065l-0.013-0.042l-0.073-0.17l-0.023-0.022l-0.033-0.001l-0.035-0.01l-0.03-0.04l-0.046-0.115
	l-0.025-0.05l-0.032-0.043v-0.021l-0.002-0.016l-0.008-0.037l-0.141-0.004l-0.083-0.027l-0.054-0.053l-0.007-0.081l0.033-0.062
	l0.084-0.097l-0.1,0.04l-0.054-0.008l-0.047-0.062l-0.014-0.065l0.004-0.058l0.06-0.285l0.045-0.068l0.225-0.121l0.097,0.013
	l0.091,0.127l0.059,0.098l0.086,0.094l0.086,0.074l0.056,0.035l0.019-0.006v-0.002v0.001l0.002,0.002l0.097,0.136l0.124,0.312
	l0.092,0.021l0.16-0.038l0.139-0.09l0.074-0.17l-0.034-0.281l-0.034-0.129l-0.024-0.115l-0.025-0.231l-0.027-0.137l-0.086-0.233
	l-0.061-0.323l-0.008-0.083l0.011-0.091l-0.008-0.076v-0.005l-0.044-0.103l-0.057-0.106l-0.187-0.307l-0.648-0.883l-0.059-0.1
	l-0.043-0.133l0.015-0.087l0.245-0.284l0.029-0.084l0.027-0.187l-0.002-0.044l-0.037-0.089l-0.06-0.189l-0.034-0.073l-0.063-0.07
	l-0.022-0.015l-0.106-0.07l-0.057-0.061l-0.052-0.171l0.034-0.08l0.021-0.049l0.104-0.084l0.395-0.083l0.087-0.052l0.223-0.406
	l0.178-0.57l0.023-0.175l-0.012-0.201l-0.057-0.224l-0.081-0.174l-0.192-0.295l-0.088-0.161l-0.023-0.083l0.003-0.075l0.054-0.208
	l0.012-0.094l-0.002-0.106l-0.023-0.126l-0.058-0.184l-0.073-0.149l-0.092-0.129l-0.552-0.616l-0.442-0.399l-0.144-0.173
	l-0.107-0.165l-0.199-0.345l-0.111-0.152l-0.184-0.2l-0.049-0.099l0.035-0.087l0.459-0.338l0.129-0.05l0.277-0.034l0.037-0.044
	l-0.007-0.059l-0.002-0.022l-0.098-0.352l-0.014-0.071l-0.001-0.05l0.053-0.32v-0.125l-0.025-0.152l-0.123-0.494l-0.028-0.059
	l-0.042-0.039l-0.965-0.684l-0.098-0.048l-0.086-0.005l-0.159,0.04l-0.095,0.005l-0.082-0.023l-0.283-0.198l-0.144-0.057
	l-0.387-0.221l-0.06-0.056l-0.355-1.337l-0.361-1.342l-0.086-0.19l-0.031-0.072l-0.165-0.23l-0.034-0.04l-0.929-1.101l-0.045-0.102
	l-0.03-0.15l-0.023-0.274l-0.024-0.152l-0.045-0.121l-0.455-0.742l-0.052-0.104l-0.011-0.089l0.095-0.481l-0.791-0.937l-0.325-0.389
	l0.108-1l-0.01-0.112l-0.049-0.115l-0.325-0.494l0.138-0.387l0.077-0.919l0.104-0.898l0.08-0.232l0.333-0.506l0.461-0.338
	l0.835-0.034l0.834-0.038l0.053-0.017l0.016-0.065l0.007-0.895l-0.016-0.104l-0.039-0.094l-0.635-1.197l-0.094-0.112l-0.101-0.034
	l-0.18,0.014l-0.104-0.006l-0.829-0.28l0.084-1.253l0.074-1.258v-0.001l0.066-0.585l-0.026-0.172v-0.006l-0.008-0.045l-0.16-0.511
	l-0.029-0.14l0.007-0.095l0.086-0.232l-0.004-0.179l-0.101-0.249l-0.138-0.275l-0.114-0.253l-0.458-1.294l-0.018-0.089l-0.02-0.392
	l-0.027-0.121l-0.104-0.214l-0.881-1.447l0.473-0.25l0.471-0.252l0.542-0.954l-0.012-0.077l-0.055-0.109l-0.094-0.168l-0.047-0.072
	l-0.357-0.555l-0.074-0.147l0.203-0.755l-0.011-1.823l0.048-0.316l0.158-0.542l0.077-0.121l0.026-0.084l-0.013-0.103l-0.277-0.729
	l-0.057-0.091l-1.149-1l-0.088-0.442l0.005-0.078l0.277-0.191l0.085-0.111l0.038-0.168l0.019-0.448l-0.016-0.134l-0.314-1.377
	l-0.014-0.124l0.011-0.094l0.412-1.009l-0.008-0.377l0.02-0.057l0.698,0.168l0.701,0.165l0.038-0.037l0.005-0.123l-0.012-0.161
	l-0.051-0.922l-0.069-0.24l-0.628-1.053l-0.081-0.172l-0.218-0.527l-0.021-0.069l0.004-0.039l0.023-0.027l0.339-0.379l0.113,0.033
	l0.454,0.217l0.113-0.01l0.566-0.312l1.006,0.112l0.994,0.055l0.066-0.038l0.033-0.1l0.089-0.813l-0.673-0.126l0.143-0.513
	l-0.003-0.356l-0.127-0.67l-0.035-0.122l-0.047-0.109l-0.268-0.485l-0.062-0.089l-0.729-0.437l0.424-0.244l0.422-0.245l0.142,0.06
	l0.223-0.058l0.189,0.083l0.097-0.007l0.08,0.058l0.051,0.1l0.02,0.103l-0.034,0.058l0.053,0.115l0.072,0.049l0.355,0.005
	l0.218,0.087l0.18,0.083l0.22,0.176l0.039,0.025l0.014,0.005l0.04,0.044l0.018,0.014l0.021,0.002l0.122-0.057l0.049,0.01
	l0.045,0.048l0.044,0.058l0.141,0.145l0.049,0.043l0.088,0.036l0.155-0.02l0.249,0.111l0.136,0.032l0.127,0.156l0.367-0.046
	l0.139,0.078l0.027,0.027l0.093,0.058l0.051,0.041l0.038,0.022l0.011,0.002l0.021,0.009l0.021,0.034l0.02,0.039l0.017,0.025
	l0.091,0.032l0.396-0.195l0.137-0.016l0.013,0.009l0.029,0.055l0.013,0.009l0.141-0.056l0.149,0.018L1038.441,438.726z"/></svg>