<?xml version="1.0" encoding="utf-8"?>
<!-- Generator: Adobe Illustrator 15.0.0, SVG Export Plug-In . SVG Version: 6.00 Build 0)  -->
<!DOCTYPE svg PUBLIC "-//W3C//DTD SVG 1.1//EN" "http://www.w3.org/Graphics/SVG/1.1/DTD/svg11.dtd">
<svg version="1.1" id="Ebene_1" xmlns="http://www.w3.org/2000/svg" xmlns:xlink="http://www.w3.org/1999/xlink" x="0px" y="0px"
	 width="1920px" height="1080px" viewBox="0 0 1920 1080" enable-background="new 0 0 1920 1080" xml:space="preserve">

<path fill="#F4E0B6" stroke="#FFFFFF" d="M1013.916,550.247l-0.022,0.035l-0.017-0.005l0.004-0.032v-0.024l-0.017-0.028
	l-0.005-0.022l0.008-0.016l0.005-0.02l0.008-0.02l0.007-0.007l0.031,0.026l0.021,0.059L1013.916,550.247z M1013.585,550.021
	l-0.013,0.063l-0.008-0.018l-0.012-0.042l-0.003-0.032l0.017-0.013L1013.585,550.021z M1013.313,550.279l-0.029,0.025l-0.022,0.001
	l-0.022-0.007l-0.028-0.003l-0.32,0.052l-0.017-0.011l0.003-0.027l0.021-0.027l0.035-0.013l-0.031-0.064l0.018-0.024l0.04-0.007
	l0.042-0.016l0.116-0.155l0.062-0.038l0.06-0.062l0.06-0.036l0.064,0.032l-0.004,0.044l-0.033,0.095l0.009,0.104l-0.004,0.077
	l0.005,0.019l-0.001,0.014L1013.313,550.279z M1014.132,548.799l-0.049,0.022l-0.037-0.019l0.013-0.056l0.039-0.032l0.032-0.009
	l0.047-0.038l0.013-0.004l0.017,0.01l0.006,0.026l-0.043,0.069L1014.132,548.799z"/></svg>