<?xml version="1.0" encoding="utf-8"?>
<!-- Generator: Adobe Illustrator 15.0.0, SVG Export Plug-In . SVG Version: 6.00 Build 0)  -->
<!DOCTYPE svg PUBLIC "-//W3C//DTD SVG 1.1//EN" "http://www.w3.org/Graphics/SVG/1.1/DTD/svg11.dtd">
<svg version="1.1" id="Ebene_1" xmlns="http://www.w3.org/2000/svg" xmlns:xlink="http://www.w3.org/1999/xlink" x="0px" y="0px"
	 width="1920px" height="1080px" viewBox="0 0 1920 1080" enable-background="new 0 0 1920 1080" xml:space="preserve">

<path fill="#F4E0B6" stroke="#FFFFFF" d="M1116.775,558.182l0.021-0.007l0.014-0.008l0.017-0.003l0.025,0.011l0.031-0.055
	l0.039,0.026l0.073,0.134l0.015,0.068l-0.048,0.022l-0.132-0.01l-0.109,0.01l-0.057-0.007l-0.042-0.035l0.004-0.045l0.047-0.042
	L1116.775,558.182z M1115.861,557.139l0.037-0.002l0.042-0.046l0.022-0.061l0.02-0.01l0.044,0.077l-0.042,0.071l-0.051,0.062
	l-0.175,0.144l-0.094,0.132l-0.235,0.193l-0.062,0.03l-0.084,0.016h-0.045l-0.027-0.012l-0.142,0.028l-0.013-0.022l0.003-0.146
	l0.036-0.155l0.071-0.142l0.172-0.151l0.192-0.239l0.033-0.027l0.038-0.015l0.028,0.005l0.03,0.019l0.037,0.013l0.045-0.017
	l0.016,0.024l0.012,0.037l0.022,0.05l0.028,0.048l0.03,0.022L1115.861,557.139z M1119.917,553.104l0.044,0.008l0.021-0.015
	l0.018,0.002l0.018,0.033l-0.026,0.023l-0.054,0.003l-0.054,0.018l-0.055,0.028l-0.059-0.004l-0.031-0.038l0.015-0.046l-0.006-0.062
	l0.002-0.048l0.12-0.016l0.021,0.023l0.005,0.043L1119.917,553.104z M1119.456,552.377l0.097-0.007l0.037-0.04l0.091-0.038
	l0.095-0.006l0.053,0.057l-0.027,0.072l-0.096,0.083l-0.042,0.05l-0.042,0.141l-0.041,0.058l-0.081,0.011l-0.031,0.019l-0.07,0.01
	l-0.069-0.013l-0.04-0.086l-0.037-0.015l-0.035-0.021l-0.012-0.049l0.007-0.039l0.012-0.025h0.021l0.033,0.035l0.048-0.079
	l0.058-0.069L1119.456,552.377z M1115.432,547.671l0.229,0.11l0.105,0.035l0.103,0.019l0.274-0.01l0.063,0.01l0.123,0.055
	l0.053,0.003l0.033-0.048l-0.049,0.007l0.001-0.013l0.013-0.02l0.003-0.013l-0.01-0.001l-0.012,0.001l-0.012-0.001l-0.009-0.007
	l0.046-0.058l0.017-0.037l0.004-0.044l0.031,0.004l0.016-0.01l-0.003-0.024l-0.016-0.042l0.181-0.188l0.104-0.061l0.193-0.009
	l0.047-0.011l0.034-0.023l0.025-0.035l-0.005-0.028h-0.061l-0.017-0.041l-0.03-0.05l-0.016-0.044l0.009-0.011l0.01-0.009
	l0.013-0.005l0.013-0.003l0.048-0.041l0.026-0.016l0.079-0.023l0.095-0.01l0.045-0.012l0.126-0.101l0.049-0.013l0.114-0.039
	l0.148,0.155l0.025,0.041l0.02,0.001l0.033,0.012l0.028,0.022l0.013,0.027l-0.016,0.032l-0.031,0.013l-0.064,0.01l-0.045,0.031
	l-0.023,0.042l0.008,0.065l0.05,0.099l0.078,0.09l0.082,0.042l0.086,0.026l0.088,0.04l0.156,0.135l0.063,0.029l0.08,0.017
	l0.041,0.015l0.037,0.029l0.011,0.003l0.014,0.007l0.018,0.02l0.002,0.019l-0.016,0.008l-0.013,0.012l0.013,0.023l0.057,0.047
	l0.08,0.043l0.08,0.029l0.108-0.003l0.075,0.029l0.119,0.061l0.242,0.051l0.587,0.003l0.763-0.121l1.111-0.13l0.314-0.112
	l0.019-0.004l0.012,0.004l0.013,0.003l0.02-0.009l0.018-0.021l-0.006-0.045l0.015-0.021l0.07-0.032l0.088-0.017l0.067,0.015
	l0.033,0.108l0.007,0.092l-0.008,0.095l-0.029,0.059l-0.025,0.031l0.022,0.02l0.041,0.016l0.036,0.02l0.034,0.016l0.01,0.001
	l0.021,0.001l0.008,0.025l-0.001,0.025l-0.005,0.004l0.035,0.082l0.023,0.077l0.01,0.074l-0.001,0.065l-0.01,0.033l-0.039,0.048
	l-0.013,0.031l-0.001,0.046l0.008,0.023l0.012,0.015l0.014,0.016l0.017,0.007l0.012,0.021l-0.003,0.031l-0.011,0.011l-0.063,0.034
	l-0.037-0.006l-0.018,0.007l-0.009,0.02l-0.005,0.051l-0.004,0.011l-0.024,0.028l-0.028,0.067l-0.097,0.094l-0.02,0.026
	l-0.009,0.024l-0.002,0.022l-0.008,0.024l-0.028,0.03l-0.069,0.039l-0.04,0.01l-0.028-0.015l-0.047-0.008l-0.072,0.039l-0.306,0.258
	l-0.106,0.017l-0.051-0.132l-0.055-0.014h-0.026l-0.029,0.01l-0.033-0.097l-0.075-0.056l-0.091-0.018l-0.077,0.027l0.048,0.044
	l0.1,0.025l0.062,0.048l0.025,0.038l0.025,0.058l0.015,0.063l-0.015,0.055l-0.088,0.041l-0.237-0.06l-0.095,0.008l-0.102,0.042
	l-0.239,0.05l-0.105,0.045l-0.096,0.059l-0.027,0.008l-0.054-0.019l-0.027,0.007l-0.089,0.088l-0.049,0.035h-0.026l-0.036,0.002
	l-0.101,0.135l-0.014,0.026l-0.026,0.017l-0.115,0.161l-0.034,0.036l-0.032,0.057l-0.024,0.059l-0.01,0.05l0.001,0.142l0.011,0.06
	l0.022,0.027l-0.04,0.048l-0.242,0.112l-0.06-0.002l-0.061-0.01l-0.063,0.002l-0.128,0.035l-0.111,0.062l-0.545,0.456l-0.055,0.106
	l0.016,0.163l0.113,0.342l0.009,0.152l-0.105,0.425l0.01,0.289l-0.137,0.344l-0.006,0.028l-0.002,0.062l-0.005,0.022l-0.024,0.027
	l-0.062,0.052l-0.047,0.099l-0.134,0.078l-0.055,0.045l-0.023,0.068l-0.012,0.169l-0.018,0.043l-0.068,0.056l-0.036,0.028
	l-0.088,0.1l-0.102,0.203l-0.018,0.065l-0.03,0.066l-0.158,0.13l-0.034,0.065l-0.043,0.137l-0.028,0.04l-0.02,0.041l0.041,0.127
	l-0.002,0.063l-0.062,0.106l-0.002,0.039l0.032,0.067l0.019,0.071l-0.013,0.076l-0.069,0.237l-0.012,0.028l-0.071,0.07l-0.018,0.053
	l-0.024,0.099l0.009,0.014l-0.007,0.023l-0.021,0.135l-0.025,0.074l-0.041,0.081l-0.049,0.07l-0.053,0.048l-0.021,0.055l0.05,0.063
	l0.078,0.049l0.062,0.009l-0.059,0.213l-0.023,0.059l-0.075,0.134l-0.038,0.133l-0.021,0.043l-0.12,0.145l-0.029,0.021l-0.038-0.005
	l-0.02-0.049l-0.004-0.059l0.004-0.031l0.026-0.063l-0.016-0.1l-0.024-0.093l-0.007-0.045l0.022-0.259l-0.047-0.155l-0.075-0.094
	l-0.102-0.048l-0.125-0.017l0.015-0.042l-0.005-0.031l-0.025-0.013l-0.039,0.015l-0.024-0.009l0.005-0.052l0.019-0.055l0.016-0.016
	l0.014-0.051l0.112-0.144l0.055-0.035l-0.001-0.101l0.086-0.177l0.066-0.193l0.13-0.162l0.061-0.186l0.05-0.101l0.064-0.094
	l0.066-0.066l0.143-0.063l0.03-0.041l0.014-0.065l0.002-0.129l0.014-0.071l0.087-0.007l0.073-0.086l0.039-0.116l-0.013-0.1
	l-0.199-0.133l-0.043-0.02l-0.024,0.021l-0.17,0.144l-0.046,0.072l-0.031,0.034l-0.193,0.117l-0.063,0.071l-0.14,0.26l-0.113-0.008
	l-0.056,0.012l-0.049,0.022l-0.031,0.038l-0.028,0.052l-0.035,0.043l-0.099,0.006l-0.046,0.033l-0.125,0.136l-0.527,0.312
	l-0.083,0.03h-0.055l-0.058-0.043l-0.059-0.058l-0.058-0.043l-0.015-0.07l-0.057-0.077l-0.076-0.065l-0.078-0.032l0.019-0.02
	l0.005-0.012l0.113-0.053l0.063-0.094l0.018-0.115l-0.035-0.113l0.002-0.097l0.073-0.223l-0.044-0.029l-0.014-0.027l0.002-0.017
	l0.02-0.03l-0.012,0.002l-0.008,0.003l-0.008-0.004l-0.008-0.019l0.021-0.022l0.008-0.015l-0.009-0.021l-0.023-0.039l0.035,0.026
	l0.013,0.013l0.02-0.011l0.007-0.034l-0.004-0.045l-0.021-0.088l0.018-0.01l0.022,0.016l0.024,0.008h0.027l0.026-0.011l0.03-0.034
	l-0.016-0.022l-0.033-0.017l-0.018-0.01l0.014-0.056l0.058-0.087l0.021-0.055l0.005-0.056l-0.016-0.008l-0.035,0.003l-0.053-0.021
	l-0.028-0.029l-0.006-0.028l0.016-0.029l0.039-0.031l0.013-0.033l-0.008-0.056l-0.027-0.043l-0.099,0.009l-0.047-0.026l-0.09-0.062
	l-0.041-0.05l-0.01-0.126l-0.03-0.005l-0.049,0.013l-0.019-0.031l0.003-0.115l-0.072-0.044l-0.048-0.063l-0.032-0.079l-0.019-0.102
	l-0.083-0.039l0.015-0.049l0.167-0.125l0.033-0.053l0.033-0.112l0.048-0.098l0.005-0.028l-0.002-0.021l0.005-0.021l0.026-0.022
	l0.051-0.24l0.052,0.021l0.071-0.001l0.069-0.02l0.05-0.038l0.015-0.058l-0.014-0.08l-0.033-0.088l-0.048-0.078l-0.058-0.068
	l-0.155-0.156l-0.099-0.132l-0.052-0.057l-0.063-0.037l-0.005-0.047l-0.069-0.092l-0.014-0.052l-0.024-0.016l-0.021-0.021
	l-0.02-0.025l-0.018-0.029l-0.004,0.113l-0.045-0.013l-0.168,0.01l-0.23-0.026l-0.004-0.062l-0.024-0.061l-0.05,0.016l-0.063,0.008
	l-0.124,0.037l-0.117-0.027l-0.06,0.016l-0.069,0.051l-0.053-0.024l-0.063-0.064l-0.039-0.088l-0.015-0.113l0.055-0.173l0.295-0.159
	l0.107-0.121l0.007-0.074l-0.018-0.084l-0.029-0.075l-0.014-0.028l-0.013-0.025l-0.008-0.021l-0.008-0.041l-0.011-0.022
	l-0.017-0.008h-0.046l-0.014-0.012l-0.003-0.032l0.006-0.027l0.012-0.028l0.027-0.136l0.025-0.059l0.047-0.037l0.288-0.113
	l0.05-0.039l0.016-0.038l0.022-0.097l0.028-0.03l0.034-0.003l0.077,0.014l0.037-0.01l0.016-0.025l0.014-0.042l0.017-0.049
	l0.019-0.036l0.029-0.02l0.032-0.007l0.025-0.016l0.012-0.048l0.021-0.031l0.058-0.022l0.02-0.021l0.008-0.056l-0.004-0.06
	l0.001-0.053l0.028-0.041l0.031-0.069l-0.009-0.156l0.046-0.074l0.004-0.001l0.049-0.029l0.061-0.016h0.063l0.064,0.009l0.028-0.021
	l0.063-0.035l0.079-0.023l0.008-0.013l-0.006-0.014l-0.002-0.021l0.011-0.121l0.019-0.049l0.055-0.045l0.111-0.038l0.121-0.002
	L1115.432,547.671z M1136.063,533.493l0.049-0.004l-0.01-0.026l0.008-0.014l0.018-0.01l0.02-0.017l0.05,0.029l0.051,0.008
	l0.036,0.011l0.008,0.035l0.016,0.024l0.157,0.005l0.079-0.018l0.073-0.064l0.016-0.039l0.01-0.079l0.021-0.031l0.045-0.024
	l0.036-0.003l0.092,0.011l0.018,0.024l-0.153,0.09l-0.063,0.057l-0.021,0.087l0.015,0.073l0.034,0.095l0.045,0.096l0.045,0.068
	l0.058,0.042l0.17,0.081l0.156,0.046l0.232,0.016l0.018,0.025l-0.036,0.028l0.051,0.034l0.067,0.039l0.07,0.022l0.104-0.017
	l0.146,0.037l0.065,0.001l0.206-0.053l0.129-0.067l0.064-0.004l0.145,0.019l0.138-0.019l0.146-0.049l0.136-0.077l0.107-0.098
	l0.038-0.066l0.055-0.14l0.145-0.153l0.19-0.333l0.057-0.059l0.048-0.069l0.043-0.172l0.048-0.059l0.018,0.025l0.006,0.031v0.032
	l-0.007,0.035l-0.019,0.031l0.043,0.05l0.032,0.15l0.054,0.052l0.02-0.016l-0.058-0.089l-0.032-0.097l-0.012-0.092l0.008-0.072
	l0.01-0.045l0.011-0.014l0.271,0.028l-0.036-0.049l0.018-0.014l0.395,0.111l0.113,0.074l0.108,0.144l0.018,0.043l0.02,0.076
	l0.008,0.02l0.084,0.119l0.051,0.046l0.074,0.039l0.229,0.06l0.104-0.005l0.212,0.105l0.07,0.001l0.187-0.029l0.091-0.04
	l0.025,0.006l0.028,0.021l0.028,0.036l0.04,0.035l0.036,0.001l0.036-0.014l0.041-0.008l0.027,0.005l0.058,0.021l0.023,0.004
	l0.035-0.01l0.055-0.032l0.037,0.003l0.066-0.018l0.054-0.067l0.065-0.15l0.047-0.232l-0.002-0.052l-0.018-0.041l-0.012-0.094
	l-0.008-0.029v-0.013l-0.038-0.088h-0.009l0.012-0.059l0.04-0.025l0.056-0.017l0.065-0.034l0.23-0.178l0.249-0.106l0.544-0.106
	l0.136,0.007l0.128,0.077l0.123,0.152l0.062,0.049l0.063-0.008l0.066-0.031l0.149-0.018l0.069-0.017l0.337-0.272l0.116-0.049
	l0.105,0.01l0.042-0.006l0.069-0.026l0.067-0.042l0.057-0.022l0.12,0.024l0.072-0.001l0.137-0.05l0.025,0.011l0.113,0.02
	l0.069-0.022l0.098-0.094l0.052-0.021l0.002-0.032l0.025-0.043l0.01-0.031l-0.003-0.043l-0.038-0.122l-0.012-0.083l-0.004-0.088
	l0.009-0.083l0.022-0.07l0.067,0.039l0.068-0.003l0.052-0.039l0.014-0.077l0.036,0.01l0.061-0.066l0.174,0.219l0.092,0.022
	l0.189-0.041h0.059l0.055,0.014l0.11,0.046l0.067-0.129l0.139-0.083l0.402-0.148l0.179-0.098l0.137-0.048l0.061-0.047l0.093-0.127
	l0.059-0.029l0.196,0.01l0.055-0.043l0.076-0.113l0.122-0.051l0.073-0.048l0.011-0.048l0.193-0.173l0.02-0.062l0.021-0.176
	l0.02-0.049l0.065-0.096l0.033-0.023l0.028,0.002l0.088,0.024l0.033,0.006l0.016-0.036l0.05-0.042l0.024-0.029l0.006-0.031
	l0.003-0.042l0.011-0.045l0.023-0.035l0.004-0.107l-0.006-0.027l0.005-0.02l0.042-0.069l0.155-0.189l0.021-0.065l0.014-0.07
	l0.037-0.059l0.301-0.25l0.176-0.222l0.011-0.034l0.022-0.112l0.026-0.033l0.092-0.064l0.063-0.023l0.137,0.003l0.066-0.041
	l0.032-0.051l0.035-0.106l0.046-0.054l0.022-0.036l0.075-0.202l0.003-0.028l-0.001-0.022l0.005-0.024l0.025-0.035l0.197-0.096
	l0.068,0.007l0.137,0.033l0.268,0.008l0.147-0.025l0.121-0.067l0.039-0.061l0.032-0.071l0.047-0.05l0.113-0.008l0.033-0.021
	l0.055-0.052l0.029-0.012l0.258-0.005l0.064-0.018l0.06-0.031l0.018-0.067l0.121-0.196l0.06-0.061l0.267,0.015l0.117-0.012
	l0.123-0.068l0.038-0.044l0.052-0.099l0.05-0.066l0.066-0.116l0.027-0.092l0.095-0.136l0.201-0.649l0.125-0.037l0.084-0.057
	l0.058-0.084l0.039-0.121l0.029-0.17l0.027-0.04l0.074-0.08l0.028-0.047l0.015-0.049l-0.015-0.341l0.071-0.293l0.021-0.037
	l0.045-0.026l0.146-0.056l0.058-0.067l0.042-0.154l0.028-0.052l0.05-0.056l0.043-0.072l0.034-0.082l0.02-0.077l0.014-0.197
	l0.022-0.085l0.053-0.072l0.063-0.063l0.035-0.057l0.081-0.414l0.046-0.08l0.031-0.079l0.02-0.034l0.082-0.091l0.023-0.04
	l0.018-0.08l-0.011-0.095l-0.034-0.097l-0.054-0.085l0.013-0.04l0.041-0.268l-0.019-0.096l0.374-0.124l0.038-0.021l0.073-0.074
	l0.04-0.086l0.021-0.017l0.014,0.01l0.02,0.028l0.023,0.029l0.028,0.012l0.041-0.014l0.083-0.058l0.045-0.019l0.184,0.006
	l0.044-0.014l0.013-0.036l0.03-0.18l-0.017-0.188l0.014-0.059l0.069-0.134l0.245-0.092l0.067-0.11l0.023-0.05l0.032-0.037
	l0.041-0.026l0.052-0.016l0.062-0.096l0.042-0.033l0.055-0.01l0.077,0.002l0.066-0.05l0.123-0.12l0.605-0.225l0.033-0.033
	l0.029-0.029l0.023-0.083l-0.02-0.186l0.005-0.109l-0.021-0.079l-0.095-0.162l-0.023-0.081l0.02-0.086l0.002-0.004l0.009-0.014
	l0.036-0.062l0.122-0.128l0.389-0.292l0.069-0.021l0.007,0.05l0.021,0.042l0.024,0.038l0.016,0.04v0.044l-0.014,0.089l0.007,0.053
	l0.101-0.02l0.095,0.009l0.063-0.028v-0.129l0.017-0.054l0.037,0.006l0.052,0.03l0.055,0.02l0.029-0.006l0.099-0.043l0.028,0.001
	l0.023,0.006l0.024,0.002l0.031-0.011l0.04,0.005l0.201,0.075l0.073,0.007l0.303-0.041l0.22-0.004l0.112-0.034l0.085-0.058
	l0.019,0.015l0.007,0.08l-0.009,0.068l-0.08,0.197l0.09-0.041l0.052-0.057l0.057-0.041l0.104,0.012l0.193,0.096l0.063-0.006
	l0.182-0.283l0.071-0.073l0.102-0.052l0.105-0.023l0.128,0.001l0.106,0.047l0.046,0.115l0.06,0.09l0.114,0.089l0.127,0.06
	l0.091,0.002l0.125-0.085l0.162-0.045l0.176-0.008l0.171,0.026l0.088,0.041l0.068,0.056l0.064,0.063l0.082,0.065l0.085,0.043
	l0.259,0.073l0.08,0.042l0.059,0.048l0.219,0.223l0.017,0.035l0.029,0.145l0.002,0.036l0.087,0.059l0.001,0.229l0.026,0.102
	l0.073,0.08l-0.026,0.001l-0.016,0.006l-0.014,0.008l-0.021,0.008l0.021,0.007l0.013,0.006l0.027,0.018l-0.055,0.063l-0.024,0.091
	l0.002,0.187l0.051,0.035l0.109,0.011l0.185-0.006l0.021,0.022l0.004,0.01l0.074,0.164l0.011,0.059l0.029,0.072l0.074,0.029
	l0.129,0.002l0.249,0.045l0.114,0.052l0.008,0.004l-0.017,0.08l0.08,0.035l0.17,0.025l0.051,0.023l0.014,0.068l-0.099,0.133
	l-0.007,0.067l0.119,0.067l0.179-0.043l0.302-0.151l0.429-0.104l0.366-0.236l0.03-0.052l0.036-0.147l0.044-0.066l0.032-0.017
	l0.062,0.001l0.029-0.013l0.024-0.029l0.04-0.065l0.068-0.078l0.122-0.188l0.09-0.081l0.123-0.059l0.221-0.049l0.334-0.075
	l0.27-0.009l0.135,0.012l0.074,0.022l0.058,0.04l0.036,0.021l0.043,0.002l0.065-0.008l0.038,0.026l0.034,0.037l0.027,0.01
	l0.016-0.053l0.194,0.021l0.074-0.015l0.016-0.011l0.025-0.032l0.016-0.009h0.023l0.039,0.012l0.35,0.06l0.103,0.031l0.063,0.018
	l0.146,0.101l0.066,0.014l-0.354,0.045l-0.09,0.004l-0.225,0.073l-0.072-0.007l-0.167-0.041l-0.065,0.009l-0.05,0.079l-0.081,0.486
	l0.022,0.049l0.111,0.098l0.03,0.045l0.01,0.014l0.022,0.058l0.066,0.255l0.028,0.056l0.043,0.061l0.047,0.042l0.049,0.036
	l0.034,0.041l0.009,0.065l0,0l0,0l0.053,0.088l0.066,0.055l0.053,0.063l0.015,0.108l-0.02,0.083l-0.085,0.188l-0.046,0.067
	l-0.073,0.057l-0.265,0.077l-0.071,0.051l-0.112,0.168l-0.057,0.063l-0.065,0.046l-0.042,0.04l-0.026,0.05l-0.024,0.082l0.005,0.068
	l0.053,0.026l0.143,0.018l0.002,0.001l0.039,0.021l0.079,0.058l0.09,0.039l0.022,0.026l0.013,0.028l0.027,0.03l0.034,0.021
	l0.092,0.038l0.029,0.028l0.035,0.078l0.028,0.027l0.116-0.011l0.174-0.046l0.167-0.021l0.097,0.064l0.036,0.15l0.033,0.066
	l0.144,0.111l0.009,0.064l-0.013,0.075l0.017,0.098h0.001l0.035,0.01l0.028,0.016l0.058,0.042l0.038,0.009l0.04-0.003l0.04,0.002
	l0.028,0.03l0.023,0.029l0.032,0.019l0.034,0.014l0.092,0.053l0.082,0.019l0.081,0.001l0.203-0.062l0.101,0.087l0.143,0.312
	l0.048,0.077l0.044,0.038l0.048,0.029l0.068,0.048l0.01,0.035l-0.005,0.045l0.011,0.028l0.05-0.013l0.063-0.029l0.031-0.005
	l0.041,0.004l0.068,0.038l0.061,0.071l0.106,0.145l0.177,0.149l0.047,0.062l0.087,0.167l0.034,0.04l0.084,0.078l0.025,0.033
	l0.04,0.063l0.034,0.022l0.04-0.005l0.057-0.018l0.158-0.099l0.045-0.132l0.028-0.038l0.057-0.021l0.067-0.003l0.074,0.015
	l0.067,0.034l0.049,0.052l0.015,0.142l-0.032,0.164l-0.002,0.154l0.155,0.151l0.048,0.074l0.042,0.082l0.026,0.065l0.002,0.045
	l-0.03,0.064l-0.005,0.039l0.021,0.033l0.078,0.043l0.005,0.035l-0.031,0.072l-0.013,0.061l0.013,0.066l0.04,0.091l0.021,0.074
	l-0.002,0.132l0.018,0.072l0,0l0,0l0,0l0.016,0.065l0.02,0.056l0.033,0.048l0.055,0.035l0.04,0.041l0.009,0.058l0.002,0.06
	l0.006,0.016l0.015,0.033l0.114,0.031l0.109-0.07l0.16-0.18l0.042-0.019l0.14-0.042l0.049-0.006l0.043,0.017l0.045,0.03l0.053,0.027
	l0.063,0.011l0.028-0.012l0.013-0.023l0.015-0.02l0.035-0.003l0.017,0.016l0.037,0.064l0.016,0.021l0.054,0.021l0.043-0.031
	l0.031-0.055l0.018-0.051l0.067-0.075l0.108-0.035l0.119-0.004l0.209,0.03l0.033,0.026l0.012,0.069l-0.029,0.16l0.004,0.051
	l0.078,0.113l0.109,0.012l0.104-0.011l0.062,0.048l0.035,0.091l0.057,0.099l0.068,0.088l0.075,0.056l0.001,0.001l0.062,0.046
	l0.053,0.133l0.066,0.041l0.055-0.013l0.112-0.083l0.071-0.007l0.124,0.062l0.052,0.005l0.087-0.105l0.053,0.007l0.059,0.033
	l0.064,0.026l0.248-0.044l0.127,0.015l0.09,0.117l0.003,0.07l-0.019,0.055l-0.01,0.06l0.034,0.078l0.069,0.06l0.078,0.034
	l0.067,0.041l0.041,0.081l-0.086-0.028l-0.081,0.023l-0.328,0.221l-0.05,0.049l-0.054,0.12l-0.04,0.174l-0.02,0.18l0.007,0.143
	l-0.023,0.115l-0.039,0.104l-0.17,0.286l0.011,0.058l0.037,0.062l0.021,0.111l0,0v0.001h-0.001l0.024,0.079l-0.005,0.048
	l-0.032,0.033l-0.142,0.074l-0.043,0.002l-0.05-0.02l-0.329-0.146l-0.082-0.052l-0.062-0.074l-0.037-0.089l-0.005-0.1l0.019-0.053
	l0.026-0.034l0.017-0.037l-0.012-0.06l-0.025-0.036l-0.04-0.039l-0.079-0.062l-0.093-0.056l-0.084-0.03l-0.086-0.005l-0.098,0.016
	l-0.363,0.129l-0.06,0.038l-0.107,0.067l-0.109,0.131l-0.027,0.175l0.02,0.188l-0.001,0.171l-0.128,0.157l-0.006,0.095l-0.026,0.039
	l-0.033,0.004l-0.108-0.004l-0.045,0.007l-0.08,0.041l-0.079,0.058l-0.27,0.269l-0.074,0.051l-0.095,0.033l-0.084,0.007
	l-0.033,0.008l-0.041,0.025l-0.029,0.036l-0.047,0.085l-0.032,0.037l-0.061,0.021l-0.22,0.01l-0.161,0.042l-0.063,0.004l-0.121,0.01
	l-0.039,0.021l-0.046,0.053l-0.014,0.032l-0.004,0.049l-0.021,0.025l-0.026,0.018l-0.025,0.008l-0.531,0.126l-0.059,0.028
	l-0.08,0.083l-0.088,0.126l-0.068,0.136l-0.026,0.115l-0.085,0.141l-0.126,0.082l-0.294,0.123l-0.038,0.004l-0.063-0.048
	l-0.039,0.003l-0.037,0.024l-0.022,0.024l-0.092,0.172l-0.007,0.029l0.006,0.042l0.015,0.028l0.017,0.027l0.012,0.036l0.074,0.798
	l0.044,0.122l0.007,0.027l-0.028,0.057l-0.207,0.245l-0.116,0.188l-0.113,0.122l-0.084-0.095l-0.047-0.043l-0.039-0.003
	l-0.068-0.015l-0.111-0.234l-0.056-0.028l-0.026,0.006l-0.158,0.007l-0.028-0.008l-0.044-0.021l-0.027-0.008l-0.02,0.01
	l-0.007,0.031l-0.002,0.034l-0.01,0.021l-0.119,0.032l-0.043,0.026l-0.016-0.013l-0.023-0.038l-0.037-0.038l-0.063-0.01
	l-0.017,0.084l-0.021,0.057l0.013,0.3l-0.049,0.373l-0.062,0.175l-0.256,0.34l-0.943,1.25l-0.752,0.686l-0.073,0.035l-0.167,0.053
	l-0.778,0.422l-0.465,0.51l-0.097,0.167l-0.208,0.513l-0.101,0.143l-0.062,0.056l-0.051,0.063l-0.042,0.071l-0.028,0.081
	l-0.174,0.549l-0.095,0.295l-0.065,0.134l-0.091,0.105l-0.074,0.117l-0.148,0.393l-0.428,0.713l-0.779,0.906l-0.488,0.564
	l-0.147,0.128l-0.551,0.201l-0.14,0.128l-0.048,0.065l-0.445,0.387l-0.22,0.132l-0.242,0.046l-0.149-0.02l-0.544-0.077l-0.199,0.032
	l-0.664,0.261l-0.204,0.12l-0.09,0.087l-0.133,0.22l-0.143,0.389l-0.025,0.071l-0.063,0.083l-0.297,0.559l-0.396,0.464l-0.115,0.207
	l-0.216,0.59l-0.119,0.089l-0.529,0.27l-0.06,0.053l-0.146,0.184l-0.059,0.035l-0.058,0.021l-0.05,0.032l-0.037,0.064l-0.01,0.078
	l0.003,0.049l-0.021,0.029l-0.079,0.012l-0.09-0.007l-0.041-0.032l-0.061-0.132l-0.058-0.071l-0.057-0.028l-0.147-0.014
	l-0.074-0.008l-0.077,0.01l-0.073,0.021l-0.064,0.029l-0.188,0.124l-0.661,0.215l-0.003,0.001l-0.03,0.017l-0.025,0.021l0.074,0.08
	l0.019,0.092l0.001,0.097l0.015,0.097l0.047,0.087l0.048,0.07l0.043,0.075l0.027,0.108l0.072,0.178l0.119,0.155l0.101,0.163
	l0.016,0.198l0.026,0.063l0.052,0.053l0.196,0.15l0.035,0.016l0.034,0.003l0.06-0.015h0.021l0.031,0.013l0.026,0.019l0.023,0.023
	l0.022,0.031l0.021,0.067l0.009,0.044l-0.013,0.01l0.05,0.008l0.103-0.062l0.061-0.018l0.062,0.015h0.001l0.068,0.032l0.063,0.043
	l0.047,0.042l0.063,0.077l0.005,0.042l-0.176,0.19l-0.056,0.041l-0.243,0.13l-0.047,0.048l-0.023,0.035l0.006,0.03l0.016,0.028
	l0.001,0.031l-0.017,0.027l-0.016,0.013l-0.021,0.007l-0.086,0.049l-0.05,0.018h-0.056l-0.067-0.016l-0.009,0.058l0.077,0.018
	l0.019,0.032l-0.006,0.042l0.004,0.04l0.032,0.056l0.37,0.517l0.081,0.094l-0.046,0.067l-0.146,0.039l-0.041,0.066h0.001v0.001l0,0
	l0.068,0.142l-0.038,0.046l-0.085,0.032l-0.067,0.103l0.012,0.148l0.167,0.264l0.044,0.127l-0.005,0.007l-0.042,0.045l-0.259,0.003
	l-0.115,0.024l-0.093,0.064l-0.053,0.022l-0.055-0.005l-0.037-0.038l-0.026-0.052l-0.034-0.044l-0.066-0.016l-0.051,0.05
	l-0.042,0.066l-0.049,0.053l-0.034,0.012l0,0v-0.002l-0.003-0.072l-0.036-0.312l0.012-0.049l-0.05-0.059l-0.258-0.188l-0.448-0.184
	l-0.078-0.024l-0.079-0.032l-0.112-0.086l-0.075-0.016l-0.077-0.009l-0.067-0.017l-0.09-0.057l-0.039-0.059l-0.007-0.174
	l0.004-0.046l0.016-0.039l0.022-0.034l0.032-0.027l0.005-0.024l-0.028-0.11l0.006-0.042l0.03-0.063l0.011-0.04l-0.01-0.042
	l-0.039-0.087l0.019-0.048l0.001-0.026l0.008-0.032l0.082-0.123l0.015-0.034l0.012-0.268l-0.007-0.053l0.029-0.024l0.164-0.424
	l0.037-0.044l0.011-0.05l-0.013-0.089l-0.024-0.094l-0.026-0.064l-0.034-0.043l-0.037-0.025l-0.037-0.021l-0.039-0.028l-0.021-0.022
	l-0.162-0.226l-0.052-0.046l-0.072-0.038l-0.345-0.113l-0.172-0.027l-0.16,0.005l-0.13,0.053l-0.073,0.112l-0.033,0.159l-0.017,0.32
	l-0.017,0.06l-0.038,0.048l-0.011,0.045l-0.014,0.178l-0.02,0.067l-0.09,0.106l-0.23,0.187l-0.075,0.114l-0.009,0.06l0.014,0.089
	l-0.016,0.045l-0.006-0.033l-0.01-0.019l-0.02-0.007l-0.037,0.001l0.012,0.074l-0.01,0.075l0.005,0.062l0.059,0.042v-0.09
	l0.078-0.028l-0.032-0.064l0.019-0.006l0.018,0.002l0.018,0.008l0.02,0.013l-0.004-0.033l-0.014-0.029l-0.021-0.022l-0.032-0.012
	l0.024-0.053l0.031,0.009l0.036,0.027l0.034,0.003l0.023-0.033l0.015-0.041l0.021-0.033l0.048-0.013l-0.111,0.203l-0.035,0.119
	l0.015,0.113l0.033,0.035l0.02-0.055l0.02-0.242l0.02-0.053l0.036-0.044l-0.026,0.188l0.005,0.042l0.021,0.081l0.004,0.041
	l0.013,0.045l0.033,0.046l0.023,0.042l-0.01,0.034l-0.023,0.026l-0.019,0.064l-0.023,0.026l-0.087,0.076l-0.041,0.02l-0.15-0.019
	l-0.038,0.007l-0.032,0.038l-0.007,0.043l0.015,0.037l0.032-0.017l0.03-0.008l0.129-0.03l-0.146,0.056l-0.136,0.076l-0.019,0.024
	l-0.041,0.089l-0.004,0.025l0.009,0.033l-0.016,0.035l-0.045,0.065l-0.03,0.116l0.003,0.016l-0.042,0.006l-0.095-0.035l-0.042,0.009
	l-0.051,0.017l-1.042,0.094l-0.1,0.029l-0.137,0.004l-0.073,0.021l-0.049,0.029l-0.036,0.027l-0.01,0.009l-0.038,0.042l-0.027,0.046
	l-0.005-0.021l-0.026-0.067l-0.056,0.01l-0.207-0.041l-0.324,0.047l0.002,0.037l-0.117,0.015l-0.103,0.117l-0.127,0.226
	l-0.077,0.076l-0.022,0.036l-0.054,0.112l-0.006,0.026l0.021,0.088l-0.004,0.025l-0.054,0.112l-0.092,0.409l-0.173,0.416
	l-0.034,0.141l-0.023,0.492l0.012,0.073l0.015,0.043l-0.011,0.042l-0.041,0.071l-0.027,0.18l-0.061,0.126l0.06,0.101l0.095,0.103
	l0.061,0.1l-0.024,0.088l-0.075,0.081l-0.06,0.084l0.022,0.099l0.012-0.019l0.004-0.017l0.009,0.028l-0.004,0.11l0.008,0.063
	l0.026,0.058l0.027,0.045l0.002,0.036l-0.051,0.037l-0.016-0.022l-0.018-0.084l-0.085-0.089l-0.106-0.059l-0.088,0.002l-0.054,0.017
	h-0.053l-0.042,0.017l-0.02,0.067l0.01,0.123l-0.006,0.052l-0.038,0.051l0.026-0.01h0.014l0.019,0.008l-0.012,0.052l0.011,0.105
	l-0.024,0.041l-0.025,0.024l-0.069,0.112l-0.011,0.031l-0.02,0.159l0.013,0.047l0.049,0.11l0.002,0.036l-0.025-0.016l-0.152-0.062
	l-0.045-0.042l-0.037,0.004l-0.033,0.035l-0.028,0.047l-0.025,0.107l-0.006,0.132l-0.021,0.106l-0.072,0.032l0.025-0.051
	l-0.019-0.026l-0.073,0.041l-0.148,0.053l-0.063,0.034l-0.054,0.056l-0.066,0.126l-0.036,0.039l-0.14,0.039l-0.066,0.035
	l-0.009,0.103l-0.059,0.052l-0.131,0.088l-0.07,0.084l-0.032,0.025l-0.041,0.017l-0.085,0.01l-0.036,0.015l-0.054,0.064
	l-0.005,0.071l0.012,0.074l-0.004,0.078l-0.017,0.045l-0.011,0.009l-0.018-0.004l-0.035,0.007l-0.041,0.021l-0.089,0.069
	l-0.228,0.085l-0.058,0.038l-0.118,0.23l-0.025,0.035l0.003,0.057l-0.071,0.228l-0.133,0.079l-0.306,0.119l-0.149,0.022
	l-0.256,0.007h-0.016l-0.114,0.062l-0.063,0.022l-0.311,0.023l-0.051-0.011l-0.052-0.028l-0.065,0.013l-0.071,0.023l-0.067,0.005
	l-0.26-0.09l-0.026,0.014l-0.026-0.01h-0.079l-0.026-0.013l-0.082-0.094l-0.03-0.025l-0.136-0.053l-0.281-0.035l-0.106-0.078
	l-0.024-0.028l-0.029-0.017l-0.064-0.021l-0.071-0.035l-0.016-0.005l-0.051,0.01l-0.011,0.004l-0.126-0.077l-0.077-0.035
	l-0.061,0.005l-0.301-0.061l-0.028,0.003l-0.028,0.014l-0.033,0.021l-0.037,0.014h-0.033l-0.028-0.004l-0.024,0.001l-0.113,0.084
	l-0.064,0.031l-0.049-0.019l-0.055-0.01l-0.093,0.023l-0.089,0.042l-0.045,0.045l-0.046-0.008l-0.145,0.027l-0.11-0.04l-0.062-0.012
	l-0.033,0.028l-0.067,0.032l-0.286,0.049l-0.078-0.007l-0.074-0.021l-0.714,0.124l-0.095,0.042l-0.064-0.084l-0.145,0.008
	l-1.284,0.603l-0.459,0.345l-0.096,0.031l-0.087,0.002l-0.178-0.014l-0.093,0.227l-0.027,0.129l0.032,0.141l0.004,0.09l0.006,0.039
	l0.073,0.111l0.063,0.129l0.045,0.063l0.068,0.034l0.016,0.022l-0.003,0.045l0.001,0.041l0.011,0.046l0.028,0.058l0.049,0.063
	l0.042,0.024l0.041,0.018l0.044,0.03l0.004-0.038l0.043,0.082l0.043,0.155l0.037,0.038l-0.045,0.148l-0.008,0.085l0.049,0.152
	l0.001,0.142l0.023,0.029l0.001,0.087l0.047,0.06l0.064,0.03l0.059-0.003l0.012,0.066l0.094-0.022l-0.008,0.079l-0.034,0.121
	l0.014,0.1l0.021-0.015l0.003-0.023h0.003l0.011,0.004l0.026-0.008l-0.011,0.05l-0.021,0.058l-0.014,0.058l0.021,0.103l-0.009,0.072
	l-0.035,0.132l-0.096-0.158l-0.054-0.055l-0.056-0.009l-0.057,0.066l-0.406,0.059l-0.063,0.038l-0.197,0.182l-0.008,0.049
	l0.025,0.063l0.047,0.076l-0.02,0.012l-0.018-0.021l-0.051-0.036l0.026,0.081l0.02,0.029h-0.059l0.018,0.027l0.016,0.026
	l-0.126,0.046l-0.029,0.005l-0.037-0.008l-0.036,0.008l-0.028,0.042l0.063-0.041l0.018,0.028l-0.131,0.235l-0.049,0.021
	l-0.021,0.045l-0.035,0.02l-0.042,0.01l-0.042,0.019l-0.025,0.02l-0.01,0.017l-0.015,0.064l-0.031,0.061l-0.094,0.098l-0.027,0.048
	l0.012-0.003l0.009-0.004l0.008,0.003l0.01,0.02l-0.029,0.017l-0.057,0.07l0.015,0.024l0.061-0.039l-0.014,0.066l-0.022,0.059
	l-0.031,0.052l-0.048,0.044l-0.017-0.028l0.008-0.022l0.002-0.017l-0.002-0.018v-0.02l-0.035,0.031l-0.006,0.011l-0.002,0.024
	l-0.06-0.016l-0.042,0.011l-0.032,0.028l-0.026,0.041l-0.001,0.02l0.01,0.017l-0.001,0.021l-0.028,0.024l0.007,0.015l-0.007,0.097
	l-0.061-0.067l-0.133,0.017l-0.077-0.058l0.052-0.006l0.004-0.03l-0.024-0.031l-0.033-0.002l-0.137,0.118l-0.015-0.021l0.018-0.033
	l0.022-0.029l0.028-0.023l0.034-0.019l-0.082,0.013l-0.237,0.157l-0.091,0.032l-0.252,0.011l-0.014,0.058l-0.035-0.023l-0.077-0.096
	v0.039h-0.015l-0.022-0.008l-0.021,0.008l-0.021,0.031l-0.006,0.016l-0.001,0.016l-0.005,0.026l-0.002,0.03l0.006,0.032l0.002,0.031
	l-0.016,0.023h-0.037l-0.042-0.026l-0.031-0.013l-0.004,0.039l-0.29-0.056l-0.021-0.004l-0.061-0.038l-0.068-0.02l-0.213,0.055
	l-0.088-0.031l-0.023,0.054l-0.041-0.042l-0.004-0.012l-0.003-0.022l-0.017-0.027l-0.083,0.053l0.007-0.036l-0.047-0.002
	l-0.022,0.009l-0.03,0.019l-0.006-0.045l0.009-0.037l0.02-0.032l0.031-0.024l-0.012-0.018l-0.005-0.003l-0.004,0.005l-0.014,0.001
	l-0.025-0.078l-0.057-0.052l-0.069-0.024l-0.06,0.003l-0.015-0.022l0.018-0.057l0.013-0.022l0.021-0.022l-0.017-0.027l-0.094-0.12
	l-0.057-0.055l-0.021,0.039l-0.021,0.015l-0.064-0.022l-0.106,0.144l-0.071,0.032l0.044-0.049l-0.009-0.043l-0.048-0.038
	l-0.066-0.033l0.001-0.035l-0.017-0.086l-0.002-0.047l0.064,0.01l0.014-0.06l0.003-0.077l0.033-0.049l0.014,0.022l0.009,0.051
	l0.033-0.002l0.028-0.033v-0.039l-0.027-0.029l-0.037-0.022l-0.038-0.015l-0.029-0.011l-0.267-0.014l-0.292,0.049l-0.052-0.016
	l-0.055-0.041l-0.024,0.067l-0.013,0.101l-0.014,0.066l0.014,0.022l0.021-0.015l0.015,0.025l-0.052,0.039l-0.02,0.024l-0.014,0.026
	l0.009,0.036l0.029,0.03l0.017,0.026l-0.031,0.032l0.035,0.022l0.016,0.005h0.022l-0.005,0.038l0.053,0.015l0.02,0.011l0.019-0.013
	l-0.007-0.048l-0.001-0.039l-0.016-0.038l-0.05-0.039l0.083,0.016l0.021,0.073l-0.015,0.089l-0.022,0.063l0.042,0.024l-0.021,0.041
	l-0.048,0.035l-0.042,0.016l-0.053-0.015l-0.021-0.033l0.01-0.042l0.039-0.039l-0.018-0.027l-0.066,0.008l-0.047-0.008l-0.037,0.008
	l-0.041,0.047l-0.075-0.088l-0.155-0.007l-0.148,0.056l-0.061,0.101l-0.02,0.015l-0.057-0.06l-0.05-0.007l-0.03,0.04l-0.002,0.078
	l-0.035-0.012l-0.102-0.078l-0.005-0.065l-0.034-0.082l-0.05-0.063l-0.054-0.016l-0.011-0.017v-0.007l0.009-0.006l0.007-0.009
	l-0.013-0.007l-0.012-0.004l-0.007-0.012l-0.001-0.03l-0.021,0.013l0.007,0.043l0.006,0.019l0.016,0.029l-0.026-0.004l-0.002-0.005
	l-0.026-0.024l-0.063-0.019l-0.097,0.041l-0.041,0.078l0.066,0.083l-0.045-0.006l-0.034,0.01l-0.032,0.017l-0.039,0.009l0.024-0.051
	l-0.018-0.028l-0.065,0.042l-0.049,0.016l-0.045-0.022l-0.059-0.07l0.021-0.011l0.011-0.012v-0.017l-0.018-0.021l-0.014-0.005
	l-0.011-0.001l-0.013-0.011l-0.03-0.035l-0.027-0.013l-0.013,0.01l0.015,0.039l-0.006,0.049l-0.047,0.057l-0.079,0.064l-0.025,0.027
	l0.017,0.021l0.034,0.014l0.033,0.007l0.02-0.008l0.02-0.024l0.028-0.016l0.049,0.01l0.002,0.073l0.011,0.068l-0.007,0.058
	l-0.055,0.039l-0.202,0.016l-0.043-0.003l-0.019,0.012l0.048,0.05l0.019,0.018l-0.075,0.053l-0.037,0.009l-0.032-0.024l-0.008-0.04
	l0.022-0.037l0.067-0.062l-0.016-0.025l-0.052-0.001l-0.064-0.013l-0.06,0.007l-0.034,0.051l-0.004,0.087l0.02,0.072l0.041,0.048
	l0.064,0.012l0.037,0.089l0.173,0.016l0.071,0.073l-0.051-0.003l-0.058,0.013l-0.034,0.038l0.017,0.069h-0.026l-0.03-0.004
	l0.011,0.019l0.004,0.014l-0.002,0.014l-0.005,0.02l0.018-0.004l0.005-0.001l0.017,0.015l-0.118,0.149l-0.03,0.081l-0.004,0.113
	l0.01,0.106v0.126l-0.034,0.1l-0.096,0.021l0.003,0.031v0.017l-0.009,0.016l-0.021,0.023l0.013,0.009l0.023,0.022l0.013,0.008
	l-0.025,0.038l-0.027,0.024h-0.03l-0.034-0.024l0.003,0.07l-0.033,0.03l-0.053,0.005l-0.058-0.017l-0.001-0.015l-0.01-0.033v-0.016
	l-0.023-0.001l-0.016-0.006l-0.031-0.017l0.223-0.138l0.041-0.062l0.012-0.059l0.003-0.061l0.013-0.074l-0.072-0.026l-0.022,0.091
	l-0.015,0.035l-0.015-0.024l0.01-0.049l-0.017-0.05l-0.037-0.038l-0.049-0.014l-0.043-0.002v0.016l0.024,0.048l-0.003,0.026
	l-0.033,0.017l-0.043,0.006h-0.03l-0.019,0.026l-0.034,0.022l-0.038,0.003l-0.033-0.025l0.007-0.022l0.091-0.093l-0.035-0.012
	l0.064-0.034l0.016-0.017l0.007-0.019l0.007-0.029l0.003-0.025l-0.005-0.004l0.106-0.077l0.019-0.035l0.026,0.066l0.046-0.022
	l0.025-0.063l-0.032-0.056l-0.041-0.003l-0.063,0.029l-0.03-0.013l-0.009-0.027l0.009-0.035l0.016-0.052l0.002-0.04l0.027,0.019
	l0.021,0.009l0.061,0.013l-0.055-0.055l-0.053-0.073l-0.034-0.022l-0.04,0.014l-0.031,0.027l-0.016,0.033l-0.001,0.111l-0.038,0.084
	l-0.025,0.011l-0.039-0.031l-0.017,0.07l-0.093,0.106l-0.029,0.052l-0.02,0.013l-0.045-0.036l-0.02,0.029l-0.016,0.059l-0.028,0.049
	l-0.047-0.04l-0.018,0.017l-0.006,0.042l-0.011,0.032h-0.029l-0.034-0.014l-0.022,0.004l0.006,0.059l-0.021,0.015l-0.056-0.01
	l-0.072,0.001l-0.065,0.023l-0.039,0.06l-0.016-0.025l-0.023,0.039l-0.036,0.02l-0.044,0.013l-0.05,0.023l-0.039,0.047l-0.013,0.12
	l-0.023,0.054l0.015,0.024l0.026,0.028l0.031,0.142l0.044,0.084l-0.13,0.011l-0.064,0.013l-0.056,0.022l-0.049,0.04l-0.036,0.039
	l-0.034,0.017l-0.039-0.029l-0.157,0.197l0.002,0.033l-0.001,0.025l-0.009,0.019l-0.02,0.001l-0.059-0.014l-0.027,0.006
	l-0.074,0.027l-0.03,0.018l-0.025,0.034l-0.035-0.042l-0.039-0.011l-0.034,0.02l-0.024,0.043l-0.009-0.017l-0.007-0.001
	l-0.009,0.006l-0.012,0.004l0.003-0.035l-0.014-0.021l-0.025-0.011l-0.033,0.001l-0.014-0.023l0.047-0.007l0.057-0.017l0.05-0.031
	l0.028-0.039l0.002-0.055l-0.023-0.067l0.007-0.063l0.018-0.045l0.023-0.024l0.077-0.037l0.198-0.166l0.109-0.059l0.047-0.052
	l-0.009-0.049l-0.027-0.052l-0.012-0.055l0.055-0.058l0.186-0.001l0.032-0.044l0.063-0.001l0.041-0.029l0.033-0.031l0.042-0.01
	l0.031-0.119l0.028-0.046l0.252-0.167l0.024-0.033l0.033,0.013l0.062-0.008l0.07-0.022l0.058-0.032l0.096-0.076l0.058-0.015
	l0.08,0.016l-0.013-0.043l0.003-0.033l0.03-0.075l-0.046-0.033l-0.042-0.005l-0.046,0.019l-0.057,0.032l0.004-0.038l0.035-0.007
	l-0.01-0.023l-0.039-0.025l-0.054-0.009l0.013-0.011l0.005-0.012l0.004-0.011l0.007-0.016l0.028-0.003l0.018-0.023l0.015-0.032
	l0.023-0.032l-0.015-0.022l-0.097-0.025l-0.044-0.019l-0.039-0.021l0.056,0.002l0.005-0.04h-0.024l-0.016-0.007l-0.015-0.009
	l-0.021-0.011l0.025-0.015l0.049-0.035l0.026-0.014l-0.014-0.022l-0.059,0.036l-0.016-0.024l0.068-0.045l0.033-0.01l0.032,0.005
	l0.009-0.027l0.013-0.015l0.018-0.001l0.024,0.004l0.02-0.013l0.018-0.037l0.084-0.008l0.021-0.03l0.016-0.01l0.024,0.023
	l0.047,0.036l-0.003-0.023l-0.005-0.009l-0.008-0.004l-0.018-0.016v-0.022l-0.008-0.011l-0.019-0.003l-0.027,0.003l-0.015-0.025
	l0.024-0.022l0.025-0.011h0.024l0.024,0.007l-0.006-0.138l0.006-0.039l-0.016-0.026l-0.04,0.025l0.001-0.051l-0.007-0.049
	l0.069,0.007l0.054-0.02l0.013-0.036l-0.052-0.041l0.118-0.162l0.074-0.073l-0.016-0.023l-0.036-0.015l-0.034-0.004l-0.034,0.012
	l-0.348,0.298l-0.145,0.085l-0.047,0.05l0.033,0.033l0.016,0.028l-0.066,0.004l-0.345,0.143l-0.026,0.031l-0.017,0.055l-0.029,0.029
	l-0.033,0.017l-0.101,0.034l-0.069,0.052l-0.192,0.229l-0.038,0.007l-0.019,0.011l0.005,0.02l0.006,0.047l-0.027,0.007l-0.034,0.013
	l-0.032,0.022l-0.028,0.033l-0.084-0.007l-0.096,0.058l-0.074,0.091l-0.021,0.094l-0.073,0.003l-0.104,0.016l-0.064,0.049
	l0.038,0.097l-0.101-0.009l-0.04,0.002l-0.048,0.017l-0.083,0.065l-0.04,0.01l-0.046-0.01l-0.102-0.047l-0.03-0.008l-0.042,0.029
	l-0.023,0.066l-0.033-0.016l-0.003-0.018l-0.021,0.014l0.016,0.038l0.021,0.113l-0.023-0.015l-0.005-0.004l0.001-0.01l-0.006-0.025
	l-0.006-0.001l-0.006,0.003l-0.008-0.002l-0.015-0.011l0.005-0.022l0.001-0.006l-0.011-0.003l-0.025-0.02l-0.016,0.035l-0.068,0.063
	l-0.027,0.039l0.015,0.022l0.036,0.033l0.007,0.052l-0.015,0.055l-0.032,0.041l0.036,0.026l0.017,0.01l-0.031,0.01l-0.016,0.007
	l-0.016,0.021l-0.034-0.018l-0.046,0.047l-0.064-0.038l-0.064-0.07l-0.044-0.063l-0.053-0.054l-0.054-0.032l-0.045-0.047
	l-0.018-0.097l0.025-0.018l0.036-0.05l0.032-0.067l0.01-0.067l-0.033-0.006l-0.028,0.007l-0.024,0.021l-0.015,0.039l-0.019-0.006
	l-0.013-0.007l-0.022-0.025l0.037,0.01l0.007-0.062l0.114-0.022l0.046-0.049l-0.018-0.025l-0.012-0.033l-0.017-0.036l-0.033-0.034
	l0.037-0.011l0.034,0.008l0.03,0.027l0.024,0.045l0.02-0.012l-0.01-0.051l0.005-0.042l0.019-0.021l0.034,0.01l0.005-0.014v-0.008
	l-0.001-0.007l0.001-0.011l0.037,0.063l0.021,0.012l0.02-0.017l0.033-0.016l0.033,0.001l0.028,0.007l0.024-0.008l0.028-0.039v0.014
	l-0.003,0.006l-0.003,0.005l-0.002,0.012l0.091,0.051l0.059,0.002l0.038-0.037l0.043-0.105l0.045-0.064l0.013-0.038l0.02-0.037
	l0.071-0.042l0.021-0.035l-0.018-0.028l-0.035,0.031l-0.007,0.011l-0.003,0.023l-0.094-0.104l-0.06-0.047l-0.051-0.006l-0.017-0.028
	l0.119-0.114l0.043-0.016l0.011,0.098l0.025-0.032l0.015-0.03l0.013-0.079l-0.057,0.012l-0.032-0.016l-0.041-0.073l-0.004-0.02
	l0.021-0.05l0.004-0.029l-0.008-0.032l-0.025-0.051l-0.012-0.029l-0.05-0.003l-0.004-0.001l-0.028,0.01l-0.002,0.014l0.009,0.017
	l-0.002,0.013l-0.074,0.041l-0.027,0.03l0.003,0.038l0.02,0.065l-0.008,0.073l-0.03,0.055l-0.054,0.01l0.024-0.077l-0.022-0.054
	l-0.054-0.012l-0.065,0.042l-0.002,0.02l-0.01,0.045l-0.02,0.034l-0.027-0.014l-0.015-0.039l-0.002-0.048l0.014-0.101l-0.021-0.026
	l-0.011-0.048l-0.025-0.055l-0.071-0.039l-0.021,0.013l0.052,0.111l-0.044,0.077l-0.092,0.037l-0.093-0.013l-0.074-0.066
	l-0.022-0.091l0.019-0.093l0.047-0.075l-0.069-0.035l-0.072,0.01l-0.011,0.007l-0.049,0.034l-0.032,0.055l0.003,0.064l0.016,0.056
	l-0.011,0.051l-0.072,0.042l0.016,0.027l0.062,0.003l-0.01,0.026l-0.166,0.117l-0.031,0.04l-0.016,0.052l-0.039-0.016l-0.029-0.004
	l-0.021,0.013l-0.009,0.028l-0.021-0.024l-0.011-0.008l-0.019-0.006l-0.013,0.029l-0.007,0.007l-0.013-0.001l-0.03,0.001l0.009-0.05
	l-0.002-0.051l-0.019-0.042l-0.038-0.033l0.031-0.05l0.016-0.014l-0.016-0.026l-0.069-0.055l-0.088-0.178l-0.041,0.046l-0.031-0.013
	l-0.02,0.013l-0.012,0.029l-0.005,0.042l-0.025-0.07l-0.017-0.066l-0.025-0.058l-0.051-0.047l-0.004-0.03l-0.021-0.009l-0.024-0.015
	l-0.013-0.05l0.064,0.003l-0.01-0.074l-0.042-0.088l-0.035-0.035l-0.053,0.011l-0.237-0.008l-0.3,0.084l-0.146,0.01l-0.02-0.094
	l0.044-0.046l0.206-0.105l0.059-0.048l0.196-0.245l0.022-0.052l0.015-0.129l-0.015-0.068l-0.038-0.091l-0.046-0.082l-0.031-0.045
	l-0.043-0.021l-0.048-0.014l-0.044-0.032l-0.037-0.074l0.002-0.02l0.018-0.058l-0.002-0.035l-0.013-0.039l-0.013-0.034l-0.02-0.029
	l-0.033-0.026l0.02-0.063l-0.076-0.066l-0.161-0.089l-0.059,0.071l-0.106,0.064l-0.118,0.047l-0.09,0.014l-0.028-0.012l-0.026-0.02
	l-0.03-0.012l-0.035,0.008l-0.024,0.013l-0.026,0.009h-0.023l-0.019-0.016l-0.044-0.051l-0.037-0.004l-0.093,0.038l-0.187,0.032
	l-0.081,0.037l-0.081,0.074l-0.04,0.054l-0.018,0.014l-0.007,0.021l0.008,0.03l0.004,0.035l-0.018,0.026l-0.035-0.004l-0.147-0.093
	l-0.013-0.057l-0.035-0.054l-0.048-0.046l-0.048-0.037l-0.061-0.033l-0.104-0.026l-0.05-0.02l-0.035,0.058l-0.04-0.038l-0.061-0.113
	l-0.062-0.013l-0.043,0.03l-0.038,0.052l-0.049,0.045l-0.182,0.111l-0.022,0.029l0.106,0.265l-0.02-0.002l-0.003-0.003l-0.013-0.005
	l-0.019,0.011l0.041,0.048l0.028,0.048l0.006,0.045l-0.025,0.037l-0.028-0.005l-0.089-0.07l-0.055-0.029l0.047,0.078l-0.027,0.024
	l-0.059-0.006l-0.095-0.029l-0.037-0.02l-0.027-0.034l-0.021-0.059l-0.068,0.07l-0.111-0.019l-0.117-0.036l-0.093,0.01l0.049,0.052
	l0.017,0.013l-0.02,0.013l-0.029-0.015l-0.104-0.026l-0.017-0.042l-0.012-0.036l-0.019-0.034l-0.037-0.029l-0.021,0.012l0.037,0.114
	l-0.048,0.062l-0.09,0.02l-0.143-0.023h-0.038l-0.181,0.044l-0.019-0.022l-0.018-0.067l0.098-0.013l0.001-0.071l-0.012-0.084
	l0.055-0.055l-0.019-0.028l-0.077-0.004l-0.048-0.064l-0.001-0.055l0.065,0.022l-0.015-0.038l-0.003-0.02l0.007-0.016l0.007-0.026
	l0.039,0.039l0.025,0.038l0.012,0.042l-0.005,0.046l0.021,0.004l0.02-0.003l0.02-0.007l0.024-0.014l0.026-0.007l0.015,0.013
	l0.015,0.014l0.025,0.001l0.044-0.021l0.037-0.034l0.006-0.036l-0.052-0.028l-0.015-0.026l0.064,0.003l0.019-0.012l0.032-0.024
	l0.025-0.037l0.043-0.097l0.016-0.023l0.02-0.058l-0.041-0.078l-0.072-0.062l-0.073-0.012l-0.017-0.028l0.095-0.01l0.06,0.019
	l0.022-0.02l-0.013-0.122l-0.056-0.001l-0.111-0.022l-0.073,0.014l-0.059-0.013l-0.031,0.013l-0.018,0.032l0.007,0.063l-0.013,0.022
	l-0.06,0.03l-0.008-0.017l0.003-0.054l-0.022-0.081l-0.038-0.039l-0.169-0.081l0.034,0.016l-0.035-0.041l-0.104-0.091l-0.019-0.021
	l-0.012-0.024l-0.116-0.122l-0.031-0.054l-0.026-0.059l-0.011-0.052l0.018-0.035l0.039-0.033l0.044-0.071l0.027-0.027l0.081-0.04
	l0.085-0.025l0.082-0.007l0.079,0.013l0.162,0.049l0.089,0.039l0.05,0.049l0.132,0.068l0.132,0.052l0.039,0.009l0.029,0.003
	l0.028,0.011l0.042,0.032l0.03,0.038l0.021,0.036l0.023,0.035l0.037,0.028l-0.01,0.028l-0.008,0.013l-0.009,0.01l-0.035-0.008
	l-0.035,0.012l-0.028,0.028l-0.021,0.039l0.065-0.003l0.02,0.033l0.001,0.06l0.009,0.068l0.073-0.032l0.055,0.022l0.053,0.046
	l0.067,0.038l0.154,0.14l0.095,0.052l0.05-0.06l-0.014-0.057l-0.037-0.021l-0.067-0.006l-0.113-0.143l-0.022-0.073l-0.007-0.085
	l0.021-0.066l0.058-0.014l-0.016-0.025l0.018-0.011l0.057,0.017l0.074,0.049l0.146,0.118l0.009-0.016l0.026-0.032l0.008-0.016
	l0.052,0.033l0.04-0.03l0.034-0.059l0.044-0.048l0.216-0.161l0.103-0.157l0.04-0.037l0.01-0.016l0.017-0.057l0.013-0.021l0.03-0.017
	l0.034-0.005l0.03-0.011l0.024-0.041l0.013,0.013l0.007-0.023l0.104-0.012l0.04-0.084l0.024-0.116l0.055-0.098l-0.016-0.025
	l-0.042-0.006l-0.011,0.01l-0.009,0.034l-0.036-0.017l-0.041,0.06l-0.104,0.049l-0.018,0.028l-0.097,0.009l-0.076,0.05l-0.137,0.187
	l-0.044,0.065l-0.011,0.005l0.002-0.061l-0.07-0.006l-0.176-0.091h-0.055l-0.086,0.02h-0.04l-0.097-0.013l-0.073-0.04l0.069,0.018
	l0.075,0.008l0.109,0.001l0.044-0.028l-0.016-0.026l-0.061-0.021l-0.058-0.013l-0.057-0.003l-0.062,0.006l-0.014-0.051l-0.04-0.103
	l-0.015-0.052l-0.066-0.014l-0.02,0.027l-0.017,0.048l-0.058,0.035l-0.011-0.046l-0.001-0.02l-0.076,0.015l-0.039,0.018
	l-0.038,0.029l-0.004-0.021l-0.019-0.046l-0.004-0.021l-0.039,0.022l-0.036,0.002l-0.074-0.006l0.005-0.036l0.013-0.031l0.02-0.025
	l0.031-0.02l-0.11-0.05l-0.051-0.037l-0.061-0.056l0.031-0.07l0.13-0.121l0.049-0.111l0.02-0.003l0.02,0.006l0.008,0.006h0.008
	l0.036-0.015l0.028-0.017l0.085-0.01l0.048-0.011l0.043-0.029l-0.049-0.04l0.017-0.037l0.01-0.038l0.017-0.021l0.041,0.012
	l-0.009-0.033l-0.016-0.031l-0.022-0.029l-0.03-0.034l-0.003,0.04l-0.121-0.069l-0.037-0.013l0.086-0.121l0.067,0.068l0.055-0.02
	l0.002-0.067l-0.094-0.073l0.038-0.043l0.031-0.052l0.02-0.052l0.009-0.048l0.082,0.004l0.038-0.077l-0.013-0.072l-0.073,0.02
	l-0.013-0.129l-0.025-0.041l-0.071-0.011l-0.022,0.075l-0.019,0.042l-0.028,0.028l-0.055,0.035l-0.021-0.004l-0.061-0.035
	l-0.023-0.003l-0.028,0.033l-0.013,0.034l-0.02,0.017l-0.048-0.017l-0.015,0.049l-0.063,0.119l-0.03,0.033l-0.041,0.003l-0.086-0.04
	l-0.053,0.01l-0.076-0.006l-0.079-0.068l-0.051-0.099l0.008-0.09l-0.016-0.024l-0.015,0.011l-0.046,0.025l0.009-0.067l0.036-0.09
	l0.047-0.085l0.045-0.05l0.01-0.05l-0.066-0.059l-0.136-0.072l-0.143-0.054l-0.06-0.008l-0.118,0.008l-0.029,0.002l-0.082-0.01
	l-0.068-0.022l-0.02-0.042l-0.068-0.06l-0.057-0.067l-0.058-0.044l-0.063,0.007l-0.135,0.092l-0.072,0.037l-0.073,0.009l0.012-0.046
	l-0.028-0.087l-0.002-0.051l0.028-0.038h0.037l0.012,0.027l-0.044,0.043l0.015,0.024l0.029-0.021l0.034-0.005l0.033,0.005
	l0.035,0.013l-0.053-0.047l-0.002-0.04l0.022-0.036l0.015-0.038l0.005-0.107l0.165-0.417l-0.04-0.006l-0.014,0.003l-0.015-0.022
	l-0.011-0.028l-0.014-0.022l-0.022-0.028l0.1-0.071l0.028-0.039l0.019-0.049l-0.064-0.035l0.024-0.064l0.134-0.154l0.007-0.014
	l-0.008-0.014l-0.019-0.042l-0.047-0.164l-0.051-0.079l-0.05-0.04h-0.061l-0.087,0.042l-0.05,0.067l-0.022,0.082l-0.04,0.058
	l-0.104-0.008l-0.359,0.317l-0.539,0.475l-0.048,0.066l-0.01,0.05l-0.029,0.018l-0.084,0.148l-0.013,0.03l-0.034,0.021l-0.169,0.063
	l-0.029,0.022l-0.024,0.042l-0.029,0.022l-0.006,0.048v0.01l0.002,0.025l-0.024,0.004l-0.046-0.007l-0.193,0.192l-0.115,0.068
	l-0.146,0.008l-0.062-0.074l-0.044-0.238l-0.064-0.211l0.046-0.171l-0.027-0.103l-0.102-0.217l-0.037-0.033l-0.115-0.072
	l-0.041-0.042l-0.016-0.035l0.005-0.02l0.009-0.018l-0.005-0.026l-0.053-0.09l-0.045-0.108l-0.028-0.027l-0.05,0.018l-0.011-0.053
	l-0.067-0.213l-0.017-0.022l-0.059-0.063l-0.022-0.033l-0.013-0.038l-0.004-0.067l-0.012-0.033l-0.01-0.041l-0.002-0.143l0.01-0.042
	l0.185-0.038l0.026-0.059l0.07-0.099l0.02-0.037l0.049-0.195v-0.057l-0.011-0.037l-0.025-0.05l-0.004-0.028l-0.007-0.017
	l-0.013-0.016l-0.009-0.014l0.006-0.012l0.033-0.019l0.013-0.012l0.005-0.019l-0.011-0.059l-0.029-0.074l-0.043-0.07l-0.053-0.045
	l-0.015-0.065l0.001-0.032l0.018-0.018l0.037-0.02l0.034-0.032l0.054-0.079l0.079-0.083l0.025-0.078l0.025-0.244l0.016-0.032
	l0.02-0.023l0.026-0.045l0.018-0.051l0.079-0.561l0.031-0.084l0.112-0.077l0.258-0.127l0.082-0.083l0.037-0.01l0.1-0.003
	l0.171-0.084l0.054-0.052l0.04-0.112l0.016-0.131l0.044-0.123l0.128-0.087l0.107-0.04l0.111-0.062l0.054-0.055l0.06-0.119
	l0.043-0.027l0.068,0.008l0.063,0.035l0.112,0.089l-0.023,0.052l-0.018,0.011l-0.023-0.008h-0.001v0.01l-0.016,0.021l0.204,0.061
	l0.221,0.009l0.214-0.028l0.231-0.074l0.079-0.049l0.026-0.025l0.058-0.127l0.039-0.038l0.092-0.031l0.087-0.01l0.074-0.026
	l0.044-0.081l0.072-0.01l0.09-0.047l0.065-0.065l0.006-0.141l0.103-0.176l0.006-0.093l-0.053,0.031l-0.172,0.037l-0.025,0.051
	l-0.024,0.017l-0.034-0.03l-0.029-0.034h-0.021l-0.021,0.01l-0.026-0.004l-0.037-0.02l-0.021-0.009l-0.02-0.017l-0.032-0.045
	l-0.023-0.02l-0.025,0.009l-0.024,0.015l-0.027,0.005l-0.149-0.035l-0.048-0.022l-0.014-0.022l0.024-0.036l0.015-0.038l0.014-0.083
	l0.021-0.033h0.033l0.027-0.009v-0.063l0.097,0.036l0.01,0.009l0.028-0.012l0.002-0.015l-0.001-0.021l0.022-0.023l0.511-0.216
	l0.151-0.032l0.096,0.025l0.005,0.117l-0.166,0.28l-0.034,0.109l0.071,0.087l0.121-0.032l0.221-0.168l0.183-0.238l0.646-0.446
	l0.162-0.067l0.237-0.163l-0.025,0.025l-0.017,0.029l-0.002,0.032l0.012,0.038l0.088-0.115l0.129-0.082l0.155-0.049l0.165-0.019
	l0.003-0.033l0.013-0.002l0.02,0.007l0.022-0.008l0.017-0.027l0.012-0.047l0.014-0.027l0.144-0.127l0.02-0.063l0.027-0.05
	l0.06-0.027l0.113-0.03l0.089-0.051l0.09-0.03l0.051-0.007h0.093l0.06-0.015l0.055-0.023l0.214-0.145l0.043-0.042l0.02-0.056
	l-0.007-0.063l-0.039-0.115l-0.007-0.057l0.047-0.008l0.043-0.03l0.039-0.046l0.027-0.051l-0.089-0.029l-0.099-0.017h-0.092
	l-0.073,0.022l-0.152,0.099l-0.017,0.027l-0.029,0.091l-0.022,0.032l-0.17,0.059l-0.345,0.002l-0.176,0.062l-0.02-0.147l0.056-0.125
	l0.148-0.204l0.05-0.107l0.04-0.199l0.034-0.048l0.774-0.607l0.091-0.115l0.071-0.138l0.029-0.082l0.017-0.019l0.033,0.006
	l0.045,0.021l0.041,0.006l0.023-0.036l0.015-0.034l0.025-0.036l0.02-0.038l-0.004-0.034l-0.007-0.035l0.014-0.035l0.023-0.032
	l0.026-0.025l0.031-0.014l0.06-0.008l0.068,0.019l0.063,0.057l0.031-0.021l0.457-0.473l0.307-0.223l0.131-0.02l0.058-0.038
	l-0.003-0.097l-0.082-0.066l-0.122,0.051l-0.205,0.177l-0.015,0.018l-0.014,0.024l-0.02,0.023l-0.03,0.021l-0.042,0.005
	l-0.089-0.015h-0.025l-0.049,0.021l-0.119,0.028l-0.062,0.029l-0.643,0.455l-0.04,0.052l-0.023,0.063l-0.032,0.049l-0.071,0.017
	l-0.044-0.017l-0.033-0.026l-0.03-0.019l-0.037,0.009l0.007-0.016l0.002-0.012l0.004-0.013l0.011-0.014l-0.034-0.03l-0.033-0.016
	l-0.035-0.005l-0.038,0.002l0.003,0.031l-0.042-0.006l-0.009,0.035l-0.025,0.035l-0.064,0.064l-0.016-0.023l0.025-0.021l0.01-0.026
	l-0.008-0.032l-0.021-0.036h0.038l0.018,0.002l-0.013-0.014l-0.003-0.012l0.007-0.007l0.01-0.008l-0.063-0.028l-0.097-0.031
	l-0.042-0.002l-0.052-0.003l-0.051,0.048l-0.086-0.019l-0.204,0.026l-0.088-0.011l-0.104-0.037l-0.088-0.013l-0.206,0.016
	l0.007-0.014l0.001-0.003l-0.002-0.004l-0.004-0.02l-0.042,0.008l-0.037-0.03l-0.043-0.044l-0.05-0.036l0.033-0.062l0.015-0.1
	l-0.004-0.106l-0.051-0.165l-0.001-0.076l-0.021-0.049l-0.088-0.004v-0.146l0.029-0.184l0.06-0.148l0.094-0.039l0.017-0.012
	l0.004-0.056l0.041-0.032l0.58-0.238l0.635-0.226l0.805-0.37l0.708-0.438l0.072-0.062l0.028-0.045l0.033-0.091l0.031-0.033
	l0.012-0.038l-0.008-0.057v-0.041l0.033,0.004l0.011-0.051l-0.004-0.078l0.02-0.037l0.056,0.006l0.129-0.05l0.139,0.011l1.049-0.383
	l0.146,0.021l0.061-0.002l0.263-0.112l0.694-0.494l0.041-0.085l0.021-0.025l0.036-0.021l0.069-0.023l0.032-0.017l0.099-0.099
	l0.018-0.007l0.037-0.004l0.018-0.004l0.016-0.021l-0.004-0.019l-0.005-0.021l0.008-0.024l0.083-0.12l0.053-0.12l0.052-0.251
	l0.004-0.078l-0.011-0.064l-0.028-0.067l-0.049-0.08l-0.017-0.036l-0.022-0.091l-0.023-0.047l-0.026-0.013h-0.075l-0.029-0.023
	l-0.002-0.067l0.044-0.063l0.119-0.092l0.006-0.026l-0.002-0.097l0.005-0.028l0.023-0.025l0.302-0.441l0.316-0.787l0.219-0.392
	l0.046-0.148l0.016-0.034l0.197-0.265l0.044-0.098l-0.017-0.122l0.037-0.327v-0.028l-0.015-0.109l0.073-0.09l0.144-0.11
	l-0.011-0.027l0.016-0.023l0.019-0.035l-0.013-0.029l-0.004-0.022l0.011-0.018h0.017l0.049,0.018h0.013l0.032-0.058l0.013-0.109
	l0.016-0.064l0.118-0.229l0.016-0.045l0.024-0.043l0.037-0.032l0.055-0.008l-0.009-0.079l0.03-0.089l0.063-0.067l0.086-0.011
	l0.039-0.037l0.123-0.176l0.025-0.05l0.043-0.024l0.072-0.06l0.064-0.074l0.025-0.062l0.041-0.004l0.156-0.184l0.064-0.112
	l0.065-0.172l0.323-0.444l0.268-0.529l0.094-0.076l0.223-0.105l0.283-0.203l0.068-0.035l0.169-0.045l0.612-0.354l0.035-0.054
	l0.097-0.025l0.326-0.282l0.963-0.513l0.239-0.313l0.092-0.082l0.052-0.018l0.104-0.016l0.116-0.036l0.367-0.238l0.127-0.12
	l0.108-0.145l0.025-0.058l0.043-0.155l0.054-0.13l0.007-0.158l-0.026-0.167l-0.06-0.119l0.046-0.014L1136.063,533.493z"/></svg>