<?xml version="1.0" encoding="utf-8"?>
<!-- Generator: Adobe Illustrator 15.0.0, SVG Export Plug-In . SVG Version: 6.00 Build 0)  -->
<!DOCTYPE svg PUBLIC "-//W3C//DTD SVG 1.1//EN" "http://www.w3.org/Graphics/SVG/1.1/DTD/svg11.dtd">
<svg version="1.1" id="Ebene_1" xmlns="http://www.w3.org/2000/svg" xmlns:xlink="http://www.w3.org/1999/xlink" x="0px" y="0px"
	 width="1920px" height="1080px" viewBox="0 0 1920 1080" enable-background="new 0 0 1920 1080" xml:space="preserve">

<path fill="#F4E0B6" stroke="#FFFFFF" d="M1292.879,698.354l0.012,0.149l-0.082,0.071l-0.116-0.097l0.03,0.064l0.019,0.073v0.062
	l-0.023,0.038l-0.012,0.017l-0.003,0.02l-0.008,0.023l-0.025,0.024l-0.039,0.004l-0.038-0.013l-0.028-0.019l-0.011-0.011
	l-0.06,0.049l-0.072,0.086l-0.139,0.22l-0.059-0.017l-0.04,0.033l-0.013,0.07l0.018,0.091l0.044,0.032l0.067,0.011l0.053,0.021
	l0.005,0.073l-0.06,0.033l-0.053-0.016l-0.044-0.046l-0.037-0.07l-0.097,0.089l-0.053-0.139l-0.014-0.225l0.016-0.174l0.064-0.112
	l0.099-0.106l0.076-0.119l-0.003-0.148l0.027-0.113l0.135-0.063l0.169-0.022l0.127,0.016L1292.879,698.354z M1254.832,708.149
	l-0.025,0.067l-0.105,0.011l-0.174-0.033l-0.104,0.033l-0.039-0.007l-0.021-0.055l-0.004-0.065l0.004-0.044l0.031-0.052l0.141-0.103
	l0.135-0.15l0.083-0.01l0.092,0.117l0.032,0.036l0.033,0.006l0.023,0.016l0.003,0.063l-0.021,0.064L1254.832,708.149z
	 M1255.43,706.988l-0.013,0.146l-0.123,0.286l-0.062,0.011l-0.082,0.041l-0.073,0.013l-0.035-0.076l0.099-0.132l0.023-0.045
	l0.002-0.054l-0.031-0.186l0.124,0.081l0.063,0.02l0.053-0.027l0.007-0.052l-0.022-0.139l0.018-0.073L1255.43,706.988z
	 M1241.641,675.953l0.104,0.473l0.441-0.267l0.41-0.092l0.219,0.724l0.438,0.247l0.521,0.291l0.008-0.001l0.5-0.09l-0.082-0.16
	l-0.002-0.003l-0.123-0.215l0.056-0.17l0.183-0.09l0.22,0.273l0.336-0.2l0.288-0.17l0.07,0.077l0.143,0.078l0.073,0.092l0.057,0.104
	l0.06,0.083l0.081,0.05l0.119,0.008l0.294,0.059l0.145,0.01l0.122-0.035l0.017-0.011l0.649-0.398l0.137-0.114l0.048-0.028
	l0.053-0.014l0.114-0.006l0.063-0.028l0.818-0.518l0.689-0.438l0.045-0.014l0.1,0.002l0.032-0.008l0.012-0.004l0.86-0.528
	l0.326-0.081l0.451-0.02l0.216-0.066l0.071,0.009l0.167,0.085l0.051,0.005l0.084-0.063l0.043-0.01l0.063,0.027l0.053,0.034
	l0.104,0.095l0.034,0.018l0.028-0.008l0.026-0.019l0.032-0.007l0.371,0.021l0.669,0.039l0.671,0.04l0.788,0.043l0.561,0.034
	l0.636,0.036l0.717,0.042l0.662,0.036l0.695,0.041l0.216,0.011l0.155,0.039l0.269,0.131l0.14,0.048l0.085-0.002l0.172-0.038
	l0.181,0.035l0.064-0.022l0.115-0.124l0.133-0.1l0.533-0.232l0.535-0.237l0.24-0.178l0.148-0.249l-0.017-0.031l-0.037-0.04
	l-0.022-0.047l0.029-0.046l0.033-0.004l0.146,0.025l0.073,0.023l0.039,0.033l0.041,0.019l0.077-0.022l0.065-0.028l0.022-0.02
	l0.044-0.065l0.021,0.013l0.024,0.022l0.039,0.003l0.284-0.142l-0.027-0.032l-0.048-0.073l-0.026-0.03l0.26,0.099l0.133,0.034
	l0.122-0.002l0.558-0.143l0.421-0.107l0.119-0.074l0.162-0.156l0.086-0.034l0.092-0.015l0.07-0.045l0.218-0.218l0.054-0.016
	l0.083-0.007l0.576-0.048l0.212-0.067l0.173-0.11l0.093-0.218l0.016-0.036l0.063-0.032l0.063,0.038l0.028,0.114l0.594-0.329
	l0.183-0.035l0.085,0.03l0.075,0.053l0.088,0.044l0.115,0.008l0.142-0.098l-0.024-0.177l-0.158-0.387v-0.223l0.071-0.476l0.084-0.57
	l-0.01-0.176l-0.043-0.195l-0.157-0.438l-0.112-0.309l-0.003-0.176l0.235-0.44l0.236-0.44l0.267-0.499l0.122-0.235l-0.003-0.041
	l-0.026-0.027l-0.012-0.021l0.049-0.022h0.02l0.017-0.004l0.013-0.01l0.332-0.454l0.257-0.353l0.005-0.041l-0.036-0.094l0.007-0.042
	l0.402-0.601l0.33-0.493l0.26-0.387l0.13-0.377l0.216,0.078l0.439,0.025l0.224,0.064l0.2,0.103l0.087,0.02l0.121-0.007l0.286-0.058
	l0.113,0.001l0.216,0.041l0.654,0.251l0.345,0.04l0.304-0.042l0.269-0.119l0.453-0.317l0.499-0.351l0.18-0.21l0.116-0.083
	l0.297-0.323l0.079-0.041l0.167-0.021l0.077-0.028l0.055-0.056l0.102-0.238l0.285-0.061l0.3-0.014l0.244-0.086l0.119-0.274
	l0.091,0.818l0.089,0.819l0.091,0.82l0.09,0.824l0.055,0.508l0.057,0.508l0.054,0.51l0.056,0.51l-0.059,0.633l-0.06,0.635
	l-0.06,0.635l-0.06,0.634l-0.025,0.265l0.046,0.179l0.22,0.265l0.531,0.636l0.556,0.665l0.305,0.371l0.438,0.532l0.438,0.534
	l0.439,0.535l0.439,0.536l0.519,0.632l0.52,0.633l0.522,0.637l0.523,0.637l0.524,0.639l0.525,0.642l0.072,0.087l0.457,0.557
	l0.529,0.644l0.531,0.648l0.533,0.649l0.534,0.65l0.536,0.653l0.538,0.655l0.54,0.658l0.54,0.658l0.538,0.666l0.204,0.522
	l0.167,0.43l0.165,0.429l0.268,0.688l0.268,0.687l0.266,0.684l0.266,0.683l0.172,0.442l0.171,0.441l0.185,0.475l0.204,0.135
	l0.202,0.136l0.204,0.134l0.202,0.137l0.394,0.26l0.407,0.272l0.438,0.29l0.361,0.24l0.39,0.258l0.408,0.271l0.399,0.264
	l0.397,0.265l0.303,0.202l0.11,0.102l0.062,0.108l0.13,0.395l0.042,0.128l0,0l0,0l-0.003,0.004l-0.195,0.693l-0.051,0.438
	l0.016,0.121l-0.074,0.143l-0.16,0.475l-0.075,0.367l-0.073,0.133l-0.118-0.072l-0.074,0.096l-0.088,0.038l-0.083-0.039l-0.055-0.13
	l-0.05,0.182l0.036,0.158l0.007,0.165l-0.147,0.063l-0.211,0.052l-0.045,0.02l-0.042,0.081l-0.047,0.188l-0.105,0.143l-0.021,0.112
	l-0.026,0.098l-0.079,0.038l-0.079-0.005l-0.062-0.015l-0.055-0.041l-0.054-0.075l-0.029-0.093l-0.018-0.197l-0.03-0.073
	l-0.044-0.078l-0.009-0.086l0.021-0.178l-0.109,0.264l0.25,0.729l-0.042,0.222l-0.123-0.035l-0.231-0.325l-0.12-0.033l-0.065-0.009
	l-0.068-0.041l-0.055,0.003l-0.025,0.119l0.065,0.074l0.046,0.073l0.016,0.084l0.063-0.088l0.07-0.015l0.068,0.045l0.053,0.091
	l0.005,0.047l-0.032,0.059l0.001,0.041l0.039,0.05l0.041-0.007l0.038-0.01l0.031,0.032l0.176,0.438l0.117,0.22l0.121,0.118
	l0.049-0.01l0.05-0.037l0.061-0.03l0.081,0.02l0.081,0.06l0.033,0.063l0.004,0.188l-0.051,0.251l-0.098,0.088l-0.041-0.06
	l0.121-0.188l-0.099,0.009l-0.088-0.019l-0.176-0.089l-0.036-0.038l-0.006-0.034l-0.012-0.022l-0.061,0.005l0.011,0.01l-0.027,0.032
	l-0.064,0.058l-0.09,0.151l-0.048,0.223l-0.06,0.169l-0.126-0.011l0.022,0.049l0.034,0.049l0.043,0.029l0.046-0.004l0.03,0.004
	l0.005,0.045l-0.007,0.083l0.064,0.071l0.18,0.036l0.066,0.067l-0.005,0.171l-0.071,0.238l-0.1,0.22l-0.181,0.241l-0.13,0.604
	l-0.138,0.172l-0.163,0.044l-0.174-0.002l-0.171,0.042l-0.151,0.109l-0.413,0.464l-0.132,0.29l-0.104,0.116l-0.1,0.188l-0.146,0.374
	l-0.028,0.106l-0.011,0.106l0.008,0.3l-0.057,0.304l0.018,0.112l0.027,0.041l0.116,0.078l0.021,0.035l0.018,0.103l0.014,0.055
	l0.056,0.43l0.064,0.2l0.139,0.038l0.035,0.169l0.084,0.037l0.094-0.067l0.064-0.147l0.029,0.064l-0.01,0.093l-0.092,0.29
	l-0.036,0.22l0.002,0.085l0.095,0.312l0.01,0.12l-0.053,0.376l0.026,0.079l0.135,0.187l0.042,0.109l0.006,0.107l-0.011,0.106
	l-0.026,0.105l-0.046,0.094l-0.182,0.257l-0.042,0.087l-0.052,0.227l-0.038,0.1l-0.079,0.063l-0.001-0.12l-0.036-0.252l-0.022-0.087
	l-0.074,0.072l-0.016,0.079l0.021,0.081l0.034,0.083l0.016,0.056l0.028,0.161l0.022,0.026l0.03,0.022l0.021,0.029l-0.018,0.216
	l0.024,0.364l-0.029,0.321l0.081,0.362l-0.002,0.167l-0.033,0.1l-0.039,0.033l-0.123,0.001l-0.029-0.005l-0.097-0.054l-0.025,0.007
	l-0.13,0.058V710.9l-0.007-0.025l-0.067-0.021l0.006,0.127l0.047,0.081l0.078,0.02l0.095-0.055l-0.025,0.115l0.046,0.057
	l0.076-0.009l0.133-0.174l0.072,0.019l0.063,0.071l0.046,0.08l0.063,0.188l0.12,1.498l-0.064,0.208l-0.125,0.101l-0.129-0.034
	l-0.077-0.196l-0.076,0.129l-0.013,0.059l0.04,0.049l0.055,0.041l0.037,0.046l0.042,0.041l0.068,0.026l0.101-0.067l0.064,0.002
	l0.026,0.106l-0.048,0.19l0.001,0.048l0.007,0.059l-0.006,0.09l-0.018,0.085l-0.029,0.051l-0.059-0.006l-0.082-0.113l-0.049-0.012
	l-0.06-0.052l-0.042-0.139l-0.038-0.075l-0.05,0.13l-0.152-0.014l-0.06,0.02l-0.03,0.081l0.067,0.028l0.067-0.003l0.14-0.034
	l0.004,0.122l-0.024,0.074l-0.133,0.124l-0.047,0.026l-0.057,0.023l-0.039,0.029l-0.001,0.049l0.05,0.119l0.032,0.054l0.043,0.048
	l0.023-0.15l0.151-0.098l0.188-0.032l0.134,0.055l0.037,0.146l-0.042,0.624l0.031,0.549l0.122,0.784l0.012,0.19l-0.07-0.052
	l-0.04,0.026l-0.02,0.071l-0.013,0.086l0.005,0.033l0.032,0.069l-0.002,0.04l-0.037,0.111l-0.006,0.032l0.071,0.672l-0.071-0.088
	l-0.05-0.174l-0.05-0.071l-0.038,0.09l-0.002,0.096l0.007,0.105l-0.005,0.105l-0.023,0.01l-0.042-0.005l-0.028,0.022l0.02,0.087
	l0.028,0.042l0.121,0.083l-0.016,0.104l-0.146,0.115l-0.199,0.043l-0.179-0.104l0.01,0.033l0.006,0.1l-0.157,0.023l-0.055,0.173
	l-0.021,0.21l-0.06,0.129l-0.016,0.018l-0.017,0.012l-0.012,0.017l-0.006,0.032l-0.533-0.129l-0.537-0.129l-0.538-0.13l-0.537-0.129
	l-0.538-0.129l-0.539-0.131l-0.537-0.129l-0.539-0.13l-0.54-0.127l-0.042-0.012l-0.498-0.12l-0.541-0.128l-0.539-0.13l-0.541-0.129
	l-0.542-0.129l-0.542-0.13l-0.543-0.131l-0.346-0.081l-0.106-0.067l-0.095-0.091l-0.228-0.307l-0.071-0.067l-0.097-0.038
	l-0.108-0.003l-0.112,0.022l-0.104,0.046l-0.215,0.139l-0.047-0.069l-0.01-0.133l-0.021-0.105l-0.042-0.032l-0.082,0.031
	l-0.051-0.022l-0.033-0.057l-0.016-0.072l-0.004-0.077l0.002-0.064l0.03-0.129l0.062-0.16l0.08-0.134l0.085-0.058l-0.049-0.1
	l-0.018-0.088l0.026-0.076l0.081-0.055l-0.386-0.649l-0.042-0.07l-0.343-0.578l-0.13-0.103l-0.498-0.049l-0.832-0.084l-0.462-0.047
	l-1.297-0.129l-1.297-0.129l-1.3-0.13l-1.301-0.128l-1.303-0.127l-1.304-0.131l-1.307-0.129l-1.309-0.127l-1.311-0.129l-1.033-0.101
	l-0.278-0.028l-1.315-0.127l-1.316-0.129l-0.322-0.031l-0.995-0.097l-1.321-0.127l-1.322-0.129l-0.33-0.032l-0.005-0.028
	l-0.02-0.004h-0.028l-0.036-0.044l0.008-0.08l0.063-0.053l0.038-0.052l-0.067-0.074l-0.037,0.082l-0.064,0.066l-0.082,0.019
	l-0.089-0.057l0.111-0.029l0.018-0.056l-0.042-0.169l0.292,0.051l0.086-0.017l-0.017-0.038l-0.094-0.091l-0.05-0.149l-0.058-0.279
	l0.012-0.106l0.059-0.122l0.021-0.126l-0.104-0.122l-0.058-0.004l-0.257,0.031l-0.271-0.058l-0.037,0.003l-0.055-0.111l-0.093-0.151
	l-0.102-0.094l-0.088,0.067l-0.195-0.555l-0.006-0.101l0.028-0.038l0.027-0.072l0.017-0.077l-0.003-0.061l-0.048-0.071l-0.063-0.035
	l-0.066-0.023l-0.066-0.037l0.021-0.033l0.063-0.046l0.028-0.035l0.028-0.146l-0.003-0.019l0.17-0.075l0.053-0.057l0.014-0.112
	l-0.121-0.433l-0.009-0.21l0.139-0.133l-0.003,0.029l0.008,0.068l0.136-0.071l0.29,0.107l0.153-0.007l-0.036-0.032l-0.04-0.046
	l-0.021-0.049l0.022-0.035l0.044,0.004l0.087,0.081l0.038,0.022l0.084-0.027l0.043-0.076l-0.014-0.094l-0.076-0.084l0.07-0.046
	l0.063-0.012l0.062,0.012l0.065,0.03l0.049,0.036l0.099,0.099l0.03,0.043l-0.002,0.057l-0.012,0.075l0.02,0.051l0.086-0.026
	l0.048-0.058l0.062-0.183l0.043-0.056l0.004-0.026l0.086-0.178l-0.014-0.061l-0.039-0.081l-0.059-0.062l-0.25,0.014l-0.109-0.142
	l-0.074-0.182l-0.066-0.119l0.066-0.105l0.119-0.13l0.124-0.108l0.084-0.037l0.029-0.07l0.036-0.024l0.042,0.005l0.052,0.022
	l0.068,0.01l0.043-0.027l0.034-0.039l0.036-0.027l0.248-0.047l0.1-0.045l0.276-0.206l0.051-0.063l-0.039-0.093l-0.081-0.102
	l-0.031-0.084l0.111-0.034l0.045-0.059l0.178,0.045l0.109-0.019l0.032-0.043l0.006-0.06l-0.004-0.052l0.005-0.026l0.015-0.038
	l-0.058-0.026l-0.068-0.014l-0.021,0.003l-0.337-0.299l-0.045-0.055l-0.079,0.007l-0.094-0.03l-0.091-0.052l-0.062-0.049
	l-0.012,0.064l-0.123-0.112l-0.04-0.084l-0.018-0.099l-0.06-0.146l-0.051,0.069l-0.232,0.124l0.002,0.066l-0.023,0.09l-0.036,0.084
	l-0.09,0.102l-0.072,0.146l-0.157,0.132l-0.055,0.081l-0.041,0.102l-0.029,0.108l-0.047,0.097l-0.07,0.032l-0.172,0.012l-0.07,0.04
	l-0.148,0.195l-0.15,0.056l-0.079,0.054l-0.043,0.095l0.022,0.101l0.066,0.083l0.078,0.024l0.057-0.076l0.105,0.098l0.082,0.112
	l0.047,0.121l-0.004,0.131l-0.131,0.373l0.01,0.112l0.024,0.111l-0.006,0.131l-0.054,0.075l-0.123-0.045l-0.006-0.029l-0.003-0.06
	l-0.017-0.069l-0.04-0.065l-0.04-0.022l-0.061-0.012l-0.065-0.004l-0.051,0.007l0.021-0.094l-0.014-0.065l-0.044-0.021l-0.069,0.038
	l-0.015-0.251l-0.054-0.063l-0.133-0.035l-0.202-0.004l-0.085-0.045l-0.041-0.128l-0.134,0.094l-0.186,0.063l-0.178-0.022
	l-0.12-0.147l0.013-0.043l0.081-0.142l0.03-0.036l0.061-0.06l-0.014-0.036l-0.06-0.004l-0.074,0.045l0.009-0.212l-0.021-0.1
	l-0.071-0.008l-0.135,0.085l-0.071,0.073l-0.032,0.087l0.035-0.02l0.005,0.06l0.011,0.054l0.016,0.052l0.028,0.059l-0.05-0.009
	l-0.022-0.024l-0.02-0.032l-0.029-0.022l0.024,0.003l-0.098-0.063l-0.017,0.025l-0.055,0.034l-0.042-0.009l0.011-0.098l-0.018-0.038
	l-0.037-0.009l-0.037,0.003l-0.09,0.044l-0.029-0.016l-0.082-0.178l-0.128-0.146l-0.037-0.047l-0.058-0.052l-0.064-0.014
	l-0.063-0.006l-0.061-0.019l-0.05-0.039l-0.045-0.043l-0.08-0.104l-0.027-0.064l0.035-0.02l0.053-0.009l0.026-0.039l-0.021-0.087
	l-0.05-0.091l-0.119-0.156l-0.052-0.097l-0.075-0.197l-0.037-0.074l-0.036-0.035l-0.078-0.052l-0.016-0.443l0.063-0.248
	l-0.011-0.094l-0.063-0.116l-0.19-0.166l-0.075-0.095l-0.014-0.061l0.004-0.157l-0.007-0.074l-0.018-0.055l-0.26-0.591l-0.008-0.02
	l-0.036-0.211l0.062-0.188l0.135-0.188l0.089-0.174l0.016-0.203l-0.086-0.271l-0.069-0.132l-0.037-0.073l0.007-0.068l0.178-0.345
	l0.021-0.129l-0.085-0.252l-0.006-0.276l-0.12-0.407l-0.05-0.125l-0.165-0.238l-0.056-0.124l-0.037-0.131l-0.021-0.12l0.02-0.161
	l0.092-0.025l0.111,0.006l0.077-0.074l0.004-0.004l-0.01-0.066l-0.008-0.059l-0.077-0.123l-0.037-0.113l0.185-0.189l0.035-0.265
	l0.049-0.123l0.352-0.268l0.094-0.161l-0.094-0.247l-0.198-0.179l-0.232-0.165l-0.079-0.093l-0.071-0.083l0.093-0.414l-0.204-0.477
	l-0.021-0.241l0.027-0.053l0.082-0.079l0.029-0.05l0.011-0.077l-0.01-0.08l-0.104-0.434l-0.053-0.128l-0.719-1.006l-0.025-0.074
	l-0.001-0.172l-0.023-0.064l-0.064-0.045l-0.188-0.049l-0.079-0.028l-0.099-0.071l-0.092-0.091l-0.082-0.104l-0.065-0.104
	l-0.123-0.253l-0.07-0.1l-0.608-0.435l-0.242-0.174l-0.52-0.371l-0.174-0.182l-0.051-0.15l0.032-0.119l0.05-0.113l0.002-0.129
	l-0.07-0.123l-0.104-0.062l-0.227-0.068l-0.096-0.082l-0.208-0.236l-0.095-0.042l-0.037,0.032v0.061l-0.009,0.057l-0.067,0.032
	l-0.076-0.021l-0.511-0.329l-0.384-0.398l-0.32-0.263l-0.051-0.034l-0.062-0.024l-0.029,0.008l-0.178,0.007l-0.018-0.008
	l-0.015-0.005l-0.021-0.012l-0.022-0.012h-0.024l-0.005,0.016l0.008,0.05l-0.005,0.016l-0.011,0.022l-0.018,0.076l-0.021,0.026
	l-0.075,0.019l-0.075-0.022l-0.154-0.08l-0.271-0.093l-0.108-0.061l-0.673-0.682h-0.001l-0.129-0.074l-0.144-0.014l-0.262,0.059
	l-0.142-0.012l-0.131-0.085l-0.482-0.587l-0.199-0.164l-0.071-0.035l-0.079-0.026l-0.072-0.031l-0.055-0.053l-0.027-0.064
	l-0.042-0.15l-0.025-0.05l-0.058-0.044l-0.132-0.074l-0.042-0.052l-0.006-0.058l0.026-0.044l0.037-0.041l0.024-0.048l-0.018-0.196
	l-0.1-0.224l-0.273-0.405l-0.104-0.087l-0.101-0.007l-0.104,0.021l-0.118,0.001l-0.267-0.085l-0.106,0.013l-0.095,0.111
	l-0.012,0.076l0.014,0.059l-0.007,0.032l-0.074-0.001l-0.209-0.16l-0.2-0.083l-0.02-0.021l-0.044,0.031l-0.069,0.082l-0.083,0.059
	l-0.062,0.065l-0.036,0.027l-0.073,0.01l0.002-0.057l0.044-0.116l-0.109-0.042l-0.09,0.013l-0.028-0.021l0.128-0.25l0.001-0.095
	l-0.06-0.061l-0.139,0.002l-0.087,0.05l-0.128,0.177l-0.06,0.056l-0.133,0.021l-0.055-0.09l-0.023-0.147l-0.042-0.155l-0.067-0.072
	l-0.091-0.027l-0.1-0.008l-0.092-0.024l-0.091-0.056l-0.033-0.052l-0.015-0.059l-0.03-0.079l-0.067-0.122l-0.043-0.057l-0.054-0.049
	l-0.076-0.033l-0.086-0.021l-0.077-0.031l-0.052-0.063l-0.102-0.155l-0.136-0.082l-0.161-0.026l-0.177,0.007l0.103-0.756
	l0.102-0.755l0.101-0.755l0.101-0.754l0.207-0.403l0.184-0.358l0.186-0.35l0.184-0.344l0.307-0.429l0.253-0.363l0.236-0.339
	l0.255-0.365l0.285-0.409l0.254-0.365l0.216-0.31l0.194,0.111l0.175-0.372l0.195-0.415L1241.641,675.953z"/></svg>