<?xml version="1.0" encoding="utf-8"?>
<!-- Generator: Adobe Illustrator 15.0.0, SVG Export Plug-In . SVG Version: 6.00 Build 0)  -->
<!DOCTYPE svg PUBLIC "-//W3C//DTD SVG 1.1//EN" "http://www.w3.org/Graphics/SVG/1.1/DTD/svg11.dtd">
<svg version="1.1" id="Ebene_1" xmlns="http://www.w3.org/2000/svg" xmlns:xlink="http://www.w3.org/1999/xlink" x="0px" y="0px"
	 width="1920px" height="1080px" viewBox="0 0 1920 1080" enable-background="new 0 0 1920 1080" xml:space="preserve">

<path fill="#F4E0B6" stroke="#FFFFFF" d="M1074.643,728.809l-0.031,0.402l0.016,0.117l0.028,0.055l0.072,0.093l0.024,0.058
	l-0.031,0.201l0.007,0.063l0.028,0.132v0.064l-0.035,0.133l-0.19,0.412l-0.019,0.22l0.179,0.487l0.057,0.221l0.014,0.347
	l0.091,0.612l0.04,0.127l0.063,0.066l0.453,0.104l0.569,0.129l0.347,0.078l0.51,0.115l0.858,0.192l0.633,0.144l0.118,0.162
	l0.014,0.044l0.123,0.411l0.183,0.612l0.131,0.438l0.114,0.246l0.012,0.071l0.004,0.062l0.035,0.114l0.01,0.062l-0.01,0.087
	l-0.046,0.195l0.001,0.083l0.049,0.109l0.089,0.114l0.098,0.05l0.072-0.089l0.103,0.134l0.197,0.56l0.138,0.193l0.141,0.119
	l0.038,0.032l0.532,0.28l0.413,0.219l0.161,0.155l0.079,0.119l0.072,0.143l0.213,0.712l0.186,0.622l0.159,0.529l0.229,0.768
	l0.051,0.171l0.027,0.064l0.044,0.052l0.184,0.125l0.037,0.045l0.011,0.111l-0.076,0.393l0.006,0.053l0.029,0.1l0.017,0.154
	l0.021,0.017l0,0l0.032-0.003l0.042,0.041l0.195,0.472l0.182,0.668l0.253,0.935l0.269,0.923l0.338,1.16l0.029,0.103l0.146,0.506
	l0.168,0.578l0.256,0.878l0.25,0.859l0.253,0.871l-0.083,0.078l-0.385,0.192l0.22,0.372l0.086,0.07l0.011,0.003l0.094,0.027
	l0.064,0.041l0.033,0.078l0.034,0.271l0.031,0.1l0.053,0.093l0.073,0.102l0.072,0.131l0.006,0.102l-0.022,0.085l-0.041,0.156
	l-0.004,0.155l0.051,0.051l0.085,0.029l0.09,0.093l0.015,0.045l0.005,0.056l0.013,0.056l0.034,0.055l0.045,0.034l0.054,0.026
	l0.053,0.019l0.049,0.007l0.051-0.017l0.048-0.032l0.041-0.003l0.026,0.064l0.025,0.035l0.108,0.039l0.047,0.035l0.023,0.056
	l0.024,0.136l0.026,0.046l0.043,0.016l0.128,0.01l0.055,0.018l0.203,0.181l0.229,0.401l0.225,0.393l-0.104,0.062l-0.604,0.521
	l-0.087,0.121l0.073,0.106l0,0l-0.002,0.001l-0.918,0.692l-0.731,0.712l-0.314,0.379l-0.041,0.024l-0.029,0.024l-0.046-0.221
	l-0.089-0.064l-0.442,0.161l-0.083-0.006l-0.077-0.048l-0.102-0.09l-0.055-0.033l-0.046-0.004l-0.044,0.001l-0.051-0.016
	l-0.118-0.094l-0.271-0.417l-0.395,0.197l-0.114,0.021l-0.084-0.025l-0.234-0.151l-0.156-0.031l-0.296-0.018l-0.146-0.076
	l-0.122-0.104l-0.102-0.114l-0.074-0.131l-0.026-0.129l-0.008-0.038l0.011-0.094l0.021-0.076l-0.013-0.059l-0.087-0.042
	l-0.051,0.013l-0.142,0.078l-0.051,0.02l-0.072-0.074l-0.09-0.024l-0.088-0.038l-0.063-0.112l-0.039-0.329l-0.032-0.097l-0.07-0.075
	l-0.099-0.045l-0.105-0.013l-0.096,0.022l-0.048-0.035l-0.238-0.249l-0.079-0.025l-0.06-0.01l-0.032-0.049v-0.145l0.051-0.268
	l-0.016-0.108l-0.095-0.097l-0.183-0.059l-0.085-0.063l0.067-0.064l0.074-0.045l0.2-0.176l0.055-0.076l0.042-0.258l-0.068-0.264
	l-0.098-0.259l-0.047-0.244l0.025-0.422l-0.029-0.303l0.009-0.255l-0.029-0.131l-0.19-0.352l-0.048-0.035l-0.166,0.175l-0.096,0.073
	l-0.098,0.03l-0.208-0.085l-0.154-0.22l-0.106-0.283l-0.075-0.356v-0.082l0.014-0.08l0.036-0.084l0.058-0.068l0.075-0.067
	l0.059-0.074l0.007-0.096l-0.046-0.161l-0.035-0.191l0.033-0.154l0.156-0.043l-0.047-0.109l-0.074-0.315l-0.139-0.318l-0.093-0.355
	l-0.012-0.026l-0.157-0.367l-0.057-0.222l-0.033-0.111l-0.107-0.196l-0.095-0.27l-0.066-0.131l0.014-0.054l0.03-0.056l0.007-0.09
	l-0.03-0.077l-0.05-0.032l-0.051-0.025l-0.038-0.052l-0.016-0.078l0.021-0.036l0.037-0.024l0.037-0.045l0.121-0.258l0.067-0.106
	l0.192-0.224l0.065-0.099l0.014-0.107l-0.06-0.135l-0.024-0.01l-0.063,0.019l-0.025-0.01l-0.011-0.026l-0.013-0.062l-0.035-0.079
	l-0.018-0.068l-0.027-0.055l-0.245-0.09l-0.127-0.188l-0.147-0.173l-0.382-0.017l-0.162-0.044l-0.158-0.069l-0.118-0.073
	l-0.246-0.059l-0.29-0.225l-0.249-0.292l-0.09-0.199l-0.031-0.07l0.02-0.071l0.061-0.045l0.067-0.003l0.09,0.105l0.035-0.094
	l0.007-0.113l-0.033-0.01l0.049-0.047l0.048-0.016l0.057-0.007l0.069-0.02l0.047-0.058l-0.003-0.085l-0.018-0.096l0.006-0.084
	v-0.001l0.062-0.237l-0.14-0.253l-0.373-0.354v-0.001l-0.001,0.001l-0.117-0.146l0.004-0.202l0.037-0.221l-0.024-0.2l-0.024-0.09
	l0.016-0.071l0.083-0.171l0.029-0.147l-0.026-0.091l-0.119-0.177l-0.026-0.116l0.026-0.076l0.046-0.064l0.035-0.084l0.001-0.082
	l-0.038-0.173l-0.033-0.314l-0.067-0.121l-0.115-0.046l-0.167,0.014l-0.005-0.004l-0.002-0.004l-0.001-0.007l0.017-0.08
	l-0.006-0.064l-0.023-0.054l-0.047-0.035l-0.297,0.019l-0.1,0.028l-0.199,0.109l-0.107,0.077l-0.066,0.075l-0.013,0.058l0.017,0.123
	l-0.007,0.059l-0.029,0.055l-0.205,0.202l-0.089,0.065l-0.097,0.035l-0.044-0.067l0.023-0.085l-0.061-0.076l-0.021-0.081
	l0.198-0.149l0.069-0.072l0.05-0.081l0.005-0.068l-0.063-0.042l-0.072,0.03l-0.121,0.089h-0.059l-0.062-0.016l-0.048-0.02
	l-0.016-0.011l-0.013-0.035l-0.019-0.174l0.001-0.042l0.264-0.09l0.119-0.065l0.071-0.109l0.083,0.017l0.099-0.026l0.074-0.064
	l0.014-0.096l-0.076-0.1l-0.105,0.027l-0.188,0.156l-0.162,0.057l-0.114-0.082l-0.049-0.166l0.028-0.198l0.177,0.095l0.099,0.014
	l0.088-0.058l0.033-0.095l-0.013-0.107l-0.04-0.099l-0.046-0.073l-0.049-0.041l-0.048-0.027l-0.044-0.048l-0.035-0.105l-0.013-0.494
	l-0.017-0.065l-0.085-0.219l-0.012-0.084l0.018-0.106l0.043-0.109l0.025-0.051l-0.01-0.049l-0.064-0.097l-0.097-0.106l-0.018-0.033
	l-0.005-0.06l0.007-0.041l-0.007-0.04l-0.044-0.04l0.081-0.061l0.082-0.022l0.053-0.043l-0.003-0.019l-0.007-0.104l-0.047-0.108
	l-0.05-0.018l-0.06,0.011l-0.076-0.017l-0.089-0.123l-0.083-0.415l-0.06-0.188l0.015-0.093l-0.011-0.099v-0.1l0.096-0.16
	l-0.127-0.046l-0.056-0.004l-0.208,0.146l-0.07,0.032l0.014-0.135l-0.077-0.065l-0.109-0.047l-0.082-0.075l-0.007-0.052v-0.067
	l-0.02-0.062l-0.063-0.034l-0.055,0.012l-0.041,0.038l-0.04,0.047l-0.053,0.044l-0.051,0.016l-0.149,0.004l-0.008,0.022
	l-0.003,0.043l-0.013,0.044l-0.036,0.022l-0.021-0.015l-0.397-0.411l-0.105-0.057l-0.314-0.063l-0.057-0.037l-0.091-0.098
	l-0.055-0.035l-0.054-0.01l-0.173,0.016l-0.054-0.013l-0.041-0.02l-0.043-0.01l-0.12,0.036l-0.063,0.013l-0.064-0.004l-0.055-0.021
	l-0.082-0.092l-0.027-0.119l-0.008-0.158l-0.004-0.089l-0.035-0.248l0.011-0.116l0.044-0.133l0.082-0.125l0.031-0.066l-0.007-0.063
	l-0.055-0.1l-0.019-0.053l-0.043-0.615l0.01-0.064l0.028-0.065l0.036-0.052l0.024-0.055l-0.007-0.076l-0.04-0.206l-0.062-0.166
	l-0.111-0.096l-0.185,0.006l-0.093,0.046l-0.156,0.129l-0.09,0.052l-0.099,0.017l-0.119-0.015l-0.104-0.047l-0.062-0.077
	l0.271-0.059l0.274-0.062l0.649-0.145l1.205-0.269l0.459-0.104l0.589-0.132l0.014,0.003l0.009,0.01l0.008,0.017l0.001,0.028
	l0.002,0.023l-0.001,0.026l-0.012,0.031l0.087-0.016l0.005,0.267l0.553-0.532l0.291-0.211l0.474-0.232L1074.643,728.809z"/></svg>