<?xml version="1.0" encoding="utf-8"?>
<!-- Generator: Adobe Illustrator 15.0.0, SVG Export Plug-In . SVG Version: 6.00 Build 0)  -->
<!DOCTYPE svg PUBLIC "-//W3C//DTD SVG 1.1//EN" "http://www.w3.org/Graphics/SVG/1.1/DTD/svg11.dtd">
<svg version="1.1" id="Ebene_1" xmlns="http://www.w3.org/2000/svg" xmlns:xlink="http://www.w3.org/1999/xlink" x="0px" y="0px"
	 width="1920px" height="1080px" viewBox="0 0 1920 1080" enable-background="new 0 0 1920 1080" xml:space="preserve">

<path fill="#F4E0B6" stroke="#FFFFFF" d="M1385.111,125.736l0.057,0.028l0.065,0.089l-0.01,0.066l-0.036,0.07l-0.011,0.11
	l0.042,0.158l0.009,0.091l-0.03,0.052l-0.104-0.033l-0.113-0.118l-0.091-0.141l-0.042-0.1l-0.141-0.228l-0.033-0.151l0.109-0.099
	l0.066-0.004l0.053,0.014l0.034,0.038l0.02,0.072l0.031,0.051l0.058,0.022L1385.111,125.736z M1380.407,124.923l0.095,0.084
	l-0.055,0.133l-0.067,0.05l-0.146,0.073l-0.072,0.059l-0.076,0.099l-0.038,0.028l-0.063,0.014l-0.135-0.022l-0.159-0.068
	l-0.102-0.095l0.043-0.099l0.066-0.054l0.068-0.015l0.078-0.007l0.084-0.026l0.044-0.039l0.075-0.106l0.053-0.035l0.146-0.011
	L1380.407,124.923z M1378.996,124.59l0.054,0.009l0.03,0.027l0.003,0.042l-0.024,0.062l0.07,0.047l0.077,0.01l0.075-0.03
	l0.066-0.067l0.068-0.057l0.008,0.08l-0.018,0.109l-0.014,0.033l0.046,0.115l-0.005,0.051l-0.072,0.045l-0.083,0.017l-0.21,0.002
	l-0.078,0.021l-0.06,0.023l-0.054,0.008l-0.056-0.025l-0.021-0.024l-0.056-0.091l-0.028-0.01l-0.063,0.019l-0.024-0.004
	l-0.042-0.058l-0.065-0.13l-0.064-0.057l-0.038-0.065l-0.002-0.09l0.037-0.054l0.076,0.043l0.048,0.05l0.065,0.024l0.246,0.015
	l0.046-0.021L1378.996,124.59z M1372.753,127.245l0.037,0.148l0.005,0.074l-0.013,0.076l-0.037,0.07l-0.054,0.051l-0.051,0.01
	l-0.041-0.034l-0.021-0.088l0.01-0.079l-0.006-0.175l0.022-0.075l0.073-0.072l0.046,0.021L1372.753,127.245z M1370.79,127.297
	l0.106,0.052l-0.085,0.146l-0.043-0.083L1370.79,127.297z M1367.516,128.06l0.096,0.042l-0.085,0.139l-0.037-0.076L1367.516,128.06z
	 M1366.08,128.562l0.054,0.054l-0.035,0.138l-0.077,0.058l-0.073-0.018l-0.021-0.086l0.033-0.082l0.057-0.054L1366.08,128.562z
	 M1363.639,130.022l0.055,0.063l0.017,0.132l-0.115,0.076l-0.095-0.117l-0.129-0.02l-0.255,0.053l-0.083-0.053l-0.03-0.219
	l0.02-0.082l0.041-0.072l0.064-0.044l0.09-0.011l0.056,0.033l0.043,0.053l0.058,0.05L1363.639,130.022z M1360.244,131.551
	l0.04,0.072l0.008,0.092l-0.095,0.178l-0.202,0.086l-0.129-0.055l-0.028-0.204l0.068-0.099l0.057-0.054l0.064-0.032l0.094-0.031
	l0.063,0.003L1360.244,131.551z M1355.718,134.653l0.058,0.026l-0.027,0.085l-0.053,0.071l-0.058,0.02l-0.039-0.07l0.011-0.074
	l0.047-0.045L1355.718,134.653z M1353.982,136.166l0.027-0.012l-0.012-0.033l-0.024-0.041l-0.016-0.038l0.016-0.023l0.044-0.004
	l0.039,0.014l0.031,0.029l0.021,0.036l-0.007,0.062l-0.027,0.058l-0.044,0.038l-0.06,0.006l-0.057-0.033l0.021-0.032
	L1353.982,136.166z M1351.818,138.631l0.05,0.038l-0.036,0.07l-0.065,0.038l-0.062-0.005l-0.031-0.059l0.02-0.073l0.059-0.023
	L1351.818,138.631z"/></svg>