<?xml version="1.0" encoding="utf-8"?>
<!-- Generator: Adobe Illustrator 15.0.0, SVG Export Plug-In . SVG Version: 6.00 Build 0)  -->
<!DOCTYPE svg PUBLIC "-//W3C//DTD SVG 1.1//EN" "http://www.w3.org/Graphics/SVG/1.1/DTD/svg11.dtd">
<svg version="1.1" id="Ebene_1" xmlns="http://www.w3.org/2000/svg" xmlns:xlink="http://www.w3.org/1999/xlink" x="0px" y="0px"
	 width="1920px" height="1080px" viewBox="0 0 1920 1080" enable-background="new 0 0 1920 1080" xml:space="preserve">

<path fill="#F4E0B6" stroke="#FFFFFF" d="M1099.805,562.379l-0.019,0.027l-0.07-0.067l0.067,0.021L1099.805,562.379z
	 M1092.338,559.288l-0.012,0.009l0.006-0.061L1092.338,559.288z M1092.833,557.523l0.022,0.038l-0.007-0.001l-0.003,0.027
	l0.003,0.058l0.008,0.03l0.026,0.063l0.016,0.026l0.027,0.03l0.111,0.097l0.134,0.028h0.062l0.057-0.02l0.022-0.023l0.016-0.015
	l0.077-0.12l0.014-0.039l0,0l0,0l0.046-0.087l0.144-0.067l0.063-0.058l0.033-0.191l0.039-0.076l0.097,0.006l0.093,0.035l0.186,0.008
	l0.081,0.038l0.001-0.001v0.001h0.002v0.002l0.182,0.155l0.027,0.016l0.059,0.017l0.03,0.023l0.016,0.032l-0.007,0.062l0.01,0.027
	l0.026,0.018l0.065,0.016l0.028,0.016l0.022,0.026l0.022,0.056l0.019,0.027l0.058,0.052l0.038,0.014l0.037-0.013l0.195-0.104
	l0.048-0.015l0.495,0.083l0.075,0.026l0.036,0.014l0.096,0.048l0.233,0.184l0.085,0.088l0.043,0.066l0.066,0.124l0.056,0.064
	l0.216,0.193l0.053,0.072l0.041,0.045l0.026,0.049l0.007,0.087l-0.008,0.042l-0.013,0.026l-0.007,0.03l0.011,0.055l0.016,0.028
	l0.039,0.041l0.014,0.029l-0.051,0.082l0.03,0.067l0.011,0.022l0.074,0.086l0.034,0.053l0.016,0.024l-0.001,0.045l-0.033,0.102
	l-0.009,0.052l0.003,0.064l0.013,0.045l0.17,0.271l0.059,0.075l0.155,0.15l0.015,0.026l0.004,0.009l0.006,0.048l-0.012,0.037
	l-0.027,0.045l-0.033,0.039l-0.127,0.104l0.04,0.05l0.047,0.11l0.05,0.046h0.04l0.035,0.012l0.063,0.045l0.012,0.008l0.024,0.025
	l0.039,0.061l0.018,0.018l0.03,0.008l0.052-0.018l0.029,0.003l0.062,0.032l0.035,0.032l0.008,0.007l0.027,0.054l0.013,0.074
	l-0.001,0.068l-0.012,0.067l-0.029,0.048l-0.05,0.008l0.029,0.082l0.003,0.01l0.077,0.107l0.158,0.187l0.089,0.08l0.188,0.098
	l0.094,0.067l0.06,0.08l0.034,0.069l0.049,0.042l0.075-0.001l0.027-0.001l0.043-0.018l0.036-0.02l0.006-0.003l0.002,0.005
	l0.027,0.029l0.025-0.004l0.021-0.012l0.016,0.009l0.017,0.059l-0.003,0.101l0.028,0.073l0.121,0.151l0.046,0.065l0.04,0.073
	l0.038,0.056l0.047,0.026l0.063-0.014l0.104-0.052l0.027-0.025l0.024,0.006l0.045,0.01l0.082-0.021l0.042-0.047l0.055-0.134
	l0.049-0.042l0.002-0.003l0.167-0.057l0.169-0.032l0.005,0.001l-0.012,0.078l0.054,0.042l0.078,0.018l0.044,0.004l0.01,0.02
	l-0.021,0.054l-0.018,0.018l-0.005,0.021l0.019,0.03l0.021,0.034l0.012,0.027l-0.007,0.048l-0.011,0.046l-0.008,0.054l0.01,0.064
	l0.065,0.032l0.026-0.126l0.039-0.069l0.016,0.063l-0.018,0.086l0.04,0.008l0.026,0.024l0.023,0.029l0.027,0.022l0.125,0.034
	l0.112,0.05l-0.043,0.052l0.016,0.03l0.055-0.06l0.005-0.006l0.042,0.028l0.057,0.059l0.042,0.074l0.028,0.075l0.039,0.151
	l0.019,0.048l0.016,0.032l0.011,0.033l0.006,0.048l-0.009,0.032l-0.02,0.029l-0.016,0.035l0.002,0.051l-0.033,0.03l-0.02,0.039
	v0.043l0.027,0.047l0.004,0.027v0.023l-0.008,0.056l-0.047,0.089l-0.074,0.017l-0.084,0.004l-0.079,0.042l-0.025,0.047l0.001,0.04
	l0.007,0.044l-0.003,0.052l-0.019,0.027l-0.053,0.048l-0.013,0.041l0.015,0.039l0.067,0.1l0.022,0.039l0.016,0.053l0.004,0.039
	l-0.002,0.077l0.015,0.138l0.002,0.026l-0.012,0.032l-0.024,0.034l-0.021,0.039l-0.003,0.049l0.033,0.097l0.046,0.074l0.041,0.08
	l0.015,0.109l-0.009,0.022l-0.037,0.034l-0.002,0.028l0.01,0.025l0.033,0.038l0.01,0.02l0.052,0.064l0.005,0.02l0.021,0.149
	l0.001,0.034l-0.013,0.026l-0.056,0.073l-0.085,0.11l-0.069,0.045l-0.171,0.058l-0.046,0.042l-0.033,0.052l-0.104,0.037
	l-0.044,0.057l-0.016,0.065l-0.003,0.079l0.012,0.081l0.023,0.077l-0.044,0.034l-0.147,0.08l-0.029,0.031l0.03,0.022l0.167,0.214
	l0.028,0.016l0.106,0.033l0.256,0.158l0.047,0.063l0.017,0.089l-0.024,0.08l-0.055,0.021l-0.068-0.006l-0.134,0.014h-0.005
	l-0.032,0.012l-0.02,0.023l-0.007,0.038l0.016,0.013l0.026,0.007l0.025,0.026l0.007,0.022l0.005,0.056l0.003,0.015l0.013,0.008
	l0.037,0.018l0.011,0.008l0.029,0.029l0.025,0.009l0.02,0.016l0.012,0.047l-0.015,0.072l-0.04,0.06l-0.021,0.067l0.034,0.09
	l-0.034-0.003l-0.03,0.004l-0.024,0.015l-0.021,0.02l-0.011,0.038l0.013,0.032l0.016,0.027v0.025l-0.042,0.036l-0.074,0.002
	l-0.126-0.034l-0.175-0.001l-0.141,0.021l-0.116,0.019l-0.033,0.055l0,0l-0.007,0.009l0.008,0.023l-0.021,0.01l-0.045-0.048
	l-0.023-0.069l-0.013-0.142l-0.063,0.004l-0.021-0.007l-0.005-0.122l-0.046-0.223l-0.018-0.051l-0.061-0.069l-0.043-0.008
	l-0.049,0.021l-0.078,0.01l-0.009-0.008l-0.009-0.015l-0.012-0.016l-0.02-0.007l-0.054-0.005l-0.035,0.005l-0.053,0.023l-0.03-0.006
	l-0.013-0.022l0.016-0.078l0.015-0.045l0.02-0.036l-0.077-0.024l-0.28-0.2l-0.043-0.037l-0.042-0.031l-0.033-0.006l-0.097,0.045
	l-0.053,0.015h-0.041l0.011-0.037l-0.11-0.014l0.001,0.032l0.002,0.013l0.006,0.021l-0.028-0.03l-0.022-0.01l-0.024-0.003
	l-0.029-0.009l-0.014-0.014l-0.044-0.033l-0.044-0.028l-0.007,0.016l-0.046-0.018l-0.229,0.035l-0.217-0.017l-0.139-0.038
	l-0.199,0.027l-0.137-0.025l-0.446-0.178l-0.061-0.038l-0.031-0.025l-0.128-0.155l-0.046-0.036l-0.156-0.053l-0.063-0.031
	l-0.013-0.013l-0.002-0.005h-0.021l-0.013-0.026l0.059-0.08l0.046-0.027l0.064,0.008l0.171,0.077l0.051,0.031l0.086,0.072
	l0.046,0.048l0.033,0.051l0.036,0.003l0.056-0.045l0.047-0.063l0.015-0.04l-0.159-0.365l-0.038-0.054l-0.099-0.007l-0.155-0.054
	l-0.142-0.075l-0.056-0.077l0.031,0.014l0.024,0.025l0.024,0.031l0.021-0.02l0.022-0.012l0.091,0.037l0.026-0.038l-0.016-0.083
	l-0.043-0.097l-0.075-0.059h-0.1l-0.062,0.055l0.039,0.116l-0.052-0.051l-0.361-0.203l-0.033-0.026l-0.01-0.054l0.022-0.059
	l0.029-0.06l0.019-0.06l-0.005-0.072l-0.021-0.073l-0.114-0.233l-0.021-0.069l0.004-0.055l0.047-0.043l0.023-0.031l-0.024-0.029
	l-0.04-0.026l-0.022-0.019l-0.003-0.037l0.005-0.042l0.009-0.034l0.005-0.013l-0.047-0.032l-0.074-0.036l-0.056-0.036l0.016-0.034
	l0.035-0.039l0.016-0.113l0.031-0.061l-0.018,0.067l0.071,0.08l0.016,0.09l0.042,0.084l0.021-0.012l-0.02-0.062l0.006,0.013
	l0.012,0.012l0.02,0.027l0.013-0.071l0.119-0.154l0.018-0.085l-0.043-0.1l-0.069-0.061l-0.076-0.052l-0.056-0.068l0.04,0.106
	l0.009,0.107l-0.018,0.156l-0.011-0.018l-0.027-0.015l0.015-0.048l0.006-0.071l-0.014-0.083l-0.048-0.078l-0.024-0.013l-0.059,0.004
	l-0.024-0.006l-0.044-0.033l-0.009-0.022l0.003-0.023l-0.118-0.314l-0.047-0.055l-0.03-0.02l-0.027-0.023l-0.012-0.026l0.051-0.062
	l-0.013-0.051l-0.026-0.052l-0.02-0.048l0.023-0.255l-0.018-0.085l-0.05-0.074l-0.065-0.054l-0.069-0.026l-0.057,0.005l-0.064,0.033
	l-0.06,0.015l-0.054-0.015l-0.053-0.067l-0.081-0.163l-0.028-0.029l-0.063-0.02l-0.031-0.041l0.065,0.033l0.063-0.037l0.021-0.078
	l-0.064-0.094l0.051-0.074l0.043-0.096l0.015-0.11l-0.028-0.116l-0.04-0.062l-0.033-0.015l-0.037,0.006h-0.052l-0.063-0.02
	l-0.089-0.058l-0.053-0.025l0.274-0.092l0.07-0.066l0.021-0.022l-0.011-0.162l0.02-0.012l0.025,0.043l0.021,0.02l0.022-0.009
	l0.022-0.026l-0.077-0.096l-0.027-0.02l-0.013,0.038l-0.03-0.025l-0.125-0.035l0.006-0.136l-0.067-0.12l-0.082-0.125l-0.035-0.07
	l0.063-0.008l0.001-0.064l-0.039-0.084l-0.063-0.063l-0.018,0.01l-0.425,0.029l-0.056-0.008l-0.066,0.004l-0.166,0.161l-0.023-0.041
	l-0.051-0.104l-0.044-0.029l-0.04-0.014l-0.016-0.013l-0.006-0.016l-0.015-0.026l-0.007-0.021l0.002-0.026l-0.008-0.031
	l-0.064-0.081l0.009-0.022l0.021-0.015l0.011-0.024l-0.018-0.072l-0.036-0.018h-0.001l-0.056-0.046l-0.049-0.07l-0.036-0.079
	l-0.02-0.074l-0.005-0.115h0.003l0.184-0.01l0.185-0.061l-0.035-0.016l-0.064-0.169l-0.063-0.108l-0.064-0.029l-0.053,0.013
	l-0.029-0.018l-0.025-0.031l-0.036-0.028l-0.035-0.011l-0.052,0.01l-0.042-0.001l-0.171-0.095l-0.037-0.165l0.022-0.19l0.002-0.168
	l-0.044,0.041l-0.031,0.057l-0.007-0.02l-0.029-0.053l-0.008-0.031l-0.006-0.078l0.004-0.031l0.062-0.246l0.006-0.084l0.038-0.066
	l0.02-0.078l0.007-0.085l-0.002-0.092v-0.001l-0.014-0.065l0.02-0.048l0.029-0.045l0.016-0.061l-0.008-0.055l-0.037-0.112
	l-0.01-0.062l0.008-0.104l0.03-0.127l0.017-0.042l0.027-0.073l0.051-0.065l0.084,0.001l0.089,0.064l0.075,0.088L1092.833,557.523z"
	/></svg>