<?xml version="1.0" encoding="utf-8"?>
<!-- Generator: Adobe Illustrator 15.0.0, SVG Export Plug-In . SVG Version: 6.00 Build 0)  -->
<!DOCTYPE svg PUBLIC "-//W3C//DTD SVG 1.1//EN" "http://www.w3.org/Graphics/SVG/1.1/DTD/svg11.dtd">
<svg version="1.1" id="Ebene_1" xmlns="http://www.w3.org/2000/svg" xmlns:xlink="http://www.w3.org/1999/xlink" x="0px" y="0px"
	 width="1920px" height="1080px" viewBox="0 0 1920 1080" enable-background="new 0 0 1920 1080" xml:space="preserve">

<path fill="#F4E0B6" stroke="#FFFFFF" d="M1221.104,659.009l0.835,1.076l0.973,1.255l0.979,1.261l0.061,0.123l0.054,0.11
	l0.018,0.137l-0.013,0.156l-0.133,0.65l-0.048,0.107l-0.062,0.07l-0.235,0.147l-0.132,0.104l-0.056,0.063l-0.045,0.071l-0.021,0.059
	l-0.061,0.267l-0.015,0.018l-0.04,0.035l-0.208,0.09l-0.188-0.062l-0.191-0.105l-0.214-0.037l-0.095,0.037l-0.043,0.063
	l-0.034,0.072l-0.07,0.063l-0.082,0.01l-0.102-0.016h-0.101l-0.083,0.055l0.048,0.02l0.009,0.019l-0.022,0.048l-0.257,0.208
	l-0.063,0.019l-0.031,0.023l-0.02,0.038l-0.023,0.083l-0.03,0.037l-0.529,0.17l-0.066,0.056l-0.04,0.187l0.016,0.016l0.031,0.02
	l-0.011,0.049l-0.053,0.052l-0.037,0.064l0.003,0.045l0.017,0.039l0.055,0.076l0.01,0.023v0.044l0.015,0.026l0.019,0.008
	l0.058,0.006l0.019,0.012l0.028,0.06l0.023,0.109l0.015,0.038l0.052,0.046l0.06,0.025l0.053,0.017l0.065,0.032h0.055l0.074-0.008
	l0.035,0.062l-0.013,0.042l-0.03,0.038l-0.017,0.052l0.003,0.071l0.013,0.052l0.024,0.051l0.044,0.063l0.029,0.019l0.088,0.008
	l0.029,0.017l0.052,0.097l0.011,0.085l-0.02,0.076l-0.048,0.082l-0.11,0.098l-0.002,0.033l0.019,0.045l0.013,0.06l0.004,0.057
	l-0.057,0.408l0.001,0.11l0.011,0.059l0.047,0.108l0.002,0.043l-0.004,0.035l0.011,0.055l0.002,0.009l-0.011,0.1l0.019,0.059
	l0.317,0.24l0.084,0.05l0.105,0.003l0.043,0.029l0.042,0.033l0.034,0.019l0.039-0.003l0.124-0.055l0.124-0.013l0.063-0.025
	l-0.001-0.053l0.015-0.024l0.114-0.116l0.04-0.014l0.156-0.021l0.153-0.06l0.043-0.012l0.107,0.022l0.125,0.044l0.128,0.027
	l0.279-0.078l0.052-0.033l0.052-0.138l0.024-0.042l0.153-0.151l0.107-0.071l0.093-0.014l0.06,0.008l0.094-0.022l0.059-0.004
	l0.07,0.016l0.117,0.049l0.067,0.009l0.11-0.028l0.255-0.195l0.053-0.015l0.173,0.011l0.161-0.039l0.057-0.003l0.104,0.033
	l0.275,0.121l0.334,0.042l0.05-0.016l0.096-0.04l0.052-0.018l0.184,0.005l0.935,0.259l0.163,0.081l0.14,0.139l0.306,0.428
	l0.027,0.018l0.037-0.004l0.312,0.046l0.228,0.087l0.128,0.016l0.065-0.067l0.046-0.08l0.085,0.003l0.099,0.058l0.088,0.081
	l0.103,0.145l0.035,0.051l0.084,0.098l0.065,0.025l0.042-0.009l0.046,0.012l0.085,0.033l0.273,0.032l0.039,0.016l0.079,0.065
	l0.046,0.005l0.039-0.003l0.024,0.008l0.718-0.211l0.425,0.039l0.081,0.039l0.078,0.054l0.077,0.069l0.07,0.087v0.019l-0.019,0.053
	l-0.005,0.012l0.023,0.025l0.054,0.036l0.02,0.017l0.166,0.171l0.081,0.016l0.089-0.028l0.183-0.11l0.103-0.045l0.097-0.014
	l0.441,0.03l0.063,0.035l0.081,0.073l0.099,0.032l0.044,0.003l0.179,0.163l0.181,0.161l0.286,0.208l0.228,0.248l0.104,0.071
	l0.402,0.214l0.114,0.104l0.202,0.274l0.088,0.08l0.359,0.195l0.247,0.179l0.136,0.047l0.142,0.031l0.146,0.054l0.102,0.071
	l0.218,0.229l0.047,0.05l0.025,0.127l0.024,0.062l0.037,0.057l0.059,0.039l0.132,0.039l0.052,0.045l0.038,0.072l0.026,0.062
	l0.028,0.057l0.053,0.058l0.117,0.078l0.745,0.328l0.153,0.089l0.236,0.251l0.112,0.066l0.308,0.036l0.511,0.01l0.277,0.046
	l0.1,0.076l0.061,0.045l0.013,0.069l-0.002,0.073l0.007,0.07l0.036,0.062l0.05,0.032l0.322,0.159l0.124,0.041l0.11-0.009
	l0.094-0.081l0.044-0.135l0.026-0.319l0.045-0.129l0.067-0.063l0.092-0.058l0.103-0.042l0.095-0.025l0.146,0.003l0.31,0.051
	l0.13-0.032l0.087-0.089l0.05-0.087l0.066-0.068l0.135-0.035l0.431,0.017l0.315-0.044l0.053,0.027l0.018,0.26l0.052,0.129
	l0.082,0.085l0.22,0.128l0.124,0.091l0.072,0.097l0.034,0.119l0.001,0.332l0.022,0.075l0.717,1.013l0.209,0.213l0.255,0.135
	l1.12,0.333l-0.288,0.17l-0.336,0.2l-0.22-0.273l-0.183,0.09l-0.056,0.17l0.123,0.215l0.002,0.003l0.082,0.16l-0.5,0.09
	l-0.008,0.001l-0.521-0.291l-0.438-0.247l-0.219-0.724l-0.41,0.092l-0.441,0.267l-0.104-0.473l-0.189-0.068l-0.195,0.415
	l-0.175,0.372l-0.194-0.111l-0.216,0.31l-0.254,0.365l-0.285,0.409l-0.255,0.365l-0.236,0.339l-0.253,0.363l-0.307,0.429
	l-0.184,0.344l-0.186,0.35l-0.184,0.358l-0.207,0.403l-0.101,0.754l-0.101,0.755l-0.102,0.755l-0.103,0.756l-0.079,0.615
	l-0.08,0.622l-0.11,0.848l-0.094,0.727l-0.072,0.561l-0.012,0.026l-0.091,0.206l-0.174,0.14l-0.745,0.384l-0.422,0.219l-0.158,0.052
	h-0.131l-0.916-0.178l-0.117,0.012l-0.057,0.076l-0.114,0.383l-0.213,0.405l-0.287,0.346l-0.655,0.476l-0.766,0.558l-0.159,0.166
	l-0.437,1.04l-0.008,0.1l0.039,0.067l0.141,0.17l0.053,0.076l0.034,0.079l0.016,0.036v0.061l-0.053,0.033l-0.322,0.101l-0.104,0.002
	l-0.121-0.039l-0.066-0.037l-0.125-0.068h-0.07l-0.037,0.02l-0.365,0.181h-0.086l-0.087-0.065l-0.169-0.225l-0.081-0.084
	l-0.146-0.082l-0.582-0.212l-0.172-0.036l-0.035,0.001l-0.12,0.006l-0.017,0.006l0.01,0.033l-0.053,0.655l-0.013,0.066l-0.055,0.087
	l-0.409,0.347l-0.049,0.09l-0.002,0.104l-0.002,0.006l-0.016,0.077l-0.094,0.028l-0.798-0.015l-0.517-0.01l-0.215,0.04l-0.199,0.078
	l-0.211,0.123l-0.09,0.104l-0.068,0.242l-0.049,0.174l-0.027,0.041l-0.072,0.068l-0.027,0.043l-0.057,0.203l-0.038,0.067
	l-0.042,0.032l-0.088,0.05l-0.035,0.046l-0.017,0.077l0.014,0.067l0.024,0.066l0.019,0.072l0.026,0.653l0.047,0.275l0.033,0.089
	l-0.122-0.074l-0.127-0.285l-0.123-0.052l-0.179,0.02l-0.09-0.016l-0.079-0.058l-0.128-0.165l-0.05-0.039l-0.125-0.02l-0.03,0.098
	l-0.01,0.143l-0.055,0.115l-0.124,0.073l-0.047,0.036l-0.055,0.078l-0.083,0.17l-0.044,0.048l-0.079,0.064l-0.047,0.024l-0.05,0.007
	l-0.073-0.015l-0.016-0.027l0.006-0.046l-0.016-0.075l-0.096-0.215l-0.062-0.101l-0.588-0.674l-0.146-0.096l-0.055,0.009
	l-0.04,0.031l-0.034,0.04l-0.039,0.032l-0.09,0.049l-0.045,0.016l-0.206,0.038l-0.515-0.032l-0.364,0.065l-0.29,0.163l-0.091,0.014
	l-0.063-0.028l-0.04-0.046l-0.035-0.053l-0.046-0.048l-0.064-0.039l-0.198-0.08l-0.114-0.093l-0.099-0.101l-0.11-0.071l-0.141-0.005
	l-0.212,0.066l-0.097-0.009l-0.135-0.068l-0.246-0.164l-0.127-0.053l-0.147-0.009l-0.058,0.02l-0.051,0.031l-0.054,0.014
	l-0.066-0.026l-0.042-0.058l-0.008-0.07l0.001-0.068l-0.018-0.058l-0.109-0.075l-0.161-0.047l-0.16-0.007l-0.107,0.039l-0.198,0.121
	l-0.188-0.039l-0.169-0.154l-0.137-0.219l-0.058-0.172l-0.027-0.055l-0.034-0.039l-0.084-0.064l-0.031-0.042l-0.006-0.064
	l0.002-0.04l0.004-0.042l-0.02-0.062l-0.076-0.005l-0.058,0.005l-0.144-0.011l-0.037,0.004l-0.078,0.086l-0.038,0.012l-0.091-0.005
	l-0.208-0.054l-0.076-0.01l-0.243,0.01l-0.059,0.019l-0.134,0.074l-0.173,0.014l-0.06,0.013l-0.024,0.02l-0.044,0.079l-0.03-0.005
	l-0.077-0.023l-0.026-0.003l-0.106,0.036l-0.057,0.052l0.003,0.083l0.1,0.18l0.041,0.094l0.037,0.049l0.027,0.059l-0.027,0.135
	l0.005,0.07l0.046,0.131l0.028,0.121l0.004,0.123l-0.085,0.352l0.004,0.098l0.03,0.145l0.012,0.157l-0.062,0.062l-0.101,0.029
	l-0.105,0.064l-0.013,0.088l0.048,0.102l0.018,0.099l-0.099,0.083l-0.132,0.003l-0.483-0.158l-0.074-0.012l-0.228,0.016l-0.01,0.015
	l-0.058-0.064l-0.062,0.005l-0.312-0.037l-0.06-0.021l-0.218,0.231l-0.088,0.065l-0.219,0.103l-0.121,0.098l-0.045,0.026
	l-0.144,0.015l-0.082-0.084l-0.076-0.108l-0.124-0.06l-0.073,0.014l-0.022,0.045l-0.012,0.064l-0.037,0.068l-0.089,0.054
	l-0.035,0.029l0.069,0.504l-0.002,0.142l-0.034,0.087l-0.149,0.154l-0.027,0.067l0.018,0.065l0.025,0.063l-0.002,0.063l-0.032,0.036
	l-0.045,0.02l-0.049,0.016l-0.043,0.021l-0.081,0.084l-0.032,0.088l-0.01,0.351l-0.026,0.136l-0.052,0.12l-0.091,0.07l-0.129,0.023
	l-0.066-0.026l-0.058-0.063l-0.104-0.081l-0.226-0.039l-0.178,0.116l-0.166,0.155l-0.188,0.073l-0.125-0.019l-0.138-0.047
	l-0.231-0.105l-0.078-0.087l-0.054-0.023l-0.075,0.035l-0.021,0.052l-0.018,0.13l-0.041,0.031l-0.269-0.141l-0.051-0.035
	l-0.038-0.032l-0.032-0.037l-0.035-0.052l-0.057-0.122l-0.032-0.099l-0.047-0.047l-0.248,0.094l-0.045,0.036l-0.032,0.01
	l-0.079-0.029l-0.027,0.004l-0.023,0.046l-0.009,0.028l0.011,0.002l0.005,0.014l0.012,0.026l0.003,0.026l-0.024,0.019l-0.096,0.007
	l-0.026,0.01l-0.111,0.094l-0.037,0.018l-0.071-0.006l-0.139-0.051l-0.071-0.017l-0.042,0.007l-0.122,0.036l-0.02,0.012
	l-0.081-0.063l-0.094-0.108l-0.135-0.201l-0.144-0.311l-0.082-0.098l-0.046-0.037l-0.063-0.039l-0.066-0.03l-0.058-0.002
	l-0.039,0.024l-0.066,0.075l-0.032,0.02l-0.09-0.02l-0.077-0.067l-0.16-0.187l-0.13-0.085L1208,696.66l-0.412,0.177l-0.109,0.017
	l-0.122-0.029l-0.055-0.036l-0.083-0.097l-0.045-0.036l-0.066-0.027l-0.208-0.04l-0.038,0.003h-0.041l-0.04-0.007l-0.039-0.012
	l-0.105-0.239l-0.048-0.059l-0.082-0.04l-0.189-0.03l-0.188-0.154l-0.188-0.043l-0.363-0.047l-0.164-0.075l-0.161-0.105
	l-0.304-0.243l-0.063-0.064l-0.172-0.23l-0.111-0.104l-0.046-0.057l-0.037-0.081l-0.152-0.64l-0.037-0.044l-0.044-0.091
	l-0.042-0.032l-0.062-0.009l-0.029,0.021l-0.015,0.029l-0.011,0.016l-0.014,0.013l-0.014,0.023l-0.025,0.009l-0.055-0.032
	l-0.022-0.031l-0.023-0.082l-0.045-0.089l-0.01-0.037l-0.019-0.025l-0.109-0.015l-0.033-0.011l-0.027-0.022l-0.028-0.044
	l-0.059-0.068l-0.084-0.055l-0.089-0.033h-0.082l-0.105,0.018l-0.043-0.023l-0.034-0.052l-0.079-0.063l-0.059-0.01l-0.227,0.028
	l-0.04,0.024l-0.059,0.074l-0.042,0.021l-0.041-0.007l-0.078-0.055l-0.122-0.023l-0.133-0.11l-0.08-0.028l-0.156,0.16l-0.093,0.047
	l-0.104-0.053l-0.108-0.089l-0.059,0.02l-0.055,0.072l-0.095,0.065l-0.129,0.007l-0.088-0.067l-0.156-0.204l-0.086-0.038
	l-0.109-0.011l-0.387,0.04l-0.293,0.193l-0.149,0.06l-0.311,0.047l-0.103-0.021l-0.095-0.063l-0.098-0.085l-0.098-0.058l-0.091,0.02
	l-0.091,0.236l-0.055,0.063l-0.076-0.095l-0.022-0.114l0.02-0.125l0.043-0.117l0.049-0.096l0.03-0.106l-0.014-0.113l-0.058-0.091
	l-0.102-0.045l-0.081,0.022l-0.061,0.039l-0.058-0.007l-0.071-0.116l-0.089-0.116l-0.1-0.018l-0.203,0.061l-0.115-0.013
	l-0.195-0.095l-0.117-0.038l-0.114-0.006l-0.082,0.007l-0.075-0.018l-0.088-0.084l-0.042-0.093l-0.032-0.105l-0.049-0.066
	l-0.098,0.015l-0.005-0.072l0.021-0.058l0.027-0.051l0.015-0.057l-0.034-0.243l0.013-0.284l-0.019-0.187l0.003-0.065l-0.036-0.055
	l-0.067-0.104l-0.284-0.013l-0.313,0.039h-0.196l-0.121-0.042l-0.254-0.038l-0.243-0.11l-0.087,0.006l-0.091,0.021l-0.134-0.011
	l-0.079-0.034l-0.046-0.043l-0.039-0.051l-0.055-0.052l-0.019-0.027l-0.011-0.035l-0.012-0.026l-0.031-0.009l-0.024,0.014
	l-0.022,0.024l-0.024,0.02l-0.03-0.003l-0.105-0.086l-0.163-0.239l-0.09-0.094l-0.2,0.093l-0.059,0.013l-0.03-0.022l-0.022-0.037
	l-0.045-0.02l-0.055,0.006l-0.092,0.035l-0.051,0.011l-0.184-0.008l-0.046-0.032l-0.063-0.084l-0.04-0.028l-0.093,0.004l-0.201,0.09
	l-0.079,0.012l-0.084-0.057l-0.038-0.063l-0.046-0.027l-0.107,0.057l-0.055,0.014l-0.111-0.038l-0.055,0.003l-0.081,0.051
	l-0.04,0.008l-0.157-0.031l-0.1,0.008l-0.305,0.074l-0.092-0.001l-0.305-0.087l-0.088-0.009l-0.077,0.025l-0.063,0.08l-0.143,0.005
	l-0.248-0.046l-0.313,0.003l-0.083-0.014l-0.086-0.044l-0.063-0.056l-0.107-0.122l-0.073-0.051l-0.041-0.007l-0.085,0.017
	l-0.045-0.001l-0.044-0.02l-0.085-0.052l-0.045-0.019l-0.081-0.01l-0.338-0.006l-0.229-0.186l-0.063-0.067l-0.032-0.062l0.032-0.148
	l0.217-0.267l0.04-0.148l-0.03-0.094l-0.053-0.064l-0.064-0.052l-0.057-0.062l-0.104-0.215l-0.043-0.068l-0.069-0.067l-0.136-0.091
	l-0.131-0.125l-0.084-0.052l-0.088-0.027l-0.13,0.021l-0.04-0.011l-0.037-0.018l-0.044-0.004l-0.114,0.041l-0.06,0.035l-0.111,0.106
	l-0.056,0.037l-0.158,0.02l-0.188-0.034l-0.348-0.139l-0.049-0.002l-0.048-0.008l-0.046-0.015l-0.044-0.022l-0.058-0.08l-0.143-0.05
	l-0.107-0.163l-0.085-0.055l-0.574-0.165l-0.173,0.007l-0.26,0.108l-0.18-0.006l-0.091,0.038l-0.082,0.046l-0.263,0.086
	l-0.263,0.221l-0.136,0.071l-0.185-0.017l-0.047,0.015l-0.043-0.005l-0.04-0.018l-0.039-0.032l-0.162-0.051l-0.135,0.1l-0.209,0.261
	l-0.029-0.002l-0.104-0.022h-0.042l-0.033,0.012l-0.061,0.035l-0.08,0.033l-0.027,0.013l-0.167,0.043l-0.082,0.01l-0.149-0.004
	l-0.168-0.03l-0.157-0.069l-0.12-0.114l-0.071-0.163l-0.041-0.19l-0.018-0.577l0.013-0.075l0.097-0.225l0.003-0.062l-0.054-0.045
	l-0.17-0.036l-0.068-0.049l-0.021-0.076l0.005-0.169l-0.028-0.073l-0.101-0.001l-0.153,0.094l-0.038,0.03l0.002-0.042l-0.029-0.071
	l0.004-0.053l0.122-0.342l0.089-0.141l0.27-0.581l0.082-0.078l0.352-0.261l0.161-0.193l0.026-0.049l0.005-0.045l-0.286-0.5
	l-0.013-0.032l-0.016-0.084l-0.033-0.929l-0.009-0.055l-0.011-0.028l-0.43-0.935l-0.021-0.101l0.002-0.072l0.049-0.19l0.071-0.463
	l-0.03-0.124l-0.024-0.058l-0.714-1.228l-0.039-0.104l-0.004-0.038l0.007-0.027l0.013-0.012l0.037-0.026l0.038-0.033l0.025-0.04
	l0.021-0.043l0.067-0.212l0.086-0.176l0.016-0.099l0.014-0.235l0.02-0.095l0.004-0.073l-0.013-0.104l-0.022-0.094l-0.035-0.309
	l-0.034-0.159l-0.01-0.031l-0.016-0.029l-0.018-0.023l-0.04-0.039l-0.083-0.067l-0.02-0.02l-0.039-0.045l-0.019-0.041l-0.017-0.055
	l-0.079-0.607l0.009-0.077l0.013-0.047l0.018-0.024l0.053-0.06l0.044-0.06l0.037-0.035l0.11-0.052l0.042-0.035l0.074-0.1
	l0.022-0.016l0.052-0.02l0.024-0.02l0.026-0.037l0.024-0.025l0.027-0.019l0.054-0.02l0.026-0.006l0.054-0.003l0.027-0.005
	l0.027-0.009l0.024-0.014l0.02-0.019l0.028-0.039l0.022-0.016l0.048-0.019l0.023-0.014l0.021-0.017l0.052-0.084l0.018-0.02
	l0.044-0.034l0.026-0.016l0.045-0.033l0.032-0.039l0.028-0.041l0.046-0.059l0.042-0.036l0.046-0.034l0.168-0.088l0.041-0.035
	l0.042-0.045l0.011-0.01l0.232-0.293l0.146-0.148l0.021-0.017l0.131-0.078l0.082-0.07l0.054-0.058l0.021-0.018l0.167-0.087
	l0.03-0.024l0.029-0.032l0.059-0.095l0.151-0.158l0.04-0.029l0.022,0.002l0.32,0.141l0.044,0.026l0.02,0.016l0.02,0.022l0.44,0.689
	l0.022,0.021l0.022,0.015l0.046,0.015l0.049,0.012l0.202,0.01l0.079-0.006l0.132-0.029h0.016l0.041,0.009l0.022,0.005l0.045,0.024
	l0.506,0.3l0.088,0.04l0.097,0.034h0.004l0.392-0.051l1.367,0.552l1.373,0.554l0.26,0.024l0.132-0.008l0.251-0.116l0.041-0.031
	l1.225-1.521l1.044-0.65l0.211-0.074l0.584-0.346l0.36-0.15l0.022-0.017l0.069-0.075l0.021-0.016l0.577-0.226l0.39-0.262l0.06-0.052
	l0.031-0.044l1.01,0.713l0.349,0.128l1.648-0.953l1.646-0.955l0.007-0.003l-0.123-0.082l-0.117-0.153l-0.118-0.195l-0.024-0.226
	l0.084-0.443l0.144-0.446l0.036-0.122l0.317-0.591l0.367-0.489l0.798-0.79l0.116-0.564l-0.021-0.441l-0.407-0.646l0.057-0.18
	l0.129-0.283l0.716-1.224l0.106-0.231l1.39,0.088l1.396,0.087l1.773,0.406l0.1,0.012l0.069-0.015l0.033-0.069l0.016-0.079
	l0.058-0.081l0.043-0.046l0.454-0.291v-0.002l0.843-0.581l0.205-0.302l0.253-1.469l0.25-1.468l0.047-0.864l0.03-0.19l-0.03-0.576
	l-0.223-0.887l-0.002-0.114l0.368-1.447l0.365-1.445l-0.026-0.177l-0.054-0.119l-0.681-0.4l-0.261-0.255l-0.319-0.443l-0.419-0.733
	l-0.32-0.429l-0.042-0.046l-0.065-0.057l-0.029-0.019l-1.898-0.602l1.319-0.822l1.32-0.825l-0.064-0.106l-0.041-0.054l-0.04-0.043
	l-0.153-0.119l-0.165-0.179l-0.04-0.055l-0.033-0.057l-0.055-0.112l-0.036-0.056l-0.022-0.025l-0.021-0.021l-0.015-0.022v-0.025
	l1.917-1.154l0.218,0.365l0.341,0.97l0.348,0.494l0.339,0.602l0.02,0.053l0.031,0.155l0.004,0.1l-0.006,0.101l0.002,0.034
	l0.012,0.053l0.042,0.063l1.306,1.475l1.314,1.482l0.041,0.091l0.021,0.063l0.033,0.266l0.019,0.084l0.029,0.057l0.068,0.007
	l1.134-0.202l0.059-0.004l0.056,0.007l0.611,0.217l1.42,0.223l1.427,0.223l0.114,0.04l0.524,0.371l0.073,0.06l0.088,0.114
	l0.06,0.092l0.16,0.319l0.107,0.122l0.091,0.067l0.096,0.085l0.021,0.03l0.016,0.029l0.019,0.055l0.133,0.726l0.196,0.455
	l0.213,0.354l0.153,0.186l0.119,0.106l0.033,0.021l0.026,0.014l0.021,0.006l0.018-0.003L1221.104,659.009z"/></svg>