<?xml version="1.0" encoding="utf-8"?>
<!-- Generator: Adobe Illustrator 15.0.0, SVG Export Plug-In . SVG Version: 6.00 Build 0)  -->
<!DOCTYPE svg PUBLIC "-//W3C//DTD SVG 1.1//EN" "http://www.w3.org/Graphics/SVG/1.1/DTD/svg11.dtd">
<svg version="1.1" id="Ebene_1" xmlns="http://www.w3.org/2000/svg" xmlns:xlink="http://www.w3.org/1999/xlink" x="0px" y="0px"
	 width="1920px" height="1080px" viewBox="0 0 1920 1080" enable-background="new 0 0 1920 1080" xml:space="preserve">

<path fill="#F4E0B6" stroke="#FFFFFF" d="M1089.545,591.728l0.011,0.072l-0.057-0.005l-0.026,0.079l-0.002,0.04l0.022,0.049
	l-0.062,0.005l-0.019-0.005l-0.118,0.04l-0.181,0.022l-0.176-0.016l-0.103-0.069l-0.016-0.008l-0.058-0.004l-0.019-0.015
	l-0.056-0.124l-0.076-0.137l-0.047-0.054l-0.053-0.027l0.024-0.055l0.031-0.045l0.041-0.035l0.049-0.027l0.013,0.03l-0.027,0.019
	l-0.015,0.019l-0.026,0.056l0.273-0.084l0.063-0.004l0.152,0.046l0.11-0.009l0.031,0.024l0.021,0.038l0.017,0.04l0.019-0.004
	l0.112-0.003l0.086,0.059L1089.545,591.728z M1088.289,591.462l-0.051,0.038l-0.063,0.023l-0.076,0.012h-0.077l-0.068-0.012
	l-0.009-0.048l-0.031-0.038l-0.017-0.033l0.032-0.029l0.188-0.119l0.1-0.007l0.135,0.021l0.094,0.04l-0.027,0.047l-0.056,0.027
	L1088.289,591.462z"/></svg>