<?xml version="1.0" encoding="utf-8"?>
<!-- Generator: Adobe Illustrator 15.0.0, SVG Export Plug-In . SVG Version: 6.00 Build 0)  -->
<!DOCTYPE svg PUBLIC "-//W3C//DTD SVG 1.1//EN" "http://www.w3.org/Graphics/SVG/1.1/DTD/svg11.dtd">
<svg version="1.1" id="Ebene_1" xmlns="http://www.w3.org/2000/svg" xmlns:xlink="http://www.w3.org/1999/xlink" x="0px" y="0px"
	 width="1920px" height="1080px" viewBox="0 0 1920 1080" enable-background="new 0 0 1920 1080" xml:space="preserve">

<path fill="#F4E0B6" stroke="#FFFFFF" d="M1132.049,590.469l-0.106,0.277l-0.016,0.181l0.068,0.388l-0.273,0.732l0.029,0.142
	l0.077,0.139l0.215,0.302l0.183,0.307l0.307,0.361l0.066,0.063l0.248,0.171l0.153,0.167l0.316,0.223l0.132,0.128l0.056,0.142
	l0.025,0.158l0.047,0.174l0.087,0.228l0.052,0.317l0.032,0.082l0.044,0.145l0.011,0.166l-0.022,0.401l-0.04,0.158l-0.024,0.164
	v0.069l0.02,0.161l0.007,0.324l0.023,0.163l0.084,0.147l0.076,0.064l0.188,0.115l0.689,0.549l0.064,0.077l0.039,0.077l0.06,0.229
	l0.111,0.146l0.334,0.189l0.137,0.129l0.054,0.092l0.128,0.292l0.092,0.143l0.108,0.112l0.656,0.51l0.178,0.171l0.149,0.206
	l0.27,0.469l0.369,0.638l0.874,1.517l0.869,1.506l0.173,0.299l0.775,1.345l0.085,0.148l0.336,0.582l0.747,1.292l0.196,0.34
	l0.419,0.728l0.434,0.749l0.648,1.124l0.647,1.123l0.649,1.126l0.651,1.128l0.651,1.13l0.653,1.132l0.654,1.134l0.656,1.136
	l0.656,1.139l0.659,1.141l0.659,1.143l0.66,1.146l0.664,1.147l0.663,1.151l0.665,1.152l0.667,1.156l0.285,0.494l0.285,0.494
	l0.287,0.496l0.285,0.496l0.286,0.496l0.287,0.497l0.286,0.497l0.287,0.499l0.288,0.498l0.288,0.499l0.287,0.5l0.29,0.5l0.22,0.383
	l0.22,0.382l0.222,0.384l0.221,0.383l0.26,0.451l0.016,0.024v0.009v0.009v0.008v0.008l-0.008,0.007l-0.008,0.004l-0.007,0.006
	l-0.008,0.007l-0.369,0.211l-0.534,0.308l-0.447,0.257l-0.457,0.261l-0.49,0.282l-0.415,0.236l-0.313,0.178l-0.592,0.338
	l0.286,0.507l0.286,0.507l0.287,0.509l0.286,0.51l-0.596,0.01l-0.596,0.01l-0.595,0.01l-0.596,0.009l-0.595,0.008l-0.593,0.009
	l-0.595,0.007l-0.593,0.007l-0.592,0.006l-0.593,0.006l-0.593,0.006l-0.591,0.002l-0.591,0.005l-0.591,0.004l-0.59,0.003
	l-0.589,0.001l-0.59,0.003l-0.588,0.002h-0.589h-0.589h-0.588l-0.587-0.002l-0.588-0.003l-0.586-0.001l-0.587-0.003l-0.585-0.004
	l-0.585-0.005l-0.586-0.002l-0.585-0.006l-0.585-0.006l-0.584-0.006l-0.584-0.007l-0.582-0.007l-0.585-0.009l-0.582-0.008
	l-0.583-0.01l-0.583-0.009l-0.582-0.011l-0.479-0.009l-0.102-0.003l-0.58-0.011l-0.583-0.013l-0.58-0.013l-0.58-0.013l-0.58-0.014
	l-0.58-0.015l-0.58-0.015l-0.579-0.016l-0.58-0.017l-0.578-0.016l-0.579-0.017l-0.578-0.019l-0.578-0.02l-0.578-0.02l-0.576-0.019
	l-0.579-0.021l-0.576-0.021l-0.577-0.021l-0.576-0.022l-0.577-0.022l-0.576-0.024l-0.576-0.023l-0.576-0.024l-0.575-0.026
	l-0.575-0.023l-0.424-0.021l-0.071,0.05l-0.126,0.165l-0.165,0.214l-0.165,0.215l-0.164,0.214l-0.163,0.216l-0.166,0.215
	l-0.165,0.215l-0.166,0.215l-0.166,0.216l-0.165,0.214l-0.165,0.216l-0.167,0.216l-0.167,0.214l-0.166,0.215l-0.165,0.216
	l-0.169,0.216l-0.166,0.214l-0.051,0.067l-0.003,0.003l0,0l-0.48,0.677l-0.481,0.676l-0.484,0.679l-0.486,0.679l-0.18,0.251
	l-0.057,0.035l-0.068-0.003l-0.242-0.075l-0.666-0.208l-0.664-0.208l-0.665-0.209l-0.664-0.212l-0.297-0.094l-0.558-0.046
	l-0.426,0.085l-0.371,0.076l-0.371,0.074l-0.372,0.075l-0.371,0.074l-0.371,0.074l-0.372,0.074l-0.371,0.073l-0.372,0.074
	l-0.371,0.073l-0.373,0.072l-0.372,0.073l-0.372,0.071l-0.372,0.072l-0.373,0.072l-0.373,0.072l-0.372,0.071l-0.544-0.476
	l-0.497-0.436l-0.796-0.699l-0.012-0.01l-0.51-0.45l-0.489-0.43l-0.153-0.087l-0.152-0.014l-0.18,0.02l-1.379,0.136l-1.037,0.101
	l-0.83,0.079l-0.09,0.021l-0.079,0.046l-0.361,0.351l-0.382,0.368l-0.146,0.083l-0.084,0.003l-0.669-0.19l-0.101-0.05l-0.106-0.129
	l-0.224-0.369l-0.118-0.086l-0.707-0.089l-0.093-0.096l-0.239-0.593l-0.253-0.6l-0.235-0.558l-0.157-0.25l-0.254-0.21l-0.905-0.575
	l-0.728-0.46l-0.9-0.576l-0.826-0.529l-0.18-0.202l0.018-0.242l0.027-0.091l0.004-0.2l0.083-0.18l0.01-0.077l-0.014-0.079
	l-0.027-0.087l1.095-1.222l0.038-0.116l-0.054-0.615l-0.043-0.087l-0.09-0.1l-0.046-0.152l-0.08-0.494l-0.038-0.055l-0.08-0.026
	l-0.206-0.022l-0.057-0.021l-0.067-0.067l-0.245-0.413l-0.757-0.997l-0.024-0.073l-0.009-0.075l-0.002-0.193l-0.047-0.271
	l0.019-0.114l0.093-0.246l-0.001-0.094l-0.071-0.073l-0.092-0.072l-0.046-0.083l0.065-0.106l0.084-0.103l0.031-0.111l-0.072-0.951
	l-0.003-0.042l-0.06-0.168l-1.104-1.219l-0.143-0.226l-0.384-1.561l-0.184-0.742l-0.32-0.795l-0.33-0.609l-0.68-0.886l-0.681-0.889
	l-0.746-0.636l-0.738-0.507l-0.279-0.148l-0.316-0.171l-0.139-0.103l0.677-0.818l0.654-0.765l0.097-0.072l0.259-0.126l0.071-0.093
	l0.228-0.77l0.145-0.772l0.184-0.51l0.043-0.554l-0.008-0.19l-0.053-0.14l-0.206-0.256l-0.073-0.141l-0.042-0.167l-0.035-0.077
	l-0.206-0.19l-0.283-0.394l-0.545-0.603l-0.034-0.068l-0.068-0.289l0.019-0.119l0.131-0.347l0.076-0.522l0.126-0.223l0.405-0.16
	l0.165-0.157l0.04-0.071l0.032-0.074l0.018-0.079l0.004-0.169l0.094-0.201l-0.007-0.157l-0.102-0.343l0.046-0.118l0.071-0.02
	l0.078,0.01l0.075-0.001l0.061-0.049l0.081-0.146l0.098-0.132l0.07-0.164l0.013-0.388l0.055-0.144l0.886-0.972l0.744-0.824
	l0.179-0.266l0.027-0.058l0.043-0.098l0.011-0.154l-0.082-0.167l-0.143-0.114l-0.327-0.131l-0.137-0.129l-0.095-0.226l-0.124-0.453
	l-0.197-0.416l-0.052-0.305l-0.092-0.229l-0.016-0.067l-0.059-0.432l-0.079-0.183l0,0l0.079-0.013l0.139-0.005l0.064,0.012
	l0.086,0.087l0.072,0.021l0.137,0.006l0.446-0.11l0.147-0.006l-0.102-0.046l-0.258,0.022l-0.089-0.053l0.206,0.024l0.426-0.035
	l1.021,0.168l0.205,0.089l0.149-0.018l0.284,0.051l0.33,0.017l0.172-0.022l1.378-0.429l0.316-0.165l0.756-0.626l0.112-0.126
	l0.074-0.138l0.044-0.062l0.072-0.049l0.233-0.113l0.352-0.084l0.047,0.003l0.049,0.014l0.835,0.063l0.171-0.03l0.573-0.284
	l0.157-0.044l0.328-0.043l0.31-0.002l0.677-0.174l0.039-0.002l0.087,0.029l0.025,0.004l0.069-0.001l0.178,0.068l0.24,0.035
	l0.409,0.123l0.228,0.097l0.08-0.006l0.595-0.156l0.068,0.004l0.072,0.023l0.187,0.015l0.078-0.01l0.64-0.26l0.749-0.191
	l0.179-0.015l0.081-0.022h0.058l0.203,0.114l0.158,0.015l0.064,0.025l0.099,0.132l0.065,0.067l0.141,0.112l0.232,0.131l0.048,0.054
	l0.033,0.088l0.033,0.157l0.064,0.167l0.037,0.095l0.153,0.284l0.097,0.128l0.89,0.87l0.149,0.107l0.61,0.351l0.329,0.134
	l0.344,0.08l1.174-0.007l1.162-0.316l1.263-0.589l0.802-0.19l0.862-0.104l0.639-0.154l0.119-0.057l0.037-0.002l0.033,0.004
	l0.155,0.006l0.141,0.045l0.046,0.004l0.037-0.001l0.568-0.097l0.327,0.001l0.332-0.045l0.268-0.075l0.063,0.017l0.161,0.097
	l0.09,0.025l0.081,0.001l0.337-0.084l0.634-0.062l0.146,0.01l0.135,0.044l0.473,0.204l1.129,0.203l0.292,0.121l0.146,0.04
	l0.283,0.009l0.155-0.042l0.082-0.002l0.652,0.076l0.172-0.01l0.323-0.109l0.304-0.147l0.298-0.197l0.149-0.142l0.135-0.126
	l0.202-0.273l0.25-0.442l0.052-0.067l0.139-0.104l0.049-0.072l0.267-0.579l0.212-0.958l0.014-0.337l0.022-0.154l0.071-0.16
	l0.028-0.09l-0.02-0.562l-0.065-0.511l-0.066-0.176l-0.276-0.489l-0.113-0.069l-0.214-0.214l-0.125-0.072l-0.224-0.077l-0.096-0.055
	l-0.546-0.517l-0.103-0.151l-0.091-0.17l-0.044-0.057l-0.133-0.117l-0.058-0.062l-0.094-0.155l-0.082-0.181l-0.118-0.351l-0.03-0.17
	l-0.026-0.035l-0.035-0.035l-0.026-0.039l-0.005-0.045l0.011-0.081l-0.025-0.789l0.016-0.158l0.299-0.955l0.008-0.109l0.06-0.271
	l0.046-0.074l0.101-0.125l0.033-0.079l0.019-0.07l0.279-0.629l0.59-0.729l0.285-0.541l0.277-0.392l0.131-0.112l0.635-0.288
	l0.139-0.09l0.23-0.216l0.088-0.142l0.257-0.72l0.033-0.048l0.15-0.096l0.122-0.117l0.128,0.026l0.172-0.019l0.176-0.047l0.14-0.059
	l0.661-0.456l0.011-0.022l0.003-0.072l0.01-0.021l0.063-0.052l0.034-0.02l0.046-0.006l0.038,0.008l0.016,0.018l0.015,0.025
	l0.033,0.032l0.16,0.053l0.146-0.043l0.293-0.167l0.15-0.023l0.446,0.071l0.083,0.003l0.068-0.007l0.066-0.019l0.155-0.071
	l0.874-0.181l0.237,0.02l0.065-0.014l0.039-0.015l0.132-0.015l0.047-0.019l0.105-0.067l0.086-0.016l0.171-0.005l0.158-0.057
	l0.076-0.011l0.063,0.02l0.037,0.049l0.004,0.049l-0.018,0.1l0.008,0.042l0.158,0.216l0.063,0.043l0.076,0.021l0.087,0.002
	l0.015,0.089l0.093,0.263l-0.077,0.009l-0.009-0.042l-0.026-0.028l-0.037-0.018l-0.046-0.016l0.123,0.339l0.048,0.074l0.07,0.014
	l0.238-0.033l0.079-0.025l0.069,0.003l0.104,0.038l0.098,0.055l0.105,0.091l0.058,0.001l0.06-0.013l0.052,0.002l0.05,0.029
	l0.074,0.065l0.049,0.013l-0.041-0.06l-0.131-0.15l0.075-0.01l0.142-0.077l0.035-0.004l0.133,0.026l0.027,0.002l0.424-0.191
	l0.44-0.254l0.62-0.179l0.625-0.078l-0.033,0.118l0.002,0.037h0.035l0.104-0.011l0.292,0.045l0.084-0.022l0.605-0.352l0.884-0.424
	l0.237-0.253l0.042-0.094l0.029-0.034l0.144-0.049l0.021-0.022l0.017-0.028l0.02-0.021h0.035l0.019,0.004l0.053,0.002l0.051-0.015
	l0.083-0.002l0.114-0.041l0.16-0.025l0.419-0.132l0.156,0.005l0.121,0.094l0.057,0.166l0.042,0.087l0.062,0.054l0.181,0.06
	l0.314,0.151l0.054,0.055l0.108,0.08l0.127,0.074l-0.005,0.02L1132.049,590.469z"/></svg>