<?xml version="1.0" encoding="utf-8"?>
<!-- Generator: Adobe Illustrator 15.0.0, SVG Export Plug-In . SVG Version: 6.00 Build 0)  -->
<!DOCTYPE svg PUBLIC "-//W3C//DTD SVG 1.1//EN" "http://www.w3.org/Graphics/SVG/1.1/DTD/svg11.dtd">
<svg version="1.1" id="Ebene_1" xmlns="http://www.w3.org/2000/svg" xmlns:xlink="http://www.w3.org/1999/xlink" x="0px" y="0px"
	 width="1920px" height="1080px" viewBox="0 0 1920 1080" enable-background="new 0 0 1920 1080" xml:space="preserve">

<path fill="#F4E0B6" stroke="#FFFFFF" d="M1062.129,774.734l0.131-0.019l0.024-0.013l0.02-0.026l0.058,0.017l0.102,0.047
	l0.078-0.031l0.016-0.014l0,0v0.12l0,0l-0.004,0.001l-0.26,0.06l-0.564,0.22l-0.09-0.006l0.001-0.106l0.081-0.168l0.087-0.147
	l0.159-0.03l0.047,0.011l0.025,0.031l0.017,0.033l0.022,0.019L1062.129,774.734z M1037.664,747.454l0.021,0.266l0.024,0.042
	l0.113-0.006l0.068,0.01l0.059,0.024l0.027,0.039l-0.015,0.087l-0.05,0.061l-0.055,0.059l-0.034,0.072l0.049,0.072l0.03,0.066
	l0.005,0.077l-0.026,0.067l-0.085,0.135l-0.017,0.062l0.016,0.094l0.031,0.003l0.045-0.033l0.051-0.016l0.035,0.018l0.038,0.03
	l0.039,0.022l0.04-0.005l0.062-0.039l0.045-0.022l0.036,0.007l0.037,0.051l-0.002,0.04l-0.039,0.138l-0.001,0.058l0.029,0.052
	l0.114,0.075l-0.049,0.229l0.004,0.122l0.097,0.036l-0.104,0.229l0.007,0.02l0.021,0.031l0.016,0.036l-0.006,0.038l-0.042,0.039
	l-0.042,0.001l-0.03-0.014l-0.017-0.004l-0.052,0.114v0.092l0.062,0.22l0.082-0.058l0.069,0.019l0.137,0.097l0.086,0.018
	l0.454-0.025l0.498-0.227l0.084-0.16l0.042-0.146l0.015-0.15l-0.011-0.163l0.054-0.086l0.278-0.016l0.055-0.084l-0.088-0.325
	l0.001-0.123l0.045-0.132l0.072-0.104l0.353-0.408l0.68-0.49l0.301-0.171l0.146-0.11l0.053-0.026l0.075-0.004l0.138,0.032
	l0.162-0.006l0.108,0.018l0.124,0.095l0.098,0.124l0.028,0.104l0.084-0.004l0.04-0.01l0.052-0.02l0.037,0.007l0.033,0.038
	l0.03,0.046l0.023,0.031l0.071,0.029l0.084,0.01l0.097-0.019l0.113-0.045l0.021-0.029l0.015-0.045l0.016-0.032h0.031l0.027,0.007
	l0.03-0.007l0.062-0.03l0.062-0.045l0.026-0.054l0.02-0.055l0.036-0.047l0.093-0.038l0.262-0.073l0.083-0.064l0.305,0.052
	l0.048-0.027l0.024-0.1l0.092-0.032l0.1,0.023l0.004,0.002l0.059,0.071l0.068,0.336l-0.008,0.038l-0.014,0.046l0.012,0.024
	l0.067-0.024l0.036-0.03l0.027-0.047l0.016-0.05l0.009-0.048l0.041,0.117l-0.024,0.132l0.01,0.067l0.145-0.073l-0.014,0.127
	l0.046,0.047l0.159,0.038l0.02,0.044l-0.119,0.107l-0.039,0.073l0.047-0.021l0.037-0.004l0.035,0.002l0.039-0.005l-0.066,0.071
	l0.059,0.053l0.063-0.018l0.058-0.06l0.045-0.076l0.051,0.099l0.07,0.03l0.08,0.006l0.076,0.017l0.08,0.066l0.061,0.094
	l-0.004,0.092l-0.115,0.058l0.037,0.051l0.08,0.062l0.088,0.114l0.02,0.035l-0.027,0.286l0.021,0.067l0.195,0.091l0.052-0.003
	l0.022-0.053l0.018-0.07l0.037-0.046l0.064-0.016l0.031,0.018l0.024,0.02l0.048-0.008l0.132-0.048l0.116-0.011l0.093,0.04
	l0.063,0.109l0.097-0.085l0.063,0.071l0.055,0.126l0.074,0.08l-0.081,0.074l-0.045,0.027l-0.054,0.021l0.01,0.045l0.059,0.026
	l0.016,0.02l0.025,0.042l0.067-0.058l0.101,0.097l0.078-0.056l-0.037-0.019l-0.015-0.022l0.015-0.03l0.053-0.032l0.059-0.017
	l0.032,0.008l0.024,0.025l0.041,0.029l0.075,0.034l0.029,0.03l0.021,0.061l0.021,0.042l0.035,0.013h0.08l0.035,0.021l0.004,0.025
	l0.004,0.003l0.041-0.042l0.037-0.054l0.026-0.057l0.013-0.045l-0.01-0.015l0.081-0.035l0.065-0.042l0.057-0.066l0.054-0.114
	l0.073,0.03l0.106,0.092l0.068-0.004l0.074-0.061l0.008-0.072l-0.016-0.083l0.01-0.097l0.008-0.049v-0.025l0.015-0.02l0.098-0.046
	l0.046-0.01l0.035,0.002l0.02,0.024l0.011,0.11l-0.021,0.184l0.012,0.118l0.104,0.089l0.183-0.062l0.192-0.1l0.141-0.024
	l0.066,0.065l0.09,0.18l0.051,0.05l0.083,0.005l0.006-0.063l-0.021-0.101l-0.004-0.104l0.088-0.013h0.163v-0.002l0.025-0.063
	l0.038-0.186l-0.003-0.082l-0.047-0.138l-0.012-0.053l0.02-0.07l0.123-0.267l-0.068,0.005l-0.024,0.007l0.056-0.106l0.086-0.08
	l0.198-0.123l0.086-0.106l0.104-0.313l0.08-0.128l0.09-0.055l0.33-0.042l0.063,0.01l0.033-0.004l0.032-0.024l0.004-0.032
	l-0.005-0.033l0.002-0.019l0.074-0.082l0.041-0.037l0.173-0.082l0.016-0.101l0.001-0.109l0.07-0.084l0.108-0.087l0.171-0.238
	l0.093-0.079l0.009-0.008l0.354-0.171l0.097-0.081l0.037-0.06l0.063-0.141l0.046-0.066l0.071-0.063l0.254-0.156l0.041-0.013
	l0.079,0.012l0.035-0.009l0.025-0.03l0.035-0.091l0.014-0.021l0.079-0.007l0.05,0.023l0.046,0.032l0.067,0.02l0.097-0.022
	l0.31-0.193l0.857-0.311l0.073-0.001l0.114,0.052l0.065,0.007l0.044-0.041l0.053-0.072l0.05-0.05l0.032,0.03l0.023,0.121
	l0.037,0.118l0.071,0.053l0.123-0.072l0.056-0.115l0.115-0.368l0.067-0.104l0.075,0.014l0.028,0.115l0.021,0.146l0.049,0.109
	l0.107,0.018l0.121-0.053l0.129-0.025l0.14,0.096l0.133,0.258l0.083,0.114l0.113,0.044l0.097-0.039l0.169-0.146l0.107-0.02
	l0.105,0.055l0.097,0.109l0.159,0.234l0.396,0.452l0.713,0.541l0.144,0.047l0.131-0.049l0.077-0.145l0.058-0.366l0.125-0.254
	l0.096,0.068l0.025,0.083l0.022,0.201l0.018,0.044l0.05,0.088l0.037,0.161l-0.003,0.113l-0.052,0.076l-0.064,0.071l-0.036,0.105
	l0.018,0.117l0.063,0.073l0.09,0.026l0.099-0.02l0.095,0.011l0.02,0.118l-0.036,0.145l-0.146,0.179l-0.036,0.138l-0.043,0.256
	l-0.082,0.186l-0.012,0.06l0.061,0.307v0.105l-0.031,0.109l0.06,0.008l0.044,0.024l0.05,0.014l0.077-0.022l0.139-0.056l0.141-0.029
	l0.155,0.017l0.056,0.08l0.035,0.121l0.149,0.244l0.038,0.013l0.037-0.012h0.032l0.024,0.047l0.03,0.101l0.208,0.371l0.015,0.086
	l-0.049,0.062l-0.029,0.059l0.004,0.084l0.037,0.035l0.001,0.001l0.042-0.047l0.049,0.082l0.645,1.584l0.648,1.593l-0.015,0.111
	l-0.202,0.277l-0.066,0.063l-0.063,0.022l-0.077-0.004l-0.044,0.018l-0.026,0.054l-0.019,0.101v0.106l0.03,0.073l0.113,0.142
	l0.069,0.13l0.021,0.11l-0.035,0.105l-0.096,0.116l-0.292,0.277l-0.08,0.129l-0.171,0.441l-0.067,0.127l-0.013-0.017l-0.036-0.021
	l-0.042-0.011l-0.033,0.021l-0.005,0.055l0.084,0.472l-0.002,0.077l-0.03,0.074l-0.102,0.14l-0.034,0.073l0.003,0.033l0.034,0.073
	l0.006,0.035l-0.011,0.05l-0.038,0.102l-0.011,0.052l-0.169,1.146l-0.016,0.287l0.175,2.05l0.023,0.071l0.055,0.07l0.048,0.035
	l0.036,0.039l0.015,0.087l-0.02,0.146l-0.167,0.483l-0.014,0.077l0.027,0.337l-0.018,0.06l-0.247,0.233l-0.006,0.009l-0.004,0.004
	l-0.055,0.083l-0.35,1.56l-0.037,0.292l0.046,0.233l0.038,0.054l0.093,0.067l0.11,0.129l0.022,0.036l-0.028,0.403l-0.021,0.058
	l-0.086,0.114l-0.025,0.086l0.017,0.113l0.951,2.05l0.086,0.059l0.021,0.014l0.202,0.093l0.2,0.3l0.413,0.993l0.134,0.19
	l0.316,0.348l0.121,0.2l0.068,0.228l0.116,0.77l0.352-0.219l0.037,0.436l0.068,0.153l0.151,0.018l0.104-0.07l0.15-0.22l0.08-0.088
	l0.422-0.081l0.088,0.032l0.063,0.063l0.045,0.094l0.093,0.335l0.207,0.415l0.247,0.34l0.052,0.104l0.013,0.122l-0.036,0.111
	l-0.07,0.053l-0.196,0.055l0.058,0.425l0.037,0.082l0.108,0.093l0.042,0.062l0.01,0.059l0.008,0.148l0.02,0.057l0.022,0.015
	l0.09,0.035l0.04,0.027l-0.024,0.15l-0.063,0.108l-0.123,0.087l-0.223,0.104l-0.057-0.175l-0.191,0.065l-0.221,0.148l-0.147,0.071
	l0.076,0.109l0.002,0.147l-0.057,0.145l-0.101,0.098l-0.095,0.014l-0.332-0.01l-0.111-0.035l-0.103,0.094l-0.22,0.121l-0.082,0.098
	l-0.071-0.102l-0.121-0.107l-0.132-0.072l-0.102-0.007l-0.057-0.026l0.036-0.135l0.064-0.139l0.03-0.041l0.005-0.104l-0.028-0.203
	l0.016-0.094l0.064-0.096l0.056-0.048l0.028-0.06l-0.017-0.138l-0.035-0.093l-0.048-0.026l-0.067,0.02l-0.094,0.047l-0.022,0.027
	l-0.025,0.049l-0.034,0.055l-0.047,0.039l-0.049,0.016l-0.085,0.003l-0.05,0.021l-0.049,0.05l-0.088,0.142l-0.063,0.066l0.091,0.121
	l0.059,0.121l-0.021,0.113l-0.152,0.104l0.037,0.036l0.01,0.048l-0.013,0.056l-0.03,0.063l0.061,0.014l0.026-0.004l-0.038,0.02
	l0.06-0.003l0.06-0.014l0.063-0.025l0.062-0.035l0.01,0.045l-0.046,0.057l-0.088,0.033l-0.052,0.051l-0.038,0.066l-0.029,0.079
	l-0.021,0.082l-0.011,0.084l-0.07-0.017l-0.033,0.045l0.022,0.054l0.101,0.005l-0.014,0.104l0.045,0.037l0.078-0.007l0.085-0.028
	l-0.161,0.298l-0.374,0.169l-1.508,0.375l-0.268,0.116l-0.188,0.049l-0.048,0.006l-0.027-0.023l-0.003-0.067l0.003-0.054
	l-0.02-0.042l-0.068-0.026l0.022-0.109l-0.046,0.087l-0.024,0.109l-0.011,0.112l0.002,0.091l-0.042,0.022l-0.078-0.012l-0.112,0.042
	l-0.228,0.128l-0.081,0.016l-0.29-0.034l-0.409,0.144l-0.191,0.027l-0.116-0.107l0.114-0.013l0.116-0.074l0.09-0.116l0.041-0.132
	l0.107,0.077l0.052,0.026l0.051-0.004l0.034-0.037l0.007-0.046l-0.018-0.043l-0.034-0.025l-0.01-0.045l0.082-0.02l0.216-0.007
	l0.039-0.019l0.054-0.05l0.139-0.008l0.233,0.024l-0.022-0.037l-0.024-0.06l-0.023-0.028l0.088-0.042l0.157-0.052l0.056-0.061
	l0.051-0.142l-0.047-0.04l-0.083-0.013l-0.058-0.059l-0.114-0.189l-0.033-0.09l-0.03-0.042l-0.055-0.011l-0.064,0.022l-0.054,0.057
	l-0.045-0.01l-0.057,0.009l-0.045,0.033l-0.008,0.07l0.025,0.031l0.142,0.037l0.192,0.154l0.109,0.063h0.108l-0.032,0.112
	l-0.089,0.034l-0.1,0.024l-0.063,0.08l-0.042,0.021l-0.094-0.063h-0.058l-0.058,0.034l-0.092,0.032l-0.064,0.006l-0.077-0.012
	l-0.066-0.038l-0.033-0.081l-0.021,0.044l-0.026,0.046l-0.01,0.035l-0.036-0.042l-0.025-0.044l-0.02-0.053l-0.013-0.07l-0.038,0.02
	l0.012,0.099l-0.01,0.095l-0.038,0.063l-0.074,0.005l-0.036,0.063l-0.06,0.042l-0.069,0.021l-0.071-0.006l-0.127,0.092l-0.06,0.055
	l0.068,0.031l0.094-0.02l0.093-0.055l0.063-0.073l0.101,0.054l-0.06,0.106l-0.084,0.114l-0.097,0.079l-0.104-0.002l-0.081-0.011
	l-0.138-0.002l-0.128,0.021l-0.048,0.046l-0.035,0.083l-0.111,0.021l-0.184-0.016l-0.068,0.064l-0.052,0.077l-0.057,0.052
	l-0.088-0.004l-0.024,0.056l-0.037,0.02l-0.046-0.011l-0.055-0.036l-0.129,0.201l-0.067,0.073l-0.089,0.022l0.006-0.037v-0.085
	l0.004-0.035l-0.152,0.041l-0.061,0.045l-0.052,0.104l-0.052-0.023l-0.059-0.005l-0.043,0.024l-0.012,0.123l-0.073,0.132
	l-0.031,0.09l-0.05-0.029l-0.082-0.027l-0.085-0.016l-0.056,0.008l-0.053,0.066l-0.046,0.095l-0.056,0.053l-0.074-0.048l0.015-0.023
	l0.006-0.006l0.005-0.007l0.008-0.03l-0.209,0.118l-0.07,0.089l0.003,0.136l0.048-0.061l0.05-0.014l0.045,0.023l0.036,0.062
	l-0.115,0.025l-0.41,0.187l-0.036-0.052l-0.039-0.044l-0.087-0.071l-0.018,0.08l0.008,0.055l0.033,0.028l0.051,0.003l0.01,0.042
	l-0.1,0.075l-0.068,0.083l-0.106,0.188l-0.122-0.026l-0.121,0.071l-0.096,0.111l-0.043,0.089l-0.039,0.02h-0.043l-0.057-0.01
	l-0.054-0.02l-0.033-0.027l0.06-0.07l0.058-0.021l0.069-0.01l0.085-0.037l-0.025-0.06l-0.028-0.032l-0.035-0.005l-0.054,0.017
	l-0.012-0.051l0.054-0.062l0.027-0.065l0.004-0.073l-0.018-0.083l-0.035,0.019l-0.037,0.192l-0.08,0.13l-0.113,0.094l-0.146,0.081
	l0.184,0.058l-0.09,0.178l-0.191,0.216l-0.122,0.17l-0.016,0.116l0.022,0.06l0.061,0.013l0.099-0.02l0.105-0.045l0.097-0.072
	l0.05-0.077l-0.043-0.059l-0.012-0.051l0.136-0.119l0.063-0.084l0.031,0.019l0.038,0.029l0.05-0.006l0.067-0.058l0.104-0.119
	l0.084-0.056l0.18-0.091l0.058-0.013l0.042,0.01l0.03,0.018l0.024,0.009l0.088-0.029l0.058-0.041l0.122-0.117l-0.057,0.038
	l-0.071,0.027l-0.062-0.001l-0.028-0.055l0.028-0.054l0.187-0.158l0.02,0.092l0.043-0.021l0.111-0.136l0.343-0.148l0.146-0.174
	l0.048,0.086l0.036-0.063l0.027-0.117l0.024-0.077l0.105-0.05l0.101,0.003l0.084-0.015l0.059-0.115l0.118-0.004l0.105-0.079
	l0.104-0.106l0.224-0.168l0.124-0.171l0.086-0.068l0.696-0.378l0.193-0.02l-0.048,0.056l-0.053,0.043l-0.06,0.035l-0.064,0.026
	l0.474,0.018l-1.741,1.077l-1.751,1.084l-0.893,0.729l-0.513,0.318l-0.09,0.102l-0.069-0.005l-0.07,0.02l-0.313,0.152l-0.072,0.046
	l-0.01-0.042l0.019-0.011l0.039-0.016l0.019-0.011l-0.01-0.047l-0.162,0.086l-0.056-0.062l-0.022-0.123l-0.064-0.109l0.054-0.141
	l-0.077,0.015l-0.307,0.207l-0.096,0.091l-0.084,0.109l-0.062,0.117l-0.117-0.049l-0.188-0.013l-0.203,0.051l-0.166,0.145
	l-0.027-0.019l-0.048-0.016l-0.013-0.011l-0.014-0.012l-0.037,0.02l-0.047,0.109l-0.111,0.017l-0.122-0.001l-0.084,0.061
	l-0.035,0.018l-0.068-0.001l-0.028,0.045l0.008,0.068l0.042,0.07l-0.02,0.001l-0.073-0.005l0.017,0.069l0.002,0.022l0.045-0.04
	l0.013,0.017l0.032,0.029l0.004,0.003l0.035-0.049l0.029-0.027l0.08-0.055l0.01,0.052l-0.032,0.08l-0.121,0.148l-0.047,0.074
	l-0.028-0.134l-0.026,0.324l-0.022,0.109l-0.261-0.23l-0.044,0.022l0.003,0.021l0.016,0.07l-0.088-0.006l0.126,0.149l0.265,0.004
	l0.293-0.109l0.215-0.188l-0.11-0.035l-0.097,0.052l-0.101,0.071l-0.112,0.022l-0.008-0.046l0.059-0.026l0.046-0.033l0.039-0.041
	l0.04-0.051l0.024-0.045l0.056-0.126l0.019-0.032l0.091-0.021l0.107,0.009l0.1-0.021l0.068-0.102l0.082,0.014l0.074-0.017
	l0.054-0.059l0.019-0.105l-0.103,0.073l-0.059-0.031l-0.054-0.053l-0.091,0.013l-0.01-0.047l0.089,0.006l0.187-0.131l0.401,0.061
	l0.14-0.12l0.065-0.116l0.074-0.055l0.205-0.076l0.033,0.039l0.058,0.1l0.074,0.1l0.089,0.041l-1.457,0.8l-0.206,0.217l-1.16,0.673
	l-0.175,0.056l-0.172-0.028l-0.137,0.225l0.131-0.02l0.043-0.018l-0.434,0.406l-1.254,0.892l-0.041,0.036l-0.619,0.581l-0.088,0.112
	l-0.031,0.084l-0.069,0.033l-0.284,0.292l-0.413,0.52l-1.453,1.115l-0.038,0.053l-0.011,0.094l-0.073,0.07l-0.565,0.322
	l-0.115,0.048l-0.083,0.055l-0.116,0.188l-0.077,0.084l-0.666,0.419l-0.563,0.203l-0.128,0.113l-0.125,0.072l-0.055,0.054
	l-0.108,0.238l-0.238,0.341l-0.299,0.313l-0.216,0.138l-0.411,0.164l-0.3,0.239l-0.059,0.068l-0.027,0.125l-0.059,0.027
	l-0.071,0.021l-0.05,0.033l-0.079,0.115l-0.263,0.252l-0.351,0.493l-0.092,0.068l-0.141,0.026l-0.259,0.023l-0.091,0.037l0,0
	l-0.222-0.073l-0.049-0.058l-0.008-0.057l0.031-0.124l0.004-0.059l-0.023-0.05l-0.07-0.103l-0.027-0.145l-0.025-0.056l-0.029-0.048
	l-0.022-0.048l-0.296-1.207l-0.103-0.286l-0.029-0.046l-0.045-0.031l-0.053-0.02l-0.055-0.027l-0.046-0.058l-0.002-0.006
	l-0.01-0.044l0.001-0.124l-0.01-0.066l-0.087-0.162l-0.012-0.054l0.137-0.186l0.077-0.015l0.057,0.021l0.022-0.006l-0.023-0.084
	l-0.062-0.1l-0.072-0.059l-0.061-0.065l-0.025-0.124h-0.001l-0.131-0.312l-0.012-0.102l0.043-0.123l0.082-0.068l0.098-0.025
	l0.088,0.009l0.08-0.319l0.007-0.109l-0.021-0.096l-0.117-0.251l0.01-0.203l0.011-0.059l0.027-0.063l0.126-0.121l0.01-0.021
	l0.067-0.007l-0.003,0.024l-0.021,0.037l0.015,0.026l0.029,0.032l0.011,0.042l0.019,0.019l0.05-0.041l0.018-0.043l-0.004-0.099
	l0.004-0.042l0.044-0.116l0.018-0.067l-0.012-0.064l-0.045-0.104l-0.059-0.097l-0.045,0.004l-0.056,0.028l-0.097-0.022l-0.074-0.06
	l-0.066-0.086l-0.048-0.094l-0.026-0.09l0.091,0.019l0.009-0.067l-0.06-0.21l0.02-0.094l0.052-0.071l0.018-0.057l-0.012-0.006
	l-0.072-0.037l0.038-0.01l0.109-0.04l-0.103-0.075l-0.056-0.1l0.021-0.078l0.125-0.016l-0.096-0.07l-0.186-0.204l-0.113-0.128
	l-0.224-0.408l-0.051-0.209l-0.026-0.248l-0.077-0.189l-0.204-0.025l0.028,0.173l-0.004,0.101l-0.032,0.057l-0.063-0.019
	l-0.05-0.071l-0.059-0.062l-0.091,0.01l-0.008-0.102l-0.037,0.03l-0.055,0.078l-0.057,0.052l-0.047-0.01l-0.1-0.073l-0.054-0.023
	l0.029-0.071l-0.038-0.028l-0.136-0.017l-0.017,0.001l-0.135-0.029l-0.014-0.018l-0.105,0.014l-0.101-0.042l-0.081-0.054
	l-0.043-0.018l-0.044,0.092l-0.036,0.132l-0.068,0.062l-0.139-0.109l-0.087-0.047l-0.254-0.051l-0.099-0.071l-0.017-0.038
	l-0.039-0.162l0.005-0.028l0.045-0.045l0.004-0.032l-0.022-0.032l-0.034-0.007h-0.032l-0.023-0.016l-0.053-0.121l-0.035-0.045
	l-0.069-0.034l-0.052,0.012l-0.065,0.039l-0.047,0.045l0.005,0.026l-0.083-0.061l-0.046-0.109l-0.02-0.131l-0.006-0.127l0.017-0.239
	l-0.035-0.071l-0.116-0.081l-0.305-0.126l-0.026-0.022l-0.032-0.062l-0.016-0.016l-0.038-0.002l-0.024,0.016l-0.021,0.018
	l-0.032,0.005l-0.388,0.02l-0.108-0.035l-0.104,0.008l-0.151,0.047l-0.254,0.114l-0.059,0.046l-0.108,0.106l-0.071,0.041
	l-0.092,0.029l-0.052-0.003l-0.045-0.017l-0.071-0.019l-0.073-0.004l-0.464,0.027l-0.057-0.003l-0.015-0.021l-0.011-0.039
	l-0.019-0.044l-0.04-0.037l-0.048-0.01l-0.018,0.023l-0.013,0.032l-0.026,0.01l-0.074-0.036l-0.071-0.045l-0.063-0.006l-0.059,0.083
	l-0.066-0.009l-0.068,0.019l-0.063,0.046l-0.045,0.075l-0.085-0.047l0.01-0.04l0.044-0.044l0.016-0.06l-0.024-0.039l-0.077-0.088
	l-0.025-0.051l0.004-0.101l0.032-0.049l-0.001-0.035l-0.097-0.062l-0.202-0.042l-0.088-0.064l-0.041-0.015l-0.016,0.057l0.003,0.11
	l-0.017,0.118l-0.055,0.078l-0.112-0.004l-0.228-0.176l-0.078-0.036h-0.07l-0.135,0.044l-0.058,0.004l-0.097,0.021l0.092-0.214
	l0.023-0.02l0.064-0.031l0.022-0.023l0.006-0.028l0.004-0.085l-0.008-0.008l0.005-0.004l0.08-0.078l0.014-0.003l0.052-0.115
	l0.32-0.439l0.078-0.155l0.355-0.713l0.047-0.147l0.027-0.184l0.001-0.184l-0.011-0.082l-0.024-0.074l-0.037-0.025l-0.054-0.016
	l-0.039-0.035l0.029-0.178l-0.019-0.09l-0.032-0.09l-0.02-0.102l0.019-0.058l0.091-0.123l0.028-0.064l-0.021-0.142l-0.216-0.586
	l-0.034-0.162l-0.028-0.056l-0.048-0.054l-0.105-0.059l-0.028-0.032l-0.013-0.041v-0.092l-0.011-0.045l-0.033-0.041l-0.09-0.068
	l-0.036-0.039l-0.081-0.189l-0.054-0.071l-0.13-0.115l-0.054-0.062l-0.053-0.117l-0.18-0.624l-0.2-0.421l-0.148-0.187l-0.274-0.022
	l0.229-0.415l0.138-0.158l0.174,0.115l0.111-0.063l0.202-0.172l0.21-0.038l0.26,0.091l0.237,0.003l0.137-0.297l-0.005-0.049
	l-0.038-0.101l-0.006-0.052l0.016-0.092l0.093-0.227l0.021-0.039l0.062-0.074l0.02-0.038l-0.001-0.031l-0.027-0.059v-0.027
	l0.151-0.338l0.012-0.11l-0.015-0.234l0.005-0.119l0.021-0.049l0.035-0.046l0.027-0.052v-0.073l-0.041-0.059l-0.154-0.067
	l-0.057-0.048l-0.03-0.275l0.214-0.641l0.018-0.288l-0.016-0.166l-0.021-0.052l0.091-0.039l0.241-0.162l0.063-0.006l0.066,0.029
	l0.08,0.016l0.106-0.039l-0.03-0.07l-0.027-0.061l-0.097-0.111l-0.119-0.076l-0.123-0.022l-0.049-0.08l-0.019-0.098l0.002-0.22
	l0.03-0.102l0.02-0.107l-0.017-0.063l-0.072,0.034l-0.336,0.303l-0.056,0.035l-0.612,0.073l-0.554-0.132l-0.003-0.073l0.078-0.158
	l0.006-0.085l-0.034-0.118l-0.021-0.126l0.013-0.41l-0.032-0.132l-0.046-0.07l-0.053-0.053l-0.042-0.058l-0.014-0.08l0.024-0.062
	l0.248-0.387l0.08-0.05l0.221-0.051l0.119-0.068l0.183-0.179l0.118-0.065l0.054-0.004l0.075,0.032l0.042,0.004l0.049-0.02
	l0.103-0.058l0.056-0.017l0.169-0.13l0.088-0.057l0.086-0.022l0.085,0.031l0.056,0.068l0.047,0.08l0.061,0.065l0.075,0.034
	l0.094,0.013l0.101-0.013l0.1-0.042l0.092-0.097l-0.004-0.099l-0.035-0.101l0.005-0.11l0.126-0.081l0.158,0.129l0.254,0.327
	l0.149,0.031l0.167-0.051l0.336-0.202l-0.17-0.221l-0.062-0.122l-0.008-0.167l0.014-0.185l-0.019-0.113l-0.121-0.239l-0.035-0.132
	l-0.029-0.258l-0.051-0.108l-0.054-0.036l-0.183-0.046l-0.067-0.047l-0.188-0.217l-0.05-0.038l-0.129-0.055l-0.034-0.023
	l-0.061-0.062l-0.043-0.01l-0.035,0.014l-0.056,0.063l-0.025,0.016l-0.372,0.044l-0.134,0.044l-0.284,0.032l-0.092-0.175
	l0.012-0.615l-0.029-0.332l0.003-0.167l0.031-0.184l0,0v-0.001l0,0l0.071-0.143l0.477-0.535l0.109-0.066l0.116-0.052l0.136-0.088
	l0.08-0.118l0.008-0.011l-0.091-0.064l-0.27-0.039l-0.149-0.054l-0.074-0.042l-0.108-0.129l-0.05,0.012l-0.055,0.053l-0.071,0.048
	l-0.319,0.004l-0.046-0.232l0.116-0.656l-0.008-0.159l0.067-0.584l-0.04-0.042l-0.24,0.108l-0.119,0.085l-0.198,0.237l-0.112,0.104
	l-0.105,0.061l-0.133,0.052l-0.133,0.029l-0.104-0.013l-0.117-0.071l-0.429-0.374l-0.061-0.084l-0.047-0.103l-0.044-0.139
	l-0.026-0.141l-0.003-0.063l-0.06-1.77l-0.05-0.126l-0.107,0.059l-0.026,0.002l-0.032-0.048l0.013-0.03l0.027-0.021l0.007-0.02
	l-0.016-0.031l-0.031-0.106l-0.027-0.024l-0.034,0.005l-0.034,0.013l-0.022-0.004l-0.028-0.043l-0.03-0.058l-0.004-0.058
	l0.116-0.108l0.062-0.094l0.013-0.072l-0.078,0.004l-0.067-0.046l0.035-0.189l0.09-0.226l0.092-0.157l0.275-0.252l0.12-0.14
	l0.086-0.204l0.003-0.103l0.016-0.1l0.03-0.097l0.048-0.098l0.116-0.005l0.121-0.056l0.114-0.09l0.096-0.1l0.092-0.146l0.048-0.062
	l0.145-0.088l0.054-0.048l0.044-0.061l0.047-0.074l0.106-0.252l0.014-0.058l0.009-0.078l0.032-0.052l0.037-0.048l0.024-0.064
	l-0.005-0.097l0.047-0.157l-0.094-0.074l0.111-0.076l0.113-0.139l0.048-0.134l-0.085-0.062l0.048-0.053l0.024-0.021l-0.008-0.043
	l0.067-0.105l0.048-0.035l0.07-0.021l0.048-0.041l0.018-0.078l0.01-0.089l0.023-0.066l0.115-0.073l0.229,0.046l0.137-0.045
	l0.057-0.032l0.104-0.043l0.048-0.042l0.036-0.066l0.104-0.249l0.081-0.04l0.068-0.015l0.063,0.013l0.059,0.036l0.044,0.058
	l0.018,0.071l0.007,0.067l0.014,0.055l0.034,0.052l0.127,0.134l0.019,0.064l-0.004,0.066l0.015,0.035l0.075-0.03l0.05-0.038
	l0.144-0.132l0.132-0.048l0.052,0.082l0.009,0.271l0.031,0.149l0.062,0.057l0.099-0.015l0.361-0.151l0.466-0.126l0.591-0.077
	l0.107,0.019l0.113,0.078l0.111,0.104l0.118,0.055l0.141-0.068l0.123-0.11l0.102-0.148l0.046-0.164l-0.042-0.154l-0.066-0.043
	l-0.084-0.02l-0.069-0.029l-0.028-0.079l0.046-0.558l0.054-0.107l0.124-0.08l0.329-0.097l0.106-0.065l0.302-0.315l0.122-0.068
	l0.13-0.012l0.238,0.042l0.128-0.04l0.121-0.104l0.034-0.096l-0.002-0.031l-0.013-0.211l0.017-0.056l0.027-0.064l0.02-0.067
	l-0.012-0.069l-0.043-0.029l-0.064-0.001l-0.066,0.007l-0.046-0.006l-0.094-0.089l-0.03-0.102l0.02-0.224l-0.024-0.294l-0.025-0.044
	l-0.027-0.033l-0.02-0.048l-0.011-0.119l0.007-0.128l0.011-0.011l0.053-0.181l-0.011-0.017l0.116-0.099l0.083,0.019l0.153,0.162
	l0.1,0.048l0.132,0.034l0.252,0.031l0.097-0.007l0.318-0.068l0.117-0.043l0.133-0.089l0.091-0.124l-0.008-0.151l-0.052-0.041
	l-0.076-0.006l-0.074-0.015l-0.044-0.072l-0.035-0.246l0.019-0.129l0.086-0.094l0.121-0.061l0.117-0.03l0.146-0.06l0.099-0.104
	l0.09-0.123l0.119-0.12l0.131-0.08l0.063,0.011L1037.664,747.454z"/></svg>