<?xml version="1.0" encoding="utf-8"?>
<!-- Generator: Adobe Illustrator 15.0.0, SVG Export Plug-In . SVG Version: 6.00 Build 0)  -->
<!DOCTYPE svg PUBLIC "-//W3C//DTD SVG 1.1//EN" "http://www.w3.org/Graphics/SVG/1.1/DTD/svg11.dtd">
<svg version="1.1" id="Ebene_1" xmlns="http://www.w3.org/2000/svg" xmlns:xlink="http://www.w3.org/1999/xlink" x="0px" y="0px"
	 width="1920px" height="1080px" viewBox="0 0 1920 1080" enable-background="new 0 0 1920 1080" xml:space="preserve">

<path fill="#F4E0B6" stroke="#FFFFFF" d="M1052.634,549.399h-0.003l-0.043-0.032L1052.634,549.399z M1035.924,525.04l0.03,0.021
	l0.035,0.04l-0.03-0.007l-0.051-0.033l-0.027-0.003l-0.026,0.013l-0.034,0.032l-0.016,0.01l-0.059-0.011l-0.058-0.044l-0.029-0.051
	l0.024-0.034l0.19-0.121l0.102-0.035l0.062,0.063l-0.059,0.024l-0.083,0.068l-0.047,0.025l0.01,0.029l0.035,0.004L1035.924,525.04z
	 M1036.703,524.283l-0.564,0.223l0.085-0.078l0.361-0.149L1036.703,524.283z M1037.369,523.92l-0.004,0.006l-0.007,0.002
	l-0.11,0.086l-0.323,0.135h-0.122l0.101-0.109l0.141-0.064l0.315-0.078L1037.369,523.92z M1037.562,523.813l0.046,0.019
	l-0.002,0.021l-0.008,0.01l-0.02,0.011l-0.121-0.003l-0.041,0.013l0.034-0.044l0.054-0.025L1037.562,523.813z M1039.64,523.276
	l-0.028,0.055l-0.01,0.014h-0.025l-0.02-0.006l-0.018,0.003l-0.022,0.026l-0.013-0.031l0.015-0.07l0.045-0.04l0.065-0.007
	l0.073,0.024l-0.039,0.012L1039.64,523.276z M1038.1,523.58l-0.004,0.005l-0.006,0.002l-0.006,0.006l-0.204,0.049l-0.085,0.049
	l0.021,0.082l-0.079,0.026l-0.033-0.015l-0.032-0.06l-0.005-0.057l0.027-0.031l0.083-0.026l0.245-0.07l0.067,0.019L1038.1,523.58z
	 M1038.529,523.331l-0.049,0.056l-0.064,0.055l-0.077,0.027l-0.085-0.026l-0.012,0.042l-0.018,0.026l-0.023,0.006l-0.028-0.014
	l0.039-0.107l0.106-0.058l0.238-0.049l0.012,0.032L1038.529,523.331z M1038.86,523.156l0.089,0.023l-0.027,0.003l-0.028,0.012
	l-0.124,0.006l-0.051,0.016l0.017,0.057l-0.066-0.023l0.002-0.033l0.042-0.032l0.057-0.022l0.046-0.009L1038.86,523.156z
	 M1048.07,519.146l0.018,0.262l-0.011,0.051l-0.032,0.013l-0.015-0.031l-0.015-0.085l-0.032-0.048l-0.022,0.006l0.002,0.043
	l0.037,0.059l-0.026,0.046l-0.043,0.011l-0.054-0.011l-0.055-0.022l-0.003-0.115l0.063-0.115l0.095-0.073L1048.07,519.146z
	 M1048.117,518.955l-0.014,0.004l-0.049-0.077l-0.004-0.01l0.001-0.038l0.143-0.148l0.023-0.048l-0.019,0.078l-0.076,0.155
	L1048.117,518.955z M1054.467,516.619l0.101,0.021l0.674,0.336l0.06,0.016l0.002,0.001l0,0l0.008,0.136l-0.015,0.023l-0.021,0.017
	l0.07,0.04l0.051,0.061l-0.277,0.146l-0.06,0.013l-0.059-0.015l-0.03,0.092l-0.055,0.073l-0.131,0.097l-0.162,0.063l-0.104,0.006
	l-0.075-0.048l0.027-0.024l0.035-0.063l0.076-0.049l0.065-0.086l0.014-0.035l-0.039-0.137l-0.176-0.149l-0.042-0.117l0.132-0.04
	l0.055,0.002l-0.003,0.039l0.018,0.022l0.017,0.096l0.028,0.072l0.009-0.089l0.024-0.03l0.104-0.039l-0.009,0.016l-0.006,0.015
	v0.019l0.008,0.027l0.1-0.005l-0.046-0.051l-0.015-0.122l-0.058-0.117l-0.068-0.061l-0.048,0.047l-0.053-0.064l-0.054-0.05
	l-0.057-0.034l-0.055-0.018l-0.057,0.006l-0.047,0.031l-0.011,0.044l0.048,0.047l0.014,0.033l-0.017,0.021l-0.012,0.037
	l-0.004,0.041l0.008,0.036l-0.012,0.016l-0.074,0.068l-0.021-0.062l0.003-0.044l0.01-0.035l-0.007-0.031l-0.037-0.049l-0.021,0.001
	l-0.016,0.024l-0.065,0.068l-0.016,0.067l-0.021,0.049l-0.061-0.001l-0.018-0.094l0.007-0.173l-0.036-0.123l-0.053-0.061
	l-0.154-0.074l-0.054-0.038l0.003-0.06l0.02-0.058l0.041-0.037l0.056,0.003l0.043,0.035l0.115,0.126l0.057,0.046l0.099,0.045
	l0.213,0.039L1054.467,516.619z M1038.143,521.385l-0.01,0.014l-0.011-0.018h-0.013l-0.017-0.019l-0.017-0.012l-0.022-0.01
	l0.039-0.014l0.023,0.014L1038.143,521.385z M1038.207,521.319l-0.037,0.025l-0.024-0.02l0.043-0.027L1038.207,521.319z
	 M1040.319,519.293l-0.113,0.043l-0.063-0.004l-0.05-0.044l0.023-0.024l-0.005-0.028l-0.022-0.024l-0.03-0.015l0.055-0.107
	l0.079-0.071l0.104-0.037l0.129-0.003l-0.01,0.009l-0.001,0.016l0.006,0.021l0.013,0.025l-0.031,0.062l-0.014,0.067l-0.019,0.063
	L1040.319,519.293z M1046.595,517.288l0.273,0.245l-0.354,0.053l-0.037,0.043l0.02,0.015l0.015,0.005l-0.104,0.041l-0.074,0.011
	l-0.043-0.027l-0.032-0.095l-0.026-0.032l-0.044-0.002l-0.069,0.021l-0.025,0.018l-0.009,0.034l-0.02,0.006l-0.022-0.031
	l-0.017-0.015l-0.015,0.003l-0.022,0.03l-0.033-0.06v-0.209l0.062-0.135l0.119-0.064l0.264,0.024l0.091,0.037l0.031,0.021
	L1046.595,517.288z M1039.675,519.309l-0.062,0.067l-0.062,0.016l-0.045-0.021l-0.053-0.058l-0.01-0.08l0.033-0.051l0.017-0.015
	l0.015-0.018l0.146-0.125l0.024,0.048l0.021,0.121L1039.675,519.309z M1051.311,515.036l0.021,0.05l-0.004-0.004l-0.012-0.007
	l-0.01,0.003l0.025,0.062l-0.017,0.005l-0.038-0.091l-0.04,0.075l0.016,0.079l0.035,0.089l0.016,0.103l-0.009,0.032l-0.022,0.045
	l-0.001,0.041l0.009,0.047l0.015,0.046l0.037,0.097l-0.018,0.007l-0.025-0.062l-0.037-0.107l-0.045-0.325l-0.031-0.12l0.004-0.04
	l0.038-0.025l0.035-0.016l0.031-0.005L1051.311,515.036z M1051.812,514.587l0.007,0.071l0.043,0.077l0.049,0.055l0.055,0.039
	l0.06,0.021l0.123-0.002l0.305-0.187l0.124-0.017l0.115,0.059l0.068,0.11l-0.021,0.133l-0.08,0.12l-0.032,0.077l0.005,0.074
	l0.042,0.072l0.058,0.071l0.057,0.056l0.045,0.031l0.064,0.008l0.135-0.014l0.07,0.02l0.124,0.102l0.069,0.043l0.073,0.001
	l-0.023,0.038l-0.015,0.055v0.068l0.021,0.077l0.031,0.071l0.004,0.031l-0.029,0.007l-0.064,0.001l0.031-0.011l0.018-0.022
	l-0.002-0.034l-0.033-0.044l-0.017,0.007l-0.014,0.039l-0.032,0.03l-0.041,0.016l-0.039-0.003l-0.013-0.03l0.077-0.077l0.025-0.047
	v-0.059l-0.13,0.059l-0.051,0.041l-0.036,0.055l0.098-0.154l0.04-0.039l-0.015-0.031l-0.07,0.02l-0.035,0.016l-0.018,0.028
	l-0.017,0.055l-0.025-0.002l-0.033-0.023l-0.036-0.006l-0.243,0.125l-0.033,0.046l-0.083,0.173l-0.01,0.058v0.079l-0.058,0.037
	l-0.044,0.051l0.043,0.124l0.021-0.043l-0.009-0.024l-0.008-0.004l-0.008,0.003l-0.007-0.003l0.115-0.067l0.021,0.001l0.063,0.096
	l0.016,0.049l-0.033,0.035l-0.078,0.016h-0.095l-0.118-0.028l0.011-0.031l-0.009-0.058l-0.003-0.079l-0.028,0.037l-0.009,0.024
	l-0.006,0.029l0.015,0.008l0.015,0.012l-0.055,0.015l-0.023,0.016l-0.012,0.022l-0.019,0.021l-0.033-0.009l-0.035-0.018
	l-0.021-0.007l-0.043,0.007l-0.055-0.006l-0.044-0.029l-0.01-0.063l-0.043,0.001l-0.063,0.069l-0.025,0.013l-0.031-0.029
	l0.002-0.036l0.028-0.026l0.048,0.003l-0.013-0.029l-0.213-0.067l-0.007-0.11l0.018-0.097l0.052-0.055l0.103,0.024l0.004-0.037
	l0.044,0.019l0.031-0.02l0.055-0.082l-0.043,0.01l-0.043-0.02l-0.031-0.039l-0.008-0.051l-0.013-0.028l-0.037,0.009l-0.027-0.016
	l-0.027-0.019l-0.032-0.002l-0.101,0.072l0.004-0.109l0.01-0.032l0.062-0.042l0.06-0.071l0.05-0.029l-0.014-0.031l0.003-0.002
	l0.011-0.014l0.008-0.027l-0.083-0.002l-0.041-0.01l-0.036-0.033l0.004-0.013l0.004-0.01l-0.001-0.017l-0.017-0.031l-0.063,0.058
	l-0.043,0.022l-0.03-0.013l-0.012-0.012l-0.013,0.001l-0.017-0.006l-0.021-0.033l-0.02-0.039l-0.021-0.019l-0.021-0.004
	l-0.022,0.008l0.046-0.05l0.184-0.101l0.048-0.006l0.024,0.023l0.036,0.001l0.04,0.012l0.04,0.053l0.024,0.029l0.012-0.025
	l-0.012-0.054l-0.052-0.063l0.015-0.065l0.025-0.068l0.031-0.056l0.037-0.032l0.011,0.102l-0.002,0.047l-0.012,0.033l0.016-0.006
	l0.015-0.002l0.018,0.005l0.021,0.018l-0.003,0.025l0.004,0.074l0.038-0.011l0.024-0.021l0.012-0.037l-0.006-0.055l-0.025,0.001
	l-0.032-0.012l-0.026,0.002l-0.014-0.03l0.021-0.046l0.055,0.05l0.071,0.041l0.057,0.051l0.013,0.074l0.083,0.057h0.074l0.132-0.053
	l-0.034-0.026l-0.001-0.068l0.004-0.024l0.012-0.021l-0.015-0.033l-0.047-0.056l-0.028-0.027l-0.03-0.019l-0.015-0.031l0.011-0.017
	l0.004-0.012l0.008-0.011l0.019-0.012l-0.013-0.028l-0.031,0.013l-0.013,0.027l-0.005,0.03l-0.012,0.022l-0.025,0.016l-0.091,0.028
	l-0.021-0.009l-0.027-0.027l-0.032-0.026l-0.029-0.005l-0.043,0.005l-0.024-0.016l-0.022-0.026l-0.03-0.026l-0.049-0.034
	l-0.015-0.016l-0.021,0.042l-0.012,0.028l-0.017,0.073l-0.043,0.06l-0.023,0.064l-0.031,0.052l-0.059,0.002l-0.031-0.05l-0.019-0.09
	l0.002-0.088l0.021-0.046v-0.022l-0.008-0.046l-0.013-0.044l-0.016-0.017l-0.102,0.072l-0.025,0.042l-0.019,0.001l-0.022-0.054
	l0.002-0.036l0.015-0.039l0.021-0.034l0.308-0.232l0.071-0.028l0.083,0.013l0.013,0.028l-0.026,0.046l-0.038,0.05L1051.812,514.587z
	 M1038.484,518.583l-0.002,0.006l-0.008,0.001l-0.007,0.007l-0.019,0.039l-0.014,0.043l0.229,0.216l0.062,0.013l-0.025,0.042
	l-0.078,0.06l-0.086-0.04l-0.084-0.078l-0.081-0.058l0.023-0.168l0.03-0.067l0.051-0.039L1038.484,518.583z M1039.086,518.491
	l-0.011,0.038l-0.033,0.022l-0.048,0.008l-0.047-0.004l-0.029-0.013l-0.061,0.046l-0.097-0.001l-0.193-0.054l0.017-0.112
	l0.039-0.076l0.063-0.051l0.087-0.033l0.152-0.034l0.075,0.021l0.079,0.069l0.011,0.032l-0.008,0.043L1039.086,518.491z
	 M1039.618,517.292l0.242,0.026l0.616-0.032l0.06,0.026l0.03,0.042l0.031,0.063l0.04,0.049l0.055,0.005l0.196-0.057l0.036-0.019
	l0.016-0.035l0.033-0.021l0.02-0.035l0.044-0.026l0.072,0.035l0.048-0.008l0.034-0.025l0.002-0.001l0,0l0.037-0.011l0.127-0.127
	l0.026-0.079l0.055-0.046l0.01-0.069l0.024-0.04l0.072,0.165l0.147,0.008l0.165-0.04l0.13,0.016l0.061,0.021l0.08,0.009l0.08,0.026
	l0.059,0.071l0.046,0.034l0.065-0.033l0.103-0.084l-0.047-0.092l0.061-0.024l0.107,0.028l0.09,0.059l0.098,0.146l0.031,0.032
	l0.037,0.028l0.07,0.038l-0.023,0.037l-0.037,0.006l-0.039-0.005l-0.026,0.001l0.005,0.009l-0.046,0.073l-0.007,0.003l-0.014,0.018
	l-0.012,0.002l-0.002,0.013l0.014,0.042l0.04-0.009l0.062-0.042l0.069-0.026l0.06,0.041l0.019-0.033l0.03-0.011l0.024,0.022
	l0.007,0.071l0.038,0.06l0.038,0.091l0.057,0.194l0.019,0.086l0.007,0.07l-0.005,0.061l-0.014,0.06l-0.055,0.107l-0.083,0.092
	l-0.102,0.074l-0.106,0.046l0.013,0.032l0.138,0.025l0.582-0.353l0.058,0.002l0.215,0.091l-0.032,0.07l0.02,0.049l0.042,0.051
	l0.043,0.069l0.009,0.066l-0.016,0.068l-0.032,0.057l-0.04,0.027l0.012,0.008l0.011,0.005l0.008,0.014l-0.006,0.036l0.041,0.022
	l0.022,0.035l0.007,0.047l-0.009,0.051l0.05-0.04l0.023-0.069l0.007-0.161l-0.024-0.164l0.004-0.044l0.02-0.025l0.097-0.042
	l0.028-0.033l0.008-0.031l0.003-0.03l0.016-0.032l0.026-0.02l0.116-0.025l0.07,0.01l0.21,0.079l0.493,0.055l0.325,0.148l0.119-0.007
	l0.111-0.062l0.067-0.084l0.095-0.191l0.064-0.085l0.075-0.068l0.208-0.101l0.013,0.031l-0.046,0.018l-0.065,0.022l0.054,0.005
	l0.04-0.03l0.079,0.023l0.139-0.176l0.096,0.005l-0.053,0.143l-0.011,0.053l-0.021-0.008l-0.047-0.004l0.059,0.065l0.097,0.173
	l0.055,0.079l0.004,0.063l0.033,0.077l0.07,0.125l0.02,0.082l-0.009,0.049l-0.014,0.037l0.005,0.043l-0.227,0.303l-0.052,0.172
	l-0.035,0.045l-0.093,0.073l-0.021,0.006l-0.015,0.027l-0.023-0.007l-0.026-0.015l-0.024,0.006l-0.016,0.021l-0.005,0.016
	l-0.039,0.193l-0.016,0.04l0.011,0.028l0.072,0.077l0.064,0.054l0.067,0.026h0.082l0.098-0.044l0.031,0.002l0.038,0.041l0.023,0.054
	l0.026,0.038l0.044-0.001l0.011-0.003l0.032-0.007l0.012-0.007l0.024-0.038l0.044-0.108l0.037-0.032l0.046-0.026l0.111-0.124
	l0.305-0.149l0.026,0.001l0.028,0.02l0.044,0.059l0.031,0.025l0.105-0.005l0.023,0.018l0.028,0.107l0.024,0.045l0.043,0.01
	l0.081-0.022l0.02-0.012l0.069-0.128l0.026,0.007l0.053,0.056l0.022,0.009l0.109-0.037l0.008,0.013l0.154,0.096l0.025,0.007
	l0.03-0.01l-0.016-0.049l-0.004-0.081l-0.016-0.098l-0.042-0.069l0.007-0.039l0.018-0.029l0.02-0.014l-0.014-0.019l-0.026-0.049
	l-0.014-0.02l0.053-0.123l-0.013-0.034l-0.02,0.006l-0.011-0.028l0.079,0.005l0.022-0.007l0.037-0.059l-0.002-0.135l0.025-0.038
	l0.018-0.015l0.009-0.025l0.003-0.033l-0.003-0.038l-0.007-0.022l-0.027-0.009l-0.008-0.024l-0.002-0.025l0.004-0.02l0.006-0.016
	l0.016-0.141l0.061-0.087l0.097-0.05l0.235-0.034l0.57-0.351l0.07-0.098l0.068,0.125l0.04,0.128l0.051,0.105l0.092,0.051
	l-0.049-0.046l-0.062-0.112l-0.032-0.039l0.006-0.063l0.058-0.069l-0.003-0.069l-0.03,0.007l-0.026,0.014l-0.022,0.022l-0.018,0.024
	l0.003-0.048l0.04-0.149l0.032-0.067l0.019-0.127l0.027-0.037l0.03-0.021l0.15-0.178l0.063-0.118l0.02-0.06l0.018-0.218l0.06-0.285
	l-0.001-0.049l0.027-0.227l-0.008-0.133l0.014-0.049l0.041-0.046l0.013,0.027l-0.018,0.006l0.092,0.071l0.132,0.008l0.589-0.209
	l0.119,0.014l0.044-0.057l0.082-0.007l0.055,0.038l-0.039,0.083l-0.06,0.039l-0.287,0.074l-0.128-0.003l-0.073,0.014l-0.017,0.017
	l-0.011,0.052l-0.009,0.016l-0.053,0.019l-0.072,0.01l-0.02,0.024l0.009,0.066l-0.029-0.028l-0.011,0.013l-0.015,0.028l-0.015,0.01
	l0.021,0.037l0.02,0.014l0.018-0.001l0.022-0.004l-0.008,0.006l-0.008,0.002v0.007l0.009,0.02l-0.062-0.01l-0.053,0.026
	l-0.035,0.048v0.06l-0.066-0.039l-0.062-0.008l-0.098,0.023l-0.034,0.035l-0.014,0.065l0.013,0.075l0.045,0.066l-0.042,0.006
	l-0.018-0.002l-0.025-0.01l-0.005,0.038l0.04,0.047l0.009,0.059l-0.017,0.05l-0.038,0.024l0.044,0.056l0.042,0.041l0.022,0.037
	l-0.016,0.046l0.148,0.04l0.07-0.005l0.04-0.055l-0.04,0.015l-0.037-0.005l-0.072-0.029l-0.005-0.059l0.008-0.048l0.038-0.087
	l0.011-0.016l0.025-0.02l0.007-0.012l-0.001-0.024l-0.021-0.059l-0.002-0.021l0.027-0.053l0.135-0.142l-0.046-0.014l-0.019,0.002
	l-0.013-0.031l0.04-0.035l0.019-0.005l0.027,0.009l-0.012-0.031l0.066,0.027l0.068-0.047l0.107-0.132l-0.012-0.013l-0.021-0.031
	l-0.012-0.014l0.019-0.03l0.024-0.023l0.03-0.016l0.035-0.008l0.015,0.034l-0.035,0.024l-0.011,0.045l0.005,0.057l0.018,0.059
	l0.009-0.069v-0.034l-0.007-0.04l0.042,0.035l0.042,0.03l0.035,0.004l0.016-0.045l0.041,0.017l0.027-0.011l0.017-0.03l0.008-0.041
	l0.022,0.033l0.026,0.027l0.028,0.023l0.068,0.042l0.013,0.005l0.008-0.008l0.022-0.016l0.053-0.014l0.021-0.018l0.02-0.037
	l0.006-0.045l-0.004-0.082l0.004-0.053l0.038-0.09l0.074-0.104l0.086-0.077l0.074-0.002l-0.02,0.044l0.022,0.054l0.044,0.05
	l0.049,0.033l0.137,0.02l0.043,0.019l-0.01,0.107l0.038,0.065l0.126,0.095l0.029,0.046l0.021,0.049l0.023,0.035l0.034,0.005
	l0.116-0.042l0.015,0.034l-0.024,0.009l-0.015,0.015l-0.021,0.03l0.082-0.039l0.168,0.03l0.1-0.011l0.082,0.012l0.162,0.148
	l0.097,0.037l-0.027,0.044l-0.017,0.043l0.063-0.024l0.075-0.085l0.06,0.002l0.003,0.06l-0.004,0.026l-0.013,0.026l0.039,0.008
	l0.015-0.019l0.01-0.02l0.026-0.002l0.024,0.018l0.081,0.088l0.062,0.055l0.062,0.04l0.062,0.015l0.061-0.022l-0.013-0.031
	l-0.03-0.012l-0.052-0.042l-0.03-0.011l-0.013-0.031l0.292-0.182l0.061-0.063l0.092-0.141l0.063-0.052l0.021,0.019l0.004,0.021
	l-0.01,0.021l-0.022,0.017l0.012,0.027l0.097,0.013l0.281,0.099l0.013,0.031l-0.009,0.08l0.016,0.094l0.003,0.09l-0.051,0.07
	l0.041,0.012l0.117,0.07l0.048,0.036l0.021,0.005l0.086,0.005l0.023,0.006l0.025,0.025l0.021,0.03l0.017,0.018l0.01,0.016
	l0.006,0.021l0.007,0.018l0.013,0.004l0.035-0.017h0.011l0.02,0.006l0.02,0.004l0.02,0.001l0.016-0.004l0.04,0.006l0.021,0.041
	l0.006,0.056l-0.01,0.054l-0.118,0.225l-0.003,0.067l0.048,0.046l0.059,0.006l0.054-0.007l0.028,0.008l0.038,0.043l0.062,0.041
	l0.06,0.022l0.025-0.017l0.261,0.091l0.094-0.013l0.065,0.038l0.015,0.006l0.06-0.029l0.021-0.002l0.082,0.015l0.037,0.001
	l0.216-0.063l0.063-0.05l0.004-0.073l0.013-0.021l0.046-0.008l0.053,0.022l0.04,0.07l-0.007,0.04l-0.082,0.135l0.042,0.007
	l0.043-0.001l0.045-0.01l0.019-0.01l0,0l0.059,0.125l0.02,0.073l0.077,0.072l0.129,0.151l0.025,0.042l0.064,0.165l0.045,0.098
	l0.059,0.084l0.107,0.075l0.067,0.082l0.096,0.073l0.128,0.218l0.167,0.238l0.055,0.076l0.021,0.036l0.036,0.08l0.028,0.04
	l0.027,0.021l0.055,0.02l0.021,0.02l0.049,0.019l-0.009,0.163l-0.006,0.036l-0.021,0.025l-0.008,0.049l0.005,0.062l0.019,0.061
	l0.04,0.069l0.044,0.056l0.033,0.062l0.032,0.28l0.01,0.04v0.093l-0.043,0.117l-0.1,0.185l-0.122,0.146l-0.084,0.144l0.013,0.028
	l0.034,0.038l0.102,0.144l0.03,0.053l0.024,0.087l-0.004,0.064l-0.042,0.088l0.057,0.05l0.062,0.019l0.063-0.003l0.061-0.019
	l0.063,0.003l0.131,0.07l0.09,0.011l0.37,0.102l0.063,0.032l0.169,0.146l0.039,0.015l0.061,0.004l0.122,0.077l0.185,0.002
	l0.229,0.114l0.023,0.011l0.11,0.036l-0.003,0.186l0.025,0.11l0.069,0.026l0.032,0.042l0.002,0.119l-0.018,0.127l-0.082,0.176
	l0.092,0.168l0.146,0.165l0.112,0.106l0.02,0.085l0.089,0.044l0.109,0.011l0.084-0.011l0.088,0.003l0.075,0.061l0.039,0.089
	l-0.021,0.09l0.012,0.028l0.065,0.045l0.018,0.066l0.006,0.091l0.035,0.119l0.054,0.052l0.23,0.063l-0.021,0.08l-0.005,0.045
	l0.008,0.042l0.014,0.042l0.008,0.045l-0.011,0.127l0.005,0.048l0.108,0.269l0.016,0.094l-0.006,0.095l-0.02,0.085l-0.082,0.217
	l-0.002,0.09l0.05,0.088l0.073,0.051l0.063,0.015l0.059,0.036l0.062,0.11l0.076,0.1l0.092,0.047l0.178,0.058l0.067,0.062l0.075,0.1
	l0.056,0.112l0.007,0.099l-0.016,0.104l0.017,0.093l0.021,0.029l0.028,0.042l0.088,0.039l0.2-0.01l0.074,0.018v0.001l0.077,0.011
	l0.141-0.013l0.074,0.005l0.057,0.017l0.071,0.033l0.055,0.048l0.002,0.063l0.062,0.11l0.097,0.177l0.002,0.004l0.047,0.072
	l0.021,0.026l0.089,0.068l0.093,0.048l0.078,0.069l0.042,0.131l0.015,0.009l0.017,0.007l-0.005,0.11l0.016,0.129l0.032,0.13
	l0.045,0.109l0.02,0.058l-0.005,0.036l-0.011,0.029l-0.002,0.035l0.015,0.044l0.036,0.083l0.015,0.052l0.018,0.355l0.01,0.38
	l-0.047,0.146l-0.009,0.078l0.034,0.081l0.01,0.132l-0.004,0.06l-0.013,0.042l-0.038,0.03l-0.059,0.021l-0.111,0.017l-0.138-0.038
	l-0.048-0.006l-0.105,0.01l-0.027-0.027l-0.025-0.08l-0.001-0.126l-0.011-0.063l-0.036-0.043l-0.033,0.012l-0.121,0.122
	l-0.042-0.012l-0.009-0.058l0.006-0.075l-0.002-0.06l-0.024-0.067l-0.027-0.04l-0.035-0.025l-0.051-0.026l-0.045-0.014l-0.08,0.01
	l-0.044-0.01l-0.042-0.026l-0.02-0.021l-0.018-0.024l-0.031-0.03l0.002,0.069l-0.023,0.028l-0.1,0.033l-0.061,0.064l-0.029,0.011
	l-0.037-0.005l-0.028-0.016l-0.024-0.019l-0.029-0.011l-0.113,0.006l-0.081,0.047l-0.035,0.091l0.017,0.14l-0.011,0.055l0.04,0.009
	l0.098-0.024l0.063,0.001l-0.001,0.01l-0.016,0.025l0.018,0.046l0.099,0.042l0.113-0.009l0.09,0.013l0.032,0.114l-0.05,0.099
	l-0.22,0.067l-0.088,0.059l-0.017,0.04l-0.017,0.095l-0.02,0.044l-0.336,0.36l-0.051,0.024l-0.104,0.025l-0.049,0.032l-0.021,0.034
	l-0.018,0.069l-0.018,0.032l-0.033,0.018l-0.03,0.001l-0.022,0.011l-0.011,0.039l0.007,0.046l0.019,0.036l0.02,0.028l0.009,0.022
	l-0.007,0.033l-0.014,0.013l-0.016,0.006l-0.057,0.081l-0.046,0.028l-0.13,0.033l-0.058,0.029l-0.086,0.079l-0.048,0.031
	l-0.246,0.093l-0.113,0.07l-0.083,0.111l0.061,0.055l0.014,0.063l-0.016,0.06l-0.031,0.052l0.031,0.028l0.009,0.028l-0.009,0.026
	l-0.02,0.027l-0.021,0.077l-0.027,0.06l-0.047,0.032l-0.074-0.007l-0.027-0.016l-0.066-0.052l-0.021-0.011h-0.039l-0.005,0.008
	l0.005,0.017l-0.009,0.023l-0.071,0.112l-0.004,0.034l0.008,0.099l-0.044,0.051l-0.055-0.004l-0.058-0.014l-0.055,0.016l0.013,0.28
	l-0.009,0.087l-0.047,0.075l-0.148,0.046l-0.066,0.056l0,0l0,0l-0.022,0.017l-0.024,0.011l-0.027,0.007l-0.026,0.002l-0.028-0.008
	l-0.025,0.004l-0.021,0.013l-0.017,0.025l0.058,0.184l0.016,0.085l-0.02,0.06l-0.035,0.083l-0.013,0.029l-0.097,0.029l-0.321-0.06
	l-0.025,0.001l-0.023,0.015l-0.028,0.04l-0.015,0.012l-0.051,0.011l-0.044,0.02l-0.039,0.034l-0.021,0.048l-0.02,0.118l-0.02,0.041
	l-0.034,0.018l-0.159,0.027l-0.201,0.092l-0.097,0.074l-0.049,0.093l-0.014,0.026l-0.001,0.024l0.004,0.025v0.021l0.004,0.01
	l0.01,0.014l0.009,0.016l0.001,0.018l-0.008,0.01l-0.025,0.008l-0.008,0.01l-0.021,0.042l-0.063,0.074l-0.018,0.041l-0.021,0.188
	l-0.019,0.046l-0.022,0.032l-0.008,0.042l0.021,0.071l-0.025,0.09l0.002,0.046l0.023,0.082l0.031,0.05l0.035,0.041l0.017,0.038
	l-0.028,0.042l-0.049,0.011l-0.046-0.034l-0.084-0.106l-0.013-0.022l-0.015-0.024l-0.024-0.022l-0.019-0.012l-0.068-0.031
	l-0.012-0.007l-0.007-0.01l-0.001-0.01l0.004-0.011l0.002-0.004l0.004-0.004l0.002-0.003l0.005-0.001l0.002-0.029l-0.008-0.02
	l-0.016-0.013l-0.024-0.003l-0.08,0.027l-0.046,0.001l-0.043-0.017l-0.024-0.029l-0.03-0.076l-0.033-0.034l-0.068-0.018
	l-0.139,0.038l-0.072,0.021l0.092,0.043l0.039,0.031l0.035,0.059l0.019,0.057l-0.011,0.027l-0.021,0.028l-0.015,0.066l0.051,0.041
	l0.174,0.037l0.1,0.05l0.051,0.038l0.043,0.043l0.035,0.062l0.022,0.105l0.027,0.066l0.052,0.056l0.054,0.021l0.056,0.011
	l0.056,0.02l0.042,0.034l0.024,0.042l0.017,0.039l0.021,0.024l0.517,0.073l0.003-0.001l0.06,0.025l0.108-0.026l0.065,0.028
	l0.033,0.062l0.005,0.064l0.017,0.047l0.142,0.025l0.048,0.001l0.029,0.023l0.026,0.088l0.006,0.073l-0.015,0.145l0.008,0.073
	l-0.064,0.004l0.008,0.067l0.037,0.091l0.021,0.073l-0.025,0.063l-0.095,0.091l-0.007,0.077l0.033,0.041l0.052,0.045l0.093,0.062
	l0.056,0.021l0.055,0.014l0.112,0.01l0.047,0.007l0.042,0.036l0.025,0.056v0.062l0.009,0.003l0.026,0.003l0.001,0.039l0.004,0.01
	l0.043,0.025l0.082,0.012l0.043,0.021l0.039,0.039l0.053,0.091l0.032,0.046l0.039,0.045l0.035,0.032l0.035,0.024l0.044,0.02
	l0.035-0.001l0.028-0.016l0.027,0.01l0.035,0.07l0.067,0.139l0.042,0.064l0.06,0.05l0.074,0.025l0.153,0.013l0.081,0.036
	l0.179,0.172l0.064,0.028h0.064l0.175-0.038l0.05-0.027l-0.036-0.05l0.034-0.027l0.119-0.011l0.059,0.007l0.055,0.018l0.114,0.055
	h0.057l0.03,0.031l0.021,0.039l0.03,0.035l0.134,0.073l0,0h0.002l0.043,0.007l0.414,0.256l0.073,0.07l0.075,0.055l0.099,0.017
	l0.174-0.057h0.064l0.048,0.017l0.134,0.082l0.17,0.075l0.064,0.063l0.052,0.118l0.069,0.05l0.113,0.045l0.116,0.029l0.079,0.005
	l-0.003-0.085l0.006-0.057l0.031-0.032l0.021-0.003l0.05-0.008l0.062,0.011l0.064,0.02l0.06,0.008l0.048-0.026l0.042,0.077
	l0.063,0.065l0.072,0.049l0.068,0.031l0.063,0.004l0.112-0.025l0.048,0.007l0.11,0.077l0.252,0.216l0.079,0.035l-0.006,0.21
	l0.011,0.043l0.012-0.011l0.056,0.047l0.02,0.007l0.042,0.003l-0.021,0.051l0.015,0.053l0.075,0.131l0.028,0.073l0.018,0.064
	l0.007,0.062l-0.003,0.123l-0.005,0.025l-0.014,0.032l-0.018,0.018l-0.055,0.034h-0.01l-0.003,0.059l0.023,0.124l-0.009-0.004
	l-0.139-0.007l-0.072-0.051l-0.059-0.015l-0.061-0.008l-0.328,0.032l-0.089,0.049l-0.077,0.07l-0.016,0.035l-0.002,0.035
	l0.008,0.015l0.017,0.016l0.045,0.071l0.043,0.031l0.022,0.035l0.009,0.045l-0.003,0.095l0.003,0.044l0.013,0.042l0.057,0.116
	l0.014,0.047v0.034l-0.004,0.028l0.004,0.021l0.022,0.097l-0.012,0.082l-0.172,0.349l-0.073,0.09l-0.362,0.218l-0.244,0.229
	l-0.033,0.05l-0.063,0.143l-0.069,0.085l-0.028,0.054l0.008,0.009l-0.146,0.089l-0.033,0.04l-0.014,0.039l-0.019,0.101l-0.019,0.058
	l-0.08,0.122l-0.007,0.018l-0.013,0.08l-0.015,0.014l-0.019,0.006l-0.016,0.014l-0.005,0.037l0.02,0.06l0.037,0.051l0.047,0.042
	l0.045,0.031l0.289,0.133l0.083,0.078l0.026,0.044l0.005,0.005l0.033,0.038l0.037,0.025l0.087,0.016l0.082,0.037l0.028,0.003
	l0.068,0.028l0.192,0.188l0.101,0.068l0.02,0.009l-0.06,0.366l-0.002,0.039l0.006,0.029l0.011,0.027l0.006,0.03l-0.005,0.036l0,0
	v0.001l-0.02,0.103l0.067,0.029l0.173-0.032l0.039-0.023l0.06-0.06l0.048-0.011l0.047,0.014l0.053,0.03l0.097,0.072l0.049,0.054
	l0.031,0.052l0.021,0.052l0.016,0.053l-0.004,0.012l0.002,0.097l0.003,0.013l-0.021,0.078l-0.009,0.001l0.042,0.094l0.006-0.005
	v0.008l0.001,0.079l-0.002,0.014l0.03,0.073l0.015,0.026l0.017,0.021l0.018,0.018l0.019,0.022l0.016,0.034l-0.041,0.129
	l-0.013,0.025l-0.029,0.013l-0.023-0.004l-0.023-0.01l-0.033-0.005l-0.029,0.013l-0.019,0.021l-0.021,0.018h-0.036l-0.187-0.052
	l-0.193-0.095l-0.032-0.01l-0.031,0.001l-0.048,0.009l-0.094-0.029l-0.06-0.099l-0.007-0.111l0.062-0.069l-0.08-0.032l-0.094-0.021
	l-0.069-0.038l-0.001-0.085l-0.048,0.023l-0.179,0.021l-0.103,0.037l-0.093,0.064l-0.043,0.048l-0.063,0.128l-0.018,0.034
	l-0.037,0.037l-0.056,0.034l-0.06,0.021l-0.049-0.004l-0.114-0.037l-0.035-0.02l-0.031-0.029l-0.067-0.078l-0.024-0.02l-0.051,0.01
	l-0.095,0.085l-0.046,0.025l-0.182,0.026l-0.06,0.032l-0.051,0.06l-0.029,0.015l-0.039-0.014l-0.035-0.04l-0.003-0.034l0.008-0.032
	l-0.004-0.038l-0.011-0.047l0.001-0.022l-0.007,0.004l-0.034,0.033l-0.019,0.024l-0.046,0.084l-0.039,0.036l0.021,0.031l0.019,0.021
	l0.033,0.02l0.033,0.015l0.02,0.005l0.018,0.02l0.051,0.112l0.015,0.041v0.03l-0.039,0.136l-0.021,0.015l-0.679,0.217l-0.223,0.139
	l-0.025,0.031l0.001,0.082l-0.026,0.022l-0.178,0.027l-0.237,0.085l-0.137,0.02l-0.055,0.02l-0.005,0.016l-0.053,0.1l-0.002,0.052
	l0.018,0.107l0.002,0.044l-0.03,0.078l-0.054,0.048l-0.128,0.071l-0.073,0.003l-0.076,0.017l-0.06,0.039l-0.075,0.206l0.04-0.003
	l0.04,0.01l0.023,0.028l-0.007,0.051l-0.04,0.037l-0.125,0.048l-0.048,0.038l-0.036,0.071l-0.017,0.065l-0.025,0.061l-0.052,0.051
	l-0.074,0.018l-0.039-0.119l-0.073-0.002l-0.065,0.046l-0.139,0.2l-0.051,0.038l-0.309,0.104l-0.051-0.01l-0.053-0.047l0.007-0.003
	l0.001-0.022l-0.006-0.034l-0.013-0.026l-0.016-0.017l-0.209-0.104l-0.179-0.018l-0.034-0.026l0.07-0.097l0.012-0.038l-0.087-0.026
	l-0.038-0.007l-0.041,0.012l-0.037,0.026l-0.098,0.095l-0.082,0.041l-0.029,0.003l-0.022-0.016l-0.019-0.02l-0.018-0.01
	l-0.445-0.009l-0.07,0.024l-0.03,0.042l-0.027,0.104l-0.026,0.042l-0.031,0.019l-0.134,0.024l-0.053-0.005l-0.031-0.009
	l-0.023-0.014l-0.02-0.035v-0.031l0.005-0.025l-0.003-0.02l-0.028-0.035l-0.014-0.004l-0.018,0.017l-0.047,0.027l-0.037,0.03
	l0.019,0.036l0.044,0.038l0.038,0.042l0.013,0.041l0.037,0.182l0.05,0.007l0.036,0.021l0.031,0.031l0.033,0.05l0.036,0.091
	l0.012,0.106l-0.01,0.101l-0.022,0.081l-0.02,0.027l-0.054,0.043l-0.023,0.031l-0.007,0.032l-0.015,0.152l-0.025,0.09l-0.037,0.071
	l-0.102,0.126l-0.055,0.046l-0.182,0.089l-0.043,0.022l-0.018-0.003l0.002-0.031l0.009-0.059l0.009-0.011l0.034-0.027l0.01-0.018
	l-0.003-0.032l-0.013-0.024l-0.018-0.026l-0.008-0.178l-0.027-0.077l-0.066-0.01l-0.122,0.067l-0.02,0.05l-0.01,0.015l-0.016,0.006
	l-0.037-0.008l-0.015,0.003l-0.032,0.031l-0.017,0.023l-0.02,0.009l-0.04-0.019l-0.032-0.035l-0.021-0.045l-0.024-0.042
	l-0.047-0.026l0.047-0.074l-0.005-0.051l-0.045-0.042l-0.227-0.159l-0.027,0.026l-0.018,0.032l-0.023,0.02l-0.039-0.008
	l-0.015-0.022l-0.005-0.015l-0.006-0.013l-0.049-0.049l-0.052-0.023l-0.047-0.029l-0.035-0.069l-0.024,0.041l-0.042,0.023
	l-0.092,0.022l-0.102-0.001l-0.013,0.009l-0.028,0.034l-0.022,0.012l-0.072-0.012l-0.03-0.042l-0.014-0.055l-0.028-0.047
	l-0.05-0.025l-0.047-0.002l-0.044,0.021l-0.034,0.036l-0.036,0.097l-0.007,0.09l-0.138,0.011l-0.156-0.046l-0.143-0.02l-0.133,0.019
	l-0.055-0.01l-0.069-0.042l-0.037-0.04l-0.027-0.039l-0.027-0.035l-0.04-0.024l-0.037-0.006l-0.097,0.02l-0.19-0.028l-0.059,0.009
	l-0.129,0.039l-0.063,0.003l-0.355-0.093l-0.021-0.016l-0.055-0.088l-0.029-0.031l-0.026-0.005l-0.086,0.013l-0.395-0.119
	l-0.125,0.02l0.04,0.035l0.137,0.069l0.066,0.019l0.138,0.012l0.065,0.018l0.061,0.042l0.044,0.052l0.042,0.057l0.047,0.056
	l0.104,0.077l0.018,0.038l-0.067,0.03l0.002,0.002l-0.165,0.053l-0.347,0.071l-0.048,0.041l-0.029,0.065l-0.095,0.07l-0.113,0.048
	l-0.08,0.006l-0.111-0.037l-0.002-0.001l-0.06-0.026l-0.011-0.031l0.051-0.031l-0.104-0.046l-0.119-0.023l-0.082,0.022l0.005,0.094
	l0.034,0.02l-0.156,0.052l-0.017-0.025l-0.021-0.03l-0.034-0.022l-0.025-0.032l-0.001-0.031l0.018-0.071l0.002-0.019l-0.036-0.037
	l-0.031,0.004l-0.03,0.017l-0.034,0.003l-0.034-0.026l-0.043-0.044l-0.044-0.033h-0.044l-0.017,0.036l0.019,0.1l-0.027,0.036
	l-0.037-0.013l-0.03-0.049l-0.024-0.056l-0.016-0.029l-0.063-0.008l-0.077,0.021l-0.037,0.042l0.053,0.059l-0.037,0.038
	l-0.149,0.082l-0.034,0.01l-0.019,0.021l-0.019,0.071l-0.002,0.036l0.01,0.094l-0.022,0.039l-0.06,0.064l-0.019,0.042l0.009,0.035
	l0.024,0.026l0.021,0.035v0.054l0.053,0.001l0.016-0.001l0.097,0.032l0.075,0.016l0.054-0.02l0.035-0.037l0.031-0.042l0.037-0.038
	l0.137-0.069l0.044-0.007l0.04,0.004h0.016l0.028-0.006l0.021,0.109l-0.022-0.004l-0.012-0.027l-0.006-0.005l-0.013,0.005
	l-0.014,0.011l-0.008,0.014l0.003,0.025l0.012,0.018l0.014,0.015l0.007,0.016l0.007,0.03l0.013,0.031l0.01,0.032l-0.005,0.026
	l-0.002,0.014l-0.036,0.025l-0.039-0.023l-0.009-0.005l-0.058-0.047l-0.062-0.028l-0.087,0.036l-0.07,0.09l-0.008,0.085l0.004,0.022
	l-0.078,0.04l-0.009,0.005l-0.193,0.061l-0.124,0.006l-0.037-0.01l-0.037-0.035l-0.031-0.037l-0.023-0.014l-0.036,0.009h-0.086
	l-0.055,0.018l-0.153,0.077l-0.011,0.016l-0.008,0.025l-0.013,0.028l-0.05,0.032l-0.053,0.056l-0.017,0.026l-0.016,0.037
	l-0.004,0.026l-0.007,0.022l-0.022,0.029l-0.126,0.071l-0.393,0.122l-0.014-0.016l-0.022-0.038l-0.024-0.039l-0.025-0.013
	l-0.198,0.049l-0.051-0.008l-0.025,0.101l-0.027,0.071l-0.045,0.049l-0.111,0.063l-0.123,0.068l-0.07,0.011l-0.052-0.01
	l-0.134-0.023l0.008-0.002l0.071-0.022l0.021-0.039l0.001-0.121l-0.065,0.027l-0.14,0.093l-0.004-0.049l0.002-0.017l-0.021-0.041
	l-0.024-0.017l-0.025-0.012l-0.026-0.017l-0.116-0.112l-0.062-0.043l-0.053-0.009l-0.019-0.017l-0.027-0.045l-0.042-0.091
	l0.002-0.029l0.031-0.067l0.008-0.034l-0.025-0.072l-0.092-0.142l-0.014-0.064l-0.007-0.154l0.009-0.026l0.033-0.033l-0.012-0.053
	l-0.045-0.076l-0.006-0.02l-0.006-0.011l-0.005-0.01l-0.004-0.02l0.002-0.022l0.014-0.023l0.004-0.026l0.004-0.049l-0.002-0.021
	l-0.029-0.07l-0.004-0.064l0.05-0.107l0.009-0.061l-0.055-0.134l-0.21-0.187l-0.076-0.178l-0.011-0.092l-0.004-0.072l0.008-0.045
	l0.011-0.034l0.004-0.039l-0.018-0.064l0.002-0.059l0.097-0.318l0.008-0.072l-0.008-0.081l-0.026-0.092l-0.013-0.098l0.035-0.055
	l0.044-0.045l0.019-0.077l-0.019-0.063l-0.036-0.055l-0.039-0.049l-0.029-0.051l-0.017-0.059l-0.02-0.122l-0.004-0.055l0.005-0.048
	l0.01-0.035V547.2l-0.023-0.085l0.001-0.047l0.022-0.046l0.054-0.08l-0.01-0.03l-0.07-0.083l-0.055-0.152l-0.026-0.151l0.056-0.23
	l0.026-0.034l0.044-0.031l0.032-0.052l0.046-0.122l0.028-0.032l0.024-0.05l0.018-0.051v-0.039l-0.026-0.084l0.001-0.045l0.03-0.021
	l0.083-0.026l0.02-0.016l0.013-0.02l-0.003-0.026l-0.009-0.044l0.005-0.026l0.01-0.018l0.002-0.013l0.026-0.009l0.088-0.091
	l0.012-0.021l0.015-0.071l0.002-0.403l0.03-0.2l0.036-0.087v-0.003l-0.046-0.02l-0.313,0.029l-0.559-0.103l-0.056,0.012
	l-0.162,0.068l-0.272,0.005l-0.028,0.018l-0.057,0.059l-0.033,0.021l-0.029,0.004l-0.071-0.004l-0.035,0.005l-0.034,0.019
	l-0.03,0.026l-0.032,0.02h-0.012l-0.033,0.003l-0.035-0.016l-0.05-0.049l-0.03-0.02l-0.078-0.014l-0.138,0.017l-0.079-0.021
	l-0.057-0.036l-0.106-0.087l-0.057-0.029v-0.017l0.004-0.013l0.018-0.02l-0.042-0.059l-0.062-0.005l-0.132,0.031l-0.029-0.046
	l-0.061,0.012l-0.051,0.035l-0.011,0.007l-0.04,0.043l-0.006,0.024l0.001,0.071l-0.006,0.028l-0.019,0.017l-0.059,0.025
	l-0.023,0.017l-0.011,0.028l-0.009,0.071l-0.012,0.024l-0.02,0.002l-0.094-0.014l-0.257,0.073l-0.054-0.002l-0.055-0.011
	l-0.143-0.047l-0.016,0.003l-0.02,0.034l0.012,0.023l0.018,0.021l0.002,0.023l-0.069,0.083l-0.085-0.032l-0.077-0.111l-0.054-0.156
	l-0.066,0.016l-0.221-0.051l-0.035,0.006l-0.085,0.033l-0.134,0.009l-0.027,0.015l0.004,0.066l0.048,0.065l0.037,0.07l-0.028,0.083
	l-0.035,0.02l-0.131-0.01l-0.135,0.037l-0.039-0.004l-0.061-0.052l-0.011-0.056l-0.004-0.063l-0.044-0.065l-0.012,0.004
	l-0.031,0.038l-0.013,0.004l-0.015-0.012l-0.017-0.034l-0.008-0.009l-0.016-0.015l-0.053-0.077l-0.016-0.009l-0.047-0.003
	l-0.021-0.008l-0.01-0.017l-0.01-0.047l-0.01-0.018l-0.265-0.131l-0.071-0.045l-0.037-0.046l0.003-0.045l0.053-0.019v-0.04
	l-0.02-0.022l-0.197-0.109l-0.03-0.023l0.004-0.005l-0.009-0.025l-0.021-0.034l-0.031-0.031l-0.068-0.033l-0.32-0.057l-0.035,0.003
	l-0.021,0.017l-0.043,0.054l-0.029,0.016l-0.027,0.004l-0.011-0.033l-0.056-0.132l-0.03-0.15l-0.01-0.045l-0.048-0.142v-0.055
	l0.021-0.081l0.046-0.114l0.009-0.069l0.012-0.037l0.001-0.022l-0.014-0.029l-0.023-0.013l-0.023-0.007l-0.011-0.013l0.025-0.077
	l0.17-0.199l-0.008-0.009l-0.029-0.017l0.003-0.023l0.012-0.012l0.028,0.003l-0.03-0.022l-0.024-0.027l-0.02-0.034l-0.012-0.042
	l0.02-0.032l-0.004-0.019l-0.016-0.017l-0.011-0.032l-0.02-0.101l0.004-0.004l-0.013-0.038l0.004-0.009l0.001,0.002l-0.021-0.013
	l-0.013,0.001h-0.101l-0.142,0.04l-0.057,0.001l-0.062-0.017l-0.112-0.057l-0.062-0.017l-0.027,0.007l-0.034,0.038l-0.024,0.004
	l-0.009-0.014l-0.034-0.041l-0.022-0.027l-0.022-0.021l-0.052-0.016l-0.116-0.015l-0.063-0.034l-0.176-0.203l-0.079-0.065
	l-0.01,0.07l-0.038-0.032l-0.088-0.115l-0.077-0.062l-0.025-0.032l-0.009-0.054l-0.05-0.088l-0.032-0.031l-0.039-0.01l0.01-0.06
	l0.007-0.019l-0.007,0.002l-0.018,0.007l-0.007-0.002l-0.024-0.132l-0.006-0.065l-0.002-0.071l0.016-0.038l-0.001-0.032l-0.02-0.025
	l-0.039-0.016l-0.001-0.023l-0.007-0.053v-0.016l0.021-0.023l0.058-0.021l0.018-0.021l0.003-0.048l-0.016-0.05l-0.033-0.046
	l-0.055-0.032l0.018-0.047l0.051-0.064l0.015-0.052l0.051-0.045l0.116-0.07l0.037-0.063l-0.026-0.036l-0.009-0.046l0.004-0.05
	l0.018-0.042l0.033-0.034l0.033-0.006l0.038,0.003l0.042-0.003l0.073-0.036l0.024-0.049l-0.016-0.032l-0.012-0.028l-0.163-0.146
	l-0.022-0.053v-0.066l-0.016-0.112l-0.023-0.074l-0.016-0.012l-0.023,0.002l-0.039-0.035l-0.031-0.041l-0.022-0.038l-0.005-0.038
	l0.021-0.042l-0.054,0.013l-0.138,0.006l-0.052-0.008l-0.009-0.004l-0.008-0.001l-0.007,0.006l-0.004,0.007l-0.09,0.058l-0.03,0.007
	l-0.029-0.013l-0.042-0.045l-0.032-0.014l0.011-0.045l-0.035,0.005l-0.027-0.003l-0.011-0.02l0.011-0.042l-0.069-0.046l0.025-0.096
	l0.067-0.101l0.054-0.058l-0.007-0.015l0.021-0.049l0.006-0.044l-0.015-0.027l-0.205,0.051l-0.072-0.014l-0.057-0.055l0.032-0.037
	l-0.271-0.218l-0.075-0.04l-0.05,0.009l-0.106,0.062l-0.04,0.007l-0.024-0.035l-0.005-0.05l-0.017-0.043l-0.058-0.011l-0.008-0.007
	l-0.003-0.008l-0.001-0.01l0.002-0.009l-0.013-0.062l-0.029-0.022l-0.036-0.012l-0.035-0.031l-0.032-0.055l0.049-0.001l0.029-0.049
	l-0.004-0.057l-0.02-0.041l-0.016-0.04l0.01-0.052l0.033-0.034l0.068-0.011l0.02-0.047l0.002-0.051l-0.012-0.038l-0.057-0.087
	l-0.004-0.031l0.007-0.028l-0.001-0.02l-0.106-0.007l-0.084-0.024l-0.03-0.018l-0.02-0.035l-0.027-0.063v-0.041l0.004-0.043
	l-0.014-0.022l-0.102,0.041l-0.086-0.004l-0.042,0.005l-0.036,0.021l-0.063,0.058l-0.038,0.018l-0.041-0.113l-0.09-0.118
	l-0.052-0.103l0.067-0.064l0.049,0.012l0.049,0.035l0.051,0.025l0.054-0.021l0.022-0.046l0.018-0.131l0.022-0.055l0.201-0.279
	l0.137-0.133l0.025-0.067l-0.081-0.041l0.049-0.071l0.018-0.02l-0.074-0.004l-0.112,0.136l-0.081-0.018l-0.05-0.078l-0.026-0.104
	l-0.005-0.098l0.013-0.058l0.037-0.09l0.057-0.31l0.021-0.036l0.057-0.072l0.016-0.046l-0.003-0.062l-0.025-0.101l0.002-0.046
	l-0.062-0.039l-0.024-0.084l-0.01-0.102l-0.021-0.093l-0.042-0.08l-0.072-0.145l-0.162-0.101l-0.283-0.209l-0.031-0.052
	l-0.006-0.069l-0.001-0.11l-0.226-0.034l-0.095-0.066l-0.005-0.139l-0.038-0.021l-0.081-0.031l-0.039-0.008l-0.083,0.024
	l-0.033-0.003l-0.015-0.051l0.013-0.021l0.03-0.058l-0.025-0.094l-0.068-0.079l-0.082-0.034l-0.005-0.042l0.037-0.046l0.111-0.051
	l0.048-0.039l0.045-0.059l0.034-0.034l0.107-0.062h0.103h0.074l0.05-0.001l-0.06-0.049l-0.146-0.083l-0.043-0.019l0.08-0.077
	l0.107,0.018l0.119,0.049l0.111,0.014l0.082-0.043l0.025-0.004l0.027,0.014l0.051,0.048l0.019,0.013l0.116-0.014l0.056,0.014
	l0.033,0.07l0.099-0.059l-0.004-0.049l-0.059-0.097l0.203,0.004l0.059-0.016l0.04-0.034l0.104-0.144l0.253-0.175l0.252-0.075
	l0.063-0.063l0.039-0.097l0.025-0.134l0.014-0.031l0.021-0.01l0.01-0.019l-0.018-0.056l-0.018-0.029l-0.022-0.017l-0.101-0.057
	l-0.223-0.052l-0.069-0.001l-0.058-0.02l-0.029-0.067l0.003-0.053l0.022-0.019l0.028-0.011l0.028-0.026l0.014-0.035l0.004-0.063
	l0.006-0.031l0.031-0.062l0.036-0.04l0.016-0.005l0.162-0.064l0.025-0.042l0.02-0.144l0.035-0.072l0.104-0.087l0.04-0.066
	l0.028-0.125l0.019-0.045l0.1-0.109v-0.025l-0.012-0.013l-0.027-0.025l-0.06-0.09l-0.027-0.084l-0.005-0.074l0.012-0.146
	l-0.034-0.173l-0.081-0.107l-0.271-0.229l-0.015,0.014l-0.007,0.036l-0.019,0.032l-0.063,0.039l-0.072,0.025l-0.085,0.008
	l-0.166-0.016l-0.236,0.03l-0.088-0.016l-0.078-0.049l-0.042-0.064l-0.031-0.079l-0.038-0.079l-0.061-0.063l0.046-0.016l0.13-0.121
	l-0.119-0.053l-0.031-0.024l-0.013-0.038l-0.002-0.042l-0.008-0.042l-0.041-0.041l0.036-0.048l0.039-0.05l0.085-0.055l0.267-0.077
	l0.166,0.004l0.133-0.058l0.05,0.006l0.111,0.003l0.017-0.113l-0.035-0.166l-0.148-0.502l-0.029-0.159v-0.087l0.002-0.066
	l0.104-0.422l0.006-0.17l-0.025-0.153l-0.054-0.166l-0.143-0.322l-0.025-0.037l-0.021-0.021l-0.022-0.026l-0.021-0.054l-0.006-0.04
	l0.004-0.112l-0.008-0.084l-0.019-0.074l-0.027-0.073l-0.055-0.128l0.022-0.022l0.02-0.042l0.013-0.04l0.008-0.057l-0.011-0.056
	l-0.038-0.045l0.033-0.125l0.03-0.029l0.064-0.02h0.065l0.118,0.034l0.06,0.006l-0.102-0.079l-0.125-0.009l-0.642,0.15l-0.122-0.022
	l-0.086-0.117l-0.121-0.342l-0.016-0.08l0.005-0.155l-0.013-0.072l0.009-0.048l0.055-0.013l0.121-0.006l0.002-0.041l0.021-0.021
	l0.005-0.051l-0.026-0.056l-0.036-0.027l-0.096-0.019l-0.05-0.027l-0.027-0.06l0.022-0.062l0.067-0.085l0.062-0.14l0.041-0.051
	l0.064-0.133l0.189-0.144l0.409-0.165l0.038,0.012l0.042,0.032l0.072-0.002l0.376-0.197l0.786-0.345l0.244,0.001l0.012,0.034
	l0.029,0.134l0.138,0.145l0.166,0.113l0.115,0.037l0.011,0.029l-0.003,0.064l0.051,0.009h0.068l0.048,0.039l0.021,0.085
	l-0.011,0.049l-0.044,0.062l-0.04,0.041l-0.104,0.04l-0.036,0.044l0.104,0.139l0.048,0.05l0.052,0.029l0.028-0.027l0.027-0.021
	l0.047-0.012l0.039,0.009l0.073,0.045l0.025,0.007l0.029,0.013l0.038,0.036l0.045,0.035l0.047,0.008l0.047-0.014l0.031-0.018
	l0.022-0.026l0.021-0.042l0.023-0.114l0.003-0.176l-0.042-0.161l-0.114-0.069l-0.099,0.06l-0.06,0.007l-0.02-0.069l-0.005-0.083
	l-0.037-0.161v-0.072l0.022-0.049l0.039-0.031l0.113-0.039l0.062,0.009l0.061,0.044l0.057,0.054l0.05,0.035l0.132,0.024l0.251-0.022
	l0.125,0.02l0.013,0.034l-0.045,0.075l-0.033,0.09l-0.009,0.112l0.034,0.138l0.097,0.256l0.058,0.108l0.069,0.073l-0.034-0.115
	l-0.135-0.276l-0.047-0.136l0.005-0.112l0.046-0.063l0.038-0.072l-0.024-0.137l-0.021-0.02l-0.137-0.158l-0.03-0.021l-0.052-0.053
	l-0.05-0.062l-0.052-0.082l-0.078-0.093l-0.036-0.074l-0.022-0.079l-0.009-0.072l0.009-0.285l-0.03-0.297l0.001-0.137l0.018-0.07
	l0.034-0.066l0.047-0.054l0.057-0.032l0.058-0.012l0.037,0.005l0.096,0.056l0.128,0.053l0.123,0.024l0.232-0.011l0.114-0.037
	l0.18-0.107l0.112-0.023l0.028-0.076l0.195-0.117l0.215-0.062l0.034-0.047l0.047,0.017l0.049-0.005l0.09-0.032l0.029,0.008
	l0.09,0.061l0.441,0.387l0.156,0.095l0.1,0.04l0.057,0.037l0.09,0.126l0.291,0.217l0.056,0.026l0.06,0.006l0.066-0.011l0.041,0.006
	l0.203,0.061l0.198-0.015l0.161-0.014l0.03-0.025l-0.057-0.049l-0.125-0.029l-0.253,0.047l-0.114-0.008l-0.244-0.067l-0.127-0.074
	l-0.088-0.136l-0.056-0.122l-0.041-0.076l-0.037-0.017l-0.154-0.033l-0.046-0.002l-0.09-0.04l-0.114-0.118l-0.1-0.135l-0.039-0.089
	l-0.113-0.009l-0.227-0.096l-0.126-0.032l-0.111,0.006l-0.346,0.096l-0.122-0.018l-0.075,0.002l-0.025,0.028l-0.01,0.056
	l-0.071-0.002l-0.122-0.044l-0.134-0.085l-0.395-0.389l0.087-0.079l0.05-0.02l0.071-0.001l0.133,0.041l0.065,0.003l0.049-0.046
	l0.002-0.057l-0.012-0.098l-0.021-0.103l-0.028-0.07l-0.049-0.037l-0.067-0.03l-0.055-0.036l-0.012-0.055l-0.011-0.029l-0.074-0.001
	l-0.087,0.045l-0.072,0.069l-0.028,0.068l-0.019,0.006l-0.122-0.107l-0.086-0.089l-0.017-0.021l-0.012-0.099l0.011-0.091l0.001-0.08
	l-0.045-0.065l-0.012-0.032l0.023-0.035l0.103-0.066l0.044-0.019l0.021-0.032l0.02-0.069l0.016-0.086l0.001-0.077l-0.058,0.031
	l-0.069,0.117l-0.048,0.043v-0.018l-0.006-0.035v-0.017l-0.078,0.034l-0.124,0.084l-0.079,0.035l-0.103,0.012l-0.036,0.028
	l-0.058,0.112l-0.028,0.021l-0.081-0.005l-0.104-0.049l-0.094-0.085l-0.052-0.118l0.021-0.059l0.062-0.054l0.077-0.041l0.064-0.016
	l-0.013-0.031l-0.052,0.002l-0.051-0.025h-0.04l-0.021,0.07l-0.043-0.044l-0.011-0.055l0.007-0.055l0.013-0.045l0.068,0.008
	l0.195-0.123l0.296-0.086l0.062-0.04l0.044-0.052l0.076-0.133l0.085-0.082l0.031-0.048l-0.01-0.08l-0.042-0.111l-0.108-0.086
	l-0.309-0.173l-0.05-0.041l-0.03-0.045l-0.032-0.014l-0.055,0.019l-0.052,0.032l-0.021,0.03l-0.032-0.029l0.068-0.09l-0.188-0.224
	l-0.059-0.055l-0.095-0.025l-0.193-0.085l-0.107-0.019l-0.013-0.032l-0.016-0.088l-0.07-0.084l-0.086-0.077l-0.065-0.07
	l-0.062-0.118l-0.027-0.111l-0.015-0.145l0.105,0.003l0.101-0.024l0.156-0.12l0.059-0.028L1039.618,517.292z M1038.243,517.706
	l0.142-0.004l0.573-0.196l-0.048,0.073l-0.342,0.077l-0.033,0.034l-0.053,0.079l-0.035,0.024l-0.186,0.052l-0.022-0.004
	l-0.038-0.034l-0.026-0.005l-0.024,0.008l-0.016,0.013l-0.061,0.079l-0.009,0.017l0.006,0.037l0.029,0.092v0.021l0.101,0.252
	l0.024,0.084l0.011,0.067l-0.013,0.019l-0.042-0.059l-0.047-0.123l-0.154-0.513l-0.012-0.107l-0.007-0.627l0.062-0.173l0.153,0.032
	l-0.161,0.056l-0.012,0.028l0.076-0.013l0.043,0.05v0.071l-0.087,0.093l-0.022,0.089l0.008,0.102l0.055,0.079l0.044,0.17
	L1038.243,517.706z"/></svg>