<?xml version="1.0" encoding="utf-8"?>
<!-- Generator: Adobe Illustrator 15.0.0, SVG Export Plug-In . SVG Version: 6.00 Build 0)  -->
<!DOCTYPE svg PUBLIC "-//W3C//DTD SVG 1.1//EN" "http://www.w3.org/Graphics/SVG/1.1/DTD/svg11.dtd">
<svg version="1.1" id="Ebene_1" xmlns="http://www.w3.org/2000/svg" xmlns:xlink="http://www.w3.org/1999/xlink" x="0px" y="0px"
	 width="1920px" height="1080px" viewBox="0 0 1920 1080" enable-background="new 0 0 1920 1080" xml:space="preserve">

<path fill="#F4E0B6" stroke="#FFFFFF" d="M1444.983,272.155l0.001-0.056v-0.001l0.134-0.004l0.054-0.045l0.037-0.068l0.051-0.064
	l0.208-0.125l1.104-0.332l0.139-0.021l0.101,0.007l0.232,0.041l0.231,0.001l0.248-0.029l0.23-0.067l0.181-0.117l0.194-0.177
	l0.126-0.074l0.122-0.013l0.094,0.072l-0.005,0.111l-0.06,0.117l-0.072,0.091l-0.02,0.045l0.006,0.097l-0.025,0.053l-0.079,0.079
	l-0.017,0.042l0.017,0.15l-0.024,0.106l-0.125,0.287l-0.053,0.067l-0.083,0.04l-0.58,0.061l-0.23,0.059l-0.457,0.164l-0.228,0.044
	l-0.476,0.02l-0.463-0.035l0,0l0.109-0.091l-0.067-0.092l-0.13-0.1l-0.069-0.112l-0.026-0.108l-0.067-0.003l-0.092,0.043
	l-0.097,0.029l-0.045-0.011l-0.023-0.033L1444.983,272.155z M1445.507,273.088l0.058,0.081l0.002,0.088l-0.018,0.092l-0.006,0.091
	l0.035,0.113l0.066,0.09l0.18,0.163l0.063,0.085l0.09,0.184l0.047,0.043l0.006,0.006l0.097,0.003l0.108-0.037l0.217-0.097
	l0.12-0.029l0.131-0.016l0.686-0.023l0.215-0.029l0.163-0.091l0.043-0.099l-0.015-0.074l0.028-0.039l0.169,0.013l0.224,0.046
	l0.098,0.038l0.101,0.055l0.137,0.121l0.036,0.032l0.054,0.03l0.122-0.003l-0.076-0.158l0.104-0.016l0.109,0.036l0.201,0.116
	l0.114,0.036l0.245,0.028l0.086,0.039l0.521,0.467l0.162,0.239l-0.028,0.208l-0.047,0.025l-0.147,0.037l-0.062,0.025l-0.045,0.04
	l-0.088,0.106l-0.344,0.317l-0.113,0.071l-0.116,0.049l-0.373,0.103l-0.078,0.063l-0.007,0.093l0.043,0.207l-0.051,0.22
	l-0.014,0.173l-0.055,0.022l-0.089,0.008l-0.034-0.017l-0.072-0.071l-0.056-0.017l-0.264,0.032l-0.121,0.068l-0.164-0.001
	l-0.165,0.038l-0.064,0.029l-0.068,0.053l-0.039,0.017l-0.047,0.003l-0.038,0.012l-0.017,0.037l-0.002,0.078l-0.019,0.031
	l-0.12,0.038l-0.046,0.059l-0.056,0.123l-0.148,0.163l-0.064,0.106l-0.05,0.276l-0.183,0.327l0.051-1.272l-0.082-0.377l-0.229-0.349
	l-0.207-0.496l-0.072-0.175l-0.122-0.106l-0.168-0.078l-0.214-0.182l-0.561-0.608l-0.133-0.188l-0.592-0.843l-0.311-0.646
	l-0.02-0.125l0.044-0.095l0.075-0.007l0.06,0.072l0.081,0.156l0.078,0.042l0.231,0.082l0.07,0.016l0.079,0.034l0.167,0.155
	l0.094,0.05l0.133,0.114l0.089,0.016l0.098,0.004L1445.507,273.088z"/></svg>