<?xml version="1.0" encoding="utf-8"?>
<!-- Generator: Adobe Illustrator 15.0.0, SVG Export Plug-In . SVG Version: 6.00 Build 0)  -->
<!DOCTYPE svg PUBLIC "-//W3C//DTD SVG 1.1//EN" "http://www.w3.org/Graphics/SVG/1.1/DTD/svg11.dtd">
<svg version="1.1" id="Ebene_1" xmlns="http://www.w3.org/2000/svg" xmlns:xlink="http://www.w3.org/1999/xlink" x="0px" y="0px"
	 width="1920px" height="1080px" viewBox="0 0 1920 1080" enable-background="new 0 0 1920 1080" xml:space="preserve">

<path fill="#F4E0B6" stroke="#FFFFFF" d="M1062.848,529.837l0.059-0.021l0.085-0.067l0.317-0.1l-0.012-0.04l-0.069-0.148
	l-0.008-0.01l-0.01-0.017l-0.008-0.025l0.001-0.018l0.012-0.041l-0.001-0.025l-0.06-0.124l-0.066-0.044l-0.06-0.018l-0.033-0.043
	v-0.001l0.005-0.02l0.01-0.016l0.011-0.013l0.015-0.01l0.026-0.044l0.003-0.024l-0.009-0.04l0.072,0.027l0.149-0.024l0.041,0.034
	l0.047,0.019l0.045,0.003l0.027-0.018l-0.01-0.048h-0.001l-0.001-0.066l0.024-0.039l0.038,0.004l0.041,0.06l0.055,0.053l0.153-0.059
	l0.087,0.006l0.074,0.054l0.018,0.042l-0.004,0.055l0.017,0.086l0.036,0.058l0.059,0.065l0.063,0.058l0.051,0.035l0.073,0.021
	l0.057,0.002l0.057,0.017l0.069,0.067l0.02,0.041l0.011,0.046l0.017,0.041l0.033,0.029l0.039-0.003l0.005-0.001l0.016-0.043
	l0.004-0.057l0.012-0.041l0.107-0.056l0.621-0.031l0.04,0.009l0.062,0.04l0.027,0.011l0.033-0.003l0.196-0.147l0.07-0.021
	l0.018,0.027l0.021,0.022l0.242,0.176l0.02-0.001l0.073-0.033l0.131-0.126l0.047-0.013l0.052,0.021l0.065,0.052l0.051,0.048
	l0.041,0.053l0.017,0.054l-0.022,0.047v0.016l0.005,0.015l0.008,0.012l0.012,0.011l0.104-0.069l0.091-0.232l0.118-0.036l0.114,0.03
	l0.049,0.002l0.04-0.029l0.014-0.056l-0.007-0.062v-0.051l0.031-0.021l0.098-0.039l0.098-0.015l0.104,0.012l0.34,0.147l0.063,0.07
	l-0.068,0.071l0.025,0.027l0.006,0.015l-0.002,0.014v0.03l0.007,0.024l0.011,0.034l0.013,0.025l0.006-0.005l-0.008,0.042
	l-0.029,0.078l-0.008,0.046l-0.041,0.03l-0.097,0.012l-0.036,0.032l0.005,0.064l-0.023,0.051l-0.034,0.049l-0.024,0.052
	l-0.013,0.013l-0.018,0.025l-0.015,0.009l0.034,0.041l0.012,0.012l-0.06,0.01l0.011,0.077l0.06,0.064l0.095-0.021l0.086,0.095
	l0.023,0.019l0.048,0.013l0.017-0.012l0.012-0.025l0.027-0.023l0.121-0.053l0.029-0.003l0.037,0.032l0.021,0.039l0.016,0.04
	l0.023,0.033l0.078,0.045l0.14-0.008l0.079,0.017l0.064,0.039l0.126,0.096l0.064,0.037l0.063,0.047l0.121,0.051l0.066,0.067
	l0.098,0.131l0.05,0.042l0.077,0.042l0.132,0.046l0.141,0.01l0.105-0.054l0.028-0.149l0.038-0.07l0.011-0.061l0.002-0.069
	l0.014-0.095l0.035-0.078l0.05-0.031l0.055-0.02l0.028-0.022l0.026-0.021l0.015-0.034l0.015-0.082l0.021-0.036l0.022-0.011
	l0.058-0.003l0.023-0.012l-0.001-0.019l-0.024-0.051l0.002-0.015l0.039-0.017l0.021,0.004l0.024,0.021l0.049,0.031l0.039-0.002
	v-0.043l-0.031-0.053l-0.057-0.032l-0.053-0.101l-0.065-0.063l-0.073-0.033l-0.083-0.01l-0.075-0.031l-0.064-0.07l-0.062-0.081
	l-0.067-0.064l-0.146-0.092l-0.026-0.059l0.051-0.076l0.063-0.019l0.097,0.013l0.051,0.006l0.059-0.034l0.31-0.042l0.037,0.006
	l0.087,0.026l0.043,0.003l0.037-0.015l0.072-0.054l0.035-0.004v0.014l0.031,0.042l0.043,0.047l0.032,0.03l0.039,0.017l0.123,0.019
	l0.072-0.009l0.123-0.06h0.065l-0.039,0.041l0.015,0.014l0.017,0.009l0.017,0.008l0.018,0.005l0.022,0.057l0.03,0.05l0.04,0.035
	l0.048,0.011l-0.008-0.089l0.057-0.031l0.081,0.022l0.062,0.067l0.018,0.003l0.016-0.003l0.013-0.009l0.009-0.016l0.033-0.13
	l0.119-0.068l0.257-0.064l0.054-0.043l0.027-0.059l0.025-0.146l-0.002-0.04l-0.006-0.032l0.011-0.02l0.054-0.003l0.021,0.007
	l0.08,0.045l0.012,0.007l0.007,0.01l0.004,0.013v0.017l0.01,0.091l0.013,0.041l0.027,0.04l0.041,0.015l0.079,0.059l0.006,0.075
	l-0.03,0.072l-0.08,0.119l-0.057,0.06l-0.125,0.063l-0.023,0.027l0.001,0.051l0.021,0.028l0.209,0.108l0.051,0.001l0.024-0.018
	l0.017-0.023l0.024-0.02l0.039-0.006l0.09,0.004l0.041-0.008l0.004,0.003l0.002,0.004l0.001,0.003v0.004l-0.015,0.032l0.004,0.027
	l0.02,0.021l0.036,0.015l0.048,0.022l0.04,0.038l0.04,0.045l0.045,0.04l0.05,0.028l0.256,0.097l0.107-0.023l0.082-0.073l0.043-0.106
	l0.042-0.034l0.105-0.051l0.072-0.066l0.005-0.024l-0.024-0.04l-0.032-0.02l-0.024,0.009l-0.017,0.017h-0.019l-0.058-0.089
	l0.051-0.008l0.041-0.007l0.205,0.032l0.021,0.085l0.055,0.025l0.186-0.045l0.051,0.005l0.118,0.035h0.039l0.068-0.015l0.043,0.009
	l0.022,0.017l0.05,0.057l0.028,0.021l0.074,0.02l0.035-0.025l0.041-0.1l-0.006-0.006l-0.007-0.003h-0.005l-0.006,0.003l0.1-0.063
	l0.121-0.01l0.25,0.02l0.062-0.029l0.07-0.116l0.052,0.006l0.053,0.068l0.025,0.067l0.036,0.046l0.09,0.006l-0.031,0.119
	l0.057,0.111l0.107,0.105l0.129,0.102l0.086,0.109l0.032,0.022l0.047,0.009l0.085-0.031l0.043-0.006l0.05,0.012l0.082,0.039
	l0.043,0.004l0.037-0.021l0.033-0.038l0.037-0.027l0.055,0.011l0.027,0.028l0.088,0.135l0.032,0.034l0.067,0.058l0.031,0.032
	l0.125,0.159l0.051,0.083l0.022,0.074l-0.106,0.054l-0.04,0.042l-0.059,0.154l-0.072,0.04l-0.088,0.011l-0.109-0.004l-0.021,0.004
	l-0.017,0.013l-0.055,0.077l-0.126,0.037l-0.038,0.06l0.003,0.041l0.032,0.082l0.004,0.042l-0.01,0.033l-0.064,0.088l-0.044,0.193
	l-0.04,0.067l-0.086,0.018l0.09,0.2l-0.038,0.079l-0.061,0.125l-0.289,0.308l-0.042,0.112l-0.012,0.136l0.011,0.15l0.033,0.151
	l0.044,0.116l0.013,0.025l0.093,0.183l0.027,0.1l-0.008,0.121l-0.044,0.112l-0.068,0.083l-0.149,0.054l-0.061,0.041l-0.038,0.063
	l-0.001,0.088l0.013,0.068l0.042,0.139l0.006,0.066l-0.026,0.073l-0.05,0.027l-0.062,0.015l-0.062,0.042l-0.025,0.056l-0.015,0.205
	l-0.028,0.062l-0.42,0.441l-0.106,0.031l-0.126-0.052l-0.048-0.003l-0.056,0.049l-0.034,0.055l-0.036,0.059l-0.042,0.031
	l-0.386-0.021l-0.146,0.024l-0.109,0.08l-0.094,0.172l-0.007,0.05l0.021,0.085l-0.015,0.067l-0.055,0.123l-0.013,0.145l0.053,0.462
	l-0.005,0.073l-0.018,0.071l0.03,0.083l-0.146-0.07l-0.168-0.258l-0.107-0.064l-0.047,0.017l-0.087,0.083l-0.05,0.031l-0.059,0.002
	l-0.129-0.022l-0.05,0.004l-0.102,0.049l-0.048,0.011l-0.048-0.01l-0.043-0.041l-0.038-0.056l-0.045-0.041l-0.062,0.001
	l-0.053,0.016l-0.187,0.023l-0.062-0.01l-0.028,0.001l-0.024,0.016l-0.039,0.042l-0.027,0.013l-0.084,0.022l-0.032,0.053l-0.027,0.3
	l-0.018,0.042l-0.037,0.031l-0.018,0.001l-0.051-0.013l-0.052,0.032l-0.002,0.004l-0.41,0.106l-0.246,0.125l-0.175-0.001
	l-0.37-0.084l-0.014-0.02l-0.013-0.029l-0.023-0.013l-0.04,0.032l-0.024-0.042l-0.028-0.01l-0.032,0.011l-0.031,0.022l0.012-0.049
	l-0.022,0.011h-0.025l-0.039-0.01l-0.055,0.018l-0.022-0.001l-0.024-0.016l-0.035-0.046l-0.021-0.006l-0.084,0.037l-0.021,0.015
	l-0.073,0.094l-0.04,0.034l-0.063,0.026l-0.068,0.011l-0.27-0.031l-0.193,0.004l-0.074,0.001l-0.189-0.062l-0.074-0.01l-0.143,0.01
	l-0.163-0.013l-0.068,0.008l-0.13,0.051l-0.019-0.004l-0.021-0.015l-0.021-0.011l-0.021,0.008l-0.003,0.022l0.019,0.059l0.001,0.025
	l-0.018,0.063l-0.011,0.016l-0.184,0.143l-0.056,0.022l-0.009-0.069l-0.025-0.057l-0.037-0.052l-0.047-0.052l-0.224,0.071
	l-0.177,0.01l-0.057,0.032l-0.006,0.011l0.002,0.016l0.008,0.02l0.014,0.022l0.002,0.104l0.053,0.12l0.07,0.125l0.051,0.118
	l0.061,0.287l0.003,0.062l0.01,0.031l0.017,0.025l0.028,0.028l0.024,0.022l0.009,0.004l0.001,0.088l-0.054,0.028l-0.169-0.001
	l-0.154,0.039l-0.035,0.034l0.002,0.046l0.012,0.056l-0.007,0.062l0.022,0.085l-0.089,0.189l-0.015,0.106l0.041,0.119l0.059,0.127
	l0.035,0.115l-0.008,0.019l-0.023,0.06l-0.047,0.015l-0.034-0.018l-0.035-0.032l-0.047-0.028l-0.02,0.003l-0.036,0.032l-0.022,0.007
	l-0.018-0.014l-0.012-0.028l-0.016-0.027l-0.025-0.007l-0.042,0.02l-0.065,0.074l-0.037,0.027l-0.038,0.005l-0.136-0.014
	l-0.102-0.052l-0.029,0.043l0.012,0.192l-0.024,0.063l-0.118,0.122l-0.035,0.068l-0.02,0.017l-0.024,0.014l-0.321,0.013
	l-0.417,0.114l-0.112-0.003l-0.033-0.011l-0.075-0.042l-0.021-0.018l-0.038-0.052v-0.015l0.013-0.013l0.002-0.046l0.006-0.01
	l0.014-0.001l0.011-0.01l-0.006-0.03l-0.019-0.022l-0.021-0.004h-0.023l-0.02-0.008l-0.033-0.028l-0.078-0.053l-0.036-0.017
	l-0.233-0.03l-0.084-0.026l-0.068-0.02l-0.065-0.008l-0.127,0.012l-0.079-0.035l-0.252-0.216l-0.11-0.077l-0.048-0.007l-0.112,0.025
	l-0.063-0.004l-0.068-0.031l-0.072-0.049l-0.063-0.065l-0.042-0.077l-0.048,0.026l-0.06-0.008l-0.064-0.02l-0.062-0.011l-0.05,0.008
	l-0.021,0.003l-0.031,0.032l-0.006,0.057l0.003,0.085l-0.079-0.005l-0.116-0.029l-0.113-0.045l-0.069-0.05l-0.052-0.118
	l-0.064-0.063l-0.17-0.075l-0.134-0.082l-0.048-0.017h-0.064l-0.174,0.057l-0.099-0.017l-0.075-0.055l-0.073-0.07l-0.414-0.256
	l-0.043-0.007h-0.002l0,0l-0.134-0.073l-0.03-0.035l-0.021-0.039l-0.03-0.031h-0.057l-0.114-0.055l-0.055-0.018l-0.059-0.007
	l-0.119,0.011l-0.034,0.027l0.036,0.05l-0.05,0.027l-0.175,0.038h-0.064l-0.064-0.028l-0.179-0.172l-0.081-0.036l-0.153-0.013
	l-0.074-0.025l-0.06-0.05l-0.042-0.064l-0.067-0.139l-0.035-0.07l-0.027-0.01l-0.028,0.016l-0.035,0.001l-0.044-0.02l-0.035-0.024
	l-0.035-0.032l-0.039-0.045l-0.032-0.046l-0.053-0.091l-0.039-0.039l-0.043-0.021l-0.082-0.012l-0.043-0.025l-0.004-0.01
	l-0.001-0.039l-0.026-0.003l-0.009-0.003v-0.062l-0.025-0.056l-0.042-0.036l-0.047-0.007l-0.112-0.01l-0.055-0.014l-0.056-0.021
	l-0.093-0.062l-0.052-0.045l-0.033-0.041l0.007-0.077l0.095-0.091l0.025-0.063l-0.021-0.073l-0.037-0.091l-0.008-0.067l0.064-0.004
	l-0.008-0.073l0.015-0.145l-0.006-0.073l-0.026-0.088l-0.029-0.023l-0.048-0.001l-0.142-0.025l-0.017-0.047l-0.005-0.064
	l-0.033-0.062l-0.065-0.028l-0.108,0.026l-0.06-0.025l-0.003,0.001l-0.517-0.073l-0.021-0.024l-0.017-0.039l-0.024-0.042
	l-0.042-0.034l-0.056-0.02l-0.056-0.011l-0.054-0.021l-0.052-0.056l-0.027-0.066l-0.022-0.105l-0.035-0.062l-0.043-0.043
	l-0.051-0.038l-0.1-0.05l-0.174-0.037l-0.051-0.041l0.015-0.066l0.021-0.028l0.011-0.027l-0.019-0.057l-0.035-0.059l-0.039-0.031
	l-0.092-0.043l0.072-0.021l0.139-0.038l0.068,0.018l0.033,0.034l0.03,0.076l0.024,0.029l0.043,0.017l0.046-0.001l0.08-0.027
	l0.024,0.003l0.016,0.013l0.008,0.02l-0.002,0.029l-0.005,0.001l-0.002,0.003l-0.004,0.004l-0.002,0.004l-0.004,0.011l0.001,0.01
	l0.007,0.01l0.012,0.007l0.068,0.031l0.019,0.012l0.024,0.022l0.015,0.024l0.013,0.022l0.084,0.106l0.046,0.034l0.049-0.011
	l0.028-0.042l-0.017-0.038l-0.035-0.041l-0.031-0.05l-0.023-0.082l-0.002-0.046l0.025-0.09l-0.021-0.071l0.008-0.042l0.022-0.032
	l0.019-0.046l0.021-0.188l0.018-0.041l0.063-0.074l0.021-0.042l0.008-0.01l0.025-0.008l0.008-0.01l-0.001-0.018l-0.009-0.016
	l-0.01-0.014l-0.004-0.01v-0.021l-0.004-0.025l0.001-0.024l0.014-0.026l0.049-0.093l0.097-0.074l0.201-0.092l0.159-0.027
	l0.034-0.018l0.02-0.041l0.02-0.118l0.021-0.048l0.039-0.034l0.044-0.02l0.051-0.011l0.015-0.012l0.028-0.04l0.023-0.015
	l0.025-0.001l0.321,0.06l0.097-0.029l0.013-0.029l0.035-0.083l0.02-0.06l-0.016-0.085l-0.058-0.184l0.017-0.025l0.021-0.013
	l0.025-0.004l0.028,0.008l0.026-0.002l0.027-0.007l0.024-0.011l0.022-0.017l0,0l0,0l0.066-0.056l0.148-0.046l0.047-0.075
	l0.009-0.087l-0.013-0.28l0.055-0.016l0.058,0.014l0.055,0.004l0.044-0.051l-0.008-0.099l0.004-0.034l0.071-0.112l0.009-0.023
	l-0.005-0.017l0.005-0.008h0.039l0.021,0.011l0.066,0.052l0.027,0.016l0.074,0.007l0.047-0.032l0.027-0.06l0.021-0.077l0.02-0.027
	l0.009-0.026l-0.009-0.028l-0.031-0.028l0.031-0.052l0.016-0.06l-0.014-0.063l-0.061-0.055l0.083-0.111l0.113-0.07l0.246-0.093
	l0.048-0.031l0.086-0.079l0.058-0.029l0.13-0.033l0.046-0.028l0.057-0.081l0.016-0.006l0.014-0.013l0.007-0.033l-0.009-0.022
	l-0.02-0.028l-0.019-0.036l-0.007-0.046l0.011-0.039l0.022-0.011l0.03-0.001l0.033-0.018l0.018-0.032l0.018-0.069l0.021-0.034
	l0.049-0.032l0.104-0.025l0.051-0.024l0.336-0.36l0.02-0.044l0.017-0.095l0.017-0.04l0.088-0.059l0.22-0.067l0.05-0.099
	l-0.032-0.114l-0.09-0.013l-0.113,0.009l-0.099-0.042l-0.018-0.046l0.016-0.025l0.001-0.01l-0.063-0.001l-0.098,0.024l-0.04-0.009
	l0.011-0.055l-0.017-0.14l0.035-0.091l0.081-0.047l0.113-0.006l0.029,0.011l0.024,0.019l0.028,0.016l0.037,0.005l0.029-0.011
	l0.061-0.064l0.1-0.033l0.023-0.028l-0.002-0.069l0.031,0.03l0.018,0.024l0.02,0.021l0.042,0.026l0.044,0.01l0.08-0.01l0.045,0.014
	l0.051,0.026l0.035,0.025l0.027,0.04l0.024,0.067l0.002,0.06l-0.006,0.075l0.009,0.058l0.042,0.012l0.121-0.122l0.033-0.012
	l0.036,0.043l0.011,0.063l0.001,0.126l0.025,0.08l0.027,0.027l0.105-0.01l0.048,0.006l0.138,0.038l0.111-0.017l0.059-0.021
	l0.038-0.03l0.013-0.042l0.004-0.06L1062.848,529.837z"/></svg>