<?xml version="1.0" encoding="utf-8"?>
<!-- Generator: Adobe Illustrator 15.0.0, SVG Export Plug-In . SVG Version: 6.00 Build 0)  -->
<!DOCTYPE svg PUBLIC "-//W3C//DTD SVG 1.1//EN" "http://www.w3.org/Graphics/SVG/1.1/DTD/svg11.dtd">
<svg version="1.1" id="Ebene_1" xmlns="http://www.w3.org/2000/svg" xmlns:xlink="http://www.w3.org/1999/xlink" x="0px" y="0px"
	 width="1920px" height="1080px" viewBox="0 0 1920 1080" enable-background="new 0 0 1920 1080" xml:space="preserve">

<path fill="#F4E0B6" stroke="#FFFFFF" d="M701.74,623.954l0.005,0.041l0.063-0.003l0.013,0.023l-0.003,0.037l0.014,0.033
	l0.114,0.073l0.06,0.045l0.063,0.063l0.03,0.066l-0.039,0.056h-0.067l-0.081-0.041l-0.139-0.101l-0.054-0.056l-0.032-0.071
	l-0.032-0.147l0.04-0.032l0.027-0.006L701.74,623.954z M709.315,626.388l0.039,0.224l-0.038-0.092l-0.001-0.129V626.388z
	 M703.025,621.967l-0.121-0.003l-0.117-0.075l-0.054-0.112l0.066-0.11l0.116,0.015l0.113,0.087l0.055,0.112L703.025,621.967z
	 M706.572,623.686l-0.051-0.009l-0.009-0.039l0.016-0.092l-0.012-0.048l-0.023-0.027l-0.079-0.057l-0.275-0.283l-0.105-0.081
	l-0.097-0.104l-0.176-0.419l-0.263-0.299l-0.047-0.114v-0.153l-0.034-0.094l-0.007-0.029l-0.003-0.051l0.003-0.057l0.018-0.05
	l0.043-0.034l0.08-0.022l0.095-0.003l0.095,0.018l0.086,0.04l0.079,0.065l0.358,0.543l0.192,0.244l0.18,0.321l0.183,0.278l0.015,0.2
	l-0.031,0.104l-0.057,0.109l-0.078,0.093L706.572,623.686z M710.068,618.942l0.308,0.324l0.051,0.114l0.049,0.084l0.169,0.206
	l0.001,0.024l0.01,0.143l0.052,0.129l0.075,0.101h0.08l0.042,0.077l0.08,0.112l0.084,0.094l0.054,0.016l-0.019,0.075l0.062,0.276
	l-0.017,0.024l-0.013-0.02l-0.045-0.052l-0.032,0.144l0.004,0.026l0.055,0.055l0.017,0.004l0.01-0.042l0.084-0.025l-0.012-0.008
	l-0.024-0.015l-0.011-0.008l0.004-0.005l0.019-0.011l0.017-0.007v0.011l0.017-0.025v-0.017l0.014-0.051l0.022,0.016l0.033,0.063
	l0.069,0.055l0.081,0.02l0.068-0.039l0.063-0.015l0.072,0.044l0.021,0.072l-0.095,0.074l0.036,0.076l0.055,0.045l0.16,0.065
	l0.012,0.007l0.017,0.02l0.013,0.032l0.016,0.089l0.028,0.032l0.125,0.08l0.023,0.026l0.004,0.029l-0.001,0.025l0.023,0.038
	l0.025,0.068l0.026,0.027l0.037,0.005l0.038-0.016l0.042-0.016l0.049,0.016l0.105-0.01l0.103,0.065l0.141,0.166l0.088,0.075
	l0.013,0.036l-0.056,0.034l-0.045,0.001l-0.047-0.02l-0.101-0.065l-0.01,0.097l0.057,0.046l0.082,0.023l0.06,0.027l0.027,0.097
	l0.023,0.05h0.026l0.056-0.042l0.011-0.032l-0.066-0.072l-0.009-0.04l0.011-0.042l0.032-0.036l0.044-0.007l0.039,0.029l0.08,0.081
	l0.148,0.1l-0.04,0.128l-0.033,0.078l-0.046,0.061l-0.074,0.098l-0.043,0.1l-0.063,0.31l-0.163,0.332l-0.121,0.174l-0.102,0.063
	l-0.035,0.012l-0.126,0.09l-0.053,0.005l-0.137-0.005l-0.04,0.011l-0.035,0.088l0.002,0.135l0.005,0.025l0.035,0.201l0.158,0.267
	l0.031,0.052l-0.173,0.224l-0.064,0.057l-0.092,0.039l-0.184,0.013l-0.09,0.017l-0.214,0.087l-0.278,0.08h-0.069l-0.221-0.067
	l-0.092,0.003l-0.035,0.075l0.072,0.031l0.112,0.025l0.083,0.057l0.015,0.05l-0.023,0.144l0.006,0.063l0.032,0.13l0.003,0.053
	l-0.029,0.086l-0.104,0.161l-0.075,0.174l-0.055,0.071l-0.067,0.061l-0.07,0.052l-0.094,0.045l-0.08,0.011h-0.14h-0.036h-0.013
	l-0.089,0.026l-0.165,0.084l-0.082,0.021l-0.176-0.039l-0.241-0.228l-0.156-0.056l-0.075,0.007l0.019-0.046l0.071-0.115l0.011-0.046
	l-0.013-0.046l-0.172,0.029l-0.127,0.089l-0.074,0.144l-0.009,0.194l0.034,0.071l0.058,0.074l0.041,0.082l-0.023,0.094l0.009,0.056
	l0.078,0.045l0.098,0.03l0.064,0.012l-0.001,0.03l-0.031,0.064l-0.034,0.009h-0.04l-0.043,0.035l-0.027,0.085l0.034,0.066
	l0.119,0.127l0.012,0.05l-0.001,0.118l0.006,0.055l0.075,0.183l0.146,0.2l0.029,0.068l0.013,0.054v0.016l-0.095,0.05l-0.004,0.002
	l-0.358,0.185l-0.079,0.058l-0.063,0.069l-0.02,0.043l-0.037,0.139l-0.021,0.05l-0.046,0.063l-0.07,0.12l-0.059,0.061l-0.125,0.094
	l-0.032-0.081l-0.027-0.508l-0.042-0.174l-0.073-0.165l-0.221-0.284l-0.077-0.14l-0.087-0.124l-0.144-0.091l-0.328-0.136
	l-0.381-0.246l-0.542-0.334l-0.326-0.13l-0.047-0.087l-0.032-0.046l-0.031,0.004l-0.079,0.167l-0.062,0.018l-0.043-0.026
	l-0.074-0.105l-0.048-0.046l-0.462-0.235l-0.085-0.062l-0.005,0.022l-0.02,0.051l-0.005,0.023l-0.052-0.039l-0.018-0.02
	l-0.014-0.037l-0.148,0.002l-0.189-0.15l-0.126-0.023l-0.057-0.12l-0.095-0.135l-0.113-0.128l-0.359-0.292l-0.101-0.058
	l-0.027-0.024l-0.06-0.139l-0.023-0.032l-0.434-0.395l-0.236-0.116l-0.027-0.032l0.055-0.039l0.062,0.013l0.132,0.085l0.018-0.023
	l-0.228-0.186l-0.3-0.188l-0.104-0.031l-0.168-0.006l-0.052-0.02l-0.019-0.034l0.019-0.093l-0.011-0.041h-0.07l-0.081,0.06
	l-0.067,0.04l-0.031-0.061l-0.023-0.015h-0.064l-0.022-0.044l0.02-0.062l0.063-0.052l-0.063-0.019l-0.118,0.074l-0.082,0.008
	l0.039-0.051l0.045-0.039l0.098-0.069l-0.045,0.006l-0.08,0.029l-0.051,0.012l0.002-0.012l-0.015-0.023l-0.033-0.033l-0.019-0.002
	l-0.009,0.016l-0.008,0.021l-0.014,0.012l-0.252,0.026l-0.351-0.046l-0.114,0.023l-0.14,0.066l0.037,0.269l-0.02,0.076l-0.036,0.089
	l-0.03,0.025l-0.057-0.02l-0.244-0.159l-0.032-0.03l-0.024-0.04l-0.007-0.045l0.026-0.066l0.006-0.497l-0.005-0.017l-0.02-0.031
	l-0.007-0.015l-0.003-0.024l0.006-0.014l0.006-0.013l0.002-0.023l-0.022-0.111l-0.168-0.497l-0.042-0.072l-0.099-0.093l-0.033-0.051
	l-0.02-0.055l0.009-0.049l0.022-0.048l-0.011-0.024l-0.03-0.022l-0.031-0.035l-0.069-0.1l-0.017-0.038l-0.046,0.012l-0.052-0.069
	l-0.095-0.017l-0.112-0.003l-0.1-0.027l-0.058-0.058l-0.059-0.089l-0.042-0.088l-0.007-0.052v-0.064l-0.089-0.159l0.021-0.093
	l0.045-0.083l0.015-0.07l-0.009-0.183l0.263-0.105v-0.023l0.01-0.048l0.102-0.006l0.172-0.151l0.083-0.004l0.025-0.016l0.025-0.049
	l0.021-0.059l0.007-0.039l0.021-0.047l0.054-0.02l0.177,0.009l0.21,0.039l0.078,0.033l0.069,0.076l0.039,0.023l0.039-0.021
	l0.037-0.016l0.049,0.014l0.045,0.025l0.198,0.146l0.123,0.128l0.326,0.528l0.205,0.146l0.004,0.011l0.004,0.042v0.013l-0.014,0.035
	l0.021,0.011l0.035,0.003l0.024,0.013l0.067,0.126l0.036,0.048l0.161,0.113l0.034,0.034l0.029,0.046l0.031,0.12l0.014,0.028
	l0.036,0.028l0.026,0.001l0.022-0.007l0.025,0.006l0.032,0.029l0.03,0.053l0.032,0.021l0.029,0.004l0.072-0.006l0.021,0.003
	l0.012-0.007l0.087-0.028l0.034,0.003l0.03,0.019l0.028,0.022l0.03,0.017l0.2,0.059l0.053,0.024l0.108,0.117l-0.045,0.068
	l-0.11,0.003l-0.086-0.078l-0.016,0.025l-0.061-0.078l-0.064-0.057l-0.077-0.038l-0.1-0.021l0.012,0.031l0.039,0.073l0.049,0.054
	l-0.011,0.024l-0.023,0.03l-0.005,0.04l0.045,0.071l0.128,0.059l0.037,0.067l0.184,0.003l0.172,0.081l0.549,0.421l0.063,0.064
	l0.094,0.169l0.07,0.07l0.301,0.178l0.134,0.105l0.096,0.133l0.04,0.084l0.041,0.056l0.059,0.045l0.104,0.044l0.291,0.117
	l0.264,0.282l-0.063,0.053l0.079,0.031l0.124,0.026l0.065,0.042l0.037,0.058l0.23,0.211l0.165,0.058l0.158-0.022l0.157-0.074
	l0.156-0.1l0.166-0.055l0.134,0.047l0.574,0.446l0.028,0.006l0.023-0.013l0.019-0.014l0.018-0.002l0.02,0.02l0.004,0.018v0.015
	l0.008,0.012l0.017,0.136l0.021,0.042l0.077,0.023l0.075-0.046l0.07-0.087l0.158-0.243l0.037-0.041l0.062-0.036l0.049-0.015
	l0.034-0.021l0.012-0.061l-0.016-0.045l-0.111-0.188l-0.039-0.038l-0.087-0.059l-0.034-0.041l-0.03-0.112l-0.01-0.124l-0.032-0.102
	l-0.096-0.046l-0.072-0.158l-0.007-0.055l0.021-0.094l0.017-0.416l-0.016-0.089l-0.031-0.105l-0.043-0.1l-0.048-0.061l-0.044-0.078
	l-0.094-0.666l0.052-0.111l0.199,0.036l0.146,0.08l0.096,0.022l0.073-0.035l0.029-0.089l-0.027-0.071l-0.048-0.068l-0.036-0.074
	l-0.004-0.074l0.021-0.213l0.02-0.077l0.037-0.001l0.008-0.006l0.001-0.01l0.017-0.02l0.059-0.012l0.102-0.064l0.049-0.021
	l0.054,0.007l0.064,0.023l0.061,0.035l0.037,0.035l0.021-0.139l-0.023-0.045l-0.068-0.053l-0.021-0.063l0.038-0.085l0.062-0.077
	l0.048-0.039l0.006,0.039l0.017,0.041l0.026,0.033l0.041,0.019l0.061-0.005l0.021-0.026l0.009-0.042l0.056-0.092l0.002-0.024
	l0.006,0.009l0.046,0.043l0.01,0.024l0.01,0.037l0.023,0.041l0.044,0.03l0.028-0.186l-0.022-0.045l-0.179-0.132l-0.023-0.065
	l0.004-0.073l-0.007-0.09l-0.034-0.094l-0.157-0.256l-0.109-0.244l-0.057-0.062l-0.04-0.066l-0.052-0.192l-0.02-0.021l-0.048-0.007
	l-0.165-0.229l-0.034-0.028l-0.06-0.064l-0.034-0.027l-0.004-0.003l-0.025-0.003l-0.03,0.009l-0.037,0.002l-0.044-0.015
	l-0.044-0.048l-0.057-0.086l-0.048-0.095l-0.018-0.076l-0.124,0.025l-0.169-0.079l-0.333-0.241l-0.055-0.062l-0.039-0.029
	l-0.013-0.035l-0.013-0.113l-0.024-0.04l-0.026-0.067l0.034-0.089l0.051-0.086l0.02-0.053l0.276-0.125l0.049-0.032l0.036,0.022
	l0.251,0.033l0.02-0.029l-0.199-0.129l0.089-0.007l0.074,0.038l0.069,0.053l0.076,0.042l0.582,0.08l0.194-0.011l0.144-0.055
	l0.006,0.08l0.031,0.042l0.111,0.055l0.047,0.04l0.071,0.097l0.045,0.041l0.043,0.026l0.027,0.013l0.085,0.026l0.058,0.026
	l0.052,0.041l0.037,0.051l0.013,0.062l0.067-0.044l0.094,0.007l0.088,0.045l0.053,0.071l0.124,0.021l0.136,0.043l0.13,0.063
	L710.068,618.942z M710.445,618.496l0.248,0.354l0.081,0.186l-0.103,0.064l-0.041-0.063l-0.277-0.238l-0.103-0.147l-0.147-0.153
	l-0.041-0.066l-0.046-0.018l-0.055-0.012l-0.043-0.019l-0.064-0.064l-0.068-0.085l-0.051-0.094l-0.019-0.081l0.017,0.011
	l0.013,0.002l0.034-0.006l0.206,0.05l0.199,0.093l0.107,0.062l0.063,0.055l0.042,0.067L710.445,618.496z"/></svg>