<?xml version="1.0" encoding="utf-8"?>
<!-- Generator: Adobe Illustrator 15.0.0, SVG Export Plug-In . SVG Version: 6.00 Build 0)  -->
<!DOCTYPE svg PUBLIC "-//W3C//DTD SVG 1.1//EN" "http://www.w3.org/Graphics/SVG/1.1/DTD/svg11.dtd">
<svg version="1.1" id="Ebene_1" xmlns="http://www.w3.org/2000/svg" xmlns:xlink="http://www.w3.org/1999/xlink" x="0px" y="0px"
	 width="1920px" height="1080px" viewBox="0 0 1920 1080" enable-background="new 0 0 1920 1080" xml:space="preserve">

<path fill="#F4E0B6" stroke="#FFFFFF" d="M291.207,138.338l-0.054-0.046l0.044-0.117l0.076-0.069l0.069,0.005l0.022,0.1
	l-0.028,0.077l-0.061,0.045L291.207,138.338z M301.944,169.294l-0.02,0.041l-0.004-0.013l-0.002-0.039l0,0l0.025-0.046l0.032-0.027
	l0.037-0.006l0.042,0.016l-0.042,0.014l-0.038,0.027L301.944,169.294z M306.379,170.617l-0.063-0.018l0.021-0.023h0.032l0.037,0.017
	l0.039,0.027l-0.034,0.001L306.379,170.617z M309.483,168.907l-0.041-0.036l0.01-0.018l0.012-0.004l0.033,0.002l0.18,0.048
	l0.035,0.032l-0.09,0.042l-0.098,0.011l-0.031-0.031L309.483,168.907z M308.253,160.196l-0.076,0.043l-0.057-0.137l-0.013-0.057
	v-0.074l0.017-0.025l0.042-0.021l0.022,0.031l0.005,0.008h0.01l0.04,0.006l-0.005,0.027l-0.006,0.06l-0.007,0.027l0.072-0.052
	l0.07-0.071l0.059-0.021l0.04,0.096l-0.031,0.064l-0.083,0.051L308.253,160.196z M309.645,168.119l-0.015-0.03l-0.004-0.044
	l-0.021-0.061l0,0l-0.067,0.05l-0.058,0.092l-0.029,0.098l0.021,0.069l-0.103,0.007l0-0.094l0.065-0.195l0.04-0.053l0.097-0.008
	l0.095,0.054l0.031,0.131L309.645,168.119z M310.126,166.138l-0.088-0.045l-0.009-0.083l0.101-0.079l0.113-0.014l0.081,0.036
	l0.017,0.066l-0.08,0.083L310.126,166.138z M308.411,152.844l-0.061,0.055l0.017,0.167l-0.073,0.062l0.009,0.038l-0.001,0.19
	l-0.014,0.062l-0.061,0.057l-0.088,0.054l-0.084,0.014l-0.067-0.091l-0.058-0.06l0.023-0.043l0.007-0.055l0.002-0.104l-0.042,0.036
	l-0.037,0.012l-0.035-0.01l-0.03-0.035l0.007-0.063l-0.009-0.115l-0.023-0.119l-0.034-0.08l0.035,0.003l0.072-0.008h0.036
	l-0.027-0.039l-0.01-0.031l0.002-0.031l0.014-0.038l0.027,0.017l0.035,0.015l0.018,0.016l0.027-0.148l-0.072-0.114l-0.203-0.166
	l-0.032-0.072l-0.013-0.078l-0.022-0.058l-0.056-0.011l-0.104,0.033l-0.026-0.002l0.07-0.045l-0.042-0.038h-0.06l-0.051,0.026
	l-0.018,0.042l-0.005,0.078l-0.039,0.035l-0.128,0.028l-0.039-0.004l-0.038-0.025l-0.029-0.038l-0.004-0.044l0.026-0.052l0.042-0.02
	l0.133-0.025l-0.07-0.056l-0.015-0.024l-0.011-0.071l-0.058-0.033l-0.048-0.015l-0.037-0.027l-0.024-0.071l-0.001-0.082l0.028-0.144
	l0.001-0.068l-0.083-0.09l-0.017-0.056l0.071-0.046l-0.006-0.034l-0.028-0.033l0.004-0.055l0.024-0.067l0.034-0.07l0.167,0.11
	l0.047,0.081l-0.022,0.11l0.051,0.041l0.112-0.015l0.06,0.023l0.032,0.046l0.011,0.057l-0.027,0.302l0.016,0.044l0.042,0.021
	l0.05-0.007l0.052,0.001l0.047,0.04l-0.039,0.083l0.05,0.032l0.094-0.005l0.091-0.026l0.122,0.039l0.094,0.158l0.041,0.196
	l-0.031,0.154h0.15l0.027,0.028l0.017,0.075l0.016,0.02l0.025,0.011l0.027,0.016l0.018,0.038l-0.002,0.054l-0.008,0.046l0.003,0.043
	L308.411,152.844z M309.735,161.783l-0.122,0.162l-0.17-0.062l0.165-0.087l0.002-0.108l-0.083-0.066l-0.096,0.037l-0.092,0.068
	l-0.029-0.063l0.052-0.083l0.145,0.006h0.004l0.217,0.009L309.735,161.783z M308.653,153.584l-0.054-0.004l0.011-0.073l-0.054-0.021
	l-0.057-0.011l0.001-0.047l0.068-0.162l0.062-0.006l0.083,0.025h0.038l0.059,0.037l0.044,0.095l-0.004,0.08l-0.085-0.002
	l-0.033,0.053l-0.037,0.028L308.653,153.584z M310.571,166.105l-0.007-0.038l0.006-0.041l0.055,0.042l0.051,0.048l0.041,0.056
	l0.026,0.065l-0.035-0.011l-0.033-0.016l-0.031-0.019l-0.029-0.021l-0.027-0.031L310.571,166.105z M311.964,167.882l-0.032-0.031
	l-0.002-0.044v-0.001l0.07-0.063l0.063,0.01l0.029,0.051l-0.031,0.065l-0.05,0.021L311.964,167.882z M311.114,159.902l-0.034,0.045
	l0.04,0.061l0.003,0.023l-0.053,0.033l-0.092-0.074l-0.103,0.023l-0.033-0.084l0.076-0.074l0.085-0.027l0.031-0.064l0.045-0.052
	l0.039-0.112l0.053-0.027l0.057,0.086l0.097,0.167l0.073,0.183l0.02,0.076l-0.033,0.033l-0.021,0.028l-0.067-0.021l-0.044-0.111
	l-0.057-0.042L311.114,159.902z M309.784,148.613l-0.237,0.107l0.036-0.086l0.074-0.087l0.088-0.077l0.08-0.053l0.075-0.036
	l0.041-0.002l0.103,0.045l-0.015,0.023l-0.004,0.019l-0.001,0.017l-0.003,0.021l-0.052,0.044l-0.065,0.029L309.784,148.613z
	 M310.817,150.882l-0.03-0.072l0.046-0.11l0.018,0.044l0.015,0.015l0.017-0.01l0.026-0.032l0.029,0.013l0.022-0.001l0.026-0.007
	l0.032-0.005l0.093,0.001l0.023,0.052l-0.037,0.07l-0.089,0.057l-0.111,0.015L310.817,150.882z M313.855,166.031l-0.022-0.168
	l0.005-0.047l0.019-0.043l0.02-0.035l0.008-0.026l0.06-0.119l0.155,0.064l0.108,0.15l-0.08,0.137l0,0l-0.048,0.101l-0.091,0.04
	l-0.088-0.008L313.855,166.031z M314.9,164.422l-0.035-0.084l0.025-0.072l0.05-0.065l0.108-0.076l0.083,0.076l-0.011,0.05
	l-0.04,0.104l-0.115,0.049L314.9,164.422z M314.041,156.104l-0.195,0.181l-0.041,0.057l-0.127,0.115l-0.271,0.086l-0.207-0.009
	l0.065-0.17l0.055-0.068l0.133-0.077l0.056-0.046l0.102-0.127l0.056-0.049l0.083-0.048l-0.058-0.004l-0.101,0.042l-0.037-0.004
	l-0.019-0.041l0.033-0.033l0.141-0.061l0.147-0.036l0.023-0.016l0.071-0.069l0.049-0.026l-0.024,0.063l0.003,0.035l0.101,0.085
	l0.006,0.026l-0.007,0.036l0.002,0.069L314.041,156.104z M315.595,168.076l-0.025-0.129l0.011-0.117l0.043-0.169l0.154-0.067
	l0.155,0.063l0.044,0.214l-0.022,0.067l-0.051,0.104l-0.071,0.101l-0.079,0.057l-0.098-0.024L315.595,168.076z M314.665,156.548
	l-0.053-0.028l0.021-0.036l0.084-0.057l0.042-0.053l0.057-0.055l0.065-0.035l0.068,0.007l-0.032,0.098l-0.013,0.093l-0.023,0.006
	l-0.015-0.003l-0.033-0.019l-0.031,0.024l-0.045,0.03l-0.048,0.022L314.665,156.548z M315.956,162.858l-0.081-0.06l0.003-0.135
	l0.05-0.083l0.095-0.014l0.085,0.048l0.022,0.107l-0.07,0.112L315.956,162.858z M314.578,153.159l-0.039-0.002l-0.018-0.002
	l-0.021-0.009l0.033-0.045l-0.029-0.027l0.002-0.035l0.029-0.033l0.002-0.07l0.181-0.133l0.092-0.058l-0.062,0.083l-0.114,0.119
	l-0.048,0.123L314.578,153.159z M314.714,153.149l-0.048-0.076l0.081-0.075l0.083-0.052l0.192-0.126l0.161,0.017l0.093,0.107
	l0.035,0.022l0.033,0.072l-0.039,0.11l-0.112,0.079l-0.066,0.042l-0.069,0.029l-0.067,0.038l-0.077,0.007l-0.059-0.002l-0.057-0.017
	l-0.053-0.118L314.714,153.149z M315.327,154.322l-0.005-0.037l0.058-0.04l0.041-0.042l0.031-0.048l0.028-0.062l0.063-0.06
	l0.057-0.01l0.025,0.038l-0.03,0.075l-0.045,0.046l-0.152,0.106L315.327,154.322z M317.523,163.187l-0.026-0.094l0.058-0.098
	l0.09-0.037l0.078,0.028l0.02,0.1l-0.048,0.069l-0.09,0.043L317.523,163.187z M316.327,149.968l-0.06,0.033l-0.095,0.085
	l-0.065,0.019l-0.061-0.019l-0.144-0.093l-0.069-0.027l-0.021,0.063l-0.038,0.022l-0.044-0.01l-0.036-0.034l0.021,0.063l0.179,0.095
	l0.053,0.078l0.005,0.125l-0.023,0.118l-0.053,0.102l-0.086,0.084l-0.042,0.02l-0.062,0.003l-0.035,0.017l-0.007,0.022l-0.064,0.114
	l-0.016,0.019l-0.016,0.023l-0.11,0.254l0.001,0.053l0.009,0.054l-0.002,0.068l-0.049,0.107l-0.163,0.188l-0.033,0.048l0.004,0.114
	l-0.022,0.117l-0.053,0.11l-0.088,0.086l-0.125,0.041l-0.104-0.025l-0.093-0.038l-0.098-0.006l-0.05,0.005l-0.047-0.003
	l-0.044,0.004l-0.037,0.029l-0.027,0.049l-0.051,0.113l-0.021,0.031l-0.061,0.021l-0.058-0.001l-0.052,0.011l-0.037,0.061
	l0.033,0.056l-0.012,0.038l-0.038,0.006l-0.043-0.043l-0.016,0.068l-0.034,0.047l-0.052,0.02l-0.067-0.015l0.009-0.022l0.016-0.057
	l-0.023,0.018l-0.08,0.048l-0.061-0.15l-0.142,0.062l-0.144,0.137l-0.063,0.087l0.005,0.102l-0.021,0.05l-0.039,0.04l-0.053,0.071
	l-0.025,0.026l-0.022,0.008l-0.012,0.016l0.003,0.056l0.017,0.028l0.035,0.019l0.038,0.01l0.027,0.003l0.005,0.031l-0.04-0.002
	l-0.075-0.021l-0.035-0.003l-0.074,0.019l-0.047,0.017h-0.072l-0.076-0.03l-0.065-0.042l-0.042-0.038l-0.16-0.221l-0.139-0.088
	l0.104-0.03l-0.08-0.128l-0.02-0.059l0.092,0.036h0.021l0.044-0.042l0.004-0.024l-0.001-0.027l0.024-0.052l-0.001-0.052
	l-0.095-0.124l-0.031-0.059l-0.103,0.042l-0.078-0.07l-0.045-0.102l-0.003-0.056l0.077-0.016l0.029-0.002l0.015-0.013l0.064-0.106
	l0.017-0.05l0.003-0.053l-0.012-0.066l-0.021,0.02l-0.002,0.005l-0.008,0.017l-0.051-0.01l-0.033-0.02l-0.022-0.032l-0.017-0.046
	l0.013-0.001l0.021-0.023l0.02-0.033l0.006-0.031l-0.012-0.032l-0.032-0.055l-0.009-0.026l-0.022-0.036l-0.042-0.02l-0.042-0.027
	l-0.026-0.059l-0.013-0.063l-0.017-0.033l-0.024-0.021l-0.036-0.021l-0.035-0.01l-0.079-0.005l-0.035-0.013l-0.031-0.037
	l-0.053-0.093l-0.033-0.037l-0.188-0.098l-0.087-0.065l-0.035-0.087l-0.007-0.042l-0.038-0.021l0.084-0.143l-0.187-0.338
	l0.003-0.173l-0.008-0.077l0.002-0.034l0.019-0.042l-0.035-0.023l-0.045-0.051l-0.026-0.067l0.021-0.068l0.001-0.07l-0.055-0.063
	l-0.029-0.055l0.083-0.051l0.02-0.024l-0.017-0.034l-0.031-0.033l-0.025-0.019l-0.02-0.026l0.009-0.033l0.069-0.122l0.032-0.027
	l0.024-0.03l0.024-0.24l0.045-0.465l-0.003-0.136l0.014-0.153l0.082-0.311l-0.036-0.117l0.043-0.177l-0.002-0.063l-0.052-0.254
	l-0.001-0.051l0.015-0.063l0.024-0.043l0.026-0.035l0.017-0.034l0.031-0.387l0.045-0.179l0.144-0.164l-0.043-0.023l0.049-0.039
	l0.102-0.035l0.057-0.025l0.024-0.026l0.021-0.032l0.035-0.033l0.065-0.03l0.024-0.033l0.036-0.108l0.026-0.011l0.049,0.007
	l0.038-0.036l0.038-0.048l0.051-0.035l0.042,0.003l0.1,0.042l0.056,0.006l0.065-0.024l0.036-0.036l0.033-0.038l0.049-0.029
	l0.105,0.003l0.054,0.073l0.052,0.227l0.072,0.124l0.026,0.032l0.066,0.033l0.043-0.005l0.037-0.022l0.051-0.024l0.179-0.055
	l0.068-0.014l0.014,0.018l-0.009,0.038l-0.023,0.196l0.01,0.037l0.055,0.042l0.036-0.005l0.032-0.028l0.041-0.024l0.057-0.023
	l0.097-0.053l0.05-0.019l0.045-0.03l0.017-0.044l0.01-0.053l0.033-0.055l0.11-0.07l0.062,0.052l0.056,0.083l0.098,0.021l0.04,0.013
	l0.043,0.106l0.031,0.037l0.064,0.002l0.055-0.026l0.052-0.014l0.054,0.041l-0.055,0.078l0.023,0.046l0.061,0.006l0.057-0.043
	l0.082,0.015l0.073,0.025l0.03,0.041l-0.053,0.064l0.005,0.032l0.207,0.163l0.152,0.175l0.023,0.009l0.013,0.012l0.025-0.003
	l0.025,0.004l0.017,0.037v0.035l-0.007,0.041l-0.009,0.021l-0.009-0.016l-0.044-0.019l-0.088,0.044l-0.091,0.066l-0.049,0.046
	l0.036,0.022l0.061-0.051l0.058-0.038l0.058-0.019l0.069,0.001l0.034,0.031l0.119,0.145l0.017,0.027l-0.034,0.219l0.032,0.017
	l0.061-0.006l0.065,0.007l0.027,0.016l0.027,0.036l0.028,0.028l0.024,0.03l0.034,0.1l0.028,0.014l0.027,0.005l0.033,0.051
	l0.017,0.02l-0.01,0.021l-0.065,0.025l-0.057,0.012l-0.051,0.002l-0.049-0.009l-0.048-0.021l-0.009,0.089l0.052,0.057l0.076,0.044
	l0.066,0.055l-0.054,0.13l0.006,0.155l0.04,0.147l0.046,0.105l0.089,0.127l0.052,0.051l0.059,0.04l0.053,0.051l0.022,0.119
	l0.05,0.069l-0.001,0.173l0.06,0.182l0.113,0.126l0.154,0.005l-0.021,0.122l-0.044,0.159l-0.062,0.144L316.327,149.968z
	 M318.5,162.967l-0.037-0.034l0-0.053l0.043-0.051l0.094-0.022l0.039,0.043l-0.014,0.065l-0.061,0.05L318.5,162.967z
	 M316.027,144.001l-0.095,0.104l-0.013-0.034l-0.021-0.009l-0.024,0.001l-0.112-0.043l-0.073-0.05l-0.028-0.061l0.042-0.07
	l0.085-0.036l0.074,0.001l0.056-0.01l0.028-0.07l0.038-0.011l-0.032,0.152l0.014,0.063L316.027,144.001z M317.024,155.828
	l-0.125-0.107l0.025-0.045l0.302-0.084l0.082-0.034l0.071-0.046l0.064-0.057l0.071-0.003l0.069-0.023l0.059,0.023l0.058,0.199
	l0.02,0.044l0.003,0.044l-0.031,0.064l-0.031,0.007l-0.177,0.069l-0.133,0.027l-0.12-0.002l-0.108-0.024L317.024,155.828z
	 M318.505,163.735h-0.098l0.047-0.088l0.1-0.01l0.106,0.036l0.064,0.051l0.063-0.035l0.034,0.018l0.024,0.034l0.03,0.015
	l0.069-0.017l0.028-0.017l0.034-0.069l0.019-0.056l0.006-0.113l0.019-0.054l0.034-0.029l0.099-0.033l0.04-0.018l-0.02,0.076
	l-0.053,0.061l-0.042,0.07l0.008,0.104l-0.053,0.177l-0.04,0.09l-0.063,0.05l-0.176-0.033l-0.029-0.001l-0.045-0.084l-0.093-0.077
	L318.505,163.735z M317.033,144.476l-0.07-0.004l-0.053-0.029l-0.102-0.012l-0.126-0.125l-0.087,0.007l0.014-0.029l0.007-0.02
	l0.011-0.02l0.028-0.026l-0.038-0.041l-0.041-0.026l-0.051-0.005l-0.063,0.02l0.012-0.155L316.51,144l0.006,0.057l0.005,0.018
	l0.048-0.035l0.068-0.032l0.065-0.011l0.034,0.031l0.027,0.04l0.052,0.005l0.06-0.01l0.051,0.003l0.042,0.026l0.104,0.089
	l0.024,0.037l-0.022,0.012l-0.085,0.09l-0.021,0.031l0.005,0.033l0.037,0.009l0.15,0.008l-0.057,0.052L317.033,144.476z
	 M317.85,144.828l-0.035-0.029l0.025-0.024l0.041-0.05l0.092-0.096l0.052,0.016l0.081,0.105l0.076-0.061l0.035,0.058l0.006,0.107
	l-0.015,0.088l-0.145-0.124l-0.066-0.031l-0.025,0.077l-0.043-0.004l-0.041-0.014L317.85,144.828z M319.229,149.242l-0.001,0.063
	l0.023,0.142l-0.11,0.01l-0.053,0.045l-0.021-0.004l-0.012-0.138l-0.047-0.078l0.056-0.056l0.183-0.068l0.004,0.032L319.229,149.242
	z M319.293,157.947l-0.009-0.062l0.009-0.062l0.077-0.047l0.068-0.114l0.067-0.039l0.079,0.005l0.07,0.044l0.106,0.097l0.286,0.112
	l0.073,0.009l0.088,0.001l0.227,0.052l0.008,0.001l-0.909,0.245l-0.01-0.002l-0.058-0.019l-0.056-0.043l-0.056-0.06l-0.036-0.058
	L319.293,157.947z M320.124,158.703l-0.01-0.017l0-0.032l-0.023-0.041l-0.235-0.255l-0.156-0.123l-0.174-0.043l0,0l0.909-0.245l0,0
	l0.086,0.03l0.443,0.268l0.068,0.077l0.043,0.096l-0.01,0.071l-0.055,0.058l-0.139,0.085l-0.084,0.041l-0.054,0.018l-0.03,0.072
	l-0.032,0.056l-0.042,0.038l-0.043-0.016l-0.197-0.133l-0.098-0.025l-0.047-0.002L320.124,158.703z M318.585,145.1l-0.085-0.051
	l-0.097-0.015l0.016-0.058l0.01-0.023l-0.033-0.016l-0.033-0.031l-0.014-0.042l0.023-0.047l0.033-0.006l0.132-0.007l0.055-0.012
	l0.005,0.036l-0.054,0.084l0.061,0.084l0.226,0.136l0.228,0.18l0.124,0.039l0.109-0.098l0.008,0.103l-0.034,0.071l-0.069,0.036
	l-0.098-0.006l-0.061-0.021l-0.072-0.067l-0.048-0.004l-0.03-0.014L318.585,145.1z M321.054,157.348l-0.022-0.174l0.038,0.078
	l0.008,0.035l0.02,0.014l0.072-0.023l0.019,0.015l0.01,0.046l0.024,0.053l0.039,0.044l0.061,0.019l-0.105,0.034l-0.086-0.004
	l-0.057-0.046L321.054,157.348z M320.597,150.607l-0.06-0.02l-0.048-0.038l-0.03-0.065l-0.005-0.097l0.003-0.04l0.006-0.019
	l0.016-0.022l0.094,0.122l-0.022,0.053l-0.002,0.045l0.016,0.042L320.597,150.607z M321.695,157.604l-0.014-0.032l0.001-0.026
	l0.02-0.021l0.041-0.012l0.063-0.003l0.147,0.024l0.01,0.002l-0.14,0.038l-0.127,0.034L321.695,157.604z M321.697,157.608
	L321.697,157.608l0.263-0.071h0.001l0,0l0.078,0.023l0.112,0.11l0.057,0.015l0.026,0.035l0.084,0.183l0.019,0.07l-0.035,0.009
	l-0.016-0.045l-0.018-0.018l-0.02,0.011l-0.022,0.039l-0.038,0.01l-0.013-0.029l-0.013-0.019l-0.011-0.025l-0.01-0.043l-0.024-0.02
	l-0.051-0.007l-0.048,0.015l-0.017,0.05l-0.029,0.042l-0.077-0.047l-0.074-0.07L321.697,157.608z M322.329,154.148l-0.021-0.081
	l-0.002-0.091l0.018-0.089l0.036-0.01l0.022,0.176l-0.002,0.077l-0.016,0.073L322.329,154.148z M323.234,156.687l-0.044-0.031
	l-0.088-0.025l-0.043-0.025l-0.074-0.055l-0.046-0.025l-0.019,0.01l-0.029-0.033l-0.128-0.035l-0.313-0.126l-0.072-0.071
	l-0.112,0.031l-0.166-0.047l-0.153-0.09l-0.074-0.099l-0.048-0.103l-0.387-0.401l-0.033-0.024l-0.042-0.01l-0.076-0.007l-0.063,0.01
	l-0.082,0.023l-0.086,0.014l-0.078-0.019l-0.053-0.045l-0.1-0.108l-0.05-0.043l-0.035-0.016l-0.103-0.036l-0.023-0.024l-0.042-0.076
	l-0.024-0.022l-0.047,0.066l-0.087,0.042l-0.099,0.009l-0.083-0.03l-0.033,0.048l0.069,0.065l0.039,0.085l-0.004,0.09l-0.062,0.074
	l0.067,0.057l0.146,0.081l0.035,0.064l0.016,0.049l0.033,0.057l0.046,0.043l0.053,0.008l0.072,0.001l0.032,0.042l0.018,0.055
	l0.024,0.042l0.021,0.003l0.072-0.002l0.021,0.004l0.01,0.019l0.021,0.059l0.012,0.018l0.064,0.021l0.134,0.019l0.051,0.02
	l0.033,0.041l0.022,0.046l0.024,0.034l0.046,0.004l0.039,0.01l0.031,0.037l0.036,0.073l0.128,0.14l0.095,0.074l0.084,0.022
	l0.04,0.038l0.159,0.234l0.032,0.019l0.036,0.009l0.031,0.016l0.021,0.032l0.013,0.077l-0.02,0.021l-0.043,0.011l-0.115,0.09
	l-0.051-0.01l-0.043-0.026l-0.045-0.018l-0.155-0.021l-0.339-0.088l-0.025,0.003l-0.059,0.025l-0.024,0.002l-0.008-0.019
	l0.002-0.067l-0.009-0.02l-0.15-0.069l0.007,0.136l-0.048,0.103l-0.091,0.072l-0.116,0.046l0.015,0.067l-0.008,0.098l-0.04,0.084
	l-0.079,0.032l-0.042-0.041l0.005-0.081l0.039-0.169l-0.029,0.026l-0.076,0.059l-0.028,0.026l0.011-0.081l0.012-0.033l-0.065-0.058
	l0.017-0.068l0.063-0.046l0.073,0.002L320.574,157l0.021-0.081l0.063-0.069l-0.052-0.098l-0.008-0.111l0.01-0.103l-0.001-0.073
	l-0.027-0.044l-0.081-0.066l-0.022-0.055l-0.01-0.062l-0.018-0.046l-0.036-0.025l-0.063,0.001l0.045-0.038l0.018-0.012l-0.005-0.034
	l-0.111-0.025l-0.142-0.152l-0.104-0.048l0.068-0.109l-0.009-0.104l-0.077-0.2l-0.027-0.159l-0.032-0.084l-0.055-0.067l0.036-0.192
	l-0.012-0.144l-0.084-0.394l0.013,0.001l0.042,0.042l0.078,0.011l0.068,0.029l0.044,0.083l0.043,0.059l0.062-0.048l0.075-0.008
	l0.029-0.07l0.012-0.17l0.08-0.156l0.035-0.098l-0.026-0.032l-0.008-0.054l-0.199-0.349l-0.075-0.081l-0.145-0.118l-0.084,0.058
	l-0.075-0.01l-0.063-0.052l-0.046-0.064l0.021-0.167l-0.143-0.072l-0.385-0.021l0.096,0.107l0.019,0.055l-0.005,0.1l-0.068-0.032
	l-0.12-0.116l-0.061-0.038l-0.005-0.036l0.019-0.074l0.032-0.218l0.029-0.077l0.039-0.034l0.039-0.018l0.026-0.027l0.009-0.105
	l0.028-0.039l0.042-0.028l0.052-0.016l-0.004-0.035l-0.102,0.028l0.033-0.091l0.001-0.058l-0.024-0.045l-0.044-0.053l-0.207-0.156
	l-0.052-0.007l-0.205,0.005l-0.04-0.03l-0.031-0.04l-0.032-0.004l-0.042,0.083l-0.146-0.147l-0.022-0.008l-0.031-0.145l-0.001-0.069
	l0.024-0.089l0.057-0.088l0.134-0.098l0.161-0.085l0.138-0.054l0.094-0.081l0.083-0.129l0.109-0.102l0.165,0.001l0.022-0.12
	l0.029-0.056l0.066-0.04l-0.197-0.274l-0.046-0.142l0.088-0.165l0.015,0.021l0.005-0.001l0.02,0.005l0.04-0.072l0.058-0.027
	l0.034,0.014l-0.024,0.055l0.004,0.036l0.097-0.042l0.094,0.026l0.16,0.135l-0.105,0.031l0.048,0.03l0.062,0.004l0.037,0.015
	l-0.022,0.064l0.083,0.002l0.132,0.03l0.083-0.007l-0.07-0.096l-0.004-0.075l0.049-0.067l0.092-0.074l0.098,0.175l0.011,0.05
	l-0.02,0.045l-0.075,0.084l-0.029,0.048l-0.009,0.059v0.167l-0.074,0.186l-0.002,0.054l0.022,0.064l0.025,0.019l0.032,0.004
	l0.044,0.021l0.279,0.218l0.043,0.069l-0.044,0.062l-0.148,0.06l0.039,0.059l0.04,0.007l0.127-0.054l0.059,0.006l0.231,0.097
	l-0.026,0.017l-0.043,0.035l-0.034,0.015l0.031,0.034l0.028,0.016l0.039-0.002l0.053-0.017l0.005,0.035l-0.058,0.072l0.055,0.044
	l0.093,0.037l0.053,0.043l0.035,0.047l0.063-0.035l0.074-0.061l0.07-0.038l-0.008,0.025l-0.01,0.064l-0.007,0.027l0.096,0.001
	l0.01,0.047l-0.028,0.057l-0.02,0.026l0.024,0.075l0.063,0.129l0.061,0.23l0.128,0.243l0.054,0.146l0.013,0.161l0.014,0.049
	l0.02,0.008l0.079,0.019l0.023,0.011l0.019,0.036l0.028,0.085l0.021,0.025l0.016,0.091l-0.02,0.162l0.002,0.151l0.08,0.062
	L321.939,154l0.026,0.04l0.058,0.026l0.038,0.057l-0.011,0.04l-0.066,0.053l-0.011,0.043l0.009,0.042l0.009,0.021l0.004,0.021
	l-0.006,0.039l0.076-0.03l0.069-0.052l0.052-0.064l0.028-0.062l0.057,0.039l0.026,0.052v0.058l-0.019,0.055h0.091l0.099,0.02
	l0.053,0.047l-0.041,0.09l0.095,0.011l0.082-0.013l0.07,0.004l0.055,0.064l0.009,0.186l0.039,0.064l0.081-0.104l0.008,0.067
	l-0.025,0.056l-0.046,0.046l-0.059,0.045l0.188-0.005l0.071,0.006l-0.06,0.042l-0.023,0.055l-0.012,0.062l-0.027,0.06l0.051,0.032
	l0.01,0.037l-0.026,0.038l-0.052,0.042l0.081-0.021l0.031,0.012l0.006,0.031l-0.001,0.037l0.022,0.027l0.039,0.003l0.038-0.007
	l0.016-0.005l0.001,0.036l-0.01,0.025l-0.011,0.02l-0.004,0.021l0.005,0.1l0.02,0.04l0.05,0.003l0.036,0.018l0.066,0.111
	l0.105,0.129l-0.074,0.052l-0.118,0.043l-0.055,0.059l0.032,0.055l0.111,0.083l0.026,0.069l-0.01,0.06l-0.028,0.018l-0.034-0.017
	l-0.03-0.032l-0.013,0.061l0.008,0.057l-0.012,0.03l0.085,0.042l0.165,0.142l0.051,0.025l0.207,0.327l0.01,0.081v0.006l-0.103,0.027
	l-0.005-0.004l-0.321-0.235l-0.021-0.037l-0.016-0.089L323.234,156.687z M323.615,157.092L323.615,157.092l0.106-0.028l0,0l0,0
	l0.065,0.048l0.046,0.063l0.073,0.163l-0.115-0.022l-0.073-0.05l-0.053-0.077L323.615,157.092z M341.562,135.695l-0.021,0.096
	l0.022,0.2l-0.021,0.085l-0.084,0.051l-0.063-0.07l-0.042-0.117l-0.014-0.098l0.019-0.085l0.009-0.096l-0.003-0.095l-0.023-0.083
	l0.08-0.053l0.028-0.013l-0.013,0.091l0.02,0.063L341.562,135.695z"/></svg>