<?xml version="1.0" encoding="utf-8"?>
<!-- Generator: Adobe Illustrator 15.0.0, SVG Export Plug-In . SVG Version: 6.00 Build 0)  -->
<!DOCTYPE svg PUBLIC "-//W3C//DTD SVG 1.1//EN" "http://www.w3.org/Graphics/SVG/1.1/DTD/svg11.dtd">
<svg version="1.1" id="Ebene_1" xmlns="http://www.w3.org/2000/svg" xmlns:xlink="http://www.w3.org/1999/xlink" x="0px" y="0px"
	 width="1920px" height="1080px" viewBox="0 0 1920 1080" enable-background="new 0 0 1920 1080" xml:space="preserve">

<path fill="#F4E0B6" stroke="#FFFFFF" d="M724.92,693.935l0.062,0.093l0.111,0.052l0.121,0.08l-0.008,0.11l-0.039,0.083
	l-0.046,0.104l0.018,0.089l0.045,0.063l0.042,0.087l-0.033,0.071l-0.059,0.067l-0.068-0.003l-0.054-0.072l-0.054-0.145l0.015-0.115
	l-0.016-0.102l-0.114-0.064l-0.15-0.074l-0.125-0.108l-0.043-0.127l-0.035-0.084l-0.064-0.099l-0.074-0.053l-0.1-0.135l0.043-0.039
	l0.079,0.062l0.15,0.12l0.161,0.08l0.131-0.01L724.92,693.935z M726.579,694.893l-0.113,0.082l-0.12-0.003l-0.064-0.114l-0.04,0.063
	l0.001,0.083l-0.017,0.055l-0.385-0.146l-0.425-0.295l-0.162-0.081l0.103-0.082l0.108-0.067l0.113-0.024l0.122,0.04l0.073,0.081
	l0.068,0.201l0.068,0.097l-0.008-0.106l-0.005-0.011l0.03-0.033l0.034-0.017l0.029-0.007l0.018-0.012l0.194-0.078l0.06,0.008
	l0.282,0.132l0.021,0.019l0.018,0.022l0.008,0.017l0.013,0.02l0.029,0.024L726.579,694.893z M728.191,695.07l0.037,0.063
	l0.131,0.069l0.091,0.071l-0.003,0.077l-0.057,0.073l-0.084,0.063l-0.069-0.017l-0.076-0.049l-0.078-0.091L728,695.278l-0.095-0.022
	l-0.095-0.049l-0.087-0.054l-0.078-0.001l-0.078-0.045l-0.071-0.051l0.016-0.048l0.087-0.042l0.092-0.062l0.112-0.074l0.107-0.07
	l0.068,0.028l0.082,0.029l0.085-0.03l0.097-0.009l0.09-0.032l0.045-0.006l0.009,0.025l-0.049,0.042l-0.089,0.064l-0.051,0.097
	L728.191,695.07z M728.45,694.063l-0.07,0.035l0.004,0.055l0.045,0.057l-0.027,0.097l-0.018,0.06l0.023,0.091l-0.005,0.136
	l-0.082,0.022l-0.144,0.016l-0.107-0.047l-0.138,0.039l-0.124,0.096l-0.119,0.065l-0.086,0.084l-0.14,0.055l-0.114,0.021
	l-0.166-0.077l-0.141-0.107l-0.125-0.038l-0.103-0.026l-0.119-0.131l-0.216-0.116l-0.179-0.068l-0.102,0.007l-0.111,0.022
	l-0.071,0.009l-0.059,0.004l-0.074-0.036l-0.007-0.058l0.063-0.093l0.045-0.061l0.073-0.118l0.102-0.166l0.109-0.082l0.206-0.097
	l0.188-0.037l0.196-0.007l0.145,0.019l0.176,0.021l0.106,0.038l0.103,0.036l0.209,0.082l0.107,0.018l0.091-0.055l0.075-0.037
	l0.127,0.071l0.224,0.126l0.122-0.012l0.124,0.013L728.45,694.063z M726.899,693.505l-0.114-0.028l0.339-0.063l0.121-0.04
	l0.267-0.159l0.132-0.132l0.067-0.022l0.072-0.01l0.071-0.018l0.042-0.041l0.017-0.046l0.029-0.038l0.079-0.017l0.107,0.029
	l0.079,0.077l0.054,0.106l0.033,0.113l-0.102-0.022l-0.027-0.012l0.003,0.147l-0.134,0.107l-0.179,0.066l-0.252,0.048
	L726.899,693.505z M728.396,692.847l-0.035,0.027l0.019-0.034l-0.076,0.065l-0.058,0.019l-0.063-0.022l-0.09-0.051l-0.08-0.016
	l-0.095,0.016l-0.546,0.172l-0.043,0.03l-0.076,0.081l-0.043,0.026l-0.186,0.012l-0.042-0.008l-0.021-0.074l0.064-0.084l0.096-0.09
	l0.072-0.082l0.078-0.055l0.113,0.01l0.121,0.032l0.102,0.011l0.123-0.045l0.274-0.139l0.09-0.008l0.108,0.048l0.272,0.039
	l-0.024,0.045l-0.025,0.04L728.396,692.847z M728.507,692.561l-0.084,0.049l0.016-0.029l-0.114,0.047l-0.25-0.038l-0.123,0.011
	l0.159-0.124l0.089-0.154l0.093-0.119l0.175-0.031l0.171,0.038l0.076,0.046l0.005,0.076l-0.058,0.087l-0.074,0.077L728.507,692.561z
	 M729.234,692.554l-0.058-0.003l-0.059-0.028l-0.065-0.046l-0.16,0.017l-0.069,0.052l-0.076,0.074l-0.089,0.05l-0.104-0.022
	l0.099-0.104l0.147-0.198l0.091-0.062l0.091-0.02l0.122-0.002l0.099,0.045l0.023,0.118l0.002,0.029l-0.003,0.062L729.234,692.554z
	 M724.309,685.671l-0.068,0.071l-0.049-0.038l0.022-0.149l0.058-0.121l0.05-0.071l0.048-0.036l0.032,0.022l0.009,0.023l0.008,0.068
	l-0.036,0.129L724.309,685.671z M724.289,684.952l-0.066-0.005l-0.023-0.074l0.017-0.099l0.049-0.173l0.032-0.063l0.045,0.01
	l0.01,0.092l-0.022,0.163l0.018,0.023v0.064L724.289,684.952z M724.758,685.156l-0.05-0.003l0.03-0.062l0.12-0.101l0.129-0.052
	l0.093,0.008l0.034,0.022l0.003,0.047l-0.02,0.087l-0.056,0.056l-0.067,0.025l-0.076,0.014l-0.077-0.017L724.758,685.156z
	 M724.046,682.793l-0.024-0.012l0.029-0.055l0.009-0.054l-0.031-0.104l-0.006-0.058l-0.027-0.121l-0.068-0.178l-0.075-0.143
	l-0.027-0.128l0.022-0.095l0.053-0.081l0.021-0.027l0.048-0.049l0.04-0.022l0.017,0.01l0.04,0.219l0.019,0.209l0.08,0.417
	l0.012,0.044l-0.002,0.092l-0.055,0.084L724.046,682.793z M720.03,677.932l-0.112-0.054l-0.06-0.097l0.048-0.079l-0.102-0.073
	l-0.045-0.051l-0.015-0.052l0.03-0.06l0.053-0.034l0.063-0.01l0.055,0.016l0.056,0.088l0.092,0.108l0.066,0.119l-0.021,0.124
	L720.03,677.932z M719.126,676.855l0.07,0.048l0.017,0.003l0.029,0.035l-0.018,0.067l-0.109,0.014l-0.116-0.054l-0.052-0.086
	l0.048-0.061l0.076,0.007L719.126,676.855z M715.183,673.82l0.067,0.043l0.033,0.018l0.033,0.021l0.002,0.026l-0.061,0.027
	l0.003,0.13l-0.048,0.056l-0.09,0.008l-0.121-0.013l0.041-0.035l0.021-0.01l-0.104-0.017l-0.078-0.035l-0.156-0.1l-0.068-0.068
	l-0.05-0.086l-0.055-0.065l-0.078-0.013l-0.045-0.142l0.102-0.085l0.148-0.021l0.094,0.047l0.126,0.011l0.092,0.061l0.156,0.21
	L715.183,673.82z M721.181,676.988l-0.046,0.139l-0.112-0.104l-0.016,0.03l-0.038,0.061l-0.016,0.031l-0.032-0.083l-0.027-0.035
	l-0.026,0.009l-0.029,0.022l-0.139,0.04l-0.241,0.179l-0.21-0.177l-0.093-0.035l-0.326-0.051l-0.098,0.012l0.087-0.128l-0.061-0.059
	l-0.088-0.051l0.014-0.218l-0.048-0.118l-0.063-0.11l-0.03-0.087l-0.17,0.042l-0.1-0.026l-0.276-0.208l-0.014-0.022l-0.01-0.02
	L718.956,676l-0.107-0.057l-0.034-0.024l-0.139-0.153l-0.075-0.052l0.235-0.181l0.046-0.049l0.063-0.09l0.055-0.023l0.063,0.026
	l0.09,0.055l0.049,0.016l0.041,0.001l0.08-0.021l0.051,0.008l0.064,0.08l0.138,0.013l0.107,0.041l0.078,0.066l0.002,0.086
	l-0.034,0.058l-0.033,0.068l-0.004,0.071l0.111,0.126l0.089,0.192l0.07,0.072l0.155,0.114l0.083,0.015l0.108-0.055l0.035-0.043
	l0.07-0.143l0.048-0.025l0.088-0.02l0.042-0.018l0.044-0.039l0.019-0.036l0.024-0.029l0.059-0.02l0.042,0.008l0.096,0.047
	l0.046,0.01l0.09-0.022l0.179-0.081l0.089-0.016l-0.031,0.09l0.024,0.071l0.034,0.061v0.057l-0.039,0.1l-0.036,0.203l-0.031,0.088
	L721.181,676.988z M711,666.6l-0.04-0.012l-0.05-0.012l-0.09-0.06l-0.003-0.026l0.08,0.059l0.065,0.028l0.024,0.006l0.017,0.005
	l0.303,0.031l0.071,0.009l0.031,0.015l-0.002,0.008l-0.241-0.024l-0.03,0.007L711,666.6z M711.885,666.928l0.061,0.037l0.021,0.01
	l-0.116,0.027l-0.156-0.058l-0.137-0.11L711.5,666.7l0.103,0.104l0.104,0.035l0.117-0.025l0.142-0.084l0.018,0.051l-0.009,0.059
	l-0.033,0.054L711.885,666.928z M713.995,667.905l0.005,0.042l-0.044,0.091l-0.103,0.058l-0.113-0.077l-0.085-0.14l-0.025-0.138
	l0.073,0.01l0.075,0.033l0.117,0.073L713.995,667.905z M711.299,666.045l0.317,0.204l0.071,0.038l0.009,0.022l-0.107-0.048
	l-0.014-0.011l-0.062-0.016l-0.06-0.056l-0.037-0.021l-0.021-0.026l-0.115-0.086L711.299,666.045z M720.219,671.521l-0.059,0.009
	l-0.167-0.104l-0.084-0.074l-0.058-0.081l0.032-0.03l0.012-0.007l0.004-0.014l0.006-0.044l0.079-0.015l0.138-0.086l0.073-0.018
	l0.033,0.059l0.065,0.184l-0.003,0.062l-0.025,0.088L720.219,671.521z M708.305,663.642l-0.038-0.013l-0.07-0.062l-0.021-0.034
	l0.006-0.021l0.021-0.009l0.016,0.017l0.006,0.029l0.012,0.022l0.034,0.027L708.305,663.642z M708.269,663.333l-0.013,0.012
	l-0.003-0.006L708.269,663.333z M708.278,663.342l-0.003,0.003l0-0.006l0.007-0.009L708.278,663.342z M708.34,663.255l-0.016,0.016
	l0.002-0.012l0.009-0.019L708.34,663.255z M708.355,663.174l-0.004,0.007l-0.008-0.015L708.355,663.174z M708.343,663.143
	l-0.006,0.007l0.003-0.018L708.343,663.143z M699.499,658.67l-0.238,0.377l-0.09,0.202l-0.235,0.895l-0.071,0.516l0.019,0.268
	l0.085,0.232l0.126,0.105l0.144-0.008l0.161-0.024l0.177,0.045l0.301,0.26l0.151,0.102l0.206,0.033l0.162-0.012l0.086,0.012
	l0.09,0.036l0.031,0.038l0.042,0.112l0.033,0.039l0.14,0.073l0.036,0.03l0.186,0.268l0.053,0.022l-0.007,0.059l0.021,0.084
	l0.035,0.081l0.034,0.055l0.148,0.134l0.646,0.346l0.061,0.068l0.029,0.089l0.035,0.233l0.039,0.109l0.055,0.106l0.103,0.136
	l0.054,0.055l0.052,0.038l0.037-0.007l0.012,0.027l0.065,0.103l0.001,0.045l-0.008,0.104l0.047,0.142l0.193,0.349l0.047,0.124
	l0.024,0.116l-0.011,0.084l0.007,0.068l0.188,0.28l0.047-0.031l0.019-0.015l0.021-0.031l0.03,0.019l-0.005,0.033l0,0.091
	l-0.018,0.027l-0.082,0.065l-0.034,0.136l0.001,0.345l-0.08,0.673l-0.038,0.146l-0.07,0.035l-0.019-0.038l-0.015-0.067l-0.028-0.072
	l-0.057-0.057l-0.059-0.018l-0.062-0.006l-0.058,0.006l-0.046,0.01l0.11,0.119l0.305,0.224l0.046,0.139l-0.098,0.06l-0.088-0.005
	L702.539,667l-0.084,0.002l-0.076,0.074l-0.061,0.102l-0.118,0.306l-0.116,0.465l-0.011,0.138l-0.02,0.227l-0.009,0.097l0.018,0.264
	l0.063,0.242l0.125,0.171l0.501,0.293l0.061,0.06l0.067,0.104l0.075,0.091l0.078,0.025l0.079,0.002l0.08,0.024l0.047,0.032
	l0.02,0.033l-0.006,0.041l-0.02,0.036l-0.01,0.021l0.001,0.029l0.05-0.015l0.057-0.027l0.023-0.016l0.161,0.013l0.186,0.059
	l0.564,0.271l0.405,0.103l0.349,0.17l0.375,0.166l0.285,0.126l0.326,0.212l0.323,0.133l0.312,0.003l0.179,0.057l0.199,0.029
	l0.099,0.037l0.508,0.309l0.469,0.216l0.988,0.496l0.456,0.278l0.039,0.039l0.028,0.061l0.194,0.172l0.067,0.038l0.075-0.013
	l0.086-0.032l0.092-0.022l0.093,0.02l0.087,0.074l0.164,0.286l0.227,0.224l0.035,0.128l0.174,0.135l0.04,0.039l-0.068,0.046
	l-0.127,0.009l-0.128-0.027l-0.072-0.054l-0.028,0.054l-0.071,0.106l-0.008,0.051l0.041,0.215l0.152,0.442l0.004,0.062l0.083,0.169
	v0.167l0.176,0.358l-0.06-0.03l-0.049-0.045l-0.034-0.051l-0.015-0.048l-0.048,0.009l-0.046,0.019l0.012,0.175l0.123,0.035
	l0.063,0.13l0.075,0.279l0.08,0.099l0.099,0.083l0.23,0.143l-0.07-0.158l-0.294-0.429l-0.011-0.178l0.842,1.247l0.398,0.452
	l0.12,0.105l0.418,0.368l0.505,0.448l0.111,0.193l0.128,0.13l0.035,0.048l-0.019,0.031l-0.245-0.29l-0.071-0.064l-0.003,0.087
	l0.045,0.092l0.067,0.083l0.169,0.12l0.046,0.019l0.047,0.009h0.092l0.14,0.042l0.206-0.018l0.092,0.005l0.088,0.036l0.199,0.175
	l0.291,0.196l0.167,0.065l0.159-0.01l0.083-0.037l0.074-0.049l0.143-0.141l0.042-0.071l0.047-0.13l0.056-0.053l0.009,0.06
	l0.027,0.046l0.041,0.033l0.053,0.022l-0.056,0.027l-0.022,0.001l-0.041-0.013l0.01,0.089l0.075,0.036l0.066-0.02l-0.017-0.074
	l0.068-0.01l0.191-0.091l0.066,0.023l0.143,0.022l0.068,0.03l-0.029,0.025l-0.015,0.01l-0.022,0.01l0.026,0.006l0.042,0.014h0.031
	l-0.002,0.072l0.028,0.008l0.043-0.017l0.021,0.001l0.025,0.002l0.036,0.036l0.065,0.094l0.03,0.028l0.112,0.016l0.187-0.061
	l0.15,0.036h0.1l0.029,0.005l0.044-0.005l0.025-0.043l-0.005-0.044l-0.143-0.007l-0.091-0.062l-0.071-0.086l-0.036-0.081
	l0.053-0.027l0.038,0.03l0.035,0.054l0.042,0.04l0.061,0.013l0.12-0.008l0.071,0.015l0.022-0.065l0.014-0.021l0.035-0.037
	l-0.09-0.052l0.02-0.034l0.107,0.015l0.031,0.042l-0.019,0.063l-0.04,0.076l-0.029,0.077l0.03,0.015l0.064-0.026l0.074-0.049
	l0.071-0.119l0.205,0.021l0.247,0.061l0.199-0.003l0.076-0.055l0.053-0.05l0.061-0.02l0.102,0.039l0.088,0.055l0.058,0.049
	l0.042,0.05l0.127,0.198l0.063,0.064l0.091,0.063l0.1,0.048l0.285,0.087l0.078,0.051l0.133,0.142l0.076,0.059l0.181,0.094
	l0.641,0.172l0.154-0.001l-0.087-0.064l-0.109-0.054l-0.101-0.071l-0.063-0.12l-0.038-0.104l-0.146-0.231l-0.081-0.085l-0.212-0.128
	l-0.09-0.071l-0.059-0.113l-0.062-0.083l-0.11-0.061l-0.24-0.072l0.033-0.012l0.074-0.049l-0.061-0.03l-0.058,0.004l-0.053,0.016
	l-0.046,0.008l-0.063-0.018l-0.268-0.188l-0.062-0.02l-0.17,0.012l-0.038-0.003l-0.049,0.004l-0.097,0.087l-0.052,0.002
	l-0.048-0.061l0.005-0.074l0.031-0.073l0.03-0.052l0.014-0.11l-0.019-0.136l-0.001-0.122l0.067-0.071l0.059-0.002l0.047-0.015
	l0.039-0.032l0.034-0.058l0.025,0.014l-0.006,0.104l0.034,0.073l0.159,0.142l0.039,0.047l0.074,0.125l0.044,0.042l0.061,0.02
	l0.312,0.009l0.048,0.01l0.059,0.026l0.021,0.022l0.002,0.029l-0.001,0.027l0.011,0.026l0.388,0.216l0.07,0.087l0.078,0.001
	l0.179,0.053l0.075,0.009l0.066-0.023l0.072-0.047l0.069-0.065l0.062-0.081l0.03,0.017l-0.007,0.132l0.038,0.113l0.071,0.103
	l0.36,0.353l0.375,0.287l0.093,0.044l0.237-0.027l0.123,0.012l0.046,0.081l0.028,0.016l0.047-0.052l0.039,0.016l0.04,0.047
	l0.045,0.042l0.033-0.007l0.077-0.081l0.046-0.025l0.009,0.047l0.018,0.033l0.028,0.016l0.04-0.005l0.009,0.047l-0.041,0.014
	l0.064,0.083l0.065-0.041l0.054,0.038l0.049,0.07l0.054,0.059l0.012-0.017l0.037-0.021l0.044-0.001l0.034,0.047l0.031,0.034
	l0.054,0.003l0.401-0.051l0.047,0.007v0.031l-0.012,0.05l0.002,0.057l0.038,0.048l0.047,0.024l0.043,0.018l0.046,0.001l0.054-0.022
	l0.056,0.064l0.292,0.133l0.083,0.067l0.126,0.16l0.086,0.072l0.105,0.042l0.206,0.025l0.159,0.055l0.534,0.081l0.062,0.024
	l0.063,0.106l0.041,0.037l0.048,0.032l0.075,0.069l0.39,0.23l0.526,0.45l0.293,0.23l0.168,0.131l0.289,0.177l0.102,0.118l0.068,0.04
	l0.064,0.003l0.154-0.021l0.062,0.012l0.271,0.15l0.135,0.04l0.138-0.012l0.017,0.08l0.131,0.022l0.011,0.07l0.092-0.011
	l0.131,0.019l0.124,0.044l0.068,0.062l-0.084-0.003l-0.088,0.016l-0.071,0.052l-0.035,0.107l-0.041,0.016l-0.019-0.073l-0.054,0.009
	l-0.078,0.026l-0.096-0.016h-0.02l-0.074,0.012l-0.04-0.004l-0.049-0.025l-0.035-0.031l-0.04-0.017l-0.064,0.011l-0.274-0.113
	l-0.107-0.02l-0.323-0.248l-0.279-0.13l-0.066-0.004l-0.082,0.032l-0.379,0.217l-0.131,0.032l-0.082-0.059l-0.063-0.112l-0.08-0.041
	l-0.096-0.018l-0.104-0.041l-0.041-0.038l-0.057-0.084l-0.038-0.039l-0.039-0.02l-0.081-0.017l-0.051-0.021l-0.079-0.059
	l-0.221-0.231l-0.217-0.148l-1.029-0.404l-0.13-0.034l-0.079,0.03l-0.082,0.05l-0.144,0.032l-0.145,0.014l-0.085-0.004l-0.018,0.032
	l0.155,0.015l0.342-0.084l0.172-0.009l0.157,0.074l0.015,0.129l-0.061,0.142l-0.069,0.116l-0.054,0.158l-0.042,0.093l-0.04,0.027
	l-0.037-0.014l-0.077-0.013l-0.028-0.013l-0.025-0.039l-0.028-0.097l-0.024-0.032l-0.264-0.168l-0.146-0.039l-0.094,0.087
	l0.04-0.008l0.109,0.009l-0.04,0.125l-0.004,0.059l0.02,0.052l-0.064,0.006l-0.116,0.055l-0.073,0.003l0.044,0.099l-0.036,0.045
	l-0.078,0.024l-0.08,0.037l0.245,0.122l0.078-0.001l0.063-0.071l0.017-0.23l0.076-0.087l-0.028-0.062l0.018-0.063l0.048-0.051
	l0.066-0.016l0.074,0.04l0.047,0.078l0.048,0.187l0.058-0.012l0.046,0.01l0.044,0.02l0.053,0.015l0.172-0.012l0.033,0.003
	l0.063,0.054l0.063,0.078l0.05,0.08l0.022,0.063l-0.007,0.045l-0.04,0.083l-0.01,0.05l0.006,0.054l0.058,0.127l0.022,0.094
	l0.007,0.084l-0.019,0.09l-0.053,0.108l-0.103,0.12l-0.029,0.054l-0.01,0.133l-0.014,0.043l0.006,0.022l0.022,0.031l0.017,0.04
	l-0.021,0.093l-0.007,0.103l-0.005,0.032l-0.058,0.065l-0.092,0.057l-0.097,0.033l-0.076-0.007l-0.049-0.021l-0.092-0.023
	l-0.044-0.019l-0.048-0.039l-0.02-0.038l-0.008-0.033l-0.014-0.028l-0.059-0.053l-0.074-0.039l-0.076-0.006l-0.061,0.053
	l-0.032,0.037l-0.043,0.021l-0.046,0.007l-0.042-0.011l-0.01-0.031l0.028-0.101l0.006-0.042l-0.045-0.071l-0.149,0.001l-0.055-0.05
	l0.009-0.039l0.033-0.043l0.027-0.046l-0.013-0.048l-0.039-0.022h-0.051l-0.053,0.016l-0.045,0.02l0.012-0.055l-0.006-0.049
	l-0.021-0.043l-0.032-0.041l-0.094,0.021l-0.05-0.019l-0.098-0.098l0.003,0.037l0.001,0.027l0.021,0.099l0.032,0.077l0.035-0.001
	l0.041-0.034l0.053-0.005l0.038,0.021l-0.003,0.048l-0.111,0.243l-0.02,0.119l0.062,0.038l-0.01-0.097l0.039-0.05l0.047-0.045
	l0.01-0.071l0.014-0.028l0.039-0.036l0.045-0.024l0.034,0.014l0.003,0.041l-0.062,0.063l-0.007,0.049l0.042,0.075l0.066,0.017h0.074
	l0.064,0.028l0.034,0.062l0.015,0.069l0.03,0.065l0.082,0.058l-0.114,0.09l0.017,0.056l0.078,0.007l0.076-0.056l0.044-0.178
	l0.056-0.079l0.102,0.019l0.017,0.033l0.029,0.126l0.03,0.05l0.049,0.03l0.251,0.066l0.132-0.006l0.131-0.032l0.095-0.061
	l0.062-0.104l0.041-0.235l0.034-0.104l0.1-0.115l0.088,0.01l0.074,0.081l0.062,0.103l0.092,0.23l0.012,0.203l-0.105,0.443
	l-0.008,0.101l0.007,0.096l-0.007,0.094l-0.05,0.092l-0.001,0.124l-0.021,0.069l-0.053,0.054l-0.099,0.072l0.073,0.045l0.039,0.073
	l0.017,0.085l0.013,0.171l-0.032,0.589l-0.02,0.094l-0.048,0.074l-0.059,0.061l-0.045,0.064l-0.001,0.018l-0.005,0.074l0.184-0.062
	l0.169-0.109l0.306-0.293l0.09-0.146l0.09-0.333l0.095-0.17l0.039,0.105l0.016,0.146l-0.026,0.416l-0.028,0.116l-0.347,0.67
	l-0.155,0.169l-0.179,0.052l0.168,0.027l0.164-0.111l0.145-0.188l0.289-0.595l0.034-0.124l0.009-0.229l0.023-0.116l0.223,0.169
	l0.061,0.062v0.066l-0.017,0.076l0.006,0.081l0.032,0.045l0.114,0.109l0.076,0.053l0.035,0.019l0.015-0.014l-0.019-0.069
	l-0.026-0.04l-0.102-0.108l-0.049-0.039l0.008-0.026l-0.046-0.206l-0.046-0.074l-0.044-0.049l-0.243-0.146l-0.039-0.058
	l-0.025-0.106l0.106-0.062l0.07-0.064l0.068-0.025l0.055-0.001l0.297,0.302l0.154,0.208l0.097,0.179l0.219,0.599l0.035,0.114
	l0.022,0.26l0.069,0.161l0.039,0.095l-0.031,0.064l-0.008,0.041l0.022,0.094l-0.005,0.056l-0.033,0.044l-0.117,0.114l-0.171,0.128
	l-0.07,0.088l0.028,0.017l0.253-0.197l0.197-0.224l0.066,0.049l0.009,0.13l-0.012,0.146l0.005,0.092l-0.071,0.078l-0.188,0.406
	l0.088-0.073l0.072-0.097l0.112-0.203l0.023-0.057l0.007-0.052l-0.004-0.047l-0.01-0.045l0-0.066l0.038-0.118l0.005-0.062
	l-0.019-0.035l-0.069-0.068l-0.021-0.041l0.011-0.033l-0.014-0.141v-0.063l0.01-0.042l-0.002-0.041l0.045,0.01l0.122,0.063
	l0.138,0.123l0.26,0.296l0.046,0.033l0.251,0.235l0.109-0.016l0.018-0.077l-0.02-0.094l-0.009-0.092l-0.023-0.031l-0.018-0.038
	l-0.043-0.09l0.013-0.039l0.01-0.042l-0.051-0.049l-0.027-0.085l0.003-0.067l0.033-0.005l0.114,0.073l0.03,0.042l0.046,0.07
	l0.081,0.137l0.103,0.213l0.083,0.177l0.081,0.192l0.016,0.119l0.042,0.313l0.049-0.142l-0.024-0.2l0.018-0.1l-0.096-0.122
	l-0.023-0.11l0.021-0.004l0.031,0.091l0.05,0.048l0.073,0.052l0.037,0.062l0.015,0.077l0.037,0.201l0.026,0.113l0.031,0.103
	l0.023,0.112l0.022,0.13l0.027,0.079l0.042,0.117l0.103,0.287l0.048,0.13l-0.035,0.173l0.025,0.158l0.074,0.004l-0.016-0.134
	l0.101,0.054l0.145,0.275l0.103-0.009l0.019,0.031l0.165,0.071l0.057,0.045l0.107,0.172l0.131,0.155l0.041,0.09l-0.02,0.096
	l-0.025-0.021l-0.006-0.021l0.008-0.054l-0.09,0.151l-0.011,0.042l0.015,0.049l0.031,0.013h0.041l0.043,0.012l0.061,0.056
	l0.064,0.093l0.056,0.107l0.038,0.1l0.012,0.067l0.012,0.136l0.025,0.104l0.002,0.029l-0.005,0.028l-0.015,0.03l0.005,0.019
	l0.045,0.046l0.01,0.032l-0.015,0.116l-0.042,0.135l-0.069,0.116l-0.098,0.062l0.014-0.045v-0.027l-0.015-0.06l-0.058,0.057
	l-0.047,0.071l-0.051,0.052l-0.069-0.006l-0.073-0.021l-0.13,0.014l-0.047-0.007l-0.051-0.022l-0.059-0.014l-0.059-0.006
	l-0.049,0.004l-0.054,0.037l-0.035,0.02l-0.032-0.003l-0.008,0.003l-0.112-0.024l-0.364,0.122l-0.116-0.016l-0.114,0.016l-0.153,0.1
	l-0.265,0.229l0.074,0.006l0.086-0.028l0.077-0.046l0.046-0.052l0.042-0.029l0.526-0.153l0.141-0.014l-0.027,0.093l-0.045,0.036
	l-0.101,0.036l-0.054,0.026l-0.034,0.035l-0.069,0.097l-0.035,0.027l-0.047,0.021l-0.031,0.031l-0.049,0.089l-0.042,0.037
	l-0.058,0.003l-0.058-0.011h-0.046l-0.24,0.099l-0.028-0.014l-0.038,0.034l-0.144,0.094l-0.063,0.057l-0.156,0.172l-0.048,0.073
	l-0.021,0.113l-0.023,0.049l-0.169,0.171l-0.422,0.252l-0.167,0.176l-0.142,0.219l-0.136,0.146l-0.15,0.038l-0.185-0.101
	l-0.197-0.228l-0.048-0.043l-0.766-0.348l-0.158-0.152l-0.101-0.206l-0.084-0.045l-0.092-0.031l-0.084,0.018l-0.059,0.092
	l0.01,0.071l0.146,0.272l0.139,0.124l0.031,0.037l0.009,0.047v0.044l0.007,0.026l0.044,0.028l0.088,0.014l0.044,0.016l-0.002,0.017
	l0.015,0.091l0.03,0.106l0.021,0.028l0.051,0.035l0.013,0.026v0.089l0.005,0.027l0.077,0.058l0.186,0.048l0.073,0.036l0.024,0.059
	l-0.007,0.081l-0.018,0.085l-0.008,0.074l0.02,0.072l0.067,0.139l0.009,0.1l0.186-0.029l0.087-0.035l0.064-0.067l0.059-0.042
	l0.1-0.029l0.106-0.016l0.076-0.001l0.105,0.027l0.257,0.176l0.217,0.068l0.09,0.058l-0.025,0.074l-0.103,0.028l-0.176-0.058
	l-0.076,0.068l-0.061,0.101l-0.025,0.058l-0.004,0.046l0.031,0.047l0.034-0.039l0.058-0.128l0.066-0.077l0.029-0.007l0.063-0.003
	l0.046,0.015l0.045,0.029l0.043,0.015l0.034-0.024l0.031-0.04l0.047-0.036l0.045-0.028l0.07-0.015l0.039-0.052l0.065-0.114
	l0.033-0.042l0.018-0.033l0.025-0.022l0.053-0.004l0.062,0.078l0.09,0.031l0.102,0.014l0.444,0.18l0.564,0.227l0.048,0.101
	l-0.001,0.064l0.03,0.087l0.042,0.087l0.036,0.056l0.072,0.067l0.254,0.161l0.235,0.231l0.079,0.03l0.025-0.015l0.103-0.084
	l0.14-0.055l0.197-0.136l0.166,0.011l0.705,0.467l0.144,0.146l0.119,0.174l0.093,0.193l0.061,0.087l0.165,0.137l0,0l0.036,0.58
	l0.151,0.813l0.008,0.409l-0.056,0.098l-0.108,0.077l-0.124,0.039l-0.105-0.017l-0.09-0.042l-0.24-0.062h-0.095l-0.074,0.03
	l-0.158,0.038l-0.071,0.059l-0.035,0.07l-0.019,0.062l-0.035,0.055l-0.086,0.046l-0.137,0.177l-0.087,0.062l-0.096,0.009
	l-0.095-0.047l-0.16-0.111l-0.108-0.019l-0.125,0.026l-0.109,0.042l-0.11,0.03l-0.251-0.022l-0.084,0.037l-0.084,0.054l-0.095,0.03
	l-0.026,0.009l-0.289,0.046l-0.144,0.045l-0.093,0.094l-0.15,0.032l-0.197-0.084l-0.355-0.209l-0.114-0.017l-0.093,0.031
	l-0.179,0.136l-0.164,0.077l-0.044,0.032l-0.025,0.043l-0.034,0.1l-0.029,0.055l-0.133,0.096l-0.028,0.078l-0.048,0.055
	l-0.059,0.011l-0.055-0.046l-0.04,0.009l-0.077,0.043l-0.125,0.093l-0.115,0.058l-0.23-0.038l-0.127,0.095l-0.035,0.077
	l-0.012,0.086l-0.009,0.263l0.04,0.054l0.051,0.051l0.034,0.078v0.046l-0.014,0.031l-0.021,0.028l-0.024,0.04l-0.007,0.059
	l0.021,0.044l0.03,0.039l0.017,0.045l-0.003,0.08l-0.023,0.165l0.003,0.087l-0.013,0.048l-0.021,0.037l-0.029,0.031l-0.037,0.023
	l-0.161,0.051l-0.122,0.104l-0.075,0.148l-0.014,0.184l0.018,0.078l0.157,0.441l0.056,0.029l0.197-0.143l0.109-0.038l0.111,0.012
	l0.11,0.063l0.041,0.054l0.027,0.059l0.033,0.053l0.06,0.038l0.076,0.028l0.054,0.035l0.034,0.062l0.018,0.094l0.001,0.006
	l0.099,0.179l0.026,0.089l-0.008,0.097l-0.04,0.087l-0.063,0.076L725.62,704l-0.078,0.047l-0.09,0.023l-0.101,0.013l-0.098,0.026
	l-0.079,0.064l-0.168,0.226l-0.046-0.091l-0.132-0.033l-0.752,0.086l-0.353-0.088l-0.102-0.004l-0.104,0.025l-0.228,0.136
	l-0.113,0.045l-0.111-0.015l-0.05-0.062l-0.096-0.207l-0.073-0.076l-0.055-0.022l-0.112-0.029l-0.042-0.018L722.596,704
	l-0.022-0.055l-0.012-0.052l-0.016-0.04l-0.08-0.084l-0.052-0.035l-0.036,0.004l-0.02,0.062l0.006,0.094l-0.015,0.052l-0.023,0.04
	l-0.019,0.017l-0.191,0.077l-0.034,0.007l-0.097-0.035l-0.181-0.139l-0.115,0.025l-0.075-0.084l-0.083-0.067l-0.087,0.068
	l-0.065-0.074l-0.089-0.062l-0.09-0.028l-0.07,0.034l-0.229,0.104l-0.177,0.13l-0.16,0.15l-0.122,0.154l-0.044,0.107l0.014,0.073
	l0.041,0.072l0.027,0.108l-0.005,0.094l-0.038,0.172l0.007,0.101l-0.009,0.05l-0.017,0.043l-0.024,0.041l-0.031,0.038l-0.07,0.037
	l-0.058,0.059l-0.154,0.226l-0.022,0.061l-0.042,0.158l0,0.059l0.047,0.097l0.002,0.05l-0.006,0.039l0.009,0.021l0.005,0.024
	l-0.018,0.055l-0.123,0.178l-0.037,0.067l-0.057,0.072l-0.057-0.011l-0.059-0.044l-0.064-0.022l-0.085,0.025l-0.115,0.103
	l-0.077,0.043l-0.07,0.006l-0.085-0.014l-0.16-0.051l-0.076,0.004l-0.077,0.049l-0.14,0.131l-0.401,0.261l-0.095,0.022l-0.194,0.013
	l-0.074,0.029l-0.034,0.246l0.044,0.259l0.103,0.609l0.104,0.609l0.105,0.612l0.105,0.612l0.105,0.613l0.105,0.615l0.106,0.616
	l0.113,0.616l0.115,0.093l0.087,0.114l0.041,0.145l-0.179,1.059l-0.098,0.261l-0.222,0.203l-0.52,0.263l-0.258,0.079l-0.278,0.038
	l-0.538-0.017l-0.042-0.016l-0.085-0.048l-0.042-0.006l-0.058,0.027l-0.291,0.255l-0.159,0.201l-0.088,0.09l-0.234,0.128h-0.199
	l-0.396-0.154l-0.287-0.058l-0.082-0.033l-0.065-0.064l-0.105-0.171l-0.064-0.073l-0.238-0.189l-0.088-0.029l-0.066,0.044
	l0.009,0.275l-0.045,0.116l-0.107,0.038l-0.136-0.013l-0.132-0.042l-0.095-0.046l-0.244-0.161l-0.092-0.039l-0.239-0.02
	l-0.139,0.104l-0.24,0.387l-0.053,0.054l-0.063,0.045l-0.066,0.033l-0.067,0.017l-0.084-0.004l-0.038-0.029l-0.027-0.042
	l-0.058-0.038l-0.056-0.014l-0.102-0.003l-0.059-0.022l-0.034-0.031l-0.113-0.124l-0.163-0.108l-0.09-0.033l-0.097-0.017
	l-0.139,0.012l-0.384,0.163l-0.101,0.016l-0.113-0.003l-0.112-0.018l-0.1-0.029l-0.102-0.06l-0.067-0.077l-0.058-0.089l-0.077-0.087
	l-0.215-0.078l-0.49,0.096l-0.228-0.031l-0.16-0.12l-0.619-0.893l-0.166-0.161l-0.178-0.043l-0.032,0.022l-0.063,0.081l-0.046,0.026
	l-0.051,0.003l-0.154-0.048l-0.118-0.016l-0.075,0.037l-0.055,0.077l-0.059,0.106l-0.167,0.176l-0.142-0.032l-0.324-0.274
	l-0.264-0.116l-0.086-0.02l-0.135,0.014l-0.063,0.07l-0.038,0.104l-0.06,0.119l-0.101,0.112l-0.099,0.078l-0.086,0.093l-0.061,0.151
	l-0.008,0.071l0.006,0.048l-0.002,0.048l-0.06,0.143l-0.034,0.243l-0.079,0.243l-0.116,0.218l-0.159,0.187l-0.201,0.141l-0.122,0.06
	l-0.066,0.012l-0.051-0.024l-0.059-0.049l-0.052-0.003l-0.138,0.044l-0.125,0.008l-0.09-0.02l-0.081-0.046l-0.094-0.074l-0.07-0.084
	l-0.068-0.129l-0.05-0.141l-0.015-0.117l0.002-0.155l-0.107-0.921l-0.146-0.389l-0.024-0.563l-0.055-0.266l-0.18-0.363l-0.136-0.167
	l-0.16-0.068l-0.184,0.093l-0.143,0.182l-0.156,0.141l-0.22-0.04l-0.131-0.218l-0.127-0.485l-0.183-0.179l-0.09-0.038l-0.282-0.067
	l-0.115-0.058l-0.073-0.069l-0.13-0.188l-0.192-0.114h-0.243l-0.256,0.042l-0.236,0.009l-0.176-0.112l-0.03-0.217l0.055-0.254
	l0.134-0.41l0.044-0.206l0.015-0.198l-0.031-0.169l-0.077-0.132l-0.243-0.267l-0.516-0.364l-1.081-0.398l-0.059-0.085l0.003-0.139
	l0.061-0.267l0.001-0.113l0.001-0.135l-0.063-0.285l-0.133-0.237l-0.208-0.098l-0.096,0.03l-0.091,0.079l-0.076,0.104l-0.048,0.112
	l-0.013,0.142l0.043,0.104l0.067,0.094l0.057,0.113l0.016,0.122l-0.018,0.109l-0.066,0.238l-0.058,0.553l0,0v0.002l0,0l0.017,0.173
	l0.096,0.31l0.028,0.166l0.013,0.424l0.205,0.635l0.11,0.217l0.154,0.212l0.061,0.133l0.045,0.522l0.085,0.297l0.021,0.16
	l-0.04,0.146l-0.11,0.195l-0.063,0.087l-0.084,0.075l-0.226,0.119l-0.098,0.07l-0.086,0.116l-0.261,0.726l-0.107,0.227l-0.296,0.428
	l-0.113,0.226l-0.026,0.228l0.03,0.277l-0.034,0.434l0.021,0.292l-0.105,0.988l-0.086,0.33l-0.005,0.128l-0.017,0.064l-0.029,0.046
	l-0.108,0.125l-0.185,0.292l-0.077,0.092l-0.379,0.269l-0.106,0.11l-0.061,0.121l-0.014,0.114l0.044,0.084l0.113,0.028l0.243,0.187
	l0.44,0.487l0.289,0.162l0.307,0.116l0.572,0.354l0.254,0.214l0.55,0.347l0.067,0.091l-0.021,0.081l-0.15,0.161l-0.055,0.083
	l-0.193,0.371l-0.052,0.072l-0.156,0.131l-0.156,0.133l-0.064,0.078l-0.046,0.101l-0.106,0.09l-0.179-0.016l-0.34-0.104
	l-0.044-0.025l-0.116-0.095l-0.065-0.022l-0.325-0.009l-1.001,0.251l-0.125,0.004l-0.095-0.035l-0.526-0.317l-0.18-0.077
	l-0.204-0.026l-0.281,0.059l-0.179,0.137l-0.294,0.45l-0.261,0.297l-0.171,0.339l-0.072,0.097l-0.08,0.084l-0.131,0.104l-0.149,0.09
	l-0.155,0.058l-0.297,0.023l-0.416,0.151l-0.47,0.095l-0.161,0.067l-0.211,0.171l-0.112,0.069l-0.1-0.006l-0.056-0.108l0.048-0.139
	l0.095-0.131l0.086-0.086l0.223-0.168l0.059-0.109l-0.059-0.129l-0.11-0.045l-0.151,0.012l-0.286,0.06l-0.324,0.012l-0.155,0.026
	l-0.162,0.083l-0.236,0.193l-0.119,0.068l-0.835,0.126l-0.105-0.029l-0.081-0.071l-0.152-0.261l-0.079-0.049l-0.111,0.025
	l-0.177,0.071l-0.137,0.03l-0.094-0.017l-0.088-0.039l-0.125-0.025l-0.067,0.006l-0.239,0.071l-0.027,0.003l-0.056-0.006
	l-0.027,0.005l-0.028,0.021l-0.048,0.073l-0.02,0.017l-0.193-0.055l-0.174-0.127l-0.193-0.045l-0.254,0.194l-0.305,0.438
	l-0.179,0.198l-0.21,0.111l-0.122-0.002l-0.096-0.046l-0.167-0.142l-0.121-0.064l-0.104,0.002l-0.52,0.249l-0.111,0.075
	l-0.123,0.109l-0.032,0.042l-0.085,0.163l-0.065,0.063l-0.152,0.064l-0.185,0.122l-0.155,0.041l-0.159,0.01l-0.125-0.015
	l-0.109-0.052l-0.06-0.084l-0.018-0.114l0.019-0.147l0.145-0.268l0.234-0.151l0.26-0.132l0.223-0.213l0.07-0.134l0.041-0.139
	l0.015-0.139l-0.015-0.225l-0.016-0.087l-0.025-0.083l-0.041-0.066l-0.049-0.04l-0.104-0.037l-0.322-0.202l-0.098-0.039
	l-0.137-0.021l-0.262,0.031l-0.523-0.007l-0.133,0.022l-0.17,0.056l-0.326,0.154l-0.166,0.061l-0.132,0.014l-0.105-0.025l-0.208-0.1
	l-0.129-0.005l-0.261,0.111l-0.141-0.001l-0.095-0.068l-0.043-0.1l-0.034-0.108l-0.064-0.097l-0.089-0.049l-0.314-0.056
	l-0.235-0.237l-0.138-0.394l-0.068-0.32l-0.03-0.139l-0.078-0.363l-0.11-0.513l-0.126-0.589l-0.126-0.587l-0.109-0.512l-0.078-0.361
	l-0.029-0.136l0.045-0.286l0.055-0.142l0.204-0.152l0.073-0.132l0.045-0.152l0.018-0.135l-0.011-0.084l-0.021-0.081l-0.009-0.078
	l0.028-0.086l0.165-0.203l0.055-0.129l0.026-0.142l0.018-0.243l0.027-0.142l0.046-0.116l0.144-0.238l0.057-0.123l0.35-1.443
	l0.029-0.229l0.023-0.063l0.005-0.053l-0.042-0.117l0.006-0.089l-0.007-0.062l0.001-0.073l0.03-0.073l0.139-0.068l0.043-0.028
	l0.072-0.084l0.158-0.295l0.022-0.103l-0.041-0.081l-0.064-0.076l-0.04-0.084l0.004-0.094l0.063-0.268l0.068-0.181l0.05-0.243
	l0.058-0.099l0.094-0.04l0.144-0.047l0.125-0.072l0.035-0.122l0.004-0.062l0.058-0.101l0.016-0.063l-0.01-0.062l-0.086-0.193
	l-0.12-0.151l-0.024-0.053l-0.023-0.148l-0.025-0.07l-0.038-0.045l-0.023-0.05l0.012-0.079l0.024-0.084l0.01-0.065l-0.016-0.066
	l-0.061-0.118l-0.019-0.063l0.003-0.073l0.013-0.069l-0.004-0.066l-0.044-0.052l-0.005-0.03l-0.007-0.144l0.01-0.052l0.002-0.045
	l-0.063-0.109l-0.019-0.059l0.005-0.05l0.034-0.114l0.007-0.055l-0.023-0.108l-0.064-0.079l-0.198-0.119l-0.024-0.079l0.044-0.131
	l0.119-0.248l0.025-0.111l0.009-0.154l-0.034-0.123l-0.1-0.025l-0.112-0.015l-0.094-0.089l-0.119-0.212l-0.009-0.091l-0.027-0.041
	l-0.116,0.002l-0.053-0.025l-0.094-0.062l-0.105-0.024l-0.083,0.037l-0.08,0.052l-0.102,0.022l0.221-0.354l0.164-0.103l0.185-0.056
	l0.317-0.095l0.317-0.096l0.315-0.094l0.315-0.094l0.316-0.094l0.314-0.096l0.315-0.095l0.315-0.093l0.137-0.042l0.071,0.001
	l0.11,0.034l0.058,0.008l0.083-0.017l0.504-0.232l0.246-0.149l0.152-0.202l-0.039-0.264l-0.12-0.171l-0.033-0.091l-0.001-0.134
	l0.252-1.07l-0.007-0.267l-0.11-0.187l-0.095-0.045l-0.093-0.03l-0.08-0.048l-0.054-0.1l-0.011-0.152l0.042-0.138l0.129-0.266
	l0.036-0.148l0.04-0.455l0.046-0.121l0.179-0.32l0.036-0.143l-0.018-0.035l0.002-0.003l0.064-0.077l0.028-0.109l-0.013-0.085
	l0.064-0.187l-0.021-0.148l-0.035-0.126l0.022-0.116l0.078-0.17l0.058-0.18l0.078-0.181l0.139-0.176l0.18-0.119l0.048-0.054
	l0.026-0.072l0.007-0.147l0.025-0.074l0.032-0.036l0.068-0.055l0.022-0.044l0.001-0.037l-0.04-0.055l-0.005-0.031l0.071-0.196
	l0.009-0.084l-0.041-0.113l-0.02,0.034l-0.02-0.055l-0.012-0.063v-0.063l0.02-0.064l0.05-0.066l0.045-0.018l0.045-0.006l0.049-0.026
	l0.036-0.046l0.092-0.163l0.109-0.116l0.184-0.269l0.088-0.096l0.094-0.055l0.082-0.06l0.146-0.215l0.088-0.075l0.006-0.06
	l0.025-0.024l0.035-0.025l0.039-0.061l0.009-0.04l0.015-0.111l0.012-0.038l0.074-0.113l0.147-0.174l0.176-0.161l0.065-0.089
	l0.128-0.226l0.024-0.019l0.036-0.014l0.041-0.021l0.042-0.048l0.005-0.043l-0.015-0.149l0.002-0.063l0.016-0.059l0.021-0.053
	l0.028-0.054l0.036-0.056l0.048-0.054l0.111-0.095l0.035-0.037l0.067-0.12l0.037-0.097l0.018-0.09l0.01-0.102l0.075-0.213
	l0.167-0.186l0.226-0.133l0.254-0.058l0.022,0.009l0.043,0.036l0.022,0.007l0.037-0.01l0.076-0.03l0.037-0.009l0.16,0.019
	l0.054-0.007l0.14-0.052l0.069-0.012l0.061,0.016l0.04-0.013l0.157-0.15l0.048-0.021l0.049-0.016l0.051-0.023l0.048-0.054v-0.032
	l-0.021-0.107l-0.001-0.031l0.052-0.102l0.127-0.315l0.138-0.226l0.163-0.189l0.188-0.154l0.21-0.116l0.424-0.124l0.086-0.055
	l0.355-0.133l0.087-0.008l0.201,0.016l0.082-0.018l0.068-0.073l0.058-0.118l0.028-0.117l-0.056-0.154l0.013-0.371l0.113-0.188
	l0.061-0.057l0.08-0.03l0.129-0.021l0.041-0.007l-0.004-0.003l-0.157-0.116l-0.058-0.171l-0.037-0.188l-0.071-0.161l-0.561-0.569
	l-0.28-0.201l-0.061-0.068l-0.038-0.021l-0.068-0.001l-0.136,0.046l-0.07,0.016l-0.054-0.019l-0.056-0.036l-0.059-0.013
	l-0.059,0.049l-0.038,0.044l-0.053,0.036l-0.057,0.019l-0.05-0.011l-0.046-0.015l-0.183-0.029l-0.193-0.073l-0.508-0.377
	l-0.204-0.081l-0.609-0.087l-0.157-0.094l-0.226-0.251l-0.081-0.063l-0.099-0.044l-0.379-0.08l-0.276-0.14l-0.062-0.003
	l-0.182,0.045l-0.075-0.004l-0.095-0.074l-0.119-0.198l-0.074-0.072l-0.089-0.068l-0.212-0.254l-0.081-0.07l-0.283-0.143
	l-0.079-0.076l-0.076-0.101l-0.08-0.082l-0.091-0.021l-0.11-0.173l-0.074-0.076l-0.106-0.056l-0.107-0.007l-0.202,0.057l-0.13,0.006
	l-0.429,0.128l-0.341,0.01l-0.044-0.138l-0.034-0.342l-0.055-0.101l-0.128-0.044l-0.273-0.014l-0.128-0.028l-0.004-0.002
	l-0.049-0.03l-0.012-0.249l-0.03-0.649l-0.031-0.647l-0.031-0.648l-0.03-0.646l-0.03-0.646l-0.03-0.644l-0.029-0.644l-0.03-0.643
	l-0.007-0.145l-0.051-0.216l-0.1-0.104l-0.164-0.085l-0.182-0.048l-0.335,0.007l-0.128-0.085l-0.288-0.495l-0.047-0.063
	l-0.005-0.021l0.002-0.059l-0.011-0.025l-0.039-0.026l-0.106-0.043l-0.044-0.028l-0.055-0.061l-0.025-0.053l-0.018-0.428
	l-0.01-0.047l-0.077-0.027l-0.146-0.03l-0.072-0.038l-0.12-0.122l-0.03-0.04l-0.023-0.092l-0.017-0.031l-0.128-0.072l-0.298-0.085
	l-0.194-0.096l-0.201-0.036l-0.089-0.049l-0.05,0.004l-0.05,0.035l-0.088,0.038l-0.273,0.033l-0.269-0.039l-0.25-0.106l-0.275-0.216
	l-0.058,0.004l-0.064,0.022l-0.081,0.01l-0.093-0.018l-0.033-0.039l-0.012-0.05l-0.032-0.056l-0.204-0.13l-0.039-0.061l0.009-0.061
	l0.036-0.062l0.028-0.061l-0.017-0.055l-0.06-0.046l-0.201-0.068l-0.067-0.049l-0.109-0.122l-0.063-0.048l-0.076-0.023l-0.149-0.01
	l-0.061-0.016l-0.033-0.128l-0.076-0.082l-0.092-0.024l-0.01,0.005l-0.001,0.007l-0.081-0.058l-0.001-0.004l0.001-0.019l0.007-0.03
	l-0.008-0.031l-0.043-0.013h-0.081l-0.038-0.007l-0.027-0.021l-0.024-0.068l0.002-0.052l-0.017-0.048l-0.14-0.092l-0.06-0.024
	l-0.051,0.019l-0.035,0.087l-0.097-0.105l-0.106-0.055l-0.113-0.04l-0.122-0.071l-0.045,0.089l-0.038,0.002l-0.04-0.037
	l-0.048-0.026l-0.078,0.006l-0.068,0.013l-0.066,0.004l-0.074-0.027l-0.13-0.098l-0.292-0.301l-0.105-0.107v-0.002l-0.029-0.058
	l-0.037-0.15l-0.031-0.073l-0.078-0.128l-0.025-0.063l-0.009-0.138l0.101-0.634l0.043-0.159l0.061-0.153l0.083-0.145l0.03-0.039
	l0.167-0.164l0.008-0.029l-0.013-0.029l-0.006-0.296l-0.112-0.127l-0.351-0.205l-0.179-0.166l-0.079-0.103l-0.06-0.077l-0.072-0.216
	l0.024-0.273l0.06-0.117l0.091-0.08l0.099-0.071l0.086-0.091l0.046-0.097l0.066-0.216l0.051-0.103l0.368-0.458l0.275-0.229
	l0.066-0.074l0.125-0.206l0.037-0.091l0.004-0.069l-0.012-0.163l0.008-0.052l0.051-0.045l0.058-0.007l0.061,0.011l0.062,0.003
	l0.1-0.019l0.092-0.03l0.084-0.052l0.08-0.077l0.099-0.058l0.086,0.036l0.077,0.07l0.072,0.043l0.139-0.063l0.112-0.181l0.123-0.366
	l0.053-0.368l0.047-0.114l0.055-0.072l0.14-0.126l0.058-0.069l0.041-0.084l0.024-0.095l0.006-0.092l-0.012-0.084l-0.002-0.003
	l-0.022-0.047l-0.032-0.034l-0.031-0.044l-0.018-0.074l-0.02-0.175l-0.016-0.147l-0.017-0.145l-0.017-0.146l-0.016-0.146
	l-0.017-0.145l-0.017-0.146l-0.017-0.145l-0.016-0.146l-0.016-0.135l0.022-0.203l0.08-0.208l0.087-0.228l0.088-0.226l0.087-0.227
	l0.087-0.225l0.087-0.227l0.087-0.226l0.086-0.224l0.087-0.226l0.039-0.097l-0.01-0.131l0.13-0.067l0.012-0.063l-0.038-0.087
	l-0.023-0.129l-0.056,0.018l-0.03-0.02l-0.028-0.035l-0.046-0.03l-0.062-0.016l-0.045-0.002l-0.21,0.015l-0.108-0.017l-0.064-0.069
	l0.002-0.155l0.044-0.11l0.141-0.181l0.059-0.119l0.002-0.026l-0.011-0.066l0.002-0.03l0.012-0.018l0.043-0.029l0.013-0.015
	l0.06-0.193l-0.002-0.05l-0.098-0.055l-0.304,0.07l-0.132-0.001l-0.129-0.032l-0.108,0.007l-0.24,0.056l-0.204-0.013l-0.19-0.079
	l-0.462-0.267l-0.06-0.035l-0.031-0.069l0.069-0.097l0.109-0.057l0.231-0.018l0.125-0.031l0.115-0.058l0.407-0.295l0.692-0.318
	l0.215-0.148l0.102-0.022l0.242-0.009l0.117-0.035l0.1-0.054l0.312-0.237l0.485-0.236l0.323-0.203l0.111-0.094l0.04-0.092
	l0.021-0.104l0.051-0.13l0.066-0.089l0.154-0.152l0.119-0.171l0.748-0.645l0.746-0.91l0.056-0.089l0.048-0.06l0.016-0.02
	l0.088-0.067l0.125-0.051l0.119-0.032l0.112-0.046l0.234-0.184l0.462-0.155l0.24-0.124l0.604-0.475l0.226-0.136l0.194-0.062
	l0.267-0.024l0.127-0.03l0.146-0.062l0.388-0.279l0.066-0.027l0.136-0.041l0.062-0.028l0.04-0.034l0.061-0.08l0.044-0.028
	l0.107-0.007l0.097,0.039l0.178,0.1l0.285,0.048l0.092,0.032l0.073,0.058l0.121,0.133l0.083,0.023l0.08-0.029l0.282-0.164
	l0.282-0.164l0.281-0.163l0.281-0.164l0.281-0.164l0.28-0.164l0.28-0.164l0.28-0.162l0.094-0.055l0.141-0.064l0.115-0.007
	l0.122,0.035l0.279,0.079l0.277,0.077l0.278,0.08l0.278,0.078l0.277,0.079l0.278,0.08l0.276,0.078l0.278,0.077l0.127,0.036
	l0.208,0.025l0.219-0.042l0.099,0.001l0.118,0.077l-0.122,0.074l-0.065,0.07l-0.021,0.098l-0.118-0.055l-0.042-0.005l-0.037,0.022
	l-0.028,0.039l-0.032,0.027l-0.048-0.01l-0.1-0.034l-0.313-0.013l-0.194-0.047l-0.741-0.301l-0.914-0.216l-0.176-0.065l-0.124-0.022
	l-0.121-0.008l-0.082,0.015l-0.15,0.13l-0.121,0.19l-0.259,0.642l-0.148,0.913l-0.004,0.521l0.031,0.176l0.28,0.572l0.026,0.089
	l0.004,0.09l-0.033,0.065l-0.04-0.008l-0.219-0.07l0.063-0.058l0.01-0.074l-0.034-0.075l-0.094-0.09l-0.032-0.042l-0.033-0.029
	l-0.027,0.006l-0.024,0.014l-0.038,0.009l-0.07,0.001l0.001,0.071l0.048,0.232l-0.006,0.077l-0.037,0.054l-0.049,0.046l-0.045,0.059
	l-0.08,0.202l-0.053,0.223l-0.023,0.2l0.005,0.197l0.047,0.198l0.105,0.202l-0.107,0.072l-0.15,0.151l-0.126,0.057l-0.002,0.048
	l-0.024,0.049l-0.04,0.045l-0.053,0.035l-0.026,0.081l-0.093,0.071l-0.113,0.07l-0.084,0.074l-0.156,0.247l-0.011,0.027
	l-0.017,0.015l-0.058,0.014h-0.039l-0.138-0.026l-0.161,0.049l-0.022,0.013l-0.079-0.022l-0.097,0.001l-0.162,0.028l-0.186,0.068
	l-0.556,0.329l-0.437,0.186l-0.093,0.087l-0.093,0.007l-0.197-0.051l-0.101,0.015l-0.107,0.043l-0.101,0.068l-0.162,0.166
	l-0.214,0.118l-0.25,0.198l-0.49,0.162l-0.151,0.097l-0.03,0.068l-0.041,0.222l-0.004,0.112l0.072,0.476l0.001,0.196l-0.128,0.636
	l-0.043-0.088l0.021-0.105l0.042-0.109l0.02-0.105l-0.049,0.01l0.001,0.024l-0.002,0.018l-0.012,0.039l-0.042-0.015l-0.024,0.002
	l-0.022,0.011l-0.036,0.013l0.04,0.066l0.024,0.098l-0.002,0.11l-0.041,0.103l-0.088,0.071l-0.069-0.038l-0.044-0.092l-0.013-0.093
	l-0.072,0.073l-0.026,0.107l-0.008,0.147l0.097-0.012l0.154-0.033l0.115,0.009l-0.019,0.113l0.031,0.02l0.06-0.09l0.021,0.056
	l0.02,0.203l0.022,0.057l0.032,0.036l0.025,0.039l0.003,0.067l-0.107-0.103l-0.14-0.017l-0.12,0.065l-0.048,0.146l0.146-0.126
	l0.034-0.024l0.238,0.146l0.059,0.132l0.011,0.187l0.046,0.136l0.168-0.023l-0.064,0.065l-0.025,0.014l0.019,0.063l-0.012,0.039
	l-0.038,0.007l-0.06-0.035l-0.021,0.031l0.016,0.082l-0.047,0.081l-0.077,0.067l-0.079,0.045l-0.015-0.063l-0.125,0.015
	l-0.266,0.063l0.016,0.059l0.07-0.01l0.065-0.001l-0.002,0.085l0.043,0.003l0.034-0.001l0.033-0.015l0.038-0.026l0.012,0.065
	l-0.044,0.04l-0.039,0.045l0.03,0.084l-0.082-0.038l-0.035,0.063l-0.006,0.16l-0.177,0.058l-0.04,0.027l-0.02,0.055l0.017,0.039
	l0.022,0.031l-0.005,0.035l0.023,0.019l0.032,0.057l0.017,0.055l-0.024,0.006l-0.02,0.016l0.013,0.065l0.049,0.123l0.128,0.154
	l0.159,0.143l0.182,0.115l0.2,0.074l0.726,0.157l0.53,0.056l0.196-0.013l0.154-0.056l0.217-0.202l0.121-0.018l0.202-0.081
	l0.071-0.021l0.044,0.011l0.118,0.049l0.04,0.003l0.042-0.005h0.041l0.042,0.016l0.072,0.012l0.082-0.034l0.078-0.065l0.059-0.084
	l0.094-0.292l0.224-0.391l0.042-0.093l0.016-0.071l0.019-0.05l0.036-0.05l0.042-0.024l0.158-0.069l0.036-0.056l0.281-0.273
	l0.139-0.211l0.046-0.013l0.038-0.019l0.033-0.026l0.009-0.019l0.024-0.09l-0.006-0.101l-0.023-0.116l-0.002-0.12l0.057-0.121
	l0.047,0.02l0.038,0.002l0.038-0.031l0.012-0.04l-0.015-0.133l0.008-0.169l-0.027-0.426l-0.045-0.116l-0.107-0.036l0.176-0.451
	l0.062-0.239l0.02-0.22l-0.041-0.267l-0.044-0.127l-0.105-0.146l0.01-0.095l0.07-0.2l0.003-0.081l-0.014-0.163l0.055-0.149
	l0.009-0.097l-0.012-0.163l-0.014-0.074l-0.001-0.042l0.012-0.056l0.023-0.045l0.073-0.055l0.176-0.212l0.024-0.066l-0.022-0.094
	l-0.097-0.241l-0.001-0.128l0.071-0.111l0.042-0.022l0.226-0.042l0.013,0.001l-0.01-0.022l0.021-0.271l0.02-0.049l0.045-0.055
	l0.1-0.102l0.045-0.065l0.02-0.059l-0.003-0.052l-0.027-0.109l0.005-0.1l-0.006-0.048l-0.029-0.04l0.019-0.028l0.305,0.165
	l0.119,0.093l0.092,0.137l0.11-0.072l0.04-0.1l0.013-0.1l0.029-0.078l0.072-0.048l0.144-0.01l0.086-0.048l-0.104-0.062l-0.033-0.03
	l-0.032-0.054l-0.018-0.061l-0.019-0.133l-0.032-0.059l0.216,0.041l0.176,0.075l0.333,0.2l0.188,0.076l0.062,0.008l0.551,0.074
	l0.255-0.004l0.061-0.014l0.305,0.05l1.08,0.007l0.747,0.203l0.142,0.019l0.06,0.094l0.14,0.081l0.505,0.222l0.103-0.004
	l0.136-0.072l-0.049-0.007l-0.05,0.007l-0.046,0.021l-0.042,0.034l0.057-0.116l0.123,0.02l0.189,0.161l0.159,0.04l0.409,0.027
	l0.215-0.017l0.075,0.051l0.138,0.11l0.274,0.016l0.156-0.06l0.133-0.085l0.056-0.078l0.013-0.035l-0.01-0.047l-0.04-0.036
	l0.06-0.006l0.048,0.037l0.04,0.064l-0.004,0.072l0.008,0.071l0.013,0.064l0.058,0.008l0.048-0.031l0.054-0.049l0.036,0.023
	l0.027,0.055l0.029,0.039l0.012,0.045l0.019,0.012l0.035-0.035l0.027-0.044l0.014-0.03l-0.004-0.031l-0.027-0.033l0.018-0.017
	l0.014-0.01l0.039-0.018l-0.043-0.058l0.045-0.053l-0.131-0.165l-0.087-0.064l-0.005-0.02l0.034-0.015l0.029,0.019l0.061,0.035
	l-0.012-0.055l-0.033-0.046l-0.042-0.051l-0.029-0.058l-0.04-0.112l0.128,0.135l0.068,0.133l0.068,0.126l0.046,0.082l0.027,0.03
	l0.059,0.063l0.07,0.033l0.057,0.063l0.037,0.069l0.097,0.012l0.069-0.013l0.062,0.077l-0.024,0.083l0.021,0.036l0.062,0.021
	l-0.022,0.092l0.038,0.078l0.05,0.095l-0.015,0.126l0.092,0.121l0.108-0.002l0.063-0.05l0.164-0.003l0.088-0.025l0.078-0.09
	l0.012-0.201l0.071-0.074l-0.001-0.07l0.068-0.245l0.059-0.145l0.037-0.269l-0.025-0.016l-0.063,0.074l-0.027-0.028l-0.008-0.068
	l-0.012-0.043l-0.062-0.019l-0.054,0.012l-0.04,0.017l-0.025,0.005l-0.231-0.05l-0.095-0.046l0.067-0.061l-0.212-0.019l-0.053-0.017
	l-0.122-0.068l-0.068-0.021l-0.06,0.003l-0.116-0.009l-0.275-0.129l-0.259-0.015l-0.083-0.09l-0.019-0.125l0.057-0.116l0.034-0.02
	l0.085-0.029l0.037-0.022l0.023-0.028l0.005-0.025v-0.024l0.006-0.027l0.075-0.116l-0.003-0.012l-0.001-0.076l0.008-0.035
	l0.014,0.031l0.042,0.065l0.014,0.029l0.078-0.122l0.025-0.056l0.004-0.05l-0.027-0.05l-0.04,0.02l-0.048,0.04l-0.053,0.015
	l0.03-0.087l0.019-0.214l-0.002-0.039l-0.009-0.022v-0.028l0.051-0.095l0.006-0.034l-0.02-0.025l-0.048-0.021l0.06-0.047l0.135-0.14
	l0.046-0.061l0.063-0.062l0.163-0.094l0.073-0.077l0.068-0.05l0.221-0.077l0.084-0.039l0.06-0.066l0.077-0.127l0.047-0.027
	l0.177,0.1l0.084,0.021l0.099-0.005l0.396-0.076h0.127l0.107,0.036l0.041,0.058l0.029,0.068l0.154,0.155l0.033,0.109l-0.045,0.842
	l-0.061,0.206L699.499,658.67z M733.388,656.686l-0.011,0.007l-0.012-0.02l-0.004-0.028h0.021l0.014,0.02L733.388,656.686z"/></svg>