<?xml version="1.0" encoding="utf-8"?>
<!-- Generator: Adobe Illustrator 15.0.0, SVG Export Plug-In . SVG Version: 6.00 Build 0)  -->
<!DOCTYPE svg PUBLIC "-//W3C//DTD SVG 1.1//EN" "http://www.w3.org/Graphics/SVG/1.1/DTD/svg11.dtd">
<svg version="1.1" id="Ebene_1" xmlns="http://www.w3.org/2000/svg" xmlns:xlink="http://www.w3.org/1999/xlink" x="0px" y="0px"
	 width="1920px" height="1080px" viewBox="0 0 1920 1080" enable-background="new 0 0 1920 1080" xml:space="preserve">

<path fill="#F4E0B6" stroke="#FFFFFF" d="M1276.065,793.065l0.185,0.351l0.218,0.411l0.273,0.519l0.158,0.302l0.438-0.24l0.28-0.153
	l0.637-0.351l0.42-0.229l0.193-0.055l0.218,0.035l0.101,0.037l0.082,0.018l0.07-0.025l0.066-0.089l0.025-0.067l0.028-0.127
	l0.041-0.063l0.038-0.008l0.044,0.008l0.03-0.014l0.002-0.08l0.064-0.117l0.183-0.08l0.449-0.11l0.089-0.01l0.09,0.016l0.094,0.046
	l0.147,0.109l0.079,0.033l0.099,0.004l0.053,0.009l0.037,0.032l0.033,0.033l0.038,0.016l0.017-0.004l0.026-0.025l0.016-0.01
	l0.023,0.001l0.01,0.021l0.005,0.023l0.013,0.01l0.083-0.03l0.085-0.045l0.084-0.029l0.082,0.014h0.191l0.678-0.303l0.121-0.005
	l0.155,0.039l0.375,0.154l0.109,0.029l0.21,0.005l0.068,0.018l0.072,0.06l0.101,0.157l0.066,0.049l0.079-0.001l0.442-0.146
	l0.766-0.434l0.336-0.111l0.49-0.04l0.754-0.057l0.569-0.044l0.066,0.021l0.049,0.053l0.052,0.1l0.122,0.154l0.145,0.032
	l0.028-0.003l0.002-0.001l0.021-0.043l0.045-0.05l0.055-0.044l0.128-0.057l0.27-0.069l0.127-0.055l0.055-0.053l0.08-0.143
	l0.052-0.063l0.045-0.032l0.033,0.14l0.109,0.522v0.177l-0.021,0.121l-0.143,0.442l0.02,0.025l0.424,0.307l0.313,0.227l0.22,0.2
	l0.183,0.242l0.082,0.161l0.021,0.042l0.061,0.089l0.082,0.064l0.049,0.013l0.112,0.007l0.045,0.025l0.036,0.066l0.008,0.082
	l-0.003,0.039l-0.013,0.122l-0.002,0.398l-0.009,0.048l-0.022,0.041l-0.011,0.042l0.022,0.049l0.111,0.126l0.034,0.026l0.096,0.022
	l0.181-0.005l0.09,0.049l0.06,0.081l0.023,0.093l0.013,0.194l0.063,0.175l0.102,0.184l0.06,0.168l-0.065,0.122l-0.049,0.065
	l-0.009,0.096l0.019,0.104l0.029,0.091l0.046,0.082l0.104,0.097l0.044,0.072l0.012,0.066l-0.017,0.043l-0.021,0.038l-0.003,0.046
	l0.025,0.036l0.076,0.037l0.015,0.039l0.02,0.097l0.056,0.092l0.349,0.377l0.08,0.136l0.014,0.034l0.008,0.11l-0.002,0.073
	l-0.007,0.045l0.009,0.039l0.049,0.056l0.103,0.061l0.255,0.063l0.11,0.048l0.068,0.066l0.006,0.059l-0.07,0.146l-0.021,0.169
	l-0.013,0.002l0.025,0.04l0.08,0.037l0.034,0.037l0.016,0.101l-0.043,0.091l-0.064,0.087l-0.053,0.087l-0.051,0.074l-0.063,0.061
	l-0.052,0.064l-0.021,0.084l0.024,0.077l0.057,0.082l0.123,0.129l0.232,0.184l0.085,0.104l0.06,0.146l0.027,0.129l0.004,0.113
	l-0.041,0.093l-0.097,0.062l-0.163,0.069l-0.108,0.078l-0.283,0.378l0.013,0.041l0.138,0.219l0.055,0.049l0.064,0.008l-0.025,0.055
	l-0.035,0.055l-0.021,0.057l0.02,0.055l0.075,0.081l0.028,0.043l0.02,0.058l0.036,0.053l0.047,0.019l0.051-0.007l0.054-0.023
	l0.221-0.163l0.071-0.026l0.05-0.003l0.031,0.009l0.025,0.022l0.033,0.046l0.044,0.042l0.047,0.017l0.05,0.013l0.053,0.025
	l0.094,0.135l0.141,0.588l0.046,0.106l0.024,0.084l0.003,0.087l-0.01,0.123l-0.063,0.247l0.012,0.046l0.066,0.12l0.059,0.187
	l0.047,0.086l0.064,0.029l0.075-0.034l0.065-0.045l0.063-0.008l0.071,0.08l0.038,0.076l0.119,0.322l0.02,0.04l0.03,0.036
	l0.031,0.053l0.003,0.05l-0.003,0.049l0.007,0.049l0.059,0.088l0.066,0.024l0.076-0.02l0.091-0.041l0.073-0.07l0.057-0.182
	l0.059-0.062l0.087,0.005l0.046,0.085l0.048,0.181l0.066,0.059l0.096,0.035l0.109,0.013l0.103-0.006l0.061,0.026l0.027,0.09
	l0.02,0.112l0.079,0.178l0.044,0.29l0.136,0.32l0.07,0.087l0.025,0.028l-0.208,0.097l-0.028,0.075l0.039,0.141v0.075l-0.052,0.052
	l-0.056,0.044l-0.016,0.056l0.069,0.222l0.013,0.075l-0.005,0.128l0.012,0.045l0.019,0.026l0.052,0.045l0.019,0.03l0.034,0.145
	l0.009,0.071l-0.005,0.07l-0.063,0.307l-0.093,0.445l-0.004,0.306l-0.003,0.316l-0.043,0.158l-0.148,0.112l-0.189,0.07l-0.152,0.105
	l-0.042,0.224l0.047,0.2l0.076,0.178l0.271,0.423l0.261,0.409l0.054,0.174v0.229l-0.067,0.353l-0.103,0.541l0.038,0.024l0.072,0.008
	l0.058,0.032l0.018-0.008l0.016-0.008l0.016,0.003l0.013,0.027v0.034l-0.004,0.029l0.003,0.02l0.509,0.348l0.014,0.015l0.015,0.019
	l-0.193-0.023l-0.057,0.227l-0.08,0.303l-0.087,0.328l-0.086,0.327l-0.086,0.328l-0.087,0.326l-0.086,0.328l-0.085,0.327
	l-0.084,0.327l-0.086,0.326l-0.085,0.326l-0.084,0.326l-0.084,0.326l-0.084,0.325l-0.083,0.326l-0.085,0.325l-0.083,0.325
	l-0.084,0.325l-0.081,0.32l-0.152,0.301l-0.188,0.369l-0.15-0.086l-0.053-0.011l-0.037,0.017l-0.047,0.056l-0.027,0.02l-0.035,0.005
	l-0.077-0.009l-0.029,0.006l-0.037-0.007l-0.121-0.057l-0.054-0.004l-0.05,0.036l-0.092,0.126l-0.023,0.02l-0.031,0.027l-0.069,0.02
	l-0.155,0.008l-0.449,0.112l-0.233,0.093l-0.123,0.025l-0.094,0.113l-0.393,0.248l-0.06,0.062l-0.062,0.126l-0.046,0.046
	l-0.03,0.006l-0.076-0.012l-0.039,0.008l-0.105,0.059l-0.251,0.097l-0.069,0.038l-0.06,0.057l-0.104,0.139l-0.058,0.061
	l-0.135,0.105l-0.134,0.077l-0.141,0.034l-0.158-0.022l-0.075-0.021l-0.072-0.006l-0.08,0.015l-0.094,0.042l-0.15,0.107
	l-0.066,0.031h-0.111l-0.146-0.024l-0.065,0.004l-0.116,0.045l-0.014-0.008l-0.015-0.016l-0.11-0.041h-0.047l-0.088,0.024
	l-0.044,0.004l-0.133-0.011l-0.062,0.011l-0.138,0.059l-0.115-0.001l-0.139,0.039l-0.289-0.033l-0.086,0.018l-0.239,0.145
	l-0.035,0.041l-0.091-0.013l-0.068,0.052l-0.103,0.136l-0.13,0.053l-0.062,0.055l0.004,0.084l-0.019,0.062l-0.095,0.04l-0.206,0.052
	l-0.067,0.059l-0.094,0.148l-0.055,0.086l-0.057,0.026l-0.024,0.008l-0.035-0.004l-0.408-0.101l-0.042-0.025l-0.071-0.064
	l-0.039-0.025l-0.059-0.027l-0.026-0.003l-0.338,0.195l-0.147,0.05h-0.174l-0.176-0.063l-0.149-0.117l-0.118-0.157l-0.075-0.18
	l-0.006-0.109l0.009-0.13l-0.005-0.119l-0.05-0.074l-0.086-0.017l-0.172,0.031l-0.09-0.011l-0.119,0.031l-0.23,0.106l-0.125,0.029
	l-0.673,0.032l-0.196,0.036l-0.204-0.039l-0.06,0.01l-0.114,0.049l-0.134,0.031l-0.036,0.029l-0.028,0.041l-0.109,0.104
	l-0.046,0.056l-0.055,0.045l-0.089,0.025l-0.382,0.001l-0.174,0.028l-0.148,0.048l-0.438,0.232l-0.304,0.094l-0.218,0.101
	l-0.07,0.015l-0.07-0.007l-0.071-0.025l-0.04-0.025l-0.077-0.064l-0.037-0.022l-0.033-0.003l-0.018,0.016l-0.021,0.006l-0.035-0.031
	l-0.01-0.063l-0.027-0.015l-0.03,0.005h-0.018l-0.013-0.043l0.002-0.064l-0.005-0.039l-0.032-0.035l-0.233-0.172l-0.096-0.034
	l-0.043-0.025l-0.023-0.027l-0.031-0.063l-0.026-0.028l-0.065-0.039l-0.22-0.091l-0.176-0.104l-0.185-0.078l-0.358-0.054
	l-0.088-0.03l-0.225-0.111l-0.071-0.061l-0.038-0.071l-0.071-0.239l-0.042-0.09l-0.151-0.211l-0.022-0.041l-0.04-0.095l-0.026-0.047
	l-0.024-0.056l0.001-0.049l0.008-0.049l-0.005-0.057l-0.124-0.361l-0.097-0.158l-0.266-0.273l-0.051-0.162l-0.032-0.17l-0.077-0.166
	l-0.066-0.058l-0.081-0.024l-0.081,0.009l-0.149,0.08l-0.162,0.008l-0.188,0.157l-0.315,0.125l-0.418,0.229l-0.116,0.09
	l-0.099,0.152l-0.264-0.62l-0.328-0.443l-0.465-0.398l-0.088-0.045l-0.09-0.006l-0.09,0.02l-0.086,0.029l-0.044,0.024l-0.035,0.024
	l-0.039,0.019l-0.055,0.007l-0.06-0.011l-0.115-0.061l-0.056-0.02l-0.163-0.003l-0.126,0.054l-0.122,0.069l-0.146,0.05l-0.541,0.011
	l-0.151,0.051l-0.089,0.049l-0.081,0.026l-0.083,0.002l-0.089-0.031l-0.093-0.044l-0.045-0.015l-0.021-0.007l-0.068-0.002
	l-0.196,0.045l-0.085,0.006l-0.081-0.027l-0.079-0.076l-0.072-0.06l-0.102-0.032l-0.205-0.018l-0.088,0.01l-0.165,0.048l-0.083,0.01
	l-0.109-0.03l-0.193-0.105h-0.11l-0.123,0.041l-0.037,0.003l-0.063-0.005l-0.003-0.008l0.017-0.027l-0.001-0.066l-0.021-0.1
	l-0.028-0.027l-0.065-0.032l-0.047-0.016l-0.053-0.009l-0.051,0.003l-0.199,0.108l-0.191,0.048l-0.197-0.013l-0.176-0.093
	l-0.946-0.852l-0.187-0.13l-0.2-0.093l-0.183-0.109l-0.074-0.062l-0.068-0.09l-0.035-0.091l-0.025-0.188l-0.035-0.092l-0.004-0.003
	l-0.28-0.266l-0.716-0.174l-0.308-0.233l-0.193-0.287l-0.125-0.121l-0.144-0.035l-0.188,0.006l-0.163-0.038l-0.329-0.165
	l-0.082-0.026l-0.178-0.019l-0.402-0.133l-0.096-0.055l-0.051-0.045l-0.134-0.152l-0.077-0.066l-0.237-0.137l-0.303-0.25
	l-0.167-0.106l-0.167-0.03l-0.172-0.006l-0.168-0.058l-0.314-0.188l-0.272-0.225l-0.081-0.084l-0.067-0.116l-0.052-0.441
	l0.042,0.013l0.09-0.006l0.169,0.03l0.095-0.006l0.04-0.016l0.114-0.073l0.151-0.022l0.045-0.015l0.282-0.163l0.021-0.005h0.048
	l0.026-0.009l0.017-0.021l0.011-0.056l0.018-0.022l0.223-0.197l0.146-0.206l0.086-0.062l0.067,0.004l0.069,0.019l0.164-0.042
	l0.106-0.003l0.104,0.007l0.059,0.025l0.072,0.043l0.213-0.021l0.093,0.042l-0.047,0.058l0.028,0.062l0.065,0.052l0.065,0.026
	l0.293-0.017l0.162-0.084l0.04-0.032l0.144-0.231l0.042,0.015l-0.007-0.064l0.052-0.048l0.069-0.042l0.044-0.045l-0.005-0.02
	l-0.037-0.048l-0.005-0.019l0.016-0.021l0.056-0.055l0.042-0.074l0.078-0.066l0.022-0.039l0.071-0.185l0.024-0.04l0.043-0.002
	l0.045,0.018l0.044,0.027l0.034,0.014l0.041-0.006l0.185-0.077l0.046-0.003l0.044,0.008l0.038,0.011l0.031-0.009l0.127-0.102
	l0.192-0.063l0.383,0.004l0.187-0.036l0.109-0.038l0.077-0.008l0.073,0.014l0.098,0.038l0.078,0.017l0.078-0.001l0.255-0.048
	l0.06-0.02l0.037-0.041l0.05-0.165l0.03-0.061l0.052-0.05l0.085-0.062l0.26-0.376l0.106-0.02l0.085-0.174l0.029-0.038l0.174-0.108
	l0.047-0.05l0.002-0.004l0.025,0.059l0.047,0.041l0.031-0.07l0.063-0.014l0.004-0.021l0.013-0.042l0.004-0.022h0.027l0.065-0.015
	l-0.035-0.027l-0.036-0.013l-0.038,0.002l-0.037,0.016l-0.007-0.07l0.005-0.061l0.026-0.033l0.055,0.001l-0.035-0.084l0.114-0.325
	l0.002-0.126l-0.058-0.052l-0.048-0.021l-0.017-0.039l0.089-0.216l0.047-0.045l0.079-0.01l-0.034-0.061l-0.039-0.006l-0.037,0.012
	l-0.023-0.004l-0.021-0.058l0.003-0.042l0.188-0.847l0.081-0.195l0.114,0.015l0.014-0.045h0.076l0.044-0.076l0.016-0.105
	l-0.009-0.078l-0.028,0.06l-0.011,0.064l-0.02,0.055l-0.058,0.039l0.032-0.246l-0.011-0.021l-0.02-0.026l-0.007-0.029l0.03-0.032
	l0.104-0.059l0.113-0.084l0.057-0.062l0.01-0.047l-0.063-0.194l-0.04-0.067l0.051,0.004l0.03,0.037l0.038,0.117l0.026-0.014
	l-0.124-0.561l0.003-0.158l0.044-0.084l0.001-0.046l-0.051-0.037l-0.032-0.037l0.006-0.06l0.029-0.056l0.031-0.036l-0.112-0.099
	l-0.027-0.058l0.1-0.008l-0.006-0.059l0.028-0.096l0.003-0.055l-0.075,0.025l0.037-0.078l0.144-0.193l0.079-0.178l0.041-0.038
	l0.053,0.007l0.055,0.029l0.054,0.013l0.045-0.051l-0.077-0.03l-0.067-0.042l0.135-0.139l0.062-0.084l0.036-0.076l0.013-0.056
	l-0.006-0.155l-0.047-0.034l-0.016-0.029l0.027-0.03l0.024-0.002l0.032,0.003l0.031-0.003l0.021-0.02l0.002-0.032l-0.012-0.022
	l-0.015-0.01l-0.009,0.004l-0.01,0.009l-0.018-0.036l-0.015-0.042l0.021-0.012l0.151-0.026l0.03-0.011l0.017,0.007l0.014,0.021
	l0.019,0.035l0.018,0.009l0.024-0.013l0.015-0.021l0.124,0.061l0.045,0.008l-0.031-0.104l0.016-0.088l0.048-0.071l0.07-0.058
	l-0.016-0.031l-0.028,0.015v-0.003l-0.001-0.029l0.002-0.012l-0.078-0.043l0.015-0.045l0.045-0.055l0.013-0.074l-0.051,0.038
	l-0.067,0.091l-0.046,0.038l-0.079,0.037l-0.018-0.01l0.009-0.039v-0.053l-0.032-0.112l-0.006-0.083l0.025-0.075l0.057-0.094h-0.09
	l-0.022-0.061l0.006-0.084l-0.012-0.139l0.044-0.059l0.115-0.096l0.185-0.227l0.117-0.087l0.05,0.081l0.16-0.132l0.024-0.026
	l-0.028-0.068l-0.004-0.071l0.025-0.051l0.066-0.011l-0.026-0.092l0.013-0.087l0.045-0.05l0.065,0.02l0.02,0.046l-0.007,0.054
	l-0.018,0.05l-0.005,0.028l0.027,0.038l0.043,0.035l0.021,0.027l0.057,0.035l0.085-0.006l0.082-0.026l0.056-0.023l0.073,0.001
	l0.108,0.138l0.086,0.01l-0.143-0.178l-0.047-0.015l-0.02-0.001l-0.035-0.01l-0.034-0.016l-0.022-0.025l-0.003-0.035l0.02-0.01
	l0.027-0.004l0.019-0.022l0.002-0.227l0.029-0.108l0.082-0.033l0.013-0.019l0.028-0.056l0.007-0.024l-0.059-0.047l0.039-0.06
	l0.044,0.031l0.039-0.017l0.042-0.028l0.062-0.013l-0.071-0.065l0.035-0.029l0.065-0.022l0.02-0.055l0.088-0.026l-0.011-0.179
	l0.08-0.077l0.082,0.021l0.034,0.088l0.034,0.068l0.089-0.045l-0.004,0.058l-0.025,0.115l0.008,0.049l0.032,0.028h0.036l0.038,0.003
	l0.038,0.04l0.077,0.058l0.093-0.032l0.094-0.059l0.077-0.021l0.006-0.065l0.022-0.059v-0.057l-0.055-0.07l0.181-0.036l0.029-0.147
	l-0.056-0.15l-0.071-0.053l-0.076,0.006l-0.012-0.071l0.027-0.095l0.046-0.061l0.057-0.002l0.226,0.119l-0.048-0.088l-0.014-0.083
	l0.007-0.077l0.021-0.078l-0.072,0.044l-0.024-0.013l0.005-0.049l0.02-0.058l0.03-0.044l0.104-0.104l0.046-0.027l-0.06-0.026
	l-0.078,0.01l-0.082,0.028l-0.065,0.03l-0.004-0.094l0.008-0.095l-0.044-0.016l-0.104,0.178l-0.045,0.057l-0.066,0.049l-0.064,0.02
	l-0.136,0.003l0.024-0.042l0.042-0.035l0.055-0.022l0.063-0.002v-0.018l-0.002-0.004l0.002-0.005l0.011-0.016l-0.093-0.008
	l-0.067-0.012l-0.065,0.002l-0.267,0.122l-0.071,0.049l-0.006-0.089l0.086-0.207l0.019-0.097l-0.057-0.169l-0.003-0.044l0.006-0.216
	l-0.051-0.097l-0.16-0.144l-0.053-0.067l-0.035-0.1l-0.029-0.281l-0.131-0.087l-0.069-0.184l-0.044-0.206l-0.056-0.158l-0.021-0.017
	l-0.031-0.015l-0.033-0.021l-0.028-0.035l-0.014-0.055l0.008-0.118l-0.005-0.036l0.024-0.161l0.059-0.209l0.041-0.059l0.014-0.018
	l0.073-0.063l0.175-0.101l0.084-0.069l0.023-0.08l-0.006-0.215l0.014-0.067l0.031-0.094l0.05-0.091l0.067-0.064l0.022-0.045
	l0.057-0.23l0.638-0.899l0.051-0.047l0.321-0.218l0.045-0.084l0.076-0.213l0.078-0.08l0.09-0.034l0.087-0.018l0.088-0.031
	l0.087-0.067l0.182-0.203l0.154-0.121l0.12-0.169l0.079-0.069l0.183-0.077l0.387-0.084l0.18-0.071l0.141-0.111l0.132-0.132
	l0.146-0.11l0.175-0.048l0.139,0.019l0.055-0.007l0.055-0.048l0.02-0.039l0.031-0.087l0.026-0.033l0.107-0.04l0.078-0.004
	l0.154-0.008l0.111-0.066L1276.065,793.065z"/></svg>