<?xml version="1.0" encoding="utf-8"?>
<!-- Generator: Adobe Illustrator 15.0.0, SVG Export Plug-In . SVG Version: 6.00 Build 0)  -->
<!DOCTYPE svg PUBLIC "-//W3C//DTD SVG 1.1//EN" "http://www.w3.org/Graphics/SVG/1.1/DTD/svg11.dtd">
<svg version="1.1" id="Ebene_1" xmlns="http://www.w3.org/2000/svg" xmlns:xlink="http://www.w3.org/1999/xlink" x="0px" y="0px"
	 width="1920px" height="1080px" viewBox="0 0 1920 1080" enable-background="new 0 0 1920 1080" xml:space="preserve">

<path fill="#F4E0B6" stroke="#FFFFFF" d="M1089.355,554.573l-0.012,0.121l0.059,0.113l0.1,0.081l0.108,0.029l0.484-0.016
	l0.065,0.012l0.212,0.125l0.261,0.094l0.061,0.035l0.105,0.087l0.051,0.03l0.146,0.036l0.01,0.003l0.147,0.073l0.073,0.021
	l0.075,0.003l0.147-0.025l0.065-0.023l0.029-0.032l0.013-0.035l0.023-0.008l0.163,0.113l0.088,0.042l0.084,0.02l0.081-0.009
	l0.099-0.04l0.093-0.057l0.023-0.037l0.031-0.103l0.02-0.029l0.042-0.005l0.037,0.021l0.037,0.031l0.042,0.028l0.044,0.016
	l0.235,0.036l0.149,0.049l0.009,0.003l0.264,0.087l0.042-0.007l0.039-0.004l0.162-0.062l0.101-0.008l0.207,0.034l0.224,0.001
	l0.079,0.039l0.055,0.096l0.051,0.167l-0.211,0.156l-0.09,0.097l-0.018,0.028l-0.002,0.056l0.018,0.04l0.023,0.032l0.016,0.042
	l-0.03,0.116l-0.113,0.021l-0.142-0.011l-0.116,0.025l-0.024,0.03l-0.018,0.036l-0.034,0.08l-0.007,0.044l0.034,0.081l0.064,0.043
	l0.004,0.002l0.246,0.075l0.044,0.029l0.013,0.012l0.013,0.12v0.08l0.007,0.036l0.031,0.064l0.036,0.052l0.022,0.052l-0.008,0.07
	l-0.097-0.006l-0.039,0.076l-0.033,0.191l-0.063,0.058l-0.144,0.067l-0.046,0.087l0,0l0,0l-0.014,0.039l-0.077,0.12l-0.016,0.015
	l-0.022,0.023l-0.057,0.02h-0.062l-0.134-0.028l-0.111-0.097l-0.027-0.03l-0.016-0.026l-0.026-0.063l-0.008-0.03l-0.003-0.058
	l0.003-0.027l0.007,0.001l-0.022-0.038l-0.022-0.038l-0.075-0.088l-0.089-0.064l-0.084-0.001l-0.051,0.065l-0.027,0.073
	l-0.017,0.042l-0.03,0.127l-0.008,0.104l0.01,0.062l0.037,0.112l0.008,0.055l-0.016,0.061l-0.029,0.045l-0.02,0.048l0.014,0.065
	v0.001l0.002,0.092l-0.007,0.085l-0.02,0.078l-0.038,0.066l-0.006,0.084l-0.062,0.246l-0.004,0.031l0.006,0.078l0.008,0.031
	l0.029,0.053l0.007,0.02l-0.007,0.013l-0.021,0.081l0.011,0.087l-0.006,0.061l-0.034,0.022l-0.101,0.021l0.062,0.072l0.036-0.042
	l0.008-0.016l0.01,0.072l-0.047,0.028l-0.305,0.068l-0.077,0.034l-0.046,0.06l-0.033-0.027l-0.037-0.006l-0.031,0.019l-0.015,0.038
	l-0.175-0.047l-0.063-0.035l-0.03,0.039l0.024,0.016l0.05,0.007l0.051,0.022l0.025,0.037l0.016,0.039l0.025,0.036l0.054,0.031
	l-0.024,0.049l0.186-0.081l0.091,0.007l0.142,0.161l0.086,0.048l0.093,0.024l0.472,0.041l0.005,0.115l0.02,0.074l0.036,0.079
	l0.049,0.07l0.056,0.046h0.001l0.036,0.018l0.018,0.072l-0.011,0.024l-0.021,0.015l-0.009,0.022l0.064,0.081l0.008,0.031
	l-0.002,0.026l0.007,0.021l0.015,0.026l0.006,0.016l0.016,0.013l0.04,0.014l0.044,0.029l0.051,0.104l0.023,0.041l0,0l-0.077-0.02
	l-0.167-0.067h-0.063l-0.249,0.033l-0.067-0.007l-0.086,0.009l-0.032-0.004l-0.043-0.028l-0.012-0.021l-0.008-0.023l-0.028-0.035
	h-0.017l-0.044-0.013l-0.037-0.02l0.007-0.021l-0.006-0.019l-0.109-0.188l-0.243-0.071l-0.052-0.047l-0.002-0.069l-0.033-0.013
	l-0.045,0.001l-0.084-0.058l-0.11,0.058l-0.046-0.03l-0.027-0.04l-0.021-0.002l-0.02,0.008l-0.025-0.004l-0.082-0.066l-0.064-0.023
	l-0.162-0.031l-0.063-0.043l-0.086-0.12l-0.053-0.042l-0.055-0.005l-0.052,0.024l-0.034,0.042l-0.007,0.043l-0.022-0.013
	l-0.027-0.01l-0.018-0.013l-0.033,0.05l-0.014,0.026l-0.007,0.025l-0.003,0.011l-0.019,0.021l-0.03-0.013l-0.056-0.042l-0.136-0.035
	l-0.071-0.032l-0.027-0.054l-0.024-0.007l-0.04-0.017l-0.024-0.004l-0.013-0.025l-0.021-0.059l-0.075-0.024l-0.06,0.024l0.024,0.088
	l-0.02,0.01l-0.032-0.004l-0.06,0.039l-0.016-0.002l-0.028-0.018l-0.051-0.012l-0.052-0.004l-0.037,0.001l0.001-0.017l-0.002-0.004
	l0.001-0.006l0.008-0.013l-0.099-0.018l-0.043-0.028l-0.008-0.054l0.03-0.03l0.28-0.035l0.039-0.006l0.107,0.005l0.066,0.022
	l-0.008-0.072l-0.03-0.047l-0.141-0.118l-0.02-0.035l-0.018-0.065l-0.036,0.169l-0.12,0.09l-0.331,0.109l0.015,0.029l0.074,0.016
	l0.032,0.126l0.066,0.01l-0.066,0.009l-0.063-0.024l-0.025-0.062l-0.036-0.038l-0.065-0.005l-0.029-0.003l-0.061-0.026l-0.058-0.038
	l-0.05-0.052l-0.036-0.067l-0.048-0.136l-0.045-0.058l0.017-0.042l0.026-0.031l0.035-0.012l0.044,0.005l0.028-0.02l-0.001-0.027
	l-0.023-0.034l-0.041-0.029l0.043-0.063l0.021-0.032l0.032-0.091l-0.003-0.037l-0.006-0.06l-0.056-0.116l-0.084-0.094l-0.082-0.042
	l-0.09-0.033l-0.183-0.118l-0.087-0.075l-0.074-0.083l-0.037-0.067l0.008-0.058l0.022-0.046l0.002-0.049l-0.055-0.068l-0.138-0.106
	l-0.068-0.066l-0.035-0.068l-0.021-0.183l0.048-0.126l0.145-0.114l0.172-0.086l0.126-0.039l-0.201-0.278l-0.053-0.103l-0.002-0.009
	l-0.037-0.131l-0.004-0.124l0.039-0.236l-0.086-0.002l0.011-0.085l0.234-0.449l0.064-0.063l-0.018-0.011l-0.034-0.029l-0.018-0.01
	l0.039-0.052l0.165-0.1l0.081-0.014l0.104,0.018l0.035,0.019l0.014,0.026l0.013,0.029l0.023,0.029l0.048,0.032l0.097,0.048
	l0.005,0.003l0.019,0.016l0.016-0.042l0.007-0.044v-0.045l0.005-0.029l0.002-0.011l0.024-0.035l0.073-0.039l0.013-0.028l-0.17-0.125
	l-0.206-0.197l-0.165-0.084l-0.028-0.006l-0.055,0.048l-0.01-0.021l-0.004-0.038l-0.011-0.028l-0.069-0.04l-0.027-0.003
	l-0.051,0.008l-0.038-0.007l-0.018-0.033v-0.039l0.018-0.034l0.04-0.052l0.03-0.11l0.026-0.052l0.063-0.039l0.061,0.021l0.06,0.043
	l0.062,0.03l0.058-0.006l0.062-0.032l0.045-0.051l0.031-0.129l0.068-0.043L1089.355,554.573z"/></svg>