<?xml version="1.0" encoding="utf-8"?>
<!-- Generator: Adobe Illustrator 15.0.0, SVG Export Plug-In . SVG Version: 6.00 Build 0)  -->
<!DOCTYPE svg PUBLIC "-//W3C//DTD SVG 1.1//EN" "http://www.w3.org/Graphics/SVG/1.1/DTD/svg11.dtd">
<svg version="1.1" id="Ebene_1" xmlns="http://www.w3.org/2000/svg" xmlns:xlink="http://www.w3.org/1999/xlink" x="0px" y="0px"
	 width="1920px" height="1080px" viewBox="0 0 1920 1080" enable-background="new 0 0 1920 1080" xml:space="preserve">

<path fill="#F4E0B6" stroke="#FFFFFF" d="M634.462,647.937l-0.018,0.016l0.056,0.011l0.033,0.028l0.033,0.036l0.06,0.041
	l-0.091,0.01l-0.156,0.078l-0.085,0.033l-0.002,0.032l-0.015,0.047l-0.033-0.02l0.102-0.248l0.04-0.034l0.003-0.037l0.009-0.016
	l0.041-0.012l0.017,0.012l0.009,0.01L634.462,647.937z M638.809,648.895l-0.07,0.021l-0.064-0.014l-0.067-0.007l-0.039-0.014
	l-0.025-0.041l-0.009-0.041l-0.014-0.027l-0.023-0.025l-0.039-0.028l-0.052-0.019l-0.043,0.011l-0.04,0.02l-0.043,0.011
	l-0.176-0.014l-0.123,0.033h-0.039l-0.037-0.023l-0.034-0.035l-0.022-0.033l-0.005-0.013l-0.157-0.034l-0.026-0.02l0.089-0.032
	l0.08-0.017l0.073-0.006l0.072,0.012l0.18,0.076l0.078-0.011l0.07-0.032l0.072-0.02l0.086,0.007l0.1,0.021l0.16,0.052l0.041,0.055
	l0.052,0.045l0.125,0.081L638.809,648.895z M636.084,646.55l-0.141,0.352l-0.039,0.055l0.001,0.015l-0.01,0.077l-0.007,0.013
	l-0.035,0.032l-0.006,0.013l0.012,0.012l0.042,0.018l0.009,0.012l0.018,0.052l0.019,0.029l-0.004,0.036l-0.054,0.077l-0.044,0.003
	l-0.186-0.035l-0.031,0.028l-0.141,0.109l-0.029,0.016l-0.019,0.074l0.02,0.121l-0.021,0.057l-0.031,0.05l-0.012,0.054l0.017,0.033
	l0.054-0.004l0.028,0.016l0.029,0.062l0.146,0.074v0.049l-0.068,0.31l-0.111-0.019l-0.117-0.033l-0.095-0.059l-0.08-0.188
	l-0.179-0.135l-0.069-0.073l-0.012-0.069l-0.009-0.187l-0.043-0.105l-0.054-0.277l0.078-0.275l-0.008-0.058l0.006-0.025l0.065-0.14
	l0.02,0.008l0.092,0.058l0.052,0.016l0.014-0.02l0.14-0.064l0.011,0.001l0.055-0.045l0.035-0.039l0.036-0.03l0.06-0.027h0.052
	l0.096,0.035l0.202-0.013l0.063,0.003l-0.011,0.019l0.032,0.021l0.017-0.04l0.037-0.063l0.019-0.042l0.032,0.021l-0.026,0.033
	l0.026,0.019l0.017-0.024l0.012-0.003l0.014,0.008L636.084,646.55z M635.055,642.861l-0.069-0.035l0.058-0.046l0.08-0.038
	l0.082-0.023l0.072,0.003l0.054,0.03l-0.013,0.035l-0.045,0.044l-0.044,0.062l-0.111-0.016L635.055,642.861z M636.077,642.677
	l-0.011,0.08l-0.071-0.089l-0.055-0.045l-0.045,0.002l-0.033,0.04l-0.015,0.022l-0.034,0.096l-0.046-0.17l-0.027-0.029l-0.078-0.067
	l-0.018-0.032l0.024-0.091l0.074-0.016l0.178,0.052l0.039,0.069l0.068,0.085L636.077,642.677z M635.856,642.157l-0.061-0.007
	l-0.052-0.066l-0.028,0.033l0.049,0.167l-0.107-0.033l-0.221-0.02l-0.088-0.029l-0.033-0.057l-0.014-0.097l0.004-0.104l0.023-0.077
	l0.026,0.019l0.09,0.077l0.364-0.015l0.074,0.086l0.012,0.08L635.856,642.157z M649.949,651.185l-0.031,0.004l-0.052-0.02
	l-0.031-0.05l-0.077-0.005l-0.033,0.037l0.005,0.043l-0.03,0.038l-0.032-0.013l-0.033,0.011l-0.052,0.058l-0.062-0.029l0.05-0.204
	l0.059-0.05l0.025,0.021l0.03-0.031l0.065-0.049l0.018-0.053l0.077-0.058l0.102-0.031l0.036,0.016l0.016,0.019l0.004,0.039
	l-0.008,0.017l-0.017,0.074l-0.057,0.108l0.002,0.056l0.017,0.021L649.949,651.185z M650.333,650.376l0.001,0.082l0.034-0.005
	l0.041-0.035l0.011,0.031l-0.061,0.045l0.016,0.042l-0.033,0.029l-0.047,0.026h-0.055l-0.033-0.114l-0.03-0.108l0.135-0.074
	L650.333,650.376z M651.493,650.877l-0.019,0.06l-0.028,0.059l-0.032,0.048l-0.028,0.034l0.045,0.044l-0.017,0.076l-0.046,0.045
	l-0.056,0.001l-0.053,0.051l-0.033,0.151l-0.115,0.075l-0.067,0.012l-0.031,0.039l-0.051,0.02l-0.051-0.038l-0.004-0.035
	l-0.035-0.014l-0.033-0.014l-0.037-0.012l0.007-0.03l0.012-0.034l-0.036,0.02l-0.063,0.019l-0.074,0.028l-0.029,0.039l-0.042,0.03
	l0.002,0.079l-0.062,0.092l0.009,0.038l0.031,0.021l-0.015,0.021l-0.047,0.006l-0.031-0.073l-0.016-0.065l0.055-0.061l0.054-0.122
	l0.005-0.059l-0.049-0.084l-0.012-0.036l0.012-0.061l0.074-0.058l0.06-0.018l0.076-0.067l0.006-0.039l-0.005-0.066l0.015-0.039
	l0.043-0.022l0.04-0.017l0.025-0.029l0.043-0.091l0.04-0.038l0.048-0.146l0.066-0.054l0.056,0.034l0.017,0.05l0.234,0.034
	l0.009,0.062l-0.005,0.027l-0.01,0.027l0.035-0.019l0.033-0.055l0.033-0.011l0.021,0.052l0.024,0.06V650.877z M649.721,647.43
	l0.019,0.026l0.017,0.004l-0.008,0.016l-0.017,0.004l-0.009,0.035l0.009,0.025l0.019,0.025l-0.017,0.026l-0.03,0.02l-0.025-0.006
	l0.004-0.032l-0.004-0.026l-0.037-0.013l-0.021-0.026l0.011-0.034l0.038-0.037L649.721,647.43z M642.198,640.604l0.018,0.022
	l0.018-0.003l0.019,0.014l0.014,0.03l0.01,0.029l0.003,0.029l-0.008,0.02l0.003,0.02l-0.013,0.01l-0.019-0.013l-0.012-0.023
	l-0.032-0.028l-0.041-0.033l-0.02-0.015l-0.024-0.007l0.019-0.032l0.007-0.025l0.005-0.023l0.019-0.009l0.033,0.019L642.198,640.604
	z M640.354,639.195l-0.049-0.002l-0.019-0.022l-0.017-0.054l-0.017-0.045l0.006-0.049l0.032-0.032l0.071-0.025l-0.004-0.038
	l0.02-0.018l0.017,0.03l-0.005,0.038l0.013,0.031l0.027,0.022l-0.015,0.046l-0.016,0.036l0.02,0.031l0.021,0.035l-0.031,0.022
	L640.354,639.195z M640.41,637.837l0.028,0.029l0.04,0.02l0.057,0.009l0.025,0.048l0.022,0.161l0.067,0.121l0.023,0.07l-0.006,0.093
	l-0.073-0.066l-0.116-0.023l-0.124,0.02l-0.121,0.076l-0.014-0.021l-0.005-0.078l0.004-0.003l0.012,0.004l0.023-0.016l0.084-0.099
	l0.017-0.05l-0.022-0.053l0.023-0.028l0.036,0.066l0.037-0.116l-0.038-0.073l-0.065-0.067l-0.05-0.094l0.022-0.026l0.042-0.006
	l0.03,0.007l0.016,0.02l0.001,0.037L640.41,637.837z M640.126,637.704l-0.048,0.022l0.026-0.139l-0.013-0.151l-0.07-0.296
	l0.189-0.013l0.094,0.019l0.083,0.051l-0.027,0.253l-0.063,0.129l-0.122,0.031l-0.027,0.033l0.001,0.032l-0.003,0.016
	L640.126,637.704z M652.676,644l-0.01,0.057l-0.026,0.033l-0.063-0.003l-0.022,0.026l0.027,0.045l-0.007,0.012l-0.011,0.042h0.033
	h0.021l0.023-0.004l0.032-0.019l0.03,0.019l0.01,0.036l0.021,0.038l0.064,0.081l0.031-0.038l0.094-0.062l-0.008,0.053l0.016,0.034
	l0.034,0.016h0.048l0.128,0.142l0.215,0.178l0.208,0.245l0.1,0.14l0.174,0.15l0.112,0.008l0.099,0.025l0.092,0.068l0.066,0.054
	l0.088,0.028l0.098,0.026l0.142,0.072l0.171,0.07l0.189,0.101l0.028,0.07l-0.038,0.049l-0.104-0.006l-0.044-0.043l-0.068,0.006
	l-0.049-0.027l-0.14-0.065l-0.082-0.03l-0.109,0.05l-0.068,0.109l-0.09,0.154l0.055,0.072l0.082,0.027l0.027,0.049l0.062,0.025
	l0.061,0.026l0.052,0.021l0.038,0.04l0.058,0.037l0.049,0.077l0.033,0.044l0.012,0.056l0.011,0.048l-0.006,0.046l0.037,0.015
	l0.057,0.03l0.033,0.023l0.034,0.037l0.057,0.027l0.053-0.026l0.055,0.02l0.063,0.069l0.139,0.053l0.066-0.02l0.061,0.061
	l0.054,0.023l0.061,0.011l0.078,0.008l-0.001,0.085l0.042,0.076l0.059,0.029l0.109,0.129l0.102,0.05l0.022,0.079l0.06,0.053
	l0.08,0.013l0.08-0.011l0.091,0.018l0.05,0.057l0.039,0.107l0.041,0.063l0.139,0.087l0.031,0.095l0.06,0.01l0.047,0.061l0.009,0.072
	l0.014,0.072l0.073,0.127l0.023,0.055l0.044,0.058l0.091,0.091l0.049,0.105l0.024,0.089l0.042,0.073l0.026,0.045l0.037,0.029
	l0.042,0.051l0.029,0.068l0.036,0.081l0.042,0.094l0.057,0.054l0.075,0.03l0.027,0.042l0.028,0.063l0.048,0.042l0.039,0.098
	l-0.002,0.082l0.089,0.095l0.12,0.105l0.057,0.081l0.019,0.075l-0.028,0.067l0.013,0.158l0.049,0.042l0.046,0.084l0.014,0.254
	l-0.019,0.161l-0.001,0.112l-0.011,0.136l0.067,0.193l0.025-0.076l0.023-0.064l0.031-0.133l0.047-0.07l0.045,0.084l-0.023,0.135
	l-0.003,0.07l0.053,0.154l-0.062,0.108l0.005,0.076l0.028,0.065l0.02,0.097l-0.025,0.061v0.071l0.017,0.068l-0.018,0.048
	l-0.102,0.054l0.008,0.148l-0.046,0.175l0.006,0.077l0.067-0.012l0.011,0.02l-0.042,0.066l0.042,0.104l0.023,0.136l0.008,0.173
	l0.052,0.089l0.006-0.05l-0.007-0.045l-0.001-0.045l0.022-0.051l0.037-0.007l0.016,0.07l0.001,0.085l-0.007,0.039l0.05,0.182
	l-0.077,0.066l0.027,0.118l0.081-0.061l0.036,0.035l-0.021,0.098l-0.069,0.064l-0.06,0.062l-0.057,0.04l0.014,0.084l0.061,0.178
	l0.061,0.116l0.12,0.112l0.139,0.071l0.118-0.002v0.031l0.007,0.031l0.015,0.027l0.021,0.025l-0.052,0.059l-0.069,0.005
	l-0.074-0.035l-0.08-0.028l-0.104,0.003l-0.03,0.03l-0.014,0.058l-0.055,0.083l-0.136,0.078l-0.221,0.058l-0.085,0.023l-0.136,0.109
	l-0.078,0.103l0.019,0.049l0.137,0.068l0.053,0.069l0.014,0.065l-0.023,0.17l-0.057,0.193l-0.197,0.329l-0.084,0.182l-0.011,0.105
	l0.038,0.056l0.054,0.038l0.036,0.059l-0.003,0.066l-0.062,0.26l-0.019,0.238l-0.007,0.086l-0.063,0.326l-0.174,0.406l-0.074,0.113
	l-0.022,0.084l0.011,0.065l0.02,0.063l0.007,0.071l-0.021,0.093l-0.038,0.003l-0.158-0.102l-0.15-0.052l-0.181-0.039l-0.186-0.01
	l-0.163,0.039l-0.306,0.189l-0.252,0.09l-0.057,0.046l-0.042,0.168l0.022,0.143l-0.037,0.1l-0.217,0.041l-0.9,0.019l-0.353,0.084
	l-0.178,0.024l-0.106-0.05l-0.006-0.081l0.12-0.26l0.014-0.079l0.009-0.243l-0.004-0.015l-0.029-0.032l-0.003-0.021l0.013-0.016
	l0.049-0.029l0.01-0.011l-0.003-0.076l-0.069-0.325l-0.025-0.053l-0.148-0.004l-0.154,0.148l-0.126,0.204l-0.068,0.164l-0.054,0.259
	l-0.062,0.105l-0.129,0.093l-0.127,0.043h-0.123l-0.106-0.043l-0.085-0.089l-0.537,0.41l-0.631,0.483l-0.002-0.004l-0.074-0.088
	l-0.034-0.196v-0.357l-0.029-0.095l-0.004-0.061l0.024-0.061l0.046-0.04l0.053-0.038l0.044-0.042l0.015-0.058l-0.01-0.035
	l-0.018,0.002l-0.022,0.013l-0.022,0.001l-0.022-0.036l0.012-0.035l0.027-0.019l0.019,0.016l0.012-0.115l-0.016-0.033l-0.07,0.011
	l-0.027-0.017l-0.008-0.188l-0.02-0.107l-0.03-0.06l0.001-0.028l0.023-0.051l0.013-0.056l-0.028-0.046l-0.011-0.037l0.014-0.059
	l0.041-0.107l-0.027-0.016l-0.071,0.056l0.023-0.05l0.12-0.161l0.041-0.096l-0.032-0.046l-0.07,0.011l-0.071,0.073l0.023-0.073
	l0.04-0.037l0.046-0.029l0.039-0.05l0.02-0.059l0.001-0.036l-0.015-0.078l0.004-0.183l-0.024-0.088l-0.074-0.063l0.048-0.043
	l0.01-0.05l-0.017-0.049l-0.032-0.04l0.108-0.061l0.07-0.048l0.042-0.062l0.028-0.094l0.029-0.286l0.02-0.065l0.071-0.168v-0.18
	l-0.024-0.174l0.001-0.155l0.051-0.172l0.076-0.164l0.04-0.056l0.05-0.045l0.026-0.051l0.035-0.191l0.033-0.063l0.088-0.07
	l0.114-0.05l0.074,0.001l-0.062,0.177l0.04,0.065l0.077,0.034l0.083-0.013l0.071,0.143l0.234,0.016l0.275-0.071l0.189-0.124
	l0.063-0.096l0.02-0.07l-0.006-0.063l-0.016-0.074l-0.008-0.229l-0.026-0.063l0.026-0.033l0.105,0.085l0.042,0.019h0.081
	l0.025-0.033l-0.014-0.028l-0.003-0.021l0.003-0.021l0.001-0.029l0.045,0.007l0.011,0.004l0.051-0.033l0.017,0.048l0.012,0.078
	l0.014,0.036l0.029,0.035l0.034,0.02l0.07,0.028l0.021-0.013l0.11-0.042l0.022-0.004l0.087-0.126l0.042-0.044h0.019l0.143-0.033
	l0.049-0.031l0.038-0.033l0.069-0.087l0.036-0.014l0.056,0.005l0.044,0.02l0.003,0.031l-0.104,0.175l-0.018,0.044l0.013,0.064
	l0.04,0.082l0.051,0.08l0.05,0.051l0.028,0.06l-0.016,0.09l-0.089,0.259l-0.003,0.086l0.021,0.077l0.052,0.056l0.027,0.005
	l0.057,0.014l0.044,0.03l-0.015,0.086l0.011,0.042l0.024,0.042l0.032,0.029l0.058,0.036l0.021-0.026l-0.054-0.058l-0.032-0.072
	l-0.009-0.08l0.013-0.073l0.18,0.177l0.081,0.113l0.006,0.132l0.059,0.122l-0.002,0.046l-0.046,0.069l-0.023,0.056l0.002,0.049
	l0.024,0.051l0.067,0.001l0.028,0.057l-0.01,0.085l-0.043,0.086l-0.009,0.068l0.053,0.059l0.084,0.023l0.087-0.037l-0.121-0.074
	l-0.005-0.296l-0.084-0.033l0.001-0.425l-0.016-0.061l-0.035-0.077l-0.325-0.309l-0.063-0.096l-0.025-0.11l0.017-0.116l0.061-0.112
	l0.057-0.252l0.065-0.138l0.115-0.025l-0.021-0.06l-0.018-0.077l-0.007-0.082l0.009-0.079l0.038-0.086l0.044-0.033l0.047-0.015
	l0.043-0.027l0.036-0.061l-0.013-0.029l-0.031-0.033l-0.016-0.073l0.018-0.062l0.029-0.045l0.012-0.043l-0.028-0.057l-0.014,0.052
	l-0.083,0.115l-0.011,0.056l0.026,0.074l0.019,0.017l-0.009,0.016l-0.115,0.144l-0.022,0.044l-0.053,0.181l-0.031,0.051
	l-0.051,0.029l-0.027-0.016l0.028-0.191l0.002-0.101l-0.014-0.063l-0.067-0.042l-0.085,0.003l-0.094,0.043l-0.086,0.086
	l-0.078,0.052l-0.104,0.013l-0.106-0.017l-0.086-0.037l-0.025-0.037l0.011-0.045l0.031-0.041l0.033-0.026l0.047-0.014l0.173,0.012
	l0.005,0.027l0.006,0.014l0.021,0.029l0.119-0.142l0.082-0.148l0.114-0.285l-0.031-0.02l-0.079,0.044l-0.01,0.055l0.013,0.06
	l-0.006,0.065l-0.067,0.074l-0.082,0.042l-0.061,0.039l-0.007,0.069l-0.026,0.032l-0.02,0.001l-0.021-0.003l-0.04-0.009l0.008-0.049
	l-0.009-0.035l-0.014-0.03l-0.003-0.026l0.017-0.05h0.011l0.015,0.013l0.033-0.011l0.112-0.056l0.028-0.045l-0.049-0.067
	l-0.022,0.068l-0.029,0.02l-0.035,0.002l-0.039,0.011l-0.152,0.086l-0.077-0.034v-0.073l0.072-0.166l-0.058,0.013l-0.048,0.053
	l-0.129,0.054l-0.136,0.027l-0.077-0.02l0.019-0.1l0.16-0.289l0.037-0.109l0.04-0.021l0.034-0.023l-0.027-0.017l-0.023,0.03
	l-0.032-0.02l0.071-0.093l-0.026-0.015l-0.101,0.098l-0.093,0.269l-0.124,0.24l0.027,0.117l-0.039,0.086l-0.317,0.187l0.012-0.05
	l-0.015-0.039l-0.025-0.038l-0.004-0.008l-0.015-0.031l-0.001-0.188l-0.025-0.059l0.065-0.039l0.059-0.082l0.042-0.092l0.015-0.076
	l-0.051,0.006L653.133,652l-0.033,0.027l-0.033,0.035l0.014-0.055l0.001-0.091l0.021-0.063l0.046-0.063l0.148-0.13l0.031-0.096
	l0.009-0.252l-0.006-0.087l0.061,0.043l0.036,0.045l0.037,0.032l0.07,0.009l-0.027-0.101l0.013-0.061l0.126-0.149l-0.206-0.243
	l0.075-0.054l0.026-0.015l-0.026-0.021l-0.02-0.003l-0.037,0.013l-0.016-0.045l-0.035-0.02l-0.042-0.006l-0.036-0.012l-0.021-0.046
	l0.014-0.068l0.045-0.132l0.1-0.013l0.085-0.065l0.066-0.094l0.044-0.094l-0.032-0.021l-0.062,0.067l-0.054,0.103l-0.052,0.06
	l-0.054-0.05l-0.134,0.035l0.006-0.26l-0.119-0.071l-0.042-0.106l0.062-0.241l-0.02-0.104l0.024-0.029l0.031,0.02l0.024-0.029
	l-0.048-0.059l-0.007-0.066l0.004-0.069l-0.01-0.069l-0.024,0.094l-0.038,0.063l-0.062,0.026l-0.097-0.008l-0.073-0.031l-0.03-0.043
	l-0.004-0.154l0.024-0.089l0.05-0.095l0.034-0.086l-0.323-0.653l-0.182-0.192l-0.047-0.147l0-0.036l0.029-0.046l0.032-0.016
	l0.036-0.016l0.041-0.035l0.074-0.089l0.053-0.082l0.004-0.068l-0.074-0.059l0.026-0.034l0.097,0.053l0.1,0.005l0.096-0.029
	l0.083-0.058l0.027,0.018l-0.01,0.082l0.043,0.024l0.113-0.015l0.111,0.024l0.057,0.002l0.05-0.026l-0.038-0.003l-0.061-0.032
	l-0.043-0.01l-0.046,0.006l-0.102,0.025h-0.027l-0.023-0.034l0.01-0.034l0.005-0.031l-0.043-0.025l-0.044,0.006l-0.114,0.046
	l-0.038,0.003l-0.018,0.002l-0.03,0.012l-0.04,0.006l-0.048-0.017l-0.042-0.022l-0.038-0.013l-0.035,0.006l-0.034,0.029l0.003,0.046
	l0.041,0.051l0.02,0.07l-0.061,0.101l-0.062,0.041l-0.103,0.046l-0.1,0.014l-0.055-0.056l-0.017-0.032l-0.08-0.094l0.01-0.022
	l0.007-0.048l-0.012-0.026l-0.052,0.045l-0.091-0.022l-0.293-0.277l-0.128-0.049l-0.027-0.018l0.023-0.03l-0.131-0.032l-0.221-0.178
	l-0.136-0.012l-0.015-0.053l-0.042-0.021l-0.055-0.011l-0.085-0.031l-0.068-0.016l-0.036-0.015l-0.039-0.01l-0.026,0.014
	l-0.019,0.02h-0.021l-0.024,0.007l-0.18-0.001l-0.04,0.033l-0.026,0.039l-0.031,0.024l-0.057-0.015l-0.028,0.176l-0.025,0.062
	l-0.024-0.077l-0.013-0.113l0.008-0.119l0.037-0.092l-0.026-0.017l-0.015,0.028l-0.005,0.021l-0.003,0.029l-0.021,0.027
	l-0.027-0.018l-0.056,0.129l-0.095,0.081l-0.099,0.007l-0.068-0.098l-0.223-0.09l-0.087-0.006l-0.019,0.065l-0.021,0.028
	l-0.034-0.048l-0.014-0.039l-0.021-0.026l-0.057-0.009l0-0.022l0-0.011l-0.007-0.01l-0.024-0.022l-0.024,0.029v0.022l-0.011,0.026
	l-0.008,0.031l-0.063-0.061l-0.099-0.008l-0.107,0.024l-0.087,0.042l-0.085,0.073l-0.191,0.273l-0.011,0.03l0.009,0.026l0.014,0.021
	l-0.002,0.021l-0.026,0.024l-0.028,0.019l-0.033,0.015l-0.037,0.028l-0.046,0.026l-0.05,0.02l-0.05,0.016l-0.027,0.002l-0.075-0.009
	l-0.063-0.022l-0.016,0.014l-0.011,0.024l-0.024,0.011l-0.089-0.028l-0.099-0.008l0.011,0.09l0.119,0.126l0.183,0.032l0.183,0.016
	l0.071,0.004l0.032-0.012l0.021,0.013l-0.028,0.038l-0.041,0.022l-0.236,0.023l-0.299,0.048l-0.108-0.02l-0.178-0.042l-0.195-0.063
	l-0.066,0.022l-0.031,0.054l-0.036,0.028l-0.025,0.007l-0.029-0.006l-0.057-0.02l-0.024-0.004l-0.115,0.021l-0.048,0.003
	l-0.046-0.016l-0.038,0.003l-0.108,0.058l-0.037,0.004l-0.022,0.012l-0.156,0.022l-0.468,0.01l-0.267,0.007l-0.277-0.022
	l-0.429-0.032l-0.169-0.029l-0.228-0.104l-0.035-0.028l-0.039-0.056l-0.022-0.019l-0.047-0.014l-0.105-0.01l-0.043-0.013
	l-0.094-0.105l-0.025-0.074l-0.002-0.048l0.039-0.007l-0.057-0.011l-0.019,0.018l-0.012,0.028l-0.042,0.02l-0.122,0.002
	l-0.498,0.102l-0.101,0.059l-0.33,0.435l-0.048,0.048l-0.022,0.008l-0.057,0.024l0.042,0.078l-0.037,0.105l-0.05,0.1l0.007,0.064
	l0.053,0.054l0.106,0.18l0.021,0.068l0.111,0.139l-0.038,0.218l-0.088,0.227l-0.043,0.163l0.143,0.601l0.066,0.413l-0.018,0.769
	l-0.103,0.509l-0.054,0.165l-0.074,0.086l-0.206,0.129l-0.064,0.017l-0.064-0.021l-0.122-0.066l-0.042-0.016l-0.404-0.077
	l-0.275-0.174l-0.08-0.001l-0.033-0.06l-0.095-0.104l-0.01-0.064l-0.03-0.018l-0.055-0.006l-0.174-0.046l-0.025,0.03l0.062,0.028
	l0.055,0.018l0.054,0.009h0.056l0.007,0.046l-0.401-0.094l-0.187,0.013l-0.113,0.108l-0.028,0.175l-0.048,0.033l-0.121-0.053
	l-0.037-0.012h-0.053l-0.049,0.008l-0.028,0.015l-0.052,0.042h-0.043l-0.048-0.015l-0.067,0.002l-0.049,0.025l-0.025,0.034
	l-0.027,0.023l-0.057,0.004l-0.036-0.018l-0.062-0.079l-0.042-0.036l-0.595-0.271l-0.037-0.015l-0.556-0.211l-0.365-0.21
	l-0.07-0.083l-0.031-0.018l-0.044,0.011l-0.03-0.006l-0.015-0.022l-0.001-0.04l-0.03-0.02l-0.11,0.023l-0.025-0.063l0.028-0.163
	l-0.008-0.035l-0.015-0.041l-0.026-0.042l-0.036-0.033l-0.031-0.041l0.024-0.033l0.046-0.019l0.036,0.001l0.034-0.01l0.075-0.099
	l0.034-0.035l0.048-0.017l0.081-0.009l0.036-0.01l0.065-0.051l0.071-0.079l0.043-0.086l-0.056-0.142l0.07-0.083l0.162-0.108
	l0.025-0.071l-0.016-0.275l-0.007-0.018l-0.008-0.054l0.007-0.046l0.079,0.003l0.04-0.032l0.042-0.044l0.048-0.026l0.049-0.049
	l0.009-0.088l-0.012-0.093l-0.019-0.059l0.025-0.031l0.033,0.021l0.024-0.03l-0.037-0.349l-0.022-0.052l-0.026-0.031l-0.004-0.026
	l0.041-0.038l0.054-0.026l0.054-0.007l0.052,0.017l0.042,0.048l0.01-0.052l-0.018-0.07l-0.031-0.064l-0.03-0.036l0.011-0.027
	l0.191-0.081l-0.051-0.026l-0.038-0.033l-0.025-0.034l-0.012-0.036l0.019,0.007l0.011,0.009l0.011-0.002l0.014-0.021l-0.085-0.084
	l0.011-0.09l0.058-0.066l0.059-0.011l0.032,0.006l0.039-0.007l0.047-0.002l0.054,0.02l0.055,0.035l0.051,0.02l0.049-0.008
	l0.052-0.054l-0.027-0.017l-0.146-0.007l0.067-0.139l0.235-0.268l-0.241,0.116l-0.115,0.018l0.02-0.117l-0.026-0.017l-0.03,0.053
	l-0.013,0.045l0.006,0.042l0.023,0.041l-0.025,0.03l-0.198-0.126l-0.034-0.036l-0.02-0.076l-0.046-0.044l-0.083-0.103l0.036-0.086
	l0.042-0.071l-0.066-0.067l0.029,0.047v0.023l-0.021,0.031l-0.074-0.018l-0.019,0.042l0.022,0.116l0.043,0.089l0.009,0.014
	l-0.039,0.035l-0.04,0.023l-0.029,0.022l-0.046,0.206l-0.138,0.089l-0.176,0.033l-0.151,0.009l0.011-0.048l0.015-0.024l0.021-0.01
	l0.029-0.01l0.028-0.032l-0.059-0.043l-0.064-0.035l-0.028,0.033l0.036,0.042l0.004,0.044l-0.018,0.113l-0.078-0.016l-0.022-0.02
	l-0.021-0.042l-0.012,0.073l-0.001,0.059l0.027,0.016l0.084,0.007l0.086,0.014l-0.022,0.063l-0.179,0.182l-0.034,0.058l-0.023,0.032
	l-0.043,0.032l-0.034,0.011l-0.089,0.01l-0.044,0.017l-0.033-0.022l-0.015-0.05l-0.078-0.167l-0.028-0.025l0.022-0.071l-0.037-0.055
	l-0.103-0.064l-0.278-0.335l-0.129-0.064l0.024-0.063l0.008-0.064l-0.006-0.056l-0.018-0.044l-0.124-0.039l-0.121-0.094
	l-0.063-0.105l0.048-0.069l0.047,0.013l0.118,0.008l0.088-0.016l-0.13-0.161l-0.061-0.017l-0.07,0.074l-0.04-0.136l-0.037-0.052
	l0.026-0.031l0.062-0.021l0.006-0.052l-0.007-0.066l0.02-0.063l0.067-0.068l0.06-0.035l0.128-0.038l0.024-0.031l-0.013-0.04
	l-0.026-0.029l-0.036-0.013l-0.047,0.006l-0.028-0.019l-0.007-0.052l0.026-0.034l0.07-0.007l0.025-0.032l-0.018-0.043l-0.063-0.042
	l0.07-0.061l0.066-0.071l0.06-0.025l0.053,0.078l0.021-0.047l0.005-0.038l-0.015-0.094l0.048-0.02l0.046-0.069l0.062-0.044
	l-0.072-0.012l-0.021-0.022l-0.011-0.001l-0.046,0.056l-0.031,0.076l-0.021,0.036l-0.025,0.006l-0.029-0.027l-0.01-0.027
	l0.006-0.034l0.023-0.035l0.026-0.059l0.011-0.157l0.005-0.062l0.077-0.207l0.009-0.062l-0.083,0.052l-0.036,0.032l-0.035,0.045
	l-0.007-0.074l0.053-0.065l0.043-0.066l-0.036-0.08l0.027-0.035l0.019,0.047l0.027,0.03l0.034,0.015l0.043-0.012l0.03,0.019
	l0.004,0.022l0.005,0.011l0.023,0.038l0.08-0.37l0.004-0.184l0.014-0.097l0.056-0.088l-0.028-0.019l-0.065,0.034l-0.052,0.042
	l-0.018,0.045l0.036,0.048l-0.059,0.021l-0.125,0.029l-0.064,0.022l-0.027-0.018l-0.028-0.111l-0.229-0.355l-0.019-0.048
	l-0.146-0.161l-0.056-0.048l-0.022-0.059l0.072-0.053l0.173-0.074l-0.067-0.018h-0.09l-0.093,0.022l-0.07,0.047l-0.038-0.005
	l-0.029-0.075l-0.026-0.139l-0.104,0.006l-0.135-0.1l-0.106-0.138l-0.023-0.104l-0.028-0.017l-0.075,0.075l-0.314,0.173
	l-0.003-0.016l-0.01-0.021l-0.005-0.005l-0.025,0.03l-0.027-0.018l0.127-0.077l0.026-0.032l-0.052-0.013l0.035-0.032l0.03-0.022
	l0.03-0.007l0.038,0.01l0.028-0.034l-0.063-0.032l-0.113-0.005l-0.07-0.027l-0.026-0.037l-0.006-0.094l-0.031-0.045l0.026-0.029
	l0.028,0.007l0.034-0.003l0.029,0.003l0.063-0.17l0.047-0.064l0.062-0.026l0.024-0.029l-0.008-0.036l0.013-0.025l0.03-0.018
	l0.041-0.011l-0.004,0.014l-0.012,0.012l-0.003,0.011l0.024,0.012l0.028-0.071l0.043-0.042l0.063-0.009l0.084,0.028l-0.1-0.069
	l-0.057-0.03h-0.036l-0.191,0.1l-0.026,0.021l-0.079-0.062l-0.042-0.071l0.016-0.077l0.098-0.08l-0.099-0.015l-0.097-0.027
	l-0.082-0.046l-0.053-0.074l-0.016,0.035l-0.043,0.067l-0.015,0.034l-0.079-0.034l-0.18-0.016l-0.069-0.021l-0.063-0.077
	l-0.021-0.089l0.035-0.058l0.105,0.022l0.022-0.026l-0.024-0.04l0.001-0.039l0.023-0.039l0.042-0.042l-0.072,0.006l-0.053,0.049
	l-0.067,0.043l-0.112-0.015l-0.026,0.029l-0.001,0.036l-0.008,0.042l-0.014,0.042l-0.019,0.038l-0.098-0.035l-0.03-0.021
	l-0.022-0.041l-0.13-0.052l-0.14-0.164l-0.204-0.32l-0.131-0.137l-0.174-0.113l-0.194-0.088l-0.393-0.105l-0.197-0.011l-0.195,0.04
	l-0.198,0.112l-0.166,0.174l-0.127,0.204l-0.151,0.366l-0.024,0.027l-0.106,0.021l-0.089,0.056l-0.071,0.013l-0.05-0.107l0,0
	l0.113-0.083l0.191-0.182l0.199-0.656l0.099-0.152l0.009-0.064l-0.042-0.09l-0.036-0.032l-0.071-0.013l-0.026-0.02l-0.009-0.034
	l0.011-0.092l-0.002-0.039l-0.062-0.151l-0.004-0.069l0.052-0.051l0.065-0.007l0.296,0.018l0.353-0.058l0.182,0.019l0.157,0.042
	l0.163,0.019l0.199-0.055l0.151-0.103l0.144-0.146l0.235-0.32l0.079-0.156l0.042-0.148l0.013-0.149l-0.007-0.241l0.01-0.083
	l0.031-0.075l0.061-0.062l0.068-0.014l0.2,0.004l0.08-0.02l0.051-0.061l-0.016-0.043l-0.004-0.032l0.09-0.029l0.083-0.003
	l0.605,0.11l0.198,0.007l0.142-0.058l0.008-0.004l0.018-0.052l0.047-0.261l-0.025-0.077l-0.141-0.195l-0.077-0.276l-0.061-0.106
	l-0.013-0.031l0.004-0.04l0.016-0.042l0.012-0.042l-0.011-0.042l-0.04-0.025l-0.177-0.032l0.041-0.049l0.597-0.713l0.437-0.521
	l0.3-0.36l0.083-0.075l0.087-0.036l0.105,0.024l0.257,0.121l0.096,0.006l0.037-0.031l-0.009-0.023l-0.021-0.028l0.003-0.038
	l0.071-0.136l0.026-0.126l0.042-0.035l0.107-0.035l0.138-0.015l0.087,0.043l0.165,0.262l0.053,0.27l0.028,0.042l0.048,0.007
	l0.002,0.078l-0.033,0.141l0.003,0.079l0.026,0.048l0.056,0.071l0.068,0.067l0.064,0.028l0.075-0.037l0.158-0.152l0.07-0.026
	l0.057,0.053l0.037,0.079l0.035,0.018l0.09-0.19l0.024,0.063l0.141,0.594l0.04,0.42l0.088,0.193l0.177-0.003l-0.072,0.067
	l-0.068,0.045l-0.289,0.126l-0.052,0.042l-0.037,0.067l0.003,0.064l0.022,0.063l0.007,0.057l-0.042,0.045l-0.098,0.009l-0.102-0.08
	l-0.051,0.042l-0.049,0.02l-0.012,0.025l0.013,0.022l0.029,0.012l0.019,0.057l-0.005,0.074l-0.022,0.076l-0.036,0.062l-0.012,0.055
	l0.075,0.196l0.03,0.02l0.074-0.029l0.059,0.027l0.038,0.002l0.015-0.112l0.044,0.053l-0.015,0.058l-0.032,0.061l-0.004,0.058
	l0.037,0.043l0.049,0.003l0.054-0.036l0.051-0.073l0.03,0.02l-0.044,0.061l0.006,0.046l0.032,0.027l0.03-0.005l0.046-0.052
	l0.04-0.032h0.029l0.008,0.051l0.015-0.012l0.01-0.011l0.01-0.003l0.019,0.016l-0.025,0.043l-0.014,0.039l-0.004,0.035l0.003,0.038
	l0.029,0.02l0.025-0.029l0.03,0.02l-0.066,0.058l-0.092,0.123l-0.07,0.036l-0.065-0.166l-0.047-0.07l-0.103-0.081l-0.076,0.003
	l-0.077,0.067l-0.055,0.089l-0.01,0.069l-0.023,0.026l-0.016-0.025l-0.05-0.059l-0.029,0.077l0.059,0.121l-0.015,0.061l-0.269,0.265
	l-0.015-0.018l-0.009-0.013l-0.006-0.016l-0.006-0.023l0.015,0.12l0.063,0.116l0.096,0.077l0.11,0.007l0.113,0.151l0.026,0.068
	l-0.031,0.035l-0.018,0.139l0.002,0.038l-0.002,0.022l-0.018,0.033l0.002,0.024l0.013,0.017l0.052,0.026l0.079,0.058l0.26,0.069
	l0.104,0.054l0.036,0.059l0.02,0.061l0.057,0.061l0.076,0.026l0.095,0.003l0.079-0.027l0.028-0.056l0.065,0.01l0.039,0.025
	l0.044,0.061l-0.005,0.022l0.011,0.062l0.028,0.053l0.045-0.014l0.053,0.016l0.158,0.282l0.108,0.012l0.084-0.062l0.129-0.184
	l-0.154-0.354l0.037-0.323l-0.008-0.063l-0.035-0.062l-0.033-0.109l-0.016-0.106l0.016-0.051l0.066,0.045l0.086,0.099l0.095,0.075
	l0.091-0.022l-0.086-0.156l-0.026-0.093l0.071-0.028l0.089,0.057l0.028,0.104v0.188l0.037,0.141l0.001,0.03l-0.037,0.032
	l-0.044-0.011l-0.04-0.035l-0.02-0.035l-0.024,0.029v0.064l0.003,0.061l-0.032,0.077l0.021,0.032l0.057,0.038l0.091,0.076
	l0.06,0.048l0.012,0.187l0.049,0.064l-0.056,0.185l0.004,0.035l0.023,0.083l-0.049,0.538l0.019,0.299l0.039,0.111l-0.007,0.056
	l0.005,0.081l0.014,0.076l0.023,0.043l0.031,0.032l0.058,0.077l0.052,0.034l0.098,0.024l0.188,0.189l0.065,0.017l0.122,0.077
	l0.047,0.132l0.22,0.164l0.191,0.074l0.24,0.136l0.183,0.085l0.21,0.102l0.209,0.088l0.02,0.038l0.046,0.017l0.063-0.001
	l0.068-0.019l0.43,0.104l0.442,0.074l0.095,0.02l0.155,0.108l0.118,0.035l0.084-0.027l0.071-0.018l0.185-0.061l0.099-0.031h0.065
	l0.026-0.004l0.039-0.022l0.048-0.016l0.049,0.012l0.126-0.035l0.139,0.017l0.232,0.007l0.079,0.013l0.127-0.026l0.351,0.032
	l0.417,0.068l0.532,0.133l0.527,0.279l0.083,0.02l0.205,0.007l0.057,0.009l0.163,0.08l0.192,0.059l0.188,0.032l0.18,0.01
	l0.292-0.079l0.286-0.04l0.191-0.035l0.049-0.043l0.193-0.084l0.142,0.024l0.025,0.02l-0.018,0.051l-0.141,0.158l-0.026,0.049v0.045
	l0.021,0.045l0.04,0.034l0.062,0.002l0.095-0.057l0.076-0.086l0.058-0.026l0.038,0.112l0.02-0.042l0.049-0.082l0.021-0.043
	l0.004,0.016l0.003,0.03l0.05-0.008l0.009-0.109l0.072-0.017l0.031,0.053l0.086,0.045l0.061,0.103l-0.028,0.182l-0.008,0.068
	l0.059-0.106l0.032-0.081l0.046-0.062l0.103-0.051l0.109-0.017l0.165,0.034h0.107l0.02-0.007l0.037-0.025l0.021-0.009l0.022-0.003
	l0.064-0.027l0.059,0.001l0.099-0.006l0.116-0.092l0.112-0.087l0.099,0.018l0.059-0.01l-0.002-0.035l-0.062-0.013l-0.045-0.014
	l-0.003-0.042h0.042l0.039-0.003l0.059-0.03l0.083,0.013l0.078-0.009l0.07-0.021l0.095,0.026l0.06,0.053l0.105,0.026l0.148,0.021
	l0.059,0.069L652.676,644z"/></svg>