<?xml version="1.0" encoding="utf-8"?>
<!-- Generator: Adobe Illustrator 15.0.0, SVG Export Plug-In . SVG Version: 6.00 Build 0)  -->
<!DOCTYPE svg PUBLIC "-//W3C//DTD SVG 1.1//EN" "http://www.w3.org/Graphics/SVG/1.1/DTD/svg11.dtd">
<svg version="1.1" id="Ebene_1" xmlns="http://www.w3.org/2000/svg" xmlns:xlink="http://www.w3.org/1999/xlink" x="0px" y="0px"
	 width="1920px" height="1080px" viewBox="0 0 1920 1080" enable-background="new 0 0 1920 1080" xml:space="preserve">

<path fill="#F4E0B6" stroke="#FFFFFF" d="M1162.425,565.141v0.002l-0.042,0.05l-0.092,0.225l-0.035,0.161l-0.03,0.06l-0.078,0.044
	h-0.001l-0.026,0.081l-0.003,0.093l-0.009,0.042l-0.016,0.024l0.003,0.018l0.02,0.029l0.031,0.018l0.036-0.004l0.017,0.022
	l-0.021,0.016l0.019,0.025l0.041,0.02l0.076,0.085l0.049,0.032l0.002,0.028l-0.002,0.004l-0.009-0.007l-0.014-0.009l0.003,0.018
	l0.013,0.049l-0.036-0.013l0.064,0.067l0.025,0.018l-0.042,0.03l0.019,0.023l0.014-0.014l0.014-0.009l0.045,0.016l0.017,0.013
	l0.051,0.007l0.017,0.023l-0.021,0.027l-0.005,0.032l0.007,0.032l0.011,0.027h0.018l0.012,0.002l0.013-0.002l0.015-0.007l0.02,0.026
	l-0.01,0.027l-0.015,0.023l0.037,0.011l-0.022,0.058l0.011,0.002l0.007-0.008l0.006-0.001l0.018,0.014l-0.023,0.018l0.016,0.021
	l0.033,0.006l0.013,0.013l-0.006,0.02l-0.025,0.026l0.044,0.029l0.015,0.006l0.025,0.006l0.029,0.013l-0.293,0.113l-0.085,0.033
	l-0.073,0.049l-0.097,0.034l-0.081-0.078l-0.08-0.111l-0.088-0.063l-0.131,0.008l-0.099,0.054l-0.185,0.146l-0.07,0.02l-0.138-0.008
	l-0.058,0.008h-0.007l-0.051,0.042l-0.02,0.063l-0.013,0.143l-0.053,0.126l-0.06,0.108l-0.039,0.113l0.015,0.147l0.098,0.21
	l0.032,0.07l0.03,0.088l-0.006,0.017l-0.029,0.045l-0.006,0.016l0.02,0.055l0.071,0.119l0.023,0.053l0.048-0.016l0.04,0.013
	l0.032,0.035l0.021,0.052l0.01,0.061l-0.041,0.193l-0.003,0.081l0.02,0.038l0.128,0.075l0.059,0.049l0.282,0.309l0.05,0.065
	l0.051,0.083l0.002,0.003l0.002,0.001l0.004,0.002h0.003l0.013,0.008l0.01,0.013l0.008,0.016l0.007,0.013l0.063,0.116l0.161,0.097
	l0.122,0.094l-0.05,0.105l-0.063,0.089l0.017,0.061l0.006,0.021l0.072,0.039l0.114-0.055l0.048-0.034l0.019-0.02l0.018-0.04
	l0.013-0.096l0.012-0.03l0.05-0.024l0.215-0.039l0.251-0.101l0.074-0.006l0.057,0.026l0.047,0.057l0.053,0.08l0.002,0.029
	l-0.01,0.014l-0.021,0.003l-0.03-0.005l-0.16,0.177l-0.037,0.07l-0.023,0.083l-0.029,0.185l-0.114,0.36l-0.009,0.106l0.002,0.017
	l0.02,0.129l0.056,0.106l0.07,0.101l0.066,0.128l0.027,0.329l0.04,0.15l0.123,0.096l0.105,0.003l0.091-0.045l0.076-0.073l0.06-0.082
	l0.167-0.155l0.389-0.271l0.132-0.195l0.136-0.517l0.105-0.227l0.022-0.02l0.048,0.047l0.074,0.146l0.13,0.127l0.145,0.171
	l0.074,0.045l0.029-0.014l0.004,0.001l0.051,0.08l0.011,0.106l0.024,0.113l0.087,0.086v0.001l-0.109,0.051l0.031,0.114l0.105,0.112
	l0.165,0.065l0.089,0.094l0.055,0.025l0.065-0.007l0.054-0.026l0.053,0.328l0.057,0.12l0.081,0.112l0.013,0.088l-0.026,0.14
	l-0.011,0.063l0.019,0.107l0.051,0.089l0.06,0.077l0.047,0.088l0.006,0.046l-0.019,0.084l-0.004,0.045l0.012,0.058l0.018,0.049
	l0.052,0.1l0.037,0.103l0.001,0.001l0.083,0.496l0.183,0.532l0.046,0.097l0.052,0.184l0.063,0.087l0.042,0.025l0.098,0.04
	l0.045,0.045l0.029,0.055l0.011,0.052l0.006,0.051l0.014,0.058l0.105,0.208l0.022,0.077l0.072,0.104l0.223,0.174l0.082,0.113
	l0.037,0.156l0.009,0.294l0.065,0.168l0.03,0.044l0.01,0.04l0.005,0.039l0.01,0.039l0.064,0.138l0.156,0.222l0.039,0.082
	l0.136,0.495l0.04,0.106l0.13,0.213l0.034,0.11l0.008,0.098l0.033,0.094l0.057,0.106l0,0l0.021,0.06l0.003,0.046l-0.006,0.105
	l0.002,0.056l0.006,0.035l0.011,0.026v0.021l-0.023,0.018l-0.032,0.017l-0.021,0.019l-0.063-0.032l-0.18-0.098l-0.084-0.071
	l-0.174-0.253l-0.347-0.313l-0.368-0.252l-0.407-0.279l-0.16-0.181l-0.014-0.023l-0.019-0.02l-0.021-0.017l-0.023-0.015l-0.37-0.262
	l-0.565-0.4l-0.315-0.223l-0.072-0.028l-0.277-0.028l-0.047-0.02l-0.035-0.036l-0.04-0.067l-0.046-0.127l-0.035-0.051l-0.063-0.022
	l0,0l-0.099-0.032l-0.062-0.048l-0.113-0.144l-0.272-0.237l-0.551-0.369l-0.456-0.308l-0.342-0.228l-0.314-0.235l-0.391-0.293
	l-0.102-0.076l0.018-0.081l0.077-0.228l0.025-0.192l-0.033-0.067l-0.114-0.104l-0.042-0.063l-0.023-0.172l0.113-0.577l0.024-0.064
	l0,0l0.035-0.162l-0.048-0.081l-0.109-0.031l-0.149-0.013l0,0l-0.019-0.078l0.007-0.15l-0.059-0.658l0.001-0.042l-0.104-0.51
	l-0.051-0.248l-0.007-0.13l-0.129-0.383l-0.011-0.018l-0.031-0.038l-0.011-0.019l0.025-0.051l-0.302-0.939l-0.275-0.61l-0.24-0.531
	l-0.007-0.046l-0.097-0.173l-0.019-0.059l-0.044-0.049l-0.139-0.339l-0.215-0.332l-0.026-0.09l0.026-0.058l0.046-0.017l0.091-0.004
	l0.053-0.024l0.023-0.024l0.024-0.189l-0.009-0.039l-0.042-0.112l-0.021-0.054l-0.036-0.039l-0.051,0.009l-0.02-0.066l-0.136-0.232
	l-0.043-0.144l-0.037-0.077l-0.057-0.054l0.004-0.022v-0.033l0.006-0.021l-0.038-0.01l0.012-0.014l0.001-0.004l0.256-0.154
	l0.01-0.016l0.014-0.049l0.015-0.021l0.02-0.011l0.051-0.02l0.022-0.016l0.085-0.116l0.037-0.026l0.021-0.005l0.023-0.004
	l0.054,0.004l0.056,0.015l0.052,0.026l0.054,0.017l0.045-0.023l0.139-0.165l0.1-0.166l0.087-0.074l-0.024-0.065l-0.016-0.139
	l-0.019-0.078l-0.049-0.104l-0.121-0.179l-0.033-0.096l-0.009-0.066l-0.018-0.063l-0.004-0.049l0.032-0.029l0.033,0.01l0.116,0.045
	l0.058,0.001l0.002-0.001l0,0l0.028,0.001l0,0l-0.008-0.015l0,0h-0.001l-0.057-0.06l0.007-0.044l0.036-0.043l0.04-0.043l0.026-0.093
	l0.027-0.201l0.042-0.052l0.037-0.034l0.034-0.042l0.028-0.047l0.02-0.05l0.01-0.089l-0.027-0.163l0.007-0.088l0.017,0.017v0.033
	l0.037,0.063l0.006,0.026l0.027,0.052l-0.022,0.071l-0.005,0.042l-0.044,0.078l0.172-0.007l0.002,0.215l0.042,0.013l0.127-0.003
	l0.134,0.156l0.099-0.007l0.084,0.096l0.02,0.092l0.005,0.077l0.039,0.054l0.146-0.035l0.024,0.053l0.29,0.309l0.049,0.032
	l0.156,0.065l0.017,0.109l-0.018,0.022l0.012,0.126l0.044,0.131l0.043,0.036l0.044,0.107l-0.021,0.287L1162.425,565.141z"/></svg>