<?xml version="1.0" encoding="utf-8"?>
<!-- Generator: Adobe Illustrator 15.0.0, SVG Export Plug-In . SVG Version: 6.00 Build 0)  -->
<!DOCTYPE svg PUBLIC "-//W3C//DTD SVG 1.1//EN" "http://www.w3.org/Graphics/SVG/1.1/DTD/svg11.dtd">
<svg version="1.1" id="Ebene_1" xmlns="http://www.w3.org/2000/svg" xmlns:xlink="http://www.w3.org/1999/xlink" x="0px" y="0px"
	 width="1920px" height="1080px" viewBox="0 0 1920 1080" enable-background="new 0 0 1920 1080" xml:space="preserve">

<path fill="#F4E0B6" stroke="#FFFFFF" d="M1261.317,813.234l0.052,0.441l0.067,0.116l0.081,0.084l0.272,0.225l0.314,0.188
	l0.168,0.058l0.172,0.006l0.167,0.03l0.167,0.106l0.303,0.25l0.237,0.137l0.077,0.066l0.134,0.152l0.051,0.045l0.096,0.055
	l0.402,0.133l0.178,0.019l0.082,0.026l0.329,0.165l0.163,0.038l0.188-0.006l0.144,0.035l0.125,0.121l0.193,0.287l0.308,0.233
	l0.716,0.174l0.28,0.266l0.004,0.003l0.035,0.092l0.025,0.188l0.035,0.091l0.068,0.09l0.074,0.062l0.183,0.109l0.2,0.093l0.187,0.13
	l0.946,0.852l0.176,0.093l0.197,0.013l0.191-0.048l0.199-0.108l0.051-0.003l0.053,0.009l0.047,0.016l0.065,0.032l0.028,0.027
	l0.021,0.1l0.001,0.066l-0.017,0.027l0.003,0.008l0.063,0.005l0.037-0.003l0.123-0.041h0.11l0.193,0.105l0.109,0.03l0.083-0.01
	l0.165-0.048l0.088-0.01l0.205,0.018l0.102,0.032l0.072,0.06l0.079,0.076l0.081,0.027l0.085-0.006l0.196-0.045l0.068,0.002
	l0.021,0.007l0.045,0.015l0.093,0.044l0.089,0.031l0.083-0.002l0.081-0.026l0.089-0.049l0.151-0.051l0.541-0.011l0.146-0.05
	l0.122-0.069l0.126-0.054l0.163,0.003l0.056,0.02l0.115,0.061l0.06,0.011l0.055-0.007l0.039-0.019l0.035-0.024l0.044-0.024
	l0.086-0.029l0.09-0.02l0.09,0.006l0.088,0.045l0.465,0.398l0.328,0.443l0.264,0.62l0.099-0.152l0.116-0.09l0.418-0.229l0.315-0.125
	l0.188-0.157l0.162-0.008l0.149-0.08l0.081-0.009l0.081,0.024l0.066,0.058l0.077,0.166l0.032,0.17l0.051,0.162l0.266,0.273
	l0.097,0.158l0.124,0.361l0.005,0.057l-0.008,0.049l-0.001,0.049l0.024,0.056l0.026,0.047l0.04,0.095l0.022,0.041l0.151,0.211
	l0.042,0.09l0.071,0.239l0.038,0.071l0.071,0.061l0.225,0.111l0.088,0.03l0.358,0.054l0.185,0.078l0.176,0.104l0.22,0.091
	l0.065,0.039l0.026,0.028l0.031,0.063l0.023,0.027l0.043,0.025l0.096,0.034l0.233,0.172l0.032,0.035l0.005,0.039l-0.002,0.064
	l0.013,0.043h0.018l0.03-0.005l0.027,0.015l0.01,0.063l0.035,0.031l0.021-0.006l0.018-0.016l0.033,0.003l0.037,0.022l0.077,0.064
	l0.04,0.025l0.071,0.025l0.07,0.007l0.07-0.015l0.218-0.101l0.304-0.094l0.438-0.232l0.148-0.048l0.174-0.028l0.382-0.001
	l0.089-0.025l0.055-0.045l0.046-0.056l0.109-0.104l0.028-0.041l0.036-0.029l0.134-0.031l0.114-0.049l0.06-0.01l0.204,0.039
	l0.196-0.036l0.673-0.032l0.125-0.029l0.23-0.106l0.119-0.031l0.09,0.011l0.172-0.031l0.086,0.017l0.05,0.074l0.005,0.119
	l-0.009,0.13l0.006,0.109l0.075,0.18l0.118,0.157l0.149,0.117l0.176,0.063h0.174l0.147-0.05l0.338-0.195l0.026,0.003l0.059,0.027
	l0.039,0.025l0.071,0.064l0.042,0.025l0.408,0.101l-0.054,0.062l-0.11,0.045l-0.222,0.063l-0.09,0.063l-0.044,0.089l-0.031,0.085
	l-0.051,0.061l-0.427,0.265l-0.026,0.032l-0.02,0.148l0.011,0.019l-0.037,0.063l-0.03,0.112l-0.025,0.161l0.179,0.27l0.007,0.057
	l-0.017,0.054l0.001,0.209l-0.037,0.085l-0.167,0.065l-0.08,0.051l-0.008,0.071l0.021,0.089l-0.029,0.072l-0.062,0.061l-0.072,0.056
	l-0.131,0.136l-0.182,0.297l-0.103,0.112l-0.097,0.052l-0.077,0.028l-0.058,0.048l-0.039,0.111l-0.05,0.05l-0.26,0.063l-0.287,0.186
	l-0.117,0.113l-0.092,0.149l-0.028,0.079l-0.045,0.23l-0.025,0.042l-0.082,0.057l-0.032,0.033l-0.022,0.041l-0.033,0.211
	l0.002,0.048l0.021,0.056l0.033,0.045l0.027,0.025l0.017,0.032v0.068l-0.015,0.048l-0.029,0.035l-0.032,0.029l-0.021,0.031
	l-0.003,0.032l0.013,0.071v0.033l-0.042,0.052l-0.068,0.071l-0.051,0.069l0.018,0.048l0.077,0.068l0.031,0.097v0.104l-0.022,0.092
	l-0.031,0.06l-0.049,0.074l-0.061,0.07l-0.063,0.049l-0.021,0.063l0.051,0.09l0.121,0.153l0.003,0.145l-0.075,0.158l-0.115,0.147
	l-0.116,0.11l0.063,0.061l-0.046,0.053l-0.08,0.036l-0.042,0.015l0.008,0.036l0.027,0.025l0.03,0.02l0.018,0.016l0.014,0.007
	l0.025,0.009l0.016,0.012l-0.014,0.018v0.007l-0.017,0.036l-0.004,0.006l0.03,0.184l-0.001,0.048l-0.037,0.057l-0.061,0.002
	l-0.158-0.059l-0.077,0.198l-0.032,0.039l-0.059,0.01l-0.065,0.003l-0.04,0.021l0.029,0.129l-0.026,0.113l0.02,0.07l0.009,0.023
	l0.004,0.026l-0.002,0.025l-0.011,0.014l-0.004,0.016l0.021,0.022l0.027,0.026l0.02,0.024l0.027,0.1l-0.013,0.101l-0.044,0.09
	l-0.065,0.065l-0.146,0.089l-0.035,0.045l-0.013,0.057l-0.004,0.062l-0.021,0.045h-0.065l-0.006-0.072l-0.031,0.007l-0.043,0.049
	l-0.031,0.045l0.003,0.029l-0.01,0.066l-0.023,0.04l-0.106-0.101l-0.028,0.072l-0.008,0.184l-0.027,0.092l-0.037,0.081l-0.097,0.146
	l-0.109,0.116l-0.014,0.069l0.093,0.047l-0.027,0.037l-0.031,0.018l-0.036,0.002l-0.044-0.019l0.005,0.029l-0.008,0.048
	l-0.002,0.035l-0.048-0.02l-0.051,0.006l-0.031,0.026l0.001,0.04l0.042,0.04l0.045,0.011l0.033,0.014l0.009,0.057l-0.058-0.003
	l-0.037,0.026l-0.018,0.048l-0.002,0.064l0.023-0.014l-0.039,0.085l-0.008,0.035l0.01,0.042l-0.033-0.002l-0.03,0.002l0.049,0.075
	l0.062,0.058l0.032,0.055l-0.032,0.071l-0.062,0.032l-0.051-0.029l-0.046-0.036l-0.047,0.004l-0.019,0.048l0.027,0.199l0.001,0.163
	l0.022,0.085l0.03,0.033l0.024,0.028l0.004,0.245l0.068,0.065l0.046,0.115l0.33,1.188l0.091,0.18l0.124,0.384v0.091l-0.026,0.082
	l-0.051,0.085l-0.253,0.277l-0.051,0.082l0.002,0.077l-0.087,0.348l-0.144,0.28l-0.05,0.134l-0.022,0.168l0.053,0.337v0.06
	l-0.094,0.369h-0.001l-0.085,0.032l-0.067,0.029l-0.075,0.022l-0.068,0.03l-0.151,0.116l-0.323,0.349l-0.435,0.473l-0.065,0.149
	l-0.036,0.058l-0.184,0.096l-0.093,0.106l-0.023,0.02l-0.009,0.03l0.05,0.097l0.197,0.267l0.087,0.158l0.034,0.146l0.033,0.296
	l0.075,0.148l0.002,0.249l0.07,0.303l0.092,0.867l0.177,0.567l0.015,0.111l0.061,0.46l0.059,0.275l-0.24,0.609l-0.176,0.268
	l-0.673,0.487l-0.159,0.058l-0.186,0.039l-0.145,0.055l-0.12,0.097l-0.112,0.167l-0.112,0.276l-0.051,0.068l-0.173,0.174
	l-0.097,0.072l-0.109,0.029l-0.128,0.04l-0.232,0.173l-0.138,0.042l-0.255-0.021l-0.316,0.053l-0.185,0.032l-0.063,0.048
	l-0.052,0.07l-0.08,0.08l-0.189,0.069l-0.207-0.023l-0.405-0.148h-0.203l-0.18,0.104l-0.297,0.309l-0.066,0.054l-0.016-0.016
	l-0.002-0.044l-0.021-0.029l-0.053-0.01h-0.049l-0.044,0.016l-0.15,0.148l-0.089-0.003l-0.097-0.045l-0.222-0.023l-0.234-0.099
	l-0.042-0.001l-0.083,0.019l-0.044-0.002l-0.043-0.021l-0.082-0.06l-0.051-0.011l-0.226,0.054l-0.07-0.021l-0.049-0.022
	l-0.534-0.075l-0.118-0.003l-0.128,0.013l-0.051-0.007l-0.074-0.021l-0.101-0.05l-0.049-0.015l-0.06,0.015l-0.039,0.035
	l-0.086,0.108l-0.059,0.041l-0.061,0.019l-0.192,0.032l-0.209,0.075l-0.162,0.113l-0.134,0.146l-0.183,0.279l-0.016,0.046
	l-0.027,0.05l-0.032-0.008l-0.039-0.03l-0.042-0.017l-0.088,0.036l-0.055,0.093l-0.051,0.217l0.002,0.046l0.013,0.036l0.004,0.038
	l-0.023,0.049l-0.034,0.051l-0.021,0.045l-0.009,0.051v0.063l0.034,0.182l-0.009,0.065l-0.065,0.09v0.05l0.074,0.277l0.01,0.074
	l0.01,0.038l0.017,0.032l0.044,0.026l0.057,0.021l0.039,0.03l-0.008,0.057l-0.023,0.063l0.014,0.034l0.033,0.025l0.031,0.037
	l0.025,0.06l0.015,0.045l0.003,0.049l-0.041,0.272l0.002,0.105l0.03,0.095l0.035,0.051l0.021,0.006l0.023-0.006l0.047,0.023
	l0.055,0.043l0.019,0.021l0.003,0.087l-0.017,0.088l-0.031,0.102l0.003,0.085l0.084,0.042l0.047,0.038l0.055,0.084l0.044,0.095
	l0.021,0.074v0.066l-0.019,0.045l-0.074,0.094l-0.018,0.053l0.021,0.032l0.036,0.031l0.024,0.046l-0.007,0.306l-0.003,0.013
	l-0.012,0.055l-0.038,0.087l-0.007,0.074l0.024,0.165l-0.002,0.138l-0.043,0.06l-0.174,0.06l-0.096,0.084l-0.036,0.107l-0.008,0.241
	l-0.07,0.278l-0.055,0.093l-0.041,0.051l-0.138,0.12l-0.017,0.042l0.01,0.097l-0.048,0.224l0.019,0.174l0.077,0.366l-0.005,0.277
	l-0.063,0.275l-0.121,0.244l-0.18,0.179l-0.323,0.202l-0.095,0.084l-0.069,0.087l-0.015,0.064l0.032,0.062l0.136,0.151l0.048,0.07
	l0.029,0.076l0.005,0.09l-0.024,0.099l-0.108,0.246l-0.057,0.076l-0.071,0.043l-0.232,0.067l-0.29,0.168l-0.211,0.025l-0.085,0.033
	l-0.15,0.1l-0.231,0.249l-0.047,0.031l-0.101,0.045l-0.047,0.03l-0.238,0.265l-0.1,0.067l-0.505,0.173l-0.188-0.002l-0.18,0.028
	l-0.171,0.14l-0.057,0.102l-0.086,0.206l-0.15,0.234l-0.038,0.098l-0.003,0.017l-0.04-0.028l-0.11-0.097l-0.059-0.021l-0.073-0.005
	l-0.031-0.008l-0.038-0.015l-0.113-0.074l-0.119-0.114l-0.107-0.128l-0.073-0.112l-0.09-0.3l-0.049-0.089l-0.05-0.045l-0.104-0.044
	l-0.05-0.033l-0.071-0.09l-0.059-0.115l-0.085-0.228l-0.015-0.055l0.052-0.136l0.008-0.09l-0.021-0.248l0.037-0.367l-0.009-0.184
	l-0.03-0.184l0.015-0.298l-0.026-0.066l-0.27-0.146l-0.057-0.063l-0.164-0.275l-0.236-0.309l-0.234-0.168l-0.01-0.013l-0.065-0.022
	l-0.021,0.012l-0.021,0.039l-0.037,0.043l-0.02-0.036l-0.01-0.094l-0.23-0.206l-0.076-0.048l-0.053-0.007l-0.114,0.012l-0.053-0.022
	l-0.024-0.04l-0.023-0.099l-0.028-0.041l-0.041-0.006l-0.043,0.019l-0.044,0.008l-0.035-0.033v-0.038l0.045-0.092l-0.002-0.051
	l-0.092-0.083l-0.238-0.042l-0.062-0.11l-0.016-0.073l0.06-0.126l-0.068-0.013l-0.031,0.021l-0.018,0.038l-0.023,0.032l-0.042,0.004
	l-0.027-0.036l-0.012-0.06l-0.019-0.032l-0.046,0.038l-0.059-0.065l-0.041-0.024l-0.129,0.018l-0.079-0.003l-0.048-0.028
	l-0.099-0.104l-0.031-0.021l-0.067-0.026l-0.031-0.017l-0.019-0.029l0.001-0.029l-0.002-0.031l-0.029-0.032l-0.037-0.008
	l-0.081,0.007l-0.037-0.01l-0.021-0.02l-0.069-0.096l-0.083,0.014l-0.088,0.002l-0.064-0.032l-0.01-0.081l-0.03-0.06l-0.089-0.057
	l-0.187-0.092l-0.257-0.166l-0.067-0.025l-0.676-0.093l-0.363,0.003l-0.04,0.012l-0.074,0.04l-0.038,0.012l-0.055-0.005l-0.16-0.046
	l-0.268-0.031l-0.13-0.063l-0.09-0.009l-0.04-0.013l-0.057-0.052l-0.421-0.649l-0.422-0.65l-0.423-0.651l-0.423-0.652l-0.424-0.653
	l-0.068-0.106l-0.354-0.546l-0.425-0.655l-0.425-0.656l-0.169-0.259l-0.257-0.397l-0.426-0.657l-0.427-0.657l-0.428-0.658
	l-0.374-0.577l-0.375-0.578l-0.375-0.579l-0.375-0.579l-0.215-0.331l0.825-0.514l0.826-0.513l0.826-0.51l0.827-0.51l0.203-0.124
	l-0.046-0.171l-0.101-0.159l-0.143-0.223l-0.143-0.223l-0.142-0.223l-0.143-0.225l-0.143-0.224l-0.143-0.225l-0.143-0.223
	l-0.144-0.224l-0.143-0.225l-0.143-0.226l-0.144-0.223l-0.143-0.226l-0.143-0.224l-0.143-0.225l-0.145-0.226l-0.143-0.226
	l-0.002-0.003l-0.31-0.484l-0.311-0.488l-0.312-0.489l-0.313-0.49l-0.313-0.49l-0.062-0.098l-0.25-0.394l-0.313-0.49l-0.313-0.493
	l-0.313-0.492l-0.314-0.494l-0.314-0.493l-0.314-0.494l-0.315-0.496l-0.317-0.496l-0.197-0.313l-0.118-0.185l-0.316-0.496
	l-0.103-0.164l-0.104-0.162l-0.103-0.162l-0.103-0.163l-0.104-0.164l-0.103-0.162l-0.104-0.162l-0.104-0.164l-0.104-0.164
	l-0.104-0.162l-0.104-0.163l-0.103-0.165l-0.104-0.164l-0.104-0.162l-0.104-0.164l-0.104-0.164l-0.072-0.113l0.065-0.045
	l0.111-0.074l0.202-0.136l0.203-0.135l0.202-0.136l0.203-0.136l0.168-0.112l0.17-0.113l0.169-0.112l0.17-0.112l0.066-0.046
	l0.069-0.045l0.056-0.05l0.055-0.051l0.054-0.052l0.056-0.052l0.272-0.251l0.272-0.251l0.273-0.252l0.273-0.251l0.272-0.25
	l0.272-0.251l0.274-0.251l0.272-0.251l0.274-0.252l0.274-0.249l0.274-0.249l0.273-0.252l0.274-0.25l0.274-0.249l0.276-0.251
	l0.274-0.249l0.284-0.26l0.416-0.3l0.303-0.218l0.244-0.177l0.144-0.077h0.063l0.034,0.004l0.021,0.024l0.032,0.056l0.029,0.021
	l0.032-0.007l0.029-0.013l0.02,0.007l0.055,0.1l0.021,0.024l0.023,0.016l0.08,0.036l0.104,0.076l0.195,0.073l0.047,0.027
	l0.017,0.022l0.033,0.073l0.018,0.02l0.028-0.002l0.04-0.007l0.035-0.014l0.015-0.064l0.086,0.019l0.095,0.037l0.039,0.02
	l0.063-0.008l0.056-0.02l0.049-0.006l0.045,0.039l0.047,0.034l0.058,0.008l0.044,0.026l0.008,0.084l0.203,0.066l0.085,0.065
	l-0.002,0.116l0.067,0.035l0.162,0.141l0.131,0.153l0.072,0.013l0.065-0.04l0.103-0.125l0.011-0.021l0.012-0.035l0.022-0.16
	l0.069-0.06l0.034-0.069l0.113-0.603l0.047-0.052l0.017-0.071l0.004-0.145l0.021-0.069l0.063-0.144l0.024-0.094l-0.072-0.148
	l0.073-0.171l0.019-0.017l0.023-0.007l0.024,0.001l0.024,0.005l-0.003-0.038l0.005-0.031l0.025-0.06l0.077-0.111l0.016-0.04
	l0.043-0.173l0.021-0.033l0.12-0.106l0.069-0.168l0.043-0.334l0.091-0.146l0.068-0.055l0.085-0.034l0.048-0.011l0.085-0.002
	l0.039-0.012l0.018-0.049l-0.008-0.258l0.022-0.1l0.043-0.055l0.131-0.067l0.094-0.03l0.071,0.017l0.141,0.093l0.044,0.013
	l0.03-0.003l0.033,0.014l0.042,0.061l0.201,0.05l0.04-0.04l0.161-0.118l0.032-0.032l-0.002-0.032l0.015-0.095l-0.002-0.029
	l0.007-0.018l0.051-0.347l0.025-0.087l0.079-0.16l0.021-0.194l0.011-0.028l0.018-0.033l0.024-0.034l0.031-0.024l0.025-0.031
	l-0.012-0.071l0.016-0.026l0.066-0.062l0.043-0.129l0.055-0.055l0.069-0.05l0.221-0.253l0.017-0.029l0.011-0.045l-0.004-0.035
	l0.007-0.031l0.037-0.03l0.011,0.072l0.056,0.005l0.045,0.022h0.04l0.042-0.062l0.06,0.03l0.043-0.035l0.064-0.129l0.085,0.064
	l0.113-0.071l0.092-0.126l0.05-0.202l0.151-0.085L1261.317,813.234z"/></svg>