<?xml version="1.0" encoding="utf-8"?>
<!-- Generator: Adobe Illustrator 15.0.0, SVG Export Plug-In . SVG Version: 6.00 Build 0)  -->
<!DOCTYPE svg PUBLIC "-//W3C//DTD SVG 1.1//EN" "http://www.w3.org/Graphics/SVG/1.1/DTD/svg11.dtd">
<svg version="1.1" id="Ebene_1" xmlns="http://www.w3.org/2000/svg" xmlns:xlink="http://www.w3.org/1999/xlink" x="0px" y="0px"
	 width="1920px" height="1080px" viewBox="0 0 1920 1080" enable-background="new 0 0 1920 1080" xml:space="preserve">

<path fill="#F4E0B6" stroke="#FFFFFF" d="M1357.358,245.536l0.032,0.084l-0.042,0.121l-0.073,0.112l-0.057,0.066l-0.045-0.016
	l-0.041,0.003l-0.037,0.019l-0.033,0.031l-0.014-0.311l0.029-0.002l0.018,0.007l0.04,0.01l0.046,0.003l0.04-0.017l0.055-0.077
	l0.038-0.035L1357.358,245.536z M1354.514,246.104h0.018l-0.002,0.013l0.001,0.027l-0.003,0.014l-0.009,0.008l-0.016,0.042
	l-0.077,0.049l-0.065,0.027l-0.011-0.008l-0.019-0.157l0.01-0.019l0.03-0.013l0.063,0.008l0.026,0.012l0.027,0.004L1354.514,246.104
	z M1351.116,252.389l0.027,0.047l-0.088-0.055l-0.231-0.205l-0.219-0.154l-0.014-0.039l0.236,0.129l0.074,0.065l0.059,0.042
	l0.062,0.056l0.034,0.045L1351.116,252.389z M1350.464,254.101l0.021,0.007l-0.021-0.062l0.003-0.047l-0.003-0.035l-0.044-0.023
	l0.134-0.079l0.063-0.023l0.047,0.006l-0.03,0.032l-0.024,0.041l-0.009,0.044l0.037,0.059l0.007,0.043l0.014,0.022l0.023,0.01
	l0.065,0.014l0.02,0.009l0.044,0.07l0.014,0.075l-0.026,0.076l-0.074,0.079l-0.042-0.018l0.051-0.043l0.012-0.063l-0.021-0.065
	l-0.048-0.054l-0.013,0.039l-0.018,0.031l-0.024,0.025l-0.033,0.023l0.014,0.008h0.006l0.003,0.003l0.008,0.016l-0.063,0.006h-0.063
	l-0.001-0.028l0.007-0.033l-0.077-0.112l-0.027-0.071L1350.464,254.101z M1350.631,254.712l0.001,0.058l-0.033-0.008l-0.021-0.019
	l-0.01-0.027l-0.005-0.039l-0.014-0.033l-0.032-0.009l-0.075,0.002l-0.165-0.043l-0.051-0.046l0.056-0.067l0.024,0.038l0.058,0.024
	l0.136,0.037l0.035,0.001l0.03-0.013l0.022,0.003l0.009,0.047l0.002,0.033l0.006,0.024l0.01,0.02L1350.631,254.712z
	 M1350.332,254.202l0.011,0.033l-0.022,0.019l-0.055,0.017l-0.045,0.033l-0.066,0.07l-0.066-0.083l0.025-0.051l0.041-0.053
	l0.047-0.023l0.039,0.036l0.055-0.018L1350.332,254.202z M1346.491,258.961l0.194-0.078l0.136,0.011l0.074,0.057l-0.063,0.106
	l-0.024,0.079l0.017,0.124l0.073,0.107l0.095,0.055l0.028,0.052l-0.026,0.061l-0.002,0.042l-0.016,0.037l-0.032,0.019l-0.012-0.006
	l-0.044-0.032l-0.02-0.01l-0.033-0.001l-0.037,0.002l-0.068,0.013l-0.063,0.029l-0.033,0.005l-0.015-0.022l-0.061-0.114l0.1-0.157
	l-0.018-0.107l-0.137-0.011l-0.085-0.032l-0.026-0.114L1346.491,258.961z M1342.786,246.313l0.112-0.063l-0.009-0.017l-0.013-0.041
	l-0.009-0.046l0.009-0.034l0.013,0.001l0.021,0.014l0.028,0.013l0.034-0.003l0.019-0.019l0.037-0.059l0.016-0.013l0.023-0.027
	l0.021-0.061l0.136-0.713l0.029-0.052l0.058,0.021l0.045,0.004l0.081-0.016l0.132-0.046l0.061-0.045l0.014-0.034l-0.021-0.106
	l0.003-0.056l0.013-0.066l0.027-0.058l0.038-0.034l0.175,0.305l0.08,0.081l0.367,0.262l0.076,0.04l0.107,0.027l0.119,0.016h0.12
	l0.115-0.011l0.238-0.068l0.062-0.001l0.063,0.017l0.126-0.011l0.095-0.06l0.058-0.105l0.017-0.119l0.027-0.002l-0.003,0.051
	l0.008,0.047l0.015,0.039l0.022,0.027l0.076-0.045l0.1-0.028l0.09,0.006l0.058,0.088l0.038,0.004l0.047-0.016l0.04-0.029
	l0.044-0.012l0.039,0.037l0.06,0.092l0.132,0.1h0.05l0.108-0.013l0.044,0.014l0.035,0.018l0.051,0.009l0.101,0.001l0.026,0.007
	l0.021,0.014l0.021,0.006l0.025-0.019l0.004-0.003l0.011-0.011l0.022-0.016l0.021-0.012l0.018-0.004l0.038,0.019l0.094,0.084
	l0.141,0.087l0.062,0.068l0.031,0.021l0.033-0.013l0.024,0.011l0.083,0.098l0.041,0.036l0.097,0.037l0.193,0.032l0.176,0.104
	l0.07,0.017l0.074-0.007l0.08-0.034l0.034-0.026l0.016-0.021l0.021-0.014l0.051-0.004l0.058,0.014l0.093,0.05l0.056,0.008
	l0.101-0.001l0.259,0.033l0.274,0.081l0.638,0.083l0.158,0.065l1.021,0.104l0.422,0.044l0.079,0.03l0.155,0.101l0.079,0.036
	l0.099,0.026l0.182,0.011l0.162-0.012l0.155,0.005l0.161,0.066l0.035,0.03l0.06,0.072l0.036,0.031l0.037,0.015l0.094,0.02
	l0.137,0.067l0.211,0.033l0.096,0.027l0.244,0.146l0.044,0.018l0.198,0.206l0.063,0.048l0.043,0.005l0.099-0.016h0.046l0.052,0.015
	l0.058,0.031l0.1,0.068l0.074,0.07l0.183,0.242l0.197,0.158l0.024,0.04l0.046,0.031l0.218,0.068l0.084,0.036l0.166,0.117
	l0.098,0.045l0.199,0.018l0.271,0.06l0.275,0.133l0.094,0.017l0.26,0.011l0.236-0.018l0.833-0.063l0.12,0.018l0.098,0.034
	l0.042,0.052l0.062,0.06l0.136-0.01l0.147-0.031l0.097-0.001l-0.108,0.078l-0.079,0.112l-0.052,0.128l-0.027,0.127l0.107-0.001
	l0.04,0.035l-0.011,0.054l-0.049,0.061l-0.039,0.006l-0.113-0.013l-0.146,0.096l-0.039,0.009l-0.032,0.001l-0.054-0.003
	l-0.174,0.011l-0.052-0.006l-0.058-0.036l-0.049-0.006l-0.821,0.362l-0.044,0.029l-0.107,0.094l-0.156,0.078l-0.045,0.034
	l-0.1,0.134l-0.027,0.052l-0.005,0.018l-0.012,0.019l-0.06,0.019l-0.021,0.011l-0.043,0.071l-0.072,0.163l-0.048,0.074l-0.064,0.079
	l-0.021,0.036l-0.018,0.047l0.002,0.025l0.012,0.029l0.002,0.033l-0.156,0.215l-0.269,0.205l0.24-0.214l-0.116,0.03l-0.064,0.037
	l-0.05,0.03l-0.095,0.089l-0.128,0.148l-0.067,0.059l-0.073,0.029l-0.075-0.03l-0.066-0.015l-0.092,0.029l-0.09,0.047l-0.119,0.083
	l-0.16,0.08l-0.072,0.021l-0.047,0.001l-0.059-0.021l-0.038-0.004l-0.021,0.011l-0.015,0.021l-0.02,0.022l-0.037,0.01l-0.077,0.048
	l-0.029,0.014l-0.217,0.045l-0.1,0.02l-0.057,0.032l-0.061,0.063l-0.057-0.071l-0.099-0.036l-0.082,0.021l-0.012,0.1l0.031,0.017
	l0.054,0.014l0.044,0.025v0.052l-0.035,0.022l-0.111-0.002l-0.04,0.015l-0.025,0.065l0.034,0.034l0.047,0.026l0.014,0.042
	l-0.038,0.047l-0.056,0.014l-0.054-0.008l-0.038-0.017l-0.026-0.044l-0.009-0.058l-0.018-0.047l-0.05-0.015l-0.023,0.024
	l-0.032,0.148l-0.031,0.002l-0.006-0.123l-0.041,0.014l-0.056,0.069l-0.05,0.046l-0.063-0.007l-0.025-0.038l-0.015-0.041
	l-0.042-0.019l-0.062,0.015l-0.05,0.023l-0.047-0.011l-0.061-0.019l-0.043-0.034l-0.036,0.009l-0.036-0.005l-0.145-0.045
	l-0.028-0.024l-0.011-0.039l-0.038,0.061l-0.065-0.021l-0.007-0.06l-0.024-0.05l0.007-0.022l-0.051,0.016l0.027,0.033l-0.007,0.03
	v0.038l-0.052,0.003l-0.092-0.034l-0.006-0.056l-0.002-0.083l-0.163,0.065l-0.125,0.072l-0.059-0.027l-0.032,0.001l-0.021,0.048
	l-0.028-0.004l-0.033-0.025l-0.04-0.012l-0.085-0.06l0.013,0.133l-0.138,0.01l-0.084-0.067l-0.26,0.016l-0.194-0.001l-0.157-0.035
	l-0.123-0.062l-0.158-0.01l-0.14-0.028l-0.048-0.018l-0.133-0.089l-0.043-0.013l-0.024-0.011l-0.07-0.082l-0.049-0.023l-0.112-0.019
	l-0.047-0.016l-0.112-0.104l-0.046-0.03l-0.123-0.035l-0.125-0.056l-0.256-0.077l-0.074-0.037l-0.05-0.044l-0.027-0.037
	l-0.018-0.033l-0.025-0.022l-0.046-0.007l-0.045-0.017l-0.065-0.075l-0.049-0.016l-0.158-0.001l-0.044-0.011l-0.042-0.039
	l-0.215-0.164l-0.013-0.009l-0.051-0.009l-0.046-0.048l-0.102-0.029l-0.194-0.031l-0.258-0.13l-0.157-0.034l-0.088-0.047
	l-0.238-0.191l-0.131-0.104l-0.063-0.025l-0.104-0.007l-0.089-0.029l-0.165-0.081l-0.1-0.02l-0.043-0.021l-0.034-0.103l-0.035-0.026
	l-0.042-0.016l-0.039-0.019l-0.07-0.061l-0.056-0.068l-0.026-0.084l0.016-0.111l-0.085,0.02l-0.059-0.038l-0.062-0.054l-0.09-0.023
	l-0.029-0.012l-0.029-0.053l-0.086-0.018l-0.18-0.074l-0.049-0.031l-0.024-0.01l-0.026,0.002l-0.028,0.012l-0.034,0.019l-0.047-0.02
	l-0.03-0.026h-0.001l-0.036-0.021l-0.06-0.005l-0.045-0.01l-0.046-0.028l-0.035-0.04l-0.016-0.038l-0.019,0.005l-0.046-0.008
	l-0.096-0.029l-0.054-0.028l-0.225-0.123l-0.134-0.098l-0.099-0.105l-0.107-0.275l-0.044-0.064l-0.054-0.053l-0.041-0.066
	l-0.056-0.134l-0.071-0.305l-0.04-0.169l-0.031-0.071l-0.085-0.089l-0.016-0.027l-0.008-0.034l-0.002-0.046l0.015-0.056l0.04-0.031
	l0.041-0.021l0.023-0.026l-0.024-0.051l-0.085,0.061l-0.087,0.095l-0.027,0.049l-0.043-0.012l-0.024-0.025l-0.016-0.029
	l-0.014-0.012l-0.082-0.025l-0.092-0.043l-0.097-0.095l-0.083-0.142l-0.048-0.166l0.013-0.166l0.048-0.072L1342.786,246.313z"/></svg>