<?xml version="1.0" encoding="utf-8"?>
<!-- Generator: Adobe Illustrator 15.0.0, SVG Export Plug-In . SVG Version: 6.00 Build 0)  -->
<!DOCTYPE svg PUBLIC "-//W3C//DTD SVG 1.1//EN" "http://www.w3.org/Graphics/SVG/1.1/DTD/svg11.dtd">
<svg version="1.1" id="Ebene_1" xmlns="http://www.w3.org/2000/svg" xmlns:xlink="http://www.w3.org/1999/xlink" x="0px" y="0px"
	 width="1920px" height="1080px" viewBox="0 0 1920 1080" enable-background="new 0 0 1920 1080" xml:space="preserve">

<path fill="#F4E0B6" stroke="#FFFFFF" d="M334.459,164.572l-0.036,0.009l-0.011-0.278l-0.023-0.04l0.023-0.072l0.006-0.135
	l0.021-0.057l0.138-0.132l0.146-0.091l0.086,0.019l-0.039,0.198l-0.168,0.221l-0.032,0.024l-0.012,0.07L334.459,164.572z
	 M340.496,173.052l-0.02-0.06l0.015-0.074l0.034-0.058l0.082-0.023l0.085-0.075l0.083-0.044l0.075,0.07l0.107-0.062l0.105,0.008
	l0.092,0.05l0.074,0.061l-0.11,0.089l-0.084,0.083l-0.084,0.044l-0.114-0.027l-0.019,0.022l-0.013,0.012l-0.037,0.02l-0.021-0.08
	l-0.053-0.004l-0.131,0.059L340.496,173.052z"/></svg>