<?xml version="1.0" encoding="utf-8"?>
<!-- Generator: Adobe Illustrator 15.0.0, SVG Export Plug-In . SVG Version: 6.00 Build 0)  -->
<!DOCTYPE svg PUBLIC "-//W3C//DTD SVG 1.1//EN" "http://www.w3.org/Graphics/SVG/1.1/DTD/svg11.dtd">
<svg version="1.1" id="Ebene_1" xmlns="http://www.w3.org/2000/svg" xmlns:xlink="http://www.w3.org/1999/xlink" x="0px" y="0px"
	 width="1920px" height="1080px" viewBox="0 0 1920 1080" enable-background="new 0 0 1920 1080" xml:space="preserve">

<path fill="#F4E0B6" stroke="#FFFFFF" d="M1008.836,658.843l0.074,0.475l0.075,0.475l0.074,0.475l0.074,0.477l0.013,0.07
	l0.031,0.197l0.049,0.307l0.063,0.397l0.076,0.471l0.082,0.525l0.09,0.563l0.093,0.583l0.092,0.582l0.09,0.564l0.084,0.528
	l0.076,0.475l0.063,0.401l0.049,0.309l0.031,0.199l0.012,0.07l0.036,0.232l-0.023,0.077l-0.091,0.052l-0.418,0.116l-0.496,0.138
	l-0.497,0.137l-0.497,0.138l-0.498,0.137l-0.5,0.138l-0.5,0.137l-0.501,0.138l-0.503,0.136l-0.503,0.136l-0.504,0.138l-0.504,0.136
	l-0.506,0.136l-0.507,0.136l-0.509,0.136l-0.508,0.136l-0.51,0.137l-0.511,0.136l-0.511,0.136l-0.513,0.134l-0.513,0.137
	l-0.515,0.134l-0.517,0.135l-0.515,0.135l-0.519,0.136l-0.518,0.135l-0.519,0.133l-0.521,0.135l-0.521,0.134l-0.522,0.135
	l-0.522,0.133l-0.524,0.135l-0.525,0.133l0.046,0.405l0.046,0.403l0.047,0.401l0.044,0.405l0.047,0.403l0.045,0.406l0.047,0.404
	l0.046,0.405l0.046,0.405l0.046,0.406l0.046,0.406l0.047,0.405l0.046,0.406l0.046,0.408l0.047,0.407l0.046,0.408l0.046,0.407
	l0.047,0.409l0.046,0.409l0.046,0.408l0.048,0.409l0.046,0.411l0.047,0.41l0.046,0.409l0.048,0.411l0.046,0.411l0.047,0.411
	l0.047,0.412l0.047,0.412l0.047,0.413l0.047,0.413l0.046,0.412l0.051,0.442v0.193l-0.063,0.106l-0.534,0.294l-1.128,0.863
	l-0.189,0.109l-0.904,0.376l-0.321,0.202l-0.32,0.316l-0.551,0.545l-0.642,0.635l-0.517,0.508l-0.093,0.157l0,0l-0.412,0.755
	l-0.144,0.405l-0.038,0.399l0.094,0.342l0.342,0.646l0.108,0.343l0.232,1.381l0.232,1.385l0.39,2.297l0.084,0.483l0.153,0.901
	l-0.828,0.243l-0.233,0.069l-0.662,0.193l-1.032,0.302l-1.345,0.391l-1.6,0.464l-1.617,0.465l-0.179,0.05l-1.935,0.552l-2.013,0.572
	l-2.027,0.57l-1.979,0.553l-1.863,0.516l-1.681,0.464l-1.429,0.392l-1.107,0.303l-0.714,0.193l-0.254,0.07l-0.713,0.191
	l-0.057,0.066l-0.083,0.553l-0.093,0.612l-0.232,0.767l-0.032,0.204l-0.12,0.593l-0.016,0.188l0.179,0.615l-0.078-0.136l-0.21-0.222
	l-0.034-0.144l0.018-0.089l0.049-0.161l0.009-0.088l-0.012-0.291l0.02-0.112l0.102-0.345l0.176-1.876l0.047-0.232l0.01-0.092
	l-0.002-0.245l0.389-0.164l1.337-0.605l0.911-0.311l2.362-0.645l0.896-0.363l0.722-0.197l1.018-0.223l0.844-0.109l0.899-0.133
	l1.006-0.28l0.832-0.174l1.056-0.297l0.761-0.271l0.503-0.439l0.422-0.711l0.137-0.513l0.146-0.458l-0.091-0.391l-0.075-0.216
	l0.266-0.368l0.311-0.559l0.324-0.384l0.097-0.262l0.326-0.327l0.368-0.516l0.205-0.349l0.252-0.476l0.03-0.363l0.076-0.488
	l-0.067-0.796l0.032-0.999l0.116-0.672l0.07-0.541l0.046-0.821l0.222-1.446l0.078-0.425l0.172-0.675l0.229-0.639l0.188-0.452
	l0.252-0.408l0.368-0.326l0.59-0.384l0.423-0.341l0.531-0.368l0.479-0.3l0.419-0.339l0.146-0.259l0.235-0.461l0.312-0.818
	l0.175-0.498l0.272-0.64l0.34-0.479l0.221-0.209l0,0l0.186-0.178l0.46-0.405l0.558-0.48l0.402-0.385l0.346-0.374l0.299-0.297
	l0.338-0.426l0.131-0.313l0.162-0.542l0.182-0.831l0.124-0.86l0.116-0.916l0.098-0.575l0.088-0.687l0.155-0.539l0.097-0.573
	l0.081-0.241l-0.03-0.266l0.063-0.402l0.019-0.035l0,0l0.115-0.218l0.352-0.196l0.404-0.216l0.645-0.249l0.181-0.142l0.062-0.337
	l0.044-0.288l0.193-0.496l0.233-0.416l0.133-0.252l0.17-0.419l0.179-0.316l0.322-0.426l0.285-0.342l0.075-0.294l-0.039-0.318
	l-0.258-0.199l-0.219-0.433l0.641-0.307l0.556-0.303l0.505-0.285l0.602-0.367l0.468-0.119l0.357-0.143l0.534-0.031l0.523-0.081
	l0.384,0.065l0.662,0.148l0.546,0.073l0.311-0.08l0.316-0.188l0.259-0.219l0.17-0.053l0.271,0.037l0.43,0.103l0.409-0.107
	l0.401-0.163l0.27-0.336l0.451-0.546l0.361-0.412l0.336-0.291l0.288-0.128l0.33-0.087l0.377-0.109l0.612-0.11l0.403-0.107
	l0.538-0.216l0.445-0.206l0.175-0.209l-0.032-0.201l-0.147-0.276l-0.153-0.264l-0.07-0.26l0.022-0.299l0.036-0.242l-0.106-0.342
	l-0.206-0.383l-0.063-0.227l0.005-0.013l0,0h0.002l0.308-0.081L1008.836,658.843z"/></svg>