<?xml version="1.0" encoding="utf-8"?>
<!-- Generator: Adobe Illustrator 15.0.0, SVG Export Plug-In . SVG Version: 6.00 Build 0)  -->
<!DOCTYPE svg PUBLIC "-//W3C//DTD SVG 1.1//EN" "http://www.w3.org/Graphics/SVG/1.1/DTD/svg11.dtd">
<svg version="1.1" id="Ebene_1" xmlns="http://www.w3.org/2000/svg" xmlns:xlink="http://www.w3.org/1999/xlink" x="0px" y="0px"
	 width="1920px" height="1080px" viewBox="0 0 1920 1080" enable-background="new 0 0 1920 1080" xml:space="preserve">

<path fill="#F4E0B6" stroke="#FFFFFF" d="M1253.914,816.701l0.134-0.121l0.114-0.105l0.07-0.042l0.097-0.09l0.14-0.129l0.14-0.13
	l0.139-0.128l0.14-0.129l0.139-0.129l0.141-0.129l0.139-0.129l0.141-0.129l0.14-0.129l0.142-0.127l0.139-0.129l0.14-0.129
	l0.141-0.129l0.141-0.128l0.139-0.128l0.141-0.131l0.097-0.088l0.065-0.045l0.076-0.029l0.203-0.108h0.057l0.021-0.032l0.13-0.139
	l0.061-0.049l0.076-0.025l0.194-0.033l0.125-0.044l0.093-0.002l0.106-0.038l0.043,0.006l0.041,0.015l0.047,0.006l0.074-0.011
	l0.035-0.013l0.034-0.024l0.029-0.042l0.024-0.087l0.027-0.049l0.003-0.04l0.011-0.044l0.029-0.033l0.168-0.099l0.353-0.132
	l0.024-0.002l0.03,0.008l0.037,0.006l0.045-0.016l0.117-0.074l0.29-0.095l0.129-0.009l0.091,0.046l0.055-0.081l0.064,0.009h0.007
	l0.08,0.04l0.087,0.013l0.037-0.018l0.057-0.064l0.035-0.029l0.022,0.007l0.015,0.084l0.017,0.029l0.041,0.019l0.028,0.004
	l0.031-0.01l0.044-0.024l0.02,0.009l0.105,0.025h0.018l0.102,0.104l0.018,0.016l0.04-0.012l0.039,0.007l0.035,0.018l0.025,0.023
	l0.007-0.065l0.025-0.019l0.091,0.029l0.024,0.017l0.026,0.057l0.02,0.02l0.026,0.008h0.057l0.029,0.003l0.088,0.041l0.034-0.005
	l0.066-0.031l0.058-0.018l0.07,0.003l0.068,0.022l0.054,0.039l-0.274,0.093l-0.151,0.085l-0.05,0.202l-0.092,0.126l-0.113,0.071
	l-0.085-0.064l-0.064,0.129l-0.043,0.035l-0.06-0.03l-0.042,0.062h-0.04l-0.045-0.022l-0.056-0.005l-0.011-0.072l-0.037,0.03
	l-0.007,0.031l0.004,0.035l-0.011,0.045l-0.017,0.029l-0.221,0.253l-0.069,0.05l-0.055,0.055l-0.043,0.129l-0.066,0.062
	l-0.016,0.026l0.012,0.071l-0.025,0.031l-0.031,0.024l-0.024,0.034l-0.018,0.033l-0.011,0.028l-0.021,0.194l-0.079,0.16
	l-0.025,0.087l-0.051,0.347l-0.007,0.018l0.002,0.029l-0.015,0.095l0.002,0.032l-0.032,0.032l-0.161,0.118l-0.04,0.04l-0.201-0.05
	l-0.042-0.061l-0.033-0.014l-0.03,0.003l-0.044-0.013l-0.141-0.093l-0.071-0.017l-0.094,0.03l-0.131,0.067l-0.043,0.055l-0.022,0.1
	l0.008,0.258l-0.018,0.049l-0.039,0.012l-0.085,0.002l-0.048,0.011l-0.085,0.034l-0.068,0.055l-0.091,0.146l-0.043,0.334
	l-0.069,0.168l-0.12,0.106l-0.021,0.033l-0.043,0.173l-0.016,0.04l-0.077,0.111l-0.025,0.06l-0.005,0.031l0.003,0.038l-0.024-0.005
	l-0.024-0.001l-0.023,0.007l-0.019,0.017l-0.073,0.171l0.072,0.148l-0.024,0.094l-0.063,0.144l-0.021,0.069l-0.004,0.145
	l-0.017,0.071l-0.047,0.052l-0.113,0.603l-0.034,0.069l-0.069,0.06l-0.022,0.16l-0.012,0.035l-0.011,0.021l-0.103,0.125l-0.065,0.04
	l-0.072-0.013l-0.131-0.153l-0.162-0.141l-0.067-0.035l0.002-0.116l-0.085-0.065l-0.203-0.066l-0.008-0.084l-0.044-0.026
	l-0.058-0.008l-0.047-0.034l-0.045-0.039l-0.049,0.006l-0.056,0.02l-0.063,0.008l-0.039-0.02l-0.095-0.037l-0.086-0.019
	l-0.015,0.064l-0.035,0.014l-0.04,0.007l-0.028,0.002l-0.018-0.02l-0.033-0.073l-0.017-0.022l-0.047-0.027l-0.195-0.073
	l-0.104-0.076l-0.08-0.036l-0.023-0.016l-0.021-0.024l-0.055-0.1l-0.02-0.007l-0.029,0.013l-0.032,0.007l-0.029-0.021l-0.032-0.056
	l-0.021-0.024l-0.034-0.004h-0.063l-0.144,0.077l-0.244,0.177l-0.303,0.218l-0.416,0.3l-0.284,0.26l-0.274,0.249l-0.276,0.251
	l-0.274,0.249l-0.274,0.25l-0.273,0.252l-0.274,0.249l-0.274,0.249l-0.274,0.252l-0.272,0.251l-0.274,0.251l-0.272,0.251
	l-0.272,0.25l-0.273,0.251l-0.273,0.252l-0.272,0.251l-0.272,0.251l-0.056,0.052l-0.054,0.052l-0.055,0.051l-0.056,0.05
	l-0.069,0.045l-0.066,0.046l-0.17,0.112l-0.169,0.112l-0.17,0.113l-0.168,0.112l-0.203,0.136l-0.202,0.136l-0.203,0.135
	l-0.202,0.136l-0.111,0.074l-0.065,0.045l0.072,0.113l0.104,0.164l0.104,0.164l0.104,0.162l0.104,0.164l0.103,0.165l0.104,0.163
	l0.104,0.162l0.104,0.164l0.104,0.164l0.104,0.162l0.103,0.162l0.104,0.164l0.103,0.163l0.103,0.162l0.104,0.162l0.103,0.164
	l0.316,0.496l0.118,0.185l0.197,0.313l0.317,0.496l0.315,0.496l0.314,0.494l0.314,0.493l0.314,0.494l0.313,0.492l0.313,0.493
	l0.313,0.49l0.25,0.394l0.062,0.098l0.313,0.49l0.313,0.49l0.312,0.489l0.311,0.488l0.31,0.484l0.002,0.003l0.143,0.226l0.145,0.226
	l0.143,0.225l0.143,0.224l0.143,0.226l0.144,0.223l0.143,0.226l0.143,0.225l0.144,0.224l0.143,0.223l0.143,0.225l0.143,0.224
	l0.143,0.225l0.142,0.223l0.143,0.223l0.143,0.223l0.101,0.159l0.046,0.171l-0.203,0.124l-0.827,0.51l-0.826,0.51l-0.826,0.513
	l-0.825,0.514l0.215,0.331l0.375,0.579l0.375,0.579l0.375,0.578l0.374,0.577l0.428,0.658l0.427,0.657l0.426,0.657l0.257,0.397
	l0.169,0.259l0.425,0.656l0.425,0.655l0.354,0.546l0.068,0.106l0.424,0.653l0.423,0.652l0.423,0.651l0.422,0.65l0.421,0.649
	l0.032,0.047l0.137,0.213l0.137,0.211l0.138,0.212l0.137,0.211l0.138,0.212l0.137,0.212l0.136,0.211l0.137,0.212l0.138,0.21
	l0.137,0.211l0.136,0.212l0.137,0.212l0.138,0.21l0.136,0.211l0.137,0.211l0.031,0.049l0.105,0.161l0.136,0.211l0.136,0.21
	l0.137,0.211l0.137,0.21l0.136,0.21l0.137,0.211l0.136,0.211l0.136,0.208l0.137,0.212l0.136,0.209l0.136,0.211l0.136,0.209
	l0.136,0.21l0.136,0.21l0.136,0.21l0.136,0.209l0.136,0.209l0.135,0.21l0.137,0.209l0.136,0.21l0.134,0.209l0.137,0.21l0.136,0.208
	l0.136,0.209l0.135,0.209l0.136,0.209l0.134,0.21l0.137,0.208l0.136,0.209l0.134,0.209l0.136,0.209l0.134,0.208l0.137,0.209
	l0.134,0.209l0.136,0.208l0.135,0.208l0.135,0.208l0.135,0.209l0.135,0.207l0.135,0.209l0.135,0.209l0.135,0.207l0.135,0.209
	l0.135,0.207l0.135,0.209l0.135,0.207l0.135,0.207l0.134,0.208l0.095,0.146l0.066,0.114l-0.086,0.089l-0.031,0.025l-0.114,0.054
	l-0.033,0.027l-0.055,0.103l-0.06,0.227l-0.077,0.087l-0.149,0.112l-0.059,0.073l-0.03,0.091l-0.037,0.065l-0.31,0.234l-0.022,0.028
	l-0.02,0.043l-0.005,0.039v0.042l-0.004,0.055l0.002,0.041l0.017,0.087l-0.013,0.025l-0.022,0.031l0.001,0.045l0.1,0.356
	l0.002,0.075l-0.027,0.083l-0.046,0.072l-0.219,0.237l-0.033,0.05l-0.038,0.018l-0.119-0.015l-0.044,0.034l-0.019,0.063
	l-0.005,0.073l0.015,0.143l0.038,0.084l0.074,0.067l0.259,0.13l0.027,0.047l-0.022,0.048l-0.101,0.076l-0.011,0.027l0.003,0.081
	l-0.008,0.043l-0.121,0.218l-0.104,0.13l-0.12,0.088l-0.102-0.036l-0.026-0.006l-0.043,0.012l-0.123,0.059l-0.027,0.007
	l-0.061-0.018l-0.167-0.076l-0.088-0.017l-0.74,0.341l-0.559,0.494l-0.074,0.14l-0.054,0.069l-0.021,0.001l-0.063-0.01h-0.021
	l-0.015,0.016l-0.018,0.036l-0.013,0.019l-0.057,0.05l-0.027,0.035l-0.015,0.032l-0.045,0.067l-0.088,0.038l-0.17,0.039
	l-0.074,0.042l-0.257,0.227l-0.088,0.115l-0.062,0.039l-0.335,0.083l-0.166,0.018l-0.307-0.035l-0.156,0.003l-0.149,0.028
	l-0.621,0.235l-0.098,0.078l-0.024,0.041l-0.034,0.085l-0.021,0.037l-0.04,0.029l-0.123,0.039l-0.092,0.016l-0.064-0.066
	l-0.059-0.091l-0.07-0.065l-0.073-0.002l-0.046,0.048l-0.041,0.07l-0.055,0.06l-0.123,0.105l-0.12,0.129l-0.134,0.061l-0.081-0.105
	l-0.063-0.18l-0.077-0.156l-0.091-0.058l-0.147,0.035l-0.067-0.044l-0.075-0.071l-0.167-0.056l-0.071-0.048l-0.023-0.061l0.01-0.076
	l0.03-0.074l0.045-0.051l0.026-0.071l-0.032-0.105l-0.062-0.104l-0.06-0.074l-0.045-0.03l-0.099-0.034l-0.049-0.022l-0.043-0.037
	l-0.029-0.034l-0.035-0.031l-0.061-0.025l-0.036-0.026l-0.037-0.045l-0.04-0.031l-0.049,0.008l-0.08,0.06l-0.173,0.187l-0.117,0.049
	l-0.128-0.039l-0.134-0.159l-0.048-0.089l-0.056-0.084l-0.073-0.043l-0.1,0.029l-0.082,0.013l-0.089-0.038l-0.089-0.049
	l-0.083-0.025l-0.047,0.01l-0.034,0.021l-0.052,0.06l-0.025,0.043l-0.052,0.153l-0.102,0.036l-0.031,0.035l-0.013,0.079
	l-0.028,0.044l-0.036,0.016l-0.061-0.019l-0.029,0.01l-0.01,0.029l-0.012,0.1l-0.005,0.019l0.177,0.305l0.002,0.054l-0.016,0.007
	l-0.026-0.003l-0.053,0.039l-0.021-0.001l-0.017,0.003l-0.009,0.029l0.009,0.026l0.022,0.013l0.107,0.035l0.02,0.025l-0.042,0.045
	l-0.069,0.045l-0.008,0.026l0.01,0.043l0.028,0.02l0.051,0.02l0.048,0.031l0.025,0.051l-0.014,0.043l-0.042,0.01l-0.048-0.001
	l-0.037,0.005l-0.038,0.067l0.031,0.074l0.064,0.066l0.063,0.04l0.141,0.06l0.069,0.052l-0.014,0.052l-0.025,0.064l0.034,0.084
	l0.054,0.085l0.033,0.067l0.009,0.086l-0.005,0.117l-0.026,0.098l-0.058,0.031l-0.037-0.025l-0.041-0.039l-0.043-0.032l-0.042,0.001
	l-0.024,0.035l-0.075,0.408l-0.097,0.121l-0.057,0.108l-0.044,0.113l-0.04,0.067l-0.03,0.086l0.007,0.076l-0.016,0.064l-0.093,0.045
	l-0.054,0.002l-0.311-0.028l-0.18-0.048l-0.099-0.039l-0.593-0.112l-0.074,0.015l-0.041-0.006l-0.381-0.13l-0.376-0.1l-0.648-0.02
	l-0.148-0.025l-0.315-0.1l-0.364-0.026l-0.079-0.02l-0.215-0.092l-0.185-0.037l-0.035-0.016l-0.033-0.039l-0.031-0.089l-0.021-0.037
	l-0.123-0.086l-0.174-0.062l-0.554-0.1l-0.087-0.036l-0.078-0.076l-0.134-0.188l-0.028-0.025l-0.052-0.031l-0.669-0.284
	l-0.136-0.079l-0.081-0.031l-0.07,0.013l-0.052-0.015l-0.232-0.124l-0.257-0.081l-0.049-0.024l-0.251-0.258l-0.043-0.022
	l-0.041-0.011l-0.04-0.016l-0.041-0.042l-0.085-0.162l-0.214-0.205l-0.014-0.069l-0.163-0.089l-0.069-0.058l-0.066-0.076
	l-0.104-0.153l-0.071-0.06l-0.098-0.028l-0.028,0.007l-0.064,0.036l-0.037,0.01l-0.018-0.013l-0.051-0.022l-0.049-0.017
	l-0.011,0.009l-0.067-0.074l-0.071-0.052l-0.264-0.147l-0.062-0.05l-0.057-0.108l-0.086-0.049l-0.101-0.041l-0.071-0.042
	l-0.068-0.079l-0.044-0.079l-0.009-0.071l0.034-0.053l0.028-0.031l0.023-0.036l0.025-0.016l0.036,0.028l0.1,0.139l0.022-0.016
	l-0.039-0.081l-0.071-0.235l-0.026-0.039l-0.055-0.034l-0.229-0.177l-0.202-0.19l-0.173-0.082l-0.191-0.038h-0.187l-0.255,0.055
	l-0.053-0.012l-0.232-0.269l-0.187-0.284l-0.139-0.055l-0.029-0.017l-0.019-0.052l0.02-0.016l0.033-0.009l0.02-0.036l-0.039-0.147
	l-0.115-0.155l-0.149-0.133l-0.14-0.086l-0.328-0.143l-0.105-0.107l-0.043-0.173l-0.024,0.019l-0.316-0.086l-0.129-0.059
	l-0.039-0.038l-0.022-0.03l-0.029-0.057l-0.208-0.289l-0.042-0.085l-0.037-0.259l-0.033-0.067l-0.062-0.082l-0.066-0.064
	l-0.127-0.021l-0.089-0.08l-0.135-0.156l-0.244-0.165l-0.145-0.16l-0.133-0.113l-0.057-0.071l-0.094-0.345l-0.042-0.037
	l-0.121-0.309l-0.097-0.159l-0.136-0.117l-0.115-0.063l-0.173-0.095l-0.147-0.115l-0.224-0.288l-0.145-0.112l-0.461-0.235
	l-0.162-0.058l-0.286-0.048l-0.128-0.076l-0.213-0.057l-0.089-0.078l-0.016-0.048l0.008-0.088l-0.005-0.029l-0.109-0.151
	l-0.066-0.059l-0.177-0.086l-0.211-0.136l-0.442-0.229l-0.257-0.208l-0.156-0.077l-0.146-0.152l-0.066-0.036l-0.038-0.087
	l-0.091-0.123l-0.106-0.116l-0.087-0.063l-0.012-0.068l-0.052-0.116l-0.011-0.066l0.013-0.024l0.028-0.027l0.019-0.032l-0.014-0.045
	l-0.019-0.12l-0.06-0.028l-0.148-0.21l-0.188-0.136l-0.058-0.058l-0.343-0.565l-0.114-0.121l-0.113-0.077l-0.372-0.247l-0.166-0.139
	l-0.024-0.038l0.004-0.052l-0.026-0.209l0.012-0.07l0.057,0.079l0.041,0.022l0.007-0.034l-0.05-0.088l-0.108-0.141l-0.379-0.388
	l-0.135-0.107l-0.13-0.057l-0.125-0.071l-0.125-0.094l-0.118-0.113l-0.19-0.235l-0.021-0.038l-0.01-0.048l-0.008-0.102l-0.015-0.042
	l-0.113-0.153l0.006-0.014l0.021-0.016l0.02,0.007l0.004,0.047l0.033,0.013l0.045,0.022l0.023,0.007l0.035,0.09l0.05,0.079
	l0.055,0.021l0.047-0.086l0.025,0.047l0.04,0.14l0.017-0.083l-0.031-0.204l0.024-0.064l0.013-0.063l-0.037-0.104l-0.108-0.184
	l-0.499-0.636l-0.424-0.445l-0.178-0.078l-0.16-0.142l-0.314-0.172l-0.229-0.176l-0.286-0.159l-0.043-0.016l-0.416-0.101
	l-0.162-0.074l-0.07-0.089l-0.031-0.027l-1.059-0.339l-0.445-0.066l-0.071-0.042l-0.489-0.073l-0.093,0.015l-0.03-0.039l-0.014-0.05
	l-0.004-0.023l-0.048-0.109l-0.016-0.026l-0.046-0.039l-0.041-0.025l-0.596-0.229l-0.232-0.205l-0.309-0.194l-0.715-0.229
	l-0.494-0.219l-0.264-0.074l-0.172-0.05l-0.74-0.351l-0.296-0.1l-0.149-0.107l-0.09-0.019l-0.153-0.011l-0.17-0.081l-0.13-0.1
	l-0.271-0.287l-0.351-0.271l-0.762-0.391l-0.334-0.274l-0.141-0.148l-0.305-0.258l-0.365-0.232l-0.184-0.077l-0.179,0.054h-0.237
	l-0.278-0.126l-0.47-0.392l-0.685-0.345l-0.118-0.09l-0.307-0.098l-0.634-0.304l-0.098-0.066l-0.082-0.029l-0.237-0.129l-0.061-0.02
	l-0.381-0.178l-0.143-0.087l-0.072-0.061l-0.156-0.159l-0.104-0.055l-0.231-0.071l-0.178-0.085l-0.512-0.32l-0.165-0.067
	l-0.21-0.053l-0.209-0.013l-0.076-0.027l-0.253-0.246l-0.094-0.059l-1.205-0.386l-0.618,0.015l-0.337-0.081l-0.038-0.006
	l-0.135-0.046l-0.054,0.005h-0.055l-0.271,0.016l-0.214-0.162l-0.066-0.062l-0.14-0.087l-0.039-0.042l-0.029-0.038l-0.032-0.036
	l-0.022-0.044l-0.183-0.064l-0.433-0.278l-0.044-0.01l-0.549-0.109l-0.191-0.135l-0.202-0.21l-0.209-0.139l-0.148-0.108l-0.337-0.34
	l-0.305-0.225l-0.366-0.356l-0.196-0.17l-0.125-0.107l-0.195-0.187l-0.221-0.313l-0.479-0.867l-0.001-0.083l0,0l0.057-0.025
	l0.092-0.01l0.047-0.02l0.052-0.042l0.006-0.03l-0.013-0.032l-0.002-0.047l0.034-0.092l0.098-0.179l0.074-0.252l0.099-0.176
	l0.134-0.167l0.156-0.142l0.021-0.025l0.016-0.022l0.027-0.017h0.059l0.159-0.049l0.035-0.038l0.008-0.032l0.009-0.023l0.044-0.012
	l0.04,0.006l0.029,0.021l0.029,0.025l0.038,0.021l0.037,0.007l0.058,0.001l0.06-0.005l0.048-0.018l0.048-0.008l0.046,0.025
	l0.039,0.029l0.024,0.008l0.251-0.208l0.25-0.154l0.038-0.059l0.02-0.076l0.037-0.029l0.129-0.007l0.089-0.023l0.234-0.129
	l0.156-0.06l0.044-0.036l0.056-0.107l0.057-0.26l0.067-0.092l0.084-0.077l0.044-0.084l0.048-0.2l0.105-0.192l0.098-0.125v-0.05
	l-0.014-0.077l0.013-0.055l0.019-0.031l0.051-0.065l0.016-0.045l-0.01-0.045l-0.027-0.051l-0.011-0.049l0.07-0.085l0.047-0.086
	l0.097-0.104l0.111-0.248l0.35-0.34l0.064-0.086l0.078-0.062l0.109,0.006l0.029-0.061l0.044,0.004l0.054,0.022l0.056-0.007
	l0.095-0.042l0.045-0.028l0.029-0.041l0.021,0.03l0.062-0.11l0.047-0.052h0.038l0.025-0.016l0.073-0.086l0.054-0.062l0.088-0.021
	l0.2,0.004l0.083-0.023l0.098-0.048l0.103-0.02l0.097,0.017l0.165,0.123l0.094,0.017l0.08,0.043l0.048,0.137l0.453-0.033
	l0.529,0.055l0.511-0.037l0.498-0.035l0.077,0.012l0.343,0.119l0.086,0.006l0.1-0.04l0.04-0.039l0.031-0.077l0.026-0.032
	l0.046-0.022l0.084-0.023l0.088-0.043l0.075-0.021l0.045-0.028l0.032-0.039l0.033-0.074l0.019-0.025l0.185-0.081l0.073-0.068
	l-0.021-0.101l-0.011-0.022l0.042-0.027l0.001-0.001l0.255-0.167l0.958-0.63l0.958-0.626l0.957-0.627l0.957-0.621l0.915-0.593
	l0.041-0.026l0.956-0.619l0.957-0.618l0.954-0.613l0.957-0.613l0.955-0.611l0.955-0.607l0.631-0.4l0.325-0.206l0.955-0.605
	l0.955-0.603l0.452-0.285l0.504-0.315l0.955-0.6l0.199-0.125l0.031-0.017l0.021,0.022l0.038,0.028h0.034l0.038,0.006l0.163,0.113
	l0.034,0.038l0.016,0.001l0.107-0.029l0.299,0.177l0.042,0.036l0.067-0.003l0.306,0.045l0.03,0.022l0.066,0.059l0.044,0.023
	l0.06,0.015l0.092-0.007l0.053,0.003l0.366,0.096l0.142,0.057l0.081,0.014l0.169-0.055l0.443-0.036l0.545-0.209l0.302-0.211
	l0.093-0.131l0.068-0.067l0.042-0.024l0.126-0.045l0.157-0.115l0.086,0.003l0.707-0.184l0.63-0.402l0.179-0.179l0.079-0.062
	l0.089-0.027l0.082,0.051l0.052,0.009l0.1-0.01l0.105-0.025l0.062-0.032l0.004-0.031l-0.006-0.102l0.014-0.031l0.586-0.361
	l0.191-0.003l0.161-0.032l0.039-0.017l0.201-0.155l0.103-0.061l0.044-0.038l0.036-0.058l0.048,0.015l0.022-0.083l0.073-0.078
	l0.102-0.055l0.112-0.017l0.057-0.192l0.058,0.003l0.049-0.033l0.108-0.102l0.054-0.01l0.226,0.038l0.08-0.083l0.118-0.015
	l0.134,0.026l0.125,0.039l0.058,0.009l0.169-0.013l0.16,0.017l0.063-0.004l0.077-0.082l0.142-0.096l0.141-0.07l0.082-0.002
	l0.048,0.018l0.079-0.01l0.067-0.027l0.018-0.033l0.005-0.054l0.074-0.02l0.149-0.008l0.128,0.026l0.09-0.067l0.083-0.109
	l0.105-0.098l-0.017-0.139l0.238-0.258l0.043-0.048l0.282-0.306l0.077-0.008l0.053-0.054l0.044-0.067l0.06-0.053l0.061-0.022
	l0.145-0.103l0.069-0.021l0.23-0.006l0.26-0.049l0.146-0.01l0.112,0.046l0.026-0.006l0.055-0.063l0.235-0.215l0.814-0.748
	l0.814-0.746l0.817-0.747l0.819-0.746l0.665-0.609l0.665-0.61l0.666-0.609l0.668-0.606L1253.914,816.701z"/></svg>