<?xml version="1.0" encoding="utf-8"?>
<!-- Generator: Adobe Illustrator 15.0.0, SVG Export Plug-In . SVG Version: 6.00 Build 0)  -->
<!DOCTYPE svg PUBLIC "-//W3C//DTD SVG 1.1//EN" "http://www.w3.org/Graphics/SVG/1.1/DTD/svg11.dtd">
<svg version="1.1" id="Ebene_1" xmlns="http://www.w3.org/2000/svg" xmlns:xlink="http://www.w3.org/1999/xlink" x="0px" y="0px"
	 width="1920px" height="1080px" viewBox="0 0 1920 1080" enable-background="new 0 0 1920 1080" xml:space="preserve">

<path fill="#F4E0B6" stroke="#FFFFFF" d="M1160.894,562.653l-0.007,0.088l0.027,0.163l-0.01,0.089l-0.02,0.05l-0.028,0.047
	l-0.034,0.042l-0.037,0.034l-0.042,0.052l-0.027,0.201l-0.026,0.093l-0.04,0.043l-0.036,0.043l-0.007,0.044l0.057,0.06h0.001l0,0
	l0.008,0.015l0,0l-0.028-0.001l0,0l-0.002,0.001l-0.058-0.001l-0.116-0.045l-0.033-0.01l-0.032,0.029l0.004,0.049l0.018,0.063
	l0.009,0.066l0.033,0.096l0.121,0.179l0.049,0.104l0.019,0.078l0.016,0.139l0.024,0.065l-0.087,0.074l-0.1,0.166l-0.139,0.165
	l-0.045,0.023l-0.054-0.017l-0.052-0.026l-0.056-0.015l-0.054-0.004l-0.023,0.004l-0.021,0.005l-0.037,0.026l-0.085,0.116
	l-0.022,0.016l-0.051,0.02l-0.02,0.011l-0.015,0.021l-0.014,0.049l-0.01,0.016l-0.256,0.154l-0.004-0.005l-0.008-0.018l-0.011,0.011
	l-0.009-0.001l-0.006-0.01l-0.011-0.009l-0.01-0.053l-0.002-0.06l0.01-0.055l0.046-0.075l-0.003-0.052l-0.011-0.054l-0.002-0.044
	l-0.035-0.012l0.016-0.017l0.013-0.002l0.028,0.016l-0.051-0.259l-0.063-0.116l-0.128-0.047l0.03-0.092l-0.003-0.1l-0.056-0.196
	l-0.026-0.052l-0.067-0.097l-0.024-0.059l-0.004-0.119l-0.014-0.059l-0.044-0.035l0.069-0.231l0.02-0.137l-0.043-0.131l-0.026-0.05
	l-0.11-0.392l-0.036-0.01l0.018-0.074l-0.071-0.171l0.027-0.068l-0.033-0.041l-0.09-0.369l-0.04-0.08l-0.102-0.151l-0.019-0.025
	l-0.04-0.035l-0.043-0.021l-0.031-0.022l-0.005-0.039l0.024-0.034l0.044-0.022l0.046-0.01l0.028,0.003l0.021-0.016l0.018-0.036
	l0.046-0.028l0.028-0.018l0.033-0.047l0.001-0.037l-0.022-0.092l-0.007-0.04l-0.009-0.016l-0.009-0.001l-0.02,0.011l0.004-0.048
	l-0.027-0.111l-0.004-0.051l0.016-0.021l0.049-0.036l0.002-0.023l-0.026-0.031l-0.025-0.007l-0.023,0.003l-0.019-0.009l-0.064-0.084
	l-0.065-0.191l-0.066-0.119l-0.04-0.035l-0.099-0.048l-0.047-0.043l-0.089-0.121l-0.009-0.032l0.02-0.06l-0.004-0.026l-0.081-0.114
	l-0.066-0.119l-0.031-0.12l0.025-0.112l0.081,0.006l-0.006-0.109l-0.037-0.145l-0.015-0.102l0.099-0.21l0.001-0.105l-0.115-0.046
	l-0.018-0.024l0.066-0.025l0.19-0.23l0.048-0.265l0.022-0.07l0.007-0.054l-0.02-0.062l-0.121-0.168l-0.063-0.068l-0.064-0.049
	l-0.062-0.017l0,0l0.037-0.028l0.031-0.013l0.028-0.006l0.083,0.003l0.077-0.028l0.068-0.047l0.07-0.067l0.077-0.051l0.136-0.084
	l0.011-0.014l0.02-0.048l0.014-0.017l0.021-0.005h0.053l0.022-0.007l0.171-0.142l0.02-0.034l0.005-0.048l-0.012-0.042l-0.051-0.07
	l-0.01-0.033l0.029-0.087l0.064-0.005l0.163,0.073l0.099,0.01l0.088-0.028l0.071-0.056l0.055-0.076l0.071,0.121l-0.01,0.03
	l-0.05-0.001l-0.053,0.021l-0.023,0.057l0.025,0.047l0.042,0.05l0.028,0.066l-0.025,0.087l-0.048,0.104l-0.012,0.088l0.07,0.032
	l0.021,0.01l0.01-0.003l0.009-0.005l0.007-0.008l0.007-0.008l0.045-0.061l0.083-0.067l0.085-0.053l0.052-0.016l0,0l0.064,0.045
	l0.062,0.025l0.064,0.003l0.067-0.016l0.081,0.02l0.031-0.002l0.017-0.022l0.071-0.002l0.04,0.02l0.026,0.04l0.033,0.066l0.01,0.03
	l0.002,0.024l0.005,0.024l0.018,0.031l0.029,0.022l0.035,0.017l0.131,0.041l0.056,0.011l0.029-0.007l0.02-0.017l0.023-0.01
	l0.035,0.016l0.028,0.05v0.061l0.013,0.063l0.063,0.055l0.058,0.038l0.123,0.016l0.042,0.023l0.004,0.003l-0.016,0.151l0.017,0.165
	l-0.049,0.211l-0.005,0.115l0.02,0.063l0.026,0.046l0.007,0.045l-0.03,0.061l-0.04,0.03l-0.081,0.023l-0.035,0.022l-0.039,0.077
	l-0.008,0.198l-0.043,0.188l-0.003,0.093l0.006,0.093l0.031,0.175l0.014,0.008l0.044,0.021l0.035,0.007l0.139,0.004l0.131-0.065
	l0.075-0.008l0.06,0.069l-0.002,0.072l-0.051,0.051l-0.131,0.058l-0.209,0.036l-0.06,0.029l-0.031,0.049l-0.018,0.064l-0.027,0.064
	l-0.062,0.047l-0.035,0.003l-0.073-0.021l-0.027,0.003l-0.059,0.144l-0.036,0.06l-0.045,0.057l-0.033,0.053l-0.001,0.061
	l0.016,0.104l-0.037,0.156l0.003,0.089l0.011,0.055l-0.017,0.089l0.001,0.049l0.018,0.032l0.056,0.059l0.018,0.039l-0.005,0.024
	l-0.028,0.043l-0.003,0.021l0.044,0.084l0.058-0.005l0.075-0.036l0.099-0.013l0.051-0.02l0.075-0.013l0.077,0.002l0.056,0.02
	l0.039,0.072l-0.006,0.087l-0.032,0.086l-0.038,0.067l-0.07,0.05l-0.055,0.074v0.071l0.094,0.044l0.035,0.146l-0.035,0.145
	l-0.031,0.073l-0.043,0.1L1160.894,562.653z"/></svg>