<?xml version="1.0" encoding="utf-8"?>
<!-- Generator: Adobe Illustrator 15.0.0, SVG Export Plug-In . SVG Version: 6.00 Build 0)  -->
<!DOCTYPE svg PUBLIC "-//W3C//DTD SVG 1.1//EN" "http://www.w3.org/Graphics/SVG/1.1/DTD/svg11.dtd">
<svg version="1.1" id="Ebene_1" xmlns="http://www.w3.org/2000/svg" xmlns:xlink="http://www.w3.org/1999/xlink" x="0px" y="0px"
	 width="1920px" height="1080px" viewBox="0 0 1920 1080" enable-background="new 0 0 1920 1080" xml:space="preserve">

<path fill="#F4E0B6" stroke="#FFFFFF" d="M1171.27,679.52l0.078,0.121l1.098,0.611l0.606,0.093l1.188,0.383l1.363,0.839l1.37,0.842
	l0.201,0.158l0.569,0.732l0.079,0.19l0.021,0.17l-0.006,0.35l0.023,0.164l0.033,0.051l0.104,0.093l0.043,0.056l0.076,0.148
	l0.036,0.039l0.063,0.041l0.029-0.02l0.031-0.003l0.043,0.023l0.02,0.031l0.102,0.423l0.041,0.085l0.122,0.121l0.044,0.064
	l-0.006,0.077l-0.027,0.079l-0.035,0.317l-0.032,0.155l-0.029,0.06l-0.06,0.052l-0.138,0.07l-0.047,0.064l-0.002,0.106l-0.002,0.048
	l0.243,0.651l0.073,0.109l0.108,0.064l0.15,0.008l0.108-0.074l0.059-0.259l0.075-0.038l0.087,0.086l0.086,0.167l0.099,0.297
	l0.002,0.171l-0.05,0.316l0.014,0.153l0.062,0.115l0.104,0.106l0.122,0.068l0.108-0.005l0.054-0.051l0.051-0.14l0.037-0.07
	l0.066-0.062l0.076-0.031l0.082-0.007l0.091,0.014l0.067-0.007l0.132-0.08l0.156-0.034l0.056-0.062l0.093-0.144l0.142-0.087
	l0.301-0.082l0.216-0.16l0.21-0.017l0.088-0.032l0.104-0.09l0.48-0.168l0.214-0.17l0.038-0.03l0.153-0.094l0.101,0.001l0.028,0.073
	l-0.005,0.169l0.021,0.076l0.068,0.049l0.17,0.036l0.054,0.045l-0.003,0.062l-0.097,0.225l-0.013,0.075l0.018,0.577l0.041,0.19
	l0.071,0.163l0.12,0.114l0.157,0.069l0.168,0.03l0.149,0.004l0.082-0.01l0.167-0.043l0.027-0.013l0.08-0.033l0.061-0.035
	l0.033-0.012h0.042l0.104,0.022l0.029,0.002l0.209-0.261l0.135-0.1l0.162,0.051l0.039,0.032l0.04,0.018l0.043,0.005l0.047-0.015
	l0.185,0.017l0.136-0.071l0.263-0.221l0.263-0.086l0.082-0.046l0.091-0.038l0.18,0.006l0.26-0.108l0.173-0.007l0.574,0.165
	l0.085,0.055l0.107,0.163l0.143,0.05l0.058,0.08l0.044,0.022l0.046,0.015l0.048,0.008l0.049,0.002l0.348,0.139l0.188,0.034
	l0.158-0.02l0.056-0.037l0.111-0.106l0.06-0.035l0.114-0.041l0.044,0.004l0.037,0.018l0.04,0.011l0.13-0.021l0.088,0.027
	l0.084,0.052l0.131,0.125l0.136,0.091l0.069,0.067l0.043,0.068l0.104,0.215l0.057,0.062l0.064,0.052l0.053,0.064l0.03,0.094
	l-0.04,0.148l-0.217,0.267l-0.032,0.148l0.032,0.062l0.063,0.067l0.229,0.186l0.338,0.006l0.081,0.01l0.045,0.019l0.085,0.052
	l0.044,0.02l0.045,0.001l0.085-0.017l0.041,0.007l0.073,0.051l0.107,0.122l0.063,0.056l0.086,0.044l0.083,0.014l0.313-0.003
	l0.248,0.046l0.143-0.005l0.063-0.08l0.077-0.025l0.088,0.009l0.305,0.087l0.092,0.001l0.305-0.074l0.1-0.008l0.157,0.031
	l0.04-0.008l0.081-0.051l0.055-0.003l0.111,0.038l0.055-0.014l0.107-0.057l0.046,0.027l0.038,0.063l0.084,0.057l0.079-0.012
	l0.201-0.09l0.093-0.004l0.04,0.028l0.063,0.084l0.046,0.032l0.184,0.008l0.051-0.011l0.092-0.035l0.055-0.006l0.045,0.02
	l0.022,0.037l0.03,0.022l0.059-0.013l0.2-0.093l0.09,0.094l0.163,0.239l0.105,0.086l0.03,0.003l0.024-0.02l0.022-0.024l0.024-0.014
	l0.031,0.009l0.012,0.026l0.011,0.035l0.019,0.027l0.055,0.052l0.039,0.051l0.046,0.043l0.079,0.034l0.134,0.011l0.091-0.021
	l0.087-0.006l0.243,0.11l0.254,0.038l0.121,0.042h0.196l0.313-0.039l0.284,0.013l0.067,0.104l0.036,0.055l-0.003,0.065l0.019,0.187
	l-0.013,0.284l0.034,0.243l-0.015,0.057l-0.027,0.051l-0.021,0.058l0.005,0.072l0.098-0.015l0.049,0.066l0.032,0.105l0.042,0.093
	l0.088,0.084l0.075,0.018l0.082-0.007l0.114,0.006l0.117,0.038l0.195,0.095l0.115,0.013l0.203-0.061l0.1,0.018l0.089,0.116
	l0.071,0.116l0.058,0.007l0.061-0.039l0.081-0.022l0.102,0.045l0.058,0.091l0.014,0.113l-0.03,0.106l-0.049,0.096l-0.043,0.117
	l-0.02,0.125l0.022,0.114l0.076,0.095l0.055-0.063l0.091-0.236l0.091-0.02l0.098,0.058l0.098,0.085l0.095,0.063l0.103,0.021
	l0.311-0.047l0.149-0.06l0.293-0.193l0.387-0.04l0.109,0.011l0.086,0.038l0.156,0.204l0.088,0.067l0.129-0.007l0.095-0.065
	l0.055-0.072l0.059-0.02l0.108,0.089l0.104,0.053l0.093-0.047l0.156-0.16l0.08,0.028l0.133,0.11l0.122,0.023l0.078,0.055
	l0.041,0.007l0.042-0.021l0.059-0.074l0.04-0.024l0.227-0.028l0.059,0.01l0.079,0.063l0.034,0.052l0.043,0.023l0.105-0.018h0.082
	l0.089,0.033l0.084,0.055l0.059,0.068l0.028,0.044l0.027,0.022l0.033,0.011l0.109,0.015l0.019,0.025l0.01,0.037l0.045,0.089
	l0.023,0.082l0.022,0.031l0.055,0.032l0.025-0.009l0.014-0.023l0.014-0.013l0.011-0.016l0.015-0.029l0.029-0.021l0.062,0.009
	l0.042,0.032l0.044,0.091l0.037,0.044l0.152,0.64l0.037,0.081l0.046,0.057l0.111,0.104l0.172,0.23l0.063,0.064l0.304,0.243
	l0.161,0.105l0.164,0.075l0.363,0.047l0.188,0.043l0.188,0.154l0.189,0.03l0.082,0.04l-0.144,0.015l-0.048,0.015l-0.089-0.012
	l-0.055,0.017l-0.085,0.044l-0.049,0.016l-0.047,0.005l-0.092-0.015l-0.092-0.025l-0.088-0.013l-0.088,0.023l-0.101,0.042
	l-0.119,0.027l-0.477,0.007l-0.223,0.029l-0.193,0.092l-0.159,0.183l-0.099,0.182l-0.07,0.177l-0.048,0.192l-0.031,0.233
	l0.005,0.055l0.03,0.143l0.003,0.058l-0.016,0.087l-0.011,0.035l-0.082,0.036l-0.011-0.008l-0.028-0.016l-0.04-0.011l-0.035,0.005
	l-0.021,0.029l-0.013,0.08l-0.028,0.024l-0.045-0.012l-0.309-0.112l-0.042-0.004l-0.068,0.025l-0.207,0.12l-0.029,0.052
	l-0.027,0.089l-0.027,0.05l-0.074,0.009l-0.033,0.025l0.005,0.068l-0.026,0.016l-0.068-0.037l-0.08,0.031l-0.062,0.078l-0.006,0.103
	l-0.053-0.02l-0.009,0.053l-0.035,0.066l-0.043,0.058l-0.029,0.032l-0.079,0.036l-0.148,0.021l-0.061,0.019l-0.027-0.026
	l-0.196-0.144l-0.081-0.017l-0.092-0.007l-0.094-0.018l-0.088-0.054l-0.065,0.095l-0.016,0.041l-0.076-0.035l-0.074,0.038
	l-0.077,0.059l-0.124,0.041l-0.106,0.008l-0.12-0.02l-0.084-0.069l-0.014,0.022l-0.041,0.042l-0.014,0.021l-0.049-0.077
	l-0.014-0.027l-0.039,0.057l-0.052-0.026l-0.13-0.13l-0.004,0.026l-0.017,0.073l-0.025-0.015l-0.04-0.006l-0.032-0.011l-0.042,0.063
	l-0.05-0.021l-0.063-0.042h-0.083l0.01,0.063l-0.003,0.049l-0.021,0.035l-0.035,0.018l-0.029,0.01l-0.027,0.003l-0.03-0.003
	l0.089,0.119l0.039,0.031l-0.053,0.003l-0.04,0.017l-0.018,0.036l0.022,0.064l-0.02,0.016l-0.052,0.029l-0.052,0.045l-0.022,0.067
	l-0.083-0.015l-0.134-0.057l-0.063-0.003l-0.067,0.023l-0.03,0.038l0.01,0.061l0.052,0.085l-0.087,0.006l-0.068,0.056l-0.022,0.088
	l0.052,0.107l-0.121-0.031l-0.095-0.067l-0.088-0.04l-0.103,0.054l0.004,0.04l-0.007,0.082l-0.028,0.052l-0.09-0.081l-0.041-0.023
	l-0.04-0.041l-0.025-0.075l-0.014,0.021l-0.039,0.039l-0.016,0.021l-0.082-0.116l-0.079,0.004l-0.026,0.042l0.069,0.003l-0.002,0.09
	l-0.056,0.039l-0.08,0.006l-0.072-0.015l-0.209-0.085l-0.09-0.016l-0.114,0.024l-0.009-0.002l-0.025,0.002l-0.057-0.024h-0.032
	l-0.046,0.042l-0.011,0.049l-0.028,0.028l-0.091-0.016l-0.018-0.032l0.011-0.029l0.002-0.025l0.002-0.025l0.003-0.024l-0.097,0.058
	l-0.062-0.022l-0.051-0.058l-0.071-0.044l-0.026,0.016l-0.052,0.042l-0.085,0.033l-0.037,0.044l0.087,0.068l-0.045,0.042
	l-0.077,0.109l-0.045,0.012l-0.077-0.028h-0.018l0.002,0.023l-0.122,0.234l-0.079,0.08l-0.106-0.009l-0.008,0.088l-0.051,0.061
	l-0.011,0.049l0.105,0.055l-0.07,0.086l-0.011,0.104l0.032,0.116l0.061,0.12l0.007,0.079l-0.015,0.101l0.012,0.106l0.095,0.094
	l0.042,0.003l0.096-0.032l0.051,0.014l0.024,0.035l0.034,0.113l0.024,0.057l0.005,0.039l-0.013,0.12l0.02,0.064l0.068,0.126
	l0.011,0.061l-0.01,0.072l-0.055,0.06l-0.178,0.13l-0.015,0.065l-0.034,0.061l-0.265,0.18l-0.051,0.004l-0.043-0.007h-0.045
	l-0.048,0.023l-0.004,0.069l-0.013,0.053l-0.03,0.039l-0.007,0.031l0.014,0.127l0.034,0.116l-0.03,0.034l-0.184,0.036l-0.202-0.009
	l-0.191,0.04l-0.049,0.029l-0.021,0.036l-0.041,0.112l-0.015,0.029l-0.085,0.08l-0.092,0.204l-0.063,0.088l-0.053,0.024
	l-0.053,0.001l-0.042,0.007l-0.025,0.042l-0.014,0.086l-0.021,0.073l-0.044,0.033l-0.085-0.026l-0.04,0.097l-0.079,0.055
	l-0.308,0.131h-0.059l-0.016-0.062l0.008-0.12l-0.09-0.017l-0.155,0.025l-0.075-0.012l-0.059-0.045l-0.056-0.102l-0.066-0.024
	l-0.069,0.006l-0.119,0.045l-0.057,0.003l-0.047-0.022l-0.093-0.074l-0.047-0.025l-0.123-0.021l-0.155-0.003l-0.031,0.008
	l-0.105,0.027l-0.081,0.093l0.017,0.065l0.042,0.069l0.012,0.046l-0.076,0.006l-0.05-0.029l-0.127-0.125l-0.053-0.042l-0.02,0.107
	l0.004,0.154l0.033,0.126l0.074,0.021l0.122-0.037l0.043,0.058l-0.015,0.102l-0.049,0.094l-0.285,0.226l-0.021,0.066v0.018
	l0.031,0.174l0.019,0.065l0.027,0.048l0.012,0.042l-0.02,0.052l-0.027,0.016l-0.099-0.106l-0.092,0.005l-0.073,0.076l-0.046,0.107
	l-0.018,0.255l-0.029,0.051l-0.066,0.02l-0.122-0.02l-0.062,0.007l-0.074,0.062l-0.046,0.094l-0.051,0.171l-0.153,0.25l-0.046,0.101
	l-0.106-0.038l-0.032,0.004l-0.019,0.031l-0.001,0.042l0.014,0.059l0.031,0.06l0.048,0.037l0.041,0.064l-0.105,0.059l-0.21,0.061
	l-0.025,0.028l-0.02,0.069l-0.031,0.038l-0.035,0.015l-0.1,0.022l-0.055,0.022l-0.062,0.075l-0.089,0.233l-0.073,0.099l-0.18,0.142
	l-0.07,0.082l-0.105,0.209l-0.169,0.174l-0.065,0.101l-0.126,0.398l-0.059,0.077l-0.095,0.072l-0.051,0.081l-0.013,0.094l0.02,0.108
	l0.026,0.063l0.024,0.045l0.017,0.039v0.051l-0.025,0.036l-0.084,0.042l-0.02,0.041l-0.104-0.007l-0.094,0.011l-0.087,0.028
	l-0.088,0.043l-0.022-0.004l-0.08-0.03l-0.021-0.012l-0.026-0.001l-0.108,0.032l-0.046,0.005l-0.136-0.111l-0.169-0.019
	l-0.024-0.009l-0.072-0.005l-0.207-0.116l-0.102-0.028l-0.132,0.227l-0.096,0.081l-0.122,0.009l-0.073-0.021l-0.072-0.011
	l-0.068,0.005l-0.063,0.023l-0.068,0.002l-0.063-0.052l-0.06-0.067l-0.107-0.08l-0.121-0.11l-0.059-0.02l-0.056,0.024l-0.04,0.054
	l-0.034,0.061l-0.039,0.05l-0.064,0.032l-0.05,0.009l-0.03,0.022l-0.014,0.077l0.011,0.078l0.032,0.063l0.052,0.049l0.069,0.036
	l-0.008,0.071l-0.048,0.142l0.026,0.17l-0.08,0.024l-0.113-0.004l-0.083,0.007l-0.057,0.073l-0.001,0.1l0.047,0.201l0.009,0.099
	l-0.002,0.087l-0.018,0.081l-0.038,0.081l0.035,0.059l0.083,0.09l0.032,0.046l0.009,0.042l0.007,0.115l0.008,0.038l0.002,0.035
	l-0.031,0.085l0.003,0.035l0.066,0.122l0.021,0.06l0.003,0.064l-0.041,0.07l-0.088,0.063l-0.196,0.104l-0.048,0.1l0.044,0.139
	l0.086,0.137l0.077,0.09l0.134,0.062l0.032,0.032l0.012,0.068l-0.011,0.08l-0.029,0.073l-0.041,0.046l-0.008,0.067l0.022,0.352
	l0.034,0.056l0.085,0.096l0.026,0.043l0.004,0.066l-0.035,0.129l-0.006,0.032l0.011,0.101l-0.029,0.136l-0.085,0.217l-0.018,0.028
	l-0.064,0.091l-0.029,0.044l-0.508,0.332l-0.482,0.129l-0.14-0.019l-0.125,0.013l-0.063-0.007l-0.136-0.054l-0.035-0.01
	l-0.104,0.013l-0.25,0.077l-0.122,0.001l-0.156,0.003l-0.04,0.007l-0.051,0.031l-0.019,0.02l-0.012,0.023l-0.032,0.043l-0.082,0.071
	l-0.266,0.126l-0.118,0.037l-0.099-0.014l-0.092-0.023h-0.104l-0.043,0.016l-0.123,0.078l-0.054,0.02l-0.032-0.006l-0.024-0.017
	l-0.032-0.01l-0.113,0.014l-0.069,0.026l-0.143,0.099l-0.174,0.078l-0.07,0.051l-0.285,0.5l-0.058,0.001l-0.088,0.05l-0.053,0.017
	l-0.046-0.007l-0.051-0.018l-0.06-0.01l-0.063,0.019l-0.186,0.119l-0.089,0.039l-0.118,0.023l-0.094,0.005l-0.295-0.041
	l-0.041-0.025l-0.049-0.02l-0.056,0.01l-0.055,0.037l-0.034,0.037l-0.022,0.04l-0.018,0.049l-0.009,0.049l-0.002,0.058l-0.007,0.058
	l-0.026,0.05l-0.053,0.035l-0.048-0.006l-0.049-0.014l-0.054,0.007l-0.092,0.046l-0.041,0.002l-0.08-0.065h-0.07l-0.129,0.018
	l-0.079-0.041l-0.182-0.133l-0.056-0.018l-0.08,0.024l-0.52,0.057l-0.458,0.127l-0.165,0.112l-0.041,0.073l-0.025,0.077
	l-0.046,0.079l-0.095,0.079l-0.35,0.197l-0.34,0.283l-0.116,0.029l-0.125-0.019l-0.716-0.248l-0.031-0.011l-0.104-0.087l-0.03-0.113
	l-0.001-0.114l-0.013-0.089l-0.085-0.092l-0.132-0.078l-0.136-0.046l-0.094,0.004l-0.057-0.019l-0.224-0.191l-0.169-0.112
	l-0.111-0.049l-0.092,0.004l-0.098,0.038l-0.248,0.035l-0.104-0.002l-0.127-0.036l-0.351-0.178l-0.117-0.016l-0.359,0.031
	l-0.195-0.034l-0.158-0.047l-0.161-0.019l-0.438,0.123l-0.132,0.014l-0.082-0.043l-0.063-0.068l-0.153-0.109l-0.07-0.051
	l-0.086-0.043l-0.087-0.015l-0.256,0.003l-0.149,0.042l-0.113,0.002l-0.045,0.011l-0.506,0.271l-0.207,0.003l-0.077,0.07
	l-0.099,0.158l-0.084,0.062l-0.291,0.149l-0.084,0.086l-0.03,0.106l-0.015,0.206l-0.247,0.508l-0.149,0.229l-0.009,0.064
	l0.002,0.172l-0.018,0.184l-0.063,0.063l-0.203,0.11l-0.058,0.075l-0.018,0.07l-0.046,0.175l-0.015,0.129l0.011,0.151l0.044,0.187
	l0.004,0.063l-0.014,0.068l-0.022,0.056l-0.01,0.061l0.065,0.221l-0.023,0.111l-0.047,0.102l-0.041,0.125l0.001,0.391l-0.01,0.028
	l-0.066,0.086l-0.009,0.03l-0.007,0.014l0.027,0.184l-0.079,0.229l-0.018,0.241l0.105,0.798l-0.019,0.234l-0.082,0.204l-0.164,0.202
	l-0.08,0.072l-0.086,0.058l-0.098,0.028l-0.111-0.014l-0.09,0.04l-0.038,0.148l0.001,0.177l0.037,0.129l0.08,0.071l0.184,0.055
	l0.056,0.042l0.074,0.088l0.333,0.265l0.161,0.177l0.285,0.418l0.164,0.343l0.047,0.141l0.028,0.139l-0.002,0.236l0.051,0.125
	l0.035,0.065l0.09,0.175l0.242,0.718l0.772,1.177l-0.198,0.107l-0.088-0.035l-0.17-0.158l-0.358-0.254l-0.124-0.062l-0.168-0.049
	l-0.058,0.036l-0.013,0.102l-0.034,0.143l-0.031,0.045l-0.078,0.036l-0.048,0.038l-0.008,0.033l0.018,0.086l-0.008,0.027
	l-0.031,0.019l-0.066-0.003l-0.029,0.009l-0.339,0.241l-0.05,0.024l-0.047,0.01l-0.027,0.032l0.01,0.089l0.048,0.182l0.009,0.063
	l-0.006,0.123l-0.033,0.135l-0.068,0.107l-0.106,0.039l-0.098-0.046l-0.162-0.185l-0.126-0.048l-0.184,0.023l-0.156,0.091
	l-0.129,0.138l-0.1,0.161l-0.053,0.038l-0.052,0.005l-0.218-0.031l-0.03,0.001l-0.015,0.038l-0.122,0.198l-0.071,0.077l-0.071,0.021
	l-0.072-0.067l-0.073-0.097l-0.09-0.076l-0.097-0.047l-0.092-0.009l-0.041,0.017l-0.076,0.07l-0.042,0.022l-0.039-0.003
	l-0.071-0.036l-0.038,0.001l-0.031,0.02l-0.041,0.054l-0.021,0.02l-0.368,0.209l-0.197,0.069l-0.204,0.006l-0.248-0.075
	l-0.027-0.002l-0.066,0.026l-0.032-0.008l-0.052-0.062l-0.031-0.015l-0.112,0.039l-0.055,0.08l-0.04,0.1l-0.041,0.068l-0.121,0.208
	l-0.024,0.188l-0.045,0.162l-0.157,0.106l-0.139,0.019l-0.061,0.025l-0.051,0.065l-0.033,0.1l-0.009,0.077l-0.018,0.073
	l-0.055,0.085l-0.06,0.048l-0.185,0.095l-0.052,0.057l-0.095,0.126l-0.056,0.046l-0.126,0.059l-0.035,0.035l-0.054,0.086
	l-0.02,0.042l-0.026,0.082l-0.028,0.041l-0.026,0.02l-0.065,0.023l-0.031,0.028l-0.048,0.059l-0.05-0.007l-0.056-0.028l-0.065-0.005
	l-0.047,0.02l-0.115,0.09l-0.047,0.014l-0.1,0.009l-0.05,0.011l-0.062,0.046l0.015,0.048l0.04,0.051l0.014,0.052l-0.063,0.104
	l-0.093,0.061l-0.426,0.098l-0.095,0.043l-0.101,0.066l-0.177,0.195l-0.116,0.252l-0.043,0.283l0.043,0.287l0.176,0.485l0.05,0.411
	l0.06,0.139l0.03,0.133l-0.031,0.354l0.007,0.155l0.061,0.141l0.091,0.096l0.101,0.089l0.093,0.104l0.063,0.217l0.018,0.515
	l0.128,0.239l0.105,0.074l0.107,0.052l0.088,0.078l0.041,0.147l0.029,0.413l0.021,0.335l0.016,0.2l0.04,0.618l0.046,0.661
	l0.033,0.469l0.045,0.665l0.051,0.754l-0.025-0.009l-0.08-0.008l-0.019-0.058l-0.007-0.088l-0.024-0.047l-0.024-0.01l-0.088-0.014
	l-0.026-0.02l-0.06-0.11l-0.032-0.047l-0.04-0.042l-0.059-0.04l-0.144-0.073l-0.122-0.107l-0.092-0.097l-0.027-0.044l-0.099-0.211
	l-0.068-0.092l-0.119-0.099l-0.053-0.063l-0.054-0.129l-0.018-0.233l-0.029-0.12l-0.067-0.108l-0.161-0.155l-0.066-0.108
	l-0.014-0.072l-0.003-0.103l0.006-0.1l-0.059,0.015l-0.06,0.027l-0.058,0.047l-0.047,0.024l-0.038-0.04l-0.033-0.081l-0.105-0.181
	l-0.052-0.158l0.054-0.222l-0.023-0.152l-0.083-0.142l-0.103-0.101l-0.111-0.085l-0.153-0.148l-0.176-0.119l-0.058-0.024
	l-0.059,0.001l-0.047,0.022l-0.042,0.041l-0.05,0.062l-0.03-0.012l-0.028-0.02l-0.025-0.023l-0.191-0.247l-0.087-0.087l-0.13-0.074
	l-0.13-0.04l-0.088,0.011l-0.186,0.136l-0.021,0.002l-0.066-0.01l-0.03,0.008l-0.019,0.024l-0.036,0.065l-0.015,0.017l-0.062,0.021
	l-0.043,0.009l-0.047-0.009l-0.545-0.251l-0.683-0.313l-0.718-0.329l-0.752-0.348l-0.608-0.28l-0.487-0.226l-0.07-0.032
	l-0.586-0.269l-0.71-0.482l-0.616-0.626l0.077-0.042l0.167-0.037l0.08-0.029l0.078-0.073l0.131-0.2l0.088-0.086l0.068-0.097
	l-0.037-0.055l-0.076-0.015l-0.075,0.026l-0.063,0.035l-0.043-0.021l-0.05-0.069l-0.063-0.061l-0.084,0.007l-0.063,0.049
	l-0.075-0.023l-0.097-0.131l-0.148-0.308l-0.194-0.307l-0.108-0.128l-0.139-0.116l-0.263-0.146l-0.063-0.058l-0.093-0.122
	l-0.055-0.039l-0.072-0.008l-0.235,0.024l-0.985-0.197l-0.248-0.1l-0.222-0.164l-0.175-0.225l-0.215-0.396l-0.071-0.076l-0.01-0.037
	l-0.009-0.07l-0.039-0.146l-0.021-0.058l-0.294-0.478l-0.054-0.051l-0.05-0.039l-0.041-0.046l-0.054-0.15l-0.044-0.041l-0.05-0.03
	l-0.045-0.052l-0.031-0.078l-0.01-0.025l-0.058-0.219l-0.113-0.197l-0.119-0.273l-0.074-0.112l-0.089-0.104l-0.1-0.086l-0.11-0.045
	l-0.118-0.003l-0.229,0.03l-0.125-0.02l-0.114-0.058l-0.044-0.048l0.032-0.035l0.026-0.085l-0.002-0.112l-0.018-0.109l-0.021-0.076
	l0.012-0.034l0.008-0.108l-0.001-0.11l-0.019-0.042l0.049-0.058l-0.007-0.073l-0.073-0.15l-0.024-0.097l-0.002-0.189l-0.011-0.063
	l-0.064-0.165l-0.037-0.063l-0.067-0.069l-0.119-0.091l-0.055-0.062l-0.048-0.09l-0.024-0.09l-0.029-0.285l-0.067-0.326
	l-0.005-0.093l-0.079-0.091l-0.282-0.553l-0.108-0.063l-0.07-0.094l-0.105-0.074l-0.057,0.026l-0.082,0.154l-0.062,0.045
	l-0.149,0.058l-0.076,0.042l-0.101-0.019l-0.069-0.065l-0.061-0.083l-0.07-0.068l-0.102-0.047l-0.093-0.026l-0.085-0.045
	l-0.057-0.022l-0.064-0.043l-0.028-0.038l-0.002-0.042l0.014-0.062l0.019-0.017l0.066,0.017l0.022-0.015l0.011-0.033l-0.006-0.053
	l0.004-0.031l-0.003-0.062l-0.017-0.026l-0.016-0.028l-0.014-0.016l0.031-0.097l0.05-0.175l0.058-0.061l0.062-0.221l0.022-0.135
	l0.004-0.108l0.185-0.099l0.476-0.708l0.041-0.104l0.053-0.345l0.003-0.122l-0.016-0.063l-0.028-0.057l-0.074-0.113l-0.018-0.065
	l0.031-0.241l-0.099-1.634l-0.009-0.15l0.024-0.114l0.046-0.097l0.195-0.3l0.03-0.084l0.001-0.091l-0.033-0.277l-0.004-0.269
	l-0.058-0.529l-0.075-0.359l-0.012-0.114l0.009-0.112l0.026-0.052l0.077-0.11l0.013-0.073l-0.013-0.061l-0.156-0.288l-0.017-0.052
	l-0.006-0.067l0.008-0.152l-0.027-0.289l0.055-0.152l0.036-0.101l0.235-0.405l0.123-0.298l0.004-0.04l-0.002-0.104l0.012-0.042
	l0.025-0.022l0.078-0.051l0.018-0.016l-0.021-0.072l-0.127-0.047l-0.02-0.089l0.066-0.5l0.001-0.093l0.177-0.025l0.164-0.074
	l0.295-0.224l0.2-0.086l0.337,0.119l0.196-0.022l0.151-0.098l0.501-0.468l0.062-0.08l0.095-0.178l0.03-0.108l0.023-0.21l0.026-0.107
	l0.052-0.086l0.079-0.09l0.257-0.193l0.12-0.14l0.102-0.052l0.087-0.065l0.059-0.109l0.089-0.216l0.07-0.091l0.354-0.273l0.033-0.07
	l-0.016-0.08l-0.16-0.345l-0.028-0.118l0.037-0.099l0.047-0.025l0.05,0.002l0.052-0.01l0.05-0.051l0.009-0.053l-0.008-0.161
	l0.003-0.064l0.038-0.106l0.055-0.087l0.143-0.153l0.025,0.038l0.024,0.045l0.02,0.046l0.049,0.167l0.063,0.083l0.082,0.05
	l0.099,0.021l0.055-0.003l0.048-0.012l0.047-0.001l0.055,0.026l0.057,0.06l0.015,0.057l0.005,0.062l0.021,0.066l0.071,0.101
	l0.071,0.031l0.193-0.035l0.132,0.004l0.142,0.036l0.258,0.121l0.183,0.132l0.081,0.014l0.095-0.068l0.021-0.038l0.005-0.014
	l0.052-0.144l0.012-0.007l0.051-0.017l0.011-0.017l-0.01-0.045l-0.027-0.017l-0.028-0.013l-0.021-0.032l-0.015-0.119l0.015-0.09
	l0.046-0.08l0.143-0.148l0.17-0.136l0.088-0.036l0.002-0.077l0.022-0.051l0.044-0.03l0.146-0.047l0.003-0.03l-0.025-0.041
	l-0.003-0.058l0.031-0.091l0.103-0.014l0.063,0.003l0.036,0.017l0.028-0.013l0.04-0.081l0.039-0.138l0.051-0.295l0.038-0.128
	l0.03-0.023l0.039-0.012l0.017-0.039l-0.029-0.101v-0.073l0.026-0.094l0.001-0.006l0.043-0.095l0.467-0.56l0.058-0.11l0.02-0.106
	l0.237-0.042l0.033-0.067l-0.017-0.134l0.043-0.097l0.074-0.073l0.146-0.104l0.076-0.078l0.06-0.096l0.021-0.19l0.066-0.077
	l0.092-0.058l0.079-0.036l0.646-0.212l0.183-0.089l0.149-0.128l0.27-0.336l0.346-0.329l1.845-1.094l0.305-0.276l0.019-0.277
	l-0.115-0.242l-0.011-0.239l0.072-0.228l0.129-0.204l0.201-0.238l0.054-0.084l0.045-0.146l0.023-0.411l0.063-0.229l0.017-0.119
	l-0.022-0.142l-0.002-0.117l0.146-0.791l-0.022-0.488l0.031-0.056l0.026-0.049l0.004-0.099l0.083-0.185l-0.141-0.064l-0.184-0.039
	l-0.09-0.007l-0.076-0.058l-0.631,0.032l-0.07-0.014l-0.053-0.054l-0.053-0.075l-0.051-0.031l-0.049,0.083l-0.103-0.027
	l-0.037-0.072l0.017-0.218l0.045-0.001l0.039-0.023l0.019-0.038l-0.01-0.052l-0.015-0.056l0.015-0.03l0.029-0.026l0.045-0.078
	l0.069-0.077l0.008-0.028l-0.008-0.042l0.01-0.048l0.03-0.099l0.057-0.128l0.118-0.182l0.141-0.147l0.13-0.022l0.03-0.017
	l0.031-0.026l0.129-0.031l0.02-0.021l-0.007-0.066l0.042-0.054l0.166-0.104l0.073-0.076l0.04-0.025l0.065,0.003l0.067,0.02
	l0.049-0.005l0.012-0.077l0.067,0.01l0.088-0.009l0.091-0.021l0.076-0.032l0.049-0.045l0.127-0.158l0.049,0.001l0.32-0.185
	l0.025-0.005l0.023,0.005l0.025-0.009l0.027-0.048l0.098-0.05l0.095-0.128l0.112-0.103l0.155,0.024l0.05-0.073l0.186-0.1
	l0.028-0.039l0.009-0.033l0.077-0.106l0.031-0.029l0.048-0.031l0.093-0.094l0.083-0.061l0.363-0.174l0.041-0.054l0.008-0.114
	l0.076-0.001l0.012-0.012l0.042-0.039l0.065-0.142l0.029-0.023l0.039-0.017l0.027-0.024l-0.005-0.047l-0.012-0.029l-0.003-0.032
	l0.003-0.03l0.013-0.017h0.041l0.053,0.066l0.03-0.009l0.015-0.033l-0.015-0.024l-0.021-0.023l-0.002-0.034l0.064-0.185l0.023-0.036
	l0.04-0.013l0.07-0.006l0.037-0.019l-0.003-0.018l-0.021-0.032l-0.012-0.036l0.028-0.035l0.046,0.008l0.065,0.038l0.079,0.029
	l0.084-0.014l0.053-0.057l0.07-0.161l0.051-0.056l0.05-0.008l0.066,0.007l0.14,0.035l0.073-0.067l0.356-0.173l0.069-0.062
	l0.018-0.03l0.044-0.108l0.027-0.048l0.041-0.029l0.063-0.004l0.032-0.148l-0.01-0.147l0.008-0.132l0.086-0.101l-0.004-0.064
	l-0.101-0.088l-0.085-0.099l0.049-0.092l0.046-0.038l0.016-0.046l-0.011-0.055l-0.026-0.062l-0.009-0.055l0.041-0.016l0.119,0.007
	l0.004-0.007l0.08-0.039l0.002-0.002l0.084-0.014l0.03-0.011l0.215-0.121l-0.156-0.165l0.12-0.193l0.154-0.171l0.021-0.058
	l0.049,0.019l0.013-0.064l-0.01-0.066l-0.001-0.059l0.038-0.046l0.012-0.02l0.002-0.059l0.01-0.021h0.025l0.038,0.006l0.003-0.001
	l0.033-0.003l0.021-0.022l-0.021-0.105l-0.057-0.124l-0.024-0.122l0.069-0.096l0.022-0.065l0.055-0.288v-0.09l-0.01-0.061
	l0.02-0.056l0.059-0.109l-0.002-0.052l-0.015-0.047l0.013-0.029l0.081-0.003l-0.037-0.06l-0.015-0.01l-0.029-0.012l-0.017-0.03
	l0.047-0.057l-0.006-0.074l-0.08-0.162l-0.025-0.078l-0.008-0.163l-0.035-0.097v-0.026l0.011-0.039l0.016-0.038l0.017-0.025
	l0.001-0.01l-0.002-0.014l0.005-0.017l0.021-0.02h0.024l0.063,0.024l0.019-0.001l0.022-0.031l0.018-0.04l0.024-0.084l0.014-0.016
	l0.021-0.004l0.016-0.008l-0.003-0.023l-0.038-0.063l-0.006-0.019l-0.028-0.207l-0.001-0.106l0.14-0.297l0.029-0.03l-0.027-0.079
	l-0.004-0.083l0.065-0.396l0.032-0.087l0.077,0.009l0.209-0.021l0.063-0.017l0.111-0.143l0.055-0.229l0.008-0.251l-0.079-0.677
	l0.024-0.232l0.082-0.165l0.043-0.016l0.061-0.008l0.058-0.02l0.031-0.044l0.021,0.002l0.107-0.121l0.015-0.026l0.09-0.09
	l0.014-0.101l-0.017-0.112v-0.119l0.026-0.036l0.044-0.032l0.034-0.036l-0.007-0.054l-0.024-0.036l-0.055-0.061l-0.03-0.046
	l-0.037-0.108l-0.002-0.308l-0.048-0.016l-0.021-0.029l-0.011-0.035l-0.018-0.03l-0.047-0.027l-0.121-0.053l-0.038-0.035
	l-0.051-0.07l-0.132-0.158l-0.06-0.09l-0.04-0.094l-0.034-0.159l-0.04-0.096l-0.016-0.087l0.033-0.075l0.058-0.061l0.06-0.039
	l0.015-0.029l0.002-0.044l0.008-0.046l0.034-0.039l0.031-0.024l0.065-0.066l0.04-0.029h0.104l0.051-0.016l-0.002-0.049l0.013-0.016
	l0.04-0.153l0.073-0.166l0.052-0.079l0.211-0.21l0.016-0.075l-0.093-0.076l-0.007-0.078l-0.022-0.11l-0.001-0.113l0.058-0.082
	l0.363-0.153l0.059-0.047l0.15,0.002l0.004-0.128l-0.034-0.169l0.059-0.174l0.009-0.089l0.03-0.072l0.078-0.007l0.034-0.018
	l0.025-0.059l0.035-0.119l0.035-0.062l0.063-0.085l0.074-0.077l0.013-0.012l0.1-0.081l0.051-0.056l0.03-0.064l0.023-0.138
	l0.021-0.052l0.049-0.043l0.07-0.022l0.071-0.012l0.053-0.023l0.015-0.062l0.144,0.042l0.089-0.042l0.072-0.077l0.089-0.067
	l0.041-0.007l0.101-0.003l0.046-0.014l0.14-0.085l0.042-0.018l0.175-0.042l0.154,0.038l0.297-0.053L1171.27,679.52z"/></svg>