<?xml version="1.0" encoding="utf-8"?>
<!-- Generator: Adobe Illustrator 15.0.0, SVG Export Plug-In . SVG Version: 6.00 Build 0)  -->
<!DOCTYPE svg PUBLIC "-//W3C//DTD SVG 1.1//EN" "http://www.w3.org/Graphics/SVG/1.1/DTD/svg11.dtd">
<svg version="1.1" id="Ebene_1" xmlns="http://www.w3.org/2000/svg" xmlns:xlink="http://www.w3.org/1999/xlink" x="0px" y="0px"
	 width="1920px" height="1080px" viewBox="0 0 1920 1080" enable-background="new 0 0 1920 1080" xml:space="preserve">

<path fill="#F4E0B6" stroke="#FFFFFF" d="M736.097,643.603l-0.018,0.004l0.005-0.042l-0.026-0.045l-0.05-0.046l0.001-0.021
	l0.038,0.011l0.027,0.014l0.019,0.003l0.02,0.005l0.026,0.03l-0.012,0.032L736.097,643.603z M736.512,643.229l0.015,0.063
	l-0.024,0.014l-0.039-0.03l-0.053-0.055h-0.063l-0.038,0.021l-0.044,0.01l-0.041-0.007l-0.026-0.023l-0.014-0.024l-0.019-0.023
	l-0.039-0.02l-0.005,0.014l-0.047,0.016l-0.052,0.007l-0.016-0.013l-0.059,0.029l-0.086,0.01l-0.056-0.037l-0.051-0.032l-0.088-0.06
	l0.078-0.02l0.071,0.032l0.061-0.034l0.061-0.031l0.052-0.058l0.1-0.001l0.044,0.048l0.099,0.032l0.034,0.036l0.134,0.046
	L736.512,643.229z M735.762,642.835l-0.034,0.006l-0.1-0.079l-0.053-0.032l0.038-0.018l0.107,0.032l0.045,0.035v0.018
	L735.762,642.835z M736.536,643.147l-0.029,0.008v-0.015l0.02-0.025l0.018-0.051l0.025-0.028l0.026-0.004l0.008,0.015l-0.022,0.044
	l-0.013,0.022L736.536,643.147z M737.408,643.4l-0.066,0.045h-0.092l-0.083-0.02l-0.034-0.014l-0.055,0.022l-0.106,0.02
	l-0.106,0.003l-0.056-0.022l0.167-0.08l0.063-0.052l0.035-0.093l0.016,0.01l0.007,0.013l0.004,0.015l0.006,0.017l0.21,0.113
	L737.408,643.4z M738.08,642.576l-0.024,0.168l-0.032-0.021l-0.159-0.217l-0.16-0.1l-0.053-0.063l-0.007-0.072l0.333,0.181
	L738.08,642.576z"/></svg>