<?xml version="1.0" encoding="utf-8"?>
<!-- Generator: Adobe Illustrator 15.0.0, SVG Export Plug-In . SVG Version: 6.00 Build 0)  -->
<!DOCTYPE svg PUBLIC "-//W3C//DTD SVG 1.1//EN" "http://www.w3.org/Graphics/SVG/1.1/DTD/svg11.dtd">
<svg version="1.1" id="Ebene_1" xmlns="http://www.w3.org/2000/svg" xmlns:xlink="http://www.w3.org/1999/xlink" x="0px" y="0px"
	 width="1920px" height="1080px" viewBox="0 0 1920 1080" enable-background="new 0 0 1920 1080" xml:space="preserve">

<path fill="#F4E0B6" stroke="#FFFFFF" d="M1539.658,504.888l0.479-0.092l-0.063-0.043l-0.215-0.085l-0.033-0.015l-0.018-0.013
	l-0.025-0.012l-0.049-0.002l0.027-0.023l0.029-0.017l0.037-0.007l0.049,0.007l0.063,0.03l0.18,0.119l0.056,0.05l-0.147,0.074
	l-0.325,0.053l-0.123,0.073l-0.021,0.044l-0.035,0.143l-0.001,0.05l-0.019,0.058l-0.128,0.16l-0.009-0.076l0.117-0.319l0.049-0.087
	L1539.658,504.888z M1539.675,504.671l0.046-0.034l-0.023,0.031l-0.036,0.035l-0.042,0.025l-0.046-0.003l-0.193-0.041l-0.118,0.086
	l-0.101,0.146l-0.133,0.136l0.026-0.07l0.196-0.25l0.083-0.083l0.083,0.007l0.089,0.036l0.102,0.006l0.037-0.013L1539.675,504.671z
	 M1537.407,511.779l0.028,0.033l0.003,0.02l-0.011,0.011l-0.005,0.001L1537.407,511.779z M1536.075,512.704l0.02,0.014l-0.058,0.019
	l-0.024-0.002l-0.028-0.021l0.042-0.02h0.027L1536.075,512.704z M1534.928,512.508l0.035,0.028l-0.041,0.047l-0.049-0.009
	l-0.039-0.018l-0.029-0.028l-0.017-0.037l0.067,0.003L1534.928,512.508z M1530.123,511.326l0.014,0.002l-0.022,0.056l-0.008,0.015
	l-0.005-0.053l0.009-0.019L1530.123,511.326z M1528.871,509.041l0.002,0.007l-0.061-0.039l0.034,0.006l0.019,0.012L1528.871,509.041
	z M1529.334,511.743l0.004,0.01l-0.099-0.032l0.052-0.004l0.028,0.01L1529.334,511.743z M1529.043,511.66l0.005,0.01l-0.006,0.012
	l-0.004,0.016l-0.026-0.042L1529.043,511.66z M1528.714,510.583l0.017-0.004l-0.012,0.012l-0.003,0.012l-0.005,0.007l-0.019,0
	l-0.003-0.021l0.009-0.005L1528.714,510.583z"/></svg>