<?xml version="1.0" encoding="utf-8"?>
<!-- Generator: Adobe Illustrator 15.0.0, SVG Export Plug-In . SVG Version: 6.00 Build 0)  -->
<!DOCTYPE svg PUBLIC "-//W3C//DTD SVG 1.1//EN" "http://www.w3.org/Graphics/SVG/1.1/DTD/svg11.dtd">
<svg version="1.1" id="Ebene_1" xmlns="http://www.w3.org/2000/svg" xmlns:xlink="http://www.w3.org/1999/xlink" x="0px" y="0px"
	 width="1920px" height="1080px" viewBox="0 0 1920 1080" enable-background="new 0 0 1920 1080" xml:space="preserve">

<path fill="#F4E0B6" stroke="#FFFFFF" d="M1325.988,749.025l-0.106,0.052l-0.331,0.078l-0.32,0.144l-0.084,0.007l-0.032-0.029
	l-0.027-0.09l-0.028-0.042l-0.054-0.023l-0.049,0.001l-0.042-0.013l-0.037-0.062l-0.067-0.183v-0.088l0.085-0.007l0.077,0.007
	l0.204-0.051l0.096-0.012l0.296,0.06l0.061,0.034h0.044l0.302,0.062l0.082,0.063l-0.001,0.05L1325.988,749.025z M1328.412,746.136
	l0.424,0.598l0.037,0.067l0.208,0.632l0.005,0.105l-0.039,0.063l-0.046,0.002l-0.062-0.021l-0.057-0.035l-0.03-0.037l-0.031-0.061
	l-0.037-0.025l-0.422-0.095l-0.062-0.05l-0.053-0.065l-0.082-0.006l-0.195,0.047l-0.338-0.025l-0.05-0.018l-0.225-0.031
	l-0.086-0.045l0.072-0.038l0.066-0.013h0.137l0.087-0.016l0.156-0.048l0.063-0.001l0.017-0.033l0.037-0.048l0.015-0.034l0.148-0.033
	l0.08-0.183l0.005-0.227l-0.074-0.168l0.04-0.035l0.049-0.071l0.045-0.039l0.02-0.021l0.014-0.026l0.018-0.022l0.031-0.016
	l0.034,0.01l0.062,0.055L1328.412,746.136z M1323.484,747.584l-0.059,0.041l-0.056,0.02l-0.037-0.028l-0.052-0.049l-0.346-0.141
	l-0.077,0.002l-0.199,0.082l-0.053,0.01l-0.063-0.007l-0.115-0.035l-0.054-0.033l-0.029-0.041l-0.021-0.042l-0.038-0.039
	l-0.159-0.069l-0.078-0.058l-0.064-0.116l-0.006-0.058l0.008-0.076l0.043-0.207l-0.019-0.056l-0.032-0.049l-0.025-0.058
	l-0.256-0.945l-0.03-0.057l-0.045-0.043l0.013-0.112l-0.001-0.147l0.014-0.123l0.052-0.028l0.169-0.168l0.107-0.074l0.095-0.004
	l0.084,0.055l0.069,0.063l0.053,0.085l0.235,1.017l0.112,0.189l0.313,0.224l0.147,0.177l0.021,0.052l0.031,0.112l0.022,0.05
	l0.034,0.028l0.041,0.018l0.041,0.024l0.029,0.046l0.029,0.047l0.049,0.044l0.161,0.106l0.013,0.044l-0.02,0.116l0.003,0.061
	l0.008,0.039l-0.002,0.033l-0.024,0.044L1323.484,747.584z"/></svg>