<?xml version="1.0" encoding="utf-8"?>
<!-- Generator: Adobe Illustrator 15.0.0, SVG Export Plug-In . SVG Version: 6.00 Build 0)  -->
<!DOCTYPE svg PUBLIC "-//W3C//DTD SVG 1.1//EN" "http://www.w3.org/Graphics/SVG/1.1/DTD/svg11.dtd">
<svg version="1.1" id="Ebene_1" xmlns="http://www.w3.org/2000/svg" xmlns:xlink="http://www.w3.org/1999/xlink" x="0px" y="0px"
	 width="1920px" height="1080px" viewBox="0 0 1920 1080" enable-background="new 0 0 1920 1080" xml:space="preserve">

<path fill="#F4E0B6" stroke="#FFFFFF" d="M1282.384,562.924l-0.027,0.084l-0.129,0.104l-0.018,0.052l0,0l-0.056-0.021l-0.011-0.004
	h-0.001l-0.01-0.048l0.028-0.059l0.044-0.063l0.135-0.028L1282.384,562.924L1282.384,562.924z M1283.093,562.419l-0.057,0.064
	l-0.196,0.147l-0.082,0.029l-0.128-0.049l0.048-0.147l0.109-0.179l0.063-0.138h0.001l0.069,0.042l0.008,0.003l0.091,0.013
	l0.092-0.016l0.082-0.033l-0.054,0.181L1283.093,562.419z M1282.639,543.566L1282.639,543.566l-0.063-0.012l-0.05-0.011
	l-0.155-0.089l-0.139-0.105l-0.063-0.067l0,0l-0.008-0.003l-0.049-0.022l-0.31-0.3l-0.033-0.064l-0.015-0.086l0.001-0.038
	l0.019-0.109l0.02-0.038v-0.014l-0.001-0.014l-0.061-0.08l-0.014-0.028l0.045-0.083l0.065-0.063l0.06-0.071l0.023-0.104
	l-0.013-0.067l-0.005-0.029l-0.037-0.058l-0.007-0.01l-0.146-0.148l-0.054-0.086l-0.027-0.087l-0.06-0.382l-0.079-0.193
	l-0.095-0.156l-0.016-0.071l0.046-0.069l0.12,0.013h0.001l0.068,0.063l0.05,0.09l0.069,0.083h0.001l0.1,0.065l0.097,0.037
	l0.353,0.067l0.102,0.021h0.002l0.03,0.052l-0.002,0.062l-0.043,0.232l-0.075,0.223l-0.01,0.121l0.05,0.207l0.051,0.125l0.158,0.21
	l0.037,0.093l0,0l0.048,0.037l0.004,0.003l0.047,0.025l0.028,0.023l0.013,0.039l-0.004,0.234l0.026,0.147l0.003,0.065l-0.024,0.044
	l-0.046,0.053l-0.035,0.051l0.008,0.039l0.031,0.05l0.013,0.07l-0.01,0.068L1282.639,543.566z M1255.521,535.7l0.187,0.116
	l1.231,0.277h0.188l0.391-0.041l0.887,0.032l0.206,0.032l0.108,0.031l0.146,0.064l0.794,0.022l0.813-0.102l0.626-0.091l0.199-0.05
	l0.734-0.328l0.871-0.492l0.418-0.164l0.29-0.15l0.187-0.123l0.091-0.077l0.241-0.252l0.085-0.052l0.248,0.014l0.071-0.011
	l0.116-0.066l0.162-0.059l0.106-0.077l0.469-0.487l0.175-0.147l0.206-0.128l0.333-0.14l0.079-0.051l0.093-0.038l0.28-0.017
	l0.125-0.02l0.176-0.089l0.199-0.148l0.183-0.177l0.124-0.173l0.053-0.104l0.007-0.053l-0.048-0.087l0.032-0.033l0.094-0.052
	l0.166-0.15l0.104-0.07l0.117-0.042l0.085,0.011l0.241,0.06l0.067-0.002l0.027-0.013l0.035-0.001l0.035,0.001l0.026-0.001
	l0.007-0.01l0.018-0.022l0.027-0.027l0.031-0.018l0.1-0.014h0.064l0.05,0.009l0.029-0.027l-0.033-0.067l0.031,0.009l0.021,0.004
	l0.023,0.007l0.037,0.021l0.026-0.024l-0.014-0.02l-0.02-0.049l0.039-0.005l0.017-0.007l0.025-0.063l0.216,0.013l0.095,0.029
	l0.05,0.063l0.087,0.018l0.229,0.115l0.131,0.018l0.436-0.044l0.203-0.08l0.129,0.008l0.245,0.082l0.103,0.017l0.23-0.021
	l0.143,0.013l0.279,0.167l0.498-0.032l0.05,0.013l0.148,0.079l0.045,0.008l0.038-0.001l0.196-0.032l0.327-0.098l0.232-0.045h0.211
	l0.2,0.04l0.501,0.154l0.076,0.035l0.111,0.037l0.128-0.022l0.219-0.072l0.406,0.051l0.091,0.033l0.117,0.001l0.32-0.032
	l0.189-0.064l0.17-0.021l0.143-0.044l0.043-0.004l0.049,0.031l-0.014,0.031l-0.042,0.025l-0.04,0.011l0.061,0.047l0.057-0.007
	l0.053-0.039l0.053-0.059l0.2-0.368l0.148-0.066l0.281-0.055l0.026-0.021l0.054-0.064l0.027-0.015l0.031,0.004l0.054,0.029
	l0.031,0.007l0.013,0.01l0.015,0.02l0.028,0.018l0.057-0.001l0.032-0.01l0.034-0.017l0.032-0.02l0.028-0.022l-0.008-0.029
	l-0.071-0.013l-0.124,0.004l-0.041-0.062l0.041-0.041l0.067-0.084l0.136-0.077l0.196,0.006l0.201,0.059l0.149,0.081l0.623,0.624
	l0.137,0.198l0.089,0.207l0.092,0.465l-0.018,0.19l0.005,0.121l0.045,0.085l0.089,0.088l0.131,0.231l0.189,0.18l0.046,0.104
	l-0.092,0.202l0.024,0.104l0.09,0.185l0.111,0.632l0.263,0.417l0.101,0.213l0.218,0.82l0.107,0.139l0.024,0.042l-0.002,0.053
	l-0.319,0.721l-0.049,0.163l-0.087,0.706l0.02,0.954l0.089,0.356l-0.003,0.068l-0.017,0.082l0.026,0.13l0.104,0.297l0.024,0.045
	l0.142,0.13l0.03,0.046l0.014,0.052l-0.049,0.366l0.106,0.056l-0.009,0.11l-0.086,0.221l0.013,0.002l0.046,0.091l-0.004,0.006v0.046
	l0.004,0.035l0.014,0.026l0.049,0.022l0.064,0.012l0.07-0.006l0.063-0.02l0.032-0.077l0.005-0.112l0.021-0.063l0.08,0.074
	l0.016,0.082l-0.02,0.111l-0.053,0.082l-0.082-0.003l-0.025,0.024l0.037,0.068l0.084,0.12l0.028,0.077l-0.004,0.054l-0.038,0.122
	l-0.007,0.071l0.031,0.113l0.063,0.127l0.088,0.124l0.101,0.102l0.1,0.258l0.092,0.173l0.074,0.052l0.01,0.046l0.12,0.135
	l0.021,0.036l-0.026,0.036l-0.036,0.064l-0.028,0.071l-0.005,0.063l0.088,0.117l-0.043,0.116l-0.119,0.1l-0.146,0.064l-0.116,0.038
	l-0.072,0.035l-0.139,0.114l-0.044,0.054l-0.057,0.117l-0.047,0.063l-0.025-0.041l0.004-0.038l-0.031,0.008l-0.187,0.096
	l-0.09,0.064l-0.123,0.05l-0.093-0.06l-0.121-0.188l0.053,0.045l0.063,0.023l0.071,0.006l0.076-0.007l-0.07-0.084l-0.232-0.119
	l-0.046-0.106l-0.03-0.118l-0.081-0.136l-0.114-0.112l-0.129-0.042l-0.108,0.051l-0.109,0.114l-0.084,0.137l-0.047,0.184
	l-0.124,0.182l-0.018,0.075l0.012,0.054l0.128,0.226l0.044,0.04l0.072,0.013l0.05,0.022l-0.001,0.057l-0.028,0.063l-0.078,0.106
	l-0.039,0.097l-0.026,0.104l-0.009,0.158l0.01,0.067l0.021,0.062l0.046,0.055l0.053,0.021l0.121,0.001l0.054,0.022l0.063,0.103
	l-0.02,0.109l-0.106,0.216l-0.025,0.095l-0.018,0.112l0.012,0.109l0.053,0.084l0.025,0.059l0.007,0.086l0.034,0.095l0.1,0.087
	l0.248,0.074l0.128,0.063l0.087,0.185l0.167,0.246l0.058,0.053l0.117,0.11l0.128,0.269l0.168,0.257l0.058,0.129l0.114,0.538
	l0.071,0.126l0.146,0.094l0.078,0.014l0.076,0.001l0.072,0.008l0.072,0.037l0.131,0.105l0.055,0.058l0.034,0.063l0.081,0.118
	l0.076,0.078l0.112,0.042l0.521,0.09l0.103,0.03l0.144,0.077l0.112,0.095l0.088,0.105l0.127,0.224l0.071,0.087l0.106,0.072
	l0.303,0.107l0.108,0.021l0.225,0.007l0.095,0.035l0.142,0.18l0.083,0.075l0.436,0.093l0.063,0.052l-0.002,0.171l-0.014,0.091
	l-0.01,0.02l-0.161,0.186l0.001,0.036l0.007,0.038l-0.013,0.066l-0.022,0.07l-0.028,0.045l-0.914,0.716l-0.199,0.231l-0.846,0.978
	l-0.374,0.56l-0.426,0.835l-0.084,0.389l-0.093,0.223l-0.024,0.142l0.049,0.111l0.009,0.066l-0.019,0.74l0.073,0.195l0.182,0.184
	l0.165,0.095l0.053,0.038l0.04,0.058l0.018,0.119l0.047,0.077l0.047,0.104l0.033,0.046l0.175,0.15l0.139,0.182l0.271,0.6
	l0.146,0.017l0.078,0.084l0.022,0.121l-0.02,0.123l-0.105,0.219l-0.04,0.12l0.09,0.296l-0.006,0.039l-0.044,0.065l-0.012,0.041
	l0.012,0.342l0.021,0.035l0.099,0.077l-0.04,0.047l-0.74,0.479l-0.072,0.082l-0.068,0.153l-0.077,0.092l-0.387,0.273l-0.072,0.081
	l-0.169,0.317l-0.117,0.159l-1.027,0.929l-0.316,0.439l-0.087,0.084l-0.025,0.035l-0.004,0.032l0.001,0.034l-0.012,0.033
	l-0.074,0.064l-0.009,0.004l-0.104,0.145l-0.018,0.047l0.011,0.105l0.104,0.192l0.029,0.093l0.006,0.111l0.015,0.044l0.105,0.201
	l0.012,0.04l0.004,0.101l-0.083,0.588l0.084,0.274l0.054,0.097l0.086,0.095l0.128,0.084l0.101,0.012l0.215-0.05l0.164,0.004
	l0.118,0.051l0.191,0.165l0.049,0.094l0.049,0.335l0.028,0.04l0.051,0.057l0.057,0.043l0.049-0.001l0.048-0.016l0.033,0.026
	l0.033,0.063v0.04l-0.06,0.137l-0.015,0.053l0.008,0.052l0.02,0.044l0.054,0.078l0.023,0.09l0.035,0.007l0.005,0.073l-0.092,0.139
	l-0.031,0.081l0.016,0.05l0.034,0.07l0.018,0.073l-0.029,0.063l0.015,0.306l-0.063,0.268l-0.025,0.022l-0.105-0.024l-0.022,0.066
	l0.008,0.093l-0.016,0.069l-0.056,0.063l-0.042,0.068l-0.047,0.058l-0.075,0.035v0.111l-0.055,0.086l-0.152,0.158l-0.09,0.16
	l-0.07,0.057l-0.101-0.008l-0.022,0.062l-0.088,0.053l-0.032,0.054l-0.231,0.039v0.052l-0.113-0.042l-0.091-0.051l-0.101-0.008
	l-0.203,0.112l-0.161,0.064l-0.06,0.033l-0.045,0.044l-0.067,0.086l-0.046,0.045l-0.178,0.096l-0.055,0.045l-0.033,0.046
	l-0.052,0.104l-0.017,0.028l-0.253,0.11l-0.109,0.077l-0.027,0.123l-0.059,0.016l-0.05,0.023l-0.699,0.705l-0.331,0.266
	l-0.055,0.076l-0.099,0.227l-0.014,0.064l0.021,0.047l0.032,0.026l0.04,0.02l0.035,0.023l0.021,0.042l-0.01,0.093l0.013,0.034
	l-0.005,0.075l-0.086,0.104l-0.181,0.162l-0.201,0.245l-0.077,0.072l-0.052,0.081l-0.04,0.112l-0.056,0.097l-0.097,0.043
	l-0.031,0.104l-0.024,0.16l-0.003,0.158l0.035,0.1l0.01,0.068l-0.034,0.103l-0.086,0.173l-0.105,0.139l-0.656,0.542l-0.305,0.325
	l-0.481,0.728l-0.187,0.437l-0.801-0.297l-0.801-0.296l-0.798-0.297l-0.795-0.297l-0.491-0.182l-0.099-0.016l-0.093,0.033
	l-0.162,0.115l-0.097,0.016l0.004-0.007l0.019-0.02l0.006-0.009l-0.412-0.159l-0.556-0.218l-0.554-0.217l-0.553-0.216l-0.551-0.216
	l-0.552-0.216l-0.549-0.214l-0.547-0.218l-0.548-0.213l-0.545-0.215l-0.544-0.215l-0.545-0.214l-0.541-0.215l-0.541-0.214
	l-0.54-0.213l-0.539-0.215l-0.538-0.213l-0.354-0.14l-0.088-0.035l0.299-0.49l0.46-0.754l0.458-0.758l0.459-0.758l0.46-0.759
	l0.458-0.761l0.458-0.762l0.458-0.765l0.457-0.767l0.458-0.767l0.457-0.769l0.457-0.771l0.456-0.771l0.457-0.774l0.455-0.775
	l0.456-0.777l0.455-0.777l0.4-0.687l-0.256-0.449l-0.053-0.094l-0.148-0.259l-0.23-0.402l-0.3-0.524l-0.354-0.617l-0.396-0.689
	l-0.422-0.735l-0.438-0.759l-0.334-0.579l-0.103-0.178l-0.424-0.732l-0.396-0.684l-0.354-0.612l-0.3-0.516l-0.231-0.397
	l-0.148-0.256l-0.053-0.092l-0.041-0.068l-0.301-0.517l-0.093-0.077l-0.126-0.041l-0.528-0.102l-0.801-0.156l-0.798-0.156
	l-0.797-0.154l-0.793-0.157l-0.622-0.123l-0.525-0.536l-0.589-0.477l0,0l-0.103-0.113l-0.255-0.433l-0.238-0.845l-0.154-0.282
	l-0.308-0.408l-0.087-0.151l-0.03-0.15v-0.001l-0.006-0.254l-0.024-0.112l-0.356-0.532l-0.032-0.087l-0.071-0.372l-0.035-0.059
	l-0.305-0.247l-0.129-0.082l-0.144-0.02l-0.212,0.055l-0.115,0.008l-0.103-0.031l-0.041-0.063l0.131-0.17l0.1-0.193l0.034-0.096
	l0.051-0.15l0.062-0.126l0.087-0.112l0.126-0.109l0.14-0.094l0.056-0.052l0.039-0.076l0.055-0.07l0.169-0.025l0.077-0.056
	l0.262-0.542l0.178-0.262l-0.02-0.091l-0.376-0.08l-0.208-0.104l-0.198-0.067l-0.155,0.063l-0.125,0.261l-0.066,0.053l-0.279,0.169
	l-0.064,0.022l-0.064-0.046l-0.039-0.085l-0.102-0.345l-0.033-0.07l-0.173-0.175l-0.042-0.021l-0.062-0.004l-0.121,0.026
	l-0.052-0.001l-0.069-0.041l-0.201-0.189l0,0l-0.208-0.101l-0.087-0.066l-0.016-0.081l-0.002-0.092l-0.107-0.135l0.013-0.172
	l-0.088-0.053l-0.172-0.054l-0.061-0.018l-0.078-0.055l-0.128-0.139l-0.072-0.063l-0.325-0.228l-0.081-0.14l-0.024-0.219
	l0.011-0.175l0.002-0.027l0.049-0.185l0.105-0.159l0.169-0.118l0.01-0.007l0.159-0.041l0.155,0.06l0.201,0.121l0.097,0.058
	l-0.148,0.026l-0.07,0.024l-0.063,0.038l-0.045,0.076l0.037,0.053l0.083,0.025l0.255-0.024l0.375,0.13l0.198-0.028l0.059-0.042
	l0.007-0.004l0.074-0.074l0.051-0.083l-0.007-0.064l-0.044-0.077l-0.015-0.154l-0.084-0.179V536.5l0.031-0.071l0.12-0.142
	l0.035-0.087l0.005-0.211l0.001-0.035l0.032-0.156l-0.021-0.052l-0.023-0.025l-0.063-0.066l-0.114-0.119l-0.002-0.037l-0.002-0.031
	l0.176-0.205l0.396,0.195l0.709,0.189l0.08-0.004L1255.521,535.7z M1252.871,534.331l0.09,0.108l-0.051,0.139l-0.055,0.104
	l-0.008,0.07l-0.031,0.163l-0.035,0.079l-0.073,0.041l-0.065,0.022l-0.044-0.027l-0.088-0.091l0.051-0.13l-0.006-0.069l-0.054-0.007
	l-0.05-0.022l-0.07-0.046l0.026-0.154l0.122-0.09l0.168,0.022L1252.871,534.331z M1252.616,534.694l0.116,0.079l0.049-0.089
	l-0.044-0.072l-0.089,0.017l-0.032,0.029V534.694z M1248.734,530.649l0.154,0.043l0.019-0.083l0.001-0.032l0.056-0.001l0.013,0.041
	l0.008,0.01h0.018l0.038,0.015l0.006-0.056l0.031-0.012l0.043,0.005l0.046-0.006l0.104-0.06l0.048-0.038l0.042-0.046l-0.024-0.007
	l-0.057-0.027l-0.023-0.008l0.049-0.094l0.132,0.048l0.03,0.039l-0.045,0.051l-0.095,0.083l-0.038,0.075l-0.016,0.179l-0.021,0.088
	l0.005-0.004l0.021,0.021l0.01,0.062l0.159-0.006l0.072-0.011l0.064-0.032l0.017-0.044l0.006-0.062l0.032-0.043l0.093,0.008
	l0.048,0.161l-0.019,0.042l-0.098-0.043l-0.031,0.039l-0.044,0.034l0.052,0.02l0.027,0.018l0.015,0.021l0.01,0.031l0.092-0.002
	l0.084-0.025l0.087-0.011l0.095,0.037l-0.042,0.039l-0.048,0.028l-0.052,0.018l-0.058,0.006l-0.028,0.07l-0.061,0.025l-0.074-0.014
	l-0.064-0.05l-0.008,0.031l-0.029,0.073l-0.007,0.03l-0.043-0.034l-0.025-0.034l-0.004-0.034l0.015-0.035l-0.094,0.064l-0.038,0.127
	l0.02,0.112l0.074,0.018l0.023,0.052l0.043,0.045l0.056,0.035l0.064,0.028l-0.047-0.097l-0.013-0.064l0.027-0.046l0.046-0.001
	l0.049,0.035l0.04,0.053l0.022,0.048l0.098-0.041l0.315-0.308l0.021,0.073l-0.009,0.089l-0.047,0.16l-0.065,0.132l0.002,0.061
	l0.074,0.041l0.043-0.126l0.094-0.01l0.073,0.061l-0.027,0.123l0.055,0.019l0.111,0.01l0.042,0.011l0.047-0.018l0.102-0.057
	l-0.011,0.042l0.002,0.021l0.039,0.055l-0.081,0.028l-0.075,0.041l-0.046,0.056l0.003,0.064l0.148,0.024l0.061,0.096l0.021,0.125
	l0.039,0.113l0.023,0.028l0.096,0.074l-0.004,0.125l0.045,0.147l0.011,0.08l-0.023,0.074l-0.081-0.07l0.033,0.118l0.074,0.156
	l0.114,0.144l0.155,0.087l0.064,0.022l-0.108,0.175l-0.046,0.064l-0.072,0.039h-0.055l-0.112-0.034l-0.058,0.008l-0.1,0.066
	l-0.022,0.007l-0.009,0.001l-0.066-0.02l-0.188-0.132l-0.063-0.06l-0.002-0.07l0.012-0.074l-0.024-0.067l-0.065-0.025l-0.19-0.015
	l-0.081-0.042l-0.04-0.066l-0.026-0.146l-0.03-0.071l-0.329-0.31l-0.091-0.121l-0.063-0.068l-0.096-0.05l-0.204-0.073l-0.045,0.034
	l-0.135,0.21l-0.076,0.084l0,0l-0.001-0.001l-0.02-0.046l-0.103-0.15l-0.128-0.536l-0.087-0.229l0.002-0.064l0.027-0.081
	l0.023,0.015l0.05,0.048l0.104,0.014l0.011,0.03l0.039,0.062l0.026-0.025v-0.062l0.087-0.092l-0.007-0.04l0.012-0.029l0.063-0.029
	l0.086-0.004l0.079,0.048l-0.02-0.059l0.027-0.022l0.047-0.015l0.04-0.041l0.027-0.153l0.029-0.043l0.137-0.079l0.02-0.025
	l-0.021-0.037l-0.051-0.015l-0.055,0.004l-0.037,0.016l-0.077,0.057l-0.04,0.045l-0.014,0.045l0.005,0.041l-0.002,0.063
	l-0.021,0.058l-0.053,0.025l-0.044-0.035l-0.134-0.166l-0.06-0.052l0.185-0.029l0.063-0.029l-0.037-0.067l-0.047-0.01l-0.078,0.004
	l-0.083,0.02l-0.055,0.026l-0.021-0.043l0.012-0.025l0.023-0.02l0.008-0.031l-0.01-0.087l-0.025-0.057l-0.089-0.068l-0.045-0.06
	L1248.734,530.649z"/></svg>