<?xml version="1.0" encoding="utf-8"?>
<!-- Generator: Adobe Illustrator 15.0.0, SVG Export Plug-In . SVG Version: 6.00 Build 0)  -->
<!DOCTYPE svg PUBLIC "-//W3C//DTD SVG 1.1//EN" "http://www.w3.org/Graphics/SVG/1.1/DTD/svg11.dtd">
<svg version="1.1" id="Ebene_1" xmlns="http://www.w3.org/2000/svg" xmlns:xlink="http://www.w3.org/1999/xlink" x="0px" y="0px"
	 width="1920px" height="1080px" viewBox="0 0 1920 1080" enable-background="new 0 0 1920 1080" xml:space="preserve">

<path fill="#F4E0B6" stroke="#FFFFFF" d="M740.85,653.059l-0.08-0.022l-0.168-0.113l0.031-0.185l0.125-0.161l0.12-0.044l0.08,0.047
	l0.054,0.063l0.023,0.084l-0.019,0.109L741,652.877l-0.051,0.098l-0.027,0.034l-0.047,0.04L740.85,653.059z M740.813,651.78
	l-0.029,0.208v0.104l0.044,0.067l0.035,0.062l0.008,0.095l-0.038,0.069l-0.104-0.013l-0.029-0.063l0.045-0.181l-0.047-0.094
	l-0.018-0.087l-0.028-0.032l-0.123-0.061l-0.045-0.035l-0.093-0.12l-0.104-0.199l-0.038-0.197l0.105-0.119l0.022-0.006l0.014-0.003
	l0.015,0.003l0.021,0.006l0.058,0.004l0.022-0.003l0.024-0.018l0.247,0.454L740.813,651.78z"/></svg>