<?xml version="1.0" encoding="utf-8"?>
<!-- Generator: Adobe Illustrator 15.0.0, SVG Export Plug-In . SVG Version: 6.00 Build 0)  -->
<!DOCTYPE svg PUBLIC "-//W3C//DTD SVG 1.1//EN" "http://www.w3.org/Graphics/SVG/1.1/DTD/svg11.dtd">
<svg version="1.1" id="Ebene_1" xmlns="http://www.w3.org/2000/svg" xmlns:xlink="http://www.w3.org/1999/xlink" x="0px" y="0px"
	 width="1920px" height="1080px" viewBox="0 0 1920 1080" enable-background="new 0 0 1920 1080" xml:space="preserve">

<path fill="#F4E0B6" stroke="#FFFFFF" d="M677.055,600.111l-0.003,0.105l0.101,0.069l0.092,0.025l0.044-0.038l0.069-0.032
	l0.012,0.027l0.043,0.053l0.013-0.019l0.004-0.015l0.003-0.037v0.044l0.006-0.02v-0.017l0.007-0.012l0.03-0.003l-0.005-0.026
	l0.003-0.023l0.017-0.061l0.06,0.056l0.09,0.151l0.062,0.064l0.22,0.116l0.079,0.058l0.063,0.058l0.049,0.067v0.071l-0.069,0.103
	l-0.119,0.002l-0.118-0.057l-0.1-0.124l-0.098-0.05l-0.09-0.042l-0.08-0.038l-0.088-0.001l-0.105,0.002l-0.041-0.021l-0.214-0.203
	l-0.058-0.048l-0.072-0.039h-0.069l-0.007-0.065l0.055-0.054l0.034-0.017l0.048-0.032l0.065-0.054l0.045-0.055l0.024-0.063
	l-0.023-0.082l-0.019-0.055l0.046-0.039l0.046-0.016l0.067,0.021l0.049,0.071l-0.051,0.041l-0.017,0.088l-0.028,0.094
	L677.055,600.111z M683.368,602.311l-0.02-0.004l-0.053-0.003l-0.117-0.041l-0.381-0.055l-0.114-0.107l0.109-0.031l0.09,0.01
	l0.115-0.005l0.099,0.05l0.106,0.076l0.132,0.032L683.368,602.311z M683.724,602.644l-0.175-0.058l0.155-0.037l0.336,0.071
	l0.182,0.014l0.101,0.038l0.036,0.059l-0.028,0.07l-0.244-0.032L683.724,602.644z"/></svg>