<?xml version="1.0" encoding="utf-8"?>
<!-- Generator: Adobe Illustrator 15.0.0, SVG Export Plug-In . SVG Version: 6.00 Build 0)  -->
<!DOCTYPE svg PUBLIC "-//W3C//DTD SVG 1.1//EN" "http://www.w3.org/Graphics/SVG/1.1/DTD/svg11.dtd">
<svg version="1.1" id="Ebene_1" xmlns="http://www.w3.org/2000/svg" xmlns:xlink="http://www.w3.org/1999/xlink" x="0px" y="0px"
	 width="1920px" height="1080px" viewBox="0 0 1920 1080" enable-background="new 0 0 1920 1080" xml:space="preserve">

<path fill="#F4E0B6" stroke="#FFFFFF" d="M1207.728,840.469l0.044,0.049l-0.149-0.021l-0.142-0.082l-0.423-0.303L1206.98,840v-0.074
	l0.028-0.119l0.084-0.024l0.157,0.189l0.082,0.074l0.125,0.162l0.12,0.147L1207.728,840.469z M1181.928,788.34l0.152,0.001
	l0.084-0.014l0.489-0.358l0.109-0.048l0.33-0.059l0.096-0.041l0.462-0.267l0.402-0.232l0.171-0.156l0.332-0.093l0.146-0.067
	l0.476-0.445l0.24-0.152l0.161-0.103l0.394-0.248l0.392-0.246l0.393-0.248l0.392-0.248l0.392-0.247l0.392-0.246l0.392-0.246
	l0.393-0.247l0.392-0.246l0.391-0.247l0.391-0.245l0.392-0.248l0.391-0.245l0.391-0.245l0.112-0.069l0.278-0.176l0.392-0.245
	l0.251-0.158l0.128-0.04l0.109,0.004l0.11,0.019l0.133-0.003l0.078-0.031l0.058-0.049l0.108-0.128l0.076-0.065l0.079-0.043
	l0.092-0.027l0.214-0.026h0.045l0.222-0.01l0.013,0.051l-0.005,0.109l0.021,0.03l0.083,0.033l0.057,0.038l0.038,0.039l0.225,0.286
	l0.05,0.045l0.024-0.017l0.024-0.047l0.035-0.029l0.05,0.038l-0.011,0.17l0.092-0.043l0.082,0.012l0.149,0.065l0.07-0.001
	l0.072-0.014l0.067,0.002l0.064,0.053l0.14,0.047l0.088,0.049l0.033,0.067l0.011,0.08l0.043,0.083l0.242,0.345l0.035,0.036
	l0.045,0.035l0.04,0.04l0.027,0.05l-0.013,0.032l-0.037,0.027l-0.027,0.036l0.017,0.058l0.123,0.183l0.021,0.014l0.055,0.028
	l0.041,0.003l0.023-0.024l0.027-0.007l0.052,0.055l0.018,0.077l0.007,0.088l0.031,0.047l0.097-0.054l0.02,0.086l0.038,0.053
	l0.058,0.026l0.075,0.019l0.076,0.029l0.028,0.047l0.016,0.13l0.04,0.091l0.066,0.068l0.172,0.118l0.076,0.073l0.133,0.165
	l0.077,0.071l0.087,0.058l0.482,0.216l0.064,0.059l0.055,0.064l0.063,0.05l0.083,0.021l0.059-0.01l0.111-0.051l0.056-0.019
	l0.158,0.017l0.131,0.084l0.216,0.247l0.003,0.025l0.016,0.053l0.03,0.044l0.053-0.003l0.056-0.019l0.046,0.013l0.043,0.026
	l0.048,0.022l0.093,0.061l0.033,0.081l0.026,0.097l0.064,0.105l-0.163,0.042l0.07,0.122l0.298,0.252l0.163,0.252l0.05,0.026
	l0.061,0.003l0.094,0.028l0.141,0.064l0.063,0.065l0.049,0.071l0.058,0.044l0.139-0.031l0.22,0.024l0.148-0.01l0.079,0.02
	l0.066,0.059l0.035,0.049l0.078,0.11l0.067,0.05l0.091,0.007l-0.011-0.086l0.019-0.023l0.039,0.003h0.048l0.107-0.028l0.053-0.003
	l0.039,0.024l-0.003,0.043l-0.037,0.048l-0.031,0.056l0.015,0.068l0.04,0.038l0.049,0.014l0.055,0.006l0.067,0.016l0.129,0.07
	l0.222,0.178l0.132,0.063l0.282-0.012l0.132,0.018l0.044,0.096l0.07,0.063l0.07,0.109l0.061,0.067l0.04-0.07l0.033,0.029
	l0.016,0.003v0.002l-0.004,0.032l0.092-0.012l0.028,0.041l0.004,0.059l0.012,0.051l0.063,0.045l0.127,0.027l0.044,0.032l0.036,0.013
	l0.108-0.043l0.056-0.003l0.037,0.039l0.035,0.059l0.05,0.029l0.08-0.046l0.021,0.031l-0.011,0.064l0.037-0.008l0.055-0.033
	l0.049-0.014l0.049,0.044l0.037,0.06l0.037,0.026l0.049-0.058l0.088,0.031l0.013,0.049l-0.011,0.067l0.021,0.075l0.035,0.021
	l0.059,0.007l0.124-0.007l0.003,0.046l0.008,0.016l0.017,0.007l0.036,0.025l-0.002-0.026l0.011-0.038l0.004-0.035l0.138,0.123
	l0.052,0.031l0.072,0.017l0.128-0.004l0.057,0.013l0.067,0.068l0.04,0.159l0.079,0.05l0.003,0.001l0.061,0.02l0.277-0.078
	l0.117-0.073l0.263-0.352l0.134-0.065l0.181-0.028l0.047-0.038l0.155-0.313l0.058-0.055l0.151-0.068l0.166-0.01l0.348,0.068
	l0.131-0.04l0.369-0.235l-0.105-0.1l-0.081-0.129l-0.031-0.131l0.042-0.095l0.053-0.058l0.11-0.192l0.062-0.052l0.321-0.173
	l0.211-0.115l0.2-0.028l0.057-0.029l0.05-0.059l0.057-0.109l0.062-0.053l0.255-0.159l0.028-0.011l0.081-0.054l-0.138-0.158
	l-0.051-0.095l0.024-0.07l0.303-0.181l0.327-0.197l0.301-0.18l0.053,0.003l0.106,0.118l0.064,0.042l0.137,0.069l0.186-0.111
	l0.533-0.319l0.534-0.319l0.534-0.319l0.533-0.321l0.114-0.067l-0.324-0.305l-0.092-0.112l-0.082-0.15l-0.079-0.249l-0.05-0.162
	l-0.105-0.335l-0.063-0.132l-0.076-0.11l-0.111-0.102l-0.129-0.095l-0.116-0.104l-0.071-0.128l0.308-0.146l0.066-0.07l0.015-0.105
	l-0.075-0.207l0.004-0.116l0.002-0.006l0.002-0.004l0.002-0.004l0.051-0.177l-0.092-0.146l-0.314-0.244l-0.139-0.142l-0.109-0.14
	l-0.451-0.786l-0.057-0.177l-0.008-0.114l0.009-0.234l-0.022-0.091l-0.042-0.045l-0.2-0.14l0.221-0.132l0.178-0.106l0.178-0.105
	l0.178-0.104l0.179-0.106l0.178-0.106l0.178-0.105l0.178-0.104l0.177-0.106l0.179-0.105l0.048-0.026l0.13-0.079l0.178-0.106
	l0.178-0.104l0.178-0.105l0.179-0.104l0.176-0.106l0.18-0.105l0.202-0.12l-0.044-0.069l-0.081-0.166l-0.024-0.079l-0.012-0.092
	l0.016-0.052l0.043-0.037l0.223-0.133l0.354-0.211l0.365-0.216l0.243-0.147l0.086,0.348l0.099,0.403l0.058,0.231l0.076,0.31
	l0.114,0.234l0.147,0.222l0.153,0.228l0.195-0.117l0.306-0.182l0.306-0.182l0.306-0.184l0.306-0.183l0.307-0.181l0.305-0.184
	l0.307-0.181l0.305-0.182l0.307-0.183l0.305-0.182l0.307-0.181l0.307-0.183l0.306-0.181l0.305-0.182l0.307-0.181l0.306-0.181
	l0.141-0.084l0.089-0.05l0.008,0.019l0.03,0.015l0.034-0.006l0.047,0.003l0.048,0.021l0.235,0.17l0.042,0.017l0.051,0.03
	l0.014,0.045v0.047l0.007,0.03l0.058,0.038l0.051,0.017l0.046,0.021l0.048,0.052l0.012,0.032l0.005,0.056l0.011,0.025l0.025,0.021
	l0.068,0.021l0.026,0.021l0.03,0.066l0.021,0.117l0.019,0.063l0.033,0.06l0.028,0.024l0.03,0.018l0.04,0.041l0.109,0.176
	l0.009,0.044l-0.019,0.105l0.003,0.036l0.047,0.092l0.019,0.072l0.029,0.109l0.049,0.188l0.054,0.205l0.032,0.124l0.047,0.177
	l0.023,0.09l0.104,0.221l0.101,0.105l0.039,0.052l0.021,0.063l-0.003,0.127l0.015,0.054l0.209,0.311l0.071,0.073l0.064,0.013
	l0.182,0.005l0.062,0.038l0.079,0.106l0.086,0.078l0.097,0.057l0.188,0.072l0.064,0.048l0.062,0.071l0.132,0.193l0.183,0.196
	l0.086,0.063l0.204,0.061l0.094,0.062l-0.02,0.037l-0.02,0.039l0.011,0.067l0.121,0.089l0.213,0.119l0.157,0.181l0.109,0.215
	l0.121,0.413l0.027-0.004l0.018,0.003l0.021-0.002l0.035-0.016l0.016,0.192l0.041,0.167l0.161,0.366l0.14,0.318l-0.01,0.049
	l0.063,0.171l0.026,0.136l0.192,0.386l0.158,0.233l0.267,0.561l0.336,0.43l0.115,0.188l0.075,0.218l0.051,0.358l0.071,0.176
	l0.016,0.119l0.031,0.06l0.048,0.041l0.126,0.051l0.057,0.03l0.166,0.155l0.295,0.371l0.161,0.166l0.211,0.117l0.445,0.146
	l0.167,0.142l0.016-0.029l0.046-0.065l0.016-0.031l0.099,0.143l0.127,0.097l0.422,0.163h0.056l0.022-0.027l0.008-0.049l0.062-0.001
	l0.107,0.023l0.226,0.017l0.1,0.04l0.094,0.082l0.131,0.139l0.235,0.199l0.153,0.169l0.055,0.044l0.062,0.164l0.201,0.161
	l0.225,0.144l0.202,0.169l0.209,0.129l0.118,0.114l0.107,0.045l0.046,0.044l0.026,0.054l0.034,0.102l0.023,0.049l0.021,0.078
	l0.009,0.216l0.029,0.11l0.067,0.09l0.077,0.037l0.088,0.03l0.096,0.07l0.131,0.181l0.05,0.091l0.055,0.096l0.107,0.152l0.137,0.077
	l-0.005,0.04l0.001,0.018l0.118,0.165l0.04,0.093l-0.016,0.06l-0.068,0.06l-0.081,0.091l-0.122,0.176l-0.037,0.102l-0.038,0.146
	l-0.009,0.139l0.046,0.073l0.079,0.048l0.277,0.259l0.105,0.17l0.026,0.015l0.087,0.013l0.027,0.015l0.061,0.068l0.148,0.091
	l0.077,0.068l0.288,0.364l0.101,0.195l0.054,0.216l0.099-0.066l0.044-0.097l0.051-0.31l0.03-0.08l0.312-0.385l0.051-0.178
	l-0.091-0.432l0.133-0.109l0.39-0.046l0.19-0.022l0.182-0.042l0.165-0.076l0.131-0.114l0.053-0.103l0.045-0.12l0.061-0.103
	l0.098-0.051l0.111-0.001l0.218,0.021l0.104-0.01l0.17-0.066l0.181-0.106l0.357-0.313l0.294-0.255l0.281-0.528l0.171-0.321
	l0.139-0.153l0.157-0.104l0.166-0.077l0.296-0.07l0.402-0.097l0.142-0.065l0.15-0.108l0.165-0.07l0.202-0.039l0.18-0.06l0.104-0.135
	l0.003-0.059l-0.03-0.118l-0.001-0.061l0.016-0.057l0.054-0.105l0.015-0.063l-0.021-0.109l-0.044-0.116l-0.021-0.111l0.052-0.084
	l0.158,0.205l0.071,0.062l0.156,0.085l0.055,0.058l0.024,0.103l0.033,0.088l0.15,0.247l0.084,0.184l0.06,0.049l0.087-0.031
	l0.36,0.647l0.09,0.101l0.434,0.328l0.034,0.052l-0.004,0.082l-0.063,0.183l-0.004,0.091l0.02,0.055l0.031,0.058l0.074,0.101
	l0.042,0.073l0.015,0.063v0.252l0.033,0.219l0.031,0.102l0.066,0.111l0.081,0.067l0.092,0.062l0.098,0.087l0.214,0.322l0.084,0.098
	l0.02,0.05l0.04,0.266l0.313,0.584l0.34,0.636l0.139,0.186l0.167,0.085l0.169,0.057l0.105,0.087l0.176,0.26l0.156,0.176l0.033,0.082
	l0.013,0.094l-0.009,0.29l-0.011,0.391l0.027,0.154l0.108,0.349l0.117,0.367l0.039,0.241l0.076,0.188l0.119,0.121l0.152,0.074
	l0.358,0.114l0.161,0.074l0.149,0.1l0.141,0.132l-0.127,0.074l-0.49,0.285l-0.491,0.286l-0.49,0.287l-0.49,0.287l-0.489,0.287
	l-0.49,0.287l-0.489,0.289l-0.489,0.288l-0.49,0.287l-0.489,0.289l-0.489,0.29l-0.488,0.288l-0.489,0.29l-0.488,0.29l-0.49,0.29
	l-0.489,0.291l0.402,0.648l0.401,0.647l0.4,0.647l0.399,0.644l0.239,0.387l0.16,0.257l0.397,0.642l0.397,0.643l0.396,0.638
	l0.396,0.639l0.395,0.637l0.394,0.636l0.394,0.635l0.392,0.634l0.392,0.632l0.391,0.63l0.39,0.629l0.104,0.167l0.054,0.088
	l0.079,0.128l0.113,0.182l0.263,0.426l0.262,0.425l0.262,0.426l0.261,0.423l0.116,0.188l0.01,0.01l0.163,0.264l0.156,0.251
	l0.04,0.066l0.064,0.084l0.183,0.073l0.271,0.146l-0.094,0.061l-0.033,0.016l0.076,0.033l0.045,0.043l0.04,0.05l0.054,0.05
	l0.032,0.016l0.072,0.014l0.023,0.01l0.031,0.038l0.059,0.089l0.021,0.022l0.146-0.045l0.079-0.007l0.024,0.056l-0.002,0.074
	l0.014,0.091l0.028,0.09l0.039,0.07l0.049,0.04l0.136,0.076l0.058,0.046l0.032,0.059l0.018,0.051l0.033,0.02l0.079-0.032h0.057
	l0.053,0.051l0.054,0.064l0.06,0.04l0.497,0.086l0.063-0.013l0.026-0.02l0.043-0.058l0.03-0.031l0.007-0.021l0.007-0.016
	l0.025,0.001l0.049,0.016h0.021l0.11-0.042l0.063,0.017l0.058,0.04l0.11,0.049l0.057,0.035l0.035,0.013l0.027-0.002l0.068-0.023
	h0.049l0.051,0.02l0.552,0.294l0.111,0.091l0.064,0.032l0.075,0.003l0.144-0.032l0.08,0.025l0.027,0.028l0.043,0.071l0.038,0.025
	l0.033,0.005l0.049-0.027l0.281-0.038l0.078,0.01l0.286,0.093l0.141,0.062l0.119,0.078l0.158,0.167l0.072,0.04l0.076,0.015
	l0.156-0.003l0.235,0.053l0.145,0.01l0.288-0.03l0.21-0.055h0.074l0.263,0.085l0.052,0.035l0.096,0.093l0.145,0.08l0.159,0.056
	l0.136,0.023l0.206-0.029l0.066,0.021l0.05,0.059l0.03,0.068l0.037,0.058l0.077,0.024l0.076-0.021l0.06-0.044l0.054-0.057
	l0.059-0.046l0.127-0.062l0.064-0.016l0.072-0.004l0.112,0.014l0.125,0.049l0.13,0.025l0.009,0.074l0.034,0.051l0.053,0.04
	l-0.273,0.25l-0.668,0.606l-0.666,0.609l-0.665,0.61l-0.665,0.609l-0.819,0.746l-0.817,0.747l-0.814,0.746l-0.814,0.748
	l-0.235,0.215l-0.055,0.063l-0.026,0.006l-0.112-0.046l-0.146,0.01l-0.26,0.049l-0.23,0.006l-0.069,0.021l-0.145,0.103l-0.061,0.022
	l-0.06,0.053l-0.044,0.067l-0.053,0.054l-0.077,0.008l-0.282,0.306l-0.043,0.048l-0.238,0.258l0.017,0.139l-0.105,0.098
	l-0.083,0.109l-0.09,0.067l-0.128-0.026l-0.149,0.008l-0.074,0.02l-0.005,0.054l-0.018,0.033l-0.067,0.027l-0.079,0.01l-0.048-0.018
	l-0.082,0.002l-0.141,0.07l-0.142,0.096l-0.077,0.082l-0.063,0.004l-0.16-0.017l-0.169,0.013l-0.058-0.009l-0.125-0.039
	l-0.134-0.026l-0.118,0.015l-0.08,0.083l-0.226-0.038l-0.054,0.01l-0.108,0.102l-0.049,0.033l-0.058-0.003l-0.057,0.192
	l-0.112,0.017l-0.102,0.055l-0.073,0.078l-0.022,0.083l-0.048-0.015l-0.036,0.058l-0.044,0.038l-0.103,0.061l-0.201,0.155
	l-0.039,0.017l-0.161,0.032l-0.191,0.003l-0.586,0.361l-0.014,0.031l0.006,0.102l-0.004,0.031l-0.062,0.032l-0.105,0.025l-0.1,0.01
	l-0.052-0.009l-0.082-0.051l-0.089,0.027l-0.079,0.062l-0.179,0.179l-0.63,0.402l-0.707,0.184l-0.086-0.003l-0.157,0.115
	l-0.126,0.045l-0.042,0.024l-0.068,0.067l-0.093,0.131l-0.302,0.211l-0.545,0.209l-0.443,0.036l-0.169,0.055l-0.081-0.014
	l-0.142-0.057l-0.366-0.096l-0.053-0.003l-0.092,0.007l-0.06-0.015l-0.044-0.023l-0.066-0.059l-0.03-0.022l-0.306-0.045
	l-0.067,0.003l-0.042-0.036l-0.299-0.177l-0.107,0.029l-0.016-0.001l-0.034-0.038l-0.163-0.113l-0.038-0.006h-0.034l-0.038-0.028
	l-0.021-0.022l-0.031,0.017l-0.199,0.125l-0.955,0.6l-0.504,0.315l-0.452,0.285l-0.955,0.603l-0.955,0.605l-0.325,0.206l-0.631,0.4
	l-0.955,0.607l-0.955,0.611l-0.957,0.613l-0.954,0.613l-0.957,0.618l-0.956,0.619l-0.041,0.026l-0.915,0.593l-0.957,0.621
	l-0.957,0.627l-0.958,0.626l-0.958,0.63l-0.255,0.167l-0.001,0.001l-0.042,0.027l0.011,0.022l0.021,0.101l-0.073,0.068l-0.185,0.081
	l-0.019,0.025l-0.033,0.074l-0.032,0.039l-0.045,0.028l-0.075,0.021l-0.088,0.043l-0.084,0.023l-0.046,0.022l-0.026,0.032
	l-0.031,0.077l-0.04,0.039l-0.1,0.04l-0.086-0.006l-0.343-0.119l-0.077-0.012l-0.498,0.035l-0.511,0.037l-0.529-0.055l-0.453,0.033
	l-0.048-0.137l-0.08-0.043l-0.094-0.017l-0.165-0.123l-0.097-0.017l-0.103,0.02l-0.098,0.048l-0.083,0.023l-0.2-0.004l-0.088,0.021
	l-0.054,0.062l-0.073,0.086l-0.025,0.016h-0.038l-0.047,0.052l-0.062,0.11l-0.021-0.03l-0.029,0.041l-0.045,0.028l-0.095,0.042
	l-0.056,0.007l-0.054-0.022l-0.044-0.004l-0.029,0.061l-0.109-0.006l-0.078,0.062l-0.064,0.086l-0.35,0.34l-0.111,0.248
	l-0.097,0.104l-0.047,0.086l-0.07,0.085l0.011,0.049l0.027,0.051l0.01,0.045l-0.016,0.045l-0.051,0.065l-0.019,0.031l-0.013,0.055
	l0.014,0.077v0.05l-0.098,0.125l-0.105,0.192l-0.048,0.2l-0.044,0.084l-0.084,0.077l-0.067,0.092l-0.057,0.26l-0.056,0.107
	l-0.044,0.036l-0.156,0.06l-0.234,0.129l-0.089,0.023l-0.129,0.007l-0.037,0.029l-0.02,0.076l-0.038,0.059l-0.25,0.154l-0.251,0.208
	l-0.024-0.008l-0.039-0.029l-0.046-0.025l-0.048,0.008l-0.048,0.018l-0.06,0.005l-0.058-0.001l-0.037-0.007l-0.038-0.021
	l-0.029-0.025l-0.029-0.021l-0.04-0.006l-0.044,0.012l-0.009,0.023l-0.008,0.032l-0.035,0.038l-0.159,0.049h-0.059l-0.027,0.017
	l-0.016,0.022l-0.021,0.025l-0.156,0.142l-0.134,0.167l-0.099,0.176l-0.074,0.252l-0.098,0.179l-0.034,0.092l0.002,0.047
	l0.013,0.032l-0.006,0.03l-0.052,0.042l-0.047,0.02l-0.092,0.01l-0.057,0.025l0,0l-0.023-0.028l-0.048-0.003l-0.051-0.026
	l-0.044-0.043l-0.035-0.055l-0.092-0.167l-0.396-0.518l-0.21-0.367l-0.206-0.324l-0.26-0.248l-0.092-0.117l0.053-0.064l0.148,0.154
	l0.104,0.037l-0.066-0.21l-0.242-0.292l-0.058-0.115l-0.323-0.349l-0.288-0.433l-1.317-1.386l-0.059-0.08l-0.031-0.075l-0.053-0.237
	l-0.227-0.124l-0.406-0.163l-0.136-0.169l-0.116-0.271l0.018-0.066l0.042-0.104l0.054-0.086h0.052l0.071,0.058l0.061-0.007
	l0.042-0.055l0.05-0.314l-0.014-0.083l-0.029-0.062l-0.081-0.112l-0.032-0.063l0.005-0.146l0.129-0.298l-0.02-0.125l-0.076-0.123
	l-0.152-0.352l-0.037-0.138l-0.121-0.079l-0.077-0.127l-0.123-0.26l-0.324-0.495l-0.025-0.074l-0.008-0.075l0.035-0.216l0.024-0.025
	l0.084-0.008l0.03-0.021l0.005-0.065l-0.034-0.079l-0.058-0.068l-0.064-0.038l-0.081,0.01l-0.03,0.039l-0.023,0.008l-0.056-0.093
	l-0.06-0.151l-0.084-0.31l-0.086-0.154l-0.026-0.064l0.003-0.068l0.013-0.07l0.005-0.064l-0.021-0.069l-0.134-0.242l-0.04-0.055
	l-0.014-0.035l0.001-0.055l0.026-0.019l0.031-0.01l0.019-0.029l-0.006-0.074l-0.053-0.135l-0.021-0.178l-0.057-0.07l-0.072-0.063
	l-0.064-0.071l-0.028-0.057l-0.041-0.111l-0.163-0.338l-0.222-0.338l-0.023-0.067l-0.016-0.144l-0.064-0.173l-0.163-0.297
	l-0.186-0.268l-0.114-0.123l-0.146-0.109l-0.078-0.046l-0.031-0.027l-0.037-0.039l-0.022-0.017l-0.046-0.028l-0.021-0.02
	l-0.018-0.033l0.016-0.007l0.023-0.003l0.021-0.038l0.04-0.04l0.011-0.022l-0.008-0.042l-0.021-0.044l-0.026-0.039l-0.029-0.034
	l-0.075-0.034l-0.089-0.024l-0.068-0.042l-0.017-0.144l-0.047-0.1l0.007-0.148l-0.027-0.07l-0.036-0.068l-0.023-0.076l-0.015-0.148
	l-0.021-0.049l-0.104-0.147l-0.037-0.072l-0.005-0.07l0.072-0.091l0.006-0.035l0.01-0.029l0.035-0.015l0.087,0.008l0.036-0.002
	l0.026-0.022l-0.003-0.132l-0.085-0.162l-0.296-0.447l-0.321-0.392l-0.024-0.058l-0.024-0.143l-0.028-0.066l-0.084-0.03
	l-0.027-0.025l-0.007-0.021l-0.001-0.023l-0.098-0.132l-0.057-0.055l-0.137-0.104l-0.058-0.06l-0.04-0.072l-0.021-0.08l0.007-0.077
	l0.043-0.055l0.075-0.062l0.01-0.046l-0.012-0.058l0.009-0.097l0.038-0.077l0.043-0.046l0.021-0.051l-0.023-0.094l-0.026-0.039
	l-0.032-0.025l-0.033-0.021l-0.029-0.025l-0.012-0.032l0.005-0.066l-0.013-0.035l-0.021-0.079l0.066-0.135l-0.01-0.064l-0.024-0.052
	l0.022-0.017l0.037-0.003l0.024-0.009l0.037-0.098l-0.002-0.01l0.049-0.077l0.021-0.065v-0.512l0.051-0.158l0.007-0.07l-0.016-0.155
	l0.028-0.447l-0.029-0.146l-0.082-0.109l-0.121-0.088l-0.147-0.079l-0.129-0.113l-0.031-0.137l0.038-0.312l0.053-0.119l0.069-0.424
	l0.062-0.124l0.01-0.049l-0.024-0.169l0.002-0.05l0.034-0.179l0.038-0.084l0.071-0.061l0.017,0.016l0.1-0.042l0.065-0.006
	l0.03-0.209l0.037-0.049l0.078-0.033l0.111,0.013l0.081-0.024l0.122-0.119l0.045-0.166l0.034-0.31l0.037-0.126l-0.001-0.077
	l-0.034-0.076l-0.121-0.178l-0.042-0.088l-0.026-0.096l-0.016-0.172l0.064-0.413l0.027-0.018l0.022,0.028l-0.031,0.044l-0.007,0.043
	l0.021,0.038l0.049,0.027l0.016-0.104l-0.021-0.188l0.021-0.231l-0.008-0.087l-0.152-0.394l-0.065-0.324l-0.053-0.167l-0.178-0.318
	l-0.02-0.084l0.012-0.101l-0.004-0.101l-0.02-0.104l-0.037-0.112l-0.247-0.464l-0.055-0.151l-0.055-0.094l-0.637-0.723l-0.323-0.471
	l-0.055-0.106l-0.021-0.098l-0.06-0.018l-0.034-0.05l-0.021-0.064l-0.026-0.059l-0.173-0.23l-0.025-0.042l-0.015-0.059l-0.004-0.159
	l-0.027-0.058l-0.086-0.116l-0.35-0.674l-0.181-0.251l-0.229-0.316l-0.136-0.143l-0.163-0.1l-0.779-0.328l-0.093-0.063l-0.055-0.073
	l-0.021-0.094l0.009-0.234l-0.043-0.074l-0.079-0.052l-0.1-0.037l-0.279-0.038l-0.059-0.028l-0.053-0.036l-0.749-0.241l-0.428-0.056
	l-0.126-0.049l-0.081-0.069l-0.226-0.287l-0.084-0.085l-0.104-0.07l-0.465-0.187l-0.125-0.064l-0.204-0.182l-0.133-0.048
	l-0.287-0.07l-0.552-0.256l-0.037-0.07l-0.008-0.085l-0.042-0.106l-0.166-0.157l-0.232-0.132l-0.246-0.106l-0.635-0.199
	l-0.092-0.062l-0.036-0.088l0.016-0.161l-0.029-0.097l-0.063-0.071l-0.091-0.07l-0.089-0.053l-0.057-0.009l-0.034-0.053
	l-0.439-0.319l-0.069-0.08l-0.138-0.203l-0.068-0.057l-0.194-0.104l-0.09-0.085l-0.152-0.016l-0.725-0.349l-0.34-0.216l-0.183-0.074
	l-0.202-0.235l-0.102-0.447l0.012-0.445l0.142-0.226l0.014,0.198l-0.104,0.453l0.126,0.463l0.06,0.133l0.093,0.019l0.014-0.066
	l-0.077-0.564l-0.024-0.05l-0.015-0.063l0.041-0.046l0.055-0.036l0.037-0.037l0.018-0.098l-0.063-0.174l-0.016-0.12l0.019-0.183
	l-0.014-0.064l-0.032-0.05l-0.084-0.101l-0.018-0.055l0.018-0.221l0.029-0.104l0.057-0.073l-0.046,0.351l0.014,0.113l0.032-0.073
	l0.092-0.153l0.037-0.1l0.028-0.029l0.012-0.035l-0.024-0.054l-0.021-0.032l-0.009-0.029l0.006-0.026l0.025-0.023l0.29-0.124
	l0.073-0.102l-0.113-0.26l-0.062-0.204l-0.038-0.074l-0.069-0.054l-0.259-0.104l-0.147-0.104l-0.28-0.264l-0.149-0.117l0.047-0.049
	l0.045-0.019l0.027-0.026l-0.005-0.067l-0.021-0.051l-0.246-0.339l-0.094-0.084l-0.119-0.081l-0.876-0.405l-0.083-0.008
	l-0.212-0.167l-0.094-0.055l-0.07-0.029l-0.141-0.087l-0.065-0.029l-0.201-0.122l-0.192-0.184l-0.684-0.356l-1.629-1.025
	l-0.595-0.396l-0.466-0.385l-0.22-0.061l-0.121-0.036l-0.162-0.054l-0.097-0.172l-0.114-0.106l-0.76-0.867l-0.149-0.112
	l-0.064-0.068l-0.024-0.02l-0.025-0.009l-0.019-0.011l-0.006-0.029l0.002-0.055l-0.005-0.031l-0.024-0.053l0.001-0.022l-0.009-0.019
	l-0.047-0.022l-0.063,0.164l-0.115,0.014l-0.665-0.266l-0.654-0.134l-0.661-0.284l-0.99-0.521l-0.457-0.295l-0.316-0.191
	l-0.248-0.097l-0.225-0.091l-0.232-0.09l-0.432-0.229l-0.137-0.141l0.002-0.126l0.077-0.09l0.049-0.111l0.025,0.089l0.092,0.139
	l0.089-0.069l0.121-0.144l0.219-0.141l0.23-0.24l0.064-0.175l0.07-0.096l0.12-0.104l0.128-0.272l0.037-0.06l0.109-0.062l0.119-0.021
	l0.139-0.032l0.132-0.051l0.099-0.113l0.168-0.171l0.14-0.19l0.037-0.128l0.13-0.214l-0.007-0.168l0.002-0.165l-0.037-0.105
	l0.015-0.093l0.092-0.094l0.075-0.06l0.045-0.082l0.085-0.036l0.173-0.083l0.046-0.034l0.053-0.077l0.102-0.212l0.044-0.063l0,0
	l0.005-0.002l0.396-0.193l0.219-0.062l0.198-0.008l0.02-0.066l0.013-0.156l0.014-0.039l0.146-0.085l0.355-0.206l0.162-0.036
	l0.051-0.035l0.055-0.084l0.034-0.035l0.375-0.171l0.681-0.505l0.559-0.414L1181.928,788.34z M1171.547,784.639l0.073-0.023
	l0.058-0.058l0.035-0.059l0.05-0.038h0.103l0.139,0.059l0.256,0.183l0.168,0.053l0.292,0.045l0.579,0.199l0.291-0.015l0.066,0.161
	l-0.113,0.158l-0.713,0.751l-0.074,0.166l-0.007,0.133l0.026,0.133l0.051,0.125l0.076,0.116l0.001,0.084l-0.105,0.245l-0.022,0.101
	l0.037,0.125l0.049,0.081l0.008,0.074l-0.078,0.106l-0.162,0.117l-0.016,0.057l0.061,0.104l0.064,0.225l-0.08,0.216l-0.27,0.364
	l-0.034,0.027l-0.037,0.016l-0.021,0.026l0.014,0.061l0.028,0.041l0.047,0.046l0.053,0.035l0.044,0.01l0.354-0.064l0.085,0.009
	l0.151,0.141l0.264,0.372l0.292,0.414l0.409,0.576l0.426,0.6l0.222,0.313l0.316,0.444l-0.328,0.194l-0.405,0.242l-0.336,0.287
	l-0.118,0.258v-0.001h-0.002l-0.509-0.254l-0.294-0.257l-0.125-0.359l0.013-0.087l0.038-0.044l0.05-0.034l0.04-0.063l0.006-0.075
	l-0.029-0.07l-0.113-0.147l-0.059-0.053l-0.196-0.126l-0.206-0.118l-0.354-0.248l-0.095-0.13l-0.431-0.222l-0.207-0.204l-0.482-0.16
	l-0.479-0.224l-0.039-0.051l0.066-0.017l0.102-0.035l0.073-0.017l0.05,0.01l0.114,0.094l0.104-0.032l0.035-0.096l-0.012-0.104
	l-0.044-0.069l0.021-0.05l-0.073-0.091l-0.054-0.03l-0.054,0.01l-0.048,0.025l0.005,0.074l0.043,0.072l0.081,0.101l-0.007,0.041
	l-0.045,0.004l-0.093-0.084l-0.068-0.03l-0.044,0.008l0.011,0.058l-0.043,0.029l-0.075,0.002l-0.059,0.049l-0.105,0.04l-0.002-0.074
	l0.155-0.763l-0.037-0.273l-0.238-0.573l0.004-0.033l0.054-0.033l0.063,0.002l0.083,0.029l0.143,0.077l0.013-0.06l0.044-0.066
	l0.054-0.059l0.14-0.109l0.044-0.064l0.002-0.088l-0.114-0.51l-0.056-0.113l-0.163-0.201l-0.009-0.094l0.136-0.057l0.062-0.047
	l0.225-0.293l0.425-0.398l0.049-0.07l0.008-0.086l-0.05-0.252l0.005-0.114l0.026-0.108l0.043-0.1l0.003-0.113l-0.053-0.137
	l-0.032-0.142l0.057-0.132l0.08-0.014h0.047L1171.547,784.639z"/></svg>