<?xml version="1.0" encoding="utf-8"?>
<!-- Generator: Adobe Illustrator 15.0.0, SVG Export Plug-In . SVG Version: 6.00 Build 0)  -->
<!DOCTYPE svg PUBLIC "-//W3C//DTD SVG 1.1//EN" "http://www.w3.org/Graphics/SVG/1.1/DTD/svg11.dtd">
<svg version="1.1" id="Ebene_1" xmlns="http://www.w3.org/2000/svg" xmlns:xlink="http://www.w3.org/1999/xlink" x="0px" y="0px"
	 width="1920px" height="1080px" viewBox="0 0 1920 1080" enable-background="new 0 0 1920 1080" xml:space="preserve">

<path fill="#F4E0B6" stroke="#FFFFFF" d="M1083.697,595.947l-0.028,0.026l-0.031,0.004l-0.021-0.005l-0.015,0.005l-0.151-0.001
	l-0.073,0.01l-0.041-0.003l0.018-0.032l0.074-0.028l0.042-0.007l0.16-0.051l0.031-0.004l0.011,0.003l-0.003,0.013l0.001,0.006
	l0.02,0.023L1083.697,595.947z M1083.923,594.132l-0.051,0.022l-0.027-0.006l-0.029-0.021l-0.005-0.024l0.017-0.02l0.02-0.015
	l0.023-0.01l0.034,0.013l0.027,0.039L1083.923,594.132z M1079.296,591.403l0.028,0.003l0.016-0.013l0.005-0.052l0.176,0.066
	l0.074,0.048l0.044,0.09l-0.031,0.139l-0.121,0.032l-0.149-0.035l-0.12-0.063l-0.026-0.022l-0.054-0.057l-0.037-0.063l0.027-0.048
	l0.015-0.012l0.016-0.027l0.016-0.012h0.024l0.048,0.025l0.018,0.003L1079.296,591.403z M1078.541,586.402l0.063,0.012h0.068
	l0.05-0.012l-0.018,0.061l-0.05,0.023l-0.061,0.002l-0.051-0.013l-0.037,0.043l-0.043,0.007l-0.043-0.018l-0.035-0.035l0.047-0.016
	l0.027-0.023l0.021-0.027l0.027-0.018L1078.541,586.402z M1077.71,586.648l0.021,0.038l-0.048,0.017l-0.074-0.018l-0.056-0.039
	l-0.04-0.034l0.007-0.035l0.056-0.027l0.046,0.01l0.056,0.064L1077.71,586.648z M1088.662,580.521l-0.023,0.017l-0.033,0.012
	l-0.09,0.143l-0.021,0.074l0.003,0.061l0.016,0.062l0.051-0.023l-0.04,0.322l0.009,0.245l-0.145,0.587l-0.084,0.575l-0.005,0.151
	l-0.016,0.109l-0.051,0.101l-0.029,0.177l0.004,0.064l0.025,0.039l0.067,0.062l0.025,0.044l0.005,0.046l-0.024,0.064l0.008,0.043
	l0.029,0.086l0.016,0.135l0.02,0.094l0.018,0.168l-0.072,0.249l-0.011,0.139l0.015,0.076l0.025,0.075l0.187,0.391l0.045,0.062
	l0.047,0.047l0.037,0.021l0.279,0.025l0.13-0.031l0.08,0.013l0.081,0.047l0.073,0.081l-0.075-0.025l-0.021,0.031l-0.002,0.056
	l-0.009,0.053l-0.026-0.071l-0.032-0.021l-0.033,0.016l-0.031,0.036l0.042,0.04l-0.015,0.104l0.093,0.107l0.108,0.052l0.037-0.062
	l0.056,0.003l0.013,0.028l-0.055,0.034l0.035,0.057l0.077,0.045l0.072,0.005l0.081-0.026l0.061,0.007l0.041,0.052l0.027,0.104
	l-0.06-0.005l-0.005,0.041l0.027,0.048l0.039,0.014l0.062-0.038l0.035,0.003l0.05,0.038l0.038,0.059l-0.019,0.023h-0.041
	l-0.027-0.014l-0.014,0.014l-0.086,0.115l0.034,0.017l-0.021,0.029l-0.003,0.013l0.026,0.02l0.012,0.03l-0.074,0.039l-0.043,0.055
	l-0.034,0.055l-0.043,0.037l-0.055,0.066l-0.017,0.102l0.023,0.489l0.018,0.048l-0.024,0.055l0.053,0.072l0.117,0.104l0.164,0.212
	l0.021,0.051l-0.036,0.089l-0.059,0.051l-0.072,0.013l-0.082-0.023l-0.076-0.042l-0.036-0.016l-0.05-0.004l-0.05,0.007l-0.03,0.015
	l-0.002,0.031l-0.023,0.045l-0.099,0.001l-0.164-0.033l-0.138,0.01l-0.106,0.068l-0.166,0.203l-0.03-0.026l-0.013-0.006
	l-0.034,0.032l-0.077-0.026l-0.207,0.058l-0.072-0.052l-0.06-0.021l-0.225,0.01l-0.074-0.011l-0.047,0.036l-0.283,0.051
	l-0.057-0.029l-0.514-0.447l-0.13-0.077l-0.422-0.155l-0.294-0.049l-0.322-0.01l-0.132,0.03l-0.352,0.188l-0.026,0.022l-0.045,0.063
	l-0.027,0.026l-0.152,0.042l-0.269-0.07l-0.146,0.005l-0.151,0.03h-0.139l-0.138-0.026l-0.394-0.154l-0.125-0.026l-0.129,0.014
	l-0.16,0.038l-0.136,0.009l-0.129-0.02l-0.216-0.061l-0.174-0.022l-0.086-0.033l-0.038-0.008l-0.048,0.005l-0.044-0.005
	l-0.147-0.119l-0.026-0.008l-0.088-0.012l-0.059-0.033l-0.036-0.013l-0.043,0.006l-0.022-0.006l-0.057-0.043l-0.022-0.006
	l-0.424,0.113l-0.039,0.044l-0.03,0.021l-0.038-0.006l-0.037-0.027l-0.056-0.073l-0.027-0.029l-0.122-0.054l-0.123-0.002
	l-0.276,0.078l-0.263,0.119l-0.253,0.159l-0.13,0.044l-0.104-0.038l-0.232-0.171l-0.079-0.033l-0.057-0.005l-0.132,0.052
	l-0.069-0.007l-0.085-0.046l-0.083-0.063l-0.06-0.055l-0.04-0.055l-0.026-0.052l-0.03-0.044l-0.046-0.037l-0.059-0.032l-0.054-0.043
	l-0.021-0.051l0.045-0.051l0.013,0.015l0.035-0.048l0.009-0.022l-0.013-0.008l-0.022-0.124l0.005-0.005l-0.014-0.083l-0.011-0.036
	l-0.015-0.016l-0.049-0.035l-0.024-0.031l-0.015-0.027l-0.001-0.006l0.005-0.012l0.013-0.186l-0.025-0.116l-0.008-0.074l-0.02-0.061
	l-0.055-0.026l0.082-0.081l0.046-0.131l0.059-0.104l0.121-0.006l0.068-0.109l0.022-0.065l-0.01-0.073l0.003-0.043l0.045-0.016
	l0.058-0.007l0.044-0.012l0.041-0.09l-0.046-0.097l-0.057-0.097l0.009-0.087l0.04,0.04l0.035-0.021l0.04-0.011l0.049,0.067
	l0.158,0.152l0.156,0.122l0.049,0.019l0.11,0.008l0.051,0.013l0.018,0.035l0.127,0.016l0.132-0.077l0.221-0.232l0.073-0.132
	l0.014-0.042l-0.002-0.021l-0.016-0.021l-0.026-0.048l-0.022-0.035l-0.047-0.026l-0.022-0.033l0.071-0.145l-0.034-0.028l0.004-0.043
	l0.025-0.044l0.032-0.025l0.036-0.007h0.132l0.077-0.017l0.092-0.038l0.06-0.065l-0.011-0.103l0.058-0.003l0.032-0.026l0.027-0.036
	l0.057-0.044l0.035-0.039l0.023-0.014l0.021,0.003l0.018,0.023l0.015,0.026l0.016,0.016l0.158,0.031l0.03,0.021l0.06,0.128
	l0.028,0.033l0.095,0.094l0.383-0.196l0.118,0.028l0.024,0.073l0.021,0.035l0.04,0.036l0.045,0.016h0.113l0.156,0.049l0.117,0.017
	l0.163-0.033l0.056,0.003l-0.008,0.017v0.004l-0.001,0.019l0.069-0.031l0.22-0.059l0.063-0.048l0.11-0.138l0.119-0.088l0.03-0.053
	l0.024-0.055l0.031-0.047l0.205-0.133l0.023-0.063l0.168,0.018l0.079-0.001l0.078-0.022l0.045-0.025l0.087-0.067l0.416-0.114
	l0.181-0.093l0.151-0.12l0.116-0.146l0.125,0.005l0.141-0.096l0.327-0.32l0.074-0.118l0.051-0.126l0.056-0.2l0.029-0.031
	l0.107-0.036l0.063-0.033l0.216-0.168l0.031-0.048l0.024-0.026l0.026-0.021l0.094-0.032l0.038,0.003l0.091,0.049l0.029,0.007
	l0.04-0.014l0.094-0.009l0.098-0.052l0.034-0.007l0.02,0.007l0.055,0.037l0.025,0.01l0.067-0.015l0.045-0.046l0.043-0.055
	l0.146-0.139l0.032-0.145l0.015-0.284l-0.023-0.026l-0.008-0.006l-0.002-0.011l-0.004-0.04l-0.016-0.007l0.018-0.008l0.03,0.037
	l0.024,0.104l0.039,0.046l0.052,0.01l0.058-0.012l0.057-0.023l0.086-0.058l0.21-0.197l0.049-0.08l0.022-0.05l0.098-0.114
	l0.072-0.176l0.04-0.042l0.103-0.034l0.216-0.001l0.121-0.031l0.006,0.038L1088.662,580.521z M1086.423,580.996l-0.024,0.044
	l-0.106-0.037l-0.075-0.038l-0.038-0.059l0.007-0.103l0.023-0.01l0.025,0.056l0.063,0.003l0.053,0.022l0.047,0.035l0.043,0.048
	L1086.423,580.996z M1086.172,580.711l-0.051,0.034l-0.06-0.01l-0.06-0.022l-0.054-0.003l-0.04-0.02l-0.025-0.069l-0.002-0.079
	l0.036-0.049l0.104-0.045l0.037,0.011l0.003,0.068l0.029,0.009l0.041,0.017l0.021,0.003l0.011,0.025l-0.085,0.036l0.038,0.041
	l0.019,0.014l0.023,0.01L1086.172,580.711z M1084.092,581.209l-0.039,0.034l-0.033-0.042l0.039-0.036L1084.092,581.209z
	 M1085.673,580.472l0.012,0.041l-0.142,0.003l-0.131-0.038l0.045-0.077l0.113-0.057l0.058-0.005l0.052,0.03l-0.009,0.025v0.024
	L1085.673,580.472z M1084.775,580.824l-0.037,0.021l-0.079,0.01l-0.047-0.041l-0.027-0.049l0.011-0.009l0.063-0.011l0.053,0.015
	l0.029,0.037l0.028,0.014L1084.775,580.824z M1080.027,582.197l-0.033,0.024h-0.045l-0.015-0.03l0.004-0.036l0.023-0.046
	l0.052-0.022l0.044,0.011l0.01,0.01L1080.027,582.197z M1086.407,579.055l-0.017,0.024l-0.039,0.007l-0.085-0.027l-0.007-0.016
	l0.013-0.031l0.024-0.026l0.007-0.025l0.003-0.022l0.018-0.015l0.031-0.007l0.027,0.001l0.021,0.009l0.009,0.034l-0.004,0.034
	l0.002,0.029L1086.407,579.055z M1063.505,586.553l0.106,0.023l0.104-0.045l0.097-0.016l0.083,0.108l0.016,0.021l0.021,0.006
	l0.021-0.01l0.016-0.025l0.002-0.004l0.004-0.009l0.021,0.004l-0.047,0.079l-0.005,0.033l0.024,0.026l-0.01,0.072l0.027,0.149
	l0.01,0.126l-0.008,0.024l-0.032,0.021l-0.043,0.011l-0.021-0.019l-0.015-0.028l-0.022-0.025l-0.197-0.159l-0.103-0.118
	l-0.019-0.095l-0.013-0.031l-0.024,0.01l-0.011-0.029L1063.505,586.553z M1063.343,586.673l-0.044,0.043l-0.071,0.02l-0.061-0.013
	l-0.009-0.049l-0.009-0.025l-0.113-0.053l-0.047-0.046l-0.007-0.071l0.039-0.054l0.141-0.084l0.044-0.039l0.051,0.136l0.083,0.162
	L1063.343,586.673z M1078.974,572.975l-0.025,0.061l-0.038-0.003l-0.045,0.024l-0.043,0.039l-0.031,0.042l-0.035-0.012l-0.084-0.004
	l-0.047-0.017l-0.013-0.09v-0.045l0.021-0.029l-0.018-0.013l-0.03-0.033l0.063-0.027l0.228-0.013l0.078,0.016l0.001,0.029
	l0.009,0.024l0.024,0.026L1078.974,572.975z M1077.174,573.347l-0.03,0.036l-0.005-0.045l0.009-0.026l0.022-0.015L1077.174,573.347z
	 M1060.337,578.228l0.044,0.022l0.027,0.047l0.007,0.054l-0.015,0.051l-0.178,0.097l-0.057,0.083l0.043,0.117l0.02,0.1l-0.124,0.032
	l0.012-0.048l-0.002-0.045l-0.009-0.042l-0.016-0.039l0.007-0.042l0.025-0.058l0.044-0.074l0.04-0.039l-0.01-0.053l-0.029-0.055
	l-0.009-0.047l0.02-0.013l0.062-0.011l0.007-0.022l-0.002-0.022l0.011-0.025l0.03-0.046l0.012,0.032l0.016,0.022L1060.337,578.228z
	 M1063.916,576.565l0.018,0.018l0.011,0.021l-0.004,0.035l-0.021,0.005l-0.039-0.024l-0.031-0.012l-0.02,0.019l-0.02-0.006
	l0.004-0.093l-0.023-0.022l-0.005-0.04l0.003-0.066l0.006-0.042l0.028-0.004l0.029,0.013l0.023,0.028l0.012,0.017l0.011,0.03
	L1063.916,576.565z M1063.756,576.492l-0.119,0.073l-0.063,0.01l-0.026-0.031l-0.013-0.033l0.008-0.021l0.02-0.02l0.016-0.025
	l0.003-0.035l-0.007-0.037l0.011-0.01l0.018-0.01l0.014-0.025l0.026-0.003l0.028,0.022l0.023,0.028l0.014,0.036l0.009,0.036
	l0.014,0.017l0.018,0.015L1063.756,576.492z M1063.066,576.588l0.029-0.005l0.032-0.021l0.055,0.042l0.053,0.146l0.046,0.017
	l-0.02-0.014l-0.012-0.022l-0.007-0.032l-0.003-0.044l0.021-0.008l0.033,0.051l0.002,0.014l-0.003,0.022l0.011,0.025l0.044-0.022
	l0.017-0.013l0.018-0.022l0.02,0.016l0.068,0.018l-0.03-0.104l0.061-0.001l0.159,0.069l-0.01-0.029l0.032,0.006h0.028l0.027-0.004
	l0.033-0.013l0.01,0.026l-0.012,0.019l-0.005,0.018v0.017l-0.005,0.022l0.044,0.003l0.031,0.022l0.034,0.028l0.045,0.02
	l-0.007,0.039l0.016,0.042l0.057,0.091l0.005-0.096l0.006-0.044l0.022-0.035l-0.018-0.014l-0.011-0.015l-0.014-0.011l-0.024-0.004
	l0.031-0.038l0.042-0.013l0.047-0.001l0.047-0.009l0.014-0.02l0.007-0.026l0.016-0.012l0.043,0.029l-0.013,0.041l0.039,0.009
	l0.029,0.014l0.02,0.003l0.013-0.031l0.022-0.007l0.013,0.016l0.003,0.003l0.004-0.002l0.014,0.005l0.016,0.052l0.007,0.046
	l-0.004,0.045l-0.019,0.055l-0.014-0.019l-0.018-0.016l-0.014-0.018l0.038,0.272l-0.005,0.076l0.066-0.025l-0.048-0.051l0.05-0.047
	l0.039-0.003l0.026,0.035l0.01,0.071l0.017-0.006v-0.009l-0.006-0.011v-0.011l0.028,0.015l0.013,0.002l0.014-0.006l0.031-0.063
	l0.092-0.029h0.104l0.074,0.018l-0.018,0.062l-0.052,0.013l-0.063-0.008l-0.056,0.002l-0.044,0.048l0.01,0.072l0.017,0.08
	l-0.019,0.07l0.037,0.052l-0.039,0.03l-0.152,0.041l0.006,0.021l0.007,0.006l-0.026,0.013l0.044,0.041l0.026-0.009l0.023-0.029
	l0.03-0.017l0.038,0.001l0.072,0.017l0.022,0.002l0.059-0.038l0.035-0.051l0.038-0.042l0.069-0.011l-0.002,0.045l-0.007,0.033
	l-0.02,0.026l-0.029,0.018l0.01,0.024l0.14,0.016l0.023,0.009l0.025,0.048l0.028,0.017l0.026-0.012l0.025-0.042l0.037,0.032
	l0.04,0.015h0.043l0.046-0.009l-0.093,0.074l-0.022,0.039l0.05,0.044l0.01,0.025l-0.056,0.005l-0.033,0.037l0.003,0.042l0.05,0.026
	l-0.014-0.048l0.04,0.046l0.138,0.089l0.043,0.05l0.042,0.073l0.173,0.16l0.034,0.049l0.115,0.253l0.027,0.038l0.029,0.026
	l0.025,0.005l0.049-0.006l0.022,0.021l0.018,0.034l0.033,0.036l0.125,0.054l0.03,0.02l0.017,0.042l-0.01,0.085l0.007,0.047
	l0.023,0.092l-0.003,0.074l-0.027,0.145l0.005,0.172l-0.018,0.07l-0.064,0.049l-0.039,0.041l-0.016,0.07l-0.013,0.141l-0.024,0.063
	l-0.053,0.1l-0.014,0.068l0.002,0.091l0.021,0.066l0.081,0.171l0.022,0.036l0.159,0.187l0.056,0.042l0.057,0.006l0.035,0.013
	l0.112,0.075l0.092,0.023l0.019,0.067v0.358l0.03,0.141l0.074,0.103l0.014-0.021l0.02-0.022l0.02-0.006l0.017,0.024l0.005,0.042
	l-0.017,0.018l-0.022,0.009l-0.012,0.017l-0.003,0.062l0.003,0.058l0.017,0.049l0.037,0.038l-0.022,0.009l0.01,0.026l0.02,0.003
	l0.02,0.008l0.019,0.003l0.009,0.025l-0.021,0.066l0.005,0.098l0.023,0.11l0.033,0.104l0.024,0.052l0.057,0.096l0.026,0.058
	l0.009,0.043l-0.005,0.081l0.017,0.063l0.002,0.028l-0.002,0.037l0.001,0.05l0.014,0.059l0.095,0.177l0.034,0.12l0.023,0.3
	l0.083,0.055l0.03,0.137l0.002,0.251l0.03,0.197l0.019,0.063l0.033,0.058l0.042,0.03l0.098,0.027l0.01,0.026l-0.077,0.065
	l-0.048,0.126l-0.003,0.135l0.058,0.096l-0.012,0.044l0.021,0.021l0.032,0.013l0.023,0.023l0.006,0.035v0.096l0.009,0.043
	l-0.012,0.051l-0.053,0.046l-0.041,0.059l0.02,0.09l-0.031-0.004l-0.019-0.01l-0.007-0.022l0.002-0.038l-0.066-0.02l-0.055,0.011
	l-0.045,0.034l-0.038,0.051l-0.024,0.008l-0.03-0.032l-0.038-0.01l-0.08-0.006l-0.12-0.065l-0.024-0.009l-0.039-0.007l-0.107-0.052
	l-0.035-0.007l-0.037,0.004l-0.055-0.004l-0.053-0.013l-0.035-0.019l-0.012,0.04l-0.057-0.012l-0.069,0.004l-0.124,0.031
	l-0.053,0.052l-0.033,0.078l-0.016,0.071l-0.002,0.031l-0.109,0.004l-0.104-0.043l-0.193-0.104l-0.021,0.033l-0.035-0.01
	l-0.04-0.025l-0.039-0.015l-0.052,0.007l-0.033,0.017l0.001,0.016l0.051,0.003l0.012,0.03l-0.003,0.041l0.026,0.011l0.033,0.006
	l0.018,0.017l0.001-0.004l0.041-0.003l0.077-0.049l0.025,0.017l0.012,0.033l0.003,0.019l-0.081,0.188l-0.021,0.073l0.004,0.09
	l0.026,0.095l0.042,0.08l0.047,0.067l0.051,0.06l0.029,0.019l0.028,0.014l0.014,0.03l-0.018,0.104l0.017,0.16l0.025-0.009
	l-0.026,0.036h-0.012l-0.032-0.011l-0.008,0.063l-0.214,0.46l-0.019,0.019l-0.034,0.017l-0.012,0.018l-0.016,0.072l-0.021,0.026
	l-0.042,0.004l-0.06-0.019l-0.102-0.043l0.032,0.085l-0.078-0.062l-0.106-0.037l-0.106-0.01l-0.08,0.02l-0.063,0.058l-0.063,0.092
	l-0.028,0.101l0.043,0.082l-0.036,0.044l-0.031-0.021l-0.003-0.088l-0.041-0.013l-0.06,0.02l-0.058,0.007l-0.01-0.029l0.023-0.09
	l-0.036-0.104l-0.068-0.058l-0.072,0.046l-0.107-0.213l-0.11-0.165l-0.024,0.01l-0.018,0.031l-0.093-0.012l-0.059,0.012l0.008-0.027
	l0.006-0.075l-0.058-0.016l-0.057,0.07l-0.008-0.016l-0.025-0.021l-0.04-0.066l-0.046-0.04l-0.046-0.01l-0.029,0.042l-0.029-0.038
	l-0.036-0.104l-0.031-0.051l-0.034-0.021l-0.038-0.008l-0.019,0.016l0.024,0.037l-0.025-0.006l-0.023-0.017l-0.019-0.027
	l-0.018-0.034l-0.026-0.044l-0.024-0.004l-0.025,0.005l-0.022-0.005l-0.047-0.052l-0.017-0.035l0.005-0.037l0.097-0.249
	l-0.009-0.085l-0.09-0.071l-0.019-0.066l-0.148-0.045l-0.057-0.071l-0.001-0.043l0.033-0.09l0.007-0.041l-0.01-0.065l-0.019-0.035
	l-0.089-0.096l-0.017-0.008l-0.003-0.019l0.007-0.058l0.05-0.146l0.02-0.086l0.003-0.158l0.011-0.093l-0.037-0.021l0.006-0.066
	l-0.036-0.078l-0.106-0.161l-0.079-0.187l-0.032-0.039l-0.011-0.028v-0.045l-0.048-0.106l-0.003-0.026l0.049-0.007l0.038,0.013
	l0.165,0.126l0.079,0.039h0.08l0.083-0.055l-0.19,0.009l-0.045-0.02l-0.019-0.074l0.017-0.089l0.028-0.081l0.014-0.063l-0.021,0.008
	l-0.001,0.032l-0.008,0.029l-0.012,0.025l-0.017,0.022l0.023-0.056l0.011-0.084l-0.002-0.084l-0.01-0.061l-0.039-0.138l-0.022-0.046
	l-0.05-0.051l-0.104-0.06l-0.119-0.022l-0.106,0.029l-0.067,0.095l0.031,0.019l0.004-0.026l0.013-0.009l0.021-0.004l0.024-0.012
	l-0.029,0.04l-0.009,0.047l0.008,0.118l-0.032-0.024l0.011-0.057l-0.035-0.028l-0.052-0.014l-0.066-0.028l-0.011,0.001l-0.011-0.005
	l-0.023-0.025l-0.016-0.032l-0.001-0.031l0.003-0.029l-0.006-0.03l-0.083-0.146l-0.015-0.05l0.006-0.104l-0.017-0.053l-0.063-0.044
	l-0.038,0.042l-0.016-0.012l0.012-0.043l0.044-0.054l0.011-0.001l0.099-0.042l0.05-0.042l0.022-0.013l0.022-0.031l0.015-0.063
	l0.005-0.074l-0.015-0.066l-0.037-0.053l-0.101-0.09l-0.041-0.073l-0.095-0.218l-0.017-0.213l-0.047-0.125l-0.079-0.08l-0.097-0.046
	l-0.106-0.028l-0.014,0.041l-0.096-0.034l-0.039-0.081l-0.044-0.232l-0.042-0.073l-0.075-0.098l-0.084-0.081l-0.068-0.025
	l-0.072-0.014l-0.058-0.076l-0.053-0.101l-0.059-0.086l-0.095-0.049l-0.079,0.034l-0.131,0.156l-0.079-0.008v-0.094l0.015-0.073
	l-0.084,0.004l-0.039,0.064l-0.003,0.097l0.021,0.102l-0.051-0.05l-0.042-0.057l-0.062-0.103l-0.01-0.025l0.045-0.049l0.039-0.058
	l0.015-0.077l-0.027-0.104l0.01-0.003l0.008-0.024l-0.004-0.027l-0.021-0.008l-0.045,0.013l-0.02-0.003l-0.026-0.014l-0.077-0.059
	l-0.034-0.019l-0.045,0.002l0.04-0.661l-0.006-0.074l-0.024-0.079l-0.045-0.055l-0.067-0.007l-0.056-0.016l-0.016-0.076l0.008-0.089
	l0.013-0.06l0.024-0.009l0.027,0.046l0.025-0.003l0.03-0.011l0.035,0.023l0.011,0.037l0.005,0.055l0.013,0.057l0.031,0.044
	l0.216,0.137l0.129,0.025l0.386-0.077l0.204-0.011l0.078-0.02l0.061-0.034l0.215-0.197l0.045-0.078l0.028-0.084l-0.001-0.07
	l0.186-0.181l0.079-0.031l0.06-0.011l0.052,0.007l0.138-0.207l0.033-0.079l0.045-0.236l0.026-0.051l-0.012-0.012l-0.002-0.006
	h-0.002l-0.017-0.004l0.09-0.075l0.024-0.027l0.011-0.038l0.008-0.085l0.016-0.022l0.031-0.037l0.035-0.071l0.026-0.08l0.01-0.12
	l0.052-0.052l0.211-0.104l0.042-0.035l0.057-0.12l0.032,0.023l0.026-0.086l-0.006-0.069l-0.066-0.174l-0.001-0.081l0.048-0.058
	l0.065-0.045l0.048-0.051l0.021,0.037L1063.066,576.588z M1064.759,570.771l0.02,0.074l-0.067,0.005l-0.02-0.073l0.02-0.039
	L1064.759,570.771z M1066.743,570.087l-0.032,0.068l-0.056-0.011l-0.165-0.076l-0.051-0.039l0.032-0.052l-0.022-0.051l0.013-0.03
	l0.05,0.008l0.075,0.027l0.079,0.074l0.028,0.05L1066.743,570.087z M1063.676,570.039l-0.023,0.029l-0.044,0.016l-0.048,0.001
	l-0.036-0.015l-0.004-0.032l0.028-0.025l0.017-0.047l-0.001-0.063l0.015-0.01l0.027,0.042l0.026,0.029l0.022,0.016l0.011,0.01
	l0.006,0.017L1063.676,570.039z M1064.342,568.654l0.037,0.041l0.007,0.079l-0.013,0.058l-0.029,0.046l-0.048,0.045l0.07,0.003
	l0.081,0.05l0.048,0.07l-0.025,0.073l-0.029-0.032l-0.026,0.005l-0.03,0.015l-0.044-0.005l-0.022-0.018l-0.061-0.064l-0.016-0.013
	l-0.051-0.009l-0.057-0.023l-0.04,0.016v0.104l-0.057-0.059l-0.1,0.107l-0.083-0.031l0.009,0.072l-0.005,0.03l-0.019,0.009
	l-0.262,0.087h-0.08l-0.08-0.039l-0.062-0.105l0.005-0.084l0.05-0.068l0.07-0.052l0.065-0.031l0.035-0.004l0.086,0.013l0.043,0.001
	l0.059-0.016l0.073-0.032l-0.012-0.02l-0.005-0.004l-0.003,0.003l-0.015-0.003l0.03-0.044l-0.013-0.03l-0.002-0.006l0.057-0.013
	l0.117-0.045l0.009,0.066l0.043,0.013l0.046-0.017l0.019-0.019l-0.003-0.042l0.015-0.032l0.021-0.028l0.013-0.029l-0.009-0.119
	l0.008-0.055l0.03-0.033h0.035l0.038,0.016l0.039,0.03l0.032,0.035l-0.011,0.039l0.002,0.049L1064.342,568.654z M1062.113,568.539
	l-0.065,0.028l-0.087-0.069l0.009-0.185l0.046-0.056l0.061,0.023l0.008,0.006l0.012,0.008l0.015,0.006l0.047,0.052l-0.01,0.096
	L1062.113,568.539z M1065.961,555.466l0.095,0.036l-0.046-0.005l-0.043,0.007l-0.085,0.03l-0.034,0.374l-0.015-0.023l-0.009-0.084
	l0.016-0.167l0.024-0.104l0.037-0.056L1065.961,555.466z M1065.79,555.514l-0.033,0.046l-0.054,0.009l-0.035-0.051l0.012-0.081
	l0.051-0.02l0.066,0.02l0.016,0.051L1065.79,555.514z M1062.425,549.303l0.06,0.093l0.037,0.039l0.037,0.032l0.016,0.039
	l-0.025,0.058l0.037,0.001l0.073-0.014l0.04,0.004l0.047,0.022l0.026,0.02l0.027,0.015h0.045l0.125-0.042l0.06,0.014l0.065,0.083
	l0.022,0.052l0.004,0.033l0.002,0.032l0.012,0.053l0.023,0.055l0.018,0.025l0.024,0.01l0.035,0.01h0.071l0.064-0.014l0.062,0.012
	l0.064,0.084l0.111,0.113l0.139,0.05l0.139,0.005l0.076-0.016l0.095-0.019l0.116,0.026l0.058,0.006l0.044-0.013l0.161-0.087
	l0.15-0.04h0.006l0.027,0.001l0.07,0.02l0.032,0.002l0.026-0.012l0.039-0.036l0.022-0.011l0.028-0.002l0.083-0.003l0.212,0.042
	l0.702-0.214l0.263-0.038l0.232,0.041l0.072,0.001l0.12-0.04l0.269-0.179l0.138-0.027l0.171-0.084h0.023l0.062,0.03l0.028,0.007
	l0.125-0.045l0.399-0.024l0.046-0.013l0.042-0.027l0.014,0.032l0.008,0.031l0.001,0.031l-0.008,0.027l0.043,0.109v0.019l-0.003,0.06
	l-0.042,0.051l-0.072,0.025l-0.094,0.053l-0.042,0.094l-0.024,0.111l-0.04,0.102l-0.104,0.125l-0.048,0.078l-0.028,0.032
	l-0.037,0.019l-0.016,0.051v0.104l-0.011,0.087l-0.004,0.025l-0.056,0.077l0.041,0.033l0.036,0.044l0.063,0.097l0.001,0.001l0,0
	l0.063,0.038l0.034,0.055l0.04,0.026l0.074-0.045l-0.074-0.056l0.052-0.004l0.09-0.027l0.051,0.006l0.089-0.016l0.071,0.017
	l0.125,0.051l0.079-0.017l0.082-0.044l0.042-0.008l0.032-0.006l0.026,0.032l0.028,0.036l-0.018,0.187l-0.184,0.316l-0.034,0.06
	l-0.029,0.113l0.034,0.016l0.02,0.024l0.004,0.032l-0.011,0.039l-0.01,0.016l-0.027,0.058l0.057,0.029l0.019,0.006l0.004,0.003
	l0.005,0.001l0.003,0.005l0.003,0.004l0.119,0.061l0.085-0.043l0.074-0.082l0.077-0.054l0.014-0.01l0.083,0.061l0.016,0.094
	l0.014,0.089v0.069l-0.002,0.234l0.052,0.146l0.044,0.038l0.039,0.032l0.101,0.011l0.106-0.026l0.055-0.004l0.154,0.042l0.038,0.011
	l0.242,0.009l0.402,0.298l0.047,0.021l0.055,0.005l0.027-0.008l0.003,0.004l0.007,0.007v0.063l-0.024,0.091l-0.028,0.097
	l-0.132,0.07l-0.143-0.016l-0.141,0.07l0.008-0.04l0.012-0.063l0.076-0.035l0.093-0.024l0.057-0.037l-0.041,0.002l-0.04-0.02
	l-0.048-0.035l-0.136-0.012l0.044-0.047l-0.044-0.067l-0.077-0.062l-0.06-0.036l-0.336-0.149l-0.072-0.022l-0.191-0.008
	l-0.072,0.016l-0.03,0.063l0.009,0.102l0.047,0.077l0.084-0.017l-0.084,0.094l-0.008,0.024l-0.004,0.032l-0.075,0.047l-0.026,0.028
	l-0.027,0.075l-0.048,0.08l-0.066,0.055l-0.087-0.003l0.037-0.027l0.044-0.044l0.032-0.049l0.004-0.042l-0.056-0.062l-0.131,0.022
	l-0.062-0.047l-0.045,0.04l-0.313,0.046l-0.03-0.001l-0.102-0.044l-0.024-0.004l-0.028,0.015l-0.089,0.08l-0.01,0.071l-0.018,0.024
	l-0.035-0.004l-0.049-0.048l-0.042,0.001l-0.018,0.026l0.01,0.042l0.026,0.035l0.04,0.006l0.014,0.031l-0.063,0.029l-0.044,0.059
	l-0.008,0.071l0.046,0.063l0.062,0.014l0.057-0.033l0.09-0.094l-0.009,0.072l-0.067,0.126l0.009,0.077v0.002l-0.014,0.054
	l-0.063,0.051l-0.229,0.1l-0.101,0.068l-0.352,0.5l-0.399,0.435l-0.249,0.22l-0.032,0.062l-0.018,0.025l-0.099,0.067l-0.06,0.084
	l-0.037,0.022l-0.003-0.071l0.011-0.067l0.001-0.052l-0.031-0.032l0.031-0.009l0.018-0.013l0.003-0.023l-0.015-0.039l0.02-0.007
	l0.029,0.029l0.02,0.014l0.013-0.007l0.013-0.029l-0.064-0.041l0.034-0.01l0.033-0.014l0.024-0.022l0.01,0.007l-0.001-0.007
	l0.016,0.008l0.016,0.013l0.002,0.003l-0.01,0.006l-0.03,0.01l0.013,0.032l0.063-0.033l-0.006-0.058l-0.021-0.061l0.015-0.038
	l0.051-0.025l0.033-0.036l0.02-0.048l0.002-0.063l-0.03,0.028l-0.054,0.084l-0.02,0.01l-0.08-0.037l-0.039-0.03l-0.037-0.055
	l-0.05,0.059l-0.049,0.101l-0.019,0.095l0.05,0.04l0.011,0.026l-0.051,0.016l-0.069-0.026l-0.013,0.03l-0.021,0.009l-0.058-0.081
	l-0.008,0.082l0.034,0.031l0.116,0.002l0.011,0.026l-0.027,0.033l-0.052,0.028l-0.045,0.001l-0.009-0.042l-0.097,0.034l-0.095,0.113
	l-0.065,0.148l-0.012,0.138l0.01,0.026l0.019-0.007l-0.011,0.047l0.005,0.045l0.023,0.034l0.043,0.018l-0.012,0.052l0.007,0.032
	l0.016,0.031l0.008,0.043l-0.017,0.022l-0.028,0.013l-0.007,0.02l0.049,0.047l-0.011,0.069l0.006,0.051l-0.011,0.038l-0.059,0.036
	l-0.048-0.003l-0.043-0.011l-0.021,0.022l0.021,0.094l0.049,0.026l0.063,0.077l0.043,0.004l0.023-0.033l0.004-0.058l-0.017-0.061
	l-0.033-0.042l0.07,0.002l0.03,0.039l0.021,0.062l0.045,0.068l-0.028,0.025l0.001,0.025l0.022,0.021l0.039,0.015l0.015,0.064
	l0.049,0.04l0.063,0.012l0.058-0.021l-0.015-0.011l-0.004-0.002l-0.015-0.004l0.03-0.051l0.04-0.091l0.026-0.03l-0.001,0.074
	l0.044,0.055l0.057,0.047l0.043,0.052l0.062,0.139l0.085,0.151l-0.035,0.002l-0.04-0.006l-0.008-0.029l-0.021-0.039l-0.008-0.018
	l0.009,0.103l0.028,0.076l0.048,0.03l0.063-0.03l-0.017-0.013l-0.009-0.012l-0.02-0.025l0.079,0.028l0.063,0.046l0.057,0.051
	l0.062,0.041l0.011,0.026l-0.021,0.014l-0.01,0.013l-0.007,0.013l-0.012,0.017l0.063,0.042l0.018-0.081l-0.013-0.055l-0.038-0.045
	l-0.062-0.047l0.061,0.022l0.065,0.005l0.048,0.016l0.01,0.049l0.069,0.032l0.03,0.01l0.039,0.007l0.094,0.055l0.092,0.041
	l0.025-0.045l-0.01,0.003l-0.02,0.01l-0.01,0.003l-0.013-0.031l0.049-0.021h0.05l0.045,0.018l0.036,0.035l0.014,0.04l-0.011,0.056
	l0.023,0.023l-0.008,0.051l-0.002,0.025l0.004,0.029l-0.02,0.007l-0.02,0.011l0.006,0.051l0.051,0.138l0.011,0.072l-0.011,0.084
	l-0.045,0.139l-0.012-0.017l-0.031-0.036l-0.039-0.038l-0.039-0.026l0.005-0.113l-0.011-0.057l-0.032-0.04l-0.042-0.003
	l-0.023,0.033l-0.012,0.047l0.001,0.03l-0.005,0.081l0.015,0.041l0.088,0.004l0.011,0.032l-0.01,0.039l-0.029,0.024l0.012,0.029
	l0.023-0.003l0.045,0.001l0.024-0.005l0.006,0.081l-0.038,0.062l-0.064,0.031l-0.075-0.028l-0.052-0.034l-0.108-0.046l-0.071-0.02
	l-0.031,0.012l-0.05,0.099l0.011,0.025l0.04-0.016l0.041,0.319l0.048,0.174l0.093,0.173l0.096,0.119l0.054,0.055l0.039,0.02
	l0.025,0.042l0.104,0.301l0.089,0.182l0.266,0.383l0.057,0.103l0.022,0.028l0.023,0.02l0.064,0.04l0.018,0.016l0.043,0.087
	l0.053,0.075l0.121,0.135l0.112,0.091l0.13,0.083l0.173,0.071l0.11,0.088l0.142,0.066l0.146,0.043l0.095,0.002l0.27,0.162
	l0.127,0.056l0.124,0.037l0.071,0.01l0.149-0.009h0.007l0.153-0.036l0.072,0.011l0.16,0.05l0.235,0.001l0.049,0.035l0.039,0.018
	l1.267,0.435l0.446,0.076h0.069l0.047,0.024l0.161-0.008l0.103,0.016l0.021-0.029l0.01-0.04l0.01-0.022l0.008-0.007l0.002-0.013
	l0.006-0.013l0.017-0.011l0.021,0.001l0.017,0.016l0.015,0.016l0.013,0.004l0.071,0.007l0.072,0.051l0.063,0.055l0.043,0.019
	l0.063-0.01l0.069,0.015l0.05,0.044l0.006,0.075l0.908,0.921l0.084,0.063l0.025,0.024l0.084,0.14l0.027,0.029l0.061,0.042
	l0.188,0.17l0.105,0.127l0.201,0.325l0.31,0.383l0.303,0.372l0.23,0.232l0.12,0.104l0.32,0.223l0.044,0.057l0.039,0.035l0.672,0.34
	l0.269,0.088l0.282,0.054l0.131,0.041l0.219,0.155l0.573,0.221l0.139,0.024l0.206-0.003l0.133-0.029l0.065,0.02l0.052,0.052
	l0.093,0.159l0.055,0.073l0.062,0.044l0.06,0.001l0.021-0.004l0.057-0.01l0.076,0.01l0.147,0.043l0.131,0.005l0.267-0.063
	l0.145-0.013l0.059,0.02l0.132,0.073l0.042,0.01l0.064-0.006l0.165,0.038l0.072,0.004l0.066-0.013l0.072-0.016l0.354-0.153
	l0.396-0.076l0.14-0.056l0.463-0.306l0.505-0.19l0.721-0.429l0.282-0.048l0.008,0.006l0.097-0.013l0.112,0.081l0.054-0.026
	l0.021,0.067l0.058,0.065l0.096,0.138l0.026,0.05l0.032,0.07l-0.005,0.058l-0.024,0.09l-0.035,0.085l-0.042,0.051l-0.055,0.048
	l-0.03,0.069l-0.034,0.135l-0.068,0.135l-0.235,0.297l-0.029,0.136l0.043,0.165l0.09,0.156l0.109,0.113l0.109,0.064l0.12,0.042
	l0.243,0.046l0.221-0.025l0.063,0.016l0.061,0.023l0.688,0.006l0.604,0.044l0.206-0.032l0.075,0.018l0.07,0.025l0.158,0.028
	l0.83-0.084l0.088,0.023l0.021-0.01l-0.015-0.029l0.019-0.009l0.095,0.037l0.599-0.072l0.556,0.038l0.299,0.061l0.149,0.053
	l0.196,0.118l0.052,0.003l0.057-0.007l0.148,0.033l0.286,0.113h0.059l0.069-0.011l0.145,0.022l0.292-0.057l0.042,0.006l0.373-0.019
	l0.392,0.074l0.255-0.067l0.127,0.002l0.042,0.096l0.035-0.018l0.064-0.062l0.051-0.013l0.024,0.021l0.019,0.035l0.031,0.032
	l0.104,0.034l0.024,0.019l0.068,0.187l0.351,0.088l0.353,0.024l0.067-0.016l0.026,0.006l0.114,0.077l0.053,0.021l0.142,0.035
	l0.142,0.094l0.073,0.038h0.065l0.04,0.013l0.338,0.181l0.414,0.364l0.024,0.017l0.024,0.01l0.025,0.001l0.008,0.054l0.021,0.023
	l0.022,0.02l0.016,0.041l-0.005,0.05l-0.03,0.063l0.032,0.128l-0.018,0.065l-0.068,0.135l0.016,0.205l0.009,0.047l0.029,0.088
	l0.014,0.099l0.013,0.042l0.07,0.089l0.024,0.047l0.062,0.229l0.024,0.028l-0.01,0.02l-0.004,0.071l-0.01,0.021l-0.069,0.025
	l-0.028,0.005l-0.031-0.002l-0.204-0.048l-0.059,0.009l-0.126,0.059l-0.043,0.013l-0.099-0.014l-0.092,0.003l-0.139-0.045
	l-0.148-0.024l-0.047,0.006l-0.039-0.006l-0.338-0.201l-0.055-0.019l-0.014-0.029l0.047-0.025l0.015-0.04l-0.016-0.048l-0.048-0.049
	l-0.049-0.019l-0.095,0.013l-0.044-0.007l0.075-0.119l-0.018-0.097l-0.088-0.077l-0.14-0.058l-0.114-0.029l-0.069-0.031
	l-0.047-0.047l-0.038-0.076l-0.039-0.063l-0.044-0.045l-0.052-0.019l0.04-0.019l-0.013-0.024l-0.209-0.048l-0.054,0.004
	l-1.045,0.428l-0.063,0.01l-0.208-0.016l-0.031,0.011l-0.061,0.035l-0.032,0.012l-0.03-0.006l-0.079-0.029l-0.024-0.001l-0.058,0.01
	l-0.215-0.021l-0.2,0.018l-0.104-0.005l-0.065-0.039l0.055-0.063l0.035-0.08l-0.016-0.07l-0.094-0.039l0.049-0.052l0.16-0.041
	l0.047-0.062l-0.011-0.077l-0.061,0.022l-0.107,0.104l0.001-0.011l0.006-0.028l-0.077,0.003l-0.045,0.051l-0.037,0.064l-0.053,0.05
	l-0.032-0.002l-0.03-0.024l-0.032-0.028l-0.029-0.021l-0.037,0.001l-0.069,0.032l-0.031,0.002l-0.236,0.091l-0.174,0.209
	l-0.105,0.278l-0.046,0.283l-0.079,0.469l-0.006,0.157l0.037,0.267l-0.002,0.05l-0.031,0.051l-0.022,0.239l-0.07,0.164l-0.028,0.064
	l-0.017,0.122l0.047,0.161l0.031,0.046l0.113,0.13l0.112,0.096l-0.008,0.064l-0.029,0.065l-0.008,0.113l-0.079,0.203l-0.018,0.24
	l0.01,0.149l0.051,0.123l0.091,0.095l0.129,0.065l0.013,0.026l0.007,0.118l0.147,0.071l0.185,0.032l0.125-0.003l0.396-0.155
	l0.116-0.015l0.063,0.01l0.079,0.025l0.073,0.037l0.049,0.055l0.043,0.018l0.227,0.004l0.202,0.055l0.063-0.008l0.079-0.026
	l0.062,0.004l0.058,0.025l0.066,0.04l0.102,0.045l0.133,0.029l0.136,0.003l0.111-0.038l0.016,0.321l0.082,0.231l0.023,0.053
	l0.035,0.048l0.043,0.035l0.096,0.063l0.033,0.042l0.044,0.134l0.053,0.255l0.063,0.116l0.143,0.11l0.026,0.028l0.03,0.011
	l0.123-0.013l0.047-0.013l-0.041,0.07l-0.019,0.042v0.032l0.07,0.157l0.014,0.021l-0.06,0.143l-0.004,0.021l-0.016,0.025
	l-0.01,0.049l-0.008,0.104l-0.066-0.067l-0.081,0.022l-0.077,0.066l-0.042,0.069l-0.124-0.056l-0.062-0.009l-0.08,0.022
	l-0.065,0.038l-0.264,0.222l-0.27,0.314l-0.082,0.148l-0.011,0.045l-0.014,0.041l-0.143,0.181l-0.043,0.11l-0.012,0.067l0.02,0.128
	l-0.013,0.079l-0.003,0.089l0.031,0.1l0.05,0.008l0.014,0.012l0.03,0.069l0.174,0.289l0.183,0.241l0.048,0.101l0.112,0.303v0.064
	l-0.07,0.172l-0.015,0.083l-0.028,0.023l-0.058,0.125l-0.084,0.081l-0.227,0.293l-0.063,0.143l-0.185,0.729l0.004,0.154l0.112,0.458
	l0.011,0.146l-0.005,0.066l-0.015,0.062l-0.024,0.056l-0.03,0.049l-0.137,0.1l-0.035,0.045l-0.213,0.028l-0.559,0.291l-0.096,0.016
	l-0.102-0.003l-0.099-0.016l-0.084-0.026l-0.103-0.056l-0.072-0.067l-0.022-0.08l0.036-0.087l-0.14-0.09l-0.06-0.06l-0.018-0.066
	l0.012-0.094l-0.013-0.077l-0.038-0.074l-0.07-0.082l-0.079-0.131l0.018-0.107l0.086-0.097l0.277-0.244l0.016-0.043v-0.025
	l0.026-0.059V580.1l-0.039-0.199l0.012-0.597l-0.039-0.189l-0.066-0.13l-0.101-0.09l-0.14-0.062l-0.031-0.006l-0.051-0.001
	l-0.028-0.01l-0.045-0.028l-0.017-0.02l-0.005-0.024l-0.014-0.042l0.005-0.056l0.044-0.058l0.11-0.104l0.138-0.223l0.085-0.1
	l0.141-0.075l0.238-0.076l0.043-0.032l0.038-0.052l0.052-0.107l0.016-0.143l-0.025-0.17l-0.058-0.178l-0.083-0.167l-0.055-0.072
	l-0.06-0.045l-0.063-0.018l-0.07,0.016l-0.062-0.011l-0.08-0.054l-0.364-0.323l-0.562-0.881l-0.089-0.126l-0.292-0.319l-0.188-0.103
	l-0.144-0.109l-0.13-0.049l-0.116-0.021l-0.05-0.039l-0.07-0.088l-0.077-0.09l-0.112-0.132l-0.112-0.077l-0.06-0.053l-0.241-0.38
	l0.013,0.025l-0.052-0.071l-0.035-0.034l-0.031-0.007l-0.015-0.021l-0.033-0.171l-0.064-0.079l-0.172-0.109l-0.05-0.046
	l-0.057-0.073l-0.075-0.046l-0.157-0.064l-0.148-0.103l-0.092-0.026l-0.03-0.021l-0.024-0.052l-0.037,0.039l-0.241,0.085
	l-0.049,0.069l-0.017,0.108l-0.078,0.119l-0.041,0.16l-0.05,0.049l-0.161,0.048l-0.065,0.003l-0.143-0.079l-0.041,0.006
	l-0.021,0.029l-0.028,0.024l-0.031,0.02l-0.035,0.013l-0.013-0.028l0.035-0.07l-0.097-0.084l-0.139-0.064l-0.098-0.016l-0.074-0.001
	l-0.286-0.118l-0.054-0.001l-0.05,0.029l-0.082,0.067l-0.062,0.016l-0.05-0.009l-0.075-0.065l-0.088-0.031h-0.101l-0.039-0.008
	l-0.042-0.016l-0.051,0.04l-0.068-0.02h-0.041l-0.044-0.063l0.03-0.142l-0.018-0.097l-0.053-0.061l-0.016-0.037l0.022-0.03
	l0.033-0.024l0.022-0.035l0.015-0.038l0.055-0.055v-0.051l-0.06-0.113l-0.13-0.106l-0.526-0.452l-0.146-0.101l-0.127-0.067
	l-0.116-0.049l-0.116-0.031l-0.104,0.013l-0.082,0.084l-0.06,0.109l-0.034,0.026l-0.166,0.061l-0.033,0.029l-0.08,0.17l-0.076,0.053
	l-0.098,0.012l-0.115-0.012l-0.033,0.052l-0.138,0.104l-0.039,0.081l-0.11,0.135l-0.018,0.07l-0.064-0.039l-0.043-0.082
	l-0.003-0.091l0.054-0.062l0.059-0.032l0.02-0.022l0.021-0.042v-0.058l0.068-0.174l0.083-0.079l-0.018-0.07l-0.051-0.065
	l-0.068-0.042l-0.074-0.021l-0.059,0.045l-0.062-0.002l-0.042-0.005l-0.056-0.027l-0.063-0.011l-0.085-0.044l-0.169-0.079
	l-0.075-0.02l-0.06,0.02l-0.081,0.047l-0.065,0.057l-0.016,0.058l0.007,0.091l-0.065,0.03l-0.078-0.038l-0.101,0.028l-0.093-0.013
	l-0.056,0.002l-0.037,0.028l-0.004,0.045l0.024,0.046l0.036,0.048l0.027,0.055l-0.026-0.001l-0.093,0.022l-0.032-0.02l-0.039-0.181
	l-0.088-0.139l-0.156-0.163l-0.307-0.229l-0.141-0.026l-0.055-0.022l-0.027-0.034l-0.044-0.085l-0.024-0.038l-0.151-0.129
	l-0.178-0.13l-0.293-0.16l-0.295-0.1h-0.05l-0.082,0.063l-0.047,0.019l-0.037-0.028l-0.183,0.107l-0.069,0.102l0.09,0.106
	l-0.095,0.046l-0.032,0.007l-0.041-0.019l-0.035-0.032l-0.023-0.012l-0.01,0.042l-0.023,0.008l-0.09-0.045l-0.584-0.027
	l-0.121,0.046l-0.23,0.151l-0.046,0.046l-0.081,0.119l-0.1,0.086l-0.031,0.129l-0.063,0.047l-0.084,0.008l-0.046-0.044l-0.039-0.063
	l-0.06-0.054l-0.059-0.04l-0.111-0.094l-0.067-0.046l-0.259-0.129l-0.128-0.042l-0.123-0.019l-0.072,0.006l-0.252,0.087
	l-0.049,0.009l-0.277-0.052l-0.091-0.002l-0.022,0.045l-0.004,0.053l-0.07-0.027l-0.377-0.257l-0.454-0.233l-0.451-0.164
	l-0.064-0.019l-0.094,0.007l-0.064-0.02l-0.031,0.002l-0.1,0.018h-0.029l-0.073-0.04l-0.056-0.062l-0.045-0.076l-0.035-0.084
	l-0.049-0.072l-0.07-0.069l-0.132-0.102l-0.112-0.07l-0.401-0.115l-0.043-0.007l-0.041-0.021l-0.034-0.05l-0.029-0.021l-0.096,0.021
	l-0.035-0.003l-0.062-0.032l-0.069-0.023l-0.071-0.017l-0.067-0.006l-0.238,0.101l-0.035,0.024l-0.038-0.045l-0.073-0.066
	l-0.08-0.056l-0.057-0.016l-0.047-0.048l-0.104-0.064l-0.029-0.03l-0.035-0.061l-0.05-0.061l-0.31-0.28l-0.121-0.084l-0.489-0.144
	l-0.174,0.015l-0.26-0.03l-0.088,0.003l-0.012-0.031l-0.035-0.006l-0.037,0.002l-0.036,0.01l-0.032,0.016l0.033,0.02l-0.091,0.033
	l-0.266,0.005l-0.044,0.008l-0.057,0.022l-0.046,0.032l-0.008,0.042l0.016,0.068l-0.02,0.084l0.014,0.058l-0.033-0.001l-0.031,0.011
	l-0.021,0.016l-0.002,0.009l-0.034-0.013l-0.063-0.036l-0.099,0.002l-0.058-0.033l-0.051-0.055l-0.018-0.046l0.016-0.071
	l0.038-0.031l0.103-0.003l0.069-0.03l0.021-0.087l-0.013-0.109l-0.038-0.103l-0.035-0.064l-0.107-0.081l-0.053-0.064l-0.03,0.014
	l-0.028,0.032l-0.025,0.015l-0.063-0.044l-0.06-0.068l-0.057-0.055l-0.062-0.004l-0.043-0.079l-0.101-0.033l-0.184-0.031
	l-0.037-0.042l-0.042-0.063l-0.042-0.054l-0.036-0.014l-0.034-0.006l-0.128-0.062l-0.2-0.026l-0.566,0.017l0.051-0.088l0.003-0.08
	l-0.027-0.08l-0.04-0.094l-0.001-0.032l0.011-0.025l-0.002-0.03l-0.036-0.051l-0.046-0.032l-0.052-0.014l-0.257-0.02l-0.168,0.018
	l-0.157,0.051l-0.119,0.095l0.029,0.04l0.017,0.012l-0.072,0.072l-0.084-0.041l-0.15-0.182l0.053-0.095l0.015-0.094l-0.021-0.256
	l-0.031-0.047l-0.035-0.089l-0.024-0.094l0.002-0.063l-0.055-0.063l-0.046-0.083l-0.073-0.17l-0.049-0.081l-0.067-0.07l-0.451-0.42
	l-0.305-0.197l-0.063-0.035l-0.122-0.011l-0.055-0.058l-0.195-0.293l-0.49-0.977l-0.1-0.143l-0.251-0.264l-0.147-0.116l-0.176-0.049
	l-0.158-0.126l-0.062-0.02l-0.064,0.003l-0.145-0.037l-0.069,0.005l-0.061-0.007l-0.034,0.004l-0.007,0.022l-0.002,0.027
	l-0.018,0.027l-0.029,0.016l-0.035-0.008l-0.067-0.032l-0.137-0.046l-0.072-0.036l-0.025,0.033l-0.134-0.052l-0.055,0.025
	l0.033,0.023l-0.011,0.013l-0.011,0.019l-0.01,0.013l0.027,0.029l0.029,0.02l0.031,0.009h0.032l0.01,0.024l-0.013,0.019
	l-0.004,0.016l-0.004,0.042l0.05,0.01l-0.004,0.025l-0.033,0.008l-0.04-0.05l-0.033-0.027l-0.175-0.014l-0.214-0.088l-0.042-0.007
	l-0.115-0.05l-0.038-0.007l-0.094,0.025l-0.041,0.004l-0.037-0.004l-0.156-0.088l-0.021,0.003l-0.043-0.047l-0.065-0.018
	l-0.165-0.016l-0.049-0.015l-0.043-0.029l-0.038-0.048l-0.03,0.03l-0.054,0.029l-0.057,0.011l-0.036-0.025l-0.037-0.032
	l-0.173-0.013l-0.059-0.088l-0.394-0.065l-0.129-0.039l-0.014,0.052l-0.006,0.052l0.008,0.058l0.028,0.065l-0.163-0.007
	l-0.074-0.024l-0.013-0.05l-0.096-0.079l-0.104-0.015l-0.337,0.05l-0.17-0.001l-0.11-0.02l-0.024,0.021l-0.146,0.045l-0.078,0.009
	l-0.029-0.007l-0.052-0.038l-0.209,0.053l-0.073,0.041l-0.032,0.033l-0.063,0.104l-0.02,0.047l-0.015,0.022l-0.023,0.007
	l-0.028,0.006l-0.022,0.012l-0.142,0.2l-0.05,0.027l-0.031,0.027l-0.051,0.1l-0.177,0.229l-0.036,0.109l0.047,0.078l-0.014,0.059
	v0.026l0.007,0.031l-0.005,0.014l-0.037,0.048l-0.01,0.02l0.001,0.059l0.022,0.044l0.017,0.045l-0.025,0.062l-0.065,0.065
	l-0.155,0.113l-0.072,0.083l-0.033,0.056l-0.024,0.058l-0.035,0.131l0.001,0.035l0.029,0.066l0.008,0.035l0.004,0.07l-0.005,0.061
	l-0.088,0.213l-0.016,0.117l0.08,0.071l0.009,0.027l-0.067,0.04l-0.055,0.138l-0.07,0.06l-0.017,0.028l-0.011,0.029v0.025
	l-0.004,0.039l-0.031,0.032l-0.069,0.045l-0.175,0.223l-0.507,0.313l-0.119,0.154l-0.122,0.072l-0.393,0.128l-0.079,0.058
	l-0.041,0.014l-0.033-0.013l-0.037-0.001l-0.034,0.01l-0.137-0.186l-0.053-0.104l0.017-0.104l0.086-0.192l0.029-0.12l0.116-0.188
	l0.043-0.102l0.007-0.057l-0.008-0.104l0.001-0.059l0.021-0.05l0.033-0.05l0.02-0.056l-0.021-0.077l-0.022-0.022l-0.064-0.065
	l-0.096-0.047l-0.067-0.065l-0.005-0.154l-0.105,0.015l-0.101,0.126l-0.09,0.036l-0.497,0.333l-0.131,0.038l-0.032,0.003l-0.04-0.02
	l-0.029-0.029l-0.034-0.025l-0.047-0.002l-0.088,0.013l-0.069-0.005l-0.411-0.096l-0.144-0.004l-0.223-0.039l-0.044,0.002
	l-0.042,0.018l-0.034,0.023l-0.035,0.019l-0.05-0.005l-0.04-0.021l-0.028-0.034l-0.025-0.036l-0.034-0.037l-0.041-0.024
	l-0.079-0.024l-0.039-0.02l-0.029-0.026l-0.068-0.077l-0.041-0.033l-0.097-0.06l-0.021-0.015l-0.026-0.035l-0.008-0.022v-0.028
	l-0.021-0.143l0.01-0.045l0.087-0.091l-0.107-0.041l-0.132-0.068l-0.112-0.1l-0.058-0.13l0.014-0.069l0.119-0.171l0.046-0.219
	l0.033-0.046l-0.068-0.08l-0.008-0.094l0.034-0.088l0.06-0.062l0.058-0.02l0.126-0.002l0.057-0.02l-0.038-0.05l-0.158-0.146
	l-0.025-0.033l-0.055-0.103l-0.069-0.081l0.001-0.007l-0.008-0.073l0.003-0.004l-0.007-0.021l-0.001-0.013l-0.004-0.015
	l-0.016-0.022l-0.02-0.018l-0.079-0.042l-0.182-0.015l-0.056,0.013l-0.146,0.079l-0.065,0.004l-0.262-0.056l-0.135-0.055
	l-0.087-0.074l-0.078-0.244l-0.063-0.119l-0.104-0.032l-0.114,0.025l-0.043-0.019l-0.062-0.052l-0.021-0.038l-0.009-0.034
	l-0.017-0.03l-0.065-0.026l-0.085-0.065l0.021-0.061l0.033-0.053l0.009-0.012l0.088-0.094l0.026-0.014l0.058-0.016l0.023-0.013
	l0.022-0.023l0.043-0.06l0.019-0.02l0.118-0.016l0.138,0.024l0.127,0.004l0.086-0.08l-0.003-0.027l-0.025-0.015l-0.023-0.02
	l0.005-0.042l0.02-0.018l0.074-0.022l0.026-0.018l0.033-0.054l0.021-0.111l0.027-0.05l0.096-0.084l0.101-0.064l0.029,0.002
	l0.055,0.034l0.02,0.001l0.013-0.027l0.022-0.125l0.062-0.097l-0.024-0.067l-0.063-0.075l-0.061-0.121l0.007-0.03l0.061-0.15
	l0.024-0.133l0.006-0.074l-0.017-0.055l-0.031-0.011l-0.154-0.016l-0.052-0.017l-0.043-0.042l-0.041-0.047l-0.032-0.025
	l-0.016-0.013l-0.172-0.057l-0.171-0.034l-0.046-0.056l-0.08-0.174l-0.022-0.029l-0.053-0.039l-0.019-0.034l-0.004-0.039l0.01-0.087
	l-0.003-0.026l-0.041-0.059l-0.048-0.015l-0.11,0.006l-0.054-0.018l-0.095-0.047l-0.048-0.003l-0.088,0.009l-0.105-0.035
	l-0.096-0.073l-0.098-0.169l-0.036-0.074l-0.025-0.078l-0.007-0.077l0.017-0.077l0.04-0.042l0.075-0.051l0.031,0.003l0.024,0.004
	l0.028,0.024l0.019-0.012l-0.004-0.021l-0.008-0.031l-0.006-0.023l0.021-0.01l0.077-0.022l0.059-0.039l0.059-0.058l0.046-0.071
	l0.019-0.082l-0.001-0.064l0.007-0.06l0.019-0.051l0.037-0.033l0.194,0.109l0.088,0.02l0.103-0.012l0.101-0.032l0.089-0.046
	l0.165-0.138l0.069-0.079l0.036-0.027l0.243-0.047l0.086-0.064l0.139-0.189l0.077-0.067l0.062-0.029l0.021-0.054l0.013-0.059
	l0.041-0.042l0.345-0.022l0.06,0.013l0.06,0.026l0.089,0.064l0.008,0.01l0.044,0.002l0.023-0.016l0.02-0.019l0.029-0.013
	l0.168,0.006l0.085-0.027l0.062-0.002l0.018-0.004l0.031-0.034l0.003-0.017l-0.011-0.021l-0.008-0.048l0.003-0.009l0.062-0.023
	l-0.021-0.084l0.01-0.074l0.033-0.048l0.201-0.119l0.025-0.018l0.016-0.024l0.022-0.062l-0.001-0.01l0.005-0.074l0.004-0.01
	l-0.028-0.129l-0.018-0.048l-0.012-0.052l0.007-0.052l0.022-0.032l0.06-0.028l0.03-0.022l0.094-0.155l0.016-0.161l-0.066-0.155
	l-0.154-0.143l-0.093-0.038l-0.018-0.013v-0.042l0.015-0.051l0.038-0.079l0.057-0.051l0.123-0.071l0.048-0.064l0.079-0.241
	l0.071-0.071l0.024-0.038l0.019-0.045l0.003-0.046l-0.018-0.043l-0.025-0.008l-0.019-0.015l0.006-0.063l0.04-0.088l0.067-0.071
	l0.12-0.069l0.038-0.022l0.093-0.013l0.063,0.047l0.049,0.094l0.05,0.129l0.035,0.127l0.033,0.24l0.029,0.114l0.052,0.102
	l0.059,0.059l0.073,0.026l0.093,0.006l0.099,0.014l0.119,0.059l0.298,0.216l0.035,0.006h0.066l0.173,0.035l0.055-0.016l0.018-0.02
	l0.031-0.056l0.018-0.016h0.017l0.012,0.001l0.036,0.034l0.029,0.007l0.052-0.01l0.094-0.032h0.053l0.114,0.074l-0.008,0.115
	l-0.048,0.134l-0.01,0.138l-0.004,0.025v0.012l0.053-0.014l0.054,0.002l0.21,0.033l0.026,0.01l0.03,0.02l0.055,0.059l0.089,0.076
	l0.047,0.048l0.038,0.05l0.032,0.071l0.007,0.058l0.002,0.057l0.014,0.069l0.107-0.075l0.116,0.01l0.099-0.014l0.054-0.149
	l0.022-0.171l-0.017-0.076l-0.062-0.061l-0.035-0.009l-0.072,0.01l-0.035-0.007l-0.043-0.03l-0.055-0.069l-0.046-0.022l-0.01-0.01
	l-0.006-0.008l-0.003-0.013l0.004-0.013l0.065-0.125l-0.11-0.132l-0.005-0.052l0.056-0.085l0.06-0.044l0.022-0.026l0.009-0.048
	l-0.01-0.056l-0.043-0.096l-0.009-0.057l0.025-0.103l0.167-0.22v-0.005l0.007-0.049l-0.006-0.053l0.002-0.049l0.023-0.035
	l0.031-0.028l0.021-0.043l0.012-0.055l-0.014-0.168l0.021-0.211l-0.016-0.101l-0.026-0.055l-0.099-0.139l-0.023-0.062l-0.013-0.056
	l-0.022-0.041l-0.05-0.014l-0.052-0.048l-0.016-0.113l0.014-0.122l0.038-0.071l0.14-0.067l0.066-0.006l0.022,0.054l0.104,0.046
	l0.027,0.001l0.027-0.023l0.005-0.03l-0.001-0.034l0.011-0.033l0.035-0.052l0.021-0.013l0.021,0.023l0.175,0.405l0.021,0.067
	l0.014,0.021l0.03,0.014l0.081,0.015l0.035,0.013l0.12,0.133l0.058,0.039l0.081,0.021l0.079,0.002l0.349-0.113l0.049-0.042
	l0.021-0.079l-0.011-0.033l-0.023-0.048l-0.013-0.05l0.019-0.05l0.033-0.01l0.091,0.019l0.042-0.006l0.055-0.04l0.162-0.17
	l0.122-0.067l0.062-0.016l0.067-0.005l0.093,0.022l0.048,0.062l0.034,0.084l0.055,0.088l0.069,0.042l0.158,0.063l0.058,0.062
	l0.04,0.097l0.101-0.034l0.109-0.091l0.064-0.081l0.007-0.097l-0.068-0.062l-0.172-0.081l-0.047-0.038l-0.025-0.031l-0.014-0.04
	l-0.007-0.063l0.007-0.049l0.041-0.077l0.011-0.036l-0.014-0.103l-0.04-0.038l-0.061-0.004l-0.144,0.022l-0.102-0.004l-0.07-0.042
	l0.02-0.106l-0.033-0.009l-0.023-0.018l-0.02-0.03l-0.02-0.037l-0.005-0.051l-0.035-0.093l-0.009-0.033l0.012-0.046l0.04-0.087
	l0.013-0.041l-0.018-0.152l0.001-0.035l0.022-0.026l0.252-0.179l0.077-0.027l0.063,0.022l0.024,0.046l0.019,0.094l0.031,0.042
	l0.14-0.003l0.03,0.013l0.025,0.017l0.026,0.013l0.039,0.005l0.041-0.009l0.101-0.046l0.235-0.019l0.051-0.029l0.008-0.046
	l0.007-0.037l-0.018-0.113l-0.041-0.112l-0.054-0.072l-0.084-0.031l-0.132,0.031l-0.079-0.042l-0.057-0.074l-0.002-0.045
	l0.021-0.041l0.008-0.062l-0.017-0.062l-0.021-0.048l-0.005-0.045l0.039-0.049l0.015-0.065l-0.031-0.057l-0.045-0.055l-0.031-0.062
	l0.035-0.099l0.008-0.034l-0.005-0.043l-0.039-0.144l0.127,0.045l0.13-0.03l0.27-0.188l0.051-0.024l0.05-0.003l0.28,0.053
	l0.046,0.032l-0.002,0.035l-0.046,0.076l-0.005,0.026l0.032,0.03l0.032-0.01l0.055-0.042l0.039-0.001l0.105,0.019l0.028-0.01
	l0.051-0.035l0.03-0.012l0.031,0.004l0.068,0.025l0.035,0.002l0.028-0.013l0.087-0.068l0.047-0.024l0.108-0.026l0.057-0.003
	l0.04-0.021l0.023-0.058l0.021-0.136l0.009-0.016l0.026-0.026l0.007-0.019l-0.003-0.023l-0.021-0.042l-0.004-0.018l0.003-0.151
	l-0.028-0.161l0.003-0.062l0.116-0.256l0.04-0.051l0.178-0.139l0.193-0.107l0.114-0.016l0.109,0.011l0.092-0.027l0.061-0.132v-0.001
	l0.01-0.041l0.019-0.029l0.026-0.017l0.057-0.009l0.024,0.004l0.022,0.012l0.024,0.014l0.03,0.006l0.029-0.004l0.025-0.016
	l0.021-0.024l0,0v-0.001h0.001l0.075-0.055l0.067-0.033l0.163-0.025H1061h0.004l0.023-0.006l0.021-0.011l0.058-0.016l0.124,0.035
	l0.063,0.001l0.031-0.021l0.038-0.069l0.024-0.03l0.124-0.071l0.068-0.117l0.098-0.113l0.109-0.091l0.206-0.087l0.232-0.262
	l0.045-0.028l0.128-0.079l0.078-0.002l0.021,0.054l0.022,0.059l-0.027,0.106l-0.136,0.164v0.085l0.036,0.035L1062.425,549.303z
	 M1068.591,561.835l0.11,0.012l0.088-0.051l0.017-0.11l-0.008-0.012l-0.004-0.014v-0.013l0.005-0.012v-0.007l0.005-0.05
	l-0.023-0.074l-0.039-0.064l-0.037-0.032l-0.081,0.05l-0.077,0.086l-0.019,0.043l-0.027,0.064l0.011,0.112L1068.591,561.835z
	 M1072.202,570.029L1072.202,570.029l0.004-0.001l-0.002-0.005l-0.003,0.002L1072.202,570.029L1072.202,570.029z"/></svg>