<?xml version="1.0" encoding="utf-8"?>
<!-- Generator: Adobe Illustrator 15.0.0, SVG Export Plug-In . SVG Version: 6.00 Build 0)  -->
<!DOCTYPE svg PUBLIC "-//W3C//DTD SVG 1.1//EN" "http://www.w3.org/Graphics/SVG/1.1/DTD/svg11.dtd">
<svg version="1.1" id="Ebene_1" xmlns="http://www.w3.org/2000/svg" xmlns:xlink="http://www.w3.org/1999/xlink" x="0px" y="0px"
	 width="1920px" height="1080px" viewBox="0 0 1920 1080" enable-background="new 0 0 1920 1080" xml:space="preserve">

<path fill="#F4E0B6" stroke="#FFFFFF" d="M1167.935,515.275l-0.027,0.148l-0.114,0.059l-0.045-0.018l-0.037-0.031l-0.026-0.04
	l-0.015-0.048l0.011-0.054l0.027-0.044l0.038-0.037l0.042-0.031l0.103-0.026L1167.935,515.275z M1164.48,514.348l0.276,0.111
	l0.038,0.096l0.052,0.029l0.062-0.022l0.169-0.159l0.058-0.027l0.229-0.023l0.077,0.017l0.052,0.05l-0.031,0.148l-0.267,0.229
	l0.07,0.135l0.083,0.026l0.091-0.016l0.054-0.042l-0.021-0.055l-0.047-0.069l0.063-0.018l0.162,0.007l0.083-0.018l0.079,0.005
	l0.074-0.005l0.136-0.101l0.155-0.061l0.067-0.047l0.068-0.173l0.013-0.035l0.065-0.075l0.088,0.064l0.077,0.131l0.062,0.004
	l0.046-0.026l0.031-0.018l0.119-0.009l0.239,0.036l0.079,0.002l0.067-0.033l0.066-0.054l0.065-0.02l0.073,0.07l0.077,0.185v0.141
	l-0.115,0.287l-0.061,0.149l-0.027,0.178l0.037,0.175l0.072,0.081l0.058,0.063l0.107,0.043l0.093,0.002l0.091-0.009l0.096,0.014
	l0.041,0.023l0.073,0.069l0.046,0.025l0.048,0.004l0.085-0.017l0.058,0.019l0.246,0.098l0.284-0.004l0.922-0.238l0.004,0.001
	l0.223,0.014l0.055-0.047l0.014-0.021l0.028-0.046l0.055-0.058l0.057-0.016h0.069l0.148,0.023l0.022,0.015l0.02,0.019l0.016,0.021
	l0.151,0.26l0.042,0.113l0.01,0.113l-0.013,0.105l0.014,0.035l0.11,0.184l0.015,0.053l-0.01,0.063l-0.168,0.191l-0.499,0.338
	l-0.072,0.262l0.033,0.03l0.048,0.042l0.117-0.042l0.303-0.23l0.104-0.033l0.114,0.008l0.335,0.125l0.058,0.022l0.226,0.004
	l0.082-0.025l0.127-0.039l0.213-0.108h0.137l0.287,0.106l0.144-0.013l0.127-0.067l0.069-0.019l0.08,0.009l0.169,0.057l0.072-0.001
	l0.075-0.038l0.075-0.106l0.099-0.262l0.098-0.08l0.064-0.005l0.139,0.022l0.066-0.01l0.061-0.04l0.154-0.176l0.052-0.032
	l0.07-0.014l0.072,0.013l0.059,0.047l0.016,0.064l-0.017,0.061l-0.006,0.057l0.05,0.057l0.052,0.018l0.027,0.032l0.005,0.042
	l-0.019,0.047v0l-0.164,0.22l-0.037,0.132l0.045,0.119l0.133,0.07l0.148-0.018l0.27-0.099l0.075-0.006l0.064,0.03l0.063,0.04
	l0.071,0.023l0.126,0.005l0.188-0.031l0.031-0.001l0.037,0.003l0.011,0.005l0.031,0.015l-0.014,0.034l-0.055,0.055l-0.044,0.204
	l-0.028,0.036l-0.237,0.074l-0.105,0.077l-0.01,0.114l0.098,0.1l0.129,0.002l0.136-0.036l0.112-0.01l0.135,0.077l0.103,0.082
	l0.079,0.101l0.063,0.139l0.007,0.012l0.005,0.014l0.028,0.05l0.033,0.046l0.041,0.038l0.047,0.028l0.271,0.103l-0.061,0.033
	l-0.394,0.143l-0.044,0.026l-0.025,0.031l-0.046,0.082l-0.103,0.103l-0.027,0.042l-0.029,0.073l-0.051,0.23l-0.026,0.067
	l-0.159,0.191l-0.425-0.144l-0.487-0.248l-0.152-0.054l-0.158-0.032l-0.14-0.039l-0.105-0.064l-0.062-0.101l-0.011-0.143
	l-0.003-0.04l-0.017-0.029l-0.029-0.02l-0.042-0.011l-0.101,0.001l-0.22,0.07l-0.056,0.019l-0.107,0.011l-0.101-0.006l-0.095,0.008
	l-0.187,0.104l-0.021-0.009l-0.048-0.021l-0.044-0.083l-0.041-0.229l-0.036-0.064l-0.165-0.13l0,0l0,0l-0.068-0.094l-0.053-0.057
	l-0.063-0.02l-0.1,0.015l-0.098,0.041l-0.062,0.059l-0.012,0.018l-0.257,0.382l-0.045,0.096l-0.095,0.332l-0.018,0.04l-0.017,0.042
	l-0.024,0.034l-0.035,0.023l-0.044,0.011l0,0l-0.16-0.006l-0.068,0.02l-0.137,0.106l-0.053,0.021l-0.062-0.012l-0.095-0.042
	l-0.148-0.03l-0.037-0.007l-0.051,0.089l-0.014,0.139l-0.078,0.114l-0.081,0.016l-0.055-0.041l-0.083-0.145l-0.067-0.083
	l-0.066-0.052l-0.078-0.031l-0.374-0.057l-0.043-0.006l-0.13,0.039l-0.07,0.125l-0.031,0.165l-0.009,0.022l-0.035,0.102
	l-0.072,0.105l-0.118,0.105l-0.104,0.135l-0.047,0.102l-0.103-0.031l-0.35-0.06l-0.039-0.012h-0.023l-0.016,0.009l-0.025,0.032
	l-0.016,0.011l-0.074,0.015l-0.194-0.021l-0.016,0.053l-0.027-0.01l-0.034-0.037l-0.038-0.026l-0.065,0.008l-0.043-0.002
	l-0.036-0.021l-0.058-0.04l-0.074-0.022l-0.135-0.012l-0.27,0.009l-0.334,0.075l-0.221,0.049l-0.123,0.059l-0.09,0.081l-0.122,0.188
	l-0.068,0.078l-0.04,0.065l-0.024,0.029l-0.029,0.013l-0.062-0.001l-0.032,0.017l-0.044,0.066l-0.036,0.147l-0.03,0.052
	l-0.366,0.236l-0.429,0.104l-0.302,0.151l-0.179,0.043l-0.119-0.067l0.007-0.067l0.099-0.133l-0.014-0.068l-0.051-0.023l-0.17-0.025
	l-0.08-0.035l0.017-0.08l-0.008-0.004l-0.114-0.052l-0.249-0.045l-0.129-0.002l-0.074-0.029l-0.029-0.072l-0.011-0.059l-0.074-0.164
	l-0.004-0.01l-0.021-0.022l-0.185,0.006l-0.109-0.011l-0.051-0.035l-0.002-0.187l0.024-0.091l0.055-0.063l-0.027-0.018l-0.013-0.006
	l-0.021-0.007l0.021-0.008l0.014-0.008l0.016-0.006l0.026-0.001l-0.073-0.08l-0.026-0.102l-0.001-0.229l-0.087-0.059l-0.002-0.036
	l-0.029-0.145l-0.017-0.035l-0.219-0.223l-0.059-0.048l-0.08-0.042l-0.259-0.073l-0.085-0.043l-0.082-0.065l-0.064-0.063
	l-0.068-0.056l-0.088-0.041l-0.171-0.026l-0.176,0.008l-0.162,0.045l-0.125,0.085l-0.091-0.002l-0.127-0.06l-0.114-0.089l-0.06-0.09
	l0.033-0.017l0.026-0.022l0.021-0.029l0.092-0.184l0.106-0.105l0.478-0.326l0.058-0.063l0.034-0.067l0.028-0.216l0.071-0.147
	l0.236-0.225l0.046-0.066v-0.001l0.047-0.069l0.063-0.143l0.048-0.053l0.137-0.069l0.046-0.061l0.028-0.074l0.005-0.077
	l-0.016-0.046l-0.023-0.03l-0.016-0.032l0.012-0.049l0.027-0.026l0.097-0.036l0.2-0.03l0.064-0.025l0.053-0.066l0.01-0.04v-0.038
	l0.004-0.038l0.022-0.038l0.035-0.027l0.213-0.044l0.074-0.032l0.062-0.049l0.047-0.078l0.002-0.106l0.005-0.027l0.028-0.027
	l0.035,0.013l0.041,0.027l0.036,0.012l0.067-0.034l0.009-0.069l-0.016-0.083l-0.007-0.075l0.034-0.077l0.059-0.041l0.147-0.059
	l0.387-0.345l0.059-0.073l-0.004-0.059l-0.023-0.005l-0.04-0.008l-0.138,0.044l-0.064-0.028l0.006-0.097l0.284-0.194l0.097-0.094
	l0.012-0.052l0.013-0.107L1164.48,514.348z M1165.203,515.275l0.123-0.055l-0.033-0.113l-0.116-0.07l-0.124,0.072l-0.015,0.066
	l0.033,0.055l0.062,0.036L1165.203,515.275z M1165.93,514.98l0.068-0.046l-0.006-0.063l-0.131,0.007l-0.013,0.007l-0.009,0.011
	l-0.005,0.015v0.016L1165.93,514.98z"/></svg>