<?xml version="1.0" encoding="utf-8"?>
<!-- Generator: Adobe Illustrator 15.0.0, SVG Export Plug-In . SVG Version: 6.00 Build 0)  -->
<!DOCTYPE svg PUBLIC "-//W3C//DTD SVG 1.1//EN" "http://www.w3.org/Graphics/SVG/1.1/DTD/svg11.dtd">
<svg version="1.1" id="Ebene_1" xmlns="http://www.w3.org/2000/svg" xmlns:xlink="http://www.w3.org/1999/xlink" x="0px" y="0px"
	 width="1920px" height="1080px" viewBox="0 0 1920 1080" enable-background="new 0 0 1920 1080" xml:space="preserve">

<path fill="#F4E0B6" stroke="#FFFFFF" d="M1113.664,530.064l-0.142,0.217l0.083-0.159l0.024-0.077l-0.003-0.05l-0.01-0.045
	l0.025-0.035l0.037-0.033l0.027-0.034l0.019-0.062l0.021-0.134l0.02-0.067l0.156-0.653l0.082-0.157l-0.207,0.92L1113.664,530.064z
	 M1119.779,523.421l0.396-0.209l0.148-0.162l0.077-0.05l0.122,0.004l0.071-0.123l0.057-0.049l0.053,0.021l0.045,0.009l0.107-0.094
	l0.064,0.024l-0.011,0.081l-1.182,0.584l0.003-0.035l0.012-0.009L1119.779,523.421z M1118.309,523.935l0.051,0.001l-0.064,0.028
	l-0.143,0.022l-1.057,0.444l-0.503,0.119l-0.129-0.02l-0.146-0.068l-0.061-0.046l-0.087-0.08l-0.048-0.068l0.057-0.013l0.148,0.131
	l0.114,0.083l0.112,0.036l0.143-0.01l0.951-0.365l0.386-0.149L1118.309,523.935z M1104.527,498.407l0.251-0.119l0.145-0.11
	l0.045-0.021l0.084,0.002h0.01l0.05-0.008l0.037-0.035l0.016-0.048l0.011-0.051l0.021-0.046l0.088,0.034l0.088,0.159l0.082,0.033
	l0.045-0.042l0.039-0.279l0.128-0.247l0.088-0.098l0.104-0.074l0.07-0.02l0.052,0.018l0.056,0.039l0.083,0.042l0.076,0.012
	l0.139-0.008l0.087,0.031l0.149,0.09l0.06,0.021l0.218-0.006l0.069,0.016l0.082,0.034l0.055,0.029l0.038,0.028l0.032,0.032
	l0.031,0.043l0.023,0.117l0.016,0.021l0.054,0.061l0.096,0.124l0.066,0.065l0.074,0.047l0.105,0.045l0.055,0.062l0.022,0.07
	l0.023,0.035l0.112-0.085l0.072,0.001l0.165,0.052l0.022,0.003l0.046-0.001l0.023,0.005l0.019,0.014l0.046,0.046l0.006,0.01
	l0.035-0.009l0.026-0.054l0.026-0.021l0.061-0.003l0.139,0.033h0.068l0.095,0.017l0.058,0.01l0.171,0.107l0.116,0.157l-0.008,0.173
	l-0.036,0.046l-0.134,0.1l-0.314,0.392l-0.05,0.123l0.042,0.107l0.053,0.019l0.097-0.037l0.049-0.002l0.03,0.021l0.066,0.072
	l0.034,0.029l0.038,0.018l0.178,0.042l0.067,0.033l0.066,0.052l0.064,0.08l0.024,0.045l0.027,0.083l0.02,0.042l0.031,0.037
	l0.033,0.028l0.03,0.028l0.021,0.044l-0.004,0.036l-0.041,0.05l0.006,0.031l0.03,0.024l0.047,0.016l0.078,0.011l0.051-0.002
	l0.049-0.013l0.045-0.021l0.036-0.028l0.025-0.063l0.111,0.115l0.035,0.173l-0.017,0.174l-0.063,0.197l0.216-0.051l0.063-0.029
	l0.026-0.051l0.032-0.141l0.063-0.082l0.095-0.052l0.207-0.063l0.096-0.03l0.128-0.141l0.075-0.043l0.057,0.011l0.053,0.041
	l0.053,0.051l0.063,0.041l0.059,0.009l0.05-0.015l0.176-0.118l0.13-0.162l0.126-0.228l0.057-0.151l0.032-0.032l0.059-0.01
	l0.064-0.005l0.036-0.044l0.03-0.057l0.04-0.045l0.058-0.017l0.056,0.016l0.058,0.041l0.31,0.308l0.137,0.09l0.115,0.017
	l0.081-0.055l0.126-0.158l0.083-0.057l0.056-0.02l0.059-0.007l0.051,0.027l0.03,0.082l-0.01,0.056l-0.104,0.125l0.04,0.035
	l0.057,0.078l0.019,0.026l0.034,0.034l0.037,0.009l0.064-0.029l0.041-0.002l0.064,0.027l0.036,0.042l0.028,0.051l0.045,0.057
	l0.052,0.036l0.095,0.031l0.054,0.031l0.043,0.051l0.029,0.049l0.032,0.037l0.057,0.008l0.082-0.009l0.045,0.005l0.049,0.021
	l0.097,0.091l0.062,0.101l0.064,0.08l0.105,0.03l-0.115,0.223l-0.002,0.073l0.038,0.045l0.444,0.375l0.115,0.055l0.104-0.026
	l0.057-0.029l0.062-0.02l0.067,0.003l0.078,0.038l0.083,0.076l0.053,0.063l0.057,0.047l0.095,0.021l0.068-0.002l0.065-0.011
	l0.058-0.023l0.05-0.035l0.033-0.049l0.009-0.012v-0.065l-0.01-0.069l0.002-0.08l0.013-0.023l0.043-0.038l0.014-0.024l0.005-0.049
	l-0.004-0.103l0.012-0.051l0.03-0.05l0.197-0.198l0.423-0.285l0.088-0.015l0.07,0.057l0.091-0.019l0.514,0.201l0.072-0.014
	l0.053-0.047l0.035-0.069l0.022-0.078l0.01-0.083l0.01-0.021l0.026-0.024l0.028-0.01l0.068-0.009l0.061-0.029l0.098-0.003
	l0.085-0.042l0.028-0.008l0.053-0.003l0.014,0.004l0.004,0.021l0.058,0.087l0.022,0.042l0.031,0.028l0.057,0.001l0.063-0.02
	l0.06-0.034l0.047-0.049l0.021-0.064l-0.003-0.047l-0.024-0.11l-0.005-0.053l0.009-0.052l0.2-0.546l0.105-0.181l0.142-0.135
	l0.184-0.109l0.252-0.374l0.026-0.111l0.024-0.253l0.044-0.084l0.202-0.224l0.065-0.011l0.108,0.068l0.123,0.097l0.111,0.068
	l0.277-0.064l0.134,0.022l0.124,0.151l0.045,0.108l0.024,0.045l0.033,0.037l0.035,0.013l0.145,0.019l0.489,0.173l0.128-0.008
	l0.247-0.065l0.135-0.014l0.134,0.008l0.141,0.034l0.179,0.074l0.009,0.005l0.087,0.038l0.045,0.057l0.027,0.013l0.024-0.077
	l0.048-0.151l0.021-0.035l0.029-0.016l0.063-0.006l0.028-0.016l0.047-0.169l-0.113-0.171l-0.149-0.159l-0.063-0.128l0.027-0.041
	l0.157-0.109l0.052-0.066l0.048-0.029l0.063,0.014l0.233,0.154l0.061,0.02l0.062-0.019l0.108-0.073l0.054-0.017l0.082-0.007
	l0.107-0.038l0.141-0.173l0.129-0.074l0.014-0.028l0.009-0.032l0.04-0.068l-0.002-0.014l0.006,0.01l0.077,0.057l0.052,0.054
	l0.037,0.021l0.027,0.004l0.22-0.013l0.294-0.132l0.137,0.009l0.125,0.043l0.111,0.01l0.204-0.201l0.028-0.044l0.014-0.078
	l-0.018-0.175l0.002-0.081l0.061-0.11l0.098,0.003h0.007l0.397,0.234l0.11,0.03l0.104-0.012l0.102-0.054l0.074-0.098l0.052-0.124
	l0.07-0.094l0.128-0.013l0.06-0.019l0.144-0.101l0.061,0.014l0.092,0.061l0.16,0.125l0.158,0.076l0.109-0.011l0.1-0.047l0.128-0.034
	l0.213,0.015l0.063-0.019l0.063-0.053l0.059-0.076l0.045-0.088l0.03-0.086l0.018-0.265l0.037-0.069l0.046-0.038l0.272-0.135
	l0.012,0.002l0.054,0.007l0.051,0.084l0.005,0.081l-0.044,0.132l-0.007,0.076l0.051,0.158l0.107,0.103l0.134,0.066l0.208,0.068
	l0.211,0.036l0.074,0.035l0.046,0.07l0.067,0.153l0.104,0.133l0.01,0.05l-0.028,0.08l-0.013,0.076l0.024,0.193l-0.003,0.09
	l-0.056,0.217l-0.012,0.119l0.021,0.13l0.029,0.061l0.077,0.109l0.02,0.046l-0.011,0.043l-0.034,0.035l-0.077,0.047l-0.069,0.061
	l-0.134,0.237l-0.123,0.093l-0.016,0.064l0.13,0.197l0.067,0.019l0.071-0.009l0.076,0.006l0.084,0.039l0.059,0.034l0.054,0.013
	l0.075-0.022l0.218-0.117l0.069-0.083l0.03-0.018h0.042l0.092,0.021l0.038-0.014l0.029-0.072l-0.004-0.092l0.007-0.082l0.064-0.044
	l0.094,0.021l0.054,0.072l0.025,0.101l0.005,0.1l-0.032,0.176l-0.085,0.093l-0.338,0.119l-0.051,0.049l-0.029,0.07l-0.003,0.095
	l0.013,0.057l0.018,0.054l0.008,0.049l-0.038,0.075l0.004,0.047l0.251,0.614l0.048,0.11l0.085-0.083l0.031-0.06l0.304-0.205
	l0.09-0.017l0.097,0.024l0.094,0.078l0.022,0.024l0.022,0.017l0.018,0.009l0.011,0.009l0.015,0.039l-0.016,0.026l-0.022,0.018
	l-0.008,0.011l0.051,0.052l0.046,0.01l0.041-0.001l0.205,0.102l0.099,0.071l0.058,0.034l0.048,0.011l-0.009,0.101l0.002,0.088
	l-0.047,0.277l0.245-0.035l0.042-0.047l0.084-0.152l0.061-0.033l0.081,0.032l0.051,0.076l0.022,0.092l-0.001,0.083l-0.04,0.186
	l-0.001,0.092l0.065,0.332l0.029,0.096l0.063,0.088l0.126,0.081l0.023,0.037l-0.002,0.01l-0.02,0.009l-0.108,0.137l-0.01,0.04
	l0.008,0.051l0.02,0.014l0.035,0.004l0.056,0.019l0.097,0.05l0.033,0.032l0.039,0.062l0.015,0.036l0.021,0.076l0.018,0.038
	l0.021,0.025l0.051,0.04l0.021,0.021l0.065,0.119l0.033,0.124l-0.01,0.113l-0.065,0.083l-0.285,0.14l-0.077,0.057l-0.119,0.153
	l-0.078,0.048l-0.068,0.028l-0.078,0.116l-0.05,0.048l-0.061,0.016l-0.122,0.012l-0.055,0.033l-0.317,0.328l-0.073,0.109
	l-0.044,0.043l-0.059,0.029l-0.198,0.019l-0.007,0.005l-0.386,0.304l-0.071,0.14l-0.001,0.173l0.051,0.192l0.089,0.201l0.1,0.169
	l0.021,0.079l-0.047,0.048l-0.11,0.036l-0.032,0.039l-0.017,0.073l-0.007,0.177l-0.014,0.077l-0.039,0.078l-0.44,0.49l-0.035,0.125
	l0.02,0.155l0.053,0.165l0.065,0.155l0.207,0.251l0.067,0.115l0.027,0.161l0.008,0.16l0.019,0.091l0.041,0.062l0.058,0.012
	l0.051-0.032l0.079-0.088l0.046-0.033l0.052-0.014l0.052,0.021l0.05,0.078l0.011,0.082l-0.023,0.076l-0.033,0.073l-0.021,0.069
	l0.019,0.122l0.069,0.122l0.1,0.105l0.113,0.069l0,0v0.001l-0.011,0.089l0.017,0.296l-0.051,0.109l-0.036-0.16l-0.046-0.059
	l-0.082,0.026l-0.13-0.001l-0.007,0.017l-0.004,0.021l-0.032,0.091l-0.015,0.028l-0.121,0.039l-0.072,0.037l-0.016,0.041
	l-0.242,0.14l-0.186,0.309l-0.1,0.089l-0.357,0.196l-0.059,0.1l-0.025,0.292l0.028,0.578l0.034,0.18l0.006,0.092l-0.035,0.068
	l-0.06-0.101l-0.106-0.028l-0.118,0.023l-0.093,0.05l-0.037,0.049l-0.043,0.18l-0.193,0.34l-0.037,0.042l-0.016,0.038l-0.027,0.132
	l-0.016,0.037l-0.061,0.1l-0.03,0.232l-0.069,0.076l0.086,0.069l0.029,0.107l0.014,0.12l0.042,0.108l0.057,0.113l0.029,0.134
	l-0.016,0.107l-0.075,0.032l-0.02-0.027l0.018-0.014l0.066-0.018l-0.031-0.138l-0.068-0.154l-0.048-0.065h-0.031l-0.171-0.038
	l-0.052,0.008l-0.102,0.034l-0.054,0.002l-0.022,0.058l-0.045,0.032l-0.084,0.031l-0.032,0.044l-0.007,0.048v0.042l-0.01,0.028
	l-0.161,0.127l-0.054,0.143l-0.104,0.123l-0.05,0.102l-0.028,0.113l-0.03,0.311l0.015,0.121l0.064,0.118l-0.019,0.014l-0.039-0.054
	l-0.02-0.006l-0.012,0.033l-0.018,0.03l0.015,0.025l0.003,0.009l-0.037-0.023l-0.006-0.021l-0.015-0.026l-0.013-0.018l-0.043,0.003
	l-0.009-0.001l-0.055-0.026l-0.024-0.008l-0.027-0.001l-0.067,0.016l-0.042,0.036l-0.075,0.094l-0.197,0.112l-0.285,0.327
	l-0.06,0.045l-0.104,0.25l-0.078,0.188l-0.026,0.118l-0.022,0.393l-0.024,0.138l-0.18,0.377l-0.022,0.07l-0.006,0.075l0.006,0.167
	l-0.011,0.068l-0.041,0.128l-0.01,0.066l0.056,0.582l-0.002,0.025l-0.005,0.078l0.06,0.368l0.003,0.137l-0.012,0.107l-0.075,0.113
	l-0.021,0.099l-0.07,0.085l-0.026,0.091l-0.063,0.119l-0.056,0.019l-0.017-0.042l0.011-0.153l0.045-0.123l-0.018-0.008l-0.037-0.027
	l0.2-0.28l0.078-0.167l-0.035-0.194l0.009-0.114l-0.02-0.083l-0.023-0.187l0.021-0.165l-0.009-0.087l-0.059-0.101l-0.008,0.08
	l-0.015,0.072l-0.045,0.041l-0.099-0.007l-0.083-0.064l-0.056-0.109l-0.05-0.176l-0.028,0.002l-0.042,0.028l-0.031,0.012
	l-0.026,0.001l-0.055-0.007l-0.058,0.004l-0.068-0.027l-0.073-0.046l-0.056-0.061l-0.002,0.112l0.07,0.059l0.093,0.033l0.064,0.035
	l0.042,0.041l0.033,0.018l0.029,0.024l0.031,0.065l0.01,0.056l-0.018,0.153l0.021,0.344l-0.002,0.017l-0.01,0.145l-0.058,0.155
	l-0.191,0.238l-0.022,0.02l-0.04,0.013l-0.031-0.012l-0.021-0.025l-0.016-0.011l-0.019,0.035l0.006,0.047l0.028,0.043l0.018,0.042
	l-0.07,0.133l0.002,0.023l0.001,0.096l0.013,0.045l0.026,0.04l0.025,0.026l0.058,0.049l0.182,0.225l0.051,0.045l0.065,0.041
	l0.409,0.378l0.059,0.031l0.061,0.022l0.057,0.026l0.396,0.264l0.531,0.273l1.512,0.542l0.567-0.017l0.1-0.063l0.352-0.47
	l0.024-0.078l0.015-0.127l-0.016-0.043l-0.021-0.034l-0.007-0.034l0.029-0.037l0.005-0.021l-0.001-0.087l-0.005-0.023l-0.041-0.073
	l-0.027-0.085l-0.008-0.08l0.022-0.056l0.065-0.042l0.032,0.032l0.021,0.071l0.034,0.075l0.051,0.031l0.069,0.003l0.274-0.03
	l0.123-0.043l0.077-0.091l0.001-0.155l-0.048-0.137l-0.003-0.022l0.037-0.098l0.013-0.097l0.035-0.057l0.288-0.222l0.023-0.051
	l0.015-0.066l0.048-0.019l0.053,0.03l0.026,0.082l0.031-0.026l0.011-0.036l0.006-0.039l0.019-0.032l0.054-0.027l0.12-0.008
	l0.061-0.028l0.12-0.15l0.058-0.03l0.125,0.035l0.072,0.005l0.029-0.042l0.011-0.083l0.035-0.041l0.056-0.009l0.069,0.016
	l0.137,0.089l0.082,0.071l0.01,0.054l-0.063,0.086l-0.029,0.026l-0.034,0.014l-0.105,0.018l-0.064,0.037l-0.04,0.049l-0.004,0.063
	l0.041,0.082l0.029,0.019l0.026,0.002l0.02,0.011l0.006,0.044l-0.012,0.029l-0.054,0.048l-0.017,0.027l0.003,0.074l0.027,0.097
	l0.038,0.093l0.138,0.23l0.056,0.079l0.072,0.065l0.127,0.024l0.074,0.029l0.035,0.059l-0.008,0.059l-0.132,0.209l-0.216,0.186
	l-0.021,0.029l-0.013,0.037l0.006,0.029l0.032,0.073l0.005,0.025l-0.042,0.051l-0.259,0.124l-0.21,0.021l0.02,0.027l-0.105,0.026
	l-0.013,0.101l0.019,0.117l-0.006,0.072l-0.202,0.138l-0.149,0.167l-0.068,0.015l-0.082-0.064l-0.043-0.025l-0.144-0.036
	l-0.052-0.006l-0.24,0.021l-0.235,0.067l-0.122,0.066l-0.109,0.084l-0.088,0.102l-0.058,0.116l-0.053,0.212v0.047l0.023,0.047
	l0.01,0.04l0.012,0.034l0.036,0.032l0.026,0.005l0.099-0.022l0.016,0.022l-0.022,0.041l-0.087,0.058l-0.028,0.044l0.001,0.065
	l0.029,0.05l0.098,0.097l-0.191-0.004v0.022l-0.012,0.038l-0.006,0.03l-0.091,0.009l-0.021,0.063l0.028,0.164l-0.015,0.077
	l-0.091,0.11l-0.027,0.055l0.022,0.166l0.062,0.2l0.012,0.167l-0.123,0.065l-0.055-0.019l-0.06-0.033l-0.062-0.021l-0.063,0.02
	l-0.089,0.06l-0.023,0.024l-0.018,0.038l-0.007,0.034l-0.002,0.033l-0.009,0.033l-0.039,0.043l-0.098,0.042l-0.018,0.053
	l-0.028,0.048l-0.199,0.102l-0.066,0.103l-0.091,0.257l-0.064,0.117l-0.172,0.197l-0.057,0.101l-0.014,0.116l-0.009-0.008
	l-0.007-0.009l-0.006-0.003l-0.011,0.01l0.004,0.222l0.005,0.035l-0.002,0.051l0.023,0.22l0.09,0.341l0.009,0.065l-0.017,0.024
	l-0.063,0.035l-0.036,0.028l-0.03,0.016l-0.009,0.011l-0.003,0.022l0.006,0.012l0.009,0.011l0.005,0.019l0.01,0.128l-0.013,0.053
	l-0.104,0.116l-0.002,0.063l0.016,0.073l0.008,0.086l-0.007,0.05l-0.044,0.126l-0.027,0.037l-0.052,0.052l-0.183,0.339l-0.047,0.045
	l-0.065,0.033l-0.208,0.053l-0.031,0.025l-0.04,0.058l-0.024,0.026l-0.174,0.12l-0.062,0.023l-0.261,0.049l-0.059-0.008
	l-0.063-0.059l-0.039-0.022l-0.148-0.045l-0.048-0.004l-0.044,0.037l-0.044,0.057l-0.052,0.044l-0.073-0.004l-0.057-0.011
	l-0.414,0.001l-0.05-0.03l-0.031-0.041l-0.002-0.002l0.017,0.004l0.066-0.074l0.013-0.028l0.027-0.084l0.019-0.023l0.059-0.036
	l0.025-0.022l0.012-0.029l0.027-0.04l0.13-0.099l0.037-0.06l-0.046,0.012l-0.095,0.045l-0.037-0.004l-0.041-0.052l-0.009-0.062
	l0.003-0.062l-0.005-0.055l-0.031-0.066l-0.031-0.037l-0.077-0.056l-0.088-0.089l-0.052-0.045l-0.055-0.031l0.008-0.031v-0.02
	l-0.007-0.025l-0.035-0.087l-0.023-0.082l0.002-0.072l0.073-0.108l-0.003-0.066l-0.027-0.076l-0.041-0.08l-0.061-0.083l-0.128-0.124
	l-0.05-0.057l-0.022-0.017l-0.11-0.06l-0.032-0.027l-0.075-0.088l-0.145-0.121l-0.125-0.04l-0.255,0.011l-0.233-0.029l-0.057,0.013
	l-0.094,0.091l-0.069,0.107l-0.052,0.119l-0.046,0.06l-0.051-0.016l-0.06-0.035l-0.075,0.011l-0.138,0.049l-0.064-0.01l-0.17-0.05
	l-0.089,0.008l-0.044-0.017l-0.066-0.034l-0.036-0.001l-0.059,0.014l-0.03,0.002l-0.273-0.027l-0.135,0.003l-0.134,0.032
	l-0.403,0.238l-0.049,0.048l-0.021,0.058l-0.021,0.165l-0.021,0.047l-0.183,0.131l-0.067,0.02l-0.121,0.015l-0.063,0.032
	l-0.207-0.153l-0.046-0.044l-0.033-0.123l0.019-0.138l0.14-0.451l0.04-0.05l0.055-0.047l0.037-0.048l0.024-0.052l0.016-0.056
	l0.004-0.044l-0.002-0.036l0.007-0.033l0.034-0.035l0.029-0.013l0.062-0.017l0.032-0.016l0.027-0.038l-0.016-0.032l-0.031-0.029
	l-0.024-0.024l-0.017-0.036l-0.004-0.026v-0.039l0.021-0.137l0.091-0.246l0.384-0.687l0.016-0.049l-0.02-0.054l-0.021-0.005
	l-0.033,0.004l-0.034-0.008l-0.023-0.042l0.008-0.036l0.034-0.002l0.08,0.026l0.126-0.012l0.081-0.075l0.102-0.251l0.063-0.107
	l-0.003-0.034l0.015-0.143l0.027-0.044l0.057-0.148l0.026-0.044l0.024-0.005l0.069,0.001l0.036-0.015l0.023-0.022l0.048-0.064
	l0.006-0.123l0.027-0.072l0.02-0.033l0.022-0.023l0.03-0.012l0.038-0.006l0.037,0.003l0.024,0.018l0.026,0.009l0.029-0.018
	l0.049-0.048l-0.027-0.046l-0.066-0.083l-0.041-0.072l0.05-0.01l0.026-0.055l0.068-0.086l0.025-0.06l-0.076-0.007l-0.065,0.009
	l-0.17,0.067l-0.06,0.051l-0.02,0.034l-0.002,0.036l-0.009,0.024l-0.048-0.002l0.002-0.099l-0.009-0.058l-0.021-0.014l-0.038,0.01
	l-0.023-0.029l-0.013-0.047l-0.004-0.044l-0.021-0.024l-0.121-0.104l-0.033-0.038v-0.06l-0.006-0.061l-0.051-0.045l-0.182-0.095
	l-0.069-0.008l-0.045,0.07l-0.022,0.087l-0.004,0.088l0.035,0.057l0.098-0.004l0.02,0.028l-0.063,0.053l-0.05,0.068l0.009,0.064
	l0.107,0.042l-0.027,0.017l-0.069,0.015l-0.153,0.113l-0.035-0.003l-0.153-0.052l-0.109-0.012l-0.076,0.035l0.002,0.112
	l-0.025-0.009l-0.015,0.003l-0.012,0.009l-0.02,0.007l0.013-0.073l-0.008-0.07l-0.034-0.038l-0.067,0.022l-0.18,0.172l-0.016-0.063
	l-0.022-0.053l-0.156-0.276l-0.013,0.106l0.028,0.134l0.016,0.131l-0.051,0.1l-0.016,0.019l-0.02,0.041l-0.025,0.02l-0.031,0.007
	l-0.082-0.002l-0.198,0.03l0.097,0.09l-0.002,0.076l-0.231,0.237l-0.035,0.024l-0.023,0.009l-0.032,0.001l-0.018,0.009l-0.057,0.045
	l-0.022,0.012l-0.171,0.051l-0.063,0.037l-0.03,0.037l-0.061,0.116l-0.276,0.285l-0.021,0.029l-0.013,0.037l-0.011,0.076
	l-0.008,0.028l-0.091,0.088l-0.61,0.209l-0.083-0.001l-0.029,0.026l-0.018,0.004l-0.016-0.011l-0.04-0.042l-0.016-0.014
	l-0.029-0.021l-0.046-0.043l-0.028-0.013l0.018-0.079l-0.001-0.033l-0.019-0.041l-0.052,0.088l-0.061,0.055l-0.073,0.032
	l-0.143,0.039l-0.039,0.018l-0.045,0.005l-0.185-0.064l-0.112-0.012l-0.059,0.088l-0.172,0.021l-0.319-0.02l0.024,0.045l0.043,0.044
	l0.035,0.038l-0.008,0.031l-0.164,0.106l-0.057,0.015l-0.056-0.001l-0.061-0.014l-0.052-0.05l-0.003-0.073l0.024-0.074l0.027-0.051
	l0.049-0.043l0.16-0.066l0.166-0.17l0.011-0.032l0.048-0.219l0.024-0.029l0.035-0.022l0.009-0.023l-0.052-0.031l-0.225-0.081
	l-0.052,0.011l-0.087,0.075l-0.123,0.06l-0.45,0.095l-0.068,0.025l-0.058,0.036l-0.026,0.047l-0.009,0.069v0.031l0.009,0.035
	l0.021,0.039l0.082,0.115l-0.163-0.118l-0.035-0.009l-0.046,0.011l-0.502-0.104l-0.1-0.06l0.126,0.01l0.115,0.028l0.05-0.007
	l0.418-0.341l0.103-0.033l0.206-0.011l0.012-0.003l0.033-0.008l0.214-0.15l0.25-0.104l0.128-0.127l0.053-0.034l0.318-0.132
	l0.2-0.005l0.12-0.049l0.104-0.087l0.066-0.112l0.017-0.125l-0.094-0.035l0.003-0.146l0.07-0.278l0.025-0.066l0.105-0.097
	l0.023-0.061l0.01-0.07l0.019-0.057l0.012-0.062l-0.013-0.083l-0.039,0.072l-0.034,0.099l-0.043,0.085l-0.067,0.031l-0.201,0.438
	l-0.167,0.156l-0.23,0.023l-0.083-0.037h-0.021l-0.021,0.031l-0.007,0.082l-0.014,0.028l-0.026,0.024l-0.036,0.052l-0.023,0.022
	l-0.008,0.119l-0.061-0.013l-0.129-0.112l-0.062-0.001l-0.176,0.077l-0.058,0.008l-0.062-0.016l-0.085-0.038l-0.083-0.05
	l-0.056-0.054l-0.057-0.064l-0.062-0.039l-0.063-0.033l-0.068-0.047l-0.115-0.149l-0.032-0.149l-0.007-0.156l-0.037-0.167
	l-0.038-0.083l-0.04-0.057l-0.053-0.019l-0.141,0.065l-0.045-0.014l-0.026-0.054l-0.003-0.168l-0.008-0.054l-0.032-0.017
	l-0.075,0.038l-0.095,0.097l-0.051,0.028l-0.067-0.015l-0.037-0.208l-0.054-0.098l-0.101-0.072l-0.059-0.008l-0.037,0.013
	l-0.036,0.001l-0.059-0.044l-0.055-0.066l-0.028-0.04l-0.029-0.022l-0.061-0.015l-0.196,0.031l-0.053-0.029l-0.039-0.084
	l-0.022-0.026l-0.033,0.006l-0.001,0.021l0.012,0.092l0.005,0.027l0.045,0.032l0.067,0.016l0.07-0.001l0.13-0.048l0.056,0.027
	l0.146,0.221l0.024,0.013l0.072-0.027l0.029,0.005l0.024,0.009l0.019-0.001l0.051,0.007l0.023,0.076l0.006,0.087l-0.001,0.039
	l0.097,0.183l0.103-0.02l0.102-0.094l0.093-0.043l-0.016,0.137l0.007,0.083l0.03,0.072l0.064,0.05l0.055-0.017l0.041-0.059
	l0.028-0.07l0.066,0.074l0.053,0.127l0.02,0.131l-0.025,0.081l-0.049,0.063l-0.016,0.092l0.024,0.104l0.067,0.099l0.184,0.065
	l0.026,0.02l0.094,0.179l0.051,0.058l0.032,0.021l0.02,0.022l0.01,0.064l-0.003,0.036l-0.028,0.078l-0.02,0.035l-0.095,0.1
	l-0.119,0.06l-0.31,0.074l-0.141,0.118l-0.027,0.055l0.013,0.065l0.007,0.064l-0.05,0.047l-0.029,0.003l-0.058-0.01l-0.027,0.009
	l-0.05,0.041l-0.031,0.017l-0.029,0.001l-0.045-0.046l-0.019-0.081l-0.022-0.338l-0.019-0.104l-0.025-0.037l0.013-0.05l-0.005-0.258
	l-0.063-0.028l-0.005,0.037l0.02,0.066l0.014,0.06l-0.009,0.029l-0.033,0.055l-0.011,0.028l-0.002,0.029l0.004,0.112l0.006,0.016
	l-0.001,0.017l-0.022,0.028l-0.046,0.001l-0.056-0.006l-0.1-0.066l-0.058-0.029l-0.051,0.011l0.092,0.075l0.021,0.021l0.042,0.051
	l0.03,0.011l0.03-0.003l0.122,0.011l0.029,0.021l0.012,0.061l0.005,0.11l0.006,0.016l-0.019,0.06l0.01,0.2l-0.01,0.054l-0.042,0.046
	l-0.07,0.14l-0.016,0.056l-0.047,0.005l-0.078,0.039l-0.047-0.001v0.041l-0.07-0.001l-0.208,0.074l-0.068,0.047l-0.101,0.132
	l-0.124,0.112l-0.081,0.107l-0.05,0.045l-0.012,0.031l-0.024,0.092l-0.023,0.013l-0.037,0.006l-0.025,0.036l-0.078,0.209
	l-0.025,0.03l-0.122,0.047l-0.026,0.017l-0.013,0.048l-0.003,0.159l0.005,0.042l0.042,0.044l0.104,0.065l0.068,0.066l0.01-0.007
	l0.03,0.006l0.027,0.013l-0.006,0.021l-0.002,0.012l0.004,0.025l0.007,0.027l0.052,0.129l0.004,0.02l-0.01,0.214l-0.017,0.069
	l-0.145,0.082l-0.006,0.04l0.025,0.012l0.085,0.001l0.039,0.02l0.026,0.041l0.012,0.043l0.026,0.2l-0.006,0.382l0.015,0.146
	l-0.002,0.076l-0.025,0.049l-0.002,0.046l0.046,0.182l0.012,0.069l-0.111,0.523l-0.029,0.575l-0.048,0.247l-0.083,0.25l-0.025-0.054
	l-0.152-0.202l-0.025,0.005l-0.007,0.041l0.003,0.049l0.017,0.052l0.056,0.106l0.013,0.028l0.006,0.031l0.013,0.021l0.004,0.017
	l-0.018,0.019l-0.012-0.004l-0.024-0.004l-0.019,0.004l0.002,0.021l-0.014,0.027l-0.183-0.019l-0.08,0.012l-0.037,0.069l0.028,0.088
	l0.053,0.097l0.042,0.095l-0.053-0.027l-0.05-0.015l-0.019-0.028l-0.008-0.051l-0.025-0.016l-0.016,0.025l0.014,0.064l0.039,0.066
	l0.044,0.043l0.046,0.026l0.042,0.014l0.05,0.115l-0.036-0.028l-0.037-0.012l-0.082-0.005l-0.016-0.011l-0.008-0.019l-0.012-0.013
	l-0.024,0.01l-0.011,0.017l0.004,0.023l0.007,0.021l-0.002,0.012l-0.061,0.042l-0.061,0.059l-0.03,0.075l0.031,0.087l0.052,0.037
	l0.051,0.002l0.085-0.02l0.066,0.016l0.034,0.017l-0.004,0.021l-0.032,0.048l-0.018,0.064l-0.03,0.05l-0.07,0.011l0.009,0.028v0.013
	l0.008,0.01l0.032,0.024l-0.023,0.047l-0.057,0.074l-0.012,0.053l-0.061-0.101l-0.094-0.083l-0.099-0.047l-0.079,0.007l-0.012-0.033
	l-0.13-0.168l-0.021-0.072l-0.003-0.041l-0.01-0.024l-0.049-0.029l-0.027-0.013l-0.013-0.002l-0.013,0.001l-0.083-0.012
	l-0.026-0.008l-0.033-0.025l-0.009,0.011v0.027l0.013,0.033l0.024,0.021l0.068,0.025l0.02,0.012l0.01,0.036l-0.006,0.098
	l0.016,0.056l0.034,0.06l0.025,0.025l0.03,0.017l0.046,0.032l-0.044,0.129l0.079,0.158l0.123,0.177l0.084,0.188l0.087-0.009
	l0.045-0.012l0.053-0.027l0.041-0.042l0.021-0.051l0.023-0.113l-0.007,0.063l0.003,0.193l-0.015,0.052l-0.017,0.034l0.007,0.046
	l0.01,0.044l-0.006,0.025l-0.03,0.042l0.022,0.032l0.098,0.063l0.04,0.014h0.042l0.024-0.024l-0.012-0.039l-0.034-0.042
	l-0.019-0.042l0.035-0.039l0.057,0.087l0.019,0.012l0.014-0.014l0.005-0.021l-0.011-0.014l0.027-0.007l0.018-0.018l0.025,0.003
	l0.052,0.055l-0.021-0.068l-0.027-0.072l0.002-0.042l0.068,0.021l0.059,0.049l0.05,0.071l0.013,0.064l-0.056,0.028l0.063,0.02
	l0.067,0.055l0.062,0.077l0.11,0.157l0.018,0.035l0.011,0.038l0.012,0.066l0.016,0.034l0.028,0.11l0.02,0.043l0.023,0.029
	l0.007,0.004l-0.002,0.006l-0.018,0.084l-0.027,0.053l-0.039,0.043l-0.045,0.017l0,0l-0.005-0.035l-0.012-0.032l-0.021-0.025
	l-0.03-0.014l-0.035-0.13l-0.108-0.139l-0.127-0.101l-0.092-0.017l-0.042,0.003l-0.193-0.032l-0.446,0.104l-0.213,0.109
	l-0.031,0.008l-0.038,0.003l-0.031,0.013l-0.014,0.032l-0.004,0.029l-0.007,0.034l-0.013,0.031l-0.018,0.024l-0.053,0.036
	l-0.047,0.02l-0.043,0.028l-0.036,0.068l-0.016,0.061l-0.006,0.042l0.007,0.034l-0.005,0.02l-0.061,0.045l-0.016,0.023l-0.012,0.064
	l-0.032,0.049l-0.086,0.101l-0.062,0.2l-0.024,0.041l-0.057,0.041l-0.018,0.021l-0.011,0.026l0.005,0.042l0.038,0.079l0.005,0.034
	l-0.046,0.062l-0.071,0.003l-0.072-0.02l-0.049-0.003l-0.066,0.028l-0.1-0.007l-0.05,0.011l-0.059,0.063l0.031,0.056l0.04,0.055
	l-0.051,0.087l0.014,0.032l0.029,0.029l0.03,0.02l0.028,0.006l0.096-0.013l-0.007,0.053l-0.023,0.036l-0.081,0.055l-0.09,0.076
	l-0.398,0.143l-0.291,0.021l-0.271,0.088l-0.124,0.004l-0.053,0.017l-0.085-0.002l-0.11-0.062l-0.204-0.157l-0.034-0.084
	l-0.096-0.039l-0.104,0.004l-0.055,0.045l-0.005,0.004l-0.063-0.022l-0.011-0.031l-0.012-0.059l-0.005-0.059l0,0v-0.001l0.071-0.195
	l0,0l0.195-0.104l0.23-0.072l0.172-0.099l0.039-0.062l-0.018-0.052l-0.099-0.119l-0.009-0.003l-0.005-0.01l-0.004-0.037v-0.007
	l0.007-0.024l0.048-0.079l-0.067-0.026l-0.045-0.046l-0.037-0.05l-0.049-0.043l-0.056-0.014l-0.056,0.001l-0.04-0.012l-0.01-0.055
	l0.003-0.132l0.01-0.05l0.024-0.059l0.061-0.073l-0.003-0.041l-0.037-0.035l-0.025-0.024l-0.004-0.098l0.164-0.128l0.042-0.084
	l-0.014-0.042l-0.028-0.038l-0.028-0.031l-0.013-0.022l0.009-0.029l0.065-0.066l0.03-0.062l0.012-0.053l-0.013-0.062l-0.045-0.078
	l-0.051-0.057l-0.118-0.108l-0.038-0.065l-0.006-0.074l0.025-0.06l0.374-0.413l0.044-0.073l-0.041-0.078l-0.15-0.136l-0.065-0.09
	l-0.02-0.073l0.024-0.16l-0.007-0.14l-0.025-0.11l-0.067-0.074l-0.106-0.021l-0.139-0.028l0,0l-0.082-0.032l-0.034-0.051
	l-0.017-0.066l-0.029-0.079l-0.04-0.059l-0.159-0.15l-0.107-0.126l-0.053-0.118l-0.001-0.117l0.107-0.256l0.069-0.094l0.036-0.05
	l0.142-0.278l0.052-0.034l0.004,0l0.074,0.026l0.068,0.071l0.208,0.321l0.022,0.048l0.007,0.047v0.049l0.006,0.048l0.025,0.039
	l0.067,0.011l0.035-0.073l0.025-0.167l0.023-0.032l0.021-0.005l0.01-0.014l-0.014-0.061l-0.021-0.035l-0.061-0.07l-0.022-0.052
	l-0.004-0.107l0.045-0.01l0.143,0.092l0.091,0.04l0.031-0.022l-0.002-0.249l0.013-0.085l0.033-0.063l0.002-0.003l0.065-0.029
	l0.028,0.015l0.021,0.021l0.013,0.03l0.003,0.036l0.006,0.039l0.013,0.033l0.022,0.026l0.032,0.018l0.05-0.009l0.09-0.037
	l0.046-0.009l0.057,0.009l0.089,0.06l0.065,0.025l0.057-0.001l0.046-0.024l0.031-0.043l0.012-0.06l-0.021-0.074l-0.073-0.084
	l0.003-0.035l0.07-0.048l0.038-0.055l-0.007-0.075l-0.068-0.107l0.07,0.037l0.219,0.042l0.108,0.052l0.032,0.023l0.027,0.032
	l0.046,0.074l0.021,0.022l0.089,0.025l0.044-0.042l0.039-0.149l0.028-0.057l0.035-0.037l0.313-0.183l0.1-0.094l0.023-0.112
	l-0.015-0.158h-0.049l-0.046,0.021l-0.034,0.033l-0.01,0.039l-0.077-0.023l-0.18-0.018l-0.002-0.046l-0.073-0.044l-0.032-0.012
	l-0.029-0.003l-0.016,0.01l-0.019,0.041l-0.012,0.017l-0.015-0.001l-0.036-0.028l-0.011-0.006l-0.145,0.026l-0.065-0.021
	l-0.062-0.079l0.04-0.034l0.05-0.048l-0.024-0.102l-0.028-0.032l-0.082-0.057l-0.035-0.033l-0.03-0.051l-0.016-0.042l-0.009-0.042
	l-0.018-0.051l-0.133-0.25l-0.048-0.068l-0.03-0.021l-0.063-0.036l-0.028-0.022l-0.024-0.032l-0.053-0.083l-0.023-0.021
	l-0.038,0.002l-0.016,0.029l-0.014,0.031l-0.023,0.013l-0.026-0.012l-0.064-0.056l-0.029-0.019l-0.111-0.014l-0.078,0.038
	l-0.07,0.056l-0.088,0.042l-0.069-0.004l-0.124-0.061l-0.068-0.015l-0.048,0.01l-0.088,0.048l-0.051,0.011l-0.034-0.005l-0.07-0.021
	l-0.031,0.003l-0.06,0.048l-0.017,0.006l-0.05-0.028l-0.03-0.052l-0.002-0.011l-0.022-0.057l-0.071-0.155v-0.061l0.008-0.056
	l-0.015-0.064l-0.04-0.057l-0.052-0.04l-0.054-0.021l-0.049-0.001l-0.045,0.036l-0.002,0.063l0.01,0.064l-0.013,0.041l-0.037-0.009
	l-0.173-0.099l-0.014-0.009l-0.009-0.01l-0.007-0.014v-0.014l0.065-0.054l0.044-0.052l0.007-0.07l-0.045-0.104l-0.154-0.183
	l-0.044-0.088l0.041-0.075l-0.014-0.085l-0.06-0.088l-0.079-0.073l-0.077-0.044l-0.066-0.01l-0.06,0.014l-0.053,0.028l-0.047,0.041
	l0.013,0.076l0.025,0.065l0.017,0.065l-0.015,0.073l-0.033,0.04l-0.044,0.022l-0.05,0.005l-0.054-0.008l-0.054-0.028l-0.018-0.009
	l-0.042-0.049l-0.037-0.055l-0.051-0.052l-0.064-0.028l-0.051,0.007l-0.045,0.017l-0.049,0.002l-0.046-0.028l-0.042-0.038
	l-0.043-0.03l-0.11-0.002l-0.097-0.052l-0.049,0.004l-0.03,0.046l0.003,0.057l-0.012,0.04l-0.068-0.007l-0.047-0.026l-0.113-0.09
	l-0.016-0.01l-0.039-0.023v-0.001l0,0h-0.002l-0.129-0.133l-0.031-0.122l0.008-0.132l-0.01-0.159l-0.066-0.162l-0.088-0.134
	l-0.063-0.129l0.012-0.148v-0.069l-0.037-0.035l-0.052-0.009l-0.106,0.023l-0.04-0.009l-0.027-0.042l-0.021-0.083l0.003-0.063
	l0.014-0.083l0.004-0.079l-0.025-0.059l-0.037-0.002l-0.118,0.034l-0.053-0.005l-0.056-0.043l-0.105-0.119l-0.059-0.046l-0.06-0.031
	l-0.05-0.01l-0.044,0.009l-0.045,0.026l-0.055,0.092l-0.015,0.22l-0.079,0.077l-0.097,0.018l-0.055-0.005l-0.08-0.008l-0.138-0.038
	l-0.109-0.059l-0.033-0.019l-0.067-0.013l-0.032-0.015l-0.02-0.02l-0.072-0.096l-0.102-0.074l-0.023-0.022l-0.019-0.025
	l-0.023-0.025l-0.036-0.02l-0.101-0.004l-0.101,0.042l-0.176,0.11l-0.292,0.048l-0.084,0.048l-0.039,0.062l0.042,0.169v0.001
	l0.008,0.017l0.027,0.075l0.039,0.067l0.014,0.042l-0.024,0.02l-0.074-0.005l-0.051-0.012l-0.167-0.108l0.012-0.075l-0.033-0.061
	l-0.056-0.037l-0.058-0.003l-0.053,0.045l-0.004,0.066l0.01,0.077l-0.01,0.07l-0.046,0.044l-0.048-0.014l-0.039-0.05l-0.017-0.065
	l0.01-0.073l0.02-0.047l0.007-0.053l-0.033-0.09l-0.051-0.071l-0.046-0.014l-0.046,0.021l-0.106,0.087l-0.025,0.056l-0.018,0.062
	l-0.033,0.066l-0.05,0.051l-0.052,0.014l-0.055-0.028l-0.055-0.069l-0.058-0.053l-0.037,0.033l-0.035,0.117l-0.033,0.036
	l-0.057,0.033l-0.055-0.006l-0.046-0.184l-0.057-0.061l-0.071-0.023l-0.067,0.007l-0.143,0.066l-0.098,0.046l-0.128,0.022
	l-0.109-0.055l-0.031-0.006l-0.056-0.026l-0.101-0.047l-0.064-0.019l-0.238-0.022l-0.108,0.012l-0.311,0.199l-0.065,0.006
	l-0.07-0.099l-0.058,0.026l-0.037,0.086l-0.026,0.027l-0.104,0.063v0.001l-0.007,0.118l-0.071,0.228l-0.029,0.048l-0.041,0.009
	l-0.114-0.026l-0.056,0.017l-0.063,0.105l-0.028,0.261l-0.002,0.026l-0.064,0.11l-0.086,0.047l-0.334,0.061l-0.073-0.003
	l-0.031,0.01l-0.022,0.026l0.015,0.03l0.027,0.029l0.015,0.027l0.012,0.015l0.021,0.016l0.016,0.019l-0.009,0.017l-0.035,0.013
	l-0.025,0.02h-0.023l-0.021,0.007l-0.008,0.042l-0.085,0.076l-0.12-0.001l-0.127-0.024l-0.107,0.013l-0.021,0.026l0.006,0.03
	l0.011,0.034l-0.009,0.037l-0.017,0.009l-0.053,0.008l-0.013,0.01l-0.004,0.055l0.022,0.034l0.044,0.038l0.06,0.067l0.046,0.073
	l0.02,0.057l-0.013,0.045l-0.048,0.034l-0.062,0.007l-0.056-0.023l-0.056-0.032l-0.059-0.02l-0.062,0.011l0.006,0.042l0.017,0.058
	l-0.051,0.105l0.001,0.064l0.021,0.072l0.018,0.033l-0.056,0.085l-0.274,0.268l-0.037,0.036l-0.115,0.078l-0.037,0.038l-0.059,0.094
	l-0.034,0.041l-0.05,0.023l-0.026,0.003l0.059,0.141l0.056,0.087l0.047,0.14l0.031,0.147l0.011,0.107l-0.009,0.055l-0.032,0.098
	l-0.007,0.061l0.023,0.167l-0.001,0.055l-0.087,0.129l-0.059,0.036l-0.187,0.114l-0.133,0.147l-0.13,0.06l-0.038,0.034l-0.057,0.082
	l-0.124,0.098l-0.128,0.17l-1.178,0.881l-0.064,0.143l-0.004,0.571l-0.046,0.169v0.001v0.001l-0.119,0.166l-0.175,0.147
	l-0.031,0.026l-0.074,0.064l-0.068-0.006l-0.116-0.062l-0.181-0.111l-0.059-0.027l-0.058-0.013l-0.257,0.035l-0.12-0.006
	l-0.076-0.028l-0.04-0.042l-0.032-0.051l-0.053-0.053l-0.07-0.029l-0.097-0.017l-0.135-0.003l-0.027-0.001l-0.06,0.016l-0.145,0.085
	l-0.169,0.047l-0.048,0.03l-0.041,0.068l-0.05,0.147l-0.125,0.077l-0.123,0.188l-0.059,0.029l-0.187,0.026l-0.002,0.005
	l-0.052,0.017l-0.147-0.04l-0.064,0.004l-0.15,0.037l-0.06-0.008l-0.085,0.042l-0.199,0.256l-0.055,0.032l-0.053-0.05l-0.207-0.054
	l-0.055,0.001l-0.176,0.111l-0.064,0.024l-0.129,0.022l-0.179,0.073l-0.059,0.01l-0.087,0.072l-0.025,0.025l-0.014,0.04l0.004,0.033
	l-0.001,0.03l-0.005,0.027l-0.004,0.011l-0.005,0.013l-0.053,0.033l-0.218,0.007h-0.004l-0.005,0.002l-0.003,0.001l-0.003,0.004
	l-0.017,0.019l-0.019,0.013l-0.021,0.008l-0.023,0.003l-0.099-0.039l-0.185-0.041l-0.181-0.073l-0.063-0.01l-0.218,0.035
	l-0.063,0.024l-0.039,0.055l-0.007,0.109l0.045,0.217l0.002,0.088l-0.062,0.151l-0.038,0.029l-0.051,0.01l-0.055-0.004l-0.057-0.007
	l-0.058,0.004l-0.039,0.024l0.005,0.06l0.067,0.069l0.007,0.066l-0.029,0.057l-0.044,0.046l-0.14-0.028l-0.049-0.036l0.014-0.082
	l-0.029-0.064l-0.004-0.048l-0.014-0.046l-0.06-0.066l-0.057-0.041l-0.06-0.026l-0.118-0.032l-0.124-0.004l-0.02-0.013l-0.058-0.005
	l-0.038,0.037l-0.028,0.053l-0.04,0.042l-0.188,0.101l-0.024,0.039l-0.007,0.001l-0.022-0.007l-0.097-0.071l-0.105-0.108
	l-0.08-0.064l-0.338-0.158h-0.014l-0.012,0.002l-0.011,0.009l-0.035,0.053l-0.04,0.025l-0.046,0.013l-0.063,0.006l-0.013,0.004
	l-0.01,0.007l-0.008,0.011l-0.012,0.028l-0.017,0.017l-0.021,0.006l-0.027-0.01l-0.238-0.135l-0.072-0.067l-0.032-0.055
	l-0.019-0.049l-0.021-0.039l-0.039-0.024l-0.019,0.007l-0.07,0.042l-0.034-0.064l-0.027-0.142l-0.12,0.002l-0.095,0.036
	l-0.067,0.081l-0.01,0.042l-0.002,0.001l0,0l-0.004,0.002l-0.068,0.022l-0.154-0.291l-0.007-0.081l-0.025-0.068l-0.118-0.147
	l-0.039-0.085l0.005-0.086l0.093-0.231l0.001-0.037l-0.008-0.079l0.005-0.039l0.02-0.039l0.057-0.06l0.021-0.038l0.011-0.078
	l-0.009-0.092l-0.03-0.095l-0.05-0.084l-0.021-0.059l0.005-0.037l0.014-0.033l0.005-0.045l-0.007-0.055l-0.009-0.031l-0.08-0.134
	l-0.023-0.03l-0.016-0.033l-0.01-0.059l0.002-0.009l0.004-0.04l0.033-0.086l0.005-0.049l-0.009-0.028l-0.028-0.051l-0.007-0.021
	l-0.007-0.09l-0.037-0.198l0.026-0.062l0.092-0.068l0.021-0.057l-0.038-0.067l-0.039-0.099l-0.031-0.103l-0.017-0.077l0.025-0.083
	l0.06-0.01l0.158,0.057l0.088,0.011l0.059-0.023l0.053-0.035l0.098-0.043l0.048-0.049l0.029-0.012l0.04,0.012l0.085,0.043
	l0.034-0.006h0.06l0.087,0.023l0.064-0.005l-0.005-0.081l-0.013-0.01l-0.008-0.006l-0.082-0.051l-0.032-0.032l-0.026-0.057
	l-0.021-0.091l-0.02-0.035l-0.053-0.024l-0.152-0.004l-0.067-0.01l-0.131-0.062l-0.117-0.016l0.009-0.008l0.002-0.003l-0.057-0.008
	l-0.01,0.063l-0.008,0.015l-0.027-0.013l-0.013-0.056l-0.007-0.11l-0.042-0.163l-0.023-0.146l-0.022-0.064l-0.238-0.353
	l-0.046-0.059l-0.032-0.023l-0.089-0.031l-0.063-0.036l-0.02-0.018l-0.035-0.042l-0.109-0.163l-0.049-0.051l-0.129-0.118
	l-0.021-0.191l0.047-0.373l-0.027-0.153v-0.045l0.015-0.042l0.049-0.04l0.021-0.028l0.019-0.067l-0.004-0.378l0.008-0.044
	l0.015-0.027l0.035-0.042l0.009-0.035l-0.004-0.036l-0.023-0.092l-0.006-0.041l0.045-0.17l0.046-0.566l0.037-0.169l0.052-0.125
	l0.008-0.164l0.218-0.962l0.063-0.154l0.078-0.184l0,0v-0.001l0,0l0.038-0.101l0.074-0.332l0.005-0.072l-0.002-0.006l-0.028-0.125
	l-0.005-0.075l0.015-0.053l0.03-0.046l0.069-0.076l0.451-0.258l0.1-0.131l-0.021-0.164l-0.013-0.05l-0.026-0.055l-0.048-0.076
	l-0.021-0.054l0.111-0.177l0.018-0.078l0.006-0.065l-0.003-0.01l-0.02-0.004l-0.048-0.044l-0.134-0.179l-0.001-0.136l-0.001-0.001
	l-0.152-0.122l-0.067-0.074l-0.038-0.102l-0.077,0.021l-0.092-0.006l-0.07-0.042l-0.008-0.09l-0.015-0.025l-0.074,0.029
	l-0.075,0.005l-0.065-0.031l-0.048-0.075l-0.01-0.086l0.031-0.077l0.064-0.048l0.087,0.002l0.037-0.051l0.082-0.047l0.066-0.059
	l-0.01-0.087l-0.062-0.033l-0.272-0.003l-0.259-0.066l-0.073-0.043l-0.044-0.046l-0.023-0.035l-0.024-0.03l-0.053-0.027
	l-0.043-0.005l-0.038,0.004l-0.028-0.006l-0.007-0.038l-0.015-0.026l-0.125-0.154l-0.052-0.043l-0.125-0.068l-0.082-0.061
	l-0.012-0.043l0.029-0.044l-0.056-0.034l-0.188-0.06l-0.173-0.014l-0.095-0.039l-0.312-0.237l-0.059-0.005l-0.047,0.025h-0.053
	l-0.064-0.078l-0.017-0.062v-0.079l0.017-0.073l0.035-0.043l-0.046-0.047l-0.021-0.043l0.002-0.039l0.02-0.029l-0.047-0.038
	l-0.187-0.099l-0.019-0.023l-0.008-0.104l-0.048-0.005l-0.055,0.007l-0.055-0.006l-0.048-0.048l-0.02-0.022l0.032,0.004l0.016-0.022
	l-0.024-0.069l-0.027-0.037l-0.178-0.161l-0.032-0.024l-0.017-0.035v-0.07l0.01-0.042l0.021-0.034l0.201-0.196l0.059-0.031
	l0.203-0.041l0.064-0.029l0.121-0.013l0.118,0.049l0.108,0.03l0.088-0.072l0.172-0.548l0.164-0.355l0.013-0.14l-0.095-0.3
	l-0.008-0.101l0.01-0.188l0.021-0.087l0.041-0.048l0.576-0.394l0.169-0.047l0.053-0.026l0.614-0.506l0.148-0.245l0.087-0.102
	l0.107-0.067l0.475-0.122l0.476-0.267l0.331-0.188l0.178-0.162l0.572-0.203l0.163-0.105l0.083-0.027l0.24,0.054l0.091-0.01
	l0.572-0.311l0.037-0.002l0.018,0.029l0.016,0.041l0.028,0.036l0.055,0.025l0.046-0.002l0.536-0.302l0.578-0.066l0.175-0.069
	l0.187-0.238l0.216-0.121l0.112-0.038h0.087l0.054,0.054l0.046,0.089l0.063,0.109l0.067,0.067l0.057,0.014l0.052-0.024l0.053-0.044
	l0.082-0.026l0.034,0.076l0.018,0.107l0.028,0.077l0.051,0.012l0.049-0.038l0.074-0.091l0.158-0.063l0.046-0.035l0.036-0.06
	l0.02-0.118l0.029-0.052l0.086-0.05v-0.001l0.324-0.051l0.137-0.08l0.051-0.001l0.081,0.064l0.044,0.113l0.044,0.252l0.012,0.007
	l0.023,0.015l0.055,0.018l0.059,0.007l0.043-0.006l0.035-0.03l0.009-0.04l0.014-0.229l-0.003-0.033l-0.021-0.061l-0.029-0.042
	l-0.032-0.04l-0.033-0.049l-0.035-0.09l-0.011-0.087l0.018-0.072l0.049-0.044l0.069-0.003l0.245,0.074l0.06-0.003l0.052-0.016
	l0.231-0.147l0.034-0.046l0.024-0.09l-0.02-0.205v-0.105l0.021-0.08l0.036-0.062l0.05-0.027l0.062,0.02l0.034,0.034l0.02,0.035
	l0.025,0.035l0.048,0.032l0.047,0.012l0.097,0.001l0.05,0.015l0.042,0.032l0.094,0.095l0.034,0.022l0.039-0.007l0.02-0.036
	l0.022-0.102l0.064-0.16l0.048-0.062l0.063-0.043l0.241-0.089l0.077-0.014l0.056,0.041l0.057,0.077l0.178,0.2l0.05,0.046
	l0.049,0.027l0.052-0.005l0.023-0.038l0.02-0.042l0.031-0.017l0.048,0.039l0.063,0.063l0.051,0.024l0.012-0.078l-0.025-0.066
	l-0.102-0.149l-0.036-0.071l-0.022-0.14l0.013-0.128l0.037-0.112l0.048-0.09l0.059-0.062l0.145-0.097l0.047-0.064l0.013-0.081
	l-0.024-0.163l0.016-0.079l0.035-0.048l0.048-0.034l0.11-0.038l0.079,0.001l0.062,0.03l0.141,0.111l0.158,0.074l0.068,0.047
	l0.076,0.098l0.042,0.117l0.044,0.035l0.061,0.005l0.086,0.027l0.075,0.059l0.075,0.074l0.074,0.052l0.075-0.003l0.037-0.05
	l0.013-0.047l0.024-0.099l0.044-0.054l0.131-0.024l0.046-0.032l-0.006-0.086l-0.028-0.12l-0.006-0.063l0.021-0.038l0.057-0.048
	l0.039-0.06l0.007-0.068v-0.074l0.019-0.079l0.033-0.052l0.048-0.045l0.058-0.027l0.06,0.002l0.085,0.046l0.058,0.046l0.059,0.024
	l0.237-0.106l0.035-0.04l0.006-0.043l-0.01-0.103l0.015-0.042l0.025-0.014l0.055,0.002l0.028-0.022l0.092-0.176l0.043-0.052
	l0.32-0.231l0.081-0.026l0.099,0.006l0.169,0.067l0.058,0.015l0.157-0.02l0.05,0.01l0.032,0.018l0.023,0.021l0.022,0.03l0.026,0.042
	l0.016,0.034l0.035,0.095l-0.004,0.008l0.044,0.03l0.135,0.048l0.052,0.009l0.045-0.01l0.07-0.048l0.038-0.015l0.059,0.012
	l0.105,0.047l0.044-0.013l0.031-0.027l0.037-0.012h0.043l0.047,0.013l0.042,0.025l0.021-0.025l-0.006-0.028l-0.001-0.005
	l-0.059-0.096l0.002-0.012l-0.009-0.106l-0.032-0.062l0.036-0.104l0.018-0.117l-0.087-0.102l0.022-0.034l-0.016-0.02l-0.032-0.011
	l-0.025-0.014l-0.096-0.094l-0.027-0.02l-0.044-0.003l-0.024,0.016l-0.024,0.003l-0.04-0.041l-0.027-0.052v-0.041l0.02-0.028
	l0.035-0.014l-0.02-0.03l-0.031,0.006l-0.037-0.001l-0.037-0.016l-0.044-0.039l-0.007-0.042l-0.03-0.022l-0.04-0.009l-0.044-0.003
	l0.009-0.033L1100.75,506l-0.011-0.057l-0.051,0.007l-0.093,0.03l-0.052-0.02l-0.017-0.024l0.006-0.019l0.004-0.013l0.005-0.013
	l0.015-0.018l-0.016-0.024l-0.028,0.001l-0.072-0.011l-0.02-0.028l0.024-0.111l0.021-0.034l-0.034-0.033l-0.016-0.01l0.005-0.019
	v-0.043l0.005-0.028l-0.049-0.044l-0.028-0.103l-0.049-0.044l0.023-0.029l0.07-0.052l0.018-0.031l-0.011-0.046l-0.029-0.051
	l-0.023-0.051l0.007-0.047l-0.02-0.03l-0.021,0.011l-0.063,0.007l0.006-0.055l0.029-0.072l0.011-0.073l-0.042-0.06l-0.042-0.027
	l-0.011-0.015l0.002-0.019l-0.004-0.039l0.006-0.104l-0.004-0.019l0.005-0.021l-0.005-0.034l-0.002-0.036l0.029-0.06l-0.017-0.038
	l-0.022-0.039l-0.008-0.032l0.014-0.02l0.073-0.041l0.014-0.023l0.005-0.039l0.001-0.068l-0.019-0.027l-0.022-0.007l-0.022-0.021
	l-0.009-0.016l0.049-0.072l0.019-0.044l0.012-0.046l0.007-0.046l0.001-0.05l-0.009-0.014l-0.014-0.02l-0.013-0.028l0.002-0.037
	l0.009-0.028l0.009-0.016l0.018-0.003l0.03,0.013l0.057-0.047l-0.013-0.066l-0.057-0.037l-0.074,0.037l-0.005-0.025l-0.007-0.023
	l-0.007-0.023l-0.002-0.027l-0.058-0.058l0.008-0.067l0.045-0.06l0.302-0.239l0.096-0.05l0.079-0.005l0.168,0.021l0.07-0.016
	l0.037-0.063l-0.006-0.093l-0.018-0.104l0.004-0.097l0.128-0.206l0.209-0.15l0.455-0.202l0.252-0.201l0.132-0.115l0.086-0.037
	l0.089,0.015l0.055,0.056l0.051,0.072l0.051,0.054l0.061-0.002l0.033-0.036l0.078-0.152l0.077-0.069l0.163-0.059l0.04-0.034
	l0.207-0.385l0.043-0.158l-0.037-0.199l-0.134-0.257l-0.025-0.085l0.005-0.04l0.016-0.038l0.009-0.042l-0.018-0.053l-0.03-0.028
	l-0.099-0.05l-0.04-0.034l-0.06-0.159l0.077-0.087l0.248-0.066l0.085-0.115l0.618-0.075l0.066-0.051l0.108-0.137l0.065-0.05
	l0.052-0.007l0.107,0.008l0.044-0.025l0.025-0.053l0.079-0.395l0.025-0.053l0.021-0.013l0.043-0.004l0.017-0.021l0.004-0.034
	l-0.013-0.074l0.013-0.031l0.031-0.049l0.009-0.051l0.004-0.121l0.018-0.055L1104.527,498.407z M1112.633,526.644l0.012,0.081
	l0.012,0.032l0.004,0.028l0.009,0.029l0.031,0.038l0.028,0.021l0.064,0.038l0.3,0.085l0.063-0.005l0.063-0.028l0.229-0.047
	l0.151,0.018l0.13,0.055l0.351,0.22l0.04,0.016l0.039-0.008l0.013-0.026l0.021-0.102l0.001-0.026l-0.006-0.027l0.002-0.037
	l-0.001-0.043l-0.019-0.047l-0.02-0.026l-0.016-0.007h-0.024l-0.044-0.006l-0.246-0.044l-0.055-0.034l-0.016-0.031l-0.009-0.032
	l-0.012-0.031l-0.023-0.032l-0.033-0.033l-0.021-0.019l-0.024-0.009l-0.04-0.01l-0.21,0.011l-0.055-0.033l-0.051-0.075l-0.058-0.072
	l-0.062-0.058l-0.062-0.032l0.047,0.102l0.053,0.097l0.021,0.07l-0.057,0.023l-0.064-0.016l-0.087-0.038l-0.074-0.063l-0.031-0.084
	l-0.028-0.015l-0.032-0.006l-0.032,0.005l-0.028,0.02L1112.633,526.644z M1123.009,519.851l0.032,0.068l0.064,0.094l0.053,0.044
	l0.069,0.024l0.147,0.021l-0.021,0.189l0.01,0.025l-0.02-0.005l-0.049-0.03l-0.04-0.088l-0.018-0.027l-0.043-0.022l-0.05-0.008
	l-0.031,0.014l0.011,0.042l0.021,0.05l-0.018,0.032l-0.079,0.034l0.018,0.024l0.063,0l0.035-0.004l0.032-0.016l0.031,0.004
	l0.083,0.071l0.036,0.026l0.024,0.026l-0.029,0.022l-0.062,0.023l-0.013,0.008l-0.026,0.025l-0.012,0.004l-0.02-0.011l-0.025-0.021
	l-0.023-0.021l-0.006-0.01l-0.031,0.014l-0.009,0.022l-0.004,0.026l-0.018,0.031v0.011l-0.002,0.013l-0.011,0.014l-0.015-0.001
	l-0.018-0.014l-0.019-0.013l-0.02,0.003l-0.058-0.011l-0.174-0.109l-0.049-0.019l-0.058,0.027l-0.19,0.043l-0.032,0.024l-0.023,0.05
	l-0.021,0.023l-0.052,0.042l-0.03,0.018l-0.021-0.004l-0.047-0.025l-0.062,0.008l-0.059,0.029l-0.034,0.036l-0.015,0.061
	l-0.004,0.065l-0.017,0.049l-0.061,0.018l-0.067,0.05l0.016,0.023l0.049,0.005l0.039,0.012l0.261,0.13l0.04,0.004l0.159-0.016
	l0.016-0.047l-0.029-0.067l-0.086-0.123l0.133-0.033l0.03,0.009l0.071,0.098l0.018,0.045l-0.008,0.045l0.183,0.053l0.065,0.045
	l-0.035,0.056l0.013,0.017l0.012,0.007l0.029,0.013l0.001,0.042l0.042-0.034l0.01-0.049v-0.05l0.013-0.033l0.044-0.009l0.04,0.024
	l0.034,0.026l0.03,0.001l0.024,0.008h0.061l0.048-0.02l-0.011-0.058l-0.045-0.036l-0.05-0.024l-0.02-0.033l0.032-0.059l-0.039-0.029
	l-0.022,0.01l-0.022,0.021l-0.037,0.012l-0.077-0.009l-0.025-0.018l0.022-0.033l0.119-0.084l0.063-0.021l0.068-0.001l0.215,0.077
	l0.114-0.018l0.229,0.028l0.018,0.024l-0.003,0.048l-0.02,0.041l-0.039,0.026l-0.057,0.011l0.054,0.053l0.063,0.03l0.112,0.02
	l0.01-0.053l0.038-0.034l0.023-0.043l-0.03-0.076l-0.06-0.075l-0.045-0.034l-0.048-0.01l-0.233-0.019l-0.036,0.007l-0.013-0.002
	l-0.016-0.015l-0.009-0.02l0.002-0.013l0.016-0.006l0.032,0.002l0.013-0.003l0.026-0.009l0.029-0.002l0.027,0.005l0.023,0.008
	l-0.004-0.04l0.138-0.046l0.06-0.003l-0.003,0.063l0.063,0.031l0.025-0.035l-0.008-0.213l0.021,0.02l0.038,0.065l0.048,0.046
	l0.031,0.006l0.035-0.002l0.033-0.012l0.021-0.022l-0.001-0.028l-0.034-0.071l-0.003-0.026l0.043-0.038l0.058,0.009l0.126,0.049
	l-0.034,0.059l-0.018,0.018l0.069,0.007l0.072-0.011l0.062,0.012l0.043,0.08l-0.006,0.028l-0.035,0.07v0.028l0.026,0.047
	l0.021,0.076l0.019,0.042l0.015-0.127l0.023,0.029l0.011,0.022l0.001,0.019v0.02l0.02-0.021l0.009-0.018l0.001-0.021l-0.011-0.03
	l0.016-0.012l0.063,0.09l0.029,0.014l-0.01-0.046l-0.058-0.095l-0.035-0.089l0.008-0.081l0.041-0.052l0.06-0.008l-0.006,0.03
	l0.007,0.083l0.104,0.061l0.053,0.016l0.022-0.033l-0.009-0.111l-0.01-0.059l-0.014-0.039l0.008-0.025l0.049-0.016l0.043-0.027
	l-0.006-0.06l-0.033-0.029l-0.055-0.018l-0.09-0.016l-0.018-0.022l0.228-0.069l0.04-0.001l0.031,0.032l0.023,0.013l0.02,0.026
	l0.026,0.067l0.005,0.03l0.003,0.085l-0.002,0.038l-0.008,0.034l-0.016,0.036l-0.023,0.036l-0.03,0.03l-0.007,0.035l0.05,0.097
	l-0.006,0.033l-0.021,0.04l0.009,0.053l0.018,0.052l0.007,0.039l-0.007,0.047l-0.041,0.109l0.018,0.024l0.097-0.105l0.062-0.13
	l0.079-0.434l0.025-0.057l0.09-0.102l0.018-0.06l0.009-0.135l0.047,0.037l0.035,0.041l0.021,0.043l0.005,0.046l-0.022,0.006
	l-0.067,0.074l-0.003,0.011l-0.028,0.031l-0.019,0.041l-0.003,0.044l0.02,0.044l0.03,0.058l0.015,0.09l0.021,0.057l0.044-0.078
	l0.031-0.093l0.044-0.076l0.083-0.023l0.097,0.054l0.028,0.102l-0.003,0.115l0.008,0.094l0.042-0.055l0.053-0.026l0.114-0.037
	l0.05-0.05l0.052-0.126l0.047-0.048l0.016,0.02l-0.002,0.039l-0.012,0.078l0.004,0.05l0.075-0.036l0.025-0.003l0.038,0.01
	l0.069,0.034l0.037,0.005l0.045-0.015l0.118-0.109h0.043l0.176,0.101l0.044,0.002l0.038-0.007l0.039,0.01l0.048,0.045l0.047,0.037
	l0.103,0.013l0.046,0.035l0.225,0.219l0.018,0.002l0.015,0.007l0.02,0.047l0.005,0.028l-0.015,0.051l-0.003,0.026l-0.015,0.05
	l-0.07,0.084l-0.019,0.038l0.019,0.027l0.061,0.009l0.17,0.086l0.06,0.012l0.23,0.006l0.028-0.019l0.016-0.036l0.033-0.048
	l0.035-0.024l0.055-0.023l0.057-0.008l0.037,0.014l0.069-0.004l0.365-0.114l0.038,0.001l0.062,0.021l0.069,0.013l0.06-0.015
	l0.031-0.041l0.016-0.052l0.006-0.108l-0.069-0.02l-0.056,0.013l-0.053,0.025l-0.064,0.012l-0.04-0.01l-0.038-0.021l-0.037-0.016
	l-0.035,0.006l-0.033,0.017l-0.029-0.004l-1.093-0.372l-0.198-0.044l-0.041-0.024l-0.132-0.04l-0.128-0.073l-0.051-0.023h-0.03
	l-0.028,0.006l-0.033-0.004l-0.04-0.038l-0.089-0.041l-0.016-0.011l-0.026-0.025l-0.195-0.084l-0.069-0.046l-0.131-0.114
	l-0.066-0.041l-0.036-0.016l-0.047-0.014l-0.046-0.004l-0.03,0.018l-0.009,0.03l0.011,0.03l0.016,0.035l0.006,0.044l-0.003,0.032
	l-0.011,0.031l-0.019,0.028l-0.025,0.027l-0.022-0.009l-0.021-0.04l-0.093-0.236l-0.004,0.006l-0.016-0.005l-0.021-0.017
	l-0.016-0.021l0.004-0.004l0.009-0.039l0.004-0.007l0.005-0.004v-0.026l-0.011-0.025h-0.021l-0.014,0.003l-0.049-0.002l-0.016-0.002
	l-0.042-0.021l-0.032-0.03l-0.059-0.081l-0.052-0.06l-0.077-0.075l-0.077-0.06l-0.052-0.016l-0.027,0.036l0.015,0.045l0.018,0.042
	l-0.011,0.035h-0.028l-0.129-0.017l-0.05-0.044l-0.074-0.034l-0.081-0.016l-0.067,0.008l-0.001-0.052l0.018-0.044l0.076-0.102
	l0.066-0.041l0.023,0.001l0.07,0.026l0.029-0.003l0.015-0.054l-0.046-0.06l-0.07-0.051l-0.053-0.031l-0.124-0.021l-0.158,0.017
	l-0.123,0.071l-0.022,0.141l0.047,0.084l0.064,0.064l0.07,0.056l0.058,0.06l0.023,0.054l0.063,0.375l-0.013,0.092l-0.135,0.031
	l-0.006,0.163l-0.063,0.025l-0.032-0.103l-0.053-0.016l-0.065,0.033l-0.067,0.053l-0.039-0.004l-0.025-0.057l-0.009-0.073
	l0.008-0.048l0.04-0.018l0.048,0.006l0.028-0.007l-0.013-0.059l-0.077-0.004l-0.065-0.039L1124.21,520l-0.022-0.08l0.032-0.138
	l0.031-0.017l0.015,0.013l0.006,0.028l0.009,0.024l0.052,0.057l-0.005-0.052l-0.018-0.084l0.013-0.046l0.032,0.031l0.084,0.051
	l0.067,0.024l-0.02-0.06l-0.021-0.04l-0.009-0.065l-0.023-0.045l-0.072-0.101l-0.038-0.029l-0.054-0.017l-0.052-0.005l-0.035,0.009
	l-0.006,0.026l0.012,0.04l0.027,0.068l-0.037,0.124l-0.107,0.042l-0.272-0.011l-0.206,0.028l-0.027,0.01l0.006,0.028l-0.006,0.035
	l-0.002,0.036l0.016,0.029l0.034,0.008l0.066-0.036l0.035,0.002l0.035,0.052l0.056,0.103l0.044,0.107l0.004,0.06h-0.037
	l-0.033-0.037l-0.063-0.091l-0.043-0.039l-0.026-0.019l-0.321-0.172l-0.129-0.052l-0.127-0.01l-0.056,0.021L1123.009,519.851z"/></svg>