<?xml version="1.0" encoding="utf-8"?>
<!-- Generator: Adobe Illustrator 15.0.0, SVG Export Plug-In . SVG Version: 6.00 Build 0)  -->
<!DOCTYPE svg PUBLIC "-//W3C//DTD SVG 1.1//EN" "http://www.w3.org/Graphics/SVG/1.1/DTD/svg11.dtd">
<svg version="1.1" id="Ebene_1" xmlns="http://www.w3.org/2000/svg" xmlns:xlink="http://www.w3.org/1999/xlink" x="0px" y="0px"
	 width="1920px" height="1080px" viewBox="0 0 1920 1080" enable-background="new 0 0 1920 1080" xml:space="preserve">

<path fill="#F4E0B6" stroke="#FFFFFF" d="M717.547,616.224l-0.084-0.005l-0.008-0.015l0.061-0.006l0.04-0.001l0.028,0.007
	L717.547,616.224z M717.755,616.294l-0.064,0.046v-0.046l0.064-0.048l0.033-0.008L717.755,616.294z M719.302,617.206l-0.076,0.02
	l-0.009-0.026l0.064-0.061l0.037-0.022l0.034,0.022l0.011,0.04L719.302,617.206z M719.858,616.881l-0.078,0.032l0.023-0.088
	l0.06-0.085l0.076-0.072l0.074-0.055l-0.012,0.077l-0.061,0.103L719.858,616.881z M718.785,615.743l-0.056,0.09l-0.063,0.032
	l-0.071-0.02l-0.033-0.076l0.037-0.069l0.062-0.003l0.04,0.032l0.037-0.004l0.062-0.092l0.07-0.05l0.013,0.006l-0.009,0.027
	L718.785,615.743z M715.707,613.141l-0.141-0.01l0.016-0.023l0.067-0.014l0.071-0.054l0.065-0.074l0.049-0.075l0.106,0.049
	l-0.076,0.11L715.707,613.141z M719.263,615.311l-0.047-0.017l-0.017-0.083l-0.002-0.165l-0.043-0.094l-0.111-0.167l-0.013-0.11
	l0.023-0.002l0.019,0.003l0.019-0.001l0.022-0.019l0.066,0.153l0.044,0.063l0.07,0.08l0.05,0.076l0.031,0.1l-0.018,0.101
	L719.263,615.311z M718.479,613.853l0.033,0.021l0.039,0.012l0.034,0.017l0.197,0.167l0.114,0.043l0.047,0.028l0.031,0.052
	l0.005,0.071l-0.041,0.242l-0.047-0.059l-0.003-0.078l0.011-0.081l-0.009-0.074l-0.028,0.104l-0.024,0.175l-0.021,0.087l-0.054-0.02
	l-0.019-0.048l-0.001-0.131l-0.047,0.024l-0.015,0.013l-0.022-0.013l0.015-0.14l-0.071-0.088l-0.236-0.112l-0.093-0.048
	l-0.012-0.039l0.01-0.083l0.018-0.052l0.086-0.146l0.027,0.021l0.026,0.026l0.02,0.028L718.479,613.853z M717.434,613.105
	l-0.046,0.009l-0.029-0.023l0.047-0.008h0.028V613.105z M716.755,612.678l0.08,0.35l0.035,0.048l0.07,0.043l0.076,0.034l0.058,0.013
	l0.084-0.018l0.057-0.022l0.044,0.015l0.047,0.095l-0.02,0.028l-0.156,0.032l-0.054,0.017l0.02-0.065l0.012-0.025l-0.133-0.012
	l0.009,0.013l0.01,0.012l0.008,0.013l0.002,0.02l-0.071-0.004l-0.081-0.07l-0.061-0.02l0.037-0.057l-0.217,0.025l-0.07-0.032
	l0.027-0.122l0.021,0.013v0.048l0.022,0.038l0.031,0.007l0.024-0.042l-0.008-0.033l-0.083-0.138l-0.024,0.059l-0.035,0.034
	l-0.047,0.008l-0.058-0.017l0.009-0.031l0.009-0.018l0.014-0.014l0.022-0.019l-0.005,0.021v0.003l0.003,0.005l0.009,0.015
	l0.048-0.042l0.1-0.055l0.048-0.04l-0.116,0.011l-0.035,0.009l0.023-0.058l0.118-0.097l0.042-0.065L716.755,612.678z
	 M717.551,613.107l-0.031-0.004l0.012-0.033l0.052-0.026l0.026,0.002l-0.003,0.022l-0.021,0.03L717.551,613.107z M718.401,613.207
	l-0.013,0.036l-0.051,0.052l-0.12,0.244l-0.001,0.11l0.103,0.083l-0.109,0.011l-0.051-0.054l-0.025-0.076l-0.03-0.054l-0.022-0.028
	l-0.026-0.05l-0.017-0.059l0.003-0.052l0.039-0.048l0.114-0.055l0.044-0.036l0.019-0.083l-0.082-0.004l-0.149,0.044l-0.035,0.021
	l-0.04-0.014l-0.035-0.034l-0.02-0.038l0.01-0.046l0.031-0.033l0.021-0.035l-0.023-0.048l0.036-0.02l0.038-0.01l0.039,0.001
	l0.039,0.013l0.205,0.132l0.018,0.017l0.035,0.051l0.023,0.022L718.401,613.207z"/></svg>