<?xml version="1.0" encoding="utf-8"?>
<!-- Generator: Adobe Illustrator 15.0.0, SVG Export Plug-In . SVG Version: 6.00 Build 0)  -->
<!DOCTYPE svg PUBLIC "-//W3C//DTD SVG 1.1//EN" "http://www.w3.org/Graphics/SVG/1.1/DTD/svg11.dtd">
<svg version="1.1" id="Ebene_1" xmlns="http://www.w3.org/2000/svg" xmlns:xlink="http://www.w3.org/1999/xlink" x="0px" y="0px"
	 width="1920px" height="1080px" viewBox="0 0 1920 1080" enable-background="new 0 0 1920 1080" xml:space="preserve">

<path fill="#F4E0B6" stroke="#FFFFFF" d="M1262.873,758.79l0.048-0.077l0.102-0.058l0.069,0.012l0.142,0.079l0.065,0.015l0.06-0.021
	l0.028-0.033l0.02-0.042l0.176-0.212l0.043-0.039l0.024-0.029l0.001-0.026l0.01-0.015l0.051,0.006l0.031,0.021l0.058,0.082
	l0.031,0.026l0.078,0.011l0.058-0.023l0.055-0.039l0.065-0.029l0.086,0.003l0.151,0.069l0.092,0.012l0.189-0.037l0.125,0.034
	l0.091,0.109l0.089,0.184l0.135,0.19l0.172,0.095l0.584,0.135l0.088-0.007l0.085-0.047l0.069-0.084l0.101-0.169l0.095-0.063
	l0.729-0.151l0.017,0.244l0.117,0.241l0.181,0.144l0.203-0.049l0.068-0.091l0.035-0.086l0.052-0.069l0.117-0.042l0.162,0.014
	l0.051-0.008l0.037-0.027l0.071-0.067l0.039-0.018l0.063,0.003l0.051,0.002l0.243,0.096l0.119,0.025l0.102-0.013l0.096-0.035
	l0.547-0.316l0.195-0.045l0.211,0.033l0.079,0.042l0.189,0.179l0.112,0.072l0.078,0.013l0.167-0.071l0.409-0.108l0.317-0.137
	l0.069,0.003l0.094,0.042l0.033,0.028l0.048,0.065l0.042,0.022l0.037-0.004l0.07-0.05l0.034-0.008l0.268,0.04l0.382-0.034
	l0.089,0.011l0.146,0.28l0.051,0.055l0.06,0.017l0.021-0.023l0.018-0.04l0.048-0.029l0.036,0.005l0.094,0.032h0.047l0.065,0.131
	l0.092,0.395l0.114,0.104l0.065-0.01l0.036-0.05l0.028-0.063l0.051-0.046h0.058l0.043,0.042l0.037,0.053l0.044,0.035l0.112-0.013
	l-0.005-0.109l-0.055-0.151l-0.035-0.14h0.124l0.235-0.111l0.116,0.022l0.119,0.089l0.05,0.056l0.042,0.071l0.013,0.06l-0.003,0.05
	l0.007,0.054l0.046,0.065l0.072,0.048l0.142,0.017l0.073,0.032l0.124,0.099l0.064,0.039l0.074,0.025l0.066,0.002l0.188-0.02
	l0.045,0.022l0.157,0.157l0.091,0.12l0.019,0.119l-0.021,0.29l0.027,0.271l0.036,0.136l0.056,0.127l0.099,0.057l0.426-0.013
	l0.13,0.038l0.109,0.049l0.11,0.031l0.129-0.017l0.134,0.075l0.115,0.021l0.097,0.046l0.081,0.147l0.101,0.284l0.069,0.109
	l0.25,0.238l0.063,0.036l0.173,0.056l0.052,0.025l0.184,0.171l0.104,0.051l0.123-0.045l0.06,0.126l0.071,0.071l0.025,0.046
	l0.01,0.018l0.01,0.018l-0.015,0.155l-0.034,0.102l-0.102,0.224l-0.041,0.057l-0.037,0.071l-0.083,0.371l0.021,0.229l-0.007,0.108
	l-0.06,0.105l-0.057,0.049l-0.036,0.126l-0.041,0.06l-0.067,0.029l-0.153,0.043l-0.052,0.044l-0.047,0.057l-0.095,0.082
	l-0.046,0.052l-0.028,0.077l-0.015,0.176l-0.042,0.077l-0.052,0.025l-0.051,0.01l-0.031,0.036l0.003,0.105l0.027,0.07l0.047,0.01
	l0.051-0.029l0.054-0.041l0.089,0.026l0.103,0.133l0.08,0.139l0.079,0.134l0.108,0.122l0.122,0.099l0.134,0.079l0.143,0.055
	l0.259,0.193l0.029,0.16l0.006,0.164l-0.055,0.664l0.008,0.035l0.04,0.046l0.007,0.032l-0.012,0.034l-0.05,0.065l-0.007,0.035
	l0.024,0.07l0.037,0.058l0.027,0.062l-0.003,0.082l-0.154-0.04l-0.007,0.088l0.21,0.393l0.022,0.062l0.015,0.104l0.008,0.18
	l0.031,0.029l0.083-0.009l0.069-0.036l0.068-0.051l0.074-0.022l0.09,0.042l0.062,0.063l0.408,0.742l0.066,0.181l0.028,0.207
	l0.037,0.074l0.095,0.079l0.048,0.059l0.021,0.081l0.011,0.087l0.076,0.262l0.038,0.516l0.059,0.164l0.081,0.155l0.066,0.061
	l0.175,0.062l0.078,0.039l0.123,0.125l0.227,0.287l0.145,0.097l0.173-0.021l0.257-0.265l0.191-0.022l0.067-0.04l0.057-0.006
	l0.052,0.093l-0.003,0.095l-0.012,0.021l-0.074,0.131l0.006,0.093l-0.056,0.046l-0.003,0.045l0.051,0.118l-0.012,0.074l-0.098,0.123
	l-0.025,0.073l-0.014,0.141l-0.04,0.141l-0.063,0.116l-0.081,0.071l-0.037,0.006l-0.047-0.006l-0.05-0.001l-0.054,0.023l-0.1,0.078
	l-0.025,0.034l-0.02,0.085l0.007,0.196l-0.037,0.076l-0.035,0.036l-0.016,0.029l-0.011,0.026l-0.015,0.026l-0.012,0.041l0.002,0.039
	l-0.009,0.034l-0.041,0.024l-0.029-0.015l-0.097-0.077l-0.044-0.017l-0.045,0.01l-0.03,0.02l-0.055,0.053l-0.023,0.039l-0.021,0.057
	l-0.026,0.036l-0.043-0.014l-0.034-0.028l-0.035-0.013l-0.031,0.009l-0.026,0.033l-0.03,0.089l-0.014,0.085l0.005,0.346
	l-0.031,0.324l0.004,0.155l0.024,0.09l0.185,0.326l0.052,0.036l0.147,0.019l0.148,0.049l0.089,0.094l0.041,0.139l0.023,0.342
	l0.178,0.546l0.042,0.077l0.055,0.069l0.068,0.06l0.116,0.071l0.038,0.048l0.008,0.076l-0.104,0.104l-0.034,0.196l0.011,0.219
	l0.065,0.29l0.063,0.274l0.01,0.216l-0.084,0.13l-0.068,0.052l-0.011,0.069l0.026,0.076l0.042,0.082l0.032,0.113l-0.034,0.069
	l-0.139,0.104l-0.035,0.066l-0.061,0.161l-0.047,0.037l-0.09,0.013l-0.061,0.024l-0.023,0.057l0.028,0.104l0.117,0.12l0.144-0.036
	l0.15-0.078l0.133-0.005l0.268,0.157l0.049,0.042l-0.011,0.068l-0.112,0.157l-0.02,0.074l0.082,0.11l0.145-0.004l0.165-0.048
	l0.149-0.016l0.086,0.027l0.333,0.165l0.047,0.061l0.042,0.064l0.059,0.059l0.049,0.011l0.071-0.042h0.042l0.04,0.027l0.014,0.023
	l0.004,0.031l0.096,0.236l0.054,0.058l0.158,0.084l0.065-0.06l0.019-0.292l0.023-0.097l0.041-0.064l0.119-0.119l0.019-0.059
	l-0.017-0.137l0.029-0.047l0.083,0.022l0.25,0.194l0.112,0.055l-0.243,0.266l-0.291,0.32l-0.419,0.46l-0.571,0.631l-0.558,0.615
	l-0.501,0.553l-0.347,0.384l-0.306,0.341l-0.291,0.236l-0.13,0.133l-0.229,0.315l-0.332,0.361l-0.434,0.474l-0.471,0.513
	l-0.196,0.306l-0.268,0.413l-0.274,0.322l-0.36,0.333l-0.445,0.412l-0.357,0.332l-0.068,0.043l-0.492,0.445l-0.346,0.312
	l-0.44,0.518l-0.269,0.318l-0.337,0.396l-0.267,0.399l-0.213,0.317l-0.322,0.232l-0.056,0.055l0.001,0.003l0.013,0.029l0.094,0.118
	l0.102,0.196l0.116,0.179l0.427,0.471l0.205,0.157l0.174,0.021l0.066-0.008l0.08,0.03l0.081,0.057l0.069,0.065l0.062,0.081
	l0.156,0.282l0.037,0.043l0.103,0.056l0.033,0.035l0.012,0.049l0.006,0.192l0.022,0.109l0.04,0.058l0.177,0.067l0.038,0.023
	l0.109,0.104l-0.003,0.017l-0.043,0.055l-0.12,0.151l-0.111,0.066l-0.154,0.008l-0.078,0.004l-0.107,0.04l-0.026,0.033l-0.031,0.087
	l-0.02,0.039l-0.055,0.048l-0.055,0.007l-0.139-0.019l-0.175,0.048l-0.146,0.11l-0.132,0.132l-0.141,0.111l-0.18,0.071l-0.387,0.084
	l-0.183,0.077l-0.079,0.069l-0.12,0.169l-0.154,0.121l-0.182,0.203l-0.087,0.067l-0.088,0.031l-0.087,0.018l-0.09,0.034l-0.078,0.08
	l-0.076,0.213l-0.045,0.084l-0.321,0.218l-0.051,0.047l-0.638,0.899l-0.057,0.23l-0.022,0.045l-0.067,0.064l-0.05,0.091
	l-0.031,0.094l-0.014,0.067l0.006,0.215l-0.023,0.08l-0.084,0.069l-0.175,0.101l-0.073,0.063l-0.014,0.018l-0.041,0.059
	l-0.059,0.209l-0.024,0.161l0.005,0.036l-0.008,0.118l0.014,0.055l0.028,0.035l0.033,0.021l0.031,0.015l0.021,0.017l0.056,0.158
	l0.044,0.206l0.069,0.184l0.131,0.087l0.029,0.281l0.035,0.1l0.053,0.067l0.16,0.144l0.051,0.097l-0.006,0.216l0.003,0.044
	l0.057,0.169l-0.019,0.097l-0.086,0.207l0.006,0.089l-0.013,0.01l-0.052,0.068l-0.066-0.013l-0.053,0.041l-0.059,0.03l-0.083-0.035
	l-0.041-0.059l-0.023-0.058l-0.037-0.03l-0.081,0.028l-0.047,0.049l-0.057,0.134l-0.258,0.212l-0.037,0.045l0.047,0.004l0.044-0.008
	l0.043-0.021l0.042-0.028l0.007,0.028l0.002,0.029l-0.004,0.028l-0.008,0.029l-0.065,0.014l-0.036,0.05l-0.026,0.062l-0.04,0.046
	l-0.023-0.028l-0.034-0.071l-0.055-0.059l-0.089,0.004l0.019,0.097l-0.048,0.064l-0.062,0.039l-0.024,0.031l0.014,0.075l-0.024,0.2
	l-0.016,0.063l-0.044-0.029l-0.094,0.004l-0.06-0.023l0.025-0.046l-0.006-0.031l-0.025-0.016l-0.038,0.009l-0.024,0.029
	l-0.062,0.087l-0.021,0.001l-0.06-0.064l-0.069-0.008l-0.071,0.032l-0.068,0.057l0.07-0.007l0.027-0.01l0.016,0.028l-0.014,0.009
	l-0.041,0.022l0.017,0.03l0.103-0.033l0.102,0.023l0.057,0.052l-0.024,0.052l-0.085,0.073l-0.038,0.069l-0.043,0.042l-0.095-0.002
	l0.037,0.075l0.055,0.08l0.012,0.059l-0.088,0.009l0.004,0.067l-0.138-0.067l-0.063,0.004l-0.066,0.065l0.015,0.027l0.08,0.024
	l0.035,0.105l0.036,0.056l0.08-0.123l0.012,0.062l-0.021,0.066l-0.063,0.107l-0.029,0.032l-0.03,0.026l-0.02,0.027l0.009,0.042
	l0.037,0.078l0.007,0.033l-0.001,0.032l-0.083-0.015l-0.084,0.013l-0.051,0.046l0.018,0.09l0.047,0.088l0.002,0.031l-0.017,0.024
	l-0.001,0.025l0.045,0.035l0.011-0.022l0.008-0.01l0.06-0.011l-0.018,0.143l-0.081,0.133l-0.113,0.099l-0.115,0.034l-0.08-0.023
	l-0.015-0.043v-0.057l-0.041-0.067l-0.06-0.018l-0.056,0.025l-0.054,0.052l-0.044,0.059l-0.019-0.09l0.001-0.011l-0.009-0.012
	l-0.014-0.036l-0.009-0.012l-0.025,0.005l-0.019,0.023l-0.013,0.026l-0.01,0.016l-0.096,0.032l-0.049,0.029l-0.039,0.042
	l0.065,0.012l0.031,0.025l0.044,0.096l-0.021,0.05l-0.274,0.092l-0.008-0.004l0.002,0.007l-0.006,0.045l0.015,0.026l0.028,0.035
	l0.013,0.039l-0.033,0.038l0.011,0.021l0.156,0.037l0.057,0.005l0.206-0.051l0.042,0.006l-0.008,0.045l-0.046,0.053l-0.091,0.077
	l-0.142,0.202l-0.101,0.075l-0.084-0.061l-0.026,0.016l-0.003,0.058l-0.047,0.105l-0.002,0.057l0.088-0.047l0.077-0.003l0.055,0.035
	l0.017,0.074l-0.035,0.107l-0.138,0.133l-0.021,0.092l0.071-0.012l0.069,0.004l0.146,0.035l-0.067,0.147l-0.045,0.063l-0.061,0.041
	l0.002-0.088l-0.027-0.04l-0.138-0.049l-0.02,0.074l-0.012,0.176l-0.015,0.021l-0.04,0.042l-0.015,0.031l-0.002,0.046l0.012,0.033
	l0.015,0.032l0.008,0.038l-0.01,0.02l-0.038,0.055l-0.006,0.016l0.025,0.038l0.021,0.022l0.017,0.024l0.008,0.047l-0.018,0.021
	l-0.031,0.025l-0.025,0.035l0.006,0.051l0.021,0.036l0.009,0.025l0.005,0.022l-0.003,0.026l0.06,0.083l-0.022,0.098l-0.048,0.091
	l-0.014,0.063l-0.053,0.03l-0.092,0.074l-0.032,0.073l0.118,0.028l-0.001,0.021l0.005,0.052l0.079-0.021l-0.018,0.104l-0.097,0.255
	l-0.044,0.302l-0.055,0.1l-0.005,0.066l0.024,0.062l0.06,0.025l0.024-0.021l0.022-0.047l0.028-0.046l0.049-0.032l0.076-0.014
	l0.019,0.018l-0.002,0.048l0.016,0.076l0.035,0.069l0.035,0.05l0.024,0.052l0.002,0.076l-0.076,0.009l-0.038,0.039l0.016,0.037
	l0.076,0.001l0.017,0.031l-0.009,0.015l-0.002,0.005l0.003,0.007l-0.003,0.014l-0.137,0.01l-0.024,0.005l-0.029,0.044l0.007,0.021
	l0.022,0.025l0.023,0.106l0.014,0.032l-0.002,0.032l-0.037,0.043l-0.033,0.016l-0.037,0.001l-0.066-0.017l0.016,0.029l0.013,0.034
	l0.019,0.023l-0.06,0.041l0.016,0.043l0.026,0.048l-0.07,0.088l-0.019,0.112l-0.025,0.045l0.032,0.02l0.011,0.011l0.003,0.055
	l-0.062,0.016l-0.007,0.064l0.011,0.084v0.074l-0.042,0.242l-0.032,0.084h0.027l0.048,0.012l0.034,0.001l-0.063,0.073l0.015,0.026
	l0.026-0.016l-0.009,0.038l-0.003,0.052l0.016,0.049l0.047,0.019l0.046-0.025l0.033-0.055l0.027-0.062l0.027-0.045l0.024,0.066
	l-0.007,0.064l-0.021,0.06l-0.03,0.057l0.028,0.023l-0.005,0.036l-0.025,0.037l-0.03,0.033l0.017,0.031l0.029,0.025l-0.005,0.024
	l-0.033,0.015h-0.052l0.027,0.11l-0.05,0.189l0.018,0.043l-0.002,0.004l-0.047,0.05l-0.174,0.108l-0.029,0.038l-0.085,0.174
	l-0.106,0.02l-0.26,0.376l-0.085,0.062l-0.052,0.05l-0.03,0.061l-0.05,0.165l-0.037,0.041l-0.06,0.02l-0.255,0.048l-0.078,0.001
	l-0.078-0.017l-0.098-0.038l-0.073-0.014l-0.077,0.008l-0.109,0.038l-0.187,0.036l-0.383-0.004l-0.192,0.063l-0.127,0.102
	l-0.031,0.009l-0.038-0.011l-0.044-0.008l-0.046,0.003l-0.185,0.077l-0.041,0.006l-0.034-0.014l-0.044-0.027l-0.045-0.018
	l-0.043,0.002l-0.024,0.04l-0.071,0.185l-0.022,0.039l-0.078,0.066l-0.042,0.074l-0.056,0.055l-0.016,0.021l0.005,0.019l0.037,0.048
	l0.005,0.02l-0.044,0.045l-0.069,0.042l-0.052,0.048l0.007,0.064l-0.042-0.015l-0.144,0.231l-0.04,0.032l-0.162,0.084l-0.293,0.017
	l-0.065-0.026l-0.065-0.052l-0.028-0.062l0.047-0.058l-0.093-0.042l-0.213,0.021l-0.072-0.043l-0.059-0.025l-0.104-0.007
	l-0.106,0.003l-0.164,0.042l-0.069-0.019l-0.067-0.004l-0.086,0.062l-0.146,0.206l-0.223,0.197l-0.018,0.022l-0.011,0.056
	l-0.017,0.021l-0.026,0.009h-0.048l-0.021,0.005l-0.282,0.163l-0.045,0.015l-0.151,0.022l-0.114,0.073l-0.04,0.016l-0.095,0.006
	l-0.169-0.03l-0.09,0.006l-0.042-0.013l-0.054-0.039l-0.068-0.022l-0.07-0.003l-0.058,0.018l-0.066,0.031l-0.034,0.005l-0.088-0.041
	l-0.029-0.003h-0.057l-0.026-0.008l-0.02-0.02l-0.026-0.057l-0.024-0.017l-0.091-0.029l-0.025,0.019l-0.007,0.065l-0.025-0.023
	l-0.035-0.018l-0.039-0.007l-0.04,0.012l-0.018-0.016l-0.102-0.104h-0.018l-0.105-0.025l-0.02-0.009l-0.044,0.024l-0.031,0.01
	l-0.028-0.004l-0.041-0.019l-0.017-0.029l-0.015-0.084l-0.022-0.007l-0.035,0.029l-0.057,0.064l-0.037,0.018l-0.087-0.013
	l-0.08-0.04h-0.007l-0.064-0.009l-0.055,0.081l-0.091-0.046l-0.129,0.009l-0.29,0.095l-0.117,0.074l-0.045,0.016l-0.037-0.006
	l-0.03-0.008l-0.024,0.002l-0.353,0.132l-0.168,0.099l-0.029,0.033l-0.011,0.044l-0.003,0.04l-0.027,0.049l-0.024,0.087
	l-0.029,0.042l-0.034,0.024l-0.035,0.013l-0.074,0.011l-0.047-0.006l-0.041-0.015l-0.043-0.006l-0.106,0.038l-0.093,0.002
	l-0.125,0.044l-0.194,0.033l-0.076,0.025l-0.061,0.049l-0.13,0.139l-0.021,0.032h-0.057l-0.203,0.108l-0.076,0.029l-0.065,0.045
	l-0.097,0.088l-0.141,0.131l-0.139,0.128l-0.141,0.128l-0.141,0.129l-0.14,0.129l-0.139,0.129l-0.142,0.127l-0.14,0.129
	l-0.141,0.129l-0.139,0.129l-0.141,0.129l-0.139,0.129l-0.14,0.129l-0.139,0.128l-0.14,0.13l-0.14,0.129l-0.097,0.09l-0.07,0.042
	l-0.114,0.105l-0.134,0.121l-0.053-0.04l-0.034-0.051l-0.009-0.074l-0.13-0.025l-0.125-0.049l-0.112-0.014l-0.072,0.004
	l-0.064,0.016l-0.127,0.062l-0.059,0.046l-0.054,0.057l-0.06,0.044l-0.076,0.021l-0.077-0.024l-0.037-0.058l-0.03-0.068l-0.05-0.059
	l-0.066-0.021l-0.206,0.029l-0.136-0.023l-0.159-0.056l-0.145-0.08l-0.096-0.093l-0.052-0.035l-0.263-0.085h-0.074l-0.21,0.055
	l-0.288,0.03l-0.145-0.01l-0.235-0.053l-0.156,0.003l-0.076-0.015l-0.072-0.04l-0.158-0.167l-0.119-0.078l-0.141-0.062l-0.286-0.093
	l-0.078-0.01l-0.281,0.038l-0.049,0.027l-0.033-0.005l-0.038-0.025l-0.043-0.071l-0.027-0.028l-0.08-0.025l-0.144,0.032
	l-0.075-0.003l-0.064-0.032l-0.111-0.091l-0.552-0.294l-0.051-0.02h-0.049l-0.068,0.023l-0.027,0.002l-0.035-0.013l-0.057-0.035
	l-0.11-0.049l-0.058-0.04l-0.063-0.017l-0.11,0.042h-0.021l-0.049-0.016l-0.025-0.001l-0.007,0.016l-0.007,0.021l-0.03,0.031
	l-0.043,0.058l-0.026,0.02l-0.063,0.013l-0.497-0.086l-0.06-0.04l-0.054-0.064l-0.053-0.051h-0.057l-0.079,0.032l-0.033-0.02
	l-0.018-0.051l-0.032-0.059l-0.058-0.046l-0.136-0.076l-0.049-0.04l-0.039-0.07l-0.028-0.09l-0.014-0.091l0.002-0.074l-0.024-0.056
	l-0.079,0.007l-0.146,0.045l-0.021-0.022l-0.059-0.089l-0.031-0.038l-0.023-0.01l-0.072-0.014l-0.032-0.016l-0.054-0.05l-0.04-0.05
	l-0.045-0.043l-0.076-0.033l0.033-0.016l0.094-0.061l-0.271-0.146l-0.183-0.073l-0.064-0.084l-0.04-0.066l-0.156-0.251l-0.163-0.264
	l-0.01-0.01l-0.116-0.188l-0.261-0.423l-0.262-0.426l-0.262-0.425l-0.263-0.426l-0.113-0.182l-0.079-0.128l-0.054-0.088
	l-0.104-0.167l-0.39-0.629l-0.391-0.63l-0.392-0.632l-0.392-0.634l-0.394-0.635l-0.394-0.636l-0.395-0.637l-0.396-0.639
	l-0.396-0.638l-0.397-0.643l-0.397-0.642l-0.16-0.257l-0.239-0.387l-0.399-0.644l-0.4-0.647l-0.401-0.647l-0.402-0.648l0.489-0.291
	l0.49-0.29l0.488-0.29l0.489-0.29l0.488-0.288l0.489-0.29l0.489-0.289l0.49-0.287l0.489-0.288l0.489-0.289l0.49-0.287l0.489-0.287
	l0.49-0.287l0.49-0.287l0.491-0.286l0.49-0.285l0.127-0.074l-0.141-0.132l-0.149-0.1l-0.161-0.074l-0.358-0.114l-0.152-0.074
	l-0.119-0.121l-0.076-0.188l-0.039-0.241l-0.117-0.367l-0.108-0.349l-0.027-0.154l0.011-0.391l0.009-0.29l-0.013-0.094l-0.033-0.082
	l-0.156-0.176l-0.176-0.26l-0.105-0.087l-0.169-0.057l-0.167-0.085l-0.139-0.186l-0.34-0.636l-0.313-0.584l-0.04-0.266l-0.02-0.05
	l-0.084-0.098l-0.214-0.322l-0.098-0.087l-0.092-0.062l-0.081-0.067l-0.066-0.111l-0.031-0.102l-0.033-0.219v-0.252l-0.015-0.063
	l-0.042-0.073l-0.074-0.101l-0.031-0.058l-0.02-0.055l0.004-0.091l0.063-0.183l0.004-0.082l-0.034-0.052l-0.434-0.328l-0.09-0.101
	l-0.36-0.647l-0.087,0.031l-0.06-0.049l-0.084-0.184l-0.15-0.247l-0.033-0.088l-0.024-0.103l-0.055-0.058l-0.156-0.085l-0.071-0.062
	l-0.158-0.205l0.141-0.075l0.214-0.07l0.215-0.032l0.149,0.044l0.022,0.039l0.025,0.094l0.021,0.043l0.038,0.042l0.083,0.074
	l0.038,0.048l0.081,0.152l0.06,0.041l0.073-0.061l0.064-0.075l0.069-0.036l0.178-0.04l0.087-0.033l0.149-0.088l0.081-0.032
	l0.118-0.009l0.164,0.013l0.159,0.041l0.1,0.064l0.017,0.062l-0.011,0.058l-0.005,0.062l0.034,0.065l0.054,0.038l0.107,0.027
	l0.051,0.022l0.066,0.066l0.062,0.091l0.048,0.1l0.036,0.097l0.011,0.09l0.002,0.298l-0.016,0.089l-0.136,0.152l-0.022,0.078
	l0.081,0.061l0.084-0.004l0.169-0.096l0.082-0.029l0.124,0.007l0.218,0.059l0.104-0.004l0.099-0.046l0.075-0.067l0.128-0.167
	l0.037-0.025l0.049-0.023l0.038-0.032l0.005-0.052l-0.017-0.059l-0.009-0.051l0.003-0.052l0.016-0.055l0.025-0.039l0.077-0.074
	l0.03-0.047l0.013-0.066l0.011-0.151l0.018-0.071l0.114-0.16l0.303-0.177l0.135-0.127l0.205-0.335l0.136-0.155l0.163-0.074
	l0.543-0.391l0.209-0.195l0.262-0.432l0.113-0.097l0.077,0.021l0.067,0.096l0.061,0.118l0.062,0.088l0.022,0.045l-0.014,0.049
	l-0.063,0.086l-0.023,0.065l0.044,0.027l0.067,0.011l0.043,0.028l0.014,0.102l-0.024,0.069l-0.005,0.068l0.067,0.108l0.084,0.074
	l0.19,0.121l0.076,0.063l0.019,0.045l-0.014,0.102l0.008,0.054l0.023,0.042l0.057,0.073l0.318,0.304l0.082,0.055l0.056,0.02
	l0.038,0.001l0.037-0.014l0.051-0.031l0.059-0.018l0.044,0.014l0.04,0.028l0.057,0.015l0.299-0.011l0.11,0.028l0.02,0.02
	l0.015,0.022l0.014,0.025l0.028,0.131l0.06,0.047l0.077-0.003l0.078-0.051l0.025-0.043l0.007-0.044l0.014-0.042l0.045-0.037
	l0.035-0.04l-0.008-0.05l-0.015-0.054l0.016-0.046l0.188-0.098l0.193,0.017l0.199,0.053l0.208,0.01l0.082-0.026l0.232-0.132
	l0.042-0.03l0.057-0.087l0.024-0.025l0.049-0.017l0.028,0.004l0.028,0.013l0.329,0.07l0.106-0.015l0.083,0.016l0.134,0.106
	l0.09-0.004l0.058-0.021l0.687-0.407l0.112-0.014l0.112,0.011l0.105-0.003l0.139-0.094l0.107-0.003l0.049-0.025l0.033-0.046
	l0.046-0.104l0.03-0.044l0.134-0.113l0.151-0.091l0.113-0.022l0.102,0.02l0.1,0.031l0.107,0.021l0.173-0.03l0.339-0.16l0.171-0.052
	l0.105,0.006l0.101,0.02l0.088-0.004l0.071-0.067l0.024-0.1l0.004-0.104l0.029-0.091l0.103-0.061l0.201-0.084l0.147-0.138
	l0.102-0.187l0.057-0.23l-0.018-0.219l-0.187-0.38l-0.06-0.2l0.007-0.133l0.024-0.097l0.005-0.094l-0.06-0.125l-0.156-0.164
	l-0.05-0.084l0.02-0.095l0.032-0.027l0.097-0.034l0.039-0.025l0.122-0.142l0.164-0.115l0.089-0.113l0.023-0.02l0.13,0.07
	l0.155,0.184l0.139,0.211l0.076,0.157l0.313,0.339l1.031,0.086l0.385,0.253l0.115,0.171l0.534,0.513l0.114,0.056l0.32,0.073
	l0.033,0.007l0.285,0.111l0.135-0.022l0.188-0.084l0.18-0.114l0.108-0.106l0.038-0.11l0.013-0.087l0.033-0.065l0.107-0.045
	l0.101-0.013l0.31,0.022l0.103,0.049l0.076,0.105l0.077,0.081l0.106-0.021l0.064-0.055l0.059-0.037l0.313-0.135l0.05,0.004
	l0.034,0.031l0.032,0.039l0.04,0.029l0.144,0.031l0.045-0.06l0.024-0.099l0.085-0.085l0.097-0.007l0.097,0.032l0.098,0.015
	l0.106-0.061l0.072-0.058l0.084-0.039l0.089-0.017l0.092,0.004l0.504,0.133l0.107,0.066l0.196,0.179l0.104,0.073l0.219,0.083
	l0.087,0.062l0.06,0.117l-0.007,0.101l-0.037,0.087l-0.006,0.086l0.088,0.101l0.146,0.073l0.14,0.048l0.121,0.071l0.137,0.224
	l0.064,0.019l0.062-0.031l0.047-0.064l0.011-0.077l-0.011-0.161l0.032-0.066l0.21-0.061l0.258,0.093l0.477,0.239l0.106,0.026
	l0.055,0.033l0.12,0.142l0.027,0.012l0.065-0.009l0.024,0.01l0.01,0.025l0.007,0.059l0.01,0.021l0.014,0.018l0.02,0.05l0.018,0.023
	l0.026,0.012l0.026-0.006l0.025-0.007l0.018,0.002l0.119,0.135l0.052,0.003l0.08-0.039l0.046-0.003l0.082,0.042l0.469,0.591
	l0.163,0.15l0.189,0.063l0.09,0.041l0.072-0.021l0.064-0.057l0.058-0.07l0.074-0.042l0.029-0.017l0.091-0.073l0.096-0.055
	l0.112-0.004l0.065,0.035l0.063,0.053l0.063,0.034l0.067-0.021l0.028-0.049l0.024-0.145l0.036-0.063l0.068-0.092l0.145-0.298
	l0.44-0.552l0.053-0.102l0.106-0.369l0.07-0.096l0.097-0.046l0.098,0.004l0.1,0.025l0.105,0.012l0.051-0.021l0.028-0.03l0.032-0.018
	l0.062,0.029l0.033,0.04l0.019,0.053l0.008,0.054l-0.002,0.043l-0.018,0.039l-0.062,0.061l-0.011,0.048l0.015,0.042l0.053,0.085
	l0.015,0.046l-0.017,0.027l-0.035,0.03l-0.018,0.041l0.031,0.062l0.042,0.045l0.048,0.038l0.05,0.03l0.055,0.02l0.081,0.005
	l0.106-0.01l0.184-0.04l0.26-0.139l0.054-0.045l-0.012-0.175l-0.254-0.497l-0.346-0.672l-0.328-0.641l-0.348-0.678l-0.406-0.793
	l-0.348-0.681l-0.39-0.758l-0.273-0.532l-0.249-0.486l-0.001-0.003l-0.008-0.014l-0.006-0.009l-0.166,0.113l-0.069,0.082
	l-0.079,0.185l-0.156,0.226l-0.062,0.053l-0.058-0.002l-0.113-0.038l-0.063,0.007l-0.056,0.031l-0.027,0.036l-0.028,0.094
	l-0.051,0.097l-0.144,0.165l-0.036,0.086l0.004,0.071l0.045,0.206l0.039,0.114l0.006,0.051l0.014,0.041l0.034,0.027l0.209,0.104
	l0.077-0.01l0.065-0.029l0.061-0.003l0.062,0.071l0.03,0.093l-0.007,0.09l-0.039,0.075l-0.073,0.053l-0.035,0.004l-0.026-0.009
	l-0.024-0.011l-0.028-0.002l-0.028,0.013l-0.055,0.036l-0.027,0.013l-0.131,0.016l-0.221-0.01l-0.036,0.012l-0.163,0.085
	l-0.052,0.017l-0.047,0.005l-0.075-0.021l-0.118-0.048h-0.053l-0.326,0.19l-0.084,0.082l-0.063,0.088l-0.043,0.087l-0.09-0.063
	l-0.059,0.047l-0.049,0.075l-0.061,0.029h-0.054l-0.03,0.017l-0.024-0.001l-0.039-0.056l-0.033-0.041l-0.681-0.484l-0.181-0.086
	l-0.316-0.014l-0.065-0.033l-0.062-0.076l-0.091-0.062l-0.095-0.045l-0.077-0.022l-0.188-0.006l-0.081-0.017l-0.059-0.058
	l-0.08-0.119l-0.056-0.015l-0.13,0.102l-0.097,0.022l-0.263-0.01l-0.077-0.016l-0.161-0.13l-0.079-0.014l-0.063,0.113l-0.035-0.035
	l-0.095-0.062l-0.032-0.014l-0.055-0.015l-0.049-0.005l-0.044,0.021l-0.038,0.062l-0.08-0.046l-0.15-0.203l-0.076-0.02l-0.075,0.014
	l-0.063-0.039l-0.208-0.293l-0.037-0.039l-0.092-0.029l-0.051-0.026l0.006-0.027l-0.021-0.047l-0.216-0.232l-0.046-0.028
	l-0.096-0.034l-0.055-0.03l-0.12-0.108l-0.041-0.023l-0.057-0.062l-0.136-0.241l-0.032-0.088l0.028-0.458l0.003-0.026l0.05-0.131
	l0.014-0.025l-0.122-0.152l-0.036-0.112l0.002-0.088l0.013-0.07l-0.018-0.219l-0.087-0.152l-0.021-0.052l-0.005-0.032l0.005-0.077
	l-0.013-0.049l-0.033-0.056l-0.174-0.222l-0.021-0.046l0.011-0.122l-0.006-0.142l-0.011-0.059l-0.022-0.05l-0.06-0.094l-0.02-0.049
	l0.002-0.056l0.027-0.122l-0.012-0.059l-0.016-0.054l-0.01-0.116l-0.018-0.055l-0.108-0.206l-0.037-0.12l-0.02-0.127l0.001-0.129
	l0.025-0.121l0.008-0.063l-0.024-0.118l0.001-0.148l0.006-0.035l0.018-0.024l0.053-0.025l0.021-0.02l0.031-0.084l0.025-0.108
	l0.007-0.114l-0.028-0.107l-0.036-0.017l-0.141-0.029l-0.048-0.035l-0.021-0.058l-0.029-0.11l-0.03-0.055l-0.165-0.067l-0.099-0.055
	l-0.035-0.064l-0.007-0.053l-0.071-0.052l-0.006-0.055l0.002-0.055l-0.013-0.063l-0.024-0.063l-0.034-0.052l-0.078-0.074
	l-0.077-0.054l-0.075-0.064l-0.075-0.11l-0.04-0.105l-0.015-0.087l-0.027-0.079l-0.071-0.079l-0.008,0.002l-0.05-0.004l-0.014-0.003
	l-0.025-0.019l-0.034-0.045l-0.02-0.017l-0.212-0.055l-0.008-0.109l0.032-0.19l-0.013-0.18l-0.061-0.204l-0.187-0.381l-0.209-0.321
	l-0.037-0.11l-0.034-0.375l-0.066-0.228l-0.005-0.104l0.058-0.079l-0.003-0.026l-0.175-0.063l-0.046-0.064l-0.041-0.012
	l-0.043,0.005l-0.06-0.009l-0.105-0.061l-0.075-0.08l-0.121-0.217l-0.036-0.046l-0.088-0.077l-0.033-0.042l-0.051-0.054
	l-0.132-0.056l-0.042-0.035l0.009-0.036l0.075-0.089l0.008-0.052l-0.129,0.077l-0.063,0.006l-0.053-0.052l-0.044-0.078l-0.041-0.058
	l-0.045-0.042l-0.056-0.034l-0.144-0.027l-0.079-0.024l-0.06-0.063l-0.03-0.071l-0.037-0.092l-0.055-0.081l0.065,0.041l0.057,0.081
	l0.018,0.09l0.073-0.067l0.115-0.18l0.097-0.095l0.026-0.041l0.031-0.027h0.051l0.044,0.015l0.036,0.005l0.029-0.021l0.026-0.053
	l0.253,0.095l0.094-0.006l-0.013-0.151l-0.093,0.016l-0.039-0.075l-0.03-0.188l-0.056-0.074l-0.085-0.044l-0.04-0.077l-0.009-0.075
	l0.011-0.073l0.038-0.126l0.006-0.067l-0.016-0.142l0.004-0.082l0.066-0.16l0.024-0.097l-0.047-0.233l0.027-0.144l0.087-0.262
	v-0.123l-0.022-0.125l-0.01-0.11l0.047-0.073l0.062-0.069l0.114-0.226l0.023-0.07l-0.002-0.169l-0.072-0.372l-0.003-0.42
	l-0.125-0.868l-0.035-0.093l-0.067-0.065l-0.117-0.058l-0.136-0.045l-0.373-0.039l-0.248-0.051l-0.121-0.008l-0.111,0.03
	l-0.091,0.012l-0.188-0.052l-0.069,0.029l0.069-0.093l0.459-0.371l0.662-0.536l0.604-0.489l0.806-0.651l0.063-0.052l1.021-0.823
	l1.022-0.825l0.777-0.626l0.946-0.761l0.081,0.161l0.019,0.077l0.009,0.066l0.023,0.054l0.069,0.039l-0.092,0.098l-0.093,0.134
	l-0.072,0.152l-0.028,0.161l0.015,0.189l0.052,0.206l0.099,0.152l0.166,0.033l0.04,0.113h0.093l0.098-0.071l0.119-0.168l0.084-0.018
	l0.063,0.05l-0.002,0.122l0.021,0.013l0.044,0.035l-0.037,0.06l-0.04,0.096l-0.021,0.083l0.021,0.018l0.066-0.043l0.047-0.049
	l0.072-0.095l0.058-0.102l0.051-0.122l0.034-0.141l0.004-0.146l-0.026,0.035l-0.021,0.016l-0.062,0.011l-0.007-0.075l-0.003-0.01
	l0.022-0.033l0.033-0.03l0.092-0.053l0.043-0.004l0.021,0.036l0.026,0.106l0.048,0.059l0.043-0.011l0.043-0.032l0.054-0.015
	l0.038,0.021l0.03,0.029l0.034,0.026l0.052,0.015l0.09-0.034l0.092-0.061l0.084-0.031l0.064,0.046l0.059,0.04l0.285,0.048
	l1.15,0.492l0.081-0.032l0.067-0.106l0.058-0.121l0.051-0.071l-0.028-0.042l-0.018-0.048l0.001-0.043l0.045-0.059l0.002-0.041
	l-0.003-0.038l0.003-0.029l0.022-0.078l0.021-0.025l0.072,0.077l0.088,0.022l0.039,0.039l0.033-0.07l-0.004-0.097l-0.025-0.101
	l-0.034-0.081l-0.026-0.031l-0.077-0.06l-0.025-0.028l-0.007-0.039v-0.096l-0.014-0.046l-0.061-0.065l-0.132-0.01L1262.873,758.79z"
	/></svg>