<?xml version="1.0" encoding="utf-8"?>
<!-- Generator: Adobe Illustrator 15.0.0, SVG Export Plug-In . SVG Version: 6.00 Build 0)  -->
<!DOCTYPE svg PUBLIC "-//W3C//DTD SVG 1.1//EN" "http://www.w3.org/Graphics/SVG/1.1/DTD/svg11.dtd">
<svg version="1.1" id="Ebene_1" xmlns="http://www.w3.org/2000/svg" xmlns:xlink="http://www.w3.org/1999/xlink" x="0px" y="0px"
	 width="1920px" height="1080px" viewBox="0 0 1920 1080" enable-background="new 0 0 1920 1080" xml:space="preserve">

<path fill="#F4E0B6" stroke="#FFFFFF" d="M1086.504,718.872l-0.066,0.171l-0.136,0.777l0.02,0.268l-0.006,0.095l-0.006,0.334
	l0.046,0.119l0.117,0.111l1.263,0.934l0.152,0.067l0.041-0.012l0.042-0.031l0.006-0.001l0.038-0.017l0.055,0.023l0.016,0.232
	l0.037,0.116l0.053,0.099l0.065,0.081l0.077,0.07l0,0l0.248,0.433l0.044,0.162l-0.015,0.334l0.024,0.097l0.044,0.053l0.052,0.026
	l0.055,0.02l0.05,0.028l0.041,0.046l0.101,0.157l0.064,0.038l0.066-0.009l0.072-0.018l0.072,0.01l0.076,0.084l0.072,0.146
	l0.042,0.13l0.053,0.166l0.011,0.163l-0.037,0.329l0.003,0.166l0.082,0.281v0.116l-0.04,0.138l-0.071,0.049l-0.36-0.032
	l-0.107,0.027l-0.083,0.08l-0.061,0.15l-0.016,0.065l-0.003,0.041l0.028,0.11l0.002,0.073l-0.056,0.269l-0.021,0.294l0.035,0.1
	l0.107,0.091l0.443,0.223l0.064,0.047l0.04,0.08l0.018,0.104l0.006,0.033l-0.006,0.141l-0.044,0.079l-0.059,0.071l-0.049,0.118
	l-0.004,0.104l0.116,0.483l-0.016,0.133l-0.089,0.286l-0.047,0.322l-0.057,0.131l-0.3,0.106l-0.17,0.148l-0.297,0.33l-0.058,0.104
	l-0.008,0.132l0.027,0.13l0.049,0.1l0.112,0.142l0.091,0.149l0.01,0.161l-0.126,0.177l-0.088,0.036l-0.1,0.026l-0.069,0.064
	l0.004,0.156l0.018,0.033l0.048,0.059l0.003,0.031l-0.16,0.584l-0.025,0.053l-0.069,0.069l-0.026,0.047l-0.04,0.218l0.028,0.164
	l0.079,0.139l0.115,0.146l0.046,0.085l0.109,0.363l0.005,0.13l-0.033,0.267l0.013,0.654l-0.021,0.213l-0.09,0.152l-0.304,0.264
	l-0.057,0.029l-0.058-0.003l-0.058-0.015l-0.063-0.002l-0.056,0.018l-0.148,0.08l-0.048,0.038l-0.041,0.063l-0.026,0.07
	l-0.035,0.063l-0.062,0.043l-0.388,0.149l0.061,0.142l0.097,0.363l0.019,0.166l-0.005,0.043l-0.026,0.123l-0.009,0.017l0.022,0.042
	l0.024,0.003l0.027-0.003l0.03,0.031l0.023,0.088l-0.012,0.19l0.008,0.097l0.021,0.046l0.052,0.076l0.009,0.053l-0.018,0.042
	l-0.069,0.084l-0.015,0.058l0.017,0.061l0.002,0.007l0.511,1.338l0.062,0.159l0.02,0.212l-0.02,0.087l-0.061,0.177l-0.004,0.084
	l0.014,0.05l0.044,0.101l0.017,0.053l0.032,0.256l0.027,0.112l0.059,0.127l0.076,0.108l0.169,0.188l0.069,0.106l0.035,0.127
	l-0.008,0.124l-0.022,0.122l-0.009,0.116l0.019,0.11l0.092,0.351l0.047,0.395l0.09,0.373l-0.003,0.061l-0.017,0.134l0.002,0.051
	l0.01,0.025l0.01,0.02l0.062,0.051l0.104,0.139l0.166,0.094l0.069,0.06l0.037,0.076l0.188,0.804l0.046,0.196l0.094,0.214
	l0.165,0.166l0.207,0.13l0.174,0.157l0.061,0.25l0.004,0.058l0.006,0.035l-0.013,0.02l-0.115,0.028l-0.053,0.026l-0.029,0.045
	l0.007,0.07l0.535,1.382l0.02,0.084v0.063l-0.021,0.081l-0.013,0.135l-0.01,0.049l0.007,0.043l0.042,0.067l0.063,0.041l0.168,0.059
	l0.045,0.042v0.073l-0.042,0.058l-0.057,0.055l-0.049,0.063l-0.065,0.277l0.079,0.205l0.136,0.19l0.1,0.233l0.02,0.274l0.025,0.134
	l0.061,0.104l0.056,0.039l0.054,0.016l0.057-0.009l0.064-0.026l0.037,0.013l0.027,0.055l0.1,0.264l-0.009,0.081l-0.047,0.078
	l-0.063,0.144l-0.019,0.155l0.034,0.123l0.117,0.227l0.027,0.131l0.003,0.366l0.001,0.066l0.019,0.13l0.041,0.287l0.105,0.363
	l-0.002,0.001l-1.936,1.248l-0.373,0.315l-1.673,1.128l-1.246,1.062l-0.073-0.106l0.087-0.121l0.604-0.521l0.104-0.062l-0.225-0.393
	l-0.229-0.401l-0.203-0.181l-0.055-0.018l-0.128-0.01l-0.043-0.016l-0.026-0.046l-0.024-0.136l-0.023-0.056l-0.047-0.035
	l-0.108-0.039l-0.025-0.035l-0.026-0.064l-0.041,0.003l-0.048,0.032l-0.051,0.017l-0.049-0.007l-0.053-0.019l-0.054-0.026
	l-0.045-0.034l-0.034-0.055l-0.013-0.056l-0.005-0.056l-0.015-0.045l-0.09-0.093l-0.085-0.029l-0.051-0.051l0.004-0.155l0.041-0.156
	l0.022-0.085l-0.006-0.102l-0.072-0.131l-0.073-0.102l-0.053-0.093l-0.031-0.1l-0.034-0.271l-0.033-0.078l-0.064-0.041l-0.094-0.027
	l-0.011-0.003l-0.086-0.07l-0.22-0.372l0.385-0.192l0.083-0.078l-0.253-0.871l-0.25-0.859l-0.256-0.878l-0.168-0.578l-0.146-0.506
	l-0.029-0.103l-0.338-1.16l-0.269-0.923l-0.253-0.935l-0.182-0.668l-0.195-0.472l-0.042-0.041l-0.032,0.003l0,0l-0.021-0.017
	l-0.017-0.154l-0.029-0.1l-0.006-0.053l0.076-0.393l-0.011-0.111l-0.037-0.045l-0.184-0.125l-0.044-0.052l-0.027-0.064l-0.051-0.171
	l-0.229-0.768l-0.159-0.529l-0.186-0.622l-0.213-0.712l-0.072-0.143l-0.079-0.119l-0.161-0.155l-0.413-0.219l-0.532-0.28
	l-0.038-0.032l-0.141-0.119l-0.138-0.193l-0.197-0.56l-0.103-0.134l-0.072,0.089l-0.098-0.05l-0.089-0.114l-0.049-0.109
	l-0.001-0.083l0.046-0.195l0.01-0.087l-0.01-0.062l-0.035-0.114l-0.004-0.062l-0.012-0.071l-0.114-0.246l-0.131-0.438l-0.183-0.612
	l-0.123-0.411l-0.014-0.044l-0.118-0.162l-0.633-0.144l-0.858-0.192l-0.51-0.115l-0.347-0.078l-0.569-0.129l-0.453-0.104
	l-0.063-0.066l-0.04-0.127l-0.091-0.612l-0.014-0.347l-0.057-0.221l-0.179-0.487l0.019-0.22l0.19-0.412l0.035-0.133v-0.064
	l-0.028-0.132l-0.007-0.063l0.031-0.201l-0.024-0.058l-0.072-0.093l-0.028-0.055l-0.016-0.117l0.031-0.402l0.176,0.022l0.069-0.021
	l0.088-0.04l0.013-0.04l-0.006-0.071l-0.023-0.062l-0.036-0.018l-0.045-0.003l-0.032-0.042l-0.02-0.062l-0.01-0.059l0.013-0.02
	l0.023-0.091l0.01-0.08l0.019-0.064l0.02-0.02l0.025-0.003l0.112-0.031l0.041,0.012l0.032,0.014h0.029l0.018,0.005l0.042,0.043
	l0.013,0.007l0.029-0.016l0.045-0.054l0.018-0.016l0.156-0.054l0.056-0.004l0.021,0.022l0.051,0.039l0.047,0.02l0.009-0.032
	l-0.02-0.091l-0.073-0.039l-0.048-0.044l-0.024-0.058l-0.019-0.062l-0.029-0.062l-0.009,0.006l-0.053-0.002l-0.018-0.004
	l-0.011-0.025l-0.011-0.072l-0.012-0.02l-0.05,0.01l-0.021,0.046l-0.017,0.016l-0.028-0.081l0.022-0.024l0.15-0.116l0.021-0.036
	l0.007-0.116l0.014-0.038l0.052-0.023l0.112,0.007l0.057-0.004l-0.053-0.086l-0.072-0.178l-0.139-0.125l0.006-0.079l0.036-0.079
	l0.026-0.11l0.059,0.02l0.055,0.046l0.001,0.031l0.043-0.02l0.021-0.025l0.021-0.029l0.04-0.031l0.094-0.037l0.087-0.013
	l0.186,0.011l0.027-0.156l-0.005-0.047l-0.026-0.049l-0.063-0.031l-0.024-0.037l0.007-0.079l0.063,0.006l0.077,0.045l0.048,0.045
	l0.021-0.061l0.03-0.032l0.039-0.001l0.047,0.03l0.063-0.12l-0.03-0.065l-0.069-0.054l-0.054-0.081l0.012-0.125l0.079-0.114
	l0.094-0.105l0.064-0.093l-0.079-0.097l-0.007-0.047l0.021-0.084l0.049-0.083l0.053-0.049l0.002-0.002l0.041-0.053l0.006-0.093
	l0.094,0.013l0.1-0.021l0.469-0.174v0.042l0.012,0.082l0.002,0.04l0.083-0.045l0.161,0.162l0.085-0.08l0.068-0.089l0.21-0.157
	l0.078-0.093l0.068-0.062l0.219-0.083l0.09-0.05l0.166-0.175l0.087-0.064l0.091-0.012l0.037-0.056l0.062-0.019l0.145,0.007
	l0.23-0.007l0.175-0.065l0.112-0.132l0.016-0.037l0.424-1.015l0.257-0.483l0.211-0.282l0.045-0.102l0.002-0.061l-0.021-0.056
	l-0.025-0.096l0.007-0.178l0.117-0.315l0.025-0.172l0.019-0.601l-0.025-0.051l-0.084-0.067l-0.023-0.056l0.006-0.082l0.038-0.03
	l0.047-0.014l0.038-0.032l0.02-0.057l0.014-0.094l0.023-0.055l0.046-0.028l0.056-0.002l0.033-0.024l-0.024-0.094l-0.03-0.063
	l-0.038-0.01l-0.05,0.008l-0.058-0.001l-0.063-0.021l-0.046-0.028l-0.044-0.042l-0.308-0.427l-0.136-0.276l-0.04-0.12l0.014-0.112
	l0.098-0.111l0.064-0.041l0.109-0.045l0.06-0.035l0.007-0.02l0.022-0.078l0.019-0.031l0.038-0.007l0.035,0.019l0.027-0.003
	l0.012-0.068l0.002-0.076l0.028-0.03l0.047-0.015l0.057-0.022l0.018,0.005l0.016,0.026l0.021,0.017l0.035-0.02l0.021-0.029
	l0.03-0.066l0.018-0.024l0.153-0.131l0.02-0.004l0.049,0.007l0.023-0.008l0.024-0.028l0.044-0.073l0.03-0.022l0.183-0.029
	l0.035-0.048l0.031-0.146l0.004-0.049l-0.004-0.046l0.002-0.045l0.017-0.044l0.044-0.045l0.063,0.015l0.045-0.037l0.031-0.06
	l0.046-0.136l0.041-0.063l0.043-0.03l0.097-0.041l0.046-0.033l0.11-0.056l0.032-0.106l0.294,0.117l0.114,0.013l0.063,0.035
	l0.057,0.048l0.067,0.104l0.051,0.026l0.062,0.006l0.063-0.003l0.162-0.053l0.044-0.004l0.026,0.018l0.075,0.078l0.287,0.222
	l1.063,0.441l0.022,0.02l0.081,0.025l0.022,0.021l0.048,0.108l0.06,0.109l0.064,0.081l0.17,0.151l0.094,0.055l0.052,0.022
	l0.072,0.017l0.071-0.013l0.054-0.063l0.052-0.074l0.061-0.015l0.06,0.01l0.06-0.006l0.257,0.046l0.193-0.014l0.064,0.016
	l0.051,0.022l0.235,0.176l0.041,0.018l0.032,0.004l0.027,0.011l0.031,0.034l0.051,0.074l0.029,0.03l0.023,0.044l0.029,0.033
	l0.047,0.004l0.069,0.064L1086.504,718.872z"/></svg>