<?xml version="1.0" encoding="utf-8"?>
<!-- Generator: Adobe Illustrator 15.0.0, SVG Export Plug-In . SVG Version: 6.00 Build 0)  -->
<!DOCTYPE svg PUBLIC "-//W3C//DTD SVG 1.1//EN" "http://www.w3.org/Graphics/SVG/1.1/DTD/svg11.dtd">
<svg version="1.1" id="Ebene_1" xmlns="http://www.w3.org/2000/svg" xmlns:xlink="http://www.w3.org/1999/xlink" x="0px" y="0px"
	 width="1920px" height="1080px" viewBox="0 0 1920 1080" enable-background="new 0 0 1920 1080" xml:space="preserve">

<path fill="#F4E0B6" stroke="#FFFFFF" d="M1211.161,545.178l0.056,0.007l0.121,0.063l0.026,0.04l-0.063,0.025l-0.036,0.021
	l-0.049,0.009l-0.156,0.007l-0.083,0.032l-0.097,0.062l-0.064,0.063l-0.082-0.09v-0.001l-0.015-0.082l0.05-0.056l0.16-0.078
	l0.067-0.025l0.044-0.001l0.065-0.005L1211.161,545.178z M1208.766,543.871l1.12,0.21l0.165,0.08l0.123,0.169l0.039,0.155l0.013,0.2
	l-0.023,0.202l-0.066,0.158l-0.023,0.019l-0.128,0.09l-0.16-0.019l-0.347-0.147l-0.343-0.104l-0.039-0.004l-0.037-0.004
	l-0.097,0.021l-0.058-0.014l0,0l0.023-0.094l0.02-0.051l0.027-0.104l0.026-0.039l-0.007-0.03l-0.094-0.131l-0.067,0.025l-0.03,0.02
	l-0.029,0.027h-0.001l-0.017-0.077l0.048-0.036l0.123-0.022l0.04-0.026l0.041-0.041l0.004-0.045l-0.068-0.036l0.034-0.074
	l0.021-0.067l-0.018-0.042l-0.081,0.013h-0.001l-0.041,0.028l-0.024,0.055l-0.043,0.013l-0.035-0.009l-0.042-0.029l-0.037-0.032l0,0
	l-0.02-0.026l0,0l-0.056,0.05h-0.014l-0.02,0.002l-0.01-0.037l0.014-0.063l0.028-0.058l0.042-0.042l0.056-0.026L1208.766,543.871z
	 M1208.307,544.353l-0.02,0.023l-0.036,0.009l-0.039-0.007l-0.024-0.017l0.017-0.067l-0.013-0.138l0.019-0.049l0.108-0.125l0,0
	l0.053-0.039l0.023,0.042l-0.043,0.124l-0.003,0.036l0.005,0.064l-0.001,0.023L1208.307,544.353z M1208.894,545.022l0.217,0.039
	l0.08-0.079l0.2,0.103l0.218,0.086l0.307,0.06l0.188,0.079l0.055,0.079l-0.063,0.072l-0.181,0.063l-0.104,0.021l-0.052-0.013
	l-0.07,0.046l-0.093,0.054l-0.065,0.04l-0.16,0.193l-0.022,0.157l-0.009,0.146l-0.1,0.271l-0.024,0.234l0.027,0.164l0.011,0.141
	l-0.086,0.191l0.037,0.063l0.018,0.077l0.077-0.056l0.101-0.124l0.073-0.092l0.046-0.089l0.051-0.09l0.068-0.014l-0.037,0.136
	l0.039,0.041l0.024,0.064l0.125-0.02l0.055-0.048l0.042-0.073l0.051-0.084l-0.058-0.098l0.029-0.061l0.078-0.035l0.023-0.099
	l-0.015-0.08l0.029-0.067h0.042l0.11,0.02l0.016,0.003l0.084-0.002l0.044-0.018l0.115-0.049l0.099-0.126l0.12,0.168l0.056,0.065
	l0.106,0.09l0.178,0.119l0.093,0.045l0.107,0.026l0.083,0.054l0.521,0.391l0.165,0.064l0.375,0.079h0.089l0.162-0.071l0.059,0.044
	l0.049,0.078l0.062,0.071l0.092,0.044l0.198,0.037l0.059,0.024l0.079,0.018l0.105-0.037l0.159-0.09l0.019,0.078l0.044,0.073
	l0.063,0.058l0.076,0.04l-0.08,0.012l-0.032,0.001l0.022,0.029l0.02,0.015h0.027l0.044-0.012l0.003,0.051l-0.007,0.021l-0.018,0.006
	l-0.023,0.001l-0.022,0.019l0.064,0.074l0.046-0.008l0.025-0.061l-0.001-0.076l0.042,0.027l0.171,0.15l0.051,0.031l0.071,0.022
	l0.11,0.019l0.073,0.003h0.002l-0.573,0.51l-0.573,0.505l-0.572,0.508l-0.572,0.504l-0.173,0.151l-0.112-0.067l-0.116-0.006
	l-0.121,0.018h-0.125l-0.122-0.035l-0.14-0.062l-0.129-0.077l-0.186-0.173l-0.096-0.071l-0.608-0.298l-0.387-0.112l-0.099-0.026l0,0
	h-0.002h-0.001l-0.199,0.134l-0.358,0.237l-0.356,0.235l-0.357,0.236l-0.356,0.235l-0.398,0.267l-0.396,0.263l-0.396,0.265
	l-0.397,0.265l0.005-0.176l0.017-0.911l-0.092-0.484l0.011-0.384l-0.016-0.107l-0.12-0.312l-0.104-0.57l-0.057-0.181l-0.024-0.04
	l-0.084-0.112l-0.029-0.063l-0.072-0.302l-0.329-0.871l-0.026-0.237l0.068-0.248l0.324-0.639l0.163-0.179l0.815-0.714l0.213-0.127
	l0.988-0.283l0.076,0.035l0.082,0.023l0.094,0.038l0.082,0.06l0.12,0.124l0.086,0.071l0.147,0.074L1208.894,545.022z"/></svg>