<?xml version="1.0" encoding="utf-8"?>
<!-- Generator: Adobe Illustrator 15.0.0, SVG Export Plug-In . SVG Version: 6.00 Build 0)  -->
<!DOCTYPE svg PUBLIC "-//W3C//DTD SVG 1.1//EN" "http://www.w3.org/Graphics/SVG/1.1/DTD/svg11.dtd">
<svg version="1.1" id="Ebene_1" xmlns="http://www.w3.org/2000/svg" xmlns:xlink="http://www.w3.org/1999/xlink" x="0px" y="0px"
	 width="1920px" height="1080px" viewBox="0 0 1920 1080" enable-background="new 0 0 1920 1080" xml:space="preserve">

<path fill="#F4E0B6" stroke="#FFFFFF" d="M1530.877,227.992l0.057,0.038l0.158,0.026l0.042,0.023l0.071,0.053l0.041,0.021
	l0.037,0.003l0.095-0.014l0.051,0.009l0.073,0.05l0.043,0.07l0.02,0.084l0.009,0.095l0.015,0.061l0.017,0.022l-0.01,0.004
	l-0.07,0.008l-0.032-0.003l-0.095-0.026l-0.04-0.007l-0.092,0.009l-0.093,0.026l-0.09,0.039l-0.076,0.048l-0.071,0.067l-0.031,0.062
	l0.001,0.066l0.035,0.083l0.059,0.071l0.146,0.111l0.039,0.066l-0.034,0.147l-0.131,0.122l-0.307,0.131l-0.024-0.091l-0.162-0.41
	l-0.009-0.086l-0.034-0.064l-0.166-0.123l-0.053-0.051l-0.072-0.155l-0.101-0.334l-0.086-0.487l-0.031-0.057l-0.06-0.047
	l-0.018-0.099l-0.003-0.123v-0.001l0.109,0.005l0.299,0.102l0.188,0.041l0.047,0.023l0.021,0.018l0.018,0.021l0.133,0.107
	l0.133,0.158l0.025,0.047v0.023L1530.877,227.992z M1525.817,213.908l0.017-0.122l-0.009-0.123l-0.044-0.094l-0.115-0.168
	l-0.015-0.036l0.019-0.063l0.036-0.021l0.05-0.007l0.055-0.027l0.074-0.098l0.076-0.218l0.074-0.087l0.111-0.021l0.094,0.062
	l0.288,0.403l0.246,0.261l0.375,0.505l0.334,0.364l0.056,0.041l0.002,0.061l0.074,0.358l0.244,0.351l0.072,0.152l0.033,0.762
	l0.026,0.112l0.027,0.062l0.114,0.16l0.017,0.039l0.009,0.043l0.002,0.11l0.02,0.054l0.238,0.222l0.331,0.22l0.164,0.195l0.06,0.216
	l0.139,1.328l0.059,0.145l0.033,0.083l0.267,0.399l0.356,0.536l0.029,0.096l-0.059,0.284l0.005,0.099l0.031,0.058l0.095,0.118
	l0.02,0.061l-0.007,0.204l0.024,0.105l0.185,0.336v0.09l-0.048,0.246l0.016,0.082l0.085,0.109l0.06,0.108l0.117,0.328l0.201,0.559
	l0.113,0.188l0.225,0.277l0.06,0.142l0.075,0.067l0.146,0.107l0.063,0.06l0.044,0.058l0.026,0.073l0.011,0.23l0.028,0.098
	l0.055,0.088l0.088,0.094l0.128,0.183l-0.332,0.019l-0.081,0.014l-0.194,0.09l-0.039,0.001l-0.084-0.019l-0.034,0.003l-0.037,0.023
	l-0.075,0.096l-0.118,0.105l-0.063,0.028l-0.095,0.018l-0.188,0.011l-0.16-0.035l-0.107-0.092l-0.026-0.163l0.004-0.1l0.011-0.033
	l0.029-0.031l0.075-0.051l0.021-0.028l0.007-0.07l-0.031-0.045l-0.046-0.048l-0.042-0.08l-0.004-0.055l0.013-0.12l-0.02-0.042
	l-0.052-0.021l-0.027,0.003l-0.031,0.004l-0.058,0.015l-0.052,0.004l-0.34-0.119l-0.119-0.014l-0.108,0.03l-0.089,0.062
	l-0.074,0.083l-0.061,0.086l-0.037,0.032l-0.033,0.015l-0.015,0.021l0.023,0.053l0.03,0.021l0.105,0.032l0.04,0.021l0.062,0.073
	l0.105,0.244l0.086,0.134l0.027,0.067l0.004,0.089l-0.024,0.07l-0.051,0.052l-0.07,0.034l-0.085,0.017l-0.093-0.016l-0.184-0.084
	l-0.134,0.001l0,0l-0.101-0.179l-0.109-0.114l-0.392-0.279l-0.084-0.03l-0.048-0.05l-0.083-0.229l-0.067-0.08l-0.095-0.029
	l-0.49-0.08l-0.124-0.056l-0.11-0.075l-0.074-0.088l-0.035-0.103l-0.031-0.229l-0.054-0.101l-0.009-0.041l0.034-0.177l-0.015-0.058
	l-0.092-0.156l-0.094-0.337l-0.01-0.101l0.034-0.323l-0.021-0.104l-0.125-0.282l-0.014-0.123l0.046-0.123l-0.002-0.059l-0.146-0.151
	l0.047-0.086l0.009-0.146l-0.04-0.273l-0.19-0.604l-0.008-0.236l0.118-0.506l0.112-0.187l0.02-0.131l-0.021-0.112l-0.065-0.218
	l-0.006-0.043l-0.007-0.066l0.004-0.224l-0.025-0.203l-0.054-0.109l-0.164-0.239l-0.045-0.165l-0.097-0.177l-0.01-0.056l0.002-0.099
	l-0.024-0.056l0.076-0.081l0.051-0.101l0.029-0.111l0.013-0.115l0.03-0.07l0.198-0.16l-0.07-0.215l-0.187-0.406l-0.035-0.136
	l-0.069-0.103l-0.02-0.043l0.001-0.056l0.033-0.081l0.007-0.035l-0.043-0.224l-0.099-0.227l-0.386-0.561l-0.049-0.118l0.024-0.083
	l0.065-0.069l0.197-0.329L1525.817,213.908z M1525.31,221.375l0.014,0.048l-0.024,0.019l-0.021,0.031l-0.059,0.154l-0.043,0.06
	l-0.066,0.045l-0.053,0.011l-0.055-0.02l-0.072-0.046l-0.064-0.069l-0.143-0.192l-0.069-0.043l-0.095-0.065l-0.141-0.14
	l-0.096-0.146l0.046-0.085l0.177,0.062l0.515,0.248l0.167,0.051l0.045,0.027L1525.31,221.375z"/></svg>