<?xml version="1.0" encoding="utf-8"?>
<!-- Generator: Adobe Illustrator 15.0.0, SVG Export Plug-In . SVG Version: 6.00 Build 0)  -->
<!DOCTYPE svg PUBLIC "-//W3C//DTD SVG 1.1//EN" "http://www.w3.org/Graphics/SVG/1.1/DTD/svg11.dtd">
<svg version="1.1" id="Ebene_1" xmlns="http://www.w3.org/2000/svg" xmlns:xlink="http://www.w3.org/1999/xlink" x="0px" y="0px"
	 width="1920px" height="1080px" viewBox="0 0 1920 1080" enable-background="new 0 0 1920 1080" xml:space="preserve">

<path fill="#F4E0B6" stroke="#FFFFFF" d="M279.963,376.406l-0.001-0.045l0.009-0.042l0.021-0.034l0.032-0.024l0.009,0.049
	l-0.007,0.042l-0.023,0.033L279.963,376.406z M276.894,401.661l-0.009,0.022l-0.015,0.003l-0.025-0.004l0.019,0.003l0.012-0.005
	l0.016-0.02l0.001-0.004l-0.001-0.057l0.004,0.056L276.894,401.661z M281.6,385.51l-0.064-0.068l0.08-0.077l0.156-0.06l0.152,0.004
	l0.063,0.118l-0.073,0.107l-0.159,0.018L281.6,385.51z M285.916,374.872l-0.015-0.007l-0.02-0.029l-0.006-0.019l0.026-0.004
	l0.01,0.013l-0.003,0.012l0.011,0.017L285.916,374.872z"/></svg>