<?xml version="1.0" encoding="utf-8"?>
<!-- Generator: Adobe Illustrator 15.0.0, SVG Export Plug-In . SVG Version: 6.00 Build 0)  -->
<!DOCTYPE svg PUBLIC "-//W3C//DTD SVG 1.1//EN" "http://www.w3.org/Graphics/SVG/1.1/DTD/svg11.dtd">
<svg version="1.1" id="Ebene_1" xmlns="http://www.w3.org/2000/svg" xmlns:xlink="http://www.w3.org/1999/xlink" x="0px" y="0px"
	 width="1920px" height="1080px" viewBox="0 0 1920 1080" enable-background="new 0 0 1920 1080" xml:space="preserve">

<path fill="#F4E0B6" stroke="#FFFFFF" d="M633.325,679.774l0.045,0.093l0.128,0.023l0.051,0.117l-0.044,0.107v0.067l-0.035,0.069
	l-0.037,0.025l-0.011,0.028l-0.002,0.209l-0.04,0.134l-0.119,0.164l-0.158,0.108l-0.159-0.035l-0.054-0.133l-0.02-0.212l0.011-0.213
	l0.04-0.133l0.069-0.061l0.055-0.013l0.05-0.004l0.063-0.041l0.008-0.074l0.038-0.175l0.054-0.055L633.325,679.774z
	 M634.748,681.414l-0.151-0.082l-0.111-0.117l-0.048-0.097l0.058-0.013l-0.006-0.056l0.174-0.042l0.047-0.064l-0.036-0.069
	l-0.077-0.059l-0.032-0.095l0.053-0.122l0.084-0.077l0.062,0.043l0.033,0.084l-0.015,0.351l0.025,0.101l0.082,0.189l0.026,0.112
	L634.748,681.414z M634.979,680.561l0.035,0.054l0.036-0.025l0.025-0.006h0.023l0.031-0.006l0.021,0.218l-0.011,0.049l-0.051,0.107
	l-0.007,0.051l0.064,0.254l0.008,0.108l-0.081,0.062l-0.086-0.036l-0.069-0.136l-0.079-0.297l0.013-0.258l0.015-0.074l0.03-0.068
	l0.039-0.062l0.031-0.018l0.008,0.063L634.979,680.561z M634.329,678.578l-0.083-0.021l-0.042-0.054l0.039-0.051l0.081,0.035
	l0.079-0.062l0.097-0.084l0.079-0.028l0.111-0.021l0.035,0.028l-0.062,0.064l-0.054,0.068l-0.058,0.067l-0.133,0.042
	L634.329,678.578z M622.703,663.906l-0.037,0.074l-0.015,0.006l-0.028-0.006l-0.036,0.008l-0.022-0.017l-0.099,0.017l-0.031-0.01
	l-0.007-0.021l0.005-0.016l0.03-0.021l0.045-0.015l0.035,0.007l0.018-0.008l0.039-0.039l0.037,0.001l0.022,0.02l0.033,0.006
	L622.703,663.906z M643.175,674.35l0.055,0.105l0.104,0.045l0.11,0.032l0.073,0.071l-0.189,0.091l-0.102,0.022l-0.038-0.059
	l0.002-0.155l-0.146-0.021l-0.121-0.046l-0.235-0.146l-0.073-0.074l-0.053-0.039l-0.081-0.027l-0.065,0.011l-0.061,0.025
	l-0.065,0.019l-0.208-0.047l-0.03,0.003l0.013-0.052l0.053-0.065l0.07-0.051l0.064-0.001l0.076,0.015l0.169-0.034l0.073,0.014
	l0.054,0.045l0.09,0.092l0.063,0.037l0.008-0.052l-0.03-0.093l-0.001-0.062l0.156,0.094l-0.086-0.094l0.047-0.039l0.113-0.006
	l0.112,0.006l-0.018-0.024l-0.007-0.018l-0.012-0.02l-0.031-0.027l0.022-0.015l0.016-0.012l0.046-0.019l0.07,0.138l0.022,0.104
	l-0.004,0.099l-0.023,0.101L643.175,674.35z M671.718,651.332l-0.082,0.021l-0.035-0.03l-0.038-0.044h-0.05l-0.051,0.049
	l-0.038,0.02l-0.035-0.021l0.022-0.062l0.047-0.076l0.054-0.046l0.047-0.019l0.077-0.015l0.016,0.042l0.034,0.053l0.058,0.068
	L671.718,651.332z M693.705,651.934l0.079,0.132l0.074,0.071l0.288,0.177l0.069,0.065l0.055,0.092l0.066,0.161l0.016,0.089
	l0.015,0.035l0.041,0.048l0.144,0.084l0.024,0.039l0.037,0.111l0.06,0.081l0.157,0.148l0.085,0.152l0.037,0.108l-0.006,0.097
	l0.002,0.035l-0.005,0.046l-0.04,0.09l-0.048,0.582l-0.051,0.134l-0.006,0.329l-0.031,0.099l-0.088,0.082l-0.11,0.062l-0.092,0.038
	l-0.164,0.02l-0.381-0.008l-0.143,0.045l-0.08-0.002l-0.085-0.015l-0.061-0.021l-0.043,0.026l-0.231,0.182l-0.042,0.025l0,0l0,0
	l-0.118-0.077l-0.099-0.001l-0.219,0.042l-0.208-0.025l-0.127-0.036l-0.278-0.077l-0.276-0.078l-0.278-0.08l-0.277-0.079
	l-0.278-0.078l-0.278-0.08l-0.277-0.077l-0.279-0.079l-0.122-0.035l-0.115,0.007l-0.141,0.064l-0.094,0.055l-0.28,0.162l-0.28,0.164
	l-0.28,0.164l-0.281,0.164l-0.281,0.164l-0.281,0.163l-0.282,0.164l-0.282,0.164l-0.08,0.029l-0.083-0.023l-0.121-0.133
	l-0.073-0.058l-0.092-0.032l-0.285-0.048l-0.178-0.1l-0.097-0.039l-0.107,0.007l-0.044,0.028l-0.061,0.08l-0.04,0.034l-0.062,0.028
	l-0.136,0.041l-0.066,0.027l-0.388,0.279l-0.146,0.062l-0.127,0.03l-0.267,0.024l-0.194,0.062l-0.226,0.136l-0.604,0.475
	l-0.24,0.124l-0.462,0.155l-0.234,0.184l-0.112,0.046l-0.119,0.032l-0.125,0.051l-0.088,0.067l-0.016,0.02l-0.048,0.06l-0.056,0.089
	l-0.746,0.91l-0.748,0.645l-0.119,0.171l-0.154,0.152l-0.066,0.089l-0.051,0.13l-0.021,0.104l-0.04,0.092l-0.111,0.094l-0.323,0.203
	l-0.485,0.236l-0.312,0.237l-0.1,0.054l-0.117,0.035l-0.242,0.009l-0.102,0.022l-0.215,0.148l-0.692,0.318l-0.407,0.295
	l-0.115,0.058l-0.125,0.031l-0.231,0.018l-0.109,0.057l-0.069,0.097l0.031,0.069l0.06,0.035l0.462,0.267l0.19,0.079l0.204,0.013
	l0.24-0.056l0.108-0.007l0.129,0.032l0.132,0.001l0.304-0.07l0.098,0.055l0.002,0.05l-0.06,0.193l-0.013,0.015l-0.043,0.029
	l-0.012,0.018l-0.002,0.03l0.011,0.066l-0.002,0.026l-0.059,0.119l-0.141,0.181l-0.044,0.11l-0.002,0.155l0.064,0.069l0.108,0.017
	l0.21-0.015l0.045,0.002l0.062,0.016l0.046,0.03l0.028,0.035l0.03,0.02l0.056-0.018l0.023,0.129l0.038,0.087l-0.012,0.063
	l-0.13,0.067l0.01,0.131l-0.039,0.097l-0.087,0.226l-0.086,0.224l-0.087,0.226l-0.087,0.227l-0.087,0.225l-0.087,0.227l-0.088,0.226
	l-0.087,0.228l-0.08,0.208l-0.022,0.203l0.016,0.135l0.016,0.146l0.017,0.145l0.017,0.146l0.017,0.145l0.016,0.146l0.017,0.146
	l0.017,0.145l0.016,0.147l0.02,0.175l0.018,0.074l0.031,0.044l0.032,0.034l0.022,0.047l0.002,0.003l0.012,0.084l-0.006,0.092
	l-0.024,0.095l-0.041,0.084l-0.058,0.069l-0.14,0.126l-0.055,0.072l-0.047,0.114l-0.053,0.368l-0.123,0.366l-0.112,0.181
	l-0.139,0.063l-0.072-0.043l-0.077-0.07l-0.086-0.036l-0.099,0.058l-0.08,0.077l-0.084,0.052l-0.092,0.03l-0.1,0.019l-0.062-0.003
	l-0.061-0.011l-0.058,0.007l-0.051,0.045l-0.008,0.052l0.012,0.163l-0.004,0.069l-0.037,0.091l-0.125,0.206l-0.066,0.074
	l-0.275,0.229l-0.368,0.458l-0.051,0.103l-0.066,0.216l-0.046,0.097l-0.086,0.091l-0.099,0.071l-0.091,0.08l-0.06,0.117
	l-0.024,0.273l0.072,0.216l0.06,0.077l0.079,0.103l0.179,0.166l0.351,0.205l0.112,0.127l0.006,0.296l0.013,0.029l-0.008,0.029
	l-0.167,0.164l-0.03,0.039l-0.083,0.145l-0.061,0.153l-0.043,0.159l-0.101,0.634l0.009,0.138l0.025,0.063l0.078,0.128l0.031,0.073
	l0.037,0.15l0.029,0.058v0.002l0.105,0.107l0.292,0.301l0.13,0.098l0.074,0.027l0.066-0.004l0.068-0.013l0.078-0.006l0.048,0.026
	l0.04,0.037l0.038-0.002l0.045-0.089l0.122,0.071l0.113,0.04l0.106,0.055l0.097,0.105l0.035-0.087l0.051-0.019l0.06,0.024
	l0.14,0.092l0.017,0.048l-0.002,0.052l0.024,0.068l0.027,0.021l0.038,0.007h0.081l0.043,0.013l0.008,0.031l-0.007,0.03l-0.001,0.019
	l0.001,0.004l0.081,0.058l0.001-0.007l0.01-0.005l0.092,0.024l0.076,0.082l0.033,0.128l0.061,0.016l0.149,0.01l0.076,0.023
	l0.063,0.048l0.109,0.122l0.067,0.049l0.201,0.068l0.06,0.046l0.017,0.055l-0.028,0.061l-0.036,0.062l-0.009,0.061l0.039,0.061
	l0.204,0.13l0.032,0.056l0.012,0.05l0.033,0.039l0.093,0.018l0.081-0.01l0.064-0.022l0.058-0.004l0.275,0.216l0.25,0.106
	l0.269,0.039l0.273-0.033l0.088-0.038l0.05-0.035l0.05-0.004l0.089,0.049l0.201,0.036l0.194,0.096l0.298,0.085l0.128,0.072
	l0.017,0.031l0.023,0.092l0.03,0.04l0.12,0.122l0.072,0.038l0.146,0.03l0.077,0.027l0.01,0.047l0.018,0.428l0.025,0.053l0.055,0.061
	l0.044,0.028l0.106,0.043l0.039,0.026l0.011,0.025l-0.002,0.059l0.005,0.021l0.047,0.063l0.288,0.495l0.128,0.085l0.335-0.007
	l0.182,0.048l0.164,0.085l0.1,0.104l0.051,0.216l0.007,0.145l0.03,0.643l0.029,0.644l0.03,0.644l0.03,0.646l0.03,0.646l0.031,0.648
	l0.031,0.647l0.03,0.649l0.012,0.249l0.049,0.03l0.004,0.002l0.128,0.028l0.273,0.014l0.128,0.044l0.055,0.101l0.034,0.342
	l0.044,0.138l0.341-0.01l0.429-0.128l0.13-0.006l0.202-0.057l0.107,0.007l0.106,0.056l0.074,0.076l0.11,0.173l0.091,0.021
	l0.08,0.082l0.076,0.101l0.079,0.076l0.283,0.143l0.081,0.07l0.212,0.254l0.089,0.068l0.074,0.072l0.119,0.198l0.095,0.074
	l0.075,0.004l0.182-0.045l0.062,0.003l0.276,0.14l0.379,0.08l0.099,0.044l0.081,0.063l0.226,0.251l0.157,0.094l0.609,0.087
	l0.204,0.081l0.508,0.377l0.193,0.073l0.183,0.029l0.046,0.015l0.05,0.011l0.057-0.019l0.053-0.036l0.038-0.044l0.059-0.049
	l0.059,0.013l0.056,0.036l0.054,0.019l0.07-0.016l0.136-0.046l0.068,0.001l0.038,0.021l0.061,0.068l0.28,0.201l0.561,0.569
	l0.071,0.161l0.037,0.188l0.058,0.171l0.157,0.116l0.004,0.003l-0.041,0.007l-0.129,0.021l-0.08,0.03l-0.061,0.057l-0.113,0.188
	l-0.013,0.371l0.056,0.154l-0.028,0.117l-0.058,0.118l-0.068,0.073l-0.082,0.018l-0.201-0.016l-0.087,0.008l-0.355,0.133
	l-0.086,0.055l-0.424,0.124l-0.21,0.116l-0.188,0.154l-0.163,0.189l-0.138,0.226l-0.127,0.315l-0.052,0.102l0.001,0.031l0.021,0.107
	v0.032l-0.048,0.054l-0.051,0.023l-0.049,0.016l-0.048,0.021l-0.157,0.15l-0.04,0.013l-0.061-0.016l-0.069,0.012l-0.14,0.052
	l-0.054,0.007l-0.16-0.019l-0.037,0.009l-0.076,0.03l-0.037,0.01l-0.022-0.007l-0.043-0.036l-0.022-0.009l-0.254,0.058l-0.226,0.133
	l-0.167,0.186l-0.075,0.213l-0.01,0.102l-0.018,0.09l-0.037,0.097l-0.067,0.12l-0.035,0.037l-0.111,0.095l-0.048,0.054l-0.036,0.056
	l-0.028,0.054l-0.021,0.053l-0.016,0.059l-0.002,0.063l0.015,0.149l-0.005,0.043l-0.042,0.048l-0.041,0.021l-0.036,0.014
	l-0.024,0.019l-0.128,0.226l-0.065,0.089l-0.176,0.161l-0.147,0.174l-0.074,0.113l-0.012,0.038l-0.015,0.111l-0.009,0.04
	l-0.039,0.061l-0.035,0.025l-0.025,0.024l-0.006,0.06l-0.088,0.075l-0.146,0.215l-0.082,0.06l-0.094,0.055l-0.088,0.096
	l-0.184,0.269l-0.109,0.116l-0.092,0.163l-0.036,0.046l-0.049,0.026l-0.045,0.006l-0.045,0.018l-0.05,0.066l-0.02,0.064v0.063
	l0.012,0.063l0.02,0.055l0.02-0.034l0.041,0.113l-0.009,0.084l-0.071,0.196l0.005,0.031l0.04,0.055l-0.001,0.037l-0.022,0.044
	l-0.068,0.055l-0.032,0.036l-0.025,0.074l-0.007,0.147l-0.026,0.072l-0.048,0.054l-0.18,0.119l-0.139,0.176l-0.078,0.181
	l-0.058,0.18l-0.078,0.17l-0.022,0.116l0.035,0.126l0.021,0.148l-0.064,0.187l0.013,0.085l-0.028,0.109l-0.064,0.077l-0.002,0.003
	l0.018,0.035l-0.036,0.143l-0.179,0.32l-0.046,0.121l-0.04,0.455l-0.036,0.148l-0.129,0.266l-0.042,0.138l0.011,0.152l0.054,0.1
	l0.08,0.048l0.093,0.03l0.095,0.045l0.11,0.187l0.007,0.267l-0.252,1.07l0.001,0.134l0.033,0.091l0.12,0.171l0.039,0.264
	l-0.152,0.202l-0.246,0.149l-0.504,0.232l-0.083,0.017l-0.058-0.008l-0.11-0.034l-0.071-0.001l-0.137,0.042l-0.315,0.093
	l-0.315,0.095l-0.314,0.096l-0.316,0.094l-0.315,0.094l-0.315,0.094l-0.317,0.096l-0.317,0.095l-0.185,0.056l-0.164,0.103
	l-0.221,0.354l0.102-0.022l0.08-0.052l0.083-0.037l0.105,0.024l0.094,0.062l0.053,0.025l0.116-0.002l0.027,0.041l0.009,0.091
	l0.119,0.212l0.094,0.089l0.112,0.015l0.1,0.025l0.034,0.123l-0.009,0.154l-0.025,0.111l-0.119,0.248l-0.044,0.131l0.024,0.079
	l0.198,0.119l0.064,0.079l0.023,0.108l-0.007,0.055l-0.034,0.114l-0.005,0.05l0.019,0.059l0.063,0.109l-0.002,0.045l-0.01,0.052
	l0.007,0.144l0.005,0.03l0.044,0.052l0.004,0.066l-0.013,0.069l-0.003,0.073l0.019,0.063l0.061,0.118l0.016,0.066l-0.01,0.065
	l-0.024,0.084l-0.012,0.079l0.023,0.05l0.038,0.045l0.025,0.07l0.023,0.148l0.024,0.053l0.12,0.151l0.086,0.193l0.01,0.062
	l-0.016,0.063l-0.058,0.101l-0.004,0.062l-0.035,0.122l-0.125,0.072l-0.144,0.047l-0.094,0.04l-0.058,0.099l-0.05,0.243
	l-0.068,0.181l-0.063,0.268l-0.004,0.094l0.04,0.084l0.064,0.076l0.041,0.081l-0.022,0.103l-0.158,0.295l-0.072,0.084l-0.043,0.028
	l-0.139,0.068l-0.03,0.073l-0.001,0.073l0.007,0.062l-0.006,0.089l0.042,0.117l-0.005,0.053l-0.023,0.063l-0.029,0.229l-0.35,1.443
	l-0.057,0.123l-0.144,0.238l-0.046,0.116l-0.027,0.142l-0.018,0.243l-0.026,0.142l-0.055,0.129l-0.165,0.203l-0.028,0.086
	l0.009,0.078l0.021,0.081l0.011,0.084l-0.018,0.135l-0.045,0.152l-0.073,0.132l-0.204,0.152l-0.055,0.142l-0.045,0.286l-0.2-0.061
	l-0.353-0.071l-0.474-0.098l-0.083-0.073l0.044-0.158l0.155-0.293l1.05-1.484l0.165-0.364l0.186-0.653l0.08-0.518l-0.023-1.054
	l0.03-0.287l0.109-0.497l0.029-0.25l-0.032-0.195l-0.048-0.084l-0.143-0.192l-0.063-0.048l-0.06,0.005l-0.134,0.05h-0.056
	l-0.172-0.066l-0.111,0.012l-0.198,0.054l-0.232-0.003l-0.61,0.231l-1.067,0.538l-0.23,0.072l-0.253,0.016l-0.185-0.022
	l-0.189-0.049l-0.166-0.089l-0.118-0.139l-0.061-0.233l0.006-0.277l0.051-0.284l0.112-0.398l0.016-0.121l-0.023-0.114l-0.073-0.109
	l-0.079-0.075l-0.022-0.036l-0.011-0.062l0.015-0.045l0.065-0.106v-0.048l-0.062,0.016l-0.762,0.634l-0.183,0.103l0.017,0.038
	l0.104,0.083l0.003,0.088l-0.082,0.11l-0.049,0.101l0.163,0.106l0.02,0.048l-0.017,0.054l-0.045,0.064l-0.008,0.042l0.018,0.055
	l0.049,0.089l-0.34-0.195l-0.216-0.126l-0.57-0.328l-0.805-0.468l-0.925-0.535l-0.924-0.535l-0.807-0.468l-0.571-0.331l-0.217-0.126
	l-0.168-0.134l-0.234-0.369l-0.278-0.271l-0.182-0.088l-0.417-0.016l-0.197-0.09l-0.086-0.072l-0.078-0.05l-0.091-0.024l-0.27,0.005
	l-0.102-0.02l-0.151-0.09l-0.068-0.039l-0.099,0.225l-0.235,0.361l-0.236,0.361l-0.237,0.362l-0.236,0.364l-0.237,0.364
	l-0.238,0.366l-0.237,0.364l-0.238,0.366l-0.208,0.319l0.097,0.072l0.284-0.034l0.138,0.031l0.058,0.036l0.05,0.046l0.021,0.052
	l-0.068,0.121l0.04,0.042l0.487,0.178l0.103,0.065l0.147,0.196l0.042,0.034l0.152,0.084l0.16,0.06l0.04,0.032l0.026,0.047
	l0.005,0.034l-0.001,0.033l0.008,0.037l0.047,0.111l0.04,0.036l0.334-0.059l0.086,0.02l0.063,0.059l0.14,0.271l0.032,0.092
	l0.005,0.161l0.038,0.105l0.009,0.059l-0.02,0.058l-0.035,0.064l-0.021,0.064l0.054,0.13l-0.15,0.179l0.021,0.127l0.075,0.109
	l0.03,0.068l0.001,0.063l-0.047,0.072l-0.049,0.006l-0.049-0.017l-0.041,0.003l-0.081,0.106l-0.108,0.268l-0.079,0.124l-0.068,0.04
	l-0.074,0.014l-0.064,0.027l-0.034,0.083l0.011,0.063l0.064,0.111l0.011,0.057l-0.027,0.151l-0.045,0.107l-0.072,0.051l-0.107-0.016
	l-0.037-0.031l-0.062-0.088l-0.048-0.026l-0.053,0.007l-0.102,0.054l-0.048,0.007l-0.078-0.038l-0.149-0.128l-0.087-0.042
	l0.115-0.137l-0.005-0.084l-0.084-0.047l-0.121-0.026l-0.125-0.003l-0.018-0.035l-0.078-0.575l-0.04-0.113l-0.076-0.08l-0.129-0.052
	l-0.12-0.004l-0.22,0.026l-0.093-0.038l-0.121-0.006l-0.125,0.092l-0.125,0.052l-0.124-0.122l-0.086-0.143l-0.074-0.035l-0.279,0.06
	l-0.223,0.008l-0.222-0.027l-0.215-0.063l-0.33-0.16l-0.108-0.022l-0.099-0.032l-0.092-0.088l-0.107-0.058l-0.133-0.003
	l-0.104-0.021l-0.021-0.113l-0.252,0.372l-0.093,0.136l-0.245,0.36l-0.348,0.51l-0.398,0.586l-0.399,0.587l-0.35,0.514l-0.219,0.38
	l-0.08,0.146l-0.155,0.29l-0.078,0.22l-0.007,0.152l0.047,0.361l0.097,0.405l0.005,0.251l0.022,0.081l0.065,0.091l0.157,0.157
	l0.047,0.107l0.001,0.073l-0.023,0.152l0.005,0.078l0.026,0.067l0.074,0.124l0.025,0.068l0.042,0.268l0.034,0.109l0.279,0.384
	l0.052,0.098l0.036,0.132l0.004,0.133l-0.021,0.136l-0.045,0.141l-0.085,0.171l-0.02,0.062l-0.005,0.071l0.007,0.062l0.002,0.063
	l-0.023,0.075l-0.1,0.119l-0.283,0.187l-0.083,0.085l-0.023,0.161l0.048,0.342l-0.005,0.101l-0.089,0.139l-0.017,0.062l-0.001,0.105
	l0.013,0.054l0.022,0.039l0.015,0.05l-0.005,0.077l-0.028,0.069l-0.04,0.047l-0.032,0.055l-0.009,0.094l0.019,0.061l0.072,0.112
	l0.026,0.058l0.006,0.236l0.013,0.046l0.042,0.035l0.017,0.025l0.002,0.031l-0.004,0.053l-0.017,0.009l-0.087,0.229l-0.042,0.056
	l-0.09,0.101l-0.034,0.066l-0.005,0.44l-0.038,0.198l-0.263,0.258l-0.002,0.004l-0.117,0.259l-0.345,0.477l-0.13,0.258l-0.282,0.335
	l-0.057,0.114l-0.212,0.242l-0.229,0.314l-0.599,0.82l-0.596,0.818l-0.594,0.813l-0.591,0.813l-0.59,0.81l-0.587,0.807l-0.585,0.803
	l-0.584,0.802l-0.581,0.797l-0.579,0.795l-0.578,0.792l-0.575,0.791l-0.573,0.786l-0.572,0.784l-0.57,0.782l-0.566,0.779
	l-0.011,0.009l-0.011,0.009l-0.011,0.01l-0.011,0.008l-0.011,0.009l-0.011,0.009l-0.011,0.01l-0.011,0.01l-0.01,0.007l-0.011,0.01
	l-0.012,0.01l-0.01,0.007l-0.011,0.01l-0.01,0.01l-0.012,0.009l-0.01,0.008l0.027-0.362l-0.007-0.18l-0.026-0.176l-0.067-0.205
	l-0.309-0.528l-0.045-0.208l0.042-0.202l0.072-0.204l0.04-0.221l-0.013-0.24l-0.053-0.267l-0.093-0.239l-0.134-0.17l-0.134-0.056
	l-0.131,0.017l-0.271,0.093l-0.145-0.007l-0.118-0.068l-0.201-0.205l-0.028-0.067l-0.412-0.723l-0.181-0.136l0.291-0.194l0.681-0.46
	l0.682-0.461l0.685-0.459l0.686-0.463l0.688-0.463l0.69-0.464l0.691-0.465l0.693-0.467l0.2-0.136l0.003-0.004l-0.02-0.025
	l-0.027-0.078l-0.003-0.087l0.012-0.099l0.066-0.273l-0.029-0.066l-0.13,0.021l-0.051,0.035l-0.05,0.048l-0.047,0.03l-0.045-0.01
	l-0.027-0.052l0.017-0.053l0.029-0.055l0.015-0.062l-0.045-0.136l-0.09-0.018l-0.097-0.001l-0.064-0.087l-0.001-0.126l0.056-0.269
	l-0.005-0.135l-0.069-0.116l-0.104-0.015l-0.125,0.016l-0.13-0.026l-0.013-0.028l-0.008-0.058l0.004-0.063l0.021-0.048l0.034-0.014
	l0.096,0.008l0.031-0.004l0.081-0.107l-0.03-0.086l-0.089-0.067l-0.097-0.055l-0.058-0.014l-0.134-0.004l-0.049-0.022l-0.037-0.062
	l-0.001-0.062l0.012-0.066l0.004-0.074l-0.027-0.091l-0.055-0.093l-0.07-0.081l-0.069-0.056l-0.048-0.082l-0.016-0.111l-0.036-0.079
	l-0.11,0.016l-0.037,0.045l-0.028,0.064l-0.03,0.051l-0.046,0.003l-0.187-0.107l-0.016-0.047l0.026-0.073l0.039-0.075l0.022-0.061
	l0.001-0.075l-0.07-0.226l-0.011-0.021l0.081-0.161l0.011-0.049l-0.01-0.041l-0.108-0.085l-0.072-0.073l-0.13-0.168l-0.093-0.214
	l-0.081-0.441l-0.086-0.181l-0.12-0.003l-0.101-0.091l-0.142-0.21l-0.129-0.08l-0.087,0.052l-0.052,0.132l-0.029,0.165l-0.056,0.006
	l-0.057-0.024l-0.049-0.047l-0.073-0.148l-0.059-0.035l-0.139-0.045h-0.134l-0.218,0.213l-0.167,0.007l-0.125,0.033l-0.056-0.015
	l-0.039-0.048l-0.03-0.08l-0.042-0.042l-0.083-0.007l-0.125,0.007l-0.096-0.022l0.002-0.097l-0.421,0.007l-0.173-0.046l0.005-0.147
	l0.039-0.03l0.098-0.034l0.035-0.039l0.012-0.067l-0.025-0.229l0.005-0.219L648.205,725l-0.102,0.044l-0.148,0.183l-0.068,0.045
	l-0.052-0.082l0.011-0.104l0.108-0.235l0.03-0.119l-0.028-0.077l-0.229-0.215l-0.063-0.116l-0.045-0.129l-0.058-0.117l-0.096-0.086
	l-0.199,0.01l-0.098-0.033l0.008-0.116l0.103-0.193l-0.02-0.051h-0.126l-0.366,0.055l-0.048-0.022l-0.05,0.047l-0.314,0.214
	l-0.316,0.083l-0.055,0.023l-0.081,0.112l-0.089,0.036l-0.091-0.021l-0.261-0.213l-0.15-0.082l-0.156-0.011l-0.193,0.063
	l-0.337,0.168l-0.081-0.013l-0.254-0.25l-0.047-0.022l-0.132-0.036l-0.035,0.009l-0.051,0.117l-0.032,0.032l-0.047-0.007
	l-0.113-0.048l-0.21-0.045l-0.107-0.046l-0.073-0.072l-0.056-0.099l-0.027-0.103l0.009-0.081l-0.02-0.065l-0.424-0.357l-0.07-0.081
	l-0.108-0.325l-0.056-0.098l-0.076-0.064l-0.1,0.059l-0.268,0.238l-0.089,0.033l-0.091-0.013l-0.021-0.027l0.054-0.156l0.015-0.064
	l0.004-0.06l-0.002-0.054l-0.072,0.002l-0.057,0.02l-0.047,0.039l-0.045,0.063l-0.07-0.173l-0.061-0.077l-0.146,0.005l-0.157-0.017
	l-0.085,0.034l-0.076-0.008l-0.217-0.063l-0.042-0.023l-0.019-0.057l0.001-0.119l0.045-0.303l-0.033-0.11l0.001-0.039l-0.214-0.394
	l-0.04,0.055l-0.115,0.097l-0.091,0.032l0.029-0.135l-0.017-0.074l-0.171-0.174l-0.046-0.104l0.01-0.051l0.056-0.181v-0.039
	l-0.034-0.096l-0.002-0.036l0.007-0.038l-0.003-0.111l0.017-0.061l0.033-0.052l0.032-0.029l0.071-0.038l0.254-0.091l0.101-0.099
	l0.265-0.198l-0.027-0.106l0.021-0.139l0.036-0.146l0.019-0.123l-0.011-0.191l0.004-0.093l0.024-0.1l0.044-0.077l0.114-0.116
	l0.035-0.046l0.018-0.11l-0.033-0.221l0.013-0.094l0.135-0.193l-0.002-0.079l-0.023-0.054l-0.033-0.048l-0.025-0.064l-0.043-0.24
	l-0.047-0.027l-0.089,0.139l-0.039,0.005l-0.131-0.139l-0.076-0.029l-0.116,0.047l-0.064,0.044l-0.043-0.035l-0.053-0.189
	l-0.036-0.077l-0.051-0.042l-0.052-0.026l-0.061-0.046l-0.054-0.021l-0.02-0.017l0.002-0.023l0.021-0.086l0.003-0.025l-0.192-0.397
	l-0.025-0.194l0.113-0.216l0.142-0.161l0.08-0.064l0.151-0.019l0.057-0.107l0.063-0.268l0.029-0.081l0.03-0.06l0.018-0.063
	l-0.006-0.083l-0.057-0.145l-0.004-0.13l-0.125-0.199l-0.002-0.111l0.124-0.069l0.052-0.049l-0.054-0.083l-0.008-0.053v-0.059
	l0.009-0.045l0.053-0.129l0.014-0.054l0.005-0.05l-0.014-0.016L640.922,714l-0.017-0.016l0.004-0.032l0.022-0.066l0.008-0.109
	l0.018-0.071v-0.064l-0.091-0.103l-0.05-0.132l-0.042-0.049l-0.098-0.084l-0.06-0.112l-0.023-0.126l0.01-0.128l-0.085-0.007
	l-0.143,0.105l-0.104,0.01l-0.054-0.034l-0.065-0.063l-0.099-0.125l-0.04-0.09l-0.017-0.087l-0.007-0.213l0.036-0.271l-0.002-0.07
	l-0.061-0.079l-0.165-0.042l-0.044-0.079l0.017-0.053l0.09-0.077l0.017-0.051l-0.02-0.065l-0.031,0.003l-0.034,0.027l-0.029,0.016
	l-0.065,0.002l-0.038,0.017l-0.031-0.007l-0.043-0.062l-0.02-0.062v-0.063l0.08-0.471l-0.025-0.093l-0.151,0.131l-0.13-0.068
	l-0.222-0.299l-0.249-0.225l-0.085-0.156l-0.026-0.231l0.056-0.304l-0.01-0.106l-0.072-0.165l-0.004-0.07l0.064-0.051l0.064,0.02
	l0.068,0.06l0.065,0.037l0.058-0.049l0.009-0.09l-0.02-0.088l0.004-0.085l0.08-0.073l-0.028-0.042l-0.08-0.049l-0.038-0.044
	l-0.02-0.045l-0.057-0.313l0.006-0.104l0.054-0.112l0.045-0.039l0.09-0.031l0.03-0.034l0.056-0.741l0.014-0.06l0.001-0.001
	l0.025-0.068l0.017-0.066l-0.011-0.039l-0.063-0.04l-0.02-0.028l-0.003-0.106l-0.021-0.123l-0.028-0.094l-0.187-0.381l-0.065-0.193
	l-0.078-0.38l-0.004-0.361l-0.024-0.071l-0.057-0.018l-0.053,0.008l-0.042,0.011l-0.031,0.001l-0.064-0.04l-0.017-0.039
	l-0.001-0.039l-0.011-0.042l-0.019-0.051l-0.008-0.038l-0.02-0.035l-0.111-0.081l-0.08-0.084l-0.046-0.035l-0.067-0.085l0.074-0.058
	l0.186-0.051l0.027-0.51l-0.013-0.159l-0.049-0.169l-0.064-0.015l-0.226,0.172l-0.077,0.022l-0.049-0.022l-0.062-0.081l-0.142-0.138
	l-0.076-0.114l-0.035-0.1l-0.073-0.38l-0.016-0.046l-0.038-0.042l-0.082-0.051l-0.032-0.04l-0.025-0.1l-0.04-0.435l-0.049-0.143
	l-0.071-0.122l-0.181-0.197l-0.089-0.068l-0.081-0.021l-0.073,0.035l-0.069,0.107l-0.059,0.064l-0.099,0.057l-0.108,0.029
	l-0.086-0.01l-0.058-0.116l-0.239-0.315l-0.237-0.219l-0.054-0.139l-0.092-0.116l-0.181-0.377l-0.063-0.358l-0.062-0.08
	l-0.023-0.063l-0.004-0.112l-0.02-0.12l-0.069-0.089l-0.099-0.04l-0.244-0.066l-0.118-0.052l-0.099-0.069l-0.073-0.08l-0.052-0.08
	l-0.073-0.161l-0.074-0.271l0.014-0.097l-0.142-0.368l-0.028-0.19l0.011-0.116l0.053-0.115l0.027-0.081l0.015-0.636l0.025-0.076
	l0.013-0.104l-0.118-0.048l-0.152-0.026l-0.089-0.045l0.006-0.058l0.077-0.155l0.014-0.073l-0.025-0.043l-0.05-0.033l-0.108-0.055
	l-0.109-0.077l-0.084-0.086l-0.06-0.101l-0.042-0.119l-0.017-0.231l-0.029-0.052l-0.065-0.014l-0.141,0.022l-0.037,0.003
	l-0.046,0.013l-0.236,0.088l-0.057-0.007l-0.059-0.02l-0.108-0.052l-0.038-0.037l-0.024,0.037l-0.307,0.389l-0.213,0.382
	l-0.131,0.015l-0.518-0.213l-0.177-0.001l-0.077-0.031l-0.064-0.087l-0.029-0.205l-0.031-0.104l-0.053-0.062l-0.211-0.162
	l-0.127-0.147l-0.078-0.008l-0.146,0.219l-0.075-0.041l-0.105-0.184l-0.056-0.041l-0.374-0.137l-0.07-0.045l-0.048-0.068
	l-0.031-0.112l-0.017-0.178l-0.021-0.067l-0.056-0.076l-0.051-0.046l-0.188-0.114l-0.103-0.137l-0.009-0.334l-0.08-0.087
	l-0.052-0.057l-0.095-0.03l-0.317-0.039l-0.109-0.054l-0.057-0.068l-0.04-0.081l-0.063-0.089l-0.423-0.41l-0.115-0.164l-0.046-0.185
	l0.053-0.163l0.099-0.171l0.092-0.203l0.39-0.571l0.13-0.293l-0.155-0.169l-0.025-0.009l-0.157-0.06l-0.116-0.179l-0.131-0.42
	l0.024-0.224l0.257-0.396l-0.049-0.206l-0.117-0.069l-0.502-0.063l-0.112-0.035l-0.096-0.058l-0.082-0.085l-0.075-0.11l-0.014-0.077
	l0.033-0.063l0.046-0.056l0.024-0.064l-0.005-0.08l-0.021-0.017h-0.035l-0.051-0.031l-0.221-0.323l-0.329-0.21l-0.119-0.225
	l-0.226-0.875l-0.054-0.115l-0.22-0.248l-0.054-0.102l-0.04-0.16l-0.029-0.806l-0.018-0.075l-0.012-0.048l-0.213-0.22l-0.076-0.036
	l-0.103,0.001l0.038-0.098l-0.01-0.173l0.022-0.064l0.07-0.104l-0.034-0.041l-0.084-0.016l-0.085-0.03l-0.083-0.104l-0.032-0.134
	l0.009-0.146l0.042-0.142l0.02-0.116l-0.045-0.206l0.019-0.208l-0.119-0.371l0.106,0.007l0.039-0.112l-0.015-0.09l-0.029-0.08
	l0.001-0.084l0.055-0.081l0.086-0.091l0.077-0.097l0.026-0.1l-0.022-0.026l-0.086-0.006l-0.129-0.008l0-0.073l-0.011-0.077
	l-0.054-0.046l-0.012-0.071l-0.055-0.122l-0.025-0.048l-0.06-0.159l-0.006-0.122l0.016-0.1l0.091-0.07l0.077-0.029l0.098,0.014
	l0.113,0.031l0.151-0.036l0.196-0.111l0.14-0.057l0.222-0.06l0.192-0.062l0.124-0.036l0.165-0.028l0.263,0.077l0.091,0.081
	l0.092,0.038l0.084,0.086l0.055,0.096l0.082,0.086l0.149,0.105l0.085,0.086l0.122,0.1l0.015,0.027v0.062l0.018,0.063l0.035,0.044
	l0.053,0.018l0.053-0.072l0.037-0.037l0.081-0.069l0.121-0.038l0.134-0.11l0.029-0.104l0.065-0.073l0.02-0.013l0.035-0.016
	l0.039-0.024l0.034-0.047l0.009-0.038l-0.034,0.009l-0.079,0.046l-0.09,0.002l-0.094-0.055l0.022-0.084l0.071-0.097l0.101-0.091
	l0.067-0.073l0.12-0.11l0.053-0.058l0.019-0.052l0.002-0.076l-0.015-0.072l-0.034-0.045h-0.076l-0.09,0.042l-0.173,0.133
	l-0.074-0.001l-0.003-0.061l0.074-0.11l0.093-0.147l0.077-0.207l0.146-0.265l0.095-0.197l0.157-0.226l0.151-0.092l0.166-0.104
	l0.133-0.109l0.17,0.02l0.151-0.118l0.348-0.187l0.272-0.158l0.172-0.119l0.132-0.038l-0.094,0.065l-0.071,0.083l-0.055,0.094
	l-0.044,0.099l0.243-0.188l0.23-0.22l0.131-0.071l0.069,0.075l0.239-0.089l0.232-0.077l0.25-0.109l0.132,0.017l0.147-0.035
	l0.178-0.042l0.182-0.007l0.053,0.038l-0.046,0.143l-0.053,0.164l-0.027,0.174l-0.017,0.2l0.104,0.065l0.082-0.198l0.085-0.16
	l0.123-0.149l0.096-0.051l0.123-0.029l-0.017,0.119l-0.083,0.174l-0.116,0.092l-0.017,0.112l-0.039,0.133l-0.034,0.111l0.006,0.12
	l0.017,0.055l0.098,0.188l0.058,0.07l0.048,0.021l0.117-0.008l0.117,0.023l0.028-0.023l0.03-0.037l0.021-0.033l0.003-0.011
	l0.039-0.021l0.021-0.017l0.141-0.179l0.04-0.086l0.039-0.09l0.018-0.111l0.041-0.104l0.079-0.021l0.085,0.084l0.076-0.01
	l0.115,0.062l0.082,0.058l0.081,0.041l0.093-0.006l0.153-0.004l0.082,0.063l0.018,0.102l-0.023,0.123l-0.006,0.077l0.039,0.043
	l0.108,0.025l-0.102,0.055l-0.121,0.081l-0.065,0.094l0.063,0.096l0.049,0.039l0.076,0.078l0.058,0.037l0.141,0.043l0.057,0.028
	l0.136,0.039l0.134-0.021l0.112-0.065l0.065-0.088l0.021-0.081l0.013-0.118l-0.012-0.11l-0.055-0.064l0.024-0.031l0.096,0.057
	l0.028-0.037l-0.051-0.049l-0.003-0.052l0.034-0.045l0.059-0.03l-0.038-0.043l0.008-0.039l0.042-0.037l0.064-0.035l-0.034-0.032
	l-0.009-0.025l0.017-0.031l0.041-0.05l0.054,0.084l0.086,0.008l0.098-0.015l0.084,0.01l0.033,0.014l0.051,0.011l0.042-0.004
	l0.004-0.038l-0.033-0.029l-0.105-0.008l-0.04-0.024l-0.035-0.087l0.046-0.026l0.076-0.003l0.055-0.017l0.024,0.031l0.062,0.06
	l0.081,0.058l0.077,0.021l-0.006,0.043v0.059l-0.011,0.035l0.034,0.021l0.037-0.135l-0.135-0.147l0.123-0.056l0.103,0.001
	l0.074,0.032l0.075,0.019l0.107-0.036l0.029,0.048l0.021,0.043l0.006,0.044l-0.014,0.044l0.114-0.101l-0.072-0.095l-0.157-0.062
	h-0.143l0.031-0.09l0.08-0.112l0.104-0.087l0.105-0.016l0.057,0.045l0.011,0.066v0.072l0.02,0.066l0.039,0.049h0.022l0.028-0.028
	l0.058-0.032l0.077-0.02l0.032-0.004l0.02-0.019l0.038-0.056l0.005-0.037l-0.05-0.056l-0.001-0.033l0.02-0.025l0.039-0.003
	l0.073-0.051l0.03,0.005l0.021-0.003l0.016-0.058l-0.016-0.036l-0.04-0.02l-0.03-0.027l0.012-0.06l-0.035,0.032l-0.013,0.004
	l-0.003,0.004l-0.002,0.028l-0.074,0.003l-0.061-0.02l-0.027-0.042l0.028-0.066l-0.202,0.044l-0.063-0.003l0.054-0.057l0.336-0.116
	l0.229-0.1l0.125-0.036l0.594-0.109l0.231-0.129l0.137-0.075l0.083,0.017l0.05,0.08l0.053-0.041l0.037-0.04l0.05-0.044l0.033,0.019
	l0.034,0.035l0.05-0.013l0.012-0.066l-0.044-0.076l-0.089-0.018l-0.113-0.049l0.02-0.053l0.114-0.044l0.19-0.036l0.115-0.006
	l0.142,0.021l-0.014-0.092l0.082-0.099l0.078-0.032l0.095-0.027l0.082-0.001l0.037,0.038l0.091,0.024l0.072,0.028l0.031-0.001
	l0.155-0.034l-0.054,0.268l0.007,0.122l0.079,0.113l0.021-0.067l-0.003-0.287l0.015-0.097l0.056-0.085l0.079-0.064l0.088-0.034
	l-0.015,0.053l-0.004,0.064l0.012,0.041l0.031-0.015l0.019-0.042l0.007-0.089l0.005-0.023l0.099-0.087l0.107-0.059l0.089-0.07
	l0.047-0.122l0.049,0.024l0.044,0.03l-0.033,0.016l-0.028,0.02l-0.026,0.029l-0.031,0.038l-0.015,0.043l0.028,0.019l0.068-0.006
	l0.074,0.055l0.011,0.025l0.01,0.067l0.011,0.028l0.03-0.051l0.011-0.048l-0.009-0.045l-0.026-0.043h0.028l0.034-0.003l0.025,0.001
	l-0.061-0.084l-0.038-0.023l0.053-0.033l0.027-0.003l0.017,0.022l0.022,0.042l0.069-0.066l-0.045-0.064l-0.098-0.05L640.583,678
	l0.077-0.065l0.06,0.02l0.06,0.058l0.073,0.052l-0.014-0.028l-0.02-0.063l-0.014-0.029l0.034,0.005l0.025-0.003l0.025,0.003
	l0.04,0.015l0.001-0.027l0.021-0.061l0.107,0.033l0.103,0.048l-0.024,0.031l-0.055,0.03l0.045,0.027l0.167,0.034l-0.051-0.056
	l0.01-0.042l0.055-0.033l0.158-0.055l0.075-0.042l0.15-0.118l0.022,0.071l0.029,0.032l0.048,0.003l0.084-0.02l0.066,0.012
	l0.084,0.022l0.046-0.003l-0.052-0.067l-0.068-0.027l-0.079-0.012l-0.043-0.034l0.04-0.087l0.041,0.009l0.082,0.028l0.1,0.012
	l0.09-0.037l-0.086-0.037l-0.233-0.057l-0.037-0.067l0.038-0.087l0.077-0.083l0.079-0.058l0.051,0.176l0.051,0.064l0.095,0.069
	l0.027,0.002l0.005-0.028l-0.017-0.042l-0.033-0.035l-0.049-0.027l-0.034-0.027l-0.014-0.037l0.009-0.058l0.07,0.052l0.074,0.023
	l0.075-0.005l0.077-0.038l-0.034-0.091l0.001-0.084l0.053-0.063l0.125-0.021l0.016,0.048l0.001,0.039l-0.017,0.037l-0.041,0.05
	l0.119-0.031l0.047-0.116l0.057-0.098l0.264,0.05l0.117-0.047l0.114-0.062l0.113-0.025l0.023-0.031l-0.327-0.103l0.026-0.033
	l0.04,0.009l0.044-0.002l-0.115-0.068l-0.044-0.041l-0.027-0.056l-0.144,0.222l-0.385,0.004l-0.373-0.136l-0.102-0.202l0.044-0.039
	h0.094l0.044-0.028l-0.002-0.029l-0.047-0.088l-0.026-0.073l-0.02-0.013l-0.002-0.018l0.034-0.055l0.037-0.039l0.038-0.028
	l0.048-0.031l0.119-0.111l0.056-0.03l0.07-0.001l0.073,0.028l0.031,0.042l-0.024,0.039l-0.094,0.022l0.245,0.093l0.084,0.014
	l0.025-0.034l-0.18-0.06l0.066-0.049l0.073-0.037l0.238-0.078l0.201-0.126l-0.05-0.026l-0.017-0.019l0.005-0.025l0.017-0.048
	l-0.081-0.026l-0.022-0.071l-0.006-0.096l-0.034-0.091l-0.017,0.059l-0.034,0.057l-0.045,0.049l-0.056,0.035l-0.021-0.048
	l-0.034-0.029l-0.045-0.017l-0.056-0.002l-0.027,0.037l0.006,0.034l-0.001,0.003l-0.015,0.003l-0.042,0.029l-0.005-0.033
	l-0.009-0.014l-0.019-0.013l-0.029-0.031l-0.056,0.101l-0.116,0.127l-0.127,0.101l-0.087,0.026l-0.036,0.021l-0.118,0.123
	l-0.04,0.027l-0.078-0.036l-0.026-0.074l0.027-0.08l0.081-0.053l-0.084-0.336l0.004-0.055l0.042-0.094l0.075-0.058l0.106,0.052
	l0.002-0.103l0.007-0.046l0.068-0.151l0.094-0.158l0.112-0.147l0.061-0.06l0.07-0.04l0.088-0.015l0.075,0.021l0.055,0.045
	l0.052,0.019l0.068-0.053l0.043-0.024l0.07-0.01l0.067,0.017l0.037,0.051l0.003,0.142l0.023,0.028l0.08,0.018l0.12-0.003
	l0.127-0.029l0.264-0.1l-0.379-0.235l-0.062-0.053l0.001-0.12l0.059-0.396l0.274-0.118l0.083-0.058l0.193-0.186l0.102-0.047
	l0.139,0.012l0.025-0.034l-0.117-0.022l0.116-0.129l0.22-0.197l0.502-0.655l-0.02,0.053l-0.008,0.045l0.002,0.044l0.013,0.046
	l0.057-0.035l0.072-0.071l0.04-0.083l-0.062-0.123l0.033-0.071l0.054-0.08l0.038-0.072l0.089,0.075l0.034,0.106l-0.002,0.113
	l-0.021,0.104l0.028,0.018l0.064-0.187l-0.004-0.36l0.093-0.178l-0.029-0.003l-0.065-0.017l-0.029-0.003l0.11-0.217l0.412-0.646
	l0.031-0.096l0.516-0.731l0.145-0.148l0.156-0.13l0.162-0.103l-0.033-0.079l0.074-0.107l0.09-0.098l0.016-0.061l-0.012-0.064
	l0.047-0.106l0.131-0.195l-0.083-0.019l-0.024-0.043l0.024-0.064l0.062-0.08l0.03,0.018l0.004,0.034l0.006,0.022l0.024,0.007
	l0.057-0.007l-0.023-0.059l0.016-0.055l0.078-0.166l0.018-0.014l0.011-0.021v-0.05l-0.015-0.021l-0.063-0.058l-0.019-0.027
	l-0.012-0.081l0.007-0.069l-0.006-0.062l-0.048-0.059l-0.064-0.039l-0.057-0.016l-0.053,0.016l-0.051,0.043l-0.016-0.082
	l-0.055-0.029l-0.058-0.011l-0.031-0.023l0.009-0.071l0.042-0.035l0.061-0.004l0.065,0.026l0.076-0.026l0.28-0.167l0.109-0.042
	l0.049,0.013l0.104,0.053l0.052,0.013l0.083-0.007l0.071-0.017l0.065-0.007l0.075,0.026l0.06,0.073l0.032,0.085l0.053,0.071
	l0.125,0.025l0.05-0.01l0.032-0.022l0.032-0.029l0.047-0.028l0.02-0.018l0.033-0.059l0.02-0.021l0.024,0.008l0.024,0.023l0.025,0.02
	l0.025-0.011l0.06-0.038l0.08-0.012l0.083-0.003l0.068-0.008l0.066-0.029l0.063-0.039l0.058-0.047l0.05-0.049l0.136-0.201
	l0.058-0.206l0.054-0.419l-0.004-0.025l-0.012-0.041l0.075-0.104l0.208-0.609l-0.033-0.021l-0.097,0.128l-0.028-0.016l0.084-0.248
	l0.027-0.252l-0.005-0.513l0.015-0.11l0.036-0.079l0.144-0.182l0.156-0.147l0.065-0.078l0.012-0.081l0.051-0.01l0.055,0.245
	l-0.002,0.206l0.07-0.006l0.105-0.054l0.191-0.134l0.082-0.077l0.066-0.08l0.047-0.072l0.024-0.058l0.008-0.166l0.042-0.03
	l0.129,0.022l-0.011,0.036l0.004,0.022l0.008,0.019l0.005,0.023l0.072-0.059l0.033-0.074l0.001-0.076l-0.028-0.066l0.024-0.031
	l0.156-0.077l0.078-0.062l0.073-0.094l0.109-0.034l0.098-0.091l0.068-0.109l0.021-0.092l-0.053-0.219l-0.003-0.054l0.004-0.046
	l-0.003-0.045l-0.023-0.056l0.041-0.051l0.095-0.081l0.05-0.056l0.032-0.067l-0.015-0.042l-0.034-0.041l-0.08-0.179l-0.122-0.037
	l-0.138,0.017l-0.104,0.038l-0.006,0.044l-0.012,0.037l-0.041-0.014l-0.032-0.006l-0.046-0.003l-0.026-0.015l0.087-0.118
	l0.049-0.051l0.06-0.039l0.13-0.521l0.009-0.178l-0.028-0.205l-0.028-0.081l-0.093-0.101v-0.034l-0.009-0.023l-0.064-0.016
	l-0.035,0.019l-0.028,0.039l-0.035,0.03l-0.056-0.001l0.221-0.33l0.141-0.108l0.16,0.02l0.113-0.048l0.083-0.211l0.07-0.354
	l-0.03-0.02l-0.013,0.071l-0.001,0.027l0.007,0.032l-0.026,0.033l-0.033-0.02l0.008-0.151l-0.046-0.558l-0.025-0.056l-0.072-0.058
	l-0.021-0.052l0.017-0.074l0.008-0.075l-0.046-0.06l0.052-0.011l-0.042-0.052l-0.018-0.073l0.003-0.143l-0.026-0.031l0,0
	l0.631-0.483l0.537-0.41l0.085,0.089l0.106,0.043h0.123l0.127-0.043l0.129-0.093l0.062-0.105l0.054-0.259l0.068-0.164l0.126-0.204
	l0.154-0.148l0.148,0.004l0.025,0.053l0.069,0.325l0.003,0.076l-0.01,0.011l-0.049,0.029l-0.013,0.016l0.003,0.021l0.029,0.032
	l0.004,0.015l-0.009,0.243l-0.014,0.079l-0.12,0.26l0.006,0.081l0.106,0.05l0.178-0.024l0.353-0.084l0.9-0.019l0.217-0.041
	l0.037-0.1l-0.022-0.143l0.042-0.168l0.057-0.046l0.252-0.09l0.306-0.189l0.163-0.039l0.186,0.01l0.181,0.039l0.15,0.052
	l0.158,0.102l0.038-0.003l0.021-0.093l-0.007-0.071l-0.02-0.063l-0.011-0.065l0.022-0.084l0.074-0.113l0.174-0.406l0.063-0.326
	l0.007-0.086l0.019-0.238l0.062-0.26l0.003-0.066l-0.036-0.059l-0.054-0.038l-0.038-0.056l0.011-0.105l0.084-0.182l0.197-0.329
	l0.057-0.193l0.023-0.17l-0.014-0.065l-0.053-0.069l-0.137-0.068l-0.019-0.049l0.078-0.103l0.136-0.109l0.085-0.023l0.221-0.058
	l0.136-0.078l0.055-0.083l0.014-0.058l0.03-0.03l0.104-0.003l0.08,0.028l0.074,0.035l0.069-0.005l0.052-0.059l0.018-0.019
	l0.017-0.008l0.019-0.005l0.022-0.011l0.033,0.081l-0.08,0.189l-0.014,0.116l0.012,0.087v0.082l-0.015,0.087l-0.033,0.103
	l-0.095,0.194l-0.035,0.116l0.127,0.367l0.146,0.225l0.026,0.087l0.003,0.085l-0.102,0.805l0.035,0.13l0.051,0.046l0.117,0.076
	l0.015,0.017l0.031,0.035l0.07-0.042l0.034,0.022l-0.01,0.06l-0.055,0.072l-0.027-0.016l-0.003-0.022l-0.007-0.025l-0.085,0.112
	l-0.03,0.098l0.03,0.062l0.095,0.005l-0.069,0.091l0.106-0.028l-0.018,0.058l-0.095,0.048l-0.057,0.064l-0.012-0.021l-0.04-0.043
	l-0.012-0.021l-0.093,0.177l0.053,0.132l0.107,0.045l0.074-0.082l0.262,0.163l-0.055,0.022l-0.056,0.03l-0.05,0.041l-0.038,0.052
	l0.032,0.02l0.024-0.003l0.06,0.007l-0.026,0.032l-0.192-0.032l-0.022,0.031l0.033,0.029l0.016,0.028l0.005,0.062l-0.012,0.004
	l-0.009,0.014l-0.016,0.013l-0.002-0.033l-0.015-0.028l-0.029-0.023l-0.046-0.021l0.006,0.061l0.021,0.055l0.015,0.059l-0.013,0.073
	l-0.067-0.119l-0.091-0.104l-0.107-0.052l-0.117,0.037l-0.016,0.02l0.001,0.009l0.011,0.006l0.009,0.011l-0.27,0.206l-0.005,0.229
	l0.171,0.217l0.26,0.173l0.056,0.021l0.066,0.013h0.065l0.057-0.018l0.043-0.031l0.019-0.028l0.014-0.032l0.027-0.046l0.037-0.031
	l0.074-0.02l0.041-0.037l0.234-0.261l0.088-0.129l0.028-0.139l-0.037,0.027l-0.022,0.021l-0.015,0.027l-0.018,0.047l-0.027-0.016
	l0.032-0.086l0.062-0.113l0.077-0.104l0.162-0.121l0.056-0.106l0.056-0.181l0.086-0.162l0.468-0.623l0.043-0.097l-0.03-0.069
	l-0.041-0.063l0.021-0.079l0.043-0.089l0.031-0.094l-0.013-0.147l-0.063-0.178l-0.097-0.173l-0.111-0.09l-0.026,0.034l-0.012-0.081
	l0.153-0.07l0.2-0.062l0.124-0.062l0.521,0.124l0.108,0.057l0.503,0.134l0.078,0.002l0.05-0.021l0.037-0.047l0.045-0.048l0.05-0.034
	l0.054-0.002l0.021-0.027l-0.029-0.018l0.024-0.034l0.091,0.037l0.368,0.066l0.088-0.005l0.331-0.08l0.336-0.022l0.161-0.029
	l0.021-0.028l0.008-0.071l0.063-0.013l0.304,0.094l0.144,0.002l0.085,0.037l0.057-0.007l0.053-0.029l0.079-0.029l0.242-0.022
	l0.07-0.028l0.078-0.176l0.135-0.1l0.157-0.051l0.237-0.043l0.077-0.028l0.074-0.049l0.32-0.338l0.075-0.043l0.027,0.008
	l0.151,0.028h0.028l0.068,0.014l0.053-0.035l0.059-0.082l0.066-0.071l0.046-0.031l0.083-0.022l0.062-0.006l0.049,0.006l0.21,0.049
	l0.166,0.041l0.171,0.003l0.163-0.026l0.089-0.102l0.075-0.043l0.085,0.069l0.014,0.073l0.141,0.077l0.166,0.062l0.132,0.02
	l0.023,0.032l0.016,0.042l-0.005,0.049l-0.039,0.054l-0.038-0.063l-0.056-0.046l-0.07-0.02l-0.084,0.014l0.017,0.044l0.019,0.023
	l0.031,0.01l0.051-0.004l0.004,0.04l0.007,0.022l-0.001,0.021l-0.023,0.041l0.195-0.013l0.109,0.008l0.108,0.041l0.082,0.075
	l0.061,0.07l0.003,0.004l0.081,0.093l0.091-0.007l0.263-0.046l0.248-0.141l0.285-0.229l0.192-0.257l0.043-0.148l-0.004-0.095
	l-0.011-0.047l0.018-0.116l-0.066-0.04l-0.023-0.08l-0.024-0.054l-0.086-0.049l-0.072-0.01l-0.075,0.007l0.022-0.05l0.41-0.1
	l0.125-0.094l0.247-0.196l0.07-0.104l0.094-0.078l0.141-0.087l0.153-0.118l0.081-0.078l0.064-0.091l0.238-0.215l0.112-0.133
	l0.049-0.188l0.06-0.089l0.047-0.02l0.026-0.004l0.037,0.011l0.04,0.003l0.033-0.014l0.114-0.07l0.063-0.026l0.031-0.019
	l0.049-0.039l0.042-0.046l0.031-0.044l0.034-0.039l0.051-0.032l-0.188-0.006l-0.254,0.012l-0.297,0.078l-0.241-0.005l-0.068-0.063
	l0.168-0.107l0.169,0.004l0.086-0.005l0.068-0.021l0.06-0.025l0.062-0.04l0.074-0.028l0.047-0.042l0.022-0.063l0.037-0.029
	l0.092,0.062l0.004-0.05l0.021-0.042l0.035-0.032l0.048-0.022l-0.03,0.109l0.099,0.032l0.219-0.005l0.078-0.011l0.068-0.1
	l0.063-0.132l0.065-0.104l-0.028-0.019l-0.051,0.001l0.001-0.042l0.055-0.133l-0.029-0.017l-0.042,0.033l-0.033,0.019l-0.033,0.003
	l-0.042-0.016l0.042-0.028l0.081-0.065l0.04-0.023l0.044-0.01l0.067,0.008l0.044-0.007l0.217-0.064l0.058-0.003l-0.074,0.061
	l-0.109,0.062l-0.07,0.065l0.042,0.071l0.083-0.004l0.092-0.077l0.083-0.106l0.052-0.095l-0.003-0.029l-0.024-0.025l-0.038-0.029
	l0.021-0.024l0.063-0.042l0.014-0.006l0.03-0.054l0.034-0.047l0.01-0.045l-0.041-0.046l-0.003-0.028l0.05-0.027l0.069-0.016
	l0.056,0.008l0.052,0.022l0.065,0.015h0.069l0.063-0.015l0.018-0.021v-0.064l0.018-0.017l0.018-0.002l0.042,0.007l0.018-0.001
	l0.048,0.004l0.033,0.027l0.034,0.008l0.048-0.045l0.017,0.007l0.06-0.018l0.058-0.029l0.016-0.022l0.031,0.008l0.135,0.015
	l0.32,0.098l0.066-0.009l0.091-0.043l0.061-0.021l0.028,0.009l0.011,0.025l0.019,0.022l0.012,0.022l-0.012,0.032l-0.02,0.011
	l-0.025,0.003l-0.015,0.017l0.005,0.045l-0.013,0.019l-0.008,0.01l0.027,0.019l0.048-0.021l0.15-0.03l0.008-0.046l0.015-0.038
	l0.02-0.036l0.032-0.044l-0.104,0.019l-0.04,0.02l-0.048-0.101l0.036-0.096l0.089-0.056l0.183,0.04l0.126-0.042l0.057,0.009
	l0.049,0.025l0.054,0.017l0.058,0.01l0.388-0.019l0.184,0.058l0.118,0.003l0.104-0.032l0.044-0.071l0.049-0.032l0.092-0.086
	l0.044-0.027l0.058-0.002l0.074,0.009l0.078,0.042l0.101,0.017l0.098-0.029l0.157-0.021l0.062-0.066l0.114,0.071l0.148,0.071
	l0.106-0.016l0.05-0.083l0.049-0.079l0.008-0.028l0.043-0.011l0.065,0.113l0.068,0.089l0.163,0.214l0.273,0.417l0.221,0.291
	l0.161,0.18l0.19,0.158l0.254,0.2l0.28,0.15l0.174,0.079l-0.092,0.01l-0.228-0.085l-0.382-0.255l-0.042-0.038l-0.036-0.039
	l-0.042-0.031l-0.062-0.005l-0.038,0.029l-0.03,0.053l-0.034,0.044l-0.047-0.003l-0.057,0.045l-0.044,0.154l-0.044,0.265
	l-0.038-0.074l-0.012-0.104l-0.025-0.072l-0.083,0.021l0.001-0.059l-0.096-0.06l-0.037-0.066l-0.042-0.004l-0.084,0.053
	l-0.086,0.073l-0.051,0.052l-0.098,0.129l-0.04,0.067l0.003,0.046l0.072,0.014l0.072-0.053l0.073-0.063l0.074-0.022l-0.033,0.045
	l-0.007,0.039l0.016,0.035l0.041,0.027l-0.039,0.039l-0.108,0.165l0.042,0.067l0.068,0.038l0.078-0.005l0.071-0.064l-0.065-0.001
	l-0.028-0.035l0.006-0.055l0.039-0.071l0.057-0.046l0.06-0.021l0.047-0.021l0.021-0.057l0.07,0.066l0.009,0.089l-0.034,0.103
	l-0.128,0.222v0.072l0.055,0.048l0.167,0.09l0.033,0.011l0.055,0.005l0.133-0.031l0.027-0.003l0.037-0.033l0.279-0.154l0.026-0.028
	l0.082-0.121l0.113-0.066l0.033-0.03l0.029-0.015l0.106-0.035l0.031-0.017l0.148-0.146l0.106-0.073l0.526-0.228l0.037-0.025
	l0.024-0.059l-0.005-0.108l0.012-0.05l0.034-0.047l0.075-0.061l0.036-0.037l0.022-0.048l0.019-0.1l0.018-0.049l0.021-0.012
	l0.065-0.014l0.023-0.016l0.014-0.027l-0.002-0.019l-0.005-0.014l0.003-0.015l0.042-0.039l0.052-0.028l0.109-0.044l0.039-0.012
	l0.027-0.001l0.027-0.01l0.037-0.044l0.127-0.07l0.067,0.034l0.043,0.045l0.042-0.002l0.067-0.106l0.03,0.019l-0.017,0.029
	l-0.006,0.022l-0.01,0.052l0.086-0.035l0.026-0.018l0.007,0.018l0.005,0.003l0.001,0.004l-0.002,0.021l0.025,0.015l0.063-0.087
	l0.016,0.06l-0.017,0.085l0.033,0.044l0.054,0.004l0.05-0.032l0.035-0.016l0.008,0.056l0.031,0.019l0.029-0.026l0.027-0.007
	l0.03,0.008l0.037,0.015l0.095,0.074l0.055,0.081l0.031,0.092l0.023,0.112l0.021,0.031l0.155,0.156l0.074,0.161l0.122,0.151
	l0.462,0.341l0.481,0.243l0.107,0.069l0.658,0.406l0.494,0.201l0.057,0.002l0.051-0.021l0.19-0.022l0.146,0.003l0.033-0.004
	l0.057-0.02l0.118-0.074l0.031-0.003l0.056,0.016l0.061-0.015l0.114-0.048l0.072-0.014l0.178,0.02l0.389-0.09l0.672,0.03
	l1.114-0.172l0.106-0.001l0.183,0.036l0.281,0.096l0.083,0.008l0.186-0.018l0.064,0.077l0.115,0.007l0.132-0.012l0.113,0.024
	l0.244,0.137l0.089,0.025h0.089l0.164-0.026l0.154,0.046l0.263-0.026l0.274,0.041l0.096-0.038l0.126-0.031l0.047-0.034l0.032-0.035
	l0.155-0.122l0.303-0.148l0.138-0.119l0.174-0.07l0.062-0.035l0.063-0.079l0.147-0.25l0.043-0.1l-0.001-0.046l-0.014-0.058
	l-0.019-0.043l-0.017-0.007l0.047-0.05l0.059-0.017l0.13,0.002l0.092,0.123l0.459,0.175l0.117,0.119l-0.069,0.07l-0.288,0.08
	l0.037,0.069l-0.012,0.146l0.046,0.077l0.157,0.016l0.03-0.003l0.047-0.049l0.06-0.032l0.061-0.016l0.051,0.002l0.052,0.027
	l0.049,0.041l0.047,0.02l0.045-0.03l0.013-0.054l-0.002-0.056l0.011-0.048l0.058-0.024l-0.018-0.059v-0.045l-0.005-0.042
	l-0.036-0.052l-0.048-0.037l-0.055-0.021l-0.054-0.003l-0.047,0.019l-0.025-0.016l0.01-0.075l0.271-0.021l0.237-0.043l0.022-0.015
	l0.055-0.046l0.023-0.003l0.068,0.049l0.022,0.009l0.093-0.01l0.037,0.013l0.031,0.053l-0.096-0.006l-0.086,0.019l-0.051,0.051
	l0.01,0.094l0.018,0.033l0.018,0.016l0.072,0.017l0.012-0.008l0.009-0.024l0.012-0.021h0.021l0.053,0.037l0.018,0.006l0.101,0.005
	l0.073-0.008l0.061-0.032l0.065-0.068l-0.006-0.014l-0.02-0.016l-0.004-0.02l0.039-0.028l0.045-0.01l0.048,0.002l0.046,0.014
	l0.039,0.019l-0.076,0.06l-0.002,0.054l0.017,0.056l-0.023,0.07l0.025,0.016l0.021-0.01l0.035-0.021l0.027-0.024l-0.01-0.024
	l-0.02-0.026l0.036-0.01h0.047l0.019,0.004l0.065,0.002l0.067,0.014l0.069,0.007l0.071-0.025l-0.054-0.023l-0.054-0.004h-0.049
	l-0.033-0.004l-0.031-0.04l0.029-0.029l0.06-0.017l0.059-0.004l-0.044-0.028l-0.045-0.017l-0.044-0.002l-0.041,0.016l0.053-0.063
	l0.022-0.021l0.033-0.013l-0.076,0.003l-0.171,0.032l-0.063,0.021l-0.007-0.04l0.092-0.054l0.103-0.03h0.104l0.097,0.035
	L693.705,651.934z M653.554,625.881l-0.059-0.027l0.005-0.055l0.089-0.012l0.035-0.107l0.081-0.074l0.102-0.04l0.1-0.003
	l-0.02,0.059L653.554,625.881z M657.709,623.467l-0.086-0.027l0.061-0.1l0.102-0.066l0.091-0.01l0.03,0.07l-0.038,0.084
	l-0.072,0.043L657.709,623.467z M663.669,625.875l-0.001,0.001l0.001,0.002l-0.003,0.004l-0.005-0.001l0.002-0.005h-0.002
	l0.003-0.004L663.669,625.875z"/></svg>