<?xml version="1.0" encoding="utf-8"?>
<!-- Generator: Adobe Illustrator 15.0.0, SVG Export Plug-In . SVG Version: 6.00 Build 0)  -->
<!DOCTYPE svg PUBLIC "-//W3C//DTD SVG 1.1//EN" "http://www.w3.org/Graphics/SVG/1.1/DTD/svg11.dtd">
<svg version="1.1" id="Ebene_1" xmlns="http://www.w3.org/2000/svg" xmlns:xlink="http://www.w3.org/1999/xlink" x="0px" y="0px"
	 width="1920px" height="1080px" viewBox="0 0 1920 1080" enable-background="new 0 0 1920 1080" xml:space="preserve">

<path fill="#F4E0B6" stroke="#FFFFFF" d="M1155.062,640.101l0.536,0.947l0.537,0.952l0.537,0.951l0.54,0.955l0.54,0.958l0.542,0.96
	l0.544,0.962l0.545,0.964l0.546,0.968l0.548,0.97l0.549,0.972l0.55,0.975l0.553,0.979l0.554,0.98l0.556,0.983l0.557,0.985
	l0.138,0.245l0.002,0.003l0.026,0.154l-0.106,0.055l-0.541,0.091l-0.511,0.19l-0.443,0.251l-0.219,0.203l-0.396,0.486l-0.274,0.194
	l-0.668,0.2l-0.17,0.128l-0.087,0.067l-0.06,0.131l-0.07,0.463l-0.193,0.375l-0.02,0.139l0.046,0.15l0.097,0.106l0.125,0.075
	l0.137,0.049l0.149,0.076l0.112,0.111l0.087,0.139l0.227,0.528l0.022,0.113l0.016,0.443l-0.009,0.056l-0.102,0.13l-0.059,0.104
	l-0.04,0.11l-0.133,0.595l0.003,0.115l0.038,0.118l0.04,0.082l0.018,0.086l-0.035,0.12l-0.086,0.185l0.005,0.086l0.062,0.11
	l0.161,0.222l0.063,0.063l0.136,0.105l0.027,0.035l0.015,0.071l-0.023,0.055l-0.661,0.67l-0.119,0.182l-0.088,0.219l0.01,0.197
	l0.178,0.11l0.175,0.031l0.063,0.042l0.311,0.438l0.026,0.02l0.033,0.013l0.027,0.017l0.014,0.033l-0.008,0.035l-0.039,0.057
	l-0.007,0.027l0.005,0.094l0.016,0.037l0.039,0.046l0.088,0.074l0.082,0.038l0.087,0.001l0.244-0.082l0.096,0.008l0.082,0.066
	l0.103,0.124l0.065,0.132l-0.018,0.108l-0.07,0.091l-0.094,0.081l-0.06,0.105l-0.065,0.23l-0.046,0.1l-0.449,0.677l-0.069,0.146
	l-0.039,0.159l-0.01,0.074l-0.081,0.626l-0.004,0.229l0.017,0.042l0.144,0.043l0.111,0.054l0.047,0.056l0.03,0.073l0.054,0.099
	l0.162,0.132l0.393,0.116l0.149,0.138l0.141,0.253l0.064,0.076l0.108,0.077l0.24,0.106l0.103,0.075l0.068,0.203l-0.032,0.281
	l-0.139,0.631l-0.037,0.088l-0.327,0.426l-0.047,0.083l-0.06,0.22l-0.022,0.239l0.039,0.87l0.08,0.391l0.01,0.176l0.006,0.033
	l0.044,0.042l0.188,0.09l0.332,0.236l0.131,0.044l0.182-0.003l0.185-0.059l0.171-0.094l0.144-0.111l0.156-0.168l0.104-0.179
	l0.055-0.209l0.013-0.251l0.7,0.086l0.501-0.063l0.084,0.028l0.08,0.627l-0.013,0.2l0.039,0.05l0.258,0.155l0.84,0.839l0.04,0.046
	l0.033,0.055l0.025,0.058l0.167,0.554l0.02-0.025l0.017-0.029l0.023-0.062l0.213-0.238l0.14-0.119l0.073,0.006l-0.002-0.085
	l0.033,0.01l0.042,0.069l0.032,0.087l0.054,0.268l0.535,1.522l0.137,0.206l0.198,0.169l0.228,0.122l0.229,0.071l0.182-0.003
	l0.394-0.062l0.163,0.049l0.033,0.035l0.077,0.136l0.051-0.002l0.36-0.264l0.097-0.052l0.089,0.023l0.232,0.29l0.288,0.281
	l0.037,0.058l0.08,0.128l0.026,0.091l0.02,0.2l0.021,0.096l0.036,0.098l0.048,0.093l0.017,0.058l-0.021,0.114v0.061l0.194,0.733
	l-0.237,0.104l-0.297,0.053l-0.154-0.038l-0.175,0.042l-0.042,0.018l-0.14,0.085l-0.046,0.014l-0.101,0.003l-0.041,0.007
	l-0.089,0.067l-0.072,0.077l-0.089,0.042l-0.144-0.042l-0.015,0.062l-0.053,0.023l-0.071,0.012l-0.07,0.022l-0.049,0.043
	l-0.021,0.052l-0.023,0.138l-0.03,0.064l-0.051,0.056l-0.1,0.081l-0.013,0.012l-0.074,0.077l-0.063,0.085l-0.035,0.062l-0.035,0.119
	l-0.025,0.059l-0.034,0.018l-0.078,0.007l-0.03,0.072l-0.009,0.089l-0.059,0.174l0.034,0.169l-0.004,0.128l-0.15-0.002l-0.059,0.047
	l-0.363,0.153l-0.058,0.082l0.001,0.113l0.022,0.11l0.007,0.078l0.093,0.076l-0.016,0.075l-0.211,0.21l-0.052,0.079l-0.073,0.166
	l-0.04,0.153l-0.013,0.016l0.002,0.049l-0.051,0.016h-0.104l-0.04,0.029l-0.065,0.066l-0.031,0.024l-0.034,0.039l-0.008,0.046
	l-0.002,0.044l-0.015,0.029l-0.06,0.039l-0.058,0.061l-0.033,0.075l0.016,0.087l0.04,0.096l0.034,0.159l0.04,0.094l0.06,0.09
	l0.132,0.158l0.051,0.07l0.038,0.035l0.121,0.053l0.047,0.027l0.018,0.03l0.011,0.035l0.021,0.029l0.048,0.016l0.002,0.308
	l0.037,0.108l0.03,0.046l0.055,0.061l0.024,0.036l0.007,0.054l-0.034,0.036l-0.044,0.032l-0.026,0.036v0.119l0.017,0.112
	l-0.014,0.101l-0.09,0.09l-0.015,0.026l-0.107,0.121l-0.021-0.002l-0.031,0.044l-0.058,0.02l-0.061,0.008l-0.043,0.016l-0.082,0.165
	l-0.024,0.232l0.079,0.677l-0.008,0.251l-0.055,0.229l-0.111,0.143l-0.063,0.017l-0.209,0.021l-0.077-0.009l-0.032,0.087
	l-0.065,0.396l0.004,0.083l0.027,0.079l-0.029,0.03l-0.14,0.297l0.001,0.106l0.028,0.207l0.006,0.019l0.038,0.063l0.003,0.023
	l-0.016,0.008l-0.021,0.004l-0.014,0.016l-0.024,0.084l-0.018,0.04l-0.022,0.031l-0.019,0.001l-0.063-0.024h-0.024l-0.021,0.02
	l-0.005,0.017l0.002,0.014l-0.001,0.01l-0.017,0.025l-0.016,0.038l-0.011,0.039v0.026l0.035,0.097l0.008,0.163l0.025,0.078
	l0.08,0.162l0.006,0.074l-0.047,0.057l0.017,0.03l0.029,0.012l0.015,0.01l0.037,0.06l-0.081,0.003l-0.013,0.029l0.015,0.047
	l0.002,0.052l-0.059,0.109l-0.02,0.056l0.01,0.061v0.09l-0.055,0.288l-0.022,0.065l-0.069,0.096l0.024,0.122l0.057,0.124
	l0.021,0.105l-0.021,0.022l-0.033,0.003l-0.003,0.001l-0.038-0.006h-0.025l-0.01,0.021l-0.002,0.059l-0.012,0.02l-0.038,0.046
	l0.001,0.059l0.01,0.066l-0.013,0.064l-0.049-0.019l-0.021,0.058l-0.154,0.171l-0.12,0.193l0.156,0.165l-0.215,0.121l-0.03,0.011
	l-0.084,0.014l-0.002,0.002l-0.08,0.039l-0.004,0.007l-0.119-0.007l-0.041,0.016l0.009,0.055l0.026,0.062l0.011,0.055l-0.016,0.046
	l-0.046,0.038l-0.049,0.092l0.085,0.099l0.101,0.088l0.004,0.064l-0.086,0.101l-0.008,0.132l0.01,0.147l-0.032,0.148l-0.063,0.004
	l-0.041,0.029l-0.027,0.048l-0.044,0.108l-0.018,0.03l-0.069,0.062l-0.356,0.173l-0.073,0.067l-0.14-0.035l-0.066-0.007l-0.05,0.008
	l-0.051,0.056l-0.07,0.161l-0.053,0.057l-0.084,0.014l-0.079-0.029l-0.065-0.038l-0.046-0.008l-0.028,0.035l0.012,0.036l0.021,0.032
	l0.003,0.018l-0.037,0.019l-0.07,0.006l-0.04,0.013l-0.023,0.036l-0.064,0.185l0.002,0.034l0.021,0.023l0.015,0.024l-0.015,0.033
	l-0.03,0.009l-0.053-0.066h-0.041l-0.013,0.017l-0.003,0.03l0.003,0.032l0.012,0.029l0.005,0.047l-0.027,0.024l-0.039,0.017
	l-0.029,0.023l-0.065,0.142l-0.042,0.039l-0.012,0.012l-0.076,0.001l-0.008,0.114l-0.041,0.054l-0.363,0.174l-0.083,0.061
	l-0.093,0.094l-0.048,0.031l-0.031,0.029l-0.077,0.106l-0.009,0.033l-0.028,0.039l-0.186,0.1l-0.05,0.073l-0.155-0.024l-0.112,0.103
	l-0.095,0.128l-0.098,0.05l-0.027,0.048l-0.025,0.009l-0.023-0.005l-0.025,0.005l-0.32,0.185l-0.049-0.001l-0.127,0.158
	l-0.049,0.045l-0.076,0.032l-0.091,0.021l-0.088,0.009l-0.067-0.01l-0.012,0.077l-0.049,0.005l-0.067-0.02l-0.065-0.003l-0.04,0.025
	l-0.073,0.076l-0.166,0.104l-0.042,0.054l0.007,0.066l-0.02,0.021l-0.129,0.031l-0.031,0.026l-0.03,0.017l-0.13,0.022l-0.141,0.147
	l-0.118,0.182l-0.057,0.128l-0.03,0.099l-0.01,0.048l0.008,0.042l-0.008,0.028l-0.069,0.077l-0.045,0.078l-0.029,0.026l-0.015,0.03
	l0.015,0.056l0.01,0.052l-0.019,0.038l-0.039,0.023l-0.045,0.001l-0.017,0.218l0.037,0.072l0.103,0.027l0.049-0.083l0.051,0.031
	l0.053,0.075l0.053,0.054l0.07,0.014l0.631-0.032l0.076,0.058l0.09,0.007l0.184,0.039l0.141,0.064l-0.083,0.185l-0.004,0.099
	l-0.026,0.049l-0.031,0.056l0.022,0.488l-0.146,0.791l0.002,0.117l0.022,0.142l-0.017,0.119l-0.063,0.229l-0.023,0.411l-0.045,0.146
	l-0.054,0.084l-0.201,0.238l-0.129,0.204l-0.072,0.228l0.011,0.239l0.115,0.242l-0.019,0.277l-0.305,0.276l-1.845,1.094
	l-0.346,0.329l-0.27,0.336l-0.149,0.128l-0.183,0.089l-0.646,0.212l-0.079,0.036l-0.092,0.058l-0.066,0.077l-0.021,0.19l-0.06,0.096
	l-0.076,0.078l-0.146,0.104l-0.074,0.073l-0.043,0.097l0.017,0.134l-0.033,0.067l-0.237,0.042l-0.02,0.106l-0.058,0.11l-0.467,0.56
	l-0.043,0.095l-0.001,0.006l-0.026,0.094v0.073l0.029,0.101l-0.017,0.039l-0.039,0.012l-0.03,0.023l-0.038,0.128l-0.051,0.295
	l-0.039,0.138l-0.04,0.081l-0.028,0.013l-0.036-0.017l-0.063-0.003l-0.103,0.014l-0.031,0.091l0.003,0.058l0.025,0.041l-0.003,0.03
	l-0.146,0.047l-0.044,0.03l-0.022,0.051l-0.002,0.077l-0.088,0.036l-0.17,0.136l-0.143,0.148l-0.046,0.08l-0.015,0.09l0.015,0.119
	l0.021,0.032l0.028,0.013l0.027,0.017l0.01,0.045l-0.011,0.017l-0.051,0.017l-0.012,0.007l-0.052,0.144l-0.005,0.014l-0.021,0.038
	l-0.095,0.068l-0.081-0.014l-0.183-0.132l-0.258-0.121l-0.142-0.036l-0.132-0.004l-0.193,0.035l-0.071-0.031l-0.071-0.101
	l-0.021-0.066l-0.005-0.062l-0.015-0.057l-0.057-0.06l-0.055-0.026l-0.047,0.001l-0.048,0.012l-0.055,0.003l-0.099-0.021
	l-0.082-0.05l-0.063-0.083l-0.049-0.167l-0.02-0.046l-0.024-0.045l-0.025-0.038l-0.143,0.153l-0.055,0.087l-0.038,0.106
	l-0.003,0.064l0.008,0.161l-0.009,0.053l-0.05,0.051l-0.052,0.01l-0.05-0.002l-0.047,0.025l-0.037,0.099l0.028,0.118l0.16,0.345
	l0.016,0.08l-0.033,0.07l-0.354,0.273l-0.07,0.091l-0.089,0.216l-0.059,0.109l-0.087,0.065l-0.102,0.052l-0.12,0.14l-0.257,0.193
	l-0.079,0.09l-0.052,0.086l-0.026,0.107l-0.023,0.21l-0.03,0.108l-0.095,0.178l-0.062,0.08l-0.501,0.468l-0.151,0.098l-0.196,0.022
	l-0.337-0.119l-0.2,0.086l-0.295,0.224l-0.164,0.074l-0.177,0.025l0.056-0.367l-0.01-0.345l-0.08-0.333l-0.235-0.524l-0.105,0.031
	l-0.153,0.038l-0.097,0.046l-0.285-0.064l-0.339-0.338l-0.76-0.943l-1.24-1.129l-0.247-0.226l-0.111-0.063l-0.378-0.148l-0.34-0.248
	l-0.117-0.062l-0.123-0.026l-0.128,0.02l-0.175,0.059l-0.066,0.012l-0.031-0.025l-0.021-0.048l-0.037-0.056l-0.097-0.105
	l-0.045-0.033l-0.045-0.016l-0.037,0.004l-0.04-0.008l-0.05-0.051l-0.061-0.026l-0.235-0.055l-0.077-0.006l-0.045,0.012l-0.039,0.02
	l-0.034,0.029l-0.034,0.036l-0.081,0.011l-1.359-0.373l-1.356-0.376l-0.15-0.117l-0.138-0.193l-1.948-0.973l-0.534-0.14l-0.04-0.071
	l0.074-0.572l0.199-0.536l0.044-0.283v-0.585l-0.012-0.057l-0.02-0.049l-0.006-0.042l0.028-0.035l0.061-0.037l1.014-0.638
	l1.41-0.313l0.177-0.082l0.453-0.478l0.2-0.097l0.279-0.064l0.136-0.06l0.107-0.096l0.029-0.058l0.04-0.12l0.033-0.059l0.033-0.034
	l0.185-0.129l0.259-0.123l0.837-0.119l0.238-0.137l0.835-0.779l0.063-0.065l-0.271-0.09l-0.174,0.025l-0.372-0.041l-0.283-0.088
	l-0.008-0.024l-0.079-0.007l-0.275-0.172l-0.867-0.306l-0.084-0.059l-0.071-0.086l-0.064-0.117l-0.06-0.088l-0.068-0.037
	l-0.079-0.022l-0.097-0.046l-0.141-0.148l-0.076-0.064l-0.105,0.001l-0.031-0.012l-0.039-0.008l-0.05,0.015l-0.05,0.02l-0.054,0.011
	h-0.049l-0.037-0.013l-0.07-0.078l-0.051-0.12l-0.028-0.132l0.004-0.109l-0.028-0.08l-0.086-0.101l-0.644-0.536l-0.094-0.176
	l-0.04-0.236l-0.039-0.128l-0.065-0.069l-0.077-0.05l-0.253-0.249l-0.213-0.399l-0.255-0.478l-0.104-0.313l-0.015-0.088l0.026-0.212
	l-0.007-0.094l-0.026-0.046l-0.029-0.016l-0.032-0.012l-0.029-0.027l-0.025-0.055l-0.012-0.086l-0.087-0.265l-0.014-0.107
	l-0.002-0.105l0.088-0.342l-0.004-0.162l-0.119-0.129l-0.193-0.105l-0.084-0.062l-0.163-0.18l-0.055-0.088l-0.034-0.098
	l-0.014-0.119l0.014-0.015l0.028-0.012l0.026-0.019l0.007-0.032l-0.019-0.028l-0.066-0.023l-0.017-0.016l0.003-0.058l0.036-0.107
	l0.001-0.062l-0.227-0.222l-0.05-0.036l-0.077,0.026l-0.066-0.013l-0.062-0.059l-0.063-0.115l0.004-0.049l0.022-0.061l0.01-0.057
	l-0.038-0.037l-0.028-0.018l-0.042-0.04l-0.031-0.042l0.009-0.03l0.11-0.084l-0.042-0.044l-0.103-0.03l-0.075-0.048l-0.02-0.063
	l-0.005-0.04l-0.016-0.029l-0.049-0.021l-0.042-0.033l-0.023-0.059l-0.009-0.06l0.008-0.04l-0.114-0.035l-0.095,0.003l-0.071,0.05
	l-0.045,0.097l-0.047,0.035l-0.081-0.022l-0.146-0.071l-0.144-0.026l-0.037-0.021l-0.044-0.062l0.012-0.032l0.027-0.025l0.003-0.04
	l-0.027-0.045l-0.028-0.017l-0.03-0.01l-0.028-0.029l-0.025-0.057l-0.015-0.091l-0.018-0.062l-0.143-0.334l-0.011-0.046
	l-0.232-0.322l-0.109-0.087l-0.012-0.02l-0.018-0.058l-0.013-0.017l-0.029-0.004l-0.03,0.004l-0.017,0.012l0.019,0.018l-0.051-0.017
	l-0.02,0.007l-0.01-0.005l-0.021-0.055l-0.007-0.035l0.002-0.09l0.004-0.035l-0.398-0.507l-0.092-0.073l-0.122,0.108l-0.076,0.027
	l-0.065-0.059l-0.031-0.039l-0.048-0.035l-0.055-0.019l-0.045,0.005l-0.016,0.026l-0.012,0.15l-0.082-0.054l-0.008-0.187
	l-0.063-0.063l-0.078,0.01l-0.106,0.1l-0.088-0.008l-0.039-0.014l-0.095-0.014l-0.028-0.02l-0.015-0.029l-0.02-0.021l-0.038,0.003
	l-0.024,0.021l-0.049,0.109l-0.037,0.027l-0.031-0.015l-0.025-0.042l-0.02-0.047l-0.03,0.035l-0.025,0.01l-0.026-0.014l-0.026-0.038
	l-0.079-0.178l-0.113-0.046l-0.176-0.042l-0.073-0.047l-0.024-0.062l-0.03-0.249l-0.037-0.1l-0.047-0.071l-0.021-0.017l0.021-0.035
	l0.122-0.096l0.037-0.033l0.042-0.013l0.035,0.023l0.037,0.013l0.024-0.028l-0.006-0.04l0.011-0.061l0.034-0.046l0.049-0.012
	l0.049-0.004l0.109,0.042l0.033-0.014l0.03-0.024l0.06-0.034l0.051-0.047v-0.03l-0.025-0.024l-0.021-0.022l-0.004-0.035l0.02-0.023
	l0.002-0.019l0.003-0.015l-0.029-0.156l0.016-0.04l0.049-0.07l0.16-0.185l-0.108,0.022l-0.059,0.001l-0.057-0.018l-0.043-0.035
	l-0.027-0.047l-0.005-0.039l-0.013-0.025l-0.016-0.024h-0.081l-0.071-0.042l-0.089-0.003l-0.033-0.024l-0.045-0.05l-0.003-0.019
	l0.008-0.051l-0.062-0.066l-0.089-0.013l-0.073,0.059l-0.102,0.023l0.022,0.034l0.026,0.024l0.002,0.03l-0.009,0.03l-0.05-0.01
	l-0.176-0.074l-0.114-0.023l-0.04-0.02l-0.041-0.005l-0.093,0.062l-0.16,0.202l0.01,0.043l0.043,0.022l-0.053,0.016l-0.056-0.003
	l-0.041,0.013l-0.203,0.277l-0.013,0.084l0.032,0.042l0.002,0.041l-0.021,0.036l-0.04,0.024l-0.04,0.017l-0.049,0.005l-0.049-0.005
	h-0.046l-0.039,0.016l0.027,0.026l0.27,0.13l0.076-0.001l0.068,0.021l0.048,0.086l0.009,0.011l-0.093,0.049l-0.006-0.002
	l-0.035-0.024l-0.241-0.094l-0.136,0.016l0.047,0.039l0.064,0.007l0.043,0.031l0.034,0.039l0.081,0.068l-1.042,0.552l-1.599-0.984
	l-1.594-0.983l-0.093-0.135l-0.095-0.136l-0.095-0.133l-0.095-0.135l-0.095-0.134l-0.093-0.135l-0.095-0.135l-0.095-0.133
	l-0.094-0.135l-0.095-0.133l-0.094-0.135l-0.093-0.134l-0.096-0.134l-0.093-0.134l-0.095-0.134l-0.094-0.134l-0.135-0.192
	l-0.16-0.207l-0.219-0.284l-0.117-0.276l0.047-0.275l0.08-0.111l0.121-0.143l0.16-0.101l0.089-0.07l0.061-0.049l0.084-0.198
	l-0.005-0.101l-0.032-0.088l-0.104-0.164l-0.025-0.021l-0.063-0.021l-0.017-0.021l0.004-0.031l0.055-0.104l0.062-0.228l0.026-0.057
	l0.074-0.062l0.075-0.048l0.046-0.068l-0.01-0.127l-0.046-0.092l-0.143-0.168l-0.059-0.084l-0.038-0.103l-0.016-0.099l-0.002-0.174
	l-0.002-0.384l-0.002-0.303l0.04-0.242l0.041-0.25l0.04-0.249l0.041-0.249l0.04-0.249l0.042-0.248l0.04-0.25l0.04-0.249l0.04-0.248
	l0.04-0.246l0.04-0.25l0.04-0.248l0.04-0.246l0.04-0.248l0.038-0.248l0.04-0.246l0.04-0.247l0.037-0.236l0.108-0.37l0.115-0.396
	l0.075-0.262l0.11-0.38l0.109-0.381l0.109-0.378l0.108-0.378l0.109-0.379l0.108-0.378l0.107-0.375l0.107-0.378l0.107-0.377
	l0.107-0.376l0.106-0.375l0.106-0.376l0.107-0.375l0.107-0.374l0.104-0.375l0.105-0.374l0.064-0.226l0.016-0.108l-0.01-0.052
	l-0.01-0.06l-0.043-0.116l-0.075-0.212l-0.076-0.21l-0.076-0.21l-0.076-0.212l-0.076-0.209l-0.076-0.211l-0.076-0.21l-0.076-0.209
	l-0.075-0.21l-0.076-0.21l-0.075-0.211l-0.075-0.208l-0.076-0.209l-0.075-0.21l-0.076-0.209l-0.076-0.209l-0.076-0.208l-0.075-0.209
	l-0.075-0.209l-0.076-0.208l-0.074-0.209l-0.076-0.209l-0.075-0.209l-0.014-0.039l-0.062-0.168l-0.076-0.207l-0.074-0.209
	l-0.075-0.207l-0.075-0.207l-0.076-0.208l-0.074-0.207l-0.075-0.207l-0.075-0.208l-0.075-0.207l-0.075-0.207l-0.075-0.206
	l-0.075-0.207l-0.074-0.206l-0.075-0.207l-0.076-0.206l-0.073-0.206l-0.075-0.207l-0.075-0.206l-0.075-0.205l-0.075-0.206
	l-0.074-0.207l-0.074-0.206l-0.075-0.204l-0.074-0.206l-0.075-0.204l-0.074-0.206l-0.075-0.205l-0.074-0.204l-0.074-0.204
	l-0.074-0.206l-0.075-0.205l-0.073-0.204l-0.075-0.206l-0.074-0.203l-0.074-0.204l-0.074-0.203l-0.075-0.205l-0.074-0.206
	l-0.073-0.203l-0.074-0.203l-0.068-0.186l-0.035-0.396l0.008-0.142l0.019-0.374l0.018-0.371l0.018-0.374l0.02-0.371l0.008-0.19
	l-0.005-0.087l-0.042-0.067l-0.097-0.064l-0.139-0.061l-0.343-0.146l-0.342-0.147l-0.343-0.148l-0.342-0.148l-0.162-0.07
	l-0.43-0.104l-0.106-0.046l-0.096-0.066l-0.095-0.085l-0.119-0.178l-0.058-0.213l0.019-0.21l0.112-0.17l-0.11-0.071l-0.111-0.073
	l-0.111-0.071l-0.111-0.072l-0.111-0.072l-0.112-0.072l-0.111-0.073l-0.11-0.071l-0.111-0.073l-0.11-0.072l-0.111-0.073
	l-0.112-0.071l-0.111-0.071l-0.109-0.073l-0.111-0.072l-0.112-0.071l-0.109-0.073l-0.158-0.103l-0.206-0.102l-0.097-0.017
	l-0.225-0.012l-0.088-0.032l-0.046-0.061l-0.053-0.11l-0.039-0.083l-0.104-0.22l-0.146-0.311l-0.167-0.354l-0.168-0.354l-0.145-0.31
	l-0.103-0.219l-0.039-0.082l-0.106-0.157l-0.111-0.164l-0.111-0.165l-0.166-0.241l-0.164-0.242l-0.164-0.242l-0.165-0.242
	l-0.165-0.242l-0.164-0.241l-0.164-0.242l-0.164-0.241l-0.164-0.242l-0.163-0.241l-0.163-0.241l-0.164-0.242l-0.164-0.24
	l-0.162-0.241l0.051-0.067l0.166-0.214l0.169-0.216l0.165-0.216l0.166-0.215l0.167-0.214l0.167-0.216l0.165-0.216l0.165-0.214
	l0.166-0.216l0.166-0.215l0.165-0.215l0.166-0.215l0.163-0.216l0.164-0.214l0.165-0.215l0.165-0.214l0.126-0.165l0.071-0.05
	l0.424,0.021l0.575,0.023l0.575,0.026l0.576,0.024l0.576,0.023l0.576,0.024l0.577,0.022l0.576,0.022l0.577,0.021l0.576,0.021
	l0.579,0.021l0.576,0.019l0.578,0.02l0.578,0.02l0.578,0.019l0.579,0.017l0.578,0.016l0.58,0.017l0.579,0.016l0.58,0.015l0.58,0.015
	l0.58,0.014l0.58,0.013l0.58,0.013l0.583,0.013l0.58,0.011l0.102,0.003l0.479,0.009l0.582,0.011l0.583,0.009l0.583,0.01l0.582,0.008
	l0.585,0.009l0.582,0.007l0.584,0.007l0.584,0.006l0.585,0.006l0.585,0.006l0.586,0.002l0.585,0.005l0.585,0.004l0.587,0.003
	l0.586,0.001l0.588,0.003l0.587,0.002h0.588h0.589h0.589l0.588-0.002l0.59-0.003l0.589-0.001l0.59-0.003l0.591-0.004l0.591-0.005
	l0.591-0.002l0.593-0.006l0.593-0.006l0.592-0.006l0.593-0.007l0.595-0.007l0.593-0.009l0.595-0.008l0.596-0.009l0.595-0.01
	l0.596-0.01L1155.062,640.101z"/></svg>