<?xml version="1.0" encoding="utf-8"?>
<!-- Generator: Adobe Illustrator 15.0.0, SVG Export Plug-In . SVG Version: 6.00 Build 0)  -->
<!DOCTYPE svg PUBLIC "-//W3C//DTD SVG 1.1//EN" "http://www.w3.org/Graphics/SVG/1.1/DTD/svg11.dtd">
<svg version="1.1" id="Ebene_1" xmlns="http://www.w3.org/2000/svg" xmlns:xlink="http://www.w3.org/1999/xlink" x="0px" y="0px"
	 width="1920px" height="1080px" viewBox="0 0 1920 1080" enable-background="new 0 0 1920 1080" xml:space="preserve">

<path fill="#F4E0B6" stroke="#FFFFFF" d="M1016.362,615.243l0.058,0.097l0.066,0.084l0.081,0.07l0.107,0.056l0,0v0.002l-0.007,0.072
	l0.037,0.114l0.111,0.228l0.06,0.193l0.027,0.054l0.034,0.037l0.039,0.025l0.025-0.001l0.067-0.026l0.022,0.002l0.012,0.025
	l0.006,0.073l0.009,0.029l0.12,0.232l0.063,0.086l0.102,0.055l0.2,0.075l0.173,0.096l0.443,0.381l0.073,0.03l0.104-0.007
	l0.081,0.004l0.092,0.034l0.164,0.087l0.148,0.123l0.086,0.058l0.195,0.015l0.266,0.144l0.186,0.049l0.622,0.026l0.571-0.017h0.005
	l0.516,0.017l0.119-0.021l0.08-0.041l0.207-0.197l0.55-0.231l0.313-0.227l0.334-0.154l0.156-0.117l0.052,0.043l-0.009,0.023
	l-0.046,0.027l-0.017,0.022l0.024,0.023l0.034,0.026l0.077,0.062l0.065,0.013l0.085-0.015l0.115-0.021l0.076-0.024l0.138-0.047
	l0.083-0.065l0.02-0.091l0.007-0.136l0.066-0.106l0.1-0.067l0.108-0.012l0.09,0.031l0.203,0.104l0.1,0.033l0.314-0.03l0.121,0.03
	l0.049-0.01l0.05-0.02l0.045-0.008l0.048,0.001l0.088,0.017l0.045,0.003l0.21-0.035l0.165-0.078l0.465-0.294l0.074-0.071
	l0.142-0.229l0.037-0.036l0.034-0.006l0.042,0.01l0.047,0.004l0.049-0.021l0.1-0.154l0.074-0.403l0.069-0.168l-0.018-0.047
	l0.01-0.043l0.035-0.022l0.054,0.011l0.025,0.032l-0.003,0.084l0.031,0.051l-0.008,0.151l0.094,0.162l0.012,0.02l0.002,0.003l0,0
	l-0.061,0.093l0.042,0.123l0.103,0.063l0.112-0.073l0.074,0.064l-0.026,0.051l-0.003,0.074l0.015,0.077l0.048,0.146l0.034,0.055
	l0.047,0.045l0.073,0.055l0.122,0.045l0.151,0.007l0.299-0.05l-0.207-0.089l-0.384-0.253l-0.083-0.081l0.011-0.04l0.063,0.025
	l0.241,0.148l0.043,0.042l0.234,0.136l0.193,0.049l0.224,0.014l0.429-0.053l0.18-0.062l0.092-0.05l0.056-0.053l0.063-0.113
	l0.062-0.077l0.078-0.039l0.414,0.037l0.094-0.01l0.102,0.005l0.119,0.027l0.113,0.01l0.049,0.179l0.067,0.11l0.093,0.071
	l0.133,0.011l0.172,0.063l0.151,0.076l0.154,0.047l0.185-0.031l0.058,0.024l0.029,0.049l0.021,0.061l0.035,0.057l0.07,0.048
	l0.241,0.067l0.165,0.084l0.479,0.138l0.09,0.05l-0.006,0.038l-0.043,0.051l-0.047,0.232l-0.135,0.361l-0.014,0.087l0.596,0.336
	h0.155l0.052,0.013l-0.309,0.605l0.196,0.128l0.151,0.176l0.491,0.761l0.026,0.062l0.024,0.055l0.013,0.094l-0.007,0.785
	l0.039,0.218l0.091,0.214l0.076,0.12l0.008,0.053l-0.014,0.075l-0.028,0.061l-0.037,0.052l-0.028,0.056l-0.001,0.076l0.042,0.064
	l0.071,0.023l0.152,0.009l0.082,0.03l0.059,0.041l0.282,0.361l0.055,0.145l-0.02,0.139l-0.039,0.102l-0.014,0.276l-0.028,0.13
	l-0.013,0.128l0.109,0.448l0.074,0.14l0.252,0.131l0.105,0.11l0.09,0.127l0.111,0.089l0.128,0.063l0.139,0.048l0.083,0.044
	l0.049,0.086l0.026,0.107l0.013,0.104l0.001,0.049l-0.005,0.048l-0.016,0.044l-0.021,0.04l-0.144,0.168l0.766,0.714l0.161,0.069
	l0.28,0.017l1.342,0.5l0.089,0.084l-0.172,0.319l-0.11,0.136l-0.136,0.104l-0.162,0.073l-0.058,0.052l-0.045,0.101l-0.021,0.093
	l-0.012,0.181l0.038,0.436l0.006,0.058l0.012,0.037l0.003,0.04l-0.013,0.056l-0.02,0.031l-0.055,0.071l-0.009,0.033l0.037,0.07
	l0.065-0.02l0.137-0.101l0.079-0.024l0.091-0.001l0.08,0.036l0.045,0.09l-0.04,0.185l-0.151,0.084l-0.311,0.077l-0.035,0.009
	l-0.1,0.023l-0.156,0.039l-0.207,0.051l-0.253,0.062l-0.288,0.07l-0.316,0.077l-0.341,0.081l-0.355,0.085l-0.365,0.089l-0.366,0.088
	l-0.36,0.085l-0.347,0.082l-0.326,0.078l-0.301,0.071l-0.266,0.063l-0.577,0.136l-0.7,0.404l-0.76,0.277l-0.211,0.196l0.456,0.643
	l0.28,0.405l-0.71,0.301l-0.852,0.515l-1.188,0.552l-0.154,0.056l-0.189,0.012l-0.258,0.221l0.208,1.226l-0.31,0.106l-0.2,0.226
	l-0.04,0.079l0.001,0.091l0.104,0.346l0.015,0.111l-0.059,0.168l-0.008,0.101l0.032,0.077l0.061,0.028l0.072-0.016l0.069-0.052
	l0.101-0.147l0.057-0.049l0.077-0.003l0.074,0.043l0.157,0.146l0.091,0.047l0.17,0.028l0.061,0.029l0.06,0.074l0.037,0.079
	l0.026,0.089l0.31,0.287l-0.16,0.428l-0.165,0.255l0.096,0.287l0.096,0.287l-0.725,0.62l-0.688,0.367l-0.657,0.219l-0.486,0.274
	l-0.376,0.351l-0.36,0.729l-0.512,0.633l-0.589,0.443l-0.411,0.359l-0.314,0.368l-0.411,0.534l-0.402,0.429l-0.346,0.553
	l-0.196,0.656l-0.284,0.714l-0.354,0.7l-0.412,0.255l-0.401-0.032l-0.243-0.396l-0.552,0.222l-0.515,0.245l-0.567,0.152
	l-0.664,0.179l-0.619,0.236l-0.635,0.346l-0.624,0.237l-0.321,0.442l-0.854-0.097l-0.52,0.1l-0.346,0.126l-0.478,0.339l-0.347,0.521
	l-0.529,0.107l-0.091,0.058l-0.101,0.038l-0.104,0.022l-0.21,0.02l-0.219,0.047l-0.147,0.106l-0.237,0.341l-0.062,0.071
	l-0.206,0.165l-0.242,0.321l-0.441,0.438l-0.364,0.488l-0.139,0.142l-0.494,0.354l-0.287,0.284l-0.267,0.357l-0.069,0.063
	l-0.156,0.112l-0.063,0.07l-0.118,0.31l-0.05,0.071l-0.198,0.165l-0.188,0.213l-0.558,0.461l-0.078,0.094l-0.038,0.108l0.004,0.14
	l0.036,0.229l0.047,0.3l0.048,0.3l0.047,0.301l0.047,0.302l0.048,0.301l0.049,0.302l0.047,0.299l0.047,0.302l0.048,0.303
	l0.047,0.301l0.049,0.303l0.047,0.301l0.048,0.303l0.047,0.303l0.049,0.303l0.048,0.303l-0.34,0.088l-0.308,0.081h-0.002l0,0
	l-0.005,0.013l0.063,0.227l0.206,0.383l0.106,0.342l-0.036,0.242l-0.022,0.299l0.07,0.26l0.153,0.264l0.147,0.276l0.032,0.201
	l-0.175,0.209l-0.445,0.206l-0.538,0.216l-0.403,0.107l-0.612,0.11l-0.377,0.109l-0.33,0.087l-0.288,0.128l-0.336,0.291
	l-0.361,0.412l-0.451,0.546l-0.27,0.336l-0.401,0.163l-0.409,0.107l-0.43-0.103l-0.271-0.037l-0.17,0.053l-0.259,0.219l-0.316,0.188
	l-0.311,0.08l-0.546-0.073l-0.662-0.148l-0.384-0.065l-0.523,0.081l-0.534,0.031l-0.357,0.143l-0.468,0.119l-0.602,0.367
	l-0.505,0.285l-0.556,0.303l-0.641,0.307l0.219,0.433l0.258,0.199l0.039,0.318l-0.075,0.294l-0.285,0.342l-0.322,0.426l-0.179,0.316
	l-0.17,0.419l-0.133,0.252l-0.233,0.416l-0.193,0.496l-0.044,0.288l-0.062,0.337l-0.181,0.142l-0.645,0.249l-0.404,0.216
	l-0.352,0.196l-0.115,0.218l0,0l-0.019,0.035l-0.063,0.402l0.03,0.266l-0.081,0.241l-0.097,0.573l-0.155,0.539l-0.088,0.687
	l-0.098,0.575l-0.116,0.916l-0.124,0.86l-0.182,0.831l-0.162,0.542l-0.131,0.313l-0.338,0.426l-0.299,0.297l-0.346,0.374
	l-0.402,0.385l-0.558,0.48l-0.46,0.405l-0.186,0.178l0,0L989,681.385l-0.34,0.479l-0.272,0.64l-0.175,0.498l-0.312,0.818
	l-0.235,0.461l-0.146,0.259l-0.419,0.339l-0.479,0.3l-0.531,0.368l-0.423,0.341l-0.59,0.384l-0.368,0.326l-0.252,0.408l-0.188,0.452
	l-0.229,0.639l-0.172,0.675l-0.078,0.425l-0.222,1.446l-0.046,0.821l-0.07,0.541l-0.116,0.672l-0.032,0.999l0.067,0.796
	l-0.076,0.488l-0.03,0.363l-0.252,0.476l-0.205,0.349l-0.368,0.516l-0.326,0.327l-0.097,0.262l-0.324,0.384l-0.311,0.559
	l-0.266,0.368l0.075,0.216l0.091,0.391l-0.146,0.458l-0.137,0.513l-0.422,0.711l-0.503,0.439l-0.761,0.271l-1.056,0.297
	l-0.832,0.174l-1.006,0.28l-0.899,0.133l-0.844,0.109l-1.018,0.223l-0.722,0.197l-0.896,0.363l-2.362,0.645l-0.911,0.311
	l-1.337,0.605l-0.389,0.164l0,0v-0.154l0.217-0.957l0.014-0.271l-0.031-0.221l0.009-0.142l0.095-0.192l0.019-0.074l0.004-0.075
	l-0.007-0.068l-0.021-0.028l-0.082-0.039l-0.023-0.026l0.027-0.097l0.021-0.188l0.106-0.275l0.037-0.261l0.048-0.154l0.579-1.355
	l0.208-0.267l0.031-0.064l0.008-0.037l0.062-0.161l0.034-0.041l0.096-0.09l0.034-0.043l0.089-0.229l0.063-0.104l0.144-0.09
	l0.031-0.041l0.039-0.039l0.068-0.022l0.054,0.007l0.048,0.021l0.068,0.055l0.65-0.416l0.113-0.119l0.112-0.164l0.085-0.174
	l0.176-0.736l0.008-0.105l0.055-0.082l0.282-0.352l0.07-0.106l0.057-0.396l-0.009-0.504l0.021-0.135l0.06-0.229l0.045-0.107
	l0.111-0.185l-0.003-0.06l-0.024-0.04l-0.016-0.037l-0.004-0.065l0.007-0.044l0.048-0.12l0.01-0.04l0.028-0.028l0.131-0.046
	l0.14-0.072l0.182-0.203l0.188-0.259l0.051-0.13l0.033-0.128l0.016-0.133v-0.141l-0.057-0.124l-0.116,0.008l-0.239,0.122
	l0.035-0.119l0.092-0.21l0.051-0.083l0.267-0.308l0.021-0.045l0.387-1.036l0.062-0.096l0.061-0.051l0.072-0.082l0.235-0.475
	l0.059-0.409l0.056-0.125l0.082-0.136l0.188-0.393l0.264-0.368l0.017-0.039l0.093-0.09l0.038-0.049l0.026-0.068l0.022-0.126
	l0.021-0.066l0.081-0.154l0.085-0.129l0.064-0.124l0.02-0.151l-0.003-0.255l-0.028-0.105l-0.083-0.11l0.018-0.036l0.018-0.051
	l-0.064,0.063l-0.003,0.069l0.018,0.075l-0.009,0.084l-0.039,0.054l-0.142,0.132l-0.054,0.037l-0.076,0.02h-0.051l-0.055,0.025
	l-0.088,0.099l-0.058,0.087l-0.036,0.079l-0.077,0.213l-0.067,0.145l-0.014,0.041l-0.008,0.072l-0.047,0.129l-0.01,0.055
	l-0.047,0.081l-0.259,0.295l-0.089-0.038l0.031-0.105l0.12-0.172l0.027-0.091l0.188-0.422l0.334-0.544l0.03-0.098l0.079-0.123
	l0.086-0.113l0.401-0.434l0.183-0.111l0.24-0.202l0.071-0.085l0.188-0.064l0.147-0.129l0.112-0.156l0.084-0.148l0.22-0.31
	l0.146-0.256l0.21-0.2l0.088-0.104l0.033-0.114l0.042-0.076l0.496-0.522l0.294-0.386l0.353-0.637l0.135-0.188l0.172-0.196
	l0.099-0.089l0.111-0.08l0.113-0.062l0.243-0.099l0.114-0.092l0.18-0.183l-0.012-0.13l0.015-0.038l0.06-0.146l0.123-0.185
	l0.128-0.134l0.138-0.106l0.102-0.102l0.06-0.131l0.027-0.379l0.11-0.366l0.027-0.271l0.066-0.18l0.015-0.079l-0.019-0.09
	l-0.029-0.079l-0.013-0.082l0.033-0.1l-0.044-0.025l0.029-0.087l0.019-0.095l0.01-0.097l-0.003-0.09l-0.021-0.084l-0.063-0.109
	l-0.018-0.068l-0.031-0.496l-0.051-0.13l0.122-0.687l0.032-0.1l0.124-0.6l0.23-0.387l0.068-0.074l0.041-0.065l0.137-0.402
	l0.019-0.255l0.01-0.039l0.044-0.111l0.016-0.182l0.185-0.563l0.368-0.624l0.128-0.282l0.025-0.079l0.007-0.113l0.069-0.268
	l0.04-0.086l-0.027-0.084l0.029-0.322l-0.022-0.077l-0.064-0.154l0.01-0.059l0.038-0.071l0.044-0.174l0.025-0.067l0.277-0.434
	l0.048-0.047l0.255-0.113l0.284-0.213l0.418-0.506l0.067-0.109l0.042-0.106l0.062-0.097l0.121-0.081l0.591-0.197l0.101-0.068
	l0.537-0.396l0.919-0.865l0.617-0.536l0.285-0.399l0.265-0.664l0.083-0.313l0.062-0.46l0.125-0.348l0.092-0.716l0.079-0.227
	l0.379-0.685v-0.031l-0.042-0.042l-0.004-0.029l0.069-0.054l0.221-0.672l0.123-0.584v-0.115l0.014-0.101l0.085-0.229l0.005-0.097
	v-0.001v-0.002l0.001-0.023l0.023-0.103l0.052-0.064l0.149-0.107l0.157-0.167l0.185-0.101l0.075-0.109l0.187-0.376l0.084-0.413
	l0.048-0.124l0.074-0.093l0.095-0.075l0.472-0.28l0.919-0.361l0.744-0.157l0.887-0.484l1.372-0.544l0.052-0.05l0.103-0.137
	l0.022-0.02l0.087-0.04l1.079-0.719l1.424-0.952l0.15-0.157l0.104-0.171l0.16-0.352l0.067-0.096l0.081-0.095l0.064-0.099l0.02-0.111
	l0.034-0.09l0.273-0.258l0.2-0.318l0.03-0.084l0.191-0.166l0.035-0.049l0.031-0.08l0.021-0.039l0.153-0.164l0.015-0.025l0.082-0.181
	l0.121-0.167l0.071-0.065l1.322-0.993l0.31-0.286l0.377-0.284l0.173-0.161l0.532-0.661l0.408-0.818l0.11-0.175l0.083-0.093
	l0.176-0.105l0.065-0.096l0.093-0.199l0.103-0.172l0.044-0.103l0.011-0.1l0.019-0.049l0.157-0.155l0.02-0.039l0.027-0.115
	l0.161-0.32l0.021-0.063l-0.004-0.11l0.015-0.121l0.028-0.111l0.042-0.089l0.2-0.248l0.028-0.071l0.018-0.088l0.165-0.294
	l0.535-0.767l0.374-0.907l0.205-0.725l0.02-0.196l-0.013-0.658l0.039-0.352l-0.002-0.104l-0.04-0.129l-0.062-0.053l-0.079-0.028
	l-0.092-0.061l-0.066-0.072l-0.156-0.225l-0.063-0.157l-0.043-0.015l-0.054,0.008l-0.055-0.005l-0.049-0.03l-0.106-0.114
	l-0.368-0.132l-0.103,0.019l-0.112,0.002l-0.079-0.056l-0.019-0.194l0.073-0.212l0.102-0.206l0.065-0.182l0.014-0.119l-0.005-0.063
	l-0.024-0.045l-0.04-0.036l-0.008-0.03l0.008-0.038l-0.001-0.062l-0.175-0.976l-0.031-0.085l-0.101-0.162l0.042-0.131l0.022-0.732
	l-0.03-0.288l-0.037-0.112l-0.059-0.052l-0.069-0.032l-0.069-0.055l0.122-0.205l0.086-0.195l0.064-0.324l0.045-0.082l0.076-0.092
	l0.025-0.043l0.013-0.093l0.057-0.078l0.02-0.063l0.052-0.095l0.015-0.054l0.008-0.413l0.027-0.085l0.364-0.516l0.152-0.281
	l0.029-0.041l0.062-0.063l0.034-0.046l0.026-0.056l0.028-0.094l0.018-0.041l0.469-0.633l0.041-0.113l0.024-0.082l0.024-0.208
	l-0.005-0.084l0.014-0.066l0.139-0.227l0.046-0.15l0.012-0.161l-0.052-0.514l-0.022-0.02l-0.094-0.02l-0.024-0.032l-0.005-0.109
	l0.018-0.083l0.091-0.248l0.021-0.104l-0.006-0.101l-0.048-0.069l-0.048-0.043l-0.052-0.062l-0.039-0.076l-0.016-0.082l0.064-0.17
	l0.598-0.667l0.432-0.674l0.396-0.378l0.134-0.167l0.414-0.74l0.477-0.695l0.025-0.064l-0.005-0.063l-0.02-0.104l0.031-0.072
	l0.309-0.482l0.031-0.025l0.041,0.001l0.051,0.034l0.04,0.001l0.108-0.029l0.08-0.035l0.15-0.113l0.144-0.155l0.214-0.352
	l0.139-0.154l0.175-0.11l0.587-0.261l0.395-0.267l0.203-0.137l0.197-0.093l0.103-0.065l0.077-0.135l0.103-0.07l0.282-0.148
	l0.161-0.122l0.079-0.036l0.075-0.061l0.059-0.098l0.064-0.078l0.09,0.001l0.047-0.042l0.042-0.001l0.045,0.008l0.051-0.005
	l0.038-0.025l0.069-0.062l0.126-0.051l0.084-0.055l0.076-0.062l0.051-0.054l0.118-0.21l0.118-0.084l0.098-0.166l0.08-0.045
	l-0.023,0.042l0.094,0.008l0.088-0.048l0.044-0.042l0.288-0.27l0.143-0.174l0.145-0.116l0.166-0.1l0.15-0.058l0.002-0.001
	l0.069-0.042l0.119-0.144l0.146-0.087l0.396-0.437l0.373-0.559l0.274-0.674l0.183-0.627l0.352-0.759l0.028-0.091l0.039-0.203
	l0.07-0.17l0.587-1.991l0.15-1.237l0.426-1.949l0.004-0.096l-0.014-0.116l0.007-0.071l0.053-0.207l0.039-0.275v-0.04l0.004-0.047
	l0.042-0.085l0.003-0.049l-0.018-0.228l0.008-0.114l0.022-0.081l0.066-0.096l0.14-0.055l0.394-0.032l0.05-0.02l0.091-0.13
	l0.046-0.048l0.068-0.054l0.072-0.034l0.058,0.012l0.065-0.047l0.1-0.025l0.103,0.001l0.079,0.028l0.218-0.19l0.059-0.073
	l0.118-0.191l0.064-0.08l0.078-0.058l0.033-0.007l0.022,0.014l0.055,0.015l0.038-0.012l0.009-0.039l0.003-0.038l0.01-0.01
	l0.026,0.003H1016.362z"/></svg>