<?xml version="1.0" encoding="utf-8"?>
<!-- Generator: Adobe Illustrator 15.0.0, SVG Export Plug-In . SVG Version: 6.00 Build 0)  -->
<!DOCTYPE svg PUBLIC "-//W3C//DTD SVG 1.1//EN" "http://www.w3.org/Graphics/SVG/1.1/DTD/svg11.dtd">
<svg version="1.1" id="Ebene_1" xmlns="http://www.w3.org/2000/svg" xmlns:xlink="http://www.w3.org/1999/xlink" x="0px" y="0px"
	 width="1920px" height="1080px" viewBox="0 0 1920 1080" enable-background="new 0 0 1920 1080" xml:space="preserve">

<path fill="#F4E0B6" stroke="#FFFFFF" d="M1006.122,749.428l0.015,0.124l-0.112,0.063l-0.147,0.052l-0.089,0.093l-0.008,0.153
	l0.07,0.238l0.02,0.148l-0.082,0.3l-0.151,0.258l-0.074,0.229l0.142,0.217l0.128,0.061l0.394,0.021l0.12,0.048l0.289,0.245
	l0.112,0.051l0.129,0.035l0.133,0.015l0.126-0.005l0.118-0.048l0.185-0.164l0.099-0.046l0.093-0.067l0.078-0.133l0.049-0.151
	l0.015-0.2l0.038-0.039l0.052-0.022l0.045-0.045l0.068-0.177l0.023-0.046l0.004-0.01l0.177-0.226l0.06-0.112l0.044-0.307
	l0.037-0.084l0.08-0.051l0.14-0.052l0.252-0.196l0.119-0.055l0.151-0.018l0.119,0.037l0.293,0.296l0.154,0.053l0.149,0.012
	l0.119,0.049l0.063,0.162l-0.008,0.063l-0.045,0.139l-0.002,0.055l0.037,0.056l0.183,0.105l0.31,0.388l0.198,0.119l0.248-0.113
	l0.084-0.081l0.051-0.086l0.053-0.136l0.037-0.14l0.011-0.097l0.039-0.084l0.099-0.122l0.114-0.119l0.089-0.068l-0.061-0.123
	l0.056-0.105l0.112-0.109l0.108-0.139l-0.004-0.048l-0.026-0.06l-0.005-0.063l0.052-0.049l0.018-0.032l-0.066-0.108l-0.002-0.064
	l0.104-0.085l0.287-0.093l0.047-0.116l0.035-0.068l0.18-0.264l0.072-0.087l0.043,0.019l0.042,0.006l0.093-0.005l-0.017-0.089
	l0.03-0.039l0.055-0.025l0.051-0.055l0.018-0.07l0.011-0.02l0.046,0.016l0.022,0.029l0.016-0.006l0.025-0.09l0.213-0.188
	l0.051,0.007l0.035,0.029l0.042,0.024l0.201-0.039l0.223,0.018l0.119-0.025l0.144-0.064l0.044-0.011l0.062,0.003l0.091,0.04
	l0.052,0.013l0.042-0.004l0.021-0.003l0.101-0.035l0.062-0.01l0.077,0.01l0.134,0.05l0.077,0.007l0.118-0.01l0.223,0.029
	l0.121-0.028l0.113-0.013l0.228,0.089l0.112,0.008l0.058-0.022l0.117-0.068l0.041-0.019l0.067,0.002l0.107,0.037l0.065,0.015
	l0.111-0.007l0.327-0.128l0.119-0.22l0.059-0.139l0.016-0.091l-0.03-0.126l-0.008-0.109l0.028-0.115l0.074-0.136l0.168-0.204
	l0.626-0.503l0.099-0.159l0.085-0.107l0.221-0.217l0.099-0.057l0.366-0.082l0.114-0.2l0.018-0.093l-0.04-0.142l0.073-0.053
	l0.037-0.121l0.008-0.129l-0.017-0.077l-0.037-0.018l-0.102,0.018l-0.047-0.008l-0.037-0.048l-0.01-0.055l-0.022-0.039l-0.175-0.026
	l-0.121-0.062l-0.1-0.072l-0.04-0.052l0.066-0.144l0.265-0.184l0.086-0.114l0.039-0.023l0.034-0.007l0.084,0.016l0.088-0.002
	l0.04-0.046l0.037-0.056l0.075-0.037l0.457-0.081l0.258-0.016l0.747,0.092l0.213,0.026l0.121,0.074l0.086,0.112l0.03,0.133
	l-0.03,0.158l-0.058,0.155l-0.041,0.155l0.015,0.167l0.029,0.054l0.071,0.076l0.028,0.054l0.054,0.053l0.069-0.032l0.106-0.095
	l0.095,0.017l0.094,0.077l0.064,0.118l0.018,0.141l-0.049,0.28l-0.004,0.146l0.043,0.108l0.119,0.049l0.129-0.046l0.131-0.071
	l0.123-0.028l0.119,0.055l0.042,0.094l0.013,0.119l0.029,0.13l0.04,0.057l0.048,0.043l0.04,0.049l0.017,0.071l-0.042,1.715
	l0.106-0.053l0.105,0.005l0.105,0.021l0.11-0.006l0.116-0.068l0.087-0.086l0.077-0.055l0.088,0.025l0.199,0.396l0.037,0.105
	l0.067,0.104l0.084,0.093l0.078,0.062l0.34,0.02l0.158-0.055l0.129-0.188l0.045,0.064l0.047,0.122l0.041,0.104l0.061,0.071h0.072
	l0.16-0.063l0.366-0.036l0.189,0.015l0.146,0.06l-0.1,0.074l-0.109,0.109l-0.057,0.111l0.062,0.074l0.111-0.025l0.102-0.064
	l0.063,0.005l-0.006,0.177l-0.055,0.11l-0.1,0.084l-0.116,0.058l-0.104,0.03l-0.232,0.041l-0.047,0.068l-0.038,0.165l0.008,0.022
	l0.022,0.022l0.02,0.034l-0.003,0.049l-0.018,0.022l-0.057,0.029l-0.02,0.017l-0.043,0.055l-0.109,0.105l-0.038,0.046l-0.053,0.139
	l0.003,0.238l-0.035,0.119l-0.046,0.052l-0.117,0.052l-0.045,0.041l-0.04,0.099l0.007,0.062l0.024,0.055l0.008,0.073l-0.041,0.152
	l-0.224,0.406l-0.039,0.103l-0.032,0.125l-0.004,0.121l0.042,0.087l0.101,0.028l0.086-0.068l0.092-0.1l0.112-0.062l0.102-0.025
	l0.105-0.042l0.101-0.058l0.089-0.071l0.092-0.122l0.043-0.12l0.095-0.405l0.098-0.04l0.123-0.01l0.117-0.055l0.058-0.044
	l0.055-0.014l0.114-0.006l0.055-0.033l0.102-0.115l0.07-0.03l0.138,0.015l0.14,0.069l0.113,0.106l0.057,0.126l0.114,0.648
	l0.007,0.122l-0.024,0.072l-0.034,0.066l-0.064,0.404l0.009,0.136l0.163-0.002l0.044,0.101l0.294,1.214l0.092,0.139l0.221,0.186
	l0.193,0.23l0.116,0.013l0.126-0.052l0.129-0.087l0.083-0.079l0.044-0.055l0.04-0.002l0.075,0.074l0.032,0.068l0.034,0.164
	l0.045,0.069l0.127,0.034l0.156-0.034l0.317-0.122l0.125,0.021l0.106,0.097l0.088,0.133l0.062,0.129l0.039,0.159l-0.007,0.161
	l-0.074,0.361l-0.048,0.098l-0.03,0.097l-0.016,0.1l-0.003,0.103l-0.086,0.204l-0.12,0.14l-0.275,0.252l-0.092,0.157l-0.09,0.226
	l-0.035,0.189l0.067,0.046l0.078-0.004l-0.013,0.072l-0.062,0.094l-0.116,0.108l0.004,0.058l0.03,0.058l0.028,0.043l0.022,0.004
	l0.034-0.013l0.034-0.005l0.027,0.024l0.031,0.106l0.016,0.031l-0.007,0.02l-0.027,0.021l-0.013,0.03l0.032,0.048l0.026-0.002
	l0.107-0.059l0.05,0.126l0.06,1.77l0.003,0.063l0.026,0.141l0.044,0.139l0.047,0.103l0.061,0.084l0.429,0.374l0.117,0.071
	l0.104,0.013l0.133-0.029l0.133-0.052l0.105-0.061l0.112-0.104l0.198-0.237l0.119-0.085l0.24-0.108l0.04,0.042l-0.067,0.584
	l0.008,0.159l-0.116,0.656l0.046,0.232l0.319-0.004l0.071-0.048l0.055-0.053l0.05-0.012l0.108,0.129l0.074,0.042l0.149,0.054
	l0.27,0.039l0.091,0.064l-0.008,0.011l-0.08,0.118l-0.136,0.088l-0.116,0.052l-0.109,0.066l-0.477,0.535l-0.071,0.143l0,0v0.001l0,0
	l-0.031,0.184l-0.003,0.167l0.029,0.332l-0.012,0.615l0.092,0.175l0.284-0.032l0.134-0.044l0.372-0.044l0.025-0.016l0.056-0.063
	l0.035-0.014l0.043,0.01l0.061,0.062l0.034,0.023l0.129,0.055l0.05,0.038l0.188,0.217l0.067,0.047l0.183,0.046l0.054,0.036
	l0.051,0.108l0.029,0.258l0.035,0.132l0.121,0.239l0.019,0.113l-0.014,0.185l0.008,0.167l0.062,0.122l0.17,0.221l-0.336,0.202
	l-0.167,0.051l-0.149-0.031l-0.254-0.327l-0.158-0.129l-0.126,0.081l-0.005,0.11l0.035,0.101l0.004,0.099l-0.092,0.097l-0.1,0.042
	l-0.101,0.013l-0.094-0.013l-0.075-0.034l-0.061-0.065l-0.047-0.08l-0.056-0.068l-0.085-0.031l-0.086,0.022l-0.088,0.057
	l-0.169,0.13l-0.056,0.017l-0.103,0.058l-0.049,0.02l-0.042-0.004l-0.075-0.032l-0.054,0.004l-0.118,0.065l-0.183,0.179
	l-0.119,0.068l-0.221,0.051l-0.08,0.05l-0.248,0.387l-0.024,0.062l0.014,0.08l0.042,0.058l0.053,0.053l0.046,0.07l0.032,0.132
	l-0.013,0.41l0.021,0.126l0.034,0.118l-0.006,0.085l-0.078,0.158l0.003,0.073l0.554,0.132l0.612-0.073l0.056-0.035l0.336-0.303
	l0.072-0.034l0.017,0.063l-0.02,0.107l-0.03,0.102l-0.002,0.22l0.019,0.098l0.049,0.08l0.123,0.022l0.119,0.076l0.097,0.111
	l0.027,0.061l0.03,0.07l-0.106,0.039l-0.08-0.016l-0.066-0.029l-0.063,0.006l-0.241,0.162l-0.091,0.039l0.021,0.052l0.016,0.166
	l-0.018,0.288l-0.214,0.641l0.03,0.275l0.057,0.048l0.154,0.067l0.041,0.059v0.073l-0.027,0.052l-0.035,0.046l-0.021,0.049
	l-0.005,0.119l0.015,0.234l-0.012,0.11l-0.151,0.338v0.027l0.027,0.059l0.001,0.031l-0.02,0.038l-0.062,0.074l-0.021,0.039
	l-0.093,0.227l-0.016,0.092l0.006,0.052l0.038,0.101l0.005,0.049l-0.137,0.297l-0.237-0.003l-0.26-0.091l-0.21,0.038l-0.202,0.172
	l-0.111,0.063l-0.174-0.115l-0.138,0.158l-0.229,0.415l-0.203-0.045l-0.221-0.068l-0.137-0.1l-0.067-0.168l-0.007-0.27l-0.728,0.297
	l-0.027,0.158l-0.125,0.289l-0.02,0.161l0.021,0.242l-0.002,0.042l-0.024,0.087l-0.005,0.045l0.013,0.039l0.027,0.001l0.028-0.004
	l0.021,0.022l0.032,0.155l-0.003,0.147l-0.037,0.14l-0.066,0.131l-0.132,0.142l-0.026,0.036l-0.006,0.059l0.021,0.119l-0.008,0.057
	l-0.035,0.056l-0.084,0.055l-0.045,0.049l-0.067,0.155l-0.03,0.094l-0.01,0.069l0.036,0.092l0.069,0.09l0.054,0.1l-0.007,0.122
	l-0.052,0.055l-0.219,0.165l-0.071,0.03l-0.152-0.14l-0.083-0.022l0.005,0.143l-0.066-0.01l-0.023,0.016l0.006,0.094l-0.025,0.01
	l-0.113,0.074l-0.038,0.039l-0.1,0.021l-0.065,0.064l-0.054,0.085l-0.063,0.079l-0.067,0.046l-0.076,0.035l-0.029,0.021l-0.04,0.027
	l-0.048,0.075v-0.209l-0.041-0.068l-0.124-0.023l-0.053-0.022l-0.029-0.097l-0.038-0.013l-0.123,0.041l-0.035,0.004l-0.174-0.087
	l-0.171-0.331l-0.111-0.091l-0.089,0.016l-0.178,0.107l-0.091,0.012l-0.045-0.029l-0.068-0.1l-0.053-0.038l-0.054-0.016
	l-0.045-0.001l-0.082,0.013l-0.094,0.029l-0.048,0.025l-0.018,0.026l0.004,0.064l-0.023,0.026l-0.03,0.02l-0.051,0.148l-0.078-0.036
	l-0.16-0.158l-0.037,0.11l-0.119,0.208l-0.042,0.036l-0.003-0.002l-0.024-0.011l0.048-0.07l0.02-0.067l-0.003-0.071l-0.018-0.077
	l0.004-0.076l0.038-0.07l0.093-0.121l0.076-0.227l0.015-0.135l-0.041-0.071l0.067-0.146l0.023-0.077l-0.013-0.158l0.01-0.094
	l0.028-0.088l0.049-0.063l-0.156-0.104l-0.06-0.187l0.002-0.217l0.022-0.164l-0.192-0.142l-0.075-0.081l-0.193-0.143l-0.192-0.198
	l-0.117-0.22l-0.051-0.241l0.006-0.266l0.004-0.021l0.025-0.063l-0.002-0.061l-0.026-0.056l-0.045-0.052l-0.085-0.058l-0.062,0.01
	l-0.048,0.064l-0.045,0.104l-0.01-0.068l0.034-0.12l-0.005-0.063l-0.211-0.379l-0.018-0.064l-0.036-0.062l-0.063-0.013l-0.145,0.011
	l-0.097-0.035l-0.05-0.148l-0.008-0.172l0.031-0.105l0.021-0.033l0.003-0.028l-0.016-0.022l-0.034-0.017l-0.047-0.048l-0.039-0.056
	l-0.044-0.051l-0.063-0.033l0.053-0.101l0.032-0.051l0.038-0.044l0.023-0.023l0.068-0.084l-0.035-0.004l-0.052-0.031l-0.119-0.036
	l-0.328-0.002l-0.097-0.085l-0.054-0.016l-0.037,0.074l-0.022,0.058l-0.037,0.035l-0.047,0.021l-0.046,0.009l-0.096,0.03
	l-0.078,0.044h-0.054l-0.021-0.105l0.033-0.088l0.06-0.073l0.037-0.098l-0.055-0.13l-0.093-0.052l-0.132-0.006l-0.12,0.053
	l-0.049,0.1l0.018,0.121l0.021,0.082l-0.017,0.021l-0.101-0.062L1019.63,771l-0.052-0.093l-0.107-0.255l-0.057-0.09l-0.078-0.059
	l-0.101,0.02l0.022,0.069l-0.015,0.056l-0.028,0.053l-0.025,0.063l0.013,0.044l0.029,0.038l0.003,0.039l-0.127,0.082l-0.087,0.082
	l-0.047,0.029l-0.035-0.027l-0.033-0.019l-0.03-0.006l-0.072,0.045l-0.027,0.013l-0.108,0.033l-0.09,0.04l-0.081,0.056l-0.081,0.077
	l-0.172,0.235l-0.188,0.2l-0.113,0.055l-0.081-0.004l-0.044-0.067l-0.016-0.282l-0.06-0.071l-0.097-0.023l-0.339,0.014l-0.094,0.025
	l-0.087,0.058l-0.139,0.241l-0.079,0.081l-0.069-0.081l-0.103,0.078l-0.056,0.028l-0.061,0.014l-0.062,0.028l-0.052-0.002
	l-0.051-0.013l-0.165-0.001l-0.039,0.008l-0.162,0.073l-0.075,0.059l-0.058,0.066l-0.048,0.079l-0.034,0.093l-0.061,0.315
	l-0.044,0.107l-0.243,0.421l-0.159,0.186l-0.091,0.07l-0.063,0.004l-0.188-0.056l-0.092-0.012l-0.186,0.044l-0.144,0.1l-0.079,0.148
	l0.011,0.201l-0.138-0.065l0.007-0.202l0.077-0.227l0.069-0.149l0.045-0.161l-0.05-0.51l0.058-0.025l0.004-0.05l-0.019-0.066
	l-0.008-0.079l0.021-0.079l0.063-0.106l0.045-0.19l0.057-0.146l0.082-0.12l0.106-0.058l0.125-0.046l0.086-0.105l0.046-0.132
	l0.011-0.134l-0.324-0.252l-0.046-0.045l-0.1-0.037l-0.31-0.239l-0.02-0.008l-0.048-0.016l-0.023-0.018l-0.009-0.02l-0.01-0.062
	l-0.009-0.024l-0.093-0.145l-0.024-0.054l-0.12-0.409l-0.027-0.204l-0.004-0.36l-0.006-0.014l-0.015-0.032l-0.016-0.035l-0.08-0.035
	h-0.14l-0.226,0.044l-0.228,0.075l-0.217-0.003l-0.094-0.193l-0.006-0.262l0.052-0.206l0.044-0.055l0.055-0.046l0.049-0.055
	l0.026-0.078l-0.006-0.055l-0.049-0.09l-0.013-0.048l0.006-0.079l0.016-0.072l0.004-0.069l-0.025-0.069l-0.294-0.139l-0.064-0.01
	l-0.087-0.027l-0.082-0.041l-0.094-0.08l-0.055,0.003l-0.06,0.02l-0.056,0.007l-0.034,0.021l-0.1,0.023l-0.075-0.003l0.04-0.065
	l0.049-0.06l-0.021-0.027l-0.102-0.032l-0.106-0.069l-0.084-0.065l-0.05-0.094l-0.008-0.15l-0.016-0.082l-0.052-0.024l-0.065-0.01
	l-0.054-0.042l-0.07-0.146l-0.032-0.041l-0.068-0.04l-0.169-0.058l-0.055-0.042l-0.077-0.139l-0.037-0.037l-0.044-0.02l-0.099-0.007
	l-0.036-0.01l-0.048-0.045l-0.117-0.172l-0.199-0.216l-0.262-0.196l-0.286-0.154l-0.481-0.142l-0.059-0.054l-0.176-0.353
	l-0.074-0.113l-0.076-0.036l-0.078,0.017l-0.203-0.003l-0.144,0.027l-1.171,0.355l-2.344,0.706l0.065,0.353l-0.023,0.064
	l-0.976,0.535l-0.163,0.09l-0.096,0.022l-0.095,0.007l-0.114-0.01l-0.153-0.043l-0.125-0.062l-0.117-0.037l-0.128,0.032
	l-0.779,0.422l-0.226,0.165l-0.165,0.176l-0.02,0.062l0.005,0.036l0.018,0.036l0.016,0.059l0.039,0.441l0.007,0.016l0.038,0.058
	l0.009,0.028l-0.013,0.018l-0.029,0.005l-0.027,0.008l-0.004,0.031l0.02,0.068l-0.001,0.023l-0.017,0.008l-0.144,0.156l-0.036,0.067
	l-0.047,0.187l-0.012,0.023l0.058,0.239l-0.009,0.057l-0.043,0.017l-0.056,0.009l-0.046,0.034l-0.013,0.054l0.001,0.2l-0.008,0.029
	l-0.008,0.019l-0.015,0.016l-0.028,0.018l-0.037,0.032l0.003,0.025l0.018,0.022l0.006,0.029l-0.023,0.665l-0.016,0.043l-0.029,0.044
	l-0.013,0.025l-0.005,0.039l-0.012,0.042l-0.028,0.002l-0.034-0.012l-0.024,0.003l-0.079,0.081l-0.022,0.037l-0.028,0.071
	l0.012,0.045l0.036,0.045l0.009,0.043l-0.07,0.045l-0.082,0.077l-0.071,0.259l-0.072,0.105l-0.108,0.052l-0.109,0.023l-0.104,0.038
	l-0.104,0.1l-0.137-0.081l-0.093,0.114l-0.041,0.199l0.019,0.169l0.039,0.051l0.101,0.071l0.019,0.045l-0.019,0.012l-0.084,0.035
	l-0.027,0.023l-0.031,0.093l-0.024,0.095l-0.025,0.197l-0.049,0.116l-0.083,0.093l-0.184,0.167l-0.134,0.171l-0.079,0.038
	l-0.138-0.008l-0.243-0.074l-0.093,0.005l-0.137,0.066l-0.219,0.146l-0.104,0.133l-0.072-0.021l-0.063-0.03l-0.039-0.057
	l-0.003-0.092l0.013-0.007l0.084-0.021l0.018-0.014l-0.006-0.02l-0.014-0.022v-0.022l0.109-0.2l0.057-0.203l0.042-0.103l0.079-0.081
	l0.097-0.032l0.186-0.016l0.094-0.061l-0.009-0.034l-0.332,0.108l-0.161,0.03l-0.083-0.038l0.004-0.025l0.035-0.059l0.01-0.034
	l-0.02-0.074l0.014-0.126l-0.004-0.124l-0.087,0.162l-0.017,0.152l0.009,0.157l-0.014,0.181l-0.149-0.021l-0.067-0.021l-0.053-0.051
	l0.039-0.042l-0.003-0.055l-0.056-0.142l0.006-0.001l0.005-0.031l0.003-0.042l-0.003-0.032l-0.017-0.017l-0.061-0.016l-0.017-0.007
	l-0.046-0.107l-0.046-0.167l0.007-0.114l0.117,0.049l-0.048-0.119l-0.011-0.055l-0.003-0.058l-0.038,0.011l-0.021,0.051
	l-0.038,0.036l-0.057,0.027l-0.07,0.022l-0.031,0.036l-0.013,0.067l0.015,0.275l-0.021,0.063l-0.144-0.025l-0.061-0.003
	l-0.033-0.029l0.021-0.097l-0.068-0.033l-0.077-0.073l-0.066-0.097l-0.035-0.104l0.008-0.117l0.079-0.194l0.004-0.13l-0.041,0.013
	l-0.104,0.143l-0.2,0.073l-0.201-0.006l-0.112-0.094l-0.083-0.157l-0.022-0.088l0.033-0.108l0.036-0.074l0.021-0.085l0.002-0.097
	l-0.018-0.106l-0.037,0.011l-0.055,0.286l-0.045,0.127l-0.093,0.06l-0.09-0.027l-0.104-0.081l-0.09-0.106l-0.045-0.107l-0.149,0.119
	l-0.112,0.116l-0.16,0.166l-0.14,0.09l-0.003,0.016l-0.033,0.038l-0.042,0.022l-0.029-0.024l-0.001-0.052l0.024-0.022l0.034-0.018
	l0.029-0.035l0.109-0.31l0.077-0.164l0.024-0.168l0.048-0.157l-0.009-0.093l-0.094-0.32l-0.005-0.042l0.02-0.033l0.066-0.053
	l0.005-0.04l0.02-0.073l0.07-0.063l0.064-0.074l0.003-0.105l-0.096,0.096l-0.064,0.036l-0.063-0.019l-0.316-0.22l-0.035-0.059
	l-0.021,0.013l-0.015,0.011l-0.03,0.034l0.107,0.158l0.061,0.154l-0.025,0.143l-0.147,0.13l-0.207,0.036l-0.136-0.104l-0.063-0.178
	l0.011-0.181l0.149-0.357l0.041-0.208l-0.068-0.183l-0.059-0.026l0.001,0.081l0.02,0.109l-0.001,0.059l-0.05,0.055l-0.064,0.19
	l-0.068,0.057l0.013,0.022l-0.02,0.023l-0.171,0.13l-0.021,0.008l-0.118,0.023l-0.104,0.007l-0.092-0.006l-0.045-0.029l-0.049-0.053
	l-0.104-0.076l-0.117-0.064l-0.09-0.015l-0.174-0.053l-0.041-0.031l-0.103-0.115l-0.055-0.009l-0.094,0.021l-0.049-0.002
	l-0.052-0.021l-0.139-0.086l-0.091-0.011l-0.061,0.006l-0.064-0.005l-0.103-0.046l-0.057-0.135l0.041-0.19l0.119-0.124l0.173,0.062
	l-0.059-0.058l-0.1-0.071l-0.092-0.047l-0.027,0.024l-0.023,0.084l-0.09-0.007l-0.081-0.047l0.006-0.04l0.105-0.083l0.061-0.145
	l0.078-0.301l-0.068,0.063l-0.043,0.067l-0.076,0.153l-0.049,0.055l-0.13,0.114l-0.029,0.035l0.008,0.073l0.08,0.256l0.001,0.07
	l-0.029,0.07l-0.06,0.062l-0.09,0.038l-0.135-0.002l-0.118-0.058L992.705,769l-0.025-0.115l0.063-0.117l0.108-0.139l0.052-0.127
	l-0.103-0.071l0.002,0.089l-0.051,0.065l-0.08,0.044l-0.088,0.03l0.048,0.123l-0.072,0.122l-0.111,0.071l-0.071-0.026l-0.028-0.033
	l-0.052-0.037l-0.056-0.053l-0.04-0.078l0.007-0.047l0.026-0.045l0.012-0.042l-0.031-0.033l-0.031-0.003l-0.028,0.016l-0.019,0.026
	l-0.003,0.023l-0.027,0.105l-0.139-0.034l-0.412-0.213l-0.063-0.011l-0.082,0.003l-0.081,0.029l-0.069,0.045l-0.069,0.029
	l-0.083-0.016l-0.083,0.144l-0.07-0.044l-0.055-0.133l-0.035-0.126l-0.006-0.195l-0.021-0.071l-0.043-0.065l-0.04-0.026
	l-0.044-0.013l-0.434-0.261l-0.092-0.108l-0.048-0.114l-0.037-0.143l-0.007-0.139l0.034-0.086l0.003-0.006l-0.003,0.002
	l-0.085,0.032l-0.048,0.06l-0.035,0.07l-0.049,0.066l-0.066,0.049l-0.091,0.042l-0.088,0.007l-0.064-0.052l-0.037,0.013
	l-0.018,0.081l-0.044-0.016l-0.049-0.074l-0.038-0.097l-0.021-0.101l-0.006-0.08l0.016-0.172l0.067,0.003l0.056-0.082l0.058-0.11
	l0.064-0.084l-0.133,0.033l-0.063-0.062l-0.021-0.104l-0.019-0.336l0.022-0.091l0.067,0.017l0.035-0.01l-0.013-0.087l0.029-0.058
	l0.039-0.036l0.014-0.034l0.004-0.272l0.06-0.309l0.067-0.053l0.022-0.089l-0.018-0.094l-0.051-0.065l0.015-0.032l0.031-0.099
	l-0.1,0.062l-0.002,0.05l0.035,0.058l0.012,0.092l-0.148,0.184l-0.016,0.031l-0.063,0.085l-0.055,0.17l-0.035,0.174l-0.015,0.201
	l-0.042,0.143l-0.102,0.237l-0.118,0.182l-0.067,0.051l-0.051-0.059l-0.012-0.093l0.014-0.07l0.036-0.055l0.055-0.04l-0.043,0.003
	l-0.032,0.011l-0.029,0.023l-0.035,0.044l-0.094-0.052l0.007-0.247l0.019-0.107l0.033-0.105l0.025-0.043l0.063-0.075l0.029-0.043
	l0.016-0.052l0.004-0.044l0.008-0.018l-0.031-0.003l-0.052-0.013l-0.046,0.115l-0.195,0.268l-0.037,0.115l-0.008,0.229l-0.059,0.085
	l-0.082-0.094l-0.089-0.052l-0.075-0.062l-0.048-0.127l0.074-0.019l0.051-0.07l0.028-0.092l0.018-0.082l0.007-0.081l-0.006-0.091
	l-0.014-0.074l-0.02-0.035l0.007-0.038l0.002-0.026l-0.007-0.064l-0.08,0.105l-0.022,0.055l0.001,0.057l-0.02,0.034l-0.137,0.117
	l-0.041,0.012l-0.022-0.062l-0.013-0.062l-0.001-0.061l0.015-0.061l-0.047-0.042l-0.018-0.049l0.011-0.054l0.036-0.057l-0.106,0.02
	l-0.049-0.058l-0.008-0.091l0.026-0.083l0.057-0.065l0.085-0.063l0.096-0.055l0.088-0.035l0.055-0.055l0.015-0.091l0.003-0.085
	l0.014-0.044l0.085-0.053l0.068-0.153l0.076-0.072l-0.051-0.02l-0.037-0.028l-0.066-0.078l0.005,0.056l-0.004,0.056l-0.016,0.047
	l-0.037,0.027l-0.028,0.016l-0.076,0.061l-0.015,0.019l0.01,0.118l-0.033,0.112l-0.072,0.069l-0.107-0.01l-0.02,0.033l-0.023,0.021
	l-0.038,0.015l-0.053,0.016l0.002-0.118l-0.051-0.061h-0.054l-0.013,0.063l-0.096,0.255l-0.179,0.016l-0.195-0.292l-0.13,0.045
	l0.12,0.071l0.043,0.102l-0.003,0.107l-0.015,0.1l-0.137-0.058l-0.072-0.006l-0.086,0.021l0.218,0.091l0.086,0.057l0.043,0.088
	l-0.025,0.117l-0.075,0.135l-0.08,0.103l-0.043,0.02l-0.017-0.013l-0.027,0.001l-0.024,0.015l-0.008,0.02l0.016,0.032l0.041,0.048
	l0.013,0.026l0.053,0.193l0.032,0.025l0.058,0.011l0.061,0.02l0.04,0.057l-0.003,0.032l-0.034,0.127l-0.112-0.021l-0.207,0.024
	l-0.112-0.03l-0.146-0.09l-0.127-0.103l-0.087-0.106l-0.039-0.107l0.009-0.116l0.055-0.132l0.034-0.032l0.1-0.064l0.016-0.028
	l-0.004-0.043l0.006-0.045l0.014-0.039l0.018-0.031l-0.009-0.036l-0.023,0.01l-0.008-0.009l-0.004-0.017l-0.01-0.017l0.111-0.207
	v-0.002l0.123-0.274l0.246-1.188l-0.011-0.479l0.025-0.236l0.322-0.971l0.068-0.139l0.112-0.113l0.22-0.09l0.468-0.077l0.216-0.106
	l0.411-0.412l0.432-0.433l0.055-0.077l0.021-0.067l0.027-0.155l0.029-0.062l0.05-0.049l0.029-0.004l0.036,0.008l0.466-0.103
	l0.122-0.055l0.058-0.004l0.057,0.02l0.06,0.029l0.06,0.018l0.096-0.005l0.075-0.026l0.156-0.077l0.086-0.026l0.25-0.029
	l0.092-0.069l0.196-0.215l0.034-0.047l0.135,0.025l0.11-0.033l0.078-0.086l0.04-0.13l0.002-0.06l-0.022-0.134l-0.042-0.058
	l0.008-0.035l0.082-0.022l0.058,0.021l0.049,0.109l0.055,0.015h0.084l0.013,0.037v0.046l0.044,0.032l0.114-0.016l0.134-0.068
	l0.118-0.093l0.068-0.092l0.009-0.083l-0.038-0.255l-0.025-0.103l-0.265-0.648l-0.045-0.244l-0.015-0.244l-0.036-0.107l-0.086-0.076
	l-0.06-0.012l-0.201,0.026l-0.099-0.015l-0.077-0.027l-0.156-0.101l-0.046-0.046l-0.025-0.039l-0.035-0.027l-0.163-0.01
	l-0.066-0.025l-0.135-0.074l-0.123-0.034l-0.12-0.006l-0.149,0.022l-0.047-0.01l0.006-0.068l-0.033-0.124l-0.002-0.063l0.083-0.176
	l0.29-0.256l0.102-0.151l0.087-0.094l0.139-0.08h0.102l-0.036,0.15l0.369-0.114l0.143-0.106L992,755.7l-0.019-0.157l0.015-0.125
	l-0.013-0.068l-0.062-0.161l-0.014-0.074l-0.002-0.052l0.033-0.264l-0.004-0.109l-0.027-0.106l-0.085-0.106l-0.358-0.287
	l-0.078-0.156l-0.023-0.144l0.012-0.456l2.064-0.728l0.292-0.03l0.021-0.004l0.03,0.002l0.059,0.018h0.032l0.036-0.018l0.016-0.022
	l0.013-0.024l0.029-0.022l0.186-0.115l0.056-0.025l0.055-0.005l0.083,0.02l0.056-0.012l0.055-0.03l0.104-0.073l0.046-0.021
	l0.037,0.003l0.066,0.044l0.03,0.003l0.026-0.015l0.076-0.056l0.057-0.021l0.043-0.024l0.042-0.013l0.055,0.017l0.051-0.097
	l0.119,0.016l0.115-0.049l0.107-0.063l0.098-0.022l0.089,0.058l0.039,0.113l0.007,0.135l-0.013,0.123l-0.071,0.261l-0.012,0.118
	l0.04,0.116l0.083,0.078l0.099,0.016l0.11-0.034l0.12-0.062l0.117,0.002l0.102-0.049l0.066-0.095l0.008-0.134l0.079-0.303
	l0.228-0.093l0.259,0.034l0.17,0.078v0.026l-0.007,0.049l0.02,0.051l0.072,0.036h0.063l0.188-0.06l0.105,0.01l0.032,0.055
	l0.043,0.037l0.132-0.033l0.4-0.183l0.131-0.036l0.126,0.003l0.112,0.045l0.196,0.132l0.04,0.05l0.01,0.042l0.025,0.018l0.09-0.032
	l0.008-0.006l0.044-0.032l0.172-0.177l0.116-0.097l0.103-0.064l0.108-0.037l0.135-0.021l0.279-0.007l0.12,0.039l0.208,0.209
	l0.106,0.013l1.015-0.699l0.214-0.224l0.183-0.274l0.105-0.102l0.152-0.064l0.386-0.021l0.132-0.04l0.081-0.049l0.219-0.227
	l0.062-0.076l0.025-0.021l0.042-0.019l0.014,0.003l0.01,0.009l0.39,0.011l0.129-0.021l0.504-0.18l0.227-0.132l0.448-0.371
	l0.248-0.151l0.52-0.252l0.208-0.061l0.417-0.01L1006.122,749.428z"/></svg>