<?xml version="1.0" encoding="utf-8"?>
<!-- Generator: Adobe Illustrator 15.0.0, SVG Export Plug-In . SVG Version: 6.00 Build 0)  -->
<!DOCTYPE svg PUBLIC "-//W3C//DTD SVG 1.1//EN" "http://www.w3.org/Graphics/SVG/1.1/DTD/svg11.dtd">
<svg version="1.1" id="Ebene_1" xmlns="http://www.w3.org/2000/svg" xmlns:xlink="http://www.w3.org/1999/xlink" x="0px" y="0px"
	 width="1920px" height="1080px" viewBox="0 0 1920 1080" enable-background="new 0 0 1920 1080" xml:space="preserve">

<path fill="#F4E0B6" stroke="#FFFFFF" d="M1357.253,278.774l0.011-0.044v-0.02l0.021,0.001l0.014,0.009l0.012,0.017l-0.001,0.019
	l0.041,0.013l0.013-0.031l0.008-0.02l-0.011-0.022h0.007l0.015,0.014l0.014-0.021v-0.025l0.012-0.002l0.011-0.003h0.011l0.004,0.006
	l0.002,0.009l-0.015,0.026l0.026-0.002l0.007,0.017l-0.004,0.012l-0.015,0.018l0.027,0.001l0.021,0.006l0.022-0.004l0.004,0.012
	l-0.02,0.023l0.016,0.021l0.008,0.003l0.003,0.01v0.01l-0.012,0.013l-0.024,0.01l-0.006-0.018l-0.121,0.01l0,0l-0.037,0.033
	l-0.018,0.008l0,0l-0.039-0.01l-0.005-0.029l-0.006-0.006l-0.01-0.041L1357.253,278.774z M1357.031,278.791l0.018-0.007l0.02-0.004
	l-0.005,0.021l0.011,0.012l0.01-0.002l0.004-0.006l-0.015-0.026l0.025,0.013h0.005l-0.008,0.006l0.006,0.007l0.009-0.003h0.01h0.005
	h0.007l0.006,0.013l0.018,0.022l0.007,0.013v0.017l0.018,0.012v0.017l0.022,0.018l0,0l-0.046,0.019l0,0l-0.005-0.001l-0.026-0.008
	l-0.011-0.012l-0.002-0.003l-0.036-0.021l-0.027-0.021l-0.016,0.006v0.006l0.008-0.003l0.008,0.023l-0.024,0.011l-0.005-0.018
	h-0.004v-0.026l-0.011-0.006l-0.018-0.01l0.015-0.022h0.007l0.012-0.025L1357.031,278.791z"/></svg>