<?xml version="1.0" encoding="utf-8"?>
<!-- Generator: Adobe Illustrator 15.0.0, SVG Export Plug-In . SVG Version: 6.00 Build 0)  -->
<!DOCTYPE svg PUBLIC "-//W3C//DTD SVG 1.1//EN" "http://www.w3.org/Graphics/SVG/1.1/DTD/svg11.dtd">
<svg version="1.1" id="Ebene_1" xmlns="http://www.w3.org/2000/svg" xmlns:xlink="http://www.w3.org/1999/xlink" x="0px" y="0px"
	 width="1920px" height="1080px" viewBox="0 0 1920 1080" enable-background="new 0 0 1920 1080" xml:space="preserve">

<path fill="#F4E0B6" stroke="#FFFFFF" d="M1194.032,501.165l-0.021,0.021l-0.088-0.068l-0.375-0.19l-0.136-0.039l-0.07-0.029
	l-0.039-0.027l-0.087-0.09l-0.099-0.079l-0.184-0.12l-0.085-0.068l-0.065-0.08l-0.04-0.093v-0.094l0.054-0.08l0.035,0.006
	l0.015,0.006l0.016,0.015l-0.022,0.137l0.126,0.143l0.312,0.216l0.319,0.231l0.343,0.196l0.032,0.051l0.02,0.016L1194.032,501.165z
	 M1192.235,497.342l0.015-0.012l-0.008-0.031l0.087,0.057l0.024,0.012l0.139,0.018l0.027,0.053l0.007,0.073l-0.017,0.07
	l-0.037,0.042l-0.041-0.009l-0.141-0.068l-0.061-0.02l-0.061-0.026l-0.024-0.053l0.002-0.06l0.015-0.049l0.042,0.003H1192.235z
	 M1193.729,471.838l1.239-0.109l0.34-0.073l0.264-0.152l0.132-0.125l0.068-0.098l0.05-0.11l0.033-0.125l0.055-0.088l0.102-0.042
	l0.345-0.055l0.1,0.005l0.098,0.027l0.321,0.195l0.101,0.011l0.116-0.057l0.144-0.151l0.081-0.058l0.221-0.032l0.089-0.059
	l0.134-0.164l0.434-0.759l0.238-0.264l0.096-0.158l0.128-0.137l0.178-0.024l0.194,0.006l0.178-0.043l0.162-0.106l0.097-0.044
	l0.081-0.001l0.056,0.062l-0.006,0.082l-0.027,0.085l-0.007,0.081l0.156,0.169l0.239,0.084l0.161,0.11l-0.082,0.246l-0.002,0.001
	v0.001v0.001l-0.03,0.07l0.01,0.066l0.047,0.045l0.083,0.007l0.054-0.033l0.126-0.174l0.379-0.256l0.146-0.039l0.16,0.003
	l0.079,0.002l0.083-0.015l0.2-0.092l0.07-0.02l0.076-0.005l0.078,0.009l0.06,0.037l0.021,0.077l-0.033,0.056l-0.074,0.045
	l-0.151,0.064l-0.13,0.098l-0.07,0.109l-0.015,0.134l0.042,0.167l0.157,0.075l0.251,0.033l0.443-0.005l0.095,0.024l0.013,0.084
	l-0.044,0.183v0.09l0.021,0.085l0.047,0.077l0.278,0.284l0.109,0.049l0.152-0.03l0.445-0.233l0.391-0.207l0.284-0.1l0.299-0.058
	l0.135-0.048l0.117-0.093l0.15-0.205l0.189-0.496l0.48-0.704l0.229-0.197l0.27-0.049v-0.035l-0.005-0.038l-0.034-0.096l-0.014-0.043
	l0.019-0.005l0.043,0.016l0.051,0.009l0.121-0.223l0.047-0.059l0.482-0.184l0.153-0.101l0.095-0.132l0.035-0.157l-0.02-0.165
	l-0.075-0.158l0.021-0.115l-0.114-0.138l-0.049-0.109l0.024-0.101l0.107-0.117l0.325-0.274l0.336-0.213l1.071-0.398l0.114-0.019
	l0.563,0.023l0.088,0.02l0.09,0.049l0.29,0.2l0.071,0.027l0.012,0.048l0.107,0.02l0.418,0.14l0.213,0.096l0.105,0.035l0.081,0.001
	l0.196-0.033l0.086,0.002l0.3,0.11l0.121,0.015l0.248-0.018l0.053,0.006l0.113,0.04l0.014,0.001l0.039,0.002l0.106-0.039
	l0.168-0.133l0.363-0.182l0.062-0.007l0.178,0.114l0.091,0.033l0.228,0.027l0.095,0.025l0.09,0.045l0.109,0.076l0.093,0.045
	l0.287,0.043l0.096,0.048l0.059,0.073l0.051,0.083l0.076,0.078l0.1,0.057l0.274,0.104l0.136,0.041l0.472-0.048l0.049-0.024
	l0.335-0.072l0.572-0.225l0.67-0.264l0.8-0.317l1.63-0.654l0.69-0.278l0.363-0.094l0.773-0.051l0.366-0.081l0.558-0.226l0.704-0.287
	l0.813-0.332l0.134-0.075l0.099-0.098l0.053-0.108l0.086-0.375l0.07-0.12l0.114-0.054l0.211-0.023l0.397-0.046l1.163-0.384
	l0.6-0.314l0.58-0.437l0.327-0.159l0.773-0.231l0.552-0.165l0.683-0.308l0.505-0.229l0.837-0.381l0.266-0.209l0.176-0.277
	l0.023-0.132l0.004-0.274l0.04-0.137l0.105-0.123l0.45-0.282l0.223-0.232l0.13-0.077l0.344-0.13l0.247-0.212l0.145-0.093
	l0.179-0.052l0.333-0.05l0.452-0.291l0.119-0.102l0.22-0.3l0.145-0.127l0.164-0.103l0.179-0.079v-0.001h0.002l0.154,0.029
	l0.116,0.022l0.144,0.305l0.092,0.38l0.116,0.278l0.16,0.125l0.365,0.192l0.163,0.127l0.231,0.277l0.146,0.116l0.163,0.026
	l0.116-0.041l0.104-0.023l0.081,0.03l0.046,0.121l0.013,0.118l0.031,0.108l0.073,0.061l0.14-0.054l-0.013,0.089l0.004,0.105
	l0.016,0.1l-0.002,0.048l-0.024,0.045l-0.058,0.035l-0.121,0.009l-0.046,0.029l-0.059,0.102l-0.121,0.323l-0.086,0.098l-0.109,0.045
	l-0.108,0.027l-0.032,0.02l-0.042,0.025l-0.035,0.031l-0.082,0.029l-0.04,0.036l-0.09,0.134l-0.04,0.042l-0.093,0.056l-0.109,0.028
	l-0.21,0.025l-0.106,0.036l-0.938,0.686l-0.103,0.042l-0.049,0.009l-0.063,0.004l-0.179-0.021l-0.04,0.019l-0.072,0.067
	l-0.066,0.043l0.054,0.051l0.095,0.099v0.077l-0.119,0.158l-0.037,0.076l-0.01,0.064l0.016,0.069l0.039,0.086h0.001v0.001l0,0
	l0.049,0.105l0.063,0.1l0.083,0.083l0.207,0.092l0.097,0.062l0.071,0.079l0.023,0.09l0.018,0.175l0.085,0.326l-0.037,0.18
	l-0.038,0.053l-1.191,1.662l-0.13,0.34l-0.191,0.917l-0.011,0.163l0.054,0.144l0.152,0.13l0.378,0.147l0.178,0.098l0.104,0.15
	l0.122,0.296l0.356,0.867l0.087,0.156l0.13,0.164l0.078,0.072l0.086,0.059l0.1,0.042l0.202,0.057l0.097,0.05l0.155,0.134
	l0.122,0.151l0.094,0.168l0.185,0.585l0.023,0.135l-0.007,0.189l-0.057,0.157l-0.159,0.321l-0.027,0.087l-0.011,0.083l0.016,0.08
	l0.123,0.177l-0.001,0.058l-0.048,0.04l-0.072,0.046l-0.145,0.141l-0.087,0.157l-0.044,0.175l-0.025,0.37l0.018,0.085l0.041,0.079
	l0.075,0.051l0.227,0.104l0.052,0.038l-0.41,0.271l-0.103,0.091l-0.038,0.065l-0.04,0.068l-0.058,0.135l-0.091,0.485l-0.085,0.176
	l-0.34,0.48l-0.046,0.086l-0.02,0.095l0.007,0.085l0.04,0.166l0.001,0.088l-0.112,0.393l-0.198,0.369l-0.664,0.796l-0.047,0.089
	l0.008,0.097l0.059,0.067l0.075,0.011l0.081,0.001l0.086,0.036l0.073,0.016l0.307-0.079l0.106-0.006l0.038-0.011l0.109-0.071
	l0.036-0.002l0.026,0.023l0.02,0.048l-0.014,0.153l-0.145,0.344l0.009,0.162l0.057,0.051l0.218,0.142l0.062,0.024l0.095-0.03
	l0.054,0.019l0.1,0.131l0.144,0.128l0.059,0.077l0.007,0.084l-0.041,0.085l-0.113,0.164l-0.044,0.086l-0.093,0.326l-0.029,0.51
	l-0.007,0.022l-0.085,0.306l0.01,0.161l0.022,0.089l0.003,0.079l-0.014,0.078l-0.113,0.343l-0.037,0.071l-0.03,0.029l-0.131,0.079
	l-0.031,0.04l-0.019,0.044l-0.028,0.038l-0.053,0.025l-0.401,0.093l-0.075,0.103l0.003,0.193l0.149,0.68l-0.019,0.078l-0.074,0.007
	l-0.204-0.039l-0.08-0.024l-0.159-0.127l-0.076-0.047l-0.093-0.028l-0.095-0.008l-0.095,0.017l-0.246,0.141l-0.146,0.055
	l-0.641,0.125l-0.14,0.05l-0.137,0.072l-0.178,0.208l-0.22,0.538l-0.163,0.225l-0.47,0.434l-0.283,0.172l-0.305,0.038l-0.388,0.086
	l-0.037,0.021l-0.03,0.016l-0.04,0.036l-0.039,0.018l-0.042,0.005h-0.051l-0.018-0.012l-0.03-0.046l-0.019-0.011l-0.094,0.021
	l-0.008,0.006l-0.005,0.006l-0.071,0.018l-0.02-0.065l-0.008-0.01l-0.055,0.013l-0.034,0.018l-0.025,0.029l-0.123,0.212
	l-0.023,0.061l-0.194-0.006l-0.131-0.02l-0.113-0.072l-0.013-0.032l-0.003-0.081l-0.02-0.032l-0.072-0.051l-0.021-0.02l-0.074-0.095
	l-0.04-0.028h-0.049l-0.069-0.091l-0.066-0.046l-0.072-0.033l-0.156-0.091l-0.088-0.031l-0.094-0.019l-0.086-0.005l-0.109,0.008
	l-0.104,0.022l-0.095,0.045l-0.084,0.077l-0.062,0.034l-0.012-0.077l0.005-0.113l-0.006-0.074l-0.035-0.031l-0.091-0.048
	l-0.039-0.046v-0.037l0.015-0.042l0.005-0.045l-0.031-0.045l-0.035-0.03l-0.034-0.035l-0.026-0.038l-0.014-0.038l-0.013-0.071
	l-0.02-0.025l-0.024-0.009l-0.128-0.082l-0.291-0.134l-0.121-0.007l-0.048-0.018l-0.094-0.068l-0.046-0.025l-0.054-0.018
	l-0.035-0.003l-0.042,0.004l-0.044,0.012l-0.041,0.024l-0.021-0.031l-0.007-0.014l-0.006-0.023l-0.156-0.036l-0.178-0.167
	l-0.258-0.318l-0.076-0.023l-0.053-0.031l-0.029-0.047l-0.012-0.044l-0.023-0.048l-0.032-0.047l-0.046-0.042l-0.055-0.032
	l-0.047-0.015l-0.085-0.018l-0.158-0.073l-0.135,0.13l-0.172,0.153l-0.289,0.364l-0.335,0.42l-0.602,0.753l-0.395,0.492
	l-0.448,0.557l-0.153,0.07l-0.172-0.018l-0.324-0.085l-0.167-0.01l-0.707,0.049l-0.352-0.012l-0.357-0.066l-0.207,0.005
	l-0.158,0.089l-0.278,0.245l-0.172,0.073l-0.357,0.089l-0.554,0.375l-0.031,0.034l-0.011,0.044l0.022,0.084l0.004,0.042
	l-0.021,0.037l-0.07,0.02l-0.083-0.027l-0.087-0.041l-0.08-0.024l-0.104,0.013l-0.049,0.044l-0.051,0.138l-0.025,0.026l-0.037,0.018
	l-0.043,0.013l-0.039,0.005l-0.06,0.045l-0.036-0.012l-0.022-0.035l-0.022-0.024l-0.007-0.013l-0.002-0.023l-0.016-0.019
	l-0.043-0.001l-0.117,0.012l-0.336,0.084l-0.086-0.002l-0.32-0.145l-0.086-0.055l-0.034-0.045l-0.021-0.05l-0.022-0.042
	l-0.039-0.016l-0.059-0.014l-0.077-0.077l-0.064-0.024h-0.136l-0.114,0.021l-0.083,0.063l-0.079,0.25l-0.065,0.067l-0.667,0.213
	l-0.192,0.027l-0.051,0.021l-0.095,0.086l-0.051,0.034l-0.069,0.022l-0.165,0.087l-0.271,0.214l-0.268,0.117l0.01,0.04l0.05,0.053
	l0.013,0.084l-0.018,0.044l-0.026,0.036l-0.072,0.06l-0.031,0.038l-0.002,0.039l0.005,0.039l-0.009,0.041l-0.055,0.081l-0.074,0.066
	l-0.174,0.1l-0.273,0.057l-0.071,0.034l-0.051,0.068l-0.009,0.078l0.02,0.083l0.038,0.082l0.025,0.095l-0.024,0.077l-0.226,0.32
	l-0.05,0.037l-0.13,0.04l-0.054,0.027l-0.252,0.227l-0.066,0.039l-0.09,0.021l-0.057-0.02l-0.052-0.042l-0.076-0.047l-0.038-0.011
	l-0.132-0.021l-0.031-0.021l-0.021-0.029l-0.026-0.021l-0.048,0.004l-0.07,0.035l-0.056,0.043l-0.103,0.103l-0.229,0.177
	l-0.658,0.326l-0.123,0.09l-0.041,0.055l-0.035,0.064l-0.042,0.057l-0.06,0.033h-0.039l-0.082-0.018l-0.041,0.006l-0.028,0.021
	l-0.034,0.062l-0.011,0.011l-0.015,0.014l-0.06,0.022l-0.067,0.013l-0.062,0.023l-0.042,0.048l-0.03,0.058l-0.131,0.159
	l-0.186,0.129l-0.053,0.048l-0.038,0.061l-0.03,0.062l-0.036,0.057l-0.565,0.322l-0.169-0.001l-0.141-0.227l-0.055-0.06
	l-0.078-0.038l-0.148-0.006l-0.143-0.056l-0.193,0.019l-0.083-0.006l-0.179-0.049l-0.176-0.022l-0.044-0.013l-0.029-0.021
	l-0.032-0.011l-0.051,0.018l-0.079,0.05l-0.035,0.032l-0.026,0.039l-0.022,0.076l0.004,0.05l0.001,0.018l0.047,0.15l0.005,0.069
	l-0.027,0.155l-0.002,0.075l-0.02,0.083l-0.065,0.057l-0.156,0.086l-0.495,0.407l-0.057,0.036l-0.151,0.061l-0.198,0.045
	l-0.032,0.026l-0.108,0.17l-0.118,0.339l-0.035,0.059l-0.055,0.026l-0.063,0.016l-0.063,0.022l-0.06,0.043l-0.243,0.295
	l-0.059,0.148l-0.025,0.163l-0.005,0.341l0.032,0.063l0.164-0.008l0.077,0.039l0.058,0.069l0.03,0.082l-0.011,0.078l-0.193,0.303
	l-0.051,0.044l-0.123,0.066l-0.02,0.01l-0.125,0.113l-0.318,0.509l-0.045,0.046l-0.052,0.032l-0.116,0.049l-0.061,0.039
	l-0.142,0.156l-0.055,0.034l-0.172,0.065l-0.208,0.157l-0.082,0.092l-0.426,0.712l-0.166,0.202l-0.038,0.099l-0.042,0.371
	l-0.026,0.089l-0.01,0.106l-0.027,0.038l-0.082,0.178l-0.024,0.096l0.031,0.078l-0.021,0.05l-0.127,0.203l-0.035,0.076l0.004,0.05
	l0.035,0.091l0.007,0.046l-0.018,0.043l-0.032,0.048l-0.015,0.053l0.034,0.059l0.016,0.058l0.019,0.272l-0.123,0.716l0.007,0.173
	l0.024,0.092l0.04,0.067l0.059,0.076l0.064,0.148l0.078,0.064l0.029,0.006l0.062-0.009l0.036,0.007l0.029,0.019l0.081,0.079
	l0.042,0.055l0.051,0.121l0.046,0.058l0.013,0.037l-0.011,0.131l-0.044,0.223l-0.002,0.067l-0.031,0.08l0.006,0.142l-0.022,0.063
	l-0.061,0.068l-0.206,0.151l-0.053,0.077l-0.195,0.76l-0.067,0.137l-0.061,0.067l-0.073,0.063l-0.058,0.068l-0.018,0.087
	l-0.001,0.101l-0.028,0.074l-0.053,0.062l-0.827,0.759l0,0v-0.001l-0.478-0.357l-0.166-0.097l-0.189-0.071l-0.085-0.044
	l-0.167-0.126l-0.564-0.317l-1.05-0.861l-0.048-0.062l-0.078-0.146l-0.142-0.186l-0.198-0.315l-0.106-0.075l-0.078-0.134
	l-0.145-0.142l-0.27-0.218l-0.032-0.021l-0.073-0.018l-0.044-0.016l-0.041-0.024l-0.077-0.059l-0.253-0.149l-0.08-0.065
	l-0.257-0.283l-0.109-0.162l-0.073-0.151l-0.077-0.324l-0.079-0.164l-0.131-0.066l0.007-0.075l-0.042-0.081l-0.055-0.081
	l-0.033-0.079l-0.02-0.077l-0.038-0.099l-0.035-0.061l-0.018,0.037l-0.077-0.062l-0.071,0.007l-0.128,0.072l-0.007-0.004
	l-0.041-0.016l-0.016-0.002l-0.02,0.006l-0.045,0.027l-0.013,0.005l-0.035-0.006l-0.041-0.012l-0.042-0.021l-0.042-0.03
	l-0.099-0.028l-0.054,0.011l-0.108,0.112l-0.084,0.053l-0.027,0.025l-0.017,0.042l0.009,0.033l-0.006,0.021l-0.058,0.006
	l-0.077-0.023l-0.215-0.09l-0.052-0.015l-0.002,0.051l0.063,0.042l0.082,0.026l0.052,0.005l0.022,0.02l-0.066,0.026l-0.092-0.006
	l-0.083-0.039l-0.065-0.117l-0.086-0.035l-0.032-0.033l-0.006-0.039l0.026-0.127l-0.087,0.081l-0.075-0.067l-0.098-0.21
	l-0.024,0.089l-0.017,0.134l0.012,0.099l0.062-0.02l0.409,0.322l-0.084-0.015l-0.154-0.008l-0.082-0.013l-0.075-0.043l-0.073-0.061
	l-0.069-0.028l-0.063,0.059l-0.03-0.056l-0.046-0.062l-0.054-0.038l-0.047,0.012l0.008,0.037l0.067,0.148l0.01,0.059l-0.091-0.064
	l-0.091-0.108l-0.145-0.239l-0.002,0.145l-0.074-0.156l-0.036-0.056l-0.011,0.027l-0.039,0.074l-0.045-0.101l-0.037-0.018
	l-0.015,0.051l0.019,0.105l-0.046-0.002l-0.013,0.049l-0.107,0.134l-0.007,0.095l-0.028,0.025l-0.063-0.063l-0.019,0.02l0.015,0.054
	l0.005,0.063l-0.012,0.062l-0.04,0.048l-0.01-0.034l-0.048-0.093l-0.02,0.02l-0.034,0.044l-0.021,0.018l0.001,0.008l-0.005,0.04
	l-0.007,0.015l-0.016,0.001l-0.052-0.009l-0.017,0.004l-0.022,0.051l-0.034,0.104l-0.041,0.047l-0.026-0.023l-0.008-0.042
	l-0.021-0.005l-0.029,0.021l-0.032,0.034l-0.037,0.027l-0.072,0.015l-0.038,0.022l-0.051,0.062l-0.09,0.176l-0.025,0.085
	l0.157-0.047l0.041-0.026l0.029,0.125l0.026,0.061l0.048,0.06l0.063,0.047l0.177,0.099l0.077,0.085l0.015,0.066l-0.034,0.023
	l-0.555-0.381l-0.059-0.021l-0.283-0.038l-0.069-0.044l-0.042-0.09l-0.007-0.058l0.003-0.151l-0.019-0.043l-0.035-0.05l-0.027-0.049
	l0.01-0.1l-0.032-0.097l-0.172-0.355l-0.076-0.215l-0.008-0.19l0.121-0.09l-0.024,0.089l-0.004,0.078l0.031,0.184l0.018,0.038
	l0.076,0.119l0.003,0.019l0.004,0.116l0.103,0.064l0.112-0.095l0.231-0.372l0.176-0.177l0.071-0.042l0.076,0.005l0.077,0.024
	l0.075,0.012l0.064-0.016l0.06-0.036l0.118-0.114l0.069-0.029l0.023-0.028l-0.023-0.044l-0.037-0.03l-0.034-0.014l-0.031,0.004
	l-0.035,0.023l-0.054-0.118l0.045-0.026l0.091,0.012l0.088-0.006l0.049-0.057l0.001-0.155l0.036-0.076l0.034-0.017l0.097-0.035
	l0.025-0.024l-0.002-0.063l-0.043-0.023l-0.06,0.002l-0.052,0.013l-0.083,0.042l-0.139,0.099l-0.092,0.013l0.029-0.061l-0.002-0.05
	l-0.035-0.037l-0.075-0.021l-0.072,0.006l-0.044,0.032l-0.111,0.154l-0.031-0.011l-0.07-0.062l-0.044-0.022l-0.062-0.016l-0.065,0
	l-0.052,0.017l0.135,0.09l0.049,0.045l-0.016,0.019l-0.25-0.035l-0.138,0.012l-0.087,0.063l0.028,0.008l0.104,0.042l-0.028,0.006
	l-0.065,0.024l-0.027,0.006l0.068,0.06l0.116,0.006l0.06,0.047l-0.151,0.042l-0.134-0.103l-0.222-0.294l-0.014,0.05l-0.026,0.041
	l-0.039,0.031l-0.047,0.016l-0.023-0.021l0.043-0.137l-0.058-0.333l-0.01-0.178h-0.031l-0.052-0.018l-0.023-0.004l0.01-0.038
	l0.016-0.033l0.049-0.063l0.025-0.052l-0.026-0.023l-0.04-0.004l-0.019,0.007l-0.014-0.071l0.001-0.082l-0.008-0.084l-0.044-0.081
	l-0.007,0.024l-0.004,0.01l-0.003,0.009l0.001,0.019l-0.092,0.008l-0.047,0.034l-0.09,0.115l-0.061,0.035l-0.116,0.014l-0.064,0.02
	l-0.06,0.039l-0.047,0.05l-0.03,0.061l-0.018,0.072l0.018,0.238l-0.027,0.064l-0.004,0.021l-0.01,0.075l-0.012,0.028l-0.028,0.017
	l-0.079,0.021l-0.029,0.018l-0.043,0.019l-0.309,0.062l-0.027,0.065v0.08l-0.018,0.062l-0.167,0.23l-0.015-0.046l-0.01-0.039v-0.039
	l0.006-0.044l-0.124,0.254l-0.085,0.12l-0.106,0.065l-0.146-0.047l-0.072,0.006l-0.002,0.091l0.036,0.034l0.064,0.022l0.114,0.018
	l0.051,0.027l0.211,0.163l0.045,0.009l0.176,0.012l0.05-0.009l0.287,0.067l0.16-0.018l0.044-0.011l0.023,0.022l-0.196,0.072
	l0.062-0.015l0.167,0.007l0.003,0.039l-0.168,0.014l-0.083-0.006l-0.257-0.086l-0.082-0.004l-0.135,0.063l-0.087-0.018l-0.09-0.047
	l-0.147-0.108l-0.06-0.009l-0.458,0.085l-0.185,0.011l-0.113-0.027l-0.129-0.161l-0.062-0.099l-0.03-0.071l-0.045-0.076l-0.09-0.031
	l-0.168-0.013l0.002-0.063l-0.045-0.019l-0.11,0.008l-0.181-0.069l-0.125-0.133l-0.499-0.651l-0.077-0.145l-0.056-0.17l-0.064-0.375
	l-0.069-0.228l-0.111-0.129l-0.043,0.006l-0.084,0.059l-0.037-0.005l-0.026-0.036l-0.043-0.082l-0.013-0.009l-0.022,0.003
	l0.012-0.055l0.026-0.062l0.02-0.017l-0.026-0.036l-0.041-0.031l-0.041-0.02l-0.027-0.007l-0.196-0.308l-0.163-0.351l-0.098-0.134
	l-0.276-0.181l-0.139-0.127l0.049-0.011l0.097-0.036l0.053-0.003l0.052,0.026l0.032,0.044l0.027,0.048l0.034,0.034l0.093,0.033
	l0.258,0.01l0.078,0.032l0.162,0.088l0.069,0.021l0.141-0.037l0.019,0.004l0.066-0.071l0.023-0.039l0.01-0.047l0.008,0.09
	l-0.04,0.091l-0.019,0.073l0.07,0.034l0.039-0.002l0.075-0.014l0.05,0.004l0.037,0.022l0.039,0.036l0.041,0.021l0.044-0.02
	l0.125-0.118l0.044-0.059l0.031-0.088l-0.01-0.247l0.027-0.061l0.049,0.133l0.041,0.063l0.051-0.013l0.168-0.238l0.007-0.04
	l-0.035-0.04l-0.043-0.04l-0.024-0.04l-0.018-0.093l0.01-0.048l0.045-0.022l0.021,0.015l0.047,0.079l0.03,0.033l0.089,0.037
	l0.092,0.006l0.087-0.023l0.071-0.054l0.023-0.01l0.071-0.011l0.032-0.024l0.023-0.039l0.009-0.038l0.008-0.065l0.049-0.145
	l-0.006-0.078l-0.057-0.081l-0.153-0.131l-0.047-0.063l-0.07-0.194l0.007-0.021l0.033-0.036l0.03-0.021l0.042-0.014l0.04-0.004
	l0.026,0.007l0.021,0.004l0.051-0.026l0.02-0.004l0.023,0.019l0.014,0.028l0.008,0.026l0.008,0.014l0.087,0.052l0.04,0.009
	l0.046-0.013l0.027,0.07l0.009,0.038l0.004,0.04l0.09,0.022l0.181,0.083l0.101,0.016l0.042-0.015l0.031-0.024l0.033-0.014
	l0.05,0.019l0.018,0.031l0.04,0.109l0.021,0.038l0.128,0.031l0.101-0.112l0.092-0.154l0.173-0.147l0.003-0.085l-0.014-0.093
	l0.047-0.186l0.019-0.035l0.032-0.025l0.111-0.044l0.075-0.065l0.034-0.074l0.022-0.077l0.06-0.11l-0.001-0.042l-0.015-0.04
	l-0.022-0.031l-0.019,0.013l-0.102,0.046l-0.048,0.005l0.157-0.164l0.063-0.097l0.031-0.127l0.164-0.174h0.017l0.01,0.033
	l0.06,0.104l0.01,0.026l0.021-0.002l0.117-0.058l0.401-0.434l-0.082,0.029l-0.074,0.046l-0.014-0.078l0.075-0.142l-0.004-0.085
	l-0.253,0.296l-0.038,0.033l-0.052-0.006l-0.082-0.061l-0.074-0.044l-0.145-0.032l-0.108-0.064l-0.083-0.023l-0.035-0.02
	l-0.019-0.026l-0.008-0.025l-0.011-0.024l-0.029-0.02l-0.023,0.011l-0.021,0.033l-0.029,0.019l-0.045-0.027l-0.006-0.027
	l0.016-0.025l0.023-0.024l0.012-0.028l-0.014-0.147l0.007-0.065l0.039-0.065l0.108-0.053l0.288-0.061l0.043-0.048l0.121-0.039
	l0.058,0.037l0.025,0.087l0.017,0.113l0.122-0.086l0.238-0.395l0.052-0.13l0.032-0.054l-0.036-0.125l0.048-0.178l0.004-0.046
	l-0.072-0.263l-0.032-0.078l-0.048-0.063l-0.068-0.041l-0.074-0.018l-0.15-0.003l-0.222-0.03l-0.049,0.019l-0.022-0.02l0.066-0.059
	l0.094-0.041l0.19-0.056l-0.047-0.009l-0.097,0.02l-0.045,0.003l-0.059-0.006l-0.029-0.006l-0.021-0.01l-0.021-0.025l-0.011-0.033
	l0.002-0.024l0.019-0.001l-0.103-0.005l-0.091,0.062l-0.088,0.077l-0.088,0.04l-0.108-0.089l-0.193,0.008l-0.924,0.217l-0.329,0.167
	l-0.076,0.021l-0.193,0.016l-0.189,0.073l-0.092,0.024l-0.031-0.003l-0.088-0.021l-0.143-0.014l-0.04,0.005l-0.112,0.087
	l-0.081,0.027l-0.086,0.002l-0.085-0.009l-0.161-0.044l-0.15-0.08l-0.149-0.112l-0.304-0.273l-0.142-0.099l-0.146-0.074
	l-0.154-0.056l-0.334-0.058l-0.083-0.034l-0.039-0.013l-0.038,0.021l-0.035,0.026l-0.033,0.009l-0.052-0.026l-0.025-0.039
	l-0.019-0.043l-0.028-0.043l-0.024-0.019l-0.084-0.048l-0.042-0.033l-0.053-0.109l-0.035-0.043l-0.059-0.051l-0.077-0.054
	l-0.085-0.044l-0.081-0.021l-0.158,0.017l-0.198,0.063l-0.167,0.109l-0.073,0.157l-0.17,0.065l-0.636,0.998l-0.065,0.242
	l-0.038,0.068l-0.203,0.21l-0.218,0.087l-0.058,0.163l-0.005,0.188l0.009,0.133l-0.045,0.476l0.041,0.158l0.363,0.938l0.025,0.113
	l-0.007,0.068l0.018,0.057l0.063,0.101l0.076,0.096l0.061,0.039l0.022-0.042l-0.028-0.187l0.013-0.067l0.139-0.13l0.087-0.039
	l0.085,0.013l0.044,0.046l0.031,0.11l0.026,0.045l0.038,0.03l0.08,0.049l0.04,0.033l0.068,0.083l0.273,0.6l0.058,0.08l0.067,0.125
	l0.026,0.036l0.038,0.027l0.116,0.045l0.169,0.105l0.233,0.184l0.074,0.032l0.422,0.118l0.075,0.04l0.058,0.081l0.047,0.156
	l0.073,0.073l-0.018,0.02l-0.047-0.015l-0.076,0.011l-0.04-0.006l-0.042-0.031l-0.085-0.121l-0.08-0.075l-0.08-0.057l-0.084-0.042
	l-0.091-0.031l-0.028-0.004h-0.072l-0.021-0.004l-0.048-0.031l-0.059-0.069l-0.034-0.031l-0.258-0.125l-0.037-0.026l-0.063,0.008
	l-0.172-0.077l-0.068,0.018l-0.041,0.031l-0.043,0.005l-0.045-0.02l-0.049-0.039l-0.037-0.023l-0.033-0.003l-0.084,0.007
	l-0.049,0.013l-0.078,0.065l-0.041,0.012l-0.205-0.012l-0.08,0.017l-0.068,0.033l-0.07,0.002l-0.088-0.073v-0.017l-0.045-0.149
	l-0.018-0.036l-0.037-0.04l-0.079-0.068l-0.021-0.027l-0.021-0.05l-0.021-0.022l-0.026-0.01l-0.026,0.001l-0.02,0.006l-0.012,0.001
	l-0.09-0.042l-0.041-0.01h-0.038l-0.024,0.015l-0.036,0.051l-0.028,0.01l-0.063-0.007l-0.03-0.001l-0.057,0.028l-0.088-0.003
	l-0.033,0.015l-0.081,0.051l-0.079-0.01l0,0l-0.003-0.217l-0.005-0.794l-0.005-0.693v-0.002l0,0l0.08-1.03l0.25-0.575l0.054-0.241
	l0.327-0.835l0.129-0.222l0.356-0.579l0.312-0.504l0.483-0.792l0.217-0.193l0.249-0.147l0.66-0.205l0.716-0.224l0.43-0.136
	l0.507-0.159l0.836-0.129l0.143,0.002l0.095,0.033l0.06,0.053l0.051,0.068l0.073,0.072l0.085,0.048l0.092,0.025l0.638,0.027
	l0.278,0.01l0.474,0.082l0.464,0.078l0.179-0.003l0.172-0.032l0.275-0.084l0.088-0.005l0.093,0.018l0.253,0.076l0.104,0.003
	l0.095-0.025l0.116-0.045l0.106-0.069l0.304-0.396l0.088-0.231l0.2-0.312l0.11-0.373l0.077-0.108l0.192-0.191l0.438-0.471
	l0.503-0.543l0.56-0.605l0.097-0.107l0.604-0.658l0.297-0.245l0.382-0.317l0.019-0.086l-0.076-0.226l-0.014-0.114l0.055-0.199
	l0.012-0.102l-0.008-0.066l-0.02-0.028l-0.036,0.01l-0.161,0.126l-0.061,0.03l-0.065,0.02l-0.123,0.011l-0.14-0.018l-0.136-0.044
	l-0.114-0.072l-0.129-0.112l-0.115-0.078l-0.125-0.045l-0.158-0.018l-0.176-0.056l-0.113-0.102l-0.1-0.123l-0.131-0.125
	l-0.347-0.178l-0.142-0.121l-0.035-0.178l0.109-0.372l0.453,0.432l0.047,0.072l0.063,0.137l0.04,0.046l0.198,0.104l0.105,0.021
	h0.055l0.011-0.028l-0.063-0.083l-0.078-0.071l-0.028-0.016l-0.014-0.009l-0.12-0.248l-0.03-0.047l-0.022-0.052v-0.046l0.038-0.021
	l0.172,0.063l0.064,0.002l0.263-0.078l0.073-0.003l0.065,0.032l0.043,0.05l0.03,0.042l0.036,0.04l0.071,0.047l0.075,0.038
	l0.049,0.011l0.484-0.086l0.064-0.033l0.035-0.059v-0.097l-0.047-0.208l0.005-0.077l0.055-0.053l0.079-0.021l0.06-0.008l0.044-0.028
	l0.027-0.079l0.004-0.099l-0.005-0.072l0.015-0.053l0.151-0.086l0.048-0.06l0.025-0.07l0.016-0.075l-0.001-0.063l-0.045-0.094
	l-0.016-0.08l0.013-0.097l0.041-0.087l0.159-0.233l0.052-0.153l0.019-0.032l0.008-0.024l-0.02-0.031l-0.263-0.185l-0.063-0.074
	l-0.021-0.073v-0.07l-0.018-0.053l-0.042-0.021l-0.085,0.025l-0.102,0.041l-0.324,0.062l-0.066,0.028l-0.057,0.034l-0.137,0.156
	l-0.063,0.024l-0.075-0.039l-0.121-0.114l-0.023-0.049l0.006-0.07l0.023-0.112l-0.012-0.031l-0.035-0.032l-0.039-0.025l-0.026-0.001
	l-0.251,0.092l-0.149,0.101l-0.063,0.023h-0.06l-0.053-0.028l-0.046-0.044l-0.033-0.041l-0.016-0.044l0.01-0.05l0.063-0.069
	l-0.002-0.033l-0.064-0.057l-0.05-0.031l0.044-0.081l0.063-0.234l0.035-0.071l0.18-0.206l0.035-0.07l0.012-0.106l-0.043-0.02
	l-0.072,0.007l-0.077-0.026l-0.028-0.066l0.061-0.148l-0.009-0.081l-0.158-0.341l-0.064-0.099l-0.063-0.043l-0.181-0.038
	l-0.113-0.064l0.002-0.086l0.034-0.112l-0.019-0.147l-0.021-0.064l-0.012-0.063l0.023-0.076l0.043-0.08l0.058-0.07l0.065-0.044
	l0.076-0.012l0.151,0.006l0.065-0.029l0.036-0.055l0.046-0.15l0.037-0.064l0.065-0.06l0.377-0.206l0.153-0.05l0.16-0.002l0.16,0.077
	l0.06,0.067l0.052,0.069l0.058,0.049l0.081,0.004l0.052-0.042l0.133-0.226l0.009-0.057l-0.021-0.036l-0.044-0.012l-0.058,0.012
	l-0.234,0.019l-0.521-0.04l-0.241-0.059l-0.208-0.012l-0.163,0.049l-0.475,0.26l-0.092,0.02l-0.087-0.041l-0.032-0.074l0.008-0.088
	l0.047-0.156l0.04-0.241l0.03-0.071l0.063-0.076l0.388-0.239l0.159-0.135l0.136-0.154l0.068-0.158l-0.058-0.157l-0.287-0.303
	l-0.041-0.128L1193.729,471.838z"/></svg>