<?xml version="1.0" encoding="utf-8"?>
<!-- Generator: Adobe Illustrator 15.0.0, SVG Export Plug-In . SVG Version: 6.00 Build 0)  -->
<!DOCTYPE svg PUBLIC "-//W3C//DTD SVG 1.1//EN" "http://www.w3.org/Graphics/SVG/1.1/DTD/svg11.dtd">
<svg version="1.1" id="Ebene_1" xmlns="http://www.w3.org/2000/svg" xmlns:xlink="http://www.w3.org/1999/xlink" x="0px" y="0px"
	 width="1920px" height="1080px" viewBox="0 0 1920 1080" enable-background="new 0 0 1920 1080" xml:space="preserve">

<path fill="#F4E0B6" stroke="#FFFFFF" d="M1114.336,643.335l0.162,0.241l0.164,0.24l0.164,0.242l0.163,0.241l0.163,0.241
	l0.164,0.242l0.164,0.241l0.164,0.242l0.164,0.241l0.165,0.242l0.165,0.242l0.164,0.242l0.164,0.242l0.166,0.241l0.111,0.165
	l0.111,0.164l0.106,0.157l0.039,0.082l0.103,0.219l0.145,0.31l0.168,0.354l0.167,0.354l0.146,0.311l0.104,0.22l0.039,0.083
	l0.053,0.11l0.046,0.061l0.088,0.032l0.225,0.012l0.097,0.017l0.206,0.102l0.158,0.103l0.109,0.073l0.112,0.071l0.111,0.072
	l0.109,0.073l0.111,0.071l0.112,0.071l0.111,0.073l0.11,0.072l0.111,0.073l0.11,0.071l0.111,0.073l0.112,0.072l0.111,0.072
	l0.111,0.072l0.111,0.071l0.111,0.073l0.11,0.071l-0.112,0.17l-0.019,0.21l0.058,0.213l0.119,0.178l0.095,0.085l0.096,0.066
	l0.106,0.046l0.43,0.104l0.162,0.07l0.342,0.148l0.343,0.148l0.342,0.147l0.343,0.146l0.139,0.061l0.097,0.064l0.042,0.067
	l0.005,0.087l-0.008,0.19l-0.02,0.371l-0.018,0.374l-0.018,0.371l-0.019,0.374l-0.008,0.142l0.035,0.396l0.068,0.186l0.074,0.203
	l0.073,0.203l0.074,0.206l0.075,0.205l0.074,0.203l0.074,0.204l0.074,0.203l0.075,0.206l0.073,0.204l0.075,0.205l0.074,0.206
	l0.074,0.204l0.074,0.204l0.075,0.205l0.074,0.206l0.075,0.204l0.074,0.206l0.075,0.204l0.074,0.206l0.074,0.207l0.075,0.206
	l0.075,0.205l0.075,0.206l0.075,0.207l0.073,0.206l0.076,0.206l0.075,0.207l0.074,0.206l0.075,0.207l0.075,0.206l0.075,0.207
	l0.075,0.207l0.075,0.208l0.075,0.207l0.074,0.207l0.076,0.208l0.075,0.207l0.075,0.207l0.074,0.209l0.076,0.207l0.062,0.168
	l0.014,0.039l0.075,0.209l0.076,0.209l0.074,0.209l0.076,0.208l0.075,0.209l0.075,0.209l0.076,0.208l0.076,0.209l0.076,0.209
	l0.075,0.21l0.076,0.209l0.075,0.208l0.075,0.211l0.076,0.21l0.075,0.21l0.076,0.209l0.076,0.21l0.076,0.211l0.076,0.209
	l0.076,0.212l0.076,0.21l0.076,0.21l0.075,0.212l0.043,0.116l0.01,0.06l0.01,0.052l-0.016,0.108l-0.064,0.226l-0.105,0.374
	l-0.104,0.375l-0.107,0.374l-0.107,0.375l-0.106,0.376l-0.106,0.375l-0.107,0.376l-0.107,0.377l-0.107,0.378l-0.107,0.375
	l-0.108,0.378l-0.109,0.379l-0.108,0.378l-0.109,0.378l-0.109,0.381l-0.11,0.38l-0.075,0.262l-0.115,0.396l-0.108,0.37l-0.037,0.236
	l-0.04,0.247l-0.04,0.246l-0.038,0.248l-0.04,0.248l-0.04,0.246l-0.04,0.248l-0.04,0.25l-0.04,0.246l-0.04,0.248l-0.04,0.249
	l-0.04,0.25l-0.042,0.248l-0.04,0.249l-0.041,0.249l-0.04,0.249l-0.041,0.25l-0.04,0.242l0.002,0.303l0.002,0.384l0.002,0.174
	l0.016,0.099l0.038,0.103l0.059,0.084l0.143,0.168l0.046,0.092l0.01,0.127l-0.046,0.068l-0.075,0.048l-0.074,0.062l-0.026,0.057
	l-0.062,0.228l-0.055,0.104l-0.004,0.031l0.017,0.021l0.063,0.021l0.025,0.021l0.104,0.164l0.032,0.088l0.005,0.101l-0.084,0.198
	l-0.061,0.049l-0.089,0.07l-0.16,0.101l-0.121,0.143l-0.08,0.111l-0.047,0.275l0.117,0.276l0.219,0.284l0.16,0.207l0.135,0.192
	l0.094,0.134l0.095,0.134l0.093,0.134l0.096,0.134l0.093,0.134l0.094,0.135l0.095,0.133l0.094,0.135l0.095,0.133l0.095,0.135
	l0.093,0.135l0.095,0.134l0.095,0.135l0.095,0.133l0.095,0.136l0.093,0.135l-1.052,0.478l-0.004,0.003l-0.11,0.084l-0.024,0.055
	l0.037,0.08l-0.042,0.081l-0.094,0.258l-0.011,0.058l-0.002,0.059l0.007,0.02l0.036,0.022l0.018,0.023l0.003,0.044l-0.022,0.021
	l-0.031,0.013l-0.015,0.018l-0.011,0.085l0.018,0.019l0.063-0.021l-0.03,0.147l-0.083,0.092l-0.103,0.082l-0.089,0.113l-0.002-0.047
	l-0.012-0.052l-0.024-0.033l-0.044,0.013l-0.016,0.03l0.002,0.096l-0.017,0.051l-0.021-0.053l-0.008-0.017l-0.058,0.061
	l-0.077,0.046l-0.055,0.005l0.002-0.058l-0.012-0.029l-0.111,0.068l-0.088,0.1l-0.289,0.4l-0.105,0.083l-0.13,0.03l0.016,0.087
	l-0.037,0.022h-0.065l-0.073,0.013l0.015,0.035l0.039-0.006l0.038,0.004l0.038,0.015l0.043,0.023l-0.034,0.08l-0.056,0.203
	l0.003,0.016l0.022,0.035l0.002,0.015l-0.012,0.009l-0.039,0.013l-0.009,0.008l-0.014,0.021l-0.048,0.051l-0.003,0.022l0.04,0.047
	l0.04,0.022l0.01,0.017l-0.057,0.037l-0.016-0.013l-0.037-0.021l-0.034-0.008l-0.005,0.024l-0.004,0.006l0.006,0.093l-0.048,0.201
	l-0.043,0.096l-0.085,0.073l-0.04,0.049l0.018,0.126l-0.026,0.043l-0.069,0.019l-0.056-0.012l-0.055-0.023l-0.062-0.016l0.028,0.08
	l0.003,0.032l-0.014,0.046l-0.02,0.04l-0.025,0.024l-0.027-0.02l-0.014,0.028l-0.087,0.238l0.021,0.084l-0.02,0.116l0.002,0.085
	l0.079-0.007l0.016,0.119v0.063l-0.018,0.059l-0.026,0.028l-0.087,0.067l-0.013,0.026l0.071,0.274l0.004,0.065l-0.046,0.063
	l-0.075,0.019l-0.095,0.01l-0.104,0.032l-0.117,0.054l-0.151,0.07l-0.079,0.013l-0.029,0.048l-0.041-0.009l-0.05-0.025l-0.052-0.005
	l-0.038,0.026l-0.017,0.036l-0.008,0.035l-0.012,0.019l-0.037,0.01l-0.015-0.013l-0.013-0.026l-0.029-0.024l-0.061-0.004
	l-0.249,0.025l-0.063,0.05l-0.061,0.114l-0.056,0.04l-0.135,0.086l-0.277,0.059l-0.103-0.003l-0.266-0.072l-0.756-0.103
	l-0.556,0.025l-1.432,0.287l-2.073,1.05l-0.816,0.287l-0.399,0.243l-0.104,0.085l-1.896,1.534l-0.147,0.172l-0.622,0.915
	l-0.045,0.12l0.002,0.061l0.03,0.127l-0.002,0.06l-0.02,0.057l-0.016,0.012l-0.022,0.007l-0.04,0.041l-0.061,0.101l-0.086,0.226
	l-0.37,1.345l-0.015,0.055l-0.032,0.072l-0.033,0.058l-0.024,0.029l-0.09,0.054l-0.972,0.337l-0.077,0.045l-0.205,0.188
	l-0.162,0.081l-1.337,0.462l-0.161,0.056l-1.297,0.188l-0.199-0.025l-0.113-0.064l-0.212-0.17l-0.124-0.062l-0.253-0.065
	l-0.125-0.006l-0.128,0.031l-0.053,0.023l-0.104,0.068l-0.044,0.042l-0.039,0.052l-0.013,0.022l-0.019,0.007l-0.051,0.003
	l-0.041-0.007l-0.602-0.229l-0.162-0.092l-0.08-0.028l-0.068-0.003h-0.006l-0.145,0.023l-0.075-0.001l-0.197-0.058l-0.151-0.023
	l-0.143-0.059l-0.066-0.019l-0.141,0.009l-1.18,0.363l-0.146,0.09l-0.123,0.146l-1.228,1.85l-0.121,0.116l-0.159,0.077l-0.498,0.127
	l-0.092,0.07l-0.146,0.483l-0.139,0.305l-0.077,0.099l-0.024,0.019l-0.075,0.053l-0.331,0.161l-0.156,0.055l-0.156,0.007
	l-0.188-0.049l-0.22-0.088l-0.383-0.211l-0.189-0.172l-0.619-0.562l-1.035-0.532l-0.854-0.357l-0.363-0.046l-0.087,0.018
	l-0.264,0.058l-0.079,0.061l-0.203,0.281l-0.043,0.035h-0.034l-0.038-0.013l-0.049-0.007l-1.458,0.048l-1.459,0.042l-0.158,0.035
	l-0.623,0.437l-0.103,0.128l-0.027,0.101l-0.015,0.22l-0.035,0.11l-0.104,0.174l-0.044,0.049l-0.145,0.104l-0.659,0.271
	l-0.431,0.304l-0.27,0.106l-0.119-0.003l-0.138-0.059l-0.12-0.003l-0.141,0.084l-0.828,0.664l-0.496,0.397l-0.213,0.221
	l-0.162,0.268l-0.48,1.088l-0.105,0.129l-0.129,0.094l-0.295,0.147l0.383,1.239l0.021,0.126l0.206,1.18l-0.336,1.623l-0.202,0.458
	l-0.756,1.321l-0.002,0.065l0.455,1.289l0.089,0.754l0.069,0.229l0.237,0.332l0.078,0.172l-0.025,0.213l-0.052,0.131l-0.027,0.1
	l0.005,0.098l0.121,0.288l0.03,0.045l0.045,0.044l0.021,0.011l0.025,0.005l0.15,0.076l0.089,0.072l0.055,0.094l0.003,0.13
	l-0.037,0.091l-0.191,0.276l-0.044-0.015l-0.069-0.064l-0.047-0.004l-0.029-0.033l-0.023-0.044l-0.029-0.03l-0.051-0.074
	l-0.031-0.034l-0.027-0.011l-0.032-0.004l-0.041-0.018l-0.235-0.176l-0.051-0.022l-0.064-0.016l-0.193,0.014l-0.257-0.046
	l-0.06,0.006l-0.06-0.01l-0.061,0.015l-0.052,0.074l-0.054,0.063l-0.071,0.013l-0.072-0.017l-0.052-0.022l-0.094-0.055l-0.17-0.151
	l-0.064-0.081l-0.06-0.109l-0.048-0.108l-0.022-0.021l-0.081-0.025l-0.022-0.02l-1.063-0.441l-0.287-0.222l-0.075-0.078
	l-0.026-0.018l-0.044,0.004l-0.162,0.053l-0.063,0.003l-0.062-0.006l-0.051-0.026l-0.067-0.104l-0.057-0.048l-0.063-0.035
	l-0.114-0.013l-0.294-0.117l-0.032,0.106l-0.11,0.056l-0.046,0.033l-0.097,0.041l-0.043,0.03l-0.041,0.063l-0.046,0.136l-0.031,0.06
	l-0.045,0.037l-0.063-0.015l-0.044,0.045l-0.017,0.044l-0.002,0.045l0.004,0.046l-0.004,0.049l-0.031,0.146l-0.035,0.048
	l-0.183,0.029l-0.03,0.022l-0.044,0.073l-0.024,0.028l-0.023,0.008l-0.049-0.007l-0.02,0.004l-0.153,0.131l-0.018,0.024l-0.03,0.066
	l-0.021,0.029l-0.035,0.02l-0.021-0.017l-0.016-0.026l-0.018-0.005l-0.057,0.022l-0.047,0.015l-0.028,0.03l-0.002,0.076
	l-0.012,0.068l-0.027,0.003l-0.035-0.019l-0.038,0.007l-0.019,0.031l-0.022,0.078l-0.007,0.02l-0.06,0.035l-0.109,0.045
	l-0.064,0.041l-0.098,0.111l-0.014,0.112l0.04,0.12l0.136,0.276l0.308,0.427l0.044,0.042l0.046,0.028l0.063,0.021l0.058,0.001
	l0.05-0.008l0.038,0.01l0.03,0.063l0.024,0.094l-0.033,0.024l-0.056,0.002l-0.046,0.028l-0.023,0.055l-0.014,0.094l-0.02,0.057
	l-0.038,0.032l-0.047,0.014l-0.038,0.03l-0.006,0.082l0.023,0.056l0.084,0.067l0.025,0.051l-0.317-0.119l-0.553-0.406l-0.488-0.364
	l-0.519-0.386l-0.298-0.221l-0.146-0.146l-0.034-0.16l0.053-0.099l0.257-0.191l0.018-0.028l0.02-0.068l0.024-0.032h0.015
	l0.061,0.003l0.025-0.008l0.275-0.156l0.063-0.052l0.018-0.073l-0.044-0.113l-0.007-0.026l-0.002-0.063l-0.007-0.022l-0.03-0.032
	l-0.082-0.045l-0.04-0.027l-0.063-0.064l-0.043-0.06l-0.131-0.304l-0.034-0.061l-0.053-0.057l-0.062-0.041l-0.104-0.019
	l-0.063-0.022l-0.068-0.033l-0.026-0.02l-0.058-0.091l-0.171-0.103l-0.208,0.031l-0.476,0.169l-0.036,0.046l-0.053,0.137
	l-0.042,0.063l-0.039,0.01l-0.038-0.003l-0.037,0.026l-0.014,0.035l-0.012,0.087l-0.043,0.168l-0.02,0.129l-0.031,0.118
	l-0.064,0.097l-0.082,0.048l-0.622,0.221l-0.505,0.177l-0.172,0.028l-0.159-0.021l-0.417-0.154l-0.334-0.123l-0.494-0.184
	l-0.156-0.059l-0.448-0.167l-0.362-0.134l-0.346-0.129l-0.168-0.013l-0.353,0.124l-0.161-0.022l-0.066-0.065l-0.043-0.096
	l-0.029-0.099l-0.096-0.341l-0.144-0.503l-0.127-0.452l0.003-0.242l0.106-0.027l0.432-0.005l0.277-0.045h0.12l0.029-0.025
	l-0.002-0.204l0.006-0.07l0.018-0.039l0.095-0.012l0.1,0.041l0.105,0.007l0.115-0.115l-0.123-0.071l-0.09-0.022l-0.086,0.015
	l-0.212,0.063l-0.094,0.009l-0.596-0.028l-0.194-0.056l-0.134-0.122l-0.092-0.229l-0.257-0.139l-0.306-0.052l-0.243,0.025
	l-0.175,0.1l-0.087,0.033l-0.108-0.009l-0.074-0.031l-0.013-0.035l0.011-0.029l-0.003-0.021l-0.014-0.031l-0.01-0.043l-0.024-0.031
	l-0.052,0.012l-0.633,0.306l-0.14,0.008l-0.103-0.104l-0.002-0.09l0.016-0.132l0.002-0.113l-0.046-0.036l-0.103,0.004l-0.071-0.039
	l-0.069-0.048l-0.193-0.043l-0.094-0.041l-0.027-0.022l-0.055-0.039l-0.067-0.081l-0.05-0.029l-0.12-0.026l-0.04-0.025l-0.02-0.055
	l0.015-0.115l-0.011-0.048l-0.069-0.037l-0.097-0.012l-0.096-0.023l-0.063-0.077l-0.036-0.09l-0.063-0.023l-0.072-0.006
	l-0.059-0.035l-0.014-0.048l0.017-0.102l-0.004-0.037l-0.032-0.036l-0.035-0.017l-0.037-0.012l-0.038-0.023l-0.089-0.071
	l-0.036-0.052l0.002-0.071l0.063-0.244l0.006-0.072l-0.019-0.176l0.004-0.056l0.029-0.083l-0.008-0.046l-0.021-0.025l-0.285-0.207
	l-0.874-0.376l-0.084-0.036l-0.213-0.194l-0.1-0.255l0.059-1.115l-0.075-0.146l-0.221-0.245l-0.033-0.154l0.037-0.107l0.051-0.086
	l0.023-0.09l-0.043-0.114l-0.098-0.251l-0.033-0.131l0.023-0.071l0.676-0.101l0.162-0.07l0.143-0.101l0.276-0.248l0.147-0.072
	l0.814-0.038l0.064-0.035l0.121-0.091l0.12-0.115l0.123-0.116l0.718-0.34l0.121-0.086l0.099-0.11l0.286-0.567l0.222-0.442
	l0.271-0.54l0.229-0.453l0.104-0.138l0.146-0.11l0.342-0.163l0.447-0.213l0.447-0.214l0.446-0.213l0.445-0.213l0.445-0.213
	l0.444-0.215l0.444-0.213l0.443-0.213l0.443-0.213l0.44-0.211l0.442-0.213l0.439-0.213l0.441-0.213l0.439-0.213l0.44-0.213
	l0.438-0.213l0.225-0.109l0.005-0.079l-0.057-0.186l-0.019-0.099l-0.004-0.056l0.025-0.039l0.067-0.052l0.18-0.084l0.575-0.144
	l0.906-0.224l0.496-0.122l0.028-0.003l0.089-0.018l-0.137-0.6l0.003-0.156l0.317-0.437l0.224-0.579l0.136-0.17l0.336-0.234
	l0.14-0.175l0.067-0.199l0.003-0.035l0.011-0.171l-0.024-0.209l-0.112-0.505v-0.105l0.033-0.145l0.173-0.396v-0.015l-0.002-0.018
	l-0.011-0.029l-0.002-0.008l-0.002-0.007l-0.005-0.005l-0.006-0.006l-0.102-0.121l-0.062-0.129l-0.024-0.146l0.07-1.23l0.031-0.143
	l0.055-0.136l0.077-0.133l0.162-0.193l0.043-0.092l-0.001-0.131l-0.176-0.544l-0.136-0.423l-0.213-0.657l-0.1-0.31l-0.002-0.048
	l0.026-0.124l0.003-0.061l-0.177-0.471l-0.022-0.091l-0.001-0.097l0.029-0.032l0.047-0.022l0.045-0.073l-0.165-0.513l-0.1-0.307
	l-0.193-0.604l-0.194-0.603l-0.193-0.6l-0.193-0.601l-0.191-0.598l-0.193-0.6l-0.107-0.337l-0.084-0.26l-0.191-0.599l-0.191-0.595
	l-0.191-0.595l-0.191-0.594l-0.187-0.582l-0.003-0.01l-0.191-0.593l-0.19-0.591l-0.189-0.592l-0.19-0.59l0.765-0.52l0.761-0.521
	l0.759-0.521l0.757-0.518l0.398-0.274l0.873-0.603l0.872-0.601l0.394-0.273l0.511-0.354l0.165-0.158l0.139-0.214l0.228-0.462
	l0.182-0.369l0.182-0.369l0.181-0.369l0.18-0.368l0.181-0.367l0.179-0.366l0.179-0.367l0.18-0.367l0.176-0.365l0.179-0.366
	l0.178-0.365l0.176-0.365l0.177-0.363l0.176-0.364l0.176-0.364l0.176-0.362l0.158-0.334l0.106-0.213l0.219-0.431l0.202-0.396
	l0.201-0.395l0.2-0.394l0.2-0.395l0.276-0.546l0.413-0.587l0.214-0.304l0.213-0.304l0.214-0.305l0.212-0.304l0.212-0.303
	l0.212-0.304l0.211-0.303l0.211-0.301l0.211-0.303l0.211-0.303l0.21-0.303l0.209-0.301l0.209-0.301l0.21-0.302l0.207-0.301
	l0.208-0.302l0.207-0.301l0.208-0.3l0.207-0.3l0.206-0.301l0.206-0.299l0.205-0.3l0.206-0.3l0.205-0.298l0.203-0.3l0.205-0.299
	l0.203-0.298l0.203-0.299l0.203-0.298l0.203-0.297l0.202-0.299l0.202-0.297l0.201-0.298l0.2-0.297l0.2-0.298l0.201-0.295l0.2-0.299
	l0.2-0.295l0.198-0.296l0.199-0.297l0.198-0.294l0.197-0.297l0.199-0.296l0.196-0.294l0.197-0.296l0.197-0.296l0.196-0.294
	l0.195-0.294l0.197-0.294l0.195-0.294l0.193-0.295l0.195-0.292l0.193-0.295l0.195-0.294l0.191-0.294l0.193-0.293l0.193-0.293
	l0.191-0.291l0.192-0.294l0.192-0.291l0.19-0.293l0.19-0.292l0.191-0.292l0.19-0.292l0.372-0.071l0.373-0.072l0.373-0.072
	l0.372-0.072l0.372-0.071l0.372-0.073l0.373-0.072l0.371-0.073l0.372-0.074l0.371-0.073l0.372-0.074l0.371-0.074l0.371-0.074
	l0.372-0.075l0.371-0.074l0.371-0.076l0.426-0.085l0.558,0.046l0.297,0.094l0.664,0.212l0.665,0.209l0.664,0.208l0.666,0.208
	l0.242,0.075l0.068,0.003l0.057-0.035l0.18-0.251l0.486-0.679l0.484-0.679l0.481-0.676l0.48-0.677l0,0L1114.336,643.335z"/></svg>