<?xml version="1.0" encoding="utf-8"?>
<!-- Generator: Adobe Illustrator 15.0.0, SVG Export Plug-In . SVG Version: 6.00 Build 0)  -->
<!DOCTYPE svg PUBLIC "-//W3C//DTD SVG 1.1//EN" "http://www.w3.org/Graphics/SVG/1.1/DTD/svg11.dtd">
<svg version="1.1" id="Ebene_1" xmlns="http://www.w3.org/2000/svg" xmlns:xlink="http://www.w3.org/1999/xlink" x="0px" y="0px"
	 width="1920px" height="1080px" viewBox="0 0 1920 1080" enable-background="new 0 0 1920 1080" xml:space="preserve">

<path fill="#F4E0B6" stroke="#FFFFFF" d="M1333.863,729.044l-0.033,0.074l-0.061,0.001l-0.023-0.057l0.023-0.076l0.048-0.07
	l0.045-0.04l0.01,0.071L1333.863,729.044z M1338.706,726.393l-0.021,0.092l-0.024-0.084l0.021-0.033L1338.706,726.393z
	 M1333.339,727l-0.053,0.06l-0.122,0.224l-0.071,0.1l-0.359,0.164l-0.347,0.329l-0.309,0.172l-0.246-0.307l0.159,0.103l0.232-0.034
	l0.219-0.124l0.119-0.173l0.086-0.036l0.115-0.11l0.104-0.125l0.047-0.08l0.044,0.026l0.02-0.057l0.057,0.003l0.058-0.013
	l-0.012-0.041l-0.06-0.011l-0.045-0.038l-0.035-0.057l-0.032-0.069l0.265-0.002l0.124,0.03l0.061,0.03L1333.339,727z
	 M1332.808,726.954l-0.053,0.128l-0.144,0.094l-0.16,0.05l-0.096-0.008l-0.05,0.068l-0.114,0.035l-0.05,0.05l-0.015-0.015
	l-0.002-0.013l-0.007-0.006l-0.026,0.01l-0.01-0.025l0.008-0.01l0.016-0.004l0.143-0.15l0.19-0.078l0.202-0.055L1332.808,726.954z
	 M1381.406,688.565l-0.098,0.329l0.002-0.378l0.036-0.164l0.093-0.114l0.002,0.156L1381.406,688.565z M1361.369,697.215l0.045,0.054
	l-0.021,0.004l-0.011-0.013l-0.005-0.02L1361.369,697.215z M1374.585,682.523l-0.005,0.029l-0.008-0.027l0.002-0.082
	L1374.585,682.523z M1362.392,685.511l0.013,0.039l-0.03-0.02l-0.021-0.023l-0.04-0.062l0.059,0.042L1362.392,685.511z
	 M1373.11,674.384l-0.008,0.005l-0.029-0.02l-0.018-0.008l-0.002-0.015l-0.009-0.007l0.001-0.011l0.012-0.005h0.014l0.024,0.005
	l0.017,0.017l-0.001,0.023L1373.11,674.384z M1372.906,674.385l-0.003,0.013l-0.019,0.001l-0.03,0.01l-0.021-0.007l-0.012-0.011
	l0.01-0.021l0.022-0.001l0.03,0.01L1372.906,674.385z M1373.578,673.747l0.018,0.005l0.01-0.013h0.015l0.026,0.039l-0.002,0.022
	l-0.018,0.011l-0.027,0.005l-0.021-0.012l-0.023,0.002l-0.008-0.029l0.01-0.02L1373.578,673.747z M1373.669,673.694l-0.008,0.021
	h-0.017l-0.022-0.004l-0.015-0.014l0.002-0.017l0.01-0.003l0.018,0.007l0.021-0.004L1373.669,673.694z M1373.576,673.521
	l0.029-0.007l0.023-0.013l0.014,0.002l-0.007,0.035l-0.013,0.039l-0.035,0.039l-0.02,0.031l-0.011,0.008l-0.007-0.02l-0.002-0.039
	l-0.008-0.022l0.004-0.019l0.008-0.013L1373.576,673.521z M1376.198,672.135l-0.028,0.019l-0.034,0.007l-0.044-0.023l-0.008-0.021
	l0.016-0.02l0.022-0.014h0.026l0.038,0.028L1376.198,672.135z M1373.338,673.84l-0.001,0.014l0.045-0.026l0.086,0.067l0.15,0.041
	l0.128,0.03l0.088,0.048l-0.004,0.213l0.03,0.029l0.048,0.15l-0.046,0.042l-0.002,0.085l0.079,0.109l0.028,0.09l0.052,0.02
	l0.038,0.087l-0.107,0.055l-0.102-0.009l-0.107-0.117l-0.04-0.063l-0.057,0.005l-0.035,0.053l-0.049-0.003l0.003-0.141l0.098-0.05
	l0.032-0.057l-0.051-0.041l-0.035-0.028l-0.004-0.063l-0.031-0.034l-0.059,0.022l-0.077-0.069l-0.073-0.063l-0.081,0.031
	l-0.116-0.02l-0.06-0.01l-0.044,0.022l-0.047,0.003l-0.002-0.029l0.029-0.022l-0.02-0.015l-0.051,0.007l-0.055,0.045l-0.053,0.009
	l-0.039-0.013l0.004-0.028l0.047-0.02l0.013-0.022l-0.024-0.026l0.063-0.132l0.031-0.036l0.07-0.044l0.058-0.065l0.017-0.068
	l0.011-0.067l0.027-0.043v-0.092l-0.027-0.116l0.037-0.035l0.042-0.017l0.044-0.014l0.066,0.036l0.035,0.073l-0.018,0.043
	l-0.004,0.083l0.011,0.056l0.01,0.083l0.023,0.022L1373.338,673.84z M1372.011,673.579l-0.102,0.083l-0.104-0.073l-0.072-0.146
	l-0.002-0.142l0.104-0.011l0.123,0.032l0.077,0.091L1372.011,673.579z M1374.107,671.367l-0.018,0.01l-0.031-0.014l0.017-0.029
	l0.013,0.007L1374.107,671.367z M1375.261,671.088l-0.002,0.052l-0.044,0.001l-0.065-0.035l-0.031-0.065l0.012-0.079l0.004-0.062
	l0.078,0.01l0.058,0.061l0.052,0.044l-0.034,0.029L1375.261,671.088z M1375.671,670.779l0.004,0.039l-0.024-0.003l-0.018-0.04
	l0.003-0.041l0.032,0.01L1375.671,670.779z M1374.167,671.189l-0.03,0.02l-0.007-0.029l0.014-0.023l0.021-0.003L1374.167,671.189z
	 M1375.437,670.809l-0.032,0.019l-0.038-0.024l-0.053-0.04l0.002-0.036l0.029-0.002l0.072,0.042L1375.437,670.809z
	 M1374.604,670.895l0.06,0.042l0.052-0.042l0.076-0.01l0.074,0.05l-0.092,0.031l-0.002,0.052l0.014,0.061l-0.039,0.062l-0.071,0.018
	l-0.09-0.01l-0.069-0.039l-0.051-0.061l-0.082,0.011l-0.072,0.011l-0.054-0.029l-0.016-0.039l-0.062-0.076l0.067-0.048l0.039-0.018
	l0.042-0.014l0.102,0.05l0.086,0.009L1374.604,670.895z M1375.313,670.599l-0.021,0.007l-0.032-0.037l-0.009-0.031l0.02-0.004
	l0.016,0.035L1375.313,670.599z M1374.492,670.791l0.003,0.02l-0.075-0.003l-0.063-0.031l0.012-0.025l0.041-0.011l0.096-0.021
	l0.026-0.004l-0.001,0.029l-0.054,0.015L1374.492,670.791z M1374.042,670.451l-0.016,0.021l-0.044,0.009l-0.032,0.001l0.004-0.016
	l0.035-0.013l0.022-0.003H1374.042z M1373.315,668.102l0.066,0.107l-0.042,0.012l-0.055-0.05L1373.315,668.102z"/></svg>