<?xml version="1.0" encoding="utf-8"?>
<!-- Generator: Adobe Illustrator 15.0.0, SVG Export Plug-In . SVG Version: 6.00 Build 0)  -->
<!DOCTYPE svg PUBLIC "-//W3C//DTD SVG 1.1//EN" "http://www.w3.org/Graphics/SVG/1.1/DTD/svg11.dtd">
<svg version="1.1" id="Ebene_1" xmlns="http://www.w3.org/2000/svg" xmlns:xlink="http://www.w3.org/1999/xlink" x="0px" y="0px"
	 width="1920px" height="1080px" viewBox="0 0 1920 1080" enable-background="new 0 0 1920 1080" xml:space="preserve">

<path fill="#F4E0B6" stroke="#FFFFFF" d="M766.441,588.705l0.006,0.021l0.019,0.026l-0.015,0.004l-0.025-0.021l-0.032-0.013
	l-0.027-0.02l0.002-0.025l0.015-0.003l0.022,0.023l0.021,0.005L766.441,588.705z M767.134,588.711l-0.044,0.02l-0.021,0.032
	l-0.008-0.021l-0.011-0.032l-0.036-0.034l-0.023,0.008l-0.006-0.036l-0.08,0.017l-0.009,0.038l0.025,0.029l0.042,0.052l-0.083-0.006
	l-0.083,0.006l-0.107,0.014l-0.062,0.002l-0.052,0.023l-0.095,0.021l-0.107-0.005l-0.097-0.015l-0.047-0.03l-0.036-0.021
	l-0.031-0.063l0.01-0.064l0.014-0.046l0.021,0.031l0.012-0.031l0.032-0.029l0.004-0.046l0.019,0.022l0.024-0.016l0.002,0.03
	l0.008,0.031l-0.042,0.009l-0.034,0.037l-0.015,0.009l0.008,0.022l0.054,0.04l-0.006,0.013l-0.043-0.03l-0.019,0.022l0.004,0.04
	l0.035,0.021l0.055,0.006l0.028-0.02l0.031,0.015l0.072-0.003l0.095-0.002l0.014-0.01l-0.052-0.022l-0.027-0.035l-0.004-0.055
	l0.018-0.007l0.088,0.071l0.075,0.005l0.039,0.009l0.058-0.02l0.011,0.013l0.058,0.029l0.027-0.014l0.041-0.01l-0.01-0.038
	l-0.044-0.009l-0.038,0.005l-0.019,0.02l-0.013-0.012l0.002-0.021l0.041-0.031l0.064-0.007l0.054-0.028l0.07-0.005l0.101-0.019
	L767.134,588.711z"/></svg>