<?xml version="1.0" encoding="utf-8"?>
<!-- Generator: Adobe Illustrator 15.0.0, SVG Export Plug-In . SVG Version: 6.00 Build 0)  -->
<!DOCTYPE svg PUBLIC "-//W3C//DTD SVG 1.1//EN" "http://www.w3.org/Graphics/SVG/1.1/DTD/svg11.dtd">
<svg version="1.1" id="Ebene_1" xmlns="http://www.w3.org/2000/svg" xmlns:xlink="http://www.w3.org/1999/xlink" x="0px" y="0px"
	 width="1920px" height="1080px" viewBox="0 0 1920 1080" enable-background="new 0 0 1920 1080" xml:space="preserve">

<path fill="#222222" d="M1150.937,560.81l-0.005,0.045l-0.083-0.004l-0.002,0.03l-0.003,0.039l-0.02,0.053l-0.035,0.037
	l-0.033-0.007l-0.034-0.001l-0.024,0.047l-0.013,0.042l0.013,0.051l0.089-0.019l0.041,0.01l0.053,0.079l0,0l0.052,0.006l0.06-0.034
	l0.042,0.062l-0.02,0.024l-0.014,0.059l0.033-0.002l0.047-0.05l0.092-0.039v0.049l-0.007,0.048l-0.028,0.036l-0.056,0.014
	l-0.139-0.021l-0.064,0.004l-0.075,0.032l0.009-0.006l0.008-0.01l0.012-0.013l0.005-0.003l-0.022-0.01l-0.02,0.002l-0.011,0.008
	l-0.014,0.009l-0.021-0.006l-0.028,0.012l-0.013,0.01l-0.003,0.01l0.026-0.002l0.016-0.002l0.015,0.011l0.013-0.01l0.016-0.007
	l0.011,0.008l0,0l-0.069,0.031l-0.123,0.097l-0.034,0.049l-0.034-0.056l0.031-0.009l-0.018-0.05l-0.06,0.012l-0.024-0.015
	l0.009-0.041l-0.026-0.02l-0.068,0.011l-0.028-0.005l0,0l-0.019-0.003l-0.029-0.031l-0.009-0.043l0.04-0.041l0.011-0.053l0.028-0.02
	l0.023,0.005l0.031,0.095l0.018,0.05l0.024-0.033l0.025-0.097h0.117l0.007-0.051l0.037-0.016l0.018-0.023l-0.02-0.052l0.041-0.104
	l0.04-0.012l0.041,0.009l0.027-0.028l0.019-0.058l-0.003-0.033l0.008-0.023l-0.039-0.02l-0.037-0.054l-0.033-0.077l0.039-0.026
	l0.028,0.025l0.024-0.009l0.038,0.023l0.015,0.006l0.014,0.02l0.023-0.016l0.049,0.021l-0.002,0.042l-0.012,0.021L1150.937,560.81
	L1150.937,560.81z M1150.632,561.379l0.011-0.018l-0.024-0.036l-0.02,0.01l-0.011,0.016l0.006,0.016l0.009,0.02l0.009,0.007h0.012
	L1150.632,561.379z"/></svg>