<?xml version="1.0" encoding="utf-8"?>
<!-- Generator: Adobe Illustrator 15.0.0, SVG Export Plug-In . SVG Version: 6.00 Build 0)  -->
<!DOCTYPE svg PUBLIC "-//W3C//DTD SVG 1.1//EN" "http://www.w3.org/Graphics/SVG/1.1/DTD/svg11.dtd">
<svg version="1.1" id="Ebene_1" xmlns="http://www.w3.org/2000/svg" xmlns:xlink="http://www.w3.org/1999/xlink" x="0px" y="0px"
	 width="1920px" height="1080px" viewBox="0 0 1920 1080" enable-background="new 0 0 1920 1080" xml:space="preserve">

<path fill="#F4E0B6" stroke="#FFFFFF" d="M1099.894,562.48l-0.006,0.019l-0.01-0.02L1099.894,562.48z M1100.868,554.742l0.489,0.232
	l0.152,0.023l0.098,0.091l0.067,0.042l0.019,0.01l0.093,0.029l0.346,0.045h0.034l0.178-0.004l0.096-0.028l0.02,0.005l0.02,0.011
	l0.021,0.01l0.022-0.004l0.128-0.076l0.03-0.012l0.021,0.008l0.021,0.022l0.024,0.02l0.032,0.007l0.021-0.013l0.034-0.039
	l0.017-0.007l0.045,0.004l0.025,0.012l0.021,0.023v0.002l0.031,0.049h0.002l0.044,0.03l0.03,0.038l0.056,0.09l0.07,0.077
	l0.079,0.071l0.02,0.025l0.029,0.058l0.023,0.025l0.007,0.001l0.013,0.006h0.044l0.021,0.008l0.043,0.035l0.103,0.116l0.141,0.111
	l0.035,0.02l0.038-0.003l0.07-0.035l0.038-0.002l0.095,0.054l0.053,0.09l0.018,0.106l-0.004,0.081l-0.003,0.056l0.012,0.066
	l0.002,0.023l-0.011,0.019l-0.037,0.037l-0.007,0.021l0.011,0.052l0.02,0.058l0.028,0.058l0.033,0.049l0.021,0.017l0.051,0.028
	l0.02,0.022l0.011,0.023l0.021,0.071l0.034,0.058l0.154,0.265l0.015,0.017l0.038,0.031l0.017,0.02l0.003,0.022l-0.011,0.061
	l0.004,0.027l0.051,0.079l0.06,0.072l0.028,0.077l-0.039,0.093l-0.272,0.122l-0.076,0.062l-0.041,0.033l-0.027,0.077l-0.016,0.045
	l0.032,0.122l0.004,0.015l0.155,0.312l0.054,0.164l0.009,0.095l-0.019,0.041l-0.049,0.001l-0.075-0.018l-0.039-0.019l-0.029-0.022
	l-0.024-0.012l-0.006-0.002l-0.037,0.01l-0.037,0.035l0.005,0.034l0.021,0.032l0.011,0.035l-0.015,0.092l-0.027,0.068l-0.008,0.01
	l-0.035,0.042l-0.062,0.038l-0.102,0.036l-0.047,0.025l-0.046,0.047l-0.035,0.032l-0.043,0.03l-0.087,0.042l-0.041,0.005
	l-0.082-0.007l-0.035,0.002l-0.037,0.017l-0.066,0.053l-0.054,0.031l-0.016,0.028l-0.02,0.008l-0.013-0.01l-0.032-0.049
	l-0.016-0.012l-0.03,0.008l-0.095,0.035l-0.129,0.023l-0.035,0.014l-0.024,0.01l-0.063,0.041l-0.05,0.065l-0.053,0.151l-0.049,0.055
	l-0.027,0.003h-0.123l-0.013-0.009l-0.016-0.015l-0.02-0.016l-0.025,0.004l-0.008,0.014l-0.012,0.05l-0.009,0.018l-0.156,0.154
	l-0.062,0.094l-0.017,0.035l-0.028,0.062l-0.009,0.038l0.008,0.043l0.031,0.064l0.007,0.013l0.011,0.032l-0.008,0.081l-0.05,0.156
	l-0.001,0.094h-0.001h0.001l-0.001,0.001l-0.067,0.135l-0.01,0.051l0.012,0.034l0.022,0.042l0.013,0.051l-0.018,0.058l-0.021,0.019
	l-0.051,0.044l-0.17,0.045l-0.063,0.081l0.002,0.019l0.021,0.054l0.001,0.027l-0.012,0.013l-0.043,0.02l-0.016,0.012l-0.018,0.039
	l-0.031,0.104l-0.018,0.03l-0.09,0.027l-0.19-0.049l-0.013,0.003l-0.24,0.087l-0.07,0.039l-0.053,0.067l-0.05,0.162l-0.031,0.051
	l-0.088,0.072l-0.101,0.053l-0.051,0.014l-0.118,0.033l-0.079,0.035l-0.161,0.157l-0.008-0.028l-0.148-0.161l-0.059-0.042
	l-0.13-0.148l-0.026-0.01l-0.023,0.007l-0.021-0.003l-0.024-0.03l-0.075-0.045l-0.017-0.014l-0.02-0.003l-0.019,0.006l-0.019,0.017
	l0.01,0.001l0.007-0.006l0.006,0.003l0.009,0.019l-0.154,0.021l-0.063,0.027l-0.04,0.069l-0.037,0.139v0.063l0.033,0.054
	l0.052,0.031l0.038-0.004l0.036-0.025l0.115,0.029l0.038-0.007l0.037,0.03l-0.007,0.093l-0.022,0.031l-0.021-0.02l-0.067-0.021
	l-0.002-0.002v0.001l-0.005-0.001l-0.169,0.032l-0.167,0.057l-0.002,0.003l-0.049,0.042l-0.055,0.134l-0.042,0.047l-0.082,0.021
	l-0.045-0.01l-0.024-0.006l0.01-0.01l0.037-0.091l0.074-0.063l0.022-0.038l-0.014-0.026l-0.046-0.049l-0.02-0.093l-0.012-0.106
	l-0.024-0.088l-0.121-0.193l-0.041-0.088l-0.005-0.09l-0.045,0.016l-0.066,0.003l-0.063-0.009l-0.035-0.021l-0.046-0.059
	l-0.051-0.022l-0.102-0.004l-0.165,0.061l-0.033,0.042l0.007,0.043l0.117,0.346l-0.006,0.003l-0.036,0.02l-0.043,0.018l-0.027,0.001
	l-0.075,0.001l-0.049-0.042l-0.034-0.069l-0.06-0.08l-0.094-0.067l-0.188-0.098l-0.089-0.08l-0.158-0.187l-0.077-0.107l-0.003-0.01
	l-0.029-0.082l0.05-0.008l0.029-0.048l0.012-0.067l0.001-0.068l-0.013-0.074l-0.027-0.054l-0.008-0.007l-0.035-0.032l-0.062-0.032
	l-0.029-0.003l-0.052,0.018l-0.03-0.008l-0.018-0.018l-0.039-0.061l-0.024-0.025l-0.012-0.008l-0.063-0.045l-0.035-0.012h-0.04
	l-0.05-0.046l-0.047-0.11l-0.04-0.05l0.127-0.104l0.033-0.039l0.027-0.045l0.012-0.037l-0.006-0.048l-0.004-0.009l-0.015-0.026
	l-0.155-0.15l-0.059-0.075l-0.17-0.271l-0.013-0.045l-0.003-0.064l0.009-0.052l0.033-0.102l0.001-0.045l-0.016-0.024l-0.034-0.053
	l-0.074-0.086l-0.011-0.022l-0.03-0.067l0.051-0.082l0.104,0.038l0.046,0.001l0.045-0.026l0.013-0.029v-0.076l0.013-0.022
	l0.036,0.003l0.096,0.051l0.039,0.005l0.051-0.053l0.014-0.055l0.011-0.042l0.005-0.109l-0.007-0.088l-0.007-0.015l-0.031-0.087
	l-0.028-0.03l-0.09-0.105l-0.042-0.091l-0.065-0.21l-0.016-0.1l0.021-0.098l0.053-0.081l0.222-0.231l0.169-0.175l0.068-0.073
	l0.053-0.074l0.017-0.051l0.047-0.146l0.046-0.081l0.022-0.01l0.021-0.006l0.051,0.002l0.154,0.027l0.155,0.05l0.088,0.053
	l0.057,0.042l0.018,0.006l0.037,0.013l0.026-0.008l0.137-0.039l0.027-0.022l-0.01-0.03l-0.004-0.009l-0.044-0.077l-0.022-0.03
	l-0.02-0.017l-0.018-0.019l-0.015-0.036l0.032-0.35l0.011-0.026l0.01-0.023l0.049-0.031l0.119-0.013l0.03-0.02l-0.018-0.023
	l-0.039-0.023l-0.022-0.033l0.034-0.052l0.038-0.005l0.042,0.013l0.033-0.008l0.005-0.022l0.009-0.047l0.07,0.008l0.059-0.032
	l0.104-0.095h0.009h0.04l0.141-0.078l0.115-0.024l0.051-0.023h0.001l0.027-0.051l0.015-0.071l0.025-0.043l0.188-0.32l0.051-0.043
	l0.114-0.059l0.018-0.016l0.052-0.138l0.022-0.03l0.04-0.012l0.195-0.001l0.112-0.016l0.054-0.021l0.047-0.019l0.09-0.071
	l0.304-0.377l0.032-0.119l0.022-0.019l0.024,0.012l0.037,0.064l0.022,0.023l0.069,0.028l0.064,0.01l0.062-0.007L1100.868,554.742z"
	/></svg>