<?xml version="1.0" encoding="utf-8"?>
<!-- Generator: Adobe Illustrator 15.0.0, SVG Export Plug-In . SVG Version: 6.00 Build 0)  -->
<!DOCTYPE svg PUBLIC "-//W3C//DTD SVG 1.1//EN" "http://www.w3.org/Graphics/SVG/1.1/DTD/svg11.dtd">
<svg version="1.1" id="Ebene_1" xmlns="http://www.w3.org/2000/svg" xmlns:xlink="http://www.w3.org/1999/xlink" x="0px" y="0px"
	 width="1920px" height="1080px" viewBox="0 0 1920 1080" enable-background="new 0 0 1920 1080" xml:space="preserve">

<path fill="#F4E0B6" stroke="#FFFFFF" d="M1000.154,549.67l-0.03,0.023l-0.044-0.014l-0.007-0.067l0.022-0.043l0.025,0.014
	l0.037,0.042L1000.154,549.67z M999.988,549.513l-0.014,0.038l-0.033-0.012l-0.034-0.053l-0.011-0.039l0.025,0.001l0.02,0.012
	l0.012,0.005l0.022,0.012L999.988,549.513z M1015.829,543.267l0.531,0.104l0.079-0.016l0.035,0.001l0.045,0.022l0.005,0.012
	l0.007,0.039l0.005,0.013l0.009,0.003l0.026-0.012l0.01,0.002l0.09,0.085l0.009,0.036l-0.014,0.002l-0.007,0.01l-0.004,0.014
	l-0.008,0.014l-0.111,0.054l-0.046,0.031l-0.07,0.089l-0.012,0.027l-0.003,0.024l0.027,0.103l0.012,0.052l-0.006,0.025l-0.33,0.16
	l-0.125-0.013l-0.487-0.209l-0.029-0.026l-0.125-0.054l-0.04-0.008l-0.117,0.034l-0.049,0.028l-0.049,0.044l0.046-0.146l0.101-0.123
	l0.249-0.171l-0.003,0.019v0.032l-0.003,0.02l0.077-0.023l0.06-0.069l0.077-0.146l0.067-0.065L1015.829,543.267z M1016.95,543.002
	l0.008,0.035l-0.269,0.009l-0.009-0.031l0.064-0.04l0.048-0.15l0.041-0.004l0.037,0.021l0.016,0.027l-0.006,0.027l-0.022,0.022
	l0.009,0.031l0.021,0.013l0.037,0.026L1016.95,543.002z M1004.438,542.963l-0.019,0.026l-0.034-0.03l-0.018-0.064l-0.001-0.063
	l0.014-0.011l0.022,0.033l0.009,0.02l0.012,0.031L1004.438,542.963z M1022.097,539.187l-0.067,0.046l-0.369,0.041l-0.066-0.011
	l-0.069-0.041l-0.062-0.058l-0.045-0.05l0.005-0.136l0.014-0.034l0.038-0.018l0.417,0.053l0.035,0.01l0.039,0.02l0.085,0.055
	l0.048,0.064L1022.097,539.187z M1002.261,532.416l0.036-0.003l0.056-0.012l0.028,0.017l0.058,0.039l0.053,0.048l0.044,0.056
	l0.025,0.064l0.02,0.026l0.035,0.027l0.025,0.036l-0.006,0.055l-0.024,0.016l-0.033-0.01l-0.077-0.046l-0.09-0.106l-0.037-0.032
	l-0.03-0.004l-0.091,0.017l-0.022-0.008l-0.074-0.082l-0.006-0.034l0.069-0.078L1002.261,532.416z M1003.724,532.365l0.042,0.005
	l0.04-0.01l0.067-0.028l0.039-0.01l0.016-0.013l0.018-0.052l0.017-0.014l0.022,0.004l0.045,0.021l0.016,0.004l0.092-0.014
	l0.046,0.004l0.046,0.022l-0.052,0.074l-0.067,0.205l-0.068,0.05l-0.074,0.022l-0.073,0.046l-0.063,0.063l-0.048,0.071l-0.009,0.017
	l-0.003,0.013l0.003,0.021l0.007,0.036l0.005,0.04l-0.008,0.005l-0.015-0.003l-0.097,0.087l-0.037,0.064l-0.179,0.136l-0.031,0.013
	l-0.041-0.001l-0.089-0.026l0.001,0.011l-0.016,0.02l-0.023,0.013l-0.021-0.006l-0.012-0.026l-0.008-0.046l-0.003-0.042l0.003-0.02
	l0.021-0.024l0.027-0.05l0.007-0.048l-0.039-0.018l-0.043,0.028l-0.05,0.103l-0.044,0.022l-0.006-0.016l-0.123-0.074l-0.011-0.001
	l-0.024,0.008l-0.01-0.001l-0.005-0.014l-0.005-0.041l-0.005-0.013l-0.002-0.016l-0.011-0.035l-0.019-0.035l-0.076-0.05
	l-0.147-0.182l-0.07-0.061l-0.009-0.036l0.009-0.052l-0.01-0.075l-0.023-0.108l-0.02-0.167l-0.021-0.07l-0.049-0.07l0.049-0.044
	l0.381-0.172l0.038-0.006l0.229,0.011l0.06-0.004l0.135,0.05l0.038,0.024l0.027,0.057l0.02,0.058l0.018,0.026v0.013l0.045,0.024
	l0.052,0.02l0.017-0.001l0.008,0.027l0.004,0.034l0.006,0.029l0.015,0.011l0.005,0.011l0.063,0.05l0.029,0.055l0.016,0.042
	L1003.724,532.365z M994.702,523.305l0.081,0.017l0.105-0.082l0.082,0.013l0.337,0.14l0.052,0.01l0.067-0.016l0.111-0.056
	l0.06-0.015l0.127,0.012l0.067,0.024l0.034,0.036l0.027,0.011l0.141,0.112l0.041,0.051l0.043,0.284l-0.005,0.084l-0.025,0.112
	l0.033,0.044l0.062,0.003l0.059-0.008l0.042,0.003l0.05,0.016l0.047,0.029l0.032,0.045l0.012,0.091l-0.021,0.192l0.013,0.034
	l0.096,0.007l0.091,0.035l0.087,0.06l0.081,0.082l0.021,0.034l0.037,0.079l0.026,0.037l0.024,0.021l0.057,0.036l0.029,0.024
	l0.038,0.037l0.038,0.049l0.033,0.06l0.024,0.072l0.06,0.137l0.089,0.04l0.1,0.028l0.096,0.099l0.02-0.001l-0.078-0.104
	l-0.239-0.182l0.033-0.09l0.1,0.017l0.113,0.073l0.074,0.078l0.069,0.156l0.019,0.141l-0.023,0.115l-0.056,0.079l-0.086,0.05
	l-0.178,0.067l-0.076,0.048l-0.068,0.077l-0.046,0.08l-0.051,0.134l-0.028,0.073l0.044,0.022l0.021,0.043l0.013,0.044l0.012,0.024
	h0.041l0.019-0.026l0.011-0.033l0.03-0.034l0.049-0.111l0.024-0.035l0.102-0.059l0.094-0.084l0.063-0.034l0.053,0.013l0.057,0.032
	h0.069l0.367-0.088l0.021,0.015l0.053,0.067l0.034,0.014l0.035,0.008l0.017,0.029l0.009,0.042l0.02,0.051l0.084,0.172l0.052,0.069
	l0.06,0.025l0.029,0.039l0.059,0.196l0.026,0.068l0.129,0.134l0.022,0.012l-0.013,0.049l0.01,0.027l0.013,0.02l0.004,0.027
	l-0.01,0.032l-0.043,0.092l-0.007,0.063l0.037,0.081l0.005,0.084l-0.022,0.041l-0.035,0.037l-0.009,0.042l0.057,0.05l-0.042,0.029
	l-0.025,0.074l-0.042,0.011l-0.045-0.033l-0.043-0.068l-0.051-0.096l-0.042-0.015l-0.042-0.042l-0.034-0.055l-0.017-0.055
	l0.01-0.061l0.056-0.093l0.001-0.076l-0.043-0.156l-0.056-0.111l-0.072-0.081l-0.258-0.177l-0.095-0.038l-0.096,0.003l0.007,0.035
	l0.033,0.046l0.001,0.05l-0.02,0.045l-0.024,0.033l0.045-0.002l0.039,0.019l0.034,0.023l0.026,0.015l0.12-0.002l0.04,0.026
	l-0.048,0.022l-0.066,0.018l-0.018,0.025l0.107,0.041l-0.004,0.062l0.013,0.059l0.027,0.041l0.043,0.009l0.002,0.022l-0.003,0.015
	l-0.009,0.034l0.029,0.029l-0.037,0.27l-0.015,0.049l-0.1,0.096l-0.024,0.057l0.12-0.056l0.131-0.092l0.128-0.047l0.109,0.083
	l0.069,0.188l-0.011,0.148l-0.062,0.121l-0.085,0.109l-0.014,0.005l-0.038-0.005l-0.013,0.006l-0.003,0.105l-0.019,0.016
	l-0.024,0.016l-0.026-0.004l-0.019-0.04l-0.047-0.033h-0.187l-0.133,0.025l-0.129,0.058l-0.06,0.016l-0.06,0.028l-0.007,0.062
	l0.04,0.171l0.004,0.019l0.01,0.097v0.106l-0.007,0.101l-0.02,0.083l-0.045,0.072l-0.121,0.074l-0.08,0.105l-0.118,0.107
	l-0.04,0.023l-0.123,0.019l-0.053-0.005l-0.062-0.033l-0.008-0.032l0.06-0.034l0.024-0.007l-0.263-0.065l-0.041,0.001l-0.055-0.089
	l-0.091-0.022l-0.098,0.001l-0.072-0.02l-0.014,0.036l-0.054-0.033l-0.048,0.009l-0.041,0.026l-0.041,0.012l-0.043-0.023
	l-0.031-0.033l-0.026-0.001l-0.031,0.069l0.003,0.032l0.012,0.039l0.011,0.041l-0.006,0.043l-0.017,0.02l-0.075,0.018l-0.076,0.034
	l-0.022,0.002l-0.024-0.013l-0.022-0.021l-0.018-0.021l-0.003-0.008l-0.089,0.01l-0.258,0.115l-0.026-0.001l-0.053-0.017
	l-0.024,0.007l-0.014,0.019l-0.012,0.023l-0.015,0.028l-0.016,0.011l-0.05-0.02l-0.104-0.092l-0.056-0.033l0.027-0.122l-0.005-0.058
	l-0.046-0.056l0.057-0.091l0.014-0.093l-0.035-0.089l-0.031-0.026l-0.058-0.048l-0.076-0.048l-0.038-0.016l-0.039-0.002
	l-0.032,0.021l-0.017,0.034l-0.022,0.028h-0.038l-0.079-0.037l-0.077-0.048l-0.076-0.063l-0.066-0.077l-0.028-0.05l-0.021-0.048
	l-0.022-0.042l-0.033-0.028l-0.125-0.047l0.052-0.031l0.017-0.054l-0.019-0.073l-0.055-0.091l-0.045-0.076l-0.024-0.02h-0.038
	l-0.029-0.012l-0.045-0.083l-0.029-0.033l-0.227-0.141l-0.117-0.043l-0.1,0.014l-0.081,0.092l-0.115,0.237l-0.093,0.08l-0.027,0.002
	l-0.059-0.006l-0.011,0.007l-0.009,0.006l-0.001,0.023l0.014,0.031l0.018,0.024l0.01,0.007l0.001,0.003l-0.017,0.048h-0.004
	l-0.015,0.022l-0.024-0.006l-0.015,0.005l0.017,0.053l0.117,0.042l-0.007,0.072l0.131,0.083l-0.034,0.061l0.035,0.081l-0.062,0.046
	l-0.171,0.054l-0.031,0.028l-0.022,0.027l-0.016,0.035l-0.009,0.052l0.019,0.019l0.035,0.022l0.008,0.026l-0.058,0.034l0.022,0.05
	l0.001,0.051l-0.016,0.046l-0.025,0.033l-0.04,0.024l-0.016-0.02l-0.005-0.046l-0.011-0.057l-0.003-0.045l0.003-0.037l-0.013-0.012
	l-0.09,0.06l-0.02,0.028l0.006,0.034l0.101,0.137l-0.021,0.003l-0.032,0.006l-0.166-0.039l-0.047,0.014l-0.016-0.003l-0.011-0.022
	l-0.03-0.042l-0.028-0.006l-0.032,0.007l-0.013-0.006l0.029-0.047l-0.083-0.001l-0.117,0.106l-0.067,0.018l-0.361-0.055
	l-0.043-0.022l-0.018-0.042l-0.014-0.044l-0.028-0.031l-0.263-0.148l-0.06-0.006l-0.191,0.023l-0.184-0.012l-0.07-0.033
	l-0.056-0.076l-0.051-0.223l-0.034-0.08l-0.055-0.031l-0.132-0.011l-0.026-0.008l-0.03-0.008l-0.066-0.055l-0.055-0.071
	l-0.095-0.155l-0.096,0.004l-0.089-0.035l-0.09-0.069l-0.167-0.172l-0.092-0.075l-0.038-0.04l-0.014-0.041l-0.017-0.04l-0.047-0.033
	l0.016-0.009l0.056-0.034l0.166-0.056l0.072-0.047l0.032-0.033l0.013-0.022l0.028-0.077l0.052-0.093l0.056-0.073l0.255,0.04
	l0.129-0.001l0.117-0.052l0.275-0.298l0.128-0.048l-0.001-0.002v-0.001l-0.026-0.099l-0.035-0.006l-0.045,0.037l-0.05,0.027
	l-0.054-0.015l-0.118-0.08l-0.048-0.021l-0.024,0.008l-0.044,0.037l-0.028,0.001l-0.029-0.025l-0.043-0.063l-0.03-0.014
	l-0.059-0.012l-0.059-0.029l-0.035-0.051l0.013-0.078l-0.022-0.009l-0.06-0.038l0.148-0.081l0.093-0.108h0.045l0.105,0.068
	l0.115,0.046l0.109-0.013l0.101-0.064l0.095-0.108l0.052-0.034l0.115,0.022l0.093-0.033l0.065,0.027l0.034-0.001l0.04-0.019
	l-0.002-0.011l-0.021-0.016l-0.018-0.037l-0.015-0.127l0.008-0.07l0.188-0.278l0.034-0.093l0.015-0.111l-0.01-0.054l-0.035-0.128
	l0.001-0.061l0.021-0.033l0.06-0.027l0.003-0.007l0.017-0.036l-0.003-0.042l-0.041-0.13l0.007-0.036l0.016-0.007l0.008-0.008
	l-0.021-0.044l0.067-0.134l0.025-0.036l0.034-0.03l0.198-0.04l0.021-0.028l0.019-0.038l0.022-0.033l0.058-0.024l0,0l-0.013,0.096
	l0.051-0.001l0.139-0.048l0.057,0.003l0.151,0.058l0.112,0.008l0.106-0.021l0.032-0.027l0.056-0.086l0.041-0.035l-0.014-0.065
	l0.007-0.094l0.024-0.087l0.03-0.038l0.027-0.051l-0.021-0.231l0.007-0.072l0.05-0.007l0.151,0.077l0.067,0.02l0.406-0.044
	l0.333-0.178l0.215-0.029l0.046-0.041l0.037-0.064l0.053-0.055l0.062-0.037l0.068-0.012L994.702,523.305z M995.474,522.903
	l0.018,0.054l-0.008,0.065l-0.018,0.059l-0.017,0.034l-0.003-0.041l-0.003-0.024v-0.018l0.007-0.025l-0.084-0.053l-0.078-0.001
	l-0.077,0.014l-0.074-0.005l0.029-0.033l0.03-0.026l0.034-0.016l0.042-0.008l0.165,0.012L995.474,522.903z M998.627,521.967
	l-0.136,0.036l-0.17-0.002l-0.151-0.035l-0.144-0.065l-0.147-0.094l-0.006-0.034l-0.009-0.033l-0.056-0.134l-0.021-0.037
	l-0.007-0.035l0.013-0.013l0.005-0.014l0.002-0.016l0.01-0.026l-0.097-0.095l-0.078-0.097l-0.051-0.119l-0.019-0.166l0.02-0.112
	l0.055-0.115l0.079-0.086l0.101-0.026l-0.011-0.017l-0.016-0.037l-0.01-0.016l0.079-0.011l0.027,0.003l0.218,0.078l0.063,0.043
	l0.083,0.09l0.065,0.104l0.112,0.246l-0.022,0.071l0.159,0.118l0.031,0.113l-0.026,0.02l-0.045,0.005l-0.024,0.02l0.031,0.065
	l0.028,0.017l0.137,0.043l-0.06,0.052l0.02,0.065l0.049,0.076l0.024,0.083l-0.034,0.049L998.627,521.967z M998.663,520.475
	l-0.015,0.035h-0.038l-0.039-0.04l-0.055-0.087l-0.237-0.161l-0.048-0.082l-0.065-0.14l-0.019-0.064l-0.121-0.06L998,519.84
	l-0.04-0.076l-0.056-0.085l-0.013-0.079l0.091-0.058l0.11,0.069l0.112,0.09l0.031,0.014l0.028,0.002l0.023,0.015l0.04,0.113
	l0.027,0.022l0.031,0.008l0.031,0.02l0.05,0.065l0.042,0.064l0.036,0.067l0.064,0.156l0.001,0.032l-0.014,0.028l-0.018,0.072
	l0.037,0.019l0.031,0.036L998.663,520.475z M995.188,520.205l0.039,0.154l0.027,0.046l0.054,0.048l0.056,0.039l0.032,0.015
	l0.019,0.019v0.042l-0.005,0.048l0.002,0.031l0.021,0.026l0.024,0.018l0.055,0.02l0.004,0.059l0.013,0.058l0.02,0.052l0.025,0.039
	l0.006,0.032l-0.034,0.021l-0.027,0.024l-0.02,0.032l-0.006,0.042l-0.027-0.037l-0.04,0.083l-0.061,0.066l-0.074,0.047l-0.083,0.033
	l-0.136-0.011l-0.036,0.022l-0.003,0.109l-0.009,0.02l-0.024,0.034l-0.067,0.064l-0.075,0.033l-0.079-0.02l-0.064-0.111
	l-0.004-0.116l0.055-0.078l0.152-0.1l-0.102-0.176l-0.046-0.041l-0.136-0.048h-0.024l-0.005-0.094l0.061-0.099l0.118-0.137
	l-0.073-0.027l-0.092-0.008l-0.086,0.018l-0.055,0.054l-0.04,0.182l-0.027,0.086l-0.087,0.071l-0.074,0.145l-0.032,0.043
	l-0.084,0.02l-0.049-0.046l-0.013-0.084l0.023-0.092l-0.019-0.008l-0.015-0.02l-0.019-0.007l0.018-0.086l0.104-0.201l-0.118-0.063
	l0.035-0.036l0.02-0.033l0.005-0.049l-0.012-0.08l-0.004-0.065l0.016-0.042l0.099-0.082l0.156-0.082l0.03-0.041l0.029-0.028
	l0.045,0.015L994.445,520l-0.011,0.147l0.007,0.032l0.039,0.09l0.031,0.036l0.041,0.009l-0.008-0.035l-0.042-0.099l0.045-0.119
	l0.084-0.1l0.099-0.068l0.059-0.103l0.035-0.024l0.043-0.015l0.041-0.03l0.033-0.037l0.021-0.034l0.033,0.008l0.024,0.019
	l0.017,0.031l0.054,0.217L995.188,520.205z M994.817,518.775l-0.069,0.166l-0.016,0.105l0.025,0.089l-0.054,0.047l-0.08,0.028
	l-0.085,0.003l-0.07-0.028l0.041-0.039l0.013-0.061l0.003-0.069l0.016-0.063l0.051-0.083l0.012-0.03l0.021-0.02l0.052,0.015
	l0.021-0.021l-0.014-0.018l-0.007-0.014l-0.015-0.033l0.051-0.01l0.044-0.024l0.035,0L994.817,518.775z M995.998,519.172
	l-0.168,0.498l-0.027,0.208l-0.035-0.009l-0.059,0.094l-0.046,0.03l-0.016,0.041l0.007,0.198l-0.006,0.079l-0.069,0.058h-0.122
	l-0.125-0.061l-0.072-0.126l-0.074-0.243l-0.012-0.09l0.016-0.081l0.039-0.039l0.049-0.028l0.04-0.055l0.078-0.076l0.233-0.061
	l0.085-0.087l-0.073,0.003l-0.107,0.038l-0.104,0.01l-0.062-0.08l0.016-0.119l0.061-0.138l0.074-0.114l0.055-0.049l0.088-0.034
	l0.192-0.232l0.128-0.159l0.082-0.065l0.072,0.024l0.021,0.048l0.022,0.069l0.009,0.063l-0.039,0.048l-0.032,0.079l-0.05,0.063
	L995.998,519.172z M996.024,518.436l-0.07,0.014l0.016-0.086l0.041-0.052l0.088-0.084l0.031,0.037l0.037,0.078l-0.053,0.058
	L996.024,518.436z M996.27,517.898l0.021,0.071l-0.009,0.075l-0.016,0.076l0.002,0.162l-0.037-0.029l-0.086-0.134l0.022-0.051
	l0.01-0.125l0.03-0.041l0.02,0.017l0.018,0.011l0.015-0.003L996.27,517.898z M996.292,517.574l-0.005,0.063l-0.021,0.043
	l-0.007,0.045l0.031,0.065l-0.062,0.045l-0.063-0.03l-0.036-0.081l0.021-0.105l0.031-0.03l0.072,0.007L996.292,517.574z
	 M996.445,517.069l-0.028,0.091l-0.045,0.063l-0.06,0.034l-0.082,0.003l0.006-0.049l0.011-0.034l0.036-0.062l0.097-0.003
	l0.042-0.012L996.445,517.069z M994.388,516.951l-0.158,0.019l-0.079-0.007l-0.094-0.063l0.022-0.052l0.027-0.037l0.035-0.021
	l0.044-0.004l0.053,0.042l0.106,0.066L994.388,516.951z M992.189,517.204l-0.064,0.006l-0.209-0.074l-0.038-0.059l-0.033-0.079
	l-0.046-0.084l0.06-0.038l0.204-0.042l0.065-0.028l0.102-0.075l0.066-0.02l0.148-0.063h0.079l0.056,0.088l-0.032,0.067l-0.183,0.031
	l0.01,0.086l-0.053,0.053l-0.065,0.016l-0.063,0.031l-0.039,0.092L992.189,517.204z M994.629,516.16l0.095,0.099l0.178,0.271
	l0.017,0.035l0.007,0.034l0.012,0.025l0.034,0.008l0.306-0.02l0.028,0.018l0.027,0.029l0.027,0.019l0.041-0.033l0.028-0.009
	l0.031,0.004l0.025,0.014l0.086,0.095l0.031,0.02l0.03,0.006l0.055-0.012l0.021-0.001l0.04,0.025l0.052,0.044l0.045,0.058
	l0.027,0.062l0.024,0.009l0.042-0.014l0.035,0.019l0.005,0.102l-0.029-0.015l-0.026-0.007l-0.057-0.005l0.033,0.033l0.059,0.069
	l0.036,0.07l-0.032,0.035l-0.1,0.008l-0.047-0.018l-0.007-0.056l-0.022-0.02l-0.021-0.008l-0.021-0.001l-0.023,0.004l0.023,0.066
	l-0.025,0.063l-0.084,0.088l0.007,0.038l0.042-0.038l0.051-0.026l0.113-0.022l0.055,0.02l-0.01,0.057l-0.042,0.065l-0.237,0.191
	l-0.116,0.035l-0.108-0.056l0.016-0.016l0.027-0.036l0.02-0.045l-0.005-0.047l-0.03-0.026l-0.037,0.006l-0.07,0.03l-0.013,0.017
	l-0.01,0.037l-0.014,0.038l-0.026,0.018l-0.1,0.029l-0.221,0.133l-0.043,0.058l-0.029,0.029l-0.041-0.007l-0.042-0.022l-0.038-0.01
	l-0.029,0.013l-0.064,0.052l-0.03,0.017l-0.286,0.019l-0.016,0.017l-0.007,0.037l-0.011,0.038l-0.029,0.018l-0.039-0.001
	l-0.067-0.016l-0.094-0.042l-0.067-0.054l-0.059-0.076l-0.037-0.095l0.015-0.074l0.06-0.046l0.074-0.019l0.063,0.006l0.058,0.051
	l0.056,0.072l0.052,0.041l0.049-0.039l-0.005-0.035l-0.026-0.004l-0.015-0.007l-0.012-0.011l-0.02-0.009l0.052-0.026l0.145,0.02
	l0.044-0.026l0.043-0.049l0.204-0.055l0.121-0.102l0.048-0.06l-0.024-0.024l-0.059,0.02l-0.161,0.104l-0.143,0.046l-0.077-0.001
	l-0.07-0.045l-0.025-0.054l0.005-0.052l0.021-0.041l0.031-0.016l0.039-0.013l0.02-0.025l0.024-0.109l0.002-0.038l0.007-0.037
	l0.02-0.033l0.028-0.011l0.111,0.003l0.167-0.092l0.031-0.031l0.008-0.052l-0.008-0.05l-0.021-0.042l-0.034-0.03l-0.179,0.108
	l-0.064,0.014l-0.021,0.014l-0.021,0.025l-0.025,0.011l-0.034-0.025l-0.07-0.103l-0.035-0.045l-0.046-0.036l-0.069-0.031
	l-0.295-0.029l-0.064-0.022l-0.057-0.033l-0.051-0.038l0.127-0.11l-0.035-0.047l-0.074-0.063l-0.03-0.061l0.111-0.017l0.045-0.024
	l0.041-0.044l0.034,0.038l0.031,0.02l0.026-0.002l0.019-0.024l-0.012-0.1l0.079-0.07l0.112-0.043l0.097-0.016l0.047,0.025
	l0.152,0.034l-0.001,0.023l0.003,0.057l-0.002,0.023L994.629,516.16z M993.022,516.356l-0.139,0.13l-0.048,0.019l-0.08-0.025
	l-0.036,0.001l-0.007,0.048l-0.003,0.054l-0.032-0.026l-0.04-0.062l-0.026-0.049l0.081-0.019l0.068-0.078l0.1-0.218l0.028-0.044
	l0.085-0.074l0.068-0.033l0.077-0.081l0.046-0.019l0.081-0.018l0.033,0.013l-0.01,0.054l-0.02,0.053l-0.023,0.107l-0.016,0.04
	l-0.018,0.032l-0.02,0.023l-0.025,0.015l-0.039,0.007L993.022,516.356z M990.145,514.461l0.03,0.024h-0.09l-0.023,0.021l-0.02,0.034
	l-0.021,0.025l-0.021,0.019l-0.021,0.012l0.025,0.048l-0.02,0.035l-0.045,0.021l-0.047,0.009l-0.207-0.027l-0.052-0.022
	l-0.007-0.049l0.026-0.052l0.049-0.024l0.03-0.025l0.007-0.055l-0.018-0.059l-0.038-0.036l0.065-0.054l0.072-0.019l0.049-0.046
	V514.1h0.015l0.011,0.007l0.025,0.027l0.021,0.002l0.017,0.005l0.016,0.011l0.017,0.016l-0.029,0.091l-0.017,0.021l0.108,0.043
	l0.031,0.022l0.021,0.034l0.018,0.042L990.145,514.461z M993.519,514.146l0.007,0.038l0.081-0.004l-0.005,0.19l-0.038,0.11
	l-0.076,0.052l-0.114,0.018l-0.061-0.026l-0.072-0.12l-0.048-0.026l-0.05-0.019l-0.113-0.087l-0.063-0.025l0.146-0.206l0.082-0.076
	l0.114-0.021l0.178,0.086l0.079,0.068L993.519,514.146z M992.738,514.014l-0.096,0.022h-0.099l-0.082-0.014l0.04-0.039l0.094-0.063
	l0.055-0.017l0.042,0.028l0.077,0.014l0.04,0.025L992.738,514.014z M994.29,512.671l-0.094,0.043l-0.084-0.026l-0.083-0.065
	l-0.031-0.07l0.064-0.046l0.105,0.014l0.095,0.071L994.29,512.671z M989.851,512.268l0.305,0.167l-0.022,0.02l-0.022,0.003
	l-0.063-0.019l0.007,0.035l0.07,0.01l0.11,0.081l0.07,0.007l0.006,0.035l-0.078,0.045l-0.069-0.026l-0.066-0.051l-0.139-0.065
	l-0.075-0.081l-0.07-0.054l-0.063,0.038l0.023,0.016l0.023,0.023l0.021,0.025l0.011,0.023l0.018,0.044l0.023,0.009l0.027-0.004
	l0.025,0.004l0.079,0.03l0.015,0.01l0.05,0.062l0.05,0.02l0.095-0.002l0.051,0.011l0.042,0.034l0.035,0.042l0.039,0.028l0.049-0.006
	l-0.002,0.077l-0.023,0.03l-0.032,0.018l-0.029,0.042l-0.01,0.048l-0.013,0.108l-0.016,0.042l-0.055,0.029l-0.245-0.049l0.006,0.032
	l0.206,0.049l0.063,0.048l0.042,0.079l0.032,0.109l0.012,0.104l-0.023,0.064l-0.058-0.03l-0.062-0.007l-0.117,0.01l0.007,0.035
	l0.055,0.007l0.108-0.019l0.047,0.003l0.061,0.039l0.046,0.054l0.045,0.042l0.063,0.003l0.007,0.033l-0.06,0.072l-0.263-0.039
	l-0.086,0.058l-0.106-0.095l-0.037-0.054l-0.127-0.271l-0.026-0.084l0.009-0.061l-0.006-0.036l-0.064-0.066l-0.039-0.026
	l-0.042-0.009l0.031-0.043l0.019-0.039l0.022-0.101l0.004-0.055v-0.045l0.01-0.032l0.037-0.012l0.011-0.073l-0.063-0.157
	l-0.123-0.234l0.053-0.043l0.128-0.07L989.851,512.268z M989.965,511.857l0.026,0.012l0.03,0.002l0.033-0.005l-0.002,0.022v0.004
	l-0.005-0.001l-0.01,0.01l0.03,0.021l0.024-0.004l0.023-0.013l0.028-0.007l0.022,0.008l0.094,0.06l-0.013,0.033l-0.047-0.021
	l-0.059,0.061l-0.056,0.006l0.023,0.05l0.03,0.019l0.07-0.002l0.047,0.014l0.03,0.035l0.003,0.036l-0.251,0.083l-0.084-0.015
	l-0.26-0.127l-0.047-0.06l-0.003-0.098l0.027-0.083l0.052-0.051l0.071-0.005l0.039,0.024l0.041,0.01l0.035-0.008l0.03-0.031
	L989.965,511.857z M993.912,511.614l0.004,0.08l-0.02,0.156l-0.011,0.182l0.034,0.159l0.031,0.037l0.057,0.083l0.033,0.083
	l-0.043,0.042l-0.047,0.021l-0.04,0.036l-0.046,0.02l-0.058-0.028l0.001-0.038l0.002-0.015l0.006-0.022l-0.041-0.042l-0.022-0.086
	l-0.039-0.335l0.005-0.087l0.041-0.044l0.085-0.016l-0.006-0.035l-0.026-0.023l-0.021-0.026l-0.035-0.054l0.027-0.035l0.03-0.004
	l0.066,0.032l-0.007-0.04l-0.058-0.068l0.029,0.005l0.024,0.013l0.023,0.021L993.912,511.614z M993.92,511.422l0.016,0.083
	l-0.052-0.021l-0.029-0.054l-0.005-0.069l0.021-0.068l-0.015-0.012l-0.003-0.005l-0.01-0.02l0.015-0.033l0.018-0.022l0.02-0.005
	l0.024,0.024V511.422z M969.644,511.118l-0.006-0.001l-0.003-0.001v-0.004l0.002-0.002h0.007l0.002,0.003l0.002,0.002
	L969.644,511.118z M990.122,510.958l0.055,0.027l0.084-0.048l0.045,0.026l0.045,0.001l0.066-0.001l0.062,0.028l0.04,0.064
	l-0.027,0.031l-0.034,0.089l-0.018,0.022l-0.044-0.005l-0.037-0.036l-0.029-0.039l-0.023-0.019l-0.036-0.01l-0.079-0.061
	l-0.138,0.005l0.008,0.04l0.036,0.001l0.023,0.01l0.006,0.022l-0.012,0.034l0.007,0.038l0.086-0.009l0.032,0.023l0.021,0.071
	l0.03,0.046h0.049l0.092-0.035l-0.039,0.116l-0.064,0.053l-0.175,0.021l-0.021,0.008l-0.039,0.028l-0.019,0.002l-0.025-0.02
	l-0.038-0.069l-0.018-0.016l-0.038,0.011l-0.111,0.101l0.007,0.039l0.22-0.007l0.169-0.056l0.063,0.007l0.055,0.017l0.022,0.018
	l0.018,0.034l-0.004,0.034l-0.042,0.112l-0.129-0.004l-0.061,0.012l-0.043,0.039l-0.056-0.033l-0.104,0.012l-0.057-0.01
	l-0.032-0.018l-0.015-0.013l-0.045-0.061l-0.016-0.028l-0.02-0.027l-0.028-0.025l0.026-0.003l0.052-0.039l-0.102-0.005l-0.204-0.105
	l-0.098-0.019l-0.015,0.034l-0.016,0.024l-0.02,0.011l-0.026-0.003l-0.041-0.021l-0.053-0.017l-0.154-0.089l-0.007-0.036
	l0.062-0.047l0.032-0.092l0.024-0.105l0.034-0.088l0.071,0.032l0.201-0.041l0.006,0.036l-0.023,0.004l-0.054,0.034l0.066,0.065
	l0.076-0.087l0.072-0.131l0.06-0.068l0.005,0.032l-0.015,0.02l-0.01,0.021l-0.018,0.069l0.177,0.059l0.065,0.004l-0.007-0.036
	l-0.021-0.003l-0.048-0.03l0.061-0.029l0.124-0.105l0.081-0.016l0.046,0.048l0.021,0.048l-0.011,0.044L990.122,510.958z
	 M992.725,510.597l0.036,0.054l0.033,0.032l0.081,0.052l0.035,0.034l0.095,0.113l0.015,0.024l0.154,0.1l0.07,0.067l0.041,0.048
	l0.021,0.043l0.097,0.36l0.06,0.153l0.018,0.072l0.007,0.078l-0.005,0.12l0.008,0.07l-0.008,0.04l-0.066,0.077l-0.019,0.05
	l0.03-0.036l0.043-0.037l0.05-0.021l0.049,0.012l0.036,0.052l-0.009,0.05l-0.023,0.044l-0.012,0.033l0.031,0.085l0.054,0.051
	l0.052,0.036l0.027,0.036l-0.014,0.047l-0.091,0.063l-0.034,0.038l0.252-0.046l0.072,0.014l0.022,0.042l-0.027,0.049l-0.069,0.038
	l0.007,0.036l0.08-0.013l0.062-0.035l0.059-0.011l0.08,0.061l0.032,0.02l0.041,0.001l0.075-0.011l0.049,0.018l0.036,0.045
	l0.03,0.047l0.026,0.028l0.044,0.002l0.021-0.026l0.011-0.035l0.014-0.02l0.125-0.002l0.07-0.087l0.078-0.034l0.089-0.004
	l0.063,0.062l0.224-0.014l-0.024,0.132l0.009,0.033l0.023,0.056l-0.003,0.052l-0.014,0.043l-0.045,0.081l-0.093,0.094l-0.042,0.025
	l-0.117,0.019l-0.015,0.036l0.018,0.114l-0.016,0.073l-0.054,0.051l-0.058,0.037l-0.023,0.028l-0.017,0.042l-0.133,0.244
	l-0.039,0.048l-0.05,0.04l-0.155,0.04l-0.046-0.016l-0.042-0.066l-0.007-0.089l0.06-0.117l-0.018-0.045l-0.006-0.035l0.016-0.012
	l0.005-0.016l0.004-0.048l0.005-0.023l0.017-0.026l0.036-0.102l0.021-0.036l0.027-0.033l0.264-0.154l-0.007-0.036l-0.074,0.048
	l-0.08,0.028l-0.257,0.02l-0.02-0.013l-0.01-0.031l-0.008-0.036l-0.012-0.029l-0.094-0.109l-0.048-0.043l-0.039-0.017l0.023,0.055
	l0.021,0.04l0.052,0.079l-0.018,0.077l-0.014,0.037l-0.024,0.032l0.028,0.037l-0.03,0.044l-0.014,0.059l-0.018,0.053l-0.041,0.025
	l-0.046-0.039l-0.035-0.091l-0.032-0.104l-0.021-0.077l-0.029-0.026l-0.018-0.007l-0.015,0.011l-0.021,0.027l-0.028-0.031
	l-0.028-0.021l-0.03-0.012l-0.029-0.001l0.006,0.032l0.052,0.04l-0.047,0.036l-0.407,0.127l-0.007-0.039l0.029-0.03l0.07-0.118
	l-0.006-0.032l-0.058,0.001l-0.052,0.016l-0.046,0.027l-0.04,0.039l-0.074-0.082l-0.064-0.095l0.031-0.016l0.025-0.02l0.018-0.029
	l0.011-0.043l-0.137,0.02l-0.054-0.012l-0.176-0.171l-0.011-0.017l-0.024-0.048l-0.014-0.021l-0.02-0.022l-0.016-0.012l-0.015-0.017
	l-0.016-0.036l0.121-0.1l0.057-0.027l0.069,0.007l0.063,0.042l0.065,0.059l0.073,0.051l0.084,0.013l-0.053-0.067l-0.217-0.138
	l-0.047-0.043l-0.024-0.016l-0.036-0.004l-0.031,0.008l-0.063,0.029l-0.037,0.002l0.037-0.035l-0.007-0.039l-0.024-0.003
	l-0.065-0.028l0.021-0.009l0.008-0.007l0.005-0.021l-0.029-0.011l-0.026-0.028l-0.015-0.042l0.005-0.057l-0.042,0.013l-0.048,0.072
	l-0.035,0.028l0.007-0.047l-0.005-0.048l-0.021-0.047l-0.036-0.038l-0.012,0.07l-0.031,0.023l-0.032,0.016l-0.021,0.042l0.007,0.06
	l0.051,0.093l0.005,0.059l-0.043,0.043l-0.295-0.076l-0.079-0.041l-0.068-0.061l-0.037-0.074l-0.053-0.134l-0.142-0.083
	l-0.054-0.115l0.187-0.009l-0.051-0.044l-0.037-0.055l-0.018-0.063l0.011-0.066l0.029-0.059l0.029-0.017l0.032,0.017l0.2,0.213
	l0.027,0.046l0.034,0.032l0.063,0.038l0.042,0.006l-0.03-0.065l-0.007-0.032l0.012-0.011l0.01-0.017l0.012-0.009l-0.063-0.058
	l-0.01-0.011l-0.012-0.017l-0.035-0.036l-0.008-0.021l0.003-0.022l0.025-0.013l0.002-0.017l0.02-0.027l0.056,0.004l0.096,0.034
	l-0.047-0.092l-0.093-0.08l-0.102-0.053l-0.079-0.014l0.03-0.054l0.019-0.079l-0.008-0.075l-0.043-0.043l-0.008-0.039l0.063-0.002
	l0.051,0.037l0.042,0.046l0.075,0.038l0.02,0.043l0.014,0.047l0.014,0.032l0.034,0.032l0.023,0.014l0.154,0.067l0.038,0.026
	l0.043,0.046l0.051,0.042l0.039-0.006l0.038-0.022l0.05-0.005l-0.039,0.158l0.032,0.006l0.049-0.08l0.017-0.104l0.045,0.018
	l0.282,0.272l-0.007-0.035l-0.018-0.016l-0.022-0.034l-0.017-0.019l-0.011-0.071l-0.055-0.063l-0.126-0.11l-0.069-0.107v-0.053
	l0.031-0.054l0.019-0.108l-0.035,0.008l-0.035-0.004l-0.032-0.013l-0.025-0.021v-0.071l-0.023-0.042l-0.031-0.029l-0.021-0.034
	l-0.016-0.062l0.004-0.018l0.02-0.007l0.106-0.078l0.016-0.021l0.015-0.064l0.006-0.064l0.017-0.038l0.041,0.015l0.021-0.01
	l0.009-0.008L992.725,510.597z M990.125,510.642l-0.081,0.04l-0.073-0.006l0.104-0.135l0.057-0.013l0.037,0.054L990.125,510.642z
	 M985.775,510.269l-0.064,0.016l-0.068-0.041l-0.048-0.108l0.053,0.036l0.114,0.012l0.057,0.023L985.775,510.269z M990.459,509.576
	l0.021,0.113l-0.033,0.021l-0.118-0.062v0.06l-0.015,0.036l-0.029,0.018l-0.04,0.005l-0.001-0.044l-0.002-0.01l-0.003-0.003
	l-0.008-0.018l0.104-0.118l0.062-0.032L990.459,509.576z M990.548,507.786l0.114,0.099l0.027-0.02l0.032,0.025l0.027,0.031
	l0.026,0.038l0.023,0.046l-0.246,0.01l-0.007-0.036h0.032l0.009-0.002l-0.006-0.033l-0.041-0.018l-0.039-0.049l-0.022-0.059
	l0.009-0.055L990.548,507.786z M992.423,507.166l0.043,0.011l0.043-0.003l0.008,0.039l-0.059,0.033l-0.114,0.1l-0.038,0.054
	l0.023,0.046l0.002,0.035l-0.018,0.022l-0.037,0.009l-0.032,0.019l-0.015,0.075l-0.081,0.037l0.002,0.039l0.018,0.045l0.003,0.039
	l-0.022,0.027l-0.031,0.013l-0.081,0.005l0.07,0.083l0.116,0.027l0.116-0.013l0.076-0.038l0.116-0.152l0.039-0.027l0.052-0.021
	l0.032,0.002l-0.021,0.04l0.007,0.033l0.019,0l-0.01,0.025l-0.008,0.034l-0.01,0.017l0.012,0.02l0.024,0.051l-0.071,0.04
	l-0.021,0.02l-0.017,0.024l-0.019,0.052l-0.008,0.016l-0.05,0.029l-0.043-0.004l-0.098-0.052L992.289,508l-0.13,0.022l-0.053-0.014
	l-0.098-0.051l-0.047,0.001l0.104,0.187l0.044,0.059l-0.021,0.025l-0.008,0.021l0.009,0.026l0.02,0.039l-0.046,0.042l-0.145,0.038
	l-0.077,0.121l-0.04,0.029l-0.028-0.001l-0.051-0.028l-0.028-0.003l-0.068,0.075l-0.147,0.046l-0.05-0.001l0.006,0.036l0.113-0.002
	l0.373-0.104l0.081-0.056l0.039-0.008l0.044,0.024l0.04,0.051l0.028,0.066l0.009,0.068l0.014,0.009l0.035,0.028l-0.018,0.031
	l-0.021,0.022l-0.023,0.015l-0.028,0.005l0.036,0.022l0.038,0.011l0.038,0.002l0.037-0.005l-0.045,0.062l-0.03,0.062l-0.038,0.047
	l-0.067,0.021l-0.288-0.034l-0.068-0.021h-0.016l-0.011,0.039l0.03,0.023l0.068,0.022l0.055,0.041l0.112,0.025l0.051,0.052
	l0.007,0.036l-0.024,0.023l-0.032,0.084l-0.02,0.037l-0.047,0.039l-0.037-0.002l-0.042-0.018l-0.058-0.012l0.008,0.039l0.015,0.01
	l0.017,0.014l0.016,0.01l0.008,0.039l-0.062,0.035l-0.058-0.008l-0.054-0.038l-0.048-0.054l-0.039-0.07l-0.021-0.026l-0.03-0.01
	l-0.01,0.026l0.026,0.059l0.04,0.063l0.03,0.035l-0.015,0.033l-0.104-0.041l-0.034-0.025l-0.021-0.027l-0.031-0.063l-0.111-0.153
	l-0.036-0.069l-0.019-0.075l0.02-0.139l0.072-0.08l0.103-0.037l0.11-0.013l-0.007-0.032l-0.286,0.011l0.005,0.033l-0.002,0.059
	l-0.055,0.087l-0.071,0.079l-0.052,0.037l0.05,0.055l0.091,0.155l0.039,0.031l0.046,0.017l0.042,0.041l0.039,0.047l0.035,0.035
	l-0.015,0.011l-0.01,0.014l-0.013,0.012l-0.021,0.005l0.026,0.031l0.029,0.015l0.024,0.007l0.017,0.011l0.015,0.035l0.032,0.11
	l-0.257-0.047l-0.114-0.052l-0.024,0.019l-0.012,0.026l-0.009,0.034l-0.018,0.038l0.037,0.021l0.07,0.023l0.028,0.017l0.093,0.116
	l0.018,0.029l-0.009,0.042l-0.037,0.028l-0.051,0.013l-0.055-0.004l0.006,0.036l0.022-0.001l0.007,0.033l-0.069-0.007l-0.158-0.091
	l-0.014,0.039l0.019,0.013l0.032,0.035l0.023,0.018l-0.023,0.053l-0.027,0.036l-0.068,0.063l0.017,0.009l0.018,0.015l0.015,0.01
	l-0.051,0.062l-0.163,0.126l-0.046,0.057l-0.023-0.007l-0.185-0.164l-0.031-0.015l-0.222-0.208l-0.037-0.021l-0.02-0.037
	l-0.03-0.041L990.148,510l0.043-0.016l0.04,0.006l0.029,0.023l0.024,0.043l0.023,0.064l0.208-0.224l0.027-0.061l0.064-0.022
	l0.146-0.001l-0.164-0.099l-0.007-0.036l0.139-0.089l0.087-0.023l0.092,0.017l0.067,0.042l-0.033-0.025l-0.032-0.022l-0.029-0.019
	l-0.013-0.014l-0.011-0.018l0.051-0.036l0.021-0.005l-0.006-0.036l-0.175,0.006l-0.044-0.015l-0.092-0.073l-0.05-0.016l-0.171,0.013
	l-0.086-0.024l-0.038-0.083l-0.034,0.032H990.2l-0.158-0.096l0.041-0.04l0.027-0.045l0.034-0.033l0.06,0.001l-0.005-0.033
	l-0.011-0.011l-0.004-0.005l-0.003-0.006l-0.008-0.016l0.088-0.016l0.093-0.037l0.164-0.104l-0.269,0.083l-0.09,0.002l0.005-0.048
	l0.02-0.026l0.029-0.007l0.036,0.007l-0.005-0.033l-0.085,0.003l0.024-0.019l0.02-0.025l0.014-0.031l0.008-0.04l-0.116,0.093
	l-0.022,0.003l-0.119-0.168l-0.028-0.026l0.004-0.064l-0.021-0.022l-0.028-0.011l-0.02-0.027l-0.001-0.067l0.023-0.047l-0.01-0.052
	l0.024-0.009l0.01-0.014l0.004-0.02l0.008-0.028l-0.021-0.009l-0.026-0.02l-0.018-0.01l-0.006-0.032l0.223-0.021l0.057-0.028
	l-0.084-0.031l-0.037-0.028l-0.023-0.063l-0.006-0.065l0.012-0.036l0.046-0.067l0.05,0.031l0.127,0.055l0.024,0.003l0.019-0.019
	l0.176,0.063l0.007,0.036l-0.09-0.002l0.033,0.074l0.079,0.087l0.043,0.039l0.012,0.08l0.05,0.109l0.064,0.098l0.049,0.051
	l-0.014-0.047l-0.006-0.029l-0.007-0.071l-0.026-0.033l-0.062-0.09l-0.026-0.05l0.024-0.022l0.005-0.038l-0.003-0.037l0.006-0.017
	l0.127-0.036l0.026-0.023l0.047-0.016l0.084,0.034l0.084,0.063l0.049,0.075l0.061-0.113l-0.082-0.041l-0.03-0.027l-0.018-0.032
	l-0.032-0.081l-0.019-0.029l-0.02-0.006l-0.041,0.013l-0.02-0.004l-0.009-0.013l-0.02-0.047l-0.008-0.014l-0.042-0.045l-0.02-0.026
	l-0.019-0.031l0.014-0.011l0.01-0.013l0.012-0.011l0.021-0.003l-0.022-0.037l-0.019-0.025l-0.021-0.01l-0.032,0.003l0.206-0.211
	l0.048-0.087l0.04,0.019l0.02-0.014l0.014-0.027l0.021-0.018l0.103-0.004l0.074-0.025l0.17-0.101l0.023-0.024l0.057-0.098
	l0.454-0.402l0.112-0.185l0.07-0.082l0.073,0.002l0.07,0.06l0.07,0.093l0.056,0.099l0.03,0.083l0.069,0.082l0.02,0.055l-0.049,0.028
	l-0.016,0.03l-0.027,0.221l0.031,0.033L992.423,507.166z M1000.354,505.1l0.024,0.019l0.087-0.007l0.174-0.072l0.11-0.021
	l0.173,0.09l0.093-0.007l0.179-0.052l0.105,0.032l0.004,0.096l-0.029,0.111l0.004,0.079l-0.022,0.046l-0.021,0.096l-0.016,0.046
	l-0.061,0.075l-0.012,0.036l-0.009,0.103l0.02,0.084l0.044,0.06l0.068,0.03l0.034-0.006l0.027-0.021l0.025-0.009l0.029,0.027
	l0.023,0.06l-0.003,0.046l-0.018,0.032l-0.028,0.011l0.016,0.186l-0.071,0.243l-0.103,0.224l-0.081,0.127l-0.104,0.077l-0.23,0.107
	l-0.088,0.068l-0.119,0.16l-0.015,0.051l-0.003,0.087l-0.035,0.092l-0.092,0.139l-0.521,0.549l-0.191,0.122l-0.042,0.055
	l-0.014,0.058l-0.005,0.107l-0.009,0.039l-0.021,0.027l-0.063,0.045l-0.088,0.028l-0.159,0.138l-0.023,0.018l-0.014,0.033
	l-0.001,0.043l0.011,0.055l-0.054-0.022l-0.017-0.012l0.013-0.034l-0.044-0.017l-0.077-0.003l-0.093-0.042l-0.01,0.022l0.019,0.042
	l0.034,0.043l0.05,0.028l0.092-0.003l0.049,0.017l0.024,0.021l0.083,0.096l-0.038,0.101l-0.003,0.055l0.025,0.058l-0.046,0.003
	l-0.093-0.026l-0.045,0.004l-0.022,0.022l-0.037,0.071l-0.02,0.021l-0.081,0.004l-0.186-0.07l-0.086-0.014l-0.223,0.076
	l-0.073-0.038l-0.121-0.118l-0.065-0.044l-0.063-0.015l0.2,0.208l0.109,0.067l0.116,0.016l0.106-0.063l0.059-0.014l0.061,0.042
	l0.063,0.054l0.079,0.042l0.047-0.005l-0.035-0.084l0.213,0.107l0.107,0.018l0.139-0.137l0.098,0.013l0.065,0.061l-0.025,0.07
	l0.101,0.019l0.099-0.056l0.082-0.102l0.058-0.122l0.033-0.053l0.037,0.003l0.03,0.048l0.011,0.084l-0.014,0.047l-0.287,0.526
	l-0.055,0.056l-0.053,0.117l-0.029,0.041l-0.057,0.016l-0.05-0.017l-0.025-0.05l0.02-0.083l-0.095-0.065l-0.094,0.043l-0.184,0.213
	l-0.036,0.019l-0.073,0.01l-0.18,0.066l-0.057-0.005l-0.05,0.006l-0.009,0.061l-0.004,0.073l-0.038,0.037l-0.037,0.02l-0.152,0.197
	l-0.02,0.036l-0.012,0.053l-0.008,0.082l0.016,0.002l0.034-0.032l0.08-0.042l0.034-0.044l0.03-0.055l0.02-0.053l0.025-0.05
	l0.117-0.088l0.089-0.121l0.112-0.071l0.022-0.004l0.037,0.011l0.049,0.043l0.153,0.02l0.063-0.007l0.041-0.04l0.027-0.04
	l0.111-0.087l0.043-0.01l0.027,0.064l-0.037,0.111l-0.063,0.107l-0.071,0.071l-0.069,0.165l0.015,0.025l0.013,0.019l0.014,0.012
	l0.013,0.01l-0.132,0.024l-0.051,0.036l-0.036,0.064l0.038,0.046l-0.019,0.008l-0.071-0.015l-0.161,0.013l0.009,0.038l0.083-0.009
	l0.043,0.006l0.04,0.022l-0.027,0.123l-0.021,0.055l-0.025,0.043l0.111,0.019l0.054-0.001l0.056-0.035l0.034-0.061l0.016-0.035
	l-0.001-0.016l0.065-0.01l0.028-0.018l0.038-0.08l0.033-0.043l0.041-0.033l0.038-0.013l0.048-0.03l-0.046-0.053l-0.13-0.085
	l0.082-0.001l0.261-0.062l0.286,0.003l0.084-0.034l0.375-0.354l0.166-0.053l-0.009,0.058l-0.01,0.026l-0.017,0.027l0.043,0.025
	l0.038-0.006l0.035-0.02l0.042-0.015l-0.092-0.131l0.116,0.026l0.06,0.001l0.053-0.015l0.034-0.033l0.034-0.061l0.013-0.067
	l-0.029-0.057l0.017-0.056l0.025-0.007l0.032,0.014l0.037,0.004l0.034-0.019l0.066-0.052l0.033-0.013l0.363-0.018l0.247,0.116
	l0.408,0.09l0.128-0.007l0.109-0.046l0.148-0.141l0.044-0.021l0.456-0.044l0.021,0.009l0.041,0.047l0.032,0.008l0.029-0.014
	l0.02-0.02l0.022-0.006l0.038,0.029l0.087-0.056l0.265,0.058l0.09-0.014l0.062,0.066l0.021-0.011l0.011-0.041l0.033-0.027h0.052
	l0.151,0.054l0.012-0.041l0.024,0.005l0.03,0.021l0.033,0.005l0.029-0.022l0.038-0.05l0.023-0.012l0.063,0.028l0.037,0.005
	l0.009-0.027l0.003-0.029l0.013-0.029l0.021-0.024l0.021-0.012l0.064,0.004l0.145,0.062l0.062,0.013l0.071-0.022l0.141-0.143
	l0.043-0.015l0.318-0.024l0.007,0.02l0.028,0.042l0.036,0.044l0.031,0.025l0.036,0.001l0.038-0.045l0.035-0.003l0.024,0.02
	l0.05,0.063l0.305,0.234l0.047,0.084l0.032,0.09l0.039,0.088l0.063,0.076l0.008,0.031l0.004,0.065l0.043,0.053l0.104,0.078
	l-0.039,0.01l-0.011,0.041l0.014,0.043l0.033,0.018l0.038,0.01l-0.012,0.033l-0.053,0.063l-0.08,0.167l-0.026,0.097l0.01,0.07
	l-0.233,0.303l-0.048,0.12l-0.072,0.492l-0.005,0.271l0.009,0.104l0.03,0.094l0.066,0.035l0.018,0.042l-0.023,0.098l-0.001,0.004
	l-0.164,0.428l-0.046,0.192l0.005,0.187l0.019,0.042l0.025,0.029l0.023,0.036l0.014,0.062l-0.007,0.03l-0.038,0.072l-0.005,0.027
	l0.004,0.093l-0.029,0.062l-0.081,0.087l-0.054,0.115l-0.041,0.126l-0.034,0.06l-0.141,0.117l-0.038,0.048l-0.039,0.064
	l-0.014,0.058l-0.007,0.03l0.021,0.225l-0.022,0.065l-0.027,0.056l-0.012,0.078l0.01,0.04l0.034,0.066l0.01,0.03l-0.009,0.037
	l-0.039,0.06l-0.011,0.09l-0.032,0.06l-0.231,0.218l-0.026,0.111l-0.05,0.048l-0.102,0.065l-0.016,0.042l-0.025,0.139l-0.025,0.016
	l-0.023-0.011l-0.028-0.017l-0.04-0.007l-0.154,0.04l-0.676,0.17l-0.015,0.003l-0.103,0.062l-0.085,0.087l-0.243,0.33l-0.113,0.062
	l-0.138-0.027l0.046,0.043l0.057,0.015l0.126-0.014l0.06-0.022l0.108-0.084l0.109-0.039l0.524-0.344l0.023-0.037l0.017-0.051
	l0.055-0.045l0.067-0.019l0.058,0.026l0.065,0.043l0.105-0.002l0.049,0.059l0.029,0.096l-0.001,0.093l-0.022,0.079l-0.035,0.056
	l0.073-0.008l0.014,0.014l0.03,0.068l0.009,0.019l0.037,0.01l0.028,0.002l0.023,0.008l0.027,0.034l0.276-0.01l0.071,0.024
	l0.122,0.078l0.026,0.01l0.129,0.078l0.007,0.031l-0.123,0.165l-0.03,0.105l-0.063,0.039l-0.136,0.046l-0.159,0.143l-0.063,0.026
	l-0.074-0.004l-0.204-0.072l-0.144,0.013l-0.066,0.027l-0.022,0.04l-0.013,0.049l-0.134,0.124l-0.124,0.196l-0.043,0.032
	l-0.055,0.027l-0.021,0.058l-0.002,0.174l-0.018,0.077l-0.037,0.033l-0.208,0.033l-0.053,0.032l-0.089,0.077l-0.106,0.065
	l-0.112,0.031l-0.119,0.004l-0.516-0.086l-0.266,0.031l-0.124-0.026l-0.121-0.061l-0.004-0.003l-0.129-0.087l-0.079-0.069
	l-0.049-0.022l-0.062,0.004l0.008,0.032l0.205,0.102l0.034,0.036l0.027,0.012l0.142,0.164l0.024,0.036l0.027,0.006l0.057-0.017
	h0.021l0.027,0.025l0.021,0.032l0.027,0.029l0.038,0.009l0.162-0.053l0.066-0.005l0.547,0.085l0.142-0.014l0.047-0.029l0.03-0.002
	l0.04,0.038l0.061,0.037l0.553-0.015l0.024,0.013l0.07,0.066l0.022,0.018l0.038,0.001l0.183-0.038l0.205-0.119l0.056-0.064
	l0.031-0.083l0.037-0.068l0.072-0.016l-0.03-0.059l-0.014-0.021l-0.019-0.019l0.044-0.051l0.065-0.11l0.055-0.031l0.505-0.021
	l0.062,0.018l0.112,0.102l0.062,0.027l-0.008,0.085l-0.01,0.028l0.045,0.01l0.073-0.022l0.051,0.025l0.009-0.021l0.023-0.03
	l0.015-0.024l0.054,0.039l0.141,0.068l0.12,0.021l0.224,0.128l0.145,0.051l0.496,0.032l0.03,0.01l0.025,0.038l0.016,0.046
	l0.017,0.036l0.026,0.012l0.068,0.018l0.073,0.054l0.247,0.298l0,0l0.056,0.068l0.506,0.43l0.072,0.11l0.044,0.058l0.075,0.034
	l0.024,0.034l0.021,0.034l0.021,0.015l0.024-0.011l0.015-0.026l0.007-0.026l0.008-0.014l0.034,0.001l0.042,0.013l0.046,0.037
	l0.044,0.068l-0.06,0.007l0.007,0.032l0.041,0.015l0.097-0.041l0.066-0.001l0.236,0.112l0.009,0.034l-0.009,0.035l0.014,0.036
	l0.03,0.033l0.039,0.03l-0.032,0.036l0.008,0.034l0.028,0.012l0.07,0.044l0.01,0.034l-0.015,0.047l0.021,0.021l0.034,0.012
	l0.025,0.019l0.027,0.058l0.093,0.331l0.006,0.048l0.006,0.083l0.004,0.027l0.01,0.043l0.045,0.105l0.104,0.118l0.03,0.086
	l0.001,0.024v0.022l-0.003,0.022l-0.007,0.021l-0.003,0.039l0.013,0.032l0.021,0.03l0.015,0.032l0.03,0.055l0.051,0.05l0.086,0.063
	l-0.009,0.068l0.023,0.029l0.036,0.023l0.03,0.047l0.004,0.05l-0.01,0.045l-0.003,0.045l0.025,0.049l0.07,0.069l0.023,0.033
	l0.035,0.106l0.054,0.101l0.018,0.03l0.014,0.007l0.044,0.011l0.013,0.007l0.007,0.013l0.021,0.039l0.08,0.118l0.037,0.041
	l0.026,0.042l0.03,0.059l0.032,0.054l0.04,0.02l0.014,0.012l0.104,0.073l0.036,0.049l0.011,0.03v0.022l0.006,0.03l0.029,0.109
	l0.019,0.043l0.026,0.015l0.004,0.046l0.329,0.586l0.103,0.146l0.138,0.116l0.054,0.027l0.176,0.045l0.009,0.036l-0.062,0.009
	l0.007,0.021l0.009,0.014l0.024,0.028l0.018,0.038l0.02,0.034l0.026,0.029l0.032,0.024l-0.015,0.045l-0.023,0.029l-0.063,0.04
	l0.017,0.035l0.02,0.018l0.023,0.006l0.029-0.002l0.006-0.009l-0.001-0.017l0.001-0.012l0.016,0.001l0.011,0.011l0.019,0.022
	l0.014,0.022l-0.003,0.011l0.034-0.012l0.011-0.028l-0.008-0.142l0.068,0.059l0.061,0.034l0.064,0.012l0.129-0.002l0.171,0.072
	l0.659,0.093l0.776,0.306l0.104,0.067l0.053,0.063l0.016,0.043l0.004,0.039l0.023,0.047l0.041,0.037l0.117,0.054l0.052,0.034
	l0.065,0.07l0.082,0.108l0.067,0.117l0.027,0.098l0.02,0.031l0.024,0.029l0.03,0.022l0.034,0.005v0.053l-0.003,0.021l0.031,0.021
	l0.077,0.071l0.03,0.021l0.129,0.012l0.036,0.017l0.044,0.029l0.077,0.022l0.035,0.045l0.056,0.125l0.011,0.02l0.101,0.066
	l0.402,0.082l0.133,0.078l-0.228,0.181l-0.064,0.117l-0.023,0.203l0.102,0.125l0.169,0.302l0.092,0.137l0.443,0.422l0.74,0.676
	l0.09,0.15l0.005,0.162l-0.013,0.021l-0.051,0.062l0.025-0.158l-0.008-0.084l-0.058-0.028l-0.067-0.01l-0.154-0.069l-0.071-0.012
	l-0.056,0.022l-0.098,0.089l-0.06,0.026l-0.075,0.006l-0.074-0.01l-0.068-0.02l-0.063-0.033l-0.383-0.31l-0.124-0.058h-0.111
	l-0.029,0l-0.347,0.183l-0.057,0.01l-0.183,0.028l-0.097,0.039l-0.023-0.004l-0.093-0.059l-0.012-0.01l-0.181,0.008l-0.059,0.03
	l-0.171,0.165l0.029,0.005l0.029,0.009l0.031,0.015l0.029,0.02l0.024-0.083l0.074-0.05l0.09-0.021l0.076,0.007l0.146,0.066
	l0.04,0.028l0.052,0.021l0.045-0.024l0.066-0.077l0.516-0.182l0.092,0.021l0.084,0.088l0.3,0.286l0.152,0.044l0.121,0.091
	l0.061,0.028l0.11-0.002l0.048,0.01l0.186,0.146l0.349,0.178l0.065,0.015l0.06,0.003l0.059,0.014l0.063,0.046l0.02,0.034
	l0.019,0.048l0.021,0.042l0.022,0.016l0.029,0.004l0.104,0.044l-0.014,0.037l0.062,0.029l0.064,0.059l0.055,0.069l0.031,0.063
	l0.421,0.605l0.092,0.174l0.058,0.205l0.004,0.26l-0.009,0.037l-0.03,0.02l-0.057,0.022l-0.042,0.038l-0.2,0.31l-0.049,0.032
	l-0.034,0.038l-0.148,0.377l-0.046,0.077l-0.065,0.041l-0.038,0.039l-0.023,0.073l0.021,0.059l0.095-0.01l0.148-0.063l0.044,0.008
	l0.103,0.052l0.046,0.008l0.084,0.035l0.219,0.205l0.098,0.073l0.044-0.048l0.062-0.02l0.124-0.01l0.057,0.018l0.118,0.103
	l0.05,0.014l-0.01-0.034l-0.035-0.071l0.037-0.1l0.056-0.099l0.022-0.07l-0.016-0.119l0.004-0.136l0.015-0.125l0.02-0.088
	l0.075-0.123l0.131-0.094l0.154-0.058l0.147-0.021l-0.032-0.031l0.055-0.034l0.072,0.004l0.074,0.015l0.068,0.003l0.257-0.046
	l0.128,0.007l0.155,0.041l0.152,0.007l0.118-0.085l-0.036-0.015l-0.041-0.007l-0.037,0.003l-0.038,0.011l-0.01-0.034l0.986,0.043
	l0.414,0.111l0.9,0.405l0.114,0.078l0.104,0.103l0.121,0.213l0.094,0.127l0.08,0.13l0.009,0.105l0.038,0.068l0.034,0.093
	l0.045,0.171l0.134,0.206v0.045l-0.024,0.053l-0.006,0.258l0.016,0.046l0.006,0.046l-0.035,0.364l-0.048,0.185l-0.022,0.042
	l-0.017,0.059l0.027,0.124l0.068,0.21l0.011,0.095l-0.009,0.172l0.013,0.087l-0.007,0.136l0.014,0.066l-0.01,0.029l-0.209,0.143
	l-0.036,0.067l-0.055-0.025l-0.004,0.041l0.008,0.063l-0.015,0.037l-0.018,0.021l-0.042,0.122l-0.148,0.268l-0.02,0.059l-0.031,0.02
	l-0.278-0.216l-0.098-0.01l-0.185-0.088h-0.087l0.008,0.032l0.137,0.077l0.076,0.032l0.148,0.004l0.036,0.01l0.019,0.018l0.02,0.077
	l-0.004,0.022l-0.066-0.003l-0.034,0.011l-0.06,0.032l-0.034,0.011l-0.042-0.001l-0.1-0.038l-0.066,0.017l-0.135,0.077l-0.074,0.026
	l0.09,0.02l0.518-0.065l0.051-0.046l0.014,0.088l-0.174,0.283l0.047,0.022l0.053,0.01l0.116-0.005l0.023-0.035l0.009-0.053
	l0.012-0.008l0.033,0.098l-0.015,0.083l-0.132,0.188l-0.129,0.133l-0.087,0.059l-0.205,0.072l-0.061,0.002l-0.036-0.02l-0.074-0.085
	l-0.138-0.112l-0.043-0.058l0.016,0.091l-0.031,0.06l-0.1,0.074l-0.07,0.104l-0.02,0.016l0.005,0.025l0.007,0.059l0.001,0.059
	l-0.008,0.028l-0.034,0.015l-0.038,0.051l-0.026,0.021l-0.038,0.006l-0.075-0.014l-0.031-0.001l-0.074,0.022l-0.128,0.08
	l-0.058,0.052l0.055,0.013l0.058-0.004l0.059,0.016l0.057,0.068l0.063-0.099l0.185-0.079l0.084-0.055l0.069-0.085l0.052-0.021
	l0.062,0.038l0.016,0.038l0.005,0.048l-0.004,0.038l-0.005,0.01l0.016,0.037l0.023,0.035l0.04,0.052l-0.023,0.031l-0.001,0.042
	l0.031,0.11l-0.004,0.027l-0.019,0.028l-0.037,0.042l0.081-0.021l0.035,0.01l0.017,0.02l-0.047,0.151l-0.12,0.166l-0.115,0.109
	l-0.031,0.029l-0.127,0.068l-0.255,0.009l-0.084,0.021l-0.003-0.001l-0.04,0.007l-0.012,0.004l-0.008,0.003l-0.002,0.008
	l-0.045,0.064l-0.042,0.022l-0.041,0.01l-0.037,0.017l-0.031,0.047l-0.063-0.036l-0.017,0.004l-0.066,0.017l-0.199,0.092
	l-0.008,0.038l0.004,0.049l-0.005,0.056l-0.027,0.055l-0.038,0.034l-0.042,0.023l-0.039,0.035l0.19-0.07l0.021-0.02L1020.5,539
	l0.002-0.037l0.01-0.017l0.188-0.091l0.515-0.025l0.053,0.023l0.057,0.059l0.017,0.045l-0.023,0.031l-0.063,0.02l-0.116-0.001
	l-0.049,0.01l-0.072,0.108l-0.106,0.048l-0.047,0.046l0.03,0.022l0.031,0.028l0.03,0.023l0.032,0.006l0.267-0.05l0.136,0.008
	l-0.04-0.051l-0.032-0.062l0.003-0.049l0.065-0.01l0.023,0.059l0.058,0.08l0.064,0.068l0.043,0.027l0.678-0.055l0.35-0.186
	l0.968-0.285l0.087,0.028l0.016,0.159l-0.003,0.032l-0.006,0.031l-0.012,0.026l-0.015,0.019l-0.11,0.021l-0.012,0.02l0.038,0.099
	l0.044,0.074l0.086,0.114l0.08,0.181l0.024,0.184l-0.02,0.161l-0.057,0.113l-0.188,0.109l-0.067,0.078l-0.033,0.011l-0.068,0.007
	l-0.034,0.02l-0.021,0.035l-0.019,0.04l-0.017,0.028l-0.054,0.037l-0.201,0.045l-0.058,0.028l-0.052,0.052l-0.091,0.132l-0.098,0.25
	l-0.016,0.062l0.042,0.119l0.083,0.174l-0.097,0.063l-0.253-0.028l-0.229-0.024l-0.114,0.063l-0.227,0.344l-0.11,0.076l-0.641,0.268
	l-0.102,0.072l-0.018,0.001l-0.022,0.051l-0.017,0.056l-0.003,0.02l-0.088,0.087l-0.074,0.18l-0.116,0.023l-0.064,0.001
	l-0.157-0.022h-0.036l-0.111,0.022l-0.033-0.011l-0.067-0.041l-0.064-0.008l-0.136,0.015l-0.059-0.008l-0.655-0.097l-0.107,0.01
	l-0.007,0.006l-0.067,0.052l-0.126-0.022l-0.368,0.21l-0.543,0.097l-0.478,0.255l-0.031-0.004l-0.031-0.019l-0.03-0.01l-0.026,0.017
	l-0.007,0.044l0.044,0.084l-0.002,0.052l-0.052,0.043l-0.079-0.01l-0.335-0.124l-0.031-0.024l0.005-0.052l0.035-0.039l0.083-0.051
	l-0.007-0.029l-0.038-0.017l-0.077-0.048l-0.042-0.013l-0.012,0.019l-0.032,0.028l-0.024-0.002l0.015-0.07l-0.039-0.011l-0.033-0.01
	l-0.105-0.001l-0.075,0.014l-0.023,0.003l-0.056,0.026l-0.021,0.091v0.118l-0.021,0.097l-0.082,0.024l-0.081-0.057l0.009-0.089
	l0.037-0.091l0.005-0.068l-0.066-0.019h-0.003l-0.193,0.049l-0.043,0.021l0.133,0.07l0.027,0.024l0.032,0.092l0.001,0.052
	l-0.033,0.045l-0.043,0.005l-0.063-0.011l-0.06-0.024l-0.029-0.024l-0.033-0.041l-0.116-0.035l-0.09-0.048l-0.115-0.018
	l-0.047-0.013l-0.07-0.055l-0.084-0.063l-0.399-0.129l-0.062-0.02l0.007,0.029l0.036,0.011l0.067,0.024l0.041-0.001l0.101,0.077
	l0.315,0.221l0.044,0.061l0.005,0.059l-0.066,0.035l-0.201,0.051l-0.043,0.023l0.027,0.013l0.025,0.016l0.007,0.029l-0.14,0.051
	l-0.075,0.04l-0.029,0.034l-0.014,0.004l-0.11-0.001l-0.059,0.197l-0.003,0.02l-0.005,0.003l-0.066-0.007l-0.081-0.032l-0.229-0.005
	l-0.007,0.002l-0.065,0.011l-0.066,0.031l-0.108,0.081l-0.056,0.023l-0.086-0.001l-0.127-0.003l-0.071,0.016l-0.059,0.029
	l-0.054,0.041l-0.001,0.001l-0.046,0.051l-0.036,0.063l-0.028,0.029l-0.023-0.03l-0.017-0.048l-0.017-0.023l-0.132-0.013
	l-0.083,0.018l-0.027-0.001l-0.016-0.016l-0.004-0.006l-0.039-0.053l-0.019-0.012l-0.024,0.03l-0.071,0.188l0.042-0.013l0.034-0.019
	l0.031-0.026l0.028-0.035l0.099,0.106l0.046,0.029l0.063,0.003l0.054-0.009l0.049,0.003l0.032,0.032l-0.003,0.086l0.055,0.02
	l0.02,0.004l-0.081,0.148l0.024,0.07l-0.054,0.035l-0.262,0.048l-0.058-0.003l-0.271-0.069l-0.615,0.03l-0.128-0.048l-0.066,0.02
	l-0.113,0.058l-0.028,0.05l-0.016,0.109l0.006,0.104l0.041,0.042l0.088,0.013l0.022,0.06l-0.017,0.079l-0.029,0.074l-0.021,0.005
	l-0.045-0.18l-0.104-0.107l-0.796-0.386l-0.605-0.113l-0.074,0.009l-0.18,0.068l-0.054,0.02l-0.101,0.09l-0.074,0.02l-0.132-0.016
	l-0.034,0.017l-0.063,0.069l-0.015,0.011l-0.044,0.052l-0.029,0.017l-0.034,0.003l-0.069-0.019h-0.039l-0.061,0.019l-0.099,0.063
	l-0.127,0.049l-0.026,0.053l-0.016,0.069l-0.035,0.072l-0.217,0.132l-0.074,0.007l-0.059-0.01l-0.055-0.032l-0.057-0.065
	l-0.066-0.108l-0.02-0.018l-0.011-0.005l-0.008-0.008l-0.013-0.009l-0.021-0.003l-0.008,0.012l0.001,0.023l0.009,0.022l0.051,0.038
	l0.081,0.158l0.043,0.059l-0.048,0.062l-0.037,0.074l-0.03,0.089l-0.021,0.102l-0.007,0.138l0.022,0.094l0.104,0.192l-0.073,0.014
	l-0.069,0.029l-0.049,0.046l-0.008,0.073l0.042,0.075l0.063,0.019l0.146-0.026l0.007,0.03l-0.015,0.089l0.001,0.018l-0.028,0.009
	l-0.023,0.017l-0.011,0.026l0.004,0.124l-0.034,0.032l-0.055-0.009l-0.063-0.035v0.11l-0.062,0.05l-0.07,0.029l-0.025,0.05
	l0.001,0.086l-0.013,0.104l0.007,0.115l0.053,0.116l-0.046,0.03l-0.125,0.057l-0.056,0.013l-0.078-0.008l-0.066-0.02l-0.054,0.003
	l-0.038,0.057l-0.147-0.087l-0.24-0.195l-0.259-0.155l-0.041-0.011l-0.029,0.013l-0.075,0.054l-0.031,0.016l-0.016,0.015
	l-0.035,0.053l-0.024,0.014l-0.038-0.002l-0.039-0.013l-0.062-0.037l0.004-0.018l0.003-0.047l-0.077-0.011l-0.086-0.039l-0.05-0.069
	l0.025-0.097l-0.12,0.025l-0.038-0.003l-0.05-0.022l-0.025-0.027l-0.022-0.038l-0.038-0.045l-0.042-0.075l0.011-0.072l0.031-0.071
	l0.021-0.072l-0.06,0.039l-0.034,0.001l-0.043-0.022l-0.002,0.04v0.014l-0.019,0.038l-0.03,0.021l-0.041,0.004l0.006,0.03
	l0.055,0.023l0.025,0.046l-0.001,0.054l-0.021,0.04l-0.041,0.02l-0.164,0.009l0.071,0.067l0.185-0.054l0.085,0.042l-0.108,0.045
	l0.007,0.034l0.025-0.012l0.067-0.001l-0.017,0.039l0.093-0.013l0.007,0.029l-0.034,0.019l-0.018,0.028l0.004,0.033l0.024,0.031
	l0.007,0.03l-0.072,0.004l-0.049-0.055l-0.045-0.063l-0.064-0.025l-0.301-0.03l-0.15,0.034l-0.213,0.173l-0.121,0.063l-0.545,0.102
	l0.003,0.007l-0.008,0.016l-0.015,0.015h-0.02l-0.073-0.124h-0.023l-0.019,0.014l-0.014,0.019l-0.019,0.011l-0.066,0.015
	l-0.064,0.029l-0.03,0.045l0.039,0.059l0.009,0.035l-0.02,0.022l-0.026,0.035l-0.019,0.037l-0.007,0.032l0.012,0.029l0.024,0.029
	l0.004,0.021l-0.021,0.095l-0.001,0.028l-0.026,0.038l-0.172-0.004l-0.059,0.033l-0.049,0.078l-0.052,0.038l-0.135,0.063
	l-0.037,0.047l-0.095,0.243l-0.054-0.057l-0.055-0.169l-0.05-0.031l-0.064,0.026l0.008,0.044l0.016,0.055l-0.031,0.057l0.006,0.031
	l0.024,0.012l0.062,0.047l-0.029,0.002l-0.021,0.013l-0.036,0.03l-0.027,0.027l0.003,0.036l0.01,0.039l-0.007,0.036l-0.025,0.025
	l-0.1,0.058l0.038-0.007l0.03,0.004l0.054,0.021h0.018l0.038-0.012l0.017,0.003l0.012,0.02l0.025,0.063l0.017,0.012l0.022,0.038
	l-0.026,0.094l-0.069,0.146l-0.03,0.013l-0.07-0.004l-0.041,0.01l-0.02,0.021l-0.077,0.121l-0.018,0.118l-0.007,0.028l-0.031-0.008
	l-0.041-0.021l-0.123-0.093l-0.021-0.021l-0.021-0.032l-0.025-0.06l-0.005-0.039l-0.008-0.035l-0.034-0.043l-0.127-0.135
	l-0.065-0.053l-0.075-0.037l-0.223-0.065l-0.144-0.007l-0.126-0.049l-0.061-0.016l-0.071,0.011l-0.083,0.04l-0.054,0.057
	l0.014,0.066l0.037,0.082l-0.024,0.07l-0.054,0.052l-0.046,0.029l-0.132,0.058l-0.159,0.036l-0.139-0.03l-0.064-0.145l0.032-0.007
	l0.022-0.013l0.011-0.021l-0.006-0.03l-0.014-0.022l-0.013-0.012l-0.007,0.002l-0.036-0.09l-0.016-0.052l0.009-0.023l0.003-0.016
	l0.044-0.109l0.024-0.021l0.094-0.045l0.193-0.142l0.109-0.051l0.116-0.093l0.073-0.01l0.123,0.08l0.075,0.022l0.062-0.046
	l0.035-0.078l0.015-0.051l0.001-0.048l0.015-0.02l0.121-0.014l0.112-0.08l0.312-0.42l0.109-0.096l0.042-0.02l0.008-0.025
	l-0.009-0.056l-0.017-0.061l-0.042-0.094l0.032-0.029l0.051-0.01l0.026-0.002l0.21-0.144l0.001-0.028l0.019-0.07l-0.009-0.19
	l-0.016-0.1l-0.005-0.084l0.018-0.069l0.058-0.058l0.069-0.009l0.021-0.02l0.033-0.052l0.025-0.01l0.024,0.023l0.027,0.055
	l0.022,0.066l0.013,0.055l0.021-0.016l0.007-0.01l0.01-0.016l0.067,0.026l0.14-0.011l0.06,0.02l-0.05-0.062l-0.065-0.024
	l-0.118-0.024l-0.065-0.057l-0.004-0.046l0.01-0.042l-0.03-0.048l-0.005-0.03l0.087,0.005l0.245-0.046l0.091-0.041l0.038-0.077
	l0.021-0.092l0.036-0.087l-0.034-0.07v-0.052l0.027-0.028l0.05,0.006l0.197-0.217l0.026-0.064l0.009-0.089l0.049-0.072l0.118-0.115
	l0.056-0.179l-0.106-0.425l-0.005-0.204l0.015-0.044l0.021-0.127l-0.021-0.037l-0.027-0.067l-0.018-0.066l0.011-0.034l0.295-0.035
	l0.038,0.006l0.079,0.039l0.035,0.006l0.196-0.004l0.063-0.028l0.044-0.039l0.173-0.26l0.013-0.03l0.009-0.031l0.014-0.027
	l0.031-0.024l-0.031-0.043l-0.067-0.128l-0.015-0.033l-0.018-0.028l-0.073-0.071l-0.031-0.039l0.112-0.006l0.022-0.011l0.01-0.055
	l-0.015-0.051l-0.035-0.038l-0.04-0.02l-0.008-0.03l0.231-0.125l0.589-0.127l0.113-0.061l0.061-0.017l0.235-0.031l0.069-0.023
	l0.094-0.064l0.058-0.013l0.445,0.046l0.261-0.042l0.428,0.032l0.116,0.073l0.07,0.018l0.368-0.065l0.218-0.1l0.114-0.032
	l0.217-0.02l0.123-0.035l0.078-0.072l0.032,0.03l-0.029,0.074l0.052,0.026l0.033-0.107l0.004-0.035l-0.009-0.063l-0.014-0.029
	l-0.018-0.025l-0.021-0.045l-0.04-0.18l-0.03-0.09l-0.05-0.052l0.067,0.009l0.03-0.019l0,0l0.002-0.045l-0.016-0.075l0.016-0.048
	l0.035-0.05l0.011-0.048l-0.061-0.041l0.055-0.078l0.107,0.004l0.095-0.125l0.155-0.304l0.047-0.05l0.051-0.039l0.059-0.028
	l0.073-0.017l0.063-0.037l0.05-0.071l0.177-0.496l0.021-0.024l0.03-0.019l0.023-0.025l0.002-0.045l-0.002-0.039l0.008-0.048
	l0.011-0.043l0.013-0.031l0.141-0.207l0.076-0.156l0.048-0.036l0.127-0.064l0.041-0.053l0.013-0.058l-0.022-0.055l-0.056-0.035
	l0.007,0.091l-0.046,0.059l-0.068,0.032l-0.062,0.016l-0.056,0.031l-0.032,0.059l-0.022,0.068l-0.032,0.066l-0.162,0.146
	l-0.023,0.035l-0.018,0.052l-0.153,0.262l0,0l-0.069,0.113l-0.051,0.056l-0.144,0.054l-0.103,0.096l-0.051,0.046l-0.126,0.064
	l-0.269,0.056l-0.045-0.01l-0.033-0.031l-0.025-0.031l-0.02-0.013l-0.025,0.025l-0.062,0.111l-0.011,0.032l-0.162,0.139
	l-0.009,0.004l-0.037,0.018l-0.045,0.046l-0.065,0.092l-0.007,0.021l-0.006,0.058l-0.009,0.026l-0.02,0.016l-0.046,0.013
	l-0.016,0.015l-0.001,0.001l0.065,0.097v0.106l-0.043,0.07l-0.066-0.013l-0.05,0.001l-0.208,0.122l-0.827,0.039l-0.066-0.022
	l-0.075-0.065l-0.122-0.111l-0.224-0.121l-0.045,0.001l-0.055,0.035l-0.082-0.023l-0.076-0.052l-0.045-0.045l-0.009-0.02l0.004-0.01
	l0.01-0.004l0.008-0.004l-0.045-0.093l-0.015-0.022l-0.037-0.064l-0.055-0.074l-0.054-0.061l-0.031-0.022l-0.063-0.028l-0.038-0.031
	l-0.072-0.085l-0.035-0.025l-0.045-0.007l-0.102,0.026l-0.24,0.059l-0.043,0.024l-0.038,0.031l-0.021,0.035l0.006,0.046l0.035,0.043
	l0.044,0.042l0.033,0.038l-0.136,0.018l0.003,0.013l-0.011,0.024l-0.017,0.011l-0.014-0.023l-0.013-0.019l-0.025-0.013l-0.028-0.007
	l-0.023-0.001l-0.008,0.013l-0.02,0.049l-0.014,0.011l-0.022-0.004l-0.04-0.02l-0.085-0.007l-0.031,0.001l-0.031,0.02l-0.028,0.034
	l-0.035,0.056l-0.027,0.022l-0.034-0.004l-0.042-0.017l-0.03,0.001v0.052l-0.044,0.004l-0.209-0.052l-0.059,0.003l-0.014-0.017
	l-0.01-0.013l-0.014-0.035l0.052-0.05l-0.02-0.05l-0.042-0.058l-0.017-0.076l0.105-0.047l0.007-0.017l0.023-0.064l0.016-0.029
	l0.028,0.034l-0.021,0.003l0.007,0.031l0.025,0.011l0.026,0.02l0.096-0.045l0.163-0.029l0.148-0.058l0.045-0.116l-0.005-0.032
	l-0.008-0.026l-0.002-0.007l-0.018-0.007l-0.029,0.047l-0.023,0.022l-0.036,0.007l-0.132,0.003l-0.195-0.068l-0.042,0.035
	l-0.25,0.067l-0.076-0.017l-0.102-0.055l-0.097-0.076l-0.062-0.084l0.14,0.001l0.058-0.016l0.021-0.046l-0.058,0.011l-0.064-0.007
	l-0.058-0.028l-0.042-0.055l0.008-0.011l0.012-0.037l0.006-0.047l-0.009-0.043l-0.03-0.031l-0.018,0.017l-0.014,0.056l-0.016,0.018
	l-0.018,0.043l-0.019,0.013l-0.034-0.004l-0.034-0.018l-0.035-0.034l-0.062,0.018l-0.004,0.034l0.036,0.043l0.059,0.041l-0.101,0.07
	l-0.123,0.02l-0.254-0.003l-0.094,0.021l-0.111,0.043l-0.019,0.007l-0.094,0.084l0.019,0.122l-0.028,0.008l-0.006,0.01l0.004,0.019
	v0.038l-0.031,0.146l-0.031-0.006l-0.052-0.031l-0.02,0.018l-0.047,0.062l-0.294,0.026l-0.048,0.017l-0.045,0.038l-0.021,0.039
	l-0.018,0.046l-0.022,0.039l-0.057,0.032l-0.018,0.051l-0.027,0.015l-0.018-0.003l-0.04-0.022l-0.229-0.04l-0.091-0.045l0.02-0.054
	l-0.066-0.09l-0.171-0.02l-0.077-0.061l0.014-0.035l0.262,0.004l-0.011-0.015l-0.017-0.037l-0.01-0.015l0.048-0.007l0.092,0.018
	l0.049,0.001l0.043-0.014l0.098-0.072l0.153-0.05l0.07-0.059l0.031-0.011l0.048,0.017l-0.006-0.031l-0.111-0.074l-0.043-0.118
	l0.034-0.105l0.119-0.043l-0.007-0.037l-0.034,0.03l-0.088,0.046l-0.182,0.038l-0.036,0.026l0.055-0.005l0.043,0.015l0.025,0.043
	l-0.005,0.074l0.055,0.034v0.055l-0.039,0.055l-0.245,0.085l-0.07,0.01l-0.472-0.006l-0.054,0.027l0.049,0.076l-0.03,0.046
	l-0.047,0.004l-0.004-0.055l-0.007-0.029l-0.186-0.1l-0.067-0.01l0.069-0.01l0.045-0.013l0.032-0.029l0.029-0.055l0.037-0.046
	l0.107-0.034l0.053-0.03l0.042-0.053v-0.049l-0.041-0.121l-0.02-0.076l-0.029-0.073l-0.038-0.056l-0.055-0.034l-0.015,0.036
	l-0.069-0.042l-0.133-0.001l-0.066-0.031l-0.041,0.038l-0.176,0.053l-0.064,0.007l0.02-0.021l0.02-0.014l-0.008-0.036l-0.016-0.02
	l-0.009-0.016l0.005-0.017l0.028-0.021l-0.005-0.031l-0.04-0.059l0.025-0.034l0.118-0.02l0.056-0.029l0.081-0.105l0.038-0.025
	l0.098-0.025l0.126-0.06l0.087-0.095l-0.017-0.127l0.047-0.006l-0.006-0.029l-0.047-0.026l-0.001-0.035l0.031-0.028l0.052-0.017
	l0.09-0.006l0.04,0.007l0.192,0.067l0.063-0.006l0.088-0.047l-0.036-0.063l0.063,0.003l0.137,0.031l0.072,0.004l0.026-0.024
	l-0.016-0.047l-0.026-0.053l-0.008-0.045l0.021-0.021l0.105-0.029l0.055-0.049l0.036-0.059l0.055-0.132l0.048-0.067l0.044-0.005
	l0.124,0.066l-0.037-0.143l0.112-0.071l0.406-0.032l0.034-0.019l0.017-0.026l0.008-0.035l0.016-0.031l0.09-0.039l0.056-0.049
	l0.053-0.062l0.073-0.118l0.041-0.034l0.051-0.021l0.065-0.011l0.056-0.023l0.318-0.353l0.134-0.271l0.059-0.184l0.02-0.115
	l-0.017-0.21l0.004-0.115l0.013-0.105l0.021-0.074l-0.026-0.042l-0.02-0.057l-0.008-0.059l0.011-0.043l0.024-0.008l0.077,0.027
	l0.035,0.002l0.053-0.026l0.14-0.133l-0.009-0.036l-0.086,0.011l-0.153,0.074l-0.084,0.025l-0.058-0.032l-0.188-0.171l-0.053-0.071
	l-0.016-0.122l0.026-0.127l0.047-0.102l0.049-0.043l0.01-0.015v-0.067l0.003-0.021l0.011-0.008l0.031-0.017l0.11-0.111l0.03-0.054
	l-0.082,0.02l-0.046,0.047l-0.053,0.019l-0.304-0.25l-0.087-0.113l-0.025-0.043v-0.041l0.053-0.023l0.029-0.04l-0.024-0.074
	l-0.042-0.073l-0.021-0.031l-0.015-0.07v-0.034l0.016-0.022l0.163-0.148l-0.025-0.007l-0.012-0.007l-0.015-0.018l-0.028,0.043
	l-0.031,0.026l-0.033-0.004l-0.037-0.051l-0.07,0.067l-0.086,0.017l-0.187-0.007l-0.218,0.093l-0.046,0.036l-0.057,0.043
	l-0.224,0.022l-0.06,0.039l-0.05,0.056l-0.088,0.136l0.015,0.011l0.012,0.02l-0.045,0.035l-0.018,0.059l0.012,0.064l0.05,0.047
	l-0.032,0.045l-0.02,0.021l-0.021,0.011h-0.04l-0.056-0.046l-0.073-0.014l-0.072-0.041l-0.039-0.005l-0.036,0.013l-0.019,0.022
	l-0.014,0.024l-0.02,0.02l-0.068,0.023l-0.183,0.003l-0.042,0.032l-0.035,0.055l-0.042,0.025l-0.056-0.024l0.023-0.049l-0.001-0.022
	l-0.019-0.029l0.014-0.026l0.03-0.084l0.347-0.53l0.044-0.031l0.059-0.011l0.056-0.024l0.057-0.038l0.22-0.214l0.041-0.108
	l0.183-0.15l0.013-0.067l-0.005-0.089l-0.037-0.206l-0.004-0.059l0.017-0.021l0.024,0.007l0.016,0.034l0.02,0.029l0.02-0.042
	l0.012-0.06l-0.001-0.021l0.097-0.157l0.031-0.029l0.051-0.029l0.031-0.058l0.039-0.136l0.053-0.09l0.073-0.062l0.087-0.037
	l0.1-0.02l0.027,0.006l0.029,0.011l0.025,0.005l0.034-0.032l0.063-0.038l0.071-0.028l0.09-0.097l0.317-0.174l0.106-0.013
	l-0.051-0.087l-0.112-0.078l-0.037-0.056h0.06l0.064,0.01l0.063,0.024l0.051,0.042l0.056-0.038l0.072,0.013l0.077,0.049l0.068,0.067
	l0.056,0.022l0.358-0.052l0.12-0.042l0.536-0.349l0.13-0.021l0.132,0.041l0.077,0.042l0.04,0.045l0.044,0.033l0.46,0.198
	l0.058,0.045l0.052,0.056l0.029,0.02l0.005-0.021l-0.021-0.096l0,0l-0.02-0.083l-0.048-0.052l-0.065-0.071l-0.111-0.142
	l-0.145-0.126l-0.06-0.067l-0.021-0.077l0.022-0.052l0.05-0.038l0.13-0.035l0.059-0.031l0.093-0.1l0.072-0.004l0.093,0.074
	l0.289,0.431l0.071,0.062l0.093,0.054l0.1,0.028l0.096-0.017v-0.01l-0.001-0.021l0.006-0.023l0.02-0.017l0.029-0.001l0.052,0.017
	l0.025,0.002l0.049-0.011l0.042-0.017l0.074-0.06l-0.031-0.059l-0.002-0.046l0.016-0.038l0.021-0.032l0.029,0.008l0.026-0.007
	l0.024-0.02l0.02-0.032l-0.045,0.004l-0.148,0.055l-0.029,0.025l-0.005,0.074l-0.049,0.034l-0.033,0.001l-0.107,0.001l-0.144-0.03
	l-0.14-0.064l-0.123-0.088l-0.101-0.1l-0.53-0.697l-0.032-0.065l-0.009-0.069l0.02-0.083l0.132-0.344l0.119-0.222l0.021-0.021
	l0.016-0.055l0.105-0.099l0.027-0.056l-0.268,0.03l-0.124-0.034l-0.113-0.106l-0.06-0.162l-0.05-0.375l-0.067-0.132l0.03-0.091
	l0.062-0.051l0.261-0.137l0.05-0.011l0.048,0.025l0.025,0.006l0.005-0.023l0.003-0.031l0.019-0.029l0.023-0.021l0.02-0.014
	l-0.047-0.05l0.083-0.117l-0.004-0.081l-0.046,0.044l-0.049,0.027l-0.093,0.021l-0.018-0.011l-0.073-0.1l-0.016-0.039l0.015-0.03
	l0.027-0.028l0.021-0.029l0.035-0.113l0.032-0.051l0.09-0.051l0.023-0.053l0.03-0.138l-0.069-0.066l-0.104-0.127l-0.063-0.078
	l-0.021-0.045l0.061-0.032l0.055-0.072l0.026-0.093l-0.025-0.095l-0.021,0.003l0.005,0.075l-0.029,0.064l-0.075,0.08l-0.098,0.07
	l-0.046,0.049l-0.012,0.056l-0.008,0.077l-0.051,0.042l-0.135,0.026l-0.05-0.026l-0.06-0.067l-0.035-0.076l0.017-0.055l-0.035-0.055
	l-0.039-0.044l-0.041-0.018l-0.036,0.025l0.029,0.066l0.007,0.069l-0.004,0.067l0.004,0.056l-0.005,0.042l-0.066,0.123l-0.029,0.109
	l-0.021,0.052l-0.074,0.053l0.006,0.057l0.024,0.066l0.01,0.056l-0.142-0.13l-0.033-0.021l-0.051,0.003l-0.045-0.006l-0.042-0.018
	l-0.037-0.031l-0.009-0.078l-0.002-0.086l-0.018-0.071l-0.056-0.032l-0.008-0.034l0.096-0.043l-0.007-0.146l-0.045-0.167
	l-0.017-0.101l-0.044,0.033l-0.013,0.055l-0.002,0.127l0.049,0.093l-0.041,0.028l-0.072,0.002l-0.048,0.015l-0.058,0.034
	l-0.081-0.056l-0.153-0.174l-0.116-0.098l-0.056-0.062l-0.035-0.078l-0.001-0.039l0.005-0.042l-0.004-0.044l-0.039-0.068
	l-0.018-0.05l-0.011-0.008l-0.082-0.026l-0.151-0.194l-0.086-0.054l-0.375-0.351l-0.057-0.02l-0.02-0.015l-0.049-0.068l-0.039-0.031
	l0.015-0.04l0.024-0.039l0.012-0.013l0.027-0.18l-0.005-0.397l0.054-0.236l0.016-0.128l0.012-0.046l0.021-0.023l0.062-0.032
	l0.028-0.026l0.029-0.052l0.029-0.088l0.005-0.098l-0.047-0.081l0.034-0.302l0.03-0.142l0.054-0.09l0.057-0.02l0.041,0.021
	l0.041,0.034l0.053,0.012l0.032-0.007l0.111-0.078l-0.045-0.024l-0.17-0.057l0.061-0.09l0.038-0.038l0.181-0.076l0.039,0.006
	l0.027,0.015l0.022,0.019l0.027,0.016l0.123,0.023l0.062-0.003l0.236-0.101l0.045-0.042l-0.208,0.025l-0.009-0.034l0.057-0.017
	l0.04-0.034l0.042-0.023l0.063,0.015l-0.009-0.037l-0.081-0.023l-0.012,0.004l0,0l-0.244,0.097l-0.986,0.039l-0.055-0.008
	l-0.054-0.02l-0.048-0.01l-0.04,0.022l0.011,0.009l0.004,0.001l0.003,0.004l0.01,0.021l-0.048,0.029l-0.051-0.014l-0.104-0.063
	l-0.01,0.141l0.037,0.05l0.036,0.097l0.03,0.107l0.012,0.081l-0.016,0.084l-0.045,0.034l-0.292,0.004l-0.077,0.021l-0.043,0.112
	l-0.225-0.009l0.013,0.024h0.003l0.012,0.009l-0.022,0.021l-0.024,0l-0.022-0.019l-0.023-0.03l0.021-0.065l0.017,0.005l0.021,0.021
	l-0.014-0.037l-0.008-0.014l-0.014-0.014l-0.025,0.06l-0.038,0.048l0.025,0.051l0.011,0.019l-0.019,0.007l-0.036,0.037l0.128,0.087
	l-0.026,0.027l-0.145,0.084l-0.205,0.197l-0.143,0.033l-0.098,0.003l-0.009-0.037l-0.013-0.004l-0.011-0.002l-0.012-0.006
	l-0.01-0.013l0.005-0.015l0.005-0.019v-0.005l-0.017-0.049l-0.001-0.066l-0.018-0.05l-0.047-0.014l-0.007-0.024l-0.036,0.042
	l-0.021,0.075l0.009,0.086l0.046,0.075l-0.116,0.032l-0.18-0.081l-0.145-0.158l-0.017-0.203l-0.04,0.03l-0.056,0.098l-0.045,0.029
	l-0.047-0.001l-0.252-0.081l-0.043-0.024l-0.034-0.032l-0.045-0.069l-0.026-0.053l-0.028-0.033l-0.053-0.008l-0.014,0.024
	l-0.015,0.054l-0.007,0.064l0.002,0.054l0.055,0.115l0.039,0.071l0.027,0.031l0.051-0.002l0.046,0.007l0.046,0.023l0.047,0.043
	l0.023,0.063l-0.015,0.06l-0.003,0.062l0.06,0.069l-0.023,0.076l0.033,0.104l0.036,0.093l-0.013,0.043l-0.016,0.012l-0.011,0.025
	l-0.015,0.025l-0.029,0.014l-0.073-0.002l-0.072-0.021l-0.09-0.049l-0.032-0.009l-0.11,0.014l-0.031-0.017l-0.235-0.242
	l-0.122-0.085l-0.411-0.178l-0.147-0.025l-0.076-0.033l-0.086-0.136l-0.073-0.022l-0.118,0.014l-0.067,0.037l-0.062,0.059
	l-0.048,0.068l-0.034,0.068l-0.019,0.046l-0.007,0.031l0.002,0.027l0.009,0.036l0.015,0.042l0.026,0.056l0.035,0.051l0.035,0.019
	l0.033,0.052l0.06,0.115l0.074,0.114l0.104,0.063l0.011,0.043l0.002,0.092l0.008,0.046l0.006,0.024l0.059,0.077l-0.071-0.01
	l-0.148-0.055l-0.066-0.01l-0.037-0.032l-0.036-0.077l-0.015-0.083l0.028-0.05l-0.03-0.029l-0.021-0.032l-0.007-0.035l0.006-0.039
	h-0.06l-0.027-0.008l-0.025-0.016l-0.022-0.043l-0.028-0.07l-0.033-0.063l-0.036-0.025l-0.068-0.022l-0.364-0.309l-0.121-0.143
	l-0.094-0.174l-0.058-0.199l-0.027-0.183l0.004-0.093l0.036-0.044l0.066-0.002l0.032-0.007l0.013-0.018l0.003-0.06l0.035,0.025
	l0.042,0.054l0.017,0.025l0.062,0.067l0.033,0.046l0.025,0.052l0.014,0.054l0.021,0.123l0.023,0.045l0.053,0.05l0.061,0.041
	l0.058,0.004l0.043-0.059l0.007-0.021l0.009-0.019l-0.007-0.035l-0.154-0.2l-0.028-0.044l-0.017-0.04l-0.003-0.008l-0.064-0.096
	l-0.021-0.058l-0.021-0.112l-0.001-0.034l0.004-0.044l0.029-0.127l0.008-0.071l-0.013-0.103l0.008-0.096l0.048-0.063l0.112-0.088
	l0.148-0.272l0.013-0.012l0.03-0.011l0.002-0.017l-0.012-0.054l-0.003-0.025l0.036-0.176l0.002-0.045l-0.007-0.05l-0.031-0.109
	l-0.004-0.047l0.011-0.033l0.077-0.127l0.048-0.049l0.018-0.032l0.008-0.05l0.003-0.119l0.017-0.06l0.081-0.093l0.187-0.109
	l0.053-0.107l-0.002-0.139l-0.054-0.119l-0.092-0.082l-0.119-0.025l0.046-0.097l-0.003-0.005l-0.036-0.105l-0.088-0.099
	l-0.104-0.063l-0.182-0.056l-0.1,0.005l-0.032-0.016l0.013-0.049l-0.007-0.038l-0.201-0.094l-0.117-0.076l-0.075-0.078l0.106-0.146
	l0.024-0.112l-0.049-0.17l-0.031-0.06l-0.027-0.041l-0.026-0.051l-0.063-0.217l-0.002-0.004l-0.04-0.139l-0.009-0.138l0.024-0.092
	l0.059-0.061l0.087-0.046l0.055-0.016l0.043,0.001l0.211,0.069l0.054,0.004l0.032-0.018l0.072,0.033l0.522,0.031l0.063-0.053
	l-0.344-0.039l-0.126-0.013l-0.148-0.068l-0.194-0.172l-0.132-0.034l-0.067-0.049l-0.063-0.063l-0.047-0.062l-0.072-0.149
	l-0.006-0.023l-0.049-0.007l-0.008,0.04l0.013,0.051l0.032,0.062l0.186,0.193l0.055,0.088l-0.011,0.042l-0.055,0.015l-0.074,0.005
	l-0.078-0.023l-0.047-0.069l-0.029-0.092l-0.044-0.192l-0.004-0.043l0.059-0.302l0.147-0.344l-0.002-0.073l-0.018-0.019
	l-0.028,0.025l-0.029,0.058l-0.104,0.354l-0.031,0.064l-0.064,0.008l-0.03-0.038l-0.028-0.156l-0.026-0.068l-0.042-0.049
	l-0.044-0.011l-0.031,0.05l0.053,0.089l0.08,0.176l0.062,0.172l0.009,0.08l-0.036,0.018v0.039l0.034,0.102l0.021,0.099l0.021,0.068
	l0.029,0.057l-0.038,0.024l-0.05-0.012l-0.055-0.021l-0.054-0.01l0.007,0.035l0.042,0.014l0.046,0.023l0.039,0.037l0.027,0.057
	l0.003,0.074l-0.02,0.051l-0.026,0.044l-0.019,0.047l-0.001,0.061l0.001,0.05l-0.003,0.048l-0.02,0.054l-0.035,0.048l-0.033,0.008
	l-0.101-0.011l-0.061-0.053l-0.071-0.126l-0.06-0.142l-0.033-0.1l-0.153-0.144l-0.03-0.064l-0.031-0.04l-0.041,0.04l0.065,0.081
	l0.173,0.267l0.045,0.104l-0.016,0.051l-0.063-0.014l-0.233-0.139l-0.041-0.064l-0.021-0.106l-0.022,0.041l-0.015,0.069
	l-0.005,0.073l0.005,0.05l-0.008,0.039l-0.064,0.13l0.102,0.137l0.047,0.076l0.04,0.089l-0.058,0.005l-0.148-0.063l-0.11-0.026
	l-0.039-0.037l-0.045-0.125l-0.021-0.018l-0.027-0.01l-0.028-0.025l-0.018-0.034l-0.013-0.048l-0.016-0.094l-0.002-0.04l0.021-0.059
	l-0.003-0.043l-0.015-0.043l-0.066-0.146l0.059-0.086l0.223-0.57l0.164-0.083l0.109-0.103l0.021-0.033l0.062-0.24l0.035-0.071
	l0.08-0.064l0.106-0.057l0.091-0.082l0.032-0.139l-0.047,0.039l-0.088,0.125l-0.046,0.03l-0.121,0.019l-0.048,0.025l-0.037,0.042
	l-0.021,0.066l-0.037,0.184l-0.021,0.04l-0.317,0.259l-0.181,0.381l-0.024,0.018l-0.055,0.008l-0.021,0.017l0.007,0.025
	l-0.001,0.074l-0.006,0.063l-0.01-0.004l-0.018,0.06l-0.063,0.024h-0.077l-0.062-0.013l-0.007-0.024l-0.01-0.043l-0.013-0.033
	l-0.02,0.015l-0.007,0.028l0.005,0.032l0.01,0.034l0.032,0.274l0.013,0.012l0.051,0.019l0.019,0.003l0.05,0.099l0.023,0.058
	l0.013,0.047l0.019,0.039l0.045,0.032l0.006,0.031l-0.021,0.002l0.007,0.034l0.015,0.005l0.036,0.023l-0.013,0.011l-0.011,0.018
	l-0.013,0.013l0.204,0.158l0.101,0.115l0.055,0.127l-0.007,0.072l-0.036,0.037l-0.098,0.039l-0.041,0.035l-0.112,0.159l-0.024,0.05
	l-0.018,0.058l-0.01,0.066l0.001,0.042l0.011,0.091v0.042l-0.058,0.052l0.011,0.022l0.017,0.021l0.009,0.014l0.018,0.116
	l0.035,0.029l0.039,0.007l0.034,0.049l-0.006,0.068l-0.044,0.023l-0.031,0.032l0.038,0.094l-0.042,0.125l-0.009,0.052l0.002,0.026
	l0.022,0.096l0.004,0.042l-0.01,0.004l-0.016-0.006l-0.012,0.015l-0.034,0.175l-0.036,0.073l-0.063,0.046l0.005,0.032l0.039-0.01
	l0.033,0.01l0.033,0.025l0.036,0.036l0.073,0.111l0.007,0.021l0.044,0.029l-0.018,0.079l-0.075,0.143l-0.041,0.054l-0.053,0.05
	l-0.063,0.038l-0.07,0.02l-0.031-0.004l-0.066-0.024l-0.037,0.001l-0.03,0.017l-0.062,0.052l-0.033,0.014l-0.092,0.005l-0.059-0.016
	l-0.045-0.06l-0.079-0.214l-0.03-0.115l-0.001-0.1l0.074-0.075l0.093-0.138l0.02-0.055l-0.02-0.106l-0.037-0.113l-0.028-0.113
	l0.015-0.153l-0.021-0.036l-0.028-0.032l-0.017-0.036l0.001-0.057l0.044-0.156l0.03-0.183l-0.007-0.103l-0.049-0.067l0.142-0.145
	l0.01-0.06l0.007-0.071l0.028-0.092l0.038-0.078l0.035-0.034l0.081-0.043l0.088-0.102l0.069-0.14l0.027-0.158l-0.235,0.337
	l-0.094,0.093l-0.035,0.017l-0.04,0.004l0.008-0.067l-0.09-0.025l-0.047-0.02l-0.053-0.048l-0.036-0.067l-0.03-0.136l-0.023-0.039
	l0.094-0.193l0.012-0.042l0.006-0.069l0.035-0.057l0.046-0.053l0.036-0.061l-0.063,0.039l-0.082,0.123l-0.072,0.045l-0.046,0.058
	l-0.028,0.003l-0.028-0.033l-0.031-0.057l-0.017-0.056l0.241-0.513l0.014-0.066l-0.02-0.021l0.016-0.02l0.013-0.027l-0.044-0.013
	l-0.033,0.023l-0.035,0.038l-0.043,0.031v0.097l-0.104,0.153l0.023,0.112l-0.033,0.094l-0.008,0.018l-0.033-0.009l-0.016-0.028
	l-0.001-0.037l0.005-0.031l-0.009-0.137l0.071-0.217l0.169-0.33l0.007-0.019v-0.023l0.003-0.022l0.019-0.012l0.021,0.004l0.027,0.01
	l0.02,0.01l0.003,0.007l0.01,0.01l0.029,0.015l0.024,0.001l-0.002-0.031l-0.021-0.031l-0.024-0.019l-0.021-0.011l-0.01-0.007
	l-0.036-0.079l-0.014-0.043l0.005-0.034l0.07-0.152l0.011-0.047l0.006-0.071l-0.087,0.032l-0.055,0.084l-0.043,0.093l-0.062,0.059
	v-0.106l0.018-0.108l0.033-0.101l0.042-0.086l-0.041-0.066l0.026-0.056l0.059-0.042l0.058-0.018l0.032-0.019l-0.002-0.038
	l-0.027-0.035l-0.043-0.014l-0.121,0.047l-0.023,0.017l-0.022,0.035l-0.025,0.029l-0.03-0.004l-0.027-0.043l-0.004-0.059
	l0.013-0.109v-0.192l0.017-0.069l0.046-0.064l0.063,0.029l0.081-0.016l0.142-0.068l-0.006-0.031l-0.073,0.01l-0.124,0.051
	l-0.069-0.011l0.027-0.173l0.016-0.042l0.028-0.023l0.035-0.02l0.021-0.027l-0.021-0.042l0.057-0.105l0.093-0.055l0.302-0.046
	l0.258,0.047l0.097-0.031l0.067-0.072l0.143-0.259l0.058-0.217l0.046-0.088l-0.061,0.038l-0.022,0.079l-0.015,0.094l-0.031,0.082
	l-0.103,0.114l-0.049,0.114l-0.026,0.036l-0.126,0.025l-0.338-0.047l-0.07,0.077l-0.056-0.029l-0.089-0.192l-0.037,0.022
	l-0.026,0.047l-0.036,0.115l-0.048-0.028l0.059-0.253l0.003-0.074l0.086,0.063l0.079,0.023l0.069-0.007l0.05-0.027l0.125-0.115
	l0.069-0.039l0.033-0.029l0.023-0.047l-0.09,0.066l-0.033,0.01l-0.061,0.001l-0.013,0.004l-0.043,0.042l-0.031,0.015l-0.055,0.055
	l-0.035,0.012l-0.039-0.013l-0.061-0.048l-0.041-0.002l0.002-0.039l0.008-0.018l0.011-0.011l0.015-0.024l0.008-0.025l0.001-0.044
	l0.004-0.02l0.051-0.146l0.021-0.036l0.103-0.115l0.012-0.034l0.013-0.034l-0.066-0.034l-0.008-0.038l0.024-0.017l0.055-0.061
	l0.079,0.003l0.039-0.006l0.073-0.081l0.068-0.005l0.138,0.029l0.06-0.021l0.103-0.083l0.232-0.07l0.045-0.038l-0.477,0.139
	l-0.257-0.09l-0.007-0.031l0.017-0.073l0.015-0.028l0.16-0.223l0.038-0.088l0.03-0.104l-0.148,0.163l-0.018,0.043l-0.006,0.034
	l-0.026,0.031l-0.032,0.023l-0.03,0.009l-0.022,0.018l-0.003,0.039l0.003,0.045l-0.001,0.042l-0.024,0.079l-0.031,0.046
	l-0.041,0.021l-0.053,0.008l-0.024,0.012l-0.019,0.048l-0.06,0.027l-0.019,0.032l-0.02,0.065l-0.067,0.108l-0.042,0.034l-0.06,0.015
	l-0.026,0.024l-0.025,0.096l-0.023,0.024l-0.036,0.012l-0.031,0.029l-0.025,0.037l-0.088,0.18l-0.157,0.238l-0.176,0.171
	l-0.019,0.009l-0.031-0.018l-0.049-0.066l-0.035-0.011l-0.052-0.006l-0.063-0.02l-0.061-0.032l-0.044-0.037l0.03-0.087l0.005-0.042
	l-0.005-0.051l-0.022,0.002l-0.085,0.154l-0.192-0.025l-0.522-0.323l-0.027-0.039l-0.011-0.082l0.023-0.04l0.042-0.019l0.15-0.019
	l0.109,0.013l0.106,0.041l0.101,0.072l0.016-0.04l-0.085-0.05l-0.037-0.032l-0.01-0.051l0.282-0.223l0.073-0.013l0.209,0.082
	l0.08,0.009l0.159-0.021l0.084-0.029l0.057-0.044l-0.275,0.054l-0.068-0.006l-0.171-0.081l-0.131-0.023l-0.298,0.192l-0.109,0.038
	l-0.031,0.003l-0.043-0.014l-0.076-0.041l-0.042-0.007l-0.208,0.028l-0.236-0.044l-0.076,0.012l-0.049,0.058l-0.05,0.039
	l-0.078-0.011l-0.078-0.034l-0.047-0.034l-0.021-0.028l-0.019-0.027l-0.015-0.03l-0.01-0.034l-0.004-0.049l0.015-0.003l0.022,0.008
	l0.021-0.014l0.047-0.102l0.034-0.034l0.459-0.074l0.034-0.019l0.092-0.081l0.042-0.02l0.054,0.008l0.036,0.027l0.035,0.035
	l0.053,0.029l0.173,0.056l0.029,0.019l-0.014-0.056l-0.025-0.054l-0.038-0.036l-0.056-0.004l-0.008-0.039l0.035-0.006l0.039,0.001
	l0.038,0.011l0.038,0.024l0.035-0.056l0.063-0.025l0.081,0.015l0.064,0.012l-0.25-0.091l-0.069-0.062l-0.013-0.057l0.034-0.042
	l0.306-0.061l0.115-0.061l0.079-0.099l-0.044-0.016l-0.054,0.009l-0.046,0.028l-0.031,0.09l-0.062,0.001l-0.124-0.022l0.016-0.054
	l0.096-0.131l-0.142-0.016l-0.272,0.078l-0.148-0.027l0.098-0.032l0.105-0.013l-0.008-0.038l-0.026-0.013l-0.072-0.056l0.042-0.063
	l0.014-0.108l0.003-0.121l0.014-0.104l0.041-0.067l0.072-0.062l0.088-0.037l0.081,0.009l0.034,0.031l0.08,0.097l0.044,0.041
	l0.049,0.029l0.052,0.017l0.102,0.009l0.157-0.048l0.131-0.077l-0.007-0.035l-0.05,0.018l-0.042,0.028l-0.043,0.018l-0.044-0.018
	l-0.059,0.05l-0.068-0.014l-0.071-0.036l-0.066-0.019l-0.052-0.025l-0.001-0.067l-0.01-0.072l-0.074-0.04l-0.026,0.005l-0.057,0.03
	l-0.033,0.007l-0.032-0.011l-0.061-0.044l-0.034-0.008l-0.04-0.036l0.028-0.088l0.097-0.16l0.022-0.059l0.018-0.021l0.037-0.006
	l0.091,0.004l0.026-0.027l0.048-0.033l0.08,0.024l0.146,0.083l0.066,0.027l0.297-0.015l0.012-0.018l0.016-0.039l0.049-0.006
	l0.051,0.01l0.024,0.008l0.021-0.002l-0.009-0.038l-0.065-0.031l-0.243,0.057l-0.065,0.032l-0.039,0.008l-0.024-0.017l-0.096-0.087
	l-0.04-0.028l-0.266-0.057l-0.048-0.05l0.004-0.09l0.077-0.147l0.025-0.074l-0.073-0.084l0.054-0.102l0.11-0.083l0.1-0.028
	l0.11,0.063l0.115,0.101l0.116,0.065l0.108-0.042l-0.006-0.036l-0.131-0.02l-0.032-0.021l-0.06-0.072l-0.037-0.034l-0.032-0.012
	l-0.034-0.033l0.023-0.079l0.058-0.078l0.067-0.031l-0.007-0.039l-0.08-0.024l-0.041,0.046l-0.025,0.066l-0.029,0.034l-0.048,0.019
	l-0.092,0.078l-0.056,0.022l-0.064-0.004l-0.124-0.043l-0.062-0.008l-0.121,0.047l-0.063-0.001l-0.039-0.069l0.009-0.019
	l0.039-0.164l0.02-0.025l0.058-0.042l0.02-0.028l0.022-0.024l0.026,0.02l0.023,0.034l0.019,0.018l0.068-0.017l0.305-0.169
	l0.11-0.125l-0.003-0.147l-0.054-0.008l-0.064,0.083l-0.101,0.188l-0.066,0.061l-0.072-0.005l-0.079-0.029l-0.089-0.008l0.064-0.048
	l0.019-0.036l-0.016-0.044l-0.038-0.062l-0.013-0.034l-0.012,0.002l-0.039,0.046l-0.152,0.261l-0.068,0.041l-0.152,0.031
	l-0.076-0.029l-0.092-0.202l0.01,0.004l0.012-0.009l0.012-0.017l0.002-0.015l-0.013-0.018l-0.035-0.039l-0.007-0.016l-0.016-0.07
	l0.003-0.035l0.024-0.036l-0.033-0.016l-0.098-0.02l-0.021-0.011l-0.018-0.055l-0.045-0.089l-0.021-0.067l0.003-0.037l0.023-0.091
	l0.005-0.033l-0.011-0.074l-0.014-0.066l0.005-0.041l0.046-0.003l-0.011-0.022l-0.021-0.059l-0.011-0.024l0.05-0.023l0.055,0.006
	l0.058,0.03l0.19,0.146l0.058,0.032l0.022-0.021l0.065,0.072l0.031,0.018l0.101,0.055l0.035,0.006l-0.022-0.028l-0.014-0.026
	l-0.013-0.025l-0.014-0.024l0.208-0.049l0.128,0.014l0.068-0.006l0.007-0.035l-0.105-0.066l-0.141-0.021l-0.129,0.024l-0.069,0.073
	l-0.124-0.107l0.013-0.016l0.015-0.054l-0.104-0.011l-0.067-0.078l-0.058-0.1l-0.07-0.08l-0.05-0.015l-0.047-0.003l-0.042-0.019
	l-0.027-0.064l0.005-0.063l0.049-0.067l-0.026-0.046l-0.008-0.039l0.099-0.066l0.057-0.005l0.105,0.088l0.036-0.008l0.023-0.041
	l0.013-0.058l-0.035-0.007l-0.025-0.024l-0.027-0.033l-0.036-0.032l-0.038-0.019l-0.259-0.041l-0.021-0.055l-0.011-0.136
	l-0.018-0.061v-0.043l-0.046-0.104l-0.018-0.065v-0.057l0.013-0.052l0.022-0.044l0.033-0.033l0.07-0.033l0.077-0.005l0.081,0.019
	l0.083,0.041l0.002,0.071l0.03,0.103l0.04,0.104l0.038,0.075l0.04,0.053l0.046,0.037l0.05,0.019l0.048-0.004l-0.026-0.024
	l-0.02-0.024l-0.035-0.062l0.037-0.004l0.031,0.006l0.062,0.03l-0.039-0.101l-0.003-0.074l-0.008-0.068l-0.057-0.077l-0.134-0.096
	l-0.05-0.057l0.021-0.055l-0.024-0.004l-0.011-0.009l-0.013-0.02l0.019-0.051l0.052-0.091l0.017-0.042l0.053,0.048l0.035,0.019
	l0.109-0.006l0.011,0.143l0.105,0.1l0.133,0.054l0.098,0.005l-0.025-0.034l0.026-0.047l0.006-0.15l0.017-0.057l0.038-0.002
	l0.146,0.047l0.047,0.03l0.102,0.089l0.112,0.052l0.229,0.065l-0.059-0.069l-0.04-0.03l-0.093-0.032l-0.154-0.119l-0.207-0.07
	l-0.028-0.02l-0.01-0.03l-0.009-0.011l-0.004-0.015l0.006-0.035l0.017-0.006l0.027,0.022l0.022,0.003l0.005-0.064l0.062,0.03
	l0.105,0.109l0.072,0.03l0.033-0.004l0.05-0.031l0.031-0.007l0.039,0.009l0.075,0.041l0.031,0.008l0.041,0.021l0.128,0.094
	l0.136,0.046l0.114,0.138l0.067,0.034l-0.022-0.026l-0.029-0.045l-0.028-0.049l-0.014-0.036l-0.022-0.034l-0.345-0.225l-0.076-0.014
	l-0.008-0.039l0.059-0.002l0.016-0.041l-0.017-0.06l-0.04-0.063l-0.042-0.028l-0.1-0.012l-0.049-0.035l-0.09-0.015l-0.151-0.138
	l-0.078-0.01l0.005-0.015v-0.004l0.011-0.016l-0.056-0.057l-0.063-0.016l-0.12,0.015l0.007-0.023l0.002-0.018l0.006-0.017
	l0.012-0.02l-0.007-0.035l-0.132-0.161l0.042-0.074l0.119,0.023l0.097,0.133l0.055-0.053l0.067,0.016l0.066,0.005l0.053-0.089
	l-0.019,0.001l0.006-0.053l-0.013-0.047l-0.022-0.042l-0.027-0.035l0.04-0.003l-0.007-0.035l-0.068-0.036l0.033-0.029l0.081-0.024
	l0.034-0.024l-0.008-0.039l-0.096,0.01l-0.048-0.007l-0.048-0.027l0.016-0.034l-0.026-0.024l-0.029-0.019l-0.028-0.015l-0.03-0.007
	l0.001-0.024l-0.003-0.062l0.002-0.024l-0.038,0.001l-0.032-0.017l-0.176-0.19l-0.014-0.087l0.043-0.018l0.074,0.024l0.139,0.074
	l0.052,0.01l0.048-0.016l0.101-0.081l0.059-0.023l0.065,0.004l0.071,0.043l0.015-0.04l0.031-0.037l0.036-0.027l0.024-0.011
	l0.056,0.013l0.104,0.068l0.043,0.015l0.143-0.021l0.047,0.01l0.231,0.131l-0.04-0.052l-0.04-0.031l-0.091-0.053l0.031-0.033
	l0.081-0.02l0.035-0.028l-0.193-0.024l-0.058,0.003l-0.021,0.017l-0.023,0.048l-0.028,0.013l-0.032-0.011l-0.069-0.044l-0.034-0.009
	l-0.05-0.026l-0.111-0.117l-0.034-0.025l-0.009-0.02l-0.071-0.076l-0.013-0.01l-0.036-0.065l-0.016-0.038l-0.015-0.037l0.058-0.004
	l-0.04-0.054l-0.01-0.051l0.01-0.054l0.016-0.056l-0.002-0.027l-0.01-0.034l-0.007-0.031l0.008-0.012l0.023,0.004l0.043,0.02
	l0.02,0.004l0.191,0.101l0.121-0.011l-0.094-0.058l-0.035-0.033l0.001-0.043l-0.027-0.037l-0.021,0.028l-0.025,0.015l-0.03,0.005
	l-0.035-0.003l-0.007-0.038l0.029-0.001l0.009-0.002l-0.009-0.035l-0.019-0.003l-0.015-0.008l-0.033-0.025l0.144-0.1l0.076,0.028
	l0.1,0.053l-0.374-0.246l-0.02-0.095l-0.003-0.045l0.018-0.026l0.137-0.096l0.033-0.048l0.019-0.081l-0.02,0.001v-0.11l-0.011-0.107
	v-0.092l0.037-0.059l0.389,0.057l0.077,0.039l0.064,0.06l0.007,0.028l0.032,0.082l0.031,0.07l0.008-0.006l0.01,0.059l0.002,0.045
	l-0.005,0.04l-0.011,0.04l0.045-0.044l0.013-0.05l-0.005-0.052l-0.013-0.057l-0.003-0.077l0.018-0.034l0.008-0.038l-0.031-0.086
	l0.06,0.039l0.113,0.107l0.052,0.02l0.094,0.056l0.041,0.008l0.033,0.018l0.012,0.043l-0.002,0.048l-0.005,0.034l-0.025,0.044
	l-0.082,0.102l-0.024,0.135l-0.035,0.102l-0.014,0.073l0.053-0.011l0.135-0.194l0.023-0.017l0.003-0.082l0.039-0.04l0.053-0.029
	l0.042-0.055l0.014-0.093l-0.003-0.094l0.014-0.076l0.064-0.035l0.129,0.016l0.132,0.043l0.162,0.091l0.009,0.039v0.019
	l-0.002,0.004l0.019,0.051l-0.054,0.081l-0.021,0.098l-0.015,0.11l-0.026,0.117l0.045-0.025l0.039-0.049l0.056-0.116l-0.001-0.02
	l-0.01-0.025l-0.005-0.021l0.011-0.009l0.011-0.006l0.091-0.129l0.006-0.013l0.096-0.082l0.069-0.041l0.028-0.005l0.061,0.015
	l0.104,0.071l0.068,0.013l-0.049-0.036l0.025-0.024l0.011-0.033l0.007-0.031l0.016-0.021l0.03-0.007l0.061,0.023l0.041,0.004
	l0.022-0.018l0.007-0.07l0.029-0.019l0.109-0.007l0.063,0.013h0.026l0.027-0.021l0.017-0.04l0.019-0.09l0.021-0.02l0.024-0.007
	l0.004-0.006l0.007,0.013l0.075,0.097l0.019,0.013l0.062-0.018l0.253,0.02l0.237-0.057l0.11-0.065l0.166-0.158l0.098-0.059
	l0.171-0.046l0.092-0.005l0.072,0.024l-0.021,0.031l-0.01,0.009l0.082,0.055l0.079-0.012l0.15-0.069l0.173,0.057l0.078-0.007
	l0.015-0.107l-0.053-0.017l-0.061-0.032l-0.058-0.049l-0.046-0.068l0.046-0.089l0.037-0.031l0.049,0.004l0.017,0.027l0.019,0.047
	L1000.354,505.1z M1001.464,504.116l-0.068,0.056l-0.013,0.023l0.007,0.047l0.023,0.034l0.011,0.03l-0.027,0.033l0.052,0.085
	l0.028,0.068l-0.008,0.055l-0.053,0.045l-0.167-0.126l-0.009-0.038l0.028-0.041l-0.047-0.075l-0.117-0.125l0.039,0.021l0.037,0.005
	l0.033-0.012l0.026-0.026l-0.008-0.038l-0.192,0.016l-0.008-0.031l0.098-0.057l0.118-0.035l0.132-0.001l0.073,0.024
	L1001.464,504.116z M1000.354,503.807l0.2,0.208l-0.032,0.036l0.008,0.038l0.034,0.001l0.027,0.013l0.053,0.05l0.008,0.032
	l-0.053,0.012l-0.063,0.028l-0.049,0.049l-0.018,0.073l0.084-0.012l0.147-0.09l0.083,0.001l-0.047,0.109l-0.131,0.052l-0.265,0.021
	l-0.02-0.023l-0.085-0.129l-0.022-0.045l-0.035-0.027l-0.038-0.021l-0.031-0.023l-0.081-0.102l-0.01-0.029l0.005-0.023l0.002-0.024
	l-0.021-0.031l-0.021-0.005l-0.026,0.034l-0.015-0.005l-0.032-0.021l-0.028,0.007l-0.022-0.002l-0.021-0.051l0.02-0.106l0.002-0.02
	l0.051-0.068l0.114-0.053l0.034-0.003l0.05,0.022l0.117,0.084l0.066,0.016L1000.354,503.807z M1000.316,502.504l0.119,0.088
	l0.037-0.004l0.031-0.019l0.031-0.006l0.033,0.02l0.059,0.06l0.031,0.017l-0.033,0.035l-0.018,0.006l0.065,0.054l0.18,0.074
	l-0.019,0.009l-0.007,0.009l-0.005,0.02l0.015,0.01l0.018,0.015l0.015,0.008l-0.151,0.078l-0.029-0.009l-0.004,0.085l-0.038,0.082
	l-0.052,0.061l-0.046,0.021l0.051,0.032l0.059,0.018l0.109,0.005l0.035-0.038l0.028-0.067l0.04-0.042l0.126,0.086l0.038-0.014
	l0.029-0.036l0.035-0.022l0.05,0.022l0.042,0.047l0.038,0.025l0.039-0.041l-0.001,0.025l0.007,0.061v0.026l0.061,0.007l0.042-0.033
	l0.037-0.042l0.047-0.023l0.063-0.01l0.029,0.007l0.021,0.032l-0.006,0.054l-0.095,0.09l-0.032,0.046l0.047,0.064l0.05,0.04
	l0.052,0.011l0.052-0.019l-0.065-0.106l-0.026-0.034l0.05-0.009l0.081-0.069l0.043-0.013l0.045,0.018l0.026,0.039l0.018,0.06
	l0.018,0.078l-0.014,0.038l-0.048,0.032l-0.102,0.033l-0.031,0.03l-0.036,0.124l-0.037,0.037l-0.045-0.002l-0.233-0.067l-0.04-0.027
	l-0.039-0.041l-0.15-0.202l-0.029-0.031l-0.034,0.009l-0.028,0.055l-0.034,0.048l-0.055-0.009l-0.023,0.024l-0.027,0l-0.03-0.011
	l-0.038-0.003l0.058,0.071h-0.089l-0.029,0.022l-0.001,0.057l-0.076-0.022l-0.164,0.041l-0.085-0.061l-0.056-0.113l-0.018-0.113
	l0.012-0.101l0.028-0.075l-0.007-0.033l-0.028-0.03l-0.022-0.034l-0.021-0.036l-0.018-0.037l-0.026,0.021l-0.015,0.026l0.002,0.03
	l0.026,0.033l0.008,0.036l-0.03-0.014l-0.026-0.005l-0.021,0.008l-0.02,0.02l0.03,0.02l0.018,0.031l0.007,0.042l0.007,0.008
	l0.03,0.068l-0.012,0.049l-0.055,0.07l0.008,0.033l-0.104-0.028l-0.114-0.126l-0.077-0.17l0.009-0.16l0.011-0.037l-0.069-0.234
	l0.039-0.16l0.105-0.093l0.131-0.037l0.137-0.004L1000.316,502.504z M1001.819,502.323l-0.003,0.02l0.076-0.009l0.036,0.006
	l0.029,0.023l-0.038-0.006l-0.022,0.031l0.005,0.047l0.043,0.044l0.035,0.006l0.034-0.013l0.057-0.043l0.008,0.025l-0.004,0.007
	h-0.008l-0.006,0.007l-0.004,0.062l0.023,0.03l0.089,0.04l-0.037,0.059l-0.117,0.029l-0.051,0.04l-0.033-0.116l-0.057-0.056
	l-0.057-0.002l-0.04,0.042l0.026,0.082l-0.056,0.026l-0.053-0.036l0.035-0.104l0.038-0.022l0.043-0.009l0.029-0.023l-0.002-0.061
	l-0.023-0.029l-0.108-0.083l-0.034-0.018l0.104-0.048l0.04,0.002l0.008,0.033L1001.819,502.323z M1000.625,502.266l0.021-0.001
	l0.109-0.037l0.036-0.003l0.046,0.019l0.009,0.027l-0.003,0.007l-0.008,0.001l-0.009,0.006l-0.032,0.068l0.028,0.083l0.012,0.072
	l-0.075,0.037l-0.09,0.002l-0.088-0.017l-0.084-0.042l-0.083-0.076l-0.037-0.093l0.033-0.076l0.071-0.044l0.071-0.002l0.005,0.01
	l0.01,0.021l0.016,0.022l0.024,0.015L1000.625,502.266z M1001.278,501.879l0.008,0.035l0.035-0.011l0.034,0.004l0.032,0.023
	l0.029,0.046l-0.007,0.047l-0.042,0.096l-0.007,0.028l0.02,0.082l0.021,0.067l0.031,0.042h0.048l0.009,0.036l-0.075,0.037
	l-0.048,0.01l-0.026-0.019l-0.025-0.068l-0.036-0.048l-0.044-0.026l-0.046-0.005l-0.025-0.11l0.043,0.025l0.028-0.005l0.023-0.02
	l0.028-0.013l-0.001-0.018l-0.035-0.089l-0.005-0.034l-0.023-0.067l-0.001-0.054l0.021-0.032h0.047l0.009,0.039L1001.278,501.879z
	 M1002.254,501.524l0.021,0.048l-0.13,0.02l-0.047,0.031l-0.01,0.059l-0.023,0.031l-0.023,0.128l-0.013,0.032l-0.026,0.018
	l-0.03-0.112l-0.046,0.009l-0.088,0.151l0.001-0.055l0.003-0.018l-0.009-0.035l-0.046,0.035h-0.023l-0.027-0.026l-0.07,0.147
	l-0.044,0.062l-0.053-0.01l0.009,0.071l-0.008,0.034l-0.017-0.011l-0.015-0.059l-0.004-0.076l0.014-0.029l0.023-0.013l0.03-0.03
	l0.017-0.036l0.027-0.084l0.016-0.033l0.03-0.021l0.027-0.001l0.017-0.021l-0.005-0.073l-0.02-0.015l-0.056-0.056l0.066-0.006
	l0.098-0.075l0.067-0.011l0.01,0.038l-0.035,0.03l-0.033,0.04l-0.049,0.09l0.021,0.003l0.011,0.006l0.013,0.019l0.025-0.032
	l0.086-0.027l0.055-0.085l0.042-0.012l0.044-0.003l0.038-0.017l0.038-0.096l0.028-0.048l0.02,0.013L1002.254,501.524z
	 M1000.656,501.373l-0.002,0.006h-0.008l-0.007,0.005l-0.021,0.042l0.004,0.025l0.022,0.044l-0.057,0.008l-0.021-0.002l0.008,0.036
	l0.235,0.048l0.043,0.018l0.085,0.132l0.022,0.028l0.035,0.017l0.031,0.001l0.03,0.007l0.032,0.033l0.008,0.033l-0.056,0.004
	l-0.028,0.029l-0.044,0.093l-0.007-0.046l-0.004-0.036l0.004-0.031l0.013-0.035l-0.168-0.119l-0.085-0.036l-0.078-0.003l0.01,0.039
	l0.017,0.018l0.04,0.054l-0.049-0.036l-0.011,0.048l-0.018,0.017l-0.024-0.003l-0.031-0.014l-0.025-0.018l-0.021-0.027l-0.064-0.106
	l-0.012-0.029l-0.016-0.026l-0.035-0.038l-0.031-0.016l-0.022,0.004l-0.021-0.009l-0.021-0.049l0.059-0.006l0.094,0.013l0.04-0.022
	l0.053-0.116l0.035-0.034l0.06,0.032L1000.656,501.373z M1004.105,500.001l0.004,0.041l0.036-0.004l0.01,0.039l-0.038,0.033
	l-0.037,0.055l-0.035,0.02l-0.035-0.076v-0.088l0.038-0.059l0.055-0.029l0.055-0.004l0.008,0.024l-0.002,0.008l-0.007,0
	l-0.006,0.008l-0.038,0.011L1004.105,500.001z M1004.174,497.073l0.002,0.026l0.016-0.031l0.018-0.004l0.02,0.038v0.056
	l-0.009,0.055l-0.004,0.083l-0.009,0.039h-0.016l-0.006-0.038l-0.003-0.055l-0.015-0.064l-0.007-0.014l0.006,0.033l0.001,0.032
	l-0.026,0.072l-0.028,0.037l-0.012-0.023l0.023-0.05l-0.002-0.061l-0.006-0.074l0.013-0.056l-0.015-0.032l-0.024-0.024l-0.002-0.023
	l0.045-0.017l0.012-0.024l0.015-0.001l0.016,0.047L1004.174,497.073z M1002.162,497.072l-0.025,0.063l-0.072-0.021l-0.061-0.042
	l-0.026-0.03l-0.004-0.038l0.013-0.027l0.035-0.033l0.062-0.015l0.032,0.006l0.022,0.043L1002.162,497.072z M1004.719,496.534
	l0.019,0.052l0.02,0.045l0.02-0.001l0.025-0.032l0.01,0.035l0.014,0.076l-0.004,0.059l-0.009,0.046l0.009,0.114l-0.023,0.017
	l-0.093-0.051l-0.034-0.033l-0.035-0.17l-0.06-0.061l-0.013-0.057l0.05-0.013l0.055,0.018l0.018-0.014l-0.002-0.044l0.016-0.012
	L1004.719,496.534z M1004.774,495.681l-0.097,0.043l-0.059-0.025l0.006-0.031l0.01-0.021l-0.002-0.028l0.005-0.041l0.018-0.04
	l0.025-0.016l0.029-0.008l0.021-0.021l0.012-0.029l0.092-0.018l0.025-0.013l0.007-0.01l0.015-0.004l0.01,0.022l-0.01,0.032
	l-0.024,0.046l-0.03,0.071L1004.774,495.681z M1004.857,494.226l0.025-0.001l0.014-0.015l0.01-0.019l0.008-0.008l0.044,0.005
	l0.035,0.027l0.021,0.044v0.061l-0.05,0.067l-0.079-0.013l-0.089-0.034l-0.074,0.011l0.011,0.039l0.019,0.014l0.013,0.016
	l0.01,0.017l0.015,0.019l-0.077-0.01l-0.08-0.08l-0.135-0.172l-0.011-0.039l0.31-0.033l0.032,0.012l0.013,0.034l0.007,0.037
	L1004.857,494.226z M1003.587,494.402l0.004,0.034l-0.01,0.022l-0.023,0.01l0.05,0.12l-0.007,0.058l-0.029,0.044l-0.015,0.073
	l0.055-0.005l-0.006,0.026l-0.01,0.011l-0.029,0.007l0.017,0.008l0.013,0.011l0.013,0.008l0.021,0.003l-0.011,0.182l0.025-0.008
	l0.021-0.016l0.017-0.023l0.014-0.032l0.024,0.031l-0.017,0.084l0.001,0.033l0.016,0.031l0.01,0.039l-0.046,0.028l-0.019,0.189
	l-0.037,0.05l0.01,0.041h0.035l0.032-0.009l0.027-0.016l0.021-0.028l-0.026-0.095l0.06-0.061l0.161-0.048l-0.151-0.082l-0.049-0.045
	l0.018-0.042l0.026-0.033l0.031,0.011l0.025,0.087l0.017-0.034l0.031-0.099l0.002-0.036l0.021-0.017l0.055,0.025l0.05,0.049
	l-0.003,0.061l0.037,0.011l0.034,0.025l0.03,0.039l0.028,0.059l-0.009,0.026l-0.001,0.012l0.042,0.029l-0.025,0.032l-0.065-0.027
	l-0.021,0.027l-0.014,0.039l-0.019,0.03l-0.022,0.021l0.013,0.011l0.029-0.011l0.056-0.037l-0.008,0.015l-0.021,0.026l0.009,0.039
	l0.078-0.061l0.037,0.019l0.031,0.101l0.02-0.002l-0.004-0.056l0.008-0.003l0.015,0.007l0.018-0.024l0.003-0.032l-0.001-0.042
	l0.001-0.043l0.015-0.041l0.013,0.017l0.008,0.018l0.015,0.04l0.002-0.089l0.024-0.065l0.044-0.037l0.051-0.005l-0.016,0.095
	l-0.131,0.24l-0.006,0.042l0.014,0.042l0.02,0.007l0.014-0.028l0.013-0.055l0.012-0.016l0.028-0.029l0.036-0.004l0.029,0.056
	l0.007,0.03l0.007,0.054v0.055l-0.018,0.026l-0.203,0.044l-0.037,0.02l0.069,0.048l0.143,0.019l0.084,0.046l-0.096,0.142
	l-0.026,0.022l-0.006,0.012l0.005,0.027l0.012,0.031l0.014,0.021l0.014,0.007l0.014-0.03l0.015,0.002l0.023,0.011l0.038,0.002
	l0.02,0.011l-0.081,0.114l-0.044,0.026l-0.047-0.008l-0.045-0.067l-0.032-0.036h-0.027l-0.01,0.031l0.012,0.033l0.022,0.028
	l0.023,0.017l0.009,0.033l-0.026,0.002l-0.021,0.01l-0.036,0.033l0.009,0.033l0.107-0.011l-0.008,0.037l-0.005,0.038l-0.004,0.077
	l0.031-0.077l0.02-0.027l0.033-0.015l-0.035,0.184l0.005,0.079l0.029-0.064l0.05-0.031l0.037,0.023l-0.015,0.095l0.111,0.066
	l0.009,0.033l-0.075,0.007l0.009,0.039l0.021-0.002l0.009,0.036l-0.052-0.026l-0.021,0.029l-0.02,0.039l-0.049,0.006l0.049,0.035
	l-0.001,0.044l-0.009,0.026l-0.017,0.012l-0.03,0.001l0.008,0.032l0.022,0.003l0.062,0.025l-0.03,0.064l0.043,0.067l0.062,0.044
	l0.026-0.002l0.005,0.077l-0.031,0.044l-0.047,0.014l-0.046-0.012l0.028,0.07l0.1,0.143l-0.01,0.061l-0.039,0.002l-0.1-0.047
	l0.039,0.107l0.021,0.111l0.002,0.101l-0.02,0.076l-0.018-0.023l-0.01-0.01l0.036,0.059l0.022,0.058l0.01,0.061l-0.006,0.073
	l0.039,0.035l0.019,0.043l-0.001,0.04l-0.02,0.028l-0.018-0.025l-0.065-0.077l-0.008,0.057l-0.023-0.004l-0.015-0.04l0.019-0.05
	l-0.008-0.035l-0.051-0.033l-0.08,0.03l-0.05-0.019l-0.048-0.061l0.031-0.073l-0.036-0.081l0.013-0.045l0.021-0.029l0.026-0.013
	l0.034,0.003l-0.008-0.029l-0.063-0.054l-0.028-0.014l-0.008-0.035l0.072-0.008l-0.039-0.092l0.008-0.084l0.02-0.093l-0.021-0.252
	l0.014-0.107l0.001-0.107l-0.049-0.141l-0.02-0.02l-0.014,0.007l-0.017-0.002l-0.025-0.052l-0.003-0.02l0.001-0.026l0.016-0.114
	l-0.026,0.005l-0.032,0.032l-0.006,0.019l-0.03-0.001l-0.015-0.018l-0.003-0.044l0.005-0.143l0.009-0.053l0.014-0.044l0.021-0.03
	l-0.01-0.036h-0.053l-0.025,0.059l-0.032,0.172l-0.068-0.118l-0.063-0.084l-0.069-0.049l-0.093-0.013l0.01,0.039l0.059,0.021
	l0.054,0.041l0.053,0.059l0.053,0.075l0.001,0.077l-0.066-0.049l-0.029-0.015h-0.035l0.026,0.096l-0.002,0.071l-0.021,0.016
	l-0.031-0.07l-0.024,0.034l0.002,0.056l0.007,0.058l-0.012,0.042h-0.027l-0.122-0.063l-0.008-0.01l-0.074-0.059l-0.007,0.005
	l-0.029-0.047l-0.006-0.023l0.008-0.037l0.023-0.033l0.075-0.03l0.031-0.02l-0.041-0.024l-0.094-0.104l-0.001,0.043l0.004,0.073
	l-0.02,0.052l-0.03,0.011l-0.027-0.052l-0.028-0.044l-0.036,0.015l-0.067,0.062l-0.059,0.013l-0.026-0.005l-0.021-0.017
	l-0.008-0.026l-0.01-0.024l-0.025-0.007l-0.056-0.004l-0.031-0.027l-0.06-0.135l-0.055-0.099l0.003-0.031l0.028-0.05l0.03-0.038
	l0.043-0.032l0.049-0.021l0.045,0.001l0.049,0.03l0.039,0.041l0.041,0.029l0.045-0.006l-0.038-0.069l0.104,0.026l-0.01-0.036
	l-0.02,0.002l-0.01-0.036l0.123-0.028l0.047,0.038l0.042,0.156l0.013-0.007l0.024-0.023l0.009-0.015l-0.021-0.028l-0.029-0.053
	l-0.015-0.022l0.056-0.005l-0.012-0.021l-0.025-0.052l0.056-0.034l0.076,0.016l0.077,0.064l0.057,0.114l0.022-0.065l0.026-0.05
	l-0.094-0.068l0.02-0.145l0.024,0.02l0.019,0.006l0.04-0.001l-0.048-0.056l0.044-0.022l0.134-0.009l-0.075-0.038l-0.083-0.009
	l-0.074-0.034l-0.045-0.112l-0.035,0.065l-0.024,0.021l-0.031-0.003l-0.038-0.037l-0.022-0.051l-0.004-0.051l0.02-0.042
	l-0.009-0.036l-0.083,0.01l-0.04-0.008l-0.033-0.026l-0.009-0.066l-0.027-0.091l-0.063-0.165l-0.011,0.105l-0.014,0.059
	l-0.021,0.028l-0.047-0.015l-0.02-0.042l0.004-0.051l0.026-0.04l-0.055,0.007l-0.04,0.017l-0.043,0.001l-0.055-0.044l-0.01,0.064
	l-0.034,0.025l-0.095,0.002l-0.014-0.028l-0.001-0.063l0.01-0.065l0.016-0.029l0.068,0.001l0.013-0.009l0.006-0.037l-0.009-0.039
	l-0.01-0.037l-0.002-0.032l0.013-0.053l0.022-0.044l0.032-0.008l0.051,0.055l0.061,0.106l0.111,0.082l0.108,0.025l0.075-0.062
	l-0.036-0.021l-0.042-0.006l-0.068,0.004l-0.024-0.017l-0.032-0.038l-0.043-0.035l-0.045-0.006l0.014-0.04l0.013-0.095l0.01-0.021
	l0.027-0.01l0.066-0.069l-0.035-0.028l-0.013-0.008l0.015-0.04v-0.026l-0.009-0.021l-0.016-0.022l0.058-0.038l0.076,0.003
	l0.083,0.034l0.078,0.049l0.002-0.024l0.006-0.018l-0.06-0.046l-0.008-0.055l0.032-0.12l0.053,0.102l0.012,0.042l-0.001,0.037
	L1003.587,494.402z M1003.97,493.629l0.051,0.089l0.016-0.064l0.05-0.023l0.117-0.001l0.02,0.071l0.002,0.021l-0.014,0.014
	l0.011,0.04l0.016,0.006l0.015,0.015l0.013,0.008l-0.012,0.067l0.016,0.049l0.072,0.098l-0.002,0.059l-0.007,0.057l-0.11-0.09
	l-0.054-0.033l-0.055-0.002l0.041,0.036l0.053,0.063l0.099,0.14l-0.028,0.031l-0.035,0.015l-0.039-0.004l-0.045-0.025l0.028,0.056
	l0.041,0.031l0.046,0.012l0.042-0.001l-0.001,0.019l0.001,0.004l-0.012,0.013l0.06,0.048l0.018,0.065l-0.02,0.054l-0.047,0.02
	l0.063,0.087l0.022,0.044l0.02,0.061l0.009,0.067l-0.018,0.014l-0.07-0.02l-0.064,0.01l-0.034-0.01l-0.024-0.041l-0.009,0.004
	l-0.011,0.022l0.004,0.032l0.039,0.032l0.008,0.032l-0.095-0.01l-0.079-0.059l-0.065-0.112l-0.159-0.494l-0.005-0.115l0.084-0.025
	l0.009,0.033l0.009,0.063l0.043,0.06l0.052,0.033l0.026-0.018l-0.015-0.023l-0.073-0.136l-0.026-0.071l-0.002-0.035l0.006-0.081
	l-0.011-0.014l-0.02-0.019l-0.015-0.047l-0.007-0.056v-0.04l0.013-0.061l0.019-0.054L1003.97,493.629z M1004.698,493.25
	l-0.045,0.037l-0.024,0.041l0.034,0.062l0.011,0.04l-0.052,0.008l0.021,0.005l0.02,0.009l0.02,0.012l0.011,0.041l-0.08,0.121
	l-0.012,0.033l0.034,0.062l0.054,0.055l0.031,0.05l-0.027,0.048l-0.025,0.006l-0.024-0.011l-0.025-0.015l-0.024-0.01h-0.055
	l-0.036,0.009l-0.077,0.019l-0.045-0.007l-0.05-0.026v-0.054l-0.009-0.049l-0.017-0.044l-0.021-0.037l0.057,0.033l0.004-0.044
	l-0.026-0.074l-0.034-0.063l0.04-0.024l0.007-0.074l-0.021-0.079l-0.044-0.039l-0.01-0.04l0.035-0.025l0.037-0.058l0.021-0.064
	l-0.015-0.048l0.011-0.057l0.03-0.004l0.036,0.038l0.03,0.07l0.004,0.06l-0.018,0.037l-0.022,0.033l-0.015,0.045l0.012,0.016
	l0.028-0.02l0.03-0.033l0.016-0.031l0.007-0.2l0.016-0.043l0.023,0.023l0.018,0.006h0.038l0.037,0.011l0.036,0.021l0.03,0.041
	l0.026,0.064l-0.021,0.005l-0.043,0.035l0.061,0.027l0.021,0.002L1004.698,493.25z"/></svg>