<?xml version="1.0" encoding="utf-8"?>
<!-- Generator: Adobe Illustrator 15.0.0, SVG Export Plug-In . SVG Version: 6.00 Build 0)  -->
<!DOCTYPE svg PUBLIC "-//W3C//DTD SVG 1.1//EN" "http://www.w3.org/Graphics/SVG/1.1/DTD/svg11.dtd">
<svg version="1.1" id="Ebene_1" xmlns="http://www.w3.org/2000/svg" xmlns:xlink="http://www.w3.org/1999/xlink" x="0px" y="0px"
	 width="1920px" height="1080px" viewBox="0 0 1920 1080" enable-background="new 0 0 1920 1080" xml:space="preserve">

<path fill="#F4E0B6" stroke="#FFFFFF" d="M1246.053,716.949l-0.063,0.036l-0.002-0.006l-0.053-0.101h0.056l0.037,0.029
	L1246.053,716.949z M1247.553,711.409l0.021,0.11l0.018,0.052l0.027,0.061l-0.069-0.062l-0.031,0.018l0.042,0.086l0.021,0.069
	l0.011,0.279l-0.016,0.063l-0.041,0.055l0.057,0.057l0.004,0.074l-0.026,0.072l-0.028,0.054l-0.038,0.016l-0.031,0.004l-0.031-0.012
	l-0.037-0.036l0.037-0.106l0.029-0.151l-0.035-0.123l-0.145-0.017l0.052-0.089l0.086-0.065l0.03-0.093l-0.007-0.018l-0.043-0.083
	l-0.01-0.048l0.02-0.017l0.046,0.003l0.019-0.055l0.018-0.033L1247.553,711.409z M1246.908,711.678l0.019,0.041l-0.063,0.029
	l-0.05,0.042l-0.108,0.12l-0.021,0.007l-0.025-0.02l-0.039-0.053l0.037-0.005l0.072-0.023l0.036-0.006l-0.056-0.043l-0.057-0.063
	l-0.025-0.059l0.039-0.041l0.069,0.012l0.05,0.043l0.051,0.035L1246.908,711.678z M1245.018,711.801l0.136-0.035l0.204-0.139
	l0.086-0.008l0.056,0.101l0.016,0.247l0.043,0.126l0.102,0.047l0.104-0.046l0.101-0.105l0.154-0.208l0.002,0.097l0.062,0.029h0.048
	l0.041-0.028l0.033-0.052l-0.048-0.038l-0.027-0.045V711.7l0.03-0.051l0.078,0.071l0.167,0.079l0.07,0.082l-0.194,0.105l0.039,0.229
	l0.149,0.261l0.144,0.194l-0.045,0.044l-0.007,0.059l0.007,0.052l-0.01,0.029l-0.06,0.021l-0.054-0.007l-0.029-0.031l0.006-0.056
	l-0.018-0.037l-0.08,0.037l-0.155,0.146l0.034,0.04l0.056,0.112l0.055,0.07l-0.026,0.001l-0.058,0.015l-0.026,0.001l0.022,0.126
	l0.016,0.051l0.022,0.039l-0.13,0.075l-0.064-0.062l-0.011-0.066l0.026-0.149l-0.004-0.192l-0.022-0.086l-0.047-0.039l-0.021-0.042
	l0.002-0.051l0.017-0.042l0.035-0.036l0.051-0.033l-0.02-0.043l0.003-0.102l0.023-0.083l0.068,0.038l0.051,0.003l0.042-0.022
	l0.015-0.047l-0.035-0.068l-0.062-0.043l-0.068-0.02h-0.059l-0.006-0.097l-0.077-0.032l-0.098-0.01l-0.068-0.031l-0.028,0.016
	l-0.046,0.092l-0.139,0.061l-0.151,0.025l-0.079-0.013l-0.009-0.038l0.007-0.057l-0.011-0.022l-0.039-0.02l-0.025,0.002
	l-0.021-0.007l-0.028-0.04l-0.051-0.028l-0.088-0.006l-0.152,0.02l-0.019-0.037l0.06-0.057l-0.024-0.061l-0.033-0.053l0.031-0.052
	L1245.018,711.801z M1246.285,711.146l0.109,0.062l0.054,0.057l-0.078,0.059l-0.039-0.021l-0.031-0.013l-0.029-0.017l-0.028-0.036
	l-0.01,0.021l-0.005,0.003l0.007,0.036l-0.062-0.021l-0.039-0.037l-0.008-0.046l0.032-0.055l-0.065-0.042l-0.064-0.025l-0.06-0.008
	l-0.051,0.007l0.06-0.071l0.09-0.006l0.088,0.037l0.053,0.055L1246.285,711.146z M1252.406,706.772l0.057,0.259l-0.103-0.046
	l-0.01,0.064l-0.069-0.074l-0.057-0.023l-0.056,0.022l-0.073,0.057l-0.018-0.037l0.063-0.092l0.094-0.226l0.054-0.065l0.072,0.029
	L1252.406,706.772z M1247.753,709.059l0.032,0.104l0.06-0.006l0.053-0.013l-0.026-0.081l0.02-0.061l0.051-0.032h0.077l-0.005,0.16
	l-0.039,0.136l-0.069,0.11l-0.104,0.086l-0.019-0.041l0.045-0.077l-0.084,0.006l-0.074,0.123l-0.097,0.02l-0.069,0.043l-0.064,0.014
	l-0.06-0.017l-0.06-0.055l0.084,0.007l0.015-0.104h0.046l0.056,0.029l0.045-0.019l0.006-0.069l-0.029-0.058l-0.052-0.055
	l-0.043-0.064l0.06,0.013l0.038-0.016l0.016-0.045l-0.005-0.065l0.035,0.062l0.039,0.039l0.047,0.017l0.055-0.011l-0.018-0.037
	l-0.116-0.081l-0.056-0.051l-0.046-0.06l0.079,0.014l0.097,0.052L1247.753,709.059z M1247.674,708.375l0.062,0.178l-0.021,0.222
	l-0.046,0.146l-0.079-0.049l-0.055-0.064l-0.005-0.064l0.072-0.048l-0.06-0.07l-0.046-0.09l-0.004-0.067l0.062-0.004l0.028-0.017
	l-0.077-0.11L1247.674,708.375z M1249.786,706.932l0.01,0.03l0.098-0.057l0.014,0.093l-0.022,0.078l-0.089,0.139l-0.134-0.111
	l-0.041-0.083l0.035-0.081l0.1-0.104l0.005,0.027L1249.786,706.932z M1252.014,705.141l0.146,0.093l0.074-0.074l0.129-0.034
	l0.119,0.021l0.042,0.088l-0.112-0.01l-0.051,0.033l-0.023,0.054l-0.039,0.055l-0.058,0.025l-0.214,0.062l-0.074,0.003l-0.104-0.111
	l0.04-0.137L1252.014,705.141z M1249.041,706.843l0.009,0.079l-0.118-0.078l-0.071-0.122l-0.003-0.106l0.083-0.05l-0.007,0.092
	L1249.041,706.843z M1249.231,705.802l0.048-0.019l0.001-0.084l0.028,0.007l0.012,0.002l0.052-0.006l-0.065-0.05l-0.035-0.076
	l0.005-0.059h0.06l0.029-0.017l-0.041-0.041l-0.046-0.023l-0.043-0.003l-0.043,0.01l-0.026-0.037l0.09-0.052l0.086,0.028l0.09,0.061
	l0.114,0.052l-0.041,0.067l0.016,0.072l0.033,0.076l0.015,0.081l-0.04-0.001l-0.026,0.027l-0.008,0.055v0.068l-0.1-0.062
	l-0.061,0.022l0.001,0.062l0.087,0.066l0.006,0.082l0.053,0.066l0.076,0.04h0.085l-0.016,0.1l0.058,0.139l0.108,0.105l0.138,0.007
	l0.002,0.028l-0.008,0.018l-0.024,0.027l-0.102,0.008l-0.087-0.065l-0.147-0.219l-0.03,0.019l0.048,0.064l0.023,0.065l-0.005,0.062
	l-0.037,0.049l-0.108-0.119l-0.156-0.084l-0.126-0.015l-0.014,0.091l-0.031,0.018l-0.225-0.129l0.154-0.041l0.049-0.024l0.037-0.046
	l0.002-0.055l-0.021-0.041l-0.031-0.006l-0.042-0.021l-0.287-0.097l-0.086-0.005l-0.041-0.022l-0.011-0.074v-0.208l0.011-0.032
	l0.159-0.144l0.094-0.059l0.119-0.014l-0.03,0.088l0.006,0.104l0.051,0.054l0.103-0.058l0.023,0.032l0.018,0.058L1249.231,705.802z
	 M1239.585,685.017l0.133-0.021l0.06-0.056l0.128-0.177l0.087-0.05l0.139-0.002l0.06,0.061l-0.001,0.095l-0.128,0.25l0.028,0.021
	l0.09-0.013l0.109,0.042l-0.044,0.116l-0.002,0.057l0.073-0.01l0.036-0.027l0.062-0.065l0.083-0.059l0.069-0.082l0.044-0.031
	l0.02,0.021l0.2,0.083l0.209,0.16l0.074,0.001l0.007-0.032l-0.014-0.059l0.012-0.076l0.095-0.111l0.106-0.013l0.267,0.085
	l0.118-0.001l0.104-0.021l0.101,0.007l0.104,0.087l0.273,0.405l0.1,0.224l0.018,0.196l-0.024,0.048l-0.037,0.041l-0.026,0.044
	l0.006,0.058l0.042,0.052l0.132,0.074l0.058,0.044l0.025,0.05l0.042,0.15l0.027,0.064l0.055,0.053l0.072,0.031l0.079,0.026
	l0.071,0.035l0.199,0.164l0.482,0.587l0.131,0.085l0.142,0.012l0.262-0.059l0.144,0.014l0.129,0.074h0.001l0.673,0.682l0.108,0.061
	l0.271,0.093l0.154,0.08l0.075,0.022l0.075-0.019l0.021-0.026l0.018-0.076l0.011-0.022l0.005-0.016l-0.008-0.05l0.005-0.016h0.024
	l0.022,0.012l0.021,0.012l0.015,0.005l0.018,0.008l0.178-0.007l0.029-0.008l0.062,0.024l0.051,0.034l0.32,0.263l0.384,0.398
	l0.511,0.329l0.076,0.021l0.067-0.032l0.009-0.057v-0.061l0.037-0.032l0.095,0.042l0.208,0.236l0.096,0.082l0.227,0.068l0.104,0.062
	l0.07,0.123l-0.002,0.129l-0.05,0.113l-0.032,0.119l0.051,0.15l0.174,0.182l0.52,0.371l0.242,0.174l0.608,0.435l0.07,0.1
	l0.123,0.253l0.065,0.104l0.082,0.104l0.092,0.091l0.099,0.071l0.079,0.028l0.188,0.049l0.064,0.045l0.023,0.064l0.001,0.172
	l0.025,0.074l0.719,1.006l0.053,0.128l0.104,0.434l0.01,0.08l-0.011,0.077l-0.029,0.05l-0.082,0.079l-0.027,0.053l0.021,0.241
	l0.204,0.477l-0.093,0.414l0.071,0.083l0.079,0.093l0.232,0.165l0.198,0.179l0.094,0.247l-0.094,0.161l-0.352,0.268l-0.049,0.123
	l-0.035,0.265l-0.185,0.189l0.037,0.113l0.077,0.123l0.008,0.059l0.01,0.066l-0.004,0.004l-0.077,0.074l-0.111-0.006l-0.092,0.025
	l-0.02,0.161l0.021,0.12l0.037,0.131l0.056,0.124l0.165,0.238l0.05,0.125l0.12,0.407l0.006,0.276l0.085,0.252l-0.021,0.129
	l-0.178,0.345l-0.007,0.068l0.037,0.073l0.069,0.132l0.086,0.271l-0.016,0.203l-0.089,0.174l-0.135,0.188l-0.062,0.188l0.036,0.211
	l0.008,0.02l0.26,0.591l0.018,0.055l0.007,0.074l-0.004,0.157l0.014,0.061l0.075,0.095l0.19,0.166l0.063,0.116l0.011,0.094
	l-0.063,0.248l0.016,0.443l-0.034-0.022l-0.037-0.02l-0.059-0.023l-0.01-0.003l-0.002,0.011l-0.033,0.03l-0.004,0.053l-0.071,0.322
	l0.033,0.093l-0.032,0.057l-0.02,0.063l0.064,0.104l-0.206,0.007l-0.22-0.025l0.037,0.095l0.084,0.153l0.022,0.086l-0.13-0.105
	l-0.092-0.117l-0.092-0.1l-0.131-0.048l0.043,0.096l0.054,0.062l0.038,0.058l-0.011,0.081l-0.074,0.021l-0.205,0.102l-0.095-0.01
	l-0.046-0.077l-0.018-0.125l0.003-0.119l0.014-0.068l-0.024-0.032l-0.07,0.013l-0.065,0.021l-0.054,0.038l-0.034,0.058l-0.047-0.132
	l0.008-0.112l0.054-0.095l0.09-0.083l-0.063-0.026h-0.088l-0.089,0.016l-0.061,0.024l-0.06,0.05l-0.024,0.045l-0.028,0.13
	l-0.09-0.014l-0.076,0.017l-0.05,0.049l-0.01,0.078l0.042,0.067l0.232,0.264l0.031,0.126l-0.044,0.112l-0.059,0.095l-0.005,0.071
	l0.032,0.093l-0.037,0.052l-0.068-0.007l-0.067-0.081l-0.035,0.021l0.028,0.059l0.007,0.044l-0.017,0.03l-0.037,0.034l-0.028-0.13
	l-0.024-0.067l-0.034-0.062l-0.024,0.045l0.006,0.11l-0.013,0.063l-0.092-0.143l-0.053-0.051h-0.056v0.047l0.047,0.079l0.119,0.145
	l-0.032,0.02l-0.157-0.068l-0.191-0.028l-0.123-0.052l0.051-0.13l-0.048,0.016h-0.036l-0.092-0.013l0.035-0.077l-0.12,0.023
	l-0.058-0.007l-0.058-0.033l0.086-0.05l0.044-0.011l0.056,0.004l0.028-0.05l0.074-0.035l0.093-0.02l0.089-0.003l-0.022,0.032
	l-0.018,0.036l0.117-0.014l0.012-0.105l-0.063-0.092l-0.106,0.027l-0.027-0.091l-0.074,0.001l-0.105,0.015l-0.106-0.051l0.043-0.072
	l-0.084,0.004l-0.06,0.046l-0.092,0.133l0.044-0.002l0.031,0.011l0.03,0.026l0.039,0.041l-0.111-0.012l-0.105,0.012l-0.09,0.039
	l-0.066,0.068l-0.003-0.057l-0.013-0.055l-0.029-0.051l-0.052-0.038l-0.124,0.174l-0.022,0.07l-0.148-0.141l0.045-0.082l0.102-0.077
	l0.021-0.128l-0.032-0.014l-0.053-0.004l-0.046-0.017l-0.044-0.273l-0.005-0.17l-0.042-0.022l-0.113,0.019l0.015,0.155l0.042,0.118
	l-0.056,0.174l-0.14,0.063l-0.195-0.21l-0.021,0.058l-0.094,0.167l0.118,0.09l-0.017,0.11l-0.102,0.091l-0.129,0.035l0.107,0.104
	l0.109-0.004l0.104-0.051l0.153-0.042l0.037-0.02l0.034,0.013l0.045,0.073l-0.007,0.043l-0.054,0.132l-0.006,0.023l-0.07,0.074
	l-0.077,0.184l-0.068,0.073l-0.048,0.09l0.055,0.11l0.106,0.097l0.102,0.043l-0.02,0.077l-0.015,0.031l-0.03,0.026l-0.012,0.026
	l0.025,0.032l0.034,0.034l0.012,0.032l-0.002,0.032l-0.014,0.065l-0.034,0.041l-0.061-0.05l-0.004-0.104l-0.026-0.041l-0.134,0.042
	l-0.114,0.003l-0.058,0.012l0.023,0.034l0.036-0.021l0.025,0.037l-0.025,0.041l-0.062,0.169l0.151-0.049l0.164-0.082l0.071,0.229
	l0.014,0.085l-0.007,0.062l-0.126,0.477l-0.057,0.122l-0.222,0.304l-0.088,0.058l-0.083-0.042l-0.059-0.088l-0.012-0.012
	l-0.022,0.013l-0.086-0.014l-0.063-0.048l-0.007-0.068l0.026-0.066l0.035-0.049l-0.076,0.001l-0.038-0.042l-0.016-0.068l0.003-0.075
	l-0.017,0.007l-0.047,0.03l-0.016-0.047l-0.002-0.021l-0.003-0.029l-0.052,0.067l0.018,0.154l-0.069-0.052l-0.036,0.021l0.076,0.093
	l0.04,0.038l0.047,0.031l-0.082,0.013l-0.053,0.047l-0.048,0.026l-0.066-0.051l-0.031,0.02l0.007,0.08l0.023,0.073l0.043,0.079
	l0.067,0.104l-0.171-0.009l-0.094,0.01l-0.021,0.036l0.002,0.052l-0.035,0.061l-0.047,0.052l-0.035,0.029l-0.017,0.04l-0.016,0.066
	l-0.04,0.064l-0.082,0.027l-0.051-0.021l-0.082-0.115l-0.086-0.053l0.046-0.022l0.029-0.033l0.028-0.055l0.021-0.019l0.088-0.045
	l0.018-0.043v-0.166l0.034-0.074l-0.063-0.039l-0.07-0.053l-0.064-0.037l-0.057,0.013l0.041,0.132l0.014,0.097l-0.016,0.062
	l-0.153,0.055l-0.06-0.052l-0.035-0.273l-0.088-0.057l-0.024,0.123l-0.073-0.025l-0.064-0.091l0.016-0.125l-0.033-0.084
	l-0.064-0.053l-0.088,0.036l0.016,0.123l0.085,0.202l0.056,0.183l-0.071,0.063l0.029,0.075l-0.036,0.013l-0.058,0.003l-0.04,0.045
	l0.009,0.062l0.113,0.048l0.032,0.083l0.126,0.013l0.052-0.009l0.025,0.038l-0.032,0.024l-0.068,0.083l0.173,0.096l-0.037,0.04
	l-0.116,0.007l-0.063-0.007l0.03,0.108l0.277,0.156l0.003,0.124l-0.128-0.09l-0.07-0.031l-0.057,0.01l-0.014,0.039l0.037,0.109
	l-0.021,0.052l-0.149-0.136l-0.039-0.013l-0.028,0.031l0.008,0.052l0.02,0.052l-0.004,0.09l0.015,0.104l-0.01,0.091l-0.081,0.02
	l-0.129-0.039l-0.034-0.028l0.041-0.146l0.001-0.08l-0.012-0.094l-0.045-0.078l-0.092-0.024l0.034,0.131l-0.024,0.137l-0.074,0.081
	l-0.121-0.034l-0.073,0.089l0.16,0.146l0.183,0.332l0.106,0.095l-0.027,0.022l-0.101,0.052l-0.103-0.198l-0.195-0.02l-0.218,0.047
	l-0.192,0.007l-0.008,0.059l0.239,0.054l0.119,0.059l0.048,0.12l-0.063,0.123l-0.153,0.029l-0.173-0.036l-0.141-0.07l0.005-0.04
	l-0.009-0.028l-0.019-0.026l-0.018-0.036l0.013,0.136l0.007,0.03l0.053,0.055l0.098,0.081l0.037,0.042l0.042,0.111l0.018,0.107
	l-0.025,0.097l-0.073,0.074l-0.205,0.046l-0.18-0.029l-0.156,0.02l-0.137,0.201l-0.039-0.003l-0.083,0.015l0.11,0.108l0.192-0.046
	l0.105,0.116l-0.097,0.022l-0.193,0.092l-0.099,0.007l-0.145,0.377l-0.066,0.109l0.083-0.01l0.029-0.007l0.021,0.101l0.073,0.26
	l0.128-0.163l0.044-0.033l0.062,0.016l0.043,0.091l0.047,0.167l0.052,0.044l0.033,0.01l0.028-0.014l0.039-0.025l0.041-0.005
	l0.031,0.03l0.028,0.044l0.032,0.029l0.068,0.045l0.087,0.069l0.075,0.081l0.049,0.082l-0.036,0.02l-0.104-0.087l-0.074,0.106
	l-0.027,0.193l0.029,0.174l0.008,0.102l-0.035,0.354l-0.024,0.113l-0.147,0.243l-0.059,0.143l0.023,0.154l0.026,0.095l0.009,0.101
	l-0.023,0.334l0.013,0.07l0.077,0.255l0.031,0.053l0.106,0.08l0.027,0.042l0.005,0.048l-0.032,0.036l-0.015,0.064l0.025,0.336
	l-0.059,0.335l0.021,0.045l-0.022,0.093l0.035,0.158l0.062,0.149l0.061,0.077l0.091-0.023l0.104-0.064l0.102-0.031l0.089,0.078
	l0.145,0.332l0.144,0.245l0.035,0.047l0.086,0.003l0.029,0.043l0.015,0.065l0.001,0.028l-0.727,0.418l-0.844,0.482l-0.744,0.429
	l-0.099,0.057l-0.843,0.483l-0.842,0.484l-0.298,0.171l-0.095-0.003l-0.188,0.042l-0.116,0.212l-0.14,0.168l-0.046,0.081
	l-0.055,0.31l-0.028,0.094l-0.132,0.021l-0.106,0.044l-0.218,0.159l-0.073,0.074l-0.053,0.037h-0.033l-0.04-0.019l-0.049-0.008
	l-0.06,0.026l-0.019,0.059l-0.002,0.01l-0.06,0.01l-0.083,0.013l-0.057,0.046l-0.044,0.069l-0.062,0.063l-0.084,0.032l-0.092,0.017
	l-0.084,0.029l-0.053,0.072l0.002,0.104l0.09,0.252l0.021,0.1l-0.014,0.045l-0.056,0.087l-0.007,0.026l-0.008,0.023l0.003,0.042
	l0.032,0.087l0.011,0.044l0.002,0.13l-0.011,0.13l-0.081,0.356l-0.045,0.092l-0.027,0.032l-0.035,0.022l-0.032,0.029l-0.022,0.048
	l0.006,0.096l0.084,0.233l0.02,0.102l-0.02,0.085l-0.141,0.196l-0.09,0.167l-0.015,0.029l-0.022,0.109l0.022,0.146l-0.042,0.039
	l-0.201,0.389l-0.076,0.104l-0.09,0.068l-0.104,0.02l-0.125-0.046l-0.105-0.093l-0.13-0.226l-0.081-0.106l-0.246-0.155l-0.065-0.003
	h-0.002l-0.044,0.016l-0.031,0.038l-0.026,0.057l-0.011,0.083l0.03,0.128l-0.023,0.049l-0.038,0.004l-0.135-0.017l-0.063,0.017
	l-0.098,0.087l-0.052,0.093l-0.038,0.104l-0.061,0.119l-0.07,0.077l-0.09,0.063l-0.19,0.094l-0.128-0.354l-0.056-0.107l-0.051-0.052
	l-0.112-0.083l-0.032-0.059l-0.031-0.167l-0.02-0.05l-0.09-0.106l-0.092-0.06l-0.085-0.069l-0.07-0.135l-0.124-0.382l-0.05-0.104
	l-0.075-0.098l-0.18-0.178l-0.064-0.094l-0.021-0.076v-0.001l-0.002-0.062l-0.011-0.064l-0.049-0.081l-0.074-0.098l-0.031-0.054
	l-0.02-0.055l-0.002-0.129l0.106-0.135l0.012-0.106l-0.029-0.09l-0.164-0.349l-0.073-0.115l-0.155-0.198l-0.058-0.121l-0.175-0.482
	l-0.002-0.038l0.015-0.038l0.008-0.042l-0.018-0.048l-0.027-0.027l-0.068-0.041l-0.024-0.029l-0.015-0.074l0.035-0.039l0.048-0.032
	l0.021-0.054l-0.031-0.085l-0.197-0.342l-0.066-0.077l-0.045-0.038l0.027-0.04l0.019-0.233l0.029-0.102l0.079-0.096l0.084-0.07
	l0.068-0.087l0.074-0.269l0.106-0.175l0.028-0.122v-0.233l-0.025-0.244l-0.061-0.259l-0.147-0.396l-0.068-0.28l-0.02-0.049
	l-0.056,0.038l-0.099,0.106l-0.029,0.056l-0.019,0.061l-0.031,0.048l-0.065,0.026l-0.051-0.004l-0.035-0.024l-0.032-0.046
	l-0.037-0.07l-0.036-0.008l-0.054,0.033l-0.059,0.025l-0.052-0.039l-0.095-0.117l-0.119-0.057l-0.127,0.011l-0.107,0.087l-0.025,0.1
	l0.004,0.073l-0.068-0.192l-0.039-0.254l-0.033-0.123l-0.067-0.104l-0.209-0.208l-0.053-0.1l-0.056-0.172l-0.013-0.452l-0.014-0.077
	l0.07-0.006l0.056,0.014l0.041-0.002l0.024-0.063l-0.011-0.05l-0.433-0.983l-0.042-0.136l-0.013-0.133l0.028-0.474l0.012-0.17
	l-0.01-0.046l-0.043-0.207l-0.148-0.205l-0.368-0.39l-0.069-0.111l-0.238-0.489l-0.205-0.265l-0.027-0.059l-0.052-0.264l0.034-0.074
	l0.041-0.149l0.028-0.097l0.125-0.213l0.405-0.415l0.025-0.055l0.005-0.097l-0.035-0.229l0.002-0.026l-0.034-0.099l0.021-0.188
	l-0.033-0.117l-0.166-0.203l-0.068-0.104l0.017-0.096l-0.015-0.057l-0.023-0.062l-0.064-0.12l-0.011-0.041l0.031-0.248l0.024-0.046
	l0.028-0.038l0.049-0.016l0.08,0.019l0.105-0.003l0.012-0.101l-0.014-0.141l0.03-0.114l0.051-0.035l0.11-0.048l0.057-0.043
	l0.068-0.076l0.045-0.068l0.027-0.081l0.032-0.143l0,0l0.121,0.04l0.093,0.003l0.023,0.036l-0.063,0.109l0.068,0.093l0.104,0.095
	l0.038,0.118l0.11,0.081l0.082,0.046l0.068,0.062l0.068,0.125l0.008,0.058l-0.001,0.07l0.017,0.062l0.063,0.039l0.039-0.022
	l0.027-0.067l0.025-0.138l0.035,0.072l0.026,0.065l0.033,0.058l0.051,0.048v-0.058l-0.017-0.052l-0.01-0.055l0.021-0.061
	l0.083,0.034l0.073-0.003l0.064-0.032l0.045-0.058l-0.022-0.032l-0.021,0.006l-0.063-0.006l0.044-0.038l0.017-0.026l-0.011-0.021
	l-0.035-0.021l0.097-0.917l-0.043-0.107l-0.056-0.084l-0.046-0.086l-0.007-0.11l0.09-1.471l-0.068-0.393l-0.006-0.179l0.072-0.154
	l0.123-0.138l0.081-0.15l-0.047-0.193l0.041-0.003l0.048,0.007l0.03-0.071l0.055-0.021l0.066-0.008l0.066-0.027l0.045-0.049
	l0.163-0.33l0.072-0.435l0.09-0.252l0.006-0.122l-0.025-0.168l-0.051-0.136l-0.154-0.29l-0.031-0.132l0.16-0.032l0.051-0.127
	l-0.026-0.167l-0.104-0.206l-0.008-0.032l-0.004-0.028l-0.012-0.033l-0.084-0.126l-0.061-0.068l-0.235-0.183l-0.007-0.193
	l-0.121-0.171l-0.332-0.258l0.016-0.129l-0.105-0.107l-0.147-0.083l-0.11-0.043l-0.04-0.041l-0.162-0.231l-0.02-0.05l-0.007-0.063
	l0.002-0.057l0.008-0.044l0.066-0.216l0.051-0.114l0.065-0.074l0.046-0.096l-0.051-0.136l-0.169-0.257l0.013,0.07l0.073,0.145
	l0.021,0.071l-0.007,0.087l-0.029,0.068l-0.174,0.234l-0.041,0.114l-0.026,0.359l0.009,0.116l0.028,0.118l0.058,0.115l0.012,0.103
	l-0.043,0.171l-0.019-0.01l-0.366-0.017l-0.148-0.03l-0.095-0.068l-0.088-0.101l-0.154-0.219l-0.155,0.222l-0.066,0.058
	l-0.063,0.032l-0.223,0.076l-0.093-0.001l-0.054-0.033l0.001-0.03l0.015-0.029l-0.013-0.033l-0.035-0.032l-0.024-0.016l-0.472-0.179
	l-0.112-0.013l-0.167,0.097l0.02,0.186l0.047,0.203l-0.082,0.147l-0.102,0.006l-0.142-0.038l-0.141-0.059l-0.102-0.058l-0.062-0.068
	l-0.052-0.079l-0.051-0.057l-0.064-0.005l-0.317,0.181l-0.079,0.016l-0.071-0.081l-0.03-0.132l-0.012-0.138l-0.021-0.102
	l-0.057-0.096l-0.143-0.181l-0.058-0.1l-0.016-0.063l-0.016-0.207l-0.016-0.047l-0.011-0.023l-0.033-0.071l-0.154-0.55l-0.011-0.029
	l-0.033-0.052l-0.009-0.036l0.011-0.023l0.045-0.045l0.012-0.02l-0.003-0.069l-0.116-0.409l-0.128-0.207l-0.182-0.174l-0.238-0.146
	l-0.131-0.035l-0.317-0.044l-0.103-0.045l-0.07-0.094l-0.053-0.119l-0.088-0.278l-0.228-0.729l-0.038-0.227l0.009-0.02l0.044-0.047
	l0.013-0.023l-0.004-0.035l-0.028-0.056l-0.009-0.028l-0.024-0.224l0.022-0.237l-0.003-0.075l-0.002-0.051l-0.044-0.125
	l-0.048-0.055l-0.113-0.078l-0.045-0.055l-0.065-0.159l-0.031-0.044l-0.137-0.087l-0.053,0.07l-0.03,0.13l-0.069,0.097l-0.033-0.089
	l-0.047-0.275l-0.026-0.653l-0.019-0.072l-0.024-0.066l-0.014-0.067l0.017-0.077l0.035-0.046l0.088-0.05l0.042-0.032l0.038-0.067
	l0.057-0.203l0.027-0.043l0.072-0.068l0.027-0.041l0.049-0.174l0.068-0.242l0.09-0.104l0.211-0.123l0.199-0.078l0.215-0.04
	l0.517,0.01l0.798,0.015l0.094-0.028l0.016-0.077l0.002-0.006l0.002-0.104l0.049-0.09l0.409-0.347l0.055-0.087l0.013-0.066
	l0.053-0.655l-0.01-0.033l0.017-0.006l0.12-0.006l0.035-0.001l0.172,0.036l0.582,0.212l0.146,0.082l0.081,0.084l0.169,0.225
	l0.087,0.065h0.086l0.365-0.181l0.037-0.02h0.07l0.125,0.068l0.066,0.037l0.121,0.039l0.104-0.002l0.322-0.101l0.053-0.033v-0.061
	l-0.016-0.036l-0.034-0.079l-0.053-0.076l-0.141-0.17l-0.039-0.067l0.008-0.1l0.437-1.04l0.159-0.166l0.766-0.558l0.655-0.476
	l0.287-0.346l0.213-0.405l0.114-0.383l0.057-0.076l0.117-0.012l0.916,0.178h0.131l0.158-0.052l0.422-0.219l0.745-0.384l0.174-0.14
	l0.091-0.206l0.012-0.026l0.072-0.561l0.094-0.727l0.11-0.848l0.08-0.622l0.079-0.615l0.177-0.007l0.161,0.026l0.136,0.082
	l0.102,0.155l0.052,0.063l0.077,0.031l0.086,0.021l0.076,0.033l0.054,0.049l0.043,0.057l0.067,0.122l0.03,0.079l0.015,0.059
	l0.033,0.052l0.091,0.056l0.092,0.024l0.1,0.008l0.091,0.027l0.067,0.072l0.042,0.155l0.023,0.147L1239.585,685.017z"/></svg>