<?xml version="1.0" encoding="utf-8"?>
<!-- Generator: Adobe Illustrator 15.0.0, SVG Export Plug-In . SVG Version: 6.00 Build 0)  -->
<!DOCTYPE svg PUBLIC "-//W3C//DTD SVG 1.1//EN" "http://www.w3.org/Graphics/SVG/1.1/DTD/svg11.dtd">
<svg version="1.1" id="Ebene_1" xmlns="http://www.w3.org/2000/svg" xmlns:xlink="http://www.w3.org/1999/xlink" x="0px" y="0px"
	 width="1920px" height="1080px" viewBox="0 0 1920 1080" enable-background="new 0 0 1920 1080" xml:space="preserve">

<path fill="#F4E0B6" stroke="#FFFFFF" d="M1556.182,70.472l0.057-0.101l-0.007-0.112l0.013-0.048l0.104-0.016l0.033-0.043
	l0.028-0.06l0.035-0.056l0.121-0.107l0.041-0.051l0.06-0.123l0.035-0.051l0.168-0.122l0.219-0.305l0.232-0.215l0.04-0.056
	l0.035-0.116l0.334-0.591l0.044-0.048l0.064,0.001l0.067-0.025l0.054-0.044l0.064-0.111l0.055-0.022l0.109-0.015l0.022-0.023
	l0.021-0.034l0.023-0.028l0.033-0.003l0.055,0.031l0.009,0.034l-0.018,0.031l-0.036,0.021l0.02,0.055l0.001,0.036l-0.018,0.032
	l-0.041,0.036l0.033,0.072l0.01,0.074l-0.019,0.07l-0.047,0.06l0.063,0.042l-0.001,0.032l-0.031,0.032l-0.024,0.04l-0.06,0.245
	l-0.014,0.027l-0.037,0.011l-0.009,0.03l0.01,0.034l0.039,0.059l0.007,0.02l0.009,0.069l0.02,0.068l-0.016,0.049l-0.102,0.011
	l0.018-0.047l0.003-0.049l-0.021-0.036l-0.054-0.005l-0.041,0.023l-0.006,0.041l0.009,0.052l-0.004,0.058l-0.028,0.045l-0.046,0.019
	l-0.043,0.009l-0.021,0.014l-0.005,0.061l0.004,0.052l-0.009,0.046l-0.041,0.05l-0.021-0.022l-0.055-0.042l-0.018,0.05l-0.024,0.021
	l-0.037-0.001l-0.057-0.021l0.031,0.069l0.043,0.06l0.031,0.059l0.004,0.063l-0.172,0.177l0.029,0.1l-0.054,0.042h-0.088
	l-0.081-0.028l-0.035-0.047l-0.035-0.065l-0.045-0.04l-0.065,0.023l-0.039,0.054l0.013,0.031l0.03,0.023l0.011,0.035l-0.021,0.034
	l-0.035,0.021l-0.047,0.016l0.008,0.092l0.032,0.097l0.079,0.17l-0.123-0.004l-0.051-0.246l-0.091-0.024l-0.042,0.042l-0.029,0.124
	l-0.026,0.051l-0.058,0.041l-0.122,0.036l-0.074,0.037l-0.019,0.04l0.008,0.05l-0.004,0.036l-0.058-0.001l-0.114-0.062l-0.043,0.001
	l-0.033,0.069l-0.026,0.034l-0.051,0.034l-0.055,0.023l-0.039,0.007l-0.068-0.026l-0.058-0.034l-0.109-0.085L1556.182,70.472z
	 M1557.275,65.054l0.055-0.01l0.037-0.021l-0.011-0.075l0.078-0.1l0.05-0.046l0.056-0.009l0.056,0.005l0.076-0.004l0.07-0.021
	l0.04-0.037l0.059,0.057l0.044,0.054l0.03,0.059l0.019,0.073L1557.837,65l-0.068,0.09l-0.041,0.12l-0.009,0.12l0.055,0.222
	l-0.027,0.078l-0.143-0.013l-0.009,0.034l0.141,0.075l0.043,0.098l-0.031,0.117l-0.084,0.135l-0.013,0.083l-0.039,0.041h-0.086
	l-0.041,0.011l-0.043,0.045l-0.039,0.058l-0.021,0.052l-0.035-0.039l-0.025-0.044l-0.016-0.048l-0.007-0.056l-0.028,0.023
	l-0.104,0.025l0.005-0.036l0.013-0.018l0.037-0.015l0.075-0.078l0.076-0.24l0.08-0.104l-0.032-0.051l0.051-0.061l-0.006-0.037
	l-0.042-0.012l-0.062,0.013l-0.011,0.041l0.042,0.012l-0.008,0.034l-0.033,0.035l-0.036,0.03l-0.035,0.01l-0.032-0.028l-0.035,0.044
	l-0.041,0.026l-0.05,0.011l-0.058-0.009l0.062-0.099l0.039-0.152l0.021-0.24l0.047-0.055l0.008-0.049l-0.006-0.048l0.002-0.056
	L1557.275,65.054z M1555.545,70.325l0.045,0.034l0.06,0.057l0.029,0.064l-0.04,0.054l0.022,0.02l0.016,0.062l0.001,0.079
	l-0.028,0.066l-0.021-0.063l-0.002-0.026l-0.039-0.01l-0.154,0.123l0.025,0.049l-0.017,0.021l-0.037,0.012l-0.039,0.021
	l-0.164,0.162l-0.119,0.057l-0.065-0.038l-0.01-0.076l0.055-0.061l0.074-0.055l0.126-0.259l0.233-0.197L1555.545,70.325z
	 M1551.053,73.264l0.195-0.333l0.009-0.08l0.016-0.054l0.147-0.139l0.044-0.056l-0.009-0.183l-0.055-0.22l-0.021-0.201l0.093-0.126
	l0.014-0.043l0.119-0.171l0.06-0.056l0.08-0.033l0.051,0.019l0.03,0.055l0.016,0.083l0.004,0.065l-0.039,0.253l-0.003,0.067
	l0.022,0.121l0.002,0.061l-0.037,0.123l-0.082,0.143l-0.223,0.293l-0.16,0.322l-0.216,0.189l-0.037-0.011l0.013-0.038l-0.007-0.02
	l-0.015-0.013L1551.053,73.264z M1549.317,82.545l0.024-0.049l-0.008-0.058L1549.3,82.4l-0.02-0.029l0.033-0.035l0.021,0.002
	l0.018,0.008l0.012-0.004V82.31l0.11,0.24l0.057,0.039l0.037-0.145l0.026,0.05l0.057,0.094l0.026,0.049l0.056,0.027l-0.003,0.099
	l-0.065,0.089l-0.126,0.003l-0.054,0.039l-0.035,0.29l-0.033,0.111l0.087,0.064l0.084,0.026l0.07,0.032l0.042,0.083l-0.181-0.007
	l-0.09-0.021l-0.112-0.079l-0.06-0.072l-0.043-0.09l-0.023-0.106l-0.003-0.119l0.044-0.366l0.024-0.051L1549.317,82.545z
	 M1548.769,83.858l0.053-0.011l-0.002-0.097l0.01-0.092l-0.005-0.097l-0.047-0.109l0.046-0.068l0.063-0.051l0.074,0.012l0.083,0.123
	l0.049-0.031l0.057,0.049l0.09,0.039l0.057,0.048l0.07-0.017l0.059,0.02l0.047,0.051l0.032,0.08l-0.071,0.104l-0.072,0.145
	l-0.037,0.159l0.025,0.146l-0.132,0.019l-0.06,0.025l-0.04,0.044l-0.039-0.064l0.071-0.066l0.066-0.086l0.051-0.105l0.032-0.119
	l0.018-0.125l-0.011-0.043l-0.044,0.018l-0.414,0.294l-0.059,0.012l-0.057-0.039l-0.026-0.074l0.018-0.058L1548.769,83.858z
	 M1549.211,75.424L1549.2,75.5l-0.056-0.043l0.017-0.061L1549.211,75.424z M1548.523,76.61l0.05,0.06l-0.041-0.004L1548.523,76.61z
	 M1548.055,76.561l0.047,0.06l-0.035,0.015l-0.04-0.068L1548.055,76.561z M1545.189,80.742l0.134-0.04l-0.058,0.142l0.09,0.085
	l0.133,0.028l0.072-0.028l0.043-0.058l0.197-0.165l0.068-0.107l0.049-0.111l0.005-0.051l-0.027-0.067l-0.058-0.064l-0.069-0.04
	l-0.06-0.004l-0.027,0.042l-0.049-0.016l-0.092-0.134l-0.113-0.198l-0.069-0.185l-0.022-0.253l0.084-0.203l0.248-0.033l0.112,0.055
	l0.22,0.171l0.232,0.112l0.339,0.355l0.032,0.063l0.069-0.002l0.194,0.151l0.118,0.012l-0.102,0.101l-0.217,0.163l-0.077,0.103
	l-0.253,0.614l-0.08,0.298l-0.016,0.143l-0.022,0.1l-0.041,0.068l-0.1-0.013l-0.186-0.053l-0.161-0.08l-0.021-0.098l-0.054-0.078
	l-0.076-0.123l-0.066-0.077l-0.039,0.057l-0.035,0.034l-0.072,0.04l-0.131,0.05l-0.004,0.041l0.165,0.054l0.085,0.159l-0.014,0.147
	l-0.129,0.022l-0.05-0.008l-0.026,0.021l-0.016,0.026l-0.024,0.01l-0.052-0.013l-0.309-0.137l-0.046,0.004l-0.19,0.067l-0.044,0.003
	l-0.081-0.015l-0.066,0.023l-0.046,0.049l-0.047,0.125l-0.043,0.008l-0.046-0.01l-0.033,0.005l-0.013,0.034l-0.024,0.099
	l-0.021,0.035l-0.068,0.047l-0.07,0.03l-0.087,0.002l-0.114-0.034l-0.103-0.049l-0.122-0.075l-0.075-0.075l0.114-0.157l0.108-0.094
	l0.125-0.058l0.14,0.016l0.146-0.006l0.104-0.118l0.085-0.156l0.092-0.121l0.502-0.249l0.079-0.091l0.075-0.143L1545.189,80.742z
	 M1543.564,80.328l0.027,0.088l-0.034,0.023l-0.067-0.009l-0.041,0.018l-0.026,0.01l-0.052,0.024l-0.121,0.134l-0.091,0.058
	l-0.079-0.048l-0.032-0.116l0.013-0.107l0.049-0.079l0.049-0.049l0.057-0.001l0.013-0.014l0.03,0.006l0.087,0.046l0.007,0.031
	l0.002,0.016l0.045,0.006l0.023-0.006l0.01-0.026l0.031-0.024l0.045-0.012L1543.564,80.328z M1541.757,82.089l0.067-0.088
	l0.007-0.08l-0.029-0.122l0.012-0.116l-0.009-0.113l-0.09-0.111l0.203-0.178l0.205-0.131l0.045-0.019l0.035,0.005l0.082,0.034
	l0.034,0.002l0.065-0.042l0.07-0.065l0.06-0.073l0.032-0.066l0.035-0.006l0.211,0.093l0.037,0.037l0.004,0.052l0.014,0.039
	l0.062-0.01l0.06-0.056l0.016-0.063l0.024-0.043l0.155,0l0.044-0.039l0.039-0.046l0.058-0.023l0.077,0.02l0.059,0.053l0.038,0.071
	l0.02,0.076l-0.074,0.042l0.044,0.117l0.184,0.314l-0.103-0.046l-0.142-0.133l-0.067-0.047l-0.058,0.024l-0.029,0.1l-0.017,0.214
	l0.11,0.02l-0.026,0.127l-0.127,0.247l-0.005,0.44l-0.018,0.15l-0.083,0.207l-0.121,0.194l-0.1,0.227l-0.021,0.297l0.01,0.277
	l-0.024,0.22l-0.046,0.006l-0.085-0.136l-0.13-0.289l-0.059-0.191l-0.062-0.095l-0.087-0.047l-0.134-0.049l-0.067,0.023
	l-0.209,0.249l-0.455,0.029l-0.19-0.055l-0.141-0.118l-0.091-0.184l-0.04-0.205l0.01-0.175l0.23-0.313l0.094-0.181l0.086-0.056
	l0.159-0.069L1541.757,82.089z M1541.111,83.839l0.052-0.002l-0.002-0.009l0.07-0.031h0.033l0.022,0.032l0.019,0.042l0.028,0.036
	l0.096,0.074l0.217,0.204l0.072,0.098l0.042,0.035l0.022-0.052l0.016-0.116l0.058,0.021l0.042,0.027l0.066,0.065l0.102,0.163
	l-0.021,0.17l-0.088,0.158l-0.101,0.13l0.014,0.021l0.006,0.007l0.004,0.009l0.01,0.032l-0.094-0.044l-0.098-0.033l-0.08,0.004
	l-0.039,0.061l-0.025,0.101l-0.1,0.229l-0.033,0.048l-0.071,0.016l-0.081,0.006l-0.069,0.018l-0.235,0.176l-0.056,0.018
	l-0.204-0.087l-0.179-0.099l-0.16-0.136l-0.143-0.193l-0.113-0.208l-0.079-0.203l-0.021-0.18l0.065-0.141l0.215-0.283l0.128-0.114
	l0.158-0.067l0.288-0.011l0.153,0.032L1541.111,83.839z M1541.504,71.197l0.327-0.186l0.068-0.465l0.085-0.237l0.073-0.128
	l0.083-0.194l0.011-0.183l0.028-0.099l0.029-0.117l0.04-0.104l0.06-0.071l0.087-0.03l0.042-0.061l0.198-0.053l0.085-0.083
	l0.099-0.168l-0.026-0.121l0.11-0.11l0.072-0.038l0.14,0.052l0.08-0.123l0.104-0.104l0.067-0.081l0.045,0.106l0.055,0.057
	l0.042-0.02l0.026,0.03l0.04,0.037l0.005,0.063l-0.047,0.048l-0.057,0.03l-0.056,0.058l0.02,0.043l0.056,0.072l0.045-0.003
	l0.104-0.083l0.115-0.083l0.102-0.008l0.049,0.063l-0.005,0.037l-0.094,0.005L1543.716,69l-0.024,0.115l0.084,0.185l-0.033,0.228
	l0.004,0.118l-0.045,0.03l-0.015,0.091l-0.094,0.024l-0.12,0.06l-0.056,0.069l-0.091,0.062l-0.086,0.023l-0.059,0.026l0.063,0.051
	l0.04,0.08l0.089,0.008l0.058-0.125l0.102,0.035l0.081,0.116l-0.181,0.043l-0.074,0.098l-0.094,0.142l-0.077,0.078l-0.137,0.032
	l-0.073-0.058l0.126-0.096l0.038-0.126l-0.09,0.008l-0.045-0.043l-0.017-0.046l0.004-0.037l-0.006-0.035l-0.069,0.04l-0.039,0.035
	l-0.048,0.056l-0.085,0.099l-0.171,0.125l-0.12,0.101l-0.11,0.062l0.02,0.154l-0.044,0.042l-0.081,0.05l-0.079,0.074l-0.108,0.147
	l-0.012,0.202l-0.056,0.027l-0.03-0.217l-0.042-0.011l-0.094,0.004l-0.165,0.085l-0.09,0.102l0.061,0.169l0.098,0.034l0.107,0.014
	l0.222,0.055l0.066,0.022l0.071,0.054l-0.295-0.022l-0.271,0.065l-0.092-0.121l-0.081-0.304L1541.504,71.197z M1532.087,123.496
	l0.035,0.119l-0.069,0.061l-0.089-0.013l-0.049-0.09l-0.015-0.073l-0.022-0.048l-0.004-0.038l0.028-0.029l0.06,0.014
	L1532.087,123.496z M1536.711,77.903l0.004,0.01l-0.004,0.016l0.002,0.02l0.271,0.08l0.108,0.054l0.103,0.076l0.227-0.12l0.24,0.068
	l0.745,0.395l0.146,0.054l0.077-0.035l0.064-0.068l0.121-0.036l0.126-0.003l0.079,0.031l-0.084,0.045l-0.321,0.09l-0.278,0.263
	l-0.036,0.001l-0.039-0.037l-0.303-0.372l-0.261-0.204l-0.102-0.046l-0.026,0.01l-0.117,0.073l-0.065,0.058l-0.032,0.042
	l-0.105,0.318l-0.068,0.084l-0.118,0.009l-0.112-0.137l-0.053-0.033l-0.065-0.03l-0.048-0.045l-0.082-0.119l-0.055-0.118
	l-0.01-0.131l0.045-0.268L1536.711,77.903z M1533.18,124.895l0.019,0.089l-0.057,0.054l-0.114-0.005l-0.087,0.011l-0.067,0.072
	l-0.385,0.595l-0.114,0.103l-0.037,0.058l-0.024,0.083l-0.029,0.069l-0.057,0.017l-0.082,0.01l-0.342,0.278l-0.119,0.306
	l-0.082,0.138l-0.062,0.046l-0.205,0.079l-0.063,0.051l-0.093,0.1l-0.069,0.039l-0.003-0.094l-0.013-0.086l0.011-0.068l0.27-0.143
	l0.079-0.067l0.159-0.49l0.222-0.446l0.028-0.125l0.027-0.051l0.059-0.024l0.114-0.028l0.521-0.425l0.051-0.11l0.049-0.111
	l0.108-0.06l0.137-0.008l0.139,0.045L1533.18,124.895z M1530.887,125.875l0.025-0.04l0.006-0.073l-0.026-0.202l0.026-0.407
	l0.104-0.517l0.051-0.052l0.153,0.042l0.088,0.009l0.167-0.046l0.094-0.012l0.077,0.03l0.048,0.074l0.01,0.122l-0.033,0.308
	l-0.035,0.114l-0.162,0.243l-0.123,0.064l-0.046,0.118l-0.064,0.251l-0.078,0.106l-0.137,0.127l-0.139,0.041l-0.079-0.155
	l0.004-0.082l0.031-0.039L1530.887,125.875z M1531.36,124.097l0.034,0.079l-0.021,0.113l-0.093,0.11l-0.263,0.139l-0.154,0.253
	l-0.079-0.085l0.001-0.301l0.066-0.216l0.095-0.086l0.114-0.037h0.11l0.057,0.006l0.082-0.007L1531.36,124.097z M1529.74,123.527
	l0.074,0.157l-0.032,0.193l-0.166,0.071l-0.178,0.033l-0.09-0.114l0.037-0.157l0.039-0.071l0.035-0.044l0.079-0.079l0.1-0.032
	L1529.74,123.527z M1529.363,123.35l0.053,0.061l-0.048,0.075l-0.065,0.149l-0.038,0.245l-0.091,0.127l-0.11,0.013l-0.133,0.019
	l-0.065-0.104l0.027-0.206l0.139-0.225l0.096-0.091l0.081-0.041L1529.363,123.35z M1515.642,92.182l0.035-0.02l-0.017-0.023
	l-0.003-0.021l0.002-0.021l-0.002-0.025l0.075-0.051l0.176-0.088l0.085-0.061l0.06-0.073l0.095-0.22l0.095-0.129l0.115-0.125
	l0.258-0.226l0.175-0.089l0.155,0.005l0.486,0.19l0.244,0.199l0.139,0.079l-0.04,0.052l-0.023,0.019l0.04,0.007l0.076,0.025
	l0.039,0.008l-0.025,0.054l-0.001,0.051l0.021,0.052l0.038,0.056l-0.078,0.009l-0.193-0.034l-0.097,0.009l-0.057,0.036l-0.049,0.061
	l-0.077,0.149l-0.063,0.187l-0.061,0.074l-0.115,0.052l-0.044,0.004l-0.123-0.007l-0.059,0.021l-0.233,0.167l-0.096,0.047
	l-0.216,0.065l-0.126,0.063l-0.055,0.009l-0.046-0.012l-0.137-0.074l-0.273-0.049l-0.075-0.044l-0.051-0.078l0.011-0.151
	l-0.048-0.09l0.031-0.006l0.016-0.013L1515.642,92.182z M1525.482,53.089l0.193-0.06l0.008-0.099l0.079-0.088l0.114-0.066
	l0.113-0.029l-0.044-0.045l-0.01-0.049l0.02-0.051l-0.031-0.069l0.044-0.055l0.031-0.077l0.097-0.368l0.035-0.052l0.043,0.053
	l0.038,0.009l0.049-0.049l-0.021-0.035l-0.044-0.037l-0.02-0.051l0.022-0.084l0.03-0.018l0.041,0.013l0.052,0.011l0.047,0.047
	l0.034,0.019l0.023-0.019l0.064-0.102l0.007-0.019l0.078-0.011l0.132,0.008l0.199-0.098l0.286-0.047l0.145-0.053l0.029-0.023
	l0.025-0.038l0.027-0.017l0.079-0.023l0.028-0.012l0.056,0.005l0.186,0.081l0.104-0.019l0.211,0.002l0.104-0.028l-0.005-0.091
	l0.053-0.079l0.072-0.08l0.049-0.09l0.367-0.191l0.029-0.009l0.029-0.016l0.043-0.035l0.011-0.025l0.006-0.064l0.013-0.026
	l0.039-0.026l0.119-0.033l0.11-0.054l0.086-0.024l0.303,0.019l0.066-0.005l0.424-0.085l0.36-0.201l0.023-0.026l0.002-0.076
	l-0.024-0.061l-0.046-0.064l0.056-0.054l0.097-0.017l0.107-0.033l0.08-0.108l0.019-0.14l-0.056-0.046l-0.078-0.034l-0.047-0.103
	l0.041,0.011l0.021,0.02l0.019,0.012l0.028-0.005l0.053-0.035l0.057,0.037l0.167-0.097l0.141-0.022l0.042-0.034l0.032-0.05
	l0.021-0.053l0.043-0.048l0.078-0.03l0.15-0.032l0.102-0.038l0.089-0.049l0.072-0.07l0.044-0.101l0.08-0.099l0.139-0.054
	l0.282-0.049l0.195-0.077l0.181-0.093l0.193-0.068l0.221,0.005l0.061,0.021l0.099,0.055l0.058,0.022l0.07,0.004l0.138-0.02
	l0.06,0.003l0.131,0.001l0.251-0.078l0.144,0.018l0.118,0.07l0.108,0.108l0.088,0.125l0.061,0.12l-0.237-0.125l-0.138-0.046
	l-0.073,0.032l0.042,0.06l0.316,0.256l-0.19,0.094l-0.004,0.217l0.087,0.24l0.087,0.166l0.147,0.187l0.04,0.084l-0.008,0.119
	l-0.028,0.058l-0.076,0.086l-0.029,0.063l-0.063,0.247l-0.11,0.221l-0.146,0.222l-0.316,0.366l-0.253,0.181l-0.043,0.044
	l-0.049,0.083l-0.085,0.082l-0.189,0.13l-0.076,0.034l-0.139,0.036l-0.901,0.47l-0.167,0.038l0.026-0.099l0.022-0.04l0.037-0.038
	l-0.163-0.147l-0.243-0.125l-0.266-0.09l-0.236-0.043l-0.285,0.04l-0.188,0.145l-0.304,0.504l-0.16,0.169l-0.137,0.094l-0.078,0.11
	l-0.049,0.047l-0.065,0.037l-0.039,0.007l-0.124-0.008l-0.248,0.021l-0.13,0.067l-0.032,0.007l-0.061,0.027l-0.186,0.229
	l-0.221,0.107l-0.128,0.115l-0.082,0.058l-0.088,0.042l-0.077,0.006l-0.09,0.027l-0.206,0.166l-0.122,0.018l-0.063-0.011
	l-0.114-0.005l-0.058-0.01l-0.044-0.048l-0.046-0.038l-0.063-0.027l-0.125-0.006l-0.108,0.036l-0.165,0.097l-0.081,0.029
	l-0.049,0.007l-0.041-0.002l-0.046-0.027l-0.203-0.157l-0.452-0.192l-0.103-0.073l-0.101-0.036l-0.115,0.052l-0.033-0.009
	l-0.01-0.02l-0.005-0.006l-0.007-0.006l-0.011-0.016l0.118-0.074l0.031-0.041l-0.026-0.049l-0.086-0.038l-0.092,0.007l-0.087,0.021
	l-0.076,0.002l-0.143,0.03l-0.295,0.177l-0.111-0.041l0.022-0.188l0.184-0.193L1525.482,53.089z M1515.866,90.295l0.059,0.181
	l-0.09,0.156l-0.178,0.043l-0.178-0.06l-0.081-0.155l0.123-0.129l0.184-0.07L1515.866,90.295z M1514.448,92.967l0.084,0.079
	l0.035,0.07l0.048,0.187l-0.188,0.076l-0.006,0.015l-0.006,0.054l-0.008,0.013l-0.026-0.001l-0.022-0.009l-0.021-0.005l-0.028,0.007
	l-0.059-0.015l-0.043-0.086l-0.021-0.112l0.012-0.09l0.039-0.101l0.064-0.033l0.074-0.013L1514.448,92.967z M1514.428,95.561
	l0.023,0.056l-0.018,0.031l-0.029,0.026l-0.016,0.043l0.01,0.069l0.058,0.16l-0.057,0.197l-0.15,0.132l-0.324,0.165l-0.205,0.173
	l-0.097,0.04l-0.096,0.007l-0.098-0.022l-0.19-0.088l-0.118-0.079l-0.034-0.067l-0.005-0.232l-0.036-0.102l-0.052-0.107
	l-0.032-0.114l0.025-0.125l0.261-0.141l0.081-0.065l0.093-0.118l0.037-0.009l0.081,0.018l0.137,0.024l0.141-0.002l0.127-0.032
	l0.09-0.067l0.035,0.009l0.065,0.108l0.105,0.045l0.11,0.023L1514.428,95.561z M1523.252,53.182l0.16,0.08l0.083,0.023l0.095-0.012
	l0.065-0.039l0.046-0.046l0.06-0.037l0.103-0.005l0.168,0.052l0.475,0.28l0.355,0.11l0.139,0.089l0.029,0.142l-0.108-0.064
	l0.007,0.09l0.058,0.055l0.069,0.054l0.039,0.083l-0.408-0.004l-0.604,0.075l-0.156-0.019l-0.142,0.007l-0.079-0.021l-0.02-0.07
	l-0.032-0.048l-0.088-0.042l-0.3-0.078l-0.121-0.003l-0.045,0.073l0.084,0.185l-0.18-0.083l-0.171-0.183l-0.135-0.218l-0.072-0.188
	l0.081-0.17l0.18-0.081l0.204-0.014L1523.252,53.182z M1517.41,72.336l-0.01,0.146l-0.041,0.096l-0.048,0.035l-0.067,0.063
	l-0.086,0.048l-0.061-0.029l-0.051-0.102l-0.019-0.049l-0.021-0.104l0.017-0.087l0.043-0.066l0.08-0.081l0.118-0.073l0.083,0.021
	l0.055,0.114L1517.41,72.336z M1514.226,83.608l0.136,0.167l-0.054,0.064l-0.069,0.063l-0.076,0.034l-0.077-0.029l-0.021-0.052
	l-0.027-0.246l0.11-0.039L1514.226,83.608z M1509.663,100.194l0.081,0.02l-0.027,0.035l-0.033,0.03l0.021,0.013l0.013,0.003
	l0.004,0.008l-0.007,0.03l0.104,0.001l-0.017,0.09l-0.089,0.097l-0.114,0.03l-0.084-0.037l-0.066-0.064l-0.029-0.085l0.026-0.104
	l0.146-0.053L1509.663,100.194z M1513.446,81.157l0.091-0.053l0.091-0.007l0.091,0.031l0.045,0.025l0.023,0.028l-0.002,0.053
	l-0.033,0.013l-0.045-0.001l-0.038,0.006l-0.069,0.026l-0.072,0.009l-0.064,0.02l-0.049,0.062l-0.004,0.089l0.049,0.043l0.066-0.011
	l0.044-0.079l0.038,0.047l0.014,0.052l0.014,0.124l-0.141,0.106l-0.107-0.096l-0.063-0.184l-0.011-0.159l0.055-0.071
	L1513.446,81.157z M1509.001,101.934l0.032,0.185l-0.046,0.082l-0.21,0.147l-0.049,0.019l-0.104,0.018l-0.108-0.015l-0.116-0.044
	l-0.132-0.075l-0.272-0.197l-0.114-0.112l-0.25-0.388l-0.029-0.128l0.062-0.116l0.086-0.065l0.274-0.156l0.093-0.008l0.145,0.025
	l0.195,0.055l0.037,0.041l0.058,0.037l0.123,0.046l0.067,0.054l0.058,0.096l0.141,0.298L1509.001,101.934z M1518.987,54.99
	l0.105-0.138l0.153-0.085l0.171-0.026l0.154,0.044l0.112,0.156l-0.087,0.136l-0.171,0.072l-0.144-0.039l0.063-0.018l0.136-0.012
	l0.057-0.023l0.055-0.05l0.005-0.04l-0.067-0.095l-0.123-0.063l-0.156,0.05l-0.143,0.098l-0.088,0.082l0.005,0.01l0.007,0.008
	l0.008,0.011l0.008,0.018l-0.037-0.016l-0.014-0.022L1518.987,54.99z M1518.793,55.138l-0.01,0.039l-0.121-0.005l-0.134,0.014
	l-0.104-0.006l-0.03-0.067l0.063-0.022l0.108,0.003L1518.793,55.138z M1514.676,65.423l0.264-0.002l0.041,0.024l-0.002,0.084
	l-0.012,0.033l-0.047,0.093l-0.027,0.033l-0.046,0.005l-0.069-0.005l-0.058,0.015l-0.011,0.062l0.044,0.045l0.081,0.019l0.143,0.009
	l0.207,0.053l0.076-0.026l0.062-0.102l-0.005-0.033l-0.016-0.043l-0.006-0.057l0.033-0.068l0.048-0.033l0.062-0.026l0.059-0.036
	l0.04-0.071l0.126-0.333l0.026-0.099l-0.012-0.251l0.022-0.078l0.095-0.007l0.08,0.041l0.546,0.439l0.184,0.075l0.198,0.003
	l0.386-0.072l0.231-0.004l0.236,0.053l0.332,0.196l0.227,0.103l0.462,0.505l0.019,0.066l0.021,0.03l0.161,0.138l0.021,0.049
	l0.035,0.114l0.099,0.149l0.024,0.088l-0.03,0.252l0.013,0.188l-0.03,0.116l-0.136,0.264l-0.029,0.079l-0.062,0.108l-0.025,0.063
	l0.034,0.076l-0.044,0.068l-0.094,0.103l0.042,0.121l0.107,0.062l0.66,0.161l0.148,0.004l0.1-0.035l0.299-0.22l0.046-0.024
	l0.061,0.001l0.046-0.016l0.041-0.053l0.058-0.097l0.345-0.154h0.104l0.234-0.054l0.138,0.02l0.259,0.25l0.008,0.034l0.027,0.041
	l0.038,0.036l0.035,0.021l0.037,0.032l-0.002,0.054l-0.017,0.063l-0.008,0.063l0.071,0.298l0.021,0.05l0.188,0.297l0.002,0.049
	l-0.021,0.187l0.023,0.194l-0.01,0.072l0.02,0.102l0.066,0.115l0.053,0.133l-0.022,0.151l-0.091,0.105l-0.241,0.107l-0.106,0.077
	l-0.056,0.098l-0.045,0.137l-0.021,0.14l0.02,0.109l0.148,0.181l0.012,0.067l-0.036,0.067l-0.046,0.004l-0.057-0.012l-0.061,0.01
	l-0.076,0.087l-0.103,0.374l-0.071,0.187l0.003,0.089l0.058,0.09l0.111,0.067l0.103-0.006l0.091-0.031l0.077-0.01l0.025-0.021
	l0.039-0.132l0.027-0.044l0.189-0.114l0.101,0.014l0.068,0.121l0.014,0.159l-0.064,0.127l0.027,0.098l0.05,0.123l0.063,0.107
	l0.065,0.056l0.108,0.04l0.101,0.056l0.081,0.067l0.058,0.071l0.121,0.218l0.024,0.085l0.026,0.194l-0.001,0.087l-0.023,0.049
	l0.077,0.102l0.098,0.25l0.072,0.12l0.051,0.046l0.038,0.021l0.035,0.029l0.085,0.176l-0.015,0.038l-0.07,0.006l0.033,0.345
	l0.036,0.18l0.081,0.094l0.126,0.115l-0.027,0.179l-0.146,0.305l-0.011,0.427l0.025,0.075l0.04,0.063l-0.084,0.096l-0.212,0.141
	l-0.008,0.035l0.055,0.04l0.056,0.054l0.06,0.039l0.142-0.02l0.063,0.043l0.057,0.058l0.125,0.087l0.023,0.073l-0.007,0.106
	l0.027,0.214l-0.018,0.212l0.011,0.055l0.035,0.075l-0.01,0.029l-0.043,0.012l-0.058,0.026l-0.023,0.081l0.03,0.133l0.058,0.132
	l0.058,0.079l-0.015,0.013l-0.002,0.008l-0.005,0.004l-0.028,0.002l0.146,0.254l0.049,0.143l0.002,0.128l0.02,0.056l0.111,0.176
	l0.034,0.077l0.006,0.264l-0.021,0.15l-0.049,0.087l-0.045,0.057l0.01,0.066l0.027,0.064l0.008,0.059l-0.018,0.014l-0.027,0.004
	l-0.03,0.008l-0.02,0.03l0.002,0.017l0.014,0.052l-0.009,0.24l-0.024,0.15l-0.059,0.093l-0.1,0.028l-0.041,0.028l-0.054,0.114
	l-0.034,0.028l-0.028,0.039l-0.01,0.084l0.04,0.112l0.074,0.147l0.042,0.143l-0.053,0.099l-0.028,0.007l-0.03-0.003l-0.061-0.018
	l-0.035,0.003l-0.023,0.023l-0.018,0.03l-0.072,0.069l0.02,0.045l0.09,0.069l0.005,0.014l0.015,0.073l0.074-0.052l0.052,0.021
	l0.031,0.069l0.011,0.093l-0.077-0.042l-0.093,0.002l-0.081,0.035l-0.046,0.065l-0.005,0.08l0.014,0.11l0.036,0.12l0.056,0.111
	l-0.092,0.047l-0.031,0.054l-0.003,0.054l-0.008,0.056l-0.049,0.15l0.001,0.038l-0.062,0.14l-0.146,0.535l0.009,0.043l0.05,0.125
	l0.005,0.072l-0.062,0.128l-0.026,0.087l0.011,0.096l-0.059,0.021l-0.212,0.173l-0.077,0.043l-0.071,0.017l-0.146,0.048
	l-0.189,0.037l-0.506,0.211l-0.13,0.11l-0.285,0.502l-0.095,0.089l-0.049,0.058l-0.041,0.092l-0.001,0.098l0.072,0.172l0.01,0.064
	v0.051l0.02,0.15l-0.01,0.093l-0.05,0.177l-0.039,0.062l-0.061,0.033l-0.008,0.035l0.084,0.009l0.099,0.055l0.088,0.077l0.047,0.072
	l0.008,0.086L1521.126,86l0.015,0.048l0.018,0.098l-0.018,0.07l-0.099-0.028l-0.014-0.056l0.027-0.066l-0.003-0.042l-0.096,0.017
	l-0.068-0.058l-0.117,0.01l-0.115,0.071l-0.066,0.123l-0.079-0.08l-0.061-0.086l-0.069-0.054l-0.11,0.014l0.099,0.074l-0.002,0.053
	l-0.035,0.053l-0.001,0.084l-0.279,0.385l-0.121,0.223l0.005,0.157l-0.046,0.035l-0.048,0.026l-0.045-0.042l-0.034-0.046
	l-0.025-0.052l-0.015-0.06l-0.059,0.023l-0.017,0.033l-0.006,0.039l-0.033,0.044l-0.041,0.012l-0.038-0.008l-0.033,0.006
	l-0.025,0.053l-0.061,0.182l0.003,0.072l0.053,0.096l-0.049,0.031l-0.073-0.062l-0.073-0.014l-0.072,0.004l-0.068-0.004
	l-0.069,0.027l-0.028,0.091l-0.015,0.096l-0.032,0.037l-0.075,0.017l-0.029,0.08l-0.023,0.164l-0.07,0.081l-0.164,0.098l-0.071,0.07
	l0.081,0.166l0.035,0.095l0.003,0.081l-0.054,0.099l-0.186,0.134l-0.082,0.076l-0.051,0.114l-0.085,0.262l-0.08,0.086l-0.036,0.049
	l-0.023,0.07l-0.037,0.057l-0.072,0.009l-0.259,0.143l-0.261,0.039l-0.216-0.033l-0.61-0.269l-0.175-0.154l-0.126-0.198
	l-0.045-0.229l0.003-0.029l-0.003-0.007l-0.01-0.001l-0.018-0.016l0.057-0.081l0.051-0.059l0.139-0.104l0.035-0.038l0.046-0.094
	l0.045-0.042l0.052-0.016l0.11-0.002l0.05-0.011l0.128-0.129l0.01-0.177l-0.067-0.192l-0.107-0.176l-0.031-0.087l0.024-0.075
	l0.106-0.159l0.034-0.204l0.032-0.068l0.055-0.043l0.07-0.04l0.071-0.054l0.064-0.086l0.094-0.22l0.061-0.074l-0.069-0.029
	l-0.025-0.044l-0.02-0.123l-0.048-0.108l0.001-0.038l0.02-0.089l-0.003-0.082l-0.095-0.34l0.295-0.389l0.083-0.051l0.033-0.097
	l0.296-0.373l0.066-0.063l0.014-0.047l0.015-0.034l0.026-0.028l0.044-0.027l0.116-0.041l-0.004,0.006l0.077-0.032l0.034-0.021
	l0.099-0.734l-0.021-0.156l0.09-0.068l-0.007-0.078l-0.048-0.087l-0.034-0.1l0.066-0.022l0.068-0.048l0.022-0.06l-0.067-0.052
	l0.138-0.13l0.021-0.034l-0.033-0.069l-0.138-0.092l-0.016-0.075l0.004-0.11l-0.074-0.424l0.035-0.007l0.02-0.016l0.017-0.019
	l0.026-0.018l-0.037-0.044l-0.014-0.053l0.015-0.055l0.045-0.051l-0.037-0.066l-0.053-0.037l-0.064-0.01l-0.067,0.013l0.005-0.029
	l0.011-0.003l0.016,0.004h0.02l0.022-0.047l0.092-0.011l0.108,0.021l0.153,0.101l0.07-0.047l0.053-0.078l0.021-0.049l-0.009-0.084
	l-0.026-0.063l-0.021-0.07l0.01-0.102l-0.008-0.053l-0.041-0.064l-0.065-0.055l-0.08-0.022l0.009-0.038l0.158-0.16l0.06-0.221
	l-0.016-0.237l-0.077-0.214l-0.054-0.078l-0.2-0.21l-0.09-0.055l-0.072,0.001l-0.036,0.043l-0.028,0.061l-0.044,0.056l-0.067,0.033
	l-0.168,0.049l-0.079,0.038l-0.047-0.052l-0.106-0.077l-0.051-0.047l-0.026-0.04l-0.043-0.085l-0.028-0.049l-0.045-0.101
	l-0.029-0.125l-0.055-0.125l-0.107-0.101l-0.06-0.021l-0.061-0.006l-0.114,0.006l-0.007,0.009l-0.053,0.057l-0.042-0.01
	l-0.053-0.044l-0.094-0.046l-0.086-0.083l-0.06-0.03l-0.035,0.004l-0.062,0.043l-0.035,0.004l-0.035-0.017l-0.015-0.019
	l-0.009-0.018l-0.231-0.163l-0.075-0.226l0.036-0.251l0.132-0.229l0.094-0.11l0.057-0.05l0.061-0.03l0.088-0.005l0.043,0.029
	l0.027,0.041l0.041,0.029l0.084,0.076l0.026,0.134l-0.004,0.27l0.046,0.121l0.097,0.161l0.103,0.109l0.139-0.065l0.139,0.011
	l0.145,0.033l0.084,0.038l0.022,0.048l-0.005,0.115l0.009,0.054l0.04,0.084l0.021,0.02l0.116-0.077l0.058-0.013l0.129,0.015
	l0.263-0.084l0.367-0.074l0.079,0.002l0.104,0.021l0.127,0.008l0.131-0.015l0.115-0.047l0.097-0.088l0.062-0.109l0.127-0.38
	l0.062-0.105l0.042-0.1l-0.004-0.103l-0.047-0.057l-0.078-0.071l-0.069-0.079l-0.02-0.077l-0.011-0.087l-0.09-0.207l-0.016-0.066
	l-0.07-0.094l-0.016-0.034l-0.005-0.04l0.023-0.299l0.025-0.109l0.045-0.099l0.213-0.3l0.102-0.099l0.103-0.028l0.111,0.005
	l0.135-0.033l0.098-0.073l-0.003-0.117l-0.024-0.101l0.032-0.197l-0.011-0.097l-0.084-0.186l-0.065-0.091l-0.091-0.074l-0.078,0.014
	l-0.05-0.031l-0.01-0.049l0.047-0.036l-0.047-0.191l0.093-0.14l0.151-0.095l0.127-0.061l0.024-0.175l-0.004-0.068l-0.023-0.049
	l-0.096-0.124v-0.122l-0.043-0.135l-0.063-0.125l-0.062-0.093l-0.099-0.084l-0.116-0.042l-0.251-0.044l-0.114-0.042l-0.233-0.13
	l-0.289-0.233l-0.17-0.186l-0.136-0.193l-0.094-0.186l-0.011-0.043l-0.01-0.09l-0.012-0.042l-0.108-0.139l-0.035-0.1l-0.188-0.218
	l-0.058-0.097l0.002-0.017l0.018-0.043V72.1l-0.015-0.007l-0.049-0.006l-0.013-0.007l-0.009-0.057l-0.004-0.159l-0.02-0.061
	l-0.031-0.058l-0.024-0.08l-0.014-0.087l0.007-0.077l-0.013-0.077l-0.064-0.048l-0.158-0.077l0.009-0.038l0.078-0.052l0.184-0.329
	l0.081-0.11l0.04-0.103l-0.012-0.116l-0.074-0.154l0.176-0.194l0.208-0.17l0.003-0.116l-0.045-0.105l-0.069-0.095l-0.156-0.152
	l-0.09-0.065l-0.106-0.053l-0.127-0.044l-0.015-0.009l-0.009-0.015l-0.014-0.018l-0.032-0.014l-0.035,0.004l-0.023,0.021
	l-0.017,0.024l-0.02,0.008l-0.065-0.001l-0.142,0.041l-0.069,0.008l-0.22-0.047l-0.44-0.148l-0.226-0.003l-0.186,0.074l-0.116,0.027
	l-0.139-0.013l-0.24-0.065l-0.114-0.008l-0.139,0.022l-0.107,0.049l-0.18,0.135l-0.099,0.042l-0.055,0.006l-0.052-0.002
	l-0.111-0.025l-0.072,0.002l-0.111,0.074l-0.064,0.023l-0.058-0.008l-0.046-0.029l-0.033-0.028l-0.023-0.019l-0.058-0.006
	l-0.171,0.023h-0.137l-0.086-0.036l-0.07-0.084l-0.087-0.141l0.053-0.076l0.136-0.293l0.048-0.223l0.033-0.071l0.07-0.087
	l0.031-0.052l0.009-0.073l-0.005-0.077l0.026-0.045l0.095,0.025l-0.035-0.11l0.021-0.114l0.085-0.226l0.035-0.066l0.145-0.174
	l0.058-0.045l0.115-0.003l0.146,0.012l0.135-0.016l0.079-0.091l0.053-0.118l0.13-0.213l0.013-0.122l-0.033-0.085l-0.187-0.238
	l-0.102-0.062l-0.111,0.042l-0.108,0.07l-0.087,0.023l-0.093-0.079l0.037-0.092l0.086-0.097l0.063-0.092l0.007-0.048l0.003-0.06
	l-0.005-0.056l-0.014-0.026l-0.009-0.032l0.069-0.133l0.017-0.058l-0.065-0.093l-0.114-0.059l-0.095-0.073v-0.136l0.118-0.061
	l0.104-0.079L1514.676,65.423z M1515.159,64.013l-0.009,0.034l-0.022,0.032l-0.063,0.119l-0.017,0.025l-0.074-0.017l-0.063-0.001
	l-0.055,0.022l-0.05,0.056l-0.06-0.168l-0.039-0.059l-0.067-0.064l0.069-0.043l0.028-0.011l0.118-0.067l0.107,0.01l0.098,0.057
	L1515.159,64.013z M1504.032,106.09l0.082-0.039l0.105,0.018l0.127,0.061l0.102,0.074l0.055,0.083l0.019,0.104l-0.001,0.142
	l-0.046,0.093l-0.102,0.029l-0.132-0.015l-0.123-0.035l-0.082-0.051l-0.015-0.057l0.019-0.044l0.018-0.01l-0.091-0.145l-0.02-0.057
	l0.028-0.054L1504.032,106.09z M1516.181,57.315l0.155,0.123l0.005,0.163l-0.198,0.105l-0.013,0.014v0.024l-0.007,0.021
	l-0.033,0.005l-0.037-0.011l-0.021-0.018l-0.02-0.02l-0.073-0.06l-0.069-0.096l-0.021-0.022l-0.047-0.064l-0.032-0.115l0.021-0.093
	l0.109,0.004l0.024,0.049L1516.181,57.315z M1515.875,56.781l0.085,0.032l0.037,0.084l-0.028,0.072l-0.064,0.047l-0.056,0.056
	l-0.007,0.102l-0.044-0.057l-0.023-0.136l-0.025-0.07l0.042-0.1L1515.875,56.781z M1500.258,108.033l0.021,0.048l-0.014,0.036v0.052
	l-0.006,0.024l-0.027,0.016l-0.052-0.022l-0.039-0.062l0.021-0.06l0.044-0.042L1500.258,108.033z M1512.246,58.693l0.093,0.019
	l-0.034,0.037l-0.003,0.011l0.012,0.006l0.006,0.018l-0.077,0.055l-0.099,0.15l-0.058,0.059l-0.081-0.2l-0.006-0.069l0.151-0.064
	L1512.246,58.693z M1511.896,58.074l0.107,0.055l-0.112,0.043l-0.039,0.104l-0.005,0.13l-0.024,0.121l-0.056-0.043l-0.039-0.06
	l-0.046-0.136l0.038-0.146l0.075-0.067L1511.896,58.074z M1499.088,114.521l-0.003,0.109l-0.083,0.16l-0.012,0.038l-0.036,0.06
	l-0.094,0.075l-0.062-0.028l-0.046-0.054l-0.075-0.032l-0.04-0.06l0.021-0.123l0.097-0.141l0.13-0.124l0.131-0.001L1499.088,114.521
	z M1514.152,50.482l0.095,0.061l-0.357,0.069l-0.321,0.036l-0.346,0.126l-0.352,0.098l-0.277,0.28l0.09-0.227l0.131-0.153
	l0.215-0.026l0.293-0.061l0.534-0.157L1514.152,50.482z M1498.195,110.602l0.117,0.167l-0.068,0.206l-0.166,0.076l-0.119-0.118
	l-0.056-0.167l0.187-0.108L1498.195,110.602z M1509.902,61.65l0.038,0.068l-0.04,0.049l-0.184,0.135l-0.053,0.026l-0.383,0.205
	l-0.083,0.028l-0.125,0.018l-0.117-0.058l-0.069-0.14l-0.062-0.15l0.031-0.215l0.113-0.197l0.302,0.092l0.074,0.009l0.039-0.018
	l0.029-0.063l0.037-0.014l0.055,0.011l0.046,0.025l0.077,0.052l0.16,0.124L1509.902,61.65z M1506.04,70.561l0.042-0.042l0.026-0.061
	l0.008-0.054l0.02-0.039l0.065-0.018v0.103l0.027,0.108l-0.093,0.012l-0.033,0.051l-0.011,0.149l-0.064,0.246l-0.132,0.261
	l-0.029,0.124l0.077,0.102l-0.055,0.077l0.005,0.056l0.022,0.053v0.074l-0.036,0.032l-0.05-0.063l-0.068-0.155l0.041-0.082
	l-0.051-0.155l-0.133-0.289l0.199-0.305l0.106-0.106L1506.04,70.561z M1507.821,64.669l-0.032,0.145l-0.189,0.07l-0.142,0.038
	l-0.192-0.059l-0.076,0.002l-0.036,0.057l-0.046,0.054l-0.081,0.031l0.009-0.038l-0.075-0.014l-0.065-0.063l-0.011-0.068
	l0.079-0.037l0.141-0.04l0.136-0.072l0.102-0.098l0.077-0.138l0.077-0.018l0.154,0.036l0.064,0.112L1507.821,64.669z
	 M1506.679,64.702l0.071-0.011l-0.019-0.062l-0.004-0.026l0.065,0.061l0.031,0.122l0.009,0.131l0.02,0.23l-0.059,0.055l-0.171-0.046
	l-0.14-0.02l-0.201-0.029l-0.258-0.096l0.036-0.125l0.145-0.214l0.032-0.036l0.123-0.083l0.021-0.021l0.049,0.02l0.112,0.013
	l0.103,0.04l0.017,0.103L1506.679,64.702z M1505.94,64.371l-0.051,0.19l-0.093,0.107l-0.137-0.037l-0.108-0.12l-0.013-0.146
	l0.068-0.076l0.108-0.048l0.101-0.022l0.042,0.008l0.013,0.022l0.034,0.025l0.032,0.038L1505.94,64.371z M1493.416,128.757
	l0.057-0.244l0.005-0.197l0.033-0.071l0.038-0.042l0.039-0.03l0.029-0.035l0.02-0.068l0.012-0.161l0.027-0.063l0.042-0.018
	l0.145-0.024l0.047-0.021l-0.033-0.093l0.211-0.124l0.063-0.126l0.023-0.131l0.576-1.072l0.753-1.222l0.046-0.189l0.051-0.006
	l0.067,0.018l0.066-0.008l0.215-0.224l0.027-0.122l-0.042-0.252l-0.018-0.371l0.031-0.059l0.338-0.251l0.065-0.016l0.058,0.032
	l0.075,0.051l0.078,0.044l0.068,0.004l0.015-0.04l0.019-0.159l0.021-0.053l-0.069-0.233l0.073-0.119l0.101-0.115l0.053-0.125
	l0.018-0.141l0.036-0.086l0.096-0.151l0.271-0.727l0.368-0.582l0.259-0.657l0.443-1.14l0.021-0.138l0.021-0.069l0.127-0.177
	l0.014-0.081l0.007-0.091l0.015-0.083l0.121-0.152l0.155-0.475l0.008-0.144l-0.012-0.221l-0.007-0.114l0.03-0.097l-0.05-0.06
	l0.05-0.095l0.061-0.431l0.023-0.056l0.101-0.091l0.024-0.075l0.007-0.079l0.3-1.304l0.115-0.26l0.081-0.088l0.401-0.252
	l0.191-0.005l0.046-0.012l0.036-0.033l0.049-0.088l0.036-0.042l0.029-0.045l0.071-0.172l0.029-0.016l-0.027-0.067l-0.067-0.117
	l0.004-0.037l0.017-0.038l0.043-0.001l0.081,0.077l0.087-0.034l0.063-0.048l0.036-0.078l0.026-0.225l0.035-0.115l0.053-0.085
	l0.402-0.116l0.064-0.062l0.135-0.229l0.026-0.088l0.081-0.128l0.489-0.165l0.073-0.146l0.021-0.212l-0.014-0.435l0.013-0.064
	l-0.009-0.079l0.009-0.164l0.053,0.072l0.03,0.073l0.009,0.077l-0.011,0.074l0.081-0.024l0.044-0.045l0.032-0.054l0.058-0.053
	l0.049-0.086l-0.085-0.191l0.05-0.081l0.1-0.019l0.047-0.018l0.021-0.046l-0.003-0.073l-0.018-0.021l-0.028-0.009l-0.039-0.037
	l-0.066-0.085l-0.09-0.087l-0.091-0.061l-0.069-0.005l-0.052-0.24l0.009-0.296l0.052-0.282l0.077-0.2l-0.013-0.09l0.027-0.335
	l0.028-0.089l0.096-0.059l0.105-0.042l0.115-0.018l0.137,0.015l0.574,0.188l0.076-0.018l0.081-0.074l0.035-0.047l0.036-0.05
	l0.043-0.083l0.164-0.775l0.109-0.226l0.163-0.123l0.086-0.088l0.063-0.18l0.108-0.125l0.039-0.021h0.021l0.013-0.011l0.022-0.009
	l0.04,0.007l0.044,0.032l0.034,0.096l0.035,0.042l0.08,0.03l0.091-0.008l0.074-0.058l0.066-0.274l0.065-0.095l0.204-0.13
	l0.102-0.115l0.044-0.019l0.243,0.082l0.036-0.011l0.062-0.077l0.366-0.123l0.107-0.144l0.257-0.606l0.009-0.264l-0.057-0.306
	l-0.02-0.293l0.114-0.221l0.357-0.155l0.36-0.289l0.292-0.144l0.107-0.02l0.195-0.075l0.045-0.049v-0.056l-0.014-0.052l0.003-0.037
	l0.122-0.063l0.32-0.034l0.851-0.442l0.095-0.072l0.057-0.105l0.075-0.082l0.03-0.012l0.077-0.203l0.065-0.038l0.132-0.055
	l0.127-0.025l0.054,0.039l0.059,0.097l0.139,0.095l0.299,0.143l0.157,0.048l0.276,0.025l0.136,0.03l0.039-0.002l0.095-0.03
	l0.057,0.005l0.055,0.027l0.074,0.074l0.071,0.061l0.019,0.001l0.236,0.098l0.146,0.078l0.067,0.031l0.282,0.086l0.12,0.053
	l0.12,0.084l0.318,0.349l0.142,0.082l0.054,0.011l0.102,0.004l0.074,0.019l0.079,0.043l0.206,0.19l0.21,0.089l0.21-0.001l0.16-0.085
	l0.072-0.164l-0.047-0.422l0.051-0.142l0.212-0.024l0.002-0.045l-0.045-0.026l-0.08-0.057l-0.051-0.024l0.018-0.039l0.012-0.017
	l0.021-0.019l-0.089-0.112l-0.014-0.103l-0.003-0.103l-0.057-0.108l0.124-0.075l0.047-0.097l0.039-0.11l0.092-0.117l-0.04-0.064
	l-0.003-0.034l0.02-0.019l0.031-0.019l0.002-0.071l0.112-0.188l0.044-0.102l0.004-0.163l0.021-0.071l0.058-0.013l0.081-0.003
	l0.028-0.065l0.02-0.162l0.066-0.105l0.025-0.063l-0.025-0.131l0.043-0.049l0.063-0.042l0.041-0.044l0.006-0.069l-0.032-0.151
	l-0.006-0.092l0.007-0.077l0.015-0.046l0.083-0.095l0.034-0.034l0.052-0.041l0.025-0.064l-0.003-0.09l-0.001,0.041l0.007-0.145
	l-0.019-0.139l0.01-0.121l0.099-0.093l0.064-0.011l0.067-0.002l0.053-0.023l0.044-0.146l0.04-0.067l0.696-0.603l0.145-0.399
	l0.149-0.178l0.042-0.14l0.039-0.043l0.122,0.01l0.116,0.01l0.039-0.086l-0.021-0.129l-0.032-0.119l-0.011-0.159l0.027-0.11
	l0.039-0.089l0.022-0.1l0.048-0.082l0.102-0.019l0.121,0.002l0.104-0.021l0.246-0.265l0.011-0.05l0.02-0.062l0.025-0.05l0.052-0.032
	l-0.021-0.069l-0.062-0.117l0.002-0.074l0.016-0.037l0.085-0.045l0.143-0.038l0.068-0.041l-0.039-0.045l-0.027-0.091l0.113-0.588
	l0.003-0.062l-0.013-0.07l-0.046-0.092l-0.053-0.071l-0.042-0.072l-0.004-0.089l0.024-0.047l0.101-0.126l0.007-0.039l-0.007-0.016
	l-0.016-0.013l-0.023-0.027l-0.013-0.046l0.015-0.025l0.042-0.021l0.169-0.258l0.096-0.255l0.069-0.089l0.08-0.062l0.087-0.046
	l0.017-0.02l0.032-0.064l0.021-0.02l0.033-0.005l0.061,0.006l0.031-0.005l0.047-0.029l0.112-0.137l0.47-0.303l0.305-0.082
	l0.073-0.041l0.076-0.078l0.143-0.021l0.162-0.004l0.103-0.04l0.219-0.082l0.314-0.371l0.181-0.11h0.082l0.05,0.022l0.042,0.029
	l0.064,0.014l0.082-0.019l0.069-0.038l0.074-0.029l0.165,0.01l0.146-0.019l0.077,0.008l0.045,0.032l0.032,0.044l0.043,0.031
	l0.08-0.011l0.06,0.081l0.085,0.015l0.104-0.008l0.123,0.011l0.021,0.024l0.048,0.111l0.018,0.028l0.081,0.02l0.046-0.016
	l0.009-0.042l-0.037-0.063l0.525,0.241l0.137,0.587l-0.024,1.188l0.033,0.079l0.096,0.154l0.027,0.063l-0.009,0.072l-0.034,0.062
	l-0.025,0.064l0.025,0.085l0.021,0.131l-0.173,0.39l-0.01,0.152l0.05,0.297l0.007,0.149l-0.129,1.006l0.006,0.085l-0.068,0.014
	l-0.054,0.031l-0.04,0.049l-0.031,0.07l-0.019,0.099l-0.012,0.328l0.021,0.098l0.11,0.208l0.02,0.118l-0.025,0.216l0.003,0.116
	l0.035,0.111l0.155,0.066l0.262,0.196l0.146,0.078l0.31,0.104l0.308,0.069l0.152,0.01l0.275-0.121l0.134-0.094l0.089-0.038
	l0.034-0.03l0.022-0.067l-0.007-0.056l-0.073-0.116l-0.035-0.099l0.086,0.041l0.064,0.057l0.052,0.055l0.05,0.033l0.081,0.015
	l0.109-0.02l0.082,0.008l0.081,0.04l0.146,0.103l0.079,0.019l0.011-0.022l0.279-0.245l0.086-0.046l0.098-0.025l0.137,0.026
	l0.299,0.135l0.09-0.013l0.072-0.007l0.028,0.032l0.022,0.045l0.052,0.036l0.064-0.015l0.116-0.008l0.196,0.04l0.064,0.005
	l0.172-0.046l0.061-0.006l0.03-0.03l0.027-0.021l0.031-0.009l0.036,0.021l0.017,0.042l0.01,0.042l0.019,0.016l0.07-0.016
	l0.005-0.027l-0.007-0.042l0.036-0.06l0.05-0.014l0.039,0.02l0.03-0.005l0.022-0.086l-0.017-0.036l-0.104-0.149l0.004-0.041
	l0.033-0.027l0.035-0.018l0.034,0.007l0.031,0.042l0.123-0.36l0.104-0.162l0.153-0.031l0.066-0.001l0.037-0.046l0.02-0.064
	l0.004-0.053l0.023-0.092l0.046-0.045l0.059-0.033l0.064-0.055l0.054,0.075l0.019-0.032l0.007-0.078l0.023-0.061l0.137-0.114
	l0.086-0.045l0.078-0.005l0.237,0.091l0.063-0.041l0.083-0.334l0.056-0.074l0.097,0.004l0.163,0.056l0.135,0.003l0.108-0.048
	l0.104-0.018l0.121,0.099l-0.017-0.331l-0.047-0.017l-0.032,0.05l-0.047,0.031l-0.063,0.002l-0.085-0.03l0.146-0.127l0.149-0.088
	l0.19-0.027l0.412,0.099l0.109-0.013l0.08-0.058l0.056-0.099l0.018-0.102l-0.026-0.215l0.005-0.144l0.023-0.032l0.039-0.024
	l0.018-0.044l-0.043-0.092l-0.02-0.071l0.013-0.074l0.033-0.066l0.244-0.226l0.083-0.117l0.04-0.132l0.065-0.028l0.048,0.002
	l0.242,0.01l0.094-0.026l0.026-0.122l-0.02-0.147l-0.002-0.119l0.081-0.036l-0.03-0.085l-0.002-0.079l0.013-0.167l-0.02-0.042
	l-0.028-0.117l0.004-0.075l0.081,0.085l0.102,0.043l0.587,0.081l0.153-0.042l0.187,0.034l0.239-0.033l0.149,0.002l0.183,0.027
	l0.18,0.064l0.141,0.111l0.402-0.037l0.145,0.018l0.109,0.055l0.217,0.151l0.117,0.051l0.134,0.039l0.127,0.015l0.097-0.019
	l0.082-0.076l0.127-0.192l0.09-0.032l-0.034-0.169l0.048-0.115l0.074-0.082l0.041-0.073l0.017-0.043l0.039-0.039l0.051-0.021
	l0.058,0.005l0.046-0.02l0.09-0.208l0.06-0.036l0.166-0.012l0.1-0.031l0.105-0.057l0.107,0.002l0.43,0.18l0.423,0.083l0.061-0.016
	l0.015-0.055l0.029-0.043l0.037-0.023l0.039,0.002l0.039,0.022l0.056,0.059l0.03,0.019l0.037,0.001l0.078-0.03l0.046-0.001
	l0.255,0.034l0.249-0.023l0.213-0.096l0.145-0.184l0.153-0.527l0.018-0.232l0.042-0.085l-0.016-0.069l-0.035-0.3l0.005-0.11
	l-0.009-0.091l-0.02-0.083l-0.06-0.165l-0.047-0.094l-0.06-0.085l-0.069-0.051l0.024-0.044l0.021-0.115l0.004-0.139l-0.03-0.117
	l0.108-0.097l0.008-0.182l-0.05-0.455l-0.012-0.044l-0.018-0.037l-0.02-0.02l-0.06-0.038l-0.019-0.044l-0.004-0.048l-0.013-0.046
	l-0.104-0.148l-0.05-0.09l-0.034-0.11l0.188-0.006l0.02-0.608l0.129-0.098l-0.027-0.082l-0.005-0.061l0.029-0.031l0.067,0.012
	l0.006-0.045l-0.032-0.079l0.041-0.044l0.075-0.013l0.077,0.013l0.087,0.051l0.066,0.064l0.107,0.129l0.022-0.029l0.018-0.019
	l0.015-0.026l0.008-0.043l0.022,0.118l0.002,0.058l-0.01,0.063l0.095-0.058l0.03-0.112l0.038-0.071l0.124,0.07l0.089,0.108
	l0.063,0.137l0.021,0.133l-0.044,0.097l0.055,0.073l0.176,0.183l0.073,0.049l0.132,0.068l0.201,0.142l0.125,0.063l0.098,0.091
	l0.151,0.285l0.145,0.109l0.144,0.026l0.253-0.031l0.136,0.023l0.232-0.015l0.129-0.199l0.126-0.435l0.103-0.142l0.034-0.024
	l0.08-0.04l0.028-0.022l0.008-0.028l-0.003-0.08l0.009-0.026l0.083-0.054l0.011-0.002l0.109-0.193l0.075,0.095l0.033-0.095
	l0.003-0.027l0.05-0.524l0.038-0.117l0.189-0.333l0.001-0.106l-0.06-0.145l-0.019-0.074l0.017-0.063l0.045-0.079l-0.005-0.072
	l-0.04-0.18l-0.004-0.068l0.033-0.143l0.113-0.223l0.068-0.296l0.151-0.274l0.024-0.147l-0.01-0.442l0.036-0.165l0.059-0.055
	l0.201-0.017l0.044-0.037l0.013-0.047l0.031-0.035l0.101,0.008l0.094,0.022l0.018,0.015l-0.011,0.044l0.012,0.11l0.133,0.427
	l0.029,0.147l0.034,0.497l0.047,0.284l-0.005,0.159l-0.063,0.111l0.064,0.115l0.051,0.342l0.04,0.124l0.125,0.118l0.109,0.014
	l0.212-0.097l0.414-0.335l0.255-0.113l0.243,0.112l0.029-0.161l0.052-0.089l0.211-0.127l0.063-0.062l0.061-0.099l0.049-0.117
	l0.025-0.113l0.025-0.386l0.033-0.131l0.053-0.114l0.155-0.177l0.014-0.044l0.004-0.094l-0.011-0.067l-0.041-0.143l-0.004-0.073
	l0.03-0.051l0.062-0.024l0.116-0.028l0.083-0.183l0.033-0.038l0.139-0.052l0.109-0.082l0.056-0.069l0.076-0.245l0.123-0.234
	l0.044-0.133l-0.019-0.143l0.017-0.038l0.013-0.075l-0.001-0.077l-0.024-0.044l0.093-0.25l0.078-0.141v-0.075l-0.059-0.132
	l-0.004-0.063l0.063-0.269l0.043,0.055l0.077,0.124l0.036,0.029l0.067-0.017l0.11-0.112l0.083-0.001l0.042-0.064v-0.186
	l-0.048-0.469l0.032-0.44l-0.02-0.113l-0.121-0.26l-0.023-0.146l0.043-0.163l0.072,0.049l0.066,0.156l0.029,0.296l0.31,0.988
	l0.052,0.27l0.009,0.264l-0.014,0.112l-0.019,0.031l-0.031,0.021l-0.004,0.135l-0.146,0.253l-0.047,0.125l-0.047,0.269l-0.047,0.118
	l-0.064,0.07l-0.02,0.178l0.138,0.288l0.221,0.225l0.222-0.01l0.008-0.031l-0.007-0.013l-0.041-0.022l0.06-0.076l0.049-0.294
	l0.059-0.104l0.037-0.041l0.028-0.064l0.056-0.207l0.045-0.051l0.087-0.076l0.319-0.708l0.133-0.106l0.217,0.042l0.108-0.036
	l0.067,0.002l0.062,0.064l0.044,0.126l0.174,0.909l-0.042,0.059l-0.02,0.018l0.016,0.191l-0.007,0.096l0.007,0.058l0.055,0.129
	l0.024,0.023l0.064,0.093l0.051,0.096l-0.012,0.029l0.02,0.028l0.026,0.054l0.048,0.057l0.082,0.031l-0.047,0.08l-0.018,0.112v0.117
	l0.016,0.09l-0.147,0.025l-0.057,0.089l0.01,0.146l0.108,0.363l0.011,0.006l-0.017,0.039l-0.032,0.047l-0.034,0.029l-0.016-0.011
	l0.015,0.079l0.031,0.083l0.088,0.169l-0.057,0.025l-0.114,0.114l-0.042,0.002l-0.033-0.042l-0.036-0.055l-0.047-0.041l-0.049,0.055
	l0.005,0.166l0.038,0.189l0.05,0.123l-0.144,0.053l-0.037,0.019l-0.032,0.053l0.011,0.032l0.018,0.033l-0.016,0.059l-0.109,0.046
	l-0.036,0.036l-0.007,0.042v0.057l-0.013,0.06l-0.048,0.049l-0.06-0.15l-0.069-0.013l-0.074,0.039l-0.067,0.015l-0.027,0.012
	l0.052,0.068l0.104,0.109l-0.004,0.055l-0.026,0.051l-0.078,0.078l-0.025-0.026l-0.099-0.063l0.049,0.091l0.027,0.032l-0.005,0.046
	l-0.062,0.016l-0.058,0.063l-0.085,0.163l0.085-0.011l0.005,0.024l-0.002,0.016l0.007,0.011l0.031,0.011l-0.041,0.048l-0.032,0.055
	l-0.024,0.062l-0.018,0.071l-0.063-0.103l-0.02-0.114l-0.031-0.098l-0.107-0.056l0.011,0.042l0.015,0.103l-0.044-0.044l-0.029-0.053
	l-0.019-0.059l-0.01-0.066l0.073-0.017l0.014-0.067l-0.015-0.189l0.105-0.262l-0.05-0.335l-0.018-0.066l-0.033-0.029l-0.102-0.056
	l-0.03-0.029l-0.011-0.043l-0.01-0.156l-0.044,0.072l-0.015,0.085l-0.007,0.092l-0.018,0.094l-0.035,0.058l-0.097,0.101l-0.042,0.13
	l-0.039,0.064l-0.013,0.045l0.01,0.032l0.055,0.067l0.01,0.031l0.041,0.027l0.091,0.054l0.095,0.069l0.054,0.078l-0.046,0.033
	l-0.045,0.01l-0.049-0.008l-0.059-0.022l-0.049-0.008l-0.024,0.019l-0.017,0.024l-0.024,0.012l-0.157-0.005l-0.063,0.014
	l-0.069,0.038l-0.118,0.133l-0.146,0.317l-0.106,0.102l-0.076,0.112l-0.046,0.208l-0.032,0.432l0.02,0.235l-0.005,0.123
	l-0.072,0.141l0.035,0.086l0.027,0.094l-0.05,0.093l0.041,0.063l0.047-0.074l0.041,0.018l-0.021,0.2l-0.028,0.043l-0.111-0.024
	l-0.04,0.028l0.005,0.076l0.043,0.076l0.019,0.081l-0.061,0.091l-0.033-0.089l-0.041-0.018l-0.035,0.039l-0.05,0.151l-0.047,0.002
	l-0.062-0.02l-0.067,0.008l-0.137,0.247l0.026,0.097l0.105,0.168l0.046,0.086l-0.059,0.057l-0.055,0.112l-0.041,0.131l-0.023,0.114
	l-0.028,0.076l-0.277,0.375l-0.043,0.081l-0.041,0.164l-0.045,0.106l-0.012,0.051l0.003,0.132l-0.004,0.059l-0.023,0.03l0.038,0.172
	l0.013,0.084v0.066l0.013,0.095l0.045,0.099l0.05,0.088l0.029,0.068l-0.003,0.132l-0.053,0.106l-0.25,0.357l-0.026,0.07
	l-0.017,0.095l0.01,0.349l-0.013,0.079l-0.047,0.104l-0.019,0.083l-0.034,0.053l-0.132-0.065l-0.054,0.04l-0.018-0.021l-0.04-0.032
	l-0.02-0.022l-0.006,0.067l-0.004,0.021l-0.066-0.061l-0.032-0.066l-0.008-0.074l0.008-0.087l-0.045-0.056l-0.097,0.024
	l-0.054,0.069l0.078,0.077l0.04,0.048l-0.015,0.068l-0.038,0.063l-0.031,0.032l-0.058,0.009l-0.205-0.015l-0.004,0.04l0.24,0.136
	l0.111,0.092l0.037,0.13l0.061,0.092l0.023,0.027l-0.014,0.038l-0.044,0.058l-0.032,0.3l-0.056,0.134l-0.02,0.077l0.021,0.044
	l0.047,0.053l0.023,0.09l0.006,0.099l-0.049,0.501l0.026,0.14l-0.196,0.355l-0.084,0.035l-0.131,0.009l-0.104,0.086l-0.033,0.112
	l0.086,0.084l-0.065,0.071l-0.084,0.047l-0.081,0.065l-0.061,0.116l-0.008,0.057l-0.004,0.12l-0.011,0.041l-0.038,0.025
	l-0.094,0.007l-0.049,0.037l0.205,0.157l0.107,0.298l0.012,0.319l-0.091,0.213l0.134,0.147l0.056,0.094l0.034,0.111l-0.08,0.09
	l-0.122,0.028l-0.132,0.006l-0.111,0.026l-0.066,0.078l0.003,0.104l0.021,0.132l-0.009,0.158l-0.04-0.015l-0.024-0.133l-0.092-0.09
	l-0.104-0.027l-0.062,0.057l0.004,0.058l0.027,0.052l0.044,0.043l0.122,0.069l-0.017,0.031l-0.088,0.048l-0.081,0.241l0.017,0.16
	l0.206,0.325l-0.004,0.043l-0.515-0.077l-0.017,0.055l-0.033,0.072l-0.041,0.057l-0.032,0.02l-0.047,0.016l-0.018,0.07l-0.008,0.085
	l-0.014,0.06l-0.063,0.061l-0.232,0.146l-0.098,0.013h-0.098l-0.086,0.056l-0.078,0.075l-0.078,0.056l-0.091,0.019l-0.099-0.01
	l-0.26-0.085l-0.127-0.022l-0.116,0.017l-0.76,0.308l-0.18,0.109l-0.087,0.033l-0.105,0.015l-0.099,0.036l-0.072,0.096l0.038,0.057
	l-0.137-0.045l-0.104,0.02l-0.082,0.063l-0.078,0.088l-0.053,0.085l-0.013,0.076l0.05,0.04l0.127-0.026l-0.005,0.148l-0.077,0.176
	l-0.111,0.158l-0.103,0.103l-0.074,0.011l-0.208-0.043l-0.084,0.01l-0.061,0.054l-0.026,0.071l-0.002,0.091l0.014,0.113l0.054-0.014
	l0.041-0.088l0.047-0.023l0.069,0.009l0.058,0.03l0.036,0.036l0.003,0.029v0.001l-0.01,0.07l-0.06,0.099l-0.091,0.079l-0.198,0.012
	l-0.251,0.078l-0.119,0.02l-0.303-0.029l-0.141,0.007l-0.145,0.057l-0.048,0.11l0.03,0.276l-0.092,0.036l-0.007-0.081l-0.028-0.067
	l-0.047-0.039l-0.069,0.003l-0.044,0.045l-0.154,0.004l-0.181-0.055l-0.129-0.135l-0.031,0.024l-0.043,0.02l-0.05,0.016
	l-0.055,0.008l-0.015-0.056l-0.015-0.128l-0.082-0.179l-0.004-0.03l-0.058-0.062l-0.114-0.225l-0.074-0.072l-0.062-0.019
	l-0.067-0.004l-0.059,0.009l-0.03,0.028l0.01,0.087l0.057,0.061l0.062,0.028l0.031-0.009l0.042,0.023l0.174,0.266l0.046,0.092
	l-0.004,0.23l-0.1,0.165l-0.14,0.144l-0.123,0.176l-0.021,0.07l0.008,0.121l-0.012,0.07l-0.023,0.04l-0.062,0.07l-0.134,0.403
	l-0.05,0.103l-0.119,0.12l-0.146,0.051l-0.149,0.028l-0.131,0.05l-0.079-0.056l-0.1-0.018l-0.086,0.007l-0.037,0.023l-0.055-0.058
	l-0.112-0.052l-0.076-0.063l0.052-0.094l-0.063-0.119l-0.068-0.093l-0.085-0.06l-0.111-0.022l0.076,0.118l0.028,0.117l-0.028,0.055
	l-0.096-0.074l-0.027,0.022l-0.035,0.017l-0.042,0.004l-0.048-0.009l-0.081,0.005l-0.022,0.07l0.004,0.084l-0.004,0.048
	l-0.052,0.008l-0.062-0.022l-0.064-0.03l-0.06-0.016l-0.075,0.002l-0.063,0.013l-0.354,0.183l-0.115,0.04l-0.086,0.003l-0.068,0.019
	l-0.196,0.243l-0.148,0.104l-0.823,0.267l-0.194,0.01l-0.25-0.08l-0.053-0.001l-0.076,0.029l-0.027,0.002l-0.192-0.068h-0.107
	l-0.116,0.022l-0.095,0.054l-0.092,0.181l-0.19,0.123l-0.044,0.041l-0.034,0.142l-0.068,0.046l-0.225,0.03l-0.061-0.104
	l-0.102-0.017l-0.107,0.036l-0.077,0.058l-0.021-0.074l-0.033-0.057l-0.046-0.029l-0.061,0.01l0.016,0.138l-0.085,0.164
	l-0.197,0.273l-0.116,0.331l-0.026,0.203l0.037,0.181l-0.095,0.093l-0.162,0.352l-0.109,0.05l-0.022,0.006l-0.026,0.021
	l-0.037,0.018l-0.049-0.002l-0.018-0.024l-0.004-0.088l-0.031-0.037l-0.037-0.005l-0.027,0.021l-0.023,0.026l-0.026,0.006
	l-0.042-0.026l-0.142-0.125l-0.003,0.043l0.09,0.109l-0.01,0.09l-0.027,0.1l0.044,0.134l0.132-0.048l0.039,0.128l-0.034,0.382
	l-0.029,0.071l-0.121,0.079l-0.041,0.072l-0.003,0.097l0.018,0.102l0.002,0.1l-0.048,0.087l0.042,0.014l-0.05,0.103l0.045,0.449
	l-0.02,0.145l-0.037,0.107l-0.058,0.079l-0.369,0.246l-0.105,0.147l-0.047,0.226l0.009,0.06l0.017,0.068l0.011,0.071l-0.015,0.067
	l-0.036,0.045l-0.129,0.093l-0.075,0.021l-0.067,0.067l-0.083,0.022l0.059,0.079l0.089,0.078l0.034,0.005v0.118l-0.056,0.144
	l-0.093,0.111l-0.119,0.021l-0.068-0.002l-0.062,0.027l-0.021,0.039l0.055,0.038l0.132,0.046l0.03,0.034l0.026,0.067l-0.03,0.385
	l-0.048,0.054l-0.226,0.116l0.097,0.113l-0.016,0.063l-0.064,0.056l-0.041,0.087l0.004,0.042l0.024,0.084l-0.002,0.036l-0.016,0.007
	l-0.061,0.013l-0.014,0.013l-0.021,0.045l-0.049,0.05l-0.053,0.033l-0.037-0.007l-0.116-0.142l-0.11-0.086l-0.604-0.208
	l-0.141-0.026l-0.108,0.04l0.115,0.088l0.298,0.125l0.128,0.101l0.103-0.004l0.047,0.094l0.009,0.13l-0.005,0.111l-0.039,0.089
	l-0.081,0.062l-0.167,0.081l-0.185,0.169l-0.143,0.013l-0.08,0.044l-0.142,0.114l0.113,0.074l0.113,0.017l0.116-0.003l0.112,0.014
	l0.087,0.088l0.035,0.152l-0.008,0.158l-0.04,0.109l-0.064,0.038l-0.11,0.034l-0.118,0.02l-0.088-0.004l-0.07-0.021l-0.055-0.01
	l-0.048,0.005l-0.046,0.022l-0.06,0.006l-0.151-0.065l-0.066-0.011l-0.118,0.057l0.074,0.061l0.439,0.141l0.195,0.114l0.078,0.022
	l0.056-0.017l0.131-0.1l0.059,0.049l0.04,0.074l0.013,0.064l-0.022,0.02l-0.082,0.006l-0.14,0.119l-0.072,0.037l-0.046,0.002
	l-0.11-0.014l-0.039-0.009l-0.033,0.006l-0.029,0.031l-0.025,0.035l-0.025,0.02l-0.113,0.018l-0.203,0.005l-0.082,0.025
	l-0.002,0.038l0.109,0.009l0.236,0.065l0.098,0.002l0.176-0.026l0.094,0.015l0.203,0.054l0.164,0.019l0.065-0.017l0.075-0.035
	l0.088-0.023l0.1,0.009l0.073-0.047l0.17-0.071h0.151l0.013,0.165l-0.038,0.004l-0.175,0.069l-0.03,0.021l-0.066,0.011l-0.092,0.044
	l-0.087,0.06l-0.05,0.053l0.139,0.111l0.044,0.13l-0.06,0.089l-0.169-0.006l-0.187-0.035l-0.174,0.012l-0.319,0.107l0.166,0.025
	l0.181-0.013l0.148,0.006l0.067,0.083l-0.056,0.086l-0.294,0.045l-0.104,0.065l0.069,0.062l0.045,0.077l0.024,0.084l0.011,0.084
	l0.047,0.014l0.021-0.155l0.104-0.007l0.137,0.083l0.117,0.116l0.032-0.054l0.074-0.057l0.091-0.031l0.075,0.016l0.043,0.076
	l0.065,0.258l0.036,0.098l-0.121,0.077l-0.042,0.048l-0.028,0.07l0.005,0.071l0.023,0.083l0.01,0.077l-0.036,0.051l-0.09,0.078
	l-0.479,1.021l-0.294,0.362l-0.132,0.105l-0.116,0.028l-0.125-0.008l-0.424,0.089l-0.111,0.01l-0.027,0.014l-0.039,0.048
	l-0.027,0.053l-0.029,0.138l-0.005,0.069l-0.042,0.082l-0.178,0.157l-0.063,0.039l-0.021,0.007l-0.065,0.004l0.081,0.072
	l0.101-0.032l0.224-0.13l0.043-0.045l0.018-0.056l0.067-0.116l0.037-0.133l0.033-0.001l0.041,0.034l0.037,0.022l0.262-0.025
	l0.878-0.228l0.126-0.001l0.132,0.021l0.146,0.041l0.144,0.018l0.116-0.031l0.202-0.096l0.468-0.149l0.266-0.016l0.111,0.123
	l0.014,0.015l-0.041,0.102l-0.108,0.058l-0.123,0.045l-0.091,0.066l-0.032,0.094l-0.044,0.349l0.029-0.029l0.07-0.023l0.034-0.032
	l0.022-0.046l0.018-0.101l0.018-0.047l0.068-0.087l0.25-0.155l0.118,0.134l0.052,0.123l0.012,0.132l-0.051,0.563l-0.04,0.103
	l-0.038,0.039l-0.102,0.073l-0.043,0.042l-0.082,0.189l-0.043,0.046l-0.064,0.1l-0.006,0.142l0.067,0.42l-0.051,0.335l-0.037,0.096
	l-0.084,0.042l-0.232,0.03l-0.131,0.04l-0.067,0.067l-0.026,0.106l-0.013,0.158l-0.018,0.017l-0.033,0.055l-0.017,0.063l0.031,0.042
	l0.055,0.003l0.044-0.022l0.033-0.042l0.025-0.055l0.042-0.237l0.059-0.049l0.151,0.024l0.115-0.01l0.096-0.082l0.255-0.424
	l0.087-0.045l0.245,0.016l0.646-0.154l0.156,0.003l0.112,0.072l0.046,0.117l0.007,0.128l-0.083,1.538l0.021,0.068l0.088,0.199v0.521
	l0.257,1.512l-0.002,0.138l-0.031,0.101l-0.315,0.501l-0.181,0.717l-0.009,0.023l-0.037,0.049l0.04,0.113l0.045,0.315v0.114
	l0.021,0.143l0.195,0.401l0.041,0.145l-0.002,0.118l-0.041,0.253l-0.043,0.118l-0.088,0.063l-0.111,0.023l-0.606-0.041l-0.169,0.078
	l-0.068,0.242l0.046,0.356l0.001,0.213l0.009,0.049l0.029,0.044l0.05,0.059l0.046,0.08l0.013,0.07l0.007,0.07l0.02,0.071
	l0.058,0.099l0.053,0.049l0.049-0.008l0.045-0.079l-0.114-0.169l-0.051-0.097l-0.017-0.096l-0.016-0.051l-0.03-0.049l-0.022-0.043
	l0.044-0.084l0.001-0.076l-0.051-0.27l-0.012-0.168l0.04-0.136l0.134-0.024l0.134,0.025l0.589-0.006l0.174-0.083l0.122-0.16
	l0.044-0.242l-0.057-0.231l-0.238-0.476l-0.053-0.232l0.117-0.447l-0.029-0.109l0.098-0.22l0.196-0.147l0.033-0.054l0.045-0.115
	l0.285-0.304l0.107-0.203l0.211-0.697l0.104-0.204l0.126-0.141l0.701-0.577l0.426-0.212l0.308-0.087l0.291-0.142l0.099-0.026
	l0.083-0.002l0.775,0.242l0.198,0.025l0.105,0.036l0.088,0.083l0.12,0.183l0.04,0.081l0.039,0.113l0.033,0.192l-0.027,0.336
	l0.019,0.185l0.044-0.028l0.015,0.066l-0.002,0.126l0.009,0.097l-0.013,0.061l0.002,0.03l0.02,0.021l0.04,0.031l0.037,0.042
	l0.016,0.045l0.01,0.091l0.118,0.574l0.04,0.114l0.106,0.181l0.074,0.164l0.01,0.062l0.025,0.076l0.066,0.076l0.076,0.076
	l0.056,0.068l0.055,0.14l0.091,0.308l0.142,0.256l0.191,0.701l0.051,0.114l0.066,0.061l0.154,0.377l0.006,0.242l-0.08,0.187
	l-0.132,0.141l-0.264,0.207l-0.151,0.159l-0.109,0.183l0.002,0.178l-0.092,0.129l-0.036,0.08l-0.023,0.133l-0.028,0.083
	l-0.165,0.208l-0.132,0.272l-0.02,0.07l0.014,0.068l0.074,0.135l0.013,0.073l-0.021,0.193l-0.007,0.839l0.016,0.124l0.099,0.388
	l0.016,0.125l-0.003,0.144l-0.028,0.116l-0.103,0.218l-0.029,0.125l0.049,0.514l-0.02,0.143l0.035,0.059l0.031,0.092l0.023,0.1
	l0.005,0.083l-0.038,0.08l-0.063,0.058l-0.041,0.068l0.036,0.105l-0.017,0.067l-0.012,0.12l-0.027,0.11l-0.128,0.052l-0.187,0.189
	l-0.106,0.156l-0.066,0.199l-0.019,0.221l0.046,0.223l0.318,0.549l0.073,0.207l0.005,0.279l-0.098,0.191l-0.6,0.458l-0.119,0.146
	l-0.675-0.191l-1.133-0.321l-1.104-0.311l-1.044-0.292l-1.576-0.441l-1.002-0.282l-0.24-0.067l-1.136-0.319l-1.115-0.314
	l-1.598-0.449l-0.247-0.07l-0.766-0.216l-0.929-0.261l-0.661-0.188l0.004,0.091l-0.068,0.094l-0.195-0.033l0.031,0.15l-0.086,0.023
	l-0.129-0.027l-0.1,0.003l-0.094,0.088l-0.056,0.034l-0.069,0.001l-0.028-0.023l-0.076-0.078l-0.04-0.022l-0.074,0.015l-0.121,0.091
	l-0.068,0.025l-0.063-0.01l-0.055-0.031l-0.07-0.051l-0.199-0.108l-0.115-0.027l-0.048,0.073l-0.091-0.078l-0.025-0.096
	l-0.017-0.104l-0.059-0.104l-0.046-0.003l-0.058,0.025l-0.048,0.008l-0.018-0.058l-0.002-0.049l-0.016-0.036l-0.033-0.025
	l-0.155-0.049l-0.07-0.033l-0.039-0.055l-0.008-0.095l-0.052-0.054l-0.11-0.049l-0.095,0.001l-0.002,0.095l-0.076-0.024
	l-0.056,0.004l-0.034,0.031l-0.012,0.062l-0.025-0.061l-0.012-0.062v-0.063l0.009-0.066l-0.081-0.006l-0.045-0.045l-0.041-0.058
	l-0.062-0.042l-0.038,0.004l-0.055,0.043l-0.037,0.002l-0.022-0.013l-0.011-0.032l-0.123-0.065l-0.067-0.075l-0.009-0.025
	l-0.654-0.185l-1.416-0.398l-1.224-0.345l-1.164-0.327l-1.625-0.458l-0.259-0.073l-0.796-0.223l-1.243-0.35l-0.018-0.005l-0.07-0.02
	l-1.375-0.382l-1.144-0.318l-2.734-0.763l-1.117-0.312l-1.324-0.368l-1.437-0.402l-2.194-0.611l-1.656-0.471l-1.31-0.372
	l-1.187-0.338l-0.207-0.058l-0.003-0.083l0.06-0.114l-0.119-0.256l0.037-0.233L1493.416,128.757z M1504.791,69.865l0.03-0.015
	l0.133-0.017l0.052-0.02l0.042-0.056l0.023-0.064l0.036-0.063l0.045-0.06l0.233-0.304l0.151-0.083l0.22,0.013l0.161-0.062
	l0.104-0.213l0.096-0.421l0.03-0.06l0.042-0.026l0.051-0.012l0.052-0.021l0.039-0.047l0.004-0.06l-0.009-0.058v-0.046l0.057-0.116
	l0.074-0.095l0.092-0.079l0.111-0.073l0.252-0.115l0.018-0.032l0.035-0.123l0.021-0.049l0.314-0.258l0.01-0.066l0.381-0.361
	l0.14-0.073l0.112-0.031l0.145-0.06l0.108-0.101l0.01-0.155l0.146,0.004l0.111-0.043l0.075-0.07l0.037-0.077l0.043-0.208
	l0.026-0.063l0.093-0.096l0.03-0.065l-0.016-0.093l0.049-0.049l0.105-0.068l0.101-0.085l0.008-0.02l0.046-0.173l0.028-0.049
	l0.074-0.06l0.014-0.028l0.015-0.063l0.018-0.045l0.016-0.001l0.022,0.013l0.035-0.004l0.023-0.001l0.064,0.028l0.025,0.003
	l0.012-0.011l0.029-0.042l0.012-0.01l0.053-0.024l0.253-0.152l0.468-0.167l0.2-0.105l0.185-0.133l0.17-0.168l0.282-0.345
	l0.111-0.062l0.084-0.091l0.037-0.017l0.216,0.021l0.03-0.016l0.022-0.044l0.029-0.025l0.034-0.014l0.069-0.014l0.096-0.042
	l0.142-0.015l0.075-0.023l0.099-0.093l0.024-0.113l-0.032-0.11l-0.068-0.084l0.099-0.051l0.123-0.046l0.127-0.028l0.105,0.004
	l0.061-0.01l0.137-0.074l0.068-0.008l0.063,0.03l0.049,0.037l0.052,0.03l0.073-0.009l0.061-0.039l0.066-0.033l0.016,0.006
	l0.036-0.052l0.027-0.056l0.038-0.129l0.063-0.132l0.092-0.08l0.108-0.066l0.113-0.089l0.082-0.092l0.063-0.091l0.049-0.101
	l0.039-0.123l-0.018-0.126l-0.06-0.1v-0.067l0.161-0.032l0.059,0.002l0.114,0.021l0.059,0.001l0.061-0.013l0.118-0.044h0.057
	l0.099-0.022l0.066-0.097l0.043-0.125l0.023-0.103l-0.011-0.006l-0.045-0.093l0.088-0.038l0.075,0.011l0.074,0.027l0.086,0.009
	l0.096-0.037l0.188-0.138l0.094-0.053l0.343-0.066l0.149-0.057l0.106-0.025l0.042,0.02l0.069-0.092l0.139-0.104l0.16-0.08
	l0.13-0.017l0.292,0.134l0.138,0.043l0.158-0.02l0.117,0.18l0.185,0.394l0.166,0.121l0.11,0.011l0.081-0.037l0.072-0.049
	l0.085-0.034h0.084l0.088,0.015l0.088,0.032l0.08,0.045l0.037,0.053l0.049,0.158l0.045,0.063l0.142,0.03l0.047,0.021l0.044,0.046
	l0.042,0.096l0.029,0.05l0.063,0.06l0.162,0.112l0.075,0.07l0.037,0.064l0.024,0.064l0.039,0.063l0.077,0.06l-0.068,0.112
	l0.063,0.072l0.116,0.064l0.084,0.09l-0.18,0.002l-0.184,0.043l-0.172,0.098l-0.148,0.164l-0.131-0.053l-0.179,0.112l-0.186,0.161
	l-0.154,0.095l-0.095,0.002l-0.308-0.074l-0.043,0.015l-0.088,0.103l-0.047,0.037l-0.043,0.003l-0.289-0.032l-0.192,0.008
	l-0.075-0.015l-0.235-0.173l-0.037-0.019l-0.573-0.229l-0.149,0.03l-0.059-0.05l-0.072-0.017l-0.073,0.007l-0.069,0.03l-0.091-0.079
	l-0.1-0.03l-0.105,0.012l-0.225,0.095l-0.613,0.129l-0.167-0.007l-0.104,0.014l-0.18,0.05l-0.146,0.086l-0.082,0.03l-0.104-0.006
	l-0.028,0.013l-0.078,0.068l-0.035,0.01l-0.066-0.01h-0.063l-0.056,0.01l-0.042,0.021l-0.029,0.038l-0.032,0.1l-0.03,0.044
	l-0.052,0.022l-0.133,0.027l-0.096,0.079l-0.699,0.314l-0.06,0.005l-0.122-0.058l-0.046-0.006l-0.056,0.04l-0.076,0.069
	l-0.171,0.101l-0.094,0.04l-0.164,0.022l-0.06,0.073l-0.048,0.096l-0.054,0.078l-0.032,0.011l-0.104,0.016l-0.039,0.011
	l-0.048,0.042l-0.076,0.091l-0.149,0.117l-0.042,0.099l-0.027,0.114l-0.371,0.781l-0.137,0.192l-0.656,0.637l-1.359,0.807
	l-0.077,0.074l-0.169,0.327l-0.222,0.299l-0.048,0.04l-0.029,0.004l-0.035,0.019l-0.044,0.017l-0.116-0.008l-0.048,0.013
	l-0.097,0.063l-0.299,0.314l-0.109,0.083l-0.031,0.033l-0.164,0.229l-0.152,0.091l-0.06,0.047l-0.055,0.092l-0.043,0.096
	l-0.058,0.067l-0.093,0.008l-0.166,0.102l-0.03,0.113l-0.02,0.042l-0.021-0.001l-0.023-0.013l-0.025,0.008l-0.072,0.068
	l-0.081,0.058l-0.02,0.006l-0.047,0.002l-0.02,0.006l-0.06,0.064l-0.024,0.019l-0.039,0.038l-0.033,0.056l-0.074,0.186l-0.04,0.037
	l-0.089,0.042l-0.08,0.053l-0.034,0.029l-0.038,0.041l-0.031,0.055l-0.053,0.133l-0.118,0.137l-0.039,0.113l-0.032,0.459
	l-0.062,0.232l-0.109,0.184l-0.164,0.081l-0.066-0.023l-0.069-0.063l-0.021-0.082l0.081-0.08l0.07-0.09l-0.015-0.128l-0.075-0.255
	l0.117-0.095l-0.06-0.113l-0.121-0.038l-0.072,0.131l-0.06-0.109l-0.062-0.002l-0.052,0.053l-0.029,0.06l-0.035,0.105l-0.04,0.07
	l-0.129,0.159l-0.198-0.175l-0.02,0.006l-0.051-0.004l-0.031-0.021l0.092-0.104l0.067-0.033l0.069-0.022l0.07-0.037l0.15-0.151
	l0.017-0.03l0.075-0.011l0.06-0.054l0.096-0.115l0.211-0.092l0.066-0.045l0.024-0.039l0.099-0.226l0.039-0.043l0.035-0.029
	L1504.791,69.865z M1501.797,73.937l0.264-0.257l0.031-0.124l0.041-0.042l0.104-0.128l0.026-0.052l0.018-0.016l0.065-0.038
	l0.024-0.021l0.073-0.141l0.1-0.142l0.129-0.106l0.15-0.029l0.159,0.089l-0.01-0.065l-0.007-0.024l0.088-0.011l0.068,0.053
	l0.065,0.073l0.08,0.05l0.094,0.021l0.077,0.006l0.068-0.007l0.066-0.023l0.052,0.055l0.018,0.045l-0.008,0.127l0.021,0.23
	l-0.002,0.063l0.005,0.062l-0.015,0.04l-0.053,0.003l-0.072,0.021l-0.007,0.087l0.03,0.105l0.036,0.07l-0.029,0.024l-0.047,0.048
	l-0.032,0.021l0.002,0.097l-0.088,0.427l-0.002,0.047l-0.009,0.042l-0.031,0.049l-0.048,0.038l-0.241,0.13l-0.098,0.103
	l-0.052,0.041l-0.298,0.018l-0.339,0.164l-0.084,0.066l0.01,0.139l-0.121,0.147l-0.15,0.092l-0.079-0.026l-0.012-0.043l0.029-0.03
	l0.04-0.028l0.022-0.038l-0.008-0.058l-0.171-0.483l0.008-0.094l0.02-0.076l0.01-0.067l-0.023-0.069l-0.02-0.246l-0.014-0.011
	l0.007-0.076l-0.021-0.127l0.008-0.085L1501.797,73.937z M1497.805,87.083l0.181,0.188l0.065,0.128v0.144l-0.06,0.235l-0.032,0.084
	l-0.039,0.046l-0.112,0.094l-0.035-0.022l-0.012-0.016l-0.016-0.021l0.081-0.137l-0.018-0.15l-0.095-0.104l-0.154,0.004l-0.017-0.06
	l-0.03-0.056l-0.038-0.037l-0.041-0.006l0.021-0.078l0.184-0.083l0.099-0.067L1497.805,87.083z M1494.471,92.246l0.097-0.113
	l-0.009-0.157l0.301-0.963l0.041-0.045l0.084-0.049l0.093-0.04l0.07-0.019l0.011-0.039l-0.083-0.049l-0.029-0.082l0.014-0.072
	l0.053-0.021l0.071-0.017l0.031-0.08l0.029-0.165l0.157-0.21l0.01-0.043l0.031-0.03l0.135-0.214l0.003-0.099l0.041-0.152
	l0.069-0.139l0.085-0.064l0.01-0.039l-0.152-0.041l-0.053,0.005l-0.101,0.03l-0.041,0.001l-0.064,0.03l-0.071,0.064l-0.051,0.024
	l-0.002-0.093l0.047-0.049l0.121-0.066l0.036-0.056l0.049-0.043l0.086,0.007l0.169,0.055l0.123,0.105l-0.009,0.174l-0.063,0.203
	l-0.038,0.193l-0.021-0.036l-0.075-0.077l-0.033,0.115l0.016,0.069l0.056,0.049l0.091,0.055l-0.01,0.04l-0.1,0.019l0.08,0.081
	l0.138,0.082l0.077,0.019l0.031,0.079l0.18,0.243l0.047,0.105l0.001,0.066l-0.01,0.05l-0.02,0.051l-0.032,0.064l-0.153,0.183
	l-0.029,0.046l-0.005,0.134l0.056,0.252l-0.025,0.147l-0.024-0.007l-0.016-0.012l-0.025-0.042l0.011,0.201l-0.009,0.188
	l-0.042,0.198l-0.274,0.631l-0.021,0.022l-0.063,0.031l-0.02,0.027l-0.002,0.037l0.012,0.06l-0.001,0.03l-0.026,0.029l-0.049,0.021
	l-0.05,0.03l-0.031,0.05l-0.023,0.025l-0.09,0.029l-0.032,0.014l-0.034,0.035l-0.017,0.023l-0.027,0.107l-0.077,0.13l-0.007,0.035
	l0.042,0.043l0.049,0.011l0.047-0.021l0.03-0.048l0.057-0.076l0.092-0.028l0.076,0.031l0.015,0.095l-0.021,0.225l-0.044,0.097
	l-0.109,0.032l0.018,0.121l-0.002,0.11l0.022,0.088l0.179,0.118l-0.002,0.093l-0.07,0.093l-0.116,0.063l-0.087,0.015l-0.242,0.007
	l-0.06-0.02l-0.084-0.119l-0.019-0.06l0.063-0.089l0.012-0.06l0.001-0.198l0.007-0.044l-0.016-0.035l-0.068-0.039l-0.063-0.004
	l-0.082,0.019l-0.202,0.089l-0.063,0.017l-0.063,0.003l-0.068-0.012l-0.071-0.029l-0.01-0.027l0.056-0.081l0.025-0.015l0.045-0.017
	l0.04-0.033l0.005-0.069l-0.037-0.032l-0.146-0.085l-0.022-0.048l-0.003-0.018l-0.01-0.013l-0.009-0.02l0.002-0.035l0.021-0.031
	l0.068-0.039l0.021-0.028l0.009-0.065l-0.006-0.103l0.011-0.062l0.035-0.068l0.086-0.126l0.033-0.081l0.001-0.078l-0.073-0.258
	l-0.01-0.165l0.028-0.141L1494.471,92.246z M1487.544,115.94l0.072,0.095l-0.149-0.048l-0.104-0.131l-0.029-0.134l0.076-0.063
	l0.015,0.046l0.05,0.109L1487.544,115.94z M1497.412,74.258l0.076-0.029l0.046-0.077l0.018-0.083l0.022-0.022l0.026,0.042v0.103
	l-0.047,0.143l-0.053,0.076l-0.023,0.016l-0.023,0.04l0.001,0.051l0.014,0.019l0.021,0.016l-0.002,0.051l-0.059,0.044l-0.079,0.011
	l-0.058-0.016v-0.05l0.072-0.119l-0.031-0.063l-0.088-0.047l-0.005-0.048l0.085-0.045L1497.412,74.258z M1495.144,76.025
	l0.024-0.047l0.031-0.129l0.031-0.045l0.166-0.088l0.279-0.295l0.097-0.057l0.069,0.004l0.06,0.023l0.062,0.014l0.072-0.032
	l0.045-0.012l0.189-0.026l0.12-0.032l0.198-0.078l0.123-0.019l-0.018,0.093l0.033,0.149l-0.02,0.081l-0.033,0.048l-0.028,0.009
	l-0.033,0.003l-0.049,0.024l-0.096,0.073l-0.038,0.039l-0.034,0.048l0.158,0.048l-0.054,0.084l-0.215,0.152l-0.032,0.051
	l-0.055,0.043l-0.146,0.085l-0.058,0.011l-0.031,0.013l-0.023,0.028l-0.014,0.075l-0.018,0.027l-0.105,0.052l-0.107,0.006
	l-0.217-0.051l-0.323-0.282l-0.055-0.066L1495.144,76.025z"/></svg>