<?xml version="1.0" encoding="utf-8"?>
<!-- Generator: Adobe Illustrator 15.0.0, SVG Export Plug-In . SVG Version: 6.00 Build 0)  -->
<!DOCTYPE svg PUBLIC "-//W3C//DTD SVG 1.1//EN" "http://www.w3.org/Graphics/SVG/1.1/DTD/svg11.dtd">
<svg version="1.1" id="Ebene_1" xmlns="http://www.w3.org/2000/svg" xmlns:xlink="http://www.w3.org/1999/xlink" x="0px" y="0px"
	 width="1920px" height="1080px" viewBox="0 0 1920 1080" enable-background="new 0 0 1920 1080" xml:space="preserve">

<path fill="#F4E0B6" stroke="#FFFFFF" d="M1455.768,184.249l0.073,0.087l-0.022,0.095l-0.07,0.032l-0.064-0.043l-0.023-0.032
	l0.021-0.086L1455.768,184.249z M1455.437,187.936l0.026,0.119l-0.065,0.051l-0.112-0.042l-0.074-0.091l-0.012-0.125l0.071-0.059
	l0.099,0.048L1455.437,187.936z M1441.261,184.531l0.074,0.022l-0.088,0.051l-0.02-0.031L1441.261,184.531z M1431.411,175.787
	l0.058,0.063l-0.082,0.096l-0.115,0.069l-0.091,0.002l-0.009-0.108l0.057-0.084l0.092-0.043L1431.411,175.787z M1430.812,175.524
	l0.053,0.039l-0.028,0.027l-0.113-0.005l-0.396-0.117l0.008-0.044l0.022-0.025l0.035-0.014l0.048-0.014l0.029,0.017l0.097,0.032
	l0.075-0.061l0.021,0.017l0.006,0.052l0.021,0.043L1430.812,175.524z M1429.274,174.892l0.143,0.099l0.036,0.075l-0.011,0.073
	l-0.035,0.06l-0.056,0.045l-0.07,0.025l-0.104,0.017l-0.021-0.012l0.186-0.21l-0.007-0.033l-0.048-0.06l-0.193-0.153l-0.057-0.026
	l-0.069,0.009l-0.063,0.031l-0.037,0.009l0.009-0.047l0.017-0.033l0.021-0.027l0.032-0.024l0.046-0.019l0.028,0.074l0.048-0.019
	l0.056-0.055l0.048-0.036l0.041,0.021l0.021,0.063l0.007,0.108L1429.274,174.892z M1428.67,174.495l0.088-0.103l0.12,0.004
	l0.018,0.052l-0.061,0.06l-0.082,0.053l-0.051,0.039l-0.021,0.077l0.021,0.049l0.096,0.083l-0.086,0.026l-0.072,0.004l-0.044-0.031
	l-0.004-0.078l0.023-0.099L1428.67,174.495z M1427.211,173.997l0.199,0.029l0.162,0.074l0.039-0.003l0.08-0.078l0.037-0.007
	l0.027,0.02l0.152,0.015l0.183,0.089l0.126,0.003l0.218-0.082l0.081,0.009l0.02,0.022l-0.009,0.028l-0.003,0.065l-0.031,0.057
	l-0.003,0.035l0.022,0.021l0.084,0.04l0.019,0.025l-0.009,0.061l-0.02,0.027l-0.033,0.015l-0.143,0.077l-0.186,0.079l-0.082,0.053
	l-0.035,0.051l0.005,0.03l-0.009,0.017l-0.075,0.007l-0.066-0.003l-0.062-0.02l-0.05-0.033l-0.032-0.049l0.074-0.036l0.008-0.05
	l-0.044-0.043l-0.081-0.01l-0.048,0.025l-0.045,0.051l-0.063,0.105l-0.044-0.034l-0.114-0.049l-0.05-0.055l0.003-0.01l-0.032,0.002
	l-0.079,0.016l-0.007,0.006l-0.116-0.034l-0.076-0.051l-0.044-0.083l-0.019-0.133l-0.046-0.12l-0.099-0.012l-0.301,0.105
	l-0.112,0.073l-0.066,0.027l-0.026-0.017l0.008-0.05l0.03-0.056l0.039-0.034l0.19-0.105l0.274-0.074L1427.211,173.997z
	 M1424.49,174.234l0.053,0.08l-0.058,0.06l-0.085,0.017l-0.127-0.066l-0.001-0.067l0.075-0.044L1424.49,174.234z"/></svg>