<?xml version="1.0" encoding="utf-8"?>
<!-- Generator: Adobe Illustrator 15.0.0, SVG Export Plug-In . SVG Version: 6.00 Build 0)  -->
<!DOCTYPE svg PUBLIC "-//W3C//DTD SVG 1.1//EN" "http://www.w3.org/Graphics/SVG/1.1/DTD/svg11.dtd">
<svg version="1.1" id="Ebene_1" xmlns="http://www.w3.org/2000/svg" xmlns:xlink="http://www.w3.org/1999/xlink" x="0px" y="0px"
	 width="1920px" height="1080px" viewBox="0 0 1920 1080" enable-background="new 0 0 1920 1080" xml:space="preserve">

<path fill="#F4E0B6" stroke="#FFFFFF" d="M1301.62,494.97l0.046-0.025l0,0l-0.046,0.115l0.051,0.063l0.037,0.072l-0.086,0.14
	l-0.104,0.06l-0.14,0.026l-0.094-0.002l-0.046-0.001l-0.108-0.024l0.13-0.024l0.1-0.101l0.119-0.244L1301.62,494.97z
	 M1258.452,424.331l0.157-0.093h0.001l0.216-0.048l0.071-0.007l0.151,0.042l0.054-0.003l0.006-0.07l-0.033-0.049l-0.117-0.104
	l-0.04-0.072l-0.012-0.082l0.004-0.091l0.031-0.169l0.068-0.167l0.116-0.402l0.047-0.075l0.057-0.048l0.147-0.081l0.134-0.115
	l0.313-0.479l0.129-0.139l0.148-0.07l0.169-0.007l0.19,0.055l0.195,0.082l0.186,0.052l0.151-0.042l0.122-0.264l-0.021-0.043
	l-0.042-0.036l-0.034-0.048l0.026-0.318l0.203-0.323l0.285-0.282l0.276-0.195l0.306-0.167l0.163-0.056l0.908-0.11l0.005,0.001
	l0.083,0.016l0.124,0.025l0.333,0.255l0.185,0.085l0.084-0.002l0.163-0.056l0.08-0.017l0.086,0.027l0.017,0.075l-0.002,0.096
	l0.036,0.087l0.048,0.026l0.099,0.003l0.049,0.026l0.026,0.041l0.012,0.043l0.031,0.278l0.023,0.08l0.063,0.068l0.168,0.048
	l0.187-0.031l0.169-0.084l0.11-0.114l0.155-0.335l0.114-0.097l0.212-0.032l0.193,0.042l0.199,0.071l0.184,0.031l0.143-0.081
	l0.048-0.103l0.035-0.234l0.031-0.108l0.051-0.083l0.051-0.062l0.026-0.069l-0.033-0.21l0.03-0.078l0.044-0.073l0.021-0.091
	l-0.014-0.045l-0.06-0.09l-0.013-0.057l0.006-0.054l0.013-0.052l0.037-0.102l0.014-0.118l-0.08-0.23l0.054-0.071l0.167,0.024
	l0.353,0.237l0.187-0.019l0.13-0.115l0.228-0.276l0.147-0.102l0.168-0.048l0.075-0.031l0.068-0.064l0.028-0.06l1.475-0.042
	l1.474-0.045l0.006,0.036l0.062,0.129l0.12,0.033l0.142,0.021l0.134,0.095l0.053,0.104l0.082,0.354l0.049,0.123l0.017,0.075
	l-0.038,0.063l-0.109,0.089l-0.075,0.108l-0.049,0.166l-0.015,0.179l0.032,0.143l0.093,0.085l0.256,0.097l0.073,0.083l0.179,0.566
	l0.004,0.071l-0.077,0.424l-0.032,0.078l-0.05,0.062l-0.199,0.14l-0.091,0.164l-0.01,0.199l0.066,0.769l-0.081,0.538l-0.054,0.153
	l-0.217,0.24l-0.032,0.174l0.028,0.099l0.099,0.159l0.041,0.09l0.002,0.04l-0.015,0.139l0.074,0.389l0.13,0.374l0.027,0.124
	l-0.015,0.095l-0.098,0.185l-0.036,0.098l-0.051,0.293l-0.085,0.2l-0.749,1.085l-0.153,0.152l-0.186,0.128l-0.099,0.041
	l-0.114,0.025l-0.053,0.042l0,0l-0.052,0.039l-0.068,0.169l-0.064,0.328l-0.152,0.441l-0.926,1.506l-0.829,1.003l-0.161,0.274
	l-0.099,0.304l-0.021,0.349l0.074,0.458l0.002,0.147l-0.195,0.799l-0.002,0.077l0.039,0.185l0.105,0.064l0.137,0.023l0.134,0.064
	l0.066,0.119l0.039,0.292l0.076,0.129l0.001,0.001l0.174,0.096l0.047,0.053l0.021,0.061l0.006,0.144l0.011,0.066l0.074,0.131
	l0.108,0.083l0.13,0.02l0.131-0.055l0.104-0.09l0.084-0.096l0.064-0.114l0.042-0.141l0.07-0.138l0.112-0.038l0.275,0.011
	l0.116-0.021l0.116,0.014l0.09,0.062l0.035,0.125l0.009,0.347l0.053,0.16l0.127,0.115l0.158,0.027l0.167-0.045l0.142-0.098
	l0.083-0.135l0.061-0.361l0.042-0.094l0.176-0.215l0.061-0.175l0.034-0.197l0.064-0.175l0.146-0.105l0.175,0.016l0.134,0.122
	l0.093,0.176l0.056,0.182l0.033,0.216l-0.004,0.198l-0.13,0.551l0.042,0.155l0.177,0.287l0.044,0.057l0.051,0.051l0.056,0.046
	l0.134,0.08l0.077,0.026l0.08,0.009l0.08-0.007l0.251-0.147l0.257-0.237l0.271-0.172l0.291,0.052l0.32,0.283l0.285,0.319
	l0.061,0.085l0.046,0.085l0.033,0.092l0.017,0.104l-0.011,0.211l0.014,0.1l0.065,0.09l0.201,0.121l0.172,0.006l0.162-0.075
	l0.171-0.125l0.192-0.092l0.41-0.115l0.154-0.137l0.236-0.418l0.119-0.098h0.126l0.245,0.107l0.265,0.062l0.094,0.063l0.067,0.097
	l0.025,0.046l0.004,0.008l0.039,0.073l0.106-0.003l0.094-0.029l0.077-0.059l0.056-0.097l0.015-0.101l-0.02-0.198l0.029-0.099
	l0.066-0.063l0.172-0.083l0.065-0.062l0.041-0.096l0.063-0.272l0.011-0.107l-0.021-0.128l-0.057-0.074l-0.074-0.061l-0.074-0.091
	l-0.04-0.12l0.019-0.096l0.068-0.043l0.113,0.034l0.09,0.082l0.152,0.22l0.092,0.086l0.104,0.048l0.206,0.061l0.092,0.051
	l0.065,0.079l0.063,0.094l0.072,0.079l0.101,0.032l0.385,0.017l0.176-0.067l0.116-0.149l0.062-0.191l0.018-0.196l0.06-0.193
	l0.265-0.264l0.058-0.209l0.007-0.237l0.046-0.167l0.107-0.125l0.191-0.121l0.144-0.123l0.193-0.306l0.142-0.125l0.348-0.22
	l0.145-0.093l0.18-0.062l0.118,0.021l0.075,0.096l0.091,0.225l0.065,0.078l0.144,0.127l0.045,0.041l-0.064,0.147l-0.015,0.069
	l-0.009,0.129l0.009,0.179l0.05,0.153l0.11,0.047l-0.028,0.06l-0.067,0.099v0.049l0.024,0.074l0.001,0.049l-0.018,0.039
	l-0.203,0.252l-0.017,0.096l0.147,0.029l-0.016,0.05l-0.052,0.115l0.004,0.056l0.032,0.061l0.031,0.04l0.022,0.047l0.006,0.072
	l-0.032,0.124l-0.05,0.105l-0.021,0.103l0.053,0.117l-0.146,0.186l0.071,0.135l0.15,0.125l0.09,0.152l-0.019,0.11l-0.171,0.291
	l0.168,0.247l0.017,0.083l-0.005,0.091l0.102,0.488l0.037,0.106l0.06,0.085l0.099,0.068l0.062,0.034l0.019,0.02l0.008,0.029
	l0.03,0.061l0.019,0.02l0.052,0.043l0.018,0.021l0.005,0.02l0.002,0.046l0.003,0.013l0.057,0.091l0.011,0.023l0.071-0.022
	l0.521-0.071l0.505,0.079l0.243-0.056l0.095,0.032l0.081,0.07l0.054,0.097l0.055,0.122l0.061,0.101l0.341,0.398l0.098,0.089
	l0.214,0.106l0.161,0.173l0.092,0.062l0.099,0.03l0.077,0.007l0.076-0.014l0.091-0.032l0.061-0.066l0.046-0.234l0.038-0.099
	l0.064-0.057l0.103-0.057l0.059-0.021l0.026,0.352l0.027,0.141l0.058,0.118l0.099,0.049l0.03,0.105l0.053,0.108l0.037,0.11
	l-0.007,0.114l-0.038,0.112l-0.021,0.101l0.004,0.102l0.035,0.119l0.064,0.096l0.059,0.055l0.024,0.059l-0.047,0.104l-0.079,0.115
	l-0.023,0.055l-0.013,0.069l0.011,0.068l0.027,0.064l0.038,0.059l0.102,0.006l0.064,0.099l0.027,0.135l-0.011,0.112l0.014,0.027
	l0.112,0.001l0.035,0.013l0.021,0.056l0.02,0.1l0.02,0.06l0.091,0.167l0.029,0.112l0.025,0.058l0.085,0.081l0.019,0.097l0.034,0.036
	l0.063,0.05l0.011,0.053l-0.022,0.126l0.007,0.13l0.014,0.102l0.03,0.095l0.046,0.112l0.073,0.099l0.085,0.035l0.096,0.03
	l0.11,0.078l0.036,0.099l-0.026,0.225l0.024,0.062l0.051,0.064l0.205,0.408l0.016,0.067l-0.014,0.07l-0.055,0.073l0.035,0.005
	l0.073,0.022l0.034,0.007l-0.041,0.09l0.007,0.124l0.042,0.117l0.063,0.072l0.014,0.024l0.203-0.196l0.163-0.04l0.248-0.012
	l0.237,0.033l0.061,0.043l0.071,0.052l0.281,1.147l0.02,0.246l-0.161,1.027l0.02,1.069l0.045,0.114l0.514,0.529l0.511,0.526
	l0.62,0.642l0.352,0.522l0.314,0.469l0.5,0.748l0.243,0.517l0.137,0.232l0.277,0.35l0.051,0.103l0.019,0.115l0.049,0.841l0.04,0.746
	l0.05,0.873l0.05,0.945l0.029,0.193l0.253,0.613l0.16,0.239l0.88,0.85l0.197,0.236l0.162,0.267l0.104,0.31l0.208,0.913l0.306,0.688
	l0.077,0.117l0.081,0.079l0.586,0.393l0.065,0.072l0.021,0.101l-0.092,1.003l-0.085,0.888l-0.133,0.484l-0.186,0.427l-0.137,0.503
	l-0.087,0.522l-0.035,0.489l0.028,0.846l0.024,0.784l-0.084,0.512l-0.181,0.373l-0.262,0.204l-0.329,0.078l-0.382-0.004
	l-0.104-0.038l-0.179-0.127l-0.119-0.009l-0.087,0.032l-0.159,0.103l-0.237,0.091l-0.14,0.091l-0.121,0.123l-0.103,0.144
	l-0.057,0.112l-0.017,0.122l-0.011,0.259l-0.053,0.235l-0.013,0.114l0.019,0.135l0.161,0.478l0.082,0.521l0.025,0.083l0.222,0.73
	l0.069,0.118l0.82,0.986l0.089,0.214l0.032,0.616l0.2,0.535l0.037,0.842l-0.055,0.418l0.05,0.661l0.15,0.376l0.273,0.346
	l0.532,0.465l0.515,0.45l0.238,0.086l0.285-0.053l0.92-0.553l0.291-0.118l0.587-0.166l0.251-0.16l0.822-1.225l0.122-0.196
	l0.163-0.159l0.224-0.073l0.198,0.079l0.408,0.278l0.211,0.096l0.081,0.071l0.088,0.115l0.09,0.089l0.102,0.048l0.222,0.073
	l0.178,0.136l0.16,0.197l0.306,0.558l0.076,0.075l0.182,0.111l0.249,0.206l0.08,0.042l0.296,0.038l0.313-0.046l0.298-0.109
	l0.25-0.151l0.143-0.048l0.327,0.041l0.149-0.02l0.084-0.062l0.144-0.196l0.17-0.303l0.217-0.707l0.039-0.257l-0.003-0.269
	l0.023-0.253l0.117-0.216l0.181-0.05l0.217,0.098l0.443,0.283l0.578,0.37l0.195,0.055l0.14-0.034l0.283-0.124l0.146,0.025
	l0.13,0.041l0.127-0.012l0.241-0.101l0.38-0.231l0.137-0.045l0.145,0.002l0.776,0.198l0.329,0.03l0.326-0.014l0.561-0.112
	l0.519,0.051l0.182-0.037l0.066-0.015l0.032,0.163l0.027,0.483l0.096,0.156l0.148,0.139l0.153,0.065l0.118-0.072l0.037-0.005
	l0.033,0.011l0.032,0.028l0.03,0.04l0.1,0.073l0.036,0.032l0.041,0.022l0.041,0.015l0.043,0.004l0.105-0.104l0.108-0.223l0.12-0.181
	l0.145,0.025l0.03,0.085l-0.008,0.335l0.037,0.098l0.045,0.076l0.019,0.084l-0.04,0.117l-0.087,0.106l-0.042,0.112l-0.008,0.128
	l0.082,0.481l0.064,0.148l0.099,0.029l0.111-0.03l0.024,0.057l-0.015,0.116l-0.003,0.145l0.021,0.281l-0.013,0.141l-0.307,0.789
	l-0.158,0.175l-0.11,0.061l-0.092,0.002l-0.218-0.089l-0.202-0.044l-0.055-0.038l-0.022-0.052l-0.022-0.137l-0.041-0.067
	l-0.149,0.004l-0.085,0.253l-0.082,0.708l0.065,0.367l-0.002,0.125l-0.092,0.345l0.005,0.144l0.059,0.298l-0.02,0.132l-0.033,0.131
	l-0.02,0.407l-0.054,0.224l0.01,0.092l0.063,0.115l0.28,0.338l0.074,0.122l0.076,0.309l-0.107,0.26l-0.874,0.979l-0.269,0.242
	l-0.298,0.148l-0.736,0.141l-0.19,0.101l-1.259,1.313l-0.19,0.427l-0.144,0.202l-0.097,0.077l-0.374,0.186l-0.138,0.093l-0.065,0.1
	l-0.069,0.254l-0.069,0.154l-0.087,0.079l-0.128,0.025l-0.246-0.009l-0.074,0.01l-0.072,0.02l-0.056,0.032l-0.055,0.068l0.009,0.043
	l0.034,0.033l0.027,0.039l0.139,0.31l-0.003,0.07l-0.154,0.046l-0.322-0.151l-0.168,0.004l-0.232,0.234l0.122,0.229l0.408,0.249
	l0.534,0.325l0.707,0.432l-0.339,0.36l-0.428,0.453l-0.505,0.534l-0.165,0.233l-0.028,0.212l-0.039-0.026l-0.055-0.022l-0.056-0.008
	l-0.047,0.017l-0.042,0.062l0.04,0.029l0.067,0.013l0.041,0.017l0.029,0.083l0.009,0.091l-0.032,0.08l-0.09,0.047l-0.074-0.001
	l-0.049-0.013l-0.037,0.004l-0.035,0.051l-0.003,0.063l0.035,0.038l0.047,0.025l0.028,0.025l0.017-0.001l0.035-0.009l0.031,0.001
	l0.002,0.028l-0.016,0.019l-0.05,0.039l-0.013,0.015l-0.01,0.045l-0.04,0.105l-0.01,0.049l0.069,0.214l0.005,0.006l-0.007-0.005
	l-0.423-0.074l0.153,0.102l0.054,0.025l0.045,0.007l0.102,0.001l0.032,0.007l0.084,0.079l0.121,0.205l0.077,0.086l0.096,0.051
	l0.191,0.042l0.104,0.044l-0.027,0.044l-0.15,0.043l-0.251,0.048l0.109,0.091l-0.07,0.08l-0.155,0.042l-0.143-0.023l-0.023-0.037
	l0.012-0.095l-0.006-0.027l-0.1-0.054l-0.02-0.021l-0.057-0.087l0.009-0.041l0.06-0.064l-0.031-0.02l-0.111,0.031l-0.148,0.023
	l-0.157-0.003l-0.139-0.045l-0.101-0.119l-0.051-0.046l-0.06,0.079l-0.171,0.063l-0.066,0.036l0.56,0.144l0.168,0.014l0.107,0.199
	l0.043,0.107l-0.017,0.068l-0.053,0.008l-0.075-0.014l-0.074-0.023l-0.047-0.023l-0.05,0.007l-0.038,0.055l-0.02,0.059l0.009,0.017
	l-0.057,0.037l-0.067,0.037l-0.075,0.021l-0.068-0.014l-0.05-0.005l-0.04,0.034l-0.038,0.043l-0.043,0.022l-0.072-0.007l-0.06-0.046
	l-0.068,0.001l-0.044,0.03l-0.013,0.053l0.011,0.11l-0.096-0.028l-0.191-0.11l-0.08,0.008l0.086,0.098l0.29,0.252l0.037,0.077
	l-0.141,0.122l-0.167,0.106l-0.347,0.177l0.092-0.03l0.107-0.007l0.083,0.033l0.019,0.093l-0.053,0.087l-0.104,0.093l-0.201,0.14
	l-0.047,0.043l-0.031,0.043l-0.035,0.023l-0.056-0.019l-0.055-0.044l-0.026-0.042l-0.019-0.044l-0.032-0.05l-0.248-0.213
	l-0.038-0.063l-0.03-0.02l-0.019,0.021l-0.013-0.001l-0.014-0.009l-0.02-0.006l0.033,0.109l0.206,0.132l0.053,0.092l-0.03,0.087
	l-0.084,0.055l-0.105,0.007l-0.094-0.052l0.006,0.103l-0.061,0.024l-0.094-0.002l-0.098,0.021l-0.064,0.06l0.029,0.036l0.081,0.009
	l0.091-0.021l-0.297,0.212l-0.095,0.031l0.032-0.048l0.034-0.03l0.028-0.035l0.016-0.061l-0.01-0.064l-0.061-0.121l-0.016-0.069
	l-0.024,0.056l-0.009,0.07l-0.021,0.064l-0.055,0.038l-0.059-0.022l-0.067-0.063l-0.084-0.1l-0.22,0.167l-0.081,0.038l-0.099-0.182
	l-0.01-0.078l0.082-0.049l0.031-0.177l-0.007-0.076l-0.063-0.062l-0.008,0.16l-0.098,0.086l-0.142,0.067l-0.144,0.1l-0.224,0.268
	l-0.146,0.12l-0.13,0.008l-0.179-0.083l-0.168-0.03l-0.32-0.016l-0.084-0.02l-0.074-0.03l-0.248-0.151l-0.057-0.007l-0.095,0.006
	l-0.013-0.042l-0.031-0.058l-0.006-0.029l-0.16-0.052l0.019-0.131l0.11-0.147l0.121-0.108l-0.133,0.058l-0.09,0.064l-0.178,0.189
	l-0.104,0.015l-0.12-0.09l-0.165-0.196l0.011,0.049l-0.002,0.047l-0.024,0.09l-0.136-0.072l-0.154-0.027l-0.169,0.006l-0.18,0.027
	l0.002-0.14l-0.053-0.004l-0.108,0.092l-0.1,0.004l-0.093-0.018l-0.088-0.03l-0.075-0.037l0.093-0.054l0.09-0.075l0.068-0.088
	l0.035-0.09l-0.202,0.075l-0.094,0.045l-0.097,0.07l-0.064,0.084l-0.035,0.068l-0.049,0.024l-0.106-0.049l-0.104-0.12l-0.05-0.162
	l-0.007-0.176l0.022-0.16l0.052-0.167l-0.026-0.035l-0.11,0.004l-0.096,0.026l-0.032,0.043l-0.021,0.064l-0.118,0.185l-0.048,0.031
	l-0.128-0.042l-0.072-0.006l-0.073,0.008l-0.052,0.028l-0.063,0.084l-0.028,0.059l-0.042,0.052l-0.107,0.063l0.005,0.056
	l0.143,0.029l-0.115,0.06l-0.306,0.091l-0.091,0.068l-0.115,0.052l-0.112,0.029l-0.084,0.003l-0.029,0.032l0.089,0.057l0.047,0.013
	l0.058,0.003l-0.109,0.097l-0.137,0.048l-0.149,0.035l-0.145,0.057l-0.122,0.12l-0.069,0.142l-0.08,0.123l-0.149,0.064l-0.022,0.057
	l-0.189,0.25l-0.06,0.137l-0.038,0.058l-0.146,0.084l-0.083-0.072l-0.019-0.153l0.053-0.159l-0.033-0.021l-0.151,0.065l-0.185-0.12
	l-0.306-0.306l-0.279-0.198l-0.071-0.08l-0.041-0.09l-0.033-0.151l-0.056-0.076l-0.106-0.063l-0.217-0.03l-0.104-0.04l-0.069,0.007
	l-0.288,0.064l-0.091,0.043l-0.082,0.026l-0.44,0.084l-0.232,0.089l-0.129,0.007l-0.07-0.087l0.132-0.092l-0.05-0.115l-0.144-0.064
	l-0.154,0.059l-0.141,0.005l-0.203-0.071l-0.167-0.034l-0.026,0.11l-0.031-0.005h-0.035l-0.026-0.008l-0.033,0.069l-0.062,0.004
	l-0.074-0.023l-0.074-0.012l-0.293,0.043l-0.101-0.017l-0.066,0.13l-0.105,0.1l-0.115,0.03l-0.092-0.08l-0.015,0.108l-0.05,0.106
	l-0.124,0.164l-0.055,0.047l-0.109,0.07l-0.051,0.053l-0.004,0.024v0.041l-0.013,0.051l-0.11,0.175l-0.027,0.124l0.008,0.118
	l0.035,0.101l0.095,0.189l0.002,0.042l-0.024,0.057l-0.001,0.076l0.014,0.076l0.022,0.053l0.105-0.115l0.257-0.38l0.033-0.064
	l0.005-0.071l-0.019-0.114v-0.021l0.005-0.021l0.013-0.022l0.02-0.025l0.001-0.024l-0.033-0.019l-0.039-0.016l-0.017-0.021
	l0.051-0.111l0.102-0.143l0.111-0.114l0.082-0.03l0.067,0.015l0.068-0.031l0.07-0.047l0.069-0.034l0.078-0.009l0.164,0.003
	l0.092-0.016l0.009-0.093l0.052-0.097l0.093-0.077l0.124-0.033l-0.009,0.234l0.273-0.102l0.133-0.009l0.021,0.105l-0.067,0.057
	l-0.127,0.045l-0.218,0.056l-0.464,0.235l-0.236,0.176l-0.097,0.167l-0.135,0.099l-0.092,0.163l-0.072,0.177l-0.083,0.137
	l-0.356,0.389l-0.179,0.327l-0.269,0.378l-0.176,0.18l-0.082,0.105l-0.066,0.194l-0.063,0.12l-0.056,0.204l-0.131,0.196
	l-0.099,0.297l-0.064,0.092l-0.101,0.087l-0.732,0.485l-0.092,0.079l-0.065,0.105l-0.053,0.125l-0.061,0.111l-0.094,0.064
	l-0.006-0.036l-0.041-0.085l-0.121,0.143l-0.082,0.127l-0.052,0.124l-0.027,0.125l-0.201,0.088l-0.063,0.146l0.023,0.161
	l0.079,0.212l0.004,0.056l-0.021,0.055l-0.043,0.073l-0.046,0.051l-0.129,0.087l-0.13,0.108l-0.163,0.1l-0.076,0.064l-0.243,0.256
	l-0.286,0.217l-0.128,0.124l-0.058,0.156l-0.128,0.064l-0.14,0.123l-0.229,0.274l-0.057,0.138l-0.012,0.146l0.027,0.138l0.06,0.109
	l0.097,0.106l0.059,0.036l0.068,0.01l0.068-0.03l0.085-0.054l0.081-0.033l0.056,0.032l-0.028,0.034l-0.127,0.237l-0.061,0.057
	l-0.131,0.084l-0.059,0.062l-0.072-0.231l-0.074-0.057l-0.175-0.001l-0.112,0.042l-0.15,0.085l-0.137,0.099l-0.072,0.078
	l-0.007,0.076l0.04,0.127l-0.027,0.062l-0.045,0.056l-0.056,0.095l-0.029,0.04l-0.114,0.069l-0.276,0.046l-0.141,0.055l-0.208,0.145
	l-0.187,0.165l-0.049,0.03l-0.109,0.012l-0.055,0.018l-0.247,0.242l-0.429,0.311l-0.063-0.045l-0.046-0.093l-0.067-0.069
	l-0.045,0.004l-0.06,0.022l-0.068,0.011l-0.074-0.023l-0.03-0.05l0.015-0.057l0.042-0.056l0.044-0.045l0.112-0.083l0.023-0.05
	l-0.049-0.065l-0.039,0.004l-0.048,0.035l-0.055,0.053l-0.133,0.218l-0.088,0.108l-0.083,0.018l-0.104,0.306l0.008,0.093l0.04-0.073
	l0.008-0.032l0.108,0.026l0.05-0.015l0.014-0.058l-0.007-0.098l0.051-0.057l0.129,0.002l0.225,0.035l0.035,0.112l-0.02,0.034
	l-0.068,0.072l-0.121,0.168l-0.066,0.074l-0.096,0.051l-0.057,0.135l-0.175,0.132l-0.548,0.305l-0.308,0.238l-0.257,0.28
	l-0.212,0.292l-0.082,0.159l-0.031,0.101l-0.012,0.104l0.019,0.198l0.057,0.139l-0.01,0.065l-0.084,0.047l0.091,0.033l0.087,0.011
	l0.268-0.016l0.033-0.01l0.021,0l0.026,0.025l0.022,0.034l0.016,0.036l0.001,0.034l-0.016,0.031l-0.147,0.11l-0.33,0.156
	l-0.156,0.121l-0.234,0.299l-0.076,0.06l-0.267,0.128l-0.328,0.21l-0.146,0.127l-0.094,0.142l-0.103,0.345l-0.072,0.104
	l-0.364,0.315l-0.815,0.57l-0.656,0.639l-0.289,0.311l-0.171,0.213l0.05,0.118l0.069,0.034l0.126-0.055l-0.045,0.102l-0.129,0.075
	l-0.085,0.143l-0.048,0.157l-0.017,0.117v0.076l0.017,0.089l0.041,0.078l0.078,0.037l0.102-0.013l0.102-0.068l0.084-0.033
	l0.038,0.069l-0.159,0.163l-0.203,0.186l-0.169,0.104l0.016-0.152l-0.001-0.025l0.005-0.022v-0.02l0.016-0.046l0.037-0.033
	l0.019-0.034l-0.04-0.048l-0.165-0.026l-0.104-0.032l-0.15,0.04l-0.134,0.042l-0.116,0.105l-0.158,0.112l-0.171,0.188l-0.105,0.208
	l-0.051,0.113l0.035,0.108l0.038,0.088l0.103-0.019l0.118,0.055l0.082-0.013l0.081,0.004l-0.056,0.104l-0.162,0.146l-0.201,0.166
	l-0.235,0.226l-0.156,0.208l0.039,0.105l0.024,0.041l0.003,0.062l0.086,0.133l-0.049,0.045l-0.025,0.118l-0.057,0.121l-0.118,0.151
	l-0.132,0.071l-0.105-0.013l-0.07-0.092l-0.008-0.073l-0.086-0.016l-0.022-0.043l0.011-0.106l-0.008-0.077l-0.019-0.031
	l-0.052-0.046l-0.035-0.046l-0.022-0.106l-0.031-0.047l-0.067-0.045l-0.027,0.003l-0.01,0.031l-0.018,0.034l-0.002,0.018
	l0.003,0.062l-0.011,0.03l-0.027,0.015l-0.089,0.021l-0.032,0.016l-0.053,0.039l-0.041,0.011l-0.04,0.004l-0.047,0.021l-0.049,0.04
	l-0.119,0.13l-0.076,0.05l-0.04,0.036l-0.027,0.058l-0.1,0.088v-0.001l-0.238-0.389l-0.341-0.294l-0.4-0.348l-0.347-0.298
	l-0.234-0.204l-0.049-0.058l-0.02-0.054l-0.002-0.099l-0.009-0.049l-0.138-0.122l-0.211-0.084l-0.177-0.099l-0.034-0.166l0.06-0.096
	l0.075-0.073l0.049-0.078l-0.014-0.112l-0.055-0.077l-0.261-0.264l-0.31-0.313l-0.231-0.235l-0.201-0.203l-0.227-0.229l-0.101-0.132
	l-0.063-0.141l0.018-0.147l0.317-0.562l0.043-0.207l0.033-0.098l0.052-0.098l0.128-0.179l-0.011-0.068l-0.092-0.092l-0.042-0.142
	l0.16-0.131l0.227-0.127l0.16-0.129l0.037-0.117l-0.064-0.042l-0.116-0.02l-0.119-0.052l-0.027-0.067l-0.002-0.208l-0.037-0.096
	l-0.03-0.017l-0.039-0.003l-0.039-0.009l-0.03-0.035l-0.01-0.048l0.012-0.048l0.042-0.098l0.012-0.046l0.012-0.077l0.017-0.042
	l0.032-0.04l0.082-0.079l0.027-0.048l0.001-0.037l-0.025-0.073l0.005-0.048l0.024-0.044l0.555-0.702l0.048-0.1l0.007-0.052
	l-0.003-0.054l0.011-0.048l0.049-0.036l0.062-0.027l0.035-0.031l0.088-0.141l0.02-0.043l0.013-0.04l0.005-0.041l-0.036-0.095
	l-0.012-0.059l0.028-0.051l0.261-0.261l0.301-0.302l0.347-0.349l0.168-0.137l0.153-0.152l0.083-0.134l0.038-0.035l0.049-0.022
	l0.047-0.015l0.046-0.02l0.039-0.038l-0.003-0.151l-0.135-0.167l-0.607-0.487l-0.043-0.078l0.027-0.089l0.126-0.179l0.003-0.098
	l-0.069-0.07l-0.102-0.017l-0.118-0.001l-0.114-0.023l-0.515-0.333l-0.046-0.042l-0.028-0.048l-0.021-0.084l-0.03-0.046
	l-0.029-0.094l0.039-0.102l0.08-0.086l0.091-0.049l-0.422-0.076l-0.135-0.002l-0.084,0.009l-0.057,0.021l-0.126,0.072l-0.069,0.026
	l-0.189,0.035l-0.063,0.037l-0.038,0.039l-0.135,0.263l-0.045,0.052l-0.069,0.062l-0.093,0.108l-0.13,0.25l-0.079,0.113l-0.171,0.26
	l-0.094,0.111l-0.144,0.104l-0.136,0.056l-0.04,0.023l-0.021,0.032l-0.02,0.077l-0.028,0.031l-0.087,0.036l-0.307,0.061l0.055-0.065
	l0.007-0.059l-0.026-0.059l-0.045-0.063l-0.063-0.059l-0.065-0.015l-0.164,0.01l-0.262-0.535l-0.158-0.154l-0.246-0.142l-0.433-0.25
	l-0.235-0.138l-0.378-0.22l-0.278-0.162l-0.508-0.198l-0.366-0.144l-0.431-0.416l-0.389-0.376l-0.167-0.091l-0.131,0.049
	l-0.46,0.724l-0.121,0.042l-0.484,0.056l-0.144-0.012l-0.097-0.028l-0.068-0.005l-0.063,0.021l-0.079,0.049l-0.093,0.037
	l-0.088,0.001l-0.088-0.009l-0.092,0.007l-0.154,0.067l-0.569,0.432l-0.434,0.215l-0.139,0.103l-0.257,0.238l-0.143,0.089
	l-0.271,0.105l-0.273,0.181l-0.102,0.042l-0.248,0.02l-0.441,0.078l-0.345,0.009l-0.707,0.13l-0.232,0.012l-0.33-0.064l-0.218,0.02
	l-0.081-0.027l-0.078-0.043l-0.102-0.039l-0.501-0.108l-0.074,0l-0.071,0.018l-0.067,0.032l-0.048,0.013l-0.031-0.009l-0.017-0.03
	l-0.001-0.047l-0.005-0.061l-0.025-0.042l-0.046-0.016l-0.062,0.015l-0.087,0.044l-0.087-0.016l-0.089-0.034l-0.095-0.006
	l-0.059,0.025l-0.036,0.032l-0.043,0.025l-0.081,0.007l-0.065-0.017l-0.111-0.068l-0.058-0.024l-0.115-0.006l-0.238,0.023
	l-0.116-0.029l-0.082-0.061l-0.104-0.153l-0.074-0.068l-0.137-0.044l-0.105,0.031l-0.103,0.056l-0.125,0.029l-0.637,0.039
	l-0.603,0.035l-0.581,0.034l-0.501,0.029l-0.403,0.024l-0.614,0.037l0.159-0.076l0.324-0.201l0.378-0.233l0.38-0.234l0.381-0.234
	l0.379-0.235l0.382-0.236l0.38-0.237l0.383-0.237l0.382-0.239l0.382-0.239l0.385-0.24l0.384-0.24l0.385-0.241l0.385-0.242
	l0.387-0.243l0.386-0.244l0.387-0.243l0.441-0.28l0.43-0.34l0.392-0.51l0.09-0.117l0.153-0.201l0.154-0.201l0.153-0.202l0.152-0.2
	l0.155-0.202l0.152-0.202l0.155-0.202l0.153-0.203l0.154-0.201l0.152-0.203l0.155-0.203l0.153-0.202l0.153-0.203l0.154-0.203
	l0.154-0.204l0.155-0.205l0.479-0.635l0.929-0.749l0.782-0.632l0.59-0.322l0.055-0.138l-0.145-0.334l-0.031-0.169l0.054-0.188
	l0.644-1.292l0.078-0.086l0.657-0.736l0.485-0.547l0.706-0.593l0.182-0.199l0.352-0.701l0.14-0.281l0.141-0.282l0.14-0.283
	l0.14-0.281l0.141-0.283l0.14-0.283l0.14-0.283l0.14-0.284l0.141-0.283l0.139-0.284l0.141-0.284l0.14-0.285l0.139-0.284l0.141-0.286
	l0.139-0.285l0.141-0.286l0.204-0.419l0.057-0.481l-0.045-0.202l-0.066-0.178l0.008-0.034l0.019-0.042l-0.009-0.029l-0.072,0.005
	l-0.203,0.068l-0.312,0.063l-0.221,0.083l-0.082-0.015l-0.064-0.057l-0.12-0.173l-0.29-0.607l-0.072-0.075l-0.282-0.17l-0.534-0.469
	l-0.101-0.051l-0.113-0.037l-0.084-0.006l-0.208,0.021l-0.239-0.047l-0.187-0.141l-1.113-1.357l-0.031-0.079l0.022-0.094
	l0.361-0.632l0.039-0.119l-0.052-0.637l-0.039-0.148l-0.396-0.472l0.018-0.144l0.112-0.172l0.011-0.159l-0.024-0.165l0.002-0.19
	l0.102-0.367l0.087-0.184l0.198-0.25l0.081-0.043l0.088,0.01l0.108,0.057l0.029,0.035l0.01,0.041l0.013,0.035l0.042,0.018
	l0.051-0.018l0.058-0.042l0.097-0.086l0.07-0.084l0.095-0.186l0.065-0.086l0.094-0.07l0.206-0.104l0.1-0.069l0.065-0.065
	l0.169-0.226l0.246-0.258l0.051-0.087l0.123-0.369l0.174-0.274l0.064-0.196l0.146-0.254l0.037-0.096l0.058-0.375l-0.003-0.085
	l0.009-0.084l0.037-0.082l0.147-0.169l0.024-0.083l-0.051-0.099l-0.212-0.101l-0.172,0.125l-0.244,0.384l-0.09,0.071l-0.118,0.055
	l-0.119,0.019l-0.202-0.088l-0.124,0.006l-0.121,0.019l-0.094-0.012l-0.037-0.106l0.106-0.136l0.28-0.242l0.093-0.14l0.057-0.161
	l0.014-0.129l0.023-0.199l-0.063-0.435l0.042-0.154l0.045-0.06l0.124-0.118l0.132-0.18l0.014-0.061l-0.024-0.087l0.004-0.106
	l0.064-0.298l-0.014-0.044l-0.086-0.075l-0.026-0.047l-0.007-0.217l-0.019-0.043l-0.023-0.053l-0.127-0.215l-0.018-0.093
	l0.065-0.092l0.124-0.09l0.125-0.065l0.171-0.059l0.097-0.007l0.092-0.023l0.089-0.088l0.128-0.176l0.149-0.165l0.513-0.364
	l0.152-0.147l0.037-0.089l0.023-0.125l-0.014-0.093l-0.074,0.015l-0.077,0.078l-0.201,0.264l-0.09,0.086l-0.091,0.057l-0.059-0.013
	l0.007-0.122l0.057-0.245l0.049-0.123l0.075-0.098l0.168-0.115l0.336-0.175l0.236-0.221l0.072-0.037l0.08,0.005l0.201,0.103
	l0.096,0.009l0.211-0.04l0.43-0.04l0.169-0.072l0.119-0.186l0.09-0.359l0.073-0.177l0.138-0.154l0.047-0.146l0.021-0.222
	l-0.008-0.21l-0.039-0.109l0.013-0.09l-0.016-0.103l-0.308-0.894l-0.025-0.192l0.021-0.299l-0.01-0.021l-0.015-0.032l-0.07-0.025
	l-0.474-0.075l-0.519-0.18l-0.1-0.065l-0.176-0.153l-0.199-0.122l-0.179-0.151l-0.1-0.067l-0.113-0.043l-0.355-0.042l-0.24-0.075
	l-0.179-0.138l-0.116-0.189l-0.051-0.225l0.017-0.121l0.084-0.218v-0.113l-0.14-0.422l-0.052-0.109l-0.049-0.047l-0.19-0.049
	l-0.09-0.04l-0.046-0.01l-0.044,0.019l-0.043,0.03l-0.054,0.024l-0.056,0.013l-0.055,0.001l-0.099-0.047l-0.027-0.085l0.013-0.21
	l-0.054-0.189l0.008-0.162l-0.002-0.038l-0.104-0.126l-0.579-0.22l-0.049-0.091l-0.05-0.09l-0.045-0.196l0.025-0.199l0.113-0.191
	l0.071-0.091l0.085-0.157l0.043-0.036l0.045-0.029l0.037-0.036l0.044-0.091l0.021-0.289l0.105-0.189l0.359-0.22l0.13-0.195
	l0.067-0.442l0.025-0.049l0.107-0.125l0.012-0.071l-0.027-0.065l-0.182-0.32l0.006-0.072l0.086-0.104l0.055-0.108l-0.002-0.124
	l-0.205-1.2l-0.141-0.126l-0.185-0.004l-0.353,0.134l-0.047,0.006l-0.093-0.008l-0.041,0.022l-0.099,0.122l-0.037,0.028
	l-0.104,0.028l-0.105-0.005l-0.1-0.034l-0.087-0.061l-0.258-0.278l-0.114-0.069l-0.039,0.001l-0.039,0.027l-0.068,0.066
	l-0.051,0.029l-0.034,0.008l-0.087-0.012l-0.208-0.065l-0.074,0.021l-0.063,0.234l-0.211,0.22l-0.046,0.071l-0.091,0.099
	l-0.088,0.046l-0.127-0.008l-0.116-0.021l-0.101-0.002l-0.218,0.025l-0.105-0.005l-0.224-0.045l-0.092,0.004l-0.213,0.062
	l-0.091-0.013l-0.026-0.099l-0.014-0.12l-0.064-0.05l-0.082-0.026l-0.069-0.054l-0.013-0.112l0.053-0.14l0.141-0.255l0.116-0.146
	l0.778-0.919l0.146-0.274l0.144-0.133l0.062-0.082l0.19-0.399l0.249-0.375l0.071-0.151l0.214-0.717l0.296-0.674l0.1-0.385
	l-0.104-0.167l-0.052-0.056l0.011-0.057l0.092-0.115l0.046-0.088l0.011-0.082l-0.017-0.083l-0.042-0.093l0.018-0.118l0.063-0.267
	l-0.026-0.112l-0.079-0.073l-0.082-0.025l-0.08-0.038l-0.072-0.108l-0.066-0.208l-0.051-0.067l-0.111-0.07l-0.102-0.039
	l-0.187-0.044l-0.086-0.049l-0.268-0.328l-0.127-0.043l-0.308,0.264l-0.183,0.088l-0.196,0.064l-0.167,0.034l-0.11-0.002
	l-0.118-0.032l-0.101-0.065l-0.06-0.105l0.007-0.086v-0.016l0.044-0.104l0.111-0.186l0.004-0.11l-0.071-0.104l-0.109-0.082
	l-0.105-0.037l-0.121-0.021l-0.07-0.048l-0.033-0.082l-0.074-0.469l0.004-0.233l-0.025-0.096l-0.181-0.419l-0.13-0.163l-0.105-0.172
	l-0.03-0.231l0.063-0.689l0.008-0.084l-0.014-0.065l-0.035-0.063l-0.09-0.102l-0.034-0.066l0,0v-0.001l0,0l-0.008-0.069
	l-0.022-0.055l-0.042-0.032h-0.059l-0.204-0.12l-0.07-0.194l-0.042-0.436l-0.098-0.204l-0.074-0.091l-0.072-0.014l-0.158,0.094
	l-0.364,0.133l-0.157,0.021l-0.123-0.078l-0.089-0.232l-0.063-0.324l-0.048-0.085l-0.089-0.058l-0.081,0.006l-0.086,0.032
	l-0.056,0.013l-0.044,0.01l-0.118-0.028l-0.079-0.07l-0.072-0.079l-0.088-0.052l-0.09,0.006l-0.081,0.052l-0.22,0.207l-0.105,0.063
	l-0.1,0.001l-0.067-0.112l-0.052-0.136l-0.073-0.074l-0.093-0.025l-0.109,0.014l-0.039,0.018l-0.076,0.046l-0.045,0.01l-0.063-0.008
	l-0.043-0.022l-0.038-0.028l-0.05-0.02l-0.082-0.007l-0.302,0.033l-0.102,0.029l-0.22,0.148l-0.094,0.012l-0.164-0.065l-0.099,0.034
	l-0.109,0.112l-0.084,0.122l-0.1,0.105l-0.161,0.063l-0.07,0.044l-0.153,0.13l-0.062,0.031l-0.02-0.005l-0.079-0.02l-0.053-0.085
	l-0.054-0.223l-0.033-0.047l-0.089-0.079l-0.023-0.045l-0.014-0.24l0.011-0.175l-0.005-0.059l-0.03-0.058l-0.089-0.079l-0.02-0.042
	l0.05-0.346l-0.017-0.129l-0.162-0.539l-0.007-0.102l0.014-0.104l0.032-0.125l0.001-0.114l-0.073-0.006l-0.095,0.009l-0.061-0.063
	l-0.041-0.17l-0.033-0.064l-0.057-0.081l-0.12-0.135l-0.02-0.068l0.032-0.091l0.073-0.077l0.27-0.192l0.182-0.073l0.052-0.057
	l0.031-0.076l0.01-0.086l-0.026-0.083l-0.069-0.021l-0.163,0.01l-0.151-0.074l-0.007-0.124l0.12-0.311l0.012-0.089l-0.016-0.083
	l-0.022-0.083l-0.015-0.087l-0.004-0.277l-0.029-0.109v-0.121l0.048-0.211l-0.025-0.105l-0.038-0.03l-0.049-0.002l-0.042-0.012
	l-0.021-0.062v-0.068l0.021-0.133l0.091-0.286l-0.002-0.102l-0.092-0.008l-0.121,0.021l-0.052-0.05l-0.01-0.098l0.021-0.242
	l0.105-0.449l0.082-0.209l0.033-0.217l0.105-0.206l0.021-0.108l-0.069-0.394l0.005-0.272l0.074-0.326l0.118-0.313l0.217-0.359
	l0.16-0.413l0.029-0.149v-0.136l0.027-0.125l0.109-0.117l0.031-0.062l0.002-0.065l-0.014-0.141l0.01-0.087l0.24-0.711l0.076-0.138
	l0.088-0.117l0.035-0.063l0.022-0.069l0.033-0.261l0.109-0.21l0.097-0.318l0.079-0.132l0.083-0.137l0.174-0.635l0.147-0.308
	l0.004-0.007v-0.001l0.002-0.003l0.128-0.271l0.163-0.255l0.108-0.115l0.354-0.272l0.085-0.119l0.1-0.113l0.057-0.13l0.041-0.302
	l-0.027-0.066l-0.15-0.102l-0.052-0.062l-0.015-0.085l0.018-0.08l0.156-0.281l0.015-0.124l-0.057-0.293l-0.036-0.472l-0.031-0.155
	l0.037-0.207l0.036-0.099l0.061-0.076l0.019-0.011l0.02-0.008l0.135-0.031l0.102-0.056l0.013-0.08l-0.134-0.103l-0.028-0.035
	l-0.031-0.022l-0.035-0.006l-0.037,0.008l-0.001-0.104l0.062-0.316l0.015-0.189l0.042-0.063l0.101-0.026l0.142-0.077
	L1258.452,424.331z"/></svg>