<?xml version="1.0" encoding="utf-8"?>
<!-- Generator: Adobe Illustrator 15.0.0, SVG Export Plug-In . SVG Version: 6.00 Build 0)  -->
<!DOCTYPE svg PUBLIC "-//W3C//DTD SVG 1.1//EN" "http://www.w3.org/Graphics/SVG/1.1/DTD/svg11.dtd">
<svg version="1.1" id="Ebene_1" xmlns="http://www.w3.org/2000/svg" xmlns:xlink="http://www.w3.org/1999/xlink" x="0px" y="0px"
	 width="1920px" height="1080px" viewBox="0 0 1920 1080" enable-background="new 0 0 1920 1080" xml:space="preserve">

<path fill="#F4E0B6" stroke="#FFFFFF" d="M1109.849,533.347l0.063,0.022l0.005-0.004l0.055-0.045l0.104-0.004l0.096,0.039
	l0.034,0.084l0.204,0.157l0.11,0.062l0.085,0.002l0.053-0.017l0.124-0.004l0.271-0.088l0.291-0.021l0.398-0.143l0.09-0.076
	l0.081-0.055l0.023-0.036l0.007-0.053l-0.096,0.013l-0.028-0.006l-0.03-0.02l-0.029-0.029l-0.014-0.032l0.051-0.087l-0.04-0.055
	l-0.031-0.056l0.059-0.063l0.05-0.011l0.1,0.007l0.066-0.028l0.049,0.003l0.072,0.02l0.071-0.003l0.046-0.062l-0.005-0.034
	l-0.038-0.079l-0.005-0.042l0.011-0.026l0.018-0.021l0.057-0.041l0.024-0.041l0.062-0.2l0.086-0.101l0.032-0.049l0.012-0.064
	l0.016-0.023l0.061-0.045l0.005-0.02l-0.007-0.034l0.006-0.042l0.016-0.061l0.036-0.068l0.043-0.028l0.047-0.02l0.053-0.036
	l0.018-0.024l0.013-0.031l0.007-0.034l0.004-0.029l0.014-0.032l0.031-0.013l0.038-0.003l0.031-0.008l0.213-0.109l0.446-0.104
	l0.193,0.032l0.042-0.003l0.092,0.017l0.127,0.101l0.108,0.139l0.035,0.13l0.03,0.014l0.021,0.025l0.012,0.032l0.005,0.035l0,0l0,0
	l-0.027,0.011l-0.066,0.046l0.016,0.023l0.073,0.03l0.072,0.049l0.077,0.021l0.091-0.046l-0.018,0.105l0.034,0.125l0.192,0.345
	l0.026,0.073l0.034,0.13l0.026,0.057l0.036,0.063l0.029,0.061l0.004,0.047l0.068,0.07l0.001,0.147l0.078,0.047l0.012,0.058
	l-0.012,0.029l-0.021,0.02l-0.018,0.032v0.083l-0.009,0.031l-0.07,0.005l-0.024,0.024l-0.019,0.034l-0.02,0.024l-0.46,0.415
	l-0.312,0.234l-0.073,0.094l-0.146,0.355l-0.027,0.128l-0.007,0.141l-0.036-0.017l-0.032-0.058l-0.08-0.046l-0.053-0.048
	l0.042-0.063l0.057-0.053l0.065-0.113l0.087-0.095l0.032-0.08l0.006-0.097l-0.038-0.095l-0.045-0.038l-0.066-0.028l-0.132-0.034
	l0.053,0.049l0.022,0.028l0.028,0.041l-0.049,0.017l-0.02,0.053l-0.027,0.034l-0.066-0.037l-0.057-0.062l-0.149-0.223l-0.018-0.09
	l0.094-0.125l-0.002-0.07l-0.047-0.024l-0.164-0.004l-0.044,0.008l-0.079,0.05l-0.101,0.025l-0.023,0.022l0.003,0.026l0.014,0.04
	l0.006,0.045l-0.02,0.032l-0.056,0.042l-0.02,0.028l-0.038,0.157v0.062l0.035,0.089l0.018,0.02l0.036,0.003l0.022,0.021l0.009,0.025
	l-0.007,0.017l-0.008,0.016l0.002,0.015l0.029,0.028l0.037,0.017l0.033,0.007l0.076-0.012l0.213,0.054l-0.01,0.059l-0.009,0.02
	l-0.021,0.02l0.037,0.006l0.015-0.003l0.018,0.028l-0.018,0.043l0.02,0.035l0.044,0.026l0.054,0.009l-0.013,0.036l-0.027,0.029
	l-0.114,0.082l-0.021,0.028l-0.095,0.205l-0.012,0.042l0.008,0.069l0.027,0.052l0.029,0.008l0.02-0.056l0.018,0.052l-0.039,0.049
	l0.022,0.063l0.047,0.055l0.033,0.003l0.123-0.116l0.039-0.079l0.021-0.095l0.009-0.108l-0.086-0.052l0.221-0.061l0.063,0.006
	l0.053,0.057l0.026,0.09l-0.009,0.09l-0.05,0.059l0.008-0.092l-0.004-0.101l-0.032-0.067l-0.083,0.002l0.019,0.029l0.035,0.013
	l0.003,0.016l-0.043,0.045h-0.054l-0.017,0.008l-0.006,0.017v0.025l0.004,0.035l-0.026,0.07l-0.026,0.143l-0.03,0.057l-0.086,0.148
	l-0.016,0.058l-0.008-0.116l-0.017-0.046l-0.043,0.02l-0.029,0.031l-0.008,0.042l0.02,0.054l0.035-0.021l0.008,0.047l0.029,0.024
	l0.04,0.004l0.044-0.008l-0.086,0.1l-0.016,0.063l0.037,0.059v-0.025l0.006-0.03l-0.001-0.02l0.05-0.002l0.054,0.007l0.011,0.064
	l0.027,0.118l0.045,0.116l0.057,0.064l0.026-0.007l0.003-0.042l-0.012-0.052l-0.039-0.1l0.007-0.048l0.03-0.068l0.011-0.161
	l0.013-0.082l0.034-0.052l0.041-0.046l0.012-0.063l-0.01-0.066l-0.02-0.09l0.029,0.084l0.018,0.079l0.041,0.454l-0.063,0.177
	l-0.033,0.48l0.026,0.104l0.021,0.052l-0.051-0.005l-0.03,0.045l-0.016,0.053v0.062l0.014,0.056l0.025,0.056l0.087,0.147l0.04,0.04
	l0.093,0.053l0.111,0.094l0.044,0.052l0.012,0.039l0.034,0.014l-0.05,0.001l-0.026,0.029l-0.007,0.046l0.008,0.046l0.062,0.058
	l0.236,0.279l0.167,0.164l0.016,0.021l0.013,0.035l-0.002,0.052l0.029,0.078l0.032,0.133l0.023,0.057l0.018,0.169l0.01,0.043
	l0.088,0.235l0.006,0.043l0.015,0.042l0.034,0.028l0.01,0.041l0.018,0.041l0.023,0.042l0.028,0.038l0.01,0.045l-0.371,0.268
	l-0.635,0.262l-0.713,0.092l-0.136-0.017l-0.39-0.359l-0.131-0.07h-0.001l-0.138,0.112l-0.12,0.221l-0.148,0.154l-0.195-0.08
	l-0.032-0.013l-0.123-0.082l-0.075,0.016l-0.127,0.148l-0.51,0.322l-0.042-0.003l-0.109-0.062l-0.05-0.01l-0.196,0.02l-0.096-0.031
	l-0.04-0.094l-0.065-0.009h-0.006l-0.062,0.046l-0.076,0.003l-0.318,0.116l-0.271-0.004l-0.043,0.088l-0.296,0.226l-0.162,0.31
	l-0.078,0.088l-0.121,0.073l-0.027,0.026l-0.032,0.067l-0.021,0.022l-0.051,0.039l-0.07,0.087l-0.488,0.405l-0.206,0.168
	l-0.053,0.045l-0.157,0.224l-0.186,0.188l-0.063,0.108l-0.032,0.172l-0.005,0.104l0.015,0.07l-0.183,0.438l0.001,0.061l0.011,0.066
	l-0.031,0.243l-0.053,0.097l-0.035,0.146l0.004,0.019l-0.001,0.145l-0.085,0.116l-0.017,0.011l-0.166,0.105l-0.027,0.063
	l-0.02,0.067l-0.036,0.07l-0.047,0.064l-0.043,0.042l-0.035,0.056l-0.059,0.044l-0.127,0.065l-0.016,0.013l-0.037,0.032
	l-0.084,0.117l-0.053,0.054l-0.129,0.053l-0.135-0.001l-0.137-0.019l-0.012-0.001l-0.123-0.002l-0.128,0.038l-0.371,0.18
	l-0.392,0.068l-0.556,0.376l-0.14,0.054l-0.147,0.024l-0.541,0.084l-0.1,0.042l-0.078,0.085l-0.087,0.206l-0.04,0.041l-0.057,0.036
	l-0.476,0.302l-0.03,0.008l-1.106,0.296l-0.209-0.006l-0.068,0.021l-0.204,0.184l-0.046,0.015l-0.086,0.031l-0.393-0.002
	l-0.455,0.221l-0.23,0.175l-0.074,0.113l-0.085,0.074l-0.063,0.081l-0.21,0.142l-0.352,0.234l-0.097,0.026l-0.104-0.024
	l-0.075-0.054l-0.051-0.089l-0.092-0.327l-0.018-0.105l0.035-0.065l0.053-0.04l0.09-0.097l0.057-0.042l0.066-0.107l-0.019-0.145
	l-0.091-0.106l-0.079,0.007l-0.07,0.003l-0.135,0.052l-0.124,0.012l-0.822-0.09h-0.003l-0.047-0.051l-0.091-0.193l-0.051-0.042
	l-0.066,0.005l-0.124,0.046l-0.132,0.007l-0.138-0.03l-0.129-0.062l-0.11-0.087l-0.02-0.029l-0.026-0.064l-0.019-0.028l-0.026-0.02
	l-0.089-0.024l-0.025-0.026l-0.027-0.052l-0.021-0.056l-0.008-0.044l0.01-0.027l0.021-0.022l0.095-0.057l0.026-0.036l0.003-0.051
	l-0.028-0.072l-0.019-0.073l0.019-0.062l0.047-0.046l0.058-0.028l0.072-0.009l0.137,0.016l0.067-0.019l0.048-0.039l0.045-0.062
	l0.021-0.077l-0.023-0.078l-0.224-0.083l-0.057-0.008l-0.232,0.091l-0.118,0.004l-0.137-0.026l-0.309-0.112l-0.055-0.003
	l-0.056,0.016l-0.069,0.034l-0.017,0.037l-0.038,0.16l-0.036,0.062l-0.1,0.088l-0.023,0.052l0.016,0.072l-0.004,0.742l-0.016,0.058
	l-0.056,0.052l-0.063,0.025l-0.077,0.005l-0.074-0.022l-0.091-0.097l-0.039-0.013l-0.042-0.004l-0.043-0.011l-0.032-0.022
	l-0.036-0.044l-0.02-0.023l-0.021-0.025l-0.179-0.148l-0.042-0.013l-0.097,0.032h-0.321l-0.052,0.014l-0.041,0.037l-0.077,0.099
	l-0.11,0.09l-0.143,0.077l-0.158,0.029l-0.156-0.05l-0.063-0.058l-0.056-0.062l-0.058-0.051l-0.073-0.021l-0.063,0.013l-0.162,0.104
	l-0.25,0.095l-0.057,0.002l-0.104-0.079l-0.07-0.013h-0.002h-0.001l-0.058,0.003l-0.019-0.059l0.002-0.056l0.019-0.052l0.061-0.064
	l0.165-0.076l0.071-0.053l0.096-0.09l0.021-0.055l-0.032-0.08l-0.056-0.052l-0.062-0.016l-0.115,0.013h-0.088l-0.146,0.047
	l-0.088-0.012l-0.014-0.02l-0.007-0.031l-0.02-0.015l-0.048,0.022l-0.042,0.008l-0.024-0.029l-0.008-0.048l0.003-0.042l0.021-0.027
	l0.068-0.042l0.023-0.025l0.019-0.048l-0.002-0.023l-0.013-0.028l-0.019-0.062v-0.02l0.008-0.042l-0.001-0.02l-0.009-0.021
	l-0.016-0.029l-0.014-0.023l-0.008-0.003l0.004-0.044l0.011-0.037l0.021-0.03l0.034-0.02l0.018-0.047l-0.015-0.057l-0.04-0.045
	l-0.042-0.018l-0.113-0.048l-0.102-0.022l-0.101-0.003l-0.343,0.061l-0.119,0.055l-0.06,0.005l-0.126-0.018l-0.074-0.031
	l-0.168-0.092l-0.063-0.012l-0.024,0.022l-0.018,0.073l-0.021,0.026l-0.037,0.009l-0.036-0.011l-0.037-0.015l-0.041-0.009
	l-0.162,0.007l-0.121,0.006l-0.061-0.014l-0.181-0.089l-0.264-0.071l-0.161-0.088l-0.062-0.022l-0.058,0.001l-0.058,0.01
	l-0.055-0.007l-0.046-0.046l0.036-0.083l0.018-0.062l-0.021-0.059l-0.084-0.074l-0.155-0.102l-0.043-0.059l-0.031-0.111
	l-0.007-0.089l-0.007-0.039l-0.021-0.061l-0.111-0.206l-0.015-0.043l-0.008-0.043l-0.019-0.038l-0.043-0.026l-0.044-0.002
	l-0.023,0.028l-0.006,0.048l0.007,0.053l-0.02,0.048l-0.031,0.029l-0.041,0.011l-0.049-0.015l-0.055-0.04l-0.105-0.05l-0.051-0.032
	l-0.02-0.022l-0.011-0.012l-0.048-0.078l-0.027-0.028l-0.031-0.015l-0.064-0.009l-0.029-0.009l-0.178-0.118l-0.065-0.022
	l-0.063,0.005l-0.111,0.041l-0.062,0.001l-0.216-0.064l-0.069-0.008l-0.134,0.004l-0.064-0.011l-0.075-0.042l-0.153-0.156
	l-0.063-0.043l-0.285-0.132l0.037-0.199l0.436-0.232l0.011-0.143l0.125-0.032l0.133-0.007l0.118,0.033l0.037,0.006l0.04-0.004
	l0.021-0.01l0.138-0.111l0.039-0.055l0.019-0.068l-0.007-0.046l-0.004-0.01l-0.023-0.051l-0.001-0.036l0.016-0.019l0.031-0.003
	l0.027-0.01l0.011-0.033l-0.016-0.032l-0.071-0.076l-0.022-0.036l0.001-0.028l0.06-0.146l0.018-0.025l0.021-0.032l0.05-0.044
	l0.056-0.027h0.032l0.071,0.019h0.028l0.025-0.017l0.028-0.044l0.016-0.016l0.055-0.014l0.124-0.007l0.054-0.029l0.019-0.024
	l0.023-0.011h0.027l0.032,0.013l0.077,0.02l0.039-0.044l0.046-0.228l0.012-0.019l0.081-0.041l0.015-0.034l-0.001-0.077l-0.016-0.088
	l-0.083-0.184l-0.019-0.101l0.018-0.077l0.043-0.046l0.112-0.066l0.037-0.081l-0.064-0.077l-0.16-0.114l-0.036-0.085l0.005-0.084
	l0.016-0.084l-0.006-0.09l-0.069-0.158l-0.025-0.084l0.015-0.071l0.051-0.046l0.104-0.042l0.041-0.062l0.017-0.105l-0.01-0.062
	l-0.002-0.019l0.004-0.062l0.066-0.052l0.038-0.058l0.009-0.101l-0.032-0.084l-0.099-0.013l-0.013-0.004l-0.013-0.004l-0.011-0.009
	l-0.011-0.025l-0.006-0.028l-0.004-0.025l0.003-0.025l-0.027-0.19v-0.084l0.027-0.083l0.085-0.077l0.014-0.039l-0.004-0.063
	l-0.023-0.043l-0.032-0.038l-0.028-0.048l-0.021-0.049l-0.004-0.013l0.011-0.01l0.067-0.167l0.007-0.041l-0.054-0.224l0.008-0.01
	l-0.003-0.003l-0.05-0.034l-0.026-0.007l-0.028,0.008l-0.029,0.001l-0.019-0.019l-0.01-0.011l0.037-0.183l0.028-0.089l0.085-0.158
	l0.023-0.083v-0.045l-0.023-0.077l-0.009-0.042l0.005-0.052l0.029-0.088l0.005-0.045l-0.011-0.057l-0.02-0.037l-0.026-0.034
	l-0.024-0.046l-0.012-0.051l-0.001-0.074l-0.005-0.045l-0.047-0.16l-0.009-0.054l0.021-0.208l0.02-0.082l0.032-0.054l0.099-0.098
	l-0.006-0.139l-0.076-0.132l-0.097-0.127l-0.074-0.121l-0.003-0.123l0.032-0.13l0.097-0.213l0.111-0.102l0.01-0.02l0.012-0.027
	l-0.002-0.038l-0.002-0.004l-0.01-0.029l-0.016-0.03l-0.006-0.03l0.015-0.132l-0.011-0.038l-0.03-0.078l-0.007-0.035l0.007-0.035
	l0.026-0.057l0.009-0.031l0.011-0.121l0.012-0.048l0.034-0.055l0.038-0.042l0.031-0.021l0.132-0.046l0.036-0.024l0.028-0.034
	l0.013-0.045l-0.042-0.181l0.071-0.063l0.252,0.001l0.1-0.034l0.092-0.069l0.073-0.094l0.039-0.11l0.018-0.122l0.018-0.043
	l0.04-0.053l0.054-0.038l0.01-0.018l-0.002-0.058l-0.021-0.027l-0.027-0.02l-0.02-0.032l-0.001-0.07l0.025-0.052l0.083-0.097
	l0.021-0.064l-0.004-0.16l0.015-0.076l0.044-0.046l0.029-0.057l-0.007-0.066l-0.067-0.069l-0.005-0.06l0.039-0.024l0.058-0.004
	l0.057,0.007l0.055,0.004l0.051-0.01l0.038-0.029l0.062-0.151l-0.002-0.088l-0.045-0.217l0.007-0.109l0.039-0.055l0.063-0.024
	l0.218-0.035l0.063,0.01l0.181,0.073l0.185,0.041l0.099,0.039l0.023-0.003l0.021-0.008l0.019-0.013l0.017-0.019l0.003-0.004
	l0.003-0.001l0.005-0.002h0.004l0.218-0.007l0.053-0.033l0.005-0.013l0.004-0.011l0.005-0.027l0.001-0.03l-0.004-0.033l0.014-0.04
	l0.025-0.025l0.087-0.072l0.059-0.01l0.179-0.073l0.129-0.022l0.064-0.024l0.176-0.111l0.055-0.001l0.207,0.054l0.053,0.05
	l0.055-0.032l0.199-0.256l0.085-0.042l0.06,0.008l0.15-0.037l0.064-0.004l0.147,0.04l0.052-0.017l0.002-0.005l0.187-0.026
	l0.059-0.029l0.123-0.188l0.125-0.077l0.05-0.147l0.041-0.068l0.048-0.03l0.169-0.047l0.145-0.085l0.06-0.016l0.027,0.001
	l0.135,0.003l0.097,0.017l0.07,0.029l0.053,0.053l0.032,0.051l0.04,0.042l0.076,0.028l0.12,0.006l0.257-0.035l0.058,0.013
	l0.059,0.027l0.181,0.111l0.116,0.062l0.068,0.006l0.074-0.064l0.031-0.026l0.175-0.147l0.119-0.166v-0.001v-0.001l0.046-0.169
	l0.004-0.571l0.064-0.143l1.178-0.881l0.128-0.17l0.124-0.098l0.057-0.082l0.038-0.034l0.13-0.06l0.133-0.147l0.187-0.114
	l0.059-0.036l0.087-0.129l0.001-0.055l-0.023-0.167l0.007-0.061l0.032-0.098l0.009-0.055l-0.011-0.107l-0.031-0.147l-0.047-0.14
	l-0.056-0.087l-0.059-0.141l0.026-0.003l0.05-0.023l0.034-0.041l0.059-0.094l0.037-0.038l0.115-0.078l0.037-0.036l0.274-0.268
	l0.056-0.085l0.086-0.133l0.055-0.038l0.091,0.018l0.03-0.01l0.003-0.06l0.062,0.042l0.058-0.019l0.091-0.085l0.058-0.004
	l0.103,0.04l0.016-0.034l0.176,0.047l0.033,0.02l0.051,0.06l0.016-0.028l0.003-0.062l0.01-0.036l0.049,0.009l0.04,0.037l0.043,0.029
	l0.109-0.02l0.021,0.034l-0.012,0.047l-0.048,0.034l0.016,0.024l0.094,0.001l0.058-0.012l0.016-0.046l0.028-0.003l0.035,0.005
	l0.025,0.012l0.002,0.003l0.01,0.02l-0.006,0.052l0.008,0.026l0.077,0.084l0.089,0.047l0.095,0.02l0.091-0.001l0.018,0.029
	l-0.037,0.056l0.012,0.016l0.013,0.012l0.013,0.01l0.014,0.007l0.046-0.07l0.064,0.03l0.056,0.038l0.021-0.041l0.05,0.017
	l0.025,0.034l0.003,0.045l-0.012,0.046l0.078,0.012l0.021-0.001l0.006,0.007l0.009,0.017l-0.006,0.09l0.05,0.019l0.077-0.002
	l0.081,0.029l0.008,0.019l0.078,0.118l0.013,0.025l0.038,0.004l0.037-0.009l0.035-0.003l0.04,0.021l-0.053,0.109l0.046,0.007
	l0.068,0.035l0.065,0.042l0.031,0.025l0.021,0.011l0.065,0.006l0.021,0.005l0.006,0.005l0.027,0.028l0.021,0.044l0.03,0.02
	l0.016,0.024l-0.051,0.048l0.075,0.071l0.121,0.067l0.303,0.124l0.116,0.031l0.099-0.019l0.011,0.009l0.018,0.018l0.041,0.042
	l0.023,0.02l0.012,0.011l0.021,0.036l0.017,0.014l0.013,0.001l0.031-0.014l0.008-0.001l0.081,0.093l0.053,0.046l0.042,0.009
	l0.024-0.012h0.018l0.015,0.004l0.021-0.002l0.066-0.038l0.003-0.005l0.043-0.007l0.053-0.001l0.052,0.01l0.04,0.027l-0.01,0.03
	l0.005,0.039l0.014,0.045l0.021,0.051l0.068,0.013l0.055,0.132l0.05,0.002l0.01,0.002l0.045,0.008l0.154,0.113l0.068,0.038
	l0.026-0.002l0.078-0.028l0.038,0.001l0.029,0.005h0.028l0.074-0.023l0.045,0.013l0.109,0.061l0.026,0.05l0.058,0.032l0.116,0.044
	l0.097,0.086l0.005-0.001l0.025,0.027l0.022,0.018l0.006,0.019l-0.023,0.028l0.057,0.024l0.149-0.007l0.016,0.026l0.002,0.038
	l0.019,0.004l0.029-0.007l0.035,0.002l0.134,0.041l0.102,0.003l0.051,0.01l0.035,0.055l0.069-0.027l0.085,0.001l0.071-0.008
	l0.035-0.058l0.063,0.049l0.005,0.002l0.143,0.054l0.076,0.043l0.137,0.109l0.042,0.052l0.007,0.009l0.015,0.072l0.062,0.003
	l0.028,0.042l0.026,0.048l0.052,0.02l0.018,0.029l0.023,0.048l0.017,0.032l0.109,0.082l0.217,0.117l0.044,0.072l0.329,0.206
	l0.091,0.087l0.011,0.013l0.031,0.037l0.032,0.053l0.009,0.052l0.004,0.064l0.021,0.063l0.062,0.049l-0.013,0.032l0.008,0.035
	l0.085,0.147l0.023,0.027l0.076,0.046l0.016,0.003l0.009-0.01l0.011-0.002l0.024,0.029l0.074,0.12l0.016,0.033l0.004,0.039
	l-0.025,0.042l0.052,0.04l0.001,0.029l-0.003,0.005l-0.014,0.021l-0.006,0.029l0.058,0.126l-0.002,0.024l-0.024,0.031l0.011,0.032
	l0.059,0.071l0.032,0.045l0.004,0.016l0.015,0.101l-0.013,0.051l-0.016,0.029l-0.023,0.028l-0.017,0.03l0.005,0.033l0.05,0.06
	l0.007,0.025l-0.024,0.026l-0.021,0.034l0.024,0.029l0.098,0.05l0.03,0.012l0.032,0.017l0.028,0.028l0.026,0.108l0.042,0.104
	l0.037,0.158l0.005,0.024l0.017,0.065l-0.013,0.027l0.005,0.024l0.014,0.02l0.022,0.003l0.014,0.018l0.051,0.155l0.02,0.041
	l0.042,0.048l0.183,0.151l0.03,0.041l0.021,0.018l0.032,0.017l0.029,0.024l0.013,0.032l0.007,0.036l0.016,0.032l0.025,0.024
	l0.054,0.034l0.014,0.011l0.004,0.023l-0.018,0.048l0.001,0.026l0.075,0.106l0.112,0.091l0.103,0.062l0.045,0.021l0.26,0.369
	l0.033,0.064l0.047,0.039l-0.026,0.042l-0.086,0.053l-0.026,0.035l-0.023,0.06l-0.017,0.069l-0.006,0.064l0.194-0.012l0.09,0.008
	l0.094,0.055l0.024,0.017l0.013,0.004l0.009,0.005l0.081,0.127l0.042,0.028L1109.849,533.347z"/></svg>