<?xml version="1.0" encoding="utf-8"?>
<!-- Generator: Adobe Illustrator 15.0.0, SVG Export Plug-In . SVG Version: 6.00 Build 0)  -->
<!DOCTYPE svg PUBLIC "-//W3C//DTD SVG 1.1//EN" "http://www.w3.org/Graphics/SVG/1.1/DTD/svg11.dtd">
<svg version="1.1" id="Ebene_1" xmlns="http://www.w3.org/2000/svg" xmlns:xlink="http://www.w3.org/1999/xlink" x="0px" y="0px"
	 width="1920px" height="1080px" viewBox="0 0 1920 1080" enable-background="new 0 0 1920 1080" xml:space="preserve">

<path fill="#F4E0B6" stroke="#FFFFFF" d="M1087.301,531.037l0.068-0.022l0.004-0.002l0,0l0.002-0.001l0.01-0.042l0.067-0.081
	l0.095-0.036l0.12-0.002l0.027,0.142l0.034,0.064l0.07-0.042l0.019-0.007l0.039,0.024l0.021,0.039l0.019,0.049l0.032,0.055
	l0.072,0.067l0.238,0.135l0.027,0.01l0.021-0.006l0.017-0.017l0.012-0.028l0.008-0.011l0.01-0.007l0.013-0.004l0.063-0.006
	l0.046-0.013l0.04-0.025l0.035-0.053l0.011-0.009l0.012-0.002h0.014l0.338,0.158l0.08,0.064l0.105,0.108l0.097,0.071l0.022,0.007
	l0.007-0.001l0.024-0.039l0.188-0.101l0.04-0.042l0.028-0.053l0.038-0.037l0.058,0.005l0.02,0.013l0.124,0.004l0.118,0.032
	l0.06,0.026l0.057,0.041l0.06,0.066l0.014,0.046l0.004,0.048l0.029,0.064l-0.014,0.082l0.049,0.036l0.14,0.028l-0.015,0.076
	l0.004,0.16l-0.021,0.064l-0.083,0.097l-0.025,0.052l0.001,0.07l0.02,0.032l0.027,0.02l0.021,0.027l0.002,0.058l-0.01,0.018
	l-0.054,0.038l-0.04,0.053l-0.018,0.043l-0.018,0.122l-0.039,0.11l-0.073,0.094l-0.092,0.069l-0.1,0.034l-0.252-0.001l-0.071,0.063
	l0.042,0.181l-0.013,0.045l-0.028,0.034l-0.036,0.024l-0.132,0.046l-0.031,0.021l-0.038,0.042l-0.034,0.055l-0.012,0.048
	l-0.011,0.121l-0.009,0.031l-0.026,0.057l-0.007,0.035l0.007,0.035l0.03,0.078l0.011,0.038l-0.015,0.132l0.006,0.03l0.016,0.03
	l0.01,0.029l0.002,0.004l0.002,0.038l-0.012,0.027l-0.01,0.02l-0.111,0.102l-0.097,0.213l-0.032,0.13l0.003,0.123l0.074,0.121
	l0.097,0.127l0.076,0.132l0.006,0.139l-0.099,0.098l-0.032,0.054l-0.02,0.082l-0.021,0.208l0.009,0.054l0.047,0.16l0.005,0.045
	l0.001,0.074l0.012,0.051l0.024,0.046l0.026,0.034l0.02,0.037l0.011,0.057l-0.005,0.045l-0.029,0.088l-0.005,0.052l0.009,0.042
	l0.023,0.077v0.045l-0.023,0.083l-0.085,0.158l-0.028,0.089l-0.037,0.183l0.01,0.011l0.019,0.019l0.029-0.001l0.028-0.008
	l0.026,0.007l0.05,0.034l0.003,0.003l-0.008,0.01l0.054,0.224l-0.007,0.041l-0.067,0.167l-0.011,0.01l0.004,0.013l0.021,0.049
	l0.028,0.048l0.032,0.038l0.023,0.043l0.004,0.063l-0.014,0.039l-0.085,0.077l-0.027,0.083v0.084l0.027,0.19l-0.003,0.025
	l0.004,0.025l0.006,0.028l0.011,0.025l0.011,0.009l0.013,0.004l0.013,0.004l0.099,0.013l0.032,0.084l-0.009,0.101l-0.038,0.058
	l-0.066,0.052l-0.004,0.062l0.002,0.019l0.01,0.062l-0.017,0.105l-0.041,0.062l-0.104,0.042l-0.051,0.046l-0.015,0.071l0.025,0.084
	l0.069,0.158l0.006,0.09l-0.016,0.084l-0.005,0.084l0.036,0.085l0.16,0.114l0.064,0.077l-0.037,0.081l-0.112,0.066l-0.043,0.046
	l-0.018,0.077l0.019,0.101l0.083,0.184l0.016,0.088l0.001,0.077l-0.015,0.034l-0.081,0.041l-0.012,0.019l-0.046,0.228l-0.039,0.044
	l-0.077-0.02l-0.032-0.013h-0.027l-0.023,0.011l-0.019,0.024l-0.054,0.029l-0.124,0.007l-0.055,0.014l-0.016,0.016l-0.028,0.044
	l-0.025,0.017h-0.028l-0.071-0.019h-0.032l-0.056,0.027l-0.05,0.044l-0.021,0.032l-0.018,0.025l-0.06,0.146l-0.001,0.028
	l0.022,0.036l0.071,0.076l0.016,0.032l-0.011,0.033l-0.027,0.01l-0.031,0.003l-0.016,0.019l0.001,0.036l0.023,0.051l0.004,0.01
	l0.007,0.046l-0.019,0.068l-0.039,0.055l-0.138,0.111l-0.021,0.01l-0.04,0.004l-0.037-0.006l-0.118-0.033l-0.133,0.007l-0.125,0.032
	l-0.011,0.143l-0.436,0.232l-0.037,0.199l-0.218-0.055l-0.06,0.004l-0.051,0.067l-0.02,0.013l-0.026-0.001l-0.049-0.025
	l-0.021-0.004l-0.051,0.011l-0.024,0.017l-0.052,0.07l-0.074,0.048l-0.148-0.009l-0.185,0.07l-0.099,0.08l-0.032,0.037l-0.182,0.21
	l-0.053,0.013l-0.225-0.024l-0.079-0.01l-0.068,0.008l-0.06,0.026l-0.145,0.111l-0.061,0.026l-0.047,0.033l-0.053,0.066
	l-0.042,0.074l-0.017,0.064l0.022,0.03l0.039,0.027l0.023,0.03l-0.053,0.074l-0.006,0.038l0.001,0.036l-0.005,0.038l-0.028,0.062
	l-0.018,0.02l-0.029,0.021l-0.025,0.033l-0.006,0.046l-0.001,0.051l-0.013,0.045l-0.037,0.038l-0.102,0.05l-0.046,0.037
	l-0.015,0.029l-0.021,0.04l0.005,0.06l0.012,0.054l-0.01,0.057l-0.07,0.053l-0.257,0.093l-0.081-0.007v-0.002l-0.081-0.059
	l-0.073,0.007l-0.051,0.06l-0.006,0.097l0.057,0.12l-0.043,0.038l-0.075,0.022l-0.042,0.079l-0.002,0.019l0.004,0.017l0.012,0.013
	l0.038,0.025l0.015,0.014l0.004,0.015l-0.013,0.017h-0.065l-0.178,0.068l-0.039,0.024l-0.013,0.044l-0.021,0.032l-0.048,0.044
	l-0.031,0.056l-0.016,0.009l-0.013,0.006l-0.053-0.016l-0.007,0.058l0.006,0.042l0.001,0.033l-0.021,0.031l-0.036,0.011l-0.14-0.006
	l-0.162,0.019l-0.047,0.036l-0.032,0.093v0.025l0.016,0.052l0.004,0.029l-0.003,0.003l-0.018,0.067l-0.002,0.148l-0.013,0.058
	l-0.07,0.162l-0.06,0.062h-0.077l-0.031,0.052l-0.036,0.168l-0.033,0.067l-0.019,0.016l-0.018,0.011l-0.021,0.008l-0.021,0.002l0,0
	l-0.077-0.037l-0.046,0.02l-0.033,0.047l-0.039,0.043l-0.058,0.004l-0.073-0.031l-0.065,0.029l-0.118-0.024l-0.061,0.007
	l-0.229,0.109l-0.022,0.02l-0.03,0.058l-0.024,0.026l-0.033,0.016l-0.337,0.055l-0.194,0.089l-0.046,0.022l-0.02,0.027l0.002,0.037
	l-0.002,0.037l-0.03,0.021l-0.009-0.015l-0.102-0.071l-0.111-0.021l-0.395,0.051l-0.065,0.025l-0.031-0.005l-0.019-0.025
	l-0.015-0.02l-0.025-0.045l-0.044-0.053l-0.02-0.032l-0.039-0.028l-0.201-0.081h-0.126l-0.132,0.031l-0.247,0.097l-0.017,0.026
	l-0.001,0.017l-0.005,0.019l-0.01,0.02l-0.05-0.058h-0.036l-0.055,0.056l-0.055,0.029l-0.014-0.008l-0.014-0.038l-0.05-0.062
	l-0.006,0.064l-0.032,0.007l-0.041-0.013l-0.007-0.003l-0.049,0.005l-0.014-0.027l0.017-0.014l0.028-0.032l0.019-0.013l-0.042-0.025
	l-0.049,0.015l-0.053,0.004l-0.052-0.059l-0.027-0.038l-0.097-0.115l-0.034-0.032l-0.184-0.097l-0.041-0.004l-0.232,0.096
	l-0.052-0.002l-0.186-0.042l-0.051-0.021l-0.035-0.038l-0.037-0.02l-0.208-0.056l-0.044-0.024l-0.132-0.1l-0.165-0.078l-0.028-0.009
	l-0.031-0.015l-0.065-0.069l-0.052-0.052l-0.021-0.068l-0.059-0.055l-0.027-0.016l-0.042-0.022l-0.053-0.021l-0.016,0.007
	l0.004,0.021l-0.002,0.019l-0.026-0.008l-0.02-0.012l-0.018-0.007l-0.018-0.004h-0.016l-0.084,0.017l-0.025-0.005l0.006,0.069
	l-0.02,0.008l-0.069-0.059l-0.11-0.016l-0.086-0.046l-0.082-0.058l-0.081-0.04l-0.081-0.015l-0.081,0.017l-0.033-0.005l-0.025,0.007
	l-0.01,0.021l0.004,0.042l-0.017,0.009l-0.055-0.021l-0.158-0.021l-0.023-0.008l-0.123-0.159l-0.134-0.038l-0.181-0.119
	l-0.128-0.016l-0.07-0.02l-0.026-0.023l-0.023-0.023l0.008-0.051l0.042-0.051l0.009-0.022l0.012-0.032l-0.052-0.071l-0.056-0.008
	l-0.054,0.018h-0.018h-0.003h-0.027l-0.032-0.068l-0.036,0.025l-0.041-0.021l-0.047-0.035l-0.05-0.027l-0.095-0.103l-0.014-0.013
	l-0.002-0.017l-0.008-0.033l0.005-0.055l0.003-0.024l-0.003-0.053l-0.007-0.06l-0.012-0.037l-0.021-0.016l-0.042,0.016l-0.031-0.003
	l-0.021-0.01l-0.066-0.035l-0.037-0.004l-0.25,0.136l-0.119,0.064l-0.017,0.003l-0.114,0.018l0.036-0.039l0.02-0.05l0.038-0.186
	l0.017-0.048l0.048-0.084l0.047-0.05l0.012-0.024l0.006-0.037l-0.01-0.027l-0.015-0.021l-0.003-0.029l0.016-0.037l0.026-0.018
	l0.013-0.028l-0.017-0.068l0.006-0.058l0.035-0.021l0.116-0.024l0.107-0.063l0.063-0.019l0.065,0.016l0.021,0.005l0.016-0.003
	l0.012-0.01l0.007-0.016v-0.002l0.043-0.029l0.072-0.032l0.047-0.036l-0.033-0.039l-0.058-0.02l-0.046,0.004l-0.085,0.025
	l0.02-0.048l0.103-0.105l0.022-0.034v-0.027l-0.02-0.017l-0.042-0.003l-0.064,0.006l-0.047-0.045l-0.01-0.068l0.042-0.063
	l0.024-0.111l-0.01-0.055l-0.057-0.035l-0.048,0.016l-0.074,0.086l-0.049-0.008l-0.01-0.023l-0.011-0.08l-0.017-0.035l-0.032-0.02
	l-0.023,0.008l-0.021,0.012l-0.024-0.007l-0.042-0.063l0.001-0.109l-0.043-0.068l0,0l0,0l0.064-0.086l0.023-0.054L1074.3,543
	l-0.043-0.064l-0.169-0.142l-0.01-0.005h-0.016l-0.016-0.001l-0.016-0.013l-0.009-0.025l0.007-0.017l0.01-0.013l0.001-0.016
	l-0.081-0.154l0.004-0.065l0.031-0.023l0.049,0.008l0.059,0.041l0.235-0.269l0.065-0.128l0.025-0.048l-0.09-0.161l0.016-0.049
	l0.064-0.07l0.005-0.065l-0.026-0.064l-0.046-0.042l-0.057-0.022l-0.06-0.007l-0.022-0.086l-0.063-0.074l-0.079-0.045l-0.073-0.001
	l-0.085,0.056l-0.218,0.006l-0.068,0.051l-0.186,0.004l-0.064-0.007l0.01-0.042l0.01-0.087l0.011-0.029l0.026,0.013l0.02,0.007
	l0.014-0.003l0.014-0.02l0.02-0.045l0.083-0.106l0.013-0.032l-0.001-0.042l-0.031-0.054l-0.002-0.047l0.081-0.091l0.123-0.037
	l0.263-0.01l0.047,0.01l0.031,0.031l0.03,0.038l0.042,0.034l0.048,0.02l0.037,0.006l0.168-0.045l0.021-0.017l0.017-0.043
	l0.014-0.112l0.021-0.046l0.092,0.09l0.114-0.028l0.193-0.151l0.188-0.117l0.044-0.052l-0.04-0.005l-0.039-0.021l-0.033-0.035
	l-0.069-0.133l-0.058-0.075l-0.038-0.07l0.02-0.064l-0.03-0.017l-0.063-0.066l-0.028-0.007l-0.071-0.001l-0.027-0.011l-0.021-0.045
	l0.026-0.034l0.085-0.064l0.028-0.055l0.008-0.055l-0.01-0.06l-0.024-0.08l-0.009-0.006l-0.017,0.001l-0.019-0.001l-0.011-0.017
	l0.002-0.016l0.017-0.029l0.003-0.008l-0.01-0.04l0.001-0.032l-0.011-0.025l-0.046-0.022l0.104-0.221l0.072-0.108l0.108-0.022
	l0.129-0.018l0.032-0.004l0.192-0.053l0.121,0.034l0.464,0.253l0.039,0.013h0.035l0.076-0.016l0.033,0.004l0.16,0.099l0.05,0.02
	l0.028-0.016l0.021-0.025l0.029-0.019l0.05,0.001l0.077,0.016l0.074,0.026l0.042,0.032l0.044,0.018l0.147,0.011l0.079,0.006
	l0.26-0.041l0.154-0.084l0.607-0.33l0.354-0.12l0.097-0.058l0.164-0.178l0.524-0.328l0.127-0.048l0.121-0.003l0.089-0.022
	l0.076-0.045l0.045-0.073l0.039-0.147l0.028-0.058l0.054-0.046l0.056-0.055l0.003-0.004l-0.143-0.028l-0.119-0.042l-0.055-0.067
	l-0.036-0.089l-0.057-0.182l-0.033-0.043l-0.026-0.007l-0.011-0.012l0.013-0.062l0.018-0.026l0.049-0.034l0.014-0.035l-0.003-0.188
	l0.027-0.062l0.229-0.179l0.115-0.091l0.031-0.039l0.063-0.025l0.054-0.022l0.149-0.102l0.356-0.118l0.025-0.021l0.109-0.182
	l0.367-0.167l0.091-0.174l-0.006-0.024l-0.01-0.021l-0.012-0.021l-0.017-0.021l-0.002-0.003l-0.002-0.001v-0.002v-0.003
	l-0.001-0.079l-0.055-0.171v-0.074l0.032-0.049l0.212-0.187l0.03-0.014l0.031-0.004l0.043,0.011l0.096,0.045l0.034,0.001
	l0.112-0.084l0.067-0.02l0.077,0.035l0.021,0.039l0.003,0.042l0.012,0.038l0.044,0.026l0.027-0.01l0.077-0.084l0.077-0.011
	l0.15,0.045l0.065-0.006l0.052-0.056l0.063-0.174l0.042-0.07l0.084-0.081l0.006-0.01l0.072-0.119l0.041-0.046l0.013-0.027
	l0.001-0.046l-0.023-0.081l-0.004-0.034l0.013-0.057l0.021-0.016l0.033-0.003l0.049-0.018l0.034-0.043l0.042-0.115l0.023-0.028
	h0.067l0.047,0.02l0.039-0.001l0.045-0.063l0.037-0.118l0.012-0.137l-0.005-0.145l-0.063-0.375l-0.002-0.077l0.011-0.074
	l0.036-0.128l0.003-0.01l0.008-0.071l-0.005-0.016l-0.007-0.015l-0.009-0.014l-0.009-0.014l-0.041-0.069l-0.018-0.034l-0.013-0.032
	l0.061-0.07l0.158-0.093l0.491-0.413l0.042-0.022l0.053,0.001l0.115,0.032l0.045-0.008l0.087-0.034l0.192,0.018l0.098-0.039
	l0.063-0.039l0.085-0.025l0.092-0.004l0.081,0.027l0.075-0.018l0.152-0.203l0.076-0.064l0.06-0.004l0.047,0.013l0.037-0.003
	l0.026-0.042l0.008-0.06l-0.009-0.052l0.003-0.049l0.034-0.057l0.04-0.031l0.089-0.049l0.111-0.113l0.046-0.009l0.117,0.009
	l0.058-0.006l0.033,0.01l0.036,0.025l0.065,0.066l0.033,0.02l0.052-0.003l0.096-0.05l0.051-0.013l0.047,0.034l0.124,0.15
	l0.044,0.031l0.271,0.156l0.102,0.041l0.098,0.017l0.098-0.013l0.076-0.05l0.098-0.142l0.104-0.076l0.057-0.089l0.029-0.035
	l0.133-0.08l0.039-0.042l0.047-0.028l0.165-0.066l0.041-0.042l0.024-0.06L1087.301,531.037z"/></svg>