<?xml version="1.0" encoding="utf-8"?>
<!-- Generator: Adobe Illustrator 15.0.0, SVG Export Plug-In . SVG Version: 6.00 Build 0)  -->
<!DOCTYPE svg PUBLIC "-//W3C//DTD SVG 1.1//EN" "http://www.w3.org/Graphics/SVG/1.1/DTD/svg11.dtd">
<svg version="1.1" id="Ebene_1" xmlns="http://www.w3.org/2000/svg" xmlns:xlink="http://www.w3.org/1999/xlink" x="0px" y="0px"
	 width="1920px" height="1080px" viewBox="0 0 1920 1080" enable-background="new 0 0 1920 1080" xml:space="preserve">

<path fill="#F4E0B6" stroke="#FFFFFF" d="M1058.106,483.041l-0.005,0.03l-0.064,0.005l-0.04-0.01l-0.024-0.01l-0.037-0.041
	l-0.002-0.049l0.021-0.029l0.027-0.016l0.035,0.021l0.046,0.053L1058.106,483.041z M1058.184,482.793l-0.023,0.024l-0.031,0.011
	l0.004,0.008l0.046,0.011l0.038,0.037l-0.006,0.033l-0.144-0.013l-0.047-0.02l-0.023-0.019l0.001-0.007v-0.023l0.021-0.038
	l0.109-0.019l0.024-0.012l0.018,0.003L1058.184,482.793z M1056.877,483.136l-0.07,0.115l-0.07,0.03l-0.057,0.037l-0.023,0.029
	l0.029,0.07l-0.013,0.059l-0.06,0l-0.05-0.082l-0.01-0.125l0.031-0.138l0.056-0.012l0.097,0.003l0.094-0.021L1056.877,483.136z
	 M1057.016,482.695l0.016,0.011l0.012,0.018l0.011,0.001l0.012-0.017l0.016-0.003l0.018,0.017l0.01,0.011l0.009,0.004h0.015
	l-0.004,0.008l-0.022,0.019l-0.002,0.005l0.023,0.008l0.017,0.026l0.011,0.037l-0.005,0.041l-0.001,0.047l-0.018,0.017l-0.088-0.029
	l-0.004,0.015l0.004,0.04l-0.017,0.034l-0.037,0.01l-0.039-0.019l-0.017-0.059l-0.004-0.14l0.011-0.05l0.025-0.02l0.023-0.007
	l0.012-0.019L1057.016,482.695z M1056.772,483.011l-0.056,0.048l-0.042-0.019l-0.002-0.071l0.01-0.09l0.029-0.072l0.024-0.022
	l0.04,0.137L1056.772,483.011z M1056.918,482.837l-0.025,0.05l-0.074,0.007l-0.042-0.073l0.026-0.043l0.068-0.046l0.004-0.007
	l-0.021,0.003l-0.005-0.019l0.024-0.031l0.025,0.004l0.003,0.038l-0.003,0.044l0.012,0.046L1056.918,482.837z M1055.889,483.025
	l0.081,0.008l0.07-0.039l0.117,0.074l0.115,0.118l0.071,0.089l0.029,0.041l0.005,0.081l-0.018,0.094l-0.015,0.036l-0.032-0.109
	l-0.041-0.014l-0.029,0.047l-0.052,0.048l-0.058-0.018l0.004-0.053l-0.017-0.057l-0.065-0.037l-0.057,0.027l-0.069-0.032
	l-0.079,0.019l-0.033-0.108l0.054-0.078L1055.889,483.025z M1056.14,482.762l0.057,0.041l-0.013-0.055l-0.072-0.084l-0.011-0.035
	l0.056-0.007l0.093,0.077l0.017,0.098l0.008,0.099l0.065,0.082l-0.011,0.04l-0.02-0.002l-0.029-0.021l-0.034-0.017l-0.096-0.009
	l-0.025-0.012l-0.048-0.074l-0.024-0.082l-0.015-0.083l-0.019-0.072L1056.14,482.762z M1057.104,482.354l-0.021,0.015l-0.05-0.015
	l-0.074-0.055l-0.037-0.055l0.005-0.034l0.016-0.02l0.018,0.001l0.03,0.013l0.044,0.029l0.022,0.024l0.017,0.016l0.027,0.042
	L1057.104,482.354z M1056.941,481.909l-0.031,0.045l-0.047-0.005l-0.027-0.021l-0.029-0.052l-0.016-0.054l0.027-0.029l0.074,0.03
	l0.044,0.031L1056.941,481.909z M1054.705,482.987l0.022,0.026l0.02,0.027l0.045,0.083l0.014,0.042l-0.015,0.014l-0.021,0.005
	l-0.013,0.015l-0.054-0.031l-0.102-0.081l-0.062-0.025l0.057,0.072l0.047,0.071l0.027,0.073v0.081l-0.029,0.045l-0.056-0.002
	l-0.072-0.048l-0.073-0.09l-0.027-0.039l-0.012-0.022v-0.022l0.013-0.041l-0.003-0.042l-0.023-0.047l-0.031-0.049l-0.02-0.05v-0.027
	l0.01-0.075l0.002-0.036l0.011-0.037l0.033-0.014l0.04,0.002l0.067,0.029l0.029,0.023l0.029,0.037l0.027,0.048l0.025,0.032
	l0.063,0.033L1054.705,482.987z M1056.066,481.92l0.093,0.016l0.021-0.047l0.022,0.009l0.02,0.015l0.017,0.024l0.02,0.035
	l0.014,0.277l-0.03,0.002l-0.013-0.023l-0.007-0.036l-0.015-0.032l-0.009-0.023l-0.026-0.052l-0.029-0.031l-0.035,0.087
	l-0.038-0.034l-0.033-0.073l-0.006-0.072L1056.066,481.92z M1057.108,481.551l-0.027,0.027l-0.028,0.009l0.049,0.053l-0.078-0.001
	l-0.081-0.107l-0.042-0.113l0.039-0.018l0.034,0.013l0.093,0.018l0.025,0.015l0.024,0.059L1057.108,481.551z M1056.781,481.241
	l-0.045,0.105l-0.021-0.001l-0.018-0.03l-0.009-0.017l-0.019-0.04l-0.006-0.027l-0.009-0.059l-0.002-0.02l0.002-0.018l-0.006-0.032
	l-0.009-0.028l0.012-0.015l0.029-0.006l0.033,0.009l0.033,0.038l0.02,0.05l0.014,0.047V481.241z M1054.831,481.917l0.053,0.056
	l0.08-0.066l0.067-0.003l0.076,0.023l0.066,0.041l-0.066-0.086l-0.028-0.03l0.036-0.006l0.096,0.012l0.018-0.018l0.016-0.029
	l0.037,0.012l0.085,0.053l0.138,0l0.057,0.036l0.039,0.134l0.023-0.035l0.005-0.019l0.05,0.016l0.056,0.002l0.093-0.027l0.006,0.193
	l0.016,0.068l-0.039,0.063l0.063,0.055l0.03,0.019l-0.016,0.025l-0.02,0.011l-0.015,0.017l-0.006,0.036l0.004,0.035l0.015,0.074
	l0.001,0.02l-0.02,0.027l-0.023-0.005l-0.024-0.012h-0.028l-0.091,0.042l-0.032-0.019l-0.028-0.067l-0.021-0.077l-0.01-0.054
	l0.02-0.068l0.102-0.06l0.006-0.075l-0.087,0.044l-0.066,0.062l-0.023,0.106l0.041,0.171l-0.015,0.007l-0.051-0.116l-0.057-0.042
	l-0.059-0.03l-0.063-0.08l-0.014-0.092l-0.007-0.121l-0.032-0.083l-0.089,0.021l0.017,0.033l0.053,0.049l0.023,0.091l-0.024,0.066
	l-0.087-0.027l0.051,0.079l0.078,0.077l0.08,0.058l0.057,0.019l-0.004,0.042l0.006,0.043l0.018,0.044l0.03,0.042l-0.139,0.001
	l-0.059-0.027l0.001-0.031l-0.004-0.017l-0.031-0.055l-0.054,0.036l-0.018,0.035l0.032,0.046l0.053,0.041l0.055,0.033l0.051,0.019
	l0.075-0.001l0.037,0.024l0.033,0.025l0.021,0.009l0.015-0.021l0.004-0.032v-0.039l0.005-0.04l0.054,0.162l0.03,0.075l0.035,0.066
	l0.016,0.012l0.021,0.004l0.022,0.01l0.025,0.033l0.013,0.055l-0.029,0.013l-0.071-0.006l-0.08,0.057l-0.02,0.051l0.039,0.063
	l0.054,0.07l-0.006,0.038l-0.029-0.002l-0.018-0.05l-0.111-0.129l-0.053-0.031l-0.053,0.024l-0.017,0.036l0.007,0.028l0.008,0.028
	l-0.009,0.032l-0.024,0.024l-0.032,0.009l-0.029-0.014l-0.021-0.048l-0.051-0.009l-0.03,0.035l-0.011,0.062l0.008,0.07l-0.099-0.114
	l-0.187-0.168l-0.093-0.102l-0.084-0.13l-0.043-0.054l-0.037-0.013l-0.022-0.033l-0.146-0.171l0.041-0.021l0.039-0.009l0.038,0.029
	l0.038,0.088l-0.009-0.058l-0.015-0.059l-0.007-0.048l0.013-0.028l0.026-0.02l0.053-0.097l-0.026-0.012l-0.023-0.019l-0.045-0.044
	l0.053-0.005l0.024,0.009l0.006-0.022l0.005-0.005l0.031,0.007l0.035,0.152l0.018,0.12l0.027,0.037l0.034,0.025l0.039,0.033
	l0.075,0.107l0.031,0.027l0.04-0.004l0.003-0.033l-0.025-0.061l-0.039-0.063l-0.03-0.042l0.052,0.009l0.058,0.027l-0.052-0.138
	l0.012-0.086l-0.022-0.069l-0.047-0.102l-0.017-0.067l0.046,0.063l0.021,0.034l0.022,0.042l0.021,0.012l0.022-0.017l0.016-0.032
	v-0.03l-0.05-0.079l-0.05-0.061l-0.052-0.043l-0.047-0.026l-0.029-0.02l-0.021-0.019l-0.01,0.001l-0.002,0.045l0.02,0.096v0.038
	l-0.03-0.009l-0.073-0.065l-0.061-0.045l-0.056-0.018l-0.056,0.021l0.021-0.042v-0.047l-0.008-0.052l-0.005-0.056l0.016-0.077
	l0.033-0.046l0.049-0.023l0.061-0.008l0.047,0.056L1054.831,481.917z M1057.135,480.327l-0.012,0.026l-0.044-0.014l-0.041-0.05
	l-0.008-0.041l0.01-0.041l0.017-0.011l0.01-0.001l0.025,0.016l0.033,0.055L1057.135,480.327z"/></svg>