<?xml version="1.0" encoding="utf-8"?>
<!-- Generator: Adobe Illustrator 15.0.0, SVG Export Plug-In . SVG Version: 6.00 Build 0)  -->
<!DOCTYPE svg PUBLIC "-//W3C//DTD SVG 1.1//EN" "http://www.w3.org/Graphics/SVG/1.1/DTD/svg11.dtd">
<svg version="1.1" id="Ebene_1" xmlns="http://www.w3.org/2000/svg" xmlns:xlink="http://www.w3.org/1999/xlink" x="0px" y="0px"
	 width="1920px" height="1080px" viewBox="0 0 1920 1080" enable-background="new 0 0 1920 1080" xml:space="preserve">

<path fill="#F4E0B6" stroke="#FFFFFF" d="M1172.432,590.648l0.063,0.084l-0.077-0.015l-0.059-0.035l-0.235-0.143l0.049-0.036l0,0
	l0.02-0.009l0.164,0.096L1172.432,590.648z M1170.438,587.799l0.091-0.021l0.064,0.047l0.059,0.06l0.072,0.015l0.017,0.022
	l-0.026,0.012l-0.047,0.023l-0.106-0.027l-0.035-0.011l-0.086,0.027l-0.045,0.001l-0.058-0.017l-0.051-0.001l0,0l-0.049,0.085
	l-0.048-0.003l-0.053-0.028l-0.04-0.03l0,0l0.002-0.035l0.012-0.031l0.018-0.021l0.026-0.021l0.081-0.042h0.037l0.042-0.001
	l0.042,0.004l0.026,0.005L1170.438,587.799z M1171.743,584.693l-0.062,0.1l-0.095,0.029l-0.103-0.013l-0.009-0.146l0.166-0.106
	L1171.743,584.693z M1170.933,584.835l-0.072,0.074l-0.023,0.044l0.015,0.047l0.027,0.006l0.022,0.004l0.06-0.032l0.084-0.079
	l0.029-0.042l0.013,0.001l0.007-0.006l0.033,0.015l0.034,0.018l0.01,0.007h0.001l0.084,0.01l0.102,0.012l0.02,0.026l-0.119,0.096
	l-0.118,0.069l-0.122,0.027l-0.123-0.038l-0.012-0.003l-0.031-0.053l-0.06-0.063l-0.037-0.019v-0.023v-0.007h0.002l0.021,0.016l0,0
	l-0.009-0.035v-0.034l0.009-0.027l0.015-0.022l0,0l0.079-0.01l0.031,0.005L1170.933,584.835z M1158.129,577.049l0.031,0.033
	l-0.054-0.007l-0.022-0.012l-0.018,0.012l0.012-0.032l0.022-0.009L1158.129,577.049z M1159.298,575.782l0.21,0.019l-0.1-0.002
	l-0.631,0.123l-0.1,0.047l0.1-0.063l0.213-0.033l0.086-0.031l0.107-0.046L1159.298,575.782z M1158.104,576.234l0.532-0.274
	l-0.009,0.028l-0.039,0.026l-0.108,0.048l-0.103,0.05l-0.102,0.05l-0.086,0.102l-0.06,0.024l-0.062,0.084l-0.237,0.455l-0.027,0.101
	l-0.001-0.081l0.047-0.084l0.038-0.074l0.023-0.048l0.021-0.059l0.11-0.185l0.012-0.061L1158.104,576.234z M1132.86,590.753
	l0.067-0.038l0.134-0.107l0.036-0.009l0.047-0.004l0.043-0.016l0.039-0.068l0.067-0.065l0.087-0.064l0.431-0.456l0.48-0.556
	l0.13-0.105l0.322-0.168l1.47-0.391l0.994-0.423l0.069-0.004l0.062-0.012l0.151-0.106l0.069-0.032l0.294-0.025l0.155-0.037
	l0.146-0.087l0.089-0.113l0.054-0.038l0.076,0.003l0.068,0.015l0.04-0.005l0.031-0.016l0.041-0.014h0.117l0.241-0.055l0.229-0.106
	l0.094-0.024l0.075,0.007l0.01-0.029l0.018-0.036l0.005-0.022l0.041-0.02l0.196-0.123l0.025-0.007l0.033,0.001l0.039,0.011
	l0.007,0.015l0.003,0.018l0.023,0.021l0.052,0.033l0.027,0.012l0.021-0.002l0.016,0.006l0.038,0.054l0.022,0.015l0.048,0.03
	l0.101,0.091l0.063,0.032l0.114,0.02l0.124-0.004l0.122-0.027l0.218-0.091l0.099-0.016l0.081-0.027l0.047-0.08l0.213-0.013
	l0.168-0.15l0.258-0.405l0.048-0.042l0.049,0.005l0.05,0.042l0.049,0.07l0.028,0.025l0.139,0.101l0.087,0.113l0.027,0.025
	l0.131-0.001l0.167-0.072l0.569-0.353l0.044-0.013l0.042,0.004l0.041,0.009l0.036,0.003l0.047-0.014l0.087-0.07l0.078-0.035
	l0.157-0.049l0.065-0.031l0.055-0.056l0.095-0.154l0.064-0.059l0.069-0.026l0.072-0.01l0.071,0.005l0.063,0.017l0.038-0.002
	l0.112-0.072l0.047-0.018l0.043-0.009l0.071-0.004l0.69-0.148l0.154-0.006l0.078-0.013l0.083-0.037l0.032,0.008l0.084,0.086
	l0.034,0.026l0.032,0.003l0.07-0.019l0.735-0.055l0.497-0.345l0.084-0.075l0.3-0.484l0.321-0.522l0.088-0.231l0.089-0.152
	l0.012-0.021v-0.051l0.005-0.042l0.248-0.636l-0.013-0.127l0.101-0.035l0.063-0.103l0.062-0.223l-0.055-0.023l-0.01,0.01
	l-0.018,0.03l-0.006-0.048l0.009-0.042l0.023-0.017l0.044,0.026l0.022-0.014l0.011-0.063l0.062-0.228l0.024-0.055l0.029-0.047
	l0.006-0.128l0.012-0.036l0.039-0.035l0.012-0.038l0.006-0.038l0.015-0.04l-0.013,0.003l-0.009,0.004l-0.007-0.002l-0.011-0.02
	l0.055-0.102l0.06,0.11l0.134,0.014l0.014-0.004l0.142-0.039l0.123-0.062l-0.015,0.033l-0.01,0.063l-0.016,0.032l0.01,0.021
	l0.009,0.002l0.01-0.006l0.013-0.003l-0.021,0.049l0.03,0.021l0.051,0.004l0.046-0.001l0.081-0.163l0.011,0.054l0.031,0.01
	l0.03-0.013l0.013-0.012l-0.004-0.033l0.037-0.151l0.02,0.012h0.003l0.017,0.003l-0.006-0.027l-0.002-0.017l-0.003-0.019
	l-0.017-0.03l0.02-0.013l0.024,0.041l0.025,0.024l0.028,0.01l0.03-0.004l-0.003-0.03l-0.031-0.121l-0.065,0.007l-0.038,0.04
	l-0.03,0.053l-0.048,0.049l-0.014-0.022l0.007-0.008l0.025-0.012l0.01-0.008l-0.016-0.024l-0.041,0.048l-0.179,0.127l-0.018-0.024
	l0.099-0.104l0.069-0.134l0.08-0.297l-0.005-0.154l-0.054-0.176l-0.086-0.161l-0.11-0.111l0.021-0.014l0.061,0.061l0.074,0.05
	l0.074,0.021l0.071-0.029l-0.131-0.01l-0.117-0.077l-0.022-0.078l0.157-0.009l0.126,0.01l0.123-0.022l0.121-0.062l0.125-0.104
	l0.362-0.403l0.713-0.936l0.017,0.023l-0.044,0.039l-0.216,0.296l-0.151,0.295l-0.114,0.188l-0.074,0.178l-0.012,0.018l-0.037,0.035
	l-0.02,0.026l-0.064,0.16l-0.042,0.055l-0.118,0.091l-0.017,0.032l-0.015,0.01v0.103l0.018,0.028l0.076-0.025l0.022-0.013
	l0.008-0.031l0.022-0.016l0.065-0.002l0.084-0.062l0.067-0.082l0.016-0.059l-0.01-0.077l0.074-0.023l0.101,0.011l0.07,0.028
	l0.021-0.014l-0.021-0.077l0.006-0.096l0.024-0.088l0.031-0.055l0.02-0.029l0.046-0.006h0.059l0.06-0.01l0.027-0.022l0.032-0.038
	l0.042-0.033l0.05-0.004l-0.007,0.01l-0.01,0.005l-0.001,0.008l0.013,0.015l0.05-0.015l0.041-0.053l0.032-0.068l0.017-0.064
	l-0.01,0.002l-0.008,0.005h-0.007l-0.01-0.018l0.006-0.015l-0.001-0.004l-0.002-0.004l-0.002-0.017l0.139-0.022l0.039,0.014
	l0.013-0.043l0.003-0.044l-0.014-0.095l-0.039-0.019l-0.005-0.032l0.022-0.076l-0.006-0.027l-0.016-0.017l-0.012-0.016l0.007-0.029
	l0.016-0.016l0.119-0.066l0.037-0.008h0.074l0.018,0.008l0.01,0.018l0.016,0.011l0.033-0.016l0.021-0.022l0.008-0.029l-0.004-0.033
	l-0.076,0.01l0.011-0.026l0.015-0.02l0.024-0.01l-0.115-0.045l-0.188-0.012l-0.19,0.032l-0.145,0.089l0.018-0.037l0.06-0.078
	l0.238-0.215l0.104-0.053l0.349-0.098l0.524-0.082l0.116-0.018l0.194,0.015l0.428-0.063l0.117-0.045l0.046-0.032l0.079-0.056
	l0.38-0.447l0.173-0.343l0.089-0.113l0.121-0.077l0.134-0.016l0.11,0.067l0.044,0.032l0.189,0.067l0.11,0.075l0.092,0.029
	l0.162,0.024l0.042-0.008l0.088-0.033l0.007-0.002l0.044-0.007l0.137,0.037l0.028,0.001l0.059-0.01l0.191,0.016h0.046l-0.109,0.043
	l-0.44,0.013l0.019-0.011l0.013-0.01l0.012-0.002l0.038,0.004l-0.025-0.021l-0.025-0.007l-0.027,0.007l-0.068,0.035l-0.023-0.003
	l-0.019-0.012l-0.026-0.005l-0.113,0.011l-0.052-0.007l-0.013,0.011l-0.023,0.016l-0.042-0.042l-0.049-0.03l-0.05-0.019
	l-0.045-0.006l0.041-0.026l0.035-0.029l-0.29-0.091l-0.071-0.037l-0.086-0.029l-0.049,0.005l0.009,0.015l-0.067,0.012l-0.013,0.026
	l0.013,0.044l-0.061,0.004l0.008,0.011l0.02,0.024l0.005,0.013h-0.015l-0.028,0.007h-0.017l0.021,0.026l0.009,0.025l0.002,0.035
	l0.063-0.042l0.011,0.052l0.105,0.053l0.024,0.057l0.021-0.015l0.016,0.024l-0.021,0.013l0.018,0.013l0.021,0.01l0.018,0.015
	l-0.021,0.015l-0.041-0.037l-0.044-0.02h-0.045l-0.045,0.027l-0.007-0.035l-0.015,0.004l-0.007,0.039l0.02,0.068l0.021-0.01
	l0.007-0.011l-0.001-0.029l0.032,0.003l0.023-0.006l0.023-0.017l0.017,0.023l-0.024,0.016l0.02,0.026l0.026,0.014l0.027,0.003
	l0.031-0.007l0.034-0.02l-0.007,0.038l-0.026,0.029l-0.037,0.013l-0.037-0.009l-0.021,0.015l0.015,0.018l-0.002,0.007l-0.011,0.006
	l-0.007,0.012l0.021,0.001l0.02,0.004l0.037,0.015l-0.006,0.084l0.018,0.048l0.044,0.005l0.069-0.043l0.018,0.028l-0.046,0.02
	l-0.044,0.008l-0.03,0.016l-0.009,0.042l-0.02,0.013l-0.037-0.009l-0.02,0.016v0.032l0.019,0.041l0.025,0.011l0.03-0.003
	l0.013,0.012l-0.028,0.043l0.016,0.021l0.041,0.022l-0.013,0.027l-0.03,0.032l-0.011,0.041l0.027,0.056l0.042,0.019l0.04-0.014
	l0.022-0.038l0.004-0.004l-0.011-0.003l-0.005,0.001l-0.006-0.001l-0.015-0.01l0.056-0.012l0.025-0.008l0.029-0.019l0.037-0.001
	l0.027,0.029l0.022,0.033l0.021,0.007l0.042-0.014l0.065-0.009l0.068,0.002l0.055,0.016l-0.017-0.076v-0.033l0.013-0.035
	l0.009,0.042l0.011,0.026l0.019,0.016l0.029,0.018l-0.042,0.028l0.017,0.024l0.043-0.027l-0.005,0.015l-0.006,0.011l0.003,0.016
	l0.02,0.022l0.013-0.013l0.005-0.013l0.001-0.014l0.005-0.018l0.008,0.005l0.006,0.01l0.009,0.006l0.018-0.008l-0.019-0.026
	l0.021-0.014l0.02,0.062l0.038,0.025l0.024-0.02l-0.02-0.069l0.032-0.027l0.014-0.086l0.031-0.081l0.088-0.022l-0.045,0.029
	l0.018,0.024l0.06-0.008l-0.002-0.02l0.009-0.029l0.003-0.025l0.063-0.005l0.014,0.022l-0.002,0.024l0.003,0.016l0.027,0.052
	l0.024-0.039l0.004-0.016l0.016,0.034l0.008,0.023l-0.002,0.021l-0.016,0.026l0.016,0.022l0.041,0.016l0.029,0.039l-0.028,0.1
	l0.018,0.023l0.034-0.021l0.021-0.024l0.007-0.028l-0.009-0.034l0.019-0.011l0.031,0.033l0.007,0.009l0.022,0.016l0.032,0.007
	l0.037-0.007l0.018,0.026l-0.025,0.029l-0.014,0.029v0.031l0.009,0.038l0.021-0.003l0.037,0.001l0.017-0.039l0.024-0.023l0.031-0.01
	l0.032,0.002l0.016,0.022l-0.021,0.016l0.019,0.026l0.049,0.006l0.053-0.008l0.044-0.025l0.021-0.051l-0.016-0.022l-0.046,0.028
	l-0.047-0.002l-0.044-0.023l-0.037-0.031l0.055-0.021l0.084-0.01l0.034-0.015l0.013-0.006l-0.059-0.032l0.049-0.034l0.018-0.01
	l-0.02-0.028l-0.016,0.007l-0.004-0.001l-0.003-0.006l-0.013-0.007l0.003-0.007l0.021-0.05l0.017,0.021l0.012-0.002l0.013-0.011
	l0.02-0.01l-0.039-0.031l0.007-0.042l0.032-0.026l0.075,0.038l0.049-0.013l0.051-0.032l0.039-0.036l0.046-0.095l-0.009-0.086
	l-0.055-0.063l-0.093-0.015l0.073-0.052l0.004-0.002l0.009-0.003l-0.058-0.117l-0.034-0.052l-0.058-0.052l-0.099-0.031l-0.028-0.026
	l0.02-0.055l-0.064,0.006l-0.084,0.021l-0.069,0.031l-0.029,0.039l-0.064-0.046l0.043-0.021l0.043-0.023l0.085-0.035l0.154-0.064
	l0.064,0.003l0.019-0.013l0.039-0.02l0.049,0.056l0.063,0.023h0.068l0.113-0.039l0.059,0.01l0.109,0.037l0.221,0.039l0.088,0.004
	l0.193,0.093l0.132,0.02l0.133-0.006l0.13-0.039l0.007-0.001l0.14-0.089l0.12-0.104l0.191-0.218l0.185-0.325l0.024-0.076
	l0.084-0.151l0.017-0.051l0.021-0.016l0.019,0.028l-0.073,0.105l-0.084,0.249l-0.081,0.097l-0.116,0.194l-0.222,0.251l0.151-0.103
	l0.017,0.024l-0.027,0.056l0.095-0.065l0.027-0.038l-0.004-0.049l0.02-0.013l0.017,0.018l0.013-0.002l0.012-0.013l0.02-0.009
	l0.107-0.254l0.127-0.159l0.015-0.046l0.02-0.015l0.025,0.01l0.053-0.018l0.002,0.024l-0.021,0.02l0.018,0.024l0.024-0.034
	l0.048-0.088l-0.02-0.026l-0.085,0.058l-0.016-0.021l0.031-0.046l0.062-0.022l0.071,0.001l0.06,0.024l0.021,0.015l0.031,0.031
	l0.018,0.014l-0.042,0.029l0.13-0.032l0.046-0.036l0.018-0.063l-0.018-0.027l-0.042,0.003l-0.019,0.004l-0.017-0.023l0.099-0.113
	l0.016-0.041l-0.033-0.017l-0.012-0.03l-0.004-0.042l-0.015-0.05l-0.021,0.016l-0.003,0.038l-0.031,0.094v0.02l-0.003,0.019
	l0.008,0.011h0.03l-0.035,0.038l-0.072,0.048l-0.082,0.039l-0.064,0.014l0.09-0.074l0.015-0.091l-0.011-0.1l0.006-0.097l0.025-0.043
	l0.068-0.066l0.023-0.042l0.021-0.097l0.023-0.043l0.054-0.035l0.018,0.023l-0.086,0.061l0.015,0.021l0.06,0.005l0.213,0.069
	l0.075,0.038l0.001,0.028l-0.032,0.038l-0.023,0.062l-0.01-0.006l-0.006-0.01l-0.009-0.004l-0.014,0.014l0.016,0.021l0.076,0.001
	l0.061,0.028l0.037,0.056l0.009,0.085l0.079-0.121l0.05-0.052l0.047-0.022l0.018-0.019l0.015-0.01l0.031-0.016l-0.016-0.022
	l-0.062,0.003l-0.021,0.015l0.02,0.026l-0.02,0.013l-0.019-0.027l0.121-0.178l0.021-0.064l0.022-0.016l-0.004,0.043l0.04,0.01
	l0.009-0.037l0.024-0.02h0.032l0.035,0.022l0.023-0.016l-0.019-0.032l-0.025-0.035l-0.009-0.002l0.042-0.035l-0.04,0.004
	l-0.027,0.026l-0.033,0.018l-0.041,0.017l0.322-0.261l-0.072-0.046l0.03-0.041l0.047-0.038l-0.045-0.065l0.045-0.006l0.019,0.003
	l0.021-0.014l0.033-0.041l0.17-0.02l0.071-0.022l0.243-0.132l0.079-0.017l-0.017-0.025l0.086-0.026l0.099-0.078l0.526-0.608
	l0.433-0.649l0.257-0.629l0.004-0.008l0.172,0.086l0.062,0.046l0.177,0.133l0.102,0.076l0.391,0.293l0.314,0.235l0.342,0.228
	l0.456,0.308l0.551,0.369l0.272,0.237l0.113,0.144l0.062,0.048l0.099,0.032l0,0l0.063,0.022l0.035,0.051l0.046,0.127l0.04,0.067
	l0.035,0.036l0.047,0.02l0.277,0.028l0.072,0.028l0.315,0.223l0.565,0.4l0.37,0.262l0.023,0.015l0.021,0.017l0.019,0.02l0.014,0.023
	l0.16,0.181l0.407,0.279l0.368,0.252l0.347,0.313l0.174,0.253l0.084,0.071l0.18,0.098l0.063,0.032l-0.022,0.044l-0.013,0.039
	l-0.004,0.042l0.001,0.049l0.014,0.055l0.016,0.043l0.003,0.041l-0.03,0.043l0.014-0.002l0.01-0.008l0.009,0.003l0.011,0.019
	l-0.018,0.032l-0.007,0.033l0.007,0.027l0.027,0.011l-0.025,0.026l-0.008,0.02l0.013,0.013l0.032,0.005l-0.012,0.06l0.01,0.165
	l-0.005,0.027l-0.021,0.042l-0.006,0.023l0.002,0.031l0.005,0.027l-0.001,0.03l-0.016,0.034l0.017,0.024l0.063,0.029l0.026,0.059
	l0.011,0.067l0.017,0.058l0.133,0.185l0.016,0.056l-0.014,0.061l-0.02,0.051l-0.002,0.033l0.033,0.052l0.029,0.067l0.02,0.068
	l0.003,0.066l0.037,0.036l0.149,0.225l0.031,0.029l0.063,0.022l0.038,0.039l0.021,0.049l-0.01,0.036l-0.021,0.031l-0.04,0.095
	l0.003,0.028l0.024,0.054l0.02,0.021l0.067,0.063l0.158,0.211l-0.042,0.121l0.017,0.022l0.033,0.026l0.044,0.042l0.038,0.053
	l0.012,0.055l0.02,0.006l0.023,0.01l0.05,0.028l-0.016,0.04l0.01,0.022l0.022,0.019l0.024,0.022l0.021,0.043l0.002,0.034
	l-0.001,0.028l0.005,0.021l0.028,0.077v0.157l0.075,0.197l0.009,0.283l0.032,0.132l0.003,0.013l0.007,0.008v0.008l-0.016,0.01
	l0.121,0.081l0.012,0.098l-0.034,0.105l-0.02,0.106l0.016,0.001h0.004l0.021,0.013l-0.029,0.051l0.01,0.064l0.084,0.182l0.017,0.046
	l0.007,0.089l-0.006,0.006l0.02,0.049l0.018,0.12l0.021,0.051l0.047,0.059l0.043,0.042l0.043,0.031l0.045,0.026l0.017,0.022
	l0.019,0.078l0.066,0.035l0.077,0.021l0.07,0.039l0.051,0.007l0.023,0.014l0.019,0.026l0.003,0.021l-0.001,0.017l0.003,0.016
	l0.029,0.046l0.063,0.148l0.033,0.128l0.128,0.063l0.128,0.293l0.045,0.012l-0.076,0.069l-0.018,0.031l0.005,0.026l0.014,0.041
	l0.008,0.04l-0.024,0.055l0.018,0.067l-0.018,0.029l-0.023,0.021l-0.033,0.045l-0.029,0.026l0.017,0.011l0.004,0.003l0.004-0.001
	l0.019-0.002l0.015,0.072l0.045,0.133l-0.007,0.055l-0.022,0.015l-0.024-0.012l-0.033,0.01l-0.033-0.003l-0.008,0.038l0.035,0.096
	v0.063l0.06,0.026l-0.014,0.065l-0.044,0.071l-0.037,0.041l-0.032,0.019l-0.007,0.007l0.054,0.049l0.025,0.016l0.118-0.08
	l0.016,0.021l-0.024,0.018l0.018,0.025l0.028,0.003l0.022,0.008l0.048,0.033l-0.044,0.005h-0.02l0.015,0.01l0.005,0.007h0.007
	l0.016-0.008l0.02,0.026l-0.024,0.017l-0.038-0.021l-0.111-0.038l-0.107-0.021l-0.044-0.005l-0.044,0.006l-0.062,0.017l-0.337,0.181
	l-0.115,0.003l-0.402-0.115h-0.024l-0.026,0.021l-0.305-0.044l-0.058,0.008l-0.044,0.025l-0.018,0.054l-0.113-0.066l-0.005,0.037
	l-0.055-0.015l-0.181-0.021l-0.035,0.006l-0.013,0.002l-0.024-0.009l-0.032-0.022l-0.021-0.009l-0.034-0.002l-0.033,0.007
	l-0.059,0.023l-0.063-0.093l-0.223,0.009l-0.047-0.063l-0.072-0.008l-0.108-0.039l-0.094-0.052l-0.03-0.058l-0.024-0.001
	l-0.018,0.003l-0.018-0.005l-0.022-0.018l-0.021,0.014l0.02,0.028l-0.024,0.016l-0.022-0.012l-0.052-0.013l-0.013-0.008
	l-0.173-0.146l-0.036-0.015l-0.013,0.032l-0.059-0.032l-0.155-0.062l-0.072-0.038l-0.6,0.033l-0.048-0.023l-0.018,0.004
	l-0.167-0.081l-0.102-0.016l-0.069-0.018l-0.014-0.021l-0.313-0.013l-0.059-0.013l-0.033-0.017l-0.03-0.023l-0.059-0.027
	l-0.064-0.018l-0.051,0.007l0.002-0.041l0.018,0.027l0.024-0.016l-0.105-0.105l-0.06,0.028l0.006,0.067l0.097,0.011l-0.067,0.02
	l-0.066-0.023l-0.065-0.055l-0.114-0.138l-0.064-0.047l-0.133-0.073l-0.018-0.093l-0.074-0.195l-0.024-0.106l-0.073-0.021
	l-0.039-0.017l-0.066-0.062l-0.037-0.002l-0.035,0.009l-0.039-0.004l-0.066-0.054l-0.123-0.154l-0.046-0.037l-0.015-0.022
	l0.004-0.054l-0.017-0.035l-0.071-0.074l-0.021-0.014l-0.048-0.045l-0.043-0.051l-0.003-0.036l0.007-0.039l-0.057-0.033
	l-0.064-0.016l-0.02,0.017l-0.032-0.035l-0.039-0.014l-0.034,0.007l-0.024,0.033l-0.063-0.021l-0.119,0.013l-0.055-0.01
	l-0.104-0.064l-0.021-0.019l-0.023-0.013l-0.071-0.006l-0.024-0.01h-0.013l-0.11-0.046h-0.016l-0.035,0.006l-0.013,0.001
	l-0.013-0.007l-0.029-0.023l-0.012-0.007l-0.248-0.051l-0.063,0.017l-0.099,0.009l-0.101-0.005l-0.072-0.015l-0.057-0.045
	l-0.067-0.066l-0.067-0.05h-0.062l-0.037,0.008l-0.042-0.014l-0.171-0.112l-0.007,0.002l-0.082-0.145l-0.055-0.054l-0.114,0.018
	l-0.232-0.009l0.024-0.016l-0.031-0.018l-0.022-0.005l-0.021,0.007l-0.027,0.01l0.003-0.014l0.004-0.011l-0.003-0.018l-0.019-0.022
	l-0.02,0.013l0.006,0.042l0.013,0.034l0.021,0.021l0.03,0.006l-0.043,0.029l-0.067-0.151l-0.112-0.174l-0.14-0.123l-0.149-0.003
	l-0.016-0.023l-0.011-0.056l-0.037-0.05l-0.049-0.046l-0.041-0.049l-0.028-0.059l-0.024-0.093l-0.018-0.039l-0.044-0.059
	l-0.035-0.035l-0.033-0.021l-0.04-0.02l-0.143-0.043l-0.04-0.034l-0.029-0.014l-0.124-0.025l-0.09,0.013l-0.009-0.046l0.011-0.057
	l0.009-0.023l-0.069-0.101l-0.09-0.044l-0.217-0.04l0.016-0.038l0.001-0.025l-0.015-0.016l-0.032-0.007l0.014-0.02l0.002-0.01
	l-0.011-0.003l-0.022,0.004l-0.028-0.011l-0.028-0.012l-0.029-0.004l-0.017-0.011l-0.002-0.013l0.006-0.015l0.007-0.014l0.023-0.02
	l-0.016-0.022l-0.025-0.022l-0.015-0.021l-0.014-0.037l-0.021,0.015l0.02,0.116l0.022,0.04l0.029,0.022l0.03,0.009l0.035,0.017
	l0.035,0.045l-0.023,0.017l-0.039-0.04l-0.043-0.009l-0.036,0.021l-0.023,0.051l-0.067,0.016l-0.033,0.081l-0.01,0.104l0.015,0.08
	l0.042,0.07l0.057,0.04l0.07,0.009l0.083-0.031l-0.026,0.086l-0.011,0.549l0.003,0.039l-0.008,0.057l0.022,0.229l0.021,0.071
	l0.101,0.152l0.024,0.074l-0.011,0.079l0.018,0.026l0.053,0.006l0.07,0.024l0.063,0.032l0.079,0.061l0.06,0.016l0.235-0.004
	l0.063,0.008l0.266,0.073l0.14-0.007l0.154,0.034l0.149,0.053l0.083,0.049l0.073,0.081l0.114,0.1l0.119,0.084l0.089,0.036
	l0.016,0.022l0.033,0.073l0.334,0.298l0.033,0.031l0.056,0.078l0.003,0.041l-0.011,0.05l0.011,0.054l-0.023,0.039l0.012,0.041
	l0.051,0.021l0.058,0.119l0.082,0.133l0.048,0.025l0.169,0.035l0.065,0.022l0.036,0.032l0.054,0.071l0.037,0.031l0.128,0.03h0.018
	l0.264,0.099l0.127-0.057l0.126,0.028l0.12,0.081l0.517,0.445l0.063,0.067l0.043-0.01l0.214-0.017l0.13,0.022l0.072,0.022
	l0.075,0.045l0.041-0.009l0.04-0.017l0.042-0.002l0.026,0.016l0.073,0.059l0.217,0.116l0.048,0.008l0.011,0.014l-0.001,0.008
	l-0.01,0.006l-0.01,0.01l0.225,0.021l0.116,0.037l0.05,0.082l0.039,0.003l0.051,0.026l0.047,0.035l0.027,0.027l0.021,0.003
	l0.145,0.054l0.268,0.06l0.091,0.054l0.047-0.003l0.048-0.01l0.041,0.003l0.049,0.038l0.026,0.042l0.029,0.02l0.062-0.027
	l0.075-0.008l0.199,0.059l0.098-0.008l0.013,0.026l0.024,0.026l0.016,0.022l0.015,0.033l0.04,0.008l0.044-0.018l0.027-0.033
	l0.066,0.035l0.094-0.016l0.174-0.061l0.376,0.055l0.184,0.105l0.063,0.01l0.048,0.021l0.188,0.121l0.038,0.039l0.017,0.022
	l0.034,0.017l0.063,0.062l0.035,0.019l0.016,0.022l-0.022,0.016l-0.044,0.029l-0.095-0.055l-0.109,0.004l-0.108,0.026l-0.096,0.006
	l-0.022,0.016l0.017,0.065l0.013,0.036l0.024,0.022l0.051,0.025l0.106,0.021l0.065,0.022l0.054,0.045l0.042,0.015l0.037-0.046
	l0.032-0.052l0.024-0.009l0.029,0.054l0.024,0.062l0.013,0.063l-0.003,0.057l0.022,0.005l0.033,0.011l0.022,0.003l0.089,0.003
	l0.025-0.007l0.02,0.008l0.079,0.047l0.028,0.01l0.018,0.025l-0.054-0.006l-0.146-0.047l-0.023,0.018l0.019,0.026l0.024,0.011
	l0.036,0.024l-0.024,0.017l-0.07-0.058l-0.054,0.045l-0.027,0.093l0.008,0.087l0.104-0.013l0.104,0.035l0.207,0.101l0.003,0.032
	l0.013,0.035l0.021,0.037l0.03,0.038l0.083,0.003l0.188-0.031l0.08,0.012l0.033,0.028l0.06,0.077l0.036,0.027l0.044,0.016
	l0.097,0.022l0.048,0.02l0.073,0.062l0.138,0.146l0.059,0.035l0.181,0.029h0.186l0.186-0.027l0.097,0.003l0.086,0.033l0.034,0.033
	l0.091,0.144l0.002,0.018l-0.014,0.044l0.002,0.02l0.018,0.018l0.038,0.022l0.02,0.019l0.06,0.08l0.059,0.052l0.069,0.028
	l0.092,0.001l0.094,0.014l0.116,0.041l0.068,0.043l-0.055,0.027l0.042,0.059l0.058,0.033l0.131,0.047l0.066,0.037l0.118,0.08
	l0.067,0.028l0.064,0.004l0.065-0.007l0.06,0.001l0.045,0.028l0.104,0.103l0.044,0.055l0.004,0.058l-0.053,0.039l-0.061-0.009
	l-0.038,0.007l0.01,0.094l0.027,0.055l0.045,0.064l0.053,0.061l0.046,0.039l0.068,0.094l0.092,0.268l0.105,0.086l0.073,0.007
	l0.131-0.039l0.074-0.005l0.07,0.028l0.112,0.091l0.206,0.067l0.119,0.068l0.342,0.247l0.117,0.064l0.14,0.056l0.11,0.063
	l0.163,0.063l0.737,0.453l0.265,0.102l0.349,0.23l0.521,0.183l0.059,0.031l0.106,0.083l0.461,0.179l0.216,0.049l0.056,0.021
	l0.699,0.374l0.171,0.143l0.192,0.1l0.169,0.164l0.134,0.06l0.277,0.084l0.053,0.032l0.109,0.086l0.056,0.036l0.212,0.084
	l0.152,0.13l0.349,0.161l0.648,0.303l0.099,0.108l0.107,0.075l0.103,0.029l0.123,0.032l0.06,0.061l0.104,0.136l0.059,0.062
	l0.058,0.042l0.058,0.024l0.063,0.007l0.077-0.003l0.146,0.021l0.135,0.066l0.288,0.235l0.054,0.036l0.13,0.055l0.148,0.073
	l0.078,0.01l0.044,0.059l0.028,0.151l0.072,0.101l0.18-0.042l0.398,0.2l0.711,0.034l0.136,0.036l0.386,0.271l0.164,0.036
	l0.266,0.096l0.051-0.048l-0.063-0.033l-0.07-0.028l0.031-0.03l0.121,0.023l0.124-0.023l0.217,0.042l0.125,0.069l0.087,0.102
	l0.15-0.009l0.092-0.093l0.101-0.035l0.11-0.032l0.099-0.013l0.092,0.019l0.193,0.116l0.119,0.038l0.002,0.051l-0.104-0.035
	l-0.123-0.027l-0.052,0.031l-0.082,0.142l-0.034,0.061l-0.09,0.02l-0.082,0.018l-0.071,0.032l-0.042,0.037l-0.06,0.026l-0.082,0.018
	l-0.045-0.015l-0.073-0.02l-0.044,0.013l-0.017-0.018l-0.068,0.013l-0.088,0.029l-0.015,0.045l0.017,0.118l0.055,0.127l0.152,0.161
	l0.081,0.177l0.06,0.127l0.097,0.074l0.074-0.027l0.063,0.025l0.036,0.056l0.008,0.035l0.052,0.058l0.034,0.04l0.065,0.08
	l0.096,0.164l0.229,0.326l0.034,0.063l0.042,0.126l0.032,0.062l0.054,0.045l0.073,0.033l0.15,0.055l0.139,0.068l0.063,0.044
	l0.059,0.053l0.123,0.178l0.158,0.16l0.132,0.115l0.114,0.104l0.358,0.162l0.127,0.073l0.169,0.093l0.293,0.308l0.069,0.042
	l0.164,0.082l0.276,0.079l0.129-0.011l-0.084-0.031l-0.224-0.104l0.07-0.043l0.068,0.003l0.07,0.033l0.07,0.049l0.173,0.158
	l0.031,0.022h0.086l0.059,0.022l0.059,0.029l0.085,0.022l0.121,0.038l0.209,0.011l0.163-0.034l0.077-0.022l0.021,0.007l0.067,0.001
	l0.065-0.008l0.063-0.02l0.204-0.119l0.319-0.138l0.334-0.095l0.145-0.008l0.288,0.045l0.122,0.052l0.147,0.158l0.144,0.073
	l0.172,0.02l0.17,0.007l0.071-0.014l0.068-0.013l-0.055-0.051l0.019-0.014l0.137,0.033l0.061,0.119l0.174,0.112l0.315-0.058
	l0.164-0.013l0.116-0.003l0.343,0.031l0.541,0.081l0.094-0.01l0.048-0.04l-0.003-0.031l-0.011-0.028l0.002-0.022l0.033-0.012
	l0.09-0.003l0.048,0.005l0.038,0.013l0.132,0.08l0.064,0.022l0.09,0.012l0.195-0.012l0.105-0.026l0.114,0.126l0.032,0.048
	l0.007,0.056v0.056l0.002,0.005l-0.821,0.564l-0.816,0.56l-0.817,0.56l-0.817,0.556l-0.816,0.555l-0.817,0.552l-0.816,0.552
	l-0.817,0.548l-0.816,0.547l-0.816,0.546l-0.816,0.542l-0.817,0.542l-0.021,0.015l-0.796,0.524l-0.817,0.538l-0.817,0.537
	l-0.74,0.484l-0.075,0.051l0,0l-0.36,0.233l-0.359,0.234l-0.359,0.233l-0.359,0.234l-0.36,0.232l-0.36,0.233l-0.072,0.048
	l-0.287,0.185l-0.359,0.231l-0.36,0.232l-0.358,0.231l-0.362,0.231l-0.358,0.23l-0.361,0.231l-0.359,0.229l-0.359,0.231l-0.36,0.228
	l-0.095,0.063l-0.209,0.131l-0.115-0.41l-0.082-0.297l-0.06-0.098l-0.087-0.066l-0.129-0.026l-0.087,0.007l-0.074,0.032l-0.06,0.057
	l-0.041,0.077l-0.024,0.158l0.06,0.428l0.006,0.034l0.065,0.469l-0.028,0.06l-0.134,0.085l-0.343,0.217l-0.343,0.216l-0.344,0.218
	l-0.342,0.217l-0.342,0.216l-0.345,0.216l-0.343,0.216l-0.343,0.214l-0.342,0.216l-0.344,0.214l-0.344,0.215l-0.343,0.213
	l-0.345,0.214l-0.341,0.215l-0.345,0.213l-0.343,0.213l-0.345,0.213l-0.343,0.213l-0.344,0.211l-0.344,0.212l-0.344,0.212
	l-0.344,0.211l-0.345,0.212l-0.344,0.21l-0.344,0.21l-0.345,0.212l-0.344,0.21l-0.346,0.209l-0.343,0.21l-0.345,0.21l-0.346,0.209
	l-0.345,0.208l-0.344,0.209l-0.346,0.207l-0.345,0.208l-0.346,0.208l-0.345,0.208l-0.346,0.207l-0.346,0.209l-0.346,0.206
	l-0.345,0.205l-0.347,0.208l-0.345,0.204l-0.346,0.206l-0.347,0.207l-0.346,0.205l-0.346,0.204l-0.348,0.206l-0.346,0.204
	l-0.348,0.203l-0.346,0.205l-0.347,0.204l-0.347,0.203l-0.348,0.203l-0.348,0.203l-0.346,0.203l-0.349,0.202l-0.347,0.204
	l-0.348,0.2l-0.348,0.202l-0.348,0.203l-0.349,0.201l-0.348,0.202l-0.349,0.2l-0.667-1.156l-0.665-1.152l-0.663-1.151l-0.664-1.147
	l-0.66-1.146l-0.659-1.143l-0.659-1.141l-0.656-1.139l-0.656-1.136l-0.654-1.134l-0.653-1.132l-0.651-1.13l-0.651-1.128
	l-0.649-1.126l-0.647-1.123l-0.648-1.124l-0.434-0.749l-0.419-0.728l-0.196-0.34l-0.747-1.292l-0.336-0.582l-0.085-0.148
	l-0.775-1.345l-0.173-0.299l-0.869-1.506l-0.874-1.517l-0.369-0.638l-0.27-0.469l-0.149-0.206l-0.178-0.171l-0.656-0.51
	l-0.108-0.112l-0.092-0.143l-0.128-0.292l-0.054-0.092l-0.137-0.129l-0.334-0.189l-0.111-0.146l-0.06-0.229l-0.039-0.077
	l-0.064-0.077l-0.689-0.549l-0.188-0.115l-0.076-0.064l-0.084-0.147l-0.023-0.163l-0.007-0.324l-0.02-0.161v-0.069l0.024-0.164
	l0.04-0.158l0.022-0.401l-0.011-0.166l-0.044-0.145l-0.032-0.082l-0.052-0.317l-0.087-0.228l-0.047-0.174l-0.025-0.158l-0.056-0.142
	l-0.132-0.128l-0.316-0.223l-0.153-0.167l-0.248-0.171l-0.066-0.063l-0.307-0.361l-0.183-0.307l-0.215-0.302l-0.077-0.139
	l-0.029-0.142l0.273-0.732l-0.068-0.388l0.016-0.181l0.106-0.277l0.012,0.032l0.183,0.222l0.105,0.101l0.103,0.042l0.08-0.021
	l0.168-0.084L1132.86,590.753z"/></svg>