<?xml version="1.0" encoding="utf-8"?>
<!-- Generator: Adobe Illustrator 15.0.0, SVG Export Plug-In . SVG Version: 6.00 Build 0)  -->
<!DOCTYPE svg PUBLIC "-//W3C//DTD SVG 1.1//EN" "http://www.w3.org/Graphics/SVG/1.1/DTD/svg11.dtd">
<svg version="1.1" id="Ebene_1" xmlns="http://www.w3.org/2000/svg" xmlns:xlink="http://www.w3.org/1999/xlink" x="0px" y="0px"
	 width="1920px" height="1080px" viewBox="0 0 1920 1080" enable-background="new 0 0 1920 1080" xml:space="preserve">

<path fill="#F4E0B6" stroke="#FFFFFF" d="M970.239,654.789l0.002,0.015l-0.022,0.003l-0.006-0.021L970.239,654.789z
	 M971.104,654.042l-0.024,0.039l-0.018-0.004h-0.038l-0.025-0.006l0.003-0.01l-0.001-0.011l0.004-0.012l0.045-0.056l0.049,0.021
	L971.104,654.042z M967.025,641.864l0.032,0.132l-0.195-0.228l-0.047-0.04l-0.037-0.047l-0.022-0.052l-0.012-0.063l0.093,0.058
	l0.104,0.107L967.025,641.864z M963.927,640.735l0.142-0.012l0.14-0.047l0.102-0.072l0.075-0.04l0.115-0.042l0.2-0.049l0.088,0.014
	l0.164,0.077l0.064,0.013l0.281,0.137l0.061,0.021l0.063,0.001l0.199-0.022l0.093,0.009l0.088,0.03l0.051-0.04l0.056-0.02
	l0.056,0.003l0.053,0.023l-0.089,0.035l-0.181,0.1l-0.067,0.027l-0.061,0.051l-0.16,0.209l-0.032,0.056l-0.086,0.174l-0.213,0.103
	l-0.253,0.05l-0.427,0.035l-0.891-0.182l-0.204-0.081l-0.185-0.105l-0.147-0.133l-0.051-0.087l-0.015-0.096l0.026-0.08l0.08-0.042
	l0.031-0.032l0.125-0.176l0.046-0.029l0.033-0.013l0.039,0.003l0.062,0.014l0.056,0.031l0.131,0.099l0.055,0.019h0.033l0.115,0.014
	L963.927,640.735z M967.768,638.565l0.112,0.033l0.032-0.044l0.006,0.155l0.021,0.06l0.058,0.031l-0.185-0.003l-0.077,0.013
	l-0.07,0.056l-0.062,0.082l-0.059,0.06l-0.071,0.022l-0.106-0.023l-0.002-0.038l0.054-0.011l0.04-0.028l0.028-0.041l0.055-0.181
	l0.103-0.098L967.768,638.565z M1005.131,612.398l-0.069,0.062l-0.104,0.045l-0.117,0.02l-0.109-0.011l-0.007-0.037l0.225-0.014
	l0.08-0.045l0.086-0.113l0.012,0.013l0.011,0.013l0.017,0.033l-0.021,0.021L1005.131,612.398z M922.912,617.522l0.015,0.112
	l-0.077,0.066l-0.159-0.034l-0.273-0.115l-0.158,0.016l-0.083-0.012l-0.032-0.056l-0.026-0.07l-0.054-0.065l-0.025-0.057
	l0.055-0.043l0.104-0.065l0.178-0.016l0.187,0.016l0.131,0.031l0.091,0.067l0.077,0.105L922.912,617.522z M920.126,612.673
	l0.587,0.144l0.071-0.009l0.128-0.059l0.065-0.01l0.042,0.02l0.093,0.079l0.046,0.032l0.08-0.03l0.489-0.066l0.667,0.066
	l0.177,0.085l0.102,0.166v0.186l-0.128,0.147l-0.183,0.051l-0.63-0.008l-0.215,0.024l-0.226-0.007l-0.211-0.037l-0.108-0.004
	l-0.084,0.026l-0.122-0.085l-0.119-0.061l-0.259-0.094l-0.414-0.065l-0.532-0.434l-0.144-0.217l0.106-0.253l0.36,0.017l0.116,0.043
	l0.153,0.139l0.024,0.045v0.061l0.01,0.052l0.022,0.037L920.126,612.673z M909.653,608.289l0.017,0.121l-0.067,0.044l-0.136-0.019
	l-0.34-0.094l-0.101-0.008l-0.092,0.017l-0.175,0.088l-0.05-0.03l-0.034-0.067l-0.045-0.061l-0.095-0.043l-0.629-0.103l-0.093,0.026
	l-0.261-0.28l-0.085-0.165l0.027-0.219l0.145-0.087l0.152-0.017l0.31,0.051l0.173,0.055l0.412,0.304l0.15,0.083l0.009,0.013
	l0.044,0.021l0.081,0.08l0.044,0.021l0.092,0.027l0.278,0.132l0.2,0.048L909.653,608.289z M907.162,607.479l-0.061,0.026
	l-0.052-0.01l-0.101-0.048l-0.054-0.003l-0.137,0.012l-0.055-0.008l-0.094-0.056l-0.095-0.169l-0.078-0.087l-0.187-0.136v-0.043
	l0.149-0.001l0.127,0.016h0.061l0.057-0.017l0.043-0.032l0.084-0.087l0.043-0.024l0.362,0.209l0.091,0.097l0.033,0.229l-0.031,0.001
	l-0.146,0.034l-0.043,0.02l0.023,0.033l0.008,0.02l0.014,0.013L907.162,607.479z M909.001,606.722l0.841,0.417l0.602,0.396
	l0.318,0.152l0.159,0.101l0.072,0.101l-0.078,0.015l-0.086,0.001l-0.173-0.029l-0.071-0.033l-0.138-0.086l-0.132-0.042l-0.071-0.036
	l-0.07-0.046l-0.056-0.055l-0.061-0.04l-0.121,0.002l-0.071-0.051l-0.066,0.028l-0.04-0.023l-0.067-0.1l-0.054-0.038l-0.442-0.2
	l-0.073-0.063l-0.072-0.143l-0.031-0.025h-0.037l-0.016,0.007h-0.018l-0.036-0.022l-0.008-0.02l0.007-0.021l-0.001-0.02
	l-0.034-0.015l-0.035-0.021l-0.187-0.188l-0.011-0.035l0.008-0.064l0.076,0.039l0.135,0.109l0.061,0.026L909.001,606.722z
	 M914.222,607.787l-0.016,0.044l-0.029,0.015l-0.135,0.035l-0.109-0.053l-0.303-0.044l-0.096-0.078l-0.063,0.048l-0.051-0.005
	l-0.104-0.072l-0.113-0.039l-0.117-0.022l-0.099-0.051l-0.103-0.104l-0.08-0.125l-0.034-0.11l-0.021-0.158l0.115-0.107l0.173-0.054
	l0.153-0.009l0.686,0.126l0.123,0.067l0.172,0.119l0.135,0.132l0.013,0.104l-0.02,0.048l0.033,0.033l0.042,0.035l0.007,0.048
	l-0.026,0.014l-0.103,0.023l-0.031,0.015l-0.013,0.039L914.222,607.787z M998.653,604.407l-0.068,0.084l-0.028-0.006l0.021-0.088
	l0.032-0.078l0.04-0.054l0.022-0.023l0.011-0.012l0.023-0.02l0.007,0.031l-0.018,0.078L998.653,604.407z M910.137,604.979
	l0.042,0.034l0.033-0.031l0.061,0.093l0.134,0.126l0.063,0.075l0.019,0.089l-0.057,0.052l-0.088,0.022l-0.078,0.001l-0.089-0.017
	l-0.091-0.028l-0.084-0.043l-0.067-0.064l-0.04-0.09l0.014-0.07l0.091-0.14l0.047-0.021l0.047-0.002L910.137,604.979z
	 M896.863,601.043l0.055,0.017l0.06-0.022l0.064,0.104l0.021,0.09l-0.027,0.204l-0.048,0.104l-0.094,0.121l-0.099,0.067
	l-0.062-0.055l-0.084,0.021l-0.092-0.006l-0.083-0.025l-0.054-0.042l-0.028-0.071l-0.013-0.1l0.013-0.087l0.046-0.042l-0.009-0.085
	l0.033-0.064l0.046-0.066l0.034-0.092l0.04-0.07l0.076-0.036l0.087-0.01l0.077,0.014l-0.041,0.061l0.034,0.036L896.863,601.043z
	 M897.347,600.296l-0.136,0.003l-0.001-0.032l-0.042-0.159l-0.012-0.025l0.021-0.048l0.042-0.039l0.053-0.022l0.051,0.001
	l0.139,0.051l-0.011,0.143L897.347,600.296z M999.678,588.309l0.058,0.028l0.057-0.024l0.066-0.04l0.081-0.02l0.081,0.018
	l0.07,0.042l0.043,0.067l0.005,0.084l-0.032,0.067l-0.055,0.058l-0.105,0.084l-0.1,0.12l-0.12,0.228l-0.023,0.093l0.008,0.091
	l0.06,0.078l0.151,0.028l0.036,0.033l0.018,0.063l0.003,0.116v0.01l0.348-0.032l0.164-0.071l0.007-0.003l0.11-0.144l0.03-0.063
	l0.041-0.054l0.052-0.032l0.066-0.001l0.072-0.013l0.028-0.067l0.007-0.084l0.009-0.058l0.074-0.039l0.032,0.128l0.051,0.134
	l0.126-0.02l0.022-0.032l0.008-0.032l0.014-0.03l0.041-0.019l0.108-0.01l0.237-0.092l0.102-0.069l0.064,0.005l0.123,0.053
	l0.074,0.02l0.214-0.023l-0.035,0.159l0.011,0.044l0.069,0.022l0.071-0.005l0.082-0.023l0.076-0.039l0.053-0.049l0.015-0.037
	l-0.001-0.033l0.004-0.029l0.024-0.028l0.03-0.004l0.067,0.027l0.038-0.001l0.059,0.009l0.062,0.055l0.052,0.076l0.03,0.073
	l0.046-0.049l0.077-0.113l0.048-0.042l0.058-0.019l0.145-0.02l0.069-0.021l0.265-0.131l0.116-0.095l0.028-0.054l0.034-0.066
	l-0.005-0.075l-0.053-0.15l-0.003-0.068l0.024-0.032l0.052-0.051l0.064-0.046l0.055-0.019l0.139,0.052l0.137,0.074l0.132,0.031
	l0.129-0.078l0.081-0.076l0.038,0.012l0.059,0.015l0.108,0.054l0.113,0.001l0.24-0.057l0.083-0.067l-0.001-0.146h0.122l0.18,0.175
	l0.123,0.014l0.275-0.058l0.126-0.059l0.034-0.11l0.102,0.021l0.063,0.048l0.03,0.075l0.006,0.211l0.037,0.026l0.07-0.001
	l0.107,0.014l-0.029,0.097l-0.023,0.401l-0.008,0.047l-0.021,0.043l-0.016,0.049l0.02,0.04l0.034,0.036l0.025,0.041l0.026,0.086
	l0.037,0.089l0.068,0.067l0.117,0.018l0.039-0.017l0.054-0.038l0.047-0.042l0.02-0.033l0.023-0.025l0.054-0.009l0.328,0.006
	l0.203,0.031l0.193,0.072l0.193,0.129l0.068,0.061l0.048,0.039l-0.139,0.281l-0.083,0.114l-0.016,0.053l0.011,0.035l0.016,0.031
	l0.004,0.03l-0.107,0.244l0.007,0.04l-0.121,0.028l-0.05,0.029l-0.045,0.046h0.013l0.008,0.028l0.002,0.038l-0.005,0.028
	l-0.014,0.007l-0.051-0.002l-0.015,0.007l-0.089,0.203l-0.104,0.141l-0.111,0.112l-0.214,0.131l-0.031,0.028l-0.258,0.049
	l-0.066,0.022l-0.038,0.055l-0.104,0.215l-0.017,0.077l-0.016,0.042l-0.119,0.131l-0.04,0.069l-0.01,0.036l0.032,0.115l-0.018,0.091
	l-0.118,0.236l-0.045,0.059l-0.106,0.028l-0.248,0.022l-0.073,0.052l-0.002,0.002v0.091l-0.031,0.07l0.019,0.057l0.05,0.048
	l0.146,0.1l0.071,0.073l0.12,0.178l0.052,0.094l0.039,0.035l0.063,0.003l0.048,0.021l0.031,0.059l-0.007,0.063l-0.061,0.029
	l0.017,0.12l0.011,0.031l0.021,0.048l0.001,0.026l-0.006,0.028l0.001,0.047l0.016,0.092l0.021,0.065l0.079,0.147l0.062,0.152
	l0.022,0.083l0.011,0.057l-0.014,0.086l-0.063,0.169l-0.012,0.077l0.023,0.082l0.043,0.042l0.054,0.034l0.053,0.058l0.036,0.077
	v0.061l-0.071,0.136l-0.045,0.178l0.052,0.151l0.118,0.12l0.155,0.092l-0.05,0.124l-0.028,0.039l-0.152,0.147l-0.021,0.031
	l-0.008,0.039l0.004,0.04l0.006,0.038l-0.007,0.029l-0.065,0.061l-0.077,0.019l-0.079,0.007l-0.026,0.01l-0.05,0.017l-0.154,0.132
	l-0.066,0.042l-0.028,0.05l-0.02,0.116l-0.024,0.063l0.046,0.064l0.058,0.155l0.06,0.056l0.051,0.006l0.107-0.006l0.047,0.007
	l0.05,0.027l0.068,0.069l0.107,0.084l0.21,0.235l-0.051,0.118l-0.011,0.053l0.018,0.051l-0.008,0.045l-0.003,0.122l-0.009,0.02
	l-0.035,0.033l-0.008,0.024l0.006,0.026l0.023,0.045l0.003,0.023v0.044l0.013,0.079l-0.008,0.05l-0.075,0.153l-0.035,0.028
	l-0.087,0.052l-0.026,0.029l-0.017,0.068l0.014,0.051l0.026,0.041l0.013,0.037l-0.007,0.05l-0.035,0.085l-0.011,0.048l0.007,0.045
	l0.019,0.03l0.01,0.034l-0.028,0.109l-0.055,0.033l-0.584,0.174l-0.126,0.017l-0.097-0.033l-0.067,0.033l-0.162,0.024l-0.073,0.026
	l-0.062,0.039l-0.054,0.023l-0.884,0.115l0.007,0.013l0.043,0.062l0.189,0.307l0.083,0.048l0.147,0.124l0.077,0.047l0.149,0.042
	l0.042,0.033l0.057,0.099l0.071,0.034l0.092,0.021l0.18,0.012l0.038,0.041l0.018,0.102l-0.003,0.113l-0.02,0.074l-0.01,0.071
	l0.021,0.104l0.037,0.097l0.04,0.051l0.086,0.042l0.242,0.189l-0.04,0.097l0.013,0.101l0.047,0.088l0.071,0.064l0.11,0.034
	l0.118,0.005l0.103,0.022l0.066,0.081v0.051l-0.03,0.101l0.015,0.038l0.048,0.031l0.064,0.018l0.063-0.003l0.047-0.026l0.088-0.07
	l0.105-0.03l0.111,0.007l0.104,0.041l0.076,0.045l0.072,0.074l0.042,0.088l-0.014,0.085l0.053,0.025l0.014,0.042l-0.014,0.052
	l-0.031,0.055l-0.094,0.267l-0.07,0.133l-0.076,0.083l0.072,0.082l-0.007,0.077l0.017,0.067l-0.03,0.025l-0.042,0.048l-0.043,0.055
	l-0.061,0.042l-0.182,0.072l-0.034,0.038l-0.016,0.049l-0.045,0.07l-0.059,0.063l-0.06,0.035l-0.05,0.055l-0.159,0.17l-0.004,0.02
	l-0.024,0.068l-0.007,0.036v0.169l0.011,0.11l0.01,0.046l0.013,0.038l0.025,0.025l0.03,0.01l0.027,0.011l0.019,0.035l-0.011,0.07
	l-0.132,0.258l-0.033,0.253l-0.031,0.063l0.06,0.053l0.005,0.058l-0.031,0.059l-0.05,0.069l0.062,0.015l0.131,0.055l0.526,0.428
	l0.022,0.025l0.038,0.058l0.022,0.026l0.033,0.02l0.078,0.035l0.025,0.017l0.235,0.354l0.046,0.026l0.064,0.036l0.063-0.011
	l0.101-0.039l0.093-0.061l0.04-0.073l0.022,0.002l0.013-0.002l0.102-0.05l0.113-0.031l0.063,0.027l0.015,0.005l-0.018,0.144
	l-0.02,0.077l-0.027,0.168l-0.051,0.159l-0.011,0.15l-0.028,0.066l-0.014,0.121l-0.103,0.032l-0.249-0.044l-0.073,0.009
	l-0.029,0.042l-0.024,0.107l-0.033,0.061l-0.028,0.024l-0.052,0.023l-0.047,0.035l-0.051,0.004l-0.056-0.004l-0.055,0.005
	l-0.04,0.037l-0.128,0.049l-0.023,0.033l0.01,0.038l0.021,0.042l0.01,0.049l-0.007,0.089l-0.052,0.238l-0.018,0.172l-0.082,0.206
	l-0.332,0.365l-0.058,0.11l-0.031,0.156l0.003,0.235l-0.01,0.075l-0.021,0.045l-0.093,0.128l-0.035,0.03l0.016,0.026l0.001,0.025
	l-0.005,0.022l-0.001,0.025l-0.036,0.055l-0.01,0.022l0.01,0.049l0.008,0.004l0.018-0.004l0.032,0.062l0.01,0.031l0.013,0.026
	l0.005,0.004l0.042,0.042l0.038,0.024l0.081,0.04l0.028,0.024l0.046,0.084l0.045,0.111l0.029,0.103v0.055l0.099,0.135l0.097,0.372
	l0.069,0.148l-0.015,0.079l0.038,0.104l0.099,0.196l0.017,0.021l0.013,0.019l0.015,0.013l0.028,0.004l0.005,0.029l-0.024,0.042
	l-0.079-0.035l-0.094-0.004l-0.097,0.016l-0.09,0.026l-0.085,0.049l-0.151,0.142l-0.066,0.036l-0.221,0.193l-0.026,0.048
	l-0.572,0.52l-0.12,0.142l-0.062,0.012l-0.071-0.015h-0.092l-0.263,0.048l-0.077-0.013l-0.027,0.062l-0.047,0.003l-0.058-0.02
	l-0.045-0.011l0.052,0.052l0.019,0.027l0.013,0.039l-0.116-0.107l-0.172-0.087l-0.329-0.095l-0.179-0.002l-0.145-0.029l-0.143,0.032
	l-0.336,0.107l-0.153-0.018l-0.17-0.021l-0.118,0.077l-0.184,0.055l-0.194-0.028l-0.008,0.01l-0.246-0.071l-0.188,0.005l-0.197,0.05
	l-0.062,0.028l-0.051,0.046l-0.113,0.157l-0.264,0.048l-0.051,0.022l-0.101,0.084l-0.052,0.032l-0.065,0.017l-0.097,0.042
	l-0.083,0.094l-0.09-0.016l-0.066,0.084l-0.031,0.031l-0.042,0.023l-0.077,0.081l-0.043,0.022l-0.068-0.008l-0.053-0.035
	l-0.052-0.017l-0.061,0.036l0.01-0.142l0.012-0.071l0.017-0.032l0.132-0.269l0.043-0.145l0.04-0.126l-0.062-0.136l0.068-0.08
	l0.085-0.11l0.027-0.225l-0.046-0.078l-0.046-0.071l0.05-0.134l0.102-0.143l0.004-0.122l0.05-0.174l0.018-0.226l0.006-0.134
	l-0.024-0.223l-0.042-0.111l-0.054-0.067l-0.066-0.052l-0.019-0.06l0.024-0.223v-0.136l0.019-0.131l0.053-0.035l0.117-0.04
	l0.006-0.121l-0.003-0.018l-0.036,0.039l-0.092,0.041l-0.104,0.02l-0.049-0.079l-0.006-0.251l0.013-0.267l-0.033-0.16l-0.042-0.109
	l-0.087-0.11h-0.145l-0.19-0.066l0.014-0.045l0.027-0.021l0.031-0.02l0.028-0.037l0.154-0.465l0.026-0.355l0.055-0.276l-0.055-0.256
	l-0.079-0.299l-0.083-0.259l-0.14-0.173l-0.124-0.084l-0.155-0.116l-0.172-0.088l-0.125-0.021l0.056-0.071l0.102,0.02l0.176,0.097
	l0.202,0.027l0.099,0.029l0.017,0.062l0.175-0.037l0.438,0.03l0.201-0.099l-0.128,0.016l-0.112-0.001l-0.329-0.079l-0.045-0.033
	l-0.034-0.062l-0.018-0.067l-0.003-0.062l0.014-0.049l0.033-0.03l-0.005-0.036l-0.064-0.01l-0.049-0.049l-0.024-0.064l0.02-0.059
	l-0.067,0.001l-0.059,0.167l-0.08,0.039l0.004,0.029l0.096-0.004l0.055,0.062l0.013,0.08l-0.028,0.042l-0.104,0.01l-0.086-0.005
	l-0.16-0.046l-0.17-0.023l-0.201,0.069l-0.16,0.23l0.037,0.018l-0.227,0.131l-0.404,0.114l-0.083,0.045l-0.062,0.058l-0.074,0.028
	l-0.114-0.01l-0.019,0.001l-0.019-0.023l-0.004-0.035l0.006-0.032l0.015-0.017l0.024-0.047l0.11-0.134l0.003-0.157l-0.034-0.229
	l-0.137-0.205l-0.156-0.162l-0.082-0.135l0.072-0.052l0.194-0.056l0.178-0.044l0.097,0.034l0.051,0.052l0.027-0.006l-0.042-0.094
	l0.06-0.041l0.129-0.055l0.062-0.017l-0.005-0.03l0.052-0.079l0.061-0.072l0.106-0.103l0.135-0.143l0.014-0.015l0.021-0.022
	l0.019-0.01l-0.005-0.029l-0.052-0.056l-0.063-0.088l-0.041-0.096l0.019-0.078l-0.097,0.022l-0.056-0.07l-0.042-0.113l-0.056-0.108
	l0.126-0.368l0.086-0.17l0.13-0.126l0.082-0.032l0.177-0.043l0.075-0.044l0.136-0.129l0.055-0.071l0.03-0.075l-0.1,0.091
	l-0.168,0.155l-0.356,0.096l-0.049,0.051l-0.06,0.15l-0.163,0.297l-0.17,0.454l-0.108,0.157l-0.035,0.071l-0.015,0.084l0.023,0.09
	l0.033,0.158l0.033,0.112l-0.042,0.124l-0.205,0.096l-0.236,0.078l-0.277,0.022l-0.07,0.066l-0.065,0.097l-0.179-0.066l-0.197-0.039
	l-0.105,0.001l-0.178,0.054l-0.089-0.012l-0.013-0.098l0.016-0.087l-0.085-0.201l-0.015-0.105l0.017-0.049l0.043-0.064l0.089-0.112
	l0.081-0.415l-0.055-0.289l-0.073-0.176l0.024-0.113l-0.001-0.135l0.124-0.294l0.033-0.139l0.06-0.188l-0.01-0.187l0.003-0.157
	l-0.092-0.229l-0.063-0.088l-0.173-0.118l-0.039-0.042l0.047-0.022l0.195,0.02l0.283-0.232l0.068-0.074l0.085-0.02l0.06,0.048
	l0.046,0.003l0.042-0.054l-0.041-0.058l-0.079-0.047l0.054-0.108l0.081-0.115l0.025-0.059l0.071-0.059l0.108-0.087l0.046-0.101
	l0.032-0.083l0.064-0.151l-0.003-0.085l-0.022-0.09l0.032-0.138l-0.002-0.188l0.208-0.838l0.308-1.437l0.051-0.078l0.058,0.056
	l0.072,0.017l0.167-0.02l-0.006-0.035l-0.075-0.046l-0.069-0.032l-0.074-0.015l-0.193,0.009l-0.076-0.029l-0.054-0.064l-0.022-0.101
	l0.031-0.144l0.09-0.245l0.127-1l0.009-0.308l0.043-0.232l0.01-0.289l0.008-0.017l0.021-0.019l0.019,0.103l0.003,0.032l0.063-0.136
	l0.051-0.051l0.063,0.021l0.024-0.003l-0.004-0.029l-0.012-0.012l-0.021-0.025l-0.016-0.029l0.008-0.029l0.036-0.026l0.025,0.01
	l0.02,0.022l0.022,0.013l0.038-0.022l0.028-0.041l0.037-0.088l-0.07-0.025l-0.046-0.052l0.003-0.054l0.074-0.034l0.092-0.024
	l0.07-0.035l0.056-0.05l0.057-0.064l-0.069,0.014l-0.095,0.063l-0.084,0.029l-0.015,0.011l-0.022,0.005l-0.101-0.022l-0.035-0.035
	l-0.055-0.128l0.125-0.219l-0.055-0.095l0.004,0.08l-0.014,0.068l-0.027,0.022l-0.031-0.061l-0.042,0.106l-0.024,0.134l-0.007,0.137
	l0.01,0.122l-0.007,0.08l-0.026,0.119l-0.039,0.11l-0.042,0.063l0.134-1.697l-0.029-0.177l-0.099-0.313l-0.022-0.171l0.062-0.077
	l-0.005-0.029l-0.158-0.01l-0.098-0.119l-0.081-0.158l-0.097-0.125l0.01-0.065l-0.019-0.054l-0.029-0.049l-0.028-0.058l-0.022-0.146
	l-0.027-0.045l-0.029-0.007l-0.024-0.048l-0.023-0.049l-0.071-0.079l-0.032-0.065l-0.01-0.059l-0.029-0.138l0.018-0.166
	l-0.063-0.104l-0.022-0.098l-0.028-0.065l-0.024-0.079l-0.075-0.137l-0.035-0.106l-0.039-0.076l-0.018-0.087l-0.046-0.082
	l-0.025-0.111l0.005-0.056l0.086-0.045l0.242-0.073l0.065-0.04l0.058-0.051l0.049-0.058l-0.429,0.186l-0.092,0.025l-0.053,0.001
	l-0.08-0.029l-0.103-0.146l-0.021-0.139v-0.222l-0.05-0.133l0.009-0.054l0.022-0.049l0.253-0.255l0.113-0.157l0.021-0.185
	l0.042-0.036l0.083-0.055l0.1-0.042l0.074-0.062l0.022-0.054l0.027-0.109l0.026-0.055l0.062-0.055l0.068-0.021l0.146-0.025
	l0.069-0.038l0.124-0.105l0.071-0.036l0.603-0.18l0.062-0.042l0.09-0.099l0.032-0.025l0.028-0.012l0.067-0.013l0.069-0.037
	l0.106-0.096l0.043,0.042l0.048,0.067l0.021,0.207L999.678,588.309z"/></svg>