<?xml version="1.0" encoding="utf-8"?>
<!-- Generator: Adobe Illustrator 15.0.0, SVG Export Plug-In . SVG Version: 6.00 Build 0)  -->
<!DOCTYPE svg PUBLIC "-//W3C//DTD SVG 1.1//EN" "http://www.w3.org/Graphics/SVG/1.1/DTD/svg11.dtd">
<svg version="1.1" id="Ebene_1" xmlns="http://www.w3.org/2000/svg" xmlns:xlink="http://www.w3.org/1999/xlink" x="0px" y="0px"
	 width="1920px" height="1080px" viewBox="0 0 1920 1080" enable-background="new 0 0 1920 1080" xml:space="preserve">

<path fill="#F4E0B6" stroke="#FFFFFF" d="M1252.399,625.794l0.069,0.479l0.348,2.454l-0.086,0.021l-0.011,0.064l0.001,0.078
	l-0.043,0.064l-0.064,0.026l-0.129,0.041l-0.19,0.1l-0.11,0.042l-0.122-0.012l-0.301-0.158l-0.106,0.025l-0.104,0.063l-0.356,0.129
	l-0.03,0.024l-0.151,0.119l-0.282,0.367l-0.126,0.365l-0.055,0.103l-0.066,0.037l-0.084,0.022l-0.107,0.048l-0.1,0.138l-0.032,0.027
	l-0.077,0.048l-0.033,0.026l-0.095,0.167l-0.044,0.051l-0.08,0.053l-0.258,0.094l-0.21,0.178l-0.083,0.112l-0.021,0.216
	l-0.092,0.106l-0.229,0.167l-0.02,0.03l-0.001,0.034l-0.01,0.03l-0.041,0.019l-0.042-0.004l-0.032-0.019l-0.032-0.011l-0.578,0.228
	l-0.138,0.031l-0.063-0.02l-0.047-0.016l-0.023-0.168l-0.123-0.197l-0.08-0.097l0.084-0.339v-0.248l-0.089-0.168l-0.144-0.041
	l-0.454-0.022l-0.075,0.012l-0.337-0.33l-0.508-0.407l-0.193-0.226l-0.192-0.459l-0.207-0.354l-0.044-0.175l0.027-0.081l0.104-0.18
	l-0.003-0.081l-0.027-0.074l0.016-0.048l0.035-0.046l0.035-0.066l0.021-0.081l0.007-0.075l-0.027-0.326l-0.058-0.708l-0.09-0.416
	l0.005-0.08l0.057-0.111l-0.009-0.073l-0.063-0.193l-0.071-1.104l-0.102-0.354l-0.027-0.492l0.022-0.366l0.062-0.061l0.136-0.047
	l0.259-0.045l1.12,0.12l-0.011-0.113l0.015-0.019l0.1-0.123l-0.011-0.117l0.004-0.061l0.104-0.106l0.028-0.062l-0.07-0.126
	l-0.147-0.103l-0.118-0.112l0.038-0.287l-0.093-0.285l0.02-0.105l0.039-0.021l0.085,0.004l0.039-0.031l0.575-0.981l0.104-0.003
	l0.101,0.046l0.102,0.06l0.103,0.039l0.789,0.171l0.227,0.084l0.109,0.02l0.081-0.026l0.028-0.092l0.123,0.144l0.068,0.064
	l0.079,0.055l0.081,0.033l0.077,0.02l0.073,0.028l0.075,0.064l0.14,0.152l0.084,0.074l0.075,0.039l0.337,0.105l0.071,0.061
	l0.195,0.246l0.299,0.29l0.091,0.146l0.044,0.164l-0.001,0.162l-0.052,0.145l-0.024,0.032l-0.096,0.094l-0.066,0.135l-0.07,0.071
	l-0.176,0.123l-0.06,0.074l-0.055,0.187v0.59l-0.011,0.028l-0.016,0.026l-0.026,0.045l-0.014,0.037l0.007,0.041l0.033,0.068
	l-0.003,0.039l-0.04,0.061l-0.219,0.164l-0.041,0.062l-0.026,0.086l-0.038,0.068l-0.147,0.036l-0.069,0.066l-0.273,0.395
	l-0.054,0.139l-0.01,0.167l0.152,0.716l0.002,0.055l-0.021,0.047l-0.098,0.125l-0.037,0.028l-0.115,0.047l-0.106,0.079l-0.039,0.02
	h-0.035l-0.086-0.028h-0.035l-0.086,0.066l-0.02,0.066l0.023,0.03l0.043-0.048l0.096,0.077l0.003,0.004l0.088,0.098l0.096,0.069
	l0.183-0.039l0.146,0.02l0.067-0.016l0.05-0.049l0.014-0.105l0.035-0.046l0.046-0.015l0.053-0.008l0.048-0.02l0.021-0.045
	l-0.021-0.07l-0.056-0.011l-0.061,0.007l-0.041-0.01l-0.023-0.094l0.035-0.112l0.13-0.2l0.255-0.223l0.07-0.084l0.018-0.062
	l0.004-0.057l0.023-0.036l0.076,0.004l0.048-0.008l0.105-0.073l0.579-0.4l0.074-0.079l0.085-0.053l0.136-0.009l0.065-0.074
	l-0.005-0.087l-0.016-0.075l0.034-0.044l0.062,0.025l0.27,0.203l0.007,0.002l0.101,0.032l0.075,0.003l0.19-0.021L1252.399,625.794z"
	/></svg>