<?xml version="1.0" encoding="utf-8"?>
<!-- Generator: Adobe Illustrator 15.0.0, SVG Export Plug-In . SVG Version: 6.00 Build 0)  -->
<!DOCTYPE svg PUBLIC "-//W3C//DTD SVG 1.1//EN" "http://www.w3.org/Graphics/SVG/1.1/DTD/svg11.dtd">
<svg version="1.1" id="Ebene_1" xmlns="http://www.w3.org/2000/svg" xmlns:xlink="http://www.w3.org/1999/xlink" x="0px" y="0px"
	 width="1920px" height="1080px" viewBox="0 0 1920 1080" enable-background="new 0 0 1920 1080" xml:space="preserve">

<path fill="#F4E0B6" stroke="#FFFFFF" d="M1177.645,791.052l-0.04,0.159l-0.095,0.119l-0.21,0.202l-0.027,0.084l-0.101,0.13
	l-0.047,0.209l-0.084,0.095l-0.104,0.049l-0.136-0.042l0.019-0.146l0.049-0.189l0.057-0.206l0.104-0.088l0.227-0.13l0.143-0.058
	l0.079-0.064l0.07-0.066L1177.645,791.052z M1236.114,729.363l0.03,0.009v-0.076l0.047-0.023l0.063,0.029l0.052,0.08l-0.043,0.113
	l-0.011,0.016l0.028,0.056l0.029,0.025l0.032,0.023l0.08,0.106l0.117,0.125l0.019,0.053l-0.016,0.032l-0.049,0.074l-0.002,0.03
	l0.027,0.052l0.01,0.03l-0.013,0.024l-0.038,0.026l0.018,0.033l0.079,0.016l0.059,0.045l0.056,0.059l0.077,0.048l0.056,0.081
	l0.025,0.271l0.074,0.099l0.078,0.145l-0.039,0.205l-0.1,0.173l-0.108,0.039l-0.04-0.071l-0.024-0.064l-0.007-0.063l0.014-0.064
	l-0.017,0.028l-0.013,0.01l-0.008,0.009l-0.005,0.026l-0.053-0.022l-0.028-0.02l-0.017-0.032l-0.009-0.057l-0.026,0.028
	l-0.058,0.048l-0.022,0.029l-0.026-0.109l0.006-0.1l0.014-0.094l0.002-0.085l-0.007-0.047l-0.011-0.046l-0.041-0.093l-0.003-0.024
	l-0.044-0.153l-0.009-0.008l-0.009-0.27l-0.024-0.109l-0.065-0.19l-0.047-0.037l-0.05,0.076l-0.066-0.15l-0.027-0.129l0.01-0.264
	l0.027,0.025l0.022,0.006L1236.114,729.363z M1197.491,699.518l0.085-0.033l0.052-0.042l0.026-0.016l0.071,0.044l0.051,0.058
	l0.062,0.022l0.097-0.058l-0.003,0.024l-0.002,0.025l-0.002,0.025l-0.011,0.029l0.018,0.032l0.091,0.016l0.028-0.028l0.011-0.049
	l0.046-0.042h0.032l0.057,0.024l0.025-0.002l0.009,0.002l0.114-0.024l0.09,0.016l0.209,0.085l0.072,0.015l0.08-0.006l0.056-0.039
	l0.002-0.09l-0.069-0.003l0.026-0.042l0.079-0.004l0.082,0.116l0.016-0.021l0.039-0.039l0.014-0.021l0.025,0.075l0.04,0.041
	l0.041,0.023l0.09,0.081l0.028-0.052l0.007-0.082l-0.004-0.04l0.103-0.054l0.088,0.04l0.095,0.067l0.121,0.031l-0.052-0.107
	l0.022-0.088l0.068-0.056l0.087-0.006l-0.052-0.085l-0.01-0.061l0.03-0.038l0.067-0.023l0.063,0.003l0.134,0.057l0.083,0.015
	l0.022-0.067l0.052-0.045l0.052-0.029l0.02-0.016l-0.022-0.064l0.018-0.036l0.04-0.017l0.053-0.003l-0.039-0.031l-0.089-0.119
	l0.03,0.003l0.027-0.003l0.029-0.01l0.035-0.018l0.021-0.035l0.003-0.049l-0.01-0.063h0.083l0.063,0.042l0.05,0.021l0.042-0.063
	l0.032,0.011l0.04,0.006l0.025,0.015l0.017-0.073l0.004-0.026l0.13,0.13l0.052,0.026l0.039-0.057l0.014,0.027l0.049,0.077
	l0.014-0.021l0.041-0.042l0.014-0.022l0.084,0.069l0.12,0.02l0.106-0.008l0.124-0.041l0.077-0.059l0.074-0.038l0.076,0.035
	l0.016-0.041l0.065-0.095l0.088,0.054l0.094,0.018l0.092,0.007l0.081,0.017l0.196,0.144l0.027,0.026l0.061-0.019l0.148-0.021
	l0.079-0.036l0.029-0.032l0.043-0.058l0.035-0.066l0.009-0.053l0.053,0.02l0.006-0.103l0.062-0.078l0.08-0.031l0.068,0.037
	l0.026-0.016l-0.005-0.068l0.033-0.025l0.074-0.009l0.027-0.05l0.027-0.089l0.029-0.052l0.207-0.12l0.068-0.025l0.042,0.004
	l0.309,0.112l0.045,0.012l0.028-0.024l0.013-0.08l0.021-0.029l0.035-0.005l0.04,0.011l0.028,0.016l0.011,0.008l0.082-0.036
	l0.011-0.035l0.016-0.087l-0.003-0.058l-0.03-0.143l-0.005-0.055l0.031-0.233l0.048-0.192l0.07-0.177l0.099-0.182l0.159-0.183
	l0.193-0.092l0.223-0.029l0.477-0.007l0.119-0.027l0.101-0.042l0.088-0.023l0.088,0.013l0.092,0.025l0.092,0.015l0.047-0.005
	l0.049-0.016l0.085-0.044l0.055-0.017l0.089,0.012l0.048-0.015l0.144-0.015l0.048,0.059l0.105,0.239l0.039,0.012l0.04,0.007h0.041
	l0.038-0.003l0.208,0.04l0.066,0.027l0.045,0.036l0.083,0.097l0.055,0.036l0.122,0.029l0.109-0.017l0.412-0.177l0.111,0.012
	l0.13,0.085l0.16,0.187l0.077,0.067l0.09,0.02l0.032-0.02l0.066-0.075l0.039-0.024l0.058,0.002l0.066,0.03l0.063,0.039l0.046,0.037
	l0.082,0.098l0.144,0.311l0.135,0.201l0.094,0.108l0.081,0.063l0.02-0.012l0.122-0.036l0.042-0.007l0.071,0.017l0.139,0.051
	l0.071,0.006l0.037-0.018l0.111-0.094l0.026-0.01l0.096-0.007l0.024-0.019l-0.003-0.026l-0.012-0.026l-0.005-0.014l-0.011-0.002
	l0.009-0.028l0.023-0.046l0.027-0.004l0.079,0.029l0.032-0.01l0.045-0.036l0.248-0.094l0.047,0.047l0.032,0.099l0.057,0.122
	l0.035,0.052l0.032,0.037l0.038,0.032l0.051,0.035l0.269,0.141l0.041-0.031l0.018-0.13l0.021-0.052l0.075-0.035l0.054,0.023
	l0.078,0.087l0.231,0.105l0.138,0.047l0.125,0.019l0.188-0.073l0.166-0.155l0.178-0.116l0.226,0.039l0.104,0.081l0.058,0.063
	l0.066,0.026l0.129-0.023l0.091-0.07l0.052-0.12l0.026-0.136l0.01-0.351l0.032-0.088l0.081-0.084l0.043-0.021l0.049-0.016
	l0.045-0.02l0.032-0.036l0.002-0.063l-0.025-0.063l-0.018-0.065l0.027-0.067l0.149-0.154l0.034-0.087l0.002-0.142l-0.069-0.504
	l0.035-0.029l0.089-0.054l0.037-0.068l0.012-0.064l0.022-0.045l0.073-0.014l0.124,0.06l0.076,0.108l0.082,0.084l0.144-0.015
	l0.045-0.026l0.121-0.098l0.219-0.103l0.088-0.065l0.218-0.231l0.06,0.021l0.312,0.037l0.062-0.005l0.058,0.064l0.01-0.015
	l0.228-0.016l0.074,0.012l0.483,0.158l0.132-0.003l0.099-0.083l-0.018-0.099l-0.048-0.102l0.013-0.088l0.105-0.064l0.101-0.029
	l0.062-0.062l-0.012-0.157l-0.03-0.145l-0.004-0.098l0.085-0.352l-0.004-0.123l-0.028-0.121l-0.046-0.131l-0.005-0.07l0.027-0.135
	l-0.027-0.059l-0.037-0.049l-0.041-0.094l-0.1-0.18l-0.003-0.083l0.057-0.052l0.106-0.036l0.026,0.003l0.077,0.023l0.03,0.005
	l0.044-0.079l0.024-0.02l0.06-0.013l0.173-0.014l0.134-0.074l0.059-0.019l0.243-0.01l0.076,0.01l0.208,0.054l0.091,0.005
	l0.038-0.012l0.078-0.086l0.037-0.004l0.144,0.011l0.058-0.005l0.076,0.005l0.02,0.062l-0.004,0.042l-0.002,0.04l0.006,0.064
	l0.031,0.042l0.084,0.064l0.034,0.039l0.027,0.055l0.058,0.172l0.137,0.219l0.169,0.154l0.188,0.039l0.198-0.121l0.107-0.039
	l0.16,0.007l0.161,0.047l0.109,0.075l0.018,0.058l-0.001,0.068l0.008,0.07l0.042,0.058l0.066,0.026l0.054-0.014l0.051-0.031
	l0.058-0.02l0.147,0.009l0.127,0.053l0.246,0.164l0.135,0.068l0.097,0.009l0.212-0.066l0.141,0.005l0.11,0.071l0.099,0.101
	l0.114,0.093l0.198,0.08l0.064,0.039l0.046,0.048l0.035,0.053l0.04,0.046l0.063,0.028l0.091-0.014l0.29-0.163l0.364-0.065
	l0.515,0.032l0.206-0.038l0.045-0.016l0.09-0.049l0.039-0.032l0.034-0.04l0.04-0.031l0.055-0.009l0.146,0.096l0.588,0.674
	l0.062,0.101l0.096,0.215l0.016,0.075l-0.006,0.046l0.016,0.027l0.073,0.015l0.05-0.007l0.047-0.024l0.079-0.064l0.044-0.048
	l0.083-0.17l0.055-0.078l0.047-0.036l0.124-0.073l0.055-0.115l0.01-0.143l0.03-0.098l0.125,0.02l0.05,0.039l0.128,0.165l0.079,0.058
	l0.09,0.016l0.179-0.02l0.123,0.052l0.127,0.285l0.122,0.074l0.069-0.097l0.03-0.13l0.053-0.07l0.137,0.087l0.031,0.044l0.065,0.159
	l0.045,0.055l0.113,0.078l0.048,0.055l0.044,0.125l0.002,0.051l0.003,0.075l-0.022,0.237l0.024,0.224l0.009,0.028l0.028,0.056
	l0.004,0.035l-0.013,0.023l-0.044,0.047l-0.009,0.02l0.038,0.227l0.228,0.729l0.088,0.278l0.053,0.119l0.07,0.094l0.103,0.045
	l0.317,0.044l0.131,0.035l0.238,0.146l0.182,0.174l0.128,0.207l0.116,0.409l0.003,0.069l-0.012,0.02l-0.045,0.045l-0.011,0.023
	l0.009,0.036l0.033,0.052l0.011,0.029l0.154,0.55l0.033,0.071l0.011,0.023l0.016,0.047l0.016,0.207l0.016,0.063l0.058,0.1
	l0.143,0.181l0.057,0.096l0.021,0.102l0.012,0.138l0.03,0.132l0.071,0.081l0.079-0.016l0.317-0.181l0.064,0.005l0.051,0.057
	l0.052,0.079l0.062,0.068l0.102,0.058l0.141,0.059l0.142,0.038l0.102-0.006l0.082-0.147l-0.047-0.203l-0.02-0.186l0.167-0.097
	l0.112,0.013l0.472,0.179l0.024,0.016l0.035,0.032l0.013,0.033l-0.015,0.029l-0.001,0.03l0.054,0.033l0.093,0.001l0.223-0.076
	l0.063-0.032l0.066-0.058l0.155-0.222l0.154,0.219l0.088,0.101l0.095,0.068l0.148,0.03l0.366,0.017l0.019,0.01l-0.048,0.191
	l0.024,0.062l0.042,0.055l0.02,0.055l-0.046,0.052l-0.052,0.045l-0.026,0.051l-0.025,0.139v0.071l0.019,0.168l-0.005,0.073
	l-0.025,0.049l-0.081,0.086l-0.031,0.043l-0.101,0.268l-0.065,0.298l-0.003,0.064l0.005,0.063l-0.005,0.061l-0.025,0.056
	l-0.042,0.043l-0.123,0.096l-0.11,0.229l-0.064,0.817l-0.084,0.354l-0.041,0.072l-0.015,0.041l0.056,0.185l-0.013,0.072l-0.17,0.418
	l-0.012,0.134l0.047,0.132l0.022,0.137l-0.06,0.148l-0.137,0.241v0.072l0.019,0.182l-0.017,0.047l-0.028,0.049l-0.011,0.082
	l0.009,0.085l0.021,0.062l0.063,0.128l0.041,0.14l0.022,0.139l0.007,0.139l0.075,0.408l-0.045,0.06l-0.033,0.1l0.014,0.091
	l0.103,0.034l0.012,0.059l0.025,0.061l0.033,0.058l0.042,0.057l0.055-0.064l0.086,0.002l0.092,0.053l0.07,0.084l0.007-0.025
	l0.007-0.084l0.02,0.016l0.005,0.01l0.006,0.003l0.022-0.009l-0.107-0.163l-0.026-0.064l0.045,0.013l0.06,0.043l0.022,0.023
	l0.094,0.033l0,0l-0.032,0.143l-0.027,0.081l-0.045,0.068l-0.068,0.076l-0.057,0.043l-0.11,0.048l-0.051,0.035l-0.03,0.114
	l0.014,0.141l-0.012,0.101l-0.105,0.003l-0.08-0.019l-0.049,0.016l-0.028,0.038l-0.024,0.046l-0.031,0.248l0.011,0.041l0.064,0.12
	l0.023,0.062l0.015,0.057l-0.017,0.096l0.068,0.104l0.166,0.203l0.033,0.117l-0.021,0.188l0.034,0.099l-0.002,0.026l0.035,0.229
	l-0.005,0.097l-0.025,0.055l-0.405,0.415l-0.125,0.213l-0.028,0.097l-0.041,0.149l-0.034,0.074l0.052,0.264l0.027,0.059l0.205,0.265
	l0.238,0.489l0.069,0.111l0.368,0.39l0.148,0.205l0.043,0.207l0.01,0.046l-0.012,0.17l-0.028,0.474l0.013,0.133l0.042,0.136
	l0.433,0.983l0.011,0.05l-0.024,0.063l-0.041,0.002l-0.056-0.014l-0.07,0.006l0.014,0.077l0.013,0.452l0.056,0.172l0.053,0.1
	l0.209,0.208l0.067,0.104l0.033,0.123l0.039,0.254l0.068,0.192l0.004,0.042l-0.008,0.113l-0.071,0.088l-0.067,0.058l-0.399,0.472
	l-0.1,0.254l-0.034,0.28l0.045,0.284l0.147,0.377l0.004,0.12l-0.047,0.328l0.028,0.146l0.107,0.12l-0.031,0.077l0.004,0.167
	l-0.01,0.088l-0.04,0.086l-0.044,0.053l-0.033,0.063l-0.002,0.117l0.213,0.005l0.025,0.166l-0.023,0.22l0.068,0.154l0.047-0.018
	l0.168-0.102l0.086-0.004l0.057,0.045l0.049,0.071l0.072,0.143l0.009,0.062l0.016,0.067l0.029,0.064l0.036,0.062l0.033-0.02
	l-0.005-0.045l0.011-0.108l0.049,0.037l0.017,0.017l0.017-0.116l-0.018-0.217l0.006-0.126l-0.037-0.058l0.06-0.052l0.11,0.003
	l0.118,0.12l0.231-0.417l0.085-0.217l0.005-0.263l-0.093-0.352l0.015-0.069l0.021-0.031l0.045,0.038l0.066,0.077l0.197,0.342
	l0.031,0.085l-0.021,0.054l-0.048,0.032l-0.035,0.039l0.015,0.074l0.024,0.029l0.068,0.041l0.027,0.027l0.018,0.048l-0.008,0.042
	l-0.015,0.038l0.002,0.038l0.175,0.482l0.058,0.121l0.155,0.198l0.073,0.115l0.164,0.349l0.029,0.09l-0.012,0.106l-0.106,0.135
	l0.002,0.129l0.02,0.055l0.031,0.054l0.074,0.098l0.049,0.081l0.011,0.064l0.002,0.062v0.001l0.021,0.076l0.064,0.094l0.18,0.178
	l0.075,0.098l0.05,0.104l0.124,0.382l0.07,0.135l0.085,0.069l0.092,0.06l0.09,0.106l0.02,0.05l0.031,0.167l0.032,0.059l0.112,0.083
	l0.051,0.052l0.056,0.107l0.128,0.354l-0.138,0.181l-0.099,0.267l-0.053,0.29v0.221l0.001,0.038l-0.004,0.017l-0.005,0.015
	l-0.01,0.01l-0.339,0.217l-0.053,0.078l-0.01,0.112l0.041,0.388l-0.008,0.1l-0.104,0.349l-0.004,0.129l0.013,0.16l-0.086,0.008
	l-0.074-0.011l-0.149-0.045l-0.089-0.036l-0.069-0.007l-0.158,0.04l-0.078-0.008l-0.152-0.072l-0.07-0.008l-0.086,0.032
	l-0.037,0.112l0.02,0.208l0.053,0.218l0.063,0.153l0.028-0.015v-0.086l0.063-0.448l-0.001-0.049l0.124,0.105l0.045,0.052
	l0.031,0.072l0.01,0.059l-0.005,0.498l-0.031,0.123l-0.085,0.029l0.119,0.229l0.042-0.074l0.032,0.104l-0.011,0.08l-0.024,0.078
	l-0.014,0.09l0.105,0.734l-0.013,0.178l-0.087,0.019l0.027,0.168l0.002,0.078l-0.016,0.091l0.044,0.027l0.038,0.05l0.07,0.136
	l0.023-0.06l0.012-0.094l-0.005-0.077l-0.022-0.022l-0.057,0.004l-0.012-0.049l0.014-0.097l-0.024-0.066l0.016-0.029l0.088-0.024
	l0.04,0.001l0.033,0.043l0.036,0.057l0.042,0.035l0.161,0.182l-0.068,0.271l-0.132,0.283l-0.043,0.218l0.132-0.102l0.077,0.039
	l0.003,0.104l-0.102,0.093l0.025,0.01l0.02,0.014l0.022,0.013l0.031,0.003l-0.021,0.097l0.006,0.085l0.037,0.054l0.068,0.008
	l0.002,0.055l0.014,0.051l0.053,0.103l0.009-0.028l0.008-0.02l0.005-0.023l-0.002-0.04l0.021,0.006l0.042-0.007l0.021,0.004
	l-0.019-0.06l-0.004-0.055l0.011-0.051l0.026-0.043l0.146,0.121l0.044,0.161l-0.02,0.352l0.079-0.153l0.04-0.172l0.047-0.352
	l0.052,0.107l0.038,0.183l0.037,0.103l-0.039,0.034l-0.285,0.508l-0.025,0.106l0.029,0.115l0.101,0.206l0.061,0.097l0.071,0.068
	l0.021,0.041l0.162-0.043l0.001-0.004l0.002,0.003l0.052,0.058l-0.034,0.127l0.021,0.082l0.054,0.06l0.058,0.01l0.064,0.002
	l0.076,0.029l0.097,0.109l0.188,0.433l0.058,0.022l0.237,0.038l0.073-0.008l0.144-0.057l0.121,0.001l0.117,0.054l0.128,0.097
	l-0.084,0.066l-0.026,0.092l0.02,0.11l0.052,0.119l0.083,0.071l0.097-0.019l0.099-0.043l0.087-0.003l0.042,0.032l0.117,0.122
	l0.129,0.08l0.046,0.042l0.053,0.082l0.075,0.07l0.09,0.004l0.101-0.013l0.095,0.016l0.071,0.071l0.076,0.103l0.088,0.074
	l0.108-0.009l0.089-0.034l0.095-0.009l0.091,0.021l0.083,0.058l0.192,0.292l0.022,0.033l0.012,0.074l-0.037,0.07l0.015,0.11
	l0.041,0.116l0.2,0.352l0.085,0.087l0.115,0.029l-0.01,0.037l-0.043,0.172l0.018,0.083l0.072,0.161l-0.003,0.002l-0.136,0.19
	l-0.009,0.235l0.086,0.25l0.779,1.307l-0.037,0.123v0.038l0.035,0.126l-0.016,0.242l0.033,0.104l0.097,0.096l0.107,0.061
	l0.077,0.076l0.018,0.245l0.085,0.166l0.015,0.119l0.052,0.027l0.044,0.066l0.123,0.26l0.037,0.203l0.051,0.116l0.248,0.39
	l0.013,0.049l-0.003,0.104l0.018,0.045l0.038,0.034l0.091,0.027l0.037,0.027l0.094,0.151l0.041,0.094l0.001,0.054l-0.04,0.077
	l-0.023,0.148l0.002,0.164l0.042,0.133l-0.03,0.018l0.219-0.042l0.056,0.003l0.05,0.018l0.08,0.018l0.08,0.004l0.053-0.023
	l0.011-0.129l-0.135-0.328l-0.015-0.14l-0.002-0.146l-0.109-0.336l-0.029-0.282l-0.125-0.465l0.028-0.017l0.282,0.332l0.503,1.423
	l0.018,0.184l0.032,0.105l0.057,0.107l0.188,0.293l0.033,0.114l-0.063,0.008l-0.099-0.019l-0.07,0.036l-0.007,0.093l0.079,0.206
	l0.024,0.107l-0.003,0.202l0.019,0.103l0.363,0.844l0.597,1.066l0.08,0.067l0.061,0.071l0.027,0.12l0.011,0.128l0.02,0.094
	l0.052,0.064l0.09,0.088l0.097,0.073l0.063,0.019l0.297,0.375l0.357,0.333l0.612,0.401l0.056,0.01l1.031,0.736l0.062,0.148
	l-0.05,0.025l-0.049-0.017l-0.044-0.005l-0.031,0.07l0.021,0.049l0.107,0.089l0.04,0.142l0.083,0.069l0.072,0.087l-0.01,0.132
	l0.023-0.011l0.021-0.006l0.022-0.012l0.025-0.023l-0.012,0.091l0.036,0.255l0.003,0.097l-0.009,0.077l-0.163,0.509l-0.171,0.278
	l0.064,0.045l0.045,0.071l0.084,0.181l0.237,0.383l0.075,0.088l0.09,0.028l0.271,0.016l0.046-0.005l0.043,0.02l0.048,0.07
	l0.033,0.063l0.024,0.037l0.029,0.027l0.048,0.02l0.056,0.011l0.054-0.007l0.054-0.001l0.062,0.026l0.041,0.04l0.161,0.235
	l0.103,0.124l0.112,0.094l0.096,0.018l0.026,0.058l0.261,0.228l0.354,0.4l0.198,0.119l0.182-0.131l0.023,0.077l0.054,0.089
	l0.081,0.104l0.033,0.247l0.224,0.237l0.069,0.111l0.057,0.058l0.395,0.22l0.473,0.097l0.086,0.027l0.081,0.05l0.272,0.213
	l0.313,0.129l0.331,0.214l0.188,0.068l0.206,0.019l0.284-0.051l0.101-0.032l0.055-0.025l0.057-0.018l0.109-0.002l0.047-0.012
	l0.098-0.008l0.9,0.261l0.107,0.059l0.258,0.244l0.199,0.143l0.084,0.08l0.111,0.167l0.186,0.19l0.03,0.042l0.054,0.092l0.15,0.189
	l0.06,0.098l0.004,0.222l0.062,0.112l0.417,0.465l0.141,0.026l0.079,0.067l0.065,0.093l0.017,0.094l0.057,0.062l0.069,0.135
	l0.042,0.055l0.066,0.047l0.201,0.111l0.103-0.076l0.125-0.018l0.119,0.04l0.108,0.113l0.03,0.002l0.034-0.01l0.035-0.019
	l0.044-0.01l0.022,0.017l0.022,0.028l0.036,0.028l0.278,0.102l-0.004,0.028l0.007,0.062l0.103-0.038l0.119-0.011l0.104,0.019
	l0.244,0.182l0.048,0.028l0.138,0.046l0.117,0.077l0.037,0.093l0.014,0.113l0.043,0.136l0.047,0.093l-0.946,0.761l-0.777,0.626
	l-1.022,0.825l-1.021,0.823l-0.063,0.052l-0.806,0.651l-0.604,0.489l-0.662,0.536l-0.459,0.371l-0.069,0.093l-0.012,0.004
	l-0.057,0.119l-0.063,1.036l-0.147,0.66l-0.051,0.436l-0.139,0.483l-0.015,0.182l0.006,0.358l-0.025,0.161l-0.107,0.188
	l-0.013,0.029l-0.022,0.181l-0.139,0.345l0.001,0.13l0.029,0.119l0.051,0.115l0.076,0.094l0.104,0.058l0.068,0.069l0.042,0.136
	l0.017,0.147l-0.011,0.112l0.071,0.02l0.05,0.166l0.096,0.076l0.001,0.145l0.082,0.064l0.114,0.052l0.1,0.097l0.065,0.088
	l0.036,0.07l0.008,0.074l-0.041,0.126l0.006,0.048l0.062,0.046l-0.026,0.095l0.079-0.004l0.077-0.13l0.077-0.016l0.062,0.001
	l0.061-0.015l0.119-0.06l0.109-0.095l0.152-0.21l0.114-0.031l-0.077-0.126l-0.099,0.009l-0.109,0.059l-0.105,0.023l0.041-0.164
	l-0.144-0.275l0.017-0.146l0.034,0.064l0.063-0.034l0.005,0.003l0.055,0.081l0.037,0.092l0.03,0.071l0.06,0.063l0.079,0.024
	l0.144,0.027l0.056,0.034l0.045,0.042l0.041,0.058l0.044,0.078l0.053,0.052l0.063-0.006l0.129-0.077l-0.008,0.052l-0.075,0.089
	l-0.009,0.036l0.042,0.035l0.132,0.056l0.051,0.054l0.033,0.042l0.088,0.077l0.036,0.046l0.121,0.217l0.075,0.08l0.105,0.061
	l0.06,0.009l0.043-0.005l0.041,0.012l0.046,0.064l0.175,0.063l0.003,0.026l-0.058,0.079l0.005,0.104l0.066,0.228l0.034,0.375
	l0.037,0.11l0.209,0.321l0.187,0.381l0.061,0.204l0.013,0.18l-0.032,0.19l0.008,0.109l0.212,0.055l0.02,0.017l0.034,0.045
	l0.025,0.019l0.014,0.003l0.05,0.004l0.008-0.002l0.071,0.079l0.027,0.079l0.015,0.087l0.04,0.105l0.075,0.11l0.075,0.064
	l0.077,0.054l0.078,0.074l0.034,0.052l0.024,0.063l0.013,0.063l-0.002,0.055l0.006,0.055l0.071,0.052l0.007,0.053l0.035,0.064
	l0.099,0.055l0.165,0.067l0.03,0.055l0.029,0.11l0.021,0.058l0.048,0.035l0.141,0.029l0.036,0.017l0.028,0.107l-0.007,0.114
	l-0.025,0.108l-0.031,0.084l-0.021,0.02l-0.053,0.025l-0.018,0.024l-0.006,0.035l-0.001,0.148l0.024,0.118l-0.008,0.063
	l-0.025,0.121l-0.001,0.129l0.02,0.127l0.037,0.12l0.108,0.206l0.018,0.055l0.01,0.116l0.016,0.054l0.012,0.059l-0.027,0.122
	l-0.002,0.056l0.02,0.049l0.06,0.094l0.022,0.05l0.011,0.059l0.006,0.142l-0.011,0.122l0.021,0.046l0.174,0.222l0.033,0.056
	l0.013,0.049l-0.005,0.077l0.005,0.032l0.021,0.052l0.087,0.152l0.018,0.219l-0.013,0.07l-0.002,0.088l0.036,0.112l0.122,0.152
	l-0.014,0.025l-0.05,0.131l-0.003,0.026l-0.028,0.458l0.032,0.088l0.136,0.241l0.057,0.062l0.041,0.023l0.12,0.108l0.055,0.03
	l0.096,0.034l0.046,0.028l0.216,0.232l0.021,0.047l-0.006,0.027l0.051,0.026l0.092,0.029l0.037,0.039l0.208,0.293l0.063,0.039
	l0.075-0.014l0.076,0.02l0.15,0.203l0.08,0.046l0.038-0.062l0.044-0.021l0.049,0.005l0.055,0.015l0.032,0.014l0.095,0.062
	l0.035,0.035l0.063-0.113l0.079,0.014l0.161,0.13l0.077,0.016l0.263,0.01l0.097-0.022l0.13-0.102l0.056,0.015l0.08,0.119
	l0.059,0.058l0.081,0.017l0.188,0.006l0.077,0.022l0.095,0.045l0.091,0.062l0.062,0.076l0.065,0.033l0.316,0.014l0.181,0.086
	l0.681,0.484l0.033,0.041l0.039,0.056l0.024,0.001l0.03-0.017h0.054l0.061-0.029l0.049-0.075l0.059-0.047l0.09,0.063l0.043-0.087
	l0.063-0.088l0.084-0.082l0.326-0.19h0.053l0.118,0.048l0.075,0.021l0.047-0.005l0.052-0.017l0.163-0.085l0.036-0.012l0.221,0.01
	l0.131-0.016l0.027-0.013l0.055-0.036l0.028-0.013l0.028,0.002l0.024,0.011l0.026,0.009l0.035-0.004l0.073-0.053l0.039-0.075
	l0.007-0.09l-0.03-0.093l-0.062-0.071l-0.061,0.003l-0.065,0.029l-0.077,0.01l-0.209-0.104l-0.034-0.027l-0.014-0.041l-0.006-0.051
	l-0.039-0.114l-0.045-0.206l-0.004-0.071l0.036-0.086l0.144-0.165l0.051-0.097l0.028-0.094l0.027-0.036l0.056-0.031l0.063-0.007
	l0.113,0.038l0.058,0.002l0.062-0.053l0.156-0.226l0.079-0.185l0.069-0.082l0.166-0.113l0.006,0.009l0.008,0.014l0.001,0.003
	l0.249,0.486l0.273,0.532l0.39,0.758l0.348,0.681l0.406,0.793l0.348,0.678l0.328,0.641l0.346,0.672l0.254,0.497l0.012,0.175
	l-0.054,0.045l-0.26,0.139l-0.184,0.04l-0.106,0.01l-0.081-0.005l-0.055-0.02l-0.05-0.03l-0.048-0.038l-0.042-0.045l-0.031-0.062
	l0.018-0.041l0.035-0.03l0.017-0.027l-0.015-0.046l-0.053-0.085l-0.015-0.042l0.011-0.048l0.062-0.061l0.018-0.039l0.002-0.043
	l-0.008-0.054l-0.019-0.053l-0.033-0.04l-0.062-0.029l-0.032,0.018l-0.028,0.03l-0.051,0.021l-0.105-0.012l-0.1-0.025l-0.098-0.004
	l-0.097,0.046l-0.07,0.096l-0.106,0.369l-0.053,0.102l-0.44,0.552l-0.145,0.298l-0.068,0.092l-0.036,0.063l-0.024,0.145
	l-0.028,0.049l-0.067,0.021l-0.063-0.034l-0.063-0.053L1266,785.86l-0.112,0.004l-0.096,0.055l-0.091,0.073l-0.029,0.017
	l-0.074,0.042l-0.058,0.07l-0.064,0.057l-0.072,0.021l-0.09-0.041l-0.189-0.063l-0.163-0.15l-0.469-0.591l-0.082-0.042l-0.046,0.003
	l-0.08,0.039l-0.052-0.003l-0.119-0.135l-0.018-0.002l-0.025,0.007l-0.026,0.006l-0.026-0.012l-0.018-0.023l-0.02-0.05l-0.014-0.018
	l-0.01-0.021l-0.007-0.059l-0.01-0.025l-0.024-0.01l-0.065,0.009l-0.027-0.012l-0.12-0.142l-0.055-0.033l-0.106-0.026l-0.477-0.239
	l-0.258-0.093l-0.21,0.061l-0.032,0.066l0.011,0.161l-0.011,0.077l-0.047,0.064l-0.062,0.031l-0.064-0.019l-0.137-0.224
	l-0.121-0.071l-0.14-0.048l-0.146-0.073l-0.088-0.101l0.006-0.086l0.037-0.087l0.007-0.101l-0.06-0.117l-0.087-0.062l-0.219-0.083
	l-0.104-0.073l-0.196-0.179l-0.107-0.066l-0.504-0.133l-0.092-0.004l-0.089,0.017l-0.084,0.039l-0.072,0.058l-0.106,0.061
	l-0.098-0.015l-0.097-0.032l-0.097,0.007l-0.085,0.085l-0.024,0.099l-0.045,0.06l-0.144-0.031l-0.04-0.029l-0.032-0.039
	l-0.034-0.031l-0.05-0.004l-0.313,0.135l-0.059,0.037l-0.064,0.055l-0.106,0.021l-0.077-0.081l-0.076-0.105l-0.103-0.049
	l-0.31-0.022l-0.101,0.013l-0.107,0.045l-0.033,0.065l-0.013,0.087l-0.038,0.11l-0.108,0.106l-0.18,0.114l-0.188,0.084l-0.135,0.022
	l-0.285-0.111l-0.033-0.007l-0.32-0.073l-0.114-0.056l-0.534-0.513l-0.115-0.171l-0.385-0.253l-1.031-0.086l-0.313-0.339
	l-0.076-0.157l-0.139-0.211l-0.155-0.184l-0.13-0.07l-0.023,0.02l-0.089,0.113l-0.164,0.115l-0.122,0.142l-0.039,0.025l-0.097,0.034
	l-0.032,0.027l-0.02,0.095l0.05,0.084l0.156,0.164l0.06,0.125l-0.005,0.094l-0.024,0.097l-0.007,0.133l0.06,0.2l0.187,0.38
	l0.018,0.219l-0.057,0.23l-0.102,0.187l-0.147,0.138l-0.201,0.084l-0.103,0.061l-0.029,0.091l-0.004,0.104l-0.024,0.1l-0.071,0.067
	l-0.088,0.004l-0.101-0.02l-0.105-0.006l-0.171,0.052l-0.339,0.16l-0.173,0.03l-0.107-0.021l-0.1-0.031l-0.102-0.02l-0.113,0.022
	l-0.151,0.091l-0.134,0.113l-0.03,0.044l-0.046,0.104l-0.033,0.046l-0.049,0.025l-0.107,0.003l-0.139,0.094l-0.105,0.003
	l-0.112-0.011l-0.112,0.014l-0.687,0.407l-0.058,0.021l-0.09,0.004l-0.134-0.106l-0.083-0.016l-0.106,0.015l-0.329-0.07
	l-0.028-0.013l-0.028-0.004l-0.049,0.017l-0.024,0.025l-0.057,0.087l-0.042,0.03l-0.232,0.132l-0.082,0.026l-0.208-0.01
	l-0.199-0.053l-0.193-0.017l-0.188,0.098l-0.016,0.046l0.015,0.054l0.008,0.05l-0.035,0.04l-0.045,0.037l-0.014,0.042l-0.007,0.044
	l-0.025,0.043l-0.078,0.051l-0.077,0.003l-0.06-0.047l-0.028-0.131l-0.014-0.025l-0.015-0.022l-0.02-0.02l-0.11-0.028l-0.299,0.011
	l-0.057-0.015l-0.04-0.028l-0.044-0.014l-0.059,0.018l-0.051,0.031l-0.037,0.014l-0.038-0.001l-0.056-0.02l-0.082-0.055
	l-0.318-0.304l-0.057-0.073l-0.023-0.042l-0.008-0.054l0.014-0.102l-0.019-0.045l-0.076-0.063l-0.19-0.121l-0.084-0.074
	l-0.067-0.108l0.005-0.068l0.024-0.069l-0.014-0.102l-0.043-0.028l-0.067-0.011l-0.044-0.027l0.023-0.065l0.063-0.086l0.014-0.049
	l-0.022-0.045l-0.062-0.088l-0.061-0.118l-0.067-0.096l-0.077-0.021l-0.113,0.097l-0.262,0.432l-0.209,0.195l-0.543,0.391
	l-0.163,0.074l-0.136,0.155l-0.205,0.335l-0.135,0.127l-0.303,0.177l-0.114,0.16l-0.018,0.071l-0.011,0.151l-0.013,0.066
	l-0.03,0.047l-0.077,0.074l-0.025,0.039l-0.016,0.055l-0.003,0.052l0.009,0.051l0.017,0.059l-0.005,0.052l-0.038,0.032l-0.049,0.023
	l-0.037,0.025l-0.128,0.167l-0.075,0.067l-0.099,0.046l-0.104,0.004l-0.218-0.059l-0.124-0.007l-0.082,0.029l-0.169,0.096
	l-0.084,0.004l-0.081-0.061l0.022-0.078l0.136-0.152l0.016-0.089l-0.002-0.298l-0.011-0.09l-0.036-0.097l-0.048-0.1l-0.062-0.091
	l-0.066-0.066l-0.051-0.022l-0.107-0.027l-0.054-0.038l-0.034-0.065l0.005-0.062l0.011-0.058l-0.017-0.062l-0.1-0.064l-0.159-0.041
	l-0.164-0.013l-0.118,0.009l-0.081,0.032l-0.149,0.088l-0.087,0.033l-0.178,0.04l-0.069,0.036l-0.064,0.075l-0.073,0.061
	l-0.06-0.041l-0.081-0.152l-0.038-0.048l-0.083-0.074l-0.038-0.042l-0.021-0.043l-0.025-0.094l-0.022-0.039l-0.149-0.044
	l-0.215,0.032l-0.214,0.07l-0.141,0.075l-0.052,0.084l0.021,0.111l0.044,0.116l0.021,0.109l-0.015,0.063l-0.054,0.105l-0.016,0.057
	l0.001,0.061l0.03,0.118l-0.003,0.059l-0.104,0.135l-0.18,0.06l-0.202,0.039l-0.165,0.07l-0.15,0.108l-0.142,0.065l-0.402,0.097
	l-0.296,0.07l-0.166,0.077l-0.157,0.104l-0.139,0.153l-0.171,0.321l-0.281,0.528l-0.294,0.255l-0.357,0.313l-0.181,0.106
	l-0.17,0.066l-0.104,0.01l-0.218-0.021l-0.111,0.001l-0.098,0.051l-0.061,0.103l-0.045,0.12l-0.053,0.103l-0.131,0.114l-0.165,0.076
	l-0.182,0.042l-0.19,0.022l-0.39,0.046l-0.133,0.109l0.091,0.432l-0.051,0.178l-0.312,0.385l-0.03,0.08l-0.051,0.31l-0.044,0.097
	l-0.099,0.066l-0.054-0.216l-0.101-0.195l-0.288-0.364l-0.077-0.068l-0.148-0.091l-0.061-0.068l-0.027-0.015l-0.087-0.013
	l-0.026-0.015l-0.105-0.17l-0.277-0.259l-0.079-0.048l-0.046-0.073l0.009-0.139l0.038-0.146l0.037-0.102l0.122-0.176l0.081-0.091
	l0.068-0.06l0.016-0.06l-0.04-0.093l-0.118-0.165l-0.001-0.018l0.005-0.04l-0.137-0.077l-0.107-0.152l-0.055-0.096l-0.05-0.091
	l-0.131-0.181l-0.096-0.07l-0.088-0.03l-0.077-0.037l-0.067-0.09l-0.029-0.11l-0.009-0.216l-0.021-0.078l-0.023-0.049l-0.034-0.102
	l-0.026-0.054l-0.046-0.044l-0.107-0.045l-0.118-0.114l-0.209-0.129l-0.202-0.169l-0.225-0.144l-0.201-0.161l-0.062-0.164
	l-0.055-0.044l-0.153-0.169l-0.235-0.199l-0.131-0.139l-0.094-0.082l-0.1-0.04l-0.226-0.017l-0.107-0.023l-0.062,0.001l-0.008,0.049
	l-0.022,0.027h-0.056l-0.422-0.163l-0.127-0.097l-0.099-0.143l-0.016,0.031l-0.046,0.065l-0.016,0.029l-0.167-0.142l-0.445-0.146
	l-0.211-0.117l-0.161-0.166l-0.295-0.371l-0.166-0.155l-0.057-0.03l-0.126-0.051l-0.048-0.041l-0.031-0.06l-0.016-0.119
	l-0.071-0.176l-0.051-0.358l-0.075-0.218l-0.115-0.188l-0.336-0.43l-0.267-0.561l-0.158-0.233l-0.192-0.386l-0.026-0.136
	l-0.063-0.171l0.01-0.049l-0.14-0.318l-0.161-0.366l-0.041-0.167l-0.016-0.192l-0.035,0.016l-0.021,0.002l-0.018-0.003l-0.027,0.004
	l-0.121-0.413l-0.109-0.215l-0.157-0.181l-0.213-0.119l-0.121-0.089l-0.011-0.067l0.02-0.039l0.02-0.037l-0.094-0.062l-0.204-0.061
	l-0.086-0.063l-0.183-0.196l-0.132-0.193l-0.062-0.071l-0.064-0.048l-0.188-0.072l-0.097-0.057l-0.086-0.078l-0.079-0.106
	l-0.062-0.038l-0.182-0.005l-0.064-0.013l-0.071-0.073l-0.209-0.311l-0.015-0.054l0.003-0.127l-0.021-0.063l-0.039-0.052
	l-0.101-0.105l-0.104-0.221l-0.023-0.09l-0.047-0.177l-0.032-0.124l-0.054-0.205l-0.049-0.188l-0.029-0.109l-0.019-0.072
	l-0.047-0.092l-0.003-0.036l0.019-0.105l-0.009-0.044l-0.109-0.176l-0.04-0.041l-0.03-0.018l-0.028-0.024l-0.033-0.06l-0.019-0.063
	l-0.021-0.117l-0.03-0.066l-0.026-0.021l-0.068-0.021l-0.025-0.021l-0.011-0.025l-0.005-0.056l-0.012-0.032l-0.048-0.052
	l-0.046-0.021l-0.051-0.017l-0.058-0.038l-0.007-0.03v-0.047l-0.014-0.045l-0.051-0.03l-0.042-0.017l-0.235-0.17l-0.048-0.021
	l-0.047-0.003l-0.034,0.006l-0.03-0.015l-0.008-0.019l-0.089,0.05l-0.141,0.084l-0.306,0.181l-0.307,0.181l-0.305,0.182
	l-0.306,0.181l-0.307,0.183l-0.307,0.181l-0.305,0.182l-0.307,0.183l-0.305,0.182l-0.307,0.181l-0.305,0.184l-0.307,0.181
	l-0.306,0.183l-0.306,0.184l-0.306,0.182l-0.306,0.182l-0.195,0.117l-0.153-0.228l-0.147-0.222l-0.114-0.234l-0.076-0.31
	l-0.058-0.231l-0.099-0.403l-0.086-0.348l-0.243,0.147l-0.365,0.216l-0.354,0.211l-0.223,0.133l-0.043,0.037l-0.016,0.052
	l0.012,0.092l0.024,0.079l0.081,0.166l0.044,0.069l-0.202,0.12l-0.18,0.105l-0.176,0.106l-0.179,0.104l-0.178,0.105l-0.178,0.104
	l-0.178,0.106l-0.13,0.079l-0.048,0.026l-0.179,0.105l-0.177,0.106l-0.178,0.104l-0.178,0.105l-0.178,0.106l-0.179,0.106
	l-0.178,0.104l-0.178,0.105l-0.178,0.106l-0.221,0.132l0.2,0.14l0.042,0.045l0.022,0.091l-0.009,0.234l0.008,0.114l0.057,0.177
	l0.451,0.786l0.109,0.14l0.139,0.142l0.314,0.244l0.092,0.146l-0.051,0.177l-0.002,0.004l-0.002,0.004l-0.002,0.006l-0.004,0.116
	l0.075,0.207l-0.015,0.105l-0.066,0.07l-0.308,0.146l0.071,0.128l0.116,0.104l0.129,0.095l0.111,0.102l0.076,0.11l0.063,0.132
	l0.105,0.335l0.05,0.162l0.079,0.249l0.082,0.15l0.092,0.112l0.324,0.305l-0.114,0.067l-0.533,0.321l-0.534,0.319l-0.534,0.319
	l-0.533,0.319l-0.186,0.111l-0.137-0.069l-0.064-0.042l-0.106-0.118l-0.053-0.003l-0.301,0.18l-0.327,0.197l-0.303,0.181
	l-0.024,0.07l0.051,0.095l0.138,0.158l-0.081,0.054l-0.028,0.011l-0.255,0.159l-0.062,0.053l-0.057,0.109l-0.05,0.059l-0.057,0.029
	l-0.2,0.028l-0.211,0.115l-0.321,0.173l-0.062,0.052l-0.11,0.192l-0.053,0.058l-0.042,0.095l0.031,0.131l0.081,0.129l0.105,0.1
	l-0.369,0.235l-0.131,0.04l-0.348-0.068l-0.166,0.01l-0.151,0.068l-0.058,0.055l-0.155,0.313l-0.047,0.038l-0.181,0.028
	l-0.134,0.065l-0.263,0.352l-0.117,0.073l-0.277,0.078l-0.061-0.02l-0.003-0.001l-0.079-0.05l-0.04-0.159l-0.067-0.068l-0.057-0.013
	l-0.128,0.004l-0.072-0.017l-0.052-0.031l-0.138-0.123l-0.004,0.035l-0.011,0.038l0.002,0.026l-0.036-0.025l-0.017-0.007
	l-0.008-0.016l-0.003-0.046l-0.124,0.007l-0.059-0.007l-0.035-0.021l-0.021-0.075l0.011-0.067l-0.013-0.049l-0.088-0.031
	l-0.049,0.058l-0.037-0.026l-0.037-0.06l-0.049-0.044l-0.049,0.014l-0.055,0.033l-0.037,0.008l0.011-0.064l-0.021-0.031l-0.08,0.046
	l-0.05-0.029l-0.035-0.059l-0.037-0.039l-0.056,0.003l-0.108,0.043l-0.036-0.013l-0.044-0.032l-0.127-0.027l-0.063-0.045
	l-0.012-0.051l-0.004-0.059l-0.028-0.041l-0.092,0.012l0.004-0.032v-0.002l-0.016-0.003l-0.033-0.029l-0.04,0.07l-0.061-0.067
	l-0.07-0.109l-0.07-0.063l-0.044-0.096l-0.132-0.018l-0.282,0.012l-0.132-0.063l-0.222-0.178l-0.129-0.07l-0.067-0.016l-0.055-0.006
	l-0.049-0.014l-0.04-0.038l-0.015-0.068l0.031-0.056l0.037-0.048l0.003-0.043l-0.039-0.024l-0.053,0.003l-0.107,0.028h-0.048
	l-0.039-0.003l-0.019,0.023l0.011,0.086l-0.091-0.007l-0.067-0.05l-0.078-0.11l-0.035-0.049l-0.066-0.059l-0.079-0.02l-0.148,0.01
	l-0.22-0.024l-0.139,0.031l-0.058-0.044l-0.049-0.071l-0.063-0.065l-0.141-0.064l-0.094-0.028l-0.061-0.003l-0.05-0.026
	l-0.163-0.252l-0.298-0.252l-0.07-0.122l0.163-0.042l-0.064-0.105l-0.026-0.097l-0.033-0.081l-0.093-0.061l-0.048-0.022
	l-0.043-0.026l-0.046-0.013l-0.056,0.019l-0.053,0.003l-0.03-0.044l-0.016-0.053l-0.003-0.025l-0.216-0.247l-0.131-0.084
	l-0.158-0.017l-0.056,0.019l-0.111,0.051l-0.059,0.01l-0.083-0.021l-0.063-0.05l-0.055-0.064l-0.064-0.059l-0.482-0.216
	l-0.087-0.058l-0.077-0.071l-0.133-0.165l-0.076-0.073l-0.172-0.118l-0.066-0.068l-0.04-0.091l-0.016-0.13l-0.028-0.047
	l-0.076-0.029l-0.075-0.019l-0.058-0.026l-0.038-0.053l-0.02-0.086l-0.097,0.054l-0.031-0.047l-0.007-0.088l-0.018-0.077
	l-0.052-0.055l-0.027,0.007l-0.023,0.024l-0.041-0.003l-0.055-0.028l-0.021-0.014l-0.123-0.183l-0.017-0.058l0.027-0.036
	l0.037-0.027l0.013-0.032l-0.027-0.05l-0.04-0.04l-0.045-0.035l-0.035-0.036l-0.242-0.345l-0.043-0.083l-0.011-0.08l-0.033-0.067
	l-0.088-0.049l-0.14-0.047l-0.064-0.053l-0.067-0.002l-0.072,0.014l-0.07,0.001l-0.149-0.065l-0.082-0.012l-0.092,0.043l0.011-0.17
	l-0.05-0.038l-0.035,0.029l-0.024,0.047l-0.024,0.017l-0.05-0.045l-0.225-0.286l-0.038-0.039l-0.057-0.038l-0.083-0.033l-0.021-0.03
	l0.005-0.109l-0.013-0.051l-0.222,0.01h-0.045l-0.214,0.026l-0.092,0.027l-0.079,0.043l-0.076,0.065l-0.108,0.128l-0.058,0.049
	l-0.078,0.031l-0.133,0.003l-0.11-0.019l-0.109-0.004l-0.128,0.04l-0.251,0.158l-0.392,0.245l-0.278,0.176l-0.112,0.069
	l-0.391,0.245l-0.391,0.245l-0.392,0.248l-0.391,0.245l-0.391,0.247l-0.392,0.246l-0.393,0.247l-0.392,0.246l-0.392,0.246
	l-0.392,0.247l-0.392,0.248l-0.393,0.248l-0.392,0.246l-0.394,0.248l-0.161,0.103l-0.24,0.152l-0.476,0.445l-0.146,0.067
	l-0.332,0.093l-0.171,0.156l-0.402,0.232l-0.462,0.267l-0.096,0.041l-0.33,0.059l-0.109,0.048l-0.489,0.358l-0.084,0.014
	l-0.152-0.001l-0.211,0.049l-0.559,0.414l-0.681,0.505l-0.375,0.171l-0.034,0.035l-0.055,0.084l-0.051,0.035l-0.162,0.036
	l-0.355,0.206l-0.146,0.085l-0.014,0.039l-0.013,0.156l-0.02,0.066l-0.198,0.008l-0.219,0.062l-0.396,0.193l-0.005,0.002v-0.001
	l-0.082,0.006l-0.062,0.053l-0.104,0.135l-0.064,0.044l-0.088,0.036l-0.092,0.069l-0.155,0.058l-0.282,0.025l-0.07,0.024
	l-0.202,0.029l-0.089,0.023l-0.124,0.074l-0.147,0.125l-0.124,0.146l-0.056,0.142l-0.021,0.039l-0.043,0.137l0.005,0.108
	l0.018,0.117l-0.004,0.215l0.191,0.21l-0.147,0.234l-0.295,0.165l-0.124,0.265l-0.284,0.31l-0.092,0.101l-0.067,0.035l-0.074-0.068
	l-0.007-0.048l0.045-0.118l-0.084-0.111l-0.028-0.037l-0.063,0.002l-0.077,0.039l-0.061,0.061l0.013,0.045l-0.014,0.039l0.021,0.092
	l-0.13-0.069l-0.087-0.071l-0.041-0.025l-0.039-0.007l-0.076,0.002l-0.026-0.002l-0.188-0.067l-0.54-0.134l-0.155-0.056l-0.406-0.2
	l0.118-0.258l0.336-0.287l0.405-0.242l0.328-0.194l-0.316-0.444l-0.222-0.313l-0.426-0.6l-0.409-0.576l-0.292-0.414l-0.264-0.372
	l-0.151-0.141l-0.085-0.009l-0.354,0.064l-0.044-0.01l-0.053-0.035l-0.047-0.046l-0.028-0.041l-0.014-0.061l0.021-0.026l0.037-0.016
	l0.034-0.027l0.27-0.364l0.08-0.216l-0.064-0.225l-0.061-0.104l0.016-0.057l0.162-0.117l0.078-0.106l-0.008-0.074l-0.049-0.081
	l-0.037-0.125l0.022-0.101l0.105-0.245l-0.001-0.084l-0.076-0.116l-0.051-0.125l-0.026-0.133l0.007-0.133l0.074-0.166l0.713-0.751
	l0.113-0.158l-0.066-0.161l-0.131-0.156l-0.007-0.15l0.101-0.077l0.188,0.063l0.091,0.049l0.174,0.077l0.174,0.125l0.079,0.022
	l0.181,0.008l0.357,0.07l0.124,0.009l0.348-0.061h0.096l0.074,0.019l0.067,0.043l0.157,0.147l0.251,0.151l0.017-0.069l0.003-0.233
	l0.094-0.321l0.03-0.058l-0.015-0.044l-0.049-0.03l-0.076-0.015l0.076-0.179l0.045-0.037l0.078-0.009l0.161,0.046l0.073-0.007
	l0.03-0.037l0.039-0.048l-0.047-0.252l0.044-0.122l0.047-0.022l0.124-0.031l0.036-0.027l-0.002-0.048l-0.078-0.081l-0.021-0.064
	l0.021-0.042l0.046-0.01l0.035-0.018l-0.001-0.06l-0.214-0.17l-0.063-0.116l-0.075-0.236l-0.053-0.103l-0.395-0.438l-0.023-0.065
	l0.029-0.062l0.205-0.277l0.098-0.045l0.153,0.01l0.085,0.035l0.156,0.088l0.083,0.019l0.051-0.015l0.118-0.084l0.006-0.001
	l0.16-0.038l0.043-0.028l0.024-0.059l0.003-0.143l0.03-0.099l0.002-0.017l-0.004-0.018l-0.009-0.272l0.113-0.171l0.354-0.288
	l0.128-0.163l0.104-0.188l0.049-0.259l0.042-0.123l0.164-0.176l0.109-0.228l0.078-0.058l0.043,0.008l0.038,0.031l0.037,0.053
	l0.038,0.066l0.032,0.082l0.004,0.035l0.021,0.025l0.081,0.052l0.16,0.077l0.169,0.059l0.233,0.016l0.053,0.016l0.053,0.1
	l0.007,0.134l-0.008,0.137l0.006,0.104l-0.011,0.091l-0.113,0.177l-0.02,0.112l0.015,0.092l0.024,0.04l0.112,0.088l0.172,0.162
	l0.134,0.051l0.116,0.026l0.104,0.048l0.106,0.11l0.025,0.051l0.027,0.105l0.023,0.052l0.044,0.055l0.051,0.034l0.055,0.03
	l0.055,0.04l0.201,0.416l0.125,0.135l0.065-0.061l0.076-0.065l0.031-0.063l0.015-0.159l0.031-0.062l0.067-0.077l0.084-0.047
	l0.074,0.031l0.034,0.007l0.09-0.062l0.041-0.019l0.036,0.01l0.083,0.042l0.028,0.002l0.071-0.015l0.203,0.009l0.064-0.01
	l0.155-0.12l0.095-0.128l0.149-0.375l0.137-0.223l0.025-0.104l-0.007-0.1l-0.024-0.1l-0.114-0.878l0.077-0.573l-0.018-0.08
	l-0.002-0.074l0.143-0.273l0.026-0.156l-0.026-0.503l-0.021-0.357l-0.023-0.08l-0.021-0.123l0.059-0.135l0.08-0.13l0.043-0.113
	l0.299-0.569l0.123-0.173l0.066-0.129l0.026-0.039l-0.007-0.044l0.018-0.172l-0.007-0.058l-0.206-0.564l-0.01-0.125l0.027-0.1
	l0.05-0.087l0.483-0.609l0.174-0.146l0.176-0.152l0.151-0.184l0.102-0.202l0.005-0.038l0.027-0.178l-0.124-0.338l-0.01-0.065
	l0.005-0.058l-0.051-0.35l-0.092-0.28l0.015-0.108l-0.046-0.13l-0.105-0.517l0.013-0.541l-0.053-0.275l-0.096-0.321l-0.077-0.558
	l-0.048-0.185l-0.043-0.106l-0.074-0.122l-0.062-0.039l-0.081-0.01l-0.094-0.026l-0.099-0.092l-0.126-0.235l-0.082-0.114
	l-0.107-0.069l-0.079-0.072l-0.171-0.281l-0.225-0.271l-0.158-0.26l-0.147-0.169l-0.237-0.274l-0.045-0.076l-0.039-0.078
	l-0.146-0.423l-0.431-0.805l-1.01-1.134l-0.177-0.245l-0.043-0.044l-0.029-0.02l-0.092-0.046l-0.07-0.07l-0.049-0.088l-0.103-0.265
	l-0.022-0.034l-0.035-0.035l-0.088-0.114l-0.049-0.137l-0.021-0.141l-0.003-0.23l0.033-0.181l0.06-0.173l0.062-0.425l0.079-0.278
	l0.065-0.488l-0.001-0.141l0.012-0.067l0.012-0.025l0.049-0.076l0.032-0.116l0.018-0.03l-0.035-0.08l-0.02-0.077v-0.022
	l-0.015-0.753l-0.032-0.167l-0.08-0.17l-0.125-0.175l-0.035-0.062l-0.037-0.101l-0.025-0.105l-0.021-0.212l-0.013-0.146
	l-0.063-0.304l-0.005-0.313l-0.099-0.487l-0.008-0.168l-0.063-0.234l-0.045-0.278l-0.052-0.177l-0.005-0.051l0.007-0.052
	l0.055-0.133l0.077-0.323l0.013-0.274l0.055-0.289l0.009-0.207l-0.009-0.039l0.019-0.029l0.023-0.066l0.018-0.03l0.128-0.113
	l0.173-0.201l0.209-0.323l0.07-0.081l0.208-0.174l0.187-0.217l0.026-0.062l0.006-0.176l-0.006-0.035l0.077-0.141l0.012-0.054
	l0.004-0.188l0.033-0.197l0.033-1.222l0.013-0.515l0.042-0.137l0.005-0.115l0.023-0.077l0.002-0.027l-0.008-0.027l-0.044-0.084
	l-0.009-0.052l-0.001-0.053l0.079-0.492l-0.007-0.143l-0.002-0.073l-0.688-0.93l-0.482-0.474l-0.104-0.13l-0.08-0.143l-0.497-1.121
	l-0.025-0.258l-0.246-1.478l0.059-0.936l-0.02-0.108l-0.246-0.585l-0.059-0.096l-0.084-0.097l-0.095-0.065l-0.091-0.009
	l-0.226-0.229l-0.098-0.126l-0.082-0.162l-0.148-0.489l-0.077-0.16l-0.496-0.658l-0.221-0.461l-0.248-0.369l-0.034-0.15
	l-0.017-0.269l0.033-0.2l-0.002-0.512l-0.022-0.132l-0.157-0.366l-0.151-0.734l-0.08-0.222l-0.028-0.126l-0.088-0.894l-0.048-0.124
	l-0.826-1.605l-0.037-0.103l-0.046-0.213l-0.033-0.106l-0.042-0.088l-0.151-0.245l-0.241-0.551l-0.096-0.165l-0.109-0.157
	l-0.041-0.081l-0.11-0.692l0.002-0.084l0.031-0.223l-0.01-0.067l0.063-0.072l0.005-0.111l-0.031-0.23l0.001-0.131l-0.011-0.127
	l-0.026-0.126l-0.109-0.356l-0.008-0.108l0.015-0.125l0.113-0.447l0.038-0.045l-0.01-0.053l-0.004-0.913l-0.072-0.44l-0.058-0.158
	l-0.021-0.082l-0.029-0.342l0.012-0.189l-0.008-0.068l-0.042-0.131l-0.01-0.065l0.004-0.177l-0.118-0.626l0.011-0.132l0.055-0.129
	l0.11-0.188l0.034-0.115l-0.015-0.106l-0.022-0.071l-0.019-0.146l-0.339-0.818l-0.372-0.661l-0.111-0.128l-0.772-1.177l-0.242-0.718
	l-0.09-0.175l-0.035-0.065l-0.051-0.125l0.002-0.236l-0.028-0.139l-0.047-0.141l-0.164-0.343l-0.285-0.418l-0.161-0.177
	l-0.333-0.265l-0.074-0.088l-0.056-0.042l-0.184-0.055l-0.08-0.071l-0.037-0.129l-0.001-0.177l0.038-0.148l0.09-0.04l0.111,0.014
	l0.098-0.028l0.086-0.058l0.08-0.072l0.164-0.202l0.082-0.204l0.019-0.234l-0.105-0.798l0.018-0.241l0.079-0.229l-0.027-0.184
	l0.007-0.014l0.009-0.03l0.066-0.086l0.01-0.028l-0.001-0.391l0.041-0.125l0.047-0.102l0.023-0.111l-0.065-0.221l0.01-0.061
	l0.022-0.056l0.014-0.068l-0.004-0.063l-0.044-0.187l-0.011-0.151l0.015-0.129l0.046-0.175l0.018-0.07l0.058-0.075l0.203-0.11
	l0.063-0.063l0.018-0.184l-0.002-0.172l0.009-0.064l0.149-0.229l0.247-0.508l0.015-0.206l0.03-0.106l0.084-0.086l0.291-0.149
	l0.084-0.062l0.099-0.158l0.077-0.07l0.207-0.003l0.506-0.271l0.045-0.011l0.113-0.002l0.149-0.042l0.256-0.003l0.087,0.015
	l0.086,0.043l0.07,0.051l0.153,0.109l0.063,0.068l0.082,0.043l0.132-0.014l0.438-0.123l0.161,0.019l0.158,0.047l0.195,0.034
	l0.359-0.031l0.117,0.016l0.351,0.178l0.127,0.036l0.104,0.002l0.248-0.035l0.098-0.038l0.092-0.004l0.111,0.049l0.169,0.112
	l0.224,0.191l0.057,0.019l0.094-0.004l0.136,0.046l0.132,0.078l0.085,0.092l0.013,0.089l0.001,0.114l0.03,0.113l0.104,0.087
	l0.031,0.011l0.716,0.248l0.125,0.019l0.116-0.029l0.34-0.283l0.35-0.197l0.095-0.079l0.046-0.079l0.025-0.077l0.041-0.073
	l0.165-0.112l0.458-0.127l0.52-0.057l0.08-0.024l0.056,0.018l0.182,0.133l0.079,0.041l0.129-0.018h0.07l0.08,0.065l0.041-0.002
	l0.092-0.046l0.054-0.007l0.049,0.014l0.048,0.006l0.053-0.035l0.026-0.05l0.007-0.058l0.002-0.058l0.009-0.049l0.018-0.049
	l0.022-0.04l0.034-0.037l0.055-0.037l0.056-0.01l0.049,0.02l0.041,0.025l0.295,0.041l0.094-0.005l0.118-0.023l0.089-0.039
	l0.186-0.119l0.063-0.019l0.06,0.01l0.051,0.018l0.046,0.007l0.053-0.017l0.088-0.05l0.058-0.001l0.285-0.5l0.07-0.051l0.174-0.078
	l0.143-0.099l0.069-0.026l0.113-0.014l0.032,0.01l0.024,0.017l0.032,0.006l0.054-0.02l0.123-0.078l0.043-0.016h0.104l0.092,0.023
	l0.099,0.014l0.118-0.037l0.266-0.126l0.082-0.071l0.032-0.043l0.012-0.023l0.019-0.02l0.051-0.031l0.04-0.007l0.156-0.003
	l0.122-0.001l0.25-0.077l0.104-0.013l0.035,0.01l0.136,0.054l0.063,0.007l0.125-0.013l0.14,0.019l0.482-0.129l0.508-0.332
	l0.029-0.044l0.064-0.091l0.018-0.028l0.085-0.217l0.029-0.136l-0.011-0.101l0.006-0.032l0.035-0.129l-0.004-0.066l-0.026-0.043
	l-0.085-0.096l-0.034-0.056l-0.022-0.352l0.008-0.067l0.041-0.046l0.029-0.073l0.011-0.08l-0.012-0.068l-0.032-0.032l-0.134-0.062
	l-0.077-0.09l-0.086-0.137l-0.044-0.139l0.048-0.1l0.196-0.104l0.088-0.063l0.041-0.07l-0.003-0.064l-0.021-0.06l-0.066-0.122
	l-0.003-0.035l0.031-0.085l-0.002-0.035l-0.008-0.038l-0.007-0.115l-0.009-0.042l-0.032-0.046l-0.083-0.09l-0.035-0.059l0.038-0.081
	l0.018-0.081l0.002-0.087l-0.009-0.099l-0.047-0.201l0.001-0.1l0.057-0.073l0.083-0.007l0.113,0.004l0.08-0.024l-0.026-0.17
	l0.048-0.142l0.008-0.071l-0.069-0.036l-0.052-0.049l-0.032-0.063l-0.011-0.078l0.014-0.077l0.03-0.022l0.05-0.009l0.064-0.032
	l0.039-0.05l0.034-0.061l0.04-0.054l0.056-0.024l0.059,0.02l0.121,0.11l0.107,0.08l0.06,0.067l0.063,0.052l0.068-0.002l0.063-0.023
	l0.068-0.005l0.072,0.011l0.073,0.021l0.122-0.009l0.096-0.081l0.132-0.227l0.102,0.028l0.207,0.116l0.072,0.005l0.024,0.009
	l0.169,0.019l0.136,0.111l0.046-0.005l0.108-0.032l0.026,0.001l0.021,0.012l0.08,0.03l0.022,0.004l0.088-0.043l0.087-0.028
	l0.094-0.011l0.104,0.007l0.02-0.041l0.084-0.042l0.025-0.036v-0.051l-0.017-0.039l-0.024-0.045l-0.026-0.063l-0.02-0.108
	l0.013-0.094l0.051-0.081l0.095-0.072l0.059-0.077l0.126-0.398l0.065-0.101l0.169-0.174l0.105-0.209l0.07-0.082l0.18-0.142
	l0.073-0.099l0.089-0.233l0.062-0.075l0.055-0.022l0.1-0.022l0.035-0.015l0.031-0.038l0.02-0.069l0.025-0.028l0.21-0.061
	l0.105-0.059l-0.041-0.064l-0.048-0.037l-0.031-0.06l-0.014-0.059l0.001-0.042l0.019-0.031l0.032-0.004l0.106,0.038l0.046-0.101
	l0.153-0.25l0.051-0.171l0.046-0.094l0.074-0.062l0.062-0.007l0.122,0.02l0.066-0.02l0.029-0.051l0.018-0.255l0.046-0.107
	l0.073-0.076l0.092-0.005l0.099,0.106l0.027-0.016l0.02-0.052l-0.012-0.042l-0.027-0.048l-0.019-0.065l-0.031-0.174v-0.018
	l0.021-0.066l0.285-0.226l0.049-0.094l0.015-0.102l-0.043-0.058l-0.122,0.037l-0.074-0.021l-0.033-0.126l-0.004-0.154l0.02-0.107
	l0.053,0.042l0.127,0.125l0.05,0.029l0.076-0.006l-0.012-0.046l-0.042-0.069l-0.017-0.065l0.081-0.093l0.105-0.027l0.031-0.008
	l0.155,0.003l0.123,0.021l0.047,0.025l0.093,0.074l0.047,0.022l0.057-0.003l0.119-0.045l0.069-0.006l0.066,0.024l0.056,0.102
	l0.059,0.045l0.075,0.012l0.155-0.025l0.09,0.017l-0.008,0.12l0.016,0.062h0.059l0.308-0.131l0.079-0.055l0.04-0.097l0.085,0.026
	l0.044-0.033l0.021-0.073l0.014-0.086l0.025-0.042l0.042-0.007l0.053-0.001l0.053-0.024l0.063-0.088l0.092-0.204l0.085-0.08
	l0.015-0.029l0.041-0.112l0.021-0.036l0.049-0.029l0.191-0.04l0.202,0.009l0.184-0.036l0.03-0.034l-0.034-0.116l-0.014-0.127
	l0.007-0.031l0.03-0.039l0.013-0.053l0.004-0.069l0.048-0.023h0.045l0.043,0.007l0.051-0.004l0.265-0.18l0.034-0.061l0.015-0.065
	l0.178-0.13l0.055-0.06l0.01-0.072l-0.011-0.061l-0.068-0.126l-0.02-0.064l0.013-0.12l-0.005-0.039l-0.024-0.057l-0.034-0.113
	l-0.024-0.035l-0.051-0.014l-0.096,0.032l-0.042-0.003l-0.095-0.094l-0.012-0.106l0.015-0.101l-0.007-0.079l-0.061-0.12
	l-0.032-0.116l0.011-0.104l0.07-0.086l-0.105-0.055l0.011-0.049l0.051-0.061l0.008-0.088l0.106,0.009l0.079-0.08l0.122-0.234
	l-0.002-0.023h0.018l0.077,0.028l0.045-0.012l0.077-0.109l0.045-0.042l-0.087-0.068L1197.491,699.518z"/></svg>