<?xml version="1.0" encoding="utf-8"?>
<!-- Generator: Adobe Illustrator 15.0.0, SVG Export Plug-In . SVG Version: 6.00 Build 0)  -->
<!DOCTYPE svg PUBLIC "-//W3C//DTD SVG 1.1//EN" "http://www.w3.org/Graphics/SVG/1.1/DTD/svg11.dtd">
<svg version="1.1" id="Ebene_1" xmlns="http://www.w3.org/2000/svg" xmlns:xlink="http://www.w3.org/1999/xlink" x="0px" y="0px"
	 width="1920px" height="1080px" viewBox="0 0 1920 1080" enable-background="new 0 0 1920 1080" xml:space="preserve">

<path fill="#F4E0B6" stroke="#FFFFFF" d="M701.357,613.308l-0.05,0.003l-0.026,0.013l-0.017-0.017l0.009-0.025l-0.018-0.016
	l-0.028-0.003h-0.019l-0.012,0.019l0.021,0.059l0.045,0.038l-0.006,0.018l-0.061-0.037l-0.101-0.037l-0.007-0.003l0.118-0.134
	l0.273-0.007l0.067,0.044l-0.041-0.002l-0.035,0.026l0.008,0.046l-0.008,0.061l-0.065-0.025L701.357,613.308z M701.784,613.375
	l-0.207,0.284l-0.044-0.031l-0.121-0.052l-0.093-0.053l0.004-0.031l0.05-0.062l0.038-0.003l0.053,0.009l0.134-0.009l0.027-0.003
	l0.044,0.038l0.041-0.032l0.004-0.032l-0.023-0.059l-0.079,0.013l-0.007-0.019l-0.001-0.04l0.026-0.021L701.784,613.375z"/></svg>