<?xml version="1.0" encoding="utf-8"?>
<!-- Generator: Adobe Illustrator 15.0.0, SVG Export Plug-In . SVG Version: 6.00 Build 0)  -->
<!DOCTYPE svg PUBLIC "-//W3C//DTD SVG 1.1//EN" "http://www.w3.org/Graphics/SVG/1.1/DTD/svg11.dtd">
<svg version="1.1" id="Ebene_1" xmlns="http://www.w3.org/2000/svg" xmlns:xlink="http://www.w3.org/1999/xlink" x="0px" y="0px"
	 width="1920px" height="1080px" viewBox="0 0 1920 1080" enable-background="new 0 0 1920 1080" xml:space="preserve">

<path fill="#F4E0B6" stroke="#FFFFFF" d="M631.08,605.929l-0.022,0.052l-0.053-0.009l-0.038-0.056l-0.051-0.012l0.041-0.042
	l0.019-0.06l0.057-0.044l0.045-0.055l0.049,0.003l0.042,0.059l-0.034,0.1L631.08,605.929z M630.987,605.577l-0.052,0.004
	l-0.012-0.084l0.046-0.074l0.047-0.004l0.038,0.022l0.017,0.042l-0.028,0.078L630.987,605.577z M628.747,595.742l-0.069,0.08
	l0.052-0.014l0.013-0.006l0.042,0.17l0.055,0.056l0.14,0.143l0.076,0.153l0.173,0.198l0.04,0.146l0.143,0.195l0.072-0.003
	l0.164-0.062l0.064-0.007l0.046,0.018l0.021,0.022l0.003,0.032l-0.004,0.048l-0.015,0.051l-0.029,0.046l-0.042,0.036l-0.055,0.026
	l0.011,0.072l0.129,0.12l0.037,0.08l-0.021,0.067l-0.101,0.133l-0.016,0.048l0.035,0.15l-0.002,0.072l-0.019,0.085l-0.032,0.061
	l-0.016,0.02l-0.027,0.035l-0.028,0.052l0.014,0.051l0.049,0.021l0.075,0.01l0.081,0.021l0.064,0.049l0.045,0.136l-0.01,0.165
	l-0.051,0.163l-0.081,0.131l0.084,0.044l0.172,0.146l0.067,0.019l0.067,0.009l0.04,0.022l-0.013,0.065l-0.068,0.064l-0.089,0.046
	l-0.055,0.054l0.028,0.088l0.079,0.077l0.013,0.02l0.007,0.047l-0.004,0.04l-0.022,0.041l-0.021,0.018l-0.007,0.007l0.035,0.011
	l0.121,0.063l0.101,0.084l0.229,0.323l0.173,0.147l0.026,0.046l0.005,0.061l-0.015,0.01l-0.011,0.009h-0.004h-0.006h-0.001
	l-0.015-0.016l-0.004,0.013l-0.02,0.059l-0.048,0.044l-0.061,0.037l-0.065,0.052l-0.024,0.047l-0.054,0.136l-0.058,0.065
	l-0.092,0.028l0.117,0.075l0.122,0.015l0.104,0.025l0.203,0.088l0.039,0.03l0.043,0.074l0.028,0.025l0.016-0.008l0.022-0.024
	l0.027-0.021l0.027-0.006l0.029,0.019l0.028,0.03l0.024,0.032l0.018,0.029l0.076-0.026l0.061,0.017l0.055,0.034l0.059,0.018
	l0.062-0.004l0.036-0.013l0.043-0.016l0.053-0.007l0.07,0.018l0.032,0.03l0.032,0.016l0.072-0.039l0.003-0.018l-0.007-0.059
	l0.004-0.021l0.071-0.08l0.016-0.013l0.055,0.016l0.057,0.053l0.008,0.009l0.083,0.094l0.064,0.051l0.242,0.134l0.105,0.086
	l0.013,0.07l-0.078,0.191l-0.003,0.109l0.016,0.12l-0.003,0.123l-0.059,0.124l0.275,0.05l0.077,0.031l0.007,0.009l0.02,0.021
	l0.027,0.081l0.021,0.029l0.028,0.003l0.09,0.002l0.042,0.014l0.04,0.032l0.067,0.074l0.043,0.026l0.066,0.003l0.073-0.016
	l0.072-0.001l0.066,0.043l0.012,0.057l-0.059,0.135l-0.011,0.069l0.011,0.028l0.038,0.063l0.014,0.031l0.017,0.1l0.03,0.179
	l0.047,0.08l-0.092,0.031l-0.255,0.117l-0.083,0.051l-0.035,0.084l-0.062,0.028l-0.076,0.007l-0.083,0.021l-0.081,0.059l-0.137,0.15
	l-0.078,0.065l-0.314,0.15l-0.129,0.093l-0.042,0.121l0.03,0.045l0.115,0.038l0.04,0.065v0.058l-0.024,0.063l-0.043,0.059
	l-0.059,0.043l-0.145,0.024l-0.465-0.099l0,0l-0.002-0.004l-0.016-0.041l0.01-0.047l0.048-0.108l-0.299,0.104l-0.137,0.09
	l0.03,0.105l0.034,0.052l0.021,0.226l0.033,0.104l-0.016,0.029l-0.045,0.047l-0.117,0.062l-0.142,0.001l-0.453-0.081l-0.145,0.003
	l-0.076,0.052l0.039,0.133l-0.18-0.075l-0.55-0.455l-0.113-0.122l-0.03-0.021l-0.095-0.025l-0.394-0.234l-0.341-0.338l-0.132-0.042
	l-0.038-0.056l-0.05-0.058l0.023-0.023l0.102,0.063l0.066-0.057l0.021-0.112l-0.03-0.105l-0.012,0.042l-0.013,0.102l-0.019,0.054
	l-0.149-0.114l-0.083-0.046l-0.088-0.021l0.025,0.045l0.037,0.02l0.05,0.019l0.062,0.04l-0.029,0.031l-0.136-0.035l-0.105-0.081
	l-0.039-0.108l0.068-0.116l0.025,0.047l0.006,0.022l0.111-0.013l0.024-0.025l-0.043-0.081l0.019-0.161l-0.023-0.069l-0.042,0.067
	l-0.021,0.066l-0.028,0.05l-0.059,0.027l-0.031-0.076l-0.14-0.171l-0.041-0.094l0.04-0.165l-0.014-0.042l-0.046-0.039l-0.115-0.126
	l-0.063-0.045l-0.201-0.096l-0.247-0.167l-0.073-0.017l0.008,0.041l0.017,0.037l0.026,0.027l0.04,0.008l0.096,0.113l0.374,0.212
	l0.033,0.034l0.029,0.065l0.005,0.048l-0.004,0.097l0.012,0.05l-0.029,0.029l-0.068-0.068l-0.048-0.053l-0.093-0.125l-0.027,0.026
	l0.286,0.316l0.13,0.186l0.011,0.132l-0.076,0.026l-0.065-0.067l-0.045-0.101l-0.019-0.079l-0.035-0.074l-0.92-0.978l-0.078-0.151
	l-0.622-1.211l-0.231-0.647l-0.176-0.326l-0.248-0.296l-0.145-0.105l-0.088-0.104l-0.611-0.438l-0.202-0.247l-0.102-0.109
	l-0.191-0.279l-0.169-0.077l-0.412-0.292l-0.024-0.089l0.101-0.177l0.074-0.102l-0.013-0.077l-0.041-0.115l-0.17-0.43l-0.177-0.341
	l-0.175-0.358l0.174-0.33l0.06-0.063l0.075-0.056l0.085-0.047l0.091-0.03l0.098-0.01l0.174,0.03l0.089,0.002l0.095-0.026
	l0.085-0.035l0.092-0.029l0.112-0.003l0.666,0.045l0.172-0.015l0.072,0.006l0.252,0.074l0.066,0.043l0.06,0.074l0.034,0.159
	l0.039,0.068l0.093,0.016l0.022-0.021l0.004-0.009l0.029-0.076l0.026-0.034l0.044-0.022l0.467-0.154l0.168-0.021l0.18,0.006
	l0.156,0.036l0.551,0.235l0.05-0.003l0.06-0.063l0.003-0.025l-0.029-0.063l-0.002-0.03l0.017-0.031l0.051-0.064l0.014-0.022
	l0.016-0.061l0.003-0.023l-0.004-0.038l-0.018-0.033l-0.078-0.076l0.029-0.074l0.058-0.014l0.069,0.004l0.065-0.018l0.033-0.055
	l0.007-0.062l0.026-0.058l0.088-0.041l0.099,0.005l0.058,0.05l0.005,0.076l-0.06,0.081l0.094,0.004l0.216-0.035l0.04,0.01
	l0.063,0.018l0.06,0.056l0.025,0.058l0.032,0.05l0.078,0.038l0.184-0.019L628.747,595.742z"/></svg>