<?xml version="1.0" encoding="utf-8"?>
<!-- Generator: Adobe Illustrator 15.0.0, SVG Export Plug-In . SVG Version: 6.00 Build 0)  -->
<!DOCTYPE svg PUBLIC "-//W3C//DTD SVG 1.1//EN" "http://www.w3.org/Graphics/SVG/1.1/DTD/svg11.dtd">
<svg version="1.1" id="Ebene_1" xmlns="http://www.w3.org/2000/svg" xmlns:xlink="http://www.w3.org/1999/xlink" x="0px" y="0px"
	 width="1920px" height="1080px" viewBox="0 0 1920 1080" enable-background="new 0 0 1920 1080" xml:space="preserve">

<path fill="#F4E0B6" stroke="#FFFFFF" d="M606.845,1051.555l-0.092-0.169l-0.011-0.069l0.017-0.082l0.056-0.029l0.036-0.001
	l0.029,0.026l0.138,0.26l-0.031,0.021l-0.053,0.002l-0.048,0.028L606.845,1051.555z M606.629,1051.144l-0.019-0.027l-0.011-0.032
	l-0.002-0.035l0.007-0.042l-0.002-0.109l0.014-0.118l0.042-0.06l0.079,0.058l0.061,0.131l-0.011,0.013l-0.021,0.012l-0.021,0.023
	l-0.037,0.046l-0.044,0.04l-0.032,0.042L606.629,1051.144z M609.491,1051.892l-0.052-0.064l-0.027-0.112l0.042-0.121l0.094-0.08
	l0.118,0.021l0.068,0.086l0.02,0.111l-0.024,0.26l-0.092-0.021l-0.08-0.032L609.491,1051.892z M612.536,1050.995l-0.046,0.031
	l0.013-0.022l0.001-0.013l-0.003-0.011l0.006-0.182l-0.078-0.449l0.076-0.161l0.027-0.009l0.043-0.004l0.054-0.011l0.057-0.028
	l0.043-0.003l0.037,0.038l0.147,0.295l0.031,0.118l-0.026,0.138l-0.172,0.068l-0.03,0.039l-0.054,0.09l-0.025,0.027
	L612.536,1050.995z M615.444,1048.322l0.013,0.051l0.05,0.094l-0.072-0.013l-0.053-0.027l-0.095-0.076l-0.038-0.084l0.001-0.106
	l0.032-0.105l0.051-0.088l0.176,0.016l0.057,0.035l0.004,0.08l-0.021,0.033l-0.075,0.087l-0.024,0.049L615.444,1048.322z
	 M618.181,1045.394l-0.009-0.014l-0.013-0.001h-0.015l-0.015-0.003l0.02-0.042l-0.025-0.031l-0.002-0.065l0.021-0.148l0.078,0.022
	l0.026,0.074l-0.018,0.102L618.181,1045.394z M617.385,1039.846l-0.073-0.021l-0.032-0.069l0.042-0.045l0.075,0.026l0.031,0.064
	L617.385,1039.846z M619.066,1042.912l-0.13-0.138l-0.03-0.107l0.009-0.054l0.052-0.056l0.053-0.009l0.06,0.026l0.054,0.044
	l0.034,0.043l0.011,0.055l0.004,0.09l-0.015,0.083l-0.043,0.039L619.066,1042.912z M620.103,1040.329l-0.062-0.005l0.009-0.063
	l0.041-0.111l0.006-0.034h0.09l0.054,0.046l0.023,0.076l-0.004,0.094l-0.032,0.021l-0.046-0.029L620.103,1040.329z
	 M611.034,1008.874l-0.026,0.024l-0.011-0.021l-0.017-0.003h-0.019l-0.019-0.002l-0.057-0.05l-0.019-0.029l-0.014-0.039l0.028-0.026
	l0.037,0.051l-0.024-0.148l0.042-0.051h0.033l0.028,0.018l0.031,0.012l0.033,0.031l-0.002,0.082L611.034,1008.874z
	 M610.894,1004.591l-0.025-0.02l-0.02-0.026l0.06-0.021l0.043,0.025l0.063,0.093L610.894,1004.591z M611.639,1005.488l-0.041,0.027
	l0.382,0.475l0.187,0.124l0.087,0.086l-0.025,0.023l-0.19-0.079l-0.015,0.042l-0.061,0.029l-0.039-0.052l-0.006,0.095l0.008,0.062
	l0.024,0.052l0.044,0.06l0.021,0.017l0.051,0.025l0.02,0.017l0.109,0.143l0.025,0.229l0.014,0.025l0.071-0.039l0.041,0.025
	l0.033,0.045l0.046,0.02l0.034-0.039l0.038,0.029l0.037,0.052l0.032,0.03l-0.091,0.009l-0.005,0.031l0.031,0.037l0.014,0.029
	l-0.041,0.037l-0.046,0.001l-0.078-0.028l-0.026,0.043l-0.034,0.027l-0.04,0.019l-0.042,0.013l0.056,0.062l0.087,0.006l0.102-0.015
	l0.101,0.002l0.069,0.03l0.082,0.061l0.04,0.077l-0.049,0.078l-0.17-0.022l-0.085,0.005l-0.01,0.063l0.051,0.044l0.267,0.093
	l0.002-0.022l0.009-0.052l0.001-0.022l0.056,0.039l0.037,0.063l0.062,0.161l0.015,0.102l-0.002,0.03l-0.036,0.042l-0.07,0.012
	l-0.035,0.046l-0.041,0.017l-0.012,0.034l0.01,0.032l0.033,0.018l0.034-0.017l0.1-0.075l0.043-0.016l0.067,0.043l0.138,0.289
	l-0.042,0.005l0.034,0.053l0.015,0.033l0.003,0.039l-0.025,0.023l-0.047,0.009l-0.02,0.009l-0.037,0.021l-0.008-0.064l-0.029-0.049
	l-0.048-0.029l-0.064-0.006l0.036,0.084l0.007,0.041l-0.032,0.01l-0.033-0.019l-0.043-0.064l-0.037-0.017l0.012,0.098l0.068,0.073
	l0.162,0.103l0.133,0.12l-0.005,0.041l-0.021,0.057l-0.001,0.05l0.061,0.01l-0.018,0.036l-0.01,0.016l-0.017,0.008l-0.035,0.012
	v-0.062l-0.029-0.042l-0.085-0.051l-0.052-0.011l-0.295-0.084l-0.019-0.012l-0.02-0.006l-0.033,0.006l-0.013,0.02l-0.013,0.034
	l-0.026,0.03l-0.052,0.013l0.041,0.068l0.041,0.045l0.052,0.027l0.256,0.05l0.07,0.045l-0.014,0.074l0.053,0.003l0.012,0.052
	l-0.029,0.063l-0.067,0.04l-0.027-0.01l-0.02-0.023l-0.023-0.016l-0.039,0.02l-0.016,0.028v0.025l-0.011,0.023l-0.051,0.023
	l-0.017,0.058l-0.036,0.041l-0.047,0.026l-0.053,0.017l0.175,0.004l0.071,0.025l0.015,0.061l-0.059,0.164l-0.015,0.088l0.027,0.063
	l0.062,0.018l0.046-0.05l0.047-0.086l0.063-0.081l0.022-0.033l0.018-0.115l0.017-0.045l0.017-0.033l0.025-0.031l0.044-0.043
	l0.067,0.213l0.016,0.114l-0.045,0.07l0.026,0.023l0.022,0.028l0.003,0.033l-0.027,0.038l-0.038,0.042l-0.025,0.032l-0.026,0.019
	l-0.042-0.006l0.005,0.123l-0.02,0.015l-0.049-0.01l-0.089,0.045l0.004,0.052l0.16,0.198l-0.055,0.039l-0.051,0.044l-0.049,0.02
	l-0.051-0.028l-0.026,0.045l-0.009,0.041l0.004,0.038l0.017,0.031l-0.033,0.031l-0.006,0.042l0.01,0.045l0.015,0.039l0.014,0.013
	l0.049,0.016l0.002,0.028l-0.009,0.079l0.049,0.058l0.007,0.034l-0.024,0.039l-0.038,0.047l-0.013,0.045l0.005,0.042l-0.065-0.014
	l-0.081-0.021l-0.194-0.009l-0.003,0.053l-0.023,0.099v0.043l0.023,0.047l0.181,0.224l0.045,0.021l0.099,0.018l0.034,0.019
	l0.01,0.036l-0.049,0.029l-0.146,0.06l-0.137,0.026l-0.017-0.002l-0.125,0.213l-0.079,0.086l-0.056-0.062l-0.061,0.143l-0.002,0.183
	l0.034,0.173l0.047,0.117l-0.029,0.026l-0.031-0.026l-0.045-0.016l-0.047-0.005l-0.04,0.018l-0.027-0.012l-0.032-0.052l-0.039-0.101
	l-0.113,0.02l-0.074-0.058l-0.044-0.095l-0.02-0.097l-0.007-0.201l-0.016-0.104l-0.049-0.084l-0.021,0.061l-0.009,0.059l0.006,0.055
	l0.018,0.042l0.01,0.044l-0.028,0.107l-0.006,0.058l0.006,0.039l0.013,0.033l0.045,0.069l0.006,0.033l-0.017,0.097l0.004,0.046
	l-0.024,0.021l-0.023-0.024l-0.018-0.027l-0.009-0.034v-0.039l-0.015,0.022l-0.037,0.046l-0.014,0.02l-0.054-0.071l-0.005-0.041
	l0.027-0.057l-0.057,0.036l-0.02,0.02l-0.027,0.038l-0.023-0.031l-0.02-0.07l-0.016-0.031l-0.022-0.008l-0.036,0.003l-0.037-0.007
	l-0.053-0.072l-0.014-0.047l0.005-0.052l0.03-0.056l0.019,0.021l0.017,0.01l0.042,0.015l-0.025-0.148l0.05-0.231l-0.018-0.065
	v-0.098l0.025-0.175l0.051-0.052l-0.025-0.02l0.028-0.091l0.063-0.042l0.049-0.083l0.062-0.091l0.074-0.21l0.09-0.398l0.002-0.06
	l-0.02-0.035l-0.017-0.052l-0.005-0.052l0.019-0.042l0.047-0.028l0.072-0.007l0.035-0.02l0.031-0.074l0.004-0.108l-0.011-0.1
	l-0.015-0.054l-0.053-0.072l-0.03-0.015l-0.091-0.003l-0.034-0.026l-0.021-0.04l-0.008-0.045l0.013-0.084l0.023-0.067l0.011-0.071
	l-0.081-0.35l-0.012-0.019l-0.021-0.021l-0.015-0.02l0.01-0.022l0.018-0.013l0.052-0.027l0.008-0.002l0.019-0.018l0.037-0.011
	l0.02-0.012l0.026-0.03l-0.003-0.009l-0.013-0.008v-0.022l0.014-0.076l-0.012-0.069l-0.027-0.063l-0.035-0.053l0.04-0.006
	l-0.015-0.071l0.048-0.021l0.035,0.008l0.025,0.026l0.02,0.04l0.017-0.117l-0.071-0.098l-0.181-0.158l-0.016-0.042l-0.027-0.136
	l-0.002-0.084l0.005-0.044l0.007-0.023l0.027-0.022l0.043-0.02l0.032-0.026l-0.004-0.037l-0.015-0.042l-0.007-0.059v-0.064
	l0.006-0.055l-0.005-0.028l-0.051-0.032l-0.014-0.031l-0.006-0.066l-0.03-0.07l-0.037-0.042l-0.091-0.035l-0.128-0.136l-0.051-0.033
	l-0.065-0.014l0.015-0.04l-0.001-0.033l-0.017-0.025l-0.034-0.013l0.033-0.077l0.033-0.015l0.21,0.12l0.031,0.036l0.02-0.101
	l-0.056-0.183l0.043-0.102l0.075,0.104l0.118,0.084l0.253,0.116l-0.021-0.084l-0.172-0.225l-0.088-0.063l-0.014-0.04l-0.009-0.091
	l-0.015-0.037l-0.174-0.229l-0.06-0.044l-0.05,0.01l-0.022,0.049l0.023,0.072l-0.051-0.029l-0.182-0.159l-0.064-0.104l-0.044-0.048
	l0.024-0.003l0.03-0.009h0.019l-0.006-0.05l0.018-0.166l0.116,0.044l0.068,0.014l0.071-0.007l-0.02-0.051l-0.072-0.076l-0.013-0.064
	l0.189,0.088l0.108,0.023l0.109-0.032l-0.225-0.294l-0.132-0.12l-0.019-0.047l-0.007-0.085l-0.016-0.033l-0.151-0.093l-0.068-0.067
	l-0.006-0.104l-0.016-0.068l-0.162-0.012l-0.035-0.052l0.039-0.026l0.042-0.021l0.039-0.003l0.032,0.021l0.02-0.041l0.008-0.026
	l-0.006-0.022l-0.023-0.025l0.053,0.02l0.099,0.125l0.144,0.083l0.044,0.045l0.029,0.064l0.012,0.13l0.02,0.052l0.048,0.046
	l0.062,0.035l0.071,0.021l0.074,0.004l0.034-0.032l0.044,0.051l0.036,0.084l0.014,0.065l-0.025-0.016l-0.021-0.001L611.639,1005.488
	z"/></svg>