<?xml version="1.0" encoding="utf-8"?>
<!-- Generator: Adobe Illustrator 15.0.0, SVG Export Plug-In . SVG Version: 6.00 Build 0)  -->
<!DOCTYPE svg PUBLIC "-//W3C//DTD SVG 1.1//EN" "http://www.w3.org/Graphics/SVG/1.1/DTD/svg11.dtd">
<svg version="1.1" id="Ebene_1" xmlns="http://www.w3.org/2000/svg" xmlns:xlink="http://www.w3.org/1999/xlink" x="0px" y="0px"
	 width="1920px" height="1080px" viewBox="0 0 1920 1080" enable-background="new 0 0 1920 1080" xml:space="preserve">

<path fill="#F4E0B6" stroke="#FFFFFF" d="M960.458,669.086l-0.228,0.358l-0.006,0.036l0.006,0.035l0,0.034l-0.018,0.036
	l-0.029,0.022l-0.031,0.017l-0.026,0.022l-0.009,0.036l-0.019,0.032l-0.042,0.04l-0.042,0.049l-0.018,0.056l-0.011,0.135
	l-0.045,0.077l-0.084,0.018l-0.127-0.039l-0.088-0.064l-0.055-0.067l-0.079-0.04l-0.428,0.03l-0.115-0.024l-0.083-0.063
	l-0.044-0.192l0.152-0.094l0.248-0.027l0.238,0.004l0.084-0.065l0.218-0.233l0.044-0.062l0.005-0.062l0.023-0.032l0.12-0.071
	l0.197-0.151l0.115-0.008l0.102,0.033l0.074,0.058l0.03,0.068L960.458,669.086z M974.159,664.41l0.014,0.147l0.049,0.208
	l0.016,0.035l0.017,0.062l0.028,0.07l0.048,0.059l0.048,0.022l0.089,0.028l0.023,0.029l-0.009,0.091l-0.036,0.106l-0.008,0.103
	l0.077,0.073l0.002,0.037l-0.057,0.038l-0.036,0.055l-0.046,0.129l0.054,0.068l0.043,0.09l-0.004,0.086l-0.09,0.055l-0.064,0.056
	l-0.162,0.232l-0.071,0.077l-0.378,0.189l-0.062,0.042l-0.025,0.01l-0.134,0.173l-0.064,0.043l-0.058-0.013l-0.055-0.03
	l-0.055-0.011l-0.237,0.033h-0.105l-0.091-0.015l-0.311-0.163l-0.049-0.046l-0.023-0.033l-0.12-0.035l-0.051-0.024l-0.025-0.026
	l-0.179-0.281l-0.04-0.105l0.021-0.115l-0.025-0.057l-0.016-0.084l0.001-0.087l0.021-0.071l0.046-0.06l0.21-0.149l0.094-0.086
	l0.127-0.143l0.084-0.155l-0.037-0.125l0.06-0.064l0.017-0.103l-0.018-0.106l-0.039-0.072l0.061-0.016l0.059-0.01l0.056,0.001
	l0.051,0.016l0.077-0.033l0.3,0.027l0.412-0.085l0.346,0.003l0.126-0.063l-0.032-0.181l0.158-0.06l0.022,0.005l0.034,0.063
	l0.001,0.043l-0.045,0.03L974.159,664.41z M964.274,667.048l-0.144,0.071l-0.144-0.003l-0.302-0.104l-0.197-0.212l-0.008-0.198
	l0.018-0.216l0.156-0.234l0.282-0.113l0.265,0.017l0.244,0.09l0.313,0.136l0.071,0.116l0.039,0.116l-0.083,0.128l-0.107,0.085
	l-0.161,0.172l-0.12,0.099L964.274,667.048z M970.184,662.834L970.142,663l-0.16,0.139l-0.396,0.278l-0.083,0.17l-0.107,0.12
	l-0.145,0.17l-0.147,0.143l-0.095,0.053l-0.074,0.072l-0.052,0.113l0.006,0.116l0.034,0.087l0.018,0.052l-0.015,0.06l-0.052,0.051
	l-0.048,0.059l-0.03,0.137l-0.164,0.331l-0.036,0.251l0.007,0.101l-0.068,0.108l-0.083,0.112l-0.343,0.394l-0.077,0.133l-0.05,0.08
	l-0.189,0.003l-0.301,0.165l-0.126,0.068l-0.104,0.059l-0.092,0.003l-0.064-0.065l-0.015-0.049l0.006-0.067l-0.052-0.009
	l-0.046-0.025l-0.02-0.043l-0.015-0.103l-0.013-0.036l-0.08-0.07l-0.228-0.146l-0.05-0.078l-0.043-0.112l-0.088-0.077l-0.095-0.058
	l-0.062-0.063l-0.05-0.237l-0.021-0.049l-0.083-0.093l-0.074-0.116l-0.193-0.13l-0.058-0.1l0.132-0.103l0.298-0.183l0.111,0.021
	l0.136,0.054l0.065,0.004l0.068-0.014l0.158-0.072l0.119-0.077l0.179-0.089l0.124-0.069l0.111,0.003l0.222-0.062l0.108-0.029
	l0.107-0.101l0.142-0.042l0.058-0.035l0.116-0.034l0.108-0.099l0.248-0.255l0.104-0.107l0.031-0.054l0.008-0.083l0.02-0.038
	l0.101-0.068l0.044-0.039l0.096-0.067l0.121-0.045l0.1-0.058l0.029-0.109l0.091,0.013l0.536-0.091l0.33-0.174L970.184,662.834z
	 M980.45,663.143l-0.128,0.209l-0.147,0.186l-0.214,0.142l-0.138,0.03l-0.216-0.043h-0.11l-0.352,0.096l-0.067-0.004l0.019-0.024
	l0.017-0.068l0.01-0.067l-0.003-0.022l0.037-0.017l0.185-0.011l0.103-0.03l0.193-0.101l0.297-0.191l0.359-0.305l0.147-0.172
	l0.075-0.109l0.051-0.101l0.023-0.111l0.008-0.271l0.037-0.106l0.103-0.188l0.1-0.41l0.023-0.067l0.064-0.061l0.136-0.265
	l0.099-0.29l0.183-0.319l0.038-0.277l0.063-0.178l0.009-0.197l0.021-0.077l0.051-0.066l0.084-0.066l0.188-0.113l0.19-0.064
	l0.184,0.014l0.164,0.12l0.074,0.167l0.039,0.236v0.461l-0.023,0.119l-0.075,0.223l-0.012,0.077l0.008,0.181l0.012,0.055
	l0.019,0.031l0.056,0.064l0.011,0.039l-0.021,0.055l-0.088,0.1l-0.018,0.034l0.002,0.051l-0.005,0.055l-0.014,0.051l-0.078,0.131
	l-0.035,0.1l-0.042,0.193l-0.103,0.203l-0.167,0.125l-0.551,0.203l-0.237,0.119l-0.168,0.146l-0.205,0.096l-0.105,0.078
	L980.45,663.143z M960.383,663.203l0.138,0.004l0.225-0.119l0.115,0.019l0.096,0.056l0.055,0.049l-0.009,0.113l0.046,0.128
	l0.054,0.084l0.112,0.029l0.008,0.103l-0.163,0.201l-0.076,0.142l0.048,0.103l0.074,0.188l-0.042,0.113l-0.03,0.154l-0.129,0.183
	l-0.106,0.24l-0.099,0.209l-0.048,0.125l-0.035,0.005l-0.035-0.047l-0.128-0.034l-0.043-0.1l-0.051-0.269l-0.068-0.055l-0.044-0.082
	l-0.123-0.117l-0.035-0.117l-0.228-0.258l-0.026-0.139l-0.028-0.084l-0.028-0.083l-0.094-0.04l-0.059-0.052l0.026-0.177l0.143-0.213
	l0.19-0.188l0.14-0.112l0.119,0.045L960.383,663.203z M984.081,656.838l-0.011,0.084l0.022,0.068l0.034,0.072l0.02,0.092
	l-0.007,0.039l-0.037,0.079l-0.013,0.045v0.044l0.018,0.092v0.045l-0.073,0.146l-0.138,0.148l-0.16,0.119l-0.237,0.106l-0.046,0.061
	l-0.037,0.059l-0.062,0.035l-0.079,0.023l-0.118,0.051l-0.082,0.022l-0.178,0.075l-0.131,0.126l-0.098,0.163l-0.076,0.182
	l-0.032,0.007l-0.062-0.062l-0.11-0.007l-0.248,0.052l-0.042-0.021l-0.039-0.057l-0.02-0.062l0.015-0.032l0.057-0.029l0.04-0.049
	l0.047-0.1l0.013-0.091l-0.002-0.268l0.009-0.073l0.152-0.29l0.083-0.107l0.069-0.064l0.081-0.052l0.098-0.043l0.116-0.031
	l0.095-0.046l0.162-0.171l0.098-0.08l0.093-0.048l0.081-0.028l0.264-0.056l0.07-0.036l0.052-0.076l0.051-0.143l0.04-0.188
	l0.03-0.099l0.058-0.092l0.089-0.037l0.102,0.034l0.16,0.095l-0.04,0.118l-0.012,0.09l-0.031,0.079L984.081,656.838z
	 M983.862,656.371l-0.121,0.115l-0.126,0.009l-0.004-0.04l0.072-0.092l0.03-0.126l0.042-0.096l0.113,0.003l0.055,0.087
	L983.862,656.371z M1021.633,617.691l-0.002,0.005l-0.007,0.001h-0.007l-0.004-0.003l0.002-0.001h0.006l0.005-0.002H1021.633z
	 M1029.212,615.742l-0.017,0.021l-0.021-0.007l0.002-0.02l0.019-0.008L1029.212,615.742z M1023.21,617.098l-0.002,0.003h-0.004
	l0.001-0.001l0.003-0.005L1023.21,617.098z M1023.215,617.084v0.003h-0.002l-0.002,0.001h-0.001v-0.001l0.001-0.002
	L1023.215,617.084z M1027.157,615.811l-0.112,0.073l-0.103-0.063l-0.042-0.123l0.061-0.093l0.147,0.165l0.047,0.04L1027.157,615.811
	z M1016.302,615.311l-0.005,0.014l-0.011-0.001l-0.005-0.013l0.007-0.007L1016.302,615.311z M1016.677,615.271l0.078-0.002
	l0.099-0.075l-0.017,0.107l-0.154,0.173l-0.008,0.075l-0.107-0.056l-0.081-0.07l-0.066-0.084l-0.058-0.097l0,0l0.056-0.021
	l0.079-0.012l0.101,0.026L1016.677,615.271z M1032.967,602.616l0.095,0.153l-0.099-0.063l-0.051-0.128l-0.034-0.148l-0.049-0.123
	l0.019-0.007l0.006,0.006l0.003,0.012l0.008,0.011l0.019,0.015l0.035,0.039l0.024,0.022l-0.01,0.108L1032.967,602.616z
	 M1039.81,595.776l0.247,0.191l0.168,0.034l0.126-0.102l0.082,0.057l0.023,0.098l-0.081,0.044l-0.125,0.03l-0.212-0.061
	l-0.067-0.014l-0.057,0.068l-0.028,0.034l-0.037,0.098l-0.047,0.051h-0.057l-0.008-0.096l-0.024-0.029l-0.014-0.046l0.011-0.035
	l0.006-0.045l-0.009-0.035l-0.03-0.008l-0.019-0.015l0.012-0.039l0.031-0.062l0.033,0.02l0.033-0.026l0.02-0.061l-0.007-0.071
	l0.014-0.007l0.008,0.006l0.003,0.01L1039.81,595.776z M1039.875,594.064l0.044-0.002l0.036,0.013l0.037,0.021l-0.008,0.045
	l0.048,0.081l0.101,0.132l-0.06,0.02l-0.036,0.049l-0.016,0.065l0.008,0.072l-0.012,0.032l-0.104,0.114l-0.067,0.197l-0.034,0.05
	l-0.087,0.079l-0.027,0.055l-0.018-0.012l-0.029-0.015l-0.019-0.017l-0.038,0.09l-0.044,0.04l0.004,0.161l0.027,0.108l-0.118,0.035
	l-0.061-0.079l-0.076-0.029l-0.049,0.035l-0.024,0.007l-0.014-0.003l-0.004-0.001l-0.033,0.019l-0.044-0.05h-0.067l-0.056,0.035
	l-0.009,0.062l-0.137-0.042l-0.056-0.035l-0.038-0.075l0.014-0.117l-0.006-0.069l-0.049-0.045l0.022-0.035l0.031-0.032l0.04-0.017
	l0.049,0.013l0.021-0.029l0.031-0.019l0.089-0.023l-0.084-0.177l-0.027-0.104l0.029-0.057l0.043-0.032l0.042-0.057l0.063-0.114
	l0.022-0.007l0.04,0.02l0.057-0.074l0.05,0.016l0.056-0.077l0.086-0.077l0.094-0.055l0.079-0.008l0.022-0.052l0.044-0.034
	l0.055-0.011l0.072,0.029l0.026,0.003L1039.875,594.064z M1044.879,592.478l-0.041,0.122l-0.114,0.023l-0.106-0.129l0.069-0.116
	l0.124-0.101l0.043,0.079L1044.879,592.478z M1044.476,588.653l0.067,0.046l0.013-0.023l0.008-0.007l0.053,0.01l-0.03,0.036
	l-0.105,0.093l-0.042,0.022l-0.044,0.04l-0.032,0.064l-0.032,0.047l-0.046-0.01l-0.025,0.008l0.034,0.144l0.132-0.016l0.248-0.151
	l0.009,0.028l-0.028,0.033l0.005,0.031l0.013,0.03l-0.001,0.038l-0.015,0.027l-0.016,0.019l-0.05,0.042l-0.104,0.059l-0.016,0.042
	l0.023,0.093l0.07,0.086l0.118,0.059l0.133,0.028l0.11-0.008l0.241-0.071l0.055-0.04l0.076-0.136l0.041-0.038l0.11-0.002
	l0.234,0.055l0.125-0.026l-0.008,0.052l0.015,0.035l0.021,0.029l0.018,0.032l-0.008,0.028l-0.016,0.022l-0.003,0.03l0.039,0.048
	l-0.011,0.136l-0.019,0.073l-0.039,0.037l-0.053,0.04l-0.022,0.063l0.008,0.071l0.048,0.061l-0.105,0.168l-0.097,0.215l-0.046,0.242
	l0.041,0.252l-0.041-0.01l-0.017-0.009l-0.003,0.198l-0.077,0.146l-0.266,0.289l-0.102,0.15l-0.016,0.053l-0.01,0.018l-0.025,0.032
	l-0.03,0.021l-0.02-0.013l-0.139-0.109l-0.028-0.01l-0.063-0.009l-0.026-0.011l-0.028-0.035l-0.021-0.046l-0.024-0.037l-0.03-0.01
	h-0.039l-0.067-0.026h-0.034l-0.041,0.017l-0.051,0.036l-0.032,0.016l-0.316,0.067l-0.155-0.013l-0.121-0.081l-0.108-0.229
	l-0.062-0.017l-0.012-0.074l0.023-0.122l-0.067-0.078l-0.128-0.061l-0.139-0.03h-0.102l-0.071,0.046l-0.193,0.187l-0.032,0.064
	l-0.004,0.129l-0.062,0.113l-0.094,0.041l-0.101-0.093l-0.011-0.009l-0.02-0.032l0.003-0.03l0.024-0.025l-0.124-0.066l-0.017,0.045
	l-0.022,0.024l-0.029-0.003l-0.03-0.039l-0.083,0.084l-0.021,0.011l-0.042-0.014l-0.054-0.07l-0.079-0.032l-0.04-0.072l-0.022-0.092
	l0.001-0.071l0.211-0.226l0.07-0.036l0.052-0.058l0.122-0.229l0.045-0.042l0.068-0.031l0.056-0.036l0.046-0.064l0.076-0.145
	l0.01-0.024l0.009-0.063l0.004-0.017l0.016-0.008l0.042-0.005l0.015-0.008l0.062-0.106l0.005-0.025l0.013-0.015l0.049-0.099
	l0.018-0.027l0.024-0.014l0.09-0.08l0.038-0.053l0.028-0.052l0.033-0.042l0.048-0.028l0.011-0.013l0.011-0.046l0.01-0.013
	l0.076-0.014l0.031-0.018l0.09-0.077l0.172-0.197l0.102-0.059l0.191-0.076l0.181-0.104L1044.476,588.653z M1047.634,587.29
	l0.096,0.037l-0.004,0.015l0.004,0.034l0.012,0.032l0.027,0.007l0.019-0.02l0.016-0.038l0.02-0.059l-0.027-0.062l0.019-0.023
	l0.028,0.017l0.005,0.062l0.03,0.023l0.116,0.032l0.031,0.027l0.021,0.015l0.046,0.022l0.022,0.003l0.055-0.004l0.029,0.004
	l0.05,0.038l0.053,0.062l0.017,0.064l-0.054,0.043l0.062,0.01l0.054-0.021l0.047-0.002l0.039,0.066l0.035,0.062l0.113,0.094
	l0.052,0.062l-0.023,0.007l-0.024-0.023l-0.029-0.017l-0.035-0.015l-0.036-0.004l0.081,0.287l-0.174,0.077l-0.283-0.041
	l-0.679-0.188l-0.132-0.008l-0.14,0.039l-0.237,0.123l-0.148-0.006l-0.003-0.056l-0.016-0.064l-0.007-0.061l0.03-0.048l-0.037-0.015
	l-0.079-0.005l-0.04-0.017l-0.05-0.042l-0.007-0.021l0.007-0.027l-0.009-0.055l0.026-0.065l0.228-0.125l0.094,0.009l0.326-0.135
	l0.141-0.035l0.038-0.018l0.043-0.035l0.043-0.062l0.031-0.032l0.026,0.048L1047.634,587.29z M1037.07,578.94l-0.01,0.002
	l-0.082,0.011l-0.055-0.022l-0.022-0.055l0.015-0.088l0.035-0.028l0.049,0.038l0.057,0.065l0.057,0.054l-0.011,0.007L1037.07,578.94
	z M1000.342,580.064l0.021,0.02l0.027-0.013l0.032-0.019l0.003-0.014l-0.006-0.022l0.003-0.024l0.028-0.014l0.024-0.007l0.062-0.038
	l0.024,0.063l0.123,0.152l0.001,0.077l0.032-0.017l0.038-0.067l0.021-0.073l0.05,0.01l0.029-0.03l0.031-0.042l0.052-0.028
	l0.154-0.006l0.049,0.009l0.346,0.118l0.165,0.03l0.31,0.352l0.196,0.055l-0.009,0.022l-0.005,0.016l-0.01,0.016l-0.021,0.017
	l0.006,0.035l0.056,0.014l0.028-0.017l0.025-0.029l0.043-0.027l0.056-0.008l0.084,0.014l0.149-0.001l0.233-0.044l0.057-0.046
	l0.074,0.023h0.067l0.052,0.024l0.022,0.092l-0.018,0.058l-0.031,0.062l-0.007,0.07l0.049,0.077h0.003l0.021-0.005l0.008-0.081
	l-0.003-0.081l0.011-0.067l0.046-0.043l0.015-0.118l0.212-0.077l0.372-0.068l0.062,0.007l0.227-0.05l0.164,0.018l0.102-0.005
	l0.191-0.134l0.197-0.013l0.206,0.032l0.152,0.048l0.035-0.032l0.041-0.017l0.097-0.014l-0.011-0.022l-0.021-0.051l-0.01-0.021
	l0.054,0.001l0.098,0.033l0.057,0.002l0.188-0.066l0.196-0.03l0.054-0.019l0.091-0.058l0.087-0.036l0.019-0.028l0.023-0.027
	l0.05-0.016l0.137,0.063l0.052,0.008l0.3-0.019l0.053-0.039l0.064,0.019l0.053-0.032l0.049-0.05l0.055-0.035l0.438-0.071
	l0.012-0.046l-0.031-0.031l-0.022-0.034l0.037-0.055l-0.011-0.016l-0.018-0.032l-0.01-0.014l0.122-0.021l0.039-0.027l0.006-0.061
	l0.017-0.048l0.061-0.007l0.134,0.035l0.093,0.051l0.251,0.188l0.089,0.089l0.025-0.005l0.007-0.069l0.032,0.015l0.061,0.074
	l0.201-0.002l0.751-0.156l0.119,0.009l0.024,0.063l-0.034,0.084l-0.053,0.065l0.032,0.028l0.034-0.028l0.074-0.038l0.035-0.023
	l0.021-0.035l0.005-0.033l0.016-0.028l0.054-0.02l0.16-0.013l0.063,0.01l0.304,0.119l0.136,0.021l0.325-0.04l0.094,0.007
	l0.052,0.053l0.04-0.034l0.275,0.027l0.028-0.016l0.045-0.053l0.042-0.016l0.043,0.004l0.092,0.027l0.275,0.004l0.331,0.078
	l0.079,0.009l0.842-0.08l0.017-0.003l0.115,0.072l0.063-0.085l0.101-0.037l0.107,0.007l0.086,0.051l0.023-0.005l0.025-0.065
	l0.032-0.022l0.176-0.014l0.45-0.128l0.087-0.093l0.219-0.11l0.085-0.028l0.165-0.03l0.019-0.016l-0.001-0.022l0.001-0.023
	l0.027-0.016l0.028,0.004l0.102,0.041l0.014-0.025l0.015-0.009l0.02-0.002l0.021-0.009l-0.018-0.006l-0.04-0.021l-0.005-0.028
	l0.107-0.109l0.059-0.036l0.063,0.004l0.04-0.035l0.013,0.003l0.022,0.019l0.094-0.081l0.105-0.042h0.113l0.116,0.043l-0.145,0.097
	l-0.059,0.053l-0.038,0.06l0.048,0.036l0.02,0.01l0.022,0.007l-0.013,0.006l-0.009,0.001l-0.005,0.006l0.005,0.021l0.041-0.006
	l0.032-0.013l0.05-0.033l0.02-0.03l0.035-0.072l0.012-0.017l0.034,0.005l0.044,0.038l0.036,0.004l0.011-0.021l-0.017-0.041
	l-0.031-0.039l-0.029-0.017l-0.007-0.031l0.054-0.001l0.022,0.001l0.029,0.012v-0.024l0.005-0.001l0.015-0.009l-0.034-0.029
	l0.037-0.023l0.106-0.028l0.036-0.032l0.028-0.039l0.036-0.026l0.264-0.135l0.093-0.011l0.011,0.081l0.064-0.009l0.056,0.024
	l0.049,0.032l0.039,0.013l0.26-0.009l0.022,0.013l0.017,0.022l0.011,0.026l0.004,0.042l-0.014,0.01l-0.023-0.001l-0.028,0.013
	l-0.018-0.01l-0.039-0.013l-0.037-0.005l-0.01,0.028l-0.007,0.029l-0.023,0.031l-0.052,0.043l0.076-0.001l0.054,0.043l0.038,0.015
	l0.032-0.096l0.052,0.046l0.053-0.004l0.102-0.052h0.055l0.188,0.022l0.23-0.014l0.18,0.024h0.049l0.042,0.012l0.105,0.072
	l0.102,0.009l0.075,0.007l0.072-0.006l0.068-0.075l0.131,0.045l0.215,0.109l-0.008-0.034l-0.069-0.104l-0.024-0.055l-0.03-0.029
	l-0.004-0.018l0.013-0.025l0.046-0.024l0.03-0.056l0.139-0.122l0.055-0.025l-0.007-0.034l-0.025,0.005l-0.007-0.029l0.052-0.043
	l0.089-0.028l0.187-0.029l0.168-0.049l0.07-0.045l0.058-0.034l0.049,0.003l0.088,0.036l0.087,0.053l0.044,0.043l0.068,0.106
	l0.036,0.094l0.011-0.02l0.009-0.091l-0.004-0.022l-0.007-0.026l-0.001-0.027l0.012-0.022l0.041-0.017l0.045,0.003l0.046,0.009
	l0.116-0.005l0.23,0.041h0.162l0.088,0.013l0.092,0.084l0.388,0.083l0.155,0.011l0.156-0.017l0.153-0.049l0.113-0.057l0.041-0.013
	l0.023,0.01l0.033,0.028l0.041,0.026l0.047,0.005l0.009-0.008l0.009-0.012l0.015-0.015l0.023-0.01l0.02,0.006l0.014,0.02l0.016,0.02
	l0.027,0.004l0.086-0.098l0.042-0.023l0.072-0.027l0.233-0.139l0.07-0.067l0.037-0.024l0.054-0.01l0.051,0.023l0.035,0.039
	l0.034,0.016l0.042-0.044l-0.022-0.01l-0.039-0.026l-0.029-0.014l0.131-0.091l0.107-0.142l0.113-0.093l0.073,0.028l0.003,0.056
	l0.021,0.097l0.015,0.056l0.116,0.024l0.057,0.046l0.034,0.087l0.015,0.019l0.014,0.016l0.037-0.015l0.037-0.029l0.074-0.025
	l0.066-0.045l0.033-0.003l0.075,0.016l0.041,0.017l0.004,0.021l-0.003,0.031l0.017,0.037l0.045,0.073l0.023,0.017l0.048,0.01
	l0.04-0.003l0.043-0.016l0.035-0.029l0.011-0.043l0.008-0.086l0.047-0.04l0.071-0.013l0.118,0.007l0.168,0.041l0.037-0.016
	l0.037-0.021l0.043-0.01l0.128,0.077l0.055,0.164l0.007,0.189l-0.02,0.155l-0.031,0.065l-0.111,0.181l-0.019,0.045l0.069,0.089
	l0.082,0.055l0.09,0.026l0.094,0.003l0.1-0.015l0.056-0.032l0.016-0.068l-0.021-0.12l0.003-0.097l0.045-0.079l0.072-0.045
	l0.086,0.002l-0.06,0.075l-0.015,0.066l0.032,0.059l0.075,0.051l0.077,0.023l0.217-0.011l0.139,0.036l0.14,0.063l0.13-0.04
	l0.035,0.006l0.067,0.021l0.032,0.016l0.126-0.014l0.064,0.004l0.055,0.036l0.146,0.061l0.147,0.011l0.29-0.042l0.262-0.107
	l0.104,0.008l0.084,0.115l0.024,0.031l0.006,0.032l-0.007,0.023l0.003,0.025l0.03,0.036l0.045,0.025l0.036-0.004l0.032-0.013
	l0.038-0.003l0.141,0.043l0.076,0.035l0.183,0.143l0.011,0.019l-0.003,0.02l0.004,0.019l0.026,0.004l0.058-0.013l0.018,0.002
	l0.027,0.021l0.002,0.031l0.008,0.026l0.039,0.014l0.027-0.01l0.05-0.052l0.028-0.019l-0.022-0.107l0.091-0.02l0.215,0.041
	l0.105-0.034l0.073-0.067l0.138-0.165l0.038,0.022l0.025-0.017l0.016-0.039l0.008-0.051l0.067,0.036l0.01,0.003l0.236,0.068
	l0.063,0.074l0.098-0.012l0.096-0.05l0.057-0.04l0.013,0.079l0.042,0.073l0.061,0.058l0.07,0.03l0.027,0.021l0.013,0.03l0.018,0.026
	l0.043,0.009h0.048l0.029,0.016l0.022,0.02l0.026,0.014l0.153,0.02l0.119-0.04l0.248-0.158l0.208-0.083l0.056-0.058l0.054-0.021
	l0.201,0.001l0.062,0.012l0.111,0.107l0.07,0.049l0.051-0.02l0.063-0.155l0.046-0.074l0.058-0.036l0.119,0.055l0.012,0.012
	l0.004,0.02l0.007,0.018l0.022,0.011l0.073-0.004l0.068-0.02l0.125-0.066l0.064,0.01l0.434-0.118l0.13-0.015l0.041-0.028
	l0.013-0.042l0.004-0.013l-0.016-0.072l-0.042-0.062l-0.056-0.039l-0.055-0.005l0.01-0.05l0.007-0.022l0.021-0.027l-0.054-0.04
	l0.016-0.138l-0.034-0.094l-0.001-0.068l0.072-0.049l0.095-0.029l0.063-0.01l0.132,0.015l0.065-0.001l0.066-0.023l0.063-0.005
	l0.174,0.048l0.114,0.012l0.035,0.015l0.07,0.038l0.042,0.006l0.029-0.024l0.025-0.034l0.033-0.021l0.032,0.005l0.069,0.03
	l0.031,0.009l0.303-0.055l0.079,0.003l0.077,0.036l0.051,0.057l0.046,0.063l0.053,0.052l0.072,0.026l0.038-0.004l0.107-0.065
	l0.43-0.106l0.087,0.001l0.003,0.065l0.022,0.015l0.033-0.006l0.033,0.007l0.092,0.09l0.091,0.068l0.102,0.139l0.067,0.05
	l-0.007,0.03l-0.007,0.049l0.009,0.044l0.033,0.011l0.004,0.019l-0.03,0.107l0.003,0.054l0.076-0.029l0.076,0.035l0.031,0.068
	l-0.057,0.063l-0.017,0.012l-0.053,0.039l0.144,0.123l0.015,0.055l0.049,0.02l0.218-0.027l0.027-0.012l0.034-0.03l0.016-0.031
	l0.008-0.031l0.013-0.024l0.212-0.084l0.099-0.073l0.003-0.129l0.01-0.017l0.009-0.009l0.011,0.003l0.013,0.012l0.045,0.002
	l0.042-0.011l0.033-0.026l0.022-0.045l0.013,0.003l0.01,0.008l0.006,0.01l0.002,0.013l0.07,0.01l0.224-0.027l0.081,0.011
	l0.232,0.074l0.086-0.003l0.065-0.014l0.06,0.008l0.069,0.063l0.094,0.153l0.053,0.061l0.084,0.038l0.051,0.016l0.049-0.005
	l0.087-0.035l0.054-0.027l0.033-0.035l0.041-0.074l0.064-0.083l0.01-0.029l0.007-0.071l0.01-0.028l0.047-0.039l0.17-0.023
	l0.194-0.119l0.105-0.041l0.111,0.026l0.051,0.021l0.227,0.036l0.114-0.006l0.056-0.012l0.047,0.064l0.074,0.055l0.081,0.031
	l0.069-0.001l0.08,0.02l0.043,0.002l0.035-0.011l0.016-0.027l0.009-0.08l0.02-0.031l0.066-0.02l0.173,0.01l0.08-0.007l0.09-0.029
	l-0.006-0.02l-0.057-0.035l-0.057-0.074l0.017-0.046l0.112-0.147l0.051-0.046l0.07-0.023l0.139-0.019l0.069-0.029l0.045-0.048
	l0.074-0.125l0.046-0.046l0.054-0.02l0.059-0.014l0.055-0.025l0.088-0.113l0.123,0.01l0.047-0.052l0.039-0.003l0.101-0.025h0.024
	l0.037,0.042l0.038,0.035l0.044,0.023l0.049,0.014l0.077,0.002l0.09-0.014l0.089-0.029l0.14-0.064l0.01,0.06v0.103l0.035,0.064
	l0.023,0.075l0.063,0.052l0.071,0.027l0.072-0.035l0.079-0.024l0.063,0.05l0.022-0.008l0.027-0.043l0.047-0.004l0.098,0.029
	l-0.033,0.175v0.048l0.01,0.07l-0.017,0.039l-0.023,0.032l-0.011,0.052l-0.063-0.01l-0.118,0.062l-0.121-0.016l-0.043-0.033
	l-0.059,0.029l-0.05,0.094l-0.013,0.104l0.044,0.159l0.028,0.107l0.045,0.073l0.073,0.04l0.139,0.036l0.091,0.064l0.109,0.087
	l0.013,0.055l-0.032,0.057l0.003,0.062l0.041,0.063l0.046,0.086l0.012,0.027l0.021,0.021l0.079,0.032l0.028,0.028l0.015,0.088
	l-0.043,0.165l-0.008,0.125l-0.039,0.073l-0.058,0.158l-0.117,0.021l-0.104,0.129l0.003,0.13l-0.081,0.082l-0.239,0.316
	l-0.033,0.112l-0.104,0.056l-0.075,0.043l-0.084,0.047l-0.034,0.021l-0.013,0.015l-0.04,0.062l-0.005,0.021l-0.004,0.037
	l-0.03,0.017l-0.04,0.008l-0.018,0.116l-0.385,0.299l-0.612,0.5l-0.05,0.091l-0.163,0.187l-0.229,0.175l-0.081,0.103l-0.059,0.147
	l-0.086,0.329l-0.062,0.158l-0.085,0.133l-0.209,0.194l-0.132,0.077l-0.232,0.087l-0.221,0.122l-0.06,0.061l-0.031,0.018
	l-0.122,0.028l-0.633,0.383l-0.295,0.099l-0.8,0.55l-0.235,0.117l-0.021,0.026l-0.032,0.124l-0.004,0.037l-0.012,0.03l-0.032,0.027
	l-0.1-0.026l-0.027-0.003l-0.156,0.045l-0.142,0.064l-0.12,0.094l-0.082,0.078l-0.299,0.482l-0.127,0.295l-0.285,0.477l-0.034,0.147
	l0.11,0.027l0.113,0.012l0.043-0.013l0.012-0.026l-0.022-0.029l-0.058-0.021l0.062-0.011l0.057,0.011l0.051,0.028l0.112,0.078
	l0.114,0.049l0.043-0.017l0.076,0.006l0.021,0.093l-0.026,0.105l-0.021,0.058l-0.213,0.125l-0.077,0.109l-0.105,0.307l-0.085,0.107
	l-0.096,0.066l-0.111,0.043l-0.119-0.104l0.168-0.066l0.097,0.034l0.1-0.102l0.076-0.227l-0.074,0.007l-0.107,0.038l-0.271,0.167
	l-0.059,0.063l-0.043,0.077l-0.033,0.093l-0.041,0.285l-0.021,0.151l-0.041,0.102l-0.045,0.081l-0.029,0.085l0.008,0.121
	l-0.069,0.114l-0.128,0.525l-0.029,0.058l-0.077,0.1l-0.035,0.06l-0.079,0.198l-0.171,0.226l-0.109,0.471l-0.073,0.126l-0.156,0.155
	l-0.061,0.154l-0.073,0.356l-0.059,0.158l-0.165,0.3l-0.223,0.689l-0.008,0.052l0.021,0.109l-0.006,0.081l-0.024,0.068l-0.064,0.112
	l-0.033,0.08l-0.023,0.09v0.081l-0.01,0.062l-0.074,0.187l-0.018,0.09l0.016,0.168l0.068,0.22l0.076,0.184l0.149,0.278l0.358,0.418
	l0.059,0.062l0.066,0.065l-0.037,0.042l-0.043,0.055l0.043,0.076l0.079,0.152l0.101,0.132l0.139,0.139l0.145,0.155l0.199,0.192
	l0.071,0.052l0.167,0.065l0.176,0.101l0.095,0.038l0.106-0.003l0.174-0.027l0.19,0.002l0.182,0.042l0.149,0.092l-0.014,0.013
	l-0.03,0.034l0.05,0.009l0.037,0.021l0.12,0.05l0.035-0.02l0.038,0.049l0.02,0.069l-0.016,0.04l-0.068,0.024l-0.059,0.03
	l-0.05,0.042l-0.04,0.062l-0.018,0.105l-0.005,0.014l-0.011,0.02l-0.069,0.022l-0.024,0.02l-0.036,0.06l-0.037,0.032l-0.031,0.04
	l-0.019,0.08l0.045,0.056l-0.08,0.003l-0.047,0.025l-0.045,0.035l-0.064,0.029l-0.11,0.031l-0.048,0.029l-0.043,0.055l-0.024,0.084
	l0.017,0.065l0.021,0.061l-0.008,0.069l-0.04,0.072l-0.051,0.034l-0.154,0.041l-0.159,0.081l-0.086,0.059l-0.098,0.111l-0.319,0.233
	l-0.046,0.054l-0.011,0.058l-0.024,0.026l-0.1,0.18l-0.023,0.076l0.008,0.092l0.013,0.047l-0.009,0.021l-0.119,0.038l-0.05,0.029
	l-0.029,0.046l0.004,0.071l-0.136,0.026l0.013,0.188l0.162,0.396l-0.029,0.063l-0.062,0.032l-0.138,0.025l-0.08,0.042l-0.054,0.07
	l-0.035,0.085l-0.022,0.084l-0.007,0.07l0.002,0.073l0.037,0.194l0.061,0.3l0.014,0.085l-0.024,0.05l-0.09,0.062l-0.054,0.091
	l-0.021,0.068l-0.062,0.396l0.013,0.076l0.002,0.005l0.063,0.174l-0.007,0.051l-0.133-0.094l-0.032,0.26l-0.04,0.054l-0.078,0.045
	l-0.017,0.07l0.035,0.079l0.179,0.181l0.05,0.034l0.142,0.043l0.097,0.018l0.078-0.012l0.019-0.063l0.079,0.02l0.04,0.046
	l-0.002,0.058l-0.045,0.055l-0.023,0.039l-0.028,0.026l-0.034,0.01l-0.038-0.014l-0.032,0.03l-0.094,0.064l-0.06,0.029l-0.095,0.083
	l-0.143,0.036l-0.047,0.022l-0.048,0.038l-0.077,0.083l-0.039-0.015l-0.169-0.029l-0.132,0.009l-0.244,0.058l-0.065,0.026
	l-0.056,0.035l-0.034,0.046l-0.009,0.048l0.023,0.042l0.062,0.065l-0.127,0.005l-0.12,0.004l-0.037-0.045l-0.03-0.035l-0.084,0.01
	l-0.122-0.016h-0.057l-0.044,0.07l-0.005,0.046l-0.108,0.022l-0.135,0.019l-0.099,0.083l-0.053,0.055l-0.131,0.2l-0.055,0.055
	l-0.072,0.034l-0.018,0.016l-0.026,0.028l-0.021,0.033l-0.007,0.024l-0.004,0.023l-0.005,0.16l0.003,0.03l-0.026,0.032h-0.024
	l-0.024-0.011l-0.026,0.005l-0.03,0.03l-0.06,0.081l-0.033,0.021l-0.055,0.025l-0.177,0.129l-0.076,0.074l-0.003,0.058l-0.018,0.042
	l-0.072,0.009l-0.025,0.049l-0.003,0.085l-0.028,0.105l-0.076,0.184l-0.174,0.271l-0.068,0.152l-0.023,0.202l0.01,0.164
	l-0.016,0.136l0.008,0.13l-0.047,0.307l-0.052,0.148l0.011,0.057l0.021,0.037l0.022,0.032l0.017,0.037l0.003,0.042l-0.014,0.029
	l-0.027,0.018l-0.085,0.028l-0.021,0.016l-0.038,0.058l-0.115,0.124l-0.038,0.073l0.005,0.197l-0.033,0.067l-0.051,0.059
	l-0.048,0.08l-0.008,0.039l0.001,0.091l-0.011,0.044l-0.031,0.029l-0.041,0.021l-0.033,0.023l-0.02,0.097l-0.05,0.061l-0.072,0.049
	l-0.073,0.029l-0.157-0.006l-0.135-0.077l-0.125-0.099l-0.13-0.079l-0.158-0.046l-0.088-0.009l-0.092,0.01l-0.07,0.032l-0.112,0.094
	l-0.076,0.038h-0.038l-0.117-0.017l-0.049,0.001l-0.3,0.129l-0.055,0.05l-0.038,0.194l-0.032,0.224l-0.078,0.122l-0.017,0.019
	l-0.034,0.053l-0.091,0.066l-0.13,0.05l-0.076-0.007l-0.074,0.052l-0.118-0.039l-0.092-0.039l-0.08-0.013l-0.032,0.02l-0.026,0.051
	l-0.034,0.02l-0.046-0.012l-0.141-0.109l-0.127-0.044l-0.077,0.013l-0.2,0.118l-0.365,0.027l-0.313,0.102l-0.294,0.02l-0.394,0.144
	l-0.051,0.05l-0.044,0.064l-0.069,0.076l-0.126,0.119l-0.249,0.058l-0.179-0.08l-0.078,0.032l-0.049,0.04l-0.16-0.03l-0.075-0.059
	l-0.124,0.034l-0.131,0.04l-0.045,0.063l-0.202,0.07l-0.308-0.017l-0.149-0.01l-0.195,0.086l-0.271,0.144l-0.406-0.007l-0.09,0.042
	l-0.103,0.11l-0.34,0.129l-0.108,0.039l-0.732,0.113l-0.064,0.034l-0.043,0.055l-0.076,0.208l-0.014,0.045l-0.043,0.067
	l-0.029,0.077l-0.002,0.078l-0.08,0.213l-0.249,0.092l-0.067,0.225l-0.124,0.119l-0.035,0.03l-0.077,0.05l-0.166,0.076l-0.17,0.033
	l-0.483,0.054l-0.093,0.017l-0.036,0.021l-0.041,0.044l-0.249,0.25l-0.276,0.086l-0.166,0.151l-0.047,0.028l-0.147,0.05
	l-0.062,0.035l-0.047,0.041l-0.041,0.078l-0.075,0.209l0.005,0.043l-0.034,0.187l-0.022,0.078l-0.016,0.025l-0.025,0.034
	l-0.029,0.027l-0.063,0.039l0.012,0.035l0.025,0.038l-0.034,0.074l-0.088,0.259l-0.011,0.054l0.025,0.224l-0.081,0.018l-0.056-0.096
	l-0.074-0.028l-0.104-0.011l-0.08,0.016l-0.004,0.049l-0.03,0.049l-0.007,0.063l0.017,0.065l0.04,0.055l-0.014,0.039l0.025,0.07
	l0.032,0.04l0.02,0.035l-0.002,0.057l-0.022,0.037l-0.023,0.032l-0.081,0.051l-0.388,0.229l-0.052,0.049l-0.121,0.063l-0.103-0.125
	l-0.192-0.052l-0.083-0.036l-0.091,0.055l-0.092-0.007l-0.092-0.028l-0.186-0.009l-0.074-0.039l-0.111-0.1l-0.318-0.183l-0.09-0.031
	l-0.089,0.021l-0.182,0.073l-0.231-0.011l-0.133-0.108l-0.112-0.14l-0.12-0.121l-0.25-0.062l-0.04-0.063l-0.024-0.076l-0.044-0.081
	l-0.054-0.071l-0.171-0.119l-0.138-0.188l-0.09-0.128l-0.124-0.144l-0.104-0.051l-0.043-0.031l0.047-0.032l0.037-0.001l0.152,0.084
	l0.045,0.035l-0.015,0.043l0.04,0.04l0.075,0.053l0.051-0.022l0.025-0.033l0.032-0.072l0.072-0.111l-0.03,0.003l-0.079,0.043
	l-0.075,0.007l-0.048-0.065l-0.001-0.15l-0.054-0.081l-0.233-0.132l-0.048-0.011l-0.286,0.042l-0.078-0.002l-0.073-0.046
	l-0.086-0.178l-0.063-0.081l-0.073-0.076l-0.043-0.082l0.003-0.09l0.063-0.094l0.069-0.052l0.146-0.083l0.047-0.055l0.022-0.119
	l-0.072-0.188l0.003-0.116l0.119-0.142l0.34-0.047l0.091-0.165l-0.07,0.066l-0.099,0.06l-0.105,0.025l-0.088-0.045l-0.163,0.1
	l-0.068,0.07l-0.013,0.104l0.076,0.28l-0.013,0.059l-0.148,0.032l-0.144-0.116l-0.192-0.285l-0.121-0.128l-0.14-0.09l-1.144-0.462
	l-0.12-0.031l-0.101-0.004l-0.077-0.014l-0.195-0.096l-0.091-0.018l-0.088-0.021l-0.095-0.091l-0.051-0.118l0.02-0.065l0.042-0.049
	l0.108-0.228l0.032-0.092l-0.172,0.258l-0.102,0.098l-0.131,0.026l0.005,0.029l0.114,0.109l0.059,0.074l0.017,0.051l-0.054,0.017
	l-0.396-0.091l-0.143-0.013l-0.173-0.016l-0.102,0.066l0.121-0.01l0.061,0.015l-1.012,0.223l-0.059,0.038l-0.07,0.086l-0.077,0.023
	l-0.076-0.013l-0.073-0.021l-0.099-0.196l-0.038-0.104l0.015-0.079l-0.069-0.148l-0.097-0.372l-0.099-0.135v-0.055l-0.029-0.103
	l-0.045-0.111l-0.046-0.084l-0.028-0.024l-0.081-0.04l-0.038-0.024l-0.042-0.042l-0.005-0.004l-0.013-0.026l-0.01-0.031
	l-0.032-0.062l-0.018,0.004l-0.008-0.004l-0.01-0.049l0.01-0.022l0.036-0.055l0.001-0.025l0.005-0.022l-0.001-0.025l-0.016-0.026
	l0.035-0.03l0.093-0.128l0.021-0.045l0.01-0.075l-0.003-0.235l0.031-0.156l0.058-0.11l0.332-0.365l0.082-0.206l0.018-0.172
	l0.052-0.238l0.007-0.089l-0.01-0.049l-0.021-0.042l-0.01-0.038l0.023-0.033l0.128-0.049l0.04-0.037l0.055-0.005l0.056,0.004
	l0.051-0.004l0.047-0.035l0.052-0.023l0.028-0.024l0.033-0.061l0.024-0.107l0.029-0.042l0.073-0.009l0.249,0.044l0.103-0.032
	l0.014-0.121l0.028-0.066l0.011-0.15l0.051-0.159l0.027-0.168l0.02-0.077l0.018-0.144l-0.015-0.005l-0.063-0.027l-0.113,0.031
	l-0.102,0.05l-0.013,0.002l-0.022-0.002l-0.04,0.073l-0.093,0.061l-0.101,0.039l-0.063,0.011l-0.064-0.036l-0.046-0.026
	l-0.235-0.354l-0.025-0.017l-0.078-0.035l-0.033-0.02l-0.022-0.026l-0.038-0.058l-0.022-0.025l-0.526-0.428l-0.131-0.055
	l-0.062-0.015l0.05-0.069l0.031-0.059l-0.005-0.058l-0.06-0.053l0.031-0.063l0.033-0.253l0.132-0.258l0.011-0.07l-0.019-0.035
	l-0.027-0.011l-0.03-0.01l-0.025-0.025l-0.013-0.038l-0.01-0.046l-0.011-0.11v-0.169l0.007-0.036l0.024-0.068l0.004-0.02l0.159-0.17
	l0.05-0.055l0.06-0.035l0.059-0.063l0.045-0.07l0.016-0.049l0.034-0.038l0.182-0.072l0.061-0.042l0.043-0.055l0.042-0.048
	l0.03-0.025l-0.017-0.067l0.007-0.077l-0.072-0.082l0.076-0.083l0.07-0.133l0.094-0.267l0.031-0.055l0.014-0.052l-0.014-0.042
	l-0.053-0.025l0.014-0.085l-0.042-0.088l-0.072-0.074l-0.076-0.045l-0.104-0.041l-0.111-0.007l-0.105,0.03l-0.088,0.07l-0.047,0.026
	l-0.063,0.003l-0.064-0.018l-0.048-0.031l-0.015-0.038l0.03-0.101v-0.051l-0.066-0.081l-0.103-0.022l-0.118-0.005l-0.11-0.034
	l-0.071-0.064l-0.047-0.088l-0.013-0.101l0.04-0.097l-0.242-0.189l-0.086-0.042l-0.04-0.051l-0.037-0.097l-0.021-0.104l0.01-0.071
	l0.02-0.074l0.003-0.113l-0.018-0.102l-0.038-0.041l-0.18-0.012l-0.092-0.021l-0.071-0.034l-0.057-0.099l-0.042-0.033l-0.149-0.042
	l-0.077-0.047l-0.147-0.124l-0.083-0.048l-0.189-0.307l-0.043-0.062l-0.007-0.013l0.884-0.115l0.054-0.023l0.062-0.039l0.073-0.026
	l0.162-0.024l0.067-0.033l0.097,0.033l0.126-0.017l0.584-0.174l0.055-0.033l0.028-0.109l-0.01-0.034l-0.019-0.03l-0.007-0.045
	l0.011-0.048l0.035-0.085l0.007-0.05l-0.013-0.037l-0.026-0.041l-0.014-0.051l0.017-0.068l0.026-0.029l0.087-0.052l0.035-0.028
	l0.075-0.153l0.008-0.05l-0.013-0.079v-0.044l-0.003-0.023l-0.023-0.045l-0.006-0.026l0.008-0.024l0.035-0.033l0.009-0.02
	l0.003-0.122l0.008-0.045l-0.018-0.051l0.011-0.053l0.051-0.118l-0.21-0.235l-0.107-0.084l-0.068-0.069l-0.05-0.027l-0.047-0.007
	l-0.107,0.006l-0.051-0.006l-0.06-0.056l-0.058-0.155l-0.046-0.064l0.024-0.063l0.02-0.116l0.028-0.05l0.066-0.042l0.154-0.132
	l0.05-0.017l0.026-0.01l0.079-0.007l0.077-0.019l0.065-0.061l0.007-0.029l-0.006-0.038l-0.004-0.04l0.008-0.039l0.021-0.031
	l0.152-0.147l0.028-0.039l0.05-0.124l-0.155-0.092l-0.118-0.12l-0.052-0.151l0.045-0.178l0.071-0.136v-0.061l-0.036-0.077
	l-0.053-0.058l-0.054-0.034l-0.043-0.042l-0.023-0.082l0.012-0.077l0.063-0.169l0.014-0.086l-0.011-0.057l-0.022-0.083l-0.062-0.152
	l-0.079-0.147l-0.021-0.065l-0.016-0.092l-0.001-0.047l0.006-0.028l-0.001-0.026l-0.021-0.048l-0.011-0.031l-0.017-0.12l0.061-0.029
	l0.007-0.063l-0.031-0.059l-0.048-0.021l-0.063-0.003l-0.039-0.035l-0.052-0.094l-0.12-0.178l-0.071-0.073l-0.146-0.1l-0.05-0.048
	l-0.019-0.057l0.031-0.07v-0.091l0.002-0.002l0.073-0.052l0.248-0.022l0.106-0.028l0.045-0.059l0.118-0.236l0.018-0.091
	l-0.032-0.115l0.01-0.036l0.04-0.069l0.119-0.131l0.016-0.042l0.017-0.077l0.104-0.215l0.038-0.055l0.066-0.022l0.258-0.049
	l0.031-0.028l0.214-0.131l0.111-0.112l0.104-0.141l0.089-0.203l0.015-0.007l0.051,0.002l0.014-0.007l0.005-0.028l-0.002-0.038
	l-0.008-0.028h-0.013l0.045-0.046l0.05-0.029l0.121-0.028l-0.007-0.04l0.107-0.244l-0.004-0.03l-0.016-0.031l-0.011-0.035
	l0.016-0.053l0.083-0.114l0.139-0.281l-0.048-0.039l-0.068-0.061l-0.193-0.129l-0.193-0.072l-0.203-0.031l-0.328-0.006l-0.054,0.009
	l-0.023,0.025l-0.02,0.033l-0.047,0.042l-0.054,0.038l-0.039,0.017l-0.117-0.018l-0.068-0.067l-0.037-0.089l-0.026-0.086
	l-0.025-0.041l-0.034-0.036l-0.02-0.04l0.016-0.049l0.021-0.043l0.008-0.047l0.023-0.401l0.029-0.097l-0.107-0.014l-0.07,0.001
	l-0.037-0.026l-0.006-0.211l-0.03-0.075l-0.063-0.048l-0.102-0.021l-0.034,0.11l-0.126,0.059l-0.275,0.058l-0.123-0.014l-0.18-0.175
	h-0.122l0.001,0.146l-0.083,0.067l-0.24,0.057l-0.113-0.001l-0.108-0.054l-0.059-0.015l-0.038-0.012l-0.081,0.076l-0.129,0.078
	l-0.132-0.031l-0.137-0.074l-0.139-0.052l-0.055,0.019l-0.064,0.046l-0.052,0.051l-0.024,0.032l0.003,0.068l0.053,0.15l0.005,0.075
	l-0.034,0.066l-0.028,0.054l-0.116,0.095l-0.265,0.131l-0.069,0.021l-0.145,0.02l-0.058,0.019l-0.048,0.042l-0.077,0.113
	l-0.046,0.049l-0.03-0.073l-0.052-0.076l-0.062-0.055l-0.059-0.009l-0.038,0.001l-0.067-0.027l-0.03,0.004l-0.024,0.028
	l-0.004,0.029l0.001,0.033l-0.015,0.037l-0.053,0.049l-0.076,0.039l-0.082,0.023l-0.071,0.005l-0.069-0.022l-0.011-0.044
	l0.035-0.159l-0.214,0.023l-0.074-0.02l-0.123-0.053l-0.064-0.005l-0.102,0.069l-0.237,0.092l-0.108,0.01l-0.041,0.019l-0.014,0.03
	l-0.008,0.032l-0.022,0.032l-0.126,0.02l-0.051-0.134l-0.032-0.128l-0.074,0.039l-0.009,0.058l-0.007,0.084l-0.028,0.067
	l-0.072,0.013l-0.066,0.001l-0.052,0.032l-0.041,0.054l-0.03,0.063l-0.11,0.144l-0.007,0.003l-0.164,0.071l-0.348,0.032v-0.01
	l-0.003-0.116l-0.018-0.063l-0.036-0.033l-0.151-0.028l-0.06-0.078l-0.008-0.091l0.023-0.093l0.12-0.228l0.1-0.12l0.105-0.084
	l0.055-0.058l0.032-0.067l-0.005-0.084l-0.043-0.067l-0.07-0.042l-0.081-0.018l-0.081,0.02l-0.066,0.04l-0.057,0.024l-0.058-0.028
	l-0.026-0.077l-0.021-0.207l-0.048-0.067l-0.043-0.042l-0.106,0.096l-0.069,0.037l-0.067,0.013l-0.028,0.012l-0.032,0.025
	l-0.09,0.099l-0.062,0.042l-0.603,0.18l-0.071,0.036l-0.124,0.105l-0.069,0.038l-0.146,0.025l-0.068,0.021l-0.062,0.055
	l-0.026,0.055l-0.027,0.109l-0.022,0.054l-0.074,0.062l-0.1,0.042l-0.083,0.055l-0.042,0.036l-0.031,0.086l-0.05,0.082l-0.065,0.066
	l-0.079,0.033l-0.063,0.043l-0.054,0.08l-0.056,0.061l-0.071-0.013v-0.067l-0.225-0.926v-0.085l0.038-0.04l0.159-0.026l0.071-0.028
	l0.022-0.049l-0.023-0.035l-0.082-0.022l-0.022-0.027l0.018-0.02l0.097-0.064l0.007-0.021l0.004-0.048l0.014-0.047l0.039-0.027
	l0.016-0.017l0.062-0.095l0.188-0.176l0.05-0.026l0.016-0.013l0.111-0.126l0.068-0.036l0.073-0.062l0.021-0.028l0.008-0.042
	l-0.023-0.147l-0.009-0.03l-0.016-0.003l-0.032,0.014l-0.051,0.061l-0.03,0.097l-0.042,0.094l-0.094,0.052l-0.078,0.028l-0.202,0.12
	l-0.038,0.049l-0.042,0.016l-0.213,0.017l-0.073,0.032l0.006-0.063l0.024-0.112l-0.009-0.065l0.024-0.005l0.067,0.069l0.018-0.04
	l-0.021-0.156l-0.013-0.038l-0.013-0.021l0.013-0.015l0.055-0.018l0.148,0.01l0.019-0.016l0.02-0.067l0.125-0.18l0.06-0.065
	l0.119-0.096l0.05-0.059l0.02-0.072l-0.035,0.02l-0.032,0.004l-0.042-0.01l-0.035,0.01l-0.012,0.006l-0.008,0.01l-0.08,0.06
	l-0.089,0.085l-0.052,0.037l-0.083,0.032l-0.125,0.029l-0.132,0.003l-0.105-0.039l-0.041-0.051l-0.031-0.088l-0.039-0.048
	l-0.057-0.018l-0.142-0.003l-0.032-0.016l0.024-0.051l0.067-0.052l0.078-0.04l0.056-0.022l0.052,0.01l0.039,0.035l0.006,0.046
	l-0.048,0.038l0.038,0.015l0.059,0.013h0.061l0.039-0.018l0.008-0.055l-0.018-0.055l-0.009-0.052l0.043-0.045l-0.074-0.16
	l-0.02-0.082l0.004-0.074l0.027-0.062l0.043-0.045l0.05-0.021l0.042-0.067l0.102-0.316l0.013-0.112l-0.025,0.005l-0.015,0.081
	l-0.027,0.08l-0.045,0.063l-0.066,0.032l-0.079-0.016l-0.058-0.053l-0.053-0.07l-0.06-0.032l-0.045,0.108v0.062l0.046,0.035
	l-0.069,0.124l-0.042,0.034l-0.063-0.032l0.013-0.054l-0.051,0.032l-0.118,0.109l0.066,0.054l-0.042,0.039l-0.138,0.058
	l-0.008,0.026l-0.016,0.113l-0.031,0.017l-0.027,0.031l-0.049,0.068l-0.068-0.052l-0.022-0.087l-0.031-0.078l-0.096-0.022
	l-0.068-0.045l0.002-0.119l0.04-0.132l0.039-0.08l-0.012-0.056l0.002-0.074l0.01-0.1l0.037-0.063l0.013-0.038l0.026-0.038
	l0.045-0.021l0.008-0.012l0.106-0.075l0.083-0.141l0.053-0.059l0.093-0.033l0.021-0.038l0.014-0.078l-0.023-0.077l-0.089-0.028
	l0.002,0.112l-0.052,0.077l-0.086,0.047l-0.104,0.027l-0.206,0.001l-0.081,0.025l0.025,0.08l-0.078,0.101l-0.047,0.031l-0.078-0.003
	l-0.059-0.035l-0.037-0.059l-0.032-0.075l-0.051-0.081l0.05-0.005l0.035-0.022l0.022-0.038l0.016-0.052l-0.041-0.051l-0.061-0.026
	l-0.08-0.019l-0.01-0.036l-0.03-0.062l-0.009-0.028l0.006-0.02l0.029-0.042l0.007-0.03l-0.003-0.045l-0.007-0.031l-0.03-0.014
	l-0.069,0.003l-0.04-0.016l-0.076-0.081l-0.052-0.013l0.003,0.029l0.032,0.049l-0.02,0.031l-0.035,0.014l-0.021-0.001l-0.026-0.063
	h-0.041l-0.041,0.031l-0.03,0.034l-0.023,0.045l-0.025,0.103l-0.021,0.046l-0.02-0.007l-0.057-0.107l-0.041-0.024l-0.004-0.029
	l0.02-0.049l0.052-0.216l-0.002-0.029l0.003-0.041l0.007-0.039l0.012-0.029l0.008-0.045l-0.029-0.026l-0.064-0.032l-0.047-0.11
	l0.029-0.031l0.053-0.008l0.021-0.047l0.007-0.092l0.041-0.047l0.042-0.036l0.011-0.059l0.064,0.037l0.055,0.008l0.049-0.024
	l0.052-0.051l0.018-0.027l0.007-0.025l0.013-0.025l0.031-0.03l0.03-0.019l0.027-0.013l0.071-0.017l-0.005-0.036l-0.063,0.039
	l-0.087,0.029l-0.064,0.003l-0.003-0.042l-0.117,0.074l-0.058,0.001l-0.05-0.081l0.165-0.187l0.118-0.077l0.158,0.039l0.068-0.011
	l0.069-0.021l0.047-0.026l0.045-0.046l0.046-0.034l0.03-0.071l0.011-0.074l0.029-0.004l0.081,0.048l0.106-0.017l0.098-0.053
	l0.062-0.054l-0.082,0.015l-0.052-0.022l-0.075-0.101l-0.018,0.004l-0.053-0.017l-0.037-0.026l0.026-0.017l0.04-0.009l0.148-0.085
	l0.152-0.124l0.12-0.045l0.024-0.039l0.027-0.027l0.042-0.018l0.056,0.02l0.143,0.096l0.07,0.019l0.073,0.001l0.16,0.023h0.075
	l0.103-0.05l0.129-0.09l0.141-0.062l0.143,0.035l0.193-0.115l0.027-0.035l0.006-0.043l0.026-0.042l0.035-0.031l0.077-0.027
	l0.014-0.022l0.006-0.024l0.021-0.02l0.206-0.08l0.024,0.063l0.042,0.042l0.1,0.057l0.041-0.062l0.006-0.046l-0.028-0.112
	l0.026-0.065h0.08l0.125,0.05l0.059,0.01l0.031,0.04l0.023,0.052l0.034,0.049l0.104,0.067l0.047,0.042l0.04,0.068l0.018-0.08
	l-0.015-0.074l-0.052-0.143l-0.011-0.075l0.013-0.045l0.037-0.041l0.064-0.056l-0.082-0.022l-0.072,0.001l-0.132,0.028l-0.072-0.012
	l-0.107-0.078l-0.069-0.014l0.064-0.062l0.387-0.102l0.026-0.011l0.024-0.026l0.013-0.035l-0.013-0.035h-0.02l-0.084,0.049
	l-0.232,0.067l0.012-0.019l0.011-0.008l0.025-0.016l-0.018-0.012l-0.041-0.015l-0.036,0.069l-0.072,0.04l-0.171,0.03l0.019-0.078
	l-0.003-0.103l0.008-0.075l0.049,0.011l0.04-0.073l-0.036-0.021l-0.038-0.033l-0.027-0.047l-0.006-0.052l0.016-0.003l0.069,0.003
	l0.024-0.016h0.094l0.104-0.068l0.503-0.465l0.022,0.05l0.036,0.024l0.045-0.003l0.042-0.025l-0.04,0.009h-0.013l-0.006-0.031
	l0.016-0.011l0.017-0.02l0.016-0.012l-0.083-0.045l-0.02-0.05l0.01-0.054l0.005-0.058l0.017-0.045l0.056-0.021l0.131-0.016
	l0.11-0.046l0.1-0.073l0.082-0.094l0.062-0.104h0.109l0.057,0.062l0.044,0.081l0.068,0.055l0.005,0.031l-0.024-0.01l-0.04-0.005
	l-0.021-0.005l-0.021,0.045l-0.011,0.045l0.005,0.042l0.03,0.032l-0.037,0.033l-0.013-0.004l-0.033-0.019l-0.021,0.026l-0.008,0.009
	l-0.017,0.009l0.005,0.031l0.195-0.017l0.03-0.04l-0.09-0.096l0.041-0.035l0.046-0.008l0.102,0.018l-0.012-0.015l-0.016-0.034
	l-0.011-0.016l0.045-0.063l0.062-0.062l0.07-0.052l0.148-0.058l0.072-0.063l0.055-0.077l0.015-0.075l0.01-0.02l0.029,0.011
	l0.033,0.032l0.021,0.049l-0.013,0.03l-0.072,0.111L1000.342,580.064z"/></svg>