<?xml version="1.0" encoding="utf-8"?>
<!-- Generator: Adobe Illustrator 15.0.0, SVG Export Plug-In . SVG Version: 6.00 Build 0)  -->
<!DOCTYPE svg PUBLIC "-//W3C//DTD SVG 1.1//EN" "http://www.w3.org/Graphics/SVG/1.1/DTD/svg11.dtd">
<svg version="1.1" id="Ebene_1" xmlns="http://www.w3.org/2000/svg" xmlns:xlink="http://www.w3.org/1999/xlink" x="0px" y="0px"
	 width="1920px" height="1080px" viewBox="0 0 1920 1080" enable-background="new 0 0 1920 1080" xml:space="preserve">

<path fill="#222222" d="M1151.009,560.793l0.054-0.022l0.043-0.074l0.156-0.065v-0.022l0,0l0.047,0.004l-0.001,0.028l-0.009,0.022
	l-0.025,0.026l-0.049,0.01h-0.042l-0.052,0.036l-0.035,0.059l-0.042,0.03l-0.033,0.011l-0.042,0.009l-0.047,0.011l0.005-0.045h0.001
	l0.026-0.001L1151.009,560.793z M1146.971,563l0.012,0.063l-0.02,0.051l-0.029,0.032l-0.049,0.021l-0.062,0.006l-0.052-0.025
	l0.036-0.058l0,0l0.014,0.015l0.063,0.014l0.028-0.028l0.007-0.045l-0.014-0.049l-0.005-0.014l0,0l0.026-0.024l0.03-0.015
	L1146.971,563z M1149.274,561.443l0.085,0.046l0.073,0.035l0.127,0.062l0.044,0.02l0.046,0.064l0.048,0.07l0.031,0.078l0.044,0.098
	l0.024,0.032l0.037-0.013l-0.017-0.022l-0.021-0.04l-0.021-0.051l-0.003-0.035l-0.023-0.079l0.007-0.03l0.021-0.015l0.031-0.013
	l0.047-0.013l0.016-0.016l-0.021-0.04l-0.004-0.03l0.02-0.013l0.041,0.005l0.04,0.018l0.05,0.044l0.058,0.003l0.042-0.021
	l0.012-0.05l0.022-0.041l0.108,0.007l0.044-0.029l0.007-0.014l0.049-0.025l0.017-0.029l0.028,0.005l0.068-0.011l0.026,0.02
	l-0.009,0.041l0.024,0.015l0.06-0.012l0.018,0.05l-0.031,0.009l-0.008,0.003l-0.068,0.001l-0.035,0.017l-0.042,0.02l-0.088,0.013
	l-0.037,0.006l-0.04,0.01l-0.016,0.028l-0.021,0.023l-0.049,0.002l-0.037,0.017l-0.012,0.037l0.01,0.063l-0.037,0.061l-0.049,0.008
	l-0.052-0.034l-0.061-0.086l-0.041-0.01l-0.011,0.045l-0.006,0.036l-0.005,0.029l0.061,0.112l0.019,0.07l-0.039,0.047l-0.032,0.022
	l-0.053-0.017l-0.042-0.042l-0.027-0.077l-0.038-0.092l-0.048-0.07l-0.037-0.062l-0.047-0.059l-0.021-0.021l-0.071-0.015
	l-0.059-0.016l-0.038-0.006l-0.047-0.046l-0.031-0.045h-0.022l-0.046,0.043l-0.07,0.063l-0.053,0.026l-0.02,0.028l-0.015,0.104
	l-0.018,0.054l0.015,0.03v0.029l-0.017,0.025l-0.079,0.029l-0.068,0.006l-0.056-0.019l-0.071-0.017l-0.04,0.006l-0.038,0.022
	l-0.05,0.014l-0.051,0.012l-0.046,0.03l-0.036,0.101l0.003,0.044l-0.01,0.026l-0.027,0.048l-0.074,0.052l-0.09,0.036l-0.08,0.042
	l-0.023,0.027l-0.012,0.052l-0.039,0.089l-0.036,0.063l-0.018,0.085l-0.017,0.096l-0.022,0.052l-0.04,0.026l-0.066,0.002
	l-0.036-0.013l-0.037,0.006l-0.014,0.029l0.009,0.052l0.001,0.023l-0.019,0.052l-0.063,0.074l-0.024,0.019l-0.041,0.007
	l-0.035-0.019l-0.023-0.032l-0.048-0.044l-0.052-0.008l-0.079,0.015l-0.083,0.007l-0.097,0.028l-0.063,0.008l-0.051-0.02
	l-0.051-0.036l-0.085-0.081l0,0l0.063-0.034l0.014,0.024l0.035,0.039l0.048,0.02l0.058,0.014l0.051-0.004l0.057-0.019l0.121-0.046
	l0.083-0.003l0.086,0.026l0.078,0.055l0.049-0.029l-0.004-0.043l0.004-0.057l0.013-0.02l0.027-0.033l0.076-0.039l0.036-0.018
	l0.03-0.029l0.031-0.033l0.043-0.083l0.011-0.106l0.049-0.088l0.03-0.062l0.06-0.074l0.042-0.08l0.039-0.052l0.067,0.013
	l0.029-0.028l0.013-0.119l0.035-0.048l0.085-0.084l0.127-0.03l0.066-0.003l0.097-0.055l0.101-0.038l0.049-0.028l0.021-0.04
	l0.055-0.038l0.068-0.088l0.009-0.026l-0.002-0.054l0.011-0.058l0.035-0.032l0.037,0.003l0.038,0.035L1149.274,561.443z"/></svg>