<?xml version="1.0" encoding="utf-8"?>
<!-- Generator: Adobe Illustrator 15.0.0, SVG Export Plug-In . SVG Version: 6.00 Build 0)  -->
<!DOCTYPE svg PUBLIC "-//W3C//DTD SVG 1.1//EN" "http://www.w3.org/Graphics/SVG/1.1/DTD/svg11.dtd">
<svg version="1.1" id="Ebene_1" xmlns="http://www.w3.org/2000/svg" xmlns:xlink="http://www.w3.org/1999/xlink" x="0px" y="0px"
	 width="1920px" height="1080px" viewBox="0 0 1920 1080" enable-background="new 0 0 1920 1080" xml:space="preserve">

<path fill="#F4E0B6" stroke="#FFFFFF" d="M1014.899,550.866l0.042,0.017l0.017-0.025l0.02-0.011l0.049-0.012l0.06,0.038l0.174,0.046
	l0.007,0.047l0.02,0.017l0.024,0.026l0.016,0.01l-0.022,0.029l-0.006,0.034l0.006,0.039l0.013,0.052l0.003,0.049l-0.021,0.003
	l-0.035-0.016l-0.033-0.007l-0.102,0.016l-0.062-0.015l-0.096-0.06l-0.032-0.013l-0.033-0.007l-0.022,0.003l-0.021,0.031
	l-0.016,0.048l-0.012,0.062l-0.03-0.004l-0.051-0.035l-0.038-0.007l-0.008,0.009l-0.062,0.037l-0.033,0.008v-0.104l-0.049-0.104
	l-0.05-0.087l-0.012-0.057l0.036-0.02l0.049,0.004l0.071,0.022l0.044-0.012l0.032-0.015l0.027-0.025l0.028-0.037l0.032,0.02
	L1014.899,550.866z"/></svg>