<?xml version="1.0" encoding="utf-8"?>
<!-- Generator: Adobe Illustrator 15.0.0, SVG Export Plug-In . SVG Version: 6.00 Build 0)  -->
<!DOCTYPE svg PUBLIC "-//W3C//DTD SVG 1.1//EN" "http://www.w3.org/Graphics/SVG/1.1/DTD/svg11.dtd">
<svg version="1.1" id="Ebene_1" xmlns="http://www.w3.org/2000/svg" xmlns:xlink="http://www.w3.org/1999/xlink" x="0px" y="0px"
	 width="1920px" height="1080px" viewBox="0 0 1920 1080" enable-background="new 0 0 1920 1080" xml:space="preserve">

<path fill="#F4E0B6" stroke="#FFFFFF" d="M1086.186,549.51l0.076-0.071l0.053-0.036l0.038-0.039l0.159-0.309l0.032-0.025l0.03,0.015
	l0.026,0.029l0.024,0.013l0.027-0.015l0.04-0.046l0.025-0.019l0.138-0.033l0.025-0.017l0.016-0.024l0.026-0.013l0.083,0.028
	l0.033-0.004l0.027-0.016l0.005-0.009l-0.001-0.004l0.018,0.007l0,0l0.025,0.012l0.025,0.007l0.021,0.019l0.025,0.027l0.023,0.041
	l-0.005,0.016l-0.013,0.011l-0.002,0.023l0.144,0.53l0.007,0.089l-0.006,0.054l-0.033,0.077l-0.014,0.048l-0.003,0.046l0.02,0.139
	l-0.019,0.294l-0.006,0.02l-0.022,0.032l-0.005,0.025l0.008,0.029l0.035,0.063l0.009,0.03v0.039l-0.005,0.037l-0.014,0.029
	l-0.083,0.082l0.024,0.066l0.134,0.155l0.05,0.112l-0.004,0.074l-0.016,0.07l0.018,0.094l0.044,0.074l0.062,0.068l0.132,0.106
	l0.083,0.038l0.07-0.002l0.135-0.032l0.074,0.002l0.029-0.005l0.042-0.018l0.08-0.066l0.036-0.01l0.069,0.018l0.085,0.049
	l0.078,0.067l0.046,0.078l0.044,0.042l0.082,0.031l0.172,0.03l0.045,0.016l0.025,0.003l0.015-0.015l0.015-0.047l0.018-0.009
	l0.04,0.02l0.042,0.067l0.03,0.017l0.065,0.02l0.09,0.051l0.029,0.017l0.12,0.009l0.075,0.033l0.037,0.009l0.005-0.016l0.006-0.032
	l0.021-0.022l0.052,0.016l0.06,0.064l0.009,0.077l-0.021,0.078l-0.073,0.145l-0.056,0.059l-0.065,0.041l-0.171,0.063l-0.146,0.086
	l-0.037,0.033l-0.039,0.022l-0.049-0.006l-0.109-0.033l-0.098-0.017l-0.044,0.005l-0.041,0.022l-0.05,0.049l-0.014,0.034
	l0.003,0.045l0.016,0.028l0.039,0.043l0.008,0.032l-0.017,0.046l0.044,0.006l0.138,0.028l0.144,0.069l0.278,0.174l0.452,0.176
	l0.123,0.104l0.18,0.186l0.059,0.103l-0.036,0.108l0.011,0.053l0.023,0.061l0.032,0.053l0.035,0.035l0.029,0.01l0.018,0.015
	l0.002,0.02l-0.016,0.024l-0.13,0.01l-0.033,0.021l0.009,0.104l-0.009,0.045l-0.04-0.023l-0.059-0.057l-0.077-0.055l-0.081-0.039
	l-0.063-0.007l-0.026,0.025l-0.039,0.085l-0.024,0.037l-0.033,0.017l-0.079,0.025l-0.026,0.023l-0.008,0.086l0.019,0.101
	l-0.001,0.084l-0.063,0.03l-0.146,0.047l-0.068,0.043l-0.031,0.129l-0.045,0.051l-0.062,0.032l-0.058,0.006l-0.062-0.03l-0.06-0.043
	l-0.061-0.021l-0.063,0.039l-0.026,0.052l-0.03,0.11l-0.04,0.052l-0.018,0.034v0.039l0.018,0.033l0.038,0.007l0.051-0.008
	l0.027,0.003l0.069,0.04l0.011,0.028l0.004,0.038l0.01,0.021l0.055-0.048l0.028,0.006l0.165,0.084l0.206,0.197l0.17,0.125
	l-0.013,0.028l-0.073,0.039l-0.024,0.035l-0.002,0.011l-0.005,0.029v0.045l-0.007,0.044l-0.016,0.042l-0.019-0.016l-0.005-0.003
	l-0.097-0.048l-0.048-0.032l-0.023-0.029l-0.013-0.029l-0.014-0.026l-0.035-0.019l-0.104-0.018l-0.081,0.014l-0.165,0.1
	l-0.039,0.052l0.018,0.01l0.034,0.029l0.018,0.011l-0.064,0.063l-0.234,0.449l-0.011,0.085l0.086,0.002l-0.039,0.236l0.004,0.124
	l0.037,0.131l0.002,0.009l0.053,0.103l0.201,0.278l-0.126,0.039l-0.172,0.086l-0.145,0.114l-0.048,0.126l0.021,0.183l0.035,0.068
	l0.068,0.066l0.138,0.106l0.055,0.068l-0.002,0.049l-0.022,0.046l-0.008,0.058l0.037,0.067l0.074,0.083l0.087,0.075l0.183,0.118
	l0.09,0.033l0.082,0.042l0.084,0.094l0.056,0.116l0.006,0.06l0.003,0.037l-0.032,0.091l-0.021,0.032l-0.043,0.063l0.041,0.029
	l0.023,0.034l0.001,0.027l-0.028,0.02l-0.044-0.005l-0.035,0.012l-0.026,0.031l-0.017,0.042l-0.057,0.006l-0.109,0.037l-0.058-0.007
	l-0.004-0.001l0,0l-0.102-0.061l-0.044-0.008l-0.077,0.042l-0.186,0.022l-0.123-0.008l-0.682-0.102l-0.208-0.028l-0.097-0.025
	l-0.196-0.084l-0.098-0.02l-0.117,0.02l-0.042-0.007l-0.161-0.101l-0.028-0.042l-0.044-0.099l-0.027-0.035l-0.057-0.029
	l-0.024,0.013l-0.014,0.031l-0.018,0.023l-0.067,0.019l-0.146,0.01l-0.071,0.017l-0.058,0.046l-0.02,0.061l-0.009,0.074l0,0
	l-0.002-0.001l-0.367-0.042l0.052-0.022h0.097l0.057-0.01l-0.064-0.022l-0.085-0.009l0.143-0.105l0.053-0.101l-0.062-0.104
	l-0.002-0.002l0,0h-0.001l-0.19-0.169l-0.141-0.064l-0.049-0.022l-0.526-0.079l-0.034-0.005l-0.071-0.032l-0.07-0.062l-0.064-0.07
	l-0.039-0.035l-0.045-0.013l-0.077-0.011l-0.173-0.057l-0.196-0.122l-0.16-0.169l-0.107-0.363l-0.096-0.082l-0.119-0.02
	l-0.304,0.087l-0.217-0.019l-0.093-0.029l-0.132-0.041l-0.222-0.101l-0.687-0.265l-0.447-0.112l-0.074-0.048l-0.064-0.074
	l-0.042-0.064l-0.05-0.047l-0.174-0.06l-0.157-0.088l-0.212-0.083l-0.141-0.085l-0.054-0.034l-0.071-0.033l-0.069-0.017l-0.149,0.01
	l-0.047-0.036l-0.04-0.054l-0.067-0.045h-0.035l-0.072,0.041l-0.033,0.01l-0.037-0.003l-0.044-0.012l-0.084-0.03l-0.076-0.052
	l-0.137-0.131l-0.078-0.056l-0.189-0.08l-0.081-0.048l-0.136-0.15l-0.086-0.115l-0.031-0.061l-0.012-0.047l-0.001-0.079
	l-0.005-0.039l-0.024-0.071l-0.003-0.002l-0.024-0.034l-0.047-0.018l-0.077-0.013l-0.061,0.011l-0.032,0.012l-0.006,0.019
	l-0.013-0.033l0.011-0.024l0.018-0.027l0.004-0.037l-0.029-0.063l-0.056-0.067l-0.165-0.17l-0.051-0.072l-0.053-0.062l-0.055-0.031
	l-0.066,0.017l-0.085,0.094l-0.063,0.019l-0.089-0.038l-0.008-0.075l0.02-0.081l-0.011-0.061l0.018-0.022l0.002-0.007l-0.035-0.051
	l-0.037-0.043l-0.041-0.029h-0.043l-0.076,0.02l-0.042,0.004l-0.038-0.007l-0.066-0.039l-0.067-0.093l-0.053-0.029l-0.022,0.007
	l-0.018,0.024l-0.021,0.017l-0.033-0.013l-0.026-0.031l-0.027-0.039l-0.028-0.033l-0.031-0.015l-0.037,0.015l-0.009,0.033
	l0.001,0.042l-0.009,0.035l-0.021,0.02l-0.051,0.026l-0.023,0.021l-0.04,0.025l-0.037-0.016l-0.039-0.034l-0.039-0.026l-0.091-0.018
	l-0.026-0.015l-0.128-0.09l-0.065-0.056l-0.034-0.067l0.017-0.075l0.051-0.044l0.041-0.046l-0.02-0.078l-0.063-0.066l-0.08-0.052
	l-0.078-0.065l-0.057-0.099l-0.004-0.033l-0.007-0.049l0.015-0.156l-0.021-0.078l-0.091-0.107l-0.034-0.077l-0.013-0.206
	l-0.017-0.068l-0.122-0.238l-0.012-0.032l-0.008-0.104l0.017-0.041l0.037-0.087l0.145-0.094l0.281-0.112l0.06-0.042l0.033-0.013
	l0.042,0.003l0.042,0.025l0.016,0.036l0.002,0.035l0.007,0.02l0.034,0.008l0.07-0.015l0.048,0.012l0.078,0.055l0.136,0.133
	l0.081,0.045l0.387,0.146l0.105,0.016h0.132l0.118-0.023l0.062-0.051l-0.011-0.063l0,0l-0.022-0.13l0.007-0.136l-0.001-0.039
	l-0.017-0.051l-0.019-0.023l-0.012-0.022l0.005-0.048l0.018-0.029l0.064-0.058l0.021-0.038l0.011-0.078l-0.005-0.251l0.093-0.152
	l0.17-0.068l0.651-0.084l0.07-0.042l0.02-0.05l-0.009-0.03l-0.019-0.035l-0.008-0.056l0.016-0.041l0.026-0.029l0.018-0.031
	l-0.005-0.053l0.017-0.024l0.015-0.047l0.007-0.045l-0.001-0.022l0.047-0.101l0.035,0.011l0.064,0.076l0.019,0.03l0.016,0.036
	l0.026,0.015l0.057-0.034l-0.021-0.023l-0.024-0.022l0.05-0.004l0.055,0.027l0.039,0.008l0.004-0.064l0.025,0.026l0.016,0.022
	l0.01,0.026l0.004,0.039l0.01-0.023l0.031-0.049l0.012-0.022l0.112,0.097l0.167,0.037h0.092l0.218,0.003l0.022-0.03l0.132-0.073
	l0.003-0.023l-0.002-0.145l0.146,0.022l0.063-0.002l0.124,0.019l0.037,0.012l0.05,0.004l0.05-0.029l0.081-0.074l-0.001-0.018
	l-0.004-0.029l0.005-0.021l0.029,0.004l0.029,0.02l0.015,0.021l0.002,0.026l-0.008,0.035l0.041-0.004l0.031-0.021l0.051-0.067
	l0.015,0.097l-0.002,0.032l0.018-0.017l0.134-0.086l0.065-0.021l0.029-0.019l0.041-0.064l0.051-0.161l0.047-0.061l0.097-0.037
	l0.108,0.008l0.113,0.042l0.26,0.132l0.074,0.023l0.069-0.002l0.026-0.018l0.066-0.074l0.071-0.05l0.018-0.025l0.025-0.067
	l0.072-0.289l0.031-0.041l0.044-0.021l0.058,0.004l0.226,0.069l0.077,0.001l0.062-0.017l0.034-0.015l0,0l0.028-0.012l0.054-0.043
	l0.034-0.054v-0.051l-0.023-0.052l-0.018-0.054l0.012-0.053l0.063-0.048l0.081-0.006l0.176,0.034l0.051-0.002l0.209-0.077
	l0.065-0.001l0.07,0.019l0.098,0.039l0,0l0.062,0.025l0.059,0.007l0.033,0.006l0.088-0.008l0.07-0.03l-0.033-0.055l-0.038-0.042
	l-0.013-0.028l-0.004-0.008l0.033-0.038l0.023-0.009l0.051-0.011l0.023-0.01l0.016-0.017l0.027-0.043l0.018-0.012h0.025l0.022,0.012
	l0.045,0.043l0.031,0.024l0.033,0.017h0.029l0.02-0.026l-0.001-0.022l-0.007-0.027l-0.004-0.027l0.007-0.023l0.02-0.012l0.021,0.003
	l0.024,0.012l0.213,0.168l0.054,0.023l0.04-0.001l0.084-0.029l0.023-0.002l0.017,0.005l0.017,0.014l0.02,0.021l0.006,0.007
	l0.01,0.021l0.009,0.012l0.012,0.008l0.024,0.013l0.01,0.013l0.012,0.044l-0.038,0.076l-0.001,0.048l0.089,0.101l0.148,0.06
	l0.092,0.013l0,0l0.063,0.008l0.102-0.013l0.239-0.123l0.083-0.042L1086.186,549.51z"/></svg>