<?xml version="1.0" encoding="utf-8"?>
<!-- Generator: Adobe Illustrator 15.0.0, SVG Export Plug-In . SVG Version: 6.00 Build 0)  -->
<!DOCTYPE svg PUBLIC "-//W3C//DTD SVG 1.1//EN" "http://www.w3.org/Graphics/SVG/1.1/DTD/svg11.dtd">
<svg version="1.1" id="Ebene_1" xmlns="http://www.w3.org/2000/svg" xmlns:xlink="http://www.w3.org/1999/xlink" x="0px" y="0px"
	 width="1920px" height="1080px" viewBox="0 0 1920 1080" enable-background="new 0 0 1920 1080" xml:space="preserve">

<path fill="#F4E0B6" stroke="#FFFFFF" d="M1065.533,709.126l0.043,0.114l-0.023,0.09l-0.051,0.086l-0.037,0.107l0.033,0.154
	l0.221,0.245l0.075,0.146l-0.059,1.115l0.1,0.255l0.213,0.194l0.084,0.036l0.874,0.376l0.285,0.207l0.021,0.025l0.008,0.046
	l-0.029,0.083l-0.004,0.056l0.019,0.176l-0.006,0.072l-0.063,0.244l-0.002,0.071l0.036,0.052l0.089,0.071l0.038,0.023l0.037,0.012
	l0.035,0.017l0.032,0.036l0.004,0.037l-0.017,0.102l0.014,0.048l0.059,0.035l0.072,0.006l0.063,0.023l0.036,0.09l0.063,0.077
	l0.096,0.023l0.097,0.012l0.069,0.037l0.011,0.048l-0.015,0.115l0.02,0.055l0.04,0.025l0.12,0.026l0.05,0.029l0.067,0.081
	l0.055,0.039l0.027,0.022l0.094,0.041l0.193,0.043l0.069,0.048l0.071,0.039l0.103-0.004l0.046,0.036l-0.002,0.113l-0.016,0.132
	l0.002,0.09l0.103,0.104l0.14-0.008l0.633-0.306l0.052-0.012l0.024,0.031l0.01,0.043l0.014,0.031l0.003,0.021l-0.011,0.029
	l0.013,0.035l0.074,0.031l0.108,0.009l0.087-0.033l0.175-0.1l0.243-0.025l0.306,0.052l0.257,0.139l0.092,0.229l0.134,0.122
	l0.194,0.056l0.596,0.028l0.094-0.009l0.212-0.063l0.086-0.015l0.09,0.022l0.123,0.071l-0.115,0.115l-0.105-0.007l-0.1-0.041
	l-0.095,0.012l-0.018,0.039l-0.006,0.07l0.002,0.204l-0.029,0.025h-0.12l-0.277,0.045l-0.432,0.005l-0.106,0.027l-0.003,0.242
	l0.127,0.452l0.144,0.503l0.096,0.341l0.029,0.099l0.043,0.096l0.066,0.065l0.161,0.022l0.353-0.124l0.168,0.013l0.346,0.129
	l0.362,0.134l0.448,0.167l0.156,0.059l0.494,0.184l0.334,0.123l0.417,0.154l0.159,0.021l0.172-0.028l0.505-0.177l0.622-0.221
	l0.082-0.048l0.064-0.097l0.031-0.118l0.02-0.129l0.043-0.168l0.012-0.087l0.014-0.035l0.037-0.026l0.038,0.003l0.039-0.01
	l0.042-0.063l0.053-0.137l0.036-0.046l0.476-0.169l0.208-0.031l0.171,0.103l0.058,0.091l0.026,0.02l0.068,0.033l0.063,0.022
	l0.104,0.019l0.062,0.041l0.053,0.057l0.034,0.061l0.131,0.304l0.043,0.06l0.063,0.064l0.04,0.027l0.082,0.045l0.03,0.032
	l0.007,0.022l0.002,0.063l0.007,0.026l0.044,0.113l-0.018,0.073l-0.063,0.052l-0.275,0.156l-0.025,0.008l-0.061-0.003h-0.015
	l-0.024,0.032l-0.02,0.068l-0.018,0.028l-0.257,0.191l-0.053,0.099l0.034,0.16l0.146,0.146l0.298,0.221l0.519,0.386l0.488,0.364
	l0.553,0.406l0.317,0.119l-0.019,0.601l-0.025,0.172l-0.117,0.315l-0.007,0.178l0.025,0.096l0.021,0.056l-0.002,0.061l-0.045,0.102
	l-0.211,0.282l-0.257,0.483l-0.424,1.015l-0.016,0.037l-0.112,0.132l-0.175,0.065l-0.23,0.007l-0.145-0.007l-0.062,0.019
	l-0.037,0.056l-0.091,0.012l-0.087,0.064l-0.166,0.175l-0.09,0.05l-0.219,0.083l-0.068,0.062l-0.078,0.093l-0.21,0.157l-0.068,0.089
	l-0.085,0.08l-0.161-0.162l-0.083,0.045l-0.002-0.04l-0.012-0.082v-0.042l-0.469,0.174l-0.1,0.021l-0.094-0.013l-0.006,0.093
	l-0.041,0.053l-0.002,0.002l-0.053,0.049l-0.049,0.083l-0.021,0.084l0.007,0.047l0.079,0.097l-0.064,0.093l-0.094,0.105
	l-0.079,0.114l-0.012,0.125l0.054,0.081l0.069,0.054l0.03,0.065l-0.063,0.12l-0.047-0.03l-0.039,0.001l-0.03,0.032l-0.021,0.061
	l-0.048-0.045l-0.077-0.045l-0.063-0.006l-0.007,0.079l0.024,0.037l0.063,0.031l0.026,0.049l0.005,0.047l-0.027,0.156l-0.186-0.011
	l-0.087,0.013l-0.094,0.037l-0.04,0.031l-0.021,0.029l-0.021,0.025l-0.043,0.02l-0.001-0.031l-0.055-0.046l-0.059-0.02l-0.026,0.11
	l-0.036,0.079l-0.006,0.079l0.139,0.125l0.072,0.178l0.053,0.086l-0.057,0.004l-0.112-0.007l-0.052,0.023l-0.014,0.038l-0.007,0.116
	l-0.021,0.036l-0.15,0.116l-0.022,0.024l0.028,0.081l0.017-0.016l0.021-0.046l0.05-0.01l0.012,0.02l0.011,0.072l0.011,0.025
	l0.018,0.004l0.053,0.002l0.009-0.006l0.029,0.062l0.019,0.062l0.024,0.058l0.048,0.044l0.073,0.039l0.02,0.091l-0.009,0.032
	l-0.047-0.02l-0.051-0.039l-0.021-0.022l-0.056,0.004l-0.156,0.054l-0.018,0.016l-0.045,0.054l-0.029,0.016l-0.013-0.007
	l-0.042-0.043l-0.018-0.005h-0.029l-0.032-0.014l-0.041-0.012l-0.112,0.031l-0.025,0.003l-0.02,0.02l-0.019,0.064l-0.01,0.08
	l-0.023,0.091l-0.013,0.02l0.01,0.059l0.02,0.062l0.032,0.042l0.045,0.003l0.036,0.018l0.023,0.062l0.006,0.071l-0.013,0.04
	l-0.088,0.04l-0.069,0.021l-0.176-0.022l-0.638,0.313l-0.474,0.232l-0.291,0.211l-0.553,0.532l-0.005-0.267l-0.087,0.016
	l0.012-0.031l0.001-0.026l-0.002-0.023l-0.001-0.028l-0.008-0.017l-0.009-0.01l-0.014-0.003l-0.589,0.132l-0.459,0.104l-1.205,0.269
	l-0.649,0.145l-0.274,0.062l-0.271,0.059l-0.72,0.157l0.01,0.097l0.033,0.043l0.024,0.047l-0.018,0.101l-0.045,0.098l-0.198,0.321
	l-0.121-0.078l-0.117-0.041l-0.097,0.045l-0.062,0.18l-0.002,0.092l0.021,0.135l-0.011,0.071l-0.046,0.081l-0.114,0.131l-0.03,0.088
	l0,0l-0.009,0.02l-0.012,0.02l-0.013,0.019l-0.018,0.014l-0.198,0.084l-0.101,0.061l-0.064,0.063l-0.021,0.116l-0.002,0.156
	l-0.018,0.152l-0.072,0.101l-0.31-0.146l0.005-0.047l0.025-0.063l0.011-0.057l-0.04-0.024l-0.049,0.017l-0.031,0.03l-0.024,0.005
	l-0.022-0.061l-0.035,0.016l-0.579,0.253l0,0l-0.037-0.029h-0.032l-0.025,0.028l-0.02,0.053l-0.104,0.07l-0.077,0.19l-0.085,0.054
	l0.014-0.093l-0.053,0.026l-0.029-0.007l-0.056-0.061l-0.046-0.012l-0.045,0.011l-0.716,0.261l-0.138,0.09l-0.022,0.107
	l-0.614,0.274l-0.65,0.29l-0.134,0.034l-0.188,0.004h-0.057l-0.07,0.003l-0.651,0.272l-0.081,0.072l-0.012,0.117l-0.051,0.064
	l-0.794,0.373l-1.123,0.524l-1.158,0.543l-1.249,0.584l-1.013,0.471l-0.487,0.228l-0.114,0.052l-0.017-0.06l-0.452,0.194
	l0.016,0.031l-0.006,0.047l0.057,0.097l0.082,0.077l0.057,0.099l0.002,0.146l-0.052,0.118l-0.066,0.107l-0.05,0.121l-0.01,0.139
	l0.005,0.298l-0.053,0.199l0.013,0.142l-0.017,0.068l-0.04,0.087l-0.009,0.043l0.025,0.054l0.012,0.023l0.011-0.005l0.024-0.005
	l0.026,0.002l0.021,0.018l0.01,0.039l-0.006,0.031l-0.01,0.029l-0.01,0.109l-0.038,0.174l-0.002,0.064l0.049,0.103l0.228,0.236
	l0.027,0.052l0.037,0.122l0.027,0.05l0.033,0.024l0.088,0.045l0.022,0.021l0.042,0.108l0.06,0.056l0.226,0.096l0.074,0.007
	l0.089-0.024l0.129-0.055l0.026,0.016l-0.011,0.066l-0.035,0.078l-0.052,0.051l-0.065,0.037l-0.046,0.042l-0.034,0.057l-0.024,0.072
	l-0.016,0.102l0.001,0.133l0.029,0.123l0.064,0.077l0.052,0.001l0.056-0.018l0.047-0.009l0.029,0.031l0.027,0.062l0.038-0.003
	l0.045-0.022l0.057-0.001l0.06,0.011l0.038,0.003l0.026,0.022l0.02,0.074l0.002,0.087l-0.028,0.07l-0.084,0.143l-0.041,0.152
	l0.025,0.118l0.116,0.243l0.118,0.508l0.054,0.107l0.167,0.145l0.058,0.091l0.03,0.155l0.014,0.291l0.058,0.139l0.178,0.169
	l0.029,0.052l-0.02,0.075l-0.131,0.313l-0.042,0.241l0.01,0.133l0.064,0.107l0.057,0.034l0.03-0.009l0.027-0.018l0.053,0.004
	l0.038,0.036l0.02,0.052l0.03,0.048l0.048,0.016l0.021,0.007l-0.053,0.097l-0.025,0.109l-0.003,0.109l0.015,0.099l0.031,0.093
	l0.041,0.051l0.235,0.104l0.255,0.181l-0.125,0.254l-0.058,0.366l-0.077,0.145l-0.131,0.049l-0.144-0.047l-0.713-0.541l-0.396-0.452
	l-0.159-0.234l-0.097-0.109l-0.105-0.055l-0.107,0.02l-0.169,0.146l-0.097,0.039l-0.113-0.044l-0.083-0.114l-0.133-0.258
	l-0.14-0.096l-0.129,0.025l-0.121,0.053l-0.107-0.018l-0.049-0.109l-0.021-0.146l-0.028-0.115l-0.075-0.014l-0.067,0.104
	l-0.115,0.368l-0.056,0.115l-0.123,0.072l-0.071-0.053l-0.037-0.118l-0.023-0.121l-0.032-0.03l-0.05,0.05l-0.053,0.072l-0.044,0.041
	l-0.065-0.007l-0.114-0.052l-0.073,0.001l-0.857,0.311l-0.31,0.193l-0.097,0.022l-0.067-0.02l-0.046-0.032l-0.05-0.023l-0.079,0.007
	l-0.014,0.021l-0.035,0.091l-0.025,0.03l-0.035,0.009l-0.079-0.012l-0.041,0.013l-0.254,0.156l-0.071,0.063l-0.046,0.066
	l-0.063,0.141l-0.037,0.06l-0.097,0.081l-0.354,0.171l-0.009,0.008l-0.093,0.079l-0.171,0.238l-0.108,0.087l-0.07,0.084
	l-0.001,0.109l-0.016,0.101l-0.173,0.082l-0.041,0.037l-0.074,0.082l-0.002,0.019l0.005,0.033l-0.004,0.032l-0.032,0.024
	l-0.033,0.004l-0.063-0.01l-0.33,0.042l-0.09,0.055l-0.08,0.128l-0.104,0.313l-0.086,0.106l-0.198,0.123l-0.086,0.08l-0.056,0.106
	l0.024-0.007l0.068-0.005l-0.123,0.267l-0.02,0.07l0.012,0.053l0.047,0.138l0.003,0.082l-0.038,0.186l-0.025,0.063v0.002h-0.163
	l-0.088,0.013l0.004,0.104l0.021,0.101l-0.006,0.063l-0.083-0.005l-0.051-0.05l-0.09-0.18l-0.066-0.065l-0.141,0.024l-0.192,0.1
	l-0.183,0.062l-0.104-0.089l-0.012-0.118l0.021-0.184l-0.011-0.11l-0.02-0.024l-0.035-0.002l-0.046,0.01l-0.098,0.046l-0.015,0.02
	v0.025l-0.008,0.049l-0.01,0.097l0.016,0.083l-0.008,0.072l-0.074,0.061l-0.068,0.004l-0.106-0.092l-0.073-0.03l-0.054,0.114
	l-0.057,0.066l-0.065,0.042l-0.081,0.035l0.01,0.015l-0.013,0.045l-0.026,0.057l-0.037,0.054l-0.041,0.042l-0.004-0.003
	l-0.004-0.025l-0.035-0.021h-0.08l-0.035-0.013l-0.021-0.042l-0.021-0.061l-0.029-0.03l-0.075-0.034l-0.041-0.029l-0.024-0.025
	l-0.032-0.008l-0.059,0.017l-0.053,0.032l-0.015,0.03l0.015,0.022l0.037,0.019l-0.078,0.056l-0.101-0.097l-0.067,0.058l-0.025-0.042
	l-0.016-0.02l-0.059-0.026l-0.01-0.045l0.054-0.021l0.045-0.027l0.081-0.074l-0.074-0.08l-0.055-0.126l-0.063-0.071l-0.097,0.085
	l-0.063-0.109l-0.093-0.04l-0.116,0.011l-0.132,0.048l-0.048,0.008l-0.024-0.02l-0.031-0.018l-0.064,0.016l-0.037,0.046l-0.018,0.07
	l-0.022,0.053l-0.052,0.003l-0.195-0.091l-0.021-0.067l0.027-0.286l-0.02-0.035l-0.088-0.114l-0.08-0.062l-0.037-0.051l0.115-0.058
	l0.004-0.092l-0.061-0.094l-0.08-0.066l-0.076-0.017l-0.08-0.006l-0.07-0.03l-0.051-0.099l-0.045,0.076l-0.058,0.06l-0.063,0.018
	l-0.059-0.053l0.066-0.071l-0.039,0.005l-0.035-0.002l-0.037,0.004l-0.047,0.021l0.039-0.073l0.119-0.107l-0.02-0.044l-0.159-0.038
	l-0.046-0.047l0.014-0.127l-0.145,0.073l-0.01-0.067l0.024-0.132l-0.041-0.117l-0.009,0.048l-0.016,0.05l-0.027,0.047l-0.036,0.03
	l-0.067,0.024l-0.012-0.024l0.014-0.046l0.008-0.038l-0.068-0.336l-0.059-0.071l-0.004-0.002l-0.1-0.023l-0.092,0.032l-0.024,0.1
	l-0.048,0.027l-0.305-0.052l-0.083,0.064l-0.262,0.073l-0.093,0.038l-0.036,0.047l-0.02,0.055l-0.026,0.054l-0.062,0.045
	l-0.062,0.03l-0.03,0.007l-0.027-0.007h-0.031l-0.016,0.032l-0.015,0.045l-0.021,0.029l-0.113,0.045l-0.097,0.019l-0.084-0.01
	l-0.071-0.029l-0.023-0.031l-0.03-0.046l-0.033-0.038l-0.037-0.007l-0.052,0.02l-0.04,0.01l-0.084,0.004l-0.028-0.104l-0.098-0.124
	l-0.124-0.095l-0.108-0.018l0.012-0.101l-0.016-0.332l0.012-0.06l0.085-0.277l0.012-0.354l-0.028-0.05l-0.05-0.024l-0.013-0.095
	l0.02-0.115l0.043-0.078l-0.091,0.001l-0.017-0.047l-0.048-0.089l-0.013-0.053l-0.013-0.349l0.011-0.103l0.027-0.061l0.041-0.045
	l0.03-0.043l-0.005-0.064l-0.012-0.049l0.007-0.384l-0.034-0.064l-0.092-0.1l-0.186-0.377l-0.107-0.135l-0.118,0.087l0.004-0.172
	l-0.116-0.289l-0.021-0.049l-0.001-0.103l0.067-0.092l0.529-0.315l0.088-0.073l0.082-0.082l0.112-0.146l0.038-0.108l-0.016-0.259
	l0.023-0.162l0.134-0.264l0.044-0.154l-0.01-0.101l-0.164-0.608l0.003-0.119l0.067-0.113l0.104-0.114l0.034-0.07l-0.02-0.076
	l-0.058-0.123l-0.101-0.493l-0.092-0.188l-0.227-0.083l-0.063,0.016l-0.053,0.032l-0.052,0.01l-0.055-0.049l-0.015-0.065
	l0.018-0.079l0.027-0.079l0.019-0.074v-0.253l-0.016-0.134l-0.025-0.103l-0.065-0.101l-0.081-0.054l-0.097-0.021l-0.115-0.005
	l-0.061,0.008l-0.047,0.015l-0.09,0.062l-0.026-0.015l-0.158-0.028l-0.033,0.001l-0.047-0.053l-0.006-0.028l0.031-0.027l0.072-0.043
	l0.026-0.001l0.077,0.021h0.032l0.027-0.022l0.032-0.064l0.014-0.021l0.182-0.115l0.021-0.021l0.016-0.029l0.021-0.029l0.034-0.017
	l0.04,0.002l0.034,0.012l0.033,0.003l0.039-0.022l0.029-0.051l0.076-0.209l0.172-0.274l0.108-0.236l0.065-0.109l0.155-0.129
	l0.154-0.191l0.071-0.073l0.081-0.043l0.213-0.085l0.097-0.054l0.062-0.022l0.054-0.041l0.046-0.054l0.039-0.066l0.105-0.103
	l0.118-0.038l0.121-0.021l0.111-0.048l0.21-0.188l0.113-0.047l0.123,0.051l0.087-0.073l0.145-0.092l0.067-0.084l0.029-0.077
	l0.021-0.087l0.022-0.093l0.046-0.075l0.053-0.039l0.112-0.032l0.053-0.028l0.095-0.101l0.002-0.018l0.01-0.069l-0.01-0.099
	l0.033-0.139l0.166-0.2l0.158-0.077l0.039-0.084l-0.192-0.221l0.382-0.619l0.015-0.032l-0.001-0.04l-0.022-0.06l-0.001-0.1
	l-0.012-0.046l0.006-0.047l0.05-0.063l0.077-0.039l0.062,0.023l0.055,0.045l0.058,0.023l0.15-0.101l-0.102-0.229l-0.297-0.41
	l0.013-0.158l0.064-0.154l0.079-0.149l0.051-0.141l0.019-0.094l-0.007-0.021l-0.032-0.008l-0.062-0.055l-0.169-0.223l-0.108-0.056
	l-0.27-0.092l-0.066-0.075l-0.031-0.313l0.016-0.024l0.038-0.006l0.054-0.032l0,0l0.14-0.131l0.165-0.121l0.172-0.089l0.163-0.031
	l0.171,0.032l0.076-0.009l0.107-0.062l0.089-0.078l0.055-0.073l0.007-0.01l0.037-0.094l0.029-0.419l-0.008-0.071l-0.123-0.232
	l-0.052-0.332l-0.076-0.142l-0.125-0.091l-0.183-0.074l-0.088-0.068l-0.21-0.271l-0.185-0.086l-0.041-0.039l-0.014-0.069
	l0.017-0.063l0.022-0.06l0.025-0.219l0.079-0.077l0.339-0.125l0.056-0.043l0.026-0.067l-0.022-0.043l-0.125-0.021l-0.048-0.037
	l0.006-0.097l0.056-0.133l0.074-0.132l0.067-0.092l0.048-0.03l0.052-0.011l0.051-0.019l0.049-0.057l0.073-0.165l0.052-0.171
	l0.037-0.269l0.032-0.126l0.068-0.125l0.038-0.04l0.131-0.099l0.04-0.052l0.058-0.13l0.059-0.051l0.051-0.045l0.067-0.088
	l0.056-0.094l0.015-0.064l-0.047-0.013l-0.067,0.022l-0.036-0.012l0.052-0.117l0.014-0.025l0.016-0.012l0.021-0.004l0.022,0.009
	l0.034,0.027l0.007,0.006l0.051,0.101l0.025,0.03l0.049,0.001l0.13-0.028l0.031,0.003l0.01,0.063l-0.03,0.036l-0.048,0.029
	l-0.035,0.034l-0.082,0.15l-0.04,0.047l-0.05,0.095l0.077,0.027l0.127-0.018l0.104-0.04l0.1-0.054l0.089-0.018h0.195l0.227-0.03
	l0.104,0.003l0.458,0.167l0.271,0.051l0.501,0.174l0.039-0.005l0.066-0.04l0.037-0.002l0.104,0.059l0.053,0.013l0.035-0.008
	l0.115-0.052l0.226-0.058l0.066-0.017l0.059-0.045l0.031-0.112l-0.029-0.1l-0.104-0.171l-0.017-0.166l0.103-0.098l0.831-0.416
	l0.061-0.079l-0.498-1.324l0.029-0.237l-0.003-0.145l-0.049-0.319l-0.064-0.121l-0.126-0.042l0.078-0.151l0.147-0.007l0.271,0.089
	l0.146-0.045l0.104-0.073l0.106-0.049l0.147,0.026l0.11,0.054l0.037,0.042l0.034,0.075l0.055,0.07l0.054-0.046l0.064-0.144
	l0.053-0.059l0.037-0.028l0.127-0.039l0.046-0.003l0.043,0.012l0.039,0.001l0.036-0.022l0.159-0.146l0.162-0.148l-0.264-0.466
	l-0.093-0.288l0.032-0.246l0.054-0.198l0.031-0.801l-0.011-0.006l-0.011-0.01l-0.017-0.003l-0.027,0.019l0.079-0.29l0.644-0.76
	l0.063-0.139l0.204-0.46l0.088-0.15l0.35-0.423l0.257-0.188l0.402-0.073l1.313,0.099l0.17-0.03l0.074-0.044l0.086-0.089l0.216-0.223
	l0.034-0.055l0.006-0.065l-0.233-1.379l0.005-0.159l0.133-0.135l0.235-0.112l0.415-0.139l0.344-0.168l0.328-0.217l1.416-1.906
	l0.183-0.193l0.874-0.645l0.164-0.164l0.143-0.188l0,0l0.766-1.377v-0.002l0.188-0.388l0.045-0.067l0.072-0.107l0.148-0.115
	l1.06-0.458l0.156-0.067l0.05,0.004l0.194,0.272l0.065,0.046l0.137-0.056l0.152-0.157l0.249-0.325l0.285-0.185l0.358-0.059
	l0.716,0.008v-0.001L1065.533,709.126z"/></svg>