<?xml version="1.0" encoding="utf-8"?>
<!-- Generator: Adobe Illustrator 15.0.0, SVG Export Plug-In . SVG Version: 6.00 Build 0)  -->
<!DOCTYPE svg PUBLIC "-//W3C//DTD SVG 1.1//EN" "http://www.w3.org/Graphics/SVG/1.1/DTD/svg11.dtd">
<svg version="1.1" id="Ebene_1" xmlns="http://www.w3.org/2000/svg" xmlns:xlink="http://www.w3.org/1999/xlink" x="0px" y="0px"
	 width="1920px" height="1080px" viewBox="0 0 1920 1080" enable-background="new 0 0 1920 1080" xml:space="preserve">

<path fill="#F4E0B6" stroke="#FFFFFF" d="M638.744,895.628l-0.145,0.141l-0.059,0.007l-0.064-0.023l-0.089-0.021l-0.147-0.004
	l-0.066-0.018l-0.075-0.043l-0.119-0.109l-0.028-0.001l0.016,0.091l0.063,0.137l-0.001,0.019l-0.011,0.021l-0.059,0.136l-0.063,0.08
	l-0.048,0.036l-0.059,0.001l-0.088-0.026l-0.016,0.022l0.011,0.019l0.018,0.034l0.012,0.02l-0.017,0.021l-0.114-0.02l-0.065-0.004
	l-0.041,0.015l-0.019,0.035l0.006,0.02l0.014,0.013l0.004,0.01l0.015,0.003l0.012,0.036l-0.003,0.035h-0.029l-0.333-0.282
	l-0.109-0.04l-0.11,0.021l-0.521,0.191l-0.083,0.005l0.094-0.112l0.014-0.032l-0.01-0.041l-0.027-0.02l-0.036,0.007l-0.035,0.03
	l-0.035,0.075l-0.018,0.063l-0.034,0.03l-0.089-0.018l-0.02,0.141l-0.017,0.04l-0.045,0.052l-0.02-0.002l-0.019-0.016l-0.043,0.003
	l-0.05,0.022l-0.021,0.019l-0.048,0.077l-0.015,0.04l0.003,0.084l-0.017,0.044l0.002,0.081l0.063,0.08l0.026,0.072l-0.1,0.057
	l-0.092,0.04l-0.048,0.061l-0.007,0.078l0.029,0.094l-0.113,0.048l-0.111,0.09l-0.081,0.115l-0.023,0.122l-0.008,0.148l-0.046,0.12
	L635.27,898l0,0l-0.244,0.31l-0.024,0.207l0.061,0.045l0.062,0.029l0.048,0.036l0.023,0.068l-0.015,0.08l-0.024,0.079l0.007,0.065
	l0.1,0.064l-0.077-0.003l-0.091,0.009l-0.206,0.052l-0.153,0.067l-0.128,0.097l-0.278,0.247l-0.188,0.135l-0.136,0.15l-0.066,0.029
	l-0.157-0.006l-0.083,0.01l-0.282,0.077l-0.249,0.003l-0.097,0.022l-0.259,0.13l-0.055,0.016l-0.035,0.032l-0.215,0.157
	l-0.047,0.165l-0.05,0.06l-0.149-0.053l-0.386-0.048l-0.332-0.007l-0.771,0.105l-0.071,0.022l-0.056,0.052l-0.038,0.055
	l-0.045,0.027l-0.313-0.136l-0.071-0.045l0.034-0.02l0.035-0.011l0.084-0.008l-0.008-0.033l-0.002-0.036l0.005-0.036l0.016-0.037
	l0.037-0.039l0.092-0.065l0.019-0.009l-0.011-0.075l-0.056-0.092l-0.069-0.082l-0.058-0.044l0.016,0.048l0.075,0.129l-0.056,0.028
	l-0.083,0.013l-0.083-0.002l-0.058-0.017l-0.036,0.01l-0.035,0.048l-0.005,0.053l0.053,0.026l0.016-0.03l0.037,0.042l0.021,0.085
	l-0.031,0.099l-0.056,0.028l-0.087,0.005l-0.919-0.13l-0.046-0.006l-0.221-0.081l-0.153,0.01l-0.08-0.016l-0.153-0.052l-0.688-0.124
	l-0.07-0.034l-0.074-0.021l-0.139,0.032l-0.065-0.028l0.039-0.026l0.023-0.018l0.011-0.014l0.003-0.07l-0.011-0.068l-0.034-0.064
	l-0.105-0.098l0.003-0.02l0.019-0.021l0.003-0.046l-0.014-0.043l-0.017-0.032l-0.055-0.061l-0.146-0.093l-0.317-0.131l-0.098-0.104
	l-0.022-0.131l-0.007-0.314l-0.07-0.143l-0.07-0.058l-0.184-0.155l-0.132-0.074l-0.125-0.148l-0.081-0.141l-0.154-0.063
	l-0.097-0.157l-0.232-0.067l-0.083-0.104l-0.246-0.073l-0.116-0.025l-0.284-0.008l-0.222,0.003l-0.274-0.022l-0.099-0.083
	l-0.126-0.011l-0.061-0.003l-0.071,0.062v-0.133l-0.044-0.047l-0.041-0.059l0.047-0.016l0.032-0.036l-0.013-0.052l-0.042-0.041
	l-0.056,0.042l-0.092,0.007l-0.028-0.02l-0.059-0.056l-0.076-0.038l-0.037-0.144l-0.105-0.23l-0.018-0.074l0.031-0.057l0.081-0.009
	l0.085-0.017l0.088,0.035l-0.009-0.082l-0.042-0.064l-0.112-0.172l-0.097-0.093l-0.108-0.068l-0.095-0.001l-0.043-0.04l-0.031-0.053
	l-0.062-0.147l-0.035-0.062l-0.028-0.072l-0.161-0.195l-0.222-0.197l-0.162-0.264l-0.026-0.071l0.021-0.116l-0.016-0.075
	l-0.05-0.139l-0.014-0.129l-0.021-0.104l-0.025-0.082l-0.046-0.104l-0.017-0.07l0.04-0.046l-0.003-0.038l-0.022-0.061l-0.007-0.029
	l-0.011-0.102l-0.022-0.083l-0.066-0.109l-0.131-0.138l-0.262-0.188l-0.171-0.101l-0.022-0.083l-0.141-0.091l-0.109-0.006
	l-0.004-0.071l-0.071-0.06l-0.111-0.016l-0.137-0.026l-0.028-0.161l-0.074-0.057l-0.1-0.04l-0.156-0.028l-0.212-0.048l-0.049-0.046
	l-0.109-0.004l-0.083-0.066l-0.095-0.049l-0.088-0.081l0.049-0.01l0.012-0.071l-0.066-0.082l0.004-0.124l0.107-0.141l-0.021-0.133
	l0.007-0.14l-0.044-0.415l-0.066-0.112l0.002-0.079l0.033-0.149l-0.018-0.088l-0.054-0.081l-0.07-0.067l-0.067-0.052l-0.069-0.07
	l-0.01-0.068l0.057-0.16l0.018-0.099l-0.007-0.541l-0.024-0.085l-0.066-0.145l-0.02-0.077l0.004-0.099l0.028-0.088l0.211-0.477
	l0.194-0.322l0.25-0.282l0.041-0.081l0.03-0.084l0.04-0.083l0.073-0.074l0.09-0.044l0.195-0.068l0.074-0.064l0.028-0.084
	l-0.037-0.127l0.029-0.084l0.063-0.054l0.085-0.026l0.182-0.035l0.082-0.052l0.06-0.08l0.161-0.349l0.1-0.155l0.125-0.084
	l0.156,0.037l0.272,0.205l0.139,0.077l0.148,0.02l0.188-0.031l0.094-0.03l0.063-0.048l0.062-0.08l0.058-0.056l0.138-0.106
	l0.121-0.131l0.046-0.126l-0.003-0.127l-0.038-0.229l0.009-0.081l0.028-0.077l0.046-0.08l0.116-0.159l0.05-0.086l0.019-0.078
	l0.041-0.013l0.037-0.109l0.137-0.276l-0.001-0.075l0.013-0.074l0.122-0.313l0.046-0.089l0,0l0.007-0.007l0.057-0.02l0.186-0.11
	l0.386-0.153l0.091-0.1l0.039-0.127l-0.021-0.423l0.016-0.1l0.068-0.063l0.144-0.065l0.126-0.119l0.119-0.157l0.093-0.162
	l0.047-0.133l-0.024-0.177l0.011-0.098l0.071-0.062l0.149-0.04l0.074-0.004l0.089,0.016l0.166,0.07l0.096,0.02l0.066-0.031
	l0.566-0.436l0.136-0.142l0.087-0.177l-0.012-0.158l-0.038-0.114l-0.019-0.054l-0.013-0.143l0.115-0.087l0.094-0.01l0.166,0.007
	l0.077-0.01l0.076-0.048l0.127-0.153l0.079-0.057l0.038-0.01l0.078-0.007l0.039-0.009l0.158-0.092l0.059-0.022l0.064-0.094
	l0.088-0.176l0.148-0.134l0.161-0.067l0.142-0.086l0.089-0.186l0-0.283l0.009-0.055l0.068-0.048h0.085l0.156,0.054l0.067,0.057
	l0.049,0.012l0.053-0.044l0.078-0.075l0.029-0.035l0.1-0.154l0.05-0.097l0.037-0.071l0.043-0.109l0.058-0.146l0.029-0.099
	l0.033-0.198l0.001-0.102l0.025-0.188l0.083-0.15l0.128-0.104l0.16-0.05l1.008-0.153l0.148-0.07l0.121-0.127l0.061-0.185l0.04-0.09
	l0.051-0.017l0.072,0.043l0.026,0.13l-0.068,0.231l0.055,0.132l0.074,0.062l0.155,0.068l0.077,0.05l0.027,0.049l-0.003,0.106
	l0.041,0.045l0.041,0.005l0.116-0.015l0.054,0.007l0.06,0.043l0.022,0.054l0.012,0.053l0.034,0.049l0.031,0.008l0.072-0.021
	l0.024,0.003l0.017,0.03l0.009,0.068l0.009,0.022l0.117,0.046l0.141-0.011l0.133-0.06l0.096-0.104l0.088-0.075l0.148-0.071
	l0.159-0.047l0.117-0.001l0.029,0.023l0.04,0.067l0.034,0.023l0.084,0.01l0.027,0.008l0.131,0.056l0.065,0.041l0.124,0.144
	l0.131,0.061l0.123,0.078l0.06,0.156l-0.009,0.139l0.004,0.059l0.104,0.268l0.065,0.111l0.029,0.073l0.015,0.077l-0.005,0.07
	l-0.041,0.08l-0.037,0.03l-0.012,0.025l0.029,0.065l0.026,0.031l0.031,0.02l0.028,0.025l0.02,0.043l0.003,0.032l-0.004,0.064
	l0.024,0.213l0.017,0.059l0.019,0.085l0.094,0.22l0.015,0.089l-0.013,0.18l0.003,0.091l0.017,0.066l0.087,0.181l0.076,0.28
	l0.067,0.121l0.022,0.103l0.016,0.187l-0.01,0.052l-0.019,0.045l-0.01,0.043l0.013,0.054l0.034,0.081l0.008,0.043v0.045
	l-0.038,0.273l0.006,0.091l0.088,0.306l-0.02,0.135l-0.056,0.12l-0.091,0.097l-0.124,0.061l-0.069,0.068l-0.168,0.235l-0.135,0.149
	l-0.055,0.079l-0.002,0.037l-0.002,0.04l0.005,0.002l0.085,0.043l0.196,0.155l0.111,0.046l0.075,0.052l0.036,0.013l0.038-0.001
	l0.028-0.01l0.027-0.013l0.034-0.01l0.25,0.004l0.075-0.012l0.064-0.039l0.122-0.1l0.074-0.02l0.064,0.035l0.065,0.068l0.067,0.055
	l0.067-0.01l0.054-0.064l0.094-0.155l0.061-0.053l0.083-0.015l0.076,0.031l0.053,0.064l0.016,0.161l0.067,0.145l0.021,0.075
	l0.009,0.135l0.053,0.229l0.046,0.418l-0.002,0.1l-0.026,0.071l-0.082,0.136l-0.021,0.076l0.01,0.058l0.056,0.14l-0.004,0.08
	l-0.065,0.178l-0.02,0.084l0.008,0.091l0.029,0.069l0.088,0.132l0.033,0.076l0.052,0.235l0.033,0.082l0.042,0.043l0.056,0.006
	l0.082-0.028l0.141-0.074l0.05,0.016l0.006,0.106l-0.011,0.12l0.004,0.161l0.026,0.151l0.083,0.147l0.009,0.067l0.002,0.072
	l0.01,0.067l0.023,0.058l0.067,0.101l0.459,0.438l0.106,0.075l0.037,0.048l0.01,0.07l-0.026,0.149l0,0.073l0.068,0.245l0.011,0.081
	l-0.011,0.09l-0.033,0.072l-0.101,0.147l-0.027,0.103l-0.009,0.034l0.025,0.139l0.049,0.145l0.029,0.154l0.015,0.175l0.071,0.345
	l0.083,0.239l0.048,0.248l0.036,0.101l0.036,0.022l0.056-0.017l0.095-0.011l0.073,0.021l0.055,0.049l0.039,0.069l0.025,0.075v0.038
	l-0.01,0.072l0.009,0.044l0.021,0.033l0.093,0.083l0.042,0.055l0.03,0.051l0.043,0.123l0.007,0.064l-0.013,0.046l-0.019,0.041
	l-0.01,0.052l0.004,0.059l0.015,0.063l0.045,0.117l0.151,0.166l0.024,0.061l-0.019,0.063l-0.089,0.128l-0.066,0.271l-0.012,0.34
	l-0.037,0.125l-0.068,0.135l-0.124,0.185l-0.03,0.071l-0.006,0.067l0.027,0.125v0.065l-0.017,0.128v0.132l0.018,0.124l0.091,0.274
	l0.032,0.328l0.129,0.184l0.072,0.175l0.039,0.054l0.098,0.072l0.055,0.135l0.065,0.116l0.021,0.068L638.744,895.628z"/></svg>