<?xml version="1.0" encoding="utf-8"?>
<!-- Generator: Adobe Illustrator 15.0.0, SVG Export Plug-In . SVG Version: 6.00 Build 0)  -->
<!DOCTYPE svg PUBLIC "-//W3C//DTD SVG 1.1//EN" "http://www.w3.org/Graphics/SVG/1.1/DTD/svg11.dtd">
<svg version="1.1" id="Ebene_1" xmlns="http://www.w3.org/2000/svg" xmlns:xlink="http://www.w3.org/1999/xlink" x="0px" y="0px"
	 width="1920px" height="1080px" viewBox="0 0 1920 1080" enable-background="new 0 0 1920 1080" xml:space="preserve">

<path fill="#F4E0B6" stroke="#FFFFFF" d="M1245.378,624.175l0.027,0.492l0.102,0.354l0.071,1.104l0.063,0.193l0.009,0.073
	l-0.057,0.111l-0.005,0.08l0.09,0.416l0.058,0.708l0.027,0.326l-0.007,0.075l-0.021,0.081l-0.035,0.066l-0.035,0.046l-0.016,0.048
	l0.027,0.074l0.003,0.081l-0.104,0.18l-0.027,0.081l0.044,0.175l0.207,0.354l0.192,0.459l0.193,0.226l0.508,0.407l0.337,0.33
	l-0.068,0.011l-0.111,0.093l-0.046,0.126v0.142l0.021,0.146l0.115,0.193l0.224,0.135l0.271,0.064l0.251-0.021l0.021-0.082
	l0.08,0.097l0.123,0.197l0.023,0.168l0.047,0.016l0.063,0.02l0.138-0.031l0.578-0.228l0.032,0.011l0.032,0.019l0.042,0.004
	l0.041-0.019l0.01-0.03l0.001-0.034l0.02-0.03l0.229-0.167l0.092-0.106l0.021-0.216l0.083-0.112l0.21-0.178l0.258-0.094l0.08-0.053
	l0.044-0.051l0.095-0.167l0.033-0.026l0.077-0.048l0.032-0.027l0.1-0.138l0.107-0.048l0.084-0.022l0.066-0.037l0.055-0.103
	l0.126-0.365l0.282-0.367l0.151-0.119l0.03-0.024l0.356-0.129l0.104-0.063l0.106-0.025l0.301,0.158l0.122,0.012l0.11-0.042l0.19-0.1
	l0.129-0.041l0.064-0.026l0.043-0.064l-0.001-0.078l0.011-0.064l0.086-0.021l0.024,0.123l0.104,0.201l0.028,0.092l-0.021,0.106
	l-0.116,0.189l-0.008,0.11l0.038,0.106l0.043,0.08l0.028,0.083l-0.007,0.111l-0.05,0.221l0.008,0.101l0.047,0.13l0.104,0.197
	l0.04,0.104l0.009,0.104l-0.044,0.099l-0.063,0.083l-0.021,0.076l0.082,0.085l0.246,0.133l0.263,0.102l0.425,0.068l0.138,0.041
	l0.145,0.084l0.385,0.35l0.312,0.22l0.341,0.18l0.224,0.058l0.635-0.009l0.188,0.034l0.186,0.074l0.174,0.104l0.155,0.115
	l0.252,0.144l0.22,0.038l0.211-0.042l0.225-0.094l0.223-0.036l0.2,0.084l0.712,0.598l0.204,0.131l0.184,0.04l0.142-0.047
	l0.052-0.008l0.078,0.016l0.121,0.066l0.068,0.027l0.074,0.009l0.136-0.002l0.073,0.013l0.266,0.131l0.095,0.059l0.136,0.138
	l0.088,0.068l0.113,0.03l0.343-0.017l0.507-0.022l0.089-0.045l0.07-0.11l0.065-0.051l0.092-0.007l0.597,0.08l0.693,0.09l0.992,0.132
	l0.546,0.069l0.258-0.014l0.453-0.117l0.498-0.131l0.5-0.13l0.501-0.131l0.5-0.132l0.502-0.13l0.503-0.132l0.502-0.132l0.504-0.131
	l0.504-0.134l0.506-0.134l0.505-0.132l0.508-0.135l0.507-0.133l0.51-0.135l0.509-0.135l0.51-0.136h0.001l0.488-0.126l0.489-0.126
	l0.491-0.127l0.489-0.128l0.491-0.127l0.492-0.128l0.493-0.128l0.495-0.128l0.494-0.129l0.496-0.129l0.495-0.131l0.497-0.129
	l0.497-0.132l0.499-0.129l0.499-0.13l0.499-0.132l0.378-0.098l0.389-0.052l0.409-0.27l0.657-0.433l0.719-0.475l0.729-0.48l0.604-0.4
	l0.848-0.562l0.663-0.438l-0.03,0.353l-0.031,0.356l-0.03,0.355l-0.031,0.354l-0.03,0.355l-0.03,0.354l-0.031,0.355l-0.032,0.355
	l-0.03,0.354l-0.006,0.067l-0.025,0.289l-0.03,0.355l-0.031,0.355l-0.031,0.356l-0.031,0.355l-0.032,0.357l-0.031,0.355
	l-0.032,0.355l-0.031,0.356l-0.032,0.356l-0.031,0.357l-0.031,0.357l-0.032,0.355l-0.031,0.357l-0.033,0.358l-0.032,0.356
	l-0.033,0.358l-0.031,0.357l-0.032,0.356l-0.014,0.15l-0.03,0.33l-0.031,0.329l-0.013,0.151l-0.016,0.154l-0.028,0.318l-0.026,0.466
	l-0.024,0.467l-0.027,0.467l-0.025,0.468l-0.026,0.468l-0.027,0.468l-0.027,0.468l-0.024,0.469l-0.018,0.857l-0.017,0.858
	l-0.018,0.86l-0.016,0.768l-0.002,0.094l-0.019,0.861l-0.018,0.863l-0.02,0.864l-0.019,0.865l-0.01,0.46h-0.002l-0.018,0.635
	l-0.088,0.143l-0.271,0.146l-0.259,0.14l-0.26,0.139l-0.259,0.141l-0.259,0.139l-0.258,0.14l-0.012,0.006l-0.246,0.133l-0.258,0.139
	l-0.259,0.139l-0.257,0.138l-0.258,0.139l-0.257,0.14l-0.257,0.138l-0.258,0.139l-0.257,0.137l-0.257,0.139l-0.258,0.138
	l-0.297,0.161l-0.137,0.147l-0.283,0.4l-0.113,0.119l-0.371,0.395l-0.286,0.304l-0.421,0.447l-0.191,0.355l-0.311,0.577
	l-0.316,0.587l-0.313,0.583l-0.114,0.568l-0.103,0.509l0.003,0.07l0.012,0.069l0.074,0.198l0.201,0.384l0.061,0.197l-0.006,0.242
	v0.01l-0.075,0.225l-0.129,0.2l-0.286,0.263l-0.604,0.557l-0.613,0.565l-0.473,0.435l-0.351,0.22l-0.402,0.252l-0.119,0.132
	l-0.092,0.183l-0.084,0.378l-0.157,0.41l-0.02,0.125l0.046,0.113l0.128,0.145l0.025,0.075l-0.02,0.093l0.016,0.133l-0.119,0.274
	l-0.244,0.086l-0.3,0.014l-0.285,0.061l-0.102,0.238l-0.055,0.056l-0.077,0.028l-0.167,0.021l-0.079,0.041l-0.297,0.323
	l-0.116,0.083l-0.18,0.21l-0.499,0.351l-0.453,0.317l-0.269,0.119l-0.304,0.042l-0.345-0.04l-0.654-0.251l-0.216-0.041l-0.113-0.001
	l-0.286,0.058l-0.121,0.007l-0.087-0.02l-0.2-0.103l-0.224-0.064l-0.439-0.025l-0.216-0.078l-0.13,0.377l-0.26,0.387l-0.33,0.493
	l-0.402,0.601l-0.007,0.042l0.036,0.094l-0.005,0.041l-0.257,0.353l-0.332,0.454l-0.013,0.01l-0.017,0.004h-0.02l-0.049,0.022
	l0.012,0.021l0.026,0.027l0.003,0.041l-0.122,0.235l-0.267,0.499l-0.236,0.44l-0.235,0.44l0.003,0.176l0.112,0.309l0.157,0.438
	l0.043,0.195l0.01,0.176l-0.084,0.57l-0.071,0.476v0.223l0.158,0.387l0.024,0.177l-0.142,0.098l-0.115-0.008l-0.088-0.044
	l-0.075-0.053l-0.085-0.03l-0.183,0.035l-0.594,0.329l-0.028-0.114l-0.063-0.038l-0.063,0.032l-0.016,0.036l-0.093,0.218
	l-0.173,0.11l-0.212,0.067l-0.576,0.048l-0.083,0.007l-0.054,0.016l-0.218,0.218l-0.07,0.045l-0.092,0.015l-0.086,0.034
	l-0.162,0.156l-0.119,0.074l-0.421,0.107l-0.558,0.143l-0.122,0.002l-0.133-0.034l-0.26-0.099l0.026,0.03l0.048,0.073l0.027,0.032
	l-0.284,0.142l-0.039-0.003l-0.024-0.022l-0.021-0.013l-0.044,0.065l-0.022,0.02l-0.065,0.028l-0.077,0.022l-0.041-0.019
	l-0.039-0.033l-0.073-0.023l-0.146-0.025l-0.033,0.004l-0.029,0.046l0.022,0.047l0.037,0.04l0.017,0.031l-0.148,0.249l-0.24,0.178
	l-0.535,0.237l-0.533,0.232l-0.133,0.1l-0.115,0.124l-0.064,0.022l-0.181-0.035l-0.172,0.038l-0.085,0.002l-0.14-0.048l-0.269-0.131
	l-0.155-0.039l-0.216-0.011l-0.695-0.041l-0.662-0.036l-0.717-0.042l-0.636-0.036l-0.561-0.034l-0.788-0.043l-0.671-0.04
	l-0.669-0.039l-0.371-0.021l-0.032,0.007l-0.026,0.019l-0.028,0.008l-0.034-0.018l-0.104-0.095l-0.053-0.034l-0.063-0.027
	l-0.043,0.01l-0.084,0.063l-0.051-0.005l-0.167-0.085l-0.071-0.009l-0.216,0.066l-0.451,0.02l-0.326,0.081l-0.86,0.528l-0.012,0.004
	l-0.032,0.008l-0.1-0.002l-0.045,0.014l-0.689,0.438l-0.818,0.518l-0.063,0.028l-0.114,0.006l-0.053,0.014l-0.048,0.028
	l-0.137,0.114l-0.649,0.398l-0.017,0.011l-0.122,0.035l-0.145-0.01l-0.294-0.059l-0.119-0.008l-0.081-0.05l-0.06-0.083l-0.057-0.104
	l-0.073-0.092l-0.143-0.078l-0.07-0.077l-1.12-0.333l-0.255-0.135l-0.209-0.213l-0.717-1.013l-0.022-0.075l-0.001-0.332
	l-0.034-0.119l-0.072-0.097l-0.124-0.091l-0.22-0.128l-0.082-0.085l-0.052-0.129l-0.018-0.26l-0.053-0.027l-0.315,0.044
	l-0.431-0.017l-0.135,0.035l-0.066,0.068l-0.05,0.087l-0.087,0.089l-0.13,0.032l-0.31-0.051l-0.146-0.003l-0.095,0.025l-0.103,0.042
	l-0.092,0.058l-0.067,0.063l-0.045,0.129l-0.026,0.319l-0.044,0.135l-0.094,0.081l-0.11,0.009l-0.124-0.041l-0.322-0.159
	l-0.05-0.032l-0.036-0.062l-0.007-0.07l0.002-0.073l-0.013-0.069l-0.061-0.045l-0.1-0.076l-0.277-0.046l-0.511-0.01l-0.308-0.036
	l-0.112-0.066l-0.236-0.251l-0.153-0.089l-0.745-0.328l-0.117-0.078l-0.053-0.058l-0.028-0.057l-0.026-0.062l-0.038-0.072
	l-0.052-0.045l-0.132-0.039l-0.059-0.039l-0.037-0.057l-0.024-0.062l-0.025-0.127l-0.047-0.05l-0.218-0.229l-0.102-0.071
	l-0.146-0.054l-0.142-0.031l-0.136-0.047l-0.247-0.179l-0.359-0.195l-0.088-0.08l-0.202-0.274l-0.114-0.104l-0.402-0.214
	l-0.104-0.071l-0.228-0.248l-0.286-0.208l-0.181-0.161l-0.179-0.163l-0.044-0.003l-0.099-0.032l-0.081-0.073l-0.063-0.035
	l-0.441-0.03l-0.097,0.014l-0.103,0.045l-0.183,0.11l-0.089,0.028l-0.081-0.016l-0.166-0.171l-0.02-0.017l-0.054-0.036l-0.023-0.025
	l0.005-0.012l0.019-0.053v-0.019l-0.07-0.087l-0.077-0.069l-0.078-0.054l-0.081-0.039l-0.425-0.039l-0.718,0.211l-0.024-0.008
	l-0.039,0.003l-0.046-0.005l-0.079-0.065l-0.039-0.016l-0.273-0.032l-0.085-0.033l-0.046-0.012l-0.042,0.009l-0.065-0.025
	l-0.084-0.098l-0.035-0.051l-0.103-0.145l-0.088-0.081l-0.099-0.058l-0.085-0.003l-0.046,0.08l-0.065,0.067l-0.128-0.016
	l-0.228-0.087l-0.312-0.046l-0.037,0.004l-0.027-0.018l-0.306-0.428l-0.14-0.139l-0.163-0.081l-0.935-0.259l-0.184-0.005
	l-0.052,0.018l-0.096,0.04l-0.05,0.016l-0.334-0.042l-0.275-0.121l-0.104-0.033l-0.057,0.003l-0.161,0.039l-0.173-0.011
	l-0.053,0.015l-0.255,0.195l-0.11,0.028l-0.067-0.009l-0.117-0.049l-0.07-0.016l-0.059,0.004l-0.094,0.022l-0.06-0.008l-0.093,0.014
	l-0.107,0.071l-0.153,0.151l-0.024,0.042l-0.052,0.138l-0.052,0.033l-0.279,0.078l-0.128-0.027l-0.125-0.044l-0.107-0.022
	l-0.043,0.012l-0.153,0.06l-0.156,0.021l-0.04,0.014l-0.114,0.116l-0.015,0.024l0.001,0.053l-0.063,0.025l-0.124,0.013l-0.124,0.055
	l-0.039,0.003l-0.034-0.019l-0.042-0.033l-0.043-0.029l-0.105-0.003l-0.084-0.05l-0.317-0.24l-0.019-0.059l0.011-0.1l-0.002-0.009
	l-0.011-0.055l0.004-0.035l-0.002-0.043l-0.047-0.108l-0.011-0.059l-0.001-0.11l0.057-0.408l-0.004-0.057l-0.013-0.06l-0.019-0.045
	l0.002-0.033l0.11-0.098l0.048-0.082l0.02-0.076l-0.011-0.085l-0.052-0.097l-0.029-0.017l-0.088-0.008l-0.029-0.019l-0.044-0.063
	l-0.024-0.051l-0.013-0.052l-0.003-0.071l0.017-0.052l0.03-0.038l0.013-0.042l-0.035-0.062l-0.074,0.008h-0.055l-0.065-0.032
	l-0.053-0.017l-0.06-0.025l-0.052-0.046l-0.015-0.038l-0.023-0.109l-0.028-0.06l-0.019-0.012l-0.058-0.006l-0.019-0.008
	l-0.015-0.026v-0.044l-0.01-0.023l-0.055-0.076l-0.017-0.039l-0.003-0.045l0.037-0.064l0.053-0.052l0.011-0.049l-0.031-0.02
	l-0.016-0.016l0.04-0.187l0.066-0.056l0.529-0.17l0.03-0.037l0.023-0.083l0.02-0.038l0.031-0.023l0.063-0.019l0.257-0.208
	l0.022-0.048l-0.009-0.019l-0.048-0.02l0.083-0.055h0.101l0.102,0.016l0.082-0.01l0.07-0.063l0.034-0.072l0.043-0.063l0.095-0.037
	l0.214,0.037l0.191,0.105l0.188,0.062l0.208-0.09l0.04-0.035l0.015-0.018l0.061-0.267l0.021-0.059l0.045-0.071l0.056-0.063
	l0.132-0.104l0.235-0.147l0.062-0.07l0.048-0.107l0.133-0.65l0.013-0.156l-0.018-0.137l-0.054-0.11l-0.061-0.123l-0.979-1.261
	l-0.973-1.255l-0.835-1.076l-0.255-0.329l-0.336-0.736l-0.57-1.84l0.073-0.386l-0.011-0.203l-0.028-0.052l-0.091-0.1l-0.034-0.049
	l-0.005-0.031l0.01-0.067l-0.005-0.033l-0.097-0.208l-0.146-0.193l-0.88-0.836l-0.146-0.168l-0.078-0.174l-0.021-0.741l-0.071-0.419
	v-0.13l0.024-0.107l0.236-0.661l0.049-0.07l0.065-0.012l0.817,0.148l0.178,0.006l0.088,0.016l0.074,0.051l0.077,0.14l0.051,0.061
	l0.055-0.012l0.008-0.055l-0.041-0.166l0.017-0.077l0.064-0.051l0.06-0.016l0.04-0.033l0.002-0.105l-0.031-0.092l-0.038-0.052
	l-0.02-0.063l0.021-0.119l0.094-0.313l-0.006-0.146l-0.075-0.167l-0.069-0.052l-0.187-0.016l-0.08-0.032l-0.031-0.049l-0.325-0.99
	l-0.08-0.145l-0.115-0.056l-0.131-0.038l-0.122-0.091l-0.056-0.101l-0.338-1.492l-0.044-0.093l-0.068-0.074l-0.21-0.12l-0.091-0.068
	l-0.119-0.179l-0.146-0.143l-0.06-0.088l-0.046-0.118l-0.03-0.132l-0.017-0.133l0.002-0.12l0.08-0.203l0.062-0.091l0.191-0.276
	l0.019-0.219l-0.021-0.046l-0.054-0.08l-0.013-0.018l-0.019-0.048l0.01-0.059l0.086-0.186l0.01-0.143l-0.038-0.123l-0.129-0.257
	l-0.063-0.229l-0.005-0.067l0.015-0.059l0.052-0.104l0.017-0.062l-0.005-0.08l-0.026-0.061l-0.075-0.123l-0.044-0.146l-0.194-1.772
	l0.006-0.064l0.023-0.036l0.073-0.055l0.023-0.038l0.006-0.069l-0.017-0.051l-0.026-0.049l-0.052-0.125l-0.018-0.021l0.006-0.022
	l0.035-0.062l0.004-0.006l0.075-0.1l1.069-0.945l0.033-0.022l0.054-0.022l0.037-0.003l0.036,0.002l0.052-0.002l0.131-0.039
	l0.042-0.065l-0.024-0.104l-0.266-0.514l-0.075-0.101l-0.063-0.051l-0.215-0.106l-0.072-0.09l-0.007-0.101l0.014-0.098l-0.009-0.084
	l-0.028-0.035l-0.039-0.027l-0.08-0.046l-0.064-0.075l-0.628-1.609l-0.055-1.241l-0.051-0.141l-0.16-0.24l-0.047-0.093l-0.142-0.517
	l-0.063-0.226l-0.163-0.197l-0.22-0.161l-0.097-0.087l-0.079-0.103l-0.048-0.098l-0.477-1.341l0.076-0.048l-0.031-0.098l0.019-0.073
	l0.055-0.059l0.081-0.056l0.044-0.048l0.077-0.136l0.069-0.064l0.176-0.115l0.025-0.031l0.034-0.079l0.031-0.035l0.266-0.174
	l0.139-0.064l0.312-0.09l0.143-0.065h0.034l0.146,0.05l0.048,0.003l0.044-0.001l0.043-0.012l0.042-0.022l0.018-0.021l0.021-0.086
	l0.03-0.023l0.078-0.038l0.025-0.025l0.022-0.067l0.005-0.077l-0.021-0.085l-0.055-0.093l-0.07-0.1l-0.05-0.091l-0.028-0.101
	l-0.006-0.128l0.046-0.158l0.111-0.119l0.293-0.182l0.063-0.086l0.048-0.043l0.156,0.02l0.107-0.006l0.313,0.119l0.104,0.022
	l0.041,0.022l0.051,0.056l0.069,0.096l0.043,0.035l0.081-0.003l0.26,0.029l0.037,0.013l0.086,0.058l0.098,0.09l0.058,0.029
	l0.064-0.015l0.046-0.02l0.057-0.005l0.053,0.01l0.042,0.032l0.083,0.101l0.069,0.056l0.078,0.021h0.106l0.009-0.074l-0.119-0.435
	l-0.191-0.693l-0.208-0.754l-0.214-0.772l-0.217-0.779l-0.135-0.488l0.112,0.014l0.1,0.038l0.188,0.099l0.027,0.003l0.041-0.021
	l0.025,0.004l0.015,0.016l0.031,0.043l0.011,0.012l0.039,0.018l0.028,0.022l0.032,0.008l0.049-0.021l0.061,0.003l0.032,0.026
	l0.031,0.034l0.052,0.023l0.053,0.006l0.558-0.105l0.08-0.033l0.192-0.187l0.097-0.055l0.079-0.016l0.078,0.022l0.071,0.045
	l0.022,0.014l0.104,0.099l0.051,0.026l0.063,0.01l0.064-0.004l0.065,0.004l0.065,0.035l0.155,0.128l0.087,0.05l0.092,0.029
	l0.098,0.007l0.299-0.024l0.055,0.01l0.096,0.069l0.048,0.021l0.077,0.006l0.036-0.019l0.025-0.032l0.194-0.126l0.272-0.232
	l0.115-0.138l0.144-0.287l0.079-0.048l0.09-0.023l0.077-0.041l0.067-0.054l0.061-0.067l0.158-0.253l0.161-0.133l0.033-0.1
	l0.036-0.204l0.103-0.185l0.041-0.104l-0.002-0.109l-0.046-0.083l-0.065-0.07l-0.046-0.071l0.011-0.084l0.018,0.012l0.153-0.077
	l0.132-0.05l0.051-0.011l0.127-0.003l0.137,0.019l0.132,0.038l0.122,0.05l0.377,0.257l0.199,0.095l0.097-0.067l-0.022-0.193
	l0.016-0.084l0.085-0.081l0.24-0.107l0.07-0.055l0.251-0.306l0.099-0.185l-0.004-0.141l-0.033-0.101l0.067-0.045l0.114-0.008
	l0.099,0.01l0.156,0.042l0.043,0.007l0.031-0.003l0.25-0.076l0.113-0.062l0.154-0.149l0.041-0.039l0.122-0.09l0.149-0.039
	l0.162-0.006l0.35,0.039l0.083-0.011l0.084-0.038l0.06-0.073l0.04-0.185l0.059-0.065l0.089-0.04l0.106-0.046l0.054-0.039
	l0.149-0.189l0.069-0.046l0.422-0.154l0.228-0.046l0.229-0.013l0.527,0.073l0.469,0.065l0.326-0.038l0.582-0.085l0.141-0.039
	l0.4-0.193l0.351-0.082l0.382,0.006l0.797,0.185l0.811,0.187l0.757,0.332l0.69,0.302l0.218,0.037l0.825-0.026l1.063-0.033
	l0.708,0.056l0.516,0.041l0.291,0.053l0.287,0.086l0.305,0.121l0.876,0.457l0.458,0.148l0.487-0.014l0.312-0.063l0.332-0.029
	l0.333,0.033l0.643,0.265l0.709,0.218L1245.378,624.175z"/></svg>