<?xml version="1.0" encoding="utf-8"?>
<!-- Generator: Adobe Illustrator 15.0.0, SVG Export Plug-In . SVG Version: 6.00 Build 0)  -->
<!DOCTYPE svg PUBLIC "-//W3C//DTD SVG 1.1//EN" "http://www.w3.org/Graphics/SVG/1.1/DTD/svg11.dtd">
<svg version="1.1" id="Ebene_1" xmlns="http://www.w3.org/2000/svg" xmlns:xlink="http://www.w3.org/1999/xlink" x="0px" y="0px"
	 width="1920px" height="1080px" viewBox="0 0 1920 1080" enable-background="new 0 0 1920 1080" xml:space="preserve">

<path fill="#F4E0B6" stroke="#FFFFFF" d="M1277.851,609.924l0.452,0.46l0.452,0.463l0.452,0.462l0.455,0.465l0.454,0.465
	l0.455,0.466l0.458,0.468l0.458,0.468l0.458,0.469l0.46,0.468l0.461,0.471l0.46,0.473l0.461,0.472l0.465,0.474l0.465,0.475
	l0.004,0.004l0.461,0.471l0.103,0.573l0.103,0.573l0.102,0.574l0.1,0.574l0.104,0.575l0.101,0.576l0.103,0.575l0.102,0.577
	l0.101,0.576l0.101,0.58l0.101,0.578l0.103,0.579l0.099,0.579l0.102,0.58l0.102,0.581l0.102,0.583l-0.663,0.438l-0.848,0.562
	l-0.604,0.4l-0.729,0.48l-0.719,0.475l-0.657,0.433l-0.409,0.27l-0.389,0.052l-0.378,0.098l-0.499,0.132l-0.499,0.13l-0.499,0.129
	l-0.497,0.132l-0.497,0.129l-0.495,0.131l-0.496,0.129l-0.494,0.129l-0.495,0.128l-0.493,0.128l-0.492,0.128l-0.491,0.127
	l-0.489,0.128l-0.491,0.127l-0.489,0.126l-0.488,0.126h-0.001l-0.51,0.136l-0.509,0.135l-0.51,0.135l-0.507,0.133l-0.508,0.135
	l-0.505,0.132l-0.506,0.134l-0.504,0.134l-0.504,0.131l-0.502,0.132l-0.503,0.132l-0.502,0.13l-0.5,0.132l-0.501,0.131l-0.5,0.13
	l-0.498,0.131l-0.453,0.117l-0.258,0.014l-0.546-0.069l-0.992-0.132l-0.693-0.09l-0.597-0.08l-0.092,0.007l-0.065,0.051l-0.07,0.11
	l-0.089,0.045l-0.507,0.022l-0.343,0.017l-0.113-0.03l-0.088-0.068l-0.136-0.138l-0.095-0.059l-0.266-0.131l-0.073-0.013
	l-0.136,0.002l-0.074-0.009l-0.068-0.027l-0.121-0.066l-0.078-0.016l-0.052,0.008l-0.142,0.047l-0.184-0.04l-0.204-0.131
	l-0.712-0.598l-0.2-0.084l-0.223,0.036l-0.225,0.094l-0.211,0.042l-0.22-0.038l-0.252-0.144l-0.155-0.115l-0.174-0.104l-0.186-0.074
	l-0.188-0.034l-0.635,0.009l-0.224-0.058l-0.341-0.18l-0.312-0.22l-0.385-0.35l-0.145-0.084l-0.138-0.041l-0.425-0.068l-0.263-0.102
	l-0.246-0.133l-0.082-0.085l0.021-0.076l0.063-0.083l0.044-0.099l-0.009-0.104l-0.04-0.104l-0.104-0.197l-0.047-0.13l-0.008-0.101
	l0.05-0.221l0.007-0.111l-0.028-0.083l-0.043-0.08l-0.038-0.106l0.008-0.11l0.116-0.189l0.021-0.106l-0.028-0.092l-0.104-0.201
	l-0.024-0.123l-0.348-2.454l-0.069-0.479l0.104,0.027l0.099,0.005l0.097-0.052l-0.162-0.146l0.12,0.03l0.227,0.085l0.153,0.028
	l0.077-0.012l0.2,0.051l0.101-0.023l0.097-0.038l0.202,0.004l0.1-0.011l-0.033-0.089l0.006-0.084l0.045-0.036l0.078,0.053
	l0.271,0.431l0.157,0.112l0.186,0.072l0.177,0.026l0.037-0.005l0.083-0.03l0.044-0.004l0.037,0.013l0.076,0.046l0.137,0.044
	l0.137,0.091l0.241,0.078l0.478,0.229l0.753,0.116l0.648,0.171l0.683,0.064h0.719l0.53,0.064l0.334-0.022l0.915,0.07l0.189-0.013
	l0.283-0.02l0.244-0.048l0.312-0.236l0.362-0.186l0.227-0.089l0.151-0.15l0.105-0.149l0.192-0.242l0.096-0.122l0.188-0.097
	l0.313-0.15l0.203-0.119l0.257-0.198l0.037-0.206l-0.093-0.056l0.058-0.041l0.229-0.593l0.044-0.072l0.098-0.128l0.188-0.526
	l0.063-0.457l0.039-0.085l0.083-0.042l0.105-0.028l0.097-0.039l0.069-0.055l0.124-0.141l0.118-0.192l0.063-0.16l0.04-0.158
	l-0.008-0.241l0.026-0.069l0.236-0.328l0.026-0.055l0.003-0.088l-0.01-0.084l0.012-0.079l0.063-0.071l0.032-0.067l-0.038-0.162
	l0.044-0.073l0.079-0.05l0.076-0.037l0.084-0.015l0.106,0.004l0.088,0.027l0.075,0.034l0.071,0.009l0.073-0.048l-0.086-0.063
	l0.071-0.048l0.564-0.099l0.168-0.086l0.188-0.063l0.095-0.021l0.198-0.08l0.131-0.127l0.229-0.292l0.146-0.074l0.17-0.011
	l0.368,0.061l0.204,0.005l0.202-0.05l0.188-0.093l0.164-0.122l0.121-0.139l0.048-0.081l0.054-0.157l0.123-0.121l0.077-0.132
	l0.169-0.128l0.065-0.063l0.033-0.067l0.044-0.219l0.23-0.429l0.055-0.248l0.117-0.211l0.002-0.044l-0.017-0.091l0.001-0.038
	l0.02-0.033l0.055-0.048l0.019-0.029l0.281-0.422l0.108-0.456l0.06-0.318l0.014-0.256l0.024-0.074l0.149-0.193l0.023-0.067
	l0.031-0.154l0.249-0.526l0.057-0.09l0.068-0.078l0.155-0.074l0.179-0.212l0.168-0.076l0.988-0.146l0.169-0.071l0.137-0.293
	l0.542-0.391l0.272-0.14l0.756-0.603l0.099-0.132l0.011-0.085l-0.02-0.19l0.05-0.1l-0.022-0.035l-0.017-0.039l0.027-0.042
	l0.076-0.054l0.035-0.029l0.06-0.078l0.083-0.071l0.024-0.052l-0.001-0.05l-0.017-0.037l-0.021-0.035l-0.01-0.037l0.004-0.094
	l0.023-0.063l0.106-0.121l0.286-0.247l0.122-0.135l0.057-0.158l0.045-0.07l0.291-0.188l0.175-0.207l0.074-0.061l0.366-0.151
	l0.228-0.061l0.256-0.029l0.505-0.155l0.079-0.036l0.074-0.054L1277.851,609.924z"/></svg>