<?xml version="1.0" encoding="utf-8"?>
<!-- Generator: Adobe Illustrator 15.0.0, SVG Export Plug-In . SVG Version: 6.00 Build 0)  -->
<!DOCTYPE svg PUBLIC "-//W3C//DTD SVG 1.1//EN" "http://www.w3.org/Graphics/SVG/1.1/DTD/svg11.dtd">
<svg version="1.1" id="Ebene_1" xmlns="http://www.w3.org/2000/svg" xmlns:xlink="http://www.w3.org/1999/xlink" x="0px" y="0px"
	 width="1920px" height="1080px" viewBox="0 0 1920 1080" enable-background="new 0 0 1920 1080" xml:space="preserve">

<path fill="#F4E0B6" stroke="#FFFFFF" d="M1123.814,779.413l-0.169,0.104l-0.024,0.007l0.027,0.269l-0.021,0.122l-0.103-0.064
	l0.003,0.138l-0.047,0.046l-0.074-0.033l-0.073-0.099l0.006-0.014l-0.015-0.129l-0.018-0.055l-0.039-0.056l-0.03-0.018l-0.025-0.004
	l-0.024-0.016l-0.438-0.645l-0.052-0.047l0.004-0.071l-0.011-0.063l-0.043-0.133l-0.007-0.059l0.047-0.209v-0.071l-0.009-0.045
	l-0.002-0.049l0.101-0.335l0.03-0.047l0.163-0.193l0.101-0.259l0.116-0.229l0.21-0.091l0.149,0.033l0.174,0.096l0.162,0.133
	l0.115,0.147l0.084,0.161l0.033,0.104l0.021,0.131l0.003,0.149l-0.016,0.105l-0.071,0.224l-0.029,0.135l-0.038,0.393l-0.024,0.033
	l-0.043,0.042l-0.021,0.045l0.074,0.094l-0.029,0.048l-0.052,0.048l-0.034,0.039l-0.04,0.161L1123.814,779.413z M1124.463,767.186
	l0.057,0.139l0.02,0.141l-0.003,0.077l-0.026,0.046l-0.059,0.048l-0.005,0.046l0.022,0.053l0.018,0.072l-0.021-0.018l-0.031-0.036
	l-0.015-0.014l-0.027,0.036l-0.021,0.046l-0.08-0.077l-0.08,0.011l-0.075,0.034l-0.068-0.004l-0.085-0.185l-0.036-0.118l0.049-0.017
	l0.068-0.09l0.018-0.081l-0.016-0.085l-0.035-0.103l-0.017-0.135l0.032-0.132l0.072-0.097l0.101-0.026l0.143-0.06h0.064l0.046,0.076
	l-0.016,0.044l-0.047,0.06l-0.041,0.073l-0.006,0.087l0.079-0.026l0.081,0.007l0.042,0.033l-0.037,0.047l-0.064,0.062
	L1124.463,767.186z"/></svg>