<?xml version="1.0" encoding="utf-8"?>
<!-- Generator: Adobe Illustrator 15.0.0, SVG Export Plug-In . SVG Version: 6.00 Build 0)  -->
<!DOCTYPE svg PUBLIC "-//W3C//DTD SVG 1.1//EN" "http://www.w3.org/Graphics/SVG/1.1/DTD/svg11.dtd">
<svg version="1.1" id="Ebene_1" xmlns="http://www.w3.org/2000/svg" xmlns:xlink="http://www.w3.org/1999/xlink" x="0px" y="0px"
	 width="1920px" height="1080px" viewBox="0 0 1920 1080" enable-background="new 0 0 1920 1080" xml:space="preserve">

<path fill="#F4E0B6" stroke="#FFFFFF" d="M1086.899,527.784l0.017,0.077l0.031,0.103l0.039,0.099l0.038,0.067l-0.021,0.057
	l-0.092,0.068l-0.026,0.062l0.037,0.198l0.007,0.09l0.007,0.021l0.028,0.051l0.009,0.028l-0.005,0.049l-0.033,0.086l-0.004,0.04
	l-0.002,0.009l0.01,0.059l0.016,0.033l0.023,0.03l0.08,0.134l0.009,0.031l0.007,0.055l-0.005,0.045l-0.014,0.033l-0.005,0.037
	l0.021,0.059l0.05,0.084l0.03,0.095l0.009,0.092l-0.011,0.078l-0.021,0.038l-0.057,0.06l-0.02,0.039l-0.005,0.039l0.008,0.079
	l-0.001,0.037l-0.093,0.231l-0.005,0.086l0.039,0.085l0.118,0.147l0.025,0.068l0.007,0.081l0.154,0.291l-0.016,0.091l-0.024,0.06
	l-0.041,0.042l-0.165,0.066l-0.047,0.028l-0.039,0.042l-0.133,0.08l-0.029,0.035l-0.057,0.089l-0.104,0.076l-0.098,0.142
	l-0.076,0.05l-0.098,0.013l-0.098-0.017l-0.102-0.041l-0.271-0.156l-0.044-0.031l-0.124-0.15l-0.047-0.034l-0.051,0.013l-0.096,0.05
	l-0.052,0.003l-0.033-0.02l-0.065-0.066l-0.036-0.025l-0.033-0.01l-0.058,0.006l-0.117-0.009l-0.046,0.009l-0.111,0.113
	l-0.089,0.049l-0.04,0.031l-0.034,0.057l-0.003,0.049l0.009,0.052l-0.008,0.06l-0.026,0.042l-0.037,0.003l-0.047-0.013l-0.06,0.004
	l-0.076,0.064l-0.152,0.203l-0.075,0.018l-0.081-0.027l-0.092,0.004l-0.085,0.025l-0.063,0.039l-0.098,0.039l-0.192-0.018
	l-0.087,0.034l-0.045,0.008l-0.115-0.032l-0.053-0.001l-0.042,0.022l-0.491,0.413l-0.158,0.093l-0.061,0.07l0.013,0.032l0.018,0.034
	l0.041,0.069l0.009,0.014l0.009,0.014l0.007,0.015l0.005,0.016l-0.008,0.071l-0.003,0.01l-0.036,0.128l-0.011,0.074l0.002,0.077
	l0.063,0.375l0.005,0.145l-0.012,0.137l-0.037,0.118l-0.045,0.063l-0.039,0.001l-0.047-0.02h-0.067l-0.023,0.028l-0.042,0.115
	l-0.034,0.043l-0.049,0.018l-0.033,0.003l-0.021,0.016l-0.013,0.057l0.004,0.034l0.023,0.081l-0.001,0.046l-0.013,0.027
	l-0.041,0.046l-0.072,0.119l-0.006,0.01l-0.084,0.081l-0.042,0.07l-0.063,0.174l-0.052,0.056l-0.065,0.006l-0.15-0.045l-0.077,0.011
	l-0.077,0.084l-0.027,0.01l-0.044-0.026l-0.012-0.038l-0.003-0.042l-0.021-0.039l-0.077-0.035l-0.067,0.02l-0.112,0.084
	l-0.034-0.001l-0.096-0.045l-0.043-0.011l-0.031,0.004l-0.03,0.014l-0.212,0.187l-0.032,0.049v0.074l0.055,0.171l0.001,0.079v0.003
	v0.002l0.002,0.001l0.002,0.003l0.017,0.021l0.012,0.021l0.01,0.021l0.006,0.024l-0.091,0.174l-0.367,0.167l-0.109,0.182
	l-0.025,0.021l-0.356,0.118l-0.149,0.102l-0.054,0.022l-0.063,0.025l-0.031,0.039l-0.115,0.091l-0.229,0.179l-0.027,0.062
	l0.003,0.188l-0.014,0.035l-0.049,0.034l-0.018,0.026l-0.013,0.062l0.011,0.012l0.026,0.007l0.033,0.043l0.057,0.182l0.036,0.089
	l0.055,0.067l0.119,0.042l0.143,0.028l-0.003,0.004l-0.056,0.055l-0.054,0.046l-0.028,0.058l-0.039,0.147l-0.045,0.073l-0.076,0.045
	l-0.089,0.022l-0.121,0.003l-0.127,0.048l-0.524,0.328l-0.164,0.178l-0.097,0.058l-0.354,0.12l-0.607,0.33l-0.154,0.084l-0.26,0.041
	l-0.079-0.006l-0.147-0.011l-0.044-0.018l-0.042-0.032l-0.074-0.026l-0.077-0.016l-0.05-0.001l-0.029,0.019l-0.021,0.025
	l-0.028,0.016l-0.05-0.02l-0.16-0.099l-0.033-0.004l-0.076,0.016h-0.035l-0.039-0.013l-0.464-0.253l-0.121-0.034l-0.192,0.053
	l-0.032,0.004l-0.129,0.018l-0.108,0.022l-0.072,0.108l-0.092-0.031l-0.104,0.009l-0.08-0.007l-0.018-0.074l-0.046-0.012
	l-0.015-0.003l-0.021-0.084l-0.006-0.048l0.011-0.047l-0.053-0.022l-0.024-0.02l-0.078-0.057l-0.038-0.004l-0.047,0.013
	l-0.048-0.007l-0.106-0.046l-0.051-0.056l-0.042-0.089l-0.049-0.069l-0.113-0.13l-0.01-0.02l-0.019-0.049l-0.012-0.017l-0.018-0.01
	l-0.02,0.001l-0.043-0.014l-0.031-0.001l-0.026-0.004l-0.021-0.02l-0.013-0.018l-0.021-0.02l-0.02-0.015l-0.011-0.007l-0.016-0.003
	l-0.006-0.024l-0.001-0.028l-0.002-0.021l-0.027-0.028l-0.043-0.02l-0.04-0.011l-0.021-0.001l-0.057,0.018l-0.028-0.004
	l-0.021-0.021l-0.02-0.046l-0.004-0.021l0.001-0.015l-0.006-0.03l-0.079-0.232l-0.018-0.064l0.002-0.068l0.022-0.135l-0.013-0.062
	l0.002-0.049l0.028-0.056l0.021-0.069l-0.004-0.023l-0.011-0.059l-0.117-0.182l-0.03-0.083l0.018-0.071l0.005-0.073l-0.053-0.462
	l0.013-0.145l0.055-0.123l0.015-0.067l-0.021-0.085l0.007-0.05l0.094-0.172l0.109-0.08l0.146-0.024l0.386,0.021l0.042-0.031
	l0.036-0.059l0.034-0.055l0.056-0.049l0.048,0.003l0.126,0.052l0.106-0.031l0.42-0.441l0.028-0.062l0.015-0.205l0.025-0.056
	l0.062-0.042l0.062-0.015l0.05-0.027l0.026-0.073l-0.006-0.066l-0.042-0.139l-0.013-0.068l0.001-0.088l0.038-0.063l0.061-0.041
	l0.149-0.054l0.068-0.083l0.044-0.112l0.008-0.121l-0.027-0.1l-0.093-0.183l-0.013-0.025l-0.044-0.116l-0.033-0.151l-0.011-0.15
	l0.012-0.136l0.042-0.112l0.289-0.308l0.061-0.125l0.038-0.079l-0.09-0.2l0.086-0.018l0.04-0.067l0.044-0.193l0.064-0.088
	l0.01-0.033l-0.004-0.042l-0.032-0.082l-0.003-0.041l0.038-0.06l0.126-0.037l0.055-0.077l0.017-0.013l0.021-0.004l0.109,0.004
	l0.088-0.011l0.072-0.04l0.059-0.154l0.04-0.042l0.106-0.054l0.275-0.099l0.1,0.011l0.012,0.082l0.032,0.057l0.04,0.049l0.039,0.059
	l0.056,0.141l0.038,0.04l0.057-0.014l0.064-0.036l0.072-0.111l0.05-0.041l0.029-0.003l0.072,0.014l0.032,0.001l0.028-0.012
	l0.06-0.044l0.065-0.072l0.003-0.042l-0.021-0.055l-0.021-0.09l0.008-0.005l0.031-0.017l0.007-0.014l-0.007-0.031l-0.015-0.017
	l-0.015-0.008l-0.008-0.003l-0.024-0.154l0.007-0.077l0.02-0.055l0.032-0.042l0.045-0.035l0.082-0.038l0.024-0.018l0.03-0.033
	l0.011-0.028l0.099-0.366l-0.001-0.025l0.013-0.013l0.018-0.001l0.027-0.002l0.084,0.059l0.03,0.013l0.083,0.012l0.074,0.068
	l0.153,0.185l0.109,0.111l0.027,0.023l0.064,0.013l0.062-0.011l0.107-0.049v0.032l0.007,0.024l0.034,0.063l0.021,0.051v0.001
	l0.178-0.021l0.06-0.021l0.053-0.032l0.068-0.079l0.033,0.007l0,0l0.065,0.066l0.048,0.063l0.116,0.191l0.005,0.019l-0.005,0.042
	l0.008,0.017l0,0l0.017,0.009l0.049,0.01h0.002l0.009,0.007l0.001,0.001l0.03,0.012h0.001l0.015,0.016l0.006,0.027l-0.011,0.017
	l-0.015,0.012l-0.006,0.015l-0.016,0.215l0.017,0.059l0,0l0.059,0.032l0.079-0.008l0.126-0.049l0.048-0.051l0.018-0.057l0.023-0.079
	l0.029-0.06l0.079-0.052l0.094,0.003l0.203,0.064h0.109l0.03-0.065l-0.025-0.115l-0.058-0.151l0.011-0.057l-0.005-0.054l-0.01-0.056
	l-0.009-0.141l0.004-0.026l0.011,0.003l0.061-0.021l0.014-0.039l0.021-0.097l0.027-0.042l0.193-0.118l0.004-0.024l-0.011-0.067
	l-0.017-0.065l-0.015-0.04l-0.003-0.031l0.017-0.033l0.031-0.016l0.128-0.013l0.133-0.072l-0.037-0.071l0.035-0.03l0.281,0.006
	l0.065-0.015l0.05-0.054l0.015-0.044l0.015-0.073l0.019-0.029l0.023-0.014l0.061-0.02l0.091-0.066l0.044-0.012l0.38,0.166
	l0.058,0.011l0.063-0.021l0.043-0.024l0.045-0.015l0.068,0.013l0.065,0.023l0.06,0.011l0.053-0.015l0.05-0.053l0.029-0.079
	l0.019-0.171l0.025-0.081l0.037-0.03l0.054-0.028l0.043-0.034l0.002-0.048l-0.064-0.045l-0.08-0.007l-0.051-0.022l0.021-0.086
	l0.029-0.041l0.094-0.076l0.042-0.016l0.064,0.009l0.061,0.023l0.054,0.008l0.052-0.038l0.021-0.066l0.016-0.165l0.029-0.057
	l0.041-0.01l0.188,0.005l0.292-0.057l0.042-0.022l0.086-0.071l0.044-0.008l0.036-0.044l0.031-0.037l0.173-0.118l0.056-0.012
	l0.036,0.005l0.074,0.024l0.036,0.005l0.021-0.008l0.035-0.03l0.03-0.005l0.068,0.022l0.16,0.093l0.058,0.012l0.018-0.032
	l0.013-0.064l0.021-0.066l0.047-0.037l0.063,0.003l0.144,0.04l0.178-0.001l0.142,0.041l0.14,0.084l0.11,0.126l0.086,0.12
	l0.103,0.017l0.204-0.061l0.114,0.011l0.037-0.002l0.026-0.011l0.058-0.042l0.023-0.007l0.047,0.018l0.015,0.028l0.008,0.03
	l0.02,0.023l0.028,0.007l0.143-0.026l0.14-0.081l0.066-0.007l0.205,0.065l0.111-0.02l0.207-0.099L1086.899,527.784z"/></svg>