<?xml version="1.0" encoding="utf-8"?>
<!-- Generator: Adobe Illustrator 15.0.0, SVG Export Plug-In . SVG Version: 6.00 Build 0)  -->
<!DOCTYPE svg PUBLIC "-//W3C//DTD SVG 1.1//EN" "http://www.w3.org/Graphics/SVG/1.1/DTD/svg11.dtd">
<svg version="1.1" id="Ebene_1" xmlns="http://www.w3.org/2000/svg" xmlns:xlink="http://www.w3.org/1999/xlink" x="0px" y="0px"
	 width="1920px" height="1080px" viewBox="0 0 1920 1080" enable-background="new 0 0 1920 1080" xml:space="preserve">

<path fill="#F4E0B6" stroke="#FFFFFF" d="M1502.113,510.714l0.022-0.062l0.009,0.037l-0.006,0.016L1502.113,510.714z
	 M1502.062,510.533l0.016,0.025l-0.032,0.004l-0.019-0.012l-0.031-0.043l0.025,0.01l0.022,0.005L1502.062,510.533z M1502.03,510.964
	l0.051-0.03l-0.004,0.02l-0.012,0.006l-0.016,0.001L1502.03,510.964z M1501.694,510.377l0.112,0.044l-0.056,0.018l-0.055-0.004
	l-0.028-0.021L1501.694,510.377z M1501.957,511.017l0.012,0.04l-0.176,0.143l-0.098,0.047l-0.057-0.065l0.04-0.01l0.013,0.033
	l0.017,0.001l0.022-0.01v-0.001l0.031-0.001l0.025-0.05l0.048-0.051l0.062-0.045L1501.957,511.017z M1501.482,510.394l0.105-0.016
	l-0.029,0.045l-0.04,0.021l-0.047-0.003l-0.048-0.035l0.015-0.01l0.014-0.001l0.014,0.002L1501.482,510.394z M1499.605,509.736
	l0.039-0.007l-0.021,0.044l-0.023,0.021l-0.026,0.011l-0.027,0.004l0.038-0.057L1499.605,509.736z M1450.68,511.727L1450.68,511.727
	l-0.022,0.017l-0.015,0.002l-0.005,0.001h-0.003l-0.021-0.002l-0.024,0.001l0.021-0.015l0.018-0.016l0.02-0.006v0.001
	L1450.68,511.727z M1450.715,511.067l0.023,0.034l-0.002,0.009l-0.02-0.002l-0.026,0.001L1450.715,511.067L1450.715,511.067z
	 M1450.338,512.001L1450.338,512.001l-0.015,0.021h-0.006l-0.007,0.001l-0.008-0.005l-0.008-0.004l-0.002-0.001l-0.018-0.007h0.002
	L1450.338,512.001z M1450.692,510.115l0.015,0.058l-0.03-0.016l-0.002-0.016l0.009-0.013L1450.692,510.115L1450.692,510.115z
	 M1450.04,512.239L1450.04,512.239l-0.021,0.022l-0.008-0.001l-0.005-0.017l0.011-0.004l0.008-0.012l0.004-0.003l0.002-0.001
	L1450.04,512.239z M1450.33,509.231l0.031,0.036l0,0l-0.026,0.005l-0.007,0.002l0,0l-0.009-0.006l0.007-0.017L1450.33,509.231
	L1450.33,509.231z M1449.487,512.237L1449.487,512.237l-0.019,0.014h-0.015l-0.01-0.008l-0.011-0.004l0.001-0.001L1449.487,512.237z
	 M1448.902,512.198l0.049,0.016l-0.028,0.014l-0.012-0.003L1448.902,512.198L1448.902,512.198z M1449.644,509.171l0.053-0.001
	l-0.016,0.021l-0.012,0.001l-0.011-0.01L1449.644,509.171L1449.644,509.171z M1448.795,509.561L1448.795,509.561l-0.005,0.011
	l-0.02,0.001l-0.007-0.006l0.001-0.012l-0.003-0.009l0.014,0.008l0.012,0.003L1448.795,509.561z M1448.104,509.46l0.008,0.005
	l-0.002,0.005l-0.003,0.005l-0.02,0.001l-0.006-0.007v-0.001v-0.005v-0.003l-0.002-0.01l0.013,0.007L1448.104,509.46z
	 M1447.623,509.456L1447.623,509.456l-0.021,0.002l-0.007-0.006l-0.004-0.011l-0.003-0.011v0.001l0.011,0.005l0.002,0.001
	l0.01,0.003l0.005,0.002l0.005,0.002l0.001,0.005L1447.623,509.456z M1442.488,507.935l0.025,0.039l-0.006,0.012l0,0l-0.022,0.001
	l-0.026,0.004h0.001L1442.488,507.935z M1442.487,507.79l-0.006,0.035l-0.021-0.008h-0.001l-0.002-0.003l-0.01-0.011l-0.008-0.016
	l-0.014-0.011h0.001l0.025,0.002l0.023-0.005l0.012,0.009L1442.487,507.79z M1442.411,507.4l0.021,0.046l-0.005,0.014l-0.019-0.001
	h-0.018L1442.411,507.4z M1442.453,507.204L1442.453,507.204l-0.001,0.002l-0.002,0.001l-0.004,0.002h-0.003l-0.011-0.017
	l-0.013-0.016l-0.012-0.033l-0.008-0.065v-0.001l0.021,0.048L1442.453,507.204z M1442.318,506.969l0.008,0.006h-0.021l0,0
	l-0.011-0.008l-0.003-0.005l-0.004-0.008l-0.011-0.016l0.002,0.001L1442.318,506.969z M1441.742,508.461l0.008,0.049l-0.028-0.009
	l-0.002-0.011l0.007-0.008l0.004-0.004L1441.742,508.461z M1442.16,506.878l0.002,0.003l-0.164-0.097l-0.037-0.029l0.109,0.053
	l0.049,0.032L1442.16,506.878z M1441.775,506.726L1441.775,506.726l-0.018,0.007l-0.013-0.004l-0.028-0.021L1441.775,506.726z
	 M1441.332,507.933l0.012,0.032l-0.015,0.014l-0.01-0.004l-0.009-0.011l-0.014-0.004l0.016-0.01l0.011-0.014L1441.332,507.933z
	 M1441.434,506.667l0.022,0.013l-0.006,0.013v0.001l-0.008-0.014L1441.434,506.667z M1441.17,507.518l0.025,0.006l-0.012,0.001
	L1441.17,507.518z M1441.193,506.56L1441.193,506.56l-0.019,0.001l-0.012-0.008l-0.007-0.014l-0.011-0.016L1441.193,506.56z
	 M1441.014,506.417l0.027-0.097l0,0l0.005,0.012l0.009,0.021l0.024,0.081l0.01,0.037l-0.023-0.006l-0.017-0.013L1441.014,506.417z
	 M1439.949,509.221l-0.002,0.008v-0.001l-0.003-0.032l0.005,0.016V509.221z M1439.945,508.851l0.004,0.004l-0.009,0.014
	l-0.016-0.001l0,0l-0.004-0.006l0.002-0.01l-0.002-0.014h0.001l0.01,0.008L1439.945,508.851z M1439.918,508.738l-0.008,0.033
	l-0.012,0.003l0,0l-0.015-0.01l-0.018-0.007l0.015-0.005L1439.918,508.738z M1439.225,509.573L1439.225,509.573l-0.008,0.017
	l-0.003-0.032L1439.225,509.573z M1438.895,509.604l0.064,0.011l-0.026,0.02l-0.014-0.003l-0.011-0.014L1438.895,509.604z
	 M1439.417,507.308l0.001,0.002l-0.029-0.02l0.003,0.001l0.018,0.006L1439.417,507.308z M1439.213,507.135L1439.213,507.135
	l-0.252-0.017l-0.044-0.015l0.077-0.02l0.065-0.006l0.014-0.002l0.076,0.015L1439.213,507.135z M1438.55,507.234L1438.55,507.234
	l-0.009,0.006l-0.011,0.008h-0.002l-0.013-0.002l-0.012-0.013l-0.02-0.015L1438.55,507.234z M1437.99,508.103l-0.001,0.001
	l-0.01-0.03l0.014,0.014L1437.99,508.103z M1436.943,509.195l0.019,0.017l-0.008,0.018l-0.008,0.001l-0.011-0.004h-0.015
	l0.011-0.011l0.004-0.014L1436.943,509.195z M1436.874,509.368L1436.874,509.368l-0.025,0.031l-0.014-0.002l-0.008-0.019
	l-0.013-0.02L1436.874,509.368z M1436.8,508.446v0.015l-0.027,0.011l0,0l-0.004-0.059l0,0L1436.8,508.446z M1437.09,506.631
	L1437.09,506.631l-0.029,0.01l-0.008-0.007v-0.013v-0.011l0.013,0.008l0.013-0.002l0.009,0.003L1437.09,506.631z M1437.078,506.348
	l0.044,0.063l-0.032-0.016l-0.012-0.018v-0.019V506.348z M1436.725,505.365l0.01,0.014l-0.003-0.001l-0.022-0.003l0.001-0.001
	l0.009-0.005L1436.725,505.365z M1436.411,506.395L1436.411,506.395l-0.018,0.016l-0.008-0.002l-0.003-0.012l-0.007-0.008
	l0.013-0.001l0.013-0.003l0.008-0.001L1436.411,506.395z M1435.639,508.211l0.005,0.028l-0.003,0.002l-0.007,0.003l-0.016-0.004l0,0
	l-0.022-0.002L1435.639,508.211z M1436.394,505.2l0.042,0.023l-0.013,0.001l-0.01-0.005l-0.02-0.021V505.2z M1436.387,505.071
	l0.044,0.061l-0.031-0.014l-0.011-0.02l-0.003-0.018L1436.387,505.071L1436.387,505.071z M1435.352,508.995l0.012,0.019
	l-0.016-0.003l-0.039-0.04h0.002L1435.352,508.995z M1434.768,508.624l-0.004,0.026l-0.008,0.001l-0.012-0.01l-0.016-0.01
	l0.012-0.003l0.004-0.008l0.003-0.002l0.007-0.005L1434.768,508.624z M1435.651,504.717l0.009,0.027l-0.028-0.035L1435.651,504.717z
	 M1434.729,508.161l0.007,0.023l-0.013,0.014l-0.007-0.003l-0.009-0.011l-0.013-0.009l0.001-0.001l0.014-0.003l0.011-0.009
	L1434.729,508.161z M1434.307,507.678l-0.004,0.024l-0.007,0.001l0,0l-0.013-0.01l-0.017-0.01l0.013-0.003l0.001-0.001l0.006-0.01
	l0.006-0.006L1434.307,507.678z M1434.026,507.658l0.007,0.023l-0.001,0.001l-0.011,0.014l-0.008-0.004l-0.01-0.011l-0.012-0.009
	h0.001l0.013-0.005l0.011-0.008H1434.026z M1433.415,508.688L1433.415,508.688h-0.007l-0.013-0.009l-0.016-0.009l0.013-0.004
	l0.006-0.012l0.002-0.002l0.004-0.002l0.016,0.013L1433.415,508.688z M1434.13,504.856L1434.13,504.856l-0.029,0.009v-0.001
	l0.007-0.004l0.008-0.005l0.001-0.001L1434.13,504.856z M1433.976,503.445l0.001-0.001l-0.008,0.011l-0.01,0.012l-0.002,0.001
	l-0.015,0.001v-0.001L1433.976,503.445z M1433.348,504.709h0.002l-0.011,0.011l0,0l-0.02-0.003L1433.348,504.709z M1432.328,508.375
	l0.003,0.025l-0.014,0.013v0.001l-0.007-0.006l-0.006-0.011l-0.011-0.009h0.001l0.014-0.003l0.011-0.01H1432.328L1432.328,508.375z
	 M1432.242,508.58l-0.009,0.027l-0.006,0.001h-0.001l-0.008-0.015l-0.014-0.009h0.001l0.01-0.003l0.003-0.001l0.012-0.012
	l0.008-0.005L1432.242,508.58z M1432.24,507.904L1432.24,507.904l-0.034-0.032l-0.012-0.028l0.005-0.025l0.009-0.021
	L1432.24,507.904z M1431.895,507.614l0.004,0.025l-0.014,0.013l-0.008-0.004l-0.005-0.012l-0.011-0.01l0.014-0.003l0.007-0.006
	l0.005-0.003H1431.895z M1430.961,508.815l0.018,0.021l-0.011,0.01l-0.014,0.013l-0.016-0.004l-0.012-0.014l-0.018-0.01h0.001
	l0.021-0.003l0.016-0.009L1430.961,508.815L1430.961,508.815z M1431.28,507.389l0.005,0.023l-0.014,0.015l-0.008-0.004l-0.006-0.012
	l-0.01-0.01l0.013-0.004l0.012-0.009L1431.28,507.389z M1431.062,507.368l0.004,0.024l-0.002,0.002l-0.013,0.011l0,0l-0.007-0.003
	l-0.005-0.013l-0.011-0.009l0.015-0.004l0.007-0.006l0.003-0.002H1431.062z M1430.705,507.281l0.005,0.023l-0.015,0.014
	l-0.007-0.004l-0.007-0.011l-0.01-0.01l0.014-0.003l0.005-0.004l0.007-0.005L1430.705,507.281z M1431.349,504.62L1431.349,504.62
	l-0.012,0.002l-0.015-0.01l-0.002-0.009l0.005-0.008l0.004-0.008l0.007,0.014l0.009,0.013L1431.349,504.62z M1430.947,504.476
	l0.001,0.002l-0.015-0.035l0,0l0.009,0.005L1430.947,504.476z M1430.892,504.277l0.005,0.015l-0.016-0.014l-0.007-0.016l-0.01-0.036
	v0.001L1430.892,504.277z M1430.659,504.947l0.009,0.022l-0.006-0.002l-0.003-0.021V504.947z M1429.447,508.355l0.005,0.013
	l-0.017,0.024l-0.001,0.001l-0.006-0.001l-0.001,0.001l0,0l-0.005-0.014l-0.011-0.013h0.015l0.007-0.004l0.004-0.004l0.007-0.002
	L1429.447,508.355L1429.447,508.355z M1430.079,503.835L1430.079,503.835l-0.022,0.015l-0.014,0.01l-0.013-0.003l-0.003-0.018
	l-0.003-0.019L1430.079,503.835z M1429.829,504.29L1429.829,504.29l-0.01-0.023h0.001l0.009,0.009V504.29z M1429.487,503.436
	l0.143,0.103l0.05,0.081l0.027,0.1l-0.047,0.127l-0.038,0.05l-0.153,0.224l-0.028-0.012l0.135-0.432l-0.014-0.054l-0.084-0.055
	l-0.116-0.073l-0.047-0.088l0.043-0.027l0.046,0.018L1429.487,503.436z M1428.397,506.5l-0.005,0.018l-0.008,0.004l-0.012-0.003
	l-0.014,0.002l0.001-0.001l0.013-0.007l0.007-0.009l0.007-0.005L1428.397,506.5z M1428.36,506.615L1428.36,506.615l-0.01,0.017
	l-0.03,0.027l0.04-0.068l0,0V506.615z M1428.841,502.991l0.007,0.021l-0.007,0.016v0.002v-0.041V502.991z M1428.786,502.882
	l0.002,0.014l-0.017,0.006l0,0l-0.006-0.005l-0.006-0.011l-0.01-0.012l0.001,0l0.013,0.004h0.014l0,0L1428.786,502.882z
	 M1428.781,502.732L1428.781,502.732l-0.004,0.007l-0.004,0.01h-0.001l-0.023,0.005l-0.005-0.009l0.005-0.013l-0.002-0.015v0.001
	l0.013,0.007l0.013,0.002h0.001L1428.781,502.732z M1428.7,502.528l0.002,0.013l-0.015,0.006l-0.008-0.005l-0.006-0.011
	l-0.011-0.011h0.002l0.014,0.004h0.014L1428.7,502.528z M1428.498,502.303L1428.498,502.303l-0.011-0.034l0.011,0.015V502.303z
	 M1427.396,506.341l0.088,0.03l-0.016,0.037l-0.003,0.01l-0.053,0.007L1427.396,506.341z M1428.388,502.243l0.017,0.021
	l-0.014-0.004L1428.388,502.243L1428.388,502.243z M1427.801,503.994l0.052,0.011l-0.015,0.016l-0.011-0.003l0,0l-0.01-0.011
	L1427.801,503.994z M1427.291,502.82l0.002,0.015l-0.007,0.002l-0.01,0.004l-0.008-0.006l-0.005-0.01l-0.01-0.012h0.002l0.013,0.004
	h0.014L1427.291,502.82z M1426.998,503.612l0.002,0.014l-0.016,0.006l-0.008-0.006l-0.005-0.011l-0.011-0.011l0.002,0.001
	l0.014,0.003l0.013,0.001L1426.998,503.612z M1426.636,503.014l0.001,0.015l-0.004,0.001l-0.012,0.005l-0.007-0.006l-0.005-0.011
	l-0.011-0.012l0,0l0.016,0.004v0.001h0.013l0,0L1426.636,503.014z M1424.986,505.622L1424.986,505.622l-0.053-0.017l-0.018-0.021
	v-0.02l0.003-0.019l0,0L1424.986,505.622z M1424.818,505.852l0.004,0.011l-0.008,0.018h-0.001L1424.818,505.852L1424.818,505.852z
	 M1425.174,502.877l-0.007,0.061l-0.021-0.02l0.001-0.014l0.015-0.011L1425.174,502.877z M1424.076,505.73v0.002l-0.01-0.009
	l-0.004-0.016L1424.076,505.73z M1424.084,505.645l0.002,0.001l-0.015-0.023h0.001l0.01,0.006l0.002,0.001v0.009V505.645z
	 M1423.785,504.868l-0.001,0.013l-0.014-0.024h0.001L1423.785,504.868z M1423.754,504.813l-0.004,0.021l-0.018,0.01l-0.007-0.006
	l-0.003-0.011l-0.01-0.011h0.002h0.016l0.015-0.005L1423.754,504.813z M1423.634,504.568L1423.634,504.568l-0.014-0.024l0.016,0.006
	L1423.634,504.568z M1423.585,504.444l0.014-0.018v0.001l-0.009,0.017l-0.016,0.014l0.002-0.001L1423.585,504.444z
	 M1422.881,505.718L1422.881,505.718l-0.014-0.023h0.001l0.012,0.009L1422.881,505.718z M1423.232,504.203l0.003,0.021l-0.015-0.023
	L1423.232,504.203z M1423.742,502.201L1423.742,502.201l-0.01,0.018l0.003-0.034v0.001L1423.742,502.201z M1423.697,501.688
	l-0.002,0.03l-0.022,0.038v0.001l-0.01-0.037l-0.001-0.036l0.004-0.034l0.007-0.031L1423.697,501.688z M1422.898,504.226
	l0.012,0.023l-0.008-0.001l-0.006-0.023L1422.898,504.226z M1423.355,502.291L1423.355,502.291l-0.004-0.018l0,0l0.003-0.007
	l0.004-0.009v0.001L1423.355,502.291z M1423.449,501.349l0.006,0.014l-0.01,0.021L1423.449,501.349L1423.449,501.349z
	 M1423.413,501.276L1423.413,501.276l-0.005-0.021l0.008-0.016l0,0L1423.413,501.276z M1422.384,505.026v0.016l-0.015-0.024
	L1422.384,505.026z M1422.993,502.563l0.002,0.011l-0.014,0.014l-0.008-0.001l-0.008-0.008l-0.011-0.005h0.002l0.014-0.003
	l0.014-0.007L1422.993,502.563z M1422.815,502.971l0.011-0.006v-0.001l0.003-0.017l0,0l0.001-0.001l0.003-0.01l0,0l0.013,0.01
	l-0.007,0.055v0.001l-0.018,0.003l-0.003-0.01l0.003-0.015L1422.815,502.971z M1423.159,501.253l0.002,0.001l-0.157-0.014
	l-0.026-0.018l0.049-0.017h0.048l0,0l0.045,0.017L1423.159,501.253z M1422.524,502.767v0.002l-0.007-0.019l0.01-0.017
	L1422.524,502.767z M1422.665,501.677l0.005,0.016l-0.009,0.019L1422.665,501.677z M1422.377,502.633v0.002l-0.026-0.021
	l0.003,0.001l0.018,0.004L1422.377,502.633z M1421.864,504.593l0.006,0.01l-0.029,0.004h-0.001l-0.007-0.007l0.005-0.016v-0.016
	h0.001l0.007,0.01L1421.864,504.593z M1421.75,504.927v0.011l-0.023,0.001l0,0l-0.005-0.009l0.003-0.013l-0.001-0.014h0.001
	l0.008,0.011l0.011,0.005L1421.75,504.927z M1421.716,504.503L1421.716,504.503l-0.02,0.001h-0.005l0,0l-0.005-0.008l0.003-0.012
	v-0.016l0.008,0.011l0.011,0.005l0.008,0.007V504.503z M1421.52,505.211l0.002,0.011l-0.026,0.002l0,0l-0.004-0.007l0.003-0.013
	l-0.001-0.017l0.01,0.011l0.01,0.006L1421.52,505.211z M1422.051,501.952l0.005,0.02l-0.008,0.015l-0.002,0L1422.051,501.952z
	 M1421.033,504.303L1421.033,504.303l-0.023,0.001l-0.005-0.008l0.003-0.014l-0.001-0.016h0.001l0.008,0.013l0.011,0.005
	l0.006,0.006L1421.033,504.303z M1420.7,504.227l0.001,0.012l-0.024,0.001l0,0l-0.004-0.008l0.002-0.014v-0.016l0,0l0.008,0.012
	l0.011,0.007L1420.7,504.227z M1420.462,504.199l0.009,0.013l0.013,0.007l0.008,0.007l-0.003,0.014l-0.028-0.002l0,0l-0.006-0.009
	l0,0l0.002-0.003l0.005-0.01L1420.462,504.199z M1420.887,502.05l0.105,0.097h-0.001l-0.003,0.004l0,0l-0.001,0.001l-0.033-0.026
	l-0.071-0.079L1420.887,502.05z M1420.158,504.251L1420.158,504.251l-0.04-0.033l0.028,0.012L1420.158,504.251z M1420.599,502.019
	l0.011,0.025l-0.023,0.017l-0.011-0.007l-0.008-0.018l-0.017-0.017h0.002l0.018,0.003l0.016-0.005L1420.599,502.019
	L1420.599,502.019z M1419.916,504.231L1419.916,504.231l-0.018,0.011l-0.01,0.006l-0.011-0.003l-0.003-0.018l-0.007-0.018l0,0
	L1419.916,504.231z M1420.428,501.685v0.002l-0.033-0.041l-0.011-0.028l0.003-0.019l0.01-0.018v0.001L1420.428,501.685z
	 M1419.651,504.211L1419.651,504.211l-0.022,0.015h-0.02l-0.039-0.021h0.002L1419.651,504.211z M1420.015,501.604l0.003,0.014
	l-0.023,0.012l-0.008-0.007l-0.003-0.016l-0.006-0.016l0.001,0.001l0.014,0.007l0,0l0.014,0.003L1420.015,501.604z
	 M1418.947,504.226l0.065,0.027l-0.042,0.014l0,0l-0.016-0.008L1418.947,504.226z M1419.598,501.72l0.076-0.012l-0.035,0.041
	l-0.02,0.008L1419.598,501.72z M1418.875,504.313l0.006,0.005l-0.007,0.006l-0.007,0.008l-0.023-0.006l-0.002-0.007l0.01-0.01
	l0.005-0.015l0.001,0.001l0.007,0.012L1418.875,504.313z M1418.774,502.313l0.019,0.014l-0.006,0.02L1418.774,502.313
	L1418.774,502.313z M1418.634,502.295l0.001,0.003l-0.011-0.016l-0.002-0.02l0.001,0.002L1418.634,502.295z M1418.476,502.419
	l-0.001,0.021l-0.012-0.034l0,0L1418.476,502.419z M1418.424,502.134v0.001l-0.016-0.006l-0.005-0.008l-0.003-0.01l-0.003-0.013
	v0.001l0.011,0.011l0.01,0.007l0.007,0.006L1418.424,502.134z M1418.238,502.355l0.013,0.032l-0.011-0.014L1418.238,502.355
	L1418.238,502.355z M1418.22,502.047l0.054,0.031l-0.026,0.008l-0.012-0.006l-0.006-0.016l-0.012-0.017H1418.22z M1417.709,503.324
	l0.001,0.001l-0.009-0.012l-0.002-0.021v0.001L1417.709,503.324z M1417.946,502.131l0.011,0.024l-0.023,0.017l-0.011-0.007
	l-0.008-0.019l-0.016-0.015l0.019,0.001l0.016-0.004L1417.946,502.131z M1417.489,502.716L1417.489,502.716l-0.012-0.035
	l0.013,0.017L1417.489,502.716z M1417.594,502.24v0.002V502.24l-0.037-0.045h0.001l0.028,0.02L1417.594,502.24z M1417.305,502.927
	v0.002l-0.012-0.034l0.001,0.001l0.013,0.014L1417.305,502.927z M1417.388,502.227l0.021,0.011l-0.017,0.03h-0.001l-0.011,0.002
	l-0.012-0.014l-0.017-0.01h0.001l0.016-0.003l0.005-0.005l0.004-0.005L1417.388,502.227z M1417.23,502.667l0.002,0.002l-0.01-0.013
	l-0.003-0.021l0.001,0.002L1417.23,502.667z M1416.904,503.548l0.01,0.007l-0.012,0.025l-0.01,0.001l-0.01-0.009l-0.009-0.005l0,0
	l0.014-0.005l0.001-0.001l0.008-0.008l0.002-0.002L1416.904,503.548z M1417.208,502.265l0.007,0.016l0.008,0.01l0.003,0.009
	l-0.007,0.009l-0.014-0.008l-0.002-0.01l0.004-0.012L1417.208,502.265z M1416.898,503.132l0.012,0.007l-0.012,0.026h-0.01
	l-0.01-0.008l-0.009-0.006l0.015-0.004l0.007-0.01L1416.898,503.132z M1416.154,504.905l0.006-0.008l0.002-0.009l0,0l0.009,0.014
	l0.011,0.012l0.003,0.009l-0.013,0.003l-0.017-0.011L1416.154,504.905z M1416.34,503.668l0.01,0.008l-0.012,0.023h-0.002
	l-0.009,0.002l-0.009-0.008l-0.01-0.006l0.015-0.006l0.009-0.009l0.004-0.002l0.002-0.002H1416.34z M1416.544,502.929l0.001,0.001
	l-0.033-0.042l0.024,0.021L1416.544,502.929z M1416.259,503.706l0.01,0.009l-0.012,0.023h-0.002l-0.008,0.003l-0.01-0.01
	l-0.009-0.005l0.015-0.006l0.008-0.008l0.005-0.003L1416.259,503.706L1416.259,503.706z M1415.752,503.21l0.006,0.007l-0.009,0.01
	l-0.024-0.012l-0.002-0.009h0.001l0.008-0.008l0.005-0.009l0.007,0.013L1415.752,503.21z M1415.688,503.375L1415.688,503.375
	l-0.011,0.024h-0.011l-0.008-0.007l-0.011-0.006l0.015-0.005l0.008-0.009l0.008-0.005L1415.688,503.375z M1415.741,502.789
	l0.002,0.014l-0.009,0.003l-0.018,0.005l-0.008-0.005v-0.013l-0.003-0.011v0.001l0.013,0.006l0.014-0.001L1415.741,502.789
	L1415.741,502.789z M1415.523,502.666l0.006,0.006l-0.01,0.011l-0.024-0.012l-0.001-0.01l0,0l0.008-0.009l0.007-0.008l0.005,0.013
	L1415.523,502.666z M1415.289,502.439l0.028,0.052l-0.033-0.011l-0.005-0.012l0.005-0.014L1415.289,502.439z M1415.159,502.249
	L1415.159,502.249l-0.042-0.015l-0.012-0.018l0.004-0.038l0,0l0.019,0.018l0.019,0.013l0.012,0.014L1415.159,502.249z
	 M1414.771,502.491l0.002,0.013l-0.009,0.003l-0.018,0.006l-0.008-0.007v-0.011l-0.003-0.011l0,0l0.013,0.006l0,0h0.003l0.01-0.001
	L1414.771,502.491z M1414.559,503.145l0.005,0.007l-0.007,0.011h-0.002l-0.023-0.012l-0.003-0.011l0.01-0.008l0.005-0.009
	l0.005,0.013L1414.559,503.145z M1415.063,502.014v0.001l-0.082-0.047l-0.127-0.131l-0.092-0.064l0.004-0.027l0.01-0.005h0.001
	l0.014,0.003l0.018,0l0.151,0.121l0.064,0.063L1415.063,502.014z M1414.605,501.588L1414.605,501.588l-0.016,0.012l-0.039-0.014
	l0.035-0.082l0.02,0.05V501.588z M1414.24,502.609l0.005,0.006l-0.008,0.01l0,0l-0.025-0.011l-0.001-0.01l0.008-0.009l0.007-0.009
	v0.001l0.005,0.013L1414.24,502.609z M1414.441,501.792l0.005,0.007l-0.008,0.01l-0.024-0.012l-0.002-0.009l0,0l0.009-0.009
	l0.006-0.009l0.005,0.015L1414.441,501.792z M1414.17,502.696v0.001l-0.025,0.008l-0.008-0.008v-0.011l-0.003-0.011l0.013,0.007
	l0.014-0.001l0,0l0.009,0.002L1414.17,502.696z M1414.327,502.032l0.005,0.007l-0.004,0.006l-0.004,0.005l-0.024-0.014l-0.002-0.01
	l0.009-0.009l0,0l0.005-0.009l0.001,0.001l0.005,0.013L1414.327,502.032z M1414.095,502.756L1414.095,502.756l-0.007,0.009
	l-0.001,0.001l-0.002,0.001l-0.022-0.012l-0.003-0.011l0.01-0.009l0.006-0.008l0.004,0.013l0.01,0.009L1414.095,502.756z
	 M1414.112,501.907l0.002,0.014l-0.025,0.009l-0.009-0.006v-0.012l-0.003-0.011l0,0l0.015,0.007h0.013H1414.112L1414.112,501.907z
	 M1414.254,501.348l0.028,0.036l-0.05,0.003l-0.049-0.019l-0.049-0.03l-0.03-0.033l0.005-0.028l0,0l0.077,0.027L1414.254,501.348z
	 M1413.505,502.799l0.009,0.012l-0.03-0.017l0.004,0.001L1413.505,502.799z M1413.901,501.343L1413.901,501.343L1413.901,501.343
	l-0.002,0.004l-0.003,0.002l-0.056-0.011l-0.033-0.013l-0.015-0.016l0.004-0.025l0.105,0.051v0.005L1413.901,501.343z
	 M1413.279,502.947L1413.279,502.947l-0.029-0.016l0.018,0.005L1413.279,502.947z M1413.174,502.397l0.076,0.011l-0.033,0.015
	l-0.02-0.004l0,0l0,0L1413.174,502.397L1413.174,502.397z M1412.971,502.518l0.029,0.017l-0.018-0.001L1412.971,502.518
	L1412.971,502.518z M1412.718,502.667l0.05,0.02l-0.039,0.021l-0.011-0.003l0.001-0.019L1412.718,502.667L1412.718,502.667z
	 M1412.616,502.805l0.008,0.014l-0.028-0.015l0.009-0.001l0,0L1412.616,502.805z"/></svg>