<?xml version="1.0" encoding="utf-8"?>
<!-- Generator: Adobe Illustrator 15.0.0, SVG Export Plug-In . SVG Version: 6.00 Build 0)  -->
<!DOCTYPE svg PUBLIC "-//W3C//DTD SVG 1.1//EN" "http://www.w3.org/Graphics/SVG/1.1/DTD/svg11.dtd">
<svg version="1.1" id="Ebene_1" xmlns="http://www.w3.org/2000/svg" xmlns:xlink="http://www.w3.org/1999/xlink" x="0px" y="0px"
	 width="1920px" height="1080px" viewBox="0 0 1920 1080" enable-background="new 0 0 1920 1080" xml:space="preserve">

<path fill="#F4E0B6" stroke="#FFFFFF" d="M1319.493,381.552l0.047-0.103l0.034-0.053l0.036-0.029l0.056,0.007l0.074,0.078
	l0.195,0.033l0.107,0.081l0.104,0.099l0.366,0.22l0.377,0.404l0.21,0.182l0.048,0.02l0.047,0.008l0.095,0.005l0.023-0.006
	l0.047-0.029l0.021-0.002l0.039,0.021l0.021,0.028l0.019,0.031l0.027,0.025l0.099,0.069l0.049,0.026l0.065,0.014l0.055-0.003
	l0.104-0.029l0.055,0.004l0.107,0.061l0.205,0.175l0.129,0.111l0.321,0.113l0.122,0.106l0.037,0.019l0.039,0.004l0.04-0.01
	l0.079-0.053l0.185-0.032l0.065-0.067l0.045-0.06l0.063-0.044l0.142-0.058l0.171-0.045l0.178-0.02l0.08-0.018l0.163-0.059
	l0.082-0.018l0.083,0.006l0.204,0.042l0.193,0.014l0.09,0.021l0.088,0.033l0.088,0.045l0.189,0.135l0.328,0.311l0.188,0.125
	l0.093,0.062l0.048,0.017l0.061,0.003l0,0l0.184,0.093l0.197,0.201l0.133,0.219l-0.014,0.146l-0.072,0.047l-0.112,0.121
	l-0.068,0.048l-0.051,0.014l-0.088,0.005l-0.044,0.01v0.013l-0.105,0.084l-0.02-0.001l0.002,0.085l0.079,0.169l-0.016,0.078
	l-0.059,0.072l-0.042,0.069l0.009,0.064l0.093,0.06l0.065,0.054l0.017,0.076l-0.025,0.073l-0.062,0.045l-0.054,0.064l0.01,0.107
	l0.025,0.06l0.057,0.137l0.034,0.189l-0.074,0.146l-0.243,0.274l-0.054,0.132l-0.024,0.153l0.007,0.158l0.043,0.148l0.056,0.073
	l0.152,0.136l0.032,0.069l-0.023,0.059l-0.121,0.168l-0.048,0.049l-0.069,0.022l-0.079,0.009l-0.055,0.034l0.01,0.152l-0.027,0.251
	l-0.078,0.116l-0.15,0.066l-0.175,0.028l-0.147,0.003v0.001l0,0l-0.243-0.019l-0.08-0.021l-0.093-0.014l-0.009,0.053l0.036,0.081
	l0.103,0.179l0.027,0.071l0.018,0.187l0.014,0.141l0.047,0.166l0.095,0.08l0.074,0.117l0.044,0.132l0.005,0.127l-0.016,0.04
	l-0.095,0.143l-0.006,0.066l0.04,0.048l0.049,0.048l0.023,0.059l-0.035,0.079l-0.251,0.264l-0.198,0.269l-0.071,0.075v0.001
	l-0.08,0.042l-0.066,0.046l-0.052,0.061l-0.039,0.083l-0.085,0.125l-0.203,0.237l-0.077,0.123l-0.009,0.04l-0.011,0.103
	l-0.011,0.032l-0.04,0.021l-0.067-0.019l-0.04,0.022l-0.031,0.073l-0.008,0.103l0.016,0.191l0.037,0.122l0.002,0.035l-0.02,0.045
	l-0.026,0.022l-0.026,0.015l-0.022,0.026l-0.035,0.063l-0.009,0.028l-0.004,0.007l-0.018,0.106l-0.018,0.026l-0.024,0.017
	l-0.255,0.259l-0.073,0.125l0.01,0.18l-0.014,0.112l0.024,0.095l0.178,0.395l0.031,0.117l-0.005,0.078l-0.034,0.023l-0.038-0.003
	l-0.042-0.012l-0.041-0.004l-0.04,0.027l0.002,0.048l0.007,0.052l-0.021,0.038l-0.237,0.191l-0.088,0.041l-0.178-0.005l-0.341-0.147
	l-0.169-0.016l-0.088,0.041l-0.269,0.301l-0.026,0.045l0.046,0.408l0.054,0.235l0.044,0.193l0.004,0.091l-0.043,0.078l-0.022,0.079
	l0.046,0.097l0.057,0.089l0.008,0.013l0.034,0.092l0.007,0.175l-0.016,0.07l-0.203,0.394l-0.161,0.094l-0.163-0.053l-0.146-0.031
	l-0.112,0.158l-0.015,0.108l0.032,0.292l-0.037,0.115l-0.066-0.013l-0.07-0.029l-0.056,0.067l-0.021,0.057l-0.028,0.053l-0.076,0.09
	l-0.095,0.01l-0.104-0.006l-0.106,0.037l-0.079,0.086l-0.126,0.208l-0.087,0.089v0.001l-0.086,0.024l-0.032,0.067l0.008,0.085
	l0.029,0.077l-0.014,0.052l-0.273,0.514l-0.052,0.047l-0.107-0.008l-0.099-0.077l-0.092-0.103l-0.092-0.081l-0.181-0.088
	l-0.184-0.051l-0.188-0.016l-0.188,0.018l-0.187,0.065l-0.121,0.107l-0.55,1.259l-0.083,0.081l-0.135,0.048l-0.1,0.015l-0.059,0.047
	l-0.015,0.148l-0.023,0.04l-0.126,0.011l-0.055,0.028l-0.068,0.098l-0.039,0.041l-0.051,0.03l-0.092-0.009l-0.037,0.076l0.012,0.105
	l0.204,0.327l0.036,0.12l-0.031,0.15l-0.077,0.175l-0.034,0.055l0.002,0.004l0.001,0.113l-0.04,0.221l0.011,0.103l0.085-0.015
	l0.168-0.085l0.048,0.003l0.053-0.001l0.037,0.015l0.005,0.051l0.013,0.034l0.035,0.048l-0.007,0.004l-0.028,0.018l-0.124,0.19
	l-0.478,0.538l-0.201,0.301l-0.191,0.49l-0.115,0.439l0.009,0.136l0.038,0.041l0.057,0.03l0.057,0.01l0.106-0.04l0.055,0.027
	l0.051,0.053l0.111,0.15l0.052,0.104l0.023,0.108l-0.022,0.106l-0.062,0.097l-0.059,0.03l-0.074,0.006l-0.104,0.021l-0.074,0.037
	l-0.237,0.171l-0.107,0.151l-0.143,0.578l-0.144,0.274l-0.164,0.177l-0.064,0.106l-0.188,0.574l-0.137,0.065l-0.193-0.015
	l-0.366-0.084l-0.197-0.009l-0.142,0.039l-0.017,0.023l-0.063,0.09l-0.019,0.645l-0.064,0.42l-0.099,0.165l-0.3,0.169l-0.261,0.307
	l-0.567,0.41l-0.128,0.18l-0.063,0.066l-0.107,0.057l-0.097,0.069l-0.005,0.005l-0.062,0.098l-0.087,0.234l0.018,0.162l0.148,0.267
	l0.038,0.134l-0.044,0.127l-0.106,0.105l-0.123,0.099l-0.186,0.192l-0.23,0.122l-0.104,0.073l-0.065,0.099l-0.116,0.221
	l-0.089,0.069l0,0l-0.001,0.001l-0.104,0.028l-0.087,0.073l-0.308,0.348l-0.071,0.053l-0.05,0.003l-0.052-0.015l-0.073-0.003
	l-0.105,0.028l-0.104,0.055l-0.093,0.076l-0.063,0.096l-0.013,0.076l0.036,0.047l0.053,0.043l0.044,0.065l0.012,0.08l-0.011,0.084
	l-0.035,0.043l-0.063-0.041l-0.039,0.071l-0.044,0.017l-0.034-0.034l-0.007-0.082l-0.132,0.021l-0.358,0.168l-0.149,0.013
	l-0.31-0.012l-0.138,0.056l-0.084,0.091l-0.211,0.442l-0.101,0.208l-0.062,0.015l-0.062-0.015l-0.056-0.002l-0.044,0.045
	l0.001,0.083l-0.028,0.091l-0.043,0.088l-0.043,0.068l-0.082,0.067l-0.073-0.003l-0.073-0.02l-0.082,0.01l-0.046,0.058l-0.056,0.195
	l-0.04,0.083l-0.066,0.063l-0.219,0.116l-0.068,0.061l-0.079,0.135l-0.058,0.068l-0.07,0.029l-0.186,0.032l-0.056,0.045l-0.08,0.167
	l-0.047,0.072l-0.063,0.069l-0.048,0.017l-0.044-0.02l-0.039-0.024l-0.031,0.004l-0.032,0.101l-0.026,0.08l0.02,0.114l0.052,0.073
	l0.078,0.045l0.313,0.081l0.057,0.048l-0.072,0.076l-0.272,0.117l-0.069,0.069l-0.032,0.094l-0.005,0.101l-0.016,0.098l-0.062,0.083
	l-0.076,0.03l-0.273,0.037l-0.037,0.025l-0.044,0.079l-0.028,0.033l-0.046,0.023l-0.091,0.02l-0.039,0.015l-0.066,0.063
	l-0.075,0.158l-0.055,0.081l-0.067,0.05l-0.233,0.084l-0.126,0.123l-0.02,0.039l-0.041,0.082l-0.088,0.063l-0.201-0.049
	l-0.095-0.042l-0.082-0.048l-0.07-0.063l-0.061-0.09l-0.029-0.096l-0.013-0.093l-0.026-0.088l-0.07-0.074h-0.001l-0.16-0.047
	l-0.199-0.125l-0.153-0.166l-0.019-0.173l0.032-0.077l0.03-0.099l0.004-0.101l-0.046-0.084l-0.076-0.017l-0.221,0.001l-0.063-0.053
	l0.015-0.085l0.059-0.043l0.022-0.042l-0.281-0.222l-0.105-0.063l-0.092-0.023l-0.037,0.024l-0.011,0.044l-0.019,0.039l-0.057,0.007
	l-0.201-0.042l-0.186,0.038l-0.09,0.003l-0.077-0.052l-0.02-0.064l0.002-0.154l-0.035-0.045l-0.057-0.039l-0.021-0.044l-0.015-0.054
	l-0.035-0.063l-0.001-0.001l-0.035-0.12l-0.022-0.056l-0.033-0.05l-0.024-0.011l-0.03,0.001l-0.03-0.004l-0.027-0.031l-0.011-0.033
	l-0.011-0.07l-0.009-0.033l-0.074-0.148l-0.081-0.096l-0.102-0.048l-0.136-0.006l-0.146,0.015l-0.132-0.003l-0.121-0.047
	l-0.109-0.121l-0.051-0.158l0.018-0.307l-0.043-0.129l-0.194-0.344l-0.116-0.163l-0.151-0.129l-0.068-0.072l-0.014-0.083
	l0.032-0.176l0.001-0.099l-0.017-0.073l-0.064-0.162l-0.05-0.206l-0.031-0.064l-0.155-0.216l-0.04-0.088l-0.104-0.354l-0.096-0.14
	l-0.144,0.012l-0.037-0.087l-0.062-0.114l-0.025-0.092l0.071-0.024l0.097-0.012l0.041-0.074v-0.349l0.009-0.037l0.052-0.034
	l0.097-0.029l0.107-0.018h0.169l0.188-0.046l0.081-0.007l0.221,0.033l0.01,0.001l0.061-0.043l0.01-0.135l0.029-0.11l0.15-0.181
	l0.015-0.11l-0.054-0.074l-0.133-0.043l-0.021-0.079l0.001-0.09l-0.017-0.056l-0.008-0.009l-0.032-0.033l-0.066-0.046l-0.034-0.006
	l-0.084,0.01l-0.033-0.017l-0.018-0.062l0.017-0.074l0.025-0.074l0.009-0.062l-0.022-0.092l-0.049-0.078l-0.067-0.063l-0.14-0.077
	l-0.068-0.092l-0.04-0.033l-0.042-0.012l-0.084,0.001l-0.043-0.009l-0.165-0.059l-0.069-0.044l-0.054-0.075l-0.058-0.048
	l-0.077-0.018l-0.057-0.035l0.003-0.101l0.057-0.074l0.194-0.113l0.071-0.076l0.053-0.114l-0.002-0.059l-0.164-0.119l-0.031-0.037
	l-0.01-0.042l0.012-0.093l-0.007-0.071l-0.032-0.04l-0.036-0.03l-0.021-0.04l0.019-0.108l0.056-0.088l0.389-0.471l0.051-0.091
	l0.015-0.109l-0.003-0.109l0.014-0.104l0.133-0.167l0.034-0.161l0.042-0.084l0.038-0.031l0.085-0.029l0.035-0.022l0.02-0.042
	l-0.002-0.049l-0.007-0.052v-0.048l0.044-0.197l0.04-0.103l0.054-0.059l0.078,0.007l0.253,0.15l0.127,0.034l0.097-0.02l0.076-0.065
	l0.072-0.104l0.079-0.048l0.084,0.055l0.146,0.173l0.065,0.019l0.106,0.007l0.108-0.007l0.063-0.022l0.04-0.09l-0.005-0.092
	l0.01-0.089l0.175-0.163l0.039-0.088l0.027-0.092l0.053-0.094l0.039-0.027l0.093-0.025l0.037-0.028l0.032-0.071l0.01-0.074
	l0.021-0.07l0.061-0.054l0.086-0.034l0.086-0.049l0.078-0.063l0.064-0.071l0.123-0.199l0.065-0.065l0.487-0.207l0.073-0.061
	l0.013-0.049l-0.002-0.103l0.018-0.046l0.046-0.042l0.038,0.013l0.04,0.037l0.052,0.034l0.092-0.014l0.271-0.206l0.141-0.042
	l0.057-0.034l0.042-0.045l0.032-0.049l0.04-0.037l0.065-0.011l0.103-0.034l-0.003-0.106l-0.042-0.128l-0.009-0.102l0.028-0.036
	l0.089-0.041l0.036-0.029l0.019-0.044l0.015-0.106l0.023-0.05l0.274-0.187l0.058-0.019l0.131-0.021l0.047-0.036l0.014-0.068
	l-0.042-0.045l-0.063-0.037l-0.042-0.04l-0.004-0.036l0.007-0.129l0.018-0.11l0.018-0.054l0.032-0.046l0.061-0.046l0.028-0.008
	l0.066,0.006l0.024-0.005l0.029-0.028l0.045-0.069l0.027-0.028l0.126-0.071l0.071-0.016l0.073,0.013l0.034,0.03l0.019,0.036
	l0.024,0.035l0.054,0.027l0.123-0.041l0.022-0.312l0.146-0.083l0.088,0.017l0.065,0.037l0.061,0.012l0.141-0.1l0.055,0.008
	l0.055,0.026l0.071,0.001l0.061-0.038l0.041-0.049l0.047-0.035l0.145,0.006l0.053-0.036l0.08-0.11l0.07-0.062l0.083-0.019
	l0.188,0.019l0.104,0.026l0.049,0.005l0.046-0.016l0.037-0.048l0.044-0.111l0.05-0.036l0.044-0.043l0.08-0.175l0.021-0.065
	l-0.007-0.082l-0.002-0.005l-0.057-0.057l-0.075-0.048l-0.068-0.061l-0.057-0.122l-0.006-0.122l0.027-0.119l0.04-0.111l0.016-0.107
	l-0.036-0.233v-0.118l-0.006-0.038l-0.053-0.061l-0.016-0.036l0.001-0.152l0.012-0.088l0.016-0.057l0.026-0.051l0.032-0.036
	l0.043-0.014l0.065,0.01l-0.013-0.066v-0.063l0.026-0.048l0.059-0.024l0.073-0.043l0.008-0.084l-0.008-0.097l0.023-0.08l0.056-0.027
	l0.134,0.016l0.059-0.014l0.029-0.057l0.01-0.076l0.023-0.059l0.073-0.005l0.069,0.056l0.058,0.086l0.065,0.07l0.097,0.004
	l0.115-0.069l0.04-0.016h0.049l0.153,0.024l0.084-0.084l0.057-0.09l0.072-0.029l0.369,0.249l0.146-0.041l0.077-0.023l0.183-0.189
	l0.138-0.289l0.035-0.048l0.049-0.034l0.135-0.036l0.099-0.071l0.053-0.023l0.231,0.005l0.106-0.029l0.06-0.102l0.024-0.105
	l0.05-0.068l0.06-0.06l0.052-0.08l0.104-0.239l0.031-0.034l0.093-0.016l0.042-0.02l0.053-0.079l0.037-0.08l0.053-0.041l0.21,0.097
	l0.054-0.046l0.063-0.205l0.063-0.073l0.153-0.077l0.077-0.06l0.037-0.05l0.02-0.053l0.049-0.256l0.022-0.051l0.04-0.067
	l0.019-0.047l-0.001-0.049l-0.021-0.045l-0.096-0.093l-0.021-0.036l-0.033-0.157v-0.046l-0.007-0.043l-0.03-0.043l-0.069-0.07
	l-0.033-0.043l-0.019-0.039l0.005-0.111l0.055-0.079l0.148-0.132l0.119-0.2l0.063-0.013l0.221,0.127l0.034,0.026l0.036,0.042
	l0.015,0.041l0.01,0.088l0.028,0.039l0.024,0.015l0.088,0.03l0.057,0.048l0.035,0.138l0.039,0.043l0.264,0.048l0.092,0.03
	l0.135,0.063l0.059,0.028l0.077-0.011l0.079-0.081l0.029-0.112l-0.019-0.105l0.005-0.092l0.158-0.106l0.05-0.072l0.04-0.082
	l0.023-0.072l0.001-0.066l-0.022-0.144l0.005-0.056l0.041-0.05l0.051-0.028l0.046-0.037l0.026-0.075l-0.013-0.079l-0.081-0.141
	l-0.02-0.075l0.015-0.074l0.04-0.061l0.093-0.112l0.008-0.104l0.024-0.105l0.037-0.101l0.047-0.089l0.079-0.073l0.072-0.042
	l0.013-0.059l-0.142-0.178l-0.019-0.045l-0.009-0.106l-0.019-0.039l-0.041-0.019l-0.044-0.014l-0.035-0.026l0.005-0.066l0.106,0.011
	l0.209,0.058l0.137-0.033l0.123-0.052l0.109-0.073l0.099-0.094l0.131-0.173l0.077-0.079l0.088-0.044l0.053-0.001l0.108,0.011
	l0.114-0.047l0.046,0.005l0.044,0.021l0.057,0.016l0.117-0.001l0.075-0.027l0.167-0.117l0.1-0.029l0.09,0.03l0.089,0.05l0.096,0.034
	l0.128-0.014l0.047-0.071l0.028-0.216l0.038-0.109l0.001-0.014l0.003-0.034l-0.012-0.072l-0.098-0.184l-0.013-0.031l-0.05-0.014
	l-0.037,0.012l-0.035,0.021l-0.041,0.011l-0.052-0.014l-0.037-0.027l-0.038-0.012l-0.052,0.026l0,0l0,0l0,0l-0.04,0.037
	l-0.029-0.002l-0.027-0.018l-0.039-0.012l-0.074-0.045l-0.023-0.012l-0.041,0.002l-0.082,0.029l-0.048-0.008l-0.278-0.511
	l0.037-0.084l0.103-0.017l0.115,0.032l0.087,0.058l0.07,0.064l0.046,0.004l0.043-0.022l0.061-0.016l0.143,0.011l0.063-0.013
	l0.05-0.056h0.001l0.002-0.002l0.045-0.083l0.03-0.089l0.04-0.079l0.069-0.059l0.149-0.067l0.038-0.034l0.019-0.042l-0.006-0.041
	l-0.009-0.042l0.003-0.043l0.028-0.035l0.153-0.115l0.053-0.077l0.011-0.063l-0.041-0.189l-0.024-0.111l-0.055-0.083l-0.081-0.056
	l0,0l-0.108-0.033l-0.083-0.024l-0.047-0.045l-0.037-0.052l-0.055-0.054l-0.067-0.033l-0.074-0.025l-0.066-0.034l-0.042-0.059
	l0.006-0.075l0.055-0.048l0.067-0.045l0.045-0.06v-0.07l-0.059-0.126l-0.013-0.064l0.024-0.08l0.053-0.077l0.067-0.066l0.067-0.046
	l0.061-0.001l0.135,0.06l0.07-0.015l0.075-0.121l0.062-0.319l0.119-0.095h0.002l0.121-0.004l0.094-0.049l0.063-0.083l0.036-0.112
	l0.01-0.14l-0.002-0.058l-0.002-0.032l0.021-0.075l0.089-0.092l0.169-0.099l0.354-0.152l0.127-0.149l0.032-0.115l0.027-0.234
	l0.122-0.239l-0.035-0.121l-0.061-0.124l-0.014-0.137l0.049-0.087l0.059,0.039l0.066,0.075l0.07,0.021l0.016-0.079l-0.016-0.427
	v-0.185l0.01-0.079l0.043-0.081l0.027-0.014l0.041-0.005l0.043-0.013l0.035-0.029l0.019-0.073l-0.038-0.159l-0.004-0.073
	l0.041-0.101l0.049-0.073l0.057-0.087l0.017-0.119l-0.029-0.149l-0.065-0.13l-0.093-0.116l-0.112-0.107l-0.061-0.073l0.002-0.05
	l0.064-0.073l0.092-0.343l0.024-0.043l0.064-0.081l0.022-0.051l0.004-0.062l-0.02-0.129l0.007-0.054l0.054-0.091l0.14-0.162
	L1319.493,381.552z"/></svg>