<?xml version="1.0" encoding="utf-8"?>
<!-- Generator: Adobe Illustrator 15.0.0, SVG Export Plug-In . SVG Version: 6.00 Build 0)  -->
<!DOCTYPE svg PUBLIC "-//W3C//DTD SVG 1.1//EN" "http://www.w3.org/Graphics/SVG/1.1/DTD/svg11.dtd">
<svg version="1.1" id="Ebene_1" xmlns="http://www.w3.org/2000/svg" xmlns:xlink="http://www.w3.org/1999/xlink" x="0px" y="0px"
	 width="1920px" height="1080px" viewBox="0 0 1920 1080" enable-background="new 0 0 1920 1080" xml:space="preserve">

<path fill="#F4E0B6" stroke="#FFFFFF" d="M293.355,110.297l-0.032-0.035l0.033-0.072l0.013-0.082l0.002-0.155l0.035-0.198
	l0.036-0.098l0.118-0.059l0.14-0.014l0.102,0.032l0.034,0.063l0.052,0.134l0.038,0.149l-0.007,0.118l-0.052,0.143l-0.027,0.105
	l-0.035,0.091l-0.084,0.095l-0.143-0.005l-0.071-0.012l-0.063-0.035l-0.039-0.05L293.355,110.297z M296.027,106.818l-0.061-0.033
	l-0.013-0.113l0.011-0.267l0.02-0.109l0.195-0.334l0.028-0.075l-0.02-0.115l0.006-0.05l0.029-0.032l0.056-0.042l0.033-0.058
	l0.02-0.051l0.014-0.025l0.038-0.032l0.205-0.292l0.05-0.046l0.077-0.039l0.137-0.049l0.135-0.023l0.071,0.04l0.038,0.032
	l0.068-0.028l0.117-0.075l0.067-0.003l0.052,0.007l0.045,0.025l0.048,0.047l0.053,0.102l0.048,0.218l0.061,0.077l-0.052,0.122
	l-0.07,0.035l-0.095,0.003l-0.121,0.025l-0.379,0.242l-0.066,0.08l-0.019,0.138l-0.003,0.153l-0.021,0.135l-0.048,0.219
	l-0.039,0.112l-0.014,0.134l-0.072-0.008l-0.264-0.108l-0.24,0.057L296.027,106.818z M300.55,103.342l0.025,0.243l0.006-0.005
	l0.019,0.022l0.02,0.035l0.012,0.028l-0.006,0.028l-0.048,0.015l-0.016,0.061l-0.029,0.046l-0.037,0.045l-0.035,0.027l-0.018-0.066
	l-0.162-0.327l-0.122,0.202l-0.047,0.039l-0.002,0.041l-0.044,0.212l-0.027,0.074l-0.044,0.207l-0.07,0.16l-0.106,0.123l-0.154,0.09
	l-0.146,0.006l-0.09-0.087l-0.075-0.098l-0.104-0.031l0.054-0.147l0.137-0.606l0.002-0.076l-0.041-0.059l-0.007-0.047l0.008-0.198
	l0.012-0.061l0.038-0.081l0.06-0.177l0.022-0.114l0.028-0.355l0.087-0.048l0.257-0.005l0.072-0.029l0.057-0.046l0.047-0.059
	l0.043-0.07l0.037-0.027l0.392-0.124l0.12-0.011l0.12,0.033l0.147,0.127l0.104,0.204l0.041,0.237l-0.05,0.233l-0.074,0.094
	l-0.101,0.067l-0.192,0.081l-0.09,0.072L300.55,103.342z M305.943,95.637l-0.028,0.044l0.076,0.08l0.141,0.383l0.003,0.103
	l-0.034,0.106l-0.031,0.027l-0.094,0.063l-0.016,0.033l0.001,0.054l-0.016,0.045l-0.069,0.093l-0.092,0.091l-0.1,0.08l-0.076,0.091
	l-0.018,0.127l-0.047,0.059l-0.093,0.092l-0.025,0.052v0.065l0.021,0.056l0.028,0.043l0.028,0.023l-0.09,0.049l-0.35-0.042
	l-0.147,0.012l-0.074-0.016l-0.044-0.067l-0.057-0.14l-0.016-0.007l-0.029-0.006l-0.03-0.016l-0.021-0.039l0.006-0.036l0.018-0.048
	l0.02-0.039l0.011-0.01l-0.172-0.381l-0.01-0.045l0.033-0.125l0.036-0.041l0.051-0.036l0.011-0.033l-0.085-0.032l0.044-0.025
	l0.049-0.048l0.044-0.026l-0.013-0.022l-0.003-0.002l-0.006,0.002l-0.02-0.004l0.003-0.054l-0.012-0.045l-0.024-0.031l-0.04-0.014
	l0.197-0.044l-0.007-0.037l-0.081-0.032l-0.056-0.079l-0.085-0.193l0.034-0.015l0.088,0.073l0.062,0.117l0.071,0.083l0.119-0.02
	l-0.037-0.038l-0.011-0.04l0.021-0.037l0.112-0.069l0.013-0.034l-0.003-0.04l0.005-0.053l0.027-0.115l-0.006-0.083l-0.032-0.066
	l-0.054-0.061l-0.048-0.025l-0.131-0.03l-0.041-0.025l-0.026-0.061l0.014-0.048l0.052-0.042l0.03-0.104l0.071-0.012l0.3,0.031
	l0.081,0.042l0.127,0.112l0.072,0.036l0.355,0.104l0.145,0.106l0.063,0.168l-0.028,0.045L305.943,95.637z M305.691,94.979
	l-0.07-0.02l0.171-0.059l0.192,0.119l0.112,0.19l-0.071,0.157l-0.038-0.065l-0.093-0.104l-0.034-0.072l-0.11-0.103L305.691,94.979z
	 M306.374,95.711l-0.046-0.083l0.051-0.165l0.11-0.121l0.159-0.038l0.039,0.056l-0.041,0.105l-0.091,0.114L306.374,95.711z
	 M308.452,94.633l-0.017-0.06l0.016-0.073l0.068,0.003l0.079,0.042l0.047,0.044l0.146,0.19l0.017,0.082l-0.004,0.152l-0.046-0.035
	l-0.106-0.12l-0.041-0.018l-0.041-0.008l-0.035-0.019L308.452,94.633z M309.567,95.627l-0.045-0.052l-0.011-0.1l0.012-0.072
	l0.043-0.038l0.081-0.001l0.116-0.056l0.106,0.076l0.041,0.149l-0.08,0.154L309.567,95.627z M311.131,92.446l-0.021,0.041
	l-0.024,0.028l-0.009,0.024l-0.04,0.063l-0.188,0.195l-0.036,0.081l-0.037,0.029l-0.084,0.051l-0.086,0.067l-0.041,0.072
	l0.014,0.045l0.076,0.075l0.024,0.055l0.001,0.056l-0.012,0.057l-0.016,0.05l-0.017,0.037l-0.072,0.1l-0.078,0.076l-0.058,0.082
	l-0.007,0.122l-0.026,0.033l-0.061,0.054l-0.054,0.084l-0.008,0.12l0.07,0.314l-0.017,0.156l-0.104,0.152l-0.046-0.066l-0.072,0.047
	l-0.08,0.072l-0.073,0.019l0.013-0.074l-0.036-0.049l0.1-0.388l0.073-0.137l0.024-0.117l0.01-0.13l-0.005-0.097l-0.095-0.23
	l-0.126-0.139l-0.092-0.15l0.003-0.269l0.027-0.095l0.12-0.245l0.045-0.058l0.155-0.051l0.053-0.04l0.055-0.126l0.041-0.071
	l0.048-0.019l0.071-0.003l0.207-0.077l0.092-0.011l0.047,0.021l0.035,0.027l0.043,0.015l0.072-0.018l0.052-0.025l0.036-0.025
	l0.079-0.066l-0.024,0.075l0.011,0.035l0.026,0.029l0.022,0.05L311.131,92.446z M311.519,93.362l-0.026-0.125l0.005-0.091
	l0.054-0.077l0.133-0.138l0.063,0.162l0.018,0.077l-0.02,0.087l-0.078,0.11l-0.083,0.037L311.519,93.362z M311.646,92.608
	l-0.077-0.081l-0.017-0.099l0.044-0.065l0.107,0.02l0.219-0.032l0.058,0.049l0.044,0.157l-0.094-0.021l-0.194,0.079L311.646,92.608z
	 M312.714,92.664l-0.181-0.145l-0.14-0.637l-0.035-0.075l-0.054-0.073l-0.038-0.076l0.011-0.088l0.04-0.093l0.029-0.101l0.004-0.09
	l-0.036-0.067l0.07-0.206l-0.002-0.087l-0.052-0.074l0.055-0.087l0.071-0.251l0.052-0.127l0.03-0.108l0.019-0.123l0.036-0.086
	l0.084-0.001l0.051-0.112l0.088,0.047l0.09,0.125l0.07,0.163l0.072,0.067l0.024,0.055l0.05,0.272l0.082,0.103l0.247,0.14
	l0.061,0.065l0.038,0.016h0.238l0.033,0.044l0.055,0.121l-0.096,0.171l-0.168,0.177l-0.327,0.271l-0.167,0.098l-0.082,0.161
	l-0.124,0.524l-0.041,0.064l-0.08,0.043L312.714,92.664z M312.851,86.64l-0.013,0.14l-0.06,0.128l-0.005,0.072l0.026,0.011
	l0.048-0.032l0.092-0.077l0.015,0.022l-0.047,0.084l-0.106,0.142l-0.051,0.017l-0.071-0.021l-0.042,0.028l-0.032,0.166l-0.014,0.041
	l0.007,0.038l0.034,0.006l0.02,0.011l0.015,0.017l0.024,0.016l-0.062,0.046l-0.057,0.055l-0.052,0.062l-0.039,0.068l-0.027,0.088
	l-0.009,0.159l-0.021,0.098l-0.089,0.189l-0.083,0.124l-0.024,0.105l0.09,0.138l-0.017,0.07l-0.002,0.026l-0.042,0.019l-0.087-0.006
	l-0.087,0.158l-0.141,0.35l0.053,0.147l-0.11,0.139l-0.266,0.172l-0.207-0.034l-0.105,0.033l-0.044,0.122l0.109-0.041l0.076-0.006
	l0.061,0.021l0.066,0.043l0.016,0.062l-0.061,0.078l-0.082,0.079l-0.049,0.067l-0.157-0.087l-0.027-0.04l-0.03-0.073l-0.047-0.02
	l-0.06-0.008l-0.075-0.036l-0.06-0.017l-0.046,0.026l-0.042,0.016l-0.046-0.056l-0.02-0.099l0.038-0.063l0.06-0.051l0.041-0.064
	l0.004-0.064l-0.007-0.171l0.006-0.038l0.042-0.061l-0.016-0.088L310.923,89l-0.006-0.057l0.019-0.135l-0.069-0.117l-0.1-0.088
	l-0.071-0.047l-0.025,0.057l-0.019,0.024l-0.008,0.028l0.001,0.06l-0.081-0.03l-0.041-0.062l-0.048-0.152l-0.139-0.08v-0.039
	l0.019-0.053l-0.006-0.034l-0.075,0.019l-0.007-0.039l0.047-0.076l0.019-0.191l0.114-0.132l0.044-0.109l0.065-0.11l0.122-0.069
	l0.007,0.041l-0.032,0.041l-0.024,0.053l-0.017,0.061l-0.005,0.063l0.085-0.056l0.105-0.085l0.097-0.101l0.15-0.233l0.056-0.054
	l0.082-0.046l0.104-0.041l0.03-0.019l0.03-0.044l0.011-0.049l0.003-0.043l0.005-0.021l0.116-0.073l0.346-0.146h0.077l0.259-0.186
	l0.032-0.02l0.101-0.04l0.041-0.033l0.007-0.035l-0.001-0.031l0.016-0.021l0.092-0.077l0.263-0.358l-0.071-0.076l-0.031-0.021
	l0.035-0.057l-0.124-0.052l-0.22-0.213l0.089-0.2l0.013-0.097l-0.043-0.052l0.049-0.068l0.052-0.04l0.056-0.034l0.058-0.047
	l0.047-0.073l0.03-0.074l0.037-0.068l0.069-0.052l0.139-0.034l0.348,0.048l0.367-0.194l0.074-0.026l0.051,0.011l0.046-0.009
	l0.036,0.008l0.025,0.058l0.154,0.139l-0.108,0.792l-0.201,0.081l-0.347,0.559l-0.217-0.022l-0.012,0.091l-0.026,0.083l-0.05,0.048
	l-0.08-0.009l-0.031,0.073l-0.042,0.078L312.851,86.64z M314.721,84.518l-0.088-0.151l-0.02-0.125l0.021-0.104l0.082-0.227
	l0.016-0.108l0.009-0.194l0.029-0.097l0.136-0.176l0.155-0.046l0.136,0.07l0.082,0.181l0.033,0.468l-0.025,0.254l-0.097,0.066
	l-0.188,0.003l-0.156,0.119L314.721,84.518z M315.516,83.996l-0.08-0.063l0.01-0.163l-0.027-0.01l-0.013-0.017l-0.016-0.045
	l-0.005-0.097l0.009-0.077l0.058-0.181l0.331,0.178l0.064,0.101l0.014,0.087l-0.019,0.025l-0.036-0.081l-0.039,0.018l-0.003,0.072
	l-0.026,0.038l-0.04,0.007l-0.043-0.02l-0.042,0.176L315.516,83.996z M314.435,91.294l-0.034-0.134l0.026-0.09l0.075-0.065
	l0.223-0.12l0.318-0.256l0.419-0.254l0.289-0.284l0.189-0.141l0.219-0.112l0.239-0.071l0.468-0.04l0.457-0.161l0.034,0.132
	l-0.255,0.152l-0.052,0.042l-0.044,0.064l-0.007,0.045l-0.022,0.042l-0.083,0.049l-0.355,0.101l-0.093,0.05l-0.164,0.162
	l-0.171,0.074l-0.075,0.051l-0.336,0.301l-0.279,0.172l-0.078,0.065l-0.115,0.128l-0.095,0.067l-0.219,0.11l-0.199,0.069
	l-0.164-0.015L314.435,91.294z M316.926,87.779l-0.071-0.124l-0.112-0.652l0.014-0.149l0.057-0.255l0.057-0.064l0.108,0.016
	l0.774,0.482l0.063,0.119l0.035,0.099l0.158,0.257l0.172,0.497l0.005,0.17l-0.055,0.03l-0.147-0.09l-0.101-0.043l-0.13-0.033
	l-0.138-0.009l-0.123,0.025l-0.108,0.025l-0.084-0.019L316.926,87.779z M319.051,81.996l-0.033-0.047l-0.005-0.057l0.021-0.063
	l0.113-0.203l0.057-0.058l-0.008,0.125l-0.083,0.214l0.002,0.121L319.051,81.996z M317.909,89.515l-0.174,0.036l0.013-0.093
	l-0.012-0.066l-0.053-0.139l0.138-0.021l0.14-0.071l0.256-0.188l0.204-0.043l0.608-0.266l0.119-0.115l0.854-0.531l0.046-0.01
	l0.032,0.005l0.031-0.017l0.043-0.067l0.051-0.041l0.073-0.007l0.069,0.021l0.039,0.043l-0.027,0.094l-0.088,0.111l-0.105,0.097
	l-0.073,0.051l-0.13,0.067l-0.304,0.213l-0.058,0.028l-0.121,0.043l-0.058,0.032l-0.173,0.153l-0.063,0.04l-0.198,0.085
	l-0.045,0.042l-0.077,0.126l-0.046,0.042l-0.391,0.147l-0.076,0.07l-0.109,0.035l-0.168,0.027L317.909,89.515z M317.554,80.359
	l0.027,0.166l0.079,0.272l0.023,0.167l0.018,0.065l0.052,0.02l0.128,0.029l0.057,0.031l0.051,0.039l0.059,0.023l0.083-0.018
	l0.641-0.249l0.072-0.047l0.084-0.075l0.094,0.037l0.08,0.087l0.043,0.076l0.045,0.498l-0.042,0.02l-0.037-0.108l-0.059-0.033
	l-0.075,0.02l-0.236,0.125l-0.064,0.001l-0.086-0.041l0.008,0.111l-0.061,0.074l-0.191,0.113l-0.262,0.236l-0.106,0.07l0.125,0.11
	l0.03,0.072l-0.018,0.135l-0.111,0.017l-0.44,0.321l-0.097,0.011l-0.03-0.044l-0.023-0.014l-0.074,0.104l-0.009,0.035l-0.015,0.117
	l-0.021,0.056l-0.027,0.038l-0.117,0.117l-0.111,0.035l-0.099,0.013l-0.039-0.024l0.07-0.08l-0.007-0.044l-0.183,0.129l-0.269,0.243
	l-0.239,0.267l-0.087,0.202l-0.015,0.064l-0.056,0.038l-0.067,0.012l-0.051-0.004l-0.042-0.031l-0.004-0.038l0.011-0.054
	l-0.002-0.076l-0.043-0.236l-0.044-0.078l-0.092-0.073l-0.296-0.127l-0.046-0.038l-0.033-0.042l-0.024-0.052l-0.018-0.069
	L315.363,83l0.03-0.129l0.007-0.066l-0.019-0.251l-0.056-0.268l-0.099-0.218l-0.152-0.1l-0.044,0.087l-0.015-0.048l-0.002-0.146
	l-0.059-0.058l-0.053-0.01h-0.054l-0.061-0.021l-0.078-0.104l-0.014-0.147l0.038-0.167l0.079-0.156l0.123,0.031l0.142-0.063
	l0.11-0.123l0.046-0.258l0.065-0.13l0.173-0.231l0.16-0.148l0.038-0.061l0.114-0.235l0.047-0.05l0.068-0.052l0.089-0.142
	l0.051-0.047l0.054-0.008l0.127,0.005l0.175-0.043l0.249-0.022l0.125-0.03l0.265-0.127l0.126-0.095l0.166-0.243l0.107-0.089
	l0.235-0.136l0.208-0.167l0.079-0.031l0.107,0.018l0.012-0.127l0.074-0.107l0.104-0.085l0.106-0.058l0.095-0.074l0.156-0.221
	l0.087-0.099l0.42-0.321l0.097-0.035l0.103,0.003l0.144-0.042l0.136-0.068l0.077-0.081l0.349,0.031l0.142-0.079l0.072-0.007
	l0.09,0.179l0.053,0.019l0.024,0.021l-0.042,0.099l-0.043,0.048l-0.143,0.134l-0.029,0.034l-0.016,0.066l-0.056,0.063l-0.07,0.053
	l-0.06,0.033l-0.007,0.03l-0.141,0.228l-0.133,0.122l-0.06,0.071l-0.033,0.156l-0.127,0.341l-0.068-0.037l-0.129,0.091l-0.261,0.245
	l-0.256,0.185l-0.283,0.158l-0.07,0.022l-0.032,0.05l-0.022,0.056l-0.037,0.041l-0.696,0.412L317.554,80.359z M324.213,82.286
	l-0.105,0.468l-0.031,0.075l-0.047,0.074l-0.313,0.092l-0.053,0.003l-0.042-0.021l-0.272-0.055l-0.098-0.054l-0.045-0.055
	l-0.018-0.068l-0.039-0.444l-0.044-0.075l-0.009-0.095l0.015-0.091l0.023-0.08l0.007-0.054l0.028-0.042l0.074-0.004l0.125,0.013
	l0.312-0.18l0.108-0.032l0.058,0.021l0.043,0.048l0.137,0.104l0.015,0.043l-0.001,0.061l0.022,0.106l0.034,0.046l0.093,0.065
	l0.029,0.055L324.213,82.286z M325.998,81.846l-0.008,0.041L326,81.914l-0.002,0.021l-0.046,0.03l-0.026-0.008l-0.005-0.04v-0.05
	l-0.011-0.034l-0.086-0.075l-0.069-0.095l-0.053-0.124l-0.037-0.159l-0.013,0.029l-0.006,0.026l-0.019,0.006l-0.042-0.026
	l-0.125,0.136l-0.117-0.043l-0.033-0.131l0.137-0.136l0.12-0.058l0.071-0.057l0.051-0.094l0.064-0.163l0.18-0.245l0.115-0.092
	l0.158-0.06l0.135-0.005l0.111,0.046l0.093,0.085l0.152,0.232l0.018,0.098l-0.036,0.114l-0.097,0.167l-0.281,0.323l-0.037,0.102
	l-0.107-0.039l-0.034-0.036l-0.076,0.078l-0.022,0.067l-0.004,0.067L325.998,81.846z M327.098,82.133l-0.044-0.117l-0.017-0.11
	l-0.071-0.019l-0.013-0.052l0.053-0.034l0.317,0.112l0.083,0.06l0.048,0.108l-0.027,0.075l-0.079,0.067l-0.095,0.043l-0.073,0.006
	l-0.034-0.044L327.098,82.133z M327.644,79.458l-0.015,0.078l0.025,0.07l0.062,0.058l-0.157,0.053l-0.071-0.051l-0.022-0.119
	l-0.009-0.153l0.077-0.107l0.086-0.096l0.095-0.044l0.097,0.041l0.065,0.152l-0.038,0.133l-0.077,0.035l-0.05-0.133L327.644,79.458z
	 M327.557,74.935l-0.205-0.021l0.22-0.202l0.063,0.08L327.557,74.935z M328.458,74.109l-0.058-0.098l0.005-0.126l0.026-0.065
	l0.03-0.053l0.039-0.046l0.05-0.048l0.098,0.066l0.067,0.12l0.011,0.137l-0.066,0.119l-0.107,0.04L328.458,74.109z M328.837,73.433
	l-0.022-0.029l0.034-0.13l0.05-0.087l0.083-0.06l0.129-0.054l0.171-0.036l0.065-0.022l0.042-0.037l0.025-0.049l0.033-0.049
	l0.07-0.04l-0.019,0.251l-0.021,0.059l-0.057,0.063l-0.13,0.089l-0.046,0.053l-0.037,0.018l-0.039-0.018l-0.039,0.004l-0.04,0.027
	l-0.048,0.062l-0.022-0.031l-0.027,0.003l-0.034,0.02l-0.046,0.019l-0.027-0.001l-0.025-0.008L328.837,73.433z"/></svg>