<?xml version="1.0" encoding="utf-8"?>
<!-- Generator: Adobe Illustrator 15.0.0, SVG Export Plug-In . SVG Version: 6.00 Build 0)  -->
<!DOCTYPE svg PUBLIC "-//W3C//DTD SVG 1.1//EN" "http://www.w3.org/Graphics/SVG/1.1/DTD/svg11.dtd">
<svg version="1.1" id="Ebene_1" xmlns="http://www.w3.org/2000/svg" xmlns:xlink="http://www.w3.org/1999/xlink" x="0px" y="0px"
	 width="1920px" height="1080px" viewBox="0 0 1920 1080" enable-background="new 0 0 1920 1080" xml:space="preserve">

<path fill="#F4E0B6" stroke="#FFFFFF" d="M739.223,671.209l-0.02-0.011l-0.016-0.148l-0.232-0.291l-0.021-0.125v-0.029l-0.009-0.044
	l0.002-0.042l0.064-0.053l0.028-0.044l0.042-0.09l0.009-0.031v-0.028l0.005-0.034l0.022-0.046l0.035-0.042l0.079-0.063l0.027-0.033
	l0.054-0.049l0.173-0.097l0.088-0.081l0.18-0.104l0.03-0.007l0.051-0.003l0.031-0.01l0.023-0.022l0.057-0.07l0.032-0.022
	l0.176-0.098l0.078-0.012l0.063,0.07l-0.057,0.067l0.005,0.055l0.029,0.051l0.012,0.056l-0.019,0.062l-0.084,0.194l-0.053,0.139
	l-0.062,0.117l-0.226,0.314l-0.092,0.203l-0.164,0.19l-0.026,0.025l-0.016-0.001l-0.058-0.013l-0.022,0.003l-0.042,0.033
	l-0.125,0.15l-0.038,0.012H739.223z"/></svg>