<?xml version="1.0" encoding="utf-8"?>
<!-- Generator: Adobe Illustrator 15.0.0, SVG Export Plug-In . SVG Version: 6.00 Build 0)  -->
<!DOCTYPE svg PUBLIC "-//W3C//DTD SVG 1.1//EN" "http://www.w3.org/Graphics/SVG/1.1/DTD/svg11.dtd">
<svg version="1.1" id="Ebene_1" xmlns="http://www.w3.org/2000/svg" xmlns:xlink="http://www.w3.org/1999/xlink" x="0px" y="0px"
	 width="1920px" height="1080px" viewBox="0 0 1920 1080" enable-background="new 0 0 1920 1080" xml:space="preserve">

<path fill="#F4E0B6" stroke="#FFFFFF" d="M1236.74,435.957l0.082-0.153l0.02-0.169l0.039-0.048l0.102,0.016l0.079,0.053l0.011,0.064
	l-0.05,0.16l-0.012,0.156l0.033,0.312l-0.028,0.017l-0.238,0.029l-0.066,0.019l-0.161,0.103l-0.097,0.021l-0.095-0.01l-0.069-0.046
	l0.035-0.065L1236.74,435.957z M1231.696,432.976l0.083,0.037l-0.061,0.077l-0.094,0.041l-0.205,0.048l-0.097,0.038l-0.006,0.002
	l-0.121-0.003l0.021-0.078l0.104-0.096l0.124-0.059l0.109-0.015L1231.696,432.976z M1231.313,433.48l1.131-0.383l0.06-0.012
	l0.08,0.057l-0.068,0.071l-0.185,0.091l-0.037,0.091l0.037,0.074l0.086,0.034l0.105-0.028l0.278-0.355l0.164-0.123l0.136,0.125
	l0.034,0.031l0.002,0.002v0.086l0.011,0.026l0.018,0.019l0.011,0.026l-0.023,0.078l-0.005,0.045l0.009,0.084l0.014,0.093
	l0.041,0.364l0.075,0.241l0.01,0.077l-0.01,0.08l-0.018,0.073l-0.01,0.073l0.018,0.086l0.091,0.188l0.023,0.07l-0.008,0.05
	l-0.097,0.334v0.169l0.055,0.121l0.101,0.048l0.025,0.005l0.017-0.001l0.098-0.019l-0.003,0.001l0.012-0.005l0.056-0.018
	l0.025-0.001l0.131,0.151l0.19-0.174l0.069-0.08l0.042-0.101l0.021-0.095l0.035-0.087l0.083-0.079l0.213-0.03l0.244,0.063
	l0.237,0.033l0.191-0.12l0.104-0.18l0.083-0.195l0.161-0.713l0.167-0.404l0.054-0.086l0.157-0.027l0.076,0.136l0.014,0.196
	l-0.03,0.156l-0.161,0.21l-0.013,0.068l0.007,0.042l-0.007,0.1l-0.009-0.001l-0.02,0.008l-0.02,0.017l-0.009,0.026l0.003,0.021
	l0.017,0.043l0.031,0.238v0.077l-0.066,0.324l0.03,0.167l0.107,0.087l0.146,0.075l0.142,0.128l0.054,0.107l0.026,0.113v0.114
	l-0.021,0.111l-0.09,0.191l-0.005,0.063l0.026,0.052l0.084,0.095l0.021,0.062l-0.076,0.08l-0.078-0.001l-0.073-0.059l-0.066-0.09
	l-0.036-0.094l-0.004-0.09l0.006-0.09l-0.004-0.093l-0.07-0.124l-0.104,0l-0.109,0.071l-0.084,0.095l-0.221,0.328l-0.146,0.135
	l-0.095,0.147l-0.076,0.061l-0.098,0.035l-0.092,0.019l-0.09,0.031l-0.088,0.075l-0.06,0.099l-0.101,0.227l-0.074,0.081
	l-0.657,0.441l-0.105,0.141l-0.567,1.935l-0.036,0.074l-0.049,0.063l-0.04,0.013l-0.099,0.003l-0.03,0.028l0.008,0.031l0.066,0.064
	l0.023,0.03l0.05,0.148l0.062,0.128l0.099,0.096l0.169,0.053h0.037l0.034,0.007l0.032,0.014l0.029,0.022l0.212-0.009l0.063,0.031
	l-0.141,0.471l-0.421,0.028l-0.195,0.053l-0.048,0.052v0.021l0.027,0.017l0.034,0.045l0.098,0.169l0.364,0.478l0.145,0.15
	l0.172,0.122l0.104,0.021l0.103-0.027l0.101-0.041l0.101-0.021l0.096,0.013l0.097,0.036l0.531,0.344l0.15,0.006l0.051-0.197
	l-0.016-0.045l-0.029-0.031l-0.02-0.033l0.011-0.049l0.029-0.014l0.155-0.048l0.083-0.072l0.093-0.194l0.063-0.092l0.041-0.084
	l0.027-0.09l0.01-0.093l-0.012-0.201l0.024-0.087l0.22-0.376l0.129-0.162l0.156-0.138l0.201-0.126l0.148-0.139l0.158-0.358
	l0.128-0.164l0.133-0.099l-0.001-0.049l-0.039-0.113l-0.016-0.107l0.023-0.107l0.051-0.097l0.063-0.083l0.146-0.111l0.058-0.06
	l0.018-0.086l-0.024-0.063l-0.153-0.249l-0.007-0.093l0.067-0.018l0.097,0.03l0.078,0.044l0.144,0.143l0.069,0.03l0.062-0.064
	l0.025-0.088l-0.034-0.535l0.012-0.068l0.027-0.043l0.069-0.081l0.023-0.044l-0.001-0.035l-0.015-0.037l-0.01-0.042l0.009-0.05
	l0.024-0.082l0.029-0.168l0.031-0.082l0.05-0.049l0.123-0.061l0.055-0.042l0.046-0.074l0.058-0.178l0.047-0.074l0.12-0.071
	l0.129-0.006l0.266,0.037l0.004,0.001h0.001l0,0l0.056-0.03l0.087-0.084l0.055-0.024l0.075,0.01l0.06,0.046l0.052,0.055l0.056,0.035
	l0.129-0.014l0.115-0.086l0.087-0.125l0.046-0.13l0.006-0.171l0.014-0.062l0.032-0.068l0.024-0.037l0.007-0.042l-0.023-0.083
	l0.009-0.102l0.085-0.077l0.111-0.078l0.087-0.106l0.012-0.176l-0.088-0.152l-0.119-0.15l-0.083-0.164l-0.005-0.189l0.05-0.207
	l0.084-0.193l0.164-0.231l0.027-0.055l-0.006-0.064l-0.062-0.212l-0.009-0.083l0.009-0.19l-0.005-0.043l-0.022-0.09l-0.004-0.04
	l0.009-0.051l0.042-0.134l0.019-0.184l0.032-0.084l0.146-0.108l0.089-0.044l0.005-0.004l0.102-0.026l0.087,0.014l0.058,0.062
	l0.079,0.186l0.054,0.076l0.207-0.003l0.157-0.146l0.112-0.21l0.142-0.49l0.04-0.088l0.085-0.042l0.125,0.018l0.125,0.055
	l0.086,0.067l0.044,0.088l0.021,0.086l0.035,0.077l0.09,0.061l0.108,0.018l0.106-0.024l0.089-0.054l0.063-0.073l0.063-0.171
	l0.021-0.191l-0.041-0.571l0.005-0.092l0.052-0.179l0.005-0.191l0.028-0.085l0.085-0.05l0.124,0.005l0.131,0.037l0.101,0.045
	l0.089-0.002l0.076-0.074l0.115-0.176l0.036-0.028l0.076-0.044l0.083-0.071l0.035,0.002l0.036,0.019l0.051,0.012l0.096-0.001
	l0.074-0.017l0,0l0.021-0.053l-0.237-0.353l-0.201-0.233l-0.045-0.091l0.014-0.09l0.035-0.101l0.009-0.2l0.035-0.078l0.1-0.127
	l0.038-0.072l0.024-0.076l-0.055-0.2l0.005-0.057l0.048-0.058l0.11-0.079l0.035-0.071l-0.002-0.063l-0.046-0.128l-0.012-0.062
	l0.018-0.086l0.038-0.071l0.555-0.714l0.028-0.067l0.055-0.206l0.049-0.087l0.176-0.246l0.057-0.066l0.026-0.067l0.006-0.261
	l0.018-0.06l0.038-0.046l0.066-0.061l0.107-0.134l0.055-0.142l0.08-0.505l0.076-0.267l-0.032-0.053l-0.061-0.043l-0.057-0.07
	l-0.011-0.137l0.123-0.52l0.059-0.158l0.22-0.378l0.108-0.095l0.088,0.048l0.285,0.088l0.097,0.042l0.069,0.048l0.26,0.299
	l0.121,0.103l0.143,0.043l0.195-0.027l0.235-0.107l0.082-0.007l0.175,0.042l0.088,0.01l0.081-0.018l0.281-0.174l0.197-0.076
	l0.063-0.046l0.098-0.003l0.084,0.025l0.06,0.059l0.029,0.09l-0.018,0.107l-0.095,0.209l-0.007,0.118l0.026,0.088l0.045,0.099
	l0.067,0.077l0.09,0.03l0.092-0.017l0.177-0.067l0.086-0.015l0.096,0.032l0.19,0.13l0.079,0.021l0.288-0.046l0.08,0.004l0.211,0.056
	l0.09-0.002l0.114-0.044l0.072-0.056l0.123-0.132l0.07-0.058l0.16-0.08l0.065-0.051l0.199-0.413l0.018-0.08l-0.05-0.096
	l-0.089-0.002l-0.102,0.017l-0.09-0.041l-0.009-0.045l0.029-0.196l-0.017-0.045l-0.035-0.025l-0.042-0.021l-0.033-0.029
	l-0.048-0.099l-0.007-0.079l0.035-0.073l0.198-0.229l0.05-0.078l0.042-0.098l0.047-0.346l0.05-0.085l0.527-0.49l0.561-0.617
	l0.091-0.052l0.095-0.034l0.082-0.048l0.055-0.093l0.036-0.102l0.05-0.073l0.074-0.047l0.105-0.031l0,0l0,0h0.002l0.068-0.015
	l0.037-0.019l0.07-0.059l0.04-0.015l0.044,0.006l0.046,0.015l0.146,0.033l0.09,0.045l0.074,0.067l0.052,0.086l0.093,0.267
	l0.057,0.078l0.076,0.057l0.44,0.214l0.567,0.174l0.166-0.02l0.279-0.235l0.151,0.007l0.283,0.159l0.128,0.049l0.029,0.018
	l0.03-0.002l0.047-0.037l0.044-0.023l0.029,0.024l0.068,0.124v0.039l0.016,0.029l0.067,0.017l0.044-0.005l0.039-0.02l0.198-0.172
	l0.068-0.032l0.09,0.025l0.037,0.036l0.034,0.055l0.048,0.108l0.03,0.049l0.037,0.034l0.037,0.029l0.031,0.033l0.047,0.089
	l0.032,0.09l0.044,0.079l0.081,0.061l0.181,0.036l0.176-0.037l0.16-0.083l0.364-0.303l0.091-0.049l0.34-0.103l0.156-0.076
	l0.142-0.099l-0.032,0.244l-0.001,0.124l0.058,0.093l0.167,0.093l0.039,0.065l-0.046,0.473l-0.03,0.112l0.006,0.102l0.063,0.08
	l0.055,0.085l-0.002,0.108l-0.118,0.101l-0.374,0.062l-0.165,0.069l-0.534,0.425l0.005,0.156l-0.169,0.462l-0.016,0.039
	l-0.023,0.034l-0.11,0.14l-0.076,0.079l-0.03,0.086l-0.02,0.085l-0.075,0.119l-0.022,0.048l-0.031,0.038l-0.119,0.021l-0.042,0.032
	l-0.019,0.052l0.007,0.066l-0.07-0.006l0.102,0.114l-0.034,0.114l-0.085,0.115l-0.049,0.118l0.03,0.103l0.156,0.086l0.044,0.123
	l-0.008,0.127l-0.133,0.537l-0.045,0.388l-0.025,0.103l-0.01,0.302l-0.066,0.201l-0.018,0.101l0.057,0.237l-0.015,0.07l-0.044,0.062
	l-0.052,0.097l-0.006,0.051l0.015,0.097l-0.019,0.049l-0.033,0.021l-0.102,0.027l-0.04,0.021l-0.046,0.089l-0.035,0.215
	l-0.067,0.054l-0.105-0.031l-0.065-0.103l-0.026-0.128l0.013-0.109l0.062-0.18l0.002-0.079l-0.02-0.105l-0.04-0.113l-0.055-0.064
	l-0.195-0.1l-0.035-0.024l-0.105-0.088l-0.086,0.151l-0.081,0.195l-0.206,0.276l-0.399,0.454l-0.085,0.203l0.004,0.345l-0.051,0.064
	l-0.071,0.057l-0.059,0.101l-0.041,0.116l-0.015,0.104l0.013,0.094l0.096,0.319l-0.002,0.06l-0.074,0.081l-0.007,0.045l0.034,0.229
	l0.04,0.108l0.102,0.148l0.041,0.084l0.011,0.118l-0.119,0.339l0.017,0.407l0.053,0.15l-0.018,0.129l-0.062,0.23l0.01,0.229
	l0.092,0.216l0.266,0.401l0.159,0.318l0.077,0.075l0.026,0.063l-0.222,0.726l-0.007,0.188l-0.188,0.292l-0.06,0.225l-0.055,0.547
	l0.021,0.236l0.021,0.068l0.053,0.11l0.016,0.062l0.002,0.195l0.054,0.179l0.204,1.783l-0.021,0.215l-0.068,0.248l-0.103,0.227
	l-0.139,0.198l-0.173,0.15l-0.204,0.084l-0.11,0.019l-0.111,0.003l-0.111-0.017l-0.23-0.086l-0.115-0.004l-0.466,0.075l-0.103-0.006
	l-0.108-0.041l-0.191-0.105l-0.063-0.014l-0.137,0.025h-0.063l-0.062-0.021l-0.277-0.165l-0.176-0.142l-0.059-0.066l-0.027-0.055
	l-0.12-0.045l-0.156-0.301l-0.129-0.075l-0.045-0.06l-0.093-0.066l-0.2-0.1l-0.195-0.064l-0.061-0.05l-0.081-0.109l-0.166-0.147
	l-0.405-0.142l-0.195-0.131l-0.019-0.031l-0.036-0.09l-0.028-0.044l-0.042-0.039l-0.134-0.099l-0.119-0.132l-0.044-0.033
	l-0.055-0.018l-0.119-0.013l-0.047-0.016l-0.066-0.083l-0.009-0.217l-0.05-0.117l-0.076-0.064l-0.108-0.064l-0.105-0.048
	l-0.063-0.017l-0.016-0.052l-0.203,0.063l-0.142,0.097l-0.085,0.16l-0.107,0.642l0.013,0.112l-0.002,0.113l-0.081,0.079
	l-0.195,0.111l-0.028,0.045l-0.008,0.04l-0.021,0.019l-0.068-0.017l-0.046-0.033l-0.084-0.105l-0.104-0.096l-0.142-0.25
	l-0.161-0.168l-0.093-0.157l-0.121-0.104l-0.162-0.193l-0.095-0.083l-0.22-0.084l-0.188,0.033l-0.158,0.109l-0.304,0.304
	l-0.369,0.151l-0.188,0.117l-0.113,0.098l-0.037,0.05l-0.024,0.057l-0.004,0.042l-0.015,0.034l-0.054,0.03l-0.054,0.008
	l-0.103-0.009l-0.05,0.006l-0.063,0.023l-0.057,0.029l-0.049,0.038l-0.04,0.051l-0.048,0.108l0.016,0.051l0.113,0.044l0.025,0.074
	l-0.074,0.098l-0.164,0.147l-0.019,0.057l0.008,0.037l0.013,0.029l-0.002,0.038l-0.021,0.04l-0.057,0.062l-0.026,0.038l-0.07,0.144
	l-0.021,0.082l0.018,0.049l0.052,0.102l-0.105,0.28v0.107l0.032,0.019l0.1-0.06l0.037,0.068l0.019,0.216l-0.002,0.054l-0.056,0.101
	l-0.001,0.054l0.031,0.043l0.049,0.027l0.05,0.022l0.038,0.022l0.129,0.152l-0.003,0.056l-0.017,0.071l-0.002,0.069l0.095,0.108
	l0.146,0.255l0.198,0.266l0.053,0.102l0.015,0.069l-0.021,0.188l0.005,0.065l0.07,0.3l0.119,0.333l0.004,0.052l-0.005,0.112
	l-0.001,0.028l0.014,0.037l0.031,0.047l-0.009,0.061l-0.019,0.06l-0.001,0.04l0.035,0.042l0.04,0.023l0.045,0.006l0.056-0.015
	l-0.02,0.126l-0.038,0.117l-0.068,0.095l-0.106,0.059l0.092,0.123l0.155,0.061l0.167,0.012l0.136-0.022l0.045-0.041l0.112-0.132
	l0.054-0.009l0.073,0.026l0.076,0.003l0.07-0.013l0.054-0.026l0.041,0.057l0.07,0.026l0.16,0.031l0.07,0.034l0.035,0.035l0.03,0.038
	l0.054,0.042l0.04,0.098l0.002,0.031l0.008,0.029l0.038,0.019l0.046,0.019l0.028,0.024l0.021,0.046l0.006,0.015l0.007,0.035
	l-0.013,0.013l-0.039,0.091l-0.003,0.011l0.104,0.146l0.035,0.035v0.04l0.084,0.256l-0.022,0.159l-0.088,0.129l-0.107,0.118
	l-0.079,0.119l0.049-0.009l-0.092,0.134l-0.034,0.036l-0.02,0.009l-0.033,0.015l-0.043-0.001l-0.038,0.008l-0.048,0.05l-0.09,0.075
	l-0.1,0.009l-0.102-0.003l-0.102,0.039l-0.074,0.099l-0.045,0.226l-0.037,0.099l-0.013,0.053l0.003,0.063l-0.01,0.057l-0.053,0.033
	l-0.041,0.02l-0.091,0.08l-0.027,0.032l-0.06,0.113l-0.057,0.22l-0.05,0.104l-0.446,0.555l-0.025,0.104l0.145,0.188l0.015,0.138
	l-0.011,0.259l0.011,0.028l0.038,0.06l0.012,0.03l0.004,0.048l-0.005,0.083l0.011,0.037l0.055,0.069l0.079,0.059l0.179,0.101
	l0.023,0l0.035-0.033h0.03l0.023,0.015v0.015l-0.005,0.013l0.011,0.014l0.043,0.024l0.048,0.018l0.049,0.011l0.047-0.003
	l0.095,0.005l0.179,0.066l0.066-0.011l0.078,0.095l0.079-0.055l0.067-0.07l0.051,0.047l0.111,0.272l0.011,0.106l-0.024,0.228
	l0.021,0.11l0.006,0.068l-0.02,0.061l-0.007,0.016l-0.051,0.109l-0.023,0.105l-0.053,0.089l-0.517,0.261l-0.024,0.018l-0.122,0.06
	l-0.066,0.016l-0.216-0.021l-0.109,0.043l-0.122,0.063l-0.124,0.043l-0.211-0.037l-0.127,0.018l-0.128,0.044l-0.099,0.06
	l-0.232,0.268l-0.016,0.012l-0.021,0.022l0.008,0.021l0.068,0.01l0.05-0.009l0.092-0.041l0.034-0.009l0.077,0.026l0.024,0.046
	l-0.022,0.054l-0.066,0.046l-0.104,0.016l-0.099-0.006l-0.092,0.013l-0.082,0.076l-0.037,0.108l0.041,0.046l0.172,0.034l0.105,0.047
	l0.032,0.044l-0.038,0.048l-0.197,0.104l-0.055,0.036l-0.043,0.052l-0.054,0.091l-0.135,0.151l-0.051,0.077l0.016,0.077l0.034-0.011
	l0.028,0.001l0.071,0.009l-0.054,0.102l0.029,0.091l0.059,0.068l0.022,0.037l-0.044,0.081l-0.067,0.182l-0.049,0.09l0.006,0.032
	l0.047,0.111l-0.007,0.049l-0.028,0.045l-0.101,0.222l-0.166,0.269l0.147,0.005l0.049,0.069l-0.021,0.103l-0.066,0.115l-0.075,0.071
	l-0.085,0.064l-0.063,0.077l-0.006,0.11l0.053,0.077l0.094,0.053l0.21,0.088l0.034,0.083l-0.07,0.1l-0.174,0.14l-0.063,0.116
	l0.001,0.111l0.013,0.103l-0.026,0.095l-0.008,0.068l0.01,0.4l-0.006,0.058l-0.018,0.061l-0.024,0.032l-0.015,0.019l-0.05,0.022
	l-0.051,0l-0.052-0.007l-0.055,0.001l-0.256,0.046l-0.055,0.019l-0.114,0.069l-0.065,0.024l-0.141,0.008l-0.11-0.006l-0.097,0.023
	l-0.171,0.162l-0.12,0.073l-0.126,0.056l-0.097,0.013l-0.07-0.038l-0.262-0.213l-0.053-0.06l-0.078-0.161l-0.119-0.142l-0.146-0.122
	l-0.198-0.104l-0.413-0.139l-0.177-0.133l-0.194-0.286l-0.141-0.338l-0.084-0.355l-0.027-0.334l-0.152-0.522l-0.122-0.248
	l-0.337-0.458l-0.013-0.113l0.051-0.15l0.112-0.206l0.026-0.073l0.002-0.029l0.003-0.062l-0.035-0.065l-0.056-0.062l-0.056-0.077
	v-0.001v-0.001h-0.001v-0.001l-0.052-0.102l-0.101-0.29l-0.179-0.254l-0.218-0.229l-0.188-0.088l-0.206,0.017l-0.478,0.17
	l-0.251,0.149l-0.111,0.032l-0.344,0.004l-0.244,0.078h-0.091l-0.074-0.026l-0.149-0.079l-0.085-0.02l-0.198,0.019l-0.08-0.006
	l-0.106-0.051l-0.248-0.171l-0.097-0.047l-0.206-0.049l-0.089-0.04l-0.046-0.073l0.007-0.142l-0.012-0.038l-0.049-0.034
	l-0.054-0.007l-0.056,0l-0.055-0.016l-0.087-0.074l0.007-0.06l0.051-0.071l0.049-0.106l0.012-0.091l-0.004-0.091l-0.026-0.087
	l-0.049-0.083l-0.097-0.065l-0.118-0.015l-0.083,0.009l-0.149,0.017l-0.355-0.025l-0.106,0.023h-0.002v0.001v0.001l-0.029,0.027
	l-0.025,0.032l-0.021,0.034l-0.015,0.037l-0.003,0.094l-0.026,0.08l-0.057,0.06l-0.094,0.03l-0.039,0.023l-0.067,0.056l-0.04,0.057
	l-0.025,0.065l-0.015,0.068v0.001v0.001l0,0l0,0l-0.122,0.361l-0.073,0.109l-0.428,0.47l-0.106,0.032l-0.008,0.001l-0.001,0
	l-0.122-0.048l-0.313-0.261l-0.066-0.031h-0.002l-0.078,0.003l-0.024,0.021l-0.034,0.074l-0.022,0.024l-0.036,0.009l-0.071,0.001
	l-0.029,0.007l-0.164,0.124l-0.236,0.319l-0.481,0.387l-0.167,0.056l-0.001-0.001l-0.195-0.081l-0.058-0.046l-0.026-0.028
	l-0.006-0.031l-0.003-0.056l0.018-0.05l0.034-0.03l0.01-0.031l-0.126-0.122l-0.114-0.145l-0.16-0.106l-0.16-0.139l-0.136-0.157
	l-0.016-0.063l0.037-0.063l0.081-0.095l0.01-0.022l0.006-0.023l-0.002-0.025l-0.007-0.023h-0.001l-0.215-0.096l-0.013-0.121
	l0.176-0.344l0.026-0.514l0.06-0.175l0.132-0.186l1.238-1.183l0.426-0.596l0.326-0.268l0.146-0.192l0.12-0.212l0.112-0.285
	l0.021-0.1h-0.001l-0.076-0.005l-0.037-0.003l-0.031-0.096l0.021-0.232l-0.022-0.151l-0.052-0.108l-0.094-0.088l-0.701-0.482
	l-0.069-0.101l0.034-0.045l0.057-0.043l-0.014-0.203l0.088-0.04l0.224-0.018l0.061-0.041l-0.011-0.045l-0.038-0.036l-0.023-0.014
	l-0.007-0.003l-0.049-0.07l0.003-0.018l0.021-0.047l0.001-0.021l-0.054-0.102l-0.063-0.039l-0.227-0.01l-0.125-0.02l-0.093-0.036
	l-0.019-0.049l0.107-0.056l0.211,0.01l0.237,0.056l0.187-0.019l0.054-0.212l-0.11-0.047l-0.663,0.106l-0.059-0.007l-0.046-0.02
	l-0.088-0.065l-0.044-0.006l-0.097,0.042l-0.048-0.015l-0.048-0.103l0.088-0.038l0.202-0.007l0.021-0.062l-0.013-0.21l0.032-0.097
	l0.236-0.273l0.05-0.101l-0.034-0.067l-0.062-0.046l-0.079-0.029l-0.081-0.011l-0.243,0.122l-0.472,1.051l-0.019,0.042l-0.144,0.115
	l-0.218,0.124l-0.169,0.045l0.007-0.116l0.072-0.187l0.098-0.257l0.053-0.095l0.191-0.215l0.053-0.102l0.023-0.184l0.024-0.098
	l0.351-0.717l0.074-0.087l0.141-0.095l0.154-0.106l0.336-0.313l0.139-0.202l0.042-0.191l-0.108-0.064l-0.426,0.165l-0.146-0.063
	l0.06-0.115l0.154-0.128l0.067-0.144l-0.204-0.163l-0.118-0.034l-0.116-0.006l-0.233,0.01l-0.107-0.008l-0.314-0.065l0,0
	l-0.345,0.025l-0.092-0.058l0.01-0.197l0.144-0.26l0.008-0.077l-0.051-0.053l-0.261-0.115l-0.166-0.102l-0.119-0.11l-0.078-0.133
	l-0.047-0.172l-0.004-0.083l0.012-0.084l0.048-0.155l0.057-0.07l0.071-0.033l0.08-0.025l0.074-0.044l0.096-0.125l0.134-0.051
	l0.315-0.036l0.068-0.028l0.124-0.07l0.076-0.019l0.157-0.013l0.076-0.014l0.074-0.029l0.121-0.105l0.043-0.127l-0.011-0.142
	l-0.075-0.284l-0.006-0.117l0.02-0.113l0.282-0.889l-0.039-0.562l0.091-0.536l0.011-0.404l-0.102-0.371l-0.425-0.398l0.051-0.183
	l0.164-0.156l0.075-0.026l0.117-0.042l0.021-0.002l0.021-0.006L1231.313,433.48z"/></svg>