<?xml version="1.0" encoding="utf-8"?>
<!-- Generator: Adobe Illustrator 15.0.0, SVG Export Plug-In . SVG Version: 6.00 Build 0)  -->
<!DOCTYPE svg PUBLIC "-//W3C//DTD SVG 1.1//EN" "http://www.w3.org/Graphics/SVG/1.1/DTD/svg11.dtd">
<svg version="1.1" id="Ebene_1" xmlns="http://www.w3.org/2000/svg" xmlns:xlink="http://www.w3.org/1999/xlink" x="0px" y="0px"
	 width="1920px" height="1080px" viewBox="0 0 1920 1080" enable-background="new 0 0 1920 1080" xml:space="preserve">

<path fill="#F4E0B6" stroke="#FFFFFF" d="M606.142,706.635l-0.128,0.093l-0.164-0.116l-0.123,0.016l-0.093-0.016l-0.112-0.075
	l-0.099-0.099l-0.051-0.084l0.021-0.146l0.11-0.194l0.292-0.703l0.047-0.072l0.305-0.278l0.161-0.202l0.092-0.023l0.333,0.058
	l0.325-0.015l0.117,0.015l0.214,0.129l0.232,0.437l0.18,0.18l-0.024,0.042l-0.031,0.035l-0.034,0.027l-0.039,0.021l-0.075,0.025
	l-0.29-0.006l-0.036,0.044l-0.099,0.042l-0.028,0.023l-0.063,0.075l-0.075,0.069l-0.06,0.029l-0.01-0.005l-0.093,0.08l-0.112,0.109
	l-0.113,0.103l-0.069,0.078l-0.092-0.004l-0.098,0.053l-0.051,0.142l-0.106,0.044L606.142,706.635z M608.325,705.238l-0.151,0.027
	l-0.092-0.063l0.031-0.148l0.153-0.188l0.229-0.27l0.244-0.215l-0.009,0.182l0.095,0.119l0.008,0.159l-0.176,0.134l-0.209,0.014
	L608.325,705.238z M560.878,668.896l0.129,0.142l0.071,0.208l-0.034,0.154l-0.183-0.025l-0.171-0.129l-0.375-0.503l0.151-0.078
	l0.08,0.07l0.259,0.14L560.878,668.896z M556.623,665.517l0.026,0.129l0.12,0.025l0.143,0.125l0.114,0.153l0.036,0.118l0.006,0.025
	l0.021,0.038l0.019,0.046l0.002,0.058l-0.017,0.045l-0.021,0.02l-0.019,0.011l-0.014,0.02l-0.021,0.019l-0.079-0.016l-0.031,0.001
	l-0.015,0.028l-0.011,0.091l-0.012,0.028l-0.043,0.026l-0.219,0.038l-0.039-0.011l-0.193-0.151l-0.061-0.116l-0.052-0.136
	l-0.093-0.153l0.07-0.043l0.072-0.064l0.061-0.08l0.093-0.19l0.083-0.078L556.623,665.517z M564.058,665.451l0.054,0.092l0.072,0.04
	l0.082,0.007l0.081-0.009l-0.06,0.27l-0.179,0.227l-0.228,0.161l-0.207,0.071l-0.216-0.039l-0.042,0.028l-0.029,0.059l-0.12,0.165
	l-0.169,0.148l-0.101,0.059l-0.1,0.022l-0.095-0.014l-0.087-0.035l-0.186-0.109l-0.063-0.01l-0.142,0.037l-0.083-0.021l-0.047-0.051
	l-0.094-0.162l-0.044-0.062l-0.186-0.147l-0.04-0.058l0.009-0.069l0.054-0.055l0.096-0.066l0.061-0.029l0.255-0.007l0.095-0.032
	l0.122-0.206l0.06,0.025l0.248,0.061l0.086-0.044l0.145-0.176l0.072-0.054l0.192-0.091l0.047-0.042l0.055-0.02l0.224,0.021
	l0.08-0.04l0.084,0.043l0.187,0.039L564.058,665.451z M559.228,661.243l-0.027,0.077l-0.014,0.071l0.036,0.054l0.055,0.037
	l0.102,0.096l0.061,0.042l0.044,0.109l-0.057,0.159l-0.149,0.255l-0.02,0.086l0.004,0.122l-0.014,0.084l-0.019,0.013l-0.089,0.127
	l-0.007,0.038l-0.106-0.004l-0.097,0.071l-0.093,0.097l-0.095,0.064l-0.063,0.017l-0.033-0.006l-0.27-0.162l-0.034,0.007
	l-0.066,0.123l-0.093,0.028l-0.104-0.035l-0.1-0.068l-0.168-0.19l-0.113-0.1l-0.029-0.055l-0.018-0.051l-0.024-0.03l-0.03-0.073
	l-0.062-0.288l-0.031-0.099l-0.084-0.035l-0.097-0.09l-0.082-0.114l-0.042-0.106l0.014-0.097l0.1-0.341l0.081-0.166l0.107-0.138
	l0.12-0.104l0.12-0.07l0.067-0.015l0.174,0.004l0.07,0.017l0.06,0.038l0.116,0.11l0.041,0.031l0.058,0.011l0.078-0.017h0.041
	l0.551,0.227l0.143-0.008l0.027,0.033l0.027,0.044l0.022,0.047l0.015,0.045L559.228,661.243z M552.814,655.512l0.135,0.372
	l0.043,0.071l0.052,0.106l-0.022,0.163l-0.093,0.262l-0.156,0.623l-0.065,0.008l-0.445-0.023l-0.106-0.03l-0.058-0.029l-0.048-0.055
	l-0.096-0.173l-0.098-0.094l-0.15-0.185l-0.026-0.021l-0.063-0.025l-0.025-0.019l-0.021-0.043l0.004-0.022l0.01-0.022l-0.006-0.039
	l-0.067-0.187l-0.038-0.193l-0.007-0.189l0.043-0.357l-0.005-0.316l0.039-0.082l0.499,0.304l0.247-0.016l0.286,0.076l0.147,0.015
	l0.037,0.031L552.814,655.512z M556.878,656.935l0.085,0.167l0.343,0.388l0.131,0.107l0.16,0.195l0.184,0.59l0.126,0.224
	l-0.027-0.007l-0.018,0.001l-0.042,0.015l0.062,0.1l-0.072,0.107l-0.179,0.164l-0.081,0.123l-0.113-0.016l-0.123-0.094l-0.217-0.23
	l-0.394-0.226l-0.099-0.106l-0.079-0.138l-0.095-0.104l-0.143-0.009l-0.048-0.168l0.011-0.206l-0.019-0.188l-0.135-0.113
	l0.349-0.284l0.04-0.089l-0.001-0.148l0.079-0.098l0.116-0.039l0.113,0.035l0.032,0.062l0.017,0.007L556.878,656.935z
	 M554.78,653.207l0.013,0.129l-0.081,0.146l-0.095,0.124l-0.029,0.062l0.023,0.094l-0.164,0.263l-0.002,0.08l0.013,0.044
	l-0.022,0.146l0.031,0.053l0.12,0.077l0.053,0.049l0.032,0.051l0.008,0.15l-0.036,0.185l-0.099,0.332l-0.1,0.872l0.031,0.163
	l0.168,0.41l0.014,0.046l-0.006,0.045l-0.022,0.084l-0.003,0.093l0.032,0.058l0.036,0.033l0.013,0.032l0.461,0.796l0.021,0.104
	l-0.004,0.076l0.018,0.076l0.049,0.142l0.021,0.035l0.082,0.08l-0.008,0.043l-0.026,0.035l-0.026,0.027l-0.011,0.018l-0.02,0.303
	l-0.053,0.31l-0.068,0.116l-0.194,0.08l-0.075,0.087l0.153-0.034l0.022,0.084l-0.031,0.136l-0.002,0.124l0.226,0.193l0.097,0.143
	l-0.05,0.155l0.075,0.059l0.056,0.076l0.036,0.093l0.016,0.105l-0.063,0.076l0.066,0.083l0.133,0.364l0.043,0.064l0.035,0.02
	l0.012,0.034l-0.021,0.111l-0.039,0.026l-0.153-0.007l-0.056,0.008l-0.356,0.596l-0.021,0.187l-0.045,0.123l-0.11-0.116
	l-0.096,0.081l-0.196,0.123l-0.092,0.079l-0.081-0.109l-0.09-0.064l-0.183-0.083l-0.117-0.023l-0.225,0.065l-0.714-0.095
	l-0.116-0.109l-0.096-0.017l-0.485-0.377l-0.64-0.349l-0.108-0.115l-0.06-0.149l-0.006-0.09l0.009-0.083l0.042-0.167l-0.001-0.092
	l-0.047-0.051l-0.066-0.038l-0.056-0.057l-0.072-0.36l0.133-0.299l0.232-0.218l0.223-0.115l0.799-0.167l0.045-0.042l0.012-0.047
	l0.027-0.021l0.092,0.036l0.164,0.008l0.214,0.046l0.067,0.038l0.057,0.056l0.028,0.052l0.018,0.044l0.024,0.037l0.087,0.097
	l0.06,0.042l0.066,0.005l0.04-0.027l0.082-0.075l0.036-0.004l0.021-0.074l0.089-0.121l0.107-0.065l0.074,0.09l0.098-0.08
	l0.031-0.105l-0.019-0.117l-0.052-0.118l-0.064-0.088l-0.151-0.158l-0.058-0.077l-0.094-0.234l-0.077-0.307l-0.043-0.32l0.008-0.272
	l0.061-0.204l0.002-0.084l-0.052-0.106l-0.04-0.045l-0.073-0.052l-0.03-0.042l-0.012-0.043l-0.026-0.147l-0.287-0.435l-0.085-0.259
	l0.064-0.227l-0.093-0.151l-0.033-0.203l0.048-0.144l0.15,0.027l-0.056-0.248l-0.014-0.131l0.015-0.136l0.064-0.252l0.01-0.068
	l0.005-0.132l0.011-0.073l0.011-0.271l-0.097-0.194l-0.176-0.109l-0.222-0.019l-0.241,0.059l-0.108-0.029l-0.095-0.143l-0.076-0.224
	l-0.009-0.045l0.094-0.154l0.043,0.006l0.046,0.021l0.57,0.048l0.217-0.041l0.258-0.187l0.099,0.124l0.144,0.038l0.163,0.011
	l0.234,0.062l0.083-0.02l0.084-0.029l0.082-0.013l0.087,0.021l0.102,0.064L554.78,653.207z M560.396,655.52l-0.141-0.046
	l-0.046-0.061l-0.002-0.113l-0.057-0.059l-0.036-0.049l-0.01-0.074l0.005-0.073l0.012-0.046l0.133-0.109l0.177-0.036l0.181,0.017
	l0.143,0.046l0.088,0.11l0.073,0.139l0.026,0.146l-0.056,0.133l-0.113,0.055l-0.184,0.028L560.396,655.52z M560.448,652.922
	l-0.257,0.111l-0.156-0.239l0.151-0.085l0.188-0.244l0.135-0.068l0.107,0.252L560.448,652.922z M624.448,685.031l-0.169,0.099
	l-0.068-0.126l-0.091,0.03l-0.089,0.018l-0.035-0.137l-0.004-0.127l0.059-0.105l0.158-0.069l0.644-0.118l-0.037,0.049l-0.021,0.04
	l-0.025,0.072l-0.131,0.177L624.448,685.031z M558.618,645.371l-0.05,0.005l-0.012-0.031l0.017-0.039l0.03-0.029l0.053,0.003
	l0.018,0.022l-0.02,0.05L558.618,645.371z M558.709,645.241l-0.034,0.007l0.007-0.02L558.709,645.241z M625.517,685.579l0.032,0.134
	l0.083,0.104l0.085,0.03l0.084,0.016l0.034,0.041l-0.07,0.104l-0.022,0.064l0.01,0.173l-0.038,0.098l0.103-0.001l0.076,0.036
	l0.213,0.22l0.012,0.048l0.018,0.075l0.029,0.806l0.04,0.16l0.054,0.102l0.22,0.248l0.054,0.115l0.226,0.875l0.119,0.225l0.329,0.21
	l0.221,0.323l0.051,0.031h0.035l0.021,0.017l0.005,0.08l-0.024,0.064l-0.046,0.056l-0.033,0.063l0.014,0.077l0.075,0.11l0.082,0.085
	l0.096,0.058l0.112,0.035l0.502,0.063l0.117,0.069l0.049,0.206l-0.257,0.396l-0.024,0.224l0.131,0.42l0.116,0.179l0.157,0.06
	l0.025,0.009l0.155,0.169l-0.13,0.293l-0.39,0.571l-0.092,0.203l-0.099,0.171l-0.053,0.163l0.046,0.185l0.115,0.164l0.423,0.41
	l0.063,0.089l0.04,0.081l0.057,0.068l0.109,0.054l0.317,0.039l0.095,0.03l0.052,0.057l0.08,0.087l0.009,0.334l0.103,0.137
	l0.188,0.114l0.051,0.046l0.056,0.076l0.021,0.067l0.017,0.178l0.031,0.112l0.048,0.068l0.07,0.045l0.374,0.137l0.056,0.041
	l0.105,0.184l0.075,0.041l0.146-0.219l0.078,0.008l0.127,0.147l0.211,0.162l0.053,0.062l0.031,0.104l0.029,0.205l0.064,0.087
	l0.077,0.031l0.177,0.001l0.518,0.213l0.131-0.015l0.213-0.382l0.307-0.389l0.024-0.037l0.038,0.037l0.108,0.052l0.059,0.02
	l0.057,0.007l0.236-0.088l0.046-0.013l0.037-0.003l0.141-0.022l0.065,0.014l0.029,0.052l0.017,0.231l0.042,0.119l0.06,0.101
	l0.084,0.086l0.109,0.077l0.108,0.055l0.05,0.033l0.025,0.043l-0.014,0.073l-0.077,0.155l-0.006,0.058l0.089,0.045l0.152,0.026
	l0.118,0.048l-0.013,0.104l-0.025,0.076l-0.015,0.636l-0.027,0.081l-0.053,0.115l-0.011,0.116l0.028,0.19l0.142,0.368l-0.014,0.097
	l0.074,0.271l0.073,0.161l0.052,0.08l0.073,0.08l0.099,0.069l0.118,0.052l0.244,0.066l0.099,0.04l0.069,0.089l0.02,0.12l0.004,0.112
	l0.023,0.063l0.062,0.08l0.063,0.358l0.181,0.377l0.092,0.116l0.054,0.139l0.237,0.219l0.239,0.315l0.058,0.116l-0.098,0.062
	l-0.15,0.035l-0.077,0.003l-0.075-0.012l-0.078-0.038l-0.15-0.123l-0.041-0.018l-0.176,0.034l-0.116-0.085l-0.232-0.423
	l-0.056-0.058l-0.066-0.039l-0.09-0.038l-0.066-0.061l-0.068-0.095l-0.072-0.079l-0.083-0.011l-0.073,0.091l-0.036,0.147
	l-0.006,0.146l0.016,0.088l0.039,0.04l0.106,0.047l0.043,0.035l0.038,0.077l0.046,0.177l0.042,0.072l0.082,0.102l0.049,0.104
	l0.015,0.119l-0.15,0.77l-0.025,0.307l0.031,0.313l0.041,0.157l0.035,0.072l0.043,0.038l0.062,0.028l0.019,0.035l0.003,0.046
	l0.104,0.287l0.007,0.039l-0.006,0.084l0.006,0.039l0.021,0.02l0.058-0.004l0.018,0.021l0.006,0.137l-0.033,0.12l-0.119,0.229
	l-0.018,0.051l-0.008,0.051l-0.014,0.049l-0.033,0.048l-0.068,0.03l0,0l-0.074,0.006l-0.069,0.014l-0.054,0.058l-0.021,0.062
	l-0.029,0.122l-0.024,0.062l-0.037,0.056l-0.078,0.09l-0.035,0.073l-0.191,1.018l-0.022,0.054l-0.052,0.1l-0.017,0.059l0.006,0.09
	l0.023,0.074l0.008,0.08l-0.016,0.039l-0.044-0.02l-0.222-0.128l-0.213-0.085l-0.106-0.063l-0.024-0.075l-0.001-0.074l-0.023-0.131
	l-0.064-0.23l-0.052,0.034l-0.19,0.261l-0.452,0.616l-0.449,0.618L632,709.052l-0.447,0.611l-0.219,0.302l-0.151,0.168l-0.061,0.033
	l-0.123,0.07l-0.389,0.152l-0.31,0.167l-0.384,0.207l-0.382,0.208l-0.384,0.207l-0.381,0.207l-0.383,0.208l-0.381,0.204
	l-0.381,0.206l-0.381,0.207l-0.394,0.108l-0.394,0.106l-0.394,0.107l-0.393,0.107l-0.394,0.108l-0.393,0.106l-0.393,0.106
	l-0.392,0.107l-0.373,0.103l-0.274,0.038l-0.091,0.014l-0.51-0.056l-0.696-0.077l-0.696-0.076l-0.696-0.075l-0.696-0.077
	l-0.695-0.075l-0.696-0.076l-0.695-0.075l-0.695-0.076l-0.153-0.017l-0.214-0.022l-0.111,0.006l-0.5,0.179l-0.796,0.518
	l-0.322,0.106l-0.103,0.052l-0.285,0.261l-0.101,0.069l-0.234,0.061l-0.089,0.052l-0.052,0.126l0.011,0.135l0.047,0.104l0.024,0.116
	l-0.054,0.163l-0.092,0.094l-0.087-0.003l-0.092-0.023l-0.105,0.032l-0.079,0.002l-0.002-0.13l0.086-0.406l0.001-0.104l-0.035-0.091
	l-0.175-0.184l-0.091-0.07l-0.091-0.016l-0.096,0.082l-0.011,0.039l-0.017,0.127l-0.029,0.062l-0.138,0.23l-0.156,0.198
	l-0.016,0.022l-0.18,0.183l-0.08,0.101l-0.057,0.105l-0.081,0.207l-0.029,0.127l-0.026,0.055l-0.048,0.013l-0.065-0.02l-0.026-0.003
	l-0.014,0.026l-0.029,0.073l-0.092,0.403l-0.073,0.094l-0.17,0.073l-0.048,0.009l-0.071,0.001l-0.039,0.01l-0.093,0.084
	l-0.078,0.091l-0.218,0.396l-0.016,0.039l-0.029,0.015l-0.083,0.007l-0.07-0.012l-0.059-0.024l-0.059-0.013l-0.072,0.035
	l-0.061,0.081l-0.133,0.34l-0.152,0.226l-0.577,0.567l-0.145,0.223l-0.085,0.089l-0.12,0.039l-0.086,0.098l-0.08,0.216l-0.047,0.229
	l0.012,0.141l0.078,0.141l-0.049,0.086l-0.115,0.065l-0.12,0.096l-0.055,0.098l-0.041,0.115l-0.049,0.105l-0.078,0.066l-0.168,0.032
	l-0.067,0.013l-0.508-0.027l-0.248,0.026l-0.308,0.12l-0.145,0.097l-0.114,0.126l-0.059,0.157l0.003,0.31l-0.03,0.147l-0.093,0.084
	l-0.12-0.03l-0.122-0.065l-0.105-0.022l-0.086,0.064l-0.162,0.245l-0.08,0.1l-0.181,0.088l-0.188,0.062l-0.045-0.149l-0.033-0.073
	l-0.039-0.055l-0.046-0.033l-0.084-0.019l-0.048-0.023l-0.072-0.066l-0.13-0.149l-0.075-0.061l-0.116-0.059l-0.221-0.107
	l-0.093-0.093l-0.026-0.13l-0.003-0.146l-0.02-0.14l-0.028-0.056l-0.075-0.09l-0.026-0.058l-0.006-0.063l0.014-0.128l-0.005-0.064
	l-0.052-0.116l-0.072-0.113l-0.05-0.122l0.015-0.138l0.026-0.113l0.002-0.007l-0.012-0.346l0.078-0.364l-0.041-0.316l0.052-0.121
	l0.199-0.174l0.044-0.076l-0.005-0.067l-0.069-0.119l-0.113-0.062l-0.021-0.035l-0.043-0.097l-0.027-0.041l-0.126-0.413
	l-0.099-0.149l-0.18-0.066l-0.208,0.029l-0.362-0.055l-0.161-0.128l-0.06-0.211l-0.03-0.233l-0.066-0.197l-0.109-0.106l-0.12-0.069
	l-0.115-0.084l-0.096-0.154l-0.063-0.133l-0.075-0.285l-0.05-0.137l-0.068-0.079l-0.087-0.074l-0.068-0.073l-0.005-0.078
	l-0.017-0.002l-0.204-0.075l-0.061-0.006l-0.059,0.002L602.731,714l-0.071,0.059l-0.126,0.176l-0.07,0.069l-0.112,0.058
	l-0.493,0.141l-0.242,0.02l-0.065,0.025l-0.039-0.016l-0.084-0.044l-0.066-0.077l-0.157-0.262l-0.038-0.104l0.005-0.145l0.056-0.088
	l1.013-0.67l0.102-0.098l-0.231-0.087l-0.233-0.039l-0.158-0.112l-0.002-0.31l0.02-0.053l0.061-0.102l0.019-0.055l0.002-0.088
	l-0.028-0.175l0.004-0.084l0.048-0.103l0.002-0.006l0.097-0.122l0.108-0.11l0.087-0.065l0.095-0.022l0.1,0.017l0.1,0.043
	l0.094,0.061l0.083,0.093l0.15,0.241l0.08,0.071l0.123-0.006l0.125-0.075l0.121-0.098l0.106-0.065l0.451-0.004l0.115-0.062
	l0.021-0.055l0.003-0.006l-0.016-0.051l-0.03-0.056l-0.019-0.083l0.006-0.056l0.041-0.109l0.014-0.055l0.003-0.14l-0.023-0.238
	l0.023-0.131l0.025-0.039l0.036-0.029l0.033-0.036l0.018-0.061l0.014-0.124l0.013-0.048l0.022-0.059l0.028-0.047l0.074-0.097
	l0.03-0.053l0.02-0.067l0.016-0.128l0.024-0.065l0.008-0.062l-0.033-0.046l-0.04-0.045l-0.015-0.058l0.018-0.045l0.099-0.139
	l0.051-0.106l0.022-0.058l0.009-0.058l-0.015-0.06l-0.063-0.083l-0.017-0.049l0.036-0.128l0.076-0.106l0.049-0.097l-0.042-0.101
	l-0.159-0.159l-0.059-0.093l-0.025-0.039l0,0l0.006-0.048l0.01-0.048l0.038-0.052l0.082-0.013l0.057-0.052l0.056-0.07l0.077-0.056
	l-0.112,0.138l-0.032,0.03l-0.017,0.138l0.078-0.022l0.098-0.171l0.083-0.059l0.069,0.233l0.077,0.003l0.379,0.104l0.057,0.039
	l0.035,0.034l0.034,0.022l0.054,0.002l0.169-0.096l0.031-0.012l0.359-0.361l0.083-0.056l0.097,0.084L606,708.233l-0.143,0.262
	l0.066-0.008l0.053-0.04l0.052-0.05l0.063-0.044l0.061-0.018l0.197-0.034l0.109-0.062l0.095-0.098l0.078-0.118l0.11-0.214
	l0.16-0.171l0.284-0.228l0.087-0.095l-0.008-0.13l0.07-0.124l0.153-0.196l0.05-0.098l0.384-0.52l0.188-0.168l0.027-0.034
	l0.097-0.101l0.071-0.127l0.237-0.29l0.095-0.071l0.215-0.102l0.083-0.084l0.063-0.14l0.073-0.282l0.016-0.244l-0.003-0.043
	l-0.108-0.05l-0.051-0.036l-0.03-0.045l-0.014-0.144l0.032-0.372l-0.013-0.151l-0.001-0.09l0.024-0.09l0.14-0.346l0.077-0.299
	l0.027-0.078l0.082-0.116l0.039-0.077l-0.008-0.048l0.002-0.029l-0.021-0.136l-0.009-0.026l0.009-0.045l-0.003-0.038l0.005-0.047
	l0.032-0.072l0.049-0.052l0.051-0.033l0.033-0.048l-0.008-0.095l0.112-0.058l0.087,0.016l0.076-0.011l0.078-0.128l0.064-0.048h0.097
	l0.105-0.021l0.085-0.11l-0.365,0.042l-0.042,0.013l-0.033,0.045l-0.045,0.104h-0.042l-0.162-0.075l-0.055,0.03l-0.027,0.043
	l-0.098,0.123l-0.136,0.219l-0.074,0.17l-0.038,0.191l0.023,0.4l-0.061,0.188l-0.528,1.123l-0.145,0.215l-0.059,0.046l-0.203,0.109
	l-0.061,0.011l-0.089-0.014l-0.212,0.025l-0.076-0.02l-0.037-0.058l0.003-0.095l-0.033-0.037l-0.108-0.043l-0.029-0.034
	l-0.038-0.092l0.012-0.114l0.101-0.057l0.189-0.039l0.093-0.102l0.056-0.078l0.07-0.025l0.137,0.055l0.021,0.042l0.009,0.067
	l0.018,0.065l0.052,0.034l0.06-0.009l0.041-0.038l0.021-0.063l-0.003-0.081l-0.071,0.113l-0.054-0.062l-0.06-0.202l-0.112-0.042
	l-0.119,0.006l-0.08-0.013l0.006-0.098l0.071-0.121l0.189-0.204l0.077-0.133l0.047-0.064l0.055-0.005l0.061,0.017l0.061,0.003
	l0.054-0.026l0.174-0.139l-0.05-0.011l-0.032,0.005l-0.077,0.037l-0.048-0.002l-0.093-0.064l-0.046-0.02l-0.073,0.016l-0.071,0.051
	l-0.465,0.55l-0.55,0.39l-0.225,0.116l-0.188-0.004l-0.066,0.059l-0.057,0.036l-0.058,0.008l-0.045-0.027l-0.017-0.037l-0.003-0.048
	l-0.009-0.054l-0.055-0.078l-0.064,0.02l-0.054,0.09l-0.029,0.129l0.011,0.027l0.067,0.238l-0.002,0.059l-0.021,0.07l-0.056,0.126
	l-0.07,0.028l-0.103-0.081l-0.164-0.212l-0.122-0.326l-0.052-0.09l-0.033-0.11l-0.019-0.044l-0.025-0.026l-0.081-0.063l-0.039-0.042
	l-0.127-0.247l-0.226-1.038l-0.223-0.688l-0.132-0.149l-0.109-0.164l-0.16-0.081l-0.216-0.251l-0.07-0.101l-0.119-0.338l-0.089-0.11
	l-0.076-0.042l-0.054-0.047l-0.016-0.075l0.049-0.222l-0.003-0.112l-0.025-0.186l-0.035-0.125l-0.112-0.281l-0.007-0.051
	l0.001-0.077l0.012-0.064l0.029-0.017l0.034,0.033l0.008,0.037v0.033l0.01,0.026l0.11,0.106l0.056,0.038l0.02,0.033l-0.016,0.117
	l0.032,0.121l0.124,0.062l0.204,0.019l0.341-0.109l0.234-0.013l0.266-0.146l0.174-0.34l0.001-0.225l0.033-0.211l0.004-0.058
	l0.046-0.052l0.058,0.017l0.086-0.007l0.07-0.142l0.045-0.163l0.113-0.727l0.023-0.299l0.011-0.131l-0.007-0.119l-0.02-0.097
	l-0.014-0.146l0.02-0.424l-0.025-0.146l0.007-0.091l0.027-0.095l0.046-0.059l0.229-0.056l0.033-0.155l0.069-0.18l0.063-0.025
	l0.083-0.033l0.068,0.014l0.08,0.047l0.052-0.067l0.031-0.09l0.057-0.115l0.064-0.092l0.032-0.154l0.054-0.077l0.105-0.004
	l0.049-0.156l-0.049-0.337l-0.125-0.608l-0.038-0.668l0.017-0.377l0.005-0.219l0.081-0.11l0.088-0.04l0.097-0.035l0.098-0.052
	l0.061-0.04l0.061-0.04l0.097-0.052l0.091-0.055l0.037-0.045l0.063,0.004l0.06,0.066l0.069,0.039l0.09-0.015l0.076,0.003
	l0.067,0.062l0.069,0.008l0.069,0.005l-0.032,0.05l0.07,0.104l0.072,0.049l0.083-0.03l0.044,0.001l0.061-0.039l0.061,0.009
	l0.014,0.116l0.037,0.037l0.085,0.064l0.145,0.009l0.152-0.061l0.168-0.085l0.219-0.348l0.065-0.112l0.219-0.368l0.21-0.261
	l0.22-0.22l0.13-0.149l0.037-0.02l0.059-0.016l0.074,0.025l0.074,0.01l-0.051,0.168l0.02,0.168l0.104,0.151l0.121,0.092l0.261,0.16
	l0.029-0.074l-0.12-0.128l-0.132-0.124l-0.101-0.058l-0.043-0.107l0.014-0.208l-0.007-0.185l-0.056-0.074l-0.011-0.09l0.051-0.151
	l0.016-0.209l0.054-0.19l0.006-0.239l-0.038-0.188l0.043-0.301l0.087-0.06l0.106,0.045l0.223-0.072l0.269-0.209l0.093-0.084
	l0.046-0.078l0.097-0.112l0.083-0.079l0.125,0.013l0.114-0.092l0.118-0.102l0.05,0.156l0.133-0.008l0.162-0.049l0.189-0.049
	l0.452-0.244l0.385-0.253l0.147-0.076l0.12-0.085l0.063-0.059l0.042-0.01l0.041,0.007l0.132,0.025l0.235-0.157l0.185-0.154
	l0.252-0.261l0.095-0.13l0.143-0.248l0.311-0.406l0.156-0.112l0.038-0.046l0.028-0.011l0.032,0.057l0.001,0.04l-0.012,0.05
	l-0.042,0.093l0.037,0.021l0.06-0.063l0.134-0.073l0.049-0.04l0.042-0.073l0.008-0.062l-0.009-0.107l0.047-0.273l0.049-0.125
	l0.072-0.113l0.106-0.107l0.083-0.04l0.083-0.024l0.11-0.06l0.097-0.104l0.06-0.122l0.038-0.111l0.087-0.168l0.006-0.089
	l-0.037-0.08l-0.077-0.064l-0.042-0.062l0.008-0.088l0.037-0.097l0.048-0.091l0.178-0.225l0.232-0.188l0.255-0.125l0.243-0.039
	l0.047,0.094l0.064,0.051l0.173,0.079l0.09,0.02l0.173-0.039l0.082,0.017l0.08,0.028l0.163,0.021l0.177,0.062l0.15-0.021l0.074,0.02
	l0.052,0.002l0.248-0.039l0.065-0.019l0.14-0.062l0.066-0.017l0.161,0.011l0.368,0.071l0.204-0.022l-0.017,0.067l-0.036,0.049
	l-0.356,0.268l-0.04,0.092l0.004,0.068l0.02,0.067l0.012,0.088l-0.047,0.178l0.002,0.061l0.107-0.28l-0.018-0.093l0.006-0.045
	l0.023-0.029l0.063-0.033l0.028-0.026l0.097-0.135l0.089-0.093l0.101-0.047l0.127-0.002l0.157,0.187l0.338-0.006l0.584-0.13
	l0.126,0.03l0.316,0.229l0.05,0.014l0.147,0.018l0.054,0.018l0.13,0.079l0.069,0.024l0.078,0.002l0.063,0.133l0.152,0.061
	l0.178,0.028l0.146,0.041l0.128,0.002l0.769-0.304l0.103-0.002l0.083,0.113l0.028,0.139l-0.022,0.142l-0.068,0.146l-0.105,0.15
	h0.134l0.11-0.046l0.098-0.085l0.193-0.218l0.076-0.042l0.081-0.022l0.112-0.049l-0.02,0.054l0.012,0.036l0.041,0.02l0.069,0.001
	l0.077-0.018l0.036-0.032l0.029-0.042l0.062-0.045l0.152-0.049l0.09,0.032l0.144,0.193l0.023-0.097l-0.067-0.074l-0.091-0.069
	l-0.049-0.079l0.024-0.092l0.069-0.059l0.09-0.035l0.328-0.088l0.082-0.051l0.059-0.081l0.038-0.078l0.053-0.052l0,0l0.119,0.371
	l-0.019,0.208l0.045,0.206l-0.02,0.116l-0.042,0.142L625.517,685.579z M559.043,643.342l-0.047-0.016l0.021-0.063l0.061-0.01
	l0.012,0.043L559.043,643.342z"/></svg>