<?xml version="1.0" encoding="utf-8"?>
<!-- Generator: Adobe Illustrator 15.0.0, SVG Export Plug-In . SVG Version: 6.00 Build 0)  -->
<!DOCTYPE svg PUBLIC "-//W3C//DTD SVG 1.1//EN" "http://www.w3.org/Graphics/SVG/1.1/DTD/svg11.dtd">
<svg version="1.1" id="Ebene_1" xmlns="http://www.w3.org/2000/svg" xmlns:xlink="http://www.w3.org/1999/xlink" x="0px" y="0px"
	 width="1920px" height="1080px" viewBox="0 0 1920 1080" enable-background="new 0 0 1920 1080" xml:space="preserve">

<path fill="#F4E0B6" stroke="#FFFFFF" d="M748.318,727.797l-0.142,0.074l-0.489,0.111l-0.293,0.129l-0.074,0.049l-0.089,0.061
	l-0.148,0.188l-0.045,0.02l-0.095,0.02l-0.036,0.023l-0.038,0.057l-0.03,0.025l-0.394,0.195l-0.152,0.112l-0.065,0.07l-0.055,0.087
	l-0.056,0.238l-0.044,0.075l-0.035,0.017l-0.165,0.035l-0.044,0.042l-0.017,0.061l-0.005,0.093l-0.297,0.672l-0.019,0.081
	l0.024,0.051l0.04,0.042l0.03,0.053l0.009,0.132l-0.039,0.094l-0.062,0.096l-0.056,0.136l-0.022,0.212l-0.021,0.066l-0.099,0.226
	l-0.063,0.083l-0.178,0.151l-0.075,0.132l-0.183,0.636l-0.016,0.426l-0.064,0.261l-0.058,0.143l-0.071,0.078l-0.096,0.074
	l-0.024,0.105l0.021,0.104l0.036,0.077l0.131,0.136l0.027,0.07l-0.033,0.125l-0.05,0.077l-0.145,0.156l-0.058,0.076l-0.055,0.14
	l0.002,0.118l0.082,0.258l0.005,0.069l-0.036,0.221l0.008,0.066l0.036,0.099l0.015,0.056v0.319l0.061,0.105l-0.001,0.059
	l0.018,0.006l0.005,0.085l-0.004,0.134l0.016,0.094l0.018,0.035l0.039,0.059l0.132,0.143l0.032,0.065l0.02,0.225l0.021,0.09
	l-0.08,0.448l0.02,0.259l-0.011,0.035l0.053,0.017l0.059,0.01l0.053,0.019l0.033,0.043l0.03,0.116l-0.004,0.086l-0.044,0.081
	l-0.093,0.108l-0.14,0.215l-0.17,0.435l-0.174,0.183l-0.26,0.118l-0.054,0.064l-0.055,0.093l-0.079,0.094l-0.093,0.07h-0.004
	l-0.213,0.049l-0.219,0.163l-0.279,0.156l-0.12,0.091l-0.221,0.234l0.116,0.038l0.015,0.11l-0.045,0.135l-0.063,0.114l-0.018,0.008
	l-0.027,0.001l-0.029,0.007l-0.023,0.026l0.007,0.01l0.027,0.062l0.003,0.022l-0.032,0.151l-0.027,0.084l-0.036,0.024l-0.07,0.008
	l-0.011,0.096l0.02,0.098l0.021,0.022l-0.032,0.08l-0.11,0.155l-0.029,0.025l-0.114,0.08l-0.045,0.056l-0.03,0.058l-0.008,0.044
	l0.011,0.054l0.034,0.096l-0.072,0.006l-0.052,0.03l-0.189,0.225l-0.075,0.065l-0.584,0.373l-0.342,0.316l-0.431,0.464l-0.136,0.097
	l-0.344,0.149l-0.068-0.004l-0.076-0.027l-0.103-0.057l-0.064,0.005l-0.061,0.008l-0.299,0.32l-0.074,0.021l-0.097-0.04
	l-0.129-0.146l-0.073-0.024l-0.125,0.07l-0.103-0.014l-0.099-0.029l-0.091-0.048l-0.083-0.068l-0.039-0.066l0.009-0.052l0.03-0.052
	l0.021-0.065l0.017-0.153l0.075-0.094l0.015,0.002l0.023,0.014l0.027,0.003l0.023-0.031l0.009-0.035l0.008-0.072l0.009-0.038
	l0.047-0.116l-0.008-0.038l-0.043-0.079l-0.08-0.105l-0.08-0.039l-0.093,0.007l-0.103,0.009l-0.267-0.047l-0.142-0.179l-0.209-0.803
	l0.004-0.064l0.05-0.07l0.139-0.062l0.065-0.059v-0.07l-0.087-0.035l-0.23-0.014l-0.125,0.02l-0.262,0.087l-0.211,0.006
	l-0.047-0.006l-0.034-0.025l-0.016-0.067l0.066-0.1l0.002-0.065l-0.165-0.073l-0.528,0.142l-0.104-0.068l-0.017-0.113l-0.058-0.074
	l-0.085-0.039l-0.098-0.005l-0.119,0.05l-0.074,0.092l-0.06,0.097l-0.078,0.067l-0.164-0.004l-0.163-0.099l-0.166-0.13l-0.169-0.1
	l-0.275-0.119l-0.082-0.064l-0.095-0.056l-0.216,0.003l-0.414-0.094l-0.082-0.076l-0.026-0.074l0.003-0.155l-0.011-0.068
	l-0.03-0.055l-0.28-0.283l-0.057-0.091l-0.133-0.396l-0.069-0.129l-0.104-0.072l-0.065-0.01l-0.044,0.015l-0.08,0.08l-0.161,0.213
	l-0.119,0.251l-0.069,0.085l-0.249,0.171l-0.056,0.027h-0.069l-0.051-0.035l-0.026-0.054l-0.031-0.047l-0.064-0.016l-0.102,0.058
	l-0.146,0.123l-0.133,0.136l-0.062,0.098l0.033,0.074l0.194,0.129l0.074,0.074l0.042,0.148l-0.062,0.248l0.006,0.157l0.076,0.175
	l0.02,0.066l0.042,0.358l0.081,0.258l0.005,0.084l-0.02,0.081l-0.032,0.048l-0.04,0.043l-0.049,0.064l-0.111,0.258l-0.079,0.244
	l-0.121,0.191l-0.233,0.106l-0.357-0.061l-0.257-0.239l-0.222-0.31l-0.253-0.266l-0.23-0.109l-0.068-0.054l-0.067-0.095
	l-0.104-0.226l-0.068-0.097l-0.083-0.064l-0.154-0.036l-0.092-0.037l-0.06-0.056l-0.189-0.244l0.016-0.075l-0.002-0.071
	l-0.021-0.063l-0.079-0.094l-0.025-0.051l-0.014-0.057l-0.003-0.064l-0.122-0.21l-0.446-0.267l-0.096-0.135l-0.078-1.025
	l0.046-0.188l0.023-0.145l0.072-0.274l-0.006-0.143l-0.028-0.051l-0.095-0.082l-0.03-0.051l0.004-0.062l0.099-0.203l0.008-0.154
	l-0.08-0.269l0.013-0.122l0.067-0.063l0.036-0.054l0.004-0.067l-0.035-0.131l0.002-0.062l0.022-0.085l0.035-0.049l0.052-0.05
	l0.035-0.058l-0.013-0.072l-0.134,0.03l-0.077-0.01l-0.004-0.068l0.113-0.177l0.012-0.045l-0.037-0.229l0.002-0.063l0.041-0.097
	l0.057-0.061l0.044-0.061l0.003-0.088l-0.126,0.012l-0.021-0.054l0.077-0.235l0.004-0.127l-0.046-0.221l0.011-0.085l0.044-0.046
	l0.064-0.054l0.04-0.055l-0.032-0.051l-0.168-0.059l-0.021,0.005l0.021-0.124l0.174-0.155l-0.014-0.055l-0.06-0.019h-0.116
	l-0.048-0.011l-0.043-0.056l0.005-0.063l0.01-0.061l-0.025-0.045l0.009-0.066l0.077-0.322l0.068-0.031l0.104-0.029l0.086-0.051
	l0.018-0.094l-0.142-0.104l-0.038-0.073l0.072-0.052l0.047-0.036l0.019-0.047l0.01-0.056l0.024-0.071l0.023-0.012l0.062,0.041
	l0.026-0.014l0.014-0.045l0.012-0.083l0.016-0.045l0.016-0.146l-0.037-0.134l0.007-0.123l0.146-0.123l-0.01-0.019l-0.002-0.004
	l0.002-0.006l-0.001-0.021l-0.047,0.017l-0.055,0.01l-0.053-0.009l-0.042-0.034l-0.029-0.073l0.026-0.031l0.05-0.027l0.044-0.059
	l0.013-0.156l0.019-0.065l0.036-0.066l0.078-0.099l0.037-0.063l0.016-0.075l-0.006-0.061l0.011-0.053l0.07-0.046l0.023-0.031
	l0.102-0.187l0.022-0.084l0.021-0.345l-0.208,0.057l-0.133-0.044l-0.099-0.113l-0.107-0.155l-0.042,0.102l-0.054,0.03l-0.147-0.031
	l-0.02,0.012l-0.05,0.02l-0.045,0.004l-0.003-0.034l0.003-0.033l-0.02-0.032l-0.032-0.028l-0.035-0.021l-0.015-0.04l-0.038-0.074
	l-0.051-0.046l-0.096,0.084l-0.045-0.017l-0.041-0.044l-0.095-0.175v-0.001l-0.051-0.096l-0.112-0.103l-0.029-0.04l-0.011-0.037
	l-0.001-0.036l0.011-0.075l0.019-0.063l0.024-0.043l0.07-0.086l0.02-0.035l0.023-0.072l0.017-0.036l0.146-0.122l0.054-0.094
	l-0.025-0.144l-0.063-0.119l-0.012-0.02l-0.001-0.022l-0.045-0.034l-0.016-0.024l-0.007-0.038l0.004-0.022l0.005-0.021l0.003-0.101
	l0.024-0.108l0.003-0.049l-0.108-0.229l-0.165-0.234l-0.047-0.1l-0.002-0.13l0.03-0.129l0.106-0.254l0.031-0.114l0.024-0.3
	l-0.032-0.529l-0.024-0.145l-0.158-0.447l-0.027-0.226l0.048-0.214l0.165-0.49l0.055-0.262l0.063-0.108l0.118-0.078l0.62-0.259
	l0.093-0.063l0.081-0.089l0.075-0.131l0.031-0.095l0.015-0.094l0.027-0.094l0.065-0.087l0.084-0.058l0.084-0.039l0.077-0.047
	l0.118-0.158l0.197-0.191l0.148-0.108l0.202-0.232l0.146-0.092l0.082-0.072l0.054-0.098l0.008-0.115l-0.031-0.247l0.047-0.253
	l-0.045-0.101l-0.052-0.085l0.002-0.093l0.117-0.16l0.129-0.082l0.132-0.058l0.102-0.056l0.178-0.128l0.051-0.02l0.064,0.016
	l0.036,0.038l0.03,0.049l0.049,0.045l0.117,0.042l0.075-0.021l0.139-0.111l0.186-0.07l0.19-0.003l0.172,0.081l0.13,0.188
	l0.235,0.024l0.112,0.037l0.117,0.056l0.016,0.031l0.032,0.114l0.021,0.034l0.061,0.026l0.087,0.014l0.371,0.154l0.129,0.026
	l0.059,0.006l0.043-0.004l0.047,0.004l0.068,0.023l0.034,0.03l0.026,0.039l0.034,0.023l0.06-0.006l-0.079-0.266l0.009-0.068
	l0.039-0.067l0.042-0.054l0.151-0.142l0.102-0.136l0.065-0.056l0.063-0.003l0.078,0.046l0.046,0.054l0.012,0.074l-0.027,0.12
	l0.085,0.003l0.094-0.007l0.082-0.032l0.058-0.062l0.018-0.125l-0.046-0.296l0.012-0.106l0.002-0.013l-0.004-0.043l-0.036-0.041
	l-0.052-0.024l-0.05,0.005l-0.031,0.047l-0.002,0.064l0.016,0.088l-0.029,0.028l-0.04,0.007l-0.042-0.016l-0.032-0.035l-0.009-0.042
	l0.012-0.045l0.169-0.372l-0.007-0.022l-0.029-0.015l-0.038-0.037l-0.078-0.004l-0.04-0.022l0.006-0.06l0.043-0.05l0.063-0.035
	l0.338-0.138l0.085-0.059l0.076-0.113l0.059-0.109l0.055-0.076l0.092-0.086l0.096-0.041l0.061-0.023l0.173,0.017l0.086-0.024
	l0.072-0.042l0.065-0.059l0.375-0.507l0.257-0.486l0.113-0.155l0.072-0.126l0.153-0.184l0.12-0.116l0.225-0.161l0.045-0.049
	l0.047-0.032l0.05-0.01l0.111,0.035l0.041-0.008l0.035-0.011l0.028,0.004l0.027-0.004l0.09-0.043l0.036-0.012l0.053,0.006
	l0.049,0.016l0.074-0.032l0.038,0.005l0.104,0.106l0.236,0.228l0.151,0.11l0.218,0.122l0.336,0.209l0.184,0.117l0.06,0.077
	l0.089,0.178l0.062,0.085l0.072,0.073l0.197,0.138l0.418,0.397l0.239,0.242l0.221,0.138l0.179,0.178l0.126,0.135l0.119,0.119
	l0.262,0.242l0.149,0.172l0.093,0.096l0.082,0.069l0.14,0.166l0.265,0.186l0.032,0.151l0.043,0.079l-0.007,0.084l-0.209,0.456
	l0.002,0.002l0.031,0.018l0.062-0.071l0.045-0.078l0.079-0.181l0.027-0.102l0.016-0.242l0.011-0.153l0.119-0.07l-0.024-0.071
	l-0.056-0.027l-0.052-0.026l-0.034-0.095l0.034-0.113l0.057-0.069l0.123-0.069l0.055-0.038l0.093-0.041l0.068-0.029l0.091-0.023
	l0.097,0.008l0.119,0.027l0.111,0.052l0.412,0.201l0.233,0.103l0.185,0.098l1.047,0.657l0.235,0.203l0.079,0.171l0.055,0.074
	l0.078,0.088l0.023,0.035l0.026,0.071l0.026,0.07l0.03,0.058l0.011,0.013l0.032,0.032l0.039,0.02l0.043,0.035l0.06,0.04l0.061,0.008
	l0.069,0.002l0.076,0.032l0.046,0.108l0.053,0.126l-0.001,0.097l-0.123,0.127l-0.105,0.051h0.008l0.145,0.02l0.095-0.097
	l0.058-0.116l0.042-0.026l0.099,0.053l0.091,0.203l0.08,0.073l0.066,0.017l0.048-0.009l0.039,0.01l0.067,0.128l0.035,0.029
	l0.042,0.01l0.051,0.007l0.047-0.007l0.04-0.022l0.043-0.014l0.059,0.016l0.037,0.033l0.033,0.052l0.049,0.112l-0.001-0.055
	l-0.011-0.059l-0.02-0.055l-0.026-0.044l-0.053-0.046l-0.044-0.016l-0.059,0.016l-0.068,0.01l-0.107-0.045l-0.045-0.09l-0.055-0.05
	l-0.093,0.008l-0.065-0.04l-0.037-0.103l-0.052-0.081l-0.218-0.229l-0.068-0.103l-0.049-0.103l-0.007-0.075l0.008-0.064l-0.01-0.051
	l0.054-0.039l0.053-0.009l0.15,0.01l0.153,0.05l0.187,0.086l0.137,0.075l1.052,0.63l0.071,0.068l0.18,0.131l0.157,0.133l0.836,0.645
	l0.486,0.446l0.386,0.338l0.311,0.349l0.274,0.287l0.098,0.07l0.045,0.053l0.118,0.052l0.006,0.06l0.038,0.046l0.002,0.068
	l-0.032,0.052l0.001,0.309l-0.016,0.109l-0.07,0.036l-0.214,0.187l-0.098,0.077l-0.117,0.201l-0.245,0.381l-0.141,0.186
	l-0.111,0.094l-0.134,0.073l-0.113,0.037l-0.065,0.031l-0.042,0.04l-0.072,0.089L748.318,727.797z"/></svg>