<?xml version="1.0" encoding="utf-8"?>
<!-- Generator: Adobe Illustrator 15.0.0, SVG Export Plug-In . SVG Version: 6.00 Build 0)  -->
<!DOCTYPE svg PUBLIC "-//W3C//DTD SVG 1.1//EN" "http://www.w3.org/Graphics/SVG/1.1/DTD/svg11.dtd">
<svg version="1.1" id="Ebene_1" xmlns="http://www.w3.org/2000/svg" xmlns:xlink="http://www.w3.org/1999/xlink" x="0px" y="0px"
	 width="1920px" height="1080px" viewBox="0 0 1920 1080" enable-background="new 0 0 1920 1080" xml:space="preserve">

<path fill="#F4E0B6" stroke="#FFFFFF" d="M1001.666,528.574l-0.018,0.039l-0.014,0.137l-0.041-0.061l-0.033-0.001l-0.033,0.023
	l-0.039,0.019l-0.05-0.012l-0.074-0.066l-0.05-0.012l-0.062,0.036l-0.05,0.064l-0.057,0.047l-0.08-0.015l-0.009-0.037l0.016-0.011
	l0.009-0.009l0.012-0.008l0.023-0.008l-0.024-0.097l0.077-0.15l0.011-0.091l-0.029-0.149l-0.002-0.066l0.015-0.077v-0.048
	l-0.01-0.033l0.002-0.021l0.065-0.022l0.065-0.056l0.05-0.086l0.079-0.088l0.033-0.06l0.071-0.326l0.045-0.141l0.091-0.11
	l0.148-0.108l0.111-0.038l0.052-0.036l0.053-0.023l0.057,0.021l-0.002,0.074l-0.024,0.193l0.021,0.067l0.024,0.035l0.038,0.082
	l0.023,0.031l0.027,0.012h0.06l0.026,0.014l0.022,0.026l0.029,0.043l0.013,0.042l-0.024,0.021l-0.015,0.018l-0.026,0.09l-0.02,0.02
	l-0.011,0.042l-0.007,0.048l-0.011,0.038l-0.015,0.02l-0.077,0.055l0.055,0.133l-0.052,0.08l-0.096,0.065l-0.073,0.088l0.016,0.062
	l-0.149,0.125l-0.033,0.057l-0.012,0.041l-0.04,0.023l-0.048,0.017L1001.666,528.574z"/></svg>