<?xml version="1.0" encoding="utf-8"?>
<!-- Generator: Adobe Illustrator 15.0.0, SVG Export Plug-In . SVG Version: 6.00 Build 0)  -->
<!DOCTYPE svg PUBLIC "-//W3C//DTD SVG 1.1//EN" "http://www.w3.org/Graphics/SVG/1.1/DTD/svg11.dtd">
<svg version="1.1" id="Ebene_1" xmlns="http://www.w3.org/2000/svg" xmlns:xlink="http://www.w3.org/1999/xlink" x="0px" y="0px"
	 width="1920px" height="1080px" viewBox="0 0 1920 1080" enable-background="new 0 0 1920 1080" xml:space="preserve">

<path fill="#F4E0B6" stroke="#FFFFFF" d="M631.67,605.849l-0.108-0.052l-0.044-0.043l-0.011-0.021l-0.006-0.024l0.023-0.025
	l0.029,0.021l0.004-0.033l0.017-0.062l0.004-0.032l0.088,0.026l0.06,0.032l0.123,0.093l-0.014,0.037l-0.067,0.058L631.67,605.849z
	 M632.118,605.394l0.031,0.04l0.135,0.06l0.063,0.043l-0.023,0.025l-0.103-0.022l-0.099,0.192l-0.117,0.013l-0.14-0.198
	l-0.042-0.114l0.076-0.063l0.125-0.034l0.06,0.004L632.118,605.394z M649.394,601.005l-0.028,0.051l0.029,0.021l0.021-0.026
	l0.02-0.007l0.018,0.001h0.016l0.065,0.049l-0.01,0.075l0.022,0.104l0.031,0.119l0.113,0.197l0.232,0.29l0.222,0.135l0.321,0.185
	l0.438,0.297l0.311,0.076l0.465,0.01l0.286,0.029l0.305,0.21l0.139,0.2l0.236,0.438l0.358,0.478l0.16,0.233l0.02,0.081l-0.067,0.031
	l-0.112,0.036l-0.055,0.061l-0.086,0.097l0.016,0.136l0.069,0.065l0.124,0.041l0.084-0.068l0.042-0.028l0.035,0.029l-0.016,0.069
	l0.029,0.095l0.112,0.056l0.085,0.079l0.172,0.162l0.072-0.016l0.084,0.02l-0.055-0.094l-0.08-0.091l-0.269-0.273l-0.074-0.133
	l-0.059-0.119l0.02-0.084l0.131,0.145l0.458,0.486l0.324,0.288l0.223,0.178l0.057,0.084l0.065,0.322l0.093,0.431l0.124,0.652
	l0.119,0.635l0.07,0.352l0.149,0.392l0.037,0.093l0.045,0.081l0.12,0.119l0.02,0.044l-0.006,0.057l-0.025,0.032l-0.043,0.002
	l-0.064-0.034l-0.047-0.075l-0.051-0.219l-0.079-0.116l-0.031-0.104l-0.023-0.042l-0.119-0.085l-0.042-0.05l-0.008-0.075
	l0.023,0.006h0.028l0.023,0.007l0.008-0.073l-0.007-0.232l-0.027-0.019l-0.061-0.01l-0.027-0.068l-0.017-0.084l-0.031-0.059
	l-0.089-0.048l-0.059-0.003l-0.059,0.016l-0.087-0.004l-0.01-0.035l-0.078-0.115l0.088-0.006l0.042-0.01l0.032-0.018l-0.011-0.022
	l-0.037-0.038l-0.045-0.035l-0.034-0.016l-0.048,0.035l-0.033,0.086l-0.017,0.104v0.093h-0.018h-0.006l-0.008,0.002l-0.021,0.008
	l-0.026-0.02l0.074-0.303l-0.003-0.079l-0.039-0.039l-0.061-0.027l-0.087-0.025l-0.044-0.038l-0.053-0.063l-0.043-0.037
	l-0.047,0.109l-0.001,0.049l0.051,0.075l-0.027,0.032l-0.052,0.035l-0.049,0.041l0.028,0.018l0.063-0.05l0.111,0.021l0.131-0.082
	l0.047,0.015l0.018,0.048l-0.059,0.165l-0.025,0.148l-0.055,0.105l-0.117-0.023l-0.081,0.014l-0.056,0.119l-0.026,0.155l0.007,0.116
	l0.056,0.123l0.068,0.082l0.07-0.012l0.063-0.14l0.019,0.077v0.085l-0.034,0.074l-0.088,0.039l-0.002,0.104l0.066,0.066l0.215,0.113
	l-0.023,0.026l-0.037-0.027l-0.032-0.012l-0.063-0.01L654,608.465l-0.024,0.09l-0.005,0.097l0.027,0.089l0.068,0.078l0.08,0.042
	l0.112,0.042l0.118,0.029l0.097,0.002l-0.009-0.083l-0.093-0.207l-0.005-0.047l0.009-0.035l0.001-0.03l-0.03-0.035l-0.041-0.032
	l-0.214-0.316l-0.022-0.066l0.02-0.191l-0.018-0.065l0.062-0.005l0.055,0.009l0.116,0.03l0.224,0.399l-0.013,0.119l-0.013,0.058
	l0.021,0.077l0.043,0.075l0.093,0.103l0.02,0.065l0.002,0.071l-0.008,0.073h-0.042l-0.055,0.003l-0.031-0.006l-0.021,0.024
	l0.054,0.06h0.088l0.047,0.025l-0.071,0.136l-0.136,0.139l-0.025,0.045l0.004,0.049l0.032,0.02l0.044-0.014l0.044-0.052l0.03,0.021
	l-0.031,0.101l0.049,0.005l0.165-0.066l0.092,0.01l0.103,0.035l0.157,0.081l0.033-0.006l0.07-0.096l0.032-0.027l0.041,0.003
	l0.023,0.02l0.021,0.029l0.216,0.229l0.078,0.034l-0.021,0.024l-0.044,0.006l-0.011,0.019l-0.002,0.026l-0.017,0.035l-0.103,0.116
	l-0.07,0.045l-0.068-0.007l-0.031-0.05l0.037-0.081l0.003-0.03l-0.022-0.037l-0.035-0.037l-0.033-0.025l-0.037-0.002l-0.053,0.021
	l-0.075,0.041l-0.036,0.008h-0.029l-0.03,0.01l-0.041,0.036l-0.021,0.044l0.017,0.022l0.037,0.007l0.037-0.001l0.009-0.048
	l0.017-0.028l0.029-0.019l0.038-0.012l0.029,0.02l-0.076,0.102l-0.032,0.087l0.026,0.062l0.104,0.024l0.042-0.007l0.086-0.032
	l0.045-0.008l0.047,0.003l0.231,0.062l0.01-0.014l0.019-0.055l0.004-0.035l-0.007-0.033l-0.003-0.039l0.018-0.051l0.035-0.065
	l0.036-0.096l-0.01-0.08l-0.105-0.015l-0.059-0.15l-0.048-0.053l-0.095-0.021l-0.001-0.042l0.021-0.01l0.05-0.028l-0.057-0.053
	l-0.12-0.181l-0.013-0.049l-0.003-0.074l-0.061-0.084l-0.031-0.079l0.085-0.053l0.091,0.015l0.034,0.076l0.01,0.09l0.025,0.06
	l0.031,0.045l0.242,0.515l0.366,0.567l0.08,0.287l-0.017,0.107l-0.154,0.296l-0.066,0.208l-0.023,0.224l0.04,0.178l0.328,0.529l0,0
	l-0.059-0.028l-0.128-0.103l-0.064-0.027l-0.145-0.027l-0.173-0.126l-0.02-0.008l-0.032-0.052l-0.012-0.041l0.021-0.018l0.066,0.01
	l-0.16-0.139l-0.072-0.045l-0.093-0.005l0.025-0.065l-0.021-0.055l-0.034-0.055l-0.017-0.073l-0.097,0.041l-0.119,0.023l-0.12-0.011
	l-0.103-0.055l-0.02-0.045l0.013-0.106l-0.005-0.033l-0.044-0.045l-0.044-0.024l-0.031,0.01l-0.006,0.058l-0.043,0.013l-0.028,0.02
	l-0.053,0.058l-0.009-0.062h-0.037l-0.046,0.042l-0.033,0.062l-0.013-0.026l-0.045-0.058l-0.001,0.019l-0.013,0.034l-0.004,0.021
	l-0.072-0.024l-0.166,0.006l-0.127-0.032l-0.057,0.028l-0.054,0.047l-0.06,0.037l-0.03-0.022l0.003-0.064l-0.056-0.071l-0.085-0.067
	l-0.087-0.045l-0.104-0.02l-0.054,0.033l-0.06,0.141l-0.03-0.021l0.014-0.045l-0.014-0.038l-0.037-0.034l-0.053-0.032l-0.045,0.066
	l-0.11-0.026l-0.234-0.144l-0.011,0.065l0.003,0.033l0.013,0.042l-0.075-0.052l-0.1-0.03l-0.104-0.013l-0.085,0.009l0.001-0.045
	l-0.005-0.02l-0.012-0.016l-0.02-0.032l-0.012,0.052l-0.01,0.02l-0.039-0.048l-0.007-0.112l-0.026-0.06l-0.099,0.077l-0.032,0.034
	l-0.008,0.048l-0.413-0.259l-0.062-0.056l0.019-0.037l-0.011-0.023l-0.069-0.047l-0.037-0.034l-0.003-0.025l0.005-0.024l-0.043-0.12
	l-0.031-0.02l-0.074,0.004l-0.035,0.125l-0.004,0.056l0.006,0.058l-0.026,0.029l-0.042-0.003l-0.015-0.014l-0.011-0.022
	l-0.029-0.029l-0.043-0.017l-0.035,0.001l-0.033,0.007l-0.035-0.002l-0.122-0.043l-0.063-0.037l-0.032-0.054l-0.009-0.164
	l-0.01-0.046l-0.018-0.046l-0.039-0.058l-0.054-0.031l-0.063,0.031l-0.142,0.199l-0.097,0.071l-0.119-0.016l-0.042-0.035
	l-0.079-0.09l-0.057-0.049l-0.012-0.042l0.062-0.122l-0.005-0.065l-0.119,0.036l-0.143,0.061l-0.151,0.035l-0.194-0.057
	l-0.153-0.018l-0.056-0.019l-0.046-0.062l-0.012-0.064l-0.022-0.052l-0.077-0.025l0.08-0.068l0.041-0.017l-0.286-0.218l-0.075-0.081
	l-0.099-0.174l-0.07-0.063l-0.112-0.012l0.059-0.178l0.017-0.094l-0.035-0.11l0.051-0.051l0.031-0.055l-0.071-0.067l0.01-0.006
	l0.065-0.015l0.021-0.003l0.024-0.136l-0.032-0.125l-0.079-0.104l-0.11-0.07l-0.278-0.13l-0.098-0.01l-0.336,0.037l-0.115-0.002
	l-0.099-0.005l-0.013-0.001l-0.099,0.01l-0.091,0.036l-0.151,0.131l-0.034,0.015l-0.03-0.007l-0.078-0.027l-0.012,0.053l0.045,0.158
	l-0.161,0.017l-0.05,0.013l0.105,0.074l-0.018,0.01l-0.072,0.035l-0.267,0.035l-0.12-0.022l-0.024-0.098l-0.005-0.112l-0.058-0.07
	l-0.082,0.034l-0.115,0.097l-0.188,0.191l-0.038,0.016l-0.178,0.027l-0.028,0.021l-0.044,0.067l-0.027,0.022l-0.184,0.001
	l0.029,0.087l0.016,0.115l-0.019,0.114l-0.077,0.093l-0.105,0.032l-0.126-0.011l-0.13-0.041l-0.117-0.055l-0.153-0.107l-0.05-0.022
	l-0.138-0.022l-0.046-0.019l-0.042,0.007l-0.041,0.015l-0.058,0.013l-0.038,0.021l-0.024,0.004l-0.02-0.008l-0.038-0.038
	l-0.021-0.009l-0.071,0.008l-0.1,0.023l-0.094,0.035l-0.122,0.081l-0.102,0.051l-0.114,0.045l-0.097,0.021l-0.176,0.004
	l-0.104-0.011l-0.181-0.066l-0.072,0.035l-0.065,0.058l-0.087,0.026l-0.098-0.03l-0.078-0.035l-0.042-0.02l-0.114-0.035
	l-0.089,0.028l-0.075,0.01l-0.181-0.061l-0.025,0.051l-0.017-0.005l-0.01-0.008h-0.011l-0.015,0.02l-0.026-0.019l-0.025-0.033
	l-0.145,0.008l-0.074-0.014l-0.068-0.056l-0.035-0.04l-0.039,0.008l-0.084,0.084l-0.149,0.09l-0.086,0.065l-0.017,0.045l0.045,0.062
	l-0.019,0.063l-0.065,0.055l-0.092,0.04l-0.051,0.004l-0.015,0.003l-0.002-0.004l-0.005-0.008l-0.002-0.097l-0.078-0.065
	l-0.099-0.066l-0.063-0.094l0.002-0.121l0.035-0.109l0.014-0.104l-0.057-0.102l-0.06-0.036l-0.05-0.013l-0.044-0.018l-0.041-0.061
	l-0.005-0.044l0.012-0.173l-0.11-0.404l0.084-0.113l0.123-0.053l0.041-0.044l-0.354-0.179l-0.082-0.013l-0.082,0.005l-0.054,0.021
	l-0.051,0.024l-0.075,0.031l-0.091,0.013l-0.072-0.012l-0.064-0.017l-0.068-0.004l-0.334,0.106l-0.52,0.08l-0.155,0.05l-0.141,0.094
	l-0.079,0.044l-0.095,0.017l-0.087-0.016l-0.093-0.037l-0.227-0.139l-0.024-0.024l-0.029-0.039l-0.009-0.033l-0.007-0.109
	l-0.068-0.037l-0.081-0.011l-0.077-0.025l-0.056-0.071l-0.072-0.168L638,606.865l-0.394-0.181l-0.161-0.149l-0.094-0.055
	l-0.136-0.022l-0.076-0.004l-0.035,0.001l-0.029,0.02l-0.061,0.049l-0.068,0.066l-0.209,0.201l-0.025,0.042l-0.003,0.032
	l0.005,0.024l0.013,0.052l-0.008,0.036l-0.057,0.066l-0.144,0.108l-0.061,0.069l-0.31,0.572l-0.064,0.058l-0.157,0.073l-0.058,0.052
	l-0.022,0.05l0.013,0.03l0.023,0.026l0.006,0.042l-0.016,0.072l-0.015,0.031l-0.081,0.132l-0.066,0.055l-0.082,0.029l-0.104,0.009
	l-0.048-0.003l-0.047-0.002l-0.048-0.018l-0.029-0.04l-0.138-0.281l-0.067-0.058l-0.084-0.029l-0.088-0.004l-0.352,0.019
	l-0.071,0.015l-0.08,0.032l-0.135,0.092l-0.018,0.005l-0.015,0.029l-0.027,0.086l-0.002,0.016l-0.232,0.185l-0.013,0.033
	l0.015,0.025l0.003,0.026l-0.047,0.031l-0.041,0.007l-0.088-0.016h-0.041l-0.232,0.074l-0.093,0.015l-0.167-0.015l-0.125-0.021
	l-0.084,0.05l-0.046-0.039l-0.045-0.123l-0.057-0.051l-1.023-0.629h0.001l0.066,0.001l0.062-0.04l0.067-0.017l0.072,0.003
	l0.077,0.021l0.024-0.025l-0.114-0.087l-0.069-0.074l-0.032-0.079v-0.099l0.009-0.058l0.014-0.026l0.067-0.059l0.036,0.011
	l0.147,0.073l0.053,0.019l-0.187-0.234l-0.125-0.112l-0.099-0.033l-0.027-0.019l0.134-0.162l0.091-0.199l0.051-0.196l0.011-0.158
	l0.034-0.082l-0.002-0.006l0.005-0.025l-0.025-0.016l-0.034-0.014l-0.016-0.021l0.004-0.056l0.017-0.042l0.039-0.028l0.071-0.011
	l0.057,0.004l0.099,0.02l0.066-0.003l0.188-0.05l0.056-0.005l0.046,0.054l0.08,0.032l0.181,0.048l0.025-0.038l0.023-0.023
	l0.031-0.022l-0.012-0.097l-0.011-0.041l-0.032-0.035l-0.098-0.045l-0.028-0.03l-0.004-0.066l-0.119-0.003l-0.041,0.006
	l-0.058,0.024l-0.058,0.049l-0.013,0.038l-0.018,0.023l-0.071,0.003l-0.029-0.016l-0.144-0.107l-0.079-0.032l-0.039-0.025
	l-0.026-0.045l0.027-0.028l0.06,0.044l0.023-0.024l-0.064-0.072l-0.057-0.087l-0.069-0.058l-0.101,0.01l-0.029-0.021l0.045-0.033
	l0.141-0.064l-0.038-0.062l0.029-0.054l0.122-0.101l0.034-0.077l-0.062-0.026l-0.102,0.003l-0.084,0.016l-0.069,0.142l-0.162,0.06
	l-0.188-0.004l-0.147-0.055l-0.063-0.067l-0.046-0.126l-0.057-0.083l0.02-0.032l0.025-0.026l-0.003-0.023l-0.04-0.031l-0.023-0.026
	l-0.04-0.063l0.465,0.099l0.145-0.024l0.059-0.043l0.043-0.059l0.024-0.063v-0.058l-0.04-0.065l-0.115-0.038l-0.03-0.045
	l0.042-0.121l0.129-0.093l0.314-0.15l0.078-0.065l0.137-0.15l0.081-0.059l0.083-0.021l0.076-0.007l0.062-0.028l0.035-0.084
	l0.083-0.051l0.255-0.117l0.092-0.031l-0.047-0.08l-0.03-0.179l-0.017-0.1l-0.014-0.031l-0.038-0.063l-0.011-0.028l0.011-0.069
	l0.059-0.135l-0.012-0.057l-0.066-0.043l-0.072,0.001l-0.073,0.016l-0.066-0.003l-0.043-0.026l-0.067-0.074l-0.04-0.032
	l-0.042-0.014l-0.09-0.002l-0.028-0.003l-0.021-0.029l-0.027-0.081l-0.02-0.021l-0.007-0.009l-0.077-0.031l-0.275-0.05l0.059-0.124
	l0.003-0.123l-0.016-0.12l0.003-0.109l0.078-0.191l-0.013-0.07l-0.105-0.086l-0.242-0.134l-0.064-0.051l-0.083-0.094l-0.008-0.009
	l-0.057-0.053l-0.055-0.016l-0.016,0.013l-0.071,0.08l-0.004,0.021l0.007,0.059l-0.003,0.018l-0.072,0.039l-0.032-0.016l-0.032-0.03
	l-0.07-0.018l-0.053,0.007l-0.043,0.016l-0.036,0.013l-0.062,0.004l-0.059-0.018l-0.055-0.034l-0.061-0.017l-0.076,0.026
	l-0.018-0.029l-0.024-0.032l-0.028-0.03l-0.029-0.019l-0.027,0.006l-0.027,0.021l-0.022,0.024l-0.016,0.008l-0.028-0.025
	l-0.043-0.074l-0.039-0.03l-0.203-0.088l-0.104-0.025l-0.122-0.015l-0.117-0.075l0.092-0.028l0.058-0.065l0.054-0.136l0.024-0.047
	l0.065-0.052l0.061-0.037l0.048-0.044l0.02-0.059l0.004-0.013l0.015,0.016h0.001h0.006h0.004l0.011-0.009l0.015-0.01l-0.005-0.061
	l-0.026-0.046l-0.173-0.147l-0.229-0.323l-0.101-0.084l-0.121-0.063l-0.035-0.011l0.007-0.007l0.021-0.018l0.022-0.041l0.004-0.04
	l-0.007-0.047l-0.013-0.02l-0.079-0.077l-0.028-0.088l0.055-0.054l0.089-0.046l0.068-0.064l0.013-0.065l-0.04-0.022l-0.067-0.009
	l-0.067-0.019l-0.172-0.146l-0.084-0.044l0.081-0.131l0.051-0.163l0.01-0.165l-0.045-0.136l-0.064-0.049l-0.081-0.021l-0.075-0.01
	l-0.049-0.021l-0.014-0.051l0.028-0.052l0.027-0.035l0.016-0.02l0.032-0.061l0.019-0.085l0.002-0.072l-0.035-0.15l0.016-0.048
	l0.101-0.133l0.021-0.067l-0.037-0.08l-0.129-0.12l-0.011-0.072l0.055-0.026l0.042-0.036l0.029-0.046l0.015-0.051l0.004-0.048
	l-0.003-0.032l-0.021-0.022l-0.046-0.018l-0.064,0.007l-0.164,0.062l-0.072,0.003l-0.143-0.195l-0.04-0.146l-0.173-0.198
	l-0.076-0.153l-0.14-0.143l-0.055-0.056l0.111-0.128l0.068-0.056l0.077-0.031l0.068,0.007l0.115,0.047l0.067-0.008l0.108-0.036
	l0.115-0.014l0.231-0.006l0.081-0.014l0.05-0.016l0.05,0.004l0.079,0.044l0.043,0.046l0.073,0.11l0.052,0.032l0.09-0.007
	l0.083-0.049l0.07-0.068l0.175-0.208l0.038-0.014l0.087-0.01l0.04-0.023l0.058-0.072l0.003-0.014l0.006-0.038l-0.008-0.059
	l0.006-0.087l0.09-0.229l0.019-0.087l0.005-0.152l0.013-0.079l0.033-0.068l0.076-0.068l0.077-0.021l0.182-0.004l0.091-0.022
	l0.072-0.017l0.16-0.071l0.101-0.102l-0.014-0.129l0.24-0.13l0.119-0.03h0.1h0.045l0.185,0.034l0.544,0.186l0.205,0.045l0.879,0.021
	l0.597,0.014l0.601,0.013l0.6,0.015l0.601,0.014h0.001l0.226,0.003l0.473,0.009l0.353-0.03l0.31-0.102l0.051-0.012l0.086,0.062
	l0.086,0.027l0.089,0.014l0.097,0.025l-0.002,0.046l0.076-0.03l0.037-0.044l0.045-0.025l0.063,0.02l0.014,0.027l0.069,0.256
	l0.072,0.103l0.149,0.035l0.455-0.055l0.157,0.015l0.036-0.075l0.053,0.019l0.14,0.139l0.361,0.043l0.079-0.03l0.045-0.031
	l-0.006-0.035l-0.034-0.045l-0.01-0.055l0.008-0.039l0.027-0.001l0.174,0.123l0.086,0.032l0.107,0.006l0.154,0.052l0.369,0.233
	l0.09,0.035l0.075-0.036l0.042,0.016l0.032,0.011l0.064,0.062l0.047,0.071l0.085,0.231l0.063,0.058l0.022-0.025l-0.006-0.067
	l0.083-0.013l0.214,0.024l-0.168,0.04l-0.084,0.039l0.009,0.052l-0.003,0.044l0.079,0.593l0.076,0.139l0.151,0.072l0.043-0.005
	l0.1-0.033l0.037-0.004l0.042,0.026l0.101,0.08h0.036l0.085-0.046l0.093,0.01l0.086,0.052l0.333,0.394l0.253,0.384l0.337,0.311
	l0.344,0.405l0.133,0.116l0.166,0.098l0.311,0.112l0.081,0.042l0.021-0.003h0.113l0.021,0.005h0.039l0.034,0.052l0.024,0.062
	l0.007,0.026l0.158,0.139l0.841,0.509l0.13,0.101l0.079,0.135l0.004,0.011l0.042,0.125l0.048,0.06l0.093,0.076l0.089,0.046
	l0.093,0.021l0.583,0.056l0.192-0.03h0.077l0.186,0.047l0.167,0.07l0.587,0.396l0.063,0.022l0.057,0.01l0.252,0.008l0.163-0.028
	l0.122-0.065l0.007-0.123l-0.222-0.217l-0.093-0.116l0.058-0.03l0.111,0.067l0.256,0.28l0.179,0.192l0.134,0.124l0.142,0.187
	l0.145,0.181l0.053,0.059l0.027,0.051l-0.03,0.053L649.394,601.005z M645.206,596.933l-0.031,0.051l-0.073-0.058l-0.076-0.032
	l-0.146-0.037l-0.141-0.021l-0.02-0.088l-0.052-0.078l0.076-0.019l0.253,0.049l0.123,0.057l0.066,0.033l0.067,0.026l0.044,0.037
	l0.003,0.042L645.206,596.933z M649.032,597.699l-0.122-0.023l-0.056-0.077l-0.143-0.062l-0.069-0.077l-0.08-0.042l-0.038-0.009
	l-0.085-0.004l-0.034-0.009l-0.036-0.025l-0.069-0.029l-0.116-0.004l-0.207-0.041l-0.188-0.056l-0.243-0.011l-0.172-0.061
	l-0.1-0.059l-0.113,0.01l-0.123,0.01l-0.126-0.008l0.032-0.076l0.114-0.07l0.197-0.004l0.242,0.023l0.167,0.042l0.334,0.067
	l0.331,0.11l0.214,0.079l0.131,0.075l0.149,0.123l0.117,0.099l0.193,0.144L649.032,597.699z M650.292,598.531l-0.32-0.021
	l0.018-0.046l0.102-0.038l0.142-0.055l0.085,0.018l0.156-0.057l0.094-0.021l0.181,0.04l0.052,0.08l0.018,0.091l-0.063,0.031
	l-0.096-0.055l-0.071,0.041l-0.112,0.026l-0.082-0.052L650.292,598.531z M661.333,600.428l-0.043-0.02l-0.031-0.025l-0.016-0.029
	l0.004-0.035l0.026,0.024l0.024,0.026l0.02,0.029L661.333,600.428z"/></svg>