<?xml version="1.0" encoding="utf-8"?>
<!-- Generator: Adobe Illustrator 15.0.0, SVG Export Plug-In . SVG Version: 6.00 Build 0)  -->
<!DOCTYPE svg PUBLIC "-//W3C//DTD SVG 1.1//EN" "http://www.w3.org/Graphics/SVG/1.1/DTD/svg11.dtd">
<svg version="1.1" id="Ebene_1" xmlns="http://www.w3.org/2000/svg" xmlns:xlink="http://www.w3.org/1999/xlink" x="0px" y="0px"
	 width="1920px" height="1080px" viewBox="0 0 1920 1080" enable-background="new 0 0 1920 1080" xml:space="preserve">

<path fill="#F4E0B6" stroke="#FFFFFF" d="M1768.647,392.769l0.005-0.071l-0.033-0.014l-0.08,0.024l-0.054-0.017l-0.019-0.047
	l0.021-0.068l0.058,0.029l0.05-0.079l-0.031-0.075l-0.076-0.058l-0.095-0.027l-0.01-0.077l-0.107-0.183v-0.099l0.013-0.051
	l-0.019-0.085l-0.002-0.047l0.016-0.041l0.052-0.09v-0.033l0.04-0.126l0.028-0.059l-0.017-0.14l-0.022-0.101l-0.047-0.089
	l-0.057-0.068l0.435,0.408l0.262,0.084l0.094,0.072l0.171,0.221l0.052,0.115l-0.009,0.143l-0.019,0.05l-0.069,0.146l-0.165,0.224
	l-0.06,0.061l-0.062,0.001l-0.004,0.05l-0.021,0.038l-0.037,0.015l-0.054-0.015v0.081l0.013,0.061l0.103,0.192l0.002,0.071
	l-0.035,0.07l-0.084,0.067l-0.1-0.09l-0.121-0.055l0.042-0.165l-0.009-0.022l0.035-0.05L1768.647,392.769z"/></svg>