<?xml version="1.0" encoding="utf-8"?>
<!-- Generator: Adobe Illustrator 15.0.0, SVG Export Plug-In . SVG Version: 6.00 Build 0)  -->
<!DOCTYPE svg PUBLIC "-//W3C//DTD SVG 1.1//EN" "http://www.w3.org/Graphics/SVG/1.1/DTD/svg11.dtd">
<svg version="1.1" id="Ebene_1" xmlns="http://www.w3.org/2000/svg" xmlns:xlink="http://www.w3.org/1999/xlink" x="0px" y="0px"
	 width="1920px" height="1080px" viewBox="0 0 1920 1080" enable-background="new 0 0 1920 1080" xml:space="preserve">

<path fill="#F4E0B6" stroke="#FFFFFF" d="M1476.113,905.684l-0.013,0.074l-0.029,0.008l0,0l0,0l0,0l0,0l0,0l0,0l-0.907,0.119l0,0
	l0,0l0,0l0,0h-0.002h-0.002l-0.004-0.002l-0.007-0.001l-0.015-0.003l-0.201-0.184l-0.072-0.009l-0.05-0.027l-0.047-0.042
	l-0.062-0.041l-0.067-0.023l-0.115-0.024l-0.052-0.036v-0.036l0.186-0.038l0.173,0.032l0.223,0.214l0.066,0.047l0.033,0.022
	l0.009,0.007l0.004,0.001l0.002,0.002l0,0l0,0l0,0l0,0l0,0l0,0l0.859-0.11l0,0l0,0l0,0l0.004,0.001l0.02,0.003L1476.113,905.684z
	 M1469.868,904.37l0.074,0.009l0.132-0.029l0.029,0.021l-0.013,0.085l-0.036,0.07l-0.053,0.034l-0.066-0.003l-0.074-0.039
	l-0.209-0.006l-0.101-0.025l-0.093-0.049l0.079-0.111l0.044-0.027l0.074-0.004l0.073,0.018L1469.868,904.37z M1473.641,903.771
	l-0.074,0.086l-0.147-0.052l-0.06,0.023l-0.063,0.007l-0.06-0.02l-0.051-0.056l0.454-0.189l0.154-0.007v0.038l-0.096,0.051
	L1473.641,903.771z M1472.299,902.301l-0.053,0.077l0.35-0.043l0.059,0.003l-0.021,0.077l-0.051,0.081l-0.056,0.07l-0.044,0.042
	l-0.147,0.087l-0.057,0.064l0.017,0.076l0.041,0.102l-0.053,0.052l-0.095,0.032l0.049,0.05l-0.373,0.121l-0.071-0.045l-0.004-0.273
	l-0.013-0.07l-0.041-0.149l-0.006-0.039l0.026-0.057l0.044-0.036l0.046-0.029l0.038-0.035l0.145-0.177l0.088-0.081l0.118-0.067
	l0.127-0.04l0.117,0.003l-0.048,0.11L1472.299,902.301z M1471.866,901.932l0.021,0.112l0.047-0.005l0.02,0.022l-0.011,0.048
	l-0.031,0.023l-0.037,0.02l-0.037,0.032l-0.04,0.073l-0.06,0.154l-0.069,0.109l-0.049,0.046l-0.054,0.025l-0.04-0.016l-0.029-0.051
	l0.012-0.015l0.047-0.184l-0.005-0.007l0.05-0.134l0.075-0.133l0.092-0.098L1471.866,901.932z M1472.959,902.104l-0.074,0.006
	l-0.083-0.045l-0.079-0.065l-0.063-0.086l-0.041-0.104l0.143,0.005l0.207,0.147l0.144,0.011l-0.032,0.069l-0.053,0.042
	L1472.959,902.104z M1470.832,901.593l-0.308,0.497l0.062-0.052l0.06-0.055l0.097-0.021l0.109,0.048l-0.056-0.181l0.143-0.052
	l0.056,0.129l0.224-0.346l0.32-0.181l0.101,0.014l0.063,0.09l-0.147,0.098l-0.188,0.08l0.118,0.125l0.116-0.118v0.197l-0.138,0.181
	l-0.21,0.129l-0.106,0.209l0.116-0.077l0.122-0.061l-0.113,0.285l-0.256,0.188l-0.06,0.196l-0.029,0.227l0.146,0.056l0.143,0.061
	l-0.052-0.382l0.202-0.235l0.16,0.084l0.11,0.19l0.021,0.191l0.022,0.165l0.152,0.061l0.135-0.056l0.443-0.138l0.36-0.34
	l0.056,0.082l0.028,0.102l-0.035,0.106l-0.046,0.052l0.063,0.056l0.08-0.038l0.208-0.449l0.288-0.217v0.144l0.037,0.142l0.077,0.048
	l-0.144,0.067l-0.058,0.106l0.21,0.004l0.171,0.083l-0.134,0.067l-0.188,0.069l0.263,0.063l0.002,0.129l-0.242,0.038l-0.238,0.017
	l-0.097-0.041l-0.098-0.04l-0.36-0.069l-0.252,0.187l-0.114,0.084l-0.126,0.087l0.063,0.062l0.113-0.055l0.116-0.067l0.286-0.171
	l0.222,0.087l-0.188,0.086l-0.196,0.064l0.273,0.082l-0.031,0.1l0.145,0.032l0.102,0.108l0.162,0.007v0.02v0.02l-0.263,0.025
	l-0.255,0.101l0.357-0.013l0.358-0.013l0.32-0.045l0.294-0.024l-0.263,0.188l-0.345,0.08l0.282,0.049h0.269l0.163-0.131l0.156-0.139
	l0.019,0.099l0.04,0.087l0.118-0.153l0.132-0.092l-0.015-0.093l-0.016-0.076l0.092-0.021l0.096,0.01l-0.001-0.098l0.088-0.034
	l0.099-0.023l0.062-0.081l0.158-0.06l0.021-0.007l0.006-0.003l0.002-0.001h0.002l0,0l0,0l0,0l0,0l0.119,0.02l0,0l0,0l0,0h0.002l0,0
	l0.007-0.009l0.034-0.029l0.064-0.064l0.206-0.162l0.272-0.014l0.003,0.061l0.003,0.059l0.196-0.095l0.117-0.188l0.049-0.342
	l0.208-0.214l0.287-0.104l0.303-0.024l0.217,0.04l0.113,0.237l0.147,0.157l0.143,0.15l0.033,0.26l-0.054,0.255l-0.146,0.342
	l-0.296,0.075h-0.146l-0.066,0.104l0.012,0.095l-0.06,0.079l0.366-0.004l0.348,0.061l-0.369,0.1l-0.327,0.186l-0.318-0.326
	l-0.443,0.063l-0.137,0.106l-0.131,0.117l-0.179,0.084l-0.049,0.01l-0.014,0.001l-0.005,0.002l-0.002,0.001l0,0l0,0l0,0l-0.509,0.05
	l0,0l0,0l0,0l0,0l0,0h-0.002l-0.002-0.002l-0.025-0.006l-0.099-0.022l-0.317-0.075l-0.309,0.031l0.223,0.101l0.214,0.14l-0.052,0.02
	l-0.054,0.022l0.095,0.093l0.098,0.087l-0.104,0.03l-0.096,0.019l-0.126-0.119l-0.12-0.136l-0.107-0.035l-0.086,0.066l0.011,0.089
	l0.077,0.174l-0.252-0.171l-0.271-0.111l0.097,0.127l0.125,0.083l0.093,0.082l0.033,0.081l0.062,0.041l0.056,0.049l0.017,0.128
	l0.035,0.114l0.336,0.163l0.357,0.071l0.084,0.036l0.011,0.005l0,0l0.91-0.12l0,0l0,0l0,0l0,0l0,0h0.002l0,0l0.002,0.001h0.002
	l0.006-0.002h0.022h0.044l0.177-0.005l0.354-0.013l-0.36-0.106l-0.159-0.24l0.151-0.122l0.17-0.099l0.177-0.027l0.18-0.002
	l0.305-0.101l0.188,0.177l-0.19,0.312l-0.352,0.163l0.27-0.04l0.229,0.043l-0.067,0.207l-0.203,0.081l-0.137,0.104l-0.079,0.153
	l-0.213,0.099l-0.246,0.009l-0.039,0.018l-0.006,0.003l-0.002,0.002l-0.001-0.001l0,0l0,0l0,0l0,0l0,0l-1.134,0.158l0,0l0,0h-0.002
	h-0.011h-0.022h-0.089h-0.177l-0.308-0.136l-0.148-0.211l-0.139-0.203l-0.022-0.228l-0.019-0.22l-0.169-0.122l-0.196,0.005
	l0.064,0.078l-0.007,0.105l-0.137-0.126l-0.151-0.05l0.147,0.219l0.182,0.207l-0.01,0.295l-0.203,0.139l-0.156-0.05l-0.146-0.074
	l-0.258-0.027l-0.257-0.061l-0.214-0.167l-0.192-0.197l-0.2-0.023l-0.188-0.01l-0.098-0.22l-0.131-0.184l-0.1,0.039l0.038,0.111
	l-0.029,0.012l-0.029,0.012l0.084,0.128l0.061,0.149l-0.201-0.103l-0.172-0.225l0.053,0.148l0.049,0.148l0.046,0.077l-0.099,0.077
	l-0.013,0.133l-0.151-0.117l-0.04-0.227l-0.086-0.109l-0.052,0.217l0.137,0.338l-0.152,0.242l-0.17,0.094l-0.18,0.056l-0.046-0.025
	l-0.034-0.024l-0.065,0.003l-0.079,0.005l-0.201-0.001l-0.198-0.003l-0.169-0.044l-0.112-0.19l0.002-0.124l0.042-0.109l0.004-0.2
	l0.083-0.145l0.102-0.154l0.075-0.142l-0.086-0.127l0.176-0.11l0.149-0.161l-0.114-0.186l-0.027-0.154l-0.094-0.026l-0.168,0.007
	l0.208-0.191l0.279-0.022l-0.016-0.091l0.013-0.09l-0.134,0.039l-0.232,0.029l-0.092-0.119l0.072-0.023l0.073-0.009l-0.239-0.146
	l-0.084-0.228l-0.041-0.09l0.024-0.069l0.066,0.078l0.096,0.086l0.202-0.164l0.304-0.144l-0.32,0.013l-0.225-0.101l0.095-0.067
	l0.107-0.035l-0.165-0.007l-0.16-0.003l0.016-0.072l0.018-0.073l-0.134-0.036l0.024-0.154l0.164-0.03l0.139,0.074l-0.063-0.199
	l-0.005-0.274l0.2,0.01l0.179,0.052l-0.104-0.162l-0.122-0.151l-0.118-0.148l-0.106-0.134l-0.029-0.097l0.099-0.04l0.169-0.083
	l0.174,0.012l0.003-0.114l0.02-0.104l0.117-0.077l0.013-0.157l-0.062-0.074l0.074-0.126l0.075-0.142l0.248-0.084l0.254,0.028
	l-0.062,0.064l0.093,0.116l-0.028,0.109l0.176,0.077L1470.832,901.593z M1469.489,900.749l-0.102,0.016l-0.089-0.025l-0.055-0.036
	l0.065-0.039l0.11-0.028l0.078,0.003l0.046,0.064L1469.489,900.749z M1470.078,900.543l-0.077,0.063l-0.044-0.06l0.003-0.106
	l0.057-0.081l0.101-0.01l0.053,0.058l-0.009,0.081L1470.078,900.543z M1404.209,894.709l-0.108,0.219l-0.125-0.001l-0.058,0.008
	l-0.041,0.037l-0.105,0.001l-0.09-0.029l-0.083-0.058l-0.08-0.074l-0.074-0.11l0.022-0.076l0.193-0.211l0.084-0.008l0.079,0.051
	l0.052,0.104l0.032,0.022l0.059,0.005l0.087-0.012l0.044,0.022l0.037,0.031L1404.209,894.709z M1398.451,894.495l-0.058,0.011
	l-0.14-0.022l-0.078,0.003l-0.063-0.035l-0.049-0.069l-0.035-0.099l0.039-0.046l0.25-0.116l0.063,0.056l0.062,0.074l0.042,0.09
	l0.003,0.093L1398.451,894.495z M1694.864,408.815l0.019,0.033l0.021,0.089l-0.019,0.027l-0.068,0.059l-0.041-0.003l-0.028-0.027
	v-0.042l0.006-0.03l0.046-0.08l0.028-0.032L1694.864,408.815z M1690.956,410.44l0.085,0.105l-0.031,0.173l-0.111,0.135l-0.158-0.011
	l-0.082-0.164l0.054-0.177l0.123-0.107L1690.956,410.44z M1328.363,802.897l-0.029,0.133l-0.073,0.048l-0.05-0.007l-0.049-0.04
	l-0.037-0.069l0.01-0.059l0.039-0.037l0.041-0.023l0.027,0.004l0.029,0.042l-0.006,0.029l-0.013,0.025l-0.003,0.034l0.033,0.015
	l0.049-0.027l0.013-0.061l-0.033-0.063l-0.018-0.039l0.03,0.002L1328.363,802.897z M1324.235,800.124l-0.013,0.007v-0.014
	L1324.235,800.124z M1329.252,774.38l-0.003,0.088l-0.14-0.007l0.049-0.056L1329.252,774.38z M1382.312,745.11l0.013,0.048
	l-0.04-0.01L1382.312,745.11z M1340.691,737.048l0.063,0.088l-0.095,0.02L1340.691,737.048z"/></svg>