<?xml version="1.0" encoding="utf-8"?>
<!-- Generator: Adobe Illustrator 15.0.0, SVG Export Plug-In . SVG Version: 6.00 Build 0)  -->
<!DOCTYPE svg PUBLIC "-//W3C//DTD SVG 1.1//EN" "http://www.w3.org/Graphics/SVG/1.1/DTD/svg11.dtd">
<svg version="1.1" id="Ebene_1" xmlns="http://www.w3.org/2000/svg" xmlns:xlink="http://www.w3.org/1999/xlink" x="0px" y="0px"
	 width="1920px" height="1080px" viewBox="0 0 1920 1080" enable-background="new 0 0 1920 1080" xml:space="preserve">

<path fill="#F4E0B6" stroke="#FFFFFF" d="M1166.882,487.896l0.055-0.038l0.019-0.055l-0.004-0.05l-0.007-0.036l0.016-0.013
	l0.031,0.017l0.026,0.006l0.021-0.016l0.053,0.018l0.08,0.067l0.039,0.039l0.048,0.015l0.087,0.013l0.025,0.012l-0.062,0.044
	l-0.023,0.043l-0.012,0.056l-0.028,0.046l-0.031-0.01l-0.015-0.056l-0.021-0.021l-0.031,0.019l-0.028-0.012l-0.022-0.044
	l-0.059-0.023l-0.181,0.048l-0.094-0.02l-0.049-0.057l0.016-0.022l0.067,0.028L1166.882,487.896z M1165.416,489.565l0.051-0.012
	l0.021-0.056l0.084,0.082l0.089,0.071l0.087,0.03l0.079-0.036l0.036-0.02l0.04-0.003l0.041-0.01l0.036-0.037l0.018-0.145l0.026-0.05
	l0.06,0.152l-0.023,0.112l-0.085,0.073l-0.118,0.04l-0.074,0.005l-0.04-0.018l-0.041-0.034l-0.069-0.04l-0.07-0.02l-0.18,0.007
	l-0.125-0.034l-0.069-0.071l-0.166-0.44l-0.003-0.053l0.018-0.06l0.08-0.147l0.056,0.062l-0.061,0.23l0.044,0.118l0.038,0.054
	l0.051,0.121l0.044,0.06l0.062,0.044L1165.416,489.565z M1165.657,488.228l0.052,0.025l0.047,0.093l0.016,0.048l-0.005,0.034
	l0.011,0.029l0.146,0.109l0.05,0.093l-0.001,0.098l-0.041,0.073l-0.069,0.017l-0.092-0.053l-0.071-0.089l-0.062-0.099l-0.066-0.084
	l-0.037-0.063l0.005-0.054l0.021-0.036l0.014-0.013l0.009-0.015l0.047-0.046l0.012-0.031l0.002-0.027L1165.657,488.228z
	 M1170.094,480.905l-0.03,0.095l-0.161,0.091l-0.17,0.034l-0.146-0.003l-0.096-0.046l-0.021-0.087l0.009-0.073l0.002-0.052
	l-0.018-0.038l-0.03-0.013l-0.002-0.027l0.089-0.09l0.061-0.039l0.103,0.008l0.134,0.054l0.066,0.035l0.077,0.042l0.063,0.042
	L1170.094,480.905z M1184.072,460.962l0.069,0.031l0.091-0.063l0.068-0.031l0.105-0.04l0.053-0.032l0.053,0.031l0.07,0.092
	l0.127,0.053l0.085,0.03l0.021-0.07l0.022-0.054l0.013-0.077h0.074l0.11,0.037l0.114,0.09l0.11,0.161l0.07,0.068l0.085,0.069
	l0.163,0.068l0.168,0.082l0.174,0.052l0.135,0.043l0.07-0.016l0.156,0.098l0.041,0.108l0.048,0.061l0.092,0.061l0.172,0.075
	l0.07,0.106l-0.626,0.256l-0.712,0.287l-0.27,0.108l-0.358,0.145l-0.524,0.208l-0.4,0.158l-0.002,0.001l-0.033-0.07l-0.069-0.191
	l0.003-0.169l0.019-0.168l-0.004-0.198l-0.028-0.207l-0.016-0.146l-0.087-0.146l-0.133-0.13l-0.116-0.069l-0.056-0.046l-0.067-0.053
	l-0.031-0.062l0.024-0.113l0.004-0.047l0.052-0.032l0.07,0.069l0.107,0.123l0.142,0.077l0.097-0.009l0.02-0.069l-0.053-0.092
	l-0.094-0.1l-0.1-0.092l-0.036-0.054l-0.108-0.16l0.033-0.046l0.114,0.03l0.093-0.022l0.076-0.085l0.153,0.06l0.108,0.038
	l0.119-0.039L1184.072,460.962z M1185.215,456.74l0.028-0.011l0.097-0.077l0.028-0.011l0.026,0.013l0.011,0.019l0.019,0.102
	l0.006,0.019l0.01,0.014l0.022,0.001l0.015-0.03l0.008-0.064l-0.004-0.067l0.002-0.032l0.013-0.028l0.067-0.085l0.122-0.11
	l0.025-0.01l0.029-0.009l0.051-0.01l0.028-0.001l0.026,0.008l0.032,0.024l0.025,0.035l0.017,0.038l0.007,0.037l-0.007,0.03
	l-0.019,0.018l-0.059,0.014l-0.063,0.017l-0.038,0.074l-0.03,0.075l-0.066,0.083l-0.077,0.044l-0.079,0.037l-0.065,0.04
	l-0.073,0.048l-0.041,0.017l-0.035,0.015l-0.02,0.011l-0.02,0.01l-0.018,0.016l-0.164,0.216l-0.008,0.024l-0.002,0.027l0.008,0.033
	l0.014,0.036l0.016,0.035l0.022,0.033l0.028,0.029l-0.149,0.037l-0.078,0.003l-0.081-0.038l-0.047-0.06l-0.004-0.062l0.023-0.057
	l0.192-0.231l0.031-0.075l0.005-0.039l-0.005-0.145l0.005-0.022l0.012-0.02l0.021-0.013l0.031-0.007l0.094-0.007L1185.215,456.74z
	 M1185.565,456.199l0.047,0.029l0.013,0.04l-0.016,0.037l-0.036,0.026l-0.089,0.019l-0.033,0.027l-0.062,0.112l-0.029,0.022
	l-0.032-0.005l-0.021-0.026l-0.005-0.043l0.004-0.024l0.052-0.123l0.032-0.052l0.035-0.027l0.042-0.018l0.046-0.003
	L1185.565,456.199z M1160.647,485.824l-0.016,0.066l-0.099,0.013l-0.113-0.041l-0.406-0.185l-0.064-0.06l0.066-0.079l0.158-0.045
	l0.088-0.008l0.065,0.015l0.131,0.053l0.084,0.069L1160.647,485.824z M1162.175,400.081l0.136-0.013l0.025-0.157l-0.096-0.419
	l0.021-0.093l0.389-0.387l0.377-0.631l0.396-0.326l0.117-0.054l0.433-0.102l0.099-0.068l0.161-0.255l0.125-0.096l0.562-0.279
	l0.043-0.047l-0.007-0.08l-0.078-0.187l-0.001-0.089l0.111-0.317l-0.006-0.046l-0.03-0.029l-0.04-0.024l-0.031-0.029l-0.048-0.079
	l-0.088-0.227l0.021-0.069l0.028-0.021l0.231-0.17l0.047-0.07l0.034-0.08l0.013-0.087l-0.017-0.089l0.009-0.167l0.103-0.18
	l0.151-0.155l0.154-0.096l0.025,0.082l0.042,0.09l0.067,0.067l0.097,0.007l0.398-0.07l0.569-0.1l0.168,0.021l0.061,0.031
	l0.057,0.035l0.01,0.004l0.018,0.009l0.008,0.006l0.123,0.084l0.055,0.048l0.049,0.053l0.076,0.069l0.163,0.018l0.041,0.057
	l0.03,0.065l0.064,0.069l0.084,0.052l0.084,0.017l0.197-0.047l0.081,0.015l0.124,0.081l0.184,0.051l0.208-0.06l0.184-0.113
	l0.114-0.106l0.093-0.135l0.06-0.055l0.086-0.029l0.224-0.021l0.123,0.018l0.107,0.058l0.038,0.075l-0.01,0.089l-0.067,0.181
	l0.015,0.143l0.117,0.092l0.354,0.166l0.024,0.023l0.024,0.018l0.025,0.006l0.106-0.026l0.065,0.018l0.149,0.105l0.035,0.007
	l0.032-0.015l0.054-0.044l0.03-0.003l0.038,0.021l0.076,0.052l0.065,0.036l0.19,0.127l-0.09,0.193l-0.04,0.057l-0.061,0.05
	l-0.138,0.083l-0.063,0.053l-0.084,0.11l-0.012,0.094l0.075,0.082l0.179,0.072l0.146-0.187l0.049-0.03l0.087,0.027l0.11,0.065
	l0.099,0.076l0.052,0.062l0.139-0.089l0.076-0.023l0.104-0.01l0.24-0.001l0.093-0.023l0.048-0.066l0.007-0.15l-0.033-0.138
	l-0.143-0.298l-0.005-0.107l0.078-0.083l0.109-0.077l0.089-0.087l0.062-0.098l0.04-0.02l0.065-0.004l0.075,0.016l0.25,0.099
	l0.038-0.074l0.033-0.197l0.041-0.082l0.038-0.024l0.103-0.033l0.04-0.021l0.05-0.048l0.024-0.05l0.021-0.131l-0.004-0.122
	l-0.049-0.063l-0.221-0.099l-0.088-0.062l-0.066-0.078l-0.029-0.084l0.021-0.079l0.468-0.578l0.074-0.069l0.068-0.043l0.084-0.023
	l0.438-0.012l0.126-0.029l0.088-0.076l0.045-0.087l0.011-0.089l-0.049-0.082l-0.137-0.06l-0.119,0.009l-0.089,0.07l-0.078,0.088
	l-0.088,0.065l-0.083,0.033l-0.029-0.009l-0.061-0.035l-0.045-0.031l-0.045-0.044l-0.041-0.046l-0.083-0.133l-0.044-0.041
	l-0.061,0.002l-0.107,0.041l-0.131,0.069l-0.067,0.011l-0.079-0.032l0.005-0.076l0.272-0.312l0.124-0.073l0.189-0.054l0.205-0.021
	l0.175,0.031l0.073-0.007l0.139-0.118l0.107,0.003l0.052,0.045l0.145,0.221l0.284-0.225l0.301-0.24l0.019,0.003l0.015,0.019
	l0.011,0.027l0.044,0.066l-0.012,0.045l-0.039,0.041l-0.033,0.052l0.009,0.021l0.044,0.055l0.007,0.021l-0.02,0.029l-0.095,0.077
	l-0.005,0.04l0.051,0.033l0.068,0.023l0.051,0.012l0.116-0.015l0.107-0.042l0.097-0.005l0.089,0.094h0.001l0.119,0.167l0.074,0.083
	l0.077,0.04l0.095-0.031l0.088-0.085l0.059-0.105l0.006-0.086l-0.056-0.205l-0.077-0.149l-0.004-0.057l0.035-0.046l0.331-0.251
	l0.021-0.1l-0.177-0.071l-0.179-0.012l-0.139,0.008l-0.104,0.047l-0.074,0.106l-0.13,0.301l-0.047,0.001l-0.073-0.063l-0.07-0.082
	l-0.04-0.055l-0.041-0.213l0.074-0.175l0.316-0.39l0.304-0.376l0.094-0.187l0.051-0.035l0.087-0.002l0.095,0.027l0.19,0.087
	l0.16-0.112l0.087-0.003l0.153,0.042l0.1-0.025l0.343-0.354l0.452-0.47l0.016-0.048l-0.026-0.036l-0.051-0.034l-0.042-0.034
	l-0.001-0.035l0.069-0.095l0.028-0.023l0.058-0.022l0.125-0.031l0.034-0.035l0.027-0.085l-0.005-0.053l-0.053-0.042l-0.116-0.053
	l0,0l-0.07-0.069l0.075-0.203l-0.037-0.092l-0.066-0.019l-0.068,0.001l-0.047-0.009l0.002-0.053l0.071-0.181l0.044-0.044l0.02,0.005
	l0.104,0.041l0.035-0.023l0.064-0.195l0.661,0.513l0.1,0.109l0.02,0.098l-0.037,0.094l-0.381,0.42l-0.054,0.094l-0.009,0.095
	l0.03,0.102l0.065,0.115l0.187-0.098l-0.082,0.332l0.027,0.081l0.374,0.295l-0.064,0.145l-0.009,0.075l0.027,0.077l0.073,0.077
	l0.072,0.018l0.181-0.048l0.104,0.172l0.571-0.377l0.199,0.287l0.268-0.13l0.014-0.047l-0.021-0.123l-0.062-0.335l0,0v-0.001
	l-0.022-0.105l-0.02-0.046l-0.035-0.053l-0.065-0.071l-0.04-0.035l-0.014-0.033l0.016-0.067l0.014-0.025l0.06-0.069l0.006-0.033
	l-0.028-0.025l-0.04-0.024l-0.062-0.06l-0.037-0.02l-0.027-0.021l0.003-0.028l0.161-0.234l0.047-0.046l0.124-0.079l0.016-0.057
	l-0.022-0.297l0.029-0.114l0.063-0.103l0.1-0.114l0.156-0.196l0.055-0.032l0.084,0.022l0.089,0.05l0.08,0.034l0.061-0.027
	l0.065-0.094l0.001-0.045l-0.079-0.115l0.001-0.043l0.134-0.203l0.03-0.023l0.084-0.007l0.079,0.014l0.07-0.002l0.055-0.053
	l0.096,0.077l0.084,0.016l0.179-0.061l0.001,0.001v-0.001l0.227-0.103l0.077-0.083l-0.033-0.101l-0.345-0.365l-0.039-0.013
	l-0.062,0.013l-0.084,0.032l-0.044,0.002l-0.223-0.146l-0.077-0.074l-0.025-0.074l0.335-0.495l-0.012-0.048l-0.189-0.164
	l-0.047-0.063l-0.015-0.042l0.012-0.041l0.088-0.162l-0.01-0.043l-0.052-0.06l-0.117-0.102l-0.052-0.056l-0.021-0.049l0.033-0.122
	l0.163-0.25l0.094-0.097l0.263-0.18l0.045-0.086l-0.026-0.531l-0.023-0.488l-0.034-0.637l-0.486,0.058l-0.018-0.278l0.016-0.131
	l0.059-0.112l0.229-0.297l0.049-0.124l0.026-0.187l0.031-0.223l0.059-0.416l0.086-0.647l0.07-0.518l-0.134-0.015l-0.083-0.031
	l-0.061-0.056l-0.06-0.093l-0.041-0.1l0.01-0.07l0.509-0.532l0.048-0.145l-0.02-0.253l0.015-0.077l0.024-0.046l0.066-0.087
	l0.021-0.049l-0.019-0.077l-0.077-0.05l-0.094-0.045l-0.078-0.058l-0.03-0.095l0.033-0.094l0.115-0.161l0.033-0.08l0.021-0.257
	l0.02-0.068l0.046-0.069l0.07-0.023l0.093,0.069l0.016,0.075l-0.083,0.271l0.002,0.069l0.02,0.093l0.046,0.066l0.081-0.013
	l0.132-0.129l0.081-0.034l0.128,0.024l0.112,0.072l0.062,0.092l0.045,0.1l0.056,0.093l0.118,0.1l0.036,0.047l0.022,0.052
	l0.021,0.106l0.027,0.05l0.083,0.236l-0.116,0.18l-0.367,0.323l-0.123,0.189l-0.016,0.066l0.005,0.068l0.027,0.022l0.69-0.076
	l0.068,0.007l0.203,0.045l0.204-0.024l0.348-0.171l0.501-0.246l0.754-0.372l0.752-0.374l0.75-0.376l0.748-0.378l0.552-0.281
	l0.598-0.199l0.25-0.084l0.405-0.137l0.684-0.121l0.457-0.058l0.731-0.096l0.729-0.098l0.73-0.1l0.728-0.102l1.004-0.112
	l1.004-0.116l1-0.119l0.998-0.123h0.002l0,0l0,0l0.769-0.088l0.765-0.089l0.345-0.041l0.422-0.05l0.764-0.094l0.712-0.05l0.711-0.05
	l0.71-0.054l0.709-0.055l0.368-0.029l0.423-0.033l0.292,0.009l0.092-0.006l0.142-0.034l0.15-0.059l0.119-0.081l0.053-0.098
	l-0.354,0.067l-0.17-0.008l-0.004-0.133l0.054-0.045l0.174-0.063l0.059-0.043l0.028-0.08l-0.029-0.057l-0.131-0.105l-0.053-0.072
	l-0.01-0.058l0.012-0.146l-0.011-0.038l-0.037-0.07l-0.005-0.037l0.013-0.042l0.079-0.125l0.039-0.136v-0.164l-0.059-0.161
	l-0.13-0.128l-0.065-0.04l-0.081-0.041l-0.085-0.032l-0.077-0.018l-0.084,0.003l-0.13,0.053l-0.082,0.019l-0.063-0.013l-0.087-0.036
	l-0.145-0.079l-0.076-0.064l-0.042-0.063l-0.007-0.069l0.029-0.08l0.171-0.255l0.029-0.132l-0.099-0.088l-0.071-0.035l-0.059-0.051
	l-0.046-0.06l-0.034-0.061l-0.021-0.081l0.021-0.061l0.402-0.345l0.057-0.075l-0.015-0.051l-0.038-0.05l-0.014-0.074l0.043-0.071
	l0.076-0.002l0.166,0.057l0.104,0.011l0.067-0.019l0.131-0.099l0.135-0.121l0.054-0.064l0.047-0.077l-0.046-0.124l-0.001-0.054
	l0.037-0.06l0.067-0.046l0.068,0.001l0.075,0.039l0.087,0.067l0.391,0.402l0.246,0.194l0.063,0.034l0.051-0.005l0.061-0.05
	l0.06-0.076l0.077-0.176l0.066-0.418l0.206-0.383l0.171,0.063l0.179,0.013l0.178-0.02l0.161-0.038l0.064,0.105l0.089,0.104
	l0.109,0.07h0.12l0.095-0.074l0.298-0.688l-0.008-0.088l-0.097-0.143l-0.021-0.076l0.032-0.061l0.134-0.088l0.043-0.065l0.068-0.244
	l0.1-0.149l0.111-0.125l0.079-0.053l0.251-0.131l0.069-0.058l0.107-0.152l0.032-0.085l0.011-0.089l-0.023-0.076l-0.041-0.088
	l-0.022-0.081l0.035-0.05l0.049-0.038l0.003-0.047l-0.014-0.05l0.001-0.055l0.027-0.037l0.037-0.024l0.033-0.03l0.038-0.154
	l0.065-0.058l0.195-0.096l-0.07-0.5l0.002-0.251l-0.063-0.115l-0.326-0.126l-0.055-0.116l0.028-0.129l0.185-0.225l0.236-0.396
	l0.019-0.158l-0.066-0.158l-0.125-0.148l-0.159-0.135l0.006-0.034l0.011-0.032l0.018-0.031l0.065-0.07l0.029-0.048l0.017-0.053
	l0.005-0.058l0.112-0.364l0.202-0.327l0.173-0.041l0.072-0.029l0.067-0.052l0.221-0.325l0.065-0.06l0.235-0.125l0.077-0.054
	l0.039-0.058l0.064-0.142l0.049-0.063l0.063-0.051l0.08-0.036l0.208-0.04l0.063-0.025l0.107-0.104l0.135-0.055l0.293,0.104
	l0.184-0.03l0.397-0.267l0.047-0.032l0.174-0.053l0.104,0.002l0.075,0.016l0.072,0.002l0.163-0.068l0.092-0.003l0.088,0.022
	l0.224,0.154l0.168,0.003l0.177-0.035l0.185-0.012l0.109,0.029l0.102,0.043l0.099,0.034l0.102-0.003l0.045-0.028l0.066-0.084
	l0.04-0.033l0.042-0.013l0.097-0.011l0.037-0.012l0.06-0.115l-0.039-0.145l-0.017-0.134l0.13-0.082l0.144-0.055l0.105-0.076
	l0.071-0.097l0.041-0.119l0.06-0.109l0.103-0.054l0.12-0.041l0.108-0.074l0.03-0.055l0.033-0.115l0.05-0.046l0.057-0.02l0.205-0.02
	l0.045-0.029l0.004-0.061l-0.012-0.068v-0.051l0.036-0.068l0.182-0.175l0.052-0.021l0.203-0.051l0.069-0.007l0.073,0.035
	l0.007,0.061l-0.034,0.148l0,0v0.009l-0.004,0.025l0.263,0.102l0.128,0.029l0.088-0.046l0.119-0.166l0.084-0.056l0.127-0.01
	l0.178,0.041l0.071,0.003l0.104-0.025l0.312-0.131l0.163-0.023l0.384,0.09l0.177-0.044l0.118-0.103l0.013-0.14l-0.021-0.07
	l-0.012-0.082l0.001-0.079l0.02-0.066l0.058-0.063l0.156-0.106l0.058-0.07l0.038-0.123l0.005-0.063l-0.005-0.067l-0.044-0.126
	l-0.005-0.061l0.031-0.053l0.067-0.027H1218l0.076-0.024l0.043-0.047l0.011-0.057l-0.001-0.128l0.027-0.068l0.052-0.045l0.069-0.031
	l0.085-0.026l0.044-0.039l0.002-0.064l-0.034-0.131v-0.071l0.02-0.062l0.073-0.123l0.041,0.008l0.178,0.093l0.08,0.027l0.072-0.03
	l0.034-0.048l0.002-0.061l-0.025-0.065l0,0l-0.065-0.133l0.004-0.151l0.081-0.122l0.158-0.039l0.189-0.084l-0.106-0.165l-0.21-0.181
	l-0.124-0.13l-0.052-0.22l0.01-0.218l-0.106-0.268l-0.003-0.062l-0.02-0.028l-0.043-0.018l-0.056-0.006l-0.06,0.005l-0.028-0.174
	l-0.005-0.019l-0.032-0.056l-0.003-0.03l0.009-0.021l0.012-0.018l0.003-0.023l-0.057-0.087l-0.083-0.063l-0.051-0.068l0.049-0.099
	l0.125-0.11l0.021-0.047l0.016-0.103l0.021-0.055l0.033-0.027l0.051,0.014l0.047,0.039l0.041,0.045l0.038,0.032l0.061,0.009
	l0.064-0.019l0.108-0.052l0.038,0.083l0.021,0.073l-0.001,0.072l-0.048,0.156l0.024,0.08l0.11,0.162l0.065,0.074l0.064,0.035
	l0.073-0.004l0.097-0.038l0.077-0.06l0.027-0.068l0.023-0.153l0.046-0.067l0.218-0.179l0.09-0.05l0.073,0.029l0.083,0.056
	l0.105,0.034l0.097-0.024l0.086-0.063l0.14-0.137l0.103-0.065l0.042,0.02l0.031,0.063l0.069,0.06l0.071-0.006l0.092-0.043
	l0.246-0.16l0.054-0.028l0.042-0.002l0.065,0.02l0.055-0.01l0.044-0.03l0.035-0.038l0.039-0.078l0.079-0.273l0.057-0.088l0.07-0.076
	l0.181-0.135l0.114-0.021l0.352,0.034l0.153-0.008l-0.259,0.355l-0.112,0.102l-0.088,0.135l0.002,0.499l-0.044,0.088l-0.131,0.171
	l-0.027,0.09l0.027,0.083l0.138,0.121l0.053,0.078l0.056,0.155l0.037,0.071l0.061,0.075l0.077,0.073l0.068,0.037l0.082,0.018
	l0.122,0.016l0.186-0.028l0.133-0.072l0.11-0.022l0.114,0.124l0.046,0.08l0.035,0.036l0.057,0.012l0.211,0.025l0.063,0.02
	l0.045,0.041l0.228,0.342l0.085,0.197l0.041,0.069l0.059,0.062l0.136,0.108l0.046,0.051l0.022,0.074l0.002,0.417l-0.143,0.304v0.096
	l0.037,0.087l0.1,0.175l0.018,0.205l-0.288,0.583l-0.182,0.75l0.034,0.144l0.107,0.14l0.835,0.755l0.479,0.247l0.154,0.104
	l0.098,0.1l0.087,0.069l0.109,0.044l1.469,0.183l0.152,0.048l0.29,0.153l0.146,0.031h0.001l0.157-0.007l0.453-0.113l0.104,0.002
	l0.084,0.045l0.075,0.049l0.081,0.016l0.096-0.001l0.073,0.023l0.138,0.084l0.09,0.043l0.062,0.038l0.024,0.053l-0.043,0.156
	l-0.007,0.088l0.021,0.083l0.064,0.057l0.082,0.038l0.063,0.042l0.051,0.05l0.048,0.063l0.07,0.057l0.083,0.035l0.046,0.042
	l-0.092,0.219l-0.104,0.447l-0.099,0.184l-0.014,0.072l0.009,0.081l0.03,0.061l0.107,0.126l0.04,0.094l0.069,0.282l0.066,0.132
	l0.009,0.051l-0.025,0.162l0.006,0.058l0.03,0.072l0.106,0.122l0.021,0.085l-0.048,0.271l-0.001,0.278l-0.022,0.097l-0.056,0.057
	l-0.069-0.007l-0.058-0.053l-0.055-0.072l-0.06-0.062l-0.16-0.062l-0.163,0.021l-0.146,0.074l-0.11,0.098l-0.076,0.155l-0.051,0.344
	l-0.086,0.143l-0.156,0.153l-0.026,0.051l-0.018,0.058v0.002l-0.199,0.4l-0.114,0.369v0.002l-0.001,0.001l0.001,0.002l0.03,0.255
	l-0.02,0.086l-0.144,0.221l-0.127,0.316l-0.959,1.131l-0.6,0.448l-0.114,0.111l-0.195,0.287l-0.067,0.053l-0.218,0.123l-0.062,0.071
	l-0.048,0.089l-0.034,0.094l-0.018,0.089l0.003,0.1l0.041,0.045l0.188,0.062l0.05,0.03l0.082,0.072l0.048,0.029l0.048,0.012
	l0.1,0.009l0.048,0.021l0.151,0.114l0.084,0.048l0.094,0.022l0.087,0.013l0.075,0.033l0.065,0.048l0.755,0.847l0.966,0.711
	l0.214,0.235l0.069,0.051l0.231,0.132l0.122,0.104l0.253,0.357l0.211,0.235l0.26,0.2l0.597,0.323l0,0l0.379,0.247l0.111,0.093
	l0.178,0.179l0.308,0.416l0.399,0.293l0.194,0.198l0.117,0.074l0.09,0.057l0.234-0.059v-0.001h0.001l0.106-0.102l0.29-0.5
	l0.288-0.309l0.112-0.024l0.176,0.047l0.178,0.075l0.387,0.219l0.284,0.223l0.177,0.249l-0.057,0.238l-0.168,0.135l-0.435,0.187
	l-0.176,0.126l-0.089,0.167l-0.034,0.205l0.031,0.792l-0.034,0.193l-0.121,0.117l-0.101,0.041l-0.058,0.042l-0.136,0.228
	l-0.052,0.037l-0.07-0.005l-0.107-0.036l-0.165-0.04l-0.213-0.013l-0.178,0.039l-0.06,0.118l-0.097,0.125l-0.002,0.174l0.066,0.357
	l-0.2,1.565l0.022,0.347l-0.015,0.164l-0.067,0.165l-0.031,0.498l-0.037,0.095l-0.212,0.259l-0.072,0.173l-0.057,0.65l-0.133,0.239
	l-0.026,0.083l0.024,0.094l0.132,0.132l0.025,0.078l-0.028,0.094l-0.132,0.263l-0.021,0.293l-0.151,0.242l-0.06,0.164l-0.007,0.173
	l0.057,0.184l0,0l0.122,0.471l0.004,0.2l0.018,0.093l0.114,0.111l0.151-0.047l0.452-0.342l0.091-0.167l0.16-0.696l0.051-0.092
	l0.06-0.054l0.214-0.131l0.461-0.502l0.059-0.044l0.067,0.005l0.052,0.043l0.013,0.072l-0.053,0.254l-0.002,0.147l0.052,0.108
	l0.048,0.024h0.049l0.109-0.034l0.066-0.001l0.046,0.035l0.075,0.096l0.303,0.235l0.176,0.102l0.167,0.056l0.735,0.123l0.18,0.071
	l0.286,0.23l0.159,0.093l0.094,0.012l0.087-0.029l0.16-0.075l0.093-0.012l0.087,0.008l0.089,0.025l0.092,0.036l0,0h0.113l0.132-0.02
	l0.234-0.062l1.214-0.027l1.213-0.03l0.146,0.069l0.117,0.115l0.232,0.312l0.094-0.03l0.093-0.125l0.127-0.121l0.083-0.023
	l0.091,0.004l0.093,0.022l0.09,0.032l0.095,0.014l0.18-0.028l0.094,0.014l0.089,0.06l0.047,0.08l0.01,0.089l-0.021,0.088
	l-0.049,0.069l-0.206,0.138l-0.072,0.152l0.002,0.184l0.076,0.368l-0.013,0.376l0.026,0.193l0.106,0.1l0.145-0.023l0.146-0.089
	l0.219-0.211l0.094-0.163l0.072-0.063l0.099-0.011l0.084,0.06l0.013,0.1l-0.06,0.197l-0.023,0.32l0.023,0.092l-0.009,0.204
	l-0.021,0.067l-0.087,0.119l-0.031,0.062l0.009,0.076l0.082,0.124l0.237,0.192l0.109,0.116l0.129,0.212l0.058,0.062l0.094,0.055
	l0.08,0.008l0.083-0.002l0.193,0.038l0.089-0.014l0.171-0.047l0.096-0.007l0.058,0.016l0.05,0.045l0.071,0.079l0.055,0.017
	l0.399,0.061l0.083,0.002l0.081-0.011l0.088-0.026l0.358,0.06l0.085,0.07l0.035,0.064l0.01,0.175l-0.156,0.13l-0.186,0.06
	l-0.199,0.037l-0.199,0.066l-0.303,0.166l-0.251,0.067l-0.077,0.03l-0.162,0.121l-0.516,0.773l-0.076,0.165l-0.078,0.327
	l-0.175,0.354l-0.153,0.164l-0.168,0.053l-0.441,0.02l-0.165,0.073l-0.255,0.249l-0.182,0.085l-0.106,0.019l-0.102,0.003
	l-0.103-0.017l-0.107-0.04l-0.166-0.095l-0.058,0.008l-0.066,0.085l-0.039,0.161l0.005,0.352l-0.067,0.142l-0.115,0.125
	l-0.122,0.246l-0.245,0.258l-0.243,0.442l-0.058,0.053l-0.155,0.089l-0.149,0.122l-0.282,0.324l-0.135,0.244l-0.063,0.173
	l-0.009,0.09l0.018,0.172l-0.008,0.075l-0.04,0.078l-0.12,0.136l-0.044,0.067l-0.057,0.187l-0.087,0.17l-0.15,0.425l-0.102,0.159
	l-0.211,0.168l-0.067,0.073l-0.048,0.085l-0.028,0.092l-0.003,0.04l0.009,0.079l-0.006,0.115l-0.049,0.033l-0.036,0.015
	l-0.037,0.002l-0.039,0.012l-0.171,0.234l-0.123,0.249l-0.022,0.086l-0.007,0.239l-0.03,0.063l-0.072,0.058l-0.077,0.046
	l-0.07,0.058l-0.067,0.154l-0.082,0.092l-0.03,0.058l-0.016,0.064l-0.005,0.194l-0.025,0.14l-0.229,0.354l-0.032,0.069l-0.031,0.063
	l-0.043,0.058l-0.066,0.039l-0.188,0.049l-0.052,0.028l-0.104,0.112l-0.266,0.409l-0.064,0.063l-0.023,0.08l-0.018,0.177
	l-0.078,0.172l-0.024,0.083l0.012,0.096l0.047,0.12l0.002,0.037l-0.009,0.022l-0.046,0.065l-0.007,0.032l0.012,0.017l0.019,0.013
	l0.011,0.024v0.18l-0.019,0.08l-0.084,0.171l-0.013,0.176l-0.021,0.088l-0.063,0.095l-0.169,0.167l-0.06,0.097l-0.007,0.084
	l0.044,0.162l-0.014,0.078l-0.035,0.03l-0.094,0.009l-0.04,0.03l-0.021,0.048l-0.005,0.09l-0.015,0.044l-0.245,0.293l-0.167,0.354
	l-0.195,0.256l-0.046,0.103l-0.047,0.29l-0.046,0.085l-0.225,0.269l-0.092,0.144l-0.081,0.21l-0.016,0.039l-0.016,0.066l0.014,0.061
	l0.233,0.265l0.039,0.07l0.039,0.132l0.016,0.144l-0.012,0.135l-0.045,0.103l-0.213,0.209l-0.045,0.074l-0.061,0.161l-0.526,0.839
	l-0.124,0.263l-0.069,0.092l-0.238,0.179l-0.109,0.063l-0.11,0.083l-0.18,0.208l-0.101,0.091l-0.139,0.07l-0.308,0.27l-0.285,0.417
	l-0.113,0.116l-0.467,0.273l-0.084,0.029l-0.194,0.027l-0.087,0.025l-0.072,0.057l-0.117,0.144l-0.15,0.1l-0.097,0.16l-0.075,0.062
	l-0.246,0.132l-0.105,0.09l-0.09,0.118l-0.096,0.092l-0.256,0.123l-0.113,0.087l0.182-0.044l0.1-0.003l0.06,0.043l-0.001,0.081
	l-0.248,0.656l-0.058,0.062l-0.188,0.085l-0.063,0.067l0.02,0.159l0.248,0.292l-0.007,0.183l-0.089,0.162l-0.022,0.075l-0.105,0.805
	l-0.002,0.236l0.016,0.087l0.045,0.079l0.295,0.341l0.082,0.146l0.05,0.066l0.071,0.054l0.082,0.03l0.179,0.029l0.089,0.032
	l0.063,0.049l0.146,0.209l0.298,0.42l0.139,0.128l0.168,0.1l0.169,0.048l0.175,0.011l0.621-0.049h0.004l0.082,0.044l-0.04,0.124
	l-0.202,0.198l-0.239,0.342l-0.084,0.018l-0.101-0.047l-0.134-0.084l-0.093,0.03l-0.076,0.078l-0.163,0.28l-0.053,0.064
	l-0.067,0.049l-0.092,0.055l-0.131,0.125l-0.096,0.177l-0.191,0.56l-0.075,0.135l-0.103,0.122l-0.123,0.109l-0.134,0.063
	l-0.289,0.026l-0.141,0.049l-0.122,0.096l-0.414,0.516l-0.147,0.295l-0.097,0.13l-0.52,0.339l-0.23,0.221l-0.289,0.513l-0.02,0.071
	l-0.014,0.143l-0.026,0.065l-0.1,0.114l-0.466,0.356l-0.184,0.223l-0.061,0.055l-0.069,0.045l-0.056,0.05l-0.024,0.073l-0.032,0.166
	l-0.139,0.294l-0.035,0.155l0.001,0.582l-0.025,0.077l-0.044,0.042l-0.201,0.1l-0.039,0.032l-0.02,0.045l-0.012,0.083l-0.161,0.167
	l-0.049,0.102l0.016,0.103l0.045,0.081l0.036,0.09l0.018,0.093l-0.013,0.088l-0.061,0.079l-0.09,0.077l-0.072,0.079l-0.009,0.086
	l0.088,0.164l0.03,0.084l0.001,0.087l-0.04,0.179l0.028,0.062l0.091,0.064l0.186,0.095l0.057,0.06l0.021,0.096l-0.145,0.384
	l-0.005,0.2l0.193,0.057l0.066-0.017l0.183-0.087v0.001h0.001l0.001-0.001l0.07-0.006l0.049,0.04l0.025,0.064l-0.004,0.071
	l-0.042,0.065l-0.211,0.14l0.016,0.091l0.046,0.103l0.065,0.099l0.075,0.075l0.055,0.021l0.043-0.006l0.037,0.007l0.037,0.06
	l0.064,0.212l0.012,0.069l0.025,0.145l0.045,0.09l0.081,0.016l0.224-0.09l0.084-0.066l0.088-0.109l0.021,0.195l0.02,0.195
	l-0.009,0.098l-0.009,0.098l-0.033,0.084l-0.032,0.085l-0.073,0.085l-0.074,0.085l-0.024,0.05l-0.026,0.051l0.018,0.048l0.018,0.049
	l0.033,0.042l0.034,0.041l0.019,0.041l0.02,0.04l0.026,0.09l0.025,0.092l0.049,0.093l0.049,0.091l0.063,0.085l0.064,0.087
	l0.044,0.083l0.045,0.083l-0.011,0.081l-0.009,0.08l-0.032,0.048l-0.032,0.047l-0.038,0.036l-0.038,0.036l-0.044,0.018l-0.046,0.018
	l-0.05-0.009l-0.052-0.01l-0.038-0.002l-0.038-0.001l-0.049,0.016l-0.05,0.017l-0.042,0.026l-0.043,0.027l-0.022,0.028l-0.021,0.028
	l-0.039,0.248l-0.037,0.248l0.015,0.128l0.016,0.127l0.066,0.106l0.065,0.107l0.033,0.038l0.032,0.039l0.01,0.042l0.011,0.041
	l-0.005,0.043l-0.004,0.043l-0.009,0.044l-0.01,0.045l-0.003,0.047l-0.003,0.045l0.011,0.045l0.009,0.046l0.125,0.26l0.125,0.261
	l0.021,0.083l0.022,0.083l0.012,0.239l0.011,0.238l-0.028,0.14l-0.036,0.137l0.001,0.044l0.002,0.044l0.019,0.049l0.018,0.048
	l0.022,0.099l0.024,0.099l-0.023,0.103l-0.023,0.104l-0.136,0.234l-0.138,0.233l-0.107,0.314l-0.109,0.315l0.002,0.048v0.047
	l0.02,0.092l0.021,0.091l0.007,0.289l0.007,0.289l-0.043,0.135l-0.042,0.135l-0.001,0.073l-0.001,0.074l0.043,0.062l0.044,0.062
	l0.028,0.007l0.028,0.006l0.074-0.002l0.074-0.003l0.025,0.011l0.024,0.011l-0.003,0.031l-0.004,0.031l-0.096,0.111l-0.096,0.109
	l-0.012,0.035l-0.013,0.035l-0.008,0.104l-0.007,0.104l-0.016,0.032l-0.015,0.032l-0.057,0.049l-0.057,0.049l-0.016,0.036
	l-0.015,0.037l-0.012,0.145l-0.011,0.146l0.01,0.075l0.009,0.074l0.034,0.048l0.034,0.048l-0.036,0.03l-0.037,0.031l-0.015,0.044
	l-0.014,0.044l-0.022,0.116l-0.02,0.117v0.024l0.001,0.023l0.011,0.019l0.009,0.02l0.023,0.005l0.022,0.006l0.031-0.007l0.032-0.006
	l0.013-0.006l0.012-0.006l0.012-0.001l0.013-0.001l0.029,0.01l0.031,0.011l0.038,0.02l0.039,0.021l0.195,0.16l0.195,0.161
	l0.016,0.032l0.016,0.032l0.007,0.052l0.006,0.051l-0.004,0.094l-0.004,0.095l-0.018,0.09l-0.017,0.09l-0.047,0.094l-0.046,0.092
	l-0.016,0.048l-0.016,0.048l0.013,0.044l0.014,0.043l0.04,0.095l0.041,0.095l-0.038,0.169l-0.038,0.17l0.017,0.088l0.018,0.086
	l0.132,0.183l0.134,0.184l0.015,0.065l0.017,0.067l-0.035,0.152l-0.01,0.045l-0.023,0.107l-0.005,0.077l-0.004,0.075l0.039,0.055
	l0.038,0.053l-0.011,0.006l-0.011,0.006l-0.02,0.016l-0.019,0.015l-0.011,0.007l-0.009,0.006l0.023,0.016l0.024,0.015l0.055,0.025
	l0.054,0.025l0.02,0.017l0.021,0.016l0.017,0.027l0.018,0.029l-0.001,0.019v0.018l0.005,0.019l0.003,0.018l0.03,0.03l0.029,0.027
	l0.201,0.095l0.203,0.094l0.052,0.012l0.05,0.012l0.029-0.006l0.028-0.005l0.022-0.014l0.021-0.014l0.045-0.045l0.043-0.044
	l0.026,0.019l0.027,0.02l0.034,0.01l0.033,0.01l0.037,0.003l0.036,0.003l0.036-0.002l0.037-0.002l0.012,0.014l0.013,0.012
	l0.036,0.092l0.036,0.089l0.043-0.028l0.043-0.029l0.022,0.031l0.021,0.03l-0.007,0.057l-0.007,0.056l-0.041,0.05l-0.044,0.05
	l-0.086,0.06l-0.087,0.06l-0.019,0.021l-0.019,0.021l-0.003,0.026v0.025l0.011,0.023l0.013,0.023l0.007,0.024l0.005,0.024
	l-0.021,0.03l-0.022,0.03l0.005,0.038l0.006,0.037l0.007,0.014l0.007,0.014l-0.524,0.344l-0.343,0.227l-0.18,0.117l-0.18,0.079
	l-0.178,0.079l-0.274,0.087l-0.274,0.087l-0.069,0.043l-0.069,0.042l-0.066,0.07l-0.066,0.07l-0.017,0.008l-0.017,0.008
	l-0.013-0.018l-0.014-0.017l-0.003-0.026l-0.001-0.027l0.02-0.086l0.019-0.086v-0.047l-0.002-0.046l-0.008-0.046l-0.008-0.047
	l-0.016-0.041l-0.015-0.039l-0.038-0.067l-0.038-0.067l-0.054-0.074l-0.053-0.074l-0.063-0.065l-0.063-0.066l-0.063-0.04
	l-0.063-0.039h-0.037h-0.037l-0.017,0.003l-0.018,0.003l-0.018,0.011l-0.019,0.012l0.004-0.021l0.005-0.021l0.002-0.064l0.001-0.064
	l-0.008,0.003l-0.009,0.003l-0.018,0.016l-0.019,0.016l-0.017-0.018l-0.018-0.018l-0.006-0.002l-0.005-0.003l-0.052-0.021
	l-0.054-0.021l-0.023,0.045l-0.024,0.044l0.032,0.058l0.031,0.059l-0.037,0.006l-0.038,0.007l-0.02,0.023l-0.02,0.022l-0.006,0.031
	l-0.006,0.032l0.001,0.034l0.001,0.034l-0.055,0.004l-0.054,0.003l-0.097-0.037l-0.097-0.037l-0.052-0.005l-0.054-0.004
	l-0.154,0.027l-0.155,0.027l-0.034-0.002l-0.034-0.001l-0.006,0.003l-0.006,0.003l-0.078-0.015l-0.081-0.016l-0.005,0.068
	l-0.005,0.067l-0.011,0.154l-0.011,0.154l-0.021,0.041l-0.021,0.04l-0.041,0.036l-0.043,0.035l-0.09,0.06l-0.093,0.061l-0.039,0.038
	l-0.041,0.038l-0.307,0.518l-0.312,0.525l-0.194,0.328l-0.307,0.513l-0.256,0.43l-0.35,0.584l-0.234,0.39l-0.278,0.462l-0.143,0.137
	l-0.055,0.054l-0.087,0.081l-0.146,0.028l-0.148,0.03l-0.751-0.249l-0.749-0.249l-0.618-0.225l-0.617-0.224l-0.592-0.29
	l-0.591-0.289l-0.012,0.007l-0.01,0.006l-0.012,0.011l-0.011,0.011l-0.011,0.013l-0.01,0.014l-0.008,0.015l-0.008,0.017
	l-0.307,0.455l-0.277,0.413l-0.278,0.412l-0.306,0.452l-0.021,0.009l-0.021,0.008l-0.027-0.011l-0.025-0.011l-0.826-0.563
	l-0.7-0.477l-0.128-0.087l-0.021-0.031l-0.022-0.03l0.015-0.053l0.015-0.054l-0.024-0.043l-0.024-0.043l-0.107-0.084l-0.107-0.083
	l-1.013-0.78l-1.015-0.782l-0.108,0.698l-0.109,0.697l-0.023,0.03l-0.025,0.03l-0.572-0.037l-0.666-0.044l-0.48-0.033l-0.752-0.052
	l-0.103,0.036l-0.103,0.036l-0.449,0.242l-0.449,0.242l-0.281,0.071l-0.284,0.071l-0.688,0.099l-0.689,0.098l-0.086,0.03
	l-0.086,0.029l-0.046,0.051l-0.046,0.053l-0.022,0.079l-0.022,0.079l-0.067,0.462l-0.071,0.471l-0.069,0.456l-0.072,0.475
	l-0.026,0.073l-0.026,0.072l-0.147,0.186l-0.372,0.466l-0.371,0.464l-0.372,0.464l-0.371,0.46l-0.407,0.505l-0.407,0.504
	l-0.408,0.501l-0.407,0.5l-0.175,0.348l-0.176,0.348l-0.175,0.347l-0.176,0.345l-0.176,0.346l-0.177,0.344l-0.175,0.344
	l-0.177,0.344l-0.105,0.215l-0.105,0.214l-0.105,0.215l-0.105,0.215l-0.066,0.133l-0.065,0.134l-0.066,0.135l-0.066,0.132
	l-0.154,0.313l-0.004,0.008l-0.074,0.049l-0.075,0.05l-0.431,0.068l-0.323,0.049l-0.321,0.049l-0.323,0.049l-0.322,0.048
	l-0.327,0.05l-0.328,0.048l-0.329,0.049l-0.327,0.047l-0.397,0.059l-0.301,0.055l-0.299,0.053l-0.625,0.112l-0.409-0.01
	l-0.114-0.039l-0.221-0.133l-0.111-0.051l-0.148-0.021l-0.143,0.023l-0.264,0.115l-0.371,0.162l-0.502,0.219l-0.614,0.265
	l-0.702,0.301l-0.769,0.327l-0.812,0.344l-0.08,0.034l-0.07-0.056l-0.097-0.075l-0.146-0.125l-0.248-0.188l-0.195-0.147
	l-0.203-0.139l-0.212-0.177l-0.157-0.146l-0.193-0.227l-0.174-0.167l-0.101-0.091l-0.155-0.121l-0.193-0.087l-0.217-0.119
	l-0.288-0.165l-0.177-0.052l-0.085-0.005l-0.075,0.039l-0.098,0.073l-0.076,0.086l-0.033,0.083l-0.049,0.151l-0.217,0.322
	l-0.063,0.05l-0.074,0.03l-0.063,0.001l-0.052-0.022l-0.044-0.04l-0.092-0.094l-0.102-0.079l-0.044-0.045l-0.028-0.048l-0.005-0.048
	l0.007-0.045l-0.032-0.072l-0.02-0.058l-0.033-0.045l-0.071-0.037l-0.044-0.035l-0.021-0.035l0.012-0.057l0.02-0.046l0.023-0.043
	l-0.048-0.037l-0.04-0.04l-0.049-0.007l-0.048,0.013l-0.021-0.03l0.016-0.056l-0.004-0.057l-0.045-0.022l-0.026-0.026l0.017-0.055
	l0.068-0.009l0.014-0.043l-0.059-0.033l-0.074-0.009l-0.074,0.038l-0.064,0.036l-0.001-0.069l-0.027-0.057l0.013-0.062l0.039-0.033
	l0.06-0.008l0.028-0.063l0.02-0.046l-0.002-0.051l0.044-0.062l0.056-0.068l0.073-0.059l0.076-0.044l0.067-0.02l0.076-0.064
	l0.053-0.044l0.049-0.068l0.016-0.061l0.02-0.07l0.042-0.041l0.044-0.008l0.029-0.048l0.015-0.038l0.022-0.031l0.103-0.073
	l0.024-0.027l0.053-0.098l0.023-0.019l0.035-0.012h0.125l0.036-0.012l0.03-0.029l0.02-0.041l0.022-0.086l0.024-0.045l0.032-0.037
	l0.042-0.028l0.128-0.045l0.034-0.021l0.026-0.031l0.014-0.033l0.009-0.037l0.002-0.041l-0.002-0.039l-0.024-0.083l-0.141-0.237
	l-0.06-0.226l0.014-0.214l0.104-0.406l0.009-0.082l-0.003-0.085l-0.011-0.045l-0.147-0.32l-0.019-0.055l-0.004-0.211l0.004-0.021
	l0.009-0.021l0.055-0.076l0.106-0.256l0.026-0.043l0.012-0.025l0.001-0.024l-0.005-0.138l0.063-0.399l-0.006-0.219l0.01-0.057
	l0.027-0.05l0.119-0.107l0.031-0.045l0.019-0.049l0.007-0.056l-0.006-0.059l-0.026-0.056l-0.059-0.077l-0.016-0.027l-0.012-0.027
	l-0.011-0.081l-0.024-0.057l-0.079-0.095l-0.032-0.053l-0.015-0.05l-0.046-0.048l-0.024-0.042l-0.018-0.038l-0.03-0.035
	l-0.028-0.015l-0.042-0.026l-0.081-0.056l-0.061-0.029l-0.109-0.033l-0.05-0.001l-0.044,0.02l-0.079,0.08l-0.031,0.046l-0.023,0.052
	l-0.038,0.172l-0.026,0.049l-0.049,0.043l-0.168,0.098l-0.274,0.308l-0.062,0.105l-0.038,0.044l-0.098,0.074l-0.114,0.061
	l-0.064,0.015l-0.268-0.005l-0.146,0.029l-0.037,0.001l-0.046-0.009l-0.038-0.025l-0.034-0.034l-0.054-0.076l-0.119-0.127
	l-0.102-0.155l-0.058-0.064l-0.068-0.06l-0.04-0.028l-0.038-0.019l-0.042-0.003l-0.033,0.018l-0.13,0.123l-0.015,0.021l-0.002,0.023
	l0.002,0.022l-0.007,0.025l-0.018,0.016l-0.112,0.042l-0.081,0.059l-0.068,0.088l-0.122,0.094l-0.031,0.041l-0.046,0.096
	l0.128,0.043l0.063,0.009l0.06-0.008l0.067-0.025l0.179-0.113l0.45-0.197l0.026,0.003l0.03,0.032l0.007,0.052l-0.037,0.153
	l0.005,0.054l0.039,0.163l0.002,0.071l-0.013,0.066l-0.107,0.296l-0.031,0.051l-0.04,0.041l-0.05,0.025l-0.32,0.063l0.034,0.041
	l0.075,0.125l0.037,0.039l0.137,0.239l0.069,0.108l0.018,0.027l-0.079-0.04l-0.258-0.125l-0.479-0.144l-0.072-0.019l-0.07-0.003
	l-0.071,0.02l-0.05,0.027l-0.042,0.035l-0.032,0.044l-0.037,0.1l-0.022,0.106l0.003,0.054l0.023,0.156l-0.018,0.171l0.014,0.246
	l-0.014,0.078l-0.062,0.134l0.007,0.056l0.009,0.083l0.03,0.074l0.048,0.07l0.119,0.124l0.132,0.115l0.074,0.045l0.077,0.023h0.077
	l0.208-0.09l0.146,0.008l0.123-0.016l0.067-0.078l0.288-0.83l0.037-0.061l0.059-0.035l0.313-0.012l0.189-0.053l0.171-0.091
	l0.157-0.118l-0.069-0.262l-0.002-0.03l0.005-0.019l0.074-0.163l0.004-0.037l-0.012-0.051l-0.061-0.096l-0.023-0.051l0.12-0.077
	l0.043-0.002l0.027,0.013l0.079,0.068l0.03,0.016l0.066,0.027l0.033,0.009l0.024,0.002l0.064-0.002l0.117,0.026l0.146,0.007
	l0.069-0.013l0.021-0.001l0.027,0.008l0.024,0.012l0.218,0.156l0.05,0.049l0.042,0.062l0.026,0.064l0.015,0.068l0.051,0.502
	l-0.005,0.06l-0.017,0.075l-0.031,0.067l-0.041,0.06l-0.207,0.179l-0.246,0.341l-0.04,0.041l-0.193,0.124l-0.062,0.057l-0.361,0.562
	l-0.062,0.048l-0.235,0.084l-0.074,0.057l-0.058,0.07l-0.044,0.083l-0.03,0.091l-0.049,0.435l-0.041,0.153l-0.134,0.28l-0.046,0.061
	l-0.06,0.045l-0.058,0.007l-0.023-0.05l-0.001-0.125l-0.01-0.08l-0.036-0.07l-0.059-0.058l-0.075-0.049l-0.228-0.108l-0.194-0.148
	l-0.045-0.024l-0.047-0.018l-0.045-0.009h-0.092l-0.126,0.021l-0.038,0.013l-0.037,0.025l-0.137,0.167l-0.145,0.267l-0.022,0.029
	l-0.029,0.02l-0.042,0.008l-0.037,0.002l-0.032,0.005l-0.024,0.015l-0.02,0.029l-0.028,0.028v0.052l0.016,0.063l0.068,0.03
	l0.132,0.006l0.205,0.03l0.198,0.009l0.248-0.022l0.188-0.01l0.165,0.002l0.13,0.019l0.08,0.016l0.074,0.033l0.111,0.13l0.086,0.172
	l0.084,0.126l0.098,0.148l0.084,0.153l0.079,0.111l0.067,0.135l0.068,0.084l0.073,0.058l0.104,0.021l0.07,0.049l0.005,0.078
	l-0.051,0.081l-0.077,0.063l-0.079,0.077l-0.018,0.089l0.029,0.135l0.02,0.15l0.033,0.1l0.028,0.107l-0.014,0.07l-0.081-0.076
	l-0.077-0.069l-0.083-0.01l-0.093,0.043l-0.04,0.035l-0.024,0.085l0.015,0.084l0.06,0.072l0.044,0.035l0.038,0.012l0.043,0.011
	l0.06,0.034l0.018,0.027l-0.033,0.033l-0.068,0.013l-0.095,0.004l-0.097,0.04l-0.097,0.009l-0.072-0.003l-0.035,0.017l-0.02,0.027
	l-0.029,0.014l-0.08-0.015l-0.071-0.061l-0.231-0.309l-0.124-0.276l-0.013-0.048l-0.004-0.048l0.018-0.142l-0.002-0.049
	l-0.038-0.081l-0.068-0.041l-0.083-0.011l-0.08,0.004l-0.076,0.023l-0.048,0.049l-0.028,0.069l-0.012,0.079l0.016,0.346
	l-0.011,0.039l-0.019,0.03l-0.101,0.12l-0.163,0.262l-0.066,0.04l-0.089-0.022l-0.12,0.133l-0.012,0.024v0.029l0.02,0.034
	l0.021,0.023l0.011,0.011l0.015,0.008l0.018,0.005l0.034,0.005l0.016,0.006l0.016,0.019l0.006,0.043l0.012,0.021l-0.04,0.057
	l-0.181,0.155l-0.01,0.003l-0.008,0.095l-0.005,0.021l-0.025,0.059l-0.004,0.02l0.001,0.023l0.055,0.143l0.016,0.072l-0.021,0.053
	l-0.035,0.024l-0.013,0.017l-0.007,0.023v0.023l0.006,0.028l0.079,0.218l0.03,0.055l0.122,0.184l0.072,0.154l0.021,0.027l0.02,0.021
	l0.067,0.055l0.041,0.046l0.07,0.101l0.074,0.085l0.072,0.071l0.072,0.056l0.028,0.028l0.024,0.031l0.014,0.034l0.016,0.133
	l0.011,0.031l0.019,0.026l0.041,0.052l0.038,0.059l-0.036,0.013l-0.095,0.059l-0.06,0.066l-0.123,0.299l-0.092,0.222l-0.092,0.223
	l-0.091,0.222l-0.092,0.221l-0.088,0.215l-0.087,0.213l-0.086,0.213l-0.088,0.214l-0.186,0.464l-0.187,0.462l-0.187,0.461
	l-0.188,0.461l-0.136,0.349l-0.137,0.348l-0.139,0.347l-0.138,0.348l-0.138,0.347l-0.139,0.346l-0.138,0.346l-0.14,0.345
	l-0.029,0.076l-0.109,0.27l-0.139,0.343l-0.141,0.345l-0.14,0.343l-0.141,0.345l-0.141,0.342l-0.141,0.341l-0.141,0.342h-0.001
	v0.001l0,0l0,0v0l0,0l0,0v0.001l0,0l0,0l0,0v0.001l0,0h-0.001v0.001l0,0v0.001h0.001h-0.001l0,0v0.001h0.001l0,0v0.001h-0.001h0.001
	v0.001l0,0l0,0v0.001l0,0l0,0l0,0v0.001h0.001h-0.001h0.001v0.001l0,0l0,0l0,0v0.001h0.001l0,0l0,0l0,0v0.001h0.001l0,0l0,0v0h0.002
	l0,0l0,0l0,0v0.001l0,0l0,0l0,0h0.001l0.836,0.724l0.837,0.724l0.836,0.722l0.835,0.723l0.835,0.722l0.834,0.721l0.833,0.721
	l0.833,0.721l0.833,0.72l0.832,0.72l0.833,0.72l0.831,0.719l0.832,0.718l0.83,0.719l0.832,0.718l0.83,0.718l-0.192,0.191
	l-0.077,0.108l-0.11,0.373l-0.2,0.312l-0.088,0.231l-0.304,0.396l-0.106,0.069l-0.116,0.045l-0.095,0.025l-0.104-0.003l-0.253-0.076
	l-0.093-0.018l-0.088,0.005l-0.275,0.084l-0.172,0.032l-0.179,0.003l-0.464-0.078l-0.474-0.082l-0.278-0.01l-0.638-0.027
	l-0.092-0.025l-0.085-0.048l-0.073-0.072l-0.051-0.068l-0.06-0.053l-0.095-0.033l-0.143-0.002l-0.836,0.129l-0.507,0.159
	l-0.43,0.136l-0.716,0.224l-0.66,0.205l-0.249,0.147l-0.217,0.193l-0.483,0.792l-0.312,0.504l-0.356,0.579l-0.129,0.222
	l-0.327,0.835l-0.054,0.241l-0.25,0.575l-0.08,1.03l0,0v0.002l0.005,0.693l0.005,0.794l0.003,0.217l-0.071-0.058l-0.057-0.094
	l-0.153-0.343l-0.108-0.148l-0.15-0.109l-0.098-0.04l-0.089-0.016l-0.05,0.003l-0.046,0.008l-0.048-0.003l-0.053-0.034l-0.1-0.128
	l-0.035-0.031l-0.047-0.013l-0.16-0.002l-0.021-0.077l-0.04-0.085l-0.053-0.083l-0.059-0.065l-0.04-0.068l0.009-0.064l0.026-0.067
	l0.012-0.073l-0.118-0.363l-0.053-0.328l-0.014-0.046l-0.02-0.044l-0.035-0.043l-0.075-0.066l-0.035-0.038l-0.018-0.036
	l-0.002-0.153l-0.013-0.056l-0.02-0.035l-0.056-0.059l-0.022-0.033l-0.096-0.174l-0.102-0.147l-0.123-0.116l-0.164-0.086
	l-0.21-0.066l-0.127-0.02l-0.175,0.053l-0.105-0.039l-0.075-0.068l0.002-0.055l0.053,0.014l0.092,0.048l0.099,0.034l0.077-0.021
	l0.032-0.018l0.148-0.04l0.037,0.009l0.03,0.021l0.022,0.013l0.014-0.015l0.16,0.078l0.086,0.03l0.051-0.002v-0.057l-0.043-0.097
	l-0.061-0.102l-0.06-0.072l-0.171-0.118l-0.159-0.03l-0.146,0.051l-0.129,0.122l-0.095-0.069l-0.207,0.065l-0.351,0.199
	l-0.267,0.254l-0.033,0.042l-0.022,0.042l-0.016,0.046l-0.009,0.056l0.007,0.034l0.032,0.086l0.005,0.029l-0.094,0.048l-0.395-0.033
	l-0.164,0.035l-0.062,0.061l-0.183,0.272l-0.101,0.244l-0.026,0.163l-0.035,0.08l-0.075,0.032l-0.32-0.006l-0.087-0.012
	l-0.163-0.043l-0.097-0.015l-0.076-0.022l-0.152-0.092l-0.092-0.036l-0.251,0.002l-0.101-0.031l-0.044,0.024l-0.04,0.032
	l-0.035,0.011l-0.056-0.027l-0.021-0.036l-0.013-0.042l-0.031-0.047l-0.073-0.051l-0.097-0.033l-0.081,0.007l-0.046,0.152
	l-0.129,0.126l-0.042,0.078v0.04l0.007,0.039l0.002,0.037l-0.017,0.036l-0.039,0.027l-0.09,0.031l-0.039,0.027l-0.179,0.297
	l-0.226,0.249l-0.066,0.002l-0.069-0.084l-0.185-0.362l-0.117-0.166l-0.426-0.447l-0.079-0.051l-0.231-0.065l-0.043-0.018
	l-0.036-0.026l-0.08-0.07l-0.035-0.023l-0.083-0.003l-0.168,0.038l-0.076-0.034l-0.055-0.038l-0.027,0.016l-0.015,0.042
	l-0.021,0.036l-0.038,0.028l-0.024,0.013l-0.065,0.008l-0.156-0.016l-0.693-0.212l-0.079-0.036l-0.066-0.048l-0.04-0.024
	l-0.045-0.01l-0.041-0.005l-0.029-0.008l-0.035-0.03l-0.065-0.078l-0.037-0.026l-0.056-0.015l-0.139,0.015l-0.044-0.01l-0.081-0.039
	l-0.095-0.017l-0.095-0.031l-0.053-0.003l-0.039,0.014l-0.072,0.044l-0.035,0.004l-0.065-0.023l-0.026-0.031l-0.019-0.041
	l-0.037-0.05l-0.289-0.265l-0.08-0.056l-0.067-0.037l-0.146-0.017l-0.168,0.039l-0.299,0.132l-1.003,0.771l-0.16,0.07l-0.084,0.023
	l-0.104,0.011l-0.103-0.015l-0.09-0.052l-0.135-0.166l-0.069-0.074l-0.081-0.043l-0.006-0.043l-0.085-0.034l-0.121-0.094
	l-0.104-0.115l-0.032-0.096l0.136,0.053l-0.009-0.08l-0.068-0.119l-0.043-0.06l0.008-0.046l-0.034-0.046l-0.046-0.046l-0.025-0.044
	l0.006-0.054l0.029-0.015l0.043-0.001l0.044-0.011l0.451-0.34l0.108-0.131l0.07-0.164l0.059-0.064l0.077,0.023l0.048-0.029
	l0.211-0.23l0.073-0.003l0.041-0.015l0.01-0.048l-0.017-0.053l-0.018-0.034l-0.004-0.029l0.023-0.036l0.129-0.132l0.073-0.054
	l0.08-0.031l0.164-0.016l0.163,0.009l0.037-0.011l0.049-0.074l0.032-0.02l0.044,0.008l0.015,0.029l-0.004,0.035l-0.018,0.031
	l0.095,0.012l0.106-0.027l0.286-0.126l0.081-0.064l0.067-0.081l0.054-0.098l0.024-0.089l-0.004-0.27l-0.003-0.014l-0.008-0.017
	l-0.007-0.021l0.004-0.03l0.011-0.022l0.063-0.061l0.031-0.047l0.045-0.093l0.037-0.04l0.091,0.126l0.09-0.057l0.128-0.218
	l0.236-0.106l0.047-0.066l-0.01-0.078l-0.061-0.031l-0.077-0.003l-0.066,0.009l-0.224,0.085l-0.187,0.021l-0.063,0.056l-0.075,0.165
	l-0.101,0.144l-0.128,0.014l-0.331-0.153l-0.159-0.036l-0.152,0.017l-0.317,0.09l-0.048,0.004l-0.038-0.004l-0.035,0.005
	l-0.097,0.083l-0.036,0.019l-0.031-0.009l-0.054,0.002l-0.249,0.072l-0.075-0.033l-0.083-0.068l-0.055-0.081l0.006-0.069l0.01-0.035
	l-0.018-0.038l-0.031-0.031l-0.03-0.016l-0.045,0.012l-0.034,0.034l-0.038,0.021l-0.05-0.025l-0.027-0.075l0.019-0.096l0.039-0.09
	l0.041-0.059l0.068-0.058l0.022-0.036l0.007-0.064l-0.007-0.04l-0.02-0.076l-0.001-0.048l0.029-0.184l0.028-0.093l0.04-0.07
	l0.067-0.019l0.101,0.008l0.095-0.004l0.057-0.054l-0.022-0.066l-0.082-0.045l-0.101-0.027l-0.077-0.011l-0.046-0.023l-0.031-0.05
	l-0.023-0.056l-0.024-0.042l-0.026-0.019l-0.071-0.029l-0.027-0.006l-0.03-0.063l-0.029-0.087l-0.04-0.189l-0.039-0.066l-0.033-0.08
	l-0.049-0.48l-0.033-0.076l-0.068-0.083l-0.05-0.079l0.064-0.008l0.177,0.039l0.131-0.058l0.115-0.132l0.082-0.164l0.026-0.147
	l-0.011-0.161l0.007-0.039l0.055-0.057l0.013-0.038l-0.026-0.097l-0.04-0.096l-0.028-0.093l0.008-0.084l0.061,0l0.072,0.014
	l0.068,0.028l0.056,0.037l0.236-0.197l0.052-0.027l0.128-0.01l0.06-0.037l0.026-0.062l0.009-0.149l0.029-0.065l0.061-0.053
	l0.128-0.079l0.059-0.053l0.625-0.925l0.131-0.086l0.143-0.227l0.139-0.103l0.576-0.287l0.271-0.237l0.181-0.077l0.077-0.049
	l0.19-0.277l0.074-0.061l0.18-0.102l0.064-0.063l0.031-0.074l0.036-0.172l0.041-0.077l0.007-0.024l-0.006-0.063l0.004-0.024
	l0.076-0.052l0.011-0.002l0.006-0.029v-0.044l-0.014-0.042l-0.039-0.029l-0.072,0.023l-0.295,0.242l-0.039,0.005l-0.037-0.006
	h-0.035l-0.037,0.015l-0.081,0.074l-0.142,0.095l-0.448,0.199l-0.071,0.055l-0.035,0.013l-0.104-0.006l-0.035,0.002l-0.033,0.016
	l-0.099,0.087l-0.168,0.083l-0.069,0.017l-0.032-0.056l-0.044-0.013l-0.038-0.006l-0.024-0.036l-0.019-0.057l-0.024-0.024
	l-0.031-0.016l-0.037-0.025l-0.077-0.081l-0.051-0.074l-0.015-0.071l0.028-0.065l0.012-0.069l-0.035-0.089l-0.089-0.165
	l-0.077-0.258l-0.009-0.091l0.007-0.045l0.033-0.089l0.002-0.043l-0.041-0.205l-0.03-0.092l-0.09-0.177l-0.034-0.107l-0.007-0.149
	l-0.013-0.053l-0.018-0.041l-0.058-0.097l-0.021-0.053l-0.047-0.147l-0.043-0.063l-0.075-0.046l0.021,0.02l-0.063-0.036
	l-0.033-0.057l-0.028-0.138l-0.029-0.069l-0.047-0.066l-0.222-0.249l-0.244-0.369l-0.244-0.226l-0.248-0.091l-0.248-0.01
	l-0.239,0.02l0.055-0.05l0.133-0.02l0.067-0.03l-0.027-0.024l-0.073,0.02l-0.073-0.026l-0.066-0.06l-0.048-0.077l-0.02,0.071
	l0.004,0.112l-0.011,0.1l-0.065,0.034l-0.075-0.061l-0.065-0.123l-0.079-0.22l0.069,0.056l0.063-0.002l0.044-0.044l0.006-0.072
	l-0.035-0.07l-0.119-0.132l-0.04-0.076l0.092,0.04v-0.038l-0.037-0.074l-0.024-0.065l0.013-0.034l0.062-0.053l0.02-0.026
	l0.011-0.046l-0.001-0.025l-0.035-0.052l-0.131-0.136l-0.126-0.022l-0.108,0.049l-0.079,0.077l-0.065,0.036l-0.063-0.029
	l-0.105-0.111l-0.289-0.178l-0.134-0.035l-0.056-0.031l-0.04,0.003l-0.084,0.127l-0.04,0.044l-0.085,0.006l-0.23-0.028l-0.064,0.014
	l-0.099,0.123l-0.162,0.291l-0.146,0.129l-0.253,0.302l-0.07,0.051l-0.069,0.025l-0.171,0.006l-0.057,0.029l-0.168,0.147
	l-0.035,0.058l0.009,0.055l0.03,0.047l0.088,0.083l0.025,0.042l0.038,0.254l-0.004,0.077l-0.132,0.33l-0.057,0.077l-0.133,0.034
	l-0.023,0.04l0.01,0.048l0.053,0.039l0.025-0.007l0.085-0.047l0.03-0.012l0.036,0.004l0.048,0.013l0.051,0.023l0.044,0.031
	l-0.003,0.026l-0.305,0.317l-0.085,0.038l-0.038,0.01l-0.03,0.003l-0.032-0.016l-0.05-0.043l-0.009,0.019l-0.052,0.01l-0.154,0.007
	l-0.039,0.012l-0.035,0.001l-0.047-0.035l-0.011-0.037l-0.002-0.055l-0.013-0.05l-0.045-0.025l-0.06,0.039l0.021,0.105l0.085,0.178
	l-0.023,0.071l-0.076,0.08l-0.095,0.068l-0.081,0.032l-0.029-0.179l0.002-0.047l-0.065,0.041l-0.029,0.089l-0.032,0.178
	l-0.049,0.056l-0.069,0.034l-0.084,0.016l-0.083-0.002l-0.159,0.032l-0.09-0.022l-0.101-0.193l-0.075-0.063l-0.085-0.014
	l-0.064,0.056l-0.006,0.088l0.046,0.088l0.063,0.086l0.041,0.089l-0.037,0.054l-0.105-0.005l-0.18-0.048l-0.087,0.006l-0.084,0.037
	l-0.173,0.143l-0.176,0.099l-0.354,0.271l-0.155,0.046l-0.043,0.081l-0.025,0.191l-0.04,0.148l-0.228,0.41l-0.017,0.075l0.027,0.166
	l-0.02,0.064l-0.045,0.027l-0.099,0.01l-0.037,0.017l-0.013,0.039l0.011,0.04l0.023,0.027h0.02l0.019,0.044l0.138,0.521
	l-0.007,0.076l-0.081-0.032l-0.032-0.047l-0.023-0.116l-0.034-0.056l-0.035-0.007l-0.01,0.05l0.01,0.181l-0.025,0.098l-0.045,0.084
	l-0.065,0.033l-0.04,0.033l0.056,0.083l0.153,0.167l0.033,0.073l0.021,0.084l-0.011,0.07l-0.059,0.026l-0.019-0.106l-0.025-0.078
	l-0.043-0.03l-0.064,0.045l-0.052,0.113l-0.006,0.028v0.058l-0.027,0.015l-0.038-0.001l-0.141,0.019l-0.036,0.015l-0.023,0.016
	l-0.01,0.012l0.001,0.026l0.015,0.059l0.144,0.297l0.002,0.079l-0.032-0.054l-0.113-0.123l-0.004,0.061l0.021,0.059l0.026,0.056
	l0.016,0.049l-0.008,0.026l-0.037,0.054l-0.01,0.03v0.034l0.002,0.026l0.09,0.293l0.009,0.107l-0.048,0.038l-0.031-0.031
	l-0.026-0.059l-0.03-0.044l-0.038,0.01l-0.021,0.041l-0.025,0.127l0.016,0.446l0.049,0.188l0.01,0.09l-0.024,0.071l-0.097,0.085
	l-0.021,0.045l-0.004,0.044l0.018,0.093l0.002,0.043l-0.046,0.125l0.024,0.077l-0.03,0.037l-0.084,0.055l-0.002,0.067l0.057,0.067
	l0.029,0.058l-0.082,0.042l-0.076-0.018l-0.037,0.003l-0.012,0.039l0.072,0.072l0.026,0.042l-0.039,0.01l-0.107-0.008l-0.054,0.01
	l-0.021,0.032l0.022,0.031l0.092,0.075l0.022,0.031l-0.343-0.03l-0.053,0.021l0.057,0.071l0.165,0.13l-0.068,0.022l-0.005,0.046
	l0.022,0.059l0.009,0.063l-0.096-0.056l-0.071-0.01l-0.198,0.089l-0.065,0.018l-0.068-0.015l-0.071-0.068l0.106,0.106l0.06,0.046
	l0.072,0.005l0.108,0.06l0.051,0.015l-0.027,0.026l-0.059,0.025l-0.027,0.021l-0.03,0.011l-0.023-0.027l-0.021-0.041l-0.021-0.024
	l-0.021-0.002l-0.091,0.004l-0.037,0.009l0.002,0.028l0.02,0.028l0.012,0.014l-0.088,0.065l-0.113,0.058l-0.118,0.03l-0.105-0.022
	l0.103,0.067l0.321,0.008l0.142,0.068l-0.064,0.03l-0.088,0.089l-0.009,0.014l-0.074-0.007l-0.072-0.027l-0.064-0.008l-0.051,0.043
	l0.021,0.021l0.076-0.004l0.076,0.063l0.081,0.055l0.09-0.035l0.178-0.002l0.039,0.02l0.039,0.031l0.032,0.04l0.025,0.046
	l-0.167,0.032l-0.09,0.004l-0.078-0.009l-0.086-0.02l-0.061-0.005l-0.054,0.021l-0.068,0.063l0.047-0.007l0.04-0.001l0.044,0.018
	l0.056,0.047l0.042,0.02l0.176,0.002l-0.003,0.015l-0.004,0.044l-0.057,0.011l-0.239,0.139l-0.026,0.03l0.001,0.028l0.04,0.028
	l0.039,0.001l0.035-0.017l0.024-0.024l0.067-0.012l0.078,0.048l0.067,0.06l0.033,0.021l0.021,0.019l0,0l-0.701,0.229l-0.302,0.047
	l-0.192,0.007l-0.074,0.025l-0.066,0.07l-0.044,0.074l-0.059,0.059l-0.252,0.038l-0.129-0.006l-0.118,0.013l-0.112,0.076
	l-0.217,0.225l-0.108,0.05l-0.022-0.137l-0.063,0.012l-0.058-0.035l-0.055-0.042l-0.055-0.013l-0.134,0.039l-0.063,0.029
	l-0.049,0.042l-0.02-0.136l-0.1-0.232l0.022-0.224l0.112-0.181l0.174-0.103l0.091-0.007l0.088,0.017l0.188,0.063l0.082-0.035
	l0.286-0.447l0.015-0.136l-0.029-0.31l-1.799-0.353l-1.226-0.537l-0.104-0.057l-0.079-0.031l-0.057,0.012l-0.095,0.082l-0.109,0.057
	l-0.114,0.009l-0.268-0.038h-0.001l-1.141-0.292l-0.256,0.027l-0.224,0.093l-0.875,0.966l-0.706,0.278l-0.058,0.05l-0.011,0.074
	l0.037,0.064l0.195,0.206l0.136,0.173l0.044,0.088l-0.025,0.043l-0.7,0.143l-0.147,0.004l-0.088-0.012l-0.048-0.031l-0.027-0.056
	l-0.026-0.091l-0.004-0.037l0.004-0.027l-0.002-0.027l-0.022-0.033l-0.027-0.012l-0.198-0.05l-0.35-0.037l-0.054-0.024l0.006-0.062
	l0.07-0.299l0.014-0.182l-0.034-0.101h-0.08l-0.136,0.115l-0.077-0.007l-0.058-0.064l-0.038-0.076l-0.046-0.072l-0.083-0.052
	l-0.033-0.007l-0.101-0.001l-0.042-0.02l-0.007-0.038l0.005-0.043l-0.002-0.034l-0.031-0.098l-0.002-0.002l-0.028-0.03l-0.076-0.019
	l-0.078,0.015l-0.281,0.17l-0.747,0.385l-0.745,0.384l-0.001,0.001h-0.002l-0.001-0.003l-0.002-0.004l-0.514-1.222l-0.494-1.16
	l-0.018-0.132l0.021-0.143l0.079-0.269l0.01-0.097l0.007-0.083l-0.032-0.265l-0.07-0.269l-0.132-0.23l-0.19-0.151l-0.248-0.033
	l-0.565,0.087l-0.167,0.08l-0.656-0.995l-0.661-0.995l-0.084-0.195l0.003-0.163l0.266-0.727l-0.001-0.316l-0.037-0.329l-0.05-0.145
	l-0.122-0.125l-0.278-0.044l-0.109-0.079l-0.021-0.073l0.004-0.164l-0.028-0.074l-0.063-0.042l-0.064-0.005l-0.057-0.021
	l-0.042-0.093l0.005-0.074l0.086-0.226l-0.005-0.071l-0.081-0.212l-0.012-0.034l-0.029-0.172l0.006-0.184l0.045-0.16l0.089-0.1
	l0.095-0.018l0.318,0.038l0.149-0.048l0.063,0.001l0.066,0.02l0.048,0.019l0.044,0.003l0.059-0.028l0.042-0.011l0.214,0.012
	l0.104,0.019l0.16-0.013l0.215,0.04l0.16-0.013l0.056,0.025l0.055,0.037l0.063,0.031l0.063,0.008l0.193-0.028l0.135,0.041
	l0.114,0.074l0.108,0.084l0.124,0.07l0.046,0.015l0.088,0.045l0.044,0.015l0.054,0.001l0.156-0.019l0.119,0.035l0.09,0.058
	l0.074,0.022l0.081-0.076l0.049-0.082l0.03-0.011l0.2-0.01l0.198-0.062l0.034-0.022l0.009-0.05l-0.02-0.126l0.004-0.058l0.263-0.668
	l0.089-0.374l-0.035-0.391l-0.023-0.099l-0.017-0.052l-0.035-0.037l-0.158-0.106l-0.073-0.036l-0.065-0.005l-0.195,0.116
	l-0.092-0.085l-0.102-0.142l-0.167-0.087l-0.271-0.087l-0.292-0.174l-0.541-0.433l-0.226-0.253l-0.116-0.094l-0.127-0.018
	l-0.128,0.099l-0.081,0.028l-0.076-0.058l-0.012-0.083l0.058-0.052l0.445-0.137l0.121-0.087l0.074-0.124l0.087-0.738l-0.066-0.472
	l0.008-0.182l0.216-0.411l0.101-0.286l0.008-0.167l-0.084-0.154l-0.146-0.065l-0.158-0.007l-0.136-0.027l-0.072-0.126l-0.041-0.151
	l-0.031-0.073l-0.095-0.134l-0.044-0.087l-0.029-0.086l-0.008-0.068l0.035-0.07l0.217-0.139l0.49-0.581l0.009-0.067l-0.044-0.255
	l0.022-0.622l0.041-0.147l0.287-0.513l0.112-0.417l0.002-0.073l-0.021-0.05l-0.048-0.04l-0.074-0.043l-0.074-0.06l-0.012-0.054
	l0.01-0.057l-0.005-0.069l-0.021-0.005h-0.037l-0.033-0.01l-0.003-0.038l0.018-0.038l0.115-0.151l0.023-0.057l-0.005-0.065
	l-0.045-0.08l0.04-0.066l0.02-0.051l-0.018-0.057l-0.071-0.088l-0.221-0.177l-0.045-0.059l-0.006-0.083l0.027-0.058l0.001-0.061
	l-0.084-0.091l-0.068-0.085l0.039-0.042l0.146-0.033l0.095-0.112l0.033-0.005l0.02,0.104l0.031,0.102h0.055l0.06-0.056l0.041-0.063
	l0.05-0.148l-0.012-0.128l-0.093-0.107l-0.387-0.17l-0.122-0.107l-0.015-0.114l0.133-0.108l0.062-0.022l0.074-0.009l0.079,0.006
	l0.079,0.03l0.098,0.024l0.076-0.035l0.528-0.568l0.025-0.065l0.018-0.083l0.03-0.065l0.061-0.02l0.146,0.032l0.054-0.001
	l0.063-0.03l0.091-0.106l0.063-0.026l0.089,0.043l0.079,0.08l0.038,0.073l0.007,0.07l-0.016,0.071l-0.158,0.281l0.017,0.039
	l0.075,0.022l0.09,0.016l0.062,0.019l0.001,0.001l0.137-0.006l0.169-0.171l0.138-0.233l0.046-0.192l-0.021-0.096l-0.03-0.085
	l-0.007-0.073l0.05-0.063l0.077-0.039l0.053,0.004l0.056,0.043l0.086,0.076l0.152,0.043l0.082-0.125l0.035-0.193l0.007-0.162
	l-0.13-0.127l-0.147-0.074l-0.114-0.096l-0.03-0.274l-0.04-0.174l-0.004-0.085l0.032-0.091l0.062-0.065l0.081-0.045l0.091-0.03
	l0.072-0.046l0.069-0.069l0.058-0.08l0.033-0.083l-0.002-0.087l-0.069-0.165l-0.021-0.084l0.02-0.097l0.123-0.132l0.049-0.077
	l0.003-0.092l-0.083-0.135l-0.002-0.07l0.093-0.032l0.155,0.07l0.168,0.104l0.135,0.07l0.42,0.101l0.29,0.149l0.05,0.018
	l0.066,0.013l0.082,0.007l0.079-0.011l0.07-0.026l0.021-0.014l0.01-0.085l0.19-0.214l0.041,0.016l0.009-0.042l-0.009-0.063
	l-0.014-0.05l-0.002-0.04l0.014-0.041l0.042-0.068l0.001-0.029l-0.018-0.038l-0.011-0.043l0.019-0.048l0.033-0.015l0.093-0.007
	l0.033-0.012l0.101-0.152l0.058-0.036l0.038,0.097l0.049-0.046l0.087-0.033l0.039-0.031l0.021-0.049l-0.002-0.061l-0.007-0.064
	v-0.059l0.042-0.13l0.25-0.3l-0.082-0.038l-0.02-0.038l0.019-0.039l0.032-0.038l0.024-0.019l0.026,0.003l0.027,0.009l0.03,0.002
	l0.028-0.016l0.006-0.022v-0.025l0.008-0.02l0.177-0.172l0.023-0.043l0.021-0.088l0.075-0.021l0.004-0.007l0.11-0.066l0.058,0.001
	l0.129,0.026l0.06-0.004l0.301-0.177l0.151-0.048l0.058-0.004l0.074,0.035l0.013,0.049l-0.03,0.126l0.089-0.001l0.06,0.056
	l0.054,0.069l0.068,0.039l0.147-0.017l0.074,0.003l0.08,0.043l0.111-0.006l0.5-0.364l0.081-0.153l0.071-0.055l0.148-0.04
	l0.086-0.007l0.174,0.051l0.076-0.029l0.124-0.12l0.074-0.022l0.07,0.027l0.163,0.103l0.066,0.024l0.049,0.01l0.043,0.024
	l0.055,0.066l0.152,0l0.071-0.015l0.136-0.054l0.073,0.003l0.074,0.011l0.079,0.002l0.085-0.033l0.198-0.184l0.039-0.012l0.08-0.01
	l0.035-0.012l0.114-0.098l0.046-0.023l0.045,0.008l0.039,0.027l0.032,0.04l0.022,0.05l0.059,0.306l0.059,0.086l0.159,0.152
	l0.06,0.077l0.121,0.208l0.063,0.081l0.079,0.054l0.11,0.028l0.188,0.005l0.084-0.013l0.083-0.03l0.052-0.047l0.067-0.147
	l0.008-0.016l0.042-0.146v-0.252l-0.049-0.174l-0.122-0.098l-0.338-0.146l-0.078-0.068l-0.114-0.157l-0.077-0.066l-0.032-0.008
	l-0.072,0.004l-0.035-0.017l-0.026-0.036l-0.032-0.101l-0.02-0.044l-0.173-0.094l-0.184,0.08l-0.156,0.118l-0.09,0.023l-0.007-0.064
	l0.015-0.072l-0.013-0.062l-0.182-0.069l-0.027-0.063l0.012-0.073l0.108-0.286l0.047-0.064l0.064-0.05l0.068-0.032l0.166-0.029
	l0.207-0.108l0.088-0.009l0.154,0.003l0.146-0.017l0.413-0.321l0.112,0.031l0.143,0.135l0.142,0.023l0.937-0.168l0.086-0.033
	l0.05-0.038l0.033-0.053l0.068-0.165l0.052-0.073l0.069-0.054l0.088-0.027l0.088,0.01l0.077,0.031l0.071,0.016l0.14-0.087
	l0.068-0.01l0.168,0.009l0.162-0.055l0.037-0.123l-0.037-0.351l0.114-0.655l0.001-0.658l-0.044-0.133l-0.381-0.496l-0.068-0.104
	l-0.028-0.073l0.021-0.057l0.258-0.151l0.076-0.071l0.041-0.085l-0.006-0.096l-0.041-0.073l-0.126-0.137l-0.009-0.072l0.082-0.156
	l-0.018-0.09l-0.052-0.043l-0.133-0.062l-0.055-0.05l-0.026-0.064l-0.011-0.08l0.002-0.143l0.084-0.061l0.488,0.021l0.062-0.037
	l0.177-0.171l0.033-0.057l-0.038-0.042l-0.076-0.035l-0.163-0.048l-0.079-0.056l-0.022-0.084l0.009-0.089l0.019-0.071l0.039-0.076
	l0.048-0.032l0.146-0.043l0.071-0.051l0.051-0.075l0.033-0.088l0.02-0.094l0.034-0.084l0.189-0.217l0.065-0.155l0.029-0.268
	l0.018-0.06l0.051-0.019l0.104,0.029l0.165,0.1l0.082,0.035l0.06-0.022l0.049-0.065l0.052-0.043l0.066-0.019l0.092,0.007l0.08,0.027
	l0.162,0.079l0.079,0.026l0.092,0.007l0.08-0.015l0.221-0.11l0.066-0.055l0.047-0.072l0.015-0.095l-0.02-0.095l-0.037-0.081
	l-0.025-0.08l0.011-0.094l0.091-0.104l0.259-0.204l0.02-0.133l-0.085-0.137l-0.125-0.106l-0.274-0.184l-0.13-0.136l-0.055-0.128
	l-0.055-0.116l0.04-0.09l0.157-0.074l0.041-0.037l0.106-0.156l0.041-0.025l0.039-0.007l0.089,0.001l0.027-0.024l0.017-0.112
	l0.017-0.045l0.117-0.243l0.018-0.015l0.028,0.002l0.026,0.018l0.022,0.019l0.017,0.007l0.088-0.031l0.086-0.049l0.059-0.073
	l0.005-0.098l-0.047-0.092l-0.065-0.095l-0.046-0.092l0.012-0.086l0.03-0.078l0.02-0.165l0.06-0.018l0.137-0.023l0.076,0.006
	l0.06,0.034l0.055,0.038l0.058,0.014l0.067-0.035l0.247-0.348l0.134-0.084l0.164-0.009l0.18,0.112l0.061,0.078l0.036,0.079
	l0.018,0.079l0.008,0.081l0.038,0.065l0.08,0.049l0.09,0.029l0.068,0.003l0.047-0.047l0.091-0.154l0.06,0.002l0.137,0.144
	l0.057,0.034l0.081-0.016l0.056-0.069l0.039-0.103l0.05-0.087l0.089-0.021l0.162,0.055l0.065,0.011l0.082-0.012l0.292-0.104
	l0.12-0.081l0.598-0.75l0.062-0.05l0.086-0.005l0.082,0.014l0.061-0.006l0.045-0.029l0.037-0.049l0.131-0.33l0.098-0.154
	l0.146-0.068l0.097-0.013l0.16-0.115l0.048-0.018l0.098,0.09l-0.021,0.098l-0.136,0.151l0.007,0.125l0.058,0.05l0.09,0.001
	l0.241-0.066l0.026-0.126l-0.021-0.166l-0.004-0.158l0.08-0.169l0.112-0.149l0.072-0.167l-0.035-0.213l-0.149-0.316l-0.029-0.081
	l-0.032-0.17l-0.034-0.076L1166,443.43l-0.151-0.092l-0.078-0.065l-0.058-0.069l-0.183-0.333l-0.018-0.045l-0.007-0.047l0.044-0.161
	l0.108-0.195l0.154-0.119l0.178,0.067l0.152,0.106l0.158,0.023l0.154-0.029l0.143-0.054l0.176-0.111l0.951-1.167l0.153-0.336
	l0.301-1.029l0.298-1.034l-0.02-0.159l-0.08-0.165l-0.142-0.174l-0.338-0.322l-0.097-0.111l-0.589-0.659l-0.149-0.207l-0.051-0.188
	l0.021-0.182l0.063-0.189l-0.053,0.038l-0.162,0.119l-0.13,0.038l-0.16-0.01l-0.394-0.114h-0.124l-0.026-0.002l-0.096,0.091
	l-0.156,0.081l-0.111,0.084l-0.022,0.046l-0.024,0.087l-0.022,0.043l-0.035,0.034l-0.115,0.068l-0.06,0.063l-0.118,0.22
	l-0.051,0.063l-0.113,0.092l-0.047,0.056l-0.058,0.104l-0.025,0.028l-0.026,0.019l-0.022,0.009l-0.021,0.004h-0.021l-0.026,0.001
	l-0.03,0.007l-0.123,0.054l-0.061,0.007l-0.107-0.017l-0.063-0.016l-0.042-0.02l-0.136-0.098l-0.044-0.051l-0.031,0.048l-0.801,1.2
	l-0.025,0.022l-0.04-0.005l-0.044-0.027l-0.042-0.02l-0.04,0.017l-0.255,0.29l-0.074,0.034l-0.082-0.068l-0.023-0.086l0.032-0.184
	v-0.084l-0.024-0.036l-0.073-0.052l-0.015-0.036l0.001-0.089l-0.01-0.05l-0.023-0.038l-0.139,0.016l-0.448,0.443l-0.386,0.156
	l-0.099,0.074l0.018,0.065l0.047,0.074l-0.014,0.104l-0.076,0.08l-0.089,0.023l-0.348-0.071l-0.082-0.023l-0.063-0.057l-0.064-0.121
	l0,0l0.05-0.078l0.326-0.512l-0.118-0.732l-0.015-0.357l0.062-0.309l0.11-0.162l0.135-0.143l0.096-0.166l-0.007-0.229l-0.091-0.247
	l-0.008-0.087l0.074-0.365l0.002-0.086l-0.049-0.261l-0.006-0.085l0.016-0.176l-0.022-0.157l-0.331,0.021l-0.089,0.005l-0.083-0.039
	l-0.178-0.115l-0.086-0.036l-0.054-0.005l-0.044,0.022l-0.251,0.214l-0.066,0.022l-0.077-0.036l-0.185-0.162l-0.082-0.059
	l-0.073-0.034l-0.037-0.005l-0.022,0.027l-0.081,0.163l-0.035,0.048l-0.049,0.02l-0.044-0.009l-0.03-0.016l-0.031-0.004
	l-0.045,0.021l-0.042,0.012l-0.042-0.014l-0.043-0.032l-0.044-0.04l-0.126-0.195l0.013-0.176l0.062-0.167l0.021-0.167l-0.025-0.08
	l-0.072-0.159l-0.02-0.095l-0.081-0.818l-0.35,0.097h-0.004v-0.004l0.139-0.229l0.04-0.127l0.002-0.145l0,0v-0.001v-0.001
	l-0.01-0.151l0.048-0.114l0.092-0.083l0.118-0.058l0.083-0.062l0.066-0.085l0.047-0.1l0.018-0.106l-0.017-0.219l0.026-0.084
	l0.092-0.062l0.149-0.048l0.259-0.064l0.089-0.071l0.007-0.129l-0.009-0.091l0.023-0.068l0.093-0.117l0.149-0.333l0.101-0.086
	l0.253-0.101l0.08-0.102l0.063-0.284l-0.002-0.167l-0.057-0.136l-0.001-0.001l-0.171-0.211l-0.091-0.077l-0.113-0.05l-0.148-0.001
	l-0.107,0.064l-0.498,0.57l-0.203,0.156l-0.247,0.073l-0.222,0.012l-0.056,0.051l-0.04,0.385l-0.048,0.108l-0.092,0.089l-0.37,0.146
	l-0.098,0.08l-0.17,0.285l-0.112,0.117l-0.165,0.048l-0.135-0.015l-0.12-0.052l-0.097-0.088l-0.063-0.129l-0.083-0.256l-0.04-0.069
	l-0.042-0.051l-0.12-0.108l-0.013-0.083l0.031-0.088l0.062-0.068l0.079-0.024l0.128,0.005l0.132-0.009l0.107-0.041l0.057-0.09
	v-0.108l-0.046-0.254l-0.007-0.119l0.017-0.162l-0.321-0.125l-0.08-0.01l-0.038,0.031l-0.198,0.337l-0.026,0.105l0.073,0.25
	l-0.051,0.114l-0.334,0.352l-0.063,0.034h-0.038l-0.088-0.018l-0.04,0l-0.127,0.118l-0.271,0.394l-0.126,0.02l-0.057-0.149
	l0.271-0.235l-0.015-0.162l-0.047-0.045l-0.054-0.036l-0.05-0.041l-0.035-0.06l0.005-0.063l0.055-0.126l-0.031-0.061l-0.076-0.109
	l-0.031-0.128l-0.017-0.128l-0.032-0.111l-0.088-0.078l-0.1,0.031l-0.098,0.074l-0.092,0.048L1155.29,430l-0.039,0.015l-0.049,0.047
	l-0.119,0.19l-0.051,0.054l-0.055-0.013l-0.051-0.03l-0.044-0.043l-0.034-0.052l-0.028-0.1l0.006-0.086l0.056-0.155l0.054-0.099
	l0.112-0.125l0.03-0.005l0.035,0.011l0.054,0.009l0.074-0.001l0.068-0.02l0.028-0.055l-0.046-0.105l-0.065-0.064l-0.08-0.038
	l-0.171-0.041l-0.03-0.008l-0.097-0.04l0.089-0.173l0.012-0.098l-0.041-0.11l-0.025-0.097l0.033-0.087l0.169-0.214l0.063-0.019
	l0.201,0.028l0.064-0.023l0.172-0.187l0.139,0.088l0.052,0.006l0.049-0.041l0.021-0.063l-0.02-0.061l-0.053-0.062l-0.07-0.068
	l0.167-0.284l0.053-0.017l0.04-0.029l0.015-0.043l-0.03-0.117l0.021-0.045l0.04-0.035l0.046-0.027l0.095,0.038l0.057,0.034
	l0.049,0.01l0.07-0.034l0.09-0.085l0.213-0.322l-0.253-0.186l-0.026-0.016l-0.081-0.06l0.677-1.26l0.044-0.057l0.064-0.007
	l0.09,0.075h-0.001v0.189l0.032,0.079l0.089,0.051l0.104-0.003l0.149-0.099l0.097-0.021l0.055-0.001l0.055-0.01l0.045-0.022
	l0.027-0.04l0.007-0.063l-0.022-0.034l-0.146-0.07l-0.042-0.009l-0.032-0.024l-0.033-0.075l-0.039-0.213l-0.105-0.003l-0.029,0.004
	l-0.169-0.068l-0.06-0.174l0.009-0.201l0.043-0.144l0.137-0.274l0.035-0.208l0.043-0.052l0.132-0.093l0.052-0.079l0.082-0.297
	l0.202-0.281l0.014-0.108l-0.045-0.098l-0.066-0.038l-0.079-0.017l-0.088-0.037l-0.046-0.092l0.031-0.119l0.107-0.178l0.261-0.296
	l0.007-0.007l0.062-0.113l0.017-0.111l-0.02-0.24l0.015-0.109l0.104-0.215l0.09-0.639l0.068-0.104l0.089-0.064l0.305-0.141
	l0.065-0.072l0.038-0.033l-0.039-0.073l0.021-0.125l0.047-0.122l0.011-0.128l-0.085-0.134l-0.163,0.022l-0.095-0.003l-0.029-0.025
	l-0.004-0.037l-0.02-0.047l-0.004-0.039l0.084-0.022l0.036-0.025l0.027-0.037l0.015-0.038l-0.003-0.039l-0.025-0.088l-0.003-0.041
	l0.022-0.046l0.106-0.114l0.028-0.086l0.021-0.194l0.033-0.107l0.011-0.08l-0.007-0.031l-0.003-0.052l0.031-0.04l0.074-0.058
	l0.137-0.329l0.007-0.047l-0.015-0.051l-0.019-0.044l-0.005-0.027l0.025-0.034l0.057-0.051l0.022-0.033l0.028-0.089l-0.004-0.183
	l0.054-0.02l0.239-0.098l0.102-0.066l0.07-0.106l0.024-0.26l-0.03-0.29l0.023-0.256l0.185-0.164l0.409-0.064l0.063-0.019
	l0.052-0.026l0.038-0.037l0.025-0.058v-0.03l-0.013-0.061l0.007-0.027l0.083-0.073l0.017-0.034l-0.094-0.188l-0.522-0.215
	l-0.067-0.137l-0.072-0.036l-0.022-0.009l-0.105-0.071l-0.024-0.086l0.063-0.504l0.043-0.093l0.138-0.153l0.02-0.081l-0.083-0.085
	l-0.179-0.072l-0.051-0.056l0.022-0.103l0.192-0.288l0.354-0.358l0.035-0.11l-0.03-0.132l-0.09-0.181l-0.063-0.164l-0.004-0.143
	l0.044-0.285l0.072-0.035l0.308,0.164l0.1-0.005l0.085-0.463l0.241-1.343l0.079-0.223l0.222-0.406l0.077-0.22v-0.096l-0.046-0.192
	l0.002-0.092l0.294-0.655l0.03-0.113l0.006-0.249l0.031-0.117l0.126-0.246l0.036-0.146l-0.028-0.132l-0.076-0.137l-0.036-0.125
	l0.013-0.11l0.158-0.188l0.068-0.237l0.304-0.585l0.058-0.292l-0.043-0.283l-0.116-0.244l-0.037-0.109l-0.007-0.132l0.026-0.136
	l0.056-0.1l0.274-0.247l0.188-0.561l-0.023-0.089l-0.105-0.097l0.008-0.09l-0.028-0.056l-0.054-0.051l-0.068-0.079l-0.004-0.085
	l0.038-0.097l0.011-0.091l-0.088-0.07l-0.26,0.186l-0.169,0.059l-0.107-0.137l-0.096,0.037l-0.027,0.016l0.006-0.271l0.021-0.08
	l0.037-0.041l0.046-0.026l0.043-0.042l0.029-0.068l0.02-0.208l0.04-0.081l0.175-0.221l0.04-0.264l0.033-0.08l0.06-0.078l0.009-0.045
	l-0.028-0.063l-0.044-0.036l-0.097-0.037l-0.039-0.026l-0.029-0.088l-0.013-0.208l-0.061-0.068l-0.103-0.05l-0.079-0.054
	l-0.065-0.068l-0.062-0.088l0.07-0.052l0.023-0.036l0.175-0.274l0.069-0.061l0.084-0.038l0.219-0.025l0.1-0.026l0.063-0.061v-0.108
	l-0.044-0.07l-0.076-0.057l-0.188-0.086l-0.082,0.059l-0.054,0.053l-0.07,0.021l-0.177-0.058l-0.042-0.006l-0.033-0.021
	l-0.022-0.052l-0.005-0.072l0.021-0.056l0.45-0.505l0.132-0.03L1162.175,400.081z M1190.246,447.353l0.055,0.206l0.074,0.198
	l0.093,0.189l0.111,0.177l0.13,0.165l0.146,0.15l0.166,0.135l0.178,0.114l0.188,0.091l0.192,0.068l0.199,0.046l0.202,0.023
	l0.206,0.002l0.205-0.019l0.205-0.042l0.202-0.062l0.2-0.083l0.192-0.102l0.187-0.123l0.179-0.141l0.169-0.16l0.157-0.178
	l0.144-0.197l0.127-0.21l0.105-0.216l0.084-0.221l0.064-0.224l0.044-0.225l0.023-0.226l0.004-0.223l-0.017-0.22l-0.037-0.215
	l-0.056-0.208l-0.075-0.2l-0.094-0.19l-0.115-0.178l-0.131-0.164l-0.15-0.15l-0.169-0.133l-0.182-0.112l-0.19-0.09l-0.196-0.066
	l-0.202-0.042l-0.204-0.021l-0.206,0.001l-0.207,0.022l-0.205,0.043l-0.202,0.063l-0.198,0.084l-0.193,0.103l-0.184,0.123
	l-0.176,0.141l-0.166,0.161l-0.153,0.178l-0.143,0.195l-0.122,0.208l-0.103,0.214l-0.083,0.218l-0.062,0.221l-0.041,0.223
	l-0.022,0.222l-0.002,0.221l0.017,0.217L1190.246,447.353z"/></svg>