<?xml version="1.0" encoding="utf-8"?>
<!-- Generator: Adobe Illustrator 15.0.0, SVG Export Plug-In . SVG Version: 6.00 Build 0)  -->
<!DOCTYPE svg PUBLIC "-//W3C//DTD SVG 1.1//EN" "http://www.w3.org/Graphics/SVG/1.1/DTD/svg11.dtd">
<svg version="1.1" id="Ebene_1" xmlns="http://www.w3.org/2000/svg" xmlns:xlink="http://www.w3.org/1999/xlink" x="0px" y="0px"
	 width="1920px" height="1080px" viewBox="0 0 1920 1080" enable-background="new 0 0 1920 1080" xml:space="preserve">

<path fill="#F4E0B6" stroke="#FFFFFF" d="M1067.718,508.963l0.039,0.011l-0.259,0.55l-0.075,0.107l-0.087,0.079l-0.202,0.118
	l-0.081,0.086l0.015,0.027l0.095,0.053l0.033,0.002l-0.011,0.017l-0.003,0.021l0.007,0.029l0.016,0.036l0.081,0.008l0.23-0.072
	l0.055-0.035l0.018,0.034l-0.013,0.032l0.002,0.048l0.017,0.057l0.031,0.064l0.016-0.048l-0.018-0.139l0.004-0.034l0.008-0.023
	l0.008-0.134l0.032-0.089l0.021-0.035l0.025-0.024l0.126-0.215l0.032-0.035l0.088-0.06l0.097-0.196l0.026-0.03l0.031-0.021
	l0.011-0.032l-0.013-0.054l-0.003-0.052l0.033-0.026l-0.013-0.018l-0.031-0.044l-0.014-0.017l0.027-0.01l0.008-0.009v-0.001
	l0.515-0.211l0.962-0.401l0.715-0.303l0.715-0.305l0.882-0.382l1.065-0.469l0.682-0.305l0.681-0.308l0.57-0.26l0.457-0.21
	l0.132-0.144l0.024-0.062l-0.005-0.148v-0.008l0.042-0.061l0.055-0.02l0.185,0.001l0.027-0.01l0.047-0.04l0.027-0.007l0.04,0.014
	l0.032,0.025l0.028,0.028l0.03,0.02l0.036,0.004l0.087-0.033l0.027,0.016l0.014,0.045l0.014,0.056l0.024,0.045l0.077,0.039
	l0.054-0.029l0.042-0.055l0.041-0.037l0.056-0.001l0.217,0.049l0.122,0.01l0.233-0.028l0.069,0.017l0.066,0.015l0.042,0.026
	l0.092,0.063l0.039,0.021l0.034,0.004l0.06-0.012l0.028,0.002l0.074,0.04l0.079,0.066l0.079,0.08l0.067,0.08l0.146,0.179
	l0.053,0.095l0.002,0.084l-0.015,0.042l-0.003,0.023l-0.002,0.025l0.024,0.046l0.03,0.033l0.036,0.02l0.038,0.008l0.024,0.011
	l0.019,0.017l0.012,0.024l0.004,0.031l0.072,0.122l0.081,0.09l0.085,0.079l0.084,0.094l0.146,0.212l0.074,0.073l0.106,0.057l0,0l0,0
	l0.15,0.255l0.221,0.262l0.567,0.542l0.249,0.184l0.122,0.106l0.317,0.343l0.109,0.096l0.077,0.036l0.056,0.046l0.053,0.05
	l0.065,0.049l0.07,0.026l0.06,0.01l0.053,0.036l0.052,0.104l0.012,0.072v0.066l0.01,0.071l0.042,0.082l0.061,0.06l0.128,0.057
	l0.063,0.046l0.021,0.03l0.022,0.053l0.016,0.026l0.086,0.105l0.02,0.032l0.007,0.03l0.005,0.071l0.012,0.037l0.027,0.043
	l0.022,0.021l0.021,0.015l0.025,0.029l0.305,0.492l0.074,0.123l0.066,0.195l-0.026,0.178l-0.191,0.406l-0.337,0.344l-0.141,0.249
	l-0.11,0.302l-0.031,0.638l-0.029,0.178l-0.004,0.098l0.02,0.302l0.009-0.002l0.027,0.007l0.026,0.006l0.05,0.027l0.037,0.049
	l0.022,0.084l0.075,0.007l0.203-0.046l0.029-0.035l0.05,0.015l0.186-0.022l0.054-0.022l0.014,0.025l0.004,0.048l0.01,0.003
	l0.028-0.034l0.038-0.002l0.035,0.011l0.025-0.008l0.011-0.061l0.02,0.013l0.036,0.009l0.026,0.01l0.019-0.063l0.027,0.025
	l0.02,0.054l-0.002,0.02l0.147,0.105l0.056-0.01l0.113-0.068l0.063,0.004l0.034,0.023l0.032,0.028l0.028,0.017l0.028-0.002
	l0.043,0.005l0.035,0.043l0.03,0.045l0.048,0.042l0.123,0.137l0.066,0.055l-0.021,0.051l-0.002,0.07l0.018,0.141l0.027,0.084
	l0.072,0.134l0.01,0.056l0.012-0.002l0.004-0.002l0.006,0.004l0.011,0.019l-0.02,0.033l0.04,0.095l-0.008,0.049l0.08,0.054
	l0.08,0.038l0.027,0.111l-0.021,0.075l-0.033,0.061l-0.013,0.073l0.006,0.035l0.016,0.051l0.039,0.102l0.021,0.017l0.033,0.021
	l0.02,0.021l-0.017,0.024l-0.003,0.017l0.022,0.021l0.031,0.021l0.022,0.011l-0.01,0.057l-0.01,0.019l-0.02,0.016l0.017,0.029
	l0.046,0.017l0.025,0.038l0.049,0.118l0.042,0.055l0.054,0.045l0.107,0.068l-0.016,0.01l-0.018,0.009l0.066,0.047l0.048-0.006
	l0.044,0.002l0.041,0.05l0.02,0.022l0.048,0.048l0.055,0.006l0.055-0.007l0.048,0.005l0.008,0.104l0.019,0.023l0.187,0.099
	l0.047,0.038l-0.02,0.029l-0.002,0.039l0.021,0.043l0.046,0.047l-0.035,0.043l-0.017,0.073v0.079l0.017,0.062l0.064,0.078h0.053
	l0.047-0.025l0.059,0.005l0.312,0.237l0.095,0.039l0.173,0.014l0.188,0.06l0.056,0.034l-0.029,0.044l0.012,0.043l0.082,0.061
	l0.125,0.068l0.052,0.043l0.125,0.154l0.015,0.026l0.007,0.038l0.028,0.006l0.038-0.004l0.043,0.005l0.053,0.027l0.024,0.03
	l0.023,0.035l0.044,0.046l0.073,0.043l0.259,0.066l0.272,0.003l0.062,0.033l0.01,0.087l-0.066,0.059l-0.082,0.047l-0.037,0.051
	l-0.087-0.002l-0.064,0.048l-0.031,0.077l0.01,0.086l0.048,0.075l0.065,0.031l0.075-0.005l0.074-0.029l0.015,0.025l0.008,0.09
	l0.07,0.042l0.092,0.006l0.077-0.021l0.038,0.102l0.067,0.074l0.152,0.122l0.001,0.001l0.001,0.136l0.134,0.179l0.048,0.044
	l0.02,0.004l0.003,0.01l-0.006,0.065l-0.018,0.078l-0.111,0.177l0.021,0.054l0.048,0.076l0.026,0.055l0.013,0.05l0.021,0.164
	l-0.1,0.131l-0.451,0.258l-0.069,0.076l-0.03,0.046l-0.015,0.053l0.005,0.075l0.028,0.125l0.002,0.006l-0.005,0.072l-0.074,0.332
	l-0.038,0.101l0,0v0.001l0,0l-0.078,0.184l-0.063,0.154l-0.218,0.962l-0.008,0.164l-0.052,0.125l-0.037,0.169l-0.046,0.566
	l-0.045,0.17l0.006,0.041l0.023,0.092l0.004,0.036l-0.009,0.035l-0.035,0.042l-0.015,0.027l-0.008,0.044l0.004,0.378l-0.019,0.067
	l-0.021,0.028l-0.049,0.04l-0.015,0.042v0.045l0.027,0.153l-0.047,0.373l0.021,0.191l0.129,0.118l0.049,0.051l0.109,0.163
	l0.035,0.042l0.02,0.018l0.063,0.036l0.089,0.031l0.032,0.023l0.046,0.059l0.238,0.353l0.022,0.064l0.023,0.146l0.042,0.163
	l0.007,0.11l0.013,0.056l0.027,0.013l0.008-0.015l0.01-0.063l0.057,0.008l-0.002,0.003l-0.009,0.008l0.117,0.016l0.131,0.062
	l0.067,0.01l0.152,0.004l0.053,0.024l0.02,0.035l0.021,0.091l0.026,0.057l0.032,0.032l0.082,0.051l0.008,0.006l0.013,0.01
	l0.005,0.081l-0.064,0.005l-0.087-0.023h-0.06l-0.034,0.006l-0.085-0.043l-0.04-0.012l-0.029,0.012l-0.048,0.049l-0.098,0.043
	l-0.053,0.035l-0.059,0.023l-0.088-0.011l-0.158-0.057l-0.06,0.01l-0.025,0.083l-0.114,0.002l-0.207,0.099l-0.111,0.02l-0.205-0.065
	l-0.066,0.007l-0.14,0.081l-0.143,0.026l-0.028-0.007l-0.02-0.023l-0.008-0.03l-0.015-0.028l-0.047-0.018l-0.023,0.007l-0.058,0.042
	l-0.026,0.011l-0.037,0.002l-0.114-0.011l-0.204,0.061l-0.103-0.017l-0.086-0.12l-0.11-0.126l-0.14-0.084l-0.142-0.041l-0.178,0.001
	l-0.144-0.04l-0.063-0.003l-0.047,0.037l-0.021,0.066l-0.013,0.064l-0.018,0.032l-0.058-0.012l-0.16-0.093l-0.068-0.022l-0.03,0.005
	l-0.035,0.03l-0.021,0.008l-0.036-0.005l-0.074-0.024l-0.036-0.005l-0.056,0.012l-0.173,0.118l-0.031,0.037l-0.036,0.044
	l-0.044,0.008l-0.086,0.071l-0.042,0.022l-0.292,0.057l-0.188-0.005l-0.041,0.01l-0.029,0.057l-0.016,0.165l-0.021,0.066
	l-0.052,0.038l-0.054-0.008l-0.061-0.023l-0.064-0.009l-0.042,0.016l-0.094,0.076l-0.029,0.041l-0.021,0.086l0.051,0.022l0.08,0.007
	l0.064,0.045l-0.002,0.048l-0.043,0.034l-0.054,0.028l-0.037,0.03l-0.025,0.081l-0.019,0.171l-0.029,0.079l-0.05,0.053l-0.053,0.015
	l-0.06-0.011l-0.065-0.023l-0.068-0.013l-0.045,0.015l-0.043,0.024l-0.063,0.021l-0.058-0.011l-0.38-0.166l-0.044,0.012
	l-0.091,0.066l-0.061,0.02l-0.023,0.014l-0.019,0.029l-0.015,0.073l-0.015,0.044l-0.05,0.054l-0.065,0.015l-0.281-0.006l-0.035,0.03
	l0.037,0.071l-0.133,0.072l-0.128,0.013l-0.031,0.016l-0.017,0.033l0.003,0.031l0.015,0.04l0.017,0.065l0.011,0.067l-0.004,0.024
	l-0.193,0.118l-0.027,0.042l-0.021,0.097l-0.014,0.039l-0.061,0.021l-0.011-0.003l-0.004,0.026l0.009,0.141l0.01,0.056l0.005,0.054
	l-0.011,0.057l0.058,0.151l0.025,0.115l-0.03,0.065h-0.109l-0.203-0.064l-0.094-0.003l-0.079,0.052l-0.029,0.06l-0.023,0.079
	l-0.018,0.057l-0.048,0.051l-0.126,0.049l-0.079,0.008l-0.059-0.032l0,0l-0.017-0.059l0.016-0.215l0.006-0.015l0.015-0.012
	l0.011-0.017l-0.006-0.027l-0.015-0.016h-0.001l-0.03-0.012l-0.001-0.001l-0.009-0.007h-0.002l-0.049-0.01l-0.017-0.009l0,0
	l-0.008-0.017l0.005-0.042l-0.005-0.019l-0.116-0.191l-0.048-0.063l-0.065-0.066l0,0l-0.033-0.007l-0.068,0.079l-0.053,0.032
	l-0.06,0.021l-0.178,0.021V530.3l-0.021-0.051l-0.034-0.063l-0.007-0.024v-0.032l-0.107,0.049l-0.062,0.011l-0.064-0.013
	l-0.027-0.023l-0.109-0.111l-0.153-0.185l-0.074-0.068l-0.083-0.012l-0.03-0.013l-0.084-0.059l-0.027,0.002l-0.018,0.001
	l-0.013,0.013l0.001,0.025l-0.099,0.366l-0.011,0.028l-0.03,0.033l-0.024,0.018l-0.082,0.038l-0.045,0.035l-0.032,0.042l-0.02,0.055
	l-0.007,0.077l0.024,0.154l0.008,0.003l0.015,0.008l0.015,0.017l0.007,0.031l-0.007,0.014l-0.031,0.017l-0.008,0.005l0.021,0.09
	l0.021,0.055l-0.003,0.042l-0.065,0.072l-0.06,0.044l-0.028,0.012l-0.032-0.001l-0.072-0.014l-0.029,0.003l-0.05,0.041l-0.072,0.111
	l-0.064,0.036l-0.057,0.014l-0.038-0.04l-0.056-0.141l-0.039-0.059l-0.04-0.049l-0.032-0.057l-0.012-0.082l-0.1-0.011l-0.275,0.099
	l-0.022-0.074l-0.051-0.083l-0.125-0.159l-0.031-0.032l-0.067-0.058l-0.032-0.034l-0.088-0.135l-0.027-0.028l-0.055-0.011
	l-0.037,0.027l-0.033,0.038l-0.037,0.021l-0.043-0.004l-0.082-0.039l-0.05-0.012l-0.043,0.006l-0.085,0.031l-0.047-0.009
	l-0.032-0.022l-0.086-0.109l-0.129-0.102l-0.107-0.105l-0.057-0.111l0.031-0.119l-0.09-0.006l-0.036-0.046l-0.025-0.067
	l-0.053-0.068l-0.052-0.006l-0.07,0.116l-0.062,0.029l-0.25-0.02l-0.121,0.01l-0.1,0.063l0.006-0.003h0.005l0.007,0.003l0.006,0.006
	l-0.041,0.1l-0.035,0.025l-0.074-0.02l-0.028-0.021l-0.05-0.057l-0.022-0.017l-0.043-0.009l-0.068,0.015h-0.039l-0.118-0.035
	l-0.051-0.005l-0.186,0.045l-0.055-0.025l-0.021-0.085l-0.205-0.032l-0.041,0.007l-0.051,0.008l0.058,0.089h0.019l0.017-0.017
	l0.024-0.009l0.032,0.02l0.024,0.04l-0.005,0.024l-0.072,0.066l-0.105,0.051l-0.042,0.034l-0.043,0.106l-0.082,0.073l-0.107,0.023
	l-0.256-0.097l-0.05-0.028l-0.045-0.04l-0.04-0.045l-0.04-0.038l-0.048-0.022l-0.036-0.015l-0.02-0.021l-0.004-0.027l0.015-0.032
	v-0.004l-0.001-0.003l-0.002-0.004l-0.004-0.003l-0.041,0.008l-0.09-0.004l-0.039,0.006l-0.024,0.02l-0.017,0.023l-0.024,0.018
	l-0.051-0.001l-0.209-0.108l-0.021-0.028l-0.001-0.051l0.023-0.027l0.125-0.063l0.057-0.06l0.08-0.119l0.03-0.072l-0.006-0.075
	l-0.079-0.059l-0.041-0.015l-0.027-0.04l-0.013-0.041l-0.01-0.091v-0.017l-0.004-0.013l-0.007-0.01l-0.012-0.007l-0.08-0.045
	l-0.021-0.007l-0.054,0.003l-0.011,0.02l0.006,0.032l0.002,0.04l-0.025,0.146l-0.027,0.059l-0.054,0.043l-0.257,0.064l-0.119,0.068
	l-0.033,0.13l-0.009,0.016l-0.013,0.009l-0.016,0.003l-0.018-0.003l-0.062-0.067l-0.081-0.022l-0.057,0.031l0.008,0.089
	l-0.048-0.011l-0.04-0.035l-0.03-0.05l-0.022-0.057l-0.018-0.005l-0.017-0.008l-0.017-0.009l-0.015-0.014l0.039-0.041h-0.065
	l-0.123,0.06l-0.072,0.009l-0.123-0.019l-0.039-0.017l-0.032-0.03l-0.043-0.047l-0.031-0.042v-0.014l-0.035,0.004l-0.072,0.054
	l-0.037,0.015l-0.043-0.003l-0.087-0.026l-0.037-0.006l-0.31,0.042l-0.059,0.034l-0.051-0.006l-0.097-0.013l-0.063,0.019
	l-0.051,0.076l0.026,0.059l0.146,0.092l0.067,0.064l0.062,0.081l0.064,0.07l0.075,0.031l0.083,0.01l0.073,0.033l0.065,0.063
	l0.053,0.101l0.057,0.032l0.031,0.053v0.043l-0.039,0.002l-0.049-0.031l-0.024-0.021l-0.021-0.004l-0.039,0.017l-0.002,0.015
	l0.024,0.051l0.001,0.019l-0.023,0.012l-0.058,0.003l-0.022,0.011l-0.021,0.036l-0.015,0.082l-0.015,0.034l-0.026,0.021
	l-0.028,0.022l-0.055,0.02l-0.05,0.031l-0.035,0.078l-0.014,0.095l-0.002,0.069l-0.011,0.061l-0.038,0.07l-0.028,0.149l-0.105,0.054
	l-0.141-0.01l-0.132-0.046l-0.077-0.042l-0.05-0.042l-0.098-0.131l-0.066-0.067l-0.121-0.051l-0.063-0.047l-0.064-0.037
	l-0.126-0.096l-0.064-0.039l-0.079-0.017l-0.14,0.008l-0.078-0.045l-0.023-0.033l-0.016-0.04l-0.021-0.039l-0.037-0.032
	l-0.029,0.003l-0.121,0.053l-0.027,0.023l-0.012,0.025l-0.017,0.012l-0.048-0.013l-0.023-0.019l-0.086-0.095l-0.095,0.021
	l-0.06-0.064l-0.011-0.077l0.06-0.01l-0.012-0.012l-0.034-0.041l0.015-0.009l0.018-0.025l0.013-0.013l0.024-0.052l0.034-0.049
	l0.023-0.051l-0.005-0.064l0.036-0.032l0.097-0.012l0.041-0.03l0.008-0.046l0.029-0.078l0.008-0.042l-0.006,0.005l-0.013-0.025
	l-0.011-0.034l-0.007-0.024v-0.03l0.002-0.014l-0.006-0.015l-0.025-0.027l0.068-0.071l-0.063-0.07l-0.34-0.147l-0.104-0.012
	l-0.098,0.015l-0.098,0.039l-0.031,0.021v0.051l0.007,0.062l-0.014,0.056l-0.04,0.029l-0.049-0.002l-0.114-0.03l-0.118,0.036
	l-0.091,0.232l-0.104,0.069l-0.012-0.011l-0.008-0.012l-0.005-0.015v-0.016l0.022-0.047l-0.017-0.054l-0.041-0.053l-0.051-0.048
	l-0.065-0.052l-0.052-0.021l-0.047,0.013l-0.131,0.126l-0.073,0.033l-0.02,0.001l-0.242-0.176l-0.021-0.022l-0.018-0.027
	l-0.07,0.021l-0.196,0.147l-0.033,0.003l-0.027-0.011l-0.062-0.04l-0.04-0.009l-0.621,0.031l-0.107,0.056l-0.012,0.041l-0.004,0.057
	l-0.016,0.043l-0.005,0.001l-0.039,0.003l-0.033-0.029l-0.017-0.041l-0.011-0.046l-0.02-0.041l-0.069-0.067l-0.057-0.017
	l-0.057-0.002l-0.073-0.021l-0.051-0.035l-0.063-0.058l-0.059-0.065l-0.036-0.058l-0.017-0.086l0.004-0.055l-0.018-0.042
	l-0.074-0.054l-0.087-0.006l-0.153,0.059l-0.055-0.053l-0.041-0.06l-0.038-0.004l-0.024,0.039l0.001,0.066h0.001l0.01,0.048
	l-0.027,0.018l-0.045-0.003l-0.047-0.019l-0.041-0.034l-0.149,0.024l-0.072-0.027l0.009,0.04l-0.003,0.024l-0.026,0.044l-0.015,0.01
	l-0.011,0.013l-0.01,0.016l-0.005,0.02v0.001l0.033,0.043l0.06,0.018l0.066,0.044l0.06,0.124l0.001,0.025l-0.012,0.041l-0.001,0.018
	l0.008,0.025l0.01,0.017l0.008,0.01l0.069,0.148l0.012,0.04l-0.317,0.1l-0.085,0.067l-0.059,0.021l-0.034-0.081l0.009-0.078
	l0.047-0.146l-0.01-0.38l-0.018-0.355l-0.015-0.052l-0.036-0.083l-0.015-0.044l0.002-0.035l0.011-0.029l0.005-0.036l-0.02-0.058
	l-0.045-0.109l-0.032-0.13l-0.016-0.129l0.005-0.11l-0.017-0.007l-0.015-0.009l-0.042-0.131l-0.078-0.069l-0.093-0.048l-0.089-0.068
	l-0.021-0.026l-0.047-0.072l-0.002-0.004l-0.097-0.177l-0.062-0.11l-0.002-0.063l-0.055-0.048l-0.071-0.033l-0.057-0.017
	l-0.074-0.005l-0.141,0.013l-0.077-0.011v-0.001l-0.074-0.018l-0.2,0.01l-0.088-0.039l-0.028-0.042l-0.021-0.029l-0.017-0.093
	l0.016-0.104l-0.007-0.099l-0.056-0.112l-0.075-0.1l-0.067-0.062l-0.178-0.058l-0.092-0.047l-0.076-0.1l-0.062-0.11l-0.059-0.036
	l-0.063-0.015l-0.073-0.051l-0.05-0.088l0.002-0.09l0.082-0.217l0.02-0.085l0.006-0.095l-0.016-0.094l-0.108-0.269l-0.005-0.048
	l0.011-0.127l-0.008-0.045l-0.014-0.042l-0.008-0.042l0.005-0.045l0.021-0.08l-0.23-0.063l-0.054-0.052l-0.035-0.119l-0.006-0.091
	l-0.018-0.066l-0.065-0.045l-0.012-0.028l0.021-0.09l-0.039-0.089l-0.075-0.061l-0.088-0.003l-0.084,0.011l-0.109-0.011
	l-0.089-0.044l-0.02-0.085l-0.112-0.106l-0.146-0.165l-0.092-0.168l0.082-0.176l0.018-0.127l-0.002-0.119l-0.032-0.042l-0.069-0.026
	l-0.025-0.11l0.003-0.186l-0.11-0.036l-0.023-0.011l-0.229-0.114l-0.185-0.002l-0.122-0.077l-0.061-0.004l-0.039-0.015l-0.169-0.146
	l-0.063-0.032l-0.37-0.102l-0.09-0.011l-0.131-0.07l-0.063-0.003l-0.061,0.019l-0.063,0.003l-0.062-0.019l-0.057-0.05l0.042-0.088
	l0.004-0.064l-0.024-0.087l-0.03-0.053l-0.102-0.144l-0.034-0.038l-0.013-0.028l0.084-0.144l0.122-0.146l0.1-0.185l0.043-0.117
	v-0.093l-0.01-0.04l-0.032-0.28l-0.033-0.062l-0.044-0.056l-0.04-0.069l-0.019-0.061l-0.005-0.062l0.008-0.049l0.021-0.025
	l0.006-0.036l0.009-0.163l-0.049-0.019l-0.021-0.02l-0.055-0.02l-0.027-0.021l-0.028-0.04l-0.036-0.08l-0.021-0.036l-0.055-0.076
	l-0.167-0.238l-0.128-0.218l-0.096-0.073l-0.067-0.082l-0.107-0.075l-0.059-0.084l-0.045-0.098l-0.064-0.165l-0.025-0.042
	l-0.129-0.151l-0.077-0.072l-0.02-0.073l-0.059-0.125l0,0l0,0l0.023-0.012l0.038-0.039l0.02-0.045l-0.013-0.037l-0.059-0.015
	l0.018-0.025l0.003-0.018l-0.016-0.012l-0.032-0.006v-0.038l0.035,0.013l0.045,0.004l0.042,0.012l0.068,0.074l0.05,0.016
	l0.085,0.007l0.076,0.037l0.039,0.014l0.123-0.024l0.161-0.002l0.065,0.02l0.064,0.042l0.158,0.133l0.047,0.028l0.009-0.019
	l-0.028-0.072l-0.007-0.046l0.01-0.035l0.022-0.042l-0.01-0.017l-0.008-0.018l-0.01-0.026l-0.03,0.002l-0.069,0.02l-0.037-0.004
	l-0.167-0.166l-0.026-0.104l-0.022-0.217l0.041,0.015l0.023-0.018l0.021-0.028l0.039-0.019l-0.069-0.105l-0.029-0.092l-0.018-0.086
	l-0.029-0.086l-0.018,0.007l0.018,0.056l-0.004,0.043l-0.033,0.086l0.029,0.024l-0.026-0.001l-0.023-0.005l-0.022-0.012
	l-0.023-0.016l0.007-0.019l0.01-0.04l0.009-0.023l-0.068-0.062l-0.077-0.012l-0.299,0.08l-0.06-0.03l-0.006-0.1l-0.013-0.005h-0.001
	l-0.004-0.004l-0.013-0.014l-0.005,0.054l-0.018,0.013l-0.026-0.003l-0.035,0.003l-0.019,0.018l-0.007,0.029l-0.006,0.035
	l-0.009,0.038l0.084-0.014l0.051,0.003l0.033,0.021l0.02,0.056l-0.01,0.049l-0.025,0.029l-0.031-0.009l-0.05,0.073l-0.03,0.025
	l-0.036,0.018l0.014,0.031h0.042l0.002,0.01l-0.03,0.02l-0.026,0.006l-0.051-0.006l-0.031,0.006l-0.057-0.013l-0.204-0.136
	l-0.072-0.006l-0.007,0.003l0,0l-0.051-0.061l-0.07-0.04l0.021-0.017l0.015-0.023l-0.008-0.136l0.05,0.003l0.039,0.013h0.093
	l0.263-0.076l0.093-0.061l0.077-0.093l0.123-0.209l0.539-0.571l0.514-0.385l0.569-0.587l0.4-0.308l0.436-0.34l0.385-0.427
	l0.383-0.219l0.233-0.21l-0.017,0.045l-0.098,0.109l0.073,0.018l0.203-0.131l-0.013-0.027l-0.018,0.007l-0.015-0.033l0.119-0.049
	l-0.012-0.022l-0.004-0.001l-0.004,0.002l-0.012-0.002l-0.028-0.073l-0.059,0.021l-0.116,0.101l0.066-0.079l0.071-0.113l0.067-0.253
	v0.079l-0.028,0.084l-0.007,0.041l0.018-0.018l0.042-0.029l0.032-0.033l0.015-0.057l0.067-0.08l0.015-0.052l-0.06-0.052l-0.05,0.019
	l-0.01,0.037l-0.019,0.053l0.018-0.232l0.111-0.506l0.012,0.027l0.007,0.048l0.03,0.001l0.033-0.033l0.015-0.051l-0.013-0.066
	l-0.023-0.012l-0.025,0.028l-0.02,0.051l0.001-0.127l0.045-0.125l0.119-0.181l0.482-0.298l0.163-0.169l0.097-0.063l0.076-0.075
	l0.11-0.371l0.571-0.682l0.843-0.588l0.345-0.332l0.622-0.353l0.401-0.18l0.066-0.003l0.127,0.041l0.042,0.002l0.058-0.01
	l1.087,0.14l0.255,0.136l0.048,0.037l0.059,0.057l0.032,0.058l-0.032,0.042l-0.019-0.01l-0.027-0.027l-0.031-0.025l-0.061-0.012
	l-0.07-0.067l-0.066-0.035l-0.217-0.152l-0.029-0.001l-0.094,0.022h-0.026l-0.044-0.031l-0.081,0.006l-0.197-0.037l-0.179-0.007
	l-0.04-0.023l-0.109-0.028l-0.026-0.001l-0.023,0.028l-0.004,0.029l0.026,0.141l0.011,0.032l0.03,0.064l0.021,0.011l0.072,0
	l0.021,0.011l0.057,0.04l0.075,0.065l0.016,0.035l0.005,0.033l0.015,0.028l0.044,0.019l0.026,0.093l0.046,0.023l0.042-0.031
	l0.013-0.073l0.023,0.08l0.047,0.049l0.056,0.035l0.159,0.171l0.04,0.034l0.04,0.105l0.088,0.172l0.097,0.156l0.069,0.057
	l0.046-0.004l0.104,0.026l0.045-0.004l0.034-0.011l0.048-0.005l0.047,0.007l0.034,0.031l0.07,0.042l0.481-0.051l0.096-0.035
	l0.054-0.079l0.032,0.013l0.037,0.003l0.077-0.011l0.844-0.569l0.15-0.196l0.083-0.068l0.059-0.074l0.067-0.233L1067.718,508.963z"
	/></svg>