<?xml version="1.0" encoding="utf-8"?>
<!-- Generator: Adobe Illustrator 15.0.0, SVG Export Plug-In . SVG Version: 6.00 Build 0)  -->
<!DOCTYPE svg PUBLIC "-//W3C//DTD SVG 1.1//EN" "http://www.w3.org/Graphics/SVG/1.1/DTD/svg11.dtd">
<svg version="1.1" id="Ebene_1" xmlns="http://www.w3.org/2000/svg" xmlns:xlink="http://www.w3.org/1999/xlink" x="0px" y="0px"
	 width="1920px" height="1080px" viewBox="0 0 1920 1080" enable-background="new 0 0 1920 1080" xml:space="preserve">

<path fill="#F4E0B6" stroke="#FFFFFF" d="M314.32,208.562l-0.148-0.167l0.015-0.036l-0.019-0.034l-0.073-0.069l0.047-0.022
	l0.017-0.038l-0.002-0.05l-0.013-0.056l0.017,0.012l0.019,0.009l0.019,0.012l0.018,0.021l0.078-0.034l0.021-0.012l0.027-0.114
	l0.087-0.001l0.162,0.072l0.026-0.011l0.024-0.021l0.025-0.016l0.036-0.002l0.025,0.012l0.007,0.017l0.003,0.02l0.021,0.023
	l0.19,0.063l0.018,0.143v0.058l-0.003,0.118l-0.021,0.015l-0.347,0.181l-0.101,0.067l-0.029-0.059l-0.043-0.035L314.32,208.562z"/></svg>