<?xml version="1.0" encoding="utf-8"?>
<!-- Generator: Adobe Illustrator 15.0.0, SVG Export Plug-In . SVG Version: 6.00 Build 0)  -->
<!DOCTYPE svg PUBLIC "-//W3C//DTD SVG 1.1//EN" "http://www.w3.org/Graphics/SVG/1.1/DTD/svg11.dtd">
<svg version="1.1" id="Ebene_1" xmlns="http://www.w3.org/2000/svg" xmlns:xlink="http://www.w3.org/1999/xlink" x="0px" y="0px"
	 width="1920px" height="1080px" viewBox="0 0 1920 1080" enable-background="new 0 0 1920 1080" xml:space="preserve">

<path fill="#F4E0B6" stroke="#FFFFFF" d="M1083.295,490.849l0.09,0.044l0.262,0.083l0.131,0.06l0.075,0.02l0.056-0.012l0.03-0.064
	l-0.005-0.168l0.026-0.073l0.298-0.248l0.138-0.059l0.046-0.007l0.035,0.01l0.082,0.05l0.15,0.068l0.045,0.03l0.082,0.085
	l0.075,0.092l0.077,0.069l0.09,0.019l0.2-0.059l0.039-0.044l-0.057-0.101l0.016-0.104l0.096-0.155l0,0l0,0v-0.001l0.069-0.173
	l0.08-0.116l0.129-0.08l0.152-0.035l0.154,0.014l0.105,0.013l0.396-0.121h0.056l0.063,0.015l0.077,0.031l0.046,0.025l0.028,0.029
	l0.009,0.033l-0.013,0.014l-0.019,0.01l-0.012,0.021l-0.011,0.031l-0.012,0.02l-0.008,0.026l0.006,0.046l0.016,0.041l0.055,0.11
	l0.02,0.049l0.037,0.175l0.033,0.073l0.07,0.077l0.067,0.042l0.171,0.027l0.212,0.099l0.059-0.003l0.048-0.059l0.027-0.333
	l0.127-0.28l0.049-0.052l0.178-0.061l0.034-0.07l-0.025-0.229l0.005-0.111l0.048-0.109l0.074-0.08l0.09-0.054l0.322-0.071
	l0.043-0.06l0.03-0.168l0.031-0.062l0.046-0.015l0.119,0.023l0.062,0.001l0.525-0.142l0.034,0.011l0.024,0.035l0.009,0.043
	l0.018,0.038l0.049,0.02l0.257-0.033l0.035,0.004l0.034,0.017l0.043,0.045l0.018,0.043l0.012,0.04l0.025,0.039l0.064,0.038
	l0.064,0.002l0.057-0.021l0.084-0.07l0.041-0.003l0.047,0.026l0.063,0.049l0.151,0.09l0.069-0.031l0.042-0.096l0.069-0.102
	l0.112-0.014l0.107,0.062l0.028,0.017l0.116,0.143l0.052,0.177l0.048,0.001l0.014-0.004l0.021,0.062l-0.024,0.087l0.031,0.078
	l0.066,0.063l0.069,0.027l0.064,0.035l0.054,0.081l0.005,0.068l-0.063,0.193l0.002,0.167l0.021,0.099l0.044,0.083l0.056,0.036
	l0.061,0.009l0.105-0.009l0.061,0.03l0.136,0.126l0.065,0.029l0.157,0.015l0.05,0.017l0.015,0.014l0.016,0.044l0.018,0.018
	l0.011,0.001l0.028-0.007l0.01,0.001l0.024,0.015l0.019,0.006l0.017,0.019l0.019,0.05l0.001,0.04l0.013,0.033l0.026,0.026
	l0.037,0.02l0.082,0.059l0.094,0.081l0.051,0.082l-0.043,0.056l-0.121,0.044l-0.042,0.035l0.02,0.06l0.066,0.051l0.061,0.023
	l0.042,0.042l0.012,0.107l-0.019,0.059l-0.113,0.123l-0.021,0.082l0.034,0.038l0.063,0.047l0.064,0.104l0.009,0.089l-0.013,0.092
	l0.005,0.103l0.063,0.123l0.061,0.053l0.051,0.003l0.113-0.028l0.511,0.031l0.075,0.041l0.059,0.07l0.04-0.043l0.2-0.108
	l0.126,0.077l0.137,0.015l0.042,0.202l0.018,0.269l0.063,0.216l0.097,0.007l0.197-0.065l0.062,0.038l0.001,0.001l0.079-0.026
	l0.09,0.056l0.188,0.172l0.062,0.028l0.049,0.014l0.048,0.021l0.06,0.054l0.175,0.226l0.1,0.099l0.072,0.037l0.539,0.049l0.092,0.01
	l0.071-0.012l0.137-0.05l0.259-0.021l0.079-0.033l0.062-0.043l0.034-0.003l0.047,0.014l0.047,0.033l0.055,0.048l0.051,0.034
	l0.034-0.009l0.027-0.081l0.009-0.012h0.03l0.011,0.012l0.012,0.019l0.195,0.178l0.009,0.04l0.017,0.032l0.02,0.031l0.018,0.033
	l0.034,0.107l0.119,0.257l0.029,0.128l0.017,0.214l0.046,0.114l0.096-0.067l0.237-0.066l0.377-0.468l0.057-0.025l0.198,0.008
	l0.333-0.12l0.12,0.004l0.139,0.052l0.047-0.002l0.106-0.086l0.05-0.026l0.063-0.003l0.083,0.028l0.036,0.017l0.025,0.027
	l0.016,0.034l0.003,0.04l-0.102,0.212l-0.005,0.028l0.02,0.033l0.055,0.065l0.098,0.093l0.096,0.054l0.094,0.022l0.091-0.002
	l0.149-0.026l0.08,0.004l0.085,0.047v0.001l0.033,0.014l0.021-0.005l0.013-0.022l0.001-0.037l0.034-0.036l0.043-0.022l0.047-0.004
	l0.016,0.037l0.016,0.051l0.041,0.035l0.032-0.009l0.049-0.076l0.028-0.02l0.102,0.06l0.02,0.036l0.147,0.278l0.114,0.104
	l-0.019,0.068l-0.038,0.022l-0.046,0.007l-0.044,0.019l-0.13,0.151l0.018,0.006l0.044,0.023l0.019,0.008l-0.034,0.081l-0.062,0.068
	l-0.075,0.043l-0.077,0.01l-0.045,0.061l0.015,0.058l0.05,0.029l0.06-0.026l0.031,0.093l0.021,0.097l0.017,0.18l-0.01,0.076
	l-0.022,0.047l-0.062,0.087l-0.024,0.124l0.002,0.127l-0.016,0.108l-0.12,0.082l-0.001,0.023l0.012,0.024l0.005,0.02l0.007,0.01
	l0.014,0.018l0.011,0.021l-0.003,0.019l-0.01,0.005l-0.023,0.009l-0.073,0.071l-0.024,0.089l-0.013,0.028l-0.079,0.052l-0.212,0.046
	l-0.061,0.056l-0.036,0.074l-0.049,0.045l-0.063,0.024l-0.164,0.01l-0.034,0.014l-0.074,0.066l-0.03,0.007l-0.076-0.036
	l-0.136-0.147l-0.076-0.047l-0.056,0.004l-0.1,0.07l-0.05,0.021l-0.175,0.04l-0.049,0.029l-0.035,0.046l-0.052,0.109l-0.052,0.042
	l-0.124,0.053l-0.106,0.076l-0.037,0.132l0.086,0.222l0.037,0.048l0.005,0.004l0.035,0.036l0.032,0.039l0.02,0.046l-0.003,0.042
	l-0.049,0.05l-0.016,0.028l0.016,0.271l-0.013,0.091l0.27,0.028l0.087,0.05l0.192,0.154l0.104,0.047l0.114,0.023l0.109-0.001
	l0.084-0.023l0.062-0.032l0.037,0.02l0.038,0.046l0.065,0.053l0.063,0.023l0.042,0.001l0.044,0.014l0.07,0.063l0.114,0.167
	l0.002,0.114l-0.092,0.201h0.002l0.065,0.043l0.197,0.074l0.175,0.111l0.062,0.027l0.134,0.019l0.059,0.02l0.017,0.046l-0.025,0.031
	l-0.097,0.037l-0.032,0.028l0.02,0.007l0.061,0.029l-0.027,0.047l0.004,0.044l0.03,0.034l0.054,0.019l0.078,0.002l0.068,0.095
	l0.065,0.127l0.066,0.102l0.046,0.032l0.045,0.017l0.046,0.031l0.05,0.071l0.022,0.063l0.009,0.066l-0.002,0.061l-0.01,0.047
	l0.14,0.059l0.068,0.019l0.063,0.003l0.049-0.014l0.09-0.041l0.051-0.003l-0.002,0.049l0.019,0.062l0.033,0.062l0.042,0.05
	l0.045,0.029l0.037,0.009l0.171,0.003l0.068,0.034l0.062,0.071l0.073,0.121l-0.252,0.201l-0.455,0.202l-0.209,0.15l-0.128,0.206
	l-0.004,0.097l0.018,0.104l0.006,0.093l-0.037,0.063l-0.07,0.016l-0.168-0.021l-0.079,0.005l-0.096,0.05l-0.302,0.239l-0.045,0.06
	l-0.008,0.067l0.058,0.058l0.002,0.027l0.007,0.023l0.007,0.023l0.005,0.025l0.074-0.037l0.057,0.037l0.013,0.066l-0.057,0.047
	l-0.03-0.013l-0.018,0.003l-0.009,0.016l-0.009,0.028l-0.002,0.037l0.013,0.028l0.014,0.02l0.009,0.014l-0.001,0.05l-0.007,0.046
	l-0.012,0.046l-0.019,0.044l-0.049,0.072l0.009,0.016l0.022,0.021l0.022,0.007l0.019,0.027l-0.001,0.068l-0.005,0.039l-0.014,0.023
	l-0.073,0.041l-0.014,0.02l0.008,0.032l0.022,0.039l0.017,0.038l-0.029,0.06l0.002,0.036l0.005,0.034l-0.005,0.021l0.004,0.019
	l-0.006,0.104l0.004,0.039l-0.002,0.019l0.011,0.015l0.042,0.027l0.042,0.06l-0.011,0.073l-0.029,0.072l-0.006,0.055l0.063-0.007
	l0.021-0.011l0.02,0.03l-0.007,0.047l0.023,0.051l0.029,0.051l0.011,0.046l-0.018,0.031l-0.07,0.052l-0.023,0.029l0.049,0.044
	l0.028,0.103l0.049,0.044l-0.005,0.028v0.043l-0.005,0.019l0.016,0.01l0.034,0.033l-0.021,0.034l-0.024,0.111l0.02,0.028
	l0.072,0.011l0.028-0.001l0.016,0.024l-0.015,0.018l-0.005,0.013l-0.004,0.013l-0.006,0.019l0.017,0.024l0.052,0.02l0.093-0.03
	l0.051-0.007l0.011,0.057l0.002,0.026l-0.009,0.033l0.044,0.003l0.04,0.009l0.03,0.022l0.007,0.042l0.044,0.039l0.037,0.016
	l0.037,0.001l0.031-0.006l0.02,0.03l-0.035,0.014l-0.02,0.028v0.041l0.027,0.052l0.04,0.041l0.024-0.003l0.024-0.016l0.044,0.003
	l0.027,0.02l0.096,0.094l0.025,0.014l0.032,0.011l0.016,0.02l-0.022,0.034l0.087,0.102l-0.018,0.117l-0.036,0.104l0.032,0.062
	l0.009,0.106l-0.002,0.012l0.059,0.096l0.001,0.005l0.006,0.028l-0.021,0.025l-0.042-0.025l-0.047-0.013h-0.043l-0.037,0.012
	l-0.031,0.027l-0.044,0.013l-0.105-0.047l-0.059-0.012l-0.038,0.015l-0.07,0.048l-0.045,0.01l-0.052-0.009l-0.135-0.048l-0.044-0.03
	l0.004-0.008l-0.035-0.095l-0.016-0.034l-0.026-0.042l-0.022-0.03l-0.023-0.021l-0.032-0.018l-0.05-0.01l-0.157,0.02l-0.058-0.015
	l-0.169-0.067l-0.099-0.006l-0.081,0.026l-0.32,0.231l-0.043,0.052l-0.092,0.176l-0.028,0.022l-0.055-0.002l-0.025,0.014
	l-0.015,0.042l0.01,0.103l-0.006,0.043l-0.035,0.04l-0.237,0.106l-0.059-0.024l-0.058-0.046l-0.085-0.046l-0.06-0.002l-0.058,0.027
	l-0.048,0.045l-0.033,0.052l-0.019,0.079v0.074l-0.007,0.068l-0.039,0.06l-0.057,0.048l-0.021,0.038l0.006,0.063l0.028,0.12
	l0.006,0.086l-0.046,0.032l-0.131,0.024l-0.044,0.054l-0.024,0.099l-0.013,0.047l-0.037,0.05l-0.075,0.003l-0.074-0.052
	l-0.075-0.074l-0.075-0.059l-0.086-0.027l-0.061-0.005l-0.044-0.035l-0.042-0.117l-0.076-0.098l-0.068-0.047l-0.158-0.074
	l-0.141-0.111l-0.062-0.03l-0.079-0.001l-0.11,0.038l-0.048,0.034l-0.035,0.048l-0.016,0.079l0.024,0.163l-0.013,0.081l-0.047,0.064
	l-0.145,0.097l-0.059,0.062l-0.048,0.09l-0.037,0.112l-0.013,0.128l0.022,0.14l0.036,0.071l0.102,0.149l0.025,0.066l-0.012,0.078
	l-0.051-0.024l-0.063-0.063l-0.048-0.039l-0.031,0.017l-0.02,0.042l-0.023,0.038l-0.052,0.005l-0.049-0.027l-0.05-0.046l-0.178-0.2
	l-0.057-0.077l-0.056-0.041l-0.077,0.014l-0.241,0.089l-0.063,0.043l-0.048,0.062l-0.064,0.16l-0.022,0.102l-0.02,0.036
	l-0.039,0.007l-0.034-0.022l-0.094-0.095l-0.042-0.032l-0.05-0.015l-0.097-0.001l-0.047-0.012l-0.048-0.032l-0.025-0.035
	l-0.02-0.035l-0.034-0.034l-0.062-0.02l-0.05,0.027l-0.036,0.062l-0.021,0.08v0.105l0.02,0.205l-0.024,0.09l-0.034,0.046
	l-0.231,0.147l-0.052,0.016l-0.06,0.003l-0.245-0.074l-0.069,0.003l-0.049,0.044l-0.018,0.072l0.011,0.087l0.035,0.09l0.033,0.049
	l0.032,0.04l0.029,0.042l0.021,0.061l0.003,0.033l-0.014,0.229l-0.009,0.04l-0.035,0.03l-0.043,0.006l-0.059-0.007l-0.055-0.018
	l-0.023-0.015l-0.012-0.007l-0.044-0.252l-0.044-0.113l-0.081-0.064l-0.051,0.001l-0.137,0.08l-0.324,0.051v0.001l-0.086,0.05
	l-0.029,0.052l-0.02,0.118l-0.036,0.06l-0.046,0.035l-0.158,0.063l-0.074,0.091l-0.049,0.038l-0.051-0.012l-0.028-0.077
	l-0.018-0.107l-0.034-0.076l-0.082,0.026l-0.053,0.044l-0.052,0.024l-0.057-0.014l-0.067-0.067l-0.063-0.109l-0.046-0.089
	l-0.054-0.054h-0.087l-0.112,0.038l-0.216,0.121l-0.187,0.238l-0.175,0.069l-0.578,0.066l-0.536,0.302l-0.046,0.002l-0.055-0.025
	l-0.028-0.036l-0.016-0.041l-0.018-0.029l-0.037,0.002l-0.572,0.311l-0.091,0.01l-0.24-0.054l-0.083,0.027l-0.163,0.105
	l-0.572,0.203l-0.178,0.162l-0.331,0.188l-0.476,0.267l-0.475,0.122l-0.107,0.067l-0.087,0.102l-0.148,0.245l-0.614,0.506
	l-0.053,0.026l-0.169,0.047l-0.576,0.394l-0.041,0.048l-0.021,0.087l-0.01,0.188l0.008,0.101l0.095,0.3l-0.013,0.14l-0.164,0.355
	l-0.172,0.548l-0.088,0.072l-0.108-0.03l-0.118-0.049l-0.121,0.013l-0.064,0.029l-0.203,0.041l-0.059,0.031l-0.201,0.196
	l-0.021,0.034l-0.01,0.042v0.07l0.017,0.035l0.032,0.024l0.178,0.161l0.027,0.037l0.024,0.069l-0.016,0.022l-0.032-0.004
	l-0.041-0.05l-0.044-0.002l-0.048,0.006l-0.066-0.047l0.018-0.009l0.016-0.01l-0.107-0.068l-0.054-0.045l-0.042-0.055l-0.049-0.118
	l-0.025-0.038l-0.046-0.017l-0.017-0.029l0.02-0.016l0.01-0.019l0.01-0.057l-0.022-0.011l-0.031-0.021l-0.022-0.021l0.003-0.017
	l0.017-0.024l-0.02-0.021l-0.033-0.021l-0.021-0.017l-0.039-0.102l-0.016-0.051l-0.006-0.035l0.013-0.073l0.033-0.061l0.021-0.075
	l-0.027-0.111l-0.08-0.038l-0.08-0.054l0.008-0.049l-0.04-0.095l0.02-0.033l-0.011-0.019l-0.006-0.004l-0.004,0.002l-0.012,0.002
	l-0.01-0.056l-0.072-0.134l-0.027-0.084l-0.018-0.141l0.002-0.07l0.021-0.051l-0.066-0.055l-0.123-0.137l-0.048-0.042l-0.03-0.045
	l-0.035-0.043l-0.043-0.005l-0.028,0.002l-0.028-0.017l-0.032-0.028l-0.034-0.023l-0.063-0.004l-0.113,0.068l-0.056,0.01
	l-0.147-0.105l0.002-0.02l-0.02-0.054l-0.027-0.025l-0.019,0.063l-0.026-0.01l-0.036-0.009l-0.02-0.013l-0.011,0.061l-0.025,0.008
	l-0.035-0.011l-0.038,0.002l-0.028,0.034l-0.01-0.003l-0.004-0.048l-0.014-0.025l-0.054,0.022l-0.186,0.022l-0.05-0.015
	l-0.029,0.035l-0.203,0.046l-0.075-0.007l-0.022-0.084l-0.037-0.049l-0.05-0.027l-0.026-0.006l-0.027-0.007l-0.009,0.002
	l-0.02-0.302l0.004-0.098l0.029-0.178l0.031-0.638l0.11-0.302l0.141-0.249l0.337-0.344l0.191-0.406l0.026-0.178l-0.066-0.195
	l-0.074-0.123l-0.305-0.492l-0.025-0.029l-0.021-0.015l-0.022-0.021l-0.027-0.043l-0.012-0.037l-0.005-0.071l-0.007-0.03
	l-0.02-0.032l-0.086-0.105l-0.016-0.026l-0.022-0.053l-0.021-0.03l-0.063-0.046l-0.128-0.057l-0.061-0.06l-0.042-0.082l-0.01-0.071
	v-0.066l-0.012-0.072l-0.052-0.104l-0.053-0.036l-0.06-0.01l-0.07-0.026l-0.065-0.049l-0.053-0.05l-0.056-0.046l-0.077-0.036
	l-0.109-0.096l-0.317-0.343l-0.122-0.106l-0.249-0.184l-0.567-0.542l-0.221-0.262l-0.15-0.255l0,0l0,0l-0.106-0.057l-0.074-0.073
	l-0.146-0.212l-0.084-0.094l-0.085-0.079l-0.081-0.09l-0.072-0.122l0.094-0.022l0.288,0.019l0.049-0.006l0.035-0.024l0.087-0.118
	l0.136-0.104l0.022-0.055l0.027-0.035l0.019-0.006l0.058,0.003l0.023-0.004l0.017-0.013l0.118-0.21l0.032-0.027l0.045-0.004
	l0.097,0.008l0.045-0.011l0.148-0.086l0.059-0.06l0.099-0.164l0.068-0.059l0.089-0.014l0.114,0.047l0.109,0.098l0.048,0.027
	l0.051-0.017l0.077-0.048l0.089-0.019l0.084-0.046l0.06-0.094l0.123-0.407l0.077-0.14l0.132-0.116l0.029-0.078l0.008-0.007
	l0.01-0.002l0.012,0.001l0.077,0.065l0.055,0.016l0.046-0.021l0.136-0.113l0.028-0.047l-0.012-0.088l0,0v-0.001l0,0l-0.061-0.117
	l-0.067-0.068l-0.073-0.053l-0.079-0.075l-0.048-0.058l-0.003-0.016l0.014-0.011l0.005-0.04l0.026-0.053l-0.009-0.017l-0.018-0.027
	l-0.019-0.032l-0.006-0.032l0.042-0.083l0.009-0.015l0.101-0.074l0.115-0.046l0.228-0.03l0.094-0.078l0.062-0.128l0.029-0.168
	l-0.013-0.11l-0.067-0.225l-0.002-0.072l0.037-0.032l0.181-0.03l0.183-0.123l0.034-0.071l0.007-0.199l0.041-0.065l0.034-0.009
	l0.024,0.007l0.024,0.016l0.302,0.141l-0.01,0.028l-0.058,0.026l-0.03,0.057l0.019,0.045l0.073-0.001l0.035,0.028l0.002,0.041
	l-0.053,0.063v0.04l0.062,0.065l0.083,0.022l0.082-0.004l0.226-0.084l0.051-0.031l0.014-0.029l0.006-0.076l0.019-0.026l0.094-0.039
	l0.024-0.021l0.028-0.074l-0.021-0.076l-0.109-0.192l-0.005-0.024l0.005-0.056l-0.006-0.021l-0.021-0.021l-0.017-0.002l-0.016,0.002
	l-0.018-0.008l-0.042-0.037l-0.041-0.027l-0.038-0.018l-0.037-0.014l-0.012,0.003l-0.021,0.026l-0.011,0.003l-0.018-0.01
	l-0.068-0.06l-0.031-0.037l-0.034-0.026l-0.042-0.001l-0.028,0.03l-0.094,0.16l-0.096,0.066l-0.062,0.009l-0.063-0.036l-0.06-0.107
	l-0.009-0.117l0.026-0.198l-0.012-0.115l-0.039-0.085l-0.053-0.087l-0.055-0.116l-0.024-0.1l0.005-0.071l0.089-0.171l0.015-0.074
	l-0.006-0.084l-0.036-0.091l-0.062-0.074l-0.144-0.115l-0.064-0.075l-0.029-0.054l-0.015-0.047l-0.01-0.046l-0.018-0.049
	l-0.021-0.046l-0.135-0.21l-0.025-0.061l0.002-0.053l0.022-0.077l0.015-0.025l0.016-0.009l0.007-0.015l-0.012-0.042l-0.021-0.034
	l-0.069-0.072l-0.024-0.036l-0.023-0.094l0.016-0.077l0.027-0.075l0.013-0.088l-0.012-0.051l-0.019-0.04l-0.01-0.037l0.012-0.04
	l0.063-0.091l0.042-0.022l0.095-0.03l0.043-0.023l0.24-0.226l0.052-0.1l0.01-0.061l0.002-0.085v-0.088l-0.031-0.245l-0.011-0.042
	l-0.026-0.053l-0.063-0.103l-0.023-0.051v-0.164l0.09-0.08l0.292-0.083l0.019-0.011l0.018-0.021l0.004-0.024l-0.001-0.033
	l0.007-0.032l0.03-0.024l0.306-0.031l0.044-0.04l-0.002-0.082l-0.048-0.138l-0.056-0.125l-0.012-0.054l0.005-0.074l0.022-0.108
	l0.022-0.043l0.071-0.079l0.047-0.051l0.028-0.078l-0.016-0.083l-0.063-0.059l-0.077-0.01l-0.414,0.157l-0.111,0.121l-0.04,0.021
	l-0.165,0.028l-0.052-0.005l-0.036-0.038l-0.025-0.091l-0.011-0.139l-0.008-0.049l-0.064-0.176l-0.009-0.059l0.027-0.135
	l-0.021-0.054l-0.096-0.063l-0.05-0.108l-0.003-0.104l0.014-0.101l-0.001-0.101l-0.033-0.107l-0.063-0.114l-0.075-0.109
	l-0.082-0.087l-0.006-0.118l0.035-0.065l0.063-0.03l0.149-0.022l0.048-0.035l0.119-0.208l0.01-0.083l-0.024-0.33l0.026-0.248
	l0.028-0.062l0.002-0.005l0.263-0.218l0.1-0.039l0.065-0.002l0.215,0.041l0.083-0.001l0.03-0.046l0.037-0.174l0.011-0.085
	l0.098,0.034l0.096,0.001l0.087-0.021l0.295-0.147l0.056-0.048l-0.021-0.076l-0.035-0.103l-0.108-0.211l-0.054-0.225l0.123-0.294
	l-0.013-0.184l-0.054-0.107l0.021-0.12l0.072-0.219l-0.008-0.073l-0.013-0.064l-0.007-0.06l0.01-0.061l0.019-0.033l0.077-0.079
	l0.063-0.109l0.031-0.084l0.02-0.054l0.068-0.099L1083.295,490.849z"/></svg>