<?xml version="1.0" encoding="utf-8"?>
<!-- Generator: Adobe Illustrator 15.0.0, SVG Export Plug-In . SVG Version: 6.00 Build 0)  -->
<!DOCTYPE svg PUBLIC "-//W3C//DTD SVG 1.1//EN" "http://www.w3.org/Graphics/SVG/1.1/DTD/svg11.dtd">
<svg version="1.1" id="Ebene_1" xmlns="http://www.w3.org/2000/svg" xmlns:xlink="http://www.w3.org/1999/xlink" x="0px" y="0px"
	 width="1920px" height="1080px" viewBox="0 0 1920 1080" enable-background="new 0 0 1920 1080" xml:space="preserve">

<path fill="#F4E0B6" stroke="#FFFFFF" d="M723.114,637.549l-0.037-0.018l-0.033-0.024l-0.008-0.02l-0.001-0.052l-0.068-0.125
	l0.009-0.071l0.061-0.044l0.057,0.003l0.219,0.122l0.019,0.02l0.018,0.065l-0.017,0.03l-0.038,0.015l-0.081,0.048l-0.027,0.009
	l-0.025,0.011l-0.024,0.029L723.114,637.549z M732.98,642.902l-0.036-0.002l-0.095-0.064l-0.031-0.005l-0.101,0.011l-0.033,0.012
	l-0.026-0.015l-0.013-0.055l-0.063-0.017l-0.089-0.01l-0.334-0.098l-0.075-0.006l-0.062-0.07l-0.125-0.053l-0.1-0.079l0.01-0.148
	l0.06,0.031l0.018,0.013l0.077,0.036l0.092,0.014l0.091-0.004l0.08-0.014l0.046,0.001l0.328,0.123l0.042,0.037l0.102,0.121
	l0.191,0.122l0.037,0.048L732.98,642.902z M733.497,642.177l0.004,0.098l-0.012-0.004l-0.039-0.026l0.009,0.043l-0.04-0.021
	l-0.026-0.027l-0.009-0.032l0.007-0.037l-0.025-0.015l-0.007,0.089l-0.012,0.037l-0.038,0.031l-0.002-0.115l-0.067-0.242l0.01-0.014
	l0.091,0.053l0.093,0.083L733.497,642.177z M727.421,637.617l0.338,0.313l0.415,0.174l0.049,0.039l0.109,0.132l0.052,0.038
	l0.166,0.05l0.222,0.105l0.091,0.07l0.076,0.097l0.068,0.022l0.237,0.143l0.12,0.132l0.354,0.12l0.236,0.264l0.201,0.046
	l0.157,0.181l0.061-0.007l0.044,0.036l0.006,0.051l0,0.029l0.022,0.035h0.049l0.053-0.023l0.03,0.033l-0.044,0.046l0.048,0.081
	l-0.012,0.048l-0.006,0.064l0.054,0.037l0.145,0.032l0.019-0.03l-0.056-0.044l-0.046-0.076l-0.021-0.087l-0.017-0.075l0.196,0.223
	l0.053,0.049l0.034,0.039l0.052,0.046l0.069,0.008l0.064-0.034l0.072,0.068l0.14,0.15l0.082-0.007l0.039,0.035l0.025,0.063
	l0.103,0.099l0.043,0.075l0.023,0.113l0.053,0.003l0.051-0.023l0.017,0.021l-0.007,0.024l-0.032,0.011l-0.034,0.022l0.032,0.01
	l0.048,0.006l0.033-0.002l0.007,0.134l0.041,0.072l0.071-0.008l0.052,0.14l0.118,0.096l0.093-0.012l0.047-0.013l0.044-0.004
	l0.025,0.025l-0.015,0.029l-0.155,0.181l-0.108,0.165l-0.013,0.058l-0.045,0.042l0.01,0.045l0.021,0.032l0.068,0.003l-0.033,0.032
	l-0.007,0.035l0.008,0.089l-0.055,0.007l-0.026,0.033l-0.035-0.018l-0.001-0.081l-0.042-0.023l-0.039,0.035l0.006,0.072
	l-0.055,0.012l-0.039-0.034l-0.043-0.071l-0.079-0.014l-0.089-0.006l-0.083-0.023l-0.079-0.008l-0.104,0.03l-0.258,0.137
	l-0.074,0.103l-0.094,0.04l-0.026,0.002l-0.098-0.031l-0.035,0.013l-0.033,0.144l-0.114,0.029l-0.192,0.008l-0.235-0.043
	l-0.083-0.051l-0.074-0.068l-0.072-0.054l-0.05-0.015l-0.138-0.02l-0.028-0.012l-0.112-0.07l-0.089-0.025l-0.291-0.005l-0.048-0.022
	l-0.04-0.026l-0.038-0.018l-0.041,0.002L729,641.726l0.002-0.014l0.009-0.021l0.047,0.011l0.021-0.012l-0.001-0.034l-0.019-0.048
	l-0.113,0.025l-0.051-0.013l-0.044-0.045l-0.097-0.071l-0.03-0.03l-0.005-0.034l0.003-0.036l-0.006-0.033l-0.031-0.055l-0.029-0.027
	l-0.063-0.032l-0.1-0.03l-0.152,0.016l-0.07-0.054l-0.037-0.103l-0.017-0.11l-0.037-0.08l-0.079-0.025l-0.057-0.023l-0.052-0.003
	l-0.061-0.02l-0.126-0.065l-0.051-0.002l-0.055,0.005l-0.049-0.018l-0.04-0.066l-0.037,0.004l-0.035-0.004l0.003-0.063l-0.061-0.043
	l-0.166-0.068l-0.023-0.022l-0.084-0.113l-0.152-0.089l0.037-0.055l-0.023-0.036l-0.057-0.019l-0.066,0.003l-0.019,0.029
	l0.052,0.031l-0.08,0.036l-0.099-0.001l-0.101-0.024l-0.085-0.034l-0.113-0.073l-0.061-0.026l-0.04-0.028l-0.021-0.01l-0.024,0.007
	l-0.024,0.025l-0.024,0.036l-0.065-0.049l-0.029-0.071l-0.027-0.143l-0.073-0.048l-0.075-0.064l-0.09-0.052l-0.043-0.049
	l-0.079,0.014l-0.082-0.003l-0.062-0.019l-0.041-0.032l-0.121-0.091l-0.053-0.095l-0.06,0.008l-0.031,0.109l-0.039-0.025
	l-0.001-0.119l0.004-0.049l0.07-0.112l0.115,0.009h0.036l0.04,0.01l0.038,0.001l0.031-0.023l-0.001-0.03l-0.024-0.04l-0.055-0.02
	l-0.034-0.05l0.048-0.074l0.048-0.024l0.053-0.005l0.01-0.051l0.026-0.077l0.064-0.019l0.078-0.133l0.126-0.123l0.048-0.016
	l0.05-0.013l0.05-0.035l0.001-0.057l-0.02-0.073l0.058-0.229l0.012-0.097l-0.073-0.065l-0.055-0.06l0.013-0.153l-0.001-0.08
	l0.014-0.091l0.024-0.024l0.126,0.031l0.108,0.013l0.088,0.011l0.073-0.003l0.138-0.021l0.06-0.087l0.004-0.095l0.058-0.106
	l0.124-0.052l0.219,0.054l0.193,0.123L727.421,637.617z"/></svg>