<?xml version="1.0" encoding="utf-8"?>
<!-- Generator: Adobe Illustrator 15.0.0, SVG Export Plug-In . SVG Version: 6.00 Build 0)  -->
<!DOCTYPE svg PUBLIC "-//W3C//DTD SVG 1.1//EN" "http://www.w3.org/Graphics/SVG/1.1/DTD/svg11.dtd">
<svg version="1.1" id="Ebene_1" xmlns="http://www.w3.org/2000/svg" xmlns:xlink="http://www.w3.org/1999/xlink" x="0px" y="0px"
	 width="1920px" height="1080px" viewBox="0 0 1920 1080" enable-background="new 0 0 1920 1080" xml:space="preserve">

<path fill="#222222" d="M1149.383,564.204l0.006,0.046l0.067,0.101l0.117,0.038l0.017,0.022l-0.268,0.184l-0.015-0.022l-0.035-0.076
	l-0.2-0.104l-0.049-0.058l-0.198,0.07l-0.073,0.039l-0.059,0.053l-0.117,0.163l-0.041-0.057l0.003-0.039l0.042-0.014l0.065-0.032
	l-0.015-0.068l0.035-0.034v-0.021l0.002-0.028l0.004-0.025l0.012-0.003l0.018-0.01l0.015-0.01l0.022-0.017l0.016-0.017l0.034,0.046
	l0.038,0.021l0.086,0.005l0.103-0.037l-0.007-0.031l0.049-0.01l0.031,0.004l-0.005-0.046l0.012-0.062l0.107-0.054l0.074,0.093
	l-0.059,0.041l-0.026-0.01l-0.014,0.055l0.039,0.046h0.031l0.003-0.039l0.058-0.052L1149.383,564.204z"/></svg>