<?xml version="1.0" encoding="utf-8"?>
<!-- Generator: Adobe Illustrator 15.0.0, SVG Export Plug-In . SVG Version: 6.00 Build 0)  -->
<!DOCTYPE svg PUBLIC "-//W3C//DTD SVG 1.1//EN" "http://www.w3.org/Graphics/SVG/1.1/DTD/svg11.dtd">
<svg version="1.1" id="Ebene_1" xmlns="http://www.w3.org/2000/svg" xmlns:xlink="http://www.w3.org/1999/xlink" x="0px" y="0px"
	 width="1920px" height="1080px" viewBox="0 0 1920 1080" enable-background="new 0 0 1920 1080" xml:space="preserve">

<path fill="#F4E0B6" stroke="#FFFFFF" d="M1360.957,760.654l-0.056,0.148l-0.078-0.122l-0.011-0.143l0.044-0.302l0.001-0.078
	l-0.008-0.07l-0.033-0.146l-0.009-0.094l0.021-0.084l0.072-0.171l0.179-0.654l-0.003-0.08l-0.014-0.085l-0.005-0.085l0.022-0.085
	l0.045-0.071l0.152-0.186l0.014,0.133l-0.071,0.441l-0.019,0.448l-0.088,0.623l-0.104,0.304L1360.957,760.654z M1348.248,743.893
	l0.078,0.089l0.07,0.101l0.021,0.055l0.068,0.012v0.099l-0.026,0.122l-0.006,0.083l0.046,0.025l0.081,0.018l0.071,0.031l0.024,0.064
	l-0.021,0.053l-0.04,0.045l-0.049,0.035l-0.048,0.025l-0.026-0.002l-0.023-0.02l-0.017-0.022l-0.004-0.012l-0.026,0.02l-0.059,0.064
	l-0.181,0.047l-0.068-0.002l-0.079-0.022l-0.031,0.014l0.021,0.072l-0.022,0.009l-0.015-0.004l-0.016-0.009h-0.019l-0.064-0.043
	l-0.064-0.099l-0.087-0.216l-0.012-0.11v-0.103l-0.021-0.065l-0.08,0.004l0.027-0.092l0.078-0.01l0.085,0.004l0.056-0.059
	l0.041,0.02l0.052,0.001l0.05-0.017l0.031-0.038l-0.007-0.043l-0.033-0.029l-0.043-0.028l-0.027-0.035l-0.026-0.112l0.004-0.069
	l0.046-0.051l0.097-0.049l0.09-0.012l0.058,0.049l0.021,0.092l-0.023,0.113L1348.248,743.893z M1351.452,735.378l0.026,0.148
	l0.064,0.154l0.143,0.162l0.033,0.076l-0.028,0.017l-0.246-0.143l-0.049,0.011l-0.023,0.064l-0.016,0.077l-0.026,0.051l-0.072,0.011
	l-0.07-0.032l-0.057-0.061l-0.032-0.066l-0.046,0.05l-0.026,0.061l-0.011,0.064l0.003,0.07l0.067,0.005l0.005,0.072l-0.036,0.2
	l0.073-0.035l0.104-0.029l0.099-0.009l0.053,0.029l-0.008,0.044l-0.051,0.098l-0.006,0.035l0.021,0.043l0.03,0.042l0.031,0.009
	l0.021-0.056l0.024-0.122l0.034-0.041l0.05,0.02l0.074,0.06l0.001,0.03l-0.011,0.046l0.006,0.034l0.053-0.007l0.099-0.041
	l0.044-0.03l0.03-0.045l0.003-0.108l-0.112-0.122l0.004-0.084l0.073-0.095l0.067,0.013l0.207,0.179l0.032,0.058l0.02,0.063
	l0.036,0.067l0.069,0.063l0.066,0.038l0.057,0.057l0.036,0.119l0.014-0.086l0.029-0.065l0.047-0.051l0.067-0.038l0.077-0.02
	l0.039,0.017l0.033,0.032l0.107,0.052l0.047,0.055l0.02,0.061l-0.029,0.044l-0.073,0.014l-0.068-0.003l-0.056,0.02l-0.037,0.076
	l0.149,0.055l0.086,0.057l0.059-0.018l0.06-0.17l0.229,0.271l0.063,0.103l0.049,0.139l0.008,0.075l-0.051,0.012l-0.056-0.042
	l-0.032-0.062l-0.04-0.151l0.011,0.162l0.156,0.276l0.007,0.133l-0.023,0.074l-0.005,0.067l0.013,0.062l0.031,0.059l0.07,0.072
	l0.032-0.022l0.027-0.057l0.052-0.03l0.087,0.021l0.126,0.051l0.115,0.071l0.064,0.077l0.029,0.064l0.079,0.095l0.027,0.054
	l0.006,0.075l-0.031,0.147l-0.005,0.081l0.037-0.043l0.04-0.031l0.044-0.011l0.045,0.011l0.013-0.074l0.02-0.061l0.015-0.062
	l-0.015-0.161l0.022-0.063l0.051-0.034l0.075-0.001l-0.01,0.064l-0.008,0.026l0.072-0.011l0.075,0.005l0.071,0.021l0.155,0.069
	l0.03,0.025l0.016,0.147l0.021,0.046l0.101,0.116l0.061,0.036l0.067-0.004l0.066-0.035l0.069-0.025l0.058,0.022l0.034,0.106
	l-0.027,0.045l-0.051,0.042l-0.007,0.048l0.097,0.064l0.076,0.011l0.073-0.007l0.063,0.024l0.05,0.102l0.046,0.067l0.152,0.096
	l0.04,0.04l0.087,0.287l0.073,0.456l0.028,0.081l0.052,0.1l0.027,0.082l0.037,0.062l0.189,0.151l0.041,0.089l0.044,0.237
	l0.042,0.072l0.077,0.011l0.055-0.045l0.046-0.053l0.053-0.016l0.063,0.059l0.02,0.097l0.01,0.197l0.05,0.141l0.154,0.285
	l0.095,0.122l0.028,0.02l0.072,0.024l0.028,0.02l0.018,0.039l0.018,0.101l0.013,0.044l0.049,0.104l0.024,0.032l0.018,0.016
	l0.02,0.004l0.021-0.002l0.021-0.008l0.03-0.003l0.012,0.019l0.008,0.03l0.022,0.023l0.027,0.057l0.01,0.199l0.051,0.074
	l0.053,0.045l0.18,0.204l0.091,0.157l0.335,1.047l0.202,0.356l0.054,0.148l0.046,0.191l-0.006,0.17l0.013,0.101l0.043,0.192
	l0.042,0.106l0.049,0.047l0.151,0.067l0.125,0.125l0.044,0.151l0.048,0.436l-0.004,0.185l0.011,0.087l0.033,0.09l0.129,0.227
	l0.189,0.574l0.209,0.232l0.063,0.188l0.004,0.188l-0.092,0.112l0.063,0.046l0.146,0.015l0.069,0.021l0.057,0.054l0.056,0.078
	l0.146,0.313l0.56,0.667l0.126,0.106l0.313,0.205l0.07,0.065l0.087,0.161l0.065,0.032l0.073,0.013l0.073,0.023l0.099,0.102
	l0.084,0.155l0.115,0.326l0.004,0.033l-0.006,0.096l-0.024,0.103l0.007,0.036l0.021,0.033l0.021,0.05l0.005,0.04l-0.015,0.146
	l0.005,0.057l0.022,0.047l0.025,0.041l0.012,0.031l-0.01,0.05l-0.042,0.089l-0.011,0.043l0.016,0.197l-0.018,0.299l0.016,0.101
	l0.007,0.154l-0.201,1.035l0.001,0.167l0.057,0.008l-0.013,0.084l-0.222,0.619l-0.031,0.338l-0.036,0.09l-0.072,0.053l-0.079,0.021
	l-0.071,0.032l-0.056,0.088l-0.163-0.216l-0.104-0.049l-0.109,0.064l-0.292-0.116l-0.118-0.076l-0.076-0.14l-0.094-0.257
	l-0.021-0.034h-0.063l-0.082-0.027l-0.081-0.043l-0.057-0.041l-0.05-0.055l-0.047-0.072l-0.037-0.081l-0.021-0.086l0.004-0.097
	l0.012-0.082l-0.012-0.07l-0.067-0.061l-0.038-0.017l-0.032-0.003l-0.033,0.006l-0.042,0.016l-0.025-0.006l-0.188-0.132l-0.03-0.063
	l-0.018-0.172l-0.021-0.094l-0.108-0.247l-0.002-0.034l0.009-0.038l-0.003-0.039l-0.043-0.032l-0.024,0.001l-0.092,0.029
	l-0.106,0.122l-0.168,0.096l-0.308,0.131l-0.141,0.121l-0.077,0.149l-0.16,0.522l0.041,0.132l0.183,0.255l0.024,0.07l0.015,0.074
	l-0.011,0.164l-0.012,0.005l0.048,0.051l0.071,0.032l0.07,0.046l0.085,0.157l0.113,0.143l0.104,0.248l0.09,0.142l0.109,0.109
	l0.028,0.055l0.007,0.094l-0.011,0.103l-0.072,0.33l-0.001,0.167l0.044,0.174l0.078,0.158l0.1,0.119l0.157,0.074l0.34-0.013
	l0.161,0.035l0.153,0.12l0.06,0.14l0.028,0.525l0.047,0.205l0.074,0.166l0.104,0.043l0.058,0.012l0.033,0.073l0.035,0.207v0.083
	l0.006,0.041l0.047,0.178l-0.004,0.075l-0.126,0.558l-0.091,0.225l-0.161,0.265l0.071,0.23l0.063,0.096l0.1,0.081l0.125,0.055
	l0.116,0.014l0.117-0.027l0.122-0.064l-0.12,0.141l-0.132,0.122l-0.264,0.158l-0.099,0.115l-0.229,0.122l-0.089,0.059l-0.06,0.088
	l-0.037,0.104l-0.132,0.789l-0.044,0.731l-0.075,0.688l0.053,0.38l0.042,0.068l0.205,0.179l0.562,1.152l0.114,0.315l0.04,0.371
	l0.002,0.665l-0.018,0.854l0.018,0.09l0.03,0.084l0.037,0.062l0.031,0.026l0.069,0.043l0.031,0.027l0.026,0.055l-0.02,0.039
	l-0.042,0.037l-0.037,0.051l-0.064,0.336l0.159,1.038l-0.016,0.077l-0.056,0.148l-0.017,0.076l-0.017,0.385l-0.109,0.689
	l0.018,1.018l-0.121,0.985l-0.092,0.329l0.016,1.709l-0.149,1.729l0.063,0.832l0.021,0.117l0.054,0.181l-0.022,0.497l-0.044-0.047
	l-0.078-0.058l-0.071-0.021l-0.027,0.067l0.035,0.048l0.153,0.112l0.045,0.064l0.005,0.067l-0.146,0.938l-0.057,0.808l-0.013,0.405
	l-0.023,0.855l0.045,1.886l-0.024,0.097l-0.037,0.098l-0.016,0.087l0.037,0.062l0.041-0.082l0.037,0.004l0.03,0.061l0.014,0.081
	l-0.009,0.081l-0.037,0.174l0.008,0.09l0.031,0.169l0.006,0.18l-0.051,0.445l0.003,0.071l0.033,0.15l0.046,0.437l-0.016,0.197
	l-0.026,0.144l-0.03,2.035l-0.176,1.523l-0.171,1.519l0.03,0.333l-0.051,0.371l0.184,1.315v0.315l0.106,0.452l0.007,0.576
	l-0.026,0.521l0.095,0.719l-0.045,1.754l-0.067-0.045l-0.04-0.045l-0.028-0.001l-0.028,0.083l-0.014,0.118l0.037,0.016l0.071-0.02
	l0.088,0.01l0.053,0.115l0.072,1.067l-0.045,0.71l-0.034,0.164l-0.021,0.04l-0.053,0.07l-0.017,0.026l-0.009,0.005l-0.039,0.032
	l-0.005,0.003l-0.021,0.033l0.013,0.01l0.022,0.009l0.008,0.024l0.003,0.013l0.008,0.128l-0.028,0.182l-0.003,0.035l-0.041,0.764
	l-0.023,0.042l-0.058,0.003l-0.101-0.009l-0.013,0.035l0.133,0.229l0.112,0.786l-0.084,1.026l-0.055,0.205l0.009,0.072l0.046,0.142
	l-0.008,0.084l-0.165,0.245l-0.016,0.163l0.125,0.281l-0.013,0.133l-0.058-0.036l-0.048-0.051l-0.034-0.062l-0.022-0.072
	l-0.017,0.079l0.017,0.067l0.03,0.067l0.026,0.078l0.009,0.097l-0.018,0.048l-0.109,0.094l-0.057,0.071l-0.084,0.154l-0.127,0.318
	l-0.032,0.04l-0.021-0.016l-0.074-0.085l-0.05,0.01l-0.01,0.012v0.014l-0.188,0.268l-0.066,0.12l-0.035,0.047l-0.105,0.094
	l-0.038,0.049l-0.034,0.104l-0.031,0.052l-0.034,0.01h-0.045l-0.044,0.017l-0.025,0.063l-0.031,0.045l-0.259,0.185l-0.064,0.022
	l-0.15,0.013l-0.442,0.103l-0.472,0.195l-0.566,0.386l-0.701,0.672l-0.429,0.467l-0.47,0.539l-0.285,0.547l-0.06,0.087l-0.074,0.066
	l-0.09,0.044l-0.142,0.274l-0.261,0.17l-1.137,0.497l-0.058,0.037l-0.051,0.053l-0.055,0.042l-0.073,0.014l-0.055-0.036
	l-0.095-0.157l-0.058-0.059l-0.154-0.048l-0.484,0.007l-0.151-0.043l-0.072-0.04l-0.095-0.116l-0.089-0.036l-0.372-0.104
	l-0.315-0.024l-0.175,0.015l-0.447,0.106l-0.433,0.144l-0.635,0.114l-0.086-0.013l-0.118-0.148l-0.181-0.097l-0.063-0.086
	l0.089,0.002l0.092,0.036l0.173,0.095l0.1,0.027l0.068-0.024l0.018-0.063l-0.051-0.093l-0.061,0.039l-0.065-0.013l-0.138-0.062
	l-0.081-0.02l-0.069-0.001l-0.07,0.013l-0.078,0.026l-0.161-0.003l-0.334-0.17l-0.167-0.017l-0.127,0.052l-0.051,0.007l-0.394-0.089
	l-0.079-0.079l-0.144-0.339l-0.091-0.132l-0.429-0.285l-0.09-0.131l-0.097-0.414l-0.09-0.132l-0.066-0.059l-0.238-0.122
	l-0.024-0.009l-0.026-0.011l-0.034-0.025l-0.025-0.036l-0.042-0.086l-0.031-0.029l-0.174-0.064l-0.347-0.08l-0.168-0.081
	l-0.244-0.262l-0.297-0.639l-0.209-0.79l-0.221-0.403l-0.006-0.045l0.007-0.099l-0.006-0.049l-0.021-0.049l-0.094-0.112
	l-0.096-0.163l-0.055-0.07l-0.077-0.059l0.026-0.115l-0.118-0.313l-0.029-0.15l0.06-0.124l0.23-0.235l0.037-0.128l-0.033-0.07
	l-0.094-0.094l-0.022-0.085l0.042-0.089l0.008-0.037v-0.086l-0.012-0.038l-0.027-0.037l-0.065-0.044l-0.141-0.049l-0.115-0.075
	l-0.229-0.097l-0.035-0.006l-0.026,0.006l-0.03,0.004l-0.042-0.016l-0.02-0.022l-0.05-0.094l-0.097-0.139l-0.155-0.395l-0.17-0.314
	l-0.12-0.165l-0.154-0.077l-0.351-0.094l-0.067-0.046l-0.114-0.113l-0.078-0.032l-0.094-0.025l-0.195-0.102l-0.132-0.101
	l-0.08-0.077l-0.04-0.053l-0.086-0.177l-0.094-0.101l-0.104-0.226l-0.093-0.108l-0.079-0.149l-0.033-0.029l-0.083-0.054l-0.035-0.03
	l-0.065-0.093l-0.038-0.104l-0.057-0.216l-0.187-0.396l-0.133-0.193l-0.169-0.164l-0.017-0.044l-0.012-0.049l-0.017-0.042
	l-0.066-0.1l-0.082-0.085l-0.022-0.1l0.064-0.107l0.106-0.058l0.116,0.048l0.002-0.083l-0.034-0.074l-0.044-0.073l-0.032-0.079
	l-0.141,0.057l-0.12-0.156l-0.143-0.409l-0.01-0.055l0.01-0.106l-0.008-0.051l-0.038-0.107l-0.009-0.048l0.009-0.029l0.013-0.022
	l0.007-0.03l0.007-0.008l0.016-0.013l0.015-0.02l0.007-0.018l-0.073-0.112l-0.015-0.062l-0.001-0.063l0.01-0.063l0.018-0.063
	l0.071,0.047l0.033,0.072l0.031,0.177l0.04-0.158l-0.058-0.22l-0.086-0.228l-0.043-0.184l0.018-0.104l0.157-0.459l0.05-0.089
	l0.076-0.045l0.11,0.018l-0.422-1.216l-0.007-0.126l0.013-0.248l-0.012-0.124l0.06,0.063l0.033-0.013l0.051-0.112l0.092-0.11
	l0.026-0.106l0.013-0.021l0.232-0.093l0.14-0.113l0.085-0.013l0.085,0.003l0.082-0.015l0.089-0.085l0.087-0.151l0.06-0.165
	l0.001-0.132l-0.024-0.143l0.003-0.495l-0.146-0.956l0.083-0.645l0.058-0.128l0.124-0.094l0.053-0.101l0.078-0.534l-0.012-0.21
	l-0.035-0.235l-0.011-0.23l0.058-0.196l0.015,0.042l0.018,0.025l0.04,0.047l0.017-0.297l0.033-0.104l0.133-0.229l0.039-0.087
	l-0.064-0.143l-0.016-0.188l0.094-0.772l0.041-0.186l0.166-0.364l0.058-0.172l0.03-0.182l0.011-0.203l-0.027-0.153l-0.064-0.201
	l-0.085-0.142l-0.082,0.022l-0.08-0.115l-0.031-0.022l-0.036-0.006l-0.063,0.022l-0.03,0.002l-0.075-0.028l-0.08-0.048l-0.071-0.063
	l-0.043-0.073l-0.005-0.069l0.027-0.196l0.017-0.063l0.013-0.081l-0.013-0.086l-0.059-0.158l-0.025-0.042l-0.03-0.036l-0.024-0.041
	l-0.013-0.057l0.014-0.029l0.057-0.08l0.017-0.041l-0.009-0.097l-0.013-0.077l0.018-0.064l0.087-0.057l0.029-0.106l-0.079-0.177
	l-0.188-0.274l-0.114-0.122l-0.128-0.104l-0.271-0.118l-0.049-0.04l-0.086-0.141l-0.131-0.117l-0.575-0.367l-0.126-0.12
	l-0.083-0.147l-0.063-0.288l0.008-0.173l-0.097-0.288l-0.008-0.01l-0.029-0.027l-0.011-0.017l-0.004-0.035l0.023-0.055l0.004-0.03
	l-0.013-0.129l-0.013-0.046l-0.068-0.141l-0.213-0.284l-0.401-0.494l-0.457-0.314l-0.42-0.3l-0.083-0.126l-0.318-0.942l-0.481-0.849
	l-0.113-0.31l-0.073-0.646l-0.05-0.221l-0.048-0.062l-0.138-0.057l-0.134-0.19l-0.412-0.288l-0.063-0.104l-0.049-0.15l-0.063-0.31
	l-0.003-0.161l0.09-0.481l0.011-0.234l0.023-0.025l0.06,0.005l0.016-0.048l-0.007-0.157l0.145-0.696l0.046-0.107l0.008-0.085
	l-0.011-0.073l-0.063-0.235l0.123-0.051l0.044-0.232l0.009-0.479l0.013-0.064l0.075-0.184l0.009-0.052v-0.126l0.015-0.062
	l0.041-0.121l0.023-0.113l0.016-0.238l0.055-0.232l0.093-0.246l0.063-0.248l-0.032-0.237l-0.057-0.082l-0.147-0.173l-0.053-0.089
	l-0.018-0.128l0.033-0.077l0.053,0.003l0.045,0.117l0.027-0.158l-0.011-0.149l-0.047-0.135l-0.088-0.116l-0.254-0.191l-0.116-0.118
	l-0.063-0.152l-0.002-0.07l0.011-0.084l0.02-0.085l0.024-0.07l0.013-0.066l-0.012-0.068l-0.078-0.28l-0.008-0.072l0.021-0.062
	l0.065-0.055l0.147-0.067l0.142-0.094l0.995-0.337l0.11-0.082l0.056-0.021l0.139,0.048l0.093,0.012l0.088-0.013l0.055-0.051
	l0.022-0.075l0.013-0.061l0.019-0.055l0.05-0.067l0.055-0.045l0.121-0.078l0.049-0.055l-0.047-0.019l0.215-0.246l0.101-0.146
	l0.047-0.158l0.064-0.34l0.055-0.179l0.066-0.146l0.096-0.132l0.233-0.249l0.133-0.206l0.041,0.017l0.034,0.067l0.057,0.152
	l0.167,0.239l0.012,0.022l0.018,0.045l0.009,0.037l0.008,0.11l0.021,0.085l0.028,0.063l0.048,0.026l0.075-0.017l0.059-0.055
	l0.027-0.074l0.018-0.08l0.032-0.068l0.132-0.129l0.049-0.076l0.005-0.089l-0.025-0.038l-0.099,0.003l-0.072-0.035l-0.063-0.067
	l-0.022-0.062l0.027-0.059l0.703-0.41l0.027-0.024l0.027-0.03l0.046-0.069l0.077,0.124l0.051,0.037l0.021,0.005l0.012,0.015
	l0.024,0.07l-0.002,0.165l0.019,0.048l0.064-0.075l0.062,0.082l0.028-0.026l0.017-0.105l-0.127-0.233l-0.004-0.061l0.047-0.109
	l0.018-0.071l-0.008-0.011l-0.037-0.128l-0.004-0.048l0.002-0.042v-0.044l-0.02-0.05l-0.054-0.048l-0.063-0.021l-0.039-0.033
	l0.011-0.083l0.092-0.229l0.115-0.171l0.045-0.022l0.086-0.003l0.072-0.011l0.069-0.031l0.068-0.021l0.197,0.039l0.096-0.062
	l0.221-0.294l0.049-0.048l0.057-0.039l0.068-0.035l0.103-0.029l0.048,0.029l0.044,0.168l0.028,0.077l0.029,0.033l0.043,0.002
	l0.069-0.013l0.039-0.014l0.077-0.041l0.039-0.014l0.145,0.015l0.105-0.042l-0.01-0.03l-0.063-0.041l-0.057-0.072l0.002-0.063
	l0.027-0.062l0.018-0.069l-0.027-0.089l-0.089,0.109l-0.078,0.135l-0.051,0.058l-0.009-0.122l0.029-0.142l0.062-0.146l0.078-0.136
	l0.081-0.116l0.089-0.09l0.101-0.071l0.225-0.102l0.12-0.033l0.058-0.004l0.032,0.024l0.02,0.058l0.022,0.051l0.033,0.039
	l0.051,0.028l-0.025,0.113l0.005,0.09l-0.01,0.085l-0.063,0.103l0.125,0.042l0.097,0.046l0.086,0.066l0.268,0.278l0.102,0.063
	l0.127,0.045l-0.011-0.052l-0.022-0.063l-0.015-0.062l0.015-0.045l0.04-0.004l0.081,0.073l0.045,0.014l0.083-0.062l0.011-0.104
	l-0.037-0.106l-0.06-0.076l0.114-0.064l0.116,0.051l0.114,0.084l0.116,0.035l0.035-0.059l-0.09-0.111l-0.173-0.159l-0.104-0.003
	l-0.246-0.105l-0.125,0.009l-0.144,0.073l-0.042,0.008l-0.099-0.017l-0.004-0.038l0.045-0.055l0.038-0.077l0.058-0.253l-0.011-0.106
	l-0.073-0.057l-0.052,0.018l-0.059,0.035l-0.053,0.023l-0.032-0.026l-0.013-0.089l0.024-0.166l-0.007-0.206l0.057-0.135l0.147-0.262
	l0.18-0.474l0.079-0.13l0.016,0.022l0.018,0.015l0.015,0.021l0.012,0.032l0.042-0.054l0.084-0.181l0.146-0.238l0.037-0.078
	l0.084-0.126l0.117-0.065l0.12-0.052l0.094-0.08l-0.073-0.017l-0.154,0.021l-0.031-0.042l0.031-0.075l0.242-0.187l0.358-0.576
	l0.242-0.493l0.174-0.146l0.105-0.131l0.067-0.047l0.033,0.003l0.026,0.032l0.02,0.046l0.041,0.133l0.017,0.025l0.094,0.101
	l0.051,0.035l0.063,0.021l0.085,0.013h0.179l0.094,0.021l0.02,0.062l-0.025,0.087l-0.03,0.16l-0.041,0.078l-0.057,0.081
	l-0.031,0.073l-0.07,0.529l-0.003,0.196l0.051,0.111l0.053-0.01l0.012-0.085l-0.008-0.185l0.038-0.076l0.074-0.065l0.154-0.1
	l0.138-0.131l0.119-0.146l0.13-0.106l0.164-0.012l0.147-0.141l0.055-0.086l-0.011-0.097l-0.026-0.021l-0.032,0.005l-0.04,0.013
	l-0.044,0.006l-0.046-0.009l-0.023-0.015l-0.124-0.119l-0.16-0.295l-0.008-0.033l-0.02-0.009l-0.06,0.022l-0.038,0.027l-0.114,0.123
	l-0.031-0.061l-0.012-0.059l0.006-0.143l-0.06,0.036l-0.051,0.021l-0.042-0.01l-0.06-0.09l-0.092-0.014l-0.045-0.029l-0.044-0.11
	l0.008-0.128l0.068-0.245l0.109-0.214l0.156-0.229l0.122-0.241l0.009-0.346l0.037-0.119l0.163-0.341l0.077-0.104l0.093-0.084
	l0.105-0.062l0.044-0.084l-0.021-0.126l-0.063-0.093l-0.079,0.02l-0.037,0.067l-0.003,0.096l-0.043,0.052l-0.07,0.036l-0.053-0.01
	l-0.105-0.084l0.028-0.013l0.067-0.301l0.382-0.919l0.05-0.081l0.035,0.008l0.035,0.048l0.049,0.049l0.131,0.077l0.021,0.051
	l0.072,0.325l0.042,0.069l0.024,0.012l0.035-0.003l0.035,0.011l0.031,0.047l-0.009,0.018l-0.013,0.15l-0.166,0.454l-0.035,0.15
	l-0.002,0.174l0.139,0.646l0.035,0.054l0.076,0.012l0.051-0.036l0.125-0.157l0.035-0.058l0.042-0.178l0.002-0.161l0.021-0.162
	l0.096-0.171l0.066,0.02v-0.054l-0.042-0.132v-0.096l0.13-0.83l-0.02-0.162l0.002-0.073l0.103-0.232l0.001-0.05l-0.027-0.093
	l0.005-0.048l0.026-0.045l0.068-0.077l0.02-0.03l0.067-0.178l0.02-0.094l-0.003-0.08l0.009-0.094l0.057-0.073l0.051-0.081
	l-0.012-0.119l0.287,0.212l0.116,0.045h0.069l0.159-0.021l0.062,0.017l0.042,0.051l0.029,0.123l0.029,0.059l0.044-0.111
	l-0.028-0.116l-0.069-0.089l-0.079-0.026l0.097-0.168l0.129-0.041l0.124,0.069l0.086,0.149l0.094,0.354l0.055,0.087l0.04-0.165
	l-0.018-0.163l-0.064-0.213l-0.097-0.169l-0.118-0.041l-0.069,0.006l-0.074-0.028l-0.139-0.073l-0.104-0.012l-0.066,0.043
	l-0.12,0.158l-0.052,0.054l-0.057,0.039l-0.069,0.013l-0.088-0.031l-0.059-0.055l-0.052-0.063l-0.04-0.015l-0.074,0.257l-0.04,0.087
	l-0.039,0.047l-0.041-0.027l-0.15-0.144l-0.039-0.049l0.002-0.025l0.032-0.072v-0.038l-0.023-0.045l-0.026-0.021l-0.028-0.016
	l-0.132-0.145l-0.008-0.032l0.015-0.025l0.004-0.02l-0.065-0.02l-0.014-0.013l-0.059-0.227l-0.021-0.188l0.01-0.189l0.057-0.175
	l0.091-0.122l0.021-0.059l-0.011-0.089l-0.039-0.156l0.002-0.066l0.026-0.074l0.1-0.085l0.269,0.072l0.149-0.078l0.058-0.045
	l0.097-0.027l0.033-0.031l0.024-0.076l0.006-0.098l-0.008-0.1l-0.014-0.072l-0.053-0.112l-0.088-0.123l-0.108-0.093l-0.109-0.017
	l0.042-0.1l0.109-0.016l0.237,0.064l0.044,0.006l0.046-0.001l0.044,0.005l0.042,0.029l0.026,0.064l-0.018,0.063l-0.023,0.067v0.074
	l0.023,0.14l0.011,0.299l0.024,0.143l0.013,0.046l0.03,0.079l0.048,0.052l0.063-0.026l0.02-0.057l-0.016-0.061l-0.023-0.057
	l-0.009-0.051l0.027-0.049l0.048-0.068l0.034-0.067l-0.013-0.044l-0.051-0.029l-0.053-0.043l-0.047-0.054l-0.026-0.056l0.001-0.131
	l0.072-0.243l-0.003-0.123l-0.035-0.122l-0.049-0.115l-0.069-0.072l-0.205,0.014l-0.127-0.034l-0.224-0.099l0.298-0.363
	l-0.019-0.065l-0.273-0.06l-0.214,0.003l-0.066-0.022l-0.195-0.194l-0.174-0.31l-0.048-0.31l0.176-0.193l-0.073-0.059l-0.066-0.004
	l-0.059-0.028l-0.048-0.126l-0.017-0.118l-0.008-0.174l0.031-0.136l0.105-0.008l0.072-0.027l0.002-0.146l-0.049-0.245l0.028-0.059
	l0.042-0.057l0.049-0.022l0.053,0.038l-0.01,0.043l-0.035,0.066l-0.012,0.071l0.056,0.064l0.022-0.028l0.043-0.03l0.023-0.021
	l-0.007,0.076l0.028,0.053l0.046,0.012l0.047-0.052l0.006-0.052l-0.013-0.047l0.008-0.052l0.064-0.064l-0.116-0.063l-0.018-0.037
	l0.176-0.078l0.09,0.026l0.071,0.121l0.06,0.137l0.052,0.081l0.111-0.124l0.086,0.013l0.068,0.091l0.058,0.119l0.15,0.201
	l0.038,0.083l0.011,0.036l0.014,0.034l0.023,0.021l0.082-0.004l0.001,0.046l-0.031,0.086l0.083,0.082l0.152,0.045l0.161,0.012
	l0.113-0.02l0.124-0.097l0.109-0.157l0.027-0.16l-0.117-0.099l0.009-0.097l-0.077-0.28l0.003-0.097l0.037-0.21l-0.004-0.079
	l-0.156-0.14l-0.049-0.084l0.08-0.087l0.063,0.006l0.204,0.159l-0.005-0.109l0.015-0.113l0.025-0.1l0.032-0.075l0.055-0.052
	l0.085-0.057l0.087-0.044l0.06-0.016l-0.009-0.027l-0.014-0.056l-0.009-0.026l0.141,0.056l0.065,0.007l0.042-0.032l-0.023-0.042
	l-0.137-0.146l-0.079-0.132l-0.118-0.081l-0.051-0.047l-0.033-0.065l-0.024-0.071l-0.023-0.152l0.079-0.016l0.057,0.029l0.053,0.045
	l0.062,0.033l0.027,0.086l0.104,0.023l0.284-0.004l0.048-0.01l0.046-0.029l0.048-0.054l0.056-0.043l0.063-0.016l0.062-0.009
	l0.053-0.017l0.158-0.13l0.145-0.189l0.114-0.217l0.074-0.221l-0.114-0.066l0.026-0.184l0.112-0.315l-0.034-0.059l-0.104-0.093
	l-0.039-0.077l-0.047-0.177l-0.015-0.095l-0.01-0.47l0.021-0.178l0.079-0.255l0.015-0.101l0.004-0.1l-0.007-0.072l0.006-0.072
	l0.035-0.104l0.045-0.1l0.045-0.05l-0.06-0.126l-0.021-0.383l-0.028-0.149l-0.048-0.055l-0.132-0.083l-0.059-0.048l-0.052-0.059
	l-0.036-0.054l-0.093-0.229l-0.035-0.052l-0.104-0.082l-0.036-0.009l-0.023,0.02l-0.025,0.009l-0.037-0.048l-0.014-0.055
	l0.015-0.042l0.02-0.039l0.006-0.047l-0.016-0.043l-0.046-0.052l-0.013-0.036l0.017-0.157l0.009-0.021l-0.056-0.049l-0.057,0.02
	l-0.061,0.061l-0.059,0.074l-0.048-0.158l-0.067-0.07l-0.199-0.085l-0.137-0.187l-0.062-0.055l0.016,0.112l-0.229-0.017l0.044-0.079
	l0.044-0.187l0.053-0.03l0.066,0.004l0.057-0.007l0.123-0.049l0.176-0.039l0.129,0.05l0.233,0.242l0.062,0.009l0.069-0.059
	l0.058-0.09l0.029-0.08l-0.003-0.09l-0.067-0.295l0.002-0.036l0.022-0.142l-0.007-0.028l-0.03-0.073l-0.004-0.047l0.023-0.089
	l0.048-0.081l0.063-0.051l0.069,0.003l0.006-0.111l0.037-0.069l0.048-0.068l0.035-0.106l0.099,0.065l0.043-0.104l0.025-0.162
	l0.047-0.108l0.1,0.037l0.064-0.063l0.031-0.113v-0.115l-0.018-0.039l-0.027-0.03l-0.027-0.039l-0.014-0.063l0.011-0.072
	l0.028-0.051l0.031-0.043l0.023-0.048l0.046-0.031l0.004-0.034l-0.05-0.06l-0.057-0.035l-0.035,0.008l-0.035,0.02l-0.06,0.008
	l-0.031-0.013l-0.024-0.023l-0.031-0.022l-0.045-0.01l-0.057,0.016l-0.178,0.091l0.039-0.129l0.176-0.16l0.048-0.126l0.089,0.024
	l0.228,0.174l0.021-0.058l0.048,0.025l-0.023-0.109l-0.07-0.101l-0.098-0.06l-0.104,0.022l0.004-0.065l0.02-0.051l0.023-0.043
	l0.015-0.038l0.043-0.046l0.011-0.02l-0.011-0.016l-0.027-0.026l-0.019-0.035l0.003-0.047l0.098-0.243l0.071-0.094l0.094-0.019
	l0.062,0.016l0.182,0.107l0.055,0.063l0.043,0.158l0.052,0.05l0.133,0.095L1351.452,735.378z"/></svg>