<?xml version="1.0" encoding="utf-8"?>
<!-- Generator: Adobe Illustrator 15.0.0, SVG Export Plug-In . SVG Version: 6.00 Build 0)  -->
<!DOCTYPE svg PUBLIC "-//W3C//DTD SVG 1.1//EN" "http://www.w3.org/Graphics/SVG/1.1/DTD/svg11.dtd">
<svg version="1.1" id="Ebene_1" xmlns="http://www.w3.org/2000/svg" xmlns:xlink="http://www.w3.org/1999/xlink" x="0px" y="0px"
	 width="1920px" height="1080px" viewBox="0 0 1920 1080" enable-background="new 0 0 1920 1080" xml:space="preserve">

<path fill="#F4E0B6" stroke="#FFFFFF" d="M461.148,71.289l0.039-0.177l0.021,0.302l0.032,0.064l0.134,0.178l-0.121-0.09l-0.08-0.124
	L461.148,71.289z M467.677,69.528l-0.041-0.081l0.065-0.072l0.002,0.001l-0.021,0.03l-0.021,0.042l0.002,0.035l0.04,0.038
	l0.045,0.024l0.047,0.011l0.051-0.003l-0.081,0.023L467.677,69.528z M466.532,75.145l-0.043-0.048l0.059,0.028L466.532,75.145z
	 M466.82,78.305l-0.141-0.157l0.047-0.137l0.034,0.127l0.025,0.052l0.042,0.047l0.063,0.053l0.156,0.097l0.251,0.106l0.13,0.097
	l0.072,0.143l0.05,0.158l0.07,0.129l0.09,0.12l-0.187-0.129l-0.131-0.373l-0.199-0.129l-0.161-0.071L466.82,78.305z M464.811,92.042
	l-0.085,0.182l0.041-0.119l0.01-0.145l0.031-0.125l0.109-0.056l-0.009,0.01l-0.023,0.032l-0.025,0.052L464.811,92.042z
	 M465.29,90.631l-0.025,0.004l0.009-0.038l0.015-0.058l0.031-0.025l0.043,0.005l0.057,0.033l-0.029,0.015l-0.036,0.015
	L465.29,90.631z M470.792,91.222l-0.045,0.067l-0.073,0.375l-0.035,0.072l-0.26,0.201l-0.102,0.11l0.056-0.145l0.232-0.191
	l0.076-0.152l0.023-0.276l0.082-0.108l0.202-0.039l-0.088,0.037L470.792,91.222z M470.616,92.298l-0.049-0.099l0.058,0.063
	l0.157,0.21l0.018,0.022l0.015,0.015l0.01,0.018l0.003,0.022l-0.08-0.075l-0.07-0.084L470.616,92.298z M470.962,93.342l-0.001-0.115
	l0.018,0.033l0.01,0.033l0.015,0.07l0.036,0.069l0.041,0.044l0.043,0.011l0.047-0.022l-0.051,0.073l-0.087-0.067L470.962,93.342z
	 M472.208,88.319l-0.615,0.861l-0.014,0.063l-0.009,0.155l0.014,0.134l-0.029,0.652l-0.05-0.176l0.041-0.434l-0.048-0.197
	l0.038-0.159l0.073-0.18l0.549-0.709l0.145-0.113l0.068,0.107l-0.055-0.013h-0.037L472.208,88.319z M476.338,75.487l-0.033,0.108
	l-0.1,0.404l-0.067-0.106l0.039-0.131l0.123-0.239l0.121-0.268l0.071-0.104l0.074,0.044l-0.096,0.063l-0.067,0.115L476.338,75.487z
	 M477.176,74.722l-0.082,0.004l0.065-0.06l0.111-0.022l0.111,0.021l0.069,0.071l-0.081,0L477.176,74.722z M477.53,77.186
	l-0.042-0.014l0.024-0.012l0.031,0.021l0.021,0.008l0.049-0.023l0.037-0.054l0.021-0.071l0.001,0.034l-0.004,0.045l-0.015,0.043
	l-0.025,0.029l-0.054,0.007l-0.017-0.002L477.53,77.186z M483.833,69.542l-0.067,0.019l0.031-0.04L483.833,69.542z M485.701,72.051
	l-0.037-0.06l0.033,0.003l0.029,0.005l0.021,0.022l0.013,0.047l-0.036-0.002L485.701,72.051z M483.061,90.751l-0.065-0.074
	l0.014-0.033l0.001-0.003l0.002-0.003l0.003-0.003h0.004l0.053,0.049l0.012,0.027v0.038L483.061,90.751z M486.966,88.149
	l-0.045-0.065l0.107,0.033l-0.006,0.033H486.966z M491.546,94.255v-0.028l0.074,0.028v0.028L491.546,94.255z M500.549,71.014
	l-0.032-0.121l0.032-0.121l0.102-0.076l-0.031,0.205l0.017,0.196L500.549,71.014z M505.058,64.292l-0.045,0.006l0.099-0.054
	l-0.008,0.014l-0.018,0.02L505.058,64.292z M505.865,62.968l-0.048-0.053l0.072,0.02l0.007,0.029L505.865,62.968z M518.59,92.678
	l-0.026-0.074l0.058,0.097l0.051,0.104l-0.001,0.019l-0.038-0.058L518.59,92.678z"/></svg>