<?xml version="1.0" encoding="utf-8"?>
<!-- Generator: Adobe Illustrator 15.0.0, SVG Export Plug-In . SVG Version: 6.00 Build 0)  -->
<!DOCTYPE svg PUBLIC "-//W3C//DTD SVG 1.1//EN" "http://www.w3.org/Graphics/SVG/1.1/DTD/svg11.dtd">
<svg version="1.1" id="Ebene_1" xmlns="http://www.w3.org/2000/svg" xmlns:xlink="http://www.w3.org/1999/xlink" x="0px" y="0px"
	 width="1920px" height="1080px" viewBox="0 0 1920 1080" enable-background="new 0 0 1920 1080" xml:space="preserve">

<path fill="#F4E0B6" stroke="#FFFFFF" d="M743.477,677.339l-0.034-0.013l-0.026-0.014l-0.027-0.01l-0.038,0.004l-0.002-0.097
	l-0.05-0.087l-0.078-0.074l-0.053-0.032l-0.03-0.021l-0.033-0.072l0.003-0.124l0.05-0.229l0.277-0.627l0.043-0.065l0.059-0.045
	l0.089-0.033l0.088,0.011l0.052,0.084l0.009,0.122l-0.004,0.056l-0.006,0.083l-0.015,0.226l0.012,0.107l0.043,0.104l0.061,0.146
	l0.042,0.071l0.064,0.072l0.056,0.078l0.014,0.092l-0.091,0.148l-0.163,0.061l-0.112,0.019l-0.066,0.01L743.477,677.339z"/></svg>