<?xml version="1.0" encoding="utf-8"?>
<!-- Generator: Adobe Illustrator 15.0.0, SVG Export Plug-In . SVG Version: 6.00 Build 0)  -->
<!DOCTYPE svg PUBLIC "-//W3C//DTD SVG 1.1//EN" "http://www.w3.org/Graphics/SVG/1.1/DTD/svg11.dtd">
<svg version="1.1" id="Ebene_1" xmlns="http://www.w3.org/2000/svg" xmlns:xlink="http://www.w3.org/1999/xlink" x="0px" y="0px"
	 width="1920px" height="1080px" viewBox="0 0 1920 1080" enable-background="new 0 0 1920 1080" xml:space="preserve">

<path fill="#F4E0B6" stroke="#FFFFFF" d="M1069.128,730.477l0.062,0.077l0.104,0.047l0.119,0.015l0.099-0.017l0.09-0.052
	l0.156-0.129l0.093-0.046l0.185-0.006l0.111,0.096l0.062,0.166l0.04,0.206l0.007,0.076l-0.024,0.055l-0.036,0.052l-0.028,0.065
	l-0.01,0.064l0.043,0.615l0.019,0.053l0.055,0.1l0.007,0.063l-0.031,0.066l-0.082,0.125l-0.044,0.133l-0.011,0.116l0.035,0.248
	l0.004,0.089l0.008,0.158l0.027,0.119l0.082,0.092l0.055,0.021l0.064,0.004l0.063-0.013l0.12-0.036l0.043,0.01l0.041,0.02
	l0.054,0.013l0.173-0.016l0.054,0.01l0.055,0.035l0.091,0.098l0.057,0.037l0.314,0.063l0.105,0.057l0.397,0.411l0.021,0.015
	l0.036-0.022l0.013-0.044l0.003-0.043l0.008-0.022l0.149-0.004l0.051-0.016l0.053-0.044l0.04-0.047l0.041-0.038l0.055-0.012
	l0.063,0.034l0.02,0.062v0.067l0.007,0.052l0.082,0.075l0.109,0.047l0.077,0.065l-0.014,0.135l0.07-0.032l0.208-0.146l0.056,0.004
	l0.127,0.046l-0.096,0.16v0.1l0.011,0.099l-0.015,0.093l0.06,0.188l0.083,0.415l0.089,0.123l0.076,0.017l0.06-0.011l0.05,0.018
	l0.047,0.108l0.007,0.104l0.003,0.019l-0.053,0.043l-0.082,0.022l-0.081,0.061l0.044,0.04l0.007,0.04l-0.007,0.041l0.005,0.06
	l0.018,0.033l0.097,0.106l0.064,0.097l0.01,0.049l-0.025,0.051l-0.043,0.109l-0.018,0.106l0.012,0.084l0.085,0.219l0.017,0.065
	l0.013,0.494l0.035,0.105l0.044,0.048l0.048,0.027l0.049,0.041l0.046,0.073l0.04,0.099l0.013,0.107l-0.033,0.095l-0.088,0.058
	l-0.099-0.014l-0.177-0.095l-0.028,0.198l0.049,0.166l0.114,0.082l0.162-0.057l0.188-0.156l0.105-0.027l0.076,0.1l-0.014,0.096
	l-0.074,0.064l-0.099,0.026l-0.083-0.017l-0.071,0.109l-0.119,0.065l-0.264,0.09l-0.001,0.042l0.019,0.174l0.013,0.035l0.016,0.011
	l0.048,0.02l0.062,0.016h0.059l0.121-0.089l0.072-0.03l0.063,0.042l-0.005,0.068l-0.05,0.081l-0.069,0.072l-0.198,0.149l0.021,0.081
	l0.061,0.076l-0.023,0.085l0.044,0.067l0.097-0.035l0.089-0.065l0.205-0.202l0.029-0.055l0.007-0.059l-0.017-0.123l0.013-0.058
	l0.066-0.075l0.107-0.077l0.199-0.109l0.1-0.028l0.297-0.019l0.047,0.035l0.023,0.054l0.006,0.064l-0.017,0.08l0.001,0.007
	l0.002,0.004l0.005,0.004l0.167-0.014l0.115,0.046l0.067,0.121l0.033,0.314l0.038,0.173l-0.001,0.082l-0.035,0.084l-0.046,0.064
	l-0.026,0.076l0.026,0.116l0.119,0.177l0.026,0.091l-0.029,0.147l-0.083,0.171l-0.016,0.071l0.024,0.09l0.024,0.2l-0.037,0.221
	l-0.004,0.202l0.117,0.146l0.001-0.001v0.001l0.373,0.354l0.14,0.253l-0.062,0.237v0.001l-0.006,0.084l0.018,0.096l0.003,0.085
	l-0.047,0.058l-0.069,0.02l-0.057,0.007l-0.048,0.016l-0.049,0.047l0.033,0.01l-0.007,0.113l-0.035,0.094l-0.09-0.105l-0.067,0.003
	l-0.061,0.045l-0.02,0.071l0.031,0.07l0.09,0.199l0.249,0.292l0.29,0.225l0.246,0.059l0.118,0.073l0.158,0.069l0.162,0.044
	l0.382,0.017l0.147,0.173l0.127,0.188l0.245,0.09l0.027,0.055l0.018,0.068l0.035,0.079l0.013,0.062l0.011,0.026l0.025,0.01
	l0.063-0.019l0.024,0.01l0.06,0.135l-0.014,0.107l-0.065,0.099l-0.192,0.224l-0.067,0.106l-0.121,0.258l-0.037,0.045l-0.037,0.024
	l-0.021,0.036l0.016,0.078l0.038,0.052l0.051,0.025l0.05,0.032l0.03,0.077l-0.007,0.09l-0.03,0.056l-0.014,0.054l0.066,0.131
	l0.095,0.27l0.107,0.196l0.033,0.111l0.057,0.222l0.157,0.367l0.012,0.026l0.093,0.355l0.139,0.318l0.074,0.315l0.047,0.109
	l-0.156,0.043l-0.033,0.154l0.035,0.191l0.046,0.161l-0.007,0.096l-0.059,0.074l-0.075,0.067l-0.058,0.068l-0.036,0.084l-0.014,0.08
	v0.082l0.075,0.356l0.106,0.283l0.154,0.22l0.208,0.085l0.098-0.03l0.096-0.073l0.166-0.175l0.048,0.035l0.19,0.352l0.029,0.131
	l-0.009,0.255l0.029,0.303l-0.025,0.422l0.047,0.244l0.098,0.259l0.068,0.264l-0.042,0.258l-0.055,0.076l-0.2,0.176l-0.074,0.045
	l-0.067,0.064l0.085,0.063l0.183,0.059l0.095,0.097l0.016,0.108l-0.051,0.268v0.145l0.032,0.049l0.06,0.01l0.079,0.025l0.238,0.249
	l0.048,0.035l0.096-0.022l0.105,0.013l0.099,0.045l0.07,0.075l0.032,0.097l0.039,0.329l0.063,0.112l0.088,0.038l0.09,0.024
	l0.072,0.074l0.051-0.02l0.142-0.078l0.051-0.013l0.087,0.042l0.013,0.059l-0.021,0.076l-0.011,0.094l0.008,0.038l0.026,0.129
	l0.074,0.131l0.102,0.114l0.122,0.104l0.146,0.076l0.296,0.018l0.156,0.031l0.234,0.151l0.084,0.025l0.114-0.021l0.395-0.197
	l0.271,0.417l0.118,0.094l0.051,0.016l0.044-0.001l0.046,0.004l0.055,0.033l0.102,0.09l0.077,0.048l0.083,0.006l0.442-0.161
	l0.089,0.064l0.046,0.221l0,0l-0.002,0.003l-0.028,0.031l-0.192,0.269l-0.132,0.254l-0.17,0.467l-0.03,0.139l-0.044,0.365
	l0.01,0.133l0.027,0.131l0.026,0.313l-0.013,0.137l-0.114,0.268l-0.186,0.196l-0.957,0.646l-1.918,0.803l-0.221,0.129l-0.116,0.1
	l-0.056,0.063l-0.017,0.05l-0.021,0.031l-0.124,0.071l-0.039,0.041l-0.077,0.136l-0.321,0.294l-0.064,0.104l-0.102,0.235
	l-0.187,0.175l-0.049,0.129l-0.028,0.144l-0.058,0.146l-0.375,0.384l-0.02,0.029l-0.047,0.118l-0.024,0.043l-0.041,0.045
	l-0.081,0.052l-1.022,1.021l-0.231,0.159l-0.027,0.037l-0.056,0.071l-0.289,0.588l-0.023,0.093l-0.002,0.112l-0.05,0.124
	l-0.154,0.238l-0.346,0.303l-0.063,0.033l-0.026,0.066l-0.067,0.122l-0.08,0.079l-0.066-0.067l-0.219,0.373l-0.06,0.065
	l-0.235,0.467l-0.082,0.244l-0.064,0.102l-0.382,0.276l-0.126,0.056l-0.099-0.042l-0.022,0.074l-0.046,0.048l-0.131,0.08
	l-0.119,0.106l-0.064,0.029l-0.043-0.043l-0.033-0.047l-0.039,0.035l-0.049,0.1l-0.087,0.055l-0.079,0.072l-0.49,0.579l-0.034,0.123
	l-0.034,0.08l-0.092,0.136l-0.185,0.224l-0.104,0.086l-0.35,0.196l-0.055,0.049l-0.103,0.152l-0.053,0.059l-0.053,0.034l-0.114,0.05
	l-0.055,0.031l-0.09,0.091l-0.169,0.218l-0.362,0.259l-0.109,0.119l-0.073,0.126l-0.003,0.004l-0.089-0.001l-0.098,0.04
	l-0.086,0.077l-0.052,0.099l0.004,0.056l0.062,0.078v0.058l-0.022,0.064l-0.017,0.037l-0.319,0.413l-0.052,0.094l-0.106,0.288
	l-0.002,0.055l0.021,0.039l0.005,0.031l-0.046,0.036l-0.05,0.032l-0.346,0.322l-0.366,0.442l-0.064,0.138l-0.078,0.294l-0.06,0.138
	l-0.069,0.077l-0.365,0.255l-0.066,0.075l-0.145,0.083l-0.036,0.008l-0.051-0.022l-0.032-0.059l-0.011-0.077l-0.027-0.053
	l-0.078,0.014l-0.046,0.016l-0.09,0.014l-0.064,0.024l-0.002-0.032l-0.066-0.04l-0.288-0.099l-0.131,0.001l-0.063-0.01l-0.036-0.046
	l-0.021-0.044l-0.037-0.038l-0.04-0.024l-0.637,0.032l-0.99,0.256l-0.999,0.104l-0.74,0.31l-0.841,0.248l-0.84,0.118l-0.094,0.021
	v-0.12l0.035-0.032l0.048-0.051l0.06-0.043l0.4-0.202l0.13-0.021l0.042,0.021l0.096,0.081l0.035,0.01l0.07-0.049l0.103-0.116
	l0.056-0.053l-0.057-0.173l0.137-0.157l0.191-0.139l0.104-0.127h0.001l0.223-0.104l0.123-0.087l0.063-0.108l0.024-0.15l-0.04-0.027
	l-0.09-0.035l-0.022-0.015l-0.02-0.057l-0.008-0.148l-0.01-0.059l-0.042-0.062l-0.108-0.093l-0.037-0.082l-0.058-0.425l0.196-0.055
	l0.07-0.053l0.036-0.111l-0.013-0.122l-0.052-0.104l-0.247-0.34l-0.207-0.415l-0.093-0.335l-0.045-0.094l-0.063-0.063l-0.088-0.032
	l-0.422,0.081l-0.08,0.088l-0.15,0.22l-0.104,0.07l-0.151-0.018l-0.068-0.153l-0.037-0.436l-0.352,0.219l-0.116-0.77l-0.068-0.228
	l-0.121-0.2l-0.316-0.348l-0.134-0.19l-0.413-0.993l-0.2-0.3l-0.202-0.093l-0.021-0.014l-0.086-0.059l-0.951-2.05l-0.017-0.113
	l0.025-0.086l0.086-0.114l0.021-0.058l0.028-0.403l-0.022-0.036l-0.11-0.129l-0.093-0.067l-0.038-0.054l-0.046-0.233l0.037-0.292
	l0.35-1.56l0.055-0.083l0.004-0.004l0.006-0.009l0.247-0.233l0.018-0.06l-0.027-0.337l0.014-0.077l0.167-0.483l0.02-0.146
	l-0.015-0.087l-0.036-0.039l-0.048-0.035l-0.055-0.07l-0.023-0.071l-0.175-2.05l0.016-0.287l0.169-1.146l0.011-0.052l0.038-0.102
	l0.011-0.05l-0.006-0.035l-0.034-0.073l-0.003-0.033l0.034-0.073l0.102-0.14l0.03-0.074l0.002-0.077l-0.084-0.472l0.005-0.055
	l0.033-0.021l0.042,0.011l0.036,0.021l0.013,0.017l0.067-0.127l0.171-0.441l0.08-0.129l0.292-0.277l0.096-0.116l0.035-0.105
	l-0.021-0.11l-0.069-0.13l-0.113-0.142l-0.03-0.073v-0.106l0.019-0.101l0.026-0.054l0.044-0.018l0.077,0.004l0.063-0.022
	l0.066-0.063l0.202-0.277l0.015-0.111l-0.648-1.593l-0.645-1.584l-0.049-0.082l-0.042,0.047l-0.001-0.001l-0.037-0.035l-0.004-0.084
	l0.029-0.059l0.049-0.062l-0.015-0.086l-0.208-0.371l-0.03-0.101l-0.024-0.047h-0.032l-0.037,0.012l-0.038-0.013l-0.149-0.244
	l-0.035-0.121l-0.056-0.08l-0.155-0.017l-0.141,0.029l-0.139,0.056l-0.077,0.022l-0.05-0.014l-0.044-0.024l-0.06-0.008l0.031-0.109
	v-0.105l-0.061-0.307l0.012-0.06l0.082-0.186l0.043-0.256l0.036-0.138l0.146-0.179l0.036-0.145l-0.02-0.118l-0.095-0.011
	l-0.099,0.02l-0.09-0.026l-0.063-0.073l-0.018-0.117l0.036-0.105l0.064-0.071l0.052-0.076l0.003-0.113l-0.037-0.161l-0.05-0.088
	l-0.018-0.044l-0.022-0.201l-0.025-0.083l-0.096-0.068l-0.255-0.181l-0.235-0.104l-0.041-0.051l-0.031-0.093l-0.015-0.099
	l0.003-0.109l0.025-0.109l0.053-0.097l-0.021-0.007l-0.048-0.016l-0.03-0.048l-0.02-0.052l-0.038-0.036l-0.053-0.004l-0.027,0.018
	l-0.03,0.009l-0.057-0.034l-0.064-0.107l-0.01-0.133l0.042-0.241l0.131-0.313l0.02-0.075l-0.029-0.052l-0.178-0.169l-0.058-0.139
	l-0.014-0.291l-0.03-0.155l-0.058-0.091l-0.167-0.145l-0.054-0.107l-0.118-0.508l-0.116-0.243l-0.025-0.118l0.041-0.152l0.084-0.143
	l0.028-0.07l-0.002-0.087l-0.02-0.074l-0.026-0.022l-0.038-0.003l-0.06-0.011l-0.057,0.001l-0.045,0.022l-0.038,0.003l-0.027-0.062
	l-0.029-0.031l-0.047,0.009l-0.056,0.018l-0.052-0.001l-0.064-0.077l-0.029-0.123l-0.001-0.133l0.016-0.102l0.024-0.072l0.034-0.057
	l0.046-0.042l0.065-0.037l0.052-0.051l0.035-0.078l0.011-0.066l-0.026-0.016l-0.129,0.055l-0.089,0.024l-0.074-0.007l-0.226-0.096
	l-0.06-0.056l-0.042-0.108l-0.022-0.021l-0.088-0.045l-0.033-0.024l-0.027-0.05l-0.037-0.122l-0.027-0.052l-0.228-0.236
	l-0.049-0.103l0.002-0.064l0.038-0.174l0.01-0.109l0.01-0.029l0.006-0.031l-0.01-0.039l-0.021-0.018l-0.026-0.002l-0.024,0.005
	l-0.011,0.005l-0.012-0.023l-0.025-0.054l0.009-0.043l0.04-0.087l0.017-0.068l-0.013-0.142l0.053-0.199l-0.005-0.298l0.01-0.139
	l0.05-0.121l0.066-0.107l0.052-0.118l-0.002-0.146l-0.057-0.099l-0.082-0.077l-0.057-0.097l0.006-0.047l-0.016-0.031l0.452-0.194
	l0.017,0.06l0.114-0.052l0.487-0.228l1.013-0.471l1.249-0.584l1.158-0.543l1.123-0.524l0.794-0.373l0.051-0.064l0.012-0.117
	l0.081-0.072l0.651-0.272l0.07-0.003h0.057l0.188-0.004l0.134-0.034l0.65-0.29l0.614-0.274l0.022-0.107l0.138-0.09l0.716-0.261
	l0.045-0.011l0.046,0.012l0.056,0.061l0.029,0.007l0.053-0.026l-0.014,0.093l0.085-0.054l0.077-0.19l0.104-0.07l0.02-0.053
	l0.025-0.028h0.032l0.037,0.029l0,0l0.579-0.253l0.035-0.016l0.022,0.061l0.024-0.005l0.031-0.03l0.049-0.017l0.04,0.024
	l-0.011,0.057l-0.025,0.063l-0.005,0.047l0.31,0.146l0.072-0.101l0.018-0.152l0.002-0.156l0.021-0.116l0.064-0.063l0.101-0.061
	l0.198-0.084l0.018-0.014l0.013-0.019l0.012-0.02l0.009-0.02l0,0l0.03-0.088l0.114-0.131l0.046-0.081l0.011-0.071l-0.021-0.135
	l0.002-0.092l0.062-0.18l0.097-0.045l0.117,0.041l0.121,0.078l0.198-0.321l0.045-0.098l0.018-0.101l-0.024-0.047l-0.033-0.043
	l-0.01-0.097L1069.128,730.477z"/></svg>