<?xml version="1.0" encoding="utf-8"?>
<!-- Generator: Adobe Illustrator 15.0.0, SVG Export Plug-In . SVG Version: 6.00 Build 0)  -->
<!DOCTYPE svg PUBLIC "-//W3C//DTD SVG 1.1//EN" "http://www.w3.org/Graphics/SVG/1.1/DTD/svg11.dtd">
<svg version="1.1" id="Ebene_1" xmlns="http://www.w3.org/2000/svg" xmlns:xlink="http://www.w3.org/1999/xlink" x="0px" y="0px"
	 width="1920px" height="1080px" viewBox="0 0 1920 1080" enable-background="new 0 0 1920 1080" xml:space="preserve">

<path fill="#F4E0B6" stroke="#FFFFFF" d="M360.419,146.645l-0.012-0.001l0.116-0.038l0.077-0.052l-0.006,0.017l-0.063,0.049
	L360.419,146.645z M360.742,146.399l-0.013-0.005l0.071-0.049l0.033-0.033h0.006l-0.019,0.037L360.742,146.399z M365.318,141.263
	l-0.079-0.086l0.078,0.03l0.064,0.006l0.053-0.026l0.069-0.044l0.097-0.03l0.125-0.025l-0.077,0.063l-0.144,0.045l-0.073,0.069
	l-0.053,0.027L365.318,141.263z M367.976,135.658l-0.265,0.017l0.003-0.044l0.079-0.01l0.104,0.016L367.976,135.658z
	 M371.312,136.516l-0.03-0.008l0.039-0.063l0.163-0.135l0.058-0.033l-0.115,0.172l-0.004,0.018l-0.051,0.028L371.312,136.516z
	 M372.502,126.799l-0.007-0.002l0.018-0.006l0.014-0.005l0.028-0.021l0.013-0.006l-0.04,0.029L372.502,126.799z M377.825,119.95
	l-0.05-0.036l0.086,0.004l0.004,0.022L377.825,119.95z M379.315,125.988l-0.02-0.07l0.041-0.038l0.021-0.017l0.018-0.012
	l-0.012,0.076l-0.021,0.056L379.315,125.988z M381.636,117.582l-0.123,0.091l0.084-0.111l0.084-0.091l0.012,0.026L381.636,117.582z"
	/></svg>