<?xml version="1.0" encoding="utf-8"?>
<!-- Generator: Adobe Illustrator 15.0.0, SVG Export Plug-In . SVG Version: 6.00 Build 0)  -->
<!DOCTYPE svg PUBLIC "-//W3C//DTD SVG 1.1//EN" "http://www.w3.org/Graphics/SVG/1.1/DTD/svg11.dtd">
<svg version="1.1" id="Ebene_1" xmlns="http://www.w3.org/2000/svg" xmlns:xlink="http://www.w3.org/1999/xlink" x="0px" y="0px"
	 width="1920px" height="1080px" viewBox="0 0 1920 1080" enable-background="new 0 0 1920 1080" xml:space="preserve">

<path fill="#F4E0B6" stroke="#FFFFFF" d="M1161.754,573.81l-0.018,0.081l-0.177-0.133l-0.062-0.046l-0.172-0.086l0,0l0.037-0.094
	l0.004-0.085l0.052-0.22l-0.017-0.156l0.069-0.208l-0.018-0.151l0.063-0.4l-0.002-0.234l-0.006-0.022l0.149,0.013l0.109,0.031
	l0.048,0.081l-0.035,0.162l0,0l-0.024,0.064l-0.113,0.577l0.023,0.172l0.042,0.063l0.114,0.104l0.033,0.067l-0.025,0.192
	L1161.754,573.81z M1161.48,567.054l0.07-0.02l0.185-0.146l0.099-0.054l0.131-0.008l0.088,0.063l0.08,0.111l0.081,0.078l0.097-0.034
	l0.073-0.049l0.085-0.033l0.293-0.113l0.028,0.021l0.029,0.028l-0.019,0.014l-0.019-0.023l-0.022,0.016l0.019,0.024l0.041,0.022
	l0.076,0.108l0.065,0.033l0.017,0.051l0.049,0.07l0.062,0.059l0.055,0.023l-0.01,0.02l-0.004,0.019l0.001,0.02l0.009,0.022
	l0.041-0.029l0.082,0.196l0.028,0.066l0.044,0.034l0.02,0.026l-0.016,0.029l-0.002,0.026l0.014,0.019l0.033,0.012l0.011,0.123
	l0.029,0.043l0.063,0.021l-0.021,0.078l0.028,0.074l0.125,0.16l0.095,0.06l0.033,0.032l0.037,0.048l0.027,0.025l0.047,0.026
	l0.019,0.031l-0.001,0.025l-0.019,0.021l-0.012,0.025l0.014,0.035l0.283,0.23l-0.001,0.069l0.02,0.025l0.205,0.146h-0.002
	l-0.023,0.018l-0.112,0.132l-0.027,0.157l0.024,0.174l0.044,0.184l0.011,0.161l0.011,0.044l0.031,0.045l0.084,0.073l0.031,0.04
	l0.025,0.077l0.012,0.079l0.03,0.077l0.084,0.084l-0.022,0.02l-0.105,0.227l-0.136,0.517l-0.132,0.195l-0.389,0.271l-0.167,0.155
	l-0.06,0.082l-0.076,0.073l-0.091,0.045l-0.105-0.003l-0.123-0.096l-0.04-0.15l-0.027-0.329l-0.066-0.128l-0.07-0.101l-0.056-0.106
	l-0.02-0.129l-0.002-0.017l0.009-0.106l0.114-0.36l0.029-0.185l0.023-0.083l0.037-0.07l0.16-0.177l0.03,0.005l0.021-0.003
	l0.01-0.014l-0.002-0.029l-0.053-0.08l-0.047-0.057l-0.057-0.026l-0.074,0.006l-0.251,0.101l-0.215,0.039l-0.05,0.024l-0.012,0.03
	l-0.013,0.096l-0.018,0.04l-0.019,0.02l-0.048,0.034l-0.114,0.055l-0.072-0.039l-0.006-0.021l-0.017-0.061l0.063-0.089l0.05-0.105
	l-0.122-0.094l-0.161-0.097l-0.063-0.116l-0.007-0.013l-0.008-0.016l-0.01-0.013l-0.013-0.008h-0.003l-0.004-0.002l-0.002-0.001
	l-0.002-0.003l-0.051-0.083l-0.05-0.065l-0.282-0.309l-0.059-0.049l-0.128-0.075l-0.02-0.038l0.003-0.081l0.041-0.193l-0.01-0.061
	l-0.021-0.052l-0.032-0.035l-0.04-0.013l-0.048,0.016l-0.023-0.053l-0.071-0.119l-0.02-0.055l0.006-0.016l0.029-0.045l0.006-0.017
	l-0.03-0.088l-0.032-0.07l-0.098-0.21l-0.015-0.147l0.039-0.113l0.06-0.108l0.053-0.126l0.013-0.143l0.02-0.063l0.051-0.042h0.007
	l0.058-0.008L1161.48,567.054z"/></svg>