<?xml version="1.0" encoding="utf-8"?>
<!-- Generator: Adobe Illustrator 15.0.0, SVG Export Plug-In . SVG Version: 6.00 Build 0)  -->
<!DOCTYPE svg PUBLIC "-//W3C//DTD SVG 1.1//EN" "http://www.w3.org/Graphics/SVG/1.1/DTD/svg11.dtd">
<svg version="1.1" id="Ebene_1" xmlns="http://www.w3.org/2000/svg" xmlns:xlink="http://www.w3.org/1999/xlink" x="0px" y="0px"
	 width="1920px" height="1080px" viewBox="0 0 1920 1080" enable-background="new 0 0 1920 1080" xml:space="preserve">

<path fill="#F4E0B6" stroke="#FFFFFF" d="M1122.02,580.369l0.014,0.025l-0.086,0.041l-0.091,0.003l-0.172-0.018l-0.014-0.022
	l0.035-0.021l0.021-0.028l0.014-0.03l0.007-0.032l0.037-0.024l0.041-0.015l0.084-0.021l0.016,0.028v0.045l0.02,0.039l0.032,0.027
	L1122.02,580.369z M1129.471,572.98l0.068,0.063l0.014,0.023l-0.043,0.028l-0.065,0.059l-0.021,0.028l-0.024,0.049l-0.012,0.042
	l-0.017,0.033l-0.035,0.032l-0.021,0.028l-0.021,0.084l-0.027,0.034l-0.048,0.007l-0.053-0.016l-0.037-0.025l0.002-0.022l0.02-0.033
	l0.011-0.103l0.013-0.029l0.004-0.019l-0.012-0.064l0.004-0.018l0.027-0.01l0.045-0.003l0.016-0.007l0.084-0.111l0.042-0.033
	l0.067-0.07l0.026-0.02l0.019,0.021l-0.01,0.024L1129.471,572.98z M1119.793,578.111l0.099-0.023l0.038-0.042l0.183-0.079
	l0.075-0.046l0.026-0.028l0.018-0.03l0.005-0.036l-0.015-0.044l-0.003-0.039l0.027-0.026l0.081-0.041l-0.114-0.113l0.078-0.101
	l0.148-0.063l0.094,0.004l0.156,0.131l0.007,0.032l-0.008,0.02l0.004,0.064l-0.004,0.026l-0.021,0.029l-0.026,0.025l-0.063,0.039
	l-0.135,0.042l-0.071,0.035l-0.026,0.055l0.034,0.023l0.071,0.005l0.073-0.005l0.106-0.024l0.141,0.014l0.061-0.013l0.049-0.041
	l0.041-0.057l0.031-0.062l0.022-0.058l0.133,0.152l0.045,0.068l0.072,0.139l0.024,0.028l0.033,0.007l0.065-0.032h0.038l0.138-0.023
	l0.225-0.234l0.127-0.035l0.044-0.074l0.224-0.188l0.068-0.074l0.134-0.209l0.053-0.059l0.059-0.05l0.067-0.041l0.336-0.122
	l0.081-0.003l0.019-0.037l0.036-0.055l0.069-0.082l0.234-0.03l0.004-0.035l0.008-0.016v-0.016l-0.015-0.036l0.167-0.049l0.059,0.025
	l0.049-0.039l0.021-0.006l0.019,0.023l0.004,0.024l0.002,0.026l0.008,0.026l0.08,0.08l0.09,0.001l0.095-0.046l0.138-0.09
	l0.075-0.071l0.05-0.023l0.016,0.003l0.024,0.008l0.029,0.006l0.035-0.01l0.092-0.054l0.153-0.126l0.089-0.021l0.047-0.022
	l0.031-0.054l0.036,0.016l0.008-0.04l0.086,0.021l0.079,0.035l0.081,0.019l0.099-0.03l0.079-0.063l0.373-0.462l0.057-0.051
	l0.04-0.013l0.084-0.003l0.052-0.019l0.179-0.104l0.009,0.063l-0.011,0.063l-0.034,0.103l0.037,0.011l0.001,0.045l0.015,0.032
	l0.027,0.016h0.04l-0.043-0.064l-0.002-0.038l0.027-0.01l0.046,0.022l-0.001,0.035l0.007,0.013l0.026,0.006l-0.002,0.037
	l-0.023-0.004l-0.014,0.003l-0.007,0.018l-0.006,0.045l0.028,0.027l-0.002,0.057l0.011,0.07l0.061,0.066l-0.019,0.052l0.023,0.03
	l0.042,0.025l0.036,0.032l0.056,0.068l0.036-0.01l0.04-0.033l0.064-0.006l0.06,0.01l0.044-0.013l0.066-0.043l0.024-0.047
	l-0.009-0.137l0.021-0.045l0.024-0.017l0.015-0.016l0.018-0.038l-0.001-0.09l-0.003-0.011l0.03-0.031l0.097-0.065l0.1-0.091
	l0.016-0.021l0.059-0.119l0.013-0.043l0.014-0.028l0.024-0.023l0.022-0.01l0.017-0.012l0.003-0.032l0.021-0.013l0.064,0.012
	l0.135-0.038l-0.012,0.058l0.086-0.003l0.072-0.055l0.055-0.078l0.029-0.077l-0.021,0.001l-0.002-0.004l-0.014-0.011l0.036-0.128
	l0.011-0.116l0.032-0.098l0.097-0.076l-0.051-0.035l0.033-0.018l0.01-0.009l-0.014-0.009l-0.024-0.022l-0.015-0.008l0.083-0.051
	l0.014,0.086l-0.018,0.069l-0.027,0.07l-0.015,0.08l0.17,0.161l0.098,0.056l0.039-0.085l0.005,0.075l-0.015,0.09l0.004,0.077
	l0.06,0.036l0.018,0.081l0.013,0.086l0.003,0.078l-0.006,0.066l0.003,0.04l0.022,0.108l-0.006,0.029l-0.03,0.026l-0.021,0.033
	l-0.018,0.034l-0.129,0.184l-0.037,0.038l-0.084,0.05l-0.012-0.009l-0.074-0.023l-0.031-0.003l-0.081,0.032l-0.055,0.044
	l-0.057,0.032l-0.075-0.005l-0.042-0.007l-0.03,0.007l-0.02,0.022l-0.014,0.039l-0.02,0.021l-0.121,0.046l-0.116,0.103l-0.177,0.212
	l-0.651,0.343l-0.158,0.175l-0.03,0.058l-0.039,0.047l-0.3,0.128l-0.202,0.131l-0.051,0.05l-0.069,0.053l-0.02,0.03l-0.028,0.059
	l-0.134,0.17l-0.042,0.038l-0.184,0.085l-0.058,0.055l-0.013,0.023l-0.008,0.045l-0.016,0.021l-0.032,0.019l-0.024,0.002
	l-0.024-0.001l-0.026,0.009l-0.053,0.034l-0.039,0.038l-0.06,0.08l-0.062,0.008l-0.063,0.028l-0.74,0.461l-0.014-0.022l0.022-0.056
	l-0.014-0.049l-0.092-0.139l-0.021-0.048l-0.023-0.084l-0.034-0.051l-0.03-0.032l-0.048-0.04l-0.048-0.034l-0.035-0.006h-0.022
	l-0.024-0.008l-0.03-0.006l-0.037,0.01l-0.275,0.152l-0.083,0.027l-0.062-0.003l-0.02,0.011l-0.022,0.028l-0.053-0.013l-0.111-0.045
	l-0.06-0.007l-0.072,0.003l-0.068,0.02l-0.04,0.053l-0.239,0.012l-0.026-0.034l-0.015-0.023l-0.316,0.225l-0.25,0.098l-0.02-0.001
	l-0.026-0.011l-0.021-0.011l-0.007-0.007l-0.021,0.013l-0.01,0.021l-0.008,0.019l-0.012,0.013l-0.221,0.126l-0.067,0.006
	l-0.028,0.015l0.009,0.047l-0.015,0.003l-0.073,0.063l-0.071,0.007l-0.148-0.062l-0.062,0.005l-0.261,0.155l-0.14,0.053l-0.14-0.003
	l-0.014,0.034l-0.014,0.021l-0.018,0.01l-0.024,0.008l-0.028,0.074l-0.223,0.113l-0.064,0.091l-0.068-0.019l-0.177,0.109
	l-0.081,0.022l-0.027-0.013l-0.013-0.037l-0.024-0.016h-0.03l-0.045,0.02l-0.024,0.003l-0.039-0.013l-0.037-0.019l-0.037-0.014
	l-0.052,0.001l0.008-0.039l-0.014,0.004l-0.007,0.005l-0.006-0.005l-0.01-0.018l0.031-0.048l0.017-0.014l0.021-0.015l-0.002-0.013
	l-0.005-0.008v-0.006l0.016-0.009l-0.035-0.017l-0.031-0.021l-0.021-0.031l-0.007-0.052l-0.062-0.055l-0.015-0.104l0.002-0.111
	l-0.007-0.074l-0.02-0.02l-0.029-0.016l-0.022-0.008l-0.008,0.003l-0.011-0.027l-0.022-0.113l0.002-0.046l-0.015-0.031l-0.051-0.003
	l-0.014-0.023l0.005-0.026v-0.012l-0.009-0.007l-0.026-0.008l-0.006-0.122l-0.016-0.051l-0.036-0.035l0.003-0.139l-0.006-0.043
	l0.052,0.071l0.087,0.152l0.058,0.057l0.037,0.029l0.018,0.003l0.026-0.012l0.028-0.007l0.01,0.014l0.008,0.019l0.014,0.01
	l0.035-0.001l0.032-0.008l0.077-0.034l0.054-0.047l0.026-0.064l-0.007-0.081l-0.044-0.097l-0.058-0.063l-0.067-0.055l-0.041-0.052
	l0.012-0.057l-0.067-0.05l-0.039-0.05l-0.013-0.055l0.007-0.071l0.019-0.069l0.027-0.013l0.045,0.01l0.075-0.003l0.017,0.026
	l-0.013,0.059l0.028,0.048l0.101,0.101l0.051,0.1l0.021,0.028l0.129,0.083l0.075,0.007L1119.793,578.111z M1129.297,571.135
	l0.001,0.097l0.02,0.052l0.054,0.09l0.023,0.027l0.039,0.028l0.02,0.032l-0.001,0.038l-0.014,0.056l-0.008,0.065l0.02,0.067
	l0.008,0.041l-0.009,0.052l-0.001,0.063l0.025,0.072l0.034,0.058l0.021,0.02l0.115,0.014l0.153,0.089l0.033,0.01l0.022,0.001
	l0.004,0.034l-0.007,0.039l-0.007,0.018l0.014,0.025l-0.001,0.003l0.006-0.001l0.033,0.011l0.102,0.022l0.037,0.032l0.033,0.087
	l-0.089,0.028l-0.06,0.078l-0.017,0.105l0.043,0.104v-0.015l-0.001-0.014l0.007-0.013l0.022-0.01l0.002,0.039l-0.006,0.044
	l-0.015,0.042l-0.026,0.04l-0.015-0.072l-0.037-0.009l-0.046,0.021l-0.046,0.008l-0.048-0.017l-0.046-0.031l-0.018-0.037
	l0.033-0.042l-0.014-0.024l-0.02,0.013l-0.016-0.025l0.042-0.044l-0.021-0.04l-0.095-0.084l-0.03-0.053l-0.01-0.038l-0.014-0.029
	l-0.039-0.031l-0.036-0.005l-0.107-0.002l-0.042-0.02l-0.024-0.052l-0.009-0.063l0.004-0.057l0.008-0.028l0.046-0.085l-0.033-0.11
	l-0.044-0.102l0.023-0.14l-0.042-0.122l-0.067-0.113l-0.055-0.054l-0.016-0.024l0.026-0.054l0.02-0.013l0.018,0.028l0.021-0.013
	l0.004-0.032l0.011-0.084l0.012-0.038l0.02-0.017l0.023-0.003l0.027,0.007L1129.297,571.135z M1117.405,577.945l-0.021,0.011
	l-0.037-0.025l-0.121-0.036l-0.049-0.028l-0.045-0.033l-0.073-0.067l0.012-0.01l0.006,0.003l0.006,0.011l0.01,0.012l0.079,0.013
	l0.074-0.01l0.077,0.029L1117.405,577.945z M1129.524,568.907l-0.005,0.02l-0.024,0.013l-0.05,0.052l-0.047,0.017l-0.057,0.029
	l-0.047,0.051l-0.05,0.004l-0.037-0.049l0.008-0.05l0.017-0.021l0.04-0.033l0.05-0.035l0.155-0.086l0.019,0.015l0.021,0.036
	L1129.524,568.907z M1115.763,576.998l0.115,0.227l-0.013,0.015l-0.047,0.021l-0.064,0.016l-0.032,0.026l-0.016,0.056l-0.04-0.05
	l-0.045-0.006l-0.1,0.02l-0.011-0.01l-0.005-0.019l-0.007-0.017h-0.016l-0.041,0.027l-0.011,0.002l-0.029-0.015l-0.063-0.047
	l-0.03-0.011l-0.09-0.229l-0.051-0.085l-0.072-0.074l-0.04-0.034l-0.029-0.026l-0.015-0.044l0.004-0.214l0.021-0.052l0.049,0.003
	l0.245,0.159l0.082,0.034l0.277,0.032l0.089,0.033l0.064,0.048l-0.009,0.026l-0.045,0.026l-0.039,0.052l-0.003,0.052
	L1115.763,576.998z M1123.928,571.544l0.005,0.065l-0.03,0.01l-0.045-0.012l-0.043,0.003l-0.042,0.038l-0.026,0.038l-0.033,0.033
	l-0.087,0.029l-0.014,0.009l-0.01,0.003l-0.036-0.016l-0.029-0.02l-0.021-0.022l0.009-0.021l0.032-0.041l0.011-0.048l0.015-0.038
	l0.131-0.015l0.151,0.029L1123.928,571.544z M1130.901,566.969l-0.009,0.08l0.134,0.146l-0.039,0.072v0.03l0.062,0.14l0.002,0.055
	l-0.016,0.119l0.016,0.055l0.057,0.109l0.013,0.054l-0.015,0.034l-0.003,0.037l0.033,0.136l0.006,0.046l-0.01,0.002l-0.054,0.033
	l-0.018,0.016l0.002,0.02l0.012,0.029l0.003,0.032l-0.022,0.028l0.04,0.223l0.039,0.004l0.032-0.003l0.029-0.005l0.033-0.013
	l0.01,0.036l0.005,0.032l-0.004,0.035l-0.009,0.038l0.022,0.008l0.065,0.042l-0.187,0.046l-0.062,0.037l-0.055,0.07l-0.082,0.168
	l-0.018,0.079l0.003,0.272l-0.016,0.166l-0.046,0.168l-0.088,0.174l-0.176-0.008l-0.023,0.004l-0.023-0.021l-0.124-0.079
	l0.006-0.079l-0.072-0.311l-0.038-0.103l-0.061-0.078l-0.057-0.025l-0.061-0.006l-0.124-0.037l-0.017-0.016l0.001-0.041
	l-0.014-0.015l-0.042-0.005l-0.017,0.015l-0.017,0.011l-0.039-0.02l0.037-0.051l0.065-0.152l0.056-0.068l0.014-0.037l-0.032-0.021
	l0.013-0.038l-0.007-0.023l-0.014-0.024l-0.015-0.037l-0.009-0.06v-0.046l-0.009-0.075l0.006-0.024l0.071-0.078l0.005-0.022
	l0.003-0.046l0.035-0.166l-0.003-0.055l0.012-0.045l0.139-0.172l0.221-0.384l0.022-0.063l0.068-0.108l0.201-0.109l0.019-0.169
	l0.023-0.018l0.04,0.008l0.052,0.023L1130.901,566.969z M1122.794,572.138l0.017,0.091l-0.012,0.085l-0.041,0.055l-0.065,0.03
	l-0.165,0.04l-0.071,0.003l0.024-0.039l0.072-0.041l0.031-0.029l0.016-0.042l-0.004-0.074l0.011-0.035l-0.077-0.087l-0.035-0.027
	l-0.039-0.005l-0.014-0.022l-0.011-0.059l-0.06,0.002l-0.134,0.034l-0.016-0.024l0.009-0.015l0.009-0.02l0.01-0.013l0.127-0.029
	l0.148,0.016l0.139,0.049l0.095,0.078L1122.794,572.138z M1128.218,568.42l0.104,0.081l0.058-0.008l0.012,0.084l0.062,0.017
	l0.065-0.032l0.031-0.067l0.018,0.006l0.012,0.008l0.021,0.025l0.005,0.049l-0.01,0.054l-0.025,0.039l-0.043,0.01l-0.004,0.026
	l-0.038-0.001l-0.033,0.028l-0.064-0.018l-0.06-0.05l-0.018-0.064l-0.054,0.001l-0.027,0.031l-0.011,0.046v0.048l-0.02,0.013
	l-0.037-0.024l-0.055-0.004l-0.024-0.025l-0.044-0.075l-0.016-0.038l-0.008-0.039l0.063,0.042l0.035-0.042l0.022-0.073l0.029-0.05
	L1128.218,568.42z M1127.442,568.446l-0.04,0.022l-0.069,0.029l-0.045-0.005l-0.035-0.032l-0.011-0.095l0.053-0.108l0.056-0.037
	l0.046,0.018l0.078,0.052l0.019,0.084L1127.442,568.446z M1125.225,569.6l0.052,0.039l-0.008,0.029l-0.013,0.013l-0.022-0.006
	l-0.036-0.023l-0.021,0.067l-0.032,0.039l-0.089,0.047l-0.033,0.038l-0.011,0.051l0.007,0.11l0.026,0.051l0.033,0.043l-0.011,0.037
	l-0.068,0.049l-0.062,0.008l-0.116-0.065l-0.066-0.001l-0.008-0.03l-0.003-0.013l0.004-0.021l-0.054-0.028l-0.04-0.047l-0.005-0.041
	h0.056l0.028-0.052h0.07l0.079,0.019h0.052l0.02-0.031l-0.001-0.068l0.01-0.02l0.036-0.016l0.03-0.009l0.026-0.013l0.021-0.032
	l-0.054,0.003l-0.037-0.025l-0.007-0.039l-0.006-0.011l-0.038,0.007l-0.037-0.003l-0.037-0.01l-0.018-0.028l0.098-0.049h0.15
	L1125.225,569.6z M1129.225,567.03l0.011,0.064l0.021-0.028l0.012-0.007l0.045,0.025l0.052-0.143l0.015,0.01l0.005,0.001h0.004
	l0.014,0.004l-0.008,0.022l-0.001,0.021l0.001,0.02v0.015l0.012-0.026l0.012-0.003l0.013,0.022l0.015,0.044l0.028,0.042l0.025,0.027
	l0.029,0.021l-0.017,0.033l-0.009,0.015l0.02-0.002l0.018,0.005l0.018,0.008l0.018,0.017l-0.042,0.08l-0.027,0.031l-0.044,0.026
	l-0.016-0.022l0.013-0.02l0.01-0.044l0.01-0.026l-0.157,0.034h-0.056l0.026-0.063l-0.143,0.087v-0.046l0.009-0.059l0.002-0.057
	l-0.021-0.04l0.013-0.01l0.006-0.01l0.005-0.032l0.018,0.026l0.01-0.094l0.047-0.083l0.052-0.042l0.026,0.028l-0.066,0.077
	L1129.225,567.03z M1120.72,572.215l0.014,0.023l-0.08,0.039l-0.057,0.01l-0.13-0.035l-0.066-0.004l-0.061,0.007l-0.06-0.01
	l-0.067-0.052l0.062-0.039l0.021-0.01l0.329,0.016L1120.72,572.215z M1121.095,571.709l-0.059,0.152l-0.081,0.039l-0.021-0.294
	l0.029-0.033l0.029-0.087l0.022-0.031l0.12-0.065l-0.002,0.016l0.009,0.018l0.016,0.02L1121.095,571.709z M1110.771,577.15
	l0.043,0.081l-0.032-0.014l-0.017-0.004l-0.013-0.009l-0.022-0.03l-0.026,0.052l-0.043-0.119l-0.012-0.048l0.011-0.016h0.062
	l0.028,0.039L1110.771,577.15z M1118.845,572.535l0.086-0.017l0.08-0.131l0.053-0.052l0.068,0.032l0.015,0.047l0.126,0.198
	l-0.009,0.044l-0.042,0.062l-0.084,0.09l-0.357,0.216l-0.089,0.108l-0.043-0.046l-0.021-0.097l-0.04-0.039l0.008-0.019l0.001-0.029
	l0.005-0.025l-0.04-0.005l-0.018,0.001l0.012-0.046l-0.012-0.081l0.01-0.05l0.026,0.013l0.03,0.01l0.035,0.008l0.034,0.001
	l0.037-0.032l0.098,0.087l0.075-0.003l0.103-0.059l0.022-0.036l-0.033-0.037l-0.052-0.027l-0.041-0.012l-0.028,0.046l-0.042-0.007
	l-0.051-0.027l-0.049-0.018l-0.015-0.025l0.013-0.059l0.052,0.002L1118.845,572.535z M1119.48,572.187l-0.036,0.036l-0.067-0.013
	l-0.116-0.052l0.012-0.075l0.051-0.028l0.02-0.001l0.005,0.018l0.055-0.003l0.047,0.016l0.029,0.037L1119.48,572.187z
	 M1121.759,570.983l0.063,0.04l-0.033,0.029l-0.006,0.038l0.02,0.035l0.037,0.025l0.014,0.023l-0.012,0.134l-0.138,0.007
	l-0.309-0.08l0.003-0.013l0.002-0.004l0.002-0.006v-0.016l-0.024,0.019l-0.061,0.03l-0.004-0.043l-0.015-0.062l-0.019-0.052
	l-0.02-0.017l0.073-0.18l0.066,0.028l0.104,0.062l0.059,0.018l0.07-0.002l0.063-0.016H1121.759z M1110.433,576.956h0.016l0.02-0.012
	l0.014,0.024l-0.011,0.014l-0.007,0.021l-0.007,0.014l0.021,0.041v0.044l-0.006,0.051l0.004,0.056l-0.069-0.139l-0.019-0.064
	l0.004-0.056l0.021,0.002L1110.433,576.956z M1116.974,573.19l-0.01,0.016l-0.03-0.003l-0.018-0.026l0.024-0.014l0.02,0.014
	L1116.974,573.19z M1119.053,571.99l0.021-0.001l0.018-0.016l0.014-0.035l0.013,0.009l0.003,0.007l0.004,0.004l0.018-0.006
	l0.016,0.025l-0.009,0.041l0.004,0.198l-0.046,0.034l-0.06,0.013l-0.039-0.016l-0.033-0.039l-0.031-0.016l-0.023-0.021l-0.011-0.054
	l0.009-0.041l0.026-0.046l0.037-0.036l0.043-0.012L1119.053,571.99z M1121.723,570.519l-0.065,0.049l-0.057-0.017l-0.003-0.057
	l0.021-0.08l0.043-0.092l0.022-0.012l-0.006,0.039l0.018-0.007l0.012,0.006l0.053,0.096L1121.723,570.519z M1126.923,567.481
	l-0.065,0.301l-0.057,0.048l-0.083,0.036l-0.083,0.019l-0.055-0.007l-0.117,0.181l-0.02,0.077l0.078,0.059l-0.035,0.039l0.007,0.051
	l0.033,0.05l0.048,0.037l-0.059,0.021l-0.078-0.008l-0.072-0.025l-0.039-0.026l-0.07-0.135l-0.015-0.064l0.044-0.003l0.002-0.029
	l0.013-0.056l0.003-0.03l0.022,0.003l0.089-0.001l0.016-0.064l0.002-0.049l-0.006-0.102l0.048-0.151l0.003-0.036l0.188-0.378
	l0.273-0.229l0.036-0.042l0.067,0.039l0.17-0.052l0.085,0.042l-0.063,0.113l-0.269,0.288L1126.923,567.481z M1122.25,569.934
	l-0.057,0.037l-0.077,0.026l-0.07,0.035l-0.005-0.048l0.021-0.036l0.026-0.039l0.02-0.052l0.038-0.003l0.109,0.018L1122.25,569.934z
	 M1115.543,573.632l-0.006,0.016h-0.023l-0.022-0.021l-0.005-0.007l-0.01-0.001l-0.008-0.02l-0.026-0.024l0.021-0.005l0.024,0.018
	l0.022,0.01L1115.543,573.632z M1123.406,569.158l0.011,0.018l-0.002,0.008l-0.007,0.004l-0.008,0.01l-0.064,0.009l-0.047,0.043
	l-0.039,0.045l-0.033,0.011l-0.018,0.072l-0.072,0.168l-0.033,0.042l-0.02,0.055v0.19l-0.022,0.056l-0.193,0.226l-0.124,0.087
	l-0.104-0.064l0.057-0.001l-0.002-0.053l0.023-0.054l0.04-0.034l0.051,0.007l0.02-0.011l0.01-0.031l0.022-0.023l0.068-0.038
	l0.003-0.021l-0.012-0.112l-0.023,0.038l-0.029-0.01l-0.025-0.028l-0.004-0.021l0.03-0.024l0.241-0.379l-0.015-0.023l-0.022,0.001
	l-0.015-0.001h-0.017l-0.025,0.01l-0.016-0.025l0.067-0.072l0.024-0.044l0.006-0.045l0.022-0.013l0.069,0.028l0.076,0.017
	l0.077,0.002L1123.406,569.158z M1120.262,570.67l0.051,0.024l-0.048,0.016l-0.09-0.019l-0.092-0.044l-0.056-0.064l-0.002-0.069
	l0.026-0.078l0.042-0.063l0.046-0.024l0.06,0.229l0.006,0.077l0.029,0.007L1120.262,570.67z M1118.828,571.068l0.105,0.02
	l0.036-0.004l0.013-0.036l0.021-0.012l0.067,0.037l0.181,0.066l0.103,0.087l0.02,0.027l-0.001,0.02l-0.03,0.047l-0.001,0.021
	l-0.037,0.178l-0.085-0.047l-0.111-0.077l-0.088-0.085l-0.011-0.068l-0.016-0.025l-0.047-0.009l-0.071-0.043l-0.043,0.007
	l-0.01-0.02l-0.002-0.013l0.004-0.035l-0.015,0.004l-0.007,0.005l-0.005-0.005l-0.011-0.017L1118.828,571.068z M1125.758,567.021
	l0.059,0.033l0.052-0.002l0.047,0.007l0.039,0.056l0.005-0.046l0.017-0.029l0.026-0.016l0.036,0.001l0.035,0.038l0.019,0.08
	l0.039,0.035v0.033l0.003,0.013l0.006,0.02l0.022-0.013l-0.016-0.025l0.02-0.013l0.011,0.067l-0.05,0.029l-0.105,0.028l-0.003,0.031
	l0.014,0.036l0.011,0.035l-0.014,0.026l-0.033,0.012l-0.029,0.001l-0.022,0.01l-0.008,0.033l-0.042-0.021l-0.04-0.014h-0.036
	l-0.025,0.021l-0.003-0.063l0.003-0.025l0.013-0.025l-0.052-0.045l-0.015-0.053l0.002-0.057l-0.002-0.046l0.002-0.013v-0.025
	l-0.008-0.029l-0.021-0.022l-0.037-0.007l-0.022,0.02l-0.013,0.023l-0.009,0.012l-0.037-0.01l-0.025-0.012l-0.062-0.042
	l-0.036-0.011l-0.025,0.006l-0.021-0.012l-0.02-0.061l0.064,0.025l0.313-0.045l0.016,0.024L1125.758,567.021z M1122.174,568.748
	l0.049,0.023l0.021,0.004l0.002,0.038l-0.012,0.032l-0.028,0.02l-0.05-0.004l0.004,0.02v0.004l-0.002,0.003l-0.006,0.014
	l-0.121-0.069l0.051-0.027l0.029-0.036l0.052-0.083l0.008,0.031L1122.174,568.748z M1120.535,569.707l0.024,0.157l0.03,0.053
	l0.064-0.005l0.016,0.024l-0.042,0.024l0.017,0.027l0.042-0.023l0.013,0.023l-0.027,0.028l-0.003,0.035l0.005,0.039l0.001,0.049
	l-0.006,0.038l-0.017,0.058l-0.049,0.109l-0.04,0.04l-0.109,0.058l-0.035,0.003l-0.097-0.017l-0.038,0.006l-0.035-0.005
	l-0.025-0.042l-0.055-0.162l0.011-0.066l0.061-0.11l-0.029-0.001l-0.023,0.007l-0.018,0.016l0.006-0.089l0.045-0.12l0.062-0.108
	l0.07-0.081l-0.007,0.093l0.039,0.013l0.09-0.035l0.01-0.076l-0.017-0.01l-0.034-0.03l0.038-0.026l0.044-0.021l0.01,0.032
	l0.008,0.035l0.003,0.032L1120.535,569.707z M1124.954,566.732l0.022-0.006l0.008-0.01l0.016-0.003h0.016l0.021-0.004l0.03-0.009
	l0.022,0.016l0.004,0.052l0.014,0.038l0.038-0.006l0.041,0.001l0.044,0.035l0.022,0.022l0.03,0.009l0.053,0.029l0.024,0.04
	l-0.016,0.02l-0.013,0.009l0.007,0.016l-0.011,0.016l-0.023,0.018l-0.037,0.016h-0.051l-0.017-0.028l0.021-0.04l-0.005-0.031
	l-0.029,0.015l-0.024,0.047l-0.039,0.019l-0.042-0.023l-0.009-0.04l-0.01-0.036h-0.043l-0.042,0.007l-0.035-0.014l-0.053-0.006
	l-0.039-0.042l0.014-0.053l0.043-0.022l0.005-0.013l-0.018-0.024l0.021-0.018L1124.954,566.732z M1121.53,569.248l0.035,0.074
	l0.061,0.171l0.042,0.087l0.021,0.232l-0.007,0.022l-0.019,0.017l-0.031,0.042l-0.045,0.164l-0.025,0.032l-0.049,0.049l-0.021,0.042
	l-0.021-0.02l-0.015,0.003l-0.033-0.013l-0.029-0.019l-0.062-0.064l-0.026-0.022l-0.034-0.013l-0.112-0.003l0.002-0.027
	l-0.011-0.024l-0.021-0.018l-0.032-0.015l-0.032-0.021l-0.021-0.029l-0.01-0.025v-0.01l-0.099-0.066l-0.062-0.021l-0.053,0.002
	l-0.013-0.023l0.008-0.026l0.01-0.015l0.017-0.002l0.024,0.01l0.018-0.042l0.035-0.196l0.112-0.255l0.004-0.032l-0.002-0.106
	l0.016-0.021l0.056-0.04l0.006-0.019l0.013-0.031l0.063-0.003l0.107,0.015l0.074,0.048l0.058,0.057L1121.53,569.248z
	 M1117.978,570.768l0.052,0.003l0.021-0.012l0.003-0.027l0.012-0.015h0.022l0.025,0.006l0.049,0.042l0.046,0.064l0.041,0.073
	l0.032,0.071l-0.049-0.044l-0.021,0.013l0.026,0.048l0.009,0.039l-0.007,0.039l-0.018,0.038l-0.013-0.006l-0.005-0.004l-0.005-0.001
	l-0.013-0.005l-0.012-0.017l0.003-0.006l0.009-0.004l0.006-0.009l-0.034-0.001l-0.029,0.01l-0.022,0.02l-0.016,0.031l-0.027-0.034
	l-0.016-0.008l-0.009,0.011l-0.003,0.031l-0.035-0.003l-0.022,0.014l-0.01,0.025l-0.004,0.033l-0.035-0.037l0.002-0.015l0.014-0.037
	l-0.033-0.01l-0.012-0.018l0.005-0.026l0.014-0.035l-0.027-0.021v-0.016l0.021-0.026l-0.037-0.015l0.06-0.117L1117.978,570.768z
	 M1113.906,572.86l-0.021,0.033l-0.072,0.021l-0.055-0.015l-0.054-0.026l-0.067-0.016l0.009-0.036l0.016-0.029l0.021-0.025
	l0.028-0.018l0.025,0.005h0.067l0.034,0.009l0.026,0.021l0.03,0.037L1113.906,572.86z M1114.849,571.815l-0.067,0.052l-0.062,0.018
	l0.054,0.07l-0.016,0.058l-0.056,0.048l-0.066,0.039l-0.145,0.145l-0.066,0.04l-0.015-0.026l0.169-0.33l0.059-0.064l0.135-0.077
	l0.047-0.061l0.103-0.058l-0.021,0.074L1114.849,571.815z M1123.816,566.505l0.046-0.004l0.042,0.003l0.03,0.008l0.014,0.012
	l0.028,0.013l0.03,0.032l-0.012,0.018l-0.024-0.007h-0.028l-0.012,0.005l-0.014,0.002l-0.028,0.015l-0.013,0.036l0.004,0.033
	l0.007,0.02l-0.005,0.016l-0.017,0.013l0.03,0.017l0.059,0.022l0.083,0.122l-0.023,0.031l-0.045-0.003l-0.012-0.026l-0.019-0.013
	l-0.043,0.008l-0.031-0.024l-0.04-0.102l-0.004-0.029l-0.011-0.026l-0.028-0.029l-0.037-0.047l-0.019-0.049l0.024-0.019l0.036-0.015
	L1123.816,566.505z M1117.452,569.959l0.072,0.035l0.031,0.09l-0.05,0.011l-0.008,0.061l0.017,0.077l0.027,0.064l-0.018,0.065
	l-0.022,0.087l-0.047,0.077l-0.054,0.052l-0.049-0.148l-0.009-0.077l0.028-0.064l-0.013-0.023h-0.018l-0.021-0.006l-0.019,0.002
	l-0.013-0.024l0.002-0.055l-0.029-0.035l-0.041-0.002l-0.039,0.047l-0.035-0.111l0.021-0.105l0.04-0.097l0.017-0.085l0.023-0.013
	l0.03,0.053l0.009,0.034l0.01,0.064l-0.001,0.024L1117.452,569.959z M1119.9,568.146l0.176,0.103l0.01-0.018l-0.034-0.082
	l0.021-0.031l0.107-0.029l0.018,0.001l0.027,0.009l0.032,0.006l0.068-0.015l0.022,0.021l0.012,0.036l0.002,0.042l-0.033,0.045
	l-0.057,0.032l-0.037,0.045l0.024,0.077l-0.022,0.014l-0.039,0.016l-0.209,0.161l-0.011-0.033l-0.007-0.01l-0.008-0.006
	l-0.012-0.014l-0.01-0.033l0.01-0.017l0.015-0.008l0.005-0.007l-0.037-0.097l-0.029-0.024l-0.049,0.02l-0.017-0.068l0.02-0.046
	l0.029-0.041L1119.9,568.146z M1118.987,569.209l-0.012,0.03l-0.126,0.2l-0.025,0.055l-0.021-0.035l-0.014-0.029l-0.006-0.023
	l0.002-0.027l-0.016-0.027l-0.019,0.014l-0.063,0.034l-0.012-0.04l-0.004-0.034l0.004-0.032l0.014-0.032l-0.016,0.001l-0.039-0.001
	l0.048-0.045l0.005-0.07l-0.024-0.073l-0.031-0.053l-0.065-0.07l-0.021-0.03l0.028-0.019l0.08-0.032l0.045,0.016l0.058,0.037
	l0.054,0.044l0.031,0.038l0.008,0.03l-0.008,0.051l0.01,0.033l0.015,0.006h0.025l0.031,0.009l0.027,0.015l0.03,0.035
	L1118.987,569.209z M1114.379,571.267l-0.069,0.053l-0.082,0.031l-0.078-0.002l-0.014-0.023l0.073-0.07l0.018-0.043l-0.025-0.062
	l0.011-0.009l0.008,0.003l0.006,0.01l0.01,0.011l0.045,0.024l0.04,0.011l0.039-0.006l0.045-0.02l0.013,0.024L1114.379,571.267z
	 M1117.901,568.861l-0.063,0.048l-0.152,0.052l-0.052-0.003l0.05-0.039l0.034-0.051l0.01-0.052l0.022-0.045l0.049-0.033l0.037,0.01
	l0.021,0.047l0.008,0.027L1117.901,568.861z M1118.803,568.068l0.025,0.014l0.027-0.062l0.061-0.025l0.071,0.005l0.054,0.027
	l0.014-0.082l0.093-0.031l0.116-0.01l0.078-0.019l-0.005,0.038l0.03-0.006l0.029,0.015l0.031,0.026l0.029,0.032l-0.014,0.146
	l0.033,0.108l-0.023,0.036l-0.15,0.058l-0.113-0.005l-0.056,0.018l-0.039,0.001l-0.077-0.049l-0.044,0.006l-0.042,0.003
	l-0.165-0.058l-0.146,0.013l-0.046-0.006l-0.037-0.019l-0.045-0.033l-0.036-0.042l-0.009-0.038l0.032-0.033l0.172-0.083l0.017-0.003
	l0.038,0.002l0.017,0.027l-0.021,0.013l0.015,0.026l0.031-0.015l0.028-0.003L1118.803,568.068z M1116.613,569.145l0.147,0.068
	l0.047,0.129l-0.013,0.155l-0.034,0.146l-0.016,0.165l-0.03,0.082l-0.067,0.007l-0.03-0.052l-0.094-0.198l-0.022-0.029l-0.041-0.068
	l-0.015-0.105l0.016-0.085l0.051-0.017l0.007-0.037l0.001-0.039l-0.029,0.02l-0.01,0.003l-0.014-0.023l0.019-0.036l0.022-0.024
	l0.028-0.01l0.031,0.013l0.02-0.011l-0.011-0.025l0.007-0.009l0.015-0.004L1116.613,569.145z M1122.501,565.977l-0.122,0.392
	l-0.035,0.052l-0.234,0.186l-0.043,0.061l-0.017,0.042l-0.025,0.091l-0.02,0.041l-0.022,0.026l-0.021,0.012l-0.026,0.008l-0.04,0.02
	l-0.097,0.102l-0.05,0.014l-0.056-0.064l-0.006-0.063l0.038-0.155l-0.003-0.055l-0.013-0.065l0.011-0.09l0.024-0.082l0.025-0.053
	l0.07-0.046l0.183-0.078l0.052-0.057l0.072-0.014l0.07-0.08l0.053-0.092l0.027-0.136l0.079-0.086l0.136-0.098l0.009,0.131
	L1122.501,565.977z M1113.982,570.637l-0.021,0.035l-0.036-0.01l-0.022-0.004l-0.05,0.007l-0.016-0.026l0.023-0.041l-0.022-0.035
	l-0.045-0.018l-0.048,0.006l-0.049-0.003l-0.053-0.042l-0.037-0.048l-0.011-0.028l0.349-0.224l0.063-0.005l0.005,0.051l-0.009,0.067
	l0.027,0.042l-0.025,0.055l0.016,0.045l0.026,0.043l0.009,0.047l-0.016,0.03L1113.982,570.637z M1124.102,564.393l0.053,0.016
	l-0.016-0.048l-0.035-0.022l-0.05-0.016l-0.055-0.029l0.059-0.013l0.035-0.022l0.02-0.031l0.012-0.047l0.03,0.044l0.094-0.022
	l0.144-0.073l-0.06,0.09l-0.01,0.02l0.013,0.033l0.028,0.021l0.035,0.018l0.04,0.031l0.019-0.044l0.029,0.005l0.028,0.039
	l0.011,0.052l-0.086,0.021l-0.092,0.087l-0.202,0.27l-0.018,0.033l-0.014,0.049l-0.002,0.038l0.007,0.022v0.021l-0.02,0.032
	l-0.021,0.021l-0.189,0.107l-0.035,0.009l-0.026-0.017l-0.024-0.026l-0.028-0.021l-0.094-0.049l-0.045-0.008l-0.081,0.023
	l-0.055-0.017l-0.028,0.006l-0.023,0.02l-0.036,0.045l-0.07,0.059l-0.037,0.049l-0.018,0.055l0.011,0.055l-0.021,0.011l-0.018-0.026
	l-0.019,0.012l-0.011,0.053l-0.049-0.022l-0.056-0.052l-0.035-0.043l-0.056-0.089l-0.015-0.049l0.013-0.054l0.04-0.046l0.048-0.039
	l0.03-0.042l-0.012-0.059l0.008-0.042l0.287-0.282l0.102-0.063l0.115-0.042h0.055l0.116,0.017l0.12-0.033L1124.102,564.393z
	 M1105.324,574.44l0.098,0.005l0.085-0.074l0.151-0.014l0.156,0.029l0.09,0.059l0.105,0.079l0.282,0.026l0.091,0.103l-0.067-0.028
	l-0.11,0.002l-0.118,0.021l-0.087,0.035l-0.034,0.045l-0.011,0.049l-0.002,0.044l-0.013,0.026l-0.029,0.041l0.024,0.043l0.04,0.037
	l0.022,0.017l0.021,0.053l-0.001,0.031l-0.03,0.023l-0.063,0.034l-0.031-0.006l-0.154-0.068l-0.217-0.047l-0.112-0.039l-0.039-0.059
	l-0.097-0.025l-0.198-0.098l-0.094-0.01l-0.002-0.057l-0.048-0.058l0.004-0.033l-0.038-0.013l0.031-0.244l0.04-0.113l0.079-0.02
	l0.01,0.012l0.005,0.01l0.022,0.008l0.002,0.01l0.125,0.089l0.063,0.063L1105.324,574.44z M1117.53,567.476l0.098-0.013l0.234-0.134
	l0.049,0.018l0.032,0.084l0.024,0.151l0.182,0.032l-0.01,0.028l-0.005,0.01l-0.011,0.011l0.03,0.047l-0.001,0.043l-0.007,0.038
	l0.012,0.026l0.033,0.01l0.036-0.048l0.046,0.003l0.039,0.05l0.013,0.082l-0.004,0.09l-0.016,0.068l0.016,0.012l0.047,0.055
	l-0.019,0.011l-0.044-0.023l-0.099-0.015l-0.054-0.017l-0.146-0.127l-0.03-0.015l-0.049,0.021l-0.044,0.004l-0.046-0.011
	l-0.056-0.024l-0.103-0.065l-0.049-0.006l-0.031,0.059l-0.078-0.095l-0.095-0.038l-0.095-0.017l-0.079-0.031l-0.021,0.012v0.049
	l-0.018,0.025l-0.024-0.013l-0.013-0.064l-0.043-0.016l-0.08-0.043l-0.052-0.012l0.029-0.03l-0.009-0.02l-0.026-0.02l-0.027-0.03
	l-0.01-0.042l0.01-0.04l0.112-0.184l0.058-0.052h0.057l0.019,0.042l0.02,0.02h0.024l0.032-0.014l0.037-0.006l0.043,0.011l0.029,0.02
	l-0.005,0.02l0.01,0.02l0.069,0.07l0.023,0.02L1117.53,567.476z M1113.466,569.448l0.014,0.018l0.021,0.022l0.03,0.013l0.026,0.003
	l-0.003,0.007l0.013,0.019l0.082-0.045l-0.075,0.106l0.035,0.034l-0.033,0.092l0.021,0.063l-0.018,0.013l-0.049-0.013l-0.015,0.039
	l-0.01,0.058l-0.032,0.043l-0.046,0.021l-0.109,0.022h-0.051l-0.035-0.018l-0.012-0.023l-0.001-0.049l0.019-0.064l0.036-0.054
	l0.103-0.02l0.02-0.059v-0.071l-0.005-0.051l-0.035,0.022l-0.016,0.034l-0.01,0.034l-0.021,0.025l-0.03,0.009l-0.068,0.008
	l-0.033,0.019l0.077-0.109l-0.051,0.002l-0.063-0.01l0.033-0.022l0.033-0.016l0.035-0.007l0.037,0.004l-0.009-0.031l0.004-0.01
	l-0.001-0.002l-0.022-0.008l0.013-0.03l0.02-0.024l0.026-0.017l0.073-0.027l0.047-0.003l0.032,0.014L1113.466,569.448z
	 M1103.528,572.334l0.41,0.386l0.021,0.03l0.025,0.062l-0.001,0.04l-0.015,0.042l-0.014,0.06l0.043,0.021l0.142,0.102l0.047-0.002
	l0.025-0.058l0.016-0.071l0.02-0.043v0.017l0.006,0.031l0.003,0.018l0.062-0.017l0.04,0.031l0.034,0.049l0.05,0.04l0.188,0.051
	l0.087,0.086l0.188,0.095l0.053,0.048l0.042,0.058l0.023,0.069l0.004,0.082l-0.015,0.012l-0.088,0.022l-0.026,0.019l-0.022,0.036
	l-0.027,0.021l-0.055,0.008l-0.058-0.015l-0.117-0.05l-0.114-0.005l-0.135,0.026l-0.095,0.071l0.002,0.12l-0.08-0.015l-0.129,0.023
	l-0.069-0.032l-0.026-0.029l-0.043-0.068l-0.021-0.025l-0.095-0.063l-0.034-0.034l0.043-0.009l0.078,0.025l0.045-0.002l-0.016-0.029
	l-0.071-0.021l-0.061-0.042l-0.191-0.17l-0.065-0.039l-0.037,0.006l0.013,0.078l0.033,0.062l0.091,0.115l0.034,0.078l0.007,0.083
	l-0.024,0.047l-0.032,0.042l-0.016,0.063l-0.019,0.011l-0.052-0.058l-0.114-0.007l-0.057-0.059l-0.004-0.039l0.004-0.051
	l-0.001-0.049l-0.023-0.032l-0.028-0.026l-0.007-0.031l0.006-0.031l0.014-0.021l0.018-0.07l-0.016-0.12l-0.046-0.136l-0.058-0.123
	l0.045,0.046l0.018,0.022l0.02-0.012l0.002-0.098l0.038,0.016l0.061,0.06l0.067,0.037l0.008-0.045l0.023,0.017l0.031,0.036
	l0.037,0.007l0.024-0.027l0.024-0.084l0.05-0.076l-0.006-0.078l-0.038-0.078l-0.062-0.057l0.075-0.006l-0.104-0.108l-0.02-0.027
	l-0.02-0.055l-0.013-0.046l-0.017-0.038l-0.035-0.022l-0.013-0.023L1103.528,572.334z M1103.816,572.131l0.011,0.064l-0.001,0.049
	l0.049-0.031l0.042-0.003l0.039,0.01l0.044,0.005l0.022,0.089l0.012,0.079l0.001,0.151l0.031,0.003l0.034-0.006l0.037-0.015
	l0.034-0.023l-0.012-0.022l-0.057-0.008l0.062-0.033l-0.034-0.015l0.042-0.009l0.043,0.002l0.083,0.02l-0.016,0.007l-0.046,0.025
	l0.073,0.095l0.039,0.028l0.051-0.006l0.015,0.028l-0.077,0.055l-0.043,0.043l-0.046,0.012l-0.092-0.044l0.008-0.038l-0.07-0.024
	l-0.07-0.038l-0.128-0.103l-0.021-0.025l-0.055-0.084l-0.029-0.036l-0.034-0.011l-0.047-0.006l-0.038-0.022l-0.014-0.063
	l0.065,0.008l0.016-0.035l-0.016-0.106l0.062-0.01L1103.816,572.131z M1104.396,571.517l-0.042,0.021l-0.016-0.028l0.022-0.241
	l0.024-0.018l-0.016,0.13l0.003,0.078L1104.396,571.517z M1119.652,562.87l0.213,0.078l-0.003-0.021l-0.006-0.02l0.001-0.019
	l0.017-0.017l-0.008-0.017l-0.007-0.003l-0.009,0.003l-0.01,0.003l0.035-0.041l0.044-0.012l0.051,0.013l0.055,0.034l-0.009,0.067
	l0.039,0.077l0.024,0.075l-0.053,0.059l0.043,0.02l0.018,0.003l0.029-0.007l-0.004,0.034l0.053-0.03l0.016,0.024l-0.004,0.072
	l0.025,0.063l0.027,0.046l0.197,0.265l0.131,0.129l-0.071,0.058l-0.033,0.098l0.016,0.104l0.083,0.074l0.033,0.056l-0.048,0.078
	l-0.114,0.132v0.052l0.032,0.096l-0.002,0.04l-0.022,0.027l-0.076,0.01l-0.048,0.015l-0.043-0.004l-0.116-0.046h-0.016l-0.01,0.013
	l-0.045-0.013l-0.055-0.028l-0.039-0.038l-0.01,0.016l-0.027,0.029l-0.01,0.016l-0.015-0.026l-0.033-0.049l-0.013-0.027l-0.029,0.06
	l-0.035-0.009l-0.027-0.056l-0.008-0.073l0.014-0.042l0.029-0.038l0.046-0.043l0.01-0.021l0.01-0.06l0.075-0.037l0.014-0.015
	l-0.006-0.055l-0.026-0.048l-0.011-0.046l0.035-0.054l-0.04-0.032l-0.049-0.097l-0.039-0.041l0.004,0.019l0.001,0.004l-0.003,0.003
	l-0.009,0.015l-0.03-0.021l-0.029-0.011l-0.032-0.003l-0.033,0.006l-0.003-0.044l-0.032-0.049l-0.047-0.046l-0.043-0.03
	l-0.058-0.015l-0.039,0.007l-0.044,0.016l-0.063,0.01l-0.063-0.012l-0.165-0.063l-0.055-0.035l-0.04-0.055l-0.008-0.052
	l-0.003-0.052l-0.021-0.061l0.376-0.343l0.065-0.027l0.166-0.037L1119.652,562.87z M1118.192,563.586l0.036,0.019l0.123,0.029
	l0.013,0.017l-0.003,0.009l-0.007,0.004l-0.009,0.01l0.055,0.146l0.007,0.026l-0.046,0.018l-0.036,0.005l-0.029,0.013l-0.019,0.042
	l-0.029-0.029l-0.01-0.029l-0.005-0.023l-0.018-0.022l-0.021-0.012l-0.054-0.014l-0.03-0.017l-0.053-0.01l-0.027-0.013l-0.006-0.031
	l0.015-0.021l0.022-0.003l0.023,0.007l0.014,0.007l0.002-0.036l0.012-0.031l0.021-0.017l0.032,0.011l0.019-0.011l-0.018-0.028
	L1118.192,563.586z M1104.235,571.425l-0.021,0.021l-0.028-0.032l-0.015-0.048l0.004-0.127l0.019-0.077l0.042-0.049l0.063-0.055
	l0.026,0.003l0.024,0.039l-0.011,0.062l-0.021,0.051l-0.031,0.049l-0.02,0.023l-0.017,0.028l-0.015,0.053L1104.235,571.425z
	 M1103.788,571.232l0.018,0.003l0.013-0.014l0.009,0.001l0.004,0.014l0.007-0.001l0.011-0.009l0.009,0.015l0.001,0.025l-0.005,0.03
	l-0.012,0.036l-0.067,0.062l0.015,0.051l0.059,0.014l0.039,0.012l0.01,0.009l0.031,0.002l0.048,0.024l-0.048,0.004l-0.16-0.048
	l-0.097-0.077l0.005-0.057l0.043-0.035l0.045-0.067L1103.788,571.232z M1103.493,571.328l0.026-0.003v-0.036l-0.009-0.051
	l0.005-0.042l0.034,0.055l0.1,0.213l0.009,0.052l-0.017,0.016l-0.049-0.038l-0.021,0.011l0.016,0.015l0.046,0.053l-0.016-0.003
	h-0.041l0.013,0.029l0.003,0.021v0.015l0.008,0.024l-0.065,0.001l-0.043,0.032l-0.008,0.045l0.041,0.029l0.012,0.025l-0.033,0.013
	l-0.026-0.004l-0.018-0.022l-0.007-0.044l-0.065,0.021l-0.073-0.06l-0.033,0.061l-0.008,0.052l-0.005,0.073l0.005,0.116l-0.02,0.01
	l-0.049-0.099l-0.142-0.4l-0.01-0.156l-0.027-0.086l-0.022-0.171l0.02-0.03l0.005-0.051l-0.002-0.101l0.013-0.064l0.03-0.079
	l0.05-0.069l0.014,0.01l0.015,0.018l0.045-0.001l0.076,0.03l0.044,0.054l0.031,0.053l0.042,0.034l0.008,0.055l0.021,0.036
	l0.025,0.026l0.021,0.027l0.019,0.032l0.009,0.022l0.001,0.027l-0.019,0.141l0.003,0.039L1103.493,571.328z M1114.619,564.278
	l0.035,0.029l0.025,0.008l0.064-0.004l0.171,0.016l0.093,0.022l0.076,0.042l0.013,0.007l0.012,0.006l0.015,0.011l0.02,0.028
	l0.016,0.033l-0.008,0.009l-0.014,0.004l-0.011,0.019l-0.004,0.035l-0.007,0.033l-0.019,0.016l-0.039-0.014l-0.021,0.011
	l-0.015,0.041l-0.043,0.005l-0.048-0.021l-0.033-0.031l-0.015,0.015l-0.029,0.037l-0.015,0.055l0.024,0.064l-0.174-0.069
	l0.094-0.121l-0.093-0.093l-0.035-0.015l-0.014,0.052l-0.017,0.01l-0.035-0.038l-0.032,0.003l-0.029,0.026l-0.023,0.039l-0.022-0.04
	l-0.083,0.008l-0.048-0.049l-0.006,0.013l0.001,0.024l-0.042-0.021l-0.035-0.003l-0.025,0.019l-0.014,0.039l-0.026-0.036
	l-0.007-0.042l0.007-0.035l0.019-0.022l0.013-0.034l-0.023-0.042l-0.054-0.06l-0.031-0.057l-0.018-0.055l0.011-0.052l0.05-0.049
	l0.282,0.024l0.065,0.021l0.025,0.032l0.043,0.099L1114.619,564.278z M1111.255,566.107l0.05,0.035l0.024,0.04l0.074,0.052
	l0.092,0.038l0.163-0.016l0.189,0.041l0.088-0.025l0.016,0.028l0.008,0.033l0.017,0.01l0.017-0.011l0.012-0.032l0.059,0.018
	l0.094-0.03h0.054l0.02-0.036l0.043,0.002l0.035-0.069l0.066-0.021l0.073,0.021l0.059,0.059l0.051,0.03l0.083,0.009l0.147-0.01
	l0.155-0.03l0.149-0.07l0.072-0.02l0.073-0.012l0.055-0.033l0.018-0.09l0.081-0.006l0.068-0.037l0.063-0.047l0.064-0.033
	l0.224-0.039l0.076,0.004l-0.024,0.026l-0.018,0.041l-0.007,0.048l0.01,0.047l0.033,0.063l0.036,0.026l0.392,0.074l0.082,0.039
	l-0.04,0.102l0.016,0.153l0.063,0.138l0.104,0.046l0.012,0.024l-0.045,0.05l0.028,0.027l0.112,0.042l0.031,0.043l0.035,0.058
	l0.034,0.05l0.119,0.048l0.027,0.034l0.026,0.011l0.021,0.004l0.013,0.006l0.036,0.067l0.021,0.033l0.029,0.018l-0.002,0.065
	l0.004,0.024l0.049,0.036l0.063,0.022l0.114,0.016l0.134-0.005l0.022,0.017l0.029,0.029l0.029,0.023l0.028,0.002l0.09-0.077
	l0.044-0.022l0.118,0.016l0.126-0.055l0.062-0.01l0.041-0.06l0.24-0.203l0.083,0.204l0.057,0.093l0.091,0.059l0.006,0.065
	l0.063,0.184l0.01,0.079l-0.023,0.062l-0.039,0.067l-0.054,0.064l-0.058,0.044l-0.038,0.01l-0.024-0.015l-0.032-0.042l-0.134-0.074
	l-0.015,0.002l-0.062-0.014l-0.06,0.081l-0.017,0.086l0.065,0.007l0.016,0.026l-0.023,0.066l-0.049,0.02l-0.062-0.009l-0.09-0.03
	l-0.028-0.016l-0.046-0.034l-0.036-0.02l-0.032-0.011l-0.013-0.022l0.022-0.051l-0.084-0.063l-0.043-0.012l-0.035,0.029
	l-0.053-0.052l-0.07-0.005l-0.064,0.027l-0.037,0.055l-0.055-0.001l-0.013,0.013l-0.015,0.035l-0.01-0.018l-0.002-0.008l0.005-0.007
	l0.011-0.008l-0.057-0.101l-0.036-0.008l-0.044,0.039l-0.025-0.024l-0.002-0.033l0.023-0.089l-0.006-0.043l-0.032-0.043
	l-0.073-0.027l-0.081-0.082l-0.056-0.012l-0.053,0.015l-0.037,0.033l0.048,0.042l-0.076,0.022l-0.026-0.078l0.009-0.108l0.019-0.067
	l-0.058-0.034l-0.022,0.015l-0.007,0.039l-0.016,0.04l0.001,0.014l0.011,0.016l0.006,0.02l-0.02,0.02l-0.03,0.007l-0.012-0.016
	v-0.023l0.003-0.015l-0.016-0.027l-0.042,0.023l-0.011-0.164l-0.081-0.001l-0.078,0.011l-0.081,0.027l-0.091,0.045l0.06-0.064
	l0.02-0.035v-0.048l-0.042-0.022l-0.024-0.029l-0.012-0.026l-0.001-0.01l-0.066-0.047L1114.09,567l0.003,0.027l-0.18,0.084
	l-0.188,0.141l-0.063,0.026l-0.123,0.02l-0.046,0.017l-0.055,0.038l-0.079,0.073l-0.045,0.023l-0.233,0.062l-0.041,0.031
	l-0.08,0.078l-0.046,0.019l-0.052-0.02l-0.168-0.134l-0.002,0.021l-0.005,0.018l-0.012,0.013l-0.026,0.012l-0.002-0.074l0.021-0.094
	l0.004-0.083l-0.053-0.039l-0.017-0.029l0.022-0.013l-0.014-0.024l-0.125-0.075l-0.07-0.026l-0.062,0.005l-0.139,0.051l-0.078,0.013
	l-0.058-0.011l-0.027-0.024l-0.04-0.065l-0.027-0.027l-0.101-0.017l-0.019-0.007l-0.017-0.007l-0.023,0.007l-0.031-0.004
	l-0.032-0.039l-0.027-0.021l-0.042-0.01l-0.121-0.007l-0.092,0.007l-0.136-0.046l-0.036,0.004l-0.026-0.007l-0.069-0.058
	l-0.024-0.009l-0.088,0.002l-0.411-0.061h-0.133l-0.087,0.017l-0.04,0.019l-0.047,0.031l-0.08,0.068l-0.044,0.02l-0.057-0.009
	l-0.101-0.044l-0.028,0.001l-0.042,0.021l-0.054,0.016l-0.057,0.005l-0.048,0.012l-0.031,0.034l0.016,0.028l0.042-0.021l0.05-0.006
	l0.042,0.021l0.025,0.056l-0.015,0.035l-0.04,0.042l-0.31,0.209l-0.046,0.077l-0.025-0.042l-0.021-0.047l-0.008-0.04l0.011-0.024
	l0.018-0.024l0.041-0.09l0.022-0.028l0.059-0.053l0.095-0.147l0.075-0.073l0.062-0.092l0.057-0.066l0.005-0.017l-0.017-0.059
	l-0.001-0.019l0.028-0.029l0.06-0.036l0.018-0.029l0.002-0.044l-0.009-0.042l-0.018-0.033l-0.023-0.021l0.035-0.037l0.024-0.086
	l0.025-0.028l0.183-0.101l0.049-0.056l0.104-0.179l0.07-0.056h0.038l0.072,0.026l0.022,0.002l0.041-0.017l0.053-0.01l0.055,0.002
	l0.048,0.018l0.02,0.084l0.062,0.04l0.08,0.005l0.069-0.021l0.022,0.038L1111.255,566.107z M1110.869,564.924l0.019,0.087
	l-0.068-0.01l-0.018,0.064l0.012,0.123l-0.025,0.006l-0.043-0.02l-0.033-0.002l-0.037,0.009l-0.035,0.013l-0.028,0.02l-0.02,0.026
	l-0.027-0.073l0.021-0.044l0.034-0.03l0.01-0.022l-0.011-0.049l0.008-0.062l0.02-0.061l0.024-0.04l0.064,0.003l0.074,0.017
	L1110.869,564.924z M1111.068,564.663h0.011l0.011-0.01l0.017-0.006l0.112,0.037l0.119,0.023l0.123,0.003l0.118-0.02l0.021,0.062
	l0.062-0.022l0.078-0.046l0.068-0.015l0.015,0.025l-0.037,0.157l-0.034,0.071l-0.065,0.05l-0.034,0.008l-0.063-0.012l-0.087,0.029
	l-0.033-0.005l-0.013-0.025l0.018-0.047l-0.015-0.026h-0.041l-0.144-0.04l-0.037-0.021l-0.04-0.046l-0.171-0.097l0.028-0.047
	L1111.068,564.663z M1100.914,570.1l0.082,0.071l-0.063,0.029l-0.044,0.01l-0.042-0.01l-0.102-0.048l-0.06-0.037l-0.034-0.045
	l0.034-0.047l0.072,0.028l0.076,0.017L1100.914,570.1z M1112.032,564.359l-0.054,0.119l-0.097,0.043l0.01-0.078l0.022-0.055
	l0.012-0.062l-0.032-0.17l0.015-0.319l0.03-0.065l0.004,0.017l0.006,0.014l0.005,0.016l-0.003,0.02l0.07-0.023l0.029,0.088
	l-0.003,0.112l-0.021,0.051l0.021,0.143L1112.032,564.359z M1112.131,563.345l0.019,0.028l0.005-0.02l0.014-0.023l0.035-0.005
	l0.02,0.007l0.03,0.061l0.02,0.115l-0.039,0.062l-0.045-0.016l-0.012-0.029l0.009-0.016l-0.02-0.011h-0.039l-0.027-0.021
	l-0.015-0.046l-0.005-0.051l0.002-0.048l0.021-0.021L1112.131,563.345z M1119.014,559.51l-0.007,0.199l0.02,0.017l0.193,0.046
	l0.122-0.018l0.035,0.005l0.021,0.008l0.188,0.091l0.059,0.011h0.085l-0.022,0.048l0.03,0.025l0.037,0.017l0.045,0.012l0.025,0.036
	l0.021,0.018l0.023-0.001l0.028-0.023l0.041,0.078l0.089,0.061l0.096,0.036l0.058,0.004l0.021,0.035l0.032,0.067l-0.013,0.064
	l-0.108,0.014l-0.03,0.054l-0.044,0.006l-0.051-0.019l-0.047-0.012l0.008-0.036l-0.037-0.003l-0.016-0.017l-0.007-0.022
	l-0.008-0.021l-0.004-0.015l-0.008-0.05l-0.013-0.025l-0.051-0.009l-0.014-0.008l-0.053-0.044l-0.059,0.013l-0.094,0.068
	l-0.034,0.061l0.084,0.036l0.165,0.02l0.201,0.093l0.079,0.013l0.018,0.029l0.003,0.02l-0.003,0.002l0.005,0.002l0.025,0.027
	l-0.056,0.078l-0.078,0.08l-0.177,0.133l-0.055,0.021l-0.113,0.02l-0.112,0.047l-0.052,0.006l-0.102-0.008l-0.092,0.007
	l-0.194,0.065l-0.153,0.081l-0.036,0.009l-0.042-0.012l-0.166-0.075l-0.05-0.011l-0.054,0.02l-0.014-0.024l0.013-0.017l0.011-0.036
	l0.018-0.019l0.014-0.006l0.014-0.001l0.015-0.009l0.095-0.091l0.007-0.019l0.001-0.104l0.017-0.042l0.028-0.025l0.032-0.021
	l0.028-0.029l0.032-0.121l0.048-0.119l-0.003-0.013l0.02-0.034l-0.03-0.03l-0.052-0.019l-0.039,0.002l-0.106,0.031l-0.037,0.019
	l-0.058,0.044l-0.04,0.043l-0.026,0.051l-0.011,0.067l0.018,0.128l-0.009,0.005l-0.019,0.266l-0.02,0.064l-0.045,0.048l-0.066,0.028
	l-0.3,0.053h-0.057l-0.062-0.008l-0.036,0.001l-0.041,0.017l-0.065,0.009l-0.162-0.043l-0.074,0.005l-0.016-0.028l0.025-0.031
	l-0.008-0.041l-0.021-0.046l-0.012-0.045l-0.015,0.003h-0.011l-0.012-0.005l-0.016-0.001l0.012-0.029l0.003-0.022l-0.01-0.024
	l-0.021-0.037l-0.005-0.032l0.015-0.029l0.021-0.027l0.014-0.022l0.033-0.124l0.003-0.04l0.02-0.011l0.082,0.056l0.089-0.064
	l0.092-0.092l0.086-0.032v-0.028l0.001-0.022v-0.022l-0.007-0.027l0.036,0.023l0.015,0.016l0.02-0.012l0.005-0.072l0.045-0.063
	l0.109-0.095l0.061-0.073l0.002-0.061l-0.044-0.064l-0.079-0.084l0.509-0.323l0.064-0.019l0.029,0.097l0.075,0.003l0.09-0.023
	l0.075,0.01L1119.014,559.51z M1114.578,561.379l-0.021,0.012l-0.137-0.161l-0.041-0.092l0.033-0.083l-0.026-0.025l-0.002-0.018
	l0.017-0.016l0.024-0.019l0.143,0.013l0.033,0.104L1114.578,561.379z M1098.953,568.205l0.034,0.027l0.021-0.01l-0.015-0.029
	l0.021-0.01l0.057,0.124l-0.002,0.089l-0.041,0.072l-0.145,0.171l-0.018,0.039l0.007,0.055l0.034,0.045l0.046,0.025l0.04-0.001
	l0.015,0.027l-0.041,0.021l0.012,0.023l0.225,0.003l0.078-0.021l0.031,0.092l-0.01,0.027l-0.062,0.005l0.077,0.063l0.271,0.377
	l0.022,0.017l0.048,0.005l0.048-0.005l0.093-0.023l0.049-0.004l0.089,0.018l0.031-0.005l0.051-0.031l0.036-0.039l0.019-0.031
	l0.026-0.006l0.058,0.038l0.036,0.034l0.087,0.104l0.065,0.039l0.014,0.026l-0.022,0.044l-0.04-0.009l-0.085,0.016l-0.097-0.017
	l-0.061,0.004l-0.059,0.014l-0.05,0.019h-0.035l-0.112-0.031l-0.039-0.004l-0.056,0.02l-0.041,0.021l-0.042,0.008l-0.021-0.011
	l0.023-0.007l0.014-0.027l-0.002-0.045l-0.123,0.019l-0.047,0.002l0.003,0.01l0.006,0.015l0.003,0.006l-0.07-0.04l-0.073-0.063
	l-0.063-0.069l-0.104-0.154l-0.076-0.062l-0.091-0.037l-0.106-0.021l-0.087,0.001l-0.052-0.008l-0.173-0.141l-0.021-0.022
	l-0.053,0.028l-0.038,0.013l-0.035-0.011l-0.05-0.043l-0.037-0.094l-0.031-0.021l-0.037,0.064l-0.029-0.062l-0.033-0.039
	l-0.038-0.013l-0.045,0.023l0.014-0.048l0.021-0.148l-0.002-0.043l0.024-0.02l0.273-0.151l0.078-0.063l0.062-0.072l0.055-0.093
	l0.048-0.007l0.039,0.008l0.037,0.015l0.041,0.006l0.091-0.013L1098.953,568.205z M1114.647,558.535l0.015,0.022l0.013-0.01
	l0.007,0.005l0.006,0.012l0.029,0.028l0.025,0.034l0.02,0.015l-0.046,0.078l-0.039,0.096l-0.005,0.101l0.065,0.088l-0.04,0.021
	l-0.026,0.027l-0.015,0.034l-0.009,0.035l0.054,0.001l0.021-0.008l-0.029,0.05l-0.015,0.054l0.018,0.037l0.063,0.008l-0.013,0.063
	l0.041,0.032l0.058,0.017l0.042,0.021l0.021,0.025l-0.003,0.005l-0.012,0.009l-0.013,0.036l0.011,0.03l0.02,0.039l0.001,0.026
	l-0.043-0.004l-0.023,0.001l-0.099,0.021l-0.034-0.003l-0.024-0.032l-0.021-0.035l-0.02-0.012l-0.06,0.01l-0.094-0.047l-0.056,0.021
	l0.039-0.085l0.016-0.057l-0.005-0.045l-0.045-0.046l-0.053-0.019l-0.051,0.003l-0.035,0.017l-0.063,0.171l0.027-0.017l0.024-0.008
	l0.022-0.002l0.024,0.007l-0.047,0.04l-0.018,0.057l0.003,0.067l0.011,0.069l0.018-0.025l0.004-0.008l0.003-0.017l0.057,0.022
	l0.071,0.041l0.052,0.045l-0.005,0.035l-0.065,0.033l-0.057,0.02l-0.114,0.016l0.004-0.143l0.005-0.02l-0.037-0.033l-0.024,0.031
	l-0.013,0.056l-0.001,0.042l-0.02,0.013l-0.02-0.027l-0.014-0.015l-0.013-0.008l-0.02-0.016l-0.137,0.149l-0.018,0.044l-0.017,0.01
	l-0.005-0.029l-0.001-0.026l0.006-0.025l0.014-0.031l-0.021,0.003l-0.029-0.003l-0.025,0.006l-0.016-0.035l-0.013-0.014l0.009-0.025
	l0.014-0.022l-0.017-0.028l-0.02,0.013l-0.014-0.023l0.011-0.013l0.005-0.012l0.01-0.027l-0.021,0.013l-0.008-0.069l-0.031-0.026
	l-0.044-0.013l-0.044-0.026l-0.034-0.052l-0.024-0.054l-0.027-0.032l-0.043,0.006l-0.016-0.026l0.099-0.064l0.157-0.151l0.034-0.01
	l0.028,0.007l0.022,0.012l0.014,0.002l0.042-0.032l0.128-0.134l0.077-0.013l0.065,0.02l0.063,0.036l0.076,0.034l0.012,0.032
	l0.049-0.063l0.051-0.092l0.02-0.059l-0.019-0.032l0.008-0.126l0.02-0.053l0.013-0.004l0.075-0.049l0.021-0.021l0.056-0.092
	l-0.003,0.053L1114.647,558.535z M1114.296,556.385l0.077,0.02l0.055,0.038l0.011,0.062l0.046,0.049l-0.015,0.058l-0.213,0.251
	l-0.066,0.03l-0.132,0.002l-0.279-0.044l-0.07-0.025l-0.053-0.034l0.053-0.03l0.11-0.197l0.058-0.072l0.085-0.047l0.272-0.064
	L1114.296,556.385z M1111.459,557.362l0.012,0.034l-0.019,0.014l-0.068-0.003v0.021l-0.008,0.04l-0.039,0.049l-0.085,0.072
	l-0.026,0.033l-0.031,0.106l-0.029,0.051l-0.032-0.027l-0.037-0.015l-0.069-0.02l-0.01,0.004l-0.021,0.02h-0.01l-0.008-0.009
	l-0.015-0.034l-0.008-0.008l-0.061-0.016h-0.025l-0.092,0.024l-0.063,0.033l-0.058-0.007l-0.074-0.098l-0.038-0.108l-0.011-0.123
	l0.014-0.196l0.111-0.307l0.119-0.007l0.125-0.052l0.056-0.012l0.024,0.019l0.029,0.031l0.034,0.023l0.042-0.006l0.034-0.008
	l0.037,0.003l0.035,0.012l0.026,0.021l-0.059,0.036l0.006,0.052l0.047,0.034l0.065-0.02l0.043,0.077l-0.038,0.045l0.02,0.057
	l0.084,0.104l0.046,0.032L1111.459,557.362z M1100.102,562.44l0.005,0.011l0,0L1100.102,562.44l0.057-0.026l0.05,0.002l0.047,0.021
	l0.047,0.038l0.038-0.112l0.007-0.061l-0.01-0.036l0.161-0.157l0.079-0.035l0.118-0.033l0.051-0.014l0.101-0.053l0.088-0.072
	l0.031-0.051l0.05-0.162l0.053-0.067l0.07-0.039l0.24-0.087l0.013-0.003l0.19,0.049l0.09-0.027l0.018-0.03l0.031-0.104l0.018-0.039
	l0.016-0.012l0.043-0.02l0.012-0.013l-0.001-0.027l-0.021-0.054l-0.002-0.019l0.063-0.081l0.17-0.045l0.051-0.044l0.021-0.019
	l0.018-0.058l-0.013-0.051l-0.022-0.042l-0.012-0.034l0.01-0.051l0.067-0.135l0.001-0.001h-0.001h0.001l0.001-0.094l0.05-0.156
	l0.008-0.081l-0.011-0.032l-0.007-0.013l-0.031-0.064l-0.008-0.043l0.009-0.038l0.028-0.062l0.017-0.035l0.062-0.094l0.156-0.154
	l0.009-0.018l0.012-0.05l0.008-0.014l0.025-0.004l0.02,0.016l0.016,0.015l0.013,0.009h0.123l0.027-0.003l0.049-0.055l0.053-0.151
	l0.05-0.065l0.063-0.041l0.024-0.01l0.035-0.014l0.129-0.023l0.095-0.035l0.03-0.008l0.016,0.012l0.032,0.049l0.013,0.01l0.02-0.008
	l0.016-0.028l0.054-0.031l0.066-0.053l0.037-0.017l0.035-0.002l0.082,0.007l0.041-0.005l0.087-0.042l0.043-0.03l0.035-0.032
	l0.046-0.047l0.047-0.025l0.102-0.036l0.062-0.038l0.035-0.042l0.008-0.01l0.027-0.068l0.015-0.092l-0.011-0.035l-0.021-0.032
	l-0.005-0.034l0.037-0.035l0.037-0.01l0.006,0.002l0.024,0.012l0.029,0.022l0.039,0.019l0.075,0.018l0.049-0.001l0.019-0.041
	l-0.009-0.095l-0.054-0.164l-0.155-0.312l-0.004-0.015l-0.032-0.122l0.016-0.045l0.027-0.077l0.041-0.033l0.076-0.062l0.272-0.122
	l0.619-0.225l0.113-0.08l0.054-0.054l0.021-0.035l0.011-0.041l-0.005-0.045l-0.035-0.072l-0.006-0.035l0.02-0.063l0.041-0.077
	l0.051-0.064l0.049-0.032l0.074,0.009l0.051,0.029l0.047,0.013l0.057-0.042l0.035-0.056l0.051-0.112l0.046-0.048l0.287-0.148
	l0.243-0.006l0.098-0.049l0.022-0.043l0.006-0.01l0.03-0.114l0.045-0.052l0.093-0.053l0.107-0.031l0.039-0.037l0.004-0.146
	l0.031-0.043l0.052-0.026l0.057-0.041l0.051-0.048l0.032-0.049l0.037-0.115l0.025-0.01l0.189,0.024l0.04-0.026l0.021-0.074
	l0.009-0.021l0.015-0.011l0.008-0.018l-0.005-0.033l0.088,0.009l0.037-0.013l0.022-0.034l0.002-0.039l-0.018-0.033l-0.056-0.08
	l-0.076-0.119l0.061-0.086l0.119-0.055l0.1-0.021l0.032,0.005l0.024,0.015l0.022,0.01l0.021-0.01v-0.02l-0.021-0.066l-0.002-0.03
	l0.021-0.062l0.002-0.005l0.03-0.058l0.041-0.055l0.046-0.033l0.076,0.026l0.075,0.005l0.021,0.032l0.012,0.036l0.018,0.018
	l0.03-0.005l0.018-0.019l0.012-0.021l0.022-0.019l0.081-0.033l0.024-0.019l0.079-0.083l0.041-0.029l0.065-0.023l0.036-0.034
	l0.012-0.116l0.055-0.049l0.063-0.078l0.09,0.02l0.092,0.08l0.07,0.101l0.025,0.026l0.022,0.01l0.022,0.007l0.028,0.015l0.016,0.005
	l0.037,0.002l0.02,0.006l0.014,0.018l0.017,0.047l0.01,0.012l0.067,0.016l0.044-0.011l0.1-0.059l0.004,0.047l0.064-0.037
	l0.061-0.024l0.066-0.004l0.085,0.02l0.167,0.068l0.095,0.021l0.058-0.029l-0.007-0.07l-0.046-0.062l-0.02-0.057l0.104-0.069
	l0.047-0.057l0.025-0.021l0.04-0.019l0.119,0.005l0.577-0.069l0.041-0.038l0.014-0.007l0.015,0.005l0.045,0.024l0.018,0.008
	l0.136-0.012l0.014-0.001l0.081,0.014l0.218,0.098l0.076,0.002l0.071-0.028l0.063-0.043l0.385-0.433l0.066-0.055l0.03-0.015
	l0.026-0.005l0.023-0.012l0.021-0.028l0.006-0.045l-0.006-0.052l0.001-0.05l0.03-0.035l0.26-0.129l0.033-0.006h0.081l0.03-0.008
	l0.029-0.022l0.013-0.025l0.007-0.032l0.02-0.047l0.025-0.029l0.094-0.065l0.063-0.135l0.021-0.027l0.077-0.013l0.138,0.044
	l0.068-0.011l0.035-0.03l0.048-0.079l0.04-0.022l0.042-0.016l0.029-0.023l0.045-0.068l0.045-0.096l0.026-0.04l0.206-0.199
	l0.024-0.006l0.013-0.021l0.002-0.071l-0.015-0.122l-0.024-0.112l0.002-0.032l0.014-0.017l0.009-0.017l-0.013-0.034l-0.022-0.018
	l-0.061-0.013l-0.022-0.012l-0.069-0.049l-0.009-0.029l0.012-0.054l-0.019-0.053l-0.021-0.045l-0.029-0.042l-0.044-0.041
	l-0.026-0.008l-0.049,0.018l-0.023-0.004l-0.02-0.022l-0.031-0.062l-0.02-0.028l-0.082-0.081l-0.035-0.022l-0.041-0.014
	l-0.042,0.004l-0.044,0.016l-0.051,0.006l-0.039-0.02l-0.024-0.012l-0.039-0.036l-0.04-0.049l-0.03-0.057l-0.012-0.056l0.007-0.034
	l0.015-0.017l0.019-0.013l0.016-0.021l0.038-0.106l0.063-0.066l0.151-0.095l0.025-0.097l0.043-0.021h0.03l0.126,0.042l0.055,0.01
	l0.068-0.018l0.102-0.074l0.069-0.051l0.06-0.016l0.117,0.027l0.124-0.037l0.063-0.008l0.05-0.016l0.024,0.061l0.004,0.062
	l0.23,0.026l0.168-0.01l0.045,0.013l0.004-0.113l0.018,0.029l0.02,0.025l0.021,0.021l0.024,0.016l0.014,0.052l0.069,0.092
	l0.005,0.047l0.063,0.037l0.052,0.057l0.099,0.132l0.155,0.156l0.058,0.068l0.048,0.078l0.033,0.088l0.014,0.08l-0.015,0.058
	l-0.05,0.038l-0.069,0.02l-0.071,0.001l-0.052-0.021l-0.051,0.24l-0.026,0.022l-0.005,0.021l0.002,0.021l-0.005,0.028l-0.048,0.098
	l-0.033,0.112l-0.033,0.053l-0.167,0.125l-0.015,0.049l0.083,0.039l0.019,0.102l0.032,0.079l0.048,0.063l0.072,0.044l-0.003,0.115
	l0.019,0.031l0.049-0.013l0.03,0.005l0.01,0.126l0.041,0.05l0.09,0.062l0.047,0.026l0.099-0.009l0.027,0.043l0.008,0.056
	l-0.013,0.033l-0.039,0.031l-0.016,0.029l0.006,0.028l0.028,0.029l0.053,0.021l0.035-0.003l0.016,0.008l-0.005,0.056l-0.021,0.055
	l-0.058,0.087l-0.014,0.056l0.018,0.01l0.033,0.017l0.016,0.022l-0.03,0.034l-0.026,0.011h-0.027l-0.024-0.008l-0.022-0.016
	l-0.018,0.01l0.021,0.088l0.004,0.045l-0.007,0.034l-0.02,0.011l-0.013-0.013l-0.035-0.026l0.023,0.039l0.009,0.021l-0.008,0.015
	l-0.021,0.022l0.008,0.019l0.008,0.004l0.008-0.003l0.012-0.002l-0.02,0.03l-0.002,0.017l0.014,0.027l0.044,0.029l-0.073,0.223
	l-0.002,0.097l0.035,0.113l-0.018,0.115l-0.063,0.094l-0.113,0.053v-0.021l-0.065-0.04l-0.053-0.072l-0.058-0.058l-0.078,0.007
	l-0.016-0.026l0.041-0.022l0.046-0.038l0.037-0.039l0.009-0.029l-0.041-0.028l-0.046,0.02l-0.039,0.041l-0.019,0.035l-0.026-0.02
	l-0.024-0.022l-0.02,0.011l0.016,0.028l0.023,0.013l0.029,0.029l-0.021,0.012l-0.074-0.025l-0.121-0.003l-0.11,0.028l-0.044,0.065
	l-0.056,0.016l-0.157,0.087l-0.045-0.002l-0.034,0.013l-0.19,0.138l-0.131,0.043l-0.152,0.029l-0.135,0.048l-0.082,0.104
	l-0.026,0.007l-0.068,0.022l-0.078,0.003l-0.064-0.016l-0.061-0.004l-0.161,0.054l-0.051,0.023l-0.132,0.014l-0.171-0.017
	l-0.139,0.031l-0.041,0.149l-0.02,0.012l-0.013-0.019l-0.246,0.088h-0.079l-0.053-0.007l-0.027,0.012l-0.018-0.005l-0.021-0.05
	l-0.007-0.038l0.009-0.038l0.02-0.032l0.03-0.025l-0.074-0.005l-0.047,0.004l-0.229,0.135l-0.044,0.043l0.037,0.062l-0.028,0.089
	l-0.022,0.042l-0.039,0.027l0.061,0.06l-0.01,0.044l-0.047,0.035l-0.052,0.028l-0.031,0.034l-0.063,0.105l-0.038,0.04l-0.049,0.104
	l-0.018,0.164l-0.045,0.135l-0.13,0.013l-0.079,0.11l-0.054,0.036l-0.068,0.005l0.008-0.019l-0.001-0.004v-0.018l-0.131,0.005
	l-0.028,0.092l-0.004,0.031l-0.02,0.011l-0.061-0.046l-0.062-0.035l-0.063-0.026l-0.014-0.056l-0.054,0.004l-0.048-0.012
	l-0.041-0.029l-0.037-0.052l-0.155,0.057l-0.043,0.007l-0.015,0.037l-0.03,0.024l-0.025,0.028l-0.002,0.055l-0.076,0.008
	l-0.072,0.055l-0.05,0.073l-0.008,0.116l-0.066,0.179l-0.028,0.05l0.051,0.01l0.042,0.021l0.014,0.032l-0.052,0.052l-0.004,0.019
	l0.011,0.022l0.026,0.019l0.022,0.001l0.045-0.03l0.029-0.007l-0.246,0.431l-0.192,0.337l-0.093,0.085l-0.128,0.062l-0.146,0.038
	l-0.421,0.008l-0.063,0.019l-0.041,0.012l-0.087,0.064l-0.123,0.153l-0.04,0.08l-0.029,0.087l-0.006,0.086l0.04,0.107l0.071,0.068
	l0.083,0.028l0.079-0.016l0.058,0.006l0.088,0.04l0.086,0.061l0.057,0.061l0.021-0.006l0.148,0.031l0.047-0.009l0.047-0.021
	l0.042-0.028l0.024-0.032l0.041,0.03l0.088,0.021l0.021,0.035l-0.015,0.03l-0.186,0.136l-0.02,0.07l0.03,0.08l0.078,0.088
	l0.224,0.115l0.044,0.013l0.117-0.006l0.027,0.009l0.125-0.037l0.036-0.004l0.024-0.033l0.072-0.057l0.015-0.037l-0.022-0.035
	l-0.044-0.039l-0.083-0.052l0.007-0.038l-0.035-0.013l0.054-0.039l0.087,0.036l0.156,0.11l0.059,0.025l0.092,0.023l0.086-0.005
	l0.04-0.062h0.04l0.104-0.02l0.033-0.013l0.03,0.007l0.08,0.068l0.032,0.016l0.087-0.046l0.155,0.052l0.289,0.143l0.286,0.083
	l0.088,0.084l-0.051,0.13l-0.107,0.1l-0.062,0.018l-0.053-0.043l-0.057-0.058l-0.063-0.016h-0.068l-0.063-0.007l-0.142-0.072
	l-0.124-0.089l-0.126-0.06l-0.148,0.008l-0.257,0.09l-0.103,0.012l-0.104-0.01l-0.166-0.05l-0.088-0.015l-0.049,0.007l-0.101,0.077
	l-0.121,0.03l-0.042,0.026l-0.107,0.157l-0.059,0.049l-0.104,0.012l0.003,0.024v0.045l-0.013,0.005l-0.01,0.1l0.019,0.074
	l0.041,0.06l0.113,0.096l0.027,0.016l0.035,0.011l0.135,0.011l0.055,0.051l0.068,0.025l0.055,0.003l0.017-0.017l0.251-0.016
	l0.029-0.035l0.059-0.007l0.07,0.011l0.062,0.022l0.06,0.009l0.138-0.024l0.058,0.028l0.016,0.035l-0.018,0.056l0.021,0.037
	l0.029,0.014l0.074,0.009l0.026,0.023l0.01,0.036l-0.019,0.019l-0.02,0.011l-0.002,0.021l0.032,0.039l0.029,0.007l0.023-0.02
	l0.017-0.034l0.021,0.038l0.017,0.026l0.018,0.018l0.024,0.011l-0.04,0.107l0.007,0.042l0.049,0.015l0.015,0.026l-0.056,0.033
	l-0.015,0.04l0.022,0.018l0.055-0.026l0.016,0.028l-0.146,0.088l-0.066,0.019l-0.016-0.049l-0.015-0.027l-0.021,0.013l-0.014,0.032
	l-0.023,0.006l-0.022-0.02l-0.009-0.049l-0.138-0.002l-0.021,0.003l-0.037-0.033l-0.049-0.01l-0.045,0.013l-0.01,0.029l0.007,0.02
	l0.027,0.026l-0.208-0.12l-0.037-0.035l-0.017-0.073l-0.017-0.04l-0.023-0.012l-0.037,0.004l-0.033-0.02l-0.031-0.029l-0.027-0.021
	l-0.455-0.205l-0.136-0.013l-0.064,0.015l-0.25,0.114l-0.216-0.005l-0.153,0.036l-0.114,0.071l-0.063,0.113l-0.001,0.171
	l0.035,0.077l0.059,0.054l0.063,0.046l0.055,0.063l0.021,0.018l0.029-0.001l0.062-0.028l0.031-0.006l0.027,0.01l0.055,0.034
	l0.281,0.14l0.14,0.047l0.396-0.002l0.223-0.063l0.021,0.02l0.019,0.032l0.031,0.034l0.052,0.031l0.054,0.013l0.057-0.007
	l0.065-0.027l0.047-0.01l-0.008,0.04l-0.037,0.057l-0.048,0.044l-0.275,0.1l-0.526,0.052l-0.078,0.028l-0.198,0.156l-0.024,0.035
	l-0.008-0.052l-0.002-0.093l-0.017-0.049l-0.026-0.026l-0.076-0.036l-0.022-0.019l-0.075-0.08l-0.088-0.038l-0.084-0.026
	l-0.065-0.042l-0.028-0.145l-0.065-0.153l-0.095-0.128l-0.108-0.063l-0.155-0.003l-0.078,0.011l-0.122,0.033l-0.067-0.002
	l-0.058,0.004l-0.044,0.041l-0.214-0.031l-0.032,0.013l-0.046-0.01l-0.077,0.02l-0.083,0.011l-0.107-0.068l-0.197-0.032
	l-0.069,0.004l-0.055,0.019l-0.11,0.07l-0.005-0.074l-0.059-0.049l-0.146-0.066l0.007-0.008l0.008-0.005l0.002-0.007l-0.01-0.016
	l-0.173-0.065l-0.063-0.048l0.05-0.062l0.18-0.112l0.089-0.074l0.023-0.059v-0.043l0.021-0.048l0.002-0.054l-0.057-0.057
	l-0.095-0.008l-0.023,0.003l-0.019-0.004l-0.009-0.031l-0.008-0.052l-0.099-0.071l-0.097-0.016l-0.085,0.032l-0.067,0.076
	l0.061,0.062l0.024,0.062l0.002,0.059l-0.012,0.052l-0.032,0.05l-0.017,0.034l0.007,0.007l-0.06,0.031l-0.028,0.006l-0.037-0.006
	l-0.035,0.07l-0.011,0.068l0.021,0.063l0.06,0.055l-0.018,0.01l-0.037-0.015l0.03,0.055l-0.018,0.01l-0.016-0.027l-0.021,0.011
	l0.013,0.052l-0.024,0.01l-0.045-0.007l-0.044-0.001l-0.01-0.018l-0.043,0.027l-0.025,0.063l0.022,0.051l0.072,0.001l-0.024,0.019
	l-0.015,0.018l0.001,0.027l0.017,0.037l-0.001,0.028l-0.031,0.007l-0.058-0.004l-0.068,0.041l-0.028,0.033l-0.014,0.054l0.063,0.015
	l0.061,0.038l0.048,0.054l0.023,0.06l0.054,0.013l0.052,0.029l0.055,0.02l0.063-0.014l0.03,0.036l0.01,0.111l-0.005,0.178
	l0.056,0.313l0.024,0.042l0.021,0.306l0.039,0.091l0.058,0.054l0.065,0.046l0.063,0.08l0.036,0.094l0.029,0.036l0.044-0.001
	l0.023,0.011l0.098,0.09l0.224,0.049h0.035l0.024,0.006l0.083-0.015l0.023,0.006l0.014,0.012l0.027-0.019l0.015,0.013l0.035,0.071
	l0.011,0.016l0.003,0.004l0.113,0.116l0.049,0.035l0.052,0.025l0.164,0.035l0.086,0.001l0.064,0.02l0.128,0.058l0.057,0.035
	l0.061,0.052l0.06,0.067l0.053,0.077l0.047,0.055l0.208,0.169l0.192,0.189l0.083,0.049l0.062,0.019l0.209,0.02l0.185-0.021
	l0.162,0.025l0.014,0.004l0.022,0.01l0.1,0.097l0.061,0.03l0.41,0.148l0.081,0.057l0.217,0.06l0.174,0.171l0.31,0.21l0.032,0.048
	l-0.02,0.036l-0.046,0.14l-0.047,0.052l-0.103,0.08l-0.048,0.049l-0.032,0.044h0.021l0.017,0.003h0.017l0.022-0.009l0.012,0.023
	l-0.02,0.022l-0.015,0.025l-0.011,0.025l-0.004,0.023l-0.043,0.007l-0.063,0.041l-0.058,0.057l-0.027,0.052l-0.034,0.049
	l-0.072,0.035l-0.136,0.032l-0.002-0.069l0.008-0.067l-0.045-0.043l0.02-0.058l0.072-0.098l0.027,0.049l0.049,0.181l0.146-0.232
	l0.007-0.059l-0.039-0.025l0.011-0.021l0.028-0.014l0.021,0.001l0.019,0.012l0.01-0.032l-0.002-0.055l-0.015-0.051l-0.037-0.033
	l-0.148-0.087l-0.052-0.02l-0.022-0.07l-0.069-0.05l-0.087-0.034l-0.074-0.02l-0.079-0.009l-0.062,0.01l-0.24,0.105l-0.01-0.011
	l-0.006-0.021l-0.018-0.015l-0.026-0.015l-0.064-0.045l-0.024-0.008l-0.024,0.007l-0.077,0.048l-0.077,0.018l-0.013,0.015
	l0.04,0.025l0.015,0.026l-0.012,0.046l0.013,0.051l0.034,0.042l0.052,0.017l-0.062,0.056l-0.109,0.076l-0.096,0.087l-0.014,0.088
	l0.075,0.151l0.031,0.045l0.213,0.192l0.018-0.012l0.002-0.053l0.018-0.06l-0.035-0.033l0.014-0.012l0.039,0.015l0.037,0.035
	l0.007-0.038l0.061,0.049l0.052,0.068l0.057,0.061l0.075,0.028l-0.01-0.017l0.001-0.009l0.007-0.003l0.009-0.009l-0.027-0.02
	l-0.022-0.022l0.102,0.009l0.071,0.045l0.063,0.053l0.078,0.031l0.008,0.058l0.01,0.007l0.025,0.014l-0.063,0.106l-0.002,0.049
	l0.048,0.054l0.102-0.177l0.065-0.069l0.086-0.06l0.014,0.024l-0.01,0.042l-0.067,0.104l-0.012,0.04l0.002,0.034l0.021,0.09
	l0.002,0.034l-0.005,0.04l-0.004,0.017l-0.006,0.022l-0.012,0.032l-0.015,0.015l-0.047,0.015l-0.021,0.018l-0.01,0.027l-0.012,0.019
	l-0.023,0.016l0.035,0.03l0.016,0.012l-0.041,0.027l-0.039,0.069l-0.025,0.026l-0.039,0.012l-0.049,0.005l-0.045,0.012l-0.035,0.029
	l0.001,0.036l0.032,0.094l-0.011,0.029l-0.073,0.044l-0.016,0.028l0.006,0.041l-0.043,0.023l-0.06,0.053l-0.063,0.042l-0.047-0.02
	l-0.032-0.023l-0.025,0.026l-0.037,0.065l-0.031,0.005l-0.068-0.008l-0.02,0.002l-0.012-0.009l-0.146-0.02l-0.022,0.019
	l-0.032,0.068l-0.009,0.028l-0.014,0.029l-0.029,0.026l-0.028,0.019l-0.02,0.02l-0.012,0.026l-0.004,0.036l-0.018-0.003
	l-0.039-0.002l0.057,0.104l0.13-0.101l0.013,0.023l-0.036,0.069l0.053,0.029l0.067-0.015l0.005-0.065l0.021-0.01l0.009,0.064
	l0.042-0.025l0.033-0.033l0.031-0.024l0.036,0.006l0.104-0.155l0.035-0.021l0.137,0.079l0.105,0.043l0.044,0.002l0.051,0.02
	l0.033-0.005l0.021-0.015l0.047-0.053l0.026-0.021l0.047-0.01l0.065,0.004l0.065,0.019l0.048,0.033l0.026-0.094l0.023-0.033
	l0.049-0.028l0.04-0.003l0.087,0.02l0.051-0.013l0.168-0.088l0.093-0.013l0.092,0.043l0.258,0.25l0.064,0.017l0.06-0.025
	l0.023-0.026l0.016-0.055l0.022-0.035l0.041-0.017l0.037-0.026l0.014-0.07l-0.079-0.009l-0.031,0.005l0.042-0.057l0.061-0.017
	l0.132,0.007l0.057-0.007l0.106-0.042l0.068-0.01l0.064,0.012l0.059,0.031l0.042,0.047l0.019,0.051l-0.016,0.056l-0.031,0.045
	l-0.019,0.06l0.023,0.099l0.006-0.061l0.034-0.021l0.05,0.004l0.051,0.02l0.048,0.009l0.09-0.024l0.053-0.004l0.014,0.025
	l-0.02,0.025l-0.068,0.037l-0.021,0.029l-0.01,0.042l0.006,0.03l0.026,0.008l0.051-0.02l0.197-0.12l0.329-0.115l0.021-0.049
	l0.003-0.07h0.095l0.16,0.047l-0.04,0.072l-0.016,0.022l0.016,0.029l0.042-0.013h0.04l0.024,0.017l-0.002,0.04l0.015,0.026
	l0.118-0.007l0.266,0.14l0.151,0.013l0.045-0.021l0.155-0.124l0.091,0.003l0.038-0.011l0.354-0.038l0.066-0.025l0.064-0.011
	l0.071,0.017l0.127,0.055l0.205,0.035l0.038,0.014l0.025,0.017l0.067-0.008l0.03,0.023l0.01,0.034l0.008,0.034l0.021,0.024
	l0.049,0.011l-0.024,0.029l-0.001,0.04l0.015,0.046l0.022,0.052l-0.048-0.042l-0.044,0.03l-0.099,0.163l0.046,0.075l0.135,0.136
	l0.055,0.064l0.057,0.037l0.052,0.023l0.03,0.025l0.013,0.039l0.007,0.104l0.006,0.048l0.019,0.031l0.028,0.033l0.028,0.039
	l0.014,0.054l0.032-0.021l0.042-0.009l0.04,0.01l0.03,0.034l-0.001,0.026l-0.072,0.086l0.036,0.014l0.037,0.003l0.038-0.01
	l0.042-0.024l-0.004,0.04l0.019-0.006l0.055-0.006l0.002,0.044l0.01,0.029l0.021,0.018l0.026,0.013l-0.011,0.017l-0.007,0.018v0.018
	l0.007,0.025l0.097,0.004l0.043,0.022l0.044,0.058l0.042,0.084l0.011,0.051l-0.026,0.109h0.054l0.017,0.027l-0.042,0.024
	l0.014,0.023l0.021-0.008l0.01,0.01l0.007,0.02l0.016,0.02l-0.009-0.009l-0.008-0.01l-0.005,0.002v0.029l0.059,0.017l-0.002,0.055
	l-0.024,0.077l-0.011,0.077l-0.048-0.005l-0.141,0.018l-0.053,0.018l-0.063,0.012l-0.047-0.035l-0.078-0.143l-0.021,0.012
	l-0.029,0.047l-0.066-0.055l-0.123-0.143l-0.006,0.017l-0.02,0.035l-0.057-0.051l-0.083-0.036l-0.076-0.009l-0.038,0.031
	l-0.02-0.006l-0.017-0.001l-0.016-0.005l-0.021-0.017l-0.019,0.01l0.028,0.09l-0.029,0.018l-0.039,0.005l-0.003,0.05l-0.02-0.023
	l-0.013-0.02l-0.015-0.003l-0.026,0.019l-0.006-0.058l-0.036-0.034l-0.104-0.033l-0.048-0.068l-0.228-0.115l-0.042-0.048
	l-0.063,0.005l-0.044,0.039l-0.039,0.053l-0.045,0.044l-0.012-0.017l-0.003-0.009l0.021-0.029l0.003-0.016l-0.012-0.026
	l-0.033,0.043l-0.038-0.007l-0.043-0.021l-0.047,0.004l-0.044,0.022l-0.04,0.014l-0.039,0.002l-0.039-0.016l0.051-0.158
	l-0.004-0.071l-0.06-0.055l-0.043-0.013l-0.021,0.008l-0.014,0.021l-0.022,0.02l-0.113,0.063l-0.026,0.026l-0.01,0.028l-0.004,0.026
	l-0.012,0.016l-0.069,0.044l-0.026,0.025l-0.022,0.034l-0.057,0.166l-0.037,0.051l0.119-0.028l-0.049,0.06l-0.249,0.106
	l-0.294,0.197l-0.083,0.117l-0.051,0.119l-0.029,0.068l-0.104,0.153l-0.156,0.016l-0.021,0.026l-0.024,0.011l-0.029,0.009
	l-0.035,0.014v0.025l0.024,0.045l0.02,0.046l-0.015,0.034v0.048l0.055,0.066l0.071,0.035l0.052-0.045l0.067-0.001l0.077-0.029
	l0.066-0.049l0.035-0.055l0.149,0.04l0.075,0.012l0.069-0.007l0.007,0.044l0.014,0.038l0.023,0.029l0.028,0.02l-0.037,0.031
	l-0.035,0.064l-0.062,0.048l-0.003,0.018l0.01,0.025l0.012,0.044l0.107,0.017l0.052-0.005l0.05-0.023l0.021,0.104l0.024,0.063
	l0.042,0.05l0.071,0.07l-0.041,0.022l0.054,0.077l0.03,0.028l0.079-0.01l0.173,0.026l0.007-0.041l0.172,0.048l0.017-0.001
	l0.017-0.008h0.032l0.088,0.018l0.044,0.003l0.045-0.018l0.045-0.085l-0.06-0.1l-0.111-0.067l-0.106,0.009l-0.015-0.027l0.028-0.069
	l0.043-0.054l0.146-0.098l0.057,0.028l0.042,0.107l0.018,0.13l-0.018,0.086l0.049,0.016l0.045,0.005l0.045-0.005l0.049-0.019
	l0.016,0.029l-0.047,0.054l-0.021,0.014l0.014,0.028l0.021-0.013l0.032-0.003l0.085-0.028l0.093,0.009l0.073-0.015l0.205,0.04
	l-0.006,0.026v0.01l0.01,0.006l0.025,0.01l0.015,0.026l-0.042,0.065l-0.145,0.16l-0.014,0.008l-0.348,0.216l-0.057,0.021
	l0.011,0.011l0.009,0.01l0.011,0.012l0.017,0.01l-0.117,0.045l-0.038,0.026l0.026,0.036l-0.089,0.08l0.02,0.038l0.03,0.006
	l0.033-0.015l0.028-0.022l-0.004,0.04l0.013,0.023l0.026-0.01l0.07-0.007l-0.035,0.047l-0.053,0.038l-0.114,0.058l-0.057,0.045
	l0.016,0.033l0.055,0.035l0.063,0.046l-0.057,0.048l-0.042,0.024l-0.046,0.005l-0.059,0.002l-0.015-0.025l0.063-0.035l-0.016-0.025
	l-0.039,0.01l-0.038,0.031l-0.042,0.017l-0.052-0.026l0.077-0.009l-0.035-0.027l-0.037-0.015l-0.091-0.008l-0.009,0.037l-0.03,0.018
	h-0.038l-0.005-0.009l-0.076-0.115l-0.018-0.05l0.048,0.005h0.044l0.016-0.044l-0.007-0.066l-0.026-0.058l0.088,0.002l0.023,0.004
	l-0.014-0.023l-0.034-0.027l-0.017-0.021l-0.021-0.034l-0.021-0.018l-0.024,0.001l-0.026,0.006l-0.028-0.003l-0.054,0.002
	l-0.091,0.085l-0.059,0.01l0.025-0.049l-0.083-0.055l-0.051,0.085l-0.016,0.04v0.046l-0.117-0.113l-0.059-0.032l-0.079-0.021
	l-0.015,0.003l-0.033,0.025l-0.015,0.006l-0.019-0.006l-0.014-0.014l-0.012-0.015l-0.006-0.007l-0.055,0.006l-0.029,0.008
	l-0.032,0.02l0.044-0.011l0.02,0.007l0.026,0.021l-0.074,0.007l-0.049,0.035l-0.03,0.056l-0.025,0.066l-0.032-0.013l-0.114-0.009
	l-0.002-0.019l-0.007-0.044l-0.048,0.004l-0.05-0.01l-0.036-0.021l-0.006-0.032l-0.058-0.029l-0.047-0.016l-0.051,0.064
	l-0.036,0.063l-0.006,0.074l0.041,0.1l0.018,0.016l0.053,0.03l0.02,0.021l0.01,0.026l0.01,0.053l0.011,0.021l0.037,0.036
	l0.027,0.013l0.026,0.009l0.028,0.017l0.014,0.017l0.036,0.074l0.014,0.007l0.053,0.01l0.02,0.041l0.007,0.062l0.022,0.038
	l0.263,0.102l0.037,0.003l0.01,0.066l0.042-0.022l0.012,0.023l-0.021,0.012l0.015,0.026l0.049,0.013l0.145,0.091l0.06,0.059
	l0.206,0.131l0.016,0.004l0.046,0.023l0.037,0.032l-0.009,0.029l-0.004,0.03l0.019,0.055l0.048,0.102l0.051,0.034l0.063-0.019
	l0.059-0.042l0.033-0.038l0.013,0.017l0.011,0.009l0.013,0.004l0.016,0.012l-0.014,0.023l0.006,0.003l0.021-0.001l-0.007,0.04
	l0.063-0.008l0.043,0.017l0.003,0.022l-0.058,0.007l0.064,0.052l0.148,0.077l0.02,0.048l0.06,0.05l0.055,0.06l-0.017,0.007
	l-0.031,0.021l-0.016,0.007l0.018,0.015l0.046,0.027l0.021,0.011v-0.016v-0.005l0.003-0.002l0.005-0.013l0.029,0.03l0.022,0.029
	l0.015,0.032l0.006,0.038l0.058,0.033l0.146,0.119l0.039,0.021l0.007,0.035l0.079,0.043l0.13,0.039l0.042,0.031l0.032,0.038
	l0.007,0.039l-0.028,0.032l0.014,0.023l0.032-0.016l0.027-0.008l0.058-0.004l0.003,0.036l-0.02,0.046v0.028l0.007,0.023l0.008,0.013
	l0.008,0.012l0.014,0.018l0.005,0.051l-0.041,0.019l-0.058-0.003l-0.043-0.008l-0.003,0.057l-0.016,0.061l0.004,0.046l0.061,0.014
	l0.001,0.017l0.007,0.031l0.001,0.016l0.082-0.047l-0.039,0.109l0.058,0.097l0.102,0.076l0.113,0.064l0.068,0.049l0.02,0.006
	l0.075-0.007l0.05,0.008l0.071-0.007l0.023,0.011l0.018,0.016l0.02,0.007l0.031-0.013l-0.016,0.037l-0.011,0.011l0.013,0.024
	l0.03,0.011l0.014,0.02l-0.004,0.025l-0.018,0.033l0.095,0.05l0.123,0.005l0.101,0.025l0.026,0.101l-0.134,0.008l-0.008,0.056
	l-0.034,0.028l-0.156,0.04l-0.049-0.023l-0.048-0.034l-0.055-0.01l-0.012-0.023l-0.011-0.061l-0.055-0.05l-0.071-0.027l-0.059,0.006
	l-0.115,0.101l-0.062,0.035l-0.049-0.027l-0.048-0.054l-0.15-0.11l-0.044-0.025l-0.054-0.014l-0.185-0.025l0.018-0.068l-0.037-0.037
	l-0.192-0.047l-0.02,0.002l0.004,0.037l-0.015,0.074l-0.024-0.013l-0.021-0.032l-0.032-0.099l-0.038-0.055l-0.074-0.065
	l-0.097-0.126l-0.079-0.045l-0.09-0.004l-0.095,0.03l-0.158,0.083l-0.18,0.127l-0.096,0.153l0.095,0.159l-0.063,0.128l-0.01,0.074
	l0.021,0.098l0.046-0.025l0.043,0.012l0.037,0.039l0.028,0.061l-0.021,0.011l-0.021-0.023l-0.025-0.021l-0.031-0.011l-0.028,0.013
	l-0.014,0.033l0.002,0.044l0.015,0.036l0.021,0.009l0.074,0.015l0.028,0.087l-0.022,0.058l-0.068-0.068l-0.03,0.053l0.003,0.05
	l0.121,0.224l0.057,0.083l0.057,0.062l0.142,0.12l-0.003,0.026l0.031,0.028l-0.025,0.048l0.008,0.048l0.034,0.04l0.049,0.031
	l0.013,0.026l-0.029,0.011l-0.001,0.016l0.011,0.02l0.007,0.028l-0.058-0.023l-0.046-0.061l-0.042-0.068l-0.047-0.047l-0.064-0.014
	l-0.132,0.016l-0.065-0.032l-0.021,0.011l-0.013,0.051l-0.035,0.008l-0.045-0.012l-0.043-0.021l-0.06-0.041l-0.021-0.043
	l-0.004-0.054l-0.011-0.063l0.057-0.013l-0.01-0.052l-0.047-0.058l-0.053-0.021l0.005-0.027l-0.002-0.072l-0.063,0.035l-0.021-0.054
	l-0.037-0.056l-0.014-0.052l0.048-0.032l-0.015-0.027l-0.07,0.012l-0.029-0.068l-0.014-0.153l-0.082,0.063l-0.109-0.061
	l-0.112-0.095l-0.091-0.034l-0.037-0.078l-0.1-0.071l-0.374-0.18h-0.084l-0.046,0.101l-0.112-0.018l-0.055-0.021l-0.044-0.05
	l0.008-0.002l0.004-0.029l-0.004-0.042l-0.014-0.041l-0.021-0.046l-0.026-0.083l-0.051-0.104l-0.021-0.023l-0.231,0.063
	l-0.118,0.055l-0.047,0.046l-0.076,0.135l-0.098,0.094l-0.015,0.059l0.011,0.061l0.165,0.383l0.01,0.055l0.018,0.034l0.035,0.038
	l0.037,0.024l0.027,0.027l0.005,0.057l0.079,0.023l0.045,0.003l0.046-0.017l0.014,0.024l-0.04,0.027l-0.026,0.035l-0.006,0.036
	l0.027,0.025l-0.001,0.045l-0.063,0.188l-0.007,0.027l-0.012,0.022l-0.027,0.015l-0.11-0.08l-0.016-0.004l-0.199-0.146l-0.053,0.034
	l-0.042,0.035l-0.058,0.08l-0.057-0.019l-0.089,0.008l-0.039-0.026l-0.019,0.012l-0.019,0.03l-0.032-0.021l-0.042-0.041
	l-0.049-0.029l-0.007-0.042l-0.019-0.031l-0.027-0.033l-0.032-0.053l-0.009-0.04l0.006-0.085l-0.004-0.042l-0.033-0.066
	l-0.052-0.043l-0.059-0.004l-0.052,0.052l0.021-0.029l0.002-0.019l-0.01-0.026l-0.027,0.013l-0.011,0.018l0.005,0.055l-0.093-0.124
	l-0.132-0.06l-0.143-0.046l-0.127-0.086l-0.108-0.137l-0.088-0.15l-0.053-0.149l-0.003-0.135l0.11-0.258l0.035-0.134l-0.025-0.146
	l-0.096-0.146l-0.074-0.071l-0.057-0.054l-0.418-0.287l-0.21-0.114l-0.092-0.031l-0.363-0.049l-0.079,0.001l-0.052-0.017
	l-0.102-0.046l-0.046-0.013l-0.207,0.04l-0.051,0.05l0.038,0.111l-0.019,0.01l-0.025-0.032l-0.021-0.039l-0.023-0.03l-0.043-0.009
	l-0.004-0.1l-0.023-0.068l-0.042-0.061l-0.143-0.146l-0.059-0.037l-0.06-0.008l-0.17-0.002l-0.373,0.07l-0.039-0.01l-0.041-0.038
	l-0.019-0.064l-0.031-0.02l-0.057-0.307l0.021-0.011l0.106,0.026l0.099-0.133l0.072-0.187l0.028-0.136l0.051-0.009l0.023-0.042
	l0.014-0.058l0.018-0.049l-0.015-0.028l-0.016-0.001l-0.005-0.003l-0.003-0.001l-0.012-0.006l-0.022,0.026l-0.02,0.036l-0.014,0.037
	l-0.008,0.03l0.025-0.281l-0.007-0.029l0.017-0.229l-0.008-0.048l-0.02-0.053l-0.116-0.232l-0.038-0.062l0.053,0.02l0.077,0.049
	l0.045,0.011l-0.026-0.046l-0.027-0.032l-0.028-0.021l0.028,0.018h0.058l0.058-0.021l0.065-0.033l0.051-0.007l0.213,0.036
	l0.268-0.073l0.053-0.042l0.046-0.06l0.062-0.119l0.028-0.142l-0.011-0.312l0.015-0.137l0.152-0.268l0.012-0.044l0.221-0.065
	l0.064-0.035l0.025-0.021l0.02-0.032l0.043,0.011l0.05,0.004l0.055-0.004l0.05-0.019l0.045-0.005l0.037,0.023l0.036,0.036
	l0.043,0.03l0.049,0.011l0.112-0.004l0.037-0.012l0.021-0.017l0.024-0.036l0.014-0.009l0.041,0.012l0.029,0.008l0.028-0.007
	l0.029,0.011l0.085,0.08l0.044,0.028h0.032l0.129-0.023l0.015,0.004l0.021,0.013l0.026,0.01l0.028-0.004l0.095-0.051l0.146-0.038
	h0.047l0.042-0.055l0.064,0.006l0.075,0.021l0.112-0.012l0.045,0.008l0.04-0.001l0.023-0.032l0.02-0.019l0.266-0.074l0.424-0.004
	l0.215-0.032l0.041,0.014l0.034-0.006l0.355,0.082l0.105,0.063l0.024,0.003l0.066-0.014l0.14,0.03l0.06,0.006l0.051-0.017
	l0.042-0.035l0.059-0.064l0.022-0.014l0.027-0.012l0.023-0.014l0.013-0.024l0.01-0.124l-0.004-0.024l-0.055-0.029l-0.068-0.02
	l-0.046-0.001l-0.055,0.01l-0.107-0.021l-0.058,0.026l0.003-0.018l0.008-0.012l-0.104,0.051l0.035-0.09l0.02-0.035l0.035-0.029
	l0.03-0.036l0.029-0.106l0.017-0.034l0.082-0.039l0.184-0.018l0.051-0.05l0.112-0.008l0.089-0.066l0.18-0.184l0.02-0.084
	l0.044-0.042l0.018-0.037l-0.044-0.035l-0.073-0.017l-0.065,0.014l-0.011-0.019l-0.018-0.033l0.035-0.025l0.059-0.055l0.035-0.025
	l-0.016-0.029l-0.032,0.015l-0.222,0.086l-0.058,0.008l0.033-0.086l-0.127-0.042l-0.042,0.016l-0.046,0.145l-0.026,0.027
	l-0.109,0.047l-0.014-0.025l0.06-0.034l-0.072-0.036l-0.059-0.01l-0.052,0.012l-0.186,0.075l-0.048,0.042l-0.003,0.075l0.034-0.034
	l0.045-0.021l0.05,0.002l0.043,0.032l-0.053,0.026l-0.099,0.033l-0.03,0.039l-0.144-0.162l-0.021,0.011l0.008,0.067l-0.015-0.017
	l-0.018-0.013l-0.016-0.016l-0.044,0.05l-0.104,0.071l-0.029,0.048l-0.167-0.015l0.003-0.053l0.029-0.076l-0.001-0.056l-0.069,0.004
	l-0.131,0.031l-0.097-0.015l-0.059,0.015l-0.024-0.002l-0.026-0.011l-0.092-0.057l-0.011-0.082l-0.084-0.054l-0.089,0.006
	l-0.021,0.103l0.058-0.022l0.02,0.027l-0.016,0.037l-0.049,0.004l-0.041,0.007l-0.016,0.051l-0.005,0.059l0.002,0.035l0.014,0.023
	h0.02l0.014,0.003h0.015l0.025-0.006l0.013,0.024l-0.014,0.028l0.002,0.008l0.01,0.007l0.013,0.021l-0.014,0.056l-0.032,0.031
	l-0.048,0.008l-0.07-0.007l-0.007-0.01l-0.07-0.048l-0.005,0.003l-0.022-0.018l-0.015-0.006l0.002-0.013l0.026-0.028l-0.087-0.062
	l-0.241-0.102l-0.059-0.044l-0.026-0.011h-0.017l-0.037,0.008l-0.188-0.013l0.026,0.037l0.05,0.062l0.022,0.035l-0.047,0.107
	l-0.008,0.038l0.039,0.02l0.022,0.007l0.011-0.009l0.005-0.024l0.031,0.029l0.008,0.032l-0.006,0.034l-0.018,0.031l0.035,0.014
	l0.001,0.041l-0.043,0.028l-0.068,0.01l-0.086,0.027l-0.105,0.074l-0.028-0.013h-0.051l-0.046,0.013l-0.021,0.028l-0.019,0.01
	l-0.041,0.012l-0.032,0.052l-0.012,0.072l0.013,0.074l-0.039-0.014l-0.045-0.041l-0.035-0.02l-0.034,0.005l-0.023,0.018
	l-0.018,0.005l-0.016-0.042l-0.063-0.009l-0.11,0.022l-0.193,0.013l-0.06,0.029l-0.041,0.056l-0.108-0.032l-0.093,0.044l-0.067,0.08
	l-0.076,0.153l-0.022,0.021l-0.046,0.026h-0.031l-0.028-0.02l-0.03-0.02l-0.024-0.006l-0.023,0.023l-0.08,0.205v0.056l0.03,0.077
	l-0.018,0.035l-0.078-0.006l-0.121-0.033l-0.176,0.094l-0.043,0.039l-0.031,0.047l-0.033,0.034l-0.055-0.001l-0.118,0.245
	l0.003,0.088l-0.02,0.009l-0.041-0.009l-0.047,0.013l-0.039,0.019l-0.02,0.006l-0.035-0.016l-0.158-0.003l0.044-0.041l0.062,0.002
	l0.066,0.017l0.056,0.006l-0.015-0.028l-0.023-0.01l-0.014-0.01l-0.007-0.019l0.003-0.039l-0.04-0.006l-0.016,0.002l-0.015-0.028
	l0.009-0.013l0.019-0.036l-0.06,0.031l-0.01-0.063l-0.021,0.029l-0.021,0.019l-0.026,0.01l-0.033-0.004l-0.009,0.023l-0.009,0.013
	l-0.028,0.025l-0.021-0.086l-0.058-0.021l-0.07,0.017l-0.057,0.026l-0.042-0.023l-0.151-0.214l-0.104-0.042l-0.05-0.009h-0.019
	l-0.01,0.011l-0.027,0.021l0.026,0.023l0.233,0.142l-0.043,0.022l0.014,0.01l0.005,0.003l0.004-0.003l0.014,0.004l0.01,0.046
	l0.016,0.047l0.007,0.04l-0.015,0.025l-0.027,0.024l-0.046,0.066l-0.013,0.025l0.016,0.012h0.004h0.016l-0.007,0.042l-0.055-0.006
	l-0.019,0.025l0.003,0.029l0.011,0.011l0.021,0.006l-0.005,0.041l-0.024,0.063l-0.022,0.039l-0.017,0.018l-0.063,0.026h-0.032
	l-0.035-0.012l-0.024,0.008l-0.003,0.055l0.023,0.007h0.023l0.025-0.007l-0.014,0.011l-0.031,0.031l-0.011,0.034l0.02,0.042
	l-0.06,0.024l-0.043-0.026l-0.033-0.048l-0.037-0.028l-0.043,0.006l-0.094,0.046l-0.044,0.01l0.026-0.035l0.016-0.033l-0.004-0.035
	l-0.031-0.038l-0.021,0.034l-0.006,0.017l-0.005-0.074l0.003-0.028l0.006,0.031h0.04l0.022-0.041l0.008-0.047v-0.05l-0.078-0.017
	l-0.021,0.016l-0.005,0.055l-0.043,0.001l-0.039-0.016l-0.036-0.032l-0.033-0.042l0.005-0.012l0.004-0.003v-0.005l-0.004-0.018
	l0.05,0.022h0.044l0.024-0.025l-0.014-0.054l-0.027,0.051l-0.012-0.058l-0.067-0.058l-0.004-0.042l-0.016-0.029l-0.028,0.015
	l-0.022,0.004h-0.044l0.02-0.031l0.01-0.013l0.02-0.014l-0.017-0.001l-0.025-0.008l-0.017,0.002l-0.003-0.077l-0.009-0.035
	l-0.017-0.021l-0.037-0.003l-0.016,0.027l-0.011,0.038l-0.02,0.028l-0.004,0.021l-0.019,0.045l-0.025,0.035l-0.026-0.01
	l-0.024-0.032l-0.058-0.041l-0.028-0.037l-0.059-0.17l-0.044-0.084l-0.101-0.036l-0.123-0.122l-0.044-0.019l-0.119,0.061
	l-0.048,0.007l-0.057-0.018l-0.047-0.037l-0.235-0.274l-0.062-0.046l-0.059-0.012l-0.036,0.04l-0.02,0.068l-0.008,0.074l0.001,0.053
	l-0.044-0.03l-0.015,0.017l-0.008,0.028l-0.028,0.007l-0.018,0.045l-0.02-0.012l-0.024-0.03l-0.026-0.024l-0.148-0.03l-0.012-0.024
	l-0.004-0.062l-0.022-0.078l-0.009-0.075l0.04-0.055l0.065-0.031l0.033-0.022l0.009-0.02l-0.023-0.019l-0.035-0.011l-0.033-0.003
	l-0.079,0.003l-0.057-0.045l-0.043-0.067l-0.02-0.063l-0.002-0.093l0.031,0.02l0.054,0.055l0.065,0.007l0.069-0.01l0.041-0.059
	l0.012-0.079l-0.004-0.081l0.021-0.011l0.025,0.026l0.015,0.02l0.005,0.016l-0.004,0.019l0.01,0.004l0.014,0.003l0.009,0.013
	l-0.004,0.033l0.062-0.03l0.046-0.034l0.021-0.051l-0.023-0.076l0.021-0.012l0.051,0.023l0.031-0.012l0.03-0.032l0.047-0.025
	l0.049-0.005l0.038,0.003l0.042-0.003l0.057-0.021l0.021,0.021l0.02,0.059l0.024,0.058l0.038,0.012l0.046-0.012l0.055,0.006
	l0.109,0.03l-0.015-0.036l-0.003-0.025l0.007-0.018l0.011-0.025l-0.013-0.022l-0.05-0.038l0.02-0.04l0.058-0.027l0.063,0.005
	l0.115,0.046l0.007,0.01l0.024,0.001l0.021-0.002l0.01-0.018l-0.009-0.042l-0.036-0.01l-0.02-0.013l-0.039-0.053l-0.013,0.003
	l-0.011,0.01l-0.02-0.003l-0.072-0.048l-0.027-0.038l-0.004-0.062l-0.033-0.022l-0.009-0.039l0.012-0.032l0.03-0.003l-0.051-0.09
	l-0.125-0.062l-0.232-0.072l-0.008,0.035l0.002,0.03l0.014,0.027l0.027,0.02l-0.049,0.004l-0.012,0.014l-0.013,0.015l-0.022,0.088
	l0.09,0.017l-0.179,0.063l-0.014-0.027l-0.041,0.01l-0.049-0.005l-0.041-0.012l-0.018-0.001l-0.024,0.039l-0.038-0.003l-0.038-0.025
	l-0.027-0.029l0.007-0.004v-0.021l0.023-0.021l-0.015-0.026l-0.022,0.011l-0.02,0.035l-0.032,0.019h-0.042l-0.04-0.02l-0.022,0.012
	l0.003,0.047l-0.038,0.059l0.001,0.031l0.034,0.03l0.036-0.01l0.023,0.011l-0.126,0.063l0.034-0.045l-0.02-0.023l-0.021-0.036
	l-0.022-0.021l-0.021,0.022l-0.007-0.014l-0.009-0.009l-0.005-0.004l0.004-0.009l-0.012-0.02l-0.029,0.01l-0.012,0.014l-0.004,0.018
	l-0.002,0.021l-0.008-0.105l-0.045-0.057l-0.048-0.006l-0.014,0.056l-0.031-0.018l0.002,0.035l-0.006,0.03l-0.016,0.028
	l-0.023,0.029l0.015,0.029l0.049-0.013l0.006,0.038l0.022,0.045l0.013,0.052l-0.008,0.039l-0.015,0.028l-0.012,0.032l0.01,0.047
	l-0.059-0.008l0.022,0.039l0.014,0.016l0.013-0.005l0.023-0.015l0.199,0.042l0.073-0.002l0.033,0.017l0.021,0.025l-0.002,0.018
	l-0.03,0.007l-0.071-0.006l-0.104,0.017l-0.017,0.013l-0.021,0.028l0.007,0.017l-0.006,0.062l-0.02,0.049l-0.032-0.02l-0.028-0.03
	l-0.035-0.016l-0.031-0.012l-0.021-0.015l-0.016-0.021l-0.013-0.01l-0.012-0.004l-0.009-0.009l-0.007-0.029l0.007-0.022l0.009-0.019
	l-0.001-0.015l-0.098-0.115l-0.105-0.062l-0.116-0.026l-0.126-0.008l-0.135-0.024l-0.39-0.178l-0.121-0.016l-0.046-0.019
	l-0.007-0.041l-0.034-0.027l-0.029-0.042l-0.02-0.047l0.001-0.043l-0.015-0.028l-0.028,0.035l-0.028,0.02l-0.028-0.001l-0.032-0.026
	l-0.031,0.047l-0.044,0.02h-0.051l-0.054-0.012l-0.064,0.078h-0.156l-0.156-0.066l-0.067-0.117l-0.062-0.019l-0.047-0.037
	l-0.053-0.021l-0.073,0.026l-0.014-0.026l0.021-0.011l-0.012-0.024l-0.041-0.018l-0.064-0.044l-0.033-0.006l0.043-0.042l0.063-0.029
	l0.036-0.032l-0.038-0.049l-0.046-0.017l-0.156-0.019l-0.012-0.023l0.054-0.024l0.043-0.01l0.027-0.017l0.007-0.051l-0.013-0.026
	l-0.042-0.005l-0.066,0.001l-0.042,0.02l0.026,0.048l-0.039-0.012l-0.046-0.003l-0.037,0.013l0.018-0.049l-0.063,0.016l-0.055,0.021
	l-0.047,0.028l-0.04,0.039l0.007-0.042l-0.006-0.043l-0.017-0.044l-0.026-0.049l0.034,0.016l0.021-0.013l0.01-0.031l0.006-0.039
	l-0.005-0.014l-0.029-0.049l-0.008-0.019l0.005-0.006l0.018-0.035l0.007-0.004l-0.06-0.07l-0.068-0.01l-0.061,0.01l-0.031-0.007
	l-0.02-0.01l-0.068-0.017h-0.018l-0.039,0.009l-0.035-0.006l-0.037-0.017l-0.148,0.036l-0.082,0.009l-0.047-0.005l-0.016,0.012
	l-0.015,0.004l0.033-0.055l0.116-0.019l0.141-0.021l0.175,0.001l0.126,0.034l0.074-0.002l0.042-0.036v-0.025l-0.016-0.027
	l-0.013-0.032l0.011-0.038l0.021-0.02l0.024-0.015l0.03-0.004l0.034,0.003l-0.034-0.09l0.021-0.067l0.04-0.06l0.015-0.072
	l-0.012-0.047l-0.02-0.016l-0.025-0.009l-0.029-0.029l-0.011-0.008l-0.037-0.018l-0.013-0.008l-0.003-0.015l-0.005-0.056
	l-0.007-0.022l-0.025-0.026l-0.026-0.007l-0.016-0.013l0.007-0.038l0.02-0.023l0.032-0.012h0.005l0.134-0.014l0.068,0.006
	l0.055-0.021l0.024-0.08l-0.017-0.089l-0.047-0.063l-0.256-0.158l-0.106-0.033l-0.028-0.016l-0.167-0.214l-0.03-0.022l0.029-0.031
	l0.147-0.08l0.044-0.034l-0.023-0.077l-0.012-0.081l0.003-0.079l0.016-0.065l0.044-0.057l0.104-0.037l0.033-0.052l0.046-0.042
	l0.171-0.058l0.069-0.045l0.085-0.11l0.056-0.073l0.013-0.026l-0.001-0.034l-0.021-0.149l-0.005-0.02l-0.052-0.064l-0.01-0.02
	l-0.033-0.038l-0.01-0.025l0.002-0.028l0.037-0.034l0.009-0.022l-0.015-0.109l-0.041-0.08l-0.046-0.074l-0.033-0.097l0.003-0.049
	l0.021-0.039l0.024-0.034l0.012-0.032l-0.002-0.026l-0.015-0.138l0.002-0.077l-0.004-0.039l-0.016-0.053l-0.022-0.039l-0.067-0.1
	l-0.015-0.039l0.013-0.041l0.053-0.048l0.019-0.027l0.003-0.052l-0.007-0.044l-0.001-0.04l0.025-0.047l0.079-0.042l0.084-0.004
	l0.074-0.017l0.047-0.089l0.008-0.056v-0.023l-0.004-0.027l-0.027-0.047v-0.043l0.02-0.039l0.033-0.03l-0.002-0.051l0.016-0.035
	l0.02-0.029l0.009-0.032l-0.006-0.048l-0.011-0.033l-0.016-0.032l-0.019-0.048l-0.039-0.151l-0.028-0.075l-0.042-0.074l-0.057-0.059
	l-0.042-0.028l0.132-0.207l0.02-0.06l-0.004-0.037l0.009-0.125l0.01-0.029l-0.016-0.021l-0.099-0.098l-0.034-0.042l-0.047,0.022
	l-0.03,0.032l-0.016,0.045l-0.007,0.052l-0.019,0.043l-0.002,0.021l0.025,0.02l0.102,0.011l0.024,0.01l0.025,0.102l-0.034,0.121
	l-0.062,0.109l-0.011,0.015l-0.112-0.05l-0.125-0.034l-0.027-0.022l-0.023-0.029l-0.026-0.024l-0.04-0.008l0.018-0.086l-0.016-0.063
	l0.084-0.149l-0.013-0.133L1100.102,562.44z M1100.111,562.46h0.003h0.001h-0.002H1100.111z M1100.124,562.454l-0.007,0.004
	L1100.124,562.454h0.006h0.005l-0.006-0.001L1100.124,562.454z"/></svg>