<?xml version="1.0" encoding="utf-8"?>
<!-- Generator: Adobe Illustrator 15.0.0, SVG Export Plug-In . SVG Version: 6.00 Build 0)  -->
<!DOCTYPE svg PUBLIC "-//W3C//DTD SVG 1.1//EN" "http://www.w3.org/Graphics/SVG/1.1/DTD/svg11.dtd">
<svg version="1.1" id="Ebene_1" xmlns="http://www.w3.org/2000/svg" xmlns:xlink="http://www.w3.org/1999/xlink" x="0px" y="0px"
	 width="1920px" height="1080px" viewBox="0 0 1920 1080" enable-background="new 0 0 1920 1080" xml:space="preserve">

<path fill="#F4E0B6" stroke="#FFFFFF" d="M624.478,798.579l0.126,0.364l0.039,0.066l0.004,0.021l-0.037,0.018l-0.056,0.009
	l-0.052-0.01l-0.049-0.029l-0.015-0.025l-0.001-0.026l-0.067-0.226l-0.05-0.105l-0.047,0.002l-0.028,0.026l-0.051-0.093
	l-0.129-0.021l-0.104-0.112l-0.041-0.026l-0.05-0.008l-0.108,0.021l-0.055-0.004l-0.063-0.034l0.06-0.04l0.044-0.057l-0.032-0.055
	l-0.077-0.06l0.029-0.024l0.148-0.013l0.07-0.033l0.038-0.048l0.032-0.049l0.048-0.035l0.006-0.07l-0.083-0.205l-0.009-0.106
	l0.096,0.008l-0.003,0.014l0.049,0.124l0.101,0.133l0.123,0.203l0.039,0.127l-0.016,0.114l-0.002,0.075l0.052,0.071L624.478,798.579
	z M654.437,778.442l-0.02,0.084l-0.08,0.097l-0.195,0.137l-0.09,0.08l-0.122,0.178l-0.093,0.199l-0.064,0.196l-0.061,0.282
	l-0.04,0.106l-0.104,0.205l-0.018,0.053l-0.02,0.129l-0.02,0.054l-0.038,0.035l-0.139,0.076l-0.17,0.202l-0.11,0.077l-0.198-0.006
	l-0.108,0.055l-0.105,0.078l-0.064,0.072l-0.001,0.001l-0.015,0.039l-0.001,0.02l0.008,0.024l-0.208,0.139l-0.096,0.03l-0.113-0.035
	l-0.018,0.031l0.003,0.107l-0.008,0.037l-0.017,0.02l-0.044,0.03l-0.019,0.025l-0.019,0.041l-0.018,0.053l-0.009,0.048l0.006,0.025
	l-0.016,0.056l-0.155,0.212l-0.039,0.067l0.021,0.126l0.044,0.091l0.021,0.097l-0.052,0.145l-0.05,0.077l-0.131,0.155l-0.179,0.171
	l-0.013,0.071l0.134,0.139l0.041,0.098l0.021,0.106l-0.006,0.087l-0.196,0.402l-0.004,0.03l0.008,0.04v0.046l-0.03,0.058
	l-0.038,0.029l-0.043,0.011l-0.046,0.006l-0.055,0.013l-0.123,0.07l-0.049,0.078l-0.022,0.091l-0.038,0.103l-0.079,0.064
	l-0.233,0.045l-0.105,0.042l-0.077,0.103l0.011,0.101l0.038,0.092l-0.001,0.082l-0.064,0.055l-0.071,0.005l-0.07,0.028l-0.057,0.113
	l0.004,0.112l0.044,0.113l0.05,0.091l0.016,0.051l-0.047,0.049l-0.122,0.051l-0.056,0.038l-0.03,0.042l-0.014,0.04l-0.086,0.465
	l0.036,0.189l0.166,0.039l0.065,0.115l0.019,0.065l-0.006,0.071l-0.026,0.045l-0.076,0.062l-0.034,0.061l-0.017,0.07l0.011,0.025
	l0.029,0.015l0.036,0.05l0.049,0.113l0.003,0.056l-0.114-0.021l-0.034,0.036l-0.047,0.12l-0.033,0.039l-0.075,0.047l-0.033,0.037
	l-0.091,0.164l-0.013,0.076l0.018,0.098l0.038,0.102l0.044,0.044l0.056-0.023l0.147-0.204l0.048-0.047l0.045-0.022l0.069,0.016
	l-0.012,0.049l-0.071,0.094l0.022,0.095l0.054,0.074l0.038,0.079l-0.047,0.167l-0.004,0.129l-0.009,0.061l-0.021,0.045l-0.06,0.086
	l-0.021,0.047l-0.036,0.104l-0.001,0.055l0.029,0.044l0.013,0.01l0.028,0.043l-0.001,0.062l-0.025,0.06l-0.042,0.033l-0.104,0.053
	l-0.054,0.077l-0.013,0.087l0.018,0.082l0.036,0.065l0.053,0.055l0.165,0.106l0.072,0.065l0.065,0.081l0.077,0.064l0.109,0.016
	l0.035,0.054l0.064,0.058l0.05,0.069l-0.009,0.083l-0.034,0.101l-0.001,0.11l0.041,0.222l-0.065,0.045l-0.009,0.059l0.031,0.049
	l0.057,0.013l0.031-0.029l0.082-0.11l0.031-0.016l0.07,0.031l-0.001,0.032l-0.022,0.084l-0.021,0.037l-0.06,0.038l-0.02,0.029
	l-0.001,0.031l0.014,0.058l-0.002,0.02l0.017,0.067l0.061,0.119l0.134,0.2l0.046,0.036l0.103,0.062l0.022,0.021l0.031,0.095
	l0.056,0.094l0.012-0.01l0.006-0.011l0.009-0.002l0.052,0.042l0.017,0.017l0.029,0.1l-0.004,0.044l-0.026,0.053l-0.063,0.096
	l-0.076,0.084l-0.175,0.135l-0.034,0.082l0.015,0.032l0.068,0.084l0.023,0.044l0.009,0.06l-0.008,0.121l0.002,0.064l0.019,0.091
	l0.031,0.091l0.054,0.081l0.085,0.069l0.18,0.06l0.049,0.052l-0.041,0.163l0.032,0.03l0.043,0.013l0.023,0.003l0.04-0.003
	l0.073-0.024l0.047,0.002l0.088,0.042l0.058,0.063l0.034,0.074l0.035,0.191l0.033,0.04l0.064-0.021l0.114-0.057l0.016,0.111
	l0.232,0.147l0.011,0.177l0.081,0.032l0.156,0.022l0.041,0.049l0.014,0.061l0.025,0.056l0.07,0.043l0.074-0.015l0.049-0.024
	l0.047-0.03l0.241-0.102l0.015-0.023l0.074,0.029l0.147,0.029l0.06,0.021l0.517,0.423l0.004,0.02l0.143,0.248l0.077,0.244
	l0.044,0.074l0.079,0.064l0.048,0.03l0.041,0.035l0.03,0.043l0.019,0.054l0.001,0.065l-0.02,0.047l-0.021,0.043l-0.01,0.054
	l0.015,0.049l0.027,0.032l0.018,0.035l-0.018,0.056l-0.003,0.038l0.08,0.209l0.074,0.075l0.033,0.048l0.057,0.165l0.037,0.051
	l0.281,0.161l0.051,0.014l0.036-0.023l0.059-0.016l0.121-0.016l0.021,0.007l0.042,0.034l0.021,0.008l0.03-0.007l0.047-0.039
	l0.031-0.012l0.14,0.013l0.016-0.001l0.04,0.036l0.055,0.087l0.1,0.103l0.005,0.084l-0.067,0.171l-0.001,0.039l0.012,0.036v0.034
	l-0.061,0.032l-0.02,0.022l-0.01,0.026v0.028l0.038,0.134l0.012,0.077l-0.008,0.057l-0.046,0.102l-0.019,0.102l0.005,0.091
	l0.027,0.068l0.033,0.041l0.034,0.026l0.041,0.01l0.048-0.006l0.045,0.007l0.002,0.041l-0.012,0.049l0.032,0.412l-0.006,0.035
	l0.007,0.032l0.04,0.033l0.038,0.025l0.024,0.028l0.005,0.033l-0.017,0.041l-0.024,0.081l0.015,0.091l0.038,0.091l0.05,0.087
	l0.06-0.081l0.057,0.001l0.065,0.041l0.083,0.032l0.071-0.004l0.062-0.012l0.052,0.021l0.046,0.094l0.015,0.059l0.005,0.049
	l-0.009,0.048l-0.054,0.108l0.002,0.029l0.246,0.361l0.248,0.136l0.072,0.063l0.027,0.073l0.025,0.202l-0.004,0.024l-0.021,0.047
	l0.008,0.015l0.057,0.03l0.012,0.013l0.038,0.085l0.023,0.029l0.171,0.132l0.056,0.025l0.069-0.016l0.058,0.081l0.076,0.024h0.076
	l0.173,0.046l0.043,0.02l0.035,0.035l0.058,0.142l0.067-0.097l0.032,0.036l0.019,0.165l0.032,0.042l0.04,0.013l0.019,0.019
	l-0.03,0.068l-0.178,0.287l-0.033,0.081l0.003,0.083l0.044,0.116l0.046,0.309l0.036,0.062l-0.007,0.021l-0.003,0.139l0.012,0.026
	l0.062,0.098l0.036,0.088l0.067,0.311l0.021,0.057l0.05,0.088l0.012,0.048l-0.006,0.042l-0.097,0.333l0.02,0.07l0.077,0.067
	l0.087,0.029l0.097,0.017l0.086,0.034l0.055,0.076l0.106-0.004l0.112,0.017l0.112,0.035l0.294,0.138l0.015,0.014l0.017,0.014
	l0.039,0.171l0.026,0.047l0.157,0.153l0.187,0.086l0.211,0.035l0.357,0.011l0.057,0.042l0.043,0.063l0.124,0.11l0.048,0.104
	l0.034,0.045l0.042,0.026l0.108,0.023l0.25,0.164l0.055-0.001l0.076-0.073l0.083-0.004l0.185,0.073l0.025-0.008l0.066-0.003
	l0.058,0.019l-0.003,0.058l-0.11,0.174l0.021,0.13l0.151,0.138l0.181,0.127l0.109,0.105l0.025,0.117l0.016,0.04l0.191,0.282
	l0.139,0.431l0.134,0.407l0.085,0.158l0.077,0.074l0.018,0.028l0.002,0.028l-0.013,0.063l0.005,0.029l0.024,0.039l0.246,0.254
	l0.043,0.085l-0.022,0.097l-0.064,0.118l-0.052,0.13l-0.037,0.129l-0.019,0.115l0.009,0.055l0.037,0.127l-0.009,0.029l-0.046,0.031
	l0.007,0.041l0.026,0.04l0.013,0.031l-0.013,0.04l-0.02,0.024l-0.085,0.062l-0.177,0.166l-0.097,0.067l-0.11,0.022l-0.113-0.027
	l-0.04,0.004l-0.057,0.045l-0.077,0.085l-0.067,0.094l-0.022,0.063l-0.01,0.126l-0.066,0.108l-0.087,0.104l-0.069,0.119l-0.01,0.1
	l0.092,0.313l-0.011,0.089l-0.112,0.298l-0.064,0.375l-0.092,0.188l-0.146-0.03l-0.024,0.175l0.1,0.251l-0.011,0.121l-0.151,0.261
	l-0.205,0.351l-0.205,0.352l-0.204,0.35l-0.205,0.352l-0.162,0.276l-0.051,0.038l-0.441-0.262l-0.746-0.438l0.082,0.31l0.052,0.494
	l0.08,0.771l0.067,0.653l-0.005,0.126l-0.033,0.12l-0.346,0.645l-0.467,0.872l-0.342,0.639l-0.257,0.457l-0.272,0.48l-0.041,0.22
	l0.095,0.105l0.256,0.169l0.701,0.47l0.701,0.468l0.702,0.469l0.7,0.471l0.702,0.473l0.7,0.472l0.7,0.473l0.701,0.475l0.265,0.179
	l0.093,0.042l0.105,0.008l0.054-0.021l0.12-0.068l0.041-0.001l0.159,0.106l0.015,0.059l-0.246,0.407l-0.053,0.045l-0.14,0.022
	l-0.051,0.066l-0.021,0.195l-0.149,0.117l-0.672,0.208l-0.145,0.084l-0.121,0.121l-0.104,0.182l-0.126,0.354l-0.093,0.163
	l-0.027,0.024l-0.082,0.05l-0.035,0.032l-0.031,0.048l-0.097,0.223l-0.018,0.163l-0.023,0.089l-0.167,0.293l-0.021,0.074
	l-0.008,0.097l-0.041,0.099l-0.235,0.362l-0.081,0.165l-0.012,0.163l0.086,0.166l0.106,0.089l0.03,0.035l0.021,0.046l0.027,0.101
	l0.021,0.047l0.024,0.029l0.054,0.047l0.019,0.04l0.003,0.085l-0.029,0.17l0.029,0.081l0.042,0.046l0.038,0.031l0.033,0.039
	l0.025,0.062l0.024,0.181l0.02,0.057l0.092,0.141l0.028,0.055l0.069,0.238l0.074,0.115l0.117,0.126l0.134,0.098l0.128,0.035
	l0.094,0.039l0.059,0.051l0.059,0.088l0.014,0.086l-0.023,0.112l-0.058,0.104l-0.069,0.091l-0.037,0.07l-0.105,0.151l-0.042,0.08
	l-0.02,0.089l0.003,0.077l0.015,0.077l0.027,0.073l0.042,0.063l-0.118,0.105l-0.016,0.054l0.008,0.127l-0.011,0.13l-0.057,0.066
	l-0.124-0.061l-0.074,0.832l-0.139,0.603l-0.037,0.322l0.088,0.179l0.075,0.05l0.052,0.046l0.008,0.059l-0.064,0.084l-0.256-0.158
	l-0.078-0.026l-0.078,0.017l-0.193,0.157l-0.557,0.453l-0.555,0.453l-0.553,0.451l-0.553,0.452l-0.133,0.107l0.138,0.105
	l0.017,0.058l-0.038,0.088l-0.137,0.245l-0.094,0.185l-0.215-0.114l-0.09,0.001l-0.206,0.126l-0.278,0.171l-0.61,0.374l-0.608,0.374
	l-0.277,0.17l0,0l-0.001,0.001l0,0l-0.11,0.067l-0.241,0.151l-0.242,0.151l-0.11,0.067l-0.311,0.196l-0.046,0.126l0.102,0.43
	l0.109,0.457l0.134,0.569l-0.07,0.027l-0.083,0.036l-0.092,0.025l-0.107-0.013L656,838.433l-0.052-0.045l-0.039,0.003l-0.032,0.027
	l-0.045,0.015l-0.05-0.002l-0.047-0.017l-0.116-0.021l-0.224,0.096l-0.12-0.022l-0.033-0.001l-0.088,0.039l-0.035,0.011
	l-0.063-0.004l-0.191-0.041l0.066-0.102l0.191-0.173l0.061-0.077l0.106-0.168l0.068-0.079l0.07-0.129l0.089-0.264l0.077-0.129
	l0.098-0.122l0.026-0.063l-0.009-0.07l-0.08-0.18l-0.194-0.427l-0.194-0.428l-0.194-0.427l-0.194-0.428l-0.196-0.427l-0.196-0.428
	l-0.196-0.428l-0.196-0.428l-0.106-0.231l-0.054-0.142l-0.057-0.146l-0.06-0.064l-0.298-0.181l-0.692-0.419l-0.692-0.417
	l-0.691-0.418l-0.693-0.414l-0.301-0.183l-0.627-0.217l-1.41-0.483l-1.407-0.479l-1.407-0.476l-1.404-0.473l-0.086-0.034
	l-0.189-0.077l-0.188-0.077l-0.085-0.035l-0.355-0.145l-0.074-0.01l-0.059,0.029l-0.19,0.154l-0.284,0.229l-0.283,0.229
	l-0.284,0.231l-0.282,0.229l0,0l-0.11,0.074l-0.11,0.074l-0.055,0.035l-0.056,0.039l-0.11,0.073l-0.119,0.059l-0.118,0.058
	l-0.12,0.059l-0.118,0.06l-0.311,0.143l-0.311,0.145l-0.311,0.144l-0.31,0.144l-0.144,0.065l-0.151,0.071l-0.258,0.126l-0.096,0.089
	l-0.216,0.361l-0.209,0.35l-0.229,0.381l-0.346,0.579l-0.001,0.001l-0.172,0.251l-0.364,0.335l-0.367,0.337l-0.394,0.363
	l-0.41,0.378l-0.377,0.344l-0.513,0.468l-0.401,0.367l-0.479,0.437l-0.307,0.293l-0.325,0.31l-0.199,0.146l-0.025-0.029l0.007-0.033
	l0.017-0.038l0.006-0.045l-0.013-0.069l-0.083-0.203l-0.117-0.184l-0.016-0.086l0.015-0.084l0.074-0.125l0.005-0.062l0.03-0.026
	l0.023-0.039l0.067-0.161l0.012-0.042l-0.043-0.043l-0.135-0.122l-0.544-0.284l-0.002-0.002l-1.114-0.67l-1.116-0.668l-0.151-0.056
	l-0.077-0.001l-0.255,0.054l-0.03-0.043l-0.067-0.222l-0.052-0.074l-0.318-0.22l-0.106-0.036l-0.064-0.007l-0.02,0.005l-0.015,0.022
	l-0.086,0.067l-0.059,0.068l-0.031,0.025l-0.044,0.013l-0.036-0.003l-0.029-0.005l-0.026,0.002l-0.07,0.045l-0.185,0.189
	l-0.283,0.226l-0.054,0.028l-0.095-0.002l-0.044,0.015l-0.682,0.555l-0.162,0.079l-0.289,0.071l-0.106,0.064l-0.5,0.5l-0.168,0.282
	l-0.076,0.059l-0.259,0.252l-0.024,0.054l-0.047-0.07l0.095-0.191l-0.011-0.08l0.082-0.077l0.05-0.115l0.004-0.113l-0.056-0.081
	l-0.02-0.055l0.029-0.265l-0.02-0.049l-0.024-0.031l-0.009-0.036l0.026-0.063l0.029-0.043l0.063-0.067l0.027-0.036l0.038-0.035
	l0.05-0.019l0.049-0.023l0.041-0.057l-0.08-0.314l-0.009-0.103l0.032-0.103v-0.03l-0.038-0.082l-0.002-0.04l0.023-0.039l0.072-0.061
	l0.021-0.046l-0.022-0.07l-0.043-0.097l-0.006-0.097l0.088-0.071l0.08-0.031l0.056-0.04l0.035-0.064l0.015-0.099l-0.003-0.065
	l-0.024-0.174l-0.02-0.045l-0.061-0.059l-0.057-0.088l-0.037-0.092l-0.068-0.056l-0.024-0.028l-0.032-0.011l-0.083-0.009
	l-0.037-0.011l-0.12-0.118l-0.166-0.291l-0.578-0.549l-0.612-0.344l-0.963-0.536l-0.177-0.132l-0.227-0.181l-0.033-0.014
	l-0.026,0.005l-0.026,0.009h-0.034l-0.533-0.227l-0.089-0.099l-0.062-0.136l-0.142-0.826l-0.052-0.09l-0.297-0.248l-0.006-0.032
	l0.066-0.219l-0.041-0.188l-0.111-0.169l-0.247-0.276l-0.076-0.013l-0.54,0.561l-0.244,0.353l-0.048,0.05l-0.049,0.036h-0.011
	l-0.009-0.017l-0.05-0.02l-0.041,0.001l-0.046,0.017l-0.044,0.027l-0.036,0.029l-0.125,0.02l-0.558-0.125l-0.484-0.117l-0.025,0.011
	l-0.027,0.025l-0.024,0.02l-0.021-0.007l-0.047-0.054l-0.066-0.048l-0.032-0.036l-0.037-0.026l-0.061-0.004l-0.125,0.027
	l-0.091,0.054l-0.078,0.078l-0.207,0.273l-0.076,0.075l-0.08,0.034l-0.027,0.027l-0.043,0.128l-0.025,0.041l-0.056,0.005
	l-0.475-0.095l-0.125-0.002l-0.117,0.039l-0.065,0.037l-0.063,0.006l-0.063-0.018l-0.075-0.053l-0.063-0.031l-0.175,0.389
	l-0.055,0.084l-0.073,0.037l-0.393,0.07l-0.176,0.071l-0.358,0.215l-1.272-0.376l-0.146-0.046l-0.26-0.119l-0.536-0.341
	l-0.093-0.104l-0.013-0.042l-0.01-0.171l-0.02-0.006l-0.123-0.104l-0.006-0.082l0.04-0.111l0.168-0.31l0.439-0.532l0.041-0.08
	l0.011-0.286l0.077-0.217l0.016-0.104l0.004-0.341l0.02-0.094l0.042-0.081l0.198-0.216l0.037-0.081l0.021-0.115l-0.021-0.209
	l0.011-0.05l0.033-0.031l0.082-0.042l0.032-0.029l0.035-0.095l0.008-0.121l-0.017-0.12l-0.045-0.093l-0.08-0.274l-0.042-0.13
	l-0.008-0.067l0.016-0.066l0.314-0.688l0.093-0.354l0.003-0.555l0.046-0.155l0.546-0.978l0.046-0.209l-0.06-1.742l-0.026-0.091
	l-0.069-0.066l-0.159-0.077l-0.049-0.035l-0.051-0.094l-0.057-0.104l0.028-0.204l0.278-0.531l0.079-0.08l0.1-0.054l0.374-0.092
	l0.042-0.074l-0.057-0.151l-0.075-0.095l-0.111-0.213l-0.276-0.396l-0.047-0.109l-0.035-0.135l-0.017-0.154l0.011-0.156l0.054-0.133
	l0.099-0.086l0.12-0.023l0.251,0.037l-0.001-0.354l0.03-0.161l0.089-0.159l0.08-0.107l0.012-0.048l-0.107-0.094l-0.073-0.137
	l0.03-0.087l0.101-0.035l0.532,0.104l0.12,0.052l0.048,0.038l0.033,0.033l0.035,0.013l0.056-0.022l0.04-0.032l0.107-0.124
	l0.047-0.079l0.177-0.151l0.043-0.052l0.008-0.029l-0.002-0.032l0.013-0.065l0.061-0.125l0.012-0.031l0.001-0.071l-0.021-0.047
	l-0.088-0.114l-0.038-0.084l-0.047-0.196l-0.103-0.243l0.002-0.065l0.048-0.072l0.092-0.057l0.232-0.061l0.105-0.039l0.373-0.21
	l0.306-0.173h0.001l0.146-0.075l0.081-0.027l0.188,0.012l0.046-0.01l0.016-0.096l-0.021-0.117l-0.037-0.119l-0.237-0.526
	l-0.105-0.127l-0.067-0.127l-0.004-0.313l-0.033-0.146l-0.181-0.521l-0.073-0.153l-0.144-0.163l-0.033-0.063l-0.011-0.083
	l0.028-0.269v-0.17l-0.018-0.081l-0.038-0.073l0.197-0.099l0.071-0.061l0.049-0.093l0.011-0.049l0.036-0.583v-0.004l0.001-0.003
	l0.002-0.003l0.058-0.04l0.037-0.054l0.021-0.062l0.003-0.067v-0.217l0.073-0.225l0.118-0.214l0.13-0.187l0.053-0.095l0.017-0.103
	l-0.007-0.321l0.021-0.078l0.13-0.224l0.013-0.041l0.038-0.209l0.014-0.039l0.022-0.043l0.039-0.105l-0.003-0.091l-0.047-0.195
	l0.048-0.225l0.177-0.063l0.201-0.042l0.125-0.166v-0.005l-0.003-0.088l-0.046-0.022l-0.074-0.007l-0.082-0.039l-0.054-0.058
	l-0.046-0.063l-0.077-0.137l-0.077-0.073l-0.021-0.025l-0.014-0.04l-0.027-0.138l-0.067-0.018l-0.067,0.013l-0.046-0.028
	l-0.005-0.136l0.046-0.174l0.16-0.313l0.053-0.165l0.006-0.25l-0.051-0.236l-0.158-0.461l-0.013-0.177l0.045-0.172l0.159-0.343
	l0.003-0.005l0.164-0.301l0.067-0.157l0.022-0.149l-0.017-0.106l-0.033-0.125l-0.086-0.217l-0.048-0.057l-0.183-0.136l-0.007-0.005
	l0.121-0.073l0.183-0.204l0.09-0.07l0.02,0.004l0.072,0.023l0.028,0.005l0.313-0.09l0.163-0.02l0.128,0.011l0.121,0.04l0.125,0.014
	l0.136-0.058l0.053-0.058l-0.004-0.036l-0.021-0.029l0.001-0.031l0.033-0.035l0.039-0.015l0.22-0.016l0.075-0.031l0.226-0.182
	l0.624-0.232l0.1-0.062l0.194-0.19l0.067-0.042l0.083-0.008l0.146,0.063l0.081,0.02h0.29l0.092-0.018l0.11-0.055l0.083-0.04
	l-0.023-0.212l0.019-0.081l0.077-0.125l0.012,0.019l0.093,0.086l0.039,0.078l0.08,0.125l0.249,0.169l0.087,0.108l0.084-0.095
	l0.11-0.182l0.084-0.188l0.002-0.103l-0.137-0.094l-0.125-0.119l-0.022-0.096l0.169-0.021l0.163,0.036l0.149,0.054l0.07,0.05
	l0.104,0.116l0.06,0.042l0.093,0.016l0.092-0.039l0.084-0.053l0.076-0.032l0.029,0.001l0.094,0.023l0.079-0.012h0.03l-0.016-0.053
	l-0.027-0.032l-0.039-0.007l-0.051,0.019l-0.044-0.103l0.015-0.03l0.189,0.024l0.06,0.025l0.104,0.164l0.048,0.035l0.18,0.071
	l-0.022-0.085l-0.001-0.045l0.012-0.042l0.036-0.051l0.023,0.003l0.026,0.013l0.047-0.024l0.065-0.072l0.011-0.052l-0.061-0.099
	l-0.009-0.037v-0.037l-0.007-0.034l-0.029-0.031l-0.041-0.017l-0.121-0.032l-0.117-0.064l-0.067-0.051l-0.064-0.06l-0.139-0.221
	l-0.066-0.045l-0.082,0.015l-0.08,0.046l-0.062,0.019l-0.025-0.066l0.012-0.042l0.054-0.081l0.007-0.043l-0.008-0.108l0.023-0.477
	l0.073,0.011l0.152,0.072l0.036,0.006l0.048-0.054l0.076-0.045l0.083-0.029l0.069-0.007l0.105,0.029l0.059,0.006l0.037-0.021
	l0.013-0.054l-0.005-0.058l-0.008-0.049l0.001-0.031l-0.025-0.05l-0.248-0.158l-0.093-0.116l-0.047-0.038l-0.045-0.006l-0.044,0.015
	l-0.038,0.001l-0.083-0.107l-0.178-0.112l-0.034-0.061l0.021-0.033l0.098-0.089l0.036-0.042l0.021-0.05l0.026-0.097l0.019-0.045
	l0.033-0.109l-0.017-0.087l-0.072-0.161l-0.02-0.12l-0.005-0.102l-0.025-0.084l-0.078-0.069l-0.07-0.045l-0.065-0.057l-0.048-0.063
	l-0.024-0.064l0.055-0.047l0.061,0.058l0.055-0.013l0.026-0.049l-0.028-0.046l-0.143-0.089l-0.116-0.046l-0.141-0.085l0.027-0.183
	l-0.014-0.043l-0.022-0.048l0.033-0.061l0.052-0.062l0.032-0.046l0.012-0.007l0.018-0.016l0-0.024l-0.063-0.05l-0.026-0.026
	l-0.019-0.029l-0.004-0.111l-0.072-0.158l0.09-0.053l0.064-0.073l0.056-0.083l0.065-0.074l0.091-0.049l0.052-0.003l0.127,0.02
	l0.038-0.004l0.021-0.036l0.022-0.154l0.059-0.059l0.11-0.057l0.114-0.032l0.155,0.022l0.141-0.139l0.079,0.037l0.088,0.057
	l0.089-0.02l0.052-0.074l-0.041-0.149l-0.02-0.202l-0.027-0.102l-0.136-0.318l-0.028-0.106l-0.031-0.499l-0.031-0.102l-0.04-0.132
	l0.015-0.091l0.061-0.072l0.15-0.13l0.026-0.028l0.17-0.369l0.045-0.071l0.067-0.041l0.119-0.009l0.254,0.054l0.083-0.006
	l0.121-0.097l0.319-0.549l0.095-0.059l0.083,0.035l0.079,0.069l0.084,0.051l0.049-0.036l0.095-0.211l0.051-0.068l0.035-0.007
	l0.077,0.017l0.036,0.002l0.258-0.109l0.109-0.02l0.338-0.015l0.12-0.036l0.03-0.098l-0.008-0.118l0.01-0.097l0.085-0.172
	l0.051-0.083l0.062-0.064l0.142-0.022l0.152,0.038l0.287,0.109l0.124-0.047l0.064-0.165l0.058-0.35l0.056-0.166l0.013-0.081
	l-0.008-0.087l-0.131-0.271l-0.011-0.11l0.05-0.155l0.084-0.163l0.064-0.158l-0.008-0.15l0.037-0.199l0.028-0.063l0.052-0.063
	l0.046-0.042l0.026-0.051l-0.009-0.091l-0.115-0.31l-0.014-0.174l0.109-0.071l0.054,0.023l0.109,0.093l0.05,0.016l0.061-0.031
	l0.027-0.051l0.022-0.06l0.042-0.057l0.058-0.034l0.137-0.054l0.065-0.038l0.09-0.087l0.082-0.098l0.04-0.109l0.505-0.846
	l0.127-0.386l0.084-0.186l0.31-0.515l0.026-0.068l0.183-0.471l0.1-0.193l0.076-0.09l0.184-0.038l0.1-0.085l0.093-0.056l0.081,0.063
	l0.118-0.101l0.111-0.059l0.114-0.016l0.384,0.085l0.051-0.022l0.2-0.151l-0.013-0.071l-0.11-0.111l-0.015-0.063l0.043-0.071
	l0.073-0.044l0.083-0.021l0.158-0.004l0.087-0.025l0.082-0.041l0.07-0.05l0.072-0.077l0.045-0.028l0.051,0.003v-0.054l0.004-0.25
	l0.012-1.055l0.012-1.057l0.01-1.063l0.011-1.064l0.01-1.067l0.009-1.071l0.009-1.074l0.007-1.079v-0.036v-0.036l0.001-0.038v-0.038
	v-0.036v-0.036v-0.036v-0.038l0.3,0.187l0.172,0.069l0.315,0.079l0.123,0.099l0.115,0.119l0.135,0.109l0.237,0.119l0.298,0.222
	l0.131,0.123l0.15,0.064l0.057,0.048l0.227,0.316l0.018,0.016l0.037,0.02l0.02,0.007l0.1,0.048l0.163,0.168l0.09,0.068l0.117,0.031
	l0.137,0.016l0.125,0.034l0.102,0.111l0.048,0.078l-0.123,0.068l-0.107,0.086l-0.085,0.106l-0.082,0.198l-0.012,0.051l0.021,0.042
	l0.071,0.042l0.652,0.194l0.147-0.001l0.304-0.053l0.208,0.033l0.075,0.026l0.069,0.038l0.063,0.054l0.068,0.014l0.202-0.062
	l0.097-0.003l0.204,0.088l0.088,0.007l0.12-0.02l0.124-0.045l0.122-0.059l0.11-0.068l0.252-0.213l0.105-0.056l0.376-0.145
	l0.307-0.223l0.099-0.042l0.135-0.021l0.163,0.003l0.081,0.014l0.074,0.029l0.105,0.089l0.501,0.248l0.056,0.045l0.049,0.052
	l0.05,0.094l0.084,0.232l0.06,0.08l0.16,0.037l0.14-0.094l0.127-0.146l0.123-0.112l0.072-0.027l0.187-0.045l0.089-0.039l0.158-0.097
	l0.079-0.037l0.097-0.026l0.095,0.017l0.19,0.003l0.203,0.031l0.114-0.012l0.113-0.035l0.103-0.052l0.047-0.043l0.021-0.036
	l0.03-0.03l0.067-0.015l0.044,0.008l0.182,0.1l0.052,0.019l0.053,0.008l0.047-0.011l0.031-0.042l0.032-0.113l0.029-0.038h0.077
	l0.103,0.036l0.174,0.09l0.067,0.055l0.135,0.14l0.071,0.038l0.067-0.003l0.06-0.035l0.052-0.039l0.05-0.02l0.049,0.007l0.09,0.044
	l0.048,0.016l0.253-0.012l1.082-0.383l0.8-0.158l0.103-0.001l0.416,0.046l0.058-0.005l0.042-0.025l0.038-0.047l0.042-0.037v-0.002
	l0.046-0.022l0.054,0.009l0.538,0.182l0.239,0.166l0.089,0.034l0.098,0.015l0.231-0.01l0.083,0.008l0.44,0.161l0.094,0.013
	l0.178-0.02l0.091,0.007l0.242,0.104l0.01,0.018l0.005,0.027l0.007,0.03l0.019,0.015l0.031-0.003l0.06-0.039l0.024-0.005l0.07,0.021
	l0.019,0.019l0.039,0.049l0.07,0.132l0.046,0.047l0.09,0.024l0.255-0.021l0.091,0.02l0.075,0.035l0.053,0.04l0.143,0.142
	l0.048,0.031l0.066-0.003l0.112-0.039l-0.008,0.038l-0.005,0.05l0.001,0.048l0.012,0.033l0.045,0.016l0.034-0.035l0.028-0.05
	l0.024-0.031l0.085-0.071l0.036-0.009l-0.008,0.077l-0.017,0.049l-0.008,0.042l0.005,0.037l0.029,0.037l0.196,0.018l0.066,0.033
	l-0.075,0.097l-0.048,0.049l0.009,0.024l0.036,0.014l0.03,0.023l0.013,0.005l0.054,0.007l0.021,0.008l0.018,0.03l0.009,0.068
	l0.011,0.033l0.07,0.16l0.041,0.067l0.065,0.062l0.051,0.025l0.031-0.01l0.027-0.024l0.04-0.023l0.013-0.01l0.029-0.044l0.019-0.014
	l0.029-0.002l0.055,0.019l0.021,0.001l0.081-0.031l0.079-0.044l0.041-0.033l0.059-0.062l0.049-0.027l0.287-0.065l0.094-0.039
	l0.043,0.015l0.107,0.063l0.057,0.074l0.05,0.175l-0.023,0.178v0.021l-0.062,0.239l0.011,0.073l0.025,0.087L654.437,778.442z"/></svg>