<?xml version="1.0" encoding="utf-8"?>
<!-- Generator: Adobe Illustrator 15.0.0, SVG Export Plug-In . SVG Version: 6.00 Build 0)  -->
<!DOCTYPE svg PUBLIC "-//W3C//DTD SVG 1.1//EN" "http://www.w3.org/Graphics/SVG/1.1/DTD/svg11.dtd">
<svg version="1.1" id="Ebene_1" xmlns="http://www.w3.org/2000/svg" xmlns:xlink="http://www.w3.org/1999/xlink" x="0px" y="0px"
	 width="1920px" height="1080px" viewBox="0 0 1920 1080" enable-background="new 0 0 1920 1080" xml:space="preserve">

<path fill="#F4E0B6" stroke="#FFFFFF" d="M1234.853,267.96l1.432,0.59l0.11,0.042l1.446,0.592l1.44,0.599l0.082,0.011l0.159-0.042
	l0.082-0.002l0.149,0.056l1.094,0.661l0.076,0.026l0.096,0.013l0.092-0.001l0.908-0.074l0.146,0.025l0.084,0.086l0.349,0.693
	l0.08,0.066l0.043-0.001l0.589-0.097l0.272-0.049l0.105-0.042l0.103-0.072l0.82-0.761l0.096-0.186l-0.116-0.173l-0.45-0.328
	l-0.198-0.288l-0.063-0.185l0.116-0.554l-0.009-0.211l-0.188-0.749l-0.016-0.21l0.017-0.094l0.148-0.36l0.077-0.224l0.041-0.067
	l0.688-0.755l0.011-0.132l-0.162-0.113l-0.207-0.104l-0.126-0.105l-0.093-0.107l0.081,0.016l0.018-0.014l0.166-0.071l0.038-0.032
	l0.033-0.043l0.021-0.053l-0.003-0.06l0.091,0.033l0.098,0.023l0.005-0.099l-0.04-0.105l-0.069-0.098l-0.08-0.074l-0.093-0.089
	l-0.161-0.215l-0.29-0.189l-0.113-0.036l-0.161,0.006l-0.088,0.027l-0.037,0.035l-0.019,0.043l-0.037,0.047l-0.059,0.035
	l-0.214,0.071l-0.04,0.077l0.017,0.095l0,0l-0.073-0.073l-0.06-0.144l0.014-0.47l-0.013-0.072l-0.098-0.196l-0.043-0.174
	l-0.01-0.178l0.019-0.072l0.087-0.146l0.019-0.077l0.013-0.576l0.098-0.211l0.226-0.196l0.536-0.342l0.162-0.169l0.246-0.625
	l0.085-0.265l0.051-0.073l0.065-0.043l0.084-0.026l0.324-0.051l0.076-0.02l0.051-0.037l0.041-0.073l0.097-0.286l0.032-0.122
	l0.034-0.06l0.063-0.025l0.046,0.014l0.108,0.067l0.066,0.018l0.028-0.119l0.417-0.487l0.053-0.046l0.079-0.043l0.072-0.031
	l0.053-0.039l0.046-0.191l0.092-0.131l0.244-0.224l0.135-0.095l0.149-0.083l0.089-0.024l0.267-0.016l0.053-0.012l0.026-0.009
	l0.022-0.01l0.063-0.046l0.099-0.105l0.057-0.046l0.037-0.018l0.035-0.01l0.033-0.014l0.031-0.029l0.006-0.032l0.002-0.05
	l0.009-0.042l0.031-0.011l0.048,0.016l0.034,0.015l0.037,0.009l0.056-0.002l0.022-0.007l0.018-0.011l0.012-0.015l0.009-0.017
	l0.017-0.02l0.023,0.001l0.027,0.009l0.032,0.001l0.101-0.007l0.147,0.032l0.076,0.004l0.039-0.014l0.077-0.053l0.037-0.013
	l0.043,0.006l0.034,0.018l0.032,0.022l0.102,0.049l0.064,0.052l0.043,0.059v0.053l-0.028,0.065l0.018,0.042l0.057,0.034l0.089,0.044
	l0.052,0.041l0.053,0.061l0.039,0.065l0.018,0.053l-0.017,0.066l-0.084,0.112l-0.011,0.064l0.007,0.081l-0.026,0.229l0.01,0.147
	l0.081,0.271l0.015,0.141l-0.181,0.783l-0.031,0.079l-0.062,0.072l-0.182,0.097l-0.069,0.057l0.018,0.061l0.102,0.072l0.03,0.044
	l-0.017,0.051l-0.061,0.035l-0.075,0.017l-0.063,0.027l-0.028,0.065l0.037,0.09l0.096,0.069l0.217,0.109l0.07,0.1l-0.025,0.109
	l-0.06,0.116l-0.03,0.116l0.014,0.043l0.064,0.082l0.021,0.047l0.011,0.241l-0.02,0.115l-0.094,0.198l-0.033,0.11l-0.007,0.106
	l0.012,0.096l0.038,0.092l0.069,0.096l0.106,0.109l0.02,0.042l0.014,0.162l0.023,0.055l0.195,0.232l0.021,0.099l0.042,0.148
	l0.037,0.07l0.054,0.066l0.075,0.055l0.171,0.076l0.071,0.046l0.035,0.059l0.047,0.307l-0.015,0.07l-0.084,0.149l-0.064,0.056
	l-0.185,0.082l-0.051,0.043l0.01,0.036l0.108,0.138l0.008,0.026l-0.008,0.031l-0.023,0.058l0.068,0.24l0.141-0.054l0.067-0.009
	l0.063,0.021l0.162,0.106l0.124,0.033l0.312,0.006l0.101,0.045l0.036,0.109l-0.045,1.051l-0.081,0.387v0.051l0.018,0.031
	l0.079,0.059l0.171,0.189l0.022,0.044l0.029,0.189l0.045,0.126l0.051,0.065l0.033,0.042l0.145,0.06l0.081,0.024l0.066,0.043
	l0.555,0.505l0.895,0.43l0.122,0.018l0.139-0.044l0.102-0.066l0.105-0.031l0.151,0.063l0.274,0.183l0.067,0.08l0.083,0.15
	l0.015,0.049l0.001,0.047l-0.021,0.158l0.014,0.031l0.072,0.059l0.587,0.659l0.277,0.229l0.065,0.077l0.046,0.091l0.145,0.509
	l0.083,0.419l0.003,0.652l0.093,0.581l-0.018,0.104l-0.213,0.519l-0.01,0.105l0.02,0.105l0.165,0.42l0.022,0.031l0.042,0.014
	l0.203,0.025l0.099,0.029l0.196,0.092l0.257,0.169l0.617,0.648l0.097,0.15l0.046,0.045l0.048,0.032l0.115,0.06l0.14,0.098
	l0.093,0.107l0.058,0.119l0.034,0.138l0.016,0.185l0.03,0.077l0.178,0.163l0.228,0.321l0.21,0.199l0.096,0.119l0.027,0.096
	l-0.029,0.225l-0.02,0.047l-0.076,0.087l-0.021,0.048l-0.131,1.148l-0.125,0.272l-0.005,0.137l-0.215,0.696l-0.207,0.415
	l-0.069,0.086l-0.091,0.065l-0.225,0.121l-0.273,0.25l-0.063,0.087l-0.022,0.103l-0.016,0.847l-0.101,0.297l-0.002,0.083
	l-0.001,0.035l0.01,0.047l0.029,0.033l0.038,0.031l0.034,0.039l0.027,0.063l0.03,0.136l0.027,0.063l0.132,0.181l0.083,0.083
	l0.1,0.073l1.194,0.625l0.109,0.037l0.072,0.005l0.152-0.008l0.074,0.004l0.079,0.02l0.056,0.027l0.104,0.07l0.175,0.085
	l0.049,0.035l0.008,0.007l0.075,0.078l0.12,0.076l0.138,0.061l0.129,0.034l0.183,0.009l0.092-0.042l0.13-0.192l0.075-0.052
	l0.081-0.021l0.174-0.011l0.167-0.044l0.145-0.072l0.415-0.271l0.114-0.103l0.26-0.348l0.101-0.094l0.116-0.083l0.538-0.274
	l0.151-0.04l0.131-0.007l0.146,0.013l0.119,0.041l0.049,0.074l0.008,0.056l0.064,0.152l-0.02,0.232l0.024,0.061l0.6,0.518
	l0.089,0.098l0.048,0.106l0.016,0.339l0.034,0.088l0.156,0.206l0.281,0.786l0.207,0.401l0.117,0.131l0.592,0.463l0.385,0.392
	l0.087,0.051l0.216,0.088l0.185,0.114l0.143,0.14l0.23,0.31l0.073,0.082l0.227,0.089l0.069,0.062l0.331,0.878l0.064,0.114
	l0.037,0.042l0.031,0.03l0.028,0.032l0.02,0.048l0.007,0.058l-0.012,0.178l0.018,0.243l0.304,0.811l0.329,0.502l0.011,0.026
	l-0.002,0.018l0.006,0.017l0.034,0.021l0.016,0.014l0.009,0.017l0.005,0.509l0.043,0.159l0.004,0.088l-0.162,0.833l0.002,0.108
	l0.147,0.331l0.03,0.113v0.103l-0.226,0.834l-0.044,0.703l-0.1,0.271l-0.034,0.184l0.034,0.419l0.106,1.404l0.099,1.408l0.092,1.41
	l0.501,1.524l0.491,1.531l0.533,1.361l0.102,0.246l0.097,0.158l0.015,0.046l0.013,0.064l0.075,0.179l0.01,0.188l0.015,0.06
	l0.578,0.68l0.028,0.14l-0.175,0.111l-0.079,0.063l-0.035,0.068l-0.119,0.963l-0.088,0.313l-0.044,0.019l-0.901-0.106l0.093,1.315
	l0.086,1.318l-0.03,0.096l-0.646,0.91l-0.651,0.907v0.002l0,0l-0.063,0.096l-0.429,1.112l-0.433,1.111l-0.439,1.111l-0.133,0.184
	l-0.356,0.249l-0.888,0.389l-0.292,0.29l-0.158,0.358l-0.093,0.372l-0.036,0.644l-0.438,1.291l-0.443,1.291l-0.451,1.291
	l-0.025,0.151l0.14,1.212l0.058,0.513l-0.43,1.319l-0.438,1.321l-0.444,1.321l-0.45,1.322l-0.37,1.07l-0.375,1.069l-0.001,0.009
	l-0.136,1.219l-0.142,1.224l-0.019,0.331l-0.021,0.041l-0.013,0.028l-0.079,0.009l-0.569-0.063l-0.109,0.001l-0.1,0.022
	l-0.122,0.062l-1.551,1.042l-0.171,0.084l-0.184,0.031l-0.194-0.005l-0.209-0.028l-0.169-0.004l-1.102,0.267l-1.152,0.125
	l-0.438,0.098l-0.116,0.063l-0.062,0.11l-0.051,0.17l-0.157,0.298l-0.053,0.019l-0.106-0.02l-0.251-0.085l-0.23-0.024l-0.043-0.013
	l-0.041-0.023l-0.076-0.063l-0.117-0.047l-0.065-0.057l-0.107-0.123l-0.081-0.046l-0.045,0.053l-0.132,1.159l-0.056,0.138
	l-0.229,0.258l-0.339,0.57l-0.054,0.068l-0.071,0.034l-0.086,0.021l-0.082,0.036l-0.27,0.182l-0.364,0.366l-0.076,0.088l-0.054,0.21
	l-0.058,0.084l-0.086,0.039l-0.219,0.045l-0.097,0.041l-0.361,0.208l-0.041,0.037l-0.037,0.049l-0.02,0.052l0.031,0.165
	l-0.037,0.149l-0.111,0.267l-0.1,0.144l-0.232,0.132l-0.864,0.366l-0.097,0.068l-0.415,0.474l-0.111,0.34l-0.043,0.063l-0.115,0.108
	l-0.047,0.061l-0.026,0.077l-0.018,0.165l-0.028,0.08l-0.188,0.23l-0.033,0.085l-0.037,0.212l-0.014,0.08l-0.036,0.059l-0.025,0.062
	l-0.014,0.065l-0.001,0.069l-0.031,0.097l-0.066,0.086l-0.156,0.156l-0.019,0.043l-0.007,0.115l-0.011,0.051l-0.064,0.147
	l-0.004,0.401l-0.051,0.222l-0.021,0.336l-0.018,0.052l-0.103,0.135l-0.025,0.055l-0.021,0.169l-0.016,0.053l-0.097,0.138
	l-0.017,0.058l-0.005,0.173l-0.042,0.078l-0.279,0.234l-0.08,0.096l-0.058,0.102l-0.039,0.11l-0.021,0.116l-0.018,0.194
	l-0.197,0.562l-0.015,0.076l0.003,0.146l-0.013,0.071l-0.177,0.308l-0.003,0.041l0.008,0.034l-0.007,0.032l-0.041,0.033
	l-0.336,0.149l-0.057,0.049l-0.019,0.073l0.022,0.067l0.041,0.068l0.027,0.068l-0.016,0.066l-0.17,0.305l-0.174,0.187l-0.059,0.037
	l-0.129,0.046l-0.062,0.03l-0.091,0.097l-0.076,0.14l-0.053,0.148l-0.018,0.125l0.061,0.265l-0.034,0.107l-0.146,0.018l-0.072-0.029
	l-0.044-0.031l-0.049-0.015l-0.09,0.021l-0.06,0.046l-0.1,0.119l-0.059,0.005l-0.151-0.037l-0.139,0.008l-0.134,0.021l-0.144-0.004
	l-0.109,0.027l-0.222,0.177l-0.101,0.049l-1.028-0.431l-0.086-0.073l-0.688-0.918l-0.112-0.226l-0.015-0.043l-0.114-0.086
	l-0.208-0.065l-0.218-0.021l-0.143,0.036l-0.152,0.053l-0.566,0.029l-0.097-0.014l-0.06-0.049l-0.09-0.129l-0.291-0.212
	l-0.075-0.058l-0.165-0.097l-0.07-0.063l-0.143-0.111l-0.09-0.058l-0.068-0.025l-0.075,0.032l-0.047,0.063l-0.059,0.039
	l-0.114-0.037l-0.182-0.094l-0.119-0.04l-0.06-0.02l-0.182-0.008l-0.185,0.055l-0.148,0.086l-0.079,0.029l-0.1-0.006l-0.033-0.019
	l-0.058-0.056l-0.032-0.017h-0.052l-0.034,0.016l-0.03,0.021l-0.039,0.017l-0.093,0.01l-0.088,0.001l-0.084,0.007l-0.087,0.031
	l-0.08,0.05l-0.063,0.059l-0.044,0.067l-0.022,0.077l-0.066,0.12l-0.134,0.071l-1.6,0.43l-0.037-0.002l-0.03-0.016l-0.024-0.03
	l-0.057-0.05l-0.072-0.035l-0.077-0.01l-0.072,0.022l-0.088,0.071l-0.128-0.011l-0.146-0.045l-0.141-0.029l-0.076,0.028
	l-0.117,0.083l-0.077,0.025l-0.261,0.034l-0.079,0.025l-0.105,0.01l-0.053-0.049l-0.037-0.051l-0.055,0.002l-0.075,0.054
	l-0.062,0.059l-0.176,0.273l-0.114,0.13l-0.139,0.114l-0.159,0.086l-0.075,0.021l-0.104,0.013l-0.104-0.005l-0.08-0.034
	l-0.091-0.054l-0.089-0.008l-0.066,0.035l-0.048,0.133l-0.079,0.115l0.007,0.06l0.049,0.041l0.06,0.021l0.059,0.026l0.041,0.057
	l0.001,0.113l-0.087,0.343l-0.061,0.096l-0.066,0.021l-0.142-0.007l-0.069,0.008l-0.068,0.038l-0.062,0.106l-0.045,0.046
	l-0.071,0.02l-0.085,0.004l-0.077,0.009l-0.041,0.038l-0.031,0.049l-0.059,0.031l-0.072,0.006l-0.077-0.022l-0.132-0.022
	l-0.081,0.083l-0.036,0.122v0.099l-0.048,0.162l-0.024,0.049l-0.113,0.108l-0.019,0.047l0.007,0.072l0.07,0.189l0.037,0.069
	l0.033,0.096l-0.013,0.084l-0.089,0.155l-0.104,0.295l-0.072,0.082h-0.001v0.001l-0.604,0.226l-0.06,0.038l-0.054,0.082
	l-0.038,0.192l-0.034,0.083l-0.101,0.076l-0.286,0.151l-0.063,0.083l-0.021,0.083l-0.043,0.056l-0.146,0.098l-0.083,0.03h-0.091
	l-0.094-0.011l-0.097-0.001l-0.095-0.019l-0.156-0.095l-0.09,0.002l-0.301,0.133l-0.062,0.064l-0.014,0.067l-0.001,0.068
	l-0.029,0.072l-0.105,0.086l-0.268,0.103l-0.102,0.067l-0.191,0.187l-0.029,0.054l-0.029,0.112l-0.024,0.055l-0.047,0.048
	l-0.117,0.08l-0.076,0.075l-0.078,0.035l-0.028,0.024l-0.015,0.033l-0.012,0.081l-0.014,0.037l-0.097,0.091l-0.143,0.068
	l-0.123-0.005l-0.04-0.126l-0.02-0.056l-0.041-0.041l-0.044-0.032l-0.026-0.032l-0.04-0.17l-0.032-0.04l-0.123-0.021l-0.128,0.052
	l-0.192,0.148l-0.05,0.065l-0.043,0.146l-0.172,0.18l-0.065,0.053l-0.074,0.031h-0.047l-0.098-0.023l-0.049,0.001l-0.042,0.019
	l-0.034,0.028l-0.054,0.061l-0.076,0.037l-0.083-0.018l-0.076-0.05l-0.055-0.063l-0.025-0.285l-0.059-0.146l-0.168-0.048
	l-0.072,0.032l-0.044,0.055l-0.058,0.038l-0.108-0.011l-0.093-0.045l-0.056-0.046l-0.061-0.039l-0.111-0.021l-0.157,0.003
	l-0.056-0.011l0.051-0.056l0.025-0.057l0.074-0.333l-0.01-0.068l-0.055-0.077l-0.067-0.148l-0.056-0.29l-0.067-0.143l-0.114-0.049
	l-0.159,0.02l-0.158,0.001l-0.113-0.104l-0.04-0.045l-0.135-0.096l-0.049-0.06l-0.02-0.092l0.107-0.587l0.027-0.072l0.105-0.139
	l0.035-0.074l0.058-0.202l0.002-0.066l-0.035-0.154l-0.002-0.049v-0.005l0.03-0.053l0.051-0.037l0.141-0.049l0.084-0.048
	l0.046-0.069l0.202-0.461l-0.021-0.022l-0.173,0.021l-0.174-0.054l-0.07-0.028l-0.039-0.043l0.007-0.069l0.048-0.054l0.071-0.016
	l0.082-0.004l0.081-0.013l0.057-0.019l0.06-0.007l0.054-0.012l0.043-0.031l0.022-0.126l-0.032-0.511l-0.049-0.132l-0.089-0.093
	l-0.133,0.01l-0.156,0.036l-0.099-0.059l-0.026-0.105l0.063-0.105l0.233-0.133l0.089-0.073l0.032-0.102l-0.053-0.103l-0.094-0.097
	l-0.065-0.096l0.038-0.104l-0.043-0.165l0.002-0.325l-0.035-0.233l-0.032-0.076l-0.061-0.051l-0.096,0.011l-0.057,0.045l-0.114,0.12
	l-0.072,0.022l-0.04-0.013l-0.037-0.06l-0.049-0.019l-0.032,0.006l-0.067,0.042l-0.038,0.01l-0.059-0.017l-0.175-0.067l-0.041-0.021
	l-0.014-0.036l-0.053-0.131v-0.179l0.144-0.451l0.02-0.176l-0.022-0.17l-0.092-0.115l-0.049-0.015l-0.097-0.032l-0.115-0.051
	l-0.076-0.073l-0.03-0.111l0.055-0.424l-0.013-0.139l-0.153-0.443l-0.003-0.067l0.029-0.129l0.001-0.065l-0.076-0.188l0.028-0.138
	l0.147-0.247l0.042-0.132l0.002-0.06l-0.01-0.06l-0.025-0.06l-0.047-0.054l-0.061-0.032l-0.134-0.035l-0.043-0.042l-0.027-0.125
	l0.01-0.254l-0.048-0.135l-0.2-0.287l-0.049-0.1l-0.016-0.125l0.116-0.357l0.003-0.109l-0.061-0.333l0.039-0.112l0.139-0.242
	l0.004-0.109l-0.062-0.07l-0.088-0.047l-0.085-0.056l-0.055-0.095l-0.022-0.333l-0.055-0.102l-0.234-0.222l-0.05-0.099l-0.061-0.243
	l-0.009-0.244l0.049-0.233l0.257-0.462l0.079-0.291l-0.063-0.287l-0.284-0.235l-0.085-0.029l-0.082-0.021l-0.07-0.031l-0.046-0.054
	l-0.017-0.069l0.002-0.081l0.035-0.068l0.085-0.028l0.2-0.014l0.143-0.043l0.105-0.077l0.086-0.113l0.118-0.093l0.314-0.109
	l0.099-0.099l0.014-0.068l-0.008-0.076l-0.026-0.079l-0.044-0.068l-0.066-0.051l-0.148-0.058l-0.069-0.038l-0.047-0.125l0.022-0.192
	l0.072-0.185l0.105-0.105l0.18,0.002l0.225,0.055l0.202-0.012l0.104-0.011l0.062-0.013l0.043-0.026l0.048-0.051l0.11-0.175
	l0.027-0.103l0.044-0.147l0.169-0.706l0.22-0.317l0.358-1.034l0.354-1.034l0.055-0.054l0.073-0.031l0.077,0.001l0.172,0.033
	l0.332-0.054l0.122,0.001l0.486,0.092l0.253,0.017l0.128-0.004l0.109-0.021l0.101-0.051l0.181-0.226l0.061-0.041l0.066-0.007
	l0.069,0.003l0.077-0.005l0.066-0.023l0.162-0.103l0.066-0.019l0.149-0.024l0.057-0.024l0.038-0.059l0.011-0.082l-0.022-0.309
	l0.121-0.529l0.051-0.091l0.097-0.065l0.169-0.039l0.121-0.03l0.035-0.015l0.123-0.126l0.22-0.836l0.079-0.126l0.149-0.112
	l0.067-0.039l0.055-0.038l0.011-0.009l0.041-0.054l0.003-0.063l-0.037-0.061l-0.104-0.103l-0.025-0.071l0.033-0.298l-0.024-0.134
	l-0.131-0.145l-0.064-0.103l-0.007-0.128l0.056-0.112l0.122-0.055l0.001,0.001l0.14-0.011l0.108-0.035l0.047-0.066l-0.042-0.098
	l-0.049-0.044l-0.042-0.047l-0.031-0.049l-0.025-0.051l-0.012-0.047l0.008-0.045l0.021-0.043l0.03-0.041h0.001v-0.001l0,0
	l0.319-0.405l0.143-0.115l0.164-0.101l0.062-0.06l0.032-0.077l-0.006-0.083l-0.065-0.169l-0.016-0.084l0.02-0.085l0.046-0.057
	l0.076-0.033l0.113-0.021l0.096-0.028l0.032-0.047l-0.01-0.062l-0.033-0.074l-0.127-0.194l-0.003-0.068l0.327-0.773l0.126-0.09
	l0.223-0.072l0.061-0.036l0.053-0.077l0.028-0.041l0.054-0.051l0.09-0.013l0.137-0.049l0.113-0.141l0.079-0.165l0.03-0.117
	l-0.009-0.131l-0.036-0.155l-0.122-0.284l-0.109-0.231l-0.093-0.113l-0.136-0.048l-0.095,0.012l-0.063,0.016l-0.033-0.017
	l-0.008-0.236l-0.067-0.295l0.003-0.07l0.04-0.059l0.14-0.077l0.05-0.05l-0.019-0.058l-0.093-0.101l-0.066-0.11l-0.134-0.46
	l-0.149-0.205l-0.915-0.642l-0.069-0.033l-0.089-0.024l-0.081-0.007l-0.152-0.001l-0.151-0.04l-0.257-0.142l-0.151-0.034l0,0l0,0
	h-0.125l-0.1,0.038l-0.078,0.06l-0.051,0.07l-0.075,0.177l-0.05,0.075l-0.23,0.191l-0.08,0.053l-0.1,0.029l-0.414,0.076
	l-0.262,0.046l-0.099-0.028l-0.155-0.158l-0.058,0.007l-0.097,0.079l-0.063,0.032l-0.063,0.016l-0.058,0.021l-0.127,0.122
	l-0.136,0.086l-0.159,0.054l-0.145-0.02l-0.358-0.257l-0.145-0.073l-0.153-0.055l-0.064-0.029l-0.198-0.122l-0.071-0.021
	l-0.102-0.007l-0.169,0.005l-0.07-0.01l-0.079-0.035l-0.055-0.043l-0.092-0.102l-0.054-0.047l-0.28-0.188l-0.092-0.074l-0.035-0.04
	l-0.001-0.048l-0.043-0.142l0.014-0.077l0.108-0.229l-0.078-0.042l-0.108-0.031l-0.212-0.008l-0.108-0.031l-0.077-0.044
	l-0.143-0.099l-0.085-0.045l-0.26-0.221l-0.067-0.289l-0.032-0.583l-0.057-0.107l-0.083-0.108l-0.103-0.102l-0.358-0.255
	l-0.214-0.081l-0.066-0.037l-0.129-0.135l-0.062-0.034l-0.078-0.021l-0.161-0.029l-0.073-0.03l-0.083-0.105l0.021-0.118l0.031-0.025
	l0.073-0.062l0.16-0.008l0.118-0.041l0.081-0.077l0.297-0.464l0.081-0.089l0.093-0.053l0.099-0.039l0.09-0.046l0.063-0.074
	l0.351-0.632l0.09-0.347l0.058-0.08l0.25-0.18l0.269-0.149l0.231-0.168l0.139-0.239l0.024-0.268l0.126-0.312l0.178-0.859l0.14-0.156
	l0.101-0.184l0.902-1.135l0.148-0.118l0.055-0.115l0.024-0.12l0.05-0.113l0.129-0.093l0.156-0.083l0.081-0.09l0.021-0.108
	l-0.053-0.284l0.011-0.128l0.051-0.122l0.134-0.197l0.018-0.153l0.024-0.076l0.037-0.049l0.149-0.136l0.04-0.072l0.026-0.231
	l0.029-0.051l0.109-0.087l0.041-0.049l0.058-0.218l0.053-0.062l0.057-0.041l0.241-0.24l0.084-0.018l0.09,0.054l0.193,0.155
	l0.044,0.009l0.05-0.011l0.09-0.011l0.082,0.004l0.077,0.013l0.156,0.041l0.178,0.01l0.197-0.03l0.187-0.054l0.146-0.062
	l0.068-0.022l0.067,0.005l0.064,0.024l0.053,0.037l0.134-0.053l0.126,0.039l0.121,0.072l0.122,0.045l0.15-0.021l0.109-0.071
	l0.174-0.16l0.149-0.045l0.101,0.041l0.088,0.081l0.104,0.075l0.135,0.031l0.147-0.013l0.136-0.043l0.097-0.061l0.08-0.123
	l0.092-0.283l0.12-0.106l0.448-0.162l0.092-0.081l0.002-0.005l0.184-0.401l0.34-0.327l0.076-0.11l0.058-0.132l0.012-0.461
	l0.092-0.202l0.263-0.083l0.144-0.021l0.092-0.059l0.048-0.083l0.016-0.296l0.035-0.089l0.066-0.097l0.159-0.16l0.126-0.185
	l0.04-0.193l-0.2-0.371l0.033-0.174l0.226-0.355l0.063-0.186l0.003-0.243l-0.066-0.233l-0.149-0.163l-0.095-0.074l-0.096-0.165
	l-0.07-0.09l-0.067-0.089l-0.041-0.089l-0.03-0.204l0.062-0.296l-0.008-0.099l-0.036-0.069l-0.097-0.126l-0.013-0.075l0.041-0.267
	l-0.015-0.086l-0.095-0.187l-0.019-0.069l-0.003-0.095l0.093-0.331l0.004-0.082l-0.012-0.083l-0.027-0.078l-0.236-0.343
	l-0.054-0.115l0.002-0.147l0.373-0.872l0.02-0.407l0.032-0.076l0.08-0.133l0.052-0.14l0.021-0.155l0.028-0.076l0.151-0.145
	l0.032-0.009l0.043,0.004h0.044l0.039-0.007l0.024-0.021l0.059-0.227l0.043-0.07l0.106-0.108l0.043-0.058l0.017-0.064l-0.106-0.579
	v-0.315l0.078-0.31l0.12-0.251l0.089-0.115l0.432-0.397l0.071-0.103l0.046-0.022l0.178-0.03l0.048-0.019l0.073-0.053l0.034-0.02
	l0.052-0.012l0.111-0.018l0.053-0.022l0.04-0.035l0.054-0.084l0.034-0.038l0.162-0.133l0.068-0.076l0.052-0.092v-0.087l-0.031-0.077
	l-0.003-0.072l0.175-0.159l0.128-1.058l0.026-0.043l0.01-0.016l0.091-0.1l0.026-0.06l-0.003-0.092l0.005-0.034l0.063-0.132
	l0.023-0.14l0.051-0.026l0.118,0.02l0.077,0.03l0.062,0.031l0.068,0.021h0.098l0.228-0.035l0.173-0.005l0.058,0.007l0.055,0.02
	l0.169,0.078l0.06,0.003l0.035-0.033l0.017-0.068l0.001-0.117l0.038-0.036l0.1,0.031l0.073,0.012l0.074-0.026l0.064-0.045
	l0.184-0.203l0.037-0.057l0.056-0.242l0.042-0.075l0.051-0.038l0.062-0.022l0.065-0.019l0.065-0.024l0.229-0.154l0.404-0.381
	l0.151-0.179l0.016-0.093l0.02-0.111l-0.044-0.422l0.028-0.316l-0.02-0.212l0.121-0.293v-0.074l-0.057-0.304l0.066-0.366
	l0.033-0.073l0.048-0.068l0.077-0.156l0.033-0.058l-0.004-0.116l0.027-0.032l0.027-0.009l0.084-0.007l0.035-0.011l0.033-0.05
	l0.037-0.069l-0.003-0.625l0.081-0.162l0.117-0.089l0.007-0.042l0.077-0.234l0.291-0.773l-0.008-0.128l-0.046-0.129l-0.078-0.124
	l-0.108-0.111l-0.062-0.049l-0.031-0.031l0.011-0.032l0.182-0.141l0.04-0.052l0.057-0.165l0.198-0.271l0.046-0.119l0.018-0.125
	l-0.007-0.127l-0.096-0.326l-0.187-0.372l-0.361-0.521l-0.123-0.4l-0.034-0.055l-0.108-0.089l-0.042-0.052l-0.009-0.071l0.027-0.065
	l0.079-0.126l0.02-0.073l0.002-0.071l-0.014-0.072l-0.166-0.337l-0.04-0.13l-0.024-1.078l-0.118-0.285l-0.38-0.901l-0.018-0.119
	l0.047-0.322l0.148-0.25l0.024-0.087l-0.005-0.094l-0.035-0.127l-0.132-0.267l-0.156-0.172l-0.043-0.063l-0.03-0.065l-0.018-0.067
	l-0.002-0.148l-0.032-0.05l-0.101-0.033l-0.164-0.011l-0.072-0.01l-0.084-0.031l-0.411-0.209l-0.112-0.077l-0.091-0.088
	l-0.451-0.595l-0.108-0.079l-0.05-0.047l-0.107-0.151l-0.055-0.051l-0.122-0.151l-0.263-0.5l-0.013-0.061l0.023-0.122l0.001-0.061
	l-0.018-0.037l-0.365-0.359l-0.037-0.059l-0.035-0.121l-0.032-0.058l-0.186-0.182l-0.146-0.236l-0.094-0.249l0.022-0.134
	l0.145-0.263l0.037-0.138l-0.077-0.536l0.071-0.27l0.428-0.7l0.054-0.051l0.06-0.037l0.135-0.062l0.062-0.04l0.49-0.424l0.353-0.458
	l0.02-0.056l-0.002-0.18l0.019-0.066v-0.103l-0.032-0.2l0.071-0.304l-0.002-0.095l-0.033-0.1l-0.537-0.869l-0.078-0.235
	l-0.001-0.237l0.092-0.241l0.315-0.797l0.11-0.123l0.153-0.106L1234.853,267.96z"/></svg>