<?xml version="1.0" encoding="utf-8"?>
<!-- Generator: Adobe Illustrator 15.0.0, SVG Export Plug-In . SVG Version: 6.00 Build 0)  -->
<!DOCTYPE svg PUBLIC "-//W3C//DTD SVG 1.1//EN" "http://www.w3.org/Graphics/SVG/1.1/DTD/svg11.dtd">
<svg version="1.1" id="Ebene_1" xmlns="http://www.w3.org/2000/svg" xmlns:xlink="http://www.w3.org/1999/xlink" x="0px" y="0px"
	 width="1920px" height="1080px" viewBox="0 0 1920 1080" enable-background="new 0 0 1920 1080" xml:space="preserve">

<path fill="#F4E0B6" stroke="#FFFFFF" d="M570.725,955.479l0.027,0.071l0.099,0.048l0.084,0.009l-0.004,0.068l-0.089,0.007
	l-0.079,0.019l-0.056,0.045l-0.042-0.076l-0.026-0.071l-0.01-0.065l-0.064-0.031l0.005-0.068l-0.024-0.075l0.11-0.016l0.07,0.023
	l0.021-0.052l0.084-0.045l0.072,0.02l0.08,0.052l-0.021,0.052l-0.066-0.021l-0.034,0.055l-0.073,0.017L570.725,955.479z
	 M571.201,954.544l-0.034,0.135l0.122,0.065l0.042,0.047v0.075l-0.023,0.013l-0.027,0.02l-0.029,0.028l-0.028,0.03l0.022,0.058
	l-0.041,0.051l-0.067,0.03l-0.057-0.004l-0.022-0.009l-0.034-0.001l-0.034,0.009l-0.058,0.047l-0.021-0.017v-0.04l0.029-0.051
	l0.003-0.007l0.002-0.007l0.001-0.009v-0.009l0.044-0.013l0.054-0.037l0.053-0.058l0.038-0.076l0.004-0.071l-0.021-0.05
	l-0.011-0.054l0.031-0.078l0.06-0.067L571.201,954.544z M574.628,956.158l0.011,0.01l0.024,0.011l0.024-0.007l0.015-0.029
	l0.014,0.003l0.007,0.015l0.009,0.054l-0.003,0.006l-0.014-0.002l-0.022,0.026l-0.029,0.027l-0.026-0.019l-0.03-0.051l-0.021-0.014
	l-0.01,0.017l-0.012,0.049l-0.022,0.009l-0.023-0.022l-0.009,0.01l0.013,0.034l0.033,0.005l0.035-0.01l-0.001,0.012l-0.035,0.027
	l-0.03,0.035l-0.021,0.039l-0.012,0.061l-0.017,0.021l-0.019,0.011l-0.014,0.026l-0.005,0.041l-0.023,0.009l-0.041-0.042
	l-0.003-0.035l0.031-0.01l0.019-0.025l-0.012-0.01l-0.031-0.009l-0.023-0.046l-0.014-0.051l-0.034-0.065l0.008-0.024l0.022-0.034
	l0.01-0.041l-0.01-0.049l0.004-0.049l0.034-0.015l0.042-0.001l0.045,0.004l0.04,0.015h0.034l0.024,0.01l0.009-0.002l-0.004-0.029
	l0.015-0.006l0.033,0.028l0.019,0.03v0.027L574.628,956.158z M571.886,954.046l-0.021,0.044l-0.039,0.015l-0.028-0.007l-0.01-0.015
	l0.003-0.014l0.003-0.017l-0.001-0.018l-0.011-0.01l-0.015-0.005l0.001-0.022l0.045-0.039l0.015-0.034l0.036-0.035l0.048-0.011
	l0.017,0.025l-0.016,0.026l-0.029,0.028l-0.007,0.037l0.008,0.021L571.886,954.046z M568.601,951.062l-0.016,0.024l0.013,0.027
	l0.021,0.021l0.029,0.011l0.033,0.004l-0.117,0.062l-0.082-0.053l-0.046-0.118l-0.015-0.133l0.02-0.006h0.018l0.03,0.008
	l0.015,0.024l0.041,0.05l0.013,0.064l0.021-0.009l0.04-0.045l0.02-0.016l0.022-0.023l0.026-0.02l0.031,0.007l0.018,0.02l0.007,0.026
	l-0.002,0.037l-0.008,0.042l-0.031-0.007L568.601,951.062z M569.365,951.716l-0.044,0.038l-0.125,0.083l0.097,0.065l-0.042,0.023
	l-0.063,0.063l-0.033,0.02l-0.049,0.002l-0.126-0.043l-0.083-0.021l-0.046-0.033l-0.079-0.12l0.035-0.034l0.016-0.011l-0.033-0.022
	l0.001-0.035l0.015-0.038l0.004-0.029l-0.017-0.025l-0.045-0.037l-0.017-0.028l-0.001-0.014l0.001-0.015l-0.002-0.011l-0.012-0.009
	l0.073-0.075l0.021-0.067l-0.016-0.058l-0.035-0.042l0.074-0.026l0.047-0.002l0.042,0.019l0.093,0.063l0.017,0.007l0.071-0.05
	l0.091-0.044l0.045-0.012l0.045,0.004l0.013,0.005l0.025,0.017l0.009,0.009l0.01,0.026l-0.003,0.018l-0.006,0.016l-0.001,0.015
	l0.032,0.056l0.001,0.043l-0.037,0.034l-0.069,0.013l-0.16-0.006l-0.085,0.039l-0.026,0.031l0.006,0.017l0.208,0.051l0.115-0.022
	l0.063,0.003l0.065-0.016l0.079-0.079l0.01-0.037l-0.015-0.028v-0.025l0.056-0.028l0.048-0.01l0.029,0.015l0.004,0.033l-0.027,0.059
	l-0.026,0.031l-0.037,0.035l-0.036,0.026l-0.027,0.016l-0.036,0.028l-0.068,0.095L569.365,951.716z M569.043,950.573l-0.056-0.002
	l-0.089-0.065l-0.053-0.001l-0.043,0.027l-0.037,0.042l-0.074,0.119l-0.022-0.03l-0.017-0.04l-0.005-0.046l0.017-0.056l0.064-0.07
	l0.051-0.042l0.051-0.016l0.066,0.01l0.051,0.032l0.058,0.097L569.043,950.573z M574.194,952.106l0.001,0.038l0.169,0.265
	l0.032,0.09l-0.002,0.081l-0.096-0.075l-0.054-0.007l-0.06,0.047l-0.031,0.066l0.029,0.022l0.047,0.013l0.028,0.032l-0.088-0.003
	l-0.193,0.055l-0.084,0.008l0.013-0.055l-0.015-0.03l-0.033-0.01l-0.042,0.003l-0.018,0.026l-0.005,0.026l-0.019,0.022l-0.062,0.049
	l0.023,0.002l0.058,0.02l-0.017,0.023l-0.146,0.059l-0.025,0.021l-0.079,0.104l-0.033,0.013l-0.041-0.001l-0.108,0.036l-0.043-0.007
	l-0.016-0.034l0.009-0.043l0.028-0.044l0.036-0.034l-0.133,0.041l-0.062,0.009l-0.02-0.042l-0.216,0.048l0.068,0.039l-0.037,0.036
	l-0.153,0.057l-0.235,0.131l-0.115,0.038l-0.251,0.044l-0.492,0.213l-0.113,0.069l-0.062,0.048l-0.059,0.034l-0.058,0.01
	l-0.121-0.04l-0.224,0.016l0.058-0.129l0.004-0.021l-0.053-0.049l-0.024-0.034l-0.002-0.026l0.019-0.051l-0.023-0.013l-0.038,0.005
	l-0.028,0.011l-0.032,0.038l-0.026,0.1l-0.031,0.033l-0.065-0.003l-0.189-0.151l-0.075-0.004l-0.03-0.016l0.009-0.045l0.023-0.018
	l0.073-0.02l0.035-0.024l-0.196-0.035l-0.062,0.012l-0.071,0.056l-0.025,0.07l-0.016,0.085l-0.043,0.099l-0.05,0.052l-0.06,0.031
	l-0.337,0.11l-0.043,0.006l-0.049-0.038l-0.036-0.105l-0.053-0.027l0.005,0.012l-0.01,0.022l-0.018,0.024l-0.015,0.014h-0.022
	l-0.005-0.027l-0.001-0.033l-0.021-0.056l0.005-0.103l-0.003-0.026l-0.02-0.029l-0.019-0.073l-0.031-0.021l-0.025,0.008
	l-0.021,0.023l-0.009,0.031l0.042,0.076v0.078l-0.02,0.088l-0.031,0.08l-0.172,0.058l-0.18-0.009l-0.116-0.098l0.02-0.21
	l0.029,0.022l0.017,0.024l0.019,0.016l0.034,0.002l-0.021-0.064l-0.014-0.106l-0.002-0.112l0.017-0.079l0.024-0.001l0.057-0.019
	l0.039-0.033l-0.025-0.042l-0.228-0.167l-0.036-0.008l-0.038,0.016l0.003,0.026l0.025,0.027l0.029,0.024l0.031,0.053l0.016,0.096
	l-0.002,0.103l-0.017,0.079l-0.135-0.09l-0.034-0.031l-0.007-0.033l0.005-0.034l-0.008-0.223l-0.009-0.047l-0.027-0.025l-0.033-0.02
	l-0.026-0.029l-0.014-0.069l-0.004-0.164l-0.02-0.063l-0.09-0.097l-0.008-0.067l0.076-0.085l0.05-0.025l0.05,0.054l0.09,0.139
	l0.097,0.074l0.014,0.033l-0.016,0.046l-0.029,0.044l-0.009,0.039l0.048,0.025l0.053-0.158l0.172,0.082l0.187,0.035l0.018-0.026
	l-0.045-0.094l-0.056-0.055l-0.035-0.067l0.015-0.133l0.204,0.132l0.088,0.099l-0.009,0.111l0.015,0.011l0.028-0.023l0.021-0.012
	l0.053-0.017l-0.023,0.044l-0.01,0.042l0.009,0.027l0.036-0.005l0.041-0.012l0.025,0.013l0.019,0.026l0.057,0.055l0.016,0.029
	l0.017,0.06l0.01,0.069l0.02,0.016l0.05-0.032l-0.017-0.046l0.018-0.028l0.059,0.041l0.074,0.03l0.081,0.015l0.077-0.008
	l0.136-0.078l0.024-0.01l0.018-0.011l0.007-0.04l-0.014-0.034h-0.048l-0.136,0.024l-0.141-0.027l-0.114-0.08l-0.06-0.122
	l0.176,0.138l0.064,0.005l0.024-0.001l0.058,0.009l0.024-0.015l0.031-0.03l0.041-0.025l0.041-0.017l0.031-0.007l0.009-0.063
	l0.021-0.029l0.029-0.018l0.028-0.028l0.021-0.038l0.043-0.095l0.033-0.057l0.067-0.052l0.088-0.013l0.077,0.022l0.038,0.049
	l-0.039,0.021l-0.038,0.017l-0.072,0.018l0.083,0.029l0.03,0.021l-0.009,0.04l-0.03,0.032l-0.116,0.083l0.016,0.036l0.026,0.11
	l0.044-0.062l0.05-0.036l0.048-0.006l0.042,0.034l0.009-0.077l0.022-0.051l0.086-0.127l0.033-0.031l0.037-0.01l0.033,0.009
	l0.022,0.02l0.003,0.027l-0.024,0.074l-0.004,0.04l0.019,0.007l0.033-0.005l0.022,0.009l-0.019,0.045l0.004,0.017h0.033l0.116-0.021
	l0.054-0.069l0.05-0.084l0.042-0.056l-0.048-0.064l-0.066-0.026l-0.073-0.012l-0.065-0.023l-0.123-0.113l-0.072-0.021l-0.039,0.093
	l-0.048,0.033l-0.018-0.011l-0.01-0.031l-0.022-0.02l-0.151,0.002l-0.04-0.01l-0.104-0.07l-0.042-0.009l-0.038,0.021l-0.036,0.027
	l-0.034,0.016l-0.047-0.03l0.013-0.076l0.022-0.085l-0.02-0.062l-0.036-0.06l-0.005-0.089l0.025-0.099l0.054-0.08l0.077-0.046
	l0.033,0.033l0.02,0.066l0.185,0.232l0.065,0.048l0.073,0.01l0.165-0.019l0.066,0.019l0.172,0.143l0.209,0.041l0.042,0.04
	l0.031,0.171l0.038,0.066l0.12,0.102l0.014-0.097l-0.03-0.078l-0.053-0.062l-0.059-0.043l-0.031-0.057l-0.032-0.258l-0.015-0.032
	l-0.035-0.052l-0.011-0.038l0.004-0.149l-0.057-0.048l-0.236-0.397l-0.01-0.049l0.028-0.099l0.025-0.05l0.035-0.006l0.138,0.091
	l0.093,0.106l0.037-0.001l0.019-0.104l-0.014-0.086l-0.039-0.077l-0.051-0.067l-0.082-0.071l-0.069-0.039l-0.029-0.025l-0.045-0.094
	l-0.027-0.028l-0.018-0.024l-0.011-0.041l0.002-0.044l0.023-0.027l0.036-0.038l0.019-0.056l0.019-0.109l0.025,0.021l0.025,0.015
	l0.03,0.005l0.034-0.005l0.042,0.107l0.191,0.283l0.048,0.107l0.103,0.376l0.125,0.229l0.189,0.175l0.436,0.181l-0.011-0.107
	l-0.156-0.128l0.081-0.075l0.093-0.035l0.089-0.016l0.047-0.043l0.026-0.006l0.009,0.046l-0.006,0.031l-0.048,0.11l0.224-0.029
	l0.101,0.017l0.053,0.07l-0.018,0.028l-0.021,0.003l-0.014,0.008l-0.015,0.012l-0.017,0.01l0.191,0.193l0.045,0.082l-0.049-0.005
	l-0.045-0.019l-0.083-0.058l0.016,0.126l0.125,0.086l0.51,0.193l0.054,0.01l0.128-0.022l0.056,0.02l-0.018,0.026l-0.247,0.014
	l-0.082-0.01l0.064,0.138l0.111,0.078l0.29,0.066l0.008-0.048l-0.005-0.054l-0.015-0.047l-0.022-0.028v-0.034l0.074-0.117
	l0.026-0.053l0.019,0.015l0.044,0.022l0.018,0.017l0.007-0.021l0.024-0.049l0.007-0.02l0.034,0.021l0.036,0.039l0.022,0.048
	L574.194,952.106z M573.392,951.512l0.031,0.094l0.055-0.077l0.047,0.044l-0.029,0.071l0.031,0.068l0.08,0.073l-0.022,0.052
	l-0.079-0.03l-0.118-0.014l-0.099-0.006l-0.074-0.037l-0.038-0.093l0.046-0.054l0.075-0.01l-0.045-0.056l-0.103-0.045l-0.042-0.094
	l0.01-0.055l0.07,0.035l0.074,0.039l0.065-0.059l0.046,0.036l0.008,0.061L573.392,951.512z M572.94,951.16l-0.068-0.016
	l-0.046-0.035l-0.027-0.061l-0.011-0.071l0.001-0.077l0.015-0.076l0.134,0.037l0.036,0.024l0.03,0.035l0.056,0.117l0.015,0.011
	h-0.049l-0.016-0.008l-0.02,0.029l0.003,0.068L572.94,951.16z M572.356,950.561l0.06,0.051l0.063,0.036l0.147,0.053l0.047,0.057
	l-0.028,0.1v0.023l-0.009,0.055l-0.023,0.046l-0.04,0.002l-0.158,0.049l-0.096,0.065l-0.022,0.009l-0.022-0.019L572.233,951
	l-0.021-0.027l-0.189-0.08l-0.031-0.028l-0.03-0.049l-0.011-0.061l0.028-0.058l0.07-0.034l0.079,0.005l0.125,0.058l0.015,0.034
	l-0.001,0.107l0.014,0.033l0.036,0.021l0.036,0.013l0.039,0.001l0.044-0.007l-0.015-0.072l-0.078-0.166l-0.071-0.089l-0.056-0.16
	l-0.01-0.056l-0.001-0.084l0.015-0.028l0.041-0.007l0.042,0.021l0.005,0.039l-0.012,0.048l-0.006,0.048l0.021,0.075L572.356,950.561
	z M571.583,950.112l-0.018-0.003l0.006-0.028l0.012-0.023l0.003-0.022l-0.021-0.029l-0.039-0.044l-0.021-0.072l0.03-0.1l0.054-0.013
	l0.028,0.101l0.007,0.063l0.009,0.026l0.007,0.058l-0.021,0.053L571.583,950.112z M575.735,953.025l0.047,0.05l0.119,0.084
	l0.018,0.03l0.011,0.037l0.015,0.033l0.033,0.026l0.016-0.022l0.023-0.055l0.064-0.018l0.075,0.007l0.235,0.134l0.025,0.051
	l0.017,0.061l0.072,0.101l0.013,0.071l0.016,0.207l-0.021,0.064l-0.045,0.086l-0.025,0.061l-0.042,0.036l-0.086,0.01l-0.06-0.011
	l-0.071-0.027l-0.062-0.036l-0.034-0.045l0.007-0.061l0.05-0.161l-0.009-0.059l-0.047-0.017l-0.066,0.019l-0.135,0.056l0.076,0.058
	l-0.021,0.063l-0.145,0.153l0.011,0.049l0.205,0.019l0.049,0.043l-0.018,0.048l-0.037,0.048l-0.044,0.044l-0.036,0.044l-0.043,0.068
	l-0.008,0.031l0.036,0.025h0.012l0.041-0.025l0.02,0.003l0.001,0.018l-0.024,0.069l-0.007,0.027l0.016,0.045l0.038,0.023h0.047
	l0.044-0.026l0.027,0.064l0.002,0.062l-0.023,0.066l-0.047,0.078l-0.021,0.063l-0.012,0.089v0.087l0.017,0.047l0.057,0.004
	l0.02-0.071l0.01-0.147l0.057-0.029l0.042,0.046l0.055,0.135l0.046-0.104l-0.029-0.079l-0.043-0.067l0.004-0.065l0.035-0.017
	l0.046-0.003l0.043-0.016l0.021-0.058l-0.019-0.039l-0.093-0.016l-0.031-0.03l-0.001-0.047l0.018-0.03l0.024-0.031l0.019-0.047
	l0.003-0.03v-0.034l-0.012-0.016l-0.031,0.03l-0.035,0.031l-0.037,0.004l-0.034-0.011l-0.027-0.017l-0.017-0.035l0.034-0.027
	l0.079-0.027l0.26-0.154l0.053-0.016l0.034,0.006l0.101-0.013l0.039,0.01l0.51,0.309l0.156,0.049l0.069,0.05l0.048,0.063l0.011,0.04
	l-0.002,0.058l-0.069,0.189l-0.001,0.033l0.01,0.039l-0.015,0.18l0.006,0.045l0.019,0.043l0.049,0.064l-0.046,0.025l-0.063-0.003
	l-0.045,0.028l0.059,0.043l-0.006,0.048l-0.05,0.029l-0.074-0.016l-0.259-0.247l-0.111-0.264l-0.04-0.047l-0.041,0.018l-0.036,0.114
	l-0.085-0.143l-0.2-0.025l-0.007,0.103l0.037,0.115l0.058,0.102l0.054,0.063l0.156,0.06l0.036,0.09l0.198,0.178l0.068,0.089
	l0.036,0.104l-0.031,0.112l-0.076,0.019l-0.12-0.031l-0.186-0.085l-0.02,0.027l0.102,0.154l0.054,0.035l0.115,0.032l0.048,0.025
	l0.042,0.052l-0.018,0.026l-0.069-0.04l-0.316-0.047l-0.053-0.025l-0.159-0.107l-0.038-0.01l-0.023,0.028l-0.048,0.008l-0.04-0.008
	l-0.379-0.208l-0.158-0.156l-0.093-0.061l-0.018,0.026l0.024,0.027l0.047,0.106l0.028,0.04l0.113,0.097l-0.017,0.028l-0.079-0.025
	l-0.129-0.106l-0.077-0.032l-0.231-0.007l-0.063-0.042l0.033,0.062l0.049,0.029l0.193,0.028l0.154,0.109l-0.061,0.021l-0.087,0.001
	l-0.084-0.011l-0.119-0.039l-0.253-0.007l-0.145-0.027l-0.187-0.186l-0.125-0.076l-0.103-0.027l-0.362-0.266l-0.04-0.063
	l-0.026-0.133l-0.079-0.118l-0.02-0.084l-0.031-0.063l-0.004-0.045l0.011-0.042l0.019-0.047l0.01-0.043l-0.012-0.031l-0.044,0.003
	l-0.062,0.038l-0.058,0.048l-0.032,0.032l-0.021,0.059l-0.001,0.068l0.013,0.066l0.084,0.108l0.059,0.118l0.038,0.129l-0.006,0.106
	l-0.079,0.046l0.046,0.063l0.156,0.053l0.064,0.052l0.07,0.087l0.031,0.097l-0.052,0.081l0.026,0.099l-0.177,0.003l-0.07,0.021
	l0.009,0.047l-0.007,0.047l-0.02,0.054l-0.071,0.148l-0.027,0.039l-0.028,0.001l-0.04-0.024l-0.008-0.034l0.026-0.196l0.001-0.06
	l-0.004-0.054l-0.017-0.046l-0.037-0.038l-0.014-0.022l-0.004-0.055l-0.01-0.02l-0.019-0.001l-0.018,0.013l-0.021,0.013l-0.031-0.01
	l-0.017-0.019l-0.022-0.042l-0.014-0.017l-0.04-0.008l-0.019,0.033l-0.012,0.044l-0.019,0.028l-0.055,0.016l-0.103-0.004
	l-0.055,0.015l-0.057,0.003l0.006-0.063l0.061-0.151l-0.086,0.023l-0.004-0.052l0.031-0.083l0.019-0.069l-0.031-0.062l-0.061-0.021
	l-0.039-0.029l0.029-0.081l-0.058-0.006l-0.027-0.035l-0.021-0.116l0.003-0.04l-0.003-0.024l-0.015-0.017l-0.036-0.007l-0.024,0.014
	l-0.022,0.019l-0.033,0.01l-0.044-0.004l-0.032-0.018l-0.026-0.027l-0.023-0.038l-0.011-0.029l-0.003-0.031l-0.008-0.025
	l-0.022-0.024l-0.022-0.003l-0.058,0.014l-0.026-0.004l-0.039,0.005l-0.016,0.054l0.016,0.052l0.099,0.002l0.099,0.115l0.017,0.048
	l-0.033,0.061l-0.038,0.056l0.001,0.038l0.051,0.022l0.041,0.007l0.033,0.019l0.025,0.058l-0.147,0.05l0.087,0.054l0.035,0.035
	l0.017,0.052l-0.065,0.013l-0.115-0.024l-0.05,0.01l-0.066,0.062l0.018,0.047l0.057,0.032l0.165,0.042l0.046,0.029l-0.02,0.043
	l-0.046,0.018l-0.17-0.005l-0.005,0.073l0.02,0.084l-0.003,0.074l-0.074,0.04l-0.058-0.021l-0.04-0.064l-0.055-0.138l-0.054-0.049
	l-0.059-0.026l-0.043-0.038l-0.009-0.086l0.01-0.042l0.017-0.035l0.012-0.039l0.001-0.052l-0.015-0.035l-0.024-0.026l-0.017-0.035
	l0.002-0.06l-0.054-0.008l-0.017-0.178l-0.036-0.043l-0.025,0.017l-0.041,0.041l-0.062,0.069l-0.029,0.016l-0.009-0.045l0.003-0.094
	l-0.076,0.004l-0.024,0.086l0.005,0.159l-0.008-0.005l-0.032,0.013l-0.039,0.024l-0.031,0.032l-0.005,0.034l0.021,0.029l0.051,0.043
	l0.034,0.074l0.006,0.072l-0.023,0.068l-0.062,0.068l-0.024,0.006l-0.051,0.019l-0.038,0.03l0.018,0.038l-0.005,0.018l0.011,0.099
	l0.009,0.013l-0.063,0.058l-0.03-0.055l-0.012-0.154l-0.031-0.07l-0.1-0.106l-0.02-0.082l0.06-0.07l0.004-0.068l-0.028-0.06
	l-0.087-0.103l-0.019-0.06l0.031-0.051l0.099-0.026l-0.025-0.051l-0.098-0.025l-0.021-0.041l0.009-0.027l0.035-0.05l0.009-0.021
	l-0.015-0.136l-0.04-0.128l-0.006-0.04l-0.001-0.057l0.012-0.055l0.033-0.039l0.025-0.002l0.018,0.017l0.012,0.024l0.007,0.027
	l0.01,0.092l0.009,0.022l0.045,0.025l0.048-0.008l0.036-0.042l0.006-0.079l0.109,0.044l0.063-0.002l0.06-0.045l-0.026-0.049
	l-0.022-0.068l-0.007-0.073l0.02-0.068l0.025-0.035l0.023-0.007l0.014,0.019l0.002,0.047l0.011,0.032l0.032,0.025l0.067,0.039
	l0.014-0.104v-0.04l-0.007-0.047l0.052,0.007l0.092,0.043l0.051,0.007l0.019-0.028l-0.104-0.129l-0.033-0.084l0.051-0.08
	l0.079,0.002l0.058,0.081l0.047,0.103l0.052,0.056l0.08-0.016l-0.003-0.072l-0.029-0.092l-0.001-0.069l0.042-0.035l0.032,0.018
	l0.031,0.032l0.04,0.01l0.036-0.022l0.022-0.036l0.002-0.038l-0.021-0.033h0.057l0.219,0.051l0.015,0.081l0.055-0.022l0.15-0.16
	l0.01,0.064l0.032,0.034l0.097,0.035l0.023-0.121l0.019-0.048l0.331-0.01l0.003,0.082l0.046-0.006l0.065-0.032l0.055-0.003
	l0.201,0.087l0.033,0.035l-0.007,0.04l-0.022,0.035l-0.027,0.034l-0.02,0.038l-0.007,0.037l-0.002,0.038l-0.005,0.038l-0.019,0.04
	l-0.031,0.032l-0.036,0.027l-0.031,0.024l-0.025,0.069l-0.023,0.03l-0.029,0.029l-0.024,0.021l0.05,0.011l0.051,0.02l0.054,0.002
	l0.057-0.039l0.026-0.066l0.018-0.087l0.024-0.087l0.077-0.098l-0.008-0.054l0.004-0.064l0.068-0.071l0.034-0.007l0.029,0.016
	l0.028,0.007l0.032-0.028l0.018-0.042l-0.016-0.017l-0.026-0.013l-0.029-0.064l-0.119-0.181l-0.041-0.169l0.01-0.128l0.085-0.039
	l0.12-0.033l0.112-0.121l-0.04,0.322l0.019,0.135l0.12-0.071l-0.001-0.135l0.044-0.101l0.065-0.022l0.063,0.1l-0.017-0.108
	l-0.145-0.251l-0.023-0.065l0.048-0.054l0.064-0.049l0.064-0.03l0.052-0.002l0.009,0.017l0.022,0.067l0.013,0.024l0.028,0.022
	l0.093,0.027l0.031-0.003l0.037-0.029l0.033-0.033l0.019-0.012l0.16,0.105l0.066,0.021h0.068l0.057-0.038l0.021-0.063l0.003-0.151
	l0.021-0.085l-0.002-0.046l-0.007-0.044l-0.009-0.023v-0.024l0.05-0.14l0.035,0.055l0.013,0.146l0.021,0.047l0.046,0.043
	l0.081,0.122L575.735,953.025z M573.628,951.16l0.043,0.059l0.258,0.138l0.018,0.02l-0.008,0.015l-0.016,0.018l-0.006,0.025
	l-0.002,0.036l-0.009,0.03l0.003,0.027l0.03,0.03h0.023l0.026-0.017l0.023-0.021l0.016-0.011l0.039-0.003l0.021,0.003l0.026,0.013
	l0.039,0.058l0.003,0.082l-0.026,0.096l-0.048,0.097l-0.067-0.025l-0.075-0.004l-0.141-0.087l-0.036-0.067l0.008-0.185l-0.041-0.07
	l-0.248-0.206l-0.082-0.093l-0.012-0.029l0.005-0.043l0.018-0.038l0.028-0.017l0.037,0.019l0.072,0.007l0.045,0.064L573.628,951.16z
	 M570.925,948.358l-0.021-0.007l-0.027-0.031l-0.054-0.089l-0.027-0.03l-0.016-0.023l0.011-0.021l0.032-0.006l0.025-0.009l0.01-0.02
	l0.008-0.051l0.022-0.031l0.027,0.029l0.011,0.053l0.001,0.073l-0.003,0.029l-0.007,0.033l-0.003,0.016l0.018,0.036l0.003,0.025
	L570.925,948.358z"/></svg>