<?xml version="1.0" encoding="utf-8"?>
<!-- Generator: Adobe Illustrator 15.0.0, SVG Export Plug-In . SVG Version: 6.00 Build 0)  -->
<!DOCTYPE svg PUBLIC "-//W3C//DTD SVG 1.1//EN" "http://www.w3.org/Graphics/SVG/1.1/DTD/svg11.dtd">
<svg version="1.1" id="Ebene_1" xmlns="http://www.w3.org/2000/svg" xmlns:xlink="http://www.w3.org/1999/xlink" x="0px" y="0px"
	 width="1920px" height="1080px" viewBox="0 0 1920 1080" enable-background="new 0 0 1920 1080" xml:space="preserve">

<path fill="#F4E0B6" stroke="#FFFFFF" d="M642.332,583.677l-0.773,0.816l-0.996,1.051l-1.042,1.071l-1.025,0.923l-1.117,1.005
	l-0.419,0.362l-0.833,0.735l-0.97,0.8l-0.189,0.18l-0.049,0.046l-0.016,0.076l0.021-0.006l0.056,0.011l0.063,0.021l0.039,0.026
	l0.102,0.028l0.299,0.248l0.134,0.068l0.132,0.098l0.278,0.354l0.208,0.062l0.034,0.066l0.035,0.207l0.172,0.074l0.145,0.171
	l0.067,0.178l-0.063,0.092l0.079,0.082l0.183,0.541l-0.218,0.135l-0.017,0.033l0.11,0.081l0.06,0.017l0.044-0.022l0.024-0.032
	l-0.006-0.011l0.014-0.017v-0.024l0.004-0.027l0.028-0.028l0.026,0.01l0.034,0.031l0.042,0.021l0.048-0.021l0.076-0.05l0.076-0.015
	l0.071-0.005l0.056-0.015l0.062-0.055l0.057-0.115l0.054-0.063l0.03,0.024l-0.04,0.037l-0.01,0.015l0.025,0.019l0.077,0.007
	l0.098,0.108l0.078,0.023l-0.018-0.149l-0.016-0.075l-0.045-0.087l0.005-0.062l0.016-0.064l0.002-0.052l-0.087-0.22l0.005-0.094
	l0.118-0.02l0.031,0.078l0.071,0.132l0.021,0.062l0.008,0.201l0.042,0.108l0.055,0.319l0.247,0.49l0.028,0.216l0.027,0.049
	l0.04,0.276l0.089,0.16l0.001,0.003l0,0l-0.063-0.02l-0.045,0.025l-0.037,0.044l-0.076,0.03l0.002-0.046l-0.097-0.025l-0.089-0.014
	l-0.086-0.027l-0.086-0.062l-0.051,0.012l-0.31,0.102l-0.353,0.03l-0.473-0.009l-0.226-0.003h-0.001l-0.601-0.014l-0.6-0.015
	l-0.601-0.013l-0.597-0.014l-0.879-0.021l-0.205-0.045l-0.544-0.186l-0.185-0.034h-0.045h-0.1l-0.119,0.03l-0.24,0.13l0.014,0.129
	l-0.101,0.102l-0.16,0.071l-0.072,0.017l-0.091,0.022l-0.182,0.004l-0.077,0.021l-0.076,0.068l-0.033,0.068l-0.013,0.079
	l-0.005,0.152l-0.019,0.087l-0.09,0.229l-0.006,0.087l0.008,0.059l-0.006,0.038l-0.003,0.014l-0.058,0.072l-0.04,0.023l-0.087,0.01
	l-0.038,0.014l-0.175,0.208l-0.07,0.068l-0.083,0.049l-0.09,0.007l-0.052-0.032l-0.073-0.11l-0.043-0.046l-0.079-0.044l-0.05-0.004
	l-0.05,0.016l-0.081,0.014l-0.231,0.006l-0.115,0.014l-0.108,0.036l-0.067,0.008l-0.115-0.047l-0.068-0.007l-0.077,0.031
	l-0.068,0.056l-0.111,0.128l-0.042-0.17l-0.013,0.006l-0.052,0.014l0.069-0.08l-0.058-0.016l-0.184,0.019l-0.078-0.038l-0.032-0.05
	l-0.025-0.058l-0.06-0.056l-0.063-0.018l-0.04-0.01l-0.216,0.035l-0.094-0.004l0.06-0.081l-0.005-0.076l-0.058-0.05l-0.099-0.005
	l-0.088,0.041l-0.026,0.058l-0.007,0.062l-0.033,0.055l-0.065,0.018l-0.069-0.004l-0.058,0.014l-0.029,0.074l0.078,0.076
	l0.018,0.033l0.004,0.038l-0.003,0.023l-0.016,0.061l-0.014,0.022l-0.051,0.064l-0.017,0.031l0.002,0.03l0.029,0.063l-0.003,0.025
	l-0.06,0.063l-0.05,0.003l-0.551-0.235l-0.156-0.036l-0.18-0.006l-0.168,0.021l-0.467,0.154l-0.044,0.022l-0.026,0.034l-0.029,0.076
	l-0.004,0.009l-0.022,0.021l-0.093-0.016l-0.039-0.068l-0.034-0.159l-0.06-0.074l-0.066-0.043l-0.252-0.074l-0.072-0.006
	l-0.172,0.015l-0.666-0.045l-0.112,0.003l-0.092,0.029l-0.085,0.035l-0.095,0.026l-0.089-0.002l-0.174-0.03l-0.098,0.01l-0.091,0.03
	l-0.085,0.047l-0.075,0.056l-0.06,0.063l-0.174,0.33l-0.014-0.026l-0.397-0.696l-0.398-0.757l-0.282-0.455l-0.27-0.326l-0.211-0.217
	l-0.272-0.247l-0.361-0.217l-0.064-0.023l-0.518-0.335l-0.566-0.438l-0.474-0.441l-0.534-0.596l-0.607-1.154l-0.178-0.458
	l-0.237-0.701l-0.21-0.874l-0.106-0.939l-0.287-1.174l0.099,0.053l0.164-0.022l0.335-0.155l0.248-0.078l0.08-0.046l0.072-0.076
	l0.123-0.246l0.027-0.031l0.064-0.052l0.03-0.031l0.06-0.124l0.025-0.039l0.081-0.084l0.07-0.031l0.184-0.022l0.17-0.078
	l0.238-0.247l0.147-0.114l0.097-0.006l0.068,0.026l0.061,0.038l0.078,0.021l0.09-0.012l0.263-0.105l0.105-1.045l0.033-0.085
	l0.073-0.073l0.099-0.045l0.202-0.057l0.534-0.151l0.344-0.099l0.408-0.116l0.858-0.243l0.857-0.244l0.744-0.213l0.526-0.151
	l0.199-0.058l0.243-0.068l0.108-0.017l0.098,0.021l0.19,0.146l0.575,0.44l0.574,0.441l0.574,0.438l0.573,0.438l0.547,0.419
	l0.024,0.02l0.571,0.435l0.571,0.436l0.57,0.433l0.37,0.28l0.089,0.053l0.098,0.032l0.001,0.002l0.002-0.002l0.034-0.007
	l0.082-0.033l0.044-0.021l-0.032-0.01l-0.013-0.005l-0.011-0.003l-0.028,0.003l-0.031-0.022l0.05-0.077l0.173,0.001l-0.007-0.085
	l0.024-0.024l0.124,0.036l0.011-0.059l-0.058-0.151l0.057-0.082l0.082-0.029l0.084,0.002l0.07,0.018l-0.036-0.062l-0.011-0.06
	l0.032-0.043l0.093-0.012l0.001,0.031l0.007,0.016l0.046,0.046l0.005-0.031l0.017-0.062l0.005-0.03l0.017,0.016l0.01-0.002
	l0.01-0.01l0.015-0.007l0.009,0.033l0.026,0.035l0.035,0.01l0.041-0.04l-0.034-0.01l-0.04-0.064l-0.015-0.06l0.043,0.008
	l0.097,0.036l0.113-0.006l0.085-0.042l0.016-0.075l-0.029-0.02l-0.028,0.027l-0.027-0.022l0.064-0.045l0.058,0.01l0.053,0.047
	l0.047,0.064l0.023-0.108l0.017-0.025l0.049-0.05l0.046-0.061l-0.017-0.022l-0.052-0.014l-0.052-0.029l-0.015-0.028l-0.012-0.04
	l-0.025-0.05l-0.114-0.113l0.011-0.029l0.039-0.028l0.021-0.059l-0.003-0.039l-0.014-0.054l-0.034-0.046l-0.141-0.033l0.009-0.054
	l0.063-0.095l-0.04-0.031l-0.135-0.052l-0.031-0.009l-0.012-0.029l-0.047-0.055l-0.063-0.053l-0.063-0.026l0.058-0.021l0.064,0.002
	l0.057-0.006l0.037-0.042l-0.02-0.062l-0.06-0.052l-0.021-0.042l0.091-0.031l0.047-0.072l0.091-0.042l0.067-0.044l-0.025-0.072
	l-0.038,0.017l-0.026,0.001l-0.028-0.01l-0.04-0.021l0.023-0.024l0.144-0.046l0.082-0.178l0.083-0.564l-0.017-0.089l-0.08-0.178
	l-0.016-0.089l0.06-0.035l0.025-0.024l-0.027-0.071l-0.068-0.001l-0.047-0.038l-0.201-0.294l-0.036-0.097l-0.01-0.197l-0.047-0.102
	l0.128-0.011l0.021-0.038l-0.047-0.051l-0.07-0.056l-0.024,0.01l-0.019,0.046l-0.031,0.038l-0.056-0.016l-0.01-0.026l-0.001-0.09
	l-0.006-0.034l-0.106-0.17l-0.009-0.077l0.061-0.091l0.019-0.057l0.013-0.266l0.018-0.044l0.053-0.088l0.002-0.039l-0.036-0.042
	l-0.108-0.066l-0.025-0.047l0-0.251l0.015-0.081l0.021-0.051l0.047-0.082l0.01-0.041l-0.017-0.048l-0.064-0.084l0.009-0.036
	l0.05-0.064l0.046-0.086l0.026-0.085l-0.011-0.068l-0.106-0.092l-0.124-0.069l-0.07-0.077l0.059-0.113l-0.031-0.08l-0.103-0.122
	l-0.054-0.112l0.077-0.043l0.036,0.018l1.769,1.402l1.048-1.019l1.045-1.015l0.065-0.008l0.103,0.045l0.173,0.136l0.879,0.691
	l0.877,0.686l0.875,0.686l0.874,0.682l0.872,0.678l0.871,0.677l0.869,0.674L642.332,583.677z"/></svg>