<?xml version="1.0" encoding="utf-8"?>
<!-- Generator: Adobe Illustrator 15.0.0, SVG Export Plug-In . SVG Version: 6.00 Build 0)  -->
<!DOCTYPE svg PUBLIC "-//W3C//DTD SVG 1.1//EN" "http://www.w3.org/Graphics/SVG/1.1/DTD/svg11.dtd">
<svg version="1.1" id="Ebene_1" xmlns="http://www.w3.org/2000/svg" xmlns:xlink="http://www.w3.org/1999/xlink" x="0px" y="0px"
	 width="1920px" height="1080px" viewBox="0 0 1920 1080" enable-background="new 0 0 1920 1080" xml:space="preserve">

<path fill="#F4E0B6" stroke="#FFFFFF" d="M418.383,246.261l-0.043-0.063l0.082-0.032l0,0l0.024,0.111L418.383,246.261z
	 M422.213,153.4l-0.019-0.029l0.007-0.01l0.021-0.005l0.014-0.015l0.002,0.023l0.008,0.02l-0.003,0.013L422.213,153.4z
	 M422.441,153.548l-0.046-0.008l0.018-0.025L422.441,153.548z M426.431,153.381l-0.09-0.021l0.08-0.008l0.011,0.005l0.009,0.005
	l0.014,0.007L426.431,153.381z M456.946,237.712l-0.028,0.014l-0.051-0.021l-0.023-0.062l0.015-0.089l0.021-0.015l-0.003,0.018
	l0.02,0.021l0.041,0.063l-0.001-0.016l-0.006-0.024l-0.002-0.022l0.012-0.033l0.004-0.032l0.012-0.015l0.009,0.01l-0.003,0.152
	L456.946,237.712z M460.077,236.315l0.002-0.075l0.084,0.007l-0.001,0.074L460.077,236.315z M515.738,208.091l-0.003-0.026
	l0.013-0.008l0.019,0.011l0.023,0.075l-0.008,0.045L515.738,208.091z M515.838,208.24l-0.001-0.004l0.008,0.001L515.838,208.24z
	 M515.896,208.154l0.001-0.027l0.009,0.01l0.008,0.023l0.007,0.012l0.009,0.044l-0.002,0.017l-0.018-0.031l-0.01-0.024
	L515.896,208.154z M697.703,619.549l0.007,0.016l0.038,0.023l0.001,0.005l0.011,0.007v0.025l0.002,0.006l-0.01,0.014l-0.005,0.006
	l-0.004,0.004l-0.017,0.022l-0.013,0.001l-0.006-0.004l-0.007,0.003l-0.009-0.007l-0.001-0.007l-0.012-0.009l-0.002-0.004
	l-0.006-0.005l-0.001-0.007l0.003-0.004l-0.001-0.01l0.006-0.009l-0.001-0.023l0.001-0.002l-0.005-0.01l-0.003-0.032l0.013-0.014
	L697.703,619.549z M547.284,89.798l-0.036-0.07l0.065-0.133l-0.009,0.063l0.01,0.061l0.037,0.035l0.071-0.008l-0.061,0.061
	L547.284,89.798z M574.14,184.19l0.004-0.045l0.026,0.035l-0.02,0.022l-0.01,0.005L574.14,184.19z M574.155,183.948l0.001-0.038
	l0.039,0.027l0.021,0.037l0.004,0.042l-0.013,0.045l-0.025-0.036l-0.018-0.038L574.155,183.948z"/></svg>