<?xml version="1.0" encoding="utf-8"?>
<!-- Generator: Adobe Illustrator 15.0.0, SVG Export Plug-In . SVG Version: 6.00 Build 0)  -->
<!DOCTYPE svg PUBLIC "-//W3C//DTD SVG 1.1//EN" "http://www.w3.org/Graphics/SVG/1.1/DTD/svg11.dtd">
<svg version="1.1" id="Ebene_1" xmlns="http://www.w3.org/2000/svg" xmlns:xlink="http://www.w3.org/1999/xlink" x="0px" y="0px"
	 width="1920px" height="1080px" viewBox="0 0 1920 1080" enable-background="new 0 0 1920 1080" xml:space="preserve">

<path fill="#F4E0B6" stroke="#FFFFFF" d="M1360.659,909.288l-0.049,0.105l-0.075,0.063l-0.027,0.004l-0.058-0.002l-0.33,0.106
	l-0.04,0.026l-0.113,0.022l-0.059-0.005l-0.062-0.027l-0.027-0.026l-0.042-0.054l-0.027-0.055l0.033-0.068l0.023-0.122l0.018-0.033
	l0.011-0.027l0.021-0.117l0.017-0.044l0.083-0.063l0.105-0.024l0.303-0.021l0.205,0.107l0.095,0.003l0.015,0.125L1360.659,909.288z
	 M1360.472,907.914l-0.094,0.081l-0.147,0.032l-0.112-0.023l-0.027-0.097l0.08-0.102l0.129-0.054l0.126,0.037L1360.472,907.914z
	 M1287.278,821.931l0.091,0.013l0.035-0.041l0.239-0.145l0.086-0.018l0.289,0.033l0.139-0.039l0.115,0.001l0.138-0.059l0.062-0.011
	l0.133,0.011l0.044-0.004l0.088-0.024h0.047l0.11,0.041l0.015,0.016l0.014,0.008l0.116-0.045l0.065-0.004l0.146,0.024h0.111
	l0.066-0.031l0.15-0.107l0.094-0.042l0.08-0.015l0.072,0.006l0.075,0.021l0.158,0.022l0.141-0.034l0.134-0.077l0.135-0.105
	l0.058-0.061l0.104-0.139l0.06-0.057l0.069-0.038l0.251-0.097l0.105-0.059l0.039-0.008l0.076,0.012l0.03-0.006l0.046-0.046
	l0.062-0.126l0.06-0.062l0.393-0.248l0.094-0.113l0.123-0.025l0.233-0.093l0.449-0.112l0.155-0.008l0.069-0.02l0.031-0.027
	l0.023-0.02l0.092-0.126l0.05-0.036l0.054,0.004l0.121,0.057l0.037,0.007l0.029-0.006l0.077,0.009l0.035-0.005l0.027-0.02
	l0.047-0.056l0.037-0.017l0.053,0.011l0.15,0.086v0.092l0.423,0.44l0.491,0.511l0.49,0.512l0.391,0.409l0.651,0.681l0.083,0.111
	l0.384,0.974l0.105,0.157l0.139,0.11l0.542,0.209l0.145,0.11l0.391,0.438l0.323,0.282l0.093,0.06l0.102,0.031l0.322,0.058
	l0.066,0.03l0.053,0.055l0.034,0.065l0.339,0.634l0.108,0.159l0.43,0.356l0.266,0.217l0.244,0.267l0.171,0.305l0.107,0.294
	l0.279,0.565l0.336,0.681l0.237,0.482l0.317,0.644l0.434,0.877l0.035,0.229l0.034,0.108l0.061,0.135l0.075,0.12l0.078,0.064
	l0.062,0.074l0.156,0.235l0.044,0.089l0.011,0.06l-0.012,0.038l-0.025,0.039l-0.023,0.069l-0.004,0.062l0.045,0.483l0.033,0.121
	l0.074,0.114l0.366,0.392l-0.154,0.209l-0.09,0.075l-0.118,0.021l-0.412-0.049l-0.077-0.009l-0.433-0.049l-0.499-0.057l-0.5-0.056
	l-0.105,0.016l-0.104,0.056l-0.106,0.097l-0.075,0.103l-0.195,0.51l-0.172,0.448l-0.005,0.107l0.051,0.24l0.042,0.564l-0.022,0.559
	l-0.09,0.462l0,0l-0.116,0.592l0.074,0.337l0.218,0.422l0.281,0.548l0.173,0.255l0.07,0.081l0.059-0.036l0.052-0.041l0.043-0.064
	l0.03-0.074l0.015-0.071l0.046,0.045l0.15,0.149l0.082,0.048l0.154,0.058l0.067,0.039l0.061,0.068l0.045,0.102l0.042,0.175
	l0.064,0.091l0.146,0.099l0.524,0.146l0.294,0.17l0.082,0.026l0.07,0.01l0.36-0.049l0.146-0.02l0.313-0.044l0.422-0.057l0.259-0.072
	l0.389-0.19l0.515-0.252l0.34-0.165l0.316-0.154l-0.028-0.053l-0.033-0.04l-0.037-0.034l-0.046-0.031l-0.048-0.049l-0.153-0.291
	l-0.039-0.076l-0.128-0.242l-0.116-0.399l-0.106-0.357l-0.112-0.384l-0.066-0.116l0.237-0.119l0.063-0.017l0.129,0.044l0.07-0.002
	l0.114-0.029l0.17-0.112l0.104-0.047l0.278-0.087l0.215-0.067l0.407-0.219l0.451-0.242l0.49-0.262l0.541-0.29l0.033,0.185
	l0.196,0.554l0.057,0.29l0.034,0.091l0.021,0.094l-0.041,0.241l0.007,0.039l0.041,0.124l0.009,0.038l-0.004,0.079l0.035,0.113
	l0.139,1.246l0.319,1.296l0.038,0.093l0.013,0.045l0.013,0.11l0.01,0.049l0.023,0.049l0.056,0.066l0.025,0.039l0.311,1.08
	l0.013,0.085l-0.069,0.612l0.011,0.073l0.03,0.1l0.001,0.102l-0.029,0.091l-0.067,0.063l0.032,0.033l0.018,0.004l0.014-0.014
	l0.021-0.031l0.094,0.124l0.033,0.168l0.012,0.172l0.034,0.146l-0.011,0.092l-0.149,0.46l-0.028,0.061l-0.085,0.109l-0.029,0.053
	l-0.013,0.063l-0.009,0.146l-0.017,0.082l-0.221,0.521l-0.134-0.033l-0.125,0.091l-0.038,0.124l0.13,0.07l0.011-0.049l0.026-0.063
	l0.04-0.057l0.055-0.035l-0.003,0.161l-0.08,0.181l-0.314,0.445l-0.112,0.09l-0.134,0.06l-0.169,0.048l0.021,0.031l0.019,0.02
	l0.021,0.008h0.028l0.012,0.025l-0.073,0.119l-0.288,1.112l-0.09,0.229l-0.041,0.053l-0.014,0.026l0.004,0.028l0.021,0.077
	l-0.006,0.021l-0.029,0.053l-0.038,0.254l-0.028,0.068l-0.079,0.132l-0.025,0.065l0.002,0.049l0.022,0.092l-0.03,0.049l-0.015,0.039
	l-0.011,0.042l0.007,0.086l-0.14,0.852l0.003,1.132l0.044,0.173l0.111,0.134l-0.136,0.068l-0.018,0.049l0.035,0.112l0.037-0.056
	l0.096-0.099l0.022-0.064l0.015,0.029l0.008,0.032l0.003,0.032l-0.005,0.064l-0.033,0.151l-0.19,0.506l-0.037,0.174l-0.019,0.371
	l0.036,0.543l-0.051,1.119l0.013,0.195l0.018,0.065v0.069l-0.071,0.255l-0.029,1.361l-0.024,0.187l-0.024,0.082l-0.037,0.047
	l-0.024,0.063l0.011,0.283l-0.098,0.577l-0.075,0.449l-0.06,0.115l0.012,0.29l-0.068,0.298l-0.245,0.715l-0.043,0.062l-0.174,0.167
	l-0.057,0.074l-0.039,0.087l0.008,0.081l-0.072,0.356l-0.057,0.07l-0.02,0.036l0.017,0.087l-0.007,0.042l-0.015,0.035l-0.013,0.017
	l-0.064,0.058l-0.034,0.08l-0.045,0.174l-0.035,0.059l-0.105,0.116l-0.054,0.105l-0.024,0.022l-0.029,0.02l-0.029,0.028
	l-0.016,0.011l-0.039,0.013l-0.013,0.011l-0.007,0.037l0.015,0.018l0.021,0.01l0.011,0.016l0.011,0.18l-0.067,0.106l-0.006,0.032
	l0.036,0.102l-0.009,0.07l-0.066,0.136l-0.045,0.176l-0.014,0.099l0.011,0.073l0.011,0.041l-0.002,0.137l-0.025,0.041l-0.005,0.011
	l0.002,0.02l0.015,0.052l0.001,0.019l-0.163,0.214l-0.008,0.063l0.02,0.07l0.005,0.09l-0.015,0.188l-0.174,0.648l-0.092,0.642
	l-0.115,0.2l-0.01,0.052l-0.221,0.639l-0.016,0.15l-0.015,0.039l-0.04,0.055l-0.017,0.039l-0.052,0.189l-0.016,0.112l0.013,0.084
	l0.004,0.056l-0.209,0.475l-0.059,0.089l-0.058,0.146l-0.037,0.055l0.021,0.067l-0.043,0.1l-0.112,0.172l-0.094,0.192l-0.066,0.104
	l-0.149,0.149l-0.041,0.122l-0.005,0.139l0.037,0.128l0.013,0.098l-0.026,0.118l-0.18,0.453l-0.078,0.089l-0.013,0.045l-0.008,0.085
	l-0.03,0.049l0.002,0.018l0.011,0.02l0.008,0.023l-0.003,0.025l-0.115,0.154l-0.023,0.106l-0.026,0.034l-0.057,0.044l-0.126,0.146
	l-0.037,0.064l-0.12,0.461l-0.059,0.147l-0.178,0.21l-0.02,0.05l-0.011,0.015l-0.015,0.151l-0.017,0.027l-0.021,0.02l-0.029,0.012
	h-0.043l0.029,0.11l-0.03,0.125l-0.097,0.235l-0.053,0.088l-0.013,0.007l-0.018-0.001l-0.018-0.004l-0.007-0.002l-0.006,0.017
	l0.01,0.05l-0.21,0.42l-0.01,0.055l-0.176,0.249l-0.028,0.066l-0.01,0.04l0.004,0.032l0.01,0.032l-0.001,0.039l-0.013,0.038
	l-0.023,0.025l-0.059,0.048l-0.192,0.302l-0.052,0.048l-0.074,0.048l-0.058,0.061l-0.092,0.255l-0.054,0.053l-0.142,0.104
	l-0.071,0.122l-0.229,0.301l-0.035,0.024l-0.016,0.03l0.019,0.083l-0.011,0.028l-0.063,0.047l-0.216,0.322l-0.104,0.103l-0.126,0.08
	l-0.29,0.11l-0.082,0.049l-0.044,0.062l-0.05,0.041l-0.092,0.01l-0.158-0.003l-0.466,0.15l-0.445,0.22l-0.252,0.197l-0.211,0.229
	l-0.167,0.248l-0.057,0.136l-0.021,0.151l0.01,0.155l0.069,0.242l0.042,0.093l0.038,0.033l0.078-0.005l0.032,0.026l0.028,0.014
	l0.128,0.016l0.112,0.063l0.046,0.017l0.013,0.033l0.002,0.016l-0.005,0.019l-0.116,0.023l-0.055,0.061l-0.041,0.075l-0.069,0.067
	l-0.104,0.045l-0.195,0.042l-0.099,0.035l-0.144,0.109l-0.077,0.044l-0.113-0.002l-0.123,0.045l-0.151-0.019l-0.139,0.02
	l-0.307,0.08l-0.289,0.158l-0.256,0.2l-0.152,0.158l-0.05,0.084l-0.016,0.086l0.132,0.129l0.01,0.095l-0.017,0.097l-0.018,0.043
	l-0.07,0.222l0.012,0.068l0.039,0.04l0.044,0.007l0.039,0.001l0.029,0.02l0.009,0.038l-0.029,0.073l-0.004,0.04l-0.021,0.013
	l-0.072-0.033l-0.078,0.015l-0.216,0.118l-0.197,0.052l-0.077,0.032l-0.176,0.152l-0.062,0.029l-0.31,0.084l-0.176,0.008
	l-0.166-0.035l-0.073,0.013l-0.404,0.175l-0.072,0.001l-0.06-0.004l-0.253,0.031l-0.584,0.275l-0.076,0.022l-0.162,0.029
	l-0.351,0.161l-0.625,0.196l-0.143,0.094l-0.427,0.413l-0.05,0.069l-0.035,0.075l-0.019,0.08l0.019,0.1l0.065,0.062l0.085,0.018
	l0.077-0.03l0.016,0.025l-1.126,0.537l-0.031-0.014l-0.083-0.095l-0.022-0.02l-0.097,0.049l-0.048,0.007l-0.043-0.013l0.045,0.051
	l0.036,0.008l0.037-0.007l0.046,0.007l0.063,0.034l0.018,0.026l-0.008,0.036l-0.029-0.008l-0.051,0.012l-0.09,0.044l-0.034,0.033
	l-0.022,0.031l-0.026,0.029l-0.051,0.025l-0.292,0.07l-0.136-0.002l-0.048,0.012l-0.049-0.003l-0.058-0.039l-0.028-0.031
	l-0.013-0.026l0.012-0.028l0.047-0.026l-0.074-0.013l-0.081,0.02l-0.145,0.067l0.063,0.038l0.074,0.03l0.075,0.016l0.063-0.009
	l-0.044,0.055l-0.084,0.031l-0.421,0.087l-0.068,0.029l-0.077,0.051l-0.054,0.049l-0.036,0.055l-0.079,0.229l-0.084,0.142
	l-0.118,0.116l-0.306,0.143l-0.128,0.081l-0.224,0.228l-0.043,0.067l-0.026,0.069l-0.029,0.154l0.011,0.103l0.051,0.05l0.07,0.017
	l0.074-0.001l-0.02,0.062l-0.048,0.059l-0.36,0.306l-0.082,0.12l-0.025,0.134l0.028,0.065l0.091,0.111l-0.003,0.059l0.006,0.146
	l-0.01,0.023l-0.114,0.219l-0.095,0.123l-0.114,0.108l-0.128,0.09l-0.362,0.134l-0.158,0.002l-0.078,0.023l-0.058,0.054
	l-0.095,0.134l-0.094,0.086l-0.009,0.035l0.002,0.032l-0.002,0.033l-0.011,0.028l-0.146,0.216l-0.119,0.102l-0.139,0.071
	l-0.616,0.128l-0.139,0.049l-0.312,0.16l-0.136,0.107l-0.082,0.136l0.021-0.014l-0.142,0.159l-0.037,0.064l0.09-0.039l0.108,0.012
	l0.085,0.053l0.023,0.093l-0.043,0.059l-0.598,0.242l-0.387,0.328l-0.088,0.14l-0.052,0.151l-0.021,0.331l-0.021,0.091l-0.042,0.061
	l-0.037,0.037l-0.006,0.037l0.005,0.042l-0.009,0.055l-0.018,0.029l-0.073,0.102l-0.027,0.064l-0.021,0.087l-0.005,0.092
	l0.022,0.074l-0.04,0.01l-0.061,0.067l-0.088,0.131l-0.118,0.309l-0.011,0.169l0.104,0.072l0.015,0.022l-0.039,0.044l-0.047,0.103
	l-0.042,0.042l-0.051,0.024l-0.059,0.012l-0.06,0.005l-0.281-0.02l-0.072-0.017l-0.072,0.005l-0.473,0.328l-0.035,0.038
	l-0.018,0.084l-0.033,0.04l-0.037,0.015l-0.035-0.012l-0.03-0.016l-0.026-0.01l-0.213,0.006l-0.38-0.084l-0.212,0.014l-0.071-0.007
	l-0.086-0.026l-0.084-0.009l-0.078,0.038l-0.058,0.067l-0.027,0.085l-0.039-0.002l-0.03,0.011l-0.022,0.023l-0.013,0.037
	l-0.016-0.05l0.016-0.363l-0.01-0.05l-0.08-0.089l-0.125-0.086l-0.132-0.068l-0.109-0.037l-0.063-0.004l-0.044,0.016l-0.183,0.182
	l-0.193,0.108l-0.048,0.014l-0.068-0.013l-0.122-0.065l-0.07-0.002l-0.016-0.024l0.068-0.066l0.001-0.077l-0.03-0.088l-0.023-0.104
	l-0.033,0.064l0.009,0.166l-0.016,0.048l-0.239,0.136l-0.037,0.028l-0.066,0.09l-0.26,0.242l-0.034,0.086l0.007,0.036l-0.024,0.027
	l-0.039,0.015l-0.04,0.001l-0.057-0.025l-0.02-0.037l-0.006-0.061l-0.1-0.107l-0.021-0.027l-0.017-0.046l0.004-0.028l0.008-0.023
	l0.001-0.045l-0.022-0.088l-0.039-0.051l-0.125-0.094l-0.055-0.073l0.006-0.05l0.021-0.058l-0.002-0.09l-0.255-0.109l-0.068,0.004
	l-0.208,0.076l-0.3,0.161l-0.27,0.197l-0.032,0.049l-0.013,0.035l-0.079,0.116l-0.027,0.074l-0.007,0.042l-0.004,0.057l-0.013,0.075
	l0.004,0.035l0.028,0.052l0.033,0.032l0.027,0.01l0.03,0.003l0.035,0.011l0.143,0.124l0.028,0.03l0.023,0.032l0.134,0.258
	l0.063,0.066l0.077,0.005l-0.044,0.057l-0.102,0.01l-0.115-0.019l-0.086-0.029l-0.17-0.096l-0.037-0.036l-0.013-0.025l-0.02-0.06
	l-0.016-0.03l-0.014-0.01l-0.02,0.002l-0.019,0.001l-0.013-0.001l-0.094-0.076l-0.051-0.021l-0.106,0.027l-0.052-0.017l-0.038-0.041
	l-0.024-0.059l0.003-0.042l0.021-0.029l0.012-0.035l-0.027-0.061l-0.03-0.05l-0.021-0.042l-0.011-0.045l-0.006-0.054l-0.039,0.037
	l-0.015,0.017l-0.012,0.029l-0.089-0.038l-0.039-0.05l-0.007-0.064l0.007-0.084l-0.002-0.096l-0.055-0.151l-0.023-0.097l0.046-0.145
	l0.117-0.075l0.088-0.08l-0.049-0.161l-0.06-0.059l-0.121-0.056l-0.044-0.04l-0.056-0.065l-0.295-0.266l-0.187-0.106l-0.063-0.061
	l-0.037,0.004l-0.255-0.077l-0.071,0.002l-0.039-0.006l-0.031-0.025l-0.102-0.149l-0.059-0.069l-0.063-0.049l-0.157-0.074
	l-0.149-0.035l-0.483-0.011l-0.012-0.08l-0.066-0.061l-0.171-0.091l-0.105-0.068l-0.141-0.051l-0.035-0.033l-0.062-0.026
	l-0.23-0.042l-0.07,0.007l-0.08,0.018l-0.082-0.03l-0.079-0.044l-0.069-0.025l0.052-0.092l0.037-0.041l0.041-0.01l0.053,0.027
	l0.043,0.026l0.045,0.021h0.05l0.014,0.049l0.042,0.016l0.128,0.01l0.109,0.042l0.067,0.015l0.05-0.012l0.029-0.059l-0.041-0.032
	l-0.11-0.022l-0.037-0.021l-0.048-0.056l-0.024-0.019h-0.02l-0.037,0.019l-0.02,0.003l-0.113-0.021l-0.048-0.02l-0.035-0.029
	l-0.097-0.162l-0.045-0.047l-0.091-0.041l-0.097,0.012l-0.093,0.053l-0.082,0.075l0.066,0.039l0.028,0.009l-0.03,0.033l-0.022,0.038
	l-0.026,0.087l-0.06-0.016l-0.045-0.025l-0.029-0.029l-0.019-0.023l-0.033-0.022l-0.043-0.02l-0.038-0.032l-0.017-0.07l-0.034-0.019
	l-0.107-0.079l-0.073-0.067l-0.022-0.028l-0.01-0.038l0.005-0.06l-0.013-0.055l-0.045-0.032l-0.136-0.048l-0.022,0.003l-0.021-0.006
	l-0.019-0.033l0.009-0.013l0.026-0.012l0.021-0.011v-0.021l0.001-0.018l0.02-0.073l0.011-0.02l0.021-0.022l-0.003-0.016l-0.012-0.02
	l-0.007-0.033l-0.018-0.029l-0.077-0.109l-0.021-0.052l0.02-0.063l0.053-0.077l0.062-0.067l0.05-0.024l-0.006,0.04l0.072,0.029
	l0.254,0.041l0.168-0.036l0.097-0.108l0.049-0.147l0.118-0.623l-0.022-0.188l-0.043-0.16l-0.126-0.343l-0.086-0.151l-0.184-0.242
	l-0.057-0.047l-0.092-0.056l-0.022-0.071l0.008-0.146l-0.083-0.156l-0.438-0.396l-0.297-0.363l-0.16-0.121l-0.071-0.067l-0.1-0.163
	l-0.056-0.075l-0.084-0.049l-0.073-0.026l-0.077-0.038l-0.051-0.036l-0.023-0.031l-0.018-0.03l-0.029-0.035l-0.235-0.212
	l-0.135-0.085l-0.157-0.074l-0.271-0.09l-0.058-0.035l-0.024-0.022l-0.282-0.113l-0.255-0.058l-0.061-0.04l-0.065-0.054
	l-0.085-0.023l-0.164-0.022l-0.25-0.109l-0.136-0.01l-0.092-0.068l-0.154-0.147l-0.068-0.02l-0.197-0.017l-0.054-0.02l-0.05-0.037
	l-0.357-0.163l-0.022-0.002l-0.093-0.067l-0.029-0.016l-0.082-0.034l-0.177-0.119l-0.074-0.039l-0.428-0.163l-0.411-0.23
	l-0.051-0.041l-0.118-0.115l-0.125-0.102l-0.358-0.129l-0.191-0.102l-0.081-0.144l-0.139-0.038l-0.399-0.206l-0.086-0.065
	l-0.106-0.031l-0.442-0.216l-0.041-0.026l-0.073-0.087l-0.105-0.098l-0.034-0.021l-0.073-0.093l-0.366-0.176l-0.125-0.093
	l-0.109-0.133l-0.273-0.241l-0.52-0.33l-0.105-0.111l-0.019-0.013l-0.028-0.01l-0.032-0.015l-0.033-0.032l-0.028-0.038l-0.29-0.241
	l0.02-0.014l-0.049-0.036l-0.067-0.099l-0.038-0.048l-0.225-0.155l-0.024-0.04l-0.066-0.006l-0.075-0.064l-0.108-0.128l-0.273-0.196
	l-0.052-0.024l-0.367-0.28l-0.029-0.015l-0.108-0.024l-0.039-0.027l-0.021-0.01l-0.106-0.03l-0.22-0.174l-0.041-0.021l-0.058-0.014
	l-0.035-0.021l-0.055-0.086l-0.036-0.026l-0.067-0.034l-0.085-0.065l-0.071-0.077l-0.025-0.07l-0.106-0.05l-0.329-0.042
	l-0.062-0.025l-0.146-0.106l-0.06-0.034l-0.284-0.104l-0.347-0.039l-0.09-0.055l-0.121-0.107l-0.107-0.116l-0.043-0.083l-0.03-0.016
	l-0.071-0.043l-0.024-0.024l-0.025-0.01l-0.031,0.012l-0.031,0.019l-0.026,0.005l-0.176-0.106l-0.082-0.006l-0.142-0.031
	l-0.02-0.016l0.017-0.047l-0.017-0.068l-0.034-0.062l-0.03-0.032l0.04-0.067l0.044-0.113l0.057-0.108l0.097-0.121l0.075-0.408
	l0.024-0.035l0.042-0.001l0.043,0.032l0.041,0.039l0.037,0.025l0.058-0.031l0.026-0.098l0.005-0.117l-0.009-0.086l-0.033-0.067
	l-0.054-0.085l-0.034-0.084l0.025-0.064l0.014-0.052l-0.069-0.052l-0.141-0.06l-0.063-0.04l-0.064-0.066l-0.031-0.074l0.038-0.067
	l0.037-0.005l0.048,0.001l0.042-0.01l0.014-0.043l-0.025-0.051l-0.048-0.031l-0.051-0.02l-0.028-0.02l-0.01-0.043l0.008-0.026
	l0.069-0.045l0.042-0.045l-0.02-0.025l-0.107-0.035l-0.022-0.013l-0.009-0.026l0.009-0.029l0.017-0.003l0.021,0.001l0.053-0.039
	l0.026,0.003l0.016-0.007l-0.002-0.054l-0.177-0.305l0.005-0.019l0.012-0.1l0.01-0.029l0.029-0.01l0.061,0.019l0.036-0.016
	l0.028-0.044l0.013-0.079l0.031-0.035l0.102-0.036l0.052-0.153l0.025-0.043l0.052-0.06l0.034-0.021l0.047-0.01l0.083,0.025
	l0.089,0.049l0.089,0.038l0.082-0.013l0.1-0.029l0.073,0.043l0.056,0.084l0.048,0.089l0.134,0.159l0.128,0.039l0.117-0.049
	l0.173-0.187l0.08-0.06l0.049-0.008l0.04,0.031l0.037,0.045l0.036,0.026l0.061,0.025l0.035,0.031l0.029,0.034l0.043,0.037
	l0.049,0.022l0.099,0.034l0.045,0.03l0.06,0.074l0.062,0.104l0.032,0.105l-0.026,0.071l-0.045,0.051l-0.03,0.074l-0.01,0.076
	l0.023,0.061l0.071,0.048l0.167,0.056l0.075,0.071l0.067,0.044l0.147-0.035l0.091,0.058l0.077,0.156l0.063,0.18l0.081,0.105
	l0.134-0.061l0.12-0.129l0.123-0.105l0.055-0.06l0.041-0.07l0.046-0.048l0.073,0.002l0.07,0.065l0.059,0.091l0.064,0.066
	l0.092-0.016l0.123-0.039l0.04-0.029l0.021-0.037l0.034-0.085l0.024-0.041l0.098-0.078l0.621-0.235l0.149-0.028l0.156-0.003
	l0.307,0.035l0.166-0.018l0.335-0.083l0.062-0.039l0.088-0.115l0.257-0.227l0.074-0.042l0.17-0.039l0.088-0.038l0.045-0.067
	l0.015-0.032l0.027-0.035l0.057-0.05l0.013-0.019l0.018-0.036l0.015-0.016h0.021l0.063,0.01l0.021-0.001l0.054-0.069l0.074-0.14
	l0.559-0.494l0.74-0.341l0.088,0.017l0.167,0.076l0.061,0.018l0.027-0.007l0.123-0.059l0.043-0.012l0.026,0.006l0.102,0.036
	l0.12-0.088l0.104-0.13l0.121-0.218l0.008-0.043l-0.003-0.081l0.011-0.027l0.101-0.076l0.022-0.048l-0.027-0.047l-0.259-0.13
	l-0.074-0.067l-0.038-0.084l-0.015-0.143l0.005-0.073l0.019-0.063l0.044-0.034l0.119,0.015l0.038-0.018l0.033-0.05l0.219-0.237
	l0.046-0.072l0.027-0.083l-0.002-0.075l-0.1-0.356l-0.001-0.045l0.022-0.031l0.013-0.025l-0.017-0.087l-0.002-0.041l0.004-0.055
	v-0.042l0.005-0.039l0.02-0.043l0.022-0.028l0.31-0.234l0.037-0.065l0.03-0.091l0.059-0.073l0.149-0.112l0.077-0.087l0.06-0.227
	l0.055-0.103l0.033-0.027l0.114-0.054l0.031-0.025l0.086-0.089l-0.066-0.114l-0.095-0.146l-0.134-0.208l-0.135-0.207l-0.135-0.207
	l-0.135-0.209l-0.135-0.207l-0.135-0.209l-0.135-0.207l-0.135-0.209l-0.135-0.209l-0.135-0.207l-0.135-0.209l-0.135-0.208
	l-0.135-0.208l-0.136-0.208l-0.134-0.209l-0.137-0.209l-0.134-0.208l-0.136-0.209l-0.134-0.209l-0.136-0.209l-0.137-0.208
	l-0.134-0.21l-0.136-0.209l-0.135-0.209l-0.136-0.209l-0.136-0.208l-0.137-0.21l-0.134-0.209l-0.136-0.21l-0.137-0.209l-0.135-0.21
	l-0.136-0.209l-0.136-0.209l-0.136-0.21l-0.136-0.21l-0.136-0.21l-0.136-0.209l-0.136-0.211l-0.136-0.209l-0.137-0.212l-0.136-0.208
	l-0.136-0.211l-0.137-0.211l-0.136-0.21l-0.137-0.21l-0.137-0.211l-0.136-0.21l-0.136-0.211l-0.105-0.161l-0.031-0.049l-0.137-0.211
	l-0.136-0.211l-0.138-0.21l-0.137-0.212l-0.136-0.212l-0.137-0.211l-0.138-0.21l-0.137-0.212l-0.136-0.211l-0.137-0.212
	l-0.138-0.212l-0.137-0.211l-0.138-0.212l-0.137-0.211l-0.137-0.213l-0.032-0.047l0.057,0.052l0.04,0.013l0.09,0.009l0.13,0.063
	l0.268,0.031l0.16,0.046l0.055,0.005l0.038-0.012l0.074-0.04l0.04-0.012l0.363-0.003l0.676,0.093l0.067,0.025l0.257,0.166
	l0.187,0.092l0.089,0.057l0.03,0.06l0.01,0.081l0.064,0.032l0.088-0.002l0.083-0.014l0.069,0.096l0.021,0.02l0.037,0.01l0.081-0.007
	l0.037,0.008l0.029,0.032l0.002,0.031l-0.001,0.029l0.019,0.029l0.031,0.017l0.067,0.026l0.031,0.021l0.099,0.104l0.048,0.028
	l0.079,0.003l0.129-0.018l0.041,0.024l0.059,0.065l0.046-0.038l0.019,0.032l0.012,0.06l0.027,0.036l0.042-0.004l0.023-0.032
	l0.018-0.038l0.031-0.021l0.068,0.013l-0.06,0.126l0.016,0.073l0.062,0.11l0.238,0.042l0.092,0.083l0.002,0.051l-0.045,0.092v0.038
	l0.035,0.033l0.044-0.008l0.043-0.019l0.041,0.006l0.028,0.041l0.023,0.099l0.024,0.04l0.053,0.022l0.114-0.012l0.053,0.007
	l0.076,0.048l0.23,0.206l0.01,0.094l0.02,0.036l0.037-0.043l0.021-0.039l0.021-0.012l0.065,0.022l0.01,0.013l0.234,0.168
	l0.236,0.309l0.164,0.275l0.057,0.063l0.27,0.146l0.026,0.066l-0.015,0.298l0.03,0.184l0.009,0.184l-0.037,0.367l0.021,0.248
	l-0.008,0.09l-0.052,0.136l0.015,0.055l0.085,0.228l0.059,0.115l0.071,0.09l0.05,0.033l0.104,0.044l0.05,0.045l0.049,0.089l0.09,0.3
	l0.073,0.112l0.107,0.128l0.119,0.114l0.113,0.074l0.038,0.015l0.031,0.008l0.073,0.005l0.059,0.021l0.11,0.097l0.04,0.028
	l0.003-0.017l0.038-0.098l0.15-0.234l0.086-0.206l0.057-0.102l0.171-0.14l0.18-0.028l0.188,0.002l0.505-0.173l0.1-0.067l0.238-0.265
	l0.047-0.03l0.101-0.045l0.047-0.031l0.231-0.249l0.15-0.1l0.085-0.033l0.211-0.025l0.29-0.168l0.232-0.067l0.071-0.043l0.057-0.076
	l0.108-0.246l0.024-0.099l-0.005-0.09l-0.029-0.076l-0.048-0.07l-0.136-0.151l-0.032-0.062l0.015-0.064l0.069-0.087l0.095-0.084
	l0.323-0.202l0.18-0.179l0.121-0.244l0.063-0.275l0.005-0.277l-0.077-0.366l-0.019-0.174l0.048-0.224l-0.01-0.097l0.017-0.042
	l0.138-0.12l0.041-0.051l0.055-0.093l0.07-0.278l0.008-0.241l0.036-0.107l0.096-0.084l0.174-0.06l0.043-0.06l0.002-0.138
	l-0.024-0.165l0.007-0.074l0.038-0.087l0.012-0.055l0.003-0.013l0.007-0.306l-0.024-0.046l-0.036-0.031l-0.021-0.032l0.018-0.053
	l0.074-0.094l0.019-0.045v-0.066l-0.021-0.074l-0.044-0.095l-0.055-0.084l-0.047-0.038l-0.084-0.042l-0.003-0.085l0.031-0.102
	l0.017-0.088l-0.003-0.087l-0.019-0.021l-0.055-0.043l-0.047-0.023l-0.023,0.006l-0.021-0.006l-0.035-0.051l-0.03-0.095
	l-0.002-0.105l0.041-0.272l-0.003-0.049l-0.015-0.045l-0.025-0.06l-0.031-0.037l-0.033-0.025l-0.014-0.034l0.023-0.063l0.008-0.057
	l-0.039-0.03l-0.057-0.021l-0.044-0.026l-0.017-0.032l-0.01-0.038l-0.01-0.074l-0.074-0.277v-0.05l0.065-0.09l0.009-0.065
	l-0.034-0.182v-0.063l0.009-0.051l0.021-0.045l0.034-0.051l0.023-0.049l-0.004-0.038l-0.013-0.036l-0.002-0.046l0.051-0.217
	l0.055-0.093l0.088-0.036l0.042,0.017l0.039,0.03l0.032,0.008l0.027-0.05l0.016-0.046l0.183-0.279l0.134-0.146l0.162-0.113
	l0.209-0.075l0.192-0.032l0.061-0.019l0.059-0.041l0.086-0.108l0.039-0.035l0.06-0.015l0.049,0.015l0.101,0.05l0.074,0.021
	l0.051,0.007l0.128-0.013l0.118,0.003l0.534,0.075l0.049,0.022l0.07,0.021l0.226-0.054l0.051,0.011l0.082,0.06l0.043,0.021
	l0.044,0.002l0.083-0.019l0.042,0.001l0.234,0.099l0.222,0.023l0.097,0.045l0.089,0.003l0.15-0.148l0.044-0.016h0.049l0.053,0.01
	l0.021,0.029l0.002,0.044l0.016,0.016l0.066-0.054l0.297-0.309l0.18-0.104h0.203l0.405,0.148l0.207,0.023l0.189-0.069l0.08-0.08
	l0.052-0.07l0.063-0.048l0.185-0.032l0.316-0.053l0.255,0.021l0.138-0.042l0.232-0.173l0.128-0.04l0.109-0.029l0.097-0.072
	l0.173-0.174l0.051-0.068l0.112-0.276l0.112-0.167l0.12-0.097l0.145-0.055l0.186-0.039l0.159-0.058l0.673-0.487l0.176-0.268
	l0.24-0.609l-0.059-0.275l-0.061-0.46l-0.015-0.111l-0.177-0.567l-0.092-0.867l-0.07-0.303l-0.002-0.249l-0.075-0.148l-0.033-0.296
	l-0.034-0.146l-0.087-0.158l-0.197-0.267l-0.05-0.097l0.009-0.03l0.023-0.02l0.093-0.106l0.184-0.096l0.036-0.058l0.065-0.149
	l0.435-0.473l0.323-0.349l0.151-0.116l0.068-0.03l0.075-0.022l0.067-0.029l0.085-0.032h0.001l0.094-0.369v-0.06l-0.053-0.337
	l0.022-0.168l0.05-0.134l0.144-0.28l0.087-0.348l-0.002-0.077l0.051-0.082l0.253-0.277l0.051-0.085l0.026-0.082v-0.091l-0.124-0.384
	l-0.091-0.18l-0.33-1.188l-0.046-0.115l-0.068-0.065l-0.004-0.245l-0.024-0.028l-0.03-0.033l-0.022-0.085l-0.001-0.163l-0.027-0.199
	l0.019-0.048l0.047-0.004l0.046,0.036l0.051,0.029l0.062-0.032l0.032-0.071l-0.032-0.055l-0.062-0.058l-0.049-0.075l0.03-0.002
	l0.033,0.002l-0.01-0.042l0.008-0.035l0.039-0.085l-0.023,0.014l0.002-0.064l0.018-0.048l0.037-0.026l0.058,0.003l-0.009-0.057
	l-0.033-0.014l-0.045-0.011l-0.042-0.04l-0.001-0.04l0.031-0.026l0.051-0.006l0.048,0.02l0.002-0.035l0.008-0.048l-0.005-0.029
	l0.044,0.019l0.036-0.002l0.031-0.018l0.027-0.037l-0.093-0.047l0.014-0.069l0.109-0.116l0.097-0.146l0.037-0.081l0.027-0.092
	l0.008-0.184l0.028-0.072l0.106,0.101l0.023-0.04l0.01-0.066l-0.003-0.029l0.031-0.045l0.043-0.049l0.031-0.007l0.006,0.072h0.065
	l0.021-0.045l0.004-0.062l0.013-0.057l0.035-0.045l0.146-0.089l0.065-0.065l0.044-0.09l0.013-0.101l-0.027-0.1l-0.02-0.024
	l-0.027-0.026l-0.021-0.022l0.004-0.016l0.011-0.014l0.002-0.025l-0.004-0.026l-0.009-0.023l-0.02-0.07l0.026-0.113l-0.029-0.129
	l0.04-0.021l0.065-0.003l0.059-0.01l0.032-0.039l0.077-0.198l0.158,0.059l0.061-0.002l0.037-0.057l0.001-0.048l-0.03-0.184
	l0.004-0.006l0.017-0.036v-0.007l0.014-0.018l-0.016-0.012l-0.025-0.009l-0.014-0.007l-0.018-0.016l-0.03-0.02l-0.027-0.025
	l-0.008-0.036l0.042-0.015l0.08-0.036l0.046-0.053l-0.063-0.061l0.116-0.11l0.115-0.147l0.075-0.158l-0.003-0.145l-0.121-0.153
	l-0.051-0.09l0.021-0.063l0.063-0.049l0.061-0.07l0.049-0.074l0.031-0.06l0.022-0.092v-0.104l-0.031-0.097l-0.077-0.068
	l-0.018-0.048l0.051-0.069l0.068-0.071l0.042-0.052v-0.033l-0.013-0.071l0.003-0.032l0.021-0.031l0.032-0.029l0.029-0.035
	l0.015-0.048v-0.068l-0.017-0.032l-0.027-0.025l-0.033-0.045l-0.021-0.056l-0.002-0.048l0.033-0.211l0.022-0.041l0.032-0.033
	l0.082-0.057l0.025-0.042l0.045-0.23l0.028-0.079l0.092-0.149l0.117-0.113l0.287-0.186l0.26-0.063l0.05-0.05l0.039-0.111
	l0.058-0.048l0.077-0.028l0.097-0.052l0.103-0.112l0.182-0.297l0.131-0.136l0.072-0.056l0.062-0.061l0.029-0.072l-0.021-0.089
	l0.008-0.071l0.08-0.051l0.167-0.065l0.037-0.085l-0.001-0.209l0.017-0.054l-0.007-0.057l-0.179-0.27l0.025-0.161l0.03-0.112
	l0.037-0.063l-0.011-0.019l0.02-0.148l0.026-0.032l0.427-0.265l0.051-0.061l0.031-0.085l0.044-0.089l0.09-0.063l0.222-0.063
	l0.11-0.045l0.054-0.062l0.035,0.004l0.024-0.008l0.057-0.026l0.055-0.086l0.094-0.148l0.067-0.059l0.206-0.052l0.095-0.04
	l0.019-0.062l-0.004-0.084l0.062-0.055l0.13-0.053l0.103-0.136L1287.278,821.931z M1296.28,850.468l-0.033,0.094l-0.054,0.063
	l-0.073,0.054l-0.082,0.033l-0.085,0.007l-0.039,0.027l-0.172,0.117l-0.037,0.006l-0.009,0.065l-0.014,0.08l-0.019,0.19v0.026
	l-0.063,0.244l-0.034,0.241l0.002,0.037l0.018,0.031l0.007,0.023l-0.024,0.026l-0.092,0.05l-0.049,0.001l-0.053-0.023l-0.06-0.016
	l-0.068,0.025l-0.034,0.056l0.002,0.066l0.011,0.072l0.001,0.074l-0.067,0.09l-0.397,0.184l0.06,0.052l-0.02,0.049l-0.043,0.048
	l-0.01,0.046l0.028,0.054l0.014,0.032l0.003,0.026l-0.001,0.016l0.003,0.014l0.016,0.028l0.003,0.02l-0.015,0.006l-0.019,0.004
	l-0.01,0.011l-0.014,0.131l-0.018,0.067l-0.03,0.042l-0.046,0.043l0.034,0.026l0.066,0.021l0.05,0.022l-0.02,0.017l-0.022,0.032
	l-0.013,0.016l-0.038-0.015l-0.008,0.04l0.051,0.064l0.016,0.02l0.002,0.185l-0.063,0.343l-0.017,0.027l-0.026,0.03l-0.022,0.039
	l-0.005,0.047l0.019,0.039l0.07,0.077l0.03,0.042l-0.02,0.046l-0.021,0.025l-0.112,0.119l-0.035,0.065l0.007,0.038l0.043,0.093
	l0.01,0.039l-0.009,0.062l-0.021,0.035l-0.025,0.026l-0.017,0.042l0.007,0.031l0.025,0.015l0.032,0.013l0.026,0.025l0.021,0.052
	v0.029l-0.014,0.029l-0.055,0.229l-0.004,0.082l0.024,0.076l-0.009,0.027l-0.08,0.039l-0.01,0.022l0.017,0.049l0.005,0.049
	l-0.002,0.046l-0.004,0.012l-0.006,0.026l-0.073,0.123l-0.054,0.07l-0.083,0.07l-0.042,0.065l-0.025,0.031l-0.093,0.065
	l-0.073,0.089l-0.01,0.022l-0.045,0.175l-0.01,0.018l-0.033,0.003l-0.021-0.018l-0.021-0.015l-0.032,0.019l-0.009,0.026l0.009,0.076
	l-0.007,0.042l-0.056-0.028l-0.036,0.019l-0.005,0.05l0.033,0.063l0.012,0.116h0.033l0.069,0.011h0.057l0.066,0.016l0.178,0.094
	l0.06,0.042l0,0l0,0l0.635,0.508l0.212,0.169l0.104,0.039l0.232,0.048l0.089,0.052l0.146,0.157l0.052,0.042l0.075,0.042l0.037-0.004
	l0.035-0.034l0.074-0.039l0.058-0.014l0.046,0.008l0.018,0.039l-0.021,0.079l0.027,0.22l0.065,0.107l0.187,0.166l0.027,0.063
	l0.038-0.016h0.002l0.076-0.018l0.037-0.013l0.021-0.017l0.053-0.069l0.055-0.026l0.037,0.012l0.075,0.081l0.068,0.039l0.075,0.014
	l0.15-0.01l0.035,0.037l0.031,0.031l0.134,0.038l0.141,0.07l0.03,0.028l0.021,0.033l0.023,0.032l0.038,0.02l0.285,0.046l0.288,0.106
	l0.134,0.011l0.134-0.027l0.148-0.056l0.031-0.024l0.044-0.065l0.027-0.021l0.045-0.008l0.04,0.008l0.041,0.012l0.044,0.009
	l0.084-0.003l0.081-0.016l0.407-0.176l0.099-0.009l-0.04-0.075l-0.041-0.057l-0.036-0.062l-0.022-0.088l0.002-0.048l0.018-0.035
	l0.02-0.03l0.015-0.037l0.007-0.049l-0.001-0.03l-0.04-0.209l-0.014-0.034l-0.03-0.032l-0.075-0.046l-0.022-0.026l0.001-0.061
	l0.161-0.375l0.016-0.076l-0.021-0.097l-0.057-0.082l-0.057-0.015l-0.061,0.005l-0.064-0.034l-0.031-0.074l0.02-0.087l0.047-0.079
	l0.048-0.058l0.09-0.067l0.024-0.032l0.011-0.035l0.009-0.083l0.019-0.04l0.023-0.08l-0.001-0.139l-0.001-0.068l0.035-0.094
	l0.074-0.057l0.172-0.063l0.066-0.074l0.099-0.164l0.046-0.042l0.06-0.023l0.194-0.024l0.114-0.059l0.237-0.274l0.196-0.167
	l0.167-0.203l0.253-0.465l0.089-0.153l0.176-0.304l0.03-0.039l0.075-0.074l0.028-0.039l0.004-0.045l-0.027-0.033l-0.075-0.057
	l-0.036-0.05l-0.017-0.035l-0.023-0.022l-0.06-0.013l-0.086-0.042l-0.046-0.096l-0.034-0.113l-0.041-0.088l-0.005-0.012l0.002-0.148
	l-0.016-0.133l0.004-0.126l0.057-0.131l0.216-0.217l0.014-0.07l-0.035-0.063l-0.025-0.064l0.035-0.066l-0.081-0.034l-0.07-0.082
	l-0.009-0.015l-0.043-0.086l-0.017-0.094l0.032-0.11l0.073-0.093l0.083-0.085l0.068-0.086l0.023-0.05l0.01-0.05l-0.006-0.05
	l-0.031-0.057l-0.026-0.064l0.016-0.123l-0.017-0.063l-0.022-0.019l-0.069-0.021l-0.026-0.015l-0.019-0.027l-0.027-0.062
	l-0.016-0.022l-0.078-0.065l-0.161-0.08l-0.108-0.117l-0.061-0.054l-0.074-0.028l-0.074-0.011l-0.062-0.026l-0.134-0.218
	l-0.126,0.012l-0.137,0.068l-0.131,0.023l-0.433-0.149l-0.146,0.009l-0.088,0.02l-0.061-0.007l-0.045-0.04l-0.041-0.075
	l-0.052-0.022l-0.092,0.004l-0.092,0.02l-0.047,0.029l-0.287-0.094l-0.264-0.169l-0.07-0.029l-0.069-0.017h-0.001l-0.068-0.005
	l-0.063,0.009h-0.003l-0.117,0.036l-0.038-0.006l-0.197-0.136l-0.073-0.016l-0.152,0.076l-0.064-0.035l-0.109-0.147l-0.061-0.064
	l-0.064-0.047l-0.074-0.032l-0.09-0.013l-0.047,0.033l-0.123,0.237l-0.058,0.052l-0.455,0.287l-0.054,0.065l-0.029,0.103
	L1296.28,850.468z"/></svg>