<?xml version="1.0" encoding="utf-8"?>
<!-- Generator: Adobe Illustrator 15.0.0, SVG Export Plug-In . SVG Version: 6.00 Build 0)  -->
<!DOCTYPE svg PUBLIC "-//W3C//DTD SVG 1.1//EN" "http://www.w3.org/Graphics/SVG/1.1/DTD/svg11.dtd">
<svg version="1.1" id="Ebene_1" xmlns="http://www.w3.org/2000/svg" xmlns:xlink="http://www.w3.org/1999/xlink" x="0px" y="0px"
	 width="1920px" height="1080px" viewBox="0 0 1920 1080" enable-background="new 0 0 1920 1080" xml:space="preserve">

<path fill="#F4E0B6" stroke="#FFFFFF" d="M999.092,736.48l0.066,0.165l0.131,0.063l0.047,0.071l0.053,0.055l0.097,0.007l0.1-0.016
	l0.067-0.022l-0.025,0.089l-0.022,0.055l-0.005,0.046l0.021,0.062l0.046,0.021l0.063-0.009l0.05,0.021l0.006,0.107l-0.026,0.065
	l-0.105,0.159l-0.037,0.082l-0.005,0.068l0.002,0.078l-0.009,0.074l-0.039,0.057l-0.106,0.111l-0.024,0.122l0.027,0.125l0.103,0.248
	l0.028,0.12l0.02,0.277l0.079-0.014l0.586-0.002l0.051,0.067l-0.018,0.088l-0.085,0.066l0.059,0.067l0.066,0.056l0.081,0.035
	l0.247-0.001l0.092,0.024l0.069,0.07l0.282,0.444l0.029,0.133l-0.016,0.271l-0.081,0.534l0.029,0.261l0.079,0.141l0.108,0.061
	l0.123,0.045l0.12,0.09l0.051,0.104l0.015,0.129l-0.008,0.271l-0.064,0.317l-0.178,0.29l-0.483,0.495l0.092,0.04l0.095,0.094
	l0.153,0.198l0.101,0.2l0.159,0.162l0.126,0.085l0.38,0.127l0.044,0.029l0.064,0.072l0.039,0.028l0.067,0.007l0.057-0.014
	l0.052,0.003l0.051,0.057v0.116l-0.049,0.376l0.023,0.064l0.055-0.007l0.17,0.02l0.05,0.016l0.03,0.039l0.052,0.107l0.032,0.034
	l0.079,0.032l0.035-0.009l0.028-0.049l0.231-0.296l0.001-0.13l0.021-0.144l0.05-0.129l0.086-0.086l0.088-0.021l0.049,0.033
	l0.042,0.048l0.065,0.025l0.059-0.014l0.115-0.071l0.151-0.064l0.031,0.017l0.002,0.092l0.023,0.058l0.068-0.018l0.072-0.051
	l0.042-0.038l0.016,0.139l0.059,0.105l0.174,0.154l0.151,0.069l0.034,0.052l-0.002,0.073l-0.063,0.145l-0.015,0.078l0.031,0.105
	l0.067,0.056l0.08,0.039l0.066,0.063l0.029,0.22l0.042,0.091l0.11-0.017l0.089,0.019l0.078,0.027l0.083,0.019l0.101-0.013
	l0.066,0.001v0.047l-0.028,0.062l-0.009,0.042l0.099,0.09l0.043,0.065l0.029,0.031l0.025,0.01l0.057,0.005l-0.007,0.031l-0.03,0.039
	l-0.017,0.034l0.006,0.056l0.001,0.129l-0.01,0.07l0.097-0.019l0.066-0.058l0.034-0.091l0.002-0.116l0.058,0.036l0.036,0.054
	l0.022,0.067l0.033,0.159l-0.016,0.046l-0.036,0.04l-0.047,0.065l-0.027,0.01l-0.04-0.006l-0.045,0.002l-0.037,0.037v0.041
	l0.035,0.022l0.037,0.02l0.018,0.028l-0.018,0.075l-0.025,0.079l-0.015,0.074l0.032,0.096l-0.007,0.031l-0.016,0.033l-0.01,0.043
	l0.008,0.037l0.025,0.006l0.029-0.009h0.015l0.01,0.003l0.025,0.021l0.031,0.035l0.026,0.046l0.021,0.061l0.014,0.072l-0.004,0.076
	l-0.037,0.062l0.004,0.029l0.077,0.093l0.02,0.056l-0.04,0.103l-0.081,0.049l-0.077,0.058l-0.044,0.194l-0.043,0.054l-0.031,0.062
	l0.018,0.092l0.024,0.007l0.048-0.001l0.052,0.016l0.038,0.055l0.009,0.065l-0.007,0.215l0.014,0.065l0.02,0.039l0.013,0.042
	l-0.006,0.08l-0.118,0.11l-0.039,0.06l0.07-0.003l0.047,0.011l0.086,0.1l0.055,0.025l-0.009-0.045l0.025-0.083l0.044-0.037
	l0.051,0.087l0.02,0.049l0.052,0.09l0.018,0.053l0.038-0.098l0.009-0.042l0.091,0.079l0.006,0.156l-0.021,0.186l0.009,0.176
	l-0.168,0.06l-0.417,0.01l-0.208,0.061l-0.52,0.252l-0.248,0.151l-0.448,0.371l-0.227,0.132l-0.504,0.18l-0.129,0.021l-0.39-0.011
	l-0.01-0.009l-0.014-0.003l-0.042,0.019l-0.025,0.021l-0.062,0.076l-0.219,0.227l-0.081,0.049l-0.132,0.04l-0.386,0.021
	l-0.152,0.064l-0.105,0.102l-0.183,0.274l-0.214,0.224l-1.015,0.699l-0.106-0.013l-0.208-0.209l-0.12-0.039l-0.279,0.007
	l-0.135,0.021l-0.108,0.037l-0.103,0.064l-0.116,0.097l-0.172,0.177l-0.044,0.032l-0.008,0.006l-0.09,0.032l-0.025-0.018
	l-0.01-0.042l-0.04-0.05l-0.196-0.132l-0.112-0.045l-0.126-0.003l-0.131,0.036l-0.4,0.183l-0.132,0.033l-0.043-0.037l-0.032-0.055
	l-0.105-0.01l-0.188,0.06h-0.063l-0.072-0.036l-0.02-0.051l0.007-0.049v-0.026l-0.17-0.078l-0.259-0.034l-0.228,0.093l-0.079,0.303
	l-0.008,0.134l-0.066,0.095l-0.102,0.049l-0.117-0.002l-0.12,0.062l-0.11,0.034l-0.099-0.016l-0.083-0.078l-0.04-0.116l0.012-0.118
	l0.071-0.261l0.013-0.123l-0.007-0.135l-0.039-0.113l-0.089-0.058l-0.098,0.022l-0.107,0.063l-0.115,0.049l-0.119-0.016
	l-0.051,0.097l-0.055-0.017l-0.042,0.013l-0.043,0.024l-0.057,0.021l-0.076,0.056l-0.026,0.015l-0.03-0.003l-0.066-0.044
	l-0.037-0.003l-0.046,0.021l-0.104,0.073l-0.055,0.03l-0.056,0.012l-0.083-0.02l-0.055,0.005l-0.056,0.025l-0.186,0.115
	l-0.029,0.022l-0.013,0.024l-0.016,0.022l-0.036,0.018h-0.032l-0.059-0.018l-0.03-0.002l-0.021,0.004l-0.292,0.03l-2.064,0.728
	l-2.084,0.696l-1.424,0.41l-0.515,0.147l-1.938,0.555l-0.439,0.124l-1.496,0.426l-0.268,0.076l-0.149,0.069l-0.124,0.106
	l-0.254,0.327l-0.289,0.252l-0.231,0.303l-0.013,0.015l-1.197,1.058l-0.177,0.094l-0.955,0.211l-0.055,0.012l-0.424,0.156
	l-0.109,0.01l-0.373-0.021l-0.198,0.038l-0.392,0.19l-0.032,0.026l-0.019,0.025l-0.022,0.019l-0.047,0.006l-0.131-0.016
	l-0.062,0.005l-0.053,0.028l-0.319,0.318l-0.371,0.364l-0.147,0.116l-0.273,0.08l-0.265,0.153l-0.099,0.032l-0.751,0.157
	l-0.188,0.104l-0.099,0.125l-0.057-0.062l-0.046-0.07l-0.054-0.109l-0.046-0.029l-0.098-0.035l-0.158-0.091l-0.076-0.059
	l-0.042-0.067l-0.063-0.238l-0.002-0.055l0.039-0.065l-0.002-0.055l0.024-0.071l0.226-0.244l0.117-0.037l0.173-0.032l0.15-0.169
	l0.045-0.066l0.019-0.057l0.011-0.055l0.021-0.063l0.167-0.216l0.132,0.092l0.136,0.195l0.088,0.028l-0.02-0.092l0.036-0.085
	l0.089-0.055l0.113-0.007l0.212,0.056l0.176,0.002l0.203,0.034l0.097-0.018l0.094-0.084l0.086-0.203l0.082-0.081l0.129-0.031
	l0.118,0.01l0.11-0.019l0.104-0.114l0.057-0.044l0.056,0.038l0.051,0.063l0.042,0.033l0.381-0.284l0.092-0.051l0.128-0.046
	l0.077-0.049l0.057-0.074l0.069-0.066l0.121-0.028l0.108,0.025l0.177,0.077l0.105,0.047l0.06,0.04l0.067-0.007l0.351-0.094
	l0.04,0.016l0.09,0.056l0.03,0.009l0.047-0.021l0.13-0.074l0.052-0.058l0.041-0.094l0.064-0.067l0.127,0.019l0.022-0.035l0.03-0.026
	l0.035-0.012l0.09,0.034l0.03-0.015l0.024-0.022h0.033l0.055,0.04l0.063,0.087l0.041,0.034l0.045,0.022l0.045,0.015l0.054,0.001
	l0.066-0.018l0.059-0.031l0.22-0.177l0.073-0.133l0.106-0.271l0.049-0.066l0.049-0.046l0.029-0.051l-0.007-0.084l-0.041-0.025
	l-0.066-0.01l-0.042-0.021l0.035-0.061l-0.088-0.114l-0.098-0.16l-0.064-0.174l0.007-0.156l0.054-0.058l0.077-0.025l0.084-0.017
	l0.071-0.029l0.067-0.055l0.04-0.058l0.02-0.062l0.008-0.074l0.142,0.08l0.11,0.001l0.054-0.081l-0.03-0.164l-0.06,0.115
	l-0.081,0.021l-0.093-0.016l-0.091,0.015l-0.072,0.062l-0.106,0.14l-0.093,0.049l-0.055,0.018l-0.079,0.034l-0.063,0.063
	l-0.01,0.094l0.09,0.333l0.119,0.196l0.025,0.058l0.028,0.092l0.008,0.048l-0.006,0.042l-0.101,0.155l-0.026,0.069l-0.205,0.334
	l-0.062,0.069l-0.063,0.021l-0.063-0.01l-0.059-0.027l-0.016-0.182l-0.186-0.029l-0.403,0.045l-0.216,0.248l-0.091,0.051
	l-0.023-0.013l-0.034-0.034l-0.05-0.029l-0.07,0.002l-0.064,0.03l-0.077,0.08l-0.063,0.031h-0.067l-0.095-0.021l-0.16-0.055
	l-0.014-0.026l-0.005-0.044l-0.008-0.036l-0.022-0.01l-0.076,0.012l-0.04-0.002l-0.03-0.007l-0.046-0.038l-0.114-0.13l-0.026-0.015
	l-0.027-0.004l-0.026-0.014l-0.054-0.115l-0.045-0.059l-0.033,0.01l0.011,0.042l-0.002,0.025l-0.027,0.136l-0.016,0.043l0.033,0.201
	l-0.126,0.143l-0.212,0.104l-0.052,0.042l-0.091,0.108l-0.029,0.024l-0.06,0.01l-0.141,0.002l-0.206,0.059l-0.058,0.031
	l-0.092,0.077l-0.053,0.033l-0.066,0.019l-0.185,0.014l-0.057,0.029l-0.061,0.074l-0.047,0.026l-0.011,0.032l-0.01,0.07l-0.02,0.074
	l-0.039,0.054l-0.244-0.013l-0.209-0.055l-0.104-0.05l-0.057-0.065l-0.024-0.009l-0.055-0.001l-0.057-0.011l-0.039-0.034
	l-0.005-0.059l0.021-0.061l0.041-0.05l0.052-0.03l-0.012-0.042l-0.084,0.021l-0.065-0.028l-0.049-0.062l-0.041-0.074l0.09,0.483
	l-0.041,0.011l-0.1-0.079l-0.247-0.122l-0.055-0.105l-0.05,0.07l-0.024,0.076l-0.035,0.066l-0.08,0.047l-0.069,0.005l-0.055-0.026
	l-0.038-0.055l-0.018-0.08l0.038-0.17l0.078-0.144l0.036-0.149l-0.088-0.193l0.018,0.162l-0.002,0.048l-0.016,0.059l-0.018,0.032
	l-0.021,0.024l-0.081,0.133l-0.03,0.071l-0.002,0.081l0.025,0.123l0.094,0.192l0.014,0.097l-0.146,0.119l-0.184,0.271l-0.164,0.118
	l-0.117-0.034l-0.082-0.136l-0.061-0.19l-0.024-0.212l0.032-0.226l0.11-0.152l0.206,0.011l-0.013-0.086l-0.095-0.041l-0.119,0.009
	l-0.087,0.06l-0.073,0.174l-0.05,0.064l-0.074,0.004l0.021-0.056l-0.002-0.054l-0.024-0.044l-0.045-0.04l0.073-0.203l0.001-0.091
	l-0.055-0.094l-0.04,0.013l-0.009,0.07l-0.029,0.039l-0.041-0.013l-0.037-0.084l-0.006-0.073l0.014-0.081l0.114-0.353v-0.079
	l-0.025-0.071l-0.062-0.129l-0.022-0.063l-0.021-0.123l-0.01-0.254l-0.029-0.157l-0.033-0.091l-0.037-0.042l-0.026-0.135
	l0.002-0.069l0.021-0.057l0.063-0.112l0.001-0.062l0.044-0.162l0.178-0.097l0.238-0.064l0.897-0.245l0.829-0.227l1.208-0.334
	l0.711-0.194l0.352-0.097l0.146-0.041l0.204-0.056l0.029-0.038l-0.1-0.413l-0.021-0.091l-0.102-0.412v-0.087l0.055-0.053
	l0.369-0.147l0.223-0.151l0.069-0.021l0.376-0.069l0.087-0.034l0.148-0.104l0.106-0.107l0.114-0.087l0.173-0.041l0.63-0.04
	l0.2-0.059l0.168-0.084l0.161-0.121l0.127-0.152l0.071-0.184l-0.01-0.17l-0.074-0.362l0.042-0.151l0.087-0.168l0.081-0.154
	l0.11-0.09l0.177,0.06l0.309,0.166l0.326,0.125h0.001l0.001,0.001h0.001l0.407,0.086l0.197-0.005l0.214-0.041h0.089l0.214,0.063
	l0.108,0.004l0.117-0.01l0.069,0.02l0.152,0.128l0.189,0.097l0.204,0.026l0.206-0.033l0.195-0.084l0.164-0.099l0.069,0.005
	l0.196,0.104l0.063,0.034l0.087,0.02l0.095-0.008l0.204-0.068l0.087-0.008l0.079,0.049l0.055,0.046l0.065,0.033l0.071,0.021
	l0.244,0.033l0.173-0.015l0.175-0.054l0.362-0.171l0.354-0.067l0.185-0.077l0.134-0.123l0.288-0.35l0.093-0.082l0.109-0.039
	l0.266-0.204l0.257-0.101l0.25-0.169l0.478-0.224l0.303-0.259l0.156-0.348l-0.007-0.345l-0.179-0.252l-0.069-0.028l-0.15-0.032
	l-0.049-0.022l-0.014-0.006l-0.038-0.041l-0.051-0.109l-0.038-0.045l-0.114-0.048l-0.158-0.021l-0.167,0.005l-0.135,0.027
	l-0.084,0.045l-0.122,0.126l-0.072,0.062l-0.066,0.037l-0.11,0.03l-0.068,0.03l-0.126,0.081l-0.282,0.263l-0.361,0.222l-0.116,0.1
	l-0.336,0.357l-0.365,0.275l-0.108,0.068l-0.118,0.028l-0.16-0.014l-0.493-0.161l-0.056-0.017l-0.07-0.048l-0.049-0.073
	l-0.108-0.253l-0.071-0.104l-0.095-0.078l-0.134-0.053l-0.285-0.025l-0.267,0.078l-0.255,0.167l-0.38,0.371l-0.078,0.055
	l-0.093,0.001l-0.277-0.062l-0.049-0.033l-0.158-0.384l-0.066-0.1l-0.091-0.084l-0.111-0.046l-0.131-0.054l-0.242,0.01l-0.655,0.213
	l-0.38-0.019l-0.118,0.028l-0.356,0.268l-0.338,0.393l-0.109,0.062l-0.055-0.024l-0.146-0.113l-0.063-0.036l-0.247,0.029
	l-0.225,0.173l-0.185,0.242l-0.118,0.239l-0.034,0.116l-0.024,0.136l-0.008,0.141l0.004,0.04l0.007,0.083l0.051,0.232l-0.077,0.055
	l-0.268,0.075l-0.338,0.097l-0.339,0.097l-0.339,0.096l-0.339,0.095l-0.338,0.096l-0.339,0.097l-0.339,0.095l-0.338,0.096
	l-0.116,0.033l-0.223,0.063l-0.339,0.094l-0.338,0.095l-0.339,0.096l-0.337,0.094l-0.339,0.096l-0.338,0.095l-0.342,0.096
	l-0.001-0.002l-0.076-0.069l-0.043-0.053l-0.04-0.162l0.069-0.117l0.117-0.112l0.107-0.151l-0.034-0.009l-0.067-0.026l-0.034-0.007
	l0.051-0.087l0.026-0.104l-0.027-0.067l-0.113,0.017l0.039,0.089l0.003,0.119l-0.036,0.096l-0.08,0.016l-0.008,0.132l-0.063,0.106
	l-0.098,0.061l-0.112-0.005l-0.124-0.076l-0.054-0.099l-0.016-0.241l-0.027-0.144l-0.001-0.062l0.029-0.092l0.131-0.291l0.011-0.093
	l0.036,0.013l0.097,0.017l0.037,0.013l-0.019-0.023l-0.055-0.088l0.18-0.09l0.04,0.112l0.067,0.097l0.08,0.049l0.074-0.038
	l-0.076-0.12l-0.049-0.144l-0.053-0.109l-0.094-0.017l0.008-0.087l-0.026-0.572l-0.017-0.097l-0.07,0.214l-0.02,0.128l0.021,0.252
	l-0.018,0.158l-0.048,0.116h-0.077l-0.04,0.012l-0.034,0.092l-0.088,0.058l-0.108,0.048l-0.096,0.064l-0.045,0.067l-0.007,0.053
	l0.005,0.052l-0.014,0.061l-0.023,0.038l-0.052,0.054l-0.027,0.043l-0.025,0.121l-0.03,0.049l-0.063-0.011l-0.032-0.051l-0.02-0.071
	l-0.026-0.059l-0.058-0.013l-0.082-0.03l-0.06-0.105l-0.024-0.123l0.019-0.084l-0.055-0.07l-0.047-0.083l-0.068-0.181l-0.021-0.101
	l0.003-0.062l0.023-0.048l0.097-0.139l0.059-0.043l0.068-0.024l0.164-0.025l0.082,0.003l0.065,0.032l0.014,0.077l0.057-0.092
	l0.038-0.103l0.063-0.067l0.134,0.01l-0.035-0.126l0.027-0.07l0.059-0.055l0.061-0.081l-0.062,0.044l-0.069,0.036l-0.072,0.006
	l-0.07-0.048l0.204-0.229l0.065-0.107l0.094-0.221l0.059-0.092l0.16-0.102l0.055-0.136l0.059-0.045l0.052,0.011l0.056,0.029
	l0.051,0.012l0.047-0.043l0.025-0.036l0.076-0.069l0.034-0.043l-0.346,0.086l-0.162-0.018l-0.024-0.129l-0.074,0.072l-0.009,0.092
	l0.04,0.083l0.077,0.042l-0.058,0.058l-0.057,0.013l-0.061-0.008l-0.067,0.006l-0.041,0.031l-0.008,0.049l0.004,0.056l-0.004,0.052
	l-0.07,0.297l-0.034,0.073l-0.049,0.043l-0.109,0.063l-0.053,0.063l-0.031,0.077l-0.032,0.154l-0.039,0.071l-0.11,0.077l-0.123,0.01
	l-0.128-0.01l-0.134,0.025l0.063-0.274l-0.007-0.042l0.084-0.054l0.104-0.218l-0.066,0.043l-0.04,0.133l-0.054,0.044l-0.119,0.038
	l-0.044,0.024l-0.033,0.037l0.084,0.059l0.009,0.055l-0.063,0.136l-0.004,0.049l0.008,0.089l-0.015,0.056l-0.073,0.158l-0.01,0.059
	l0.02,0.17l0.171,0.54l-0.033,0.01l-0.33-1.101l-0.072-0.161l-0.165-0.252l-0.154-0.18l-0.065-0.047l-0.079-0.015l-0.151,0.006
	l-0.066-0.035l-0.051-0.075l-0.131-0.3l-0.062-0.09l-0.064-0.061l-0.131-0.078l-0.055-0.014l-0.038,0.002l-0.03-0.018l-0.028-0.074
	l-0.01-0.062l-0.003-0.121l-0.012-0.068l-0.052-0.088l-0.094-0.086l-0.219-0.13l-0.44-0.081l-0.077-0.051l-0.052-0.068l-0.272-0.245
	l-0.25-0.36l-0.304-0.254l-0.196-0.104l-0.111-0.042l-0.122-0.021l-0.123,0.013l-0.094-0.001l-0.265-0.061l-0.048-0.033
	l-0.179,0.053l-0.161,0.024l-0.134,0.047l-0.098,0.125l0.061,0.043l0.071,0.002l-0.018,0.097l-0.062,0.055l0.023,0.014l0.046,0.031
	l0.022,0.014l-0.012,0.094l-0.017,0.01l-0.009,0.039l-0.085-0.027l-0.491-0.369l-0.109-0.06l0.83-0.502l0.206-0.301l0.713-0.589
	l0.146-0.21l0.576-1.319l0.101-0.317l0.26-0.548l0.44-1.653l0.431-0.749l0.791-1.69l0.026-0.076l-0.015-0.063l-0.046-0.079l0,0
	l0.136-0.297l0.046-0.382l-0.021-0.718l0.035-0.088l0.075-0.316l0.1-0.303l0.006-0.45l0.041-0.146l0.09-0.111l0.237-0.135
	l0.099-0.099l0.036-0.079l0.025-0.086l0.206-1.184l0.02-0.271l0.042-0.136l0.084-0.151l0.113-0.151l0.132-0.126l0.146-0.077
	l0.215-0.032l0.072-0.018l0.072-0.037l0.063-0.052l0.183-0.191l0.072-0.058l0.076-0.039l0.082-0.012l0.062,0.015l0.05,0.032
	l0.084,0.085l0.115,0.076l0.134,0.017l0.146-0.031l0.151-0.072l0.043-0.047l0.045-0.037l0.048-0.025l0.054-0.004l0.085,0.004
	l0.04-0.01l0.046-0.024l0.248-0.194l0.09-0.039l0.227-0.022l0.053-0.019l0.156-0.079l0.103-0.03l0.294-0.004l0.207-0.058
	l0.055-0.002l0.156,0.018l0.101-0.007l0.098-0.039l0.091-0.062l0.085-0.083l0.133-0.172l0.072-0.07l0.096-0.048l0.276-0.036
	l0.094-0.041l0.072-0.062l0.057-0.075l0.14-0.265l0.074-0.094l0.09-0.072l0.097-0.023l0.062,0.028l0.04,0.053l0.048,0.045
	l0.08,0.006l0.093-0.032l0.088-0.052l0.258-0.196l0.098-0.054l0.201-0.075l0.302-0.054l0.102-0.037l0.666-0.329l0.129-0.094
	l0.039-0.04l0.025-0.044l-0.002-0.048l-0.023-0.034l-0.108-0.062l-0.044-0.072l0.007-0.084l0.051-0.082l0.088-0.055l0.092-0.004
	l0.062,0.044l0.055,0.056l0.068,0.038h0.046l0.047-0.021l0.043-0.032l0.037-0.04l0.027-0.051l0.011-0.045l0.013-0.096l0.037-0.071
	l0.062-0.063l0.136-0.103l0.072,0.012l0.087,0.057l0.008,0.009l0.054,0.075l0.07,0.058l0.116-0.021l0.188-0.108l1.067-0.282
	l0.07-0.032l0.205-0.125l0.063-0.022l0.056-0.004l0.18,0.022l0.07-0.012l0.067-0.025l0.254-0.159l0.065-0.024l0.255-0.033
	l0.067-0.021l0.064-0.03l0.064-0.039l0.059-0.048l0.153-0.149l0.059-0.042l0.119-0.049l0.403,0.018l0.05,0.016l0.03,0.038
	l0.002,0.07l-0.021,0.129l0.014,0.044l0.061,0.006l0.232-0.101l0.062,0.007l0.026,0.042l0.016,0.108l0.036,0.037l0.067,0.009
	l0.148-0.041l0.07-0.013l0.053,0.013l0.115,0.1l0.048,0.024l0.153,0.052l0.229,0.166l0.393,0.199l0.213,0.046l0.045,0.022
	l0.119,0.09l0.057,0.016l0.125,0.004l0.059,0.012l0.04,0.03l0.008,0.042l-0.029,0.109l-0.007,0.056l0.016,0.037l0.067,0.057
	l0.031,0.047l0.007,0.052l-0.021,0.123l0.032,0.091l0.108,0.02l0.247-0.014l0.053,0.012l0.104,0.039l0.044,0.029l0.035,0.039
	l0.065,0.151l0.035,0.049l0.044,0.041l0.052,0.03l0.059,0.015l0.053-0.005l0.05-0.022l0.047-0.034l0.096-0.092l0.091-0.109
	l0.038-0.059l0.095-0.193l0.042-0.06l0.049-0.048l0.053-0.034l0.056-0.022l0.059-0.014l-0.005,0.086l-0.024,0.116l-0.021,0.091
	l0.025,0.059l0.031,0.007l0.064,0.003l0.03,0.01l0.008,0.009l0.012,0.02l0.008,0.006l0.016,0.004l0.039,0.001l0.017,0.003
	l0.044,0.021l0.014,0.003l0.044-0.008l0.039-0.024l0.159-0.146l0.034-0.02l0.114-0.04l0.021-0.01l0.045-0.029l0.177-0.145
	l0.314-0.178l0.08-0.063l0.032-0.021l0.034-0.015l0.041-0.005l0.021,0.081l-0.085,0.224l-0.002,0.102l0.065,0.02l0.213-0.163
	l0.093-0.029l0.033,0.022l0.057,0.065l0.032,0.025l0.178,0.055l0.042,0.031l0.02,0.042l0.016,0.106l0.012,0.045l0.105,0.179
	l0.046,0.052l0.051,0.044l0.059,0.035l0.164,0.062l0.04,0.035l0.019,0.046v0.055l-0.012,0.113l0.005,0.052l0.017,0.036l0.029,0.028
	l0.122,0.089l0.064,0.076l0.038,0.096l0.014,0.12l-0.008,0.058l-0.016,0.059l-0.009,0.058l0.014,0.051l0.035,0.03l0.046,0.02
	l0.098,0.02l0.053,0.021l0.045,0.029l0.079,0.076l0.031,0.042l0.012,0.043l-0.007,0.049l-0.078,0.177l-0.018,0.058l-0.001,0.059
	l0.014,0.049l0.073,0.134l0.09-0.035l0.181-0.097l0.088-0.026l0.046,0.002l0.12,0.041l0.046,0.001l0.144-0.011l0.08,0.016
	l0.07,0.037l0.052,0.057l0.022,0.084l-0.012,0.245l0.007,0.055l0.016,0.049l0.028,0.051l0.037,0.014l0.189-0.02l0.087-0.042
	l0.086-0.09l0.074-0.094l0.084-0.08l0.094-0.048l0.101,0.011l0.042,0.031l0.024,0.048l0.042,0.164l0.024,0.035l0.068,0.058
	l0.032,0.036l0.017,0.045l0.021,0.209l0.033,0.092l0.059,0.079l0.082,0.052l0.387,0.114l0.085,0.054l0.05,0.088l-0.023,0.099
	l-0.1,0.053l-0.209,0.054l-0.058,0.068l0.045,0.064l0.153,0.088l0.057,0.022h0.055l0.059-0.02l0.127-0.074l0.064-0.023l0.063-0.005
	l0.059,0.019l0.037,0.032l0.02,0.042l0.007,0.051l-0.017,0.169l0.01,0.048l0.023,0.051l0.009,0.014l0.158-0.007l0.052,0.029
	l0.197,0.107l0.169,0.01l0.004-0.002l0.062-0.031l0.186-0.129l0.092-0.046l0.059-0.002l0.052,0.029l0.089,0.072l0.353,0.074
	l0.114,0.042l0.067,0.014l0.146-0.02l0.067,0.013l0.06,0.039l0.034,0.051l0.193,0.445l0.012,0.065l0.088,0.02l0.229,0.17l0.116,0.05
	l0.398,0.039L999.092,736.48z"/></svg>