<?xml version="1.0" encoding="utf-8"?>
<!-- Generator: Adobe Illustrator 15.0.0, SVG Export Plug-In . SVG Version: 6.00 Build 0)  -->
<!DOCTYPE svg PUBLIC "-//W3C//DTD SVG 1.1//EN" "http://www.w3.org/Graphics/SVG/1.1/DTD/svg11.dtd">
<svg version="1.1" id="Ebene_1" xmlns="http://www.w3.org/2000/svg" xmlns:xlink="http://www.w3.org/1999/xlink" x="0px" y="0px"
	 width="1920px" height="1080px" viewBox="0 0 1920 1080" enable-background="new 0 0 1920 1080" xml:space="preserve">

<path fill="#F4E0B6" stroke="#FFFFFF" d="M1434.01,351.976l0.056-0.057l0.027,0.019l0.021,0.058l0.111,0.177l0.019,0.123
	l-0.038,0.104l-0.093,0.067l0.028-0.091l-0.053-0.059l-0.066-0.061l-0.018-0.1l-0.002,0.04l-0.006-0.175L1434.01,351.976z
	 M1434.539,349.852l0.025,0.043l-0.102,0.046l-0.25,0.027l-0.188,0.148l-0.078-0.027l-0.067-0.068l-0.079-0.065l-0.059-0.02
	l-0.106-0.004l-0.036-0.007l-0.035-0.034l-0.018-0.04l-0.024-0.036l-0.056-0.023l-0.106-0.024l-0.105-0.038l-0.034-0.039l0.3-0.076
	l0.283,0.045l0.216-0.048l0.17-0.018l0.081,0.019l0.064,0.03l0.028,0.041l0.006,0.048l0.012,0.043l0.047,0.026l0.053,0.009
	l0.033,0.015L1434.539,349.852z M1430.141,350.308l0.069-0.031l-0.009,0.068l0.004,0.066l0.019,0.061l0.032,0.049l0.135,0.098
	l0.063,0.067l-0.045,0.02l-0.289-0.045l-0.134-0.062l0.058-0.095l0.059-0.063L1430.141,350.308z M1428.764,351.804l0.065,0.102
	l-0.079,0.107l-0.142,0.081l-0.336,0.081l-0.056,0.007l-0.197-0.039l-0.096-0.005l-0.08,0.021l-0.014-0.016l-0.004-0.007
	l-0.006-0.007l-0.019-0.017l0.001-0.035l0.174-0.133l0.037-0.047l0.204,0.034l0.212-0.019l0.191-0.048L1428.764,351.804z
	 M1428.097,351.693l0.009,0.047l-0.017,0.043l-0.028,0.032l-0.026,0.01l-0.036,0.007l-0.023,0.026l-0.02,0.032l-0.021,0.026
	l-0.238,0.091l-0.063-0.128l0.041-0.188l0.072-0.091l0.075-0.004l0.109,0.018l0.104,0.035L1428.097,351.693z M1425.015,354.216
	l0.058-0.012h-0.004l0.16-0.216l0.093-0.064l0.166-0.015l0.617,0.098l0.125,0.065l-0.011,0.078l-0.086,0.042l-0.113,0.015
	l-0.138-0.006l-0.084,0.01l-0.048-0.01l-0.038-0.032l-0.003-0.035l-0.01-0.032l-0.061-0.023l-0.049-0.005l-0.053,0.005l-0.041,0.021
	l-0.02,0.041l-0.016,0.055l-0.032,0.015h-0.043l-0.123,0.046l-0.1,0.014l-0.106-0.003l-0.092-0.018l0.023-0.02L1425.015,354.216z
	 M1424.532,355.426l0.028-0.03l-0.016-0.041l0.018-0.042l0.037-0.042l0.052-0.039l0.081-0.016l0.27,0.005l0.002-0.031l-0.053-0.065
	l0.049-0.063l0.09-0.065l0.079-0.072l-0.066-0.05l-0.025-0.055l0.021-0.047l0.077-0.022l0.095,0.02l0.089,0.049l0.124,0.091
	l0.047,0.012l0.104,0.006l0.044,0.014l0.022,0.027l0.018,0.035l0.024,0.036l0.047,0.029l0.1,0.021l0.111-0.002l0.104-0.021
	l0.082-0.037l-0.026-0.022l-0.025-0.036l-0.022-0.023l0.089-0.026l0.088,0.013l0.065,0.054l0.051,0.178l0.079,0.036l0.204,0.021
	l-0.108,0.169l-0.008,0.094l0.123,0.063l0.143,0.043l0.084,0.063l0.015,0.077l-0.06,0.08l-0.082,0.013l-0.367-0.037l-0.044,0.012
	l-0.042,0.018l-0.05,0.012l-0.063-0.004l-0.019-0.026l-0.018-0.045l-0.038-0.035l-0.077,0.007l-0.023,0.026l-0.034,0.087
	l-0.011,0.019l-0.057-0.033l-0.044-0.056l-0.04-0.041l-0.049,0.005l-0.067,0.018l-0.057-0.031l-0.053-0.049l-0.054-0.029
	l-0.063-0.006l-0.112,0.003l-0.203-0.026l-0.035-0.01l-0.042-0.02l-0.087-0.057l-0.059-0.025l-0.118-0.031l-0.123-0.014
	l-0.229-0.001l0.005-0.023L1424.532,355.426z M1425.104,353.786l0.071,0.016l-0.074,0.16l-0.027,0.038l-0.074,0.037l-0.033-0.03
	l-0.024-0.12l-0.095,0.007l-0.081-0.063l-0.079-0.088l-0.088-0.056l0.014-0.041l0.024-0.015h0.036l0.045,0.005L1425.104,353.786z
	 M1420.342,354.675l0.315,0.176l-0.01,0.045l-0.109,0.025l-0.116-0.009l-0.118-0.045l-0.148-0.026l-0.172-0.011l-0.087-0.061
	l0.025-0.091l0.029-0.042l0.042-0.048l0.111-0.042l0.112,0.04L1420.342,354.675z M1419.745,354.568l0.026,0.109l-0.01,0.102
	l-0.071,0.059l-0.077-0.01l-0.447-0.121l-0.037-0.006l-0.021-0.017l-0.021-0.056l-0.006-0.065l0.021-0.043l0.066-0.057l0.071-0.051
	l0.092-0.034l0.107-0.009l0.122,0.02l0.111,0.128l0.037-0.032L1419.745,354.568z M1417.693,356.375l0.059,0.033l-0.146,0.139
	l-0.044,0.017l-0.04-0.02l-0.029-0.036l-0.018-0.04v-0.034l0.05-0.048l0.083-0.018L1417.693,356.375z M1417.396,356.209l0.034,0.023
	v0.04l-0.024,0.046l0.007,0.039l0.085,0.014l-0.099,0.088l-0.105-0.038l-0.06-0.107l0.038-0.114l0.035-0.015l0.045,0.004
	L1417.396,356.209z M1417.445,346.956l0.041,0.118l-0.039,0.062l-0.119-0.175L1417.445,346.956z M1417.245,344.984l0.076-0.012
	l0.058,0.063l0.153,0.065l0.175,0.043l0.142,0.061l0.067,0.157l0.036,0.018l0.043,0.01l0.034,0.021l0.018,0.036v0.04l-0.007,0.04
	l0.015,0.241l0.017,0.053l-0.107,0.012l-0.205-0.011l-0.109,0.036l-0.095-0.091l-0.102-0.007l-0.102,0.027l-0.098,0.009l-0.062-0.06
	l-0.012-0.119l0.017-0.125l0.096-0.285l-0.014-0.096l-0.103-0.056l0.009-0.028L1417.245,344.984z M1416.939,346.993l0.01,0.014
	l-0.023,0.003l-0.055-0.001l0.003-0.014l0.009-0.008l0.01-0.007l0.006-0.011L1416.939,346.993z M1415.944,353.282l0.144,0.119
	l-0.121,0.048l-0.079-0.039l-0.07-0.076l-0.101-0.066l0.035,0.005l0.118-0.011L1415.944,353.282z M1416.004,345.238l0.008-0.048
	l-0.003-0.093l0.014-0.044l0.118-0.143l0.184-0.033l0.425,0.011l-0.05,0.05l-0.082,0.111l-0.137,0.257l-0.056,0.05l-0.063-0.039
	l-0.063,0.007l-0.123,0.079l-0.035-0.007l-0.11-0.081l-0.053-0.029L1416.004,345.238z M1406.315,331.15l0.067,0.037l-0.005-0.123
	l0.137-0.062l0.19,0.013l0.154,0.1l0.035,0.004l0.003-0.068l0.067,0.05l0.051,0.019l0.136-0.001l-0.003,0.033l-0.029,0.029
	l-0.088,0.027l-0.033,0.021l-0.025,0.043l-0.057,0.148l-0.055-0.045l-0.025-0.025l-0.027-0.012l-0.066-0.006l-0.049,0.009
	l-0.121,0.032l-0.051-0.002l-0.375-0.144l-0.038-0.031l0.026-0.04l0.06-0.013l0.059-0.004L1406.315,331.15z M1403.984,332.32
	l0.042-0.125l0.002-0.085l0.125-0.137l0.066-0.052l0.074-0.044l0.138-0.04l0.073-0.032l0.051-0.056l0.031,0.004l0.037-0.028
	l0.1-0.038l0.095-0.061l0.09-0.042l0.085,0.021l0.028,0.07l-0.057,0.072l-0.172,0.131l0.061,0.023l0.061-0.002l0.046,0.014
	l0.015,0.07l-0.011,0.062l-0.073,0.176l0.032,0.004l0.02-0.012l0.055-0.015l-0.027,0.025l-0.021,0.026l-0.017,0.032l-0.015,0.042
	l-0.033-0.004l-0.069-0.027l-0.325-0.042l-0.054,0.038l-0.349,0.092l0.005-0.065l-0.038,0.015l-0.03,0.016l-0.024,0.022l-0.022,0.03
	L1403.984,332.32z M1362.416,337l0.021-0.045l0.003-0.051l0.02-0.062l0.042-0.052l0.043-0.022l0.047-0.016l0.056-0.027l0.143-0.174
	l0.162,0.034l0.097-0.011l0.08-0.048l0.049-0.073l0.007-0.079l-0.062-0.077l-0.186-0.026l-0.034-0.047l-0.009-0.014l-0.027-0.104
	l-0.001-0.024l-0.009-0.01l-0.166-0.078l-0.104-0.104l-0.078-0.145l-0.023-0.166l0.063-0.159l0.106-0.073l0.587-0.167l0.162-0.091
	l0.039-0.015l0.066-0.014l0.029-0.012l0.027-0.031l0.039-0.069l0.027-0.011l0.043-0.027l0.051-0.065l0.033-0.068l-0.015-0.036
	l-0.06-0.032l-0.005-0.021l0.049-0.002l0.244,0.028l0.187,0.06l0.327,0.16l0,0l0.294,0.16l0.162,0.045l0.076,0.03l0.07,0.053
	l0.022,0.042l0.028,0.091l0.021,0.038l0.039,0.037l0.129,0.069l0.071,0.068l0.136,0.129l0.085,0.032l0.067-0.011l0.039-0.021
	l0.064-0.037l0.059-0.021l0.076-0.003l0.156,0.012l0.084-0.014l0.063-0.027l0.123-0.074l0.064-0.027l0.081-0.003l0.077,0.011
	l0.072-0.002l0.063-0.046l0.057-0.071l0.067-0.119l0.05-0.122l0.002-0.078l-0.057-0.045l-0.081-0.062l-0.063-0.104l0.005-0.118
	l0.172-0.34l0.043-0.059l0.049-0.033l0.051-0.025l0.015-0.032l-0.058-0.052l-0.179-0.232l-0.204-0.211l-0.091-0.068l-0.02-0.02
	l-0.024-0.046l-0.002-0.024l0.009-0.025l0.027-0.393l0.025-0.122l0.045-0.092l0.139-0.177l0.058-0.115l0.021-0.126l-0.005-0.125
	l-0.021-0.112l-0.024-0.055l-0.026-0.044l-0.008-0.049l0.026-0.073l0.038-0.053l0.041-0.03l0.05-0.015l0.063-0.008l0.117,0.007
	l0.133,0.042l0.101,0.075l0.02,0.105l0.057,0.109l0.164,0.091l0.192,0.051l0.146-0.006l0.023-0.026l0.022-0.073l0.021-0.024
	l0.041-0.009l0.028,0.005l0.022,0.01l0.03,0.003l0.407-0.034l0.278,0.053l0.114,0.006l0.075-0.02l0.064-0.043l0.19-0.169l0.149-0.1
	l0.145-0.018l0.172,0.215l0.066,0.041l0.152,0.065l0.068,0.055l0.119,0.127l0.084,0.047l0.092,0.021l0.289,0.016l0.08,0.033
	l0.15,0.088l0.075,0.026l0.09-0.012l0.116-0.089l0.078-0.013l0.071,0.035l0.074,0.068l0.112,0.142l0.017,0.042l0.022,0.083
	l0.029,0.036l0.048,0.019l0.106,0.012l0.052,0.023l0.055,0.068l0.14,0.312l0.021,0.021l0.048,0.015l0.091,0.046l0.127,0.15
	l0.095,0.038l0.087-0.019l0.091-0.05l0.109-0.089l0.038-0.031l0.158-0.266l0.067-0.035l0.03,0.018l0.081,0.09l0.033,0.029
	l0.048,0.016l0.17,0.022l0.035-0.01l0.1-0.021l0.03-0.022l0.021-0.03l0.026-0.026l0.044-0.01l0.075,0.021l0.176,0.093l0.087,0.03
	l0.093-0.001l0.187-0.052l0.07-0.004l0.06,0.043l0.081,0.157l0.044,0.066l0.125,0.098l0.121,0.076l0.112,0.089l0.098,0.134
	l0.069,0.154l0.049,0.042l0.096,0.031l0.167,0.009l0.062,0.034l0.033,0.099l0.023,0.037l0.029,0.012l0.034-0.007l0.036-0.024
	l0.01-0.002h0.01l0.011,0.003l0.011,0.005l0.021,0.046l0.028,0.033l0.04,0.016l0.05-0.003l0.099,0.005l0.086,0.034l0.037,0.015
	l0.213,0.126l0.171,0.178l0.098,0.077l0.107,0.015l0.064-0.064l0.045-0.158l0.053-0.193l0.053-0.081l0.063-0.074l0.074-0.065
	l0.087-0.051l0.022-0.074l0.093-0.123l0.065-0.123l0.015-0.018l-0.001-0.016l-0.023-0.047l-0.023-0.028l-0.107-0.094l0,0
	l-0.072-0.021l-0.024-0.05l-0.007-0.062l-0.018-0.058l-0.037-0.034l-0.175-0.116l-0.108-0.1l-0.385-0.559l-0.016-0.06l0.005-0.034
	l-0.009-0.03l-0.101-0.095l-0.012-0.008l-0.03-0.008l-0.009,0.022l-0.007,0.046l-0.018,0.027l-0.039-0.033l-0.017-0.065l0.012-0.067
	v-0.069l-0.055-0.067l-0.016-0.023l-0.007-0.019l0.005-0.011l0.021-0.002l0.03-0.004l0.098-0.028l-0.011-0.01l-0.038-0.023
	l-0.034-0.026l-0.037-0.024l-0.089-0.102l-0.054-0.161l-0.058-0.098l-0.092,0.089l-0.016-0.055l-0.025-0.088l-0.04-0.035
	l-0.052-0.028l-0.063-0.02l-0.073-0.01l0.074-0.094l-0.05-0.056l-0.09-0.052l-0.045-0.08l-0.053-0.429l-0.095-0.029l-0.311-0.153
	l-0.201-0.068l-0.087-0.048l-0.066-0.083l0.002-0.029l0.058-0.034l0.063-0.17l0.115-0.158l-0.022-0.097l-0.7-0.777l-0.073-0.081
	l-0.022-0.036l0.017-0.129l0.025-0.204l0.054-0.076l0.07-0.02l0.082-0.006l0.086-0.031l0.109-0.123l0.017-0.015l0.022-0.031
	l0.153-0.086l0.222-0.197l0.078-0.124l0.002-0.135l0.115-0.07l0.114-0.108l0.089-0.139l0.044-0.16l0.028-0.381l0.087-0.134
	l0.196-0.033l0.31,0.115l0.045,0.007l0.022-0.062l0.133-0.215l0.02-0.097l-0.035-0.005l-0.072,0.034l-0.09,0.015l-0.072-0.033
	l-0.036-0.067l-0.028-0.164l-0.037-0.073l-0.146-0.183l-0.128-0.277l-0.05-0.034l-0.035-0.071l-0.151-0.405l-0.012-0.075
	l0.027-0.078l0.102-0.126l0.025-0.072l-0.025-0.081l-0.064-0.06l-0.067-0.048l-0.027-0.047l-0.047-0.028l-0.284,0.002l-0.087-0.018
	l-0.063-0.03l-0.042-0.044l-0.017-0.036l-0.01-0.021v-0.003l0.02,0.013l0.003,0.003l0.005,0.003l0.002,0.002l-0.028-0.098
	l-0.043-0.08l-0.067-0.062l-0.102-0.042l-0.159-0.045l-0.071-0.037l-0.059-0.055l-0.022-0.042l-0.011-0.039l-0.014-0.135
	l-0.03-0.102l-0.018-0.167l-0.017-0.06l-0.033-0.044l-0.044-0.01l-0.041,0.022l-0.146,0.17l-0.019,0.035l-0.026,0.006l-0.02,0.01
	l-0.02,0.005l-0.031-0.005l-0.112-0.059l-0.092-0.085l-0.068-0.106l-0.041-0.113l-0.052-0.362l0.003-0.045l0.093-0.233l0.021-0.08
	l0.002-0.022l-0.008-0.063l0.006-0.039l0.037-0.109l0.018-0.112l0.09-0.25l0.051-0.058l0.037-0.034l0.028-0.035l0.136-0.238
	l0.021-0.059l0.031-0.255l0.018-0.075l0.032-0.071l0.042-0.066l0.051-0.06l0.059-0.039l0.063-0.022l0.051-0.034l0.02-0.069
	l-0.003-0.034l-0.012-0.021l-0.02-0.018l-0.027-0.023l-0.082-0.082l-0.055-0.092l-0.02-0.1l0.02-0.106l0.064-0.102l0.098-0.072
	l0.415-0.175l0.496-0.134l0.097-0.041l0.078-0.051l0.277-0.248l0.034-0.019l0.05-0.029l0.463-0.146l0.148-0.026l0.054-0.021
	l0.046-0.031l0.017-0.014l0.024-0.022l0.197-0.269l0.095-0.058l0.215-0.077l0.087-0.057l0.031-0.014l0.031-0.008l0.097-0.018
	l0.039-0.016l0.17-0.115l0.132-0.116l0.416-0.65l0.036-0.08l0.151-0.197l0.061-0.046l0.142-0.074l0.143-0.053l0.042-0.028
	l0.028-0.032l0.048-0.072l0.033-0.029l0.027-0.015l0.252-0.08l0.057-0.006l0.06,0.003l0.235,0.04l0.29,0.021l0.223,0.04l0.106,0.032
	l0.698,0.363l0.106,0.033l0.288,0.003l0.16,0.002l0.055-0.009l0.103-0.034l0.055-0.01l0.059,0.003l0.056,0.014l0.109,0.042
	l0.014,0.004l0.044,0.011l0.057,0.004l0.406-0.056l0.054,0.003l0.054,0.012l0.178,0.081l0.203,0.07l0.207,0.042l0.111,0.007
	l0.101-0.012l0.088-0.039l0.075-0.072l0.155-0.238l0.071-0.068l0.08-0.052l0.084-0.04l0.089-0.027l0.155-0.027l0.052-0.015
	l0.046-0.024l0.04-0.038l0.079-0.113l0.032-0.033l0.104-0.077l0.03-0.033l0.024-0.037l0.056-0.083l0.035-0.033l0.095-0.039
	l0.107-0.004l0.22,0.026l0.129-0.004l0.119-0.032l0.103-0.061l0.082-0.088l0.053-0.119l0.252-0.565l0.01-0.045l0.018-0.185
	l0.166-0.511l0.021-0.041l0.027-0.032l0.024-0.003l0.015-0.001l0.035,0.03l0.027,0.05l0.034,0.099l0.122,0.12l0.174,0.026
	l0.186-0.036l0.414-0.139l0.081-0.042l0.063-0.051l0.035-0.052l0.014-0.065l-0.008-0.188l0.018-0.097l0.08-0.188l0.146-0.188
	l0.2-0.108l0.236-0.022l0.251,0.07l0.301,0.14l0.107,0.03l0.207,0.028l0.089,0.036l0.054,0.06l0.02,0.02l0.1,0.171l0.062,0.218
	l0.059,0.097l0.107,0.051l0.092-0.019l0.052-0.067l0.022-0.09l0.002-0.087l-0.015-0.09l0.022-0.013l0.106-0.005l0.134,0.018
	l0.008,0.018l0.083,0.139l0.103,0.136l0.197,0.206l0.067,0.046l0.1,0.041l0.105,0.028l0.111,0.011l0.084-0.03l0.025-0.098l0.127-0.1
	l0.008-0.023l-0.009-0.06l0.006-0.02l0.024-0.008l0.057,0.007l0.021-0.005l0.207-0.113l0.05-0.054l0,0v-0.001l0,0l0.03-0.119
	l0.064,0.049l0.114,0.193l0.092,0.054l0.162-0.061l0.108,0.045l0.009,0.027l-0.005,0.07l0.003,0.02l0.03,0.011l0.075,0.002
	l0.071-0.025l0.026,0.001l0.019,0.021l0.013,0.064l0.014,0.023l0.09,0.044l0.112,0.033l0.113,0.003l0.09-0.04l0.05-0.013
	l0.228,0.058l0.151,0.022l0.336-0.034l0.146,0.025l0.132,0.069l0.199,0.166l0.099,0.117l0.036,0.033l0.049,0.028l0.112,0.05
	l0.035,0.023l0.023,0.049l0.018,0.125l0.017,0.055l0.03,0.04l0.087,0.095l0.021,0.029l-0.006,0.059l-0.063,0.075l-0.007,0.045
	l0.028,0.035l0.104,0.066l0.037,0.036l0.033,0.087l0.049,0.246l-0.006,0.063l0.071,0.143l0.244,0.129l0.247,0.167l0.071,0.259
	l-0.057,0.095l-0.102,0.072l-0.296,0.117l-0.043,0.003l-0.226-0.045l-0.068-0.006l-0.062,0.016l-0.033,0.083l-0.043,0.179
	l-0.02,0.078l-0.021,0.035l-0.055,0.067l-0.019,0.034l-0.003,0.042l0.009,0.088l-0.003,0.033l-0.044,0.071l-0.055,0.055
	l-0.044,0.058l-0.012,0.076l0.031,0.067l0.109,0.15l0.012,0.071l-0.027,0.028l-0.091,0.014l-0.021,0.036l0.016,0.04l0.077,0.054
	l0.023,0.032v0.079l-0.058,0.109l-0.002,0.074l0.042,0.079l0.068,0.059l0.074,0.052l0.06,0.058l0.035,0.097l-0.02,0.073
	l-0.039,0.068l-0.021,0.083l0.012,0.05l0.025,0.041l0.026,0.033l0.014,0.028v0.015l-0.001,0.028l-0.01,0.029l-0.016,0.031
	l-0.107,0.517l-0.12,0.238l-0.016,0.109l0.036,0.074l0.049,0.067l0.021,0.085l-0.025,0.054l-0.047,0.021h-0.046l-0.017-0.016
	l-0.003,0.039l0.013,0.013l0.027,0.01l0.127,0.129l0.017,0.037l-0.005,0.058l-0.027,0.03l-0.031,0.021l-0.017,0.026l0.04,0.174
	l0.062,0.137l0.001,0.004l0.02,0.044l0.029,0.165l-0.117,0.114l0.001,0.252l0.04,0.048l0.039,0.015l0.028,0.028l0.007,0.083
	l-0.019,0.067l-0.035,0.048l-0.039,0.041l-0.035,0.046l-0.026,0.065l-0.002,0.039l0.008,0.039l0.003,0.062l-0.016,0.086
	l-0.087,0.263l-0.02,0.159l-0.016,0.032l-0.047,0.009l-0.119-0.024l-0.052,0.005l-0.034,0.024l-0.027,0.035l-0.018,0.044
	l0.002,0.047l0.024,0.048l0.036,0.018l0.04,0.013l0.038,0.033l0.048,0.102l-0.021,0.066l-0.046,0.058l-0.034,0.08l0.011,0.079
	l0.086,0.19l0.119,0.191l0.013,0.035l-0.01,0.048l-0.024,0.033l-0.026,0.021l-0.013,0.016l0.017,0.069l0.093,0.142l0.034,0.085
	l0.007,0.101l-0.018,0.315l0.038,0.147l0.057,0.216l0.029,0.286l0.027,0.098l0.08,0.165l0.271,0.353l0.047,0.063l0.046,0.085
	l0.043,0.178l0.034,0.083l0.074,0.083l0.081,0.031l0.022,0.004l0.065,0.009l0.099,0.024l0.081,0.043l0.142,0.115l0.077,0.043
	l0.115,0.03l0.075,0.007l0.065,0.025l0.08,0.08l0.209,0.297l0.115,0.129l0.157,0.107l0.271,0.115l0.087,0.049l0.106,0.098
	l0.042,0.028l0.052,0.019l0.104,0.02l0.047,0.024l0.096,0.124l0.22,0.504l0.114,0.167l0.107,0.02l0.11-0.087l0.124-0.151
	l0.021,0.088l0.125,0.238l0.028,0.096l0.01,0.291l-0.056,0.376l0.012,0.187l0.116,0.105l0.055,0.001l0.09-0.04l0.047-0.012
	l0.041,0.002l0.06,0.01l0.015,0.003l0.389,0.03l0.31,0.072l0.361,0.041l0.013-0.003l0.713-0.159l0.178-0.072l0.28-0.181l0.166-0.054
	l0.07-0.038l0.057-0.074l0.004,0.001l0.027,0.005l0.026,0.017l0.021,0.028l0.016,0.037l0.017,0.028l0.021,0.01l0.021-0.006
	l0.044-0.035l0.02-0.004l0.019,0.008l0.059,0.062l0.053,0.014l0.059-0.007l0.06-0.023l0.121-0.008l0.198,0.005l0.109-0.017
	l0.055-0.021l0.033-0.02l0.036-0.013l0.063-0.003l0.05,0.011l0.161,0.07l0,0l0.054,0.067l0.079,0.033l0.108,0.021l0.111,0.002
	l0.085-0.023l0.039-0.042l0.023-0.024l0.109-0.258l0.119-0.129l0.41-0.313l0.081-0.11l0.036-0.029l0.043-0.013l0.088,0.003
	l0.04-0.007l0.079-0.056l0.096-0.143l0.069-0.046l0.057-0.001h0.046l0.072,0.049l0.109,0.138l0.095,0.063l0.099,0.036l0.846,0.216
	l0.209-0.01l0.419-0.194l0.088-0.055l0.04-0.025l0.185-0.054l0.262-0.016l0.465-0.163l0.316-0.165l0.227-0.11l0.211-0.029
	l0.301,0.02l0.116,0.087l0,0l-0.108,0.023l-0.271-0.046l-0.123-0.006l-0.151,0.046l-0.479,0.267l-0.188,0.18l-0.057,0.023
	l-0.339-0.042l-0.234,0.02l-0.151,0.063l-0.611,0.491l-0.05,0.002l0.017-0.111l-0.087,0.048l-0.158,0.158l-0.055-0.012l-0.034-0.005
	l0.043,0.084l0.015,0.076l0.031,0.063l0.095,0.034l0.487-0.007l0.127-0.043l0.037-0.005l0.056,0.025l-0.002,0.04l-0.026,0.048
	l-0.018,0.044l-0.022,0.014l-0.112-0.019l-0.044-0.002l-0.122,0.072l-0.11,0.121l-0.09,0.136l-0.218,0.49l-0.055,0.07l-0.013,0.067
	l0.088,0.068l-0.003,0.029l-0.055,0.102l-0.023,0.023l-0.045,0.013l-0.04-0.008l-0.033-0.016l-0.023-0.007l-0.107,0.019
	l-0.161,0.066l-0.094-0.002l0.04-0.125l-0.037-0.125l-0.079-0.112l-0.081-0.085l-0.119-0.055l-0.107,0.024l-0.049,0.065l0.053,0.069
	l0.02-0.036l0.026-0.025l0.031-0.015l0.035-0.008l0.084,0.079l0.056,0.107l-0.014,0.087l-0.123,0.023l-0.23-0.042l-0.109-0.043
	l-0.104-0.071l-0.001,0.03l0.039,0.036l0.137,0.089l-0.002,0.032l-0.064,0.012l-0.065,0.002l-0.063-0.012l-0.056-0.034l0.042,0.061
	l0.024,0.08l-0.011,0.067l-0.066,0.021l0.019,0.083l0.011,0.023l0.032-0.042l0.044-0.013l0.05,0.012l0.054,0.031l0.001-0.029
	l-0.068-0.112l0.059-0.023l0.051-0.016l0.052,0.003l0.056,0.032l0.085-0.088l0.163-0.028l0.102,0.055l-0.1,0.163l-0.338,0.252
	l-0.091,0.133l-0.05,0.053l-0.049-0.015l-0.112,0.063l-0.13,0.093l-0.127,0.056l-0.106-0.044l0.043-0.011l0.016-0.019l0.005-0.026
	l0.013-0.033l-0.05,0.058l-0.041-0.038l-0.049-0.072l-0.073-0.042l-0.002,0.036l0.049,0.032l0.02,0.034l-0.007,0.035l-0.029,0.032
	l-0.045-0.055l-0.012-0.027l-0.01-0.027l-0.008,0.244l-0.042,0.017l-0.101-0.115v0.204l0.02,0.064l0.037,0.005l0.053-0.058
	l0.073-0.033l0.058-0.049l0.008-0.101l0.063,0.032l0.069,0.019l0.15,0.021l-0.276,0.13l-0.079,0.056l-0.033,0.076l-0.014,0.088
	l0.019,0.064l-0.225-0.031l-0.057,0.002l-0.053,0.014l-0.026,0.019l0.021,0.014l0.032,0.012l0.031,0.047l0.027,0.018l0.227-0.033
	l0.058,0.005l-0.14,0.144l-0.081,0.059l-0.073,0.023l0.037-0.094l-0.088,0.006l-0.021,0.03l0.006,0.041l-0.011,0.04l-0.042,0.034
	l-0.039,0.015l-0.045,0.009l-0.057,0.018l-0.121,0.063l-0.1,0.077l-0.084,0.093l-0.074,0.113l-0.029,0.076l-0.027,0.294l0.025,0.09
	l0.067,0.06l0.08,0.046l0.063,0.051l0.041,0.09l0.003,0.098l-0.026,0.194l0.013,0.039l0.035,0.011l0.034,0.002l0.022,0.01
	l0.003,0.023l-0.009,0.052l-0.001,0.079l-0.045,0.138l0.022,0.216l0.032,0.112l0.047,0.053l0.096,0.035l0.003,0.052l-0.089,0.109
	l-0.178,0.312l-0.114,0.344l-0.149,0.759l0.016,0.105l0.092,0.18l0.027,0.215l0.048,0.059l0.001,0.001l0.088,0.029l0.126,0.019
	l-0.123,0.217l-0.033-0.005l-0.052-0.079l-0.089,0.018l-0.055,0.074l0.046,0.095l-0.034,0.048l0.001,0.042l0.016,0.047l0.007,0.063
	l-0.017-0.024l-0.021-0.024l-0.028-0.019l-0.04-0.014l-0.007,0.099l-0.03-0.021l-0.077-0.044l-0.03-0.02l-0.004,0.04l-0.04,0.085
	l-0.226-0.117l-0.095-0.077l0.051-0.08l0.002-0.029l-0.056-0.043l-0.044-0.048l-0.056-0.045l-0.089-0.034l-0.08-0.004l-0.075,0.015
	l-0.067,0.024l-0.285,0.14l-0.07,0.009l-0.049-0.024l-0.027-0.039l-0.024-0.045l-0.04-0.045l-0.037-0.017l-0.095-0.025l-0.043-0.02
	l0.026-0.038l-0.021-0.055l-0.05-0.054l-0.052-0.033l-0.122-0.016l-0.089,0.036l-0.075,0.045l-0.092,0.015l-0.034,0.016
	l-0.018,0.043l-0.024,0.041l-0.056,0.014l-0.136-0.123l-0.146-0.099l-0.145-0.123l-0.086-0.052l-0.098-0.011l-0.189,0.024
	l-0.051,0.016l-0.114,0.048l-0.035,0.009l-0.054-0.019l-0.032-0.027l-0.023-0.025l-0.113-0.058l-0.028-0.074l-0.016-0.091
	l-0.05-0.084l-0.07-0.029l-0.118-0.026l-0.112-0.007l-0.104,0.053l-0.11-0.051l-0.151-0.106l-0.035-0.004l0.04,0.062l0.042,0.055
	l0.036,0.056l0.013,0.063l-0.019,0.295l-0.023,0.116l-0.089,0.227l-0.04,0.2l-0.052,0.097l-0.068,0.326l-0.065,0.135l-0.151,0.168
	l-0.042,0.081l-0.039,0.006l-0.049-0.017l-0.055-0.033l-0.07-0.022l-0.082-0.007l0.102,0.068l0.08,0.03l0.218,0.028l0.07,0.05
	l0.038,0.102l0.074,0.618l-0.027,0.232l0.002,0.119l0.035,0.098l-0.134,0.209l-0.064,0.062l0.095,0.063l0.057,0.066l0.038,0.083
	l0.146,0.442l0.027,0.186l0.047,0.123l0.039,0.101l0.016,0.081l0.05,0.077l0.105,0.053l0.075,0.058l-0.033,0.094l0.035-0.064
	l0.09,0.022l0.079,0.049l0.053,0.07l0.018,0.082l0.033,0.076l0.09,0.023h0.005l0.17-0.004l0.223-0.118l0.264-0.241l0.026-0.012
	l0.03-0.029l0.04-0.029l0.053-0.006l0.048,0.003l0.197-0.018l0.207-0.049l0.089,0.026l0.08,0.056l0.216,0.193l0.072,0.045
	l0.164,0.075l0.371,0.124l0.074,0.038l0.284,0.221l0.2,0.096l0.212,0.078l0.218,0.057l0.167,0.023l0.056,0.008l0.343-0.031
	l0.107,0.003l0.331,0.07h0.117l0.383-0.089l0.076,0.005l0.076,0.054l0.381,0.167l0.051,0.002l0.06-0.035l0.052-0.041l0.05-0.029
	l0.057-0.015l0.108,0.001l0.043-0.006l0.05,0.006l0.063,0.032l0.027,0.03l0.06,0.088l0.049,0.04l0.187,0.06l0.046,0.027l0.182,0.137
	l0.521,0.574l0.223,0.154l0.242,0.077l0.189-0.038l0.029,0.021l0.003,0.07l0.021,0.039l0.038,0.019l0.059,0.012l0.203-0.006
	l0.03,0.016l0.039,0.021l0.048,0.011l0.063-0.02l0.012,0.183l0.137,0.164l0.678,0.51l0.058,0.034l0.082,0.034l0.142,0.12
	l0.095,0.036l0.125,0.026l0.11,0.038l0.105,0.048l0.292,0.175l0.05,0.021l0.056,0.031l0.102,0.112l0.054,0.03l0.306,0.065
	l0.112,0.002l0.228-0.047l0.1,0.016l0.081,0.097l-0.107,0.019l-0.002,0.08l0.058,0.097l0.071,0.078l0.055,0.044l0.07,0.045
	l0.083,0.039l0.098,0.025l0.115,0.002l0.199-0.041l0.096-0.001l0.106,0.032l0.116,0.063l0.062,0.033l0.095,0.038l0.125,0.011
	l0.229-0.041l0.115-0.001l0.079,0.032l-0.005,0.041l-0.04,0.031l-0.022,0.005l-0.01,0.093l0.003,0.072l0.01,0.049l0.024,0.046
	l0.049,0.026l0.221,0.035l0.097,0.039l0.468,0.377l0.048,0.026l0.057-0.003l0.039-0.008l0.021,0.015l0.004,0.067l0.021,0.091
	l0.061,0.093l0.081,0.084l0.085,0.068l0.108,0.048l0.257,0.082l0.089,0.065l0.021,0.059l0.006,0.064l0.023,0.054l0.07,0.033
	l0.041-0.004l0.026-0.028l0.013-0.043l0.001-0.053l0.071,0.048l0.057,0.057l0.061,0.049l0.083,0.031l0.072-0.021l0.118-0.137
	l0.065-0.045l0.07,0.002l0.099,0.023l0.089,0.036l0.036,0.041l-0.003,0.071l0.003,0.039l0.062,0.123l-0.07,0.006l-0.049,0.028
	l-0.039,0.045l-0.04,0.06l0.035,0.083l0.002,0.067l0.01,0.057l0.055,0.056l0.061,0.01l0.239,0.004l0.085-0.04l0.19-0.157
	l0.125-0.073l0.02-0.054l-0.023-0.098l0.105,0.082l0.011,0.207l0.076,0.057l0.127,0.05l0.233,0.175l0.134,0.063l0.151,0.016
	l0.102-0.033l0.083-0.041l0.098-0.009l0.063,0.027l0.052,0.08l0.069,0.027l0.243,0.004l0.431,0.071l0.017-0.004l0.017-0.013
	l0.025-0.01l0.038,0.009l0.031,0.024l0.051,0.072l0.029,0.026l0.054,0.025l0.052,0.02l0.101,0.022l0.017,0.003l0.115,0.003
	l0.225-0.035l0.215,0.008l0.128-0.007l0.123-0.023l0.259-0.114l0.086-0.016l0.127,0.011l0.092-0.002l0.434-0.144l0.426-0.229
	l0.009,0.042l-0.003,0.025l-0.008,0.023l-0.005,0.035l0.007,0.042l0.02,0.007l0.026-0.002l0.024,0.018l0.068,0.138l0.035,0.053
	l0.108,0.115l0.091,0.042l0.23,0.018l0.259-0.066l0.065-0.229l0.031-0.246l0.152-0.115l-0.012-0.169l0.01-0.167l-0.02-0.161
	l-0.1-0.155l-0.083-0.051l-0.097-0.042l-0.09-0.05l-0.062-0.083l-0.006-0.064l0.057-0.222l-0.014-0.087l-0.033-0.074l-0.035-0.058
	l-0.016-0.04l-0.034-0.165l-0.061-0.095l-0.01-0.003l0.02-0.19l0.011-0.031l-0.045-0.037l0.007-0.066l0.047-0.09l0.023-0.045
	l-0.023-0.031l-0.026-0.06l-0.023-0.032l0.065-0.051l0.102-0.178l0.052,0.002l0.062,0.017l0.091-0.019l0.177-0.064l-0.034-0.048
	l0.416,0.063l0.108-0.008l0.074-0.029l0.064-0.036l0.068-0.028l0.088-0.003l0.266,0.041l0.057-0.001l0.094-0.035l0.063,0.001
	l0.004,0.01l0.028,0.028l0.04,0.03l0.039,0.019l0.134,0.021l0.431,0.007l0.084,0.038l0.176-0.039l1.09,0.067l0.181-0.013l0.15-0.063
	l0.201-0.259l0.084-0.033l0.097-0.005l0.248-0.076l0.137-0.063l0.113-0.015l0.051-0.022l0.026-0.035l0.058-0.105l0.017-0.02
	l0.069-0.019l0.02-0.065l-0.016-0.084l-0.041-0.072l-0.165,0.021l-0.227-0.024l-0.197,0.023l-0.08,0.159l-0.043-0.105l0.127-0.136
	l0.184-0.113l0.119-0.043l0.749-0.148l1.122,0.008l1.021-0.048l0.645-0.032l1.992-0.076l0.828-0.189l0.49-0.206l0.118-0.048
	l0.118-0.021l0.08,0.016l-0.017,0.131l-0.076,0.055l-0.191,0.157l-0.069,0.09l-0.03,0.036l0.001,0.146l-0.06,0.088l-0.149-0.092
	l-0.186,0.023l-0.25-0.002l-0.053,0.065l-0.453-0.078l-0.396-0.039l-0.223,0.051l-0.076,0.147l0.017,0.175l0.188,0.146l0.096,0.052
	l0.03,0.037l-0.035,0.05l-0.043,0.026l-0.036,0.009l-0.046-0.002l-0.068-0.01l-0.109-0.053l-0.111-0.192l-0.104-0.088l-0.221-0.051
	l-0.3-0.012l-0.286,0.027l-0.176,0.067l-0.044,0.092l0.017,0.101l0.036,0.107l0.019,0.108l0.046,0.058l0.212,0.262l0.077,0.072
	l0.11,0.025l0.48,0.014l0.275-0.051l0.21-0.002l0.099-0.016l0.042-0.052l0.02-0.011l0.105-0.094l0.038-0.018l0.027-0.009
	l0.469-0.099l0.183-0.067l0.116-0.107l0.021-0.111l0.008-0.127l0.042-0.1l0.123-0.026l0.009,0.001l0.127,0.016l0.068,0.001
	l0.055-0.01l0.046-0.039l0.004-0.073l0.029-0.046l0.049-0.04l0.044,0.091l0.019,0.048l0.027,0.039l0.033,0.02l0.065-0.007
	l0.048-0.029l0.028-0.039l0.159-0.046l0.065-0.053l0.03-0.069l-0.009-0.081l0.066-0.05l0.037-0.038l0.021-0.042l0.011-0.129
	l-0.009-0.063l-0.037-0.131l-0.127-0.147l-0.066-0.052l-0.158-0.008l-0.1-0.012l0.187-0.106l1.228-0.618l0.096-0.087l0.061-0.13
	l0.036-0.078l-0.056-0.125l0.089-0.073l0.163-0.13l0.232-0.235l0.146-0.236l0.008-0.15l-0.002-0.214l-0.003-0.64l-0.1-0.222
	l-0.123-0.083l0.039-0.167l0.068-0.062l0.028-0.091l0.027-0.033l-0.012-0.012l0.017-0.165l-0.117,0.024l-0.128,0.062l-0.164,0.316
	l-0.051-0.158l0.034-0.145l0.124-0.117l0.14-0.179l0.067-0.167l0.027-0.086l0.013-0.076l0.028-0.096l0.036-0.082l0.034-0.033
	l0.071-0.133l0.115-0.161l0.056-0.038l1.015-0.389l0.494-0.218l0.433-0.19l0.215-0.161l0.378-0.469l0.631-0.493l0.226-0.243
	l0.003-0.001v-0.001l0.305,0.074l0.454,0.037l0.185,0.083l0.149,0.158l0.319,0.427l0.171,0.151l0.24,0.11l0.25,0.036l0.222,0.063
	l0.161,0.192l0.04,0.063l0.049,0.033l0.053,0.024l0.05,0.04l0.102,0.166l0.034,0.033l0.122,0.058l0.073,0.072l0.008,0.086
	l-0.069,0.102l-0.064,0.036l-0.071,0.023l-0.06,0.033l-0.025,0.065l0.018,0.065l0.091,0.102l0.006,0.006l0.027,0.055l-0.029,0.105
	l-0.102,0.066l-0.271,0.066l-0.052-0.01l-0.06-0.023l-0.047-0.005l-0.024,0.046l-0.013,0.06l-0.028,0.036l-0.048,0.022l-0.066,0.015
	l-0.125,0.065l-0.032,0.108l0.027,0.125l0.073,0.19l0.229,0.594l0.127,0.201l0.102,0.217l0.037,0.211l0.089,0.172l0.265,0.103
	l0.13,0.034l0.118,0.062l0.103,0.081l0.084,0.094l0.158,0.269l0.049,0.153l-0.049,0.082l-0.149,0.039l-0.149,0.059l-0.131,0.081
	l-0.091,0.105l-0.015,0.05l0.004,0.1l-0.024,0.048l-0.048,0.029l-0.14,0.041l-0.071,0.03l-0.049,0.021l-0.067,0.001l-0.068-0.023
	l-0.065-0.044l-0.479-0.285l-0.06-0.096l-0.021-0.113l-0.037-0.101l-0.106-0.056l-0.109-0.023l-0.19-0.065l-0.332-0.056l-0.229-0.06
	l-0.116,0.021l-0.085,0.085l-0.091,0.071l-0.133-0.025l-0.096-0.084l-0.033-0.073l-0.048-0.054l-0.141-0.03l-0.12-0.003
	l-0.075,0.024l-0.028,0.063l0.051,0.247l-0.034,0.082l-0.159,0.145l0.021,0.103l0.159,0.161l0.024,0.102l-0.066,0.208l-0.013,0.069
	l0.021,0.067l0.038,0.034l0.002,0.023l-0.087,0.031l-0.05,0.006l-0.168-0.022l-0.052-0.017l-0.005-0.002l-0.049-0.024l-0.053-0.02
	l-0.049,0.003l-0.12,0.045l-0.063,0.014l-0.068,0.002l-0.275-0.025l-0.113,0.032l-0.081,0.107l-0.012,0.058l-0.001,0.054
	l-0.009,0.047l-0.037,0.038l-0.05,0.007l-0.129-0.021l-0.037,0.002l-0.002,0.089l0.257,0.374l0.011,0.095l-0.028,0.09l-0.094,0.165
	l-0.113,0.303l-0.052,0.087l-0.137,0.147l-0.025,0.074l0.014,0.136l-0.012,0.088l-0.043,0.11l-0.028,0.046l-0.086,0.138
	l-0.103,0.087l-0.111,0.042l-0.657,0.095l-0.042,0.03l-0.024,0.051l-0.009,0.06l0.003,0.048l0.053,0.086l0.012,0.002l-0.005,0.079
	l-0.029,0.04l-0.031,0.019l-0.02,0.011l-0.033,0.042l0.023,0.078l0.047,0.041l0.066,0.025l0.13,0.027l0.234,0.071l0.098,0.009
	l0.136-0.021l0.084,0.002l0.05,0.039l0.04,0.053l0.061,0.044l0.052,0.013l0.101-0.001l0.052,0.005l0.144,0.044l0.126,0.065
	l0.089,0.057l-0.123,0.02l-0.097,0.047l-0.034,0.089l-0.186-0.092l-0.094-0.021l-0.042,0.046l0.018,0.07l0.046,0.047l0.127,0.07
	l-0.17,0.149l-0.195,0.12l-0.051,0.011l-0.067,0.004l-0.06,0.011l-0.027,0.033l0.037,0.072l0.009,0.04l-0.028,0.012l-0.041-0.018
	l-0.068-0.058l-0.028-0.014l-0.058,0.003l-0.101,0.03l-0.063,0.001l-0.021,0.02l0.001,0.051l-0.01,0.049l-0.055,0.013l-0.107,0.008
	l-0.075,0.045l-0.119,0.118l-0.222,0.09l-0.084,0.07l0.034,0.099l0.001,0.048l-0.077,0.025l-0.15,0.019l-0.055,0.029l-0.024,0.024
	l-0.203,0.421l-0.139,0.109l-0.231-0.038l-0.104-0.039l-0.013-0.03l0.002-0.076l-0.023-0.022l-0.055-0.003l-0.056,0.02l-0.026,0.054
	l-0.051,0.072l-0.109-0.024l-0.119-0.04l-0.078,0.025l-0.188-0.115l-0.088-0.068l-0.035-0.063l-0.037-0.022l-0.211-0.18
	l-0.064,0.028l0.027,0.094l0.057,0.106l0.027,0.068l-0.045,0.073l-0.07,0.019l-0.202-0.035l0.106,0.2l0.077,0.098v0.037
	l-0.082,0.004l-0.002,0.038l-0.035,0.097l-0.241,0.098l-0.271,0.05l-0.127-0.048l-0.063-0.121l-0.16-0.122l-0.204-0.102
	l-0.191-0.057l-0.001,0.032l0.304,0.197l0.113,0.119l-0.061,0.121l-0.09,0.007l-0.246-0.064l-0.078,0.007l-0.011,0.067l0.079,0.067
	l0.111,0.054l0.091,0.03l0.204,0.011l0.08,0.033l0.029,0.097l-0.02,0.053l-0.042,0.072l-0.049,0.062l-0.039,0.023l-0.02,0.026
	l-0.032,0.143l-0.053,0.065l-0.092,0.05l-0.276,0.108l-0.092-0.063l-0.134-0.03l-0.261-0.025l-0.039,0.005l-0.095,0.037
	l-0.066-0.001l-0.01,0.023l-0.003,0.113l-0.016,0.039l-0.118-0.088l-0.126-0.013l-0.145,0.014l-0.26-0.004l-0.009,0.035l0.023,0.049
	l0.005,0.046l-0.028,0.042l-0.041,0.044l-0.036,0.011l-0.015-0.062l-0.035-0.027l-0.081,0.021l-0.084,0.049l-0.039,0.062
	l-0.016,0.082l-0.035,0.036l-0.112,0.053l-0.088,0.09l-0.066,0.091l-0.081,0.068l-0.132,0.015l-0.001,0.033l0.193,0.044l0.155,0.077
	l0.072,0.12l-0.047,0.177l-0.141,0.097l-0.377-0.034l-0.153,0.044l-0.174-0.246l-0.066-0.044l-0.106-0.027l-0.168-0.059
	l-0.097-0.013l0.106,0.118l0.018,0.053l-0.013,0.063l-0.034,0.022l-0.149,0.055l-0.044,0.031l-0.03,0.08l-0.054,0.076l-0.116,0.019
	l-0.057-0.016l-0.035-0.016l-0.032-0.007l-0.049,0.009l-0.051,0.029l-0.053,0.075l-0.041,0.034l-0.06,0.021l-0.04,0.001
	l-0.018,0.018l0.014,0.069l0.031,0.038l0.099,0.055l0.021,0.021l0.021,0.083l0.044,0.085l0.028,0.079l-0.024,0.07l-0.045,0.019
	l-0.127,0.013l-0.05,0.018l-0.045,0.057l0.021,0.033l0.047,0.022l0.03,0.022l0.061,0.078l-0.003,0.027l-0.083-0.002l-0.051,0.005
	l-0.077,0.054l-0.048,0.019l-0.108-0.006l-0.277-0.059l-0.076,0.005l-0.18-0.048l-0.099-0.017l-0.089,0.002l-0.225,0.051
	l0.154,0.101l-0.001,0.032l-0.411-0.051l-0.058,0.026l0.025,0.103l0.096,0.168l-0.02,0.052l-0.002,0.035l0.039,0.006l-0.002,0.035
	l-0.066-0.001l-0.3-0.072l-0.045-0.036l-0.064-0.096l-0.072-0.052l-0.04,0.063l-0.027,0.107l-0.044,0.081l0.124,0.045l0.03,0.077
	l0.002,0.091l0.041,0.089l0.059,0.063l0.068,0.094l0.026,0.085l-0.071,0.04l-0.002,0.035l0.067,0.021l0.035,0.033l-0.007,0.035
	l-0.059,0.024v0.036l0.072,0.012l-0.019,0.105l0.042,0.098l0.059,0.041l0.077-0.148l0.094-0.003l0.109,0.021l0.086-0.018
	l0.153,0.026l0.229,0.126l0.147,0.136l-0.095,0.054l-0.002,0.032l0.052,0.012l0.035,0.021l0.067,0.068l-0.084,0.07l-0.198,0.061
	l-0.063,0.125l-0.042,0.008l-0.043,0.014l-0.021,0.057l-0.007,0.057l-0.016,0.04l-0.023,0.03l-0.036,0.022l-0.085,0.005
	l-0.242-0.042l-0.082,0.018l-0.087,0.033l-0.534,0.014l-0.731,0.094l-0.122-0.013l-0.099-0.043l-0.042-0.042l0.051-0.01l0.109,0.006
	l0.075-0.026l0.151-0.1l-0.112-0.049l-0.07,0.034l-0.059,0.064l-0.073,0.04l-0.037-0.004l-0.027-0.019l-0.022-0.021l-0.022-0.011
	l-0.093-0.014l-0.026-0.007l-0.171-0.089l-0.056-0.022l-0.125-0.011l-0.224,0.042l-0.079,0.001l-0.05-0.03l-0.029-0.042
	l-0.026-0.048l-0.041-0.047l-0.034-0.024l-0.036-0.016l-0.347-0.081l-0.122-0.047l-0.188-0.146l-0.218-0.086l-0.146-0.125
	l-0.13-0.088l-0.025-0.046l0.015-0.018l0.025-0.072l0.003-0.065l-0.055,0.009l-0.07,0.001l-0.076-0.064l-0.135-0.145l0.062,0.166
	l0.021,0.102l-0.046,0.042l-0.146-0.01l-0.058-0.073v-0.124l-0.039-0.09l-0.18,0.028l-0.221,0.113l-0.129,0.045l-0.14,0.004
	l-0.111-0.017l0.032-0.018l0.025-0.062l-0.016-0.045l-0.037-0.047l-0.088-0.093l-0.058,0.085l-0.085-0.012l-0.092-0.063
	l-0.074-0.028l-0.089-0.077l-0.099-0.055l-0.342-0.13l-0.1-0.058l-0.19-0.138l-0.484-0.175l-0.149-0.098l0.121-0.132l-0.133-0.192
	l-0.064-0.069l-0.055,0.004l-0.012,0.037l0.009,0.1l-0.007,0.041l-0.025,0.017l-0.075,0.007l-0.016,0.009l-0.05,0.095l-0.09-0.058
	l-0.071-0.108l0.005-0.052l-0.02-0.015l-0.063-0.058l-0.024-0.015l-0.041,0.006l-0.135,0.068l-0.001-0.084l-0.045-0.023
	l-0.062,0.022l-0.047,0.059l-0.033-0.042l0.058-0.066l0.039-0.075l-0.01-0.066l-0.094-0.042l-0.004-0.022l-0.045-0.049l-0.051-0.032
	l-0.027,0.029l-0.007,0.104l-0.015,0.044l-0.029,0.039l0.036,0.03l0.016,0.008l0.023,0.01v0.032l-0.044-0.014l-0.124-0.02h-0.021
	l-0.044-0.05l-0.01-0.041l0.001-0.042l-0.013-0.05l-0.051-0.079l-0.063-0.066l-0.077-0.059l-0.098-0.058l0.038,0.048l0.107,0.103
	l0.028,0.053l-0.011,0.044l-0.04,0.021l-0.043,0.016l-0.066,0.078l-0.095-0.058l-0.097-0.099l-0.057-0.072l0.04-0.017l0.022-0.029
	v-0.038l-0.021-0.048l-0.038,0.023l-0.056-0.086l-0.057-0.032l-0.021,0.014l-0.014,0.036l-0.024,0.033l-0.029-0.014l-0.049-0.062
	l-0.065-0.053l-0.027-0.045l0.007-0.112l-0.023-0.049l-0.055-0.021l-0.027,0.044l0.004,0.058l0.031,0.017l-0.078,0.041l-0.036-0.007
	l-0.071-0.031l-0.402-0.295l-0.083-0.087l-0.411-0.209l-0.231-0.157l-0.12-0.059l-0.127-0.046l-0.111-0.028l-0.106-0.037
	l-0.198-0.112l-0.117-0.024l-0.324-0.151l-0.273-0.098l-0.203-0.105l-0.109-0.022l-0.345,0.013l-0.06,0.023l-0.094,0.082
	l-0.07,0.006l-0.23-0.083l-0.119-0.071l-0.301-0.273l-0.086-0.111l-0.013-0.05l-0.001-0.108l-0.01-0.038l-0.045-0.044l-0.052-0.028
	l-0.057-0.032l-0.049-0.05l-0.027-0.072l0.015-0.046l0.024-0.039l0.005-0.054l-0.073-0.191l-0.004-0.024l-0.042-0.045l-0.041-0.028
	l-0.107-0.037l-0.08-0.012l-0.112,0.022h-0.065l-0.056-0.012l-0.058-0.022l-0.055-0.029l-0.045-0.036l-0.049-0.054l-0.006-0.021
	l0.015-0.023l0.015-0.062l0.021-0.054l0.031-0.048l0.005-0.048l-0.063-0.053l-0.159-0.071l-0.047-0.03l-0.084-0.096l-0.098-0.217
	l-0.03-0.044l-0.041-0.061l-0.051-0.041l-0.107-0.064l-0.049-0.045l-0.026-0.054l-0.032-0.112l-0.042-0.042l-0.47-0.228
	l-0.117-0.083l-0.195-0.193l-0.115-0.079l-0.211-0.11l-0.08-0.066l-0.204-0.223l-0.087-0.045l-0.093-0.022l-0.13-0.048l-0.083-0.061
	l-0.146-0.167l-0.084-0.075l-0.103-0.063l-0.089-0.032l-0.215-0.025l-0.124-0.027l-0.085-0.06l-0.05-0.09l-0.017-0.117l-0.001-0.207
	l-0.048-0.066l-0.434-0.389l-0.123-0.062l-0.348-0.127l-0.052,0.002l-0.03,0.079l-0.068,0.084l-0.088,0.075l-0.084,0.048
	l-0.119,0.017l-0.108-0.034l-0.207-0.11l-0.107-0.022l-0.092,0.019l-0.069,0.057l-0.038,0.088l-0.08,0.066l-0.145-0.039
	l-0.245-0.118l-0.06-0.018l-0.053-0.03l-0.048-0.019l-0.047,0.012l-0.024,0.041l-0.001,0.05l0.079,0.291l-0.022,0.066l-0.095,0.002
	l-0.049-0.034l-0.039-0.054l-0.045-0.047l-0.071-0.021l-0.054,0.01l-0.107,0.036l-0.057,0.01l-0.056-0.005l-0.095-0.028
	l-0.058,0.004l-0.061,0.024l-0.101,0.06l-0.065,0.017h-0.102l-0.292-0.034l-0.118,0.015l-0.218,0.077l-0.108,0.003l-0.052-0.021
	l-0.11-0.071l-0.055-0.027l-0.114-0.033l-0.111-0.019l-0.081-0.001h-0.049l-0.075,0.034l-0.155,0.218l-0.05,0.046l-0.055,0.04
	l-0.058,0.022l-0.042,0.03l-0.041,0.108l-0.032,0.041l-0.043,0.01l-0.105-0.006l-0.05,0.014l-0.038,0.045l-0.025,0.109l-0.025,0.04
	l-0.095,0.036l-0.093-0.011l-0.101-0.022l-0.107,0.001l-0.063,0.027l-0.104,0.08l-0.06,0.03l-0.053,0.008l-0.162-0.009l-0.162,0.037
	l-0.049,0.003l-0.067-0.017l-0.047-0.026l-0.044-0.033l-0.058-0.03l-0.103-0.005l-0.105,0.05l-0.09,0.077l-0.06,0.074l-0.096,0.093
	l-0.106,0.007l-0.114-0.046l-0.12-0.062l-0.129-0.036l-0.117-0.003l-0.102-0.017l-0.083-0.073l-0.031-0.098l-0.009-0.196
	l-0.058-0.077l-0.004-0.004l-0.088-0.029l-0.107,0.003l-0.198,0.029l-0.071-0.009l-0.047-0.027l-0.041-0.036l-0.053-0.029
	l-0.051-0.008h-0.101l-0.256-0.068l-0.101-0.011l-0.812,0.042l-0.434-0.06l-0.116-0.035l-0.135-0.021l-0.048,0.021l-0.046,0.02
	l-0.168,0.13l-0.085,0.023l-0.25,0.015l-0.09-0.014l-0.061-0.021l-0.039-0.008l-0.035,0.005l-0.045,0.018l-0.017,0.02l-0.024,0.063
	l-0.016,0.023l-0.032,0.014l-0.079,0.011l-0.032,0.017l-0.128,0.131l-0.063,0.034l-0.116,0.03l-0.102,0.042l-0.203,0.122
	l-0.097,0.009l-0.117-0.008l-0.086,0.035l-0.063,0.074l-0.044,0.11l-0.055,0.095l-0.49,0.494l-0.129,0.088l-0.246,0.075
	l-0.011,0.045l0.017,0.059l-0.008,0.073l-0.028,0.029l-0.089,0.046l-0.034,0.025l-0.02,0.033l-0.023,0.071l-0.017,0.031
	l-0.049,0.056l-0.043,0.033l-0.304,0.168l-0.735,0.213l-0.038,0.056l-0.029,0.055l-0.074,0.023l-0.125,0.005l-0.114,0.022
	l-0.105,0.045l-0.623,0.479l-0.448,0.185l-0.103,0.021l-0.072-0.029l-0.024-0.006l-0.034,0.009l-0.048,0.044l-0.028,0.009
	l-0.106-0.01l-0.184-0.037l-0.114,0.013l-0.182,0.064l-0.054,0.01l-0.026-0.005l-0.04-0.008l-0.047-0.028l-0.042-0.034l-0.051-0.024
	l-0.113,0.006h-0.001l-0.169,0.119l0,0l-0.123,0.015l-0.097-0.039l-0.169-0.13l-0.092-0.04l-0.073,0.017l-0.081,0.019h-0.002
	l-0.06-0.007l0.02-0.144l0.005-0.036l-0.033-0.091l-0.065-0.083l-0.235-0.21l-0.008-0.061l0.027-0.105l0.04-0.08l0.116-0.145
	l0.035-0.066l-0.008-0.035l-0.033-0.018l-0.076-0.014l-0.03,0.007l-0.025,0.025l-0.021,0.025l-0.013,0.011l-0.026-0.012
	l-0.024-0.016l-0.018-0.015l-0.005-0.006l-0.021-0.047l-0.026-0.03l-0.044-0.014l-0.088,0.005l-0.039-0.01l-0.02-0.035l-0.025-0.177
	l-0.023-0.081l-0.042-0.099l0.051-0.089l0.065-0.087l0.086-0.057l0.11,0.003l-0.139-0.15l-0.232-0.083l-0.255-0.035l-0.758-0.016
	l-0.287-0.059l-0.083-0.006l-0.188-0.013l-0.116-0.034l-0.492-0.234l-0.091-0.025l-0.213-0.002l-0.12-0.017l-0.19-0.091l-0.089-0.03
	l-0.102,0.016l-0.197,0.095l-0.068,0.003l-0.037-0.048l0.013-0.055l0.031-0.053l0.02-0.044l0.005-0.062l-0.003-0.041l-0.018-0.038
	l-0.04-0.06l-0.093-0.083l-0.098-0.046l-0.08-0.054l-0.041-0.106l0.005-0.083l0.062-0.281l0.03-0.051l0.037-0.02l0.025-0.029
	l-0.004-0.074l-0.027-0.046l-0.116-0.132l-0.042-0.028l-0.116-0.017l-0.105-0.027l-0.096-0.046l-0.086-0.074l-0.148-0.157
	l-0.076-0.037l-0.224-0.06l-0.213-0.083l-0.091-0.012l-0.129,0.061l-0.081,0.096l-0.096,0.073l-0.171-0.011l0.075,0.112l0.077,0.051
	l0.202,0.074l0.113,0.082l0.206,0.321l0.203,0.176l0.052,0.084l-0.072,0.079l-0.077,0.017l-0.364,0.007l-0.15,0.036l-0.055-0.003
	l-0.1-0.065l-0.053-0.016l-0.092,0.023l-0.415,0.219l-0.054,0.02l-0.055-0.008l-0.051-0.024l-0.045-0.01l-0.045,0.001l-0.053,0.011
	l-0.098,0.053l-0.129,0.142l-0.101,0.049l-0.138,0.01l-0.059,0.014l-0.122,0.12l-0.089-0.006l-0.092-0.054l-0.077-0.07l-0.015-0.071
	l-0.042-0.084l-0.057-0.067l-0.053-0.023l-0.044,0.028l-0.022,0.042l-0.03,0.038l-0.062,0.009l-0.068-0.024l-0.021-0.041l0.02-0.05
	l0.048-0.051l-0.144,0.017l-0.07,0.019l-0.035,0.038l-0.041,0.067l-0.073,0.005l-0.083-0.013l-0.068,0.016l-0.069,0.039
	l-0.168,0.051l-0.081,0.036l-0.093,0.07l-0.063,0.074l-0.037,0.089l-0.024,0.227l-0.033,0.077l-0.068,0.052l-0.117,0.043
	l-0.016-0.021l-0.042-0.031l-0.039-0.003l-0.012,0.122l-0.043,0.002l-0.054-0.031l-0.04-0.045l-0.085,0.093l-0.257,0.121
	l-0.081,0.076l-0.05,0.066l-0.423,0.329l-0.051,0.029l-0.064-0.001l-0.103-0.035l-0.061-0.013l-0.071,0.015l-0.041,0.048
	l-0.031,0.064l-0.037,0.058l-0.073,0.049l-0.07,0.021l-0.146,0.022l-0.173,0.074l-0.076,0.007l-0.052,0.033l-0.034,0.043
	l-0.064,0.101l-0.052,0.06l-0.125,0.1l-0.672,0.536l-0.064,0.033l-0.07,0.017l-0.063-0.004l-0.057-0.009h-0.051l-0.055,0.031
	l-0.107,0.095l-0.06,0.016l-0.068,0.01l-0.062,0.036l-0.055,0.048l-0.071,0.025l-0.004-0.109l-0.238,0.021l-0.07-0.042l-0.221-0.172
	l-0.074-0.143l-0.013-0.018l-0.024-0.019h-0.059l-0.059,0.011l-0.028,0.009l-0.026,0.016l-0.173,0.038l-0.061,0.003l-0.021,0.006
	l-0.037,0.058l-0.015,0.017l0.003,0.021l-0.005,0.016h-0.043l-0.023-0.009l-0.045-0.029l-0.028-0.009l-0.054,0l-0.095,0.027
	l-0.059-0.001l-0.042-0.007h-0.028l-0.034,0.012l-0.356,0.176l-0.107,0.033l-0.044-0.022l-0.024-0.074l-0.072-0.048l-0.09-0.019
	l-0.076,0.015l-0.039,0.052l-0.12,0.217l0.007,0.055l0.011,0.01l0.227,0.128l0.034,0.026l0.031,0.049l-0.063,0.083l-0.087,0.085
	l-0.103,0.075l-0.114,0.044l-0.123,0.005l-0.112-0.019l-0.109-0.004l-0.196,0.083l-0.234,0.064l-0.074,0.006l-0.097,0.035
	l-0.104,0.081l-0.058,0.019l0.021-0.097l0.008-0.032l0.031-0.036l0.16-0.066l0.042-0.006l0.035-0.014l0.037-0.044l0.012-0.048
	l-0.01-0.117l0.028-0.214l-0.069-0.194l-0.183-0.358l-0.021-0.095l0.031-0.242l-0.04-0.229l0.009-0.021l-0.009-0.016l-0.052-0.038
	l-0.192-0.071l-0.201-0.003l-0.198,0.018l-0.183-0.01l-0.108-0.018l-0.087-0.001l-0.187,0.024l-0.04-0.003l-0.126-0.04l-0.062,0.008
	l-0.058,0.04l-0.094,0.094l-0.113,0.084l-0.061,0.008l-0.042-0.056l-0.06-0.108l-0.063-0.077l-0.072-0.046l-0.184-0.063
	l-0.085-0.065l-0.191-0.323l-0.067-0.078l-0.066-0.042l-0.377-0.087l-0.087-0.004l-0.095,0.018l-0.049,0.032l-0.112,0.104
	l-0.046,0.018l-0.05-0.028l-0.003-0.043l0.009-0.05l-0.013-0.047l-0.092-0.052l-0.087,0.026l-0.097,0.047l-0.119,0.008l-0.049-0.002
	l-0.098,0.018l-0.033-0.003l-0.193-0.188l-0.118-0.175l-0.048-0.048l-0.067-0.042l-0.027-0.002l-0.024,0.013l-0.063,0.004
	l-0.097-0.008l-0.088-0.02l-0.055-0.05l-0.004-0.094l-0.003-0.078l-0.114-0.307l-0.028-0.042l-0.073-0.08l-0.032-0.045l-0.01-0.052
	l0.006-0.044l-0.01-0.04l-0.058-0.034l-0.085-0.017l-0.178,0.006l-0.088-0.01l-0.308-0.115l-0.063-0.042l-0.013-0.099l0.073-0.055
	l0.086-0.042l0.025-0.055l-0.008-0.119l0.063-0.084l0.183-0.15l0.064-0.144l0.021-0.03l0.05-0.013l0.098,0.023l0.051-0.002
	l0.068-0.073l-0.014-0.117l-0.076-0.218l0.016-0.182l0.041-0.207l0.015-0.205l-0.068-0.171v-0.015v-0.05l0.031-0.034l0.049-0.027
	l0.043-0.04l0.044-0.071l-0.004-0.019l-0.032-0.012l-0.038-0.054l-0.025-0.096l-0.01-0.104l-0.02-0.038l-0.092-0.094l-0.034-0.044
	l-0.027-0.084l-0.021-0.408l-0.02-0.091l-0.181-0.297l0.075-0.124l0.051-0.056l0.059-0.047l0.141-0.064l-0.008-0.073l-0.104-0.18
	l-0.053-0.185l-0.048-0.071l-0.098-0.076l-0.115-0.055l-0.091-0.01l-0.092,0.007l-0.116-0.004l-0.049-0.017l-0.03-0.027
	l-0.024-0.025l-0.021-0.015l-0.045-0.004l-0.089,0.012l-0.048-0.003l-0.323-0.103l-0.153-0.114l-0.108-0.185l-0.061-0.21
	l-0.009-0.186l0.017-0.085l0.072-0.174l0.044-0.072l0.163-0.149l0.054-0.083l-0.006-0.116l-0.117-0.562l-0.111-0.167l-0.057-0.068
	l-0.022-0.056l-0.024-0.046l-0.004-0.008l-0.077-0.059l-0.117-0.042l-0.079,0.019l-0.172,0.119l-0.281,0.006l-0.092,0.023
	l-0.189,0.135l-0.083,0.028l-0.024-0.091l0.03-0.059l0.173-0.191l0.146-0.322l0.007-0.042l-0.005-0.083l0.009-0.045l0.021-0.037
	l0.054-0.06l0.013-0.042l-0.007-0.087l-0.056-0.176l-0.007-0.093l0.018-0.18l-0.021-0.081l-0.063-0.086l-0.072-0.052l-0.167-0.085
	l-0.068-0.062l-0.045-0.088l-0.024-0.104l-0.014-0.246l-0.008-0.022l0.006-0.021l0.041-0.04l0.044-0.021l0.048-0.003l0.044-0.01
	l0.042-0.037L1362.416,337z"/></svg>