<?xml version="1.0" encoding="utf-8"?>
<!-- Generator: Adobe Illustrator 15.0.0, SVG Export Plug-In . SVG Version: 6.00 Build 0)  -->
<!DOCTYPE svg PUBLIC "-//W3C//DTD SVG 1.1//EN" "http://www.w3.org/Graphics/SVG/1.1/DTD/svg11.dtd">
<svg version="1.1" id="Ebene_1" xmlns="http://www.w3.org/2000/svg" xmlns:xlink="http://www.w3.org/1999/xlink" x="0px" y="0px"
	 width="1920px" height="1080px" viewBox="0 0 1920 1080" enable-background="new 0 0 1920 1080" xml:space="preserve">

<path fill="#F4E0B6" stroke="#FFFFFF" d="M1228.784,549.854L1228.784,549.854l0.003-0.003l0.075-0.062l0.051-0.03l0.077-0.025
	l0.063-0.021l0,0l0.09-0.174l0.036-0.005l0.06,0.032l0.056,0.007l0.021,0.008l0.022,0.008l0,0l0.017,0.053l-0.023,0.036l-0.11,0.073
	l-0.031,0.059l0.265-0.015l-0.015-0.079l0.014-0.081l0.074,0.031l0.104,0.062l0.048-0.037l0.005,0.07l0.062,0.064l-0.053,0.077
	l0.222,0.18l0.297,0.307l0.329,0.418l0.046,0.103l0.048,0.234v0.001l-0.127-0.082l-0.155-0.08l-0.165-0.063l-0.165-0.033
	l-0.304-0.02l-0.12-0.074h-0.002l-0.048-0.173l-0.031-0.065l-0.031-0.065l0,0l-0.149-0.111l-0.18-0.08l-0.151-0.04l-0.056-0.029
	l-0.053-0.058l-0.124-0.195l-0.014-0.062L1228.784,549.854z"/></svg>