<?xml version="1.0" encoding="utf-8"?>
<!-- Generator: Adobe Illustrator 15.0.0, SVG Export Plug-In . SVG Version: 6.00 Build 0)  -->
<!DOCTYPE svg PUBLIC "-//W3C//DTD SVG 1.1//EN" "http://www.w3.org/Graphics/SVG/1.1/DTD/svg11.dtd">
<svg version="1.1" id="Ebene_1" xmlns="http://www.w3.org/2000/svg" xmlns:xlink="http://www.w3.org/1999/xlink" x="0px" y="0px"
	 width="1920px" height="1080px" viewBox="0 0 1920 1080" enable-background="new 0 0 1920 1080" xml:space="preserve">

<path fill="#F4E0B6" stroke="#FFFFFF" d="M1413.235,325.989l0.05,0.055l-0.005,0.079l-0.018,0.069l-0.045,0.053l-0.089,0.032
	l-0.01-0.042l-0.016-0.022l-0.044-0.044l-0.064,0.024l-0.039-0.02l-0.013-0.049l0.011-0.068l0.054-0.063l0.114-0.022
	L1413.235,325.989z M1412.547,328.285l0.005-0.034l-0.029-0.037l-0.023-0.015l0.003-0.008l0.021-0.012l0.039,0.005l0.041,0.026
	l0.058,0.029l0.044,0.037l-0.036,0.048l-0.173,0.08l-0.087,0.023l-0.072-0.027l-0.025-0.069l-0.005-0.055l0.012-0.027l0.039-0.005
	l0.07,0.056l0.024,0.006l0.026,0.005l0.043-0.003L1412.547,328.285z M1411.65,328.374l0.01-0.027l-0.002-0.031l0.01-0.026
	l0.039-0.005l0.021-0.019l0.009-0.042l0.027-0.034l0.076,0.006l0.021,0.066l0.028,0.061l0.046,0.052l0.078,0.041l-0.04,0.037
	l-0.062,0.015l-0.06,0.005l-0.024,0.005l-0.013-0.005l-0.07,0.147l-0.068,0.066l-0.078,0.047l-0.078,0.007l-0.069-0.057
	l-0.033-0.102l0.028-0.077l0.063-0.06l0.066-0.05l0.019-0.008l0.037-0.005L1411.65,328.374z M1408.01,329.311l0.023-0.006
	l-0.047-0.06l-0.004-0.048l0.033-0.033l0.135-0.044l0.058,0.004l0.055,0.012l0.068,0.003l0.06-0.015l0.046-0.02l0.04-0.004
	l0.036,0.031l0.072-0.018l0.099,0.017l0.094,0.033l0.062,0.038l0.03,0.07l-0.002,0.076l-0.029,0.043l-0.046-0.03l-0.06,0.047
	l-0.111,0.002l-0.192-0.027l-0.228,0.009l-0.129-0.014l-0.112-0.051l0.023-0.005L1408.01,329.311z M1407.941,329.102l0.027,0.026
	l-0.006,0.047l-0.054-0.002l-0.122-0.034l-0.086,0.033l-0.102,0.052l-0.1,0.014l-0.078-0.074l0.057-0.078l0.02-0.017l0.028-0.007
	l0.025,0.004l0.017,0.007l0.002,0.005l0.05-0.019l0.09-0.043l0.044-0.016l0.039,0.005l0.037,0.027L1407.941,329.102z
	 M1392.791,306.607l0.079,0.011l0.055,0.027l0.099,0.073l0.067,0.026l0.034,0.006l0.068,0.023l0.129,0.064l0.074,0.046l0.049,0.062
	l0.021,0.089l-0.016,0.028l-0.035,0.014l-0.022,0.026l0.018,0.06l0.035,0.039l0.042,0.018l0.044,0.011l0.045,0.016l0.173,0.106
	l0.091,0.04l0.102,0.017l0.045-0.006l0.098-0.033l0.052-0.01l0.046,0.004l0.176,0.037l0.47,0.191l0.12,0.032l0.06-0.016l0.049-0.039
	l0.089-0.044l0.099-0.002l0.104,0.024l0.102,0.009l0.095-0.045l0.033-0.075l-0.012-0.173l0.03-0.069l0.05-0.024l0.049,0.001
	l0.049,0.009l0.046-0.001l0.149-0.053l0.025-0.002l0.062-0.004l0.058,0.017l0.057,0.03l0.083,0.027l0.155-0.038l0.045,0.009
	l0.106,0.038l0.054,0.005l0.076-0.018l0.115-0.079l0.078-0.038l0.022-0.007l0.127-0.096l0.126-0.072l0.808-0.32l0.187-0.019
	l0.498,0.008l0.154,0.027l0.382,0.177l0.158,0.074l1.206,0.561l0.074-0.006l0.06-0.068l0.037-0.01l0.033,0.001l0.028,0.014
	l0.02,0.026l0.049,0.031l0.055,0.012l0.058-0.006l0.13-0.042l0.155-0.005l0.077-0.013l0.062-0.027l0.163-0.118l0.146-0.052
	l0.134-0.002l0.137,0.014l0.154,0.001l0.566-0.074l0.167,0.004l0.155,0.028l0.065,0.031l0.054,0.033l0.057,0.014l0.066-0.027h0.001
	v-0.001l0.12,0.009l0.415,0.168l0.126,0.033l0.115,0.046l0.09,0.077l0.051,0.124l0.081,0.12l0.227,0.174l0.003,0.107l-0.089,0.083
	l-0.239,0.122l-0.075,0.104l0.013,0.208l0.069,0.232l0.023,0.076l0.139,0.29l0.154,0.15l0.072,0.038l0.054,0.06l0.092,0.133
	l0.193,0.163l0.337,0.349l0.079,0.121l0.068,0.18l0.016,0.176l-0.041,0.355l0.004,0.059l0.005,0.088l0.065,0.112l0.12,0.087
	l0.167,0.069l0.129,0.103l0.025,0.102l-0.064,0.229l0.079-0.031l-0.074,0.4l-0.011,0.225l0.106,0.154l-0.007,0.062l-0.036,0.022
	l-0.045,0.016l-0.035,0.039l-0.013,0.06l0.003,0.055l0.028,0.113l0.02-0.005l0.121-0.028l0.288-0.114l0.129-0.016l0.013,0.014
	l0.121,0.08l0.033,0.008l0.098,0.011l0.045,0.01l0.073,0.039l0.067,0.045l0.07,0.031l0.083,0.002l0.243-0.107l0.116-0.031
	l0.005-0.001l0.078,0.05v0.062l-0.038,0.057l-0.082,0.097l-0.026,0.063l-0.011,0.046l0.005,0.05l0.065,0.272l-0.014,0.062
	l-0.038,0.039l-0.117,0.058l-0.046,0.032l-0.057,0.088l-0.123,0.315l-0.011,0.195l-0.091,0.239l-0.047,0.211l0.122,0.123l0.072,0.01
	l0.07,0.019l0.063,0.033l0.145,0.145l0.107,0.053l0.072,0.065l-0.012,0.133l-0.098,0.217l0.015,0.082l0.084,0.103l0.013,0.015
	l0.07,0.069l0.091,0.063l0.103,0.023l0.024-0.01l0.089-0.04l0.036-0.054l0.028-0.125l0.045-0.048l0.059-0.017l0.07,0.002
	l0.136,0.023l0.279-0.047l0.079-0.001l0.077,0.021l0.178,0.069l0.391,0.115l0.075,0.002l0.055-0.056l0.023-0.076l0.044-0.059
	l0.113-0.002h0.001l0.147-0.036l0.083-0.09l0.076-0.249l0.073-0.063l0.201-0.098l0.091-0.064l0.159-0.152l0.087-0.055l0.111-0.039
	l-0.111-0.065l-0.046-0.077l0.018-0.081l0.073-0.079l0.092-0.046l0.305-0.051l0.105-0.043l0.031,0.036l-0.003,0.049l-0.008,0.101
	l0.009,0.085l0.019,0.018l0.052,0.032l0.015-0.009l0.134,0.019l0.012,0.008l0.086-0.017l0.247-0.095l0.512-0.078l-0.099,0.098
	l-0.037,0.122l-0.039,0.268l-0.051,0.123l-0.079,0.125l-0.099,0.112l-0.114,0.079l-0.058,0.039l-0.146,0.146l0.086,0.016
	l0.113,0.055l0.104,0.066l0.051,0.049l-0.002,0.099l-0.062,0.079l-0.087,0.057l-0.076,0.028l-0.187,0.037l-0.081,0.027l-0.249,0.14
	l-0.164,0.07l-0.104,0.07l-0.02,0.126l0.039,0.142l0.069,0.118l0.001,0.002l0.06,0.096l0.051,0.114l0.014,0.073l0.088,0.457
	l0.047,0.244l-0.006,0.038l-0.063,0.102l-0.047,0.13l-0.012,0.021l0.042,0.065l0.239,0.219l0.311,0.173l0.048,0.051l-0.029,0.068
	l-0.162,0.149l-0.055,0.069l-0.051,0.207l-0.11,0.458l-0.029,0.066l-0.081,0.046l-0.069,0.004l-0.024,0.026l0.057,0.112l0.047,0.068
	l0.018,0.022l0.044,0.05l0.075,0.062l0.081,0.039l0.185,0.002l0.202-0.055l0.352-0.137l0.171,0.015l0.119,0.129l0.245,0.499
	l0.055,0.068l0.066,0.063l0.322,0.232l0.126,0.13l0.07,0.18l0.002,0.218l-0.04,0.235l-0.02,0.113l-0.063,0.357l0.002,0.209
	l0.017,0.078l0.049,0.067l0.077,0.055l0.081,0.049l0.314,0.236l0.05,0.056l0.01,0.07l-0.023,0.085h-0.002l-0.03,0.007l-0.114,0.07
	l-0.033,0.046l0.03,0.073l-0.198,0.15l-0.031,0.041l-0.006,0.148l0.033,0.085l0.011,0.047l-0.013,0.039l-0.091,0.029l-0.229-0.008
	l-0.048,0.053l-0.017,0.026l-0.076,0.049l-0.024,0.031l0.005,0.035l0.022,0.032l0.006,0.031l-0.039,0.033l0.105,0.087l-0.003,0.125
	l-0.079,0.24l0.007,0.083l0.028,0.12l-0.011,0.082l-0.158,0.448l-0.011,0.08l-0.024,0.064l-0.129,0.119l-0.04,0.004l-0.216,0.083
	l-0.004,0.014l0.001,0.07l-0.01,0.017l-0.021-0.004l-0.024-0.008l-0.021,0.002l-0.033,0.012l-0.079-0.001l-0.032,0.009l0.104,0.048
	l0.113,0.009l0.199-0.01l0.091,0.027l0.092,0.053l0.158,0.125l0.062,0.064l0.03,0.065l0.009,0.083l-0.004,0.116l-0.016,0.061
	l-0.028,0.026l-0.037,0.016l-0.033,0.035l-0.017,0.046l-0.007,0.081l-0.021,0.034l0.037,0.004l0.064-0.097l0.102-0.079l0.092-0.015
	l0.037,0.106l-0.016,0.159l0.035,0.187v0.089l-0.037,0.062l-0.075,0.023h-0.076l-0.033-0.008l-0.016,0.013l-0.07,0.004l-0.026,0.019
	l-0.004,0.037l0.015,0.023l0.019,0.019l0.004,0.023l-0.011,0.03l-0.024,0.043l-0.04,0.037l-0.125,0.023l-0.06,0.041l-0.084,0.088
	l0.034,0.084l-0.07,0.018l-0.097-0.036l-0.046-0.069l-0.038-0.044l-0.09-0.061l-0.103-0.055l-0.075-0.027l-0.121-0.094l-0.051-0.193
	l-0.002-0.38v-0.004v-0.018h-0.001l-0.01-0.001l-0.026-0.003l-0.023,0.061l-0.033,0.014l-0.229-0.056l-0.042-0.021l-0.035-0.044
	l-0.03-0.061l-0.042-0.063l-0.072-0.052l-0.061-0.017l-0.206-0.014l-0.19,0.051l-0.272,0.108l-0.265,0.062l-0.177-0.093
	l-0.082,0.083l-0.021,0.044l-0.023,0.141l-0.03,0.055l-0.042,0.038l-0.191,0.034l-0.102,0.092l-0.061,0.134l-0.023,0.143
	l0.019-0.008l0.004-0.001l0.003-0.004l0.012-0.018l0.104,0.078v0.036l-0.037,0.017l-0.016,0.015l-0.021,0.059l0.033,0.004
	l0.063-0.021l0.077,0.039l0.146,0.116l-0.043-0.104l0.055-0.003l0.095,0.047l0.237,0.152l0.098,0.042l0.117,0.028l0.137,0.07
	l0.062,0.019l0.051,0.003l0.085-0.014l0.063,0.003l0.077,0.036l0.05,0.072l0.016,0.08l-0.024,0.061l0.024,0.023l0.017,0.025
	l0.024,0.06l-0.128,0.024l-0.079,0.093l-0.061,0.114l-0.07,0.092l0.121,0.214l0.08,0.094l0.077-0.009l-0.005,0.067l0.008,0.06
	l0.022,0.048l0.038,0.035l-0.054,0.088l-0.018,0.111l-0.029,0.055l-0.089-0.076l-0.132,0.134l-0.021,0.034l-0.044,0.026
	l-0.091-0.034l-0.081-0.049l-0.021-0.024l-0.164-0.01l-0.273,0.014l-0.146-0.006l-0.048-0.021l-0.055-0.042l-0.07-0.043
	l-0.094-0.026l-0.092-0.005l-0.064,0.012l-0.139,0.056l-0.041,0.006h-0.044l-0.044,0.003l-0.037,0.018l-0.011,0.031l-0.006,0.095
	l-0.006,0.022l-0.059-0.017l-0.033-0.06l-0.033-0.044l-0.057,0.032l-0.031-0.004l-0.062-0.044l-0.129-0.145l-0.084-0.148
	l0.073-0.053l0.001-0.03l-0.081-0.005l-0.137,0.031l-0.076,0.001l0.026,0.073l0.018,0.034l0.025,0.034l-0.068,0.053l-0.06,0.011
	l-0.068-0.006l-0.099,0.006l-0.081,0.021l-0.112,0.059l-0.068,0.022l0.016-0.038l0.003-0.014l0.014-0.003l0.046-0.004l0.001-0.03
	l-0.056-0.038l-0.043-0.055l-0.026-0.065l-0.009-0.075l0.032-0.062l0.128-0.061l0.029-0.07l-0.316,0.114l-0.052,0.04l-0.056-0.029
	l-0.019-0.013l-0.001,0.033l0.019,0.014l0.056,0.028l0.042-0.015l0.048,0.015l0.037,0.036l0.01,0.046l-0.027,0.045l-0.097,0.045
	l-0.074,0.12l-0.116,0.021l-0.132-0.012l-0.104-0.019l0.035,0.038l-0.107-0.029l-0.038-0.022l-0.005,0.044l-0.015,0.022
	l-0.057,0.022l0.183,0.022l0.082,0.018l0.06,0.033l-0.001,0.033l-0.021,0.049l0.014,0.071l0.033,0.071l0.035,0.05l-0.15,0.081
	l-0.064-0.107l0.034-0.021l0.078-0.064l0.002-0.036l-0.054,0.01l-0.071,0.044l-0.06,0.022l-0.216-0.026l-0.054-0.062l0.026-0.065
	l0.044-0.075l-0.003-0.092l-0.039-0.005l0.003,0.061l-0.017,0.046l-0.03,0.032l-0.035,0.017l-0.036-0.005l0.002-0.036l-0.036-0.005
	l0.021,0.055l0.012,0.016l-0.002,0.036l-0.039,0.001l-0.069,0.015l-0.002,0.033l0.108,0.014l-0.038,0.031l0.11,0.013l-0.002,0.031
	l-0.145-0.026l-0.109-0.04l-0.079-0.061l-0.056-0.086l-0.021-0.05l-0.008-0.044l0.012-0.04l0.041-0.043l0.032-0.056l-0.01-0.069
	l-0.042-0.063l-0.059-0.037l-0.001,0.03l0.065,0.051l-0.009,0.066l-0.048,0.064l-0.055,0.046l-0.002,0.033l0.099,0.211l-0.034,0.023
	l-0.066,0.025l-0.076,0.02l-0.061,0.004l-0.046,0.021l-0.068,0.104l-0.276,0.127v0.03l0.174-0.051l0.277-0.201l0.173-0.037
	l0.088,0.021l0.153,0.076l0.079,0.01l0.228-0.022l0.092,0.019l0.113,0.058l-0.066,0.001l-0.097,0.034l-0.075,0.002l-0.036,0.013
	l-0.092,0.073l-0.04,0.025l-0.116-0.087l-0.301-0.02l-0.211,0.029l-0.227,0.11l-0.316,0.165l-0.465,0.163l-0.262,0.016l-0.185,0.054
	l-0.04,0.025l-0.088,0.055l-0.419,0.194l-0.209,0.01l-0.846-0.216l-0.099-0.036l-0.095-0.063l-0.109-0.138l-0.072-0.049h-0.046
	l-0.057,0.001l-0.069,0.046l-0.096,0.143l-0.079,0.056l-0.04,0.007l-0.088-0.003l-0.043,0.013l-0.036,0.029l-0.081,0.11l-0.41,0.313
	l-0.119,0.129l-0.109,0.258l-0.023,0.024l-0.039,0.042l-0.085,0.023l-0.111-0.002l-0.108-0.021l-0.079-0.033l-0.054-0.067l0,0
	l-0.161-0.07l-0.05-0.011l-0.063,0.003l-0.036,0.013l-0.033,0.02l-0.055,0.021l-0.109,0.017l-0.198-0.005l-0.121,0.008l-0.06,0.023
	l-0.059,0.007l-0.053-0.014l-0.059-0.062l-0.019-0.008l-0.02,0.004l-0.044,0.035l-0.021,0.006l-0.021-0.01l-0.017-0.028
	l-0.016-0.037l-0.021-0.028l-0.026-0.017l-0.027-0.005l-0.004-0.001l-0.057,0.074l-0.07,0.038l-0.166,0.054l-0.28,0.181
	l-0.178,0.072l-0.713,0.159l-0.013,0.003l-0.361-0.041l-0.31-0.072l-0.389-0.03l-0.015-0.003l-0.06-0.01l-0.041-0.002l-0.047,0.012
	l-0.09,0.04l-0.055-0.001l-0.116-0.105l-0.012-0.187l0.056-0.376l-0.01-0.291l-0.028-0.096l-0.125-0.238l-0.021-0.088l-0.124,0.151
	l-0.11,0.087l-0.107-0.02l-0.114-0.167l-0.22-0.504l-0.096-0.124l-0.047-0.024l-0.104-0.02l-0.052-0.019l-0.042-0.028l-0.106-0.098
	l-0.087-0.049l-0.271-0.115l-0.157-0.107l-0.115-0.129l-0.209-0.297l-0.08-0.08l-0.065-0.025l-0.075-0.007l-0.115-0.03l-0.077-0.043
	l-0.142-0.115l-0.081-0.043l-0.099-0.024l-0.065-0.009l-0.022-0.004l-0.081-0.031l-0.074-0.083l-0.034-0.083l-0.043-0.178
	l-0.046-0.085l-0.047-0.063l-0.271-0.353l-0.08-0.165l-0.027-0.098l-0.029-0.286l-0.057-0.216l-0.038-0.147l0.018-0.315
	l-0.007-0.101l-0.034-0.085l-0.093-0.142l-0.017-0.069l0.013-0.016l0.026-0.021l0.024-0.033l0.01-0.048l-0.013-0.035l-0.119-0.191
	l-0.086-0.19l-0.011-0.079l0.034-0.08l0.046-0.058l0.021-0.066l-0.048-0.102l-0.038-0.033l-0.04-0.013l-0.036-0.018l-0.024-0.048
	l-0.002-0.047l0.018-0.044l0.027-0.035l0.034-0.024l0.052-0.005l0.119,0.024l0.047-0.009l0.016-0.032l0.02-0.159l0.087-0.263
	l0.016-0.086l-0.003-0.062l-0.008-0.039l0.002-0.039l0.026-0.065l0.035-0.046l0.039-0.041l0.035-0.048l0.019-0.067l-0.007-0.083
	l-0.028-0.028l-0.039-0.015l-0.04-0.048l-0.001-0.252l0.117-0.114l-0.029-0.165l-0.02-0.044l-0.001-0.004l-0.062-0.137l-0.04-0.174
	l0.017-0.026l0.031-0.021l0.027-0.03l0.005-0.058l-0.017-0.037l-0.127-0.129l-0.027-0.01l-0.013-0.013l0.003-0.039l0.017,0.016
	h0.046l0.047-0.021l0.025-0.054l-0.021-0.085l-0.049-0.067l-0.036-0.074l0.016-0.109l0.12-0.238l0.107-0.517l0.016-0.031l0.01-0.029
	l0.001-0.028v-0.015l-0.014-0.028l-0.026-0.033l-0.025-0.041l-0.012-0.05l0.021-0.083l0.039-0.068l0.02-0.073l-0.035-0.097
	l-0.06-0.058l-0.074-0.052l-0.068-0.059l-0.042-0.079l0.002-0.074l0.058-0.109v-0.079l-0.023-0.032l-0.077-0.054l-0.016-0.04
	l0.021-0.036l0.091-0.014l0.027-0.028l-0.012-0.071l-0.109-0.15l-0.031-0.067l0.012-0.076l0.044-0.058l0.055-0.055l0.044-0.071
	l0.003-0.033l-0.009-0.088l0.003-0.042l0.019-0.034l0.055-0.067l0.021-0.035l0.02-0.078l0.043-0.179l0.033-0.083l0.062-0.016
	l0.068,0.006l0.226,0.045l0.043-0.003l0.296-0.117l0.102-0.072l0.057-0.095l-0.071-0.259l-0.247-0.167l-0.244-0.129l-0.071-0.143
	l0.158,0.017l0.117-0.005l0.106-0.034l0.454-0.229l0.093-0.076l0.02-0.03l0.024-0.064l0.023-0.032l0.182-0.1l0.04-0.035l0.021-0.044
	l0.014-0.074l0.007-0.131l-0.015-0.139l-0.041-0.133l-0.072-0.117l-0.02-0.079l-0.037-0.072l-0.092-0.138l0.027-0.035l0.032-0.033
	l0.037-0.027l0.039-0.022l-0.024-0.073l0.042-0.079l0.081-0.063l0.09-0.026l-0.052-0.077l0.005-0.047l0.034-0.043l0.037-0.071
	l0.01-0.064l-0.012-0.101l0.005-0.049l0.079-0.122l0.127-0.058l0.141-0.038l0.127-0.067l0.387-0.361l0.065-0.099l0.011-0.017
	l0.033-0.112l-0.009-0.115l-0.044-0.119l0.01-0.108l0.074-0.232l-0.002-0.092l-0.085-0.076l-0.237-0.012l-0.075-0.063l-0.068-0.073
	l-0.056-0.087l-0.063-0.078l-0.091-0.042l-0.097,0.015l-0.075,0.053l-0.07,0.068l-0.077,0.056l-0.304,0.09l-0.089,0.064
	l-0.113,0.148l-0.066,0.058l-0.104,0.029l-0.123-0.029l-0.098,0.007l-0.082,0.043l-0.081,0.083l-0.055,0.016l-0.057,0.001
	l-0.058-0.012l-0.054-0.026l0.021-0.09l0.083-0.195v-0.079l-0.024-0.014l-0.078-0.02l-0.02-0.014l-0.002-0.024l0.006-0.049
	l-0.002-0.072l0.026-0.108l0.016-0.16l-0.007-0.089l-0.044-0.077l-0.102-0.078l-0.106-0.04l-0.26-0.07l-0.083-0.049l0.032-0.024
	l0.193-0.261l0.014-0.044l0.008-0.062l-0.016-0.063l-0.004-0.03l-0.025-0.25l-0.047-0.121l-0.095-0.056l-0.004-0.018l-0.028-0.036
	l-0.033-0.023l-0.033,0.05l-0.033,0.001l-0.036-0.012l-0.021-0.011l-0.024-0.045l0.008-0.048l0.017-0.057l0.008-0.07l-0.03-0.002
	l-0.015,0.032l-0.024,0.018l-0.037,0.007l-0.048-0.002l-0.049-0.012l-0.013-0.024l-0.002-0.03l-0.017-0.035l-0.092-0.105
	l0.026-0.026l0.099-0.048l0.063-0.013l0.16-0.01l0.047-0.011l0.027-0.038l0.029-0.103l0.032-0.044l0.15-0.077l0.048-0.073
	l0.035-0.053l0.121-0.323l0.018-0.019l0.042-0.032l0.032-0.019l0.075-0.029l0.249-0.14l0.133-0.11l0.051-0.06l0.029-0.062
	l0.005-0.067l-0.1-0.186l-0.021-0.024l-0.014-0.027l-0.002-0.049l0.017-0.04l0.061-0.081l0.011-0.045l-0.015-0.059l-0.025-0.019
	l-0.031-0.004l-0.126-0.061l-0.011-0.058l-0.012-0.021l-0.145-0.101l-0.171-0.147l-0.026-0.005l-0.002-0.014l0.028-0.056l0.065-0.07
	l0.063-0.034l0.027-0.047l-0.03-0.104l-0.095-0.147l-0.114-0.134l-0.077-0.043l-0.085-0.033l-0.058-0.042l0.003-0.068l0,0v-0.001
	v-0.001l0.015-0.068l-0.02-0.041l-0.101-0.056l-0.1-0.017l-0.032-0.009l-0.024-0.021l-0.031-0.056l-0.021-0.025l-0.119-0.089
	l-0.063-0.074l0.01-0.083l0.1-0.115l0.085-0.08l0.021-0.043l0.021-0.083l0.055-0.102l0.005-0.053l-0.05-0.063l-0.037-0.017
	l-0.043-0.003l-0.042,0.002l-0.039-0.005l-0.041-0.017l-0.046-0.036l-0.027-0.017l-0.111-0.045l-0.032-0.032l-0.034-0.073
	l-0.23-0.169l-0.053-0.066l0.134-0.044l0.125,0.033l0.249,0.125l0.077,0.012L1392.791,306.607z"/></svg>