<?xml version="1.0" encoding="utf-8"?>
<!-- Generator: Adobe Illustrator 15.0.0, SVG Export Plug-In . SVG Version: 6.00 Build 0)  -->
<!DOCTYPE svg PUBLIC "-//W3C//DTD SVG 1.1//EN" "http://www.w3.org/Graphics/SVG/1.1/DTD/svg11.dtd">
<svg version="1.1" id="Ebene_1" xmlns="http://www.w3.org/2000/svg" xmlns:xlink="http://www.w3.org/1999/xlink" x="0px" y="0px"
	 width="1920px" height="1080px" viewBox="0 0 1920 1080" enable-background="new 0 0 1920 1080" xml:space="preserve">

<path fill="#F4E0B6" stroke="#FFFFFF" d="M741.815,661.972l0.032,0.064l0.075-0.002l0.054,0.018l0.149,0.188l-0.008,0.034
	l-0.01,0.079l0.001,0.093v0.054l0.011,0.126v0.013l-0.043,0.172L742,662.975l-0.091,0.106l0.014,0.017l0.008,0.022l0.014,0.02
	l-0.108,0.146l-0.067,0.142l-0.017,0.035l-0.102,0.165l-0.162,0.108l-0.04,0.008l-0.022-0.005l-0.015-0.01l-0.042-0.016
	l-0.028-0.028l-0.028-0.009l-0.032,0.011l-0.05,0.044l-0.068-0.004l-0.03,0.025l-0.003,0.001l-0.032,0.021l-0.056-0.012
	l-0.037-0.039l0.012-0.039l0.069-0.099l0.064-0.127l0.013-0.019l0.004-0.062l-0.017-0.088l0.019-0.058l0.051-0.112l0.023-0.088
	l0.012-0.158l0.009-0.035l0.033-0.084l0.007-0.045l-0.038-0.146l0.004-0.045l0.015-0.045l0.006-0.055l-0.004-0.048l-0.014-0.025
	l-0.014-0.036l0.02-0.058l0.051-0.107l0.002-0.042l-0.01-0.032l-0.004-0.032l0.022-0.041l0.034-0.018l0.091-0.015l0.043-0.03
	l-0.023-0.021l-0.037-0.045l-0.028-0.018l0.06-0.035l0.143-0.16l0.075,0.047l0.046,0.027l0.034,0.042l0.028,0.064L741.815,661.972z"
	/></svg>