<?xml version="1.0" encoding="utf-8"?>
<!-- Generator: Adobe Illustrator 15.0.0, SVG Export Plug-In . SVG Version: 6.00 Build 0)  -->
<!DOCTYPE svg PUBLIC "-//W3C//DTD SVG 1.1//EN" "http://www.w3.org/Graphics/SVG/1.1/DTD/svg11.dtd">
<svg version="1.1" id="Ebene_1" xmlns="http://www.w3.org/2000/svg" xmlns:xlink="http://www.w3.org/1999/xlink" x="0px" y="0px"
	 width="1920px" height="1080px" viewBox="0 0 1920 1080" enable-background="new 0 0 1920 1080" xml:space="preserve">

<path fill="#F4E0B6" stroke="#FFFFFF" d="M703.97,660.689l-0.104-0.053l-0.074-0.055l-0.072-0.116l-0.111-0.277l-0.163-0.188
	l-0.079-0.161l-0.052-0.174l0.008-0.125l0.028-0.104l-0.046-0.067l-0.072-0.053l-0.046-0.063l-0.01-0.1l0.013-0.285l-0.024-0.064
	l-0.035-0.063l-0.02-0.065l0.019-0.07l0.108-0.149l0.045-0.089l0.015-0.091l0.047-0.026l0.03-0.004l0.017,0.015l0.009,0.035
	l0.12,0.18l0.042,0.091l0.029,0.109l-0.007,0.107l-0.086,0.228l-0.019,0.109l0.052,0.236l0.114,0.189l0.416,0.43l0.034,0.073
	l-0.012,0.069l-0.043,0.096l-0.003,0.071l0.04,0.139l0.044,0.239l-0.004,0.054l-0.051,0.004L703.97,660.689z"/></svg>