<?xml version="1.0" encoding="utf-8"?>
<!-- Generator: Adobe Illustrator 15.0.0, SVG Export Plug-In . SVG Version: 6.00 Build 0)  -->
<!DOCTYPE svg PUBLIC "-//W3C//DTD SVG 1.1//EN" "http://www.w3.org/Graphics/SVG/1.1/DTD/svg11.dtd">
<svg version="1.1" id="Ebene_1" xmlns="http://www.w3.org/2000/svg" xmlns:xlink="http://www.w3.org/1999/xlink" x="0px" y="0px"
	 width="1920px" height="1080px" viewBox="0 0 1920 1080" enable-background="new 0 0 1920 1080" xml:space="preserve">

<path fill="#F4E0B6" stroke="#FFFFFF" d="M1392.67,769.892l0.065-0.011l0.06-0.051h0.081l0.176-0.062l0.073,0.004l0.076,0.021
	l0.231-0.027l0.071,0.016l0.058,0.023l0.128,0.079l0.053,0.062l0.051,0.164l0.039,0.05l0.146,0.084l0.023,0.03l0.027,0.101
	l0.021,0.049l0.024,0.036l0.036,0.013l0.093,0.006l0.023,0.022l0.014,0.021l0.077,0.082l0.079,0.021l0.189,0.013l0.073,0.039
	l0.042,0.094l-0.009,0.096l-0.026,0.103l-0.006,0.411l0.009,0.11l0.021,0.096l0.014,0.115l-0.025,0.104l-0.095,0.073l-0.176,0.055
	l-0.084,0.043l-0.139,0.135l-0.111,0.058l-0.115,0.032l-0.086-0.005l-0.078,0.06l-0.122,0.047l-0.133,0.032l-0.104,0.012
	l-0.094-0.016l-0.177-0.058l-0.154,0.016l-0.217-0.01l-0.091-0.021l-0.048-0.032l-0.037-0.037l-0.038-0.025l-0.056,0.005
	l-0.159,0.053l-0.027-0.008l-0.05-0.061l-0.209-0.138l-0.079-0.082l-0.048-0.112l-0.018-0.09l-0.028-0.074l-0.26-0.201l-0.088-0.09
	l-0.06-0.096l-0.02-0.097l0.007-0.113l0.035-0.102l0.151-0.125l0.044-0.101l0.003-0.103l-0.038-0.067l0.022-0.039l0.006-0.028
	l-0.015-0.02l-0.035-0.019l0.069-0.06l0.161-0.058l0.118-0.146l0.193-0.195l0.232-0.089l0.084-0.021L1392.67,769.892z
	 M1333.303,748.119l-0.03,0.016l-0.132-0.186l0.041-0.116l0.019-0.03l0.059,0.07l0.031,0.068l0.013,0.08V748.119z M1332.182,747.804
	l-0.021,0.036l0.028-0.018l0.018,0.004l0.012,0.013l0.014,0.009l0.08,0.027l0.121,0.073l0.058,0.019l0.069-0.013l0.144-0.07
	l0.086-0.011l0.097,0.021l0.053,0.045l0.023,0.071l0.01,0.103l-0.051,0.229l-0.031,0.046l0.021,0.059l0.05,0.048l0.102,0.02
	l0.013,0.074l-0.008,0.081l-0.008,0.037l-0.007,0.127l-0.042,0.135v0.12l0.125,0.087l-0.007,0.043l-0.011,0.037l-0.016,0.032
	l-0.026,0.036l-0.046-0.042l-0.028,0.021l-0.031,0.051l-0.051,0.044l-0.056,0.01l-0.043-0.012l-0.035-0.001l-0.036,0.042
	l-0.019-0.077l-0.035-0.041l-0.05-0.003l-0.064,0.04l-0.011-0.032l0.067-0.084l-0.02-0.087l-0.066-0.063l-0.103-0.01l0.003-0.033
	l0.027-0.042l0.05-0.028l0.034,0.006l0.116,0.067l0.093,0.016l0.036-0.045l-0.012-0.071l-0.049-0.076l-0.058-0.046l-0.067-0.038
	l-0.176-0.062l0.055-0.061l0.029-0.017l-0.012-0.035l-0.041-0.03l-0.045-0.066l-0.063-0.143l-0.042-0.064l-0.05-0.013l-0.058,0.006
	l-0.06-0.012l-0.049-0.032l-0.034-0.037l-0.029-0.054l-0.029-0.08l0.136-0.368l0.029,0.025l0.01,0.011l0.013,0.02l-0.019,0.016
	L1332.182,747.804z M750.785,726.696l0.031,0.023l-0.001-0.037l-0.069-0.112l0.039,0.011l0.06,0.047l0.111,0.175l0.079,0.158
	l0.051,0.112l0.058,0.097l0.06,0.104l0.403,0.527l0.119,0.185l0.089,0.177l0.08,0.103l0.055,0.046l0.132,0.13l0.185,0.096
	l0.282,0.273l0.133,0.13l0.121,0.048l0.042,0.078l0.026,0.149l0.046,0.122l0.116,0.017l0.027-0.063l-0.071-0.061l-0.056-0.114
	l-0.057-0.139l-0.071-0.069l-0.034-0.01l0.004-0.035l0.063-0.014l0.04,0.032l0.063,0.112l0.109,0.143l0.17,0.173l0.076,0.11
	l0.093,0.114l0.142,0.296l0.136,0.158l0.163,0.148l0.039-0.032l0.028,0.022l0.103,0.148l0.223,0.38l0.16,0.517l0.152,0.251
	l0.024,0.346l0.195,0.493l0.338,1.073l0.038,0.059l0.01,0.025l-0.017,0.032l-0.021,0.033l-0.004,0.027l0.021,0.017l0.06,0.021
	l0.02,0.017l0.083,0.141l0.202,0.559l0.018,0.261l-0.136,0.204l0.11-0.017l0.199-0.133l0.116,0.011l0.097,0.09l0.063,0.131
	l0.026,0.14l-0.021,0.126l-0.158,0.139l-0.281,0.177l-0.252,0.2l-0.074,0.21l0.029,0.016l0.044-0.07l0.054-0.035l0.051-0.021
	l0.031-0.029l0.082-0.128l0.1-0.124l0.103-0.054l0.26-0.039l0.094-0.078l0.064,0.094l0.056,0.146l0.03,0.155l-0.012,0.125
	l0.011,0.105l0.215,0.374l0.094,0.239l0.079,0.296l0.035,0.302l-0.042,0.26l-0.068,0.235l-0.07,0.494l-0.068,0.238l-0.157,0.229
	l-0.175,0.06l-0.19,0.024l-0.199,0.12l0.326,0.049l0.2-0.015l0.118-0.082l0.034-0.052l0.107-0.129l0.05-0.094l0.292-0.826
	l0.109-0.185l0.143-0.125l0.08-0.017l0.077,0.021l0.069,0.06l0.056,0.092l0.117,0.36l0.012,0.085l-0.062,0.045l0.039,0.281
	l-0.014,0.15l-0.045,0.133l-0.041,0.174l0.002,0.142l0.076,0.043l-0.031,0.047l-0.039,0.03l-0.032,0.013l-0.009-0.01l-0.013,0.047
	l-0.011,0.102l0.003,0.097l0.068,0.066l0.072,0.055l0.018,0.064l-0.051,0.068l-0.06,0.02l-0.065,0.032l-0.068,0.101l-0.03,0.105
	l-0.008,0.104l0.048,0.43l0.001,0.174l-0.035,0.17l-0.08,0.217l-0.086,0.162l-0.235,0.299l-0.101,0.093l-0.433,0.017l-0.168,0.058
	l-0.139,0.139l-0.116,0.162l-0.119,0.119l-0.134,0.09l-0.465,0.237l-0.182,0.006l-0.055,0.025l-0.034,0.052l-0.036,0.128
	l-0.029,0.042l-0.062,0.029l-0.035-0.015l-0.032-0.026l-0.053-0.003l-0.113,0.058l-0.077,0.093l-0.138,0.226l-0.1,0.107
	l-0.342,0.248l-0.119,0.13l-0.067,0.048l-0.114,0.007l-0.019,0.042l-0.013,0.057l-0.024,0.049l-1.157,0.917l-0.073,0.034
	l-0.077,0.004l-0.037-0.022l-0.032-0.029l-0.064-0.018l-0.132,0.046l-0.209,0.223l-0.23,0.056l-0.078,0.097l-0.051,0.132
	l-0.06,0.274l-0.026,0.039l-0.576,0.503l-0.063,0.073l-0.008,0.081l0.009,0.076l-0.013,0.052l-0.077,0.004l-0.062-0.007l-0.052,0.01
	l-0.048,0.022l-0.055,0.036l-0.791,0.81l-0.104,0.161l-0.035,0.036l-0.051,0.012l-0.114-0.012l-0.032,0.017l-0.008,0.073
	l0.016,0.187l-0.011,0.078l-0.039,0.073l-0.041,0.033l-0.042,0.021l-0.047,0.037l-0.212,0.209l-0.236,0.165l-0.253,0.093
	l-0.199,0.181l-0.105,0.066l-0.115,0.037l-0.692,0.097l-0.246-0.013l-0.116,0.034l-0.115,0.104l-0.093,0.112l-0.053,0.036
	l-0.072,0.027l-0.034-0.003l-0.044-0.047l-0.025-0.008l-0.036,0.013l-0.072,0.046l-0.039,0.007l-0.105-0.046l-0.159-0.151
	l-0.187-0.138l-0.082-0.232l-0.081-0.1l-0.088-0.049l-0.622-0.188l-0.076-0.036l-0.029-0.084l0.072-0.067l0.12-0.035l0.11,0.01
	l0.026-0.055l-0.166-0.475l-0.031-0.27l-0.021-0.063l-0.051-0.058l-0.027-0.001l-0.026,0.029l-0.214,0.124l-0.076,0.019
	l-0.197-0.017l-0.239,0.061l-0.064-0.002l-0.184-0.09l-0.108-0.023l-0.061-0.067l-0.102-0.193l-0.067-0.063l-0.156-0.099
	l-0.07-0.062l-0.241-0.346l-0.133-0.083l-0.021-0.042l0.02-0.036l0.097-0.087l0.029-0.058l-0.012-0.117l-0.067-0.069l-0.099-0.021
	l-0.107,0.014l-0.084,0.048l-0.085,0.073l-0.08,0.053l-0.067-0.014l-0.113-0.052l-0.095,0.05l-0.085,0.073l-0.083,0.02l-0.092-0.062
	l-0.043-0.051l-0.035,0.016l-0.067,0.139l-0.08,0.087l-0.114,0.026l-0.235-0.023l-0.037,0.006l-0.07,0.033l-0.036-0.007l-0.02-0.024
	l-0.028-0.069l-0.021-0.02l-0.099-0.052l-0.046,0.008l-0.072,0.063l-0.171,0.201l-0.096,0.047l-0.001-0.002l-0.118-0.04
	l-0.051-0.057l-0.025-0.067l-0.045-0.311l-0.023-0.026l-0.076-0.032l-0.103-0.027l-0.093-0.011l-0.089-0.026l-0.217-0.171
	l-0.035-0.039l-0.04-0.069l-0.059-0.208l-0.039-0.083l-0.028-0.024l-0.037-0.011l-0.067-0.043l-0.035-0.04l-0.054-0.084
	l-0.026-0.029l-0.187-0.142l-0.052-0.091l-0.034-0.169l-0.096-0.235l0.012-0.07l0.114,0.04l-0.038-0.148l-0.058-0.137l-0.085-0.116
	l-0.121-0.083l0.125-0.07l0.073,0.024l0.129,0.146l0.097,0.04l0.074-0.021l0.299-0.32l0.061-0.008l0.064-0.005l0.103,0.057
	l0.076,0.027l0.068,0.004l0.344-0.149l0.136-0.097l0.431-0.464l0.342-0.316l0.584-0.373l0.075-0.065l0.189-0.225l0.052-0.03
	l0.072-0.006l-0.034-0.096l-0.011-0.054l0.008-0.044l0.03-0.058l0.045-0.056l0.114-0.08l0.029-0.025l0.11-0.155l0.032-0.08
	l-0.021-0.022l-0.02-0.098l0.011-0.096l0.07-0.008l0.036-0.024l0.027-0.084l0.032-0.151l-0.003-0.022l-0.027-0.062l-0.007-0.01
	l0.023-0.026l0.029-0.007l0.027-0.001l0.018-0.008l0.063-0.114l0.045-0.135l-0.015-0.11l-0.116-0.038l0.221-0.234l0.12-0.091
	l0.279-0.156l0.219-0.163l0.213-0.049h0.004l0.093-0.07l0.079-0.094l0.055-0.093l0.054-0.064l0.26-0.118l0.174-0.183l0.17-0.435
	l0.14-0.215l0.093-0.108l0.044-0.081l0.004-0.086l-0.03-0.116l-0.033-0.043l-0.053-0.019l-0.059-0.01l-0.053-0.017l0.011-0.035
	l-0.02-0.259l0.08-0.448l-0.021-0.09l-0.02-0.225l-0.032-0.065l-0.132-0.143l-0.039-0.059l-0.018-0.035l-0.016-0.094l0.004-0.134
	l-0.005-0.085l-0.018-0.006l0.001-0.059l-0.061-0.105v-0.319l-0.015-0.056l-0.036-0.099l-0.008-0.066l0.036-0.221l-0.005-0.069
	l-0.082-0.258l-0.002-0.118l0.055-0.14l0.058-0.076l0.145-0.156l0.05-0.077l0.033-0.125l-0.027-0.07l-0.131-0.136l-0.036-0.077
	l-0.021-0.104l0.024-0.105l0.096-0.074l0.071-0.078l0.058-0.143l0.064-0.261l0.016-0.426l0.183-0.636l0.075-0.132l0.178-0.151
	l0.063-0.083l0.099-0.226l0.021-0.066l0.022-0.212l0.056-0.136l0.062-0.096l0.039-0.094l-0.009-0.132l-0.03-0.053l-0.04-0.042
	l-0.024-0.051l0.019-0.081l0.297-0.672l0.005-0.093l0.017-0.061l0.044-0.042l0.165-0.035l0.035-0.017l0.044-0.075l0.056-0.238
	l0.055-0.087l0.065-0.07l0.152-0.112l0.394-0.195l0.03-0.025l0.038-0.057l0.036-0.023l0.095-0.02l0.045-0.02l0.148-0.188
	l0.089-0.061l0.074-0.049l0.293-0.129l0.489-0.111l0.142-0.074l0.179,0.021l0.189-0.038l0.181-0.079l0.156-0.107l0.289-0.302
	l0.173-0.141l0.068-0.079l0.312-0.518l0.152-0.123l0.168-0.133l0.09-0.074l0.046,0.025l0.184,0.143l0.128,0.101l0.083,0.11
	L750.785,726.696z M741.588,666.416l-0.01,0.192l0.083-0.021l0.103,0.002l0.105,0.025l0.094,0.05l-0.04,0.01l-0.033,0.005
	l-0.021,0.01l-0.006,0.033l-0.132,0.048l-0.003-0.112l-0.042,0.007l-0.055,0.077l-0.043,0.104l0.042,0.002l0.028,0.018l0.017,0.03
	l0.007,0.037l-0.14,0.003l0.012,0.049h-0.062l-0.014,0.041l0.028,0.032l0.06-0.031l0.098,0.137l-0.031-0.015h-0.019l-0.019,0.002
	l-0.027-0.003l-0.01,0.081l0.012,0.051l0.053,0.094v0.027l-0.01,0.034l0.001,0.033l0.032,0.032l0.021,0.029l-0.004,0.041
	l-0.018,0.041l-0.023,0.034l0.069-0.004l-0.044,0.049l-0.032,0.055l-0.014,0.061l0.008,0.065h-0.032l-0.017,0.008l-0.013,0.01
	l-0.024,0.014l0.037,0.055l-0.01,0.072l-0.024,0.077l-0.003,0.067l-0.016,0.029l-0.061-0.003l-0.115,0.102l-0.072,0.036
	l-0.056-0.003l-0.058-0.026l-0.035-0.048l0.017-0.073l0.047-0.031l0.053,0.01l0.05-0.003l0.04-0.066l-0.006-0.081l-0.067-0.007
	l-0.084,0.009l-0.061-0.041l0.026-0.042l-0.024-0.02l-0.119-0.041l-0.213-0.161l-0.066-0.023l-0.121-0.012l-0.064-0.021l-0.022-0.04
	l-0.016-0.181l0.019-0.03l0.004-0.021l-0.009-0.023l-0.024-0.042l0.172-0.063l0.133,0.002l0.051-0.016l0.007,0.09l0.05,0.053
	l0.069,0.009l0.063-0.048l0.001-0.035l-0.006-0.063l0.004-0.079l0.03-0.078l-0.07-0.012l-0.053-0.015l-0.043-0.022l-0.04-0.026
	l-0.086-0.04l-0.02-0.02l-0.007-0.026l0.003-0.065l-0.004-0.027l-0.086-0.182l-0.032-0.113l0.01-0.096l0.013-0.029l0.004-0.028
	l-0.002-0.027l-0.006-0.031l0.001-0.039l0.021-0.025l0.029-0.021l0.022-0.027l0.019-0.057l0.004-0.063l-0.007-0.061l-0.045-0.188
	l0.001-0.069l0.023-0.068l0.041-0.055l0.052-0.032l0.054-0.016l0.207-0.01l0.139,0.073l0.109,0.12l0.11,0.218l0.115,0.159l0.04,0.08
	v0.042l-0.011,0.043l0.003,0.044L741.588,666.416z M741.543,660.391l-0.046,0.004l-0.026-0.049l0.044-0.05h0.049l0.006,0.022
	l0.002,0.044L741.543,660.391z M741.708,660.428l-0.049-0.008l-0.001-0.025l0.031-0.01h0.027l0.043-0.034l0.03,0.003l0.018,0.022
	v0.016l-0.002,0.007l-0.002,0.013l-0.032,0.009L741.708,660.428z M743.078,661.075l-0.151-0.038l-0.106-0.085l0.008-0.141
	l0.011-0.03l0.008-0.041l0.002-0.036l-0.007-0.02l-0.005-0.021l0.033-0.022l0.067-0.036l0.044-0.058l0.053-0.03l0.115-0.047
	l0.111-0.004l0.083,0.075l0.04,0.114l-0.021,0.148l0.015,0.042l0.011,0.05l-0.016,0.063l-0.031,0.053l-0.033,0.031l-0.043,0.02
	l-0.065,0.014L743.078,661.075z M744.838,659.643l-0.137-0.012l-0.082-0.062l0.066-0.003l0.225-0.055l0.115,0.012l0.082,0.087
	L744.838,659.643z M742.583,658.572l0.003,0.008l0.003-0.004l0.024-0.006l0.003,0.024l0.016,0.065l0.044-0.035l0.055-0.011
	l0.052,0.018l0.01,0.04l-0.001,0.026l-0.075,0.083l-0.017,0.101l-0.031-0.006l-0.078-0.022l-0.049,0.031l-0.098,0.203l-0.031,0.176
	l-0.099,0.251l-0.153,0.209l-0.206,0.091l-0.238,0.014l-0.248-0.02l0.007-0.027l0.011-0.076l0.045-0.013l0.003-0.072l-0.018-0.052
	l-0.025-0.05l-0.022-0.069l-0.001-0.066l0.013-0.058l0.005-0.049l-0.021-0.042l0.034-0.179l0.178-0.341l0.026-0.185l0.052-0.054
	l0.01-0.062l-0.006-0.063l0.004-0.058l0.037-0.074l0.086-0.125l0.017-0.064l0.056-0.013l0.129-0.087l0.083-0.021l0.083,0.021
	l0.022,0.044l0.005,0.052l0.029,0.04l0.085,0.074l0.114,0.132l0.092,0.147l0.02,0.123l-0.069-0.004L742.583,658.572z
	 M743.686,658.86l0.039,0.063l0.043-0.017l0.027,0.044l0.036,0.024l0.04,0.02l0.04,0.032l0.024,0.045l0.043,0.123l0.015,0.029
	l0.029,0.044l0.126,0.272l0.063,0.063l0.009,0.036l-0.064,0.014l-0.032-0.018l-0.094-0.088l-0.021-0.031l-0.05-0.051l-0.771-0.21
	l-0.164-0.01l-0.075-0.026l-0.075-0.062l-0.06-0.073l-0.043-0.078l-0.028-0.074l-0.013-0.074l0.013-0.063l0.031-0.055l0.047-0.053
	h0.001v-0.002l0.182-0.188l0.063-0.027l0.082,0.021l0.018-0.01l0.025-0.032l0.021-0.039l0.011-0.031l-0.005-0.027l-0.017-0.032
	l-0.025-0.032l-0.026-0.024l0.06-0.165l0.002-0.049l0.021-0.044l0.064-0.036l0.102-0.045l0.03-0.02l0.052-0.007l0.156-0.004
	l0.018-0.008l0.01,0.012l0.074,0.166l0.029,0.109l0,0.114l-0.043,0.121l-0.069,0.108l-0.017,0.046l-0.006,0.083l0.006,0.081
	l0.017,0.07L743.686,658.86z M1061.645,570.561l0.001,0.005l-0.109-0.097l0.125,0.086L1061.645,570.561z M1061.457,570.329
	l0.049,0.12v0.012l-0.005,0.016l-0.003,0.015l0.006,0.021l0.012,0.008l0.018,0.005h0.018l0.007-0.002l0.022,0.034l0.017,0.021
	l0.009,0.022l-0.004,0.041l0.034,0.01l0.021,0.025l0.021,0.029l0.033,0.026l0.033,0.012l0.099,0.007l-0.031-0.058l-0.025-0.023
	l-0.089-0.093l0.143,0.101l0.059,0.062l0.043,0.077l0.088,0.247l0.058,0.121l0.074,0.074l0.002,0.062l0.009,0.064l0.016,0.069
	l0.029,0.078l0.047,0.081l0.121,0.144l0.046,0.078l0.176,0.529l0.062,0.091l0.005,0.038l0.022,0.075l0.004,0.035l-0.008,0.047
	l-0.057,0.109l-0.013,0.066l-0.011,0.119l-0.101,0.39l-0.031,0.065l-0.003,0.045l0.057,0.15l0.083,0.3l0.138,0.277l0.111,0.308
	l-0.001,0.025l-0.021,0.019l-0.021,0.038l-0.016,0.047v0.048l0.044-0.017l0.019,0.078l0.003,0.052l-0.023,0.034l-0.035,0.007
	l-0.024,0.013l-0.001,0.026l0.039,0.058l-0.051-0.004l-0.053,0.005l-0.048,0.015l-0.035,0.02l0.02,0.035l-0.015,0.052l-0.005,0.046
	l0.055,0.013l0.09-0.081l0.061-0.034l0.045,0.028l0.011,0.063l-0.013,0.061l-0.033,0.052l-0.052,0.034l-0.022,0.03l-0.008,0.052
	l-0.017,0.052l-0.053,0.031l0.024,0.023l0.015,0.028l0.007,0.031l-0.002,0.033l0.043,0.001l0.022,0.03v0.042l-0.022,0.039
	l0.031,0.023l-0.042,0.039l-0.065,0.089l-0.055,0.027l0.012,0.031l0.04,0.014l0.022,0.028l0.002,0.036l-0.021,0.036l0.011,0.027
	l0.031-0.029l0.034-0.066l0.03-0.036l0.012,0.067l0.002,0.079l-0.004,0.073l-0.01,0.044l-0.043,0.046l-0.046,0.001l-0.107-0.043
	l-0.06-0.003l-0.107,0.02l-0.097-0.006l-0.006-0.12l0.011-0.02l0.026-0.02l-0.069-0.026l-0.091-0.005l-0.061-0.021l0.021-0.074
	l-0.01-0.027l-0.032,0.027l-0.068,0.106l-0.033-0.021l0.005-0.011l0.002-0.005l0.003-0.007l0.001-0.017l-0.03,0.022l-0.011,0.013
	l-0.013,0.02l-0.035-0.022l-0.044-0.017l-0.091,0.003l-0.085,0.017l-0.046,0.028l-0.045-0.012l-0.036-0.02l-0.041-0.013
	l-0.081,0.012l-0.015-0.013l-0.013-0.017l-0.024-0.012l-0.033,0.003l-0.026,0.01l-0.026,0.006l-0.036-0.01l0.033-0.045l-0.01-0.027
	h-0.046l-0.03-0.005l-0.028,0.014l-0.05,0.004l-0.048-0.004l-0.024-0.011l-0.016-0.087l-0.021-0.024l-0.056-0.001l0.003-0.063
	l-0.012-0.094l0.011-0.068l0.065,0.007l0.146-0.139l0.018-0.035l-0.007-0.063l0.025-0.044l0.035-0.04l0.022-0.058l-0.078,0.022
	l-0.225,0.014l-0.078,0.025l-0.082,0.014l-0.056-0.026l-0.003-0.095l-0.082,0.026l-0.114,0.097l-0.073,0.032l0.003-0.017v-0.047
	l-0.044,0.02l-0.039,0.003l-0.037-0.003l-0.047,0.005l0.035-0.037l0.086-0.045l0.034-0.037l0.013-0.045l-0.001-0.05l-0.021-0.037
	l-0.044-0.01l-0.012-0.031l0.073-0.026l0.058-0.045l0.083-0.098l-0.03-0.035l-0.037-0.019l-0.037-0.004l-0.04,0.007l0.095-0.071
	l0.017-0.032l-0.011-0.007l-0.021-0.024l-0.022-0.02l-0.011,0.009l0.017-0.074l0.005-0.002l0.001-0.024l0.016-0.045l-0.003-0.029
	h-0.009l-0.047-0.013l-0.032-0.032l-0.024-0.02l-0.025-0.009l-0.038,0.004l-0.063,0.029l-0.087,0.097l-0.063,0.045l-0.13,0.055
	l-0.053,0.034l-0.037,0.05l-0.044-0.048l0.012-0.082l-0.036-0.054l-0.129-0.072l0.152-0.07l0.055-0.048l0.017-0.09l-0.052-0.012
	l0.01-0.06l0.046-0.068l0.063-0.046l0.013-0.018l0.07-0.075l0.016-0.007l-0.014-0.054l-0.03-0.022l-0.063-0.02l-0.102-0.1
	l-0.035-0.03l-0.036,0.004l-0.081,0.057l-0.025-0.012l-0.044-0.045l-0.07-0.014l-0.081,0.01l-0.064,0.023v-0.043l0.003-0.02
	l-0.031-0.012l-0.03-0.004l-0.031,0.007l-0.028,0.016l0.029-0.019l0.022-0.022l0.038-0.053l-0.012-0.031l-0.091,0.031l-0.011-0.029
	l0.032-0.027v-0.046l-0.029-0.038l-0.045-0.004l0.009-0.056l-0.036-0.016l-0.048,0.001l-0.028-0.008l-0.002-0.047l0.03-0.02
	l0.086-0.024l0.02-0.021l0.018-0.026l0.024-0.028l0.121-0.068l0.037-0.034l0.024-0.036l0.015-0.016h0.016l0.007-0.008l-0.01-0.035
	l-0.061-0.019l-0.009-0.006l-0.141-0.017l-0.016-0.013l-0.018-0.024l-0.021-0.012l-0.031,0.055l-0.019,0.004l-0.02-0.014
	l-0.017-0.028l0.011-0.021l0.075-0.091l-0.092-0.031l-0.066,0.028l-0.107,0.095l0.013-0.039l-0.033-0.031l-0.03-0.04l-0.02-0.048
	l-0.005-0.043l0.036,0.013l0.03-0.012l0.023-0.028l0.01-0.037l0.048,0.008l0.006-0.021l-0.01-0.038l0.002-0.032l0.008-0.026v-0.02
	l0.01-0.019l0.097-0.052l0.018-0.038l-0.008-0.045l-0.02-0.05l0.016-0.064l0.001-0.039l-0.021-0.01l-0.042,0.008l-0.013-0.008
	l0.001-0.021l-0.015-0.116l0.024-0.063l0.046-0.043l0.054-0.036l-0.032-0.034l-0.017-0.1l-0.039-0.032l-0.012-0.03l0.03,0.004
	l0.009-0.003l0.007,0.007l0.022,0.032l0.042-0.046l0.039,0.003l0.04,0.02l0.043,0.003l0.045-0.033l0.022-0.055l0.006-0.066
	l-0.005-0.067l-0.035-0.021l0.118-0.048l0.165-0.174l0.328-0.198l0.083-0.086l-0.021-0.086l0.103-0.246l0.024-0.038l0.07-0.039
	l0.075-0.026l0.037-0.003l0.029-0.013l0.183-0.011l0.08,0.011l0.03,0.016l0.03,0.02l0.028,0.028l0.061,0.072l0.021-0.008
	l0.042-0.231v-0.139l-0.064-0.081l-0.006-0.09l-0.045-0.067l-0.07-0.053l-0.076-0.047l0.042-0.148l-0.014-0.036l-0.036-0.032
	l-0.014-0.036l-0.003-0.045l0.01-0.036l0.046-0.103l-0.02-0.019l-0.009-0.01l-0.002-0.02l-0.003-0.039l-0.046-0.022l-0.046-0.061
	l-0.033-0.071l-0.005-0.061l0.038-0.052l0.131-0.046l0.049-0.045l0.063,0.044l0.037,0.014l0.075,0.013l0.011,0.03l-0.014,0.042
	l0.012,0.048l0.034,0.044l0.052,0.029l0.016,0.084l0.206,0.362l0.043,0.129l0.047,0.429l0.024,0.051L1061.457,570.329z
	 M1050.628,572.328l0.025,0.062l-0.062,0.055l-0.038,0.035l-0.041,0.027h-0.044l-0.094-0.017l-0.012-0.022l0.027-0.026l0.094-0.023
	l0.021-0.025l0.008-0.017l0.009-0.008h0.011l0.039-0.015l-0.005-0.031l0.019-0.021L1050.628,572.328z M1021.44,565.491l0.044,0.011
	l0.04-0.022l0.045-0.015l0.06,0.036l0.027,0.055l0.009,0.053l0.014,0.045l0.046,0.026l0.009,0.031l-0.008,0.043l0.044,0.027
	l0.113,0.035l0.036,0.036l0.015,0.036l0.021,0.2l-0.005,0.128l-0.032,0.084l-0.067-0.015l-0.09-0.149l-0.044-0.055l-0.053-0.058
	l-0.255-0.174l-0.086-0.033l-0.094-0.067l-0.079-0.077l0.005-0.045l-0.005-0.049l-0.065-0.1l-0.115-0.144l0.11-0.008l0.131,0.034
	l0.127,0.06L1021.44,565.491z M1020.527,564.473l0.009,0.026l-0.016,0.032l-0.09-0.018l-0.036,0.005l0.085,0.087l0.089-0.021
	l0.089-0.061l0.079-0.035l0.008,0.031l-0.049,0.01l0.009,0.033l0.063,0.016l0.358-0.016l0.093,0.031l0.082,0.059l0.062,0.077
	l-0.031,0.01l-0.023,0.013l-0.031,0.025l-0.021-0.015l-0.017-0.003l-0.162,0.003l-0.382-0.134l-0.185,0.071l-0.057-0.01
	l-0.176-0.121l-0.045-0.02l-0.007-0.027l0.186-0.086h0.065l0.029,0.014L1020.527,564.473z M1017.22,562.87l0.052,0.054l-0.085-0.016
	l-0.275,0.046l-0.061-0.077l0.017-0.046l0.061-0.022l0.069-0.002l0.147,0.028L1017.22,562.87z M1017.232,561.574l0.129,0.035
	l0.047,0.028l0.032,0.062l0.03,0.093l-0.003,0.064l-0.063-0.021l-0.076-0.096l-0.097-0.093l-0.102-0.039l-0.081,0.062l-0.072-0.063
	l-0.097-0.168l-0.074-0.06l0.193-0.045l0.064-0.002l0.08,0.029l0.021,0.051l0.001,0.064l0.02,0.065L1017.232,561.574z
	 M1013.667,560.477l0.045,0.011l0.104-0.021l0.042,0.029l0.005,0.09l-0.085,0.04l-0.274,0.022l-0.19-0.02l-0.07-0.029l-0.005-0.077
	l-0.044-0.073l-0.055-0.066l-0.035-0.066l0.022-0.03l0.007-0.031l0.023-0.006l0.037,0.022l0.045,0.003l0.173,0.049l0.1,0.048
	l0.013,0.012L1013.667,560.477z M1005.814,556.084l0.013,0.007l0.022-0.006l0.007,0.036l-0.161,0.109l-0.059,0.021l-0.007-0.034
	l0.011-0.003h0.025l0.011-0.002l-0.029-0.045l-0.036-0.006l-0.083,0.036l-0.006-0.032l0.127-0.095l0.075-0.031l0.071,0.021
	l0.009,0.01L1005.814,556.084z M1027.415,539.61l0.092,0.197l0.057,0.084l0.144,0.091l0.069,0.059l0.037,0.09l-0.011,0.032
	l-0.049,0.083l-0.006,0.046l0.12,0.19l0.007,0.031l-0.01,0.056l0.003,0.021l0.015,0.014l0.043,0.01l0.02,0.012l0.042,0.053
	l0.024,0.022l0.025,0.004h0.047l0.026-0.004l0.055-0.021l0.03-0.002l0.046,0.011l0.022,0.024l0.02,0.028l0.029,0.031l0.146,0.078
	l0.026,0.027l0.069,0.084l0.024,0.025l0.07,0.034l0.276,0.053l0.017,0.002h0.051l0.03-0.04l0.045-0.173l0.039-0.07l0.058-0.058
	l0.145-0.084l0.22-0.127l0.086,0.006l0.065,0.035l0.077,0.076l0,0l0.064,0.063l0.064,0.08l0.032,0.021l0.045-0.004l0.045,0.004
	l0.037,0.036l0.067,0.103l-0.018,0.085l0.063,0.127l0.16,0.241l0.051,0.146l0.031,0.048l0.065,0.049l0.05,0.02l0.153,0.037
	l0.058,0.003l0.071-0.027l0.118-0.077l0.033-0.039l0.02-0.036l0.026-0.028l0.042-0.013l0.048,0.003l0.027,0.02l0.006,0.038
	l-0.013,0.058l0.046,0.019l0.196-0.045l0.073-0.003l0.075,0.017l0.079,0.041l0.075,0.075l0.081,0.171l0.066,0.213l0.085,0.181
	l0.138,0.071l0.003-0.032l0.002-0.004l0.007,0.003l0.011-0.013l0.005-0.016l0.001-0.041l0.027-0.102l0.015-0.034l0.037-0.023
	l0.129-0.042l0.131-0.016l0.073,0.017l0.063,0.022l0.063,0.012l0.068-0.017l0.167-0.125l0.063-0.022l0.067,0.013l0.134,0.084
	l0.076,0.02l0.08,0.039l0.137,0.151l0.064,0.012l0.016-0.025l-0.015-0.031l-0.008-0.029l0.033-0.025l0.03,0.003l0.049,0.014
	l0.047,0.024l0.028,0.025l0.009,0.049l-0.02,0.04l-0.055,0.07l-0.018,0.054l-0.002,0.04l0.009,0.087v0.196l0.019,0.084l0.051,0.012
	l0.051-0.043l0.031-0.012l0.035,0.008l0.114,0.183l0.032,0.039l0.031,0.03l0.009,0.031l-0.062,0.052l-0.056,0.065l-0.039,0.063
	l-0.015,0.032l-0.004,0.038l0.004,0.058l0.017,0.001l0.04,0.065l0.024,0.066l-0.023,0.003h-0.001l0.197,0.047l0.045,0.002
	l0.043-0.019l0.18-0.071l0.493,0.007h0.024l0.085-0.037l0.356-0.308l0.121-0.052l0.025-0.029l0.012-0.059l-0.002-0.077l-0.024-0.151
	l-0.013-0.03l-0.019-0.021l-0.017-0.024l-0.006-0.047l0.006-0.04l0.219-0.396l0.07-0.057l0.036,0.064l0.038,0.005l0.088-0.042
	l0.039,0.027l0.022,0.08l0.015,0.099l0.019,0.081l-0.044-0.027l-0.017,0.01l-0.017,0.135l0.009,0.042l0.018,0.037l0.013,0.049
	l-0.025,0.31l0.01,0.075l0.062,0.054l0.161,0.02l0.074,0.071l0.024,0.058l0.005,0.042l-0.003,0.042l0.002,0.059l-0.002,0.026
	l-0.018,0.037l0.004,0.029l0.014,0.021l0.045,0.041l0.016,0.023l0.055,0.17l0.039,0.027l0.083-0.01l0.064-0.027l0.116-0.079
	l0.054-0.017l0.009-0.003l0.063,0.016l0.148,0.078l0.07,0.019l0.117,0.002l0.048,0.023l0.188,0.146l0.058,0.031l0.068,0.025
	l0.076,0.001l0.124-0.072l0.064-0.019l0.084,0.043l0.081,0.054l0.044,0.063l-0.009,0.02l-0.02,0.022l0.012,0.065l0.021,0.039
	l0.021,0.014l0.053-0.004l0.02-0.013l0.01-0.026l0.005-0.028l0.007-0.015l0.02-0.002l0.04,0.012l0.105,0.008l0.029,0.015l0.043,0.02
	l0.23,0.217l0.025,0.036l0.015,0.048l0.005,0.045l0.01,0.042l0.032,0.035l0.071-0.002l0.063-0.065l0.057-0.077l0.048-0.041
	l0.109,0.019h0.027l0.043-0.02l0.004-0.02l-0.004-0.035l0.021-0.058l0.063-0.056l0.073-0.003l0.074,0.013l0.068-0.007l0.032-0.025
	l0.022-0.061l0.027-0.025l0.033-0.004l0.079,0.021h0.038l0.136,0.097l0.069,0.032l0.086,0.014l0.205-0.007l0.077,0.039l0.084,0.116
	l0.047-0.031l0.25-0.085l0.04-0.028l0.014-0.05l0.032-0.024l-0.003-0.026l-0.008-0.028l0.005-0.03l0.019-0.015l0.082-0.03
	l-0.033-0.036l0.165-0.066l0.089-0.016l0.094,0.009l0.006,0.003l0.178,0.064l0.095,0.021l0.062-0.011l0.027-0.004l0.029-0.016
	l0.043-0.054l0.021-0.017l0.035-0.003l0.32,0.057l0.068,0.033l0.031,0.031l0.021,0.034l0.009,0.025l-0.004,0.005l0.03,0.023
	l0.197,0.109l0.02,0.022v0.04l-0.053,0.019l-0.003,0.045l0.037,0.046l0.071,0.045l0.265,0.131l0.01,0.018l0.01,0.047l0.01,0.017
	l0.021,0.008l0.047,0.003l0.016,0.009l0.053,0.077l0.016,0.015l0.008,0.009l0.017,0.034l0.015,0.012l0.013-0.004l0.031-0.038
	l0.012-0.004l0.044,0.065l0.004,0.063l0.011,0.056l0.061,0.052l0.039,0.004l0.135-0.037l0.131,0.01l0.035-0.02l0.028-0.083
	l-0.037-0.07l-0.048-0.065l-0.004-0.066l0.027-0.015l0.134-0.009l0.085-0.033l0.035-0.006l0.221,0.051l0.066-0.016l0.054,0.156
	l0.077,0.111l0.085,0.032l0.069-0.083l-0.002-0.023l-0.018-0.021l-0.012-0.023l0.02-0.034l0.016-0.003l0.143,0.047l0.055,0.011
	l0.054,0.002l0.257-0.073l0.094,0.014l0.02-0.002l0.012-0.024l0.009-0.071l0.011-0.028l0.023-0.017l0.059-0.025l0.019-0.017
	l0.006-0.028l-0.001-0.071l0.006-0.024l0.04-0.043l0.011-0.007l0.051-0.035l0.061-0.012l0.029,0.046l0.132-0.031l0.062,0.005
	l0.042,0.059l-0.018,0.02l-0.004,0.013v0.017l0.057,0.029l0.106,0.087l0.057,0.036l0.079,0.021l0.138-0.017l0.078,0.014l0.03,0.02
	l0.05,0.049l0.035,0.016l0.033-0.003h0.012l0.032-0.02l0.03-0.026l0.034-0.019l0.035-0.005l0.071,0.004l0.029-0.004l0.033-0.021
	l0.057-0.059l0.028-0.018l0.272-0.005l0.162-0.068l0.056-0.012l0.559,0.103l0.313-0.029l0.046,0.02v0.003l-0.036,0.087l-0.03,0.2
	l-0.002,0.403l-0.015,0.071l-0.012,0.021l-0.088,0.091l-0.026,0.009l-0.002,0.013l-0.01,0.018l-0.005,0.026l0.009,0.044l0.003,0.026
	l-0.013,0.02l-0.02,0.016l-0.083,0.026l-0.03,0.021l-0.001,0.045l0.026,0.084v0.039l-0.018,0.051l-0.024,0.05l-0.028,0.032
	l-0.046,0.122l-0.032,0.052l-0.044,0.031l-0.026,0.034l-0.056,0.23l0.026,0.151l0.055,0.152l0.07,0.083l0.01,0.03l-0.054,0.08
	l-0.022,0.046l-0.001,0.047l0.023,0.085v0.046l-0.01,0.035l-0.005,0.048l0.004,0.055l0.02,0.122l0.017,0.059l0.029,0.051
	l0.039,0.049l0.036,0.055l0.019,0.063l-0.019,0.077l-0.044,0.045l-0.035,0.055l0.013,0.098l0.026,0.092l0.008,0.081l-0.008,0.072
	l-0.097,0.318l-0.002,0.059l0.018,0.064l-0.004,0.039l-0.011,0.034l-0.008,0.045l0.004,0.072l0.011,0.092l0.076,0.178l0.21,0.187
	l0.055,0.134l-0.009,0.061l-0.05,0.107l0.004,0.064l0.029,0.07l0.002,0.021l-0.004,0.049l-0.004,0.026l-0.014,0.023l-0.002,0.022
	l0.004,0.02l0.005,0.01l0.006,0.011l0.006,0.02l0.045,0.076l0.012,0.053l-0.033,0.033l-0.009,0.026l0.007,0.154l0.014,0.064
	l0.092,0.142l0.025,0.072l-0.008,0.034l-0.031,0.067l-0.002,0.029l0.042,0.091l0.027,0.045l0.019,0.017l0.053,0.009l0.062,0.043
	l0.116,0.112l0.026,0.017l0.025,0.012l0.024,0.017l0.021,0.041l-0.002,0.017l0.004,0.049l-0.001,0.001l-0.094,0.072l-0.057,0.062
	l-0.013,0.018l-0.084,0.128l0.009,0.001l0.065,0.022l0.01-0.004l0.017,0.045l-0.004,0.027l-0.022,0.016l-0.034,0.004l-0.014,0.015
	l0.001,0.016l0.013,0.015l0.032,0.022l0.006,0.01h0.001l0.004,0.012l0.001,0.016l-0.003,0.008l-0.032,0.055l-0.041,0.007
	l-0.032-0.008l-0.018-0.005l-0.053-0.002l-0.031,0.021l0.011,0.026l0.023,0.022l0.015,0.009l0.022,0.016l0.013,0.023l0.005,0.044
	l-0.009,0.026l-0.023,0.067l-0.047,0.039l-0.026,0.021l-0.128,0.032l-0.087,0.024l-0.075,0.039l-0.098,0.084l-0.019,0.011
	l-0.027-0.002l-0.019-0.013l-0.014-0.013l-0.017-0.006h-0.099l-0.08-0.02l-0.042-0.066l0.011-0.141l-0.08,0.033l-0.036,0.004
	l-0.007,0.002l-0.047-0.01l-0.077,0.005l-0.144,0.072l-0.083,0.013l-0.035-0.013l-0.03,0.001l-0.025,0.016l-0.02,0.029l-0.051,0.033
	l0.024,0.047l0.053,0.052l0.033,0.046l-0.01,0.045l-0.032,0.052l-0.04,0.042l-0.074,0.042l0.024,0.083l-0.063,0.07l-0.026,0.069
	l-0.013,0.08l0.004,0.062l0.353-0.145l0.047-0.043l0.058,0.022l0.062,0.026l0.047,0.035l-0.008,0.055l-0.022,0.026l-0.027,0.02
	l-0.025,0.026l-0.024,0.073l-0.014,0.011l-0.026,0.012l-0.039,0.075l0.013,0.096l0.051,0.105l-0.156,0.21l-0.06,0.116l-0.024,0.11
	l-0.005,0.009l-0.134,0.232l-0.081,0.059l0.029,0.074l-0.037,0.035l-0.008,0.011l-0.002,0.031l-0.068,0.051l-0.019,0.036
	l-0.018,0.081l0.065,0.07l-0.037,0.12l-0.153,0.213l-0.297,0.2l-0.122,0.128l0.008,0.168l0.026,0.036l0.066,0.063l0.027,0.045
	l0.015,0.063v0.031l-0.001,0.015l-0.01,0.045l0.001,0.157l0.002,0.022l0.018,0.022l0.024,0.017l0.031,0.019l0.026,0.072l0.002,0.04
	l-0.021,0.053l-0.025,0.033l-0.085,0.085l-0.051,0.111l-0.022,0.035l-0.183,0.184l-0.292,0.494l-0.024,0.064l0.029,0.057l0.104,0.06
	l-0.065,0.166l-0.047,0.213l-0.023,0.047l-0.003,0.031l0.008,0.022l0.013,0.019l0.015,0.017l0.007,0.011l0.012,0.035l0.016,0.026
	l0.005,0.031l-0.024,0.043l0.018,0.006l0.185,0.046l0.063,0.035l0.06,0.055l0.021,0.048l-0.015,0.136l-0.013,0.112l0.001,0.038
	l0.021,0.13l0.015,0.048l0.016,0.039l-0.003,0.033l-0.063,0.041l-0.017,0.007l-0.02,0.005h-0.027h-0.006l-0.005,0.002l-0.006,0.003
	l-0.158,0.145l-0.06,0.07l0.005,0.055l0.054,0.05l0.078,0.052l0.003,0.041l-0.009,0.051l-0.01,0.107l0.062-0.065l0.131-0.074
	l0.142-0.048l0.123,0.016l0.086-0.082l0.098-0.228l0.156-0.187l0.053-0.108l-0.05-0.097l-0.026-0.001l-0.044,0.038l-0.038-0.007
	l-0.02-0.015l-0.055-0.063l-0.008-0.019l-0.02-0.023l0.013-0.09l0.089-0.322l0.193-0.045l0.097,0.071l0.027,0.006l0.026-0.024
	l0.024-0.075l0.024-0.021l0.043-0.03l0.079-0.089l0.04-0.028l0.01-0.019l0.012-0.072l0.01-0.018l0.597-0.243l0.296-0.038
	l0.014,0.031l0.02,0.042l0.004,0.079l-0.051,0.118v0.056l0.095,0.082l0.15,0.079l0.112,0.097l-0.038,0.242l0.001,0.173l0.022,0.157
	l0.054,0.065l0.266-0.022l0.064,0.031l0.008,0.034l-0.011,0.04l-0.014,0.037l-0.007,0.027l0.008-0.008l0.021,0.042l0.017,0.044
	l-0.003,0.007l0.013,0.032v0.021l0.007,0.012l0.035,0.012l0.03-0.004l0.018-0.025l0.015-0.028l0.022-0.02l0.082,0.01l0.292,0.167
	l0.019,0.006l0.028,0.041l0.067,0.08l0.05,0.071l0.032,0.04l0.033,0.029l-0.037,0.033l-0.019,0.051l-0.007,0.06l0.001,0.064
	l-0.019,0.082l-0.046,0.071l-0.059,0.058l-0.059,0.039l-0.077,0.022l-0.021,0.01l0.006,0.023l0.008,0.031l0.004,0.021l-0.019,0.012
	l-0.028-0.024l-0.024-0.004l-0.031-0.003l-0.075,0.051l-0.04,0.042l-0.017,0.077l0.007,0.077l0.025,0.078l0.036,0.074l0.098,0.169
	l0.096,0.073l0.105,0.035l0.088-0.009l0.048,0.003l0.095,0.047l0.054,0.018l0.11-0.006l0.048,0.015l0.041,0.059l0.003,0.026
	l-0.01,0.087l0.004,0.039l0.019,0.034l0.053,0.039l0.022,0.029l0.08,0.174l0.046,0.056l0.171,0.034l0.172,0.057l0.016,0.013
	l0.032,0.025l0.041,0.047l0.043,0.042l0.052,0.017l0.154,0.016l0.031,0.011l0.017,0.055l-0.006,0.074l-0.024,0.133l-0.061,0.15
	l-0.007,0.03l0.061,0.121l0.063,0.075l0.024,0.067l-0.062,0.097l-0.022,0.125l-0.013,0.027l-0.02-0.001l-0.055-0.034l-0.029-0.002
	l-0.101,0.064l-0.096,0.084l-0.027,0.05l-0.021,0.111l-0.033,0.054l-0.026,0.018l-0.074,0.022l-0.02,0.018l-0.005,0.042l0.023,0.02
	l0.025,0.015l0.003,0.027l-0.086,0.08l-0.127-0.004l-0.138-0.024l-0.118,0.016l-0.019,0.02l-0.043,0.06l-0.022,0.023l-0.023,0.013
	l-0.058,0.016l-0.026,0.014l-0.088,0.094l-0.009,0.012l-0.033,0.053l-0.021,0.061l0.085,0.065l0.065,0.026l0.017,0.03l0.009,0.034
	l0.021,0.038l0.062,0.052l0.043,0.019l0.114-0.025l0.104,0.032l0.063,0.119l0.078,0.244l0.087,0.074l0.135,0.055l0.262,0.056
	l0.065-0.004l0.146-0.079l0.056-0.013l0.182,0.015l0.079,0.042l0.02,0.018l0.016,0.022l0.004,0.015l0.001,0.013l0.007,0.021
	l-0.003,0.004l0.008,0.073l-0.001,0.007l0.069,0.081l0.055,0.103l0.025,0.033l0.158,0.146l0.038,0.05l-0.057,0.02l-0.126,0.002
	l-0.058,0.02l-0.06,0.062l-0.034,0.088l0.008,0.094l0.068,0.08l-0.033,0.046l-0.046,0.219l-0.119,0.171l-0.014,0.069l0.058,0.13
	l0.112,0.1l0.132,0.068l0.107,0.041l-0.087,0.091l-0.01,0.045l0.021,0.143v0.028l0.008,0.022l0.026,0.035l0.021,0.015l0.097,0.06
	l0.041,0.033l0.068,0.077l0.029,0.026l0.039,0.02l0.079,0.024l0.041,0.024l0.034,0.037l0.025,0.036l0.028,0.034l0.04,0.021
	l0.05,0.005l0.035-0.019l0.034-0.023l0.042-0.018l0.044-0.002l0.223,0.039l0.144,0.004l0.411,0.096l0.069,0.005l0.088-0.013
	l0.047,0.002l0.034,0.025l0.029,0.029l0.04,0.02l0.032-0.003l0.131-0.038l0.497-0.333l0.09-0.036l0.101-0.126l0.105-0.015
	l0.005,0.154l0.067,0.065l0.096,0.047l0.064,0.065l0.022,0.022l0.021,0.077l-0.02,0.056l-0.033,0.05l-0.021,0.05l-0.001,0.059
	l0.008,0.104l-0.007,0.057l-0.043,0.102l-0.116,0.188l-0.029,0.12l-0.086,0.192l-0.017,0.104l0.053,0.104l0.137,0.186l-0.031,0.042
	l-0.014,0.006l-0.015,0.002l-0.011,0.01l0.003,0.018l0.025,0.052l0.001,0.017l-0.021,0.021l-0.02,0.003l-0.019,0.031l-0.015,0.039
	l-0.018,0.038l-0.055-0.042l-0.074-0.015l-0.054,0.045l-0.029,0.066l0.001,0.056l0.012,0.051l-0.029,0.043l-0.022,0.045l0.001,0.045
	l-0.007,0.059l-0.035,0.017l-0.062,0.009l-0.074-0.003l-0.071,0.031l-0.04,0.045l-0.025,0.06l0.026,0.042l-0.036,0.082l-0.024,0.029
	l-0.042-0.047l-0.066,0.006l-0.035,0.031l-0.041,0.02l-0.01,0.046l-0.018,0.026v0.035l0.021,0.128l0.06,0.109l0.009,0.021
	l0.029,0.044l0.021,0.033l-0.034,0.041l-0.065-0.059l-0.034-0.007l-0.052,0.014l-0.044,0.052l-0.024,0.061l-0.03,0.046l-0.018,0.033
	l-0.037-0.043l-0.053,0.021l-0.068,0.013l-0.056,0.027l-0.034,0.043l-0.035,0.073l0.009,0.067l0.035,0.011l-0.001,0.003l0.02,0.007
	l0.008,0.02l-0.053,0.147l0.021,0.106l-0.055,0.069l0.002,0.05l-0.071,0.029l-0.014-0.024l-0.016-0.011l-0.018-0.014l-0.011,0.02
	l0.005,0.033l0.033,0.051l-0.04,0.027l-0.043-0.001l-0.052,0.016l-0.105,0.068l-0.047-0.032l-0.058-0.001l-0.027,0.03l-0.034,0.059
	l0.044,0.109l-0.026,0.08l0.024,0.07l-0.075,0.035l-0.059,0.027l-0.008,0.064v0.052l-0.019,0.041l-0.061,0.11l-0.071,0.08
	l0.002,0.07l0.074-0.002l0.18-0.111l0.073-0.008l0.026,0.027l-0.016,0.088l-0.042,0.054l0.018,0.081l0.033,0.026l0.042,0.043
	l-0.046,0.067l-0.052,0.058l-0.034,0.02l-0.053,0.048l-0.036,0.004l-0.02-0.017l-0.02-0.031l-0.035,0.027l-0.057,0.017l-0.074,0.033
	l0.003,0.047l-0.014,0.062l-0.054,0.063l-0.094,0.005l-0.087,0.042l-0.095,0.032l-0.059,0.045l-0.06,0.069l-0.014,0.087l0.031,0.052
	l0.039,0.058l-0.108,0.035l-0.056-0.026l-0.017-0.015l-0.072-0.003l-0.098-0.014l-0.091,0.019l-0.104,0.053l-0.075,0.061
	l-0.039,0.039l-0.037,0.061l-0.001,0.1l0.034,0.102l0.068,0.007l0.043-0.027l-0.005,0.046l-0.08,0.036l-0.183,0.067l-0.035-0.005
	l0.039-0.041l0.046-0.035l0.031-0.045l-0.037-0.078l-0.082-0.036l-0.057,0.023l-0.148,0.068l-0.058,0.019l-0.064-0.08l-0.087,0.012
	l-0.107,0.033l-0.098-0.025v-0.026l-0.009-0.044l0.001-0.023l-0.054,0.016l-0.048,0.028l-0.08,0.077l0.063,0.004l0.079,0.081
	l0.063,0.007l0.09,0.009l-0.021,0.05l-0.079,0.016l-0.095,0.032l-0.037,0.028l-0.026,0.122h-0.137l-0.118-0.042l-0.041-0.032
	l0.055-0.062l0.035-0.061l-0.032-0.025l-0.043-0.011l-0.062,0.004l-0.021-0.035l-0.025-0.026l-0.054,0.01l-0.063,0.02l-0.168-0.02
	l-0.062-0.087l-0.061-0.034l-0.07-0.005l-0.071,0.013l-0.021,0.057l-0.012,0.08l-0.09-0.007l-0.054,0.01l-0.063-0.041l-0.056-0.042
	l-0.051-0.049l-0.051-0.01l-0.027,0.031l-0.031,0.02l-0.15,0.032l-0.064,0.023l-0.104,0.015l-0.048,0.008l-0.077,0.045l-0.088-0.011
	l-0.014-0.082l-0.004-0.046l0.009-0.052l0.004-0.08l-0.054-0.03l-0.021-0.051l-0.022-0.021l-0.095-0.146l-0.178-0.046l-0.146,0.172
	l-0.249,0.067l-0.121,0.054l-0.201,0.049l-0.113-0.003l-0.098-0.077l-0.062-0.095l0.028-0.141l0.083-0.085l0.294-0.087l0.082-0.055
	l0.047-0.066l0.043-0.101l0.01-0.109l-0.046-0.1l-0.075,0.089l-0.082,0.06l-0.09,0.011l-0.097-0.058l-0.044-0.061l-0.015-0.036
	l-0.024-0.017l-0.076-0.003l-0.025,0.004l-0.077,0.026l-0.018-0.011l-0.068-0.048l-0.024-0.007l-0.014,0.035l-0.002,0.064
	l0.004,0.064l0.005,0.033l0.045,0.077l0.04,0.026l0.048,0.01l0.062,0.025l0.074,0.097l-0.006,0.107l-0.059,0.077l-0.094,0.038
	l-0.053,0.006l-0.215-0.049l-0.07,0.062l-0.027,0.037l-0.074,0.041l-0.023,0.036l-0.008,0.067l0.023,0.019l0.059,0.07l0.026,0.053
	l0.108-0.039l-0.056,0.093l-0.059,0.059l-0.04-0.068l-0.092-0.085l-0.161-0.033l-0.145-0.068l-0.089-0.102l-0.074-0.257
	l-0.032-0.072l-0.042-0.06l-0.06-0.066l-0.065-0.05l-0.068-0.016l0.009,0.026l0.147,0.122l0.029,0.041l0.101,0.313l0.093,0.132
	l0.119,0.064l0.123,0.039l0.104,0.062l0.021,0.093l-0.095,0.032l-0.42,0.111l-0.261,0.016l-0.102-0.023l-0.026-0.073l0.043-0.09
	l-0.01-0.057l-0.046-0.051l-0.1-0.034l-0.158-0.014l-0.332,0.133l-0.693,0.139l-0.087,0.008l-0.081-0.016l-0.113-0.042l-0.085-0.087
	l0.021-0.113l-0.011-0.013l-0.107-0.045l-0.198,0.036l-0.182,0.074l-0.112,0.084l-0.035,0.045l-0.502,0.71l-0.343,0.276
	l-0.081,0.117l-0.156,0.396l-0.062,0.049l-0.154-0.026l-0.076,0.036l-0.142,0.046l-0.201,0.154l-0.189,0.26l-0.035,0.082
	l-0.011,0.047l-0.035,0.049l-0.024,0.055l-0.042,0.065l-0.026,0.07l-0.016,0.084l-0.044,0.081l-0.055,0.084l-0.009,0.091
	l-0.008,0.074l-0.009,0.092l-0.016,0.133v0.088l-0.003,0.076l0.005,0.134l0.003,0.102l0.023,0.04l0.051,0.015l0.032,0.086
	l0.051,0.271l0.052,0.26l0.049,0.176l0.049,0.109l0.035,0.187l0.088,0.234l0.069,0.178l0.063,0.139l0.066,0.043l0.083,0.012
	l0.098-0.006l0.085,0.004l0.044,0.034l0.015,0.05l0.006,0.054l0.038,0.036l0.044,0.022l0.077,0.067l0.049,0.088l0.003,0.018
	l-0.14,0.064l-0.089,0.029l-0.09,0.014l-0.077-0.002l-0.049-0.014l-0.044-0.023l-0.038-0.035l-0.037-0.042h-0.024l-0.101,0.025
	l-0.039,0.003l-0.047,0.052l-0.123-0.01l-0.088,0.113l-0.055,0.025l-0.059,0.014l-0.054,0.02l-0.046,0.046l-0.074,0.125
	l-0.045,0.048l-0.069,0.029l-0.139,0.019l-0.07,0.023l-0.051,0.046l-0.112,0.147l-0.017,0.046l0.057,0.074l0.057,0.035l0.006,0.02
	l-0.09,0.029l-0.08,0.007l-0.173-0.01l-0.066,0.02l-0.02,0.031l-0.009,0.08l-0.016,0.027l-0.035,0.011l-0.043-0.002l-0.08-0.02
	l-0.069,0.001l-0.081-0.031l-0.074-0.055l-0.047-0.064l-0.056,0.012l-0.114,0.006l-0.227-0.036l-0.051-0.021l-0.111-0.026
	l-0.105,0.041l-0.194,0.119l-0.17,0.023l-0.047,0.039l-0.01,0.028l-0.007,0.071l-0.01,0.029l-0.064,0.083l-0.041,0.074l-0.033,0.035
	l-0.054,0.027l-0.087,0.035l-0.049,0.005l-0.051-0.016l-0.084-0.038l-0.053-0.061l-0.094-0.153l-0.069-0.063l-0.06-0.008
	l-0.065,0.014l-0.086,0.003l-0.232-0.074l-0.081-0.011l-0.224,0.027l-0.07-0.01l-0.002-0.013l-0.006-0.01l-0.01-0.008l-0.013-0.003
	l-0.019-0.115l0.012-0.103l0.046-0.074l0.086-0.03l-0.02-0.016l-0.041-0.032l-0.088-0.001l-0.065-0.02l0.005-0.099l-0.404,0.063
	l-0.044-0.006l-0.223-0.074l-0.052,0.017l-0.091,0.063l-0.112,0.022l-0.004,0.188l-0.069,0.05l-0.067-0.05l-0.102-0.139
	l-0.091-0.068l-0.092-0.09l-0.033-0.007l-0.033,0.006l-0.022-0.015l-0.003-0.065l-0.087-0.001l-0.43,0.106l-0.107,0.065
	l-0.038,0.004l-0.072-0.026l-0.053-0.052l-0.046-0.063l-0.051-0.057l-0.077-0.036l-0.079-0.003l-0.303,0.055l-0.031-0.009
	l-0.069-0.03l-0.032-0.005l-0.033,0.021l-0.025,0.034l-0.029,0.024l-0.042-0.006l-0.07-0.038l-0.035-0.015l-0.114-0.012
	l-0.174-0.048l-0.063,0.005l-0.066,0.023l-0.065,0.001l-0.132-0.015l-0.063,0.01l-0.095,0.029l-0.072,0.049l0.001,0.068l0.034,0.094
	l-0.016,0.138l0.054,0.04l-0.021,0.027l-0.007,0.022l-0.01,0.05l0.055,0.005l0.056,0.039l0.042,0.062l0.016,0.072l-0.004,0.013
	l-0.013,0.042l-0.041,0.028l-0.13,0.015l-0.434,0.118l-0.064-0.01l-0.125,0.066l-0.068,0.02l-0.073,0.004l-0.022-0.011l-0.007-0.018
	l-0.004-0.02l-0.012-0.012l-0.119-0.055l-0.058,0.036l-0.046,0.074l-0.063,0.155l-0.051,0.02l-0.07-0.049l-0.111-0.107l-0.062-0.012
	l-0.201-0.001l-0.054,0.021l-0.056,0.058l-0.208,0.083l-0.248,0.158l-0.119,0.04l-0.153-0.02l-0.026-0.014l-0.022-0.02l-0.029-0.016
	h-0.048l-0.043-0.009l-0.018-0.026l-0.013-0.03l-0.027-0.021l-0.07-0.03l-0.061-0.058l-0.042-0.073l-0.013-0.079l-0.057,0.04
	l-0.096,0.05l-0.098,0.012l-0.063-0.074l-0.236-0.068l-0.01-0.003l-0.067-0.036l-0.008,0.051l-0.016,0.039l-0.025,0.017
	l-0.038-0.022l-0.138,0.165l-0.073,0.067l-0.105,0.034l-0.215-0.041l-0.091,0.02l0.022,0.107l-0.028,0.019l-0.05,0.052l-0.027,0.01
	l-0.039-0.014l-0.008-0.026l-0.002-0.031l-0.027-0.021l-0.018-0.002l-0.058,0.013l-0.026-0.004l-0.004-0.019l0.003-0.02
	l-0.011-0.019l-0.183-0.143l-0.076-0.035l-0.141-0.043l-0.038,0.003l-0.032,0.013l-0.036,0.004l-0.045-0.025l-0.03-0.036
	l-0.003-0.025l0.007-0.023l-0.006-0.032l-0.024-0.031l-0.084-0.115l-0.104-0.008l-0.262,0.107l-0.29,0.042l-0.147-0.011
	l-0.146-0.061l-0.055-0.036l-0.064-0.004l-0.126,0.014l-0.032-0.016l-0.067-0.021l-0.035-0.006l-0.13,0.04l-0.14-0.063l-0.139-0.036
	l-0.217,0.011l-0.077-0.023l-0.075-0.051l-0.032-0.059l0.015-0.066l0.06-0.075l-0.086-0.002l-0.072,0.045l-0.045,0.079l-0.003,0.097
	l0.021,0.12l-0.016,0.068l-0.056,0.032l-0.1,0.015l-0.094-0.003l-0.09-0.026l-0.082-0.055l-0.069-0.089l0.019-0.045l0.111-0.181
	l0.031-0.065l0.02-0.155l-0.007-0.189l-0.055-0.164l-0.128-0.077l-0.043,0.01l-0.037,0.021l-0.037,0.016l-0.168-0.041l-0.118-0.007
	l-0.071,0.013l-0.047,0.04l-0.008,0.086l-0.011,0.043l-0.035,0.029l-0.043,0.016l-0.04,0.003l-0.048-0.01l-0.023-0.017l-0.045-0.073
	l-0.017-0.037l0.003-0.031l-0.004-0.021l-0.041-0.017l-0.075-0.016l-0.033,0.003l-0.066,0.045l-0.074,0.025l-0.037,0.029
	l-0.037,0.015l-0.014-0.016l-0.015-0.019l-0.034-0.087l-0.057-0.046l-0.116-0.024l-0.015-0.056l-0.021-0.097l-0.003-0.056
	l0.011,0.005l0.002,0.002l0.064,0.023l0.018-0.039l0.06-0.039l0.306-0.115l0.056-0.127l0.069-0.058l0.057-0.059l0.021-0.047
	l0.042-0.158l0.004-0.055l0.022-0.042l0.098-0.2l0.015-0.059l0.07-0.158l-0.011-0.148l0.021-0.277l-0.041-0.777l0.021-0.28
	l-0.025-0.618l-0.096-1.337l-0.063-0.661l-0.048-0.287l-0.025-0.066l-0.063-0.123l-0.006-0.039l0.062-0.146l0.007-0.032
	l-0.006-0.058l0.011-0.222l0.05-0.095l0.086-0.021l0.226,0.004l0.119-0.043l0.06-0.062l-0.018-0.07l-0.107-0.065l0.048-0.01
	l-0.051-0.058l-0.322-0.177l-0.042-0.007l-0.019-0.007l-0.018-0.012l-0.02-0.005l-0.023,0.007l-0.011,0.017l-0.003,0.021v0.021
	l-0.006,0.01l-0.011,0.047l-0.102,0.257l0.011,0.209l-0.003,0.117l-0.011,0.056l-0.354-2.3l-0.039-0.753l-0.181-0.979l0.004-0.072
	l0.061-0.248l0.032-0.08l0.05-0.032l0.042,0.01l0.013,0.02l0.007,0.035l0.011,0.052l-0.005,0.017l-0.003,0.027l0.007,0.023
	l0.018,0.022l0.05,0.046l0.039,0.031l0.273,0.12l0.165,0.047l0.058,0.004l0.528,0.348l0.131,0.113l0.076,0.13l0.031,0.089
	l0.09,0.159l0.174,0.409l0.026,0.051l0.186,0.239l0.154,0.119l0.164,0.091l0.126,0.038l0.039,0.026l0.043,0.051l0.016,0.04
	l0.01,0.076l0.029,0.094l0.04,0.091l0.048,0.067l0.055,0.023l-0.03-0.06l-0.046-0.127l-0.036-0.052l0.001-0.13l-0.065-0.09
	l-0.096-0.058l-0.094-0.029l0.108-0.017l0.095-0.001l0.089,0.02l0.094,0.043l-0.124-0.123l-0.154-0.035l-0.162-0.013l-0.146-0.063
	l-0.094-0.106l-0.081-0.135l-0.356-0.846l-0.09-0.167l-0.189-0.264l-0.102-0.113l-0.107-0.098l-0.202-0.138l-0.572-0.232
	l-0.018-0.016l-0.034-0.084l-0.027-0.016l-0.124-0.015l-0.228-0.135l-0.114-0.017h-0.067l-0.064-0.022l-0.062-0.037l-0.054-0.042
	l-0.076-0.033l-0.115,0.049l-0.067-0.01l-0.021-0.332l-0.015-0.059l0.211-0.112l0.068-0.01l0.28,0.197l0.046,0.016l0.05,0.026
	l0.267,0.058l-0.098-0.067l-0.366-0.169l-0.115-0.081l-0.028-0.038l-0.019-0.052l-0.033-0.066l-0.04-0.062l-0.041-0.042l0.033-0.026
	l0.018-0.032l0.011-0.031l0.012-0.023l0.029-0.039l0.046-0.042l0.031-0.012h0.027l0.02-0.014l0.002-0.058l-0.017-0.046l-0.032-0.044
	l-0.035-0.034l-0.027-0.02l0.016-0.019l0.025-0.042l0.014-0.017l-0.065-0.024l-0.054-0.053l-0.086-0.142l0.084,0.031l0.059-0.009
	l0.035-0.046l0.018-0.086l-0.007-0.028l-0.02-0.018l-0.025-0.017l-0.026-0.013l-0.07-0.009l-0.022-0.035l-0.015-0.046l-0.04-0.058
	l-0.011-0.043l-0.009-0.016l-0.015-0.006l-0.047-0.006l-0.014-0.004l-0.026-0.019l-0.024-0.011l-0.005-0.02l0.032-0.045
	l-0.095-0.042h-0.027l-0.017-0.007l-0.005-0.02l-0.001-0.024l-0.007-0.013h-0.02l-0.052,0.015l-0.038-0.003l-0.029,0.008h-0.031
	l-0.041-0.026l-0.014-0.038l0.011-0.049l0.024-0.045l0.026-0.026l-0.04-0.084l0.022-0.068l0.2-0.184l0.013-0.064l-0.012-0.036
	l-0.025-0.035l-0.026-0.064l-0.099-0.083l-0.155,0.02l-0.108,0.097l0.039,0.145l-0.097-0.004l-0.084-0.063l-0.084-0.075l-0.06-0.004
	l-0.035,0.001l-0.119-0.038l-0.093-0.047l-0.051-0.01l-0.17,0.089l-0.087,0.013l-0.062-0.091l-0.05-0.112l-0.074-0.074l-0.092-0.035
	h-0.099l-0.231,0.035l-0.099-0.01l0.015-0.063l-0.068-0.04l-0.19,0.005l-0.138-0.071l-0.104-0.006l-0.049-0.017l-0.035-0.034
	l-0.062-0.094l-0.046-0.043l0.016,0.058l0.038,0.071l0.015,0.039l-0.01,0.022l-0.035-0.01l-0.044-0.035l-0.159-0.325l-0.005-0.084
	l-0.06-0.01l-0.039-0.048l-0.031-0.06l-0.035-0.05l-0.064-0.046l-0.063-0.032l-0.053-0.038l-0.063-0.11l-0.054-0.026l-0.063-0.007
	l-0.058,0.004l-0.037-0.022l-0.147-0.174l-0.235-0.149l-0.124-0.052l-0.095-0.013l-0.048-0.022l-0.042-0.067l-0.035-0.087
	l-0.023-0.078l-0.016-0.103l0.012-0.052l0.073-0.076l-0.035-0.062l0.039-0.059l0.112-0.1l0.024-0.077l0.018-0.178l0.02-0.09
	l0.05-0.053l-0.024-0.077l-0.059-0.075l-0.049-0.048l-0.065-0.039l-0.231-0.07l-0.409,0.007l-0.137-0.041l0.039-0.036l0.029-0.038
	l0.032-0.035l0.108-0.034l0.022-0.02l0.001-0.041l-0.006-0.071l-0.014-0.063l-0.055-0.065l-0.025-0.068l-0.008-0.054l-0.002-0.062
	l0.009-0.059l0.021-0.047l0.074-0.047l0.307-0.087l0.019-0.021l0.021-0.014l0.023-0.01l0.035,0.028l0.031,0.015l0.185,0.013
	l0.052-0.013l-0.03-0.026l0.039-0.006l0.039,0.003l0.036,0.015l0.039,0.023l-0.069,0.013l0.008,0.035l0.163,0.069h0.146l0.041,0.015
	l0.093,0.062l0.086,0.02l0.185-0.028l-0.077-0.03h-0.146l-0.069-0.034l-0.132-0.095l-0.143-0.071l-0.132-0.044l-0.074-0.01
	l-0.082,0.007l-0.032-0.004l-0.059-0.036l-0.139-0.013l-0.461,0.114l-0.093,0.082l-0.017,0.039l-0.007,0.032l-0.011,0.032
	l-0.027,0.036l-0.096,0.045l-0.063,0.09l-0.059,0.034l-0.067,0.012l-0.066-0.012l-0.061-0.034l-0.105-0.074l-0.062-0.02
	l-0.061,0.002l-0.03,0.008l-0.024,0.01l-0.021,0.026l-0.005,0.033v0.029v0.015l-0.1,0.016l-0.358-0.1l-0.007-0.034l0.081-0.001
	l0.163,0.039l0.074-0.026l0.043-0.074l-0.046-0.058l-0.084-0.051l-0.067-0.056l-0.021,0.016l-0.01,0.01l-0.008,0.011l0.025,0.031
	l0.005,0.02l-0.008,0.049l-0.024,0.004l-0.037-0.134l-0.058-0.064l-0.161-0.062l0.235-0.199l0.037-0.004l0.039,0.008h0.06
	l-0.001,0.026l-0.003,0.002l-0.013,0.011l0.032,0.025l0.023-0.042l0.104-0.081l0.003-0.034h-0.054l-0.085,0.013l-0.061-0.01
	l0.016-0.072l-0.063-0.024l-0.073,0.005l-0.05-0.017l0.008-0.096l-0.063-0.051l0.03-0.037l0.21-0.05l0.117-0.054l0.071-0.008
	l-0.058-0.005l-0.089,0.03l-0.063,0.012l-0.283-0.051l-0.055,0.001l-0.044,0.013l-0.104,0.055l-0.128,0.022l-0.029,0.015
	l-0.016,0.021l-0.02,0.007l-0.042-0.023l0.05-0.019l0.051-0.045l0.039-0.062l0.011-0.067l-0.041,0.057l-0.047,0.017l-0.051,0.004
	l-0.056,0.022l0.028,0.002l0.023,0.005l0.018,0.016l0.016,0.029l-0.087,0.017l-0.042-0.002l-0.042-0.019l0.021,0.113l-0.042,0.032
	l-0.122-0.019l-0.057,0.015l-0.165,0.087l-0.065,0.017l-0.052,0.004l-0.05-0.013l-0.056-0.033l-0.011-0.016l-0.074-0.084
	l-0.014-0.003l-0.021-0.022l-0.036-0.008h-0.04l-0.011-0.003l0.002-0.007l-0.007-0.024l-0.063-0.011l0.048-0.048l0.094-0.016
	l0.072,0.086l0.023-0.005l0.014-0.027l0.018-0.015l0.025,0.005l0.036,0.022l-0.002-0.031l0.002-0.073l0.067,0.051l0.094,0.012
	l0.091-0.024l0.063-0.058l-0.032-0.026l0.093-0.196l-0.005-0.089l-0.099-0.079l0.007,0.028l0.04,0.026l0.012,0.029l-0.015,0.027
	l-0.04,0.018l0.056,0.024l-0.01,0.024l-0.013,0.013l-0.039,0.009l-0.024-0.023l-0.194-0.072l0.074-0.002l0.073,0.011l-0.052-0.048
	l-0.047-0.018l-0.11,0.001l0.054,0.021l-0.063,0.044l-0.174,0.046l-0.027,0.039l-0.017,0.063l-0.061,0.039l-0.108,0.046l-0.005-0.03
	l0.022-0.003l-0.009-0.035l-0.042,0.014l-0.009,0.01l-0.011,0.022l-0.023,0.004l-0.025-0.055l-0.015-0.047l0.002-0.038l0.025-0.028
	l-0.051,0.009l-0.041-0.02l-0.033-0.039l-0.022-0.058l-0.025,0.004l0.013,0.036l0.029,0.057l0.013,0.032l0.026,0.112l0.022,0.044
	l0.043,0.048l0.049,0.039l0.044,0.028l-0.001,0.032l-0.004,0.016l-0.004,0.02l-0.013-0.016l-0.047-0.04l-0.024,0.021l-0.038-0.023
	l-0.047-0.043l-0.056-0.031l0.035,0.059l-0.014,0.032l-0.034-0.005l-0.03-0.061l-0.029-0.07l-0.021,0.012v0.053l0.035,0.061
	l-0.05,0.006l-0.021-0.005l-0.028-0.018l-0.095,0.072l-0.054,0.013l-0.055-0.018l0.02-0.019l0.019-0.022l-0.04-0.022l-0.045-0.017
	l-0.038,0.008l-0.018,0.055l0.016,0.005l0.02,0.014l0.02,0.007l-0.002,0.164l0.05,0.132l0.082,0.098l0.095,0.07l-0.047,0.006
	l-0.076-0.008l-0.018,0.025l-0.021,0.003l-0.071-0.127l-0.016-0.042l-0.005-0.054l0.015-0.084l-0.007-0.064l-0.034-0.107
	l-0.042-0.077l-0.053-0.057l-0.061-0.043l-0.037-0.015l-0.043-0.01l-0.035-0.012l-0.021-0.025l-0.007-0.063l0.012-0.139l0.232-0.152
	l-0.019-0.022l-0.013-0.025l-0.011-0.033l-0.011-0.047l-0.014,0.013l-0.037,0.021l-0.014,0.013l-0.025-0.099l-0.005-0.032
	l-0.021,0.003l-0.016,0.055l-0.039-0.003l-0.05-0.016l-0.053,0.02l0.053,0.011l0.04,0.029l0.033,0.046l0.03,0.062l-0.018,0.007
	l-0.002,0.005l0.001,0.007l-0.001,0.018l-0.047-0.021l-0.02,0.021l-0.021,0.035l-0.045,0.021l0.016,0.011l0.047,0.044l-0.043,0.03
	l-0.007,0.047l-0.001,0.044l-0.026,0.025l-0.03-0.015l-0.129-0.093l-0.093-0.009l-0.161-0.014l-0.092,0.013l0.058-0.034l0.062-0.004
	l0.148,0.024l-0.008-0.028l-0.061-0.022l-0.065-0.01l-0.148,0.01l-0.008-0.035l0.03-0.007l0.013-0.015l-0.003-0.023l-0.009-0.043
	l0.008-0.02l0.061-0.003l0.02-0.009l0.021-0.112l0.019-0.06l0.037-0.041l-0.009-0.035l-0.055,0.094l-0.077,0.099l-0.092,0.074
	l-0.068,0.027l0.029,0.009l0.026,0.017l0.021,0.021l0.007,0.03l-0.268,0.111l-0.052-0.008l-0.021-0.021l-0.131-0.107l-0.069-0.088
	l-0.048-0.035l-0.02-0.018l-0.02-0.034l-0.032,0.036l-0.057,0.008l-0.128-0.009l-0.088,0.019h-0.03l-0.029-0.01l-0.05-0.035
	l-0.018-0.006l-0.13,0.026l-0.07-0.011l-0.044-0.062l-0.032-0.007l-0.159,0.12l-0.061-0.036l-0.072,0.012l-0.074,0.027l-0.064,0.004
	l-0.009-0.016l-0.091-0.102l-0.029-0.022l-0.028-0.015l-0.019-0.026l0.002-0.056l-0.03,0.003l-0.023-0.006l-0.049-0.019
	l-0.021-0.049l-0.08-0.059l-0.104-0.044l-0.095-0.003l0.052,0.093l-0.01,0.075l-0.06,0.09l-0.075-0.007l0.036-0.001l0.025-0.013
	l0.016-0.024l0.003-0.045l-0.039,0.022l-0.034,0.006l-0.023,0.015l-0.009,0.044l-0.113-0.06l-0.051-0.01l-0.057,0.004l-0.047-0.017
	l-0.057-0.048l-0.05-0.07l-0.027-0.075l-0.023,0.062l0.035,0.068l0.061,0.058l0.051,0.031l0.005,0.029l-0.042,0.01l-0.031,0.017
	l-0.027,0.025l-0.028,0.036l-0.088-0.094l-0.046,0.02l0.003,0.061l0.058,0.025l-0.006,0.02l-0.009,0.017l0.007,0.029l0.094-0.016
	l0.009,0.037l-0.091,0.117l-0.048,0.036l-0.08,0.035l-0.514,0.055l-0.007-0.036l-0.021-0.064v-0.028l0.02-0.016l0.032-0.005
	l0.028-0.012l0.006-0.033l-0.03-0.083l-0.077-0.113l-0.062-0.125l-0.07-0.078l-0.207-0.174l-0.355-0.178l-0.038-0.012l-0.041,0.032
	l-0.033,0.055l-0.04,0.029l-0.123-0.078l-0.063-0.001l-0.116,0.022l-0.275-0.029l0.02-0.021l0.011-0.031l0.008-0.031l0.015-0.04
	l-0.001-0.015v-0.019l0.01-0.02l0.011-0.003l0.034,0.025l0.021,0.004l1.068-0.391l0.209,0.025l0.047-0.027l0.009-0.036l0.005-0.14
	l-0.026-0.051l-0.062-0.051l-0.018-0.031l-0.04-0.103l-0.056-0.038l-0.152-0.009l-0.031-0.011l-0.026-0.02l-0.021-0.026l-0.015-0.03
	l-0.082,0.044l-0.205-0.083l-0.092,0.045l-0.032,0.092l-0.024,0.114l-0.043,0.1l-0.083,0.04l0.008-0.104l0.012-0.034l-0.052-0.049
	l-0.028-0.037l-0.017-0.034l0.005-0.059l0.022-0.025l0.01-0.02l-0.034-0.045l-0.044-0.004l-0.21,0.021l-0.002-0.052l-0.019-0.046
	l0.034-0.023l0.028-0.002l0.03,0.006l0.04,0.001l0.041-0.021l0.001-0.034l-0.016-0.032l-0.01-0.015l0.03-0.159l0.037-0.044
	l0.062,0.017l-0.008,0.182l0.104,0.028l0.304-0.063l0.038,0.012l0.027,0.017l0.029,0.014h0.047l0.042-0.01l0.154-0.066l0.228-0.048
	l-0.018,0.022l-0.021,0.013l-0.05,0.008l0.076,0.016l0.27-0.097l-0.007-0.036l-0.107,0.022l-0.044-0.013l-0.025-0.054l-0.024,0.042
	l-0.045,0.02l-0.046-0.01l-0.03-0.046l-0.021,0.01l-0.145,0.031l0.02-0.048l0.013-0.014l0.026-0.016l-0.003-0.02l0.013-0.022
	l0.028-0.028l0.053-0.077l-0.059,0.012l-0.067,0.062l-0.05,0.023l-0.007-0.032l0.024-0.004l-0.008-0.035l-0.024,0.003l-0.007,0.025
	l-0.016,0.027l-0.009,0.022l-0.055-0.014l-0.095,0.085l-0.074,0.025l0.005-0.02l0.003-0.003l0.012-0.011l-0.033-0.029l-0.023,0.03
	l-0.035,0.025l-0.044,0.019l-0.047,0.011l-0.007-0.029l0.15-0.248l0.032-0.033l0.292-0.229l-0.058,0.026l-0.096,0.073l-0.064,0.032
	l-0.226,0.068l-0.097,0.058l-0.191,0.158l-0.162,0.063l-0.092,0.062l-0.067,0.018l-0.063-0.004l-0.13-0.028l-0.07-0.001
	l-0.007,0.019l0.007,0.034v0.035l-0.026,0.02l-0.176,0.024l-0.049-0.01l-0.041-0.045l-0.043-0.097l0.064-0.016l-0.019-0.059
	l-0.085-0.121l-0.024-0.089l-0.001-0.092l0.026-0.071l0.062-0.027l-0.005-0.03l-0.102-0.047l0.006-0.144l0.056-0.156l0.045-0.093
	l0.04,0.017l0.04,0.009l-0.033-0.032l0.049-0.042l0.061-0.028l0.104-0.026l0.07,0.008l0.127,0.044l0.041-0.017l-0.102-0.092
	l-0.038-0.062l0.039-0.034l0.166,0.015l0.063-0.011l-0.103-0.022l0.007-0.021l0.003-0.017l-0.011-0.014l-0.033-0.014l-0.006-0.03
	l0.268-0.037l0.075-0.024l0.103-0.065l0.081-0.013l-0.054-0.021l-0.022-0.002l-0.007-0.035l0.094-0.031l0.084-0.064l0.086-0.048
	l0.09-0.008l0.077,0.059l-0.003,0.109l0.078-0.02l0.094-0.073l0.033-0.016l0.043,0.002l0.084,0.017l0.046-0.007l-0.007-0.035
	l-0.07-0.008l0.007-0.051l0.048-0.064l0.048-0.047l0.061-0.033l0.077-0.025l0.078-0.007l0.069,0.025l0.015-0.032l0.02-0.002
	l0.021,0.021l0.022,0.032l0.021-0.003l0.019-0.027l0.008-0.029l-0.006-0.036l-0.022-0.041l0.045-0.015l0.038-0.021l0.064-0.052
	l0.112-0.052l0.024,0.013l0.002,0.046l-0.005,0.037l0.01,0.023l0.042,0.009l0.008,0.029l-0.024,0.002l0.009,0.037l0.037,0.014
	l0.031,0.034l0.016,0.046l-0.005,0.058l0.077-0.103l0.044-0.031l0.071,0.006l-0.028,0.032l-0.014,0.01l0.008,0.029l0.053,0.045
	l0.112,0.045l0.057,0.048l0.019-0.036l-0.032-0.03l0.019-0.034l-0.022-0.027l-0.021-0.037l-0.039-0.094l0.021-0.005l0.018,0.028
	l0.014,0.011l0.033,0.022l-0.028-0.081l-0.009-0.092l0.015-0.058l0.049,0.022l0.009-0.022l0.003-0.024l-0.003-0.026l-0.008-0.029
	l0.057,0.051l0.067,0.008l0.157-0.03l0.041,0.008l0.092,0.052l0.042,0.013l0.045-0.006l0.113-0.049l0.018,0.082l0.088,0.011
	l0.1-0.016l0.043-0.032l-0.059-0.104l-0.029-0.07l0.006-0.035l0.171-0.057l-0.055-0.021l-0.147-0.117l-0.032-0.076l0.025-0.045
	l0.089-0.057l0.046-0.134l0.011-0.042l0.021-0.004l0.037,0.02l0.107-0.01l0.132,0.045l0.048-0.003l-0.016,0.019l-0.007,0.012
	l-0.003,0.018l-0.006,0.025l0.08-0.008l0.041-0.01l0.026-0.023l0.025-0.043l0.02-0.019l0.264-0.143l0.032-0.035l0.022-0.003
	l0.034,0.003l0.074-0.132l0.058,0.001l0.036,0.066l0.02,0.092l-0.005,0.09l-0.034,0.054l0.01,0.021l0.008,0.015l0.023,0.026
	l-0.001-0.062l0.017-0.051l0.074-0.132l0.068-0.078l0.021-0.041l0.039,0.01l0.047-0.079l0.039-0.02l0.048,0.02l0.033,0.039
	l0.015,0.049l-0.013,0.051l0.006,0.027l0.054,0.028l-0.017,0.043l-0.015,0.131l-0.015,0.04l-0.051,0.1l0.008,0.035l0.024-0.003
	l0.063-0.23l0.045-0.102l0.058,0.005l0.027-0.031l0.033-0.016l0.038,0.005l0.04,0.02l-0.019,0.036l0.014,0.003l0.009-0.002
	l0.004,0.005l0.007,0.022l-0.031,0.015l-0.022,0.018l-0.047,0.05l0.007,0.031l0.052,0.026l0.093,0.019l0.173-0.02l0.072,0.013
	l0.005,0.039l0.007,0.027l0.013,0.032l-0.027,0.031l-0.013,0.009l0.008,0.029l0.057,0.021l0.072,0.041l0.063,0.046l0.034,0.045
	l0.26,0.14l0.066,0.135l0.022,0.035l0.011,0.023l-0.006,0.024v0.025l0.018,0.027l0.02,0.012l0.049,0.013l0.095,0.043l0.212,0.056
	v0.044l-0.006,0.036l-0.013,0.029l-0.021,0.027l0.04-0.005l0.035,0.012l0.035,0.023l0.036,0.031l0.056,0.027l-0.001-0.046
	l-0.018-0.067l0.005-0.038l0.137-0.014l0.049-0.032l0.05-0.077l0.053-0.129l0.018-0.035l0.029-0.03l0.057-0.028l0.195-0.168
	l0.035-0.059l-0.008-0.031l-0.028,0.002l-0.073-0.019l0.141-0.067l0.075-0.003l0.044,0.061l0.08-0.046l0.087-0.08l0.068-0.096
	l0.026-0.092l0.024,0.052l0.031,0.03l0.037,0.009l0.044-0.014l0.008,0.034l-0.021,0.024l-0.009,0.026l-0.006,0.028l-0.01,0.029
	l-0.071,0.112l0.069,0.033l0.054-0.051l0.053-0.076l0.067-0.048l0.021,0.022l0.045,0.106l0.018,0.023l0.042,0.01l0.032,0.038
	l0.024,0.051l0.019,0.049l0.031-0.027l0.016-0.037v-0.051l-0.016-0.058l0.031,0.066l0.032,0.056l0.037,0.022l0.043-0.036
	l-0.008-0.031l-0.015-0.003l-0.036-0.02l0.024-0.059l0.032-0.035l0.043-0.003l0.051,0.035l-0.029-0.025l-0.025-0.029l-0.043-0.063
	l0.137-0.073l0.156-0.043l0.013,0.02l0.101,0.109l0.017,0.049l0.029,0.045l0.037,0.029l0.045,0.007l-0.003,0.048l-0.006,0.02
	l0.114,0.107l0.037,0.06l0.011,0.104l0.025-0.039l0.089-0.08l-0.107-0.045l0.009-0.039l-0.07-0.075l-0.03-0.073l0.023-0.004
	l0.019,0.02l0.018,0.011l0.047,0.021l-0.037-0.051l-0.037-0.022l-0.037-0.004l-0.039,0.004l-0.037-0.022l-0.096-0.129l-0.046-0.05
	l0.001-0.041l0.015-0.046l0.03-0.041l0.048-0.023l0.008-0.016l-0.008-0.033l-0.002-0.035l0.025-0.02l0.126-0.021l-0.029-0.032
	l0.323-0.122l-0.005,0.021l0.005,0.022l0.017,0.022l0.031,0.027l-0.051,0.141l0.027,0.109l0.095,0.067l0.148,0.013l0.245-0.041
	l0.253-0.084l0.141-0.11l0.018-0.008l0.032-0.014l0.27-0.014l0.338-0.139l0.131,0.022l-0.072-0.073l-0.082-0.022l-0.129,0.013
	l0.001,0.01l-0.011,0.021l-0.017,0.011l-0.015-0.02l-0.011-0.029l-0.017-0.023l-0.022-0.016l-0.122-0.012l-0.048-0.018l-0.024-0.025
	l-0.056-0.105l-0.148-0.081l-0.055-0.105l-0.035-0.128l-0.04-0.109l-0.058-0.066l-0.085-0.006l-0.009-0.033l0.041-0.029l0.024-0.048
	l0.009-0.058l-0.029-0.229l0.011-0.052l0.039,0.035l0.005-0.057l-0.008-0.041l-0.023-0.024l-0.042-0.003l-0.02-0.025l-0.031-0.275
	l0.003-0.074l0.04-0.031l0.089,0.022l-0.008-0.029l-0.07-0.017l-0.073,0.013l-0.054,0.043l-0.008,0.077l-0.007,0.021l-0.029-0.022
	l-0.035-0.044l-0.02-0.036l-0.025-0.112l-0.005-0.052l0.002-0.05l-0.048-0.002l-0.026-0.032l-0.01-0.053l0.001-0.063l0.009-0.064
	l0.015-0.032l0.054-0.053l-0.047-0.022l-0.007,0.008l-0.012,0.025l-0.046-0.07l-0.044-0.084l-0.037-0.09l-0.025-0.082l0.014-0.049
	l0.06-0.016l0.126,0.013l-0.008-0.029l-0.073-0.008l-0.095-0.023l-0.071,0.01l-0.004,0.094l-0.065-0.049l-0.098-0.162l-0.062-0.047
	l0.016-0.026l0.008-0.009l0.012-0.008l-0.11-0.054l-0.054-0.046l-0.042-0.068l0.066-0.013l-0.007-0.028l-0.066-0.09l-0.024,0.006
	l-0.007,0.086l-0.07-0.027l-0.092-0.063l-0.074-0.025v-0.034l0.004-0.014l0.005-0.02l-0.043,0.017l-0.038,0.025l-0.038,0.012
	l-0.04-0.027l-0.024-0.06l-0.026-0.163l-0.02-0.067l-0.018-0.03l-0.021-0.026l-0.067-0.074l-0.01-0.022l-0.009-0.024l-0.02-0.033
	l-0.045-0.045l-0.109-0.084l-0.023-0.025l0.005-0.068l0.073-0.096l0.009-0.05l-0.021-0.15l-0.02-0.078l-0.041-0.063l-0.039-0.047
	l-0.029-0.044l-0.036-0.026l-0.11-0.003l-0.158-0.032l-0.001-0.116l-0.024-0.068l0.005-0.04l0.087-0.024l0.033,0.005l0.075,0.032
	l0.042,0.005l0.088-0.028l0.035,0.007l0.021,0.019l0.024,0.055l0.021,0.02l0.016,0.001l0.035-0.013h0.016l0.078,0.012l0.225-0.006
	l0.263,0.038l0.052-0.013l0.004,0.01l0.007,0.022l0.015,0.022l0.024,0.006l0.028-0.016l0.033-0.054l0.033-0.018h0.04l0.073,0.014
	l0.039-0.006l0.05-0.033l0.04-0.054l0.057-0.123l0.039-0.042l0.14-0.07l0.058-0.015h0.408l0.028,0.008l0.022,0.032l0.036,0.074
	l0.106,0.131l0.035,0.079l-0.069,0.07l-0.003,0.046l0.003,0.045l-0.008,0.022l-0.072,0.015l-0.025,0.015l-0.016,0.027l0.013,0.113
	l0.064,0.085l0.075,0.073l0.082,0.122l0.323,0.249l0.049,0.065l0.037,0.1l0.007,0.054l-0.006,0.039l-0.009,0.026l-0.003,0.016
	l0.022,0.046l0.026-0.008l0.03-0.028l0.035-0.013l0.042,0.022l0.032,0.029l0.04,0.013l0.059-0.028l-0.008-0.032l-0.045-0.039
	l0.008-0.07l0.04-0.065l0.05-0.033l0.436-0.058l0.419,0.068l0.564-0.07l0.151,0.013l0.081-0.007l0.102-0.083l0.085,0.003
	l0.153,0.032l0.221-0.042l0.063,0.012l0.113,0.042l0.172,0.004l0.348,0.116l0.064-0.085l0.486-0.216l0.133-0.097l0.068-0.09
	l0.068-0.033l0.022-0.028l0.047-0.128l0.174-0.188l0.377-0.163l0.375-0.165l0.128-0.101l0.047-0.063l0.034-0.081l-0.19,0.183
	l-0.254,0.087l-0.274,0.018l-0.249-0.028l-0.066,0.012l-0.058,0.007l-0.079-0.007l-0.073-0.025l-0.039-0.039l-0.018-0.026
	l-0.054-0.02l-0.021-0.038l-0.01-0.052l0.002-0.035l0.086-0.316l0.02-0.435l0.033-0.064l0.127-0.151l0.033-0.008l0.025-0.037
	l0.367-0.263l0.021-0.05l0.336-0.304l0.101-0.055l0.103-0.104l0.224-0.135l0.274-0.052l1.188-0.661l0.06-0.074l0.07-0.041
	l0.087-0.158l0.319-0.397l0.111-0.229l0.027-0.037l0.016-0.045v-0.259l0.068-0.159l0.104-0.037l0.35,0.079l0.03-0.009l0.019-0.031
	l-0.009-0.031l-0.032,0.01l-0.023-0.003l-0.021-0.018l-0.027-0.032l0.064-0.012l-0.01-0.034l-0.061,0.012l-0.068-0.008l-0.06-0.026
	l-0.035-0.048l-0.047-0.053l-0.151-0.034l-0.041-0.031l-0.037-0.15l-0.025-0.187l0.028-0.136l0.075-0.001l0.05-0.002l-0.008-0.029
	l-0.209-0.093l-0.008-0.03l0.012-0.17l-0.06-0.218l-0.038-0.192l0.075-0.09l-0.119-0.106l-0.034-0.06l-0.077-0.216l-0.088-0.192
	l-0.03-0.095l-0.008-0.087l0.014-0.196l0.016-0.076l-0.009-0.092l-0.051-0.103l-0.099-0.161l-0.025-0.063l-0.007-0.024l0.059-0.072
	l0.023-0.016l0.063-0.02l0.053-0.034l0.037-0.062l0.055-0.136l0.07-0.105l0.518-0.368l0.059-0.001l0.088-0.082l0.475-0.162
	l0.476-0.276l0.027-0.024l0.024-0.01l0.189-0.019l0.23-0.116l0.107-0.083l0.035-0.039l0.001-0.001L1027.415,539.61z
	 M1036.979,578.953l0.082-0.011l0.01-0.002l0.032-0.017l0.011-0.007l-0.057-0.054l-0.057-0.065l-0.049-0.038l-0.035,0.028
	l-0.015,0.088l0.022,0.055L1036.979,578.953z"/></svg>