<?xml version="1.0" encoding="utf-8"?>
<!-- Generator: Adobe Illustrator 15.0.0, SVG Export Plug-In . SVG Version: 6.00 Build 0)  -->
<!DOCTYPE svg PUBLIC "-//W3C//DTD SVG 1.1//EN" "http://www.w3.org/Graphics/SVG/1.1/DTD/svg11.dtd">
<svg version="1.1" id="Ebene_1" xmlns="http://www.w3.org/2000/svg" xmlns:xlink="http://www.w3.org/1999/xlink" x="0px" y="0px"
	 width="1920px" height="1080px" viewBox="0 0 1920 1080" enable-background="new 0 0 1920 1080" xml:space="preserve">

<path fill="#F4E0B6" stroke="#FFFFFF" d="M1293.802,694.901L1293.802,694.901l-0.042-0.128l-0.13-0.395l-0.062-0.108l-0.11-0.102
	l-0.303-0.202l-0.397-0.265l-0.399-0.264l-0.408-0.271l-0.39-0.258l-0.361-0.24l-0.438-0.29l-0.407-0.272l-0.394-0.26l-0.202-0.137
	l-0.204-0.134l-0.202-0.136l-0.204-0.135l-0.185-0.475l-0.171-0.441l-0.172-0.442l-0.266-0.683l-0.266-0.684l-0.268-0.687
	l-0.268-0.688l-0.165-0.429l-0.167-0.43l-0.204-0.522l-0.538-0.666l-0.54-0.658l-0.54-0.658l-0.538-0.655l-0.536-0.653l-0.534-0.65
	l-0.533-0.649l-0.531-0.648l-0.529-0.644l-0.457-0.557l-0.072-0.087l-0.525-0.642l-0.524-0.639l-0.523-0.637l-0.522-0.637
	l-0.52-0.633l-0.519-0.632l-0.439-0.536l-0.439-0.535l-0.438-0.534l-0.438-0.532l-0.305-0.371l-0.556-0.665l-0.531-0.636
	l-0.22-0.265l-0.046-0.179l0.025-0.265l0.06-0.634l0.06-0.635l0.06-0.635l0.059-0.633l-0.056-0.51l-0.054-0.51l-0.057-0.508
	l-0.055-0.508l-0.09-0.824l-0.091-0.82l-0.089-0.819l-0.091-0.818l-0.016-0.133l0.02-0.093l-0.025-0.075l-0.128-0.145l-0.046-0.113
	l0.02-0.125l0.157-0.41l0.084-0.378l0.092-0.183l0.119-0.132l0.402-0.252l0.351-0.22l0.473-0.435l0.613-0.565l0.604-0.557
	l0.286-0.263l0.129-0.2l0.075-0.225v-0.01l0.006-0.242l-0.061-0.197l-0.201-0.384l-0.074-0.198l-0.012-0.069l-0.003-0.07
	l0.103-0.509l0.114-0.568l0.313-0.583l0.316-0.587l0.311-0.577l0.191-0.355l0.421-0.447l0.286-0.304l0.371-0.395l0.113-0.119
	l0.283-0.4l0.137-0.147l0.297-0.161l0.258-0.138l0.257-0.139l0.257-0.137l0.258-0.139l0.257-0.138l0.257-0.14l0.258-0.139
	l0.257-0.138l0.259-0.139l0.258-0.139l0.246-0.133l0.012-0.006l0.258-0.14l0.259-0.139l0.259-0.141l0.26-0.139l0.259-0.14
	l0.271-0.146l0.088-0.143l0.018-0.635h0.002l0.01-0.46l0.019-0.865l0.02-0.864l0.018-0.863l0.019-0.861l0.002-0.094l0.016-0.768
	l0.018-0.86l0.017-0.858l0.018-0.857l0.024-0.469l0.027-0.468l0.027-0.468l0.026-0.468l0.025-0.468l0.027-0.467l0.024-0.467
	l0.026-0.466l0.028-0.318l0.016-0.154l0.013-0.151l0.031-0.329l0.03-0.33l0.014-0.15l0.032-0.356l0.031-0.357l0.033-0.358
	l0.032-0.356l0.033-0.358l0.031-0.357l0.032-0.355l0.031-0.357l0.031-0.357l0.032-0.356l0.031-0.356l0.032-0.355l0.031-0.355
	l0.032-0.357l0.031-0.355l0.031-0.356l0.031-0.355l0.03-0.355l0.025-0.289l0.006-0.067l0.03-0.354l0.032-0.355l0.031-0.355
	l0.03-0.354l0.03-0.355l0.031-0.354l0.03-0.355l0.031-0.356l0.03-0.353l-0.102-0.583l-0.102-0.581l-0.102-0.58l-0.099-0.579
	l-0.103-0.579l-0.101-0.578l-0.101-0.58l-0.101-0.576l-0.102-0.577l-0.103-0.575l-0.101-0.576l-0.104-0.575l-0.1-0.574l-0.102-0.574
	l-0.103-0.573l-0.103-0.573l-0.461-0.471l-0.004-0.004l-0.465-0.475l-0.465-0.474l-0.461-0.472l-0.46-0.473l-0.461-0.471
	l-0.46-0.468l-0.458-0.469l-0.458-0.468l-0.458-0.468l-0.455-0.466l-0.454-0.465l-0.455-0.465l-0.452-0.462l-0.452-0.463
	l-0.452-0.46l0,0l0.158-0.128l0.482-0.511l0.486-0.506l0.104-0.189l-0.016-0.133l0.015-0.063l0.074-0.018l0.064-0.008l0.048-0.03
	l0.262-0.226l0.068-0.077l0.046-0.075l0.113-0.293l0.069-0.073l0.028-0.08l-0.072-0.247l-0.006-0.112l0.056-0.084l0.094-0.078
	l0.205-0.135l0.018-0.025l0.034-0.087l0.031-0.041l0.049-0.037l0.158-0.066l0.433-0.24l0.18-0.173l0.036-0.189l0.039-0.02
	l0.033-0.104l0.039-0.049l0.009-0.021l0.02-0.076l0.022-0.035l0.035-0.021l0.041-0.012l0.031-0.004h0.012l0.397-0.3l0.094-0.049
	l0.136-0.313l0.014-0.136l0.026-0.058l0.162-0.109l0.022-0.046l0.012-0.048l0.026-0.058l0.146-0.182l0.038-0.119l0.1-0.535
	l0.167-0.182l0.033-0.111l-0.004-0.258l0.024-0.206l-0.014-0.104l-0.066-0.103l-0.087-0.095l-0.075-0.105l-0.059-0.107l-0.038-0.106
	l-0.02-0.19l0.013-0.1l0.039-0.066l0.047-0.046l0.064-0.13l-0.007-0.041v-0.035l0.009-0.025l0.028-0.017l0.063-0.007l0.029-0.013
	l0.071-0.093l0.113-0.206l0.133-0.148l0.017-0.062l0.103-0.097l0.499-0.035l0.505-0.288h0.459l0.115-0.038l0.353-0.253l0.109-0.042
	l0.229-0.037l0.1-0.043l0.107-0.073l0.121-0.065l0.125-0.031l0.14-0.058l0.067,0.182l0.122,0.201l0.051,0.18l0.226,0.169
	l0.087,0.145l-0.014,0.126l0.04,0.168l-0.02,0.219l0.028,0.281l-0.003,0.174l0.009,0.039l0.051,0.042l0.086,0.047l0.037,0.029
	l0.084,0.102l0.062,0.108l0.143,0.387l0.044,0.078l0.266,0.274l0.146,0.193l0.253,0.143l0.319-0.033l0.206-0.133l0.154,0.035
	l-0.023,0.171l0.103,0.269l0.017,0.098l0.024,0.083l0.067,0.106l0.084,0.108l0.629,0.537l0.816,0.689l0.435,0.249l0.017,0.064
	l-0.09,0.091l-0.078,0.107l0.051,0.092l0.209,0.163l0.064,0.101l0.008,0.084l-0.045,0.077l-0.091,0.074l-0.063,0.092l-0.016,0.119
	l0.04,0.103l0.099,0.033l0.105-0.05l0.574-0.618l0.055-0.027l0.063-0.024l0.039-0.027l-0.018-0.044l-0.068-0.032l-0.069,0.004
	l-0.062,0.013l-0.045-0.01l-0.101-0.092l-0.103-0.077l-0.115-0.064l-0.14-0.054l0.131,0.007l0.118-0.005l0.117,0.011l0.123-0.016
	l0.064-0.003l0.074-0.015l0.176-0.006l0.086-0.01l0.103-0.044l0.083-0.033l0.038-0.041l0.021-0.057l0.038-0.051l0.104-0.058
	l0.092-0.046l0.132,0.067l0.104-0.007l0.047,0.092l0.084,0.186l-0.039,0.057l-0.006,0.034l-0.009,0.049l0.075,0.046l-0.04,0.028
	l-0.114,0.028l-0.06,0.046l-0.092,0.035l-0.063,0.087l-0.152,0.068l-0.116-0.055l-0.061-0.039l-0.08-0.029l-0.095,0.029
	l-0.618,0.564l-0.229,0.342l-0.184,0.514l0.056,0.191l0.223,0.279l0.296,0.205l0.188,0.407l0.217,0.174l0.189,0.096l0.059,0.047
	l0.038,0.052l0.022,0.09l0.234,0.332l0.064,0.036l0.035,0.125l0.05,0.099l0.171,0.237l0.094,0.196l0.013,0.07l0.145,0.1l0.036,0.047
	l0.055,0.096l0.229,0.28l0.028,0.171l0.128,0.13l0.263,0.198l0.387,0.192l0.107,0.079l0.068,0.088l0.042,0.097l0.142,0.625
	l-0.025,0.132l-0.12,0.21l-0.032,0.101l0.008,0.107l0.065,0.299l0.039,0.081l0.313,0.247l0.092,0.095l0.092,0.208l0.016,0.243
	l-0.145,0.719l-0.01,0.232l0.025,0.217l0.051,0.189l0.11,0.219l0.271,0.411l0.078,0.199l0.024,0.4l0.057,0.112l0.277,0.251
	l0.064,0.085l0.085,0.213l0.014,0.119l-0.04,0.083l-0.059,0.088l0.021,0.102l0.055,0.108l0.038,0.109l0.063,0.569l0.01,0.086
	l0.07,0.189l0.25,0.473l0.063,0.236l-0.021,0.239l-0.272,0.752l-0.028,0.666l0.04,0.182l0.104,0.195l0.263,0.339l0.077,0.033
	l0.113-0.004l0.117,0.084l0.098,0.119l0.051,0.095l0.04,0.27l-0.002,0.235l0.033,0.102l0.171,0.203l0.057,0.092l0.292,1.119
	l0.152,0.588l0.012,0.542l0.2,1.435l0.28,0.877l0.086,0.458l0.364,0.769l0.543,1.548l0.083,0.108l0.11,0.094l0.229,0.158
	l0.106,0.093l0.317,0.439l0.165,0.452l0.231,0.928l0.28,1.11l0.3,1.57l0.238,0.646l0.029,0.25l-0.046,0.543l0.25,1.082l-0.01,0.971
	l0.141,1.188l0.601,1.841l0.17,1.065l-0.015,0.881l-0.039,2.146l0.114,0.862l-0.057,1.228l-0.038,1.039l-0.043,1.357l-0.006,0.219
	l0.047,1.556l-0.134,0.99l0.031,0.663l-0.172,0.983l-0.027,0.594l-0.112,0.409l0.027,0.049l0.023,0.064l0.009,0.058l-0.008,0.03
	l-0.058,0.083l0.022,0.109l0.053,0.123l0.037,0.127l-0.024,0.095l-0.112,0.207l-0.027,0.771l0.009,0.109l0.059,0.202l0.009,0.091
	l-0.092,0.259l0.055,0.19l-0.027,0.146l-0.425,1.25l-0.285,0.665l-0.258,0.628l-0.826,1.999l-0.082,0.2l-0.087,0.087l-0.041,0.05
	l-0.576,1.063l-0.331,1.096l0.005,0.069l-0.038,0.061l-0.244,0.899l-0.281,0.774l-0.335,1.505l-0.047,0.914l-0.07,0.118
	l-0.092,0.247l-0.013,0.095l0.02,0.053l0.034,0.059l0.079,0.105l-0.002,0.032l-0.071,0.085l-0.004,0.031l0.01,0.071l-0.04,0.574
	l-0.042,0.129l-0.083,0.093l-0.018,0.085l0.032,0.44l-0.298,0.644l-0.066,0.256l0.06,0.485l-0.042,0.1l-0.048,0.065l-0.065,0.314
	l-0.137,1.52l0.004,1.608l-0.063,0.813l-0.062,0.766l-0.015,1.744l-0.301,1.216l-0.185,0.479l-0.204,0.527l-0.183,0.642
	l-0.042,0.294l0.011,0.074l0.023,0.056l-0.001,0.051l-0.11,0.104l-0.021,0.063l-0.077,0.455l0.011,0.122l0.086,0.034l-0.013,0.137
	l-0.009,0.036l-0.014-0.041l-0.015-0.03l-0.021-0.024l-0.032-0.018l-0.173,0.423l-0.018,0.087l0.005,0.124l-0.036,0.16l-0.095,0.288
	l-0.222,1.056l0.002,0.065l0.018,0.049l0.006,0.039l-0.039,0.039l-0.013,0.034l-0.055,0.519l-0.068,0.242l-0.048,0.113l-0.063,0.097
	l-0.085,0.082l-0.15,0.08l-0.068,0.063l-0.021,0.094l0.105-0.028l0.041,0.126l0.005,0.163l-0.009,0.081l-0.053,0.088l-0.031,0.155
	l-0.007,0.169l0.019,0.13l-0.004,0.064l-0.104,0.259l-0.044,0.067l-0.035-0.032l-0.118-0.253l-0.086-0.253l-0.068-0.092l-0.03,0.018
	l0.049,0.089l0.01,0.078l-0.001,0.078l0.017,0.084l0.033,0.07l0.06,0.078l0.032,0.066l0.043,0.072l0.046,0.019l0.046,0.007
	l0.037,0.039l0.021,0.083l-0.005,0.158l0.015,0.083l0.003,0.095l-0.067,0.2l-0.011,0.063l0.021,0.085l0.002,0.083l-0.01,0.081
	l-0.084,0.391l0.002,0.075l0.038,0.051l0.037-0.026l0.034-0.062l0.022-0.059v0.2l-0.105,0.079l-0.139-0.037l-0.098-0.157
	l-0.031,0.017l0.054,0.125l0.14,0.191l0.048,0.116l0.012,0.134l-0.13,1.349l-0.05,0.246l-0.025,0.237l-0.013,0.575l-0.059,0.147
	l-0.082,0.143l-0.039,0.468l-0.061,0.161l0.031-0.016L1293.802,694.901z"/></svg>