<?xml version="1.0" encoding="utf-8"?>
<!-- Generator: Adobe Illustrator 15.0.0, SVG Export Plug-In . SVG Version: 6.00 Build 0)  -->
<!DOCTYPE svg PUBLIC "-//W3C//DTD SVG 1.1//EN" "http://www.w3.org/Graphics/SVG/1.1/DTD/svg11.dtd">
<svg version="1.1" id="Ebene_1" xmlns="http://www.w3.org/2000/svg" xmlns:xlink="http://www.w3.org/1999/xlink" x="0px" y="0px"
	 width="1920px" height="1080px" viewBox="0 0 1920 1080" enable-background="new 0 0 1920 1080" xml:space="preserve">

<path fill="#F4E0B6" stroke="#FFFFFF" d="M1247.882,546.142l0.148-0.032l0.022-0.006l0.147-0.09l0.037-0.014l0.104-0.042
	l0.143,0.064l0.035,0.122l-0.074,0.133l-0.136,0.112l-0.147,0.059l-0.027-0.038l-0.076-0.019l-0.055,0.027l0.032,0.1l0.051-0.003
	l-0.038,0.143l-0.097,0.125l-0.134,0.097l-0.15,0.057l-0.095,0.027h-0.002l-0.047,0.021l-0.105,0.083l-0.071,0.049l-0.055,0.023
	l-0.03-0.024l0.003-0.099l0.018-0.059l0.003-0.007l0,0l0.057-0.108l0.021-0.05l0.01-0.115l0.008-0.029l0.011-0.036l0.011-0.02
	l0.029-0.051l0.035-0.028l0.074-0.027l0.01-0.006l0.021-0.013l0.016-0.032l0.021-0.138l0.059-0.126l0.019-0.055l-0.009-0.065
	l0.065,0.025l0.007,0.014l0.004,0.031l0,0l0.095,0.018L1247.882,546.142z M1249.034,544.987l0.066,0.113l-0.103-0.028l-0.111,0.041
	l-0.116,0.061l-0.12,0.03l-0.138-0.052l0,0l-0.027-0.115l0.047-0.099l0.034-0.002l0.056-0.006l0.188,0.006l0.093,0.002
	L1249.034,544.987L1249.034,544.987z M1249.099,544.726l-0.023,0.034l-0.04,0.034l-0.034,0.01l-0.132-0.006l-0.076,0.013
	l-0.049,0.019l-0.037-0.012l-0.04-0.068l-0.008-0.055l0.015-0.064l0.036-0.061l0.054-0.046l0.096,0.028l0.09,0.015l0.169,0.008
	l0.005,0.052l-0.007,0.053L1249.099,544.726z M1243.228,550.038l-0.006,0.104l-0.093-0.003l-0.102-0.023l-0.131-0.042l-0.063-0.074
	l-0.004-0.11l-0.015-0.097l0.04-0.119l0.107-0.051l0.097,0.02l0.114,0.071l0.048,0.058l0.017,0.157L1243.228,550.038z
	 M1249.113,544.165l0.054,0.045l0.071,0.132l-0.032,0.079l-0.264-0.059l-0.035-0.016l0.021-0.026l0.051-0.026l0.057-0.013
	l0.023-0.009l-0.012-0.02l-0.031-0.008l-0.091,0.014l-0.047-0.021l0.042-0.046l0.124-0.026H1249.113z M1245.956,547.227l-0.08,0.183
	l-0.027,0.097l-0.075,0.085l-0.015,0.08l0.039,0.038l0.023,0.078l-0.109-0.01l-0.055,0.042l-0.1,0.029l0.019,0.083l-0.156,0.104
	l-0.06,0.039l-0.062,0.08l-0.009,0.016l-0.009,0.008l-0.028-0.011l-0.021-0.02l-0.015-0.035l-0.011-0.032l0.002-0.02l0.163-0.094
	l0.028-0.039l0.055-0.119l0.002-0.031l0.005-0.029l0.076-0.146l0.038-0.087l0.03-0.028l0.095,0.022l0.054-0.014l0.017-0.042
	l-0.032-0.045l-0.044-0.032l-0.058-0.015h-0.001l-0.052-0.292l0.021-0.096l0.024,0.017l0.053,0.019l0.026,0.016l0.127-0.035h0.001
	l0.118,0.151V547.227z M1249.375,543.517l-0.033,0.06l-0.113,0.07l-0.228,0.108l-0.224,0.11l-0.061-0.054l0,0l0.018-0.25
	l-0.021-0.109l0.024-0.022l0,0l0.055,0.092l0,0l0.094,0.04l0.113-0.016l0.199-0.063l0.13-0.003L1249.375,543.517z M1241.444,550.202
	l-0.024,0.055l-0.078,0.021l-0.04-0.004l-0.027,0.006l-0.042,0.003l-0.052-0.044l-0.009-0.065l-0.016-0.064l0.018-0.055l0.131-0.024
	l0.111,0.061L1241.444,550.202z M1252.781,534.684l-0.049,0.089l-0.116-0.079v-0.036l0.032-0.029l0.089-0.017L1252.781,534.684z
	 M1249.652,532.693l0.329,0.31l0.03,0.071l0.026,0.146l0.04,0.066l0.081,0.042l0.19,0.015l0.065,0.025l0.024,0.067l-0.012,0.074
	l0.002,0.07l0.063,0.06l0.188,0.132l0.066,0.02l0.009-0.001l0.022-0.007l0.1-0.066l0.058-0.008l0.112,0.034h0.055l0.072-0.039
	l0.046-0.064l0.108-0.175l0,0l0.119-0.035l0.115-0.05l0.073-0.046l0.072,0.011l0.34,0.148l0.335,0.328l0.043,0.029l0.117,0.078
	l0.023,0.028l0.021,0.068l0.039,0.027l0.097,0.02l0.057,0.017l0.042,0.007l0.042,0.015l0.022,0.016l0.033,0.024l0.04,0.042
	l0.061,0.078l0.104,0.111l0.136,0.176l0.532,0.482l0.042,0.038l0.385,0.189l-0.176,0.205l0.002,0.031l0.002,0.037l0.114,0.119
	l0.063,0.066l0.023,0.025l0.021,0.052l-0.032,0.156l-0.001,0.035l-0.005,0.211l-0.035,0.087l-0.12,0.142l-0.031,0.071v0.001
	l0.084,0.179l0.015,0.154l0.044,0.077l0.007,0.064l-0.051,0.083l-0.074,0.074l-0.007,0.004l-0.059,0.042l-0.198,0.028l-0.375-0.13
	l-0.255,0.024l-0.083-0.025l-0.037-0.053l0.045-0.076l0.063-0.038l0.07-0.024l0.148-0.026l-0.097-0.058l-0.201-0.121l-0.155-0.06
	l-0.159,0.041l-0.01,0.007l-0.169,0.118l-0.105,0.159l-0.049,0.185l-0.002,0.027l-0.011,0.175l0.024,0.219l0.081,0.14l0.325,0.228
	l0.072,0.063l0.128,0.139l0.078,0.055l0.061,0.018l0.172,0.054l0.088,0.053l-0.013,0.172l0.107,0.135l0.002,0.092l0.016,0.081
	l0.087,0.066l0.208,0.101l0,0l0.201,0.189l0.069,0.041l0.052,0.001l0.121-0.026l0.062,0.004l0.042,0.021l0.173,0.175l0.033,0.07
	l0.102,0.345l0.039,0.085l0.064,0.046l0.064-0.022l0.279-0.169l0.066-0.053l0.125-0.261l0.155-0.063l0.198,0.067l0.208,0.104
	l0.376,0.08l0.02,0.091l-0.178,0.262l-0.262,0.542l-0.077,0.056l-0.169,0.025l-0.055,0.07l-0.039,0.076l-0.056,0.052l-0.14,0.094
	l-0.126,0.109l-0.087,0.112l-0.062,0.126l-0.051,0.15l-0.034,0.096l-0.1,0.193l-0.131,0.17l0.041,0.063l0.103,0.031l0.115-0.008
	l0.212-0.055l0.144,0.02l0.129,0.082l0.305,0.247l0.035,0.059l0.071,0.372l0.032,0.087l0.356,0.532l0.024,0.112l0.006,0.254v0.001
	l0.03,0.15l0.087,0.151l0.308,0.408l0.154,0.282l0.238,0.845l0.255,0.433l0.103,0.113l0,0l0.589,0.477l0.525,0.536l0.06,0.499
	l-0.047,0.059l-0.584,0.399l-0.591,0.406l-0.591,0.404l-0.589,0.402l-0.588,0.4l-0.589,0.4l-0.585,0.398l-0.586,0.396l-0.584,0.396
	l-0.585,0.395l-0.582,0.392l-0.582,0.393l-0.581,0.39l-0.579,0.389l-0.58,0.389l-0.577,0.387l-0.577,0.383l-0.666,0.443
	l-0.117,0.052l-0.134,0.007l-0.431-0.049l-0.42-0.049l-0.419-0.05l-0.418-0.05l-0.416-0.051l-0.418-0.049l-0.415-0.051l-0.415-0.05
	l-0.415-0.051l-0.415-0.051l-0.413-0.05l-0.413-0.051l-0.411-0.051l-0.412-0.05l-0.41-0.052l-0.411-0.052l-0.41-0.052l-0.446-0.058
	l-0.138-0.034l-0.112-0.072l-0.221-0.226l-0.092-0.09l-0.159-0.113l-0.024-0.164l-0.154-0.154l-0.19-0.067l-0.003-0.131l0.092,0.03
	l0.179,0.032l0.084,0.055l0.206,0.197l0.148,0.102l0.082-0.016v-0.094l-0.128-0.186l0.068,0.022l0.146,0.076l0.061,0.014
	l0.026-0.006l0.034-0.026l0.024-0.032l0.002-0.033l-0.013-0.02l-0.021,0.004l-0.086-0.204l0.021-0.104l0.176,0.034l0.087,0.065
	l0.193,0.251l0.087,0.075l0.223,0.132l0.042,0.032l0.117,0.121l0.047,0.03l0.105,0.041l0.043,0.026l0.1,0.029l0.107-0.053
	l0.179-0.148l0.055-0.025l0.049-0.012l0.117-0.001l0.053-0.009l0.026-0.023l-0.005-0.024l-0.05-0.01l-0.045-0.03l0.065-0.077
	l0.217-0.168l0.019-0.028l0.031-0.016l0.084-0.001l0.162-0.051l0.028-0.026l0.126-0.157l0.079-0.04l0.017-0.051l0.056-0.011
	l0.03-0.073l0.06-0.058l0.069-0.052l0.063-0.06l0.039-0.072l0.058-0.193l0.053-0.062l0.114-0.101l0.035-0.055l0.009-0.065
	l0.002-0.077l0.012-0.077l0.036-0.061l0.049-0.062l0.043-0.087l0.021-0.084l-0.014-0.058l-0.021-0.057l0.065-0.138l0.014-0.083
	l0.003-0.084l0.02-0.097l0.029-0.087l0.037-0.056l0.012-0.059l-0.051-0.068l-0.066-0.063l-0.033-0.049l0.033-0.097l0.088-0.038
	l0.105-0.001l0.295,0.039l0.055-0.021l0.005-0.022l-0.007-0.027l0.019-0.041l0.084-0.068l0.188-0.093l0.088-0.06l0.038-0.047
	l0.043-0.101l0.029-0.044l0.042-0.036l0.04-0.02l0.036-0.011l0.033-0.018l0.332-0.248l0.029-0.034l0.081-0.157l0.004-0.028
	l-0.016-0.022l-0.01-0.02l0.021-0.02l0.029-0.006l0.03,0.003l0.024,0.005l0.016,0.002l0.187-0.018l0.097-0.032l0.086-0.183
	l0.101-0.039l0.103-0.029l0.047-0.065l-0.075,0.02l-0.05-0.02l-0.043-0.04l-0.058-0.033l0.066-0.088l0.135-0.047l0.153-0.017
	l0.119,0.006l0.127,0.026l0.05-0.008l0.212-0.167l0.373-0.492l0.033-0.029l0.052-0.01l0.102,0.005l0.063-0.012l0.063-0.035
	l0.05-0.05l0.023-0.055l0.112-0.018l0.06-0.015l0.042-0.021h0.028l0.115,0.02l0.046-0.003l0.036-0.021l0.042-0.038l0.032-0.042
	l0.032-0.083l0.046-0.023l0.051-0.017l0.037-0.02l0.062-0.146l0.008-0.038l0.015-0.039l0.041-0.025l0.051-0.021l0.044-0.022
	l0.445-0.391l0.081-0.092l0.009-0.063l0.109-0.303l0.194-0.238l0.037-0.097l0.063-0.081l0.052-0.124l0.097-0.112l0.027-0.045
	l0.02-0.066l0.017-0.104l0.001-0.108l-0.032-0.074l0.009-0.057l0.174-0.275l0.06-0.294l0.027-0.035l-0.018-0.066l0.072-0.061
	l0.206-0.081l-0.016-0.062l0.036-0.212l-0.021-0.143l-0.128-0.374l-0.114-0.066l-0.033-0.05l0.029-0.079l-0.055,0.012l-0.021,0.011
	l-0.027-0.026l0.062-0.046l0.129-0.045l0.062-0.039l-0.07-0.021l-0.126-0.003l-0.059-0.029l0.079-0.026l0.074-0.038l0.074-0.028
	l0.074,0.006l0.023-0.021l-0.11-0.079l-0.1,0.034l-0.101,0.083l-0.116,0.069l-0.349,0.071l-0.104,0.061l-0.022-0.022l0.032-0.051
	l0.017-0.064l-0.005-0.069l0.029,0.016l0.045,0.017l0.055-0.003l-0.049-0.026l-0.021-0.041L1248.86,543l0.024-0.023l0.133,0.067
	l0.172,0.028l0.152-0.023l0.075-0.09l-0.035,0.01l-0.095,0.011l0.043-0.034l0.102-0.05l0.033-0.027l-0.001-0.022l-0.021-0.074
	l0.006-0.028l-0.123-0.355l-0.085,0.032l-0.062-0.005l-0.016-0.039l0.049-0.067l0.016-0.055l-0.042-0.056l-0.032-0.065l0.038-0.089
	l-0.023-0.02l-0.054,0.009l-0.054-0.021l-0.058-0.033l-0.065-0.026l-0.007-0.042l-0.043,0.008l-0.056,0.003l-0.05-0.064
	l-0.003-0.062l0.051-0.21l-0.008-0.039l-0.018-0.047l-0.001-0.039l0.16-0.058h0.011l0.043-0.057l0.018-0.079l-0.032-0.062
	l-0.107-0.008l0.173-0.554l0.056-0.271l0.012-0.186l0.027-0.106l0.06-0.106l0.006-0.01l0.011-0.02l0.011-0.015l0.006-0.011
	l0.007-0.025l0.006-0.018l0.002-0.008l0.004-0.01l0.007-0.024l0.045-0.139l-0.097-0.052l0.095-0.13l0.03-0.004l-0.035-0.515
	l-0.082-0.735l-0.041-0.072l-0.056-0.042l0.009-0.116l0.066-0.046l0.128,0.016l0.069,0.029l0.035,0.059l0.022,0.105l0.071-0.119
	l-0.049-0.077l-0.112-0.047l-0.2-0.046l-0.04-0.018l-0.013-0.048l-0.004-0.199l0.018-0.041l0.059-0.048l-0.065-0.026l-0.042-0.042
	l-0.017-0.055l0.018-0.059l0.065-0.007l0.013-0.121l-0.038-0.239l0.022-0.02l0.062,0.025l0.024-0.017l-0.008-0.043l-0.031-0.058
	l0.051,0.001l-0.093-0.169l-0.026-0.085l0.006-0.066l-0.067,0.022l-0.023-0.063l-0.015-0.095l-0.039-0.079l-0.048-0.071
	l-0.037-0.103l-0.007-0.105l0.038-0.077l0.032,0.081l0.013,0.081l0.022,0.063l0.071,0.024l0.078-0.032l0.058-0.077l0.056-0.092
	l0.063-0.083l-0.007-0.046l-0.093-0.182l-0.024-0.077l-0.003-0.175l0.015-0.091l0.077-0.155l-0.034-0.195l0.012-0.062l0.026-0.034
	l0.031-0.056l0.02-0.055l-0.008-0.039l0.008-0.022l0.077-0.125l0.027-0.206l-0.045-0.391l0.017-0.161l0.014,0.05l0.056,0.09
	l0.03,0.091l0.037,0.007l0.032-0.019l0.002-0.023l-0.05-0.058l-0.076-0.124l-0.063-0.07l-0.01-0.05l0.012-0.261l-0.008-0.064
	l-0.018-0.064l-0.032-0.067l-0.057-0.076l-0.024,0.023l0.022,0.042l0.01,0.046l-0.006,0.045l-0.02,0.045l-0.057-0.219l-0.086-0.213
	l-0.18-0.27l-0.019-0.043l0.076-0.084l0.135-0.21l0.045-0.034l0.204,0.073l0.096,0.05l0.063,0.068L1249.652,532.693z
	 M1252.408,534.508l-0.026,0.154l0.07,0.046l0.05,0.022l0.054,0.007l0.006,0.069l-0.051,0.13l0.088,0.091l0.044,0.027l0.065-0.022
	l0.073-0.041l0.035-0.079l0.031-0.163l0.008-0.07l0.055-0.104l0.051-0.139l-0.09-0.108l-0.173,0.11l-0.168-0.022L1252.408,534.508z"
	/></svg>