<?xml version="1.0" encoding="utf-8"?>
<!-- Generator: Adobe Illustrator 15.0.0, SVG Export Plug-In . SVG Version: 6.00 Build 0)  -->
<!DOCTYPE svg PUBLIC "-//W3C//DTD SVG 1.1//EN" "http://www.w3.org/Graphics/SVG/1.1/DTD/svg11.dtd">
<svg version="1.1" id="Ebene_1" xmlns="http://www.w3.org/2000/svg" xmlns:xlink="http://www.w3.org/1999/xlink" x="0px" y="0px"
	 width="1920px" height="1080px" viewBox="0 0 1920 1080" enable-background="new 0 0 1920 1080" xml:space="preserve">

<path fill="#F4E0B6" stroke="#FFFFFF" d="M1075.91,546.137l-0.094-0.023l-0.034-0.004l-0.033,0.008l-0.058,0.035l-0.025,0.007
	l-0.032-0.007l-0.071-0.029l-0.033-0.006l-0.032,0.012l-0.035,0.02l-0.038,0.011l-0.045-0.013l-0.003,0.038l-0.003-0.001
	l-0.032-0.02l-0.005,0.018l-0.014,0.048l-0.046,0.042l-0.032,0.045l-0.071,0.074l-0.004,0.013l-0.035,0.116l0.014,0.035l0.011,0.026
	l0.037,0.051l0.086,0.1l0.018,0.032l0.025,0.068l0.023,0.03l0.027,0.013l0.063,0.012l0.021,0.014l0.021,0.034l0.005,0.011
	l-0.007,0.017l-0.065,0.028l-0.09,0.068l-0.024,0.012l-0.052,0.01l-0.052-0.006l-0.099-0.036h-0.033l-0.031,0.021l-0.013,0.037
	l-0.007,0.039l-0.017,0.035l-0.031,0.021l-0.018,0.003l-0.095,0.02l0.033,0.074l0.033,0.056l0.023,0.055l0.005,0.064l-0.002,0.012
	l-0.016,0.048l-0.038,0.063l-0.046,0.056l-0.011,0.011l-0.028,0.023l-0.088,0.058l-0.063,0.084l-0.074,0.098l-0.009,0.004
	l-0.004,0.002l-0.128,0.061l-0.04,0.03l-0.032,0.039l-0.008,0.013l-0.02,0.035l-0.013,0.123l-0.038,0.06l-0.212,0.071l-0.049,0.017
	l-0.048,0.059l-0.015,0.067l-0.004,0.019l-0.006,0.124l0.012,0.135l0.048,0.104l0.082,0.076l0.084,0.036l0.033,0.014l0.046,0.006
	h0.094l0.047,0.01l0.044,0.028l0.024,0.015l0.007,0.05l-0.01,0.064l0.017,0.092v0.002l0.042,0.082l0.063,0.125l0.026,0.07
	l0.01,0.058l0.002,0.057l0.011,0.055l0.037,0.047l0.07,0.068l0.029,0.059l-0.011,0.054l-0.044,0.055l-0.05,0.04l-0.109,0.054
	l-0.115,0.026l-0.082,0.02l-0.021,0.026l-0.034,0.066l-0.024,0.023l-0.035,0.007l-0.037,0.005l-0.034,0.01l-0.025,0.027l0.004,0.044
	l0.031,0.037l0.021,0.04l-0.02,0.039l-0.002,0.003l-0.239,0.213l-0.067,0.06l-0.087,0.115l-0.011,0.038l0.003,0.046l0.001,0.01
	l0.014,0.014l0.025,0.003l0.04,0.016l0.054,0.043l0.024,0.013l0.034,0.009l0.044-0.001l0.009-0.015l-0.005-0.018l0.008-0.018
	l0.031-0.023l0.008-0.01l0.013,0.004l0.071,0.032l0.008,0.005l0.084,0.059l0.031,0.029l-0.06,0.025l-0.033,0.03l-0.028,0.034
	l-0.072,0.064l-0.003,0.036l0.004,0.038l-0.012,0.025l-0.027,0.033l0.018,0.033l0.04,0.035l0.037,0.039l0.003,0.003l0.065,0.102
	l0.064,0.076l0.073,0.054l0.189,0.036l-0.016,0.035l-0.02,0.096l-0.015,0.033l-0.027,0.023l-0.097,0.038l-0.133,0.129l-0.102,0.096
	l-0.139,0.037l-0.294-0.092l-0.04-0.013l-0.143,0.056l-0.04-0.013l-0.041-0.003l-0.027,0.008l-0.045,0.012l-0.071-0.024
	l-0.085-0.016l-0.052,0.023l0.029,0.093l-0.014,0.119l-0.104,0.097l-0.132,0.025l-0.099-0.097l0,0l0,0l0,0l-0.323-0.006
	l-0.079-0.026l-0.011-0.02l-0.022-0.077l-0.02-0.031l-0.027-0.016h-0.001l-0.022-0.002h-0.025l-0.135-0.038l-0.055-0.024l-0.05-0.04
	l-0.027-0.055l-0.031-0.077l-0.034-0.062l-0.04-0.004l-0.027,0.027l-0.013,0.013l-0.013,0.034l0.001,0.099l-0.01,0.058l-0.038,0.112
	l-0.01,0.052l0.006,0.059l0.006,0.019l0.029,0.1l0.01,0.064l-0.007,0.085l-0.077,0.131l-0.032,0.072l-0.084,0.109l-0.13,0.068
	l-0.146,0.03l-0.139-0.003l-0.071,0.01l-0.065,0.053l-0.111,0.121l-0.068,0.044l-0.007,0.003h-0.002l-0.071,0.025l-0.089,0.004
	l-0.097-0.023l0,0l-0.057-0.023l-0.051-0.003l-0.086,0.014l-0.049,0.009l-0.015,0.022l0.002,0.033l0.02,0.045l0.095,0.048
	l-0.016,0.067l-0.111,0.113l-0.024,0.059l-0.009,0.051l-0.021,0.036l-0.167,0.039l-0.052,0.005l-0.057-0.023l-0.178-0.03
	l-0.285,0.129l-0.09,0.04l-0.17-0.076v-0.02l-0.023-0.034l0.002-0.05l-0.011-0.025l-0.032,0.005l-0.029-0.008l-0.029-0.02
	l-0.028-0.034l0.068-0.01l0.234-0.139l0.214-0.124l-0.011-0.025l-0.05-0.032l-0.064-0.029l-0.068-0.032l0.141-0.07l0.143,0.016
	l0.132-0.07l0.028-0.097l0.024-0.091v-0.063l-0.007-0.007l-0.003-0.004l-0.027,0.008l-0.055-0.005l-0.047-0.021l-0.402-0.298
	l-0.242-0.009l-0.038-0.011l-0.154-0.042l-0.055,0.004l-0.106,0.026l-0.101-0.011l-0.039-0.032l-0.044-0.038l-0.052-0.146
	l0.002-0.234v-0.069l-0.014-0.089l-0.016-0.094l-0.083-0.061l-0.014,0.01l-0.077,0.054l-0.074,0.082l-0.085,0.043l-0.119-0.061
	l-0.003-0.004l-0.003-0.005l-0.005-0.001l-0.004-0.003l-0.019-0.006l-0.057-0.029l0.027-0.058l0.01-0.016l0.011-0.039l-0.004-0.032
	l-0.02-0.024l-0.034-0.016l0.029-0.113l0.034-0.06l0.184-0.316l0.018-0.187l-0.028-0.036l-0.026-0.032l-0.032,0.006l-0.042,0.008
	l-0.082,0.044l-0.079,0.017l-0.125-0.051l-0.071-0.017l-0.089,0.016l-0.051-0.006l-0.09,0.027l-0.052,0.004l0.074,0.056
	l-0.074,0.045l-0.04-0.026l-0.034-0.055l-0.063-0.038l0,0l-0.001-0.001l-0.063-0.097l-0.036-0.044l-0.041-0.033l0.056-0.077
	l0.004-0.025l0.011-0.087v-0.104l0.016-0.051l0.037-0.019l0.028-0.032l0.048-0.078l0.104-0.125l0.04-0.102l0.024-0.111l0.042-0.094
	l0.094-0.053l0.072-0.025l0.042-0.051l0.003-0.06v-0.019l-0.043-0.109l0.008-0.027l-0.001-0.031l-0.008-0.031l-0.014-0.032
	l0.046-0.014l0.211-0.03l0.039-0.016l0.175-0.105l0.094-0.021l0.318,0.018l0.051-0.013l0.043-0.027l0.047-0.029l0.051-0.02
	l0.053-0.005l0.052,0.005l0.225,0.074l0.033-0.005l0.007-0.001l0.271-0.102l0.351-0.13l0.088-0.062l0.033-0.006l0.021,0.015
	l0.021,0.02l0.022,0.014l0.061,0.001l0.048,0.003l0.052-0.013l0.088-0.064l0.064,0.038l0.063,0.059l0.056,0.022l0.041-0.04
	l-0.002-0.039l-0.002-0.041l-0.012-0.091l0.016-0.077l0.023-0.024l0.059-0.03l0.025-0.021l0.021-0.032l0.031-0.082l0.012-0.01
	l0.019-0.004l0.022-0.005l-0.002-0.06l0.016-0.054l0.002-0.033l0.008-0.028l0.038-0.042l0.034,0.008l0.067-0.043l0.051-0.054
	l0.01-0.021v-0.063v-0.082l-0.009-0.071l-0.007-0.076l0.001-0.084l0.017-0.09l0.029-0.03l0.042-0.012l0.047-0.026l0.009-0.006
	l0.045-0.065l0.029-0.042l0.044-0.009l0.091,0.055l0.038-0.194l0.141-0.122l0.071-0.021l0.06-0.018l0.2-0.059l0.097-0.029
	l0.356-0.172l0.153-0.075l0.099-0.004l0.071,0.023l0.019,0.006l0.082,0.013l0.078-0.051l0.035-0.064v-0.021l-0.001-0.027
	l-0.01-0.043l-0.002-0.009v-0.071l0.029-0.052l0.054-0.042l0.06-0.025l0.049-0.005l0.032-0.027l0.009-0.017l0.01-0.019l0.001-0.043
	l-0.025-0.054l-0.019-0.065l0.059,0.009l0.232-0.061l0.072-0.036l0.068-0.07l0.089-0.09l0.075-0.04l0.086-0.019l0.236,0.014
	l0.124-0.027l0.042,0.007l0.083,0.045h0.001l0,0l-0.05-0.093l-0.062-0.051l-0.078-0.013l-0.079-0.087l-0.036-0.071l-0.023-0.062
	l-0.005-0.013l-0.039-0.136l-0.017-0.027l-0.017-0.005l-0.007-0.008l0.014-0.041l0.013-0.017l0.102-0.078l0.009-0.008l0.044-0.06
	l0.083-0.121l0.114-0.018l0.017-0.003l0.119-0.064l0.25-0.136l0.037,0.004l0.066,0.035l0.021,0.01l0.031,0.003l0.042-0.016
	l0.021,0.016l0.012,0.037l0.007,0.06l0.003,0.053l-0.003,0.024l-0.005,0.055l0.008,0.033l0.002,0.017l0.014,0.013l0.095,0.103
	l0.05,0.027l0.047,0.035l0.041,0.021l0.036-0.025l0.032,0.068h0.027h0.003h0.018l0.054-0.018l0.056,0.008l0.052,0.071l-0.012,0.032
	l-0.009,0.022l-0.042,0.051l-0.008,0.051l0.023,0.023l0.026,0.023l0.07,0.02l0.128,0.016l0.181,0.119l0.134,0.038L1075.91,546.137z"
	/></svg>