<?xml version="1.0" encoding="utf-8"?>
<!-- Generator: Adobe Illustrator 15.0.0, SVG Export Plug-In . SVG Version: 6.00 Build 0)  -->
<!DOCTYPE svg PUBLIC "-//W3C//DTD SVG 1.1//EN" "http://www.w3.org/Graphics/SVG/1.1/DTD/svg11.dtd">
<svg version="1.1" id="Ebene_1" xmlns="http://www.w3.org/2000/svg" xmlns:xlink="http://www.w3.org/1999/xlink" x="0px" y="0px"
	 width="1920px" height="1080px" viewBox="0 0 1920 1080" enable-background="new 0 0 1920 1080" xml:space="preserve">

<path fill="#F4E0B6" stroke="#FFFFFF" d="M1036.023,578.92l-0.022,0.045l-0.033,0.026l-0.042,0.011l-0.045-0.002l-0.013-0.012
	l-0.011-0.003l-0.009,0.009l-0.01,0.017l-0.003,0.129l-0.099,0.073l-0.212,0.084l-0.013,0.024l-0.008,0.031l-0.016,0.031
	l-0.034,0.03l-0.027,0.012l-0.218,0.027l-0.049-0.02l-0.015-0.055l-0.144-0.123l0.053-0.039l0.017-0.012l0.057-0.063l-0.031-0.068
	l-0.076-0.035l-0.076,0.029l-0.003-0.054l0.03-0.107l-0.004-0.019l-0.033-0.011l-0.009-0.044l0.007-0.049l0.007-0.03l0.069-0.05
	l0.004-0.188l0.112-0.022l0.091-0.063l0.052-0.017l0.223,0.074l0.044,0.006l0.404-0.063l-0.005,0.099l0.065,0.02l0.088,0.001
	l0.041,0.032l0.02,0.016l-0.086,0.03l-0.046,0.074l-0.012,0.103L1036.023,578.92z"/></svg>