<?xml version="1.0" encoding="utf-8"?>
<!-- Generator: Adobe Illustrator 15.0.0, SVG Export Plug-In . SVG Version: 6.00 Build 0)  -->
<!DOCTYPE svg PUBLIC "-//W3C//DTD SVG 1.1//EN" "http://www.w3.org/Graphics/SVG/1.1/DTD/svg11.dtd">
<svg version="1.1" id="Ebene_1" xmlns="http://www.w3.org/2000/svg" xmlns:xlink="http://www.w3.org/1999/xlink" x="0px" y="0px"
	 width="1920px" height="1080px" viewBox="0 0 1920 1080" enable-background="new 0 0 1920 1080" xml:space="preserve">

<path fill="#F4E0B6" stroke="#FFFFFF" d="M295.609,182.797l-0.002-0.013l0.013-0.03l0.023-0.021h0.024l0.007,0.021l-0.008,0.044
	l-0.02,0.034l-0.022-0.013L295.609,182.797z M300.656,187.715l-0.053-0.019l0.033-0.079l0.069-0.043l0.05-0.07l0.08-0.15
	l0.032-0.007l0.009,0.017l0.032,0.039l0.048-0.038l0.064-0.018l0.059,0.011l0.05,0.082l0.04,0.021l0.084,0.027l0.031,0.005
	l0.075,0.019l0.053,0.025l-0.035,0.025l-0.174,0.064l-0.072,0.012l-0.18,0.012L300.656,187.715z M301.958,185.57l0.004,0.04
	l0.083,0.248l-0.006,0.044l-0.023,0.041l-0.017,0.04l-0.025,0.035l-0.051,0.023l-0.053-0.059l-0.043-0.022l-0.046,0.029
	l-0.013,0.053l0.026,0.041l0.038,0.038l0.022,0.044l-0.002,0.058l-0.034,0.09l-0.007,0.039l0.026,0.064l0.053,0.016l0.069,0.012
	l0.072,0.053l0.027,0.042l0.025,0.055l0.013,0.06l-0.004,0.057l-0.03,0.056l-0.035,0.026l-0.075,0.011l-0.047-0.031l-0.221-0.218
	l-0.043-0.008l-0.05,0.019l-0.051,0.027l-0.049,0.02l-0.059-0.005l-0.038-0.033l-0.022-0.047l-0.016-0.048l0.01-0.103l0.033-0.054
	l0.128-0.102l0.049-0.072l0.078-0.239l-0.04-0.027l0.05-0.126l0.017-0.07l0.003-0.059l0.019-0.048l0.141-0.146l0.12-0.093
	l0.123,0.019l0.102,0.086l0.057,0.111l-0.075-0.042l-0.071-0.059l-0.066-0.018l-0.061,0.082L301.958,185.57z M308.78,188.815
	l-0.024-0.085l0.015-0.039l0.018-0.033l0.023-0.026l0.032-0.022l0.03,0.058l0.049,0.041l0.066,0.021l0.076,0.004l-0.002,0.023
	l-0.015,0.054l-0.009,0.021l-0.089-0.02l-0.096,0.014L308.78,188.815z M308.563,185.429l-0.104-0.033l0.037-0.008l-0.041-0.021
	l0.025-0.029l0.013-0.027l0.016-0.058l0.003,0.003l0.011-0.007l0.02-0.003l0.143-0.087l0.048-0.015l0.094-0.003l0.043,0.02
	l0.012,0.04l0.003,0.059l-0.048,0.085l-0.128,0.062L308.563,185.429z M309.145,188.97l-0.016-0.072l0.023-0.073l0.053-0.028
	l0.053,0.072l0.069,0.033l0.071,0.024l0.065,0.045l-0.068,0.038l-0.063,0l-0.062-0.016l-0.061-0.002L309.145,188.97z
	 M309.657,188.997l-0.039-0.018l0.007-0.072l0.066-0.064l0.112-0.084l0.086-0.04l-0.007,0.072l-0.038,0.032l-0.103,0.044
	l-0.018,0.036l-0.02,0.064L309.657,188.997z M313.479,186.339l-0.011-0.061l0.073-0.064l0.073-0.001l0.041,0.047l-0.02,0.079
	l-0.056,0.046l-0.059-0.005L313.479,186.339z M314.885,189.51l-0.102,0.015l-0.053-0.027l0.094-0.109l-0.029-0.045l-0.033-0.021
	l-0.036,0.011l-0.039,0.049l-0.052-0.029l-0.054-0.015l0.007-0.068l-0.056-0.033l-0.086-0.005l-0.083,0.018l0.026-0.064l0.052-0.043
	l0.112-0.056l0.039,0.069l0.057-0.008l0.052-0.039l0.021-0.026l-0.051-0.044h-0.074l-0.049-0.013l0.023-0.076l-0.026,0.001
	l-0.007-0.012l-0.001-0.022l-0.004-0.026l0.138-0.09l0.082,0.074l0.083,0.116l0.14,0.041l0.037,0.025l0.025,0.071l0.016,0.084
	l0.001,0.063l-0.02,0.075l-0.028,0.039l-0.033,0.036l-0.036,0.066L314.885,189.51z M329.033,178.271l-0.126-0.079l-0.001-0.149
	l0.09-0.106l0.104-0.008l0.091,0.078l0.049,0.151l-0.061,0.108L329.033,178.271z"/></svg>