<?xml version="1.0" encoding="utf-8"?>
<!-- Generator: Adobe Illustrator 15.0.0, SVG Export Plug-In . SVG Version: 6.00 Build 0)  -->
<!DOCTYPE svg PUBLIC "-//W3C//DTD SVG 1.1//EN" "http://www.w3.org/Graphics/SVG/1.1/DTD/svg11.dtd">
<svg version="1.1" id="Ebene_1" xmlns="http://www.w3.org/2000/svg" xmlns:xlink="http://www.w3.org/1999/xlink" x="0px" y="0px"
	 width="1920px" height="1080px" viewBox="0 0 1920 1080" enable-background="new 0 0 1920 1080" xml:space="preserve">

<path fill="#F4E0B6" stroke="#FFFFFF" d="M1239.949,720.927l-0.013,0.067l-0.003,0.082l0.018,0.073l0.046,0.054l0.097,0.018
	l0.054,0.068l0.008,0.04l-0.002,0.042l0.005,0.04l0.025,0.031l0.057,0.01l0.032-0.028l0.021-0.036l0.015-0.019l0.082,0.019
	l0.037,0.023l0.092,0.136l0.07,0.067l0.17,0.124l0.085,0.099l0.077,0.045l0.033,0.041l0.004,0.021l0.002,0.029l0.006,0.041
	l0.017,0.043l0.07,0.077l0.087,0.021l0.17-0.009l0.068,0.016l0.11,0.042l0.058,0.007l0.372-0.035l0.098-0.036l0.122,0.017
	l0.101,0.134l0.065,0.151l0.02,0.074l-0.008,0.047l0.063,0.058l0.139,0.081l0.094,0.044l0.042,0.03l0.146,0.178l0.107,0.103
	l0.106,0.026l0.083-0.111l0.093,0.1l0.068,0.148l0.164,0.476l0.028,0.061l0.025,0.023l0.078,0.055l0.038,0.045l0.024,0.184
	l0.046,0.049l0.149,0.206l0.022,0.108l-0.005,0.11l0.018,0.103l0.086,0.078l-0.038,0.114l-0.011,0.051v0.059l0.15-0.052l0.088,0.141
	l0.104,0.358l0.073-0.07l0.107,0.003l0.111,0.046l0.089,0.054l0.12,0.14l0.154,0.709l0.083,0.268l0.209,0.368l0.038,0.124
	l0.005,0.131l-0.032,0.086l-0.057,0.084l-0.045,0.09l-0.054,0.055l-0.021,0.042l-0.034,0.036l-0.044,0.01l-0.308-0.007l-0.058,0.009
	l-0.054,0.043l-0.027,0.078l0.011,0.187l-0.024,0.081l-0.092,0.061l-0.115,0.021l-0.104,0.041l-0.056,0.113l-0.152,0.079
	l-0.193-0.002l-0.37-0.105l-0.049-0.029l-0.063-0.064l-0.037-0.017l-0.011,0.016l-0.165,0.039h-0.028l-0.06,0.067l-0.019,0.075
	l-0.003,0.041l-0.004,0.045l-0.025,0.1l-0.044,0.077l-0.068,0.082l-0.075,0.07l-0.07,0.046l-0.065,0.018l-0.183-0.003l-0.057,0.023
	l0.004,0.046l0.024,0.052l0.01,0.045l-0.045,0.429l-0.044,0.109l-0.1,0.062l-0.129,0.01l-0.132-0.022l-0.115-0.037l-0.243-0.121
	l-0.081-0.021l-0.062,0.007l-0.046,0.023l-0.035,0.025l-0.038,0.015l-0.122-0.037l-0.013-0.004l-0.047-0.016l-0.05-0.004
	l-0.045,0.027l0.003,0.038l0.026,0.051l0.114,0.298l0.25,0.405l0.114,0.469l0.27,0.572l0.028,0.063l0.038,0.135l0.019,0.143
	l0.003,0.145l-0.009,0.133l-0.034,0.165l-0.054,0.109l-0.08,0.071l-0.113,0.061l-0.119,0.021l-0.051,0.03l-0.008,0.07l0.045,0.122
	l0.006,0.062l-0.026,0.056l-0.093,0.073l-0.093,0.032l-0.227,0.033l-0.058,0.009l-0.033,0.016l-0.103,0.134l-0.021,0.044
	l-0.027,0.037l-0.047,0.024l-0.091,0.071l-0.051,0.113l-0.067,0.083l-0.141-0.013l-0.182,0.058l-0.097,0.029l-0.074,0.058
	l-0.141,0.211l-0.104,0.076l-0.094-0.08l-0.04-0.066l-0.102-0.088l-0.042-0.058l-0.014-0.065l0.014-0.128l-0.022-0.065l-0.063-0.052
	l-0.155-0.056l-0.003-0.005l-0.055-0.064l-0.026-0.067l-0.017-0.023l-0.081-0.019l-0.111-0.01l-0.11,0.027l-0.203,0.079l-0.121,0.02
	l-0.348,0.013l-0.079,0.028l-0.25,0.171l-0.04,0.18l0.209,0.587l-0.117-0.054l-0.121-0.001l-0.144,0.057l-0.073,0.008l-0.237-0.038
	l-0.058-0.022l-0.188-0.433l-0.097-0.109l-0.076-0.029l-0.064-0.002l-0.058-0.01l-0.054-0.06l-0.021-0.082l0.034-0.127l-0.052-0.058
	l-0.002-0.003l0.015-0.114l-0.048-0.161l-0.026-0.173l0.038-0.144l0.148-0.203l0.045-0.125l0.006-0.032l0.011-0.015l0.006-0.021
	l0.001-0.045l-0.073-0.291l-0.003-0.066l0.022-0.05l0.105-0.013l0.085,0.113l0.078,0.135l0.083,0.055l0.021,0.137l0.004,0.138
	l0.043-0.097l-0.01-0.103l-0.025-0.104l-0.003-0.11l-0.007-0.037l-0.042-0.072l-0.006-0.032l0.015-0.019l0.031-0.011l0.027,0.005
	l0.01,0.031l0.015-0.112l-0.003-0.059l-0.02-0.074l0.032-0.02l0.032,0.07l0.027,0.102l0.024,0.07l-0.047-0.555l0.081,0.013
	l0.072-0.019l0.038-0.053l-0.025-0.089l-0.018,0.044l-0.025,0.033l-0.08-0.1l-0.043-0.109l0.015-0.088l0.098-0.038l-0.118-0.14
	l0.03-0.148l0.121-0.081l0.162,0.059l-0.061-0.085l-0.069-0.03l-0.063-0.005l-0.035-0.018l-0.09-0.179l-0.01-0.083l0.043-0.077
	l0.057,0.164l0.03,0.062l0.049,0.038l0.029-0.017l-0.071-0.168l-0.026-0.097l0.002-0.07l0.039-0.026l0.053,0.018l0.113,0.092
	l-0.003-0.069l-0.027-0.064l-0.041-0.053l-0.048-0.042l0.038-0.044l0.019-0.047l0.011-0.054l0.027-0.059l0.018,0.027l0.044,0.027
	l0.025-0.016l-0.032-0.093l-0.062-0.069l-0.078-0.066l-0.073-0.077l-0.04-0.113l-0.034,0.068l-0.045-0.014l-0.103-0.097
	l-0.018-0.022l-0.056-0.053l-0.044-0.03l0.009,0.047l-0.182-0.074l-0.101-0.091l-0.001-0.142l-0.094-0.083l-0.155-0.268
	l-0.129-0.071l0.009-0.087l-0.025-0.081l-0.045-0.068l-0.048-0.051l-0.03-0.009l-0.07,0.016l-0.02-0.007l-0.01-0.039l0.001-0.044
	l-0.006-0.039l-0.025-0.03l-0.053-0.01l-0.141,0.014l-0.013-0.16l0.004-0.129l0.104-0.349l0.008-0.1l-0.041-0.388l0.01-0.112
	l0.053-0.078l0.339-0.217l0.01-0.01l0.005-0.015l0.004-0.017l-0.001-0.038v-0.221l0.053-0.29l0.099-0.267l0.138-0.181l0.19-0.094
	l0.09-0.063l0.07-0.077l0.061-0.119l0.038-0.104l0.052-0.093l0.098-0.087l0.063-0.017l0.135,0.017l0.038-0.004l0.023-0.049
	l-0.03-0.128l0.011-0.083l0.026-0.057l0.031-0.038l0.044-0.016h0.002l0.065,0.003l0.246,0.155l0.081,0.106l0.13,0.226l0.105,0.093
	l0.125,0.046l0.104-0.02l0.09-0.068l0.076-0.104l0.201-0.389l0.042-0.039l-0.022-0.146l0.022-0.109l0.015-0.029l0.09-0.167
	l0.141-0.196l0.02-0.085l-0.02-0.102l-0.084-0.233l-0.006-0.096l0.022-0.048l0.032-0.029l0.035-0.022l0.027-0.032l0.045-0.092
	l0.081-0.356l0.011-0.13l-0.002-0.13l-0.011-0.044l-0.032-0.087l-0.003-0.042l0.008-0.023l0.007-0.026l0.056-0.087l0.014-0.045
	l-0.021-0.1l-0.09-0.252l-0.002-0.104l0.053-0.072l0.084-0.029l0.092-0.017l0.084-0.032l0.062-0.063l0.044-0.069l0.057-0.046
	l0.083-0.013L1239.949,720.927z"/></svg>