<?xml version="1.0" encoding="utf-8"?>
<!-- Generator: Adobe Illustrator 15.0.0, SVG Export Plug-In . SVG Version: 6.00 Build 0)  -->
<!DOCTYPE svg PUBLIC "-//W3C//DTD SVG 1.1//EN" "http://www.w3.org/Graphics/SVG/1.1/DTD/svg11.dtd">
<svg version="1.1" id="Ebene_1" xmlns="http://www.w3.org/2000/svg" xmlns:xlink="http://www.w3.org/1999/xlink" x="0px" y="0px"
	 width="1920px" height="1080px" viewBox="0 0 1920 1080" enable-background="new 0 0 1920 1080" xml:space="preserve">

<path fill="#F4E0B6" stroke="#FFFFFF" d="M1286.731,237.246l0.066,0.053l0.068,0.086l0.032,0.026l0.039,0.046l0.022,0.07
	l-0.029,0.023l-0.134-0.091l-0.03-0.046l0.012-0.037l-0.029-0.006l-0.041-0.004l-0.002-0.018l-0.007-0.009l-0.012-0.003
	l-0.011-0.013l-0.005-0.022l-0.059-0.098l-0.012-0.031L1286.731,237.246z M1286.592,237.812l0.009,0.029l-0.035,0.022l-0.022,0.007
	l-0.015-0.017l-0.058-0.063l-0.028-0.059l-0.003-0.017l0.014-0.011l0.019-0.007l0.011,0.008l0.006,0.018l0.053,0.041
	L1286.592,237.812z M1286.469,238.217l0.033,0.007v0.007l0.002,0.011l0.043,0.034l0.016,0.032l0.005,0.038l-0.011,0.027
	l-0.021,0.002l-0.011-0.015l-0.02-0.014l-0.012-0.016l0.003-0.026l0.009-0.023l-0.005-0.01l-0.019-0.001l-0.01-0.001l-0.021,0.009
	l-0.028-0.006l0.004-0.036L1286.469,238.217z M1283.455,239.086l0.095-0.068l0.047-0.018l-0.025,0.152l-0.023,0.072l-0.042,0.07
	l0.068,0.072l-0.036,0.036l-0.074-0.007l-0.097-0.122l-0.014-0.04l0.038-0.022l0.014-0.059l0.018-0.041L1283.455,239.086z
	 M1279.623,240.424l0.006,0.016l-0.011,0.021l-0.038,0.013l-0.034,0.004l-0.014-0.029l-0.038-0.033l0.034-0.011l0.007-0.003
	l0.014-0.01l0.049-0.009L1279.623,240.424z M1279.234,240.125l0.03,0.021l0.001,0.045l-0.018,0.016l-0.038-0.008l-0.021,0.008
	l-0.029-0.016l-0.035-0.018l-0.014-0.037l0.029-0.012l0.048-0.005L1279.234,240.125z M1278.973,240.198l0.027-0.027l0.041,0.004
	l0.043,0.025l0.031,0.036l0.005,0.047l-0.035,0.062l0.057,0.136l0.011,0.01l-0.006,0.016l-0.03-0.002l-0.022-0.022l-0.021-0.031
	l-0.058-0.051l0.004-0.014l-0.011-0.046l-0.033-0.083L1278.973,240.198z M1279.087,239.528l0.095,0.064l0.018,0.063l0.051,0.078
	l-0.118-0.051l0.015-0.046l-0.053-0.02l-0.04,0.054l-0.021-0.006l-0.009-0.038h-0.018l-0.022-0.007l-0.015,0.02l-0.074,0.007
	l-0.037-0.051l-0.064,0.009l-0.04-0.037l-0.037,0.008l-0.015-0.063l0.03-0.098l0.03,0.012l0.026,0.041l0.088-0.045l0.091-0.055
	l0.05,0.069L1279.087,239.528z M1278.154,241.864l0.015,0.004v0.009l-0.009,0.008l-0.002,0.018l-0.001,0.014l-0.001,0.001
	l-0.018,0.002l-0.021-0.002l-0.015-0.006l-0.018-0.014l-0.018,0.007l-0.002-0.009l-0.008-0.01l-0.009,0.008l-0.006-0.007
	l-0.007-0.012v-0.01l0.008-0.007l0.006-0.008l0.018-0.007l0.002-0.013l0.013-0.001h0.009l0.002-0.011l0.011-0.001l0.013,0.003
	l0.006,0.012l0.012,0.007l0.003,0.017L1278.154,241.864z M1261.472,224.353l-0.001-0.042l-0.028-0.129l-0.096-0.144l-0.038-0.086
	l0.033-0.047l0.062,0.001l0.076,0.016l0.069,0.025l0.041,0.037l0.04-0.147l-0.037-0.176v-0.152l0.146-0.083l0.387-0.012l0.171-0.029
	l0.143-0.089l0.15-0.21l0.071-0.037l0.153-0.257l0.004-0.038l-0.009-0.029l-0.002-0.026l0.017-0.027l0.034-0.014l0.088-0.001
	l0.044-0.024l0.041-0.079l-0.034-0.047h-0.068l-0.059,0.063l-0.075-0.031l-0.052-0.047l-0.015-0.058l0.042-0.058l0.046-0.018
	l0.171-0.047l0.08-0.032l0.081-0.054l0.018-0.009l0.048-0.013l0.02-0.017l0.01-0.018l0.02-0.018l0.153-0.082l0.054-0.048l0.039-0.07
	l0.012-0.079l0.052-0.068l0.071-0.049l0.104-0.03l0.111-0.018l0.058-0.018l0.037-0.04l0.054-0.103l0.03,0.01l0.044,0.091l0.06,0.112
	l0.019,0.048l0.048,0.036l0.007,0.02l-0.081,0.011l-0.049,0.01l-0.025,0.013l-0.037,0.05l-0.024,0.047l0.005,0.099l-0.028,0.077
	l-0.031,0.036l0.002,0.101l0.03,0.046l0.055-0.021l0.054,0.035l0.021,0.053l-0.035,0.034l-0.021,0.047l0.008,0.04l0.039-0.005
	l0.038-0.002l0.039,0.035l0.044,0.026l0.06-0.017l0.032-0.004l0.025-0.021l-0.001-0.028l0.007-0.024l0.05-0.008l0.034,0.012
	l-0.003,0.025l-0.051,0.061l0.016,0.032l0.058,0.017l0.046-0.039l0.02,0.035l0.063,0.016l0.019,0.053l0.104-0.001l0.036,0.035
	l0.015,0.039l-0.064,0.006l-0.099-0.011l-0.072,0.041l0.004,0.044l0.167,0.121l0.115,0.058l0.043,0.042l0.012,0.042l0.061-0.017
	l0.262-0.025l0.004,0.019l-0.007,0.031l0.029,0.034l0.068,0.036l0.005-0.012l0.026-0.015l0.024,0.021v0.032l-0.037,0.064
	l-0.017,0.047l0.018,0.092l0.062,0.057l0.088,0.004l0.033-0.002l0.017,0.048l0.037,0.002l0.031,0.012l0.112,0.012l0.072-0.002
	l0.018,0.021l-0.09,0.055l0.022,0.038l0.092-0.009l0.047,0.059l0.015-0.026l0.02-0.021l0.044-0.036l0.017,0.031l0.024,0.021
	l0.065,0.026l-0.012-0.01l0.046,0.002l0.056,0.007l0.021,0.005h0.086l0.035,0.03l-0.008,0.028l-0.035,0.037l-0.018,0.084l0.04,0.053
	l0.098,0.006l0.118,0.006l0.146-0.027l0.153,0.028l0.052,0.042l0.076-0.002l0.032,0.028l-0.077,0.068l0.01,0.044l0.104,0.116
	l0.133,0.021l0.161,0.02l0.059,0.021l0.054,0.083l0.127,0.063l0.146,0.004l0.192,0.019l0.129,0.051l0.097-0.056l0.076-0.001
	l0.069,0.006l0.127-0.042l0.083-0.088l0.051-0.077l0.033-0.05l-0.02-0.072l0.059-0.036l0.056-0.058l0.021-0.041v-0.022l-0.02-0.051
	l0.004-0.02l0.039-0.039l0.016,0.001l0.021,0.015l0.06,0.002l0.016,0.004l0.103,0.011l0.024-0.001l0.051,0.047l0.105,0.022
	l0.578,0.049l0.201-0.004l0.156-0.081l0.062,0.013l0.07-0.003l0.144-0.025l0.194-0.056l0.04-0.021l0.065-0.074l0.024-0.052
	l0.029,0.029l0.101,0.006l0.029-0.018l0.094,0.05l0.085-0.023l0.111,0.025l0.063,0.021l0.001,0.036l-0.039,0.033l0.023,0.044
	l0.027,0.072l-0.003,0.066l0.025,0.059l-0.002,0.057l0.017,0.039l0.01,0.089l0.058,0.053l0.084-0.003l0.024,0.063l0.061,0.04
	l0.021,0.038l0.008,0.102l0.083,0.16l0.112,0.115l0.089,0.117l0.056,0.033l0.078,0.03l0.145,0.037l0.065,0.017l-0.007,0.026
	l-0.028,0.037l-0.059,0.039l-0.039,0.033l0.004,0.058l0.025,0.065l0.051,0.047l0.049,0.012l0.049,0.013l0.023-0.003l0.029-0.006
	l0.034,0.013l0.025,0.001l0.059,0.001l0.025,0.011l0.046,0.003l0.028,0.008l0.035,0.023l0.028,0.011l0.045-0.003l0.109-0.013
	l0.021,0.036l0.043,0.015l0.049,0.008l0.173,0.1l0.191,0.103l0.02,0.163l0.092,0.176l0.312,0.22l0.137,0.116l0.037,0.1l0.063,0.05
	l0.053,0.106l0.011,0.057l0.057,0.034l-0.001,0.105l0.053,0.111l0.099,0.048l0.007,0.044l-0.041,0.01l0.041,0.061l0.079,0.049
	l0.115-0.007l0.018-0.045l0.024-0.101l0.04-0.02l0.028-0.029l0.067,0.008l0.106-0.022l0.024,0.044l0.034,0.027l0.031,0.021
	l0.021,0.018l0.002,0.024l-0.016,0.049l0.007,0.068l0.034,0.033l0.077,0.109l0.072,0.016l0.038,0.023l0.045,0.055l0.019,0.103
	l0.053,0.041l0.074,0.051l0.032,0.043l0.045,0.076l-0.004,0.068l0.025,0.091l0.146,0.074l0.176,0.01l-0.009,0.09l-0.13,0.095
	l-0.044,0.063l0.055,0.087l0.056,0.021l0.115-0.038l0.013,0.031l0.002,0.075l0.006,0.034l0.02,0.036l0.046,0.057l0.012,0.03
	l-0.005,0.03l-0.018,0.013l-0.019,0.018l-0.012,0.463l0.022,0.012l0.065-0.004l0.026,0.007l0.028,0.024l0.023,0.031l0.013,0.031
	l0.024,0.021l0.106,0.043l0.033,0.021l0.018,0.032l-0.041,0.088l0.108,0.04l0.075-0.011l0.188,0.001l0.045,0.026l0.079,0.313
	l0.035-0.056l0.046,0.002l0.068,0.101v0.123l0.056,0.103l0.146,0.037l0.051,0.05l-0.055,0.058l-0.031,0.09l0.099,0.045l0.024,0.046
	l0.051,0.053l0.062,0.041l0.107,0.03l0.074,0.089l0.04,0.018l0.034,0.002l0.073,0.021l0.037,0.003l0.038-0.006l0.063-0.023
	l0.103-0.022l0.046-0.019l0.017-0.023l-0.009-0.032l0.027-0.089l0.074-0.071l0.099-0.028l0.207,0.105l0.19,0.033l0.285-0.089
	l0.426-0.151l0.121-0.013l0.049,0.021l0.022,0.036l-0.008,0.042l-0.045,0.04l-0.056,0.011l-0.069-0.013l-0.126-0.037l-0.149,0.141
	l-0.058,0.019l-0.042,0.036l-0.011,0.044l0.038,0.04l0.11,0.09l0.013,0.006l0.037,0.021l0.024,0.016l0.082,0.154l0.032-0.004
	l0.015-0.042l0.012-0.085l0.015-0.042l-0.037-0.038l-0.024-0.053l0.012-0.049l0.069-0.029l0.036,0.019l0.037,0.105l0.024,0.032
	l-0.024,0.021l-0.016,0.022l-0.007,0.023l-0.002,0.024l0.015,0.031l0.023-0.005l0.028-0.019l0.025-0.008l0.121,0.025l0.128,0.013
	l0.129,0.006l0.074-0.048l0.084-0.047l0.03-0.057l0.013-0.042l0.071-0.083l0.015-0.04l-0.02-0.067l-0.039-0.009l-0.044,0.015
	l-0.026,0.004l-0.016-0.061l0.158-0.092l0.036-0.075l-0.062-0.256l0.013-0.088l0.028-0.043l0.037-0.036l0.029-0.037l0.007-0.051
	l-0.034-0.235v-0.054l0.028-0.04l0.128-0.098l0.137-0.127l0.041-0.029l0.06-0.03l0.068-0.062l0.103-0.133l0.054-0.018l0.016-0.017
	l-0.033-0.029l-0.017-0.021l0.01-0.021l0.026-0.017l0.065-0.021l0.033-0.021l0.021-0.029l0.005-0.036l0.028-0.067l0.17-0.142
	l0.066-0.078l0.023-0.273l0.45-0.481l-0.028-0.049l-0.106-0.145l-0.021-0.041l0.149-0.129l0.022-0.031l0.025-0.064l0.026-0.038
	l0.072-0.053l0.015-0.003l0,0l0.063-0.013l0.079-0.007l0.076-0.026l0.002-0.001l0,0l0.13,0.183l0.088,0.084l0.06,0.014l0.076-0.017
	l0.146-0.051l0.157-0.006l0.142,0.027l0.131,0.051l0.127,0.065l0.218,0.16l0.174,0.204l0.118,0.228l0.053,0.235l0.029,0.368
	l0.081,0.226l-0.006,0.049l-0.037,0.048l-0.058,0.053l-0.016,0.032l0.151,0.665l0.089,0.197l0.023,0.104l-0.055,0.342l0.095,0.425
	l0.003,0.112l0.054,0.223l0.125,0.221l0.166,0.205l0.18,0.172l0.029,0.018l0.06,0.037l0.123,0.033l0.181,0.049l0.073,0.049
	l0.12,0.122l0.069,0.054l0.488,0.244l0.127,0.125l0.046,0.086l0.015,0.064l0.036,0.038l0.106,0.006l0.372-0.069l0.003,0.001
	l0.062,0.032l0.067,0.006l0.011,0.033l0.053,0.069h0.001l0.07,0.089l-0.006,0.062l-0.25,0.523l-0.021,0.032l-0.134,0.101
	l-0.018,0.025l0.018,0.066l0.031,0.069l0.178,0.257l0.034,0.067l0.019,0.078l0.012,0.129l0.025,0.073l0.056,0.066l0.037,0.027
	l0.015,0.003l0.016-0.009l0.066-0.019l0.087-0.034l0.045-0.024l0.06-0.003l0.063,0.003l0.033,0.007l-0.013,0.17l-0.172,0.068
	l-0.079,0.044l0.012,0.05l-0.01,0.034l-0.096,0.026l-0.199,0.033l0.086,0.095l0.003,0.047l-0.086,0.029l-0.046,0.029l-0.049,0.058
	l-0.04,0.062l-0.011,0.037l0.051,0.049l0.053-0.029l0.042-0.055l0.015-0.03l0.044-0.011l0.114-0.045l0.061-0.017l-0.024,0.033
	l-0.022,0.04l-0.017,0.042l-0.01,0.037v0.044l0.006,0.021l-0.002,0.02l-0.021,0.037l-0.055,0.064l-0.249,0.203l-0.041,0.021
	l-0.028,0.025l-0.009,0.084l-0.016,0.024l-0.03,0.012l-0.05,0.008l-0.082,0.001l-0.016,0.018l0.001,0.053l-0.005,0.038l-0.032,0.065
	l-0.008,0.035l0.011,0.145l-0.007,0.064l-0.05,0.146l-0.01,0.089l0.009,0.087l0.038,0.06l0.07-0.005l0.066-0.072l0.048-0.092
	l0.016-0.07l-0.031-0.119l0.021-0.037l0.089,0.015l-0.02-0.034l-0.015-0.035v-0.035l0.018-0.038l0.061,0.035l0.066,0.022
	l-0.008-0.064l-0.013-0.026l-0.025-0.025l0.03-0.026l0.045,0.037l0.038,0.041l0.031,0.045l0.022,0.056l0.005,0.056l-0.025,0.045
	l-0.037,0.044l-0.037,0.057h0.103l0.1-0.043l0.096-0.026l0.091,0.054l0.046-0.056l0.009-0.024l0.042,0.01l0.02,0.021l0.01,0.07
	l0.014,0.014l0.029-0.009l0.045-0.026l0.063-0.02l0.038-0.003l0.021,0.021l0.002,0.037l-0.004,0.035l-0.014,0.034l-0.026,0.034
	l-0.012-0.013l-0.005-0.002l-0.006,0l-0.014-0.006l-0.018,0.044l0.001,0.04l0.025,0.025l0.051,0.005l0.007,0.022l-0.004,0.046
	l-0.029,0.033l-0.073-0.017l0.086,0.076l0.112,0.032l0.105,0.046l0.064,0.121l0.017,0.121l0.02,0.064l0.029,0.024l0.074,0.008
	l0.063,0.033l0.024,0.046l-0.042,0.048l-0.229-0.023l-0.106-0.042l0.018-0.096l-0.107-0.181l-0.026,0.058l0.036,0.117l-0.018,0.065
	l-0.066-0.037l-0.066-0.068l-0.052-0.078l-0.024-0.072l0.023-0.176l-0.028-0.063h-0.112l0.031,0.056l-0.003,0.047l-0.029,0.041
	l-0.043,0.031l-0.125-0.09h-0.047l-0.008,0.096l-0.017,0.07l-0.042,0.035l-0.022,0.036l0.044,0.07l0.016-0.012l0.026-0.011
	l0.015-0.008l0.01,0.088l0.014,0.04l0.025,0.036l0.02-0.07l0.038-0.092l0.057-0.07l0.073-0.003l-0.049,0.069l-0.031,0.098
	l-0.004,0.099l0.029,0.076l0.029-0.019l0.024-0.026l0.017-0.028l0.012-0.034l0.102,0.099l0.05,0.063l0.024,0.063l-0.01-0.002
	l-0.019,0.005l-0.02,0.012l-0.011,0.017l0.023,0.214l-0.069-0.036l-0.113-0.14l-0.085-0.038l-0.071,0.034l-0.067,0.16l-0.081-0.002
	l0.022,0.068l0.066,0.034l0.084,0.023l0.072,0.032l0.047,0.049l0.024,0.056l0.007,0.063l-0.01,0.205l-0.01,0.039l-0.068,0.103
	l-0.007,0.038l0.002,0.078l-0.021,0.059l-0.052,0.029l-0.095-0.016l0.063,0.081l0.013,0.032l-0.075-0.007l-0.05-0.024l-0.029-0.043
	l-0.014-0.064l-0.021-0.042l-0.075-0.083l-0.014-0.046l0.016-0.05l0.048-0.098l0.005-0.063l-0.009-0.055l-0.02-0.047l-0.03-0.037
	l-0.051-0.029l-0.029,0.03l0.032,0.035l0.011,0.038l-0.012,0.041l-0.056,0.079l-0.004,0.018l-0.011,0.012l-0.055,0.025l-0.084,0.019
	l-0.034-0.03l-0.019-0.143l-0.048-0.15l0.013-0.042l0.035-0.018l0.04-0.012l0.025-0.023l-0.002-0.074l-0.149-0.008l-0.046-0.066
	l-0.064,0.037l-0.019,0.061l0.016,0.138l-0.003,0.064l-0.029,0.125l-0.004,0.053l0.018,0.055l0.102,0.162l0.049,0.164l0.034,0.045
	l-0.127,0.277l-0.105,0.127l-0.022,0.071l0.081,0.022l0.034,0.035l0.03,0.085l0.037,0.159l-0.034,0.412l-0.043,0.039l-0.052-0.017
	l-0.042-0.08l-0.031-0.164l-0.042-0.066l-0.091-0.02l-0.014-0.022l-0.047-0.142l-0.037-0.021l-0.114-0.045l-0.041-0.033
	l-0.024-0.079l0.034-0.06l0.13-0.103l-0.018-0.033l-0.173-0.199l-0.027,0.091l0.047,0.179l-0.058,0.104l-0.051,0.056l-0.033,0.011
	l-0.073,0.008l-0.278-0.007l-0.046-0.009l-0.251-0.129l-0.054-0.02l-0.135-0.028l-0.05-0.036l-0.014-0.025l0.003-0.021l0.029-0.012
	l0.066,0.001l-0.054-0.038l-0.103-0.048l-0.112-0.038l-0.076-0.009l-0.041,0.027l-0.041,0.066l-0.042,0.019l-0.053-0.002
	l-0.038-0.003l-0.034,0.008l-0.038,0.055l-0.035-0.007l-0.008-0.047l0.032-0.073l-0.031-0.037l-0.01-0.028l0.039-0.022l0.053-0.059
	l-0.077-0.067l-0.05-0.075l0.048-0.094l-0.05-0.018l-0.082,0.01l-0.065-0.004l-0.033,0.042l-0.049,0.032l-0.053,0.011l-0.042-0.02
	l0.013-0.05l0.066-0.044l0.06-0.035l-0.021-0.079l-0.036-0.009l-0.061,0.024h-0.059l0.011-0.033l0.04-0.019l0.017-0.037
	l-0.022-0.057l-0.013-0.052l-0.062-0.077l-0.006-0.026l0.028-0.041l0.019-0.082l-0.041-0.031l-0.018-0.028l-0.049-0.033
	l-0.043-0.049l-0.042-0.075l-0.007-0.098v-0.033l0.015-0.083l0.001-0.042l-0.016-0.007l-0.032-0.002l-0.034-0.015l-0.019-0.038
	l0.074-0.163l0.04-0.021l0.081-0.019l0.021-0.023l-0.011-0.041l-0.044-0.013l-0.048-0.005l-0.023-0.012l0.008-0.036l0.024-0.037
	l0.031-0.029l0.028-0.013l0.055-0.043l0.038-0.09l0.01-0.097l-0.028-0.067l-0.028,0.036l-0.063,0.047l-0.02,0.024l-0.007,0.038
	l0.005,0.071l-0.013,0.038l-0.179,0.177l-0.036,0.061l-0.004,0.045l0.01,0.081l-0.017,0.043l-0.026,0.025l-0.152,0.106l-0.021-0.001
	l-0.005,0.002l0.011,0.03l0.021,0.008l0.037,0.008l0.034,0.022l0.01,0.047l0.018-0.034l0.022-0.03l0.03-0.025l0.038,0.047
	l0.063,0.098l-0.007,0.058l-0.058,0.042l0.003,0.023l0.06,0.013l0.021,0.031l-0.005,0.093l-0.013,0.007l-0.024,0.011l-0.02,0.016
	l0.003,0.019l0.028,0.015l0.027-0.01l0.021-0.022l0.012-0.018l0.028-0.003l0.024,0.049l0.005,0.055l-0.015,0.055l-0.036,0.048
	l-0.046,0.027l-0.037-0.008l-0.089-0.06l-0.011,0.026l-0.016,0.024l-0.043-0.012l-0.05,0.024l-0.037,0.044l-0.007,0.055l0.104-0.028
	l0.146,0.033l0.017,0.098l-0.052,0.045l-0.051,0.021l-0.021,0.056l-0.029,0.043l-0.112,0.039l-0.076-0.013l-0.074-0.006
	l-0.166,0.005l-0.074,0.004l-0.109-0.03l-0.105-0.021l-0.093-0.05l-0.078-0.029l-0.046,0.013l-0.073-0.039l-0.132-0.061
	l-0.094-0.055l-0.076-0.02l-0.066-0.031l-0.007-0.069l-0.007-0.086l-0.023-0.063l-0.007,0.177l-0.034-0.005l-0.034-0.01l-0.03,0.004
	l-0.022,0.017l-0.029-0.003l-0.036,0.006l-0.033-0.003l-0.021-0.012l-0.017-0.002l-0.02,0.026l-0.044-0.027l-0.021-0.034
	l-0.012-0.084l-0.018-0.038l-0.029,0.014l-0.036,0.032l-0.036,0.015l-0.092-0.041l-0.042-0.07l-0.007-0.081l0.02-0.078l-0.063,0.028
	l-0.03,0.034l-0.04,0.012l-0.255-0.105l-0.048-0.039l-0.002,0.054l-0.029,0.047l-0.057,0.024l-0.079-0.016l-0.014,0.018
	l-0.041,0.035l0.007-0.036l0.006-0.015l0.014-0.02l-0.053-0.068l-0.035-0.026l-0.05-0.012l0.009,0.071l-0.009,0.214l-0.019,0.069
	l-0.064-0.003l-0.129-0.067l0.002,0.038l0.009,0.036l0.016,0.033l0.021,0.03h-0.116l-0.071-0.042l-0.059-0.06l-0.075-0.053
	l-0.055-0.013l-0.062-0.007l-0.053-0.02l-0.049-0.091l-0.05-0.024l-0.058,0.001l-0.055,0.03l0.045,0.047l0.227,0.334l0.034,0.073
	l0.021,0.027l0.012,0.03l-0.019,0.033l-0.1,0.101l-0.008,0.017l-0.037,0.036l-0.009,0.061l-0.026,0.035l-0.085-0.042l0.026,0.229
	l0.025-0.014l0.064-0.03l0.024-0.015l0.018,0.151l-0.005,0.034l-0.022,0.011l-0.028,0.006l-0.028,0.015l-0.032,0.023l-0.027,0.011
	l-0.016,0.017l-0.002,0.041l0.018,0.052l0.005,0.033l-0.007,0.044l-0.018,0.028l-0.06,0.081l-0.018,0.018l-0.028,0.014l-0.004,0.025
	l0.003,0.03l-0.006,0.029l-0.091,0.105v0.038l0.079,0.024l-0.027,0.042l-0.009,0.047l-0.021,0.041l-0.128,0.044l-0.049,0.042
	l-0.037,0.056l-0.026,0.062l-0.015,0.055l-0.002,0.077l-0.007,0.029l-0.038,0.017l0.002,0.098l-0.024,0.038l-0.098,0.022
	l-0.051,0.041l0.05,0.015l0.044-0.002l0.04-0.015l0.031-0.025l0.048-0.023l0.053,0.01l0.055-0.004l0.039,0.015l0.043-0.005
	l0.011-0.044l0.069,0.007l0.008,0.042l0.032,0.034l0.044-0.02l0.042-0.038l0.016,0.029l-0.018,0.066l0.05,0.069l0.075,0.062
	l0.053,0.083l0.08,0.021l0.021,0.009l-0.028,0.049l-0.019,0.001l-0.015-0.003l-0.028-0.012l-0.005,0.027l-0.006,0.011l-0.012,0.011
	l-0.046,0.022l-0.077-0.054l-0.081-0.004l-0.033-0.041l-0.063-0.01l-0.061,0.015l0.001,0.025l0.021,0.027l0.005,0.025l-0.019,0.016
	l-0.049,0.026l-0.02,0.016l-0.018,0.033l-0.003,0.031l-0.01,0.023l-0.035,0.012h-0.039l-0.07-0.009h-0.042l-0.021,0.018
	l-0.027,0.067l-0.032,0.019l-0.091-0.005l-0.031,0.008l-0.01,0.032l0.009,0.12l-0.024,0.294l0.007,0.015l0.015,0.011l0.012,0.011
	v0.018l-0.013,0.014l-0.034,0.017l-0.008,0.009l-0.015,0.014l-0.078,0.023l-0.024,0.011l-0.009,0.024l-0.007,0.093l-0.087,0.055
	l-0.029,0.027l-0.021,0.025l-0.017,0.025l-0.01,0.022l-0.06-0.03l-0.026-0.044l-0.02-0.045l-0.032-0.033l-0.063-0.016l-0.216-0.002
	l-0.117-0.066l0.003-0.097l0.03-0.111l-0.045-0.111l-0.029,0.072l0.009,0.157l-0.007,0.077l-0.046,0.069l-0.07,0.031l-0.077,0.021
	l-0.065,0.042l-0.058-0.047l-0.507-0.437l-0.009-0.013l-0.012-0.035l-0.016-0.018l-0.019-0.004h-0.05l-0.024-0.008l-0.054-0.049
	l-0.102-0.126l-0.067-0.048l-0.04-0.048l-0.057-0.166l-0.041-0.063l-0.075-0.028l-0.104-0.018l-0.094-0.025l-0.045-0.048
	l-0.027-0.076l-0.055-0.066l-0.183-0.148l-0.161-0.099l-0.058-0.018l-0.026-0.014l0.027-0.038l0.043-0.036l0.02-0.012l0.012-0.028
	l0.006-0.033l-0.001-0.082l-0.026-0.088l-0.002-0.068l-0.013-0.065l-0.022-0.048l-0.046-0.013l-0.051,0.03l-0.051,0.043l-0.05,0.047
	l-0.06,0.006l-0.059-0.027l-0.042-0.081l-0.037-0.076l-0.038-0.05l-0.048-0.081l-0.045-0.058l-0.057-0.062l-0.056-0.091
	l-0.052-0.113l-0.048-0.083l-0.021-0.044l-0.036-0.026l-0.046-0.016l-0.052-0.015l-0.029-0.053l-0.011-0.049l0.017-0.052
	l0.011-0.046l-0.029-0.063l-0.007-0.025l0.01-0.031l0.034-0.044l0.009-0.022l-0.006-0.075l-0.035-0.01l-0.055,0.013h-0.003
	l-0.063-0.006l-0.023-0.023l0.004-0.059l-0.024-0.029l-0.029-0.009l-0.063,0.004l-0.034-0.006l-0.054-0.025l-0.029-0.03
	l-0.016-0.042l-0.021-0.139l-0.022-0.043l-0.053-0.017l-0.096,0.003l-0.089-0.006l-0.032-0.036l0.007-0.052l0.034-0.05l0.035-0.03
	l0.011-0.007l-0.027-0.197l-0.035-0.044l-0.063,0.039l-0.105,0.108l-0.18-0.111l-0.059-0.063l-0.006-0.007l-0.034-0.101
	l-0.016-0.028l-0.031-0.014l-0.032-0.01l-0.021-0.019l-0.006-0.033l0.002-0.029l0.049-0.15l-0.009-0.032l-0.113-0.126l-0.027-0.04
	l-0.014-0.053l0.019-0.038l0.039-0.044l0.024-0.044l-0.028-0.042l-0.045-0.045l-0.025-0.102l-0.029-0.04l-0.046-0.021l-0.019,0.021
	l0.001,0.045l0.013,0.053l-0.068-0.032l-0.027-0.056l-0.02-0.063l-0.049-0.053l-0.113-0.055l-0.056-0.014l-0.037,0.013l-0.037-0.018
	l-0.027-0.025l-0.021-0.031l-0.019-0.034l-0.056,0.016l-0.049-0.029l-0.054-0.044l-0.065-0.033l-0.076,0.058l-0.083-0.07
	l-0.272-0.353l-0.049-0.042l-0.055-0.026l-0.203-0.062l-0.054-0.033l-0.095-0.074l-0.057-0.031l-0.191-0.057l-0.061-0.03
	l-0.22-0.142l-0.095-0.095l-0.011-0.096l0.021,0.007l0.017,0.004l0.016,0.007l0.017,0.02l0.032-0.004l-0.049-0.111l-0.112,0.013
	l-0.133,0.063l-0.108,0.036l-0.06-0.014l-0.199-0.094l-0.207-0.032l-0.13-0.046l-0.062-0.005l-0.055,0.019l-0.057,0.043
	l-0.054,0.004l-0.14-0.102l-0.111-0.039l-0.02-0.052l-0.01-0.119l-0.025-0.033l-0.113-0.095l-0.037-0.048l-0.033,0.05l-0.021,0.052
	l-0.028,0.045l-0.049,0.032l-0.031-0.055l-0.007-0.053l0.012-0.051l0.028-0.052l0.095-0.112l0.03-0.062l-0.043-0.021l-0.116-0.028
	l-0.103-0.176l-0.122-0.028l-0.055-0.025l-0.06-0.065l-0.031-0.069l0.027-0.036l0.097-0.016l0.023-0.021l-0.01-0.041l0.005-0.077
	l0.041-0.067l0.075-0.123l-0.01-0.032l0.059-0.02l0.103-0.085l0.052-0.035l0.002,0.057l0.025,0.033l0.045,0.006l0.062-0.021
	l0.04-0.038l0.027-0.054l0.027-0.107l0.02,0.007l0.044,0.01l0.002-0.058l0.044-0.181l0.035-0.051l0.041,0.069l0.051,0.066
	l0.068,0.055l0.088,0.035v-0.025l0.003-0.031l0.011-0.027l0.039-0.027l-0.013-0.024l-0.034-0.042l0.004-0.032l0.018-0.02
	l0.019-0.016l0.009-0.019l-0.024-0.023l-0.097-0.033l-0.021-0.02l0.016-0.052l0.046-0.082l0.004-0.047l-0.012-0.03l-0.018-0.022
	l-0.006-0.022l0.021-0.029l0.029-0.006l0.031,0.018l0.025,0.025l0.014,0.02l0.019-0.061l0.01-0.066l-0.003-0.132l-0.011-0.031
	l-0.033-0.055l-0.006-0.026l0.007-0.033l0.018-0.028l0.017-0.021l0.009-0.013l-0.005-0.075l-0.029-0.049l-0.036-0.043l-0.026-0.055
	l0.007-0.059l0.023-0.062l0.008-0.061l-0.039-0.052l0.099-0.02l0.04-0.052l0.016-0.134l0.063-0.121l0.009-0.027l-0.019-0.028
	l-0.065-0.029l-0.004-0.016l0.021-0.096l-0.037-0.316l-0.043-0.083l0.034-0.067l0.001-0.068l-0.035-0.052l-0.075-0.012l-0.037-0.028
	l-0.033-0.071l-0.042-0.133l0.075-0.113l-0.021-0.032l-0.035-0.024l-0.048-0.022l0.042-0.043l0.078-0.013l0.08-0.005l0.047-0.018
	l0.004-0.03l-0.016-0.032l-0.038-0.053l0.099-0.001l0.036-0.063l-0.014-0.079l-0.056-0.047l0.021-0.052l0.07,0.04l-0.01-0.143
	l-0.145-0.117l-0.671-0.256l-0.179-0.029l-0.086,0.079l-0.079,0.018l-0.083,0.054l-0.065,0.07l-0.026,0.094l-0.084,0.143
	l-0.07,0.101l-0.095,0.027l-0.087,0.048l-0.275,0.197l-0.081,0.031l-0.021,0.116l-0.057,0.041l-0.065,0.035l-0.368,0.115
	l-0.066,0.005l-0.066-0.035l-0.031-0.063l-0.027-0.151l-0.231-0.517l-0.025-0.341l0.013-0.081l0.045-0.075l-0.034-0.153l0.039-0.121
	l-0.001-0.048l-0.075-0.129l0.002-0.033l0.02-0.04l-0.02-0.029l-0.077-0.037l-0.037-0.028l-0.02-0.033l-0.02-0.251l-0.034-0.086
	l-0.083-0.028l-0.035-0.322l0.023-0.229l0.008-0.069l-0.062-0.115l-0.185-0.025l-0.063-0.021l-0.031-0.068l-0.023-0.078
	l-0.038-0.055l-0.108-0.075l-0.063-0.026l-0.08,0.007l0.033-0.085l-0.004-0.058l-0.04-0.043l-0.123-0.077l-0.104-0.086l-0.08-0.051
	l-0.026-0.023l-0.029-0.02l-0.027-0.007l-0.037,0.022l0.008,0.076l-0.029,0.024l-0.052-0.001l-0.028-0.026l-0.019-0.034
	l-0.023-0.025l-0.04-0.006l-0.036,0.007l-0.034-0.001l-0.036-0.036l-0.021,0.028l-0.015,0.03l-0.005,0.031l0.003,0.033l-0.033,0.004
	l-0.018-0.107l-0.031-0.03l-0.069-0.01l-0.022,0.01l-0.008,0.022l-0.013,0.021l-0.04,0.008l-0.039-0.004l-0.032-0.012l-0.023-0.021
	l-0.068-0.171l-0.014-0.023l-0.082,0.001l-0.07-0.017l-0.025-0.034l0.048-0.047l-0.034-0.043l-0.035,0.034l-0.037,0.022h-0.032
	l-0.017-0.038l0.005-0.038l0.051-0.038l0.011-0.051l-0.014-0.029l-0.031-0.032l-0.029-0.038l-0.01-0.051l0.107-0.18l0.033-0.027
	l0.035-0.101l0.029-0.025l0.045-0.019l0.01-0.03l-0.014-0.033l-0.03-0.026l-0.047-0.01l-0.044,0.003l-0.034-0.004l-0.046-0.077
	l-0.053-0.015l-0.06,0.005l-0.053,0.021l-0.014-0.14l0.013-0.13l-0.039-0.103l-0.163-0.063l-0.162,0.009l-0.173,0.033l-0.154,0.006
	l-0.109-0.073l-0.027,0.004l-0.004,0.058l-0.058,0.025l-0.066-0.023L1263,224.86l-0.062,0.025l-0.044-0.019l-0.033-0.022
	l-0.034,0.009l-0.031,0.045l-0.01,0.036l-0.025,0.026l-0.082,0.02l-0.056,0.003l-0.054-0.006l-0.101-0.025l-0.121-0.036
	l-0.066-0.008l-0.136,0.007l-0.336-0.068l-0.05-0.017l-0.051-0.009l-0.102,0.012l-0.05-0.006l-0.038-0.033l-0.028-0.098l-0.03-0.042
	l-0.005,0.033l-0.014,0.028l-0.022,0.023l-0.031,0.02l-0.021-0.034l-0.051-0.055l-0.016-0.037l0.001-0.045l0.016-0.028l0.115-0.121
	l0.026-0.036L1261.472,224.353z"/></svg>