<?xml version="1.0" encoding="utf-8"?>
<!-- Generator: Adobe Illustrator 15.0.0, SVG Export Plug-In . SVG Version: 6.00 Build 0)  -->
<!DOCTYPE svg PUBLIC "-//W3C//DTD SVG 1.1//EN" "http://www.w3.org/Graphics/SVG/1.1/DTD/svg11.dtd">
<svg version="1.1" id="Ebene_1" xmlns="http://www.w3.org/2000/svg" xmlns:xlink="http://www.w3.org/1999/xlink" x="0px" y="0px"
	 width="1920px" height="1080px" viewBox="0 0 1920 1080" enable-background="new 0 0 1920 1080" xml:space="preserve">

<path fill="#F4E0B6" stroke="#FFFFFF" d="M1172.446,726.73l0.111,0.128l0.372,0.661l0.339,0.818l0.019,0.146l0.022,0.071
	l0.015,0.106l-0.034,0.115l-0.11,0.188l-0.055,0.129l-0.011,0.132l0.118,0.626l-0.004,0.177l0.01,0.065l0.042,0.131l0.008,0.068
	l-0.012,0.189l0.029,0.342l0.021,0.082l0.058,0.158l0.072,0.44l0.004,0.913l0.01,0.053l-0.038,0.045l-0.113,0.447l-0.015,0.125
	l0.008,0.108l0.109,0.356l0.026,0.126l0.011,0.127l-0.001,0.131l0.031,0.23l-0.005,0.111l-0.063,0.072l0.01,0.067l-0.031,0.223
	l-0.002,0.084l0.11,0.692l0.041,0.081l0.109,0.157l0.096,0.165l0.241,0.551l0.151,0.245l0.042,0.088l0.033,0.106l0.046,0.213
	l0.037,0.103l0.826,1.605l0.048,0.124l0.088,0.894l0.028,0.126l0.08,0.222l0.151,0.734l0.157,0.366l0.022,0.132l0.002,0.512
	l-0.033,0.2l0.017,0.269l0.034,0.15l0.248,0.369l0.221,0.461l0.496,0.658l0.077,0.16l0.148,0.489l0.082,0.162l0.098,0.126
	l0.226,0.229l0.091,0.009l0.095,0.065l0.084,0.097l0.059,0.096l0.246,0.585l0.02,0.108l-0.059,0.936l0.246,1.478l0.025,0.258
	l0.497,1.121l0.08,0.143l0.104,0.13l0.482,0.474l0.688,0.93l0.002,0.073l0.007,0.143l-0.079,0.492l0.001,0.053l0.009,0.052
	l0.044,0.084l0.008,0.027l-0.002,0.027l-0.023,0.077l-0.005,0.115l-0.042,0.137l-0.013,0.515l-0.033,1.222l-0.033,0.197
	l-0.004,0.188l-0.012,0.054l-0.077,0.141l0.006,0.035l-0.006,0.176l-0.026,0.062l-0.187,0.217l-0.208,0.174l-0.07,0.081
	l-0.209,0.323l-0.173,0.201l-0.128,0.113l-0.018,0.03l-0.023,0.066l-0.019,0.029l0.009,0.039l-0.009,0.207l-0.055,0.289
	l-0.013,0.274l-0.077,0.323l-0.055,0.133l-0.007,0.052l0.005,0.051l0.052,0.177l0.045,0.278l0.063,0.234l0.008,0.168l0.099,0.487
	l0.005,0.313l0.063,0.304l0.013,0.146l0.021,0.212l0.025,0.105l0.037,0.101l0.035,0.062l0.125,0.175l0.08,0.17l0.032,0.167
	l0.015,0.753v0.022l0.02,0.077l0.035,0.08l-0.018,0.03l-0.032,0.116l-0.049,0.076l-0.012,0.025l-0.012,0.067l0.001,0.141
	l-0.065,0.488l-0.079,0.278l-0.062,0.425l-0.06,0.173l-0.033,0.181l0.003,0.23l0.021,0.141l0.049,0.137l0.088,0.114l0.035,0.035
	l0.022,0.034l0.103,0.265l0.049,0.088l0.07,0.07l0.092,0.046l0.029,0.02l0.043,0.044l0.177,0.245l1.01,1.134l0.431,0.805
	l0.146,0.423l0.039,0.078l0.045,0.076l0.237,0.274l0.147,0.169l0.158,0.26l0.225,0.271l0.171,0.281l0.079,0.072l0.107,0.069
	l0.082,0.114l0.126,0.235l0.099,0.092l0.094,0.026l0.081,0.01l0.062,0.039l0.074,0.122l0.043,0.106l0.048,0.185l0.077,0.558
	l0.096,0.321l0.053,0.275l-0.013,0.541l0.105,0.517l0.046,0.13l-0.015,0.108l0.092,0.28l0.051,0.35l-0.005,0.058l0.01,0.065
	l0.124,0.338l-0.027,0.178l-0.005,0.038l-0.102,0.202l-0.151,0.184l-0.176,0.152l-0.174,0.146l-0.483,0.609l-0.05,0.087l-0.027,0.1
	l0.01,0.125l0.206,0.564l0.007,0.058l-0.018,0.172l0.007,0.044l-0.026,0.039l-0.066,0.129l-0.123,0.173l-0.299,0.569l-0.043,0.113
	l-0.08,0.13l-0.059,0.135l0.021,0.123l0.023,0.08l0.021,0.357l0.026,0.503l-0.026,0.156l-0.143,0.273l0.002,0.074l0.018,0.08
	l-0.077,0.573l0.114,0.878l0.024,0.1l0.007,0.1l-0.025,0.104l-0.137,0.223l-0.149,0.375l-0.095,0.128l-0.155,0.12l-0.064,0.01
	l-0.203-0.009l-0.071,0.015l-0.028-0.002l-0.083-0.042l-0.036-0.01l-0.041,0.019l-0.09,0.062l-0.034-0.007l-0.074-0.031
	l-0.084,0.047l-0.067,0.077l-0.031,0.062l-0.015,0.159l-0.031,0.063l-0.076,0.065l-0.065,0.061l-0.125-0.135l-0.201-0.416
	l-0.055-0.04l-0.055-0.03l-0.051-0.034l-0.044-0.055l-0.023-0.052l-0.027-0.105l-0.025-0.051l-0.106-0.11l-0.104-0.048l-0.116-0.026
	l-0.134-0.051l-0.172-0.162l-0.112-0.088l-0.024-0.04l-0.015-0.092l0.02-0.112l0.113-0.177l0.011-0.091l-0.006-0.104l0.008-0.137
	l-0.007-0.134l-0.053-0.1l-0.053-0.016l-0.233-0.016l-0.169-0.059l-0.16-0.077l-0.081-0.052l-0.021-0.025l-0.004-0.035l-0.032-0.082
	l-0.038-0.066l-0.037-0.053l-0.038-0.031l-0.043-0.008l-0.078,0.058l-0.109,0.228l-0.164,0.176l-0.042,0.123l-0.049,0.259
	l-0.104,0.188l-0.128,0.163l-0.354,0.288l-0.113,0.171l0.009,0.272l0.004,0.018l-0.002,0.017l-0.03,0.099l-0.003,0.143l-0.024,0.059
	l-0.043,0.028l-0.16,0.038l-0.006,0.001l-0.118,0.084l-0.051,0.015l-0.083-0.019l-0.156-0.088l-0.085-0.035l-0.153-0.01
	l-0.098,0.045l-0.205,0.277l-0.029,0.062l0.023,0.065l0.395,0.438l0.053,0.103l0.075,0.236l0.063,0.116l0.214,0.17l0.001,0.06
	l-0.035,0.018l-0.046,0.01l-0.021,0.042l0.021,0.064l0.078,0.081l0.002,0.048l-0.036,0.027l-0.124,0.031l-0.047,0.022l-0.044,0.122
	l0.047,0.252l-0.039,0.048l-0.03,0.037l-0.073,0.007l-0.161-0.046l-0.078,0.009l-0.045,0.037l-0.076,0.179l0.076,0.015l0.049,0.03
	l0.015,0.044l-0.03,0.058l-0.094,0.321l-0.003,0.233l-0.017,0.069l-0.251-0.151l-0.157-0.147l-0.067-0.043l-0.074-0.019h-0.096
	l-0.348,0.061l-0.124-0.009l-0.357-0.07l-0.181-0.008l-0.079-0.022l-0.174-0.125l-0.174-0.077l-0.091-0.049l-0.188-0.063
	l-0.101,0.077l0.007,0.15l0.131,0.156l-0.291,0.015l-0.579-0.199l-0.292-0.045l-0.168-0.053l-0.256-0.183l-0.139-0.059h-0.103
	l-0.05,0.038l-0.035,0.059l-0.058,0.058l-0.073,0.023l-0.118,0.002h-0.047l-0.08,0.014l-0.057,0.132l0.032,0.142l0.053,0.137
	l-0.003,0.113l-0.043,0.1l-0.026,0.108l-0.005,0.114l0.05,0.252l-0.008,0.086l-0.049,0.07l-0.425,0.398l-0.225,0.293l-0.062,0.047
	l-0.136,0.057l0.009,0.094l0.163,0.201l0.056,0.113l0.114,0.51l-0.002,0.088l-0.044,0.064l-0.14,0.109l-0.054,0.059l-0.044,0.066
	l-0.013,0.06l-0.143-0.077l-0.083-0.029l-0.063-0.002l-0.054,0.033l-0.004,0.033l0.238,0.573l0.037,0.273l-0.155,0.763l0.002,0.074
	l-0.119-0.023l-0.121-0.039l-0.239-0.118l-0.336-0.113l-0.197-0.046l-0.144-0.105l-0.465-0.126l-0.092-0.029l-0.026-0.025
	l-0.003-0.045l0.031-0.01l0.116,0.035l0.014-0.026l-0.024-0.07l-0.09-0.094l-0.245-0.091l-0.332-0.067l-0.067-0.046l-0.034-0.052
	l0.106-0.063l0.009-0.151l-0.063-0.119l-0.223-0.131l-0.935-0.234l-0.802-0.143l-0.717-0.138l-0.325-0.011l-0.387-0.073
	l-0.201-0.095l-0.046-0.018l-0.141-0.069l-0.049-0.041l-0.079-0.109l-0.047-0.051l-0.047-0.027l-0.668-0.097l-0.69-0.041
	l-0.246-0.026l-0.177-0.01l-0.039-0.185l-0.377-1.055l-0.046-0.198l0.035-0.182l0.073-0.202l0.043-0.201l0.072-0.187l0.158-0.154
	l0.126-0.168l-0.006-0.202l-0.032-0.201l0.055-0.17l0.258-0.104l0.28,0.038l0.852,0.409l0.146,0.043l0.128-0.025l0.222-0.183
	l0.101-0.045l0.326-0.079l0.087-0.047l0.008-0.012l0.055-0.081l0.039-0.139l0.001-0.151l-0.049-0.132l-0.112-0.084l-0.128,0.001
	l-0.137,0.028l-0.142-0.003l-0.125-0.075l-0.075-0.122l-0.248-0.819l-0.03-0.155l0.076-0.277l-0.02-0.143l-0.172-0.129l-0.247,0.017
	l-0.267,0.065l-0.234,0.016l-0.312-0.054l-0.146-0.004l-0.352,0.041l-0.058-0.007l-0.073-0.02l-0.022-0.015l-0.015-0.032
	l-0.261-0.345l-0.045-0.101l-0.034-0.16l0.024-0.06l0.067-0.032l0.099-0.076l0.055-0.144l-0.081-0.106l-0.157-0.074l-0.664-0.19
	l-0.354-0.154l-0.146-0.047l-0.118,0.022l-0.099,0.122l-0.078,0.254l-0.068,0.062l-0.114-0.103l-0.103-0.219l-0.02-0.042
	l-0.122-0.794l-0.056-0.152l-0.058-0.116l-0.08-0.105l-0.124-0.112l-0.132-0.087l-0.275-0.133l-0.118-0.084l-0.07-0.087
	l-0.183-0.298l-0.103-0.1l-0.329-0.234l-0.04-0.121l0.009-0.009l0.178-0.097l0.297-0.063l0.092-0.002l0.059,0.022l0.052,0.03
	l0.07,0.023l0.261,0.04l0.123-0.003l0.082-0.039l0.041-0.095l0.037-0.25l0.068-0.106l0.142-0.136l0.144-0.186l0.087-0.165
	l0.071,0.003l0.137,0.017l0.322,0.118l0.223,0.021l0.158-0.069l1.521-1.522l-0.138-0.08l-0.09-0.184l-0.072-0.212l-0.077-0.163
	l-0.193-0.19l-0.049-0.08l-0.024-0.097l-0.025-0.193l-0.047-0.1l-0.25,0.017l-0.222-0.104l-0.196-0.183l-0.459-0.525l-0.034-0.079
	l0.062-0.019l0.105,0.032l0.167,0.051l0.104-0.021l0.033-0.071l-0.02-0.064l-0.039-0.058l-0.024-0.048l-0.021-0.082l-0.002-0.047
	l0.007-0.046l0.102-0.304l0.035-0.049l0.225-0.144l0.269-0.026l0.494,0.063l0.033,0.004l0.25-0.048l0.125,0.013l0.147,0.093
	l0.383,0.31l0.123,0.084l0.055,0.021l0.131,0.035l0.045,0.019l0.106,0.104l-0.007,0.007l0.018,0.024l0.019,0.033l0.03,0.02
	l0.105-0.026l0.02,0.031l0.007,0.045l0.01,0.029l0.01,0.05l0.016,0.037l0.036,0.026l0.111,0.029l0.044,0.025l0.043,0.051
	l0.089,0.078l0.063-0.042l0.065-0.131l0.073,0.02l0.204,0.104l0.087,0.033l0.127,0.122l0.043,0.033l0.063,0.019l0.028-0.017
	l0.025-0.009l0.055,0.051l-0.005,0.068l0.005,0.056l0.028,0.058l0.03,0.045l0.021,0.054l0.013,0.053l0.006,0.048l-0.016,0.078
	l0.012,0.062l0.035,0.022l0.061-0.042l0.009-0.09l0.016-0.142l0.045-0.054l0.132-0.045l0.41-0.029l0.116-0.031l0.041-0.042
	l0.046-0.109l0.049-0.038l0.054-0.015l1.051-0.151l0.091-0.038l0.07-0.076l0.113-0.041l0.025-0.015l0.048-0.059l0.036-0.01
	l0.085,0.039l0.029-0.006l0.026-0.059l-0.01-0.054l-0.021-0.054l-0.011-0.064l0.009-0.074l0.066-0.203l0.007-0.064l-0.002-0.134
	l0.013-0.071l0.032-0.063l0.081-0.104l0.021-0.063l-0.013-0.058l-0.066-0.114l-0.008-0.07l0.074-0.583l-0.005-0.078l-0.022-0.063
	l-0.067-0.104l-0.029-0.063l-0.027-0.13l-0.021-0.216l-0.011-0.034l0.02-0.002l0.079,0.01l0.112,0.03l0.128,0.063l0.119,0.084
	l0.198,0.185l0.279,0.175l0.126,0.06l0.154,0.045l0.068,0.032l0.119,0.131l0.063,0.016l0.067-0.003l0.075,0.01l0.134,0.058
	l0.004,0.044l-0.027,0.069l0.048,0.192l-0.056,0.109l-0.002,0.064l0.142,0.197l0.013,0.028l0.129,0.027l0.133-0.023l0.118-0.061
	l0.08-0.079l0.04-0.1l0.028-0.048l0.045-0.026l0.067,0.008l0.082,0.084l0.051,0.013l0.036-0.02l0.157-0.197l0.025-0.024l0.049-0.021
	l0.104,0.004l0.061-0.007l0.037-0.031l-0.001-0.055l-0.026-0.078l-0.038-0.106l0.007-0.067l0.015-0.065v-0.063l-0.1-0.131
	l-0.017-0.064l0.005-0.066l0.028-0.134l0.02-0.057l0.029-0.049l0.178-0.187l0.029,0.003l-0.152-0.143l-0.588-0.119l-0.144-0.165
	l0.024-0.092l0.111-0.156l0.007-0.109l-0.026-0.039l-0.096-0.074l-0.032-0.054l0.007-0.039l0.058-0.077l0.005-0.053l-0.031-0.086
	l-0.172-0.284l-0.043-0.119l-0.031-0.054l-0.055-0.03l-0.062-0.009l-0.043-0.011l-0.025-0.031l-0.012-0.062l-0.045-0.059
	l-0.022-0.052l-0.004-0.052l0.004-0.057l0.369-0.549l0.007-0.01l0.067-0.146l-0.017-0.09l-0.2-0.205l-0.028-0.045l-0.069-0.148
	l-0.284-0.417l-0.052-0.13l0.005-0.103l0.056-0.138l-0.061-0.014l-0.111,0.039l-0.099,0.02l-0.209-0.175l-0.132-0.004l-0.059-0.021
	l0.012-0.065l0.068-0.094l0.025-0.049l0.019-0.062l-0.008-0.072l-0.024-0.069l-0.003-0.063l0.129-0.12l-0.06-0.077l-0.119-0.063
	l-0.11-0.033l-0.05-0.183l-0.085-0.131l-0.019-0.058l0.012-0.089l0.028-0.077l-0.01-0.08l-0.105-0.093l-0.252-0.025l-0.127-0.039
	l-0.1-0.082l-0.029-0.066l0.005-0.056l0.015-0.057l0.002-0.062l-0.014-0.071l-0.02-0.059l-0.066-0.127l-0.114-0.166l-0.042-0.043
	l-0.085-0.047l-0.144-0.04l-0.034-0.01l-0.08-0.045l-0.034-0.044l-0.04-0.106l-0.028-0.046l-0.061-0.053l-0.133-0.083l-0.435-0.333
	l-0.053-0.076l-0.032-0.14l-0.143-0.241l-0.064-0.135l-0.021-0.172l0.009-0.15l-0.029-0.143l-0.137-0.148l-0.129-0.115l-0.096-0.13
	l-0.068-0.145l-0.147-0.575l-0.093-0.19l-0.158-0.134l-0.298-0.191l-0.108-0.035l-0.294-0.038l-0.22-0.097l-0.242-0.02l-0.245,0.016
	l-0.163,0.033l-0.071,0.061l-0.044,0.083l-0.053,0.068l-0.093,0.025l-0.114,0.01l-0.082,0.048l-0.055,0.075l-0.046,0.094
	l-0.154-0.193l-0.195-0.2l-0.216-0.178l-0.214-0.137l-0.224-0.063l-0.243,0.004l-0.216,0.079l-0.135,0.15l-0.072-0.031l-0.065-0.015
	l-0.062,0.007l-0.187,0.076l-0.026,0.036l0.009,0.045l0.016,0.046l-0.003,0.035l-0.044,0.063l-0.024,0.023l-0.047-0.007
	l-0.437-0.167l-0.108-0.152l-0.047-0.163l-0.022-0.446l-0.006-0.122l0.011-0.081l-0.003-0.097l-0.046-0.055l-0.069-0.046
	l-0.067-0.073l-0.019-0.064l0.011-0.146l-0.021-0.068l-0.069-0.054l-0.064,0.02l-0.056,0.029l-0.05-0.022l-0.212-0.43l-0.087-0.136
	l-0.129-0.161l-0.091-0.14l-0.041-0.158l0.027-0.401l-0.04-0.58l0.04-0.194l0.244-0.449l0.032-0.181l-0.036-0.136l-0.084-0.107
	l-0.108-0.095l0.033-0.336l0.217-0.177l0.282-0.113l0.232-0.154l0.05-0.067l0.016-0.04l0.004-0.042l0.181-0.586l-0.025-0.147
	l-0.121-0.314l0.026-0.328l0.114-0.361l0.053-0.338l-0.154-0.26l-0.049-0.064l0.015-0.069l0.037-0.074l0.02-0.08l-0.028-0.086
	l-0.056-0.027l-0.145-0.007l-0.136-0.051l-0.13-0.074l-0.125-0.091l-0.112-0.109l-0.209-0.262l-0.116-0.084l-0.284-0.003
	l-0.128-0.081l-0.104-0.129l-0.192-0.449l-0.08-0.147l-0.232-0.329l-0.058-0.051l-0.072-0.02l-0.065,0.003l-0.055-0.011
	l-0.021-0.027l-0.021-0.029l-0.062,0.019l-0.05-0.013l-0.048-0.022l-0.057-0.011l-0.212,0.042l-0.1,0.042l-0.072,0.077l-0.133,0.176
	l-0.103,0.049l-0.104-0.023l-0.106-0.046l-0.114-0.016l-0.09,0.023l-0.935,0.402l-0.058,0.058l0.008,0.03l0.022,0.179l0.004,0.175
	l-0.01,0.022l-0.04,0.052l-0.018,0.001l-0.069-0.001l-0.026,0.008l-0.026,0.032l-0.031,0.089l-0.022,0.036l-0.078,0.07l-0.042,0.027
	l-0.046,0.022l-0.088,0.064l-0.044,0.093l-0.033,0.1l-0.134,0.18l-0.029,0.243l-0.037,0.09l-0.143,0.127l-0.143,0.083l-0.16,0.048
	l-0.198,0.02l-0.075,0.033l-0.096,0.073l-0.08,0.084l-0.019,0.067l0.015,0.123l-0.067,0.071l-0.081,0.066l-0.029,0.186l-0.065,0.097
	l-0.088,0.081l-0.17,0.077l-0.089,0.074l-0.053,0.021v-0.001l-0.051-0.074l-0.061-0.013l-0.069,0.004l-0.07-0.026l0.084-0.063
	l0.005-0.094l-0.018-0.093l0.02-0.062l0.063-0.049l0.066-0.081l0.042-0.096l-0.007-0.144l0.021-0.038l-0.004-0.037l-0.069-0.05
	l-0.033-0.031l-0.021-0.045l-0.018-0.05l-0.127-0.277l-0.016-0.052l-0.103-0.017l-0.208-0.238l-0.123-0.009l-0.008-0.101
	l-0.04-0.077l-0.063-0.051l-0.075-0.022l-0.015,0.063l-0.151-0.103l-0.15-0.127l0.031-0.164l-0.046-0.151l-0.143-0.254l-0.035-0.134
	l-0.016-0.129l-0.03-0.111l-0.077-0.082l0.041-0.077l0.014-0.105l-0.002-0.109l-0.042-0.243l-0.034-0.1l-0.05-0.058l-0.043-0.03
	l-0.083-0.084l-0.105-0.07l0.008-0.038l0.048-0.052l-0.008-0.109l0.003-0.087l0.012-0.065l0.016-0.054l0.007-0.055l-0.016-0.065
	l-0.074-0.094l-0.02-0.051l0.034-0.046l0.016-0.035l0.035-0.165l0.018-0.042l0.117-0.21l-0.012-0.167l-0.064-0.197l-0.15-0.351
	l0.809-0.447l0.725-0.397l0.197-0.109l0.758-0.42l0.84-0.464l0.745-0.41l0.493-0.273l0.04-0.03l0.161-0.215l0.316-0.117l0.097,0.01
	l0.135,0.053l0.075-0.02l0.021-0.026l0.064-0.126l0.322-0.306l0.034-0.042l-0.007-0.058l-0.034-0.047l-0.024-0.054l0.02-0.075
	l0.008-0.051l0.139-0.026l0.247,0.127l0.139-0.003l0.001,0.115l0.058,0.003l0.118-0.074l0.088,0.013l0.144,0.064l0.083-0.005
	l-0.095-0.123l0.025-0.039l0.163,0.011l-0.039,0.104l-0.022,0.029l0.055-0.006l0.046-0.033l0.034-0.038l0.023-0.013l0.024,0.038
	l0.053,0.13l0.026,0.02l0.269-0.201l0.061-0.061l0.008-0.071l-0.022-0.076l-0.031-0.071l0.016-0.053l0.104,0.043l0.111,0.078
	l0.041,0.05l0.124,0.025l0.023,0.19l0.044,0.15l0.192-0.085l0.094-0.073l0.031-0.05l-0.025-0.16l0.049-0.018l0.318,0.092
	l0.083-0.014l0.074-0.087l0.101,0.07l0.065-0.073l0.031-0.137l0.004-0.119l0.029-0.016l0.082-0.009l-0.015-0.204l0.178-0.016
	l0.048-0.068l0.06-0.067l0.119-0.009l0.039,0.021l0.064,0.074l0.036,0.028l0.033,0.002l0.19-0.017l0.054,0.016l0.046,0.029
	l0.028,0.036l0.028,0.079l0.007,0.037l0.018,0.02l0.06,0.028l0.023-0.008l0.137-0.002l0.004,0.016l0.051-0.042l0.062-0.104
	l0.075-0.093l0.158-0.31l0.187-0.148l0.224-0.068l0.46-0.08l0.467-0.189l0.033,0.016l0.063,0.006l0.07-0.004l0.118-0.041
	l0.044,0.006l0.306,0.179l0.075,0.005l0.148-0.018l0.152,0.028l0.057,0.002l0.05,0.022l0.052,0.079l0.045,0.035l0.054-0.033
	l0.049-0.066l0.034-0.06l0.057,0.082l0.087,0.003l0.101-0.026l0.099-0.007l0.032-0.06l0.057-0.03l0.063-0.003l0.059,0.022
	l0.05,0.055l0.02,0.061l0.012,0.063l0.027,0.058l0.085,0.078l0.318,0.189l0.036-0.49l0.034-0.038l0.118-0.014l0.037-0.057
	l-0.027-0.099l-0.404-0.572l-0.388-0.413l-0.163-0.126l-0.06-0.021h-0.036l-0.032-0.021l-0.103-0.207l-0.014-0.063l0.015-0.161
	l-0.024-0.05l-0.036-0.035l-0.029-0.048l-0.005-0.001l-0.01-0.013l-0.012-0.026l-0.011-0.038l0.003-0.032l0.017-0.02l0.018-0.012
	l0.007-0.011l-0.026-0.086l-0.037-0.046l-0.042-0.039l-0.044-0.067l-0.02-0.071l-0.003-0.158l-0.028-0.145l0.049-0.097l0.102-0.033
	l0.133,0.053l0.105-0.276l0.01-0.084l-0.049-0.036l-0.038-0.01l-0.051-0.754l-0.045-0.665l-0.033-0.469l-0.046-0.661l-0.04-0.618
	l-0.016-0.2l-0.021-0.335l-0.029-0.413l-0.041-0.147l-0.088-0.078l-0.107-0.052l-0.105-0.074l-0.128-0.239l-0.018-0.515
	l-0.063-0.217l-0.093-0.104l-0.101-0.089l-0.091-0.096l-0.061-0.141l-0.007-0.155l0.031-0.354l-0.03-0.133l-0.06-0.139l-0.05-0.411
	l-0.176-0.485l-0.043-0.287l0.043-0.283l0.116-0.252l0.177-0.195l0.101-0.066l0.095-0.043l0.426-0.098l0.093-0.061l0.063-0.104
	l-0.014-0.052l-0.04-0.051l-0.015-0.048l0.062-0.046l0.05-0.011l0.1-0.009l0.047-0.014l0.115-0.09l0.047-0.02l0.065,0.005
	l0.056,0.028l0.05,0.007l0.048-0.059l0.031-0.028l0.065-0.023l0.026-0.02l0.028-0.041l0.026-0.082l0.02-0.042l0.054-0.086
	l0.035-0.035l0.126-0.059l0.056-0.046l0.095-0.126l0.052-0.057l0.185-0.095l0.06-0.048l0.055-0.085l0.018-0.073l0.009-0.077
	l0.033-0.1l0.051-0.065l0.061-0.025l0.139-0.019l0.157-0.106l0.045-0.162l0.024-0.188l0.121-0.208l0.041-0.068l0.04-0.1l0.055-0.08
	l0.112-0.039l0.031,0.015l0.052,0.062l0.032,0.008l0.066-0.026l0.027,0.002l0.248,0.075l0.204-0.006l0.197-0.069l0.368-0.209
	l0.021-0.02l0.041-0.054l0.031-0.02l0.038-0.001l0.071,0.036l0.039,0.003l0.042-0.022l0.076-0.07l0.041-0.017l0.092,0.009
	l0.097,0.047l0.09,0.076l0.073,0.097l0.072,0.067l0.071-0.021l0.071-0.077l0.122-0.198l0.015-0.038l0.03-0.001l0.218,0.031
	l0.052-0.005l0.053-0.038l0.1-0.161l0.129-0.138l0.156-0.091l0.184-0.023l0.126,0.048l0.162,0.185l0.098,0.046l0.106-0.039
	l0.068-0.107l0.033-0.135l0.006-0.123l-0.009-0.063l-0.048-0.182l-0.01-0.089l0.027-0.032l0.047-0.01l0.05-0.024l0.339-0.241
	l0.029-0.009l0.066,0.003l0.031-0.019l0.008-0.027l-0.018-0.086l0.008-0.033l0.048-0.038l0.078-0.036l0.031-0.045l0.034-0.143
	l0.013-0.102l0.058-0.036l0.168,0.049l0.124,0.062l0.358,0.254l0.17,0.158l0.088,0.035L1172.446,726.73z"/></svg>