<?xml version="1.0" encoding="utf-8"?>
<!-- Generator: Adobe Illustrator 15.0.0, SVG Export Plug-In . SVG Version: 6.00 Build 0)  -->
<!DOCTYPE svg PUBLIC "-//W3C//DTD SVG 1.1//EN" "http://www.w3.org/Graphics/SVG/1.1/DTD/svg11.dtd">
<svg version="1.1" id="Ebene_1" xmlns="http://www.w3.org/2000/svg" xmlns:xlink="http://www.w3.org/1999/xlink" x="0px" y="0px"
	 width="1920px" height="1080px" viewBox="0 0 1920 1080" enable-background="new 0 0 1920 1080" xml:space="preserve">

<path fill="#F4E0B6" stroke="#FFFFFF" d="M1174.395,559.687l-0.023,0.033l-0.025,0.089l-0.097,0.613l-0.071,0.123l0,0l0,0
	l-0.27,0.364l-0.535,0.716l-0.535,0.713l-0.537,0.713l-0.452,0.597l-0.086,0.115l-0.45,0.603l-0.14,0.186l-0.59,0.789l-0.592,0.785
	l-0.501,0.663l-0.093,0.122l0.724,0.133l0.725,0.132l0.011,0.003l0.716,0.127l0.729,0.132l0.018,0.004l0.019,0.005l0.018,0.004
	l0.019,0.003l0.64,0.143l0.642,0.141l0.643,0.139l0.643,0.14l0.291,0.062l0.002,0.003v0.001l-0.002,0.003l-0.011,0.029l-0.133,0.295
	l-0.219,0.485l-0.196,0.438l-0.027,0.113l0.008,0.094l0.076,0.287l0.092,0.352l0.085,0.322l0.113,0.436l-0.022,0.109l-0.313,0.346
	l-0.356,0.393l-0.379,0.42l-0.384,0.422l-0.237,0.261l-0.232,0.252l-0.055,0.106l-0.016,0.133l0.044,0.418l0.035,0.347l0.048,0.47
	l0.049,0.484l-0.097,0.373l-0.146,0.564l-0.134,0.514l-0.139,0.526l-0.058,0.09l-0.084,0.066l-0.372,0.178l-0.414,0.199
	l-0.203,0.096l-0.424,0.202l-0.531,0.252l-0.498,0.235l-0.557,0.264l-0.426,0.199l-0.396,0.186l0,0l0.021-0.059l-0.216-0.342
	l-0.045-0.109l-0.037-0.196l-0.044-0.055l-0.114-0.02l-0.043,0.031l-0.012-0.012l-0.007-0.008l-0.008-0.003l-0.014,0.011
	l-0.057-0.106l-0.033-0.094l-0.008-0.098l-0.034-0.11l-0.13-0.213l-0.04-0.106l-0.136-0.495l-0.039-0.082l-0.156-0.222l-0.064-0.138
	l-0.01-0.039l-0.005-0.039l-0.01-0.04l-0.03-0.044l-0.065-0.168l-0.009-0.294l-0.037-0.156l-0.082-0.113l-0.223-0.174l-0.072-0.104
	l-0.022-0.077l-0.105-0.208l-0.014-0.058l-0.006-0.051l-0.011-0.052l-0.029-0.055l-0.045-0.045l-0.098-0.04l-0.042-0.025
	l-0.063-0.087l-0.052-0.184l-0.046-0.097l-0.183-0.532l-0.083-0.496l-0.001-0.001l-0.037-0.103l-0.052-0.1l-0.018-0.049
	l-0.012-0.058l0.004-0.045l0.019-0.084l-0.006-0.046l-0.047-0.088l-0.06-0.077l-0.051-0.089l-0.019-0.107l0.011-0.063l0.026-0.14
	l-0.013-0.088l-0.081-0.112l-0.057-0.12l-0.053-0.328l0.098-0.048l0.056-0.033l0.023-0.028l0.037-0.109l0.007-0.039l-0.02-0.02
	l-0.03-0.013l-0.032-0.026l-0.021-0.005l-0.016-0.008l-0.004-0.028l0.015-0.112l-0.005-0.03l-0.065-0.058l-0.074-0.004l-0.139,0.039
	h-0.067l-0.207-0.026l-0.011,0.092l0.001,0.027l-0.087-0.086l-0.024-0.113l-0.011-0.106l-0.051-0.08l-0.004-0.001l0.066-0.031
	l0.036-0.268l0.058-0.043l0.041,0.042l0.06,0.153l0.038,0.037l0.032-0.015l0.02-0.043l0.016-0.084l0.002-0.048l-0.018-0.022
	l-0.025-0.02l-0.024-0.029l-0.213-0.467l-0.084-0.094l-0.151-0.117l-0.351-0.634l-0.046-0.124l-0.064-0.077l-0.114,0.016
	l-0.205-0.146l-0.02-0.025l0.001-0.069l-0.283-0.23l-0.014-0.035l0.012-0.025l0.019-0.021l0.001-0.025l-0.019-0.031l-0.047-0.026
	l-0.027-0.025l-0.037-0.048l-0.033-0.032l-0.095-0.06l-0.125-0.16l-0.028-0.074l0.021-0.078l-0.063-0.021l-0.029-0.043l-0.011-0.123
	l-0.033-0.012l-0.014-0.019l0.002-0.026l0.016-0.029l-0.02-0.026l-0.044-0.034l-0.028-0.066l-0.082-0.196l-0.041,0.029l-0.009-0.022
	l-0.001-0.02l0.004-0.019l0.01-0.02l-0.055-0.023l-0.062-0.059l-0.049-0.07l-0.017-0.051l-0.065-0.033l-0.076-0.108l-0.041-0.022
	l-0.019-0.024l0.022-0.016l0.019,0.023l0.019-0.014l-0.029-0.028l-0.028-0.021l-0.029-0.013l-0.025-0.006l-0.015-0.006l-0.044-0.029
	l0.025-0.026l0.006-0.02l-0.013-0.013l-0.033-0.006l-0.016-0.021l0.023-0.018l-0.018-0.014l-0.006,0.001l-0.007,0.008l-0.011-0.002
	l0.022-0.058l-0.037-0.011l0.015-0.023l0.01-0.027l-0.02-0.026l-0.015,0.007l-0.013,0.002l-0.012-0.002h-0.018l-0.011-0.027
	l-0.007-0.032l0.005-0.032l0.021-0.027l-0.017-0.023l-0.051-0.007l-0.017-0.013l-0.045-0.016l-0.014,0.009l-0.014,0.014
	l-0.019-0.023l0.042-0.03l-0.025-0.018l-0.064-0.067l0.036,0.013l-0.013-0.049l-0.003-0.018l0.014,0.009l0.009,0.007l0.002-0.004
	l-0.002-0.028l-0.049-0.032l-0.076-0.085l-0.041-0.02l-0.019-0.025l0.021-0.016l-0.017-0.022l-0.036,0.004l-0.031-0.018l-0.02-0.029
	l-0.003-0.018l0.016-0.024l0.009-0.042l0.003-0.093l0.026-0.081h0.001l0.078-0.044l0.03-0.06l0.035-0.161l0.092-0.225l0.042-0.05
	v-0.002l0.012-0.022l0.016-0.017l0.017-0.009h0.021l0,0l0,0v0.002l0.053,0.014l0.382-0.159l0.042-0.005l0.09,0.015l0.02-0.006
	l0.038-0.029l0.017-0.002l0.021,0.02l0.013,0.027l0.002,0.021l-0.013,0.007l0.053,0.015l0.045,0.005l0.039-0.012l0.038-0.04
	l0.075-0.046l0.044,0.029l0.035,0.068l0.052,0.064l0.071,0.038l0.289,0.106l0.048,0.029l0.011,0.015l0.014-0.005l0.038-0.026
	l0.044-0.029l0.101-0.097l0.022-0.013l0.04-0.01l0.02-0.011l0.01-0.019l0.013-0.055l0.013-0.017l0.044-0.007l0.173,0.026
	l0.295-0.009l0.452,0.055l0.063-0.007l0.074-0.026l0.185-0.109l0.071-0.004l0.122-0.069l0.453-0.255l0.172,0.003l0.03-0.07
	l0.067-0.046l0.232-0.093l0.043-0.03l0.03-0.041l0.241-0.688l0.239-0.642l0,0h0.001v-0.002l0.177-0.459l0.271-0.712l0.125-0.329
	l0.146-0.383l0.269-0.714l0.267-0.713l0.197-0.532l0,0l0.275-0.718l0.132-0.352l0.334-0.884l0.386-1.007l0.528,0.391l0.477,0.354
	l0.395,0.291l0.526,0.391l0.545,0.402l0.777,0.572l-0.178,0.253l-0.002,0.003v0.004l0.004,0.004l0.01,0.002l0.543,0.389l0.063,0.035
	l0.044-0.007l0.453-0.597l0.091-0.012l0.129,0.073l0.249,0.187l0.011,0.169l-0.126,0.585L1174.395,559.687z"/></svg>