<?xml version="1.0" encoding="utf-8"?>
<!-- Generator: Adobe Illustrator 15.0.0, SVG Export Plug-In . SVG Version: 6.00 Build 0)  -->
<!DOCTYPE svg PUBLIC "-//W3C//DTD SVG 1.1//EN" "http://www.w3.org/Graphics/SVG/1.1/DTD/svg11.dtd">
<svg version="1.1" id="Ebene_1" xmlns="http://www.w3.org/2000/svg" xmlns:xlink="http://www.w3.org/1999/xlink" x="0px" y="0px"
	 width="1920px" height="1080px" viewBox="0 0 1920 1080" enable-background="new 0 0 1920 1080" xml:space="preserve">

<path fill="#F4E0B6" stroke="#FFFFFF" d="M733.257,709.235l-0.138,0.062l0.03-0.094l0.083-0.102l0.096-0.075l0.094-0.021
	l0.074-0.047l0.025-0.011l0.044,0.015l0.13,0.083l0.178,0.143l-0.016,0.02l-0.347,0.072L733.257,709.235z M731.578,699.785
	l0.012,0.019l0.028,0.013l0.211,0.189l0.014,0.05l0.015,0.109l0.19,0.587l-0.006-0.236l-0.064-0.251l-0.109-0.234l-0.243-0.326
	l-0.233-0.528l-0.175-0.302l-0.007-0.074l0.016-0.163l0.042-0.059l0.108,0.038l0.052,0.074l0.08,0.221l0.143,0.154l0.05,0.112
	l0.069,0.21l0.182,0.348l0.286,0.416l0.263,0.625l0.51,0.963l0.146,0.366l0.029,0.101l0.015,0.132l0.107,0.374l0.208,1.08l0.12,0.32
	l0.021,0.28l0.025,0.229l-0.02,0.309l0.013,0.158l0.031-0.024l0.019-0.146l0.035-0.05l0.057,0.037l0.086,0.1l0.046,0.139
	l0.038,0.136l0.021,0.141l0.009,0.162l0.006,0.22l0.033,0.215l0.012,0.149l0.147,0.576l0.002,0.197l-0.051,0.184l-0.123,0.138
	l0.048-0.02l-0.129,0.202l-0.296,0.66l-0.338,0.487l-0.093,0.052l-0.138,0.032l-0.101,0.025l-0.11,0.056l-0.097,0.074l-0.08,0.087
	l-0.12,0.18l-0.253,0.248l-0.062,0.103l-0.157,0.337l-0.035,0.048l-0.071,0.041l-0.038,0.05l-0.447,0.906l-0.079,0.097l-0.041,0.051
	l-0.526,0.32l0.011,0.024l0.002,0.023l0.205-0.067l0.06-0.007l0.023-0.014l0.026-0.022l0.025-0.006l0.044,0.062l0.034,0.026
	l0.021,0.01v0.002l0.053,0.023l-0.017-0.049l0.173-0.164l0.348-0.659l0.15-0.189l0.92-0.685l0.205-0.118l0.222-0.042l0.217,0.051
	l0.178,0.112l0.136,0.15l0.181,0.305l0.041,0.14l0.014,0.025l0.004,0.025l0.019,0.056l0.014,0.021l0.013,0.02l0.028-0.012
	l0.044-0.052l0.044,0.007l0.346,0.261l0.195,0.303l0.045,0.132l0.074,0.185l0.072,0.279l0.067,0.165l0.108,0.391l0.06,0.241
	l0.002,0.099l0.06,0.085l0.039,0.168l0.136,0.375l0.075,0.209l0.048,0.145l0.023,0.106l0.028,0.114l0.034,0.155l-0.032,0.303
	l-0.043,0.44l0.013,0.099l-0.035,0.108v0.052l0.068-0.042l0.031-0.044l0.034-0.053l0.042-0.087l0.091-0.041l0.057-0.005l0.027-0.013
	l0.02,0.008l0.083,0.057l0.073,0.09l0.053,0.079l0.063,0.102l0.092,0.171l0.037,0.065l0.095,0.203l0.104,0.252l0.155,0.632
	l0.017,0.209l-0.004,0.233l-0.062,0.234l-0.048,0.135l-0.015,0.069l-0.001,0.066l-0.012,0.05l-0.023,0.061l-0.012-0.146
	l-0.017-0.054l-0.01,0.231l-0.008,0.087l-0.052,0.113l-0.033,0.09l-0.077,0.193l-0.159,0.143l-0.066,0.086l-0.075,0.071l-0.049,0.05
	L736,718.112l-0.104,0.102l-0.069,0.116l0.007,0.259l-0.143,0.278l-0.13,0.137l-0.105,0.075l-0.105,0.09l-0.407,0.259l-0.018,0.037
	l-0.092,0.086l-0.055,0.076l-0.059,0.109l-0.076,0.113l-0.085,0.059l-0.338,0.138l-0.063,0.035l-0.043,0.05l-0.006,0.06l0.04,0.022
	l0.078,0.004l0.038,0.037l0.029,0.015l0.007,0.022l-0.169,0.372l-0.012,0.045l0.009,0.042l0.032,0.035l0.042,0.016l0.04-0.007
	l0.029-0.028l-0.016-0.088l0.002-0.064l0.031-0.047l0.05-0.005l0.052,0.024l0.036,0.041l0.004,0.043l-0.002,0.013l-0.012,0.106
	l0.046,0.296l-0.018,0.125l-0.058,0.062l-0.082,0.032l-0.094,0.007l-0.085-0.003l0.027-0.12l-0.012-0.074l-0.046-0.054l-0.078-0.046
	l-0.063,0.003l-0.065,0.056l-0.102,0.136l-0.151,0.142l-0.042,0.054l-0.039,0.067l-0.009,0.068l0.079,0.266l-0.06,0.006
	l-0.034-0.023l-0.026-0.039l-0.034-0.03l-0.068-0.023l-0.047-0.004l-0.043,0.004l-0.059-0.006l-0.129-0.026l-0.371-0.154
	l-0.087-0.014l-0.061-0.026l-0.021-0.034l-0.032-0.114l-0.016-0.031l-0.117-0.056l-0.112-0.037l-0.235-0.024l-0.13-0.188
	l-0.172-0.081l-0.19,0.003l-0.186,0.07l-0.139,0.111l-0.075,0.021l-0.117-0.042l-0.049-0.045l-0.03-0.049l-0.036-0.038l-0.064-0.016
	l-0.051,0.02l-0.178,0.128l-0.102,0.056l-0.132,0.058l-0.129,0.082l-0.117,0.16l-0.002,0.093l0.052,0.085l0.045,0.101l-0.047,0.253
	l0.031,0.247l-0.008,0.115l-0.054,0.098l-0.082,0.072l-0.146,0.092l-0.202,0.232l-0.148,0.108l-0.197,0.191l-0.118,0.158
	l-0.077,0.047l-0.084,0.039l-0.084,0.058l-0.065,0.087l-0.027,0.094l-0.015,0.094l-0.031,0.095l-0.075,0.131l-0.081,0.089
	l-0.093,0.063l-0.62,0.259l-0.118,0.078l-0.063,0.108l-0.055,0.262l-0.165,0.49l-0.048,0.214l0.027,0.226l0.158,0.447l0.024,0.145
	l0.032,0.529l-0.024,0.3l-0.031,0.114l-0.106,0.254l-0.03,0.129l0.002,0.13l0.047,0.1l0.165,0.234l0.108,0.229l-0.003,0.049
	l-0.024,0.108l-0.003,0.101l-0.005,0.021l-0.004,0.022l0.007,0.038l0.016,0.024l0.045,0.034l0.001,0.022l0.012,0.02l0.063,0.119
	l0.025,0.144l-0.054,0.094l-0.146,0.122l-0.017,0.036l-0.023,0.072l-0.02,0.035l-0.07,0.086l-0.024,0.043l-0.019,0.063l-0.011,0.075
	l0.001,0.036l0.011,0.037l0.029,0.04l0.112,0.103l0.051,0.096v0.001l0.095,0.175l0.041,0.044l0.045,0.017l0.096-0.084l0.051,0.046
	l0.038,0.074l0.015,0.04l0.035,0.021l0.032,0.028l0.02,0.032l-0.003,0.033l0.003,0.034l0.045-0.004l0.05-0.02l0.02-0.012
	l0.147,0.031l0.054-0.03l0.042-0.102l0.107,0.155l0.099,0.113l0.133,0.044l0.208-0.057l-0.021,0.345l-0.022,0.084l-0.102,0.187
	l-0.023,0.031l-0.07,0.046l-0.011,0.053l0.006,0.061l-0.016,0.075l-0.037,0.063l-0.078,0.099l-0.036,0.066l-0.019,0.065
	l-0.013,0.156l-0.044,0.059l-0.05,0.027l-0.026,0.031l0.029,0.073l0.042,0.034l0.053,0.009l0.055-0.01l0.047-0.017l0.001,0.021
	l-0.002,0.006l0.002,0.004l0.01,0.019l-0.146,0.123l-0.007,0.123l0.037,0.134l-0.016,0.146l-0.016,0.045l-0.012,0.083l-0.014,0.045
	l-0.026,0.014l-0.062-0.041l-0.023,0.012l-0.024,0.071l-0.01,0.056l-0.019,0.047l-0.047,0.036l-0.072,0.052l0.038,0.073l0.142,0.104
	l-0.018,0.094l-0.086,0.051l-0.104,0.029l-0.068,0.031l-0.077,0.322l-0.009,0.066l0.025,0.045l-0.01,0.061l-0.005,0.063l0.043,0.056
	l0.048,0.011h0.116l0.06,0.019l0.014,0.055l-0.174,0.155l-0.021,0.124l0.021-0.005l0.168,0.059l0.032,0.051l-0.04,0.055
	l-0.064,0.054l-0.044,0.046l-0.011,0.085l0.046,0.221l-0.004,0.127l-0.077,0.235l0.021,0.054l0.126-0.012l-0.003,0.088l-0.044,0.061
	l-0.057,0.061l-0.041,0.097l-0.002,0.063l0.037,0.229l-0.012,0.045l-0.113,0.177l0.004,0.068l0.077,0.01l0.134-0.03l0.013,0.072
	l-0.035,0.058l-0.052,0.05l-0.035,0.049l-0.022,0.085l-0.002,0.062l0.035,0.131l-0.004,0.067l-0.036,0.054l-0.067,0.063
	l-0.013,0.122l0.08,0.269l-0.008,0.154l-0.099,0.203l-0.004,0.062l0.03,0.051l0.095,0.082l0.028,0.051l0.006,0.143l-0.072,0.274
	l-0.023,0.145l-0.046,0.188l0.078,1.025l0.096,0.135l0.446,0.267l0.122,0.21l0.003,0.064l0.014,0.057l0.025,0.051l0.079,0.094
	l0.021,0.063l0.002,0.071l-0.016,0.075l-0.261-0.022l-0.188,0.019l-0.076-0.035l-0.05-0.081l-0.035-0.104l-0.046-0.1l-0.083-0.063
	l-0.096-0.005l-0.088,0.023l-0.086,0.006l-0.092-0.056l-0.083-0.073l-0.07-0.017l-0.289,0.081h-0.071l-0.063-0.038l-0.295-0.255
	l-0.048-0.059l-0.038-0.118l-0.005-0.071l-0.024-0.052l-0.099-0.058l-0.164-0.067l-0.074-0.043l-0.073-0.068l-0.083-0.148
	l-0.042-0.136l0.001-0.148l0.048-0.179l-0.074-0.218l-0.275-0.018l-0.537,0.082l-0.083-0.074l-0.105-0.222l-0.106-0.078
	l-0.124-0.012l-0.104,0.039l-0.1,0.057l-0.111,0.04l-0.126,0.007l-0.079-0.008l-0.069,0.025l-0.294,0.313l-0.098,0.074l-0.535,0.305
	l-0.2,0.051l-0.247-0.057l-0.144-0.075l-0.346-0.31l-0.159-0.104l-0.169-0.036l-0.469-0.008l-0.213,0.028l-0.093-0.01l-0.075-0.049
	l-0.104-0.147l-0.066-0.055l-0.047,0.025l-0.039,0.094l-0.057,0.188l-0.063,0.092l-0.08,0.085l-0.171,0.139l-0.127,0.067
	l-0.213-0.064l-0.213-0.133l-0.125-0.133l-0.008-0.066l0.026-0.143l-0.008-0.076l-0.053-0.094l-0.052-0.018l-0.059,0.011
	l-0.07-0.011l-0.084-0.055l-0.09-0.077l-0.082-0.093l-0.055-0.094l-0.012-0.062v-0.118l-0.013-0.023l-0.074,0.014l-0.068,0.058
	l-0.066,0.068l-0.067,0.051l-0.058,0.01l-0.132-0.001l-0.051,0.017l-0.034,0.053l-0.032,0.137l-0.029,0.052l-0.176,0.033
	l-0.064-0.022l-0.368-0.12l-0.023,0.014l-0.097,0.054l-0.027,0.134l-0.023,0.273l-0.03,0.136l-0.065,0.139l-0.079,0.083
	l-0.282,0.198l-0.039-0.02l-0.022-0.047l-0.029-0.037l0.007-0.011l-0.007-0.034l-0.014-0.039l-0.015-0.023l-0.025-0.003
	l-0.085,0.022l-0.037-0.002l-0.441-0.323l-0.074-0.032l-0.077,0.02l-0.239,0.154l-0.123,0.058l-0.126,0.028l-0.138-0.01
	l-0.105-0.027l-0.086-0.039l-0.075-0.064l-0.067-0.103l-0.06-0.183l0.02-0.142l0.037-0.138l-0.004-0.178l-0.043-0.133l-0.063-0.116
	l-0.019-0.028l-0.136-0.189l-0.681-0.604l-0.234-0.286l-0.055-0.103l-0.009-0.126l0.038-0.327l-0.007-0.083l-0.053-0.107
	l0.029-0.108l0.043-0.112l-0.011-0.116l-0.037-0.03l-0.109-0.022l-0.047-0.048l-0.004-0.036l0.012-0.106v-0.042l-0.015-0.028
	l-0.054-0.041l-0.015-0.023l-0.012-0.083l0.01-0.249l-0.013-0.081l-0.072-0.22l-0.015-0.167l0.002-0.328l-0.045-0.151l-0.078-0.092
	l-0.088-0.034l-0.093-0.018l-0.095-0.047l-0.044-0.046l-0.032-0.056l-0.021-0.064l-0.033-0.187l0.016-0.051l0.134-0.078l0.209-0.171
	l0.031-0.073l-0.008-0.014l-0.034-0.007l-0.048-0.051l-0.128-0.179l-0.051-0.034l-0.113-0.013l-0.053-0.033l-0.01-0.084l0.036-0.128
	l0.056-0.127l0.047-0.086l0.049-0.055l0.111-0.075l0.051-0.047l0.03-0.047l0.063-0.153l0.032-0.043l0.073-0.077l0.027-0.043
	l0.016-0.07l0.009-0.145l0.031-0.077l0.043-0.05l0.101-0.069l0.042-0.046l0.027-0.059l0.043-0.188l0.102-0.209l0.134-0.199
	l0.089-0.193l-0.03-0.19l-0.034-0.036l-0.087-0.054l-0.037-0.033l-0.037-0.068l-0.064-0.225l-0.123-0.216l-0.047-0.124l0.007-0.132
	l0.033-0.047l0.093-0.064l0.03-0.062l0.021-0.064l0.056-0.121l0.022-0.064l0.052-0.434l0.037-0.113l0.036-0.068l0.015-0.045
	l0.009-0.113l-0.006-0.032l-0.045-0.061l-0.012-0.033l0.012-0.016l0.057-0.055l0.017-0.028l0.03-0.417l0.038-0.115l0.484-0.872
	l0.321-0.394l0.07-0.108l0.143-0.32l0.091-0.124l0.11-0.104l0.24-0.168l0.036-0.008l0.036,0.002l0.036-0.001l0.032-0.028
	l0.015-0.039l-0.004-0.077l0.011-0.036l0.022-0.007l0.062,0.021l0.021-0.014l0.009-0.041l-0.012-0.072l0.004-0.044l0.037-0.068
	l0.044-0.029l0.05-0.016l0.054-0.032l0.187-0.21l0.047-0.042l0.233-0.167l0.139-0.153l0.018,0.004l0.029,0.014l0.035,0.009
	l0.036-0.013l0.023-0.035l0.008-0.087l0.013-0.039l0.152-0.248l-0.095-0.011l0.062-0.089l0.189-0.178l0.033-0.157l-0.023-0.156
	l-0.008-0.157l0.081-0.157l0.187-0.084l0.444,0.054l0.266-0.093l0.126,0.005l0.06-0.016l0.057-0.046l0.027-0.045l0.019-0.051
	l0.035-0.063l0.104-0.113l0.092-0.035l0.231,0.006l0.128-0.032l0.052-0.067l0.026-0.1l0.048-0.127l0.082-0.093l0.129-0.088
	l0.134-0.054l0.103,0.006l0.047,0.019l0.038-0.012l0.027-0.037l0.019-0.058l-0.011-0.062l-0.041-0.054l-0.126-0.106l-0.045-0.022
	l-0.016-0.038l0.073-0.134l-0.003-0.042l-0.013-0.041l0.006-0.172l-0.066-0.252v-0.107l0.077-0.116l0.093-0.062l0.052-0.068
	l-0.05-0.14l-0.153-0.181l-0.04-0.105l0.019-0.17l0.02-0.063l0.023-0.046l0.06-0.087l0.027-0.025l0.071-0.039l0.027-0.029
	l0.008-0.04l-0.015-0.085l0.005-0.029l0.097-0.071l0.247-0.102l0.092-0.11l0.02-0.036l0.028-0.051l-0.008-0.026l-0.048-0.035
	l-0.041-0.049l-0.017-0.066l-0.007-0.069l-0.013-0.063l-0.171-0.318l-0.011-0.126l-0.06,0.028l-0.044-0.01l-0.079-0.084l-0.02-0.014
	l-0.048-0.027l-0.015-0.018l-0.001-0.044l0.046-0.06l-0.008-0.029l-0.057-0.033l-0.111,0.002l-0.043-0.019l-0.011-0.039
	l-0.012-0.136l-0.024-0.052l-0.038-0.035l-0.049-0.032l-0.052-0.01l-0.041,0.032l-0.043,0.021l-0.05-0.042l-0.082-0.102
	l-0.094-0.033l-0.08-0.016l-0.039-0.042l0.026-0.109l-0.004-0.052l-0.033-0.056l-0.046-0.029l-0.045,0.029l-0.041,0.053
	l-0.038,0.009l-0.04-0.024l-0.045-0.042l-0.048-0.082l-0.009-0.105l0.028-0.109l0.066-0.091l0.194-0.081l0.041,0.013l0.089,0.049
	l0.048,0.006l0.066-0.024l0.04-0.04l0.032-0.051l0.042-0.052l0.054-0.051l0.238-0.146l0.081-0.063l0.073-0.075l0.061-0.093
	l0.096-0.238l0.181-0.197l0.171-0.307l0.11-0.136l0.081-0.076l0.064-0.088l0.106-0.199l0.24-0.27l0.069-0.153l-0.085-0.142
	l-0.126-0.239l-0.048-0.132l-0.019-0.107l-0.003-0.021l0.057-0.459l-0.007-0.081l-0.24-0.027l-0.029-0.102l0.022-0.145l-0.047-0.052
	l-0.211-0.048l-0.106,0.001l-0.284,0.109l-0.117,0.021l-0.098-0.052l-0.152-0.188l-0.094-0.045l-0.05,0.014l-0.103,0.071
	l-0.063,0.013l-0.031-0.021l-0.015-0.044l-0.012-0.053l-0.019-0.044l-0.077-0.07l-0.267-0.101l-0.059-0.043l-0.035-0.054
	l-0.028-0.059l-0.038-0.058l-0.046-0.042l-0.249-0.167l-0.1-0.049l-0.221-0.062l-0.113-0.616l-0.106-0.616l-0.105-0.615
	l-0.105-0.613l-0.105-0.612l-0.105-0.612l-0.104-0.609l-0.103-0.609l-0.044-0.259l0.034-0.246l0.074-0.029l0.194-0.013l0.095-0.022
	l0.401-0.261l0.14-0.131l0.077-0.049l0.076-0.004l0.16,0.051l0.085,0.014l0.07-0.006l0.077-0.043l0.115-0.103l0.085-0.025
	l0.064,0.022l0.059,0.044l0.057,0.011l0.057-0.072l0.037-0.067l0.123-0.178l0.018-0.055l-0.005-0.024l-0.009-0.021l0.006-0.039
	l-0.002-0.05l-0.047-0.097l0-0.059l0.042-0.158l0.022-0.061l0.154-0.226l0.058-0.059l0.07-0.037l0.031-0.038l0.024-0.041
	l0.017-0.043l0.009-0.05l-0.007-0.101l0.038-0.172l0.005-0.094l-0.027-0.108l-0.041-0.072l-0.014-0.073l0.044-0.107l0.122-0.154
	l0.16-0.15l0.177-0.13l0.229-0.104l0.07-0.034l0.09,0.028l0.089,0.062l0.065,0.074l0.087-0.068l0.083,0.067l0.075,0.084l0.115-0.025
	l0.181,0.139l0.097,0.035l0.034-0.007l0.191-0.077l0.019-0.017l0.023-0.04l0.015-0.052l-0.006-0.094l0.02-0.062l0.036-0.004
	l0.052,0.035l0.08,0.084l0.016,0.04l0.012,0.052l0.022,0.055l0.042,0.047l0.042,0.018l0.112,0.029l0.055,0.022l0.073,0.076
	l0.096,0.207l0.05,0.062l0.111,0.015l0.113-0.045l0.228-0.136l0.104-0.025l0.102,0.004l0.353,0.088l0.752-0.086l0.132,0.033
	l0.046,0.091l0.168-0.226l0.079-0.064l0.098-0.026l0.101-0.013l0.09-0.023L725.62,704l0.077-0.064l0.063-0.076l0.04-0.087
	l0.008-0.097l-0.026-0.089l-0.099-0.179l-0.001-0.006l-0.018-0.094l-0.034-0.062l-0.054-0.035l-0.076-0.028l-0.06-0.038
	l-0.033-0.053l-0.027-0.059l-0.041-0.054l-0.11-0.063l-0.111-0.012l-0.109,0.038l-0.197,0.143l-0.056-0.029l-0.157-0.441
	l-0.018-0.078l0.014-0.184l0.075-0.148l0.122-0.104l0.161-0.051l0.037-0.023l0.029-0.031l0.021-0.037l0.013-0.048l-0.003-0.087
	l0.023-0.165l0.003-0.08l-0.017-0.045l-0.03-0.039l-0.021-0.044l0.007-0.059l0.024-0.04l0.021-0.028l0.014-0.031v-0.046
	l-0.034-0.078l-0.051-0.051l-0.04-0.054l0.009-0.263l0.012-0.086l0.035-0.077l0.127-0.095l0.23,0.038l0.115-0.058l0.125-0.093
	l0.077-0.043l0.04-0.009l0.055,0.046l0.059-0.011l0.048-0.055l0.028-0.078l0.133-0.096l0.029-0.055l0.034-0.1l0.025-0.043
	l0.044-0.032l0.164-0.077l0.179-0.136l0.093-0.031l0.114,0.017l0.355,0.209l0.197,0.084l0.15-0.032l0.093-0.094l0.144-0.045
	l0.289-0.046l0.026-0.009l0.095-0.03l0.084-0.054l0.084-0.037l0.251,0.022l0.11-0.03l0.109-0.042l0.125-0.026l0.108,0.019
	l0.16,0.111l0.095,0.047l0.096-0.009l0.087-0.062l0.137-0.177l0.086-0.046l0.035-0.055l0.019-0.062l0.035-0.07l0.071-0.059
	l0.158-0.038l0.074-0.03h0.095l0.24,0.062l0.09,0.042l0.105,0.017l0.124-0.039l0.108-0.077l0.056-0.098l-0.008-0.409l-0.151-0.813
	l-0.036-0.58l0,0l0.062,0.09l0.086,0.181l0.061,0.259l0.027,0.558l0.068,0.264l0.084,0.139l0.174,0.179l0.075,0.121l0.133,0.323
	l0.083,0.145l0.111,0.1v0.098l0.003,0.014L731.578,699.785z"/></svg>