<?xml version="1.0" encoding="utf-8"?>
<!-- Generator: Adobe Illustrator 15.0.0, SVG Export Plug-In . SVG Version: 6.00 Build 0)  -->
<!DOCTYPE svg PUBLIC "-//W3C//DTD SVG 1.1//EN" "http://www.w3.org/Graphics/SVG/1.1/DTD/svg11.dtd">
<svg version="1.1" id="Ebene_1" xmlns="http://www.w3.org/2000/svg" xmlns:xlink="http://www.w3.org/1999/xlink" x="0px" y="0px"
	 width="1920px" height="1080px" viewBox="0 0 1920 1080" enable-background="new 0 0 1920 1080" xml:space="preserve">

<path fill="#F4E0B6" stroke="#FFFFFF" d="M986.43,542.133l0.025-0.002l0.033-0.008l0.029,0.015l-0.022,0.038l-0.021,0.012
	l-0.264,0.096l-0.039-0.014l-0.058-0.022l0.001-0.049l0.046-0.042l0.065-0.025l0.081-0.01L986.43,542.133z M984.461,540.749
	l0.03,0.024l0.02-0.004l0.04,0.001l0.018,0.032l-0.019,0.041l-0.059,0.04l-0.129,0.063l-0.121,0.017l-0.029,0.031l-0.069,0.013
	l-0.016-0.039l0.049-0.074l0.165-0.118l0.029-0.028h0.066L984.461,540.749z M985.596,534.55l0.041-0.001l0.081-0.018l0.066,0.005
	l0.092,0.027l0.031,0.036l-0.024,0.038l0.008,0.035l0.085,0.034l0.01-0.006l0.014,0.006l0.002,0.039l-0.06,0.02l-0.428-0.151
	l-0.122-0.067l0.028-0.046l0.081-0.004L985.596,534.55z M985.845,534.042l-0.111,0.036l-0.071-0.059l-0.021-0.074l-0.023-0.037
	l-0.008-0.028l0.026-0.051l0.035-0.026l0.047-0.011l0.046,0.007l0.035,0.025l0.101,0.122L985.845,534.042z M984.261,530.078
	l0.089,0.135l-0.068,0.002l0.014,0.042l0.006,0.039l-0.007,0.036l-0.016,0.027l0.005,0.038l0.037-0.021l0.036-0.012l0.034,0.003
	l0.031,0.026l0.005,0.035l-0.021,0.042l-0.012,0.081l0.004,0.09l0.022,0.068l-0.064,0.064l-0.067-0.031l-0.075-0.07l-0.085-0.059
	l-0.043-0.002l-0.046,0.01l-0.037-0.008l-0.021-0.05l-0.004-0.075l0.003-0.059l-0.011-0.047l-0.043-0.044l-0.072-0.018l-0.249,0.059
	l-0.093-0.009l-0.175-0.052l-0.09,0.001l-0.005-0.036l0.086-0.005l0.071-0.021l0.051-0.054l0.026-0.103l0.029,0.029l0.029,0.009
	l0.028-0.011l0.026-0.029l0.084,0.078l0.083-0.024l0.076-0.061l0.065-0.037h0.295L984.261,530.078z M988.394,524.985l-0.135,0.046
	l-0.071-0.001l-0.061-0.035l-0.004-0.032l0.004-0.022l0.003-0.001l-0.004-0.007l-0.015-0.039l0.044-0.034l0.017-0.007l-0.008-0.012
	l-0.013-0.013l-0.008-0.009l0.024-0.03l0.022-0.007l0.021,0.011l0.021,0.022l0.055,0.02l0.044,0.024l0.035,0.044L988.394,524.985z
	 M992.478,523.185l0.169,0.058l0.123,0.012l0.153,0.048l0.074,0.042l0.066-0.033l0.058,0.075l0.008,0.106l-0.084,0.058l-0.087,0.021
	l-0.099,0.048l-0.089,0.066l-0.091,0.106l-0.095,0.057l-0.082,0.028l-0.036,0.041l-0.108,0.187l-0.034,0.086l-0.025,0.097
	l-0.003,0.022l-0.058,0.024l-0.022,0.033l-0.019,0.038l-0.021,0.028l-0.198,0.04l-0.034,0.03l-0.025,0.036l-0.067,0.134l0.021,0.044
	l-0.008,0.008l-0.016,0.007l-0.007,0.036l0.041,0.13l0.003,0.042l-0.017,0.036l-0.003,0.007l-0.06,0.027l-0.021,0.033l-0.001,0.061
	l0.035,0.128l0.01,0.054l-0.015,0.111l-0.034,0.093l-0.188,0.278l-0.008,0.07l0.015,0.127l0.018,0.037l0.021,0.016l0.002,0.011
	l-0.04,0.019l-0.034,0.001l-0.065-0.027l-0.093,0.033l-0.115-0.022l-0.052,0.034l-0.095,0.108l-0.101,0.064l-0.109,0.013
	l-0.115-0.046l-0.105-0.068h-0.045l-0.093,0.108l-0.148,0.081l0.06,0.038l0.022,0.009l-0.013,0.078l0.035,0.051l0.059,0.029
	l0.059,0.012l0.03,0.014l0.043,0.063l0.029,0.025l0.028-0.001l0.044-0.037l0.024-0.008l0.048,0.021l0.118,0.08l0.054,0.015
	l0.05-0.027l0.045-0.037l0.035,0.006l0.026,0.099v0.001l0.001,0.002l-0.128,0.048l-0.275,0.298l-0.117,0.052l-0.129,0.001
	l-0.255-0.04l-0.056,0.073l-0.052,0.093l-0.028,0.077l-0.013,0.022l-0.032,0.033l-0.072,0.047l-0.166,0.056l-0.056,0.034
	l-0.016,0.009l0.047,0.033l0.017,0.04l0.014,0.041l0.038,0.04l0.092,0.075l0.167,0.172l0.09,0.069l0.089,0.035l0.096-0.004
	l0.095,0.155l0.055,0.071l0.066,0.055l0.03,0.008l0.026,0.008l0.132,0.011l0.055,0.031l0.034,0.08l0.051,0.223l0.056,0.076
	l0.07,0.033l0.184,0.012l0.191-0.023l0.06,0.006l0.263,0.148l0.028,0.031l0.014,0.044l0.018,0.042l0.043,0.022l0.361,0.055
	l0.067-0.018l0.117-0.106l0.083,0.001l-0.029,0.047l0.013,0.006l0.032-0.007l0.028,0.006l0.03,0.042l0.011,0.022l0.016,0.003
	l0.047-0.014l0.166,0.039l0.032-0.006l0.021-0.003l-0.101-0.137l-0.006-0.034l0.02-0.028l0.09-0.06l0.013,0.012l-0.003,0.037
	l0.003,0.045l0.011,0.057l0.005,0.046l0.016,0.02l0.04-0.024l0.025-0.033l0.016-0.046l-0.001-0.051l-0.022-0.05l0.058-0.034
	l-0.008-0.026l-0.035-0.022l-0.019-0.019l0.009-0.052l0.016-0.035l0.022-0.027l0.031-0.028l0.171-0.054l0.062-0.046l-0.035-0.081
	l0.034-0.061l-0.131-0.083l0.007-0.072l-0.117-0.042l-0.017-0.053l0.015-0.005l0.024,0.006l0.015-0.022h0.004l0.017-0.048
	l-0.001-0.003l-0.01-0.007l-0.018-0.024l-0.014-0.031l0.001-0.023l0.009-0.006l0.011-0.007l0.059,0.006l0.027-0.002l0.093-0.08
	l0.115-0.237l0.081-0.092l0.1-0.014l0.117,0.043l0.227,0.141l0.029,0.033l0.045,0.083l0.029,0.012h0.038l0.024,0.02l0.045,0.076
	l0.055,0.091l0.019,0.073l-0.017,0.054l-0.052,0.031l0.125,0.047l0.033,0.028l0.022,0.042l0.021,0.048l0.028,0.05l0.066,0.077
	l0.076,0.063l0.077,0.048l0.079,0.037h0.038l0.022-0.028l0.017-0.034l0.032-0.021l0.039,0.002l0.038,0.016l0.076,0.048l0.058,0.048
	l0.031,0.026l0.035,0.089l-0.014,0.093l-0.057,0.091l0.046,0.056l0.005,0.058l-0.027,0.122l0.056,0.033l0.104,0.092l0.05,0.02
	l0.016-0.011l0.015-0.028l0.012-0.023l0.014-0.019l0.024-0.007l0.053,0.017l0.026,0.001l0.258-0.115l0.089-0.01l0.003,0.008
	l0.018,0.021l0.022,0.021l0.024,0.013l0.022-0.002l0.076-0.034l0.075-0.018l0.017-0.02l0.006-0.043l-0.011-0.041l-0.012-0.039
	l-0.003-0.032l0.031-0.069l0.026,0.001l0.031,0.033l0.043,0.023l0.041-0.012l0.041-0.026l0.048-0.009l0.054,0.033l0,0l0.236,0.166
	l0.055,0.021l0.026,0.013l0.06,0.068l0.022,0.014h0.069l0.029,0.007l0.027,0.015l0.077,0.078v0.063l-0.083,0.124l-0.051,0.023
	l-0.086-0.019l-0.084-0.04l-0.051-0.031l-0.044,0.012l-0.242-0.073l-0.174-0.008l0.007,0.038l0.044,0.021l-0.011,0.048l-0.028,0.07
	l-0.005,0.084l0.011,0.15l0.014,0.089l0.036,0.087l0.089,0.084l0.117,0.043l0.244,0.01l0.008,0.038l-0.018,0.091l0.013,0.089
	l0.047,0.075l0.082,0.046l-0.054,0.075l0.009,0.135l0.033,0.13l0.056,0.219l0.03,0.072l0.034,0.07l0.033,0.05l0.037,0.025
	l0.055,0.026l0.039,0.02l0.079,0.118l0.099,0.047l0.106,0.037l0.072,0.036l0.034,0.043l0.036,0.064l0.021,0.074l-0.007,0.071
	l-0.04,0.085l-0.009,0.034v0.041l-0.017,0.043l-0.02,0.094l-0.022,0.041l-0.034-0.049l-0.058-0.002l-0.063,0.025l-0.045,0.042
	l0.227,0.076l0.025,0.053l0.022,0.058l0.037,0.034l-0.008,0.017l-0.015,0.038l-0.008,0.017l0.057,0.021l0.136-0.004l0.065,0.03
	l-0.019,0.093l-0.04,0.005l-0.052-0.031l-0.051-0.02l-0.015-0.01l-0.05-0.045l-0.015-0.01l-0.029,0.008l-0.053,0.03l-0.022,0.007
	l-0.163,0.154l0.001,0.054l0.029,0.04l0.091,0.068l0.08,0.083l0.049,0.031l0.097,0.011l0.038,0.023l0.025,0.003l0.043,0.014
	l0.008,0.041l-0.009,0.042l-0.007,0.021l0.018,0.111l0.018,0.067l0.033,0.073l0.043,0.049l0.002,0.001l0.046,0.039l0.029,0.053
	l-0.006,0.091l0.056,0.056l0.152,0.205l-0.002,0.02l-0.001,0.004h-0.004l-0.009,0.01l0.031,0.08l0.018,0.122l0.005,0.119
	l-0.012,0.077l0.002,0.081l0.057,0.073l0.164,0.13l0.019,0.037l-0.039,0.021l-0.015,0.024l-0.015,0.096l-0.013,0.021l-0.03,0.038
	l-0.065,0.247l0.032,0.035l-0.117,0.136l-0.029,0.049l-0.022,0.076l-0.033,0.242l0.041,0.109l-0.007,0.024l-0.033,0.127
	l-0.106,0.266v0.094l0.018,0.074l0.061,0.137l0.023,0.076l0.031,0.213l-0.026,0.09l-0.145,0.321l-0.047,0.073l-0.05,0.032
	l-0.039,0.071l-0.052,0.133l-0.018,0.08l0.015,0.091l0.022,0.085l0.007,0.067l-0.029-0.036l-0.031-0.02l-0.032-0.009l-0.188,0.031
	l-0.073-0.014l0.003-0.09l-0.029,0.013l-0.025,0.017l-0.024,0.021l-0.02,0.026l0.005,0.031l0.054,0.013l0.053,0.034l0.049,0.052
	l0.037,0.063l-0.012,0.053l0.107,0.013l0.038,0.038l0.028,0.051l0.032-0.048l0.057-0.129l0.006,0.031l-0.037,0.109l0.088,0.108
	l0.2,0.14l-0.055,0.224l-0.032,0.059l-0.028,0.034l-0.021,0.011l-0.033-0.003l-0.048-0.026l0.002-0.025l0.021-0.026l0.019-0.062
	l-0.01-0.022l-0.038-0.001l-0.02,0.013l-0.021,0.041l-0.035,0.035l-0.004,0.01l-0.009,0.007l-0.145,0.013l-0.005-0.029l0.066-0.007
	l-0.052-0.032l-0.034,0.004l-0.05,0.041l-0.154,0.045l-0.127,0.088l-0.06-0.001l-0.102-0.077l-0.067-0.024l-0.26-0.048l-0.229,0.054
	l-0.069-0.01l-0.005-0.037l0.046-0.025l0.04-0.046l0.023-0.066l-0.008-0.077l-0.031,0.055l-0.047,0.058l-0.061,0.031l-0.071-0.022
	l-0.018,0.034l0.012,0.039l0.007,0.015l0.004,0.016l-0.003,0.038l0.032-0.026l0.01-0.016l0.02-0.001l0.003,0.073l-0.005,0.029
	l-0.02,0.035h0.024l0.022-0.004l0.006,0.035l-0.011,0.003h-0.023l-0.012,0.001l0.031,0.032l-0.217,0.157l-0.029,0.035L996,538.985
	l-0.038,0.045l-0.063-0.025l0.02-0.064l0.035-0.037l0.038-0.028l0.031-0.041l-0.009-0.049l-0.094-0.196l-0.025-0.033l-0.042-0.042
	l-0.046-0.038l-0.039-0.016l-0.043-0.028l-0.077-0.151l-0.051-0.05l0.02,0.058l0.018,0.053l0.01,0.025l0.011,0.049l0.015,0.022
	l0.062,0.079l0.02,0.049l-0.021,0.126l0.017,0.047l0.083-0.008l0.007,0.034l-0.046,0.045l-0.076,0.13l-0.051,0.044l-0.071,0.024
	l-0.151,0.016l-0.068,0.023l0.01-0.057l0.074-0.125l-0.079-0.024l-0.043-0.003l-0.047,0.008l0.007,0.031l0.021,0.014l0.012,0.014
	l0.011,0.017l0.016,0.02l-0.036-0.002l-0.048-0.02l-0.027-0.002l-0.039,0.015l-0.018,0.032l-0.01,0.035l-0.017,0.028l-0.062,0.032
	l-0.063,0.006l-0.133-0.019l-0.635,0.115l-0.212,0.131l-0.121,0.037l-0.014,0.014l-0.009,0.027l-0.014,0.025l-0.033,0.008
	l-0.026-0.017l-0.021-0.035l-0.016-0.031l-0.014-0.016l-0.056,0.021l-0.058,0.048l-0.029,0.07l0.026,0.082l0.026-0.041l0.052-0.011
	l0.063,0.01l0.108,0.034l0.025,0.004l0.01,0.02l-0.01,0.063l-0.095,0.08l0.014,0.151l-0.006,0.035l-0.027,0.013l-0.032,0.008
	l-0.024,0.022l-0.059,0.041l-0.183-0.004l-0.065,0.038l-0.017,0.071l0.01,0.051l-0.016,0.026l-0.368-0.015l-0.014-0.021
	l-0.014-0.045l-0.022-0.045l-0.043-0.018l-0.003,0.015l-0.004,0.01l0.017,0.119l-0.002,0.043l-0.032,0.069l-0.042,0.056
	l-0.051,0.038l-0.072,0.008l0.115,0.077l0.044,0.011l-0.028,0.053l-0.073,0.037l-0.137,0.038l-0.167,0.084l-0.04,0.066l0.075,0.063
	l-0.052,0.034l-0.249,0.067l-0.123,0.057l-0.213,0.034l-0.097-0.001l-0.038,0.005l-0.034-0.001l-0.02-0.017l0.004-0.035l0.02-0.028
	l0.026-0.018l0.031-0.013l-0.012-0.017l-0.023-0.045l0.048-0.013l0.046-0.022l0.041-0.032l0.036-0.049l-0.023-0.008l-0.02-0.011
	l-0.023-0.009l-0.032,0.001l0.014-0.067l0.015-0.022l0.024-0.019l-0.023-0.042l-0.024-0.01l-0.023,0.018l-0.023,0.041l-0.05-0.025
	l-0.072-0.01l-0.14,0.016l-0.005-0.031l-0.034-0.023l-0.057,0.017l-0.059,0.031l-0.061,0.022l-0.143,0.001l-0.068,0.013
	l-0.064,0.041l0.12,0.031l0.147,0.01l0.094,0.052l-0.035,0.163l0.126-0.02l0.041,0.008l0.005,0.031l-0.023,0.001l0.007,0.038
	l0.033,0.02l0.018,0.007l-0.05,0.016l-0.02,0.011l-0.02,0.017l0.119-0.008l-0.045,0.088l-0.009,0.02l0.009,0.027l0.02,0.023
	l0.012,0.026l-0.01,0.041l-0.094,0.122l-0.029,0.056l-0.085,0.053l-0.124,0.037l-0.039,0.032l-0.035,0.059l-0.03-0.055l-0.056-0.038
	l-0.059-0.017l-0.039,0.017l0.056,0.032l0.026,0.057l-0.007,0.056l-0.047,0.032l-0.041-0.1l-0.08-0.032l-0.158,0.009l0.004,0.03
	l0.038,0.018l0.072,0.002l0.039,0.009l0.026-0.035l0.02-0.007l0.021,0.038l-0.001,0.029l-0.021,0.023l-0.026,0.017l-0.021,0.008
	l-0.034,0.121l-0.004,0.032l0.013,0.055l0.028,0.074l0.015,0.058l-0.05-0.033l-0.064-0.097l-0.055-0.032h-0.058l-0.163,0.055
	l-0.418-0.012l0.057,0.047l0.061,0.015l0.127-0.008l0.006,0.036l-0.021,0.017l-0.019,0.021l0.075,0.026l-0.033,0.032l-0.016,0.039
	l0.003,0.045l0.025,0.058l-0.134-0.007l-0.026,0.022l-0.028-0.018l-0.03-0.031l-0.03-0.021l-0.128,0.009l-0.039-0.006l-0.027-0.011
	l-0.023-0.002l-0.019,0.025l-0.076-0.023l-0.04,0.062l-0.023,0.088l-0.023,0.061l-0.116,0.045l-0.019,0.011l-0.007,0.055
	l-0.032-0.01l-0.035-0.033l-0.013-0.022l-0.025-0.007l-0.076-0.044l-0.041-0.008l-0.04,0.007l-0.047,0.029l-0.187,0.049
	l-0.047-0.011l-0.085-0.038l-0.046-0.009l0.006,0.037l0.017,0.007l0.032,0.022l-0.018,0.058l-0.037,0.047l-0.049,0.031l-0.053,0.011
	l-0.093-0.015l-0.026,0.01l0.018,0.049l0.005,0.032l-0.05,0.004l-0.02,0.033l-0.012,0.043l-0.022,0.032l-0.038,0.007l-0.034-0.013
	l-0.033-0.007l-0.038,0.022l-0.008-0.035l-0.011-0.024l-0.012-0.02l-0.012-0.026l-0.087,0.061l-0.002,0.045l-0.019,0.008h-0.027
	l-0.027,0.021l-0.034,0.036l-0.047,0.019l-0.113,0.008l0.037-0.026l0.028-0.029l0.021-0.036l0.016-0.052l-0.046,0.034l-0.038,0.019
	l-0.017-0.016l0.022-0.071l0.03-0.046l0.078-0.058l0.038-0.039l-0.013-0.012l-0.004-0.003l-0.004-0.005l-0.012-0.017l-0.025,0.027
	l-0.102,0.067l-0.011,0.029l-0.027,0.038l-0.064,0.062l-0.049-0.049l-0.003-0.048l0.016-0.056l0.004-0.074l-0.03-0.03l-0.061-0.023
	l-0.064-0.006l-0.044,0.022l0.038,0.06l-0.093,0.047l-0.242,0.064l-0.01,0.021l0.002,0.049l-0.01,0.017h-0.063l-0.023,0.005
	l-0.059,0.062l-0.038,0.018l-0.06,0.002l-0.013-0.051l-0.05-0.053l-0.054-0.021l-0.018,0.044l-0.169,0.166l0.026,0.022l0.01,0.006
	l0.017,0.004l-0.226,0.116L986.75,543l-0.03,0.012l-0.09,0.089l-0.028-0.035l-0.02,0.038l-0.004-0.064l0.003-0.024l0.01-0.022
	l-0.005-0.03l-0.032-0.009l-0.017-0.01l-0.032-0.048l0.074-0.023l0.058-0.046l0.108-0.119l0.059-0.042l0.119-0.037l0.071-0.037
	l0.056-0.05l0.132-0.165l0.059-0.049l0.119-0.061l0.066-0.046l-0.163-0.006l-0.634,0.345l-0.216,0.026l0.135-0.094l0.031-0.014
	l0.03-0.023l0.019-0.05l0.025-0.049l0.131-0.05l0.401-0.233l0.037-0.067l0.113-0.02l0.12-0.069l0.124-0.034l0.098-0.047
	l-0.006-0.082l0.014-0.025l0.011-0.03l0.014-0.016l-0.005-0.03l-0.055-0.021l-0.049,0.032l-0.056,0.025l-0.089-0.054l-0.03,0.005
	l-0.016-0.006l-0.005-0.02l-0.003-0.064l-0.006-0.02l-0.026-0.02l-0.032-0.02l-0.037-0.017l-0.037-0.011l0.024,0.066l0.003,0.046
	l0.007,0.044l0.047,0.052l-0.068,0.021l-0.043,0.032l-0.084,0.096l-0.063,0.043l-0.07,0.025l-0.227,0.033l-0.114,0.053l-0.435,0.079
	l-0.138,0.066l-0.046,0.039l-0.005,0.013l0.003,0.02l-0.001,0.02l-0.009,0.017l-0.018,0.015l-0.213,0.075l-0.077,0.064l-0.041-0.003
	l-0.073-0.022l-0.035-0.004l-0.16,0.025l-0.076,0.036l-0.053,0.061l-0.029-0.038l0.024-0.019l0.004-0.029l-0.004-0.03l0.009-0.027
	l0.02-0.015l0.232-0.072l0.049-0.032l-0.002-0.022l-0.006-0.004l-0.008,0.002l-0.012-0.005l0.005-0.064l-0.033-0.035l-0.054-0.011
	l-0.054,0.007l0.036-0.065l0.074-0.018l0.145,0.003l0.073-0.032l0.145-0.151l-0.005-0.037l-0.144,0.007l0.047-0.094l0.099-0.081
	l0.114-0.061l0.089-0.023l-0.007,0.023l-0.013,0.052l-0.014,0.029l0.061-0.016l0.055-0.027l0.033-0.054l-0.004-0.084l0.049,0.026
	l0.063,0.006l0.133-0.01l-0.005-0.035l-0.027-0.003l-0.074-0.026l-0.006-0.031l0.045-0.029l0.075-0.098l0.064-0.038l0.031-0.069
	l0.016-0.022l0.026-0.008l0.093,0.002l0.108-0.038l0.189-0.115l0.105-0.038l-0.005-0.04l-0.249,0.043l-0.349,0.145l-0.061,0.04
	l-0.024,0.034l-0.018,0.033l-0.115,0.006l-0.051,0.019l0.026,0.036l-0.097,0.065l-0.037,0.012l0.004-0.025l0.002-0.058l0.003-0.025
	l-0.05,0.003l-0.025,0.021l-0.016,0.029l-0.02,0.021l-0.039,0.016l-0.084,0.017l-0.039,0.015l-0.138,0.116l-0.077,0.036
	l-0.084-0.033l-0.062,0.069l-0.079,0.07l-0.086,0.054l-0.083,0.029l0.011-0.067l-0.353-0.125l0.13-0.045l0.015-0.123l-0.077-0.126
	l-0.151-0.053l-0.036,0.029l-0.072,0.124l-0.037,0.029l-0.039,0.021l-0.097,0.097l-0.05,0.033l-0.029-0.064l0.022-0.149
	l-0.031-0.066l-0.054-0.008l-0.069,0.01l-0.048-0.007l0.018-0.058l-0.005-0.024l-0.009-0.007h-0.01l-0.006-0.003l0.005-0.018
	l0.006-0.014l0.005-0.013v-0.025h-0.013l-0.024,0.003h-0.013l-0.003-0.035l0.114-0.019l0.279-0.106l0.061-0.001l0.026-0.018
	l0.007-0.035l-0.008-0.033l-0.014-0.016l-0.054-0.025l-0.038-0.055l-0.042-0.049l-0.068-0.006l-0.004-0.031l0.038-0.025l0.082-0.031
	l0.04-0.024l-0.037-0.071l0.068-0.038l0.096-0.024l0.082-0.059l0.21-0.104l0.324-0.08l0.131-0.081l0.051-0.175l0.027-0.001
	l0.012,0.09l0.038,0.039l0.05,0.007l0.049-0.004l-0.017-0.046l0.03-0.301l0.115,0.052h0.11l0.254-0.043l-0.026-0.02l-0.035-0.032
	l-0.021-0.014l0.11-0.074l-0.686,0.066l0.06,0.102l-0.013,0.059l-0.014,0.024l-0.031-0.081l-0.039-0.032l-0.05-0.02l-0.052-0.01
	l-0.105-0.001l-0.455,0.126l-0.077,0.05l-0.043-0.028l-0.041-0.048l-0.04-0.028l-0.035,0.015l-0.019,0.031l-0.024,0.015
	l-0.102-0.078l-0.039-0.001l-0.095,0.032l0.004,0.032l0.035-0.003l0.03,0.005l0.063,0.025l0.004,0.032l-0.092-0.01l-0.173-0.046
	l-0.082,0.003l0.008,0.035l0.013,0.015l0.038,0.014l-0.075,0.006l-0.132,0.064l-0.072,0.016l-0.089-0.025l-0.031-0.06l-0.02-0.087
	l-0.043-0.1l0.027-0.017l0.059-0.056l-0.004-0.032l-0.043-0.039l0.035-0.046l0.069-0.041l0.064-0.021l-0.017,0.07l0.086,0.054
	l0.046,0.014l0.032-0.021l0.004-0.041l-0.017-0.035l-0.006-0.036l0.034-0.048l-0.039-0.022l-0.015-0.005l0.021-0.08l0.038-0.022
	h0.053l0.065-0.017l0.035-0.04l0.062-0.113l0.037-0.024l0.35-0.109l0.061,0.039l-0.016,0.193l0.012,0.031l0.223-0.041l0.096-0.059
	l0.079-0.095l0.017-0.108l-0.097-0.094l0.121-0.008l0.042,0.018l-0.009,0.053l0.026,0.073l0.014,0.079l0.023,0.063l0.054,0.024
	l0.058,0.007l0.113,0.039l0.121,0.019l0.145-0.006l0.046-0.028l0.06-0.087l0.038-0.021l0.044,0.013l-0.021,0.018l-0.019,0.02
	l0.062,0.027l0.247-0.042l-0.062-0.048l-0.052-0.011l-0.11,0.004l-0.121-0.053l-0.053-0.008l-0.049,0.036l-0.029-0.025l-0.022-0.03
	l-0.021-0.036l-0.015-0.046l0.048,0.034l0.034,0.02l0.037-0.003l0.05-0.023l-0.048-0.022l-0.024-0.007l-0.029-0.001l-0.005-0.038
	l0.034-0.001l0.084-0.035l-0.052-0.084l-0.023-0.246l-0.065-0.049l-0.187-0.022l-0.104-0.038l-0.071-0.059l0.045-0.05l0.063-0.024
	l0.232-0.025l0.323-0.159l0.041-0.036l0.042-0.072l0.054-0.035l0.09-0.003l0.095,0.018l0.062,0.024l-0.024-0.067l-0.046-0.034
	l-0.056-0.007l-0.057,0.01l0.016-0.026l0.004-0.027l-0.011-0.026l-0.024-0.024l-0.005-0.035l0.024-0.032l0.001-0.029l-0.018-0.06
	l0.008-0.037l0.069-0.094l0.021,0.016l0.019-0.016l0.025-0.024l0.035-0.014l0.146,0.027l0.274-0.011l0.028,0.008l0.035,0.021
	l0.035,0.009l0.031-0.027l0.02-0.034l0.021-0.017l0.026-0.006l0.263-0.004l0.014-0.001l0.03,0.008l0.046-0.025l0.219-0.007
	l0.119-0.028l0.053-0.024l0.04-0.046l0.044-0.032l0.398-0.143l0.057-0.042l0.037,0.055l0.063,0.01l0.067-0.017l0.047-0.024
	l0.016-0.029l0.015-0.047l0.02-0.045l0.035-0.022l0.585-0.101l0.109-0.043l-0.062,0.004l-0.234-0.069l-0.116-0.015l-0.216,0.045
	l-0.06-0.007l-0.042-0.022l-0.01-0.031l0.037-0.038l-0.005-0.034l-0.02-0.043l-0.005-0.06l-0.017-0.052l-0.056-0.017l0.023-0.042
	l0.027-0.067l0.021-0.031l-0.087,0.027l-0.098,0.059l-0.069,0.071l0.004,0.066l-0.083,0.195l-0.247,0.384l-0.059,0.035l-0.301,0.047
	l-0.016,0.014l-0.044,0.071l-0.031,0.024l-0.041,0.007l-0.044-0.003l-0.044-0.011l-0.038-0.02l0.048-0.046l0.068-0.05l0.049-0.055
	l-0.011-0.069l-0.101,0.066l-0.239,0.084l-0.174,0.016l-0.076-0.01l-0.07-0.022l-0.035-0.043l-0.027-0.028l-0.12-0.008l-0.054-0.041
	l0.008-0.078l-0.042-0.028l-0.126,0.01l0.005,0.034l0.034,0.01l0.031,0.018l0.025,0.03l0.021,0.039l-0.243,0.122l-0.149,0.037
	l-0.07,0.035l-0.023,0.057l-0.001,0.073l-0.025,0.008l-0.033-0.016l-0.026-0.008l-0.084,0.066l-0.606,0.104l-0.004-0.031
	l0.058-0.029l0.135-0.101l0.171-0.05l0.611-0.633l-0.012-0.017l-0.021-0.05l0.035-0.019l0.045-0.038l0.029-0.018l0.043-0.014
	l0.109,0.007l0.038-0.008l0.06-0.028l0.037-0.008l0.03-0.021l0.008-0.049l0.002-0.059l0.02-0.048l-0.021-0.021l-0.001-0.001
	l0.008-0.008l0.005-0.037l-0.031-0.035l0.033-0.021l0.032-0.034l0.03-0.043l0.023-0.048l0.014-0.045l0.005-0.041l0.008-0.032
	l0.025-0.024l-0.004-0.033l-0.005-0.067l0.186-0.195l0.023-0.099l-0.067-0.016l-0.266,0.024l-0.094-0.024l0.083-0.091l0.034-0.049
	l0.078-0.158l0.027-0.037l0.033-0.025l-0.03-0.034l0.136-0.321l0.063-0.076l0.044-0.087l0.03-0.11l0.046-0.091l0.067-0.031
	l0.087,0.039l0.18,0.127l0.078,0.027l0.062-0.025l0.064-0.043l0.072-0.022l0.086,0.04l-0.001-0.082l-0.056-0.043l-0.156-0.035
	l-0.005-0.04l0.193-0.043l0.056,0.017l0.115,0.071l0.066,0.004l-0.004-0.031l-0.152-0.066l-0.007-0.038l0.084,0.028l0.045,0.004
	l0.033-0.041l0.036-0.018l0.026,0.004l-0.011,0.05l0.041,0.039l0.04,0.029l0.046,0.02l0.051,0.007l-0.046-0.103l-0.021-0.036
	l-0.027-0.031l0.03-0.079l0.045-0.058l0.102-0.083l-0.035,0.003l-0.06,0.028l-0.027,0.007l-0.336,0.007l-0.051-0.02l0.054-0.037
	l0.147-0.042l0.065-0.007l-0.005-0.035l-0.095,0.004l-0.005-0.031l0.027-0.027l0.085-0.028l0.041-0.022l-0.005-0.035l-0.274-0.021
	l-0.065,0.014l-0.111,0.053l-1.085,0.131l-0.101,0.052l-0.046,0.038l-0.072,0.021l-0.142,0.005l-0.077-0.028l-0.045-0.045
	l-0.037-0.049l-0.052-0.041l0.053-0.091l-0.034-0.057l-0.057,0.003l-0.019,0.095l0.001,0.111l-0.03,0.067l-0.051,0.01l-0.064-0.06
	l-0.005-0.037l0.05-0.108l-0.062-0.229l0.062-0.046l0.013,0.004l0.037,0.021l0.024,0.004l0.012-0.011l0.016-0.049l0.008-0.013
	l0.007-0.018l-0.154-0.115l0.031-0.04l0.118-0.071h-0.124l-0.059,0.011l-0.048,0.034l0.055,0.059l0.019,0.087l-0.019,0.076
	l-0.062,0.026l-0.069-0.055l0.002-0.095l0.021-0.091l-0.009-0.041l-0.02-0.01l-0.018-0.017l-0.016-0.008l-0.019,0.02l-0.039,0.055
	l-0.039,0.02l-0.021,0.04l-0.024,0.083l-0.063,0.133l-0.044,0.062l-0.152,0.071l-0.056,0.003l-0.064-0.058l-0.074-0.049
	l-0.145,0.036l-0.058-0.031l0.012-0.021l0.008-0.066l-0.001-0.057l0.007-0.038l0.021-0.021l0.028-0.01l0.046-0.003l0.056-0.017
	l0.126-0.09l0.046-0.045l-0.006-0.032l-0.118,0.006l-0.005-0.038l0.067-0.035l-0.006-0.035l-0.05,0.003l-0.037,0.015l-0.067,0.055
	l0.007,0.037l-0.041,0.028l-0.053-0.004l-0.027-0.056l0.012-0.046l0.061-0.045l0.021-0.052l-0.042,0.007l-0.022,0.026l-0.02,0.029
	l-0.032,0.014l-0.032-0.01l-0.031-0.018l-0.032-0.001l-0.032,0.034l-0.004,0.05l0.019,0.058l0.007,0.046l-0.033,0.022l-0.038,0.007
	l-0.055,0.025l-0.135,0.006l-0.046-0.007l-0.042-0.02l-0.041-0.042l-0.027-0.045l-0.03-0.036l-0.049-0.013l-0.135,0.026
	l-0.083-0.004l-0.056-0.049l-0.025,0.025l-0.024,0.011l-0.064,0.003l0.02-0.083l0.029-0.057l0.045-0.032l0.071-0.011l0.133,0.021
	l0.051-0.008l0.045-0.052l-0.006-0.038l-0.04-0.003l-0.035-0.02l-0.03-0.032l-0.024-0.046l0.074,0.01l0.089,0.031l0.07,0.008
	l0.021-0.058l-0.066,0.008l-0.132-0.018l-0.136-0.046l-0.081-0.07l-0.009-0.034l-0.027-0.059l-0.035-0.058l-0.036-0.025
	l-0.097,0.028l-0.039,0.004l-0.037-0.026l0.069-0.064h0.079l0.086,0.02l0.087,0.003l-0.012-0.024l-0.018-0.057l-0.011-0.024
	l0.151-0.004l0.157,0.032l0.022,0.02l0.062,0.077l0.03-0.014l0.039-0.067l0.033-0.021l-0.225-0.118l-0.059-0.061l0.126-0.031
	l0.268,0.016l0.093-0.027l0.107-0.071l0.046-0.006l0.037,0.013l0.078,0.043l0.166,0.021l0.267,0.006l-0.004-0.032l-0.063-0.025
	l-0.233,0.028l-0.155-0.046l-0.297-0.143l-0.081-0.227l0.006-0.109l0.025-0.085l0.01-0.08l-0.044-0.092l0.03-0.021l0.124-0.025
	l0.088-0.035l0.079-0.011l0.033-0.013l0.031-0.034l0.019-0.003l0.074,0.038l0.04,0.014l0.61-0.125l-0.005-0.038l-0.053-0.007
	l-0.144-0.056l0.017-0.011l0.013-0.011l0.014-0.011l0.021-0.004l-0.006-0.035l-0.021-0.041l0.03-0.048l0.104-0.091l-0.028-0.001
	l-0.067-0.031l0.023-0.021l0.017-0.032l0.008-0.041l0.002-0.047l-0.023,0.005l-0.014,0.005l-0.012,0.011l-0.017,0.016l-0.101-0.029
	l-0.48,0.014l-0.308,0.18l-0.178,0.045l-0.126-0.103l0.037-0.031l0.002-0.143l0.051-0.04l-0.016-0.047l-0.006-0.022l0.006-0.036
	l-0.004-0.032l-0.025,0.001l-0.005-0.035l0.155-0.043l0.033,0.013l0.081,0.047l0.048,0.008l0.043,0.027l0.031,0.119l0.042,0.027
	l0.026-0.018l-0.007-0.042l-0.013-0.056l0.004-0.062l-0.036-0.029l-0.033-0.038l-0.036-0.028l-0.047-0.005l0.004,0.032l0.026,0.037
	l-0.04-0.01l-0.028-0.037l-0.058-0.126l-0.001-0.025l-0.003-0.021l-0.02-0.024l-0.022-0.003l-0.057,0.008l-0.014-0.018l-0.016-0.032
	l-0.029-0.027l-0.029-0.042l-0.022-0.075l0.005-0.077l0.033-0.025l0.043-0.014l0.032-0.047l-0.05-0.018l-0.005-0.03l0.025-0.032
	l0.041-0.023l-0.031-0.034l0.084-0.076l-0.036-0.023l-0.039-0.001l-0.083,0.03l0.014,0.041v0.02l-0.018,0.007l-0.034,0.006
	l0.005,0.035h0.022l-0.081,0.112l-0.092,0.021l-0.095-0.061l-0.087-0.131h0.065l0.146-0.045l0.057-0.034l-0.112-0.065l-0.049-0.048
	l-0.027-0.06l0.024,0.011l0.048,0.013l0.024,0.01l-0.052-0.059l-0.134-0.115l0.05,0.027l0.04,0l0.029-0.022l0.015-0.044
	l-0.192-0.127l-0.081-0.025l-0.042,0.056l0.056,0.053l-0.014,0.044l-0.054,0.022l-0.065-0.011l0.038,0.052l0.018,0.017l0.005,0.035
	l-0.049-0.005l-0.04,0.009l-0.067,0.039l0.006,0.032l0.045,0.014l0.021,0.029l0.021,0.098l-0.027,0.002l-0.061,0.036l0.047,0.026
	l0.049,0.046l0.014,0.045l-0.056,0.021l-0.063-0.002l-0.053-0.021l-0.038-0.05l-0.02-0.099l0.012-0.062l0.056-0.148l0.009-0.06
	l-0.002-0.092l0.022-0.043l0.034-0.034l0.03-0.064h-0.106l-0.045-0.018l-0.044-0.044l0.064-0.003l0.023-0.047l0.01-0.068
	l0.018-0.062l0.034-0.031l0.137-0.083l0.01-0.022l0.005-0.026l0.012-0.021l0.031-0.003l0.023,0.017l0.011,0.03l0.01,0.033
	l0.015,0.025l0.049,0.031l0.063,0.026l0.06,0.005l0.044-0.032l0.029,0.04l0.03,0.021l0.03-0.001l0.029-0.025l0.008,0.016v0.008
	l0.005,0.004l0.017,0.003l-0.056,0.131l-0.072,0.06l-0.085-0.006l-0.096-0.07l-0.007,0.101l0.057,0.03l0.08,0.002l0.065,0.023
	l0.06,0.033l0.041-0.038l0.035-0.06l0.047-0.029l-0.055-0.061l0.011-0.083l0.043-0.074l0.046-0.033l0.076,0.016l0.129,0.075
	l0.075,0.008l-0.026-0.043l-0.03-0.026l-0.073-0.034l-0.006-0.036l0.031-0.012l0.03-0.003l0.076,0.011l-0.067-0.031l-0.18-0.029
	l-0.045-0.052l-0.03-0.074l0.002-0.037l0.188-0.055l0.073,0.015l0.138,0.069l0.066,0.014l0.578,0.02l0.036-0.007l0.06-0.028
	l0.036-0.007l0.029,0.007l0.053,0.044l0.028,0.014l0.271,0.025l0.031-0.009l0.037-0.022l0.034-0.029l0.021-0.031l0.028-0.024
	l0.041,0.005l0.159,0.059l0.029,0.002l0.027,0.021l0.042,0.094l0.021,0.022l0.057-0.012l0.033-0.012l0.004-0.015l0.029,0.04
	l0.012,0.041l-0.004,0.037l-0.015,0.025l0.005,0.035l0.077,0.029l0.006,0.038l-0.058,0.043l0.022,0.046l0.182,0.125l0.051,0.058
	l0.039,0.076l0.015,0.101l0.021-0.001l-0.012-0.092l0.001-0.078l-0.005-0.072L986.868,529l0.07-0.032l0.063-0.071l0.042-0.105
	l0.002-0.135l0.036-0.086l0.109-0.017l0.208,0.034l0.022-0.007l0.016-0.019l0.017-0.01l0.042,0.029l0.063,0.029l0.056,0.016
	l0.081,0.044l0.052,0.01l0.163-0.007l0.069-0.023l0.06-0.052l0.103,0.06l0.194-0.046l0.1,0.039l0.027,0.046l0.019,0.059l0.028,0.048
	l0.1,0.03l0.042,0.032l0.085,0.093l0.038-0.034l0.049-0.012l0.109-0.001l-0.007-0.035l-0.05-0.019l-0.062-0.014l-0.057-0.027
	l-0.031-0.056l-0.026-0.038l-0.055-0.028l-0.063-0.014l-0.05,0.003l-0.007-0.038l0.019-0.026l0.028-0.063l0.026-0.021l0.077,0.029
	l0.047,0.008l0.016-0.025l0.034-0.024l0.238,0.029l-0.061-0.059l-0.066-0.041l-0.069-0.022l-0.063-0.006l-0.066,0.008l-0.025-0.014
	l-0.016-0.041l0.008-0.052l0.044,0.011l0.085,0.055l0.061-0.04l-0.032-0.046l-0.077-0.037l-0.073-0.014l-0.327,0.014l-0.021-0.015
	l-0.014-0.054l0.009-0.039l0.027-0.035l0.036-0.024l0.092-0.03l0.343-0.262l0.051-0.02l0.018-0.017l0.003-0.041l-0.014-0.102
	l-0.002-0.087l0.027,0.015l0.032,0.055l0.015,0.031l0.014,0.003l0.005,0.002l0.008,0.031l0.085-0.065l0.091-0.05l0.008-0.002
	l0.259-0.061l0.04-0.009l0.134-0.101l0.101-0.026l-0.007-0.038l-0.108,0.002l-0.052-0.019l-0.05-0.046l0.156-0.145l-0.025-0.098
	l0.132-0.134l-0.031-0.126l0.039,0.019l0.026,0.022l0.027,0.017l0.043,0.005l0.01-0.166l0.01-0.045l-0.012-0.01l-0.004-0.001
	l-0.003-0.004l-0.009-0.016l-0.054,0.058l-0.06,0.033l-0.216,0.045l-0.104,0.094l-0.062,0.036l-0.006-0.032l0.025-0.047
	l-0.002-0.046l-0.028-0.036l-0.051-0.014l-0.045,0.025l-0.067,0.103l-0.077,0.042l-0.128,0.162l-0.038,0.036l-0.043,0.028
	l-0.045,0.012l-0.006-0.031l0.066-0.091l0.043-0.04l0.061-0.019l0.036-0.04L989,526.79l-0.048-0.042l-0.041,0.05l-0.022,0.001
	l-0.008-0.113l-0.042,0.002l-0.043,0.072l-0.012,0.098l-0.012,0.031l-0.039-0.024l-0.037-0.04l-0.021-0.035v-0.022l-0.007-0.021
	l-0.027-0.007l-0.021,0.006l-0.031,0.023l-0.02,0.009l-0.077,0.008l-0.037,0.016l-0.023,0.072l-0.044-0.009l-0.072-0.04l-0.249,0.01
	l-0.062-0.032l0.02-0.05l-0.037-0.028l-0.285-0.083l-0.058,0.002l0.008-0.019l0.005-0.019l0.005-0.018l0.015-0.02l-0.004-0.031
	l-0.046-0.024l-0.028-0.035l0.002-0.034l0.044-0.015l0.048-0.007l0.035-0.02l0.02-0.039l-0.001-0.062l0.031-0.041l0.208-0.162
	l0.079-0.034l0.329-0.005l0.18,0.044l0.09-0.002l-0.006-0.032l-0.237-0.042l-0.07-0.053l0.047-0.025l0.146-0.012l0.039,0.011
	l0.051,0.06l0.063,0.058l0.063,0.028l0.055-0.031l-0.197-0.15l-0.129-0.034l-0.131-0.073l-0.077-0.004l0.005-0.051l0.023-0.013
	h0.031l0.038-0.011l0.029-0.024l0.035-0.055l0.03-0.03l0.074,0.055l0.072,0.003l0.148-0.033l0.193,0.058l0.066-0.002l-0.005-0.035
	l-0.06-0.005l-0.076-0.024l-0.061-0.053l-0.012-0.084l0.038-0.046l0.132,0.015l0.046-0.014l-0.049-0.031l-0.051-0.09l-0.047-0.016
	l-0.061-0.002l-0.016,0.005l-0.01,0.024v0.036l0.005,0.034v0.016l-0.093-0.001l-0.089-0.071l-0.075-0.102l-0.057-0.094l0.038-0.03
	l0.032,0.013l0.035,0.028l0.046,0.014l0.044-0.007l0.041-0.018l0.072-0.053l-0.102-0.032l-0.083-0.063l-0.146-0.135l-0.006-0.038
	l0.023-0.026l0.032-0.013l0.036,0.005l0.042,0.028l0.026-0.052l0.005-0.02l-0.02,0.001l0.004-0.073l0.023-0.013l0.033,0.002
	l0.033-0.021l0.043-0.126l0.021-0.021l0.035,0.028l0.028,0.12l0.035,0.024l0.015-0.022l0.005-0.095l0.024-0.029l-0.062-0.149
	l-0.027-0.088l0.007-0.041l0.033-0.035l0.026-0.16l0.022-0.055l0.05-0.005l0.193,0.064l0.058-0.014l0.091-0.052l0.051-0.014
	l-0.013,0.046l-0.016,0.034l-0.013,0.034l0.002,0.048l0.021,0.025l0.033-0.031l0.075-0.13l0.177-0.123l0.059-0.023l0.038-0.041
	l0.016-0.085l0.026-0.077l0.072-0.015l0.096,0.056l-0.019,0.059l-0.13,0.1l0.005,0.035l0.125-0.073l0.021,0.012l0.026,0.024
	l0.047-0.006l0.048-0.023l0.028-0.021l0.056,0.071l0.006,0.032l-0.003,0.06l0.024-0.011l0.042-0.036l0.047-0.018l-0.007,0.05
	l-0.02,0.035l-0.028,0.021l-0.038,0.007l0.006,0.035l0.059-0.005l0.038,0.008l0.027-0.004l0.025-0.041l0.022-0.095l-0.019-0.056
	l-0.089-0.092l-0.037-0.103l0.04-0.066l0.076-0.062l0.065-0.094l0.012,0.026h0.005l0.013,0.011l-0.032,0.243l0.001,0.037
	l0.008,0.009l0.015,0.021l0.02,0.022l0.024,0.016l0.029-0.001l0.025-0.035l0.028-0.007l0.047,0.018l0.073,0.038l0.069,0.048
	l0.035,0.047l0.009,0.018l0.039,0.066l0.018,0.036l0.005,0.037l-0.001,0.093l0.003,0.046l0.018-0.047l0.027-0.138l0.018-0.03
	l0.005-0.036l-0.034-0.08l-0.044-0.078l-0.021-0.031l-0.013-0.049l-0.026-0.066l-0.037-0.054l-0.043-0.017l-0.019,0.04l0.019,0.073
	l0.034,0.078l0.028,0.054l-0.045-0.006l-0.036-0.027l-0.033-0.035l-0.033-0.03l-0.099-0.021l-0.044-0.031v-0.065l0.06-0.167
	l-0.005-0.029l0.117,0.012l0.048-0.021l0.099-0.097l0.038-0.015l0.057,0.016l0.044,0.048l0.034,0.049l0.031,0.021l0.022,0.036
	l0.009,0.08l-0.001,0.078l-0.003,0.03l0.025,0.045l0.048,0.032l0.1,0.037l0.011,0.061l0.038,0.067l0.048,0.055l0.039,0.022
	l0.05,0.036l0.021,0.083l-0.004,0.085l-0.024,0.04l-0.046,0.015l-0.033,0.033l-0.047,0.066l-0.157,0.114l0.007,0.034l0.186-0.043
	l0.066,0.027l-0.017,0.11l-0.03,0.039l-0.142,0.114l-0.083,0.144L991,524.937l0.007,0.035l0.061-0.022l0.052-0.04l0.258-0.288
	l0.033-0.009l0.018-0.057l0.06-0.03l0.07-0.02l0.052-0.027l0.031-0.064l0.005-0.083l-0.027-0.071l-0.063-0.027l-0.019-0.021
	l0.005-0.047l0.021-0.073l-0.021-0.123l-0.024-0.007l-0.159-0.177l-0.086-0.054l-0.029-0.027l-0.02-0.034l-0.022-0.053l-0.008-0.051
	l0.062-0.063l0.02-0.09l-0.01-0.104l-0.048-0.079l0.054,0.002l0.051,0.018l0.046,0.005l0.044-0.035l-0.011-0.017l-0.005-0.012
	l-0.004-0.013l-0.012-0.027l0.072,0.047l0.075,0.034l0.069-0.005l0.1-0.128l0.062-0.022l0.069,0.027l0.064,0.091l-0.065,0.007
	l-0.022-0.003l0.068,0.039l0.076,0.026l0.069-0.001l0.057-0.045l-0.229-0.139l-0.115-0.107l-0.029-0.119l-0.092-0.042l-0.044-0.028
	l-0.032-0.032l0.045-0.034l0.059,0.009l0.117,0.051l0.232,0.062l0.052,0.004l0.135,0.055l0.048,0.031l0.203,0.22L992.478,523.185z"
	/></svg>