<?xml version="1.0" encoding="utf-8"?>
<!-- Generator: Adobe Illustrator 15.0.0, SVG Export Plug-In . SVG Version: 6.00 Build 0)  -->
<!DOCTYPE svg PUBLIC "-//W3C//DTD SVG 1.1//EN" "http://www.w3.org/Graphics/SVG/1.1/DTD/svg11.dtd">
<svg version="1.1" id="Ebene_1" xmlns="http://www.w3.org/2000/svg" xmlns:xlink="http://www.w3.org/1999/xlink" x="0px" y="0px"
	 width="1920px" height="1080px" viewBox="0 0 1920 1080" enable-background="new 0 0 1920 1080" xml:space="preserve">

<path fill="#F4E0B6" stroke="#FFFFFF" d="M1304.378,229.759l0.06-0.052l0.037-0.06l0.049-0.187l0.048-0.061l0.127-0.053l0.047-0.042
	l-0.021-0.014l-0.022-0.022l-0.02-0.007l0.054-0.035l0.021,0.015l0.014,0.035l0.034,0.021l0.024-0.005l0.038-0.028l0.023-0.003
	l0.024,0.01l0.046,0.026l0.013,0.005l0.084,0.057l0.114,0.114l0.087,0.029l0.103,0.044l0.039-0.002l0.06,0.018l0.021,0.09
	l0.022,0.033l0.002,0.099l0.127,0.129l0.11,0.367l0.119,0.112l0.05,0.15l0.003,0.166l0.055,0.184l-0.029,0.161l0.044,0.352
	l0.062,0.104l0.123,0.052l0.018,0.059l-0.021,0.063l-0.127,0.1l-0.025,0.116l-0.102,0.123l-0.134,0.054l-0.185-0.046l-0.117-0.05
	l-0.042-0.034l-0.09-0.119l-0.2-0.089l-0.036-0.098l-0.105-0.035l-0.077-0.167l-0.148-0.364l-0.091-0.085l-0.076-0.356l-0.135-0.232
	l0.011-0.061l-0.081-0.293l-0.034-0.172L1304.378,229.759z M1301.979,228.288l0.018-0.011l0.042,0.008l0.044-0.012l0.071-0.057
	l0.016-0.024l0.005-0.028l0.014-0.011l0.022,0.002l-0.019,0.055l-0.007,0.051l-0.012,0.011l-0.028,0.016l-0.035,0.014l-0.009,0.014
	l-0.013,0.013l-0.028,0.012l-0.019-0.003l-0.021,0.004h-0.019l-0.004-0.011l0.002-0.015l-0.007-0.015l-0.013-0.01L1301.979,228.288z
	 M1302.891,236.195l0.021,0.01l-0.002,0.015l-0.003,0.01l-0.011,0.019l-0.058,0.078l-0.02,0.043l-0.034,0.012l-0.048-0.013
	l-0.027-0.025l0.009-0.042l0.036-0.036l0.102-0.063L1302.891,236.195z M1301.822,231.018v-0.021l-0.014-0.029l-0.003-0.042
	l0.003-0.021l0.011-0.034l0.033-0.035l0.021,0.008l-0.013,0.016l-0.002,0.014l0.02,0.004l-0.004,0.015l-0.016,0.036l0.006,0.034
	l0.021,0.018l0.026,0.011l0.031,0.037l0.036,0.033l0.039,0.052l0.005,0.07l-0.046,0.045l-0.065,0.01l-0.069-0.024l-0.053-0.06
	l-0.006-0.056L1301.822,231.018z M1301.998,230.635l0.013,0.035l-0.008,0.02l-0.02,0.01l-0.013,0.019l-0.002,0.02l-0.057,0.015
	l-0.104-0.011l-0.057-0.001l-0.02,0.026l-0.02,0.01l-0.031-0.027h-0.016l-0.003-0.032l0.023-0.066l0.042-0.013l0.034,0.032
	l0.033,0.002l0.051-0.044l0.006-0.015l0.021-0.016l0.014,0.01l0.006,0.017l0.024,0.002l0.045-0.005L1301.998,230.635z
	 M1301.681,229.726l0.042,0.019l0.029,0.04l0.011,0.054l-0.016,0.043l-0.026,0.037l0.006,0.023l0.023,0.011l-0.006,0.014
	l-0.065,0.023l-0.049-0.017l-0.042,0l-0.034-0.011l-0.028-0.023l-0.031-0.048l0.009-0.064l0.048-0.044l0.027-0.039l0.021-0.025
	l0.056,0.003L1301.681,229.726z M1301.768,230.947l0.018,0.017l-0.01,0.058l-0.022,0.032l-0.017,0.009l-0.004,0.016l-0.002,0.018
	l-0.015,0.005l-0.054-0.013l-0.021-0.008h-0.014l-0.011,0.008l-0.009-0.001l-0.009-0.013l-0.01-0.007l-0.013,0.003l-0.027,0.022
	l-0.013-0.011l0.006-0.03l0.012-0.03l0.004-0.079l0.017-0.041l0.012-0.021l0.02-0.018l0.038-0.008l0.024,0.023l0.05,0.006
	l0.01,0.053l0.01,0.029L1301.768,230.947z M1301.399,233.047l0.014-0.128l-0.015-0.052l0.01-0.025l0.049-0.002l0.031-0.009
	l0.026,0.015l0.009,0.035l0.02,0.019l-0.007,0.017l-0.021,0.018l0.002,0.013l0.022,0.003l0.006,0.024l-0.022,0.078l-0.034,0.03
	l-0.022,0.005l-0.023-0.013l-0.021,0.001L1301.399,233.047z M1300.913,230.104l0.003-0.028l-0.002-0.015l-0.006-0.016v-0.041
	l0.007-0.054l0.015-0.034l0.033,0.003l0.027,0.019l0.016,0.003h0.03l0.028,0.02l-0.003,0.032l0.01,0.033l0.019,0.018l0.018,0.013
	l0.01,0.032l-0.022,0.022l-0.032,0.011l-0.025,0.022l-0.008,0.03l0.011,0.037l0.02,0.042l0.004,0.035l-0.006,0.015l-0.008,0.015
	l-0.025,0.085l-0.014,0.007l-0.009-0.037l-0.017-0.036l-0.011-0.014l-0.007-0.013l0.001-0.029l0.012-0.036l-0.022-0.038
	l-0.045-0.044l-0.014-0.036L1300.913,230.104z M1300.792,229.366l0.009-0.03l-0.021-0.048l-0.009-0.036l0.014-0.02l0.018-0.014
	l0.024-0.026l0.01-0.014l0.02-0.009l0.008,0.021l-0.012,0.033l-0.004,0.037l0.013,0.025l0.012-0.011l0.011-0.024l0.028,0.023
	l0.058,0.059l0.021,0.036l-0.038,0.008l-0.029-0.016l-0.018-0.02l-0.018,0.014l-0.005,0.083l-0.02-0.008l-0.021,0.011l-0.011,0.027
	l0.001,0.062l-0.006,0.024l-0.005,0.012l-0.009-0.007l-0.009-0.027l-0.018-0.02l-0.044-0.029l-0.035-0.033l-0.01,0.004l0.002-0.012
	l0.021-0.03l0.033-0.028L1300.792,229.366z M1301.067,230.448l0.058-0.075l0.026-0.01l0.047-0.027l0.013,0.011v0.019l-0.004,0.019
	l-0.01,0.034l-0.015,0.031l0.005,0.014l0.025,0.001l0.013,0.017l-0.012,0.034l-0.006,0.057l-0.017,0.072l-0.027,0.004l-0.03-0.031
	l-0.03,0.012l-0.004,0.033l0.013,0.037l-0.007,0.049l-0.022,0.047l-0.028,0.028l-0.048,0.017l-0.054,0.01l-0.056,0.003l-0.056-0.008
	l-0.046-0.024l-0.023-0.037l-0.007-0.021l-0.014-0.064l0.009-0.043l0.021-0.042l0.045-0.049l0.081-0.044l0.067-0.019l0.031-0.015
	l0.024-0.024L1301.067,230.448z M1300.692,230.069l0.026-0.007l0.007,0.026l-0.013,0.078l0.011,0.031l0.028,0.015l0.056,0.09
	l0.05,0.029l0.048,0.005l0.016,0.018l-0.024,0.028l-0.045,0.005l-0.037,0.012l-0.012,0.019l0.002,0.019l-0.015,0.018l-0.028-0.01
	l-0.026-0.013l-0.059-0.02l-0.073-0.043l-0.047-0.067l-0.027-0.074l0.003-0.046l0.024-0.021l0.027-0.006l0.021,0.017l0.011-0.004
	l0.017-0.037l0.027-0.032L1300.692,230.069z M1300.133,227.81l0.011-0.003l-0.006-0.016l-0.037-0.029l-0.005-0.033l0.075-0.091
	l0.041-0.022l0.025-0.003l0.033,0.023l0.051,0.062l0.025,0.057l-0.01,0.022l-0.038,0.006l-0.021,0.028l-0.007,0.038l-0.021,0.021
	l-0.02-0.008l-0.02,0.043l-0.016,0.027l-0.034-0.008l-0.024,0.005l-0.019,0.009l-0.012-0.018l0.008-0.027l0.012-0.03
	L1300.133,227.81z M1300.431,228.801l0.045,0.147l-0.001,0.06l-0.015,0.045l-0.048,0.094l-0.033,0.004l-0.026-0.017l-0.021-0.001
	l-0.019,0.017l-0.019,0.037l-0.042-0.046l-0.03-0.055l-0.037-0.117l-0.027-0.113l-0.002-0.06l0.018-0.053l0.066-0.048l0.083,0.001
	l0.071,0.04L1300.431,228.801z M1299.891,226.75l0.006,0.03l-0.007,0.009l-0.017,0.014l-0.014,0.036l-0.012,0.056l-0.022,0.04
	l-0.035,0.021l-0.024,0.021l-0.013,0.032l-0.028,0.031l-0.039-0.016l-0.036-0.058l-0.018-0.066l0.028-0.052l0.1-0.07l0.031,0.003
	l0.016-0.004l0.002-0.03l0.01-0.026l0.023-0.02l0.027,0.004L1299.891,226.75z M1300.312,232.129l0.017-0.027l-0.007-0.017
	l-0.062-0.076l0.037-0.008l0.161-0.127l0.06-0.014l0.068,0.002l0.067,0.012l0.16,0.054l0.049,0.024l0.029,0.033l-0.013,0.008
	l-0.052,0.069l-0.015,0.031l0.027-0.003l0.072,0.007l0.225,0.326l0.02,0.041l0.03,0.152l-0.006,0.043l-0.037,0.013l-0.035-0.017
	l-0.029-0.023l-0.023-0.008l-0.024,0.022l-0.055,0.113l0.093-0.011l-0.081,0.087l-0.15-0.029l-0.13-0.09l-0.018-0.101l-0.099-0.023
	l-0.037-0.017l-0.04-0.03l-0.026-0.036l-0.009-0.035l-0.023-0.024l-0.063-0.003l0.047-0.048v-0.058l-0.04-0.048l-0.068-0.015
	l-0.052,0.034l-0.063,0.103l-0.039-0.021l-0.011-0.059l0.026-0.064l0.035-0.056l0.016-0.042l0.011-0.01l0.026-0.014
	L1300.312,232.129z M1300.44,233.066l0.011,0.039l-0.008,0.043l-0.022,0.015l-0.009-0.02l-0.003-0.022l-0.021-0.017l-0.019-0.02
	l-0.015,0.005l-0.009,0.083l-0.025-0.018l-0.013-0.049l-0.007-0.053l-0.037-0.038l-0.044-0.013l-0.043,0.022l-0.054,0.043
	l-0.07,0.032l-0.024-0.026l0.031-0.048l0.024-0.03l0.02-0.047l0.039-0.007l0.007-0.01l0.021-0.009l0.045-0.001l0.05,0.005
	l0.043-0.001l0.023,0.018l0.025,0.027l0.031,0.027L1300.44,233.066z M1300.287,233.156l0.02,0.033l-0.021,0.032l-0.15,0.031
	l-0.086-0.003l-0.041-0.026l0.096-0.058l0.052-0.045l0.058-0.037l0.052,0.004l0.015,0.032L1300.287,233.156z M1299.029,225.031
	l-0.001-0.018l-0.042-0.065l0.008-0.01l0.025,0.002l0.047,0.03l0.012,0.014l0.007,0.022l-0.004,0.036l0.009,0.027l0.023,0.037
	l0.021,0.017l0.008,0.022l-0.017,0.005l-0.029-0.008l-0.021,0.006l-0.014,0.018l-0.002,0.015l-0.01,0.018l-0.022,0.001l-0.021-0.007
	l-0.024,0.002l-0.016-0.013l-0.01-0.024l0.046-0.125L1299.029,225.031z M1299.971,235.411l0.03-0.016l-0.004-0.031l-0.016-0.04
	l0.018-0.009l0.034,0.029l0.021,0.015l0.026,0.007l0.072,0.049l0.032,0.008l0.042,0.02l0.026,0.017l0.018,0.014l-0.012,0.037
	l-0.06,0.03l-0.059,0.002l-0.055-0.014l-0.049-0.02l-0.044-0.021l-0.026-0.028l-0.009-0.03L1299.971,235.411z M1299.482,226.735
	l0.01,0.041l-0.017,0.044l-0.114,0.146l-0.048,0.021l-0.084-0.011l-0.022-0.013l-0.061-0.062l-0.028-0.008l-0.114-0.014
	l-0.051,0.063l-0.036-0.002l-0.022-0.037l-0.012-0.045l0.013-0.042l0.04-0.015l0.051,0.012l0.046,0.039l0.005-0.039l0.048-0.04
	l0.061-0.035l0.106-0.045l0.063-0.012l0.063,0.003l0.063,0.019L1299.482,226.735z M1299.83,233.35l0.08,0.047l0.021,0.023
	l0.006,0.025l0.001,0.038l-0.015,0l-0.024,0.057l-0.018,0.06l0.007,0.016l-0.069,0.041l-0.035-0.021l-0.055-0.103l-0.097-0.055
	l-0.015-0.022l0.009-0.014l0.052-0.037l0.034-0.048l0.018-0.012l0.032-0.009l0.035,0.004L1299.83,233.35z M1299.38,232.964
	l0.011-0.036l0.021-0.023l0.012-0.034l-0.002-0.043l0.004-0.037l0.02-0.027l0.023-0.015h0.022l0.027-0.007l0.037-0.017l0.046-0.007
	l0.045,0.016l0.01,0.046l-0.037,0.047l-0.045,0.039l0.004,0.039l0.02,0.018l0.008,0.012l0.005,0.027l-0.017,0.028l-0.036,0.01
	l-0.057,0.041l-0.066,0.08l-0.034,0.019l0.005-0.036l-0.003-0.029l-0.017-0.025l-0.008-0.039L1299.38,232.964z M1299.376,233.371
	l0.093-0.012l-0.006,0.019l-0.007,0.042l-0.009,0.02l0.044,0.027l0.006,0.049l-0.005,0.048l0.015,0.018l0.059,0.001l0.054,0.014
	l0.041,0.028l0.025,0.041l-0.001,0.043l-0.026,0.034l-0.044,0.024l-0.057,0.013l-0.056-0.005l-0.042-0.025l-0.03-0.037l-0.021-0.042
	l0.014-0.052l-0.021-0.063l-0.059-0.113l-0.005-0.024l0.001-0.018l0.012-0.015L1299.376,233.371z M1299.388,232.815l0.016,0.042
	l-0.02,0.045l-0.035,0.052l-0.015,0.063l-0.021,0.047l-0.034-0.033l-0.025-0.088l-0.028-0.05l-0.025-0.025l0.011-0.037l0.033-0.03
	l0.018-0.011l0.013,0.01l0.029,0.009l0.058-0.015L1299.388,232.815z M1298.143,224.749l0.009-0.025l-0.019-0.033l-0.022-0.055
	l-0.012-0.064l0.029-0.04l0.055-0.018l0.038,0.015l0.019-0.017l0.029,0.012l-0.01,0.04l0.011,0.013l0.012-0.003v-0.031l0.021-0.033
	l0.029,0.01l0.052,0.032l0.008,0.06l-0.03,0.032l-0.031,0.019l0.002,0.031l-0.029-0.003l-0.027,0.014l-0.001,0.048l-0.01,0.019
	l-0.033-0.032l-0.034-0.002l-0.022,0.04l-0.014,0.069l0.019,0.041l0.002,0.024l-0.027,0.012l-0.036-0.025l-0.017-0.041l0.016-0.06
	L1298.143,224.749z M1298.31,225.24l0.014,0.009l-0.005,0.036l-0.007,0.022l-0.022,0.044l-0.031,0.027l-0.023-0.001l-0.045-0.02
	l-0.042-0.044l0.005-0.047l0.053-0.063l0.031-0.025l0.025,0.012l0.005,0.039l0.013,0.017L1298.31,225.24z M1298.894,232.929
	l0.007-0.019l0.024-0.021l0.025-0.007l0.036,0.045l0.066-0.025l0.042,0.004l0.019,0.024l0.002,0.036l0.029,0.02l0.048-0.006
	l0.044,0.007l0.025,0.036l0.001,0.033l-0.024,0.011h-0.019l-0.055,0.062l-0.038,0.035l-0.043,0.03l-0.036-0.006l-0.031-0.05
	l-0.01-0.043l0.015-0.037l-0.005-0.033l-0.026-0.007l-0.051,0.014l-0.037-0.031l-0.004-0.047L1298.894,232.929z M1298.116,226.114
	l0.01-0.021l-0.05-0.016l-0.072-0.034l-0.01-0.034l0.028-0.015l0.016-0.021l0.008-0.02l0.051-0.016l0.07-0.031l0.026-0.025
	l0.009-0.016l0.028-0.025l0.014,0.038l-0.021,0.171l0.04,0.086v0.053l-0.024,0.06l-0.059,0.04l-0.07-0.016l-0.07-0.041l-0.064-0.024
	l-0.046-0.028l-0.023-0.056l0.046-0.025l0.074,0.017l0.05,0.006L1298.116,226.114z M1298.895,232.13l0.092-0.018l0.072,0.064
	l-0.01,0.04l-0.029-0.02l-0.025-0.009l-0.017,0.012l-0.044,0.107l-0.006,0.017l0.029,0.105l0.029,0.045l0.014,0.053l-0.01,0.045
	l-0.025,0.025l-0.025-0.017l-0.01-0.058l-0.035-0.07l-0.019-0.011l-0.013-0.01l-0.02-0.002l-0.018-0.043l-0.03-0.013l-0.032,0.002
	l-0.034,0.033l-0.042,0.017l-0.025-0.037l0.008-0.065l0.025-0.067l0.041-0.051l0.025,0.001l0.008,0.032l0.043,0.05l0.021,0.005
	l0.025-0.005l0.021-0.007l0.004-0.024l-0.005-0.051L1298.895,232.13z M1298.773,233.138l0.063-0.016l0.063,0.004l0.055,0.023
	l0.041,0.038l0.021,0.05l-0.007,0.031l-0.019,0.026l-0.007,0.032l0.039,0.116l0.006,0.044L1299,233.49l-0.035-0.032l-0.11-0.055
	l-0.05-0.044l-0.001-0.023l0.005-0.035l-0.004-0.031l-0.027-0.011l-0.06-0.009l-0.013-0.034l0.022-0.043L1298.773,233.138z
	 M1298.688,232.57l0.019,0.031l0.002,0.044l-0.037,0.022l-0.041-0.003l-0.02-0.025l-0.007-0.063l0.007-0.021l0.018-0.003
	l0.047,0.006L1298.688,232.57z M1298.341,226.32l0.071-0.054l-0.021-0.069l-0.046-0.085l-0.028-0.083l0.004-0.126l0.006-0.025
	l0.047-0.026l0.045,0.005l0.05,0.013l0.059,0.003l0.089-0.021l0.053-0.004l0.024,0.017l0.02,0.028l0.085-0.043l0.047,0.009
	l0.018,0.054l-0.024,0.059l-0.019,0.061l0.04,0.063l0.016,0.059l-0.08,0.047l-0.171,0.065l-0.025,0.064l0.04,0.043l0.077,0.022
	h0.094l0.041,0.018l0.008,0.051l-0.012,0.058l-0.018,0.036l-0.037,0.028l-0.03,0.009l-0.038,0.006l-0.055,0.015l-0.311,0.144
	l-0.076,0.023h-0.077l-0.085-0.032l-0.023-0.024l-0.01-0.028l-0.016-0.021l-0.101-0.004l-0.029-0.019l-0.053-0.052l-0.03-0.045
	l0.011-0.056l0.036-0.055l0.052-0.035l0.058-0.003l0.06,0.024l0.095,0.071l0.028-0.019l0.074-0.028l0.037-0.026l0.018-0.034
	L1298.341,226.32z M1297.396,223.568l0.038-0.028l0.04-0.022l0.058-0.007l0.055,0.007l0.155,0.037l-0.035-0.071l-0.028-0.032
	l0.007-0.014l0.072-0.013l0.053-0.003l0.058,0.008l0.035,0.027l-0.014,0.053l0.056-0.028l0.093-0.062l0.066-0.02l0.015,0.026
	l-0.013,0.067l-0.026,0.074l-0.023,0.046l0.063,0.002l0.035,0.007l0.081,0.053l0.06,0.013l0.026-0.048l0.017-0.064l0.03-0.035
	l0.057,0.051l0.117,0.254l0.017,0.079l-0.107-0.112l-0.017,0.056l-0.036,0.024l-0.053,0.004l-0.067-0.009l0.073,0.106l-0.019,0.037
	l-0.049,0.022l-0.05,0.005l-0.026-0.02l-0.03-0.088l-0.053-0.02l-0.067,0.007l-0.08-0.008l-0.022,0.055l0.05,0.031l0.075,0.124
	l0.055,0.051l-0.058,0.051l-0.05,0.061l-0.058,0.051l-0.082,0.022l-0.054-0.017l-0.052-0.042l-0.044-0.05l-0.026-0.045l-0.047-0.132
	l-0.004-0.039l0.018-0.063l0.023-0.052l0.017-0.053l-0.003-0.068l-0.027,0.003l-0.035,0.074l-0.061,0.048l-0.072,0.028l-0.068,0.014
	l-0.002-0.048l-0.178-0.237l-0.074,0.055l-0.082-0.009l-0.053-0.049l0.016-0.069l0.034-0.021l0.042-0.007l0.166,0.001l0.025-0.006
	L1297.396,223.568z M1298.113,233.013l0.011-0.033l-0.009-0.047l0.005-0.033l0.02-0.017l0.019-0.012l0.021-0.006l0.042-0.004
	l0.018,0.015l0.011,0.016l-0.006,0.021l-0.031,0.036l-0.008,0.017l0.012,0.019v0.017l-0.019,0.008l-0.005,0.014l0.002,0.019
	l-0.008,0.006l-0.022-0.024l-0.006,0.011l0.006,0.015l-0.004,0.017l-0.021-0.004l-0.021-0.027L1298.113,233.013z M1297.169,223.197
	l0.008,0.018l-0.017,0.011l-0.074,0.029l-0.025,0.032l-0.021,0.013h-0.031l-0.035,0.018l-0.032,0.023l-0.032-0.005l-0.026-0.036
	l-0.011-0.041l0.005-0.038l0.053-0.033l0.111-0.015l0.092,0.004L1297.169,223.197z M1297.9,232.871l0.019-0.036l-0.014-0.03
	l-0.022-0.033l0.008-0.023l0.02-0.009l-0.003-0.018l-0.009-0.021l0.027-0.014l0.028,0.022l0.005,0.033l0.018,0.013l0.023-0.003
	l0.036-0.044l0.011-0.035l-0.001-0.038l0.027-0.024l0.037-0.016l0.023-0.021l0.033-0.011l0.042,0.009l0.015,0.014l-0.013,0.01
	l-0.006,0.044l-0.021,0.019l-0.023,0.018l-0.038,0.004l-0.022-0.004l-0.005,0.026l-0.005,0.093l-0.015,0.023v0.033l-0.001,0.015
	l-0.013,0.018l-0.008,0.021l-0.021,0.022l-0.086,0.048l-0.037-0.018l-0.02-0.044L1297.9,232.871z M1298.118,233.121l0.036,0.009
	l0.008,0.019l-0.015,0.1l0.009,0.034l-0.009,0.014l-0.008,0.009l-0.006,0.01l-0.001,0.017l-0.142-0.012l-0.043-0.015l-0.018-0.023
	l-0.019-0.042l-0.023-0.038l-0.031-0.015l-0.062-0.021l-0.049-0.061l-0.025-0.072l0.008-0.058l0.076,0.103l0.04,0.021l0.043-0.002
	l0.043-0.021l0.072-0.058l0.021,0.037l0.044,0.036L1298.118,233.121z M1295.606,232.703l0.025-0.012l0.034,0.011l0.063,0.06
	l0.055,0.038l0.024,0.025l0.013,0.011l0.007,0.02l-0.016,0.017l-0.026,0.016l-0.028-0.004l-0.024-0.035l-0.006,0.005l-0.011,0.02
	l-0.011-0.008l-0.014-0.018l-0.02-0.011l-0.006-0.021l-0.008-0.013l-0.023,0.009l-0.001-0.015l0.002-0.042l-0.024-0.024
	l-0.015-0.011L1295.606,232.703z M1291.799,232.791l0.028,0.001l0.021,0.001l0.042-0.014l0.076-0.036l0.068-0.057l0.065-0.029
	l-0.013,0.036l0.028,0.157l-0.002,0.052l-0.063,0.017l-0.026-0.014l-0.028-0.024l-0.04-0.01l0.063,0.078l-0.015,0.042l-0.066-0.003
	l-0.096-0.055l-0.024,0.028l0.063,0.042l-0.037,0.021l0.023,0.035l-0.106-0.007l-0.159,0.032l-0.094,0.028l-0.119,0.051
	l-0.042-0.026l-0.065-0.056l-0.031-0.066l0.069-0.056l0.027-0.009l0.032,0.011l0.024,0.024l0.03-0.006l0.127-0.077l0.041-0.014
	l0.037,0.011l0.03-0.021l0.019-0.043l0.05-0.038l0.01,0.075l0.026-0.003l0.002-0.024L1291.799,232.791z M1285.561,213.759
	l0.008,0.001l-0.003,0.006l-0.008-0.002L1285.561,213.759z M1288.616,234.038l0.029,0.011l0.05,0.041l0.018,0.03l0.011,0.041
	l-0.011,0.036l-0.037,0.028l-0.021,0.011l0.003,0.009l0.018,0.024l-0.005,0.016l-0.015,0.001l-0.072-0.003l-0.062-0.012
	l-0.038-0.021l0.016-0.031l0.039-0.03l0.018-0.027l0.035-0.093L1288.616,234.038z M1288.44,232.92l0.039,0.027l0.014,0.038
	l-0.016,0.03l0.005,0.029l-0.011,0.024l-0.054,0.015h-0.057l-0.044-0.024l-0.04-0.058l-0.003-0.082l0.02-0.039l0.052-0.02
	l0.02,0.013l0.018,0.036l0.03,0.011H1288.44z M1288.235,232.603l0.033-0.019l0.019-0.044l0.02-0.07l0.016-0.021l0.02-0.011
	l0.037-0.014l0.042,0.015l0.163,0.162l0.021,0.082l-0.022,0.001l-0.057-0.032l-0.03-0.002l-0.023,0.02l-0.058-0.041l-0.051,0.005
	l-0.063,0.026l-0.041,0.031l-0.026,0.029l-0.01-0.006l0.021-0.062l-0.049-0.044l0.002-0.011L1288.235,232.603z M1287.259,232.708
	l0.028-0.017l0.021-0.012l0.011,0.018l0.025,0.028l0.018,0.01l0.021,0.06l-0.001,0.028l0.022,0.035l0.046,0.078l0.044,0.039
	l0.046,0.02l0.133,0.14l-0.003,0.035l0.007,0.032l-0.002,0.015l-0.052,0.021l-0.013,0.03l0.014,0.01l0.007,0.012l-0.01,0.005
	l-0.016-0.004l-0.02,0.012v0.021l0.02,0.013l0.019,0.02l-0.008,0.028l-0.005,0.039l-0.023-0.021l-0.023,0.011l-0.031,0.042
	l-0.021,0.013l-0.035-0.011l-0.009-0.02l0.012-0.031l-0.13-0.146l-0.025-0.113l-0.008-0.077l-0.046-0.067l-0.101-0.014l-0.024-0.047
	l0.034-0.045l0.007-0.021l0.009-0.022l0.006-0.021l-0.002-0.02l0.002-0.021l0.01-0.031l0.013-0.016l0.02-0.015L1287.259,232.708z
	 M1285.194,217.388l0.046,0.063l-0.002,0.094l-0.037,0.098l-0.059,0.069l-0.087,0.033l-0.072-0.02l-0.053-0.057l-0.042-0.125
	l-0.046-0.079l-0.015-0.041l0.034-0.069l0.112-0.014l0.131,0.02L1285.194,217.388z M1286.963,235.875l0.012,0.02l-0.022,0.014
	l-0.052,0.025l-0.038-0.001l-0.007-0.027v-0.038l0.022-0.028l0.049,0.006L1286.963,235.875z M1286.665,233.513l0.014,0.069
	l-0.154,0.259l-0.032-0.028l-0.035-0.01l-0.086-0.012l-0.021-0.008l-0.024-0.014l-0.019-0.018l-0.009-0.02l0.006-0.015l0.013-0.009
	l0.018-0.008l0.079-0.02l0.015-0.006l0.027-0.02l0.021-0.026l0.034-0.052l0.029-0.047l0.033-0.038l0.041-0.011L1286.665,233.513z
	 M1286.036,233.917l0.032-0.07l-0.011-0.069l0.003-0.064l0.032-0.037l0.079,0.015l0.062,0.055l0.014,0.077l-0.013,0.149l0.017,0.03
	l0.024,0.037l0.006,0.034l-0.046,0.02l-0.017-0.006l-0.126-0.025l-0.046-0.039l-0.018-0.047L1286.036,233.917z M1286.743,232.938
	l0.098,0.028l0.034,0.032l0.006,0.026l-0.006,0.022l-0.035,0.042l-0.014,0.027l0.01,0.019l0.017,0.013l0.009,0.012l0.033,0.183
	l-0.023,0.072l-0.087,0.083l-0.041-0.105l-0.02-0.023l-0.049-0.024l-0.021,0.006l-0.011,0.021l-0.021,0.021l-0.221,0.152
	l-0.035,0.011l-0.048-0.007l-0.207,0.028l-0.049-0.009l-0.017-0.032l-0.104-0.072l-0.025-0.062l0.033-0.061l0.056-0.06l0.042-0.059
	l0.042-0.12l0.04-0.049l0.067-0.026h0.035l0.062,0.011l0.026,0.001l0.029-0.012l0.055-0.039l0.031-0.011l0.157-0.03l0.037,0.007
	l0.021-0.023l0.044-0.024l0.02-0.014L1286.743,232.938z M1286.657,239.359l0.016,0.025v0.028l0.012,0.021l0.02,0.017l0.005,0.009
	l-0.012,0.001h-0.005l-0.021,0.013l-0.034,0.031l-0.034-0.007l-0.053-0.054l-0.043-0.034l-0.016-0.017v-0.025l0.012-0.029
	l0.026-0.007l0.041,0.011l0.046,0.006L1286.657,239.359z M1285.904,239.37l0.043-0.043h0.064l0.039,0.044l-0.032,0.071l0.017,0.088
	l0.01,0.018l0.046-0.006l0.014-0.036l0.003-0.041l0.015-0.021l0.063,0.066l-0.005,0.143l-0.078,0.115l-0.158-0.022l0.021-0.09
	l-0.086-0.186L1285.904,239.37z M1282.32,226.583l0.556-0.392l0.597-0.33l0.063-0.048l0.135-0.148l0.121-0.066l0.738-0.704
	l0.292-0.274l0.257-0.315l0.026-0.043l0.184-0.215l0.089-0.021l0.107-0.017l0.088-0.036l0.049-0.134l0.068-0.047l0.315-0.151
	l0.07-0.058l0.024-0.06l0.04-0.053l0.287-0.208l0.104-0.114l0.063-0.043l0.067-0.023l0.063-0.035l0.159-0.198l0.145-0.077
	l0.323-0.098l0.173-0.094l0.223-0.22l0.05-0.022l0.055,0.014l0.053,0.026l0.051,0.013l0.043-0.004l0.133-0.046l0.387-0.09
	l0.177-0.06l0.351-0.174l0.18-0.037l0.173,0.012l0.163,0.059l0.19,0.039l0.007-0.002l0.17-0.044l0.173-0.075l0.178-0.047
	l0.378-0.033l0.083,0.011l0.149,0.091l0.081,0.032l0.089,0.006l0.531-0.063l0.07-0.022l0.037-0.029l0.013-0.026l0.019-0.022
	l0.146-0.043l0.109-0.044l0.017-0.032l0.021-0.023l0.07,0.003l0.043,0.024l0.023,0.035l0.017,0.034l0.058,0.052l0.061-0.005
	l0.058-0.086l0.053-0.064l0.061-0.068l0.001-0.076l-0.085-0.082l-0.281-0.193l-0.079-0.033l0.038-0.067l0.073-0.024l0.073-0.037
	l0.086-0.032l0.094,0.043l0.275,0.092l0.115-0.007l0.306-0.006l0.274,0.056l0.162-0.03l0.297,0.054l0.149,0.051l0.073,0.021
	l0.074-0.042l0.033-0.04l0.039-0.031h0.097l0.116-0.01h0.173l0.077,0.026l0.088,0.048l0.038,0.051l-0.074,0.036l-0.098,0.036
	l-0.068,0.059l-0.006,0.052l0.09,0.018l0.005-0.051l0.032-0.035l0.052-0.022l0.063-0.012l0.06,0.007l0.02,0.036l0.011,0.041
	l0.033,0.025l0.03-0.01l0.081-0.017l0.082-0.027l0.059,0.026l0.058,0.022l0.038-0.036l0.021-0.029l0.061-0.003l0.035,0.071
	l0.051,0.065l0.113,0.087l0.009,0.085l0.066,0.01l0.082-0.006l0.045,0.016l0.039,0.02l0.058-0.03l0.024-0.004l0.087,0.029
	l0.13,0.042l0.086,0.053l0.077,0.025l0.053,0.018l0.006,0.056l0.005,0.042l0.016,0.05l0.004,0.038l0.022,0.037l0.011,0.043
	l0.062-0.006l0.04-0.035l0.05-0.012l0.062,0.01l0.049,0.076l-0.047,0.075l-0.027,0.045l-0.032,0.035l0.114,0.081l0.086,0.032
	l0.089,0.001l0.025,0.027l-0.042,0.025l-0.039,0.05l0.04-0.01l0.088-0.022l0.004,0.028l-0.027,0.017l-0.006,0.017l0.03,0.034
	l0.027,0.032l-0.026,0.029l-0.095,0.044h-0.09l-0.118-0.011l-0.063,0.004l-0.012,0.019l0.053,0.026l0.208,0.084l0.011,0.05
	l-0.089,0.015l-0.084,0.01v0.024l0.073,0.021l0.108,0.01l0.003,0.093l0.037,0.241l-0.078,0.024l-0.04,0.031l0.127,0.016l0.022,0.035
	l-0.027,0.09l-0.067,0.05l0.002,0.045l0.049,0.05l-0.191,0.026l-0.013,0.018l0.017,0.03l0.044,0.021l0.068-0.007l-0.037,0.064
	l-0.058,0.055l-0.033,0.055l0.039,0.069l-0.064-0.007l-0.084,0.043l-0.033-0.01l-0.11,0.052l-0.01,0.024l0.044,0.036l0.076,0.036
	l0.047-0.006l0.088-0.06l0.112-0.042l0.039-0.021l0.049-0.038l0.072-0.072l0.039-0.016l0.061,0.01v-0.029l0.013-0.048l0.004-0.026
	l0.025,0.028l0.012,0.032l0.011,0.074l-0.003,0.04l-0.021,0.014l-0.03,0.006l-0.025,0.016l-0.032,0.041l-0.017,0.027l-0.04,0.207
	l0.004,0.056l0.038,0.117l0.021,0.031l0.029-0.006l0.053-0.05l0.022,0.066l0.079,0.116l0.058,0.139l0.058,0.01l0.062-0.001
	l0.044,0.034l0.03-0.004l-0.238-0.338l-0.013-0.061l0.075-0.023l0.054-0.03l0.05-0.014l0.062,0.021l0.031,0.043l0.021,0.069
	l0.007,0.071l-0.013,0.05l0.046,0.019l0.018-0.02l0.015-0.036l0.035-0.03l0.021-0.006l0.032-0.006l0.092-0.007l0.183,0.002
	l0.027-0.038l-0.015-0.031l-0.038-0.02l-0.045-0.006l0.051-0.057l0.096,0.038l0.132,0.076l0.035,0.078l0.007,0.111l-0.066,0.007
	l-0.011-0.07l-0.01-0.03l-0.032-0.013l0.006,0.23l-0.013,0.049l-0.063,0.063l-0.035,0.013l-0.029-0.034l-0.043-0.08l-0.151,0.105
	l0.065,0.053l0.121,0.044l0.018,0.084l-0.093,0.091l-0.02,0.043l0.003,0.084l0.026,0.034l0.055,0.012l0.068-0.001l0.065-0.01
	l-0.004,0.078l0.031,0.169l-0.029,0.071l-0.022,0.011l-0.063,0.01l-0.017,0.006l-0.002,0.018l0.013,0.04l-0.005,0.055l0.003,0.086
	l-0.012,0.033l-0.033,0.021l-0.034,0.003l-0.033-0.005l-0.031-0.002l-0.323,0.049l-0.053,0.001l-0.026-0.007l-0.034-0.014
	l-0.044-0.01l-0.055,0.002l0.076,0.048l0.084,0.036l0.065,0.05l0.02,0.086l0.146-0.087l0.037,0.041l0.01,0.1l0.071,0.086
	l-0.101,0.052l-0.04,0.029l-0.025,0.044l0.143-0.007l0.116,0.024l0.077,0.068l0.021,0.096l-0.01,0.041l-0.004,0.036l0.006,0.028
	l0.023,0.02l-0.037,0.059l-0.005,0.04l-0.004,0.025l0.021,0.147l-0.002,0.051l-0.02,0.022l-0.032,0.014l-0.04,0.026l-0.026,0.046
	l0.033,0.005l0.053-0.013l0.021-0.01l0.085,0.015l0.028,0.012l0.043,0.029l0.126,0.123l0.043,0.072l-0.039,0.062l-0.13,0.086
	l-0.015,0.06l0.061,0.033l0.09,0.008l0.073-0.014l0.073-0.044l0.093-0.069l0.079-0.076l0.029-0.063l0.048-0.048l0.012-0.04
	l-0.033-0.042l-0.118-0.1l-0.021-0.077l0.004-0.068l-0.004-0.063l-0.044-0.065l0.086-0.007l0.063,0.004l0.129,0.021l0.224,0.013
	l0.055,0.024l0.058,0.123l-0.037,0.109l-0.007,0.083l0.153,0.048l-0.012,0.024l0.002,0.005l0.01,0.004l0.005,0.017l0.055-0.036
	l0.06-0.03l0.192-0.053l0.038,0.013l-0.016,0.04l-0.055,0.068v0.089l-0.027,0.07l-0.059,0.05l-0.097,0.03l-0.095-0.01l-0.097-0.036
	l-0.091-0.024l-0.072,0.027l-0.037,0.035l-0.116,0.074l-0.008,0.017l0.002,0.021v0.022l-0.017,0.019l-0.022,0.005l-0.026-0.003
	l-0.019-0.008l-0.108,0.07l-0.041,0.014h-0.026l-0.045-0.01h-0.022l-0.023,0.01l-0.018,0.02l-0.003,0.018l0.02,0.006l0.011,0.011
	l0.164,0.042l0.036,0.02l0.011,0.012l0.003,0.019l0.059,0.119l0.018,0.071l0.017,0.158l0.025,0.057l0.032-0.052l0.029-0.1
	l0.013-0.081l0.027-0.003l0.067,0.149l0.054,0.072l0.061,0.006l0.021-0.034l-0.035-0.066l0.011-0.038l0.038-0.031l0.016,0.005
	l0.008,0.02l0.014,0.008l0.167-0.073l0.081-0.117l0.058-0.124l0.102-0.093l-0.001,0.038l0.007,0.065l0.009,0.026l0.041-0.164
	l0.046-0.027l0.089-0.022l0.039,0.03l0.035,0.034l0.006,0.07l0.017,0.045l-0.081,0.18l-0.011,0.055l0.015,0.046l0.033,0.056
	l0.041,0.045l0.036,0.016l0.014-0.01l0.085-0.055l0.004-0.054l0.018-0.033l-0.053-0.135l0.055-0.084l0.179,0.153l0.094,0.051
	l-0.023,0.071l0.093,0.096l0.074-0.022l0.045-0.053l0.013,0.101l-0.177,0.175l-0.098,0.064l-0.13,0.156l0.015,0.04l0.093,0.136
	l0.042-0.02l0.017-0.013l-0.014,0.063l-0.004,0.059l-0.02,0.052l-0.059,0.042l-0.064,0.012l-0.04-0.019l-0.057-0.075l-0.026-0.024
	l-0.104-0.062l-0.1-0.033l-0.036-0.022l-0.032-0.05l0.074-0.005l0.073,0.009l0.134,0.037l-0.02-0.106l-0.044-0.085l-0.079-0.044
	l-0.13,0.018l-0.047,0.028l-0.025,0.032l-0.032,0.025l-0.065,0.011l-0.037-0.016l-0.127-0.09l0.015-0.04l0.023-0.029l0.034-0.01
	l0.043,0.014l0.055-0.029l0.036-0.036l0.01-0.044l-0.028-0.054l-0.034-0.02l-0.111-0.037l-0.049-0.022l-0.069,0.061l-0.075,0.029
	l-0.031,0.031l0.062,0.062l0.042,0.076l-0.045,0.072l-0.133,0.108l0.086,0.042l0.195,0.05l0.068,0.043l0.028,0.051l0.003,0.044
	l-0.009,0.093l0.021,0.041l0.042,0.036l0.093,0.056l0.028,0.027l0.094,0.124l0.063,0.065l0.031,0.043l0.019,0.043l0.017,0.026
	l0.036,0.002l0.049-0.008l0.051,0.001l0.039,0.02l0.044,0.029l0.048,0.011l0.054-0.034l0.22,0.178l0.18-0.029l0.034,0.03
	l-0.036,0.104l0.041,0.028l0.046,0.009l0.046-0.007l0.049-0.027l-0.009,0.05l-0.061,0.111l-0.023,0.145l-0.016,0.035l-0.081,0.038
	l-0.223,0.011l-0.084,0.025l-0.058-0.013l-0.065,0.012l-0.057,0.031l-0.026,0.045l0.016,0.038l0.043,0.036l0.05,0.024l0.043,0.007
	l0.059-0.022l0.051-0.03l0.035-0.006l0.051,0.109l0.052-0.021l0.094-0.094l0.097,0.131l0.053,0.046l0.016-0.057l0.008-0.014
	l0.021-0.005l0.021,0.001l0.012,0.012l-0.002,0.022l-0.018,0.036l-0.002,0.019l0.013,0.047l0.021,0.007l0.032-0.003l0.046,0.013
	l0.021,0.027l0.04,0.105l0.039,0.037l0.029,0.012l0.305,0.054l0.044,0.001l0.05-0.005l-0.008,0.092l0.074,0.161l-0.004,0.043
	l-0.052,0.012l-0.109-0.021l-0.048,0.012l-0.024,0.037l-0.004,0.047l0.016,0.095l-0.027,0.003l-0.026-0.017l-0.02-0.004
	l-0.069,0.001l-0.003-0.012l0.003-0.018l-0.013-0.014l-0.099-0.04l-0.045-0.005l-0.043,0.019l-0.013,0.02l-0.006,0.028v0.055
	l-0.007,0.04l-0.023,0.008l-0.022-0.008l-0.007-0.007l-0.058,0.005l-0.055-0.007l-0.028,0.009l0.026,0.057l-0.107-0.004
	l-0.061-0.066l-0.03-0.095l-0.013-0.091l-0.031,0.021l-0.023,0.025l-0.016,0.031l-0.007,0.036l-0.046-0.054l-0.051-0.03
	l-0.041,0.004l-0.02,0.047l0.008,0.015l0.044,0.028l0.019,0.022l0.004,0.03l-0.024,0.051l0.002,0.024l0.022,0.02l0.031,0.011
	l0.041,0.008l0.012,0.032l0.002,0.031l-0.002,0.036l0.01,0.078l0.013,0.042l0.026,0.051l-0.067,0.015l-0.037,0.036l-0.033,0.092
	h-0.013l-0.033,0.022l-0.02,0.025l0.03,0.007l0.018,0.01l0.018,0.023l0.009,0.029l-0.007,0.023l-0.063,0.084l-0.003,0.01
	l-0.043,0.018l-0.013-0.005l-0.008-0.014l-0.026-0.011l0.02-0.017l-0.004-0.037l-0.023-0.023l-0.043,0.021l-0.036,0.103
	l-0.048,0.082l-0.124,0.021l-0.144-0.015l-0.102-0.027h-0.034l-0.04,0.008l-0.034-0.001l-0.018-0.027v-0.028l0.005-0.029
	l0.012-0.023l0.049-0.029l0.152-0.13l0.05,0.029l0.044,0.006l0.044-0.011l0.046-0.018l0.201-0.1l0.021-0.048l0.01-0.184l0.044-0.083
	l-0.009-0.042l-0.079-0.021l0.011,0.04l-0.008,0.024l-0.008,0.076l-0.05,0.042l-0.042,0.051l-0.102-0.001l0.015,0.047l0.064,0.015
	l0.008,0.038l-0.079,0.032l-0.107,0.023l-0.066-0.02l-0.073,0.03l-0.021-0.099l0.015-0.156l0.032-0.024l0.059,0.003l0.018-0.003
	l0.017-0.001l0.026-0.011l0.019-0.041l0.028-0.026l0.024-0.05l0.019-0.069l0.033-0.043l0.029-0.056l0.021-0.041l-0.021-0.015
	l-0.091,0.088l-0.015-0.044l0.03-0.072l0.037-0.093l0.021-0.109l-0.027-0.074l-0.004,0.079l-0.032,0.067l-0.082,0.12l-0.035-0.022
	l-0.048,0.085l-0.137,0.137l-0.024,0.07l-0.007,0.093l0.019,0.106l-0.04,0.08l0.035,0.089l-0.018,0.087l-0.039,0.015l-0.071-0.044
	l-0.025-0.049l0.004-0.11l-0.077-0.131l0.103-0.181l-0.017-0.054l0.007-0.015l0.008-0.011l0.007-0.01l0.005-0.018l-0.083,0.026
	l-0.077,0.002l-0.062-0.037l-0.031-0.086l0.029-0.173l-0.004-0.085l-0.052,0.032l-0.034-0.052l-0.01-0.03l-0.004-0.038l-0.055,0.062
	l-0.005,0.084l0.039,0.186l-0.045-0.009l-0.027,0.008l-0.028,0.013l-0.047,0.005l-0.029-0.009l-0.024-0.018l-0.028-0.012
	l-0.045,0.004l-0.061,0.037l-0.01,0.052l0.031,0.051l0.06,0.033l0.035,0.001l0.071-0.033l0.039-0.01l0.006,0.006l0.092,0.032
	l0.153,0.024l0.056,0.032l0.014,0.071l-0.01,0.001l-0.015,0.024l-0.024-0.011l-0.048-0.014l-0.024-0.013l-0.02,0.053l0.018,0.031
	l0.032,0.029l0.021,0.046l-0.011,0.1l0.018,0.029l0.046,0.001l0.005,0.049l0.035,0.075l-0.016,0.041l-0.044,0.018l-0.047-0.021
	l-0.082-0.066l-0.043-0.022l-0.033-0.011l-0.03-0.003l-0.034,0.003l-0.064,0.018l-0.033-0.01l-0.047-0.042l-0.029,0.049
	l-0.069,0.048l-0.082,0.032l-0.073,0.001l-0.051-0.045l-0.055-0.063l-0.041-0.018l-0.01,0.094l0.012,0.04l0.023,0.022l0.023,0.018
	l0.013,0.025l0.022,0.034l0.042-0.01l0.047-0.024l0.042-0.006l0.051,0.045l0.013,0.066l-0.014,0.066l-0.024,0.048l-0.027-0.032
	l-0.009-0.015l-0.019,0.035l-0.024,0.03l-0.03,0.026l-0.037,0.022l-0.025-0.039l-0.003-0.042l0.01-0.092l-0.093,0.021l-0.111-0.089
	l-0.089,0.038l-0.129,0.119l-0.05,0.07l-0.016,0.072l0.095-0.041l0.06,0.019l0.007,0.052l-0.062,0.059l-0.049-0.028l-0.113,0.107
	l-0.07,0.021l-0.066-0.045l-0.018-0.073l0.026-0.07l0.065-0.037l-0.035-0.042l-0.053-0.02l-0.103-0.018l0.046-0.032l0.042-0.009
	h0.082l0.042,0.011l0.025,0.002l0.026-0.01l-0.002-0.015l-0.009-0.017l0.006-0.011l0.058-0.021l0.023-0.006l0.014-0.016l0.02-0.046
	l0.009-0.036l-0.005-0.062l0.012-0.029l0.053,0.016l0.048-0.013l0.04-0.031l0.035-0.043l-0.215-0.067l-0.069-0.002l-0.078,0.011
	l-0.026,0.021l-0.009,0.07l-0.013,0.031l-0.021,0.026l-0.094,0.048l-0.123,0.135l-0.06,0.035l-0.023-0.005l-0.02-0.015l-0.025-0.015
	l-0.041-0.003l-0.022,0.041l-0.032,0.022h-0.062l0.024,0.044l0.012,0.047l0.014,0.103l-0.054-0.035l-0.022-0.064l-0.014-0.075
	l-0.022-0.064l-0.006,0.022l-0.009,0.013l-0.007,0.014l-0.002,0.029l-0.042-0.012l-0.025-0.019l-0.021-0.022l-0.028-0.021
	l-0.033-0.008l-0.028,0.009l-0.026,0.015l-0.03,0.009l-0.069-0.004l-0.071-0.023l-0.128-0.064l0.02-0.024l0.062-0.062l0.012-0.066
	l-0.005-0.032l-0.031,0.012l-0.12,0.135l-0.044,0.023l-0.107-0.014l-0.135-0.047l-0.236-0.071l-0.127-0.069l-0.056-0.113
	l-0.042-0.131l-0.02-0.113l-0.048-0.048l-0.079-0.042l-0.026-0.069l0.063-0.073l0.072-0.076l0.011-0.05l-0.157,0.067l-0.07,0.042
	l-0.024,0.059l0.143,0.501l-0.088,0.19l-0.12,0.003l-0.047,0.003l-0.051-0.08l-0.081-0.065l-0.084-0.059l-0.075-0.101l-0.087-0.123
	l-0.151-0.084h-0.132l-0.039-0.051l-0.031-0.038l-0.021-0.019l-0.028-0.127l0.001-0.128l0.052-0.088l0.007-0.058l0.061-0.046
	l-0.038-0.011l-0.051-0.006l-0.052,0.001l-0.032,0.052l-0.02,0.036l-0.025,0.072l-0.043,0.084l-0.039,0.069l-0.013,0.036
	l-0.039-0.005l-0.044-0.025l-0.027-0.026l-0.013-0.032l-0.011-0.202l-0.009-0.043l-0.02-0.031l-0.043-0.017l-0.034-0.005
	l-0.022-0.014l-0.015-0.048l-0.017-0.013l-0.03,0.021l-0.027,0.043l-0.01,0.044l0.01,0.01l0.137,0.251l0.015,0.087l0.01,0.175
	l0.007,0.174l-0.074,0.01l-0.104,0.023l-0.024,0.037l-0.022,0.111l0.042,0.155l-0.129,0.031l-0.073-0.321l-0.044-0.173l-0.03-0.178
	l-0.042-0.053l0.012-0.064l-0.048-0.071l-0.115-0.119l-0.087-0.161l-0.058-0.064l-0.064,0.002l0.09,0.201l0.031,0.071l0.058,0.066
	l0.065,0.054l0.039,0.063l0.023,0.079l0.041,0.071l-0.02,0.058l-0.028,0.021l-0.038,0.01l-0.054,0.026l-0.043,0.035l-0.071,0.07
	l-0.05,0.039l-0.046-0.045l-0.024,0.026l-0.015,0.051l-0.009,0.047l-0.13,0.098l-0.019,0.066l0.032,0.045l0.003,0.021l-0.049,0.008
	l-0.041,0.086l0.02,0.069l0.085,0.011l0.029,0.009l-0.02,0.027l-0.129,0.001l-0.076-0.114l-0.046-0.104l0.025-0.154l-0.079,0.063
	l-0.031,0.034l-0.023,0.043l-0.004,0.025l0.021,0.027l-0.01,0.021l-0.025,0.03l-0.028,0.025l-0.213-0.05l-0.095-0.033l-0.04-0.048
	l-0.043,0.045l-0.027,0.158l-0.023,0.058l-0.055-0.047l-0.057-0.154l-0.05-0.028l-0.055,0.03l-0.009,0.058l0.014,0.117l-0.014,0.027
	l-0.045,0.048l-0.022,0.031l-0.029,0.004l-0.006-0.046l-0.091,0.065l-0.043-0.061l-0.031-0.071l-0.107-0.057l-0.057-0.142
	l-0.046-0.064l0.025,0.208l0.033,0.046l0.123,0.064l0.018,0.054l-0.038,0.042l-0.078,0.041l-0.08,0.031l-0.049,0.003l-0.095-0.063
	l-0.057-0.029l-0.022,0.014l0.033,0.066l-0.026,0.034l-0.014,0.029l-0.003,0.018l-0.037,0.021l-0.039-0.011l-0.04,0.007
	l-0.072,0.027l-0.029,0.025l-0.019,0.003l-0.008-0.048l-0.041-0.067l-0.007-0.075l-0.054,0.001l-0.05-0.015l-0.035,0.033
	l-0.003,0.043l-0.049,0.064l-0.056-0.03l-0.046-0.045l-0.057,0.04l-0.006,0.087l-0.069,0.026l-0.058-0.021l-0.023-0.082
	l-0.048,0.054l-0.024,0.02l-0.037,0.016l0.028,0.027l0.06,0.044l0.031,0.054l0.032,0.007l0.03-0.005l0.035-0.03l0.073-0.013
	l0.088,0.017l0.113-0.029l0.102,0.025l0.044,0.028l-0.042,0.072l0.005,0.069l-0.037,0.073l-0.238,0.011l-0.087-0.012l-0.015,0.043
	l-0.111,0.001l-0.042,0.043l0.018,0.056l0.06,0.026l0.071,0.001l0.055,0.02l0.011,0.08l0.063-0.041l0.095-0.076l0.068-0.032
	l0.038,0.035l0.034-0.01l0.074-0.068l0.018,0.053l0.03,0.042l0.042,0.035l0.049,0.025l-0.032,0.003l-0.032,0.007l-0.028,0.012
	l-0.023,0.016l-0.112-0.036l-0.156,0.123l-0.088-0.021l-0.117,0.04l0.043,0.062l0.129,0.081l0.034,0.067l0.013,0.039l0.018,0.035
	l0.008,0.036l-0.021,0.046l-0.019,0.012l-0.039,0.02l-0.039,0.01l-0.021-0.015l-0.016-0.147l-0.03-0.034l-0.065,0.008l-0.063,0.046
	l-0.021,0.057l-0.009,0.059l-0.033,0.05l0.055,0.013l0.109-0.002l0.054,0.013l0.042,0.038l-0.034,0.018l-0.109,0.008l-0.105,0.019
	l-0.03-0.006l-0.125-0.078l-0.042-0.012l-0.058-0.008l0.041-0.017l0.036-0.02l0.034-0.022l0.032-0.029l-0.019-0.017l-0.002-0.024
	l0.007-0.027l0.002-0.031l-0.048,0.043l-0.063,0.045l0.019-0.104l-0.016-0.04l-0.055-0.021l0.004,0.091l-0.019,0.058l-0.054,0.014
	l-0.101-0.048l-0.056,0.087l-0.061,0.001l-0.057-0.056l-0.041-0.082l0.11,0.01l0.027-0.013l0.005-0.049l-0.013-0.087l-0.018-0.022
	l-0.043-0.019l-0.099,0.005l-0.132,0.025l-0.108-0.004l-0.035-0.08l0.062,0.003l0.094-0.013l0.094-0.027l0.109-0.056l0.044,0.017
	l0.04,0.031l0.04,0.016l0.04-0.005l0.062-0.03l0.018-0.005l0.022,0.018l0.049,0.059l0.013,0.012l0.037-0.008l0.039-0.017
	l0.021-0.021l-0.014-0.024l-0.062-0.053l-0.007-0.044l0.057-0.11l-0.146,0.091l-0.096,0.037l-0.048-0.033l0.064-0.064l0.019-0.038
	l-0.049-0.01l-0.017-0.013l-0.019-0.035l-0.026-0.069l-0.026,0.003l-0.002,0.029l-0.021,0.071l-0.026,0.004l-0.03-0.083
	l-0.086-0.041l-0.101-0.001l-0.069,0.036l-0.006,0.032l0.009,0.093l-0.013,0.048l-0.037,0.039l-0.038,0.016l-0.017-0.016l0.03-0.054
	l-0.07-0.015l-0.037,0.03l-0.011,0.055l0.013,0.065l-0.036-0.022l-0.028-0.032l-0.012-0.038l0.016-0.036l0.021-0.037l0.002-0.03
	l-0.014-0.012l-0.031,0.02l-0.033,0.003l-0.018-0.129l0.014-0.065l0.056-0.033l0.037,0.014l0.042,0.03l0.053,0.014l0.067-0.031
	l-0.035-0.027l-0.025-0.038l-0.003-0.035l0.033-0.019l0.031-0.007l0.025-0.02l0.029-0.007l0.013,0.004l0.041,0.028l0.028,0.007
	l0.195-0.022l0.055-0.019l0.037-0.031l0.011-0.028l-0.021-0.009l-0.111-0.001l-0.216-0.041l-0.105-0.002l-0.025-0.016l0.023-0.046
	l0.06-0.069l0.044-0.031l0.042-0.024l0.025-0.03l-0.004-0.05l-0.027,0.003l-0.029,0.028l-0.086,0.041l-0.042,0.033l-0.199,0.243
	l-0.01,0.018l-0.05-0.007l0.002-0.031l0.029-0.04l0.063-0.064l0.023-0.033l0.012-0.039l-0.006-0.043l-0.022-0.031h-0.031
	l-0.024,0.028l-0.006,0.051l-0.023,0.071l-0.06,0.081l-0.097,0.044l-0.067,0.017l-0.01-0.064l0.021-0.06l0.037-0.056l0.043-0.077
	l0.036-0.073l0.025-0.031l0.029-0.058l0.021-0.056l0.056-0.042l0.062,0.009l0.044,0.03l0.03-0.01l0.062-0.043l0.042-0.009
	l0.072,0.004l-0.031-0.035l-0.034-0.012l-0.037-0.005l-0.105,0.027l-0.037-0.011l-0.04-0.018l-0.064-0.025l-0.034-0.056
	l-0.008-0.054v-0.063l0.017-0.07l0.013-0.088l0.031-0.067l0.067-0.083l0.093-0.016l0.195,0.033l-0.033-0.039l-0.093-0.057
	l-0.011-0.036l0.033-0.03l0.062-0.022l0.124-0.023l0.027,0.001l0.062,0.009l0.034-0.001l0.035-0.011l0.049-0.037l0.132-0.047
	l0.04,0.006l0.025,0.055l0.034-0.015l0.024-0.017l0.015-0.022l0.01-0.031l-0.102-0.009l-0.062-0.027l-0.065-0.011l-0.106,0.043
	l0.012-0.075v-0.076l-0.117,0.138l-0.07,0.045l-0.039-0.068l-0.02-0.064l-0.081-0.146l-0.1-0.103l-0.031-0.051l-0.048-0.032
	l-0.109-0.012l-0.018,0.01l-0.03,0.037l-0.008,0.007l-0.02-0.017l-0.006-0.019l-0.001-0.019l-0.032-0.046l-0.01-0.031l-0.019-0.021
	l-0.051-0.003l0.085,0.205l0.049,0.027l0.134-0.028l0.033,0.021l0.037,0.079l-0.001,0.119l-0.063,0.149l-0.107,0.141l-0.11,0.062
	l-0.05-0.208l-0.026,0.003l-0.005,0.016l-0.021,0.036l-0.01-0.04l-0.003-0.038l0.008-0.036l0.019-0.033l-0.08,0.025l-0.068,0.057
	l-0.081,0.045l-0.118-0.011l-0.014,0.042l0.044,0.026l0.072,0.01l0.071-0.002l0.078,0.007l0.022,0.032l-0.029,0.037l0.022,0.065
	l0.026,0.066l-0.028,0.168l-0.05,0.005l-0.042,0.021l-0.061-0.006l-0.074,0.016l-0.079-0.032l-0.072-0.042l-0.033-0.052l-0.03-0.058
	l-0.012-0.089l-0.039-0.093l-0.03-0.016l-0.082,0.005l-0.014,0.023l0.033,0.046l0.071,0.065l-0.003,0.047l-0.016,0.036l-0.032,0.021
	l-0.054,0.006l0.054,0.079l0.057,0.063l0.149,0.109l0.03,0.03l0.019,0.039l0.004,0.039l-0.02,0.025l-0.04,0.003l-0.042-0.016
	l-0.08-0.044l0.037,0.101l-0.007,0.034l-0.058,0.018l-0.047-0.014l-0.029-0.04l-0.023-0.048l-0.024-0.033l-0.063-0.036l-0.015,0.013
	l0.025,0.092l-0.015,0.034l-0.045,0.03l-0.056,0.031l-0.051,0.035l-0.005-0.015l-0.009-0.009l-0.024-0.02l0.017-0.029l-0.007-0.038
	l-0.026-0.067l0.008-0.057l0.024-0.051l0.009-0.048l-0.034-0.05l0.05-0.002l0.047-0.009l0.034-0.021l0.012-0.036l-0.018-0.035
	l-0.044-0.012l-0.097-0.006l-0.095-0.049v-0.05l0.027-0.059l-0.021-0.077l-0.033,0.022l-0.023,0.024l-0.015,0.029l-0.007,0.035
	l0.009,0.048l-0.03,0.027l-0.003,0.053l0.02,0.041l0.002,0.042l-0.004,0.068l-0.021,0.115l-0.097,0.167l-0.049,0.015l-0.107-0.057
	l-0.051-0.041l-0.029,0.014v0.187l0.119,0.073l-0.057,0.097l-0.084-0.027l-0.075-0.039l-0.045,0.035l-0.026,0.068l-0.022,0.061
	l-0.081,0.001l-0.062,0.02l-0.063-0.028l-0.041-0.097l-0.021-0.028l-0.036-0.003l-0.008,0.049l0.04,0.008l0.017,0.071l-0.041,0.024
	l-0.079,0.017l-0.108-0.004l-0.035,0.021l-0.063,0.035l-0.046,0.037l-0.057,0.043l-0.034,0.045l-0.06,0.007l-0.086,0.025
	l-0.133,0.054l-0.353,0.093l-0.061-0.007l-0.015-0.045l0.044-0.201l-0.021-0.06l-0.031-0.049l-0.014-0.044l0.025-0.05l0.05-0.024
	l0.079-0.017l0.083-0.004l0.06,0.012l0.102-0.011l0.076-0.118l0.04-0.143l-0.006-0.085l-0.059,0.074l-0.119,0.219l-0.163-0.041
	l-0.094-0.006l-0.064,0.022l-0.064,0.041l-0.037,0.007l0,0l-0.049,0.01l-0.09-0.005l-0.074-0.029l-0.029,0.03l0.009,0.034
	l0.042,0.048v0.001l-0.372,0.069l-0.106-0.006l-0.036-0.038l-0.015-0.064l-0.046-0.086l-0.127-0.125l-0.488-0.244l-0.069-0.054
	l-0.12-0.122l-0.073-0.049l-0.181-0.049l-0.123-0.033l-0.06-0.037l-0.029-0.018l-0.18-0.172l-0.166-0.205l-0.125-0.221l-0.054-0.223
	l-0.003-0.112l-0.095-0.425l0.055-0.342l-0.023-0.104l-0.089-0.197l-0.151-0.665l0.016-0.032l0.058-0.053l0.037-0.048l0.006-0.049
	l-0.081-0.226l-0.029-0.368l-0.053-0.235l-0.118-0.228l-0.174-0.204l-0.218-0.16l-0.127-0.065l-0.131-0.051l-0.142-0.027
	l-0.157,0.006l-0.146,0.051l-0.076,0.017l-0.06-0.014l-0.088-0.084l-0.13-0.183l0.188-0.133l0,0l0.293-0.206l0.135-0.051
	L1282.32,226.583z"/></svg>