<?xml version="1.0" encoding="utf-8"?>
<!-- Generator: Adobe Illustrator 15.0.0, SVG Export Plug-In . SVG Version: 6.00 Build 0)  -->
<!DOCTYPE svg PUBLIC "-//W3C//DTD SVG 1.1//EN" "http://www.w3.org/Graphics/SVG/1.1/DTD/svg11.dtd">
<svg version="1.1" id="Ebene_1" xmlns="http://www.w3.org/2000/svg" xmlns:xlink="http://www.w3.org/1999/xlink" x="0px" y="0px"
	 width="1920px" height="1080px" viewBox="0 0 1920 1080" enable-background="new 0 0 1920 1080" xml:space="preserve">

<path fill="#F4E0B6" stroke="#FFFFFF" d="M1257.64,423.402l-0.076,0.386l-0.029,0.087l-0.047,0.035l-0.393,0.019l-0.047,0.011
	l-0.039,0.067l0.01,0.069l0.029,0.07l0.033,0.139l0.001,0.029l-0.029,0.093l0.014,0.031l0.023,0.03l0.021,0.081l0.015,0.021
	l0.009,0.025l-0.005,0.042l-0.02,0.023l-0.073,0.031l-0.023,0.024l-0.021,0.065l-0.037,0.217l-0.06,0.144l0.003,0.07l0.054,0.083
	l0.075,0.086l0.037,0.077l0.003,0.083l-0.029,0.1l-0.09,0.161l-0.005,0.074l0.086,0.054l0.13-0.025l0.147-0.099l0.233-0.22
	l0.109-0.04l0.113-0.008l0.104-0.021l0.084-0.084l0.037-0.008l0.035,0.006l0.031,0.022l0.028,0.035l0.134,0.103l-0.013,0.08
	l-0.102,0.056l-0.135,0.031l-0.02,0.008l-0.019,0.011l-0.061,0.076l-0.036,0.099l-0.037,0.207l0.031,0.155l0.036,0.472l0.057,0.293
	l-0.015,0.124l-0.156,0.281l-0.018,0.08l0.015,0.085l0.052,0.062l0.15,0.102l0.027,0.066l-0.041,0.302l-0.057,0.13l-0.1,0.113
	l-0.085,0.119l-0.354,0.272l-0.108,0.115l-0.163,0.255l-0.128,0.271l-0.002,0.003v0.001l-0.004,0.007l-0.147,0.308l-0.174,0.635
	l-0.083,0.137l-0.079,0.132l-0.097,0.318l-0.109,0.21l-0.033,0.261l-0.022,0.069l-0.035,0.063l-0.088,0.117l-0.076,0.138
	l-0.24,0.711l-0.01,0.087l0.014,0.141l-0.002,0.065l-0.031,0.062l-0.109,0.117l-0.027,0.125v0.136l-0.029,0.149l-0.16,0.413
	l-0.217,0.359l-0.118,0.313l-0.074,0.326l-0.005,0.272l0.069,0.394l-0.021,0.108l-0.105,0.206l-0.033,0.217l-0.082,0.209
	l-0.105,0.449l-0.021,0.242l0.01,0.098l0.052,0.05l0.121-0.021l0.092,0.008l0.002,0.102l-0.091,0.286l-0.021,0.133v0.068
	l0.021,0.062l0.042,0.012l0.049,0.002l0.038,0.03l0.025,0.105l-0.048,0.211v0.121l0.029,0.109l0.004,0.277l0.015,0.087l0.022,0.083
	l0.016,0.083l-0.012,0.089l-0.12,0.311l0.007,0.124l0.151,0.074l0.163-0.01l0.069,0.021l0.026,0.083l-0.01,0.086l-0.031,0.076
	l-0.052,0.057l-0.182,0.073l-0.27,0.192l-0.073,0.077l-0.032,0.091l0.02,0.068l0.12,0.135l0.057,0.081l0.033,0.064l0.041,0.17
	l0.061,0.063l0.095-0.009l0.073,0.006l-0.001,0.114l-0.032,0.125l-0.014,0.104l0.007,0.102l0.162,0.539l0.017,0.129l-0.05,0.346
	l0.02,0.042l0.089,0.079l0.03,0.058l0.005,0.059l-0.011,0.175l0.014,0.24l0.023,0.045l0.089,0.079l0.033,0.047l0.054,0.223
	l0.053,0.085l0.079,0.02l0.02,0.005l0.062-0.031l0.153-0.13l0.07-0.044l0.161-0.063l0.1-0.105l0.084-0.122l0.109-0.112l0.099-0.034
	l0.164,0.065l0.094-0.012l0.22-0.148l0.102-0.029l0.302-0.033l0.082,0.007l0.05,0.02l0.038,0.028l0.043,0.022l0.063,0.008
	l0.045-0.01l0.076-0.046l0.039-0.018l0.109-0.014l0.093,0.025l0.073,0.074l0.052,0.136l0.067,0.112l0.1-0.001l0.105-0.063
	l0.22-0.207l0.081-0.052l0.09-0.006l0.088,0.052l0.072,0.079l0.079,0.07l0.118,0.028l0.044-0.01l0.056-0.013l0.086-0.032
	l0.081-0.006l0.089,0.058l0.048,0.085l0.063,0.324l0.089,0.232l0.123,0.078l0.157-0.021l0.364-0.133l0.158-0.094l0.072,0.014
	l0.074,0.091l0.098,0.204l0.042,0.436l0.07,0.194l0.204,0.12h0.059l0.042,0.032l0.022,0.055l0.008,0.069l0,0v0.001l0,0l0.034,0.066
	l0.09,0.102l0.035,0.063l0.014,0.065l-0.008,0.084l-0.063,0.689l0.03,0.231l0.105,0.172l0.13,0.163l0.181,0.419l0.025,0.096
	l-0.004,0.233l0.074,0.469l0.033,0.082l0.07,0.048l0.121,0.021l0.105,0.037l0.109,0.082l0.071,0.104l-0.004,0.11l-0.111,0.186
	l-0.044,0.104v0.016l-0.007,0.086l0.06,0.105l0.101,0.065l0.118,0.032l0.11,0.002l0.167-0.034l0.196-0.064l0.183-0.088l0.308-0.264
	l0.127,0.043l0.268,0.328l0.086,0.049l0.187,0.044l0.102,0.039l0.111,0.07l0.051,0.067l0.066,0.208l0.072,0.108l0.08,0.038
	l0.082,0.025l0.079,0.073l0.026,0.112l-0.063,0.267l-0.018,0.118l0.042,0.093l0.017,0.083l-0.011,0.082l-0.046,0.088l-0.092,0.115
	l-0.011,0.057l0.052,0.056l0.104,0.167l-0.1,0.385l-0.296,0.674l-0.214,0.717l-0.071,0.151l-0.249,0.375l-0.19,0.399l-0.062,0.082
	l-0.144,0.133l-0.146,0.274l-0.778,0.919l-0.116,0.146l-0.141,0.255l-0.053,0.14l0.013,0.112l0.069,0.054l0.082,0.026l0.064,0.05
	l0.014,0.12l0.026,0.099l0.091,0.013l0.213-0.062l0.092-0.004l0.224,0.045l0.105,0.005l0.218-0.025l0.101,0.002l0.116,0.021
	l0.127,0.008l0.088-0.046l0.091-0.099l0.046-0.071l0.211-0.22l0.063-0.234l0.074-0.021l0.208,0.065l0.087,0.012l0.034-0.008
	l0.051-0.029l0.068-0.066l0.039-0.027l0.039-0.001l0.114,0.069l0.258,0.278l0.087,0.061l0.1,0.034l0.105,0.005l0.104-0.028
	l0.037-0.028l0.099-0.122l0.041-0.022l0.093,0.008l0.047-0.006l0.353-0.134l0.185,0.004l0.141,0.126l0.205,1.2l0.002,0.124
	l-0.055,0.108l-0.086,0.104l-0.006,0.072l0.182,0.32l0.027,0.065l-0.012,0.071l-0.107,0.125l-0.025,0.049l-0.067,0.442l-0.13,0.195
	l-0.359,0.22l-0.105,0.189l-0.021,0.289l-0.044,0.091l-0.037,0.036l-0.045,0.029l-0.043,0.036l-0.085,0.157l-0.071,0.091
	l-0.113,0.191l-0.025,0.199l0.045,0.196l0.05,0.09l0.049,0.091l0.579,0.22l0.104,0.126l0.002,0.038l-0.008,0.162l0.054,0.189
	l-0.013,0.21l0.027,0.085l0.099,0.047l0.055-0.001l0.056-0.013l0.054-0.024l0.043-0.03l0.044-0.019l0.046,0.01l0.09,0.04l0.19,0.049
	l0.049,0.047l0.052,0.109l0.14,0.422v0.113l-0.084,0.218l-0.017,0.121l0.051,0.225l0.116,0.189l0.179,0.138l0.24,0.075l0.355,0.042
	l0.113,0.043l0.1,0.067l0.179,0.151l0.199,0.122l0.176,0.153l0.1,0.065l0.519,0.18l0.474,0.075l0.07,0.025l0.015,0.032l0.01,0.021
	l-0.021,0.299l0.025,0.192l0.308,0.894l0.016,0.103l-0.013,0.09l0.039,0.109l0.008,0.21l-0.021,0.222l-0.047,0.146l-0.138,0.154
	l-0.073,0.177l-0.09,0.359l-0.119,0.186l-0.169,0.072l-0.43,0.04l-0.211,0.04l-0.096-0.009l-0.201-0.103l-0.08-0.005l-0.072,0.037
	l-0.236,0.221l-0.336,0.175l-0.168,0.115l-0.075,0.098l-0.049,0.123l-0.057,0.245l-0.007,0.122l0.059,0.013l0.091-0.057l0.09-0.086
	l0.201-0.264l0.077-0.078l0.074-0.015l0.014,0.093l-0.023,0.125l-0.037,0.089l-0.152,0.147l-0.513,0.364l-0.149,0.165l-0.128,0.176
	l-0.089,0.088l-0.092,0.023l-0.097,0.007l-0.171,0.059l-0.125,0.065l-0.124,0.09l-0.065,0.092l0.018,0.093l0.127,0.215l0.023,0.053
	l0.019,0.043l0.007,0.217l0.026,0.047l0.086,0.075l0.014,0.044l-0.064,0.298l-0.004,0.106l0.024,0.087l-0.014,0.061l-0.132,0.18
	l-0.124,0.118l-0.045,0.06l-0.042,0.154l0.063,0.435l-0.023,0.199l-0.014,0.129l-0.057,0.161l-0.093,0.14l-0.28,0.242l-0.106,0.136
	l0.037,0.106l0.094,0.012l0.121-0.019l0.124-0.006l0.202,0.088l0.119-0.019l0.118-0.055l0.09-0.071l0.244-0.384l0.172-0.125
	l0.212,0.101l0.051,0.099l-0.024,0.083l-0.147,0.169l-0.037,0.082l-0.009,0.084l0.003,0.085l-0.058,0.375l-0.037,0.096l-0.146,0.254
	l-0.064,0.196l-0.174,0.274l-0.123,0.369l-0.051,0.087l-0.246,0.258l-0.169,0.226l-0.065,0.065l-0.1,0.069l-0.206,0.104l-0.094,0.07
	l-0.065,0.086l-0.095,0.186l-0.07,0.084l-0.097,0.086l-0.058,0.042l-0.051,0.018l-0.042-0.018l-0.013-0.035l-0.01-0.041
	l-0.029-0.035l-0.108-0.057l-0.088-0.01l-0.081,0.043l-0.198,0.25l-0.087,0.184l-0.102,0.367l-0.002,0.19l0.024,0.165l-0.011,0.159
	l-0.112,0.172l-0.018,0.144l0.396,0.472l0.039,0.148l0.052,0.637l-0.039,0.119l-0.361,0.632l-0.022,0.094l0.031,0.079l1.113,1.357
	l0.187,0.141l0.239,0.047l0.208-0.021l0.084,0.006l0.113,0.037l0.101,0.051l0.534,0.469l0.282,0.17l0.072,0.075l0.29,0.607
	l0.12,0.173l0.064,0.057l0.082,0.015l0.221-0.083l0.312-0.063l0.203-0.068l0.072-0.005l0.009,0.029l-0.019,0.042l-0.008,0.034
	l0.066,0.178l0.045,0.202l-0.057,0.481l-0.204,0.419l-0.141,0.286l-0.139,0.285l-0.141,0.286l-0.139,0.284l-0.14,0.285l-0.141,0.284
	l-0.139,0.284l-0.141,0.283l-0.14,0.284l-0.14,0.283l-0.14,0.283l-0.141,0.283l-0.14,0.281l-0.14,0.283l-0.141,0.282l-0.14,0.281
	l-0.352,0.701l-0.182,0.199l-0.706,0.593l-0.485,0.547l-0.657,0.736l-0.078,0.086l-0.644,1.292l-0.054,0.188l0.031,0.169
	l0.145,0.334l-0.055,0.138l-0.59,0.322l-0.782,0.632l-0.929,0.749l-0.479,0.635l-0.155,0.205l-0.154,0.204l-0.154,0.203
	l-0.153,0.203l-0.153,0.202l-0.155,0.203l-0.152,0.203l-0.154,0.201l-0.153,0.203l-0.155,0.202l-0.152,0.202l-0.155,0.202
	l-0.152,0.2l-0.153,0.202l-0.154,0.201l-0.153,0.201l-0.09,0.117l-0.392,0.51l-0.43,0.34l-0.441,0.28l-0.387,0.243l-0.386,0.244
	l-0.387,0.243l-0.385,0.242l-0.385,0.241l-0.384,0.24l-0.385,0.24l-0.382,0.239l-0.382,0.239l-0.383,0.237l-0.38,0.237l-0.382,0.236
	l-0.379,0.235l-0.381,0.234l-0.38,0.234l-0.378,0.233l-0.324,0.201l-0.159,0.076l-0.044-0.395l-0.058-0.52v-0.001l-0.132-1.065
	l-0.071-0.57l-0.05-0.39l-0.096-0.747l-0.072-0.561v-0.001l-0.107-0.792l-0.12-0.875l-0.077-0.57l-0.009-0.112l-0.03-0.007
	l-0.009,0.002l-0.069-0.061l-0.021-0.031l0.009-0.032l-0.296-0.195l-0.063-0.02l-0.069-0.171l-0.064-0.091l-0.081-0.06l-0.098-0.043
	l-0.176-0.054l-0.188-0.032l-0.052-0.022l-0.126-0.084l-0.121-0.037l-0.246-0.018l-0.116-0.027l-0.082-0.059l-0.153-0.158
	l-0.1-0.031l-0.278,0.014l-0.12,0.032l-0.119,0.069l-0.209,0.182l-0.438,0.382l-0.743,0.645l-0.643,0.556l-0.007,0.005l-0.632,0.546
	l-0.382,0.328l-0.156,0.083l-0.416-0.246l-0.244-0.094l-0.102-0.064l-0.257-0.273l-0.418-0.234l-0.201-0.142l-0.226-0.217
	l-0.092-0.06l-0.056-0.019l-0.056-0.013l-0.049-0.023l-0.06-0.099l-0.043,0.004l-0.043,0.017l-0.036-0.007l-0.036-0.075
	l-0.031-0.182l-0.048-0.073l-0.276-0.293l-0.321-0.257l-0.539-0.207l-0.696-0.266l-0.593-0.209l-0.537-0.191l-0.51-0.182
	l-0.493-0.176l-0.417-0.148l-0.301-0.144l-0.319-0.237l-0.037-0.065l-0.066-0.34l-0.075-0.381l-0.069-0.343l-0.053-0.269
	l0.004-0.167l0.034-0.169l-0.014-0.072l-0.063-0.081l-0.074-0.046l-0.078-0.038l-0.047-0.054l0.016-0.093l0.136-0.178l0.028-0.067
	l-0.021-0.062l-0.002-0.008l-0.086-0.012l-0.103,0.021l-0.079,0.032l-0.133,0.099l-0.13,0.13l-0.215,0.272l-0.262,0.265
	l-0.362,0.201l-0.396,0.069l-0.366-0.135l-0.105-0.128l-0.135-0.287l-0.149-0.127l-0.693-0.365l-0.376-0.226l-0.059-0.035
	l-0.158-0.157l-0.102-0.243l-0.037-0.215l-0.013-0.216l0.062-0.233l-0.009-0.098l-0.105-0.041l0.202-0.26l0.289-0.376l0.213-0.276
	l-0.109-0.017l-0.545,0.022l-0.15-0.022l-0.076-0.001l-0.072,0.015l-0.111,0.059l-0.055,0.01l-0.121-0.042l-0.047,0.001
	l-0.041,0.019l-0.037,0.034l-0.039-0.116l0.033-0.12l0.142-0.212l0.053-0.106l0.016-0.103l-0.033-0.291l-0.017-0.042l-0.006-0.043
	l0.016-0.067l0.034-0.055l0.043-0.044l0.026-0.048l-0.015-0.072l-0.084-0.087l-0.114-0.067l-0.09-0.076l-0.014-0.117l0.014-0.174
	l-0.057-0.156l-0.048-0.071l0.059-0.135l-0.108-0.127l-0.127-0.123l-0.037-0.023l-0.088-0.041l-0.044-0.027l-0.04-0.049
	l-0.032-0.108l-0.028-0.04l-0.068-0.07l-0.106-0.165l-0.146-0.146l-0.035-0.07l-0.04-0.169l-0.067,0.009l-0.037-0.019l-0.027-0.037
	l-0.039-0.041l-0.026-0.003l-0.264,0.009l-0.054-0.013v-0.035l0.013-0.048l-0.037-0.031l-0.053-0.011l-0.034,0.006l-0.041-0.027
	l-0.082-0.067l-0.067-0.085l0.004-0.08l0.062-0.077l0.058-0.095l0.022-0.096l-0.047-0.082l-0.22-0.139l-0.068-0.078l-0.027-0.055
	l-0.029-0.144l-0.024-0.05l-0.099-0.125l-0.045-0.098l-0.023-0.153l-0.036-0.104l-0.064-0.084l-0.088-0.053l-0.195-0.085
	l-0.059-0.002l0.023-0.061l0.123-0.212l0.025-0.029l0.034-0.018l0.055-0.013l0.008,0.01l0.02,0.065l0.071-0.018l0.005-0.006
	l0.008-0.006l0.094-0.021l0.019,0.011l0.03,0.046l0.018,0.012h0.051l0.042-0.005l0.039-0.018l0.04-0.036l0.03-0.016l0.037-0.021
	l0.388-0.086l0.305-0.038l0.283-0.172l0.47-0.434l0.163-0.225l0.22-0.538l0.178-0.208l0.137-0.072l0.14-0.05l0.641-0.125
	l0.146-0.055l0.246-0.141l0.095-0.017l0.095,0.008l0.093,0.028l0.076,0.047l0.159,0.127l0.08,0.024l0.204,0.039l0.074-0.007
	l0.019-0.078l-0.149-0.68l-0.003-0.193l0.075-0.103l0.401-0.093l0.053-0.025l0.028-0.038l0.019-0.044l0.031-0.04l0.131-0.079
	l0.03-0.029l0.037-0.071l0.113-0.343l0.014-0.078l-0.003-0.079l-0.022-0.089l-0.01-0.161l0.085-0.306l0.007-0.022l0.029-0.51
	l0.093-0.326l0.044-0.086l0.113-0.164l0.041-0.085l-0.007-0.084l-0.059-0.077l-0.144-0.128l-0.1-0.131l-0.054-0.019l-0.095,0.03
	l-0.062-0.024l-0.218-0.142l-0.057-0.051l-0.009-0.162l0.145-0.344l0.014-0.153l-0.02-0.048l-0.026-0.023l-0.036,0.002l-0.109,0.071
	l-0.038,0.011l-0.106,0.006l-0.307,0.079l-0.073-0.016l-0.086-0.036l-0.081-0.001l-0.075-0.011l-0.059-0.067l-0.008-0.097
	l0.047-0.089l0.664-0.796l0.198-0.369l0.112-0.393l-0.001-0.088l-0.04-0.166l-0.007-0.085l0.02-0.095l0.046-0.086l0.34-0.48
	l0.085-0.176l0.091-0.485l0.058-0.135l0.04-0.068l0.038-0.065l0.103-0.091l0.41-0.271l-0.052-0.038l-0.227-0.104l-0.075-0.051
	l-0.041-0.079l-0.018-0.085l0.025-0.37l0.044-0.175l0.087-0.157l0.145-0.141l0.072-0.046l0.048-0.04l0.001-0.058l-0.123-0.177
	l-0.016-0.08l0.011-0.083l0.027-0.087l0.159-0.321l0.057-0.157l0.007-0.189l-0.023-0.135l-0.185-0.585l-0.094-0.168l-0.122-0.151
	l-0.155-0.134l-0.097-0.05l-0.202-0.057l-0.1-0.042l-0.086-0.059l-0.078-0.072l-0.13-0.164l-0.087-0.156l-0.356-0.867l-0.122-0.296
	l-0.104-0.15l-0.178-0.098l-0.378-0.147l-0.152-0.13l-0.054-0.144l0.011-0.163l0.191-0.917l0.13-0.34l1.191-1.662l0.038-0.053
	l0.037-0.18l-0.085-0.326l-0.018-0.175l-0.023-0.09l-0.071-0.079l-0.097-0.062l-0.207-0.092l-0.083-0.083l-0.063-0.1l-0.049-0.105
	l0,0v-0.001h-0.001l-0.039-0.086l-0.016-0.069l0.01-0.064l0.037-0.076l0.119-0.158v-0.077l-0.095-0.099l-0.054-0.051l0.066-0.043
	l0.072-0.067l0.04-0.019l0.179,0.021l0.063-0.004l0.049-0.009l0.103-0.042l0.938-0.686l0.106-0.036l0.21-0.025l0.109-0.028
	l0.093-0.056l0.04-0.042l0.09-0.134l0.04-0.036l0.082-0.029l0.035-0.031l0.042-0.025l0.032-0.02l0.108-0.027l0.109-0.045
	l0.086-0.098l0.121-0.323l0.059-0.102l0.046-0.029l0.121-0.009l0.058-0.035l0.024-0.045l0.002-0.048l-0.016-0.1l-0.004-0.105
	l0.013-0.089l0.034-0.092l0.067-0.106l0.079-0.088l0.29-0.199l0.044-0.044l0.082-0.105l0.018-0.051l-0.003-0.118l0.017-0.05
	l0.36-0.536l0.189-0.416l0.145-0.191l0.083-0.053l0.218-0.097l0.082-0.07l0.076-0.024l0.241,0.056l0.095,0.005l0.102-0.053
	l0.19-0.14l0.125-0.04l0.105,0.008l0.104,0.023l0.102-0.003l0.098-0.07l0.049-0.1l0.024-0.209l0.055-0.117l0.063-0.103l0.042-0.102
	l0.021-0.105l0.005-0.113l-0.022-0.208l0.005-0.106l0.04-0.098l0.107-0.067l0.241,0.039l0.099-0.034l0.018-0.052l-0.02-0.059
	l-0.027-0.053l-0.002-0.038l0.025-0.046l0.035-0.091l0.027-0.049l0.048-0.039l0.122-0.051l0.053-0.033l0.043-0.048l0.1-0.149
	l0.078-0.073l0.09-0.048l0.095-0.012l0.097,0.034l0.262,0.213l0.07,0.038l0.097-0.013l0.126-0.056l0.12-0.073l0.171-0.162
	l0.097-0.023l0.11,0.006l0.141-0.008l0.065-0.024l0.114-0.069l0.055-0.019l0.256-0.046l0.055-0.001l0.052,0.007l0.051,0l0.05-0.022
	l0.015-0.019l0.024-0.032l0.018-0.061l0.006-0.058l-0.01-0.4l0.008-0.068l0.026-0.095l-0.013-0.103l-0.001-0.111l0.063-0.116
	l0.174-0.14l0.07-0.1l-0.034-0.083l-0.21-0.088l-0.094-0.053l-0.053-0.077l0.006-0.11l0.063-0.077l0.085-0.064l0.075-0.071
	l0.066-0.115l0.021-0.103l-0.049-0.069l-0.147-0.005l0.166-0.269l0.101-0.222l0.028-0.045l0.007-0.049l-0.047-0.111l-0.006-0.032
	l0.049-0.09l0.067-0.182l0.044-0.081l-0.022-0.037l-0.059-0.068l-0.029-0.091l0.054-0.102l-0.071-0.009l-0.028-0.001l-0.034,0.011
	l-0.016-0.077l0.051-0.077l0.135-0.151l0.054-0.091l0.043-0.052l0.055-0.036l0.197-0.104l0.038-0.048l-0.032-0.044l-0.105-0.047
	l-0.172-0.034l-0.041-0.046l0.037-0.108l0.082-0.076l0.092-0.013l0.099,0.006l0.104-0.016l0.066-0.046l0.022-0.054l-0.024-0.046
	l-0.077-0.026l-0.034,0.009l-0.092,0.041l-0.05,0.009l-0.068-0.01l-0.008-0.021l0.021-0.022l0.016-0.012l0.232-0.268l0.099-0.06
	l0.128-0.044l0.127-0.018l0.211,0.037l0.124-0.043l0.122-0.063l0.109-0.043l0.216,0.021l0.066-0.016l0.122-0.06l0.024-0.018
	l0.517-0.261l0.053-0.089l0.023-0.105l0.051-0.109l0.007-0.016l0.02-0.061l-0.006-0.068l-0.021-0.11l0.024-0.228l-0.011-0.106
	l-0.111-0.272l-0.051-0.047l-0.067,0.07l-0.079,0.055l-0.078-0.095l-0.066,0.011l-0.179-0.066l-0.095-0.005l-0.047,0.003
	l-0.049-0.011l-0.048-0.018l-0.043-0.024l-0.011-0.014l0.005-0.013v-0.015l-0.023-0.015h-0.03l-0.035,0.033l-0.023,0l-0.179-0.101
	l-0.079-0.059l-0.055-0.069l-0.011-0.037l0.005-0.083l-0.004-0.048l-0.012-0.03l-0.038-0.06l-0.011-0.028l0.011-0.259l-0.015-0.138
	l-0.145-0.188l0.025-0.104l0.446-0.555l0.05-0.104l0.057-0.22l0.06-0.113l0.027-0.032l0.091-0.08l0.041-0.02l0.053-0.033l0.01-0.057
	l-0.003-0.063l0.013-0.053l0.037-0.099l0.045-0.226l0.074-0.099l0.102-0.039l0.102,0.003l0.1-0.009l0.09-0.075l0.048-0.05
	l0.038-0.008l0.043,0.001l0.033-0.015l0.02-0.009l0.034-0.036l0.092-0.134l-0.049,0.009l0.079-0.119l0.107-0.118l0.088-0.129
	l0.022-0.159l-0.084-0.256v-0.04l-0.035-0.035l-0.104-0.146l0.003-0.011l0.039-0.091l0.013-0.013l-0.007-0.035l-0.006-0.015
	l-0.021-0.046l-0.028-0.024l-0.046-0.019l-0.038-0.019l-0.008-0.029l-0.002-0.031l-0.04-0.098l-0.054-0.042l-0.03-0.038
	l-0.035-0.035l-0.07-0.034l-0.16-0.031l-0.07-0.026l-0.041-0.057l-0.054,0.026l-0.07,0.013l-0.076-0.003l-0.073-0.026l-0.054,0.009
	l-0.112,0.132l-0.045,0.041l-0.136,0.022l-0.167-0.012l-0.155-0.061l-0.092-0.123l0.106-0.059l0.068-0.095l0.038-0.117l0.02-0.126
	l-0.056,0.015l-0.045-0.006l-0.04-0.023l-0.035-0.042l0.001-0.04l0.019-0.06l0.009-0.061l-0.031-0.047l-0.014-0.037l0.001-0.028
	l0.005-0.112l-0.004-0.052l-0.119-0.333l-0.07-0.3l-0.005-0.065l0.021-0.188l-0.015-0.069l-0.053-0.102l-0.198-0.266l-0.146-0.255
	l-0.095-0.108l0.002-0.069l0.017-0.071l0.003-0.056l-0.129-0.152l-0.038-0.022l-0.05-0.022l-0.049-0.027l-0.031-0.043l0.001-0.054
	l0.056-0.101l0.002-0.054l-0.019-0.216l-0.037-0.068l-0.1,0.06l-0.032-0.019v-0.107l0.105-0.28l-0.052-0.102l-0.018-0.049
	l0.021-0.082l0.07-0.144l0.026-0.038l0.057-0.062l0.021-0.04l0.002-0.038l-0.013-0.029l-0.008-0.037l0.019-0.057l0.164-0.147
	l0.074-0.098l-0.025-0.074l-0.113-0.044l-0.016-0.051l0.048-0.108l0.04-0.051l0.049-0.038l0.057-0.029l0.063-0.023l0.05-0.006
	l0.103,0.009l0.054-0.008l0.054-0.03l0.015-0.034l0.004-0.042l0.024-0.057l0.037-0.05l0.113-0.098l0.188-0.117l0.369-0.151
	l0.304-0.304l0.158-0.109l0.188-0.033l0.22,0.084l0.095,0.083l0.162,0.193l0.121,0.104l0.093,0.157l0.161,0.168l0.142,0.25
	l0.104,0.096l0.084,0.105l0.046,0.033l0.068,0.017l0.021-0.019l0.008-0.04l0.028-0.045l0.195-0.111l0.081-0.079l0.002-0.113
	l-0.013-0.112l0.107-0.642l0.085-0.16l0.142-0.097l0.203-0.063l0.016,0.052l0.063,0.017l0.105,0.048l0.108,0.064l0.076,0.064
	l0.05,0.117l0.009,0.217l0.066,0.083l0.047,0.016l0.119,0.013l0.055,0.018l0.044,0.033l0.119,0.132l0.134,0.099l0.042,0.039
	l0.028,0.044l0.036,0.09l0.019,0.031l0.195,0.131l0.405,0.142l0.166,0.147l0.081,0.109l0.061,0.05l0.195,0.064l0.2,0.1l0.093,0.066
	l0.045,0.06l0.129,0.075l0.156,0.301l0.12,0.045l0.027,0.055l0.059,0.066l0.176,0.142l0.277,0.165l0.062,0.021h0.063l0.137-0.025
	l0.063,0.014l0.191,0.105l0.108,0.041l0.103,0.006l0.466-0.075l0.115,0.004l0.23,0.086l0.111,0.017l0.111-0.003l0.11-0.019
	l0.204-0.084l0.173-0.15l0.139-0.198l0.103-0.227l0.068-0.248l0.021-0.215l-0.204-1.783l-0.054-0.179l-0.002-0.195l-0.016-0.062
	l-0.053-0.11l-0.021-0.068l-0.021-0.236l0.055-0.547l0.06-0.225l0.188-0.292l0.007-0.188l0.222-0.726l-0.026-0.063l-0.077-0.075
	l-0.159-0.318l-0.266-0.401l-0.092-0.216l-0.01-0.229l0.062-0.23l0.018-0.129l-0.053-0.15l-0.017-0.407l0.119-0.339l-0.011-0.118
	l-0.041-0.084l-0.102-0.148l-0.04-0.108l-0.034-0.229l0.007-0.045l0.074-0.081l0.002-0.06l-0.096-0.319l-0.013-0.094l0.015-0.104
	l0.041-0.116l0.059-0.101l0.071-0.057l0.051-0.064l-0.004-0.345l0.085-0.203l0.399-0.454l0.206-0.276l0.081-0.195l0.086-0.151
	l0.105,0.088l0.035,0.024l0.195,0.1l0.055,0.064l0.04,0.113l0.02,0.105l-0.002,0.079l-0.062,0.18l-0.013,0.109l0.026,0.128
	l0.065,0.103l0.105,0.031l0.067-0.054l0.035-0.215l0.046-0.089l0.04-0.021l0.102-0.027l0.033-0.021l0.019-0.049l-0.015-0.097
	l0.006-0.051l0.052-0.097l0.044-0.062l0.015-0.07l-0.057-0.237l0.018-0.101l0.066-0.201l0.01-0.302l0.025-0.103l0.045-0.388
	l0.133-0.537l0.008-0.127l-0.044-0.123l-0.156-0.086l-0.03-0.103l0.049-0.118l0.085-0.115l0.034-0.114l-0.102-0.114l0.07,0.006
	l-0.007-0.066l0.019-0.052l0.042-0.032l0.119-0.021l0.031-0.038l0.022-0.048l0.075-0.119l0.02-0.085l0.03-0.086l0.076-0.079
	l0.11-0.14l0.023-0.034l0.016-0.039l0.169-0.462l-0.005-0.156l0.534-0.425l0.165-0.069l0.374-0.062L1257.64,423.402z"/></svg>