<?xml version="1.0" encoding="utf-8"?>
<!-- Generator: Adobe Illustrator 15.0.0, SVG Export Plug-In . SVG Version: 6.00 Build 0)  -->
<!DOCTYPE svg PUBLIC "-//W3C//DTD SVG 1.1//EN" "http://www.w3.org/Graphics/SVG/1.1/DTD/svg11.dtd">
<svg version="1.1" id="Ebene_1" xmlns="http://www.w3.org/2000/svg" xmlns:xlink="http://www.w3.org/1999/xlink" x="0px" y="0px"
	 width="1920px" height="1080px" viewBox="0 0 1920 1080" enable-background="new 0 0 1920 1080" xml:space="preserve">

<path fill="#F4E0B6" stroke="#FFFFFF" d="M987.2,489.698l0.029,0.002l0.03-0.004l-0.112,0.116l0.006,0.034l0.24-0.029l0.09,0.091
	l0.175,0.022l0.072,0.061l0.02,0.074l-0.022,0.044l-0.043,0.009l-0.042-0.031l-0.043-0.042l-0.048-0.018l-0.041,0.005l-0.016,0.036
	l0.056,0.013l0.041,0.045l0.032,0.054l0.032,0.036l0.028,0.005l0.058-0.014l0.029,0.008l0.033,0.032l0.018,0.034l-0.003,0.03
	l-0.027,0.02l0.008,0.038l0.125,0.056l-0.001,0.047l-0.023,0.008l-0.033-0.006l-0.03,0.003l-0.086,0.051l-0.047,0.006l-0.067-0.019
	l0.007,0.041l0.034,0.007l0.03,0.019l0.027,0.035l0.022,0.052l0.02-0.063l0.046-0.021l0.112,0.006l-0.003,0.02l-0.003,0.055
	l0.065,0.024l0.057,0.079l0.03,0.094l-0.01,0.067l-0.063,0.01l-0.071-0.054l-0.13-0.144l-0.293-0.222l-0.147-0.161l-0.013-0.139
	l-0.088-0.084l-0.109-0.13l-0.089-0.135l-0.025-0.1l-0.018-0.026l-0.041-0.083h0.058l-0.01-0.021l-0.002-0.005l-0.014-0.015
	l0.089-0.065l0.047-0.007l0.048,0.037l-0.045,0.06l-0.017,0.016l0.029,0.025L987.2,489.698z M987.051,488.175l0.058,0.011
	l0.085-0.015l0.036,0.015l0.03,0.028l0.051,0.064l0.034,0.02l0.22,0.054l0.04,0.039l0.032,0.078l0.094,0.075l0.029,0.054
	l-0.028,0.06l-0.011,0.037l0.012,0.017l0.012,0.03l0.022,0.158l-0.009,0.018l-0.014,0.039l-0.018,0.039l-0.025,0.018l-0.022-0.016
	l-0.244-0.356l-0.044-0.039l-0.261-0.042l-0.048-0.018l-0.043-0.039l-0.028-0.07l-0.028-0.096l-0.084-0.134l-0.039-0.088l0.066,0.01
	L987.051,488.175z M984.918,487.08l-0.033,0.004l-0.23-0.021l-0.016-0.04l0.066-0.04l0.08-0.003l0.085,0.041l0.044,0.033
	l0.029,0.018L984.918,487.08z M985.945,486.887l0.06,0.09l0.035,0.039l0.073,0.023l0.071-0.004l0.07,0.014l0.068,0.08l-0.021,0.071
	l-0.013,0.072l-0.022,0.056l-0.055,0.028l-0.05-0.009l-0.048-0.02l-0.046-0.005l-0.042,0.035l0.024,0.02l0.025,0.014l0.025,0.006
	l0.026,0.002l-0.146,0.075l-0.041,0.038l0.013-0.06l0.01-0.02l-0.033-0.077l-0.043-0.068l-0.044-0.033l-0.037,0.026l0.027,0.019
	l0.039,0.038l0.034,0.047l0.004,0.047l-0.028,0.006l-0.138-0.083l-0.178-0.034l-0.124-0.076l-0.039-0.004l-0.007-0.037l0.263,0.001
	l-0.069-0.046l-0.076-0.035l-0.146-0.03l-0.085-0.061l-0.074-0.126l-0.024-0.109l0.064-0.01l0.114,0.096l0.037,0.019l0.021,0.004
	l0.063-0.004l0.02-0.012l0.003-0.027l-0.003-0.025l0.005-0.012l0.03-0.012l0.038-0.054l0.186-0.046l0.006,0.034h-0.019l0.007,0.042
	l0.118,0.071l0.037,0.008L985.945,486.887z M988.104,486.242l-0.039,0.015l-0.047-0.007l-0.042-0.056l-0.042-0.073l-0.022-0.062
	l0.024-0.043l0.042-0.021l0.075-0.091l0.083,0.001l0.046,0.028l0.004,0.035l-0.063,0.081l0.028,0.057l0.011,0.052l-0.008,0.034
	l-0.018,0.03L988.104,486.242z M985.689,485.904l0.013,0.006l0.013-0.002l0.018,0.007l0.195,0.043l0.102,0.055l0.053,0.076
	l0.059,0.134l0.177,0.25l0.022,0.127l0.097,0.029l0.181,0.129l0.146,0.041l0.029,0.033l0.012,0.047l-0.007,0.059l-0.019,0.042
	l-0.029,0.036l-0.034,0.026l-0.027,0.011l0.236-0.012l0.054,0.069l0.054,0.083l0.023,0.058l-0.018,0.027h-0.16l0.008,0.041
	l0.104,0.042l0.184-0.006l0.089,0.072l-0.017,0.068l-0.005,0.091l0.02,0.079l0.1,0.048l0.004,0.046l-0.001,0.072l0.028,0.092
	l-0.085,0.033l-0.099-0.084l-0.1-0.114l-0.193-0.111l-0.189-0.238l-0.106-0.053l-0.042-0.013l-0.032-0.038l-0.024-0.064l-0.021-0.09
	l-0.027-0.05l-0.052-0.054l-0.059-0.045l-0.045-0.026l-0.222-0.034l-0.053-0.024l-0.037-0.053l-0.007-0.052l0.04-0.021l-0.036-0.067
	l-0.036,0.007l-0.036,0.038l-0.042,0.022l-0.032-0.014l-0.088-0.068l-0.031-0.032l-0.031-0.033l-0.013-0.021l-0.01-0.041
	l-0.004-0.06l0.013-0.016l0.018-0.001l0.013-0.019l0.002-0.076l-0.007-0.057l0.005-0.039l0.04-0.021l-0.067-0.083l-0.021-0.116
	l-0.004-0.219L985.689,485.904z M986.502,485.84l0.023,0.057l-0.041,0.039l-0.056,0.035l-0.023,0.042l0.019,0.092l0.021,0.075
	l0.033,0.061l0.053,0.053l-0.059-0.168l0.002-0.066l0.189-0.069l0.068,0.004l0.055,0.071l-0.021,0.005l-0.044,0.036l0.22,0.034
	l0.03,0.026l-0.013,0.057l-0.04,0.053l-0.052,0.016l0.007,0.042l0.033,0.01l0.062,0.049l0.03,0.015l0.021-0.005l0.047-0.03
	l0.026-0.007l0.158,0.053l0.131,0.076l0.014,0.035l-0.032,0.021l-0.067,0.007l-0.168-0.021l-0.045,0.022l0.006,0.038l0.365,0.168
	l0.116,0.097l-0.146-0.018l-0.151-0.059l0.007,0.038l0.063,0.011l0.063,0.042l0.109,0.092l0.007,0.042l-0.05-0.007l-0.055,0.008
	l-0.047,0.026l-0.022,0.052l0.015,0.011l0.015,0.015l0.016,0.008l0.007,0.04l-0.019,0.024l-0.006,0.023l0.006,0.026l0.019,0.037
	l-0.112-0.066l-0.048-0.114l-0.026-0.138l-0.046-0.133l-0.066-0.099l-0.093-0.113l-0.096-0.072l-0.073,0.021l0.077,0.071
	l0.094,0.069l0.088,0.092l0.055,0.144l-0.027,0.119L987,486.972l-0.263-0.259l-0.11,0.007l-0.033-0.026l-0.021-0.025l-0.067-0.057
	l-0.022-0.012l-0.038-0.029l-0.222-0.278l-0.146-0.28l-0.028-0.034l-0.037-0.031l-0.03-0.032l-0.012-0.038l0.017-0.039l0.03,0.006
	l0.034,0.023l0.031,0.01l0.055-0.024l0.086-0.073l0.121-0.027l0.034,0.011l0.032,0.022l0.029,0.026l0.027,0.022L986.502,485.84z
	 M987.927,486.173l-0.035,0.084l-0.082,0.013l-0.094-0.035l-0.068-0.061l-0.012,0.041l0.127,0.135l0.061,0.043l0.046-0.032
	l0.025,0.097l0.016,0.032l0.025,0.026l0.007,0.037l-0.04,0.032l-0.053,0.013l-0.057-0.013l-0.051-0.048l-0.102-0.15l-0.05-0.043
	l-0.038,0.021l0.093,0.188l0.035,0.059l0.018,0.039l-0.018,0.001l-0.028-0.013l-0.032-0.023l-0.01-0.018l-0.01-0.021l-0.013-0.02
	l-0.115-0.123l-0.047-0.084l-0.005-0.095l0.013-0.033l0.012,0.003l0.011,0.019l0.012,0.011l0.02-0.007l0.001-0.021l-0.006-0.031
	l0.003-0.038l-0.004-0.048l-0.036-0.152l-0.015-0.045l-0.055-0.114l-0.04-0.102l-0.002-0.08l0.07-0.048l-0.013,0.042l0.116,0.217
	l0.122,0.155l0.136,0.109L987.927,486.173z M987.396,486.139l-0.034,0.031l-0.064-0.028l-0.069-0.076l-0.036-0.053l-0.105-0.174
	l-0.054-0.127l-0.013-0.123l0.036-0.045l0.053,0.043l0.038,0.08l0.165,0.261l0.046,0.083l0.021,0.045L987.396,486.139z
	 M987.252,486.296l-0.039,0.012l-0.055-0.027l-0.051-0.06l-0.038-0.089l-0.042-0.083l-0.025-0.035l-0.068-0.08l-0.096-0.131
	l-0.027-0.045l-0.074-0.141l-0.02-0.077l0.022-0.024l0.043,0.032l0.049,0.064l0.108,0.185l0.256,0.358l0.021,0.022l0.035,0.061
	V486.296z M987.675,485.818l0.022,0.036l0.028-0.007l0.022-0.038l0.031-0.002l0.021,0.011l0.024,0.022l0.029,0.056l-0.004,0.049
	l-0.011,0.038l-0.044,0.022l-0.094-0.031l-0.094-0.077l-0.085-0.109l-0.058-0.092l-0.051-0.141l-0.041-0.034l-0.039-0.071
	l0.027-0.044l0.066,0.02l0.048,0.042l0.039,0.07l0.036,0.081l0.046,0.06l0.047,0.053l0.025,0.049L987.675,485.818z"/></svg>