<?xml version="1.0" encoding="utf-8"?>
<!-- Generator: Adobe Illustrator 15.0.0, SVG Export Plug-In . SVG Version: 6.00 Build 0)  -->
<!DOCTYPE svg PUBLIC "-//W3C//DTD SVG 1.1//EN" "http://www.w3.org/Graphics/SVG/1.1/DTD/svg11.dtd">
<svg version="1.1" id="Ebene_1" xmlns="http://www.w3.org/2000/svg" xmlns:xlink="http://www.w3.org/1999/xlink" x="0px" y="0px"
	 width="1920px" height="1080px" viewBox="0 0 1920 1080" enable-background="new 0 0 1920 1080" xml:space="preserve">

<path fill="#F4E0B6" stroke="#FFFFFF" d="M981.71,765.731l0.103,0.235l0.053,0.044l0.05,0.03l0.029,0.044l-0.007,0.081l-0.057,0.053
	l-0.072,0.027h-0.061l-0.036,0.039l-0.058,0.014l-0.149,0.018l-0.01,0.015l-0.027,0.034l-0.032,0.02l-0.023-0.022l-0.014-0.046
	l-0.006-0.031l0.012-0.02l0.04-0.017l0.053-0.031l0.134-0.116l0.025-0.038l-0.043-0.056l-0.066-0.004l-0.047,0.046l0.018,0.095
	l-0.05-0.026l-0.047-0.033l0.026-0.099l0.007-0.072l-0.013-0.07l-0.028-0.085l-0.063-0.119l-0.012-0.076l0.039-0.091l0.127,0.052
	l0.113,0.087L981.71,765.731z M981.29,765.747l0.057,0.164l0.005,0.081l-0.03,0.1l-0.077,0.178l-0.053,0.058l-0.046-0.059
	l-0.042-0.084l-0.05-0.062l-0.025-0.07l0.029-0.115l-0.124,0.037l-0.076-0.04l-0.026-0.084l0.021-0.1l0.061-0.087l0.266-0.176
	l0.034,0.04l0.032,0.073L981.29,765.747z M980.768,765.812l-0.004,0.063l0.032,0.081l0.038,0.046l0.11,0.093l-0.078,0.022
	l0.011,0.043l0.083,0.094l0.007,0.109l-0.006,0.092l0.05,0.041l-0.092,0.107l-0.095,0.03l-0.099,0.021l-0.1,0.074l-0.032-0.044
	l-0.018-0.045l-0.008-0.049l0.006-0.061l-0.035,0.012l-0.039,0.14l0.055,0.066l-0.073-0.002l-0.023-0.01l-0.035-0.033l-0.121,0.052
	l-0.158-0.054l-0.154-0.108l-0.109-0.115l0.05-0.094l0.072-0.093l0.084-0.061l0.086-0.001l-0.066,0.053l-0.032,0.016l0.013,0.024
	l0.011,0.015l0.014,0.015l0.022,0.017l0.035-0.063l0.055-0.046l0.041-0.058l-0.009-0.204l0.036-0.046l0.045-0.035l0.017-0.07
	l0.035,0.021l0.097,0.024l-0.021-0.143l0.065-0.085l0.112-0.02l0.111,0.051l0.048,0.032l-0.007,0.038L980.768,765.812z
	 M981.921,765.314l-0.135,0.042l-0.161-0.063l-0.049-0.172l0.037-0.206l0.096-0.161l0.141-0.042l0.044,0.051l-0.002,0.227
	l0.059,0.238L981.921,765.314z M982.802,764.554l0.077,0.18l0.017,0.104l-0.021,0.029l-0.051-0.055l-0.07-0.059l-0.08,0.015
	l0.011,0.043l0.041-0.013l0.01,0.039l-0.02,0.089l-0.021,0.047l-0.03,0.047l-0.043-0.035l-0.019-0.012l-0.061,0.044l0.046,0.052
	l0.028,0.081l0.011,0.091l-0.001,0.086l-0.019-0.021l-0.024-0.021l-0.019-0.02l-0.032,0.013l-0.011,0.007l-0.01,0.001h-0.021
	l-0.034,0.009l-0.036,0.08l-0.06-0.015l-0.056-0.067l-0.032-0.074l0.028-0.047l0.051-0.063l0.011-0.047l-0.094-0.009l-0.01-0.035
	l0.082-0.156l-0.002-0.025l-0.028-0.064l-0.002-0.026l0.025-0.013l0.038-0.003l0.033-0.009l0.008-0.022l0.027-0.132l0.121-0.074
	l0.141-0.034l0.087-0.012L982.802,764.554z M979.793,765.25l0.067,0.053l0.063-0.011l0.068-0.031l0.081-0.007l0.035,0.035
	l0.036,0.068l0.025,0.073l0.007,0.045l-0.056,0.045l-0.045,0.05l-0.01,0.061l0.046,0.074l-0.349,0.132l-0.074,0.007l-0.166-0.03
	l-0.025,0.005l-0.012-0.069l0.005-0.062l0.027-0.048l0.05-0.031l-0.032-0.094l0.052-0.11l0.09-0.084l0.087-0.016L979.793,765.25z
	 M982.461,763.369l0.016,0.01l0.014,0.013l0.021,0.004l0.034-0.013l0.003,0.028l-0.001,0.018l-0.018,0.045l0.043,0.036l-0.014,0.054
	l-0.093,0.135l-0.041-0.047l-0.012-0.02l-0.042,0.012l-0.046,0.079l-0.089,0.025l-0.089-0.018l-0.044-0.052l0.012-0.06l0.044-0.018
	h0.05l0.028-0.006l0.029-0.055l0.02-0.056l0.009-0.057l0.002-0.06l0.053,0.03l0.021-0.032l0.068-0.08l0.033,0.016l0.006,0.016
	L982.461,763.369z M979.586,764.454l-0.009,0.037l-0.022,0.03l-0.046,0.016l-0.188,0.01l-0.113,0.033l-0.067,0.009l-0.085-0.006
	l0.053-0.064l0.085-0.079l0.072-0.093l0.017-0.1l0.047-0.074l0.129-0.081l0.146-0.061l0.101-0.01l0.042,0.049l-0.005,0.061
	l-0.115,0.22l-0.023,0.036l-0.012,0.029L979.586,764.454z M979.189,763.786l0.019,0.041l0.011,0.107l-0.02,0.096l-0.057,0.149
	l-0.008,0.055l0.003,0.035l-0.003,0.035l-0.029,0.023l-0.056,0.016l-0.049,0.042l-0.022,0.017l-0.011,0.028l-0.019,0.017
	l-0.038-0.013l-0.093-0.063l-0.027-0.01l-0.011,0.007l-0.286,0.077l-0.037,0.059l-0.037,0.039l-0.058,0.022l0.007-0.043l0.013-0.045
	l-0.053-0.063l0.003-0.02l0.02-0.036l-0.063-0.016l-0.024-0.001l0.175-0.161l0.223-0.067l0.199-0.087l0.101-0.216l0.028,0.002
	l0.005,0.003l0.002,0.007l0.017,0.017l0.04-0.011l0.039-0.018l0.033-0.022l0.025-0.03l0.024,0.011L979.189,763.786z M980.886,763.3
	l0.048-0.008l0.001-0.081l0.087,0.053l0.022,0.157l0.075,0.033l-0.035,0.133l0.02,0.144l0.063,0.131l0.089,0.1l-0.097,0.069
	l-0.119,0.123l-0.11,0.064l-0.076-0.104l-0.04,0.011v0.028l-0.009,0.033l-0.004,0.028l-0.022-0.016l-0.05-0.026l-0.023-0.017
	l-0.016,0.071l-0.037,0.059l-0.046,0.045l-0.047,0.032l-0.071-0.059l-0.224-0.084l-0.041-0.055l0.158-0.17l0.087-0.171l0.022-0.005
	l-0.009-0.1l0.011-0.135l0.024-0.122l0.044-0.06l0.079-0.063l0.088-0.168l0.071-0.01l0.03,0.089L980.886,763.3z M983.298,762.286
	l0.018,0.078l-0.042,0.084l0.004,0.074l0.048,0.054l0.066,0.043l0.018,0.041l-0.102,0.045l-0.07,0.01l-0.058-0.022l-0.049,0.022
	l-0.003,0.017l-0.08,0.132l-0.026,0.014l-0.123,0.028l0.011,0.039l0.128,0.011l0.003,0.096l-0.063,0.073l-0.07-0.054l-0.056,0.035
	l-0.076,0.013h-0.066l-0.03-0.003l-0.021,0.026l-0.057-0.025l-0.028-0.047l0.06-0.045l0.062-0.062l0.026-0.102l0.05-0.089
	l0.128-0.034l-0.012-0.09l0.038-0.076l0.052-0.076l0.032-0.081l0.099-0.002l0.076-0.049l0.061-0.056L983.298,762.286z
	 M980.117,761.628l0.021,0.153l-0.024,0.082l-0.036,0.078l-0.021,0.093l0.011,0.235l-0.007,0.1l-0.044,0.099l-0.067-0.024
	l-0.062,0.026l-0.055,0.042l-0.047,0.021l-0.08-0.024l-0.192-0.172l-0.072-0.014l-0.066,0.019l-0.058,0.003l-0.039-0.066
	l-0.046-0.158l-0.029-0.07l-0.04-0.05l0.086-0.062l0.106-0.027l0.201-0.023l0.069-0.032l0.074-0.052l0.139-0.129l-0.026-0.019
	v-0.004l0.008-0.011l0.078-0.024l0.07-0.025l0.081-0.015l0.054,0.037L980.117,761.628z M991.939,754.799l-0.033,0.264l0.002,0.052
	l0.014,0.074l0.062,0.161l0.013,0.068l-0.015,0.125L992,755.7l-0.053,0.173l-0.143,0.106l-0.369,0.114l0.036-0.15h-0.102
	l-0.139,0.08l-0.087,0.094l-0.102,0.151l-0.29,0.256l-0.083,0.176l0.002,0.063l0.033,0.124l-0.006,0.068l0.047,0.01l0.149-0.022
	l0.12,0.006l0.123,0.034l0.135,0.074l0.066,0.025l0.163,0.01l0.035,0.027l0.025,0.039l0.046,0.046l0.156,0.101l0.077,0.027
	l0.099,0.015l0.201-0.026l0.06,0.012l0.086,0.076l0.036,0.107l0.015,0.244l0.045,0.244l0.265,0.648l0.025,0.103l0.038,0.255
	l-0.009,0.083l-0.068,0.092l-0.118,0.093l-0.134,0.068l-0.114,0.016l-0.044-0.032v-0.046l-0.013-0.037h-0.084l-0.055-0.015
	l-0.049-0.109l-0.058-0.021l-0.082,0.022l-0.008,0.035l0.042,0.058l0.022,0.134l-0.002,0.06l-0.04,0.13l-0.078,0.086l-0.11,0.033
	l-0.135-0.025l-0.034,0.047l-0.196,0.215l-0.092,0.069l-0.25,0.029l-0.086,0.026l-0.156,0.077l-0.075,0.026l-0.096,0.005
	l-0.06-0.018l-0.06-0.029l-0.057-0.02l-0.058,0.004l-0.122,0.055l-0.466,0.103l-0.036-0.008l-0.029,0.004l-0.05,0.049l-0.029,0.062
	l-0.027,0.155l-0.021,0.067l-0.055,0.077l-0.432,0.433l-0.411,0.412l-0.216,0.106l-0.468,0.077l-0.22,0.09l-0.112,0.113
	l-0.068,0.139l-0.322,0.971l-0.025,0.236l0.011,0.479l-0.246,1.188l-0.123,0.274v0.002l-0.111,0.207l-0.171,0.214l-0.119,0.112
	l-0.064,0.009l-0.005-0.08l0.027-0.049l0.041-0.039l0.038-0.05l0.047-0.149l0.026-0.041l-0.011-0.039l-0.041,0.012l-0.009,0.06
	l-0.016,0.054l-0.03,0.046l-0.052,0.038l-0.064,0.021l-0.063,0.005l-0.054-0.021l-0.031-0.046l-0.015-0.444l0.015-0.078l0.05-0.048
	l0.015-0.084l0.004-0.091l0.014-0.074l0.028-0.024l0.07-0.015l0.025-0.019l-0.002-0.022l-0.028-0.074v-0.02l0.222-0.084
	l-0.023-0.045l-0.038-0.031l-0.043-0.018l-0.044-0.01l0.052-0.1l0.014-0.12l-0.031-0.1l-0.094-0.039l-0.011,0.162l-0.052,0.13
	l-0.091,0.099l-0.126,0.064l0.056,0.082l-0.01,0.062l-0.052,0.028l-0.071-0.025l-0.004,0.032l-0.009,0.028l-0.004,0.028l0.007,0.04
	l-0.025-0.008l-0.063-0.009l0.026,0.109l-0.017,0.061l-0.047,0.052l-0.059,0.081l-0.041,0.1l-0.037,0.182l-0.09,0.237l-0.043,0.077
	l-0.061,0.043l-0.079-0.012l-0.104-0.052l-0.086-0.065l-0.022-0.059l0.049-0.062l0.141-0.131l0.046-0.062l0.01-0.074l-0.024-0.259
	l-0.187-0.463l0.022-0.155l-0.119,0.055l-0.008,0.094l0.047,0.104l0.055,0.09l0.03,0.084l0.031,0.139l-0.015,0.109l-0.156-0.017
	l-0.191,0.059l-0.063-0.001l-0.048-0.013l-0.036-0.015l-0.025-0.007l-0.124,0.057l-0.068,0.008l-0.048-0.056l-0.031-0.058
	l-0.05-0.03l-0.062-0.008l-0.063,0.01l-0.097-0.036l-0.057-0.132l-0.066-0.274l-0.003-0.064l-0.013-0.036l-0.035-0.01l-0.034,0.01
	l-0.02-0.002l-0.011-0.015l-0.01-0.035l-0.011-0.063l0.009-0.082l-0.01-0.062l0.012-0.061l0.088-0.229l0.045-0.064l0.038-0.003
	l0.124,0.022l0.066-0.006l0.05-0.033l0.057-0.1l0.05-0.032l0.047-0.048l0.044-0.096l0.033-0.104l0.008-0.083l-0.233,0.335
	l-0.094,0.093l-0.097-0.027l-0.035-0.062l-0.02-0.182l0.017-0.064l0.046-0.088l0.027-0.075l-0.037-0.021l-0.087,0.052l-0.051,0.091
	l-0.021,0.111l0.01,0.104l-0.016,0.075l-0.068,0.063l-0.08,0.058l-0.053,0.056l-0.026,0.104l-0.008,0.084l-0.033,0.064l-0.107,0.052
	l-0.065,0.044l-0.051,0.049l-0.051-0.003l-0.057-0.113l0.001-0.066l0.026-0.228l0.016-0.052l0.005-0.044l0.091-0.276l-0.097,0.022
	l-0.044-0.029l-0.016-0.065l-0.007-0.09l0.05,0.016l0.05-0.012l0.043-0.036l0.036-0.064l0.013,0.035l0.053,0.075l0.004-0.082
	l0.022-0.074l0.043-0.028l0.059,0.064l0.039-0.011l-0.02-0.055l-0.027-0.048l-0.038-0.039l-0.043-0.035l0.023-0.012l0.003-0.007
	l-0.005-0.008l0.003-0.022l0.057,0.008l0.063-0.005l0.079-0.018l0.098-0.002l0.024-0.027l-0.065-0.07l0.007-0.049l-0.001-0.078
	l0.036-0.012l0.062,0.051l0.074-0.032l0.063-0.016l0.029,0.1l0.094-0.067l-0.023-0.076l-0.086-0.07l-0.098-0.047l-0.019,0.022
	l-0.018,0.013l-0.062,0.035l-0.011-0.039l0.108-0.075l0.047-0.048l0.039-0.061l0.06,0.059l0.091,0.063l0.101,0.019l0.09-0.067
	l-0.068,0.01l-0.016-0.038l-0.002-0.058l-0.03-0.052l-0.05-0.01l-0.047,0.014l-0.043-0.005l-0.041-0.069l0.068,0.003l0.127-0.008
	l0.049,0.015l0.063-0.06l-0.001,0.04l0.006,0.086l-0.003,0.04l0.161,0.061l0.038-0.021l0.027-0.104l-0.041-0.043l-0.096-0.075
	l-0.021-0.023l0.005-0.044l0.025-0.056l0.037-0.051l0.041-0.029l0.015,0.01l0.05,0.014l0.064,0.01l0.063-0.005l0.04,0.01
	l0.032,0.043l0.024,0.062l0.015,0.063l0.094-0.068l-0.015-0.018l-0.023-0.036l-0.016-0.016l0.082-0.018l0.065,0.014l0.058,0.041
	l0.06,0.056l-0.203,0.105l-0.08,0.021l0.033,0.023l0.019,0.018l0.024,0.01l0.05-0.003l0.001,0.097l0.044,0.042l0.045-0.019
	l0.013-0.167l0.063-0.024l0.068-0.006l0.025-0.019l0.171-0.06l0.048-0.022l0.054-0.051l0.034-0.049l0.015-0.062l-0.004-0.081
	l-0.062,0.042l-0.042,0.042l-0.051,0.037l-0.177,0.073l-0.044-0.002l-0.033-0.054l0.004-0.03l0.024-0.026l0.033-0.021l0.038-0.016
	l-0.034-0.045l-0.01-0.029l0.002-0.081l-0.065,0.004l-0.041,0.043l-0.016,0.07l0.013,0.083l-0.1-0.067l-0.055-0.013l-0.066,0.02
	l-0.011-0.042l0.032-0.032l0.055-0.117l-0.011-0.04l-0.062-0.065l-0.037,0.01l-0.022,0.217l-0.061,0.035l-0.096-0.025l-0.078,0.015
	l0.034-0.103l0.066-0.061l0.055-0.064l-0.005-0.111l-0.033,0.063l-0.043,0.041l-0.051,0.014l-0.052-0.023l-0.034,0.008l0.01,0.062
	l-0.005,0.04l-0.03,0.03l-0.055,0.021l0.039,0.078l-0.034,0.033l-0.063-0.014l-0.053-0.065l-0.051,0.146l-0.054-0.02l0.001-0.105
	l0.116-0.109l-0.058-0.021l-0.032-0.041l-0.009-0.055l0.013-0.068l0.034-0.009l0.027,0.009l0.022,0.001l0.07-0.007l-0.043-0.071
	l-0.063-0.038l-0.127-0.029l-0.037,0.012l0.01,0.098l-0.018,0.084l-0.008,0.086l0.035,0.104l-0.05,0.039l-0.029,0.087l-0.042,0.033
	l-0.039-0.008l0.001-0.058l0.033-0.104l-0.072-0.01l-0.03-0.067l-0.008-0.181l-0.044,0.048l-0.022,0.059l-0.001,0.065l0.014,0.071
	l-0.021,0.012l-0.115,0.03l-0.046,0.03l0.085,0.018l0.011,0.042l0.075,0.026l0.072,0.021l0.041,0.045v0.083l-0.045,0.03
	l-0.058-0.007l-0.044-0.044l-0.015,0.053l-0.008,0.053l-0.003,0.055l0.003,0.056l-0.101-0.208l-0.055-0.067l-0.023,0.017
	l-0.043,0.028l0.058,0.068l-0.074,0.021l0.062,0.144l0.043,0.058l0.08,0.039l-0.016,0.09l-0.098-0.038l-0.096-0.059l-0.155-0.141
	l0.01,0.105l0.063,0.085l0.081,0.077l0.063,0.09l-0.029-0.006l-0.094-0.001l-0.004,0.082l-0.045,0.016l-0.055-0.046l-0.028-0.099
	l-0.037,0.012l-0.01,0.059v0.062l0.011,0.064l0.021,0.063l-0.055-0.01l-0.023-0.01l0.031,0.113l-0.067-0.022l-0.034-0.044
	l-0.032-0.057l-0.058-0.052l-0.048-0.055l0.012-0.052l0.05-0.064l0.004-0.094l0.032-0.104l0.024-0.117l-0.024-0.135l-0.131,0.225
	l-0.081,0.077l-0.114-0.043l0.012-0.056l-0.032-0.119l-0.01-0.069l-0.073,0.017l-0.037,0.035l-0.023,0.042l-0.027,0.039l0.004,0.02
	l-0.028,0.062l-0.041,0.045l-0.034-0.035l-0.044-0.09l-0.055-0.084l-0.026-0.095l0.06-0.184l0.011-0.139l0.022-0.069l0.147-0.272
	l0.047-0.061l0.031-0.022l0.01-0.023l-0.014-0.066l-0.003-0.059l0.02-0.061l0.052-0.088l0.033-0.009l0.025,0.031l0.021,0.011
	l0.022,0.005l0.027,0.013l0.007-0.06l0.021-0.027l0.035-0.005l0.03-0.022l0.128-0.032l0.235-0.001l0.124-0.019l0.673-0.193
	l0.022-0.027l0.069-0.111l0.024-0.027l0.134-0.077l0.068-0.106l0.048-0.112l0.07-0.087l0.124-0.036l0.046,0.08l-0.007,0.127
	l-0.03,0.104l-0.012,0.119l0.042,0.142l0.074,0.129l0.083,0.083l0.117,0.02l0.146-0.017l0.132,0.007l0.079,0.087l0.075,0.049
	l0.135-0.007l0.122-0.061l0.031-0.109l-0.129,0.09l-0.122-0.061l-0.11-0.106l-0.092-0.045l-0.166,0.027l-0.052-0.002l-0.074-0.022
	l-0.042-0.03l-0.039-0.037l-0.06-0.04l-0.044-0.066l0.031-0.084l0.051-0.085l0.019-0.077l0.023-0.307l-0.005-0.038l0.02-0.021
	l0.079-0.027l0.052-0.032l-0.011-0.036l-0.045-0.031l-0.045-0.012l-0.006-0.021l-0.06-0.002l-0.064,0.015l-0.047,0.04l-0.04,0.021
	l-0.135-0.017l-0.064,0.003l-0.071,0.046l-0.139,0.152l-0.081,0.05l-0.037,0.052l-0.107,0.223l-0.063,0.079l-0.119,0.057
	l-0.109,0.01l-0.239-0.013l-0.221,0.025l-0.077-0.016l-0.097-0.048l-0.121-0.04l-0.13,0.007l-0.126,0.042l-0.11,0.068l-0.032,0.038
	l-0.069,0.103l-0.03,0.027l-0.12,0.026l-0.06,0.021l-0.039,0.033l-0.123,0.226l-0.028,0.03l-0.07,0.054l-0.027,0.031l-0.098,0.284
	l-0.034,0.052l-0.101,0.062l-0.202,0.221l-0.093,0.074l-0.014,0.011l-0.334,0.167l-0.044,0.047l-0.039,0.064l-0.224,0.213
	l-0.096,0.057l-0.013-0.493l0.049-0.222l0.13-0.046l0.036,0.013l0.045,0.003l0.052-0.01l0.058-0.02l-0.011-0.038l-0.104,0.022
	l-0.157-0.076l-0.104,0.032l-0.069,0.092l0.003,0.104l0.018,0.109l-0.081,0.406l-0.047,0.049l-0.115,0.002l-0.04-0.066l-0.021-0.221
	l-0.079,0.071l0.004,0.1l0.026,0.111l-0.009,0.115l-0.028,0.028l-0.108,0.078l-0.042,0.049l-0.041,0.064l-0.03,0.017l-0.028-0.02
	l-0.036-0.045l-0.044-0.108l0.001-0.124l0.04-0.229l-0.006-0.339l0.012-0.086l0.017-0.029l0.027-0.033l0.034-0.029l0.034-0.02
	l0.016-0.027l-0.001-0.148l0.082-0.257l0.032-0.064l0.064-0.07l0.102-0.08l0.113-0.065l0.097-0.025l0.038,0.026l0.034,0.046
	l0.043,0.043l0.059,0.008l0.11-0.025h0.051l0.054,0.01l-0.004-0.085l0.018-0.096l0.002-0.074l-0.053-0.032l-0.025,0.031
	l-0.038,0.067l-0.063,0.065l-0.103,0.026l-0.039-0.013l-0.055-0.056l-0.05-0.017h-0.051l-0.023,0.008l-0.021,0.016l-0.203,0.073
	h-0.074l-0.058-0.058l-0.037,0.012l-0.014,0.104l-0.085,0.088l-0.116,0.066l-0.108,0.042l0.024,0.036l0.013,0.015l0.021,0.02
	l-0.018,0.011l-0.012,0.003l-0.006,0.009l0.008,0.023l-0.051-0.012l-0.037-0.017l0.009,0.025l0.039,0.073l0.008,0.072l-0.026,0.087
	l-0.061,0.099l-0.065,0.053l-0.402,0.12l-0.047,0.034l-0.094,0.083l-0.042,0.023l-0.023,0.026l-0.022,0.052l-0.035,0.054
	l-0.058,0.033l-0.058-0.006l-0.06-0.027l-0.111-0.073l-0.125,0.068l-0.184,0.016l-0.169-0.023l-0.083-0.048l-0.179-0.22
	l-0.061-0.016l-0.151,0.019l-0.069-0.01l-0.062-0.04l-0.052-0.062l-0.043-0.075l-0.066-0.17l-0.092-0.129l-0.034-0.076l0.061-0.372
	l0.038-0.088l0.048-0.073l0.056-0.059l0.062-0.052l0.021,0.067l0.04,0.042h0.045l0.033-0.065l-0.008-0.048l-0.07-0.071l-0.016-0.063
	l0.038-0.107l0.077-0.084l0.089-0.074l0.334-0.356l0.07-0.101l0.028-0.064l0.034-0.115l0.037-0.057l0.042-0.038l0.112-0.063
	l0.049-0.036l-0.146,0.033l-0.086,0.07l-0.054,0.099l-0.05,0.121l-0.088,0.109l-0.265,0.139l-0.103,0.071l-0.154,0.179L978,759.989
	l-0.127,0.269l-0.112-0.016l-0.021-0.107l0.007-0.141l-0.034-0.11l-0.005,0.093l-0.041,0.131l0.022,0.219l-0.03,0.099l-0.075,0.052
	l-0.118-0.02l-0.026,0.049l-0.021-0.02l-0.077-0.037l0.009,0.079l-0.034,0.046l-0.064,0.028l-0.084,0.022l-0.007,0.025l-0.021,0.05
	l-0.026,0.034l-0.021-0.022l-0.016-0.021l-0.028-0.013l-0.034-0.004l-0.11,0.01l-0.062-0.025l-0.046-0.048l-0.027-0.062l-0.043-0.02
	l-0.17-0.116l-0.015-0.035l-0.042-0.011l-0.143-0.067l-0.06-0.017l-0.023,0.014l-0.073,0.055l-0.042,0.009l-0.039-0.019
	l-0.075-0.074l-0.039-0.032l-0.246-0.105l-0.069-0.014l-0.081,0.022l-0.055,0.043l-0.048,0.051l-0.059,0.038l-0.053-0.038l0,0
	l0.099-0.125l0.188-0.104l0.751-0.157l0.099-0.032l0.265-0.153l0.273-0.08l0.147-0.116l0.371-0.364l0.319-0.318l0.053-0.028
	l0.062-0.005l0.131,0.016l0.047-0.006l0.022-0.019l0.019-0.025l0.032-0.026l0.392-0.19l0.198-0.038l0.373,0.021l0.109-0.01
	l0.424-0.156l0.055-0.012l0.955-0.211l0.177-0.094l1.197-1.058l0.013-0.015l0.231-0.303l0.289-0.252l0.254-0.327l0.124-0.106
	l0.149-0.069l0.268-0.076l1.496-0.426l0.439-0.124l1.938-0.555l0.515-0.147l1.424-0.41l2.084-0.696l-0.012,0.456l0.023,0.144
	l0.078,0.156l0.358,0.287l0.085,0.106l0.027,0.106L991.939,754.799z"/></svg>