<?xml version="1.0" encoding="utf-8"?>
<!-- Generator: Adobe Illustrator 15.0.0, SVG Export Plug-In . SVG Version: 6.00 Build 0)  -->
<!DOCTYPE svg PUBLIC "-//W3C//DTD SVG 1.1//EN" "http://www.w3.org/Graphics/SVG/1.1/DTD/svg11.dtd">
<svg version="1.1" id="Ebene_1" xmlns="http://www.w3.org/2000/svg" xmlns:xlink="http://www.w3.org/1999/xlink" x="0px" y="0px"
	 width="1920px" height="1080px" viewBox="0 0 1920 1080" enable-background="new 0 0 1920 1080" xml:space="preserve">

<path fill="#F4E0B6" stroke="#FFFFFF" d="M708.328,631.304l-0.078-0.017l-0.038-0.075l0.057-0.087l0.102-0.079l0.094-0.053
	l0.032,0.062l0.026,0.074l0.032,0.152l-0.069-0.018L708.328,631.304z M720.318,635.187l0.157,0.129l0.194,0.109l0.04,0.049
	l0.005,0.074l-0.008,0.105l-0.019,0.088l-0.025,0.028l-0.048-0.046l-0.084-0.129l-0.054-0.051l-0.072-0.032l-0.138-0.032
	l-0.069-0.028l-0.107-0.116l-0.038-0.143l0.008-0.143l0.03-0.119l0.066,0.016l0.057,0.053l0.043,0.071l0.03,0.074L720.318,635.187z
	 M716.475,623.273l0.05,0.074l0.027,0.016l0.021-0.07l0.006-0.027l0.155,0.139l0.055,0.026l0.124,0.04l0.041,0.028l0.023,0.059
	l0.031,0.295l-0.011,0.045l-0.043,0.024l0.135,0.087l0.035,0.058l0.06,0.205l0.086,0.15l0.107,0.138l0.145,0.126l0.217,0.138h0.026
	l0.036-0.015l0.064-0.004l0.067,0.004l0.044,0.012l0.111,0.135l0.064,0.376l0.038,0.226l0.032,0.081l0.043,0.076l0.06,0.07
	l0.154,0.12l0.101,0.132l0.211,0.2l0.056,0.033l0.045,0.009l0.051-0.01l0.227-0.063l0.09,0.01l0.199,0.128l0.104,0.052l0.041,0.032
	l0.034,0.068l0.037,0.212l-0.021,0.115l-0.067,0.099l-0.2,0.18l0.053,0.077l-0.018,0.087l-0.117,0.179l-0.042,0.084l-0.016,0.077
	l0.002,0.522l0.038,0.178l0.005,0.022l0.091,0.129l0.083,0.032l0.178,0.031l0.08,0.033l0.168,0.093l0.083,0.029l0.095,0.014
	l0.155-0.008l0.047,0.017l0.032,0.032l0.053,0.087l0.042,0.038l0.103,0.03l0.041,0.02l0.021,0.015l0.016,0.017l0.007,0.021
	l-0.009,0.025v0.028l0.03,0.007h0.057l0.154,0.219l0.033,0.084l0.096-0.061l0.108-0.022l0.226,0.007l0.128,0.032l-0.004,0.061
	l-0.088,0.077l-0.125,0.08l0.056,0.072l0.083,0.05l0.093,0.027l0.088,0.005l-0.034,0.101l-0.09,0.039l-0.105,0.022l-0.077,0.048
	l-0.061,0.063l-0.084,0.039l-0.094,0.009l-0.092-0.029l-0.252-0.229l-0.33-0.167l-0.06-0.067l-0.091-0.152l-0.427-0.345
	l-0.062-0.019L719.596,629l-0.132,0.182l-0.131,0.145l-0.028,0.067l0.019,0.048l0.023,0.06l0.222,0.093l0.053,0.068l0.105,0.025
	l0.128,0.175l0.097,0.045l-0.01-0.033l-0.017-0.036l-0.027-0.035l-0.037-0.029l0.018-0.028l0.202,0.109l0.05,0.045l0.034,0.09
	l-0.027,0.153l0.031,0.084l0.051,0.057l0.115,0.094l0.28,0.303l0.116,0.124l0.06,0.031l0.095,0.003l-0.004-0.044l-0.028-0.056
	l0.023-0.039l0.079,0.021l0.023,0.089l-0.005,0.176l0.031,0.061l0.044,0.051l0.034,0.05l-0.002,0.06l0.067-0.012l0.117,0.013
	l0.062-0.007l-0.008-0.048h0.019l0.034,0.019l0.038,0.008l0.065-0.018l0.021-0.009l0.016,0.007l0.126,0.087l0.067,0.063l0.052,0.067
	l0.04,0.071v0.015l-0.01,0.016l-0.006,0.017l0.006,0.022l0.058,0.073l0.008,0.003l0.113,0.107l0.079,0.054l0.026,0.032l0.003,0.008
	l0.016,0.041l0.021,0.039l0.063,0.046l0.028,0.037l0.168,0.668l0.034,0.294l0.111,0.309l0.088,0.21l0.032,0.049l0.014,0.031
	l0.062,0.266l0.128,0.261l0.001,0.222l-0.118,0.146l-0.688,0.337l-0.038,0.008l-0.041,0.012l-0.035,0.031l-0.081,0.145l-0.032,0.036
	l-0.084,0.044l-0.082-0.006l-0.082-0.036l-0.087-0.054l-0.053-0.063l-0.084-0.191l-0.043-0.047l-0.088,0.005l-0.031,0.07
	l-0.028,0.088l-0.081,0.061l-0.084,0.035l-0.075,0.056l-0.204,0.199l-0.046,0.029l-0.052-0.01l-0.329-0.164l-0.048-0.062
	l0.084-0.151l0.032-0.25l-0.003-0.264l-0.027-0.196l-0.063-0.152l-0.111-0.161l-0.14-0.116l-0.225-0.032l-0.277-0.151l-0.062-0.057
	l-0.125-0.153l-0.065-0.058l-0.049-0.061l-0.047-0.158l-0.068-0.071l-0.081-0.028l-0.088-0.02l-0.077-0.039l-0.044-0.091
	l-0.125,0.026l-0.502-0.254l-0.178-0.033l-0.078-0.043l-0.109-0.27l-0.052-0.095l-0.05-0.04l-0.047,0.024l-0.027,0.046l-0.022,0.048
	l-0.033,0.031l-0.04-0.009l-0.053-0.032l-0.041-0.038l-0.012-0.028l0.009-0.146l-0.011-0.048l-0.022-0.025l-0.525-0.413
	l-0.106-0.058l-0.017-0.01l-0.071-0.018l-0.153-0.015l-0.138,0.009l-0.047-0.004l-0.12-0.028l-0.052-0.003l-0.062-0.004
	l-0.131,0.025l-0.126,0.062l-0.102,0.104l-0.041,0.02l-0.114-0.005l-0.038,0.017l-0.044,0.035l-0.201,0.043l-0.16,0.051
	l-0.079,0.014l-0.015-0.025l-0.092-0.052l-0.076-0.03l-0.063-0.003l-0.038-0.081l-0.06-0.06l-0.473-0.289l-0.097-0.022l-0.21-0.005
	l-0.099-0.035l-0.255-0.158l-0.043-0.063l0.018-0.037l0.044-0.01l0.049-0.002l0.033-0.013l0.019-0.051l-0.011-0.039l-0.015-0.031
	l-0.002-0.058l-0.04-0.091l0.008-0.046l0.035-0.033l0.034-0.006l0.034,0.003l0.037-0.016l0.07-0.07l0.057-0.083l0.039-0.079
	l0.011-0.061l-0.012-0.155l-0.026-0.066l-0.063-0.085l-0.061-0.063l-0.087-0.064l-0.092-0.026l-0.079,0.048l-0.042,0.091
	l-0.031,0.028l-0.183,0.043l-0.043,0.002l-0.047-0.015l-0.041-0.027l-0.061-0.073l-0.032-0.023l-0.036-0.007l-0.075,0.007
	l-0.04-0.016l-0.043-0.035h-0.022l-0.06,0.014l-0.021,0.009l-0.056,0.035l-0.015,0.014l-0.021,0.01l-0.061-0.014l-0.024-0.001
	l-0.177,0.059l-0.073-0.002l-0.094-0.043l-0.027-0.036l-0.002-0.047l0.007-0.05l-0.001-0.051l-0.018-0.055l-0.028-0.042
	l-0.135-0.136l-0.073-0.046l-0.073-0.013l-0.064,0.046l-0.03,0.028l-0.07,0.037l-0.038,0.04l-0.026,0.054l-0.001,0.04l0.008,0.042
	l-0.002,0.059l-0.083,0.255l-0.005,0.049l-0.031,0.048l-0.146,0.067l-0.167,0.122l-0.698,0.307l-0.091,0.071l-0.037,0.022
	l-0.051,0.003l-0.1-0.006l-0.072,0.011l-0.059,0.019l-0.058,0.032l-0.067,0.052l-0.021-0.028l-0.006-0.012l-0.007-0.022
	l-0.025,0.026l-0.012,0.006l-0.023,0.004l0.026,0.016l-0.037,0.024l-0.037,0.013l-0.035,0.003l-0.033-0.013l-0.024,0.008
	l-0.077,0.063l-0.033,0.021l-0.091,0.038l-0.375,0.297l-0.087,0.05l-0.301,0.125l-0.024-0.04l-0.011-0.053l0.009-0.018l-0.014-0.055
	l0.034-0.593l-0.017-0.107l-0.09-0.129l-0.324-0.145l-0.105-0.112l0.055-0.006l0.203-0.052l0.06-0.034l0.052-0.09l0.025-0.069
	l0.019-0.149l0.002-0.087l0.008-0.029l0.029-0.049l0.126-0.135l0.02-0.087l-0.013-0.117l-0.058-0.201l-0.153-0.208l0.125-0.094
	l0.059-0.061l0.07-0.12l0.046-0.063l0.021-0.05l0.037-0.139l0.02-0.043l0.063-0.069l0.079-0.058l0.358-0.185l0.004-0.002l0.095-0.05
	v-0.016l-0.013-0.054l-0.029-0.068l-0.146-0.2l-0.075-0.183l-0.006-0.055l0.001-0.118l-0.012-0.05l-0.119-0.127l-0.034-0.066
	l0.027-0.085l0.043-0.035h0.04l0.034-0.009l0.031-0.064l0.001-0.03l0.012,0.001l-0.013-0.032l-0.039-0.224l0.017-0.12l0.004-0.105
	l-0.021-0.063l-0.024-0.05l-0.009-0.051l0.01-0.022l0.075-0.007l0.156,0.056l0.241,0.228l0.176,0.039l0.082-0.021l0.165-0.084
	l0.089-0.026h0.013h0.036h0.14l0.08-0.011l0.094-0.045l0.07-0.052l0.067-0.061l0.055-0.071l0.075-0.174l0.104-0.161l0.029-0.086
	l-0.003-0.053l-0.032-0.13l-0.006-0.063l0.023-0.144l-0.015-0.05l-0.083-0.057l-0.112-0.025l-0.072-0.031l0.035-0.075l0.092-0.003
	l0.221,0.067h0.069l0.278-0.08l0.214-0.087l0.09-0.017l0.184-0.013l0.092-0.039l0.064-0.057l0.173-0.224l-0.031-0.052l-0.158-0.267
	l-0.035-0.201l-0.005-0.025l-0.002-0.135l0.035-0.088l0.04-0.011l0.137,0.005l0.053-0.005l0.126-0.09l0.035-0.012l0.102-0.063
	l0.121-0.174l0.163-0.332l0.063-0.31l0.043-0.1l0.074-0.098l0.046-0.061l0.033-0.078l0.04-0.128l0.06,0.061l0.042,0.074l0.038-0.086
	l0.037-0.19l0.03-0.037l0.02-0.028l-0.094-0.067l0.016-0.049l0.08-0.036l0.1-0.028l0.025-0.002l0.021,0.009l0.04,0.026l0.031,0.006
	l0.074-0.025l0.035-0.006l0.054,0.011l0.038,0.011l0.042,0.006l0.068-0.013l0.008-0.064l0.025-0.047l0.04-0.02l0.055,0.019
	l0.024,0.021l0.03,0.047l0.024,0.022l0.018-0.001l0.05-0.02h0.019l0.39,0.206l0.085,0.072l0.071,0.093l0.222,0.4l0.087,0.084
	l0.121,0.022l0.037,0.101l0.036,0.058l0.156,0.106l0.049,0.015l0.031-0.022l0.028-0.04l0.046-0.029l0.053,0.01l0.006,0.057
	l-0.028,0.129h0.04l0.034-0.008l0.028-0.011l0.028-0.02l-0.025-0.031l-0.003-0.008l0.006-0.012l0.006-0.032l0.041,0.058l0.049,0.028
	l0.057,0.017l0.063,0.031l0.056-0.008l0.152-0.085l0.064-0.003l0.063,0.021l0.157,0.014l0.069,0.03l0.048,0.053l0.033,0.068
	l-0.002,0.067L716.475,623.273z"/></svg>