<?xml version="1.0" encoding="utf-8"?>
<!-- Generator: Adobe Illustrator 15.0.0, SVG Export Plug-In . SVG Version: 6.00 Build 0)  -->
<!DOCTYPE svg PUBLIC "-//W3C//DTD SVG 1.1//EN" "http://www.w3.org/Graphics/SVG/1.1/DTD/svg11.dtd">
<svg version="1.1" id="Ebene_1" xmlns="http://www.w3.org/2000/svg" xmlns:xlink="http://www.w3.org/1999/xlink" x="0px" y="0px"
	 width="1920px" height="1080px" viewBox="0 0 1920 1080" enable-background="new 0 0 1920 1080" xml:space="preserve">

<path fill="#F4E0B6" stroke="#FFFFFF" d="M337.415,212.932l-0.061,0.003l0.043-0.06l0.021,0.042L337.415,212.932z M337.995,201.115
	l-0.042,0.147l0.068,0.061l-0.028,0.048l-0.063,0.004l-0.04-0.069l-0.035-0.275l-0.029-0.077l-0.099-0.101l-0.271-0.141l-0.117-0.11
	l0.036-0.039l0.125-0.218l0.058-0.137l0.034-0.047l0.142,0.183l0.022,0.074l0.008,0.167l0.021,0.076l0.154,0.085l0.054,0.17
	L337.995,201.115z M338.428,206.715l-0.054-0.026l0.021-0.066l-0.044-0.031l-0.021-0.036v-0.041l0.021-0.05l-0.046-0.01
	l-0.024-0.024l-0.008-0.039l0.001-0.049l0.06-0.021l0.05-0.025l0.037-0.032l0.021-0.041l0.059,0.064l0.026,0.097l0.008,0.202
	l-0.032,0.1L338.428,206.715z M338.714,205.736l-0.069-0.106l0.003-0.046l0.063-0.04l0,0l0.032,0.033l0.005,0.048l-0.014,0.054
	L338.714,205.736z M354.566,196.166l-0.024-0.037l0.029-0.03l0.048-0.004l-0.002,0.065L354.566,196.166z"/></svg>