<?xml version="1.0" encoding="utf-8"?>
<!-- Generator: Adobe Illustrator 15.0.0, SVG Export Plug-In . SVG Version: 6.00 Build 0)  -->
<!DOCTYPE svg PUBLIC "-//W3C//DTD SVG 1.1//EN" "http://www.w3.org/Graphics/SVG/1.1/DTD/svg11.dtd">
<svg version="1.1" id="Ebene_1" xmlns="http://www.w3.org/2000/svg" xmlns:xlink="http://www.w3.org/1999/xlink" x="0px" y="0px"
	 width="1920px" height="1080px" viewBox="0 0 1920 1080" enable-background="new 0 0 1920 1080" xml:space="preserve">

<path fill="#F4E0B6" stroke="#FFFFFF" d="M599.565,774.758l-0.03,0.022l-0.044-0.035l-0.041-0.087l-0.042-0.059l0.024-0.055h0.04
	l0.064,0.055l0.001,0.066l-0.003,0.046L599.565,774.758z M599.342,772.164l-0.043-0.009l-0.045-0.023l-0.031-0.029l0.035-0.052
	l0.052-0.02l0.031-0.045l0.043,0.026l-0.004,0.038l0.023,0.027l-0.022,0.05L599.342,772.164z M599.76,762.244l0.002,0.04
	l-0.039-0.037l-0.057-0.019l-0.037-0.074l-0.057-0.101l-0.015-0.101l0.004-0.082h0.05l0.035,0.057l0.095,0.253L599.76,762.244z
	 M595.124,724.655l-0.057-0.018l-0.058-0.04l0.002-0.06l0.04-0.047l0.017-0.097l-0.023-0.062l0.052-0.027l0.045-0.074l0.127-0.166
	l0.034,0.063l-0.042,0.025l-0.065,0.075l-0.004,0.091l0.019,0.073l-0.022,0.068l-0.04,0.09L595.124,724.655z M637.528,703.374
	l0.073,0.38l0.035,0.1l0.076,0.114l0.142,0.138l0.062,0.081l0.049,0.022l0.077-0.022l0.226-0.172l0.064,0.015l0.049,0.169
	l0.013,0.159l-0.027,0.51l-0.186,0.051l-0.074,0.058l0.067,0.085l0.046,0.035l0.08,0.084l0.111,0.081l0.02,0.035l0.008,0.038
	l0.019,0.051l0.011,0.042l0.001,0.039l0.017,0.039l0.064,0.04l0.031-0.001l0.042-0.011l0.053-0.008l0.057,0.018l0.024,0.071
	l0.004,0.361l0.078,0.38l0.065,0.193l0.187,0.381l0.028,0.094l0.021,0.123l0.003,0.106l0.02,0.028l0.063,0.04l0.011,0.039
	l-0.017,0.066l-0.025,0.068l-0.001,0.001l-0.014,0.06l-0.056,0.741l-0.03,0.034l-0.09,0.031l-0.045,0.039l-0.054,0.112l-0.006,0.104
	l0.057,0.313l0.02,0.045l0.038,0.044l0.08,0.049l0.028,0.042l-0.08,0.073l-0.004,0.085l0.02,0.088l-0.009,0.09l-0.058,0.049
	l-0.065-0.037l-0.068-0.06l-0.064-0.02l-0.064,0.051l0.004,0.07l0.072,0.165l0.01,0.106l-0.056,0.304l0.026,0.231l0.085,0.156
	l0.249,0.225l0.222,0.299l0.13,0.068l0.151-0.131l0.025,0.093l-0.08,0.471v0.063l0.02,0.062l0.043,0.062l0.031,0.007l0.038-0.017
	l0.065-0.002l0.029-0.016l0.034-0.027l0.031-0.003l0.02,0.065l-0.017,0.051l-0.09,0.077l-0.017,0.053l0.044,0.079l0.165,0.042
	l0.061,0.079l0.002,0.07l-0.036,0.271l0.007,0.213l0.017,0.087l0.04,0.09l0.099,0.125l0.065,0.063l0.054,0.034l0.104-0.01
	l0.143-0.105l0.085,0.007l-0.01,0.128l0.023,0.126l0.06,0.112l0.098,0.084l0.042,0.049l0.05,0.132l0.091,0.103v0.064l-0.018,0.071
	l-0.008,0.109l-0.022,0.066l-0.004,0.032l0.017,0.016l0.067,0.025l0.014,0.016l-0.005,0.05l-0.014,0.054l-0.053,0.129l-0.009,0.045
	v0.059l0.008,0.053l0.054,0.083l-0.052,0.049l-0.124,0.069l0.002,0.111l0.125,0.199l0.004,0.13l0.057,0.145l0.006,0.083
	l-0.018,0.063l-0.03,0.06l-0.029,0.081l-0.063,0.268l-0.057,0.107l-0.151,0.019l-0.08,0.064l-0.142,0.161l-0.113,0.216l0.025,0.194
	l0.192,0.397l-0.003,0.025l-0.021,0.086l-0.002,0.023l0.02,0.017l0.054,0.021l0.061,0.046l0.052,0.026l0.051,0.042l0.036,0.077
	l0.053,0.189l0.043,0.035l0.064-0.044l0.116-0.047l0.076,0.029l0.131,0.139l0.039-0.005l0.089-0.139l0.047,0.027l0.043,0.24
	l0.025,0.064l0.033,0.048l0.023,0.054l0.002,0.079l-0.135,0.193l-0.013,0.094l0.033,0.221l-0.018,0.11l-0.035,0.046l-0.114,0.116
	l-0.044,0.077l-0.024,0.1l-0.004,0.093l0.011,0.191l-0.019,0.123l-0.036,0.146l-0.021,0.139l0.027,0.106l-0.265,0.198l-0.101,0.099
	l-0.254,0.091l-0.071,0.038l-0.032,0.029l-0.033,0.052l-0.017,0.061l0.003,0.111l-0.007,0.038l0.002,0.036l0.034,0.096v0.039
	l-0.056,0.181l-0.01,0.051l0.046,0.104l0.171,0.174l0.017,0.074l-0.029,0.135l0.091-0.032l0.115-0.097l0.04-0.055l0.214,0.394
	l-0.001,0.039l0.033,0.11l-0.045,0.303l-0.001,0.119l0.019,0.057l0.042,0.023l0.217,0.063l0.076,0.008l0.085-0.034l0.157,0.017
	l0.146-0.005l0.061,0.077l0.07,0.173l0.045-0.063l0.047-0.039l0.057-0.02l0.072-0.002l0.002,0.054l-0.004,0.06l-0.015,0.064
	l-0.054,0.156l0.021,0.027l0.091,0.013l0.089-0.033l0.268-0.238l0.1-0.059l0.076,0.064l0.056,0.098l0.108,0.325l0.07,0.081
	l0.424,0.357l0.02,0.065l-0.009,0.081l0.027,0.103l0.056,0.099l0.073,0.072l0.107,0.046l0.21,0.045l0.113,0.048l0.047,0.007
	l0.032-0.032l0.051-0.117l0.035-0.009l0.132,0.036l0.047,0.022l0.254,0.25l0.081,0.013l0.337-0.168l0.193-0.063l0.156,0.011
	l0.15,0.082l0.261,0.213l0.091,0.021l0.089-0.036l0.081-0.112l0.055-0.023l0.316-0.083l0.314-0.214l0.05-0.047l0.048,0.022
	l0.366-0.055h0.126l0.02,0.051l-0.103,0.193l-0.008,0.116l0.098,0.033l0.199-0.01l0.096,0.086l0.058,0.117l0.045,0.129l0.063,0.116
	l0.229,0.215l0.028,0.077l-0.03,0.119l-0.108,0.235l-0.011,0.104l0.052,0.082l0.068-0.045l0.148-0.183l0.102-0.044l0.036,0.046
	l-0.005,0.219l0.025,0.229l-0.012,0.067l-0.035,0.039l-0.098,0.034l-0.039,0.03l-0.005,0.147l0.173,0.046l0.421-0.007l-0.002,0.097
	l0.096,0.022l0.125-0.007l0.083,0.007l0.042,0.042l0.03,0.08l0.039,0.048l0.056,0.015l0.125-0.033l0.167-0.007l0.218-0.213h0.134
	l0.139,0.045l0.059,0.035l0.073,0.148l0.049,0.047l0.057,0.024l0.056-0.006l0.029-0.165l0.052-0.132l0.087-0.052l0.129,0.08
	l0.142,0.21l0.101,0.091l0.12,0.003l0.086,0.181l0.081,0.441l0.093,0.214l0.13,0.168l0.072,0.073l0.108,0.085l0.01,0.041
	l-0.011,0.049l-0.081,0.161l0.011,0.021l0.07,0.226l-0.001,0.075l-0.022,0.061l-0.039,0.075l-0.026,0.073l0.016,0.047l0.187,0.107
	l0.046-0.003l0.03-0.051l0.028-0.064l0.037-0.045l0.11-0.016l0.036,0.079l0.016,0.111l0.048,0.082l0.069,0.056l0.07,0.081
	l0.055,0.093l0.027,0.091l-0.004,0.074l-0.012,0.066l0.001,0.062l0.037,0.062l0.049,0.022l0.134,0.004l0.058,0.014l0.097,0.055
	l0.089,0.067l0.03,0.086l-0.081,0.107l-0.031,0.004l-0.096-0.008l-0.034,0.014l-0.021,0.048l-0.004,0.063l0.008,0.058l0.013,0.028
	l0.13,0.026l0.125-0.016l0.104,0.015l0.069,0.116l0.005,0.135l-0.056,0.269l0.001,0.126l0.064,0.087l0.097,0.001l0.09,0.018
	l0.045,0.136l-0.015,0.062l-0.029,0.055l-0.017,0.053l0.027,0.052l0.045,0.01l0.047-0.03l0.05-0.048l0.051-0.035l0.13-0.021
	l0.029,0.066l-0.066,0.273l-0.012,0.099l0.003,0.087l0.027,0.078l0.02,0.025l-0.003,0.004l-0.2,0.136l-0.693,0.467l-0.691,0.465
	l-0.69,0.464l-0.688,0.463l-0.686,0.463l-0.685,0.459l-0.682,0.461l-0.681,0.46l-0.291,0.194l0.181,0.136l0.412,0.723l0.028,0.067
	l0.201,0.205l0.118,0.068l0.145,0.007l0.271-0.093l0.131-0.017l0.134,0.056l0.134,0.17l0.093,0.239l0.053,0.267l0.013,0.24
	l-0.04,0.221l-0.072,0.204l-0.042,0.202l0.045,0.208l0.309,0.528l0.067,0.205l0.026,0.176l0.007,0.18l-0.027,0.362l-0.064,0.154
	l-0.113,0.116l-0.142,0.081l-0.214,0.045l-0.067-0.026l-0.052-0.053l-0.031-0.079l-0.021-0.095l-0.005-0.052l0.047-0.144
	l0.001-0.123l-0.069-0.09l-0.104-0.045l-0.108,0.006l-0.107,0.064l-0.174,0.158l-0.128,0.041l-0.011-0.103l0.007-0.104l-0.004-0.065
	l-0.03-0.03l-0.04-0.021l-0.034-0.039l-0.114-0.331l-0.007-0.094l0.041-0.1l0.141-0.178l0.048-0.112l0.006-0.097l-0.018-0.099
	l-0.045-0.051l-0.159,0.106l-0.044-0.051l-0.052-0.181l-0.056-0.077l-0.061-0.044l-0.072-0.019l-0.089-0.003l-0.27,0.073
	l-0.08-0.012l-0.029-0.061l0.026-0.087l0.019-0.088l-0.053-0.071l-0.094,0.003l-0.075,0.074l-0.067,0.085l-0.066,0.034l-0.136-0.265
	l0.037-0.081l0.066-0.09l0.032-0.08l-0.061-0.058l-0.089-0.006l-0.07,0.037l-0.131,0.134l-0.072,0.018l-0.078-0.048l-0.231-0.245
	l-0.049-0.02l-0.272,0.003l-0.088,0.029l-0.05,0.063l-0.027,0.151l-0.038,0.042l-0.083-0.011l-0.088,0.001l-0.073,0.061
	l-0.071,0.081l-0.087,0.062l-0.21,0.08l-0.099,0.055l-0.092,0.078l-0.147,0.061l-0.042-0.154l-0.021-0.139l-0.079,0.106
	l-0.128,0.036l-0.174-0.245l-0.134-0.01l-0.12,0.086l-0.053,0.007l-0.063-0.054l-0.017-0.062l0.012-0.146l-0.012-0.05l-0.098,0.008
	l-0.126,0.089l-0.1,0.047l-0.041-0.232l-0.09-0.082l-0.12-0.032l-0.107,0.034l-0.044,0.058l-0.016,0.058l-0.029,0.055l-0.077,0.045
	l-0.013-0.013l-0.018-0.028l-0.026-0.025l-0.036,0.003l-0.071,0.04l-0.024,0.01l-0.076-0.005l-0.02-0.052v-0.072l-0.021-0.064
	l-0.058-0.042l-0.223-0.08l-0.136-0.074l-0.072-0.025l-0.076-0.004l-0.053,0.029l-0.085,0.101l-0.04,0.019l-0.033-0.022
	l-0.098-0.092l-0.066-0.027l-0.254-0.01l0.072-0.103l-0.052-0.01l-0.143,0.056l-0.068-0.008l-0.041-0.017l-0.025-0.041l-0.018-0.08
	l-0.041-0.104l-0.055-0.009l-0.071,0.015l-0.093-0.032l-0.041-0.048l-0.074-0.113l-0.044-0.032l-0.047,0.003l-0.029,0.028
	l-0.023,0.031l-0.028,0.015l-0.036-0.006l-0.39-0.157l-0.089-0.018l-0.163,0.033l-0.327,0.125l-0.156-0.025l-0.108,0.033
	l-0.058,0.01l-0.041-0.01l-0.035-0.043l-0.029-0.046l-0.036-0.024l-0.056,0.024l-0.174,0.149l-0.087,0.048l-0.125,0.036
	l-0.325,0.025l-0.322,0.073l-0.107,0.011l-0.097-0.013l-0.059-0.029l-0.153-0.122l-0.062-0.014l-0.039,0.023l-0.03,0.032
	l-0.037,0.016l-0.213-0.043l-0.078,0.034l-0.172,0.272l-0.088,0.06l-0.102,0.02l-0.125,0.008l-0.027-0.008l-0.062-0.031
	l-0.026-0.003l-0.028,0.022l-0.018,0.032l-0.013,0.027l-0.013,0.019l-0.046,0.035l-0.036,0.037l-0.042,0.016l-0.066-0.033
	l-0.09-0.032l-0.1-0.002l-0.101,0.025l-0.176,0.079h-0.155l-0.089,0.036l-0.048,0.046l-0.027,0.048l-0.034,0.042l-0.065,0.022
	l-0.049-0.01l-0.238-0.133l-0.077-0.084l-0.078-0.058l-0.08,0.02l-0.098,0.056l-0.097-0.003l-0.202-0.06l-0.022-0.015l-0.046-0.053
	l-0.022-0.012l-0.027,0.02l-0.039,0.076l-0.015,0.017l-0.082,0.007l-0.039-0.011l-0.06-0.029l-0.123-0.027l-0.055,0.067
	l-0.012,0.112l0.004,0.101l-0.016,0.094l-0.13,0.337l-0.047,0.081l-0.074,0.052l-0.082,0.045l-0.071,0.058l-0.135,0.208
	l-0.059,0.073l-0.284,0.252l-0.123,0.147l-0.063,0.185l-0.041,0.19l-0.071,0.147l-0.303,0.443l-0.118,0.131l-0.132,0.109
	l-0.802,0.468l-0.229,0.081l-0.563,0.521l-0.182,0.13l-0.162,0.157l-0.115,0.237l-0.019,0.15l0.079,0.4l-0.017,0.103l-0.15,0.442
	l-0.031,0.133l-0.015,0.287l-0.027,0.139l-0.053,0.112l-0.076,0.103l-0.169,0.172l-0.205,0.157l-0.189,0.078l-0.196,0.012
	l-0.226-0.05l-0.31-0.166l-0.113-0.015l-0.232,0.079l-0.229,0.027l-0.438,0.138l-0.465,0.045l-0.315,0.084l-0.162,0.02l-0.084,0.025
	l-0.113,0.103l-0.072,0.039l-0.246,0.035l-0.076,0.034l-0.067,0.07l-0.141,0.279l-0.324,0.407l-0.13,0.11l-0.084,0.113l-0.012,0.09
	l-0.006,0.052l0.067,0.671l-0.058,0.241l-0.008,0.116l-0.031,0.101l-0.099,0.076l-0.094,0.009l-0.091-0.031l-0.169-0.104
	l-0.115-0.052l-0.09-0.013l-0.21,0.025l-0.117-0.012l-0.077-0.05l-0.14-0.177l-0.095-0.052l-0.028,0.101l0.011,0.316l-0.033,0.146
	l-0.064,0.071l-0.07,0.058l-0.055,0.109l-0.107,0.081l-0.069-0.004l-0.182-0.009l-0.003,0.111l0.121,0.216l0.248,1.001l0.076,0.161
	l0.104,0.143l0.136,0.146l0.074,0.193l-0.051,0.224l-0.139,0.168l-0.188,0.025l-0.117-0.14l-0.063-0.038l-0.047,0.09l-0.067,0.268
	l-0.005,0.085l0.078,0.187l0.145,0.187l0.117,0.19l-0.005,0.2l-0.021,0.129l0.038,0.3l-0.01,0.144l-0.043,0.1l-0.111,0.174
	l-0.032,0.101v0.146l0.036,0.259l-0.022,0.154l-0.074,0.217l-0.015,0.11l0.031,0.1l0.238,0.406l0.025,0.07l0.021,0.142l0.021,0.071
	l0.033,0.042l0.085,0.062l0.03,0.038l0.027,0.104l-0.012,0.108l-0.043,0.104l-0.144,0.199l-0.041,0.096l-0.011,0.098l0.053,0.373
	l0.038,0.127l0.063,0.105l0.22,0.195l0.059,0.095l0.035,0.123l0.004,0.12l-0.025,0.252l0.069,0.731l0.035,0.096l0.102,0.207
	l0.023,0.098l0.021,0.268l-0.012,0.097l-0.15,0.436l-0.088,0.138l-0.079,0.072l-0.074,0.04l-0.277,0.071l-0.067,0.133l-0.052,0.046
	l-0.076,0.006l-0.079-0.016l-0.066-0.023l-0.067,0.01l-0.083,0.052l-0.144,0.119l-0.171,0.097l-0.347,0.139l-0.168,0.113
	l1.703,0.938l0.459,0.398l0.015,0.024l0.02,0.056l0.021,0.022l0.023,0.003l0.046-0.007l0.019,0.004l0.073,0.064l0.142,0.154
	l0.128,0.196l0.066,0.071l0.179,0.126l0.266,0.119l0.078,0.068l0.058,0.094l0.061,0.181l0.047,0.102l0.039,0.029l0.054,0.017
	l0.042,0.026l0.006,0.055l-0.019,0.051l-0.074,0.139l-0.037,0.107v0.101l0.041,0.219l-0.017,0.101l-0.06,0.085l-0.139,0.155
	l-0.04,0.211l0.195,0.373l-0.006,0.242l-0.015,0.059l-0.012,0.118l-0.014,0.055l-0.038,0.055l-0.11,0.055l-0.047,0.036l-0.054,0.097
	l-0.032,0.087l-0.046,0.082l-0.096,0.076l0.226,0.125l0.748,0.408l0.748,0.411l0.747,0.411l0.747,0.411l0.155,0.087l0.086,0.02
	l0.059-0.016l0.035-0.028l0.037-0.013l0.063,0.025l0.036,0.042l0.016,0.046l0.023,0.041l0.06,0.028l0.105-0.003l0.212-0.051
	l0.242,0.035l0.102-0.062l0.095-0.091l0.104-0.074l0.1-0.021l0.35,0.014l0.298,0.064l0.11-0.023l0.06-0.038l0.11-0.094l0.064-0.038
	l0.071-0.018l0.146-0.016l0.07-0.02l0.22-0.133l0.111-0.049l0.275-0.013l0.12-0.03l0.249-0.095l0.124-0.026l0.367-0.024l0.124-0.045
	l0.25-0.123l0.129-0.036h0.104l0.095,0.025l0.186,0.077l-0.027,0.065l-0.013,0.01l-0.086,0.061l-0.05,0.074l-0.051,0.048
	l-0.098-0.005l0.001,0.021l-0.008,0.043l0.001,0.021l-0.062-0.016l-0.059,0.029l-0.039,0.056v0.145l-0.045-0.01l-0.051-0.042
	l-0.018-0.021l-0.112-0.058l-0.026-0.007l-0.003,0.11l-0.048,0.174l-0.017,0.104l0.011,0.098l0.066,0.18l0.014,0.096l-0.021,0.113
	l-0.052,0.085l-0.075,0.064l-0.09,0.052l-0.029,0.022l-0.041,0.052l-0.035,0.016l-0.023-0.009l-0.028-0.056l-0.022-0.013
	l-0.057,0.006l-0.058,0.013l-0.056,0.022l-0.049,0.037l-0.135,0.17l-0.145,0.286l-0.106,0.211l-0.2,0.394l-0.306,0.604l-0.306,0.604
	l-0.305,0.602l-0.304,0.602l-0.304,0.598l-0.302,0.6l-0.303,0.597l-0.192,0.378l0.515-0.123l0.099,0.026l0.057,0.17l0.06,0.348
	l0.05,0.163l0.136,0.209l0.188,0.153l0.218,0.106l0.228,0.066l0.202,0.028l1.289-0.017l0.167,0.105l0.065,0.068l0.078,0.05
	l0.173,0.08l0.106,0.07l0.053,0.071l0.098,0.197l0.121,0.106l0.541,0.223l0.075,0.044v0.038v0.036v0.036v0.036v0.038l-0.001,0.038
	v0.036v0.036l-0.007,1.079l-0.009,1.074l-0.009,1.071l-0.01,1.067l-0.011,1.064l-0.01,1.063l-0.012,1.057l-0.012,1.055l-0.004,0.25
	v0.054l-0.051-0.003l-0.045,0.028l-0.072,0.077l-0.07,0.05l-0.082,0.041l-0.087,0.025l-0.158,0.004l-0.083,0.021l-0.073,0.044
	l-0.043,0.071l0.015,0.063l0.11,0.111l0.013,0.071l-0.2,0.151l-0.051,0.022l-0.384-0.085l-0.114,0.016l-0.111,0.059l-0.118,0.101
	l-0.081-0.063l-0.093,0.056l-0.1,0.085l-0.184,0.038l-0.076,0.09l-0.1,0.193l-0.183,0.471l-0.026,0.068l-0.31,0.515l-0.084,0.186
	l-0.127,0.386l-0.505,0.846l-0.04,0.109l-0.082,0.098l-0.09,0.087l-0.065,0.038l-0.137,0.054l-0.058,0.034l-0.042,0.057l-0.022,0.06
	l-0.027,0.051l-0.061,0.031l-0.05-0.016l-0.109-0.093l-0.054-0.023l-0.109,0.071l0.014,0.174l0.115,0.31l0.009,0.091l-0.026,0.051
	l-0.046,0.042l-0.052,0.063l-0.028,0.063l-0.037,0.199l0.008,0.15l-0.064,0.158l-0.084,0.163l-0.05,0.155l0.011,0.11l0.131,0.271
	l0.008,0.087l-0.013,0.081l-0.056,0.166l-0.058,0.35l-0.064,0.165l-0.124,0.047l-0.287-0.109l-0.152-0.038l-0.142,0.022
	l-0.062,0.064l-0.051,0.083l-0.085,0.172l-0.01,0.097l0.008,0.118l-0.03,0.098l-0.12,0.036l-0.338,0.015l-0.109,0.02l-0.258,0.109
	l-0.036-0.002l-0.077-0.017l-0.035,0.007l-0.051,0.068l-0.095,0.211l-0.049,0.036l-0.084-0.051l-0.079-0.069l-0.083-0.035
	l-0.095,0.059l-0.319,0.549l-0.121,0.097l-0.083,0.006l-0.254-0.054l-0.119,0.009l-0.067,0.041l-0.045,0.071l-0.17,0.369
	l-0.026,0.028l-0.15,0.13l-0.061,0.072l-0.015,0.091l0.04,0.132l0.031,0.102l0.031,0.499l0.028,0.106l0.136,0.318l0.027,0.102
	l0.02,0.202l0.041,0.149l-0.052,0.074l-0.089,0.02l-0.088-0.057l-0.079-0.037l-0.141,0.139l-0.155-0.022l-0.114,0.032l-0.11,0.057
	l-0.059,0.059l-0.022,0.154l-0.021,0.036l-0.038,0.004l-0.127-0.02l-0.052,0.003l-0.091,0.049l-0.065,0.074l-0.056,0.083
	l-0.064,0.073l-0.09,0.053l-0.028-0.061l0.01-0.108l0.06,0.062l0.048-0.02l0.005-0.064l-0.065-0.07l-0.077-0.004l-0.099,0.015
	l-0.075-0.001l-0.005-0.052l0.048-0.165l-0.025-0.139l-0.111-0.273l-0.017-0.073l-0.037-0.097l-0.042-0.079l-0.035-0.044
	l-0.132-0.063l-0.072-0.048l-0.035-0.058l0.007-0.039l0.044-0.112l0.011-0.045l-0.003-0.059l-0.047-0.147l-0.034-0.174l-0.041-0.06
	l-0.086-0.024l-0.064,0.025l-0.01,0.055l0.032,0.067l0.064,0.052l0.009,0.025l-0.021,0.031l-0.042,0.02l-0.051-0.01l-0.084-0.054
	l-0.037-0.013l-0.116-0.021l-0.033-0.022l-0.021-0.028l-0.013-0.035l-0.02-0.036l-0.034-0.031l-0.171-0.071l-0.087-0.013
	l-0.044,0.038l0.027,0.065l0.159,0.174l0.061,0.047l0.009,0.023l-0.04,0.017l-0.061,0.009l-0.046-0.006l-0.014-0.02l-0.013-0.038
	l-0.02-0.038l-0.034-0.024h-0.051l-0.106,0.043l-0.052-0.007l-0.083-0.052l-0.046-0.021l-0.039,0.002l-0.076,0.058l-0.029,0.069
	l0.019,1.3l-0.008,0.06l0.091,0.095l0.019,0.024l-0.007,0.039h-0.032l-0.035-0.024l-0.021-0.03l-0.034,0.101l0.067,0.213h-0.092
	l-0.073-0.059l-0.071-0.103l-0.052-0.103l-0.013-0.062v-0.018l-0.014-0.057l-0.001-0.03l0.014-0.031l0.022-0.02l0.024-0.019
	l0.018-0.022l0.008-0.065l-0.025-0.064l-0.03-0.055l-0.008-0.035l0.015-0.091l-0.028-0.087l-0.039-0.08l-0.024-0.068l-0.024-0.014
	l-0.021,0.071l0.013,0.053v0.055l-0.061,0.086l-0.062,0.042l-0.14,0.055l-0.035,0.025l-0.083,0.127l-0.026,0.022h-0.053l-0.02-0.026
	l-0.012-0.039l-0.036-0.037l-0.072-0.023l-0.053,0.006l-0.045,0.035l-0.044,0.075l-0.033,0.071l-0.022,0.081l-0.001,0.07
	l0.035,0.049l0.033,0.061l-0.059,0.065l-0.136,0.093l0.017,0.094l0.223,0.167l0.043,0.12l0.09,0.009l0.039,0.05l-0.002,0.076
	l-0.033,0.088l-0.003,0.081l0.067,0.034l0.13,0.008l0.131,0.085l0.033-0.013l-0.002-0.094l-0.038-0.087l-0.121-0.122l-0.032-0.084
	l0.19-0.181l0.102-0.055l0.091,0.022l0.033,0.06l-0.027,0.106l0.037,0.047l0.011,0.036l-0.006,0.064l-0.017,0.073l-0.022,0.057
	l-0.025,0.145l0.034,0.139l0.071,0.07l0.126-0.101l0.034,0.046l0.033,0.101l-0.029,0.026l-0.023,0.005l-0.018-0.003l-0.013,0.003
	l-0.029-0.009l-0.023-0.001l-0.018,0.008l-0.01,0.021l0.006,0.016l0.012,0.007l0.006,0.001l-0.019,0.174l0.122,0.132l0.323,0.197
	l0.057,0.067l0.091,0.143l0.07,0.06l0.154,0.044l0.034,0.022l0.024,0.054l-0.01,0.032l-0.023,0.035l-0.015,0.056l-0.003,0.118
	l-0.015,0.071l-0.057,0.049l-0.403,0.142l-0.153,0.075l-0.016,0.029l0.006,0.063l0.016,0.042l0.027,0.043l0.032,0.035l0.027,0.01
	l0.245-0.038l0.041,0.032l0.017,0.051l0.029,0.03l0.073-0.024l0.001,0.049l-0.015,0.036l-0.03,0.019l-0.044-0.002l0.008,0.16
	l0.059,0.09l0.088,0.075l0.093,0.115l0.01,0.036v0.038l0.01,0.039l0.038,0.036l0.035,0.002l0.034-0.022l0.027-0.027l0.019-0.008
	l0.395,0.169l0.075,0.016l0.071-0.001l0.058-0.024l0.016-0.01l0.063,0.034l0.055,0.004l0.108-0.021l0.05,0.008l0.041,0.026
	l0.104,0.112l0.129,0.021l0.051,0.093l-0.015,0.014l-0.081,0.056l-0.091,0.05l-0.074,0.02l-0.003-0.057l-0.028-0.027l-0.045-0.002
	l-0.056,0.015l-0.026-0.064l-0.035-0.054l-0.046-0.029l-0.063,0.013l0.061,0.167l0.01,0.134l-0.043,0.136l-0.102,0.164l-0.052,0.066
	l-0.053,0.047l-0.065,0.037l-0.221,0.084l-0.05,0.039l-0.054,0.083l0.07,0.324l0.028,0.042l-0.077,0.125l-0.019,0.081l0.023,0.212
	l-0.083,0.04l-0.11,0.055l-0.092,0.018h-0.29l-0.081-0.02l-0.146-0.063l-0.083,0.008l-0.067,0.042l-0.194,0.19l-0.1,0.062
	l-0.624,0.232l-0.226,0.182l-0.075,0.031l-0.22,0.016l-0.039,0.015l-0.033,0.035l-0.001,0.031l0.021,0.029l0.004,0.036l-0.053,0.058
	l-0.136,0.058l-0.125-0.014l-0.121-0.04l-0.128-0.011l-0.163,0.02l-0.313,0.09l-0.028-0.005l-0.072-0.023l-0.02-0.004l-0.09,0.07
	l-0.183,0.204l-0.121,0.073l0.007,0.005l0.183,0.136l0.048,0.057l0.086,0.217l0.033,0.125l0.017,0.106l-0.022,0.149l-0.067,0.157
	l-0.164,0.301l-0.003,0.005l0,0l-0.755,0.242l-0.24,0.032l-0.189-0.063l-0.166-0.123l-0.166-0.08l-0.192,0.073l-0.124,0.165
	l-0.032,0.172l-0.011,0.184l-0.058,0.198l-0.048,0.111l-0.017,0.083l0.005,0.2l-0.01,0.1l-0.031,0.084l-0.054,0.074l-0.518,0.433
	l-0.152,0.089l-0.11,0.043l-0.222,0.058l-0.298,0.132l-0.096,0.022l-0.103-0.01l-0.112-0.06l-0.108-0.018l-0.353,0.017l-0.111-0.021
	l-0.209-0.084l-0.386-0.262l-0.204-0.09l-0.125,0.003l-0.049-0.143l-0.124-0.229l-0.144-0.31l-0.078-0.144l-0.097-0.152l-0.1-0.155
	l-0.133-0.208l-0.092-0.299l-0.004-0.027l0.002-0.056l-0.008-0.036l-0.012-0.021l-0.036-0.026l-0.017-0.022l-0.112-0.338
	l-0.045-0.078l-0.115-0.115l-0.024-0.072l0.032-0.195l0.006-0.106l-0.036-0.065l-0.048-0.061l-0.097-0.217l-0.054-0.087l-0.188-0.2
	l-0.073-0.054l-0.095-0.313l-0.057-0.097l-0.027-0.08l-0.045-0.206l-0.037-0.081l-0.144-0.186l-0.088-0.186l-0.06-0.09l-0.072-0.062
	l-0.137-0.049l-0.022,0.003l0.02-0.048l0.049-0.036l0.099-0.055l0.066-0.09l0.03-0.093l0.021-0.098l0.179-0.454l0.022-0.088
	l0.031-0.2l0.055-0.154l-0.007-0.026l-0.022-0.022l-0.02-0.036l-0.033-0.205l-0.087-0.177l-0.004-0.017l0.014-0.164l-0.04-0.089
	l-0.051-0.055l-0.138-0.108l-0.075-0.082l-0.024-0.045l-0.036-0.103l-0.042-0.081l-0.015-0.019l-0.561-0.517l-0.113-0.151
	l-0.072-0.177l-0.068-0.329l-0.047-0.146l-0.147-0.248l-0.064-0.082l-0.076-0.073l-0.235-0.148l-0.023-0.033v-0.055l0.049-0.09
	l0.014-0.051l-0.026-0.084l-0.11-0.182l-0.016-0.057l-0.004-0.095l-0.071-0.096l-0.165-0.146l-0.065-0.113l0.019-0.089l0.044-0.082
	l0.005-0.104l-0.086-0.39l-0.057-0.116l-0.038-0.039l-0.036-0.019l-0.031-0.022l-0.02-0.046l-0.011-0.086l-0.014-0.04l-0.035-0.031
	l-0.019-0.025l-0.055-0.106l-0.029-0.042l-0.149-0.116l-0.178-0.226l-0.414-0.21l-0.285-0.322l-0.266-0.549l-0.554-0.619
	l-0.061-0.223l-0.129-0.188l-0.095-0.188l-0.056-0.063l-0.157-0.077l-0.064-0.062l-0.041-0.071l-0.046-0.055l-0.078-0.002
	l-0.005-0.076l0.036-0.211l-0.015-0.062l-0.029-0.04l-0.103-0.087l-0.164-0.234l-0.214-0.19l-0.385-0.414l-0.283-0.213l-0.132,0.021
	l0.051-0.104l-0.042-0.103l-0.018-0.064l-0.015-0.04l-0.121-0.129l-0.219-0.289l-0.08-0.14l-0.162-0.318l-0.177-0.365l-0.064-0.171
	l0.022-0.051l0.047-0.043v-0.086l-0.017-0.081l-0.093-0.126l-0.246-0.378l-0.055-0.051l-0.163-0.115l-0.044-0.079l-0.021-0.094
	l0.008-0.054l-0.033-0.062l-0.081-0.088l-0.17-0.04l-0.123-0.113l-0.114-0.127l-0.116-0.22l-0.007-0.037l0.03-0.094l0.01-0.05
	l-0.004-0.047l0.025-0.064l0.006-0.075l-0.083-0.093l-0.169-0.171l-0.45-0.57l-0.208-0.314l-0.311-0.373l-0.027-0.172l-0.334-0.482
	l-0.067-0.152l-0.046-0.046l-0.064-0.022h-0.034l-0.025-0.021l-0.042-0.084l-0.058-0.21l-0.028-0.063l-0.066-0.067l-0.074-0.056
	l-0.049-0.061l0.006-0.084l-0.013-0.027l-0.062-0.055l0.008-0.038l0.014-0.014l0.07-0.002l0.092,0.019l0.042-0.054l-0.018-0.13
	l-0.082-0.14l-0.129-0.163l-0.056-0.175l0.077,0.043l0.056-0.001l0.038-0.038l0.02-0.058l0.001-0.05l-0.01-0.057l-0.107-0.304
	l-0.063-0.083l-0.198-0.141l-0.037-0.082l-0.001-0.097l0.01-0.123l-0.057-0.4l0.011-0.105l-0.011-0.062l-0.099-0.184l-0.024-0.072
	l0.007-0.034l0.071-0.142l-0.001-0.041l-0.113-0.244l-0.257-0.352l-0.082-0.122l-0.063-0.093l-0.069-0.121l-0.108-0.252
	l-0.156-0.214l-0.005-0.029l-0.022-0.043l-0.031-0.042l-0.031-0.026l-0.038-0.042l-0.012-0.06l-0.002-0.063l-0.008-0.061
	l-0.015-0.045l-0.021-0.039l-0.13-0.182l-0.032-0.099l0.06-0.097l0.035-0.116l0.037-0.112l-0.011-0.126l-0.023-0.148l-0.029-0.049
	l0.011-0.059l0.037-0.032l0.061-0.058l0.001-0.051l-0.001-0.129l-0.071-0.101l-0.098-0.165l-0.027-0.078l-0.025-0.166l-0.028-0.091
	l-0.033-0.043l-0.096-0.062l-0.034-0.038l-0.011-0.049l0.02-0.17l0.121,0.044l0.05-0.025l0.027-0.044l-0.003-0.074V774.8
	l-0.003-0.062l0.011-0.116l-0.014-0.109l-0.049-0.068l-0.057-0.062l-0.007-0.081l0.01-0.086l-0.005-0.072l-0.041-0.062l-0.115-0.137
	l-0.051,0.1l-0.144,0.103l-0.012-0.196l0.088-0.106l0.072-0.175l0.009-0.125l0.059-0.013l0.034-0.074l0.069-0.008l-0.004-0.064
	l0.026-0.034l0.032-0.043l-0.016-0.074l0.011-0.093l0.057,0.006l0.061-0.11l0.006-0.098l-0.053-0.088l0.015-0.062l0.019-0.032
	l0.027-0.028l0.02-0.03l-0.009-0.041l-0.039-0.033l-0.037,0.008l-0.044,0.07l-0.046,0.023l-0.042-0.049l-0.077-0.021l-0.057-0.09
	l-0.084-0.049l0.054-0.121l0.038-0.06l0.122-0.122l0.073-0.042l0.007-0.07l0.053-0.016l0.067,0.055l0.106-0.026l0.072,0.039
	l0.047,0.035v0.064l-0.072,0.046l-0.037,0.06l0.024,0.055l0.04,0.059l0.049,0.107l0.054-0.032l0.046-0.098l0.066-0.087l0.152-0.178
	l0.097-0.123l0.039-0.097l0.07-0.118l0.115-0.129l0.112-0.123l0.24-0.354l0.125-0.364l0.041-0.191l0.04-0.387l-0.079-0.445
	l-0.074-0.213l-0.098-0.532l-0.126-0.656l-0.063-0.238l0.017-0.131l-0.016-0.137l0.044-0.232l0.092-0.158l0.065-0.203l-0.013-0.158
	l-0.019-0.08l-0.172-0.423l-0.031-0.153l-0.011-0.485l-0.012-0.082l0.06-0.126l0.017-0.047l-0.013-0.063l-0.034-0.106l-0.047-0.271
	l-0.125-0.235l-0.052-0.108l0.001-0.155l0.14-0.08l0.114-0.161l0.042-0.201l-0.087-0.213l-0.018-0.303l-0.296-0.461l-0.194-0.239
	l-0.045-0.026l-0.005-0.034l-0.041-0.116l-0.007-0.06l0.018-0.073l0.03-0.035l0.033-0.028l0.03-0.049l0.014-0.224l-0.097-0.2
	l-0.094-0.093l-0.066-0.067l-0.171-0.112l0.074-0.069l0.077-0.045l0.075-0.055l0.068-0.106l0.116-0.338l0.01-0.129l0.029-0.162
	l0.001-0.058l-0.017-0.148l0.019-0.112l0.077-0.107l-0.016-0.148l0.018-0.045l0.073,0.055l0.076-0.044l0.025-0.109l-0.013-0.271
	l0.025-0.113l0.002-0.139l-0.022-0.128l-0.047-0.069l-0.045-0.051l-0.027-0.077l-0.028-0.146l-0.001-0.041l0.051-0.03l0.016-0.042
	l-0.001-0.048l-0.033-0.133l-0.007-0.154l-0.01-0.071l-0.029-0.042l-0.04-0.039l-0.017-0.055l-0.019-0.112l-0.052-0.093
	l-0.145-0.188l-0.084-0.206l-0.5-0.745l-0.071-0.15l-0.034-0.084l0.036-0.056l0.038-0.118l0.019-0.109l0.043-0.015l0.005-0.048
	l0.052-0.023l0.04,0.018l0.046,0.041l0.051-0.006l0.058,0.006l0.05-0.069l0.049-0.128l-0.011-0.146l-0.014-0.095l0.05-0.047
	l-0.042-0.158l0.041-0.039l-0.008-0.109l0.038-0.032l0.003-0.113l-0.033-0.154l0.035-0.033l0.065-0.023l0.003-0.121l-0.004-0.098
	l0.032-0.061l0.008-0.116l-0.01-0.11l-0.024-0.129l-0.02-0.147l0.043-0.072l-0.071-0.156l-0.044-0.124l0.031-0.073l0.042-0.032
	l-0.027-0.154l0.021-0.033l-0.07-0.197l-0.043-0.089l-0.001-0.071l-0.002-0.067l-0.015-0.06l-0.055-0.144l-0.054-0.679l0.034-0.051
	l-0.008-0.151l-0.053-0.119l-0.07-0.168l0.042-0.074l-0.001-0.136l-0.031-0.161l-0.028-0.132l0.011-0.052l0.055-0.029l0.017-0.061
	l-0.028-0.079l-0.115-0.208l0.033-0.101l0.051-0.135l-0.05-0.119l-0.02-0.065l0.023-0.084l0.009-0.122l0.045-0.05l-0.013-0.093
	l0.009-0.078l-0.041-0.153l-0.106-0.288l0.003-0.123l-0.008-0.066l0.019-0.053l0.041,0.011l0.04-0.014l0.018-0.067l-0.015-0.081
	l0.026-0.024l0.017-0.063l0.016-0.045l-0.025-0.146l0.031-0.128l-0.002-0.067l-0.011-0.088l0.008-0.059l-0.037-0.044l-0.005-0.03
	l-0.021-0.022l0.004-0.032l0.019-0.021l0.038-0.018l0.018-0.058l0.027-0.058l0.022-0.064l0.012-0.09l-0.012-0.063l0.029-0.092
	l0.061-0.092l0.068-0.048l0.067-0.158l-0.101-0.269l-0.064-0.261l0.021-0.135l-0.038-0.128l0.002-0.108l-0.023-0.074l-0.009-0.134
	l-0.034-0.121l0.044-0.166l0.087-0.129l-0.063-0.095l0.018-0.094l0.033-0.069l-0.012-0.094l0.021-0.139l0.066-0.052l0.081-0.035
	l-0.002-0.101l-0.058-0.03l-0.06-0.128l0.037-0.149l0.047-0.079l0.05-0.022l0.04-0.015l-0.04-0.047l-0.016-0.08l-0.025-0.047
	l0.002-0.079l-0.046-0.053l-0.065-0.025l-0.049,0.007l-0.047-0.182l0.013-0.051l0.016-0.062l-0.029-0.054l-0.017-0.063l0.054-0.012
	l0.055-0.017l0.056,0.013l0.075-0.084l0.048-0.098l0.009-0.146l-0.058-0.102l-0.075-0.073l-0.078-0.005l-0.047,0.01l-0.031,0.031
	l0.003,0.053l-0.024,0.065l-0.021,0.113l-0.029,0.059l-0.043-0.043l-0.001-0.171l-0.04-0.158l-0.032-0.109l0.025-0.053l-0.007-0.037
	l0.031-0.014l0.057,0.065l0.09,0.09l0.043-0.028l0.046-0.049l0.043-0.104l0.012-0.143l-0.016-0.102l-0.034-0.094l-0.059-0.035
	l-0.086-0.029l-0.025-0.055l-0.007-0.104l0.041-0.083l0.065-0.068l0.042-0.039l-0.02-0.066l-0.089-0.102l0.02-0.057l0.032,0.029
	l0.035-0.021l0.046-0.114l0.026-0.146l-0.002-0.097l-0.007-0.135l-0.004-0.094l-0.03-0.124l-0.032-0.195l-0.08-0.43l0.029-0.043
	l0.02-0.05l0.051-0.026l0.068-0.014l0.07-0.144l0.029-0.13l0.042-0.075l0.023-0.151l0.04-0.223l-0.047-0.287l-0.055-0.272
	l-0.1-0.285l-0.066-0.142l-0.115-0.138l-0.042-0.095l-0.023-0.109l0.051-0.052l0.042,0.03l0.019,0.028l0.076-0.02l0.065-0.096
	l0.041-0.108l-0.086-0.618l0.038-0.119l-0.041-0.229l0.049-0.067l-0.069-0.271l-0.286-0.731l0.051-0.13l-0.185-0.349l-0.34-0.735
	l-0.114-0.432l-0.047-0.326l0.034-0.248l-0.105-0.409l-0.031-0.088l-0.021-0.079l0.037-0.026l0.063,0.009l0.079-0.029l0.047-0.1
	l-0.01-0.16l-0.042-0.389l-0.118-0.695l-0.056-0.236l0.042-0.133l0.015-0.112l0.025-0.051l0.073-0.035l0.047-0.062l0.012-0.185
	l0-0.168l0.043-0.099l0.021-0.288l-0.073-0.265l-0.095-0.309l-0.031-0.107l0.074-0.099l0.062-0.136l-0.036-0.178l-0.263-0.831
	l-0.128-0.403l-0.009-0.14l-0.152-0.38l0.003-0.204l0.051-0.184l-0.002-0.217l-0.047-0.219l-0.039-0.132l-0.336-0.774l-0.166-0.299
	l-0.437-0.724l-0.579-0.851l-0.962-1.397l-0.23-0.321l-0.166-0.488l-0.234-0.461l-0.305-0.499l-0.27-0.594l-0.06-0.283l0.027-0.38
	l0.094-0.217l0.09-0.246l0.016-0.055l0.134-0.045l0.068-0.096l0.036-0.023l0.109,0.049l0.098-0.103l0.039-0.086l0.072-0.05
	l0.081,0.052l0.026,0.218l0.106,0.148l0.148,0.175l0.138,0.107l0.248-0.111l0.335-0.299l0.234-0.506l0.045-0.494l-0.004-0.748
	l-0.07-0.268l-0.248-0.748l-0.035-0.161l-0.092-0.091l-0.071-0.009l-0.077-0.158l-0.03-0.237l-0.059-0.231l-0.032-0.226l0.044-0.044
	l0.049-0.03l0.074,0.003l0.079-0.096l0.007-0.072l-0.016-0.08l0.033-0.071l0.074,0.017l0.017-0.113l0.024-0.134l0.073-0.062
	l0.07,0.052l0.106-0.011l0.042,0.139l0.146,0.063l0.12-0.087l0.094-0.19v-0.327l-0.084-0.278l-0.098-0.216l-0.036-0.265
	l-0.014-0.213l-0.064-0.346l-0.197-0.701l-0.071-0.333l0.054-0.067l0.072-0.004l0.103-0.045l0.03-0.12l0.008-0.153l0.151-0.274
	l0.036-0.09l0.011-0.118l-0.001-0.144l0.011-0.127l0.052-0.077l0.07-0.027l0.043-0.011l0.042-0.017l0.061-0.045l0.142-0.161
	l0.05-0.132l0.052-0.362l0.066-0.104l0.105-0.107l0.112-0.091l0.083-0.051l0.546-0.117l0.158-0.076l0.161-0.144l0.102-0.055
	l0.104,0.011l0.096,0.023l0.076-0.036l0.146-0.149l0.436-0.332l0.221-0.108l0.246-0.074l0.246-0.026l0.104-0.043l0.075-0.108
	l0.063-0.123l0.078-0.105l0.164-0.158l0.204-0.127l0.236-0.077l0.969-0.136l0.197-0.089l0.34-0.252l0.076-0.104l0.045,0.001
	l0.051,0.017l0.054-0.007l0.089,0.006l0.327,0.196l0.101,0.026l0.117,0.004l0.107-0.033l0.073-0.089l0.039-0.056l0.114-0.098
	l0.045-0.052l0.023-0.058l0.025,0.039l0.059,0.093l0.159,0.159l0.042,0.101l-0.049,0.097l-0.076,0.106l-0.036,0.128l0.017,0.049
	l0.063,0.083l0.015,0.06l-0.009,0.058l-0.022,0.058l-0.051,0.106l-0.099,0.139l-0.018,0.045l0.015,0.058l0.04,0.045l0.033,0.046
	l-0.008,0.062l-0.024,0.065l-0.016,0.128l-0.02,0.067l-0.03,0.053l-0.074,0.097l-0.028,0.047l-0.022,0.059l-0.013,0.048
	l-0.014,0.124l-0.018,0.061l-0.033,0.036l-0.036,0.029l-0.025,0.039l-0.023,0.131l0.023,0.238l-0.003,0.14l-0.014,0.055
	l-0.041,0.109l-0.006,0.056l0.019,0.083l0.03,0.056l0.016,0.051l-0.003,0.006l-0.021,0.055l-0.115,0.062l-0.451,0.004l-0.106,0.065
	l-0.121,0.098l-0.125,0.075l-0.123,0.006l-0.08-0.071l-0.15-0.241l-0.083-0.093l-0.094-0.061l-0.1-0.043l-0.1-0.017l-0.095,0.022
	l-0.087,0.065l-0.108,0.11l-0.097,0.122l-0.002,0.006l-0.048,0.103l-0.004,0.084l0.028,0.175l-0.002,0.088l-0.019,0.055
	l-0.061,0.102l-0.02,0.053l0.002,0.31l0.158,0.112l0.233,0.039l0.231,0.087l-0.102,0.098l-1.013,0.67l-0.056,0.088l-0.005,0.145
	l0.038,0.104l0.157,0.262l0.066,0.077l0.084,0.044l0.039,0.016l0.065-0.025l0.242-0.02l0.493-0.141l0.112-0.058l0.07-0.069
	l0.126-0.176l0.071-0.059l0.055-0.018l0.059-0.002l0.061,0.006l0.204,0.075l0.017,0.002l0.005,0.078l0.068,0.073l0.087,0.074
	l0.068,0.079l0.05,0.137l0.075,0.285l0.063,0.133l0.096,0.154l0.115,0.084l0.12,0.069l0.109,0.106l0.066,0.197l0.03,0.233
	l0.06,0.211l0.161,0.128l0.362,0.055l0.208-0.029l0.18,0.066l0.099,0.149l0.126,0.413l0.027,0.041l0.043,0.097l0.021,0.035
	l0.113,0.062l0.069,0.119l0.005,0.067l-0.044,0.076l-0.199,0.174l-0.052,0.121l0.041,0.316l-0.078,0.364l0.012,0.346l-0.002,0.007
	l-0.026,0.113l-0.015,0.138l0.05,0.122l0.072,0.113l0.052,0.116l0.005,0.064l-0.014,0.128l0.006,0.063l0.026,0.058l0.075,0.09
	l0.028,0.056l0.02,0.14l0.003,0.146l0.026,0.13l0.093,0.093l0.221,0.107l0.116,0.059l0.075,0.061l0.13,0.149l0.072,0.066
	l0.048,0.023l0.084,0.019l0.046,0.033l0.039,0.055l0.033,0.073l0.045,0.149l0.188-0.062l0.181-0.088l0.08-0.1l0.162-0.245
	l0.086-0.064l0.105,0.022l0.122,0.065l0.12,0.03l0.093-0.084l0.03-0.147l-0.003-0.31l0.059-0.157l0.114-0.126l0.145-0.097
	l0.308-0.12l0.248-0.026l0.508,0.027l0.067-0.013l0.168-0.032l0.078-0.066l0.049-0.105l0.041-0.115l0.055-0.098l0.12-0.096
	l0.115-0.065l0.049-0.086l-0.078-0.141l-0.012-0.141l0.047-0.229l0.08-0.216l0.086-0.098l0.12-0.039l0.085-0.089l0.145-0.223
	l0.577-0.567l0.152-0.226l0.133-0.34l0.061-0.081l0.072-0.035l0.059,0.013l0.059,0.024l0.07,0.012l0.083-0.007l0.029-0.015
	l0.016-0.039l0.218-0.396l0.078-0.091l0.093-0.084l0.039-0.01l0.071-0.001l0.048-0.009l0.17-0.073l0.073-0.094l0.092-0.403
	l0.029-0.073l0.014-0.026l0.026,0.003l0.065,0.02l0.048-0.013l0.026-0.055l0.029-0.127l0.081-0.207l0.057-0.105l0.08-0.101
	l0.18-0.183l0.016-0.022l0.156-0.198l0.138-0.23l0.029-0.062l0.017-0.127l0.011-0.039l0.096-0.082l0.091,0.016l0.091,0.07
	l0.175,0.184l0.035,0.091l-0.001,0.104l-0.086,0.406l0.002,0.13l0.079-0.002l0.105-0.032l0.092,0.023l0.087,0.003l0.092-0.094
	l0.054-0.163l-0.024-0.116l-0.047-0.104l-0.011-0.135l0.052-0.126l0.089-0.052l0.234-0.061l0.101-0.069l0.285-0.261l0.103-0.052
	l0.322-0.106l0.796-0.518l0.5-0.179l0.111-0.006l0.214,0.022l0.153,0.017l0.695,0.076l0.695,0.075l0.696,0.076l0.695,0.075
	l0.696,0.077l0.696,0.075l0.696,0.076l0.696,0.077l0.51,0.056l0.091-0.014l0.274-0.038l0.373-0.103l0.392-0.107l0.393-0.106
	l0.393-0.106l0.394-0.108l0.393-0.107l0.394-0.107l0.394-0.106l0.394-0.108l0.381-0.207l0.381-0.206l0.381-0.204l0.383-0.208
	l0.381-0.207l0.384-0.207l0.382-0.208l0.384-0.207l0.31-0.167l0.389-0.152l0.123-0.07l0.061-0.033l0.151-0.168l0.219-0.302
	l0.447-0.611l0.449-0.615l0.449-0.618l0.452-0.616l0.19-0.261l0.052-0.034l0.064,0.23l0.023,0.131l0.001,0.074l0.024,0.075
	l0.106,0.063l0.213,0.085l0.222,0.128l0.044,0.02l0.016-0.039l-0.008-0.08l-0.023-0.074l-0.006-0.09l0.017-0.059l0.052-0.1
	l0.022-0.054l0.191-1.018l0.035-0.073l0.078-0.09l0.037-0.056l0.024-0.062l0.029-0.122l0.021-0.062l0.054-0.058l0.069-0.014
	l0.074-0.006l0,0l0.068-0.03l0.033-0.048l0.014-0.049l0.008-0.051l0.018-0.051l0.119-0.229l0.033-0.12l-0.006-0.137l-0.018-0.021
	l-0.058,0.004l-0.021-0.02l-0.006-0.039l0.006-0.084l-0.007-0.039l-0.104-0.287l-0.003-0.046l-0.019-0.035l-0.062-0.028
	l-0.043-0.038l-0.035-0.072l-0.041-0.157l-0.031-0.313l0.025-0.307l0.15-0.77l-0.015-0.119l-0.049-0.104l-0.082-0.102l-0.042-0.072
	l-0.046-0.177l-0.038-0.077l-0.043-0.035l-0.106-0.047l-0.039-0.04l-0.016-0.088l0.006-0.146l0.036-0.147l0.073-0.091l0.083,0.011
	l0.072,0.079l0.068,0.095l0.066,0.061l0.09,0.038l0.066,0.039l0.056,0.058l0.232,0.423l0.116,0.085l0.176-0.034l0.041,0.018
	l0.15,0.123l0.078,0.038l0.075,0.012l0.077-0.003l0.15-0.035l0.098-0.062l0.086,0.01l0.108-0.029l0.099-0.057l0.059-0.064
	l0.069-0.107l0.073-0.035l0.081,0.021l0.089,0.068l0.181,0.197l0.071,0.122l0.049,0.143l0.04,0.435l0.025,0.1l0.032,0.04
	l0.082,0.051l0.038,0.042L637.528,703.374z"/></svg>