<?xml version="1.0" encoding="utf-8"?>
<!-- Generator: Adobe Illustrator 15.0.0, SVG Export Plug-In . SVG Version: 6.00 Build 0)  -->
<!DOCTYPE svg PUBLIC "-//W3C//DTD SVG 1.1//EN" "http://www.w3.org/Graphics/SVG/1.1/DTD/svg11.dtd">
<svg version="1.1" id="Ebene_1" xmlns="http://www.w3.org/2000/svg" xmlns:xlink="http://www.w3.org/1999/xlink" x="0px" y="0px"
	 width="1920px" height="1080px" viewBox="0 0 1920 1080" enable-background="new 0 0 1920 1080" xml:space="preserve">

<path fill="#F4E0B6" stroke="#FFFFFF" d="M336.415,85.894l-0.049-0.09l0.048-0.052l0.053,0.031l0.052,0.022l0.004,0.071
	l-0.083,0.056L336.415,85.894z M338.452,72.154l-0.04-0.092l0.055-0.055l0.102,0.004l0.091,0.054l0.033,0.099l-0.007,0.055
	l-0.049,0.018l-0.096-0.009L338.452,72.154z M338.677,71.542l0.004,0.139l-0.028,0.257l-0.2-0.015l-0.078,0.028l-0.112,0.022
	l0.095,0.297l-0.217,0.091l-0.129-0.408l-0.043-0.113l-0.019-0.094l-0.019-0.164l0.094-0.114l0.047-0.083l0.011-0.083l0.035-0.042
	l0.098-0.128l0.069-0.093l0.094-0.024l0.07,0.029l0.044,0.046l0.083,0.099l0.025,0.103l0.024,0.129L338.677,71.542z
	 M1565.147,34.234l0.097,0.014l-0.085,0.113l-0.056,0.098l-0.07,0.081l-0.13,0.059l0.007-0.044l0.016-0.035l0.024-0.031l0.031-0.029
	l0.038-0.091l0.054-0.085L1565.147,34.234z M340.143,69.345l-0.145-0.005l-0.171-0.091l-0.014-0.042l-0.028-0.052l0.001-0.046
	l0.016-0.053l0.038-0.011l0.053-0.01l0.05,0.021l0.043,0.009l0.077-0.028l-0.066-0.066l-0.069-0.049l0.041-0.045l0.131-0.023
	l0.123,0.053l0.114,0.073l0.043,0.067l-0.01,0.094l-0.05,0.104l-0.07,0.067L340.143,69.345z M342.9,65.633l-0.028,0.107
	l-0.022,0.022l-0.02,0.029l0.063,0.158l0.033,0.157l-0.133,0.067l-0.079-0.043l-0.116,0.007l-0.133-0.185l-0.076-0.049l-0.073-0.09
	l-0.063-0.047l-0.019-0.11l-0.02-0.035l0.021-0.157l-0.071-0.056l-0.049-0.039l0.002-0.067l-0.08-0.188l-0.332-0.162l-0.293-0.098
	l0.053-0.088l0.16-0.025l0.063-0.087l-0.003-0.07l-0.182-0.119l-0.032-0.167l0.116-0.112l0.219-0.076l0.117-0.035l0.103,0.085
	l0.088,0.03l0.106,0.039l0.016,0.05l-0.202,0.028l-0.072,0.106l-0.003,0.059l0.081,0.008l0.088-0.017l0.153-0.023l0.153,0.058
	l0.198,0.125l0.081,0.246l0.055,0.405l0.124,0.157L342.9,65.633z M343.784,63.534l-0.03-0.049l0.001-0.046l0.047-0.042l0.065-0.011
	l0.042,0.003l0.035,0.026l0,0.083l-0.064,0.068l-0.059,0.004L343.784,63.534z M345.601,65.979l-0.272,0.072l0.021,0.034l0.015,0.015
	l0.023,0.081l-0.032,0.084l-0.12-0.025l-0.124-0.077l-0.03-0.075l0.08-0.029l0.077-0.009l-0.006-0.037l0.035-0.026l0.127,0.008
	l0.124-0.013l0.107-0.033L345.601,65.979z M339.028,41.515l-0.096-0.107l-0.003-0.04l0.017-0.027l0.03-0.01l0.043,0.014l0.06,0.013
	l0.019-0.028l-0.001-0.04l0.004-0.027l0.118-0.109l0.073-0.021l0.084,0.056l-0.067,0.146l-0.135,0.131L339.028,41.515z
	 M338.798,39.039l-0.023,0.036l0.135,0.286l-0.11,0.649l-0.218,0.685l-0.186,0.395l0.068,0.09l-0.026,0.083l-0.143,0.156
	l-0.031,0.094l0.012,0.089l0.028,0.08l0.015,0.07l-0.012,0.076l-0.059,0.188l-0.034,0.042l-0.041,0.067l0.025,0.12l0.063,0.119
	l0.071,0.066l-0.016,0.222l0.02,0.095l0.056,0.067l-0.032,0.06l-0.084,0.109l-0.028,0.069l-0.004,0.069l0.067,0.173l0.004,0.098
	l0.022,0.025l0.125-0.007l0.038,0.028l0.024,0.046l0.015,0.052l-0.022,0.123l-0.171,0.202l-0.032,0.074l-0.021,0.072l-0.074,0.069
	l-0.274,0.192l-0.032,0.035l-0.022,0.048l-0.002,0.039l-0.016,0.035l-0.178,0.078l-0.073,0.068l-0.046,0.09l-0.083,0.229
	l-0.054,0.075l-0.083,0.045l-0.322,0.087l-0.032-0.01l-0.021-0.032l-0.04-0.032l-0.045-0.025l-0.04-0.011l-0.13,0.074l0.016,0.181
	l0.065,0.217l0.012,0.18l0.043,0.051l-0.036,0.051l-0.069,0.012l-0.053-0.063l-0.006-0.076l0.003-0.069l-0.012-0.068l-0.058-0.066
	l0.016-0.048l-0.005-0.06l-0.021-0.094l-0.006-0.078l0.053-0.433l-0.049-0.121l-0.145-0.089l0.019-0.07l-0.007-0.073l-0.042-0.147
	l-0.002-0.057l0.022-0.048l0.027-0.044l0.021-0.049l0.035-0.268l0.052-0.107l0.008-0.054l-0.029-0.065l-0.097-0.144l-0.003-0.054
	l0.018-0.06L336.501,43l-0.009,0.011l-0.023-0.028l-0.035-0.066l0.003-0.039l0.041-0.07l0.007-0.023l0.001-0.058l0.03-0.047
	l0.087-0.07l-0.09-0.008l-0.037,0.005l0.059-0.145l0.001-0.067l-0.048-0.073l0.032-0.023l0.036-0.053l0.025-0.029l-0.035-0.045
	l0.026-0.054l0.051-0.042l0.044-0.002l0.053-0.068l-0.011-0.066l-0.03-0.07v-0.077l0.044-0.054l0.06-0.032l0.045-0.044l-0.001-0.09
	l0.028-0.037l0.051-0.091l0.032-0.088l-0.03-0.028l-0.055-0.013l0.021-0.068l0.078-0.13L337,41.105l0.028-0.033l0.01-0.045
	l0.003-0.053l0.046-0.001l0.037-0.021l0.031-0.039l0.024-0.056l-0.068-0.03l-0.036-0.061l-0.011-0.078l0.004-0.083l0.379,0.019
	l0.023-0.071l0.052-0.02l0.061-0.014l0.052-0.044l-0.001-0.036l-0.054-0.103l-0.02-0.063l0.079,0.033l0.103,0.019l0.079-0.027
	l0.008-0.097l0.156,0.019l0.076,0.02l0.037,0.032l0.021,0.025l0.023-0.018l0.027-0.049v-0.032l-0.033-0.083l-0.006-0.034
	l0.021-0.045L338.184,40l0.023-0.043l-0.006-0.076l-0.038-0.148l-0.001-0.069l0.035-0.036l0.014-0.042l-0.016-0.077l-0.04-0.114
	l-0.024-0.028l-0.033-0.018l-0.031-0.022l-0.021-0.039l-0.004-0.041l0.017-0.044l-0.019-0.148l0.007-0.064l0.03-0.057l0.078-0.045
	l0.136,0.015l0.055-0.041l0.034,0.02l0.021,0.008l0.019,0.008l0.02,0.024l0.078-0.062l0.122-0.036l0.117,0.017l0.064,0.095
	l-0.008,0.033l-0.004,0.034L338.798,39.039z M348.746,70.76l-0.016-0.043l0.03-0.079l0.092-0.07l0.058,0.01l0.009,0.062
	l-0.058,0.083l-0.068,0.04L348.746,70.76z M349.134,70.151l-0.018-0.021l0.002-0.072l0.025,0.068L349.134,70.151z M342.646,41.755
	l-0.044,0.017l-0.032-0.002l-0.047-0.021l-0.045,0.002l-0.021-0.004l-0.021-0.018l-0.072,0.055l-0.444,0.193l-0.094,0.025h-0.101
	l0.045-0.095l0.106-0.108l0.136-0.094l0.375-0.169l0.076-0.011l0.098,0.034l0.027,0.062l0.01,0.073L342.646,41.755z M343.396,38.335
	l-0.192,0.226l-0.249,0.214l-0.062,0.088l-0.039,0.042l-0.114,0.074l-0.048,0.06l-0.044,0.068l-0.049,0.059l-0.112,0.106
	l-0.093,0.065l-0.093,0.037l-0.205,0.046l-0.088,0.043l-0.166,0.129l-0.121,0.047l-0.134,0.008l-0.113-0.025l-0.034-0.046
	l0.109-0.052l0.191-0.291l0.124-0.089l0.052-0.051l0.016-0.067l-0.034-0.056l-0.167,0.003l-0.111-0.031l0.072-0.114l0.106-0.13
	l0.117-0.115l0.109-0.064l0.343-0.092l0.327-0.088l0.12-0.046l0.072-0.016l0.185,0.045l0.084-0.041l0.081-0.067l0.111-0.05
	l-0.018-0.021l-0.032-0.056l-0.018-0.021l0.117-0.031l0.098-0.064l0.168-0.169l0.04,0.032l0.003,0.026l-0.056,0.064l-0.059,0.093
	l-0.067,0.218l-0.044,0.053L343.396,38.335z M1552.734,31.016l0.117-0.011l0.134,0.008l0.104,0.041l0.024,0.086l-0.056,0.068
	l-0.101,0.023l-0.115-0.022l-0.096-0.067l0.001-0.035l0.008-0.026l-0.001-0.028L1552.734,31.016z M343.411,32.354l-0.17-0.041
	l-0.067-0.06l-0.049-0.031l0.008-0.126l0.036-0.128l0.015-0.118l-0.063-0.099l-0.062,0.04l-0.069-0.068l-0.061-0.118l-0.04-0.111
	l0.051,0.015l0.034-0.014l0.016-0.041l-0.007-0.069l0.063,0.018l0.035,0.04l0.034,0.129l0.034,0.055l0.061,0.05l0.063,0.038
	l0.05,0.021l0.292-0.004l0.131,0.024l0.016,0.097l-0.227,0.218l-0.023,0.07l0.02,0.083l0.007,0.068l-0.011,0.056l-0.028,0.053
	L343.411,32.354z M1551.683,34.325l0.033-0.022l0.001-0.079l0.134,0.052l0.069,0.104l0.054,0.274l-0.15-0.045l-0.099-0.046
	l-0.178-0.145l0.006-0.058l-0.103-0.148l-0.03-0.067l0.023,0.008l0.014,0.012l0.009,0.018l0.016,0.019l0.057,0.016l0.011,0.013
	l0.048,0.002l0.038,0.068L1551.683,34.325z M343.888,30.783l-0.018,0.11l0.037,0.097l0.012,0.1l-0.092,0.109l0.011,0.041
	l0.108,0.028l0.011,0.101l-0.049,0.13l-0.067,0.118l-0.114,0.067l-0.167,0.006l-0.167-0.038l-0.11-0.064l0.037-0.031l0.013-0.024
	l-0.01-0.027l-0.028-0.041l0.064-0.024l0.041-0.043l0.016-0.057l-0.014-0.067l-0.026,0.021l-0.078,0.046l-0.009-0.037l0.123-0.128
	l0.037-0.082l-0.051-0.078l-0.062-0.072l-0.031-0.099l-0.003-0.105l0.019-0.085l0.03-0.02l0.049-0.016l0.046-0.021l0.013-0.036
	l-0.004-0.041l0.01-0.036l0.025-0.027l0.038-0.017l0.026,0.04l0.037,0.096l0.06,0.092l0.091,0.037l-0.032,0.048l0.051,0.013h0.039
	l0.033-0.018l0.038-0.039l0.03,0.014l0.006,0.015L343.888,30.783z M1551.077,34.649l0.085-0.016l0.061,0.007h0.052l0.061-0.042
	l0.006-0.028l-0.05-0.059l0.003-0.044l0.066-0.101l0.324,0.282l0.056,0.099l0.012,0.281l-0.047,0.038l-0.066,0.022l-0.045,0.034
	l0.027,0.074l-0.232,0.085l-0.061-0.026l0.041-0.172l-0.083,0.015l-0.049-0.032l-0.004-0.056l0.05-0.065l-0.072-0.02l0.018-0.022
	l0.046-0.08l-0.061-0.008l-0.057,0.008l-0.055,0.023l-0.052,0.037l0.021-0.078l0.041-0.046l0.014-0.041l-0.011-0.037
	L1551.077,34.649z M343.94,30.531l-0.113,0.027l0.013-0.085l-0.054-0.034l-0.168-0.024l0.034-0.081l0.06-0.008l0.074,0.021
	l0.084,0.001l0.141-0.065l0.05,0.005l0.036,0.078l-0.091,0.117L343.94,30.531z M1547.314,42.65l0.068-0.042l0.064-0.025l0.035-0.033
	l0.082-0.094l0.139-0.047l0.115,0.037l0.016,0.159l-0.027,0.044l-0.154,0.168l-0.141,0.242l-0.199,0.257l-0.133,0.106l-0.082-0.039
	l0.084-0.195l0.025-0.087l-0.012-0.09l0.051-0.022l-0.061-0.065l-0.026-0.04l-0.007-0.036l0.022-0.048l0.036-0.024l0.035-0.015
	l0.021-0.023L1547.314,42.65z M1548.859,39.487l0.011,0.095l-0.192,0.059l-0.036,0.018l-0.044,0.046l-0.07-0.019l-0.133-0.076
	l-0.045-0.04l-0.081-0.193l-0.043-0.043l-0.057-0.04l-0.069-0.036l-0.079-0.026l0.011-0.038l0.117,0.031l0.094-0.022l0.139-0.003
	l0.131,0.021l0.072,0.042l0.101-0.136l0.049,0.02l0.039,0.03l0.022,0.038l-0.001,0.132L1548.859,39.487z M1546.998,40.096
	l0.049-0.063l-0.016-0.068l-0.039-0.068l-0.028-0.065l0.003-0.12l0.037-0.137l0.067-0.105l0.097-0.024l0.123,0.018l0.038,0.02
	l0.038,0.055l0.002,0.056l-0.021,0.06l-0.009,0.054l0.039,0.034l0.013,0.031l0.015,0.116l0.03,0.024l0.042-0.024l0.044-0.103
	l0.039-0.035l-0.013-0.036l-0.002-0.025l0.006-0.061l0.074,0.094l0.022,0.044l0.016,0.051l0.158-0.09l0.118,0.081l0.142,0.276
	l0.089,0.096l0.022,0.035l0.018,0.058l-0.002,0.101l0.013,0.049l-0.009,0.081l-0.057,0.114l-0.066,0.098l-0.038,0.042l-0.041,0.005
	l-0.034,0.027l-0.049,0.056l-0.034,0.016l-0.067,0.017l-0.034,0.014l-0.185,0.122l-0.038,0.019l-0.285-0.077l-0.184-0.088
	l-0.027-0.032l-0.024-0.04l-0.041-0.037l-0.078-0.018l0.13-0.123l0.019-0.059l-0.09-0.046l0.016-0.036l0.021-0.013l0.063-0.003
	l-0.062-0.063h-0.058l-0.065,0.014l-0.086-0.023l-0.028-0.043l-0.026-0.21l0.003-0.044l-0.005-0.018l-0.018-0.023l0.05-0.03
	l0.037,0.011l0.022,0.054l0.037,0.031l0.049,0.003L1546.998,40.096z M1546.224,43.599l0.018,0.018l0.019,0.042l-0.006,0.025
	l-0.013,0.018l-0.005,0.017l-0.006,0.023l-0.021,0.02l-0.015,0.026l0.014,0.043l0.026,0.016l0.126,0.025l0.15,0.083l0.088,0.031
	l0.081-0.008l0.267-0.141l0.108-0.089l0.064-0.115l0.033,0.009l-0.002,0.09l-0.03,0.101l-0.051,0.09l-0.063,0.062l-0.08,0.046
	l-0.033,0.033l-0.021,0.046l-0.033,0.04l-0.057-0.006l-0.062-0.022l-0.052-0.009l-0.073,0.019l-0.239,0.091l-0.059,0.052
	l-0.053,0.081l-0.1,0.099l-0.111,0.083l-0.081,0.026l-0.076-0.036l-0.059-0.054l-0.044-0.063l-0.029-0.062l-0.039-0.167l-0.041-0.1
	l-0.181-0.159l-0.113-0.196l-0.064-0.193l0.03-0.101l0.092-0.082l0.128-0.055l0.153-0.021l0.168,0.022l0.03,0.028l0.074,0.104
	l0.17,0.107l0.023,0.022l0.015,0.02L1546.224,43.599z M1549.021,31.037l0.184-0.126l0.076-0.048l0.035,0.015l0.042,0.074
	l0.014,0.057l-0.006,0.053l-0.025,0.053l-0.042,0.06l-0.05,0.054l-0.05,0.035l-0.103,0.056l-0.124,0.038l-0.031,0.04l0.032,0.089
	l-0.107,0.053l-0.068,0.072l-0.081,0.042l-0.147-0.034l-0.136-0.079l-0.076-0.097l-0.022-0.123l0.027-0.159l0.08-0.149l0.101-0.021
	l0.255,0.086l0.128-0.001L1549.021,31.037z M350.997,43.997l-0.015-0.03l0.045-0.06l0.03,0.018l0.014,0.06l-0.008,0.072
	l-0.026-0.014l-0.021-0.02L350.997,43.997z M348.365,33.352l-0.034,0.063l-0.084,0.079l-0.061,0.043l-0.044,0.021l-0.058,0.019
	l-0.022,0.022l-0.027,0.089l-0.014,0.028l-0.236,0.26l-0.232,0.365l-0.13,0.27l-0.137,0.175l-0.093,0.081l-0.099,0.05l-0.127-0.012
	l-0.093-0.086l-0.077-0.11l-0.083-0.087l-0.064,0.056l-0.067,0.043l-0.073,0.018l-0.176-0.046l-0.071,0.018l-0.067,0.038
	l-0.077,0.034l-0.076,0.045l-0.071,0.128l-0.045,0.038l-0.045,0.048l0.034,0.073l0.096,0.114l-0.01,0.055l-0.074,0.18l-0.042,0.063
	l-0.038,0.013l-0.037-0.015l-0.038-0.004l-0.042,0.046l-0.015,0.051l0.012,0.035l0.021,0.02l0.011,0.006l-0.027,0.144l-0.062,0.163
	l-0.091,0.159l-0.113,0.134l0.01-0.078l-0.059-0.045l-0.067,0.001l-0.02,0.057l-0.01,0.073l-0.051,0.081l-0.08,0.056l-0.094-0.005
	l-0.015,0.056l-0.029,0.031l-0.044,0.018l-0.06,0.015l-0.056,0.026l-0.007,0.031l0.008,0.036l-0.011,0.045l-0.015,0.038l-0.01,0.043
	l-0.024,0.042l-0.057,0.028l-0.031-0.011l-0.144-0.108l-0.02,0.112l-0.02,0.042l-0.035,0.032l0.048,0.063v0.068l-0.042,0.046
	l-0.079,0.002l0.005,0.042l-0.005,0.113l-0.038,0.01l-0.074-0.139l-0.018-0.054l-0.035-0.011l-0.065,0.023l-0.06,0.04l-0.022,0.038
	l-0.034,0.046l-0.193,0.086l-0.046,0.082l-0.059-0.062l0.025-0.044l0.048-0.041l0.013-0.06l-0.044-0.042l-0.057,0.029l-0.055,0.063
	l-0.169,0.275l-0.073,0.085l-0.393,0.289l-0.037,0.063l-0.031,0.07l-0.086,0.105l-0.164,0.157l-0.423,0.183l-0.12,0.03l-0.08-0.016
	l-0.034-0.053l0.019-0.093l0.128-0.336l-0.009-0.053l0.091-0.04l0.074-0.062l0.231-0.294l0.044-0.041l0.052-0.028l0.105-0.039
	l0.058-0.035l0.081-0.084l0.205-0.33l0.094-0.425l0.12-0.172l-0.032-0.264l0.104,0.004l0.135-0.2l0.034-0.088l-0.002-0.044
	l-0.032-0.085l0.011-0.043l0.036-0.029l0.093-0.016l0.038-0.021l0.081-0.156l0.058-0.347l0.096-0.153l0.637-0.595l0.248-0.169
	l0.112-0.108l0.051,0.019h0.034l0.03-0.018l0.035-0.041l0.08-0.024l0.258-0.16l0.1-0.108l0.4-0.348l0.07-0.041l0.299-0.083
	l0.048-0.023l0.346-0.282l0.09,0.078l0.183,0.123l0.053,0.094l0.05-0.013l0.256-0.209l0.231-0.292l0.046-0.042l0.017-0.08
	l0.136-0.234l0.068-0.082l0.229-0.134l0.113,0.088l0.03,0.208l-0.022,0.223l-0.073,0.135l-0.005,0.045l0.027,0.053l0.046,0.051
	l0.053,0.021l0.043-0.031l0.067-0.199l0.043,0.005l0.048,0.027l0.036,0.042l0.007,0.048l-0.035,0.009l0.032,0.127l-0.021,0.078
	l-0.121,0.142l-0.037,0.081L348.365,33.352z M1544.569,44.475l0.04,0.011l-0.134,0.133l-0.228,0.023l-0.217,0.051l-0.103,0.209
	l-0.012-0.024l-0.032-0.047l-0.013-0.025l-0.064,0.079l-0.101,0.074l-0.085,0.021l-0.02-0.086l0.08-0.058l0.046-0.139l0.064-0.129
	l0.129-0.032l0.073,0.011l0.23-0.006l0.192,0.02l0.088-0.02L1544.569,44.475z M1543.541,44.519l0.081-0.121l0.023-0.131l0.041-0.115
	l0.13-0.083l0.13-0.021l0.155-0.001l0.165,0.02l0.152,0.044l-0.01,0.037l-0.081-0.01l-0.026,0.037l-0.011,0.053l-0.033,0.042
	l-0.047,0.01l-0.168,0.009l-0.111,0.026l-0.1,0.039l-0.089,0.062l-0.082,0.094l-0.024-0.05l-0.02,0.055l-0.021,0.021l-0.024-0.002
	L1543.541,44.519z M1542.556,45.937l0.099,0.003l0.001-0.061l0.265-0.026l-0.041,0.141l-0.187,0.125l-0.165-0.069L1542.556,45.937z
	 M1544.477,41.625l0.101-0.024l0.065,0.035l0.057,0.043l0.069,0.003l-0.031-0.048l0.017-0.03l0.034-0.028l0.02-0.043l-0.005-0.04
	l-0.026-0.077l-0.005-0.054l0.007-0.112l0.022-0.089l0.051-0.078l0.157-0.125l0.026-0.016l0.053-0.016l0.039-0.003l0.122,0.01
	l0.109-0.043l0.136-0.115l0.094-0.035l0.137,0.046l0.053,0.005l0.059-0.017l0.091-0.067l0.042-0.024l0.105-0.02l0.202,0.017
	l0.104-0.006l0.025-0.02l0.013-0.035l0.021-0.03l0.048-0.01l0.054,0.017l0.041,0.032l0.154,0.156l0.029,0.023l0.06,0.026
	l0.051,0.016l0.051,0.006l0.048-0.001l0.05-0.007l-0.224,0.3l-0.052,0.144l0.034,0.009l0.065-0.063l0.084-0.033l0.093,0.007
	l0.095,0.058l-0.009,0.039l-0.095-0.014l-0.069,0.025l-0.048,0.033l-0.03,0.014l-0.084-0.003l-0.091,0.027l-0.161,0.085
	l-0.117,0.124l-0.104,0.29l-0.099,0.122l-0.231,0.194l-0.19,0.087l-0.024,0.019l-0.084-0.012l-0.138,0.01l-0.082-0.003l-0.343-0.091
	l0.075-0.023l0.07-0.004l0.156,0.032l0.076-0.011l0.069-0.118l0.058-0.016l0.063-0.002V42.03l-0.043-0.053l-0.065-0.036
	l-0.065,0.013l-0.158,0.096l-0.194,0.004l-0.149,0.024l-0.15,0.051l-0.107,0.073l-0.035,0.062l0.002,0.055l0.014,0.063l-0.006,0.088
	l-0.031,0.03l-0.053,0.028l-0.018,0.037l0.063,0.051l-0.053,0.051l-0.011,0.045l0.013,0.095l0.005,0.006l0.01,0.049l0.001,0.028
	l-0.046,0.187l-0.071,0.196v0.068l0.067,0.069l0.094,0.064l0.084,0.085l0.032,0.135l-0.046,0.091l-0.158,0.157l0.002,0.061
	l-0.011,0.038l-0.524-0.105l-0.03-0.024l-0.092-0.109l-0.015-0.041l0.019-0.078l0.01-0.065l-0.01-0.06l-0.034-0.064l0.077-0.007
	l0.032-0.032l-0.004-0.047l-0.03-0.049l-0.047-0.03l-0.119-0.033l-0.051-0.04l-0.071,0.001l-0.067-0.051l-0.114-0.158l-0.068-0.076
	l-0.166-0.132l-0.059-0.072l-0.171-0.295l-0.035-0.101l-0.01-0.097l-0.001-0.178l-0.012-0.09l0.025,0.009l0.009-0.005l0.004-0.014
	l0.009-0.018l0.316-0.321l0.051-0.143l0.089,0.064l0.075,0.002l0.076-0.018l0.094,0.004l0.208,0.063l0.106,0.017l0.095-0.015
	l0.089,0.079l0.075,0.001L1544.477,41.625z M1543.019,47.265l0.022,0.107l-0.081,0.031l-0.442,0.029l-0.146,0.047l-0.127-0.02
	l-0.258-0.11l-0.296-0.016l-0.121-0.034l-0.028-0.11l0.092-0.063l0.098-0.046l0.066-0.008l0.139,0.002l0.146-0.04l0.104-0.004
	l0.104,0.007l0.08,0.016l0.151,0.012l0.078,0.018l0.063,0.047l0.128-0.01l0.133,0.052L1543.019,47.265z M350.542,31.878
	l-0.019-0.037l-0.005-0.05l0.116-0.141l0.06-0.048l0.074,0.006l0.029,0.058l-0.023,0.045l-0.051,0.047L350.542,31.878z
	 M1543.373,43.968l0.136,0.137l0.044,0.135l-0.162,0.079l0.005,0.051l-0.003,0.023l-0.032,0.037l-0.048,0.283l-0.309,0.22
	l-0.388,0.132l-0.287,0.011l-0.067-0.028l-0.062-0.037l-0.112-0.083l-0.169-0.184l-0.039-0.031l-0.054-0.092l-0.023-0.187v-0.201
	l0.015-0.137l0.2-0.218l0.242-0.127l0.268-0.049l0.28,0.019l0.267,0.063l0.09,0.041L1543.373,43.968z M1540.871,46.978l0.027,0.127
	l-0.077,0.084l-0.048-0.019l-0.044-0.059l-0.031-0.07l0.017-0.048l0.023-0.015l0.056-0.045L1540.871,46.978z M1539.574,46.303
	l0.051-0.003l0.049-0.019l0.081-0.049l0.031-0.006l0.022,0.012h0.02l0.032-0.083l0.021-0.011l0.03,0.004l0.044,0.014l0.029-0.017
	l0.035-0.047l0.052-0.043l0.142-0.01l0.051-0.044l0.063-0.102l0.032,0.052l0.098-0.053l-0.016-0.137l0.077-0.111l0.104-0.097
	l0.066-0.096l0.09-0.021l0.156,0.13l0.226,0.276l0.059,0.125l0.104,0.17l0.134,0.126l0.144-0.003l0.08-0.033l0.061,0.015
	l0.037,0.053l0.01,0.077l-0.023,0.012l-0.049,0.035l-0.033,0.057l0.022,0.075l-0.01,0.036l-0.114-0.017l-0.104-0.054l-0.089-0.007
	l-0.138,0.239l-0.099-0.005l-0.215-0.119l-0.049,0.01l-0.051,0.039l-0.045,0.043l-0.031,0.024l-0.168,0.032l-0.05,0.027
	l-0.057,0.084l-0.007,0.002l-0.018,0.043l-0.018,0.001l-0.021-0.012l-0.142,0.023l-0.025,0.029l0.018,0.082l-0.276,0.034
	l-0.239-0.105l-0.171-0.202l-0.071-0.255l0.035-0.066l0.038-0.044l0.016-0.044L1539.574,46.303z M1542.221,36.427l0.103-0.042
	l0.067-0.079l0.06-0.099l0.031-0.083l0.056-0.07l0.103-0.065l0.104-0.03l0.058,0.032l-0.014,0.089l-0.07,0.068l-0.094,0.042
	l-0.083,0.015l0.061,0.077l-0.052,0.098l-0.183,0.177l0.057,0.003l0.15-0.031l-0.015,0.053l-0.069,0.127l-0.035,0.133l-0.033-0.018
	l-0.084,0.002l-0.096,0.041l-0.063,0.1l-0.023,0.016L1542.11,37l-0.043,0.002l-0.012-0.028l0.02-0.051l0.048-0.08l0.012-0.029
	l0.014-0.007l0.021-0.043l-0.005-0.035l-0.068,0.017l-0.032-0.009l-0.016-0.044l0.015-0.053l0.049-0.033l0.046-0.054
	L1542.221,36.427z M1542.505,35.491l0.016-0.053l-0.053-0.066l-0.041-0.073l0.05-0.071l-0.016-0.026l-0.007-0.019l-0.002-0.019
	l0.001-0.026l0.119-0.011l0.092-0.06l0.147-0.188l-0.026-0.03l-0.029-0.048l-0.021-0.049l-0.004-0.037l0.041-0.062l0.063-0.013
	h0.073l0.073-0.018l0.13-0.079l0.065-0.053l0.035-0.048l0.045-0.025l0.185-0.042l0.084-0.083l0.137-0.053l0.062-0.033l0.06-0.057
	l0.123-0.177l0.086-0.082l0.187-0.125l0.093-0.098l0.096,0.085l0.108-0.014l0.074-0.072l-0.009-0.085l0.148-0.193l0.06-0.052
	l0.08-0.019l0.088,0.001l0.057-0.021l-0.009-0.084l0.156-0.116l-0.026-0.139l0.005-0.107l0.034-0.098l0.063-0.112l0.015,0.078
	l0.055-0.003l0.063-0.045l0.035-0.046l0.033-0.09l0.04-0.044l0.057-0.018l0.075-0.01l-0.045-0.111l0.063-0.042l0.101-0.02
	l0.062-0.043l0.062-0.174v-0.078l-0.063-0.049l0.074-0.088l0.038-0.034l0.052-0.033l-0.041-0.103l0.076-0.039l0.128-0.017
	l0.11-0.028l0.092-0.071l0.128-0.132l0.075-0.055l0.013-0.013l0.043-0.056l0.021-0.007l0.048-0.001l0.018-0.005l0.271-0.199
	l0.439-0.422l1.084-0.835l0.061-0.011l0.091,0.15l0.13,0.156l0.02,0.049l-0.04,0.04l-0.032,0.058l-0.009,0.063l0.023,0.055
	l0.033,0.005l0.084-0.069l0.106-0.021l0.013-0.051l-0.012-0.059l-0.039-0.057l0.061-0.039l0.274-0.101l0.096-0.021l0.085,0.006
	l0.113,0.027l0.168-0.126l0.111-0.038l0.046,0.089l-0.022,0.046l-0.15,0.145l-0.013,0.025l-0.008,0.066l-0.011,0.025l-0.036,0.02
	l-0.042,0.003l-0.037,0.007l-0.063,0.084l-0.12,0.037l-0.066,0.103l-0.048,0.027l-0.121,0.049l-0.182,0.135l-0.071,0.036
	l-0.058-0.002l-0.045-0.024l-0.039,0.004l-0.035,0.078l-0.055,0.052l-0.297,0.192l-0.218,0.427l-0.171,0.162l-0.094,0.121
	l-0.137,0.093l-0.07,0.076l-0.046,0.087l0.006,0.081l-0.161,0.153l-0.057,0.092l0.004,0.1l-0.143,0.021l-0.082,0.031l-0.047,0.055
	l-0.026,0.074l-0.044,0.065l-0.059,0.037l-0.077-0.012l0.008,0.128l-0.054,0.111l-0.09,0.094l-0.513,0.408l-0.015,0.033l-0.01,0.086
	l-0.016,0.033l-0.042,0.014l-0.05-0.01l-0.046-0.012h-0.026l-0.02,0.042l0.016,0.026l0.02,0.026l-0.005,0.032l-0.116,0.128
	l-0.015,0.034l-0.01,0.081l-0.015,0.034l-0.016-0.003l-0.082,0.003l-0.026,0.007l-0.046,0.052l-0.025,0.043l-0.038,0.021
	l-0.084-0.011l0.019,0.044l0.02,0.129l-0.113-0.019l-0.098,0.025l-0.075,0.065l-0.046,0.097l-0.236,0.277l-0.22-0.027l-0.107,0.019
	v0.1l-0.084,0.156l-0.072,0.065l-0.069-0.062l-0.083,0.041l-0.061,0.042l-0.011,0.038l0.061,0.077l-0.085,0.039l-0.218,0.021
	l-0.09,0.042l-0.088,0.066l-0.059,0.085v0.1l-0.112,0.027l-0.195,0.201l-0.098,0.066l-0.081,0.006l-0.059-0.018l-0.051-0.03
	l-0.056-0.025l-0.229-0.062l-0.473,0.33l-0.226,0.24l-0.099,0.024l-0.098-0.018L1542,36.195l0.037-0.089l0.1-0.093l0.325-0.486
	L1542.505,35.491z M1541.515,36.919l0.07-0.013l-0.004-0.078l0.044-0.057l0.141-0.096l-0.037-0.082l0.041-0.116l0.084-0.115
	l0.098-0.08l0.014,0.06l0.028,0.047l0.049,0.023l0.074-0.006l-0.111,0.229l-0.04,0.055l-0.059,0.032l-0.075,0.03l-0.072,0.044
	l-0.084,0.152l-0.108,0.095l-0.037,0.069l-0.041,0.032l-0.065-0.009l-0.048-0.037l0.008-0.045l0.05-0.043l0.037-0.05
	L1541.515,36.919z M1539.863,41.129l0.065-0.136l0.021-0.159l0.043-0.136l0.126-0.062l-0.033-0.046l0.053-0.028l0.032,0.044
	l0.056,0.028l0.066,0.005l0.068-0.017l-0.149,0.119l0.083,0.029l0.016,0.063L1540.262,41l-0.035-0.009l-0.01-0.038l-0.026-0.058
	l-0.011-0.037l-0.119,0.198l-0.049,0.053l-0.019,0.042l-0.029,0.142l-0.031,0.052l-0.042-0.107L1539.863,41.129z M1540.952,36.981
	l0.152,0.041l-0.005-0.024l-0.003-0.04l-0.006-0.022l0.044,0.035l0.051,0.03l0.059,0.021l0.06,0.013l-0.068,0.068l-0.036,0.02
	l0.182,0.091l-0.074,0.061l-0.088,0.028l-0.074,0.045l-0.034,0.113l-0.034-0.009l-0.06-0.096l0.009-0.037l0.023-0.049l-0.099-0.178
	L1540.952,36.981z M1540.647,39.7l0.086-0.021l-0.031,0.15l-0.024,0.077l-0.063,0.082l-0.001,0.037l0.007,0.043v0.043l-0.024,0.038
	l-0.061,0.021l-0.022,0.033l-0.09,0.089l-0.124-0.095l-0.17-0.237l0.161-0.234l0.051-0.027l0.086,0.012L1540.647,39.7z
	 M1536.732,51.642l0.069-0.076l0.075-0.044l0.078-0.033l0.072-0.048l0.076,0.142l-0.002,0.124l-0.095,0.273l-0.07,0.083L1536.846,52
	l-0.153-0.205l0.023-0.035l0.007-0.031L1536.732,51.642z M1535.405,49.84l0.083-0.153l0.029-0.036l0.114-0.05l0.074,0.021
	l0.069,0.053l0.089,0.046l0.024,0.049l0.004,0.1l-0.017,0.104l-0.033,0.065l0.059,0.112l-0.025,0.091l-0.035,0.09l0.022,0.112
	l-0.039,0.044l-0.077,0.046l-0.04,0.032l-0.088,0.143l-0.036,0.023l-0.073-0.029l-0.268-0.226l0.037-0.037l-0.078-0.039
	l-0.093-0.061l-0.008-0.101l-0.05,0.006l-0.032-0.011l-0.031-0.025l0.044-0.062l0.216-0.148L1535.405,49.84z M1535.022,48.063
	l0.063,0.044l0.142-0.049l0.04-0.022l0.035-0.038l0.056-0.095l0.03-0.035l0.018,0.063l-0.007,0.061l-0.027,0.054l-0.043,0.046
	l0.083,0.037l0.078,0.048l0.063,0.065l0.041,0.085l-0.044-0.005l-0.024,0.003l-0.021,0.007l-0.032,0.002l0.035,0.048l0.017,0.05
	l-0.002,0.054l-0.02,0.056l-0.037-0.103l-0.055-0.102l-0.041-0.03l-0.045,0.016l-0.047,0.025l-0.052-0.003l-0.073-0.039l-0.02-0.031
	l0.004-0.05l-0.008-0.042l-0.04,0.021l-0.039,0.039l-0.004,0.019l-0.122,0.042l-0.127,0.026l-0.107-0.044l-0.053-0.174l0.03-0.115
	l0.038,0.011l-0.001,0.08l0.027,0.07l0.055,0.056l0.078,0.037l0.059-0.036l0.048-0.088L1535.022,48.063z M1534.439,45.101
	l0.015-0.051l-0.005-0.06l-0.007-0.027l0.115-0.191l0.147-0.115l0.396-0.196l0.088-0.058l0.231-0.203l0.125-0.217l0.323-0.278
	l0.168-0.199l0.089-0.188l0.071-0.081l0.041-0.062l0.052-0.051l0.073-0.007l0.046-0.011l0.02-0.047l0.013-0.063l0.024-0.051
	l0.061-0.042l0.193-0.074l0.227-0.162l0.094-0.025l0.101,0.011l0.24,0.053l0.265,0.006l0.234-0.032l0.084-0.035l0.075-0.041
	l0.082-0.031l0.11-0.002l-0.029-0.098l-0.02-0.035l0.107-0.017l0.092-0.053l0.07-0.083l0.044-0.105l0.053-0.065l0.095-0.031
	l0.103-0.007l0.079,0.01l0.056-0.018l0.053-0.063l0.094-0.144l0.053-0.052l0.07-0.053l0.083-0.042l0.08-0.019l0.009-0.034
	l-0.088-0.038l0.007-0.041l0.05-0.048l0.039-0.053l0.031-0.118l0.004-0.057l-0.023-0.218l0.024-0.108l0.074-0.06l0.135,0.008
	l0.135,0.036l0.069,0.038l0.013,0.079l-0.035,0.154l0.023,0.076l0.227,0.211l-0.067-0.007l-0.041,0.014l-0.014,0.033l0.014,0.05
	l-0.077,0.057l-0.064,0.125l-0.086,0.241l-0.063,0.098l-0.091,0.053l-0.108-0.005l-0.119-0.084l0.006,0.051l0.018,0.039l0.054,0.085
	l-0.032,0.037l0.012,0.03l0.075,0.029l-0.087,0.087l-0.117,0.177l-0.093,0.099l-0.1,0.282l-0.008,0.051l0.045,0.05l-0.022,0.076
	l-0.077,0.062l-0.183,0.015l-0.095,0.037l-0.094,0.055l-0.051,0.059l0.015,0.056l0.017,0.118l-0.012,0.078l-0.067-0.066
	l-0.104,0.027l-0.094,0.062l-0.076,0.093l-0.049,0.114l-0.049,0.066l-0.094,0.069l-0.736,0.35l-0.057,0.009l-0.073-0.005
	l-0.067,0.008l-0.039,0.043l-0.038,0.068l-0.059,0.028l-0.137,0.023l-0.355,0.134l-0.061,0.055l-0.067,0.039l-0.378,0.103
	l-0.086,0.073l-0.205,0.223l-0.047,0.075l-0.048,0.058l-0.694,0.467l-0.023,0.008l-0.124,0.09l-0.087,0.017l-0.311-0.039
	l-0.111-0.032l-0.066-0.062l-0.107-0.223l0.009-0.099l0.049-0.121l0.069-0.099l0.089-0.046l0.028-0.033l0.039-0.032l0.054-0.004
	L1534.439,45.101z M1566.886,33.832l-0.152,0.065l-0.085,0.001l-0.047,0.017l-0.053,0.029l-0.033,0.003l-0.09-0.059l-0.057-0.054
	l-0.074-0.137l-0.032-0.031L1566.886,33.832z M329.768,33.666l0.035,0.009l-0.018,0.025l-0.003,0.021l0.001,0.021l-0.001,0.023
	l-0.065,0.101l-0.025,0.063l-0.011,0.065l0,0l0.011,0.062l0.042,0.127l-0.011,0.059l-0.07,0.134l-0.045,0.133l-0.068,0.346
	l-0.083,0.194l-0.045,0.219l-0.083,0.191l-0.022,0.126l-0.01,0.263l-0.042,0.251l-0.285,0.716l-0.122,0.388l-0.098,0.13
	l-0.127-0.102l-0.018-0.066l0.004-0.052l-0.003-0.049l-0.042-0.057l-0.047-0.019l-0.125-0.013l-0.054-0.028l-0.016-0.078
	l0.058-0.086l0.08-0.084l0.045-0.074l-0.06-0.073l-0.01-0.032l0.007-0.036l0.086-0.241l0.031-0.039l0.225-0.125l0.087-0.074
	l0.059-0.134l0.003-0.062l-0.023-0.117l-0.001-0.059l0.025-0.078l0.031-0.022l0.037,0.001l0.043-0.013L329.1,35.5l0.045-0.006
	l0.039-0.026l0.034-0.075l0.01-0.051l0.001-0.063l-0.008-0.063l-0.023-0.053l-0.034-0.018l-0.111-0.026l-0.041-0.027l-0.022-0.046
	l-0.018-0.063l-0.02-0.117l0.01-0.103l0.064-0.243l0.008-0.118l0.065,0.011l0.028,0.01l0.046-0.118l-0.031-0.085l-0.061-0.063
	l-0.041-0.056l-0.001-0.103l0.044-0.089l0.059-0.077L329.768,33.666z M341.211,30.6l0.022,0.053l0.038,0.045l0.042,0.037
	l0.043,0.027l0.025,0.045v0.074l-0.018,0.139l-0.001,0.116l0.006,0.062l0.018,0.058l0.036,0.047l0.102,0.075l0.031,0.049l0.019,0.12
	l-0.005,0.188l0.017,0.109l0.02,0.033l0.062,0.033l0.025,0.025l0.005,0.031l-0.018,0.056l0.003,0.032l0.109,0.409l0.011,0.02
	l0.043,0.048l0.013,0.033l-0.01,0.013l-0.02,0.031l-0.017,0.038l-0.019,0.124l-0.128,0.155l-0.019,0.239l-0.08,0.116l-0.199,0.217
	l0.081,0.195l-0.045,0.277l-0.113,0.275l-0.121,0.185l-0.084,0.063l-0.109,0.054l-0.231,0.076l-0.037,0.039l0.015,0.06l0.05,0.08
	l0.007,0.072l-0.013,0.063l-0.045,0.134l-0.002,0.194l-0.013,0.052l-0.054,0.029l-0.079,0.017l-0.066,0.032l-0.011,0.076
	l-0.022,0.027l-0.06,0.021l-0.121,0.028l-0.051,0.029l-0.026,0.038l-0.023,0.045l-0.044,0.046l-0.169,0.037l-0.132-0.118
	l-0.196-0.386l-0.125-0.194l-0.093-0.1l-0.105-0.077l-0.004-0.42l0.075-0.393l-0.009-0.125l-0.101-0.212l0.001-0.076l0.038-0.061
	l0.05-0.057l0.047-0.063l-0.001-0.026l-0.027-0.061l-0.002-0.025l0.017-0.02l0.063-0.056l0.02-0.031l0.022-0.179l0.019-0.052
	l0.005-0.094l-0.135-0.617l-0.195-0.44l-0.069-0.243l-0.021-0.155l-0.016-0.061l-0.032-0.044l0.01-0.042l-0.012-0.121v-0.02
	L341.211,30.6z M1556.963,31.173l-0.056,0.096l-0.042,0.117l-0.053,0.113l-0.148,0.159l-0.052,0.079l-0.012,0.109l0.016,0.098
	l-0.018,0.09l-0.112,0.089l-0.33,0.182l-0.091,0.08l-0.116,0.128h-0.025l-0.063-0.026l-0.025-0.004l-0.029,0.016l-0.024,0.042
	l-0.028,0.022l-0.056,0.007l-0.059-0.011l-0.049-0.001l-0.03,0.033l-0.037,0.089l-0.04,0.007l-0.046-0.028l-0.058-0.017
	l-0.141,0.017l-0.13,0.034l-0.124,0.05l-0.117,0.063l-0.082,0.066l-0.048,0.026h-0.059l-0.018-0.082l-0.028-0.063l-0.049-0.045
	l-0.062-0.005l-0.136,0.046l-0.06,0.009l-0.065-0.016l-0.138-0.078l-0.061-0.01l-0.081,0.005l-0.062-0.009l-0.073,0.042
	l-0.022,0.017l-0.03-0.033l-0.047-0.073l-0.187-0.066l-0.071-0.057l-0.013-0.089l-0.003-0.092l-0.116-0.396l0.118-0.172l0.177-0.158
	l0.347-0.22l0.223-0.177l0.058-0.023l0.086-0.002l0.112-0.032l0.108-0.049l0.08-0.056l0.063-0.09l0,0l0.041-0.113l0.05-0.213V30.6
	L1556.963,31.173z"/></svg>