<?xml version="1.0" encoding="utf-8"?>
<!-- Generator: Adobe Illustrator 15.0.0, SVG Export Plug-In . SVG Version: 6.00 Build 0)  -->
<!DOCTYPE svg PUBLIC "-//W3C//DTD SVG 1.1//EN" "http://www.w3.org/Graphics/SVG/1.1/DTD/svg11.dtd">
<svg version="1.1" id="Ebene_1" xmlns="http://www.w3.org/2000/svg" xmlns:xlink="http://www.w3.org/1999/xlink" x="0px" y="0px"
	 width="1920px" height="1080px" viewBox="0 0 1920 1080" enable-background="new 0 0 1920 1080" xml:space="preserve">

<path fill="#F4E0B6" stroke="#FFFFFF" d="M1303.313,833.132l0.136,0.044l0.129,0.004l0.268-0.058l0.016,0.15l0.088,0.134
	l0.115,0.129l0.092,0.126l0.039,0.115l0.037,0.377l0.04,0.127l0.245,0.392l0.081,0.099l0.335,0.26l0.196,0.311l0.49,1.042
	l-0.07,0.002l-0.129-0.044l-0.063,0.017l-0.237,0.119l0.066,0.116l0.112,0.384l0.106,0.357l0.116,0.399l0.128,0.242l0.039,0.076
	l0.153,0.291l0.048,0.049l0.046,0.031l0.037,0.034l0.033,0.04l0.028,0.053l-0.316,0.154l-0.34,0.165l-0.515,0.252l-0.389,0.19
	l-0.259,0.072l-0.422,0.057l-0.313,0.044l-0.146,0.02l-0.36,0.049l-0.07-0.01l-0.082-0.026l-0.294-0.17l-0.524-0.146l-0.146-0.099
	l-0.064-0.091l-0.042-0.175l-0.045-0.102l-0.061-0.068l-0.067-0.039l-0.154-0.058l-0.082-0.048l-0.15-0.149l-0.046-0.045
	l-0.015,0.071l-0.03,0.074l-0.043,0.064l-0.052,0.041l-0.059,0.036l-0.07-0.081l-0.173-0.255l-0.281-0.548l-0.218-0.422
	l-0.074-0.337l0.116-0.592l0,0l0.09-0.462l0.022-0.559l-0.042-0.564l-0.051-0.24l0.005-0.107l0.172-0.448l0.195-0.51l0.075-0.103
	l0.106-0.097l0.104-0.056l0.105-0.016l0.5,0.056l0.499,0.057l0.433,0.049l0.077,0.009l0.412,0.049l0.118-0.021l0.09-0.075
	L1303.313,833.132z"/></svg>