<?xml version="1.0" encoding="utf-8"?>
<!-- Generator: Adobe Illustrator 15.0.0, SVG Export Plug-In . SVG Version: 6.00 Build 0)  -->
<!DOCTYPE svg PUBLIC "-//W3C//DTD SVG 1.1//EN" "http://www.w3.org/Graphics/SVG/1.1/DTD/svg11.dtd">
<svg version="1.1" id="Ebene_1" xmlns="http://www.w3.org/2000/svg" xmlns:xlink="http://www.w3.org/1999/xlink" x="0px" y="0px"
	 width="1920px" height="1080px" viewBox="0 0 1920 1080" enable-background="new 0 0 1920 1080" xml:space="preserve">

<path fill="#F4E0B6" stroke="#FFFFFF" d="M1146.913,563.09l-0.028,0.028l-0.063-0.014l-0.014-0.015l0.036-0.058l0.058-0.05
	l0.005,0.014l0.014,0.049L1146.913,563.09z M1150.744,559.094l-0.031,0.133l-0.008,0.138l0.03,0.149l0.008,0.069l-0.023,0.062
	l-0.067,0.055l-0.086,0.033l-0.074,0.041l-0.033,0.075v0.177l0.014,0.091l0.029,0.07l0.176,0.297h0.062l0.201,0.038l0.051,0.018
	l0.046,0.034l0.066,0.021l0.158,0.015v0.022l-0.156,0.065l-0.043,0.074l-0.054,0.022l-0.045,0.016l-0.026,0.001h-0.001l0,0
	l0.002-0.01l0.012-0.021l0.002-0.042l-0.049-0.021l-0.023,0.016l-0.014-0.02l-0.015-0.006l-0.038-0.023l-0.024,0.009l-0.028-0.025
	l-0.039,0.026l0.033,0.077l0.037,0.054l0.039,0.02l-0.008,0.023l0.003,0.033l-0.019,0.058l-0.027,0.028l-0.041-0.009l-0.04,0.012
	l-0.041,0.104l0.02,0.052l-0.018,0.023l-0.037,0.016l-0.007,0.051h-0.117l-0.025,0.097l-0.024,0.033l-0.018-0.05l-0.031-0.095
	l-0.023-0.005l-0.028,0.02l-0.011,0.053l-0.04,0.041l0.009,0.043l0.029,0.031l0.019,0.003l0,0l-0.017,0.029l-0.049,0.025
	l-0.007,0.014l-0.044,0.029l-0.108-0.007l-0.022,0.041l-0.012,0.05l-0.042,0.021l-0.058-0.003l-0.05-0.044l-0.04-0.018l-0.041-0.005
	l-0.02,0.013l0.004,0.03l0.021,0.04l-0.016,0.016l-0.047,0.013l-0.031,0.013l-0.021,0.015l-0.007,0.03l0.023,0.079l0.003,0.035
	l0.021,0.051l0.021,0.04l0.017,0.022l-0.037,0.013l-0.024-0.032l-0.044-0.098l-0.031-0.078l-0.048-0.07l-0.046-0.064l-0.044-0.02
	l-0.127-0.062l-0.073-0.035l-0.085-0.046l-0.044-0.044l-0.038-0.035l-0.037-0.003l-0.035,0.032l-0.011,0.058l0.002,0.054
	l-0.009,0.026l-0.068,0.088l-0.055,0.038l-0.021,0.04l-0.049,0.028l-0.101,0.038l-0.097,0.055l-0.066,0.003l-0.127,0.03
	l-0.085,0.084l-0.035,0.048l-0.013,0.119l-0.029,0.028l-0.067-0.013l-0.039,0.052l-0.042,0.08l-0.06,0.074l-0.03,0.062l-0.049,0.088
	l-0.011,0.106l-0.043,0.083l-0.031,0.033l-0.03,0.029l-0.036,0.018l-0.076,0.039l-0.027,0.033l-0.013,0.02l-0.004,0.057l0.004,0.043
	l-0.049,0.029l-0.078-0.055l-0.086-0.026l-0.083,0.003l-0.121,0.046l-0.057,0.019l-0.051,0.004l-0.058-0.014l-0.048-0.02
	l-0.035-0.039l-0.014-0.024l0,0l0.109-0.056l0.11-0.036l0.107-0.002l0.102-0.025l0.088-0.104l0.035-0.119l0.003-0.139l-0.037-0.146
	l-0.077-0.146l-0.159-0.239l-0.086-0.1l-0.112-0.089l0.079-0.037l0.17-0.011l0.072-0.026l0.217-0.089l0.198-0.155l0.393-0.205
	l0.07-0.012l0.466-0.254l0.61-0.587l0.146-0.307l0.072-0.153l0.167-0.081l0.121-0.159l0.314-0.475l0.061-0.167l0.118-0.175
	l0.04-0.257l0.071-0.078l0.135-0.165l0.117-0.159l0.065-0.166l0.356-0.631l0.07-0.111l0.036-0.037l-0.008,0.022v0.021l0.002,0.018
	l0.001,0.016l0.062,0.108l0.008,0.029l-0.015,0.023l-0.058,0.062l-0.007,0.022l-0.151,0.38l-0.102,0.41L1150.744,559.094z"/></svg>