<?xml version="1.0" encoding="utf-8"?>
<!-- Generator: Adobe Illustrator 15.0.0, SVG Export Plug-In . SVG Version: 6.00 Build 0)  -->
<!DOCTYPE svg PUBLIC "-//W3C//DTD SVG 1.1//EN" "http://www.w3.org/Graphics/SVG/1.1/DTD/svg11.dtd">
<svg version="1.1" id="Ebene_1" xmlns="http://www.w3.org/2000/svg" xmlns:xlink="http://www.w3.org/1999/xlink" x="0px" y="0px"
	 width="1920px" height="1080px" viewBox="0 0 1920 1080" enable-background="new 0 0 1920 1080" xml:space="preserve">

<path fill="#F4E0B6" stroke="#FFFFFF" d="M1449.853,46.349l0.029,0.021l0.015,0.061l-0.029,0.027l-0.02-0.021l-0.013-0.027
	l0.002-0.037L1449.853,46.349z M1449.73,46.879l0.044,0.024l0.014,0.066l-0.022,0.007l-0.03-0.033L1449.73,46.879z M1449.645,46.527
	l0.021,0.02l0.008,0.048l-0.02,0.038l-0.027,0.005l-0.018-0.03l0.006-0.052L1449.645,46.527z M1434.189,50.095l0.082,0.066
	l-0.084,0.038l-0.081-0.067L1434.189,50.095z M1434.263,50.678l0.082,0.084l-0.08,0.036l-0.082-0.084L1434.263,50.678z
	 M1427.525,59.045l0.033,0.052l-0.069-0.005l-0.085-0.057l-0.063-0.075l-0.001-0.059l0.056,0.003l0.069,0.062L1427.525,59.045z
	 M473.303,41.071l-0.146-0.14l-0.031-0.046l0.004-0.079l0.034-0.062l0.044-0.059l0.033-0.072l0.031-0.118l0.031-0.077l0.049-0.075
	l0.101,0.003l0.075,0.091l0.156,0.319l0.044,0.124l-0.002,0.115l-0.082,0.069l-0.036-0.002l-0.081-0.031l-0.038-0.008l-0.035,0.017
	l-0.021,0.034l-0.024,0.031l-0.045,0.005L473.303,41.071z M1419.877,40.634h0.011l-0.011,0.01l-0.006,0.011l-0.007,0.005
	l-0.008-0.012l0.002-0.019l0.009-0.002L1419.877,40.634z M1425.781,85.508l0.037,0.021l-0.039,0.009l-0.035,0.004l-0.032-0.003
	l-0.03-0.02l0.036-0.024l0.031-0.001L1425.781,85.508z M1413.533,37.756l0.043,0.043h-0.061l-0.021-0.011l-0.016-0.035l0.033-0.005
	L1413.533,37.756z M1411.799,36.727l0.016-0.043l-0.045-0.045l-0.006-0.04l0.006-0.043l-0.004-0.058l-0.041-0.134l-0.009-0.052
	l0.012-0.007l0.036-0.107l-0.002-0.018l0.04-0.048l0.015,0.011l0.03,0.051l0.047-0.044l0.009-0.051l-0.021-0.053l-0.045-0.048
	l0.268-0.149l0.055-0.018l0.025,0.04l0.021,0.123l0.02,0.02l0.058-0.027l0.089-0.077l0.063-0.029l0.095-0.003l0.065,0.037
	l0.041,0.06l0.105,0.251l0.021,0.106l-0.047,0.072l0.071,0.107l-0.03,0.086l-0.069,0.074l-0.044,0.071l-0.078-0.003l-0.073,0.011
	l-0.061,0.034l-0.041,0.069l-0.027-0.009l-0.063-0.011l0.03,0.153l-0.076,0.062l-0.196,0.014l-0.066-0.037l-0.03-0.105l-0.051-0.086
	l-0.13,0.02L1411.799,36.727z M1418.76,72.16l0.066,0.012l-0.204,0.076l-0.093,0.016l0.035-0.057l0.059-0.033l0.067-0.016
	L1418.76,72.16z M1422.178,87.286l0.026-0.002l-0.048,0.042l-0.01-0.036l0.008-0.008L1422.178,87.286z M1418.738,73.508l0.078-0.103
	l0.085-0.025l0.109,0.007l0.06,0.045l-0.065,0.086l0.009,0.038l0.049,0.038l0.012,0.065l-0.002,0.079l0.008,0.085l-0.023-0.011
	l-0.013-0.015l-0.018-0.042l-0.038-0.044l-0.067-0.139l-0.047-0.02l-0.05,0.039l0.048,0.115l-0.05,0.063l-0.092-0.177
	L1418.738,73.508z M1417.985,72.317l0.018-0.043l-0.037-0.033l-0.005-0.048l0.001-0.065l-0.016-0.082l0.081,0.039l0.088,0.076
	l0.074,0.091l0.033,0.084l-0.068,0.022l-0.059,0.009l-0.111-0.007l-0.002-0.026L1417.985,72.317z M1413.723,82.193h0.024
	l-0.056,0.032l0.001-0.029l0.013-0.006L1413.723,82.193z M1414.62,86.469l0.049,0.021l-0.079,0.056l-0.107,0.025l-0.083-0.021
	l-0.005-0.08l0.055-0.032l0.086,0.006L1414.62,86.469z M1411.814,84.476l0.015,0.025l-0.062-0.018l-0.016-0.015l0.006-0.041
	l0.034,0.003l0.013,0.019L1411.814,84.476z M1414.793,157.412l0.025-0.08l-0.063-0.104l0.067,0.01l0.095,0.042l0.088,0.054
	l0.042,0.049l-0.021,0.083l-0.116,0.071l0.029,0.063l0.059,0.037l0.515,0.177l0.081,0.045l-0.136,0.057l-0.199-0.002l-0.182-0.044
	l-0.083-0.074l-0.043-0.028l-0.193,0.001l-0.065-0.011l-0.054-0.07l0.037-0.043l0.149-0.053l-0.057,0.004l-0.058-0.003l-0.052-0.01
	l-0.039-0.02l-0.04-0.039l-0.041-0.054l-0.004-0.048l0.074-0.012l0.102,0.035L1414.793,157.412z M1412.525,144.77l0.023,0.047
	l-0.038,0.017l-0.043-0.031l-0.01-0.053l0.021-0.014L1412.525,144.77z"/></svg>