<?xml version="1.0" encoding="utf-8"?>
<!-- Generator: Adobe Illustrator 15.0.0, SVG Export Plug-In . SVG Version: 6.00 Build 0)  -->
<!DOCTYPE svg PUBLIC "-//W3C//DTD SVG 1.1//EN" "http://www.w3.org/Graphics/SVG/1.1/DTD/svg11.dtd">
<svg version="1.1" id="Ebene_1" xmlns="http://www.w3.org/2000/svg" xmlns:xlink="http://www.w3.org/1999/xlink" x="0px" y="0px"
	 width="1920px" height="1080px" viewBox="0 0 1920 1080" enable-background="new 0 0 1920 1080" xml:space="preserve">

<path fill="#F4E0B6" stroke="#FFFFFF" d="M1297.741,849.76l0.197,0.136l0.038,0.006l0.117-0.036h0.003l0.063-0.009l0.068,0.005
	h0.001l0.069,0.017l0.07,0.029l0.264,0.169l0.287,0.094l0.047-0.029l0.092-0.02l0.092-0.004l0.052,0.022l0.041,0.075l0.045,0.04
	l0.061,0.007l0.088-0.02l0.146-0.009l0.433,0.149l0.131-0.023l0.137-0.068l0.126-0.012l0.134,0.218l0.062,0.026l0.074,0.011
	l0.074,0.028l0.061,0.054l0.108,0.117l0.161,0.08l0.078,0.065l0.016,0.022l0.027,0.062l0.019,0.027l0.026,0.015l0.069,0.021
	l0.022,0.019l0.017,0.063l-0.016,0.123l0.026,0.064l0.031,0.057l0.006,0.05l-0.01,0.05l-0.023,0.05l-0.068,0.086l-0.083,0.085
	l-0.073,0.093l-0.032,0.11l0.017,0.094l0.043,0.086l0.009,0.015l0.07,0.082l0.081,0.034l-0.035,0.066l0.025,0.064l0.035,0.063
	l-0.014,0.07l-0.216,0.217l-0.057,0.131l-0.004,0.126l0.016,0.133l-0.002,0.148l0.005,0.012l0.041,0.088l0.034,0.113l0.046,0.096
	l0.086,0.042l0.06,0.013l0.023,0.022l0.017,0.035l0.036,0.05l0.075,0.057l0.027,0.033l-0.004,0.045l-0.028,0.039l-0.075,0.074
	l-0.03,0.039l-0.176,0.304l-0.089,0.153l-0.253,0.465l-0.167,0.203l-0.196,0.167l-0.237,0.274l-0.114,0.059l-0.194,0.024
	l-0.06,0.023l-0.046,0.042l-0.099,0.164l-0.066,0.074l-0.172,0.063l-0.074,0.057l-0.035,0.094l0.001,0.068l0.001,0.139l-0.023,0.08
	l-0.019,0.04l-0.009,0.083l-0.011,0.035l-0.024,0.032l-0.09,0.067l-0.048,0.058l-0.047,0.079l-0.02,0.087l0.031,0.074l0.064,0.034
	l0.061-0.005l0.057,0.015l0.057,0.082l0.021,0.097l-0.016,0.076l-0.161,0.375l-0.001,0.061l0.022,0.026l0.075,0.046l0.03,0.032
	l0.014,0.034l0.04,0.209l0.001,0.03l-0.007,0.049l-0.015,0.037l-0.02,0.03l-0.018,0.035l-0.002,0.048l0.022,0.088l0.036,0.062
	l0.041,0.057l0.04,0.075l-0.099,0.009l-0.407,0.176l-0.081,0.016l-0.084,0.003l-0.044-0.009l-0.041-0.012l-0.04-0.008l-0.045,0.008
	l-0.027,0.021l-0.044,0.065l-0.031,0.024l-0.148,0.056l-0.134,0.027l-0.134-0.011l-0.288-0.106l-0.285-0.046l-0.038-0.02
	l-0.023-0.032l-0.021-0.033l-0.03-0.028l-0.141-0.07l-0.134-0.038l-0.031-0.031l-0.035-0.037l-0.15,0.01l-0.075-0.014l-0.068-0.039
	l-0.075-0.081l-0.037-0.012l-0.055,0.026l-0.053,0.069l-0.021,0.017l-0.037,0.013l-0.076,0.018h-0.002l-0.038,0.016l-0.027-0.063
	l-0.187-0.166l-0.065-0.107l-0.027-0.22l0.021-0.079l-0.018-0.039l-0.046-0.008l-0.058,0.014l-0.074,0.039l-0.035,0.034
	l-0.037,0.004l-0.075-0.042l-0.052-0.042l-0.146-0.157l-0.089-0.052l-0.232-0.048l-0.104-0.039l-0.212-0.169l-0.635-0.508l0,0l0,0
	l-0.06-0.042l-0.178-0.094l-0.066-0.016h-0.057l-0.069-0.011h-0.033l-0.012-0.116l-0.033-0.063l0.005-0.05l0.036-0.019l0.056,0.028
	l0.007-0.042l-0.009-0.076l0.009-0.026l0.032-0.019l0.021,0.015l0.021,0.018l0.033-0.003l0.01-0.018l0.045-0.175l0.01-0.022
	l0.073-0.089l0.093-0.065l0.025-0.031l0.042-0.065l0.083-0.07l0.054-0.07l0.073-0.123l0.006-0.026l0.004-0.012l0.002-0.046
	l-0.005-0.049l-0.017-0.049l0.01-0.022l0.08-0.039l0.009-0.027l-0.024-0.076l0.004-0.082l0.055-0.229l0.014-0.029V854.9
	l-0.021-0.052l-0.026-0.025l-0.032-0.013l-0.025-0.015l-0.007-0.031l0.017-0.042l0.025-0.026l0.021-0.035l0.009-0.062l-0.01-0.039
	l-0.043-0.093l-0.007-0.038l0.035-0.065l0.112-0.119l0.021-0.025l0.02-0.046l-0.03-0.042l-0.07-0.077l-0.019-0.039l0.005-0.047
	l0.022-0.039l0.026-0.03l0.017-0.027l0.063-0.343l-0.002-0.185l-0.016-0.02l-0.051-0.064l0.008-0.04l0.038,0.015l0.013-0.016
	l0.022-0.032l0.02-0.017l-0.05-0.022l-0.066-0.021l-0.034-0.026l0.046-0.043l0.03-0.042l0.018-0.067l0.014-0.131l0.01-0.011
	l0.019-0.004l0.015-0.006l-0.003-0.02l-0.016-0.028l-0.003-0.014l0.001-0.016l-0.003-0.026l-0.014-0.032l-0.028-0.054l0.01-0.046
	l0.043-0.048l0.02-0.049l-0.06-0.052l0.397-0.184l0.067-0.09l-0.001-0.074l-0.011-0.072l-0.002-0.066l0.034-0.056l0.068-0.025
	l0.06,0.016l0.053,0.023l0.049-0.001l0.092-0.05l0.024-0.026l-0.007-0.023l-0.018-0.031l-0.002-0.037l0.034-0.241l0.063-0.244
	v-0.026l0.019-0.19l0.014-0.08l0.009-0.065l0.037-0.006l0.172-0.117l0.039-0.027l0.085-0.007l0.082-0.033l0.073-0.054l0.054-0.063
	l0.033-0.094l0.007-0.209l0.029-0.103l0.054-0.065l0.455-0.287l0.058-0.052l0.123-0.237l0.047-0.033l0.09,0.013l0.074,0.032
	l0.064,0.047l0.061,0.064l0.109,0.147l0.064,0.035l0.152-0.076L1297.741,849.76z"/></svg>