<?xml version="1.0" encoding="utf-8"?>
<!-- Generator: Adobe Illustrator 15.0.0, SVG Export Plug-In . SVG Version: 6.00 Build 0)  -->
<!DOCTYPE svg PUBLIC "-//W3C//DTD SVG 1.1//EN" "http://www.w3.org/Graphics/SVG/1.1/DTD/svg11.dtd">
<svg version="1.1" id="Ebene_1" xmlns="http://www.w3.org/2000/svg" xmlns:xlink="http://www.w3.org/1999/xlink" x="0px" y="0px"
	 width="1920px" height="1080px" viewBox="0 0 1920 1080" enable-background="new 0 0 1920 1080" xml:space="preserve">

<path fill="#F4E0B6" stroke="#FFFFFF" d="M1307.077,831.497l0.016,0.135v0.03l-0.016,0.054l-0.008,0.009l-0.019-0.012l-0.053-0.003
	l-0.022-0.013l-0.015-0.026l-0.021-0.011l-0.044,0.033l0.009,0.016l0.02,0.106l-0.098-0.1l0.03-0.149l0.088-0.148l0.08-0.099
	l0.02,0.048L1307.077,831.497z M1308.201,809.435l-0.076,0.045l-0.056-0.047l-0.039-0.082l-0.103-0.345l-0.112-0.588l0.008-0.104
	l0.036-0.014l0.05,0.055l0.05,0.1l0.114,0.32L1308.201,809.435z M1316.03,776.97l-0.091,0.083l-0.106,0.011l-0.134-0.042
	l-0.125-0.13l-0.056-0.188l0.014-0.105l0.096-0.12l0.184-0.146l0.149-0.053l0.054,0.103l0.018,0.104l-0.063,0.177l0.019,0.153
	l0.039,0.077L1316.03,776.97z M1307.324,746.917l0.093-0.021l0.075-0.177l0.095,0.02l0.063,0.096l-0.014,0.108l-0.041,0.102
	l-0.012,0.074l0.064,0.064l0.094-0.007l0.101-0.028l0.084,0.004l0.062,0.062l0.076,0.171l0.064,0.064l0.079,0.009l0.185-0.063
	l0.083,0.003l0.068,0.067l-0.057,0.055l-0.178,0.068l-0.126,0.118l-0.248,0.525l0.099,0.161l0.023-0.045l0.014-0.044l0.004-0.045
	l-0.003-0.052l0.117,0.039l0.379,0.021l0.121,0.062l-0.047,0.14l-0.194,0.254l-0.049,0.123l-0.04,0.177v0.169l0.119,0.165
	l0.03,0.195l0.055,0.03l0.045-0.039l0.011-0.155l0.03-0.055l0.134-0.001l0.054,0.146v0.191l-0.026,0.141l-0.077,0.24l-0.005,0.069
	l0.022,0.067l0.081,0.108l0.022,0.05l-0.021,0.114l-0.201,0.393l-0.008,0.081l0.002,0.209l-0.017,0.068l-0.048,0.052l-0.105,0.054
	l-0.048,0.035l0.074,0.053l0.075,0.078l0.048,0.019l-0.006-0.119l0.083,0.01l0.099,0.039l0.092,0.052l0.068,0.052l0.114-0.099
	l0.086,0.146l0.037,0.183l0.043,0.211l0.014,0.18l-0.009,0.087l-0.026,0.094l0.011,0.09l0.082,0.052l0.095,0.037l0.057,0.044
	l-0.004,0.07l-0.051,0.176l0.008,0.048l0.075,0.049l0.037,0.052l0.073,0.157l0.06,0.088l0.114,0.047l0.025,0.02l0.018,0.029
	l0.101,0.239l0.059,0.074l0.085,0.051l0.029-0.044l0.021-0.017l0.073-0.001l-0.068,0.194l0.025,0.161l0.087,0.133l0.116,0.119
	l0.214,0.145l0.018,0.046l-0.036,0.112l-0.009,0.065l0.05,0.166l0.04,0.268l0.019,0.072l0.052,0.082l0.133,0.096l0.056,0.067
	l0.022,0.089l0.005,0.117l-0.017,0.113l-0.046,0.066l-0.071,0.011l-0.073,0.002l-0.038,0.035l0.029,0.108l0.097-0.081l0.127,0.034
	l0.119,0.097l0.076,0.11l0.014,0.074l-0.005,0.074l0.005,0.073l0.044,0.072l0.054,0.021l0.064-0.019l0.121-0.081l0.006,0.058
	l-0.009,0.055l-0.025,0.047l-0.089,0.079l-0.012,0.059l0.006,0.123l-0.047,0.237l0.022,0.088l0.092,0.048h0.054l0.057-0.018
	l0.188-0.081l0.032,0.013l0.124,0.342l0.045,0.063l0.05,0.011l0.056-0.01l0.154,0.01l0.04,0.029l-0.008,0.076l-0.041,0.029
	l-0.11-0.058l-0.048,0.023l-0.01,0.063l0.026,0.062l0.125,0.197l0.035-0.016l0.038-0.053l0.052-0.02l0.051,0.034l0.086,0.111
	l0.031,0.016l0.06-0.011l0.039,0.031l0.021,0.055l0.005,0.064l-0.04,0.113l-0.086,0.068l-0.104,0.019l-0.099-0.039l0.012,0.042
	l0.026,0.045l0.027,0.032l0.016,0.001l-0.047,0.076l-0.127,0.049l-0.008,0.048l0.043,0.027l0.068,0.013l0.061,0.038l0.02,0.105
	l0.002,0.155l-0.012,0.053l-0.023,0.06l-0.01,0.011l-0.018-0.016l-0.038-0.011l-0.013-0.044l-0.026-0.026l-0.06-0.001l-0.041,0.014
	l-0.022,0.022l-0.097,0.135l-0.063,0.113l-0.042,0.117l-0.002,0.091l0.043,0.089l0.043,0.043l0.305,0.112l0.075-0.009l0.058-0.059
	l0.025-0.114l-0.05-0.06l-0.073-0.045l-0.048-0.069l0.021-0.051l0.066-0.036l0.08-0.016l0.063,0.01l0.07-0.013l0.064-0.059
	l0.063-0.029l0.059,0.072l0.036,0.173l0.004,0.337l0.043,0.171l0.043,0.083l0.104,0.146l0.041,0.081l0.111,0.386l0.013,0.107
	l-0.034,0.084l-0.042,0.079l-0.011,0.087l0.033,0.052l0.048-0.052l0.07-0.154l0.153,0.4l0.018-0.019l0.043-0.036l0.017-0.02
	l0.026,0.12l-0.071,0.222l-0.003,0.097l0.071,0.214l0.014,0.115l-0.023,0.097v0.001l0.103,0.031l0.098,0.059l0.096,0.044
	l0.102-0.012l0.018,0.028l-0.028,0.104l-0.087,0.215l-0.012,0.119l0.057,0.104l0.225,0.221l0.056,0.079l0.287,0.545l0.105,0.104
	l0.023,0.05l0.029,0.049l0.094,0.04l0.044,0.026l0.042,0.035l0.024,0.033l0.056,0.116l0.125,0.19l0.046,0.097l0.029,0.141
	l-0.028,0.082l-0.141,0.153l0.062,0.008l0.06,0.027l0.044,0.046l0.017,0.071l-0.021,0.076l-0.048,0.049l-0.116,0.081l-0.094,0.145
	l0.061,0.065l0.101,0.07l0.026,0.148l0.051-0.049l0.014-0.116l0.037-0.022l0.045,0.026l0.005,0.056l0.013,0.054l0.066,0.017
	l-0.044,0.084l-0.021,0.026l0.057,0.007l0.045-0.021l0.035-0.047l0.03-0.059l-0.055-0.141l0.072-0.143l0.176-0.2l0.066,0.014
	l0.079,0.044l0.052,0.061l0.046,0.152l0.044,0.043l0.089,0.012l-0.022,0.092l0.016,0.102l0.034,0.094l0.04,0.074l-0.05,0.049
	l-0.068,0.139l-0.038,0.044l-0.066,0.01l-0.118-0.055l-0.072,0.014l0.287,0.486l-0.087,0.008l-0.027,0.051l0.024,0.052l0.071,0.019
	l-0.051,0.142l0.018,0.021l0.03,0.018l0.026,0.005l0.01-0.007l0.052,0.238l0.032,0.074l0.056-0.137l0.021-0.144l-0.037-0.462
	l0.021-0.052l0.207-0.264l0.049-0.038l0.139-0.012l0.159,0.057l0.115,0.116l0.01,0.164l-0.041,0.069l-0.118,0.096l-0.056,0.06
	l-0.036,0.081l0.021,0.041l0.055,0.001l0.064-0.035l0.031-0.055l0.021-0.067l0.032-0.045l0.068,0.012l0.048,0.056l0.024,0.086
	l0.015,0.319l0.027,0.048l0.067,0.064l0.021,0.01l0.031,0.007l0.037,0.014l0.037,0.029l0.018,0.029l0.026,0.066l0.021,0.027
	l0.039,0.073l0.047,0.31l0.002,0.031l0.01,0.021l0.041,0.024l0.026,0.019l0.01,0.027l-0.001,0.031l-0.012,0.029l-0.17,0.193
	l-0.018,0.052l-0.006,0.051l-0.089,0.247l-0.032,0.089l-0.055,0.074l-0.069,0.06l-0.073,0.044l-0.046-0.011l-0.103-0.124l-0.07-0.03
	l0.05,0.082l0.041,0.089l0.054,0.069l0.099,0.03l0.072-0.021l0.204-0.098l0.045-0.037l0.073,0.057l0.086,0.084l0.072,0.091
	l0.026,0.074l-0.086-0.026l-0.046,0.016l-0.034,0.039l-0.051,0.037l-0.264,0.047l-0.005,0.104l0.106,0.112l0.25,0.158l-0.113,0.116
	l-0.127,0.083l-0.098,0.106l-0.031,0.185l-0.071,0.005l-0.095,0.02l-0.088,0.034l-0.054,0.047l-0.003,0.06l0.031,0.191l-0.004,0.085
	l0.162-0.048l0.087-0.007l0.08,0.016l-0.018-0.161l0.063-0.098l0.117-0.038l0.132,0.018l0.099,0.077l0.09,0.138l0.033,0.142
	l-0.07,0.094l0.083,0.046l0.012,0.064l-0.088,0.267l-0.007,0.042l0.036,0.069l0.002,0.047l-0.007,0.052l-0.013,0.043l-0.05,0.121
	l-0.01,0.042l0.006,0.039l0.036,0.072l-0.002,0.044l-0.012,0.08l0.013,0.078l0.034,0.043l0.049-0.029v0.083l-0.015,0.077
	l-0.027,0.075l-0.048,0.076l-0.046,0.055l-0.037,0.022l-0.119,0.02l0.034,0.132l-0.032,0.114l-0.12,0.215l-0.03,0.114l-0.082,0.599
	l-0.476,1.352l-0.135,0.197l-0.011,0.054l0.014,0.064l0.003,0.062l-0.037,0.046l-0.037,0.025l-0.048,0.045l-0.035,0.053
	l-0.001,0.052l0.068,0.029l0.068-0.098l0.088-0.232l0.065,0.097l-0.002,0.098l-0.02,0.1l0.009,0.101l0.026,0.126l-0.021,0.097
	l-0.083,0.199l-0.035,0.445l-0.044,0.229l-0.116,0.146l-0.268,0.133l-0.067,0.063l-0.2,0.274l-0.08,0.176l-0.002,0.025l0.022,0.038
	l0.035,0.003l0.05-0.016l0.024,0.054l0.037,0.117l0.026,0.054l0.067,0.082l0.085,0.058l0.096,0.031l0.095,0.007l-0.139,0.22
	l-0.06,0.063l-0.018-0.03l-0.045-0.052l-0.018-0.031l-0.031,0.041l-0.037,0.03l-0.042,0.024l-0.046,0.018l0.031,0.012l0.059,0.032
	l0.03,0.011l-0.095,0.097l-0.031,0.051l-0.023,0.077l0.009,0.004l0.017,0.028l0.011,0.039l-0.005,0.045l-0.039,0.113l-0.058,0.105
	l-0.13,0.185l-0.082,0.17l-0.144,0.139l-0.029,0.05l-0.06,0.165l-0.57,0.76l-0.459,0.734l-0.044,0.098l-0.04,0.222l-0.043,0.068
	l-0.091-0.005l0.007,0.019l0.029,0.076l-0.021,0.085l-0.056,0.074l-0.072,0.063l0.084-0.007l0.055-0.051l0.036-0.017l0.036,0.089
	l0.007,0.095l-0.017,0.098l-0.035,0.087l-0.053,0.067l-0.141,0.09l-0.148,0.059l-0.131,0.081l-0.169,0.287l-0.132,0.128l-0.62,0.376
	l-0.073,0.006l-0.142-0.063l-0.076,0.011l0.143,0.087l-0.035,0.135l-0.126,0.136l-0.131,0.093l-0.016-0.093l-0.107,0.301
	l-0.064,0.031l-0.059-0.013l-0.046-0.02l-0.03,0.006l-0.022,0.043l-0.001,0.043l0.018,0.038l0.034,0.029l-0.954,1.054l-0.037,0.068
	l-0.045,0.16l-0.04,0.071l-0.071,0.03l-0.117-0.068l-0.131-0.304l-0.097-0.061l0.066,0.08l-0.04,0.043l-0.054,0.021l-0.058,0.006
	l-0.057-0.006l0.096,0.065l0.139,0.06l0.088,0.078l-0.056,0.117l0.104,0.021l-0.062,0.126l-0.219,0.237l-0.482,0.384l-0.172,0.238
	l-0.365,0.641l-0.038,0.027l-0.014-0.064l-0.083,0.096l-0.091,0.212l-0.113,0.197l-0.149,0.046l-0.049,0.17l-0.384,0.584
	l-0.058,0.169l-0.042,0.076l-0.052,0.045l-0.058-0.019l-0.024,0.138l-0.025,0.056l-0.051,0.042l-0.106,0.056l-0.03,0.047l0.01,0.068
	l-0.015,0.094l-0.072,0.125l-0.104,0.097l-0.104,0.017l0.052,0.175l-0.048,0.21l-0.17,0.402l-0.072,0.665l-0.068,0.179l-0.016-0.032
	l-0.063-0.076l-0.016,0.045l-0.06-0.041l-0.054-0.024l-0.055-0.015l-0.066-0.004l-0.076-0.019l-0.037-0.047l-0.026-0.063
	l-0.044-0.063l-0.123-0.061l-0.134,0.015l-0.095,0.079l-0.004,0.142l0.092-0.155l0.117,0.029l0.12,0.122l0.092,0.129l0.09,0.156
	l0.054,0.043l0.148-0.031l0.06,0.009l0.062,0.018l0.071,0.01l-0.017,0.309l-0.023,0.103l-0.056,0.165l-0.007,0.081l0.021,0.087
	L1307,791.06l-0.082,0.025l-0.104,0.013l-0.079,0.03l-0.043,0.073l-0.014,0.083l-0.004,0.169l0.063-0.068l0.078-0.148l0.043-0.058
	l-0.008,0.116l-0.122,0.499l-0.101,0.224l-0.176,0.65l-0.106,0.274l-0.118,0.095l0.049,0.193l0.001,0.076l-0.034-0.007h-0.101
	l0.052,0.081l0.027,0.022l-0.054,0.021l-0.072,0.038l-0.048,0.042l0.018,0.033l0.047,0.043l0.002,0.063l-0.031,0.126l-0.003,0.429
	l-0.02,0.131l-0.018-0.063l-0.024-0.035l-0.027-0.001l-0.022,0.035l-0.002,0.042l0.029,0.101l0.006,0.112l0.038-0.003l0.028-0.038
	l-0.021-0.03l0.018,0.003l0.033-0.002l0.016,0.002l0.01,0.011l0.021,0.044l0.095,0.075l-0.016,0.061l-0.055,0.059l-0.039,0.055
	l-0.063,0.067l-0.103,0.013l-0.11-0.006l-0.084,0.01l-0.134-0.051l-0.257-0.217l0.054,0.139l0.219,0.264l0.091,0.146l0.007,0.171
	l0.039-0.005l0.035,0.008l0.028,0.022l0.024,0.039l-0.007,0.027l-0.039,0.011h-0.065l-0.12,0.086l-0.1,0.095l-0.133,0.084
	l-0.086-0.032l-0.13-0.243l-0.006-0.04l-0.002-0.047l-0.016-0.034l-0.042,0.003l-0.035,0.025l-0.016,0.026l-0.059,0.2l-0.058,0.391
	l-0.054,0.108l-0.122,0.082l-0.017-0.102l-0.035-0.041l-0.04,0.017l-0.028,0.072l0.006,0.074l0.019,0.087l0.008,0.086l-0.023,0.076
	l-0.075,0.063l-0.063-0.015l-0.059-0.034l-0.061,0.002l-0.034,0.027l-0.024,0.04l-0.009,0.046l0.009,0.046l0.032,0.038l0.027-0.022
	l0.025-0.039l0.027-0.01l0.007,0.08l-0.386,0.693l-0.016,0.06l-0.019,0.125l-0.023,0.059l-0.056,0.012l-0.028,0.085l-0.012,0.204
	l0.021-0.029l0.02-0.017l0.052-0.035l0.015,0.029l-0.081,0.118l-0.064,0.14l-0.102,0.3l0.081-0.039l-0.007,0.076l-0.079,0.3
	l-0.02,0.036l-0.042,0.03l-0.027,0.031l0.001,0.042l0.009,0.048l-0.005,0.052l-0.074,0.384l-0.199,0.645l-0.284,0.616l-0.188,0.597
	l-0.107,0.129l-0.085,0.075l-0.107,0.338l-0.074,0.154l-0.056-0.028l-0.03,0.055l-0.046,0.185l-0.145,0.252l-0.146,0.012
	l-0.046-0.016l-0.058-0.051l-0.077-0.113l-0.044-0.052l-0.04-0.011l-0.043-0.006l-0.233-0.073l-0.219,0.021l-0.058-0.011
	l-0.263-0.165l-0.049-0.022h-0.072l-0.057-0.053l-0.049-0.071l-0.051-0.051l-0.051-0.009l-0.074,0.003l-0.079,0.013l-0.061,0.021
	l-0.047,0.056l0.013,0.142l-0.034,0.05l0.015,0.031l0.058-0.033l0.043-0.106l0.058-0.05l0.072-0.024l0.068,0.001l0.06,0.031
	l0.088,0.12l0.063,0.051l0.349,0.213l0.031,0.003l0.046-0.003l0.075-0.02l0.041-0.005l0.04,0.022l0.065,0.051l0.141,0.064
	l0.032,0.03l0.034,0.124l-0.007,0.148l-0.051,0.12l-0.105,0.036l0.042,0.07l0.037-0.019l0.032-0.053l0.032-0.038l0.078-0.013
	l0.029,0.028l0.026,0.139l0.033,0.068l0.089,0.126l0.027,0.054l0.013,0.038l0.003,0.027l-0.003,0.025l-0.009,0.035v0.051
	l0.023,0.031l0.031,0.028l0.024,0.029l0.037,0.097l0.024,0.041l0.026,0.025l0.062,0.046l0.042,0.059l0.048,0.054l0.02,0.037
	l0.006,0.041l-0.012,0.056l0.006,0.032l-0.011,0.069l-0.084,0.014l-0.155-0.016l-0.057,0.05l-0.042,0.054l-0.044,0.019l-0.064-0.051
	l0.02,0.031l0.011,0.023l0.01,0.034l0.092,0.042l0.354,0.022l0.012,0.026l-0.017,0.052l-0.005,0.065l0.002,0.073l0.023,0.164
	l0.004,0.055l-0.037,0.13l0.007,0.073l0.122,0.021l0.001,0.057l-0.038,0.075l-0.042,0.044l-0.056,0.017l-0.083-0.012l0.042,0.057
	l0.049,0.053l0.053,0.042l0.052,0.027l0.066,0.012l0.089-0.026l0.05,0.002l0.024,0.023l0.044,0.055l0.037,0.068l0.007,0.067
	l-0.09,0.212l0.005,0.062l0.102-0.142l0.071-0.061l0.07-0.007l0.059,0.106l0.048,0.028l0.036-0.079l0.072,0.074l0.069,0.015
	l0.079-0.003l0.098,0.023l0.063,0.034l0.055,0.039l0.049,0.059l0.046,0.087l0.038,0.029l0.072-0.139l0.064,0.006l0.027,0.07
	l-0.032,0.065l-0.023,0.067l0.053,0.071l0.006-0.048l0.02-0.039l0.032-0.036l0.04-0.032l0.188-0.076l0.036,0.025l0.175,0.048
	l0.035,0.035l0.03,0.059l0.045,0.118l0.029-0.048l0.035-0.015l0.035,0.019l0.031,0.049l0.002,0.037l-0.029,0.084l0.008,0.052
	l0.059,0.063l0.168,0.057l0.072,0.039l-0.003,0.063l0.005,0.067l0.017,0.066l0.031,0.064l0.066-0.146l0.048-0.039l0.097,0.009
	l0.037,0.011l0.013,0.008l0.01,0.014l0.035,0.032l0.009,0.03h0.001l-0.006,0.037l0.009,0.022l0.051-0.016l0.018,0.107l-0.003,0.055
	l-0.013,0.054l-0.055-0.007l-0.044,0.017l-0.023,0.039l0.01,0.059l0.025,0.025l0.03-0.006l0.026-0.014l0.016-0.002l0.016,0.024
	l0.011,0.038l0.054,0.119l0.002,0.076l-0.032,0.063l-0.063,0.045l-0.033-0.004l-0.043-0.013l-0.035,0.011l-0.003,0.063l0.022,0.064
	l0.034,0.018l0.043-0.003l0.076,0.013l0.017-0.004l0.016-0.003l0.023,0.015l0.013,0.02l0.003,0.029l-0.003,0.021l-0.009,0.002
	l0.028,0.046l0.016,0.038l0.022,0.026l0.052,0.01l-0.002,0.062l0.036,0.01l0.052-0.006l0.043,0.012l0.037,0.056l-0.017,0.035
	l-0.041,0.032l-0.033,0.046l-0.018,0.072l0.022,0.01l0.047-0.01l0.054,0.018l0.033,0.045l0.071,0.186l0.047-0.151l-0.111-0.563
	l0.037,0.073l0.098,0.288l0.019,0.142l0.199,0.357l0.267,0.268l0.417,0.302l0.088,0.045l0.064,0.006l0.248,0.232l0.09,0.177
	l0.146,0.38l0.116,0.165l0.23,0.206l0.046,0.062l0.139,0.261l0.129,0.184l0.191,0.337l0.371,1.144l0.079,0.181l0.069,0.092
	l0.074,0.024l0.081-0.006l0.079,0.006l0.136,0.104l0.082,0.036l0.005-0.056l-0.093-0.181v-0.076l0.063-0.097l-0.157-0.111
	l-0.143-0.181l-0.093-0.208l-0.005-0.188l-0.032-0.031l-0.013-0.032l0.003-0.035l0.016-0.032l0.1,0.103l0.048,0.013l0.02-0.093
	l-0.173-0.132l-0.046-0.007l-0.004-0.062l0.028-0.162l-0.008-0.025l-0.017-0.028l-0.012-0.025l0.011-0.018l0.014-0.013l0.018-0.022
	l0.013-0.022l0.003-0.016l-0.005-0.058l0.031-0.036l0.046-0.019l0.038,0.003l0.033,0.034l0.021,0.05l0.031,0.106l0.394,0.679
	l-0.002-0.087l-0.018-0.082l-0.091-0.243l-0.011-0.118l-0.021-0.077l0.026-0.012l0.181,0.549l0.037,0.085l0.15,0.267l0.029,0.095
	l0.104,0.747l0.222,0.535l0.525,0.861l0.138,0.136l0.014-0.071v-0.029l-0.014-0.041l0.079-0.001l0.063-0.028l0.02-0.038
	l-0.046-0.026l-0.012-0.025l0.093-0.001l0.034,0.132l-0.008,0.356l-0.028,0.166l0.02,0.446l-0.014,0.157l0.005,0.08l0.026,0.089
	l0.049,0.085l0.104,0.137l0.044,0.083l0.052,0.19l0.087,0.791l0.182,0.576l0.16,0.359l0.029,0.09l0.016,0.104l-0.016,0.052
	l-0.076-0.065l-0.032-0.083l-0.017-0.081l-0.039-0.049l-0.102,0.023l-0.056,0.045l0.026,0.028l0.055,0.011l0.025-0.003l0.066,0.087
	l0.023,0.044l0.026,0.084l0.04,0.181l0.029,0.091l0.068,0.135l0.016,0.055l0.007,0.049l-0.004,0.071l0.01,0.047l0.014,0.024
	l0.053,0.071l0.026,0.05l0.014,0.052v0.097l0.012,0.049l0.031-0.02l0.079-0.297l-0.125-0.116l-0.04-0.073l0.01-0.083l0.051-0.037
	l0.068,0.008l0.138,0.044l0.086,0.001l0.045-0.021l0.007-0.049l-0.102-0.309l-0.037-0.038l-0.014-0.03l0.171-0.035l0.06,0.026
	l0.1,0.178l0.025,0.028l0.029,0.001l0.018,0.018l0.106,0.827l0.028,0.09l0.031,0.051l0.074,0.068l0.027,0.044l0.005,0.044
	l-0.015,0.041l-0.016,0.038l-0.004,0.026l0.018,0.093l-0.009,0.098l-0.187,1.148l-0.209,0.674l0.008,0.046l0.022,0.055l0.01,0.045
	l-0.003,0.047l-0.148,0.411l-0.819,1.119l-0.466,0.587l-0.54,0.456l-0.007,0.01l-0.384,0.442l-0.082,0.075l-0.327,0.374
	l-0.188,0.134l-0.67,0.708l-0.614,0.65l-0.391,0.543l-0.364,0.374l-0.392,0.566l-0.128,0.111l-0.013-0.027l0.046-0.057l0.041-0.071
	l0.027-0.074l0.007-0.067l-0.042,0.041l-0.111,0.148l-0.014,0.054l-0.028,0.054l-0.085,0.055l-0.054,0.061l0.065,0.071l0.014-0.023
	l0.044-0.046l-0.011,0.116l-0.057,0.097l-0.146,0.175l-0.052,0.093l-0.616,1.137l-0.046,0.167l-0.058,0.368l-0.001,0.21l0.059,0.293
	l-0.009,0.112l0.122,0.188v0.046l-0.008-0.026l-0.021-0.023l-0.031-0.031l-0.021,0.012l-0.011,0.046l-0.021,0.039l-0.017,0.041
	l0.007,0.049l0.024,0.059l0.018,0.061l0.008,0.058l0.001,0.055l-0.09,0.25l-0.005,0.06l-0.008,0.034l-0.056,0.128l-0.022,0.036
	l-0.041,0.025l-0.036,0.004l-0.096-0.011l-0.07,0.011l-0.062,0.028l-0.049,0.049l-0.033,0.07l0.007,0.093l0.051,0.068l0.059,0.023
	l0.028-0.037l-0.012-0.018l-0.06-0.133l0.017-0.026l0.058-0.017l0.063-0.01h0.037l0.031,0.021l0.059,0.055l0.029,0.017l0.045,0.005
	l0.092-0.009l0.053,0.014l0.047,0.032l0.076,0.076l0.046,0.032l0.046,0.014l0.037,0.007l0.03,0.013l0.08,0.113l0.147,0.142
	l0.063,0.076l0.032-0.092l0.102-0.024l0.113,0.01l0.071,0.015l0.123,0.058l0.092,0.069l0.089,0.056l0.099,0.026h0.05l0.03-0.035
	l0.03-0.045l0.051-0.03l-0.094-0.112l-0.056-0.104l-0.033-0.117l-0.021-0.149l-0.056-0.203l0.007-0.064l0.027-0.055l0.111-0.132
	l0.053,0.106l0.217,0.695l0.494,1.145l0.097,0.33l0.011,0.108l0.016,0.052l0.099,0.153l0.131,0.331l0.012,0.045l0.012,0.13
	l0.026,0.038l0.059,0.043l0.029,0.034l-0.541,0.29l-0.49,0.262l-0.451,0.242l-0.407,0.219l-0.215,0.067l-0.278,0.087l-0.104,0.047
	l-0.17,0.112l-0.114,0.029l-0.49-1.042l-0.196-0.311l-0.335-0.26l-0.081-0.099l-0.245-0.392l-0.04-0.127l-0.037-0.377l-0.039-0.115
	l-0.092-0.126l-0.115-0.129l-0.088-0.134l-0.016-0.15l-0.268,0.058l-0.129-0.004l-0.136-0.044l-0.366-0.392l-0.074-0.114
	l-0.033-0.121l-0.045-0.483l0.004-0.062l0.023-0.069l0.025-0.039l0.012-0.038l-0.011-0.06l-0.044-0.089l-0.156-0.235l-0.062-0.074
	l-0.078-0.064l-0.075-0.12l-0.061-0.135l-0.034-0.108l-0.035-0.229l-0.434-0.877l-0.317-0.644l-0.237-0.482l-0.336-0.681
	l-0.279-0.565l-0.107-0.294l-0.171-0.305l-0.244-0.267l-0.266-0.217l-0.43-0.356l-0.108-0.159l-0.339-0.634l-0.034-0.065
	l-0.053-0.055l-0.066-0.03l-0.322-0.058l-0.102-0.031l-0.093-0.06l-0.323-0.282l-0.391-0.438l-0.145-0.11l-0.542-0.209l-0.139-0.11
	l-0.105-0.157l-0.384-0.974l-0.083-0.111l-0.651-0.681l-0.391-0.409l-0.49-0.512l-0.491-0.511l-0.423-0.44v-0.092l0.188-0.369
	l0.152-0.301l0.081-0.32l0.084-0.325l0.083-0.325l0.085-0.325l0.083-0.326l0.084-0.325l0.084-0.326l0.084-0.326l0.085-0.326
	l0.086-0.326l0.084-0.327l0.085-0.327l0.086-0.328l0.087-0.326l0.086-0.328l0.086-0.327l0.087-0.328l0.08-0.303l0.057-0.227
	l0.193,0.023l-0.015-0.019l-0.014-0.015l-0.509-0.348l-0.003-0.02l0.004-0.029v-0.034l-0.013-0.027l-0.016-0.003l-0.016,0.008
	l-0.018,0.008l-0.058-0.032l-0.072-0.008l-0.038-0.024l0.103-0.541l0.067-0.353v-0.229l-0.054-0.174l-0.261-0.409l-0.271-0.423
	l-0.076-0.178l-0.047-0.2l0.042-0.224l0.152-0.105l0.189-0.07l0.148-0.112l0.043-0.158l0.003-0.316l0.004-0.306l0.093-0.445
	l0.063-0.307l0.005-0.07l-0.009-0.071l-0.034-0.145l-0.019-0.03l-0.052-0.045l-0.019-0.026l-0.012-0.045l0.005-0.128l-0.013-0.075
	l-0.069-0.222l0.016-0.056l0.056-0.044l0.052-0.052v-0.075l-0.039-0.141l0.028-0.075l0.208-0.097l-0.025-0.028l-0.07-0.087
	l-0.136-0.32l-0.044-0.29l-0.079-0.178l-0.02-0.112l-0.027-0.09l-0.061-0.026l-0.103,0.006l-0.109-0.013l-0.096-0.035l-0.066-0.059
	l-0.048-0.181l-0.046-0.085l-0.087-0.005l-0.059,0.062l-0.057,0.182l-0.073,0.07l-0.091,0.041l-0.076,0.02l-0.066-0.024
	l-0.059-0.088l-0.007-0.049l0.003-0.049l-0.003-0.05l-0.031-0.053l-0.03-0.036l-0.02-0.04l-0.119-0.322l-0.038-0.076l-0.071-0.08
	l-0.063,0.008l-0.065,0.045l-0.075,0.034l-0.064-0.029l-0.047-0.086l-0.059-0.187l-0.066-0.12l-0.012-0.046l0.063-0.247l0.01-0.123
	l-0.003-0.087l-0.024-0.084l-0.046-0.106l-0.141-0.588l-0.094-0.135l-0.053-0.025l-0.05-0.013l-0.047-0.017l-0.044-0.042
	l-0.033-0.046l-0.025-0.022l-0.031-0.009l-0.05,0.003l-0.071,0.026l-0.221,0.163l-0.054,0.023l-0.051,0.007l-0.047-0.019
	l-0.036-0.053l-0.02-0.058l-0.028-0.043l-0.075-0.081l-0.02-0.055l0.021-0.057l0.035-0.055l0.025-0.055l-0.064-0.008l-0.055-0.049
	l-0.138-0.219l-0.013-0.041l0.283-0.378l0.108-0.078l0.163-0.069l0.097-0.062l0.041-0.093l-0.004-0.113l-0.027-0.129l-0.06-0.146
	l-0.085-0.104l-0.232-0.184l-0.123-0.129l-0.057-0.082l-0.024-0.077l0.021-0.084l0.052-0.064l0.063-0.061l0.051-0.074l0.053-0.087
	l0.064-0.087l0.043-0.091l-0.016-0.101l-0.034-0.037l-0.08-0.037l-0.025-0.04l0.013-0.002l0.021-0.169l0.07-0.146l-0.006-0.059
	l-0.068-0.066l-0.11-0.048l-0.255-0.063l-0.103-0.061l-0.049-0.056l-0.009-0.039l0.007-0.045l0.002-0.073l-0.008-0.11l-0.014-0.034
	l-0.08-0.136l-0.349-0.377l-0.056-0.092l-0.02-0.097l-0.015-0.039l-0.076-0.037l-0.025-0.036l0.003-0.046l0.021-0.038l0.017-0.043
	l-0.012-0.066l-0.044-0.072l-0.104-0.097l-0.046-0.082l-0.029-0.091l-0.019-0.104l0.009-0.096l0.049-0.065l0.065-0.122l-0.06-0.168
	l-0.102-0.184l-0.063-0.175l-0.013-0.194l-0.023-0.093l-0.06-0.081l-0.09-0.049l-0.181,0.005l-0.096-0.022l-0.034-0.026
	l-0.111-0.126l-0.022-0.049l0.011-0.042l0.022-0.041l0.009-0.048l0.002-0.398l0.013-0.122l0.003-0.039l-0.008-0.082l-0.036-0.066
	l-0.045-0.025l-0.112-0.007l-0.049-0.013l-0.082-0.064l-0.061-0.089l-0.021-0.042l-0.082-0.161l-0.183-0.242l-0.22-0.2l-0.313-0.227
	l-0.424-0.307l-0.02-0.025l0.143-0.442l0.021-0.121v-0.177l-0.109-0.522l-0.033-0.14l-0.045,0.032l-0.052,0.063l-0.08,0.143
	l-0.055,0.053l-0.127,0.055l-0.27,0.069l-0.128,0.057l-0.055,0.044l-0.045,0.05l-0.021,0.043l-0.002,0.001l-0.028,0.003
	l-0.145-0.032l-0.122-0.154l-0.052-0.1l-0.049-0.053l-0.066-0.021l-0.569,0.044l-0.754,0.057l-0.49,0.04l-0.336,0.111l-0.766,0.434
	l-0.442,0.146l-0.079,0.001l-0.066-0.049l-0.101-0.157l-0.072-0.06l-0.068-0.018l-0.21-0.005l-0.109-0.029l-0.375-0.154
	l-0.155-0.039l-0.121,0.005l-0.678,0.303h-0.191l-0.082-0.014l-0.084,0.029l-0.085,0.045l-0.083,0.03l-0.013-0.01l-0.005-0.023
	l-0.01-0.021l-0.023-0.001l-0.016,0.01l-0.026,0.025l-0.017,0.004l-0.038-0.016l-0.033-0.033l-0.037-0.032l-0.053-0.009
	l-0.099-0.004l-0.079-0.033l-0.147-0.109l-0.094-0.046l-0.09-0.016l-0.089,0.01l-0.449,0.11l-0.183,0.08l-0.064,0.117l-0.002,0.08
	l-0.03,0.014l-0.044-0.008l-0.038,0.008l-0.041,0.063l-0.028,0.127l-0.025,0.067l-0.066,0.089l-0.07,0.025l-0.082-0.018
	l-0.101-0.037l-0.218-0.035l-0.193,0.055l-0.42,0.229l-0.637,0.351l-0.28,0.153l-0.438,0.24l-0.158-0.302l-0.273-0.519l-0.218-0.411
	l-0.185-0.351l0.043-0.055l0.003-0.017l-0.109-0.104l-0.038-0.023l-0.177-0.067l-0.04-0.058l-0.022-0.109l-0.006-0.192l-0.012-0.049
	l-0.033-0.035l-0.103-0.056l-0.037-0.043l-0.156-0.282l-0.062-0.081l-0.069-0.065l-0.081-0.057l-0.08-0.03l-0.066,0.008
	l-0.174-0.021l-0.205-0.157l-0.427-0.471l-0.116-0.179l-0.102-0.196l-0.094-0.118l-0.013-0.029l-0.001-0.003l0.056-0.055
	l0.322-0.232l0.213-0.317l0.267-0.399l0.337-0.396l0.269-0.318l0.44-0.518l0.346-0.312l0.492-0.445l0.068-0.043l0.357-0.332
	l0.445-0.412l0.36-0.333l0.274-0.322l0.268-0.413l0.196-0.306l0.471-0.513l0.434-0.474l0.332-0.361l0.229-0.315l0.13-0.133
	l0.291-0.236l0.306-0.341l0.347-0.384l0.501-0.553l0.558-0.615l0.571-0.631l0.419-0.46l0.291-0.32l0.243-0.266l0.286,0.019
	l0.129,0.029l0.105,0.106l0.086,0.236l0.057,0.073l0.188,0.13l0.054,0.024l0.077,0.011l0.044-0.003l0.042,0.015l0.023,0.017
	l0.112,0.089l0.121,0.072l0.419,0.347l0.124,0.069l0.074,0.02l0.211-0.006l0.077,0.023l0.052,0.04l0.047,0.046l0.062,0.041
	l0.066,0.015l0.135-0.001l0.064,0.016l0.062,0.039l0.138,0.143l0.058,0.061l0.063,0.042l0.069,0.021l0.082-0.013l0.026-0.052
	l-0.024-0.088l-0.073-0.157l-0.027-0.151l0.014-0.134l0.072-0.074l0.304,0.069l0.12-0.047l0.093-0.106l0.164-0.28l0.097-0.09
	l0.118-0.062l0.457-0.161l0.021-0.039l-0.005-0.141l0.007-0.062l0.103-0.129l0.292-0.164l0.33-0.366l0.028-0.021l0.069-0.025
	l0.03-0.023l0.02-0.039l0.018-0.042l0.021-0.038l0.033-0.025l0.145,0.007l0.059,0.037l0.094,0.057l0.27,0.23l0.151,0.077
	l0.317,0.118l0.133,0.112l0.074,0.15l0.068,0.3l0.11,0.137l0.134,0.11l0.105,0.112l0.088,0.132l0.154,0.336l0.044,0.072l0.066,0.078
	l0.069,0.055l0.076,0.045l0.061,0.055l0.026,0.079l0.001,0.083l-0.025,0.168l0.005,0.077l0.039,0.059l0.052,0.044l0.033,0.046
	l-0.016,0.068l0.026,0.083l0.201,0.325l0.188,0.301l0.038,0.126l-0.021,0.157l-0.035,0.072l-0.038,0.058l-0.032,0.063l-0.016,0.09
	l0.006,0.065l0.032,0.125l-0.002,0.069l-0.055,0.097l-0.017,0.181l-0.054,0.077l-0.017,0.103l0.069,0.152l0.161,0.252l0.069,0.187
	l0.018,0.17l-0.077,0.503v0.004l-0.031,0.051l-0.071,0.069l-0.051,0.072l-0.045,0.096l-0.053,0.192l0.009,0.135l0.052,0.168
	l0.081,0.156l0.101,0.103l0.07,0.021h0.165l0.076,0.008l0.509,0.209l0.115,0.067l0.074,0.116l0.054,0.33l0.053,0.161l0.344,0.308
	l0.117,0.046l0.142-0.066l0.189-0.063l0.135,0.055l0.254,0.252l0.073,0.046l0.074,0.028l0.178,0.039l0.042,0.019l0.039,0.03
	l0.109,0.108l0.034,0.007l0.036-0.003l0.318,0.016l0.079,0.035l0.139,0.111l0.068,0.04l0.263,0.075l0.061,0.045l0.071,0.081
	l0.069,0.049l0.08,0.009l0.085-0.004l0.05,0.01l0.037,0.008l0.033,0.028l0.051,0.08l0.034,0.023l0.035,0.003l0.066-0.02l0.031-0.002
	l0.074,0.015l0.053,0.022l0.121,0.068l0.163,0.042l0.123-0.039l0.113-0.073l0.134-0.063l0.122,0.027l0.099,0.119l0.075,0.16
	l0.052,0.149l0.008,0.147l-0.058,0.11l-0.077,0.105l-0.052,0.12l0.031,0.156l0.227,0.148l0.039,0.121l0.09,0.032l0.225-0.071
	l0.409-0.189l0.215-0.141h0.001l0.007-0.066l-0.005-0.072l-0.022-0.08l-0.047-0.087l-0.108-0.149l-0.027-0.076l0.006-0.103
	l-0.005-0.068l-0.041-0.026l-0.167-0.016l-0.028-0.013l-0.014-0.026l0.009-0.034l0.017-0.032l0.003-0.026l-0.084-0.165l-0.032-0.098
	l0.06-0.144l-0.07-0.101l-0.158-0.135l-0.056-0.08l-0.144-0.289l-0.023-0.018l-0.146-0.065l-0.016-0.003l-0.041,0.002l-0.018-0.003
	l-0.024-0.016l-0.043-0.036l-0.027-0.013l-0.032-0.002l-0.104,0.007l-0.04,0.013l-0.053,0.007l-0.04-0.026l-0.037-0.036
	l-0.113-0.078l-0.154-0.166l0.033-0.064l0.19-0.344l0.026-0.09l-0.015-0.092l-0.079-0.179l-0.012-0.068l-0.004-0.025l0.038-0.173
	l-0.003-0.053l-0.105-0.101l-0.03-0.044l-0.065-0.223l-0.001-0.206l0.038-0.159l0.009-0.042l0.158-0.418l0.052-0.095l0.079-0.071
	l0.082-0.037l0.094-0.017l0.089,0.014l0.063,0.061l0.051,0.019h0.065l0.053-0.024l0.007-0.053l-0.019-0.077l0.009-0.036l0.092-0.061
	l0.331-0.322l0.04-0.022l0.084-0.023l0.035-0.022l0.032-0.047l0.197-0.368l0.027-0.104l-0.005-0.119l-0.027-0.073l-0.083-0.126
	l-0.033-0.071l-0.022-0.13l-0.034-0.191l-0.246-0.673l-0.151-0.418l-0.214-0.588l-0.136-0.373l-0.002-0.004l-0.07-0.194
	l-0.342-0.454l-0.284-0.38l-0.05-0.065l-0.047-0.106l-0.023-0.128l-0.025-0.607l-0.015-0.35l-0.02-0.475l-0.088,0.046l-0.057,0.021
	l-0.045-0.028l-0.465-0.942l-0.059-0.066l-0.077-0.043l-0.297-0.119l-0.24-0.131l-0.239-0.129l-0.695-0.376l-0.574-0.312
	l-0.535-0.441l-0.559-0.28l-0.595-0.298l-0.704-0.353l-0.569-0.285l-0.524-0.176l-0.611-0.206l-0.166-0.02l-0.005-0.002
	l-0.027,0.003l-0.022-0.132l-0.032-0.088l-0.175-0.312l-0.009-0.03l-0.003-0.029l-0.011-0.031l-0.033-0.032l-0.182-0.026
	l-0.151-0.062l-0.058-0.045l-0.049-0.075l-0.025-0.089l-0.02-0.245l-0.069-0.12l-0.111-0.152l-0.092-0.161l-0.01-0.15l-0.023-0.133
	l-0.115-0.148l-0.359-0.306l-0.07-0.081l-0.053-0.096l-0.051-0.137l-0.011-0.063l-0.005-0.206l-0.075-0.239l-0.006-0.058
	l0.016-0.062l0.003-0.238l-0.012-0.095l-0.005-0.028l-0.027-0.033l-0.031-0.018l-0.039-0.015l-0.174-0.229l-0.06-0.039l-0.057-0.026
	l-0.056-0.031l-0.083-0.132l-0.04-0.046l-0.096-0.08l-0.187-0.105l-0.031-0.026l-0.032-0.035l-0.109-0.078l-0.071-0.094
	l-0.065-0.038l-0.024-0.032V769.2l0.039-0.074l0.003-0.034l-0.064-0.129l-0.164-0.27l-0.054-0.273l-0.055-0.147l-0.085-0.124
	l-0.107-0.061l0.027-0.126l0.091-0.245l0.032-0.132l0.02-0.043l0.074-0.082l0.023-0.039l0.002-0.062l-0.018-0.14l0.018-0.04
	l0.148-0.166l-0.003-0.216l-0.112-0.483l-0.014-0.584l-0.042-0.123l-0.118-0.231l-0.044-0.12l-0.058-0.234l-0.218-0.459l1.767-0.906
	l0.174-0.099l0.02,0.022l0.041,0.017l0.046-0.007l0.106-0.049l0.018-0.011l0.045-0.057l-0.001-0.004l0.023-0.024l0.012-0.02
	l0.021-0.007l0.052,0.012l0.038,0.025l0.025,0.027l0.033,0.017l0.055-0.008l-0.032-0.086l0.046-0.027l0.081-0.006l0.078-0.016
	l0.072-0.116l0.004-0.001l0.198-0.188l0.03-0.053l-0.015-0.114l0.007-0.086l0.018-0.089l0.035-0.064l-0.08-0.089l0.056-0.093
	l0.193-0.155l0.046-0.104l0.05-0.257l0.037-0.072l0.19-0.055l0.145-0.007l0.031-0.005l0.159-0.087l0.069,0.002l0.118,0.063
	l0.007,0.128l0.078,0.072l0.1,0.005l0.07-0.07l0.06-0.035l0.107-0.003l0.202,0.026l0.049-0.002l0.105-0.021l0.05-0.003l0.05,0.015
	l0.042,0.018l0.04,0.01l0.042-0.011l0.086,0.001l0.062,0.08l0.059,0.104l0.069,0.081l0.004,0.087l0.057,0.093l0.076,0.068
	l0.064,0.012l0.161-0.124l0.056-0.017l0.085,0.01l0.05-0.008l0.06-0.04l0.133-0.131l0.124-0.092l0.02-0.037l0.011-0.034l0.018-0.021
	l0.495-0.26l0.045,0.01l0.074,0.102l0.038,0.011l0.028-0.003l0.132,0.005l0.077-0.03l0.247-0.186l0.053-0.058l0.108-0.073
	l0.021-0.037l0.01-0.044l0.024-0.06l0.128-0.149l0.037-0.054l0.021-0.061l0.035-0.257l0.084-0.356l0.061-0.064l0.051,0.001
	l0.087-0.035l0.139,0.021l0.069-0.019l0.378-0.245l0.031-0.041l0.024-0.052l0.049-0.079l0.114,0.123l0.186,0.104l0.209,0.063
	l0.186,0.004l0.401-0.096l0.196-0.072l0.146-0.099l0.033-0.043l0.022-0.041l0.025-0.036l0.039-0.023l0.061,0.001l0.114,0.052
	l0.043,0.002l0.24-0.043l0.099-0.05l0.075-0.058l0.021-0.032l0.02-0.053l0.005-0.063l-0.005-0.079l0.009-0.077l0.042-0.054
	l0.079-0.067l0.117-0.172l0.085-0.068l0.136-0.07l0.084-0.065l0.059-0.094l0.119-0.271l0.249-0.315l0.061-0.116l0.031-0.083
	l0.008-0.082l-0.032-0.057l-0.052-0.047l-0.045-0.058l-0.022-0.121l0.018-0.26l-0.043-0.087l0.016-0.08l-0.026-0.257l-0.019-0.078
	l0.012-0.058l0.2-0.313l0.063-0.058l0.172-0.103l0.033-0.03l0.021-0.068l0.228-0.176l0.099-0.049l0.034-0.016l-0.003-0.007
	l0.007-0.022l0.018-0.022l0.025-0.014l0.014,0.009l0.041,0.033l0.018,0.001l0.048-0.004l0.114,0.025l0.059-0.01l0.046-0.035
	l0.077-0.096l0.038-0.034l0.213-0.067l0.206,0.042l0.355,0.159l0.188,0.01l0.384-0.079l0.16,0.02h0.003l0.048-0.206l0.295-0.545
	l0.041-0.189l0.043-0.104l0.114-0.104l0.069-0.092l0.043-0.035l0.055-0.021l0.104-0.022l0.05-0.022l0.061-0.087l0.098-0.275
	l0.041-0.072l0.082-0.071l0.052-0.1l0.069-0.173l0.134-0.115l0.57-0.291l0.138-0.111l0.106-0.137l0.113-0.029l0.222,0.02
	l0.107-0.009l0.116-0.059l0.096-0.093l0.077-0.116l0.552-1.215l0.053-0.078l0.065-0.067l0.327-0.201l0.666-0.558l0.092-0.11
	l0.308-0.569l0.369-0.451l0.065-0.092l0.364-0.773l0.104-0.113l0.029-0.084l0.036-0.166l0.149-0.428l0.113-0.229l0.243-0.26
	l0.11-0.211l0.08-0.234l0.014-0.184l0.065-0.067l0.076-0.018l0.047,0.038L1307.324,746.917z"/></svg>