<?xml version="1.0" encoding="utf-8"?>
<!-- Generator: Adobe Illustrator 15.0.0, SVG Export Plug-In . SVG Version: 6.00 Build 0)  -->
<!DOCTYPE svg PUBLIC "-//W3C//DTD SVG 1.1//EN" "http://www.w3.org/Graphics/SVG/1.1/DTD/svg11.dtd">
<svg version="1.1" id="Ebene_1" xmlns="http://www.w3.org/2000/svg" xmlns:xlink="http://www.w3.org/1999/xlink" x="0px" y="0px"
	 width="1920px" height="1080px" viewBox="0 0 1920 1080" enable-background="new 0 0 1920 1080" xml:space="preserve">

<path fill="#F4E0B6" stroke="#FFFFFF" d="M140.631,170.064l-0.051,0.007l0.026,0.038l-0.004,0.05l-0.029,0.038l0.015,0.118
	l-0.04,0.087l-0.049-0.05l-0.021-0.083l-0.099,0.078l-0.045,0.023l-0.066-0.035l-0.061-0.004l-0.083,0.005l-0.117-0.08l-0.038-0.093
	l-0.044-0.111l0.014-0.056l0.01-0.076l-0.003-0.056l0.03-0.055l-0.004-0.044l-0.053-0.017l0.03-0.11l0.034-0.054l0.058,0.012
	l0.029,0.068l0.03,0.126l0.029,0.105l0.103-0.019l0.098-0.007l0.118,0.01l0.07,0.028l0.098,0.06l0.032,0.058L140.631,170.064z
	 M142.841,156.926l0.073,0.249l-0.007,0.091l-0.048-0.036l-0.07-0.083l-0.093-0.069l-0.031-0.042l-0.017-0.049l-0.058-0.002
	l-0.218-0.467l0.006-0.033l0.022-0.029l0.022-0.047l0.021-0.105l0.02-0.051l0.044-0.053l0.026,0.064l0.001,0.066l-0.022,0.124
	l0.025,0.047l0.201,0.225l0.066,0.022l0.022,0.016l0.015,0.039L142.841,156.926z M144.585,156.505l-0.069,0.022l-0.034,0.007
	l0.027,0.055l0.114,0.135h-0.033l-0.047,0.039l-0.04,0.048l-0.013,0.033l-0.076-0.137l-0.029-0.027l-0.035,0.004l-0.037,0.014
	l-0.042,0.005l-0.081-0.034l-0.009-0.046l-0.004-0.049l-0.062-0.042l-0.014,0.051l-0.033,0.044l-0.097,0.085l-0.002-0.027
	l-0.015-0.052l-0.001-0.026l-0.061,0.046l-0.021,0.023l-0.035-0.017l-0.112-0.031l0.044,0.042l0.03,0.054l0.014,0.062l-0.006,0.062
	l-0.078-0.063l-0.079-0.183l-0.066-0.08l-0.032,0.016l0.037,0.063l0.005,0.143l0.034,0.072l-0.1,0.008l-0.099-0.001l0.026,0.052
	l0.059,0.081l0.018,0.047l-0.049,0.004l-0.043,0.015l-0.038,0.023l-0.032,0.033l-0.013-0.03l-0.037-0.054l-0.013-0.029l-0.032,0.015
	l0.021,0.047l0.008,0.07l-0.006,0.069l-0.017,0.04l-0.084,0.029h-0.1l-0.072-0.032l-0.003-0.063l0.018-0.106l-0.025-0.119
	l-0.006-0.115l0.072-0.101l-0.068-0.012l-0.054-0.022l-0.097-0.061l0.073-0.008h0.09l0.084-0.014l0.059-0.047l0.029-0.059
	l0.015-0.063l-0.02-0.049l-0.073-0.02l-0.007,0.041l-0.022,0.057l-0.032,0.037l-0.034-0.02l-0.011-0.051l0.006-0.099l-0.027-0.048
	l-0.022,0.055l-0.008,0.047l-0.017,0.042l-0.048,0.043l-0.072,0.032l-0.06,0.006l-0.048-0.021l-0.037-0.044l-0.029-0.06
	l-0.009-0.051l0.012-0.054l0.035-0.069l-0.019-0.024l-0.067-0.023l-0.141-0.032l0.247-0.158l0.262,0.039l0.531,0.308l0.121,0.026
	l0.133-0.009l0.152-0.052l0.12-0.026l0.135-0.012l0.107-0.04l0.037-0.108l0.048,0.049l0.046,0.034l0.033,0.04l0.004,0.072
	l0.022,0.046l0.12,0.145l0.042,0.035L144.585,156.505z M166.889,195.3l-0.013-0.025l-0.042-0.127l-0.012-0.105l0.042-0.089
	l0.126-0.04l0.067,0.017l0.205,0.088l0.062,0.038l0.029,0.038l0.015,0.045l-0.005,0.048l-0.032,0.044l-0.073,0.038l-0.083,0.006
	l-0.086-0.001l-0.083,0.011l-0.079,0.018L166.889,195.3z M156.935,152.508l-0.037,0.039l-0.045,0.034l-0.054,0.024l-0.001-0.042
	l0.018-0.031l0.051-0.064l-0.002-0.035l-0.097-0.113l0.035-0.016l0.26,0.099l0.053,0.054l-0.039-0.004l-0.112,0.014L156.935,152.508
	z M162.058,153.734l-0.064-0.069l0.041-0.053l0.086,0.014l0.093,0.061l0.049,0.077l-0.044,0.062l-0.062-0.03L162.058,153.734z
	 M164.558,153.699l-0.042-0.047l-0.007-0.054l0.049-0.05l0.068-0.012l0.052,0.029l0.032,0.049l0.012,0.051l-0.012,0.062
	l-0.096-0.003L164.558,153.699z M166.065,156.787l-0.06-0.014l0.057-0.004l0.03-0.041l0.026-0.058l0.043-0.053l0.032,0.052
	l0.045,0.042l0.058,0.025l0.073-0.004l-0.076,0.099l-0.116-0.001L166.065,156.787z M165.452,154.469l-0.019,0.091l-0.033,0.088
	l-0.246,0.489l-0.021,0.07l-0.009,0.076l-0.019,0.068l-0.052,0.048l0.008,0.048l-0.003,0.099l-0.037,0.068l-0.094-0.044l0.001,0.088
	l-0.029,0.012l-0.07-0.075l-0.129-0.332l0.075-0.003l-0.091-0.202l-0.063-0.054l-0.071,0.074l-0.057,0.012l-0.301-0.077l0.053,0.084
	l0.204,0.061l0.074,0.062l0.003,0.042l-0.018,0.125l0.021,0.099l0.013,0.162l-0.039,0.001l-0.03-0.002l-0.027-0.009l-0.03-0.021
	l-0.031,0.014l0.019,0.041l0.154,0.163l0.025,0.044l0.048,0.036l0.021,0.024l-0.012,0.019l-0.032,0.027l-0.02,0.041l-0.01,0.042
	v0.033l-0.052,0.002l-0.127,0.029l-0.035,0.004l-0.042-0.03l-0.014-0.041l-0.008-0.047l-0.019-0.049l-0.032,0.013l-0.019,0.2
	l-0.023,0.064l-0.025,0.02l-0.029-0.02l-0.022-0.035l-0.01-0.027l0.006-0.026l0.046-0.052l0.006-0.035l-0.034-0.079l-0.042-0.004
	l-0.103,0.071l-0.042-0.029l-0.011-0.142l-0.052,0.07l-0.129-0.261l-0.142-0.203l-0.079-0.071l-0.293-0.139l-0.109-0.032
	l-0.058-0.032l-0.029-0.064l-0.005-0.072l0.015-0.063v-0.067l-0.082-0.119l-0.015-0.046l0.039-0.058l0.054-0.052l0.02-0.043
	l-0.098-0.046l-0.042-0.054l-0.029-0.02l-0.018,0.006l-0.123,0.025l0.008-0.071l-0.22-0.123l-0.083-0.087l-0.03,0.089l0.073,0.102
	l0.182,0.18l-0.11-0.003l-0.079-0.013l-0.162-0.063l0.112-0.05l-0.024-0.043l-0.089-0.036l-0.092-0.021l-0.063-0.05l-0.084-0.106
	l-0.068-0.117l-0.015-0.082l0.08-0.058l0.128-0.03l0.133-0.006l0.094,0.008l0.048,0.023l0.043,0.065l0.087,0.049l0.114,0.098
	l0.008-0.078l0.042-0.02l0.06,0.004l0.067-0.008l0.067-0.036l0.047-0.036l0.051-0.023l0.078-0.001l0.065,0.016l0.048,0.024
	l0.092,0.062l0.047,0.048l0.01,0.051l0.001,0.051l0.02,0.049l0.092,0.034l0.104-0.062l0.109-0.081l0.108-0.027l0.045,0.033
	l0.051,0.104l0.061,0.03l0.119,0.019l0.06-0.002l0.068-0.02l0.095-0.063l0.075-0.09l0.103-0.19l0.04-0.044l0.047-0.003l0.048,0.012
	h0.041l0.029-0.014l0.02-0.017l0.014-0.02l0.015-0.026l0.026-0.03l0.029-0.006l0.03,0.004l0.03-0.003l0.139-0.037l0.091,0.02
	l0.063,0.069l0.055,0.106l0.016,0.109l0.019,0.057l0.046,0.036l0.07,0.03l0.029,0.036L165.452,154.469z M168.193,147.815
	l-0.064,0.088l-0.09,0.078l-0.094,0.056l-0.108,0.031l-0.094-0.008l-0.073-0.045l-0.05-0.077l0.02-0.019l0.033-0.047l0.009-0.041
	l-0.096,0.012l-0.033-0.022l-0.019-0.033l-0.004-0.031l0.037-0.043l0.081-0.061l0.088-0.053l0.055-0.02l0.061-0.092l-0.038-0.061
	l-0.351-0.119l-0.067-0.042l-0.063-0.066l0.07-0.008l0.101-0.004l0.097,0.009l0.052,0.028l0.02,0.004l0.092,0.01l0.082-0.003
	l0.032,0.04l0.043,0.093l0.235,0.253l0.037,0.067l0.011,0.035L168.193,147.815z M170.238,148.253l-0.08-0.114l-0.012-0.054
	l0.028-0.092l0.003-0.075l-0.016-0.091l-0.001-0.086l0.048-0.059l0.038-0.066l0.032-0.025l0.035,0.031l0.017-0.017l0.057,0.004
	l0.421,0.08l-0.021,0.012l-0.009,0.013l-0.007,0.015l-0.011,0.018l-0.149,0.107l-0.129,0.124L170.238,148.253z M196.499,205.029
	l-0.045-0.061l0.064-0.009l0.012-0.016l0.029-0.029l0.012-0.016l0.018,0.01l0.01-0.016l0.041,0.01l0.128,0.018l0.035-0.001
	l0.048-0.048l0.014-0.043l0.02-0.017l0.061,0.03l0.04,0.042l0.032,0.063l0.019,0.065l-0.001,0.05l-0.018,0.023l-0.027,0.01
	l-0.029,0.008l-0.024,0.016l-0.016,0.026l-0.034,0.096l-0.108-0.099l-0.066-0.021l-0.1,0.011L196.499,205.029z M198.98,203.226
	l-0.003,0.039l0.043,0.139l0.006,0.046l-0.05,0.251l0.006,0.087l0.255,0.732l-0.027,0.006l-0.016-0.052l-0.039-0.032l-0.059-0.01
	l-0.07,0.015l0.042-0.154l-0.104-0.122l-0.175-0.086l-0.316-0.103l-0.082-0.012l-0.09,0.008l0,0l-0.039-0.002l-0.021-0.019
	l0.005-0.025l0.037-0.021l0.108-0.022l0.045-0.018l0.041-0.03l0.054,0.042l0.1,0.048l0.112,0.032l0.088-0.006l0.074-0.081
	l0.007-0.107l-0.045-0.183l-0.016-0.197l-0.044-0.07l-0.103,0.033l-0.039,0.075l0.017,0.319l-0.269-0.199l-0.065-0.003l-0.124,0.149
	l-0.051,0.039l-0.058,0.014l-0.057,0.011l-0.054,0.024l-0.039,0.092l0.144,0.102l-0.093,0.043l-0.069,0.021l-0.039,0.026
	l-0.056,0.075l-0.022,0.052l0.001,0.095l-0.013,0.043l-0.093,0.067l-0.061-0.088l-0.045-0.14l-0.043-0.085l-0.033-0.029l-0.06-0.081
	l-0.096-0.065l-0.105-0.134l-0.098-0.002l-0.013-0.023l-0.056-0.208l-0.002-0.065l0.031-0.036l0.095-0.03l0.077-0.044l0.152-0.119
	l0.016-0.032l0.009-0.038l0.017-0.021l0.041,0.021l0.058,0.066l0.206,0.163l0.049,0.028l0.055,0.005l0.072,0.066l0.088,0.047
	l0.1-0.045l0.235-0.208l0.06-0.091l0.044-0.093l0.008-0.046l-0.004-0.05l-0.026-0.047l-0.031-0.03l-0.02-0.028l0.007-0.039
	l-0.039-0.017l-0.058,0.031l-0.018-0.027l-0.01-0.053l-0.037-0.044l0.019-0.11l-0.137-0.223l0.062-0.119l0.099,0.03l0.046,0.058
	l0.038,0.066l0.07,0.058l0.031-0.008l0.032-0.029l0.033-0.011l0.036,0.042l-0.015,0.012l-0.039,0.098l-0.005,0.039l0.113,0.293
	l0.062,0.058l0.096,0.018l0.077-0.003l0.059,0.013l0.037,0.068l-0.001,0.03L198.98,203.226z M200.617,168.046l-0.069-0.008
	l-0.143,0.023l-0.062-0.007l-0.054-0.044l-0.027-0.063l-0.018-0.072l-0.026-0.065l-0.043-0.043l-0.109-0.066l-0.036-0.029
	L200,167.618l-0.059-0.192h0.002l0.025,0.012l0.051,0.028l0.011,0.01l0.018,0.038l0.024,0.092l0.032,0.028l0.269,0.123l-0.037,0.083
	l0.058,0.073l0.097,0.035l0.082-0.031l-0.041-0.038l-0.01-0.047l0.016-0.048l0.042-0.041l0.029,0.066l0.048,0.037l0.051,0.03
	l0.037,0.042l0.014,0.063l-0.031,0.021l-0.054,0.011L200.617,168.046z M201.663,165.814l-0.037,0.04l-0.028,0.017l-0.02-0.013
	l-0.02-0.016l-0.082-0.034l-0.031-0.008l-0.05,0.005l-0.122,0.027l-0.061-0.005l-0.011-0.013l-0.022-0.077l-0.019-0.019
	l-0.073-0.024l-0.03-0.015l-0.063-0.082l-0.022-0.021l-0.036-0.005h-0.036l-0.025-0.004l-0.048-0.036l-0.041-0.047l-0.022-0.053
	l0.007-0.058l0.021,0.01l0.017-0.001l0.017-0.004l0.019-0.001l0.04,0.036l0.044,0.011l0.045-0.012l0.045-0.037l-0.06-0.025
	l-0.021-0.005l0.044-0.039l0.055-0.028l0.058-0.012l0.059,0.004l-0.029,0.075l-0.038,0.063l-0.021,0.064l0.018,0.083l0.029-0.01
	l0.019-0.059l0.032-0.058l0.049-0.05l0.07-0.037l0.069-0.014l0.189-0.012l0.047,0.006l0.001,0.022l-0.035,0.018l-0.033,0.025
	l0.004,0.044l0.067-0.008l0.049,0.005l0.031,0.025l-0.008,0.064l-0.065,0.025l-0.085,0.019l-0.068,0.044l0.054,0.013l0.078,0.107
	l0.068,0.042l-0.045-0.129l0.097,0.061l0.049,0.022l0.063,0.017l0.144-0.004l0.034,0.011l-0.06,0.04l-0.066,0.021l-0.067,0.009
	L201.663,165.814z M201.436,161.403l0.025,0.249l0.034,0.128l-0.063-0.075l-0.243-0.847l-0.037-0.054l-0.06-0.023l-0.107-0.003
	l-0.193,0.025l-0.1-0.004l-0.065-0.039l-0.081,0.067l-0.043-0.007l-0.022-0.052l-0.019-0.068l-0.101,0.097l-0.008,0.027l0.001,0.073
	l-0.013,0.025l-0.078,0.027l-0.151,0.003L200.045,161l0.032,0.017l0.07,0.066l-0.109,0.1l-0.073,0.175l-0.114,0.411l0.002,0.055
	l0.036,0.043l0.101,0.068l0.016,0.015l0.021,0.048l0.019,0.01l0.057-0.03l0.022-0.001l0.077,0.04l0.007,0.031l-0.036,0.059
	l0.088,0.024l0.061,0.038l0.015,0.057l-0.05,0.078l-0.049,0.04l-0.041,0.017l-0.098,0.012l-0.034,0.037l-0.039,0.009l-0.064-0.03
	l0.014,0.067l0.025,0.056l0.002,0.053l-0.053,0.065l-0.027-0.003l-0.213,0.035l-0.078,0.044l-0.037,0.023l-0.034,0.002l-0.075-0.022
	l-0.114-0.055l-0.107-0.069l-0.006,0.042l0.002,0.032l0.018,0.025l0.035,0.029l-0.209,0.125l-0.067,0.033l-0.061,0.046l-0.044,0.063
	l-0.05,0.052l-0.08,0.01l0.038-0.03l0.026-0.036l0.018-0.04l0.003-0.042l-0.172,0.033l-0.035,0.027l-0.034,0.079l-0.025,0.032
	l-0.047,0.03l0.009,0.024l0.072,0.021l-0.047,0.05l-0.171,0.102l-0.105,0.09l-0.035,0.015l-0.036-0.011l-0.051-0.055l-0.04-0.002
	l-0.057,0.051l-0.013,0.079l0.013,0.09l0.063,0.174l0.043,0.075l0.058,0.061l0.163,0.099l0.121,0.104l0.089,0.041l0.239,0.079
	l0.296,0.158l0.071,0.081l0.081,0.019l0.029,0.034l-0.006,0.029l-0.035,0.014l-0.045,0.003l-0.037-0.002l0.097,0.111l0.063,0.05
	l0.069,0.033l0.13,0.022l0.041,0.02l0.015,0.032l-0.007,0.039l0.01,0.033l0.06,0.013l0.036-0.055l0.075,0.012l0.078,0.046
	l0.043,0.047l0.001,0.074l-0.037,0.079l-0.067,0.067l-0.085,0.035l0.009,0.026l0.049,0.003l0.021,0.014l-0.008,0.023l-0.036,0.033
	l0.049,0.043l0.089-0.091l0.069,0.035l0.068,0.091l0.077,0.073l0.06,0.012l0.044-0.021l0.023-0.041l-0.005-0.052l-0.144-0.112
	l0.004-0.028l0.061-0.023l0.025-0.003l0.094,0.036l0.038,0.022l0.071,0.072l0.039,0.027l0.032,0.035l0.099,0.181l0.027,0.014
	l0.149,0.041l0.091,0.072l-0.213,0.059l0.013,0.097l0.021,0.008l0.148,0.077l0.025,0.001l0.062-0.01l0.017-0.001l0.019,0.017
	l0.037,0.05l0.158,0.152l0.016,0.03l0.016,0.044l0.006,0.048l-0.011,0.04l-0.105,0.081l-0.04-0.059l-0.021-0.196l-0.05,0.045
	l-0.041-0.011l-0.046-0.024l-0.069,0.004l-0.001-0.047l-0.012-0.041l-0.029-0.032l-0.045-0.025l-0.019,0.032l-0.016,0.014
	l-0.006,0.017l0.005,0.036l-0.076-0.043l-0.082-0.109l-0.045-0.117l0.03-0.071l-0.013-0.06l-0.053-0.103l-0.065-0.041l-0.058,0.124
	l-0.051-0.042l-0.05-0.025l-0.033,0.014l0.001,0.071l-0.063,0.007l-0.06-0.006l-0.055-0.018l-0.045-0.022l-0.025,0.043l0.005,0.047
	l0.038,0.031l0.077-0.009l0.147,0.047l0.022-0.005l0.131,0.232l0.052,0.129l-0.013,0.113l-0.008-0.043l-0.021-0.03l-0.034-0.011
	l-0.048,0.008l-0.046,0.002l-0.008-0.031l0.005-0.041l-0.004-0.029l-0.002-0.021l0.007-0.031l-0.007-0.023l-0.041,0.004l-0.017,0.01
	l-0.02,0.028l-0.018,0.011l-0.045,0.009l-0.024-0.009l-0.009-0.026l0.006-0.037l-0.115,0.009l-0.049-0.043l-0.039-0.052
	l-0.081-0.017l0.021,0.059l-0.001,0.077l-0.027,0.073l-0.055,0.046l-0.049,0.007l-0.114-0.001l-0.058,0.01l-0.068-0.028
	l-0.089-0.088l-0.129-0.186l-0.046,0.03l-0.026,0.04l-0.011,0.04v0.035l0.356,0.32l0.085,0.128l0.031-0.01l-0.004-0.061l-0.02-0.049
	l-0.007-0.044l0.029-0.043l0.075,0.15l0.027,0.079l-0.011,0.069l0,0.066l0.043,0.087l0.059,0.08l0.05,0.048l0.005-0.027l0.031-0.076
	l0.06,0.229l0.066,0.098l0.111,0.053l-0.161-0.417l-0.041-0.058l-0.019-0.005l-0.021,0.008l-0.021-0.001l-0.02-0.032l-0.008-0.025
	l-0.003-0.019l0.003-0.019l0.008-0.025l0.07,0.005l-0.15-0.173l-0.031-0.1l0.126-0.082l0.078-0.006l0.056,0.025l0.048,0.037
	l0.055,0.034l0.031-0.002l0.03-0.019l0.024-0.01l0.02,0.024l0.017,0.032l0.02,0.013l0.031-0.005l0.044-0.021l0.018,0.14
	l-0.086-0.015l-0.073,0.015l-0.131,0.07l0.133,0.028l0.098,0.002l0.068,0.031l0.041,0.113l0.066-0.094l0.038-0.033l0.115,0.032
	l0.068-0.021l0.039-0.048l-0.021-0.062l-0.053-0.01l-0.077,0.01l-0.056-0.007l0.004-0.057l0.074-0.155l0.043-0.046l0.046,0.13
	l0.047-0.051l0.044-0.02l0.027,0.02l-0.005,0.067l0.097-0.025l-0.002,0.073l-0.082,0.181l-0.021,0.097l0.006,0.085l0.047,0.063
	l0.101,0.029l-0.036,0.083l0.047,0.053l0.085,0.013l0.08-0.043l0.002,0.063l-0.031,0.077l-0.051,0.069l-0.058,0.042l-0.053,0.019
	l-0.034,0.006l-0.024-0.012l-0.04-0.076l-0.025-0.01l-0.03,0.012l-0.033,0.03l-0.03,0.086l0.05,0.063l0.082,0.042l0.121,0.046
	l0.192,0.103l0.038,0.047l-0.048,0.047l-0.089-0.002l-0.349-0.095l-0.053-0.007l-0.089,0.027l-0.043,0.002l0.007-0.017l-0.046-0.043
	l-0.051-0.033l-0.008,0.013l-0.017-0.011l-0.032-0.029l-0.013-0.036l0.041-0.032l0.184-0.063l0.018-0.02l-0.042-0.014l-0.064-0.008
	l-0.049,0.002l0.002-0.063l-0.039,0.012l-0.049,0.048l-0.035,0.045l-0.05,0.105l-0.031,0.04l-0.061,0.046l-0.013-0.015l-0.032-0.042
	l-0.01-0.01l0.009-0.004l-0.07-0.061l-0.04-0.02l-0.037-0.009l-0.034-0.019l-0.028-0.049l-0.072-0.194l-0.062-0.09l-0.087-0.038
	l0.014-0.055l-0.011-0.047l-0.033-0.032l-0.057-0.01v-0.065l-0.041-0.063l-0.063-0.054l-0.063-0.037l-0.057,0.007l0.034,0.087
	l0.065,0.095l0.038,0.031l0.004,0.091l0.04,0.048l0.061,0.036l0.065,0.053l0.019,0.041l0.003,0.044l0.011,0.042l0.071,0.057
	l0.044,0.072l0.024,0.03l-0.028,0.055l-0.023,0.065l-0.011,0.064l0.005,0.051l0.026,0.042l0.064,0.039l0.024,0.035l0.047,0.096
	l0.062,0.066l0.164,0.116l-0.13-0.007l-0.126-0.022l-0.041-0.018l-0.089-0.052l-0.057-0.021l-0.051-0.003l-0.048,0.002l-0.044-0.014
	l-0.071-0.106l-0.098-0.066l-0.034-0.049l0.051,0.002l0.122,0.029l0.03-0.002l-0.002-0.041l-0.099-0.052l-0.006-0.056l0.074,0.003
	l-0.107-0.083l-0.139-0.033l-0.151-0.014l-0.146-0.028l-0.14-0.051l-0.063,0.002l-0.083,0.034l-0.123,0.088l-0.063,0.029
	l-0.084,0.002l0.011,0.075l-0.039,0.063l-0.054,0.037l-0.033-0.003l-0.013,0.02l-0.009,0.048l0.027,0.037l0.098-0.014l0.014-0.027
	l0.08-0.064l0.066-0.035l-0.023,0.066l-0.247,0.316l-0.063,0.028l-0.05,0.038l-0.041,0.031l-0.077,0.051l-0.047,0.019l-0.219,0.163
	l-0.022,0.031l-0.066,0.062l-0.016,0.098l0.023,0.097l0.049,0.061l-0.118,0.017l-0.556-0.104l-0.111-0.033l-0.577-0.283
	l-0.386-0.188l-0.201-0.05l-0.123-0.013l-0.101,0.01l-0.135,0.05l-0.084,0.021l-0.055-0.021l-0.054-0.006l-0.068-0.007h-0.024
	l-0.112-0.04l-0.145-0.029l-0.091-0.049l-0.16-0.131l-0.098-0.055l-0.214-0.054l-0.023-0.016l-0.014-0.023l-0.017-0.053
	l-0.094-0.009l-0.032-0.006l-0.05-0.029l-0.039-0.03l-0.047-0.014l-0.078,0.019l-0.036,0.029l-0.047,0.087l-0.033,0.041
	l-0.043-0.012l-0.041-0.017l0.065-0.108l0.009-0.049l-0.012-0.06l-0.032-0.042l-0.094-0.056l-0.028-0.034l-0.052-0.034l-0.288-0.116
	l-0.202-0.011l-0.22,0.013l-0.2-0.028l-0.138-0.134l-0.034,0.013l0.008,0.026l-0.002,0.021l-0.005,0.018l-0.002,0.024l-0.67-0.084
	l-0.173,0.017l-0.118-0.021l-0.107-0.041l-0.098-0.095l-0.049,0.009l-0.081,0.048l-0.052,0.016l-0.023,0.015l-0.027,0.006
	l-0.066-0.006l-0.052-0.021l-0.028-0.027l-0.032-0.016l-0.067,0.014l-0.037-0.002l-0.044-0.023l-0.152-0.126l-0.028-0.035
	l-0.054-0.098l-0.13-0.125l-0.053-0.004l-0.056,0.005l-0.045-0.001l-0.043-0.021l-0.194-0.131l-0.302-0.451l-0.099-0.102
	l-0.152-0.058l-0.296-0.211l-0.109-0.02l-0.222-0.014l-0.156-0.041l-0.044-0.004l-0.061,0.035l-0.047,0.048l-0.12,0.013l-0.12,0.028
	l-0.244,0.08l-0.039-0.013l-0.07-0.001l-0.094,0.044l-0.258,0.169l-0.229,0.201l-0.074,0.02l0.033-0.064l-0.009-0.045l-0.036-0.006
	l-0.053,0.053l-0.015,0.069l0.032,0.241l-0.083-0.086l-0.109-0.233l-0.076-0.096l-0.12-0.067l-0.019,0.056l0.025,0.106l0.008,0.087
	l0.12,0.042l0.084,0.124l0.049,0.129l0.013,0.062l-0.063,0.041l-0.052,0.057l-0.022,0.047l0.021,0.01l0.124-0.025l0.127-0.009
	l-0.018,0.115l-0.03,0.035l-0.074,0.034l-0.131,0.035l-0.023,0.023l0.033,0.045l0.047,0.019l0.063,0.006l0.061,0.014l0.039,0.039
	l0.015,0.056l0.001,0.061L187.301,167l-0.057,0.037l0.144,0.064l0.04,0.035l-0.074,0.044l-0.03,0.059l-0.017,0.063l-0.038,0.061
	l-0.034,0.017l-0.042,0.003l-0.037-0.001l-0.024,0.003l-0.023,0.019l-0.035,0.046l-0.019,0.018l-0.119,0.058l-0.136,0.037
	l-0.14,0.018l-0.13-0.004l0.044-0.066l-0.142-0.051l-0.011-0.07l-0.105,0.012l-0.032,0.01l0.027-0.043l-0.005-0.034l-0.028-0.026
	l-0.042-0.019l0.052-0.038l0.084-0.082l0.055-0.036l0.07-0.025l0.043-0.004l0.033-0.018l0.042-0.063l0.051-0.041l0.07-0.018
	l0.055-0.022l0.004-0.055l-0.042-0.048l-0.054-0.007l-0.049,0.029l-0.021,0.06l-0.143-0.006l-0.125,0.041l-0.108,0.082l-0.119,0.173
	l-0.015-0.008l-0.017-0.089l-0.094-0.235l0.006-0.059l0.059-0.116l-0.057-0.073l0.014-0.055l0.063-0.11l0.078-0.188l0.06-0.026
	l0.113,0.038l-0.03-0.062l-0.083-0.083l-0.156-0.28l-0.089-0.082l-0.103-0.202l-0.232-0.279l-0.08-0.139l0.005-0.037l0.055-0.004
	l0.047,0.023l0.038,0.037l0.053,0.091l0.39,0.48l0.029,0.053l0.036,0.047l0.023-0.039l0.021-0.122l-0.008-0.048l-0.062-0.108
	l-0.002-0.071l0.017-0.035l0.045-0.067l0.021-0.042l0.004-0.113l-0.051-0.087l-0.074-0.08l-0.061-0.095l-0.072-0.042l-0.127,0.007
	l-0.14,0.035l-0.112,0.039l-0.063,0.035l-0.023,0.017l-0.027-0.001l-0.072-0.023l-0.034-0.032l-0.166-0.284l-0.009-0.046
	l-0.053-0.066l-0.094-0.039l-0.121-0.147l-0.09-0.053l-0.315-0.315l-0.75-0.521l-0.062-0.103l-0.014-0.063l-0.028-0.053
	l-0.046-0.036l-0.282-0.203l-0.083-0.124l-0.043-0.048l-0.056-0.03l-0.059-0.022l-0.05-0.028l-0.07-0.09l-0.104-0.072l-0.031-0.034
	l-0.043-0.054l-0.099-0.038l-0.05-0.022l-0.048-0.009l-0.071-0.082l-0.05-0.032l-0.309-0.138l-0.083-0.07l-0.005-0.083l-0.054-0.039
	l-0.048-0.032l-0.063-0.011l-0.051,0.005l-0.41-0.069l-0.059,0.006l-0.261,0.1l-0.092,0.014l-0.089-0.022l-0.157-0.061l-0.045,0.008
	l-0.052,0.019l-0.049,0.005l-0.037-0.034l-0.02-0.027l-0.102-0.081l-0.057,0.114l-0.149,0.08l-0.344,0.133l-0.203,0.126
	l-0.076,0.036l-0.093,0.014l-0.054-0.029l-0.045-0.039l-0.07-0.014l0.028,0.109l-0.096,0.078l-0.151,0.055l-0.284,0.075
	l-0.107-0.002l-0.084-0.017l-0.073-0.006l-0.083-0.007l-0.075,0.011l-0.516-0.081l-0.542-0.25l-0.466-0.045l-0.363,0.043
	l-0.116-0.01l-0.134,0.003l-0.035,0.071l-0.026,0.082l-0.108,0.035l-0.201-0.076l-0.076-0.009l-0.051,0.02l-0.043,0.033
	l-0.056,0.032l-0.104-0.018l-0.105-0.074l-0.103-0.045l-0.101,0.069l-0.073-0.021l-0.046-0.032l-0.016-0.05l0.016-0.076
	l-0.048,0.023l-0.041,0.03l-0.075,0.067l-0.077-0.039l-0.038-0.038l-0.052-0.129l-0.055-0.063l-0.046,0.021l-0.021,0.069
	l0.025,0.085l-0.203-0.019l-0.037-0.017l-0.028-0.036l-0.045-0.034l-0.09-0.049l-0.023-0.026l-0.003-0.026l-0.01-0.016l-0.042,0.01
	l-0.043,0.018l-0.022,0.013l-0.004,0.019l0.013,0.033l0.005,0.061l-0.007,0.058l0.013,0.048l0.074,0.025l-0.023,0.084l-0.003,0.11
	l-0.017,0.091l-0.06,0.025l-0.072-0.045l-0.107-0.16l-0.066-0.057l-0.129-0.029l-0.04-0.014l-0.025-0.026l-0.025-0.037l-0.032-0.029
	l-0.137,0.002l-0.138-0.1l-0.093-0.003l0.061,0.054l0.088,0.115l0.133,0.073l0.127,0.137l0.065,0.032l0.127,0.012l0.074,0.021
	l0.05,0.036l0.031,0.041l0.039,0.032l0.08,0.012l-0.042,0.06l-0.064,0.042l-0.256,0.086l-0.074-0.007l-0.046-0.042l-0.039-0.073
	l-0.028-0.074l-0.014-0.012l-0.042-0.025l-0.039-0.007l-0.031,0.013l-0.029,0.002l-0.394-0.701l-0.228-0.264l-0.293-0.191
	l-0.362-0.096l-0.131-0.013l-0.059,0.008l-0.143,0.044l-0.099,0.002l-0.045,0.009l-0.109,0.013l-0.115-0.027l-0.106-0.052
	l-0.079-0.056l-0.154-0.158l-0.09-0.066l-0.12-0.042l-0.111-0.027l-0.1-0.038l-0.539-0.358l-0.21-0.06l-0.263,0.05l-0.117,0.059
	l-0.056,0.002l-0.078-0.085l-0.103-0.056l-0.028-0.021l-0.019-0.065l-0.011-0.136l-0.018-0.063l-0.036-0.057l-0.087-0.084
	l-0.042-0.05l0.005,0.064l0.117,0.287l-0.191-0.005l-0.12-0.082l-0.104-0.107l-0.144-0.079l-0.019-0.052l-0.008-0.104l-0.023-0.108
	l-0.063-0.061l-0.06-0.027l-0.188-0.144l-0.013,0.029l-0.037,0.057l-0.014,0.029l-0.071-0.083l-0.023-0.131l-0.043-0.111
	l-0.138-0.021l0.019-0.096v-0.027l-0.037-0.128l-0.034-0.06l-0.051-0.035l-0.106-0.042l-0.047-0.03l-0.032-0.037l-0.073-0.116
	l-0.015-0.05l0.021-0.064l0.098-0.024l0.049-0.031l-0.002-0.007l-0.009-0.048l-0.048-0.019l-0.102,0.046l-0.052-0.031l-0.025,0.003
	h-0.027l-0.021-0.017l-0.05-0.107l-0.01-0.071l0.025-0.055l0.033-0.041l0.012-0.035l-0.027-0.043l-0.041,0.017l-0.052,0.034
	l-0.063,0.012l-0.095-0.074l-0.028-0.131l-0.002-0.143l-0.018-0.111l-0.058-0.112l-0.021-0.068l0.035-0.064l0.247-0.211l0.042-0.024
	l0.043-0.042l-0.023-0.048l-0.085-0.089l-0.237-0.334l-0.056-0.122l0.063,0.009l0.036,0.036l0.031,0.045l0.045,0.039l0.005-0.087
	l-0.024-0.097l-0.079-0.179l-0.051,0.056l-0.02,0.063l-0.023,0.035l-0.07-0.026l-0.008,0.02l-0.024,0.037l-0.008,0.019l-0.148-0.166
	l-0.236-0.632l0.101,0.01l0.032,0.01l0.035,0.021l0.04,0.044l0.058,0.127l0.008,0.048l-0.035,0.059l0.031,0.11l0.056,0.053
	l0.041-0.115l-0.012-0.119l-0.155-0.305l0.012-0.178l-0.02-0.077l-0.094,0.004l-0.083,0.063l-0.072,0.16l-0.064,0.077l-0.031-0.103
	l0.079-0.189l-0.004-0.096l0.013-0.021l0.042-0.024l0.033-0.041l-0.018-0.104l0.013-0.038l0.033-0.033l0.05-0.03l0.083,0.097
	l0.017,0.038l0.006,0.042l-0.009,0.013l-0.021,0.008l-0.025,0.031l0.042,0.009l0.229,0.126l0.139-0.02l0.137-0.089l0.077-0.112
	l-0.044-0.09l-0.102,0.078l-0.125,0.011l-0.099-0.04l-0.027-0.075l0.042-0.069l0.154-0.155l0.226-0.327l0.029-0.084l-0.025-0.111
	l-0.224-0.325l-0.049-0.041l-0.055,0.021l-0.048,0.036l-0.028,0.001l-0.01-0.059l-0.003-0.075l-0.011-0.068l-0.038-0.038
	l-0.037-0.115l-0.035-0.067l-0.059-0.011l-0.058,0.001l-0.033-0.037l-0.015-0.045l-0.006-0.041l-0.001-0.062l-0.008-0.03
	l-0.023-0.02l-0.07-0.035l-0.02-0.016l-0.004-0.048l0.014-0.048l0.029-0.053l-0.002-0.048l0.026-0.049l0.061-0.087l0.013-0.048
	l0.003-0.104l0.011-0.057l0.052,0.037l0.042,0.041l0.048,0.032l0.072,0.008l0.128-0.279l0.089-0.147l0.092-0.041l0.016-0.073
	l-0.059-0.151l-0.015-0.083l0.018-0.213l-0.013-0.057l-0.162-0.43l-0.023-0.024l-0.043-0.007l-0.076,0.03l-0.042,0.002l-0.092-0.009
	l-0.071,0.014l-0.065,0.021l-0.079,0.009l-0.079-0.021l-0.042-0.048l-0.051-0.125l-0.046-0.051l-0.116-0.082l-0.043-0.045
	l-0.029-0.075l-0.021-0.17l-0.035-0.081l-0.044-0.053l-0.028-0.022l-0.029-0.013l-0.026-0.02l0.009-0.027l0.02-0.029l0.007-0.019
	l-0.012-0.045l-0.017-0.275l-0.033-0.061l-0.04-0.056l-0.029-0.063l-0.062-0.273l-0.259-0.49l-0.082-0.259l0.03-0.266l0.075-0.167
	l0.036-0.036l0.04,0.008l0.093,0.083l0.043,0.025l0.21,0.075l0.219,0.053l0.265,0.004l0.123,0.017l0.077,0.057l0.077,0.096
	l0.203,0.111l0.094,0.067l0.029-0.013l-0.049-0.074l-0.229-0.167l-0.13-0.134l-0.085-0.066l-0.086-0.027l-0.059,0.01l-0.029,0.024
	l-0.024,0.024l-0.047,0.014l-0.018-0.01l-0.166-0.063l-0.023,0.002l-0.003-0.011l0.025-0.05l0.025-0.008l0.042-0.001l0.039-0.018
	l0.014-0.056l-0.167,0.018l-0.118-0.087l-0.182-0.241l0.079-0.036l0.08-0.021l0.051,0.015l-0.003,0.072l0.153-0.055l0.121-0.005
	l0.105,0.037l0.109,0.075l0.157,0.197l0.087,0.077l0.134,0.014l-0.115-0.101l-0.1-0.109l-0.021-0.052l-0.018-0.076l-0.003-0.069
	l0.025-0.024l0.313,0.101l0.064,0.011l0.039-0.009l0.019-0.054l-0.027-0.038l-0.05-0.027l-0.048-0.02l-0.028-0.005l-0.039-0.002
	l-0.039,0.003l-0.027,0.007l-0.078-0.047l-0.031-0.013l-0.192-0.034l-0.052,0.008l-0.078-0.031l-0.263-0.305l-0.051-0.036
	l-0.126-0.047l-0.032-0.02l0.011-0.038l0.04-0.053l0.047-0.046l0.038-0.017l0.06-0.011l0.06-0.033l0.082-0.062l0.414-0.189
	l0.118-0.025l0.075,0.04l0.15,0.222l0.125,0.252l-0.045-0.012l-0.021,0.043l0.113,0.059l0.082,0.095l0.114,0.228l0.062,0.087
	l0.161,0.164l0.064,0.094l0.037,0.115l0.026,0.048l0.051,0.029l0.049,0.015l0.048,0.021l0.083,0.051l0.156,0.145l0.092,0.053
	l0.118,0.002l-0.131-0.132l-0.036-0.053l-0.101-0.274l-0.256-0.301l-0.017-0.097l0.167,0.006l0.071,0.022l0.071,0.045l0.146,0.172
	l0.072,0.037l-0.22-0.331l-0.017-0.069l0.097-0.078l0.103-0.043l0.096,0.006l0.071,0.072l0.069,0.089l0.177,0.144l0.069,0.101
	l0.034,0.22l0.044,0.104l0.105,0.048l-0.063-0.121l-0.009-0.064l0.028-0.066l0.183,0.206l0.123,0.075l0.131-0.02l-0.466-0.385
	l-0.202-0.276l-0.201-0.156l-0.023-0.039l-0.06-0.07l-0.024-0.04l-0.027-0.068l0.004-0.038l0.062-0.083l0.069-0.031l0.329,0.017
	l0.309-0.06l0.09,0.004l0.157,0.129l0.022,0.21l-0.016,0.223l0.044,0.174l0.088-0.091l0.085-0.109l0.014-0.076l-0.129,0.004
	l0.016-0.089l-0.005-0.175l0.009-0.084l0.03-0.072l0.044-0.035l0.068-0.005l0.101,0.016l0.179,0.072l0.094,0.056l0.002,0.042
	l-0.063,0.065l-0.025,0.096l0.008,0.183l-0.038-0.023l-0.043-0.018l-0.046-0.007l-0.049,0.006l0.069,0.112l0.093,0.083l0.057,0.096
	l-0.043,0.147l-0.031,0.045l-0.033,0.034l-0.048,0.013l-0.076-0.008l-0.112-0.065l-0.062-0.02l-0.003,0.042l0.068,0.122l0.045,0.033
	l0.072,0.026l0.071-0.001l0.068-0.012l0.037,0.015l-0.032,0.136l-0.005,0.058l-0.02,0.055l-0.096,0.073l-0.124,0.135l0.02,0.011
	l0.021,0.001l-0.004,0.036v0.058l-0.01,0.035l0.14-0.087l0.127-0.288l0.146-0.518l0.09,0.025l0.062,0.047l0.281,0.329l0.026,0.071
	l-0.019,0.054l-0.079,0.113l-0.016,0.07l0.012,0.078l0.034,0.077l0.058,0.055l0.08,0.014l-0.013-0.066l-0.067-0.126l0.008-0.066
	l0.031-0.058l0.017-0.02l0.091-0.032l0.06-0.001l0.036,0.022l0.006-0.003l-0.069-0.137l-0.126-0.113l-0.067-0.084l-0.173-0.287
	l0.002-0.078l0.057-0.035l0.076-0.075l0.08-0.064l0.018-0.089l0.044-0.04l0.2-0.103l0.089-0.007l0.089,0.06l0.051,0.111
	l-0.014,0.113l-0.109,0.223l-0.009,0.057l0.009,0.071l0.028,0.057l0.047,0.013l0.02-0.033l0.035-0.177l0.088-0.204l0.021-0.104
	l-0.037-0.094l0.281,0.052l0.12,0.054l0.021,0.089l-0.139,0.233l-0.063,0.038l-0.064,0.021l-0.048,0.03l-0.021,0.06l0.072-0.008
	l0.087-0.053l0.043,0.001l0.049,0.046l0.085,0.233l0.031-0.081l-0.032-0.241l0.007-0.097l0.045-0.097l0.056-0.078l0.072-0.039
	l0.096,0.017l0.074,0.076l0.02,0.107l0.004,0.118l0.023,0.107l0.001,0.093l-0.025,0.123l-0.001,0.1l0.076,0.03l-0.015-0.078
	l0.014-0.547l0.019-0.061l0.072-0.012l0.093,0.034l0.229,0.123l0.057,0.048l0.046,0.063l0.046,0.086l0.011-0.03l0.034-0.059
	l0.012-0.029l0.287,0.217l0.065,0.118l-0.117,0.114l-0.015,0.021l-0.014,0.038l-0.021,0.041l-0.04,0.031l-0.048,0.01l-0.104,0.002
	l-0.045,0.015l-0.048,0.057l-0.026,0.065l-0.043,0.052l-0.098,0.012l0.053,0.143l0.04,0.059l0.046-0.033l0.017-0.026l0.026-0.028
	l0.033-0.024l0.032-0.018l0.022-0.022l0.03-0.106l0.041-0.03l0.07-0.021l0.074-0.031l0.055-0.056l0.035-0.047l0.123-0.12
	l0.051-0.035l0.179-0.023l0.153,0.063l0.079,0.126l-0.045,0.163l-0.049,0.054l-0.036,0.003l-0.047-0.015l-0.081-0.004l-0.093,0.019
	l-0.063,0.04l-0.036,0.062l-0.014,0.085l0.107-0.038l0.083,0.001l0.079,0.013l0.095-0.007l0.089-0.049l0.049-0.139l0.069-0.06
	l0.041-0.067l0.03-0.023l0.066,0.058l0.051,0.022l0.037,0.031l-0.005,0.053l-0.054,0.108l-0.026,0.084l-0.001,0.083l0.021,0.107
	l0.001-0.077l0.088-0.207l0.032-0.128l0.04-0.038l0.081,0.002l0.071,0.04l0.143,0.174l0.04,0.014l0.079,0.002l0.039,0.006
	l0.025,0.019l0.047,0.056l0.032,0.019l0.151,0.062l0.092,0.09l0.03,0.12l-0.056,0.221l-0.007,0.154l-0.024,0.069l-0.15,0.203
	l0.066,0.002l0.072-0.022l0.066-0.039l0.046-0.05l0.008-0.029l0.006-0.103l0.047-0.139l0.006-0.03l-0.005-0.021l0.001-0.021
	l0.025-0.034l0.031-0.021l0.125-0.048l0.121-0.081l0.058-0.053l0.038-0.052l0.153,0.039l0.455,0.172l0.136,0.07l0.145,0.099
	l0.148,0.047l0.142-0.084l0.154,0.334l0.034,0.028l0.1,0.01l0.071-0.028l0.009-0.019l0.024-0.049l-0.01-0.106l0.031-0.013
	l0.133,0.151l0.072,0.054l0.204,0.074l0.246,0.171l0.195,0.091l0.196,0.062l0.031-0.006l0.049-0.018l0.062-0.014l0.069,0.007
	l0.054,0.023l0.05,0.028l0.045,0.034l0.036,0.035v-0.03l0.019-0.099l0.067,0.057l0.051,0.067l0.118,0.224l0.093,0.127l0.114,0.101
	l0.082,0.056l0.05,0.021l0.049,0.039l0.034,0.1l0.027,0.027l0.12,0.059l-0.002,0.077l-0.056,0.092l-0.038,0.108l0.056,0.186
	l0.155,0.186l0.202,0.155l0.302,0.139l0.182,0.128l0.096,0.045l0.073,0.046l0.219,0.189l0.075,0.038l0.048,0.003l0.046-0.017
	l0.043-0.002l0.038,0.018l0.103,0.078l0.026,0.032l0.065,0.054l0.216,0.079l0.063,0.052l0.057,0.063l0.283,0.202l0.138,0.164
	l0.094,0.082l0.085,0.015l0.043,0.002l0.055,0.026l0.048,0.034l0.028,0.033l0.053,0.096l0.007,0.036l0.009,0.034l0.021,0.03
	l0.046,0.032l0.073,0.035l0.103,0.133l0.143,0.091l0.036,0.163l0.044,0.078l0.219,0.137l0.053,0.067l0.062,0.044l0.226,0.056
	l0.083,0.032l0.06,0.002l0.059-0.021l0.112,0.043l0.058,0.089l0.061,0.023l0.063-0.019l0.11-0.018l0.119,0.043l0.094,0.057
	l0.434,0.406l0.093,0.019l0.134-0.018l0.06,0.071l0.069,0.038l0.087,0.004l0.076,0.003l0.045,0.024l0.073,0.076l0.103,0.07
	l0.043,0.042l0.034,0.055l0.008,0.047l-0.01,0.099l0.007,0.046l0.447,0.103l-0.029-0.126l-0.134-0.056l-0.154-0.035l-0.095-0.066
	l0.229-0.008l0.188,0.072l0.104,0.071l0.084,0.009l0.035-0.014l0.133,0.268l0.071,0.069l0.04,0.018l0.03-0.048l0.075,0.048
	l0.087,0.026l0.065,0.041l0.003,0.093l0.083-0.018l0.032,0.034l0.044,0.009l0.146,0.116l0.246,0.291l0.165,0.103l0.065,0.112
	l0.027,0.058l0.023,0.037l0.047,0.019l0.069,0.027l0.048,0.029l0.12,0.112l0.093,0.039l0.232,0.063l0.065,0.055l0.075,0.043
	l0.63,0.123l0.063,0.032l0.027,0.031l0.062,0.065l0.068,0.05l0.07,0.006l0.109,0.021l0.053,0.02l0.032,0.032l0.061,0.046l0.11,0.03
	l0.197,0.032l0.064,0.052l0.604,0.076l0.113,0.045l0.083,0.013l0.149-0.045l0.115-0.016l0.328,0.085h0.238l0.709-0.158l0.195,0.002
	l0.107-0.022l0.127-0.004l0.044,0.005l0.194,0.073l0.102,0.024l0.119-0.002l0.312-0.046l0.11,0.019l0.163-0.021l0.204,0.011
	l0.041-0.044l-0.044-0.015l0.027-0.03l0.023-0.015l0.213-0.086l0.063,0.044l0.059,0.239l0.137,0.249l0.024,0.073l0.013,0.026
	l0.145,0.16l0.346,0.279l0.139,0.057l0.038,0.023l0.033,0.051l0.012,0.054l0.023,0.033l0.117-0.014l0.039,0.021l0.038,0.029
	l0.046,0.024l0.097,0.024l0.338,0.034l0.031,0.011l0.01,0.016l0.023,0.005l0.096-0.029l0.013,0.002l0.01,0.008l0.023,0.013
	l0.052,0.016l0.051,0.003l0.054-0.006l0.056-0.016l0.083,0.019l0.116,0.07l0.107,0.088l0.057,0.068l0.036-0.03l0.044-0.02
	l0.045-0.008l0.108,0.019l0.055-0.012l0.1-0.034l0.114-0.029l0.051,0.002l0.001,0.041l0.013,0.015l0.034,0.028l0.036,0.037
	l0.02,0.045l0.099-0.123l0.048-0.042l0.487-0.221l0.059-0.012l0.116-0.005l0.045-0.009l0.226-0.111l0.492-0.185l0.133-0.075
	l0.08-0.029l0.048,0.021l0.021,0.047l0.024,0.029l0.038,0.017l0.108,0.015l0.145,0.051l0.03,0.004l0.051-0.011l0.022,0.001
	l0.033,0.018l0.013,0.023l0.01,0.026l0.019,0.021l0.026,0.004l0.034,0l0.034,0.006l0.021,0.022l0.001,0.005l0.018,0.051l0.014,0.027
	l0.063,0.036l0.107,0.082l0.03,0.041l0.024,0.009l0.211,0.147l0.57,0.225l0.208,0.112l0.104,0.124l-0.172-0.007l-0.052,0.013v0.062
	l0.03,0.01l0.049,0.006l0.04,0.018l-0.005,0.073l0.026,0.029l0.036,0.024l0.031,0.016l0.059-0.041l0.091,0.1l0.043-0.011
	l0.029-0.061l0.012-0.018l-0.061-0.033l-0.048-0.045l-0.029-0.051v-0.056l0.224,0.085l0.146,0.144l0.315,0.744L201.436,161.403z
	 M221.313,164.432l-0.045,0.01l-0.082,0.061l-0.043,0.019l-0.036,0.001l-0.018-0.014l-0.01-0.054l-0.011-0.031l-0.051-0.072
	l-0.036-0.079l-0.016-0.088l0.006-0.181l0.043,0.019l0.048-0.112l-0.005-0.044l-0.056-0.036l-0.026-0.034l0.049-0.034l0.079-0.018
	l0.066,0.015l0.005,0.032l0.068,0.199l-0.011,0.052l-0.036,0.047l-0.008,0.049l0.067,0.058l0.194,0.13l0.073,0.073l-0.007,0.026
	l-0.035,0.057l-0.051,0.056l-0.032-0.023l-0.033-0.052L221.313,164.432z M222.772,166.806l-0.01-0.024l-0.008-0.027l-0.003-0.017
	l-0.002-0.035l0.007-0.056l0.012-0.015h0.02l0.023,0.005l0.014,0.001l0.016-0.001l0.014-0.006l0.014-0.014l0.01-0.031l-0.001-0.035
	l0.008-0.036l0.043-0.036l0.064,0.098l-0.028,0.038l-0.104,0.081l0.008,0.046l-0.005,0.038l-0.022,0.036l-0.039,0.034l-0.017-0.023
	L222.772,166.806z M222.442,162.84l-0.039-0.055l-0.041-0.144l0.006-0.045l0.059,0.045l0.051-0.015l0.099-0.077l0.058-0.008
	l0.048,0.043l-0.003,0.071l-0.037,0.071l-0.055,0.043l-0.101,0.064L222.442,162.84z M223.726,163.407l-0.027-0.066l-0.015-0.056
	l0.075-0.111l0.105,0.03l0.083,0.085l0.014,0.056l-0.024,0.026l-0.026,0.047l-0.037,0.045l-0.058,0.02l-0.049-0.023L223.726,163.407
	z M224.567,164.511l-0.049,0.025l-0.037,0.075l-0.027,0.125l-0.008,0.114l0.004,0.041l-0.006,0.042l-0.046-0.006l-0.058-0.023
	l-0.042-0.008l-0.073,0.008l-0.056-0.006l-0.053,0.015l-0.062,0.077l-0.011,0.023l-0.009,0.025l-0.002,0.024l0.003,0.024
	l-0.003,0.017l-0.019,0.006l-0.022,0.001l-0.017,0.01l-0.075,0.109l-0.015,0.04l-0.175-0.029l-0.045-0.027l-0.023-0.053l0.024-0.042
	l0.051-0.031l0.056-0.021l0.042-0.039l-0.032-0.047l-0.05-0.048l-0.014-0.043l0.04-0.036l0.111-0.046l0.036-0.026l0.012-0.04
	l-0.011-0.032l-0.05-0.09l0.044,0.001l0.027-0.01l0.021-0.022l0.025-0.04l-0.058-0.083l0.011-0.129l0.063-0.121l0.1-0.063
	l-0.082,0.142l-0.003,0.034l0.048,0.024l0.057-0.019l0.059-0.028l0.053-0.002l0.088,0.008l0.023-0.068l0.012-0.093l0.063-0.071
	l0.035,0.121l0.034,0.046l0.059,0.03l0.051-0.104l0.085-0.045l0.083,0.022l0.046,0.1l-0.002,0.044l-0.017,0.045l-0.034,0.039
	l-0.055,0.029l-0.021,0.027l-0.045,0.146L224.567,164.511z M229.337,152.121l-0.106-0.097h-0.102l-0.242,0.097l-0.064,0.011
	l-0.043-0.003l-0.032-0.027l-0.027-0.066l0.019-0.03l0.049-0.036l0.044-0.05l0.004-0.068h0.024l0.056-0.007l0.025,0.001l0.001-0.094
	l-0.019-0.029l-0.125,0.01l-0.105,0.022l-0.038-0.021l0.017-0.083l-0.047,0.014l-0.041-0.004l-0.036-0.018l-0.031-0.032
	l-0.028,0.057l-0.047,0.165l0.055-0.006l0.048,0.005l0.039,0.022l0.023,0.045l-0.075,0.002l-0.036-0.003l-0.038-0.009l-0.013,0.056
	l0.01,0.043l0.033,0.027l0.053,0.006l-0.047,0.042l-0.057,0.029l-0.263,0.094l-0.026,0.028l0.043,0.03l0.122,0.009l0.138-0.038
	l0.123-0.073l0.078-0.1l-0.016,0.128l-0.204,0.143l-0.254,0.138l-0.164,0.111l-0.097,0.186l-0.083,0.222l-0.11,0.196l-0.179,0.109
	l0.153-0.281l0.035-0.11l-0.157,0.074l-0.104,0.232l-0.118,0.664l-0.057,0.006l-0.125-0.054l-0.046-0.013l-0.05,0.003l-0.189,0.065
	l-0.022,0.021l0.013,0.025l0.012,0.047l0.007,0.15l0.013,0.033l0.05,0.018l0.058-0.006l0.054,0.006l0.039,0.053l0.073,0.033
	l0.125-0.056l0.202-0.136l0.108-0.012l0.056,0.067l0.048,0.098l0.085,0.078l0.069,0.007l0.051-0.028l0.038-0.035l0.029-0.011
	l0.055,0.032l0.012,0.035l-0.024,0.038l-0.05,0.04l-0.039,0.019l-0.043,0.008l-0.083,0.001l0.097,0.105l0.022,0.044l-0.053-0.005
	l-0.033,0.025l-0.053,0.089l-0.117-0.148l-0.055-0.175l-0.028-0.034l-0.082-0.002l-0.079,0.05l-0.068,0.07l-0.046,0.06l-0.05,0.082
	l-0.038,0.091l-0.017,0.097l0.014,0.097l0.084,0.194l0.001,0.088l-0.069,0.109l0.088,0.021l0.026,0.002l0.037-0.063l0.028-0.069
	l0.04-0.059l0.069-0.032l0.092,0.014l0.02,0.053l-0.028,0.073l-0.055,0.071l0.062,0.034l0.024,0.054l-0.008,0.056l-0.087,0.079
	l-0.003,0.067l0.039,0.126l0.014,0.01l0.024,0.003l0.027,0.008l0.019,0.029l0.002,0.044l-0.022,0.016l-0.031,0.008l-0.022,0.019
	l-0.022,0.033l-0.028,0.023l-0.02,0.025l0.002,0.039l0.007,0.033l0.001,0.031l-0.004,0.062l-0.042-0.045l-0.048-0.01l-0.051,0.002
	l-0.049-0.007l-0.093-0.071l-0.051-0.027l-0.037,0.021l-0.066,0.18l0.033,0.084l0.024,0.013l0.027-0.019l0.043-0.012l0.182,0.03
	l0.029-0.005l0.065-0.034l0.027-0.003l0.033,0.021l0.032,0.066l0.059,0.063l0.022,0.061l0.03,0.123l-0.028-0.002l-0.042,0.054
	l-0.056,0.099l-0.063,0.207l-0.051,0.09l-0.103,0.065l-0.067,0.086l0.022,0.137l0.099,0.229l0.006,0.107l-0.031,0.123l-0.07,0.112
	l-0.104,0.072l-0.102-0.155l0.002-0.053l0.037-0.027l0.049-0.021l0.041-0.035l-0.012-0.018l-0.034-0.025l-0.012-0.043l0.046-0.071
	l-0.08-0.083l-0.043-0.032l-0.017,0.048l-0.084,0.116l-0.06-0.135l-0.068,0.009l-0.027,0.08l0.061,0.077l-0.015,0.05l0.004,0.047
	l0.024,0.042l0.041,0.031l-0.056,0.075l-0.065,0.014l-0.066-0.011l-0.061,0.009l-0.049,0.045l-0.097,0.206l-0.033,0.035
	l-0.051,0.033l-0.12,0.051l-0.009,0.016l0.058,0.011l0.083,0.003l0.067-0.009l-0.017,0.096l-0.002,0.048l0.009,0.048l0.017-0.016
	l0.046-0.03l0.018-0.015l0.023,0.059l-0.013,0.042l-0.021,0.036l-0.004,0.038l0.031,0.031l0.047-0.005l0.04-0.029l0.009-0.041
	l-0.019-0.094l-0.008-0.127l0.015-0.117l0.059-0.064l-0.022,0.04l0.071,0.039l0.035,0.097l0.039,0.218l0.039-0.036l0.014-0.015
	l0.018,0.041l0.009,0.058v0.046l-0.014,0.005l0.038,0.037l0.018,0.001l0.021-0.008l0.051,0.006l0.144,0.076l0.134,0.094l-0.103,0.07
	l-0.103-0.004l-0.109-0.024l-0.114,0.012l-0.098,0.067l-0.024,0.085l0.019,0.093l0.033,0.091l-0.028,0.009l-0.076-0.018l-0.1,0.173
	l-0.067-0.044l0.007-0.029l0.073-0.153l0.052-0.159l0.023-0.051l-0.079,0.102l-0.259,0.255l-0.036,0.113l0.018,0.087l0.007,0.09
	l0.005-0.006l0.014,0.001l0.013,0.006l0.003,0.017l-0.01,0.021l-0.034,0.028l-0.004,0.014l-0.023,0.046l-0.13,0.15l-0.048,0.042
	l-0.07-0.154l-0.048,0.038l-0.092,0.267l-0.129,0.261l-0.095,0.073l-0.17-0.002l0.012-0.072l-0.03-0.192l-0.02-0.075l-0.037-0.035
	l-0.031,0.085l-0.029,0.18l-0.012-0.019l-0.046-0.05l0.01,0.112l-0.004,0.049l-0.034,0.03l-0.051,0.002l-0.043-0.024l-0.034-0.038
	l-0.025-0.041l-0.06,0.285l-0.035,0.057l-0.056,0.023l-0.116,0.009l-0.038,0.024l-0.139,0.154l-0.062-0.103l0.022-0.099l0.051-0.103
	l0.027-0.11h0.093l-0.005-0.127l0.075-0.02l-0.023-0.059L224.91,160l-0.033-0.054l-0.001-0.031l0.029-0.057l0.002-0.029
	l-0.023-0.022h-0.071l-0.02-0.015l-0.022-0.063l0.006-0.011l0.041,0.001l0.083-0.026l0.061-0.035l0.048-0.039l0.039-0.049
	l0.034-0.062l-0.105,0.016l-0.24,0.104l-0.08,0.011l-0.054-0.005l-0.061,0.014l-0.053,0.031l-0.026,0.041l0.01,0.066l0.049,0.022
	l0.067,0.004l0.06,0.015l0.035,0.07l0.053,0.28l-0.001,0.098l-0.058,0.094l-0.094,0.013l-0.112-0.039l-0.11-0.063l-0.044,0.089
	l-0.106,0.053l-0.117,0.034l-0.08,0.035l-0.041,0.069l-0.066,0.223l-0.013,0.089l0.007,0.052l0.032,0.102l-0.009,0.052l-0.046,0.06
	l-0.043,0.009l-0.046-0.011l-0.052,0.005l-0.1,0.057l-0.042,0.062l-0.025,0.074l-0.05,0.094l-0.248,0.333l-0.092,0.174l-0.054,0.204
	l-0.007,0.117l-0.025,0.012l-0.068-0.004l-0.011,0.006l-0.002,0.016l-0.005,0.011l-0.024-0.004l-0.011-0.011v-0.016l0.007-0.012
	l0.007-0.004l-0.021-0.017l0.002-0.019l-0.008-0.011l-0.053,0.009l-0.073,0.059l-0.004,0.101l0.021,0.116l0.003,0.105l-0.057-0.114
	l-0.087-0.337l-0.032-0.065l-0.061,0.032l-0.168,0.118l-0.1,0.105l-0.075,0.034l-0.084,0.019l-0.077,0.007l0.188-0.153l0.07-0.093
	l0.006-0.119l-0.177,0.141l-0.079,0.017l-0.033-0.09l-0.034,0.012v0.043l-0.008,0.041l-0.015,0.042l-0.024,0.042l-0.056-0.014
	l-0.075-0.068l-0.039-0.013l-0.06,0.02l-0.066,0.07l-0.058,0.033l-0.093,0.029l-0.007,0.023l-0.033,0.068l-0.012,0.048l0.003,0.06
	l0.028,0.112l0.114,0.151l0.016,0.047l-0.018,0.053l-0.031-0.01l-0.155-0.152l-0.065-0.086l-0.014-0.067l0.005-0.187l-0.052,0.108
	l-0.093,0.099l-0.604,0.467l-0.005-0.093l0.027-0.066l-0.001-0.063l-0.084-0.087l0.012-0.042l0.023-0.024l0.035-0.009l0.045,0.005
	l-0.009-0.082l0.107-0.099l-0.019-0.058l-0.111-0.121l-0.059-0.049l-0.088-0.044l-0.031,0.01l0.007,0.036l0.065,0.133l0.006,0.076
	l-0.044-0.026l-0.052-0.046l-0.048-0.025l-0.029,0.033l-0.016,0.075l-0.01,0.025l-0.028,0.006l-0.19,0.07l-0.057,0.039l-0.009,0.057
	l0.033,0.025l0.058-0.014l0.061-0.023l0.05-0.009l-0.025,0.039l0.062,0.017l0.055,0.021l0.048,0.031l0.041,0.042l0.03,0.06
	l0.021,0.197l0.079,0.25l-0.024,0.104l-0.14,0.033l-0.067-0.021l-0.042-0.03l-0.046-0.007l-0.08,0.047l-0.051,0.042l-0.024,0.032
	l0.014,0.024l0.063,0.021l0.527-0.057l0.009,0.027l-0.187,0.159l-0.093,0.065l-0.12,0.032l0.05,0.083l0.035,0.1l0.049,0.039
	l0.09-0.102l0.07-0.04l0.05,0.085l0.025,0.131l-0.004,0.095l-0.088,0.081l-0.22,0.023l-0.063,0.077l0.004,0.067l0.033,0.042
	l0.043,0.035l0.04,0.06l0.09,0.074l-0.002,0.027l-0.011,0.028l-0.001,0.021l0.098,0.111l0.019,0.033l-0.001,0.045l-0.039,0.106
	l0.001,0.057l-0.008,0.038l-0.116,0.192l-0.035,0.043l-0.047,0.037l-0.063,0.032l-0.106,0.031l-0.33,0.053l-0.098,0.053
	l-0.083,0.077l-0.066,0.09l-0.048,0.083l-0.031,0.166l0.05,0.177l0.099,0.166l0.115,0.13l0.039,0.022l0.034,0.002l0.03,0.014
	l0.026,0.052l-0.01,0.04l-0.044,0.026l-0.102,0.03l-0.082,0.05l-0.038,0.07l0.011,0.073l0.065,0.057l-0.002-0.066l0.034-0.057
	l0.06-0.045l0.138-0.063l0.109-0.076l0.054-0.027l0.114-0.113l0.062-0.034l0.24-0.073l0.05-0.037l0.031-0.029l0.249-0.184
	l0.044-0.046l0.042-0.054l0.029-0.063l0.035-0.122l0.029-0.055l0.042-0.04l0.043-0.028l0.039-0.035l0.028-0.065l0.054,0.074
	l0.013,0.101l0.028,0.086l0.094,0.033l-0.042-0.129l-0.01-0.063l0.01-0.064l0.032,0.043l0.026,0.046l0.033,0.035l0.054,0.01
	l-0.01-0.035l0.002-0.03l0.006-0.027l0.002-0.027l0.113,0.182l0.074,0.048l0.105-0.055l-0.061-0.049l-0.028-0.014l0.036-0.041
	l0.041-0.035l0.045-0.018l0.054,0.009L222,165.52l0.128-0.011l0.125,0.015l0.097-0.052l0.004-0.039l-0.006-0.047l0.002-0.044
	l0.035-0.031l0.008-0.016l0.071-0.102l0.014-0.083l0.005-0.166l0.035-0.084l0.049-0.054l0.068-0.044l0.17-0.068l0.074,0.012
	l0.025,0.08l0.015,0.104l0.067,0.124l-0.015,0.034l-0.032,0.029l-0.033,0.037l-0.031,0.028l-0.012,0.013l-0.009,0.02l-0.007,0.038
	l-0.046,0.105l0.008,0.042l0.14,0.069l-0.063,0.1l-0.1,0.083l-0.118,0.031l-0.115-0.058l-0.036,0.103l0.026,0.09l0.001,0.079
	l-0.11,0.068l-0.111,0.047l-0.063,0.009l0.007-0.048l0.023-0.064l-0.022-0.035l-0.042-0.001l-0.045,0.04l-0.004,0.051l0.051,0.109
	l0.001,0.048l-0.042,0.042l-0.051,0.001l-0.052-0.012l-0.051,0.003l-0.121,0.07l0.004,0.06l0.165,0.122l0.005-0.065l-0.002-0.024
	l0.049,0.014l0.031,0.044l0.008,0.059l-0.017,0.053l-0.006,0.056l0.043,0.049l0.104,0.073l0.046,0.064l0.021,0.056l-0.005,0.057
	l-0.037,0.07l0.005,0.046l0.045,0.044l0.018,0.041l-0.073,0.032l-0.066-0.002l-0.027-0.036l-0.021-0.116l-0.027-0.011l-0.155-0.034
	l-0.047-0.041l-0.069-0.09l-0.053-0.037l-0.099-0.037l-0.112-0.028l-0.021,0.059l-0.034,0.007l-0.037-0.004l-0.033,0.021
	l-0.028,0.058l-0.013,0.056l0.012,0.031l0.048-0.02l0.066,0.047l0.132-0.078l0.076,0.032l-0.015,0.101l0.082,0.151l-0.041,0.112
	l-0.045,0.031l-0.118,0.033l-0.043,0.033l-0.054,0.085l-0.03,0.029l-0.055,0.035l-0.208,0.093l-0.148,0.033l-0.025,0.009
	l-0.041,0.023l-0.057-0.009l-0.06-0.016l-0.052-0.002l-0.025,0.03l0.038,0.034l0.062,0.03l0.045,0.013l-0.063,0.098l-0.117,0.023
	l-0.137-0.019l-0.121-0.033l-0.041,0.007l-0.002,0.044l0.007,0.055l-0.005,0.04l-0.051,0.031l-0.132,0.036l-0.054,0.039l0.012-0.046
	l0.027-0.04l0.038-0.036l0.044-0.034l-0.009-0.03l-0.108,0.053l-0.09,0.062l-0.077,0.031l-0.067-0.036l-0.016,0.151l-0.028,0.06
	l-0.071,0.064l-0.165,0.094l-0.175,0.073l-0.067,0.039l-0.118,0.117l-0.062,0.037l-0.028,0.022l-0.023,0.067l-0.032,0.028
	l-0.059,0.018l0.002-0.022l0.016-0.037l-0.015-0.03l-0.08-0.01l-0.019,0.047l0.025,0.163l-0.006,0.074l-0.019,0.082l-0.029,0.082
	l-0.036,0.07l-0.047,0.06l-0.114,0.104l-0.045,0.049l-0.062,0.142l-0.042,0.064l-0.073,0.04l0.057-0.171l0.007-0.054l-0.013-0.062
	l-0.027-0.055l-0.009-0.063l0.036-0.083l0.033,0.034l0.08,0.109l0.045-0.165l0.036-0.083l0.042-0.072l0.021-0.09l-0.027-0.102
	l-0.088-0.172l-0.02,0.033l-0.039,0.051l-0.012,0.024l-0.03-0.005l-0.036-0.001l-0.035,0.005l-0.03,0.017l-0.025,0.036l0.003,0.025
	l0.013,0.018l0.004,0.01l-0.008,0.026l0.005,0.043l-0.003,0.019l-0.022,0.016l-0.031-0.001l-0.029-0.008l-0.018-0.001l-0.096,0.05
	l-0.02,0.013l-0.016,0.027l-0.003,0.024l0.019,0.068l0.02,0.028l0.029,0.013l0.027,0.008l0.014,0.011l-0.011,0.079l-0.044,0.049
	l-0.058,0.043l-0.055,0.06l0.058,0.048l-0.014,0.047l-0.038,0.048l-0.014,0.048l0.04,0.047l0.054,0.005l0.044,0.015l0.011,0.079
	l-0.014,0.062l-0.034,0.035l-0.053,0.021l-0.076,0.023l-0.035,0.033l0.017,0.048l0.036,0.057l0.025,0.056l0.2-0.123l0.108-0.129
	l0.057-0.042l0.033,0.047l-0.037,0.095l-0.187,0.209l-0.022,0.112l0.008,0.112l-0.033,0.268l0.01,0.121l-0.005,0.049l-0.057,0.12
	l-0.004,0.054l0.035,0.116l-0.012,0.023l-0.024,0.027l-0.005,0.03l0.044,0.037l-0.285,0.933l-0.022,0.178l0.036,0.255l-0.012,0.257
	l0.044,0.271l-0.061,0.249l0.063,0.37l-0.032,0.167l-0.067-0.224l-0.024-0.038l-0.021,0.032l-0.064,0.212l-0.006,0.057l0.008,0.058
	l0.038,0.042l0.058-0.007l0.057-0.035l0.039-0.043l0.034,0.061l-0.01,0.043l-0.023,0.042l-0.008,0.057l0.075,0.25l-0.006,0.012
	l-0.055,0.063l-0.008,0.026l0.012,0.016l0.021,0.012l0.015,0.021l0.019,0.011l0.031-0.012l0.032-0.009l0.022,0.021l0.016,0.042
	l0.062,0.105l0.125,0.337l0.081,0.075l0.078,0.051l0.258,0.245l0.127,0.089l0.06,0.025l0.045,0.002l0.114-0.034l0.128,0.031
	l0.047-0.001l0.034,0.016l0.128,0.134l0.096,0.036l0.177-0.005l0.091,0.02l0.079,0.04l0.047,0.011l0.055-0.005l0.04,0.019
	l0.214,0.351l0.027,0.076l0.04,0.063l0.064,0.036l0.156,0.052l0.047,0.05l0.065,0.165l0.051,0.063l0.064,0.036h0.048l0.043-0.033
	l0.057-0.066l0.015,0.159l0.226,0.956v0.097l-0.023,0.058l-0.063-0.037l-0.031,0.008l-0.007,0.053l-0.05,0.091l-0.02,0.05
	l-0.004,0.07l0.009,0.067l0.039,0.134l-0.001,0.051l-0.042,0.092v0.055l0.035,0.116l0.005,0.05l-0.008,0.063l-0.027,0.074
	l-0.059,0.105l-0.073,0.085l-0.078,0.016l-0.049-0.021l-0.133-0.04l-0.181-0.103l-0.23-0.017l-0.125-0.021l-0.129-0.11l-0.114-0.026
	l-0.312-0.025l-0.082-0.021l-0.095-0.041l-0.052-0.017l-0.052,0.002l-0.097,0.059l-0.077,0.083l-0.086,0.068l-0.122,0.014
	l-0.077-0.044l-0.076-0.061l-0.082-0.017l-0.161,0.15l-0.094,0.012l-0.101-0.019l-0.095-0.036l-0.099,0.006l-0.073,0.078
	l-0.058,0.095l-0.049,0.057l-0.053,0.002l-0.052-0.021l-0.081-0.042h-0.062l-0.101,0.018l-0.065-0.008l-0.002,0.052l-0.021,0.047
	l-0.041,0.036l-0.063,0.016l-0.045-0.015l-0.111-0.121l-0.043-0.005l-0.289,0.086l-0.043-0.009l-0.565-0.296l-0.429-0.291
	l-0.054-0.057l0.085-0.186l-0.008-0.102l-0.051-0.087l-0.078-0.064l-0.025-0.029l0.003-0.025l-0.007-0.013l-0.054,0.011
	l-0.023,0.008l-0.044,0.026l-0.019,0.015l-0.048,0.09l-0.041,0.047l-0.054,0.006l-0.131-0.034l-0.107,0.006l-0.237,0.066
	l-0.274,0.037l-0.147-0.012l-0.179,0.042l-0.082-0.004l-0.079,0.059l-0.074-0.011l-0.08-0.03l-0.099-0.001l0.051,0.266l-0.021,0.141
	l-0.098,0.085l-0.257-0.146l-0.251-0.021l-0.155,0.01l-0.063-0.032l-0.063-0.045l-0.075-0.04l0.244-0.183l0.134-0.071l0.134-0.036
	l0.08-0.003l0.081,0.007l0.075,0.014l0.061,0.02l0.053-0.012l0.02-0.063l-0.025-0.069l-0.084-0.028l0.006-0.045l0.039-0.135
	l0.003-0.064l-0.153-0.599l-0.17-0.613l0.003-0.052l0.02-0.043v-0.038l-0.112-0.073l-0.532-0.6l-0.389-0.446l-0.069-0.027
	l-0.104,0.014l-0.111-0.01l-0.104-0.023l-0.144-0.056l-0.179-0.094l-0.09-0.068l-0.019-0.008l-0.136-0.004l-0.072-0.029l-0.06-0.011
	l-0.062,0.006l-0.08,0.022l-0.071,0.036l-0.03,0.044l-0.019,0.052l-0.037,0.058l-0.083,0.056l-0.411,0.15l-0.083,0.039l-0.068,0.05
	l0.008,0.023l-0.018,0.03l-0.011,0.071l-0.039,0.119l-0.016,0.034l-0.014,0.058l0.019,0.066l0.055,0.123l0.008,0.127l-0.066,0.005
	l-0.109-0.039l-0.123-0.005l-0.041-0.007l-0.046-0.029l-0.041-0.038l-0.059-0.076l-0.059-0.015l-0.327,0.007l-0.017,0.005
	l-0.02,0.011l-0.025,0.01l-0.033,0.003l-0.014-0.012l-0.04-0.05l-0.019-0.016l-0.104-0.023l-0.435-0.001l-0.207-0.024l-0.091-0.026
	l-0.047-0.004l-0.061,0.016l-0.111,0.041l-0.031,0.007l-0.022-0.001l-0.084-0.026l-0.023-0.005l-0.174-0.01l-0.195-0.04l-0.25-0.086
	l-0.191-0.118l-0.024-0.027l0.005-0.041l0.026-0.042l0.009-0.04l-0.041-0.032l-0.155-0.055l-0.085-0.009l-0.095,0.014l0.047,0.012
	l0.042,0.021l0.03,0.026l0.017,0.038l-0.53-0.098l-0.333,0.06l-0.122-0.032l-0.035-0.088l-0.009-0.099l-0.045-0.066l-0.395-0.112
	l-0.277-0.157l-0.067-0.013l-0.047,0.008l-0.058,0.001l-0.056-0.004l-0.153-0.033l-0.024-0.021l-0.027-0.058l-0.027-0.021
	l-0.049-0.012l-0.383-0.035l-0.158-0.044l-0.342-0.034l-0.232,0.008l-0.105-0.029l-0.13-0.16l-0.108-0.051l-0.124-0.031
	l-0.108-0.011l-0.45,0.013l-0.197-0.024l-0.608-0.218l-0.617-0.421l-0.18-0.092l-0.186-0.144l-0.176-0.181l-0.866-0.616l-0.18-0.221
	l-0.063-0.047l-0.168-0.079l-0.044-0.053l-0.123-0.272l0.009-0.068l0.129-0.08l0.025-0.073l0.074-0.003l0.043-0.033l0.035-0.047
	l0.047-0.042l0.063-0.024l0.356-0.053l0.043-0.033l0.018-0.05l0.003-0.493l-0.025-0.104l-0.054-0.087l-0.085-0.066l-0.245-0.121
	l-0.038-0.027l-0.02-0.037l-0.008-0.064l0.027-0.1l0.029-0.066l0.035-0.02l0.103,0.02l0.073-0.032l0.074-0.052l0.108-0.042
	l0.106-0.004l0.206,0.021l0.122-0.021l0.086-0.077l-0.008-0.106l-0.056-0.104l-0.061-0.066l-0.063-0.044l-0.061-0.028l-0.067-0.013
	l-0.079,0.004l0.02,0.187l-0.025,0.068l-0.112,0.011l-0.044-0.012l-0.042-0.025l-0.022-0.037l0.015-0.051l-0.001-0.043l-0.044-0.032
	l-0.058-0.033l-0.038-0.041l-0.028-0.18l0.023-0.21l0.08-0.18l0.144-0.087l0.104,0.013l0.059,0.056l0.089,0.157l0.072,0.045
	l0.212,0.089l0.112,0.067l0.224,0.027l0.063,0.042l0.061,0.07l0.07,0.03l0.014,0.038l-0.1,0.089l0.057,0.033l0.047,0.006
	l0.045-0.017l0.056-0.036l0.005-0.024l0.04-0.063l0.049-0.049l0.038,0.021l0.034,0.036l0.106,0.038l0.034,0.038l0.027,0.038
	l0.047,0.037l0.056,0.029l0.052,0.019l0.066,0.009l0.048-0.004l0.117-0.025l0.233,0.01l0.081,0.011l0.297,0.146l0.395,0.101
	l0.42,0.056h0.341l0.091,0.014l0.102,0.002l0.259-0.071l0.11-0.013l0.024-0.006l0.029-0.013l0.026-0.008l0.015,0.009l0.01,0.027
	l0.018,0.034l0.022,0.019l0.062-0.046l0.065-0.035l0.066-0.026l0.04-0.007l0.09,0.006l0.273-0.038l0.184-0.044l0.045-0.022
	l0.031-0.035l0.086-0.095l0.278-0.145l0.219-0.152l0.103-0.089l0.083-0.092l0.177-0.378l0.1-0.117l0.245-0.466l0.063-0.316
	l0.019-0.241l-0.017-0.104l-0.058-0.166l-0.049-0.141v-0.34l-0.058-0.241l-0.013-0.104l0.024-0.11l0.211-0.524l0.058-0.101
	l0.246-0.333l0.097-0.207l0.033-0.225l-0.011-0.227l-0.13-0.686l-0.008-0.247l0.173-0.644l0.089-0.189l0.14-0.18l0.184-0.147
	l0.198-0.095l0.215-0.054l0.233-0.024l0.241,0.044l0.189,0.13l0.301,0.343l0.903,0.795l0.053,0.077l0.14,0.526l0.12,0.167
	l0.174,0.129l0.598,0.314l0.113,0.026l0.176-0.024h0.119l0.062-0.012l0.139-0.047l0.038,0.004l0.018,0.002l0.035,0.055l0.071-0.052
	l0.073-0.013l0.075,0.002l0.084-0.014l0.781-0.253l0.179-0.025l0.331,0.041l0.175-0.004l0.184-0.029l0.271-0.07l0.174-0.016
	l0.096-0.026l0.075-0.047l0.071-0.061l0.071-0.045l0.074-0.004l-0.01,0.072l0.017,0.075l0.037,0.067l0.044,0.055l-0.049,0.022
	l-0.037,0.035l-0.026,0.039l-0.018,0.033l0.008,0.025l0.065-0.021l-0.021,0.073l-0.043,0.068l-0.013,0.066l0.062,0.067l0.01-0.036
	l0.049-0.104l0.069,0.09l0.025,0.125l0.043,0.107l0.118,0.039l-0.024-0.073l-0.02-0.028l-0.034-0.021l0.025-0.04l0.093-0.019
	l0.041-0.101l-0.004-0.121l-0.045-0.072l-0.061-0.011h-0.05l-0.039-0.016l-0.033-0.059l0.017-0.048l0.063-0.027l0.077-0.011
	l0.055,0.001l0.059,0.02l0.027,0.028l0.018,0.037l0.037,0.043l0.166,0.08l0.063,0.05l0.089-0.024l0.062-0.073l-0.021-0.091
	l-0.099-0.039l-0.116,0.002l-0.073-0.03l0.036-0.132l0.079-0.042l0.438-0.115l0.247,0.034l0.123,0.165l0.074,0.222l0.099,0.2
	l0.034-0.028l0.021-0.033l0.008-0.038l-0.005-0.041l0.054,0.042l0.065,0.025l0.067-0.006l0.059-0.052l-0.146-0.131l-0.025-0.012
	l-0.057,0.002l-0.027-0.012l-0.001-0.018l0.007-0.028v-0.03l-0.089-0.103l0.05-0.091l0.805-0.549l0.427-0.396l0.193-0.112
	l0.048-0.017l0.066,0.018l0.04,0.037l0.064,0.106l0.04,0.036l0.099,0.014h0.114l0.105,0.023l0.066,0.083l0.021,0.003l0.026-0.031
	l0.004-0.047l-0.042-0.046l-0.042-0.028l-0.069-0.063l-0.041-0.022l-0.221-0.05l-0.043-0.047l0.04-0.111l0.065-0.086l0.295-0.277
	l0.13-0.089l0.132-0.147l0.035-0.029l0.088-0.057l0.236-0.267l0.117-0.07l0.027,0.063l0.011,0.12l0.095,0.144l0.001,0.064
	l-0.026,0.053l-0.05,0.007l-0.061-0.021l-0.03,0.003l-0.293,0.32l-0.141,0.065l-0.094,0.095l-0.028,0.085l0.119,0.007l0.101-0.089
	l0.068-0.034l0.045,0.035l0.018,0.125l0.021,0.05l0.063,0.044l-0.029-0.078l-0.029-0.212l0.007-0.081l0.045,0.051l0.241,0.157
	l-0.002,0.031l-0.099,0.028l0.234,0.104l0.093,0.068l0.04,0.095l-0.112,0.205l-0.012,0.062l0.04,0.048l0.054-0.007l0.056-0.039
	l0.042-0.052l0.051-0.009l0.011-0.227l0.035-0.096l-0.04-0.055l0.046-0.056l0.078-0.058l0.055-0.058l-0.143-0.065l0.025-0.073
	l0.098-0.041l0.071,0.027l0.026,0.042l0.048,0.038l0.058,0.024l0.055-0.001l-0.039-0.271l-0.098-0.266l-0.078-0.12l-0.106-0.082
	l-0.067-0.015l-0.117,0.013l-0.058-0.002l-0.059-0.022l-0.012-0.032l0.049-0.121l-0.098-0.029l-0.097-0.063l-0.06-0.083l0.012-0.094
	l0.064-0.073l0.464-0.337l0.397-0.232l0.179-0.145l0.278-0.325l0.456-0.772l0.171-0.19l0.2-0.097l0.056-0.006l0.045,0.003
	l0.036,0.021l0.021,0.051l-0.137-0.002l-0.064,0.017l-0.058,0.043l0.142,0.023l0.061,0.023l0.038,0.052l-0.015,0.068l-0.13,0.111
	l-0.043,0.104l-0.121,0.143l-0.016,0.069l0.004,0.074l-0.029,0.054l-0.052,0.013l-0.064-0.046l-0.004,0.181l0.007,0.045
	l-0.008,0.008l-0.037-0.032l-0.04-0.054l-0.024-0.053l-0.015,0.047l-0.032,0.029l-0.044,0.01l-0.055-0.006l0.012,0.049v0.042
	l-0.023,0.098l0.031-0.012l0.065-0.019l0.031-0.012l-0.05,0.062l-0.09,0.075l-0.039,0.058l0.104,0.01l0.009,0.044h0.057l0.076-0.018
	l0.073-0.005l0.039,0.015l0.071,0.047l0.049,0.006l-0.04-0.056l-0.018-0.018l0.077-0.064l0.214-0.031l0.042-0.05l-0.08-0.012
	l0.029-0.027l0.235-0.082l0.015-0.007l0.028,0.007l0.09,0.044l0.039-0.048l0.034-0.065l0.041-0.051l0.056-0.001l0.102,0.064
	l0.024-0.016l0.032-0.151l-0.011-0.026l-0.099-0.041l-0.06-0.035l-0.031-0.029l-0.091-0.231l-0.015-0.137l0.048-0.115l0.137-0.076
	l-0.01,0.064l0.118-0.006l0.024,0.04l-0.017,0.067l-0.003,0.071l0.065,0.167l0.05,0.074l0.063,0.049l0.079,0.044l0.047,0.041
	l0.086,0.104l0.127,0.077l0.029,0.035l0.013,0.034l0.023,0.02l0.063-0.006l0.014-0.031l0.001-0.011l0.005-0.009l0.024-0.025
	l-0.053-0.028l-0.045-0.043l-0.034-0.051l-0.006-0.016l-0.017-0.04l-0.031-0.033l-0.112-0.068l-0.04-0.035l0.042-0.049l-0.06-0.053
	l-0.094-0.056l-0.061-0.061l-0.014-0.108l0.002-0.065l0.014-0.042l0.074-0.048l0.031,0.034l0.003,0.129l-0.036,0.088l0.005,0.032
	l0.122-0.018l0.166,0.012l0.141,0.056l0.057,0.008l0.035-0.003l0.041-0.008l0.073-0.004l-0.008,0.077l0.022,0.047l0.044-0.002
	l0.058-0.071l0.011-0.049l-0.008-0.167l-0.133,0.067l-0.17-0.001l-0.155-0.056l-0.089-0.098l0.096,0.036l0.023,0.014l0.001-0.05
	l-0.022-0.042l-0.009-0.035l0.035-0.027l0.068-0.036l0.005-0.03l-0.021-0.032l-0.009-0.037l0.001-0.049l-0.009-0.025l0.011-0.018
	l0.063-0.024l0.052-0.014l0.052-0.002l0.1,0.007l-0.025-0.063l-0.043-0.034l-0.117-0.053l0.131-0.026l-0.018-0.063l-0.184-0.134
	l-0.023,0.056l-0.099,0.034l-0.002,0.062l0.022,0.073l0.008,0.055l-0.014,0.048l-0.044,0.063l-0.073-0.003l-0.043,0.014
	l-0.006,0.044l0.019,0.027l0.028,0.013l0.058,0.017l0.011,0.037l-0.025,0.057l-0.078,0.107l-0.081-0.134l-0.017-0.02l-0.047,0.005
	l-0.031-0.015l-0.019-0.031l-0.013-0.041l0.005-0.038l0.046-0.074l0.001-0.044l-0.008-0.047l0.008-0.032l0.099-0.141l0.056-0.058
	l0.05-0.068l0.035-0.089l-0.009-0.08l-0.056-0.195l0.015-0.048l0.035-0.041l0.039-0.081l0.026-0.087l0.005-0.062l0.014-0.076
	l0.074-0.056l0.175-0.064l0.061-0.05l0.073-0.155l0.122-0.094l0.037-0.069l0.043-0.155l0.174,0.106l0.083,0.014l0.108-0.059
	l0.022-0.034l0.026-0.057l0.015-0.055l-0.012-0.027l-0.063,0.012l-0.035,0.045l-0.019,0.052l-0.016,0.03l-0.106,0.009l-0.125-0.128
	l-0.079,0.008l-0.199,0.301l-0.038,0.044l-0.02,0.102l-0.095,0.072l-0.114,0.059l-0.074,0.062l-0.03,0.042l-0.084,0.085
	l-0.038,0.048l-0.013,0.047l-0.004,0.058l-0.014,0.057l-0.077,0.065l-0.02,0.046l-0.014,0.051l-0.018,0.04l-0.239,0.329l-0.01,0.061
	l0.027,0.059l0.017,0.059l-0.046,0.056l-0.061-0.071l-0.042,0.058l-0.05,0.108l-0.084,0.079h-0.105l-0.086-0.06l-0.135-0.163
	l-0.067-0.193l0.127-0.152l0.395-0.279l0.483-0.754l0.219-0.24l0.827-1.314l0.826-1.323l0.076-0.057l0.083,0.004l0.208,0.077
	l0.086,0.005l0.105-0.028l0.114-0.008l0.077,0.032l-0.01,0.093l0.053,0.007l0.022-0.002l-0.028,0.055l-0.039,0.057l-0.03,0.061
	l-0.001,0.064l0.036-0.002l0.155-0.064l0.063-0.007l-0.123,0.168l0.085-0.003l0.091-0.03l0.091-0.012l0.085,0.049l0.015,0.039
	l-0.016,0.031l-0.003,0.03l0.048,0.041l0.036,0.006l0.104-0.007l0.125,0.031l-0.09-0.137l-0.001-0.05l0.054-0.019l0.032-0.017
	l0.012-0.026l-0.009-0.047l-0.03-0.006l-0.165,0.058l0.053-0.07l0.192-0.143l-0.092-0.048l-0.078,0.046l-0.068,0.082l-0.063,0.058
	l-0.088,0.005l-0.061-0.053l-0.025-0.081l0.029-0.127l-0.009-0.043l-0.024-0.017l-0.077,0.071l-0.029-0.019l-0.025-0.042
	l-0.026-0.031l-0.033-0.032l0.007-0.032l0.053-0.073l-0.009-0.032l-0.037-0.038l-0.084-0.061l-0.052,0.06l-0.04-0.018l-0.037-0.044
	l-0.051-0.024l-0.028,0.008l-0.02,0.019l-0.01,0.016l0.004,0.007l-0.343,0.106l-0.042-0.001l-0.02-0.035l0.02-0.044l0.332-0.513
	l0.107-0.095l0.083-0.005l0.19,0.089l-0.01-0.028l-0.014-0.058l-0.011-0.027l0.112,0.051l0.058,0.019l0.06,0.006l-0.059-0.121
	l-0.096-0.049l-0.119-0.009l-0.13,0.004l0.02-0.057l0.094-0.179l0.041-0.04l0.048,0.02l0.145,0.112l0.069,0.03l-0.002-0.068
	l-0.101-0.097l-0.041-0.071l-0.003-0.079l0.026-0.073l0.087-0.141l0.104-0.222l0.05-0.053l0.092-0.022l0.044,0.051l0.01,0.087
	l-0.011,0.088l0.212,0.074l0.238,0.003l0.239-0.069l0.212-0.138l0.242-0.234l0.059-0.083l0.149-0.335l0.073-0.112l0.257-0.236
	l0.03-0.072l0.012-0.087l0.741-1.225l0.077-0.218l0.078-0.43l0.051,0.029l0.042,0.016l0.099,0.013l0.035-0.021l0.071-0.032
	l0.052,0.003l-0.021,0.084l-0.016,0.113l0.069,0.251l-0.023,0.127l0.068,0.035l0.069,0.123l0.116,0.1l0.114,0.495l0.035,0.069
	l0.05,0.033l0.06,0.028l0.027,0.044L229.337,152.121z M262.408,183.063l-0.111,0.103l0.022-0.071l-0.018-0.061l-0.044-0.04
	l-0.06-0.012l0.047-0.067l0.003-0.005l-0.039-0.058l0.031-0.02l0.059-0.006l0.043-0.019l0.051-0.093l0.027-0.037l0.042-0.033
	l0.019,0.071l0.006,0.078l-0.005,0.079l-0.013,0.071l-0.027,0.072L262.408,183.063z M363.808,194.053l-0.004-0.014l0.007-0.003
	l0.013-0.004l0.01-0.009l0.03-0.03l0.034-0.027l0.036-0.024l0.037-0.019l-0.028,0.045l-0.037,0.039l-0.045,0.029L363.808,194.053z
	 M367.867,186.625l-0.069-0.009l0.029-0.006l0.089-0.029l0.058-0.057l0.063-0.052l-0.046,0.065l-0.059,0.057L367.867,186.625z"/></svg>