<?xml version="1.0" encoding="utf-8"?>
<!-- Generator: Adobe Illustrator 15.0.0, SVG Export Plug-In . SVG Version: 6.00 Build 0)  -->
<!DOCTYPE svg PUBLIC "-//W3C//DTD SVG 1.1//EN" "http://www.w3.org/Graphics/SVG/1.1/DTD/svg11.dtd">
<svg version="1.1" id="Ebene_1" xmlns="http://www.w3.org/2000/svg" xmlns:xlink="http://www.w3.org/1999/xlink" x="0px" y="0px"
	 width="1920px" height="1080px" viewBox="0 0 1920 1080" enable-background="new 0 0 1920 1080" xml:space="preserve">

<path fill="#F4E0B6" stroke="#FFFFFF" d="M1131.274,688.596l0.041,0.052l-0.175,0.065l-0.039,0.039l0.03,0.016l0.037,0.004
	l0.034,0.021l0.021,0.032l0.027,0.029l0.015,0.036l-0.032,0.055l-0.079,0.051l-0.02,0.02l-0.017,0.039l-0.006,0.033l0.067-0.004
	l0.062,0.021l0.007,0.023l0.02,0.025l0.084,0.026l0.063,0.055l-0.028,0.046l-0.038,0.039l0.132,0.129l-0.039,0.053l-0.008,0.064
	l0.133-0.066l0.048-0.01l0.032,0.042l0.032,0.012l0.084-0.096l0.045-0.021l0.048,0.001l0.043-0.016l0.043-0.077l0.028-0.02
	l0.026-0.007l0.025-0.013l-0.011-0.065l-0.075-0.035l0.014-0.058l0.023-0.056l0.018-0.054l0.026-0.045l0.044-0.004l0.044,0.016
	l0.001-0.02l0.001-0.02l-0.021-0.051v-0.044l0.011-0.042l0.024,0.021l0.043,0.049h0.022l-0.001-0.039l-0.008-0.045l0.018-0.036
	l0.015-0.081l0.019-0.032l0.021,0.017l0.047,0.071l0.037,0.1l0.03,0.249l0.024,0.062l0.073,0.047l0.176,0.042l0.113,0.046
	l0.079,0.178l0.026,0.038l0.026,0.014l0.025-0.01l0.03-0.035l0.02,0.047l0.025,0.042l0.031,0.015l0.037-0.027l0.049-0.109
	l0.024-0.021l0.038-0.003l0.02,0.021l0.015,0.029l0.028,0.02l0.095,0.014l0.039,0.014l0.088,0.008l0.106-0.1l0.078-0.01l0.063,0.063
	l0.008,0.187l0.082,0.054l0.012-0.15l0.016-0.026l0.045-0.005l0.055,0.019l0.048,0.035l0.031,0.039l0.065,0.059l0.076-0.027
	l0.122-0.108l0.092,0.073l0.398,0.507l-0.004,0.035l-0.002,0.09l0.007,0.035l0.021,0.055l0.01,0.005l0.02-0.007l0.051,0.017
	l-0.019-0.018l0.017-0.012l0.03-0.004l0.029,0.004l0.013,0.017l0.018,0.058l0.012,0.02l0.109,0.087l0.232,0.322l0.011,0.046
	l0.143,0.334l0.018,0.062l0.015,0.091l0.025,0.057l0.028,0.029l0.03,0.01l0.028,0.017l0.027,0.045l-0.003,0.04l-0.027,0.025
	l-0.012,0.032l0.044,0.062l0.037,0.021l0.144,0.026l0.146,0.071l0.081,0.022l0.047-0.035l0.045-0.097l0.071-0.05l0.095-0.003
	l0.114,0.035l-0.008,0.04l0.009,0.06l0.023,0.059l0.042,0.033l0.049,0.021l0.016,0.029l0.005,0.04l0.02,0.063l0.075,0.048
	l0.103,0.03l0.042,0.044l-0.11,0.084l-0.009,0.03l0.031,0.042l0.042,0.04l0.028,0.018l0.038,0.037l-0.01,0.057l-0.022,0.061
	l-0.004,0.049l0.063,0.115l0.062,0.059l0.066,0.013l0.077-0.026l0.05,0.036l0.227,0.222l-0.001,0.062l-0.036,0.107l-0.003,0.058
	l0.017,0.016l0.066,0.023l0.019,0.028l-0.007,0.032l-0.026,0.019l-0.028,0.012l-0.014,0.015l0.014,0.119l0.034,0.098l0.055,0.088
	l0.163,0.18l0.084,0.062l0.193,0.105l0.119,0.129l0.004,0.162l-0.088,0.342l0.002,0.105l0.014,0.107l0.087,0.265l0.012,0.086
	l0.025,0.055l0.029,0.027l0.032,0.012l0.029,0.016l0.026,0.046l0.007,0.094l-0.026,0.212l0.015,0.088l0.104,0.313l0.255,0.478
	l0.213,0.399l0.253,0.249l0.077,0.05l0.065,0.069l0.039,0.128l0.04,0.236l0.094,0.176l0.644,0.536l0.086,0.101l0.028,0.08
	l-0.004,0.109l0.028,0.132l0.051,0.12l0.07,0.078l0.037,0.013h0.049l0.054-0.011l0.05-0.02l0.05-0.015l0.039,0.008l0.031,0.012
	l0.105-0.001l0.076,0.064l0.141,0.148l0.097,0.046l0.079,0.022l0.068,0.037l0.06,0.088l0.064,0.117l0.071,0.086l0.084,0.059
	l0.867,0.306l0.275,0.172l0.079,0.007l0.008,0.024l0.283,0.088l0.372,0.041l0.174-0.025l0.271,0.09l-0.063,0.065l-0.835,0.779
	l-0.238,0.137l-0.837,0.119l-0.259,0.123l-0.185,0.129l-0.033,0.034l-0.033,0.059l-0.04,0.12l-0.029,0.058l-0.107,0.096l-0.136,0.06
	l-0.279,0.064l-0.2,0.097l-0.453,0.478l-0.177,0.082l-1.41,0.313l-1.014,0.638l-0.061,0.037l-0.028,0.035l0.006,0.042l0.02,0.049
	l0.012,0.057v0.585l-0.044,0.283l-0.199,0.536l-0.074,0.572l0.04,0.071l0.534,0.14l1.948,0.973l0.138,0.193l0.15,0.117l1.356,0.376
	l1.359,0.373l0.081-0.011l0.034-0.036l0.034-0.029l0.039-0.02l0.045-0.012l0.077,0.006l0.235,0.055l0.061,0.026l0.05,0.051
	l0.04,0.008l0.037-0.004l0.045,0.016l0.045,0.033l0.097,0.105l0.037,0.056l0.021,0.048l0.031,0.025l0.066-0.012l0.175-0.059
	l0.128-0.02l0.123,0.026l0.117,0.062l0.34,0.248l0.378,0.148l0.111,0.063l0.247,0.226l1.24,1.129l0.76,0.943l0.339,0.338
	l0.285,0.064l0.097-0.046l0.153-0.038l0.105-0.031l0.235,0.524l0.08,0.333l0.01,0.345l-0.056,0.367l-0.001,0.093l-0.066,0.5
	l0.02,0.089l0.127,0.047l0.021,0.072l-0.018,0.016l-0.078,0.051l-0.025,0.022l-0.012,0.042l0.002,0.104l-0.004,0.04l-0.123,0.298
	l-0.235,0.405l-0.036,0.101l-0.055,0.152l0.027,0.289l-0.008,0.152l0.006,0.067l0.017,0.052l0.156,0.288l0.013,0.061l-0.013,0.073
	l-0.077,0.11l-0.026,0.052l-0.009,0.112l0.012,0.114l0.075,0.359l0.058,0.529l0.004,0.269l0.033,0.277l-0.001,0.091l-0.03,0.084
	l-0.195,0.3l-0.046,0.097l-0.024,0.114l0.009,0.15l0.099,1.634l-0.031,0.241l0.018,0.065l0.074,0.113l0.028,0.057l0.016,0.063
	l-0.003,0.122l-0.053,0.345l-0.041,0.104l-0.476,0.708l-0.185,0.099l-0.004,0.108l-0.022,0.135l-0.062,0.221l-0.058,0.061
	l-0.05,0.175l-0.031,0.097l0.014,0.016l0.016,0.028l0.017,0.026l0.003,0.062l-0.004,0.031l0.006,0.053l-0.011,0.033l-0.022,0.015
	l-0.066-0.017l-0.019,0.017l-0.014,0.062l0.002,0.042l0.028,0.038l0.064,0.043l0.057,0.022l0.085,0.045l0.093,0.026l0.102,0.047
	l0.07,0.068l0.061,0.083l0.069,0.065l0.101,0.019l0.076-0.042l0.149-0.058l0.062-0.045l0.082-0.154l0.057-0.026l0.105,0.074
	l0.07,0.094l0.108,0.063l0.282,0.553l0.079,0.091l0.005,0.093l0.067,0.326l0.029,0.285l0.024,0.09l0.048,0.09l0.055,0.062
	l0.119,0.091l0.067,0.069l0.037,0.063l0.064,0.165l0.011,0.063l0.002,0.189l0.024,0.097l0.073,0.15l0.007,0.073l-0.049,0.058
	l0.019,0.042l0.001,0.11l-0.008,0.108l-0.012,0.034l0.021,0.076l0.018,0.109l0.002,0.112l-0.026,0.085l-0.032,0.035l0.044,0.048
	l0.114,0.058l0.125,0.02l0.229-0.03l0.118,0.003l0.11,0.045l0.1,0.086l0.089,0.104l0.074,0.112l0.119,0.273l0.113,0.197l0.058,0.219
	l0.01,0.025l0.031,0.078l0.045,0.052l0.05,0.03l0.044,0.041l0.054,0.15l0.041,0.046l0.05,0.039l0.054,0.051l0.294,0.478l0.021,0.058
	l0.039,0.146l0.009,0.07l0.01,0.037l0.071,0.076l0.215,0.396l0.175,0.225l0.222,0.164l0.248,0.1l0.985,0.197l0.235-0.024
	l0.072,0.008l0.055,0.039l0.093,0.122l0.063,0.058l0.263,0.146l0.139,0.116l0.108,0.128l0.194,0.307l0.148,0.308l0.097,0.131
	l0.075,0.023l0.063-0.049l0.084-0.007l0.063,0.061l0.05,0.069l0.043,0.021l0.063-0.035l0.075-0.026l0.076,0.015l0.037,0.055
	l-0.068,0.097l-0.088,0.086l-0.131,0.2l-0.078,0.073l-0.08,0.029l-0.167,0.037l-0.077,0.042l0.616,0.626l0.71,0.482l0.586,0.269
	l0.07,0.032l0.487,0.226l0.608,0.28l0.752,0.348l0.718,0.329l0.683,0.313l0.545,0.251l0.047,0.009l0.043-0.009l0.062-0.021
	l0.015-0.017l0.036-0.065l0.019-0.024l0.03-0.008l0.066,0.01l0.021-0.002l0.186-0.136l0.088-0.011l0.13,0.04l0.13,0.074l0.087,0.087
	l0.191,0.247l0.025,0.023l0.028,0.02l0.03,0.012l0.05-0.062l0.042-0.041l0.047-0.022l0.059-0.001l0.058,0.024l0.176,0.119
	l0.153,0.148l0.111,0.085l0.103,0.101l0.083,0.142l0.023,0.152l-0.054,0.222l0.052,0.158l0.105,0.181l0.033,0.081l0.038,0.04
	l0.047-0.024l0.058-0.047l0.06-0.027l0.059-0.015l-0.006,0.1l0.003,0.103l0.014,0.072l0.066,0.108l0.161,0.155l0.067,0.108
	l0.029,0.12l0.018,0.233l0.054,0.129l0.053,0.063l0.119,0.099l0.068,0.092l0.099,0.211l0.027,0.044l0.092,0.097l0.122,0.107
	l0.144,0.073l0.059,0.04l0.04,0.042l0.032,0.047l0.06,0.11l0.026,0.02l0.088,0.014l0.024,0.01l0.024,0.047l0.007,0.088l0.019,0.058
	l0.08,0.008l0.025,0.009l0.038,0.01l0.049,0.036l-0.01,0.084l-0.105,0.276l-0.133-0.053l-0.102,0.033l-0.049,0.097l0.028,0.145
	l0.003,0.158l0.02,0.071l0.044,0.067l0.042,0.039l0.037,0.046l0.026,0.086l-0.007,0.011l-0.018,0.012l-0.017,0.02l-0.003,0.032
	l0.011,0.038l0.012,0.026l0.01,0.013l0.005,0.001l0.029,0.048l0.036,0.035l0.024,0.05l-0.015,0.161l0.014,0.063l0.103,0.207
	l0.032,0.021h0.036l0.06,0.021l0.163,0.126l0.388,0.413l0.404,0.572l0.027,0.099l-0.037,0.057l-0.118,0.014l-0.034,0.038
	l-0.036,0.49l-0.318-0.189l-0.085-0.078l-0.027-0.058l-0.012-0.063l-0.02-0.061l-0.05-0.055l-0.059-0.022l-0.063,0.003l-0.057,0.03
	l-0.032,0.06l-0.099,0.007l-0.101,0.026l-0.087-0.003l-0.057-0.082l-0.034,0.06l-0.049,0.066l-0.054,0.033l-0.045-0.035
	l-0.052-0.079l-0.05-0.022l-0.057-0.002l-0.152-0.028l-0.148,0.018l-0.075-0.005l-0.306-0.179l-0.044-0.006l-0.118,0.041
	l-0.07,0.004l-0.063-0.006l-0.033-0.016l-0.467,0.189l-0.46,0.08l-0.224,0.068l-0.187,0.148l-0.158,0.31l-0.075,0.093l-0.062,0.104
	l-0.051,0.042l-0.004-0.016l-0.137,0.002l-0.023,0.008l-0.06-0.028l-0.018-0.02l-0.007-0.037l-0.028-0.079l-0.028-0.036
	l-0.046-0.029l-0.054-0.016l-0.19,0.017l-0.033-0.002l-0.036-0.028l-0.064-0.074l-0.039-0.021l-0.119,0.009l-0.06,0.067
	l-0.048,0.068l-0.178,0.016l0.015,0.204l-0.082,0.009l-0.029,0.016l-0.004,0.119l-0.031,0.137l-0.065,0.073l-0.101-0.07
	l-0.074,0.087l-0.083,0.014l-0.318-0.092l-0.049,0.018l0.025,0.16l-0.031,0.05l-0.094,0.073l-0.192,0.085l-0.044-0.15l-0.023-0.19
	l-0.124-0.025l-0.041-0.05l-0.111-0.078l-0.104-0.043l-0.016,0.053l0.031,0.071l0.022,0.076l-0.008,0.071l-0.061,0.061l-0.269,0.201
	l-0.026-0.02l-0.053-0.13l-0.024-0.038l-0.023,0.013l-0.034,0.038l-0.046,0.033l-0.055,0.006l0.022-0.029l0.039-0.104l-0.163-0.011
	l-0.025,0.039l0.095,0.123l-0.083,0.005l-0.144-0.064l-0.088-0.013l-0.118,0.074l-0.058-0.003l-0.001-0.115l-0.139,0.003
	l-0.247-0.127l-0.139,0.026l-0.008,0.051l-0.02,0.075l0.024,0.054l0.034,0.047l0.007,0.058l-0.034,0.042l-0.322,0.306l-0.064,0.126
	l-0.021,0.026l-0.075,0.02l-0.135-0.053l-0.097-0.01l-0.316,0.117l-0.161,0.215l-0.04,0.03l-0.493,0.273l-0.745,0.41l-0.84,0.464
	l-0.758,0.42l-0.197,0.109l-0.725,0.397l-0.809,0.447l-0.064-0.143l-0.055-0.188l-0.057-0.073l-0.074-0.044l-0.104-0.039
	l-0.101-0.023l-0.064,0.003l-0.028,0.028l-0.053,0.071l-0.044,0.024l-0.038,0.002l-0.092-0.026l-0.145,0.042l-0.146,0.072
	l-0.032,0.044l-0.034,0.078l-0.045,0.165l-0.035,0.049l-0.188,0.145l-0.161,0.003l-0.084,0.021l-0.048,0.074l-0.045,0.047
	l-0.089,0.028l-0.167,0.017l-0.024,0.084l-0.044,0.055l-0.063,0.027l-0.08,0.004l-0.011,0.094l-0.103,0.026l-0.133,0.003
	l-0.092,0.017l-0.046,0.064l-0.03,0.086l-0.045,0.088l-0.085,0.077l-0.687,0.241l-0.134,0.011l-0.104-0.026l-0.098,0.093
	l-0.094,0.015l-0.308,0.041l-0.188,0.087l-0.229,0.222l-0.095,0.026l-0.203-0.031l-0.069,0.006l-0.042,0.032l-0.071,0.12
	l-0.043,0.045l-0.086,0.069l-0.15,0.178l-0.086,0.075l-0.209,0.105l-0.206,0.069l-0.087,0.044l-0.268,0.184l-0.37,0.174
	l-0.346,0.242l-0.421,0.219l-0.15,0.117l-0.077,0.031l-0.284,0.037l-0.137-0.043l-0.061-0.007l-0.068,0.027l-0.055,0.051l-0.1,0.125
	l-1.245,0.771l0.013,0.058l0.052,0.065l0.041,0.074l0.005,0.1l-0.013,0.083l-0.001,0.085l0.03,0.103l0.029,0.074l0.022,0.077
	l0.009,0.08l-0.005,0.079l-1.428,0.805l-1.43,0.805l-1.436,0.808l-0.071,0.04l-1.056,0.594l-0.312,0.174l-0.648,0.366l-0.104,0.034
	l-0.379-0.02l-0.094,0.022l-0.102,0.01l-0.162-0.036l-0.16-0.061l-0.099-0.062l-0.058-0.117l-0.033-0.134l-0.048-0.11l-0.095-0.07
	l0.035-0.104l-0.016-0.038l-0.006-0.122l-0.412-1.124l-0.164-0.882l-0.011-0.291l-0.02-0.107l-0.274-0.764l-0.056-0.297
	l-0.021-0.286l0.023-0.221l0.043-0.211l-0.004-0.194l-0.062-0.193l-0.517-0.758l-0.137-0.093l-0.015-0.036l0.047-0.023l0.025-0.026
	l0.042-0.063l-0.014-0.04l-0.072,0.049l-0.058,0.013l-0.051-0.01l-0.049-0.022l-0.052-0.036l-0.237-0.221l-0.566-0.35l-0.281-0.103
	l-0.61-0.132l0.095-0.087l0.09-0.136l0.249-0.581l0.087-0.106l0.125-0.075l-0.173,0.029l-0.108,0.139l-0.086,0.166l-0.107,0.122
	l-0.313,0.215h-0.07l-0.052-0.063l-0.008-0.092l0.058-0.09l-0.299-0.333l-0.373-0.261l-0.121-0.112l-0.079-0.122l0.174,0.076
	l0.034,0.003l0.033,0.014l0.087,0.105l0.04,0.034h0.073l0.087-0.032l0.183-0.104l-0.062-0.005l-0.169,0.03l-0.06-0.006l-0.029-0.015
	l-0.024-0.022l-0.053-0.034l-0.086-0.1l-0.042-0.156l0.002-0.17l0.047-0.137l0.256,0.098l0.108-0.025l-0.007-0.169l0.198,0.01
	l0.083,0.022l0.07,0.063l0.005-0.077l-0.022-0.062l-0.046-0.046l-0.058-0.038l0.015-0.01l0.052-0.025l-0.262,0.025l-0.134-0.019
	l-0.072-0.091l0.03-0.11l0.103-0.119l0.125-0.101l0.099-0.058l-0.01-0.025l-0.013-0.014l-0.037-0.024l0.009-0.014l0.011-0.006
	l0.005-0.01l-0.013-0.03l-0.434,0.359l-0.15,0.062l-0.112-0.059l-0.034-0.159l0.026-0.176l0.069-0.109l0.044-0.128l0.06-0.495
	l0.105-0.162l0.009-0.041l-0.002-0.069l-0.023-0.028l-0.062,0.084l-0.06,0.127l-0.02,0.076l-0.009,0.088l-0.033,0.017l-0.045-0.117
	l-0.055,0.123l-0.044,0.371l-0.041,0.16l-0.079,0.123l-0.112,0.115l-0.104,0.029l-0.049-0.132l-0.034,0.114l-0.114-0.007
	l-0.127-0.06l-0.099-0.106l-0.024-0.153l-0.102-0.05l-0.045,0.056l-0.064,0.254l0.02,0.013l0.032,0.023l0.045-0.004l0.048-0.012
	l0.062,0.009l0.015,0.025l0.102,0.11l0.081,0.04l0.108,0.035l0.079,0.073l-0.023,0.147l-0.082,0.004l-0.037,0.008l-0.039,0.002
	l-0.086-0.025l-0.107-0.088l-0.036-0.01l-0.026-0.002l-0.023-0.018l-0.023-0.052l-0.056,0.042l-0.033,0.044l-0.009,0.055
	l0.017,0.069l0.164,0.025l0.052,0.027l0.037,0.062l0.009,0.058l0.002,0.066l0.021,0.088l0.032,0.036l0.095,0.01l0.054,0.024
	l-0.049,0.066l-0.065,0.066l-0.165,0.115l-0.093,0.037l-0.185,0.034l-0.079,0.029l-0.175-0.01l-0.13-0.17l-0.057-0.229l0.035-0.186
	l-0.014-0.037l-0.105,0.097l-0.016,0.126l0.011,0.118l-0.094,0.271l-0.152,0.047l-0.044,0.038l-0.038-0.109l-0.021-0.087
	l-0.037-0.06l-0.092-0.025l-0.06,0.018l-0.087,0.048l-0.081,0.058l-0.04,0.048l-0.079,0.025l-0.327-0.057l-0.504-0.013l-0.076-0.017
	l-0.071-0.158l-0.039-0.399l-0.052-0.172l-0.207-0.086l-0.188-0.131l-0.167-0.18l-0.424-0.764l-0.028-0.155l0.028-0.323
	l-0.005-0.163l-0.053,0.199l-0.047,0.074l-0.059-0.065l-0.015-0.077l-0.005-0.081l-0.016-0.082l-0.044-0.075l-0.052-0.021
	l-0.122,0.012l-0.071-0.074l-0.063-0.045l-0.064-0.032l-0.041,0.001l0.01,0.086l0.248,0.191l0.083,0.112l0.005,0.105l-0.035,0.045
	l-0.054-0.019l-0.05-0.081l-0.313-0.094l0.025,0.075l0.029,0.058l0.039,0.03h0.049l-0.011,0.174l-0.014,0.031l-0.037,0.003
	l-0.121-0.016l-0.026-0.01l-0.054-0.031l-0.092,0.008l-0.099-0.01l-0.072-0.08l-0.131-0.187l-0.35-0.255l-0.114-0.212l-0.023,0.188
	l0.094,0.149l0.137,0.135l0.318,0.472l0.061,0.021l0.066,0.002l0.068,0.024l0.085,0.133l-0.074,0.125l-0.576,0.378l-0.065-0.003
	l-0.003-0.084l0.029-0.11l0.033-0.084l-0.07-0.002l-0.054,0.028l-0.026,0.052l0.017,0.141l-0.029,0.043l-0.055,0.023l-0.063,0.013
	l-0.105-0.049l-0.076-0.125l-0.016-0.116l0.08-0.026l-0.003-0.088l0.025-0.261l-0.044,0.094l-0.06,0.033l-0.063-0.023l-0.058-0.081
	l-0.018-0.081l0.007-0.1l0.04-0.162l0.096-0.189l0.01-0.061l-0.024-0.072l-0.044-0.058l-0.035-0.064v-0.086l0.049,0.025l-0.102-0.22
	l-0.034-0.119l0.037-0.08l0.015-0.021l0,0l0,0l0.005-0.005l0.046-0.139l-0.048-0.072l-0.044-0.071l-0.062-0.115l0.01-0.11
	l0.086-0.186l-0.009-0.12l0.055-0.455l-0.002-0.001l0.027-0.157l0.002-0.138l-0.022-0.288l0.001-0.093l0.028-0.219l0.025-0.087
	l0.042-0.057l0.051-0.041l0.039-0.055l0.008-0.091l-0.163-0.844l-0.027-0.057l-0.09-0.116l-0.034-0.072l-0.021-0.153l0.011-0.295
	l-0.016-0.144l-0.047-0.118l-0.058-0.101l-0.048-0.108l-0.017-0.137l0.028-0.148l0.051-0.15l0.031-0.148l-0.031-0.146l-0.104-0.125
	l-0.13-0.064l-0.141-0.039l-0.138-0.061l-0.114-0.109l0.006-0.101l0.055-0.117l0.038-0.164l-0.031-0.154l-0.078-0.075l-0.084-0.063
	l-0.052-0.108l0.015-0.119l0.116-0.223l0.028-0.129l0.046-0.135l0.107-0.036l0.118-0.01l0.078-0.058l-0.01-0.083l-0.051-0.165
	l0.012-0.051l0.058-0.087l0.03-0.106l0.035-0.227v-0.001l0.23-0.766l0.408-0.955l0.043-0.261l0.006-0.404l0.032-0.119l0.047-0.075
	l0.053-0.035l0.062-0.027l0.071-0.043l0.095-0.162l0.018-0.398l0.099-0.174l0.022-0.026l0.154-0.181l0.073-0.106l0.041-0.123
	l0.016-0.302l0.042-0.104l0.125-0.106l0.056-0.031l0.166-0.09l0.037-0.084l-0.003-0.02l-0.155-1.498l0.042-0.16l0.113-0.049
	l0.11,0.004l0.102-0.017l0.087-0.11l0.689-1.724l0.079-0.13l0.07-0.017l0.072,0.067l0.222,0.364l0.089,0.081l0.131,0.037
	l0.145-0.023l1.172-0.648l-0.045-0.123l-0.015-0.094l0.009-0.094l0.021-0.119l0.019-0.041l0.022-0.021l0.012-0.028l-0.136-0.429
	l-0.042-0.225l-0.02-0.224l0.005-0.188l0.136,0.082l0.129,0.253l0.113,0.032l0.139-0.018l0.398,0.029l0.441-0.033l0.195,0.039
	l0.161,0.177l0.14,0.223l0.186,0.188l0.215,0.094l0.461-0.136l0.213,0.062l0.176,0.171l0.116,0.25l0.079,0.218l0.101,0.205
	l0.244,0.378l0.193,0.21l0.108,0.042l0.131-0.046l0.269-0.188l0.128-0.089l0.028-0.004l0.065,0.012l0.037-0.013l0.021-0.028
	l0.027-0.077l0.013-0.022l0.051-0.021l0.111-0.023l0.052-0.023l0.1-0.093l0.089-0.132l0.05-0.146l-0.021-0.139l-0.063-0.239
	l-0.005-0.22l0.072-0.179l0.172-0.117l0.09-0.148l0.037-0.235l-0.017-0.433l-0.029-0.16l-0.047-0.152l-0.062-0.084l-0.154-0.078
	l-0.063-0.064l-0.033-0.159l0.026-0.179l0.156-0.451l0.183-0.335l0.006-0.038l-0.013-0.076l0.009-0.035l0.018-0.02l0.049-0.019
	l0.044-0.042l0.07-0.041l0.025-0.029l0.009-0.056l-0.013-0.056l-0.007-0.055l0.046-0.087l0.108-0.309l0.037-0.064l0.052-0.055
	l0.053-0.021h0.049l0.045-0.009l0.034-0.043l-0.009-0.144l-0.111-0.104l-0.267-0.13l-0.381-0.263l-0.089-0.029l-0.118,0.034
	l-0.038-0.017l0.018-0.067l0.051-0.113l0.049-0.15l0.081-0.636l0.14-0.444l0.148-0.472l0.034-0.271l0.047-0.096l0.031-0.09
	l-0.026-0.116l-0.191-0.274l-0.054-0.107l-0.034-0.124l-0.014-0.124l0.021-0.428l0.146-0.955l0.083-0.296l-0.007-0.089l-0.047-0.08
	l-0.084-0.112l-0.107-0.187l-0.086-0.203l-0.026-0.14l0.057-0.396l-0.007-0.078l-0.006-0.052l-0.037-0.105l-0.245-0.383
	l-0.109-0.229l-0.059-0.242l0.032-0.222l0.077-0.099l0.185-0.057l0.087-0.064l0.034-0.072l0.011-0.079l0.002-0.077l0.012-0.069
	l0.09-0.178l0.018-0.069l-0.062-0.142l-0.044-0.066l-0.225-0.237l-0.068-0.055l0.141-0.02l0.068-0.022l0.058-0.037l0.057-0.073
	l0.033-0.068l0.042-0.063l0.076-0.053l0.064-0.012h0.175l0.07-0.02l0.062-0.056l0.336-0.515l0.036-0.142l-0.005-0.198l-0.022-0.167
	l0.007-0.077l0.039-0.055l0.063-0.03l0.061-0.019l0.055-0.028l0.047-0.059l0.031-0.203l-0.043-0.245l-0.308-1.014l-0.11-0.17
	l-0.082-0.209l-0.015-0.288l0.026-0.524l-0.01-0.102l-0.023-0.103l-0.08-0.203l-0.1-0.133l-0.087-0.081l-0.134,0.043l-0.027-0.004
	l-0.009-0.109l0.019-0.039l0.199-0.275l0.023-0.047l0.024-0.081l0.047-0.254l0.036-0.084l0.238-0.31l0.316-0.242l0.229-0.28
	l-0.03-0.42l-0.117-0.338l-0.088-0.367l-0.01-0.143l0.006-0.104l-0.023-0.087l-0.096-0.087l-0.19-0.083l-0.079-0.058l-0.056-0.108
	l-0.009-0.119l0.024-0.237l-0.033-0.127l-0.059-0.089l-0.122-0.136l-0.044-0.098l0.005-0.212l0.117-0.139l0.321-0.221l0.063-0.082
	l0.043-0.074l0.029-0.049l0.057-0.127l0.02-0.102l-0.004-0.204l-0.02-0.07l-0.031-0.055l-0.073-0.085l-0.025-0.066l-0.037-0.358
	l-0.255-1.011l-0.104-0.702l-0.004-0.346l0.229-1.635l-0.002-0.07l-0.003-0.094l-0.108-0.171l-0.024-0.11l0.011-0.108l0.039-0.104
	l0.116-0.19l0.019-0.104l-0.011-0.232l0.013-0.258l0.053-0.276l0.08-0.266l0.1-0.235l0.13-0.069l0.192-0.033l0.36-0.014l0.095-0.031
	l0.082-0.077l0.066-0.101l0.05-0.103l0.057-0.197l0.04-0.052l0.107-0.075l0.026-0.034l0.205-0.591l0.058-0.093l0.212-0.22
	l0.063-0.105l0.086-0.237l0.063-0.108l0.179-0.204l0.053-0.082l0.012-0.114l-0.008-0.139l-0.021-0.136l-0.028-0.109l-0.056-0.121
	l-0.068-0.084l-0.083-0.057l-0.104-0.041l-0.037-0.021l-0.029-0.027l-0.032-0.021l-0.04-0.006l-0.071,0.039l-0.021,0.002
	l-0.064-0.038l-0.024-0.039l0.001-0.052l0.053-0.312l-0.004-0.097l-0.127-0.535l-0.02-0.176l-0.056-0.168l-0.016-0.035l-0.03-0.048
	l-0.172-0.165l-0.05-0.087l0.052-0.094l-0.032-0.047l-0.079-0.379v-0.069l0.009-0.039l-0.003-0.035l0.04-0.136l-0.03-0.046
	l-0.04-0.035l-0.063-0.004l-0.028,0.035l-0.043,0.063l-0.045,0.051l-0.034-0.009l-0.071-0.085l-0.093-0.027l-0.107-0.005
	l-0.111-0.022l0.03-0.048l0.013-0.016l-0.016-0.036l-0.056,0.003l-0.171-0.04l-0.045-0.018l-0.028-0.039l-0.009-0.082l-0.035-0.042
	l-0.144-0.008l-0.302,0.067l-0.875,0.42l-0.072,0.02l-0.072-0.01l-0.069-0.052l-0.027-0.055l-0.04-0.158l-0.037-0.093l-0.057-0.067
	l-0.017-0.02l-0.168-0.365l-0.789-1.142l-0.787-1.138l1.042-0.552L1131.274,688.596z M1131.496,688.459l0.039,0.037l-0.083,0.02
	l-0.073-0.037l0.093-0.049L1131.496,688.459z"/></svg>