<?xml version="1.0" encoding="utf-8"?>
<!-- Generator: Adobe Illustrator 15.0.0, SVG Export Plug-In . SVG Version: 6.00 Build 0)  -->
<!DOCTYPE svg PUBLIC "-//W3C//DTD SVG 1.1//EN" "http://www.w3.org/Graphics/SVG/1.1/DTD/svg11.dtd">
<svg version="1.1" id="Ebene_1" xmlns="http://www.w3.org/2000/svg" xmlns:xlink="http://www.w3.org/1999/xlink" x="0px" y="0px"
	 width="1920px" height="1080px" viewBox="0 0 1920 1080" enable-background="new 0 0 1920 1080" xml:space="preserve">

<path fill="#F4E0B6" stroke="#FFFFFF" d="M1224.705,616.84l0.184-0.04l0.132-0.002l0.04-0.001l0.081,0.03l0.04,0.016l0,0
	l0.027,0.071l-0.006,0.072l0.027,0.047l0.053,0.01l0.038-0.023l0.025-0.038l0.019-0.039l-0.019-0.011l-0.041-0.013l-0.022-0.024
	l0.03-0.039h0.001l0.058-0.006l0.05,0.045l0.004,0.005l0.235,0.334l0.06,0.054l0.059,0.03l0.012,0.009l0.162,0.067l0.039,0.022
	l0.04-0.023l0.279-0.089l-0.029-0.151l0.003-0.039l0.025-0.031l-0.067,0.018l-0.097,0.029l-0.07-0.021l0,0l-0.007-0.063l0.051-0.07
	l0.084-0.064l0.083-0.049l0.051-0.021l0.044-0.013l0.021-0.002l0.02-0.003l0.041,0.003l0.039,0.02l0.035,0.032l0.036,0.021
	l0.043-0.01l0.065-0.026h0.124l0.06-0.022l0.059-0.038l0.027-0.003l0.159,0.136l0.034,0.089l-0.03,0.067l-0.001,0.001l-0.113,0.014
	l-0.032,0.013l-0.042,0.018l-0.151,0.175l-0.076,0.06l-0.104,0.03l-0.188,0.026l-0.1,0.049l-0.16,0.171l-0.044,0.02l-0.024,0.01
	l-0.026-0.003l-0.046-0.014l-0.032-0.01l-0.016-0.002l-0.026-0.002h-0.001l0.018,0.088l-0.019,0.064l-0.061,0.051l-0.111,0.046
	l-0.204,0.046l-0.023,0.01l-0.062,0.025l-0.072,0.078l0,0l-0.069-0.021l-0.052-0.019l-0.342-0.229l0.044-0.029l0.033-0.01
	l0.017,0.013l0.003,0.002l-0.002,0.043l0.046-0.003l0.043,0.008l0.021,0.01l0.018,0.01l0.037,0.029h0.002l0.028-0.02l0.024-0.04
	l0.067-0.014l0.078-0.006l0.058-0.013l0,0l0.047-0.036l0.121-0.162l-0.171-0.076l-0.178-0.039l-0.171,0.009l-0.15,0.064
	l-0.107,0.113l-0.055,0.017l-0.082-0.052l-0.057-0.08l-0.002-0.068l0.045-0.041l0.14-0.004h0.036l0.055-0.03l-0.011-0.042
	l-0.101-0.037l-0.074-0.052l-0.016-0.01l0,0l0.047-0.088l0.094-0.079l0.045-0.024l0.005-0.005l-0.023-0.057l0,0l-0.076-0.047
	l-0.088-0.023l-0.058,0.004l0,0l-0.127,0.101l-0.06,0.008l-0.101-0.034l0,0l0.149-0.085L1224.705,616.84z M1224.719,616.201
	l-0.053,0.067l-0.144,0.041l-0.135,0.013l-0.18,0.095l-0.07-0.011l-0.051-0.066l-0.018-0.081l0.048-0.073l0.081-0.065l0.016-0.045
	l-0.039-0.023l-0.038-0.034l-0.035-0.039l-0.027-0.049l0.015-0.035l0.157,0.009l0.041-0.003l0.045-0.017l0.095-0.019l0.068,0.026
	l0.002,0.054l-0.046,0.065l-0.016,0.091l0.035,0.067l0.042,0.007l0.048-0.005l0.049,0.007l0.062,0.001L1224.719,616.201z
	 M1214.479,613.089l0.734,0.423l0.613,0.272l0.351,0.266l0.104,0.048l0.072,0.182l0.162,0.07l0.188,0.036l0.146,0.082l0.138,0.139
	l0.135,0.107l0.293,0.152l0.076,0.063l0.137,0.149l0.082,0.066l0.148,0.072l0.146,0.145l0.07,0.052l0.349,0.199l0.323,0.246
	l-0.073,0.01l0.213,0.122l0.088,0.073l0.098,0.107l-0.012,0.122l0.201,0.136l0.062,0.112l-0.047-0.009l0.053,0.058l0.051-0.009
	l0.042-0.027h0.032l0.102,0.14l0.034,0.032l0.042,0.026l0.042,0.019l0.04,0.023l0.046,0.044l0.117,0.159l0.043,0.045l0.042,0.027
	l0.085,0.039l0.044,0.045l0.033,0.052l0.053,0.111l0.044,0.057l0.522,0.435l0.153,0.162l0.061,0.051l0.244,0.134l0.541,0.422
	l0.183,0.087l0.341-0.016l0.085,0.036l0.051,0.006l0.191-0.033l0.064,0.007l0.043,0.051l0.015,0.056l0.008,0.056l0.021,0.049
	l0.049,0.04l0.102,0.021l0.036,0.022l0.09,0.101l0.071,0.05l0.197,0.046l-0.063,0.051l-0.015,0.069l0.029,0.069l0.072,0.046
	l-0.011-0.045l0.004-0.064l0.028-0.046l0.065,0.01l0.052,0.079l-0.047,0.087l-0.077,0.07l-0.041,0.026l0.037,0.032l0.16,0.063
	l0.123,0.12l0.032,0.024l0.07-0.016l0.096-0.055l0.077-0.067l0.012-0.056l-0.008-0.066l0.061-0.058l0.091-0.037l0.081-0.013
	l0.192,0.062l0.721,0.511l0.027,0.005l0.096-0.022l0.026,0.001l0.064,0.064l0.076,0.051l0.079,0.033l0.072,0.012l0.115,0.256
	l0.252,0.354l0.021,0.012h0.058l0.021,0.008l0.063,0.052l0.062,0.006l0.053-0.031l0.033-0.065l0.098,0.049l0.055-0.02l0.046-0.059
	l0.075-0.071l0.01-0.038l-0.015-0.062l-0.031-0.056l-0.032-0.03l-0.048-0.023l-0.006-0.035l0.021-0.064l-0.032-0.182l-0.053-0.083
	l-0.186-0.081l-0.17-0.13l-0.078-0.035l-0.052,0.033l0.018,0.083l0.002,0.05l-0.101-0.059l-0.07-0.07l-0.156-0.211l-0.039-0.041
	l-0.079-0.062l-0.04-0.042l-0.03-0.053l0.009-0.031l0.02-0.025l0.003-0.04l-0.082-0.151l-0.005-0.058l0.086,0.001l0.027-0.017
	l-0.022-0.035l-0.035-0.092l0.022-0.018l0.013,0.012l0.028,0.039l0.017-0.062l-0.017-0.119l0.002-0.068l0.139,0.064l0.144,0.027
	l0.612,0.052l0.079-0.01l0.106-0.042l0.039-0.01l0.059-0.003l0.075,0.008l0.061,0.02l0.046,0.032l0.028,0.049l0.01,0.065
	l-0.025,0.103l-0.006,0.061l0.009,0.052l0.061,0.188l0.041-0.032l0.041-0.014l0.042,0.01l0.041,0.035v0.02l-0.028,0.042l0.005,0.017
	l0.02,0.012l0.031,0.004l0.013,0.007l0.046,0.02l0.146,0.005l0.049,0.021l0.053,0.044l0.134,0.066l0.059,0.04l0.033,0.044
	l0.031,0.061l0.038,0.055l0.053,0.032l0.034-0.05l0.063-0.025l0.067,0.001l0.05,0.028l0.033,0.027l0.024-0.004l0.02-0.008
	l0.031,0.018l0.027,0.038l0.026,0.074l0.018,0.03l0.096,0.045l0.127-0.017l0.371-0.094l0.088-0.013l0.048,0.004l0.085,0.055
	l0.049-0.053l0.028-0.135l0.062-0.095l-0.003-0.122l-0.022-0.123l0.002-0.104l0.046,0.066l0.058,0.045l0.061,0.006l0.055-0.056
	l-0.007-0.048l-0.046-0.041l-0.024-0.043l0.057-0.064l0.04-0.031l0.01-0.011l0.065,0.001l0.004,0.02l0.015,0.032l0.03,0.022
	l0.059-0.02l0.038-0.008l0.03,0.015l0.032,0.01l0.038-0.023l0.016-0.029l0.007-0.036l-0.001-0.038l-0.004-0.034l-0.047-0.018
	l-0.034-0.026l-0.062-0.074l0.038,0.005l0.054,0.029l0.031,0.009l0.128-0.045l0.037,0.026l0.024,0.037l0.029,0.035l0.049,0.021
	l0.046-0.001l0.017-0.017l0.012-0.026l0.032-0.028l0.08-0.041l0.052-0.008l0.047,0.026l0.141,0.146l0.04,0.022l0.151-0.029
	l-0.072-0.056l0.015-0.044l0.113-0.067h0.042l0.041,0.028l-0.002,0.035l-0.078,0.021l-0.002,0.044l0.345,0.064l-0.006-0.01
	l0.008-0.017l0.024-0.006l0.047,0.021l0.03,0.025l0.084,0.112l0.041,0.112l0.035,0.046l0.077,0.031l0.158,0.001l0.07,0.022
	l0.063,0.077l0.021-0.055l0.023-0.042l0.038-0.031l0.057-0.014l-0.062-0.077l0.121-0.021l0.203-0.154l0.166-0.018l0.193,0.005
	l0.136-0.045l0.272-0.173l0.543-0.21l0.061-0.013l0.097,0.028l0.185,0.103l0.107,0.033l0.276,0.002h0.183l0.189,0.049l0.176,0.094
	l0.145,0.132l0.083,0.042l0.098-0.006l0.09-0.016l0.059,0.015l0.042,0.018l0.147,0.038l0.185,0.125l0.164,0.04l0.314,0.032
	l0.201,0.047l0.081,0.033l0.087,0.053l0.139,0.109l0.057,0.035l0.069,0.021l0.089,0.004l0.198-0.011l0.117,0.01l0.121,0.032
	l0.368,0.171l0.182,0.136l0.084,0.036l0.317-0.098l0.056-0.034l0.09-0.136l0.044-0.04l0.048-0.003l0.188,0.079l0.12,0.021
	l0.044-0.003l0.068-0.026l0.043-0.031l0.07-0.084l0.027-0.025l0.092-0.021l0.218-0.005l0.068-0.017l0.071,0.002l0.083,0.059
	l0.081,0.075l0.069,0.048l0.272,0.013l0.07,0.035l0.018-0.012l0.197,0.061l0.072,0.037l0.014-0.002l0.049-0.009h0.016l0.057,0.034
	l0.1,0.072l0.064,0.024l0.051-0.019l0.034-0.052l0.021-0.052l0.021-0.009l0.035,0.016h0.109l0.047,0.006l0.047,0.026l0.103,0.077
	l0.044,0.024l0.152,0.005l0.02-0.008l0.063,0.044l0.031-0.021l0.005-0.041l-0.016-0.016h-0.034l-0.119-0.033l-0.035-0.015
	l-0.014-0.002l-0.018,0.002l-0.023-0.007l-0.025-0.029l0.012-0.01l0.059-0.035l0.012-0.011l-0.086-0.108l-0.093-0.01l-0.1,0.012
	l-0.089,0.056l-0.042,0.01l-0.011-0.029l0.022-0.045l0.051-0.038l0.23,0.016l0.313,0.093l0.079-0.015l0.111-0.005l0.109,0.081
	l0.139,0.165l0.157,0.103l0.088,0.036l0.065-0.003l0.077,0.018l0.116,0.082l0.459,0.423l0.139,0.06l0.188,0.181l0.012,0.021
	l0.021,0.004l0.186-0.012l0.108-0.032l0.197-0.112l0.067-0.066l0.016-0.068l-0.017-0.071l-0.027-0.08l0.063-0.025l0.038,0.015
	l0.029,0.035l0.049,0.027l0.04,0.003l0.04-0.004l0.041,0.007l0.044,0.035l0.077,0.03l0.349,0.03l0.339,0.133l0.081-0.003
	l0.092-0.044l0.092-0.015l0.091,0.003l0.085,0.011l0.084,0.041l0.234,0.2l0.193,0.102l0.081,0.066l0.107,0.107l0.072,0.055
	l0.064,0.022l0.071-0.026l0.039-0.052l0.03-0.064l0.037-0.063l0.15,0.072l0.138,0.012l0.141-0.043l0.154-0.09l-0.001,0.034
	l0.017,0.087l0.043-0.024l0.022-0.03l0.022-0.05l-0.008-0.001l0.035-0.101l0.011-0.012l0.002-0.085l-0.012-0.084l-0.021-0.044
	l-0.024-0.028l-0.012-0.026l0.021-0.049l-0.061-0.023l-0.038-0.035l-0.021-0.042l-0.004-0.042l0.192,0.007l0.102,0.016l0.06,0.026
	l0.055,0.029l0.072,0.006l0.078-0.005l0.069,0.005l0.074,0.033l0.11,0.119l0.063,0.054l0.274,0.117l0.002,0.048l-0.575,0.981
	l-0.039,0.031l-0.085-0.004l-0.039,0.021l-0.02,0.105l0.093,0.285l-0.038,0.287l0.118,0.112l0.147,0.103l0.07,0.126l-0.028,0.062
	l-0.104,0.106l-0.004,0.061l0.011,0.117l-0.1,0.123l-0.015,0.019l0.011,0.113l-1.12-0.12l-0.259,0.045l-0.136,0.047l-0.062,0.061
	l-0.022,0.366l-0.368-0.07l-0.709-0.218l-0.643-0.265l-0.333-0.033l-0.332,0.029l-0.312,0.063l-0.487,0.014l-0.458-0.148
	l-0.876-0.457l-0.305-0.121l-0.287-0.086l-0.291-0.053l-0.516-0.041l-0.708-0.056l-1.063,0.033l-0.825,0.026l-0.218-0.037
	l-0.69-0.302l-0.757-0.332l-0.811-0.187l-0.797-0.185l-0.382-0.006l-0.351,0.082l-0.4,0.193l-0.141,0.039l-0.582,0.085l-0.326,0.038
	l-0.469-0.065l-0.527-0.073l-0.229,0.013l-0.228,0.046l-0.422,0.154l-0.069,0.046l-0.149,0.189l-0.054,0.039l-0.106,0.046
	l-0.089,0.04l-0.059,0.065l-0.04,0.185l-0.06,0.073l-0.084,0.038l-0.083,0.011l-0.35-0.039l-0.162,0.006l-0.149,0.039l-0.122,0.09
	l-0.041,0.039l-0.154,0.149l-0.113,0.062l-0.25,0.076l-0.031,0.003l-0.043-0.007l-0.156-0.042l-0.099-0.01l-0.114,0.008
	l-0.067,0.045l0.033,0.101l0.004,0.141l-0.099,0.185l-0.251,0.306l-0.07,0.055l-0.24,0.107l-0.085,0.081l-0.016,0.084l0.022,0.193
	l-0.097,0.067l-0.199-0.095l-0.377-0.257l-0.122-0.05l-0.132-0.038l-0.137-0.019l-0.127,0.003l-0.051,0.011l-0.132,0.05
	l-0.153,0.077l-0.018-0.012l-0.011,0.084l0.046,0.071l0.065,0.07l0.046,0.083l0.002,0.109l-0.041,0.104l-0.103,0.185l-0.036,0.204
	l-0.033,0.1l-0.161,0.133l-0.158,0.253l-0.061,0.067l-0.067,0.054l-0.077,0.041l-0.09,0.023l-0.079,0.048l-0.144,0.287l-0.115,0.138
	l-0.272,0.232l-0.194,0.126l-0.025,0.032l-0.036,0.019l-0.077-0.006l-0.048-0.021l-0.096-0.069l-0.055-0.01l-0.299,0.024
	l-0.098-0.007l-0.092-0.029l-0.087-0.05l-0.155-0.128l-0.065-0.035l-0.065-0.004l-0.064,0.004l-0.063-0.01l-0.051-0.026
	l-0.104-0.099l-0.022-0.014l-0.071-0.045l-0.078-0.022l-0.079,0.016l-0.097,0.055l-0.192,0.187l-0.08,0.033l-0.558,0.105
	l-0.053-0.006l-0.052-0.023l-0.031-0.034l-0.032-0.026l-0.061-0.003l-0.049,0.021l-0.032-0.008l-0.028-0.022l-0.039-0.018
	l-0.011-0.012l-0.031-0.043l-0.015-0.016l-0.025-0.004l-0.041,0.021l-0.027-0.003l-0.188-0.099l-0.1-0.038l-0.112-0.014l0.135,0.488
	l0.217,0.779l0.214,0.772l0.208,0.754l0.191,0.693l0.119,0.435l-0.009,0.074h-0.106l-0.078-0.021l-0.069-0.056l-0.083-0.101
	l-0.042-0.032l-0.053-0.01l-0.057,0.005l-0.046,0.02l-0.064,0.015l-0.058-0.029l-0.098-0.09l-0.086-0.058l-0.037-0.013l-0.26-0.029
	l-0.081,0.003l-0.043-0.035l-0.069-0.096l-0.051-0.056l-0.041-0.022l-0.104-0.022l-0.313-0.119l-0.107,0.006l-0.156-0.02
	l-0.048,0.043l-0.063,0.086l-0.293,0.182l-0.111,0.119l-0.046,0.158l0.006,0.128l0.028,0.101l0.05,0.091l0.07,0.1l0.055,0.093
	l0.021,0.085l-0.005,0.077l-0.022,0.067l-0.025,0.025l-0.078,0.038l-0.03,0.023l-0.021,0.086l-0.018,0.021l-0.042,0.022
	l-0.043,0.012l-0.044,0.001l-0.048-0.003l-0.146-0.05h-0.034l-0.143,0.065l-0.312,0.09l-0.139,0.064l-0.266,0.174l-0.031,0.035
	l-0.034,0.079l-0.025,0.031l-0.176,0.115l-0.069,0.064l-0.077,0.136l-0.044,0.048l-0.081,0.056l-0.055,0.059l-0.019,0.073
	l0.031,0.098l-0.076,0.048l-0.644-0.69l-0.435-0.467l-0.438-0.469l-0.339-0.364l-0.192-0.206l-0.582-0.625l-0.329-0.354l-0.06-0.092
	l-0.021-0.09l0.075-0.465l-0.014-0.157l-0.24-0.712l-0.018-0.174l0.062-0.168l-0.184-0.14l-0.116-0.175l-0.365-0.904l-0.019-0.118
	l0.041-0.322l-0.025-0.238l-0.211-0.646l-0.198-0.607l-0.146-0.445l-0.016-0.145l0.033-0.271l-0.037-0.126l-0.073-0.077
	l-0.189-0.116l-0.082-0.068l-0.058-0.089l-0.04-0.08l-0.051-0.071l-0.076-0.052l-0.013-0.01l-0.107-0.036l-0.108-0.024l-0.102-0.037
	l-0.094-0.074l-0.039-0.057l-0.072-0.188l-0.046-0.084L1210.48,622l-0.048-0.074l-0.021-0.096l0.018-0.092l0.057-0.172v-0.081
	l-0.085-0.299l-0.162-0.245l-0.007-0.022l0.003-0.049l-0.005-0.021l-0.021-0.02l-0.049-0.021l-0.018-0.013l-0.111-0.162
	l-0.047-0.044l-0.069-0.026l-0.068-0.013l-0.045-0.033l-0.008-0.193l-0.04-0.087l-0.069-0.066l-0.153-0.055l-0.035-0.029
	l-0.016-0.036l-0.001-0.003l0.002-0.045l0.069-0.062l0.08-0.013l0.086,0.001l0.089-0.017l0.109-0.049l0.05-0.011l0.213-0.008
	l0.042-0.018l0.179-0.17l0.063-0.03l0.107-0.083l0.096-0.231l0.101-0.081l0.43-0.136l0.019-0.396l-0.029-0.098l-0.048-0.1
	l-0.03-0.203l-0.037-0.096l-0.106-0.175l-0.059-0.068l-0.178-0.151l-0.024-0.051l0.021-0.05l0.38-0.489l0.135-0.123l0.092-0.183
	l-0.062-0.403l0.077-0.158l0.093-0.03l0.196,0.032l0.105-0.031l0.073-0.081l0.03-0.106l0.001-0.229l0.122-0.341l0.002-0.006
	l0.063-0.091l0.086-0.058l0.066,0.016l0.053,0.062l0.055,0.081l0.086,0.07l0.057-0.039l0.02-0.097l-0.018-0.101l-0.03-0.041
	l-0.031-0.021l-0.023-0.02l-0.009-0.047l0.019-0.02l0.1-0.13l0.09-0.005l0.102,0.02l0.097-0.004l0.079-0.074l0.015-0.104
	l-0.05-0.085l-0.068-0.078l-0.04-0.09l0.019-0.102l0.116-0.218l0.031-0.108l-0.025-0.236l-0.235-0.746l-0.013-0.22l0.187-0.803
	l0.04,0.035l0.067,0.018l0.12,0.102l0.332,0.113l0.042,0.029l0.067,0.077l0.04,0.035l0.141,0.048l0.029,0.014l0.069,0.055
	L1214.479,613.089z"/></svg>