<?xml version="1.0" encoding="utf-8"?>
<!-- Generator: Adobe Illustrator 15.0.0, SVG Export Plug-In . SVG Version: 6.00 Build 0)  -->
<!DOCTYPE svg PUBLIC "-//W3C//DTD SVG 1.1//EN" "http://www.w3.org/Graphics/SVG/1.1/DTD/svg11.dtd">
<svg version="1.1" id="Ebene_1" xmlns="http://www.w3.org/2000/svg" xmlns:xlink="http://www.w3.org/1999/xlink" x="0px" y="0px"
	 width="1920px" height="1080px" viewBox="0 0 1920 1080" enable-background="new 0 0 1920 1080" xml:space="preserve">

<path fill="#F4E0B6" stroke="#FFFFFF" d="M1169.713,534.9l0.052,0.024l0.051,0.017l0.048,0.025l0.043,0.049v0.001l-0.032,0.14
	l-0.039,0.318h0.001l0,0l-0.001,0.001l-0.033,0.548l-0.07,1.063l-0.049,0.716l-0.022,0.123l-0.048,0.101l-0.727,0.915l-0.158,0.182
	l-0.053,0.106l0.007,0.124v0.001l0,0l0.001,0.001l0.144,0.685l0.054,0.111l0.62,0.937l0.047,0.058l0.062,0.051l0.21,0.105l0,0h0.001
	l0.608,0.287l0.123,0.085l0.107,0.102l0.402,0.463l0.073,0.12l0.04,0.142l0.021,0.222l0.028,0.311h0.002l-0.002,0.001l0,0
	l0.06,0.125l0.252,0.355l0.229,0.524l0.145,0.232l0.068,0.078l0.485,0.554l0.52,0.58l0.067,0.095l0.045,0.105l0.274,1.35h0.001
	l0.081,0.313l0.009,0.146l-0.041,0.124l-0.567,0.769l-0.225,0.599l-0.17,0.452l-0.171,0.451l-0.172,0.451l-0.06,0.158l-0.111,0.292
	l-0.172,0.45l-0.173,0.449l-0.174,0.451l-0.174,0.448l-0.175,0.45l-0.176,0.448l-0.176,0.447l-0.177,0.449l-0.177,0.449
	l-0.179,0.448l-0.178,0.446l-0.179,0.447l-0.386,1.007l-0.334,0.884l-0.132,0.352l-0.275,0.718l0,0l-0.197,0.532l-0.267,0.713
	l-0.269,0.714l-0.146,0.383l-0.125,0.329l-0.271,0.712l-0.177,0.459v0.002h-0.001l0,0l-0.239,0.642l-0.241,0.688l-0.03,0.041
	l-0.043,0.03l-0.232,0.093l-0.067,0.046l-0.03,0.07l-0.172-0.003l-0.453,0.255l-0.122,0.069l-0.071,0.004l-0.185,0.109l-0.074,0.026
	l-0.063,0.007l-0.452-0.055l-0.295,0.009l-0.173-0.026l-0.044,0.007l-0.013,0.017l-0.013,0.055l-0.01,0.019l-0.02,0.011l-0.04,0.01
	l-0.022,0.013l-0.101,0.097l-0.044,0.029l-0.038,0.026l-0.014,0.005l-0.011-0.015l-0.048-0.029l-0.289-0.106l-0.071-0.038
	l-0.052-0.064l-0.035-0.068l-0.044-0.029l-0.075,0.046l-0.038,0.04l-0.039,0.012l-0.045-0.005l-0.053-0.015l0.013-0.007
	l-0.002-0.021l-0.013-0.027l-0.021-0.02l-0.017,0.002l-0.038,0.029l-0.02,0.006l-0.09-0.015l-0.042,0.005l-0.382,0.159l-0.053-0.014
	v-0.002l0,0l0,0h-0.021l-0.017,0.009l-0.016,0.017l-0.012,0.022l-0.007-0.177l0.021-0.287l-0.044-0.107l-0.043-0.036l-0.044-0.131
	l-0.012-0.126l0.018-0.022l-0.017-0.109l-0.156-0.065l-0.049-0.032l-0.29-0.309l-0.024-0.053l-0.146,0.035l-0.039-0.054
	l-0.005-0.077l-0.02-0.092l-0.084-0.096l-0.099,0.007l-0.134-0.156l-0.127,0.003l-0.042-0.013l-0.002-0.215l-0.172,0.007
	l0.044-0.078l0.005-0.042l0.022-0.071l-0.027-0.052l-0.006-0.026l-0.037-0.063v-0.033l-0.017-0.017l0.04-0.094l0.043-0.1
	l0.031-0.073l0.035-0.145l-0.035-0.146l-0.094-0.044v-0.071l0.055-0.074l0.07-0.05l0.038-0.067l0.032-0.086l0.006-0.087
	l-0.039-0.072l-0.056-0.02l-0.077-0.002l-0.075,0.013l-0.051,0.02l-0.099,0.013l-0.075,0.036l-0.058,0.005l-0.044-0.084l0.003-0.021
	l0.028-0.043l0.005-0.024l-0.018-0.039l-0.056-0.059l-0.018-0.032l-0.001-0.049l0.017-0.089l-0.011-0.055l-0.003-0.089l0.037-0.156
	l-0.016-0.104l0.001-0.061l0.033-0.053l0.045-0.057l0.036-0.06l0.059-0.144l0.027-0.003l0.073,0.021l0.035-0.003l0.062-0.047
	l0.027-0.064l0.018-0.064l0.031-0.049l0.06-0.029l0.209-0.036l0.131-0.058l0.051-0.051l0.002-0.072l-0.06-0.069l-0.075,0.008
	l-0.131,0.065l-0.139-0.004l-0.035-0.007l-0.044-0.021l-0.014-0.008l-0.031-0.175l-0.006-0.093l0.003-0.093l0.043-0.188l0.008-0.198
	l0.039-0.077l0.035-0.022l0.081-0.023l0.04-0.03l0.03-0.061l-0.007-0.045l-0.026-0.046l-0.02-0.063l0.005-0.115l0.049-0.211
	l-0.017-0.165l0.016-0.151l-0.004-0.003l-0.042-0.023l-0.123-0.016l-0.058-0.038l-0.063-0.055l-0.013-0.063v-0.061l-0.028-0.05
	l-0.035-0.016l-0.023,0.01l-0.02,0.017l-0.029,0.007l-0.056-0.011l-0.131-0.041l-0.035-0.017l-0.029-0.022l-0.018-0.031
	l-0.005-0.024l-0.002-0.024l-0.01-0.03l-0.033-0.066l-0.026-0.04l-0.04-0.02l-0.071,0.002l-0.017,0.022l-0.031,0.002l-0.081-0.02
	l-0.067,0.016l-0.064-0.003l-0.062-0.025l-0.064-0.045l0,0l-0.052,0.016l-0.085,0.053l-0.083,0.067l-0.045,0.061l-0.007,0.008
	l-0.007,0.008l-0.009,0.005l-0.01,0.003l-0.021-0.01l-0.07-0.032l0.012-0.088l0.048-0.104l0.025-0.087l-0.028-0.066l-0.042-0.05
	l-0.025-0.047l0.023-0.057l0.053-0.021l0.05,0.001l0.01-0.03l-0.071-0.121l-0.055,0.076l-0.071,0.056l-0.088,0.028l-0.099-0.01
	l-0.163-0.073l-0.064,0.005l-0.029,0.087l0.01,0.033l0.051,0.07l0.012,0.042l-0.005,0.048l-0.02,0.034l-0.171,0.142l-0.022,0.007
	h-0.053l-0.021,0.005l-0.014,0.017l-0.02,0.048l-0.011,0.014l-0.136,0.084l-0.077,0.051l-0.07,0.067l-0.068,0.047l-0.077,0.028
	l-0.083-0.003l-0.028,0.006l-0.031,0.013l-0.037,0.028l-0.062-0.057l-0.134-0.071l-0.089-0.08l-0.067-0.03l-0.029-0.027
	l-0.106-0.146l-0.025-0.015l-0.116-0.051l-0.037-0.026l-0.07-0.062l-0.281-0.184l0.011-0.022l-0.011-0.019l0.001-0.035l-0.012-0.029
	l-0.023-0.021l-0.035-0.009l-0.017-0.025l0.003-0.025l-0.002-0.003l-0.01-0.001l-0.027-0.019l-0.014-0.067l-0.002-0.037l0.007-0.042
	l-0.024-0.064l-0.047-0.044l-0.053-0.035l-0.04-0.033l-0.124-0.168l-0.013-0.057l-0.017-0.311l0.017-0.107l-0.097-0.074
	l-0.275-0.144l-0.048-0.146l-0.058-0.051l-0.19-0.213l-0.031-0.056l-0.05-0.006l-0.28-0.086l-0.081,0.015h-0.045l-0.038-0.026
	l-0.036-0.003l-0.043,0.04l-0.032,0.051l-0.01,0.021l-0.043,0.006l-0.024-0.042l-0.021-0.061l-0.029-0.043l-0.031-0.006l-0.142,0.02
	l-0.007-0.02l-0.02-0.04l-0.008-0.025l-0.018,0.014l-0.024,0.052l-0.016-0.023l0.043-0.062l0.03-0.08l0.008-0.084l-0.03-0.075
	l-0.035-0.035l-0.062-0.029l-0.038-0.04l-0.003-0.036l0.052-0.072l-0.046-0.298l-0.009-0.022l-0.061-0.082l-0.063-0.059
	l-0.092-0.061l-0.096-0.049l-0.076-0.022l0.147-0.094l0.058-0.069l-0.01-0.072l-0.038-0.077l-0.007-0.168l0.034-0.012l0.049-0.053
	l0.042-0.066l0.051-0.05l0.066,0.016l0.034,0.044l0.026,0.052l0.037,0.038l0.055,0.005l0.053-0.022l0.093-0.064l0.115-0.024
	l0.259-0.003l0.042-0.045l0.005-0.007l-0.044-0.127l-0.167-0.264l-0.012-0.148l0.067-0.103l0.085-0.032l0.038-0.046l-0.068-0.142
	l0,0v-0.001h-0.001l0.041-0.066l0.146-0.039l0.046-0.067l-0.081-0.094l-0.37-0.517l-0.032-0.056l-0.004-0.04l0.006-0.042
	l-0.019-0.032l-0.077-0.018l0.009-0.058l0.067,0.016h0.056l0.05-0.018l0.086-0.049l0.021-0.007l0.016-0.013l0.017-0.027
	l-0.001-0.031l-0.016-0.028l-0.006-0.03l0.023-0.035l0.047-0.048l0.243-0.13l0.056-0.041l0.176-0.19l-0.005-0.042l-0.063-0.077
	l-0.047-0.042l-0.063-0.043l-0.068-0.032h-0.001l-0.062-0.015l-0.061,0.018l-0.103,0.062l-0.05-0.008l0.013-0.01l-0.009-0.044
	l-0.021-0.067l-0.022-0.031l-0.023-0.023l-0.026-0.019l-0.031-0.013h-0.021l-0.06,0.015l-0.034-0.003l-0.035-0.016l-0.196-0.15
	l-0.052-0.053l-0.026-0.063l-0.016-0.198l-0.101-0.163l-0.119-0.155l-0.072-0.178l-0.027-0.108l-0.043-0.075l-0.048-0.07
	l-0.047-0.087l-0.015-0.097l-0.001-0.097l-0.019-0.092l-0.074-0.08l0.025-0.021l0.03-0.017l0.003-0.001l0.661-0.215l0.188-0.124
	l0.064-0.029l0.073-0.021l0.077-0.01l0.074,0.008l0.147,0.014l0.057,0.028l0.058,0.071l0.061,0.132l0.041,0.032l0.09,0.007
	l0.079-0.012l0.021-0.029l-0.003-0.049l0.01-0.078l0.037-0.064l0.05-0.032l0.058-0.021l0.059-0.035l0.146-0.184l0.06-0.053
	l0.529-0.27l0.119-0.089l0.216-0.59l0.115-0.207l0.396-0.464l0.297-0.559l0.063-0.083l0.025-0.071l0.143-0.389l0.133-0.22
	l0.09-0.087l0.204-0.12l0.664-0.261l0.199-0.032l0.544,0.077l0.149,0.02l0.242-0.046l0.22-0.132l0.445-0.387l0.048-0.065l0.14-0.128
	l0.551-0.201l0.147-0.128l0.488-0.564l0.779-0.906l0.428-0.713l0.148-0.393l0.074-0.117l0.091-0.105l0.065-0.134l0.095-0.295
	l0.174-0.549l0.028-0.081l0.042-0.071l0.051-0.063l0.062-0.056l0.101-0.143l0.208-0.513l0.097-0.167l0.465-0.51l0.778-0.422
	l0.167-0.053l0.073-0.035l0.752-0.686l0.943-1.25l0.256-0.34l0.062-0.175l0.049-0.373l-0.013-0.3l0.021-0.057l0.017-0.084
	l0.063,0.01l0.037,0.038l0.023,0.038l0.016,0.013l0.043-0.026l0.119-0.032l0.01-0.021l0.002-0.034l0.007-0.031l0.02-0.01
	l0.027,0.008l0.044,0.021l0.028,0.008l0.158-0.007l0.026-0.006l0.056,0.028l0.111,0.234l0.068,0.015l0.039,0.003l0.047,0.043
	L1169.713,534.9z"/></svg>