<?xml version="1.0" encoding="utf-8"?>
<!-- Generator: Adobe Illustrator 15.0.0, SVG Export Plug-In . SVG Version: 6.00 Build 0)  -->
<!DOCTYPE svg PUBLIC "-//W3C//DTD SVG 1.1//EN" "http://www.w3.org/Graphics/SVG/1.1/DTD/svg11.dtd">
<svg version="1.1" id="Ebene_1" xmlns="http://www.w3.org/2000/svg" xmlns:xlink="http://www.w3.org/1999/xlink" x="0px" y="0px"
	 width="1920px" height="1080px" viewBox="0 0 1920 1080" enable-background="new 0 0 1920 1080" xml:space="preserve">

<path fill="#F4E0B6" stroke="#FFFFFF" d="M1246.055,536.766l-0.004,0.048l-0.026,0.029l-0.009,0.028l-0.064,0.004l-0.004,0.027
	l-0.021-0.022l-0.035-0.01l-0.05-0.02l0.024-0.071l0.046-0.071l0.044,0.008l0.041,0.026L1246.055,536.766z M1244.15,538.292
	l-0.009,0.056l-0.06,0.035l-0.081,0.029l-0.055-0.025l0.022-0.063l0.06-0.099l0.05,0.014L1244.15,538.292z M1242.748,537.206
	l-0.016,0.021l-0.052,0.027l-0.063,0.02l-0.041-0.001l-0.052-0.04l-0.046-0.026l-0.036-0.029l0,0l-0.028-0.052l-0.008-0.046
	l0.016-0.039l0.04-0.027l0.071,0.001l0.035-0.013l0.035-0.005l0.035,0.003l0.039,0.011L1242.748,537.206z M1240.187,537.947
	l-0.02,0.055l-0.271,0.224l-0.028,0.024l-0.163,0.056l-0.179-0.034l-0.017-0.079l0.016-0.08l0.043-0.074l0.071-0.059l0.078-0.036
	l0.141-0.108l0.068-0.029l0,0l0.022,0.008l0.011,0.004v0.001l0.032,0.031l0,0l0.004,0.003l0.028,0.021h0.002l0.037-0.011
	l0.027-0.002l0.017-0.001l0.023,0.015l0.027,0.019l0.013,0.026L1240.187,537.947z M1246.134,531.481l-0.03,0.102l-0.088,0.028
	l-0.079-0.083l-0.038-0.118l0.013-0.091l0.027-0.038l0.068,0.009l0.096,0.071L1246.134,531.481z M1238.199,538.609l-0.002,0.08
	l-0.069,0.049l-0.09,0.028l-0.078-0.009l-0.012-0.063l0.066-0.064l0.044-0.025l0.059-0.021L1238.199,538.609z M1236.756,539.041
	l-0.037,0.058l-0.143,0.112l-0.031,0.046l-0.029,0.088l-0.065,0.062l-0.229,0.15l-0.085,0.033l-0.011,0.003l-0.074,0.016
	l-0.191,0.021l-0.064-0.001l-0.002-0.028l0.019-0.027l0.019-0.035l0.03-0.031l0.374-0.189l0.274-0.22l0.11-0.048l0.083-0.005
	L1236.756,539.041z M1247.032,529.131l-0.091,0.166l-0.092,0.041l-0.086-0.103l-0.02-0.109l0.049-0.119l0.12-0.138l0.135,0.084
	L1247.032,529.131z M1246.045,529.607l0.091,0.223l0.026,0.096l-0.002,0.263l0.028,0.064l0.002,0.056l-0.067,0.184l0.004,0.06
	l-0.012,0.044l-0.011,0.304l-0.044,0.148l-0.115,0.049l-0.151,0.007l-0.157,0.026l-0.117,0.324l-0.012,0.109l-0.028,0.092
	l-0.077,0.072l-0.181,0.131l-0.057,0.082l-0.04,0.099l-0.059,0.293l-0.114,0.256l-0.035,0.186l-0.03,0.087l-0.192,0.224
	l-0.113,0.182l-0.025,0.095l-0.021,0.041l0,0l-0.013,0.008l-0.022,0.014l-0.053,0.027l-0.034,0.035l0.017,0.042l0.01,0.038
	l-0.019,0.053l-0.029,0.052l-0.028,0.034v0.001l-0.024,0.004l-0.021,0.004l-0.062-0.02l-0.108-0.066l-0.043-0.081l-0.036-0.043
	h-0.037l-0.152-0.069l-0.001-0.07l0.222-0.108l0.021-0.051l0.027-0.015l0.014-0.007l0,0l0.084-0.262l0.32-0.57l0.062-0.073
	l0.027-0.055l0.008-0.017v-0.001l0.066-0.236l0.015-0.114l0.143-0.292l0.034-0.035l0.078-0.066l0.031-0.035l0.015-0.035l0.007-0.059
	l0.022-0.042l-0.036-0.013l-0.041-0.008l-0.005-0.102l-0.06-0.073l-0.185-0.132l-0.093-0.031l-0.113,0.008l-0.103,0.018
	l-0.055-0.004l0.039-0.127l0.665-0.31l0.104-0.152l0.137-0.554l0.359-0.53l0.134-0.134l0.086-0.052l0.127-0.053l0.098-0.018
	l0.035-0.007l0.101,0.035l-0.026,0.08l-0.024,0.082l-0.162,0.254L1246.045,529.607z M1246.598,528.104l-0.046,0.061l-0.151,0.071
	l-0.089-0.091l-0.022-0.137l0.05-0.07l0.061-0.016l0.056-0.025l0.06-0.009l0.01,0.004l0.06,0.03l0.035,0.055l0.002,0.063
	l-0.012,0.034L1246.598,528.104z M1218.171,540.335l-0.027,0.034l-0.058,0.002l-0.107-0.044l-0.087-0.046l-0.063-0.018l0.017-0.056
	l0.049-0.018l0.082-0.03l0.053-0.013l0.045,0.07l0.067,0.049L1218.171,540.335z M1170.086,520.711l0.017-0.01l0.028-0.028
	l0.026-0.013l0.021,0.004l0.02,0.01l0.02,0.003l0.155-0.024l0.03,0.003l0.029,0.016l0.054,0.016l0.056,0.007l0.037-0.009
	l0.051,0.012l0.146,0.062l0.047,0.021l0.053,0.011l0.051,0.019l0.179,0.142l0.063,0.036l0.052-0.086l0.36-0.167l0.002-0.014
	l0.008-0.029l0.015-0.032l0.029-0.021l0.025,0.015l0.022,0.038l0.024,0.029l0.039-0.012l0.044-0.027l0.056-0.011l0.047,0.021
	l0.021,0.071l0.05,0.018l0.037-0.004l0.039-0.009l0.049,0.003l0.035,0.017l0.086,0.052l0.039,0.017l0.042-0.005l0.092-0.031
	l0.032,0.011l0.025,0.04l0.015,0.039l0.018,0.036l0.038,0.031l0.063,0.007l0.092-0.016l0.087-0.026l0.04-0.021l0.053-0.029
	l0.085-0.02l0.015-0.009l0.024-0.015l0.077-0.066l0.187-0.106l0.243-0.22l0.186-0.076l0.084-0.034l0.676-0.414l0.249-0.089
	l0.192-0.108l0.023-0.028l0.159-0.191l0.026-0.067l0.051-0.23l0.029-0.073l0.027-0.042l0.103-0.103l0.046-0.082l0.025-0.031
	l0.044-0.026l0.394-0.143l0.061-0.033l0.046-0.048l0.038-0.078l0.018-0.068l0.012-0.073v-0.075l-0.014-0.077l-0.064-0.223
	l-0.006-0.079l0.012-0.086l0.084-0.224l0.007-0.083l-0.05-0.144l-0.012-0.081l0.005-0.037l0.022-0.065l0.006-0.037l-0.004-0.035
	l-0.039-0.182l-0.002-0.075l0.01-0.072l0.002-0.001l0.025-0.062l0.041-0.042l0.105-0.039l0.05-0.028l0.026-0.037l0.08-0.241
	l0.008-0.027l-0.002-0.059l-0.009-0.038l-0.074-0.17l-0.042-0.242l-0.022-0.042l-0.001-0.054l0.057-0.198l0.173-0.356l0.015-0.047
	l0.039-0.121l0.006-0.173l0,0l-0.022-0.293l0.021-0.155l0.056-0.167l0.128-0.243l0.054-0.063l0.013-0.057l0.011-0.274l0.022-0.073
	l0.155-0.485l0.007-0.223l0.002-0.081l0.019-0.084l0.048-0.078l0.205-0.194l0.025-0.039l0.005-0.053l-0.013-0.074l0.002-0.001
	l0.045-0.027l0.084-0.016l0.303-0.014l0.942,0.077l0.339-0.019l0.17,0.025l0.175,0.062l-0.02,0.036l-0.049,0.089l-0.053,0.229
	l-0.137,0.196l-0.046,0.133l-0.01,0.147l0.041,0.142l0.104,0.118l0.12,0.053l0.151,0.025l0.289-0.007l0.212-0.089l0.077-0.001
	l0.241,0.086l0.055,0.028l0.042,0.047l0.031,0.057l0.001,0.002l0.02,0.063l0.011,0.059l-0.001,0.001l0,0l0.001,0.001l0,0
	l-0.049,0.174l-0.415,0.57l0.011,0.03l0.024,0.024l0.013,0.029l-0.061,0.221l0.012,0.063l0.136,0.129l0.144,0.042l0.305-0.036
	l0.52-0.18l0.062-0.006l0.032,0.021l0.06,0.036l0.051,0.075l0.059,0.051l0.229-0.028l0.101,0.019l0.092-0.003l0.085-0.08
	l0.078-0.195l0.063-0.062l0.1,0.042l0.104,0.069l0.078,0.01l0.08-0.005l0.108,0.024l0.092,0.002l0.093,0.016l0.146,0.015
	l0.077,0.007l0.189,0.046l0.164-0.005l0.014-0.013l0.137-0.113l0.048-0.082l0.044-0.102l0.029-0.109l0.003-0.104l0.031-0.091
	l0.087-0.084l0.209-0.138l0.291,0.281l0.063,0.126l0.088,0.051l0.176,0.169l0.17,0.071l0.43,0.364l0.489,0.272l0.04,0.083
	l0.07,0.078l0.081,0.059l0.07,0.03l0.244,0.054l0.033,0.034l0.021,0.037l0.019,0.028l0.155,0.101l0.178,0.067l0.334,0.062h0.364
	l0.336-0.062l0.662-0.219l0.271-0.137l1.199-0.919l0.098-0.129l0.058-0.13l0.073-0.104l0.147-0.05l-0.022,0.031l-0.038,0.022
	l-0.019,0.014l0.006,0.047l0.314-0.145l0.439-0.282l0.178-0.083l0.165-0.01l0.107,0.128l0.07,0.022l0.155,0.081l0.073,0.021
	l0.099,0.019l0.243,0.111l0.214,0.045l0.185-0.01l0.346-0.06l0.296,0.019l0.065-0.02l0.069-0.039l0.508-0.115l0.071-0.045
	l0.056-0.022h0.167l0.075-0.008l0.671-0.22l0.675-0.141l0.339-0.138l0.934-0.65l0.641-0.375l0.61-0.444l0.644-0.38l0.454-0.598
	l0.299-0.634l0.368-0.61l0.408-0.608l0.385-0.589l0.342-0.634l0.323-0.619l0.727-1.173l0.105-0.152l1.043-1.233l0.153-0.26
	l0.021-0.251l0.126,0.127l-0.104,0.22l-0.175,0.236l-0.088,0.174l-0.018,0.053l-0.047,0.037l-0.099,0.059l-0.035,0.052l-0.049,0.11
	l-0.034,0.054l-0.187,0.155l-0.144,0.153l0.062,0.013l0.052-0.03l0.087-0.102l-0.037,0.077l-0.02,0.026l0.159,0.01l0.165-0.076
	l0.477-0.43l0.068-0.025l0.065-0.036l0.256-0.463l0.006-0.061l-0.04-0.075l-0.359-0.33l-0.075-0.037l-0.065,0.021l-0.074,0.038
	l-0.044-0.054l-0.056-0.177l-0.169-0.022l-0.174-0.069l-0.357-0.201l-0.313-0.117l-0.063-0.032l-0.323-0.241l0.827-0.759
	l0.053-0.062l0.028-0.074l0.001-0.101l0.018-0.087l0.058-0.068l0.073-0.063l0.061-0.067l0.067-0.137l0.195-0.76l0.053-0.077
	l0.206-0.151l0.061-0.068l0.022-0.063l-0.006-0.142l0.031-0.08l0.002-0.067l0.044-0.223l0.011-0.131l-0.013-0.037l-0.046-0.058
	l-0.051-0.121l-0.042-0.055l-0.081-0.079l-0.029-0.019l-0.036-0.007l-0.062,0.009l-0.029-0.006l-0.078-0.064l-0.064-0.148
	l-0.059-0.076l-0.04-0.067l-0.024-0.092l-0.007-0.173l0.123-0.716l-0.019-0.272l-0.016-0.058l-0.034-0.059l0.015-0.053l0.032-0.048
	l0.018-0.043l-0.007-0.046l-0.035-0.091l-0.004-0.05l0.035-0.076l0.127-0.203l0.021-0.05l-0.031-0.078l0.024-0.096l0.082-0.178
	l0.027-0.038l0.01-0.106l0.026-0.089l0.042-0.371l0.038-0.099l0.166-0.202l0.426-0.712l0.082-0.092l0.208-0.157l0.172-0.065
	l0.055-0.034l0.142-0.156l0.061-0.039l0.116-0.049l0.052-0.032l0.045-0.046l0.318-0.509l0.125-0.113l0.02-0.01l0.123-0.066
	l0.051-0.044l0.193-0.303l0.011-0.078l-0.03-0.082l-0.058-0.069l-0.077-0.039l-0.164,0.008l-0.032-0.063l0.005-0.341l0.025-0.163
	l0.059-0.148l0.243-0.295l0.06-0.043l0.063-0.022l0.063-0.016l0.055-0.026l0.035-0.059l0.118-0.339l0.108-0.17l0.032-0.026
	l0.198-0.045l0.151-0.061l0.057-0.036l0.495-0.407l0.156-0.086l0.065-0.057l0.02-0.083l0.002-0.075l0.027-0.155l-0.005-0.069
	l-0.047-0.15l-0.001-0.018l-0.004-0.05l0.022-0.076l0.026-0.039l0.035-0.032l0.079-0.05l0.051-0.018l0.032,0.011l0.029,0.021
	l0.044,0.013l0.176,0.022l0.179,0.049l0.083,0.006l0.193-0.019l0.143,0.056l0.148,0.006l0.078,0.038l0.055,0.06l0.141,0.227
	l0.169,0.001l0.565-0.322l0.036-0.057l0.03-0.062l0.038-0.061l0.053-0.048l0.186-0.129l0.131-0.159l0.03-0.058l0.042-0.048
	l0.062-0.023l0.067-0.013l0.06-0.022l0.015-0.014l0.011-0.011l0.034-0.062l0.028-0.021l0.041-0.006l0.082,0.018h0.039l0.06-0.033
	l0.042-0.057l0.035-0.064l0.041-0.055l0.123-0.09l0.658-0.326l0.229-0.177l0.103-0.103l0.056-0.043l0.07-0.035l0.048-0.004
	l0.026,0.021l0.021,0.029l0.031,0.021l0.132,0.021l0.038,0.011l0.076,0.047l0.052,0.042l0.057,0.02l0.09-0.021l0.066-0.039
	l0.252-0.227l0.054-0.027l0.13-0.04l0.05-0.037l0.226-0.32l0.024-0.077l-0.025-0.095l-0.038-0.082l-0.02-0.083l0.009-0.078
	l0.051-0.068l0.071-0.034l0.273-0.057l0.174-0.1l0.074-0.066l0.055-0.081l0.009-0.041l-0.005-0.039l0.002-0.039l0.031-0.038
	l0.072-0.06l0.026-0.036l0.018-0.044l-0.013-0.084l-0.05-0.053l-0.01-0.04l0.268-0.117l0.271-0.214l0.165-0.087l0.069-0.022
	l0.051-0.034l0.095-0.086l0.051-0.021l0.192-0.027l0.667-0.213l0.065-0.067l0.079-0.25l0.083-0.063l0.114-0.021h0.136l0.064,0.024
	l0.077,0.077l0.059,0.014l0.039,0.016l0.022,0.042l0.021,0.05l0.034,0.045l0.086,0.055l0.32,0.145l0.086,0.002l0.336-0.084
	l0.117-0.012l0.043,0.001l0.016,0.019l0.002,0.023l0.007,0.013l0.022,0.024l0.022,0.035l0.036,0.012l0.06-0.045l0.039-0.005
	l0.043-0.013l0.037-0.018l0.025-0.026l0.051-0.138l0.049-0.044l0.104-0.013l0.08,0.024l0.087,0.041l0.083,0.027l0.07-0.02
	l0.021-0.037l-0.004-0.042l-0.022-0.084l0.011-0.044l0.031-0.034l0.554-0.375l0.357-0.089l0.172-0.073l0.278-0.245l0.158-0.089
	l0.207-0.005l0.357,0.066l0.352,0.012l0.707-0.049l0.167,0.01l0.324,0.085l0.172,0.018l0.153-0.07l0.448-0.557l0.395-0.492
	l0.602-0.753l0.335-0.42l0.289-0.364l0.172-0.153l0.135-0.13l0.158,0.073l0.085,0.018l0.047,0.015l0.055,0.032l0.046,0.042
	l0.032,0.047l0.023,0.048l0.012,0.044l0.029,0.047l0.053,0.031l0.076,0.023l0.258,0.318l0.178,0.167l0.156,0.036l0.006,0.023
	l0.007,0.014l0.021,0.031l0.041-0.024l0.044-0.012l0.042-0.004l0.035,0.003l0.054,0.018l0.046,0.025l0.094,0.068l0.048,0.018
	l0.121,0.007l0.291,0.134l0.128,0.082l0.024,0.009l0.02,0.025l0.013,0.071l0.014,0.038l0.026,0.038l0.034,0.035l0.035,0.03
	l0.031,0.045l-0.005,0.045l-0.015,0.042v0.037l0.039,0.046l0.091,0.048l0.035,0.031l0.006,0.074l-0.005,0.113l0.012,0.077
	l0.062-0.034l0.084-0.077l0.095-0.045l0.104-0.022l0.109-0.008l0.086,0.005l0.094,0.019l0.088,0.031l0.156,0.091l0.072,0.033
	l0.066,0.046l0.069,0.091h0.049l0.04,0.028l0.074,0.095l0.021,0.02l0.072,0.051l0.02,0.032l0.003,0.081l0.013,0.032l0.113,0.072
	l0.131,0.02l0.194,0.006l0.059,0.002l0.195,0.085l0.088,0.053l0.064,0.084l0.036,0.104l0.023,0.153l0.045,0.098l0.099,0.125
	l0.024,0.05l0.029,0.144l0.027,0.055l0.068,0.078l0.22,0.139l0.047,0.082l-0.022,0.096l-0.058,0.095l-0.062,0.077l-0.004,0.08
	l0.067,0.085l0.082,0.067l0.041,0.027l0.034-0.006l0.053,0.011l0.037,0.031l-0.013,0.048v0.035l0.054,0.013l0.264-0.009l0.026,0.003
	l0.039,0.041l0.027,0.037l0.037,0.019l0.067-0.009l0.04,0.169l0.035,0.07l0.146,0.146l0.106,0.165l0.068,0.07l0.028,0.04
	l0.032,0.108l0.04,0.049l0.044,0.027l0.088,0.041l0.037,0.023l0.127,0.123l0.108,0.127l-0.059,0.135l0.048,0.071l0.057,0.156
	l-0.014,0.174l0.014,0.117l0.09,0.076l0.114,0.067l0.084,0.087l0.015,0.072l-0.026,0.048l-0.043,0.044l-0.034,0.055l-0.016,0.067
	l0.006,0.043l0.017,0.042l0.033,0.291l-0.016,0.103l-0.053,0.106l-0.142,0.212l-0.033,0.12l0.039,0.116l0.037-0.034l0.041-0.019
	l0.047-0.001l0.121,0.042l0.055-0.01l0.111-0.059l0.072-0.015l0.076,0.001l0.15,0.022l0.545-0.022l0.109,0.017l-0.213,0.276
	l-0.289,0.376l-0.202,0.26l0.105,0.041l0.009,0.098l-0.062,0.233l0.013,0.216l0.037,0.215l0.102,0.243l0.158,0.157l0.059,0.035
	l0.376,0.226l0.693,0.365l0.149,0.127l0.135,0.287l0.105,0.128l0.366,0.135l0.396-0.069l0.362-0.201l0.262-0.265l0.215-0.272
	l0.13-0.13l0.133-0.099l0.079-0.032l0.103-0.021l0.086,0.012l0.002,0.008l0.021,0.062l-0.028,0.067l-0.136,0.178l-0.016,0.093
	l0.047,0.054l0.078,0.038l0.074,0.046l0.063,0.081l0.014,0.072l-0.034,0.169l-0.004,0.167l0.053,0.269l0.069,0.343l0.075,0.381
	l0.066,0.34l0.037,0.065l0.319,0.237l0.301,0.144l0.417,0.148l0.493,0.176l0.51,0.182l0.537,0.191l0.593,0.209l0.696,0.266
	l0.539,0.207l0.321,0.257l0.276,0.293l0.048,0.073l0.031,0.182l0.036,0.075l0.036,0.007l0.043-0.017l0.043-0.004l0.06,0.099
	l0.049,0.023l0.056,0.013l0.056,0.019l0.092,0.06l0.226,0.217l0.201,0.142l0.418,0.234l0.257,0.273l0.102,0.064l0.244,0.094
	l0.416,0.246l0.156-0.083l0.382-0.328l0.632-0.546l0.007-0.005l0.643-0.556l0.743-0.645l0.438-0.382l0.209-0.182l0.119-0.069
	l0.12-0.032l0.278-0.014l0.1,0.031l0.153,0.158l0.082,0.059l0.116,0.027l0.246,0.018l0.121,0.037l0.126,0.084l0.052,0.022
	l0.188,0.032l0.176,0.054l0.098,0.043l0.081,0.06l0.064,0.091l0.069,0.171l0.063,0.02l0.296,0.195l-0.009,0.032l0.021,0.031
	l0.069,0.061l0.009-0.002l0.03,0.007l0.009,0.112l0.077,0.57l0.12,0.875l0.107,0.792v0.001l0.072,0.561l0.096,0.747l0.05,0.39
	l0.071,0.57l0.132,1.065v0.001l0.058,0.52l0.044,0.395l0.614-0.037l0.403-0.024l0.501-0.029l0.581-0.034l0.603-0.035l0.637-0.039
	l0.125-0.029l0.103-0.056l0.105-0.031l0.137,0.044l0.074,0.068l0.104,0.153l0.082,0.061l0.116,0.029l0.238-0.023l0.115,0.006
	l0.058,0.024l0.111,0.068l0.065,0.017l0.081-0.007l0.043-0.025l0.036-0.032l0.059-0.025l0.095,0.006l0.089,0.034l0.087,0.016
	l0.087-0.044l0.062-0.015l0.046,0.016l0.025,0.042l0.005,0.061l0.001,0.047l0.017,0.03l0.031,0.009l0.048-0.013l0.067-0.032
	l0.071-0.018l0.074,0l0.501,0.108l0.102,0.039l0.078,0.043l0.081,0.027l0.218-0.02l0.33,0.064l0.232-0.012l0.707-0.13l0.345-0.009
	l0.441-0.078l0.248-0.02l0.102-0.042l0.273-0.181l0.271-0.105l0.143-0.089l0.257-0.238l0.139-0.103l0.434-0.215l0.569-0.432
	l0.154-0.067l0.092-0.007l0.088,0.009l0.088-0.001l0.093-0.037l0.079-0.049l0.063-0.021l0.068,0.005l0.097,0.028l0.144,0.012
	l0.484-0.056l0.121-0.042l0.46-0.724l0.131-0.049l0.167,0.091l0.389,0.376l0.431,0.416l0.366,0.144l0.508,0.198l0.278,0.162
	l0.378,0.22l0.235,0.138l0.433,0.25l0.246,0.142l0.158,0.154l0.262,0.535l0.164-0.01l0.065,0.015l0.063,0.059l0.045,0.063
	l0.026,0.059l-0.007,0.059l-0.055,0.065l0.307-0.061l0.087-0.036l0.028-0.031l0.02-0.077l0.021-0.032l0.04-0.023l0.136-0.056
	l0.144-0.104l0.094-0.111l0.171-0.26l0.079-0.113l0.13-0.25l0.093-0.108l0.069-0.062l0.045-0.052l0.135-0.263l0.038-0.039
	l0.063-0.037l0.189-0.035l0.069-0.026l0.126-0.072l0.057-0.021l0.084-0.009l0.135,0.002l0.422,0.076l-0.091,0.049l-0.08,0.086
	l-0.039,0.102l0.029,0.094l0.03,0.046l0.021,0.084l0.028,0.048l0.046,0.042l0.515,0.333l0.114,0.023l0.118,0.001l0.102,0.017
	l0.069,0.07l-0.003,0.098l-0.126,0.179l-0.027,0.089l0.043,0.078l0.607,0.487l0.135,0.167l0.003,0.151l-0.039,0.038l-0.046,0.02
	l-0.047,0.015l-0.049,0.022l-0.038,0.035l-0.083,0.134l-0.153,0.152l-0.168,0.137l-0.347,0.349l-0.301,0.302l-0.261,0.261
	l-0.028,0.051l0.012,0.059l0.036,0.095l-0.005,0.041l-0.013,0.04l-0.02,0.043l-0.088,0.141l-0.035,0.031l-0.062,0.027l-0.049,0.036
	l-0.011,0.048l0.003,0.054l-0.007,0.052l-0.048,0.1l-0.555,0.702l-0.024,0.044l-0.005,0.048l0.025,0.073l-0.001,0.037l-0.027,0.048
	l-0.082,0.079l-0.032,0.04l-0.017,0.042l-0.012,0.077l-0.012,0.046l-0.042,0.098l-0.012,0.048l0.01,0.048l0.03,0.035l0.039,0.009
	l0.039,0.003l0.03,0.017l0.037,0.096l0.002,0.208l0.027,0.067l0.119,0.052l0.116,0.02l0.064,0.042l-0.037,0.117l-0.16,0.129
	l-0.227,0.127l-0.16,0.131l0.042,0.142l0.092,0.092l0.011,0.068l-0.128,0.179l-0.052,0.098l-0.033,0.098l-0.043,0.207l-0.317,0.562
	l-0.018,0.147l0.063,0.141l0.101,0.132l0.227,0.229l0.201,0.203l0.231,0.235l0.31,0.313l0.261,0.264l0.055,0.077l0.014,0.112
	l-0.049,0.078l-0.075,0.073l-0.06,0.096l0.034,0.166l0.177,0.099l0.211,0.084l0.138,0.122l0.009,0.049l0.002,0.099l0.02,0.054
	l0.049,0.058l0.234,0.204l0.347,0.298l0.4,0.348l0.341,0.294l0.238,0.389v0.001l-0.087-0.022l-0.08-0.046l-0.115,0.03l-0.038-0.007
	l-0.032,0.008l-0.012,0.055l0.013,0.03l0.064,0.058l0.014,0.031l0.043-0.005l0.082-0.004l0.042-0.007l-0.092,0.075l-0.087,0.043
	l-0.063,0.063l-0.018,0.131l0.12-0.069l0.058-0.021l0.07-0.004l0.02,0.051l0.019,0.12l0.028,0.051l0.023,0.018l0.012,0.018v0.052
	l-0.024,0.078l-0.146,0.256l0.095-0.026l0.033,0.181l-0.867,0.472l-0.271,0.185l-0.068-0.054l-0.164-0.023l-0.723,0.383
	l-0.727,0.539l-0.65,0.427l-0.4,0.319l-0.098,0.035l0.004-0.099l-0.224-0.011l-0.069-0.032l-0.237-0.181l-0.048-0.016l-0.274,0.03
	l-0.093,0.031l-0.076,0.06l-0.06,0.072l-0.176,0.318l-0.029,0.091l0.021,0.08l0.014,0.113l0.017,0.065l0.026,0.023l0.038,0.008
	l0.1,0.051l0.029-0.009l0.03-0.023l0.062-0.025l0.031-0.033l0.026-0.007l0.043,0.006l0.082-0.007l-0.048,0.037l0.009,0.007
	l0.166-0.063l0.044,0.051l-0.055,0.036l-0.172,0.08l-0.219,0.102l-0.119,0.042l-0.159,0.164l-0.198,0.038l-0.031-0.087v-0.028
	l-0.079,0.034l-0.079,0.06l-0.129,0.14l-0.083,0.118l-0.014,0.028l0.005,0.063l0.024,0.019l0.03,0.007l0.132-0.036l0.053,0.085
	l-0.103,0.101l-0.126,0.035l-0.055,0.03l-0.147,0.112l-0.052,0.012l-0.096-0.001l-0.091,0.033l-0.129,0.142l-0.161,0.21
	l-0.192,0.205l-0.034,0.218l-0.212,0.112l-0.306,0.036l-0.213,0.13l-0.403,0.446l-0.17,0.164l-0.349,0.225l-0.356,0.032l-0.21,0.074
	l-0.17,0.238l-0.368,0.485l-0.087,0.114l-0.175,0.227l-0.111,0.286l-0.061,0.091l-0.037,0.026l-0.055,0.005l-0.044,0.013
	l-0.024,0.037l-0.018,0.046l-0.026,0.041l-0.089,0.079l-0.088,0.06l-0.089,0.04l-0.089,0.014l-0.442-0.052l-0.2,0.001l-0.21,0.087
	l-0.125,0.127l-0.052,0.02l-0.061-0.008l-0.054-0.02l-0.053-0.007l-0.055,0.031l-0.315,0.306l-0.788,0.551l-0.192,0.251l-0.21,0.18
	l-0.101,0.04l-0.038-0.078l-0.101,0.11l-0.094,0.133l-0.023,0.068l-0.015,0.139l-0.042,0.065l-0.035,0.016l-0.028-0.001
	l-0.018,0.018l-0.004,0.074l-0.008,0.045l-0.025,0.046l-0.037,0.027l-0.042-0.01l-0.012,0.029l-0.039,0.196l-0.114,0.148
	l-0.142,0.096l-0.152,0.082l-0.141,0.101l-0.144,0.058l-0.188-0.01l-0.338-0.083l-0.249-0.002l-0.17,0.107l-0.111,0.176
	l-0.073,0.205l-0.024,0.201l-0.03,0.117l-0.059,0.054l-0.159-0.159l-0.032-0.051l-0.01-0.026l-0.013-0.013l-0.035-0.021
	l-0.129-0.039l-0.105,0.015l-0.095,0.056l-0.094,0.085l-0.074,0.085l-0.155,0.23l-0.053,0.036l-0.113,0.042l-0.05,0.033
	l-0.037,0.044l-0.054,0.084l-0.033,0.039l-0.097,0.081l-0.323,0.173l0.003-0.046l-0.515,0.438l-0.081,0.028l-0.088-0.026
	l-0.213-0.141l-0.287-0.083l-0.204-0.09l-0.104-0.033l-0.066,0.007l-0.022-0.007l-0.174-0.002l-0.02,0.012l-0.038,0.05l-0.018,0.01
	l-0.023-0.007l-0.056-0.03l-0.19-0.071l-0.078-0.041l-0.111-0.03l-0.055-0.032l-0.059-0.089l-0.008-0.208l-0.039-0.104l-0.174-0.058
	l-0.493,0.013l-0.084-0.106l-0.05,0.005l-0.198-0.128l-0.112-0.048l-0.109-0.022l-0.134,0.012l-0.045-0.008l-0.046-0.02
	l-0.102-0.062l-0.037-0.029l-0.425-0.467l-0.193-0.141l-1.131-0.536l-0.117-0.013l-0.222,0.03l-0.104-0.011l-0.057-0.056
	l-0.18,0.045l-0.073,0.003l0.055-0.047l0.022-0.049l0.015-0.054l0.022-0.058l-0.055,0.007l-0.042-0.027l-0.025-0.044l-0.009-0.048
	l-0.063,0.144l-0.028,0.041l-0.041,0.024l-0.038,0.005l-0.033-0.002l-0.025,0.011l-0.031,0.006l-0.044-0.004l-0.04,0.011
	l-0.035,0.095l-0.034,0.008l-0.041-0.018l-0.037-0.035l-0.034,0.053l-0.045,0.006l-0.026-0.024l0.019-0.044l0.003-0.028
	l-0.003-0.116l0.006-0.049l-0.028-0.023l-0.118,0.087l-0.139,0.034l-0.137-0.012l-0.108-0.053l-0.003,0.073l-0.028,0.057
	l-0.095,0.093l-0.068,0.036h-0.07l-0.063-0.005l-0.051,0.018l-0.365,0.348l-0.104,0.056l0.006,0.047l-0.132,0.043l-0.125,0.083
	l-0.229,0.201l-0.124,0.083l-0.254,0.116l-0.123,0.091l-0.204,0.218l-0.082,0.13l-0.025,0.124l-0.041,0.102l-0.216,0.226
	l-0.074,0.104l-0.01,0.043l-0.002,0.105l0.007,0.027l0.033,0.041l-0.007,0.029l-0.02,0.031l-0.012,0.046l-0.011,0.1l-0.097,0.344
	l-0.015,0.14l0.015,0.016l-0.006,0.027l-0.01,0.107l-0.026,0.048l-0.138,0.163l-0.11,0.167l-0.032,0.04l-0.121,0.107l-0.03,0.043
	l-0.017,0.08l-0.022,0.037l-0.129,0.124l-0.136,0.083l-0.034,0.033l-0.038,0.088l-0.012,0.202l-0.021,0.063l-0.01,0.062l0.014,0.357
	l0.034-0.062l0.01-0.031l0.002-0.046l0.106,0.069l0.092,0.118l0.065,0.133l0.026,0.113l-0.016,0.193l-0.067,0.182l-0.117,0.162
	l-0.165,0.142l-0.375,0.184l-0.181,0.133l-0.071,0.178l0.03,0.102l0.048,0.079l0.016,0.074l-0.065,0.097l-0.061,0.071l-0.11,0.182
	l-0.027,0.07l-0.033,0.387l-0.015,0.059l-0.075,0.546l-0.167,0.543l-0.004,0.041l0.003,0.042l-0.006,0.042l-0.027,0.043
	l-0.052,0.034l-0.092,0.026l-0.05,0.031l-0.273,0.303l-0.176,0.123l-0.145-0.021l-0.149-0.056l-0.194,0.014l-0.185,0.118
	l-0.304,0.307l-0.186,0.064l-0.157-0.028l-0.169-0.058l-0.179-0.041l-0.182,0.024l-0.088,0.056l-0.059,0.074l-0.049,0.08
	l-0.246,0.261l-0.081,0.06l-0.303,0.163l-0.068,0.046l-0.049,0.024l-0.116,0.017l-0.043,0.014l-0.037,0.032l-0.058,0.08
	l-0.126,0.301l-0.138,0.167l-0.104,0.164l-0.074,0.073l-0.201,0.1l-0.091,0.073l-0.04,0.112l-0.056,0.027l-0.327,0.031l-0.403,0.108
	l-0.573,0.09l-0.105-0.007l-0.091-0.046l-0.18-0.151l-0.101-0.042l-0.125-0.007l-0.175,0.042l-1.535,0.727l-0.081,0.063
	l-0.092,0.049l-0.095-0.001l-0.092-0.021l-0.092-0.006l-0.251,0.142l-0.068-0.004l-0.106-0.044l-0.108,0.026l-0.201,0.102
	l-0.503,0.038l-0.198,0.039l-0.257,0.095l-0.371,0.139h-0.137l-0.079-0.063l-0.013-0.073l0.032-0.073l0.064-0.071l0.065-0.056
	l0.066-0.074l0.007-0.072l-0.113-0.05l-0.098,0.008l-0.187,0.082l-0.09,0.008l-0.069-0.014l-0.171-0.06l-0.059-0.013l-0.496,0.004
	l-0.193,0.024l-0.172,0.065l-0.723,0.435l-0.185,0.06l-0.738,0.038l-0.199,0.04l-0.192,0.076l-0.179,0.126l-0.206,0.237
	l-0.068,0.035l-0.1,0.021l-0.112,0.117l-0.101,0.143l-0.173,0.226l-0.15,0.102l-0.346,0.209l-0.049,0.026l-0.038-0.006l-0.037-0.029
	l-0.037-0.014h-0.035l-0.117,0.081l-0.182,0.09l-0.143-0.003l-0.195-0.043l-0.127,0.026l0.071,0.116l-0.063,0.067l-0.271-0.141
	l-0.151-0.023l-0.177-0.076l-0.313-0.068l-0.105,0.004l-0.134-0.001l-0.086-0.052l-0.112-0.247l-0.097-0.084l-0.17-0.037
	l-0.211,0.011l-0.087-0.007l-0.282-0.055l-0.214-0.004l-0.061-0.011l-0.657-0.262l-0.135-0.08l-0.44-0.422l-0.189-0.106
	l-0.197-0.055l-0.176-0.013l-0.165,0.038l-0.168,0.097l-0.139,0.113l-0.081,0.043l-0.064-0.01l-0.092-0.043l-0.331-0.035
	l-0.091-0.038l-0.112-0.074l-0.072-0.094l0.029-0.097l0.085-0.04l0.113-0.01l0.115,0.013l0.088,0.025l0.007-0.058l-0.028-0.021
	l-0.044-0.014l-0.032-0.041l-0.001-0.044l0.011-0.114l-0.014-0.055l-0.062-0.084l-0.088-0.07l-0.081-0.019l-0.046,0.069
	l-0.126-0.071l-0.057-0.013l-0.07,0.004l-0.016,0.022l-0.016,0.042l-0.019,0.031l-0.028-0.002l-0.062-0.053l-0.034-0.021
	l-0.03-0.007l-0.09,0.058l-0.239,0.247l-0.05,0.063l-0.038,0.123l-0.102,0.073l-0.129,0.008l-0.124-0.066l-0.087-0.076l-0.033-0.049
	l-0.012-0.067l-0.023-0.066l-0.035-0.074l0.005-0.05l0.097,0.001l-0.123-0.148l-0.016-0.031l-0.041,0.02l-0.041-0.001l-0.104-0.028
	l-0.061-0.102l-0.133-0.129l-0.15-0.116l-0.117-0.069l-0.113-0.029l-0.141-0.021l-0.07,0.024l0.099,0.101l-0.057-0.018l-0.218-0.041
	l-0.297,0.028l-0.072-0.017l-0.08-0.038l-0.115-0.019l-0.202,0.001l-0.259,0.105l-0.064-0.008l-0.087-0.047l-0.111-0.021
	l-0.175-0.008l-0.199-0.034l-0.389-0.107l-0.178-0.032l-0.108,0.008l-0.206,0.046l-0.24-0.002l-0.027-0.004l-0.049-0.031
	l-0.065-0.059l-0.046-0.025l0.045-0.052l-0.008-0.03l-0.043-0.007l-0.063,0.021l-0.079-0.144l-0.263-0.124l-0.067-0.104l-0.077,0.01
	l-0.111-0.014l-0.11-0.031l-0.07-0.039l-0.055-0.017l-0.076,0.014l-0.035,0.014l-0.114,0.047l-0.125,0.091l-0.104,0.125
	l-0.077,0.142l-0.421,1.485l-0.071,0.148l-0.123,0.071l-0.208-0.038l-0.062-0.048l-0.15-0.148l-0.082-0.037l-0.053-0.008
	l-0.025-0.011l-0.027-0.002l-0.053,0.012l-0.042,0.017l-0.036,0.02l-0.073,0.058l-0.029,0.033l-0.055,0.079l-0.035,0.038
	l-0.041,0.024l-0.076,0.011l-0.034,0.017l-0.056,0.068l-0.074,0.154l-0.053,0.07l-0.088,0.07l-0.059-0.003l-0.132-0.142
	l-0.019-0.001l-0.072,0.011l-0.032-0.008l-0.02-0.016l-0.047-0.052l-0.021-0.029l-0.008-0.034l-0.021-0.02l-0.062,0.01l0.038,0.074
	l0.021,0.085l-0.007,0.082l-0.047,0.056l-0.089,0.019l-0.069-0.019l-0.067-0.003l-0.06,0.045l-0.096,0.042l-0.319,0.076
	l-0.079,0.003l-0.127-0.089l-0.121-0.017l-0.121,0.035l-0.126,0.067l-0.019-0.085l0.04-0.061l0.148-0.097l0.064-0.063l0.071-0.126
	l0.05-0.06l0.079-0.043l0.19-0.055l0.058-0.025l0.077-0.056l0.072-0.028l0.079-0.003l0.091,0.016l-0.025-0.062l-0.036-0.151
	l-0.014-0.193l-0.018-0.052l-0.053-0.061l-0.054,0.072l-0.074,0.014l-0.081-0.023l-0.143-0.101l-0.022,0.05l-0.002,0.093
	l-0.016,0.078l-0.037-0.047l-0.007-0.016l-0.002-0.025l-0.063-0.014l-0.022,0.031l-0.01,0.05l-0.034,0.049l-0.031,0.005
	l-0.079-0.015l-0.032,0.01l-0.017,0.021l-0.015,0.043l-0.012,0.017l-0.072,0.049l-0.072,0.035l-0.055,0.046l-0.027,0.074
	l-0.127,0.088l-0.041,0.131l0.044,0.088l0.119-0.042l0.118-0.071l0.123-0.025l0.083,0.037l-0.005,0.115l-0.055,0.047l-0.19,0.132
	l-0.027,0.043l-0.028,0.303l0.002,0.025l0.012,0.064l0.024,0.058l0.065-0.003l0.011,0.035l0.005,0.044l0.006,0.028l0.094,0.05
	l0.106,0.003l0.107-0.013l0.104,0.004l0.084,0.036l0.095,0.058l0.164,0.135l0.035,0.046l0.039,0.096l0.027,0.044l0.037,0.035
	l0.08,0.047l0.038,0.036l0.046,0.084l0.016,0.098l-0.016,0.094l-0.049,0.074l-0.238,0.17l-0.033,0.073l-0.088,0.027l-0.22,0.2
	l-0.201,0.053l-0.062,0.033l0.048,0.065l0.055,0.028l0.104,0.023l0.054,0.04l0.022,0.04l0.005,0.051l-0.005,0.049l-0.011,0.041
	l-0.054,0.084l-0.253,0.188l-0.022-0.022l0.003,0.035l0.005,0.011l-0.032,0.01l-0.123,0.062l-0.072,0.016l-0.074,0.009l-0.04-0.002
	l-0.035-0.008l-0.092-0.041l-0.049-0.038l-0.22-0.116l-0.014,0.003l-0.052-0.02l-0.126-0.008l-0.116-0.044l-0.027-0.019l-0.03-0.042
	l-0.002-0.05l0.007-0.052l-0.005-0.049l-0.026-0.044l-0.041-0.03l-0.049-0.021l-0.049-0.01l-0.223,0.006l-0.204-0.017l-0.158-0.041
	l-0.053,0.003l-0.049,0.022l-0.041,0.034l-0.1,0.118l-0.035,0.037l-0.043,0.026l-0.049,0.017l-0.049-0.001l-0.045-0.021
	l-0.168-0.124l-0.099-0.048l-0.104-0.031l-0.103-0.004l-0.051,0.01l-0.046,0.02l-0.375,0.251l-0.104-0.099l0,0l-1.536-1.624
	l-0.052-0.034l-0.051,0.012l-1.022,0.909l-0.76-0.821l-0.539-0.581l-0.658-1.604l-0.055-0.091l-0.076-0.063l-0.099-0.022
	l-0.201,0.023l-0.098-0.007l-0.035-0.016l-0.072-0.045l-0.045-0.014l-0.043,0.001l-0.088,0.015l-0.046-0.008l-0.283-0.084
	l-0.07-0.046l0,0l-0.086-0.034l-0.154,0.048l-0.094-0.008l-0.208-0.083l-0.102-0.02l-0.016-0.002l-0.081,0.029l-0.051,0.036
	l-0.055-0.004l-0.057-0.013l-0.062,0.011l-0.06,0.031l-0.035,0.003l-0.027-0.024l-0.038-0.052l-0.022-0.048l-0.01-0.045
	l-0.015-0.047l-0.04-0.05l-0.057-0.029l-0.099,0.011l-0.058-0.028l-0.041,0.013l-0.037-0.001l-0.121-0.021l-0.028-0.008
	l-0.032-0.006h-0.166l-0.032-0.005l-0.063-0.028l-0.016-0.017v-0.024l-0.031-0.085v-0.034l-0.011-0.032l-0.04-0.035l-0.041-0.008
	l-0.136,0.015l-0.107-0.015l-0.084-0.022l-0.077-0.007l-0.095,0.027l-0.224,0.098l-0.045,0.036l-0.071,0.195l-0.036,0.067
	l-0.096,0.105l-0.114,0.066l-0.135,0.036l-0.16,0.02l0,0v0.001l-1.604,0.066l-0.249-0.022l-0.303,0.063l-0.235,0.018l-0.018,0.004
	l-0.422,0.095l-0.158-0.005l-0.422,0.13l-0.405,0.189l-0.319,0.349l-0.194,0.134l-0.187-0.078l-0.001-0.001l-0.002-0.073
	l0.017-0.083l0.003-0.081l-0.031-0.076l-0.06-0.031l-0.076,0.003l-0.078,0.026l-0.144,0.101l-0.073,0.004l-0.034-0.045l0.03-0.084
	l0.062-0.064l0.053-0.04l0.041-0.052l0.021-0.101l0.013-0.147l-0.003-0.083l-0.019-0.063l-0.029-0.028l-0.054,0.01l-0.042-0.02
	l-0.022-0.03l-0.042-0.08l-0.032-0.034l-0.079-0.034l-0.079-0.004l-0.161,0.012l-0.263-0.054l-0.185-0.003l-0.06-0.035l-0.053-0.055
	l-0.071-0.06l-0.082-0.042l-0.088-0.028l-0.207-0.031l-0.016,0.001l-0.014,0.004l-0.018,0.003l-0.005,0.002l-0.018,0.01
	l-0.013,0.016l-0.007,0.022l-0.011,0.097l-0.08,0.091l-0.105,0.058l-0.089,0.004l-0.006-0.099l0.065-0.205l-0.009-0.084l-0.09-0.055
	l-0.1,0.014l-0.099-0.004l-0.082-0.113l-0.051,0.071l-0.143,0.129l-0.034,0.068l-0.015,0.156l-0.021,0.073l-0.041,0.059
	l-0.041-0.006l-0.108-0.121l-0.032-0.017l-0.034-0.017l-0.227,0.028l-0.083-0.003l-0.091-0.02l-0.079-0.028l-0.073-0.042
	l-0.076-0.056l-0.071-0.038l-0.075-0.005l-0.079,0.002l-0.077-0.005l-0.675-0.223h-0.009l-0.01,0.003l-0.008,0.004l-0.075,0.09
	l-0.081,0.063l-0.099,0.022l-0.135-0.028l0.038-0.081l0.013-0.043l0.001-0.046h0.002l0,0l-0.04-0.134l-0.053-0.106l-0.035-0.104
	l0.018-0.124l0.004-0.081l0.035-0.197l-0.006-0.064l-0.033-0.038l-0.044-0.014l-0.047-0.01l-0.049-0.026l-0.022-0.037l-0.016-0.1
	l-0.014-0.043l-0.107-0.196l-0.069-0.088l-0.086-0.062l-0.104-0.027l-0.094,0.017l-0.064,0.059l-0.019,0.095l-0.088,0.01
	l-0.104-0.04l-0.341-0.197l-0.011-0.07l0.123-0.167l0.006-0.038l-0.002-0.038l-0.005-0.039l-0.011-0.039l-0.085-0.103l-0.147-0.115
	l-0.072-0.103l0.143-0.068l0.146-0.038l0.108-0.06l0.215-0.163l0.083-0.036l0.014-0.019l-0.007-0.032l-0.024-0.042l-0.032-0.036
	l-0.029-0.014l-0.071-0.016l-0.062-0.049l-0.059-0.062l-0.067-0.056l-0.032-0.011l-0.031-0.004l-0.031-0.007l-0.043-0.028
	l-0.034-0.019l-0.044-0.005l-0.044,0.004l-0.036,0.008l-0.086-0.008l-0.027-0.074l0.001-0.161l-0.025-0.046l-0.069-0.062
	l-0.026-0.048l-0.007-0.064l0.024-0.046l0.074-0.082l0.033-0.126l-0.062-0.095l-0.083-0.08l-0.038-0.082l0.063-0.063l0.076-0.02
	l0.051-0.014l0.102-0.043l-0.006-0.095l-0.054-0.102l-0.031-0.083l-0.05-0.07l-0.106-0.063v-0.001l-0.05-0.038l-0.04-0.043
	l-0.021-0.052l0.005-0.056l0.013-0.022l0.037-0.041l0.01-0.025l-0.008-0.02l-0.047-0.035l-0.012-0.018l-0.017-0.098l0.014-0.026
	l0.055-0.024l0.096-0.017l0.04-0.016l0.035-0.037l0.119-0.042l0.036-0.052l0.008-0.077l0.036-0.113l0.027-0.029l0.063-0.032
	l0.051-0.09l0.03-0.039l0.017-0.043l-0.014-0.062l-0.121-0.013l-0.048-0.129l-0.03-0.158l-0.07-0.098l-0.075,0.005l-0.111,0.101
	l-0.064,0.01l-0.057-0.046l-0.013-0.064l-0.002-0.073l-0.016-0.047l-0.008-0.02l-0.11-0.08l-0.138-0.014l-0.283,0.009l-0.441-0.115
	l-0.126-0.063l-0.028-0.029l-0.019-0.034l-0.005-0.035l0.008-0.038l-0.001-0.024l-0.009-0.017l-0.018-0.011l-0.023-0.004
	l-0.091-0.034l-0.087-0.044l0.01-0.016l0.014-0.013l0.111-0.053l-0.034-0.053l-0.146-0.104l-0.051-0.055l-0.043-0.067l-0.027-0.074
	l0.002-0.071l0.04-0.073l0.206-0.175l0.047-0.066l0.076-0.202l0.119-0.096l0.053-0.061l0.008-0.081l-0.012-0.09l0.038-0.132
	l0.01-0.08l-0.018-0.084l-0.042-0.057l-0.062-0.026l-0.077,0.012l-0.068,0.049l-0.028,0.071l-0.02,0.077l-0.037,0.068l-0.097,0.135
	l-0.06,0.059l-0.079,0.028l-0.041,0.003l-0.033-0.002l-0.034-0.012l-0.076-0.056h-0.024l-0.023,0.017l-0.118,0.047l-0.048,0.041
	l-0.031,0.059l-0.027,0.08l-0.041,0.069l-0.188,0.157l-0.064,0.113l-0.032,0.023l-0.038,0.018l-0.03,0.026l-0.018,0.118l-0.03,0.076
	l-0.056,0.057l-0.074,0.012l-0.036,0.021l-0.081,0.128l-0.063,0.032l-0.075-0.012l-0.23-0.107l-0.295-0.061l-0.152,0.002
	l-0.09,0.056l-0.057,0.01l-0.189,0.002l-0.145,0.059l-0.084,0.035l-0.072,0.067l-0.054,0.129l-0.039,0.06l0,0l0,0v0.001l0,0
	l-0.024,0.088l-0.044,0.077l-0.068,0.046l-0.095-0.004h-0.001l0,0l0,0v-0.001l-0.068-0.037l-0.046-0.085l-0.026-0.101l-0.014-0.084
	l-0.05-0.079l-0.097-0.035l-0.187-0.031l-0.079-0.057l-0.132-0.162l-0.072-0.052l-0.076-0.003l-0.089,0.008l-0.052-0.027
	l0.029-0.104l-0.111-0.018l-0.072-0.04l-0.138-0.139l-0.085-0.066l-0.105-0.057l-0.104-0.016l-0.076,0.059l-0.104,0.203
	l-0.076,0.079l-0.108,0.034l-0.065-0.006l-0.037-0.021l-0.034-0.029l-0.053-0.032l-0.052-0.012h-0.045l-0.042-0.013l-0.045-0.045
	l-0.071-0.005l-0.076,0.003l-0.019,0.001l-0.086-0.014l-0.042-0.059l0.005-0.02l0.022-0.044l0.003-0.015l-0.061-0.073l-0.073-0.142
	l-0.055-0.171l-0.052-0.067l-0.095-0.045l-0.177-0.061l-0.091-0.016l-0.069,0.018l-0.036,0.032l-0.043,0.019l-0.047,0.006
	l-0.053-0.006l-0.062,0.001l-0.046,0.03l-0.083,0.082l-0.087,0.05l-0.089,0.014l-0.074-0.039l-0.044-0.11l-0.006-0.207l-0.016-0.094
	l-0.056-0.095l-0.082-0.064l-0.074-0.032l-0.069-0.045l-0.064-0.104l-0.002-0.065l-0.029-0.04l-0.045-0.015l-0.089,0.024
	l-0.062-0.004l-0.028,0.006l-0.026,0.026l-0.041,0.066l-0.031,0.017l-0.027-0.005l-0.06-0.039l-0.031-0.012l-0.033,0.003
	l-0.024,0.012l-0.028,0.009l-0.037-0.008l-0.075-0.039l-0.03-0.033l-0.048-0.131l-0.041-0.081l-0.067-0.041l-0.078-0.034
	l-0.069-0.06l-0.034-0.078l0.01-0.06l0.019-0.055l-0.003-0.07l-0.09-0.117l-0.127-0.015l-0.248,0.044l-0.064-0.026l-0.059-0.033
	l-0.053-0.007l-0.087,0.105l-0.052-0.005l-0.124-0.062l-0.071,0.007l-0.112,0.083l-0.055,0.013l-0.066-0.041l-0.053-0.133
	l-0.062-0.046l-0.001-0.001l-0.075-0.056l-0.068-0.088l-0.057-0.099l-0.035-0.091l-0.062-0.048l-0.104,0.011l-0.109-0.012
	l-0.078-0.113l-0.004-0.051l0.029-0.16l-0.012-0.069l-0.033-0.026l-0.209-0.03l-0.119,0.004l-0.108,0.035l-0.067,0.075l-0.018,0.051
	l-0.031,0.055l-0.043,0.031l-0.054-0.021l-0.016-0.021l-0.037-0.064l-0.017-0.016l-0.035,0.003l-0.015,0.02l-0.013,0.023
	l-0.028,0.012l-0.063-0.011l-0.053-0.027l-0.045-0.03l-0.043-0.017l-0.049,0.006l-0.14,0.042l-0.042,0.019l-0.16,0.18l-0.109,0.07
	l-0.114-0.031l-0.015-0.033l-0.006-0.016l-0.002-0.06l-0.009-0.058l-0.04-0.041l-0.055-0.035l-0.033-0.048l-0.02-0.056l-0.016-0.065
	l0,0l0,0l0,0l-0.018-0.072l0.002-0.132l-0.021-0.074l-0.04-0.091l-0.013-0.066l0.013-0.061l0.031-0.072l-0.005-0.035l-0.078-0.043
	l-0.021-0.033l0.005-0.039l0.03-0.064l-0.002-0.045l-0.026-0.065l-0.042-0.082l-0.048-0.074l-0.155-0.151l0.002-0.154l0.032-0.164
	l-0.015-0.142l-0.049-0.052l-0.067-0.034l-0.074-0.015l-0.067,0.003l-0.057,0.021l-0.028,0.038l-0.045,0.132l-0.158,0.099
	l-0.057,0.018l-0.04,0.005l-0.034-0.022l-0.04-0.063l-0.025-0.033l-0.084-0.078l-0.034-0.04l-0.087-0.167l-0.047-0.062l-0.177-0.149
	l-0.106-0.145l-0.061-0.071l-0.068-0.038l-0.041-0.004l-0.031,0.005l-0.063,0.029l-0.05,0.013l-0.011-0.028l0.005-0.045l-0.01-0.035
	l-0.068-0.048l-0.048-0.029l-0.044-0.038l-0.048-0.077l-0.143-0.312l-0.101-0.087l-0.203,0.062l-0.081-0.001l-0.082-0.019
	l-0.092-0.053l-0.034-0.014l-0.032-0.019l-0.023-0.029l-0.028-0.03l-0.04-0.002l-0.04,0.003l-0.038-0.009l-0.058-0.042l-0.028-0.016
	l-0.035-0.01h-0.001l-0.017-0.098l0.013-0.075l-0.009-0.064l-0.144-0.111l-0.033-0.066l-0.036-0.15l-0.097-0.064l-0.167,0.021
	l-0.174,0.046l-0.116,0.011l-0.028-0.027l-0.035-0.078l-0.029-0.028l-0.092-0.038l-0.034-0.021l-0.027-0.03l-0.013-0.028
	l-0.022-0.026l-0.09-0.039l-0.079-0.058l-0.039-0.021l-0.002-0.001l-0.143-0.018l-0.053-0.026l-0.005-0.068l0.024-0.082l0.026-0.05
	l0.042-0.04l0.065-0.046l0.057-0.063l0.112-0.168l0.071-0.051l0.265-0.077l0.073-0.057l0.046-0.067l0.085-0.188l0.02-0.083
	l-0.015-0.108l-0.053-0.063l-0.066-0.055l-0.053-0.088l0,0l0,0l-0.009-0.065l-0.034-0.041l-0.049-0.036l-0.047-0.042l-0.043-0.061
	l-0.028-0.056l-0.066-0.255l-0.022-0.058l-0.01-0.014l-0.03-0.045l-0.111-0.098l-0.022-0.049l0.081-0.486l0.05-0.079l0.065-0.009
	l0.167,0.041l0.072,0.007l0.225-0.073l0.09-0.004l0.354-0.045l0.016,0.003l0.059-0.013l0.016-0.003l0.066-0.042l0.063-0.055
	l0.006,0.023l-0.001,0.02l0.091-0.013l0.098,0.043l0.37,0.25l0.094,0.039l0.099-0.003l0.015,0.061l0.031,0.016L1170.086,520.711z"/></svg>