<?xml version="1.0" encoding="utf-8"?>
<!-- Generator: Adobe Illustrator 15.0.0, SVG Export Plug-In . SVG Version: 6.00 Build 0)  -->
<!DOCTYPE svg PUBLIC "-//W3C//DTD SVG 1.1//EN" "http://www.w3.org/Graphics/SVG/1.1/DTD/svg11.dtd">
<svg version="1.1" id="Ebene_1" xmlns="http://www.w3.org/2000/svg" xmlns:xlink="http://www.w3.org/1999/xlink" x="0px" y="0px"
	 width="1920px" height="1080px" viewBox="0 0 1920 1080" enable-background="new 0 0 1920 1080" xml:space="preserve">

<path fill="#F4E0B6" stroke="#FFFFFF" d="M654.863,838.47l-0.04,0.064l0.012,0.027l0.033,0.014l0.02,0.025l0.008,0.042l0.004,0.065
	l-0.021,0.047l-0.164-0.038l-0.071,0.048l-0.026,0.087l0.036,0.094l0.027,0.007l0.032-0.012l0.037-0.008l0.038,0.021l0.015,0.029
	l0.009,0.05l-0.008,0.047l-0.106,0.086l-0.059,0.104l-0.04,0.11l-0.017,0.084l0.012,0.104l0.035,0.109l0.052,0.096l0.056,0.062
	l0.032,0.063l-0.057,0.063l-0.133,0.076l-0.06,0.074l-0.063,0.101l-0.047,0.104l-0.023,0.119l-0.026,0.045l-0.06,0.081l-0.026,0.061
	l-0.004,0.104l-0.012,0.054l-0.03,0.04l-0.077,0.058l-0.029,0.045l-0.007,0.059l0.016,0.048l0.034,0.016l0.124-0.113l0.068,0.001
	l0.05,0.045l0.026,0.067l-0.002,0.033l-0.019,0.07l-0.003,0.033l0.008,0.035l0.028,0.076l0.01,0.05l-0.015,0.044l-0.047,0.011
	l-0.055-0.007l-0.089-0.033l-0.042,0.003l-0.072,0.021l-0.081,0.007l-0.049,0.018l0.007,0.037l0.086,0.068l0.063,0.063l0.033,0.078
	l-0.001,0.084l-0.038,0.075l-0.064,0.018l-0.203-0.012l-0.067,0.028l-0.019,0.051l0.012,0.033l0.02,0.023l0.004,0.016l0.017,0.013
	l0.036,0.122l0.021,0.142l0.024,0.015l0.061-0.057l0.026,0.1l-0.052,0.088l-0.093,0.067l-0.199,0.089l-0.035,0.057l-0.024,0.152
	l-0.094,0.187l-0.136,0.171l-0.161,0.13l-0.162,0.069l-0.151,0.01l-0.039,0.02l-0.035,0.046l-0.002,0.041l0.008,0.033l-0.003,0.029
	l0.002,0.06l0.046,0.053l0.012,0.063l-0.096,0.082l-0.486,0.219l-0.142,0.095l-0.069,0.073l-0.055,0.088l-0.016,0.085l0.046,0.07
	l0.011,0.055l-0.077,0.059l-0.104,0.058l-0.068,0.051l-0.03,0.074l-0.01,0.092l0.007,0.085l0.023,0.046l-0.005,0.049l-0.327,0.158
	l-0.047,0.074l-0.035,0.078l-0.053,0.072l-0.103,0.053l-0.07,0.051l-0.004,0.075l0.006,0.094l-0.034,0.105l-0.047,0.038
	l-0.188,0.102l-0.056,0.013l-0.033,0.032l-0.228,0.174l-0.041,0.051l-0.039,0.058l-0.02,0.042l0.029,0.056v0.001l0.018,0.06
	l-0.009,0.081l0.011,0.075l0.092,0.116l0.038,0.025l0.078,0.012l0.026,0.013l0.019,0.037l0.012,0.087l0.008,0.024l0.048,0.017
	l0.09-0.013l0.036,0.023l0.028,0.032l0.031,0.015l0.058,0.004l-0.004-0.012l0.016-0.02l0.021-0.018l0.016-0.009l0.013,0.007
	l0.025,0.035l0.015,0.009l0.087,0.02l0.043,0.033l0.038,0.044l0.068,0.049l0.047,0.014l0.037,0.003l0.03,0.009l0.022,0.036
	l-0.049,0.188l-0.012,0.105l0.016,0.074l0.05,0.056l0.092,0.041l0.04,0.007l0.021-0.002l0.022,0.008l0.04,0.032l0.02,0.029
	l0.045,0.107l0.157,0.057l0.03,0.018l0.054,0.077l0.036,0.028l0.037,0.052l0.065,0.148l0.021,0.014l0.029-0.014l0.025,0.025
	l0.033,0.065l0.04,0.025l0.032-0.009l0.023-0.02l0.012-0.01l0.051,0.041l0.13,0.14l0.076,0.032l0.138-0.017l0.056,0.02l0.005,0.024
	l-0.03,0.065l0.01,0.036l0.032,0.024l0.029,0.005l0.03-0.001l0.031,0.011l0.05,0.045l0.078,0.108l0.021,0.038l-0.005,0.01
	l-0.007,0.02l0.007,0.026l0.054,0.052l0.015,0.019l0.02,0.015l0.034,0.006l0.05,0.017l0.105,0.083l0.061,0.032l0.067,0.085
	l0.037,0.025h0.058l-0.045,0.059l0.006,0.025l0.033,0.016l0.033,0.022l0.039,0.073l0.035,0.024l0.107-0.072v0.084l-0.029,0.119
	l-0.026,0.053l0.073,0.066l0.058,0.014l0,0l0.143-0.036l0.047-0.02l0.022-0.022l0.017,0.003l0.036,0.047l0.029,0.015l0.139,0.04
	l0.023,0.022l-0.007,0.02l0.002,0.013h0.053l0.034-0.014l0.075-0.051l0.029-0.003l0.037,0.069l0.023,0.216l0.045,0.049l0.038-0.02
	l0.01-0.093l0.038-0.009l0.047,0.015l0.038,0.004l0.178-0.011l0.067-0.016l0.135-0.068l0.014-0.003l0.035,0.004l0.023-0.009
	l0.062-0.047l0.026-0.016l0.109-0.045l0.057-0.014l0.058-0.009l0.074,0.021l0.285,0.12l0.046,0.038l0.008,0.063l-0.069,0.293
	l-0.005,0.18l0.034,0.172l0.113,0.246l0.033,0.17l0.034,0.077l0.051,0.056l0.58,0.428l0.057,0.017l0.063,0.006l0.031,0.053
	l0.021,0.073l0.035,0.065l0.203,0.164l0.037,0.084l0.028-0.022l0.094-0.052l0.005,0.355l0.067,0.202l0.006,0.062l-0.035,0.112
	l-0.214,0.324l-0.073,0.154l-0.026,0.161l0.021,0.158l0.07,0.142l0.052,0.073l0.027,0.058l-0.006,0.063l-0.044,0.084l-0.023,0.026
	l-0.063,0.05l-0.026,0.03l-0.016,0.038l-0.021,0.074l-0.021,0.035l-0.124,0.102l-0.138,0.067l-0.126,0.086l-0.092,0.145
	l-0.127,0.342l-0.046,0.063l-0.11,0.113l-0.037,0.069l0.016,0.168l-0.004,0.082l-0.033,0.086l-0.114,0.124l-0.042,0.064l0.002,0.073
	l0.055,0.123l-0.011,0.042l-0.123,0.329l-0.046,0.061l-0.202,0.116l-0.055,0.055l-0.037,0.1l0.026,0.184l-0.012,0.095l-0.089,0.111
	l-0.241,0.146l-0.083,0.136l-0.059,0.125l-0.007,0.015l-0.099,0.132l-0.078,0.133l-0.003,0.142l0.036,0.265l-0.09,0.282
	l-0.462,0.753l-0.036,0.118l0.019,0.135l0.071,0.118l0.204,0.163l0.091,0.097l0,0h0.001l0,0l0,0l0.089,0.127l0.105,0.108
	l0.128,0.072l0.159,0.019l0,0l0.001,0.001v-0.001l0.12,0.014l0.215,0.15l0.128,0.039l0.077,0.012l0.118,0.074l0.067,0.03
	l0.082,0.004l0.147-0.049l0.077-0.017l0.312,0.026l0.559,0.148l0.082,0.009l0.154-0.034l0.072,0.009l0.073,0.088l0.34,0.725
	l0.032,0.098l-0.002,0.393l0.181,0.41l0.057,0.116l0.001,0.003l-0.113,0.007l-0.002,0.002v-0.003l-0.02-0.028l-0.041-0.02
	l-0.046-0.016l-0.048-0.011l-0.047-0.003l-0.054,0.007l-0.25,0.097l-0.039,0.026l-0.025,0.045l-0.021,0.106l-0.02,0.047l-0.042,0.04
	l-0.047,0.02l-0.054,0.01h-0.104l0.068,0.119l0.019,0.07l-0.002,0.067l-0.009,0.029l-0.027,0.055l-0.01,0.03l-0.004,0.031
	l0.006,0.19l-0.005,0.029l-0.022,0.026l-0.031,0.013l-0.067,0.012l-0.039,0.011l-0.028,0.02l-0.083,0.077l-0.102,0.058l-0.024,0.019
	l-0.014,0.01l-0.014,0.003l-0.017-0.01l-0.125-0.203l-0.105-0.125l0.055,0.234l-0.002,0.029l-0.034,0.079l-0.018,0.103l-0.015,0.032
	l-0.018,0.021l-0.022,0.014l-0.024,0.011l-0.023,0.015l-0.015,0.021l-0.02,0.051l-0.017,0.02l-0.023,0.003l-0.033-0.01l-0.253-0.133
	l-0.073-0.024l0.221,0.265l0.02,0.048l0.001,0.052l-0.01,0.029l-0.042,0.087l-0.022,0.031l-0.03,0.022l-0.065,0.034l-0.032,0.022
	l-0.07,0.083l-0.027,0.022l-0.031,0.013l-0.129,0.007l-0.028-0.006l-0.03-0.008l-0.045-0.026l-0.234-0.206l-0.383-0.25l0.252,0.354
	l0.124,0.132l0.051,0.071l0.024,0.09l-0.016,0.057l-0.05,0.034l-0.063,0.023l-0.056,0.038l-0.171,0.217l-0.073-0.046l-0.218-0.209
	l-0.435-0.219l-0.032-0.029l-0.016-0.025l-0.005-0.015l-0.004-0.013l-0.001-0.017l0.014-0.042l-0.003-0.041l-0.016-0.039
	l-0.027-0.032l-0.03-0.026l-0.028-0.013l-0.383-0.108l-0.03,0.002l-0.032,0.01l0.302,0.195l0.081,0.085l0.058,0.076l0.069,0.069
	l0.209,0.132l0.071,0.062l0.207,0.242l0.084,0.074l0.022,0.04l-0.005,0.037l-0.027,0.035l-0.042,0.03l-0.231,0.122l-0.063,0.058
	l-0.026,0.042l-0.045,0.139l-0.031-0.026l-0.174-0.303l-0.008-0.012l-0.025-0.02l-0.123-0.059l-0.03-0.023l-0.021-0.03l-0.013-0.037
	l-0.013-0.067l-0.014-0.029l-0.023-0.019l-0.033-0.003l-0.107,0.021l-0.243-0.019l-0.044,0.007l-0.042,0.015l-0.045,0.017
	l0.254,0.119l0.034,0.023l0.016,0.033l-0.005,0.027l-0.035,0.043l-0.008,0.024l0.024,0.03l0.055,0.019l0.103,0.017l0.073,0.025
	l0.063,0.042l0.133,0.126l0.015,0.026l0.001,0.026l-0.023,0.025l-0.043,0.015l-0.095-0.008l-0.045,0.006l0.056,0.042l0.188,0.106
	l0.019,0.019l0.015,0.017l0.01,0.02l0.041,0.1l0.016,0.02l-0.04,0.016l-0.087,0.014l-0.083,0.006l-0.03,0.011l-0.021,0.024
	l-0.018,0.04l-0.024-0.01l-0.026-0.008h-0.028l-0.024,0.013l-0.016,0.02l-0.023,0.068l-0.036,0.038l-0.049,0.022l-0.053,0.013
	l-0.051,0.004l-0.052-0.003l-0.039-0.014l-0.033-0.025l-0.161-0.187l-0.053-0.038l-0.002,0.04l0.017,0.042l0.04,0.079l0.039,0.137
	l-0.005,0.027l-0.017,0.022l-0.028,0.019l-0.215,0.097l-0.053,0.052l-0.046,0.059l-0.056,0.056l0.103,0.108l-0.004,0.003
	l-0.037,0.036l-0.06,0.078l-0.045,0.09l-0.016,0.088l-0.027,0.086l-0.072,0.081l-0.084,0.076l-0.006,0.008l-0.053,0.06l-0.033,0.153
	l-0.043,0.081l-0.075-0.002l-0.113-0.087l-0.056,0.013l-0.071,0.097l-0.078,0.232l-0.043,0.079l-0.02,0.061l0.008,0.145l-0.01,0.061
	l-0.064,0.076l-0.08,0.042l-0.078,0.032l-0.061,0.048l-0.093,0.184l-0.047,0.07l-0.069,0.033l-0.036-0.008l-0.084-0.052
	l-0.036-0.006l-0.049,0.025l-0.024,0.037l-0.017,0.047l-0.064,0.121l-0.049,0.142l-0.062,0.082l-0.237,0.185l-0.028,0.065
	l0.008,0.112l-0.022,0.056l-0.051,0.025l-0.077,0.028l-0.062,0.029l-0.009,0.009l-0.017,0.015l-0.044,0.077l-0.119,0.164
	l-0.135,0.08l-0.019,0.016l-0.024,0.014l-0.193,0.2l-0.059,0.049l-0.064,0.029l-0.185,0.044l-0.148,0.013l-0.093,0.025l-0.08,0.043
	l-0.033,0.055l-0.02,0.063l-0.039,0.075l-0.063,0.081l-0.076,0.081l-0.086,0.063l-0.088,0.026l-0.046-0.008l-0.011-0.021
	l-0.001-0.028l-0.016-0.032l-0.147-0.099l-0.094-0.035l-0.091,0.014l-0.088,0.048l-0.165,0.137l-0.07,0.048l-0.071,0.032
	l-0.088,0.022l-0.072-0.011l-0.17-0.097l-0.084-0.022l-0.367,0.065l-0.067,0.046l-0.059,0.176l-0.068,0.071l-0.084,0.007
	l-0.086-0.039l-0.125-0.097l-0.041-0.051l-0.037-0.074l-0.05-0.075l-0.079-0.057l-0.224-0.021l-0.167-0.087l-0.08-0.025
	l-0.085-0.001l-0.099,0.022l-0.089,0.043l-0.073,0.061l-0.128,0.162l-0.075,0.034l-0.086-0.047l-0.084-0.071l-0.07-0.038
	l-0.079,0.032l-0.066,0.066l-0.066,0.052l-0.074-0.009l-0.103-0.037l-0.041,0.053l-0.027,0.203l-0.016,0.054l-0.022,0.042
	l-0.034,0.033l-0.097,0.045l-0.015,0.026l-0.013,0.035l-0.039,0.048l-0.09,0.062l-0.098,0.026l-0.098-0.007l-0.092-0.042
	l-0.142,0.007l-0.214,0.059l-0.19,0.012l-0.122-0.242l-0.07-0.084l-0.023-0.05l-0.002-0.056l0.047-0.171l-0.001-0.103l-0.048-0.068
	l-0.077-0.051l-0.088-0.043l-0.018-0.011l-0.063-0.04l-0.062-0.064l0,0l-0.16-0.232l-0.001-0.003l-0.07-0.069l-0.081-0.063
	l-0.116-0.008l-0.095,0.005l-0.216,0.055l-0.097-0.017l-0.112-0.038l-0.105-0.01l-0.074,0.067l-0.057,0.108l-0.07,0.074
	l-0.089,0.046l-0.114,0.028l-0.129,0.049l-0.123,0.081l-0.121,0.051l-0.121-0.05l-0.002-0.001l-0.072-0.109l-0.044-0.146
	l-0.017-0.154l0.008-0.14l-0.018-0.254l-0.001-0.001l-0.194-0.179l-0.099-0.03l-0.178-0.055l-0.259,0.019l-0.136-0.06v-0.001
	l-0.068-0.151l-0.062-0.338l-0.083-0.123l0,0l-0.128-0.068l-0.152-0.031l-0.447-0.037l-0.125-0.048l-0.124-0.091l-0.025-0.022
	l-0.075-0.054h-0.001l-0.028-0.035l-0.017-0.039l-0.037-0.133l-0.022-0.038l-0.001-0.001l-0.121-0.141l-0.025-0.029l-0.022-0.04
	l-0.007-0.04l-0.018-0.088l-0.015-0.038l-0.057-0.065l-0.01-0.013l-0.086-0.058l-0.364-0.171l-0.079-0.064l-0.016-0.021l-0.04-0.054
	l-0.347-0.622h-0.001l-0.028-0.039l-0.288-0.29l-0.001-0.001l-0.108-0.142h-0.001l-0.125-0.128l-0.039-0.04l-0.071-0.109
	l-0.001-0.002l-0.167-0.168l-0.051-0.052l0,0l-0.102-0.071l-0.223-0.094l-0.051-0.029l-0.329-0.281l-0.95-0.506l-0.38-0.063
	l-0.021,0.005l0.002-0.005l0.136-0.174l0.045-0.078l0.005-0.097l-0.041-0.114l-0.016-0.075l0.012-0.06l0.088-0.096l0.098-0.045
	l0.104,0.005l0.188,0.079l0.042-0.029l0.032-0.06l0.046-0.066l0.03-0.027l0.029-0.021l0.034-0.019l0.038-0.013l0.042,0.003h0.001
	l0.007,0.028l-0.009,0.031l-0.009,0.015l-0.003,0.012l0.012,0.03l0.001,0.002l0.022,0.022l0.026-0.01l0.044-0.06l0.022-0.021
	l0.032-0.021l0.063-0.032l0.108-0.035l0.061-0.035l-0.019-0.077l0.025-0.053l0.059-0.029l0.076-0.003l0.173,0.056l0.091,0.018
	l0.062-0.027l0.057-0.013l0.161,0.084l0.068-0.007l0.021-0.078l-0.03-0.084l-0.005-0.078l0.095-0.055l0.067,0.018l0.046,0.058
	l0.05,0.046l0.078-0.02l0.008-0.037l0.002-0.06l0.021-0.042l0.065,0.02l0.04,0.028l0.028,0.012l0.025-0.01l0.203-0.283l0.063-0.061
	l0.045-0.03l0.013,0.001l0.009,0.023l0.09,0.089l0.041,0.022l0.032-0.012l0.015-0.039v-0.042l0.006-0.043l0.029-0.044l0.021-0.004
	l0.084-0.005l0.037-0.01l-0.004-0.032l0.006-0.071l-0.002-0.04l-0.039-0.104l-0.003-0.034l0.029-0.071l0.048-0.049l0.057-0.047
	l0.054-0.059l0.03-0.021l0.069-0.006l0.037-0.031l-0.03-0.129l0.021-0.055l0.063-0.043l0.245-0.126l0.052-0.042l0.049-0.055
	l0.064-0.129l0.04-0.061l0.045-0.008l0.061,0.022l0.097,0.017l0.088-0.007l0.031-0.052l-0.024-0.066l-0.035-0.062l-0.015-0.063
	l0.037-0.072l0.026,0.034l0.015,0.033l0.004,0.034l-0.005,0.033l0.056-0.021l0.082-0.057l0.116-0.104l0.058-0.013l0.271,0.062
	l0.155,0.01l0.582-0.039l0.084-0.031l0.033-0.049l-0.124-0.147l0.064-0.039l0.182-0.02l0.04-0.016l0.048-0.03l0.023-0.041
	l-0.058-0.078l0.008-0.032l0.028-0.02l0.088,0.02l0.096,0.008l0.068-0.004l0.034-0.003l0.071-0.026l0.035-0.159l0.037-0.079
	l0.071,0.002l0.076,0.018l0.099-0.007l0.097-0.022l0.068-0.023l-0.03-0.032l-0.021-0.035l-0.012-0.039v-0.044l0.144-0.062
	l0.069-0.014l0.091,0.017l0.04,0.022l0.034,0.025l0.035,0.019l0.046-0.002l0.032-0.02l0.074-0.071l0.019-0.013l0.089,0.077
	l0.054,0.033l0.039-0.008l0.074-0.076l0.055-0.004l0.053,0.02l0.069-0.016l0.063-0.055l0.264-0.294l0.037-0.063l0.009-0.064
	l-0.011-0.08l-0.097-0.303l0.029-0.045l0.076-0.329v-0.001l-0.054-0.139l-0.003-0.135l0.056-0.313l-0.008-0.074l-0.07-0.122
	l-0.025-0.071l-0.03-0.272l-0.02-0.074l-0.049-0.067l-0.269-0.176l-0.036-0.047l0.003-0.052l0.017-0.05l-0.001-0.047l-0.027-0.027
	l-0.082-0.038l-0.032-0.025l-0.154-0.273l-0.044-0.023l0.005-0.078l-0.164-0.409l-0.064-0.039l-0.084,0.005l-0.163,0.04
	l-0.062,0.003l-0.057-0.006l-0.042-0.019l-0.035-0.042l-0.003-0.032l0.009-0.036l0.003-0.049l-0.054-0.387l-0.004-0.164l-0.014-0.07
	l-0.051-0.088l-0.652-0.629l-0.005-0.029l0.011-0.035l-0.011-0.029l-0.019-0.029l-0.012-0.035l-0.038-0.047l-0.17-0.114
	l-0.059-0.063l-0.322-0.916l-0.09-0.095l-0.018-0.048l-0.022-0.112l-0.02-0.042l-0.019-0.017l-0.063-0.041l-0.051-0.068
	l-0.072-0.167l-0.062-0.078l-0.051-0.132l-0.11-0.14l-0.016-0.048l-0.002-0.036l-0.011-0.037l-0.047-0.04l-0.023-0.032l-0.009-0.081
	l-0.085-0.115l-0.01-0.105l0.019-0.178l-0.008-0.058l-0.056-0.201l-0.058-0.091l0.007-0.037l0.015-0.04l0.005-0.034l-0.009-0.032
	l-0.053-0.079l-0.048-0.096l-0.018-0.052l-0.01-0.064l-0.015-0.039l-0.055-0.052l-0.035-0.073l-0.078-0.065l-0.027-0.034
	l-0.009-0.039l-0.006-0.12l-0.042-0.22l-0.701-1.605l-0.051-0.055l-0.076-0.038l-0.2-0.042l-0.094-0.033l-0.263-0.151l-0.243-0.21
	l-0.113-0.063l-0.028-0.025l-0.023-0.045l-0.028-0.102l-0.021-0.048l-0.029-0.025l-0.125-0.07l-0.186-0.175l-0.061-0.154
	l-0.043-0.069l-0.12-0.082l-0.015-0.02l0.023-0.156l0.01-0.024l-0.027-0.026l-0.039-0.07l-0.03-0.037l-0.037-0.028l-0.164-0.09
	l-0.028-0.03l-0.031-0.105l-0.026-0.031l-0.206-0.12l-0.102-0.061l-0.066-0.052l-0.061-0.121l-0.055-0.17l-0.087-0.142l-0.156-0.043
	l-0.064-0.138l-0.012-0.055l0.004-0.114l-0.007-0.035l0.026-0.055l0.008-0.105l-0.01-0.107l-0.058-0.108l0.004-0.139l-0.01-0.055
	l0.071-0.042l0.067-0.081l0.037-0.085l-0.021-0.06l-0.047-0.057l-0.022-0.082l-0.013-0.079l-0.021-0.063l-0.023-0.02l-0.072-0.038
	l-0.022-0.015l-0.018-0.043l-0.024-0.11l-0.021-0.033l-0.059-0.066l-0.003-0.074l0.018-0.074l0.003-0.065l-0.162-0.241l-0.077-0.052
	l-0.041-0.043l-0.019-0.048l-0.018-0.063l-0.029-0.069l-0.041-0.06l-0.057-0.052l-0.072-0.049l-0.02-0.04l0.023-0.109l-0.032-0.072
	l0.027-0.036l0.044-0.035l0.036-0.021l-0.061-0.041l-0.037-0.032l-0.021-0.035l-0.058-0.297l-0.035-0.055l-0.166-0.101l-0.038-0.042
	l-0.018-0.036l-0.016-0.096l-0.028-0.064l-0.036-0.055l-0.019-0.057l0.026-0.076l0.042-0.073l0.019-0.052l0.001-0.05l-0.008-0.069
	l-0.018-0.056l-0.05-0.094l-0.018-0.063l-0.006-0.165l-0.009-0.046l-0.239-0.479l-0.038-0.216l-0.003-0.104l0.01-0.018l0.001-0.024
	l0.074-0.079l0.016-0.043l-0.003-0.081l0.023-0.182l-0.002-0.11l-0.026-0.125l-0.004-0.064l0.015-0.057l-0.017-0.01l-0.02-0.045
	l-0.012-0.046l0.005-0.016l-0.017-0.027l0.004-0.038l0.013-0.041l0.005-0.036l-0.03-0.167l0.004-0.055l0.011-0.053l-0.003-0.046
	l-0.038-0.044l-0.002-0.029l0.1-0.064l-0.041-0.084l0.032-0.051l0.077-0.069l0.006-0.052l-0.008-0.015l-0.023-0.01l-0.037-0.038
	l-0.062-0.094l-0.022-0.066l0.029-0.05l0.092-0.04l0.061-0.052l0.015-0.087l-0.021-0.142l-0.016-0.016l-0.025-0.013l-0.017-0.018
	l0.009-0.034l0.027-0.043l0.009-0.021l0.002-0.023l-0.016-0.032l-0.032-0.035l-0.115-0.094l-0.023-0.019l-0.052-0.068l-0.14-0.322
	l-0.022-0.098l0.011-0.073l-0.013-0.046l-0.114-0.131l-0.033-0.048l-0.015-0.166l-0.029-0.089l-0.07-0.071l-0.037-0.029
	l-0.039-0.042l-0.028-0.05l-0.005-0.053l0.027-0.029l0.044-0.02l0.038-0.032l0.01-0.065l0.025,0.014v-0.04l-0.009-0.041l-0.02-0.035
	l-0.031-0.028l0.199-0.146l0.325-0.31l0.307-0.293l0.479-0.437l0.401-0.367l0.513-0.468l0.377-0.344l0.41-0.378l0.394-0.363
	l0.367-0.337l0.364-0.335l0.172-0.251l0.001-0.001l0.346-0.579l0.229-0.381l0.209-0.35l0.216-0.361l0.096-0.089l0.258-0.126
	l0.151-0.071l0.144-0.065l0.31-0.144l0.311-0.144l0.311-0.145l0.311-0.143l0.118-0.06l0.12-0.059l0.118-0.058l0.119-0.059
	l0.11-0.073l0.056-0.039l0.055-0.035l0.11-0.074l0.11-0.074l0,0l0.282-0.229l0.284-0.231l0.283-0.229l0.284-0.229l0.19-0.154
	l0.059-0.029l0.074,0.01l0.355,0.145l0.085,0.035l0.188,0.077l0.189,0.077l0.086,0.034l1.404,0.473l1.407,0.476l1.407,0.479
	l1.41,0.483l0.627,0.217l0.301,0.183l0.693,0.414l0.691,0.418l0.692,0.417l0.692,0.419l0.298,0.181l0.06,0.064l0.057,0.146
	l0.054,0.142l0.106,0.231l0.196,0.428l0.196,0.428l0.196,0.428l0.196,0.427l0.194,0.428l0.194,0.427l0.194,0.428l0.194,0.427
	l0.08,0.18l0.009,0.07l-0.026,0.063l-0.098,0.122l-0.077,0.129l-0.089,0.264l-0.07,0.129l-0.068,0.079l-0.106,0.168l-0.061,0.077
	l-0.191,0.173L654.863,838.47z"/></svg>