<?xml version="1.0" encoding="utf-8"?>
<!-- Generator: Adobe Illustrator 15.0.0, SVG Export Plug-In . SVG Version: 6.00 Build 0)  -->
<!DOCTYPE svg PUBLIC "-//W3C//DTD SVG 1.1//EN" "http://www.w3.org/Graphics/SVG/1.1/DTD/svg11.dtd">
<svg version="1.1" id="Ebene_1" xmlns="http://www.w3.org/2000/svg" xmlns:xlink="http://www.w3.org/1999/xlink" x="0px" y="0px"
	 width="1920px" height="1080px" viewBox="0 0 1920 1080" enable-background="new 0 0 1920 1080" xml:space="preserve">

<path fill="#F4E0B6" stroke="#FFFFFF" d="M645.88,589.615l-0.084,0.089l-0.028-0.02l0.039-0.038l0.01-0.014l-0.028-0.01
	l-0.025-0.002l-0.023,0.007l-0.028,0.015l0.22-0.226l0.077-0.105l-0.006-0.071l0.088-0.003l-0.019,0.101l-0.105,0.231l-0.044,0.013
	L645.88,589.615z M645.477,588.098l-0.011,0.076l-0.043,0.031l-0.028,0.009l-0.023,0.022l-0.049,0.021l-0.023-0.023l0.022-0.037
	l0.069-0.081l0.011-0.021l-0.035-0.02l-0.021-0.041l0.003-0.042l0.004-0.029l-0.002-0.02l0.021-0.022l0.042,0.006l0.038,0.064
	L645.477,588.098z M646.709,588.848l-0.047,0.093l-0.07,0.045l-0.221,0.085l-0.113,0.024l-0.101,0.035l-0.089-0.01l-0.024-0.115
	l-0.099,0.031l-0.083-0.003l-0.088,0.011l-0.116,0.07l-0.186,0.149l-0.035,0.02l-0.058,0.022l-0.062,0.034l-0.056,0.051
	l-0.007-0.095l0.027-0.001l0.018-0.009l0.014-0.011l0.018-0.012l0.086-0.071l0.163-0.104l0.191-0.166l0.087-0.036l0.092-0.004
	l0.113,0.006l0.153-0.016l0.043,0.026l0.037,0.067l0.043,0.043l0.069-0.004l0.101-0.051l0.083-0.072l0.012-0.073l-0.077,0.003
	l-0.055-0.009l-0.026-0.026l0.025-0.022l0.137-0.071l0.046,0.036l0.043,0.055L646.709,588.848z M645.784,588.012l-0.027-0.02
	l0.016-0.052l0.05-0.115l0.148-0.245l0.014,0.083l-0.048,0.12L645.784,588.012z M645.853,587.296l-0.137-0.085l0.017-0.02
	l0.016-0.008l0.043-0.004l0.115,0.026l0.356,0.031l0.063,0.016l-0.152,0.094l-0.164,0.006L645.853,587.296z M647.929,586.29
	l-0.048-0.024l0.011-0.033l0.063-0.015l0.032,0.003l0.012,0.008l0.031,0.009l0.001,0.02l-0.045,0.032L647.929,586.29z
	 M648.112,586.299l-0.053-0.003l-0.011-0.014l0.012-0.022l0.008-0.02l0.019-0.008l0.03,0.005h0.036l0.027-0.016l0.021-0.009h0.012
	l-0.005,0.022l-0.036,0.042L648.112,586.299z M648.703,586.348l-0.085,0.078l-0.092,0.003l-0.069,0.02l-0.271,0.141l-0.102,0.038
	l-0.011-0.037l-0.016-0.03l-0.047,0.032l-0.041,0.015l-0.042,0.005l-0.047-0.012l-0.023,0.025l-0.021,0.076l0.083-0.021l0.03-0.016
	l0.037-0.029l0.023,0.02l-0.184,0.138l-0.218,0.09l-0.225,0.015l-0.209-0.085l0.024-0.026l0.039,0.033l0.015,0.009l0.231,0.015
	l0.113-0.026l0.112-0.081l-0.065-0.043l0.127-0.103l0.294-0.178l0.023-0.012h0.031l0.035-0.003l0.036-0.022l0.037-0.034l0.245-0.151
	l0.07-0.005l0.038,0.07l0.136,0.013L648.703,586.348z M648.764,586.096l-0.021,0.017l-0.049,0.026l-0.078,0.016l-0.005-0.033
	l0.071-0.055l0.037-0.012l0.002,0.019l0.01-0.007l0.009-0.02l0.007-0.007l0.011,0.014l0.009,0.009l0.008,0.017L648.764,586.096z
	 M647.717,583.509l0.014,0.039l0.026,0.013l0.034,0.007l0.037,0.016l0.242,0.182l0.019,0.021l0,0l-0.013,0.013l0.013,0.106
	l-0.163,0.032l-0.492-0.034l-0.079,0.032l-0.011,0.091l0.051,0.047l0.26,0.065l-0.074,0.036l-0.092,0.031l-0.187,0.033l-0.053,0.018
	l-0.005,0.023l0.032,0.022l0.055,0.004l0.131-0.017l0.209,0.014l0.086,0.021l0.075,0.038l0.076,0.078l0.065,0.136l0.037,0.055
	l0.093,0.052l0.189,0.016l0.171,0.065l0.05,0.028l0.007,0.031l-0.058,0.046l-0.054,0.017l-0.129-0.004l-0.123-0.034l-0.032,0.003
	l-0.04,0.039l0.02,0.031l0.046,0.013l0.071-0.022l0.051,0.004l0.056,0.016l0.043,0.021l-0.006,0.03l-0.39,0.462l-0.357,0.317
	l-0.068,0.049l-0.14,0.046l-0.068,0.049l-0.476,0.23l-0.107-0.01l0,0.001l-0.441,0.167l-0.069,0.113l-0.346,0.273l-0.393,0.234
	l-0.092,0.04l-0.208,0.032l-0.107,0.037l-0.095,0.066l-0.069,0.104l0.003,0.081l0.078,0.171l-0.025,0.08l0.008,0.059l0.14,0.151
	l0.007,0.059l-0.118,0.038l-0.101-0.078l-0.087-0.092h-0.078l-0.067,0.05l-0.236,0.139l-0.404,0.233l-0.406,0.352l-0.08,0.076
	l-0.157,0.136l-0.048,0.101l-0.054,0.084l-0.006,0.009l-0.029,0.035l-0.063,0.102l-0.03,0.06l0.02,0.047l0.06,0.09l-0.007,0.094
	l-0.037,0.099l-0.061,0.095l-0.104,0.128l-0.066,0.108l-0.051,0.037l-0.034-0.01l-0.035-0.027l-0.051-0.017l-0.079,0.005
	l-0.109,0.017l-0.109,0.029l-0.077,0.046l-0.049,0.084l-0.03,0.17l-0.047,0.077l0.007,0.005l0.004,0.021l-0.006,0.024l-0.025,0.02
	l-0.019-0.008l-0.046-0.045l-0.02-0.012h-0.086l-0.042,0.008l-0.041,0.026l-0.027,0.013l-0.038,0.003l-0.044,0.013l-0.046,0.032
	l-0.04,0.047l-0.038,0.074l-0.031,0.04l-0.296,0.24l-0.064,0.022l-0.066,0.007l-0.086,0.018l-0.195,0.12l-0.067,0.03l-0.078,0.057
	l-0.066,0.116l-0.05,0.022l-0.061,0.013l-0.03-0.02l0.045-0.067l0.541-0.335l0.129-0.016l0.063-0.018l-0.153-0.031l-0.348,0.168
	l-0.177,0.026l0.023,0.024l0.032,0.065l-0.039-0.007l-0.026-0.011l-0.022-0.022l-0.023-0.042l-0.023,0.04l-0.005,0.022l0.017,0.02
	l0.043,0.031l-0.023,0.023l-0.067-0.007l-0.067,0.016l-0.051,0.04l-0.009,0.028l-0.012,0.039l-0.125-0.005l-0.226,0.088
	l-0.107-0.025l-0.027,0.016l-0.095,0.085l-0.017,0.02l-0.035-0.005l-0.021-0.016l-0.007-0.017l0.006-0.006l-0.04-0.004l-0.016,0.001
	l-0.015,0.007l-0.034,0.006l-0.162,0.075l-0.034,0.006l-0.047-0.007l-0.229,0.046l-0.032,0.012l-0.065,0.037l-0.029,0.011
	l-0.013,0.008l-0.027,0.036l-0.012,0.01l-0.013-0.007l-0.029-0.029l-0.013-0.005l-0.027-0.005l-0.059-0.026l-0.026-0.004
	l-0.024,0.008l-0.077,0.047l0.153-0.158l-0.028-0.021l-0.108,0.062l-0.069-0.03l-0.025-0.074l0.023-0.067l0.005-0.033l-0.032-0.028
	l-0.039-0.02l-0.019-0.006l-0.019,0.009l-0.063,0.068l-0.037,0.017l-0.037-0.013l-0.154-0.085l-0.037-0.004l-0.036,0.004
	l-0.044-0.007l-0.061-0.034l-0.08-0.018l-0.075,0.047l-0.135,0.153l-0.093,0.068l-0.094,0.029l-0.092-0.007l-0.082-0.042
	l-0.03-0.006l-0.047,0.006l-0.05,0.016l-0.082,0.052l-0.043,0.001l-0.047-0.014l-0.059-0.009h-0.08l-0.04,0.005l-0.041,0.011
	l-0.051,0.035l-0.038,0.043l-0.043,0.025l-0.134-0.052l-0.107-0.014h-0.118l-0.097,0.017l-0.106,0.084l-0.071,0.223l-0.102,0.078
	l-0.208-0.062l-0.278-0.354l-0.132-0.098l-0.134-0.068l-0.299-0.248l-0.102-0.028l-0.039-0.026l-0.063-0.021l-0.056-0.011
	l-0.021,0.006l0.016-0.076l0.049-0.046l0.189-0.18l0.97-0.8l0.833-0.735l0.419-0.362l1.117-1.005l1.025-0.923l1.042-1.071
	l0.996-1.051l0.773-0.816l0.315-0.325l0.174-0.125l0.19-0.043l0.432,0.145l0.059,0.091l0.012,0.103l0.001,0.104l0.021,0.097
	l0.042,0.042l0.053,0.025l0.031,0.036l-0.048,0.146l0.017,0.075l0.076,0.204l0.045,0.017l0.052-0.011l0.098-0.069l0.045-0.013
	l0.333,0.019l0.075-0.011l0.198-0.103l0.051-0.02l0.102,0.001l0.081,0.013l0.078,0.004l0.091-0.024l0.052-0.031l0.093-0.074
	l0.046-0.028l0.242-0.074l0.053-0.03l0.036-0.063l-0.003-0.022l0.183,0.013l0.163,0.038l0.078,0.004l0.094-0.026l0.053-0.035
	l0.016-0.01l0.064-0.053l0.076-0.052l0.094-0.031l0.243-0.032l0.115-0.032l0.055-0.032l0.107-0.083l0.12-0.062l0.13-0.095
	l0.058-0.025l0.057-0.004l0.202,0.008l0.035,0.035l0.019,0.045l0.03,0.041l0.038,0.022l0.103,0.034l0.061,0.013l0.032,0.015
	l0.015,0.022L647.717,583.509z"/></svg>