<?xml version="1.0" encoding="utf-8"?>
<!-- Generator: Adobe Illustrator 15.0.0, SVG Export Plug-In . SVG Version: 6.00 Build 0)  -->
<!DOCTYPE svg PUBLIC "-//W3C//DTD SVG 1.1//EN" "http://www.w3.org/Graphics/SVG/1.1/DTD/svg11.dtd">
<svg version="1.1" id="Ebene_1" xmlns="http://www.w3.org/2000/svg" xmlns:xlink="http://www.w3.org/1999/xlink" x="0px" y="0px"
	 width="1920px" height="1080px" viewBox="0 0 1920 1080" enable-background="new 0 0 1920 1080" xml:space="preserve">

<path fill="#F4E0B6" stroke="#FFFFFF" d="M1109.849,533.347l-0.123-0.042l-0.042-0.028l-0.081-0.127l-0.009-0.005l-0.013-0.004
	l-0.024-0.017l-0.094-0.055l-0.09-0.008l-0.194,0.012l0.006-0.064l0.017-0.069l0.023-0.06l0.026-0.035l0.086-0.053l0.026-0.042
	l-0.047-0.039l-0.033-0.064l-0.26-0.369l-0.045-0.021l-0.103-0.062l-0.112-0.091l-0.075-0.106l-0.001-0.026l0.018-0.048
	l-0.004-0.023l-0.014-0.011l-0.054-0.034l-0.025-0.024l-0.016-0.032l-0.007-0.036l-0.013-0.032l-0.029-0.024l-0.032-0.017
	l-0.021-0.018l-0.03-0.041l-0.183-0.151l-0.042-0.048l-0.02-0.041l-0.051-0.155l-0.014-0.018l-0.022-0.003l-0.014-0.02l-0.005-0.024
	l0.013-0.027l-0.017-0.065l-0.005-0.024l-0.037-0.158l-0.042-0.104l-0.026-0.108l-0.028-0.028l-0.032-0.017l-0.03-0.012l-0.098-0.05
	l-0.024-0.029l0.021-0.034l0.024-0.026l-0.007-0.025l-0.05-0.06l-0.005-0.033l0.017-0.03l0.023-0.028l0.016-0.029l0.013-0.051
	l-0.015-0.101l-0.004-0.016l-0.032-0.045l-0.059-0.071l-0.011-0.032l0.024-0.031l0.002-0.024l-0.058-0.126l0.006-0.029l0.014-0.021
	l0.003-0.005l-0.001-0.029l-0.052-0.04l0.025-0.042l-0.004-0.039l-0.016-0.033l-0.074-0.12l-0.024-0.029l-0.011,0.002l-0.009,0.01
	l-0.016-0.003l-0.076-0.046l-0.023-0.027l-0.085-0.147l-0.008-0.035l0.013-0.032l-0.062-0.049l-0.021-0.063l-0.004-0.064
	l-0.009-0.052l-0.032-0.053l-0.031-0.037l-0.011-0.013l-0.091-0.087l-0.329-0.206l-0.044-0.072l-0.217-0.117l-0.109-0.082
	l-0.017-0.032l-0.023-0.048l-0.018-0.029l-0.052-0.02l-0.026-0.048l-0.028-0.042l-0.062-0.003l-0.015-0.072l-0.007-0.009
	l-0.042-0.052l-0.137-0.109l-0.076-0.043l-0.143-0.054l-0.005-0.002l-0.063-0.049l-0.035,0.058l-0.071,0.008l-0.085-0.001
	l-0.069,0.027l-0.035-0.055l-0.051-0.01l-0.102-0.003l-0.134-0.041l-0.035-0.002l-0.029,0.007l-0.019-0.004l-0.002-0.038
	l-0.016-0.026l-0.149,0.007l-0.057-0.024l0.023-0.028l-0.006-0.019l-0.022-0.018l-0.025-0.027l-0.005,0.001l-0.097-0.086
	l-0.116-0.044l-0.058-0.032l-0.026-0.05l-0.109-0.061l-0.045-0.013l-0.074,0.023h-0.028l-0.029-0.005l-0.038-0.001l-0.078,0.028
	l-0.026,0.002l-0.068-0.038l-0.154-0.113l-0.045-0.008l-0.01-0.002l-0.05-0.002l-0.055-0.132l-0.068-0.013l-0.021-0.051
	l-0.014-0.045l-0.005-0.039l0.01-0.03l-0.04-0.027l-0.052-0.01l-0.053,0.001l-0.043,0.007l-0.003,0.005l-0.066,0.038l-0.021,0.002
	l-0.015-0.004h-0.018l-0.024,0.012l-0.042-0.009l-0.053-0.046l-0.081-0.093l-0.008,0.001l-0.031,0.014l-0.013-0.001l-0.017-0.014
	l-0.021-0.036l-0.012-0.011l-0.023-0.02l-0.041-0.042l-0.018-0.018l-0.011-0.009l-0.099,0.019l-0.116-0.031l-0.303-0.124
	l-0.121-0.067l-0.075-0.071l0.051-0.048l-0.016-0.024l-0.03-0.02l-0.021-0.044l-0.027-0.028l-0.006-0.005l-0.021-0.005l-0.065-0.006
	l-0.021-0.011l-0.031-0.025l-0.065-0.042l-0.068-0.035l-0.046-0.007l0.053-0.109l-0.04-0.021l-0.035,0.003l-0.037,0.009
	l-0.038-0.004l-0.013-0.025l-0.078-0.118l-0.008-0.019l-0.081-0.029l-0.077,0.002l-0.05-0.019l0.006-0.09l-0.009-0.017l-0.006-0.007
	l-0.021,0.001l-0.078-0.012l0.012-0.046l-0.003-0.045l-0.025-0.034l-0.05-0.017l-0.021,0.041l-0.056-0.038l-0.064-0.03l-0.046,0.07
	l-0.014-0.007l-0.013-0.01l-0.013-0.012l-0.012-0.016l0.037-0.056l-0.018-0.029l-0.091,0.001l-0.095-0.02l-0.089-0.047l-0.077-0.084
	l-0.008-0.026l0.006-0.052l-0.01-0.02l-0.002-0.003l-0.025-0.012l-0.035-0.005l-0.028,0.003l-0.016,0.046l-0.058,0.012l-0.094-0.001
	l-0.016-0.024l0.048-0.034l0.012-0.047l-0.021-0.034l-0.109,0.02l-0.043-0.029l-0.04-0.037l-0.049-0.009l-0.01,0.036l-0.003,0.062
	l-0.016,0.028l-0.051-0.06l-0.033-0.02l-0.176-0.047l-0.016,0.034l-0.103-0.04l-0.058,0.004l-0.091,0.085l-0.058,0.019l-0.062-0.042
	l-0.003,0.06l-0.03,0.01l-0.091-0.018l-0.055,0.038l-0.086,0.133l-0.018-0.033l-0.021-0.072l-0.001-0.064l0.051-0.105l-0.017-0.058
	l-0.006-0.042l0.062-0.011l0.059,0.02l0.056,0.032l0.056,0.023l0.062-0.007l0.048-0.034l0.013-0.045l-0.02-0.057l-0.046-0.073
	l-0.06-0.067l-0.044-0.038l-0.022-0.034l0.004-0.055l0.013-0.01l0.053-0.008l0.017-0.009l0.009-0.037l-0.011-0.034l-0.006-0.03
	l0.021-0.026l0.107-0.013l0.127,0.024l0.12,0.001l0.085-0.076l0.008-0.042l0.021-0.007h0.023l0.025-0.02l0.035-0.013l0.009-0.017
	l-0.016-0.019l-0.021-0.016l-0.012-0.015l-0.015-0.027l-0.027-0.029l-0.015-0.03l0.022-0.026l0.031-0.01l0.073,0.003l0.334-0.061
	l0.086-0.047l0.064-0.11l0.002-0.026l0.028-0.261l0.063-0.105l0.056-0.017l0.114,0.026l0.041-0.009l0.029-0.048l0.071-0.228
	l0.007-0.118v-0.001l0.104-0.063l0.026-0.027l0.037-0.086l0.058-0.026l0.07,0.099l0.065-0.006l0.311-0.199l0.108-0.012l0.238,0.022
	l0.064,0.019l0.101,0.047l0.056,0.026l0.031,0.006l0.109,0.055l0.128-0.022l0.098-0.046l0.143-0.066l0.067-0.007l0.071,0.023
	l0.057,0.061l0.046,0.184l0.055,0.006l0.057-0.033l0.033-0.036l0.035-0.117l0.037-0.033l0.058,0.053l0.055,0.069l0.055,0.028
	l0.052-0.014l0.05-0.051l0.033-0.066l0.018-0.062l0.025-0.056l0.106-0.087l0.046-0.021l0.046,0.014l0.051,0.071l0.033,0.09
	l-0.007,0.053l-0.02,0.047l-0.01,0.073l0.017,0.065l0.039,0.05l0.048,0.014l0.046-0.044l0.01-0.07l-0.01-0.077l0.004-0.066
	l0.053-0.045l0.058,0.003l0.056,0.037l0.033,0.061l-0.012,0.075l0.167,0.108l0.051,0.012l0.074,0.005l0.024-0.02l-0.014-0.042
	l-0.039-0.067l-0.027-0.075l-0.008-0.017v-0.001l-0.042-0.169l0.039-0.062l0.084-0.048l0.292-0.048l0.176-0.11l0.101-0.042
	l0.101,0.004l0.036,0.02l0.023,0.025l0.019,0.025l0.023,0.022l0.102,0.074l0.072,0.096l0.02,0.02l0.032,0.015l0.067,0.013
	l0.033,0.019l0.109,0.059l0.138,0.038l0.08,0.008l0.055,0.005l0.097-0.018l0.079-0.077l0.015-0.22l0.055-0.092l0.045-0.026
	l0.044-0.009l0.05,0.01l0.06,0.031l0.059,0.046l0.105,0.119l0.056,0.043l0.053,0.005l0.118-0.034l0.037,0.002l0.025,0.059
	l-0.004,0.079l-0.014,0.083l-0.003,0.063l0.021,0.083l0.027,0.042l0.04,0.009l0.106-0.023l0.052,0.009l0.037,0.035v0.069
	l-0.012,0.148l0.063,0.129l0.088,0.134l0.066,0.162l0.01,0.159l-0.008,0.132l0.031,0.122l0.129,0.133h0.002l0,0v0.001l0.039,0.023
	l0.016,0.01l0.113,0.09l0.047,0.026l0.068,0.007l0.012-0.04l-0.003-0.057l0.03-0.046l0.049-0.004l0.097,0.052l0.11,0.002l0.043,0.03
	l0.042,0.038l0.046,0.028l0.049-0.002l0.045-0.017l0.051-0.007l0.064,0.028l0.051,0.052l0.037,0.055l0.042,0.049l0.018,0.009
	l0.054,0.028l0.054,0.008l0.05-0.005l0.044-0.022l0.033-0.04l0.015-0.073l-0.017-0.065l-0.025-0.065l-0.013-0.076l0.047-0.041
	l0.053-0.028l0.06-0.014l0.066,0.01l0.077,0.044l0.079,0.073l0.06,0.088l0.014,0.085l-0.041,0.075l0.044,0.088l0.154,0.183
	l0.045,0.104l-0.007,0.07l-0.044,0.052l-0.065,0.054v0.014l0.007,0.014l0.009,0.01l0.014,0.009l0.173,0.099l0.037,0.009l0.013-0.041
	l-0.01-0.064l0.002-0.063l0.045-0.036l0.049,0.001l0.054,0.021l0.052,0.04l0.04,0.057l0.015,0.064l-0.008,0.056v0.061l0.071,0.155
	l0.022,0.057l0.002,0.011l0.03,0.052l0.05,0.028l0.017-0.006l0.06-0.048l0.031-0.003l0.07,0.021l0.034,0.005l0.051-0.011
	l0.088-0.048l0.048-0.01l0.068,0.015l0.124,0.061l0.069,0.004l0.088-0.042l0.07-0.056l0.078-0.038l0.111,0.014l0.029,0.019
	l0.064,0.056l0.026,0.012l0.023-0.013l0.014-0.031l0.016-0.029l0.038-0.002l0.023,0.021l0.053,0.083l0.024,0.032l0.028,0.022
	l0.063,0.036l0.03,0.021l0.048,0.068l0.133,0.25l0.018,0.051l0.009,0.042l0.016,0.042l0.03,0.051l0.035,0.033l0.082,0.057
	l0.028,0.032l0.024,0.102l-0.05,0.048l-0.04,0.034l0.062,0.079l0.065,0.021l0.145-0.026l0.011,0.006l0.036,0.028l0.015,0.001
	l0.012-0.017l0.019-0.041l0.016-0.01l0.029,0.003l0.032,0.012l0.073,0.044l0.002,0.046l0.18,0.018l0.077,0.023l0.01-0.039
	l0.034-0.033l0.046-0.021h0.049l0.015,0.158l-0.023,0.112l-0.1,0.094l-0.313,0.183l-0.035,0.037l-0.028,0.057l-0.039,0.149
	l-0.044,0.042l-0.089-0.025l-0.021-0.022l-0.046-0.074l-0.027-0.032l-0.032-0.023l-0.108-0.052l-0.219-0.042l-0.07-0.037
	l0.068,0.107l0.007,0.075l-0.038,0.055l-0.07,0.048l-0.003,0.035l0.073,0.084l0.021,0.074l-0.012,0.06l-0.031,0.043l-0.046,0.024
	l-0.057,0.001l-0.065-0.025l-0.089-0.06l-0.057-0.009l-0.046,0.009l-0.09,0.037l-0.05,0.009l-0.032-0.018l-0.022-0.026l-0.013-0.033
	l-0.006-0.039l-0.003-0.036l-0.013-0.03l-0.021-0.021l-0.028-0.015l-0.065,0.029l-0.002,0.003l-0.033,0.063l-0.013,0.085
	l0.002,0.249l-0.031,0.022l-0.091-0.04l-0.143-0.092l-0.045,0.01l0.004,0.107l0.022,0.052l0.061,0.07l0.021,0.035l0.014,0.061
	l-0.01,0.014l-0.021,0.005l-0.023,0.032l-0.025,0.167l-0.035,0.073l-0.067-0.011l-0.025-0.039l-0.006-0.048v-0.049l-0.007-0.047
	l-0.022-0.048l-0.208-0.321l-0.068-0.071l-0.074-0.026l-0.004,0l-0.052,0.034l-0.142,0.278l-0.036,0.05l-0.069,0.094l-0.107,0.256
	l0.001,0.117l0.053,0.118l0.107,0.126l0.159,0.15l0.04,0.059l0.029,0.079l0.017,0.066l0.034,0.051l0.082,0.032l0,0l0.139,0.028
	l0.106,0.021l0.067,0.074l0.025,0.11l0.007,0.14l-0.024,0.16l0.02,0.073l0.065,0.09l0.15,0.136l0.041,0.078l-0.044,0.073
	l-0.374,0.413l-0.025,0.06l0.006,0.074l0.038,0.065l0.118,0.108l0.051,0.057l0.045,0.078l0.013,0.062l-0.012,0.053l-0.03,0.062
	l-0.065,0.066l-0.009,0.029l0.013,0.022l0.028,0.031l0.028,0.038l0.014,0.042l-0.042,0.084l-0.164,0.128l0.004,0.098l0.025,0.024
	l0.037,0.035l0.003,0.041l-0.061,0.073l-0.024,0.059l-0.01,0.05l-0.003,0.132l0.01,0.055l0.04,0.012l0.056-0.001l0.056,0.014
	l0.049,0.043l0.037,0.05l0.045,0.046l0.067,0.026l-0.048,0.079l-0.007,0.024v0.007l0.004,0.037l0.005,0.01l0.009,0.003l0.099,0.119
	l0.018,0.052l-0.039,0.062l-0.172,0.099l-0.23,0.072l-0.195,0.104l0,0l-0.071,0.195v0.001l0,0l0.005,0.059l0.012,0.059
	L1109.849,533.347z"/></svg>