<?xml version="1.0" encoding="utf-8"?>
<!-- Generator: Adobe Illustrator 15.0.0, SVG Export Plug-In . SVG Version: 6.00 Build 0)  -->
<!DOCTYPE svg PUBLIC "-//W3C//DTD SVG 1.1//EN" "http://www.w3.org/Graphics/SVG/1.1/DTD/svg11.dtd">
<svg version="1.1" id="Ebene_1" xmlns="http://www.w3.org/2000/svg" xmlns:xlink="http://www.w3.org/1999/xlink" x="0px" y="0px"
	 width="1920px" height="1080px" viewBox="0 0 1920 1080" enable-background="new 0 0 1920 1080" xml:space="preserve">

<path fill="#F4E0B6" stroke="#FFFFFF" d="M1061.511,481.658l-0.029,0.027l-0.033-0.003l-0.025-0.036l0.007-0.029l0.011-0.008
	l0.011-0.01l0.034-0.055l0.046-0.032l0.011-0.02l0.02-0.017l0.028-0.006l0.012,0.008l-0.004,0.032L1061.511,481.658z
	 M1064.351,479.487l-0.011,0.04l-0.027,0.012l0.007,0.014l0.001,0.009l-0.013,0.018l-0.028,0.024l-0.049-0.014l-0.01,0.009
	l-0.011-0.005l-0.008-0.046l0.009-0.064l0.037-0.042l0.055-0.012l0.028,0.009l-0.004,0.011L1064.351,479.487z M1062.032,480.436
	l-0.003,0.031l-0.041-0.01l-0.06-0.067l-0.024-0.067l0.055-0.039l-0.012-0.024l-0.027-0.006l-0.028,0.013l-0.024-0.009v-0.042
	l0.037-0.051l0.063-0.038l0.027,0.005l0.002,0.04l0.018,0.045l0.007,0.042l-0.002,0.02l-0.009,0.011l-0.005,0.028l0.016,0.074
	L1062.032,480.436z M1060.984,480.658l0.092,0.171l0.04,0.081l0.026,0.075l-0.016,0.007l-0.044-0.032l-0.04,0.006l-0.021,0.037
	l0.013,0.056l-0.006,0.014l-0.055-0.042l-0.066-0.063l-0.042-0.047l-0.046-0.065l-0.041-0.072l-0.019-0.063l0.021-0.042l0.041,0.016
	l0.034,0.058l0.034,0.043l0.041-0.029l-0.071-0.099l-0.003-0.055l0.048-0.005L1060.984,480.658z M1061.99,479.947l0.009,0.043
	l-0.012,0.031l-0.02,0.016l-0.016-0.004l-0.007-0.019l-0.012,0.005l-0.014,0.039l-0.024,0.035l-0.062,0.03l-0.018,0.011
	l-0.037,0.013l-0.01-0.016l0.01-0.04l-0.008-0.051l-0.003-0.052l0.004-0.024l0.011-0.039l0.038-0.056l0.046-0.02l0.04,0.012
	l0.036,0.028l0.024,0.025L1061.99,479.947z M1059.89,480.954l-0.032,0.021l-0.063,0.021l-0.018-0.008l-0.04-0.028l-0.004-0.038
	l0.02-0.036l0.02-0.023l0.051,0.017l0.031-0.012l0.021-0.002l0.041,0.014l0.008,0.039L1059.89,480.954z M1059.078,481.208
	l-0.026,0.071l0.038-0.016l0.025,0.015l0.015,0.037l0.003,0.05l-0.015,0.039l-0.031,0.012l-0.069,0.007l-0.021,0.015l-0.045,0.054
	l-0.013,0.027l-0.021,0.014l-0.036-0.016l-0.04-0.021l-0.035-0.011l0.021-0.047l0.037-0.029l0.087-0.037l-0.048-0.045l-0.043,0.001
	l-0.074,0.046l0.012-0.147l0.061-0.096l0.096-0.04l0.118,0.019l0.011,0.058L1059.078,481.208z M1059.499,480.729l0.019,0.034
	l-0.024,0.009l-0.022,0.015l-0.017,0.021l-0.01,0.029l0.021,0.007l0.062,0.036l-0.162,0.083l0.089-0.009l-0.009,0.029l-0.013,0.024
	l-0.021,0.017l0.014,0.003l0.021,0.016l-0.018,0.08l-0.047,0.071l-0.063,0.041l-0.072-0.01l0.006-0.034l-0.001-0.014l-0.041-0.055
	l0.017-0.044l0.008-0.012l-0.017-0.029l-0.049-0.004l-0.021-0.055l0.004-0.071l0.024-0.055l0.104-0.088l0.114-0.059
	L1059.499,480.729z M1060.515,480.425l-0.053,0.028l-0.029-0.003l0.003-0.014l-0.012-0.02l-0.023-0.037l-0.008-0.03l0.004-0.015
	l-0.006-0.017l-0.016-0.029l-0.006-0.037l0.01-0.023l0.101-0.125l0.045,0.03l0.008,0.102l-0.028,0.065l-0.04,0.048l0.008,0.02
	l0.045,0.012l0.023,0.021L1060.515,480.425z M1058.433,481.226l0.116-0.058l0.018,0.033l-0.086,0.038l-0.018,0.043l0.024,0.083
	l-0.015,0.007l-0.037-0.027l-0.042-0.003l-0.071,0.024l-0.041,0.002l-0.036-0.02l-0.035-0.012l-0.041,0.021l-0.001-0.077l0.03-0.05
	l0.097-0.055l0.068,0.05H1058.433z M1059.873,480.813l-0.063,0.043l-0.092-0.034l-0.1-0.11l0.019-0.039l0.077-0.095l0.023-0.102
	l0.019-0.043l0.037-0.016l0.063,0.051l-0.063,0.19l0.021,0.006l0.052,0.026l0.021,0.005L1059.873,480.813z M1067.711,476.096
	l-0.023,0.037l-0.034,0.014l-0.041-0.041l-0.007-0.048l0.03-0.034l0.077-0.036l0.009,0.075L1067.711,476.096z M1060.277,480.257
	l-0.051,0.091l-0.098-0.064l-0.021-0.105l0.001-0.115l0.03-0.074l0.062,0.015l0.072,0.105L1060.277,480.257z M1058.701,480.7
	l0.011,0.008l0.032-0.019l0.03,0.001l0.012,0.049l-0.004,0.05l0.01,0.035l0.003,0.032l-0.018,0.013l-0.013,0.002l-0.018,0.014
	l-0.042-0.006l-0.037-0.063l-0.021-0.084v-0.079l0.039-0.017l0.024,0.036L1058.701,480.7z M1067.215,476.276l0.041,0.062
	l-0.067-0.002l-0.028-0.009l-0.009-0.038l-0.014-0.089l-0.072,0.017l-0.087-0.044l-0.065-0.085l-0.013-0.104l0.049,0.006
	l0.297,0.104l0.004,0.04l-0.024,0.038l-0.017,0.048L1067.215,476.276z M1061.474,479.647l0.028,0.049l0.044,0.048l-0.013,0.012
	l-0.004,0.015l-0.003,0.016l-0.006,0.016l0.016-0.001l0.046,0.008l0.016,0.051l0.004,0.021l0.107,0.128l0.003,0.17l-0.085,0.256
	l0.018,0.032l0.019-0.013l0.017,0.001l0.042,0.015l-0.006,0.04l0.018,0.095l-0.002,0.022l-0.057,0.019l-0.019,0.02l-0.007,0.049
	l-0.076-0.072l-0.069-0.059l0.008,0.058l-0.017,0.13l-0.009,0.013l0.005,0.022l0.03,0.051l-0.013,0.007l-0.032-0.066l-0.03-0.041
	l-0.022-0.005l-0.012,0.041l-0.039-0.052l-0.007-0.041l-0.002-0.047l-0.026-0.068l-0.005,0.05l-0.03,0.121l-0.002,0.076
	l-0.077,0.078l-0.024,0.038l-0.065-0.12l-0.025-0.058l-0.016-0.056l-0.045-0.052l-0.026-0.059l-0.021-0.053l-0.027-0.038
	l-0.041-0.018l-0.076-0.005l-0.052-0.031l0.034-0.041l0.045-0.104l0.036-0.037l0.21-0.11l-0.018-0.031l-0.409,0.169l-0.032-0.113
	l-0.055-0.139l-0.024-0.118l0.053-0.047l0.018,0.138l0.019,0.059l0.045,0.005l0.187-0.155l0.042-0.099l0.026-0.043l0.369-0.289
	l0.022-0.1l-0.014-0.135l0.002-0.121l0.033-0.084l0.084-0.023l0.044,0.112l-0.007,0.082l-0.025,0.072l-0.015,0.08l0.01,0.053
	l0.017,0.052l0.007,0.044l-0.04,0.058L1061.474,479.647z M1059.448,480.154l-0.013,0.009l-0.01,0.001l0.003-0.025l0.02-0.05
	l0.022-0.019l0.009,0.026l-0.009,0.034L1059.448,480.154z M1059.331,480.054l0.037-0.002l0.02,0.029l0.015,0.119l-0.016,0.034
	l-0.04,0.019l-0.041,0.005l-0.054-0.03l-0.022,0.012l-0.059-0.061l-0.005-0.032l0.032-0.016l0.031-0.009l0.028-0.033
	L1059.331,480.054z M1060.198,479.761l0.024,0.058l0.001,0.029l-0.03,0.038l-0.02,0.004l-0.024-0.01l-0.023-0.003l-0.007,0.027
	l-0.001,0.018l-0.011,0.042l-0.006,0.011l-0.082,0.076l-0.034,0.011l0.005-0.07l-0.054-0.036l-0.061,0.002l-0.052,0.024
	l-0.026,0.031l0.087-0.044l0.01,0.111l-0.064,0.013l-0.08-0.012l-0.037,0.032l-0.021,0.008l-0.042-0.062l-0.03-0.091l0.019-0.081
	l0.047-0.038l0.26-0.108l0.187-0.011L1060.198,479.761z M1060.266,479.441l0.033-0.012l0.026-0.02h0.031l0.044,0.039l-0.018,0.082
	l-0.036,0.078l-0.05,0.061l-0.057,0.031l-0.001-0.037l-0.006-0.037l-0.021-0.079l-0.021,0.049l-0.038,0.026l-0.1,0.007l-0.006-0.095
	l0.018-0.072l0.035-0.051l0.049-0.034l0.012,0.005l0.011,0.021l0.01,0.022l0.008,0.011L1060.266,479.441z M1059.766,479.646
	l-0.02,0.019l-0.051,0.011l-0.047-0.021l-0.017-0.03l0.007-0.024l0.161-0.157l0.06-0.036l0.05,0.019l0.003,0.056L1059.766,479.646z
	 M1059.695,479.489l-0.145,0.208l-0.021,0.004l-0.006-0.102l0.015-0.051l0.016-0.016l0.12-0.075L1059.695,479.489z
	 M1057.898,480.432l0.041,0.052l0.012,0.031l-0.005,0.004l-0.021-0.003l-0.014,0.011l-0.018-0.008l-0.016-0.033l-0.013-0.007h-0.019
	l-0.037,0.033l-0.035-0.02l-0.014-0.035v-0.036l-0.005-0.033l0.021-0.021l0.059,0.02L1057.898,480.432z M1068.644,474.43
	l-0.021,0.014l-0.043-0.018l-0.089-0.06l-0.008-0.043l0.08-0.083l0.015-0.04l-0.004-0.033l-0.021-0.033l-0.008-0.035l0.004-0.032
	l0.017-0.013l0.123,0.014l0.031,0.011l0.009,0.029l-0.008,0.046l-0.102,0.123l-0.008,0.054L1068.644,474.43z M1059.086,479.645
	l0.016,0.029l-0.074,0.007l-0.032,0.012l-0.012,0.042l0.042,0.011l0.081,0.005l0.046,0.019l0.002,0.043l0.064-0.042l0.039,0.001
	l0.046,0.041l-0.033,0.06l-0.021,0.012l0.046,0.005l0.021-0.002l0.021-0.011l0.019,0.035l-0.025,0.044l-0.037,0.025l-0.047,0.012
	h-0.052l-0.003,0.009l-0.003,0.021l-0.005,0.019l-0.016,0.006l-0.007-0.011l-0.021-0.045l-0.007-0.01l-0.07-0.021l-0.03-0.002
	l-0.075,0.017l-0.065-0.007l-0.067-0.023l-0.047-0.043l-0.015-0.062l0.015-0.057l0.031-0.042l0.036-0.018l-0.018-0.032l-0.168-0.077
	l-0.024-0.064l-0.013-0.053l0.008-0.035l0.032-0.012l0.052,0.017l0.13,0.021l0.041,0.032l0.029,0.037l0.029,0.015l0.027,0.001
	l0.021-0.007L1059.086,479.645z M1058.415,479.643l-0.017,0.035l-0.037-0.039l-0.027-0.099l-0.012-0.14l0.012-0.113l0.05-0.021
	l0.026,0.068l0.006,0.06l-0.003,0.119l0.004,0.063L1058.415,479.643z M1057.564,479.938l-0.012,0.007l-0.055-0.008l-0.08,0.026
	l-0.053-0.023l-0.031-0.111l-0.045-0.046l-0.057-0.035l-0.064-0.074l0.045-0.022l0.104,0.053l0.113,0.082l0.029,0.041
	L1057.564,479.938z M1057.712,479.525l0.077,0.042l-0.009,0.007l-0.003,0.008l-0.008,0.006l-0.022-0.002l0.015,0.05l0.019,0.046
	l0.024,0.037l0.026,0.023l-0.038,0.013l-0.016,0.034l0.012,0.04l0.051,0.034l-0.068-0.004l-0.084-0.03l-0.092-0.065l-0.084-0.104
	l-0.002,0.062l-0.016,0.028l-0.029-0.02l-0.051-0.082l-0.019-0.075l0.029-0.041l0.093-0.035l0.078,0.062L1057.712,479.525z
	 M1057.297,479.566l-0.035,0.022l-0.032-0.021l-0.029-0.038l-0.026-0.023l-0.051,0.007l-0.03-0.003l-0.042-0.025l-0.055-0.061
	l-0.005-0.034l0.036-0.055l-0.005-0.039l-0.011-0.042l0.003-0.024l0.035,0.009l0.023,0.039l0.025,0.033l0.029,0.023l0.034,0.014
	l0.019,0.075l0.026,0.075l0.033,0.045l0.039-0.01L1057.297,479.566z M1056.438,478.312l0.012,0.013l0.016-0.017l0.014-0.005
	l0.014,0.006l0.01-0.011l0.002-0.036l0.021,0.001l0.034,0.063l0.01,0.04l-0.034,0.001l-0.116-0.017l-0.004,0.015l-0.01-0.004
	l-0.012-0.016l-0.022-0.013l-0.029-0.01l-0.003-0.022l0.028-0.031l0.042,0.005L1056.438,478.312z M1056.553,478.022l0.007,0.051
	l-0.04,0.027l-0.058,0.004l-0.02,0.017l-0.069,0.035l-0.037,0.005l-0.043-0.01l0.028-0.075l0.129-0.001l0.029-0.053l-0.017-0.016
	l-0.012-0.014l-0.009-0.014l-0.015-0.017l0.008-0.018l0.002-0.042l0.003-0.023l-0.11-0.064l-0.057-0.012l-0.047,0.015l0.013-0.108
	l0.021-0.035l0.043-0.018l0.074,0.054l0.056,0.03l0.118,0.038l-0.015,0.069l-0.025,0.032l-0.007,0.042L1056.553,478.022z
	 M1055.928,476.523l0.106,0.04l0.025,0.009l0.009,0.005l-0.019,0.005l-0.096-0.006l-0.027,0.044l-0.035,0.018l-0.017-0.001
	l0.002-0.003l0.003-0.002l-0.014-0.016l-0.03-0.037l-0.008-0.03l0.012-0.014l0.003-0.014l-0.009-0.014l-0.002-0.035l0.021-0.043
	l0.034,0.009l0.01,0.047L1055.928,476.523z M1055.099,474.375l-0.014,0.009l-0.054,0.008l-0.048-0.008l-0.013-0.014l0.021-0.016
	l0.002-0.062l0.092-0.007l0.008,0l0.015,0.018l0.001,0.022l-0.014,0.009l-0.002,0.018L1055.099,474.375z M1051.033,468.111
	l0.046,0.062l0.026,0.048l0.001,0.027l-0.014,0.012l-0.055-0.022l-0.007,0.028l-0.019,0.034l-0.062-0.014l-0.047-0.037l-0.011-0.021
	l0.009-0.01l0.02,0.007l0.011,0.007l-0.003-0.025l-0.011-0.042l-0.025-0.014l-0.036-0.012l-0.038-0.032l-0.023-0.038l-0.004-0.034
	l0.009-0.026l0.012-0.007l0.017,0.014l0.016,0.008l0.063-0.001l0.034,0.014l0.045,0.029L1051.033,468.111z M1049.95,466.709
	l0.123,0.037l0.074-0.046l0.061-0.073l0.088-0.045l0.015,0.031l-0.023,0.032l-0.004,0.049l0.023,0.14l0.026,0.036l0.007,0.005
	l-0.001,0.001l0.005,0.025l0.039,0.007l0.114-0.045l0.022,0.005l0.024,0.012l0.02,0.001l0.004-0.03l-0.014-0.038l-0.021-0.026
	l-0.021-0.021l-0.012-0.027l0.016-0.086l0.057-0.082l0.08-0.039l0.088,0.042l0.021,0.073l0.033,0.064l0.04,0.053l0.044,0.041
	l-0.032,0.053l-0.049,0.039l-0.035-0.004l0.002-0.076l-0.036,0.016l-0.069,0.209l0.019,0.033l0.016-0.002l0.054,0.006l-0.012,0.06
	l-0.024,0.038l-0.077,0.045l-0.045-0.025l-0.052-0.043l-0.06-0.056l-0.058-0.022l-0.017,0.029l-0.013,0.045l-0.029,0.013
	l-0.069-0.067l0.042-0.021l-0.02-0.037l-0.038-0.01l-0.101-0.055l-0.043-0.032l-0.036-0.04l-0.112-0.143L1049.95,466.709z
	 M1051.751,465.598l0.105,0.07l0.015,0.039l0.012,0.073l-0.021,0.041l-0.032,0.014l-0.022-0.009l-0.017-0.036l-0.015-0.011
	l-0.008,0.017l0.007,0.024l0.01,0.023l-0.002,0.017l-0.011,0.007l-0.02-0.008l-0.024-0.029l-0.025-0.062l-0.008-0.069l0.019-0.028
	l0.055,0.01l0.012-0.014l-0.02-0.021l-0.047-0.019l-0.021-0.018l0.007-0.012l0.011-0.006l0.015,0.009l0.012,0.002L1051.751,465.598z
	 M1052.178,465.432l0.031,0.025l0.009,0.025l0.005,0.055l0.012,0.077l-0.01,0.047l-0.043,0.021l-0.1-0.043l-0.071,0.063l0.004,0.011
	l0.058-0.011l0.051,0.005l0.038,0.048l0.006,0.039l-0.014,0.012l-0.006,0.013l0.009,0.013l-0.014,0.012l-0.131-0.004l-0.023-0.016
	l-0.004-0.024l-0.02-0.015l-0.034-0.011l-0.009-0.025l0.007-0.019l0.01-0.018l-0.006-0.037l-0.038-0.042l-0.042-0.032l-0.023-0.024
	l0.013-0.025l0.022-0.021l0.019-0.046l0.033,0l0.019-0.006l0.025,0.01l0.033,0.025l0.032,0.012l0.009-0.009l-0.013-0.025
	l0.005-0.017l0.021-0.003l0.022,0.007l0.021,0.016l0.011-0.001l0.006-0.022l-0.003-0.03l-0.014-0.039l-0.012-0.042l-0.003-0.034
	l0.004-0.015l0.015,0.003l0.027,0.033l0.02,0.027L1052.178,465.432z M1050.434,466.299l-0.006,0.176l-0.05-0.076h-0.023
	l-0.017,0.031l-0.028,0.019l-0.167-0.087l-0.001-0.024l0.006-0.012l0.021-0.015l0.037-0.055l0.03-0.105l0.048-0.075l0.094,0.044
	l0.041,0.079L1050.434,466.299z M1051.655,465.251l0.023-0.001l0.018-0.012l0.016-0.004l0.008,0.016l-0.007,0.021l-0.017,0.013
	l0.01,0.015l0.026,0.027l0.002,0.043l-0.027,0.028l-0.086-0.008l-0.021,0.026l0.004,0.057l0.006,0.033l-0.006,0.049l-0.015,0.058
	l-0.015,0.017l-0.021-0.003l-0.015-0.019l-0.002-0.013l-0.006-0.02l-0.004-0.033l-0.003-0.027l-0.006-0.035l-0.003-0.032
	l0.003-0.025l-0.002-0.026l-0.005-0.025v-0.043l0.035-0.021l0.036-0.006l0.02-0.036l0.025-0.018l0.013,0.001L1051.655,465.251z
	 M1052.021,462.588l0.013,0.003l0.003-0.015l0.002-0.01l0.031-0.014l0.019,0.009l0.003,0.021l-0.005,0.011l0.005,0.014l0.014,0.029
	l0.011,0.037l0.002,0.019l0.013,0.034l0.01,0.051l-0.022-0.001l-0.034-0.011l-0.001,0.019l0.025,0.035l0.008,0.035l-0.02,0.018
	l-0.003,0.028l-0.027,0.028l-0.056-0.01l-0.058-0.031l-0.061-0.062l-0.021-0.014l-0.018-0.014l-0.016-0.022l0.024-0.053l0.007-0.026
	l0.001-0.035l0.017-0.052l0.035-0.055l0.037-0.013l0.033,0.024L1052.021,462.588z M1052.336,454.054l0.038,0.024l0.039-0.032
	l0.059-0.025l0.116-0.04l0.066-0.054l0.092,0.04l-0.035,0.079l-0.122,0.069l-0.186,0.037l-0.099,0.07l0.021,0.114l-0.085,0.187
	l0.131,0.107l0.104-0.081l0.045,0.016l-0.007,0.036l-0.018,0.015l-0.023,0.011l-0.021,0.018l-0.008,0.024l0.002,0.047l-0.007,0.026
	l-0.025,0.029l-0.042,0.018l-0.042-0.018l-0.023-0.084l-0.019-0.013l-0.045-0.042l-0.053-0.036l0.023,0.149l-0.037,0.049
	l-0.134-0.087l-0.082-0.066l-0.055-0.058l-0.055-0.063l0.008-0.085l0.037-0.226l0.15-0.105l0.138-0.156l0.111-0.011l0.066,0.058
	L1052.336,454.054z M1041.798,424.832l0.104,0.066l0.229,0.185l0.671,0.442l0.062,0.023l0.391-0.032l0.112,0.185l0.105,0.084
	l0.095,0.02l0.077-0.008l0.681-0.031l0.68-0.037l0.06,0.039l0.351,0.359l0.627,0.503l0.124,0.589l-0.016,1.239l0.023,0.082
	l0.063,0.127l0.224,0.415l0.056,0.084l0.053,0.043l0.354,0.162l-0.043,0.354l-0.132,0.215l-0.174,0.63l-0.067,0.056l0.066,0.095
	l0.052,0.036l0.044,0.007l0.295-0.242l0.151-0.053l0.211,0.079l0.167,0.456l0.059,0.203l0.209,1.25l0.022,0.08l0.049,0.078
	l0.1,0.111l0.125,0.128l1.139,1.158l0.109,0.08l0.094,0.015l0.605-0.074l0.604-0.077l0.081,0.011l0.099,0.05l0.348,0.248h0.001
	l0.161,0.116l0.724,0.515l0.202,0.088l0.824,0.213l0.01,0.093l0.018,0.063l0.036,0.071l0.198,0.34l0.035,0.073l0.107,0.26
	l0.031,0.113l0.047,1.52l0.015,0.063l0.039,0.104l0.014,0.044l0.004,0.042l-0.007,0.181l0.24,1.598l0,0l0,0l0,0l0.188,0.478
	l0.287,0.312l0.89,0.527l0.237,0.223l0.01,0.007l0.108,0.065l0.033,0.04l0.034,0.048l0.041,0.046l0.038,0.03l0.438,0.252
	l0.071,0.075l0.154,0.196l0.071,0.09l0.14,0.151l0.143,0.134l0.283,0.221l0.578,0.365l0.29,0.136l0.123,0.097l0.159,0.171
	l0.295,0.348l0.071,0.074l0.201,0.163l0.07,0.064l0.211,0.212l0.195,0.166l0.072,0.08l0.343,0.419l0.086,0.116l0.064,0.109
	l0.003,0.064l-0.074,0.014l-0.156-0.006l-0.312,0.433l-0.046,0.166l0.115,0.066l0.203,0.028l0.116,0.06l0.02,0.079l-0.011,0.294
	l0.022,0.087l0.008,0.033v0.001l0.104,0.191l0.301,0.418l0.095,0.189l0.006,0.417l0.045,0.208l0.144,0.042l0.236-0.18l0.152-0.02
	l0.13,0.177l0.009,0.052v0.045l0.007,0.044l0.029,0.049l0.049,0.028l0.036-0.013l0.031,0.002l0.034,0.071l0.001,0.099l-0.215,0.261
	l-0.021,0.126l0.036,0.169l0.114,0.221l0.342,0.353l0.324,0.25l0.277,0.11l0.203-0.068l0.325-0.223l0.097-0.007l0.052,0.015
	l0.022,0.029l0.014,0.042l0.024,0.052l0.036,0.064l0.015,0.032l0.021,0.024l0.055,0.04l0.043,0.023l0.128,0.045l0.091,0.071
	l0.05,0.103l0.016,0.105l-0.009,0.081l-0.185,0.387l-0.002,0.027l0.013,0.034l0.017,0.009l0.016-0.001l0.01,0.004l0.057,0.081
	l0.035,0.04l0.042,0.036l0.005,0.015l0.009,0.015l0.009,0.012l0.013,0.012l0.025-0.002l0.012,0.009l0.016,0.035l0.118,0.005
	l0.121,0.05l0.06,0.123l0.04,0.148l0.066,0.135l0.094,0.064l0.123,0.031l0.187,0.003l0.35-0.081l0.14,0.019l0.105,0.048l0.097,0.06
	l0.086,0.035l0.123-0.039l0.086,0.001l0.085,0.043l0.051,0.109l0.03,0.116l0.051,0.078l0.072,0.062l0.089,0.067l0.176,0.171
	l0.094,0.167l0.04,0.175l0.018,0.197l0,0l0,0l-0.026,0.681l0.089,0.388l0.001,0.26l-0.18,0.327l-0.045,0.145l-0.015,0.048
	l0.116,0.098l0.842,0.322l0.398,0.056l0.235,0.113l0.092,0.063l0.082,0.015l0.863-0.026l0.542,0.202l0.561,0.031l0.087,0.024
	l0.09,0.048l0.075,0.084l0.06,0.084l0.078,0.09l0.08,0.08l0.067,0.054l0.095,0.039l0.183,0.021l0.097,0.028l0.257,0.126l0.075,0.016
	l0.039,0.007l0.1,0.051l0.102,0.097l0.103,0.086l0.104,0.017l0.085,0.486l0.043,0.224l0.073,0.236l0.204,0.499l0.039,0.124
	l0.021,0.211l0.037,0.131l0.103,0.252l0.035,0.12l-0.004,0.083v0.001l-0.002,0.001l-0.049,0.142l-0.004,0.061l0.013,0.065
	l0.033,0.123l-0.033,0.538l0.008,0.067l0.054,0.187l0.009,0.079l-0.006,0.066l-0.091,0.334l-0.038,0.315l-0.04,0.099l-0.012,0.055
	l0.002,0.058l0.047,0.186l0.015,0.549l-0.037,0.533v0.001l0,0l0.053,0.9l0.045,0.778l-0.058,0.488l0.007,0.097l0.058,0.19
	l0.013,0.101l-0.035,0.561l-0.024,0.095l-0.082,0.149l-0.015,0.075l0.012,0.095l0.036,0.136l0.026,0.117l-0.06,0.533l0.009,0.139
	l0.011,0.068l0.011,0.083l0.016,0.28l-0.049,0.242l-0.158,0.4l-0.047,0.161l-0.037,0.252l-0.066,0.147l-0.005,0.066l0.014,0.156
	l-0.022,0.233l0.006,0.09l0.025,0.115l0,0l0.002,0.001l0,0l0.008,0.186l-0.14,0.167l-0.042,0.135l-0.074,0.522l0.01,0.424
	l-0.094,0.277l-0.021,0.608l-0.005,0.095l-0.048,0.317l-0.027,0.34l-0.059-0.021l-0.059-0.034l-0.049-0.01l-0.028,0.056l0.017,0.009
	l0.034,0.028l0.016,0.01l-0.021,0.041l0.025,0.055l0.052,0.053l0.058,0.037l-0.014,0.044l-0.008,0.012l0.043,0.008l0.015-0.006
	l-0.021,0.123l-0.018,0.031l-0.156,0.057l-0.014-0.063l0.04-0.074l0.01-0.053l-0.09,0.034l-0.036,0.029l-0.007,0.063l0.019,0.065
	l0.027,0.033l0.039,0.025l0.058,0.046l-0.092,0.018l-0.271-0.058l-0.047,0.082l0.022-0.005l0.014,0.005l0.041,0.035l-0.004,0.02
	l0.004,0.046l-0.002,0.024l0.032,0.002l0.031,0.007l0.029,0.016l0.033,0.025l-0.117,0.036l-0.27-0.044l-0.11,0.02l-0.158,0.086
	l-0.044,0.002l-0.042-0.063l0.042-0.046l0.112-0.048l-0.075-0.02l-0.21-0.014l-0.022-0.109l-0.041-0.008l-0.031,0.053l0.006,0.074
	l0.054,0.061l0.067,0.052l0.046,0.058l-0.016,0.081l-0.039-0.057l-0.021-0.008l-0.031,0.037l-0.034,0.001l-0.067-0.048l-0.032-0.001
	l-0.005,0.024l0.02,0.077l-0.005,0.025l-0.027-0.001l-0.072-0.044l-0.026-0.007l-0.016,0.016l-0.013,0.033l-0.002,0.038l0.017,0.03
	l0.033,0.04l0.003,0.033l-0.006,0.033l0.032,0.114l-0.031,0.047l-0.097,0.048l0.093,0.043l0.05,0.037l0.025,0.055h-0.021
	l-0.109-0.042l-0.04-0.022l-0.139,0.19l-0.058,0.038l-0.002-0.037l-0.008-0.038l-0.025-0.078l-0.035,0.021l-0.033,0.039
	l-0.022,0.052l-0.007,0.058l0.014,0.036l0.051,0.077l0.015,0.033l-0.004,0.027l-0.023,0.058l-0.002,0.039l-0.023,0.026l-0.065-0.024
	l-0.073-0.039l-0.054-0.021l-0.045,0.012l-0.044,0.031l-0.021,0.044l0.023,0.051l-0.032,0.044l-0.071,0.001l-0.087-0.029
	l-0.079-0.044l-0.068-0.078l0.004-0.07l0.031-0.067l0.013-0.068l-0.021-0.16l-0.01-0.035l-0.068-0.1l-0.018-0.041l-0.003-0.063
	l0.042-0.139l0.092-0.037l0.262,0.039l-0.148-0.148l-0.14-0.084l-0.112-0.003l-0.063,0.094l-0.009,0.095l0.022,0.216l0.053,0.488
	l0.071,0.165l0.143,0.104l0.013,0.093v0.042l-0.007,0.031l-0.058,0.036l-0.002,0.029l0.06,0.063l-0.028,0.004l-0.033-0.008
	l-0.077-0.039l0.034,0.051l0.01,0.032l-0.008,0.019l-0.021,0.016l-0.015,0.029l0.015,0.035l0.018,0.033l-0.004,0.021l-0.057-0.011
	l-0.072-0.058l-0.068-0.062l-0.037-0.022l-0.04-0.013l-0.064-0.034l-0.061-0.024l-0.026,0.019l0.027,0.059l0.065,0.047l0.122,0.063
	l-0.214,0.078l-0.016,0.014l-0.01,0.075l-0.01,0.021l-0.034-0.021l-0.136-0.044l-0.09-0.002l-0.042-0.007l-0.139-0.071l-0.102-0.021
	l-0.094,0.003l-0.062,0.03l0.02,0.034l0.146-0.006l0.041,0.017l0.091,0.055l0.07,0.002l0.037,0.031l0.033,0.042l0.025,0.038
	l-0.001,0.034l-0.033,0.013l-0.019,0.019l0.043,0.047l0.044,0.022l0.109,0.012l0.087,0.057l0.036,0.019l0.032-0.004l0.028,0.017
	l0.028,0.057l0.019,0.063l-0.003,0.035l-0.085,0.094l-0.063-0.102l-0.172-0.097l-0.018-0.07l-0.024,0.016l-0.006,0.033v0.033
	l-0.013,0.024l-0.025,0.009l-0.025-0.001l-0.202-0.066l-0.064-0.01l-0.065,0.007l0.139,0.068l0.072,0.022l0.053,0.005l0.034,0.104
	l0.01,0.124l0.032,0.063l0.06,0.058l0.13,0.084l0.072,0.08l-0.046,0.021l-0.038,0.002l-0.041-0.015l-0.055-0.028l-0.004-0.04
	l-0.062-0.034l-0.051,0.007l-0.046,0.02l-0.051,0.005l-0.117-0.06l-0.052-0.01l-0.012,0.051l0.062,0.073l0.107,0.017l0.185-0.005
	l-0.103,0.148l0.017,0.028l-0.025,0.044l-0.072,0.001l-0.284-0.112l-0.03-0.022l-0.035-0.065l-0.009-0.051l0.012-0.036l-0.06-0.004
	l-0.02-0.034l0.111-0.066l-0.086-0.081l-0.05,0.019l-0.024,0.064l-0.01,0.061l-0.03,0.073l-0.126,0.144l0.017,0.029l0.043,0.002
	l0.039,0.042l0.032,0.063l0.027,0.068l-0.001,0.02l-0.012,0.015l-0.004,0.021l0.033,0.083l0.002,0.032l-0.009,0.023l-0.286,0.174
	l-0.036-0.07l-0.044-0.018l-0.091,0.02l0.018,0.019l0.038,0.049l0.017,0.02l-0.05,0.063l-0.188,0.114l-0.007,0.013l0.006,0.02
	l0.032,0.052v0.004l0.003,0.026l-0.029,0.004l-0.055-0.009l0.02,0.039l0.104,0.009l0.048,0.022l-0.011,0.026l-0.025,0.018
	l0.058,0.027l-0.021,0.058l-0.104,0.106l-0.048,0.024l-0.013-0.036l-0.005-0.016l-0.005-0.021l-0.054,0.111v0.051l0.057,0.005
	l0.003,0.036l-0.032,0.018l-0.011,0.06l-0.048,0.006l-0.055-0.036l0.007-0.048l-0.016-0.078l-0.031-0.076l-0.044-0.045l-0.047,0.017
	l0.006,0.078l0.077,0.246l0.001,0.049l-0.167,0.116l-0.052,0.008l-0.055-0.042l0.061-0.07l-0.052-0.081l-0.094-0.037l-0.063,0.061
	l0.116,0.104l-0.021,0.037l-0.023,0.087l-0.016,0.034l-0.097,0.078l-0.054,0.066l-0.011,0.021l-0.001,0.028l0.015,0.035l0.041,0.055
	l0.002,0.024l-0.029,0.018l-0.035-0.031l-0.037-0.048l-0.03-0.033l-0.042-0.019l-0.174-0.009l-0.036,0.009l-0.003,0.021l0.052,0.035
	l0.053,0.012l0.037-0.003l0.025,0.016l0.013,0.068l-0.008,0.048l-0.021,0.031l-0.013,0.037l0.016,0.065l0.105-0.143l0.013,0.049
	v0.042l-0.013,0.074l0.062,0.009l0.016,0.029l-0.075,0.193l-0.004,0.181l-0.016,0.066l-0.037,0.045l-0.058,0.039l-0.019-0.072
	l-0.025-0.183v-0.054l-0.041,0.017l-0.021,0.085l-0.016,0.193l-0.061-0.07l-0.021,0.045l-0.009,0.084l-0.021,0.047l-0.029-0.084
	l0.005-0.047l0.015-0.04l0.005-0.058l-0.014-0.035l-0.025-0.04l-0.024-0.049l-0.016-0.061l-0.104,0.047l-0.04,0.044l-0.005,0.075
	l0.048,0.019l-0.036,0.087l-0.014,0.019l-0.026,0.018l-0.092,0.008l-0.06,0.025l-0.025,0.044l0.021,0.04l0.077,0.012l-0.024,0.049
	l-0.041,0.007l-0.049-0.009h-0.048l-0.017,0.012l-0.05,0.096l-0.02,0.012l-0.037-0.009l0.002,0.094l-0.041,0.017l-0.042-0.041
	l0.007-0.07l-0.02-0.034l-0.035,0.028l-0.004,0.043l0.007,0.053l0.003,0.06l-0.011,0.056l-0.021,0.037l-0.125,0.107l-0.06,0.252
	l-0.088-0.02l-0.313,0.24l-0.04-0.005l-0.053-0.044l-0.033-0.008l-0.025,0.015l-0.114,0.119l-0.062,0.098l-0.048,0.031l-0.016-0.083
	l-0.011-0.23l0.011-0.054l0.049-0.053l0.015-0.04l-0.014-0.034l-0.036-0.034l-0.027-0.039l-0.018-0.046l-0.009-0.06l-0.06,0.071
	l-0.013,0.032l0.003,0.045l0.017,0.054l0.009,0.049l-0.021,0.034l-0.011,0.032l0.018,0.053l0.025,0.061l0.014,0.057l-0.005,0.038
	l-0.025,0.063l-0.005,0.039l0.004,0.171l-0.025,0.147l-0.123,0.216l-0.002,0.071l0.047,0.084l0.063,0.061l0.049-0.002l0.018,0.031
	l-0.324,0.26l-0.011,0.042l-0.143,0.045l-0.043,0.037l-0.027,0.046l-0.108,0.1l-0.04,0.01l0.021-0.049l-0.004-0.136l0.018-0.04
	l0.075-0.063l0.211-0.318l0.079-0.057l-0.068-0.091l-0.009-0.039l0.023-0.011l0.031-0.006l0.068-0.04l0.035-0.057l0.011-0.089
	l-0.005-0.13l-0.021-0.113l-0.04-0.157l-0.038-0.102l-0.017,0.054l0.05,0.416l-0.009,0.115l-0.042,0.022l-0.005-0.018l-0.013-0.032
	l-0.004-0.021l-0.033-0.01l-0.028,0.003l-0.02,0.019l-0.007,0.036l0.025,0.029l-0.101,0.014l0.002,0.056l0.018,0.049l-0.014,0.01
	l-0.031-0.021l-0.033-0.046l-0.055-0.149l-0.01-0.019l0.014-0.06l0.123-0.152l0.002-0.066l-0.014-0.141l0.016-0.048l-0.136,0.013
	l-0.18,0.161l-0.101,0.05l-0.063,0.004l-0.063-0.007l-0.062-0.03l-0.053-0.063l-0.018-0.064l0.003-0.074l0.019-0.128l-0.078-0.041
	l0.006,0.036l0.019,0.09l0.003,0.026l-0.007,0.026l-0.028,0.044l-0.006,0.03l-0.044-0.075l-0.048-0.039l-0.048-0.009l-0.084,0.019
	l-0.079-0.037l-0.037-0.008l-0.005-0.059l-0.022-0.044l-0.034-0.031l-0.04-0.015l-0.007-0.28l0.009-0.089l0.055-0.219l-0.002-0.094
	l-0.013-0.051l-0.028-0.084l-0.004-0.045l0.025-0.083l0.004-0.045l-0.028-0.04l-0.048,0.012l-0.021,0.091l0.001,0.118l0.018,0.095
	l-0.144,0.018l-0.096,0.143l-0.136,0.448l-0.217,0.223l-0.083,0.133l-0.06,0.035l0.009-0.06l0.065-0.145l-0.049,0.009l-0.022-0.035
	l-0.012-0.111l0.009-0.039l0.071-0.101l-0.097,0.069l-0.038,0.049l-0.052,0.138l-0.037,0.05l-0.109,0.068l-0.001-0.042l-0.012-0.031
	l-0.017-0.029l-0.011-0.04l0.002-0.027l0.018-0.057l0.004-0.099l0.021-0.118l-0.026-0.075l0.031-0.194l0.035-0.089l-0.027-0.069
	l-0.039-0.037l-0.033,0.155l-0.069,0.058l-0.176,0.074l-0.024-0.146l-0.281,0.264l-0.073,0.036l-0.034-0.005l-0.109-0.051
	l-0.209-0.046l-0.054,0.003l-0.099,0.037l-0.029-0.027l-0.04-0.057l-0.027-0.018l-0.001,0.09l-0.012,0.07l-0.042,0.007l-0.108-0.055
	l-0.008-0.011l-0.02-0.042l-0.007-0.011l-0.011,0.002l-0.021,0.02l-0.011,0l-0.027-0.01h-0.021l-0.015-0.015l-0.02-0.059
	l-0.103,0.052l-0.008-0.037l-0.02-0.067l-0.008-0.037l-0.054-0.008l-0.07,0.012l-0.063,0.028l-0.034,0.04l0.005,0.058l0.039,0.05
	l0.119,0.094l-0.114,0.013l-0.05,0.021l-0.024,0.06l-0.033-0.084l-0.046-0.155l-0.049-0.104l-0.039-0.071l-0.028-0.066l0.001-0.056
	l0.048-0.042l-0.048-0.027l-0.035-0.041l-0.021-0.052l-0.009-0.065l-0.079,0.188l-0.008,0.081l-0.024,0.068l-0.098,0.081
	l-0.014,0.061l0.017,0.04l0.053,0.056l0.015,0.046l0.001,0.035l0.004,0.024l0.015,0.03l0.026,0.05l0.006,0.076l-0.045,0.063
	l-0.066,0.04l-0.057,0.001l0.022-0.087l-0.083-0.084l-0.212-0.137l0.032-0.021l0.115-0.009l-0.019-0.035l-0.062,0.002l-0.151,0.064
	l-0.05,0.063l-0.024,0.015l-0.025-0.003l-0.054-0.024l-0.025,0.002l-0.019-0.035l0.012-0.01l0.005-0.011l0.01-0.029l-0.065-0.052
	l0.081-0.004l0.036-0.016v-0.039l-0.152-0.044l-0.06-0.003l-0.075-0.039l-0.074-0.057l-0.055-0.054l-0.011-0.025l0.001-0.008
	l-0.003-0.007l-0.021-0.024l0.179-0.026l0.026-0.018l-0.018-0.066l-0.035-0.043l-0.046-0.036l-0.049-0.047l0.102-0.05l-0.016-0.029
	l-0.049,0.018l-0.055,0.002l-0.062-0.011l-0.063-0.022l0.02-0.044l0.014-0.016l0.024-0.008l-0.085-0.05l-0.038-0.009l-0.03,0.012
	l-0.02-0.072l-0.05-0.06l-0.05-0.026l-0.022,0.03l-0.025-0.011l-0.024-0.017l-0.023-0.021l-0.024-0.032l-0.002-0.058l-0.088-0.075
	l0.021-0.032l0.116-0.027l0.051-0.033l0.015-0.075l-0.034-0.009l-0.028,0.004l-0.053,0.025l-0.021-0.004l-0.087-0.064l0.016-0.021
	l0.014-0.064l0.014-0.021l0.025,0.004l0.031,0.019l0.03,0.015l0.026-0.009l-0.039-0.043l-0.036-0.048l-0.034-0.039l-0.027-0.008
	l-0.028,0.004l-0.021-0.017l-0.021-0.029l-0.029-0.03l-0.212-0.174l-0.056-0.019l0.001-0.07l0.007-0.018l-0.085-0.024l-0.041-0.03
	l-0.042-0.063l0.044-0.023l0.132,0.028l0.06-0.003l0.037-0.037l-0.015-0.023l-0.006-0.011l-0.052-0.018l-0.058,0.016l0.037-0.073
	l0.158,0.007l0.046-0.054l-0.046-0.018l-0.057-0.039l-0.04-0.054v-0.063l-0.084-0.103l-0.038-0.04l-0.041-0.024l0.021-0.013
	l0.035-0.057l-0.016,0.008l-0.016,0.003l-0.02-0.002l-0.021-0.01l-0.008-0.081l-0.028,0.014l0.012-0.043l0.026-0.026l0.069-0.03
	l-0.034-0.043l-0.015-0.015l0.041-0.072l0.055-0.054l-0.083-0.083l-0.064-0.026l-0.127-0.002l-0.007-0.059l0.016-0.037l0.004-0.037
	l-0.043-0.057l0.085-0.043l-0.019-0.035l-0.019-0.024l-0.04-0.088l-0.025-0.047l-0.021-0.026l-0.023-0.005l-0.02-0.02l-0.017-0.028
	l-0.02-0.045l-0.016-0.025l-0.065-0.089l-0.027-0.024l-0.049-0.021l-0.04-0.006l-0.07,0.005l-0.038-0.007l0.038-0.072l0.14-0.051
	l0.043-0.07l-0.066-0.056l-0.061-0.035l-0.106-0.042l-0.184-0.011l-0.068-0.028l0.303-0.09l0.049-0.086l-0.116-0.114l-0.024-0.021
	l-0.036,0.004l-0.044,0.048l-0.034,0.005l-0.152-0.088l-0.045-0.044l-0.016-0.02l0.009-0.016l0.023-0.033l0.048-0.039l0.3-0.003
	l0.185,0.036l0.073-0.007l-0.019-0.036l-0.226-0.088l-0.133-0.084l-0.155-0.181l-0.057-0.017l-0.057-0.003l-0.054-0.028
	l-0.023-0.038l-0.021-0.078l-0.025-0.033l-0.11-0.095l-0.016-0.029l0.047-0.005l0.103,0.028l0.026-0.029l-0.096-0.048l-0.205-0.041
	l-0.096-0.088l-0.025-0.062l-0.016-0.074l-0.021-0.073l-0.036-0.055l-0.042-0.014l-0.043,0.003l-0.039-0.02l-0.03-0.077l-0.114-0.07
	l-0.067-0.05l-0.052-0.054l0.01-0.028v-0.041l-0.014-0.035l-0.058-0.009l-0.028-0.034l-0.028-0.042l-0.032-0.029l-0.022,0.003
	l-0.091,0.052l-0.021,0.002l-0.011,0.002l-0.068-0.021l-0.032,0.001l-0.016-0.113l-0.051-0.024l-0.104,0.018l-0.084-0.354
	l-0.046-0.127l-0.109-0.229l-0.009-0.05l0.088,0.086l-0.04-0.157l-0.03-0.073l-0.042-0.048v-0.072l0.035-0.083l0.005-0.051
	l-0.022-0.072l-0.043-0.038l-0.093-0.041l-0.046-0.189l-0.042,0.025l0.002,0.065l0.014,0.077l-0.01,0.063l-0.034-0.083l-0.049-0.152
	l-0.035-0.085l-0.117-0.226l-0.027-0.079l-0.082,0.104l-0.041-0.004l-0.04-0.04l-0.038-0.06l-0.024-0.068l-0.004-0.067l-0.051-0.063
	l-0.002,0.313l0.021,0.054l0.063,0.055l-0.049,0.012l-0.049-0.07l-0.042-0.104l-0.028-0.092h-0.016l-0.029-0.008h-0.016
	l-0.013-0.067l-0.002-0.028l0.005-0.03l-0.049-0.013l-0.033,0.03l-0.021,0.055l-0.002,0.063l-0.037-0.06l-0.042-0.166l-0.034-0.091
	l-0.019,0.051l-0.018,0.028l-0.03-0.019l-0.053-0.085l-0.04-0.086l-0.018-0.079v-0.064l0.017-0.05l-0.033-0.033l-0.092-0.069
	l0.019-0.062l0.009-0.083l0.018-0.064l0.051-0.008l-0.08-0.075l-0.168,0.03l-0.066-0.051l-0.015,0.03l-0.004,0.043l0.007,0.1
	l-0.057-0.121l-0.07-0.206l-0.057-0.088l0.033-0.033l0.03-0.072l0.014-0.089l-0.018-0.087l-0.029-0.052l-0.013-0.003l-0.012,0.013
	l-0.022-0.003l-0.063-0.036l-0.028-0.023l-0.062-0.076l-0.024-0.076l0.007-0.062l0.034-0.039l0.066,0.027l0.029-0.001l-0.01-0.046
	l0.001-0.014l-0.002-0.089l-0.007-0.042l-0.03-0.085l-0.035-0.072l-0.025-0.065l0.006-0.071l0.049-0.021l0.172-0.001l0.031-0.041
	v-0.036l0.015-0.064l0.001-0.035l-0.009-0.039l-0.026-0.07l-0.016-0.073l-0.031-0.114l-0.016-0.036l0.006-0.017l0.052-0.071
	l-0.125-0.157l-0.055-0.085l-0.058-0.107l-0.021-0.035l-0.012-0.016l-0.001-0.02l0.008-0.044l0.02-0.012l0.03,0.015l0.01-0.005
	l-0.036-0.076l-0.009-0.079l0.075,0.009l0.145,0.072l0.075,0l0.089,0.023l0.077-0.002l0.04-0.076l-0.159-0.096l-0.206-0.073
	l-0.068-0.036l-0.048-0.06v-0.092l-0.016,0.03l-0.023,0.023l-0.032,0.004l-0.041-0.023l-0.036-0.048l-0.024-0.052l-0.024-0.035
	l-0.029,0.003l-0.015-0.061l0.014-0.03l0.063-0.025l-0.019-0.033l-0.097,0.003l-0.042-0.024l-0.053-0.076l-0.005-0.05l0.017-0.058
	l0.026-0.048l0.023-0.021l0.188,0.083l0.08-0.001l-0.016-0.127l0.063,0.025l0.074,0.013l0.062-0.014l0.027-0.053l-0.043-0.009
	l-0.073,0.009l-0.041-0.006l-0.017-0.03l0.045-0.107l0.023-0.025l0.085-0.03l0.034-0.044l0.056-0.125l0.045-0.03l0.021,0.084
	l0.021,0.048l0.122,0.183l0.018,0.043l0.01,0.06l0.055-0.013l0.239,0.079l-0.079-0.095l-0.084-0.08l0.039-0.06l0.006-0.036
	l-0.005-0.056l-0.016-0.055l-0.017-0.044l-0.015-0.041l-0.002-0.045l0.021-0.048l0.033,0.012l0.037,0.035l0.039,0.021l0.03-0.015
	l0.024-0.078l0.018-0.029l0.028-0.005l0.056,0.01l0.028-0.021l0.002-0.018l-0.009-0.024l-0.012-0.022l-0.005-0.012l0.012-0.003
	l0.021,0.003l0.021,0.007l0.008,0.008l0.009-0.178l-0.006-0.111l-0.02-0.091l0.014-0.006l0.113,0.102l0.022-0.062l-0.015-0.129v-0.1
	l-0.034-0.017l-0.031-0.03l-0.061-0.063l-0.054-0.038l-0.091-0.035l-0.187-0.115l-0.023-0.019l-0.035,0.016l-0.035,0.002
	l-0.041-0.017l-0.049-0.043l-0.081-0.129l0.011-0.083l0.068-0.028l0.092,0.04l0.112,0.067l0.074-0.004l0.066-0.021l0.096,0.015
	l-0.275-0.125l-0.147-0.094l-0.086-0.12l-0.014-0.071l0.011-0.029l0.061-0.016l0.046,0.001l0.024,0.048l0.019,0.062l0.029,0.042
	l0.059,0.006l0.053-0.015l0.056,0.025l0.063,0.123l0.012-0.035l0.002-0.071l0.012-0.036l-0.019-0.033l-0.039-0.038l-0.017-0.045
	l-0.01-0.053l-0.022-0.058l0.003-0.006l-0.063-0.198l-0.001-0.044l0.009-0.036l0.001-0.042l-0.025-0.065l0.009-0.012l0.114,0.015
	l-0.05-0.053l-0.173-0.133l-0.002-0.081l0.003-0.031l0.011-0.027l-0.024-0.031l-0.011-0.014l-0.016-0.015l0.095-0.021l0.024-0.038
	l-0.031-0.094l-0.057-0.095l-0.029-0.043l0.008-0.009l0.05,0.005l0.06,0.043l0.03,0.012l-0.006-0.031l-0.02-0.054l0.002-0.035
	l0.02-0.017l0.026,0.002l0.053,0.027l0.052,0.039l0.04,0.055l0.028,0.071l0.042,0.028l0.1,0.088l0.026,0.017l0.024-0.021
	l0.026-0.035l0.019-0.045l0.004-0.047l0.005-0.024l0.019-0.013l0.012-0.019l-0.015-0.044l-0.02-0.036l-0.014-0.028l-0.01-0.025
	l-0.005-0.032l0.003-0.063l0.04-0.072v-0.066l-0.05-0.017l-0.139-0.013l0.134-0.071l-0.081-0.059l-0.027-0.015l0.067,0.006
	l0.03-0.012l0.009-0.032l-0.008-0.029l-0.021-0.041l-0.021-0.036l-0.016-0.012l-0.049-0.006l-0.046-0.044l-0.024-0.061l0.021-0.054
	l0.042-0.015l0.043,0.023l0.096,0.091l0.059,0.031l0.015-0.023l-0.026-0.05l-0.058-0.057v-0.001l-0.027-0.068l-0.017-0.028
	l-0.031-0.041l0.039-0.185l-0.003-0.074l0.012-0.034l0.11-0.008l0.014-0.027l0.002-0.039l0.008-0.036l-0.008-0.005l-0.031-0.013
	l-0.018-0.032l0.005-0.052l0.015-0.028l0.049-0.049l0.152-0.072l0.046-0.058l-0.007-0.103l0.079,0.034l0.037-0.032l0.012-0.073
	l0.006-0.089l-0.099-0.035l-0.048-0.026l-0.026-0.047l-0.021-0.072l-0.03-0.046l-0.035-0.037l-0.033-0.044l-0.013-0.032l-0.1-0.233
	l0.006-0.056l0.036-0.02l0.088,0.004l0.02,0.006l0.042,0.026l0.026,0.003l0.018-0.015l0.008-0.026l0.013-0.022l0.087,0.016
	l0.138-0.047v-0.067l-0.089-0.1l-0.111-0.09l-0.063-0.043l-0.016-0.061l0.02-0.018l0.069-0.004l0.004-0.027l-0.004-0.109l0.005-0.04
	l-0.028-0.069l0.003-0.079l0.016-0.082v-0.009l0.005-0.07l-0.014,0.007l-0.039-0.08l-0.03-0.078l0.001-0.047l0.061,0.01l0.029-0.012
	l0.056-0.105l0.009-0.046l-0.01-0.055l-0.052-0.177l0.045-0.012l0.112,0.011l0.057,0.02l-0.048-0.048l-0.049-0.056l-0.045-0.068
	l-0.037-0.083l-0.02-0.086l0.005-0.125l-0.017-0.085l-0.062-0.162l-0.01-0.054l0.017-0.064l0.059-0.084l0.003-0.062l-0.054-0.08
	l0.026-0.007l0.02-0.016l0.011-0.029l-0.003-0.047l0.011,0.003l0.044-0.099l0.068-0.039l-0.002-0.023l-0.048-0.084l-0.019-0.041
	l-0.008-0.035l0.017-0.024l0.062-0.013l0.01-0.032l-0.01-0.044l-0.024-0.068l-0.004-0.029l0.019-0.057l0.028-0.033l0.017-0.051
	l-0.018-0.104l-0.021-0.034l-0.035-0.04l-0.022-0.039l0.014-0.055l-0.021-0.042l-0.028-0.032l-0.01-0.006l-0.043-0.109l-0.019-0.063
	l-0.017-0.141l-0.012-0.043l-0.018-0.049l-0.013-0.042l0.003-0.022l0.015-0.024l0.003-0.122l0.046-0.096l0.013-0.059l-0.015-0.093
	l-0.049-0.043l-0.018-0.013l-0.017-0.031l-0.011-0.065l0.008-0.045l0.026-0.082l-0.113-0.039l-0.046-0.031l0.023-0.038l0.043-0.016
	l0.202,0.011l0.017-0.012l-0.001-0.037l-0.013-0.024l-0.042-0.025l-0.021-0.025l-0.035-0.094l0.021-0.044l0.074-0.05l-0.046-0.102
	l0.037-0.09l0.207-0.167l0.201-0.401l0.032-0.034l0.043,0.001l0.044,0.037l0.048,0.047l0.052,0.033l0.015-0.006l0.006-0.022
	l0.01-0.017l0.031,0.009l0.019,0.019l0.047,0.065l0.021,0.021l0.061,0.042l0.05,0.021l0.046,0.003l0.048-0.019l0.017,0.032
	l-0.017,0.01l-0.011,0.015l-0.016,0.044l0.081-0.006l0.137-0.167l0.004-0.024l-0.076-0.081l-0.022-0.046l-0.063-0.169l-0.017-0.036
	l-0.052-0.052l-0.023,0.01l-0.01,0.037l-0.019,0.026l-0.04-0.005l-0.087-0.039l-0.09,0.008l-0.062-0.03l-0.139-0.104v-0.021
	l-0.004-0.049l0.002-0.02l-0.033-0.024l0.021-0.037l0.203-0.073l0.052,0.012l0.116,0.047l0.064,0.015l0.051-0.009l0.018-0.039
	l-0.03-0.074l-0.052-0.06l-0.048-0.031l-0.041-0.039l-0.034-0.086l-0.028-0.02l-0.019-0.019l-0.014-0.025l-0.013-0.032l-0.078-0.037
	l-0.046-0.029l-0.037-0.043l-0.033-0.051l-0.032-0.036l-0.03-0.025l-0.03-0.02l-0.096-0.033l-0.246,0.049l-0.051-0.116l-0.018-0.063
	l0.015-0.113l0.001-0.055l-0.014-0.065l-0.033-0.07l-0.055-0.07l0.024-0.008l0.021-0.017l0.015-0.025l0.007-0.036h-0.018
	l-0.035-0.008l-0.017,0.004l-0.029-0.086l-0.006-0.031l-0.045-0.009h-0.02l-0.017,0.011l-0.003-0.067l-0.066-0.169l-0.016-0.085
	l-0.018-0.011l-0.033-0.031l-0.016-0.01l0.013-0.018l0.005-0.018l-0.006-0.063l-0.225-0.099l0.015-0.033l0.047-0.03l0.018-0.033
	v-0.037l-0.015-0.093l-0.003-0.039l-0.068-0.073l-0.083-0.201l-0.066-0.085l-0.117-0.084l-0.107-0.061l-0.229-0.083l-0.054-0.004
	l-0.048,0.03l-0.032,0.041l-0.045,0.013l-0.088-0.056l-0.034-0.036l-0.025-0.031l-0.011-0.015l-0.042-0.044l-0.046-0.034
	l-0.033-0.002l-0.036,0.042l-0.044-0.021l-0.049-0.012l-0.074,0.07l-0.039,0.015l-0.042-0.019l-0.077-0.06l-0.035-0.017
	l-0.088-0.002l-0.08,0.026l-0.063,0.052l-0.038,0.078l-0.009,0.096l-0.009,0.035l-0.03,0.03l-0.031-0.008l-0.036-0.043l-0.113-0.194
	l-0.026-0.035l-0.025-0.012l-0.156-0.007l-0.044-0.027l-0.069-0.053l-0.065-0.061l-0.061-0.088l-0.057-0.141l-0.028-0.111
	l-0.051-0.324l-0.03-0.11l-0.003-0.04l0.012-0.047l0.04-0.043l0.004-0.034l-0.031-0.069l-0.005,0.058l-0.059,0.116l-0.012,0.012
	l-0.019,0.007l-0.007,0.019l0.019,0.043l0.031,0.053l0.012,0.025v0.011l-0.015,0.076l0.054,0.274l-0.007,0.091l-0.042,0.03
	l-0.043,0.011l-0.036,0.021l-0.018,0.063l0.003,0.018l0.011,0.025l0.008,0.029l0.003,0.032l-0.013,0.023l-0.115-0.002l-0.107-0.066
	l-0.032-0.01l-0.091,0.003l-0.109-0.028l0.058,0.059l0.049,0.073l0.023,0.071l-0.017,0.053l-0.044-0.001l-0.065-0.04l-0.068-0.055
	l-0.052-0.05l-0.02-0.035l-0.051-0.093l-0.151-0.104l-0.154-0.18l-0.104-0.073l-0.096-0.081l-0.06-0.116l-0.046-0.075l-0.191-0.229
	l-0.059-0.062l-0.036-0.023l-0.075-0.031l-0.037-0.023l-0.043-0.036l-0.289-0.29l-0.077-0.042l-0.229,0.021l-0.101-0.032
	l-0.096-0.062l-0.208-0.225l-0.09-0.125l-0.092-0.102l-0.037-0.054l-0.026-0.053l-0.022-0.076l-0.023-0.057l-0.038-0.071
	l-0.063-0.089l-0.042-0.069l-0.037-0.048l-0.087-0.077l-0.044-0.06l-0.047-0.126v-0.102l0.025-0.075l0.031-0.045l-0.046-0.083
	l0.018-0.068l0.036-0.063l0.007-0.07l-0.028-0.06l0.049-0.131l0.012-0.066l-0.027-0.089l-0.048-0.091l-0.06-0.09l-0.064-0.084
	l-0.03-0.093l-0.041-0.104l-0.051-0.107l-0.06-0.106l-0.128-0.18l-0.02-0.038l-0.007-0.146l-0.029-0.109l0.032-0.034l0.042-0.019
	l0.017-0.031l-0.019-0.051l-0.025-0.035l-0.215-0.218l-0.128-0.114l-0.081-0.055l-0.129-0.074l-0.249-0.211l-0.083-0.046
	l-0.068,0.001l-0.051-0.019l-0.088-0.061l-0.159-0.136l-0.039-0.04l-0.027-0.034l-0.03-0.043l-0.037-0.067l-0.038-0.054
	l-0.033-0.023l-0.031-0.015l-0.108-0.082l-0.069-0.038l-0.069-0.051l-0.07-0.098l-0.002-0.052l-0.009-0.061l-0.015-0.066
	l-0.025-0.075l-0.042-0.003l-0.03-0.033l-0.051-0.105l-0.032-0.09l0.008-0.064l0.135-0.216l-0.001-0.115l-0.054-0.184l-0.084-0.014
	l-0.068-0.124l-0.063-0.158l-0.063-0.121l-0.043-0.026l-0.051-0.001l-0.132,0.038l-0.169-0.028l-0.065,0.046l-0.048,0.075
	l-0.062,0.041l-0.108-0.06l-0.093-0.118l-0.035-0.113l-0.015-0.114l-0.028-0.127l-0.054-0.053l0.011-0.084l0.031-0.09l0.001-0.07
	l-0.077-0.124l-0.06-0.076l-0.118-0.117l-0.063-0.08l-0.138-0.2l-0.065-0.074l-0.044-0.062l-0.174-0.314l-0.07-0.107l-0.077-0.126
	l-0.062-0.128l-0.023-0.11l0.025-0.09l0.091-0.118l0.025-0.086l-0.016-0.126l-0.05-0.094l-0.071-0.051l-0.148,0.009l-0.278-0.146
	l-0.072-0.021l-0.207-0.076l-0.038-0.039l-0.032-0.042l-0.246-0.282l-0.05-0.046l-0.045-0.028l-0.057,0.034l-0.076,0.199
	l-0.035,0.021l-0.027-0.023h-0.011l-0.011-0.008l-0.03-0.046l-0.016-0.03l-0.019-0.052l-0.065-0.139l-0.026-0.042l-0.037-0.032
	l-0.06-0.13l-0.076-0.077l-0.14-0.074l-0.052-0.042l-0.035-0.041l-0.028-0.041l-0.036-0.039l-0.048-0.03l-0.366-0.076l-0.092-0.053
	l-0.17-0.146l-0.074-0.033l-0.072,0.104l-0.09-0.045l-0.102-0.073l-0.079-0.033l-0.032,0.017l-0.022,0.027l-0.031,0.018
	l-0.104-0.024l-0.08,0.027l-0.149-0.018l-0.141,0.056l-0.013-0.009l-0.029-0.055l-0.013-0.009l-0.137,0.016l-0.396,0.195
	l-0.091-0.032l-0.017-0.025l-0.02-0.039l-0.021-0.034l-0.021-0.009l-0.011-0.002l-0.038-0.022l-0.051-0.041l-0.093-0.058
	l-0.027-0.027l-0.139-0.078l-0.367,0.046l-0.127-0.156l-0.136-0.032l-0.249-0.111l-0.155,0.02l-0.088-0.036l-0.049-0.043
	l-0.141-0.145l-0.044-0.058l-0.045-0.048l-0.049-0.01l-0.122,0.057l-0.021-0.002l-0.018-0.014l-0.04-0.044l-0.014-0.005
	l-0.039-0.025l-0.22-0.176l-0.18-0.083l-0.218-0.087l-0.355-0.005l-0.072-0.049l-0.053-0.115l0.034-0.058l-0.02-0.103l-0.051-0.1
	l-0.08-0.058l-0.097,0.007l-0.189-0.083l-0.223,0.058l-0.142-0.06l-0.022-0.422l0.031-0.054l0.671,0.121l0.079-0.007l0.026-0.062
	l-0.032-0.29l-0.482-0.422l-0.049-0.211l-0.016-0.099l0.003-0.067l0.208-0.463l0.602-0.153l0.064,0.025l1.06,0.862l0.288,0.232
	l0.396,0.193l0.06,0.056l0.1,0.126l0.049,0.046l0.282,0.216l0.206,0.066l0.055,0.043l0.313,0.476l0.077,0.093l0.04-0.001
	l0.146-0.185l0.043-0.028l0.051-0.012l0.575,0.045l0.246-0.208l0.105-0.014l0.077,0.035l0.274,0.195h0.048l0.27-0.621l0.237-0.194
	l0.093-0.195l-0.068-0.25l-0.103-0.256l0.057-0.151l0.128-0.067l0.455,0.034l0.119,0.086l0.07,0.034l0.351,0.062l0.305-0.033
	l0.371-0.045l0.236,0.068l0.26,0.164l0.146,0.136l0.056,0.029l0.037-0.036l-0.007-0.093l-0.037-0.107l-0.03-0.103l0.018-0.082
	l0.044-0.021l0.053-0.151l0.037-0.038l0.021-0.04l-0.008-0.068l-0.044-0.12l-0.046-0.035l-0.02-0.033l-0.007-0.036l-0.016-0.045
	l-0.144-0.254l-0.062-0.123l-0.042-0.12l-0.024-0.188l0.107-0.511l0.046-0.095l0.064-0.066l0.245-0.031l0.034-0.035l0.01-0.074
	l-0.021-0.088l-0.027-0.094l-0.016-0.086l-0.003-0.122l-0.014-0.065l-0.034-0.077l-0.021-0.078l0.02-0.121l-0.026-0.077
	l-0.028-0.035l-0.029-0.02l-0.054-0.021l-0.029-0.021l-0.017-0.023l-0.012-0.023l-0.014-0.022l-0.074-0.071l-0.021-0.034
	l-0.018-0.059l-0.02-0.039l-0.103-0.181l-0.011-0.023l-0.004-0.023l-0.009-0.029l-0.023-0.043l-0.027-0.035l-0.076-0.083
	l-0.026-0.025l-0.108-0.127l-0.081-0.149l-0.198-0.474l-0.025-0.088l-0.042-0.402l-0.035-0.042l-0.173-0.181l-0.037-0.15v-0.044
	l-0.012-0.052l-0.078-0.131l-0.029-0.07l-0.013-0.074l-0.03-0.035l-0.036-0.021l-0.025-0.03l-0.015-0.073l0.041-0.148l-0.014-0.116
	l-0.043-0.136l-0.075-0.13l-0.109-0.102l-0.057-0.035l-0.036-0.051l-0.023-0.065l-0.018-0.076l-0.01-0.102l0.018-0.066l0.186-0.221
	l0.014-0.04l-0.006-0.052l-0.01-0.062l-0.016-0.187l-0.045-0.248l0.025-0.32l-0.022-0.141l-0.078-0.088l-0.009-0.05l-0.004-0.131
	l-0.031-0.122l0.027-0.07l0.234-0.22l0.121-0.025l0.11-0.143l0.061-0.009l0.132,0.024l0.036-0.046l0.043-0.022l0.177,0.036
	l0.032-0.012l0.232-0.358l-0.003-0.145l-0.017-0.004l-0.046-0.022l-0.019-0.005l-0.013-0.06l0.015-0.029l0.022-0.019l0.016-0.028
	l0.001-0.222l0.11-0.228l-0.046-0.102l-0.009-0.157l0.059-0.085l0.224-0.074l0.057-0.164L1041.798,424.832z"/></svg>