<?xml version="1.0" encoding="utf-8"?>
<!-- Generator: Adobe Illustrator 15.0.0, SVG Export Plug-In . SVG Version: 6.00 Build 0)  -->
<!DOCTYPE svg PUBLIC "-//W3C//DTD SVG 1.1//EN" "http://www.w3.org/Graphics/SVG/1.1/DTD/svg11.dtd">
<svg version="1.1" id="Ebene_1" xmlns="http://www.w3.org/2000/svg" xmlns:xlink="http://www.w3.org/1999/xlink" x="0px" y="0px"
	 width="1920px" height="1080px" viewBox="0 0 1920 1080" enable-background="new 0 0 1920 1080" xml:space="preserve">

<path fill="#F4E0B6" stroke="#FFFFFF" d="M354.711,287.799l-0.032-0.095l0.092-0.05l0.117-0.029l0.111,0.006l0.071,0.054
	l-0.082,0.043l-0.146,0.058L354.711,287.799z M386.615,268.325l-0.026,0.038l0.042,0.097l-0.033,0.073l-0.057,0.027l-0.031-0.04
	l-0.029-0.191l0.031-0.08l0.12-0.056l0.006,0.047l-0.005,0.044L386.615,268.325z M390.281,171.303h-0.02l0.031-0.067l0.048-0.063
	l-0.001,0.028l-0.029,0.063L390.281,171.303z M390.342,171.137l-0.002,0.002l0.019-0.04l0.047-0.053l0.005,0.007l-0.033,0.031
	l-0.031,0.044L390.342,171.137z M390.321,171.291l-0.021,0.008l0.09-0.092l0.052-0.091l0.011-0.058l0.03-0.036l0.025,0.024
	l-0.048,0.088L390.321,171.291z M391.74,183.742l-0.019,0.073l0.016,0.076l0.035,0.067l-0.121-0.138l0.079-0.145l0.131-0.036
	l0.027,0.156l-0.017-0.004l-0.023,0.008l-0.006-0.031l-0.035-0.082L391.74,183.742z M392.178,189.021l-0.009-0.07l0.025-0.06
	l0.055-0.033l0.075,0.01l0,0l0.019,0.078l-0.045,0.068l-0.07,0.033L392.178,189.021z M395.467,273.065l-0.001-0.058l0.097-0.065
	l0.026-0.067l0.026-0.039l0.055-0.063l0.056-0.038l0.024,0.034l0.089,0.25l0.001,0.111l-0.125-0.032l-0.044-0.035l-0.063-0.025
	l-0.071-0.003L395.467,273.065z M400.391,188.466l-0.015-0.027l0.087-0.021l0.067,0.008l0.061,0.016l-0.117,0.032L400.391,188.466z
	 M402.755,184.573l-0.103,0.213l-0.134,0.192l-0.188,0.146l-0.126,0.043l-0.056,0.017l-0.082,0.007l0.042-0.083l0.078-0.064
	l0.057-0.075l0.04-0.085l0.006-0.021l0.047-0.176l0.013-0.026l0.005-0.005l-0.037,0.116l-0.042,0.17l-0.02,0.037l-0.029,0.034
	l-0.008,0.008l-0.109,0.122v0l0.021,0.009l0.007,0.004l0.003,0.007l0.008,0.007l0.024-0.006l0.289-0.198l0.08-0.085l0,0l0.051-0.077
	l0.06-0.115l0.013-0.098l-0.085-0.026l0.049-0.041l0.042-0.006l0.039,0.021L402.755,184.573z M401.973,115.824l-0.062-0.048
	l0.043-0.102l0.321-0.461l0.022,0.037l0.002,0.021l-0.022,0.033l-0.039,0.19l-0.13,0.205L401.973,115.824z M402.743,109.899
	l-0.008-0.021l0.002-0.017l0.007-0.017l0.007-0.021l0.038-0.042l0.042-0.034l-0.012,0.046l-0.019,0.038l-0.025,0.033
	L402.743,109.899z M405.633,106.647l-0.176-0.039l0.06-0.035l0.232-0.043l0.068-0.082l0.108-0.137l0.063-0.06l-0.028,0.053
	l-0.223,0.26L405.633,106.647z M406.865,102.934l-0.151-0.099l-0.021-0.155l0.12-0.058l0.171,0.032l0.125,0.118l-0.038,0.01
	l-0.048-0.043l-0.073-0.044l-0.08-0.023l-0.07,0.017l-0.038,0.071l0.048,0.048l0.075,0.029l0.039,0.01l0.079,0.037l0.148-0.036
	l0.147-0.083l0.072-0.104l0.052,0.029l-0.018,0.023l-0.004,0.02l0.001,0.048l-0.127,0.083l-0.199,0.066L406.865,102.934z
	 M409.722,110.978l-0.166,0.075l0.04-0.101l0.082-0.071l0.097-0.061l0.08-0.064l0.105-0.152l0.065-0.077l0.087-0.057l0.005,0.041
	l-0.012,0.023l-0.046,0.037l-0.056,0.124l-0.124,0.149L409.722,110.978z M409.664,107.944l-0.106,0.104l-0.125,0.16l-0.141,0.127
	l-0.148,0.007l0.027-0.047l0.019-0.063l0.017-0.125l0.038-0.011l0.004,0.06l-0.028,0.167l0.096-0.047l0.065-0.071l0.096-0.17
	l0.111-0.142l0.034-0.072l-0.01-0.077l-0.024,0.013l-0.014,0.012l-0.03,0.032l0.012-0.082l0.055,0.018l0.05,0.086L409.664,107.944z
	 M408.026,100.825l-0.085,0.061l0.004-0.144l0.102-0.075l0.217-0.043l0.07-0.043l0.243-0.253l0.009,0.052l-0.004,0.04l-0.015,0.041
	l-0.025,0.047l-0.094,0.047l-0.18,0.158L408.026,100.825z M402.282,70.487l-0.018-0.001l-0.011-0.004l-0.012-0.008l-0.01-0.011
	l-0.006-0.015l-0.008-0.011v-0.011l0.003-0.008l0.009-0.01l0.01-0.023v-0.01l-0.005-0.02l-0.011-0.014l0.006-0.016l0.011-0.015
	l0.017-0.01l0.026-0.004h0.007h0.016l0.012,0.003h0.005l0.021,0.01l0.014,0.026l0.015,0.02l0.006,0.023l0.007,0.025l-0.017,0.028
	l-0.008,0.021l-0.007,0.015l-0.015,0.013l-0.003,0.001h-0.006l-0.016,0.002l-0.015,0.004H402.282z M410.095,98.555l-0.103-0.06
	l0.023-0.065l0.027-0.033l0.032,0.007l0.034,0.06l-0.036-0.004h-0.007l-0.004,0.008l-0.03,0.017l0.11,0.059h0.003l0.009-0.002
	l0.102-0.051l0.171-0.153l0.497-0.218l-0.097,0.111l-0.227,0.061l-0.057,0.032l-0.132,0.107l-0.225,0.108l-0.038,0.007l-0.003,0.001
	L410.095,98.555z M410.944,98.118l-0.036-0.059l0.018-0.101l0.127-0.317l0.056-0.083l0.02,0.076l-0.04,0.065l-0.077,0.19
	l-0.01,0.058L410.997,98l-0.021,0.078L410.944,98.118z M429.435,92.634l-0.215-0.163l0.071-0.047l0.061,0.045l0.075,0.141
	l0.112,0.056l0.04-0.018l0.055-0.05l0.071-0.086l-0.016,0.135l-0.026,0.041l-0.053,0.014l-0.047-0.011l-0.043-0.015L429.435,92.634z
	 M430.66,94.166l-0.259,0.293l-0.147,0.125l-0.117-0.005l0.306-0.251l0.148-0.18l0.031-0.159l0.035,0.033l0.022,0.034l0.016,0.037
	l0.014,0.046L430.66,94.166z M434.068,89.885l-0.014-0.002l0.025-0.015l0.017-0.013v0.022l0.002,0.011l0.003,0.009l-0.021-0.007
	L434.068,89.885z M434.097,89.848l0.002-0.019l0.011-0.021l0.021-0.013l0.033-0.009l-0.009,0.036l-0.021,0.007l-0.015,0.006
	L434.097,89.848z M435.041,90.3l-0.258,0.239l-0.075,0.047l-0.037,0.015l-0.083-0.026l-0.146-0.15l-0.04-0.082l-0.221-0.296
	l-0.079-0.146l0.05,0.048l0.06,0.122l0.112,0.085l0.069,0.166l0.131,0.093l0.047,0.063l0.054,0.059l0.069,0.021l0.086-0.036
	l0.096-0.081l0.087-0.095l0.055-0.083l-0.019-0.007l-0.059-0.013l0.009-0.035l0.064,0.016l0.056-0.003l0.05-0.016l0.042-0.024
	l-0.021,0.078L435.041,90.3z M436.78,91.729l-0.019-0.058l0.018-0.071l0.062-0.131l0.038-0.125l0.029-0.151v-0.147l-0.045-0.112
	l-0.004-0.086l0.005-0.037l0.019-0.037l0.052,0.311l0.001,0.155l-0.072,0.392l0.004,0.057l0.056-0.091l0.021,0.066l-0.036,0.06
	l-0.062,0.029L436.78,91.729z M438.008,90.9l0.007-0.028l0.014-0.014l0.018-0.009l0.02-0.017l0.134-0.002l0.282,0.052l0.114-0.032
	l-0.058,0.069l-0.185,0.009L438.008,90.9z M438.974,91.443l-0.001-0.158l0.019-0.04l0.012-0.016l0.025-0.013l-0.02,0.203
	l0.108,0.101l0.175,0.034l0.184-0.004l0.005,0.008l0.007,0.007l0.006,0.004l0.008,0.004h-0.199l-0.198-0.04L438.974,91.443z
	 M439.611,91.558l-0.041,0.008l0.364-0.195l0.166-0.043l0.056-0.024l0.11-0.072l0.055-0.016l0.061,0.023l-0.099,0.016l-0.152,0.13
	l-0.063,0.022l-0.094,0.002L439.611,91.558z M433.708,260.26l-0.187,0.193l-0.114,0.33l0.006,0.062l-0.065-0.008l-0.061-0.021
	l-0.045-0.03l-0.04-0.083l-0.055-0.023l-0.139-0.026l-0.292-0.021l-0.157,0.112l-0.106,0.183l-0.146,0.191l-0.073,0.071
	l-0.063,0.079l-0.044,0.082l-0.017,0.083l-0.063,0.06l-0.125,0.021l-0.096-0.024l0.028-0.079l-0.034-0.047l-0.028-0.053l-0.02-0.058
	l-0.002-0.056l0.025-0.059l0.044-0.042l0.041-0.031l0.038-0.054l0.088-0.052l0.02-0.027l0.011-0.116l0.188-0.523l0.114-0.197
	l0.157-0.171l0.151-0.131l0.08-0.1l-0.036-0.048l-0.001-0.049l0.045-0.099l0.104-0.077l0.172,0.02l0.03,0.032l0.101,0.152
	l0.01,0.069l-0.018,0.046l-0.025,0.019l-0.013-0.013l-0.034-0.068l-0.085-0.068l-0.111-0.024l-0.113,0.061l-0.01,0.053l0.011,0.072
	l-0.004,0.063l-0.058,0.026l-0.041,0.025l-0.013,0.062l-0.006,0.125l-0.054,0.103l0.001,0.033l0.072-0.044l0.045-0.054l0.03-0.055
	l0.038-0.048l0.077-0.035l-0.028,0.066l0.001,0.056l0.045,0.032l0.109-0.005l-0.045,0.055l-0.063,0.02l-0.068,0.011l-0.06,0.032
	l-0.03,0.06l0.048,0.022l0.082-0.009l0.14-0.071l0.064-0.009l0.056,0.012l0.048,0.024l-0.047,0.059l0.018,0.028l0.115-0.015
	l-0.043,0.06l-0.057,0.002l-0.061-0.012l-0.057,0.019l-0.036,0.051l0.02,0.026l0.038,0.018l0.037,0.053l0.041,0.029l0.049,0.025
	l0.044,0.009l0.053-0.012l0.025-0.034l0.025-0.092l0.085-0.15l0.155-0.185l0.019-0.03l0.036-0.021l0.063-0.055l0.03-0.058
	l-0.068-0.029l-0.041-0.028l0.01-0.056l0.053-0.048l0.086-0.003l0.061,0.07l-0.006,0.112L433.708,260.26z M440.454,93.437
	l-0.045,0.016h-0.007l-0.052-0.001l-0.114-0.015l-0.126,0.01l-0.057,0.009l-0.016,0.014l-0.017,0.016L440,93.497l-0.017-0.007
	l-0.018-0.005l-0.014-0.017l-0.008-0.02l-0.004-0.016l-0.003-0.012l-0.002-0.028l0.011-0.041l0.031-0.069l0.045-0.083l0.033-0.046
	l0.024-0.011l0.065,0.007l0.023,0.008l0.012,0.018l-0.001,0.019l-0.014,0.006h-0.018l-0.027-0.009l-0.032-0.006l-0.029,0.041
	l-0.054,0.095l-0.011,0.023l-0.014,0.044v0.02v0.007l0.017,0.017l0.019-0.001l0.025,0.001l0.035-0.021l0.029-0.014l0.008,0.003
	l0.015-0.001l0.02,0.001l0.05-0.001l0.058,0.002l0.023,0.008l0.042,0.009h0.043l0.03-0.008l0.013-0.011l0.014-0.016l0.021-0.022
	l0.016-0.035l-0.003-0.029l-0.037-0.018l-0.095-0.012l-0.053-0.004l-0.037-0.021l-0.032-0.033l0.005-0.029l0.002,0.002l0.017,0.012
	l0.035,0.014l0.031,0.01l0.034,0.006h0.058l0.031,0.011l0.049,0.022l0.033,0.023l0.025,0.024l0.018,0.029l-0.006,0.029l-0.012,0.025
	l-0.021,0.024L440.454,93.437z M446.713,92.635l-0.044-0.046l0.094-0.194l-0.062-0.214l-0.093-0.183l-0.007-0.101l0.028-0.035
	l0.034-0.026l0.038-0.016l0.044-0.007l-0.076,0.11l0.004,0.104l0.051,0.099l0.063,0.093l0.023,0.095l-0.038,0.229l0.001,0.116
	l-0.036-0.01L446.713,92.635z M446.907,92.773l0.019-0.073l0.068,0.369l0.056,0.125l-0.045,0.02l-0.019,0.002h-0.024l0.004-0.136
	L446.907,92.773z M445.33,250.792l-0.09,0.051l-0.057,0.022l-0.057,0.007l-0.075,0.021l-0.016,0.06l0.004,0.069l-0.014,0.05
	l-0.05,0.032l-0.126,0.054l-0.1,0.063l-0.053,0.015l-0.058-0.017l-0.065-0.057l-0.053-0.106l-0.032-0.128l0.011-0.125l0.077-0.095
	l0.121-0.036l0.001,0.092l-0.083,0.241l0.033,0.051l0.074,0.01l0.083-0.013l0.059-0.019l0.042-0.041l0.065-0.126l0.037-0.052
	l0.06-0.031l0.127-0.023l0.037-0.024l0.015-0.068l-0.025-0.063l-0.049-0.051l-0.061-0.032l-0.291,0.123l0.132-0.213l0.242,0.03
	l0.183,0.158L445.33,250.792z M449.992,245.737l-0.013-0.065l0.026-0.074l0.047-0.029l0.026,0.025l0.007,0.054l-0.012,0.056
	l-0.045,0.054L449.992,245.737z"/></svg>