<?xml version="1.0" encoding="utf-8"?>
<!-- Generator: Adobe Illustrator 15.0.0, SVG Export Plug-In . SVG Version: 6.00 Build 0)  -->
<!DOCTYPE svg PUBLIC "-//W3C//DTD SVG 1.1//EN" "http://www.w3.org/Graphics/SVG/1.1/DTD/svg11.dtd">
<svg version="1.1" id="Ebene_1" xmlns="http://www.w3.org/2000/svg" xmlns:xlink="http://www.w3.org/1999/xlink" x="0px" y="0px"
	 width="1920px" height="1080px" viewBox="0 0 1920 1080" enable-background="new 0 0 1920 1080" xml:space="preserve">

<path fill="#F4E0B6" stroke="#FFFFFF" d="M1176.354,528.921l0.048,0.131l0.03,0.033l0.075,0.039l0.037,0.008l0.028-0.009
	l0.024-0.012l0.033-0.003l0.031,0.012l0.06,0.039l0.027,0.005l0.031-0.017l0.041-0.066l0.026-0.026l0.028-0.006l0.062,0.004
	l0.089-0.024l0.045,0.015l0.029,0.04l0.002,0.065l0.064,0.104l0.069,0.045l0.074,0.032l0.082,0.064l0.056,0.095l0.016,0.094
	l0.006,0.207l0.044,0.11l0.074,0.039l0.089-0.014l0.087-0.05l0.083-0.082l0.046-0.03l0.062-0.001l0.053,0.006l0.047-0.006
	l0.043-0.019l0.036-0.032l0.069-0.018l0.091,0.016l0.177,0.061l0.095,0.045l0.052,0.067l0.055,0.171l0.073,0.142l0.061,0.073
	l-0.003,0.015l-0.022,0.044l-0.005,0.02l0.042,0.059l0.086,0.014l0.019-0.001l0.076-0.003l0.071,0.005l0.045,0.045l0.042,0.013
	h0.045l0.052,0.012l0.053,0.032l0.034,0.029l0.037,0.021l0.065,0.006l0.108-0.034l0.076-0.079l0.104-0.203l0.076-0.059l0.104,0.016
	l0.105,0.057l0.085,0.066l0.138,0.139l0.072,0.04l0.111,0.018l-0.029,0.104l0.052,0.027l0.089-0.008l0.076,0.003l0.072,0.052
	l0.132,0.162l0.079,0.057l0.187,0.031l0.097,0.035l0.05,0.079l0.014,0.084l0.026,0.101l0.046,0.085l0.068,0.037v0.001l0,0l0,0h0.001
	l0.095,0.004l0.068-0.046l0.044-0.077l0.024-0.088l0,0v-0.001l0,0l0,0l0.039-0.06l0.054-0.129l0.072-0.067l0.084-0.035l0.145-0.059
	l0.189-0.002l0.057-0.01l0.09-0.056l0.152-0.002l0.295,0.061l0.23,0.107l0.075,0.012l0.063-0.032l0.081-0.128l0.036-0.021
	l0.074-0.012l0.056-0.057l0.03-0.076l0.018-0.118l0.03-0.026l0.038-0.018l0.032-0.023l0.064-0.113l0.188-0.157l0.041-0.069
	l0.027-0.08l0.031-0.059l0.048-0.041l0.118-0.047l0.023-0.017h0.024l0.076,0.056l0.034,0.012l0.033,0.002l0.041-0.003l0.079-0.028
	l0.06-0.059l0.097-0.135l0.037-0.068l0.02-0.077l0.028-0.071l0.068-0.049l0.077-0.012l0.062,0.026l0.042,0.057l0.018,0.084
	l-0.01,0.08l-0.038,0.132l0.012,0.09l-0.008,0.081l-0.053,0.061l-0.119,0.096l-0.076,0.202l-0.047,0.066l-0.206,0.175l-0.04,0.073
	l-0.002,0.071l0.027,0.074l0.043,0.067l0.051,0.055l0.146,0.104l0.034,0.053l-0.111,0.053l-0.014,0.013l-0.01,0.016l0.087,0.044
	l0.091,0.034l0.023,0.004l0.018,0.011l0.009,0.017l0.001,0.024l-0.008,0.038l0.005,0.035l0.019,0.034l0.028,0.029l0.126,0.063
	l0.441,0.115l0.283-0.009l0.138,0.014l0.11,0.08l0.008,0.02l0.016,0.047l0.002,0.073l0.013,0.064l0.057,0.046l0.064-0.01
	l0.111-0.101l0.075-0.005l0.07,0.098l0.03,0.158l0.048,0.129l0.121,0.013l0.014,0.062l-0.017,0.043l-0.03,0.039l-0.051,0.09
	l-0.063,0.032l-0.027,0.029l-0.036,0.113l-0.008,0.077l-0.036,0.052l-0.119,0.042l-0.035,0.037l-0.04,0.016l-0.096,0.017
	l-0.055,0.024l-0.014,0.026l0.017,0.098l0.012,0.018l0.047,0.035l0.008,0.02l-0.01,0.025l-0.037,0.041l-0.013,0.022l-0.005,0.056
	l0.021,0.052l0.04,0.043l0.05,0.038v0.001l0.106,0.063l0.05,0.07l0.031,0.083l0.054,0.102l0.006,0.095l-0.102,0.043l-0.051,0.014
	l-0.076,0.02l-0.063,0.063l0.038,0.082l0.083,0.08l0.062,0.095l-0.033,0.126l-0.074,0.082l-0.024,0.046l0.007,0.064l0.026,0.048
	l0.069,0.062l0.025,0.046l-0.001,0.161l0.027,0.074l0.086,0.008l0.036-0.008l0.044-0.004l0.044,0.005l0.034,0.019l0.043,0.028
	l0.031,0.007l0.031,0.004l0.032,0.011l0.067,0.056l0.059,0.062l0.062,0.049l0.071,0.016l0.029,0.014l0.032,0.036l0.024,0.042
	l0.007,0.032l-0.014,0.019l-0.083,0.036l-0.215,0.163l-0.108,0.06l-0.146,0.038l-0.143,0.068l0.072,0.103l0.147,0.115l0.085,0.103
	l0.011,0.039l0.005,0.039l0.002,0.038l-0.006,0.038l-0.123,0.167l0.011,0.07l0.341,0.197l0.104,0.04l0.088-0.01l0.019-0.095
	l0.064-0.059l0.094-0.017l0.104,0.027l0.086,0.062l0.069,0.088l0.107,0.196l0.014,0.043l0.016,0.1l0.022,0.037l0.049,0.026
	l0.047,0.01l0.044,0.014l0.033,0.038l0.006,0.064l-0.035,0.197l-0.004,0.081l-0.018,0.124l0.035,0.104l0.053,0.106l0.04,0.134l0,0
	h-0.002l-0.001,0.046l-0.013,0.043l-0.038,0.081l0.135,0.028l0.099-0.022l0.081-0.063l0.075-0.09l0.008-0.004l0.01-0.003h0.009
	l0.675,0.223l0.077,0.005l0.079-0.002l0.075,0.005l0.071,0.038l0.076,0.056l0.073,0.042l0.079,0.028l0.091,0.02l0.083,0.003
	l0.227-0.028l0.034,0.017l0.032,0.017l0.108,0.121l0.041,0.006l0.041-0.059l0.021-0.073l0.015-0.156l0.034-0.068l0.143-0.129
	l0.051-0.071l0.082,0.113l0.099,0.004l0.1-0.014l0.09,0.055l0.009,0.084l-0.065,0.205l0.006,0.099l0.089-0.004l0.105-0.058
	l0.08-0.091l0.011-0.097l0.007-0.022l0.013-0.016l0.018-0.01l0.005-0.002l0.018-0.003l0.014-0.004l0.016-0.001l0.207,0.031
	l0.088,0.028l0.082,0.042l0.071,0.06l0.053,0.055l0.06,0.035l0.185,0.003l0.263,0.054l0.161-0.012l0.079,0.004l0.079,0.034
	l0.032,0.034l0.042,0.08l0.022,0.03l0.042,0.02l0.054-0.01l0.029,0.028l0.019,0.063l0.003,0.083l-0.013,0.147l-0.021,0.101
	l-0.041,0.052l-0.053,0.04l-0.062,0.064l-0.03,0.084l0.034,0.045l0.073-0.004l0.144-0.101l0.078-0.026l0.076-0.003l0.06,0.031
	l0.031,0.076l-0.003,0.081l-0.017,0.083l0.002,0.073l0.001,0.001l0.187,0.078l0.194-0.134l0.319-0.349l0.405-0.189l0.422-0.13
	l0.158,0.005l0.422-0.095l0.018-0.004l0.235-0.018l0.303-0.063l0.249,0.022l1.604-0.066v-0.001l0,0l0.16-0.02l0.135-0.036
	l0.114-0.066l0.096-0.105l0.036-0.067l0.071-0.195l0.045-0.036l0.224-0.098l0.095-0.027l0.077,0.007l0.084,0.022l0.107,0.015
	l0.136-0.015l0.041,0.008l0.04,0.035l0.011,0.032v0.034l0.031,0.085v0.024l0.016,0.017l0.063,0.028l0.032,0.005h0.166l0.032,0.006
	l0.028,0.008l0.121,0.021l0.037,0.001l0.041-0.013l0.058,0.028l0.099-0.011l0.057,0.029l0.04,0.05l0.015,0.047l0.01,0.045
	l0.022,0.048l0.038,0.052l0.027,0.024l0.035-0.003l0.06-0.031l0.062-0.011l0.057,0.013l0.055,0.004l0.051-0.036l0.081-0.029
	l0.016,0.002l0.102,0.02l0.208,0.083l0.094,0.008l0.154-0.048l0.086,0.034l0,0l0.07,0.046l0.283,0.084l0.046,0.008l0.088-0.015
	l0.043-0.001l0.045,0.014l0.072,0.045l0.035,0.016l0.098,0.007l0.201-0.023l0.099,0.022l0.076,0.063l0.055,0.091l0.658,1.604
	l0.539,0.581l0.76,0.821l1.022-0.909l0.051-0.012l0.052,0.034l1.536,1.624l0,0l0.104,0.099l0.375-0.251l0.046-0.02l0.051-0.01
	l0.103,0.004l0.104,0.031l0.099,0.048l0.168,0.124l0.045,0.021l0.049,0.001l0.049-0.017l0.043-0.026l0.035-0.037l0.1-0.118
	l0.041-0.034l0.049-0.022l0.053-0.003l0.158,0.041l0.204,0.017l0.223-0.006l0.049,0.01l0.049,0.021l0.041,0.03l0.026,0.044
	l0.005,0.049l-0.007,0.052l0.002,0.05l0.03,0.042l0.027,0.019l0.116,0.044l0.126,0.008l0.052,0.02l0.014-0.003l0.22,0.116
	l0.049,0.038l0.092,0.041l0.035,0.008l0.04,0.002l0.074-0.009l0.072-0.016l0.123-0.062l0.032-0.01l0,0l0.001,0.003l0.015,0.016
	l0.076-0.07l0.047,0.022l-0.002,0.074l-0.064,0.094l-0.377,0.273l-0.316,0.139l-0.188,0.023l-0.141,0.066l-0.275,0.052l-0.18,0.078
	l-0.172,0.105l-0.138,0.117l-0.093,0.136l-0.113,0.305l-0.107-0.07l-0.108-0.093l-0.111-0.074l-0.112-0.016l0.144,0.076l0.043,0.036
	l0.034,0.051l0.025,0.053l0.032,0.038l0.052,0.01l0.074,0.081l-0.988,0.283l-0.213,0.127l-0.815,0.714l-0.163,0.179l-0.324,0.639
	l-0.068,0.248l0.026,0.237l0.329,0.871l0.072,0.302l0.029,0.063l0.084,0.112l0.024,0.04l0.057,0.181l0.104,0.57l0.12,0.312
	l0.016,0.107l-0.011,0.384l0.092,0.484l-0.017,0.911l-0.005,0.176l-0.114,0.147l-0.113,0.147l-0.047,0.059l-0.068,0.087
	l-0.114,0.146l-0.364,0.258l-0.264,0.187l-0.264,0.185l-0.262,0.186l-0.264,0.185l-0.353,0.249l-0.354,0.248l-0.354,0.247
	l-0.353,0.248l-0.353,0.246l-0.354,0.245l-0.352,0.245l-0.354,0.245l-0.273,0.189l-0.273,0.188l-0.273,0.189l-0.274,0.189
	l-0.313,0.217l-0.027,0.009l-0.027,0.01l-0.027,0.01l-0.026,0.008l-0.411,0.018l-0.508,0.018l-0.508,0.02l-0.506,0.019l-0.506,0.019
	l-0.608,0.02l-0.605,0.021l-0.604,0.019l-0.349,0.011l-0.256,0.009l-0.603,0.016l-0.603,0.017l-0.601,0.017l-0.6,0.014l-0.461,0.012
	l-0.46,0.01l-0.459,0.01l-0.459,0.01l-0.55,0.01l0,0l0,0l-0.001,0.001l-0.4-0.005l-0.104-0.002l-0.504-0.006l-0.502-0.005
	l-0.503-0.009l-0.445-0.006l-0.444-0.005l-0.445-0.009l-0.444-0.006l-0.349-0.005l-0.408,0.063l-0.398,0.063l-0.399,0.062
	l-0.399,0.062l-0.397,0.061l-0.399,0.062l-0.397,0.06l-0.398,0.061l-0.396,0.059l-0.397,0.06l-0.396,0.059l-0.396,0.059
	l-0.396,0.056l-0.396,0.058l-0.395,0.058l-0.395,0.056l-0.395,0.057l-0.461,0.064l-0.248,0.036l-0.215,0.067l-1.196,0.616l0,0
	h-0.001v0.001l-0.277,0.15l-0.683,0.367l-0.681,0.365l-0.682,0.364l-0.683,0.361l-0.006,0.01l-0.006,0.01l-0.008,0.009l-0.006,0.01
	l-0.021-0.026l0.126-0.585l-0.011-0.169l-0.249-0.187l-0.129-0.073l-0.091,0.012l-0.453,0.597l-0.044,0.007l-0.063-0.035
	l-0.543-0.389l-0.01-0.002l-0.004-0.004v-0.004l0.002-0.003l0.178-0.253l-0.777-0.572l-0.545-0.402l-0.526-0.391l-0.395-0.291
	l-0.477-0.354l-0.528-0.391l0.179-0.447l0.178-0.446l0.179-0.448l0.177-0.449l0.177-0.449l0.176-0.447l0.176-0.448l0.175-0.45
	l0.174-0.448l0.174-0.451l0.173-0.449l0.172-0.45l0.111-0.292l0.06-0.158l0.172-0.451l0.171-0.451l0.17-0.452l0.225-0.599
	l0.567-0.769l0.041-0.124l-0.009-0.146l-0.081-0.313h-0.001l-0.274-1.35l-0.045-0.105l-0.067-0.095l-0.52-0.58l-0.485-0.554
	l-0.068-0.078l-0.145-0.232l-0.229-0.524l-0.252-0.355l-0.06-0.125l0,0l0.002-0.001h-0.002l-0.028-0.311l-0.021-0.222l-0.04-0.142
	l-0.073-0.12l-0.402-0.463l-0.107-0.102l-0.123-0.085l-0.608-0.287h-0.001l0,0l-0.21-0.105l-0.062-0.051l-0.047-0.058l-0.62-0.937
	l-0.054-0.111l-0.144-0.685l-0.001-0.001l0,0v-0.001l-0.007-0.124l0.053-0.106l0.158-0.182l0.727-0.915l0.048-0.101l0.022-0.123
	l0.049-0.716l0.07-1.063l0.033-0.548l0.001-0.001l0,0h-0.001l0.039-0.318l0.032-0.14v-0.001l-0.043-0.049l-0.048-0.025l-0.051-0.017
	l-0.052-0.024l0.113-0.122l0.116-0.188l0.207-0.245l0.028-0.057l-0.007-0.027l-0.044-0.122l-0.074-0.798l-0.012-0.036l-0.017-0.027
	l-0.015-0.028l-0.006-0.042l0.007-0.029l0.092-0.172l0.022-0.024l0.037-0.024l0.039-0.003l0.063,0.048l0.038-0.004l0.294-0.123
	l0.126-0.082l0.085-0.141l0.026-0.115l0.068-0.136l0.088-0.126l0.08-0.083l0.059-0.028l0.531-0.126l0.025-0.008l0.026-0.018
	l0.021-0.025l0.004-0.049l0.014-0.032l0.046-0.053l0.039-0.021l0.121-0.01l0.063-0.004l0.161-0.042l0.22-0.01l0.061-0.021
	l0.032-0.037l0.047-0.085l0.029-0.036l0.041-0.025l0.033-0.008l0.084-0.007l0.095-0.033l0.074-0.051l0.27-0.269l0.079-0.058
	l0.08-0.041l0.045-0.007l0.108,0.004l0.033-0.004l0.026-0.039l0.006-0.095l0.128-0.157l0.001-0.171l-0.02-0.188l0.027-0.175
	l0.109-0.131l0.107-0.067l0.06-0.038l0.363-0.129l0.098-0.016l0.086,0.005l0.084,0.03l0.093,0.056l0.079,0.062l0.04,0.039
	l0.025,0.036l0.012,0.06l-0.017,0.037l-0.026,0.034l-0.019,0.053l0.005,0.1l0.037,0.089l0.062,0.074l0.082,0.052l0.329,0.146
	l0.05,0.02l0.043-0.002l0.142-0.074l0.032-0.033l0.005-0.048l-0.024-0.079h0.001v-0.001l0,0l-0.021-0.111l-0.037-0.062l-0.011-0.058
	l0.17-0.286l0.039-0.104l0.023-0.115l-0.007-0.143l0.02-0.18l0.04-0.174l0.054-0.12l0.05-0.049l0.328-0.221l0.081-0.023
	L1176.354,528.921z"/></svg>