<?xml version="1.0" encoding="utf-8"?>
<!-- Generator: Adobe Illustrator 15.0.0, SVG Export Plug-In . SVG Version: 6.00 Build 0)  -->
<!DOCTYPE svg PUBLIC "-//W3C//DTD SVG 1.1//EN" "http://www.w3.org/Graphics/SVG/1.1/DTD/svg11.dtd">
<svg version="1.1" id="Ebene_1" xmlns="http://www.w3.org/2000/svg" xmlns:xlink="http://www.w3.org/1999/xlink" x="0px" y="0px"
	 width="1920px" height="1080px" viewBox="0 0 1920 1080" enable-background="new 0 0 1920 1080" xml:space="preserve">

<path fill="#F4E0B6" stroke="#FFFFFF" d="M1150.748,561.371l0.021,0.006l0.014-0.009l0.011-0.008l0.02-0.002l0.022,0.01
	l-0.005,0.003l-0.012,0.013l-0.008,0.01l-0.009,0.006l0,0l-0.003,0.001l-0.011-0.008l-0.016,0.007l-0.013,0.01l-0.015-0.011
	l-0.016,0.002l-0.026,0.002l0.003-0.01l0.013-0.01L1150.748,561.371z M1150.632,561.379l-0.009,0.014h-0.012l-0.009-0.007
	l-0.009-0.02l-0.006-0.016l0.011-0.016l0.02-0.01l0.024,0.036L1150.632,561.379z M1151.021,560.835l0.033-0.011l0.042-0.03
	l0.035-0.059l0.052-0.036h0.042l0.049-0.01l0.025-0.026l0.009-0.022l0.001-0.028l0,0l0.065,0.007l0.081,0.02l0.102,0.073l0.076,0.04
	l0.082,0.029l0.054-0.001l-0.039,0.032l-0.083,0.046l-0.088,0.031l-0.059-0.014l-0.048,0.007l-0.146,0.133l-0.11,0.14l-0.018,0.04
	l-0.007,0.042l0,0l-0.092,0.039l-0.047,0.05l-0.033,0.002l0.014-0.059l0.02-0.024l-0.042-0.062l-0.06,0.034l-0.052-0.006l0,0
	l-0.053-0.079l-0.041-0.01l-0.089,0.019l-0.013-0.051l0.013-0.042l0.024-0.047l0.034,0.001l0.033,0.007l0.035-0.037l0.02-0.053
	l0.003-0.039l0.002-0.03l0.083,0.004l0.047-0.011L1151.021,560.835z M1147.146,562.973l0.051,0.036l0.051,0.02l0.063-0.008
	l0.097-0.028l0.083-0.007l0.079-0.015l0.052,0.008l0.048,0.044l0.023,0.032l0.035,0.019l0.041-0.007l0.024-0.019l0.063-0.074
	l0.019-0.052l-0.001-0.023l-0.009-0.052l0.014-0.029l0.037-0.006l0.036,0.013l0.066-0.002l0.04-0.026l0.022-0.052l0.017-0.096
	l0.018-0.085l0.036-0.063l0.039-0.089l0.012-0.052l0.023-0.027l0.08-0.042l0.09-0.036l0.074-0.052l0.027-0.048l0.01-0.026
	l-0.003-0.044l0.036-0.101l0.046-0.03l0.051-0.012l0.05-0.014l0.038-0.022l0.04-0.006l0.071,0.017l0.056,0.019l0.068-0.006
	l0.079-0.029l0.017-0.025v-0.029l-0.015-0.03l0.018-0.054l0.015-0.104l0.02-0.028l0.053-0.026l0.07-0.063l0.046-0.043h0.022
	l0.031,0.045l0.047,0.046l0.038,0.006l0.059,0.016l0.071,0.015l0.021,0.021l0.047,0.059l0.037,0.062l0.048,0.07l0.038,0.092
	l0.027,0.077l0.042,0.042l0.053,0.017l0.032-0.022l0.039-0.047l-0.019-0.07l-0.061-0.112l0.005-0.029l0.006-0.036l0.011-0.045
	l0.041,0.01l0.061,0.086l0.052,0.034l0.049-0.008l0.037-0.061l-0.01-0.063l0.012-0.037l0.037-0.017l0.049-0.002l0.021-0.023
	l0.016-0.028l0.04-0.01l0.037-0.006l0.088-0.013l0.042-0.02l0.035-0.017l0.068-0.001l0.008-0.003l0.034,0.056l0,0l-0.047,0.068
	l-0.022,0.132l0.01,0.061l0.021,0.073l0.029,0.074l0.041,0.068l0.053,0.063l0.014,0.035l-0.02,0.032l-0.009,0.027l0.024,0.078
	l0.001,0.027l-0.036,0.047l-0.098,0.07l-0.03,0.034l-0.008,0.047l-0.002,0.062l-0.01,0.062l-0.028,0.046l-0.078,0.09l-0.058,0.1
	l-0.059,0.064l-0.082-0.022l0.067,0.103l-0.048,0.11l-0.189,0.199l-0.03,0.052l-0.014,0.036l-0.021,0.051l-0.037,0.037l-0.231,0.124
	l-0.196,0.171l-0.037,0.044l-0.022,0.058l-0.05,0.223l0.012,0.082l0,0l-0.074,0.052l-0.058,0.052l-0.003,0.039h-0.031l-0.039-0.046
	l0.014-0.055l0.026,0.01l0.059-0.041l-0.074-0.093l-0.107,0.054l-0.012,0.062l0.005,0.046l-0.031-0.004l-0.049,0.01l0.007,0.031
	l-0.103,0.037l-0.086-0.005l-0.038-0.021l-0.034-0.046l-0.016,0.017l-0.022,0.017l-0.015,0.01l-0.018,0.01l-0.012,0.003
	l-0.004,0.025l-0.002,0.028v0.021l-0.035,0.034l0.015,0.068l-0.065,0.032l-0.042,0.014l-0.003,0.039l0.041,0.057l-0.025,0.035
	l-0.114,0.102l-0.142,0.061l-0.152,0.028l-0.217,0.01l-0.071,0.014l-0.073,0.026l-0.136,0.073l-0.065,0.014l-0.072,0.003
	l-0.184-0.013l-0.03-0.007l-0.089-0.093l-0.024-0.008l-0.025-0.032l-0.197-0.144l-0.054-0.007l-0.092,0.002l-0.046-0.009
	l-0.049-0.02l-0.048-0.031l-0.033-0.046l-0.006-0.064l-0.121-0.055l-0.031-0.033l-0.053-0.08l-0.06-0.059l-0.142-0.067l-0.062-0.039
	l-0.074-0.083l-0.034-0.071l0.02-0.045h0.088l0.154,0.036l0.076,0.008l0.072-0.016l0.119-0.09l0.068-0.13l0.028-0.147l0.002-0.14
	l-0.032-0.142l-0.01-0.083l0.024-0.065l-0.007-0.021l-0.002-0.022l0.011-0.02l0.018-0.006l0.033-0.001h0.007l0.022-0.007
	l0.024-0.028l0.052,0.025l0.062-0.006l0.049-0.021l0.029-0.032l0.02-0.051l-0.012-0.063l-0.013-0.057l0,0l0.103-0.052
	L1147.146,562.973z"/></svg>