<?xml version="1.0" encoding="utf-8"?>
<!-- Generator: Adobe Illustrator 15.0.0, SVG Export Plug-In . SVG Version: 6.00 Build 0)  -->
<!DOCTYPE svg PUBLIC "-//W3C//DTD SVG 1.1//EN" "http://www.w3.org/Graphics/SVG/1.1/DTD/svg11.dtd">
<svg version="1.1" id="Ebene_1" xmlns="http://www.w3.org/2000/svg" xmlns:xlink="http://www.w3.org/1999/xlink" x="0px" y="0px"
	 width="1920px" height="1080px" viewBox="0 0 1920 1080" enable-background="new 0 0 1920 1080" xml:space="preserve">

<path fill="#F4E0B6" stroke="#FFFFFF" d="M1028.209,773.68l0.274,0.022l0.148,0.187l0.2,0.421l0.18,0.624l0.053,0.117l0.054,0.062
	l0.13,0.115l0.054,0.071l0.081,0.189l0.036,0.039l0.09,0.068l0.033,0.041l0.011,0.045v0.092l0.013,0.041l0.028,0.032l0.105,0.059
	l0.048,0.054l0.028,0.056l0.034,0.162l0.216,0.586l0.021,0.142l-0.028,0.064l-0.091,0.123l-0.019,0.058l0.02,0.102l0.032,0.09
	l0.019,0.09l-0.029,0.178l0.039,0.035l0.054,0.016l0.037,0.025l0.024,0.074l0.011,0.082l-0.001,0.184l-0.027,0.184l-0.047,0.147
	l-0.355,0.713l-0.078,0.155l-0.32,0.439l-0.052,0.115l-0.014,0.003l-0.08,0.078l-0.005,0.004l0.008,0.008l-0.004,0.085l-0.006,0.028
	l-0.022,0.023l-0.064,0.031l-0.023,0.02l-0.092,0.214l0.097-0.021l0.058-0.004l0.135-0.044h0.07l0.078,0.036l0.228,0.176
	l0.112,0.004l0.055-0.078l0.017-0.118l-0.003-0.11l0.016-0.057l0.041,0.015l0.088,0.064l0.202,0.042l0.097,0.062l0.001,0.035
	l-0.032,0.049l-0.004,0.101l0.025,0.051l0.077,0.088l0.024,0.039l-0.016,0.06l-0.044,0.044l-0.01,0.04l0.085,0.047l0.045-0.075
	l0.063-0.046l0.068-0.019l0.066,0.009l0.059-0.083l0.063,0.006l0.071,0.045l0.074,0.036l0.026-0.01l0.013-0.032l0.018-0.023
	l0.048,0.01l0.04,0.037l0.019,0.044l0.011,0.039l0.015,0.021l0.057,0.003l0.464-0.027l0.073,0.004l0.071,0.019l0.045,0.017
	l0.052,0.003l0.092-0.029l0.071-0.041l0.108-0.106l0.059-0.046l0.254-0.114l0.151-0.047l0.104-0.008l0.108,0.035l0.388-0.02
	l0.032-0.005l0.021-0.018l0.024-0.016l0.038,0.002l0.016,0.016l0.032,0.062l0.026,0.022l0.305,0.126l0.116,0.081l0.035,0.071
	l-0.017,0.239l0.006,0.127l0.02,0.131l0.046,0.109l0.083,0.061l-0.005-0.026l0.047-0.045l0.065-0.039l0.052-0.012l0.069,0.034
	l0.035,0.045l0.053,0.121l0.023,0.016h0.032l0.034,0.007l0.022,0.032l-0.004,0.032l-0.045,0.045l-0.005,0.028l0.039,0.162
	l0.017,0.038l0.099,0.071l0.254,0.051l0.087,0.047l0.139,0.109l0.068-0.062l0.036-0.132l0.044-0.092l0.043,0.018l0.081,0.054
	l0.101,0.042l0.105-0.014l0.014,0.018l0.135,0.029l0.017-0.001l0.136,0.017l0.038,0.028l-0.029,0.071l0.054,0.023l0.1,0.073
	l0.047,0.01l0.057-0.052l0.055-0.078l0.037-0.03l0.008,0.102l0.091-0.01l0.059,0.062l0.05,0.071l0.063,0.019l0.032-0.057
	l0.004-0.101l-0.028-0.173l0.204,0.025l0.077,0.189l0.026,0.248l0.051,0.209l0.224,0.408l0.113,0.128l0.186,0.204l0.096,0.07
	l-0.125,0.016l-0.021,0.078l0.056,0.1l0.103,0.075l-0.109,0.04l-0.038,0.01l0.072,0.037l0.012,0.006l-0.018,0.057l-0.052,0.071
	l-0.02,0.094l0.06,0.21l-0.009,0.067l-0.091-0.019l0.026,0.09l0.048,0.094l0.066,0.086l0.074,0.06l0.097,0.022l0.056-0.028
	l0.045-0.004l0.059,0.097l0.045,0.104l0.012,0.064l-0.018,0.067l-0.044,0.116l-0.004,0.042l0.004,0.099l-0.018,0.043l-0.05,0.041
	l-0.019-0.019l-0.011-0.042l-0.029-0.032l-0.015-0.026l0.021-0.037l0.003-0.024l-0.067,0.007l-0.01,0.021l-0.126,0.121l-0.027,0.063
	l-0.011,0.059l-0.01,0.203l0.117,0.251l0.021,0.096l-0.007,0.109l-0.08,0.319l-0.088-0.009l-0.098,0.025l-0.082,0.068l-0.043,0.123
	l0.012,0.102l0.131,0.312h0.001l0.025,0.124l0.061,0.065l0.072,0.059l0.062,0.1l0.023,0.084l-0.022,0.006l-0.057-0.021l-0.077,0.015
	l-0.137,0.186l0.012,0.054l0.087,0.162l0.01,0.066l-0.001,0.124l0.01,0.044l0.002,0.006l0.046,0.058l0.055,0.027l0.053,0.02
	l0.045,0.031l0.029,0.046l0.103,0.286l0.296,1.207l0.022,0.048l0.029,0.048l0.025,0.056l0.027,0.145l0.07,0.103l0.023,0.05
	l-0.004,0.059l-0.031,0.124l0.008,0.057l0.049,0.058l0.222,0.073l-0.002,0.001l-0.288,0.116l-0.089,0.012l-0.147-0.017l-0.076,0.008
	l-0.388,0.109l-0.051-0.004l-0.036-0.032l-0.029-0.034l-0.031-0.011l-0.094,0.02l-0.246-0.023l-0.08-0.022l-0.079-0.035l-0.05-0.054
	l-0.053-0.067l-0.068-0.049l-0.184-0.003l-0.164-0.066l-0.069-0.006l-0.097,0.016l-0.065-0.015l-0.054-0.023l-0.065-0.021
	l-0.111-0.01l-0.263,0.005l-0.201,0.027l-0.394-0.036l-0.711,0.113l-0.216-0.01l-0.314-0.196l-0.102-0.018l-0.113,0.011
	l-0.639-0.042l-0.747-0.261l-0.372-0.087l-0.863-0.059l-0.2-0.043l-0.483-0.218l-0.171-0.052l-0.195-0.029l-0.062,0.006
	l-0.129-0.017l-0.18,0.022l-0.148-0.003l-0.149-0.022l-0.116-0.045l0.016-0.019l0.003-0.004v-0.007l0.006-0.022l-0.265,0.003
	l-0.229-0.058l-0.396-0.185l-0.104-0.031l-0.22-0.036l-0.209-0.079l-0.111-0.008l-0.107-0.021l-0.101-0.077l0.072-0.021l-0.101-0.08
	l-0.13-0.029l-0.137-0.012l-0.125-0.024l-0.817-0.423l-0.063-0.072l-0.112-0.186l-0.077-0.084l-0.074-0.041l-0.108-0.036
	l-0.112-0.022l-0.087,0.003l-0.019-0.005l-0.167,0.016l-0.032,0.012l-0.021-0.054l0.042-0.101v-0.059l-0.127-0.107l-0.646-0.163
	l-1.021-0.544l-0.938-0.407l-0.259-0.167l-0.05-0.022l-0.112-0.028l-0.046-0.032l-0.031-0.052l0.006-0.077l-0.026-0.063
	l-0.074-0.072l-0.108-0.047l-0.113-0.022l-0.09,0.005l-0.068-0.015l-0.479-0.199l-0.293-0.183l-0.349-0.101l-0.112-0.016
	l-0.223,0.02l-0.114-0.027l-0.078-0.058l-0.006-0.081l0.061,0.018l0.045-0.008l0.029-0.032l0.012-0.061l-0.119,0.007l-0.097-0.04
	l-0.09-0.054l-0.103-0.042l-0.211-0.059l-0.102-0.013l-0.109,0.023l0.012,0.044l0.328,0.064l0.154,0.068l0.076,0.116l-0.112-0.08
	l-0.181-0.05l-0.195-0.02l-1.203,0.045l-0.814-0.16l-0.136-0.068l0.017-0.106l0.039,0.038l0.037,0.023l0.046,0.01l0.063-0.002
	l-0.134-0.127l-0.055-0.13l0.022-0.141l0.094-0.164l-0.079,0.022l-0.055,0.032l-0.037,0.042l-0.035,0.048l-0.205-0.229l-0.236-0.143
	l-0.253-0.085l-1.004-0.225l-1.091-0.07l-0.745-0.104l-0.159-0.109l-0.063-0.222l-0.003-0.133l-0.006-0.054l-0.018-0.074
	l-0.114-0.12l-0.027-0.022h-0.112l-0.128-0.036l-0.114-0.051l-0.069-0.04l-0.194-0.161l0.154-0.132l0.036-0.038l-0.051-0.139
	l-0.002-0.101l0.128-0.131l0.03-0.107l0.005-0.116l-0.01-0.087l-0.05-0.106l0.008-0.042l0.116-0.049l0.038-0.026l0.021-0.04
	l-0.001-0.052l-0.038-0.064l-0.112-0.106l-0.031-0.053l0.012-0.026l0.076-0.122l0.11-0.36l0.09-0.046l0.4-0.339l0.035-0.06
	l0.237-0.568l0.064-0.157l0.648-0.894l0.191-0.193l0.199-0.11l0.064-0.053l0.048-0.067l0.04-0.09l0.498-1.122l0.163-0.242
	l0.223-0.22l0.037-0.025l0.122-0.058l-0.377-1.354l-0.01-0.068l0.008-0.06l0.039-0.057l0.12-0.119l0.044-0.074l0.063-0.279
	l0.055-0.126l0.113-0.104l0.107-0.049l0.447-0.135l0.109-0.049l0.101-0.067l0.091-0.094l0.101-0.174l-0.012-0.109l-0.074-0.1
	l-0.083-0.146l-0.022-0.132l0.041-0.242l-0.015-0.742l-0.074-0.293l0.061-0.014l0.056-0.028l0.103-0.078l0.069,0.081l0.079-0.081
	l0.139-0.241l0.087-0.058l0.094-0.025l0.339-0.014l0.097,0.023l0.06,0.071l0.016,0.282l0.044,0.067l0.081,0.004l0.113-0.055
	l0.188-0.2l0.172-0.235l0.081-0.077l0.081-0.056l0.09-0.04l0.108-0.033l0.027-0.013l0.072-0.045l0.03,0.006l0.033,0.019l0.035,0.027
	l0.047-0.029l0.087-0.082l0.127-0.082l-0.003-0.039l-0.029-0.038l-0.013-0.044l0.025-0.063l0.028-0.053l0.015-0.056l-0.022-0.069
	l0.101-0.02l0.078,0.059l0.057,0.09l0.107,0.255l0.052,0.093l0.084,0.083l0.101,0.062l0.017-0.021l-0.021-0.082l-0.018-0.121
	l0.049-0.1l0.12-0.053l0.132,0.006l0.093,0.052l0.055,0.13l-0.037,0.098l-0.06,0.073l-0.033,0.088l0.021,0.105h0.054l0.078-0.044
	l0.096-0.03l0.046-0.009l0.047-0.021l0.037-0.035l0.022-0.058l0.037-0.074l0.054,0.016l0.097,0.085l0.328,0.002l0.119,0.036
	l0.052,0.031l0.035,0.004l-0.068,0.084l-0.023,0.023l-0.038,0.044l-0.032,0.051l-0.053,0.101l0.063,0.033l0.044,0.051l0.039,0.056
	l0.047,0.048l0.034,0.017l0.016,0.022l-0.003,0.028l-0.021,0.033l-0.031,0.105l0.008,0.172l0.05,0.148l0.097,0.035l0.145-0.011
	l0.063,0.013l0.036,0.062l0.018,0.064l0.211,0.379l0.005,0.063l-0.034,0.12l0.01,0.068l0.045-0.104l0.048-0.064l0.062-0.01
	l0.085,0.058l0.045,0.052l0.026,0.056l0.002,0.061l-0.025,0.063l-0.004,0.021l-0.006,0.266l0.051,0.241l0.117,0.22l0.192,0.198
	l0.193,0.143l0.075,0.081l0.192,0.142l-0.022,0.164l-0.002,0.217l0.06,0.187l0.156,0.104l-0.049,0.063l-0.028,0.088l-0.01,0.094
	l0.013,0.158l-0.023,0.077l-0.067,0.146l0.041,0.071l-0.015,0.135l-0.076,0.227l-0.093,0.121l-0.038,0.07l-0.004,0.076l0.018,0.077
	l0.003,0.071l-0.02,0.067l-0.048,0.07l0.024,0.011l0.003,0.002l0.042-0.036l0.119-0.208l0.037-0.11l0.16,0.158l0.078,0.036
	l0.051-0.148l0.03-0.02l0.023-0.026l-0.004-0.064l0.018-0.026l0.048-0.025l0.094-0.029l0.082-0.013l0.045,0.001l0.054,0.016
	l0.053,0.038l0.068,0.1l0.045,0.029l0.091-0.012l0.178-0.107l0.089-0.016l0.111,0.091l0.171,0.331l0.174,0.087l0.035-0.004
	l0.123-0.041l0.038,0.013l0.029,0.097l0.053,0.022l0.124,0.023l0.041,0.068v0.209l0.048-0.075l0.04-0.027l0.029-0.021l0.076-0.035
	l0.067-0.046l0.063-0.079l0.054-0.085l0.065-0.064l0.1-0.021l0.038-0.039l0.113-0.074l0.025-0.01l-0.006-0.094l0.023-0.016
	l0.066,0.01l-0.005-0.143l0.083,0.022l0.152,0.14l0.071-0.03l0.219-0.165l0.052-0.055l0.007-0.122l-0.054-0.1l-0.069-0.09
	l-0.036-0.092l0.01-0.069l0.03-0.094l0.067-0.155l0.045-0.049l0.084-0.055l0.035-0.056l0.008-0.057l-0.021-0.119l0.006-0.059
	l0.026-0.036l0.132-0.142l0.066-0.131l0.037-0.14l0.003-0.147l-0.032-0.155l-0.021-0.022l-0.028,0.004l-0.027-0.001l-0.013-0.039
	l0.005-0.045l0.024-0.087l0.002-0.042l-0.021-0.242l0.02-0.161l0.125-0.289l0.027-0.158l0.728-0.297l0.007,0.27l0.067,0.168
	l0.137,0.1l0.221,0.068L1028.209,773.68z"/></svg>