<?xml version="1.0" encoding="utf-8"?>
<!-- Generator: Adobe Illustrator 15.0.0, SVG Export Plug-In . SVG Version: 6.00 Build 0)  -->
<!DOCTYPE svg PUBLIC "-//W3C//DTD SVG 1.1//EN" "http://www.w3.org/Graphics/SVG/1.1/DTD/svg11.dtd">
<svg version="1.1" id="Ebene_1" xmlns="http://www.w3.org/2000/svg" xmlns:xlink="http://www.w3.org/1999/xlink" x="0px" y="0px"
	 width="1920px" height="1080px" viewBox="0 0 1920 1080" enable-background="new 0 0 1920 1080" xml:space="preserve">

<path fill="#F4E0B6" stroke="#FFFFFF" d="M339.286,196.288l-0.055,0.037l0.04,0.212l-0.109,0.264l-0.178,0.184l-0.166-0.022
	l-0.019,0.018l-0.052,0.031l-0.013-0.122l0.011-0.347l-0.035-0.201l0.002-0.096l0.045-0.109l-0.05-0.071l-0.001-0.081l0.028-0.159
	l-0.014-0.076l-0.082-0.195l-0.002-0.049l0.011-0.045l0.026-0.034l0.042-0.019l0.042-0.028l0.018-0.051l0.016-0.101l0.041-0.095
	l0.022-0.08l0.001-0.079l-0.041-0.187l-0.003-0.085l0.021-0.08l0.05-0.079l0.16-0.131l0.057-0.062l-0.021-0.043l-0.002-0.033
	l0.119-0.107l0.032-0.063l0.006-0.112l0.039-0.107l0.108-0.032l0.122,0.018l0.084,0.042l0.172,0.356l0.099,0.4l0.006,0.223
	l-0.032,0.213l-0.231,0.736l-0.009,0.214l-0.032,0.112l-0.061,0.096l-0.091,0.065l-0.052,0.001l-0.034-0.027L339.286,196.288z
	 M341.327,192.436l-0.314,0.341l-0.022,0.009l-0.06,0.002l-0.022,0.008l-0.021,0.03l-0.021,0.064l-0.024,0.025l-0.054,0.026
	l-0.054,0.02l-0.12,0.024l-0.098,0.04l-0.056,0.055l-0.064,0.039l-0.116-0.004l-0.084-0.034l-0.068-0.044l-0.077-0.033l-0.121,0.003
	l-0.117,0.036l-0.055,0.006l-0.024-0.026l-0.007-0.115l0.007-0.053l0.021-0.056l0.062-0.088l0.048-0.049l0.023-0.052l-0.016-0.1
	l-0.111-0.228l-0.143-0.737l0.032-0.054l0.065-0.063l0.037-0.046l0.039-0.087l0.027-0.043l0.044-0.025l0.047-0.02l0.1-0.064
	l0.063-0.022l0.061-0.036l0.034-0.064l0.022-0.072l0.027-0.057l0.161-0.135l0.074-0.079l0.041-0.135l0.035-0.057l0.066-0.088
	l0.025-0.02l0.054-0.016l0.027-0.019l0.014-0.031l-0.011-0.064l0.007-0.026l0.065-0.069l0.113-0.097l0.111-0.052l0.058,0.069
	l0.012,0.167l-0.056,0.196l0.007,0.167l0.025,0.106l0.075,0.103l0.02,0.054l0.019,0.106l0.02,0.06l0.081,0.119l0.025,0.053
	l0.028,0.385l0.024,0.097l0.088,0.193l0.03,0.109l0.007,0.106l-0.012,0.111l-0.042,0.115L341.327,192.436z"/></svg>