<?xml version="1.0" encoding="utf-8"?>
<!-- Generator: Adobe Illustrator 15.0.0, SVG Export Plug-In . SVG Version: 6.00 Build 0)  -->
<!DOCTYPE svg PUBLIC "-//W3C//DTD SVG 1.1//EN" "http://www.w3.org/Graphics/SVG/1.1/DTD/svg11.dtd">
<svg version="1.1" id="Ebene_1" xmlns="http://www.w3.org/2000/svg" xmlns:xlink="http://www.w3.org/1999/xlink" x="0px" y="0px"
	 width="1920px" height="1080px" viewBox="0 0 1920 1080" enable-background="new 0 0 1920 1080" xml:space="preserve">

<path fill="#F4E0B6" stroke="#FFFFFF" d="M1236.974,553.147l-0.064,0.379l-0.127,0.214l-0.199,0.174l-0.24,0.156l-0.246,0.086
	l-0.342-0.023l-0.644-0.156l0.059-0.064l0.018-0.152l-0.065-0.107l-0.364-0.302l-0.117-0.06l-0.405-0.121l-0.063-0.04l-0.06-0.129
	l-0.061-0.074l-0.067-0.058l-0.049-0.009l-0.145,0.031l-0.145-0.094l-0.134-0.122l-0.114-0.054l-0.038-0.082l-0.079-0.067
	l-0.092-0.063l-0.081-0.069l-0.161-0.211l-0.074-0.068l-0.312-0.214l-0.11-0.183l-0.063-0.071l-0.087-0.003l-0.019-0.191
	l0.056-0.068l0.084,0.01l0.075,0.052h0.056l0.068,0.065l0.109-0.064l-0.197-0.09l-0.071-0.049l-0.067-0.058l-0.032-0.045
	l-0.029-0.05l-0.04-0.045l-0.064-0.024l-0.045,0.009l-0.09,0.054l-0.058,0.018l-0.005-0.077l0.034-0.052l0.043-0.048l0.023-0.063
	l-0.008-0.029l-0.032-0.071l0.004-0.022l0.03-0.013l0.055,0.013l0.032-0.016l0.045,0.01l0.052,0.063l0.072,0.112l0.072,0.071
	l0.03,0.022l0.093,0.041l0.036,0.004l0.044-0.003l0.026-0.039l-0.003-0.016l-0.019-0.015l-0.068-0.093l-0.081-0.083l-0.021-0.049
	l0.003-0.071l0.034-0.01l0.053-0.001l0.05-0.041l-0.002-0.044l-0.053-0.141l-0.017-0.064l-0.063,0.117l-0.074,0.091l-0.101,0.037
	l-0.143-0.047l-0.054-0.045l-0.139-0.183l-0.008-0.022l0.009-0.055l-0.011-0.024l-0.019-0.01l-0.039-0.006l-0.018-0.011
	l-0.105-0.101l0.059-0.032l-0.012-0.041l-0.025-0.048l0.014-0.046l0.035-0.009l0.05,0.012l0.054,0.028l0.041,0.039l0.02-0.073
	l-0.016-0.074l-0.047-0.064l-0.075-0.04v0.043l-0.101-0.004l-0.068-0.077l-0.109-0.274l-0.053-0.077l-0.148-0.164l0.049-0.007
	l0.021,0.001l0.03,0.01l0.021-0.018l-0.131-0.271l-0.022-0.15l0.062-0.123l0.041-0.056l0.093-0.18l0.01-0.046l-0.035-0.068
	l0.006-0.144l-0.034-0.067l0.084-0.034l0.051-0.083l0.052-0.181l0.41-0.109l0.112,0.006l0.073,0.06l0.08,0.092l0.079,0.071
	l0.068-0.002l0.09-0.035l0.078,0.04l0.076,0.065l0.083,0.049l0.099-0.004l0.05-0.032l0.031-0.02l0.139-0.143l0.092-0.066l0.09-0.043
	l0.091-0.022l0.098-0.013h0.089l0.092,0.02l0.087,0.036l0.444,0.316l0.047,0.047l0.031,0.049l-0.012,0.042l-0.031,0.006l-0.07-0.031
	l-0.043,0.016l-0.013,0.038l0.01,0.055l0.028,0.05l0.038,0.026l0.057-0.001l0.026-0.029l0.003-0.041l-0.014-0.036l0.138,0.028
	l0.036,0.12l-0.045,0.086l-0.105-0.076l-0.034,0.054l-0.061,0.161l0.069-0.025l0.084-0.02l0.078-0.003l0.056,0.018l0.064,0.085
	l-0.017,0.071l-0.046,0.064l-0.024,0.064l-0.037,0.008l-0.032,0.015l0.192,0.169l0.046,0.059l0.005,0.006l0.012,0.046l0.005,0.058
	l0.014,0.051l0.042,0.023l0.331,0.084l0.07,0.029l0.056,0.042l0.143,0.157l0.173,0.19l0.081,0.071l0.06,0.021l0.062-0.022
	l0.235-0.151l0.063,0.001l0.1,0.043l0.075,0.049l0.074,0.049l0.3,0.275l0.327,0.384l0.062,0.024v0.058l0.158,0.252l0.022,0.104
	l0.005,0.229l0.049,0.116l-0.015,0.037l-0.023,0.037l-0.009,0.034l0.013,0.045l0.23,0.391l0.014,0.021l0.02,0.054l-0.014,0.064
	l0.049,0.081l0.124,0.164l0.008,0.092l-0.065,0.201l-0.003,0.05l0.063,0.097l0.01,0.093l-0.005,0.085l0.018,0.076l-0.095-0.016
	l-0.036-0.061l-0.025-0.081l-0.053-0.085l-0.067-0.016l-0.07,0.049l-0.113,0.119l-0.067-0.056l-0.024,0.018l-0.013,0.055
	l-0.03,0.057l-0.057,0.06l-0.036,0.069l0.008,0.062l0.031,0.015L1236.974,553.147z"/></svg>