<?xml version="1.0" encoding="utf-8"?>
<!-- Generator: Adobe Illustrator 15.0.0, SVG Export Plug-In . SVG Version: 6.00 Build 0)  -->
<!DOCTYPE svg PUBLIC "-//W3C//DTD SVG 1.1//EN" "http://www.w3.org/Graphics/SVG/1.1/DTD/svg11.dtd">
<svg version="1.1" id="Ebene_1" xmlns="http://www.w3.org/2000/svg" xmlns:xlink="http://www.w3.org/1999/xlink" x="0px" y="0px"
	 width="1920px" height="1080px" viewBox="0 0 1920 1080" enable-background="new 0 0 1920 1080" xml:space="preserve">

<path fill="#F4E0B6" stroke="#FFFFFF" d="M1422.455,451.923l0.07,0.127l-0.078,0.067l-0.03,0.018l-0.015,0.008l-0.031-0.008
	l-0.033-0.006l0,0l-0.013-0.006l-0.4-0.18l-0.142-0.033l-0.064,0.05l-0.06,0.005l-0.331,0.104l-0.067-0.014l-0.054,0.006
	l-0.066,0.007l-0.065-0.002l-0.065-0.028l-0.058-0.043l-0.061-0.032l0,0l-0.077,0.004l0,0l0.087-0.055l0.189-0.012l0.091-0.027
	h0.038l0.163-0.001l0.26-0.069l0.119-0.031l0.566,0.099h0.001L1422.455,451.923z M1411.341,460.956l0.23-0.145l0,0l-0.033,0.101
	l-0.108,0.157l-0.03,0.106l0.203-0.1l0.159-0.077l0.105-0.02l-0.035,0.153l-0.086,0.074l-0.09,0.038l-0.044,0.038l-0.04,0.057
	l-0.258,0.183l-0.071,0.113l-0.07,0.114l-0.037,0.091l-0.018,0.048l-0.034,0.135l-0.04,0.057l-0.061,0.014l-0.054-0.039
	l-0.019-0.098l0.031-0.301l0.045-0.12l0.047-0.124l0.131-0.245L1411.341,460.956z M1408.516,460.974l-0.008,0.173l-0.065,0.137
	l-0.087,0.036l-0.256-0.105l-0.063-0.046l0.013-0.041l0.058-0.024l0.069,0l0.047-0.101l0.023-0.134l0.027-0.024l0.159-0.016l0,0
	l0.042,0.073L1408.516,460.974z M1407.443,459.232l0.01-0.026l0.008-0.13l0.021-0.014l0.095,0.027h0.041l0.052-0.057l0.052-0.085
	l0.055-0.068l0.015-0.001l0.047-0.005l0.04,0.063l-0.01,0.087l-0.037,0.083l-0.046,0.05l-0.016,0.043l0.053,0.145v0.088v0.001
	l-0.081,0.074l-0.153,0.044l-0.316,0.04l-0.097-0.116l-0.135-0.072l-0.106-0.086l-0.012-0.156l0.028-0.068l0.001-0.001l0.052,0.014
	l0.072,0.055l0.082,0.053l0.085,0.032l0.068,0.018l0.005,0.001h0.015l0.051-0.002l0.036-0.018L1407.443,459.232z M1408.451,455.748
	l1.566-1.266l0.012-0.002l0.076-0.018l0.094-0.041l0.139-0.091l0.119-0.047l0.03,0.096l0,0l-0.023,0.038l-0.002,0.004l-0.001,0.001
	l-0.091,0.036l-0.021,0.031h-0.001l-0.029,0.111l0.009,0.058l0.053-0.006l0.016-0.002l0.334-0.223l0.081-0.106v-0.001l-0.081,0.022
	l-0.074,0.005v-0.001l-0.052-0.036l-0.01-0.099l0.031-0.032l0.2,0.006l0.125-0.018l0.493-0.066l0,0l-0.022,0.044l-0.063,0.119
	l-0.01,0.086l0.085,0.072l0.027-0.043l0.028-0.1l0.065-0.073l0.007,0.001l0.138,0.04v-0.001l0.004-0.044l-0.034-0.036l-0.013-0.025
	l-0.008-0.027l-0.018-0.037h0.001l0.128,0.015l0.015,0.003l0.209-0.016l0.192-0.054l0.091-0.096l0.008-0.007l0.014-0.01l0.043,0.018
	l0.041,0.048l0.015,0.069l-0.02,0.01l-0.116,0.03l-0.048,0.063l-0.062,0.164l-0.056,0.086l0.068-0.023l0.037-0.012l0.233-0.156
	l0.119,0.044l0.06-0.059v0.001l0.055,0.095l0.063,0.088l0,0l0.088-0.073l0.002-0.115l-0.071-0.122l-0.104-0.111l-0.099-0.084
	l0.001-0.001l0.294-0.132l0.361-0.077l0.093-0.053l0.045-0.107l0.083-0.068l0.337-0.016l0.038-0.022l0.043-0.022v-0.001l0.084-0.134
	l0.172-0.017l0.336,0.034l-0.059-0.04l-0.021-0.03l0.01-0.033l0.001-0.001l0.039-0.05l0.058,0.042l0.207-0.109l0.1-0.025
	l0.113,0.044l0.041,0.064l0.023,0.081l0.062,0.089v-0.001l-0.007-0.052l-0.007-0.054l-0.006-0.016l-0.01-0.029l0.001-0.001
	l0.307-0.029l0.155,0.038l0.009,0.174l0,0l-0.098-0.073l-0.085,0.013l0,0l-0.019,0.069l0.103,0.093l0.087,0.015l0.063-0.023
	l0.066-0.001l0.092,0.086h0.001l-0.031,0.028l-0.06,0.052l-0.079,0.088l-0.035,0.105l0.033,0.127l0.101,0.127l0.061-0.008
	l-0.006-0.107l-0.094-0.179l0.104-0.057l0.122-0.042l0.104-0.067l0.054-0.129l0.023-0.304l-0.053-0.126l-0.153,0.011l-0.06-0.202
	l-0.014-0.076l0.012-0.071v-0.001l0.052-0.063l0.08-0.044l0.092-0.021l0.257,0.05l0.334,0.021l0.084,0.03l0.085,0.029l-0.063,0.063
	l-0.176,0.022l-0.042,0.063l0.045,0.021l0.207,0.047l0.018,0.003l0.081-0.005l0.023-0.037l0.021-0.033v-0.001l0.009-0.09
	l0.037-0.059l0.245,0.052l0.172,0.013l0.028,0.002l0.104,0.026l0,0l0.068,0.005l0.454,0.032l0.293,0.059l0.146,0.18l0,0
	l-0.267-0.034l-0.037-0.004l-0.273,0l-0.004,0.048l0.199,0.085l0.063,0.017l-0.002,0.003l0.018,0.012h0.001l0.03,0.013l0.039,0.005
	l0.027-0.013l0.021-0.05l0,0l0.021-0.004l0.138-0.003l0.092-0.084v-0.001l0.001-0.114l-0.133-0.09l0.005-0.04l0.075-0.015
	l0.021-0.003l0.233,0.033l0.094-0.021l0.084-0.044l0.079-0.019l0.186-0.014l-0.027-0.044l-0.027-0.054l-0.027-0.031l0.062-0.006
	l0.028,0.042l0.024-0.006l0.016-0.007l0.005-0.001l0.013-0.002l0.029,0.006l-0.001,0l-0.022-0.042l-0.024-0.079l-0.023-0.044l0,0
	l0.037-0.002l0.046-0.002l0.05,0.034l0.05,0.042l0.04,0.015l0.038,0.012l0.089-0.014l0.067-0.059l0.043-0.039l0.081-0.019
	l-0.001,0.031l0.009,0.02l0.011,0.024l0.007,0.016l0.006,0.015l0.067,0.045l0.067,0.046l0.225,0.005l0.05-0.024l0.112-0.055v-0.001
	l-0.013-0.149l0.004-0.045l0.137,0.004l0.087-0.021l0.026-0.006l0.31-0.177l0.147-0.04l0.125,0.031l0.029,0.162l0,0l-0.05,0.052
	l-0.212,0.087l-0.077,0.058l-0.048,0.095v0.001v0.011v0.081l0.062,0.095l0.138,0.101l0.041-0.067l0.017-0.072l-0.018-0.075
	l-0.061-0.074l0.034-0.068l0.041-0.059l0.029-0.014l0.021-0.009l0,0l0.067,0.036l0.087-0.058l0.086-0.059l0.082-0.04l0.121-0.028
	l0,0l0.035,0.048l0.036,0.022l0.045,0.005l0.063-0.008l-0.044-0.06l-0.09-0.008l0,0l0.033-0.068l0.121-0.112l0.055-0.018
	l0.308-0.009l0,0l0.013,0.012l0.159,0.1l0.018,0.001h0.003l0.064-0.008l0.026,0.001l0.04,0.042l0.032,0.061l0.036,0.044l0.061-0.014
	l0.044-0.016l0.032,0.001h0.005l0.038-0.006l0.045-0.033l0.044,0.09l0,0l0.024,0.002l0.026,0.003l0.014-0.049l-0.061-0.079
	l0.003-0.041l0,0l0.264,0.047l0.095,0.037v-0.001l0.004-0.045l-0.002-0.001l-0.09-0.039l-0.087-0.049l-0.074-0.057l-0.05-0.062
	l-0.044-0.016l0,0h-0.01l-0.043-0.001l-0.018-0.02l0.018-0.031l0.06-0.038l0.052-0.001l0.138,0.036l0.164-0.043l0.561,0.04
	l1.511,0.602l0.104,0.023l0.233,0.017l0.136,0.04l0.255,0.135l0.936,0.619l0.089,0.039l0.121,0.038l0.097,0.047l0.138,0.125
	l0.065,0.037l0.089,0.058l0.144,0.156l0.066,0.073l0,0l0.146-0.002h0.001l0.147,0.106l0.704,0.762l0.133,0.226l0.149,0.393
	l0.005,0.117l0.041,0.165l0.559,1.277l0.061,0.242l0.071,0.75l0,0l-0.084-0.013h-0.005l-0.042,0.032V458v0.01l0.001,0.036
	l0.04,0.034l0.092,0.037l0.027,0.04l0.001,0.054l0.013,0.074l0.043,0.143l0.023,0.138l-0.021,0.625l0.026,0.311l-0.021,0.331
	l0.02,0.157l0.097,0.117l-0.067,0.146l0.013,0.104l0.007,0.06l0.104,0.261l0.105,0.26l0.091,0.131l-0.071,0.228l0,0l-0.01,0.101
	l0.009,0.083l0.024,0.089l0.067,0.165v0.042l-0.002,0.042l-0.06,0.084l-0.074,0.086l-0.031,0.052l-0.021,0.036l-0.044,0.338
	l-0.04,0.088l-0.059,0.035l-0.068,0.015l-0.041,0.014l-0.031,0.01l0,0l0.031,0.111l-0.015,0.086l-0.06,0.147l-0.015,0.035
	l-0.018,0.023l-0.031,0.013l-0.033,0.016l-0.022,0.042l0.003,0.028l0.013,0.026l0.01,0.026l-0.008,0.029l-0.011,0.008l-0.01,0.007
	l-0.06,0.023l-0.015,0.014l-0.005,0.004l0,0l-0.023,0.036l-0.146,0.219l-0.044,0.092l-0.032,0.067l-0.128,0.097l-0.021,0.024
	l-0.039,0.047l-0.001,0.001l0.032,0.052l-0.11,0.083l-0.595,0.332l-0.038,0.03l0,0l-0.006,0.003l-0.02,0.008l-0.025,0.001l0,0
	l-0.046-0.014l-0.028,0.007l-0.03,0.012l-0.079,0.034l-0.606,0.115l-0.055-0.003l0,0l-0.046-0.015l-0.046-0.013h-0.001l-0.03,0.002
	l-0.107,0.021l-0.274-0.021l-0.208,0.054l-0.279-0.005l-0.102-0.002l-0.012,0.009l-0.021,0.021l-0.027,0.019l-0.034,0.008
	l-0.032-0.016l-0.001-0.03l0.01-0.028l0,0l0.004-0.014l-0.305-0.036l-0.024-0.002l-0.327,0.038l-1.344,0.154l-0.441-0.036
	l-0.043-0.004l-0.405-0.108l-0.013-0.011l-0.119-0.092l-0.062-0.032l-0.064-0.015l-0.001-0.001l-1.014,0.017l-0.13-0.074
	l0.085,0.025l0.059-0.007l0.05-0.019l0.056-0.015l0.2-0.003l0.053-0.015l0.009-0.035l-0.052-0.023l-0.019-0.022l-0.001-0.016l0,0
	l0.004-0.002l0,0l-0.172-0.045h-0.001l-0.078-0.007l-0.068,0.011l-0.025,0.021l-0.034,0.07l-0.029,0.027l-0.01,0.001l-0.045,0.01
	l-0.042-0.021l-0.036-0.033l-0.036-0.021l-2.073-0.26l-0.081,0.014l-0.02-0.03l0.002-0.019l0.037-0.033l-0.096-0.035l-0.105-0.059
	l-0.053-0.021l-0.053-0.021l-0.092,0.009l-0.088,0.021l-0.053-0.006l-0.054-0.005l-0.208-0.056l-0.662-0.039l-0.076-0.005
	l-0.155,0.03l-0.304-0.021l-0.253,0.031l-0.669-0.029l-0.181-0.048l0.016-0.021l0.003-0.001l0.002,0l0.005,0.002l0.022-0.007
	l-0.1-0.048l-0.341-0.06l-0.107,0.002l-0.038-0.109l-0.092-0.119l-0.112-0.098l-0.102-0.053l-0.063-0.044l-0.22-0.237l0.004,0.003
	l0.175,0.136l0.163,0.157l0.052-0.011l0.013-0.003l0.051-0.031l0.035-0.048l0.016-0.067l0.14,0.096l0.099,0.087l0.014,0.03
	l-0.003,0.027l0.01,0.024l0.058,0.026l0.135,0.031l0.04,0.016l0.279,0.177l0.058,0.011l0.112,0.023l0.141-0.068l0.039-0.019
	l0.207,0.174l0.173-0.145l0.084-0.256l-0.062-0.158l-0.105-0.001l-0.09,0.021l-0.033,0.008l-0.03,0.013l-0.074,0.033l-0.05,0.047
	h-0.064l-0.313-0.286l-0.067-0.01l-0.053,0.011l-0.047,0.018l-0.047,0.006l-0.069-0.013l-0.116-0.038l-0.048-0.012h-0.001h-0.011
	l-0.044,0.005l-0.01,0.007l-0.013,0.008l-0.025,0.004l-0.062-0.028l-0.047-0.041l-0.078-0.1l-0.059-0.032l-0.115-0.043l-0.224-0.116
	l-0.538-0.202l-0.054-0.051l-0.022-0.045l-0.031-0.038l-0.079-0.034l-0.235-0.064l-0.107-0.063l-0.055-0.097l-0.04-0.108
	l-0.062-0.095l-0.024-0.016l-0.16-0.103l-0.006-0.01l-0.003-0.005l-0.048-0.027l-0.1-0.082l-0.539-0.198l-0.383,0.042l-0.06-0.028
	l-0.413-0.141l-0.006-0.003l0,0l-0.151-0.044l-0.075-0.01l-0.06,0.013l-0.065,0.002l-0.024-0.075l-0.008-0.097l-0.01-0.065
	l-0.288-0.521l-0.072-0.24l-0.061-0.112l-0.147-0.106l-0.151-0.144l-0.214-0.134l-0.494-0.423l-0.027-0.018l-0.074-0.05
	l-0.148-0.103l-0.364-0.146l-0.051-0.036l-0.037-0.002l0,0l-0.022,0.073l-0.107,0.147l-0.07,0.046l-0.122-0.003l-0.022-0.001
	l-0.149-0.027l-0.084-0.031l-0.069-0.11l-0.053-0.175l-0.031-0.182l-0.004-0.142l-0.022-0.071l-0.165-0.218l-0.01-0.02l-0.016-0.033
	l-0.021-0.06l-0.015-0.068l-0.003-0.08l-0.115,0.019l-0.051,0.019l-0.052,0.019l-0.102,0.062l-0.103,0.093l-0.32,0.381l-0.125,0.052
	l0.03-0.211l0.097-0.172l0.258-0.31l0.13-0.344l0.07-0.076l0.145-0.104l0.071-0.011l0,0l0.029,0.095l0.045-0.001l0.045-0.006
	l0.038,0.058l0,0l0.102-0.103l-0.04-0.356l-0.157-0.683l0.03-0.154l0.128-0.313l0.218-0.345l0.089-0.289v-0.001l-0.333,0.333
	l-0.084,0.127l-0.042,0.125l-0.011,0.016l-0.011,0.017l-0.098,0.085l-0.028,0.035l-0.012,0.042l-0.003,0.055l-0.005,0.083
	l0.013,0.059l0.01,0.011l0.021,0.024l0.009,0.031l-0.07,0.063l-0.009,0.033l-0.018,0.216l-0.022,0.053l-0.429,0.317l-0.144,0.152
	v0.001l-0.036,0.06l-0.175,0.284l-0.081,0.096l-0.009,0.081l0.152,0.045l0.05-0.028l0.059-0.05l0.065-0.018l0.075,0.074l0.008,0.055
	l-0.029,0.039l-0.04,0.031l-0.074,0.102l-0.227,0.166l-0.072,0.12l0,0l0.083-0.042l0.118-0.088l0.083-0.042l-0.047,0.148
	l-0.077,0.134l-0.199,0.251l-0.214,0.179l-0.065,0.131l-0.011,0.011l-0.04,0.043l-0.025,0.045l0.043,0.026l-0.055,0.053
	l-0.063,0.004l-0.072-0.016l-0.085-0.007l-0.073,0.016l-0.034,0.013l-0.09,0.035l-0.076,0.014l-0.051-0.171l-0.194-0.351
	l-0.035-0.136v-0.001l0.099-0.498l0.002-0.28l0.021-0.094l0.087-0.005l0.128,0.059l0.048-0.001l0.023-0.049l0.014-0.052l0.055-0.143
	l0.02-0.026l0.058-0.008l0.005-0.071l-0.009-0.063l-0.005-0.023v-0.034v-0.024l0,0l0.033-0.04l0.014-0.018l0.208-0.109l0.65-0.343
	l0.143-0.156l0.255-0.393l0.008-0.012l0,0l-0.046-0.019l-0.139,0.194l-0.503,0.4l-0.561,0.269l-0.146,0.193l0,0l-0.125,0.344
	l-0.078,0.072l-0.095-0.025l-0.041-0.161l-0.002-0.047l-0.006-0.146l0.018-0.276l0.036-0.121l0.07-0.067l0.208,0.021l0.092-0.027
	l1.036-0.483l0.101-0.091L1408.451,455.748z"/></svg>