<?xml version="1.0" encoding="utf-8"?>
<!-- Generator: Adobe Illustrator 15.0.0, SVG Export Plug-In . SVG Version: 6.00 Build 0)  -->
<!DOCTYPE svg PUBLIC "-//W3C//DTD SVG 1.1//EN" "http://www.w3.org/Graphics/SVG/1.1/DTD/svg11.dtd">
<svg version="1.1" id="Ebene_1" xmlns="http://www.w3.org/2000/svg" xmlns:xlink="http://www.w3.org/1999/xlink" x="0px" y="0px"
	 width="1920px" height="1080px" viewBox="0 0 1920 1080" enable-background="new 0 0 1920 1080" xml:space="preserve">

<path fill="#F4E0B6" stroke="#FFFFFF" d="M1118.354,749.787l0.094-0.021l0.084-0.061l0.154-0.147l0.08-0.056l0.152-0.107
	l0.057-0.008v0.093l-0.017,0.093l-0.077,0.068l-0.188,0.091l-0.069,0.055l-0.202,0.235l-0.08,0.058l-0.366,0.167l-0.09-0.006
	l-0.058-0.062l0.008-0.131l0.038-0.057l0.203-0.213l0.065-0.006L1118.354,749.787z M1117.372,750.166l0.087-0.009l0.211-0.147
	l0.072-0.005l-0.035,0.095l-0.005,0.086l0.019,0.085l0.03,0.093l0.013,0.102l-0.025,0.083l-0.048,0.086l-0.057,0.071l-0.394,0.342
	l-0.171,0.071l-0.072-0.045l0.008-0.138l0.085-0.282l0.036-0.264l0.047-0.182v-0.066l-0.015-0.107l0.083,0.013L1117.372,750.166z
	 M1093.347,703.302l1.458-0.048l0.049,0.007l0.038,0.013h0.034l0.043-0.035l0.203-0.281l0.079-0.061l0.264-0.058l0.087-0.018
	l0.363,0.046l0.854,0.357l1.035,0.532l0.619,0.562l0.189,0.172l0.383,0.211l0.22,0.088l0.188,0.049l0.156-0.007l0.156-0.055
	l0.331-0.161l0.075-0.053l0.024-0.019l0.077-0.099l0.139-0.305l0.146-0.483l0.092-0.07l0.498-0.127l0.159-0.077l0.121-0.116
	l1.228-1.85l0.123-0.146l0.146-0.09l1.18-0.363l0.141-0.009l0.066,0.019l0.143,0.059l0.151,0.023l0.197,0.058l0.075,0.001
	l0.145-0.023h0.006l0.068,0.003l0.08,0.028l0.162,0.092l0.602,0.229l0.041,0.007l0.051-0.003l0.019-0.007l0.013-0.022l0.039-0.052
	l0.044-0.042l0.104-0.068l0.053-0.023l0.128-0.031l0.125,0.006l0.253,0.065l0.124,0.062l0.212,0.17l0.113,0.064l0.199,0.025
	l1.297-0.188l0.161-0.056l1.337-0.462l0.162-0.081l0.205-0.188l0.077-0.045l0.972-0.337l0.09-0.054l0.024-0.029l0.033-0.058
	l0.032-0.072l0.015-0.055l0.37-1.345l0.086-0.226l0.061-0.101l0.04-0.041l0.022-0.007l0.016-0.012l0.02-0.057l0.002-0.06
	l-0.03-0.127l-0.002-0.061l0.045-0.12l0.622-0.915l0.147-0.172l1.896-1.534l0.104-0.085l0.399-0.243l0.816-0.287l2.073-1.05
	l1.432-0.287l0.556-0.025l0.756,0.103l0.266,0.072l0.103,0.003l0.277-0.059l0.135-0.086l0.056-0.04l0.061-0.114l0.063-0.05
	l0.249-0.025l0.061,0.004l0.029,0.024l0.013,0.026l0.015,0.013l0.037-0.01l0.012-0.019l0.008-0.035l0.017-0.036l0.038-0.026
	l0.052,0.005l0.05,0.025l0.041,0.009l0.029-0.048l0.079-0.013l0.151-0.07l0.117-0.054l0.104-0.032l0.095-0.01l0.075-0.019
	l0.046-0.063l-0.004-0.065l-0.071-0.274l0.013-0.026l0.087-0.067l0.026-0.028l0.018-0.059v-0.063l-0.016-0.119l-0.079,0.007
	l-0.002-0.085l0.02-0.116l-0.021-0.084l0.087-0.238l0.014-0.028l0.027,0.02l0.025-0.024l0.02-0.04l0.014-0.046l-0.003-0.032
	l-0.028-0.08l0.062,0.016l0.055,0.023l0.056,0.012l0.069-0.019l0.026-0.043l-0.018-0.126l0.04-0.049l0.085-0.073l0.043-0.096
	l0.048-0.201l-0.006-0.093l0.004-0.006l0.005-0.024l0.034,0.008l0.037,0.021l0.016,0.013l0.057-0.037l-0.01-0.017l-0.04-0.022
	l-0.04-0.047l0.003-0.022l0.048-0.051l0.014-0.021l0.009-0.008l0.039-0.013l0.012-0.009l-0.002-0.015l-0.022-0.035l-0.003-0.016
	l0.056-0.203l0.034-0.08l-0.043-0.023l-0.038-0.015l-0.038-0.004l-0.039,0.006l-0.015-0.035l0.073-0.013h0.065l0.037-0.022
	l-0.016-0.087l0.13-0.03l0.105-0.083l0.289-0.4l0.088-0.1l0.111-0.068l0.012,0.029l-0.002,0.058l0.055-0.005l0.077-0.046
	l0.058-0.061l0.008,0.017l0.021,0.053l0.017-0.051l-0.002-0.096l0.016-0.03l0.044-0.013l0.024,0.033l0.012,0.052l0.002,0.047
	l0.089-0.113l0.103-0.082l0.083-0.092l0.03-0.147l-0.063,0.021l-0.018-0.019l0.011-0.085l0.015-0.018l0.031-0.013l0.022-0.021
	l-0.003-0.044l-0.018-0.023l-0.036-0.022l-0.007-0.02l0.002-0.059l0.011-0.058l0.094-0.258l0.042-0.081l-0.037-0.08l0.024-0.055
	l0.11-0.084l0.004-0.003l1.052-0.478l1.594,0.983l1.599,0.984l0.787,1.138l0.789,1.142l0.168,0.365l0.017,0.02l0.057,0.067
	l0.037,0.093l0.04,0.158l0.027,0.055l0.069,0.052l0.072,0.01l0.072-0.02l0.875-0.42l0.302-0.067l0.144,0.008l0.035,0.042
	l0.009,0.082l0.028,0.039l0.045,0.018l0.171,0.04l0.056-0.003l0.016,0.036l-0.013,0.016l-0.03,0.048l0.111,0.022l0.107,0.005
	l0.093,0.027l0.071,0.085l0.034,0.009l0.045-0.051l0.043-0.063l0.028-0.035l0.063,0.004l0.04,0.035l0.03,0.046l-0.04,0.136
	l0.003,0.035l-0.009,0.039v0.069l0.079,0.379l0.032,0.047l-0.052,0.094l0.05,0.087l0.172,0.165l0.03,0.048l0.016,0.035l0.056,0.168
	l0.02,0.176l0.127,0.535l0.004,0.097l-0.053,0.312l-0.001,0.052l0.024,0.039l0.064,0.038l0.021-0.002l0.071-0.039l0.04,0.006
	l0.032,0.021l0.029,0.027l0.037,0.021l0.104,0.041l0.083,0.057l0.068,0.084l0.056,0.121l0.028,0.109l0.021,0.136l0.008,0.139
	l-0.012,0.114l-0.053,0.082l-0.179,0.204l-0.063,0.108l-0.086,0.237l-0.063,0.105l-0.212,0.22l-0.058,0.093l-0.205,0.591
	l-0.026,0.034l-0.107,0.075l-0.04,0.052l-0.057,0.197l-0.05,0.103l-0.066,0.101l-0.082,0.077l-0.095,0.031l-0.36,0.014l-0.192,0.033
	l-0.13,0.069l-0.1,0.235l-0.08,0.266l-0.053,0.276l-0.013,0.258l0.011,0.232l-0.019,0.104l-0.116,0.19l-0.039,0.104l-0.011,0.108
	l0.024,0.11l0.108,0.171l0.003,0.094l0.002,0.07l-0.229,1.635l0.004,0.346l0.104,0.702l0.255,1.011l0.037,0.358l0.025,0.066
	l0.073,0.085l0.031,0.055l0.02,0.07l0.004,0.204l-0.02,0.102l-0.057,0.127l-0.029,0.049l-0.043,0.074l-0.063,0.082l-0.321,0.221
	l-0.117,0.139l-0.005,0.212l0.044,0.098l0.122,0.136l0.059,0.089l0.033,0.127l-0.024,0.237l0.009,0.119l0.056,0.108l0.079,0.058
	l0.19,0.083l0.096,0.087l0.023,0.087l-0.006,0.104l0.01,0.143l0.088,0.367l0.117,0.338l0.03,0.42l-0.229,0.28l-0.316,0.242
	l-0.238,0.31l-0.036,0.084l-0.047,0.254l-0.024,0.081l-0.023,0.047l-0.199,0.275l-0.019,0.039l0.009,0.109l0.027,0.004l0.134-0.043
	l0.087,0.081l0.1,0.133l0.08,0.203l0.023,0.103l0.01,0.102l-0.026,0.524l0.015,0.288l0.082,0.209l0.11,0.17l0.308,1.014l0.043,0.245
	l-0.031,0.203l-0.047,0.059l-0.055,0.028l-0.061,0.019l-0.063,0.03l-0.039,0.055l-0.007,0.077l0.022,0.167l0.005,0.198l-0.036,0.142
	l-0.336,0.515l-0.062,0.056l-0.07,0.02h-0.175l-0.064,0.012l-0.076,0.053l-0.042,0.063l-0.033,0.068l-0.057,0.073l-0.058,0.037
	l-0.068,0.022l-0.141,0.02l0.068,0.055l0.225,0.237l0.044,0.066l0.062,0.142l-0.018,0.069l-0.09,0.178l-0.012,0.069l-0.002,0.077
	l-0.011,0.079l-0.034,0.072l-0.087,0.064l-0.185,0.057l-0.077,0.099l-0.032,0.222l0.059,0.242l0.109,0.229l0.245,0.383l0.037,0.105
	l0.006,0.052l0.007,0.078l-0.057,0.396l0.026,0.14l0.086,0.203l0.107,0.187l0.084,0.112l0.047,0.08l0.007,0.089l-0.083,0.296
	l-0.146,0.955l-0.021,0.428l0.014,0.124l0.034,0.124l0.054,0.107l0.191,0.274l0.026,0.116l-0.031,0.09l-0.047,0.096l-0.034,0.271
	l-0.148,0.472l-0.14,0.444l-0.081,0.636l-0.049,0.15l-0.051,0.113l-0.018,0.067l0.038,0.017l0.118-0.034l0.089,0.029l0.381,0.263
	l0.267,0.13l0.111,0.104l0.009,0.144l-0.034,0.043l-0.045,0.009h-0.049l-0.053,0.021l-0.052,0.055l-0.037,0.064l-0.108,0.309
	l-0.046,0.087l0.007,0.055l0.013,0.056l-0.009,0.056l-0.025,0.029l-0.07,0.041l-0.044,0.042l-0.049,0.019l-0.018,0.02l-0.009,0.035
	l0.013,0.076l-0.006,0.038l-0.183,0.335l-0.156,0.451l-0.026,0.179l0.033,0.159l0.063,0.064l0.154,0.078l0.062,0.084l0.047,0.152
	l0.029,0.16l0.017,0.433l-0.037,0.235l-0.09,0.148l-0.172,0.117l-0.072,0.179l0.005,0.22l0.063,0.239l0.021,0.139l-0.05,0.146
	l-0.089,0.132l-0.1,0.093l-0.052,0.023l-0.111,0.023l-0.051,0.021l-0.013,0.022l-0.027,0.077l-0.021,0.028l-0.037,0.013
	l-0.065-0.012l-0.028,0.004l-0.128,0.089l-0.269,0.188l-0.131,0.046l-0.108-0.042l-0.193-0.21l-0.244-0.378l-0.101-0.205
	l-0.079-0.218l-0.116-0.25l-0.176-0.171l-0.213-0.062l-0.461,0.136l-0.215-0.094l-0.186-0.188l-0.14-0.223l-0.161-0.177
	l-0.195-0.039l-0.441,0.033l-0.398-0.029l-0.139,0.018l-0.113-0.032l-0.129-0.253l-0.136-0.082l-0.005,0.188l0.02,0.224l0.042,0.225
	l0.136,0.429l-0.012,0.028l-0.022,0.021l-0.019,0.041l-0.021,0.119l-0.009,0.094l0.015,0.094l0.045,0.123l-1.172,0.648l-0.145,0.023
	l-0.131-0.037l-0.089-0.081l-0.222-0.364l-0.072-0.067l-0.07,0.017l-0.079,0.13l-0.689,1.724l-0.087,0.11l-0.102,0.017l-0.11-0.004
	l-0.113,0.049l-0.042,0.16l0.155,1.498l0.003,0.02l-0.037,0.084l-0.166,0.09l-0.056,0.031l-0.125,0.106l-0.042,0.104l-0.016,0.302
	l-0.041,0.123l-0.073,0.106l-0.154,0.181l-0.022,0.026l-0.099,0.174l-0.018,0.398l-0.095,0.162l-0.071,0.043l-0.062,0.027
	l-0.053,0.035l-0.047,0.075l-0.032,0.119l-0.006,0.404l-0.043,0.261l-0.408,0.955l-0.23,0.766v0.001l-0.035,0.227l-0.03,0.106
	l-0.058,0.087l-0.012,0.051l0.051,0.165l0.01,0.083l-0.078,0.058l-0.118,0.01l-0.107,0.036l-0.046,0.135l-0.028,0.129l-0.116,0.223
	l-0.015,0.119l0.052,0.108l0.084,0.063l0.078,0.075l0.031,0.154l-0.038,0.164l-0.055,0.117l-0.006,0.101l0.114,0.109l0.138,0.061
	l0.141,0.039l0.13,0.064l0.104,0.125l0.031,0.146l-0.031,0.148l-0.051,0.15l-0.028,0.148l0.017,0.137l0.048,0.108l0.058,0.101
	l0.047,0.118l0.016,0.144l-0.011,0.295l0.021,0.153l0.034,0.072l0.09,0.116l0.027,0.057l0.163,0.844l-0.008,0.091l-0.039,0.055
	l-0.051,0.041l-0.042,0.057l-0.025,0.087l-0.028,0.219l-0.001,0.093l0.022,0.288l-0.002,0.138l-0.027,0.157l0.002,0.001
	l-0.055,0.455l0.009,0.12l-0.086,0.186l-0.01,0.11l0.062,0.115l0.044,0.071l0.048,0.072l-0.046,0.139l-0.005,0.005l0,0l0.002-0.005
	l-0.02-0.021l-0.043-0.01l-0.048,0.011l-0.03,0.042l-0.03,0.079l-0.021,0.082l-0.001,0.057l0.009,0.055l-0.001,0.134l0.008,0.066
	l0.026,0.055l0.062,0.065l0.018,0.055l-0.008,0.113l-0.045,0.058l-0.068,0.022l-0.081,0.011l-0.02,0.019l-0.044,0.029l-0.039,0.003
	v-0.065l0.006-0.051v-0.073l-0.01-0.063l-0.029-0.014l-0.039,0.037l-0.071,0.105l-0.057,0.046l-0.165,0.015l-0.067-0.154
	l-0.028-0.232l-0.053-0.213l-0.029,0.015l0.04,0.213l-0.067,0.16l-0.14,0.064l-0.174-0.068l0.007-0.031l-0.001-0.065l-0.041,0.007
	l-0.12-0.012l-0.005-0.089l-0.063-0.044l-0.173-0.048l-0.143-0.015l-0.007-0.002l-0.063-0.081l-0.099-0.096l-0.053-0.032
	l-0.067,0.01l-0.063,0.002l-0.08-0.031l-0.072-0.04l-0.038-0.028l-0.03,0.016l0.013,0.035l0.371,0.158l0.1,0.064l0.226,0.207
	l0.068,0.125l-0.055,0.106l0.061,0.062l0.082,0.065l0.083,0.047l0.058,0.008l0.065,0.024l0.163,0.21l0.095,0.063l-0.003,0.047
	l0.009,0.149l0.014,0.056l0.05,0.073l0.058,0.009l0.062-0.01l0.06,0.021l0.063,0.128l-0.043,0.12l-0.069,0.119l-0.011,0.119v0.211
	l-0.037,0.053l-0.042,0.034l-0.209,0.114l-0.286,0.11l-0.411,0.223l-0.213,0.073l-0.091,0.053l-0.123,0.189l-0.088,0.063
	l-0.211,0.115l-0.78,0.562l-0.057-0.009l-0.065,0.024l-0.049,0.055l-0.014,0.081l0.051-0.031l0.047-0.018l0.042-0.006l0.039,0.006
	l-0.092,0.089l-0.152,0.095l-0.151,0.05l-0.09-0.045l-0.075,0.016l-0.439,0.194l0.007-0.033l0.002-0.023l0.007-0.024l0.021-0.033
	l-0.07,0.01l-0.053,0.04l-0.041,0.019l-0.033-0.062l0.003-0.043l0.024-0.045l0.02-0.052l-0.003-0.073l-0.023-0.02l-0.135-0.088
	l0.005-0.031l0.001-0.068l-0.109-0.062l-0.037-0.157l-0.01-0.319l-0.031,0.016l-0.036,0.078l-0.02,0.039l-0.017,0.07l0.006,0.065
	l0.042,0.08l0.038,0.056l0.021,0.06l-0.016,0.092l0.013,0.037l0.101,0.06l0.032,0.041l-0.01,0.023l-0.041,0.153l-0.03,0.065
	l-0.042,0.068l-0.051,0.035l-0.065-0.025l-0.032,0.019l0.001,0.143l-0.109,0.044l-0.206-0.017l-0.124,0.057l-0.137,0.038
	l-0.128-0.003l-0.098-0.068l-0.021,0.038l-0.028,0.03l-0.086,0.052l-0.009,0.027l0.009,0.044l-0.002,0.051l-0.038,0.048l0.014,0.036
	l0.04,0.006l0.041,0.003l-0.017,0.052l0.072-0.006l0.111,0.036l0.144-0.039l0.037,0.028l0.013,0.055l-0.012,0.068l-0.203,0.157
	l-0.033-0.019l-0.177-0.133l-0.449-0.239l-0.086-0.099l-0.057-0.159l-0.032-0.048l-0.032,0.017l-0.055,0.077l-0.104,0.059h-0.02
	l-0.059-0.032l-0.117-0.039l-0.059-0.039l-0.174-0.225l-0.084-0.062l0.013,0.061l-0.004,0.07l-0.012,0.053l-0.01,0.013l0.034,0.054
	l0.029-0.005l0.034-0.011l0.045,0.023l0.119,0.177l0.076,0.063l0.101-0.013l0.184,0.011l0.179,0.141l0.086,0.186l-0.097,0.144
	l0.079,0.02l0.105,0.046l0.079,0.077l0.006,0.12l-0.069,0.255l-0.066,0.089l-0.119,0.005l0.03,0.093l0.013,0.029l-0.107-0.003
	l-0.089-0.027l-0.061-0.073l-0.021-0.126l-0.04,0.105l0.022,0.104l0.063,0.091l0.083,0.062l-0.118,0.111l-0.037,0.02l-0.105-0.105
	l-0.081-0.132l-0.119-0.292l-0.135-0.119l-0.059-0.087l0.039-0.073l0.005-0.059l-0.015-0.123l-0.029-0.129l-0.04-0.076h0.029
	l0.05-0.014l0.034-0.004l-0.055-0.048l-0.144-0.08l-0.044-0.053l-0.068-0.114l-0.041-0.04l-0.037,0.199l-0.032,0.015l-0.052-0.085
	l-0.104-0.1l0.008,0.104l0.062,0.133l-0.004,0.06l0.087,0.065l0.231,0.291l-0.051,0.028l-0.037,0.012l-0.033-0.009l-0.037-0.041
	l-0.014,0.027l-0.038,0.049l-0.082-0.091l-0.088-0.072l-0.207-0.116l0.044,0.093l0.051,0.066l0.119,0.107l0.063,0.039l0.031,0.026
	l0.024,0.044l-0.002,0.061l-0.022,0.046l-0.005,0.043l0.059,0.048l0.019-0.116l0.078-0.078l0.097-0.02l0.065,0.055l0.096,0.43
	l0.06,0.133l0.318,0.322l0.095,0.062l0.014,0.061l-0.01,0.071l-0.038,0.052l-0.066,0.025h-0.062l-0.109-0.002l0.012,0.025
	l0.017,0.024l0.029,0.024l-0.122,0.018l-0.128-0.002l-0.12,0.029l-0.094,0.111l-0.079-0.039l-0.072-0.073l-0.044-0.103l-0.001-0.122
	l-0.102-0.007l-0.129-0.113l-0.119-0.158l-0.073-0.138l-0.027-0.111l0.004-0.071l0.019-0.06l0.017-0.075v-0.073l-0.013-0.104
	l-0.045-0.082l-0.095,0.005l-0.154-0.019l-0.156-0.151l-0.2-0.322l-0.064-0.137l-0.01-0.084l0.022-0.108l0.008-0.09l-0.03-0.044
	l-0.046,0.02l-0.035,0.099l-0.07-0.042l-0.03-0.034l-0.026-0.051l-0.034,0.048l-0.037,0.029l-0.044,0.014l-0.051-0.001l0.056,0.087
	l0.046,0.101l0.055,0.071l0.073,0.003l0.059,0.02l0.071,0.087l0.113,0.19l0.098,0.21l0.057,0.09l0.057,0.021l0.076,0.005
	l0.097,0.059l0.156,0.141l-0.069,0.172l-0.008,0.063l0.021,0.086l0.3,0.53l0.109,0.146l0.1,0.059l0.037,0.144l0.135,0.05
	l0.094,0.052l-0.094,0.146l-0.141,0.116l-0.189,0.12l-0.188,0.078l-0.133-0.015l-0.045-0.079l-0.103-0.358l0.008-0.056l-0.003-0.031
	l-0.021-0.025l-0.063-0.022l-0.018-0.017l-0.072-0.206l-0.016-0.104l-0.013-0.413l-0.013-0.069l-0.064-0.171l-0.045,0.187
	l0.013,0.29l0.061,0.286l0.102,0.178l-0.005,0.062l0.039,0.117l0.017,0.083l-0.092-0.109l-0.043-0.072l-0.14-0.357l-0.052-0.058
	l-0.005,0.049l-0.01,0.046l-0.018,0.044l-0.024,0.041l0.056,0.068l0.101,0.274l0.053,0.085l0.104,0.097l0.078,0.095l0.121,0.178
	l0.027,0.068l-0.015,0.083l-0.042,0.047l-0.151,0.08l-0.131,0.09l-0.042-0.02l-0.12-0.163l-0.078-0.176l-0.087-0.273l-0.097-0.206
	l-0.126-0.113l-0.142,0.098l0.182,0.057l0.121,0.184l0.065,0.25l0.016,0.266l0.06,0.203l-0.22,0.201l-0.296,0.12l-0.173-0.037
	l-0.061,0.05l-0.057,0.058l0.076,0.091l-0.067,0.082l-0.119,0.075l-0.081,0.077l-0.077,0.103l-0.223,0.129l-0.082,0.095
	l-0.174-0.104l0.013-0.307l0.171-0.611l-0.065,0.027l-0.045,0.011l-0.03,0.015l-0.033,0.04l-0.084,0.335l-0.132-0.309l-0.177-0.246
	l-0.03,0.016l0.034,0.121l0.061,0.146l0.074,0.136l0.074,0.088l-0.067-0.033l-0.063-0.042l-0.074-0.024l-0.098,0.025l0.102,0.109
	l0.084,0.064l0.067,0.081l0.048,0.161l0.008,0.133l-0.005,0.106l-0.021,0.045l-0.036,0.038l-0.018,0.051l0.03,0.084l0.031-0.045
	l0.031-0.016l0.074-0.013l-0.009,0.07l-0.119,0.133l-0.179,0.11l-0.137,0.027l-0.008,0.037l-0.021,0.045l-0.011,0.035l-0.092,0.007
	l-0.063-0.036l-0.047-0.075l-0.033-0.111l-0.014-0.109l0.018-0.178l-0.014-0.09l-0.019,0.024l-0.049,0.045l-0.02,0.022l-0.032-0.096
	l-0.037-0.169l-0.057,0.021l-0.056,0.012l-0.068,0.002l-0.053,0.055l0.006,0.069l0.04,0.084l0.05,0.072l0.038,0.041l0.006,0.088
	l0.049,0.052l0.064,0.05l0.054,0.082l0.031,0.136l-0.042,0.015l-0.079-0.031l-0.087,0.003l-0.111,0.052l-0.05-0.01l-0.079-0.207
	l0.026-0.025l0.003-0.022l-0.104-0.081l-0.016-0.017l-0.039-0.099l-0.029-0.104l-0.03,0.015l0.032,0.225l-0.033-0.013l-0.096-0.014
	l0.145,0.162l0.049,0.093l-0.033,0.097l-0.077,0.03l-0.097-0.019l-0.085-0.031l-0.05-0.012l-0.115,0.012l-0.146-0.053l-0.108-0.113
	v-0.178l-0.058,0.025l-0.028,0.038v0.05l0.026,0.064l-0.031,0.018l-0.113-0.057l-0.246-0.032l-0.092-0.061l0.043,0.008h0.077
	l0.044,0.007l-0.064-0.057l-0.071-0.001l-0.075,0.017l-0.081,0.003l-0.151-0.081l-0.059-0.044l-0.187-0.092l-0.04-0.01l-0.631-0.272
	l-0.215-0.156l-0.134-0.229l0.024-0.003h0.019l0.042,0.006l-0.038-0.11l-0.27-0.045l-0.094-0.084l-0.057-0.084l-0.209-0.191
	l-0.079-0.044l0.209,0.03l-0.089-0.119l-0.229-0.129l-0.29-0.388l-0.136-0.254l-0.058-0.077l-0.114-0.121l-0.057-0.076l-0.044-0.092
	l-0.031-0.037l-0.049-0.027l-0.055-0.043l-0.047-0.084v-0.085l0.049-0.059l0.079-0.034l0.085-0.01l0.072,0.024l0.139,0.101
	l0.076,0.011l-0.151-0.19l-0.06-0.075l0.108-0.044l0.109-0.024l-0.06-0.052l-0.193-0.105l-0.063-0.009l-0.009,0.035l0.04,0.105
	l-0.011,0.035l-0.045,0.026l-0.032,0.023l-0.062,0.07l-0.076,0.001l-0.109,0.087l-0.063-0.003l-0.025-0.043l-0.062-0.219
	l-0.112-0.262l-0.279-0.477l0.002-0.092l0.105-0.09l0.322-0.18l0.082-0.081l0.03,0.046l0.026,0.032l0.065,0.05l0.027-0.06
	l0.007-0.107l0.015-0.052l0.021-0.039l0.144-0.17l0.075-0.061l0.074-0.036l0.064,0.013l0.031-0.016l-0.063-0.055l-0.157-0.06
	l-0.076-0.063l-0.045-0.072l-0.04-0.093l-0.02-0.097l0.008-0.087l0.047-0.084l0.069-0.058l0.163-0.083l0.047-0.064l0.033-0.105
	l0.025-0.167l-0.065,0.08l-0.042,0.104l-0.055,0.081l-0.101,0.016l-0.004,0.035l-0.022,0.043l-0.014,0.041l-0.122,0.03l-0.094,0.132
	l-0.024,0.165l0.081,0.135l-0.01,0.174l-0.034,0.12l-0.072,0.064l-0.121,0.003l-0.043-0.025l-0.02-0.032l-0.029-0.018l-0.064,0.021
	l-0.016,0.048l0.04,0.068l0.059,0.064l0.048,0.033l-0.29,0.132l-0.628,0.07l-0.034-0.02l-0.043-0.052l-0.028-0.021l-0.212-0.089
	l-0.129-0.031l-0.078-0.106l-0.051-0.119l-0.007-0.064l0.026-0.039l0.046-0.146l0.031-0.059l0.033-0.027l0.487-0.228l0.195-0.063
	l0.124,0.016l0.032-0.017l0.021-0.108l0.011-0.253l0.016-0.089l0.053-0.065l0.079-0.039l0.083-0.013l0.066,0.017l0.027,0.037
	l0.071,0.114l0.021,0.021l0.05-0.031l0.02-0.029l-0.004-0.041l-0.021-0.063l-0.067-0.073l-0.115-0.056l-0.128-0.032l-0.101,0.001
	l-0.091,0.052l-0.028,0.083l-0.001,0.212l-0.033,0.081l-0.064,0.09l-0.081,0.071l-0.082,0.036l-0.114-0.014l-0.066-0.062
	l-0.032-0.102l-0.015-0.368l-0.018-0.091l-0.044-0.105l-0.03,0.016l0.011,0.507l-0.015,0.145l-0.038,0.107l-0.072,0.087
	l-0.112,0.073l-0.048,0.045l-0.088,0.142l-0.105,0.119h-0.035l-0.085-0.021l-0.102-0.04l-0.115-0.074l-0.101-0.09l-0.101-0.142
	l-0.073-0.056l-0.08-0.082l-0.063-0.127l-0.027-0.125l-0.014-0.148l0.01-0.13l0.047-0.079l0.063-0.007l0.128,0.042l0.04-0.007
	l0.014-0.051l-0.027-0.047l-0.04-0.05l-0.014-0.06l0.101-0.242l0.344-0.386l0.039-0.281l-0.095,0.075l-0.109,0.265l-0.171,0.173
	l-0.294,0.427l-0.051,0.099l-0.156,0.406l-0.053,0.022l-0.34-0.383l-0.896-0.607l-0.138-0.061l-0.225,0.003l-0.129-0.073
	l-0.198-0.166l-0.241-0.122l-0.197-0.066l-0.458-0.082l-0.203-0.038l-0.409-0.178l-0.233-0.044h-0.093h-0.502l-0.335,0.093
	l-1.139,0.32l-1.303,0.53l-2.079,1.22l-0.118,0.035l-0.077-0.02l-0.07-0.041l-0.089-0.025l0.038-0.053l0.03-0.026l0.032-0.006
	l0.039,0.013l0.052-0.123l0.039,0.017l0.037,0.082l0.046,0.079l0.117-0.28l0.03-0.01l0.031,0.037l0.04-0.018l0.055-0.062
	l0.095-0.052l0.078-0.062l0.063-0.087l0.039-0.128l-0.01-0.068l-0.032-0.059l-0.013-0.054l0.044-0.046l0.201-0.104l0.098-0.08
	l0.193-0.195l0.074-0.011l0.095-0.109l0.078-0.12l0.04-0.131l-0.013-0.137l0.053-0.062l0.39-0.283l-0.049-0.014h-0.035l-0.031,0.014
	l-0.032,0.029l-0.306,0.067l-0.239,0.268l-0.209,0.317l-0.213,0.218l-0.09,0.048l-0.049,0.033l-0.141,0.2l-0.049,0.054l-0.055,0.043
	l-0.063,0.038l-0.016-0.007l-0.071,0.005l-0.06,0.035l-0.041-0.014l-0.021-0.01l-0.044-0.066l-0.027-0.068l-0.005-0.145
	l-0.021-0.085l-0.067,0.104l-0.041,0.093l-0.065,0.195l-0.035,0.04l-0.052,0.029l-0.041,0.036l-0.004,0.058l0.021,0.038l0.055,0.071
	l0.019,0.055l-0.001,0.072l-0.03,0.163l0.007,0.078l-0.007,0.052l-0.026,0.051l-0.009,0.046l0.042,0.039l0.033,0.019l0.023,0.023
	l0.018,0.031l0.037,0.014l0.016,0.145l-0.28,0.188l-0.569,0.257l-0.631,0.431l-0.788,0.354l-1.087,0.703h-0.002l-0.105-0.363
	l-0.041-0.287l-0.019-0.13l-0.001-0.066l-0.003-0.366l-0.027-0.131l-0.117-0.227l-0.034-0.123l0.019-0.155l0.063-0.144l0.047-0.078
	l0.009-0.081l-0.1-0.264l-0.027-0.055l-0.037-0.013l-0.064,0.026l-0.057,0.009l-0.054-0.016l-0.056-0.039l-0.061-0.104l-0.025-0.134
	l-0.02-0.274l-0.1-0.233l-0.136-0.19l-0.079-0.205l0.065-0.277l0.049-0.063l0.057-0.055l0.042-0.058v-0.073l-0.045-0.042
	l-0.168-0.059l-0.063-0.041l-0.042-0.067l-0.007-0.043l0.01-0.049l0.013-0.135l0.021-0.081v-0.063l-0.02-0.084l-0.535-1.382
	l-0.007-0.07l0.029-0.045l0.053-0.026l0.115-0.028l0.013-0.02l-0.006-0.035l-0.004-0.058l-0.061-0.25l-0.174-0.157l-0.207-0.13
	l-0.165-0.166l-0.094-0.214l-0.046-0.196l-0.188-0.804l-0.037-0.076l-0.069-0.06l-0.166-0.094l-0.104-0.139l-0.062-0.051l-0.01-0.02
	l-0.01-0.025l-0.002-0.051l0.017-0.134l0.003-0.061l-0.09-0.373l-0.047-0.395l-0.092-0.351l-0.019-0.11l0.009-0.116l0.022-0.122
	l0.008-0.124l-0.035-0.127l-0.069-0.106l-0.169-0.188l-0.076-0.108l-0.059-0.127l-0.027-0.112l-0.032-0.256l-0.017-0.053
	l-0.044-0.101l-0.014-0.05l0.004-0.084l0.061-0.177l0.02-0.087l-0.02-0.212l-0.062-0.159l-0.511-1.338l-0.002-0.007l-0.017-0.061
	l0.015-0.058l0.069-0.084l0.018-0.042l-0.009-0.053l-0.052-0.076l-0.021-0.046l-0.008-0.097l0.012-0.19l-0.023-0.088l-0.03-0.031
	l-0.027,0.003l-0.024-0.003l-0.022-0.042l0.009-0.017l0.026-0.123l0.005-0.043l-0.019-0.166l-0.097-0.363l-0.061-0.142l0.388-0.149
	l0.062-0.043l0.035-0.063l0.026-0.07l0.041-0.063l0.048-0.038l0.148-0.08l0.056-0.018l0.063,0.002l0.058,0.015l0.058,0.003
	l0.057-0.029l0.304-0.264l0.09-0.152l0.021-0.213l-0.013-0.654l0.033-0.267l-0.005-0.13l-0.109-0.363l-0.046-0.085l-0.115-0.146
	l-0.079-0.139l-0.028-0.164l0.04-0.218l0.026-0.047l0.069-0.069l0.025-0.053l0.16-0.584l-0.003-0.031l-0.048-0.059l-0.018-0.033
	l-0.004-0.156l0.069-0.064l0.1-0.026l0.088-0.036l0.126-0.177l-0.01-0.161l-0.091-0.149l-0.112-0.142l-0.049-0.1l-0.027-0.13
	l0.008-0.132l0.058-0.104l0.297-0.33l0.17-0.148l0.3-0.106l0.057-0.131l0.047-0.322l0.089-0.286l0.016-0.133l-0.116-0.483
	l0.004-0.104l0.049-0.118l0.059-0.071l0.044-0.079l0.006-0.141l-0.006-0.033l-0.018-0.104l-0.04-0.08l-0.064-0.047l-0.443-0.223
	l-0.107-0.091l-0.035-0.1l0.021-0.294l0.056-0.269l-0.002-0.073l-0.028-0.11l0.003-0.041l0.016-0.065l0.061-0.15l0.083-0.08
	l0.107-0.027l0.36,0.032l0.071-0.049l0.04-0.138v-0.116l-0.082-0.281l-0.003-0.166l0.037-0.329l-0.011-0.163l-0.053-0.166
	l-0.042-0.13l-0.072-0.146l-0.076-0.084l-0.072-0.01l-0.072,0.018l-0.066,0.009l-0.064-0.038l-0.101-0.157l-0.041-0.046l-0.05-0.028
	l-0.055-0.02l-0.052-0.026l-0.044-0.053l-0.024-0.097l0.015-0.334l-0.044-0.162l-0.248-0.433l0,0l-0.077-0.07l-0.065-0.081
	l-0.053-0.099l-0.037-0.116l-0.016-0.232l-0.055-0.023l-0.038,0.017l-0.006,0.001l-0.042,0.031l-0.041,0.012l-0.152-0.067
	l-1.263-0.934l-0.117-0.111l-0.046-0.119l0.006-0.334l0.006-0.095l-0.02-0.268l0.136-0.777l0.066-0.171l0.191-0.276l0.037-0.091
	l-0.003-0.13l-0.055-0.094l-0.089-0.072l-0.15-0.076l-0.025-0.005l-0.021-0.011l-0.045-0.044l-0.03-0.045l-0.121-0.288l-0.005-0.098
	l0.027-0.1l0.052-0.131l0.025-0.213l-0.078-0.172l-0.237-0.332l-0.069-0.229l-0.089-0.754l-0.455-1.289l0.002-0.065l0.756-1.321
	l0.202-0.458l0.336-1.623l-0.206-1.18l-0.021-0.126l-0.383-1.239l0.295-0.147l0.129-0.094l0.105-0.129l0.48-1.088l0.162-0.268
	l0.213-0.221l0.496-0.397l0.828-0.664l0.141-0.084l0.12,0.003l0.138,0.059l0.119,0.003l0.27-0.106l0.431-0.304l0.659-0.271
	l0.145-0.104l0.044-0.049l0.104-0.174l0.035-0.11l0.015-0.22l0.027-0.101l0.103-0.128l0.623-0.437l0.158-0.035L1093.347,703.302z"/></svg>