<?xml version="1.0" encoding="utf-8"?>
<!-- Generator: Adobe Illustrator 15.0.0, SVG Export Plug-In . SVG Version: 6.00 Build 0)  -->
<!DOCTYPE svg PUBLIC "-//W3C//DTD SVG 1.1//EN" "http://www.w3.org/Graphics/SVG/1.1/DTD/svg11.dtd">
<svg version="1.1" id="Ebene_1" xmlns="http://www.w3.org/2000/svg" xmlns:xlink="http://www.w3.org/1999/xlink" x="0px" y="0px"
	 width="1920px" height="1080px" viewBox="0 0 1920 1080" enable-background="new 0 0 1920 1080" xml:space="preserve">

<path fill="#F4E0B6" stroke="#FFFFFF" d="M1238.982,430.818l-0.022,0.074l-0.083,0.096l-0.074,0.066l-0.102,0.065l-0.087,0.006
	l-0.034-0.108l0.05-0.112l0.006-0.093l-0.019-0.211l0.025-0.124l0.057,0.009l0.247,0.258L1238.982,430.818z M1237.064,433.035
	l0.02-0.031l0.006-0.026l-0.009-0.065l0.001-0.029l0.032-0.126l0.035-0.05l0.06-0.011l0.059,0.07l0.013,0.266l0.022,0.103
	l0.124,0.057l0.265-0.101l0.139,0.087l0.032,0.078l-0.013,0.071l-0.069,0.149l-0.059,0.233l-0.037,0.063l-0.065,0.03l-0.056-0.018
	l-0.05-0.001l-0.045,0.082l0.004,0.065l0.018,0.087v0.081l-0.05,0.043l-0.122-0.059l-0.145-0.322l-0.146-0.054l-0.059,0.032
	l-0.078,0.106l-0.054,0.044l-0.082,0.018l-0.248,0.001l-0.087-0.018l-0.075-0.048l-0.068-0.071l-0.106-0.156l0.008-0.172
	l0.102-0.071l0.148-0.01l0.158,0.009l0.114-0.032l0.121-0.084l0.208-0.2l0.018-0.009L1237.064,433.035z M1186.758,467.737
	l0.11-0.111l0.103-0.156l0.041-0.214l0.01-0.252l-0.007-0.23l-0.035-0.177l-0.029-0.1l-0.027-0.084l-0.021-0.115l-0.035-0.153
	l-0.051-0.154l-0.026-0.107l-0.025-0.107l-0.034-0.054l-0.107-0.012l-0.07,0.043l-0.086,0.054l0.125,0.026l-0.026,0.066
	l-0.077,0.062l-0.069-0.007l-0.119-0.146l-0.037-0.092l-0.029-0.062l0.026-0.076l0.016-0.063l0.066-0.045l0.087,0.045l0.059,0.022
	l0.072-0.015l0.057-0.054l0.056-0.117l-0.016-0.1l-0.087-0.045l-0.11,0.023l-0.084-0.007l-0.072-0.108l-0.117-0.106l-0.151-0.061
	l-0.131-0.069l-0.076-0.062l0.027-0.076l0.054-0.093l-0.05-0.115l-0.084-0.091l-0.048-0.077l-0.097-0.114l-0.09,0.039l-0.005,0.107
	l0.054,0.131l-0.029,0.161l-0.048,0.084l-0.002,0.123l-0.125,0.046l-0.091-0.06l-0.066-0.115l-0.064-0.139l-0.06-0.122l-0.019-0.175
	l-0.041-0.109l-0.013-0.145l-0.007-0.154l0.023-0.091l-0.204,0.07l-0.142,0.007l-0.29-0.12l-0.174-0.093l-0.11-0.076l-0.106-0.1
	l-0.099-0.153l-0.08-0.138l-0.031-0.068l0.002-0.001l0.4-0.158l0.524-0.208l0.358-0.145l0.27-0.108l0.712-0.287l0.626-0.256
	l0.017,0.024l0.028,0.146l0.048,0.099l0.127,0.199l0.079,0.139l0.064,0.199l0.025,0.131l0.111,0.137l0.104,0.146l0.061,0.121
	l0.046,0.124l0.044,0.209l0.06,0.122l0.065,0.114l0.078,0.101l0.221,0.113l0.22,0.05l0.188-0.012l0.451-0.052l0.636-0.121
	l0.323-0.069l0.229-0.082l0.238-0.076l0.061-0.009l0.061,0.029l0.095,0.1l0.039,0.132l-0.025,0.218l0.078,0.139l0.074,0.145
	l0.062,0.162l0.142,0.036l0.136-0.143l0.099-0.15l0.064-0.15l-0.007-0.135l0.077-0.123l0.113-0.113l0.05-0.149l0.022-0.196
	l0.029-0.266l-0.036-0.155l-0.037-0.053l-0.076,0.009l-0.049,0.057l-0.057,0.036l-0.055,0.015l-0.044-0.016l-0.037-0.031
	l-0.02-0.045l-0.028-0.055l-0.004-0.064l-0.006-0.047l0.038-0.053l0.068-0.079l0.081-0.081l0.03-0.07l-0.009-0.082l-0.035-0.064
	l-0.1-0.146l-0.109-0.117l-0.133-0.079l-0.233-0.126l-0.2-0.068l-0.178-0.027l-0.142-0.073l-0.113-0.075l-0.022-0.105l0.002-0.085
	l-0.019-0.108l-0.053-0.118l-0.088-0.104l-0.146-0.114l-0.178-0.151l-0.094-0.073l0.08-0.034l0.812-0.344l0.769-0.327l0.702-0.301
	l0.614-0.265l0.502-0.219l0.371-0.162l0.264-0.115l0.143-0.023l0.148,0.021l0.111,0.051l0.221,0.133l0.114,0.039l0.409,0.01
	l0.625-0.112l0.299-0.053l0.301-0.055l0.397-0.059l0.327-0.047l0.329-0.049l0.328-0.048l0.327-0.05l0.322-0.048l0.323-0.049
	l0.321-0.049l0.323-0.049l0.431-0.068l0.075-0.05l0.074-0.049l0.004-0.008l0.154-0.313l0.066-0.132l0.066-0.135l0.065-0.134
	l0.066-0.133l0.105-0.215l0.105-0.215l0.105-0.214l0.105-0.215l0.177-0.344l0.175-0.344l0.177-0.344l0.176-0.346l0.176-0.345
	l0.175-0.347l0.176-0.348l0.175-0.348l0.407-0.5l0.408-0.501l0.407-0.504l0.407-0.505l0.371-0.46l0.372-0.464l0.371-0.464
	l0.372-0.466l0.147-0.186l0.026-0.072l0.026-0.073l0.072-0.475l0.069-0.456l0.071-0.471l0.067-0.462l0.022-0.079l0.022-0.079
	l0.046-0.053l0.046-0.051l0.086-0.029l0.086-0.03l0.689-0.098l0.688-0.099l0.284-0.071l0.281-0.071l0.449-0.242l0.449-0.242
	l0.103-0.036l0.103-0.036l0.752,0.052l0.48,0.033l0.666,0.044l0.572,0.037l0.025-0.03l0.023-0.03l0.109-0.697l0.108-0.698
	l1.015,0.782l1.013,0.78l0.107,0.083l0.107,0.084l0.024,0.043l0.024,0.043l-0.015,0.054l-0.015,0.053l0.022,0.03l0.021,0.031
	l0.128,0.087l0.7,0.477l0.826,0.563l0.025,0.011l0.027,0.011l0.021-0.008l0.021-0.009l0.306-0.452l0.278-0.412l0.277-0.413
	l0.307-0.455l0.008-0.017l0.008-0.015l0.01-0.014l0.011-0.013l0.011-0.011l0.012-0.011l0.01-0.006l0.012-0.007l0.591,0.289
	l0.592,0.29l0.617,0.224l0.618,0.225l0.749,0.249l0.751,0.249l0.148-0.03l0.146-0.028l0.087-0.081l0.055-0.054l0.143-0.137
	l0.278-0.462l0.234-0.39l0.35-0.584l0.256-0.43l0.307-0.513l0.194-0.328l0.312-0.525l0.307-0.518l0.041-0.038l0.039-0.038
	l0.093-0.061l0.09-0.06l0.043-0.035l0.041-0.036l0.021-0.04l0.021-0.041l0.011-0.154l0.011-0.154l0.005-0.067l0.005-0.068
	l0.081,0.016l0.078,0.015l0.006-0.003l0.006-0.003l0.034,0.001l0.034,0.002l0.155-0.027l0.154-0.027l0.054,0.004l0.052,0.005
	l0.097,0.037l0.097,0.037l0.054-0.003l0.055-0.004l-0.001-0.034l-0.001-0.034l0.006-0.032l0.006-0.031l0.02-0.022l0.02-0.023
	l0.038-0.007l0.037-0.006l-0.031-0.059l-0.032-0.058l0.024-0.044l0.023-0.045l0.054,0.021l0.052,0.021l0.005,0.003l0.006,0.002
	l0.018,0.018l0.017,0.018l0.019-0.016l0.018-0.016l0.009-0.003l0.008-0.003l-0.001,0.064l-0.002,0.064l-0.005,0.021l-0.004,0.021
	l0.019-0.012l0.018-0.011l0.018-0.003l0.017-0.003h0.037h0.037l0.063,0.039l0.063,0.04l0.063,0.066l0.063,0.065l0.053,0.074
	l0.054,0.074l0.038,0.067l0.038,0.067l0.015,0.039l0.016,0.041l0.008,0.047l0.008,0.046l0.002,0.046v0.047l-0.019,0.086l-0.02,0.086
	l0.001,0.027l0.003,0.026l0.014,0.017l0.013,0.018l0.017-0.008l0.017-0.008l0.066-0.07l0.066-0.07l0.069-0.042l0.069-0.043
	l0.274-0.087l0.274-0.087l0.178-0.079l0.18-0.079l0.18-0.117l0.343-0.227l0.524-0.344l-0.007-0.014l-0.007-0.014l-0.006-0.037
	l-0.005-0.038l0.022-0.03l0.021-0.03l-0.005-0.024l-0.007-0.024l-0.013-0.023l-0.011-0.023v-0.025l0.003-0.026l0.019-0.021
	l0.019-0.021l0.087-0.06l0.086-0.06l0.044-0.05l0.041-0.05l0.007-0.056l0.007-0.057l-0.021-0.03l-0.022-0.031l-0.043,0.029
	l-0.043,0.028l-0.036-0.089l-0.036-0.092l-0.013-0.012l-0.012-0.014l-0.037,0.002l-0.036,0.002l-0.036-0.003l-0.037-0.003
	l-0.033-0.01l-0.034-0.01l-0.027-0.02l-0.026-0.019l-0.043,0.044l-0.045,0.045l-0.021,0.014l-0.022,0.014l-0.028,0.005l-0.029,0.006
	l-0.05-0.012l-0.052-0.012l-0.203-0.094l-0.201-0.095l-0.029-0.027l-0.03-0.03l-0.003-0.018l-0.005-0.019v-0.018l0.001-0.019
	l-0.018-0.029l-0.017-0.027l-0.021-0.016l-0.02-0.017l-0.054-0.025l-0.055-0.025l-0.024-0.015l-0.023-0.016l0.009-0.006l0.011-0.007
	l0.019-0.015l0.02-0.016l0.011-0.006l0.011-0.006l-0.038-0.053l-0.039-0.055l0.004-0.075l0.005-0.077l0.023-0.107l0.01-0.045
	l0.035-0.152l-0.017-0.067l-0.015-0.065l-0.134-0.184l-0.132-0.183l-0.018-0.086l-0.017-0.088l0.038-0.17l0.038-0.169l-0.041-0.095
	l-0.04-0.095l-0.014-0.043l-0.013-0.044l0.016-0.048l0.016-0.048l0.046-0.092l0.047-0.094l0.017-0.09l0.018-0.09l0.004-0.095
	l0.004-0.094l-0.006-0.051l-0.007-0.052l-0.016-0.032l-0.016-0.032l-0.195-0.161l-0.195-0.16l-0.039-0.021l-0.038-0.02l-0.031-0.011
	l-0.029-0.01l-0.013,0.001l-0.012,0.001l-0.012,0.006l-0.013,0.006l-0.032,0.006l-0.031,0.007l-0.022-0.006l-0.023-0.005
	l-0.009-0.02l-0.011-0.019l-0.001-0.023v-0.024l0.02-0.117l0.022-0.116l0.014-0.044l0.015-0.044l0.037-0.031l0.036-0.03
	l-0.034-0.048l-0.034-0.048l-0.009-0.074l-0.01-0.075l0.011-0.146l0.012-0.145l0.015-0.037l0.016-0.036l0.057-0.049l0.057-0.049
	l0.015-0.032l0.016-0.032l0.007-0.104l0.008-0.104l0.013-0.035l0.012-0.035l0.096-0.109l0.096-0.111l0.004-0.031l0.003-0.031
	l-0.024-0.011l-0.025-0.011l-0.074,0.003l-0.074,0.002l-0.028-0.006l-0.028-0.007l-0.044-0.062l-0.043-0.062l0.001-0.074
	l0.001-0.073l0.042-0.135l0.043-0.135l-0.007-0.289l-0.007-0.289l-0.021-0.091l-0.02-0.092v-0.047l-0.002-0.048l0.109-0.315
	l0.107-0.314l0.138-0.233l0.136-0.234l0.023-0.104l0.023-0.103l-0.024-0.099l-0.022-0.099l-0.018-0.048l-0.019-0.049l-0.002-0.044
	l-0.001-0.044l0.036-0.137l0.028-0.14l-0.011-0.238l-0.012-0.239l-0.022-0.083l-0.021-0.083l-0.125-0.261l-0.125-0.26l-0.009-0.046
	l-0.011-0.045l0.003-0.045l0.003-0.047l0.01-0.045l0.009-0.044l0.004-0.043l0.005-0.043l-0.011-0.041l-0.01-0.042l-0.032-0.039
	l-0.033-0.038l-0.065-0.107l-0.066-0.106l-0.016-0.127l-0.015-0.128l0.037-0.248l0.039-0.248l0.021-0.028l0.022-0.028l0.043-0.027
	l0.042-0.026l0.05-0.017l0.049-0.016l0.038,0.001l0.038,0.002l0.052,0.01l0.05,0.009l0.046-0.018l0.044-0.018l0.038-0.036
	l0.038-0.036l0.032-0.047l0.032-0.048l0.009-0.08l0.011-0.081l-0.045-0.083l-0.044-0.083l-0.064-0.087l-0.063-0.085l-0.049-0.091
	l-0.049-0.093l-0.025-0.092l-0.026-0.09l-0.02-0.04l-0.019-0.041l-0.034-0.041l-0.033-0.042l-0.018-0.049l-0.018-0.048l0.026-0.051
	l0.024-0.05l0.074-0.085l0.073-0.085l0.032-0.085l0.033-0.084l0.009-0.098l0.009-0.098l-0.02-0.195l-0.021-0.195l-0.021-0.131
	l-0.014-0.248l0.056-0.142l0.114-0.108l0.654-0.395l0.107-0.114l0.011-0.011l0.139,0.157l0.009,0.206l-0.1,0.392l0.051,0.796
	l-0.059,0.192l-0.117,0.202l-0.053,0.195l0.13,0.168l0.257,0.162l0.053,0.09l-0.03,0.172l-0.183,0.444l-0.007,0.167l0.07,0.584
	l0.079,0.287l0.152,0.248l0.067,0.169l0.002,0.169l-0.019,0.17l0.027,0.349l-0.037,0.882l0.07,0.16l0.191,0.006l0.151-0.12
	l0.374-0.574l0.001-0.001l0,0l0.003-0.001l0.162-0.115l0.09-0.042l0.1-0.025l0.215-0.014l0.083-0.037l0.043-0.074l0.015-0.028
	l0.031-0.172l0.031-0.663l0.058-0.156l0.083-0.058l0.117-0.028l0.461-0.05l0.116,0.012l0.101,0.046l0.251,0.223l0.084,0.037
	l0.091-0.018l0.027-0.074l0.011-0.102l0.042-0.101l0.071-0.067l0.085-0.051l0.096-0.038l0.098-0.022l0.101-0.044l0.051-0.082
	l0.072-0.197l0.136-0.188l0.085-0.075l0.103-0.056l0.074-0.059l0.101-0.15l0.081-0.043l0.203-0.026l0.072-0.047l-0.068-0.091
	l-0.101-0.044l-0.094-0.025l-0.059-0.046l0.007-0.11l0.06-0.098l0.08-0.018l0.2,0.044l0.087-0.005l0.074-0.029l0.026-0.059
	l-0.065-0.095l-0.058-0.168l0.355-0.18l-0.019-0.133l-0.148-0.111l-0.815-0.399l-0.045-0.059l0.041-0.051l0.262-0.119l0.158-0.148
	l0.051-0.157l-0.04-0.172l-0.179-0.278l-0.123-0.145l-0.082-0.068l-0.093-0.03l-0.188,0.05h-0.098h-0.001l0,0h-0.001l-0.134-0.18
	l-0.024-0.08l0.016-0.11l0.061-0.086l0.088-0.02l0.102,0.025l0.097,0.053l0.218,0.218l0.059,0.028l0.032-0.034l-0.024-0.045
	l-0.042-0.045l-0.016-0.033l0.039-0.037l0.086,0.018l0.035-0.032l-0.008-0.047l-0.095-0.056l-0.006-0.038l0.029-0.029l0.042-0.02
	l0.688-0.134l0.171,0.006l0.165,0.058l0.191,0.117l0.206,0.082l0.099-0.086l0.122-0.362l0.122-0.065l0.107-0.023l0.07-0.056v-0.16
	l-0.021-0.127l-0.005-0.126l0.038-0.11l0.107-0.08l0.112-0.001l0.136,0.047l0.135,0.063l0.261,0.089l0.09,0.048l0.068,0.073
	l0.081,0.117l0.031-0.146l0.062-0.276l0.059-0.166l-0.006-0.043l-0.097-0.113l-0.022-0.04l-0.012-0.104l0.06-0.04l0.217-0.038
	l0.09-0.063l0.088-0.104l0.13-0.215l0.024-0.015l0.024-0.001l0.025,0.01l0.023,0.022l0.105,0.056l0.07-0.059l0.059-0.102
	l0.065-0.068l0.323-0.059l0.184-0.068l0.141-0.133l0.106-0.173l0.227-0.564l0.116-0.144l0.144,0.053l0.071,0.051l0.02-0.058
	l-0.018-0.254l0.032-0.374l0.07-0.047l0.097-0.024l0.092-0.059l0.107-0.255l0.063-0.085l0.023-0.032l0,0l0.104,0.025l0.078,0.202
	l-0.003,0.249l-0.069,0.459l0.012,0.461l-0.084,0.338l-0.02,0.176l0.079,0.168l0.283,0.21l-0.014,0.149l-0.135,0.125l-0.038,0.077
	l0.061,0.074l0.064,0.042l0.057,0.054l0.036,0.071l0.011,0.088l-0.073,0.173l-0.316,0.21l-0.1,0.155l-0.11,0.096l-0.205,0.07
	l-0.173,0.086l-0.015,0.152l0.068,0.055l0.001,0.001l0.172-0.025h0.001l0.082,0.044l0.062,0.069l0.052,0.026v0l0.061-0.016
	l0.201-0.127h0.001l0.047,0.002l0.065,0.002h0.002l0.104,0.062l0.095,0.108l0.056,0.139l-0.032,0.11l-0.093,0.098l-0.246,0.188
	l-0.05,0.052l-0.089,0.198l-0.041,0.046l-0.001-0.001l-0.031-0.043l0.012-0.056l0.031-0.076l0.013-0.071l-0.037-0.042h-0.003
	l-0.045,0.026l-0.045,0.075l-0.016,0.033l-0.087,0.201l-0.021,0.08l-0.011,0.355l0.028,0.065l0.072,0.072l0.099,0.132l0.038,0.164
	l-0.029,0.457l0.053,0.058l0,0l0.085,0.008l0.088-0.056l0.109-0.099l0.032-0.022l0.029-0.02l0.049-0.005l0.036,0.056l-0.017,0.067
	l-0.043,0.063l-0.044,0.042l-0.022,0.031l-0.01,0.027l-0.011,0.057l-0.096,0.165l-0.118,0.152l-0.07,0.162l0.044,0.194l0.106,0.16
	l0.041,0.082l0.019,0.1l-0.002,0.288l-0.015,0.068l-0.076,0.071l-0.083-0.011l-0.189-0.104l-0.108-0.021l-0.135,0.004l-0.093,0.047
	l0.019,0.11l0.075,0.075l0.075,0.053l0.033,0.067l-0.044,0.112l-0.135,0.187l-0.081,0.082l-0.092,0.067l-0.103,0.045l-0.085-0.003
	l-0.076,0.011l-0.146,0.168l-0.172,0.08l-0.05,0.084l-0.058,0.143l-0.04,0.068l-0.052,0.049l-0.066,0.021l-0.066,0.012l-0.051,0.028
	l-0.017,0.071l0.05,0.115l0.084,0.094l0.047,0.105l-0.058,0.144l-0.314,0.474l-0.093,0.275l0.052,0.23l-0.054,0.086l-0.167,0.404
	l-0.161,0.713l-0.083,0.195l-0.104,0.18l-0.191,0.12l-0.237-0.033l-0.244-0.063l-0.213,0.03l-0.083,0.079l-0.035,0.087l-0.021,0.095
	l-0.042,0.101l-0.069,0.08l-0.19,0.174l-0.131-0.151l-0.025,0.001l-0.056,0.018l-0.012,0.005l0.003-0.001l-0.098,0.019l-0.017,0.001
	l-0.025-0.005l-0.101-0.048l-0.055-0.121v-0.169l0.097-0.334l0.008-0.05l-0.023-0.07l-0.091-0.188l-0.018-0.086l0.01-0.073
	l0.018-0.073l0.01-0.08l-0.01-0.077l-0.075-0.241l-0.041-0.364l-0.014-0.093l-0.009-0.084l0.005-0.045l0.023-0.078l-0.011-0.026
	l-0.018-0.019l-0.011-0.026v-0.086l-0.002-0.002l-0.034-0.031l-0.136-0.125l-0.164,0.123l-0.278,0.355l-0.105,0.028l-0.086-0.034
	l-0.037-0.074l0.037-0.091l0.185-0.091l0.068-0.071l-0.08-0.057l-0.06,0.012l-1.131,0.383l-0.167,0.083l-0.021,0.006l-0.021,0.002
	l-0.117,0.042l-0.075,0.026l-0.164,0.156l-0.051,0.183l0.425,0.398l0.102,0.371l-0.011,0.404l-0.091,0.536l0.039,0.562l-0.282,0.889
	l-0.02,0.113l0.006,0.117l0.075,0.284l0.011,0.142l-0.043,0.127l-0.121,0.105l-0.074,0.029l-0.076,0.014l-0.157,0.013l-0.076,0.019
	l-0.124,0.07l-0.068,0.028l-0.315,0.036l-0.134,0.051l-0.096,0.125l-0.074,0.044l-0.08,0.025l-0.071,0.033l-0.057,0.07l-0.048,0.155
	l-0.012,0.084l0.004,0.083l0.047,0.172l0.078,0.133l0.119,0.11l0.166,0.102l0.261,0.115l0.051,0.053l-0.008,0.077l-0.144,0.26
	l-0.01,0.197l0.092,0.058l0.345-0.025l0,0l0.314,0.065l0.107,0.008l0.233-0.01l0.116,0.006l0.118,0.034l0.204,0.163l-0.067,0.144
	l-0.154,0.128l-0.06,0.115l0.146,0.063l0.426-0.165l0.108,0.064l-0.042,0.191l-0.139,0.202l-0.336,0.313l-0.154,0.106l-0.141,0.095
	l-0.074,0.087l-0.351,0.717l-0.024,0.098l-0.023,0.184l-0.053,0.102l-0.191,0.215l-0.053,0.095l-0.098,0.257l-0.072,0.187
	l-0.007,0.116l0.169-0.045l0.218-0.124l0.144-0.115l0.019-0.042l0.472-1.051l0.243-0.122l0.081,0.011l0.079,0.029l0.062,0.046
	l0.034,0.067l-0.05,0.101l-0.236,0.273l-0.032,0.097l0.013,0.21l-0.021,0.062l-0.202,0.007l-0.088,0.038l0.048,0.103l0.048,0.015
	l0.097-0.042l0.044,0.006l0.088,0.065l0.046,0.02l0.059,0.007l0.663-0.106l0.11,0.047l-0.054,0.212l-0.187,0.019l-0.237-0.056
	l-0.211-0.01l-0.107,0.056l0.019,0.049l0.093,0.036l0.125,0.02l0.227,0.01l0.063,0.039l0.054,0.102l-0.001,0.021l-0.021,0.047
	l-0.003,0.018l0.049,0.07l0.007,0.003l0.023,0.014l0.038,0.036l0.011,0.045l-0.061,0.041l-0.224,0.018l-0.088,0.04l0.014,0.203
	l-0.057,0.043l-0.034,0.045l0.069,0.101l0.701,0.482l0.094,0.088l0.052,0.108l0.022,0.151l-0.021,0.232l0.031,0.096l0.037,0.003
	l0.076,0.005h0.001l-0.021,0.1l-0.112,0.285l-0.12,0.212l-0.146,0.192l-0.326,0.268l-0.426,0.596l-1.238,1.183l-0.132,0.186
	l-0.06,0.175l-0.026,0.514l-0.176,0.344l0.013,0.121l0.215,0.096h0.001l0.007,0.023l0.002,0.025l-0.006,0.023l-0.01,0.022
	l-0.081,0.095l-0.037,0.063l0.016,0.063l0.136,0.157l0.16,0.139l0.16,0.106l0.114,0.145l0.126,0.122l-0.01,0.031l-0.034,0.03
	l-0.018,0.05l0.003,0.056l0.006,0.031l0.026,0.028l0.058,0.046l0.195,0.081l0.001,0.001l0.167-0.056l0.481-0.387l0.236-0.319
	l0.164-0.124l0.029-0.007l0.071-0.001l0.036-0.009l0.022-0.024l0.034-0.074l0.024-0.021l0.078-0.003h0.002l0.066,0.031l0.313,0.261
	l0.122,0.048l0.001,0l0.008-0.001l0.106-0.032l0.428-0.47l0.073-0.109l0.122-0.361l0,0l0,0v-0.001v-0.001l0.015-0.068l0.025-0.065
	l0.04-0.057l0.067-0.056l0.039-0.023l0.094-0.03l0.057-0.06l0.026-0.08l0.003-0.094l0.015-0.037l0.021-0.034l0.025-0.032
	l0.029-0.027v-0.001v-0.001h0.002l0.106-0.023l0.355,0.025l0.149-0.017l0.083-0.009l0.118,0.015l0.097,0.065l0.049,0.083
	l0.026,0.087l0.004,0.091l-0.012,0.091l-0.049,0.106l-0.051,0.071l-0.007,0.06l0.087,0.074l0.055,0.016l0.056,0l0.054,0.007
	l0.049,0.034l0.012,0.038l-0.007,0.142l0.046,0.073l0.089,0.04l0.206,0.049l0.097,0.047l0.248,0.171l0.106,0.051l0.08,0.006
	l0.198-0.019l0.085,0.02l0.149,0.079l0.074,0.026h0.091l0.244-0.078l0.344-0.004l0.111-0.032l0.251-0.149l0.478-0.17l0.206-0.017
	l0.188,0.088l0.218,0.229l0.179,0.254l0.101,0.29l0.052,0.102v0.001h0.001v0.001v0.001l0.056,0.077l0.056,0.062l0.035,0.065
	l-0.003,0.062l-0.002,0.029l-0.026,0.073l-0.112,0.206l-0.051,0.15l0.013,0.113l0.337,0.458l0.122,0.248l0.152,0.522l0.027,0.334
	l0.084,0.355l0.141,0.338l0.194,0.286l0.177,0.133l0.413,0.139l0.198,0.104l0.146,0.122l0.119,0.142l0.078,0.161l0.053,0.06
	l-0.097-0.034l-0.095,0.012l-0.09,0.048l-0.078,0.073l-0.1,0.149l-0.043,0.048l-0.053,0.033l-0.122,0.051l-0.048,0.039l-0.027,0.049
	l-0.035,0.091l-0.025,0.046l0.002,0.038l0.027,0.053l0.02,0.059l-0.018,0.052l-0.099,0.034l-0.241-0.039l-0.107,0.067l-0.04,0.098
	l-0.005,0.106l0.022,0.208l-0.005,0.113l-0.021,0.105l-0.042,0.102l-0.063,0.103l-0.055,0.117l-0.024,0.209l-0.049,0.1l-0.098,0.07
	l-0.102,0.003l-0.104-0.023l-0.105-0.008l-0.125,0.04l-0.19,0.14l-0.102,0.053l-0.095-0.005l-0.241-0.056l-0.076,0.024l-0.082,0.07
	l-0.218,0.097l-0.083,0.053l-0.145,0.191l-0.189,0.416l-0.36,0.536l-0.017,0.05l0.003,0.118l-0.018,0.051l-0.082,0.105l-0.044,0.044
	l-0.29,0.199l-0.079,0.088l-0.067,0.106l-0.034,0.092l-0.14,0.054l-0.073-0.061l-0.031-0.108l-0.013-0.118l-0.046-0.121l-0.081-0.03
	l-0.104,0.023l-0.116,0.041l-0.163-0.026l-0.146-0.116l-0.231-0.277l-0.163-0.127l-0.365-0.192l-0.16-0.125l-0.116-0.278
	l-0.092-0.38l-0.144-0.305l-0.116-0.022l-0.154-0.029h-0.002v0.001l-0.179,0.079l-0.164,0.103l-0.145,0.127l-0.22,0.3l-0.119,0.102
	l-0.452,0.291l-0.333,0.05l-0.179,0.052l-0.145,0.093l-0.247,0.212l-0.344,0.13l-0.13,0.077l-0.223,0.232l-0.45,0.282l-0.105,0.123
	l-0.04,0.137l-0.004,0.274l-0.023,0.132l-0.176,0.277l-0.266,0.209l-0.837,0.381l-0.505,0.229l-0.683,0.308l-0.552,0.165
	l-0.773,0.231l-0.327,0.159l-0.58,0.437l-0.6,0.314l-1.163,0.384l-0.397,0.046l-0.211,0.023l-0.114,0.054l-0.07,0.12l-0.086,0.375
	l-0.053,0.108l-0.099,0.098l-0.134,0.075l-0.813,0.332l-0.704,0.287l-0.558,0.226l-0.366,0.081l-0.773,0.051l-0.363,0.094
	l-0.69,0.278l-1.63,0.654l-0.8,0.317l-0.67,0.264l-0.572,0.225l-0.335,0.072l-0.049,0.024l-0.472,0.048l-0.136-0.041l-0.274-0.104
	l-0.1-0.057l-0.076-0.078l-0.051-0.083l-0.059-0.073l-0.096-0.048l-0.287-0.043l-0.093-0.045l-0.109-0.076l-0.09-0.045l-0.095-0.025
	l-0.228-0.027l-0.091-0.033l-0.178-0.114l-0.062,0.007l-0.363,0.182l-0.168,0.133l-0.106,0.039l-0.039-0.002l-0.014-0.001
	l-0.113-0.04l-0.053-0.006l-0.248,0.018l-0.121-0.015l-0.3-0.11l-0.086-0.002l-0.196,0.033l-0.081-0.001l-0.105-0.035l-0.213-0.096
	l-0.418-0.14l-0.107-0.02l-0.012-0.048l-0.071-0.027l-0.29-0.2l-0.09-0.049l-0.088-0.02l-0.563-0.023l-0.114,0.019l-1.071,0.398
	l-0.336,0.213l-0.325,0.274l-0.107,0.117l-0.024,0.101l0.049,0.109l0.114,0.138l-0.021,0.115l0.075,0.158l0.02,0.165l-0.035,0.157
	l-0.095,0.132l-0.153,0.101l-0.482,0.184l-0.047,0.059l-0.121,0.223l-0.051-0.009l-0.043-0.016l-0.019,0.005l0.014,0.043
	l0.034,0.096l0.005,0.038v0.035l-0.27,0.049l-0.229,0.197l-0.48,0.704l-0.189,0.496l-0.15,0.205l-0.117,0.093l-0.135,0.048
	l-0.299,0.058l-0.284,0.1l-0.391,0.207l-0.445,0.233l-0.152,0.03l-0.109-0.049l-0.278-0.284l-0.047-0.077l-0.021-0.085v-0.09
	l0.044-0.183l-0.013-0.084l-0.095-0.024l-0.443,0.005l-0.251-0.033l-0.157-0.075l-0.042-0.167l0.015-0.134l0.07-0.109l0.13-0.098
	l0.151-0.064l0.074-0.045l0.033-0.056l-0.021-0.077l-0.06-0.037l-0.078-0.009l-0.076,0.005l-0.07,0.02l-0.2,0.092l-0.083,0.015
	l-0.079-0.002l-0.16-0.003l-0.146,0.039l-0.379,0.256l-0.126,0.174l-0.054,0.033l-0.083-0.007l-0.047-0.045l-0.01-0.066l0.03-0.07
	v-0.001v-0.001l0.002-0.001l0.082-0.246l-0.161-0.11l-0.239-0.084l-0.156-0.169l0.007-0.081l0.027-0.085l0.006-0.082l-0.056-0.062
	l-0.081,0.001l-0.097,0.044l-0.162,0.106l-0.178,0.043l-0.194-0.006l-0.178,0.024l-0.128,0.137l-0.096,0.158l-0.238,0.264
	l-0.434,0.759l-0.134,0.164l-0.089,0.059l-0.221,0.032l-0.081,0.058l-0.144,0.151l-0.116,0.057l-0.101-0.011l-0.321-0.195
	l-0.098-0.027l-0.1-0.005l-0.345,0.055l-0.102,0.042l-0.055,0.088l-0.033,0.125l-0.05,0.11l-0.068,0.098l-0.132,0.125l-0.264,0.152
	l-0.34,0.073l-1.239,0.109l-0.1,0.045l0.041,0.128l0.287,0.303l0.058,0.157l-0.068,0.158l-0.136,0.154l-0.159,0.135l-0.388,0.239
	l-0.063,0.076l-0.03,0.071l-0.04,0.241l-0.047,0.156l-0.008,0.088l0.032,0.074l0.087,0.041l0.092-0.02l0.475-0.26l0.163-0.049
	l0.208,0.012l0.241,0.059l0.521,0.04l0.234-0.019l0.058-0.012l0.044,0.012l0.021,0.036l-0.009,0.057l-0.133,0.226l-0.052,0.042
	l-0.081-0.004l-0.058-0.049l-0.052-0.069l-0.06-0.067l-0.16-0.077l-0.16,0.002l-0.153,0.05l-0.377,0.206l-0.065,0.06l-0.037,0.064
	l-0.046,0.15l-0.036,0.055l-0.065,0.029l-0.151-0.006l-0.076,0.012l-0.065,0.044l-0.058,0.07l-0.043,0.08l-0.023,0.076l0.012,0.063
	l0.021,0.064l0.019,0.147l-0.034,0.112l-0.002,0.086l0.113,0.064l0.181,0.038l0.063,0.043l0.064,0.099l0.158,0.341l0.009,0.081
	l-0.061,0.148l0.028,0.066l0.077,0.026l0.072-0.007l0.043,0.02l-0.012,0.106l-0.035,0.07l-0.18,0.206l-0.035,0.071l-0.063,0.234
	l-0.044,0.081l-0.176-0.11l-0.115-0.05l-0.111-0.019l-0.109,0.009l-0.114,0.03l-0.212,0.097l-0.118,0.121l-0.036,0.023l-0.051,0.02
	l-0.061,0.012l-0.142-0.005l-0.06,0.012l-0.055,0.043l-0.056,0.084l-0.092,0.22l-0.041,0.186l-0.001,0.135l0.007,0.053l0.099,0.247
	l0.769,1.297l0.046,0.057l0.02,0.02l-0.109,0.372l0.035,0.178l0.142,0.121l0.347,0.178l0.131,0.125l0.1,0.123l0.113,0.102
	l0.176,0.056l0.158,0.018l0.125,0.045l0.115,0.078l0.129,0.112l0.114,0.072l0.136,0.044l0.14,0.018l0.123-0.011l0.065-0.02
	l0.061-0.03l0.161-0.126l0.036-0.01l0.02,0.028l0.008,0.066l-0.012,0.102l-0.055,0.199l0.014,0.114l0.076,0.226l-0.019,0.086
	l-0.382,0.317l-0.297,0.245l-0.604,0.658l-0.097,0.107l-0.56,0.605l-0.503,0.543l-0.438,0.471l-0.83-0.718l-0.832-0.718l-0.83-0.719
	l-0.832-0.718l-0.831-0.719l-0.833-0.72l-0.832-0.72l-0.833-0.72l-0.833-0.721l-0.833-0.721l-0.834-0.721l-0.835-0.722l-0.835-0.723
	l-0.836-0.722l-0.837-0.724l-0.836-0.724h-0.001l0,0l0,0l0,0v-0.001l0,0l0,0l0,0h-0.002v0l0,0l0,0h-0.001v-0.001l0,0l0,0l0,0h-0.001
	v-0.001l0,0l0,0l0,0v-0.001h-0.001h0.001h-0.001v-0.001l0,0l0,0l0,0v-0.001l0,0l0,0v-0.001h-0.001h0.001v-0.001l0,0h-0.001v-0.001
	l0,0h0.001h-0.001v-0.001l0,0v-0.001h0.001l0,0v-0.001l0,0l0,0l0,0v-0.001l0,0l0,0v0l0,0l0,0v-0.001h0.001l0.141-0.342l0.141-0.341
	l0.141-0.342l0.141-0.345l0.14-0.343l0.141-0.345l0.139-0.343l0.109-0.27l0.029-0.076l0.14-0.345l0.138-0.346l0.139-0.346
	l0.138-0.347l0.138-0.348l0.139-0.347l0.137-0.348l0.136-0.349l0.188-0.461l0.187-0.461l0.187-0.462l0.186-0.464l0.088-0.214
	l0.086-0.213l0.087-0.213l0.088-0.215l0.092-0.221l0.091-0.222l0.092-0.223l0.092-0.222l0.123-0.299l0.06-0.066l0.095-0.059
	l0.036-0.013l0.005,0.008l0.073,0.139l0.061,0.068l0.031,0.048l0.047,0.103l0.034,0.047l0.11,0.086l0.02,0.033v0.02l-0.008,0.036
	v0.019l0.008,0.019l0.047,0.09l0.05,0.213l0.014,0.035l0.006,0.018l0.002,0.054l0.066,0.284l0.018,0.035l0.023,0.033l0.087,0.085
	l0.074,0.124l0.048,0.102l0.045,0.063l0.11,0.117l0.047,0.065l0.04,0.073l0.029,0.076l0.008,0.037l0.007,0.079l0.009,0.038
	l0.018,0.034l0.021,0.027l0.052,0.053l0.042,0.056l0.284,0.563l0.147,0.169l0.104,0.099l0.113,0.088l0.213,0.067l0.191,0.053
	l0.187,0.012l0.202,0.083l0.085,0.081l0.049,0.067l0.033,0.07l-0.013,0.094l0.036,0.156l0.051,0.063l0.019,0.056l0.022,0.037
	l0.028,0.032l0.154,0.093l0.192,0.072l0.122-0.025L1186.758,467.737z M1231.719,433.09l0.061-0.077l-0.083-0.037l-0.141-0.007
	l-0.109,0.015l-0.124,0.059l-0.104,0.096l-0.021,0.078l0.121,0.003l0.006-0.002l0.097-0.038l0.205-0.048L1231.719,433.09z"/></svg>