<?xml version="1.0" encoding="utf-8"?>
<!-- Generator: Adobe Illustrator 15.0.0, SVG Export Plug-In . SVG Version: 6.00 Build 0)  -->
<!DOCTYPE svg PUBLIC "-//W3C//DTD SVG 1.1//EN" "http://www.w3.org/Graphics/SVG/1.1/DTD/svg11.dtd">
<svg version="1.1" id="Ebene_1" xmlns="http://www.w3.org/2000/svg" xmlns:xlink="http://www.w3.org/1999/xlink" x="0px" y="0px"
	 width="1920px" height="1080px" viewBox="0 0 1920 1080" enable-background="new 0 0 1920 1080" xml:space="preserve">

<path fill="#F4E0B6" stroke="#FFFFFF" d="M1077.601,680.148l0.19,0.59l0.189,0.592l0.19,0.591l0.191,0.593l0.003,0.01l0.187,0.582
	l0.191,0.594l0.191,0.595l0.191,0.595l0.191,0.599l0.084,0.26l0.107,0.337l0.193,0.6l0.191,0.598l0.193,0.601l0.193,0.6l0.194,0.603
	l0.193,0.604l0.1,0.307l0.165,0.513l-0.045,0.073l-0.047,0.022l-0.029,0.032l0.001,0.097l0.022,0.091l0.177,0.471l-0.003,0.061
	l-0.026,0.124l0.002,0.048l0.1,0.31l0.213,0.657l0.136,0.423l0.176,0.544l0.001,0.131l-0.043,0.092l-0.162,0.193l-0.077,0.133
	l-0.055,0.136l-0.031,0.143l-0.07,1.23l0.024,0.146l0.062,0.129l0.102,0.121l0.006,0.006l0.005,0.005l0.002,0.007l0.002,0.008
	l0.011,0.029l0.002,0.018v0.015l-0.173,0.396l-0.033,0.145v0.105l0.112,0.505l0.024,0.209l-0.011,0.171l-0.003,0.035l-0.067,0.199
	l-0.14,0.175l-0.336,0.234l-0.136,0.17l-0.224,0.579l-0.317,0.437l-0.003,0.156l0.137,0.6l-0.089,0.018l-0.028,0.003l-0.496,0.122
	l-0.906,0.224l-0.575,0.144l-0.18,0.084l-0.067,0.052l-0.025,0.039l0.004,0.056l0.019,0.099l0.057,0.186l-0.005,0.079l-0.225,0.109
	l-0.438,0.213l-0.44,0.213l-0.439,0.213l-0.441,0.213l-0.439,0.213l-0.442,0.213l-0.44,0.211l-0.443,0.213l-0.443,0.213
	l-0.444,0.213l-0.444,0.215l-0.445,0.213l-0.445,0.213l-0.446,0.213l-0.447,0.214l-0.447,0.213l-0.342,0.163l-0.146,0.11
	l-0.104,0.138l-0.229,0.453l-0.271,0.54l-0.222,0.442l-0.286,0.567l-0.099,0.11l-0.121,0.086l-0.718,0.34l-0.123,0.116l-0.12,0.115
	l-0.121,0.091l-0.064,0.035l-0.814,0.038l-0.147,0.072l-0.276,0.248l-0.143,0.101l-0.162,0.07l-0.676,0.101l-0.023,0.071
	l0.033,0.131l0.098,0.251l-1.327,0.071v0.001l-0.716-0.008l-0.358,0.059l-0.285,0.185l-0.249,0.325l-0.152,0.157l-0.137,0.056
	l-0.065-0.046l-0.194-0.272l-0.05-0.004l-0.156,0.067l-1.06,0.458l-0.148,0.115l-0.072,0.107l-0.045,0.067l-0.188,0.388v0.002
	l-0.766,1.377l0,0l-0.143,0.188l-0.164,0.164l-0.874,0.645l-0.183,0.193l-1.416,1.906l-0.328,0.217l-0.344,0.168l-0.415,0.139
	l-0.235,0.112l-0.133,0.135l-0.005,0.159l0.233,1.379l-0.006,0.065l-0.034,0.055l-0.216,0.223l-0.086,0.089l-0.074,0.044l-0.17,0.03
	l-1.313-0.099l-0.402,0.073l-0.257,0.188l-0.35,0.423l-0.088,0.15l-0.204,0.46l-0.063,0.139l-0.644,0.76l-0.079,0.29l0.027-0.019
	l0.017,0.003l0.011,0.01l0.011,0.006l-0.031,0.801l-0.054,0.198l-0.032,0.246l0.093,0.288l0.264,0.466l-0.162,0.148l-0.159,0.146
	l-0.036,0.022l-0.039-0.001l-0.043-0.012l-0.046,0.003l-0.127,0.039l-0.037,0.028l-0.053,0.059l-0.064,0.144l-0.054,0.046
	l-0.055-0.07l-0.034-0.075l-0.037-0.042l-0.11-0.054l-0.147-0.026l-0.106,0.049l-0.104,0.073l-0.146,0.045l-0.271-0.089
	l-0.147,0.007l-0.078,0.151l0.126,0.042l0.064,0.121l0.049,0.319l0.003,0.145l-0.029,0.237l0.498,1.324l-0.061,0.079l-0.831,0.416
	l-0.103,0.098l0.017,0.166l0.104,0.171l0.029,0.1l-0.031,0.112l-0.059,0.045l-0.066,0.017l-0.226,0.058l-0.115,0.052l-0.035,0.008
	l-0.053-0.013l-0.104-0.059l-0.037,0.002l-0.066,0.04l-0.039,0.005l-0.501-0.174l-0.271-0.051l-0.458-0.167l-0.104-0.003
	l-0.227,0.03h-0.195l-0.089,0.018l-0.1,0.054l-0.104,0.04l-0.127,0.018l-0.077-0.027l0.05-0.095l0.04-0.047l0.082-0.15l0.035-0.034
	l0.048-0.029l0.03-0.036l-0.01-0.063l-0.031-0.003l-0.13,0.028l-0.049-0.001l-0.025-0.03l-0.051-0.101l-0.007-0.006l-0.034-0.027
	l-0.022-0.009l-0.021,0.004l-0.016,0.012l-0.014,0.025l-0.052,0.117l0.036,0.012l0.067-0.022l0.047,0.013l-0.015,0.064l-0.056,0.094
	l-0.067,0.088l-0.051,0.045l-0.059,0.051l-0.058,0.13l-0.04,0.052l-0.131,0.099l-0.038,0.04l-0.068,0.125l-0.032,0.126l-0.037,0.269
	l-0.052,0.171l-0.073,0.165l-0.049,0.057l-0.051,0.019l-0.052,0.011l-0.048,0.03l-0.067,0.092l-0.074,0.132l-0.056,0.133
	l-0.006,0.097l0.048,0.037l0.125,0.021l0.022,0.043l-0.026,0.067l-0.056,0.043l-0.339,0.125l-0.079,0.077l-0.025,0.219l-0.022,0.06
	l-0.017,0.063l0.014,0.069l0.041,0.039l0.185,0.086l0.21,0.271l0.088,0.068l0.183,0.074l0.125,0.091l0.076,0.142l0.052,0.332
	l0.123,0.232l0.008,0.071l-0.029,0.419l-0.037,0.094l-0.007,0.01l-0.055,0.073l-0.089,0.078l-0.107,0.062l-0.076,0.009l-0.171-0.032
	l-0.163,0.031l-0.172,0.089l-0.165,0.121l-0.14,0.131l0,0l-0.054,0.032l-0.038,0.006l-0.016,0.024l0.031,0.313l0.066,0.075
	l0.27,0.092l0.108,0.056l0.169,0.223l0.062,0.055l0.032,0.008l0.007,0.021l-0.019,0.094l-0.051,0.141l-0.079,0.149l-0.064,0.154
	l-0.013,0.158l0.297,0.41l0.102,0.229l-0.15,0.101l-0.058-0.023l-0.055-0.045l-0.062-0.023l-0.077,0.039l-0.05,0.063l-0.006,0.047
	l0.012,0.046l0.001,0.1l0.022,0.06l0.001,0.04l-0.015,0.032l-0.382,0.619l0.192,0.221l-0.039,0.084l-0.158,0.077l-0.166,0.2
	l-0.033,0.139l0.01,0.099l-0.01,0.069l-0.002,0.018l-0.095,0.101l-0.053,0.028l-0.112,0.032l-0.053,0.039l-0.046,0.075l-0.022,0.093
	l-0.021,0.087l-0.029,0.077l-0.067,0.084l-0.145,0.092l-0.087,0.073l-0.123-0.051l-0.113,0.047l-0.21,0.188l-0.111,0.048
	l-0.121,0.021l-0.118,0.038l-0.105,0.103l-0.039,0.066l-0.046,0.054l-0.054,0.041l-0.062,0.022l-0.097,0.054l-0.213,0.085
	l-0.081,0.043l-0.071,0.073l-0.154,0.191l-0.155,0.129l-0.065,0.109l-0.108,0.236l-0.172,0.274l-0.076,0.209l-0.029,0.051
	l-0.039,0.022l-0.033-0.003l-0.034-0.012l-0.04-0.002l-0.034,0.017l-0.021,0.029l-0.016,0.029l-0.021,0.021l-0.182,0.115
	l-0.014,0.021l-0.032,0.064l-0.027,0.022h-0.032l-0.077-0.021l-0.026,0.001l-0.072,0.043l-0.031,0.027l0.006,0.028l0.047,0.053
	l0.033-0.001l0.158,0.028l0.026,0.015l0.09-0.062l0.047-0.015l0.061-0.008l0.115,0.005l0.097,0.021l0.081,0.054l0.065,0.101
	l0.025,0.103l0.016,0.134v0.253l-0.019,0.074l-0.027,0.079l-0.018,0.079l0.015,0.065l0.055,0.049l0.052-0.01l0.053-0.032
	l0.063-0.016l0.227,0.083l0.092,0.188l0.101,0.493l0.058,0.123l0.02,0.076l-0.034,0.07l-0.104,0.114l-0.067,0.113l-0.003,0.119
	l0.164,0.608l0.01,0.101l-0.044,0.154l-0.134,0.264l-0.023,0.162l0.016,0.259l-0.038,0.108l-0.112,0.146l-0.082,0.082l-0.088,0.073
	l-0.529,0.315l-0.067,0.092l0.001,0.103l0.021,0.049l0.116,0.289l-0.004,0.172l0.118-0.087l0.107,0.135l0.186,0.377l0.092,0.1
	l0.034,0.064l-0.007,0.384l0.012,0.049l0.005,0.064l-0.03,0.043l-0.041,0.045l-0.027,0.061l-0.011,0.103l0.013,0.349l0.013,0.053
	l0.048,0.089l0.017,0.047l0.091-0.001l-0.043,0.078l-0.02,0.115l0.013,0.095l0.05,0.024l0.028,0.05l-0.012,0.354l-0.085,0.277
	l-0.012,0.06l0.016,0.332l-0.012,0.101l-0.162,0.006l-0.138-0.032l-0.075,0.004l-0.053,0.026l-0.146,0.11l-0.301,0.171l-0.68,0.49
	l-0.353,0.408l-0.072,0.104l-0.045,0.132l-0.001,0.123l0.088,0.325l-0.055,0.084l-0.278,0.016l-0.054,0.086l0.011,0.163l-0.015,0.15
	l-0.042,0.146l-0.084,0.16l-0.498,0.227l-0.454,0.025l-0.086-0.018l-0.137-0.097l-0.069-0.019l-0.082,0.058l-0.062-0.22v-0.092
	l0.052-0.114l0.017,0.004l0.03,0.014l0.042-0.001l0.042-0.039l0.006-0.038l-0.016-0.036l-0.021-0.031l-0.007-0.02l0.104-0.229
	l-0.097-0.036l-0.004-0.122l0.049-0.229l-0.114-0.075l-0.029-0.052l0.001-0.058l0.039-0.138l0.002-0.04l-0.037-0.051l-0.036-0.007
	l-0.045,0.022l-0.062,0.039l-0.04,0.005l-0.039-0.022l-0.038-0.03l-0.035-0.018l-0.051,0.016l-0.045,0.033l-0.031-0.003
	l-0.016-0.094l0.017-0.062l0.085-0.135l0.026-0.067l-0.005-0.077l-0.03-0.066l-0.049-0.072l0.034-0.072l0.055-0.059l0.05-0.061
	l0.015-0.087l-0.027-0.039l-0.059-0.024l-0.068-0.01l-0.113,0.006l-0.024-0.042l-0.021-0.266l-0.023-0.082l-0.063-0.011l-0.131,0.08
	l-0.119,0.12l-0.09,0.123l-0.099,0.104l-0.146,0.06l-0.117,0.03l-0.121,0.061l-0.086,0.094l-0.019,0.129l0.035,0.246l0.044,0.072
	l0.074,0.015l0.076,0.006l0.052,0.041l0.008,0.151l-0.091,0.124l-0.133,0.089l-0.117,0.043l-0.318,0.068l-0.097,0.007l-0.252-0.031
	l-0.132-0.034l-0.1-0.048l-0.153-0.162l-0.083-0.019l-0.116,0.099l0.011,0.017l-0.053,0.181l-0.011,0.011l-0.007,0.128l0.011,0.119
	l0.02,0.048l0.027,0.033l0.025,0.044l0.024,0.294l-0.02,0.224l0.03,0.102l0.094,0.089l0.046,0.006l0.066-0.007l0.064,0.001
	l0.043,0.029l0.012,0.069l-0.02,0.067l-0.027,0.064l-0.017,0.056l0.013,0.211l0.002,0.031l-0.034,0.096l-0.121,0.104l-0.128,0.04
	l-0.238-0.042l-0.13,0.012l-0.122,0.068l-0.302,0.315l-0.106,0.065l-0.329,0.097l-0.124,0.08l-0.054,0.107l-0.046,0.558l0.028,0.079
	l0.069,0.029l0.084,0.02l0.066,0.043l0.042,0.154l-0.046,0.164l-0.102,0.148l-0.123,0.11l-0.141,0.068l-0.118-0.055l-0.111-0.104
	l-0.113-0.078l-0.107-0.019l-0.591,0.077l-0.466,0.126l-0.361,0.151l-0.099,0.015l-0.062-0.057l-0.031-0.149l-0.009-0.271
	l-0.052-0.082l-0.132,0.048l-0.144,0.132l-0.05,0.038l-0.075,0.03l-0.015-0.035l0.004-0.066l-0.019-0.064l-0.127-0.134l-0.034-0.052
	l-0.014-0.055l-0.007-0.067l-0.018-0.071l-0.044-0.058l-0.059-0.036l-0.063-0.013l-0.068,0.015l-0.081,0.04l-0.104,0.249
	l-0.036,0.066l-0.048,0.042l-0.104,0.043l-0.057,0.032l-0.137,0.045l-0.229-0.046l-0.115,0.073l-0.023,0.066l-0.01,0.089
	l-0.018,0.078l-0.048,0.041l-0.07,0.021l-0.048,0.035l-0.067,0.105l0.008,0.043l-0.024,0.021l-0.048,0.053l0.085,0.062l-0.048,0.134
	l-0.113,0.139l-0.111,0.076l0.094,0.074l-0.047,0.157l0.005,0.097l-0.024,0.064l-0.037,0.048l-0.032,0.052l-0.009,0.078
	l-0.014,0.058l-0.106,0.252l-0.047,0.074l-0.044,0.061l-0.054,0.048l-0.145,0.088l-0.048,0.062l-0.092,0.146l-0.096,0.1l-0.114,0.09
	l-0.121,0.056l-0.116,0.005l0.074-0.361l0.007-0.161l-0.039-0.159l-0.062-0.129l-0.088-0.133l-0.106-0.097l-0.125-0.021
	l-0.317,0.122l-0.156,0.034l-0.127-0.034l-0.045-0.069l-0.034-0.164l-0.032-0.068l-0.075-0.074l-0.04,0.002l-0.044,0.055
	l-0.083,0.079l-0.129,0.087l-0.126,0.052l-0.116-0.013l-0.193-0.23l-0.221-0.186l-0.092-0.139l-0.294-1.214l-0.044-0.101
	l-0.163,0.002l-0.009-0.136l0.064-0.404l0.034-0.066l0.024-0.072l-0.007-0.122l-0.114-0.648l-0.057-0.126l-0.113-0.106l-0.14-0.069
	l-0.138-0.015l-0.07,0.03l-0.102,0.115l-0.055,0.033l-0.114,0.006l-0.055,0.014l-0.058,0.044l-0.117,0.055l-0.123,0.01l-0.098,0.04
	l-0.095,0.405l-0.043,0.12l-0.092,0.122l-0.089,0.071l-0.101,0.058l-0.105,0.042l-0.102,0.025l-0.112,0.062l-0.092,0.1l-0.086,0.068
	l-0.101-0.028l-0.042-0.087l0.004-0.121l0.032-0.125l0.039-0.103l0.224-0.406l0.041-0.152l-0.008-0.073l-0.024-0.055l-0.007-0.062
	l0.04-0.099l0.045-0.041l0.117-0.052l0.046-0.052l0.035-0.119l-0.003-0.238l0.053-0.139l0.038-0.046l0.109-0.105l0.043-0.055
	l0.02-0.017l0.057-0.029l0.018-0.022l0.003-0.049l-0.02-0.034l-0.022-0.022l-0.008-0.022l0.038-0.165l0.047-0.068l0.232-0.041
	l0.104-0.03l0.116-0.058l0.1-0.084l0.055-0.11l0.006-0.177l-0.063-0.005l-0.102,0.064l-0.111,0.025l-0.062-0.074l0.057-0.111
	l0.109-0.109l0.1-0.074l-0.146-0.06l-0.189-0.015l-0.366,0.036l-0.16,0.063h-0.072l-0.061-0.071l-0.041-0.104l-0.047-0.122
	l-0.045-0.064l-0.129,0.188l-0.158,0.055l-0.34-0.02l-0.078-0.062l-0.084-0.093l-0.067-0.104l-0.037-0.105l-0.199-0.396
	l-0.088-0.025l-0.077,0.055l-0.087,0.086l-0.116,0.068l-0.11,0.006l-0.105-0.021l-0.105-0.005l-0.106,0.053l0.042-1.715
	l-0.017-0.071l-0.04-0.049l-0.048-0.043l-0.04-0.057l-0.029-0.13l-0.013-0.119l-0.042-0.094l-0.119-0.055l-0.123,0.028l-0.131,0.071
	l-0.129,0.046l-0.119-0.049l-0.043-0.108l0.004-0.146l0.049-0.28l-0.018-0.141l-0.064-0.118l-0.094-0.077l-0.095-0.017l-0.106,0.095
	l-0.069,0.032l-0.054-0.053l-0.028-0.054l-0.071-0.076l-0.029-0.054l-0.015-0.167l0.041-0.155l0.058-0.155l0.03-0.158l-0.03-0.133
	l-0.086-0.112l-0.121-0.074l-0.213-0.026l-0.747-0.092l-0.258,0.016l-0.457,0.081l-0.075,0.037l-0.037,0.056l-0.04,0.046
	l-0.088,0.002l-0.084-0.016l-0.034,0.007l-0.039,0.023l-0.086,0.114l-0.265,0.184l-0.066,0.144l0.04,0.052l0.1,0.072l0.121,0.062
	l0.175,0.026l0.022,0.039l0.01,0.055l0.037,0.048l0.047,0.008l0.102-0.018l0.037,0.018l0.017,0.077l-0.008,0.129l-0.037,0.121
	l-0.073,0.053l0.04,0.142l-0.018,0.093l-0.114,0.2l-0.366,0.082l-0.099,0.057l-0.221,0.217l-0.085,0.107l-0.099,0.159l-0.626,0.503
	l-0.168,0.204l-0.074,0.136l-0.028,0.115l0.008,0.109l0.03,0.126l-0.016,0.091l-0.059,0.139l-0.119,0.22l-0.327,0.128l-0.111,0.007
	l-0.065-0.015l-0.107-0.037l-0.067-0.002l-0.041,0.019l-0.117,0.068l-0.058,0.022l-0.112-0.008l-0.228-0.089l-0.113,0.013
	l-0.121,0.028l-0.223-0.029l-0.118,0.01l-0.077-0.007l-0.134-0.05l-0.077-0.01l-0.062,0.01l-0.101,0.035l-0.021,0.003l-0.042,0.004
	l-0.052-0.013l-0.091-0.04l-0.062-0.003l-0.044,0.011l-0.144,0.064l-0.119,0.025l-0.223-0.018l-0.201,0.039l-0.042-0.024
	l-0.035-0.029l-0.051-0.007l-0.213,0.188l-0.025,0.09l-0.016,0.006l-0.022-0.029l-0.046-0.016l-0.011,0.02l-0.018,0.07l-0.051,0.055
	l-0.055,0.025l-0.03,0.039l0.017,0.089l-0.093,0.005l-0.042-0.006l-0.043-0.019l-0.072,0.087l-0.18,0.264l-0.035,0.068l-0.047,0.116
	l-0.287,0.093l-0.104,0.085l0.002,0.064l0.066,0.108l-0.018,0.032l-0.052,0.049l0.005,0.063l0.026,0.06l0.004,0.048l-0.108,0.139
	l-0.112,0.109l-0.056,0.105l0.061,0.123l-0.089,0.068l-0.114,0.119l-0.099,0.122l-0.039,0.084l-0.011,0.097l-0.037,0.14
	l-0.053,0.136l-0.051,0.086l-0.084,0.081l-0.248,0.113l-0.198-0.119l-0.31-0.388l-0.183-0.105l-0.037-0.056l0.002-0.055l0.045-0.139
	l0.008-0.063l-0.063-0.162l-0.119-0.049l-0.149-0.012l-0.154-0.053l-0.293-0.296l-0.119-0.037l-0.151,0.018l-0.119,0.055
	l-0.252,0.196l-0.14,0.052l-0.08,0.051l-0.037,0.084l-0.044,0.307l-0.06,0.112l-0.177,0.226l-0.004,0.01l-0.023,0.046l-0.068,0.177
	l-0.045,0.045l-0.052,0.022l-0.038,0.039l-0.015,0.2l-0.049,0.151l-0.078,0.133l-0.093,0.067l-0.099,0.046l-0.185,0.164
	l-0.118,0.048l-0.126,0.005l-0.133-0.015l-0.129-0.035l-0.112-0.051l-0.289-0.245l-0.12-0.048l-0.394-0.021l-0.128-0.061
	l-0.142-0.217l0.074-0.229l0.151-0.258l0.082-0.3l-0.02-0.148l-0.07-0.238l0.008-0.153l0.089-0.093l0.147-0.052l0.112-0.063
	l-0.015-0.124l-0.009-0.176l0.021-0.186l-0.006-0.156l-0.091-0.079l-0.009,0.042l-0.038,0.098l-0.018-0.053l-0.052-0.09l-0.02-0.049
	l-0.051-0.087l-0.044,0.037l-0.025,0.083l0.009,0.045l-0.055-0.025l-0.086-0.1l-0.047-0.011l-0.07,0.003l0.039-0.06l0.118-0.11
	l0.006-0.08l-0.013-0.042l-0.02-0.039l-0.014-0.065l0.007-0.215l-0.009-0.065l-0.038-0.055l-0.052-0.016l-0.048,0.001l-0.024-0.007
	l-0.018-0.092l0.031-0.062l0.043-0.054l0.044-0.194l0.077-0.058l0.081-0.049l0.04-0.103l-0.02-0.056l-0.077-0.093l-0.004-0.029
	l0.037-0.062l0.004-0.076l-0.014-0.072l-0.021-0.061l-0.026-0.046l-0.031-0.035l-0.025-0.021l-0.01-0.003h-0.015l-0.029,0.009
	l-0.025-0.006l-0.008-0.037l0.01-0.043l0.016-0.033l0.007-0.031l-0.032-0.096l0.015-0.074l0.025-0.079l0.018-0.075l-0.018-0.028
	l-0.037-0.02l-0.035-0.022v-0.041l0.037-0.037l0.045-0.002l0.04,0.006l0.027-0.01l0.047-0.065l0.036-0.04l0.016-0.046l-0.033-0.159
	l-0.022-0.067l-0.036-0.054l-0.058-0.036l-0.002,0.116l-0.034,0.091l-0.066,0.058l-0.097,0.019l0.01-0.07l-0.001-0.129l-0.006-0.056
	l0.017-0.034l0.03-0.039l0.007-0.031l-0.057-0.005l-0.025-0.01l-0.029-0.031l-0.043-0.065l-0.099-0.09l0.009-0.042l0.028-0.062
	v-0.047l-0.066-0.001l-0.101,0.013l-0.083-0.019l-0.078-0.027l-0.089-0.019l-0.11,0.017l-0.042-0.091l-0.029-0.22l-0.066-0.063
	l-0.08-0.039l-0.067-0.056l-0.031-0.105l0.015-0.078l0.063-0.145l0.002-0.073l-0.034-0.052l-0.151-0.069l-0.174-0.154l-0.059-0.105
	l-0.016-0.139l-0.042,0.038l-0.072,0.051l-0.068,0.018l-0.023-0.058l-0.002-0.092l-0.031-0.017l-0.151,0.064l-0.115,0.071
	l-0.059,0.014l-0.065-0.025l-0.042-0.048l-0.049-0.033l-0.088,0.021l-0.086,0.086l-0.05,0.129l-0.021,0.144l-0.001,0.13
	l-0.231,0.296l-0.028,0.049l-0.035,0.009l-0.079-0.032l-0.032-0.034l-0.052-0.107l-0.03-0.039l-0.05-0.016l-0.17-0.02l-0.055,0.007
	l-0.023-0.064l0.049-0.376v-0.116l-0.051-0.057l-0.052-0.003l-0.057,0.014l-0.067-0.007l-0.039-0.028l-0.064-0.072l-0.044-0.029
	l-0.38-0.127l-0.126-0.085l-0.159-0.162l-0.101-0.2l-0.153-0.198l-0.095-0.094l-0.092-0.04l0.483-0.495l0.178-0.29l0.064-0.317
	l0.008-0.271l-0.015-0.129l-0.051-0.104l-0.12-0.09l-0.123-0.045l-0.108-0.061l-0.079-0.141l-0.029-0.261l0.081-0.534l0.016-0.271
	l-0.029-0.133l-0.282-0.444l-0.069-0.07l-0.092-0.024l-0.247,0.001l-0.081-0.035l-0.066-0.056l-0.059-0.067l0.085-0.066l0.018-0.088
	l-0.051-0.067l-0.586,0.002l-0.079,0.014l-0.02-0.277l-0.028-0.12l-0.103-0.248l-0.027-0.125l0.024-0.122l0.106-0.111l0.039-0.057
	l0.009-0.074l-0.002-0.078l0.005-0.068l0.037-0.082l0.105-0.159l0.026-0.065l-0.006-0.107l-0.05-0.021l-0.063,0.009l-0.046-0.021
	l-0.021-0.062l0.005-0.046l0.022-0.055l0.025-0.089l-0.067,0.022l-0.1,0.016l-0.097-0.007l-0.053-0.055l-0.047-0.071l-0.131-0.063
	l-0.066-0.165l0.109,0.01l0.135-0.026l0.127-0.064l0.25-0.188l0.124-0.07l0.097,0.016l0.278,0.133l0.07,0.011l0.041-0.092
	l0.021-0.109l0.04-0.049l0.114-0.015l0.12-0.045l0.112-0.075l0.097-0.112l0.119-0.249l0.077-0.106l0.234-0.142l0.102-0.1
	l0.079-0.109l0.038-0.101l0.017-0.064l0.025-0.054l0.026-0.044l0.018-0.034l0.022-0.02l0.041-0.028l0.031-0.033l-0.005-0.039
	l-0.048-0.041l-0.02-0.023l-0.01-0.036l0.005-0.233l0.018-0.121l0.033-0.114l0,0v-0.116l-0.026-0.082l-0.052-0.052l-0.076-0.032
	l-0.038,0.014l-0.027,0.041l-0.037,0.027l-0.063-0.021l0.006-0.035l-0.007-0.191l0.04-0.273l-0.002-0.064l-0.028-0.08l-0.012-0.055
	v-0.136l0.073-0.368l0.001-0.305l0.013-0.107l0.148-0.499l0.042-0.472l0.054-0.222l0.13-0.22l0.006-0.071l-0.023-0.209l0.15-0.032
	l0.025-0.004l0.164-0.007l0.158-0.045l0.161-0.152l0.183-0.3l0.091-0.093l0.15-0.104l0.065-0.058l0.043-0.078l0.011-0.035v-0.032
	l-0.008-0.029l-0.017-0.025l-0.026-0.006l-0.022-0.008l-0.017-0.015l-0.014-0.021l0.016-0.013l0.053-0.025l0.343-0.052l0.145,0.009
	l0.163,0.074l0.639,0.592l0.124,0.086l1.612,0.553l0.212,0.115l0.201,0.256l0.243,0.135l0.229,0.228l0.039-0.122l0.046-0.379
	l0.036-0.116l0.138-0.208l0.052-0.126l0.027-0.244l0.029-0.115l0.081-0.127l0.061-0.046l0.058-0.021l0.048-0.028l0.051-0.121
	l0.086-0.089l0.039-0.063l0.029-0.144l-0.04-0.246l0.007-0.123l0.057-0.087l0.092-0.038l0.354-0.075l0.241-0.087l0.112-0.06
	l0.014-0.011l0.182-0.138l0.095-0.05l0.114-0.017l0.084-0.05l0.587-0.207l0.163-0.028l0.272-0.123l0.081-0.018l0.517,0.015
	l0.05-0.018l0.103-0.06l0.045-0.014l0.123,0.014l0.227,0.058l0.139-0.01l0.232-0.08l0.648-0.346l0.666-0.187l0.208-0.136
	l0.294-0.313l0.105-0.092l0.267-0.161l1.391-0.584l-0.115-0.302v-0.001l-0.146-0.339l-0.024-0.173l0.06-0.186l0.28-0.547l0.098-0.11
	l0.145,0.01l0.045,0.184l-0.017,0.43l0.046,0.551l0.971-0.366l0.192-0.072l0.685-0.26l0.086-0.031l0.512-0.193l0.377-0.144
	l0.411-0.155l0.443-0.168l0.473-0.18l0.738-0.28l0.787-0.3l0.83-0.316l0.864-0.332l0.891-0.342l0.911-0.349l0.922-0.354l0.926-0.358
	l0.923-0.355l0.912-0.354l0.896-0.348l0.872-0.34l0.84-0.328l0.802-0.313l0.236-0.093l0.521-0.203l0.706-0.277l0.406-0.158
	l0.382-0.151l0.357-0.14l0.33-0.131l0.702-0.278l0.821-0.323l0.002-0.002h0.003l0,0h0.003h0.002h0.001h0.001h0.003h0.001h0.001
	h0.001l0.002-0.001l0,0l0.001-0.002h0.002h0.001h0.001v-0.001l0.001-0.002v-0.001l0,0h0.001v-0.001v-0.002v-0.001l0,0v-0.002v-0.001
	l-0.001-0.002l0,0v-0.001v-0.001v-0.03l-0.001-0.029v-0.007l-0.001-0.023v-0.028l-0.012-0.581l-0.008-0.58l-0.011-0.578
	l-0.009-0.579l-0.011-0.562l-0.009-0.561l-0.011-0.561l-0.011-0.559l-0.004-0.174l-0.012-0.033l-0.012-0.033l-0.031-0.019
	l-0.029-0.019l-0.236-0.067l-0.242-0.068l-0.231-0.065l-0.263-0.076l-0.216-0.062l-0.232-0.067l-0.062-0.07l-0.063-0.069
	l-0.066-0.215l-0.148-0.478l-0.148-0.475l-0.15-0.477l-0.147-0.476l-0.147-0.476l-0.147-0.475l-0.148-0.474l-0.146-0.475
	l-0.147-0.472l-0.147-0.473l-0.146-0.472l-0.146-0.471l-0.146-0.472l-0.146-0.471l-0.147-0.47l-0.146-0.471l-0.148-0.481
	l-0.149-0.482l-0.148-0.48l-0.15-0.48l-0.148-0.48l-0.148-0.479l-0.147-0.479l-0.147-0.479l-0.148-0.479l-0.147-0.478l-0.148-0.478
	l-0.147-0.477l-0.092-0.299l-0.093-0.3l-0.091-0.299l-0.093-0.3l-0.217-0.704l0,0l0,0l0,0l-0.2-0.639l-0.2-0.638l-0.199-0.638
	l-0.199-0.634l-0.199-0.635l-0.197-0.635l-0.198-0.635l-0.198-0.63l-0.171-0.545l-0.093-0.297l-0.204-0.65l-0.203-0.648
	l-0.092-0.296l-0.19-0.606l-0.189-0.606l-0.19-0.604l-0.189-0.605l-0.188-0.605l-0.188-0.604l-0.188-0.603l-0.188-0.602
	l-0.188-0.602l-0.186-0.602l-0.188-0.6l-0.186-0.602l-0.188-0.6l-0.185-0.598l-0.186-0.597l-0.186-0.599l-0.186-0.597l-0.144-0.466
	l-0.04-0.129l-0.185-0.597l-0.186-0.596l-0.182-0.595l-0.186-0.594l-0.183-0.593l-0.183-0.594l-0.093-0.305l-0.206-0.668
	l-0.205-0.667l-0.093-0.304l-0.009-0.028l-0.123-0.396l-0.121-0.389l-0.121-0.391l-0.12-0.388l-0.122-0.389l-0.12-0.388l-0.121-0.39
	l-0.119-0.388l-0.122-0.387l1.06-0.322l1.056-0.323l1.051-0.323l1.047-0.324l1.042-0.323l1.04-0.325l1.036-0.326l1.031-0.326h0.001
	l0.002,0.001l0,0l0.403,0.123l0.404,0.124l0.403,0.121l0.403,0.124l0.592,0.193l0.423,0.137l0.426,0.139l0.424,0.136l0.423,0.138
	l0.425,0.136l0.424,0.136l0.424,0.136l0.424,0.136l0.423,0.135l0.425,0.135l0.423,0.136l0.425,0.132l0.424,0.134l0.423,0.132
	l0.425,0.133l0.424,0.134l0.461,0.143l0.461,0.143l0.461,0.144l0.46,0.142l0.461,0.141l0.46,0.141l0.461,0.142l0.46,0.142
	l0.461,0.139l0.461,0.14l0.46,0.139l0.461,0.139l0.461,0.138l0.461,0.137l0.46,0.138l0.46,0.137l0.461,0.136l0.461,0.137l0.46,0.134
	l0.461,0.136l0.461,0.135l0.46,0.135l0.46,0.133l0.462,0.133l0.46,0.135l0.461,0.132l0.46,0.132l0.461,0.132l0.46,0.13l0.461,0.132
	l0.461,0.132l0.461,0.128l0.46,0.131l0.461,0.129l0.461,0.129l0.461,0.129l0.074,0.02l0.386,0.107l0.462,0.128l0.459,0.127
	l0.461,0.126l0.461,0.127l0.462,0.127l0.461,0.125l0.461,0.126l0.46,0.124l0.461,0.125l0.461,0.123l0.461,0.125l0.624,0.167
	l0.084,0.075l0.169,0.276l0.039,0.102l0.093,0.55l0.023,0.475l0.024,0.095l0.045,0.115l0.05,0.051h0.069l0.105-0.025l0.093-0.039
	l0.167-0.109l0.093-0.038l0.111-0.013l0.077,0.028l0.141,0.13l0.094,0.066l0.092,0.023l0.209-0.014l0.188-0.041l0.09-0.007
	l0.092,0.022l0.172-0.039l0.201,0.025l0.348,0.11l0.13,0.103l0.076,0.161l0.1,0.362l0.065,0.054l0.656,0.239l0.105,0.008l0.1-0.032
	l0.076-0.043l0.072-0.023l0.084,0.026l0.072,0.081l0.042,0.086l0.051,0.046l0.099-0.035l0.041-0.043l0.055-0.104l0.057-0.042
	l0.055-0.015l0.044,0.01l0.045,0.017l0.052,0.011l0.308-0.011l0.069-0.019l0.101-0.098l0.128-0.25l0.081-0.108l0.089-0.055
	l0.087-0.012l0.092,0.017l0.336,0.114l0.216,0.114l0.2,0.148l0.278,0.265l0.067,0.032l0.075-0.003l0.112-0.018h0.097l0.186,0.026
	l0.092-0.017l0.049-0.016l0.426-0.083l0.244-0.088l1.281-0.231l0.632,0.024l0.317,0.104l0.083,0.006l0.173-0.017l0.079,0.007
	l0.08,0.035l0.037,0.059l0.215,1l0.062,0.183l0.11,0.152l0.032,0.02l0.027,0.006l0.028,0.008l0.031,0.034l0.008,0.032l0.005,0.105
	l0.012,0.046l0.066,0.071l0.077,0.049l0.07,0.058l0.044,0.101l-0.009,0.129l-0.061,0.099l-0.077,0.092l-0.06,0.105l-0.012,0.104
	l0.034,0.196l0.006,0.091l-0.064,0.144l-0.047,0.063l-0.009,0.055l-0.005,0.108l-0.033,0.133l-0.014,0.103l0.032,0.084l0.108,0.08
	l0.103,0.047l0.109,0.034l0.109,0.016l0.231,0.007l0.342,0.158l0.125,0.023l0.05,0.002l0.067-0.018l0.111-0.055l0.328-0.239h0.001
	l0.431-0.287l0.703-0.469l0.305-0.205l0.394-0.264l0.698-0.468L1077.601,680.148z"/></svg>