<?xml version="1.0" encoding="utf-8"?>
<!-- Generator: Adobe Illustrator 15.0.0, SVG Export Plug-In . SVG Version: 6.00 Build 0)  -->
<!DOCTYPE svg PUBLIC "-//W3C//DTD SVG 1.1//EN" "http://www.w3.org/Graphics/SVG/1.1/DTD/svg11.dtd">
<svg version="1.1" id="Ebene_1" xmlns="http://www.w3.org/2000/svg" xmlns:xlink="http://www.w3.org/1999/xlink" x="0px" y="0px"
	 width="1920px" height="1080px" viewBox="0 0 1920 1080" enable-background="new 0 0 1920 1080" xml:space="preserve">

<path fill="#F4E0B6" stroke="#FFFFFF" d="M915.976,742.947l-0.031,0.094l-0.058,0.03l-0.061,0.014l-0.044,0.052l-0.048-0.019
	l-0.043-0.082l-0.118-0.126l-0.039-0.096l-0.05,0.029l0.031-0.049l0.014-0.053l-0.005-0.06l-0.023-0.065l0.087,0.03l-0.017-0.133
	l0.079-0.016l0.118,0.025l0.1-0.007l0.068,0.093l0.034,0.109l0.011,0.116L915.976,742.947z M918.229,743.818l-0.281,0.009
	l-0.248-0.122l-0.213-0.191l-0.353-0.438l-0.081-0.157l-0.029-0.148l0.045-0.122l0.1-0.124l0.125-0.1l0.165-0.058l0.408-0.059
	l0.118,0.006l0.135,0.034l0.139,0.08l0.085,0.111l0.052,0.124l0.07,0.248l0.054,0.348l-0.01,0.084l-0.037,0.062l0.018,0.08
	l0.027,0.084l-0.001,0.077l-0.048,0.049L918.229,743.818z M922.297,741.982l0.011,0.042l0.126-0.03l0.102,0.096l0.03,0.127
	l-0.089,0.049l0.082,0.152l0.098,0.109l0.213,0.19l-0.052,0.034l0.112,0.062l0.054,0.065l0.091,0.194l0.193,0.286l0.108,0.107
	l0.098,0.021l0.018,0.036l0.002,0.022l0.009,0.021l0.027,0.025l-0.011,0.005l0.026,0.045l0.03,0.044l0.008,0.003l0.014,0.008
	l0.05,0.006l0.013,0.009l-0.002,0.02l-0.02,0.044l0,0.021l0.104,0.502l0.016,0.027l0.014,0.011l0.013,0.019l0.01,0.048l0.004,0.03
	l0.007,0.028l0.016,0.021l0.026,0.018l-0.048,0.081l-0.054,0.046l-0.152,0.062l0.03,0.052l-0.078,0.077l-0.058,0.083l-0.06,0.059
	l-0.085,0.006l-0.045-0.006h-0.091l-0.042-0.006l-0.043-0.018l-0.039-0.038l-0.039-0.019l-0.179-0.055l-0.145-0.064l-0.127-0.089
	l-0.131-0.095l-0.158-0.252l-0.065-0.13l0.012-0.217l-0.072-0.079l-0.105-0.069l-0.088-0.076l-0.002-0.026l-0.037-0.167
	l-0.016-0.032l-0.024-0.035l-0.024-0.043l-0.014-0.059l0.021-0.047l0.103-0.13l0.026-0.052l0-0.089l-0.072-0.253l0.064,0.003
	l0.042-0.029l0.026-0.058l0.01-0.076l0.019-0.065l0.035-0.034l0.034-0.021l0.017-0.031l-0.016-0.118l-0.049-0.146l-0.067-0.129
	l-0.072-0.067h0.044l0.14-0.023l-0.093-0.072l-0.042-0.021l0.19-0.075l0.05,0.017l0,0.052l0.008,0.03L922.297,741.982z
	 M925.784,743.108l0.066,0.061l0.131,0.004l0.054,0.055l0.012,0.083l-0.016,0.095l-0.049,0.154l-0.028,0.352l-0.052,0.16
	l-0.125,0.123l-0.031,0.003l-0.09-0.013l-0.038,0.003l-0.028,0.022l-0.045,0.062l-0.034,0.016l-0.077-0.015l-0.067-0.04l-0.097-0.1
	L925.169,744l-0.044-0.087l-0.013-0.084l0.036-0.067l0.062-0.061l0.041-0.064l-0.026-0.081l0.09-0.025l0.055-0.065l-0.004-0.07
	l-0.087-0.035l0.054-0.077l0.142-0.058l0.118-0.124l-0.023-0.019l-0.002-0.006l0.003-0.007l-0.007-0.023l0.085-0.013l0.085-0.025
	l-0.004,0.02l-0.017,0.061l0.056-0.025l0.017-0.009l0.021-0.024l0.029,0.056L925.784,743.108z M928.426,738.106l0.152,0.069
	l0.068-0.038l0.056-0.084l0.119,0.02l0.388,0.224l0.07,0.054l0.065,0.065l0.024,0.057l0.035,0.139l0.027,0.034l0.111,0.085
	l0.02,0.118l-0.031,0.245l0.023,0.021l0.049,0.079l0.025,0.082l-0.041,0.021l-0.022,0.021l-0.012,0.06l-0.021,0.058l-0.114,0.03
	l-0.375,0.16l-0.248,0.045l-0.125-0.005l-0.384-0.104l-0.067-0.032l-0.063-0.053l-0.09-0.109l-0.075-0.048l-0.236-0.185
	l-0.078-0.102l-0.035-0.153l0.01-0.124l0.042-0.104l0.072-0.063l0.1-0.003l0.131-0.077l-0.047-0.598l0.068-0.185l0.024,0.056
	l0.027,0.045l0.079,0.083l0.111,0.089L928.426,738.106z M919.233,732.197l0.067,0.023l0.356,0.066l0.062,0.031l0.226,0.186
	l0.051,0.028l0.523,0.217l0.141,0.103l0.119,0.139l0.065,0.059l0.031-0.016l-0.013,0.222l-0.074-0.009l-0.452-0.146l-0.48-0.376
	l-0.259-0.148l-0.254,0.012l-0.097,0.075l-0.203,0.261l-0.075,0.222l-0.05-0.099l-0.075-0.266l-0.034-0.066l-0.04-0.057
	l-0.031-0.066l-0.009-0.091v-0.067l-0.013-0.055l-0.031-0.039l-0.057-0.029l-0.144-0.093l-0.097-0.143l-0.029-0.154l0.061-0.129
	l0.395,0.007l0.045,0.021l0.084,0.063l0.073,0.073l0.141,0.177L919.233,732.197z M928.27,734.716l0.083,0.104l0.017,0.043
	l-0.01,0.071l-0.033,0.121l-0.009,0.064l-0.015,0.032l-0.063,0.022l-0.021,0.025l0,0.036l0.012,0.053l0.016,0.047l0.011,0.013
	l-0.046,0.037l-0.047,0.01l-0.059,0.002l-0.078,0.011l-0.059-0.521l-0.09-0.228l-0.141,0.022l-0.024-0.102l-0.003-0.132l0.025-0.109
	l0.063-0.045l0.002-0.045l-0.077-0.048l-0.041-0.077l-0.011-0.091l0.015-0.201l0.139-0.061l0.32-0.086l0.034,0.06l0.113,0.143
	l0.023,0.058l-0.009,0.025l-0.045,0.064l-0.05,0.047l0.011,0.022l0.027,0.021l0.012,0.028l-0.035,0.379l0.014,0.128L928.27,734.716z
	 M915.354,729.125l0.051,0.079l0.022,0.065l-0.034,0.014l-0.021,0.021l0.049,0.075l0.084,0.09l0.087,0.056l0.028,0.045l0.024,0.087
	l0.01,0.094l-0.014,0.06l-0.105,0.043l-0.157,0.002l-0.172-0.024l-0.159-0.043h-0.041l-0.065,0.039l-0.024,0.006l-0.045-0.021
	l-0.381-0.278l-0.06-0.055l-0.046-0.063l-0.025-0.072l-0.085,0.012l0.037-0.124l0.08-0.087l0.097-0.044h0.085l0.195,0.061
	l0.082-0.008l-0.032-0.099l0.182-0.035l0.04-0.03l0.042,0.014l0.032,0.101l0.063,0.009l0.115-0.039L915.354,729.125z
	 M914.464,727.067l0.068,0.071l0.159,0.047l0.087,0.055l0.056,0.062l0.021,0.056l-0.008,0.145l0.031,0.039l0.143,0.086l0.032,0.03
	l0.016,0.039l0.081,0.1l0.02,0.052l-0.015,0.063l-0.042,0.049l-0.242,0.161l-0.029-0.007l-0.028,0.013l-0.12,0.005l-0.028,0.013
	l-0.059,0.047l-0.387,0.046l-0.184,0.114l-0.132,0.114l-0.163,0.056l-0.272-0.058l-0.234-0.078l-0.073-0.009l-0.057,0.003
	l-0.056-0.02l-0.069-0.08l-0.011-0.081l0.029-0.416l-0.073-0.172l-0.021-0.025l-0.104-0.055l-0.04-0.041l-0.025-0.114l0.037-0.08
	l0.164-0.119l0.092-0.029l0.092,0.019l0.08,0.033l0.058,0.017l0.066-0.022l0.161-0.09l0.121-0.011l0.152-0.039l0.146,0.013
	l0.389-0.054l0.102,0.01L914.464,727.067z"/></svg>