<?xml version="1.0" encoding="utf-8"?>
<!-- Generator: Adobe Illustrator 15.0.0, SVG Export Plug-In . SVG Version: 6.00 Build 0)  -->
<!DOCTYPE svg PUBLIC "-//W3C//DTD SVG 1.1//EN" "http://www.w3.org/Graphics/SVG/1.1/DTD/svg11.dtd">
<svg version="1.1" id="Ebene_1" xmlns="http://www.w3.org/2000/svg" xmlns:xlink="http://www.w3.org/1999/xlink" x="0px" y="0px"
	 width="1920px" height="1080px" viewBox="0 0 1920 1080" enable-background="new 0 0 1920 1080" xml:space="preserve">

<path fill="#F4E0B6" stroke="#FFFFFF" d="M1229.131,608.465l0.038-0.002l0.128-0.112l0.104,0.038l0.082-0.05l0.057-0.078
	l0.064-0.052l0.083,0.013l0.037,0.045l0.048-0.032l0.072-0.129l-0.125,0.055l-0.129-0.045l-0.011-0.103l-0.064-0.13l-0.007-0.055
	l0.049-0.047l0.031-0.008l0.041-0.01l0.159-0.012l0.059,0.061l0.118,0.045l0.027,0.048l0.105-0.055l0.089,0.058l0.2-0.044
	l0.046,0.055l0.047,0.077l0.044,0.103l0.065,0.057l0.132,0.092l0.026,0.104l0.007,0.006l-0.093,0.055l-0.213-0.049l-0.112,0.03
	l-0.088,0.054l-0.071-0.007l0.072-0.121l0.021-0.094l-0.092-0.062l-0.141,0.02l-0.086,0.083l-0.105,0.088l-0.063,0.074l-0.039,0.09
	l-0.034,0.078l-0.098,0.028l-0.153-0.019l-0.108-0.013l-0.104,0.042l-0.161,0.002l-0.15-0.006l-0.114-0.048l-0.124-0.102
	l-0.104,0.002l-0.068,0.047l-0.054,0.021l-0.012-0.032l-0.074-0.079l-0.114-0.031l-0.099-0.049l-0.052-0.074l0.069-0.024
	l0.045,0.016l0.076,0.003l0.203-0.039l0.157,0.032l0.086,0.026l0.094,0.084l0.035,0.047l0.132,0.026L1229.131,608.465z
	 M1228.693,607.604l0.063,0.071l0.049,0.1l0.074,0.06l0.147-0.057l0.106,0.059l-0.155,0.114l0.002,0.088l0.077,0.051l0.121-0.035
	l0.079-0.006l0.099-0.02l0.105,0.075l0.037,0.045l-0.169,0.016l-0.173,0.056l-0.075,0.037l-0.094-0.006l-0.115-0.029l-0.197-0.052
	l-0.173-0.052l-0.067-0.024l0,0l0.012-0.065l0.089-0.071l0.051-0.067l0.016-0.074l-0.02-0.097l0.042-0.023l0.008-0.005l0,0
	l-0.043-0.091l-0.107-0.073l-0.07,0.015l-0.069,0.014l-0.054,0.031l-0.101,0.042l-0.052,0.029l-0.022-0.012h-0.001l0.004-0.05
	l0.024-0.039l0.037,0.026l0.134-0.076l0.129-0.03l0.128,0.027l0.016,0.013L1228.693,607.604z M1185.751,588.362l0.085,0.047
	l0.02-0.018l-0.011-0.031l0.026,0.009l0.107,0.107l0.058,0.005l0.028,0.004l-0.005,0.009l-0.02,0.004l-0.028,0.014l0.009,0.017
	l0.03,0.015l-0.029,0.014l-0.098,0.004l-0.047-0.027l-0.013-0.027l-0.035,0.02l-0.033,0.04l-0.045-0.015l-0.055-0.037l-0.029,0.021
	l-0.018,0.052l-0.026-0.02l-0.026-0.087l0.004-0.059l0.042-0.029l0.051-0.025L1185.751,588.362z M1185.188,588.812l0.087-0.011
	l0.154-0.032l0.067-0.025l0.045-0.024l0.046-0.004l0.035,0.014l-0.068,0.053l0.024,0.055l0.059,0.023l0.033-0.038l0.007-0.072
	l0.021-0.067l0.052-0.039l0.023,0.008l-0.037,0.076l-0.011,0.039l-0.005,0.064l0.015,0.09l-0.023,0.071l-0.105,0.003l-0.116-0.024
	l-0.097-0.004l-0.241-0.048l-0.016-0.003l-0.027-0.013l-0.011-0.014l0.009-0.003l0.001-0.013l-0.022-0.017l-0.059-0.014
	l-0.079-0.027l-0.019-0.026l0.042-0.016l0.053,0.003l0.118,0.032L1185.188,588.812z M1185.085,588.456l-0.011,0.028l-0.039,0.012
	l-0.074-0.011l-0.031-0.056l0.018-0.061l0.052-0.028l0.066,0.015l0.03,0.043L1185.085,588.456z M1184.572,588.659l0.247-0.009
	l0.039,0.014l0.051,0.031l0.072-0.004l0.067-0.019l0.108-0.009l0.191,0.015l0.055,0.011l0.006,0.018l-0.006,0.02l0.016,0.014
	l-0.024,0.003l-0.082-0.003l-0.065,0.004l-0.04,0.016l-0.03-0.014l-0.049-0.027l-0.042,0.008l-0.015,0.023l-0.038,0.012
	l-0.061-0.011l-0.051-0.001l-0.019,0.007l-0.019,0.006l-0.037-0.013l-0.03-0.035l-0.037,0.01l-0.052,0.025l-0.02-0.007l0.017-0.004
	l-0.016-0.015l-0.058-0.02l-0.074,0.003l-0.058,0.046l-0.016,0.035l-0.004,0.025l-0.021,0.025l-0.024-0.034l-0.004-0.074l0.042-0.05
	L1184.572,588.659z M1185.201,588.112l0.01,0.034l-0.014,0.013l-0.032-0.002l0.001,0.009l0.028,0.02l0.007,0.016h-0.011l0.062,0.035
	l0.097,0.081l0.011,0.042l-0.081-0.029h-0.032l-0.045-0.025l-0.081-0.101l-0.022-0.02l-0.03-0.042l0.001-0.043l0.022-0.036
	l0.04-0.006l0.042,0.022L1185.201,588.112z M1183.892,588.808l0.152,0.028h0.068l0.048-0.028l0.022-0.025l0.016,0.003l0.021,0.022
	l0.034,0.023l0.041-0.008l0.027-0.024l0.003-0.007l-0.015,0.004l-0.01-0.018l0.004-0.025l0.031-0.016l0.075-0.004l0.013,0.023
	l0.011,0.057l-0.015,0.037l-0.029,0.005h-0.068l-0.368,0.053l-0.086,0.035l0.017,0.065l-0.046,0.008l-0.108-0.018l-0.08-0.02
	l-0.078-0.062l-0.02-0.082l0.02-0.144l0.003-0.069l0.016-0.037l0.022,0.02l0.011,0.055l0.007,0.122l0.028,0.031l0.047,0.014
	l0.036,0.001l0.021-0.013l0.021-0.005l0.035,0.011l0.038-0.004L1183.892,588.808z M1183.709,588.439l0.04,0.001l0.031-0.035
	l0.018-0.001l0.005,0.042l-0.022,0.04l-0.047,0.022l-0.106-0.007l-0.056,0.003l-0.056-0.023l-0.027-0.025l-0.066-0.071l-0.104-0.157
	l-0.041-0.162l0.026-0.136l0.017-0.027l-0.013,0.074l0.007,0.083l0.02,0.081l0.042,0.077l0.077,0.045l0.108,0.014l0.033-0.007
	l0.025-0.013l0.017,0.025l0.008,0.068l0.024,0.055l0.02,0.019L1183.709,588.439z M1221.915,548.804l0.092-0.033l0.223-0.109
	l0.213-0.104l-0.041,0.075l-0.062,0.034l-0.071,0.022l-0.066,0.036l-0.049,0.055l-0.032,0.064l-0.019,0.07l-0.006,0.071
	l-0.053-0.003l-0.002,0.006l-0.012,0.017l-0.046,0.004l-0.024,0.01h-0.001l-0.021-0.021l0.026-0.057l-0.009-0.026l0,0l-0.035-0.008
	l-0.028-0.002h-0.024l-0.048,0.016l-0.031,0.038l-0.024,0.043l-0.023,0.034l-0.026,0.053l-0.003,0.077l0.016,0.085l0.029,0.077
	l-0.097-0.079l-0.024-0.142l0.035-0.147l0.083-0.104l0.045-0.028l0.04-0.013L1221.915,548.804z M1177.147,558.19l0.277-0.15v-0.001
	h0.001l0,0l1.196-0.616l0.215-0.067l0.248-0.036l0.461-0.064l0.395-0.057l0.395-0.056l0.395-0.058l0.396-0.058l0.396-0.056
	l0.396-0.059l0.396-0.059l0.397-0.06l0.396-0.059l0.398-0.061l0.397-0.06l0.399-0.062l0.397-0.061l0.399-0.062l0.399-0.062
	l0.398-0.063l0.408-0.063l0.349,0.005l0.444,0.006l0.445,0.009l0.444,0.005l0.445,0.006l0.503,0.009l0.502,0.005l0.504,0.006
	l0.104,0.002l0.4,0.005l0.001-0.001l0,0l0,0l0.55-0.01l0.459-0.01l0.459-0.01l0.46-0.01l0.461-0.012l0.6-0.014l0.601-0.017
	l0.603-0.017l0.603-0.016l0.256-0.009l0.349-0.011l0.604-0.019l0.605-0.021l0.608-0.02l0.506-0.019l0.506-0.019l0.508-0.02
	l0.508-0.018l0.411-0.018l0.026-0.008l0.027-0.01l0.027-0.01l0.027-0.009l0.313-0.217l0.274-0.189l0.273-0.189l0.273-0.188
	l0.273-0.189l0.354-0.245l0.352-0.245l0.354-0.245l0.353-0.246l0.353-0.248l0.354-0.247l0.354-0.248l0.353-0.249l0.264-0.185
	l0.262-0.186l0.264-0.185l0.264-0.187l0.364-0.258l0.114-0.146l0.068-0.087l0.047-0.059l0.113-0.147l0.114-0.147l0.397-0.265
	l0.396-0.265l0.396-0.263l0.398-0.267l0.356-0.235l0.357-0.236l0.356-0.235l0.358-0.237l0.199-0.134h0.001h0.002l0,0l0.099,0.026
	l0.387,0.112l0.608,0.298l0.096,0.071l0.186,0.173l0.129,0.077l0.14,0.062l0.122,0.035h0.125l0.121-0.018l0.116,0.006l0.112,0.067
	l0.173-0.151l0.572-0.504l0.572-0.508l0.573-0.505l0.573-0.51l0,0l0.148,0.007l0.066-0.007l0.119-0.04l0.036,0.015l0.172,0.122
	l0.11,0.111l0.046,0.102l-0.101,0.04l0.007,0.036l0.005,0.013l0.01,0.019l0.067-0.052l0.042-0.061l0.01-0.065l-0.028-0.071
	l0.061-0.01l0.027,0.03l0.023,0.094l0.065,0.106l0.036,0.041l0.095,0.065l0.106,0.032l0.541,0.037l0.057,0.026l0.016,0.106
	l0.038,0.084l0.061,0.068l0.088,0.057l0.086,0.024l0.231,0.041l0.056,0.017l0.033,0.042l0.009,0.017l0.08-0.017l0.157-0.05
	l0.039-0.027l0.109-0.102l0.036-0.018l0.099-0.024l0.046-0.027l0.022-0.002l0.019,0.021l0.013,0.032l0.003,0.027l-0.013,0.027
	l-0.022,0.019l-0.032,0.013l-0.031,0.075l0.007,0.034l0.05,0.045l0.075,0.017l0.126,0.004l0.129-0.011l0.084-0.029l0.017,0.014
	l0.173,0.036l0.25,0.005l0.05,0.021l0.037,0.094l0.037,0.047l0.042,0.037l0.028,0.007l0.017,0.031l0.022,0.08l0.012,0.092
	l-0.015,0.07l-0.016-0.061l-0.022-0.032l-0.088-0.078l-0.037-0.056l-0.008-0.044l-0.017-0.037l-0.063-0.035l-0.003,0.09l0.068,0.172
	l-0.021,0.084l-0.082-0.199l-0.031-0.045l-0.079-0.049l-0.021,0.026l0.017,0.07l0.171,0.294l0.051,0.057v0.014l0.011,0.032
	l0.022,0.016l0.034-0.035l0.003-0.032l-0.033-0.078l0.005-0.042l0.146,0.151l0.049,0.024l0.026-0.032l0.004-0.056l-0.02-0.051
	l0.06,0.018l0.049,0.042l0.048,0.062l0.057-0.021l0.016-0.045l-0.009-0.053l-0.016-0.049l0.059,0.056l0.013,0.026l-0.001,0.031
	l0.046,0.017l0.016,0.023l-0.01,0.029l-0.034,0.035l0.106,0.045l0.032,0.01l-0.118,0.034l-0.033,0.029l0.013,0.056l0.097-0.033
	l0.056-0.055l0.016-0.071l-0.029-0.087l0.022-0.02l0.069,0.027l-0.004,0.073l0.051,0.078l0.072,0.038l0.06-0.049v-0.045
	l-0.038-0.012l-0.047-0.001l-0.03-0.017l-0.004-0.055l0.018-0.048l0.061-0.084l0.059-0.061l0.063-0.018l0.217-0.005l0.178-0.049
	l0.072,0.013l-0.023,0.097l0.067-0.021l0.037-0.041l-0.003-0.042l-0.058-0.021l0.08-0.026l0.071-0.036l0.135-0.1l0.021-0.032
	l0.027-0.084l0.02-0.029l0.039-0.026l0.082-0.041l0.04-0.028l0.086-0.039l0.093-0.003l0.173,0.032l0.044-0.001l0.035-0.009
	l0.036-0.005l0.046,0.008l0.034,0.019l0.066,0.055l0.037,0.018l-0.041,0.04l-0.04,0.005l-0.042-0.023l-0.037-0.049l-0.022,0.02
	l0.005,0.136l-0.2,0.143l-0.009,0.115l-0.023,0.021l-0.08-0.039l-0.059,0.051l-0.068,0.168l0.041-0.01l0.092-0.045l0.052-0.017
	l0.05-0.006h0.037l0.039-0.004l0.057-0.021l0.048,0.009l0.028-0.003l0.014-0.021l0.006-0.101l-0.006-0.007l0.002-0.031l-0.011-0.024
	l-0.001-0.021l0.034-0.008l0.045-0.002l0.044-0.014l0.023,0.067l-0.01,0.051l-0.016,0.046l0.002,0.051l0.027,0.047l0.084,0.089
	l0.03,0.048l0.026-0.04l0.021-0.053l0.014-0.059l0.006-0.06l0.025-0.045l0.056-0.026l0.104-0.025l0.038,0.09l0.074,0.057l0.09,0.044
	l0.081,0.058l0.137,0.151l0.079,0.047l0.05-0.058l0.056,0.064l0.047,0.004l0.027-0.039l0.007-0.063l-0.067-0.036l-0.001-0.059
	l0.049-0.048l0.087-0.003l-0.004-0.042l0.056,0.022l0.023,0.042l0.018,0.052l0.034,0.054l0.015,0.036l-0.019,0.036l-0.037,0.032
	l-0.041,0.026l0.065,0.016l0.096-0.055l0.067,0.018l0.016-0.047l-0.007-0.048l-0.03-0.104l0.019,0.015l0.005-0.002l0.005-0.006
	l0.017-0.005l0.025,0.089l0.038-0.014l0.062-0.098l0.061-0.038l0.125-0.042l0.059-0.043l-0.18-0.012l-0.08-0.028l0.007-0.088
	l0.04-0.038l0.051-0.01l0.052-0.003l0.042-0.021l0.016-0.034l0.006-0.114l0.043,0.063l0.05,0.109l0.046,0.052l0.098,0.06
	l0.061,0.026l0.036,0.004l0.09-0.028l0.125,0.01l0.466,0.105l0.209,0.025l0.051-0.004l0.134-0.047l0.054-0.004l0.095,0.003
	l0.06-0.007l0.296-0.097l0.216-0.027l0.083-0.057l0.074-0.073l0.095-0.063l0.158-0.036h0.185l0.376,0.059l0.152,0.042l0.407-0.056
	l0.112,0.007l0.1,0.077l-0.277,0.013l-0.128,0.023l-0.207,0.142l-0.063,0.028l-0.071-0.01l-0.15-0.103l-0.009,0.047l0.026,0.084
	l0.039,0.069l0.04,0.045l0.042,0.039l0.049,0.028l0.057,0.012l0.065,0.002l0.026,0.01l0.195,0.221l0.062,0.052l0.351,0.179
	l0.094,0.021h0.104l0.097-0.02l0.384-0.163l0.181-0.008l0.176,0.063l0.182,0.135l0.37,0.371l0.069,0.093l0.032,0.098l-0.027,0.097
	l-0.055-0.05l-0.046,0.004l-0.023,0.045l0.007,0.063l0.108,0.066l0.123,0.14l0.107,0.157l0.063,0.12l-0.089,0.01l-0.063-0.035
	l-0.055-0.056l-0.055-0.045l-0.064-0.02l-0.059-0.002l-0.054,0.008l-0.055-0.003l-0.032,0.003l-0.016,0.015h-0.018l-0.102-0.088
	l-0.03-0.017l-0.04-0.014l-0.062-0.012h-0.079l-0.066,0.016l-0.027,0.046l0.065,0.231l-0.005,0.048l-0.017,0.053l0.063,0.031
	l0.081,0.013h0.036l0.033,0.018l0.081,0.021l0.038,0.027l-0.003,0.019l-0.016,0.028l-0.011,0.035l0.016,0.036l0.058,0.042
	l0.061,0.036l0.053,0.048l0.03,0.073l0.075-0.032l0.021-0.069l-0.027-0.072l-0.069-0.045l0.04-0.019l0.042-0.004l0.083,0.011
	l0.025-0.008l0.013-0.017l0.013-0.006l0.03,0.023l0.021,0.02l0.015,0.007l0.015-0.004l0.021-0.019l0.105-0.056l0.081,0.016
	l0.079,0.045l0.099,0.029l0.023,0.022l-0.004,0.123l0.197,0.129l0.259,0.106l0.184,0.055l0.432,0.043l0.218,0.055l0.198,0.132
	l-0.021,0.019l-0.225-0.11l-0.05-0.005l-0.051,0.026l-0.071,0.022l-0.07,0.012l-0.101-0.021l-0.094,0.009l-0.056,0.038l0.056,0.077
	l0.073,0.026l0.147-0.02l0.062,0.011l-0.016-0.05l-0.009-0.019l0.022-0.021l0.379,0.132l0.854,0.114l0.164-0.008l-0.057-0.036
	l-0.077-0.033l-0.054-0.035l0.012-0.047l0.021-0.046l0.024-0.006l0.09,0.063l0.036,0.003l0.027-0.006l0.015,0.003l0.077,0.022
	l0.092-0.028l0.15-0.071l0.063,0.009l0.224,0.094l-0.004,0.046l0.097,0.016l0.139,0.05l0.14,0.064l0.093,0.062l0.039,0.047
	l0.06,0.091l0.04,0.049l0.053,0.037l0.048,0.017l0.04,0.01l0.079,0.042l0.135,0.039l0.062,0.045l0.121,0.158l0.169,0.116l0.11,0.052
	l0.079,0.01l-0.04-0.09l0.158-0.011l0.204,0.025l0.097,0.021l0.111,0.002l0.3,0.166l0.142-0.023l0.129-0.001l0.164,0.104
	l0.222,0.202l0.056,0.027l0.092,0.034l0.096,0.025h0.071l0.051-0.045l0.009-0.134l0.644,0.156l0.342,0.023l0.246-0.086l0.24-0.156
	l0.199-0.174l0.127-0.214l0.064-0.379l0,0l0.039,0.022l0.156-0.182l0.053-0.009l0.066,0.01l0.052-0.007l0.011-0.062l0.031,0.022
	l0.027,0.035l0.013,0.037l-0.012,0.031l-0.002,0.033l0.044,0.031l0.052,0.02l0.015-0.003l0.111,0.128l0.038-0.002l0.043-0.074
	l0.016-0.072l-0.06-0.235l0.005-0.089l0.016-0.065l-0.011-0.063l-0.085-0.076l0.078-0.022l0.07-0.051l0.065-0.038l0.067,0.022
	l0.064,0.031l0.049-0.032l0.057-0.048l0.085-0.017l0.025,0.025l-0.033,0.074l-0.052,0.082l-0.032,0.086l0.03,0.077l-0.014,0.011
	v0.15l0.013,0.042l0.028,0.06l0.008,0.038l-0.068,0.318l0.01,0.068l0.007,0.025l0.013,0.095l0.014,0.047l0.028,0.04l0.07,0.083
	l0.024,0.04l0.018,0.021l0.028,0.02l0.019,0.021l-0.005,0.021l-0.04,0.032l-0.014,0.017l0.004,0.017l0.074,0.075l0.043,0.035
	l0.029,0.007l0.242-0.175l0.063-0.088l0.02-0.062l0.007-0.049l0.015-0.047l0.047-0.052l0.281-0.161l0.108-0.011l0.21,0.011
	l0.198-0.091l0.159,0.113l0.092,0.09l0.221,0.226l0.112,0.072l0.138,0.034l0.446,0.058l0.41,0.052l0.411,0.052l0.41,0.052
	l0.412,0.05l0.411,0.051l0.413,0.051l0.413,0.05l0.415,0.051l0.415,0.051l0.415,0.05l0.415,0.051l0.418,0.049l0.416,0.051
	l0.418,0.05l0.419,0.05l0.42,0.049l0.431,0.049l0.134-0.007l0.117-0.052l0.666-0.443l0.577-0.383l0.577-0.387l0.58-0.389
	l0.579-0.389l0.581-0.39l0.582-0.393l0.582-0.392l0.585-0.395l0.584-0.396l0.586-0.396l0.585-0.398l0.589-0.4l0.588-0.4l0.589-0.402
	l0.591-0.404l0.591-0.406l0.584-0.399l0.047-0.059l-0.06-0.499l0.622,0.123l0.793,0.157l0.797,0.154l0.798,0.156l0.801,0.156
	l0.528,0.102l0.126,0.041l0.093,0.077l0.301,0.517l0.041,0.068l0.053,0.092l0.148,0.256l0.231,0.397l0.3,0.516l0.354,0.612
	l0.396,0.684l0.424,0.732l0.103,0.178l0.334,0.579l0.438,0.759l0.422,0.735l0.396,0.689l0.354,0.617l0.3,0.524l0.23,0.402
	l0.148,0.259l0.053,0.094l0.256,0.449l-0.4,0.687l-0.455,0.777l-0.456,0.777l-0.455,0.775l-0.457,0.774l-0.456,0.771l-0.457,0.771
	l-0.457,0.769l-0.458,0.767l-0.457,0.767l-0.458,0.765l-0.458,0.762l-0.458,0.761l-0.46,0.759l-0.459,0.758l-0.458,0.758
	l-0.46,0.754l-0.299,0.49l-0.543,0.581l-0.551,0.587l-0.552,0.586l-0.551,0.585l-0.549,0.583l-0.549,0.581l-0.549,0.58l-0.55,0.578
	l-0.547,0.577l-0.548,0.576l-0.548,0.574l-0.547,0.573l-0.547,0.571l-0.547,0.57l-0.547,0.568l-0.546,0.567l-0.546,0.565
	l-0.438,0.455l-0.246,0.401l-0.094,0.214l-0.307,0.693l-0.367,0.824l-0.409,0.921l-0.369,0.824l-0.274,0.614l-0.034,0.124
	l0.029,0.575l0.032,0.673l0.058,1.177l0.052,1.109l0.032,0.724l0.045,0.165l0.258,0.609l0.366,0.863l0.02,0.229v0.007l-0.222,0.577
	l-0.239,0.622l-0.076,0.132l-0.111,0.112l-0.54,0.365l-0.057,0.039l-0.078,0.009l-0.731-0.18l-0.64-0.157l-0.556-0.137l-0.219,0.029
	l-0.766,0.758l-0.568,0.562l-1.03,0.611l-0.803,0.473l-1.05,0.621l-0.895,0.525l-0.228,0.075l-0.939,0.118l-0.257,0.118
	l-0.653,0.473l-0.097,0.07l-0.479,0.344l-0.785,0.566l-0.069,0.078l-0.164,0.262l-0.103,0.086l-0.311,0.14l-0.242,0.163l-0.34,0.308
	l-0.239,0.279l-0.068,0.058l-0.202,0.072l-0.086,0.048l-0.022,0.08l0.026,0.136l0.001,0.11l-0.045,0.086l-0.111,0.059l-0.211,0.035
	l-0.071,0.039l-0.047,0.103v0.107l0.015,0.11l-0.011,0.1l-0.078,0.079l-0.054,0.023l-0.034,0.004l-0.029-0.008l-0.04-0.02
	l-0.057-0.083l-0.037-0.042l-0.031,0.006l-0.067,0.091l-0.065,0.052l-0.163,0.097l-0.13,0.119l-0.07,0.05l-0.099,0.03l-0.264-0.006
	l-0.516-0.093l-0.242,0.025l-0.383,0.087l-0.075,0.029l-0.135,0.09l-0.083,0.035l-0.074,0.069l-0.058,0.093l-0.162,0.442
	l-0.097,0.513l0.002,0.348l0.004,0.026l0.279-0.088h0.122l0.11,0.055l0.053,0.085l-0.051,0.104l-0.071,0.081l-0.066,0.113
	l-0.027,0.117l0.041,0.093l0.08,0.086l0.046,0.094l0.049,0.208l0.046,0.096l0.068,0.052l0.085,0.042l0.095,0.068l0.071,0.083
	l0.048,0.085l0.063,0.193l0.058,0.114l0.07,0.054l0.21,0.092l0.168,0.107l0.074,0.003l0.176-0.064l0.065,0.001l0.062,0.024
	l0.049,0.046l0.018,0.052l-0.012,0.041l-0.022,0.04l-0.013,0.05l0.013,0.119l0.054,0.046l0.086,0.033l0.1,0.074l0.008,0.006
	l0.037,0.088l-0.055,0.06l-0.195,0.064l-0.111,0.052l-0.032,0.055l0.026,0.067l0.064,0.085l0.048,0.084l0.116,0.322l0.008,0.101
	l-0.032,0.119l-0.087,0.217l-0.04,0.061l-0.128,0.132l-0.026,0.048l0.028,0.06l0.061,0.052l0.059,0.061l0.019,0.086l-0.042,0.136
	l-0.088,0.152l-0.132,0.194l0,0l-0.015-0.007l-0.119-0.14l-0.062-0.022l-0.055-0.162l-0.089-0.055l-0.36-0.072l-0.118-0.057
	l-0.077-0.064l-0.142-0.171l-0.094-0.196l-0.063-0.07l-0.083,0.034l0.001-0.048l-0.082-0.01l-0.089-0.031l-0.057-0.049l0.019-0.058
	l-0.057-0.022l-0.187-0.015l-0.049-0.011l-0.107-0.034l-0.173-0.034h-0.042l-0.178,0.022l-0.042,0.022l-0.025,0.052l-0.279-0.082
	l-0.092-0.208l-0.079-0.042l-0.161-0.188l-0.072-0.054l-0.057,0.003l-0.052,0.009l-0.06-0.04l-0.059-0.013l-0.075,0.045
	l-0.074,0.061l-0.06,0.033l-0.081-0.007l-0.09-0.035l-0.139-0.074l-0.065-0.043l-0.13-0.118l-0.063-0.04l-0.06-0.004l-0.233,0.049
	l0.066,0.06l0.079,0.041l0.158,0.061l-0.037,0.104l0.251,0.223l0.019,0.101l-0.09-0.064l-0.226-0.262l-0.082-0.067l-0.177-0.112
	l-0.507-0.473l-0.102-0.074l-0.075-0.057l-0.139-0.207l-0.074-0.077l-0.1-0.064l-0.055-0.019l-0.05,0.013l-0.04,0.025l-0.037,0.013
	l-0.035-0.004l-0.034-0.029l-0.061-0.028l-0.695-0.046l-0.044,0.013l0.007,0.029l-0.054-0.016l-0.107-0.051l-0.162-0.05
	l-0.075-0.048l-0.041-0.019l-0.038,0.007l-0.071,0.079l-0.048,0.018l-0.056-0.035l-0.047-0.02l-0.303-0.047v0.011l-0.016,0.028
	l-0.021,0.027l-0.021,0.016l-0.065-0.01l-0.251-0.077l-0.057,0.007l-0.394-0.044l-0.055,0.091l-0.221,0.004l-0.075,0.074
	l-0.119-0.075l-0.12-0.018l-0.126,0.003l-0.134-0.015l-0.321-0.085l-0.078-0.047l-0.034-0.052l-0.025-0.051l-0.03-0.025
	l-0.058,0.021l-0.037,0.008l-0.028-0.023l-0.027-0.035l-0.03-0.025l-0.271-0.023l-0.124-0.038l-0.025-0.097l-0.131-0.032
	l-0.062-0.022l-0.053-0.042l-0.034-0.011l-0.042,0.013l-0.041-0.009l-0.031-0.07l-0.082,0.047l-0.089,0.032l-0.003-0.024
	l-0.004-0.016v-0.018l0.01-0.026l-0.061-0.03l-0.051,0.003l-0.044,0.028l-0.039,0.055l-0.005-0.055l-0.013-0.049l-0.023-0.035
	l-0.042-0.013l-0.02-0.067l-0.043-0.01l-0.055,0.026l-0.053,0.047l-0.031-0.06l-0.072-0.064l-0.088-0.052l-0.076-0.024l-0.055-0.034
	l-0.143-0.127l-0.035-0.024l-0.034-0.026l-0.175-0.199l-0.027-0.015l-0.025-0.009l-0.024,0.001l-0.03,0.016h-0.031l-0.033-0.026
	l-0.032-0.034l-0.026-0.02l-0.21,0.006l-0.04-0.008l-0.04-0.037l-0.056-0.033l-0.061-0.019l-0.079,0.016l-0.037-0.003l-0.032-0.007
	l-0.013-0.004l-0.017,0.023l-0.007,0.067l-0.009,0.017l-0.053,0.014l-0.062,0.005l-0.063-0.003l-0.06-0.015l-0.277-0.144
	l-0.09-0.028l-0.088-0.016l-0.06-0.026l-0.046-0.051l-0.051-0.081l-0.116-0.31l-0.051-0.087l-0.013-0.037l0.008-0.027l-0.013-0.026
	l-0.08-0.026l-0.018,0.007l-0.117,0.016l-0.009-0.003l-0.182,0.071l-0.136-0.091l-0.021-0.021l-0.148-0.042h-0.027l-0.034-0.036
	l-0.027-0.045l-0.04-0.091l-0.015-0.055l-0.007-0.041l-0.011-0.039l-0.049-0.075l-0.046-0.09l-0.028-0.128l-0.079-0.032
	l-0.104,0.006l-0.098,0.022l-0.196,0.068l-0.104,0.002l-0.123-0.077l-0.117-0.042l-0.045-0.025l-0.032-0.043l-0.044-0.105
	l-0.032-0.035l-0.078-0.055l-0.037-0.035l-0.042-0.021l-0.097,0.013l-0.044-0.022l-0.081-0.067l-0.073-0.014l-0.08,0.011
	l-0.164-0.007l-0.002-0.016l-0.032-0.049l-0.04-0.032l-0.084-0.032l-0.035-0.026l-0.038-0.035l-0.07-0.047l-0.031-0.044
	l-0.006-0.055l0.01-0.055l-0.006-0.041l-0.051-0.011l-0.024-0.048l-0.04-0.034l-0.046-0.018l-0.046-0.038l-0.401,0.116l-0.125,0.016
	l-0.338-0.055l-0.128,0.017l-0.019-0.022l0.043-0.023l0.124-0.014l-0.103-0.17l-0.164-0.182l-0.093-0.063l-0.36-0.116l-0.109,0.005
	l-0.206,0.111l-0.07,0.055l-0.003,0.06l0.119,0.063l-0.091-0.004l-0.111-0.045l-0.091-0.053l-0.031-0.031l-0.078,0.006l-0.32-0.106
	l-0.168,0.013l-0.043-0.007l-0.018-0.029l-0.035-0.132l-0.076-0.052l-0.076-0.009l-0.148,0.032l-0.203,0.017l-0.042,0.012
	l-0.075-0.027l-0.041,0.011l-0.047,0.007l-0.191-0.061l-0.041,0.007l-0.107,0.042l-0.034,0.02l-0.081,0.029l-0.107,0.01
	l-0.271-0.011l-0.245-0.051l-0.02-0.071l-0.095,0.002l-0.116,0.042l-0.125,0.063l-0.036-0.004l-0.073-0.023l-0.097-0.009
	l-0.061-0.014l-0.011-0.019l-0.056,0.004l-0.197-0.021l-0.082,0.014l-0.079,0.059l-0.078,0.079l-0.051,0.077l-0.006,0.053
	l-0.112,0.031l-0.227,0.018l-0.107,0.024l0.044,0.043l0.042,0.013l0.044-0.003l0.05,0.004l0.024-0.004l0.053-0.001l0.042,0.007
	l-0.015,0.028l-0.077,0.029l-0.523,0.039l-0.084-0.007l-0.065,0.011l-0.088,0.031l-0.09,0.016l-0.146-0.073l-0.11-0.016l-0.311-0.01
	l-0.174-0.025l-0.484-0.188l-0.117-0.007l-0.021-0.028l0.038-0.023l0.023-0.024l0.009-0.032l-0.013-0.042l-0.063,0.031l-0.066,0.006
	l-0.145-0.019l-0.057-0.025l-0.108-0.094l-0.051-0.03l-0.225-0.047l-0.061-0.055l-0.013-0.13l-0.157,0.048l-0.056,0.027l0.032,0.022
	l0.033,0.01h0.035l0.033-0.008l-0.087,0.027l-0.115,0.012l-0.091-0.022l-0.021-0.076l-0.046,0.008l-0.032-0.013l-0.02-0.029
	l-0.006-0.048l0.038,0.019h0.045l0.049-0.011l0.05-0.021l-0.053-0.032l-0.021-0.017l-0.02-0.021l-0.035-0.03l-0.018,0.011
	l-0.02,0.024l-0.033,0.008l-0.101-0.033l-0.022,0.013l0.05,0.072l-0.114,0.006l-0.166-0.007l-0.147-0.041l-0.061-0.09l0.03,0.01
	l0.044,0.005l0.032-0.012l-0.012-0.03l-0.047-0.035l-0.033-0.003l-0.033,0.01l-0.046,0.001l-0.047,0.008l-0.032,0.033l-0.025,0.042
	l-0.029,0.032l-0.012-0.016l-0.221-0.079l-0.065-0.038l-0.06-0.055l-0.073-0.088l-0.037-0.027l-0.075,0.003l-0.039-0.026
	l-0.039-0.042l-0.026-0.007l-0.028,0.01l-0.233,0.001l-0.073-0.016l-0.104-0.085l-0.09-0.049l-0.042-0.039l-0.007-0.024
	l-0.004-0.071l-0.011-0.028l-0.066-0.035l-0.295-0.108l-0.072,0.005l-0.248-0.095l0.092-0.44l-0.031-0.118l-0.089-0.121
	l-0.112-0.088l-0.097-0.02l-0.017-0.02l0.012-0.061l-0.045-0.045l-0.153-0.083l0.018,0.111l-0.029,0.035l-0.066-0.018l-0.092-0.053
	l0.009-0.041l-0.123-0.04l-0.097-0.102l-0.087-0.117l-0.088-0.097l-0.117-0.074l-0.035-0.059l0.047-0.071l0.003-0.035l-0.022-0.063
	l-0.043-0.059l-0.063-0.025l0.033,0.096l0.007,0.046l-0.013,0.036l-0.049,0.036l-0.025-0.01l-0.021-0.029l-0.037-0.022l-0.039-0.004
	h-0.024l-0.024-0.004l-0.042-0.019l-0.038-0.026l-0.054-0.058l-0.035-0.023l-0.008,0.003l-0.06,0.007l-0.018-0.007l-0.031-0.022
	l-0.017-0.008l-0.236-0.063l-0.276-0.148l-0.31-0.267l-0.05-0.072l0.065-0.101l0.189,0.05l0.069-0.046l-0.049-0.094l-0.057-0.072
	l-0.022-0.046l0.003-0.023l0.021-0.067l-0.005-0.026l-0.047-0.074l-0.082-0.17l-0.053-0.081l-0.021,0.016l0.05,0.162l-0.067-0.038
	l-0.02-0.047l-0.008-0.058l-0.029-0.062l-0.119-0.151l-0.053-0.119l0.014-0.213l-0.088-0.183l-0.004-0.053l0.008-0.054l0.002-0.06
	l-0.035-0.139l0.014-0.102l-0.001-0.024l-0.036-0.047l-0.052-0.029l-0.054,0.002l-0.036,0.042l0.005,0.052l0.058,0.121l0.008,0.055
	l-0.074,0.077l-0.086-0.104l-0.077-0.187l-0.186-0.181l-0.137-0.224l-0.105-0.081l-0.065-0.029l-0.198-0.063l-0.253-0.14
	l-0.155-0.062l-0.071-0.039l-0.025-0.052l0.026-0.147l-0.027-0.025l-0.311-0.063l-0.111-0.006l-0.017,0.039l0.029,0.012l0.111,0.02
	l0.049,0.015l0.042,0.032l0.033,0.034l0.037,0.03l0.053,0.021l-0.006,0.043l-0.127-0.069l-0.213-0.079l-0.176-0.036l-0.43-0.189
	l-0.038-0.05l0.145-0.019l0.304,0.164l0.077-0.025l0.057-0.004l0.029-0.028l0.006-0.046l-0.013-0.057l-0.068-0.017l-0.146-0.068
	l-0.054,0.004l-0.034,0.007l-0.049-0.007l-0.05-0.021l-0.041-0.034l-0.076-0.035l-0.092,0.021l-0.093,0.036l-0.084,0.012
	l-0.059,0.063l-0.097-0.022l-0.193-0.104l0.009-0.064l-0.009-0.07l-0.021-0.067l-0.033-0.056l-0.092-0.099l-0.06-0.046l-0.038-0.043
	l-0.055,0.011l0.012,0.078l-0.105-0.049l-0.124-0.036l-0.158-0.077l-0.118-0.028l-0.088-0.062l-0.086-0.025l-0.05-0.043
	l-0.078-0.041l-0.04-0.053l-0.112-0.093l-0.114-0.052l-0.128-0.075l-0.131-0.129l-0.093-0.094l-0.083-0.066l-0.06-0.061
	l-0.104-0.018l-0.058-0.022l-0.058-0.052l-0.051-0.057l-0.044,0.097l-0.051,0.003l-0.028,0.02l0.052,0.061l0.058,0.009l0.111-0.031
	l0.02,0.025l-0.124,0.071l-0.129-0.016l-0.143-0.175l-0.302-0.084l-0.276-0.193l-0.089-0.065l-0.085-0.08l-0.091-0.067l-0.104-0.026
	l-0.048,0.007l-0.043,0.019l-0.072,0.021l-0.063-0.013l-0.055-0.042l-0.078-0.043l-0.082-0.022l-0.07,0.022l-0.066,0.023
	l-0.066,0.009l-0.055-0.003l-0.079-0.036l-0.106-0.025l-0.045-0.003h-0.086l-0.087,0.028l-0.062,0.033l-0.123,0.006l-0.068-0.002
	l-0.116-0.014l-0.127-0.034l-0.11-0.004l-0.1-0.011l-0.178-0.024l-0.037,0.007l-0.033,0.013l-0.02,0.035l-0.015,0.038l-0.117,0.003
	l-0.087-0.004l-0.207,0.012l-0.168-0.004l-0.013-0.058l0.027-0.082l0.074-0.073l-0.06-0.01l-0.039,0.052l-0.038,0.078l-0.062-0.029
	l-0.009-0.091l-0.03-0.065l-0.046,0.011l-0.002,0.044l-0.036,0.037l0.007,0.05l0.035,0.005l0.036,0.025l0.041,0.042l0.028,0.031
	l-0.004,0.036l-0.097,0.025l-0.083,0.101l-0.244-0.007l-0.079-0.009l-0.211-0.008l-0.086-0.054l-0.068,0.003l-0.08,0.013
	l-0.087,0.01l-0.085-0.01l-0.102,0.003l-0.079,0.061l-0.041,0.023l-0.022,0.073l0.026,0.056l0.074,0.061l-0.141,0.107l-0.078-0.029
	l-0.136,0.023l-0.06,0.08l-0.134-0.023l-0.11-0.05l-0.153-0.05l-0.198-0.016l-0.132-0.097l-0.021-0.097l0.03-0.01l0.101-0.004
	l-0.016-0.077l-0.074-0.052l-0.973-0.339l-0.426-0.138l-0.195-0.061l-0.082-0.097l-0.009-0.034l-0.025-0.038l-0.03-0.034
	l-0.029-0.018l-0.035,0.006l-0.011,0.074l-0.031,0.029l-0.087,0.007l-0.087-0.028l-0.157-0.088l0.088-0.061l0.085-0.04l0.077-0.053
	l0.063-0.088l-0.004-0.091l-0.135-0.188l-0.043-0.206l-0.071-0.076l-0.18-0.106l-0.09-0.071l-0.141-0.23l-0.067-0.077l-0.077-0.066
	l-0.084-0.05l-0.089-0.04l-0.12-0.03l-0.065-0.009h-0.057l-0.053-0.007l-0.084-0.045l-0.049-0.01l-0.105-0.004l-0.12-0.024
	l-0.121-0.042l-0.102-0.052l-0.035-0.03l-0.067-0.076l-0.033-0.026l-0.046-0.017l-0.094-0.02l-0.042-0.025l0.026-0.083l-0.111-0.047
	l-0.261-0.044l-0.061-0.028l-0.17-0.116l-0.037-0.014l-0.067,0.003l-0.033-0.007l-0.02-0.017l-0.031-0.048l-0.025-0.015
	l-0.063-0.022l-0.126-0.071l-0.056-0.022h-0.066l-0.127,0.029l-0.063,0.003l-0.287-0.113l-0.159-0.043l-0.077,0.045l0.025,0.046
	l0.053,0.026l0.039,0.026l-0.022,0.051l-0.052,0.017h-0.156l-0.063,0.019l-0.044,0.003l-0.147-0.042l-0.046-0.02l-0.021-0.02
	l-0.055-0.082l-0.023-0.015l-0.047,0.018l-0.035-0.003l-0.108-0.063l-0.067-0.083l-0.029-0.104l0.01-0.129l-0.011-0.104
	l-0.063-0.109l-0.09-0.093l-0.094-0.062l-0.141-0.026l-0.146,0.02l-0.14,0.054l-0.115,0.068l-0.151,0.041l-0.158-0.048l-0.577-0.345
	l-0.17-0.073l-0.285-0.089l-0.687-0.422l-0.603-0.277l-0.305-0.089l-0.315-0.034l-0.159-0.037l-0.169-0.12l-0.226-0.104
	l-0.231-0.178l-0.047,0.057l-0.074-0.01l-0.169-0.068l-0.351-0.039l-0.512-0.152l-0.225-0.114l-0.032-0.021l-0.029-0.033
	l-0.015-0.034l-0.007-0.074l-0.016-0.036l-0.048-0.032l-0.165-0.063l-0.512-0.13l-0.231,0.003l-0.064-0.007l-0.147-0.041
	l-0.191-0.081l-0.169-0.028l-0.29-0.14l-0.104-0.069l-0.066-0.064l-0.097-0.129l-0.069-0.053l-0.062-0.029l-0.189-0.036
	l-0.129-0.058l-0.244-0.163l-0.136-0.045l-0.045,0.002l-0.085,0.02h-0.037l-0.037-0.013l-0.051-0.038l-0.081-0.046l-0.09-0.093
	l-0.067-0.029l-0.304-0.068l-0.117-0.055l-0.055-0.014l-0.068,0.012l-0.247-0.014l0.019,0.024l-0.022,0.015l-0.07-0.022l0.015-0.065
	l0.05-0.081l0.033-0.074l0.045-0.007l-0.018-0.019l-0.072-0.035l-0.025,0.007l-0.104,0.042l-0.033,0.007l-0.023,0.016l0.018,0.024
	l-0.018,0.014l-0.03-0.014l-0.036-0.01l-0.037-0.005l-0.03,0.01l-0.056,0.042l-0.032,0.018l-0.066-0.013l-0.229-0.003l-0.016,0.046
	l-0.039,0.023l-0.033,0.025l0.022,0.013l0.025,0.01l0.024,0.005l-0.045,0.005h-0.054l-0.048,0.013l-0.024,0.045l-0.018,0.045
	l-0.077,0.097l-0.017,0.033l-0.006,0.032l0.008,0.035l-0.022,0.016l-0.017-0.025l-0.023,0.016l-0.033,0.041l-0.075,0.033
	l-0.064,0.046l-0.009,0.083l-0.021-0.013l-0.003,0.001l-0.019,0.002l-0.019-0.025l0.024-0.017l-0.02-0.026l-0.029-0.018l0.001-0.032
	l0.019-0.036l0.022-0.03l-0.04,0.007l-0.034,0.018l-0.029,0.028l-0.028,0.039l0.018,0.024l0.023-0.018l0.019,0.025l-0.028,0.038
	l-0.005,0.041l0.015,0.085l-0.021-0.01l-0.015,0.003l-0.012,0.006l-0.015,0.003l-0.002-0.031l0.003-0.033l0.013-0.037l0.021-0.035
	l-0.012-0.011l-0.011-0.016l-0.013-0.022l-0.048,0.029l-0.03,0.034l-0.007,0.04l0.024,0.047l-0.026,0.001l-0.005,0.003l-0.002,0.007
	l-0.011,0.02l-0.011-0.011l-0.016-0.024l-0.008-0.011l-0.019,0.011l0.018,0.025l-0.026,0.017l-0.037-0.018l-0.027-0.006
	l-0.015,0.013l-0.005,0.033l-0.045-0.003L1171.21,584l-0.041-0.016l-0.022-0.01l-0.053-0.03l-0.003,0.016l-0.007,0.018l-0.002,0.021
	v0.026l-0.063-0.003l-0.001,0.025l0.024,0.036l0.011,0.037l-0.015,0.03l-0.03,0.049l-0.009,0.031l0.016,0.022l0.105,0.004
	l0.02,0.026l-0.021,0.018l-0.004,0.012v0.012l-0.002,0.013l-0.042-0.006l0.028,0.071l0.03,0.049l0.001,0.044l-0.064,0.062
	l-0.007-0.022l0.003-0.004l0.006-0.003l0.004-0.016l-0.043-0.009l-0.051-0.041l-0.04-0.043l-0.063-0.086l-0.043-0.01l-0.056,0.088
	l-0.016-0.054l-0.038-0.011l-0.002-0.103l0.012-0.046l0.019-0.032l-0.01-0.02l0.012-0.024l0.01-0.045l0.012-0.023l-0.039-0.011
	l-0.005-0.027l0.002-0.022l0.011-0.021l0.021-0.024l0.012,0.018l-0.004,0.008l-0.011,0.006l-0.003,0.007l0.044-0.005l0.033-0.011
	l0.013-0.023l-0.019-0.045l-0.017,0.013l-0.019-0.023l-0.04-0.007l-0.012-0.028l0.01-0.036l0.029-0.035l-0.018-0.025l-0.034-0.022
	l-0.087-0.189l0.018-0.001l0.028-0.006l0.018,0.002l-0.01-0.012l-0.026-0.039l-0.009,0.025l-0.004,0.014l-0.032-0.007l0.021-0.108
	l-0.021-0.163l-0.043-0.166l-0.089-0.193l-0.004-0.139l-0.054-0.124l-0.021-0.076l-0.021-0.221l-0.143-0.147l-0.131-0.164
	l-0.165-0.13l-0.1-0.262l-0.042-0.145l-0.018-0.13l-0.018-0.022l-0.02,0.013l-0.013-0.131l-0.022-0.049l-0.048-0.026l-0.017-0.022
	l-0.043-0.136l-0.041-0.044l-0.064,0.021l-0.016-0.022l-0.011-0.112l-0.056-0.187l-0.086-0.169l-0.101-0.066l-0.036-0.048
	l-0.012-0.092l-0.025-0.1l-0.168-0.367l-0.018-0.058l-0.023-0.104l-0.021-0.02l-0.031-0.055l0.009-0.051l0.043-0.093l-0.064-0.046
	l-0.066-0.074l-0.025-0.061l0.052-0.005l-0.005-0.015l-0.006-0.01V579.2l0.017-0.01l-0.062-0.035l-0.054-0.057l-0.024-0.062
	l0.396-0.186l0.426-0.199l0.557-0.264l0.498-0.235l0.531-0.252l0.424-0.202l0.203-0.096l0.414-0.199l0.372-0.178l0.084-0.066
	l0.058-0.09l0.139-0.526l0.134-0.514l0.146-0.564l0.097-0.373l-0.049-0.484l-0.048-0.47l-0.035-0.347l-0.044-0.418l0.016-0.133
	l0.055-0.106l0.232-0.252l0.237-0.261l0.384-0.422l0.379-0.42l0.356-0.393l0.313-0.346l0.022-0.109l-0.113-0.436l-0.085-0.322
	l-0.092-0.352l-0.076-0.287l-0.008-0.094l0.027-0.113l0.196-0.438l0.219-0.485l0.133-0.295l0.011-0.029l0.002-0.003v-0.001
	l-0.002-0.003l-0.291-0.062l-0.643-0.14l-0.643-0.139l-0.642-0.141l-0.64-0.143l-0.019-0.003l-0.018-0.004l-0.019-0.005
	l-0.018-0.004l-0.729-0.132l-0.716-0.127l-0.011-0.003l-0.725-0.132l-0.724-0.133l0.093-0.122l0.501-0.663l0.592-0.785l0.59-0.789
	l0.14-0.186l0.45-0.603l0.086-0.115l0.452-0.597l0.537-0.713l0.535-0.713l0.535-0.716l0.27-0.364l0,0l0,0l0.071-0.123l0.097-0.613
	l0.025-0.089l0.023-0.033l0.006-0.01l0.008-0.009l0.006-0.01l0.006-0.01l0.683-0.361l0.682-0.364l0.681-0.365L1177.147,558.19z"/></svg>