<?xml version="1.0" encoding="utf-8"?>
<!-- Generator: Adobe Illustrator 15.0.0, SVG Export Plug-In . SVG Version: 6.00 Build 0)  -->
<!DOCTYPE svg PUBLIC "-//W3C//DTD SVG 1.1//EN" "http://www.w3.org/Graphics/SVG/1.1/DTD/svg11.dtd">
<svg version="1.1" id="Ebene_1" xmlns="http://www.w3.org/2000/svg" xmlns:xlink="http://www.w3.org/1999/xlink" x="0px" y="0px"
	 width="1920px" height="1080px" viewBox="0 0 1920 1080" enable-background="new 0 0 1920 1080" xml:space="preserve">

<path fill="#F4E0B6" stroke="#FFFFFF" d="M1429.005,380.234l0.082-0.036l0.12-0.003l0.102-0.012l0.116,0.004l0.234,0.038
	l0.093-0.001l0.172-0.051l0.155-0.02l0.066-0.026l0.072-0.031l0.316,0.063l0.147,0.082l0.331,0.227l0.207,0.069l0.046-0.008
	l0.044-0.027l0.048-0.017l0.065,0.021l0.022,0.031l0.018,0.051v0.056l-0.026,0.041l-0.002,0.068l0.109,0.089l0.233,0.128
	l-0.056,0.108l-0.092-0.001l-0.11-0.047l-0.122-0.03l-0.051,0.035l-0.06,0.062l-0.064,0.029l-0.074-0.066l-0.055,0.041l-0.057,0.031
	l-0.065,0.001l-0.07-0.052l-0.024,0.044l-0.044,0.016l-0.063-0.004l-0.075-0.021l-0.001,0.097l-0.119,0.032l-0.164,0.012
	l-0.134,0.032l-0.086,0.06l-0.092,0.086l-0.038,0.103l0.075,0.103l-0.632-0.145l-0.069-0.038l-0.291-0.193l-0.014-0.052l0.008-0.123
	l-0.017-0.058l-0.041-0.051l-0.041-0.04l-0.019-0.029l-0.008-0.031l-0.064-0.156l0.046-0.028l-0.127-0.171l-0.038-0.1l0.039-0.085
	L1429.005,380.234z M1428.688,381.34l0.021,0.094l-0.042,0.047l-0.044-0.001l-0.052-0.018l-0.068-0.002l-0.042,0.013l-0.125,0.066
	l-0.064-0.086l-0.122-0.048l-0.116-0.062l-0.045-0.133l-0.031-0.165l-0.095-0.082l-0.129-0.062l-0.134-0.104l0.16,0.036l0.113,0.011
	l0.062-0.041l0.048-0.058l0.072-0.037l0.11,0.007l0.079,0.05l0.063,0.086l0.06,0.117l0.092,0.121L1428.688,381.34z
	 M1424.538,381.573l0.262-0.088l0.064,0.011l0.114,0.043l0.063,0.03l-0.015,0.033l-0.073,0.045l-0.055,0.074l-0.004,0.034
	l0.009,0.074l0.021,0.076l0.026,0.065l0.008,0.061l-0.03,0.068l-0.051,0.041l-0.06,0.012l-0.065-0.02l-0.068-0.055l-0.043,0.032
	l0.037,0.054v0.053l-0.031,0.045l-0.056,0.025l-0.068-0.006l-0.229-0.099l-0.068-0.067l-0.052-0.133l-0.021-0.149l0.017-0.113
	l0.053-0.007l0.055,0.005l0.121,0.029l0.052-0.018l0.055-0.115l0.027-0.023L1424.538,381.573z M1424.318,380.787l0.062-0.011
	l0.118,0.005l0.256,0.06l-0.256,0.25l-0.087,0.023l-0.088-0.024l-0.05-0.063l0.036-0.094l-0.098-0.028l-0.021-0.049l0.041-0.047
	L1424.318,380.787z M1423.748,380.884l0.224-0.019l0.056,0.014l0.074,0.046l0.012,0.025l0.023,0.078l0.02,0.021l0.031,0.02
	l0.125,0.11l0.022,0.064l-0.065,0.013l-0.164-0.026l-0.054-0.032l-0.021-0.047l-0.026-0.045l-0.073-0.028l0.003-0.042l0.036-0.044
	l-0.04-0.021l-0.069,0.015l-0.048,0.064l0.106,0.056l-0.001,0.069l-0.068,0.059l-0.094,0.029l-0.378-0.026l-0.06-0.014l-0.03-0.052
	l-0.072-0.073l-0.084-0.067l-0.063-0.034l-0.061-0.062l-0.033-0.111l0.014-0.102l0.074-0.028l0.113,0.029l0.082,0.072l0.068,0.076
	l0.112,0.054l0.106,0.006L1423.748,380.884z M1406.445,500.144l0.025,0.077v0.07l-0.047,0.038l-0.107-0.02l0.01-0.037l0,0h0.002
	l0.059,0.019l0.02,0.003l-0.016-0.115l-0.045-0.099l-0.074-0.078l-0.105-0.053l0.004-0.025l0.011-0.005l0.014,0.004h0.02l0,0
	l0.187,0.154L1406.445,500.144z M1422.951,382.635l0.046,0.061l-0.011,0.074l-0.053,0.148l-0.058,0.11l-0.127,0.086l-0.155,0.053
	l-0.137,0.001l-0.17-0.048l-0.088-0.038l-0.059-0.044l-0.05-0.089l0.008-0.061l0.057-0.022l0.27,0.066l0.138,0.014l0.115-0.029
	l0.102-0.09l0.074-0.128l0.047-0.057L1422.951,382.635z M1421.789,379.973l-0.002,0.045l-0.07-0.01l-0.232-0.089l-0.093-0.023
	l-0.204,0.021l-0.093-0.019l-0.06-0.083l0.121,0.028l0.165-0.04l0.083-0.009l0.112,0.018l0.073,0.034l0.111,0.063L1421.789,379.973z
	 M1417.461,383.26l0.188,0.223l-0.145,0.344l-0.097,0.038l-0.163,0.01l-0.151-0.02l-0.066-0.044l-0.02-0.091l-0.059-0.101
	l-0.084-0.071l-0.097-0.004l-0.013-0.069l0.032-0.045l0.112-0.098l0.062-0.074l0.172-0.083L1417.461,383.26z M1397.182,494.266
	l0.023,0.033l-0.061-0.012l0,0l-0.055-0.024l-0.047-0.036l-0.032-0.046l0.001-0.001l0.015-0.003l0.043,0.005l0.041,0.025
	l0.038,0.028L1397.182,494.266z M1396.746,494.029l0.007-0.011l0.002-0.014l0.001,0.001l0.008,0.013l0.014,0.009l0.003,0.009
	l-0.019,0.014l-0.018-0.009L1396.746,494.029z M1392.988,499.048L1392.988,499.048l-0.023-0.033l-0.055-0.111v-0.001l0.01-0.008
	l0.008,0.003l0.009,0.007l0.015,0.003l0,0l0.026,0.073l0.009,0.034L1392.988,499.048z M1391.609,499.14l0.026,0.05l-0.021-0.003
	l-0.005-0.011l0.002-0.017L1391.609,499.14L1391.609,499.14z M1392.934,492.85l0.007,0.05l-0.007,0.018l-0.015,0.002l-0.016-0.001
	l0,0l0.023-0.051L1392.934,492.85z M1390.777,501.023l0.131,0.125l-0.117-0.031l-0.098-0.063l-0.044-0.048l-0.032-0.033
	l-0.035-0.046l-0.024-0.032l0,0l0.077,0.021L1390.777,501.023z M1408.094,382.409l0.107,0.01l0.195,0.036l0.154-0.023l0.171,0.052
	l0.118,0.144l0.066,0.088l0.04,0.065l0.074,0.078l0.161,0.029l0.023-0.072l0.051-0.086l0.174,0.19l0.122,0.09l0.085,0.143
	l-0.059,0.168l-0.092,0.067l-0.086,0.084l-0.014,0.118l0.087,0.105l-0.01,0.12l-0.069,0.016l-0.179-0.177l-0.168-0.102l-0.126-0.047
	l-0.104,0.018l-0.098,0.076l-0.056,0.048l-0.256-0.058l-0.178-0.043l-0.141-0.018l-0.05-0.018l0.016-0.046l-0.035-0.125
	l-0.046-0.056l-0.131-0.07l-0.152-0.072l-0.17-0.332l-0.035-0.252l0.125-0.085l0.146-0.052l0.191,0.029L1408.094,382.409z
	 M1390.021,497.566l-0.003,0.031l-0.029-0.007l-0.008-0.018v-0.021l-0.007-0.027l0.017,0.02l0.019,0.009L1390.021,497.566z
	 M1389.627,497.283L1389.627,497.283l-0.088,0.002h-0.016l0,0l-0.104-0.049l-0.198-0.141v-0.001l0.01-0.036l0.023,0.008l0.015,0.013
	l0.013,0.018l0.017,0.019l0.088,0.031l0.086,0.04L1389.627,497.283z M1388.267,495.554l0.023,0.024l-0.054-0.007l-0.043-0.011
	l-0.023-0.023l0.003-0.035l0.065,0.031L1388.267,495.554z M1404.977,381.323l0.003,0.06l-0.023,0.077l-0.034,0.039l-0.037,0.03
	l-0.037,0.046l-0.124-0.059l-0.026-0.017l-0.023-0.045v-0.084l-0.018-0.044l-0.073-0.049l-0.094-0.012l-0.171,0.001l-0.164-0.083
	l0.008-0.098l0.106-0.087l0.131-0.047l0.075-0.018l0.063,0.05l0.067,0.07l0.091,0.038l0.077-0.028l0.046-0.051l0.042-0.007
	l0.063,0.107l0.02,0.057L1404.977,381.323z M1403.866,383.066v0.114l-0.067,0.078l-0.206-0.025l-0.082,0.049l-0.037-0.009
	l0.006-0.06l0.034-0.133l0.029-0.058l0.035-0.052l0.117-0.019l0.105,0.035L1403.866,383.066z M1386.688,496.93v0.001l-0.027-0.032
	l-0.005-0.025l0.01-0.037l0,0l0.019,0.048l0.005,0.021L1386.688,496.93z M1402.209,378.423l0.008,0.094l-0.092,0.052l-0.11,0.022
	l-0.048-0.002l-0.035,0.042l-0.024,0.069l-0.033,0.049l-0.054,0.042l-0.05,0.02l-0.038,0.028l-0.02,0.072l-0.049,0.021l-0.1-0.078
	l-0.096-0.102l-0.044-0.056l0.011-0.178l0.036-0.048l0.082,0.055l0.264-0.054l0.044-0.001l0.048-0.023L1402.209,378.423z
	 M1401.124,377.976l0.056,0.061l-0.03,0.04l-0.084,0.04l-0.095,0.03l-0.065,0.01l-0.081-0.018l-0.101-0.035l-0.093-0.046
	l-0.055-0.05l-0.018-0.05l0.006-0.046l0.029-0.033l0.051-0.013l0.015,0.001l0.015,0.002l0.027,0.01l0.112,0.063l0.037,0.016
	l0.178,0.003L1401.124,377.976z M1400.561,373.791l0.037,0.108l-0.061-0.003l-0.048-0.057L1400.561,373.791z M1397.15,379.207
	l0.029,0.07l-0.384-0.025l-0.058-0.027l-0.06-0.041l-0.29-0.106l-0.091-0.01l-0.057-0.078l-0.048-0.051l-0.027-0.038l0.006-0.044
	l0.017-0.025l0.022-0.018l0.025-0.014l0.029-0.006l0.059-0.009l0.083,0.048l0.27,0.075l0.12,0.058l0.052,0.048l0.087,0.106
	l0.031,0.031l0.069,0.027l0.063,0.007L1397.15,379.207z M1394.596,370.304l0.006,0.083l-0.053,0.056l-0.066-0.112L1394.596,370.304z
	 M1393.234,376.599l0.01-0.032l-0.012-0.049l-0.006-0.058l0.03-0.032l0.162-0.048l0.175,0.101l0.168,0.045l0.345,0.05l-0.007-0.025
	l-0.008-0.062l-0.009-0.025l0.085,0.029l0.065,0.123l0.071,0.043l0.059,0.044l0.04,0.079l0.035,0.093l0.044,0.079l-0.094-0.019
	l-0.05,0.033v0.055l0.055,0.052l0.084,0.007l0.068-0.042l0.039-0.065l-0.013-0.112l0.054-0.041l0.131-0.059l0.09-0.098l0.051-0.008
	l0.175,0.159l0.146,0.057l0.342,0.078l0.154,0.06l0.216,0.11l0.145,0.125l-0.064,0.098l-0.003,0.038l0.052,0.032l0.019,0.044
	l-0.01,0.042l-0.037,0.026h-0.062l-0.125-0.056l-0.068-0.003l-0.004,0.04l0.11,0.025l-0.025,0.097l0.086,0.063l0.121,0.031
	l0.079-0.002l0.112-0.069l0.067-0.013l0.056,0.032l0.083,0.071l-0.002,0.035l-0.102-0.017l-0.046,0.028l-0.014,0.054l-0.003,0.058
	l0.043,0.024l0.223,0.168l0.044,0.019l0.027,0.021l0.028,0.004l0.046-0.03l0.026-0.057l-0.03-0.054l-0.067-0.069l0.032-0.04
	l0.05-0.007l0.047,0.002l0.021-0.01l0.022-0.037l0.143-0.09l0.093,0.041h0.119l0.121,0.017l0.103,0.084l0.108-0.063l0.108-0.034
	l0.114-0.005l0.123,0.029l0.243,0.128l0.142,0.055l0.202-0.04l0.136,0.019l0.257,0.066l0.067,0.062l0.072,0.107l0.069,0.063
	l0.056-0.063l0.071,0.059l0.034,0.075l0.043,0.069l0.097,0.036l-0.003,0.036l-0.063,0.013l-0.057,0.029l-0.049,0.041l-0.035,0.049
	l0.026-0.005l0.09-0.003v0.151l-0.024,0.135l0.032,0.008l0.062-0.022l0.174-0.012l0.038-0.031l0.021-0.051l0.049-0.054l0.063-0.03
	l0.067,0.019l0.041-0.061l0.023,0.019l0.021,0.056l0.025,0.049l0.039,0.054l0.004,0.029l0.008,0.012l0.05,0.003l0.047-0.016
	l0.032-0.033l0.042-0.026l0.077,0.008l0.037,0.039l0.041,0.062l0.049,0.046l0.066-0.009l0.039-0.013l0.059-0.006l0.053,0.003
	l0.021,0.019l-0.012,0.099l0.097,0.013l0.062,0.07l0.073,0.129l0.08,0.102l0.081-0.014l0.04,0.009l0.012,0.044l0.051,0.116
	l0.049-0.002l0.029,0.058l0.013,0.085v0.08l0.034,0.069l0.092-0.031l0.147-0.101l-0.014,0.06l0.005,0.052l0.024,0.047l0.046,0.038
	l0.004-0.035l0.129,0.136l0.069,0.043l0.12,0.045l0.449,0.106l0.003-0.039l-0.181-0.065l-0.104-0.049l-0.043-0.054l0.012-0.074
	l0.03-0.055l0.071-0.026l0.127,0.012l0.184,0.056l0.838,0.395l0.038,0.037l0.001,0.109l0.026,0.068l0.169,0.217l0.053,0.044
	l0.07,0.024l0.12,0.027l0.021-0.018l0.005-0.051l-0.013-0.054l-0.037-0.032l-0.208-0.049l0.013-0.022l0.021-0.055l0.012-0.022
	l-0.103-0.019l-0.057-0.045l-0.003-0.055l0.063-0.052l0.055-0.002l0.188,0.022l0.061,0.015l0.043,0.036l0.063,0.084l0.055,0.026
	l0.167,0.041l0.178,0.094l0.094,0.067l0.061,0.067l-0.073,0.003l-0.022,0.027l-0.008,0.042l-0.025,0.043l-0.183,0.123l-0.054,0.009
	l-0.055-0.018l-0.043-0.005l-0.021,0.045l-0.036,0.054l-0.074,0.025l-0.078,0.004l-0.05-0.012l-0.033-0.043l-0.008-0.053
	l-0.01-0.047l-0.046-0.026l-0.041,0.021l-0.018,0.06l-0.025,0.055l-0.065,0.012l-0.063-0.009l-0.106,0.003l-0.063-0.009l-0.08-0.001
	l-0.011,0.039l0.02,0.055l0.007,0.038l-0.07,0.073l-0.088-0.005l-0.241-0.092l-0.225-0.053l-0.037,0.009l-0.026,0.038l-0.021,0.045
	l-0.038,0.051l0.004,0.019l-0.001,0.016l-0.03,0.008l-0.034-0.006l-0.023-0.019l-0.014-0.02l-0.001-0.009l-0.157-0.079l-0.184-0.168
	l-0.01-0.042l0.03-0.028l0.125-0.051l0.04-0.004l0.02-0.024l-0.012-0.079l0.084,0.056l0.07-0.001l0.024-0.03l-0.045-0.031
	l-0.3-0.087l-0.071-0.043l-0.085-0.009l-0.084,0.002l-0.076-0.009l-0.081-0.039l-0.114-0.094l-0.058-0.037l-0.544-0.121
	l-0.105-0.053l-0.232-0.177l-0.096-0.096l0.068-0.025l0.004-0.038l-0.092-0.058l-0.035-0.058l0.035-0.034l0.123,0.011l0.104,0.053
	l0.045,0.008l0.021-0.039l-0.003-0.032l-0.012-0.018l-0.014-0.01l-0.006-0.019l0.012-0.104v-0.023l-0.041-0.108l-0.031-0.033
	l-0.063-0.036l-0.226,0.001l-0.016,0.033l-0.029,0.035l-0.034,0.026l-0.026,0.008l-0.058-0.016l-0.001-0.008l0.016-0.019
	l-0.019-0.092l0.002-0.043l-0.018-0.03l-0.072-0.009l-0.057,0.018l-0.024,0.039l-0.011,0.124l-0.053,0.1l-0.112,0.034l-0.135-0.008
	l-1.277-0.323l-0.07-0.044l-0.102-0.12l-0.057-0.041l-0.024-0.03l-0.007-0.03l0.003-0.08l-0.002-0.021l-0.064-0.037l-0.026,0.024
	l-0.018,0.055l-0.035,0.053l-0.087,0.016l-0.376-0.073l-0.244-0.019l-0.064-0.034l-0.043-0.052l-0.035-0.057l-0.048-0.049
	l0.037-0.099l-0.088-0.098l-0.139-0.08l-0.116-0.048l-0.276-0.065l-0.137-0.111l-0.088-0.056l-0.042,0.014l-0.067,0.102
	l-0.132-0.037l-0.303-0.179l-0.169-0.139l-0.029-0.031l-0.018-0.01l-0.033,0.008l-0.087,0.05l-0.04,0.012l-0.063-0.073l-0.112-0.012
	l-0.102-0.028l-0.034-0.119l-0.05-0.011l-0.243,0.017l-0.079-0.042l-0.034-0.007l-0.082,0.048l-0.103-0.057l-0.239-0.263
	l-0.037-0.032l-0.063-0.034l-0.052-0.015l-0.131-0.024l-0.037-0.013l-0.07-0.051l0.003-0.007l-0.036-0.072l-0.124-0.147l-0.04-0.035
	l-0.055-0.025l-0.091-0.022l-0.039-0.031l-0.025-0.053l-0.01-0.1l-0.016-0.041l0.042-0.027l0.021-0.025l0.002-0.031l-0.016-0.049
	l-0.033,0.022l-0.03,0.001l-0.035-0.019l-0.047-0.038L1393.234,376.599z M1392.746,376.347l0.12-0.023l-0.064,0.157l-0.053,0.087
	l-0.057,0.038l-0.053-0.164l0.006-0.07l0.07-0.014L1392.746,376.347z M1372.917,438.474l0.023,0.191l0,0l-0.102,0.114l-0.36,0.167
	l-0.146-0.124l-0.027-0.067l0.201-0.228l0.16-0.13l0.095-0.056l0.06-0.01l0.046,0.041L1372.917,438.474z M1350.225,386.55
	l0.001,0.062l-0.02,0.075l0.017,0.091l-0.06,0.103l-0.229-0.025l-0.17-0.101l0.115-0.125l0.042-0.067l0.057-0.052l0.073-0.027
	l0.092,0.014L1350.225,386.55z M1349.1,390.109l0.015,0.051l-0.019,0.054l-0.067,0.117l-0.022,0.135l-0.035,0.05l-0.086,0.02
	l-0.053-0.011l-0.061-0.027l-0.114-0.067l-0.47-0.338l-0.223-0.214l-0.026-0.146l0.525,0.051l0.289,0.103l0.074,0.178l0.144-0.018
	l0.069,0.013L1349.1,390.109z M1348.495,387.36l0.263,0.089l-0.032,0.041l-0.084,0.16l-0.01,0.036l-0.042-0.005l-0.072,0.007
	l-0.045-0.009l-0.033-0.02l-0.12-0.097l-0.122-0.125l-0.097-0.127l-0.019-0.075l0.041-0.054l0.072-0.016l0.081,0.042l0.105,0.088
	L1348.495,387.36z M1347.943,389.946l0.037,0.132l-0.042,0.032l-0.084-0.019l-0.087-0.04l-0.06-0.035l-0.075-0.06l-0.071-0.069
	l-0.037-0.069l0.023-0.06l0.131-0.031l0.148,0.081L1347.943,389.946z M1271.17,414.154l0.068-0.104l0.004-0.15l-0.115-0.281
	l-0.011-0.147l0.108-0.252l0.197,0.027l0.225,0.188l0.188,0.226l0.349,0.197l0.403-0.006l0.794-0.135l0.184,0.033l0.365,0.112
	l0.182,0.006l0.265-0.093l0.096-0.004l0.976,0.104l0.195-0.033l0.204-0.114l0.145-0.166l0.512-0.947l0.185-0.213l0.392-0.273
	l0.34-0.117l0.144-0.13l0.126-0.184l0.119-0.135l0.152-0.083l0.051-0.009l0.173-0.025l0.12,0.004l0.112,0.031l0.103,0.059
	l0.091,0.085l0.159,0.438l0.01,0.501l0.083,0.425l0.38,0.207l0.643,0.02l0.322,0.049l0.312,0.096l0.866,0.432l0.303,0.027l0.19-0.04
	l0.483-0.27l0.01-0.005l0.443-0.101l0.059-0.057l0.102-0.149l0.057-0.063l0.068-0.059l0.081-0.031l0.095,0.017l0.112,0.038
	l0.039-0.026l-0.009-0.183l0.059-0.138l0.277-0.275l0.101-0.138l0.136-0.356l0.121-0.123l0.176,0.057l0.058,0.067l0.094,0.151
	l0.077,0.068l0.237,0.122l0.079,0.064l0.176,0.07l0.151-0.04l0.294-0.18l0.174-0.027l0.153,0.029l0.15,0.01l0.161-0.076l0.144-0.062
	l0.159,0.039l0.153,0.111l0.123,0.15l0.138,0.271l0.162,0.573l0.127,0.273l-0.007,0.091l-0.057,0.079l-0.07,0.078l-0.048,0.085
	l-0.02,0.118l-0.01,0.149l0.008,0.152l0.03,0.117l0.09,0.089l0.26,0.167l0.067,0.114l-0.011,0.042l-0.068,0.111l-0.023,0.05
	l-0.005,0.066l0.007,0.134l-0.009,0.068l0.021,0.18l-0.09,0.131l-0.146,0.094l-0.153,0.07l-0.415,0.267l-0.177,0.013l-0.27-0.021
	l-0.073-0.021l-0.075-0.062l-0.066-0.073l-0.076-0.041l-0.102,0.031l-0.072,0.092l0.007,0.102l0.097,0.195l0.034,0.105l0.01,0.096
	l-0.024,0.201l-0.206,0.662l-0.024,0.196l0.013,0.129l0.086,0.057l0.284-0.027l0.295-0.082l0.053,0.004l0.021,0.031l0.017,0.042
	l0.033,0.042l0.055,0.033l0.03,0.005l0.026-0.003l0.466,0.073l0.099,0.049l0.075,0.06l0.062,0.018l0.03-0.043l0.002-0.002
	l0.022-0.03l0.136-0.136l0.156-0.048l0.171-0.017l0.686-0.223l0.137-0.095l0.171-0.159l0.065-0.035l0.112-0.009l0.084,0.049
	l0.165,0.185l0.085,0.068l0.187,0.12l0.079,0.066l0.121,0.191l0.072,0.047l0.15-0.068l0.04,0.02l0.042,0.031l0.047,0.018
	l0.043-0.008l0.079-0.032l0.095-0.002l0.042-0.011l0.036-0.023l0.022-0.036l0.026-0.086l0.21-0.107l0.161-0.058l0.051,0.047
	l0.049,0.111l0.174,0.591l0.097,0.063l0.153-0.135l0.151-0.094l0.151,0.077l0.158,0.145l0.171,0.11l0.084,0.023h0.053l0.042-0.026
	l0.111-0.119l0.019-0.054l0.013-0.132l0.055-0.119l0.018-0.064l-0.009-0.085l-0.004-0.009l-0.03-0.073l-0.049-0.079l-0.119-0.14
	l0.06-0.063l0.142-0.072l0.049-0.067l-0.09-0.104l-0.194-0.118l-0.152-0.166l0.035-0.242l0.053-0.054l0.141-0.088l0.132-0.122
	l0.074-0.002l0.079,0.011l0.086-0.02l0.025-0.031l0.038-0.084l0.03-0.024l0.056-0.001l0.042,0.021l0.041,0.031l0.049,0.024
	l0.044-0.002l0.072-0.051l0.044-0.011l0.04,0.014l0.035,0.028l0.039,0.025h0.055l0.07-0.052l0.043-0.073l0.056-0.05l0.108,0.015
	l0.092,0.035l0.086,0.021l0.086-0.002l0.087-0.035l0.093-0.096l0.074-0.113l0.088-0.091l0.09-0.017l0.05-0.009l0.163,0.033
	l0.071-0.005l0.035-0.054l0.011-0.083l0.02-0.073l0.035-0.067l0.056-0.054l0.025-0.014l0.026-0.007l0.028-0.002l0.029,0.005
	l0.076-0.019l0.093-0.041l0.085-0.055l0.051-0.056l0.054-0.091l0.037-0.047l0.008-0.059l-0.044-0.232l0.012-0.089l0.051-0.191
	l0.019-0.257l0.042-0.097l0.179-0.309l0.059-0.065l0.079-0.033l0.159-0.027l0.14-0.063l0.046-0.041l0.021-0.016l0.063-0.056
	l0.221-0.281l0.111-0.075l0.136-0.028l0.129-0.042l0.09-0.118l0.009-0.086l-0.026-0.174l0.023-0.076l0.055-0.042l0.213-0.053
	l0.106-0.106l0.054-0.014l0.146,0.186l0.016,0.043l-0.008,0.04l-0.015,0.044l-0.01,0.043l0.014,0.039l0.06,0.021l0.071-0.024
	l0.075-0.041l0.069-0.02l0.097,0.021l0.063,0.054l0.054,0.071l0.069,0.073l0.018-0.183l0.062-0.167l0.191-0.305l0.369-0.369
	l0.151-0.201l0.132-0.12l0.041-0.071l0.017-0.097l0.002-0.077l0.017-0.073l0.06-0.085l0.363-0.367l0.133-0.095l0.082-0.032
	l0.179-0.031l0.085-0.03l0.068-0.048l0.271-0.335l0.192-0.322l0.114-0.122l0.16-0.042l0.076-0.006l0.064,0.062l-0.009,0.037v0.349
	l-0.041,0.074l-0.097,0.012l-0.071,0.024l0.025,0.092l0.062,0.114l0.037,0.087l0.144-0.012l0.096,0.14l0.104,0.354l0.04,0.088
	l0.155,0.216l0.031,0.064l0.05,0.206l0.064,0.162l0.017,0.073l-0.001,0.099l-0.032,0.176l0.014,0.083l0.068,0.072l0.151,0.129
	l0.116,0.163l0.194,0.344l0.043,0.129l-0.018,0.307l0.051,0.158l0.109,0.121l0.121,0.047l0.132,0.003l0.146-0.015l0.136,0.006
	l0.102,0.048l0.081,0.096l0.074,0.148l0.009,0.033l0.011,0.07l0.011,0.033l0.027,0.031l0.03,0.004l0.03-0.001l0.024,0.011
	l0.033,0.05l0.022,0.056l0.035,0.12l0.001,0.001l0.035,0.063l0.015,0.054l0.021,0.044l0.057,0.039l0.035,0.045l-0.002,0.154
	l0.02,0.064l0.077,0.052l0.09-0.003l0.186-0.038l0.201,0.042l0.057-0.007l0.019-0.039l0.011-0.044l0.037-0.024l0.092,0.023
	l0.105,0.063l0.281,0.222l-0.022,0.042l-0.059,0.043l-0.015,0.085l0.063,0.053l0.221-0.001l0.076,0.017l0.046,0.084l-0.004,0.101
	l-0.03,0.099l-0.032,0.077l0.019,0.173l0.153,0.166l0.199,0.125l0.16,0.047h0.001l0.07,0.074l0.026,0.088l0.013,0.093l0.029,0.096
	l0.061,0.09l0.07,0.063l0.082,0.048l0.095,0.042l0.201,0.049l0.088-0.063l0.041-0.082l0.02-0.039l0.126-0.123l0.233-0.084
	l0.067-0.05l0.055-0.081l0.075-0.158l0.066-0.063l0.039-0.015l0.091-0.02l0.046-0.023l0.028-0.033l0.044-0.079l0.037-0.025
	l0.273-0.037l0.076-0.03l0.062-0.083l0.016-0.098l0.005-0.101l0.032-0.094l0.069-0.069l0.272-0.117l0.072-0.076l-0.057-0.048
	l-0.313-0.081l-0.078-0.045l-0.052-0.073l-0.02-0.114l0.026-0.08l0.032-0.101l0.031-0.004l0.039,0.024l0.044,0.02l0.048-0.017
	l0.063-0.069l0.047-0.072l0.08-0.167l0.056-0.045l0.186-0.032l0.07-0.029l0.058-0.068l0.079-0.135l0.068-0.061l0.219-0.116
	l0.066-0.063l0.04-0.083l0.056-0.195l0.046-0.058l0.082-0.01l0.073,0.02l0.073,0.003l0.082-0.067l0.043-0.068l0.043-0.088
	l0.028-0.091l-0.001-0.083l0.044-0.045l0.056,0.002l0.062,0.015l0.062-0.015l0.101-0.208l0.211-0.442l0.084-0.091l0.138-0.056
	l0.31,0.012l0.149-0.013l0.358-0.168l0.132-0.021l0.007,0.082l0.034,0.034l0.044-0.017l0.039-0.071l0.063,0.041l0.035-0.043
	l0.011-0.084l-0.012-0.08l-0.044-0.065l-0.053-0.043l-0.036-0.047l0.013-0.076l0.063-0.096l0.093-0.076l0.104-0.055l0.105-0.028
	l0.073,0.003l0.052,0.015l0.05-0.003l0.071-0.053l0.308-0.348l0.087-0.073l0.104-0.028l0.001-0.001l0,0l0.089-0.069l0.116-0.221
	l0.065-0.099l0.104-0.073l0.23-0.122l0.186-0.192l0.123-0.099l0.106-0.105l0.044-0.127l-0.038-0.134l-0.148-0.267l-0.018-0.162
	l0.087-0.234l0.062-0.098l0.005-0.005l0.097-0.069l0.107-0.057l0.063-0.066l0.128-0.18l0.567-0.41l0.261-0.307l0.3-0.169
	l0.099-0.165l0.064-0.42l0.019-0.645l0.063-0.09l0.017-0.023l0.142-0.039l0.197,0.009l0.366,0.084l0.193,0.015l0.137-0.065
	l0.188-0.574l0.064-0.106l0.164-0.177l0.144-0.274l0.143-0.578l0.107-0.151l0.237-0.171l0.074-0.037l0.104-0.021l0.074-0.006
	l0.059-0.03l0.062-0.097l0.022-0.106l-0.023-0.108l-0.052-0.104l-0.111-0.15l-0.051-0.053l-0.055-0.027l-0.106,0.04l-0.057-0.01
	l-0.057-0.03l-0.038-0.041l-0.009-0.136l0.115-0.439l0.191-0.49l0.201-0.301l0.478-0.538l0.124-0.19l0.028-0.018l0.007-0.004
	l-0.035-0.048l-0.013-0.034l-0.005-0.051l-0.037-0.015l-0.053,0.001l-0.048-0.003l-0.168,0.085l-0.085,0.015l-0.011-0.103
	l0.04-0.221l-0.001-0.113l-0.002-0.004l0.034-0.055l0.077-0.175l0.031-0.15l-0.036-0.12l-0.204-0.327l-0.012-0.105l0.037-0.076
	l0.092,0.009l0.051-0.03l0.039-0.041l0.068-0.098l0.055-0.028l0.126-0.011l0.023-0.04l0.015-0.148l0.059-0.047l0.1-0.015
	l0.135-0.048l0.083-0.081l0.55-1.259l0.121-0.107l0.187-0.065l0.188-0.018l0.188,0.016l0.184,0.051l0.181,0.088l0.092,0.081
	l0.092,0.103l0.099,0.077l0.107,0.008l0.052-0.047l0.273-0.514l0.014-0.052l-0.029-0.077l-0.008-0.085l0.032-0.067l0.086-0.024
	v-0.001l0.087-0.089l0.126-0.208l0.079-0.086l0.106-0.037l0.104,0.006l0.095-0.01l0.076-0.09l0.028-0.053l0.021-0.057l0.056-0.067
	l0.07,0.029l0.066,0.013l0.037-0.115l-0.032-0.292l0.015-0.108l0.112-0.158l0.146,0.031l0.163,0.053l0.161-0.094l0.203-0.394
	l0.016-0.07l-0.007-0.175l-0.034-0.092l-0.008-0.013l-0.057-0.089l-0.046-0.097l0.022-0.079l0.043-0.078l-0.004-0.091l-0.044-0.193
	l-0.054-0.235l-0.046-0.408l0.026-0.045l0.269-0.301l0.088-0.041l0.169,0.016l0.341,0.147l0.178,0.005l0.088-0.041l0.237-0.191
	l0.021-0.038l-0.007-0.052l-0.002-0.048l0.04-0.027l0.041,0.004l0.042,0.012l0.038,0.003l0.034-0.023l0.005-0.078l-0.031-0.117
	l-0.178-0.395l-0.024-0.095l0.014-0.112l-0.01-0.18l0.073-0.125l0.255-0.259l0.024-0.017l0.018-0.026l0.018-0.106l0.004-0.007
	l0.009-0.028l0.035-0.063l0.022-0.026l0.026-0.015l0.026-0.022l0.02-0.045l-0.002-0.035l-0.037-0.122l-0.016-0.191l0.008-0.103
	l0.031-0.073l0.04-0.022l0.067,0.019l0.04-0.021l0.011-0.032l0.011-0.103l0.009-0.04l0.077-0.123l0.203-0.237l0.085-0.125
	l0.039-0.083l0.052-0.061l0.066-0.046l0.08-0.042v-0.001l0.071-0.075l0.198-0.269l0.251-0.264l0.035-0.079l-0.023-0.059
	l-0.049-0.048l-0.04-0.048l0.006-0.066l0.095-0.143l0.016-0.04l-0.005-0.127l-0.044-0.132l-0.074-0.117l-0.095-0.08l-0.047-0.166
	l-0.014-0.141l-0.018-0.187l-0.027-0.071l-0.103-0.179l-0.036-0.081l0.009-0.053l0.093,0.014l0.08,0.021l0.243,0.019l0,0v-0.001
	l0.147-0.003l0.175-0.028l0.15-0.066l0.078-0.116l0.027-0.251l-0.01-0.152l0.055-0.034l0.079-0.009l0.069-0.022l0.048-0.049
	l0.121-0.168l0.023-0.059l-0.032-0.069l-0.152-0.136l-0.056-0.073l-0.043-0.148l-0.007-0.158l0.024-0.153l0.054-0.132l0.243-0.274
	l0.074-0.146l-0.034-0.189l-0.057-0.137l-0.025-0.06l-0.01-0.107l0.054-0.064l0.062-0.045l0.025-0.073l-0.017-0.076l-0.065-0.054
	l-0.093-0.06l-0.009-0.064l0.042-0.069l0.059-0.072l0.016-0.078l-0.079-0.169l-0.002-0.085l0.02,0.001l0.105-0.084v-0.013
	l0.044-0.01l0.088-0.005l0.051-0.014l0.068-0.048l0.112-0.121l0.072-0.047l0.014-0.146l-0.133-0.219l-0.197-0.201l-0.184-0.093l0,0
	l-0.061-0.003l-0.048-0.017l-0.093-0.062l-0.188-0.125l-0.328-0.311l-0.189-0.135l-0.088-0.045l-0.088-0.033l-0.09-0.021
	l-0.193-0.014l-0.204-0.042l-0.083-0.006l-0.082,0.018l-0.163,0.059l-0.08,0.018l-0.178,0.02l-0.171,0.045l-0.142,0.058
	l-0.063,0.044l-0.045,0.06l-0.065,0.067l-0.185,0.032l-0.079,0.053l-0.04,0.01l-0.039-0.004l-0.037-0.019l-0.122-0.106l-0.321-0.113
	l-0.129-0.111l-0.205-0.175l-0.107-0.061l-0.055-0.004l-0.104,0.029l-0.055,0.003l-0.065-0.014l-0.049-0.026l-0.099-0.069
	l-0.027-0.025l-0.019-0.031l-0.021-0.028l-0.039-0.021l-0.021,0.002l-0.047,0.029l-0.023,0.006l-0.095-0.005l-0.047-0.008
	l-0.048-0.02l-0.21-0.182l-0.377-0.404l-0.366-0.22l-0.104-0.099l-0.107-0.081l-0.195-0.033l-0.074-0.078l-0.056-0.007l-0.036,0.029
	l-0.034,0.053l-0.047,0.103l-0.101,0.034l-0.119-0.001l-0.11-0.043l-0.073-0.096l-0.004-0.052l0.039-0.104l0.013-0.053l-0.001-0.056
	l-0.018-0.113l0.062-0.83l-0.035-0.109l0,0l0,0l-0.001-0.001l-0.116-0.293l-0.003-0.093l0.06-0.108l-0.035-0.081l-0.077-0.085
	l-0.066-0.123l-0.093-0.218l0.02-0.072l0.125-0.063l0.083-0.071l0.089-0.245l0.056-0.103l0.166-0.16l0.102-0.077l0.089-0.043v-0.001
	l0.001,0.001l0.082,0.013l0.142,0.087l0.078,0.018l0.066-0.02l0.127-0.075l0.079-0.019l0.087,0.008l0.071,0.026l0.826,0.459
	l0.132,0.143l0.151,0.116l0.102,0.12l0.062,0.05l0.065,0.016l0.108-0.043l0.076,0.024l0.14,0.052l0.141,0.014l0.136-0.025
	l0.126-0.067l0.046-0.046l0.033-0.045l0.04-0.041l0.135-0.061l0.059-0.043l0.103-0.101l0.128,0.073l0.02,0.045l0.033,0.078
	l0.01,0.285l0.048,0.133l0.111,0.133l0.138,0.114l0.127,0.075l0.012-0.01l0.037-0.034l0.196-0.239l0.092-0.08l0.117-0.028
	l0.123,0.012l0.255,0.072h0.001l0.235,0.039l-0.074-0.094l-0.051-0.104l0.01-0.092l0.105-0.054l0.061,0.005l0.046,0.021l0.045,0.012
	l0.054-0.018l0.035-0.039l0.016-0.052l-0.002-0.053l-0.021-0.05l0.016-0.096l0.069-0.098l0.093-0.083l0.088-0.05l0.129-0.028
	l0.102-0.01l0.081-0.043l0.065-0.129l0.065-0.248l0.014-0.128l-0.006-0.132l-0.021-0.062l-0.035-0.058l-0.025-0.058l0.006-0.058
	l0.016-0.061l-0.009-0.196l0.104-0.099l0.145-0.14l0.108-0.136l0.024-0.286l0.066-0.174l0.098-0.158l0.105-0.088l0.084,0.012
	l0.113,0.105l0.052-0.043l0.015-0.082l-0.029-0.171l0.023-0.096l0.146-0.21l0.024-0.067l0.009-0.024l0.033-0.177l0.006-0.017
	l0.026-0.038l0.003-0.017l-0.019-0.026l-0.027-0.022l-0.026-0.015l-0.01-0.002l-0.011-0.005l-0.021-0.007l-0.021-0.015l-0.015-0.029
	l0.006-0.018l0.036-0.026l0.012-0.015l0.012-0.034l0.002-0.005l0.044-0.083l0.016-0.042l0.011-0.099l-0.016-0.297l0.053-0.514
	l-0.012-0.18l-0.073-0.135l-0.257-0.186l-0.062-0.171l0.009-0.082l0.038-0.161l-0.01-0.087l-0.037-0.086l-0.044-0.073l-0.037-0.075
	l-0.01-0.097l0.051-0.142l0.354-0.333l0.337-0.43l0.17-0.55l0.135-1.009l0.037-0.279l-0.005-0.026l-0.053-0.239l0.022-0.13
	l0.047-0.148l0.052-0.312l0.062-0.141l0.099-0.109l0.034-0.055l0.015-0.091l-0.005-0.077l-0.018-0.081l-0.03-0.078l-0.043-0.069
	l-0.075-0.072l-0.077-0.057l-0.063-0.063l-0.037-0.09l0.002-0.063l0.043-0.172l0.029-0.059l0.066-0.026l0.225-0.048l0.06-0.045
	l0.009-0.082l-0.023-0.171l0.013-0.079l0.089-0.179l0.018-0.067l0.014-0.216l-0.035-0.143l-0.121-0.318l0.001-0.136l0.057-0.071
	l0.072-0.007l0.077,0.006l0.07-0.031l0.021-0.066l-0.045-0.048l-0.077-0.015l-0.071,0.036l-0.025-0.103l-0.067-0.017l-0.063-0.005
	l-0.006-0.069l0.044-0.069l0.137-0.109l0.05-0.068l0.01-0.271l-0.122-0.197l-0.15-0.07l-0.068-0.033l-0.279,0.008l0,0l-0.16,0.038
	l-0.244,0.165l-0.158,0.017l-0.085-0.022l-0.082-0.034l-0.076-0.041l-0.062-0.048l-0.013-0.015l-0.015-0.016l-0.046-0.07
	l-0.032-0.033l-0.037-0.023l-0.085-0.035l-0.038-0.026l-0.058-0.076l-0.084-0.161l-0.074-0.049l-0.058,0.004l-0.732,0.213
	l-0.126,0.069l0.007,0.054l0.066,0.149l0.009,0.06l-0.038,0.154l-0.003,0.121l0.048,0.361l-0.011,0.13l-0.04,0.013l-0.071-0.012
	l-0.108,0.047h-0.001l-0.057,0.085l-0.04,0.102l-0.047,0.09l-0.085,0.049l-0.085,0.019l-0.116,0.099l-0.073,0.024l-0.354,0.01
	l-0.17-0.072l-0.23-0.269l-0.191-0.075l0.095-0.607l0.075-0.166l0.116-0.125l0.037-0.061l0.027-0.189l0.066-0.178l0.011-0.1
	l-0.039-0.175l-0.195-0.304l-0.047-0.176l0.008-0.086l0.096-0.35l0.003-0.049l-0.007-0.036l-0.044-0.037l-0.044-0.002l-0.044,0.007
	l-0.046-0.012l-0.064-0.062l0.02-0.037l0.073-0.023l0.181-0.031l0.096-0.038l0.043-0.057l-0.069-0.077l-0.124-0.083l0.012-0.021
	l0.076-0.005l0.067-0.029l0.009-0.077l-0.073-0.052l-0.094-0.046l-0.053-0.065l0.019-0.047l0.125-0.026l0.043-0.035l-0.002-0.051
	l-0.077-0.179l-0.023-0.22l-0.03-0.072l-0.099-0.14l-0.017-0.058l0.002-0.107l-0.028-0.129l-0.081-0.168l-0.111-0.139l-0.12-0.043
	l0,0l-0.001,0.001l0,0l-0.13-0.077l-0.058-0.014l-0.057,0.041l-0.045,0.144l-0.036,0.059l-0.068-0.008l-0.141-0.111l-0.104-0.13
	l-0.08-0.147l-0.119-0.302l-0.01-0.042l0.025-0.01l0.037-0.002l0.024-0.017l0.015-0.062l0.006-0.063l-0.008-0.068l-0.027-0.074
	l-0.047-0.079l-0.121-0.134l-0.053-0.074l-0.026-0.086l-0.023-0.174l-0.044-0.074l-0.101-0.137l-0.192-0.449l-0.091-0.123
	l-0.139-0.119l-0.158-0.094l-0.147-0.059l-0.081-0.16l-0.081-0.16l-0.061-0.207l-0.146-0.264l-0.065-0.181l-0.147-0.428l0.047-0.446
	l0.072-0.224l0.014-0.077l-0.023-0.082l-0.048-0.083l-0.032-0.072l0.029-0.056l0.044-0.061l-0.008-0.075l-0.195-0.341l-0.024-0.074
	l-0.03-0.259l-0.024-0.04l-0.045-0.025l-0.005-0.046l0.008-0.05l-0.007-0.039l-0.033-0.023l-0.026,0.003l-0.028,0.007l-0.035-0.009
	l-0.027-0.055l-0.001-0.085l0.015-0.089l0.02-0.062l-0.031-0.08l-0.023-0.088l-0.039-0.075l-0.047-0.236l-0.025-0.246l-0.119-0.19
	l0.043-0.319l-0.17-0.213l-0.172-0.276l-0.188,0.122l-0.2,0.121l-0.214-0.119l0.034-0.147l-0.007-0.054l-0.035-0.052l-0.106-0.093
	l-0.042-0.054l-0.031-0.107l0.004-0.11l0.035-0.216l-0.003-0.099l-0.015-0.073l-0.035-0.067l-0.284-0.291l-0.05-0.084l0.01-0.127
	l0.084-0.143l0.124-0.125l0.281-0.162l0.083-0.031l0.172,0.063l0.048-0.054l0.016-0.09l0.002-0.071l0.021-0.159l0.068-0.143
	l0.189-0.277l0.042-0.086l-0.044,0.019l-0.089,0.054l-0.092,0.023l0.052-0.063l0.039-0.064l0.101-0.227l0.158-0.185l0.037-0.068
	l0.103-0.294l0.018-0.031l0.026-0.028l0.038-0.014l0.04,0.003l0.038-0.001l0.031-0.03l0.069-0.225l-0.275-0.027l-0.084-0.154
	l0.031-0.266l0.066-0.148l-0.201-0.104l-0.026-0.092l0.174,0.024l0.127-0.052l-0.059-0.047l0.048-0.144l-0.021-0.047l-0.104-0.026
	l-0.171,0.011l-0.051-0.025l0.009-0.145l-0.032-0.015l-0.047-0.004l-0.037-0.021l-0.022-0.05l-0.002-0.036l0.005-0.036l-0.003-0.045
	l0.133-0.202l0.093-0.278l-0.228-0.173l-0.303-0.05l-0.001-0.133l-0.021-0.086l0.175-0.246l-0.099-0.398l0.018-0.25l0.018-0.249
	l0.048-0.272l0.07-0.023l0.237-0.016l0.083-0.027l0.151-0.093l0.09-0.106l0.019-0.133l-0.063-0.164l-0.049-0.09l-0.013-0.061
	l0.032-0.046l0.087-0.052l0.059,0.008l0.135,0.129l0.126,0.087l0.031,0.053l0.049,0.453l0.028,0.076l0.054,0.052l0.061,0.049
	l0.382-0.012l-0.171-0.392l-0.046-0.303l0.284-0.008l0.247-0.333l0.055,0.038l0.05,0.006l0.037-0.026l0.015-0.058l0.074-0.06
	l0.089-0.016l0.203-0.005l0.104-0.034l0.285-0.167l0.237-0.021l0.219,0.02l0.233,0.445l0.107,0.304l0.233-0.09l0.178,0.204
	l0.158-0.118l0.323-0.077l-0.022-0.077l-0.266-0.073l-0.197-0.08l-0.207-0.167l-0.079-0.248l0.145-0.331l0.36-0.226l0.225-0.253
	l0.255-0.142l0.338,0.009l0.104-0.132l0.048-0.124l-0.012-0.135l-0.067-0.162l-0.054-0.201l0.061-0.144l0.272-0.23l0.022-0.04
	l0.006-0.04l0.021-0.028l0.117-0.022l0.045-0.029l0.208-0.194l0.104-0.14l0.127,0.001l0.256,0.172l0.15,0.054l0.122-0.035
	l0.239-0.16l0.131-0.006l0.061,0.034l0.12,0.092l0.07,0.031l0.102,0.017l0.054,0.002l0.029,0.025l0.032,0.084l0.02,0.096
	l-0.034,0.012l-0.061-0.009l-0.063,0.038l-0.018,0.063l0.007,0.083l0.026,0.082l0.038,0.058l0.065,0.067l0.063,0.078l0.152,0.24
	l0.017,0.039l0.008,0.046l0.012,0.029l0.061,0.045l0.022,0.028l0.016,0.087l0.019,0.034l0.047,0.022l0.058,0.018l0.014,0.018
	l-0.004,0.026l0.01,0.063l0.02,0.139l0.026,0.061l0.153,0.172l0.052,0.084l0.088,0.184l0.05,0.078l0.069,0.07l0.084,0.05
	l0.095,0.018l0.048-0.008l0.075-0.033l0.044-0.004l0.043,0.005l0.087,0.001l0.041-0.009l0.067,0.006l0.124,0.079l0.09-0.002
	l0.176-0.067l0.963-0.51l0.133-0.092l0.04-0.018l0.082,0.013l0.043-0.003l0.037-0.024l0.028-0.033l0.031-0.03l0.052-0.014
	l0.034,0.014l0.11,0.064l0.027,0.021l0.013,0.059l-0.02,0.03l-0.032,0.029l-0.028,0.048v0.044l0.009,0.036l0.015,0.049l-0.004,0.041
	l-0.026,0.043l-0.037,0.026l-0.042,0.022l-0.039,0.03l-0.342,0.521l-0.09,0.081l-0.072-0.01l-0.07-0.054l-0.083-0.051l-0.04,0.018
	l-0.13,0.112l-0.064,0.037l-0.158,0.059l-0.064,0.042l-0.062,0.063l-0.088,0.131l-0.031,0.075l-0.016,0.073l0.012,0.05l0.063,0.083
	l0.018,0.047l-0.006,0.053l-0.018,0.027l-0.026,0.02l-0.027,0.034l-0.04,0.108l0.03,0.052l0.072,0.051l0.086,0.102l0.026,0.072
	l0.015,0.092l-0.004,0.088l-0.031,0.06l-0.055,0.274l0.019,1.137l0.082,0.31l0.139,0.289l0.193,0.204l0.263,0.208l0.116,0.118
	l0.093,0.137l0.041,0.126l0.008,0.245l0.024,0.122l0.19,0.224l0.165,0.144l0.046,0.053l0.012,0.059l-0.007,0.199l0.016,0.071
	l0.052,0.058l0.102,0.064l0.086,0.07l0.023,0.076l-0.016,0.085l-0.03,0.092l0.016,0.185l0.135,0.145l0.177,0.135l0.134,0.155
	l0.034,0.085l0.054,0.344l0.049,0.171l0.012,0.083l-0.015,0.057l-0.008,0.033l-0.105,0.046v0.082l0.026,0.045l0.077,0.077
	l0.03,0.042l0.011,0.046l0.009,0.097l0.013,0.041l0.036,0.051l0.03,0.022l0.129,0.041l0.029,0.005l0.03,0.011l0.047,0.034
	l0.063,0.058l0.116,0.153l0.042,0.076l0,0l0.079,0.077l0.074,0.006l0.164-0.049h0.091l0.066,0.023l0.145,0.091l0.139,0.058
	l0.182,0.046l0.186,0.019l0.146-0.024l0.035-0.025l0.018-0.032l0.014-0.034l0.023-0.03l0.037-0.008l0.031,0.027l0.03,0.039
	l0.036,0.026l0.314,0.022l0.058-0.047l0.072-0.143l0.063-0.042l0.097,0.016l0.084,0.068l0.14,0.167l0.162,0.22l0.035,0.08
	l0.032,0.171l0.035,0.058l0.095,0.049l0.089,0.023l0.488,0.013l0.104,0.013l0.078,0.045l0.02,0.043l-0.002,0.093l0.01,0.044
	l0.029,0.041l0.493,0.5l0.013,0.02l0.018,0.05l0.014,0.021l0.023,0.007l0.048-0.026l0.019,0.007l0.015,0.045l-0.012,0.084
	l0.01,0.041l0.066,0.078l0.158,0.147l0.048,0.089l0.012,0.085l-0.007,0.152l0.018,0.088l0.075,0.162l0.034,0.047l0.076,0.105
	l0.136,0.129l0.65,0.398l0.192,0.026l0.156-0.072l0.08-0.143l0.061-0.167l0.096-0.14l0.144-0.047l0.197,0.01l0.192,0.065
	l0.131,0.112l0.082,0.089l0.384,0.167l0.111,0.094l0.202,0.224l0.135,0.054l0.081,0.019l0.085,0.034l0.074,0.053l0.056,0.065
	l0.026,0.068l-0.001,0.055l-0.01,0.054l0.003,0.067l0.068,0.052l0.305,0.159l0.099,0.076l0.094,0.221l0.041,0.063l0.062,0.047
	l0.228,0.111l0.03,0.077l0.032,0.058l0.052,0.041l0.186,0.052l0.047,0.051l0.029,0.061l0.047,0.062l0.027,0.007l0.082,0.003
	l0.038,0.013l0.034,0.038l0.05,0.106l0.033,0.042l0.071,0.039l0.154,0.048l0.075,0.035l0.461,0.322l0.168,0.091l0.166,0.053
	l0.078,0.037l0.047,0.058l0.041,0.03l0.176,0.062l0.064,0.031l0.234,0.258l0.086,0.063l0.092,0.027l0.104,0.017l0.093,0.035
	l0.013,0.017l0.049,0.065l-0.016,0.075l-0.079,0.048l-0.097,0.043l-0.065,0.059l-0.174,0.222l-0.033,0.097l-0.061,0.145
	l-0.065,0.114l-0.05,0.121l-0.01,0.361l-0.058,0.083l-0.26,0.124l-0.069,0.13l-0.063,0.218l-0.021,0.215l0.048,0.123l0.036,0.019
	l0.032,0.025l0.028,0.028l0.02,0.032l0.004,0.045l-0.028,0.022l-0.037,0.015l-0.018,0.026l0.014,0.08l0.055,0.155l-0.006,0.094
	l-0.024,0.078l-0.048,0.025l-0.062,0.001l-0.067,0.014l-0.166,0.112l-0.062,0.032l-0.211,0.081l-0.063,0.076l0.023,0.126
	l0.067,0.072l0.102,0.055l0.024,0.008l0.09,0.027l0.101,0.014l0.086-0.004l0.083-0.018l0.167-0.06l0.052-0.027l0.027-0.021
	l0.034-0.011l0.077,0.003l0.167,0.043l0.556,0.051l0.115-0.118l0.053-0.016l0.094-0.042l0.053-0.008l0.156,0.027l0.885,0.351
	l0.132,0.032l0.278,0.035l0.055,0.004l0.042,0.012l0.038,0.025l0.107,0.115l0.072,0.045l0.081,0.025l0.201,0.026l0.313,0.109
	l0.073,0.016l0.059,0.003l0.059,0.016l0.337,0.269l0.079,0.089l0.06,0.104l0.039,0.13l-0.01,0.12l-0.089,0.077l-0.103,0.039
	l-0.076,0.055l-0.034,0.083l0.021,0.121l0.077,0.075l0.125,0.037l0.135,0.008l0.105-0.013l0.183-0.05l0.101-0.006l0.086,0.028
	l0.088,0.088l0.162,0.205l0.104,0.067l-0.01,0.015l0.106,0.178l0.373,0.128l0.102,0.008l0.096-0.014l0.189-0.062l0.097-0.006
	l0.103,0.031l0.18,0.093l0.111,0.021l0.162-0.011l0.083-0.02l0.191-0.124l0.202-0.012l0.563,0.092l0.047,0.014l0.057,0.035
	l0.016,0.04l0.001,0.046l0.029,0.109l-0.006,0.021l0.006,0.007l0.06,0.016l0.16-0.05l0.016,0.109l-0.041,0.062l-0.056,0.051
	l-0.039,0.078l-0.037,0.116l-0.003,0.043l0.012,0.06l0.025,0.016l0.036,0.001l0.322,0.082l0.041-0.005l0.021,0.091l0.005,0.059
	l0.028,0.053l0.146,0.12l0.062,0.023l0.065,0.001l0.066-0.015l0.035-0.006h0.035l0.034,0.006l0.031,0.012l0.011,0.011l0.008,0.013
	l0.014,0.035l-0.004,0.03l-0.016,0.024l-0.031,0.018l-0.094,0.039l-0.053,0.065l0.013,0.073l0.099,0.059l0.131,0.075l0.038,0.064
	l-0.052,0.038l-0.142-0.01l-0.143,0.005l-0.12,0.055l-0.318,0.23l-0.251,0.241l-0.048,0.104l0.028,0.053l0.062,0.028l0.137,0.017
	l0.049,0.014l0.01,0.023l-0.009,0.021l-0.006,0.011l0.088,0.048l0.07,0.017l0.068,0.005l0.065,0.016l0.061,0.049l0.02,0.058
	l-0.003,0.058l0.009,0.061l0.056,0.067l0.025,0.034l0.02,0.037l0.014,0.038l0.008,0.04l-0.044-0.007h-0.043l-0.324-0.015
	l-0.337,0.026l-0.039-0.065l0.012-0.068l-0.017-0.058l-0.119-0.035l-1.597-0.107l-0.083-0.012l-0.158,0.024l-0.081-0.002
	l-0.274-0.077l-0.371-0.055l-0.077,0.002l-0.079,0.033l-0.122,0.097l-0.079,0.036l-0.148-0.003l-0.375-0.048l-0.091,0.046
	l-0.083,0.135l-0.137,0.056l-0.166-0.003l-0.328-0.083l-0.688-0.046l-0.188-0.049l-0.067-0.036l-0.152-0.121l-0.08-0.052
	l-0.049-0.008l-0.048,0.01l-0.082,0.004l-0.048-0.01l-0.09-0.035l-0.045-0.006l-0.025,0.011l-0.056,0.049l-0.033,0.014l-0.034-0.002
	l-0.064-0.022l-0.037-0.001l-0.045,0.015l-0.063,0.045l-0.042,0.014l-0.073,0.004l-0.233-0.03l-0.565,0.042l-0.159-0.024
	l-0.191-0.101l-0.085-0.011l-0.018-0.003l-0.064,0.081l0.031,0.085l0.209,0.109l0.052,0.083l-0.092,0.042l-0.188,0.001l-0.146,0.058
	l0.032,0.206l0.067,0.093l0.175,0.195l0.053,0.093l0.009,0.112l-0.047,0.061l-0.236,0.139l-0.098,0.035l-0.074,0.04l-0.007,0.064
	l0.057,0.043l0.101,0.033l0.181,0.039l0.565,0.014l0.185,0.053l0.149,0.144l0.055,0.074l0.037,0.085l0.064,0.276l0.049,0.088
	l0.135,0.156l0.2,0.187l0.22,0.145l0.193,0.021l0.161-0.03l0.337,0.012l0.154-0.022l0.059-0.003l0.04,0.03l0.062,0.086v0.013
	l-0.012,0.042l-0.001,0.015l0.016,0.027l0.021,0.007l0.022,0.003l0.018,0.01l0.1,0.104l0.029,0.04l0.056,0.094l0.031,0.043
	l0.025,0.065l0.007,0.13l0.011,0.067l0.002,0.034l-0.013,0.031l-0.016,0.03l-0.011,0.031l0.01,0.045l0.036,0.031l0.042,0.029
	l0.03,0.036l0.028,0.084l-0.019,0.011l-0.047-0.013l-0.057,0.015l-0.04,0.056l-0.021,0.058l-0.031,0.056l-0.073,0.043l-0.053,0.007
	l-0.141-0.03l-0.02,0.007l-0.019,0.041l-0.018,0.008l-0.125-0.006l-0.364,0.018l-0.053,0.009l-0.151-0.006l-0.002,0.012
	l-0.075,0.051l-0.025-0.002l-0.026-0.012l-0.032-0.007l-0.043,0.021l0.004,0.002l0.029,0.024h0.006l-0.076,0.021l-0.102,0.043
	l-0.081,0.071l-0.013,0.103l0.06,0.068l0.107,0.053l0.21,0.052l0.413,0.016l0.154,0.057l-0.064,0.143l-0.161,0.073l-0.206,0.01
	l-0.781-0.088l-0.051,0.007l-0.042,0.015l-0.039-0.001l-0.039-0.043l-0.035-0.057l-0.034-0.029l-0.03,0.008l-0.024,0.056
	l-0.054,0.047l-0.103,0.023l-0.212,0.01l-0.121-0.009l-0.038,0.002l-0.048,0.019l-0.062,0.067l-0.04,0.029l-0.085,0.021
	l-0.162-0.001l-0.089,0.014l-0.259,0.072h-0.087l-0.11-0.045l0.002-0.059l0.016-0.063l-0.07-0.06l-0.075,0.011l-0.04,0.068
	l-0.05,0.063l-0.105-0.007l-0.083-0.066l-0.013-0.078l0.007-0.088l-0.026-0.094l-0.069-0.067l-0.242-0.156l-0.088-0.036
	l-0.062,0.004l-0.118,0.022l-0.065-0.012l-0.063-0.036l-0.235-0.221l-0.055-0.063l-0.042-0.073l-0.018-0.087l0.016-0.058
	l0.008-0.015l0.021-0.031l0.016-0.047l-0.025-0.064l-0.186-0.095l-0.178-0.052l-0.11-0.085l0.015-0.192l0.13-0.324l0.042-0.163
	l0.011-0.192l-0.014-0.112l-0.03-0.076l-0.059-0.059l-0.094-0.061l-0.289-0.123l-0.053-0.034l0.024-0.043l0.203-0.032l0.08-0.022
	l0.063-0.068l0.027-0.085l-0.016-0.085l-0.063-0.07l-0.083-0.018l-0.1,0.004l-0.092-0.01l-0.054-0.06l0.106-0.271l0.011-0.046
	l0.033-0.004l0.106,0.019h0.044l0.153-0.105l0.037-0.085l-0.026-0.065l-0.075-0.052l-0.384-0.196l-0.092-0.026h-0.194l-0.082-0.036
	l-0.014-0.106l0.043-0.032l0.082-0.082l0.046-0.078l-0.063-0.011l-0.176,0.062l-0.055-0.02l0.093-0.365l0.012-0.133l-0.03-0.126
	l-0.101-0.114l-0.13-0.048l-0.289-0.046l-0.085-0.044l-0.043-0.067l-0.027-0.078l-0.032-0.061l-0.008-0.017l-0.061-0.064
	l-0.067-0.04l-0.156-0.059l-0.174-0.086l-0.571-0.374l-0.07-0.03l-0.071-0.02l-0.077-0.01h-0.002l-0.159,0.022l0,0l-0.085-0.002
	l-0.074-0.042l-0.033-0.143l0.083-0.155l0,0l0.226-0.258h0.001l0.034,0.003h0.003l0.026-0.012l0,0l0.021-0.029l0.012-0.042
	l-0.042-0.292l-0.013-0.167l-0.083-0.083l-0.049-0.026l-0.083-0.005h-0.002l-0.079,0.016l-0.046,0.033l0,0l-0.064,0.098v-0.001
	v-0.001l-0.025-0.042h-0.001l-0.024,0.013v0.001l-0.026,0.036l0,0l-0.125,0.118h-0.001l-0.014-0.003v0.001l-0.002,0.001
	l-0.038,0.069l-0.015,0.032h-0.002h-0.001l-0.045-0.002l-0.089-0.003l-0.083,0.094l-0.072,0.112l-0.107,0.047l-0.032,0.032
	l-0.069,0.222l-0.033,0.074l-0.035,0.054l-0.045,0.045l-0.062,0.049l-0.094,0.045l-0.028,0.023l-0.014,0.034l0.007,0.065
	l-0.013,0.021l-0.027,0.026l-0.015,0.063l-0.018,0.033l-0.029,0.02l-0.073,0.027l-0.031,0.027l-0.066,0.107l-0.058,0.133
	l-0.031,0.141l0.015,0.126l0.013,0.09l-0.079,0.237l-0.025,0.488l-0.056,0.209l-0.002,0.069l0.02,0.035l0.053,0.042l0.018,0.037
	l-0.018,0.036l-0.037,0.05l-0.008,0.052l0.071,0.042l0.035,0.056l-0.002,0.108l-0.025,0.112l-0.031,0.071l-0.068,0.056l-0.059,0.017
	l-0.041,0.024l-0.019,0.076l0.009,0.042l0.046,0.088l0.002,0.056l-0.001,0.049l0.011,0.097l-0.001,0.044l-0.049,0.17l-0.309,0.61
	l-0.146,0.187l-0.007,0.048l0.031,0.109l-0.002,0.057l-0.052,0.245l-0.019,0.742l0.023,0.154l-0.002,0.039l-0.026,0.521
	l-0.037,0.121l-0.042,0.058l-0.05,0.045l-0.043,0.049l-0.021,0.069l0.007,0.027l0.039,0.061l0.01,0.028l-0.003,0.041l-0.059,0.158
	l-0.06,0.086l-0.024,0.046l-0.014,0.063l0.012,0.191l-0.099,0.359l0.008,0.48l-0.032,0.158l-0.206,0.312l-0.279,0.665l-0.587,0.891
	l-0.025,0.173l0.032,0.177l-0.026,0.067l-0.102,0.028l-0.174-0.005l-0.164-0.027l-0.13-0.056l-0.046-0.02l-0.118-0.068l-0.22-0.13
	l-0.352-0.104l-0.32-0.13l-0.193-0.004l-0.255,0.037l-0.437-0.032l-0.11-0.048l-0.285-0.28l-0.107-0.049l-0.034,0.028l-0.02,0.069
	l-0.064,0.069l-0.012-0.094l-0.037-0.076l-0.06-0.031l-0.086,0.04l-0.005,0.003l-0.004,0.006v0.009l0.004,0.008v0v0.001l0.023,0.04
	l0.008,0.033l-0.015,0.024l-0.038,0.016l-0.068,0.016l-0.131,0.061l-0.047,0.015l-0.083-0.016l-0.057-0.027l-0.06-0.01l-0.089,0.037
	l-0.069,0.019l-0.081-0.001l-0.075,0.007l-0.05,0.042l-0.01,0.039l-0.011,0.091l-0.011,0.032l-0.035,0.047l-0.012,0.008
	l-0.018-0.011l-0.101-0.031l-0.096-0.029l-0.074,0.005l-0.031,0.077l0.012,0.104l0.033,0.042l0.143,0.03l0.061-0.016l0.021,0.01
	l-0.043,0.084l-0.004,0.033l0.008,0.034l0.02,0.036l0.075,0.071l0.064-0.013l0.048-0.063l0.027-0.081l0.02,0.061l0.019,0.074
	l0.03,0.06l0.056,0.016l0.029-0.039v-0.065l0.014-0.058l0.064-0.019l0.072,0.06l0.115,0.239l0.121,0.072l0.063,0.012l0.057,0.029
	l0.036,0.045l0.001,0.063l-0.031,0.039l-0.059,0.026l-0.116,0.034l-0.015,0.019l-0.012,0.021l-0.006,0.021l-0.029,0.248h0.002v0.001
	l0,0l0.003,0.024l-0.001,0.024l-0.008,0.021l-0.013,0.019l-0.108,0.042l-0.01,0.052l0.035,0.067l0.026,0.084l-0.023,0.07
	l-0.056,0.08l-0.069,0.067l-0.14,0.074l-0.1,0.14l-0.05,0.026l-0.096,0.002l-0.067,0.031l-0.055,0.054l-0.181,0.263l-0.071,0.04
	l-0.091,0.01l-0.291-0.042l-0.08,0.012l-0.158,0.051l-0.082,0.007l-0.125-0.032l0.004-0.053l0.04-0.057l-0.011-0.045l-0.064-0.014
	l-0.041,0.022l-0.049,0.099l-0.045,0.066l-0.033-0.004l-0.038-0.026l-0.06,0.005l-0.039,0.032l-0.043,0.091l-0.029,0.043
	l-0.04,0.032l-0.086,0.047l-0.035,0.043l-0.063,0.058l-0.049,0.03l-0.02,0.038l0.02,0.083l0.04,0.071l0.066,0.078l0.08,0.062
	l0.079,0.02l0.112-0.066l0.066-0.119l0.077-0.096l0.143-0.004l0.042-0.018l0.02-0.033l-0.003-0.043l-0.017-0.048l0.097,0.044
	l0.037-0.023l0.012-0.054l0.025-0.044h0.092l0.04,0.107l0.007,0.211l-0.065,0.116l-0.228,0.146l-0.045,0.114l0.039,0.107
	l0.141,0.111l0.012,0.078l-0.047,0.067l-0.075,0.023l-0.085,0.006l-0.08,0.017l-0.092,0.145l0.054,0.417l-0.069,0.064l-0.027-0.043
	l-0.044-0.188l-0.034-0.071l-0.078-0.066l-0.061-0.005l-0.058,0.047l-0.069,0.089l-0.041,0.016l-0.081-0.028l-0.021,0.029
	l-0.02,0.036l-0.035,0.002l-0.039-0.021l-0.033-0.031l-0.046,0.098l-0.029,0.042l-0.04,0.04l-0.051,0.024l-0.059,0.01l-0.052,0.016
	l-0.033,0.048l-0.018,0.095l-0.012,0.036l-0.063,0.091l-0.076,0.073l-0.041,0.027l-0.062,0.034l-0.055,0.044l-0.076,0.04
	l-0.047,0.063l-0.077,0.146l-0.076,0.041l-0.095-0.013l-0.098-0.033l-0.088-0.018l-0.034,0.034l0.044,0.073l0.075,0.08l0.06,0.053
	l0.28,0.179l0.081,0.085l0,0l0.057,0.043l0.078,0.017l0.069-0.015l0.028-0.054l-0.023-0.029l-0.105-0.044l-0.028-0.025l0.004-0.033
	l0.065-0.092l0.102-0.246l0.077-0.104l0.115-0.035l0.271-0.017l0.12,0.024l-0.035,0.096l0.002,0.036l-0.004,0.046l-0.011,0.041
	l-0.02,0.027l-0.038,0.038l0.014,0.032l0.039,0.034l0.033,0.044l0.081,0.249l0.044,0.084l0.077,0.094l0.064,0.036l0.172,0.042
	l0.063,0.058l0.028,0.092l0.031,0.289l-0.001,0.098l0.009,0.056l0.022,0.04l0.028,0.039l0.024,0.049l0.06,0.176l0.048,0.053
	l0.142,0.096l0.023,0.021l0.021,0.014l0.049,0.007l0.025-0.009l0.022-0.024l0.032-0.017l0.053,0.008l0.084,0.058l0.06,0.139
	l0.139,0.133l0.249,0.162l0.03,0.035l0.009,0.028l0.02,0.02l0.215,0.026l0.078-0.01l0.04,0.019l0.042,0.012l0.091-0.049l0.045-0.01
	l0.095-0.005l0.071-0.042l0.013-0.086l-0.019-0.101l-0.026-0.087l-0.013-0.219l0.102-0.127l0.354-0.187l0.277-0.269l0.151-0.084
	l0.293,0.063l0.071-0.046l0.115-0.148l0.104-0.02l0.113-0.098l0.075-0.016l0.053-0.033l0.035-0.089l0.046-0.191l0.059-0.078
	l0.119-0.12l0.039-0.09l-0.003-0.057l-0.029-0.052l-0.038-0.052l-0.028-0.059l0.001-0.038l0.016-0.039l0.01-0.042l-0.011-0.05
	l-0.083-0.02l0.077-0.125l0.041-0.03l0.072-0.037l0.06-0.044l0.07-0.023l0.102,0.021l0.152,0.125l0.029,0.006l0.043-0.039
	l0.042-0.002l0.047,0.009l0.054-0.005l0.146-0.072l0.034-0.025l0.021-0.043l0.024-0.093l0.025-0.021l0.089-0.055l0.035-0.103
	l0.033-0.225l0.044-0.023l0.048,0.002l0.046,0.025l0.038,0.044l0.085,0.205l0.042,0.054l0.063,0.022l0.065,0.005l0.044,0.027
	l0.001,0.087l0.113-0.038l-0.03,0.115l-0.165,0.282l-0.021,0.026l-0.016,0.027v0.039l0.028,0.04l0.093,0.075l0.018,0.045
	l-0.078,0.264l-0.15,0.247l-0.053,0.132l-0.035,0.159l0.006,0.045l0.049,0.073l0.013,0.038l0.002,0.056l-0.006,0.02l-0.014,0.019
	l-0.055,0.114l-0.083,0.127l-0.033,0.07l-0.006,0.163l0.07,0.068l0.268,0.064l0.303,0.127l0.128,0.094l0.105,0.143l0.122,0.051
	l0.098,0.087l0.164,0.217l0.123,0.124l0.022,0.051l-0.022,0.075l-0.086,0.179l-0.015,0.056l-0.086-0.021l-0.102,0.016l-0.092,0.041
	l-0.063,0.061l-0.025,0.087l0.01,0.093l0.072,0.264l0.021,0.006l0.03-0.019l0.045-0.01l0.176-0.012l0.093,0.013l0.052,0.062
	l0.047,0.082l0.077,0.069l-0.021,0.058l0.026,0.04l0.057,0.029l0.062,0.025l0.037,0.046l-0.002,0.061l0.011,0.058l0.203,0.083
	l0.07,0.084l0.078,0.064l0.139,0.067l0.042-0.083l0.046-0.067l0.105-0.018l0.078-0.048l0.031-0.006l0.248,0.073l0.025,0.002
	l0.021-0.014l0.057-0.026l0.077-0.022h0.035l0.054-0.125l0.835-1.043l0.323-0.27l0.042-0.101l0.07-0.296l0.116-0.207l0.014-0.104
	l-0.088-0.098l-0.099-0.081l0.04-0.094l0.116-0.126l0.154-0.068l0.193,0.028l0.021-0.003l0.081,0.01l0.02-0.005l0.04,0.028
	l0.064,0.075l0.038,0.026v0l0.019,0.082l0.018,0.113l0.033,0.059l0.053,0.042l0.046,0.012l0.103,0.006l0.053,0.021l0.094,0.058
	l0.043,0.019l0.059-0.007l0.088-0.067l0.063,0.003l0.046-0.105l0.046,0.01l0.057,0.074l0.083,0.082l0.062-0.015l0.096-0.001
	l0.104,0.015l0.083,0.038l0.047,0.061l0.129,0.223l0.035,0.076l0.001,0.093l-0.026,0.095l-0.013,0.092l0.042,0.09l0.042,0.028
	l0.045,0.008l0.044,0.002l0.044,0.012l0.051,0.041l0.088,0.098l0.048,0.038l0.045,0.014l0.079-0.012l0.046,0.006l0.416,0.223
	l0.055,0.009l0.029-0.039l0.019-0.045l0.021-0.019l0.058,0.025l0.034,0.027l0.032,0.006l0.055-0.033l0.028-0.041l0.008-0.095
	l0.014-0.035l0.084-0.049l0.206-0.057l0.097-0.055l0.112-0.112l0.032-0.044l0.142-0.032l-0.01-0.064l-0.07-0.078l-0.034-0.074
	l0.059-0.048l0.102,0.039l0.528,0.391l0.149,0.162l0.084,0.07l0.105,0.026l0.101-0.021l0.064-0.047l0.15-0.282l0.011-0.048
	l-0.011-0.042l-0.021-0.04l-0.018-0.047l0.002-0.064l0.029-0.075l0.167-0.298l0.026-0.034l0.017-0.039l0.019-0.128l0.028-0.021
	l0.039,0.011l0.047,0.039l0.037,0.053l0.076,0.153l0.211,0.328l0.109,0.098l0.244,0.081l0.129,0.083l0.093,0.03l0.058-0.003
	l0.122-0.059l0.085-0.028l0.244-0.036l0.073-0.037l0.063-0.119l0.059-0.04l0.067,0.007l0.091,0.034l0.091,0.045l0.061,0.038
	l0.063,0.071l0.052,0.071l0.062,0.05l0.089,0.014l0.148-0.018l0.065,0.002l0.11,0.01l0.112-0.029l0.131-0.011l0.133,0.017
	l0.107,0.06l0.048,0.125l0.08-0.131l0.053-0.045l0.186,0.009l0.207-0.033l0.116,0.011l0.035,0.02l0.058,0.059l0.047,0.027
	l0.048,0.012l0.267,0.017l0.064-0.009l0.142-0.042l0.032,0.08l0.109-0.017l0.294-0.135l0.086-0.017l0.102,0.001l0.118,0.023
	l0.084,0.111l0.004,0.002l0,0l-0.005-0.001l-0.046,0.07l0.074-0.004l0.051,0.028l0.049,0.043l0.07,0.035l0.081,0.007l0.138-0.032
	l0.063,0.001l0.317,0.048l0.135,0.062l0.046,0.133l-0.04,0.057l-0.002,0.05l0.04,0.036l0.079,0.014l-0.053,0.068l-0.132,0.125
	l-0.035,0.07l-0.055,0.019l-0.102-0.013l-0.088,0.004l-0.013,0.07l0.075,0.066l0.116,0.004l0.109-0.035l0.053-0.055l0.03-0.062
	l0.058-0.064l0.122-0.104l0.167-0.053l0.414,0.041l0.191-0.01l0.028-0.012l0.108-0.07l0.163-0.029l0.019-0.006l0.201,0.041
	l0.076,0.048l0.024,0.1l-0.013,0.051l-0.024,0.036l-0.033,0.021l-0.037-0.001l-0.034,0.005l0.037,0.042l0.057,0.046l0.027,0.017
	l-0.003,0.096l-0.081,0.101l-0.172,0.162l-0.059,0.168l-0.021,0.021l-0.046,0.015l-0.053,0.007l-0.383-0.061l-0.092,0.004
	l-0.006,0.036l0.085,0.038l0.147,0.113l0.066,0.036l0.091,0.002l0.167-0.038l0.077,0.028l0.058,0.089l0.009,0.104l-0.044,0.08
	l-0.09,0.014l-0.053-0.101l-0.016-0.021l-0.04-0.012l-0.046-0.004l-0.086,0.005l0.092,0.056l0.045,0.035l0.016,0.036v0.051
	l0.02,0.03l0.035,0.021l0.049,0.015l0.098,0.003l0.082-0.023l0.075-0.007l0.074,0.052l0.037,0.151l-0.048,0.162l-0.106,0.072
	l-0.14-0.114l-0.363,0.069l-0.096-0.012l-0.536-0.247l-0.077,0.006l-0.072-0.003l-0.266-0.177l-0.262-0.086l-0.063-0.044
	l-0.046-0.068l-0.036-0.079l-0.05-0.071l-0.083-0.047l-0.105,0.011l-0.13,0.151l-0.076,0.022l-0.066-0.052l-0.067-0.095
	l-0.104-0.193l-0.01,0.092l0.024,0.093l0.047,0.085l0.056,0.069l0.063,0.052l0.074,0.031l0.066-0.014l0.041-0.083l0.063-0.043
	l0.11,0.069l0.162,0.154l0.063,0.034l0.074,0.063l0.036,0.067l-0.051,0.044l0.01,0.057l-0.011,0.066l-0.031,0.049l-0.053,0.009
	l-0.071-0.027l-0.042-0.033l-0.088-0.099l-0.08-0.059l-0.068-0.014l-0.071-0.002l-0.144-0.023l-0.112-0.004l-0.06-0.016
	l-0.188-0.142l-0.039-0.096l-0.103-0.075l-0.097-0.012l-0.021,0.093l0.031,0.004l0.071,0.046l0.063,0.049l0.005,0.018l0.024,0.018
	l0.076,0.068l0.089,0.046l0.041,0.056l0.028,0.022l0.031,0.014l0.121,0.025h0.097l0.055,0.013l0.084,0.053l0.099,0.118l0.074,0.04
	l0.211,0.053l0.086,0.034l0.355,0.26l0.088,0.037l0.299,0.081l0.021,0.01v-0.083l-0.026-0.123l0.021-0.094l0.143-0.003l0.088,0.038
	l0.099,0.063l0.053,0.068l-0.05,0.057l-0.005,0.033l0.338,0.057l0.118,0.057l-0.068,0.065l0.252,0.072l0.063,0.048v0.067
	l-0.042,0.06l-0.071,0.022l0.046,0.044l0.054,0.019l0.056-0.008l0.051-0.033l0.021,0.163l-0.065,0.077l-0.11-0.002l-0.117-0.072
	l-0.031-0.042l-0.02-0.04l-0.027-0.033l-0.056-0.027l-0.066-0.021l-0.062-0.029l-0.048-0.035l-0.032-0.043l-0.284,0.021l-0.146-0.02
	l-0.1-0.068l-0.139-0.142l-0.142-0.031l-0.144,0.035l-0.144,0.061l-0.176-0.146l-0.102-0.031l-0.087,0.072l0.092,0.005l0.05,0.053
	l0.051,0.07l0.09,0.06l0.091,0.014l0.182-0.023l0.093,0.008l0.063,0.03l0.004,0.026l-0.013,0.031l0.015,0.039l0.11,0.063
	l0.079,0.077l0.081,0.045l0.091,0.032l0.087,0.012l0.15-0.026l0.069,0.002l0.092,0.046l0.087,0.085l0.026,0.08l0.013,0.083
	l0.042,0.096l-0.018,0.079l-0.16,0.002l-0.196-0.053l-0.124-0.085l0.002,0.061l0.031,0.091l0.002,0.045l-0.025,0.041l-0.048,0.015
	l-0.059,0.004l-0.055,0.01l0.035,0.035l0.045,0.021l0.053,0.001l0.115-0.059l0.05-0.004l0.052,0.018l0.064,0.036l0.093,0.078
	l0.039,0.08l-0.033,0.053l-0.118-0.009l-0.547-0.146l-0.095-0.008l-0.086,0.018l-0.101,0.054l-0.014,0.056l0.116,0.02l0.508-0.011
	l0.112,0.024l0.051,0.028l0.097,0.08l0.06,0.022l0.047-0.008l0.064-0.047l0.04-0.007l0.051,0.007l0.013,0.014l0.005,0.032
	l0.032,0.063l0.008,0.044l-0.004,0.063l-0.015,0.056l-0.021,0.02l-0.108-0.015l-0.114,0.009l-0.066,0.047l0.036,0.093l-0.205,0.035
	l-0.121,0.003l-0.098-0.022l-0.085-0.074l-0.088-0.092l-0.105-0.066l-0.14,0.005l-0.063-0.061l-0.087,0.005l-0.444,0.122
	l-0.046-0.025l-0.038-0.026l-0.27-0.015l-0.081-0.04l-0.064-0.051l-0.053-0.056l-0.208-0.275l-0.105-0.109l-0.117,0.015
	l-0.259-0.028l-0.083,0.003l-0.111,0.132l-0.113,0.203l-0.116,0.153l-0.114-0.013l0.037,0.1l0.009,0.084l-0.028,0.075l-0.078,0.068
	l-0.144,0.078l-0.095,0.035l-0.079,0.002l-0.104-0.014l-0.192,0.013l-0.088-0.011l-0.103-0.023l-0.094,0.002l-0.065,0.043
	l-0.021,0.102l0.03,0.009l0.116-0.048l0.218-0.001l0.387,0.055l0.079-0.003l0.096-0.035l0.164-0.086l0.067-0.064l0.034-0.075
	l0.037-0.151l0.069-0.172l0.092-0.16l0.134-0.104l0.204-0.004l0.123,0.082l0.124,0.156l0.098,0.177l0.047,0.148l-0.032,0.173
	l0.013,0.032l0.055,0.005l0.057-0.002l0.052,0.006l0.041,0.032l0.079,0.097l0.46,0.382l0.075,0.088l0.025,0.072l0.01,0.053
	l0.097,0.226l0.003,0.036l0.007,0.017l0.023,0.025l0.052,0.021l0.021,0.016l0.093,0.158l0.076,0.191l0.116,0.434l0.133,0.304
	l0.008,0.105l-0.045,0.199l-0.012,0.103l0.057,0.755l0.003,0.045l0.065,0.347l0.063,0.345v0.249l-0.073,0.169l0.018,0.058v0.057
	l-0.021,0.115l0.003,0.056l0.14,0.497l0.117,0.291l0.597,0.941l0.306,0.358l0.376,0.271l0.464,0.108l1.249-0.18l0.226-0.001
	l0.116,0.097l-0.051,0.077l-0.02,0.097l0.003,0.199l0.09-0.028l0.059-0.093l0.057-0.226l0.008-0.117l0.025-0.027l0.07-0.022
	l0.058-0.009l0.048,0.005l0.037,0.028l0.024,0.061l-0.043,0.053l-0.024,0.069l0.009,0.071l0.048,0.057l0.015-0.057l0.018-0.043
	l0.026-0.031l0.038-0.018l0.002-0.038l0.009-0.023l0.026-0.011l0.049-0.009l-0.026-0.136l-0.037-0.084l-0.029-0.061l0.077,0.105
	l0.092,0.153l0.07,0.166l0.034,0.288l0.416,0.911l0.093,0.148l0.12,0.13l0.143,0.093l0.313,0.119l-0.037-0.125l-0.058-0.093
	l-0.022-0.078l0.068-0.079l-0.063-0.017l-0.058-0.027l-0.107-0.066l0.123-0.034l0.17,0.135l0.151,0.184l0.062,0.107l0.009,0.067
	l0.028,0.112l0.041,0.108l0.042,0.056l0.054-0.026l-0.02-0.102l-0.084-0.21l0.105,0.229l0.18,0.527l0.047,0.25l0.017,0.268
	l0.022,0.127l0.055,0.104l0.045,0.039l0.214,0.128l0.091,0.083l0.072,0.03l0.246,0.354l0.06,0.145l0.058-0.01l0.043-0.027
	l0.028-0.044l0.009-0.062l0.056,0.172l-0.173,0.206l-0.357,0.275l-0.027,0.228l-0.029,0.109l-0.065,0.03l-0.014,0.015l-0.132,0.082
	l-0.058,0.005l-0.115-0.008l-0.044,0.01l-0.006,0.031l0.1,0.072l0.168,0.004l0.05-0.008l0.048-0.033l0.064-0.086l0.13-0.098
	l0.05-0.072l0.079-0.18l0.006-0.024l0.003-0.06l0.009-0.021l0.029-0.012l0.03,0.004l0.026,0.008l0.021-0.003l0.043-0.022l0.04-0.015
	l0.032-0.027l0.021-0.056l0.038-0.068l0.061-0.061l0.041-0.072l0.185,0.613l0.136,0.883l0.038,0.134l-0.007,0.055l-0.053,0.046
	l-0.033,0.043l0.012,0.059l0.029,0.056l0.015,0.036l-0.005,0.098l0.07,0.694l-0.002,0.229l0.079,0.229l0.021,0.113l-0.004,0.057
	l-0.036,0.171l0.001,0.054l0.031,0.115l0.005,0.166l0.093,0.357l-0.02-0.016l-0.011-0.057l-0.023-0.019l-0.003,0.127l0.13,0.396
	l0.062,0.393l-0.007,0.126l-0.023,0.03l-0.042-0.001l-0.082-0.022l-0.013,0.017v0.034l-0.008,0.032l-0.033,0.012l-0.032-0.015
	v-0.025l0.005-0.027l-0.014-0.018l-0.032-0.074l-0.013-0.149l-0.037-0.252l0.028-0.011l0.025,0.02l0.032,0.035l0.05,0.037
	l-0.097-0.27l-0.024-0.103l-0.032,0.037l-0.035,0.013l-0.037-0.017l-0.039-0.046l-0.096-0.015l-0.422-0.154l-0.043,0.057
	l-0.076,0.204l-0.094,0.176l-0.022,0.064l0.013,0.131l0.062,0.15l0.174,0.283l0.173,0.356l-0.01,0.08l0.002,0.076l0.01,0.07
	l0.02,0.061l0.067,0.139l0.111,0.178l0.13,0.139l0.122,0.022l0.05,0.107l0.159,0.134l0.047,0.068l0.049,0.101l0.077,0.08
	l0.084,0.032l0.072-0.042l0.038,0.012l0.005,0.068l0.026,0.098l0.037,0.089l0.042,0.047l0.077,0.017l0.044-0.008l0.004-0.036
	l-0.053-0.065l0.055-0.007l0.056,0.01l0.054,0.026l0.044,0.042l-0.005-0.067l-0.022-0.04l-0.029-0.032l-0.021-0.039l-0.015-0.064
	l0.004-0.046l0.008-0.038l-0.001-0.039l-0.042-0.109l-0.052-0.011l-0.063,0.01l-0.077-0.042l0.038-0.025l0.011-0.042l-0.005-0.052
	l-0.013-0.057l-0.11,0.125l-0.026,0.049l-0.035-0.011l0.016-0.103l-0.035-0.071l-0.05-0.065l-0.022-0.089l-0.031-0.011l-0.017,0.027
	l-0.022,0.018l-0.028,0.006l-0.036-0.005l-0.011-0.021l-0.08-0.089l-0.017-0.004l0.014-0.068l0.114-0.225l-0.141-0.274l0.009-0.068
	l0.026-0.049l0.002-0.047l-0.066-0.067l0.064-0.021l0.044-0.008l0.05,0.007l0.081,0.024l0.007,0.019l0.018,0.079l0.007,0.025
	l0.022,0.021l0.057,0.027l0.021,0.021l0.026,0.061l0.029,0.097l0.002,0.086l-0.051,0.02l-0.073-0.004l-0.012,0.041l0.039,0.052
	l0.077,0.036l-0.018,0.024l-0.02,0.047l-0.014,0.024l0.087-0.048l0.037-0.006l0.029,0.025l0.012-0.146l-0.354-1.455l0.073,0.221
	l0.125,0.459l0.112,0.49l0.057,0.255l0.149,0.329l0.052,0.262l0.164,0.384l0.422,0.749l0.182,0.466l0.413,0.821l0.433,0.594
	l0.011,0.077l0.002,0.014l-0.052,0.042l-0.089,0.046l-0.058,0.046l0.038,0.042l0.051,0.03l0.065,0.079l0.063,0.026l0.031-0.005
	l0.077-0.043l0.055-0.01l-0.109-0.127l-0.016-0.028l0.005-0.036l0.014-0.036l0.021-0.02l0.03,0.02l0.165,0.206l0.122,0.098
	l0.222,0.305l0.145,0.161l0.067,0.103l0.041,0.205l0.54,0.646l0.099,0.067l0.404,0.662l0.081,0.09l0.084,0.055l0.039,0.063
	l0.133,0.343l0.143,0.167l0.067,0.117l0.018,0.121l0.011,0.037l0.056,0.119l0.016,0.044l-0.002,0.049l-0.021,0.121l-0.011,0.014
	l0.068,0.076l0.059-0.046l0.027-0.112l-0.059-0.171l-0.083-0.188l-0.059-0.154l0.057,0.125l0.13,0.289l0.188,0.334l0.066,0.077
	l0.107,0.274l0.081,0.107l0.065,0.144l0.037,0.064l0.05,0.045l0.053,0.033l0.049,0.037l0.042,0.064l0.174,0.122l0.106,0.24
	l0.406,1.862l0.342,1.044l0.105,0.219l0.044,0.05l0.127,0.122l0.025,0.035l0.02,0.017l0.073,0.127l0.012,0.03l0.048,0.066
	l0.098,0.262l0.063,0.101l-0.008,0.04l-0.033,0.003l-0.086,0.033l0.082,0.045l0.111,0.021l0.093,0.03l0.055,0.145l0.076,0.061
	l0.163,0.102l0.101,0.125l0.294,0.458l0.054,0.148l0.006,0.036l0.038,0.066l0.006,0.035l-0.011,0.03l-0.014,0.014l-0.014,0.008
	l-0.008,0.013l-0.018,0.007l-0.037-0.002l-0.041,0.008l-0.031,0.036l-0.014,0.12l0.047,0.045l0.065-0.019l0.06-0.111l0.075-0.091
	l0.03-0.025l0.046,0.013l0.026,0.066l0.027,0.132l0.043,0.091l0.013,0.052l-0.035,0.186l0.162-0.064h0.082l0.02,0.1l0.003,0.081
	l0.023,0.084l0.066,0.168l0.076,0.512l0.094,0.239l0.052,0.213l0.069,0.162l0.084,0.151l0.014,0.042l0.006,0.1l0.009,0.046
	l0.133,0.333l-0.013,0.043l-0.067,0.007l0.028,0.094l0.045,0.104l0.039,0.111l0.012,0.247l0.09,0.258l0.018,0.24l0.526,1.633
	l0.104,0.175l0.136,0.15l0.063,0.095l0.036,0.222l0.073,0.131l0.169,0.231l0.114,0.222l0.074,0.102l0.163,0.106l0.334,0.356
	l0.112,0.054l0.125,0.021l0.108-0.037l0.077-0.153l0.027-0.021l0.03-0.017l0.021-0.029l0.002-0.031l-0.006-0.047l-0.008-0.04
	l-0.009-0.012l0.063-0.08l-0.063-0.086l-0.175-0.057l-0.184-0.045l-0.177-0.015l0.121-0.029l0.151,0.025l0.26,0.09l0.26,0.107
	l0.257,0.176l0.29,0.144l0.142,0.1l0.248,0.234l0.044,0.027l0.038,0.006l0.024,0.015l0.001,0.054l-0.023,0.019h-0.09l-0.02,0.034
	l0.034,0.048l0.081,0.003l0.094-0.029l0.07-0.042l0.031,0.302l0.232,0.42l0.031,0.103l0.003,0.093l0.079,0.332l0.092,0.229
	l0.036,0.146l-0.048,0.171l0.05,0.107l0.073,0.118l0.047,0.108l-0.008,0.064l-0.02,0.076l-0.001,0.071l0.076,0.078l0.01,0.048
	l-0.024,0.238l0.004,0.12l0.016,0.12l0.125,0.524l0.068,0.148l0.012,0.281l-0.005,0.035l-0.03,0.083l-0.086,0.084l-0.074,0.097
	l0.006,0.124l-0.051,0.075l-0.05,0.201l-0.039,0.087l-0.06-0.058l-0.055,0.008l-0.042,0.059l-0.02,0.094l0.124-0.006v0.08
	l-0.097,0.209l-0.009,0.122l0.043,0.375l-0.055-0.048l-0.037-0.044l-0.036-0.027l-0.047,0.007l-0.061,0.055l-0.013,0.072
	l0.021,0.081l0.04,0.084l-0.055,0.078l-0.009,0.085l0.007,0.086l-0.001,0.086l0.132,0.406l0.058,0.09l0.051,0.011l0.058-0.016
	l0.074,0.007l0.089,0.068l0.129,0.197l0.229,0.16l0.303,0.292l0.275,0.169l0.143,0.168l0.097,0.074l0.29,0.115l0.082,0.067
	l0.002,0.092l0.203,0.369l0.105,0.32l0.056,0.124l0.16,0.237l0.065,0.029l0.057-0.006l0.047-0.019l0.037-0.009l0.112,0.003
	l0.046,0.019l0.028,0.051l-0.011,0.044l-0.04,0.039l-0.046,0.03l-0.076,0.028l-0.163,0.12l-0.037,0.042l-0.049,0.099l-0.09,0.038
	l-0.107-0.006l-0.108-0.033l-0.405-0.205l-0.098-0.031l-0.093-0.017l-0.181-0.012l0.051,0.047l0.062-0.003l0.03,0.059l-0.03,0.008
	l-0.019,0.011l-0.039,0.031l0.23-0.01l0.235,0.065l0.219,0.121l0.365,0.358l0.389,0.312l0.104,0.104l0.045,0.099l-0.481-0.196
	l-0.217-0.049l-0.257,0.065l-0.063,0.075l-0.049,0.129l-0.063,0.263l-0.022,0.041l-0.027,0.028l-0.01,0.035l0.032,0.056l0.035,0.03
	l0.027-0.004l-0.035,0.264l0.012,0.121l0.038,0.114l0.008,0.085l-0.077,0.035l-0.007,0.04l0.059,0.1l0.045,0.117l0.063,0.24
	l0.007,0.061l-0.004,0.042v0.042l0.021,0.056l0.068,0.128l0.023,0.068l0.02,0.278l0.084,0.246l0.336,0.64l0.129,0.156l0.55,0.498
	l0.104,0.054l0.15,0.163l0.081,0.057l0.05-0.067l0.068,0.097l0.15,0.166l0.066,0.096l0.146,0.266l0.088,0.122l0.097,0.074
	l0.333,0.33l0.048,0.006l0.507,0.269l0.596,0.429l0.44,0.168l0.229,0.047l0.195,0.002l0.12,0.051l0.912,0.162l0.282,0.093
	l0.057,0.006l0.043-0.022l0.066-0.045l0.11-0.108l0.065-0.026l0.2,0.04l0.073-0.018l0.066-0.005l0.068,0.044l0.035,0.055
	l0.025,0.067l0.029,0.135l0.042-0.031l0.007-0.063l-0.009-0.157l0.007-0.042l0.042-0.027l0.032,0.02l0.029,0.035l0.03,0.025
	l0.122,0.062l0.31,0.204l0.452,0.164l0.251,0.125l0.097,0.14l0.291,0.261l0.067,0.084l-0.016,0.189l0.013,0.075l0.088,0.135
	l0.016,0.018l0.028,0.109l0.077,0.085h0.064l-0.012-0.153l-0.068-0.141l-0.083-0.135l-0.032-0.106l0.087-0.059l0.191,0.156
	l0.258,0.087l0.711,0.132l0.24,0.004l0.915-0.109l0.236,0.016l0.252,0.126l0.184,0.191l0.131,0.094l0.119,0.005l0.106-0.025
	l0.412,0.027l0.398-0.029l0.293-0.022l0.226,0.063l-0.006,0.042l-0.438,0.014l-0.484,0.017l-0.343,0.177l-0.216,0.002l-0.257,0.1
	l-0.067,0.043l0.458,0.185l0.166,0.107l-0.06,0.069l-0.069-0.005l-0.141-0.08l-0.064-0.004l-0.043,0.035l-0.04,0.043l-0.055,0.021
	l0.134,0.058l0.068,0.042l0.047,0.123l0.148,0.207l0.141,0.034l0.131-0.033l0.244-0.109l0.156-0.007l0.068-0.021l0.039-0.066
	l0.03-0.126l0.049-0.13l0.048-0.266l0.021-0.044l0.05-0.028l0.041-0.038l0.029-0.053l0.008-0.042l0.006-0.034l0.095,0.061
	l0.076-0.05l0.079-0.088l0.105-0.047l-0.055-0.057l-0.021-0.019l-0.006-0.089l0.106-0.003l0.225,0.024l0.155,0.037l0.158,0.078
	l0.282,0.174l0.161,0.077l-0.032,0.056l-0.018,0.019l0.104,0.053l0.089,0.063l-0.008-0.032l-0.01-0.108l0.132,0.062l0.095,0.094
	l0.084,0.102l0.1,0.084l0.061,0.023l0.178,0.029l0.052,0.058l0.096,0.158l0.05,0.045l0.218,0.108l0.408,0.252l0.703,0.321
	l0.414,0.24l0.284,0.234l0.206,0.115l0.083,0.076l0.147,0.18l0.1,0.089l0.264,0.181l0.117,0.058l0.08,0.056l0.32,0.286l0.308,0.354
	l0.091,0.064l0.209,0.224l0.059,0.082l0.06,0.18l0.016,0.032l0.015,0.023l0.296,0.33l0.104,0.179l0.108,0.397l0.064,0.081
	l0.033-0.048l-0.034-0.152l-0.088-0.244l0.472,0.575l0.076,0.125l0.047,0.059l0.336,0.34l0.163,0.246l0.083,0.091l0.062,0.034
	l0.2,0.072l0.029,0.027l0.073,0.092l0.023,0.015l0.126,0.083l0.304,0.289l0.477,0.31l0.039,0.086l0.107,0.089l0.555,0.353
	l0.232,0.12l0.215,0.15l0.118,0.063l0.25,0.066l0.444,0.022l0.238,0.062l0.005-0.045l-0.048-0.049l-0.042-0.03l-0.039-0.005
	l-0.034,0.018l0.025-0.1l0.057-0.026l0.316,0.092l0.055,0.041l0.009,0.064l-0.023,0.178l-0.014,0.039l-0.009,0.042l0.007,0.074
	l0.021,0.069l0.036,0.079l0.28,0.496l0.089,0.09l0.005-0.044l-0.031-0.102l-0.156-0.375l-0.021-0.076l-0.101-0.091l-0.015-0.121
	l0.041-0.124l0.096-0.142l0.01-0.039l0.026-0.01l0.472,0.178l0.644,0.124l0.921,0.396l0.159,0.103l0.176,0.112l0.857,0.303
	l0.333,0.118l0.993,0.401l0.256,0.04l1.06,0.402l0.519,0.259l0.065,0.063l0.008,0.12l0.023,0.145l0.004,0.136l-0.051,0.094
	l-0.128-0.063l-0.095,0.12l-0.215,0.766l0.019,0.09l0.085,0.084l0.006-0.11l0.019-0.104l0.026-0.095l0.038-0.084l0.03-0.044
	l0.052-0.048l0.022-0.052l0.021-0.179l0.064-0.168l0.063-0.076l0.073,0.038l0.011,0.093l-0.369,1.088l-0.021,0.107l-0.014,0.041
	l-0.028,0.016l-0.066-0.021l-0.013-0.042l0.009-0.053l-0.001-0.061l-0.052-0.229l-0.04-0.037l-0.063,0.113l0.035,0.146l-0.046,0.252
	l0.054-0.003l0.042,0.018l0.024,0.153l0.011,0.363l-0.025,0.146l-0.09,0.138l-0.033,0.083l0.018,0.094l0.096,0.19l0.163,0.477
	l0.079,0.163l0.104,0.14l0.066,0.041l0.087,0.033l0.07,0.04l0.024,0.061l0.013,0.1l0.053,0.081l0.078,0.057l0.092,0.031l0.42,0.126
	l0.198,0.013l0.133-0.118l0.128,0.321l0.219,0.373l0.448,0.598l0.239,0.244l0.111,0.172l0.024,0.029l0.143,0.108l0.114,0.161
	l0.179,0.335l0.375,0.447l0.048,0.019l0.055,0.012l0.06,0.034l0.031,0.035l0.034,0.073l0.022,0.038l0.071,0.074l0.096,0.082
	l0.115,0.071l0.264,0.108l0.207,0.127l0.122,0.021l0.232-0.046l0.214-0.1l0.506-0.344l0.131-0.174l0.104-0.216l0.199-0.762
	l-0.017-0.136l-0.059-0.156l-0.03-0.145l0.071-0.107l0.059-0.012l0.038,0.03l0.041,0.045l0.064,0.036l0.063,0.004l0.044-0.018
	l0.035-0.019l0.034-0.003l0.063-0.021l0.094-0.061l0.385-0.318l0.12-0.061l0.025,0.086l-0.066,0.081l-0.393,0.272l-0.302,0.328
	l-0.123,0.328l-0.076,0.072l-0.016,0.092l-0.053,0.087l-0.039,0.101l0.053,0.23l-0.047,0.17l0.004,0.07l-0.096,0.132l-0.101,0.183
	l-0.075,0.2l-0.023,0.186l0.013,0.05l0.069,0.138l-0.003,0.063l-0.012,0.039l-0.018,0.036l-0.014,0.051l-0.02,0.2l0.005,0.105
	l0.049,0.184v0.228l0.034,0.102l0.037,0.068l0.029,0.074l0.013,0.081l-0.051,0.293l0.019,0.094l0.08,0.059l0.049,0.05l0.02,0.09
	l0.001,0.096l-0.092,0.768l-0.002,0.214l0.043,0.236l0.079,0.228l0.443,0.939l0.119,0.163l0.302,0.289l0.083,0.051l0.371,0.12
	l0.121,0.056l0.093,0.073l-0.041-0.09l0.009-0.075l-0.007-0.072l-0.092-0.083l0.135,0.006l0.055,0.078l0.021,0.114l0.04,0.114
	l0.034,0.035l0.143,0.096l0.083,0.109l0.055,0.037l0.075-0.016l-0.038,0.157l0.209-0.068l0.193,0.011l0.571,0.236l0.053,0.043
	l0.053,0.066l0.105,0.192l0.039,0.054l0.306,0.184l0.044,0.053l-0.008,0.1l0.036,0.242l0.387,1.254l0.058,0.091l0.153,0.191
	l0.022,0.1l-0.049,0.632l0.026,0.296l0.09,0.226l0.185,0.025l-0.037,0.313l-0.149,0.323l-0.41,0.686l-0.027,0.034l-0.109,0.053
	l-0.047,0.034l-0.116,0.11l-0.071,0.124l-0.071,0.062l-0.623,0.405l-0.1,0.082l-0.623,0.511l-0.251,0.131l-0.764,0.282l-0.349,0.224
	l-0.194,0.024l-0.566,0.273l-0.146,0.023l-0.229,0.15l-0.384,0.106l-0.13,0.059l-0.521,0.368l-0.144,0.048l-0.06-0.041l0.01-0.062
	l0.137-0.047l0.003-0.105l-0.028-0.118l-0.028-0.071l-0.02,0.073l0.008,0.083l-0.011,0.069l-0.078,0.034l-0.06-0.026l-0.066-0.067
	l-0.051-0.078l-0.015-0.064l0.113-0.29l-0.015-0.023l-0.053,0.037l-0.058,0.055l-0.021,0.03l-0.016-0.048v-0.087l-0.011-0.074
	l-0.042-0.011l-0.033,0.054l-0.003,0.081l0.015,0.075l0.02,0.037l0.051,0.049l-0.033,0.075l-0.095,0.114l0.028,0.042l0.156,0.107
	l0.054,0.057l-0.091,0.021l-0.027-0.05l-0.029-0.027l-0.081-0.045l0.034,0.103l0.051,0.078l0.077,0.046l0.111,0.008l-0.059,0.043
	l-0.089,0.016l-0.096-0.005l-0.075-0.014l-0.07-0.001l-0.132,0.045l-0.201,0.01l-0.373,0.071l-0.129-0.046l0.035-0.003l0.022-0.006
	l0.028-0.003l0.045,0.008l0.011-0.042l-0.082-0.019l-0.22-0.098l0.029,0.064l0.02,0.02l0.048,0.024l-0.009,0.037l-0.368,0.013
	l-0.208,0.034l-0.027,0.073l0.062,0.008l0.473-0.055l0.085,0.01l-0.009,0.035l-1.122,0.17l-1.014,0.03l-0.818-0.097l-0.134-0.072
	l-0.878-0.118l-0.453,0.021l-0.064,0.021l-0.267-0.033l-0.081,0.001l-0.038-0.1l0.094-0.081l0.147-0.05l0.121-0.004l0.017,0.036
	l-0.072,0.118l0.01,0.035l0.072,0.014l0.067,0.001l0.057-0.022l0.045-0.05l-0.033-0.017l-0.073-0.052l0.086-0.006l0.089,0.029
	l0.068,0.042l0.024,0.029l0.007-0.053l-0.008-0.062l-0.041-0.04l-0.092,0.02l-0.035-0.076l0.11-0.002l0.947,0.106l0.01-0.04
	l-0.152-0.048l-0.365-0.041l-0.14-0.088l-0.199,0.078l-0.093-0.002l-0.035-0.083l0.09-0.004l0.169-0.046l0.086-0.014l0.072,0.008
	l0.121,0.047l0.077,0.018l0.31,0.031l0.125-0.021l0.116-0.069l0.088,0.034l0.066,0.051l0.058,0.06l0.066,0.054l0.474,0.244
	l0.089-0.001l0.063-0.098l0.118-0.258v-0.055l0.091-0.117l-0.012-0.11l-0.141-0.193l-0.074,0.092l-0.097,0.08l-0.063,0.089
	l0.017,0.125l-0.048,0.051l-0.058,0.045l-0.124-0.108l-0.115-0.031l-0.129-0.007l-0.262-0.068l-0.105-0.001l-0.068,0.025
	l0.013,0.054l-0.063-0.005l-0.099-0.042l-0.069-0.014l-0.06,0.003l-0.111,0.021l-0.062-0.006l-0.095-0.047l-0.043-0.055
	l-0.053-0.044l-0.117-0.018l-0.116,0.02l-0.242,0.064h-0.098l-0.267,0.156l-0.091,0.03l0.065,0.119l-0.172,0.049l-0.229-0.009
	l-0.104-0.054l-0.093,0.086l-0.322-0.028l-0.019,0.046l-0.046,0.039l-0.053,0.015l-0.127,0.01l0.109,0.075l0.111-0.005l0.108-0.03
	l0.099-0.006l0.229,0.05l0.123,0.008l0.11-0.016l-0.091,0.062l-0.157,0.038l-0.502,0.056l-0.09-0.018l-0.078-0.042l-0.051-0.013
	l-0.068,0.022l-0.087-0.022l-0.084-0.297l-0.06-0.089l-0.037-0.015l-0.032-0.035l-0.04-0.016l-0.048,0.002l-0.002,0.034l0.012,0.042
	l-0.008,0.027l-0.119,0.023l-0.064,0.025l-0.048,0.055l0.21-0.021l0.107,0.019l0.082,0.068l0.033,0.113l-0.043,0.068l-0.084,0.038
	l-0.088,0.02l-0.252,0.021l-0.49-0.027l-0.253,0.018l-0.322,0.126l-0.104,0.002l-0.116-0.022l-0.264-0.006l-0.097,0.021
	l-0.172,0.106l-0.093,0.039l-0.229-0.012l-0.765,0.152l-0.109-0.004l-0.042,0.004l-0.045,0.02l-0.052,0.014l-0.059-0.01
	l-0.024-0.023l-0.039-0.084l-0.024-0.036l-0.115,0.148l-0.254,0.031l-0.488-0.046l-1.003,0.01l-1.329,0.173l-0.061,0.014
	l-0.038,0.015l-0.04,0.005l-0.07-0.009l-0.026-0.068l-0.042-0.028l-0.082,0.019l0.004,0.08l-0.096,0.04l-0.24,0.03l-0.195,0.054
	l-0.088,0.048l-0.049,0.073l-0.033,0.109l-0.046,0.068l-0.075,0.024l-0.12-0.017l-0.11,0.002l-0.176,0.064l-0.073-0.039
	l-0.816,0.102l-0.226,0.084l-0.958,0.487l-0.008,0.04l0.017,0.104l-0.026,0.011l-0.063,0.002l-0.188,0.096l-0.212,0.042l0.005-0.11
	l0.189-0.383l-0.035-0.009l-0.068,0.062l-0.065,0.005l-0.068-0.037l-0.084-0.067l0.017,0.082l0.074,0.132l0.005,0.073l-0.035,0.093
	l-0.056,0.077l-0.079,0.061l-0.103,0.042l-0.142,0.03l-0.039-0.024l0.059-0.182l-0.004-0.089l-0.063,0.011l-0.136,0.077l-0.01,0.005
	l0.117,0.266l0.083,0.044l0.195-0.042l-0.245,0.117l-0.04,0.027l-0.021,0.03l-0.033,0.021l-0.029,0.014l-0.019,0.008l-0.002,0.033
	l0.016,0.039l0.022,0.027l0.023-0.002l-0.1,0.06l-0.121,0.011l-0.211-0.022l-0.531,0.074h-0.283l-0.183-0.101l-0.038-0.01
	l-0.003,0.076l0.03,0.049l0.043,0.044l0.039,0.061l-0.071-0.022l-0.071-0.011l-0.141-0.001l-0.232,0.03l-0.711,0.188l-0.131,0.009
	l-0.047-0.007l-0.037,0.01l-0.04,0.032l-0.05,0.03l-0.06,0.003l-0.119-0.012l-0.102,0.023l-0.203,0.072l-1.183,0.127l-0.113,0.026
	l-0.115,0.053l-0.034-0.001l-0.125-0.036l-0.063-0.001l-0.072,0.028l-0.058,0.038l-0.061,0.027l-0.081-0.006l0.109-0.126
	l0.015-0.041l-0.02-0.051l-0.085-0.105l-0.011-0.054l0.008-0.065l-0.006-0.098l-0.026-0.097l-0.06-0.064l-0.02,0.266l0.021,0.265
	l-0.072,0.176l-1.161-0.034l-0.168-0.121l-0.063,0.037l-0.042,0.018l-0.119,0.005l-0.143-0.032l-0.072-0.007l-0.038,0.03
	l-0.066,0.007l-0.307-0.018l-0.244-0.04l-0.419-0.005l-0.109,0.018l-0.117,0.034l-0.099,0.012l-0.06-0.046l-0.109,0.012
	l-0.193-0.027l-0.15-0.026l0.182-0.009l0.141,0.021l0.034-0.076l-0.051,0.024l-0.129-0.037l-0.109-0.023l-0.411,0.033l-0.127-0.04
	l-0.326-0.048l-0.084-0.035l-0.022,0.015l-0.021,0.005l-0.021-0.001l-0.024-0.003l0.031-0.029l-0.003-0.025l-0.032-0.024
	l-0.06-0.023l0.009-0.034l0.051-0.043l0.018-0.073l-0.011-0.084l-0.031-0.077l-0.012,0.085l-0.033,0.036l-0.117,0.036l-0.088,0.053
	l-0.027-0.011l-0.006-0.075l-0.117,0.049l0.047,0.082l0.215,0.149l-0.203,0.024l-0.507,0.004l-0.367-0.048l-0.233,0.046
	l-0.204,0.016l-0.286,0.119l-0.16,0.041l-0.278,0.111l-0.13,0.021l-0.061-0.013l-0.118-0.04l-0.06-0.01l-0.059,0.007l-0.103,0.044
	l-0.064,0.008l-0.327-0.078l-0.123,0.001l-0.264,0.098l-0.131,0.021l-0.128-0.059l0.074-0.061l0.063-0.125l0.039-0.129v-0.103
	l-0.056,0.038l-0.21,0.337l-0.036,0.041l-0.117,0.041l-0.26-0.077l-0.119,0.008l-0.067,0.017l-0.075-0.019l-0.154-0.075
	l-0.052-0.008l-0.037,0.02l-0.048,0.015l-0.225-0.056l-0.25,0.028l-0.15-0.061l0.124-0.05l0.178,0.01l0.145-0.014l0.028-0.123
	l-0.094,0.025l-0.021-0.036l0.054-0.171l-0.337,0.148l-0.052,0.071l-0.019-0.025l-0.04-0.038l-0.019-0.025l-0.044,0.059
	l-0.002,0.031l0.02,0.051l-0.077-0.016l-0.031-0.018l-0.05-0.046l0.026,0.131l0.072,0.049l0.087,0.029l0.071,0.065l0.022,0.116
	l-0.031,0.097l-0.06,0.04l-0.057-0.051l-0.171-0.028l-0.135-0.061l-0.07-0.126l0.016-0.227l-0.041-0.021l-0.054,0.086l0.004,0.088
	l0.022,0.094l0.003,0.105l-0.038,0.064l-0.068,0.025l-0.068-0.026l-0.041-0.089l-0.12-0.007l-0.261-0.085l-0.115,0.019l-0.113,0.084
	l-0.041,0.082l0.022,0.098l0.077,0.146l-0.174,0.016l-0.055,0.023l-0.011,0.027l-0.003,0.085l-0.012,0.027l-0.079,0.012
	l-0.012-0.001l-0.143,0.187l-0.096,0.063l-0.114-0.019l0.075-0.096l-0.028-0.05l-0.073-0.039l-0.059-0.062l-0.021-0.085l0.007-0.083
	l0.035-0.065l0.065-0.027l-0.098-0.125l-0.059-0.098l-0.024-0.1l0.001-0.129l0.02-0.064l0.027-0.052l-0.003-0.048l-0.069-0.049
	l-0.026,0.019l-0.023,0.062l-0.043,0.051l-0.085-0.019l0.047,0.1l0.044,0.255l0.032,0.065l0.038,0.06l0.038,0.117l0.021,0.129
	l-0.019,0.088l-0.075,0.028l-0.196-0.009l-0.05,0.049l-0.031,0.015l-0.188,0.213l-0.09-0.003l-0.085-0.048l-0.17-0.121l-0.099-0.014
	l-0.053,0.055l-0.035,0.083l-0.048,0.058l-0.302,0.018l-0.057,0.036l-0.15,0.307l-0.159-0.15l-0.066-0.081l-0.048-0.084
	l-0.047-0.182l-0.048-0.053l-0.105,0.006l0.035,0.069l-1.146-0.16l-0.082,0.023l-0.042,0.076l-0.031,0.143l-0.058,0.127
	l-0.094,0.078l-0.214,0.098l0.097-0.373l0.009-0.063l-0.004-0.09l0.05-0.062l0.039-0.077l-0.038-0.128l0.118-0.192l0.072-0.051
	l0.125-0.003v-0.032l-0.002-0.025l-0.008-0.022l-0.017-0.035l-0.05,0.033l-0.21,0.065l-0.048,0.045l-0.159,0.23l-0.012,0.043
	l-0.011,0.1l-0.014,0.042l-0.024,0.021l-0.061,0.024l-0.018,0.03l-0.065,0.23l0.006,0.076l-0.07-0.027l-0.077-0.078l-0.065-0.096
	l-0.039-0.084l-0.014-0.085l0.002-0.327l-0.044,0.046l-0.033,0.01l-0.025-0.021l-0.025-0.052l-0.036-0.019l0.127,0.581l0.033,0.091
	l-0.056,0.122l-0.112,0.056l-0.138-0.106l-0.15,0.035l-0.075-0.005l-0.086-0.031l-0.07-0.05l-0.027-0.048l-0.018-0.046l-0.047-0.039
	l-0.073-0.125l-0.021-0.211l-0.005-0.379l-0.04-0.021l-0.054,0.249l-0.007,0.125l0.039,0.073l0.011,0.067l0.082,0.302l0.025,0.05
	l-0.058,0.045l-0.112,0.026l-0.123,0.005l-0.191-0.043l-0.068,0.002l-0.05-0.033l-0.04-0.125l-0.021,0.07l-0.036,0.113l-0.044,0.099
	l-0.052,0.047l-0.074-0.019l-0.247-0.146l-0.156-0.024l-0.418,0.042l-0.152,0.05l-0.349,0.258l-0.133,0.073l-0.177,0.053
	l-0.127-0.037l0.021-0.203l-0.042-0.022l-0.02,0.114l-0.044,0.093l-0.063,0.052l-0.076-0.006l-0.022,0.012l-0.024,0.042
	l-0.038,0.035l-0.063-0.008l-0.022-0.056l-0.024-0.046l-0.035-0.042l-0.34-0.173l-0.081-0.063l-0.046-0.074l-0.036-0.085
	l-0.059-0.095l0.011,0.176l0.073,0.128l0.129,0.102l0.172,0.095l-0.291-0.098l-0.234-0.121l-0.097-0.012l-0.011,0.026l0.014,0.044
	l-0.019,0.037l-0.05,0.02l-0.042,0.002l-0.124-0.031l-0.513-0.059l-0.032-0.01l-0.108-0.062l-0.023,0.01l-0.066,0.096l-0.074-0.048
	l-0.043-0.06l-0.025-0.077l-0.018-0.097l-0.065,0.097l-0.076,0.075l-0.096,0.031l-0.219-0.059l-0.262-0.023l-0.056,0.01
	l-0.037,0.041l-0.063-0.011l-0.13-0.072l-0.038-0.047l0.043-0.035l0.062-0.02h0.023l0.151-0.074l0.042-0.065l0.037-0.151
	l-0.03,0.052l-0.033,0.036l-0.039,0.026l-0.051,0.013l-0.023-0.038l-0.051-0.104l-0.019-0.057l-0.026,0.115l-0.06,0.1l-0.08,0.061
	l-0.088-0.005l-0.049-0.015l-0.009,0.006l-0.002-0.011l-0.026-0.069l0.001-0.026l-0.034-0.25l0.097,0.049l0.048-0.01l-0.004-0.044
	l-0.062-0.05l-0.109-0.021l-0.056,0.062l-0.004,0.112l0.042,0.136l-0.155,0.004l-0.041-0.009l-0.037-0.033l-0.059-0.097
	l-0.046-0.039l-0.078-0.026l-0.051,0.012l-0.1,0.069l-0.171-0.008l-0.152-0.12l-0.133-0.137l-0.113-0.053l0.032,0.068l-0.103,0.023
	l-0.178-0.003l-0.16-0.043l-0.055-0.104l-0.025-0.009l-0.228-0.045l-0.09-0.055l-0.072-0.07l-0.123-0.17l-0.114,0.141l-0.066,0.024
	l-0.056-0.09l-0.095,0.037l-0.059-0.032l0.001-0.056l0.087-0.032l-0.121-0.121l-0.14-0.06l-0.142-0.013l-0.131,0.024l-0.068-0.086
	l-0.092-0.036l-0.092-0.007l-0.223,0.025l-0.122-0.062l-0.212,0.022l-0.094-0.025l-0.041,0.006l-0.135,0.064l-0.075,0.005
	l0.064-0.088l0.087-0.056l0.064-0.071l-0.007-0.135l-0.12,0.043l-0.333,0.03l-0.104,0.03l-0.154,0.108l-0.076-0.009l-0.064-0.023
	l-0.06-0.119l-0.074-0.1l-0.106,0.034l-0.104-0.108l-0.168,0.025l-0.255,0.117l-0.104-0.012l-0.045-0.037l-0.001-0.064l0.019-0.085
	l0.008-0.1l-0.043-0.295l-0.056,0.08l-0.063,0.201l-0.051,0.083l-0.077,0.041l-0.096,0.002l-0.09-0.039l-0.066-0.078l-0.057,0.025
	l-0.082,0.019l-0.083-0.005l-0.058-0.049l-0.052-0.095l-0.06-0.074l-0.07-0.037l-0.082,0.019l-0.065,0.004l-0.159-0.059
	l-0.067,0.003l-0.123,0.053l-0.07,0.007l-0.192-0.058l-0.133-0.006l-0.484,0.091l-0.117-0.05l-0.085-0.178l-0.027,0.107l-0.06,0.044
	l-0.073-0.013l-0.072-0.063l-0.04-0.1l-0.009-0.101l-0.029-0.086l-0.101-0.061v0.083l0.021,0.079l0.036,0.075l0.048,0.071
	l-0.085,0.012l-0.103,0.048l-0.089,0.001l-0.003-0.019l-0.028-0.04l-0.044-0.034l-0.052-0.001l-0.053,0.019l-0.042-0.005
	l-0.448-0.168l-0.141,0.019l-0.079,0.164l-0.104-0.115l-0.03-0.05l-0.044,0.014l-0.053-0.015l-0.051-0.041l-0.047-0.061l0.046-0.072
	l0.044-0.009l0.052,0.014l0.07-0.003l0.069-0.022l0.019-0.021l-0.001-0.042l0.015-0.086l0.037-0.108l0.06-0.115l0.086-0.091
	l0.115-0.032l0.028,0.13l0.069,0.036l0.032-0.056l-0.082-0.146l-0.11-0.074l-0.201-0.042l-0.076-0.085l-0.067,0.072l-0.029,0.087
	l-0.027,0.209l-0.051,0.102l-0.092,0.08l-0.101,0.017l-0.086-0.094l-0.026,0.104l-0.04,0.037l-0.149,0.048l-0.023,0.03l-0.003,0.038
	l-0.006,0.035l-0.035,0.016l-0.042-0.002l-0.025-0.015l-0.024-0.023l-0.045-0.031l-0.08-0.024l-0.062,0.012l-0.06,0.02l-0.077,0.002
	l-0.068-0.024l-0.22-0.127l-0.118-0.093l-0.097-0.134l-0.042-0.149l0.052-0.135l0.104-0.05l0.312-0.05l0.137-0.064l-0.1-0.097
	l-0.072,0.04l-0.078,0.073l-0.119-0.004l-0.09-0.025h-0.105l-0.092,0.026l-0.048,0.048l-0.014,0.206l-0.04,0.06l-0.107-0.024
	l-0.363-0.017l-0.102,0.075l-0.194-0.034l-0.222-0.089l-0.279-0.151l-0.083-0.076l-0.062-0.095l-0.022-0.112l0.014-0.049
	l0.065-0.076l0.013-0.07l-0.126-0.17l0.072-0.05l0.264-0.122l0.089,0.107l0.085,0.021l0.074-0.042l0.054-0.078l-0.138-0.021
	l-0.138-0.097l-0.106-0.133l-0.046-0.126l-0.106,0.15l-0.054,0.022l-0.097-0.004l-0.033-0.025l-0.044-0.05l-0.042-0.036
	l-0.025,0.014l-0.004,0.039l0.003,0.039l0.012,0.034l0.02,0.021l0.014,0.121l-0.112,0.158l-0.165,0.056l-0.137-0.187l0.091-0.065
	l-0.042-0.069l-0.145-0.091l-0.004-0.093l0.042-0.081l0.019-0.09l-0.072-0.118l-0.053,0.224l-0.039-0.02l0.016-0.099l-0.019-0.181
	l0.003-0.362l0.011-0.026l-0.097-0.124l-0.038,0.103l0.002,0.203l0.023,0.184l-0.073-0.004l-0.141-0.104l-0.063,0.017l-0.099-0.129
	l-0.049,0.019l-0.042,0.064l-0.079,0.006l-0.389-0.256l-0.012,0.047l0.169,0.213l0.049,0.131l0.189,0.111l0.065,0.083l0.09-0.072
	l0.104,0.12l0.169,0.399l-0.054-0.028l-0.146-0.032l0.056,0.145l0.107,0.189l0.132,0.177l0.215,0.174l0.073,0.084l0.02,0.074
	l-0.084,0.027l-0.061-0.026l-0.054-0.053l-0.063-0.047l-0.09-0.013l-0.01,0.044l0.03,0.042l0.019,0.04l0.036,0.113l-0.072-0.002
	l-0.055-0.069l-0.11-0.203l-0.072-0.085l-0.06-0.049l-0.166-0.071l0.043-0.052l0.021-0.018l-0.045-0.058l-0.06-0.049l-0.059-0.009
	l-0.038,0.065l-0.148-0.167l-0.062-0.042l-0.063-0.018l-0.116,0.007l-0.053-0.012l-0.037-0.038l-0.04-0.096l-0.028-0.02
	l-0.043,0.014l-0.012,0.045l0.012,0.049l0.074,0.079l0.023,0.067l-0.011,0.047l-0.057-0.006l-0.047-0.037l-0.208-0.249l-0.134-0.195
	l-0.05-0.101l-0.029,0.093l0.066,0.13l0.094,0.141l0.048,0.127l-0.34-0.155l-0.183-0.12l-0.066-0.106l0.056-0.362l0.057-0.171
	l0.143-0.059l0.054-0.081l0.068-0.179l0.008-0.113l-0.008-0.1l0.027-0.079l0.104-0.059l0.338,0.016l0.129-0.05l-0.032-0.183
	l-0.085,0.098l-0.094-0.034l-0.083-0.051l-0.053,0.043l-0.046,0.026l-0.095,0.028l-0.1,0.049l-0.061,0.09l-0.065,0.358l-0.048,0.103
	l-0.075,0.072l-0.172,0.115l-0.076,0.093l0.069,0.169l-0.035,0.102l-0.096,0.054l-0.232,0.054l-0.054-0.002l-0.323-0.085
	l-0.134-0.06l-0.063-0.089l-0.025-0.12l-0.059-0.825l-0.084,0.118l-0.007,0.146l0.013,0.151l-0.022,0.133l-0.03,0.042l-0.046,0.024
	l-0.056,0.001l-0.067-0.023l-0.057,0.004l-0.056,0.048l-0.07,0.094l-0.013,0.047l0.064,0.007l0.057,0.011l0.043,0.03l0.024,0.051
	l0.092-0.059l0.049-0.016l0.044,0.018l0.026,0.061l-0.03,0.04l-0.142,0.063l-0.303-0.074l-0.094-0.102l-0.252-0.071l-0.448-0.07
	l0.037-0.034l0.042-0.021l0.05-0.007l0.055,0.006l-0.016-0.144l-0.052-0.026l-0.083,0.013l-0.106-0.023l-0.025-0.037l0.005-0.049
	v-0.049l-0.039-0.044l-0.051-0.023l-0.046-0.015l-0.083-0.011l0.185,0.373l-0.006,0.084l-0.101-0.037l-0.193-0.131l-0.079,0.008
	l-0.196,0.062l-0.057-0.024l-0.064-0.104l-0.074-0.076l-0.188-0.114l-0.144-0.05l-0.058-0.048l-0.007-0.084l-0.023-0.069
	l-0.068-0.109l-0.086-0.109l-0.076-0.072l-0.319-0.167l-0.061-0.05l-0.226-0.248l-0.231-0.166l-0.054-0.052l-0.083-0.147
	l-0.057-0.054l-0.02,0.004l-0.008,0.027l-0.013,0.027l-0.035-0.001l-0.112-0.059l-0.011-0.012l-0.17-0.126l-0.071-0.098
	l-0.069-0.117l-0.082-0.112l-0.115-0.089l0.008-0.033l-0.02-0.091l-0.033-0.104l-0.027-0.063l-0.05-0.052l-0.163-0.102l-0.104-0.101
	l-0.097-0.125l-0.229-0.398l-0.093-0.101l-0.107-0.084l-0.121-0.07l-0.064-0.029l-0.125-0.033l-0.059-0.025l-0.045-0.045
	l-0.051-0.128l-0.057-0.051l-0.239-0.151l-0.109-0.046l-0.09,0.017l-0.08-0.335l0.011-0.041l-0.061-0.019l-0.048,0.036l-0.042,0.049
	l-0.045,0.026l-0.046-0.022l-0.031-0.043l-0.041-0.036l-0.067,0.004l0.091,0.183l-0.067,0.067l-0.132-0.03l-0.106-0.114
	l-0.067-0.119l-0.021,0.035l0.004,0.091l0.007,0.045l0.081,0.315l-0.07-0.101l-0.178-0.152l-0.037-0.095l-0.223,0.083l-0.065-0.174
	l-0.026-0.227l-0.108-0.07l-0.014,0.082l-0.002,0.156l-0.021,0.139l-0.071,0.031l-0.052-0.015l-0.048,0.011l-0.039,0.034
	l-0.024,0.051l-0.026,0.07l-0.026,0.026l-0.091,0.024l-0.087-0.01l0.019-0.112l0.099-0.225l0.012-0.148l-0.044-0.057l-0.451,0.002
	l-0.057,0.016l-0.01,0.066l0.031,0.327l-0.026,0.006l-0.036,0.026l-0.033,0.013l0.024,0.044l0.032,0.031l0.097,0.058l0.018,0.041
	l0.022,0.223l-0.162-0.124l-0.102-0.158l-0.086-0.103l-0.111,0.047l0.023,0.064l-0.035,0.123l0.007,0.076l0.036,0.046l0.061,0.037
	l0.119,0.055l0.066,0.047l0.005,0.037l-0.015,0.047l0.032,0.165l-0.028,0.044l-0.12,0.04l-0.075-0.042l-0.063-0.139l-0.124-0.515
	l-0.054-0.157l-0.01-0.071l0.021-0.084l-0.073,0.039l-0.12,0.191l-0.059,0.025l-0.066,0.013l-0.053,0.07l-0.068,0.052l-0.109-0.048
	l0.042,0.167l0.023,0.059l-0.094,0.039l-0.066-0.006l-0.168-0.059l-0.147-0.012l-0.053-0.014l-0.032-0.044l-0.001-0.091l0.035-0.231
	l-0.02-0.061l-0.057,0.02l-0.021,0.098l-0.009,0.203l-0.047,0.083l-0.07,0.043l-0.056-0.009l-0.008-0.069l0.009-0.43l-0.048-0.292
	l-0.013-0.032l-0.098-0.417l0.102-0.079l-0.049-0.065l-0.093-0.021l-0.034,0.054v0.389l0.016,0.137l0.103,0.426l-0.024,0.191
	l-0.071-0.082l-0.244-0.339l-0.038-0.129l-0.016-0.121l-0.115-0.336l-0.018-0.107l0.013-0.154l-0.024-0.184l-0.045-0.179
	l-0.054-0.14l-0.177-0.242l-0.026-0.103l0.016-0.069l0.077-0.133l0.027-0.076l0.009-0.123l-0.02-0.331l-0.06-0.24l-0.012-0.404
	l-0.063-0.468l0.019-0.152l-0.008-0.064l-0.033-0.087l-0.051-0.062l-0.058,0.011l-0.001,0.05l0.041,0.263l0.007,0.264l0.009,0.043
	l0.044,0.152l0.002,0.069l-0.012,0.141l0.034,0.307l-0.016,0.154l-0.116,0.248l-0.052,0.146l0.006,0.127l0.036,0.168l-0.027,0.133
	l-0.132,0.229l-0.051,0.131l-0.044,0.375l-0.053,0.138l-0.052,0.1l-0.036,0.114l0.003,0.324l-0.014,0.135l-0.06,0.079l-0.129-0.024
	l-0.094-0.076l-0.174-0.219l-0.109-0.101l-0.337-0.224l-0.046-0.054l-0.02-0.141l-0.096-0.144l-0.202-0.245l-0.04-0.131l0.012-0.122
	l0.075-0.226l-0.026-0.1l-0.09-0.08l-0.078-0.091l0.016-0.135l-0.041-0.021l-0.022,0.045l-0.013,0.038l-0.009,0.04v0.041
	l0.016,0.057l0.03,0.04l0.03,0.029l0.016,0.022l-0.088,0.449l0.04,0.102l0.048,0.087l0.047,0.171l0.028,0.179l-0.001,0.11
	l-0.067,0.031l-0.268,0.043l-0.083-0.005l-0.093-0.069l-0.18-0.188l-0.11-0.089l-0.064-0.029l-0.063-0.021l-0.059-0.031
	l-0.084-0.118l-0.052-0.051l-0.113-0.078l-0.075-0.083l-0.08-0.149l-0.065-0.161l-0.029-0.121l0.005-0.164l0.041-0.12l0.073-0.086
	l0.101-0.068l0.06-0.055l0.015-0.061l-0.003-0.057l0.01-0.052l0.038-0.062l0.043-0.046l0.103-0.078l-0.212-0.404l-0.053-0.181
	l0.026-0.23l0.066-0.088l0.096-0.062l0.066-0.077l-0.021-0.143l-0.062-0.074l-0.095-0.054l-0.097-0.014l-0.074,0.043l0.055,0.071
	l0.014,0.101l-0.027,0.101l-0.07,0.068l-0.057,0.08l-0.019,0.132l0.01,0.141l0.023,0.105l0.021,0.212l-0.078,0.167l-0.245,0.339
	l-0.022,0.079l-0.007,0.075l-0.017,0.063l-0.098,0.077l-0.032,0.055l-0.047,0.134l-0.004,0.143l0.102,0.277l0.033,0.155v0.158
	l-0.019,0.082l-0.037,0.044l-0.05-0.011l-0.035-0.104l-0.049-0.004l-0.041,0.085l0.03,0.131l0.02,0.14l-0.076,0.114l-0.079-0.002
	l-0.134-0.035l-0.119-0.058l-0.04-0.076l-0.027-0.133l-0.104-0.077l-0.089,0.029l0.013,0.189l0.049,0.099l0.082,0.123l0.097,0.116
	l0.091,0.075l0.114,0.119l-0.015,0.127l-0.058,0.116l-0.018,0.084l-0.105,0.028l-0.054-0.048l-0.045-0.015l-0.076,0.13l-0.036,0.101
	l-0.012,0.1l0.035,0.072l0.102,0.018l-0.114,0.253l-0.006,0.089l0.123-0.056l0.091-0.126l-0.011-0.138l-0.099-0.273l0.077,0.001
	l0.046,0.045l0.041,0.063l0.062,0.056l0.034-0.018l0.114-0.145l0.051-0.243l0.256,0.061l0.549,0.36l0.076,0.108l0.052,0.045
	l-0.02,0.018l0.038,0.079l0.052,0.079l0.021,0.018l0.053,0.152l0.006,0.062l-0.015,0.078l-0.049,0.089l0.009,0.037l0.07,0.053
	l-0.014,0.049l-0.08,0.003l0.01,0.039l0.047,0.052l0.028,0.051l0.015,0.035l0.021,0.078l-0.004,0.067l-0.06-0.002l-0.071,0.016
	l-0.087,0.077l-0.067,0.11l-0.01,0.114l0.109-0.1l0.07-0.025l0.054,0.052l-0.001,0.07l-0.121,0.208l0.044-0.02l0.113-0.096
	l0.042,0.021l0.029,0.036l0.002,0.042l-0.045,0.038l-0.057,0.071l-0.026,0.115l0.003,0.122l0.031,0.085l0.203-0.311l0.04-0.1
	l0.026-0.254l0.02-0.091l0.024,0.092l0.037,0.02l0.057-0.068l0.024,0.062l0.07-0.087l0.055,0.048l0.06,0.083l0.073,0.021
	l0.074-0.009l-0.002,0.053l-0.091,0.172l-0.053,0.025l-0.107,0.029l-0.079,0.048l-0.11,0.089l-0.057,0.11l0.083,0.107l0.026-0.012
	l0.034-0.044l0.029-0.057l0.02-0.05l0.034-0.026l0.19-0.026l-0.001,0.126l-0.063,0.137l-0.227,0.298l0.003,0.051l0.078,0.061
	l0.146,0.082l0.071,0.025h0.071l-0.02-0.039l-0.007-0.034l-0.009-0.091l0.035,0.021l0.074,0.034l0.034,0.023l-0.003-0.24
	l0.016-0.126l0.046-0.072l0.077-0.072l0.018-0.093l-0.011-0.352l0.024-0.022l0.074,0.027l0.065,0.005l0.08-0.091l0.049-0.004
	l0.015-0.009l0.209,0.026l0.046-0.009l0.037-0.015l0.035-0.027l0.041-0.05l0.023-0.069l0.011-0.074l0.023-0.049l0.112,0.014
	l0.049-0.025l0.042-0.028l0.036-0.004l0.063,0.028l0.048,0.011l0.042,0.021l0.049,0.048l0.017,0.035l0.039,0.112l0.02,0.039
	l0.562,0.535l0.156,0.243l0.193,0.484l0.088,0.102l0.059,0.085l0.142,0.332l0.022,0.094l0.064-0.005l0.049,0.016l0.026,0.042
	l-0.005,0.074l0.081,0.004l0.045,0.047l0.027,0.056l0.023,0.033l0.056,0.01l0.135-0.007l0.093,0.048l0.049,0.126l0.006,0.046v0.068
	l0.009,0.068l0.028,0.043l0.021,0.067l0.064,0.499l-0.01,0.127l-0.065,0.298l0.163,0.962l0.05,0.154l0.039,0.208l-0.008,0.137
	l-0.04,0.076l-0.029,0.076l0.054,0.279l0.005,0.32l0.113,0.475l-0.021,0.238l-0.066-0.094l-0.029-0.052l-0.021-0.064l-0.001,0.134
	l0.025,0.119l0.117,0.383l0.05,0.093l0.085,0.074l0.05,0.164l-0.003,0.618l-0.048,0.414l0.146,1.402l-0.047,0.15l0.029,0.067
	l-0.05,0.083l0.019,0.101l0.04,0.102l0.02,0.087l-0.04,0.111l-0.058,0.121l-0.012,0.116l0.024,0.027l0.07,0.077l0.032,0.156
	l-0.013,0.063l-0.192,0.891l-0.042,0.13l-0.065,0.099l-0.102,0.067l-0.047,0.053l-0.005,0.083l0.007,0.09l-0.015,0.078l-0.042,0.047
	l-0.187,0.139l-0.617,0.838l-0.303,0.263l-0.064,0.124l-0.06,0.053l-0.253,0.118l-0.104,0.08l-0.242,0.334l-0.239,0.142
	l-0.188,0.171l-0.743,0.423l-0.563,0.398l-0.821,0.188l-0.074-0.005l-0.092,0.007l-0.45,0.096l-0.724,0.088l-0.384,0.008
	l-0.204-0.072l-0.112,0.085l-0.131,0.055l-0.137,0.036l-1.277,0.216l-0.473,0.188l-0.153,0.027l-0.367,0.033l-0.178,0.049
	l-0.273-0.002l-0.223,0.112l-0.168,0.043l-0.32,0.035l-0.118-0.024l-0.142-0.109l-0.102-0.028l0.003,0.175l-0.041,0.069
	l-0.139,0.063l-0.872,0.177l-0.262,0.083l-0.129,0.026l-0.547,0.034l-0.254,0.082l-0.151,0.033l-0.173-0.021l-0.51,0.023
	l-0.31,0.081l-0.18,0.03l-0.229-0.036l-0.337,0.001l-0.141-0.019l-0.124-0.071l-0.055-0.088l-0.035-0.089l-0.07-0.075l-0.096-0.076
	l-0.062-0.087l-0.037-0.088l-0.021-0.083l0.005-0.106l0.072-0.254l0.022-0.18l0.043-0.033l0.058,0.006l0.058,0.056l0.018,0.069
	l-0.045,0.111l0.021,0.07l0.188,0.008l0.086-0.02l0.092-0.071l0.029-0.049l0.026-0.105l0.024-0.053l0.045-0.042l0.054-0.026
	l0.044-0.027l0.02-0.045l-0.004-0.107l0.007-0.069l0.052-0.042l0.123-0.03l0.103,0.034l0.063,0.214l0.104,0.037l0.043,0.143
	l0.123,0.042l0.161-0.029l0.156-0.069l0.04,0.023l0.283-0.387l0.11-0.303l-0.052-0.11l0.04-0.078l0.339-0.364l0.113-0.185
	l0.026-0.064l-0.003-0.044l-0.035-0.13l-0.017-0.03l0.016-0.035l0.024-0.034l0.01-0.031l-0.05-0.073l-0.077-0.022l-0.092-0.011
	l-0.097-0.033l-0.079-0.063l0.023-0.032l0.056-0.033l0.015-0.068l0.031-0.033l0.271,0.07l0.115,0.053l0.042,0.077l0.104-0.046
	l0.182-0.134l0.111-0.047l-0.042-0.035l-0.021-0.031l-0.023-0.086l0.092-0.027l0.008-0.047l-0.027-0.054l-0.014-0.047l-0.001-0.028
	l-0.008-0.034l-0.003-0.034l0.014-0.031l0.036-0.024l0.093-0.048l0.021-0.025l-0.033-0.091l-0.171-0.222l-0.045-0.086l0.078-0.021
	l0.48-0.068l0.053-0.016l0.042-0.065l-0.018-0.056l-0.044-0.055l-0.034-0.061l-0.013-0.089l0.024-0.049l0.05-0.041l0.056-0.063
	l0.055-0.126l0.024-0.139l-0.002-0.428l0.018-0.072h0.011l0.096-0.113l0.013-0.04l-0.03-0.154l0.056-0.255l0.22-0.514l-0.012-0.259
	l-0.063-0.121l-0.167-0.226l-0.131-0.281l-0.244-0.38l-0.289-0.55l-0.043-0.055l-0.132-0.063l-0.057-0.04l-0.015-0.03l-0.057-0.163
	l-0.257-0.385l-0.027-0.107l-0.007-0.129l-0.129-0.31l-0.031-0.14l0.019-0.059l0.034-0.066l0.025-0.074l-0.013-0.089l-0.037-0.074
	l-0.07-0.096l-0.035-0.061l-0.087-0.118l-0.123-0.08l-0.134-0.04l-0.118-0.003l-0.102,0.031l-0.131,0.064l-0.072,0.084l0.07,0.094
	l0.028,0.08l0.027,0.313l0.067,0.126l0.055,0.029l0.076,0.028l0.071,0.015l0.066-0.01l0.11,0.13l0.048,0.026l0.049,0.015
	l0.074,0.045l0.07,0.054l0.039,0.044l0.014,0.054l-0.004,0.055l-0.039,0.134l-0.001,0.042l0.01,0.045l-0.002,0.041l-0.035,0.033
	l-0.034,0.018l-0.024,0.015l-0.02,0.024l-0.014,0.041l0.002,0.034l0.009,0.05l-0.002,0.038l-0.039,0.003l-0.051,0.019l-0.012,0.008
	l-0.072,0.124l-0.092,0.029l-0.101,0.007l-0.098,0.066l0.132,0.084l0.064,0.111l0.004,0.134l-0.054,0.16l-0.008,0.046l0.009,0.035
	l-0.009,0.03l-0.055,0.034l-0.033,0.007l-0.02-0.003l-0.014,0.008l-0.017,0.041l-0.036,0.065l-0.044,0.006l-0.044-0.035l-0.04-0.056
	l0.145,0.24l0.057-0.048l0.085-0.04l0.064,0.014l-0.003,0.112l-0.074,0.392l-0.002,0.482l-0.215,0.296l-0.158,0.329l-0.121,0.164
	l-0.062,0.111l-0.049,0.167l-0.026,0.184l0.012,0.156l0.143,0.317l-0.016,0.087l-0.114,0.094l-0.241,0.161l-0.313,0.325
	l-0.062,0.038l-0.16,0.045l-0.074,0.05l-0.146,0.165l-0.055,0.047l-0.063,0.041l-0.053,0.021l-0.042,0.014l-0.037,0.016
	l-0.266,0.198l-0.134,0.06l-0.179,0.142l-0.229,0.12l-0.493,0.444l-0.221,0.143l-0.487,0.201l-0.755,0.257l-1.137,0.6l-1.349,0.472
	l-0.258,0.069l-0.047,0.02l-0.038,0.002l-0.046-0.031l-0.055-0.023l-0.176,0.092l-0.138,0.015l-0.135-0.015l-0.097-0.027
	l0.029-0.001l0.101-0.02l-0.049-0.109l-0.042-0.047l-0.06-0.035l-0.037,0.107l-0.099,0.142l-0.134,0.104l-0.146-0.005l-0.107-0.211
	l0.021-0.042l0.116-0.154l0.016-0.046l-0.055-0.005l-0.085,0.029l-0.077,0.053l-0.047,0.025l-0.055-0.001l-0.047-0.008h-0.032
	l-0.026,0.027l-0.018,0.038l-0.008,0.034l-0.001,0.016l-0.082,0.034l-0.07,0.021l-0.063,0.002l-0.065-0.025l-0.05-0.044
	l-0.018-0.051l0.017-0.055l0.051-0.052l-0.069-0.008l-0.051,0.016l-0.029,0.039l-0.007,0.062l-0.076,0.039l0.006,0.04l0.019,0.054
	l-0.044,0.083l-0.077,0.046l-0.071-0.017l-0.059-0.052l-0.046-0.06l-0.018,0.088l-0.033,0.064l-0.054,0.037l-0.078,0.003
	l-0.063-0.104l-0.047-0.135l-0.011-0.139l0.042-0.122l-0.076-0.013l-0.02,0.03l-0.012,0.048l-0.048,0.038l-0.045,0.006h-0.12
	l-0.068,0.007l0.104,0.033l0.107,0.021l0.065,0.043l-0.021,0.103l-0.091,0.086l-0.097-0.019l-0.184-0.146l-0.274-0.125l-0.104-0.092
	l0.029-0.117l0.256-0.164l0.086-0.092l-0.09-0.063l-0.049,0.017l-0.029,0.049l-0.043,0.033l-0.088-0.03l-0.003-0.03l0.056-0.108
	l0.021-0.102l0.075-0.095l0.024-0.054l-0.002-0.039l-0.046-0.143l-0.021-0.223l0.01-0.125l0.091-0.208l-0.12-0.193l-0.016-0.127
	l0.031-0.049l0.164-0.158l0.026-0.056l0.013-0.135l0.033-0.063l0.028-0.072l0.037-0.361l-0.1,0.056l-0.058,0.151l-0.079,0.047
	l0.012,0.201l-0.034,0.143l-0.089,0.134l-0.163,0.177l-0.072,0.105v0.075l0.09,0.155l0.023,0.089l-0.018,0.071l-0.106,0.175
	l-0.033,0.099l-0.012,0.092l-0.023,0.092l-0.128,0.192l-0.027,0.15l-0.05,0.13l-0.002,0.121l0.092,0.555l0.073-0.025l0.042,0.015
	l0.02,0.042l0.005,0.054l-0.014,0.098l-0.039,0.046l-0.056,0.035l-0.067,0.059l-0.264,0.299l-0.243,0.208l-0.139,0.089l-0.121,0.027
	l-0.066-0.088l0.014-0.021l0.092-0.09l0.002-0.027l-0.053-0.059l-0.011-0.024l0.024-0.085l0.03-0.063l0.063-0.039l0.128-0.013
	l-0.019-0.101l0.061-0.084l0.038-0.078l-0.082-0.083l-0.036,0.134l-0.074,0.084l-0.108,0.049l-0.144,0.03l-0.142-0.006l-0.104-0.051
	l-0.092-0.072l-0.108-0.065l0.02,0.153l-0.009,0.068l-0.071-0.012l-0.068-0.059l-0.086-0.122l-0.13-0.109l-0.03-0.038l-0.029-0.023
	l0,0l-0.005-0.006l-0.069-0.214l0.01-0.049l0.04-0.105l0.01-0.045l0.013-0.015l0.05-0.039l0.016-0.019l-0.002-0.028l-0.031-0.001
	l-0.035,0.009l-0.017,0.001l-0.028-0.025l-0.047-0.025l-0.035-0.038l0.003-0.063l0.035-0.051l0.037-0.004l0.049,0.013l0.074,0.001
	l0.09-0.047l0.032-0.08l-0.009-0.091l-0.029-0.083l-0.041-0.017l-0.067-0.013l-0.04-0.029l0.042-0.062l0.047-0.017l0.056,0.008
	l0.055,0.022l0.039,0.026l0.028-0.212l0.165-0.233l0.505-0.534l0.428-0.453l0.339-0.36l-0.707-0.432l-0.534-0.325l-0.408-0.249
	l-0.122-0.229l0.232-0.234l0.168-0.004l0.322,0.151l0.154-0.046l0.003-0.07l-0.139-0.31l-0.027-0.039l-0.034-0.033l-0.009-0.043
	l0.055-0.068l0.056-0.032l0.072-0.02l0.074-0.01l0.246,0.009l0.128-0.025l0.087-0.079l0.069-0.154l0.069-0.254l0.065-0.1
	l0.138-0.093l0.374-0.186l0.097-0.077l0.144-0.202l0.19-0.427l1.259-1.313l0.19-0.101l0.736-0.141l0.298-0.148l0.269-0.242
	l0.874-0.979l0.107-0.26l-0.076-0.309l-0.074-0.122l-0.28-0.338l-0.063-0.115l-0.01-0.092l0.054-0.224l0.02-0.407l0.033-0.131
	l0.02-0.132l-0.059-0.298l-0.005-0.144l0.092-0.345l0.002-0.125l-0.065-0.367l0.082-0.708l0.085-0.253l0.149-0.004l0.041,0.067
	l0.022,0.137l0.022,0.052l0.055,0.038l0.202,0.044l0.218,0.089l0.092-0.002l0.11-0.061l0.158-0.175l0.307-0.789l0.013-0.141
	l-0.021-0.281l0.003-0.145l0.015-0.116l-0.024-0.057l-0.111,0.03l-0.099-0.029l-0.064-0.148l-0.082-0.481l0.008-0.128l0.042-0.112
	l0.087-0.106l0.04-0.117l-0.019-0.084l-0.045-0.076l-0.037-0.098l0.008-0.335l-0.03-0.085l-0.145-0.025l-0.12,0.181l-0.108,0.223
	l-0.105,0.104l-0.043-0.004l-0.041-0.015l-0.041-0.022l-0.036-0.032l-0.1-0.073l-0.03-0.04l-0.032-0.028l-0.033-0.011l-0.037,0.005
	l-0.118,0.072l-0.153-0.065l-0.148-0.139l-0.096-0.156l-0.027-0.483l-0.032-0.163l-0.066,0.015l-0.182,0.037l-0.519-0.051
	l-0.561,0.112l-0.326,0.014l-0.329-0.03l-0.776-0.198l-0.145-0.002l-0.137,0.045l-0.38,0.231l-0.241,0.101l-0.127,0.012l-0.13-0.041
	l-0.146-0.025l-0.283,0.124l-0.14,0.034l-0.195-0.055l-0.578-0.37l-0.443-0.283l-0.217-0.098l-0.181,0.05l-0.117,0.216l-0.023,0.253
	l0.003,0.269l-0.039,0.257l-0.217,0.707l-0.17,0.303l-0.144,0.196l-0.084,0.062l-0.149,0.02l-0.327-0.041l-0.143,0.048l-0.25,0.151
	l-0.298,0.109l-0.313,0.046l-0.296-0.038l-0.08-0.042l-0.249-0.206l-0.182-0.111l-0.076-0.075l-0.306-0.558l-0.16-0.197
	l-0.178-0.136l-0.222-0.073l-0.102-0.048l-0.09-0.089l-0.088-0.115l-0.081-0.071l-0.211-0.096l-0.408-0.278l-0.198-0.079
	l-0.224,0.073l-0.163,0.159l-0.122,0.196l-0.822,1.225l-0.251,0.16l-0.587,0.166l-0.291,0.118l-0.92,0.553l-0.285,0.053
	l-0.238-0.086l-0.515-0.45l-0.532-0.465l-0.273-0.346l-0.15-0.376l-0.05-0.661l0.055-0.418l-0.037-0.842l-0.2-0.535l-0.032-0.616
	l-0.089-0.214l-0.82-0.986l-0.069-0.118l-0.222-0.73l-0.025-0.083l-0.082-0.521l-0.161-0.478l-0.019-0.135l0.013-0.114l0.053-0.235
	l0.011-0.259l0.017-0.122l0.057-0.112l0.103-0.144l0.121-0.123l0.14-0.091l0.237-0.091l0.159-0.103l0.087-0.032l0.119,0.009
	l0.179,0.127l0.104,0.038l0.382,0.004l0.329-0.078l0.262-0.204l0.181-0.373l0.084-0.512l-0.024-0.784l-0.028-0.846l0.035-0.489
	l0.087-0.522l0.137-0.503l0.186-0.427l0.133-0.484l0.085-0.888l0.092-1.003l-0.021-0.101l-0.065-0.072l-0.586-0.393l-0.081-0.079
	l-0.077-0.117l-0.306-0.688l-0.208-0.913l-0.104-0.31l-0.162-0.267l-0.197-0.236l-0.88-0.85l-0.16-0.239l-0.253-0.613l-0.029-0.193
	l-0.05-0.945l-0.05-0.873l-0.04-0.746l-0.049-0.841l-0.019-0.115l-0.051-0.103l-0.277-0.35l-0.137-0.232l-0.243-0.517l-0.5-0.748
	l-0.314-0.469l-0.352-0.522l-0.62-0.642l-0.511-0.526l-0.514-0.529l-0.045-0.114l-0.02-1.069l0.161-1.027l-0.02-0.246l-0.281-1.147
	l-0.071-0.052l-0.061-0.043l-0.237-0.033l-0.248,0.012l-0.163,0.04l-0.203,0.196l-0.014-0.024l-0.063-0.072l-0.042-0.117
	l-0.007-0.124l0.041-0.09l-0.034-0.007l-0.073-0.022l-0.035-0.005l0.055-0.073l0.014-0.07l-0.016-0.067l-0.205-0.408l-0.051-0.064
	l-0.024-0.062l0.026-0.225l-0.036-0.099l-0.11-0.078l-0.096-0.03l-0.085-0.035l-0.073-0.099l-0.046-0.112l-0.03-0.095l-0.014-0.102
	l-0.007-0.13l0.022-0.126l-0.011-0.053l-0.063-0.05l-0.034-0.036l-0.019-0.097l-0.085-0.081l-0.025-0.058l-0.029-0.112l-0.091-0.167
	l-0.02-0.06l-0.02-0.1l-0.021-0.056l-0.035-0.013l-0.112-0.001l-0.014-0.027l0.011-0.112l-0.027-0.135l-0.064-0.099l-0.102-0.006
	l-0.038-0.059l-0.027-0.064l-0.011-0.068l0.013-0.069l0.023-0.055l0.079-0.115l0.047-0.104l-0.024-0.059l-0.059-0.055l-0.064-0.096
	l-0.035-0.119l-0.004-0.102l0.021-0.101l0.038-0.112l0.007-0.114l-0.037-0.11l-0.053-0.108l-0.03-0.105l-0.099-0.049l-0.058-0.118
	l-0.027-0.141l-0.026-0.352l-0.059,0.021l-0.103,0.057l-0.064,0.057l-0.038,0.099l-0.046,0.234l-0.061,0.066l-0.091,0.032
	l-0.076,0.014l-0.077-0.007l-0.099-0.03l-0.092-0.062l-0.161-0.173l-0.214-0.106l-0.098-0.089l-0.341-0.398l-0.061-0.101
	l-0.055-0.122l-0.054-0.097l-0.081-0.07l-0.095-0.032l-0.243,0.056l-0.505-0.079l-0.521,0.071l-0.071,0.022l-0.011-0.023
	l-0.057-0.091l-0.003-0.013l-0.002-0.046l-0.005-0.02l-0.018-0.021l-0.052-0.043l-0.019-0.02l-0.03-0.061l-0.008-0.029l-0.019-0.02
	l-0.062-0.034l-0.099-0.068l-0.06-0.085l-0.037-0.106l-0.102-0.488l0.005-0.091l-0.017-0.083l-0.168-0.247l0.171-0.291l0.019-0.11
	l-0.09-0.152l-0.15-0.125l-0.071-0.135l0.146-0.186l-0.053-0.117l0.021-0.103l0.05-0.105l0.032-0.124l-0.006-0.072l-0.022-0.047
	l-0.031-0.04l-0.032-0.061l-0.004-0.056l0.052-0.115l0.016-0.05l-0.147-0.029l0.017-0.096l0.203-0.252l0.018-0.039l-0.001-0.049
	l-0.024-0.074v-0.049l0.067-0.099l0.028-0.06l-0.11-0.047l-0.05-0.153l-0.009-0.179l0.009-0.129l0.015-0.069l0.064-0.147
	l-0.045-0.041l-0.144-0.127l-0.065-0.078l-0.091-0.225l-0.075-0.096l-0.118-0.021l-0.18,0.062l-0.145,0.093l-0.348,0.22
	l-0.142,0.125l-0.193,0.306l-0.144,0.123l-0.191,0.121l-0.107,0.125l-0.046,0.167l-0.007,0.237l-0.058,0.209l-0.265,0.264
	l-0.06,0.193l-0.018,0.196l-0.062,0.191l-0.116,0.149l-0.176,0.067l-0.385-0.017l-0.101-0.032l-0.072-0.079l-0.063-0.094
	l-0.065-0.079l-0.092-0.051l-0.206-0.061l-0.104-0.048l-0.092-0.086l-0.152-0.22l-0.09-0.082l-0.113-0.034l-0.068,0.043
	l-0.019,0.096l0.04,0.12l0.074,0.091l0.074,0.061l0.057,0.074l0.021,0.128l-0.011,0.107l-0.063,0.272l-0.041,0.096l-0.065,0.062
	l-0.172,0.083l-0.066,0.063l-0.029,0.099l0.02,0.198l-0.015,0.101l-0.056,0.097l-0.077,0.059l-0.094,0.029l-0.106,0.003
	l-0.039-0.073l-0.004-0.008l-0.025-0.046l-0.067-0.097l-0.094-0.063l-0.265-0.062l-0.245-0.107h-0.126l-0.119,0.098l-0.236,0.418
	l-0.154,0.137l-0.41,0.115l-0.192,0.092l-0.171,0.125l-0.162,0.075l-0.172-0.006l-0.201-0.121l-0.065-0.09l-0.014-0.1l0.011-0.211
	l-0.017-0.104l-0.033-0.092l-0.046-0.085l-0.061-0.085l-0.285-0.319l-0.32-0.283l-0.291-0.052l-0.271,0.172l-0.257,0.237
	l-0.251,0.147l-0.08,0.007l-0.08-0.009l-0.077-0.026l-0.134-0.08l-0.056-0.046l-0.051-0.051l-0.044-0.057l-0.177-0.287l-0.042-0.155
	l0.13-0.551l0.004-0.198l-0.033-0.216l-0.056-0.182l-0.093-0.176l-0.134-0.122l-0.175-0.016l-0.146,0.105l-0.064,0.175l-0.034,0.197
	l-0.061,0.175l-0.176,0.215l-0.042,0.094l-0.061,0.361l-0.083,0.135l-0.142,0.098l-0.167,0.045l-0.158-0.027l-0.127-0.115
	l-0.053-0.16l-0.009-0.347l-0.035-0.125l-0.09-0.062l-0.116-0.014l-0.116,0.021l-0.275-0.011l-0.112,0.038l-0.07,0.138l-0.042,0.141
	l-0.064,0.114l-0.084,0.096l-0.104,0.09l-0.131,0.055l-0.13-0.02l-0.108-0.083l-0.074-0.131l-0.011-0.066l-0.006-0.144l-0.021-0.061
	l-0.047-0.053l-0.174-0.096l-0.001-0.001l-0.076-0.129l-0.039-0.292l-0.066-0.119l-0.134-0.064l-0.137-0.023l-0.105-0.064
	l-0.039-0.185l0.002-0.077l0.195-0.799l-0.002-0.147l-0.074-0.458l0.021-0.349l0.099-0.304l0.161-0.274l0.829-1.003l0.926-1.506
	l0.152-0.441l0.064-0.328l0.068-0.169l0.052-0.039l0,0l0.053-0.042l0.114-0.025l0.099-0.041l0.186-0.128l0.153-0.152l0.749-1.085
	l0.085-0.2l0.051-0.293l0.036-0.098l0.098-0.185l0.015-0.095l-0.027-0.124l-0.13-0.374l-0.074-0.389l0.015-0.139l-0.002-0.04
	l-0.041-0.09l-0.099-0.159l-0.028-0.099l0.032-0.174l0.217-0.24l0.054-0.153l0.081-0.538l-0.066-0.769l0.01-0.199l0.091-0.164
	l0.199-0.14l0.05-0.062l0.032-0.078l0.077-0.424l-0.004-0.071l-0.179-0.566l-0.073-0.083l-0.256-0.097l-0.093-0.085l-0.032-0.143
	l0.015-0.179l0.049-0.166l0.075-0.108l0.109-0.089l0.038-0.063l-0.017-0.075l-0.049-0.123l-0.082-0.354l-0.053-0.104l-0.134-0.095
	l-0.142-0.021l-0.12-0.033l-0.062-0.129l-0.006-0.036l-0.256-2.073l-0.264-2.053l0.126-0.021l0.13-0.04L1271.17,414.154z"/></svg>