<?xml version="1.0" encoding="utf-8"?>
<!-- Generator: Adobe Illustrator 15.0.0, SVG Export Plug-In . SVG Version: 6.00 Build 0)  -->
<!DOCTYPE svg PUBLIC "-//W3C//DTD SVG 1.1//EN" "http://www.w3.org/Graphics/SVG/1.1/DTD/svg11.dtd">
<svg version="1.1" id="Ebene_1" xmlns="http://www.w3.org/2000/svg" xmlns:xlink="http://www.w3.org/1999/xlink" x="0px" y="0px"
	 width="1920px" height="1080px" viewBox="0 0 1920 1080" enable-background="new 0 0 1920 1080" xml:space="preserve">

<path fill="#F4E0B6" stroke="#FFFFFF" d="M1073.017,536.927l0.117,0.182l0.011,0.059l0.004,0.023l-0.021,0.069l-0.028,0.056
	l-0.002,0.049l0.013,0.062l-0.022,0.135l-0.002,0.068l0.018,0.064l0.079,0.232l0.006,0.03l-0.001,0.015l0.004,0.021l0.02,0.046
	l0.021,0.021l0.028,0.004l0.057-0.018l0.021,0.001l0.04,0.011l0.043,0.02l0.027,0.028l0.002,0.021l0.001,0.028l0.006,0.024
	l0.016,0.003l0.011,0.007l0.02,0.015l0.021,0.02l0.013,0.018l0.021,0.02l0.026,0.004l0.031,0.001l0.043,0.014l0.02-0.001l0.018,0.01
	l0.012,0.017l0.019,0.049l0.01,0.02l0.113,0.13l0.049,0.069l0.042,0.089l0.051,0.056l0.106,0.046l0.048,0.007l0.047-0.013
	l0.038,0.004l0.078,0.057l0.024,0.02l0.053,0.022l-0.011,0.047l0.006,0.048l0.021,0.084l0.015,0.003l0.046,0.012l0.018,0.074
	l0.08,0.007l0.104-0.009l0.092,0.031l-0.104,0.221l0.046,0.022l0.011,0.025l-0.001,0.032l0.01,0.04l-0.003,0.008l-0.017,0.029
	l-0.002,0.016l0.011,0.017l0.019,0.001l0.017-0.001l0.009,0.006l0.024,0.08l0.01,0.06l-0.008,0.055l-0.028,0.055l-0.085,0.064
	l-0.026,0.034l0.021,0.045l0.027,0.011l0.071,0.001l0.028,0.007l0.063,0.066l0.03,0.017l-0.02,0.064l0.038,0.07l0.058,0.075
	l0.069,0.133l0.033,0.035l0.039,0.021l0.04,0.005l-0.044,0.052l-0.188,0.117l-0.193,0.151l-0.114,0.028l-0.092-0.09l-0.021,0.046
	l-0.014,0.112l-0.017,0.043l-0.021,0.017l-0.168,0.045l-0.037-0.006l-0.048-0.02l-0.042-0.034l-0.03-0.038l-0.031-0.031l-0.047-0.01
	l-0.263,0.01l-0.123,0.037l-0.081,0.091l0.002,0.047l0.031,0.054l0.001,0.042l-0.013,0.032l-0.083,0.106l-0.02,0.045l-0.014,0.02
	l-0.014,0.003l-0.02-0.007l-0.026-0.013l-0.011,0.029l-0.01,0.087l-0.01,0.042l0.064,0.007l0.186-0.004l0.068-0.051l0.218-0.006
	l0.085-0.056l0.073,0.001l0.079,0.045l0.063,0.074l0.022,0.086l0.06,0.007l0.057,0.022l0.046,0.042l0.026,0.064l-0.005,0.065
	l-0.064,0.07l-0.016,0.049l0.09,0.161l-0.025,0.048l-0.065,0.128l-0.235,0.269l-0.059-0.041l-0.049-0.008l-0.031,0.023l-0.004,0.065
	l0.081,0.154l-0.001,0.016l-0.01,0.013l-0.007,0.017l0.009,0.025l0.016,0.013l0.016,0.001h0.016l0.01,0.005l0.169,0.142L1074.3,543
	l0.008,0.062l-0.023,0.054l-0.064,0.086l0,0l0,0l0.043,0.068l-0.001,0.109l0.042,0.063l0.024,0.007l0.021-0.012l0.023-0.008
	l0.032,0.02l0.017,0.035l0.011,0.08l0.01,0.023l0.049,0.008l0.074-0.086l0.048-0.016l0.057,0.035l0.01,0.055l-0.024,0.111
	l-0.042,0.063l0.01,0.068l0.047,0.045l0.064-0.006l0.042,0.003l0.02,0.017v0.027l-0.022,0.034l-0.103,0.105l-0.02,0.048l0.085-0.025
	l0.046-0.004l0.058,0.02l0.033,0.039l-0.047,0.036l-0.072,0.032l-0.043,0.029v0.002l-0.007,0.016l-0.012,0.01l-0.016,0.003
	l-0.021-0.005l-0.065-0.016l-0.063,0.019l-0.107,0.063l-0.116,0.024l-0.035,0.021l-0.006,0.058l0.017,0.068l-0.013,0.028
	l-0.026,0.018l-0.016,0.037l0.003,0.029l0.015,0.021l0.01,0.027l-0.006,0.037l-0.012,0.024l-0.047,0.05l-0.048,0.084l-0.017,0.048
	l-0.038,0.186l-0.02,0.05l-0.036,0.039l-0.083,0.121l-0.044,0.06l-0.009,0.008l-0.102,0.078l-0.013,0.017l-0.014,0.041l0.007,0.008
	l0.017,0.005l0.017,0.027l0.039,0.136l0.005,0.013l0.023,0.062l0.036,0.071l0.079,0.087l0.078,0.013l0.062,0.051l0.05,0.093l0,0
	h-0.001l-0.083-0.045l-0.042-0.007l-0.124,0.027l-0.236-0.014l-0.086,0.019l-0.075,0.04l-0.089,0.09l-0.068,0.07l-0.072,0.036
	l-0.232,0.061l-0.059-0.009l0.019,0.065l0.025,0.054l-0.001,0.043l-0.01,0.019l-0.009,0.017l-0.032,0.027l-0.049,0.005l-0.06,0.025
	l-0.054,0.042l-0.029,0.052v0.071l0.002,0.009l0.01,0.043l0.001,0.027v0.021l-0.035,0.064l-0.078,0.051l-0.082-0.013l-0.019-0.006
	l-0.071-0.023l-0.099,0.004l-0.153,0.075l-0.356,0.172l-0.097,0.029l-0.2,0.059l-0.06,0.018l-0.071,0.021l-0.141,0.122l-0.038,0.194
	l-0.091-0.055l-0.044,0.009l-0.029,0.042l-0.045,0.065l-0.009,0.006l-0.047,0.026l-0.042,0.012l-0.029,0.03l-0.017,0.09
	l-0.001,0.084l0.007,0.076l0.009,0.071v0.082v0.063l-0.01,0.021l-0.051,0.054l-0.067,0.043l-0.034-0.008l-0.038,0.042l-0.008,0.028
	l-0.002,0.033l-0.016,0.054l0.002,0.06l-0.022,0.005l-0.019,0.004l-0.012,0.01l-0.031,0.082l-0.021,0.032l-0.025,0.021l-0.059,0.03
	l-0.023,0.024l-0.016,0.077l0.012,0.091l0.002,0.041l0.002,0.039l-0.041,0.04l-0.056-0.022l-0.063-0.059l-0.064-0.038l-0.088,0.064
	l-0.052,0.013l-0.048-0.003l-0.061-0.001l-0.022-0.014l-0.021-0.02l-0.021-0.015l-0.033,0.006l-0.088,0.062l-0.351,0.13
	l-0.271,0.102l-0.007,0.001l-0.033,0.005l-0.225-0.074l-0.052-0.005l-0.053,0.005l-0.051,0.02l-0.047,0.029l-0.043,0.027
	l-0.051,0.013l-0.318-0.018l-0.094,0.021l-0.175,0.105l-0.039,0.016l-0.211,0.03l-0.046,0.014l-0.042,0.027l-0.046,0.013
	l-0.399,0.024l-0.125,0.045l-0.028-0.007l-0.062-0.03h-0.023l-0.171,0.084l-0.138,0.027l-0.269,0.179l-0.12,0.04l-0.072-0.001
	l-0.232-0.041l-0.263,0.038l-0.702,0.214l-0.212-0.042l-0.083,0.003l-0.028,0.002l-0.022,0.011l-0.039,0.036l-0.026,0.012
	l-0.032-0.002l-0.07-0.02l-0.027-0.001h-0.006l-0.15,0.04l-0.161,0.087l-0.044,0.013l-0.058-0.006l-0.116-0.026l-0.095,0.019
	l-0.076,0.016l-0.139-0.005l-0.139-0.05l-0.111-0.113l-0.064-0.084l-0.062-0.012l-0.064,0.014h-0.071l-0.035-0.01l-0.024-0.01
	l-0.018-0.025l-0.023-0.055l-0.012-0.053l-0.002-0.032l-0.004-0.033l-0.022-0.052l-0.065-0.083l-0.06-0.014l-0.125,0.042h-0.045
	l-0.027-0.015l-0.026-0.02l-0.047-0.022l-0.04-0.004l-0.073,0.014l-0.037-0.001l0.025-0.058l-0.016-0.039l-0.037-0.032l-0.037-0.039
	l-0.06-0.093l-0.032-0.042l-0.036-0.035v-0.085l0.136-0.164l0.027-0.106l-0.022-0.059l-0.021-0.054l-0.078,0.002l-0.128,0.079
	l-0.045,0.028l-0.232,0.262l-0.206,0.087l-0.109,0.091l-0.098,0.113l-0.068,0.117l-0.124,0.071l-0.024,0.03l-0.038,0.069
	l-0.031,0.021l-0.063-0.001l-0.124-0.035l-0.058,0.016l-0.021,0.011l-0.023,0.006H1061h-0.002l-0.163,0.025l-0.067,0.033
	l-0.075,0.055h-0.001v0.001l0,0l-0.021,0.024l-0.025,0.016l-0.029,0.004l-0.03-0.006l-0.024-0.014l-0.022-0.012l-0.024-0.004
	l-0.057,0.009l-0.026,0.017l-0.019,0.029l-0.01,0.041v0.001l-0.061,0.132l-0.092,0.027l-0.109-0.011l-0.114,0.016l-0.193,0.107
	l-0.178,0.139l-0.04,0.051l-0.116,0.256l-0.003,0.062l0.028,0.161l-0.003,0.151l0.004,0.018l0.021,0.042l0.003,0.023l-0.007,0.019
	l-0.026,0.026l-0.009,0.016l-0.021,0.136l-0.023,0.058l-0.04,0.021l-0.057,0.003l-0.108,0.026l-0.047,0.024l-0.087,0.068
	l-0.028,0.013l-0.035-0.002l-0.068-0.025l-0.031-0.004l-0.03,0.012l-0.051,0.035l-0.028,0.01l-0.105-0.019l-0.039,0.001
	l-0.055,0.042l-0.032,0.01l-0.032-0.03l0.005-0.026l0.046-0.076l0.002-0.035l-0.046-0.032l-0.28-0.053l-0.05,0.003l-0.051,0.024
	l-0.27,0.188l-0.13,0.03l-0.127-0.045l-0.042-0.088l-0.02-0.157l-0.046-0.067l-0.039-0.021l-0.132-0.045l-0.101-0.077l-0.043-0.021
	v-0.002v0.002l-0.021-0.006l-0.017,0.003l-0.015,0.008l-0.067,0.079l-0.042,0.11l-0.015,0.116l0.03,0.081l-0.072,0.029l-0.064,0.005
	l-0.044,0.026l-0.016,0.09l0.007,0.06l0.011,0.035l0.005,0.037l-0.013,0.055l-0.105,0.11l-0.068,0.048l-0.021,0.005l-0.042,0.013
	l-0.145,0.005l-0.082-0.016l-0.158-0.067l-0.358,0.007l-0.096-0.029l-0.059-0.041l-0.021-0.039l-0.008-0.049l-0.032-0.104
	l-0.003-0.045l-0.01-0.025l-0.017-0.01l-0.019,0.009l-0.017-0.006l-0.014-0.052l-0.632,0.017l-0.054,0.01l-0.149,0.071l-0.062,0.005
	l0.043-0.131l-0.021-0.119l-0.073-0.099l-0.108-0.073l-0.108-0.022l-0.015-0.036l0.006-0.076l-0.01-0.032l-0.048-0.05l-0.043-0.028
	l-0.027-0.033l-0.003-0.066l-0.068-0.029l-0.042-0.031l0.035-0.19l0.056-0.155v-0.033l-0.014-0.082l-0.001-0.043l0.062-0.182
	l0.003-0.074l-0.067-0.184l-0.114-0.045l-0.13-0.013l-0.138-0.101l-0.001-0.002l0.041,0.01l0.047,0.007l0.045-0.003l0.045-0.015
	l0.017-0.019l0.021-0.049l0.02-0.016l0.022,0.002l0.02,0.036l0.022,0.004l0.063-0.017l0.018-0.01l0.01-0.022l-0.006-0.063
	l0.002-0.018l0.035-0.02l0.129-0.035l-0.068-0.067l-0.054-0.022h-0.001l0.007-0.09l0.036-0.097l0.034-0.036l0.044-0.021l0.047,0.002
	l0.05,0.025l0.028,0.047l0.014,0.055l0.03,0.042l0.072,0.012l0.022-0.012l0.028-0.034l0.013-0.009l0.102,0.001l0.092-0.022
	l0.042-0.023l0.024-0.041l0.035,0.069l0.047,0.029l0.052,0.023l0.049,0.049l0.006,0.013l0.005,0.015l0.015,0.022l0.039,0.008
	l0.023-0.02l0.018-0.032l0.027-0.026l0.227,0.159l0.045,0.042l0.005,0.051l-0.047,0.074l0.047,0.026l0.024,0.042l0.021,0.045
	l0.032,0.035l0.04,0.019l0.02-0.009l0.017-0.023l0.032-0.031l0.015-0.003l0.037,0.008l0.016-0.006l0.01-0.015l0.02-0.05l0.122-0.067
	l0.066,0.01l0.027,0.077l0.008,0.178l0.018,0.026l0.013,0.024l0.003,0.032l-0.01,0.018l-0.034,0.027l-0.009,0.011l-0.009,0.059
	l-0.002,0.031l0.018,0.003l0.043-0.022l0.182-0.089l0.055-0.046l0.102-0.126l0.037-0.071l0.025-0.09l0.015-0.152l0.007-0.032
	l0.023-0.031l0.054-0.043l0.02-0.027l0.022-0.081l0.01-0.101l-0.012-0.106l-0.036-0.091l-0.033-0.05l-0.031-0.031l-0.036-0.021
	l-0.05-0.007l-0.037-0.182l-0.013-0.041l-0.038-0.042l-0.044-0.038l-0.019-0.036l0.037-0.03l0.047-0.027l0.018-0.017l0.014,0.004
	l0.028,0.035l0.003,0.02l-0.005,0.025v0.031l0.02,0.035l0.023,0.014l0.031,0.009l0.053,0.005l0.134-0.024l0.031-0.019l0.026-0.042
	l0.027-0.104l0.03-0.042l0.07-0.024l0.445,0.009l0.018,0.01l0.019,0.02l0.022,0.016l0.029-0.003l0.082-0.041l0.098-0.095
	l0.037-0.026l0.041-0.012l0.038,0.007l0.087,0.026l-0.012,0.038l-0.07,0.097l0.034,0.026l0.179,0.018l0.209,0.104l0.016,0.017
	l0.013,0.026l0.006,0.034l-0.001,0.022l-0.007,0.003l0.053,0.047l0.051,0.01l0.309-0.104l0.051-0.038l0.139-0.2l0.065-0.046
	l0.073,0.002l0.039,0.119l0.074-0.018l0.052-0.051l0.025-0.061l0.017-0.065l0.036-0.071l0.048-0.038l0.125-0.048l0.04-0.037
	l0.007-0.051l-0.023-0.028l-0.04-0.01l-0.04,0.003l0.075-0.206l0.06-0.039l0.076-0.017l0.073-0.003l0.128-0.071l0.054-0.048
	l0.03-0.078l-0.002-0.044l-0.018-0.107l0.002-0.052l0.053-0.1l0.005-0.016l0.055-0.02l0.137-0.02l0.237-0.085l0.178-0.027
	l0.026-0.022l-0.001-0.082l0.025-0.031l0.223-0.139l0.679-0.217l0.021-0.015l0.039-0.136v-0.03l-0.015-0.041l-0.051-0.112
	l-0.018-0.02l-0.02-0.005l-0.033-0.015l-0.033-0.02l-0.019-0.021l-0.021-0.031l0.039-0.036l0.046-0.084l0.019-0.024l0.034-0.033
	l0.007-0.004l-0.001,0.022l0.011,0.047l0.004,0.038l-0.008,0.032l0.003,0.034l0.035,0.04l0.039,0.014l0.029-0.015l0.051-0.06
	l0.06-0.032l0.182-0.026l0.046-0.025l0.095-0.085l0.051-0.01l0.024,0.02l0.067,0.078l0.031,0.029l0.035,0.02l0.114,0.037
	l0.049,0.004l0.06-0.021l0.056-0.034l0.037-0.037l0.018-0.034l0.063-0.128l0.043-0.048l0.093-0.064l0.103-0.037l0.179-0.021
	l0.048-0.023l0.001,0.085l0.069,0.038l0.094,0.021l0.08,0.032l-0.062,0.069l0.007,0.111l0.06,0.099l0.094,0.029l0.048-0.009
	l0.031-0.001l0.032,0.01l0.193,0.095l0.187,0.052h0.036l0.021-0.018l0.019-0.021l0.029-0.013l0.033,0.005l0.023,0.01l0.023,0.004
	l0.029-0.013l0.013-0.025l0.041-0.129l-0.016-0.034l-0.019-0.022l-0.018-0.018l-0.017-0.021l-0.015-0.026l-0.03-0.073l0.002-0.014
	l-0.001-0.079V545.8l-0.006,0.005l-0.042-0.094l0.009-0.001l0.021-0.078l-0.003-0.013l-0.002-0.097l0.004-0.012l-0.016-0.053
	l-0.021-0.052l-0.031-0.052l-0.049-0.054l-0.097-0.072l-0.053-0.03l-0.047-0.014l-0.048,0.011l-0.06,0.06l-0.039,0.023l-0.173,0.032
	l-0.067-0.029l0.02-0.103v-0.001l0,0l0.005-0.036l-0.006-0.03l-0.011-0.027l-0.006-0.029l0.002-0.039l0.06-0.366l-0.02-0.009
	l-0.101-0.068l-0.192-0.188l-0.068-0.028l-0.028-0.003l-0.082-0.037l-0.087-0.016l-0.037-0.025l-0.033-0.038l-0.005-0.005
	l-0.026-0.044l-0.083-0.078l-0.289-0.133l-0.045-0.031l-0.047-0.042l-0.037-0.051l-0.02-0.06l0.005-0.037l0.016-0.014l0.019-0.006
	l0.015-0.014l0.013-0.08l0.007-0.018l0.08-0.122l0.019-0.058l0.019-0.101l0.014-0.039l0.033-0.04l0.146-0.089l-0.008-0.009
	l0.028-0.054l0.069-0.085l0.063-0.143l0.033-0.05l0.244-0.229l0.362-0.218l0.073-0.09l0.172-0.349l0.012-0.082l-0.022-0.097
	l-0.004-0.021l0.004-0.028v-0.034l-0.014-0.047l-0.057-0.116l-0.013-0.042l-0.003-0.044l0.003-0.095l-0.009-0.045l-0.022-0.035
	l-0.043-0.031l-0.045-0.071l-0.017-0.016l-0.008-0.015l0.002-0.035l0.016-0.035l0.077-0.07l0.089-0.049l0.328-0.032l0.061,0.008
	l0.059,0.015l0.072,0.051l0.139,0.007l0.009,0.004l-0.023-0.124l0.003-0.059h0.01l0.055-0.034l0.018-0.018l0.014-0.032l0.005-0.025
	l0.003-0.123l-0.007-0.062l-0.018-0.064l-0.028-0.073l-0.075-0.131l-0.015-0.053l0.021-0.051l-0.042-0.003l-0.02-0.007l-0.056-0.047
	l-0.012,0.011l-0.011-0.043l0.006-0.21l0.127-0.012l0.065,0.008l0.068,0.02l0.084,0.026l0.233,0.03l0.036,0.017l0.078,0.053
	l0.033,0.028l0.02,0.008h0.023l0.021,0.004l0.019,0.022l0.006,0.03l-0.011,0.01l-0.014,0.001l-0.006,0.01l-0.002,0.046l-0.013,0.013
	v0.015l0.038,0.052l0.021,0.018l0.075,0.042l0.033,0.011l0.112,0.003l0.417-0.114l0.321-0.013l0.024-0.014l0.02-0.017l0.035-0.068
	l0.118-0.122l0.024-0.063l-0.012-0.192l0.029-0.043l0.102,0.052l0.136,0.014l0.038-0.005l0.037-0.027l0.065-0.074l0.042-0.02
	l0.025,0.007l0.016,0.027l0.012,0.028l0.018,0.014l0.022-0.007l0.036-0.032l0.02-0.003l0.047,0.028l0.035,0.032l0.034,0.018
	l0.047-0.015l0.023-0.06l0.008-0.019l-0.035-0.115l-0.059-0.127l-0.041-0.119l0.015-0.106l0.089-0.189l-0.022-0.085l0.007-0.062
	l-0.012-0.056l-0.002-0.046l0.035-0.034l0.154-0.039l0.169,0.001l0.054-0.028l-0.001-0.088l-0.009-0.004l-0.024-0.022l-0.028-0.028
	l-0.017-0.025l-0.01-0.031l-0.003-0.062l-0.061-0.287l-0.051-0.118l-0.07-0.125l-0.053-0.12l-0.002-0.104l-0.014-0.022l-0.008-0.02
	l-0.002-0.016l0.006-0.011l0.057-0.032l0.177-0.01l0.224-0.071l0.047,0.052l0.037,0.052l0.025,0.057l0.009,0.069l0.056-0.022
	l0.184-0.143l0.011-0.016l0.018-0.063l-0.001-0.025l-0.019-0.059l0.003-0.022l0.021-0.008l0.021,0.011l0.021,0.015l0.019,0.004
	l0.13-0.051l0.068-0.008l0.163,0.013l0.143-0.01l0.074,0.01l0.189,0.062l0.074-0.001l0.193-0.004l0.27,0.031l0.068-0.011
	l0.063-0.026l0.04-0.034l0.073-0.094l0.021-0.015l0.084-0.037l0.021,0.006l0.035,0.046l0.024,0.016l0.022,0.001l0.055-0.018
	l0.039,0.01h0.025l0.022-0.011l-0.012,0.049l0.031-0.022l0.032-0.011l0.028,0.01l0.024,0.042l0.04-0.032l0.023,0.013l0.013,0.029
	l0.014,0.02l0.37,0.084l0.175,0.001l0.246-0.125l0.41-0.106l0.002-0.004l0.052-0.032l0.051,0.013l0.018-0.001l0.037-0.031
	l0.018-0.042l0.027-0.3l0.032-0.053l0.084-0.022l0.027-0.013l0.039-0.042l0.024-0.016l0.028-0.001l0.062,0.01l0.187-0.023
	l0.053-0.016l0.062-0.001l0.045,0.041l0.038,0.056l0.043,0.041l0.048,0.01l0.048-0.011l0.102-0.049l0.05-0.004l0.129,0.022
	l0.059-0.002l0.05-0.031l0.087-0.083l0.047-0.017l0.107,0.064l0.168,0.258L1073.017,536.927z"/></svg>