<?xml version="1.0" encoding="utf-8"?>
<!-- Generator: Adobe Illustrator 15.0.0, SVG Export Plug-In . SVG Version: 6.00 Build 0)  -->
<!DOCTYPE svg PUBLIC "-//W3C//DTD SVG 1.1//EN" "http://www.w3.org/Graphics/SVG/1.1/DTD/svg11.dtd">
<svg version="1.1" id="Ebene_1" xmlns="http://www.w3.org/2000/svg" xmlns:xlink="http://www.w3.org/1999/xlink" x="0px" y="0px"
	 width="1920px" height="1080px" viewBox="0 0 1920 1080" enable-background="new 0 0 1920 1080" xml:space="preserve">

<path fill="#F4E0B6" stroke="#FFFFFF" d="M1199.846,605.162l-0.035,0.025l-0.102-0.062l-0.092-0.116h-0.001l-0.061-0.133
	l-0.007-0.112h0.058l0.02,0.001l0.052,0.038l0.148,0.278L1199.846,605.162z M1175.721,613.686l0.115,0.41l0.209-0.131l0.095-0.063
	l0.36-0.228l0.359-0.231l0.359-0.229l0.361-0.231l0.358-0.23l0.362-0.231l0.358-0.231l0.36-0.232l0.359-0.231l0.287-0.185
	l0.072-0.048l0.36-0.233l0.36-0.232l0.359-0.234l0.359-0.233l0.359-0.234l0.36-0.233l0,0l0.075-0.051l0.74-0.484l0.817-0.537
	l0.817-0.538l0.796-0.524l0.021-0.015l0.817-0.542l0.816-0.542l0.816-0.546l0.816-0.547l0.817-0.548l0.816-0.552l0.817-0.552
	l0.816-0.555l0.817-0.556l0.817-0.56l0.816-0.56l0.821-0.564l0.031,0.064l0.005,0.023l-0.01,0.017l-0.05,0.047l-0.047,0.064
	l0.132,0.005l0.071,0.027l0.342,0.449l0.466,0.458l0.046,0.126h0.075l0.045,0.035l0.036,0.045l0.054,0.026l0.068,0.012l0.053,0.02
	l0.528,0.319l0.989,0.388l0.52,0.077l0.741,0.219l0.075,0.045l0.047,0.078l0.025,0.081l-0.021,0.062l-0.09,0.02l-0.032,0.103
	l-0.104-0.01l-0.225-0.101l-0.048-0.016l-0.063-0.028l-0.042-0.035l0.012-0.036l0.055-0.019l0.05,0.013l0.045,0.028l0.046,0.017
	l0.13,0.007l0.063-0.013l0.019-0.039l-0.032-0.026l-0.162-0.039l-0.167-0.106l-0.078-0.025l-0.042,0.056l-0.155-0.005l0.001,0.059
	l-0.033,0.013l-0.051-0.021l-0.052-0.039l-0.026-0.052l-0.01-0.059l-0.027-0.049l-0.072-0.02l-0.112,0.044l-0.011,0.104l0.053,0.116
	l0.076,0.085l0.033,0.009l0.046-0.028l0.028,0.02l0.021,0.054l0.012,0.04l0.088,0.084l0.031,0.045l0.02,0.052l-0.01,0.062
	l-0.027,0.035l-0.01,0.037l0.046,0.063l0.044,0.021l0.194,0.05l0.262,0.154l0.224,0.206l0.408,0.474l0.229,0.198l0.5,0.341
	l0.194,0.239l0.035,0.067l0.026,0.073l-0.007,0.06l-0.121,0.06l0.024,0.057l0.099,0.104l0.176,0.287l0.142,0.135l0.044,0.057
	l0.253,0.162l0.13,0.115l0.112,0.11l0.156,0.168l0.055,0.183l0.02,0.023l0.02,0.051l-0.004,0.084l0.011,0.047l0.075,0.104
	l0.124,0.112l0.685,0.445l0.12,0.115l0.187,0.248l0.046,0.072l0.012,0.055l0.003,0.126l0.033,0.066l0.199,0.211l0.05,0.076
	l0.03,0.028l0.04,0.026l0.134,0.059l0.239,0.167l0.76,0.713l0.329,0.375l0.049,0.037l0.05,0.005l0.049-0.003l0.044,0.013l0.02,0.025
	l0.018,0.063l0.019,0.027l0.184,0.063l0.189,0.161l0.263,0.193l0.172,0.127l0.182,0.179l0.102,0.036l0.191,0.092l0.195,0.087
	l0.205,0.029l0.055,0.031l0.065,0.021l0.06-0.008l0.033-0.043l0.023-0.054l0.032-0.011l0.194-0.182l0.08-0.138l0.071,0.061
	l0.116-0.013l0.078-0.034l0.071-0.058l0.057,0.028l0.058,0.056l0.101,0.016l0.085,0.167l0.034-0.07l0.032-0.042l0.066,0.003
	l0.107,0.021l0.505-0.166l0.266,0.042l0.236,0.103l0.282,0.049l0.152-0.003l0.209-0.047l0.089,0.022l0.005,0.099l-0.059,0.117
	l0.078,0.149l0.27,0.148l0.304,0.042l0.235-0.09l0.129-0.127l-0.089-0.156l0.057-0.072l0.069-0.167l0.055,0.025l-0.006,0.055
	l-0.03,0.064l-0.018,0.054l0.02,0.034l0.035,0.04l0.026,0.053l-0.01,0.073l-0.044,0.055l-0.052,0.03l-0.039,0.032l-0.002,0.052
	l0.048-0.033l0.111-0.112l0.056-0.023l0.05-0.003l0.05,0.004l0.057-0.004l0.058-0.021l0.115-0.059l0.063-0.017l0.064-0.029
	l0.023-0.044l-0.018-0.035l-0.068,0.005l0.018-0.095l0.131,0.025l0.267,0.108l0.005,0.075l0.092-0.004l0.099-0.058l0.027-0.083
	l0.085,0.033l0.132,0.144l0.062,0.032l0.084-0.039l-0.011-0.083l-0.073-0.084l-0.111-0.039l0.092-0.004l0.279,0.052l0.071,0.043
	l0.047,0.061l0.038,0.032l0.106,0.061l0.018,0.039l-0.187,0.803l0.013,0.22l0.235,0.746l0.025,0.236l-0.031,0.108l-0.116,0.218
	l-0.019,0.102l0.04,0.09l0.068,0.078l0.05,0.085l-0.015,0.104l-0.079,0.074l-0.097,0.004l-0.102-0.02l-0.09,0.005l-0.1,0.13
	l-0.019,0.02l0.009,0.047l0.023,0.02l0.031,0.021l0.03,0.041l0.018,0.101l-0.02,0.097l-0.057,0.039l-0.086-0.07l-0.055-0.081
	l-0.053-0.062l-0.066-0.016l-0.086,0.058l-0.063,0.091l-0.002,0.006l-0.122,0.341l-0.001,0.229l-0.03,0.106l-0.073,0.081
	l-0.105,0.031l-0.196-0.032l-0.093,0.03l-0.077,0.158l0.062,0.403l-0.092,0.183l-0.135,0.123l-0.38,0.489l-0.021,0.05l0.024,0.051
	l0.178,0.151l0.059,0.068l0.106,0.175l0.037,0.096l0.03,0.203l0.048,0.1l0.029,0.098l-0.019,0.396l-0.43,0.136l-0.101,0.081
	l-0.096,0.231l-0.107,0.083l-0.063,0.03l-0.179,0.17l-0.042,0.018l-0.213,0.008l-0.05,0.011l-0.109,0.049l-0.089,0.017l-0.086-0.001
	l-0.08,0.013l-0.069,0.062l-0.002,0.045l0.001,0.003l0.016,0.036l0.035,0.029l0.153,0.055l0.069,0.066l0.04,0.087l0.008,0.193
	l0.045,0.033l0.068,0.013l0.069,0.026l0.047,0.044l0.111,0.162l0.018,0.013l0.049,0.021l0.021,0.02l0.005,0.021l-0.003,0.049
	l0.007,0.022l0.162,0.245l0.085,0.299v0.081l-0.057,0.172l-0.018,0.092l0.021,0.096l0.048,0.074l0.103,0.125l0.046,0.084
	l0.072,0.188l0.039,0.057l0.094,0.074l0.102,0.037l0.108,0.024l0.107,0.036l0.013,0.01l0.076,0.052l0.051,0.071l0.04,0.08
	l0.058,0.089l0.082,0.068l0.189,0.116l0.073,0.077l0.037,0.126l-0.033,0.271l0.016,0.145l0.146,0.445l0.198,0.607l0.211,0.646
	l0.025,0.238l-0.041,0.322l0.019,0.118l0.365,0.904l0.116,0.175l0.184,0.14l-0.062,0.168l0.018,0.174l0.24,0.712l0.014,0.157
	l-0.075,0.465l0.021,0.09l0.06,0.092l0.329,0.354l0.582,0.625l0.192,0.206l0.339,0.364l0.438,0.469l0.435,0.467l0.644,0.69
	l0.477,1.341l0.048,0.098l0.079,0.103l0.097,0.087l0.22,0.161l0.163,0.197l0.063,0.226l0.142,0.517l0.047,0.093l0.16,0.24
	l0.051,0.141l0.055,1.241l0.628,1.609l0.064,0.075l0.08,0.046l0.039,0.027l0.028,0.035l0.009,0.084l-0.014,0.098l0.007,0.101
	l0.072,0.09l0.215,0.106l0.063,0.051l0.075,0.101l0.266,0.514l0.024,0.104l-0.042,0.065l-0.131,0.039l-0.052,0.002l-0.036-0.002
	l-0.037,0.003l-0.054,0.022l-0.033,0.022l-1.069,0.945l-0.075,0.1l-0.004,0.006l-0.035,0.062l-0.006,0.022l0.018,0.021l0.052,0.125
	l0.026,0.049l0.017,0.051l-0.006,0.069l-0.023,0.038l-0.073,0.055l-0.023,0.036l-0.006,0.064l0.194,1.772l0.044,0.146l0.075,0.123
	l0.026,0.061l0.005,0.08l-0.017,0.062l-0.052,0.104l-0.015,0.059l0.005,0.067l0.063,0.229l0.129,0.257l0.038,0.123l-0.01,0.143
	l-0.086,0.186l-0.01,0.059l0.019,0.048l0.013,0.018l0.054,0.08l0.021,0.046l-0.019,0.219l-0.191,0.276l-0.062,0.091l-0.08,0.203
	l-0.002,0.12l0.017,0.133l0.03,0.132l0.046,0.118l0.06,0.088l0.146,0.143l0.119,0.179l0.091,0.068l0.21,0.12l0.068,0.074
	l0.044,0.093l0.338,1.492l0.056,0.101l0.122,0.091l0.131,0.038l0.115,0.056l0.08,0.145l0.325,0.99l0.031,0.049l0.08,0.032
	l0.187,0.016l0.069,0.052l0.075,0.167l0.006,0.146l-0.094,0.313l-0.021,0.119l0.02,0.063l0.038,0.052l0.031,0.092l-0.002,0.105
	l-0.04,0.033l-0.06,0.016l-0.064,0.051l-0.017,0.077l0.041,0.166l-0.008,0.055l-0.055,0.012l-0.051-0.061l-0.077-0.14l-0.074-0.051
	l-0.088-0.016l-0.178-0.006l-0.817-0.148l-0.065,0.012l-0.049,0.07l-0.236,0.661l-0.024,0.107v0.13l0.071,0.419l0.021,0.741
	l0.078,0.174l0.146,0.168l0.88,0.836l0.146,0.193l0.097,0.208l0.005,0.033l-0.01,0.067l0.005,0.031l0.034,0.049l0.091,0.1
	l0.028,0.052l0.011,0.203l-0.073,0.386l0.57,1.84l0.336,0.736l0.255,0.329l-0.703,0.429l-0.018,0.003l-0.021-0.006l-0.026-0.014
	l-0.033-0.021l-0.119-0.106l-0.153-0.186l-0.213-0.354l-0.196-0.455l-0.133-0.726l-0.019-0.055l-0.016-0.029l-0.021-0.03
	l-0.096-0.085l-0.091-0.067l-0.107-0.122l-0.16-0.319l-0.06-0.092l-0.088-0.114l-0.073-0.06l-0.524-0.371l-0.114-0.04l-1.427-0.223
	l-1.42-0.223l-0.611-0.217l-0.056-0.007l-0.059,0.004l-1.134,0.202l-0.068-0.007l-0.029-0.057l-0.019-0.084l-0.033-0.266
	l-0.021-0.063l-0.041-0.091l-1.314-1.482l-1.306-1.475l-0.042-0.063l-0.012-0.053l-0.002-0.034l0.006-0.101l-0.004-0.1l-0.031-0.155
	l-0.02-0.053l-0.339-0.602l-0.348-0.494l-0.341-0.97l-0.218-0.365l-1.917,1.154v0.025l0.015,0.022l0.021,0.021l0.022,0.025
	l0.036,0.056l0.055,0.112l0.033,0.057l0.04,0.055l0.165,0.179l0.153,0.119l0.04,0.043l0.041,0.054l0.064,0.106l-1.32,0.825
	l-1.319,0.822l1.898,0.602l0.029,0.019l0.065,0.057l0.042,0.046l0.32,0.429l0.419,0.733l0.319,0.443l0.261,0.255l0.681,0.4
	l0.054,0.119l0.026,0.177l-0.365,1.445l-0.368,1.447l0.002,0.114l0.223,0.887l0.03,0.576l-0.03,0.19l-0.047,0.864l-0.25,1.468
	l-0.253,1.469l-0.205,0.302l-0.843,0.581v0.002l-0.454,0.291l-0.043,0.046l-0.058,0.081l-0.016,0.079l-0.033,0.069l-0.069,0.015
	l-0.1-0.012l-1.773-0.406l-1.396-0.087l-1.39-0.088l-0.106,0.231l-0.716,1.224l-0.129,0.283l-0.057,0.18l0.407,0.646l0.021,0.441
	l-0.116,0.564l-0.798,0.79l-0.367,0.489l-0.317,0.591l-0.036,0.122l-0.144,0.446l-0.084,0.443l0.024,0.226l0.118,0.195l0.117,0.153
	l0.123,0.082l-0.007,0.003l-1.646,0.955l-1.648,0.953l-0.349-0.128l-1.01-0.713l-0.031,0.044l-0.06,0.052l-0.39,0.262l-0.577,0.226
	l-0.021,0.016l-0.069,0.075l-0.022,0.017l-0.36,0.15l-0.584,0.346l-0.211,0.074l-1.044,0.65l-1.225,1.521l-0.041,0.031l-0.251,0.116
	l-0.132,0.008l-0.26-0.024l-1.373-0.554l-1.367-0.552l-0.392,0.051h-0.004l-0.097-0.034l-0.088-0.04l-0.506-0.3l-0.045-0.024
	l-0.022-0.005l-0.041-0.009h-0.016l-0.132,0.029l-0.079,0.006l-0.202-0.01l-0.049-0.012l-0.046-0.015l-0.022-0.015l-0.022-0.021
	l-0.44-0.689l-0.02-0.022l-0.02-0.016l-0.044-0.026l-0.32-0.141l-0.022-0.002l-0.04,0.029l-0.151,0.158l-0.059,0.095l-0.029,0.032
	l-0.03,0.024l-0.167,0.087l-0.021,0.018l-0.054,0.058l-0.082,0.07l-0.131,0.078l-0.021,0.017l-0.146,0.148l-0.232,0.293l-0.011,0.01
	l-0.042,0.045l-0.041,0.035l-0.168,0.088l-0.046,0.034l-0.042,0.036l-0.046,0.059l-0.028,0.041l-0.032,0.039l-0.045,0.033
	l-0.026,0.016l-0.044,0.034l-0.018,0.02l-0.052,0.084l-0.021,0.017l-0.023,0.014l-0.048,0.019l-0.022,0.016l-0.028,0.039
	l-0.02,0.019l-0.024,0.014l-0.027,0.009l-0.027,0.005l-0.054,0.003l-0.026,0.006l-0.054,0.02l-0.027,0.019l-0.024,0.025
	l-0.026,0.037l-0.024,0.02l-0.052,0.02l-0.022,0.016l-0.074,0.1l-0.042,0.035l-0.11,0.052l-0.037,0.035l-0.044,0.06l-0.053,0.06
	l-0.018,0.024l-0.013,0.047l-0.009,0.077l0.079,0.607l0.017,0.055l0.019,0.041l0.039,0.045l0.02,0.02l0.083,0.067l0.04,0.039
	l0.018,0.023l0.016,0.029l0.01,0.031l0.034,0.159l0.035,0.309l0.022,0.094l0.013,0.104l-0.004,0.073l-0.02,0.095l-0.014,0.235
	l-0.016,0.099l-0.086,0.176l-0.067,0.212l-0.021,0.043l-0.025,0.04l-0.038,0.033l-0.037,0.026l-0.013,0.012l-0.007,0.027
	l0.004,0.038l0.039,0.104l0.714,1.228l0.024,0.058l0.03,0.124l-0.071,0.463l-0.049,0.19l-0.002,0.072l0.021,0.101l0.43,0.935
	l0.011,0.028l0.009,0.055l0.033,0.929l0.016,0.084l0.013,0.032l0.286,0.5l-0.005,0.045l-0.026,0.049l-0.161,0.193l-0.352,0.261
	l-0.082,0.078l-0.27,0.581l-0.089,0.141l-0.122,0.342l-0.004,0.053l0.029,0.071l-0.002,0.042l-0.214,0.17l-0.48,0.168l-0.104,0.09
	l-0.088,0.032l-0.21,0.017l-0.216,0.16l-0.301,0.082l-0.142,0.087l-0.093,0.144l-0.056,0.062l-0.156,0.034l-0.132,0.08l-0.067,0.007
	l-0.091-0.014l-0.082,0.007l-0.076,0.031l-0.066,0.062l-0.037,0.07l-0.051,0.14l-0.054,0.051l-0.108,0.005l-0.122-0.068
	l-0.104-0.106l-0.062-0.115l-0.014-0.153l0.05-0.316l-0.002-0.171l-0.099-0.297l-0.086-0.167l-0.087-0.086l-0.075,0.038
	l-0.059,0.259l-0.108,0.074l-0.15-0.008l-0.108-0.064l-0.073-0.109l-0.243-0.651l0.002-0.048l0.002-0.106l0.047-0.064l0.138-0.07
	l0.06-0.052l0.029-0.06l0.032-0.155l0.035-0.317l0.027-0.079l0.006-0.077l-0.044-0.064l-0.122-0.121l-0.041-0.085l-0.102-0.423
	l-0.02-0.031l-0.043-0.023l-0.031,0.003l-0.029,0.02l-0.063-0.041l-0.036-0.039l-0.076-0.148l-0.043-0.056l-0.104-0.093
	l-0.033-0.051l-0.023-0.164l0.006-0.35l-0.021-0.17l-0.079-0.19l-0.569-0.732l-0.201-0.158l-1.37-0.842l-1.363-0.839l-1.188-0.383
	l-0.606-0.093l-1.098-0.611l-0.078-0.121l-0.194-0.733v-0.061l0.021-0.114l-0.017-0.058l-0.048-0.093l-0.036-0.098l-0.021-0.096
	l-0.02-0.2l-0.026-0.091l-0.08-0.128l-0.037-0.058l-0.288-0.281l-0.232-0.29l-0.089-0.023l-0.097,0.052l-0.36,0.264l-0.051,0.002
	l-0.077-0.136l-0.033-0.035l-0.163-0.049l-0.394,0.062l-0.182,0.003l-0.229-0.071l-0.228-0.122l-0.198-0.169l-0.137-0.206
	l-0.535-1.522l-0.054-0.268l-0.032-0.087l-0.042-0.069l-0.033-0.01l0.002,0.085l-0.073-0.006l-0.14,0.119l-0.213,0.238l-0.023,0.062
	l-0.017,0.029l-0.02,0.025l-0.167-0.554l-0.025-0.058l-0.033-0.055l-0.04-0.046l-0.84-0.839l-0.258-0.155l-0.039-0.05l0.013-0.2
	l-0.08-0.627l-0.084-0.028l-0.501,0.063l-0.7-0.086l-0.013,0.251l-0.055,0.209l-0.104,0.179l-0.156,0.168l-0.144,0.111l-0.171,0.094
	l-0.185,0.059l-0.182,0.003l-0.131-0.044l-0.332-0.236l-0.188-0.09l-0.044-0.042l-0.006-0.033l-0.01-0.176l-0.08-0.391l-0.039-0.87
	l0.022-0.239l0.06-0.22l0.047-0.083l0.327-0.426l0.037-0.088l0.139-0.631l0.032-0.281l-0.068-0.203l-0.103-0.075l-0.24-0.106
	l-0.108-0.077l-0.064-0.076l-0.141-0.253l-0.149-0.138l-0.393-0.116l-0.162-0.132l-0.054-0.099l-0.03-0.073l-0.047-0.056
	l-0.111-0.054l-0.144-0.043l-0.017-0.042l0.004-0.229l0.081-0.626l0.01-0.074l0.039-0.159l0.069-0.146l0.449-0.677l0.046-0.1
	l0.065-0.23l0.06-0.105l0.094-0.081l0.07-0.091l0.018-0.108l-0.065-0.132l-0.103-0.124l-0.082-0.066l-0.096-0.008l-0.244,0.082
	l-0.087-0.001l-0.082-0.038l-0.088-0.074l-0.039-0.046l-0.016-0.037l-0.005-0.094l0.007-0.027l0.039-0.057l0.008-0.035l-0.014-0.033
	l-0.027-0.017l-0.033-0.013l-0.026-0.02l-0.311-0.438l-0.063-0.042l-0.175-0.031l-0.178-0.11l-0.01-0.197l0.088-0.219l0.119-0.182
	l0.661-0.67l0.023-0.055l-0.015-0.071l-0.027-0.035l-0.136-0.105l-0.063-0.063l-0.161-0.222l-0.062-0.11l-0.005-0.086l0.086-0.185
	l0.035-0.12l-0.018-0.086l-0.04-0.082l-0.038-0.118l-0.003-0.115l0.133-0.595l0.04-0.11l0.059-0.104l0.102-0.13l0.009-0.056
	l-0.016-0.443l-0.022-0.113l-0.227-0.528l-0.087-0.139l-0.112-0.111l-0.149-0.076l-0.137-0.049l-0.125-0.075l-0.097-0.106
	l-0.046-0.15l0.02-0.139l0.193-0.375l0.07-0.463l0.06-0.131l0.087-0.067l0.17-0.128l0.668-0.2l0.274-0.194l0.396-0.486l0.219-0.203
	l0.443-0.251l0.511-0.19l0.541-0.091l0.106-0.055l-0.026-0.154l-0.002-0.003l-0.138-0.245l-0.557-0.985l-0.556-0.983l-0.554-0.98
	l-0.553-0.979l-0.55-0.975l-0.549-0.972l-0.548-0.97l-0.546-0.968l-0.545-0.964l-0.544-0.962l-0.542-0.96l-0.54-0.958l-0.54-0.955
	l-0.537-0.951l-0.537-0.952l-0.536-0.947l-0.286-0.51l-0.287-0.509l-0.286-0.507l-0.286-0.507l0.592-0.338l0.313-0.178l0.415-0.236
	l0.49-0.282l0.457-0.261l0.447-0.257l0.534-0.308l0.369-0.211l0.008-0.007l0.007-0.006l0.008-0.004l0.008-0.007v-0.008v-0.008
	v-0.009v-0.009l-0.016-0.024l-0.26-0.451l-0.221-0.383l-0.222-0.384l-0.22-0.382l-0.22-0.383l-0.29-0.5l-0.287-0.5l-0.288-0.499
	l-0.288-0.498l-0.287-0.499l-0.286-0.497l-0.287-0.497l-0.286-0.496l-0.285-0.496l-0.287-0.496l-0.285-0.494l-0.285-0.494l0.349-0.2
	l0.348-0.202l0.349-0.201l0.348-0.203l0.348-0.202l0.348-0.2l0.347-0.204l0.349-0.202l0.346-0.203l0.348-0.203l0.348-0.203
	l0.347-0.203l0.347-0.204l0.346-0.205l0.348-0.203l0.346-0.204l0.348-0.206l0.346-0.204l0.346-0.205l0.347-0.207l0.346-0.206
	l0.345-0.204l0.347-0.208l0.345-0.205l0.346-0.206l0.346-0.209l0.346-0.207l0.345-0.208l0.346-0.208l0.345-0.208l0.346-0.207
	l0.344-0.209l0.345-0.208l0.346-0.209l0.345-0.21l0.343-0.21l0.346-0.209l0.344-0.21l0.345-0.212l0.344-0.21l0.344-0.21l0.345-0.212
	l0.344-0.211l0.344-0.212l0.344-0.212l0.344-0.211l0.343-0.213l0.345-0.213l0.343-0.213l0.345-0.213l0.341-0.215l0.345-0.214
	l0.343-0.213l0.344-0.215l0.344-0.214l0.342-0.216l0.343-0.214l0.343-0.216l0.345-0.216l0.342-0.216l0.342-0.217l0.344-0.218
	l0.343-0.216l0.343-0.217l0.134-0.085l0.028-0.06l-0.065-0.469l-0.006-0.034l-0.06-0.428l0.024-0.158l0.041-0.077l0.06-0.057
	l0.074-0.032l0.087-0.007l0.129,0.026l0.087,0.066l0.06,0.098L1175.721,613.686z"/></svg>