<?xml version="1.0" encoding="utf-8"?>
<!-- Generator: Adobe Illustrator 15.0.0, SVG Export Plug-In . SVG Version: 6.00 Build 0)  -->
<!DOCTYPE svg PUBLIC "-//W3C//DTD SVG 1.1//EN" "http://www.w3.org/Graphics/SVG/1.1/DTD/svg11.dtd">
<svg version="1.1" id="Ebene_1" xmlns="http://www.w3.org/2000/svg" xmlns:xlink="http://www.w3.org/1999/xlink" x="0px" y="0px"
	 width="1920px" height="1080px" viewBox="0 0 1920 1080" enable-background="new 0 0 1920 1080" xml:space="preserve">

<path fill="#F4E0B6" stroke="#FFFFFF" d="M734.136,645.611l0.062,0.075l0.028,0.045l0.015,0.055l0.129-0.026l0.153,0.046
	l0.142,0.094l0.099,0.111l-0.016,0.027l-0.103-0.045l-0.097-0.018l-0.203-0.015l-0.097-0.021l-0.84-0.329l-0.086-0.015l0.069-0.054
	l0.039-0.058l0.094-0.171l0.041-0.047l0.049-0.015l0.116,0.127l0.102,0.007l0.114-0.007l0.102,0.031l0.003,0.015L734.136,645.611z
	 M735.759,643.355l-0.008,0.053l-0.057-0.021l-0.081-0.093l-0.033-0.004l0.008,0.078l-0.079,0.082l-0.082-0.137l-0.198-0.088
	l-0.024-0.087l0.106-0.056l0.079,0.007l0.078,0.019l0.002-0.04l0.044,0.002l0.105,0.104l0.053,0.047l0.041,0.059L735.759,643.355z
	 M734.854,642.651l0.089,0.164l0.089,0.159l0.002,0.125l-0.047-0.017l-0.025-0.031l-0.053-0.008l-0.05,0.026l-0.091-0.115
	l-0.025-0.052l0.006-0.088l-0.037,0.028l-0.021-0.048l-0.089-0.029l-0.052-0.045l-0.015-0.077l-0.14-0.031l-0.025-0.095l0.145,0.003
	l0.109,0.027l0.134,0.084l0.032,0.074l0.04,0.008l-0.033-0.083l-0.008-0.052L734.854,642.651z"/></svg>