<?xml version="1.0" encoding="utf-8"?>
<!-- Generator: Adobe Illustrator 15.0.0, SVG Export Plug-In . SVG Version: 6.00 Build 0)  -->
<!DOCTYPE svg PUBLIC "-//W3C//DTD SVG 1.1//EN" "http://www.w3.org/Graphics/SVG/1.1/DTD/svg11.dtd">
<svg version="1.1" id="Ebene_1" xmlns="http://www.w3.org/2000/svg" xmlns:xlink="http://www.w3.org/1999/xlink" x="0px" y="0px"
	 width="1920px" height="1080px" viewBox="0 0 1920 1080" enable-background="new 0 0 1920 1080" xml:space="preserve">

<path fill="#F4E0B6" stroke="#FFFFFF" d="M821.59,545.516l-0.086-0.016l-0.07-0.041l-0.031-0.067l0.104-0.067l0.051-0.024
	l0.061-0.019l0.038,0.004l0.058,0.015l0.032,0.032l-0.037,0.055l-0.023,0.011l-0.021,0.016l-0.02,0.019l-0.016,0.024l0.031,0.041
	l0.014,0.013L821.59,545.516z M821.755,544.389l-0.036,0.031l-0.041,0.003l-0.013-0.016l0.002-0.022l0.004-0.022l-0.005-0.013
	l-0.021-0.006l-0.062,0.005l-0.032-0.032l-0.021-0.003l-0.017,0.038l0.001,0.027l0.015,0.012l0.018,0.006l0.017,0.021l0.017,0.008
	l0.016,0.011l0.007,0.021l-0.008,0.03l-0.018,0.017l-0.019,0.009l-0.011,0.01l-0.079,0.17l-0.013,0.057l0.023,0.028l0.076,0.038
	l0.063,0.143l-0.096,0.106l-0.167,0.067l-0.218,0.055l-0.04-0.003l-0.024-0.038l0.004-0.062l0.022-0.029l0.014-0.029l-0.026-0.061
	l0.01-0.058l0.075-0.042l0.151-0.053l0.116-0.145l0.052-0.172l0.02-0.396l0.023-0.071l0.061-0.151l0.017-0.074l0.021-0.037
	l0.045-0.04l0.045-0.023l0.043-0.011l0.035,0.011l0.022,0.036l-0.071,0.017l-0.048,0.028l-0.018,0.044l0.018,0.064l0.036,0.042
	l0.088,0.068l0.088,0.184l-0.014,0.043l-0.028,0.057l-0.034,0.045l-0.056,0.023L821.755,544.389z"/></svg>