<?xml version="1.0" encoding="utf-8"?>
<!-- Generator: Adobe Illustrator 15.0.0, SVG Export Plug-In . SVG Version: 6.00 Build 0)  -->
<!DOCTYPE svg PUBLIC "-//W3C//DTD SVG 1.1//EN" "http://www.w3.org/Graphics/SVG/1.1/DTD/svg11.dtd">
<svg version="1.1" id="Ebene_1" xmlns="http://www.w3.org/2000/svg" xmlns:xlink="http://www.w3.org/1999/xlink" x="0px" y="0px"
	 width="1920px" height="1080px" viewBox="0 0 1920 1080" enable-background="new 0 0 1920 1080" xml:space="preserve">

<path fill="#F4E0B6" stroke="#FFFFFF" d="M1098.773,556.188h-0.009l-0.104,0.095l-0.059,0.032l-0.07-0.008l-0.009,0.047
	l-0.005,0.022l-0.033,0.008l-0.042-0.013l-0.038,0.005l-0.034,0.052l0.022,0.033l0.039,0.023l0.018,0.023l-0.03,0.02l-0.119,0.013
	l-0.049,0.031l-0.01,0.023l-0.011,0.026l-0.032,0.35l0.015,0.036l0.018,0.019l0.02,0.017l0.022,0.03l0.044,0.077l0.004,0.009
	l0.01,0.03l-0.027,0.022l-0.137,0.039l-0.026,0.008l-0.037-0.013l-0.018-0.006l-0.057-0.042l-0.088-0.053l-0.155-0.05l-0.154-0.027
	l-0.051-0.002l-0.021,0.006l-0.022,0.01l-0.046,0.081l-0.047,0.146l-0.017,0.051l-0.053,0.074l-0.068,0.073l-0.169,0.175
	l-0.222,0.231l-0.053,0.081l-0.021,0.098l0.016,0.1l0.065,0.21l0.042,0.091l0.09,0.105l0.028,0.03l0.031,0.087l0.007,0.015
	l0.007,0.088l-0.005,0.109l-0.011,0.042l-0.014,0.055l-0.051,0.053l-0.039-0.005l-0.096-0.051l-0.036-0.003l-0.013,0.022v0.076
	l-0.013,0.029l-0.045,0.026l-0.046-0.001l-0.104-0.038l-0.014-0.029l-0.039-0.041l-0.016-0.028l-0.011-0.055l0.007-0.03l0.013-0.026
	l0.008-0.042l-0.007-0.087l-0.026-0.049l-0.041-0.045l-0.053-0.072l-0.216-0.193l-0.056-0.064l-0.066-0.124l-0.043-0.066
	l-0.085-0.088l-0.233-0.184l-0.096-0.048l-0.036-0.014l-0.075-0.026l-0.495-0.083l-0.048,0.015l-0.195,0.104l-0.037,0.013
	l-0.038-0.014l-0.058-0.052l-0.019-0.027l-0.022-0.056l-0.022-0.026l-0.028-0.016l-0.065-0.016l-0.026-0.018l-0.01-0.027
	l0.007-0.062l-0.016-0.032l-0.03-0.023l-0.059-0.017l-0.027-0.016l-0.182-0.155v-0.002h-0.002v-0.001l-0.001,0.001l-0.081-0.038
	l-0.186-0.008l-0.093-0.035l0.008-0.07l-0.022-0.052l-0.036-0.052l-0.031-0.064l-0.007-0.036v-0.08l-0.013-0.12l-0.013-0.012
	l-0.044-0.029l-0.246-0.075l-0.004-0.002l-0.064-0.043l-0.034-0.081l0.007-0.044l0.034-0.08l0.018-0.036l0.024-0.03l0.116-0.025
	l0.142,0.011l0.113-0.021l0.03-0.116l-0.016-0.042l-0.023-0.032l-0.018-0.04l0.002-0.056l0.018-0.028l0.09-0.097l0.211-0.156
	l0.211-0.173l0.107-0.13l0.02-0.119l-0.031-0.031l-0.04-0.039l-0.084-0.008l-0.071-0.027l-0.033-0.121l0.016-0.089l0.041-0.04
	l0.052-0.025l0.045-0.048l0.011-0.032l0.002-0.035l-0.003-0.072l0.012-0.041l0.03-0.016l0.038-0.007l0.033-0.018l0.029-0.09
	l0.016-0.157l-0.009-0.159l-0.037-0.104l-0.034-0.013l-0.029,0.013l-0.028,0.02l-0.029,0.006l-0.03-0.017l-0.035-0.029l-0.069-0.073
	l-0.073-0.056l-0.029-0.041l-0.008-0.06l0.015-0.028l0.091-0.052l0.05-0.058l0.135-0.284l0.054-0.067l0.066-0.043l0.05-0.01
	l0.033-0.005l0.077,0.017l0.045,0.016l0.032,0.017l0.057,0.041l-0.01,0.004l-0.033,0.006l-0.018,0.048l0.013,0.018l0.026,0.061
	l0.018,0.057l-0.01,0.008l0.035,0.022l0.275,0.016l0.303,0.019l0.044,0.001l0.07-0.007l0.196-0.089l0.063,0.013l0.093,0.069
	l0.15,0.182l0.052,0.039l0.065,0.005l0.029-0.043l0.023-0.049l0.053-0.017l0.09,0.064l0.068,0.119l0.081,0.115l0.131,0.055
	l0.036-0.009l0.067-0.035l0.035-0.008l0.04,0.001l0.081,0.02l0.038,0.003l0.104-0.026l0.058-0.027l0.044,0.016l0.011,0.021
	l0.042,0.081l0.023,0.071l0.03,0.151l0.023,0.065v0.024l-0.007,0.02l0.004,0.011l0.04,0.006l0.055-0.01l0.035-0.02l0.067-0.039
	l0.309-0.109l0.076-0.013l0.063,0.017l0.154,0.067l0.065,0.007l0.041-0.022l0.094-0.12l0.061-0.035l0.096-0.023l0.021,0.001
	l0.077,0.009l0.07,0.072l0.002,0.044l-0.019,0.036l-0.026,0.032l-0.018,0.036l0.009,0.01l0.026,0.089l0.002,0.013v0.01l-0.015,0.02
	l0.001,0.014l0.012,0.014l0.039,0.024l0.011,0.014l0.019,0.105l-0.016,0.311l-0.053,0.177l-0.002,0.058l0.026,0.063l0.079,0.115
	l0.021,0.067l-0.03,0.088l-0.142,0.142l-0.026,0.097l0.046,0.095l0.202,0.112L1098.773,556.188z"/></svg>