<?xml version="1.0" encoding="utf-8"?>
<!-- Generator: Adobe Illustrator 15.0.0, SVG Export Plug-In . SVG Version: 6.00 Build 0)  -->
<!DOCTYPE svg PUBLIC "-//W3C//DTD SVG 1.1//EN" "http://www.w3.org/Graphics/SVG/1.1/DTD/svg11.dtd">
<svg version="1.1" id="Ebene_1" xmlns="http://www.w3.org/2000/svg" xmlns:xlink="http://www.w3.org/1999/xlink" x="0px" y="0px"
	 width="1920px" height="1080px" viewBox="0 0 1920 1080" enable-background="new 0 0 1920 1080" xml:space="preserve">

<path fill="#F4E0B6" stroke="#FFFFFF" d="M1244.096,391.591l0.077,0.004l0.153,0.047l0.083,0.011l0.082-0.013l0.077-0.024
	l0.078-0.009l0.088,0.031l0.104,0.159l-0.021,0.21l-0.406,0.952l-0.036,0.214l-0.007,0.161l0.018,0.079l0.045,0.08l0.065,0.067
	l0.151,0.112l0.066,0.069l0.058,0.184l-0.049,0.179l-0.079,0.18l-0.035,0.188l0.046,0.272l-0.021,0.283l0.058,0.381l-0.005,0.088
	l-0.037,0.091l-0.172,0.215l-0.017,0.091l0.013,0.084l0.074,0.246l0.018,0.106l-0.004,0.096l-0.038,0.195l-0.01,0.175l0.092,0.551
	l-0.061,0.251l0.001,0.084l0.069,0.442l-0.042,0.604l0.004,0.066l0.018,0.069l0.037,0.05l0.1,0.081l0.029,0.058l-0.004,0.162
	l-0.07,0.31l0.09,0.469l-0.004,0.183l0.013,0.087l0.042,0.096l0.076,0.051l0.204,0.006l0.088,0.024l0.061,0.073l0.022,0.094
	l0.016,0.192l0.026,0.087l0.088,0.154l0.093,0.13l0.134,0.183l0.05,0.086l0.031,0.081l0.13,0.531l-0.007,0.08l-0.043,0.079
	l-0.129,0.127l-0.289,0.49l-0.057,0.143l-0.02,0.15l0.019,0.631l-0.009,0.069l-0.026,0.077l-0.096,0.2l-0.058,0.34l-0.055,0.113
	l-0.105,0.095l-0.18,0.188l-0.139,0.205l-0.049,0.13l-0.041,0.259l-0.246,0.485l-0.089,0.105l-0.188,0.172l-0.066,0.101l-0.106,0.47
	l-0.013,0.183l0.044,0.145l0.046,0.09l0.03,0.191l0.025,0.095l0.07,0.077l0.095,0.026l0.103,0.011l0.095,0.031l0.077,0.076
	l0.029,0.089l0.007,0.195l0.043,0.18l0.093,0.169l0.134,0.145l0.452,0.238l0.068,0.047l0.045,0.076l0.048,0.282l0.096,0.167
	l0.265,0.279l0.09,0.151l0.045,0.156l0.043,0.448l0.051,0.18l-0.008,0.078l-0.082,0.032l-0.312-0.064l-0.096,0.004l-0.085,0.105
	l0.061,0.17l0.093,0.193l0.013,0.172l-0.05,0.07l-0.141,0.12l-0.056,0.069l-0.037,0.104l-0.013,0.436l0.041,0.084l0.057,0.083
	l0.049,0.104l0.011,0.103l-0.022,0.097l-0.047,0.087l-0.177,0.24l-0.045,0.086l-0.031,0.093l-0.016,0.223l-0.035,0.097l-0.096,0.039
	l-0.096-0.002l-0.233-0.03l-0.089-0.033l-0.074-0.075l-0.038-0.084l-0.044-0.069l-0.086-0.029l-0.067,0.017l-0.146,0.072
	l-0.078,0.018l-0.1-0.012l-0.27-0.102l-0.229-0.019l-0.147,0.068l-0.069,0.147l0.009,0.214l0.205,1.195v0.049l-0.013,0.053
	l-0.007,0.059l0.026,0.039l0.036,0.037l0.023,0.05l-0.02,0.084l-0.066,0.062l-0.081,0.054l-0.061,0.065l-0.033,0.109l-0.016,0.239
	l-0.035,0.111l-0.099,0.139l-0.124,0.124l-0.375,0.258l-0.082,0.076l-0.032,0.091l0.01,0.02l0.041,0.083l0.04,0.039l0.015,0.013
	l0.068,0.074l0.074,0.099l0.077,0.075l0.084,0.004l0.243-0.12l0.084-0.021l0.166,0.039l-0.03,0.144l-0.237,0.313l-0.048,0.089
	l-0.007,0.093l0.083,0.303l0.012,0.092l-0.003,0.198l0.024,0.183l0.171,0.541l0.099,0.599l-0.014,0.179l-0.043,0.139l-0.077,0.121
	l-0.113,0.121l-0.096,0.133l-0.054,0.157l-0.018,0.173l0.014,0.17l-0.012,0.159l-0.097,0.293l0.026,0.155l0.026,0.068l0.038,0.063
	l0.05,0.056l0.062,0.043l0.097,0.079l0.045,0.11l0.032,0.119l0.063,0.107l0.177,0.13l0.043,0.046l0.022,0.053l0.03,0.166
	l0.041,0.085l0.065,0.081l0.081,0.064l0.092,0.04l0.111,0.005l0.057-0.042l0.048-0.065l0.081-0.062l0.109-0.02l0.108,0.022
	l0.208,0.081l0.29,0.027l0.04,0.047l0.005,0.12l0.015,0.093l0.042,0.088l0.082,0.1l0.137,0.128l0.046,0.074l-0.001,0.093
	l-0.281,0.854l-0.108,0.095l-0.22,0.378l-0.059,0.158l-0.123,0.52l0.011,0.137l0.057,0.07l0.061,0.043l0.032,0.053l-0.076,0.267
	l-0.08,0.505l-0.055,0.142l-0.107,0.134l-0.066,0.061l-0.038,0.046l-0.018,0.06l-0.006,0.261l-0.026,0.067l-0.057,0.066
	l-0.176,0.246l-0.049,0.087l-0.055,0.206l-0.028,0.067l-0.555,0.714l-0.038,0.071l-0.018,0.086l0.012,0.062l0.046,0.128l0.002,0.063
	l-0.035,0.071l-0.11,0.079l-0.048,0.058l-0.005,0.057l0.055,0.2l-0.024,0.076l-0.038,0.072l-0.1,0.127l-0.035,0.078l-0.009,0.2
	l-0.035,0.101l-0.014,0.09l0.045,0.091l0.201,0.233l0.237,0.353l-0.021,0.053l0,0l-0.074,0.017l-0.096,0.001l-0.051-0.012
	l-0.036-0.019l-0.035-0.002l-0.083,0.071l-0.076,0.044l-0.036,0.028l-0.115,0.176l-0.076,0.074l-0.089,0.002l-0.101-0.045
	l-0.131-0.037l-0.124-0.005l-0.085,0.05l-0.028,0.085l-0.005,0.191l-0.052,0.179l-0.005,0.092l0.041,0.571l-0.021,0.191
	l-0.063,0.171l-0.063,0.073l-0.089,0.054l-0.106,0.024l-0.108-0.018l-0.09-0.061l-0.035-0.077l-0.021-0.086l-0.044-0.088
	l-0.086-0.067l-0.125-0.055l-0.125-0.018l-0.085,0.042l-0.04,0.088l-0.142,0.49l-0.112,0.21l-0.157,0.146l-0.207,0.003l-0.054-0.076
	l-0.079-0.186l-0.058-0.062l-0.087-0.014l-0.102,0.026l-0.005,0.004l-0.089,0.044l-0.146,0.108l-0.032,0.084l-0.019,0.184
	l-0.042,0.134l-0.009,0.051l0.004,0.04l0.022,0.09l0.005,0.043l-0.009,0.19l0.009,0.083l0.062,0.212l0.006,0.064l-0.027,0.055
	l-0.164,0.231l-0.084,0.193l-0.05,0.207l0.005,0.189l0.083,0.164l0.119,0.15l0.088,0.152l-0.012,0.176l-0.087,0.106l-0.111,0.078
	l-0.085,0.077l-0.009,0.102l0.023,0.083l-0.007,0.042l-0.024,0.037l-0.032,0.068l-0.014,0.062l-0.006,0.171l-0.046,0.13
	l-0.087,0.125l-0.115,0.086l-0.129,0.014l-0.056-0.035l-0.052-0.055l-0.06-0.046l-0.075-0.01l-0.055,0.024l-0.087,0.084l-0.056,0.03
	l0,0h-0.001l-0.004-0.001l-0.266-0.037l-0.129,0.006l-0.12,0.071l-0.047,0.074l-0.058,0.178l-0.046,0.074l-0.055,0.042l-0.123,0.061
	l-0.05,0.049l-0.031,0.082l-0.029,0.168l-0.024,0.082l-0.009,0.05l0.01,0.042l0.015,0.037l0.001,0.035l-0.023,0.044l-0.069,0.081
	l-0.027,0.043l-0.012,0.068l0.034,0.535l-0.025,0.088l-0.062,0.064l-0.069-0.03l-0.144-0.143l-0.078-0.044l-0.097-0.03l-0.067,0.018
	l0.007,0.093l0.153,0.249l0.024,0.063l-0.018,0.086l-0.058,0.06l-0.146,0.111l-0.063,0.083l-0.051,0.097l-0.023,0.107l0.016,0.107
	l0.039,0.113l0.001,0.049l-0.133,0.099l-0.128,0.164l-0.158,0.358l-0.148,0.139l-0.201,0.126l-0.156,0.138l-0.129,0.162l-0.22,0.376
	l-0.024,0.087l0.012,0.201l-0.01,0.093l-0.027,0.09l-0.041,0.084l-0.063,0.092l-0.093,0.194l-0.083,0.072l-0.155,0.048l-0.029,0.014
	l-0.011,0.049l0.02,0.033l0.029,0.031l0.016,0.045l-0.051,0.197l-0.15-0.006l-0.531-0.344l-0.097-0.036l-0.096-0.013l-0.101,0.021
	l-0.101,0.041l-0.103,0.027l-0.104-0.021l-0.172-0.122l-0.145-0.15l-0.364-0.478l-0.098-0.169l-0.034-0.045l-0.027-0.017v-0.021
	l0.048-0.052l0.195-0.053l0.421-0.028l0.141-0.471l-0.063-0.031l-0.212,0.009l-0.029-0.022l-0.032-0.014l-0.034-0.007h-0.037
	l-0.169-0.053l-0.099-0.096l-0.062-0.128l-0.05-0.148l-0.023-0.03l-0.066-0.064l-0.008-0.031l0.03-0.028l0.099-0.003l0.04-0.013
	l0.049-0.063l0.036-0.074l0.567-1.935l0.105-0.141l0.657-0.441l0.074-0.081l0.101-0.227l0.06-0.099l0.088-0.075l0.09-0.031
	l0.092-0.019l0.098-0.035l0.076-0.061l0.095-0.147l0.146-0.135l0.221-0.328l0.084-0.095l0.109-0.071l0.104,0l0.07,0.124l0.004,0.093
	l-0.006,0.09l0.004,0.09l0.036,0.094l0.066,0.09l0.073,0.059l0.078,0.001l0.076-0.08l-0.021-0.062l-0.084-0.095l-0.026-0.052
	l0.005-0.063l0.09-0.191l0.021-0.111v-0.114l-0.026-0.113l-0.054-0.107l-0.142-0.128l-0.146-0.075l-0.107-0.087l-0.03-0.167
	l0.066-0.324v-0.077l-0.031-0.238l-0.017-0.043l-0.003-0.021l0.009-0.026l0.02-0.017l0.02-0.008l0.009,0.001l0.007-0.1l-0.007-0.042
	l0.013-0.068l0.161-0.21l0.03-0.156l-0.014-0.196l-0.076-0.136l-0.157,0.027l-0.052-0.23l0.093-0.275l0.314-0.474l0.058-0.144
	l-0.047-0.105l-0.084-0.094l-0.05-0.115l0.017-0.071l0.051-0.028l0.066-0.012l0.066-0.021l0.052-0.049l0.04-0.068l0.058-0.143
	l0.05-0.084l0.172-0.08l0.146-0.168l0.076-0.011l0.085,0.003l0.103-0.045l0.092-0.067l0.081-0.082l0.135-0.187l0.044-0.112
	l-0.033-0.067l-0.075-0.053l-0.075-0.075l-0.019-0.11l0.093-0.047l0.135-0.004l0.108,0.021l0.189,0.104l0.083,0.011l0.076-0.071
	l0.015-0.068l0.002-0.288l-0.019-0.1l-0.041-0.082l-0.106-0.16l-0.044-0.194l0.07-0.162l0.118-0.152l0.096-0.165l0.011-0.057
	l0.01-0.027l0.022-0.031l0.044-0.042l0.043-0.063l0.017-0.067l-0.036-0.056l-0.049,0.005l-0.029,0.02l-0.032,0.022l-0.109,0.099
	l-0.088,0.056l-0.085-0.008l0,0l-0.053-0.058l0.029-0.457l-0.038-0.164l-0.099-0.132l-0.072-0.072l-0.028-0.065l0.011-0.355
	l0.021-0.08l0.087-0.201l0.016-0.033l0.045-0.075l0.045-0.026h0.003l0.037,0.042l-0.013,0.071l-0.031,0.076l-0.012,0.056
	l0.031,0.043l0.001,0.001l0.041-0.046l0.089-0.198l0.05-0.052l0.246-0.188l0.093-0.098l0.032-0.11l-0.056-0.139l-0.095-0.108
	l-0.104-0.062h-0.002l-0.065-0.002l-0.047-0.002h-0.001l-0.201,0.127l-0.061,0.016v0l-0.052-0.026l-0.062-0.069l-0.082-0.044h-0.001
	l-0.172,0.025l-0.001-0.001l-0.068-0.055l0.015-0.152l0.173-0.086l0.205-0.07l0.11-0.096l0.1-0.155l0.316-0.21l0.073-0.173
	l-0.011-0.088l-0.036-0.071l-0.057-0.054l-0.064-0.042l-0.061-0.074l0.038-0.077l0.135-0.125l0.014-0.149l-0.283-0.21l-0.079-0.168
	l0.02-0.176l0.084-0.338l-0.012-0.461l0.069-0.459l0.003-0.249l-0.078-0.202l-0.104-0.025l0,0l-0.023,0.032l-0.063,0.085
	l-0.107,0.255l-0.092,0.059l-0.097,0.024l-0.07,0.047l-0.032,0.374l0.018,0.254l-0.02,0.058l-0.071-0.051l-0.144-0.053l-0.116,0.144
	l-0.227,0.564l-0.106,0.173l-0.141,0.133l-0.184,0.068l-0.323,0.059l-0.065,0.068l-0.059,0.102l-0.07,0.059l-0.105-0.056
	l-0.023-0.022l-0.025-0.01l-0.024,0.001l-0.024,0.015l-0.13,0.215l-0.088,0.104l-0.09,0.063l-0.217,0.038l-0.06,0.04l0.012,0.104
	l0.022,0.04l0.097,0.113l0.006,0.043l-0.059,0.166l-0.062,0.276l-0.031,0.146l-0.081-0.117l-0.068-0.073l-0.09-0.048l-0.261-0.089
	l-0.135-0.063l-0.136-0.047l-0.112,0.001l-0.107,0.08l-0.038,0.11l0.005,0.126l0.021,0.127v0.16l-0.07,0.056l-0.107,0.023
	l-0.122,0.065l-0.122,0.362l-0.099,0.086l-0.206-0.082l-0.191-0.117l-0.165-0.058l-0.171-0.006l-0.688,0.134l-0.042,0.02
	l-0.029,0.029l0.006,0.038l0.095,0.056l0.008,0.047l-0.035,0.032l-0.086-0.018l-0.039,0.037l0.016,0.033l0.042,0.045l0.024,0.045
	l-0.032,0.034l-0.059-0.028l-0.218-0.218l-0.097-0.053l-0.102-0.025l-0.088,0.02l-0.061,0.086l-0.016,0.11l0.024,0.08l0.134,0.18
	h0.001l0,0h0.001h0.098l0.188-0.05l0.093,0.03l0.082,0.068l0.123,0.145l0.179,0.278l0.04,0.172l-0.051,0.157l-0.158,0.148
	l-0.262,0.119l-0.041,0.051l0.045,0.059l0.815,0.399l0.148,0.111l0.019,0.133l-0.355,0.18l0.058,0.168l0.065,0.095l-0.026,0.059
	l-0.074,0.029l-0.087,0.005l-0.2-0.044l-0.08,0.018l-0.06,0.098l-0.007,0.11l0.059,0.046l0.094,0.025l0.101,0.044l0.068,0.091
	l-0.072,0.047l-0.203,0.026l-0.081,0.043l-0.101,0.15l-0.074,0.059l-0.103,0.056l-0.085,0.075l-0.136,0.188l-0.072,0.197
	l-0.051,0.082l-0.101,0.044l-0.098,0.022l-0.096,0.038l-0.085,0.051l-0.071,0.067l-0.042,0.101l-0.011,0.102l-0.027,0.074
	l-0.091,0.018l-0.084-0.037l-0.251-0.223l-0.101-0.046l-0.116-0.012l-0.461,0.05l-0.117,0.028l-0.083,0.058l-0.058,0.156
	l-0.031,0.663l-0.031,0.172l-0.015,0.028l-0.043,0.074l-0.083,0.037l-0.215,0.014l-0.1,0.025l-0.09,0.042l-0.162,0.115l-0.003,0.001
	l0,0l-0.001,0.001l-0.374,0.574l-0.151,0.12l-0.191-0.006l-0.07-0.16l0.037-0.882l-0.027-0.349l0.019-0.17l-0.002-0.169
	l-0.067-0.169l-0.152-0.248l-0.079-0.287l-0.07-0.584l0.007-0.167l0.183-0.444l0.03-0.172l-0.053-0.09l-0.257-0.162l-0.13-0.168
	l0.053-0.195l0.117-0.202l0.059-0.192l-0.051-0.796l0.1-0.392l-0.009-0.206l-0.139-0.157l-0.011,0.011l-0.107,0.114l-0.654,0.395
	l-0.114,0.108l-0.056,0.142l0.014,0.248l0.021,0.131l-0.088,0.109l-0.084,0.066l-0.224,0.09l-0.081-0.016l-0.045-0.09l-0.025-0.145
	l-0.012-0.069l-0.064-0.212l-0.037-0.06l-0.037-0.007l-0.043,0.006l-0.055-0.021l-0.075-0.075l-0.065-0.099l-0.046-0.103
	l-0.016-0.091l0.211-0.14l0.042-0.065l0.004-0.071l-0.025-0.064l-0.049-0.04l-0.07,0.006l-0.001,0.001h-0.001v-0.001l-0.183,0.087
	l-0.066,0.017l-0.193-0.057l0.005-0.2l0.145-0.384l-0.021-0.096l-0.057-0.06l-0.186-0.095l-0.091-0.064l-0.028-0.062l0.04-0.179
	l-0.001-0.087l-0.03-0.084l-0.088-0.164l0.009-0.086l0.072-0.079l0.09-0.077l0.061-0.079l0.013-0.088l-0.018-0.093l-0.036-0.09
	l-0.045-0.081l-0.016-0.103l0.049-0.102l0.161-0.167l0.012-0.083l0.02-0.045l0.039-0.032l0.201-0.1l0.044-0.042l0.025-0.077
	l-0.001-0.582l0.035-0.155l0.139-0.294l0.032-0.166l0.024-0.073l0.056-0.05l0.069-0.045l0.061-0.055l0.184-0.223l0.466-0.356
	l0.1-0.114l0.026-0.065l0.014-0.143l0.02-0.071l0.289-0.513l0.23-0.221l0.52-0.339l0.097-0.13l0.147-0.295l0.414-0.516l0.122-0.096
	l0.141-0.049l0.289-0.026l0.134-0.063l0.123-0.109l0.103-0.122l0.075-0.135l0.191-0.56l0.096-0.177l0.131-0.125l0.092-0.055
	l0.067-0.049l0.053-0.064l0.163-0.28l0.076-0.078l0.093-0.03l0.134,0.084l0.101,0.047l0.084-0.018l0.239-0.342l0.202-0.198
	l0.04-0.124l-0.082-0.044h-0.004l-0.621,0.049l-0.175-0.011l-0.169-0.048l-0.168-0.1l-0.139-0.128l-0.298-0.42l-0.146-0.209
	l-0.063-0.049l-0.089-0.032l-0.179-0.029l-0.082-0.03l-0.071-0.054l-0.05-0.066l-0.082-0.146l-0.295-0.341l-0.045-0.079
	l-0.016-0.087l0.002-0.236l0.105-0.805l0.022-0.075l0.089-0.162l0.007-0.183l-0.248-0.292l-0.02-0.159l0.063-0.067l0.188-0.085
	l0.058-0.062l0.248-0.656l0.001-0.081l-0.06-0.043l-0.1,0.003l-0.182,0.044l0.113-0.087l0.256-0.123l0.096-0.092l0.09-0.118
	l0.105-0.09l0.246-0.132l0.075-0.062l0.097-0.16l0.15-0.1l0.117-0.144l0.072-0.057l0.087-0.025l0.194-0.027l0.084-0.029l0.467-0.273
	l0.113-0.116l0.285-0.417l0.308-0.27l0.139-0.07l0.101-0.091l0.18-0.208l0.11-0.083l0.109-0.063l0.238-0.179l0.069-0.092
	l0.124-0.263l0.526-0.839l0.061-0.161l0.045-0.074l0.213-0.209l0.045-0.103l0.012-0.135l-0.016-0.144l-0.039-0.132l-0.039-0.07
	l-0.233-0.265l-0.014-0.061l0.016-0.066l0.016-0.039l0.081-0.21l0.092-0.144l0.225-0.269l0.046-0.085l0.047-0.29l0.046-0.103
	l0.195-0.256l0.167-0.354l0.245-0.293l0.015-0.044l0.005-0.09l0.021-0.048l0.04-0.03l0.094-0.009l0.035-0.03l0.014-0.078
	l-0.044-0.162l0.007-0.084l0.06-0.097l0.169-0.167l0.063-0.095l0.021-0.088l0.013-0.176l0.084-0.171l0.019-0.08v-0.18l-0.011-0.024
	l-0.019-0.013l-0.012-0.017l0.007-0.032l0.046-0.065l0.009-0.022l-0.002-0.037l-0.047-0.12l-0.012-0.096l0.024-0.083l0.078-0.172
	l0.018-0.177l0.023-0.08l0.064-0.063l0.266-0.409l0.104-0.112l0.052-0.028l0.188-0.049l0.066-0.039l0.043-0.058l0.031-0.063
	l0.032-0.069l0.229-0.354l0.025-0.14l0.005-0.194l0.016-0.064l0.03-0.058l0.082-0.092l0.067-0.154l0.07-0.058l0.077-0.046
	l0.072-0.058l0.03-0.063l0.007-0.239l0.022-0.086l0.123-0.249l0.171-0.234l0.039-0.012l0.037-0.002l0.036-0.015l0.049-0.033
	l0.006-0.115l-0.009-0.079l0.003-0.04l0.028-0.092l0.048-0.085l0.067-0.073l0.211-0.168l0.102-0.159l0.15-0.425l0.087-0.17
	l0.057-0.187l0.044-0.067l0.12-0.136l0.04-0.078l0.008-0.075l-0.018-0.172l0.009-0.09l0.063-0.173l0.135-0.244l0.282-0.324
	l0.149-0.122l0.155-0.089l0.058-0.053l0.243-0.442l0.245-0.258l0.122-0.246l0.115-0.125l0.067-0.142l-0.005-0.352l0.039-0.161
	l0.066-0.085l0.058-0.008l0.166,0.095l0.107,0.04l0.103,0.017l0.102-0.003l0.106-0.019l0.182-0.085l0.255-0.249l0.165-0.073
	l0.441-0.02l0.168-0.053l0.153-0.164l0.175-0.354l0.078-0.327l0.076-0.165l0.516-0.773l0.162-0.121l0.077-0.03l0.251-0.067
	l0.303-0.166l0.199-0.066l0.199-0.037l0.186-0.06L1244.096,391.591z M1237.064,433.035l-0.017,0.012l-0.018,0.009l-0.208,0.2
	l-0.121,0.084l-0.114,0.032l-0.158-0.009l-0.148,0.01l-0.102,0.071l-0.008,0.172l0.106,0.156l0.068,0.071l0.075,0.048l0.087,0.018
	l0.248-0.001l0.082-0.018l0.054-0.044l0.078-0.106l0.059-0.032l0.146,0.054l0.145,0.322l0.122,0.059l0.05-0.043v-0.081l-0.018-0.087
	l-0.004-0.065l0.045-0.082l0.05,0.001l0.056,0.018l0.065-0.03l0.037-0.063l0.059-0.233l0.069-0.149l0.013-0.071l-0.032-0.078
	l-0.139-0.087l-0.265,0.101l-0.124-0.057l-0.022-0.103l-0.013-0.266l-0.059-0.07l-0.06,0.011l-0.035,0.05l-0.032,0.126l-0.001,0.029
	l0.009,0.065l-0.006,0.026L1237.064,433.035z M1238.982,430.818l-0.036-0.074l-0.247-0.258l-0.057-0.009l-0.025,0.124l0.019,0.211
	l-0.006,0.093l-0.05,0.112l0.034,0.108l0.087-0.006l0.102-0.065l0.074-0.066l0.083-0.096L1238.982,430.818z M1236.74,435.957
	l-0.416,0.456l-0.035,0.065l0.069,0.046l0.095,0.01l0.097-0.021l0.161-0.103l0.066-0.019l0.238-0.029l0.028-0.017l-0.033-0.312
	l0.012-0.156l0.05-0.16l-0.011-0.064l-0.079-0.053l-0.102-0.016l-0.039,0.048l-0.02,0.169L1236.74,435.957z"/></svg>