<?xml version="1.0" encoding="utf-8"?>
<!-- Generator: Adobe Illustrator 15.0.0, SVG Export Plug-In . SVG Version: 6.00 Build 0)  -->
<!DOCTYPE svg PUBLIC "-//W3C//DTD SVG 1.1//EN" "http://www.w3.org/Graphics/SVG/1.1/DTD/svg11.dtd">
<svg version="1.1" id="Ebene_1" xmlns="http://www.w3.org/2000/svg" xmlns:xlink="http://www.w3.org/1999/xlink" x="0px" y="0px"
	 width="1920px" height="1080px" viewBox="0 0 1920 1080" enable-background="new 0 0 1920 1080" xml:space="preserve">

<path fill="#F4E0B6" stroke="#FFFFFF" d="M1465.792,331.711l0.243-0.38l0.065-0.146l0.037-0.131l0.033-0.071l0.038-0.018
	l0.124,0.077l0.13,0.107l0.105,0.122l0.041,0.126l0.018,0.136l0.047,0.112l0.153,0.207l0.034,0.036l0.021,0.018l0.015,0.03
	l0.012,0.071l-0.004,0.133l-0.019,0.063l-0.039,0.024l-0.09,0.036l-0.062,0.106l-0.038,0.131l-0.015,0.114l0.006,0.238l-0.028,0.093
	l-0.089,0.029l-0.102-0.035l-0.271-0.193l-0.121-0.038l-0.068-0.035l-0.073-0.069l-0.051-0.078l-0.01-0.054l0.019-0.116
	l-0.018-0.124l-0.084-0.16l-0.026-0.084l0.011-0.143L1465.792,331.711z"/></svg>