<?xml version="1.0" encoding="utf-8"?>
<!-- Generator: Adobe Illustrator 15.0.0, SVG Export Plug-In . SVG Version: 6.00 Build 0)  -->
<!DOCTYPE svg PUBLIC "-//W3C//DTD SVG 1.1//EN" "http://www.w3.org/Graphics/SVG/1.1/DTD/svg11.dtd">
<svg version="1.1" id="Ebene_1" xmlns="http://www.w3.org/2000/svg" xmlns:xlink="http://www.w3.org/1999/xlink" x="0px" y="0px"
	 width="1920px" height="1080px" viewBox="0 0 1920 1080" enable-background="new 0 0 1920 1080" xml:space="preserve">

<path fill="#F4E0B6" stroke="#FFFFFF" d="M688.993,613.442l0.042,0.097l0.14,0.049l0.189,0.129l0.178,0.152l0.108,0.125l0.003,0.029
	l-0.022,0.056l0.006,0.029l0.021,0.015l0.028,0.004l0.021-0.004l0.003-0.01l0.143,0.14l0.012,0.025l0.021,0.097l0.01,0.026
	l0.117,0.086l0.143,0.063l0.076,0.034l0.036,0.042l0.05,0.087l0.037,0.037l0.225,0.139l0.06,0.006l0.066,0.033l0.047,0.035
	l0.039,0.038l0.001,0.052l-0.042,0.034l-0.04,0.052l0.013,0.064l0.07,0.171l0.065,0.146l-0.009,0.05l-0.042,0.125l-0.003,0.049
	l0.019,0.045l0.054,0.064l0.18,0.143l0.053,0.057l0.032,0.064l0.017,0.119l0.029,0.069l0.047,0.063l0.128,0.074l0.031,0.088
	l0.016,0.02l0.005,0.031l0.011,0.03l0.024,0.026l0.278,0.187l0.01,0.025l-0.012,0.075l0.001,0.025l0.234,0.232l0.103,0.146
	l-0.042,0.092l0.031,0.171l-0.005,0.173l-0.074,0.337l-0.021,0.08l-0.023,0.093l-0.014,0.129l0.014,0.12l0.045,0.143l-0.062,0.007
	l-0.228-0.079l-0.19-0.016l-0.094-0.029l-0.053-0.062h0.039l0.021-0.009l0.05-0.038l-0.085-0.02l-0.125,0.051l-0.079-0.023
	l-0.045-0.055l-0.044-0.077l-0.055-0.062l-0.142-0.032l-0.312-0.17l-0.182-0.169l-0.031-0.019l-0.032-0.013l-0.027-0.025
	l-0.019-0.052l0.009-0.046l0.026-0.051l0.019-0.046l-0.017-0.035l-0.023-0.029l-0.004-0.036l0.003-0.037l-0.008-0.036l-0.091-0.101
	l-0.017-0.034l-0.039-0.062l-0.081-0.048l-0.158-0.058l-0.063-0.031l-0.189-0.137l0.021-0.026l0.425,0.249l-0.007-0.042l-0.005-0.03
	l-0.04-0.044l-0.111-0.077l-0.078-0.049l-0.043-0.098l-0.034-0.087l-0.032-0.056l-0.041,0.033l-0.048,0.028l-0.085,0.021
	l-0.036,0.021l-0.044-0.039l-0.036,0.02l-0.081,0.078l-0.244,0.19l-0.102,0.036l-0.087-0.001l-0.049-0.032l-0.021-0.036
	l-0.014-0.041l-0.029-0.043l-0.206-0.138l0.021-0.029l0.099,0.026l-0.015-0.062l0.001-0.101l-0.016-0.058l-0.032-0.048l-0.099-0.084
	l-0.122-0.032l-0.121-0.007l-0.153,0.081l-0.041,0.025l-0.054,0.127l-0.035-0.008l-0.069-0.003l-0.036-0.006l-0.006,0.026
	l-0.022,0.043l-0.011,0.03l-0.025-0.043l-0.038-0.03l-0.05-0.011l-0.06,0.004l0.036,0.084l0.058,0.062l0.077,0.044l0.092,0.026
	l-0.073,0.173l-0.062,0.06l-0.112-0.033l-0.075-0.056l-0.058-0.063l-0.044-0.079l-0.104-0.506l-0.003-0.129l-0.157-0.349
	l-0.058-0.086l-0.078-0.069l-0.091-0.019h-0.119l-0.084-0.046l-0.126-0.156l-0.139-0.136l-0.526-0.313l-0.022-0.021l-0.038-0.105
	l-0.082-0.152l-0.014-0.048l0.006-0.04l0.037-0.125l0.017-0.038l0.005-0.033l-0.049-0.069l-0.007-0.03l0.056-0.084l0.082-0.094
	l0.04-0.099l-0.068-0.098l-0.256-0.178l-0.043-0.062l0.068-0.263l0.003-0.062l-0.015-0.043l-0.022-0.044l-0.024-0.027l-0.007-0.037
	l0.018-0.059l0.047-0.106l0.038-0.188l-0.054-0.113l-0.277-0.18l-0.145-0.142l-0.061-0.042l-0.06,0.007l-0.041-0.002l-0.021-0.024
	l-0.063-0.098l-0.005-0.013l-0.045-0.044l-0.086-0.113l-0.058-0.052l-0.054-0.061l-0.031-0.085v-0.091l0.036-0.078l0.045-0.019
	h0.084l0.051-0.016l0.049-0.043l0.085-0.119l0.032-0.028l0.063-0.026l0.026-0.026l0.024-0.006l0.062,0.035l0.053,0.001l0.065-0.025
	l0.062-0.004l0.046,0.063l0.123-0.084l0.193-0.024l0.166,0.047l0.039,0.137l0.105-0.027l0.06,0.039l0.049,0.072l0.071,0.074
	l0.262,0.133l0.079,0.056l0.029,0.042l0.021,0.029l0.033,0.038l0.047,0.022l0.058-0.001l0.022-0.022l0.022-0.029l0.054-0.025
	l0.166-0.049l0.064-0.009l0.087,0.014l0.169,0.079l0.164,0.121l0.248,0.267l0.219,0.233l0.354,0.251l0.129,0.146l0.242,0.192
	L688.993,613.442z"/></svg>