<?xml version="1.0" encoding="utf-8"?>
<!-- Generator: Adobe Illustrator 15.0.0, SVG Export Plug-In . SVG Version: 6.00 Build 0)  -->
<!DOCTYPE svg PUBLIC "-//W3C//DTD SVG 1.1//EN" "http://www.w3.org/Graphics/SVG/1.1/DTD/svg11.dtd">
<svg version="1.1" id="Ebene_1" xmlns="http://www.w3.org/2000/svg" xmlns:xlink="http://www.w3.org/1999/xlink" x="0px" y="0px"
	 width="1920px" height="1080px" viewBox="0 0 1920 1080" enable-background="new 0 0 1920 1080" xml:space="preserve">

<path fill="#F4E0B6" stroke="#FFFFFF" d="M1068.432,490.057l-0.04,0.03l-0.063-0.008l-0.05-0.027l-0.019-0.04l-0.017-0.038
	l-0.006-0.032l0.036-0.012l0.068,0.014l0.036,0.014l0.032,0.035L1068.432,490.057z M1069.23,487.742l-0.046,0.078l-0.094-0.028
	l-0.072-0.101l0.001-0.085l0.049-0.059l0.074-0.02l0.077,0.095L1069.23,487.742z M1076.061,482.107l-0.026,0.035l-0.034,0.014h-0.09
	l-0.01-0.034v-0.024l0.008-0.019l0.015-0.007l0.008-0.002l0.06,0.002l0.033,0.011L1076.061,482.107z M1065.072,487.195l0.021,0.001
	l0.018-0.021l0.015-0.063l0.009-0.017l0.053-0.009l0.051,0.008l0.045-0.006l0.034-0.046l0.018-0.137l0.024-0.061l0.101,0.002
	l0.099-0.093l0.056-0.012l0.065,0.007l0.121-0.015l0.145,0.025l0.151-0.004l0.082,0.045l0.082,0.076l0.032,0.019l0.05,0.017
	l0.116,0.003l0.105-0.024l0.064-0.007l0.103,0.015l0.104,0.035l0.072,0.055l0.018,0.073l-0.197-0.031l-0.027,0.071l0.031-0.007
	h0.032l0.035,0.014l0.038,0.034l-0.102,0.036l-0.057-0.004l-0.069-0.024l-0.021-0.017l-0.026-0.028l-0.029-0.021l-0.028-0.001
	l-0.034,0.019l0.002,0.011v0.031l0.005,0.019l0.025,0.072l0.005,0.03v0.039l-0.004,0.025l-0.017,0.047l-0.017,0.005l-0.024,0.003
	l-0.014,0.018l0.02,0.055l0.017,0.027l0.019,0.027l0.019,0.025l0.018,0.02l-0.026,0.07l-0.012,0.087l-0.024,0.061l-0.143-0.031
	l-0.048,0.028l0.005,0.047l0.079,0.03l-0.026,0.295l-0.024,0.038l-0.027,0.031l-0.022,0.046l-0.016,0.123l-0.017,0.041l-0.044,0.036
	l-0.106,0.042l-0.038,0.041l0.006,0.07l0.141,0.015l-0.032,0.114l-0.108,0.081l-0.089-0.087l-0.047-0.007l-0.046,0.01l-0.041,0.024
	l-0.024,0.038l-0.014,0.056l-0.003,0.026l-0.015-0.004l-0.051-0.034l-0.046-0.012l-0.004,0.04l0.023,0.086l-0.008,0.023
	l-0.002,0.014l-0.003,0.009l-0.015,0.011l-0.01-0.016l-0.048-0.061l-0.009-0.013l-0.032,0.014l-0.027,0.04l-0.021,0.049
	l-0.004,0.045l-0.013,0.035l-0.03,0.003l-0.035-0.004l-0.021,0.017l-0.009,0.023l-0.027,0.047l-0.015,0.014l-0.043,0.081
	l-0.028,0.093l-0.003,0.062l-0.009,0.023l0.005,0.026l0.087,0.17l0.044,0.104l0.034,0.108l0.038,0.216l0.005,0.05l-0.005,0.05
	l-0.001,0.051l0.021,0.045l0.063,0.094l-0.004,0.061l-0.148,0.471l-0.068,0.039l-0.11-0.064l-0.018-0.057l-0.034-0.045l-0.043-0.026
	l-0.039,0.001l-0.01-0.004l-0.013-0.016l-0.013-0.021l-0.007-0.02l0.062-0.024l0.015-0.015l-0.002-0.039l-0.027-0.108l-0.008-0.047
	l0.008-0.183l-0.013-0.114l-0.001-0.053l0.014-0.03l0.037-0.005l0.04,0.005l0.034-0.001l0.019-0.027l-0.004-0.036l-0.037-0.101
	l-0.01-0.05l0.008-0.183l-0.081-0.033l-0.106,0.005l-0.17,0.051l-0.068-0.026l-0.194-0.172l-0.077-0.022l-0.144,0.072l-0.086,0.011
	l-0.097-0.029l-0.078-0.06l-0.045-0.044l-0.021-0.038l0.016-0.036l0.136-0.022l-0.062-0.056l-0.076-0.05l-0.044-0.048l0.035-0.045
	l0.056,0.01l0.066,0.04l0.056,0.018l0.023-0.057l-0.063-0.069l0.004-0.063l0.042-0.041l0.055-0.006l-0.047-0.042l-0.079-0.083
	l-0.208-0.155l-0.083-0.042l-0.104-0.071l-0.051-0.025l-0.098-0.033l-0.106-0.057l0.147-0.001l0.036-0.018l0.025-0.032l-0.004-0.019
	l-0.012-0.023v-0.049l0.087-0.039l0.076-0.01l0.087,0.032l0.198,0.143l0.037,0.04l0.04,0.06l0.017,0.025l0.018,0.009h0.015
	l0.015-0.006l0.011-0.028l-0.021-0.039l-0.049-0.061l-0.051-0.125l-0.018-0.057l-0.004-0.061l0.013-0.044l0.049-0.077l0.009-0.052
	l-0.009-0.075l-0.009-0.04l0.008-0.021l0.039-0.023l0.012,0.007l0.02,0.02l0.021,0.022l0.015,0.02l0.032,0.052l0.022,0.023
	l0.046,0.009l0.072-0.021l-0.027-0.101l-0.066-0.126l-0.037-0.094l0.035-0.109l0.289-0.198l0.1-0.265l0.059-0.06l0.037,0.012
	l0.099,0.084l0.038,0.011l0.02,0.003L1065.072,487.195z M1066.519,486.21l0.02,0.045l0.024,0.036l0.04,0.031l0.068,0.032
	l0.033,0.021l0.074,0.055l0.027,0.033l-0.024,0.06l0.004,0.049l-0.005,0.039l-0.04,0.004l-0.05-0.008l-0.045,0.006l-0.081,0.034
	l-0.023,0.028l-0.042,0.076l-0.026,0.009l-0.305-0.096l-0.138,0.012l-0.083-0.031l-0.046-0.1l0.015-0.038l0.08-0.01l0.021-0.036
	l-0.007-0.027l-0.037-0.102l-0.009-0.038l0.009-0.087l0.032-0.047l0.049-0.024l0.23-0.042l0.125,0.011l0.051,0.022l0.035,0.037
	L1066.519,486.21z M1065.168,484.481l0.18-0.028l0.077-0.081l0.048-0.028l0.068,0.024l0.109,0.067l0.036,0.046l0.02,0.081
	l-0.009,0.035l-0.031,0.005l-0.037-0.006l-0.026,0.003l-0.019,0.022l-0.037,0.084l-0.044,0.025l-0.1-0.009l-0.052,0.012
	l-0.008,0.017l0.006,0.023l0.002,0.025l-0.066,0.064l-0.025,0.009l-0.044-0.005l-0.169-0.157l-0.024-0.02l-0.02-0.058l0.009-0.047
	l0.026-0.036l0.044-0.032L1065.168,484.481z M1064.199,485.189l0.051,0.011l0.208-0.13h0.271l0.066,0.042l0.032,0.042l0.026,0.076
	l0.027,0.039l0.043,0.032l0.068,0.017l0.031,0.017l0.029,0.02l0.052,0.022l0.029,0.017l0.018,0.018l0.015,0.022l0.027,0.052
	l0.023,0.026l0.02,0.001l0.015-0.007h0.011l0.054,0.089l0.011,0.055l-0.028,0.023l-0.127-0.021l-0.027,0.002l-0.024,0.007
	l-0.008,0.025l0.01,0.032l-0.002,0.021l-0.043-0.012l-0.024,0.039l-0.037,0.02l-0.026,0.032l0.004,0.071l0.021-0.01l0.021,0.005
	l0.022,0.02l0.024,0.038l0.028,0.059l-0.004,0.016l-0.017,0.01l-0.01,0.038l-0.024,0.046l-0.062,0.036l-0.07,0.007l-0.053-0.037
	l-0.002-0.06l0.026-0.063l0.014-0.056l-0.043-0.039l-0.038,0.017l-0.039,0.056l-0.029,0.07l-0.015,0.059l0.015,0.135l0.068,0.302
	l-0.004,0.125l-0.064,0.106l-0.112,0.079l-0.137,0.026l-0.138-0.054l0.011-0.026l0.007-0.032l0.005-0.076l-0.057-0.033l-0.085-0.063
	l-0.084-0.073l-0.055-0.066l-0.059-0.11l-0.042-0.061l-0.049-0.04l-0.177-0.081l-0.084-0.013l-0.075,0.012l-0.069,0.044
	l-0.119,0.113l-0.074,0.029l-0.381-0.023l-0.063-0.027l-0.018-0.087l0.076-0.059l0.175-0.058l0.589-0.426l-0.06-0.009l-0.021-0.03
	l0.022-0.026l0.063,0.005l0.024-0.017l-0.09-0.159l0.014-0.06l0.047-0.03l0.028-0.037l0.012-0.055l-0.006-0.081l-0.014-0.044
	l-0.022-0.039l-0.016-0.04l-0.002-0.05l0.016-0.022l0.099-0.038h0.001l0.061-0.02l0.079-0.008l0.063,0.024l0.021,0.155l0.061,0.062
	L1064.199,485.189z M1066.718,480.631l-0.048,0.048l-0.097-0.038l-0.053-0.083l-0.018-0.097l0.027-0.026l0.067,0.046l0.108,0.096
	L1066.718,480.631z M1069.268,478.952h0.053l0.019-0.019l0.013-0.013l0.013-0.06l-0.009-0.085l-0.033-0.021l-0.033-0.124
	l0.064,0.006l0.095,0.057l0.065,0.026l0.035-0.037l-0.014-0.032l-0.032-0.034l-0.02-0.042l-0.001-0.06l0.017-0.028l0.032-0.009
	h0.097l0.128,0.037l0.019,0.013l0.021,0.023l0.021,0.032l0.022-0.004l0.387-0.243l0.048-0.01l0.121,0.01l0.146-0.043l0.162,0.006
	l0.099-0.023l0.046-0.026l0.026-0.035l0.031-0.106l0.021-0.033l0.091-0.043l0.096-0.022h0.105l0.116,0.023l0.149,0.051l0.163,0.055
	l0.126-0.02l0.122,0.007l0.053-0.007l0.388-0.192l0.313-0.226l0.262-0.195l0.369-0.112l0.327-0.178l0.371-0.117l0.066-0.085
	l0.041-0.111l0.01-0.123l-0.023-0.201l0.092,0.058l0.124-0.005l0.075,0.023l0.13,0.101l0.045,0.028l0.044,0.017l0.083,0.016
	l0.041,0.016l0.042,0.089h-0.005l-0.011-0.003h-0.058l-0.037,0.14l-0.156,0.123l-0.043,0.079l0.003-0.001v0.001l0.188-0.031
	l0.046-0.032l-0.004,0.087l-0.241,0.148l-0.069,0.146l-0.005,0.092l0.066,0.067l0.022,0.119l0.143,0.374l0.001-0.002v0.002
	l0.109,0.447l0.021,0.116l0.025,0.24l0.032,0.094l-0.423,0.144l-0.477,0.39l-0.314,0.452l-0.034,0.117l-0.013,0.137l0.008,0.164
	l0.021,0.103l0.048,0.14l0.065,0.134l0.082,0.095l0.1,0.045l0.286,0.028l0.095,0.043l0.304,0.202l0.219,0.189l0.304,0.347
	l0.077,0.113l0.123,0.218l0.074,0.084l0.089,0.038l0.059-0.013l0.093-0.055l0.199-0.003l0.048,0.007l0.033,0.021l0.008,0.026
	l-0.003,0.032l0.011,0.034l0.057,0.094l0.039,0.044l0.038,0.03l0.03,0.036l0.016,0.061l0.164,0.076l0.035,0.004l0.022,0.023
	l0.086,0.132l0.033,0.045l0.078,0.066l0.258,0.175l0.104,0.102l0.048,0.031l0.088-0.008l0.033,0.04l0.057,0.108l0.06,0.094
	l0.074,0.103l0.082,0.095l0.085,0.073l-0.042-0.153l-0.006-0.04v-0.007l0.024-0.004l0.06,0.01l0.078,0.097l0.023,0.063l0.015,0.058
	l0.022,0.054l0.049,0.054l0.032,0.013l0.272-0.04l0.061,0.021l0.071,0.075l0.01,0.075l-0.025,0.07l-0.097,0.144l-0.273,0.245
	l-0.035,0.032l-0.017,0.036l0.023-0.001l0.071,0.016l-0.039,0.07l-0.012,0.044l0.002,0.052l0.035,0.079l0.097,0.107l0.032,0.057
	l-0.01,0.068l-0.135,0.178l-0.012,0.06l0.001,0.035l0.011,0.041l0.02,0.045l0.016,0.02l0.016,0.015l0.04,0.053l0.014,0.011
	l0.014,0.014l0.051,0.091l0.005,0.022l-0.002,0.031l-0.018,0.031l-0.028,0.021l-0.021,0.025l0.004,0.049l0.035,0.054l0.059,0.063
	l0.063,0.056l0.044,0.035l-0.041,0.094l-0.409,0.074l-0.178,0.096l-0.067,0.004l-0.077-0.028l-0.158-0.083l-0.077-0.013
	l-0.091,0.019l-0.037,0.022l-0.032,0.033l-0.038,0.013l-0.041-0.017l-0.04-0.005l-0.027,0.044v0.076l0.017,0.077l0.011,0.076
	l-0.018,0.07l-0.031,0.036l-0.172,0.092l-0.057,0.07l-0.043,0.087l-0.026,0.101l0.002,0.036l0.012,0.037l0.006,0.033l-0.015,0.025
	l-0.024,0.005l-0.061-0.007l-0.023,0.006l-0.018,0.036l-0.013,0.047l-0.029,0.026l-0.069-0.025l-0.139-0.068l-0.059-0.017h-0.001
	l-0.218,0.023l-0.035,0.003l-0.13-0.016l-0.13-0.05l-0.419-0.241l-0.125-0.047l-0.366-0.074l-0.051-0.042l-0.06-0.086l-0.018-0.044
	l-0.003-0.034l-0.008-0.031l-0.031-0.037l-0.028-0.013l-0.034,0.002l-0.477,0.225l-0.088-0.024l-0.078-0.072l-0.073-0.077
	l-0.068-0.041l-0.033,0.018l-0.019,0.023l-0.09,0.112l-0.052,0.036l-0.055,0.022l-0.066-0.003l-0.083-0.039l-0.031-0.028
	l-0.02-0.028l-0.004-0.004l-0.017-0.023l-0.039-0.021l-0.029-0.004l-0.087,0.026l-0.119-0.009l-0.23-0.097h-0.116l-0.021,0.014
	l-0.009,0.016l-0.012,0.011l-0.026-0.001l-0.028-0.019l-0.072-0.064l-0.032-0.022l-0.059-0.012l-0.043,0.016l-0.012,0.045
	l0.042,0.078l0.13,0.084l0.056,0.062l-0.007,0.086l-0.047,0.079l-0.034,0.02l-0.048-0.01l-0.081-0.08l-0.083-0.097l-0.083-0.074
	l-0.079-0.008l-0.099,0.062l-0.041,0.046l-0.029,0.06l-0.01,0.051l-0.046,0.219l-0.031,0.074l-0.15,0.121l-0.031,0.067l-0.019,0.071
	l-0.01,0.037l-0.063,0.022l-0.079-0.007l-0.078,0.02l-0.006,0.063l0.03,0.145l-0.018,0.049l-0.122,0.091l-0.161,0.071l-0.037,0.036
	l-0.05,0.178l-0.058,0.099l-0.007,0.05l0.023,0.125l0.001,0.059l-0.033,0.06l-0.06,0.038l-0.119,0.011l0,0l0,0v-0.053l-0.007-0.051
	l-0.021-0.055l-0.024-0.056l-0.021-0.054l-0.057-0.335l-0.062-0.195l0.026-0.198l-0.007-0.1l-0.122-0.214l-0.04-0.107l-0.027-0.055
	l-0.038-0.04l-0.04-0.032l-0.038-0.042l-0.029-0.049l-0.026-0.111l-0.027-0.049l-0.028-0.048l-0.021-0.054l0.006-0.09l0.039-0.083
	l0.025-0.092l-0.034-0.116l-0.074-0.084l-0.091-0.048l-0.272-0.055l-0.111,0.01l-0.095,0.041l-0.051,0.083l-0.003,0.049l0.005,0.067
	l0.015,0.069l0.022,0.058l0.036,0.071l0.015,0.045l0.006,0.167l-0.003,0.056l-0.017,0.045l-0.032,0.034l-0.093,0.02l-0.039,0.023
	l-0.015,0.06l0.019,0.123l-0.01,0.03l-0.047,0.005l-0.039-0.016l-0.134-0.085l-0.156-0.043l-0.104-0.048l-0.181,0.014l-0.092,0.04
	l-0.053,0.003l-0.02-0.008l-0.044-0.024l-0.018-0.006l-0.022,0.008l-0.006,0.02l-0.003,0.022l-0.011,0.017h-0.025l-0.031-0.007
	l-0.026,0.003l-0.009,0.032l0.002,0.034l-0.002,0.027l-0.014,0.014l-0.026-0.01l-0.034-0.029l-0.04-0.044l-0.039-0.049l-0.029-0.042
	l-0.048-0.061l-0.044-0.021l-0.042-0.01l-0.047-0.027l-0.045-0.051l-0.026-0.046l-0.048-0.117l-0.073-0.134l-0.073-0.104
	l-0.063-0.036l-0.042,0.07l-0.03,0.011l-0.059-0.008l-0.063-0.017l-0.041-0.019l-0.051-0.055l-0.031-0.05l-0.022-0.021l-0.024,0.032
	l-0.006,0.06l0.011,0.057l-0.007,0.033l-0.051-0.019l-0.032-0.039l-0.014-0.056l-0.007-0.06l-0.016-0.051l-0.059-0.077l-0.088-0.098
	l-0.082-0.109l-0.048-0.11l-0.004-0.049l0.015-0.016l0.056-0.007l0.011-0.019l-0.004-0.026l-0.013-0.021l-0.057-0.02l-0.039-0.057
	l-0.017-0.058l0.028-0.017l0.106-0.001l0.072-0.06l0.061-0.077l0.076-0.056l0.053-0.004l0.117,0.014l0.043-0.007l0.066-0.036
	l-0.003-0.018l-0.015-0.033l-0.022-0.03l-0.021-0.007l-0.045-0.003l-0.035-0.043l-0.017-0.059l0.012-0.049l0.038-0.017l0.111,0.004
	l0.046-0.016l-0.1-0.042l-0.098-0.016l-0.07,0.033l-0.018,0.102l-0.07-0.036l-0.046,0.02l-0.074,0.081l-0.165,0.074l-0.042,0.04
	l-0.028,0.052l-0.009,0.034l-0.002,0.034l-0.012,0.011l-0.079,0.017l-0.038,0.031l-0.089,0.121l-0.01-0.205l0.019-0.063l0.063-0.053
	l-0.002-0.041l-0.247-0.126l-0.065-0.075l-0.135-0.078l-0.051-0.089l0.009-0.095l0.148-0.067l0.009-0.093l0.052,0.006l0.039-0.018
	l0.029-0.036l0.033-0.102l0.005-0.032l-0.011-0.033l-0.029-0.056l-0.074-0.101l-0.078-0.06l-0.078-0.029l-0.071-0.008l0.06,0.044
	l0.103,0.034l0.061,0.045l-0.012,0.023l-0.036,0.025l-0.01,0.02l-0.01,0.086l0.006,0.017l0.015,0.027l0.017,0.057l-0.018,0.017
	l-0.025-0.014l-0.026-0.021l-0.022-0.008l-0.158,0.037l-0.086-0.021l-0.111-0.067l0.016-0.005l0.028-0.021l0.015-0.006l-0.059-0.074
	l-0.021-0.063l0.028-0.178l0.01-0.033h0.03l0.066,0.036l-0.127-0.235l-0.196-0.184l-0.128-0.155l0.071-0.146l0.024-0.01l0.057-0.004
	l0.028-0.009l0.013-0.02l0.007-0.059l0.033-0.055l0.004-0.051l0.013-0.051l0.041-0.027l0.182,0.058l0.007-0.001l0.027-0.011
	l0.002-0.054l-0.025-0.049l-0.039-0.034l-0.04-0.011l-0.009-0.07l0.032-0.053l0.186-0.109l0.107-0.023l0.095-0.064l0.083-0.108
	l0.102-0.071l0.146,0.05l-0.019-0.128l-0.063-0.072l-0.251-0.129l-0.043-0.033l-0.021-0.053v-0.063l0.011-0.044l0.026-0.028
	l0.042-0.012l0.086,0.016l0.197,0.073l0.077-0.006l0.041-0.067l-0.062-0.067l-0.103-0.053l-0.081-0.024l0.025-0.053l0.178-0.119
	l0.056-0.073l-0.007-0.068l-0.059-0.162l-0.01-0.036l0.117-0.115l0.053-0.021l0.061,0.011l0.132,0.055l0.054-0.003l0.027-0.042
	l0.01-0.058l0.019-0.046l0.047-0.009l0.176,0.027l0.044-0.01l0.026-0.041l-0.032-0.038l-0.058-0.021l-0.049,0.004l-0.02-0.034
	l0.059-0.026l0.014-0.025l-0.014-0.045l-0.021-0.055l0.009-0.027l0.025-0.01l0.034,0.005l0.077,0.046l0.072,0.063l0.063,0.032
	l0.052-0.047l0.012-0.035l0.003-0.025l-0.018-0.141l-0.008-0.028l-0.06-0.059l-0.029-0.019l-0.028-0.008l-0.03-0.013l-0.03-0.037
	l-0.025-0.043l-0.02-0.031l-0.023-0.027l-0.028-0.03l0.037-0.084l0.122,0.026l0.253,0.112l0.062-0.014l0.136-0.14l0.058-0.014
	l0.123,0.013l0.052-0.01l0.024-0.046l-0.085-0.106l0.002-0.064l0.051-0.027l0.144,0.016l0.528-0.117l0.004-0.002l-0.076-0.097
	l-0.005-0.074l0.036-0.053l0.194-0.113l0.014-0.027l-0.02-0.032l-0.033-0.023l-0.03-0.002l-0.108-0.048l-0.138-0.163l-0.113-0.178
	l-0.034-0.09l0.056,0.012l0.155,0.11l0.059,0.012l0.057-0.006l0.064,0.028l0.129,0.078l0.069,0.012l0.082-0.014l0.052-0.051
	l-0.021-0.098l-0.062-0.067l-0.062-0.031l-0.056-0.044l-0.043-0.101l-0.016,0.004l-0.028-0.007h-0.014l0.009-0.099l0.077-0.016
	l0.193,0.068l0.006,0.043l0.059,0.042l0.081,0.099L1069.268,478.952z"/></svg>