<?xml version="1.0" encoding="utf-8"?>
<!-- Generator: Adobe Illustrator 15.0.0, SVG Export Plug-In . SVG Version: 6.00 Build 0)  -->
<!DOCTYPE svg PUBLIC "-//W3C//DTD SVG 1.1//EN" "http://www.w3.org/Graphics/SVG/1.1/DTD/svg11.dtd">
<svg version="1.1" id="Ebene_1" xmlns="http://www.w3.org/2000/svg" xmlns:xlink="http://www.w3.org/1999/xlink" x="0px" y="0px"
	 width="1920px" height="1080px" viewBox="0 0 1920 1080" enable-background="new 0 0 1920 1080" xml:space="preserve">

<path fill="#F4E0B6" stroke="#FFFFFF" d="M1445.536,248.458l0.002,0.08l-0.042,0.075l-0.076,0.039l-0.024-0.092l0.073-0.119
	l0.057-0.022L1445.536,248.458z M1446.315,250.354l0.063,0.051l-0.364,0.016l-0.34-0.015l-0.392,0.046l-0.185,0.051l-0.166,0.073
	l-0.016-0.057l0.021-0.059l0.046-0.054l0.058-0.038l0.046-0.02l0.048-0.014l0.049-0.009l0.05-0.004l0.108-0.021l0.193-0.082
	l0.097-0.021l0.107-0.001l0.093,0.01l0.087,0.018L1446.315,250.354z M1445.15,248.542l0.001,0.079l-0.099,0.118l-0.152,0.049
	l-0.094-0.009l-0.033-0.056l0.029-0.059l0.048-0.031l0.054-0.11l0.099-0.045h0.085l0.046,0.037L1445.15,248.542z M1444.008,248.743
	l0.021,0.034l-0.015,0.022l0.011,0.022l0.017,0.009l0.04,0.019l0.025,0.056l0.035,0.112l-0.047,0.034l-0.107-0.009l-0.205-0.094
	l-0.078-0.065l-0.06-0.074l0.015-0.039l0.078-0.002l0.067-0.012l0.063-0.02l0.073-0.013L1444.008,248.743z M1442.763,246.732
	l0.007-0.038l-0.021-0.04l-0.009-0.04l0.04-0.043l0.086-0.009l0.357,0.057l0.232,0.015l0.121,0.021l0.085,0.047l-0.027,0.075
	l-0.037,0.057l-0.059,0.036l-0.096,0.016l-0.172-0.024h-0.083l-0.044,0.04l0.01,0.032l0.041,0.012l0.046,0.005l0.026,0.012
	l0.005,0.026l-0.005,0.091l-0.021,0.04l-0.055,0.04l-0.066,0.034l-0.058,0.021l0.086,0.048l0.188,0.002l0.082,0.035l0.037,0.071
	l-0.018,0.076l-0.035,0.072l-0.021,0.058l0.019,0.102l0.047,0.037l0.064,0.016l0.074,0.04l0.01,0.035l-0.003,0.048l0.008,0.039
	l0.045,0.015l0.181,0.025l0.072,0.077l-0.015,0.055l-0.044,0.048l-0.012,0.061l0.033,0.039l0.107,0.066l0.023,0.042l0.001,0.157
	l0.032,0.065l0.031,0.043l0.003,0.042l-0.064,0.056l-0.071,0.016l-0.201-0.002l-0.092,0.038l-0.048-0.044l-0.025-0.037l-0.069-0.175
	l-0.086-0.15l-0.033-0.031l-0.016-0.03l-0.122-0.168l-0.144-0.063l-0.046-0.039l-0.029-0.156l-0.054-0.115l-0.012-0.043l-0.02-0.038
	l-0.102-0.077l-0.004-0.053l0.018-0.036l0.011-0.035l-0.025-0.049l-0.027-0.007l-0.11-0.018l-0.043-0.019l-0.092-0.129l-0.07-0.044
	l-0.036-0.061l-0.05-0.111l-0.076-0.092l-0.025-0.052l0.009-0.051l0.044-0.031l0.065-0.013l0.302-0.016L1442.763,246.732z
	 M1441.746,220.392l0.056,0.019l0.003,0.036l-0.02,0.067l0.011,0.093l0.02,0.084l-0.026,0.066l-0.05,0.048l-0.042,0.05l-0.026,0.007
	l-0.047-0.039l-0.129-0.07l-0.055-0.089v-0.144l0.028-0.075l0.031-0.021l0.074-0.021L1441.746,220.392z M1441.4,243.403l0.018,0.09
	l-0.055,0.149l-0.026,0.038l-0.063,0.057l-0.071,0.05l-0.057,0.023l-0.058-0.02l-0.056-0.051l-0.045-0.066l-0.023-0.058l0.012-0.063
	l0.082-0.09l0.114-0.081l0.105-0.029L1441.4,243.403z M1440.433,243.852l0.017,0.059l-0.019,0.044l-0.063,0.018l-0.1-0.048
	l-0.064-0.125l-0.002-0.078l0.017-0.059l0.055-0.099l0.051-0.021l0.014,0.044l0.042,0.066l0.043,0.104L1440.433,243.852z
	 M1440.169,243.344l0.068,0.068l-0.055,0.099l-0.183,0.003l-0.103-0.053l0.034-0.062l0.114-0.073L1440.169,243.344z
	 M1439.638,241.838l0.01,0.029l-0.008,0.142l0.079,0.17l-0.011,0.079l-0.1,0.064l-0.083,0.005l-0.072-0.032l-0.053-0.049
	l-0.029-0.049l0.006-0.085l0.035-0.079l0.053-0.067l0.06-0.051l0.025-0.064l0.03-0.025L1439.638,241.838z M1438.208,238.852
	l0.054-0.129l-0.006-0.156l-0.069-0.13l-0.004-0.056l0.071-0.019l0.023,0.025l0.079,0.12l0.097,0.216l-0.014,0.055l-0.196,0.277
	l-0.126,0.11l-0.103,0.047l0.015-0.086L1438.208,238.852z M1437.952,242.888l0.007-0.176l-0.005-0.095l0.005-0.091l0.024-0.058
	l0.073-0.116l0.016-0.057l0.062-0.102l0.287-0.135l0.081-0.083l-0.028-0.089l-0.079-0.077l-0.052-0.09l0.112-0.234l0.008-0.112
	l-0.01-0.213l0.033-0.112l0.07-0.093l0.099-0.044l0.126,0.039l0.028,0.046l0.002,0.049l0.018,0.041l0.075,0.011l0.098-0.011
	l-0.01,0.019l0.033,0.188l0.017,0.035l0.046,0.045l0.176,0.129l0.037,0.05v0.055l-0.027,0.054l-0.047,0.049l-0.075,0.047
	l-0.065,0.011l-0.059-0.003l-0.054,0.007l-0.146,0.133l0.013,0.191l0.218,0.395l0.07,0.093l0.018,0.035l-0.005,0.041l-0.028,0.031
	l-0.104,0.07l-0.022,0.025l-0.04,0.21l0.021,0.042l0.138,0.17l0.056,0.098l0.009,0.047l-0.02,0.058l-0.027,0.028l-0.035,0.006
	h-0.032l-0.026,0.01l-0.018,0.032l-0.018,0.063l-0.02,0.027l-0.128,0.085l-0.105,0.029l-0.103-0.017l-0.115-0.056l-0.094-0.077
	l-0.095-0.183l-0.11-0.132l-0.016-0.108l-0.028-0.043l-0.18-0.101l-0.037-0.04L1437.952,242.888z M1437.172,245.339l0.004,0.07
	l-0.029,0.198l-0.029,0.059l-0.063,0.034l-0.04-0.016l-0.024-0.048l-0.007-0.063l-0.027-0.034l-0.062-0.036l-0.072-0.028
	l-0.056-0.011l-0.044-0.013l-0.128-0.063l-0.122-0.024l-0.057-0.031l-0.042-0.042l-0.011-0.047l0.026-0.037l0.049-0.028l0.054-0.019
	l0.049-0.01l0.112-0.003l0.39,0.084l0.057,0.025l0.045,0.035L1437.172,245.339z M1435.233,240.166l0.035,0.032l-0.046,0.033
	l-0.124,0.021l-0.078,0.037l-0.083,0.064l-0.064,0.04l-0.026-0.04l-0.054-0.038l-0.099-0.033l-0.054-0.043l0.084-0.067l0.389-0.025
	L1435.233,240.166z M1436.073,237.943l0.021,0.092l0.004,0.219l0.033,0.161l-0.013,0.024l-0.119,0.014l-0.05,0.015l-0.044,0.023
	l-0.327,0.373l-0.301,0.022l-0.105,0.031l-0.047,0.1l-0.008,0.112l-0.043,0.096l-0.148,0.048l-0.147-0.009l-0.09-0.049l-0.047-0.083
	l-0.055-0.499l-0.02-0.039l-0.083-0.044l-0.1-0.189l-0.102-0.068l-0.039-0.048l-0.017-0.083l-0.01-0.132l0.004-0.042l0.022-0.046
	l0.079-0.075l0.033-0.041l0.024-0.055l0.03-0.125l0.004-0.058l0.023-0.02l0.054-0.027l0.051-0.042l0.024-0.061l0.031-0.224
	l0.026-0.054l0.032-0.033l0.032-0.027l0.026-0.029l0.025-0.056l0.039-0.13l0.026-0.044l0.108-0.171l0.059-0.034l0.084,0.063
	l0.037,0.101l0.01,0.231l0.061,0.09l0.074,0.046l0.081,0.04l0.087,0.029l0.091,0.018l0.258,0.009l0.095,0.041l0.039,0.108
	l0.01,0.112l0.027,0.108L1436.073,237.943z M1432.734,255.593l0.047-0.042l0.124-0.063l0.038,0.032l-0.039,0.085l0.057-0.001
	l0.136-0.055l0.045,0.058l-0.002,0.076l-0.041,0.131l-0.018,0.156l-0.038,0.048l-0.096,0.038l-0.067,0.008l-0.049-0.019L1432.79,256
	l-0.038-0.073l0.021-0.091l-0.017-0.06l-0.026-0.049l-0.016-0.063L1432.734,255.593z M1432.826,219.517l0.133,0.02l-0.026,0.05
	l-0.104,0.082l-0.109,0.055l-0.239,0.062l-0.143,0.081l-0.063,0.024l-0.206,0.045l-0.022,0.03l-0.002,0.042l-0.046,0.106
	l-0.005,0.031l-0.021,0.022l-0.066,0.019l-0.062,0.001l-0.063-0.014l-0.05-0.025l-0.021-0.029l-0.063-0.03l-0.284,0.001
	l-0.084-0.012l-0.024-0.044l0.016-0.042l0.038-0.033l0.048-0.025l0.086-0.091l0.067-0.098l0.08-0.082l0.125-0.044l0.727-0.046
	l0.123-0.029l0.084-0.045l0.05-0.018l0.062,0.013L1432.826,219.517z M1430.436,233.875l0.084-0.057l-0.014,0.101l-0.018,0.037
	l0.091-0.038l0.056-0.014l0.043,0.005l0.037,0.032l0.004,0.034l-0.005,0.032l0.005,0.029l0.127,0.137l0.033,0.056l0.014,0.041
	l0.012,0.063l0.012,0.032l0.026,0.019l0.07,0.021l0.021,0.016l0.018,0.073l-0.019,0.054l-0.055,0.044l-0.09,0.046l-0.143,0.042
	l-0.209,0.018l-0.189-0.032l-0.076-0.116l0.044-0.076l0.082-0.066l0.064-0.066l-0.008-0.077l-0.057-0.03l-0.072-0.001l-0.064-0.01
	l-0.036-0.051l0.036-0.093l0.081-0.109L1430.436,233.875z M1427.323,262.777l0.028-0.009l0.068-0.047l0.042,0.022l0.027,0.047
	l0.032,0.026l0.086-0.007l0.198-0.056l0.112-0.014l0.027,0.005l0.049,0.024l0.02,0.004l0.106,0.001l0.005-0.003l0.04-0.033
	l0.022-0.009l0.01,0.022l0.009,0.009l0.04,0.034l0.011,0.006l0.06,0.02l0.072,0.054l0.06,0.074l0.018,0.08l0.095-0.053l0.034,0.038
	l-0.009,0.079l-0.041,0.069l-0.089-0.026l-0.085,0.027l-0.172,0.103l-0.278,0.103l-0.026,0.005l-0.747-0.019l0.038-0.054
	l0.056-0.012l0.056-0.005l0.04-0.032l-0.001-0.07l-0.069-0.024l-0.082-0.014l-0.039-0.038l-0.044-0.218l0.001-0.083l0.063-0.046
	l0.108,0.018L1427.323,262.777z M1427.062,262.979l0.049,0.043l-0.052,0.05l-0.056,0.025l-0.05,0.032l-0.031,0.064l-0.143-0.148
	l-0.038-0.087l0.066-0.062l0.169-0.055l0.035,0.001l0.026,0.041l0.009,0.047L1427.062,262.979z M1426.627,262.186l0.03,0.101
	l-0.035,0.112l-0.072,0.047l-0.057-0.011l0.012-0.063l0.008-0.106l0.053-0.074L1426.627,262.186z M1425.7,261.665l0.005-0.007
	v-0.012l0.004-0.016l0.109-0.147l0.152-0.003l0.164,0.027l0.141-0.054l0.065,0.038l0.054,0.042l0.023,0.05l-0.033,0.065l0.082,0.138
	l-0.125,0.056l-0.194,0.021l-0.135,0.03l-0.076-0.03l-0.163-0.012l-0.063-0.021l0.026-0.042l-0.001-0.042l-0.022-0.041l-0.038-0.04
	L1425.7,261.665z M1425.712,262.061l0.041-0.034l-0.037-0.051l0.005-0.035l0.04-0.02l0.069,0.002l0.099,0.096l0.099,0.137
	l0.018,0.117l-0.141,0.045l-0.063-0.037l-0.241-0.253l0.07,0.008l0.018,0.006L1425.712,262.061z M1422.539,249.055l0.02-0.005
	l-0.001,0.01L1422.539,249.055z M1422.536,248.998v0.011l-0.017,0.006l0.01-0.019L1422.536,248.998z M1422.499,249.03l0.004-0.001
	l-0.001-0.001l0.01-0.003l0.004,0.006l-0.004,0.002v0.001l-0.008,0.005L1422.499,249.03z M1422.475,249.02l0.005-0.001l-0.001-0.002
	l0.009-0.001l0.005,0.006l-0.003,0.002l0,0l-0.009,0.006L1422.475,249.02z M1420.936,225.768l0.013,0.044l-0.007,0.036l-0.074,0.036
	l-0.008,0.036v0.044l-0.008,0.041l-0.15,0.312l-0.124,0.137l-0.181,0.068l-0.2-0.031l-0.132-0.116l-0.047-0.169l0.053-0.19
	l0.133-0.095l0.056-0.052l0.021-0.059l0.037-0.049l0.089-0.057l0.104-0.036l0.153,0.021l0.089-0.016l0.089-0.002l0.073,0.059
	L1420.936,225.768z M1420.324,231.1l0.075,0.045l0.034,0.027l0.063-0.004l0.041-0.019l0.083-0.063l0.002-0.022l0.037-0.062
	l0.045-0.043l0.022,0.033l0.092,0.051l0.024,0.023l0.009,0.04l-0.004,0.143l0.007,0.036l0.019,0.025l0.03,0.012l0.04,0.002
	l0.045,0.012l0.003,0.037l-0.026,0.084v0.093l-0.015,0.088l-0.037,0.087l-0.301,0.424l-0.073,0.047l-0.063-0.011l-0.13-0.113
	l0.055-0.089l-0.021-0.112l-0.072-0.111l-0.141-0.133l-0.024-0.036l-0.037-0.02l-0.087-0.001l-0.06-0.02l-0.027-0.059v-0.074
	l0.022-0.067l0.072-0.052l0.162-0.084l0.031-0.043l0.03-0.083L1420.324,231.1z M1418.513,230.849l0.016,0.095l-0.021,0.077
	l-0.132,0.071l-0.042,0.059l-0.021-0.002l-0.018-0.057l-0.028-0.04l-0.035-0.029l-0.048-0.05l-0.054-0.073l-0.092-0.18l-0.019-0.099
	l0.064-0.099l0.051-0.043l0.065,0.023l0.108,0.078l0.159,0.179L1418.513,230.849z M1418.644,243.198l0.042,0.059l-0.046-0.009
	l-0.114-0.041l-0.024-0.02l-0.025-0.052l-0.054-0.024l-0.063-0.021l-0.049-0.039l0.035,0.002l0.016,0.005l0.009,0.008l0.015,0.011
	l0.021-0.023l0.016-0.002l0.163,0.098L1418.644,243.198z M1417.078,220.384l0.046-0.003l-0.028-0.043l-0.014-0.017l0.087-0.019
	l0.125-0.005l0.111-0.026l0.046-0.077l0.046-0.061l0.113,0.006l0.212,0.062l0.063-0.031l0.088-0.005l0.079,0.018l0.034,0.042
	l0.021,0.074l-0.003,0.034l-0.086-0.02l-0.028,0.036l-0.012,0.056l0.004,0.049l-0.037,0.004v-0.05l-0.002-0.017l-0.04,0.005
	l-0.07,0.109l0.04-0.005l-0.048,0.019l-0.056,0.001l-0.12-0.029l-0.038-0.019l-0.013-0.018l-0.02-0.013l-0.049-0.004l-0.046,0.004
	l-0.062,0.013l-0.037-0.001l-0.083,0.058l-0.127,0.021l-0.117-0.023l-0.048-0.082l0.037-0.032L1417.078,220.384z M1417.913,221.844
	l0.055-0.14l-0.022-0.105l0.02,0.007l0.018,0.003l0.019,0.005l0.022,0.014l-0.005-0.064l0.026-0.039l0.048-0.04l0.001-0.048
	l-0.015-0.104l0.007-0.048l0.11-0.104l0.033-0.045l0.016-0.051l0.034-0.289l0.053-0.1l0.156-0.18l0.014-0.048l-0.002-0.062
	l0.008-0.054l0.047-0.028l0.047-0.013l0.063-0.05l0.055-0.022l-0.107-0.042l-0.044-0.008l-0.001-0.034l0.089-0.008l0.055,0.001
	l0.038,0.013l0.043,0.034l0.031,0.052l0.044,0.133l0.048,0.036l0.072-0.003l0.051-0.034l0.033-0.055l0.021-0.06l0.013-0.086
	l-0.015-0.052l-0.077-0.125l0.216-0.015l0.18-0.043l0.166-0.093l0.253-0.256l0.022-0.041l0.01-0.052l-0.01-0.063l-0.06-0.096
	l-0.062-0.16l-0.201-0.154l-0.064-0.094l0.011-0.1l0.08-0.032l0.103,0.013l0.176,0.074l0.133,0.02l0.245,0.01l0.183-0.021
	l0.25,0.005l0.062-0.03l0.02-0.057l0.005-0.063l0.02-0.051l0.045-0.035l0.133-0.068l0.059-0.039l0.383-0.403l0.114-0.061l0.07-0.015
	l0.206-0.085l0.08,0.01l0.05-0.007l0.04-0.07l0.044,0.006l0.043,0.02l0.009,0.01l0.13,0.021l0.138,0.043l0.111,0.071l0.047,0.103
	l0.146,0.172l0.009,0.03l0.079-0.009l0.047-0.044l0.062-0.104l0.034-0.004l0.012,0.018l0.006,0.003h0.006l0.019,0.01l-0.024,0.063
	l-0.011,0.054l0.001,0.107l0.025,0.058l0.11,0.107l0.089,0.165l0.132,0.083l0.131,0.027l0.109-0.111l0.252-0.117l0.069-0.06
	l0.004-0.044l-0.01-0.162l0.029-0.101v-0.046l-0.035-0.053l-0.068,0.105l-0.042,0.037l-0.041-0.027l0.002-0.056l0.028-0.068
	l0.011-0.065l-0.05-0.048l0.057-0.122l0.047-0.332l-0.01,0.005l-0.019-0.013l-0.014-0.024l-0.002-0.029h0.016l0.045-0.022
	l0.071-0.045l0.083-0.111l0.053-0.027l0.074,0.028l0.016-0.023l0.032-0.027l0.022-0.027l-0.002,0.134l0.016,0.052l0.051,0.014
	l0.131,0.001l0.024-0.019l-0.026-0.064l0.091-0.031l0.111,0.025l0.181,0.095l0.008,0.021l0.042,0.055l0.045,0.035l0.021-0.039
	l0.028-0.021l0.144-0.085l0.036-0.044l0.015-0.076l0.05-0.048l0.143,0.037l0.205,0.136l0.095,0.024l0.104-0.051l0.044-0.08
	l-0.026-0.077l-0.053-0.073l-0.063-0.143l-0.167-0.161l0.056-0.025l0.475-0.026l0.087,0.006l0.079-0.017l0.106-0.067l0.083,0.107
	l0.201,0.034l0.221-0.039l0.141-0.112l0.105,0.08l0.166,0.178l0.125,0.044l0.064-0.006l0.077-0.006l0.152-0.06l0.138-0.09l0.1-0.108
	l0.095-0.16l0.031-0.026l0.059-0.027l0.189-0.144l0.074-0.128l0.021-0.26l0.042-0.109l0.127,0.021l0.126,0.005l0.273-0.019
	l0.127-0.038l0.277-0.13l0.266-0.072l0.118-0.046l0.112-0.021l0.115,0.043l0.047,0.053l0.025,0.053l0.04,0.038l0.089,0.006
	l0.02-0.021l0.093-0.126l0.128,0.024l0.268-0.026l0.108,0.046l0.032-0.045l0.099-0.179v-0.037l0.107,0.014l0.18,0.1l0.104,0.015
	l0.044,0.011l0.017,0.037l0.013,0.044l0.027,0.034l0.049,0.021l0.31,0.068l0.06,0.026l0.175,0.143l0.13,0.06l0.156,0.021
	l0.204-0.012l0.112,0.062l0.025,0.169l-0.037,0.202l-0.067,0.156l0.129,0.114l0.167,0.054l0.174,0.012l0.145-0.009l0.066-0.037
	l0.126-0.151l0.053-0.051l0.087-0.031l0.119-0.023h0.105l0.046,0.032l-0.062,0.164l-0.155,0.108l-0.363,0.158l-0.163,0.149
	l-0.079,0.16l0.054,0.1l0.237-0.03l0.001,0.034l-0.035,0.018l-0.08,0.065l0.122,0.007l0.119-0.067l0.11-0.085l0.201-0.1l0.09-0.101
	l0.073-0.103l0.056-0.059l0.124-0.027l0.235,0.039l0.504,0.021l0.845-0.087l0.454,0.034l0.523-0.039l0.094,0.02l-0.02,0.076
	l-0.079,0.028l-0.292,0.056l-0.064,0.019l-0.13,0.19l-0.054,0.027l-0.068,0.008l-0.071,0.001l-0.063,0.01l-0.264,0.157l-0.092,0.075
	l-0.116,0.039l-0.718,0.144l-0.135,0.007l-0.355-0.021l-0.127,0.017l-0.2,0.076l-0.124,0.028l-0.15,0.017l-0.065,0.025l-0.03,0.064
	l-0.039,0.133l-0.062,0.107l-0.303,0.23l-0.105,0.045l-0.266-0.015l-0.115,0.009l-0.12,0.072l-0.316,0.338l-0.09,0.073l-0.084,0.033
	l-0.231,0.061l-0.542,0.265l-0.229,0.029l-0.124-0.003l-0.111,0.012l-0.079,0.048l-0.021,0.077l-0.007,0.026l0.027,0.09l0.252,0.274
	l0.195,0.277l0.059,0.049l0.001,0.001l0.043,0.037l0.115,0.044l0.124,0.002l0.368-0.068l0.117-0.006l0.055,0.013l0.067,0.035
	l0.049,0.003l0.06,0.021l0.198,0.158l0.094,0.131l0.05,0.165l0.09,0.151l0.211,0.09l0.249-0.012l0.124,0.007l0.055,0.05l0.316,0.194
	l0.215,0.083l0.25,0.047l0.268,0.016l0.271-0.015l0.097-0.025l0.221-0.093l0.112-0.028l0.055-0.047l0.035-0.086l-0.035-0.061
	l-0.158,0.029l0.117-0.179l0.31-0.251l0.149-0.151l-0.07-0.087l0.043-0.108l0.1-0.093l0.099-0.046l0.224-0.029l0.085-0.027
	l0.351-0.185l0.078-0.063l0.047-0.025l0.066-0.011l0.127-0.007l0.062-0.015l0.042-0.022l0.069-0.053l0.745-0.328l0.103-0.03
	l0.121-0.015l0.125,0.007l0.106,0.042l0.061,0.012l0.116-0.048l0.062,0.01l0.047,0.015l0.171,0.016l0.248,0.065l0.518,0.316
	l0.8,0.403l0.638,0.253l0.115,0.064l0.103,0.084l0.043,0.075l0.007,0.083l-0.009,0.25l-0.023,0.078l-0.073,0.038l-0.46,0.06
	l-0.115,0.038l-0.086,0.044l-0.06,0.055l-0.033,0.077l-0.01,0.109l-0.02,0.03l-0.047,0.035l-0.06,0.03l-0.057,0.015l-0.058,0.029
	l-0.032,0.057l-0.02,0.061l-0.02,0.04l-0.11,0.064l-0.095-0.009l-0.087-0.037l-0.089-0.014l-0.092-0.008l-0.096-0.026l-0.154-0.068
	l-0.275-0.167l-0.17-0.054l-0.232,0.01l-0.096,0.031l-0.207,0.091l-0.07,0.021l-0.049,0.053l-0.006,0.056l-0.005,0.056l0.006,0.192
	l-0.066,0.068l-0.028,0.057l0.019,0.053l0.051,0.008l0.149-0.028l0.057,0.011l0.084,0.038l0.563,0.11l0.398,0.079l0.136,0.086
	l0.004,0.098l-0.057,0.249l0.081,0.188l-0.028,0.129l-0.269,0.544l-0.033,0.138l-0.108,0.23v0.06l0.008,0.063l-0.001,0.055
	l-0.05,0.131l-0.218,0.351l0.04,0.031l-0.077,0.164l-0.037,0.052l-0.037,0.023l-0.052,0.02l-0.046,0.022l-0.02,0.037l-0.021,0.092
	l-0.447,0.751l-0.124,0.273l-0.297,0.658l-0.058,0.091l-0.14,0.15l-0.107,0.072l-0.211,0.084l-0.095,0.069l-0.396,0.374l-0.208,0.15
	l-0.205,0.104l-0.288,0.09l-0.121,0.018l-0.118,0.043l-0.068,0.015l-0.029-0.02l-0.009-0.071l-0.022-0.019l-0.036,0.007
	l-0.497,0.046l-0.13,0.025l-0.354,0.125l-0.151-0.003l-0.117-0.002l-0.117,0.026l-0.047,0.102l0.014,0.013l0.09,0.047l0.025,0.028
	l-0.01,0.014l-0.022,0.012l-0.013,0.018l-0.015,0.038l-0.039,0.041l-0.05,0.034l-0.048,0.021l-0.063,0.007l-0.105-0.021
	l-0.047-0.004l-0.602,0.045l-0.286-0.042l-0.565-0.153l-0.123-0.097l-0.029-0.083l-0.066-0.109l-0.145-0.177l-0.178-0.171
	l-0.103-0.075l-0.155-0.041l-0.097-0.081l-0.054-0.028l-0.054-0.003l-0.176,0.025l-0.146,0.006l-0.108-0.015l-0.218-0.083
	l-0.058,0.077l-0.004,0.067l0.034,0.153l-0.029,0.061l-0.089,0.051l-0.044,0.026l-0.028,0.049l-0.09,0.064l-0.554,0.286
	l-0.229,0.171l-0.167,0.235l-0.004,0.038l-0.214,0.288l-0.135,0.252l0.042,0.033l-0.042,0.09l-0.02,0.116v0.007l-0.004,0.216
	l-0.026,0.122l-0.073,0.087l-0.394,0.303l-0.074,0.104l-0.029,0.119l-0.009,0.113l-0.086,0.222l-0.011,0.028l-0.02,0.111l0.03,0.314
	l0.022,0.087l0.053,0.118l0.065,0.109l0.058,0.054l0.193-0.034l0.147-0.148l0.168-0.125l0.253,0.038l0.058,0.038l0.054,0.047
	l0.047,0.051l0.033,0.05l0.041,0.173l0.023,0.042l0.043,0.015h0.063l0.121-0.015l0.018,0.018l-0.067,0.109l-0.005,0.047l0.097,0.035
	l0.109-0.076l0.106-0.106l0.089-0.056l0.137-0.043l0.072-0.081l0.058-0.095l0.085-0.086l0.119-0.046l0.126-0.006l0.117,0.021
	l0.086,0.043l0.024,0.048l-0.019,0.06l-0.127,0.167l-0.079,0.166l-0.057,0.074l-0.169,0.157l-0.09,0.051l-0.054,0.077l-0.028,0.02
	l-0.123,0.011l-0.049,0.013l-0.038,0.023l-0.033,0.081l0.016,0.101l0.05,0.085l0.067,0.033l0.08,0.021l0.042,0.062l0.008,0.078
	l-0.026,0.067l-0.148,0.16l-0.102,0.073l-0.106,0.036l-0.124-0.018l-0.04-0.067l-0.016-0.087l-0.04-0.083l-0.095-0.043l-0.114,0.013
	l-0.094,0.065l-0.038,0.111l-0.058,0.069l-0.141,0.036l-0.154,0.022l-0.104,0.029l-0.044,0.061l0.053,0.048l0.1,0.045l0.107,0.05
	l0.158,0.124l0.069,0.027l0.057-0.01l0.055-0.021l0.069-0.001l0.025,0.019l0.05,0.063l0.019,0.012l0.041-0.009l0.022-0.019
	l0.024-0.013l0.048-0.003l0.1,0.019l0.123,0.067l0.081,0.028l0.083,0.001l0.169-0.021l0.057,0.022l0.029,0.053l-0.016,0.029
	l-0.032,0.028l-0.017,0.051l-0.006,0.006l-0.028,0.116l-0.077,0.047l-0.213,0.091l-0.051,0.055l0.024,0.056l0.068,0.059l0.079,0.046
	l0.058,0.023l0.08-0.002l0.051-0.017l0.044,0.003l0.059,0.064l0.027,0.053l0.015,0.069l-0.003,0.076l-0.033,0.075l-0.068-0.024
	l-0.047,0.02l-0.022,0.033l0.003,0.016l0.015,0.008l0.012,0.02l0.003,0.022l-0.007,0.015l-0.032,0.009l-0.027-0.009l-0.018-0.017
	v-0.01l-0.128,0.016l-0.072-0.017l-0.013-0.058l0.055-0.1l-0.125-0.002l-0.08,0.045l-0.069,0.058l-0.086,0.031l-0.344,0.064
	l-0.093,0.039l-0.075-0.033l-0.11-0.024l-0.12-0.015h-0.099l-0.083,0.058l-0.005,0.118l0.035,0.202l-0.035,0.045l-0.11,0.085
	l-0.04,0.055l0.005,0.218l0.013,0.042l0.057,0.097l0.014,0.058l0.073,0.103l0.373,0.392l0.162,0.115l0.328,0.181l0.102,0.041
	l0.067-0.003l0.021-0.091l-0.033-0.097l0.006-0.069l0.14-0.007l0.077,0.025l0.097,0.048l0.085,0.059l0.047,0.049l-0.193-0.024
	l-0.037,0.005l-0.006,0.054l0.052,0.054l0.072,0.038l0.055,0.012l0.06,0.046l0.154,0.216l0.114,0.05l0.124-0.04l0.109-0.08
	l0.104-0.059l0.105,0.025l0.061,0.039l0.172,0.08l0.046,0.052l0.005,0.053l-0.005,0.053l0.02,0.059l0.148,0.086l0.256,0.053
	l0.475,0.036l0.262-0.008l0.105,0.022l0.322,0.18l0.51,0.137l0.139,0.055l0.081,0.095l0.083,0.046l0.019,0.024l-0.005,0.114
	l-0.011,0.045l-0.095,0.249l-0.225,0.397l-0.115,0.128l-0.436,0.219l-0.468,0.039l-0.438-0.146l-0.354-0.33l-0.091-0.159
	l-0.031-0.037l-0.038-0.019l-0.051-0.008l-0.044,0.012l-0.02,0.043l-0.063,0.058l-0.145-0.001l-0.25-0.042l-0.181,0.019
	l-0.055-0.001l-0.062-0.022l-0.1-0.056l-0.05-0.008l-0.133-0.003l-0.08-0.033l-0.055-0.058l-0.058-0.082l-0.051-0.055l-0.093-0.081
	l-0.089-0.037l-0.078,0.166l-0.097,0.016l-0.204-0.037l-0.24,0.014l-0.125,0.035l-0.055,0.067l-0.064,0.044l-0.145-0.031l-0.247-0.1
	l-0.596-0.377l-0.249-0.105l-0.081-0.053l-0.055-0.052l-0.114-0.135l-0.049-0.146l-0.126-0.174l-0.151-0.371l-0.027-0.118
	l0.048-0.082l-0.048-0.016l-0.025-0.033l0.002-0.041l0.033-0.038l-0.046-0.083l-0.099-0.371l-0.091-0.182l-0.043-0.051l-0.188-0.074
	l-0.08-0.05l0.057-0.03l0.122-0.046l0.063-0.099l0.021-0.12l-0.007-0.115l-0.101-0.466l-0.052-0.062l-0.014-0.052l-0.007-0.115
	l-0.011-0.053l-0.021-0.05l-0.066-0.097l-0.267-0.26l-0.13-0.044l-0.098,0.072l-0.128,0.189l-0.035,0.013l-0.118,0.029l-0.035,0.003
	l-0.029-0.023l-0.062-0.084l-0.008-0.018l-0.024-0.009l-0.029-0.019l-0.039-0.019l-0.058-0.005l-0.063,0.01l-0.114,0.035
	l-0.064,0.004l-0.099-0.027l-0.164-0.097l-0.101-0.014l-0.066-0.017l-0.086-0.047l-0.084-0.058l-0.053-0.055l-0.028-0.07
	l-0.071-0.377l-0.067-0.165v-0.079l0.019-0.023l0.072-0.054l0.023-0.034l0.007-0.049l-0.034-0.286l-0.054-0.08l-0.073-0.057
	l-0.129-0.065l-0.037-0.012l-0.257-0.046l-0.058-0.035l-0.023-0.072l0.009-0.028l0.018-0.028l0.013-0.028l-0.004-0.036l-0.019-0.022
	l-0.059-0.054l-0.03-0.04l-0.063,0.026l-0.196,0.173l-0.063,0.045l-0.055,0.013l-0.021-0.032l-0.019-0.067l-0.005-0.067l0.021-0.032
	l0.005-0.029l0.076-0.129l0.063-0.083l0.017-0.053l-0.007-0.058l-0.033-0.058l0.281-0.031l0.136-0.05l-0.009-0.086l0.02-0.032
	l0.007-0.017l0.025-0.063l0.02-0.032l0.028-0.024l0.12-0.056l-0.057-0.042l-0.052-0.003l-0.056,0.006l-0.063-0.008l-0.05-0.022
	l-0.103-0.066l-0.064,0.066l-0.044-0.062l0.012-0.081l0.094,0.011l0.09-0.406l0.026-0.063l0.049-0.045l0.088-0.047l-0.001-0.033
	l-0.043-0.037l0.015-0.025l0.101-0.048v0.009l0.172-0.075l0.031-0.02l0.076-0.036l0.275-0.23l0.188-0.098l0.233-0.084l0.246-0.063
	l0.668-0.077l0.316-0.104l0.116-0.002l0.063,0.042l0.534,0.474l0.062,0.103l0.02,0.211l0.052,0.083l0.145,0.021l0.001,0.001h0.002
	h0.058l0.107,0.013h0.063l0,0l0.009-0.008l0.023-0.023l0,0l-0.001-0.002l-0.028-0.058l-0.046-0.054l-0.021-0.019l-0.116-0.167
	l-0.596-0.603l-0.024-0.061l-0.024-0.102l-0.057-0.067l-0.152-0.1l-0.101-0.109l-0.078-0.147l-0.052-0.174l-0.018-0.588l-0.04-0.207
	l-0.095-0.158l-0.069-0.044l-0.171-0.061l-0.086-0.053l-0.055-0.016l-0.058,0.024l-0.057,0.039l-0.055,0.022h-0.07l-0.053-0.013
	l-0.089-0.033l-0.025-0.001l-0.058,0.011l-0.024-0.001l-0.023-0.012l-0.029-0.032l-0.027-0.013l-0.117-0.035l-0.06-0.01
	l-0.204,0.007l-0.117-0.008l-0.227-0.057l-0.19-0.084l-0.184-0.124l-0.15-0.156l-0.093-0.182l-0.01-0.125l0.057-0.035l0.087-0.005
	l0.087-0.032v-0.024l0.026-0.118l0.007-0.01l0.006-0.034l0.02-0.044l0.049-0.078l0.181-0.168l0.039-0.059l0.022-0.087l0.002-0.285
	l0.102,0.035l0.111,0.026l0.121,0.01l0.123-0.012l-0.001-0.033l-0.146-0.022l-0.099-0.052l-0.035-0.094l0.045-0.148l-0.038-0.018
	l-0.077-0.072l-0.009-0.017l-0.022-0.064l-0.009-0.016l-0.036,0.001l-0.031,0.016l-0.027,0.019l-0.018,0.008l-0.169-0.003
	l-0.057-0.008l-0.042-0.017l-0.097-0.051l-0.057-0.013l-0.105,0.021l-0.187,0.117l-0.112,0.037l-0.121-0.012l-0.074-0.051
	l-0.064-0.063l-0.09-0.043l-0.104,0.048l-0.119,0.009l-0.244-0.01l-0.467,0.046l-0.244,0.06l-0.121,0.007l-0.105-0.035l-0.053-0.035
	l-0.055-0.045l-0.029-0.054l0.02-0.057l0.036-0.061l-0.002-0.049l-0.017-0.048l-0.006-0.063l0.022-0.092l0.044-0.104l0.06-0.084
	l0.07-0.042l0.039-0.048l0.229-0.412l0.035-0.043l0.158-0.129l0.05-0.082l0.178-0.117l0.053-0.07l-0.006-0.047l-0.074-0.1
	l-0.045-0.103l-0.054-0.079l-0.087-0.044l-0.465,0.009l-0.104,0.03l-0.032,0.021l-0.028,0.027l-0.036,0.022l-0.05,0.013
	l-0.067-0.004l-0.11-0.034l-0.069-0.004l-0.069,0.005l-0.042-0.006l-0.032-0.023l-0.047-0.041l-0.011-0.047l0.05-0.048L1421,223.5
	l0.211-0.167l0.08-0.105l0.029-0.116l0.006-0.321l0.048-0.218l0.003-0.105l-0.029-0.101l-0.178-0.25l-0.058-0.042l-0.125-0.026
	l-0.192-0.01l-0.574,0.056l-0.094,0.023l-0.06,0.036l-0.049,0.04l-0.067,0.033l-0.048,0.009l-0.099,0.004l-0.047,0.008l-0.052,0.021
	l-0.103,0.054l-0.138,0.044l-0.171,0.113l-0.158,0.048l-0.042,0.025l-0.031,0.027l-0.021,0.012l-0.169,0.019l-0.029,0.008
	l-0.077,0.023l-0.304,0.139l-0.054,0.018l-0.108,0.024l-0.725,0.257l-0.099,0.017l-0.098-0.004l-0.089-0.023l-0.436-0.192
	l-0.055-0.013l0.073-0.065l0.083-0.093l0.067-0.098l0.042-0.167l0.073-0.148l0.009-0.1l0.129,0.009l0.152-0.056l0.154-0.075
	l0.137-0.043l0.096-0.059L1417.913,221.844z M1416.536,219.549l0.042-0.057l0.067-0.069l0.062-0.047l0.085-0.039l0.073,0.001
	l0.051,0.106l0.076,0.073l0.028,0.038l0.012,0.049l-0.006,0.132l-0.07,0.199l0.003,0.063l0.109-0.046l-0.061,0.079l-0.08,0.082
	l-0.182,0.144l-0.023,0.005l-0.023-0.007l-0.027-0.003l-0.037,0.018l-0.017,0.031l0.002,0.038l-0.007,0.038l-0.047,0.038
	l0.003-0.069l-0.008-0.063l-0.027-0.054l-0.053-0.042l-0.024,0.058l-0.039,0.074l-0.058,0.051l-0.074-0.009l-0.534-0.24
	l-0.051-0.013l-0.05,0.006l-0.046,0.019l-0.049,0.008l-0.056-0.027l-0.078-0.085l0.017-0.047l0.527-0.285l0.29-0.089l0.058-0.006
	l0.059,0.017l0.076,0.067l0.055,0.029l0.01-0.096L1416.536,219.549z M1415.235,227.171l0.091,0.045l0.081-0.006l0.077-0.019
	l0.043,0.039l-0.02,0.066l0.025,0.068l0.093,0.044l0.045,0.043l-0.04,0.056l-0.055,0.025l-0.044,0.004l-0.061,0.019l-0.071,0.012
	l-0.03-0.026l0.013-0.04l-0.008-0.031l-0.033-0.02l-0.025-0.021l0.003-0.028l-0.011-0.046l-0.05-0.057l-0.031-0.028l-0.017-0.03
	l-0.015-0.063L1415.235,227.171z M1415.218,228.418l0.217-0.052l-0.05-0.048l-0.134-0.063l-0.046-0.065l0.072-0.023l0.099-0.047
	l0.068-0.06l-0.021-0.055l0.21-0.241l0.036-0.069l-0.014-0.145l0.02-0.051l0.06-0.094l0.074-0.149l0.053-0.059l0.134,0.009
	l0.098-0.01l0.048,0.011l-0.081,0.067l0.103,0.002l0.084-0.007l0.048,0.002l0.099,0.031l0.07-0.082l0.097-0.068l0.086-0.014
	l0.042,0.09l0.051,0.07l0.11-0.109l0.199-0.282l0.285,0.095l0.066,0.006l0.03,0.051v0.119l-0.015,0.126l-0.021,0.073l-0.044,0.021
	l-0.057,0.003l-0.042,0.019l-0.005,0.071l0.031,0.031l0.177,0.131l0.027,0.044l0.025,0.059l0.036,0.048l0.067,0.016l0.071-0.002
	l0.06,0.003l0.054,0.018l0.056,0.028l0.122,0.129l0.104,0.199l0.071,0.209l0.021,0.163l-0.006,0.19l0.079,0.751l-0.102,0.629
	l-0.072,0.226l-0.066,0.106l-0.089,0.05l-0.117-0.007l-0.11-0.02l-0.094,0.003l-0.068,0.059l-0.014,0.09l0.008,0.098l-0.018,0.082
	l-0.095,0.041l-0.126,0.001l-0.116-0.018l-0.219-0.074l-0.079-0.056l-0.164-0.152l-0.081-0.027l-0.069-0.008l-0.013-0.035
	l0.025-0.069l-0.02-0.044l-0.043-0.022l-0.049-0.014l-0.039-0.023l-0.066-0.151l-0.065-0.216l-0.1-0.189l-0.177-0.07l-0.11,0.003
	l-0.087-0.018l-0.058-0.049l-0.039-0.138l-0.036,0.003l-0.047,0.016l-0.048-0.008l-0.037-0.034l-0.047-0.059l-0.029-0.027
	l-0.114-0.065l-0.035-0.038l-0.04-0.081l-0.046-0.18l-0.005-0.197l-0.063-0.322L1415.218,228.418z M1416.294,223.739l0.03,0.027
	l-0.011,0.056l-0.027,0.035l-0.034,0.015l-0.039,0.01l-0.044,0.022l-0.146,0.131l-0.323,0.217l-0.102,0.176l-0.076,0.101
	l-0.085,0.048l-0.229,0.08l-0.117,0.019l-0.075-0.055l-0.005-0.056l0.028-0.048l0.077-0.091l0.079-0.208l0.043-0.066l0.091-0.059
	l0.362-0.107l0.065-0.053l0.075-0.077l0.09-0.069l0.112-0.04l0.177-0.072l0.024,0.003l0.021,0.039L1416.294,223.739z
	 M1413.667,222.104l0.19-0.015l0.369,0.051l0.136,0.002l0.048,0.011l-0.014,0.019l-0.004,0.041l0.022,0.034l0.071-0.003l0.045-0.044
	l0.059-0.076l0.07-0.046l0.082,0.04l0.035-0.037l0.036,0.051l0.054-0.02l0.037-0.062l-0.02-0.08l0.148,0.022l0.092-0.006
	l0.073-0.034l0.104-0.091l0.064-0.038l0.066-0.016l0.068,0.01l0.086,0.022l0.074,0.031l0.032,0.029l0.036-0.02l0.215-0.062
	l0.09,0.046l0.086-0.053l0.081-0.09l0.077-0.069l0.092-0.021l0.074,0.028l0.038,0.069l-0.014,0.104l-0.061,0.08l-0.079,0.022
	l-0.091,0.005l-0.097,0.029l-0.042,0.05l-0.04,0.141l-0.061,0.057v-0.049l-0.002-0.014l-0.029,0.044l-0.024,0.021l-0.025-0.002
	l-0.03-0.021l-0.033,0.003l0.008,0.118l-0.088,0.057l-0.131,0.004l-0.119-0.043l0.044-0.028l0.02-0.036l-0.018-0.028l-0.067-0.006
	l-0.027,0.016l-0.084,0.073l-0.051,0.028l0.001,0.037l0.067,0.016l0.006,0.032l-0.021,0.044l-0.013,0.052l0.027,0.028l0.054,0.029
	l0.045,0.044l-0.007,0.071l-0.055,0.042l-0.073,0.009l-0.063,0.019l-0.024,0.069l-0.027,0.012l-0.139,0.012l-0.054,0.016
	l-0.039-0.07l-0.098-0.032l-0.114,0.004l-0.087,0.035l-0.02-0.036l0.002-0.035l0.02-0.034l0.033-0.035l-0.083,0.025l-0.073,0.041
	l-0.068,0.016l-0.069-0.05l-0.014,0.026l-0.015,0.012l-0.02,0.011l-0.025,0.027l-0.083-0.013l-0.095,0.05l-0.08,0.018l-0.037-0.109
	l-0.013-0.059l-0.031-0.02l-0.124,0.013l-0.038,0.015l-0.025,0.02l-0.025,0.006l-0.042-0.025l-0.014-0.025l-0.003-0.033l0.011-0.029
	l0.062-0.036l0.011-0.041l-0.011-0.042l-0.023-0.032l-0.055-0.016l-0.206,0.01l-0.131-0.02l-0.055-0.021l-0.037-0.035l-0.01-0.058
	l0.027-0.04l0.123-0.083L1413.667,222.104z M1413.582,249.357l0.037-0.001l0.048-0.015l0.046,0.04l0.019,0.074l-0.037,0.087
	l0.035,0.002l0.024,0.009l0.021,0.011l0.027,0.008l-0.172,0.121l-0.041,0.05l0.104-0.02l0.105-0.033l0.1-0.018l0.088,0.021
	l0.011,0.038l-0.009,0.055l0.005,0.047l0.05,0.019l0.031,0.016l0.016,0.04l0.009,0.085l0.023,0.069l0.042,0.063l0.014,0.071
	l-0.056,0.087l-0.081,0.041l-0.112,0.019l-0.221,0.01l0.025,0.056l-0.016,0.043l-0.03,0.023l-0.016-0.006l-0.164-0.188l-0.063-0.044
	l-0.219-0.101l-0.06-0.039l-0.025-0.026l-0.014-0.028l0.007-0.046l0.093-0.152l0.063-0.142l0.045-0.144l0.042-0.115l0.076-0.126
	l0.079-0.057L1413.582,249.357z M1412.671,228.521l0.217,0.354l-0.071,0.084l-0.069-0.014l-0.079-0.053l-0.092-0.024h-0.074
	l-0.082-0.012l-0.078-0.021l-0.063-0.032l-0.044-0.06l0.005-0.07l0.037-0.07l0.06-0.057l0.062-0.032l0.066-0.022l0.137-0.021
	L1412.671,228.521z M1412.581,227.903l0.063,0.217l-0.082,0.264l-0.189,0.021l-0.161-0.115l-0.006-0.145l0.103-0.192l0.144-0.094
	L1412.581,227.903z M1413.139,236.419l0.424,0.131l0.19,0.094l0.144,0.132l0.064,0.183l-0.146-0.037l0.006,0.05l0.068,0.074
	l0.043,0.031l0.016,0.026l0.076,0.078l0.017,0.051l-0.02,0.031l-0.047,0.023l-0.112,0.042l-0.023,0.005l-0.063-0.003l-0.022,0.006
	l-0.015,0.025l-0.013,0.061l-0.007,0.016l-0.013,0.02l-0.05,0.047l-0.055,0.021l-0.026-0.059v-0.057l-0.007-0.046l-0.028-0.03
	l-0.061-0.007l-0.041-0.012l-0.042-0.076l-0.045-0.033l-0.02,0.09l-0.089,0.043l-0.111,0.002l-0.087-0.032l-0.078-0.047
	l-0.164-0.064l-0.07-0.044l-0.045-0.073l-0.021-0.084l-0.039-0.067l-0.202-0.035l-0.074-0.046l-0.063-0.06l-0.075-0.05l0.11-0.149
	l0.028-0.057l0.211-0.145l0.286-0.018L1413.139,236.419z M1411.836,221.938l0.009-0.077l-0.015-0.154l0.028-0.069l0.076-0.057
	l0.06,0.018l0.041,0.06l0.016,0.073l0.005,0.088l-0.005,0.052l-0.026,0.041l-0.061,0.061l-0.036,0.053l-0.08,0.189l-0.06,0.098
	l-0.138,0.039l-0.141-0.024l-0.071-0.098l0.048-0.113l0.261-0.09L1411.836,221.938z M1412.073,244.257l0.033,0.116l-0.009,0.13
	l-0.073,0.085l-0.16-0.025l-0.032-0.031l-0.112-0.157l-0.095-0.084l-0.009-0.035l0.077-0.011l0.116-0.007l0.168,0.054
	L1412.073,244.257z M1410.995,233.978l0.016-0.035l-0.008-0.088l0.004-0.025l0.037-0.056l0.08-0.092l0.024-0.06l-0.008-0.057
	l-0.063-0.116l-0.009-0.051l0.034-0.067l0.042,0.007l0.049,0.025l0.054-0.01l0.031-0.046l-0.023-0.034l-0.046-0.033l-0.039-0.046
	l-0.016-0.068l0.007-0.054l0.02-0.05l0.041-0.173l0.039-0.096l0.077-0.069l0.207-0.05l0.048-0.028l0.098-0.076l0.009-0.015v-0.017
	l0.003-0.019l0.02-0.018l0.028-0.007l0.245,0.001l0.103,0.035l0.21,0.116l0.215,0.061l0.702,0.089l0.121,0.047l0.487,0.361
	l0.084,0.041l0.156,0.052l0.239,0.081l0.114,0.004l0.351-0.023l0.107,0.015l0.335,0.119l0.125,0.009l0.128-0.006l0.106,0.006
	l0.097,0.022l0.364,0.191l0.132,0.031l0.04,0.031l0.031,0.032l0.027,0.014l0.242,0.045l0.169,0.124l0.099,0.058l0.121,0.016
	l0.919-0.142l0.129,0.018h0.055l0.079,0.009l0.005,0.035l-0.013,0.045l0.025,0.035l0.141-0.007l0.148-0.215l0.146,0.021
	l-0.111,0.055l0.057,0.079l0.114,0.031l0.06-0.091l0.018-0.135l0.056-0.048l0.091-0.015l0.122-0.039l0.075-0.075l0.068-0.107
	l0.082-0.098l0.244-0.098l0.099-0.094l0.091-0.106l0.103-0.086l0.218-0.054l0.249,0.031l0.229,0.073l0.433,0.232l0.089,0.016
	l0.069,0.036l0.237,0.316l0.021,0.063l0.005,0.174l0.012,0.058l0.051,0.093l0.025,0.105l0.054,0.07l0.012,0.044l-0.068,0.214
	l-0.172,0.174l-0.216,0.134l-0.534,0.242l-0.361,0.057l-0.096,0.039l-0.089,0.062l-0.131,0.128l-0.06,0.087l-0.024,0.083
	l-0.009,0.32l-0.021,0.1l-0.12,0.223l-0.018,0.069l-0.019,0.047l-0.044,0.042l-0.05,0.037l-0.035,0.034l-0.016,0.061l-0.002,0.066
	l-0.016,0.052l-0.026,0.013l-0.07,0.036l-0.129,0.109L1419,236.78l-0.25,0.125l-0.056,0.071l-0.02,0.054l-0.05,0.045l-0.33,0.169
	l-0.074,0.051l-0.05-0.031l-0.045,0.018l-0.091,0.093l0.023,0.024l0.03,0.046l0.025,0.022l-0.077-0.003l-0.141-0.017l-0.08,0.007
	l0.02,0.027l0.04,0.074l0.021,0.028l-0.212,0.011l-0.197-0.014l-0.176,0.012l-0.149,0.081l-0.033,0.002l-0.058-0.047l-0.369-0.155
	l-0.238-0.065l-0.047-0.06l-0.017-0.098l-0.06-0.2l-0.005-0.108l0.06-0.32l0.041-0.084l-0.05-0.063l-0.063-0.24l-0.062-0.095
	l-0.304-0.234l-0.091-0.113l0.058-0.099l-0.051-0.082l-0.181-0.12l-0.096-0.022l-0.132,0.026l-0.225,0.082l-0.225,0.053
	l-0.653-0.016l-0.232,0.066l-0.409,0.212l-0.225,0.052l-0.096-0.036l-0.047-0.085l-0.028-0.087l-0.034-0.037l-0.051-0.021
	l-0.193-0.156l-0.274-0.089l-0.051,0.001l-0.336-0.15l-0.113-0.011l-0.335,0.047l-0.026,0.018l-0.055,0.074l-0.028,0.018
	l-0.107,0.001l-0.043-0.006l-0.046-0.015l-0.065-0.034l-0.163-0.119l-0.032-0.039l-0.018-0.215l-0.024-0.091l-0.04-0.092
	l-0.28-0.369l-0.108-0.198l0.003-0.22l0.02-0.014l0.035-0.016L1410.995,233.978z M1411.124,251.088h0.075l0.001,0.032l-0.021,0.027
	l0.004,0.031l0.022,0.035l0.033,0.038l-0.085,0.025l-0.052,0.058l-0.033,0.057l-0.023,0.027l-0.199,0.023l-0.072-0.011l0.083-0.194
	l0.059-0.058l0.063-0.039l0.071-0.031L1411.124,251.088z M1410.332,251.202l0.046,0.02l0.086,0.08l0.079,0.092l0.017,0.027
	l-0.028,0.064l-0.066,0.017l-0.071-0.009l-0.044-0.013l0.004-0.012l-0.044-0.081l-0.022-0.02l-0.023-0.011l-0.018-0.018l-0.01-0.041
	l0.052-0.074L1410.332,251.202z M1410.36,230.554l0.02-0.048l0.037-0.02l0.035-0.011l0.016-0.017l-0.009-0.095l-0.014-0.041
	l-0.022-0.041l0.108,0.005l0.31-0.076l0.116-0.001l0.168,0.015l0.092-0.016l0.125-0.068l0.058-0.013l0.054,0.012l0.123,0.057
	l0.059,0.01l0.131,0.005l0.213,0.063l0.117,0.018l0.206-0.034l0.427-0.167l0.197-0.038l0.003,0.015l0.02,0.032l0.027,0.033
	l0.024,0.015l0.027-0.005l0.015-0.03l0.03-0.007l0.417-0.032l0.093,0.011l0.338,0.095l0.049-0.006l0.074-0.048l0.045,0.015
	l0.083,0.099l-0.062,0.017l-0.036,0.026l-0.006,0.031l0.033,0.029l0.048,0.006l0.189-0.028l0.02,0.056l0.16,0.25l0.068,0.073
	l0.185,0.085l0.034,0.052l0.012,0.121l0.024,0.112l0.057,0.065l0.146,0.083l0.236,0.239l0.084,0.031l0.111-0.002l0.081,0.018
	l0.063,0.037l0.057,0.054l0.026,0.037l0.025,0.057l0.029,0.029l0.03,0.019l0.043,0.017l0.048,0.013l0.043,0.003l0.421-0.037
	l0.283,0.035l0.108-0.001l0.045,0.018l0.026,0.042l0.021,0.044l0.02,0.019l1.161,0.346l0.207,0.011l0.266,0.05l0.098,0.035
	l0.052,0.036l0.062,0.081l0.037,0.038l0.063,0.037l0.121,0.054l0.342,0.228l0.055,0.049l0.051,0.074l-0.005,0.072l-0.113,0.041
	l-0.304,0.06l-0.119,0.01l-1.5-0.12l-0.505-0.149l-0.104-0.011l-0.132,0.004l-0.026,0.023l-0.049,0.095l-0.03,0.023l-0.166-0.004
	l-0.037-0.011l-0.023-0.038l0.019-0.029l0.028-0.02l0.007-0.016l-0.038-0.018l-0.044-0.005l-0.118,0.009l-0.139-0.013l-0.096-0.055
	l-0.157-0.162l-0.211-0.156l-0.125-0.054l-0.242-0.037l-0.349-0.201l-0.339-0.045l-0.084-0.034l-0.095-0.074l-0.604-0.352
	l-0.083-0.015l-0.026-0.008l-0.026-0.021l-0.038-0.019l-0.055-0.005l-0.171,0.049l-0.063,0.001l-0.109-0.039l-0.163-0.106
	l-0.218-0.032l-0.12-0.05l-0.112-0.062l-0.227-0.166l-0.148-0.072l-0.998-0.228l-0.165-0.075l-0.122,0.033l-0.183,0.076
	l-0.093-0.022l-0.07-0.046l-0.079-0.037l-0.125,0.008l-0.002-0.033l0.04-0.02l0.024-0.022l0.041-0.067l-0.278,0.083l-0.06,0.032
	l-0.077,0.022l-0.102-0.023l-0.099-0.043l-0.344-0.201l-0.103-0.12l0.038-0.142l0.037,0.005l0.151,0.008l0.15,0.046l0.104,0.012
	h0.193l0.1,0.02l0.191,0.129L1410.36,230.554z M1410.063,231.772l0.013,0.018l-0.079,0.064l-0.33,0.148l-0.122,0.029l-0.059-0.012
	l-0.063-0.029l-0.105-0.072l-0.047-0.058l0.014-0.043l0.055-0.035l0.415-0.172l0.102-0.064l0.072-0.057l0.054-0.036l0.036,0.011
	L1410.063,231.772z M1409.516,251.752l0.049-0.033l0.034-0.045l-0.022-0.011l-0.024-0.027l-0.024-0.021l0.186-0.078l0.207-0.019
	l0.216,0.028l0.216,0.062l0.215,0.109l0.109,0.014l0.121-0.063l0.112-0.123l0.068-0.042l0.228-0.061l0.042,0.007l0.034,0.052
	l-0.06,0.101l-0.024,0.068l0.03,0.03l0.148,0.044l0.066,0.007l0.064-0.009l0.112-0.026l0.059-0.007l0.051,0.004l0.104,0.019h0.062
	l0.052-0.015l0.082-0.044l0.112-0.021l0.053-0.024l0.04-0.038l0.016-0.051l-0.012-0.059l-0.024-0.036l-0.026-0.024l-0.015-0.023
	l-0.015-0.056l-0.006-0.019l-0.014-0.02l0.066-0.046l0.07,0.002l0.071,0.021l0.063,0.011l0.162-0.04l0.196-0.009l0.106,0.012
	l0.077,0.025l0.053-0.004l0.033-0.074l-0.013-0.098l-0.042-0.065l0.002-0.058l0.12-0.076l-0.015,0.045l-0.005,0.041l0.005,0.038
	l0.018,0.037l0.042-0.027l0.032-0.014l0.031-0.003l0.037,0.005l0.065-0.067l0.217-0.047l0.097-0.047l0.102-0.204l0.073-0.057
	l0.127,0.066l0.021,0.036l0.029,0.11l0.027,0.047l0.164,0.089l0.027,0.038l0.213,0.208l0.132,0.076l0.038,0.059l0.015,0.099
	l0.003,0.195l-0.008,0.057l-0.028,0.078l-0.001,0.046l0.029,0.063l0.1,0.14l0.023,0.096l0.035,0.092l0.083,0.103l0.361,0.314
	l0.21,0.126l0.228,0.086l0.506,0.057l0.15,0.109l0.082,0.171l0.068,0.215l0.024,0.051l0.064,0.092l0.025,0.049l0.008,0.053
	l-0.012,0.116l0.007,0.055l0.023,0.045l0.063,0.093l0.024,0.051l0.017,0.052l0.02,0.101l0.016,0.229l0.038,0.132l0.069,0.121
	l0.108,0.136l-0.032,0.109l0.062,0.104l0.114,0.077l0.136,0.026l0.167-0.025l0.223-0.109l0.136-0.048l0.289,0.022l0.03,0.061
	l-0.021,0.076l-0.056,0.066l-0.076,0.03l-0.096-0.016l-0.024,0.021l-0.009,0.08l0.035,0.056l0.083-0.008l0.095-0.02l0.079,0.013
	l0.03-0.054l0.042-0.033l0.052-0.008l0.062,0.02l-0.024-0.125l0.071-0.076l0.084,0.006l0.015,0.125l0.078-0.011l0.104,0.027
	l0.1,0.043l0.068,0.043l0.046,0.024l0.042,0.006l0.03,0.015l0.021,0.098l0.023,0.026l0.667,0.342l0.187,0.159l0.057,0.024
	l0.099,0.019l0.101,0.048l0.273,0.175l0.027,0.025l0.132,0.173l0.016,0.045l0.046,0.069l0.287,0.23l0.147,0.07l0.055,0.051
	l0.021,0.085l0.002,0.195l0.017,0.05l0.074,0.107l0.025,0.052l0.015,0.292l0.042,0.084l0.029,0.036l0.066,0.125l0.022,0.023
	l0.164,0.02l0.146,0.061l0.024,0.004l0.061-0.008l0.024,0.001l0.009,0.019l-0.001,0.033l0.01,0.032l0.042,0.013l0.101,0.012
	l0.126,0.039l0.239,0.099l0.352,0.204l0.057,0.061l0.261,0.425l0.302,0.329l0.391,0.307l0.07,0.086l0.028,0.107l0.013,0.104
	l0.031,0.063l0.037,0.057l0.033,0.088l0.008,0.099l-0.039,0.279l0.055,0.11l0.123,0.036l0.228-0.009l0.114,0.036l0.196,0.125
	l0.12,0.025l0.059,0.02l0.034,0.045l0.007,0.046l-0.022,0.022l-0.052,0.025l-0.004,0.058l0.153,0.445l0.083,0.162l0.107,0.125
	l0.031,0.016l0.091,0.035l0.027,0.015l0.056,0.165l0.092,0.028l0.077,0.068l0.109,0.127l0.158,0.114l-0.019,0.035l-0.154,0.016
	l-0.063-0.009l-0.108-0.042l-0.113-0.022l-0.046-0.031l-0.034-0.033l-0.026-0.019l-0.055-0.003l-0.114,0.009h-0.083l-0.058,0.004
	l-0.028-0.002l-0.028-0.014l-0.033-0.042l-0.132-0.022l-0.106-0.042l-0.186-0.099l-0.007,0.011l-0.106,0.021l0.026-0.078
	l-0.083-0.031l-0.111-0.02l-0.057-0.045l-0.027-0.052l-0.068-0.07l-0.085-0.069l-0.081-0.05l0.002,0.066l-0.178-0.094l-0.084-0.077
	l-0.067-0.199l-0.077-0.083l-0.098-0.069l-0.59-0.317l-0.141-0.111l-0.361-0.369l-0.157-0.08l-0.12-0.033l-0.081-0.035l-0.047-0.062
	l-0.016-0.111l-0.056-0.058l-0.012-0.038l0.049-0.018l0.035-0.021l0.01-0.046l-0.01-0.053l-0.02-0.044l-0.047-0.055l-0.046-0.028
	l-0.183-0.055l-0.012-0.009l-0.027-0.025l-0.04-0.016l-0.04,0.01l-0.049,0.027l-0.064-0.059l-0.135-0.187l-0.027-0.063l-0.058-0.077
	l-0.254-0.105l-0.058-0.068l0.026-0.195l-0.008-0.102l-0.055-0.109l0.062,0.005l0.052-0.008l0.04-0.024l0.029-0.043l-0.055-0.061
	l-0.058-0.044l-0.15-0.085l-0.054-0.044l-0.252-0.338l-0.028-0.031l-0.047-0.006l-0.114,0.023l-0.062-0.01l-0.065-0.068
	l-0.062-0.109l-0.075-0.1l-0.303-0.102l-0.226-0.283l-0.189-0.091l-0.132-0.131L1418.84,257l-0.027-0.009l-0.027-0.021l-0.035-0.021
	l-0.057-0.008l-0.119,0.008l-0.052-0.016l-0.069-0.05l0.021-0.056l-0.02-0.049l-0.079-0.087l-0.02-0.034l-0.009-0.032l-0.016-0.023
	l-0.092-0.015l-0.016-0.025l-0.007-0.032l-0.023-0.03l-0.051-0.037l-0.317-0.367l-0.058-0.032l-0.146-0.046l-0.243-0.216
	l-0.089-0.047l-0.061-0.006l-0.082-0.021l-0.086-0.032l-0.259-0.165l-0.05-0.049l-0.115,0.058l-0.083-0.078l-0.132-0.226
	l-0.053-0.029l-0.399-0.15l-0.054-0.035l0.168-0.03l0.085-0.003l0.037,0.04l0.036,0.021l0.068-0.081l0.037-0.104l-0.055-0.049
	l-0.043-0.011l-0.036-0.03l-0.028-0.031l-0.024-0.019l-0.063-0.023l-0.023-0.004l-0.014,0.011l-0.181,0.096l-0.08,0.029
	l-0.108,0.006l-0.087-0.016l-0.031-0.03l0.009-0.098l-0.018-0.057l-0.076-0.093l-0.019-0.074l0.026-0.129l-0.009-0.072l-0.057-0.074
	l-0.081-0.037l-0.091-0.005l-0.088,0.02l-0.069,0.036l-0.014-0.032l-0.011-0.013l0.002-0.016l0.021-0.036l-0.054-0.041l-0.043-0.064
	l-0.032-0.075l-0.02-0.071l-0.082,0.018l-0.072-0.036l-0.057-0.017l-0.04,0.077l0.02,0.045l0.04,0.057l0.012,0.055l-0.069,0.04
	l-0.057-0.013l-0.081-0.044l-0.075-0.054l-0.042-0.044l-0.012-0.074l0.014-0.079l0.031-0.073l0.035-0.062l-0.07-0.031l-0.057,0.002
	l-0.04-0.023l-0.015-0.105l-0.069,0.036l-0.036,0.044l-0.037,0.031l-0.073-0.002l-0.034-0.025l-0.041-0.093l-0.039-0.042
	l0.058,0.007l0.024,0.005l0.03,0.016l0.065-0.028l0.313-0.052l0.035-0.039l-0.056-0.082l-0.146-0.13l-0.119-0.043l-0.029-0.015
	l-0.02-0.033l-0.014-0.043l-0.021-0.037l-0.115-0.042l-0.048-0.159l-0.076-0.063l-0.06,0.048l-0.06,0.063l-0.062,0.042l-0.068-0.014
	l0.038-0.09l-0.051-0.098l-0.09-0.083l-0.083-0.044l-0.703-0.09l-0.066,0.017l-0.078,0.062l-0.033,0.021l-0.042,0.019l-0.037,0.024
	l-0.015,0.038l0.015,0.032l0.059,0.046l0.001,0.033l-0.051,0.053l-0.068,0.02l-0.147,0.002l-0.072,0.027l-0.056,0.062l-0.039,0.076
	l-0.028,0.069l-0.193-0.129l-0.021-0.021l-0.058,0.041l-0.031,0.062l-0.04,0.038l-0.087-0.036l-0.047,0.071l-0.05-0.042l0.006-0.072
	l0.125-0.022v-0.032l-0.021-0.005l-0.051-0.023l0.04-0.021l0.022-0.022l-0.001-0.026l-0.026-0.029l-0.002-0.032l0.064,0.016
	l0.017,0.011l0.024,0.033l0.145-0.071l0.002,0.097l0.052-0.035l0.018-0.049l-0.009-0.057l-0.027-0.056l0.11,0.028l0.052-0.021
	l0.041-0.052l0.082-0.063l-0.001-0.03l-0.04,0.002v-0.035l0.105-0.027l0.049-0.08l0.039-0.087l0.077-0.042l0.055-0.019l0.03-0.034
	l0.005-0.034l-0.045-0.029l0.038-0.037l0.053-0.036l0.063-0.032l0.04-0.009l0.027-0.021v-0.055l-0.028-0.049l-0.045-0.007
	l-0.048,0.019l-0.042,0.029l-0.162,0.074l-0.034,0.031l-0.077-0.018l-0.075-0.036l-0.031-0.019l-0.055,0.035l-0.056,0.072
	l-0.045,0.081l-0.018,0.063v0.08l-0.016,0.084l-0.051,0.072l-0.107,0.044l-0.05-0.006l-0.104-0.044l-0.026-0.006l-0.011,0.042
	l0.012,0.065l-0.002,0.061l-0.049,0.029l-0.304,0.009l-0.075-0.024l-0.04,0.002v-0.035l0.059-0.011l0.039-0.027l0.018-0.04
	l-0.003-0.056l-0.118,0.042l-0.211,0.128l-0.136,0.014l-0.065-0.041l0.069-0.063l0.112-0.074l0.059-0.071l0.01-0.048l0.019-0.046
	l0.004-0.042l-0.035-0.042l-0.062-0.013l-0.146,0.007l-0.14-0.057l-0.061,0.031l-0.032,0.043l0.007,0.008l-0.104,0.083l-0.063,0.034
	l-0.079,0.022l0.005-0.06l-0.06-0.056l-0.086-0.044l-0.077-0.021l-0.114,0.008l-0.249,0.047l-0.083-0.019l-0.026-0.021l-0.022-0.015
	l-0.024-0.006l-0.034-0.002l-0.021-0.012l0.001-0.029l0.015-0.025l0.022,0.001l-0.086-0.07l-0.058-0.036l-0.056-0.015l-0.145-0.006
	l-0.074-0.016l-0.055-0.029l-0.014-0.05l0.053-0.036l0.079-0.021l0.063-0.011l0.093-0.004l0.03-0.005l0.058-0.018L1409.516,251.752z
	 M1408.76,250.136l0.204,0.02l0.188,0.067l0.139,0.09l-0.047,0.052l-0.063,0.01l-0.07-0.019l-0.068-0.031v0.057l-0.026,0.079
	l-0.006,0.042l0.065,0.025l0.048,0.031l0.027,0.052l-0.022,0.004l-0.048,0.033l-0.046,0.042l-0.021,0.037l-0.022,0.053l-0.099,0.032
	l-0.019,0.066l-0.093-0.053l0.046-0.062l0.093-0.069l0.053-0.077l-0.038-0.045l-0.089-0.011l-0.154,0.003l0.049-0.038l0.087-0.051
	l0.038-0.046l-0.05-0.023l-0.013-0.026l0.018-0.026l0.044-0.021l-0.081-0.03l-0.077-0.016l-0.063,0.016l-0.029,0.074l-0.037-0.051
	l-0.028-0.051l-0.004-0.046l0.03-0.042L1408.76,250.136z M1408.348,228.626l0.317-0.208l-0.223,0.005l-0.101-0.019l0.012-0.066
	l0.111-0.156l0.063-0.062l0.323-0.148l0.139-0.131l0.072-0.178l0.002-0.23l-0.054-0.163l-0.094-0.139l-0.234-0.215l-0.285-0.156
	l-0.047-0.057l0.009-0.044l0.044-0.101l0.009-0.059l-0.011-0.017l-0.048,0.007l-0.012-0.016l0.01-0.031l0.023-0.017l0.022-0.008
	h0.012l-0.012-0.121l0.006-0.041l0.029-0.051l0.092-0.113l0.019-0.033l0.055-0.043l0.123-0.003l0.125,0.019l0.086,0.036l0.063-0.001
	l0.063-0.012l0.027-0.017l0.009-0.015l0.053-0.014l0.023-0.013l0.023-0.028l0.009-0.015l0.007-0.017l0.016-0.028l0.021-0.059
	l0.001-0.042l0.021-0.029l0.128-0.032l-0.004-0.023l-0.041-0.017l-0.063-0.003l-0.001-0.035l0.162-0.021h0.053l0.05,0.009
	l0.085,0.036l0.032,0.005l0.061-0.016l0.102-0.059l0.049-0.016l0.169-0.008l0.487-0.12l0.224-0.017l0.66,0.125l0.252,0.007
	l0.226-0.061l0.06-0.07l0.139-0.305l0.035-0.123l0.021-0.042l0.041-0.022l0.155-0.047l0.238-0.215l0.044-0.027l0.04-0.099
	l0.108-0.02l0.269,0.023l0.068-0.017l0.116-0.058l0.069-0.018l0.199-0.009l0.074-0.019l0.075-0.042l0.105-0.075l0.061-0.07
	l-0.063-0.03v-0.034l0.077-0.069l0.079-0.044l0.097-0.032l0.143-0.028l0.121-0.022h0.12l0.093,0.055l0.041,0.145l-0.135,0.353
	l0.02,0.088l0.112,0.021l0.156-0.03l0.146-0.05l0.083-0.042l-0.06,0.17l-0.164,0.156l-0.2,0.116l-0.171,0.053l-0.105,0.083
	l-0.019,0.01l-0.028,0.02l-0.19,0.019l-0.058,0.063l-0.037,0.099l0.012,0.092l0.093,0.045l0.154-0.081l0.723-0.107l0.336-0.151
	l0.224-0.054l0.239-0.081l0.107-0.009l0.049,0.044l-0.028,0.082l-0.213,0.281l-0.028,0.017l-0.071,0.032l-0.028,0.062l-0.009,0.068
	l-0.017,0.053l-0.082,0.084l-0.068,0.047l-0.046,0.057l-0.013,0.114v0.216l-0.018,0.099l-0.044,0.075l-0.18,0.089l-0.211-0.009
	l-0.217-0.044l-0.2-0.021l-0.123,0.021l-0.143,0.05l-0.119,0.078l-0.046,0.107l-0.056,0.059l-0.131,0.028l-0.147,0.008l-0.246-0.01
	l-0.041-0.007l-0.046-0.02l-0.086-0.057l-0.035-0.008l-0.24,0.018l-0.106-0.007l-0.332-0.091l-0.102-0.003l-0.246,0.027
	l-0.509,0.155l-0.05,0.03l-0.156,0.186l-0.034,0.03l-0.096,0.03l-0.1,0.06l-0.175,0.143l-0.158,0.216l-0.034,0.036l-0.087,0.038
	l-0.039,0.075l-0.005,0.096l0.018,0.093l0.039,0.091l0.06,0.058l0.079,0.005l0.094-0.065l0.098-0.031l0.123,0.033l0.109,0.058
	l0.056,0.049l0.026,0.062l-0.003,0.035l-0.143,0.189l-0.016,0.008l0.026,0.077l-0.011,0.029l-0.147,0.036l-0.02,0.029l0.015,0.055
	l0.005,0.059l0.014,0.048l-0.021,0.032l-0.104,0.006l-0.068-0.016l-0.099-0.055l-0.085-0.006l-0.1,0.021l-0.047,0.04l-0.035,0.048
	l-0.069,0.048l-0.087,0.015l-0.078-0.018l-0.064-0.027l-0.083-0.021l-0.073-0.037l-0.036-0.007l-0.04,0.01l-0.061,0.03l-0.329,0.067
	l-0.482,0.046l0.014,0.08l-0.053,0.09l-0.09,0.077l-0.097,0.037l-0.045-0.011l-0.055-0.065l-0.048-0.011l-0.022,0.079l-0.025,0.059
	l-0.035,0.04l-0.04-0.062l-0.042,0.021l-0.052,0.052l-0.063,0.034l-0.077,0.022l-0.114,0.08l-0.312,0.095l-0.085-0.006l-0.008-0.021
	l-0.057-0.093l-0.015-0.014l0.03-0.055l0.179-0.14l0.241-0.304L1408.348,228.626z M1407.055,228.808l0.003-0.182l-0.014-0.125
	l0.007-0.046l0.032-0.088l0.056-0.093l0.074-0.076l0.182-0.07l0.262-0.143l0.056-0.043l0.046-0.108l0.11-0.028l0.182,0.025
	l0.062,0.026l0.03,0.078l0.005,0.286l-0.029,0.124l0.008,0.098l0.045,0.009l0.026,0.016l0.005,0.033l-0.018,0.029l-0.032,0.02
	l-0.033,0.013l-0.021,0.015l-0.177,0.179l-0.088,0.064l-0.351,0.161l-0.114,0.038l-0.048,0.025l-0.128,0.114l-0.046,0.032
	l0.003-0.093l-0.085-0.226L1407.055,228.808z M1407.448,226.744l0.058,0.013l0.055,0.004l0.124-0.008l0.061,0.009l0.048,0.03
	l0.02,0.033l-0.138,0.126l-0.019-0.007l-0.055,0.01l-0.025,0.035l0.067,0.061l-0.18,0.085l0.013-0.035l0.021-0.036l-0.084,0.021
	l-0.079,0.053l-0.058,0.067l-0.021,0.065l-0.024,0.046l-0.057,0.027l-0.065,0.02l-0.046,0.024l-0.051,0.037l-0.043,0.003
	l-0.107-0.037v-0.032l0.01-0.008l0.055-0.054l0.099-0.17l0.02-0.023l0.022-0.02l0.03-0.011l0.035-0.011l0.029-0.016l0.032-0.073
	l0.048-0.019l0.073-0.001l0.055-0.037l0.041-0.036l0.027-0.052L1407.448,226.744z M1406.688,242.536l0.047,0.037l0.054,0.1
	l0.006,0.105l-0.021,0.081l-0.022,0.05l-0.002,0.026l-0.012,0.024l-0.021,0.021l0.005,0.021l0.024,0.037l-0.011,0.026l-0.049-0.011
	l-0.062-0.043l-0.037-0.078l-0.003-0.048l0.005-0.099l0.053-0.173L1406.688,242.536z M1407.03,238.88l0.099-0.111l0.027-0.068
	l0.013-0.194l0.028-0.053l0.299-0.21l0.058-0.065l0.022-0.064l0.037-0.056l0.239-0.24l0.112-0.291l0.059-0.079l0.047-0.022
	l0.029-0.015l0.087-0.02l0.076-0.037l0.04-0.089l-0.009-0.028l-0.053-0.057l-0.032-0.06l-0.043,0.004l-0.049,0.02l-0.03,0.009
	l-0.086-0.015l-0.015-0.029l0.041-0.065l0.073-0.065l0.018-0.033l-0.004-0.054l-0.063,0.053l-0.031-0.005l-0.021-0.034l-0.028-0.035
	l-0.116-0.084l-0.049-0.008l-0.016,0.016l-0.017,0.012l-0.021,0.018l-0.014-0.144l0.002-0.182l0.031-0.174l0.07-0.123l0.077-0.046
	l0.081-0.031l0.063-0.034l0.025-0.057l0.01-0.065l0.089-0.217l0.189,0.222l0.116,0.078l0.097-0.009l0.045-0.12l-0.073-0.122
	l-0.105-0.122l-0.057-0.121l-0.038-0.121l-0.155-0.158l-0.077-0.209l-0.102-0.125l-0.131-0.105l-0.135-0.057v-0.032l0.313-0.03
	l0.082,0.029l0.018,0.035l0.008,0.052l0.016,0.048l0.035,0.022l0.053-0.01l0.024-0.031l0.004-0.045l-0.011-0.052l0.081,0.038
	l0.011-0.037l-0.022-0.104l0.068-0.026l0.073,0.021l0.077,0.032l0.084,0.014l0.15-0.032l0.071-0.003l0.1,0.043l0.029-0.001
	l0.02,0.005l0.02,0.086l0.023,0.015l0.035,0.001l0.04,0.009l0.007-0.009l0.141-0.003l0.005,0.003l0.103,0.017l0.081,0.005
	l0.188-0.027l0.047-0.019l0.024-0.036l0.032-0.036l0.072-0.021l0.073,0.016l0.08,0.088l0.085,0.008l-0.053,0.111l-0.032,0.12
	l0.034,0.09l0.282,0.039l0.098,0.056l0.07,0.087l0.05,0.108l0.067-0.031l0.042,0.019l0.073,0.098l-0.055-0.004l-0.051,0.008
	l-0.033,0.024l-0.007,0.043l0.029,0.021l0.112,0.005l0.043,0.024l0.016,0.048l-0.017,0.033l-0.025,0.035l-0.004,0.051l0.014,0.022
	l0.097,0.099l-0.072,0.005l0.061,0.107l0.107,0.12l0.12,0.099l0.103,0.036l0.164-0.037l0.13-0.055l0.132-0.027l0.165,0.04
	l0.182,0.107l0.081,0.073l0.035,0.074l-0.011,0.046l-0.046,0.083l-0.011,0.04l0.013,0.035l0.063,0.089l0.014,0.052l0.032,0.058
	l0.038,0.056l0.07,0.069l0.028,0.021l0.081,0.035l0.012-0.009l0.024-0.015l0.032,0.002l0.037,0.044l0.119,0.016l0.053,0.21
	l0.029,0.445l0.083,0.401l0.014,0.039l0.052,0.061l0.014,0.024l-0.003,0.163l0.009,0.05l0.024,0.051l0.061,0.062l0.026,0.042
	l0.001,0.05l-0.016,0.053l-0.004,0.053l0.043,0.054l0.184,0.182l0.038,0.052l0.009,0.046l0.001,0.049l0.013,0.06l0.113,0.121
	l0.551,0.257l0.031,0.028l0.084,0.077l0.084,0.154l-0.012,0.155l-0.175,0.108l-0.223,0.002l-0.393-0.161l-0.229-0.044l-0.118,0.008
	l-0.331,0.057l-0.077,0.035l-0.146,0.142l-0.116,0.042l-0.095-0.006l-0.157-0.058l-0.162-0.017l-0.272-0.067l-0.597-0.274
	l-0.244-0.021l-0.89,0.063l-0.109,0.019l-0.121,0.039l-0.118,0.021l-0.104-0.032l-0.1-0.046l-0.111-0.014l-0.611,0.008l-0.028-0.009
	l-0.026-0.021l-0.037-0.021l-0.853-0.041l-0.185,0.041l-0.158,0.091l-0.044,0.117l-0.002,0.146l-0.03,0.178l-0.067,0.164
	l-0.022,0.081l-0.007,0.102l0.011,0.175l-0.007,0.083l-0.034,0.053l-0.014-0.002l-0.041-0.005l-0.071-0.042l-0.063-0.051
	l-0.027-0.032l-0.047-0.014l-0.104-0.005l-0.107,0.006l-0.057,0.019l-0.073-0.009l-0.046-0.021l-0.022-0.039l-0.008-0.066
	l-0.022-0.031l-0.099-0.055l-0.024-0.031l-0.007-0.031l-0.028-0.025l-0.004-0.021l0.017-0.042l0.032-0.025l0.034-0.02l0.021-0.021
	l0.048-0.167l0.034-0.05l0.15-0.118l0.087-0.098l0.073-0.107l0.055-0.115l0.108-0.528l0.069-0.178L1407.03,238.88z
	 M1406.938,248.351l0.042,0.047l-0.103,0.063l-0.251,0.098l-0.318,0.176l-0.012-0.045l-0.097-0.208l-0.004-0.042l0.016-0.04
	l0.035-0.028l0.046-0.015l0.098-0.008l0.017,0.008l0.009,0.048l0.012,0.023l0.037,0.019l0.033-0.012l0.027-0.021l0.026-0.011
	l0.142,0.025h0.053l0.052-0.016l0.102-0.053L1406.938,248.351z M1406.369,249.846l0.053,0.019l0.019-0.083l-0.005-0.208l0.009-0.046
	l0.022-0.003l0.023,0.026l0.03,0.105l0.038-0.025l0.035-0.054l0.013-0.027l0.11-0.134l0.028-0.098l0.024-0.048l0.013,0.031
	l0.022,0.122l0.051,0.004l0.068-0.019l0.076,0.056l0.032-0.001l0.008-0.019l0.026-0.046l-0.035,0.001l0.02-0.045l0.026-0.039
	l0.03-0.028l0.029-0.021l0.116,0.086l0.028,0.034l0.103-0.073l0.172,0.084l0.143,0.147l0.013,0.138l0.084,0.077l-0.081,0.062
	l-0.151,0.028l-0.131-0.022l0.046-0.066l0.023-0.019l0.034-0.017v-0.034l-0.074,0.012l-0.029,0.008l-0.037,0.021l-0.07-0.06
	l-0.072-0.045l-0.072-0.015l-0.07,0.036l0.031,0.035l0.003,0.024l-0.032,0.039l0.111,0.02l0.047,0.056l-0.005,0.073l-0.043,0.069
	l-0.065,0.041l-0.144,0.05l-0.039,0.048l-0.021-0.024l-0.038-0.039l-0.014-0.028l-0.083,0.053l-0.125,0.126l-0.073,0.057
	l-0.068,0.034l-0.246,0.077l0.008-0.039l0.015-0.024l0.013-0.024l-0.002-0.038l0.009,0.006l0.012-0.016l0.012-0.025l0.004-0.02
	l-0.012-0.013l-0.024-0.004l-0.025,0.006l-0.012,0.016l-0.042-0.004l-0.074-0.051l-0.026-0.068l0.105-0.049L1406.369,249.846z
	 M1405.305,230.17l0.013,0.066l-0.03,0.069l-0.046,0.023l-0.063-0.028l-0.056-0.052l-0.028-0.076l-0.009-0.114l0.035-0.106
	l0.053-0.012l0.016,0.093l0.046,0.047L1405.305,230.17z M1405.896,243.168l0.012,0.081l-0.052,0.062l-0.081,0.041l-0.081,0.021
	h-0.04l-0.105-0.022l-0.053,0.019l-0.032,0.03l-0.033,0.016l-0.054-0.021l-0.038,0.013h-0.014l0.021-0.043l0.243-0.196l0.078-0.035
	l0.086-0.023l0.082,0.008L1405.896,243.168z M1405.118,244.497l0.01,0.04l-0.021,0.049l-0.035,0.045l-0.023,0.045l-0.046,0.033
	l-0.073,0.022l-0.069,0.051l-0.047,0.087l-0.156,0.065l-0.14-0.086l0.054-0.135l0.115-0.052l0.171-0.044l0.042-0.025l0.02-0.02
	l0.012-0.009l0.111-0.065l0.053-0.015L1405.118,244.497z M1404.598,250.07l0.044-0.008l0.023-0.068l0.021-0.18l0.02-0.075
	l0.049-0.079l0.109-0.133l0.127-0.117l0.026-0.035l0.013-0.039l0.001-0.079l0.018-0.042l0.015,0.047l0.028,0.031l0.043,0.013
	l0.057-0.006l-0.001-0.106l0.206-0.258l0.067-0.123l-0.056-0.008l-0.03-0.026l-0.004-0.041l0.016-0.05l-0.48,0.023l0.002-0.026
	l0.091-0.071l0.077-0.035l0.082-0.014l0.14-0.003l0.055-0.032l-0.017-0.065l-0.005-0.065l0.088-0.032l-0.011-0.017v-0.005
	l-0.005-0.002l-0.023-0.006l0.143-0.147l0.084-0.064l0.069-0.029l0.072,0.008l0.024,0.031l0.018,0.041l0.048,0.041l0.068,0.017
	l0.027-0.021l-0.013-0.036l-0.05-0.027l0.002-0.021l0.005-0.005h0.012l0.02-0.005l-0.039-0.032l0.068-0.029l0.047,0.014l0.034,0.043
	l0.029,0.06l0.019,0.063l-0.01,0.031l-0.022,0.023l-0.021,0.043l-0.002,0.081l0.031,0.055l0.035,0.049l0.017,0.065l-0.024,0.064
	l-0.047,0.053l-0.028,0.053l0.027,0.06l-0.079,0.014l-0.021,0.06l-0.005,0.079l-0.027,0.073l0.039,0.033l0.063-0.035l0.055,0.001
	l0.055,0.014l0.071,0.007l-0.024,0.041l0.002,0.022l0.021,0.012l0.041,0.018v0.029l-0.138,0.075l-0.035,0.054l0.036,0.2
	l-0.021,0.082l-0.058,0.098l-0.073,0.083l-0.147,0.07l-0.165,0.14l-0.108,0.035l-0.075,0.004l-0.06,0.012l-0.054,0.026l-0.055,0.05
	l-0.056,0.032l-0.07,0.012l-0.072,0.021l-0.064,0.057l0.046,0.051l0.06,0.045l0.071,0.034l0.074,0.019l-0.037,0.061l-0.04-0.011
	l-0.046-0.04l-0.056-0.033l-0.065-0.008l-0.051,0.004l-0.078,0.014l-0.104-0.02l-0.04-0.059l-0.028-0.082l-0.063-0.084l-0.001,0.115
	l0.011,0.046l0.033,0.03l-0.201,0.023l-0.075-0.029l-0.007-0.11l0.035-0.086l0.077-0.034L1404.598,250.07z M1403.405,230.331
	l0.048,0.059l-0.083,0.1l-0.114,0.065l-0.112,0.028l-0.059,0.007l0.009-0.044l0.063-0.089l0.117-0.088L1403.405,230.331z
	 M1404.303,237.561l0.024,0.062l-0.015,0.022l-0.104,0.081l-0.027,0.042l-0.024,0.098l-0.033,0.044l-0.206,0.132l-0.096,0.086
	l-0.039,0.113l-0.011,0.109l-0.039,0.092l-0.065,0.071l-0.089,0.048l-0.183,0.014l-0.11-0.093l-0.054-0.167l-0.013-0.526l0.035-0.18
	l0.024-0.055l0.032-0.029l0.105-0.037l0.065-0.033l0.067-0.042l0.117-0.095l0.07-0.002l0.371,0.05l0.063,0.046l0.071,0.071
	L1404.303,237.561z M1402.47,226.948l0.025-0.046l-0.034-0.06l-0.055-0.074l-0.02-0.069l0.079-0.039l-0.008-0.045l0.04-0.103
	l0.053-0.091l0.026-0.013l0.008-0.029l0.017-0.027l0.013-0.036l-0.005-0.058l-0.018-0.036l-0.037-0.051l-0.041-0.044l-0.033-0.019
	l-0.109-0.005l-0.025-0.041l0.038-0.138l-0.009-0.045l-0.022-0.044l-0.013-0.042l0.02-0.041l0.117-0.126l0.149-0.251l0.101-0.123
	l0.088-0.018l0.058-0.057l0.059-0.108l0.056-0.047l0.131-0.068l0.044-0.039l0.065-0.083l0.058,0.083l0.118,0.073l0.13,0.01
	l0.091-0.11l0.023,0.03l0.029,0.014l0.061,0.006l0.03,0.002l-0.096-0.136l-0.022-0.049l0.051,0.003l0.033-0.004h0.029l0.034,0.019
	l0.02-0.056l-0.021-0.043l-0.081-0.087l0.099,0.019l0.021-0.048l-0.02-0.178l0.044-0.092l0.129-0.182l-0.009-0.068l0.056-0.032
	l0.134-0.118l0.141-0.065l0.058-0.003l-0.038,0.083l0.031,0.035l0.027,0.109l0.021,0.045l0.018-0.045l0.021-0.035l0.026-0.032
	l0.036-0.032l0.038,0.127l0.028,0.056l0.05,0.032l0.097-0.001l0.024-0.052l-0.02-0.153l0.018,0.009l0.037,0.008l0.018,0.008
	l0.036-0.046l0.063-0.069l0.07-0.053l0.057-0.003l0.147,0.146l0.057,0.033l0.115,0.046l0.122,0.073l0.088,0.021l0.102-0.002
	l0.114-0.019l0.03-0.012l0.147-0.076l0.162-0.006l0.052-0.017l0.036-0.031l0.117-0.134l0.05-0.021l0.048,0.01l0.026,0.03
	l-0.044,0.132l0.095,0.037l0.091-0.023l-0.047-0.088l0.005-0.058l0.1-0.057l0.189-0.065l0.133-0.007l0.029,0.044l0.012,0.058
	l0.087,0.041l0.024-0.063l0.051,0.007l0.066,0.03l0.072,0.003l0.048-0.026l0.011-0.029l0.003-0.032l0.024-0.037l0.034-0.02
	l0.128-0.013l0.078-0.029l0.048-0.025l0.162-0.123l0.081-0.041l0.084-0.009l0.083,0.039l0.003-0.039l0.004-0.027v-0.028
	l-0.014-0.039l0.125-0.039l0.061-0.028l0.023-0.038l0.016-0.05l0.072-0.095l0.016-0.063l0.03-0.014l0.06-0.058l0.055-0.064
	l0.009-0.029l0.138-0.017l0.084,0.005l0.069,0.031l0.251,0.265l0.108,0.042l0.189-0.021l0.1-0.09l0.012-0.134l-0.063-0.146
	l-0.096,0.083l-0.08,0.01l-0.015-0.062l0.166-0.24l0.053-0.095l0.076-0.075l0.151-0.042l0.163-0.097l0.166-0.168l0.166-0.112
	l0.161,0.075l-0.039,0.044l-0.061,0.121l-0.034,0.047l-0.175,0.062l-0.015,0.011l-0.015,0.009l-0.029,0.006l-0.095,0.008
	l-0.024,0.007l-0.004,0.03l-0.036,0.075l-0.025,0.023l-0.058,0.076l-0.039,0.077l0.039,0.03l0.113,0.152l0.022,0.046l-0.02,0.061
	l-0.049,0.026l-0.059,0.017l-0.046,0.035l-0.024,0.059l0.016,0.031l0.03,0.03l0.018,0.056l0.039,0.006l0.191,0.003l0.063,0.009
	l-0.126,0.144l-0.063,0.095l-0.003,0.062l0.119,0.078l0.051,0.046l0.04,0.07l-0.084,0.012l-0.053,0.042l-0.002,0.05l0.068,0.035
	l-0.108,0.125l-0.03,0.053l-0.021,0.176l-0.024,0.029l-0.038,0.026l0.014,0.052l0.068,0.139l0.039,0.021l0.051,0.016l0.091,0.046
	l0.039,0.009l0.013,0.023l-0.01,0.027l-0.017,0.043l-0.039,0.04l-0.064,0.038l-0.07,0.03l-0.281,0.056l-0.222,0.071l-0.193,0.146
	l-0.081,0.198l-0.011,0.221l0.026,0.214l-0.033,0.199l-0.146,0.06l-0.426,0.003l-0.043,0.005h-0.035l-0.032-0.007l-0.035-0.017
	l-0.02,0.039l-0.085,0.102l-0.015,0.037l-0.004,0.068l-0.011,0.032l-0.045,0.071l-0.057,0.061l-0.066,0.05l-0.077,0.036l0.17,0.054
	l0.024,0.04l-0.009,0.085l-0.024,0.068l-0.044,0.058l-0.061,0.048l-0.077,0.045l-0.04-0.07l-0.05-0.036l-0.051-0.029l-0.046-0.045
	l-0.025-0.076l-0.011-0.064l-0.029-0.014l-0.082,0.072l-0.01-0.278l-0.038-0.057l-0.085-0.069l-0.098-0.061l-0.074-0.029
	l-0.08,0.011l-0.081,0.032l-0.075,0.024l-0.069-0.02l-0.123-0.091l-0.115-0.065l0.024-0.026l0.042-0.08l-0.125,0.019l-0.1,0.061
	l-0.065,0.088l-0.02,0.111l0.03,0.077l0.13,0.184l0.031,0.078l-0.099,0.181l-0.427,0.323l-0.059,0.193l-0.036,0.003l0.001-0.033
	l-0.003-0.032l-0.023,0.048l-0.007,0.02l-0.147-0.05l0.014-0.023l0.011-0.025l0.016-0.026l0.028-0.029l-0.106,0.031l-0.048,0.073
	l-0.002,0.07l0.093,0.069l-0.008,0.084l-0.045,0.047l-0.055-0.068l-0.044,0.03l-0.022,0.032l0.005,0.036l0.035,0.038l-0.141,0.023
	l-0.076,0.023l-0.05,0.028l-0.261,0.26l-0.072,0.195l-0.042,0.192l0.025,0.145l-0.072,0.144l-0.158,0.24l-0.278,0.248l-0.099,0.111
	l-0.011-0.011l-0.005-0.003l-0.022-0.01l-0.066,0.118l-0.144,0.091l-0.837,0.31l-0.749,0.38l-0.068,0.018l-0.062-0.006l-0.063-0.026
	l-0.049-0.042l-0.019-0.052l0.017-0.038l0.17-0.231l0.006-0.022V229.5l-0.064-0.113l-0.013-0.042l0.009-0.028l0.056-0.124
	l0.023-0.077l-0.006-0.296l0.007-0.021l0.034-0.056l0.012-0.011l0.02-0.011l-0.009-0.021l-0.021-0.025l-0.011-0.02l0.008-0.109
	l0.02-0.104l0.021-0.394l-0.11-0.879l-0.018-0.042l-0.037-0.042l-0.073-0.033l-0.048,0.031l-0.042,0.05l-0.059,0.022l-0.039,0.003
	l0.026-0.087l0.058-0.069L1402.47,226.948z M1402.819,234.264l0.021-0.005l-0.016,0.084l0.079-0.017l0.183-0.088l0.041,0.023
	l0.045,0.051l0.062,0.05l0.088,0.019l0.064-0.03l-0.039-0.053l-0.121-0.073l-0.004-0.012l-0.005-0.048l-0.01-0.017l-0.022-0.007
	l-0.049,0.005l-0.018-0.004l-0.004,0.01l-0.062-0.021l-0.059-0.029v-0.018l-0.036-0.032l-0.012-0.079l0.01-0.091l0.029-0.068
	l0.156-0.163l0.061-0.079l0.037-0.084l-0.005-0.161l0.021-0.026l0.082-0.062l0.042-0.042l0.096-0.05l0.095-0.065l0.041-0.078
	l0.035-0.003l0.007,0.054l0.03,0.032l0.048,0.009l0.063-0.009l-0.095-0.15l-0.013-0.07l0.079-0.037l0.033-0.023l0.008-0.046
	l-0.002-0.054l0.006-0.041l0.035-0.053l0.039-0.044l0.046-0.039l0.54-0.344l0.135-0.136l-0.228,0.045l-0.081-0.023l0.074-0.116
	l0.155-0.158l-0.013-0.064l-0.039-0.048l-0.016-0.04l0.061-0.039l-0.035,0.003l0.101-0.055l0.422-0.286l0.02-0.032l0.023-0.072
	l0.022-0.031l0.044-0.023l0.171-0.061l0.048-0.03l0.261-0.222l0.087-0.056l0.085-0.03l-0.05,0.082l-0.156,0.112l-0.064,0.092
	l0.055-0.021l0.036-0.022l0.08-0.072l0.048,0.048l0.06-0.021l0.142-0.111l0.262-0.14l0.07-0.023l0.124-0.012l0.142,0.017
	l0.058-0.002l0.081-0.027l0.102-0.048l0.104-0.035l0.084,0.011l0.015,0.064l-0.089,0.071l-0.205,0.117l-0.068,0.067l-0.143,0.173
	l-0.05,0.14l-0.121,0.113l-0.053,0.164l-0.069,0.078l-0.146,0.106l0.04,0.057l-0.018,0.087l-0.079,0.182l0.061,0.106l-0.056,0.104
	l-0.091,0.092l-0.047,0.068l-0.064-0.016l-0.047-0.026l-0.03-0.042l-0.003-0.066l-0.139,0.075l0.048,0.023l0.021,0.005l0.001,0.03
	l-0.062,0.045l-0.067,0.063l-0.055,0.067l-0.055,0.127l-0.07,0.047l-0.064-0.005l-0.012-0.082l-0.031,0.104l0.013,0.093
	l-0.016,0.069l-0.201,0.069l-0.086,0.068l-0.156,0.156l-0.107,0.077l-0.03,0.034l-0.058,0.141l-0.024,0.038l-0.033,0.086
	l0.016,0.111l0.042,0.104l0.041,0.064l0.067,0.049l0.228,0.124l0.139,0.032l0.065,0.032l0.057,0.042l0.025,0.043l0.009,0.053
	l0.022,0.023l0.075,0.028l0.337,0.231l0.41,0.364l0.07,0.097l-0.062,0.051h-0.105l-0.125-0.014l-0.104-0.028l-0.045-0.039
	l-0.014-0.052l-0.035-0.021h-0.05l-0.06,0.006l-0.07-0.005l-0.054-0.023l-0.05-0.026l-0.06-0.023l-0.195,0.022l-0.097-0.02
	l0.038-0.078l-0.07-0.019l-0.057-0.028l-0.036-0.045l-0.016-0.071l-0.027-0.032l-0.06,0.023l-0.091,0.072l-0.049-0.061l-0.03-0.059
	l-0.047-0.034l-0.094,0.011l-0.002,0.162l0.013,0.104l0.039,0.085h-0.034l-0.158,0.018l-0.013-0.003l-0.01-0.01l-0.197-0.113
	l-0.07-0.01l-0.153-0.003l-0.261-0.046l-0.119-0.005l-0.081,0.015l-0.04,0.031l-0.031,0.048l-0.054,0.068l-0.596,0.099l-0.062-0.008
	l-0.016-0.034l0.016-0.047l0.029-0.049l0.032-0.073l0.018-0.136l0.02-0.073l0.031-0.047l0.039-0.039l0.027-0.045l0.008-0.043
	L1402.819,234.264z M1403.214,239.116l0.142,0.131l-0.094,0.081l-0.09,0.049l-0.096,0.023l-0.105,0.005l-0.02,0.006l-0.024,0.013
	l-0.029,0.014l-0.03,0.003l-0.027-0.009l-0.017-0.034l-0.025-0.016l-0.108-0.022l-0.044-0.021l-0.031-0.038l0.069-0.005l0.159-0.091
	l0.189-0.081L1403.214,239.116z M1402.564,239.879l0.021,0.022l-0.009,0.073l0.025,0.03l0.047-0.002l0.283-0.054l0.167,0.014
	l0.355,0.083l0.378,0.01l0.366,0.059l0.378,0.112l0.058,0.032l0.093,0.025l0.067-0.059l0.063-0.066h0.078l-0.071,0.066l0.04,0.024
	l0.088,0.079l0.035,0.016l0.266-0.02l0.002,0.032l-0.121,0.108l-0.072,0.028l-0.086-0.019l-0.009,0.125l-0.083,0.034l-0.261-0.004
	l0.122-0.053l0.021-0.066l-0.058-0.054l-0.109-0.019l-0.063,0.02l-0.024,0.041l-0.01,0.051l-0.021,0.055l-0.202,0.208l-0.032,0.044
	l-0.188-0.002l-0.211-0.034l-0.101-0.049l-0.067-0.143l-0.156-0.059l-0.192-0.008l-0.171,0.012l-0.301,0.054l-0.11-0.016l-0.1-0.101
	l-0.089-0.26l-0.077-0.127l-0.128-0.038l0.042-0.145l0.044-0.052L1402.564,239.879z M1402.21,232.952l0.14-0.244l0.014-0.042
	l0.033,0.002l0.018,0.013l0.021,0.044l-0.002-0.065l0.017-0.055l0.033-0.047l0.051-0.036l0.092,0.015l0.102-0.045l0.096-0.063
	l0.078-0.034l0.08-0.023l0.165-0.081l0.268-0.075l0.025-0.014l0.022-0.027l0.056-0.009l0.117,0.002l0.103-0.037l0.063-0.012
	l0.027,0.017l-0.015,0.039l-0.039,0.039l-0.05,0.031l-0.051,0.016l-0.048,0.025l-0.139,0.153l-1.096,0.797l-0.049,0.019
	l-0.066,0.001l-0.001-0.032l0.024-0.045l-0.068-0.015l-0.1-0.005l-0.07-0.015l-0.001-0.043l0.048-0.056L1402.21,232.952z
	 M1401.002,242.105l0.012-0.065v-0.019l0.037-0.037l0.056-0.032l0.05,0.008l0.026,0.022l0.004,0.015l0.013,0.014l0.019-0.009
	l0.018-0.015l0.021,0.02l-0.004,0.031l-0.022,0.021l0.005,0.016l-0.005,0.02l-0.046,0.037l-0.028,0.034l-0.021,0.01l-0.056,0.009
	l-0.062-0.028L1401.002,242.105z M1401.007,235.135l0.037-0.12l-0.046-0.087l0.042-0.077l0.049-0.035l0.055-0.023l0.062-0.041
	l0.255-0.051l0.39-0.379l0.218-0.089l-0.121,0.173l-0.464,0.355l-0.108,0.109l-0.042,0.067l-0.031,0.177l-0.046,0.077l-0.323,0.378
	l-0.069,0.042l-0.006,0.02l-0.091,0.089l-0.022,0.014l-0.015,0.039l-0.035,0.02l-0.046,0.015l-0.038,0.019l-0.077,0.122
	l-0.063,0.292l-0.123,0.117l-0.284,0.054l-0.06,0.003l-0.047-0.06l-0.012-0.079l-0.038-0.06l-0.126-0.005l0.015-0.056l0.032-0.064
	l0.075-0.111l0.047-0.05l0.054-0.046l0.115-0.081l0.206-0.111l0.093-0.118l0.024-0.019l0.06-0.02l0.123-0.076l0.061-0.02
	l0.014-0.013l0.156-0.084l0.076-0.084L1401.007,235.135z M1399.445,230.573l0.028,0.055l-0.032,0.165l-0.022,0.066l-0.013,0.059
	l0.002,0.105l-0.016,0.075l-0.051,0.14l-0.035,0.02l-0.035-0.086l-0.061-0.131l-0.029-0.042l-0.009-0.069l0.051-0.191l0.048-0.093
	l0.084-0.063L1399.445,230.573z M1398.935,231.771l0.054-0.118l-0.016-0.038l-0.014-0.032l0.001-0.063l0.002-0.005l0.006-0.005
	l0.043-0.039l0.017-0.034l-0.017-0.025l-0.021,0l-0.022-0.002l-0.005-0.037l0.014-0.042l0.014-0.061l0.025-0.074l0.022-0.007
	l0.013-0.004l0.035,0.058l0.014,0.025l0.031,0.021l0.05,0.023l0.051,0.043l0.009,0.03l0.018,0.065l-0.007,0.037l-0.021,0.093
	l-0.034,0.102l-0.003,0.085l-0.034,0.092l-0.07,0.087l-0.063,0.042h-0.042l-0.028,0.011l-0.018,0.004l-0.005-0.007l-0.002-0.003
	L1398.935,231.771z M1399.241,232.107l0.003,0.05l-0.075,0.052l-0.026,0.03l-0.1,0.063l-0.063,0.013l-0.085-0.014h-0.095
	l-0.066,0.024l-0.068,0.055l-0.021-0.014l-0.03-0.039v-0.046l0.06-0.197l0.025-0.031l0.016-0.035l0.009-0.042l0.052-0.004
	l0.143,0.112l0.097,0.015l0.078-0.037l0.06-0.037l0.042,0.004L1399.241,232.107z M1398.488,232.472l0.035-0.036l-0.002-0.025
	l0.006-0.046l0.02-0.013l0.063,0.044l0.021,0.053l-0.067,0.105l-0.124,0.134l-0.062,0.021l0.02-0.075l0.037-0.082L1398.488,232.472z
	 M1398.171,245.611l0.017-0.028l0.045,0.02l0.033,0.025l0.021,0.032l0.006,0.043l0.043-0.03l0.057-0.05l0.051-0.056l0.02-0.048
	l0.043-0.044l0.189-0.116l0.042-0.076l-0.024-0.301l0.057-0.079l0.165,0.006l-0.001-0.03l-0.032-0.007l-0.077-0.007l-0.029-0.009
	l-0.031-0.018l-0.01-0.007l-0.03-0.033l-0.023-0.045l-0.021-0.057l-0.035-0.052l-0.065-0.028l-0.001-0.031l0.184-0.107l0.459-0.563
	l0.325-0.217l0.048-0.076l0.012-0.101l0.039-0.079l0.074-0.052l0.11-0.021l0.053,0.01l0.056,0.021l0.055,0.009l0.049-0.02
	l0.035-0.054l-0.006-0.053l-0.021-0.05l-0.013-0.049l0.001-0.109l0.02-0.104l0.052-0.084l0.095-0.045l0.105,0.011l0.072,0.056
	l0.119,0.15l0.09,0.05l0.113,0.021l0.121-0.002l0.312-0.069l0.082-0.003l0.212,0.027l0.067-0.011l0.001,0.032l0.141-0.035
	l0.319-0.032l0.116-0.051l0.169-0.138l0.035-0.02l0.063-0.009l0.083-0.022l0.079-0.031l0.081-0.051l0.037-0.007l0.131-0.001
	l0.013,0.014v0.021l0.019,0.025l0.293,0.163l0.054,0.052l0.085,0.109l0.013,0.036l-0.008,0.031l0.005,0.02l0.048,0.004l0.084-0.007
	l0.034-0.013l0.037-0.024l0.039,0.032l-0.039,0.032l0.036,0.014l0.027,0.006l0.029-0.006l0.049-0.023l0.061,0.081l0.145-0.013
	l0.156-0.07l0.095-0.092l0.035-0.002l-0.054,0.191l0.009,0.087l0.091,0.007l0.031-0.029l0.043-0.01l0.049,0.006l0.049,0.022
	l0.021-0.042l0.028-0.021l0.038-0.008l0.055-0.003l-0.091,0.146l-0.083,0.057l0.041,0.065l0.106,0.104l0.018,0.06l0.038,0.053
	l0.091,0.08l0.255,0.101l0.029,0.011l0.002,0.069l-0.109,0.111l-0.027,0.067l0.007,0.289l-0.048,0.086l-0.118,0.075l-0.147,0.036
	l-0.139-0.028l0.082-0.032l0.046-0.045l0.006-0.057l-0.034-0.064l-0.017,0.036l0.004,0.032l0.016,0.029l-0.09,0.035l-0.015,0.004
	l-0.074,0.099l0.012,0.033l0.102-0.006l-0.045,0.077l-0.084,0.101l-0.094,0.088l-0.109,0.063l-0.12,0.127l-0.012,0.038l-0.033,0.029
	l-0.36,0.217l-0.039,0.063l-0.053,0.047l-0.123-0.002l-0.212-0.036l-0.103,0.011l-0.099,0.033l-0.09,0.049l-0.151,0.133
	l-0.175,0.089l-0.079,0.071l-0.04,0.105v0.093l-0.024,0.067l-0.118,0.032l-0.058,0.008l-0.095,0.029l-0.057,0.009l-0.06,0.017
	l-0.131,0.085l-0.046-0.003l-0.034-0.018l-0.028-0.021l-0.03-0.013h-0.048l-0.245,0.027l-0.155,0.053l-0.281,0.058l-0.155,0.089
	l-0.295,0.22l-0.318,0.166l-0.137,0.111l-0.076,0.224l-0.109,0.091l-0.035,0.077l0.018,0.158l-0.022,0.049l-0.095-0.047
	l-0.121,0.128l-0.14,0.098l-0.16,0.066l-0.354,0.057l-0.084,0.037l-0.033,0.06l0.004,0.033l0.021,0.08l0.014,0.03l0.027,0.036
	l0.029,0.019l0.026,0.013l0.024,0.02l0.083,0.086l0.016,0.054l-0.026,0.074l-0.053,0.061l-0.07,0.052l-0.083,0.039l-0.084,0.018
	l-0.115-0.012l-0.106-0.044l-0.089-0.069l-0.067-0.083l-0.044-0.105l-0.007-0.106l0.071-0.317l0.006-0.276l-0.011-0.058
	l-0.015-0.047l0.002-0.047l0.055-0.091l0.014-0.049l0.011-0.089l-0.005-0.178l0.015-0.107l0.055-0.066l-0.045-0.072l0.024-0.06
	l0.083-0.087l0.007-0.08l-0.022-0.069l-0.061-0.132l-0.11-0.401l-0.079-0.12l0.058-0.063l-0.013-0.037l-0.027-0.036l-0.09-0.019
	l0.018-0.067l-0.003-0.021l-0.018-0.037L1398.171,245.611z M1397.91,241.454l0.158-0.11l-0.03-0.02l-0.052-0.048l-0.03-0.02
	l0.075-0.075l0.024-0.108l-0.037-0.094l-0.104-0.034l0.043-0.063l0.041-0.045l0.053-0.02l0.072,0.015l-0.03-0.067l0.025-0.053
	l0.053-0.02l0.048,0.038l0.021-0.021l0.035-0.052l0.01-0.025l-0.05-0.067l0.025-0.101l0.072-0.091l0.086-0.038l0.024,0.015
	l0.009,0.032l0.004,0.044l0.037,0.001l0.086-0.009l0.041-0.021l0.064-0.088l0.044-0.028l0.151,0.03l0.304,0.247l0.15,0.093
	l0.105-0.051l0.091,0.034l0.137,0.136l0.017,0.071l-0.055,0.08l-0.074,0.071l-0.037,0.042l-0.021,0.052l-0.145,0.166l-0.011,0.04
	l-0.004,0.08l-0.016,0.04l-0.039,0.049l-0.131,0.089l-0.153,0.151l-0.052,0.02l-0.121-0.011l-0.035,0.006l-0.074,0.018l-0.268,0.019
	l-0.073-0.009l-0.047-0.029l-0.241-0.105l-0.048-0.011l-0.142,0.002l-0.036-0.012l-0.018-0.064L1397.91,241.454z M1397.935,245.134
	l0.042-0.027l0.127-0.022l0.034,0.024l-0.025,0.078l-0.125,0.139l-0.031,0.001l-0.002-0.036l0.012-0.032l-0.012-0.041l-0.026-0.046
	L1397.935,245.134z M1396.711,249.418l0.051-0.025l-0.022-0.064l0.019-0.089l0.044-0.092l0.053-0.073l0.258-0.17l0.058,0.02
	l0.041,0.041l0.045,0.02l0.063-0.041l0.021-0.04l0.006-0.036l0.018-0.028l0.056-0.013l0.065,0.073l0.025,0.019l-0.041,0.031
	l-0.058,0.035l-0.052,0.037l-0.021,0.044l-0.014,0.066l-0.034,0.029l-0.045,0.019l-0.042,0.033l-0.033,0.05l-0.019,0.047
	l-0.011,0.051l-0.002,0.06l-0.015,0.03l-0.069,0.056l-0.048,0.152l-0.088,0.077l-0.116,0.05l-0.121,0.02l-0.055-0.003l-0.04-0.019
	l-0.022-0.032l-0.006-0.048l0.025-0.068l0.059-0.115L1396.711,249.418z M1394.933,230.873l0.104-0.088l0.119-0.072l0.13-0.05
	l0.206-0.035l0.014-0.045l0.033-0.043l0.085-0.067l0.039,0.031l0.032-0.025l0.015-0.008l0.023-0.008l-0.001-0.032l-0.138-0.056
	l0.058-0.135l0.229-0.301l0.038-0.003l0.046,0.063l0.059,0.057l0.032-0.065l0.062-0.035l0.074-0.021l0.068-0.03l0.042,0.085
	l0.002,0.04l0.053-0.038l0.042-0.011h0.146l0.104,0.011h0.054l0.137-0.094l0.084-0.014l0.04,0.099v0.095l0.009,0.049l0.04,0.017
	l0.097-0.001l0.309,0.044l0.075-0.013l-0.049,0.074l-0.103,0.072l-0.076,0.067l0.029,0.057l-0.015,0.061l0.018,0.074l0.042,0.073
	l0.052,0.053l0.073,0.027l0.103,0.024l0.09,0.032l0.04,0.051l-0.031,0.084l-0.236,0.272l-0.104,0.15l-0.027,0.083l0.004,0.098
	l-0.068-0.012l-0.07,0.022l-0.063,0.043l-0.053,0.049l-0.063,0.026l-0.058-0.04l-0.076-0.113l-0.112-0.107l-0.15-0.08l-0.178-0.05
	l-0.196-0.017l-0.289,0.066l-0.074-0.017l-0.087-0.038l-0.09,0.014l-0.191,0.084l-0.086,0.027l-0.042,0.003l-0.026-0.02l-0.04-0.036
	l-0.046-0.025l-0.046,0.018l-0.068,0.046l-0.079,0.008l-0.078-0.017l-0.07-0.028l0.079-0.065l-0.02-0.064l-0.103-0.086l-0.025-0.04
	l-0.014-0.033l0.005-0.032l0.021-0.039L1394.933,230.873z M1395.591,240.291l0.004,0.084l-0.059,0.106l-0.151,0.181l-0.199,0.313
	l-0.173,0.196l-0.024,0.056l-0.048,0.078l-0.111,0.096l-0.125,0.083l-0.088,0.035l-0.062-0.01l-0.043-0.032l-0.017-0.048
	l0.011-0.059l0.019-0.03l0.022-0.021l0.054-0.04l0.521-0.626l0.145-0.216l0.093-0.112l0.113-0.058L1395.591,240.291z
	 M1392.189,239.638l0.013,0.094l-0.014,0.159l-0.076,0.019l-0.072-0.109l-0.044-0.1l-0.042-0.072l-0.021-0.072l0.03-0.07
	l0.028-0.033l0.073-0.01l0.099,0.091L1392.189,239.638z M1391.443,240.767l0.025-0.036l-0.006-0.05l-0.023-0.056l-0.006-0.154
	l0.03,0.029l0.042,0.017l0.049-0.002l0.053-0.026l0.035-0.044l0.006-0.048l-0.016-0.082l0.047-0.062l0.103-0.048l0.104-0.005
	l0.051,0.062l-0.023,0.004l-0.27,0.377l-0.02,0.125l-0.02,0.066l-0.04,0.031l-0.055,0.023l-0.057,0.032l-0.03-0.001l0.023-0.076
	l-0.02-0.011l-0.051-0.045L1391.443,240.767z M1390.437,241.605l0.044-0.073l-0.026-0.04l0.02-0.052l0.056-0.032l0.083,0.021
	l0.004-0.107l0.045-0.09l0.078-0.05l0.105,0.014l-0.123,0.107l-0.028,0.052l0.021,0.066l0.052,0.043l0.054,0.008l0.028-0.019
	l-0.029-0.04l0.119-0.043l0.059-0.003l0.039,0.039l0.103,0.138l0.016,0.014l0.023-0.008l0.178-0.021l0.049-0.013l0.065-0.025
	l-0.016-0.083l0.081-0.061l0.124-0.041l0.312-0.068l0.069,0.005l0.246,0.071l0.086,0.083l0.064,0.103l0.026,0.094l-0.042,0.11
	l-0.107,0.043l-0.134,0.002l-0.121-0.018l-0.021-0.084l-0.194,0.019l-0.222,0.081l-0.105,0.101l-0.021,0.069l-0.058,0.025h-0.177
	l-0.053,0.023l-0.157,0.11l-0.042,0.04l-0.021,0.075l0.002,0.043l-0.028,0.017l-0.328-0.013l-0.116-0.023l-0.051-0.045l0.082-0.142
	l0.014-0.089l-0.087-0.033l-0.043-0.031l-0.012-0.082L1390.437,241.605z M1384.885,250.738l0.011,0.056l-0.044,0.054l-0.037,0.023
	l-0.072,0.09l-0.123,0.094l-0.033,0.052l-0.041,0.017l-0.045-0.021l-0.081-0.064l-0.015-0.045l-0.014-0.034l-0.021-0.005
	l-0.027-0.009l-0.03-0.035l0.008-0.048l0.024-0.033l0.028-0.017l0.033-0.012l0.092-0.043l0.209-0.007l0.067-0.029l0.063-0.01
	L1384.885,250.738z M1373.552,247.4l0.001-0.077l-0.029-0.085l-0.047-0.07l-0.045-0.026l-0.037-0.034l-0.095-0.166l-0.025-0.061
	l-0.004-0.042l0.004-0.09l-0.006-0.041l-0.03-0.043l-0.046-0.047l-0.028-0.049l0.016-0.051l0.021-0.036l0.014-0.048l0.008-0.098
	l0.014-0.049l0.034-0.032l0.042-0.024l0.035-0.036l0.104-0.221l0.104-0.121l0.215-0.438l0.052-0.064l0.038-0.062l0.039-0.143
	l0.216-0.336l0.011-0.035l0.006-0.06l0.011-0.029l0.031-0.03l0.041-0.03l0.036-0.036l0.06-0.202l0.118-0.1l0.13-0.08l0.081-0.093
	l-0.03,0.002l-0.066,0.07l-0.099,0.005l-0.068-0.04l0.02-0.065l0.044-0.06l0.289-0.805l0.034-0.189l-0.001-0.095l-0.045-0.247
	l-0.022-0.052l-0.151-0.219l-0.289-0.15l-0.049-0.051l-0.021-0.087l-0.05-0.03h-0.162l-0.339-0.079l-0.056-0.027l-0.027-0.2
	l-0.003-0.091l0.031-0.068l0.072-0.04l0.19-0.031l0.078-0.026l0.05-0.042l0.105-0.128l0.022-0.041l0.123-0.096l0.192-0.048
	l0.211,0.005l0.199,0.042l0.161,0.068l0.158,0.102l0.069,0.065l0.111,0.136l0.146,0.137l0.034,0.022l0.064,0.016l0.058-0.001
	l0.042-0.016l0.035-0.019l0.041-0.01l0.163-0.012l0.154-0.037l0.059-0.005l0.897,0.124l0.049-0.002l0.109-0.022l0.039,0.001
	l0.063,0.022l0.033-0.001l0.034-0.021l0.068-0.063l0.04-0.017l0.42-0.032l0.123-0.037l0.352-0.163l0.117-0.023l0.091-0.046
	l0.109-0.088l0.118-0.076l0.119-0.005l0.053-0.025l0.077-0.018l0.07-0.027l0.028-0.053l-0.009-0.016l-0.016-0.021l-0.014-0.029
	l0.001-0.039l0.076-0.085l0.019-0.039l-0.007-0.053l-0.054-0.115l-0.015-0.054l0.028-0.074l0.145-0.048l0.051-0.059l-0.11,0.029
	l0.045-0.077l0.125-0.102l0.127-0.046l-0.063,0.086l-0.018,0.05l0.042,0.017l0.07-0.014l0.134-0.051l0.056-0.014l0.071,0.005
	l0.148,0.034h0.065l0.077-0.039l0.081-0.115l0.065-0.047l-0.022-0.014l-0.023-0.027l-0.022-0.015l0.019-0.071l-0.047-0.041
	l-0.035-0.044l0.054-0.085l0.087-0.05l0.092-0.007l0.091,0.027l0.08,0.05l0.046,0.019l0.061,0.01l0.054,0.015l0.023,0.033
	l0.025,0.02l0.117,0.038l0.379,0.03l0.08-0.029l0.149,0.059l0.347,0.091l0.401,0.189l0.139,0.027l0.211,0.071l0.055,0.028
	l0.075,0.053l0.251,0.093l0.093,0.054l0.137,0.138l0.047,0.035l0.033,0.024l0.043,0.016l0.044,0.006l0.097-0.006l0.024,0.011
	l0.062,0.075l0.073,0.027l0.052-0.009l0.141-0.065l-0.068-0.023l-0.032-0.002l-0.002-0.031l0.169,0.02l0.315,0.125l0.123-0.033
	l-0.077-0.072l-0.062-0.073l0.07,0.009l0.204,0.096h0.03l0.073-0.013l0.028,0.004l0.015,0.021l0.012,0.072l0.009,0.022l0.175,0.112
	l0.135,0.143l0.159,0.129l0.011,0.015l0.013,0.015l0.028,0.012l0.039,0.006l0.037-0.006l0.032-0.007l0.025-0.002l0.11,0.056
	l0.136,0.184l0.103,0.074l-0.036,0.031l-0.136-0.079l-0.091-0.039l-0.098-0.012l-0.066-0.029l-0.16-0.202l-0.079-0.024l-0.112-0.014
	l-0.102-0.032l-0.092-0.133l-0.093-0.03l-0.08,0.031l-0.01,0.124l0.045,0.087l0.069,0.04l0.084,0.009l0.09-0.005l0.077,0.025
	l0.049,0.07l0.064,0.167l0.154,0.246l0.023,0.063l0.03,0.161l0.052,0.156l0.046,0.051l0.058,0.049l0.048,0.06l0.04,0.13l0.031,0.05
	l0.021,0.046l-0.012,0.037l-0.02,0.04l0.017,0.038l0.283,0.284l0.052,0.022l0.206,0.149l0.129,0.211l0.064,0.065l0.082,0.041
	l0.101,0.026l0.209,0.017l0.118-0.015l0.169-0.083l0.095-0.023l0.042-0.05l0.009-0.106l0.025-0.106l0.098-0.054l0.07,0.022
	l0.241,0.171l0.016-0.075l0.017-0.041l0.029-0.044l0.107,0.165l0.067,0.073l0.084,0.026l0.095,0.017l0.074,0.051l0.225,0.226
	l0.061,0.032l0.316,0.018l0.093,0.021l0.08,0.035l0.24,0.154l-0.017,0.079l-0.023,0.051l0.025,0.035l0.125,0.029l0.22-0.004
	l0.205-0.067l0.168-0.113l0.106-0.141l0.061-0.116l0.066-0.063l0.094-0.034l0.492-0.125l0.055-0.036l0.053-0.06l0.248-0.162
	l0.084-0.035l0.131-0.027l0.13-0.06l0.12-0.078l0.106-0.086l0.015,0.022l0.042,0.043l0.014,0.022l0.23-0.203l0.053-0.033
	l0.042-0.037l0.229-0.3l0.065-0.06l0.053-0.01l0.024,0.083l0.013,0.165l0.022,0.098l0.041,0.088l0.066,0.064l0.077,0.021
	l0.221-0.016l0.086-0.017l0.595-0.206l0.18-0.031l0.191-0.063l0.08-0.04l0.077-0.061l0.191-0.207l0.085-0.05l0.068-0.011
	l0.173,0.009l0.036-0.022l0.084-0.092l0.045-0.022l0.081,0.003l0.074,0.018l0.063,0.035l0.044,0.052l0.035-0.002l0.053-0.063
	l0.25-0.178l0.23-0.325l0.335-0.341l0.069-0.093l0.266-0.713l0.137-0.67l-0.133,0.004l-0.096,0.059l-0.178,0.189l-0.031-0.084
	l0.109-0.424l-0.014-0.023l-0.065-0.003l-0.086,0.023l-0.024-0.013l-0.015-0.063l-0.032,0.002l-0.031,0.107l-0.217,0.194
	l-0.051,0.08l-0.043,0.125l-0.111,0.111l-0.145,0.084l-0.139,0.043l0.036-0.049l0.021-0.012l0.047-0.011l-0.002-0.029l-0.115,0.006
	l-0.071-0.047l-0.097-0.16l0.028-0.059l-0.085-0.008l-0.117,0.007l-0.072-0.013l0.014-0.056l0.099-0.021l0.12,0.003l0.079,0.017
	l0.044-0.038l0.059-0.014l0.065-0.008l0.068-0.019l0.019,0.004l0.021-0.009l0.03-0.032l0.001-0.022l-0.022-0.017l-0.03-0.013
	l-0.022-0.005l0.056-0.029l0.059-0.012l0.129-0.008l-0.043-0.082l-0.068-0.069l-0.094-0.042l-0.114-0.002l-0.031,0.019l-0.099,0.072
	l-0.038,0.015l-0.061-0.014l-0.037-0.025l0.002-0.029l0.059-0.022l-0.001-0.035l-0.049-0.002l-0.037,0.008l-0.029,0.016
	l-0.021,0.022l-0.003-0.086l-0.032-0.042l-0.056,0.004l-0.068,0.056h-0.039l-0.161-0.058l-0.061-0.03l0.067-0.031l-0.021-0.04
	l-0.069-0.035l-0.08-0.011l0.032-0.071l-0.035-0.059l-0.062-0.055l-0.05-0.058l-0.005-0.056l0.024-0.053l0.079-0.119l-0.026,0.022
	l-0.077,0.051l-0.018-0.103l0.09-0.224l0.018-0.12l0.068,0.005l0.049-0.03l0.007-0.042l-0.059-0.035l0.073-0.021l0.05-0.045
	l0.005-0.044l-0.064-0.02l0.01-0.13l0.015-0.06l-0.121,0.084l-0.116,0.022l-0.058-0.034l0.058-0.085l-0.038-0.028l0.081-0.04
	l0.067-0.052l0.009-0.062l-0.097-0.073l0.031-0.025l0.021-0.026l0.013-0.029l0.006-0.072l0.015-0.006l0.021,0.003l0.024-0.013
	l0.087-0.078l0.013-0.034v-0.069l0.021-0.132l0.064-0.097l0.176-0.152l0.025-0.007l0.034,0.003l0.029-0.001l0.013-0.02l0.001-0.059
	l0.008-0.025l0.021-0.028l0.167-0.121l0.041-0.055l0.196-0.187l0.063-0.048l-0.029-0.041l0.017-0.053l0.048-0.047l0.063-0.026
	l0.077,0.007l0.063,0.03l0.072,0.02l0.101-0.02l0.1-0.102l0.068-0.118l-0.004-0.016l0.073-0.019l0.232-0.006l0.134-0.043h0.04
	l0.046,0.023l0.016,0.031l0.012,0.033l0.035,0.03l0.059,0.017l0.2,0.016l0.057,0.005l0.176-0.029l0.097-0.085l0.068-0.106
	l0.096-0.099l-0.001-0.035l-0.058-0.092l-0.01-0.11l0.017-0.25l-0.013-0.046l-0.066-0.137l-0.033-0.047l-0.208-0.145l-0.061-0.021
	l-0.034-0.006l-0.032-0.015l-0.032-0.005l-0.063,0.036l-0.183,0.069l-0.109,0.081l-0.072,0.01l-0.124-0.142l-0.023-0.018
	l-0.029-0.034l-0.068-0.022l-0.081-0.008l-0.064,0.002l0.055,0.044l0.157,0.044l0.033,0.036l0.002,0.063l-0.006,0.044l-0.132,0.223
	l-0.058,0.059l-0.085,0.029l-0.04-0.041l-0.035-0.078l-0.037-0.039l-0.044,0.076l-0.044-0.091l-0.057-0.007l-0.129,0.055
	l-0.024-0.04l0.029-0.098l0.07-0.154l-0.03,0.003l-0.016,0.02l-0.054,0.048l0.001-0.133l-0.007-0.026l-0.037,0.004l-0.085,0.044
	l-0.019-0.02l0.027-0.064l0.069-0.043l0.179-0.057l0.023,0.076l0.061,0.01l0.057-0.026l0.015-0.028l-0.087-0.075l-0.027-0.037
	l-0.014-0.051l0.032,0.02l0.107,0.033l-0.022-0.045l-0.011-0.018l0.029-0.031l0.093,0.01l0.136-0.101l0.078,0.03l0.046-0.036
	l0.051-0.024l0.055-0.015l0.06-0.005v-0.032l-0.067-0.019l-0.051-0.032l-0.063-0.024l-0.102,0.004l0.022-0.094l0.028-0.063
	l0.051-0.044l0.097-0.036l-0.03-0.212l0.127-0.352l0.051-0.322l-0.257-0.117l0.185-0.12l0.159-0.158l0.128-0.191l0.14-0.347
	l0.018-0.014l0.016-0.007l0.015-0.014l0.016-0.059l-0.003-0.111l0.016-0.058l0.031-0.032l0.141-0.078l0.074-0.085l0.055-0.022
	l0.076,0.027l-0.066,0.084l-0.03,0.03l-0.039,0.027v0.028l0.022,0.005l0.048,0.021l-0.033,0.071l-0.017,0.081l-0.008,0.154
	l0.045,0.038l0.099,0.056l0.099,0.074l0.046,0.094l-0.018,0.085l-0.086,0.176l-0.032,0.256l0.005,0.099l0.036,0.042l0.042,0.038
	l-0.032,0.1l-0.057,0.112l-0.027,0.075l0.032,0.079l0.069,0.042l0.424,0.109l0.105-0.001l0.01-0.04l0.014-0.019l0.029,0.008
	l0.024,0.01l0.025,0.001l0.056-0.006l0.057-0.018l0.014-0.033l-0.018-0.04l-0.04-0.038l0.205-0.17l0.029-0.025l0.033-0.036
	l0.147-0.299l0.077-0.066l0.213-0.134l0.018-0.022l0.04-0.064l0.026-0.017l0.055-0.004l0.042-0.008l0.143-0.037l0.111-0.065
	l0.081-0.081l0.029-0.085l0.042-0.085l0.107-0.062l0.222-0.094l-0.089-0.01l0.019-0.051l0.07-0.062l0.065-0.042l-0.007,0.31
	l0.045,0.098l0.136,0.026l0.087,0.004l0.068,0.015l0.067,0.006l0.077-0.023l0.144-0.092l0.062,0.004l0.037,0.101l0.038-0.003
	l0.035-0.024l0.025-0.001l0.044,0.015l0.051-0.104l0.013-0.039l-0.004-0.055l-0.022-0.046l-0.069-0.065l-0.016-0.023l-0.25-0.152
	l-0.047-0.021l-0.044-0.014l-0.034-0.025l-0.019-0.055l0.011-0.055l0.071-0.057l0.017-0.043l0.001-0.046l0.011-0.036l0.025-0.023
	l0.045-0.011l0.004-0.028l0.042-0.17l0.031-0.064l0.057-0.079l0.065-0.068l0.063-0.032l0.187-0.223l0.032-0.051l-0.048-0.042
	l-0.218-0.078l-0.072-0.012l-0.022-0.046l0.024-0.112l0.044-0.113l0.029-0.056l0.09-0.025l0.097,0.003l0.057,0.033l-0.03,0.063
	l0.079,0.047l0.059,0.025l0.146,0.032l0.188,0.067l0.048,0.008l0.079-0.022l0.112-0.077l0.327-0.073l0.088-0.01l0.617,0.006
	l0.078,0.023l0.101,0.123l0.078,0.023l0.086-0.022l0.053-0.027l0.041,0.002l0.054,0.059l0.03-0.027l0.103-0.05l0.022,0.054
	l0.064,0.072l0.022,0.052l0.01,0.06l-0.002,0.151l-0.044,0.131l-0.11,0.118l-0.215,0.155l-0.055-0.004l-0.007,0.017l0.016,0.031
	l0.011,0.04l-0.083,0.078l-0.045,0.101l-0.076,0.046l-0.097,0.042l-0.185,0.113l-0.102,0.006l-0.103-0.01l-0.105,0.002l-0.127,0.043
	l-0.053,0.062l-0.031,0.081l-0.062,0.097l-0.007-0.118l-0.042-0.088l-0.073-0.062l-0.1-0.037l0.026-0.053l0.079-0.082l0.027-0.037
	l0.017-0.045l-0.004-0.025l-0.01-0.026l-0.008-0.046l-0.019-0.056l-0.041-0.012l-0.051,0.003l-0.049-0.017l-0.025-0.046l0.009-0.051
	l0.02-0.046l0.007-0.033l-0.041-0.073l-0.074-0.066l-0.094-0.044l-0.097-0.014l-0.127,0.053l-0.026,0.098l0.045,0.212l-0.013,0.084
	l-0.067,0.15l-0.014,0.079l0.044,0.051l0.099,0.027l0.107,0.016l0.069,0.02l0.133,0.099l0.06,0.071l0.034,0.108l0.027,0.041
	l0.007,0.028l-0.01,0.027l-0.046,0.046l-0.011,0.03l0.021,0.021l0.091,0.042l0.029,0.038l0.01,0.016l0.021,0.025l0.006,0.02
	l-0.069,0.031l-0.066,0.045l-0.023-0.049l-0.036-0.037l-0.035-0.003l-0.013,0.05l0.011,0.12l0.016,0.027l0.03-0.024l0.04-0.015
	l0.051-0.008l-0.095,0.105l-0.11-0.033l-0.114-0.069l-0.019,0.026l0.018,0.033l0.006,0.047l0.018,0.056l0.035,0.02l0.046,0.006
	l0.042,0.017l0.053,0.03l0.02,0.002l0.003,0.013l0.001,0.063l-0.014,0.079l-0.017,0.052l-0.018,0.033l-0.155,0.141l-0.049,0.061
	l-0.049,0.095l-0.017,0.049l-0.009,0.04l-0.015,0.039l-0.04,0.049l-0.104,0.079l-0.049,0.098l-0.167,0.098l-0.037,0.045
	l-0.009,0.104l-0.018,0.079l-0.002,0.079l0.041,0.104l0.096,0.139l0.038,0.092l-0.037,0.046l-0.082,0.028l-0.092,0.046l-0.087,0.024
	l-0.068-0.039l-0.179,0.085l-0.403-0.089l-0.187,0.037l-0.09,0.083l-0.125,0.182l-0.09,0.079l-0.044,0.022l-0.078,0.032
	l-0.046,0.023l-0.138,0.138l-0.141-0.016l-0.171,0.056l-0.142,0.1l-0.059,0.109l-0.033,0.135l-0.158,0.256l-0.033,0.136
	l-0.008,0.078l-0.043,0.108l-0.01,0.072l-0.021,0.047l-0.11,0.12l-0.209,0.305l-0.024,0.061l-0.035,0.066l-0.176,0.153l-0.059,0.071
	l-0.214-0.204l-0.264,0.246l-0.097,0.12l-0.072,0.146l0.031-0.003l-0.029,0.031l-0.035-0.025l-0.006-0.058l-0.042,0.025
	l-0.053,0.068l-0.037,0.067l-0.031,0.183l-0.03,0.044l0.059,0.05l0.008,0.06l-0.03,0.061l-0.063,0.052l-0.021-0.008l-0.027-0.029
	l-0.032-0.02l-0.039,0.02l-0.146,0.15l-0.035,0.06l-0.023,0.064l-0.007,0.057l-0.034,0.022l-0.065,0.018l-0.042,0.028l0.035,0.052
	l-0.048,0.024l-0.072,0.064l-0.03,0.016l-0.012,0.017l0.138,0.085l-0.008,0.26l-0.037,0.115l-0.076,0.091l0.068,0.009l0.078-0.04
	l0.063-0.066l0.025-0.064l0.038-0.02l0.336-0.25l0.088-0.052l0.063-0.001l0.075,0.022l0.105-0.014l0.181-0.053l-0.02,0.103
	l0.096,0.015l0.225-0.043l0.125-0.038l0.106-0.079l0.173-0.185l0.203-0.347l0.077-0.072l0.084,0.01l-0.054,0.11l-0.155,0.208
	l0.079-0.033l0.197-0.135l0.25-0.223l0.085-0.06l0.101-0.048l0.206-0.06l0.189-0.035l0.208-0.017l0.056-0.012l0.037-0.023
	l0.031-0.023l0.032-0.016l0.105-0.018l0.062-0.003l0.042,0.004l0.018,0.023l0.017,0.042l0.022,0.039l0.033,0.016l0.056,0.042
	l0.069,0.101l0.057,0.113l0.021,0.076l-0.05,0.083l-0.269,0.326l-0.103-0.004l-0.183-0.035l-0.079,0.001l-0.288,0.106l-0.634,0.502
	l-0.034,0.014l-0.065,0.012l-0.035,0.019l-0.088,0.095l-0.044,0.033l-0.054,0.134l-0.067,0.035l-0.087,0.08l0.011,0.278
	l-0.071,0.001l-0.026,0.084l-0.008,0.156l-0.04,0.066l-0.042,0.021l-0.085,0.023l-0.044,0.031l-0.048,0.041l-0.423,0.278
	l-0.14,0.126l-0.116,0.16l0.099,0.022l-0.021,0.069l-0.065,0.083l-0.037,0.063l0.007,0.088l-0.01,0.017l-0.157,0.176l-0.035,0.062
	l-0.017,0.057l-0.008,0.052l-0.015,0.05l-0.086,0.1l-0.036,0.055l-0.027,0.054l-0.036,0.151l-0.076,0.071l-0.089,0.057l-0.076,0.076
	l-0.001,0.038l-0.059,0.178l-0.035,0.072l0.07,0.024l0.056,0.077l0.068,0.011l0.027,0.033l0.067,0.214l0.022,0.022l0.083,0.064
	l0.003,0.039l-0.02,0.08l0.005,0.023l0.045,0.056l0.054,0.127l0.068,0.082l0.017,0.032l0.011,0.034l0.007,0.076l0.005,0.022
	l0.034,0.042l0.167,0.126l0.118,0.089l0.352-0.056l0.129,0.012l-0.001-0.044l0.005-0.03l0.022-0.056l0.161,0.125l0.034,0.018
	l-0.044,0.192l-0.001,0.064l0.054,0.084l0.221,0.249l0.103,0.083l-0.023,0.072l-0.041,0.068l-0.02,0.021l-0.051,0.128l-0.011,0.061
	l-0.001,0.083l-0.013,0.041l-0.026,0.04l-0.023,0.052l-0.002,0.073l0.04,0.147l0.033,0.069l0.041,0.063l-0.017,0.046l-0.021,0.106
	l-0.027,0.042l-0.044,0.025l-0.028-0.013l-0.029-0.026l-0.055-0.011l-0.123-0.003l-0.09-0.013l-0.083,0.001l-0.182,0.074l-0.02,0.02
	l-0.061,0.092l-0.026,0.06l-0.013,0.059l0.018,0.045l0.449,0.329l0.025,0.035l-0.026,0.037l-0.059,0.026l-0.058,0.011l-0.027-0.018
	l-0.026-0.036l-0.06-0.02l-0.059-0.013l-0.026-0.017l-0.01-0.059l-0.023-0.032l-0.043-0.01l-0.068,0.003l-0.08,0.08l-0.022,0.018
	l-0.058,0.005l-0.108-0.018l-0.057-0.003l-0.081,0.007l-0.084,0.017l-0.073,0.032l-0.05,0.055l-0.026,0.085l-0.044,0.412
	l-0.049,0.189v0.102l0.037,0.084l0.069,0.03l0.088-0.021l0.099-0.067l0.104-0.045l0.021,0.088l-0.033,0.189l0.068,0.04l0.094-0.022
	l0.102-0.045l0.099-0.028l0.059,0.026l-0.043,0.064l-0.131,0.106l-0.179,0.046l-0.427,0.033l-0.187,0.088l-0.014-0.069l-0.05-0.053
	l-0.053-0.024l-0.024,0.016l-0.03,0.056l-0.074,0.015l-0.295-0.003l-0.139,0.019l-0.102,0.059l-0.037,0.128l-0.038,0.001
	l-0.039-0.067l-0.045-0.005l-0.045,0.041l-0.041,0.072v-0.043l-0.009-0.03l-0.028-0.051l-0.033,0.002l-0.059,0.067l-0.089-0.034
	l-0.099-0.07l-0.082-0.035l-0.082-0.024l-0.039-0.07l-0.038-0.179l-0.03-0.064l-0.047-0.068l-0.057-0.051l-0.06-0.021l-0.03-0.021
	l-0.052-0.108l-0.026-0.036l-0.167-0.086l-0.428-0.376l-0.019-0.035l-0.006-0.051l0.003-0.099l-0.014-0.031l-0.094-0.073
	l-0.098-0.116l-0.067-0.041l-0.094-0.012l-0.117,0.025l-0.167,0.107l-0.104,0.045l-0.202,0.044l-0.067,0.034l-0.191,0.145
	l-0.061,0.024l-0.029,0.038l-0.086,0.218l-0.026,0.016l-0.033,0.004l-0.026,0.014l-0.011,0.048l-0.004,0.445l-0.045,0.283
	l-0.007,0.027l-0.012,0.037l-0.026,0.063l-0.04,0.048l-0.061,0.02l-0.17,0.006l-0.083,0.012l-0.068,0.031l0.16-0.003l0.043-0.008
	l0.017,0.013l0.052,0.045l-0.032,0.019l-0.004,0.013l0.037,0.03l-0.33-0.034l-0.079,0.023l-0.008,0.071l0.097,0.033l0.222,0.003
	l-0.053,0.097l0.065,0.031l0.048-0.004l0.195-0.015l0.321,0.026l0.101-0.019l0.211-0.188l0.056-0.021l0.057,0.021l0.076,0.005
	l0.351-0.106l0.224-0.031l0.193,0.033l0.131,0.1l0.038,0.171l-0.013,0.043l-0.017,0.033l-0.011,0.035l0.007,0.048l0.021,0.013
	l0.036,0.006l0.034,0.023l0.017,0.063l-0.016,0.019l-0.036,0.015l-0.036,0.022l-0.061,0.211l-0.017,0.037l-0.12,0.098l-0.139,0.031
	l-0.299-0.005l-0.168,0.025l-0.092,0.053l-0.129,0.192l0.033,0.049l0.004,0.046l-0.02,0.037l-0.044,0.023l0.002,0.031l-0.22,0.158
	l-0.153,0.057l-0.072-0.081l-0.018-0.051l-0.037,0.035l-0.058,0.1l-0.057-0.012l-0.045-0.034l-0.041-0.04l-0.044-0.03l0.005-0.027
	l-0.021-0.025l-0.04-0.021l-0.055-0.014l-0.005,0.075l-0.012,0.036l-0.028,0.018l-0.056,0.007l-0.023,0.018l-0.005,0.032
	l0.003,0.054l-0.036,0.049l-0.065,0.048l-0.032,0.051l0.067,0.057l0.116-0.031l0.174,0.01l0.165,0.036l0.089,0.048l0.007,0.062
	l-0.019,0.083l-0.031,0.073l-0.033,0.032l-0.056,0.027l-0.041,0.117l-0.048,0.048l-0.018-0.036l-0.022-0.022l-0.028-0.015
	l-0.04-0.013l0.011,0.02l0.026,0.071l-0.368,0.124l-0.187,0.04l-0.45-0.008l-0.198,0.028l-0.706,0.192l-0.045,0.046l-0.02,0.027
	l-0.049,0.005l-0.085-0.009l-0.112,0.005l-0.038,0.019l-0.148,0.1l-0.161,0.083l-0.074,0.051l-0.26,0.265l-0.09,0.044l-0.042-0.011
	l-0.047-0.063l-0.027-0.014l-0.046,0.004l-0.035,0.007l-0.07,0.027l0.055-0.086l-0.023-0.089l-0.078-0.07l-0.113-0.024l-0.033,0.011
	l-0.037,0.022l-0.03,0.027l-0.012,0.023l-0.024,0.013l-0.054,0.013l-0.058,0.022l-0.035,0.038l0.02,0.005l0.05,0.021l-0.186,0.089
	l-0.064,0.015l-0.054-0.009l-0.13-0.052l-0.068-0.018l-0.142,0.02l-0.069,0.08l-0.062,0.097l-0.122,0.07l-0.026-0.098l-0.078-0.017
	l-0.204,0.036l-0.085-0.011l-0.071-0.017l-0.077-0.007l-0.102,0.021l-0.197,0.082l-0.097,0.057l-0.068,0.063l-0.029,0.115
	l0.069,0.067l0.075,0.051l-0.008,0.067l0.02,0.013l0.05,0.047l-0.144,0.074l-0.559,0.018l-0.081-0.006l-0.207-0.056l-0.099-0.01
	l-0.043,0.017l-0.073,0.066l-0.049,0.016l-0.151,0.017l-0.064-0.006l-0.313-0.066l-0.203-0.015l-0.096-0.035l-0.079-0.045
	l-0.048-0.045l-0.005-0.02l0.007-0.05l-0.004-0.02l-0.058-0.072l-0.012-0.019l-0.022-0.07l-0.012-0.094l0.029-0.111l0.076-0.045
	l0.097-0.005l0.46,0.083l0.04-0.059l0.048-0.204l0.022-0.045l0.04-0.029l0.143-0.136l0.03-0.046l-0.006-0.097l0.007-0.057
	l0.037-0.053l0.088-0.086l-0.014-0.034l0.018-0.016l0.31-0.058l0.097-0.028l0.066-0.063l0.044-0.09l0.058-0.21v-0.104l-0.024-0.093
	l-0.057-0.077l-0.02-0.043l-0.021-0.153l0.052-0.067l0.133,0.027l-0.048-0.051l-0.106-0.045l-0.052-0.046l0.02-0.033l0.008-0.052
	l-0.015-0.047l-0.051-0.015l-0.035,0.03l0.017,0.057l0.025,0.058l-0.002,0.036l-0.066-0.009l-0.147-0.151l-0.075-0.036l-0.05-0.017
	l-0.099-0.08l-0.057-0.017l-0.196,0.011l-0.112,0.027l-0.111,0.059l-0.189,0.151l0.1-0.005l-0.04,0.024l-0.028,0.031l-0.031,0.028
	l-0.794,0.149l-0.181,0.068l-0.249-0.021l-0.115,0.045l-0.114,0.067l-0.091,0.04l-0.044-0.038l0.019-0.001l0.011-0.014l0.003-0.03
	l-0.002-0.051l-0.032,0.001l-0.062,0.027l-0.104,0l-0.111-0.017l-0.171-0.071l-0.103,0.016l-0.105,0.038l-0.105,0.022h-0.105
	l-0.048-0.007L1382,249.5l-0.058-0.027l-0.029-0.03l-0.025-0.034l-0.042-0.038l-0.548-0.307l-0.099-0.025l-0.126-0.003l-0.822,0.133
	l-0.024,0.01l-0.065,0.047l-0.04,0.013l-0.072-0.001l-0.208-0.028l-0.279,0.033l-0.026-0.013l-0.095-0.074l-0.056-0.032
	l-0.044-0.017l-0.045-0.004l-0.054,0.001l-0.164,0.046l-0.352,0.167l-0.104,0.003l-0.05,0.196l-0.039,0.077l-0.083,0.035
	l-0.585-0.054l-0.045-0.042l-0.018-0.091l-0.034-0.075l-0.077-0.041l-0.088-0.013l-0.065,0.004l-0.072,0.04l-0.05,0.052
	l-0.051,0.027l-0.072-0.028l-0.132-0.097l-0.071-0.02h-0.109l-0.197,0.029l-0.068-0.008l-0.157-0.095l-0.206-0.08l-0.064-0.017
	h-0.081l-0.104,0.012l-0.098,0.022l-0.061,0.03l-0.067-0.009l-0.546-0.214l0.009,0.011l-0.017,0.014l-0.029,0.012l-0.026,0.001
	l-0.009-0.013l-0.009-0.02l-0.011-0.018l-0.02-0.007l-0.06-0.016l-0.254-0.116l-0.158-0.047l-0.188-0.021l-0.195,0.017l-0.176,0.06
	l-0.125,0.059l-0.081,0.008l-0.072-0.036l-0.1-0.083l-0.081-0.084l-0.016-0.068l0.037-0.187l-0.013-0.09l-0.077-0.188l-0.02-0.081
	l-0.043-0.069l-0.096-0.015l-0.109,0.005l-0.083-0.009l-0.069-0.055l-0.043-0.085l-0.01-0.091l0.031-0.074l0.086-0.07l0.188-0.124
	L1373.552,247.4z M1371.966,245.124l0.01-0.04l-0.004-0.047l0.081,0.1l0.049,0.092l0.03,0.105l0.05,0.379l-0.013,0.103l-0.07,0.073
	l-0.065,0.021l-0.022-0.02l-0.009-0.083l-0.09-0.226l-0.024-0.151l-0.03-0.12l0.011-0.058l0.046-0.062l0.032-0.033L1371.966,245.124
	z M1371.327,242.991l0.042-0.02l0.031-0.031l0.046-0.058l0.063-0.036l0.057,0.004l0.055,0.111l0.139,0.078l0.071,0.049l0.138,0.14
	l0.086,0.056l0.094,0.02l0.043,0.037l-0.009,0.081l-0.045,0.06l-0.067-0.024l-0.095,0.005l-0.079-0.083l-0.081-0.052l-0.104,0.099
	l-0.055-0.042l-0.077-0.026l-0.067-0.008l-0.03,0.016l-0.021-0.032l-0.102-0.051l-0.044-0.04l0.003-0.023l0.018-0.032l0.011-0.027
	l-0.02-0.009l-0.009-0.014l-0.035-0.063l-0.009-0.021l0.015-0.042L1371.327,242.991z M1371.233,246.031l0.13,0.053l-0.143,0.162
	l-0.07,0.059l-0.102,0.034l-0.116-0.001l-0.2-0.056l-0.109-0.005l0.022-0.039l0.024-0.029l0.033-0.019l0.191-0.049l0.172-0.07
	L1371.233,246.031z M1369.605,245.302l0.008-0.08l-0.021-0.076l-0.033-0.064l-0.007-0.052l0.051-0.044l0.224-0.016l0.017,0.003
	l0.016,0.001l0.034-0.008l0.063-0.055l0.017-0.009l0.015-0.006l0.02-0.011l0.027-0.011l0.034-0.007l0.019,0.013l0.002,0.035
	l-0.003,0.04l0.004,0.03l0.025,0.025l0.03,0.009l0.027,0.013l0.015,0.035l-0.043,0.12l-0.026,0.029l-0.095,0.172l-0.005,0.022
	l0.003,0.031l-0.005,0.034l-0.02,0.032l-0.037,0.026l-0.107,0.059l-0.163,0.147l-0.027-0.003l-0.012-0.071l-0.029-0.046
	l-0.095-0.067L1369.605,245.302z M1368.684,243.018l0.058,0.021l0.166,0.009l0.068,0.035l0.037,0.071l-0.021,0.061l-0.103,0.109
	l-0.046,0.08l-0.031,0.034l-0.046,0.014l-0.049-0.002l-0.011-0.014l0.001-0.026l-0.021-0.085l0.009-0.065l-0.003-0.037l-0.02-0.03
	l-0.055-0.048l-0.011-0.033l0.009-0.024l0.021-0.037l0.026-0.03L1368.684,243.018z M1365.366,243.833l0.003,0.046l-0.218,0.065
	l-0.062,0.011l-0.032-0.001l-0.024-0.012l-0.011-0.075l0.062-0.089l0.09-0.065l0.076-0.001l0.103,0.091L1365.366,243.833z
	 M1364.97,243.451l0.032,0.079l-0.022,0.073l-0.1,0.033l-0.083-0.021l-0.279-0.157l-0.042-0.006l-0.061-0.056l-0.054-0.071
	l-0.024-0.049l0.008-0.041l0.023-0.037l0.035-0.024l0.044-0.001l0.04,0.021l0.115,0.144l0.093,0.088l0.032,0.02l0.061-0.015
	l0.034-0.023l0.031-0.015l0.051,0.008L1364.97,243.451z M1363.391,244.107l0.042,0.109l-0.052,0.076l-0.127-0.013l-0.137-0.05
	l-0.134-0.068l-0.157-0.049l-0.053-0.031l-0.034-0.04l-0.001-0.042l0.046-0.042l0.063-0.023l0.067-0.01l0.069-0.002l0.066,0.008
	l0.123,0.032l0.123,0.06L1363.391,244.107z M1361.67,243.773l0.006,0.029l-0.041-0.019L1361.67,243.773z M1361.422,243.717
	l0.055,0.017l-0.044,0.01l-0.028-0.012L1361.422,243.717z"/></svg>