<?xml version="1.0" encoding="utf-8"?>
<!-- Generator: Adobe Illustrator 15.0.0, SVG Export Plug-In . SVG Version: 6.00 Build 0)  -->
<!DOCTYPE svg PUBLIC "-//W3C//DTD SVG 1.1//EN" "http://www.w3.org/Graphics/SVG/1.1/DTD/svg11.dtd">
<svg version="1.1" id="Ebene_1" xmlns="http://www.w3.org/2000/svg" xmlns:xlink="http://www.w3.org/1999/xlink" x="0px" y="0px"
	 width="1920px" height="1080px" viewBox="0 0 1920 1080" enable-background="new 0 0 1920 1080" xml:space="preserve">

<path fill="#F4E0B6" stroke="#FFFFFF" d="M1038.229,538.545l-0.002,0.009l0.001,0.01l0.003,0.008l0.008,0.007l0.058,0.011
	l0.017,0.043l0.005,0.05l0.024,0.035l0.04-0.007l0.106-0.062l0.05-0.009l0.075,0.04l0.271,0.218l-0.032,0.037l0.057,0.055
	l0.072,0.014l0.205-0.051l0.015,0.027l-0.006,0.044l-0.021,0.049l0.007,0.015l-0.054,0.058l-0.067,0.101l-0.025,0.096l0.069,0.046
	l-0.011,0.042l0.011,0.02l0.027,0.003l0.035-0.005l-0.011,0.045l0.032,0.014l0.042,0.045l0.029,0.013l0.03-0.007l0.09-0.058
	l0.004-0.007l0.007-0.006l0.008,0.001l0.009,0.004l0.052,0.008l0.138-0.006l0.054-0.013l-0.021,0.042l0.005,0.038l0.022,0.038
	l0.031,0.041l0.039,0.035l0.023-0.002l0.016,0.012l0.023,0.074l0.016,0.112v0.066l0.022,0.053l0.163,0.146l0.012,0.028l0.016,0.032
	l-0.024,0.049l-0.073,0.036l-0.042,0.003l-0.038-0.003l-0.033,0.006l-0.033,0.034l-0.018,0.042l-0.004,0.05l0.009,0.046l0.026,0.036
	l-0.037,0.063l-0.116,0.07l-0.051,0.045l-0.015,0.052l-0.051,0.064l-0.018,0.047l0.055,0.032l0.033,0.046l0.016,0.05l-0.003,0.048
	l-0.018,0.021l-0.058,0.021l-0.021,0.023v0.016l0.007,0.053l0.001,0.023l0.039,0.016l0.02,0.025l0.001,0.032l-0.016,0.038
	l-0.051-0.007l-0.02-0.034l-0.011-0.043l-0.027-0.038l-0.05-0.025l-0.022,0.01l-0.013,0.024l-0.02,0.022l-0.064,0.029l-0.036,0.004
	l-0.014-0.003l-0.031-0.004l-0.028-0.029l-0.024-0.039l-0.026-0.016l-0.034,0.048l-0.062,0.023l-0.01,0.048l0.008,0.065l-0.002,0.07
	l-0.028,0.058l-0.093,0.082l-0.035,0.058l-0.001,0.031l0.019,0.075l0.003,0.032l-0.009,0.031l-0.031,0.047l-0.008,0.034l0.02,0.051
	l0.016,0.041l0.004,0.038l-0.014,0.028l-0.052,0.043l-0.011,0.028l0.018,0.063l0.029,0.02l0.021,0.021l-0.013,0.071l-0.017,0.029
	l-0.04,0.022l-0.018,0.021l-0.012,0.034l-0.004,0.027l0.001,0.024l-0.003,0.032l-0.045,0.202l0.003,0.046l0.04,0.007l0.083,0.033
	l0.041,0.031l-0.08,0.015l0.008,0.025v0.014l-0.002,0.013l0.001,0.017l0.038,0.02l-0.028,0.032l0.001,0.047l0.022,0.053l0.037,0.051
	l0.05,0.043l0.034,0.007l0.034-0.004l0.046,0.013l0.029,0.022l0.116,0.117l0.013,0.02l0.027,0.061l0.002,0.012l0.023,0.01
	l0.046,0.001l0.022,0.004h0.018l0.018-0.013l0.02-0.002l0.026,0.021l0.004,0.01l0.012,0.023l-0.005,0.021l-0.01,0.021l0.004,0.024
	l0.008,0.029l-0.004,0.018l0.002,0.018l0.021,0.029l0.026,0.009l0.063-0.009l0.027,0.013l0.039,0.058l-0.005,0.045l-0.021,0.035
	l-0.015,0.033l-0.003,0.114l-0.009,0.052l-0.023,0.039l0.06,0.014l-0.004,0.078l-0.045,0.09l-0.061,0.054h-0.038l-0.079-0.021
	l-0.033,0.004l-0.027,0.025l-0.022,0.061l-0.032,0.025l-0.068,0.007l-0.074-0.013l-0.073,0.003l-0.063,0.056l-0.021,0.058
	l0.004,0.035l-0.004,0.02l-0.043,0.02h-0.027l-0.109-0.019l-0.048,0.041l-0.057,0.077l-0.063,0.065l-0.071,0.002l-0.032-0.035
	l-0.01-0.042l-0.005-0.045l-0.015-0.048l-0.025-0.036l-0.23-0.217l-0.043-0.02l-0.029-0.015l-0.105-0.008l-0.04-0.012l-0.02,0.002
	l-0.007,0.015l-0.005,0.028l-0.01,0.026l-0.02,0.013l-0.053,0.004l-0.021-0.014l-0.021-0.039l-0.012-0.065l0.02-0.022l0.009-0.02
	l-0.044-0.063l-0.081-0.054l-0.084-0.043l-0.064,0.019l-0.124,0.072l-0.076-0.001l-0.068-0.025l-0.058-0.031l-0.188-0.146
	l-0.048-0.023l-0.117-0.002l-0.07-0.019l-0.148-0.078l-0.063-0.016l-0.009,0.003l-0.054,0.017l-0.116,0.079l-0.064,0.027
	l-0.083,0.01l-0.039-0.027l-0.055-0.17l-0.016-0.023l-0.045-0.041l-0.014-0.021l-0.004-0.029l0.018-0.037l0.002-0.026l-0.002-0.059
	l0.003-0.042l-0.005-0.042l-0.024-0.058l-0.074-0.071l-0.161-0.02l-0.062-0.054l-0.01-0.075l0.025-0.31l-0.013-0.049l-0.018-0.037
	l-0.009-0.042l0.017-0.135l0.017-0.01l0.044,0.027l-0.019-0.081l-0.015-0.099l-0.022-0.08l-0.039-0.027l-0.088,0.042l-0.038-0.005
	l-0.036-0.064l-0.07,0.057l-0.219,0.396l-0.006,0.04l0.006,0.047l0.017,0.024l0.019,0.021l0.013,0.03l0.024,0.151l0.002,0.077
	l-0.012,0.059l-0.025,0.029l-0.121,0.052l-0.356,0.308l-0.085,0.037h-0.024l-0.493-0.007l-0.18,0.071l-0.043,0.019l-0.045-0.002
	l-0.197-0.047h0.001l0.023-0.003l-0.024-0.066l-0.04-0.065l-0.017-0.001l-0.004-0.058l0.004-0.038l0.015-0.032l0.039-0.063
	l0.056-0.065l0.062-0.052l-0.009-0.031l-0.031-0.03l-0.032-0.039l-0.114-0.183l-0.035-0.008l-0.031,0.012l-0.051,0.043l-0.051-0.012
	l-0.019-0.084v-0.196l-0.009-0.087l0.002-0.04l0.018-0.054l0.055-0.07l0.02-0.04l-0.009-0.049l-0.028-0.025l-0.047-0.024
	l-0.049-0.014l-0.03-0.003l-0.033,0.025l0.008,0.029l0.015,0.031l-0.016,0.025l-0.064-0.012l-0.137-0.151l-0.08-0.039l-0.076-0.02
	l-0.134-0.084l-0.067-0.013l-0.063,0.022l-0.167,0.125l-0.068,0.017l-0.063-0.012l-0.063-0.022l-0.073-0.017l-0.131,0.016
	l-0.129,0.042l-0.037,0.023l-0.015,0.034l-0.027,0.102l-0.001,0.041l-0.005,0.016l-0.011,0.013l-0.007-0.003l-0.002,0.004
	l-0.003,0.032l-0.138-0.071l-0.085-0.181l-0.066-0.213l-0.081-0.171l-0.075-0.075l-0.079-0.041l-0.075-0.017l-0.073,0.003
	l-0.196,0.045l-0.046-0.019l0.013-0.058l-0.006-0.038l-0.027-0.02l-0.048-0.003l-0.042,0.013l-0.026,0.028l-0.02,0.036l-0.033,0.039
	l-0.118,0.077l-0.071,0.027l-0.058-0.003l-0.153-0.037l-0.05-0.02l-0.065-0.049l-0.031-0.048l-0.051-0.146l-0.16-0.241l-0.063-0.127
	l0.018-0.085l-0.067-0.103l-0.037-0.036l-0.045-0.004l-0.045,0.004l-0.032-0.021l-0.064-0.08l-0.064-0.063l0,0l-0.077-0.076
	l-0.065-0.035l-0.086-0.006l-0.22,0.127l-0.145,0.084l-0.058,0.058l-0.039,0.07l-0.045,0.173l-0.03,0.04h-0.051l-0.017-0.002
	l-0.276-0.053l-0.07-0.034l-0.024-0.025l-0.069-0.084l-0.026-0.027l-0.146-0.078l-0.029-0.031l-0.02-0.028l-0.022-0.024
	l-0.046-0.011l-0.03,0.002l-0.055,0.021l-0.026,0.004h-0.047l-0.025-0.004l-0.024-0.022l-0.042-0.053l-0.02-0.012l-0.043-0.01
	l-0.015-0.014l-0.003-0.021l0.01-0.056l-0.007-0.031l-0.12-0.19l0.006-0.046l0.049-0.083l0.011-0.032l-0.037-0.09l-0.069-0.059
	l-0.144-0.091l-0.057-0.084l-0.092-0.197l-0.078-0.097l0,0l0.048-0.056l0.105-0.062l0.323-0.391l0.522-0.495l0.49-0.52l0.609-0.362
	h0.001l0.081,0.171l0.023,0.119l0.031,0.108l0.077,0.105l0.097,0.062l0.024,0.004l0.08,0.016l0.1-0.011l0.136-0.055l-0.006-0.045
	l-0.025-0.056l-0.011-0.055l0.022-0.041l0.041-0.021l0.047-0.014l0.111-0.053l0.073-0.021l0.08-0.006l0.403,0.034l0.067,0.022
	l0.034,0.056l0.011,0.052l0.02,0.047l0.062,0.041l0.042,0.007l0.353-0.087l0.061-0.038l0.104-0.135l0.313-0.269l0.112-0.147
	l0.067-0.182l0.002-0.05l-0.012-0.112l-0.005-0.02l0,0l0.002,0.001l0.073,0.037l0.038,0.041l0.048,0.079l0.067,0.046l0.068,0.034
	l0.051,0.035l0.021,0.026l0.013,0.028l0.003,0.034l-0.01,0.036l-0.003,0.011l0.029-0.025l0.015-0.032l0.016-0.098l-0.114-0.019
	l-0.028-0.012l-0.024-0.038l-0.03-0.1l-0.023-0.046l-0.034-0.031l-0.061-0.042l0,0l0.061-0.012l0.026-0.006l0.126,0.031l0.063,0.006
	l0.141-0.025l0.048-0.042l-0.011-0.083l-0.032-0.041l-0.091-0.062l-0.037-0.035l-0.013-0.048l0.009-0.041l-0.004-0.034l-0.048-0.029
	l0.126-0.125l0.141-0.095l0.083-0.035l0.039-0.003l0.036,0.032l0.021,0.079l-0.006,0.063l0.009,0.045l0.069,0.026l0.04-0.005
	l0.08-0.037h0.102l0.046-0.014l0.034-0.023l0.024-0.031l0.14-0.328l0.082-0.073l0.044-0.005l0.06,0.007l0.061,0.02l0.043,0.031
	l0.028,0.067l0.003,0.07l0.01,0.073l0.048,0.074l-0.148-0.027l-0.032,0.013l0.003,0.059l0.069,0.011l0.21-0.043l0.058,0.001
	l0.131,0.022l0.059-0.034l0.052-0.089l0.038-0.105l0.022-0.085l0.003-0.062l-0.005-0.046l0.009-0.031l0.041-0.022l0.012,0.008
	l0.107,0.035l0.092,0.093l0.016,0.078l-0.009,0.083l0.022,0.101l0.033,0.04l0.138,0.084l0.028,0.035l0.063,0.094l0.024,0.026
	l0.06,0.016l0.111-0.04l0.056-0.008l0.073,0.052l0.056,0.161h0.056l0.018-0.01l0.085-0.046l0.354-0.074l0.055-0.038l0.094-0.116
	l0.05-0.042l0.065-0.01l0.082,0.025l0.078,0.056l0.051,0.082l0.044,0.101l0.021,0.011l0.064,0.028l0.183,0.007l0.048,0.015
	l0.039,0.025l0.04,0.014l0.05-0.014l0.115-0.056l0.038-0.007l0.058,0.015l0.09,0.067l0.049,0.021l0.084-0.046l0.051-0.008
	l0.045,0.05l0.016,0.02l-0.028,0.05l0.008,0.055l0.091,0.053l-0.021,0.024l-0.026,0.02l-0.03,0.014l-0.032,0.006l0.019,0.031
	l0.009,0.011l0.014,0.017v0.069l-0.005,0.037l-0.012,0.035l-0.045-0.02l-0.02,0.021v0.048l0.014,0.062l0.058,0.042l-0.01,0.123
	l-0.054,0.212l0.06-0.035l0.028-0.007l0.034,0.008l-0.016,0.066l-0.015,0.117l-0.02,0.066l-0.011,0.016l-0.03,0.021l-0.029,0.022
	l-0.136,0.287l0.04,0.1l0.071,0.056l0.061,0.021l0.022,0.007l0.073,0.014h0.051l0.012,0.055l0.005,0.112l0.063,0.017l0.035-0.001
	l0.028-0.015l0.008-0.025l0.016-0.055l0.02-0.026l0.033,0.003l0.082,0.049l0.038,0.013l0.253-0.074l0.037,0.001l0,0l0.036,0.003
	l0.217-0.05L1038.229,538.545z"/></svg>