<?xml version="1.0" encoding="utf-8"?>
<!-- Generator: Adobe Illustrator 15.0.0, SVG Export Plug-In . SVG Version: 6.00 Build 0)  -->
<!DOCTYPE svg PUBLIC "-//W3C//DTD SVG 1.1//EN" "http://www.w3.org/Graphics/SVG/1.1/DTD/svg11.dtd">
<svg version="1.1" id="Ebene_1" xmlns="http://www.w3.org/2000/svg" xmlns:xlink="http://www.w3.org/1999/xlink" x="0px" y="0px"
	 width="1920px" height="1080px" viewBox="0 0 1920 1080" enable-background="new 0 0 1920 1080" xml:space="preserve">

<path fill="#F4E0B6" stroke="#FFFFFF" d="M712.365,613.676l-0.426,0.142l-0.348,0.262l-0.107-0.005l-0.343-0.06l-0.137-0.123
	l-0.056-0.016l-0.045-0.005l-0.104,0.005l-0.023-0.015l0.019-0.03l0.038-0.005l-0.023-0.076l-0.07-0.061l-0.26-0.011l-0.117-0.088
	l-0.247-0.087l-0.112-0.167l-0.214-0.168l-0.057-0.028l-0.078-0.007l-0.035,0.02l-0.045,0.02l-0.034,0.022l-0.02-0.021l-0.022-0.055
	l-0.007-0.084l0.019-0.048l0.038-0.071l0.058-0.089l0.013-0.15l0.003-0.027l0.031-0.02l0.113,0.058h0.088l0.08-0.068l0.057-0.067
	l-0.006-0.078l-0.009-0.067l0.028-0.04l0.08,0.141l0.092,0.019l0.076,0.018l0.066-0.005l0.134,0.037l0.078-0.058l0.127-0.02
	l0.082-0.05l0.065,0.069l0.099,0.006l0.104,0.067l0.038,0.022l0.047,0.006l0.057-0.005l0.104-0.04l0.052-0.015l0.002,0.025
	l-0.033,0.096l0.008,0.104l0.005,0.143l0.062,0.103l0.173,0.219l0.113,0.001l0.105,0.012l0.208,0.071l0.157-0.052l0.176-0.104
	l0.368-0.166l0.105-0.04l0.098,0.003l0.054,0.082l-0.02,0.084l-0.064,0.086l-0.353,0.362L712.365,613.676z M713.042,612.624
	l-0.036-0.017l0.021-0.045l0.042-0.041l0.025-0.09l0.004-0.104l0.041-0.088l0.054-0.004l0.102,0.026l0.095,0.001l0.114-0.035
	l0.079-0.004l0.019,0.042l0.005,0.086l0.015,0.058l0.043,0.082l0.048,0.077l0.007,0.061l-0.067,0.065l-0.098,0.002l-0.143-0.07
	l-0.102,0.018l-0.046-0.018l-0.163-0.017L713.042,612.624z M705.706,603.431l-0.004,0.035l-0.023,0.057l-0.046,0.011l-0.044-0.028
	l-0.006-0.05l0.017-0.064l0.018-0.032l0.019,0.007l0.016,0.02l0.01,0.031l0.014-0.025l0.026-0.076h0.018l-0.002,0.035
	L705.706,603.431z M705.714,603.249l-0.015-0.004l-0.006-0.019l0.076-0.094l0.011,0.018l-0.037,0.069L705.714,603.249z
	 M705.838,602.676l-0.025,0.015l-0.003-0.051l0.017-0.073l0.027-0.062h0.022l-0.009,0.054l-0.01,0.027l-0.003,0.031L705.838,602.676
	z M715.473,608.651l0.048,0.042l0.005-0.007l0.032-0.004h0.04l0.03,0.007l0.023,0.019l0.041,0.052l0.026,0.023l0.064,0.088
	l0.093,0.241l0.082,0.058l-0.002-0.032l0.011-0.081l0.075,0.136l0.049,0.052l0.051,0.006l0.026,0.078l0.038,0.058l0.056,0.05
	l0.08,0.055l0.016,0.027l0.009,0.043l0.007,0.086l0.018,0.046l0.069,0.045l0.021,0.032l-0.017,0.09l-0.068,0.065l-0.089,0.033
	l-0.072-0.011l-0.048-0.062l-0.052-0.267l-0.035-0.098l-0.034-0.068l-0.052-0.055l-0.085-0.062l-0.043-0.022l-0.066-0.015
	l-0.03-0.014l-0.036-0.035l-0.01-0.033l-0.004-0.03l-0.022-0.026l-0.087-0.035l-0.189-0.015l-0.096-0.039l-0.031-0.033l-0.011-0.031
	l-0.005-0.03l-0.013-0.021l-0.113-0.115l-0.048-0.056l-0.017-0.046l0.033-0.031l0.099-0.007l-0.002-0.041l0.011-0.018l0.047-0.024
	l0.05-0.038l0.023-0.046l0.023-0.033l0.059-0.006l0.005,0.117L715.473,608.651z M714.101,606.961l-0.071-0.031l0.097-0.084
	l0.064-0.003l0.022,0.057L714.101,606.961z M714.612,607.239l-0.027-0.008l-0.115-0.144l-0.051-0.062l-0.063-0.058l0.005-0.026
	l0.068,0.034l0.066,0.029l0.065,0.071l0.053,0.09L714.612,607.239z M711.459,605.288l-0.165,0.01l0.146-0.14l0.177-0.039
	l0.192-0.015l0.188-0.059l-0.094,0.094l-0.209,0.089L711.459,605.288z M713.653,605.878l-0.186,0.09l-0.064,0.011l0.025-0.039
	l0.009-0.037l-0.008-0.037l-0.024-0.032l-0.024,0.06l-0.005,0.066l0.021,0.051l0.058,0.003l-0.016,0.07l-0.167,0.302l-0.021,0.07
	l-0.024,0.126l-0.069-0.025l-0.07,0.048l-0.07,0.074l-0.072,0.057l-0.065,0.021l-0.086,0.017l-0.082,0.009l-0.056-0.01l-0.063,0.006
	l-0.275,0.149l-0.29,0.031l-0.043-0.006l-0.04-0.021l-0.274-0.053l-0.101-0.039l-0.088,0.013l-0.186,0.082l-0.05,0.013l-0.15,0.02
	l-0.047-0.007l-0.087-0.039l-0.086-0.009l-0.19,0.034l0.019-0.037l0.1-0.131l0.042-0.027l0.044,0.016l0.13,0.103l0.039,0.006
	l0.173-0.024l0.02-0.022l-0.018-0.052l0.016-0.022h0.1l0.032,0.007l-0.016-0.02l-0.011-0.018l-0.001-0.02l0.015-0.027l0.09,0.02
	l0.147,0.005l0.089,0.042h0.027l0.077-0.028l0.068-0.003l0.03-0.049l0.023-0.062l0.025-0.032l0.083,0.016l0.102,0.053l0.102,0.036
	l0.08-0.034l0.078-0.083l0.071-0.016l0.074,0.022l0.086,0.036l0.175,0.041l0.158-0.025l0.119-0.101l0.054-0.185l-0.046-0.137
	l-0.244-0.168l-0.072-0.129l-0.016-0.084l0.015-0.01l0.09-0.04l0.038-0.006l0.036,0.001l0.034,0.01l-0.005-0.04l0.006-0.109
	l0.091,0.107l0.017,0.035l0.041-0.035l0.048-0.015l0.041,0.007l0.021,0.03l0.032-0.002l0.013,0.001l0.017,0.009l0.02-0.03
	l-0.023-0.026l-0.006-0.016v-0.02l-0.004-0.039l0.178,0.122l0.096,0.043l0.119,0.024l-0.006,0.017l-0.007,0.014l-0.003,0.015
	L713.653,605.878z M712.548,604.919l0.009,0.011l0.046,0.023l0.013,0.012l-0.001,0.016l-0.013,0.053l0.051,0.069l0.118,0.092
	l0.06,0.066l0.01-0.067l0.064,0.07l0.15,0.22l-0.426,0.063l0.01-0.039l0.004-0.009l-0.026-0.039l0.046-0.06l-0.072-0.031
	l-0.11-0.032l-0.21-0.238l-0.014-0.053l-0.012-0.102l-0.05,0.032l-0.068,0.009l-0.057-0.007l-0.013-0.02l0.078-0.069l0.03-0.043
	l-0.017-0.039l0.011-0.484l0.022-0.005l0.014-0.008l0.012-0.012l0.014-0.01l0.04,0.022l0.073,0.019l0.025,0.011l0.033,0.041
	l0.053,0.13l0.027,0.032l0.071,0.058l0.028,0.032l0.04,0.143l-0.012,0.041l-0.042,0.068L712.548,604.919z M714.763,604.5
	l0.242,0.198l0.209,0.108l0.053,0.064l-0.02,0.029l-0.353-0.143l-0.143-0.1L714.763,604.5z M709.68,599.295l-0.007,0.122
	l-0.095-0.125l-0.125-0.128l-0.089-0.127l0.009-0.128l0.11,0.089l0.117,0.143L709.68,599.295z M696.174,589.43l-0.017-0.003
	l-0.03-0.093l0.005-0.02L696.174,589.43z M696.15,589.194l-0.007-0.003l-0.017-0.251l0.009,0.026l0.017,0.153L696.15,589.194z
	 M708.854,597.342l-0.004,0.067l0.011,0.062l0.025,0.052l0.046,0.05l0.071,0.052l-0.023,0.008l-0.015,0.007l-0.018,0.005
	l-0.029-0.002l0.05,0.393l0.094,0.204l0.028,0.038l-0.03,0.152l0.062,0.18l0.207,0.31l-0.087,0.019l-0.063-0.076l-0.093-0.188
	l-0.166-0.134l-0.04-0.077l0.085-0.059l-0.032-0.087l-0.022-0.104l-0.035-0.074h-0.073l-0.027-0.208l-0.058-0.184l-0.111-0.146
	l-0.181-0.102l0.019-0.025l0.125,0.039l0.022,0.003l0.017-0.038l0.002-0.048l0.019-0.02l-0.019-0.049l0.003-0.062l0.029-0.052
	l0.056-0.021l0.036,0.036l0.038,0.009l0.034-0.001l0.026,0.01l0.018,0.03L708.854,597.342z M711.126,598.921l-0.04,0.469
	l0.026,0.062l0.011,0.112l-0.004,0.123l-0.019,0.095l-0.14,0.279l-0.005,0.093l0.011,0.107l-0.08,0.532l-0.033,0.034l0.002,0.053
	l-0.049,0.087l-0.12,0.166l-0.101,0.197l-0.023,0.151l0.049,0.136l0.215,0.31l0.056,0.184l0.044,0.401l-0.029,0.01l-0.045,0.022
	l-0.028,0.009l0.014,0.065l-0.039,0.116l-0.065,0.125l-0.1,0.15l-0.036,0.035l-0.032,0.002l-0.033-0.042l-0.002-0.039l0.067-0.145
	h-0.02l-0.046-0.005l0.047-0.113l0.028-0.243l0.074-0.178l0.004-0.074l-0.013-0.22l-0.011-0.059l-0.029-0.051l-0.339-0.345
	l-0.047-0.112l-0.018-0.065l-0.135-0.323l-0.038-0.059l0.037-0.03l0.041-0.022l0.043-0.015l0.049-0.012l0.021,0.015l-0.004,0.076
	l0.063,0.114l-0.001,0.075l-0.08-0.072l-0.022-0.03l-0.007,0.06l0.009,0.06l0.026,0.051l0.042,0.025l0.021,0.056l0.025,0.101
	l0.019,0.04l0.032,0.036l0.052,0.042l0.044,0.013l0.005-0.055l-0.039-0.352l0.02-0.081l0.086-0.092l0.081-0.053l0.074-0.038
	l0.063-0.048l0.061-0.091l0.05-0.114l0.026-0.115l-0.012-0.091l-0.024,0.01l-0.062,0.008l0.069-0.084l-0.051-0.197l0.067-0.077
	l-0.038-0.043l-0.03-0.045l-0.002-0.044l0.049-0.033l-0.03-0.103l0.016-0.077l0.1-0.182l0.058-0.225l-0.02-0.04l-0.029-0.007
	l-0.038,0.001l-0.049-0.013l0.153-0.162l0.019-0.067l-0.113,0.008l0.068-0.027l0.026-0.006l0.031,0.002l-0.033-0.044l-0.048,0.007
	l-0.056,0.022l-0.061-0.004l0.02-0.026l0.063-0.015l0.059-0.025l0.052-0.044l0.046-0.07l0.018,0.02l0.009,0.023l0.004,0.025
	L711.126,598.921z M712.958,600.098l-0.057,0.032l-0.053,0.004l-0.071-0.052l-0.016,0.022l0.001,0.043l-0.063-0.042l-0.063-0.081
	l-0.003-0.083l-0.083-0.012l-0.114-0.076l-0.077-0.02l0.049-0.094l0.056-0.032l0.072,0.01l0.093,0.035l0.209,0.065l0.127,0.089
	l0.03,0.049l0.037,0.106L712.958,600.098z M712.208,598.848l-0.032-0.004l0.021-0.073l0.061-0.039l0.032,0.016l-0.002,0.023
	l-0.028,0.041L712.208,598.848z M708.509,595.418l-0.038,0.007l-0.012-0.087l0.034-0.176l0.007-0.123l0.039-0.137l0.009-0.084
	l0.016-0.048l0.039-0.054l0.041,0.116L708.509,595.418z M715.126,599.567l-0.313,0.149l0.021-0.05l0.032-0.033l0.081-0.056
	l-0.06,0.023l-0.157,0.12l-0.027,0.029l-0.243-0.126l0.018-0.025l0.111-0.033l0.122-0.088l0.106-0.121l0.064-0.123l0.066-0.09
	l0.076-0.027l0.083,0.007l0.085,0.018l0.03-0.002l0.033-0.009l0.029,0.003l0.016,0.023l-0.014,0.128l0.002,0.014l-0.021,0.043
	l-0.006,0.073l-0.01,0.029l-0.025,0.034l-0.071,0.06L715.126,599.567z M704.176,590.901l-0.034,0.004l-0.074-0.024l-0.028-0.02
	l-0.005-0.022l-0.013-0.019l-0.049-0.007l-0.05,0.017l-0.109,0.078l-0.068,0.018h-0.068l-0.24-0.038l-0.068-0.036l0-0.043
	l0.019-0.062l0.033-0.056l0.036-0.026l0.034,0.018l0.034,0.042l0.036,0.028l0.043-0.022l0.043,0.012l0.284,0.007l0.021,0.004
	l0.079,0.009l0.044,0.014l0.14,0.098L704.176,590.901z M703.689,590.579l-0.016,0.063l-0.041-0.048l-0.096-0.049l-0.05-0.036
	l-0.025-0.043l-0.017-0.057l0.011-0.042l0.059,0.007l0.101,0.046l0.12,0.022l0.085,0.031l-0.002,0.075l-0.052-0.033l-0.045,0.015
	L703.689,590.579z M708.666,594.146l-0.009,0.073l-0.063-0.047l-0.025-0.045l-0.008-0.281l0.008-0.075l0.034-0.047l0.03,0.064
	l-0.003,0.067l-0.015,0.068l-0.004,0.072l0.018,0.059l0.022,0.043L708.666,594.146z M704.046,591.445l0.043,0.111l0.072,0.016
	l-0.013,0.054l-0.058,0.06l-0.136,0.063l-0.048,0.039l-0.047,0.026l-0.069-0.008l0.051,0.063l0.09-0.01l0.269-0.137l0.131-0.029
	l0.074-0.028l0.069-0.063l0.074-0.089l0.078-0.079l0.081-0.023l0.06,0.059l-0.005,0.107l-0.028,0.121l-0.012,0.093l0.004,0.082
	l-0.019,0.073l-0.038,0.072l-0.085,0.125l-0.042,0.09l-0.021,0.035l-0.036,0.039l-0.071,0.059l-0.033,0.035l-0.004,0.028
	l-0.005,0.104l-0.015,0.042l-0.045,0.035l-0.046,0.013l-0.038,0.001l-0.02,0.001l-0.047-0.007l-0.076-0.05l-0.087-0.021
	l-0.083,0.084h0.184l0.095,0.019l0.058,0.062l-0.01,0.073l-0.127,0.124l-0.03,0.073l-0.157,0.09l-0.064-0.009l-0.064-0.087
	l-0.024,0.055l0.024,0.094l-0.022,0.067l-0.042,0.046l-0.061,0.041l-0.06,0.027l-0.041,0.013l-0.136-0.039l-0.055-0.092
	l-0.033-0.108l-0.07-0.084l0.005,0.112l-0.026,0.03l-0.069,0.025l-0.026-0.018l0.003-0.118l-0.082-0.1l-0.224-0.146l0.157,0.03
	l0.031-0.074l0.072,0.054l0.134,0.188l0.072-0.051l0.071-0.023h0.074l0.25,0.043l0.083-0.004l0.032-0.041l-0.044-0.066l-0.086-0.009
	l-0.097,0.011l-0.075-0.014l-0.298-0.013l0.006,0.02v0.02l-0.074-0.068l0.005-0.174l-0.051-0.074l0.287,0.08l0.166,0.013
	l0.075-0.066l-0.088,0.018l-0.083-0.025l-0.183-0.128l-0.057-0.025l-0.054-0.011l-0.049-0.019l-0.035-0.04l-0.005-0.049l0.013-0.06
	l0.139-0.281l0.067-0.096l0.051-0.024l-0.037-0.052l0.03-0.044l0.053-0.038l0.034-0.046l-0.006-0.07l-0.025-0.06l-0.008-0.044
	l0.045-0.016l0.02-0.023l-0.036-0.09l-0.149-0.233l0.042-0.015l0.043-0.007l0.025,0.066l0.026,0.004l0.024-0.025l0.012-0.019
	l0.028-0.032l0.003-0.023l0.012-0.017l0.054-0.013l0.049,0.009l0.116,0.034l0.06-0.002l0.038-0.021l0.09-0.073l0.035-0.02
	l0.124,0.074l0.057,0.015l0.057-0.005l0.03-0.014l0.029-0.023l0.054-0.031l0.083-0.004l0.185,0.04l0.077-0.021l0.135,0.015
	l-0.006,0.071l-0.02,0.077l-0.009,0.069l0.027,0.049l0.007,0.036l-0.065,0.02l-0.342,0.024l-0.118-0.015l-0.119-0.055l-0.02,0.025
	l0.057,0.048l0.004,0.045l-0.038,0.02l-0.072-0.028l-0.023,0.006L704.046,591.445z M704.251,590.487l-0.086-0.016l-0.034-0.068
	l0.04-0.05l0.065,0.013l0.109,0.061l0.021,0.019l-0.035,0.017L704.251,590.487z M704.888,590.797l-0.026,0.03l-0.041,0.003
	l-0.027-0.036l-0.02-0.048l-0.02-0.032l-0.063-0.039l-0.046-0.012l-0.121,0.022l-0.099-0.003l-0.037-0.04l0.012-0.048l0.046-0.022
	l0.104,0.017l0.098,0.002l0.085,0.015l0.081,0.033l0.052,0.043l0.013,0.029l0.01,0.042L704.888,590.797z M708.44,592.364
	l-0.035,0.001l-0.023-0.038l0.017-0.062l0.057-0.059l0.036,0.004v0.051l-0.004,0.026l-0.014,0.028L708.44,592.364z M712.58,596.898
	l-0.013,0.071l-0.099,0.253l-0.117-0.158l-0.066-0.053l-0.084-0.048l-0.177-0.074l-0.075-0.007l-0.098,0.011l-0.09-0.05
	l-0.047-0.124l0.017-0.102l0.101,0.014l0.06,0.021l0.099,0.015l0.102-0.002l0.074-0.033l0.065,0.048l0.103-0.079l0.073-0.131
	l-0.028-0.106l-0.083-0.09l-0.031-0.104l0.033-0.417l0.049-0.123l0.004-0.141l0.021-0.061l0.065-0.131l0.007-0.128l-0.05-0.11
	l-0.106-0.087l0.042-0.028l0.035-0.043l0.029-0.05l0.021-0.052l0.015-0.057l-0.005-0.03l-0.014-0.027l-0.055-0.232l-0.07-0.129
	l-0.015-0.041v-0.048l0.018-0.029l0.037-0.02l0.131-0.035l0.037,0.009l0.046,0.04l0.01,0.033l0.028,0.146l0.063,0.096l0.024,0.05
	l0.005,0.07l-0.145,0.252l-0.03,0.083l0.004,0.062l0.019,0.087l0.008,0.094l-0.043,0.143l-0.031,0.235l-0.009,0.405l0.025,0.091
	l0.081,0.162l0.025,0.097l-0.043,0.232v0.042l0.02,0.051L712.58,596.898z M708.11,589.004l0.044,0.104l0.107,0.121l-0.07,0.018
	l-0.476-0.088l-0.08-0.061l-0.072-0.122l-0.043,0.018l-0.071,0.015l-0.067-0.005l-0.033-0.048l-0.029-0.066l-0.061-0.052
	l-0.064-0.042l-0.038-0.034l-0.009-0.102l0.091-0.043l0.125-0.003l0.101,0.021l0.056,0.027l0.146,0.04l0.056,0.031l0.14,0.106
	l0.163,0.077l0.051,0.037L708.11,589.004z M705.713,586.827l0.045,0.053l0.068,0.016l0.08-0.004l0.071,0.013l0.038,0.065l0.02,0.062
	l0.028,0.059l0.021,0.063l-0.002,0.077l-0.094,0.02l-0.058,0.059l-0.02,0.078l0.023,0.083l-0.152,0.112l-0.082,0.08l-0.012,0.054
	l0.055,0.054l0.029,0.065l0.002,0.086l-0.179,0.647l-0.019,0.324l0.01,0.1l0.039,0.067l0.022,0.054l0.031,0.211l-0.008,0.074
	l-0.046,0.067l-0.074,0.085l-0.078,0.074l-0.058,0.035l-0.073,0.057l-0.041,0.109l-0.044,0.207l-0.083,0.14l-0.103,0.07
	l-0.122,0.003l-0.143-0.073l-0.065-0.02l-0.064,0.012l-0.062,0.02l-0.057,0.005l-0.113-0.059l-0.05,0.012l-0.022,0.107l-0.072,0.012
	l-0.188-0.003l-0.075-0.026l-0.119-0.083l-0.055-0.012h-0.208l-0.041,0.019l-0.018,0.036l-0.011,0.038l-0.019,0.028l-0.039,0.011
	l-0.039-0.016l-0.023-0.034l-0.013-0.042l-0.003-0.041l0.038-0.127l0.076-0.141l0.045-0.132l-0.044-0.101l-0.07-0.119l0.06-0.123
	l0.213-0.232l-0.097,0.003l-0.079,0.018l-0.082,0.002l-0.102-0.048l-0.053-0.067l-0.243-0.539l-0.061-0.331l-0.006-0.121
	l0.021-0.114l0.055,0.024l0.094,0.018l0.095,0.009l0.052-0.013l0.05-0.042l0.021,0.021l0.012,0.047l0.022,0.028l0.053,0.004
	l0.048-0.008l0.032-0.029l0.007-0.06l0.092-0.03l0.053,0.04l0.009,0.082l-0.039,0.089l-0.053,0.061l-0.056,0.045l-0.06,0.033
	l-0.065,0.024l-0.092-0.003l-0.018,0.003l-0.021,0.04l-0.008,0.042l0.014,0.032l0.136,0.009l0.061,0.021l0.05-0.007l0.054-0.088
	l0.042,0.08l-0.05,0.064l-0.076,0.063l-0.04,0.073l0.03,0.074l0.068-0.024l0.07-0.074l0.038-0.082l0.021,0.038l0.02,0.046
	l0.023,0.03l0.032-0.007l0.038-0.053l0.003-0.055l-0.012-0.054l-0.005-0.052l0.012-0.025l0.05-0.049l0.015-0.025v-0.042
	l-0.017-0.085v-0.041l0.025-0.062l0.035-0.063l0.005-0.05l-0.063-0.017l0.013,0.057l-0.032,0.064l-0.109,0.137l-0.002-0.062
	l0.023-0.074l0.016-0.074l-0.029-0.058l0.015-0.03l0.059-0.055l0.114-0.087l0.094-0.017l0.12-0.008l0.108-0.034l0.054-0.099h0.049
	l0.102,0.046l0.035-0.008l0.045-0.038l0.115-0.056l0.049-0.044l0.033,0.019l0.009-0.036l0.003-0.058l0.01-0.041l0.029-0.023
	l0.057-0.039l0.063-0.028h0.047l0.062-0.026l0.071-0.106l0.094-0.187l0.053-0.141l0.045-0.2l0.062-0.172l0.101-0.052l0.055,0.045
	l0.104,0.109l0.034,0.059l0.012,0.067l-0.008,0.056L705.713,586.827z M707.328,586.522l-0.063,0.015l-0.054-0.012l-0.051-0.037
	l-0.028-0.024l-0.061-0.046l0.008-0.004l0.032-0.003l0.035,0.007l0.022,0.013l0.036,0.03l0.055,0.034l0.058,0.005l0.051-0.015
	l0.008,0.01L707.328,586.522z M702.876,582.655l-0.013,0.046l-0.005-0.008l0.013-0.046L702.876,582.655z M702.872,582.574
	l-0.012,0.011l0.002-0.062l0.012-0.013L702.872,582.574z M711.532,588.719l0.047,0.043l0.025,0.046l-0.08,0.03l-0.057,0.045
	l-0.048,0.062l-0.048,0.082l0.104-0.031l0.011,0.061l-0.023,0.092l0.002,0.06l0.052,0.063l0.184,0.623l0.072,0.154l0.127,0.146
	l0.151,0.116l0.044,0.054l0.023,0.078l-0.004,0.358l0.058,0.34l0.096,0.299l0.052,0.137l0.006,0.081l-0.033,0.083l-0.258,0.291
	l-0.058,0.048l-0.027,0.029l-0.042,0.029l-0.048,0.003l-0.042-0.009h-0.027l-0.064,0.062l-0.033,0.076l-0.027,0.123l-0.032,0.068
	l-0.142,0.167l-0.073,0.062l-0.173,0.071l-0.056,0.038l-0.198,0.251l-0.093,0.149l-0.045,0.147l-0.077-0.126l0.028-0.157
	l0.063-0.161l0.029-0.135l-0.026-0.078l-0.104-0.162l-0.034-0.083l-0.01-0.13l0.034-0.028l0.057,0.033l0.291,0.287l0.029,0.005
	l0.034-0.012l0.035-0.02l0.036-0.013l0.096-0.017l0.041-0.021l0.047-0.044l0.059-0.086h-0.042l-0.082,0.031l-0.061,0.01l0.011-0.057
	l0.073-0.091l0.153-0.147l0.065-0.049l0.02-0.007l0.037-0.01l0.163-0.021l0.036-0.015l0.18-0.19l0.057-0.08l0.064-0.21l-0.04-0.163
	l-0.075-0.146l-0.044-0.155l0.02-0.596l-0.033-0.127l-0.093-0.136l-0.226-0.247l-0.086-0.166l-0.061-0.332l-0.103-0.132
	l-0.067-0.059l-0.113-0.132l-0.059-0.052l-0.085-0.034l-0.167-0.017l-0.044-0.045l0.148-0.026l0.154-0.109l0.255-0.234l-0.023-0.017
	L711.532,588.719z M703.586,581.894l-0.05,0.081l-0.033,0.023l0.005-0.02l-0.03-0.007l-0.052-0.017l0.021-0.038l0.065-0.036
	l0.001-0.026l-0.079,0.008l-0.048,0.013l-0.039,0.015l-0.045,0.042l0.012,0.055l0.035,0.057l0.011,0.054l-0.028,0.01l-0.08-0.081
	l-0.038-0.028l0.001-0.025l0.05-0.045l0.08-0.05l0.105-0.044l0.106-0.005l0.045,0.017L703.586,581.894z M708.213,585.512
	l-0.02,0.036l-0.038-0.032l-0.005-0.08l0.021-0.133l-0.011-0.122l0.011-0.063l0.044-0.013l0.037,0.038l0.004,0.06L708.213,585.512z
	 M710.747,584.073l-0.185,0.036l0.081-0.065l0.021-0.062l0.013-0.066l0.053-0.07l0.018,0.04l0.033,0.136l0.002,0.035
	L710.747,584.073z M712.235,584.163l-0.005,0.015l-0.004,0.005l-0.004-0.008l-0.011-0.011l-0.007,0.003l0.002,0.011l0,0.005
	l-0.008-0.005l-0.035,0.041l-0.023,0.049h-0.03l-0.015-0.007l-0.013-0.009l-0.018-0.035l0.016-0.05l0.004-0.038l-0.006-0.032
	l0.017-0.011l0.013,0.011h0.024l0.034-0.006l0.033,0.012l0.026,0.028L712.235,584.163z M710.554,582.284l-0.013,0.016l-0.035,0.016
	l-0.041,0.029l-0.045,0.016l-0.022-0.015l0.001-0.016l0.002-0.02l-0.003-0.087l0.008-0.04l0.017-0.037l0.029-0.001l0.114,0.054
	l0.002,0.027l-0.06,0.015l-0.015,0.007l0.036,0.001l0.02-0.001l0.031-0.006l0.058-0.001l0.001,0.017l-0.057,0.014L710.554,582.284z
	 M708.708,580.194l0.19,0.303l0.081,0.032l0.124,0.146l0.146,0.15l0.106,0.084l0.095-0.033l0.093,0.015l0.068,0.121l0.055,0.058
	l0.153,0.037l0.142,0.136l0.128,0.045l0.141,0.029l0.074,0.04l0.212,0.146l0.066,0.016l0.062-0.017l0.057-0.031l0.06-0.019
	l0.067,0.018l-0.043,0.071l-0.072,0.062l-0.066,0.067l-0.039,0.169l-0.05,0.07l-0.072,0.038l-0.082-0.019l-0.016-0.025l-0.02-0.088
	l-0.017-0.039l-0.037-0.039l-0.224-0.144l-0.23-0.098l-0.521-0.239l-0.185-0.134l-0.827-0.33l-0.067-0.034l-0.077-0.026
	l-0.166,0.012l-0.079-0.028l-0.087-0.004l-0.098-0.019h-0.089l-0.051,0.002l-0.074-0.044l-0.042-0.009l-0.125-0.111l-0.097-0.141
	l-0.02-0.136l-0.076-0.191l-0.074-0.602l-0.058-0.242l0.009-0.08l0.035,0.025l0.023,0.029l0.011,0.034l0.002,0.042l0.218,0.571
	l-0.004,0.204l0.074,0.037l0.059,0.03l0.071,0.122l0.078,0.059l0.101,0.02l0.104,0.005l0.062,0.011l0.057,0.006l0.039,0.003
	l0.035-0.02l0.067-0.005l0.043-0.037l0.079-0.005l0.103-0.05l0.092,0.004l0.021-0.043l-0.041-0.106l-0.118-0.125l0.059-0.029
	l0.169-0.034l0.053-0.029l0.143-0.133l0.029,0.09l0.003,0.111l-0.018,0.109l-0.033,0.076L708.708,580.194z M711.708,581.263
	l0.251,0.286l0.161,0.139l0.12-0.003l0.113,0.206l0.062,0.202l0.164,1.01l0.034,0.094l0.06,0.08l0.103,0.085l-0.058,0.02
	l-0.055-0.018l-0.104-0.082l-0.026,0.132l0.008,0.128l0.046,0.114l0.174,0.181l0.058,0.108l0.073,0.227l0.071,0.151l0.014,0.062
	l-0.006,0.067l-0.024,0.084l-0.044,0.059l-0.063-0.005l-0.029,0.017l-0.122,0.161l-0.034,0.065l0.002,0.062l0.027,0.055l0.041,0.051
	l-0.106,0.053l-0.025,0.024l-0.022,0.045l-0.003,0.036l0.004,0.029l-0.007,0.022l-0.019,0.032l-0.006,0.017l-0.017,0.012
	l-0.049,0.01l-0.043,0.003l-0.037-0.006l-0.068-0.029l0.018-0.012l0.057-0.043l-0.117-0.063l-0.145-0.016l-0.151,0.016l-0.137,0.029
	l-0.099,0.067l-0.238,0.257l-0.046,0.071l-0.189,0.179l-0.204,0.303l-0.21,0.252l-0.205,0.03l-0.053-0.108v-0.158l0.031-0.151
	l0.036-0.09l-0.018-0.085l-0.204-0.228v-0.134l0.054,0.037l0.075,0.024l0.078-0.004l0.105-0.063l0.049,0.019l0.053,0.028
	l0.056,0.008l0.224-0.049l0.126-0.008l0.112,0.024l0.001-0.045l0.009-0.04l0.019-0.038l0.032-0.045l0.005-0.033l-0.011-0.042
	l-0.005-0.045l0.024-0.044l0.052-0.024l0.053-0.01l0.055-0.013l0.052-0.045l0.071-0.097l0.025-0.054l-0.014-0.094l0.22-0.078
	l0.022-0.038l0.004-0.063l0.188-0.258l0.049,0.033l0.051,0.004l0.054-0.014l0.056-0.026l0.017-0.016l0.048-0.071l0.029-0.02h0.032
	l0.031,0.008h0.024l0.076-0.032l0.064-0.055l0.016-0.069l-0.094-0.115l-0.051-0.09l-0.271-0.262l-0.031-0.077l0.009-0.088
	l0.027-0.116l0.032-0.012l0.026-0.026l0.015-0.038l-0.001-0.075l0.012-0.051l0.001-0.025l-0.012-0.018l-0.026,0.003l-0.031,0.007
	l-0.026-0.004l-0.063-0.055l-0.036-0.058l0.005-0.054l0.063-0.043l0.038-0.16l0.037-0.354l-0.01-0.168l-0.026-0.078l-0.051-0.078
	l-0.072-0.055l-0.085-0.012l-0.072-0.021l-0.069-0.068l-0.146-0.202l-0.053-0.051l-0.131-0.094l-0.029-0.04l-0.046-0.128
	l-0.039-0.065l-0.052-0.055l-0.275-0.168l-0.134-0.037l-0.07-0.049l0.02-0.007l0.014,0.001l0.028,0.012l0.176,0.011l0.169,0.081
	L711.708,581.263z"/></svg>