<?xml version="1.0" encoding="utf-8"?>
<!-- Generator: Adobe Illustrator 15.0.0, SVG Export Plug-In . SVG Version: 6.00 Build 0)  -->
<!DOCTYPE svg PUBLIC "-//W3C//DTD SVG 1.1//EN" "http://www.w3.org/Graphics/SVG/1.1/DTD/svg11.dtd">
<svg version="1.1" id="Ebene_1" xmlns="http://www.w3.org/2000/svg" xmlns:xlink="http://www.w3.org/1999/xlink" x="0px" y="0px"
	 width="1920px" height="1080px" viewBox="0 0 1920 1080" enable-background="new 0 0 1920 1080" xml:space="preserve">

<path fill="#F4E0B6" stroke="#FFFFFF" d="M971.411,715.058l-0.02,0.006l0.024-0.113l0.192-0.434l0.217-0.381l0.069-0.033
	l0.052,0.035l-0.067,0.132l-0.097,0.119l-0.072,0.104l-0.093,0.204L971.411,715.058z M970.864,714.684l-0.037,0.061l-0.05-0.025
	l-0.037-0.122l0.029-0.132l0.085-0.064l0.048-0.004l0.007,0.062l-0.01,0.128L970.864,714.684z M971.684,713.387l-0.143,0.878
	l-0.136,0.431l-0.231,0.424l-0.114-0.101l-0.022-0.035l-0.001-0.049l0.013-0.061l-0.002-0.062l-0.045-0.052l-0.05-0.097l0.036-0.127
	l0.165-0.305l0.011-0.03l-0.016-0.177l0.004-0.056l0.044-0.129l0.076-0.118l0.087-0.058l0.085,0.054l0.106-0.277l0.073-0.115
	L971.684,713.387z M970.768,709.213l-0.037,0.032l-0.081-0.009l-0.048-0.097l0.026-0.1l0.058-0.05l0.055-0.003l0.027,0.023V709.213z
	 M1026.961,688.107l0.189,0.606l0.19,0.606l0.092,0.296l0.203,0.648l0.204,0.65l0.093,0.297l0.171,0.545l0.198,0.63l0.198,0.635
	l0.197,0.635l0.199,0.635l0.199,0.634l0.199,0.638l0.2,0.638l0.2,0.639l0,0l0,0l0,0l0.217,0.704l0.093,0.3l0.091,0.299l0.093,0.3
	l0.092,0.299l0.147,0.477l0.148,0.478l0.147,0.478l0.148,0.479l0.147,0.479l0.147,0.479l0.148,0.479l0.148,0.48l0.15,0.48
	l0.148,0.48l0.149,0.482l0.148,0.481l0.146,0.471l0.147,0.47l0.146,0.471l0.146,0.472l0.146,0.471l0.146,0.472l0.147,0.473
	l0.147,0.472l0.146,0.475l0.148,0.474l0.147,0.475l0.147,0.476l0.147,0.476l0.15,0.477l0.148,0.475l0.148,0.478l0.066,0.215
	l0.063,0.069l0.062,0.07l0.232,0.067l0.216,0.062l0.263,0.076l0.231,0.065l0.242,0.068l0.236,0.067l0.029,0.019l0.031,0.019
	l0.012,0.033l0.012,0.033l0.004,0.174l0.011,0.559l0.011,0.561l0.009,0.561l0.011,0.562l0.009,0.579l0.011,0.578l0.008,0.58
	l0.012,0.581v0.028l0.001,0.023v0.007l0.001,0.029v0.03v0.001v0.001l0,0l0.001,0.002v0.001v0.002l0,0v0.001v0.002v0.001h-0.001l0,0
	v0.001l-0.001,0.002v0.001h-0.001h-0.001h-0.002l-0.001,0.002l0,0l-0.002,0.001h-0.001h-0.001h-0.001h-0.003h-0.001h-0.001h-0.002
	h-0.003l0,0h-0.003l-0.002,0.002l-0.821,0.323l-0.702,0.278l-0.33,0.131l-0.357,0.14l-0.382,0.151l-0.406,0.158l-0.706,0.277
	l-0.521,0.203l-0.236,0.093l-0.802,0.313l-0.84,0.328l-0.872,0.34l-0.896,0.348l-0.912,0.354l-0.923,0.355l-0.926,0.358
	l-0.922,0.354l-0.911,0.349l-0.891,0.342l-0.864,0.332l-0.83,0.316l-0.787,0.3l-0.738,0.28l-0.473,0.18l-0.443,0.168l-0.411,0.155
	l-0.377,0.144l-0.512,0.193l-0.086,0.031l-0.685,0.26l-0.192,0.072l-0.971,0.366l-0.046-0.551l0.017-0.43l-0.045-0.184l-0.145-0.01
	l-0.098,0.11l-0.28,0.547l-0.06,0.186l0.024,0.173l0.146,0.339v0.001l0.115,0.302l-1.391,0.584l-0.267,0.161l-0.105,0.092
	l-0.294,0.313l-0.208,0.136l-0.666,0.187l-0.648,0.346l-0.232,0.08l-0.139,0.01l-0.227-0.058l-0.123-0.014l-0.045,0.014l-0.103,0.06
	l-0.05,0.018l-0.517-0.015l-0.081,0.018l-0.272,0.123l-0.163,0.028l-0.587,0.207l-0.084,0.05l-0.114,0.017l-0.095,0.05l-0.182,0.138
	l-0.014,0.011l-0.112,0.06l-0.241,0.087l-0.354,0.075l-0.092,0.038l-0.057,0.087l-0.007,0.123l0.04,0.246l-0.029,0.144l-0.039,0.063
	l-0.086,0.089l-0.051,0.121l-0.048,0.028l-0.058,0.021l-0.061,0.046l-0.081,0.127l-0.029,0.115l-0.027,0.244l-0.052,0.126
	l-0.138,0.208l-0.036,0.116l-0.046,0.379l-0.039,0.122l-0.229-0.228l-0.243-0.135l-0.201-0.256l-0.212-0.115l-1.612-0.553
	l-0.124-0.086l-0.639-0.592l-0.163-0.074l-0.145-0.009l-0.343,0.052l-0.053,0.025l-0.016,0.013l0.014,0.021l0.017,0.015l0.022,0.008
	l0.026,0.006l0.017,0.025l0.008,0.029v0.032l-0.011,0.035l-0.043,0.078l-0.065,0.058l-0.15,0.104l-0.091,0.093l-0.183,0.3
	l-0.161,0.152l-0.158,0.045l-0.164,0.007l-0.025,0.004l-0.15,0.032l0.023,0.209l-0.006,0.071l-0.13,0.22l-0.054,0.222l-0.042,0.472
	l-0.148,0.499l-0.013,0.107l-0.001,0.305l-0.073,0.368v0.136l0.012,0.055l0.028,0.08l0.002,0.064l-0.04,0.273l0.007,0.191
	l-0.006,0.035l0.063,0.021l0.037-0.027l0.027-0.041l0.038-0.014l0.076,0.032l0.052,0.052l0.026,0.082v0.116l0,0l-0.033,0.114
	l-0.018,0.121l-0.005,0.233l0.01,0.036l0.02,0.023l0.048,0.041l0.005,0.039l-0.031,0.033l-0.041,0.028l-0.022,0.02l-0.018,0.034
	l-0.026,0.044l-0.025,0.054l-0.017,0.064l-0.038,0.101l-0.079,0.109l-0.102,0.1l-0.234,0.142l-0.077,0.106l-0.119,0.249
	l-0.097,0.112l-0.112,0.075l-0.12,0.045l-0.114,0.015l-0.04,0.049l-0.021,0.109l-0.041,0.092l-0.07-0.011l-0.278-0.133l-0.097-0.016
	l-0.124,0.07l-0.25,0.188l-0.127,0.064l-0.135,0.026l-0.109-0.01l-0.362-0.141l-0.398-0.039l-0.116-0.05l-0.229-0.17l-0.088-0.02
	l-0.012-0.065l-0.193-0.445l-0.034-0.051l-0.06-0.039l-0.067-0.013l-0.146,0.02l-0.067-0.014l-0.114-0.042l-0.353-0.074
	l-0.089-0.072l-0.052-0.029l-0.059,0.002l-0.092,0.046l-0.186,0.129l-0.062,0.031l-0.004,0.002l-0.169-0.01l-0.197-0.107
	l-0.052-0.029l-0.158,0.007l-0.009-0.014l-0.023-0.051l-0.01-0.048l0.017-0.169l-0.007-0.051l-0.02-0.042l-0.037-0.032l-0.059-0.019
	l-0.063,0.005l-0.064,0.023l-0.127,0.074l-0.059,0.02h-0.055l-0.057-0.022l-0.153-0.088l-0.045-0.064l0.058-0.068l0.209-0.054
	l0.1-0.053l0.023-0.099l-0.05-0.088l-0.085-0.054l-0.387-0.114l-0.082-0.052l-0.059-0.079l-0.033-0.092l-0.021-0.209l-0.017-0.045
	l-0.032-0.036l-0.068-0.058l-0.024-0.035l-0.042-0.164l-0.024-0.048l-0.042-0.031l-0.101-0.011l-0.094,0.048l-0.084,0.08
	l-0.074,0.094l-0.086,0.09l-0.087,0.042l-0.189,0.02l-0.037-0.014l-0.028-0.051l-0.016-0.049l-0.007-0.055l0.012-0.245l-0.022-0.084
	l-0.052-0.057l-0.07-0.037l-0.08-0.016l-0.144,0.011l-0.046-0.001l-0.12-0.041l-0.046-0.002l-0.088,0.026l-0.181,0.097l-0.09,0.035
	l-0.073-0.134l-0.014-0.049l0.001-0.059l0.018-0.058l0.078-0.177l0.007-0.049l-0.012-0.043l-0.031-0.042l-0.079-0.076l-0.045-0.029
	l-0.053-0.021l-0.098-0.02l-0.046-0.02l-0.035-0.03l-0.014-0.051l0.009-0.058l0.016-0.059l0.008-0.058l-0.014-0.12l-0.038-0.096
	l-0.064-0.076l-0.122-0.089l-0.029-0.028l-0.017-0.036l-0.005-0.052l0.012-0.113v-0.055l-0.019-0.046l-0.04-0.035l-0.164-0.062
	l-0.059-0.035l-0.051-0.044l-0.046-0.052l-0.105-0.179l-0.012-0.045l-0.016-0.106l-0.02-0.042l-0.042-0.031l-0.178-0.055
	l-0.032-0.025l-0.057-0.065l-0.033-0.022l-0.093,0.029l-0.213,0.163l-0.065-0.02l0.002-0.102l0.085-0.224l-0.021-0.081l-0.041,0.005
	l-0.034,0.015l-0.032,0.021l-0.08,0.063l-0.314,0.178l-0.177,0.145l-0.045,0.029l-0.021,0.01l-0.114,0.04l-0.034,0.02l-0.159,0.146
	l-0.039,0.024l-0.044,0.008l-0.014-0.003l-0.044-0.021l-0.017-0.003l-0.039-0.001l-0.016-0.004l-0.008-0.006l-0.012-0.02
	l-0.008-0.009l-0.03-0.01l-0.064-0.003l-0.031-0.007l-0.025-0.059l0.021-0.091l0.024-0.116l0.005-0.086l-0.059,0.014l-0.056,0.022
	l-0.053,0.034l-0.049,0.048l-0.042,0.06l-0.095,0.193l-0.038,0.059l-0.091,0.109l-0.096,0.092l-0.047,0.034l-0.05,0.022
	l-0.053,0.005l-0.059-0.015l-0.052-0.03l-0.044-0.041l-0.035-0.049l-0.065-0.151l-0.035-0.039l-0.044-0.029l-0.104-0.039
	l-0.053-0.012l-0.247,0.014l-0.108-0.02l-0.032-0.091l0.021-0.123l-0.007-0.052l-0.031-0.047l-0.067-0.057l-0.016-0.037l0.007-0.056
	l0.029-0.109l-0.008-0.042l-0.04-0.03l-0.059-0.012l-0.125-0.004l-0.057-0.016l-0.119-0.09l-0.045-0.022l-0.213-0.046l-0.393-0.199
	l-0.229-0.166l-0.153-0.052l-0.048-0.024l-0.115-0.1l-0.053-0.013l-0.07,0.013l-0.148,0.041l-0.067-0.009l-0.036-0.037l-0.016-0.108
	l-0.026-0.042l-0.062-0.007l-0.232,0.101l-0.061-0.006l-0.014-0.044l0.021-0.129l-0.002-0.07l-0.03-0.038l-0.05-0.016l-0.403-0.018
	l-0.119,0.049l-0.059,0.042l-0.153,0.149l-0.059,0.048l-0.064,0.039l-0.064,0.03l-0.067,0.021l-0.255,0.033l-0.065,0.024
	l-0.254,0.159l-0.067,0.025l-0.07,0.012l-0.18-0.022l-0.056,0.004l-0.063,0.022l-0.205,0.125l-0.07,0.032l-1.067,0.282l-0.188,0.108
	l-0.116,0.021l-0.07-0.058l-0.054-0.075l-0.008-0.009l-0.087-0.057l-0.072-0.012l-0.136,0.103l-0.062,0.063l-0.037,0.071
	l-0.013,0.096l-0.011,0.045l-0.027,0.051l-0.037,0.04l-0.043,0.032l-0.047,0.021h-0.046l-0.068-0.038l-0.055-0.056l-0.062-0.044
	l-0.092,0.004l-0.088,0.055l-0.051,0.082l-0.007,0.084l0.044,0.072l0.108,0.062l0.023,0.034l0.002,0.048l-0.025,0.044l-0.039,0.04
	l-0.129,0.094l-0.666,0.329l-0.102,0.037l-0.302,0.054l-0.201,0.075l-0.098,0.054l-0.258,0.196l-0.088,0.052l-0.093,0.032
	l-0.08-0.006l-0.048-0.045l-0.04-0.053l-0.062-0.028l-0.097,0.023l-0.09,0.072l-0.074,0.094l-0.14,0.265l-0.057,0.075l-0.072,0.062
	l-0.094,0.041l-0.276,0.036l-0.096,0.048l-0.072,0.07l-0.133,0.172l-0.085,0.083l-0.091,0.062l-0.098,0.039l-0.101,0.007
	l-0.156-0.018l-0.055,0.002l-0.207,0.058l-0.294,0.004l-0.103,0.03l-0.156,0.079l-0.053,0.019l-0.227,0.022l-0.09,0.039
	l-0.248,0.194l-0.046,0.024l-0.04,0.01l-0.085-0.004l-0.054,0.004l-0.048,0.025l-0.045,0.037l-0.043,0.047l-0.151,0.072
	l-0.146,0.031l-0.134-0.017l-0.115-0.076l-0.084-0.085l-0.05-0.032l-0.062-0.015l-0.082,0.012l-0.076,0.039l-0.072,0.058
	l-0.183,0.191l-0.063,0.052l-0.072,0.037l-0.072,0.018l-0.215,0.032l-0.146,0.077l-0.132,0.126l-0.113,0.151l-0.084,0.151
	l-0.042,0.136l-0.02,0.271l-0.206,1.184l-0.025,0.086l-0.036,0.079l-0.099,0.099l-0.237,0.135l-0.09,0.111l-0.041,0.146l-0.006,0.45
	l-0.1,0.303l-0.075,0.316l-0.035,0.088l0.021,0.718l-0.046,0.382l-0.136,0.297l0.043-1.137l-0.043-0.573l-0.132-1.29l0.044-0.447
	l0.039-0.13l0.163-0.391l0.037-0.344l0.05-0.113l0.06-0.193l-0.035-0.694l0.037-0.299l0.449-1.437l0.126-0.261l0.071-0.464
	l0.099-0.248l0.285-0.519l0.483-1.314l0.029-0.167l0.083-0.147l0.494-1.979l0.145-0.832l-0.001-0.851l0.05-1.039l-0.134-1.111
	l-0.338-2.068l-0.083-0.2l-0.359-0.577l-0.191-0.724l-0.123-0.218l0.049-0.164l-0.02-0.167l-0.291-0.783l-0.041-0.069l-0.201-0.349
	l-0.296-0.347l-0.391-0.294l-0.122-0.067l-0.026-0.005l-0.024-0.035l-0.053,0.001l-0.063,0.013l-0.054-0.009l-0.108-0.034
	l-0.248,0.005l-0.104-0.026l-0.05-0.058l-0.118-0.229l-0.025-0.105l-0.07-0.098l-0.125-0.063l-0.076-0.069l0.08-0.122l0.367-0.016
	l0.347-0.151l0.294-0.252l0.209-0.325l0.134-0.282l0.029-0.129l0.052-0.097l0.01-0.047l-0.021-0.035l-0.043-0.011l-0.041,0.01
	l-0.017,0.028l-0.033,0.007l-0.325,0.457l-0.171,0.186l0.228-0.581l-0.086,0.07l-0.241,0.271l-0.084,0.119l-0.039,0.071
	l-0.033,0.078l-0.009,0.077l0.034,0.062l0.004,0.039l-0.048,0.132l-0.011,0.063l-0.016,0.022l-0.036,0.022l-0.042,0.014
	l-0.032,0.002l-0.031-0.01l-0.004-0.01l0.001-0.021l-0.014-0.032l-0.013-0.046l-0.006-0.151l0.006-0.055l0.054-0.113l0.154-0.209
	l0.028-0.114l0.016-0.136l0.057-0.082l0.081-0.069l0.089-0.103l0.546-1.014l0.036-0.044l0.04-0.036l0.032-0.044l0.011-0.062
	l0.001-0.125l0.017-0.052l0.038-0.027l0.012-0.028l0.102-0.142l0.026-0.046l-0.001-0.066l-0.019-0.05l-0.033-0.038l-0.045-0.028
	l0.045-0.054l0.028-0.058l0.011-0.061l-0.009-0.062l-0.095,0.08l-0.03,0.042l-0.024-0.093l0.081-0.175l-0.033-0.079l-0.117-0.032
	l-0.075,0.073l-0.041,0.105l-0.014,0.053l-0.099,0.087l-0.045-0.016l-0.008-0.072l0.02-0.087l0.03-0.077l0.034-0.063l0.344-0.451
	l0.094-0.178l0.042-0.196l-0.034-0.141l-0.203-0.255l-0.087-0.144l0.05-0.01l0.043-0.017l0.039-0.026l0.034-0.039l0.126-0.237
	l0.045-0.136l0.015-0.126l-0.022-0.105l-0.046-0.079l-0.19-0.202l-0.038-0.009l-0.087,0.021l-0.061-0.01l-0.031-0.049l-0.021-0.052
	l-0.026-0.019l-0.1-0.028l-0.196-0.35l-0.058-0.039l-0.057-0.02l-0.042-0.027l-0.02-0.055l0.015-0.025l0.035-0.021l0.024-0.023
	l-0.015-0.031l-0.02-0.02l-0.043-0.063l-0.031-0.107l-0.262-0.499l-0.064-0.065l-0.091-0.007l-0.055-0.062l-0.017-0.148
	l-0.032-0.103l-0.103,0.077l-0.13-0.044l-0.003-0.046l0.273-0.151l0.081-0.058l-0.128,0.02l-0.216,0.096l-0.1,0.008l-0.09-0.072
	l0.045-0.055l-0.097-0.145l-0.043-0.017l-0.133-0.014l-0.029,0.275l0.078,0.573l-0.074,0.252l-0.067-0.077l-0.083-0.043
	l-0.159-0.048l-0.054-0.038l-0.087-0.12l-0.062-0.057l-0.079-0.03l-0.197-0.041l-0.05-0.027l-0.008-0.069l0.027-0.036l0.039-0.021
	l0.02-0.022l-0.004-0.052l-0.038-0.04l-0.011-0.042l-0.033-0.082l-0.074-0.054l-0.177-0.08l-0.024-0.039l-0.004-0.112l-0.025-0.043
	l-0.109-0.077l-0.082-0.265l-0.041-0.058l-0.067-0.056l-0.047-0.078l-0.03-0.089l-0.017-0.088l-0.025,0.038l-0.038,0.039
	l-0.017,0.03l-0.094-0.059l-0.04-0.081l-0.021-0.094l-0.036-0.096l-0.041-0.032l-0.058-0.026l-0.054-0.043l-0.026-0.08l-0.036-0.051
	l-0.155-0.146l-0.038-0.076l-0.016-0.081l-0.035-0.089l-0.087-0.148l-0.123-0.104l-0.083,0.069l-0.147,0.32l-0.249,0.405
	l-0.061,0.065l-0.031,0.08l0.05,0.095l0.068-0.049l0.012,0.101l-0.028,0.233l-0.005,0.2l-0.022,0.059l-0.059,0.053l-0.143,0.08
	l-0.047,0.062l-0.003,0.055l0.03,0.038l0.063,0.046l0.049,0.086l0.006,0.039l-0.003,0.075l-0.048,0.273l-0.048,0.148l-0.058,0.084
	l-0.179-0.615l0.016-0.188l0.12-0.593l0.032-0.204l0.232-0.767l0.093-0.612l0.083-0.553l0.057-0.066l0.713-0.191l0.254-0.07
	l0.714-0.193l1.107-0.303l1.429-0.392l1.681-0.464l1.863-0.516l1.979-0.553l2.027-0.57l2.013-0.572l1.935-0.552l0.179-0.05
	l1.617-0.465l1.6-0.464l1.345-0.391l1.032-0.302l0.662-0.193l0.233-0.069l0.828-0.243l-0.153-0.901l-0.084-0.483l-0.39-2.297
	l-0.232-1.385l-0.232-1.381l-0.108-0.343l-0.342-0.646l-0.094-0.342l0.038-0.399l0.144-0.405l0.412-0.755l0,0l0.093-0.157
	l0.517-0.508l0.642-0.635l0.551-0.545l0.32-0.316l0.321-0.202l0.904-0.376l0.189-0.109l1.128-0.863l0.534-0.294l0.063-0.106v-0.193
	l-0.051-0.442l-0.046-0.412l-0.047-0.413l-0.047-0.413l-0.047-0.412l-0.047-0.412l-0.047-0.411l-0.046-0.411l-0.048-0.411
	l-0.046-0.409l-0.047-0.41l-0.046-0.411l-0.048-0.409l-0.046-0.408l-0.046-0.409l-0.047-0.409l-0.046-0.407l-0.046-0.408
	l-0.047-0.407l-0.046-0.408l-0.046-0.406l-0.047-0.405l-0.046-0.406l-0.046-0.406l-0.046-0.405l-0.046-0.405l-0.047-0.404
	l-0.045-0.406l-0.047-0.403l-0.044-0.405l-0.047-0.401l-0.046-0.403l-0.046-0.405l0.525-0.133l0.524-0.135l0.522-0.133l0.522-0.135
	l0.521-0.134l0.521-0.135l0.519-0.133l0.518-0.135l0.519-0.136l0.515-0.135l0.517-0.135l0.515-0.134l0.513-0.137l0.513-0.134
	l0.511-0.136l0.511-0.136l0.51-0.137l0.508-0.136l0.509-0.136l0.507-0.136l0.506-0.136l0.504-0.136l0.504-0.138l0.503-0.136
	l0.503-0.136l0.501-0.138l0.5-0.137l0.5-0.138l0.498-0.137l0.497-0.138l0.497-0.137l0.496-0.138l0.418-0.116l0.091-0.052
	l0.023-0.077l-0.036-0.232l-0.012-0.07l-0.031-0.199l-0.049-0.309l-0.063-0.401l-0.076-0.475l-0.084-0.528l-0.09-0.564l-0.092-0.582
	l-0.093-0.583l-0.09-0.563l-0.082-0.525l-0.076-0.471l-0.063-0.397l-0.049-0.307l-0.031-0.197l-0.013-0.07l1.051,0.333l1.05,0.329
	l1.048,0.327l1.048,0.323l1.047,0.322l1.046,0.319l1.047,0.318l1.046,0.312l1.045,0.313l1.045,0.31l1.044,0.306l1.043,0.304
	l0.884,0.255l0.883,0.255l0.884,0.251l0.752,0.214l0.131,0.037l0.636,0.179l0.92,0.282l0.916,0.278l0.918,0.276l0.917,0.274
	l-1.031,0.326l-1.036,0.326l-1.04,0.325l-1.042,0.323l-1.047,0.324l-1.051,0.323l-1.056,0.323l-1.06,0.322l0.122,0.387l0.119,0.388
	l0.121,0.39l0.12,0.388l0.122,0.389l0.12,0.388l0.121,0.391l0.121,0.389l0.123,0.396l0.009,0.028l0.093,0.304l0.205,0.667
	l0.206,0.668l0.093,0.305l0.183,0.594l0.183,0.593l0.186,0.594l0.182,0.595l0.186,0.596l0.185,0.597l0.04,0.129l0.144,0.466
	l0.186,0.597l0.186,0.599l0.186,0.597l0.185,0.598l0.188,0.6l0.186,0.602l0.188,0.6l0.186,0.602l0.188,0.602l0.188,0.602
	l0.188,0.603l0.188,0.604l0.188,0.605l0.189,0.605L1026.961,688.107z"/></svg>