<?xml version="1.0" encoding="utf-8"?>
<!-- Generator: Adobe Illustrator 15.0.0, SVG Export Plug-In . SVG Version: 6.00 Build 0)  -->
<!DOCTYPE svg PUBLIC "-//W3C//DTD SVG 1.1//EN" "http://www.w3.org/Graphics/SVG/1.1/DTD/svg11.dtd">
<svg version="1.1" id="Ebene_1" xmlns="http://www.w3.org/2000/svg" xmlns:xlink="http://www.w3.org/1999/xlink" x="0px" y="0px"
	 width="1920px" height="1080px" viewBox="0 0 1920 1080" enable-background="new 0 0 1920 1080" xml:space="preserve">

<path fill="#F4E0B6" stroke="#FFFFFF" d="M643.038,622.801l-0.046,0.056l0.003-0.052l0.066-0.135l0.12-0.154l0.143-0.109
	l0.136,0.002l0.006,0.006l0.002,0.005l-0.006,0.01l-0.014,0.012l-0.064,0.023l-0.087,0.048l-0.087,0.061l-0.065,0.06
	L643.038,622.801z M646.971,623.565l-0.23,0.047l0.07-0.098l0.101-0.045l0.083,0.01l0.016,0.068L646.971,623.565z M655.746,615.517
	l-0.101-0.019l-0.197-0.164l-0.016-0.014l0.016,0.01l0.002,0.003l0.01,0.004l0.013-0.007l0.011-0.017l0.095,0.01l0.064-0.026
	l0.053-0.037l0.062-0.017l0.092,0.015l0.053,0.037l0.008,0.057l-0.043,0.074L655.746,615.517z M655.44,611.26l-0.025,0.065
	l0.093,0.005l0.072,0.045l0.16,0.139l-0.066-0.01l-0.021,0.018l0.012,0.041l0.032,0.052l0.02,0.008l0.173,0.126l0.145,0.027
	l0.064,0.027l0.128,0.103l0.059,0.028l-0.064,0.021l-0.101-0.02l-0.068,0.012l-0.001-0.106l-0.087,0.013l-0.11,0.057l-0.067,0.024
	l-0.071-0.012l-0.098,0.022l-0.094,0.041l-0.061,0.045l-0.027,0.011l-0.091,0.013l-0.044,0.015l-0.045,0.03l-0.079,0.08l-0.043,0.03
	l-0.076,0.027l-0.079,0.002l-0.182-0.044l0.03-0.016l0.027-0.012l0.067-0.015l-0.025,0.03l0.032-0.014l0.023-0.013l0.021-0.017
	l0.022-0.027l-0.046-0.002l-0.017-0.006l-0.016-0.046l0.021-0.025l0.067,0.013l0.05,0.024l0.028,0.042l-0.002,0.06l0.061-0.076
	l0.046-0.133l0.057-0.087l0.044-0.095l-0.046-0.054l-0.084-0.021l-0.072-0.006l-0.139,0.016l-0.365,0.095l-0.122,0.064l0.073-0.013
	l0.028-0.008l0.019,0.079l-0.097,0.193l-0.005,0.055l0.026,0.067l0.011,0.094l0.044,0.061l0.125-0.029l-0.008-0.045l-0.036-0.096
	l-0.022-0.036l0.066,0.007l0.034,0.046l0.009,0.067l-0.013,0.076l0.075-0.093l0.053-0.007l0.006,0.059l-0.44,0.802l-0.011,0.029
	l-0.026,0.1l-0.129,0.211l-0.274,0.68l-0.113,0.169l-0.137,0.124l-0.325,0.175l-0.783,0.285l-0.29,0.07l-0.078,0.051l-0.07,0.029
	l-0.304-0.003l-0.177,0.054l-0.166,0.088l-0.418,0.303l-0.593,0.397l-0.493,0.39l-0.165,0.2l-0.1,0.084l-0.068,0.077l-0.259,0.14
	l-0.302,0.216l-0.496,0.487l-0.076,0.103l-0.02,0.076l-0.052,0.004l-0.02,0.065l-0.557,0.894l-0.366,0.587l-1.069,0.977
	l-0.207,0.238l-0.02,0.048l-0.042,0.158l-0.072,0.158l-0.02,0.233l-0.061,0.122l-0.118,0.116l-0.102,0.038l-0.106-0.031
	l-0.138-0.085l-0.119-0.049l-0.135-0.035l-0.11-0.051l-0.045-0.101l0.057-0.007h0.137l0.047-0.012l0.045-0.045l0.04-0.074
	l0.023-0.075l-0.023-0.139l0.24-0.264l0.068-0.113l0.022,0.002l0.006,0.004l0.003-0.002l0.021-0.01l0.026,0.019l0.108,0.146
	l0.212-0.058l0.194-0.159l0.052-0.161l0.027-0.029l0.069-0.016l0.062-0.045l0.204-0.223l0.015-0.004l0.028-0.002l0.037-0.007
	l0.037-0.02l0.082-0.119l-0.024-0.119l-0.088-0.101l-0.112-0.064l-0.126-0.01l-0.102,0.051l-0.07,0.082l-0.03,0.096l0.049,0.109
	l0.003,0.014l-0.012,0.013l-0.054,0.074l-0.019,0.032l-0.006,0.04l0.009,0.024l0.002,0.026l-0.03,0.046l-0.062,0.067l-0.033,0.022
	l-0.046,0.019l-0.001,0.029l-0.013,0.094l-0.192-0.016l-0.375,0.028l-0.181-0.038l-0.194-0.104l-0.097-0.028l-0.077,0.034
	l-0.185,0.211v0.009l0.024,0.001l0.033,0.027l0.042,0.045l0.035,0.021l0.021,0.026v0.063l-0.13,0.201l-0.092,0.076l-0.102,0.063
	l-0.082,0.068l-0.034,0.096l0.045,0.088l0.154,0.063l-0.033,0.077l-0.04,0.037l-0.091,0.066l-0.045,0.043l-0.013,0.031l0.051-0.023
	l0.249-0.164l0.071-0.037l0.055,0.005l0.072,0.067l-0.009,0.043l-0.521,0.244l-0.517,0.421l-0.427,0.547l-0.045,0.11l-0.042-0.003
	l-0.042-0.01l0.09-0.073l0.031-0.091l0.005-0.196l0.047-0.134l0.074-0.019h0.096l0.115-0.071l0.039-0.084l0.016-0.118l-0.014-0.119
	l-0.047-0.088l-0.138-0.072l-0.047,0.064l0.034,0.082l0.103-0.02l0.031,0.022l0.008,0.118l-0.008,0.063l-0.035,0.063l-0.076,0.059
	l-0.141,0.046l-0.063,0.061l-0.093,0.063l-0.077-0.049l-0.127-0.166l-0.035-0.003l0.025,0.064l0.067,0.11l-0.002,0.049l-0.022,0.057
	l-0.035,0.056l-0.044,0.058l-0.041,0.03l-0.103,0.051l-0.035,0.023l-0.013,0.028l-0.006,0.032l-0.014,0.032l-0.028,0.025
	l-0.045,0.01l-0.034-0.004l-0.028-0.008l-0.026,0.002l-0.162,0.043h-0.038l-0.046-0.013l-0.067,0.002l-0.068,0.014l-0.048,0.024
	l0.024,0.072l0.016,0.105l0.001,0.101l-0.033,0.104l0.011,0.043l0.029,0.042l0.038,0.032l0.068,0.036l0.021-0.016l0.006-0.039
	l0.021-0.036l0.099-0.061l0.06-0.026l0.052,0.01l0.071,0.045l0.011,0.06l-0.46,0.886l-0.117,0.151l-0.049,0.053l-0.033,0.028
	l-0.039,0.014l-0.061,0.009l0.002-0.019l-0.069-0.028l-0.076-0.021l-0.013,0.007l-0.044-0.01l-0.095,0.032l-0.05-0.013l-0.052-0.033
	l-0.046-0.021l-0.049-0.007l-0.061,0.007l-0.156,0.1l-0.209,0.167l-0.184,0.107l-0.078-0.074l-0.027-0.017l-0.278,0.073
	l-0.095,0.039l-0.084,0.055l-0.367,0.421l-0.346,0.634l-0.099,0.278l-0.039,0.274l-0.049,0.134l-0.036,0.225l0.007,0.057l0.037,0.1
	l-0.04,0.101l-0.043,0.112l0.086,0.035l0.023-0.055l0.069,0.032l0.075,0.078l0.04,0.083l-0.028-0.022l-0.028-0.019l-0.021-0.022
	l-0.049,0.001l-0.013,0.024l-0.019,0.02l-0.152,0.182l-0.091,0.176l-0.112,0.106l-0.215-0.027l-0.336-0.121l-0.027-0.01
	l-0.373-0.086l-0.174,0.041l-0.024-0.002l-0.097-0.101l-0.037-0.01h-0.095l-0.048-0.02l-0.035-0.032l-0.017-0.033l-0.086-0.37
	l0.043-0.084l-0.02-0.063l-0.066-0.029l-0.094,0.016l-0.059-0.066l-0.163-0.004l-0.009-0.085l-0.029-0.02l-0.081,0.004l-0.033-0.052
	l-0.014-0.128l-0.058-0.026l-0.033-0.029l-0.026-0.025l-0.066-0.046l-0.077,0.001l0.002-0.043l-0.03-0.138l0.003-0.021l-0.001-0.029
	l0.012-0.028l0.047-0.02h0.028l0.086,0.01l0.072-0.11l-0.021-0.109l-0.046-0.096l-0.002-0.067l-0.02-0.06l-0.133-0.208l-0.01-0.071
	l0.015-0.036l0.003-0.106l0.009-0.044l0.037-0.057l0.038-0.042l0.018-0.038l-0.023-0.048l-0.054-0.003l-0.358-0.011l-0.055-0.012
	l-0.043-0.036l-0.031-0.046l-0.02-0.048l-0.01-0.055l0.006-0.183l-0.007-0.024l-0.011-0.024l-0.015-0.022l-0.018-0.023l-0.132-0.234
	l-0.072-0.097l-0.097-0.056l-0.065-0.062l-0.063-0.223l-0.047-0.083l-0.161-0.06l-0.496-0.015l-0.692-0.02l-0.132-0.033
	l-0.089-0.077l-0.473-0.713l-0.422-0.638l-0.104-0.158l-0.396-0.6l-0.296-0.449l-0.071-0.17l-0.028-0.187l-0.068-0.144l-0.195-0.041
	l-0.261,0.071l-0.228,0.109l-0.25,0.09l-0.002-0.004l-0.137-0.231l-0.073-0.07l-0.032-0.072l0.033-0.097l0.096-0.177l0.022-0.164
	l-0.013-0.803l-0.015-0.052l-0.012-0.022l-0.026-0.09l0.002-0.026l-0.113-0.143l-0.012-0.104l0.007-0.265l-0.063-0.137l-0.013-0.246
	l-0.094-0.229l-0.013-0.096l0.013-0.045l0.072-0.149l-0.081-0.148l-0.026-0.257l-0.245-0.436l-0.024-0.092l0.001-0.104l0.071-0.162
	l-0.173-0.723l0.007-0.154l0.11-0.322l-0.012-0.068l-0.023-0.051l-0.014-0.186l0.017-0.135l0.045-0.18l0.043-0.071l0.032-0.07
	l-0.006-0.081l-0.034-0.151l0.009-0.186l0.082-0.374l0.206-0.486l0.015-0.091l-0.026-0.16l-0.409-1.107l0.004-0.102l-0.12-0.298
	l-0.008-0.222l-0.179-0.33l0.077-0.102l-0.007,0.096l0.035,0.109l0.063,0.106l0.077,0.081l-0.004-0.182l-0.017-0.08l-0.043-0.058
	l-0.012-0.052l0.063-0.237l-0.027-0.018l-0.098,0.179l-0.016-0.104l0.011-0.209l-0.013-0.13l-0.033-0.058l-0.086-0.38l-0.003-0.059
	l0.021-0.055l0.042-0.087l-0.032,0.014l-0.07,0.016l-0.031,0.01l0.005-0.832l0.044-0.143v0.032l0.007,0.023l0.028,0.061l0.024-0.025
	l-0.013-0.021l-0.017-0.05l0.023-0.026l0.028-0.048l-0.02-0.104l-0.05-0.116l-0.066-0.081l-0.024,0.024l0.048,0.147l0.011,0.093
	l-0.041,0.047l-0.038-0.036l-0.021-0.088l-0.014-0.151l-0.237-0.631l-0.023-0.158l0.032-0.143l0.111-0.119l0.211-0.081l0.211-0.013
	l0.189,0.019l0.175-0.025l0.166-0.139l0.026,0.019l-0.093,0.076l-0.036,0.015l0.048,0.033l0.05,0.048l0.036,0.048l0.002,0.033
	l0.009,0.026l0.027,0.161l0.013,0.034l-0.013,0.148l0.006,0.026l0.026,0.07l0.003,0.02l-0.021,0.029l-0.067,0.055l-0.019,0.028
	l0.019,0.227l0.146,0.162l0.459,0.285l0.028-0.03l-0.225-0.149l-0.101-0.091l-0.013-0.069l0.104-0.033l0.293,0.051l0.044,0.001
	h0.001l1.023,0.629l0.057,0.051l0.045,0.123l0.046,0.039l0.084-0.05l0.125,0.021l0.167,0.015l0.093-0.015l0.232-0.074h0.041
	l0.088,0.016l0.041-0.007l0.047-0.031l-0.003-0.026l-0.015-0.025l0.013-0.033l0.232-0.185l0.002-0.016l0.027-0.086l0.015-0.029
	l0.018-0.005l0.135-0.092l0.08-0.032l0.071-0.015l0.352-0.019l0.088,0.004l0.084,0.029l0.067,0.058l0.138,0.281l0.029,0.04
	l0.048,0.018l0.047,0.002l0.048,0.003l0.104-0.009l0.082-0.029l0.066-0.055l0.081-0.132l0.015-0.031l0.016-0.072l-0.006-0.042
	l-0.023-0.026l-0.013-0.03l0.022-0.05l0.058-0.052l0.157-0.073l0.064-0.058l0.31-0.572l0.061-0.069l0.144-0.108l0.057-0.066
	l0.008-0.036l-0.013-0.052l-0.005-0.024l0.003-0.032l0.025-0.042l0.209-0.201l0.068-0.066l0.061-0.049l0.029-0.02l0.035-0.001
	l0.076,0.004l0.136,0.022l0.094,0.055l0.161,0.149l0.394,0.181l0.171,0.108l0.072,0.168l0.056,0.071l0.077,0.025l0.081,0.011
	l0.068,0.037l0.007,0.109l0.009,0.033l0.029,0.039l0.024,0.024l0.227,0.139l0.093,0.037l0.087,0.016l0.095-0.017l0.079-0.044
	l0.141-0.094l0.155-0.05l0.52-0.08l0.334-0.106l0.068,0.004l0.064,0.017l0.072,0.012l0.091-0.013l0.075-0.031l0.051-0.024
	l0.054-0.021l0.082-0.005l0.082,0.013l0.354,0.179l-0.041,0.044l-0.123,0.053l-0.084,0.113l0.11,0.404l-0.012,0.173l0.005,0.044
	l0.041,0.061l0.044,0.018l0.05,0.013l0.06,0.036l0.057,0.102l-0.014,0.104l-0.035,0.109l-0.002,0.121l0.063,0.094l0.099,0.066
	l0.078,0.065l0.002,0.097l0.005,0.008l0.002,0.004l0.015-0.003l0.051-0.004l0.092-0.04l0.065-0.055l0.019-0.063l-0.045-0.062
	l0.017-0.045l0.086-0.065l0.149-0.09l0.084-0.084l0.039-0.008l0.035,0.04l0.068,0.056l0.074,0.014l0.145-0.008l0.025,0.033
	l0.026,0.019l0.015-0.02h0.011l0.01,0.008l0.017,0.005l0.025-0.051l0.181,0.061l0.075-0.01l0.089-0.028l0.114,0.035l0.042,0.02
	l0.078,0.035l0.098,0.03l0.087-0.026l0.065-0.058l0.072-0.035l0.181,0.066l0.104,0.011l0.176-0.004l0.097-0.021l0.114-0.045
	l0.102-0.051l0.122-0.081l0.094-0.035l0.1-0.023l0.071-0.008l0.021,0.009l0.038,0.038l0.02,0.008l0.024-0.004l0.038-0.021
	l0.058-0.013l0.041-0.015l0.042-0.007l0.046,0.019l0.138,0.022l0.05,0.022l0.153,0.107l0.117,0.055l0.13,0.041l0.126,0.011
	l0.105-0.032l0.077-0.093l0.019-0.114l-0.016-0.115l-0.029-0.087l0.184-0.001l0.027-0.022l0.044-0.067l0.028-0.021l0.178-0.027
	l0.038-0.016l0.188-0.191l0.115-0.097l0.082-0.034l0.058,0.07l0.005,0.112l0.024,0.098l0.12,0.022l0.267-0.035l0.072-0.035
	l0.018-0.01l-0.105-0.074l0.05-0.013l0.161-0.017l-0.045-0.158l0.012-0.053l0.078,0.027l0.03,0.007l0.034-0.015l0.151-0.131
	l0.091-0.036l0.099-0.01l0.013,0.001l0.099,0.005l0.115,0.002l0.336-0.037l0.098,0.01l0.278,0.13l0.11,0.07l0.079,0.104l0.032,0.125
	l-0.024,0.136l-0.021,0.003l-0.065,0.015l-0.01,0.006l0.071,0.067l-0.031,0.055l-0.051,0.051l0.035,0.11l-0.017,0.094l-0.059,0.178
	l0.112,0.012l0.07,0.063l0.099,0.174l0.075,0.081l0.286,0.218l-0.041,0.017l-0.08,0.068l0.077,0.025l0.022,0.052l0.012,0.064
	l0.046,0.062l0.056,0.019l0.153,0.018l0.194,0.057l0.151-0.035l0.143-0.061l0.119-0.036l0.005,0.065l-0.062,0.122l0.012,0.042
	l0.057,0.049l0.079,0.09l0.042,0.035l0.119,0.016l0.097-0.071l0.142-0.199l0.063-0.031l0.054,0.031l0.039,0.058l0.018,0.046
	l0.01,0.046l0.009,0.164l0.032,0.054l0.063,0.037l0.122,0.043l0.035,0.002l0.033-0.007l0.035-0.001l0.043,0.017l0.029,0.029
	l0.011,0.022l0.015,0.014l0.042,0.003l0.026-0.029l-0.006-0.058l0.004-0.056l0.035-0.125l0.074-0.004l0.031,0.02l0.043,0.12
	l-0.005,0.024l0.003,0.025l0.037,0.034l0.069,0.047l0.011,0.023l-0.019,0.037l0.062,0.056l0.413,0.259l0.008-0.048l0.032-0.034
	l0.099-0.077l0.026,0.06l0.007,0.112l0.039,0.048l0.01-0.02l0.012-0.052l0.02,0.032l0.012,0.016l0.005,0.02l-0.001,0.045
	l0.085-0.009l0.104,0.013l0.1,0.03l0.075,0.052l-0.013-0.042l-0.003-0.033l0.011-0.065l0.234,0.144l0.11,0.026l0.045-0.066
	l0.053,0.032l0.037,0.034l0.014,0.038l-0.014,0.045l0.03,0.021l0.06-0.141l0.054-0.033l0.104,0.02l0.087,0.045l0.085,0.067
	l0.056,0.071l-0.003,0.064l0.03,0.022l0.06-0.037l0.054-0.047l0.057-0.028l0.127,0.032l0.166-0.006l0.072,0.024l0.004-0.021
	l0.013-0.034l0.001-0.019l0.045,0.058l0.013,0.026l0.033-0.062l0.046-0.042h0.037l0.009,0.062l0.053-0.058l0.028-0.02l0.043-0.013
	l0.006-0.058l0.031-0.01l0.044,0.024l0.044,0.045l0.005,0.033l-0.013,0.106l0.02,0.045l0.103,0.055l0.12,0.011l0.119-0.023
	l0.097-0.041l0.017,0.073l0.034,0.055L655.44,611.26z"/></svg>