<?xml version="1.0" encoding="utf-8"?>
<!-- Generator: Adobe Illustrator 15.0.0, SVG Export Plug-In . SVG Version: 6.00 Build 0)  -->
<!DOCTYPE svg PUBLIC "-//W3C//DTD SVG 1.1//EN" "http://www.w3.org/Graphics/SVG/1.1/DTD/svg11.dtd">
<svg version="1.1" id="Ebene_1" xmlns="http://www.w3.org/2000/svg" xmlns:xlink="http://www.w3.org/1999/xlink" x="0px" y="0px"
	 width="1920px" height="1080px" viewBox="0 0 1920 1080" enable-background="new 0 0 1920 1080" xml:space="preserve">

<path fill="#F4E0B6" stroke="#FFFFFF" d="M1080.596,604.865l0.152,0.083l0.15,0.056l0.084,0.013l0.084,0.003l0.074,0.014
	l0.064,0.041l-0.146,0.304l-0.047,0.052l-0.015,0.026l-0.002,0.041l0.02,0.148l-0.021,0.009l-0.033-0.112l-0.003-0.039l-0.047,0.039
	l0.008,0.148l-0.024,0.119l-0.033,0.088l0.01,0.083l-0.081-0.035l-0.031-0.071l-0.006-0.076l-0.1-0.068l-0.069-0.004l-0.075-0.026
	l-0.066,0.005l-0.039,0.093l-0.006,0.073l-0.059,0.04l-0.106-0.03l-0.047-0.054l-0.065-0.105l-0.042-0.108l0.021-0.144l-0.108-0.152
	l-0.05-0.127l0.111-0.102l0.306-0.055l0.155-0.052L1080.596,604.865z M1079.933,601.547l-0.095,0.163l-0.071,0.013l-0.082-0.006
	l-0.136-0.009l-0.084-0.019l0.021-0.039l0.032-0.055l0.394-0.156l0.052,0.035L1079.933,601.547z M1080.375,600.812l0.118,0.051
	l-0.004,0.065l-0.278,0.277l-0.132,0.176l-0.053,0.05l-0.058-0.059l0.025-0.074l0.035-0.077l0.026-0.115l-0.015-0.06l-0.014-0.025
	l-0.012-0.038l0.021-0.026l0.023,0.036l0.064,0.013l0.076-0.049l-0.028-0.094l-0.044-0.038l0.005-0.067l0.025-0.053l0.01-0.057
	l0.015-0.058l0.069,0.011l0.104-0.025l0.031,0.029l-0.077,0.068l-0.002,0.029l-0.012,0.035l0.012,0.052h0.037L1080.375,600.812z
	 M1071.392,592.198l0.073,0.187l-0.071,0.123l-0.108,0.103l-0.031,0.13l0.023,0.028l0.097,0.093l0.026,0.02l0.024,0.004l0.044,0.051
	l0.032,0.003l0.156-0.037l0.063-0.039l0.052-0.09l0.02-0.071l0.007-0.091l-0.026-0.067l-0.249-0.003l-0.03,0.018l-0.062,0.047
	l-0.038,0.016l-0.011-0.026l0.061-0.088l0.029-0.021l0.014-0.026l0.007-0.026l0.007-0.017l0.047-0.027l0.357-0.053l0.059-0.028
	l0.149-0.148l0.032-0.004l0.086,0.062l0.25-0.056l0.148,0.055l0.285-0.009l0.085,0.028l-0.098,0.069l-0.041,0.041l-0.035,0.052
	l-0.044-0.062l-0.099,0.025l-0.097,0.07l-0.041,0.074l0.051,0.057h0.103l0.104-0.035l0.058-0.043l0.038,0.026l0.047,0.035
	l0.026,0.035v0.059l-0.046-0.05l-0.091,0.195l0.106,0.193l0.209,0.16l0.216,0.095l0.149,0.01l0.045,0.012l0.121,0.08l0.054,0.033
	l0.001,0.056l-0.047,0.106v0.097l-0.023,0.047l-0.042,0.026l-0.06-0.021v-0.073l-0.037-0.004l-0.055,0.03l-0.097,0.078l-0.024,0.037
	l-0.025,0.104l0.006,0.067l0.057,0.001l0.108-0.038l0.053,0.008l0.014-0.031l0.006-0.014l0.016-0.112l0.135,0.13l0.137,0.086
	l0.147,0.025l0.169-0.045l0.042-0.029l0.069-0.024l0.138-0.152l0.096-0.066l0.038-0.092l-0.018-0.126l-0.016-0.104l-0.018-0.186
	l0.039-0.077l0.065-0.042l0.161-0.05l0.131-0.083l0.111-0.103l0.12-0.184l0.061-0.148l0.024-0.026l-0.002-0.043l0.002-0.024
	l0.132-0.23l0.015-0.045l-0.01-0.049l-0.024-0.024l-0.016-0.023l0.014-0.055l0.059-0.063l0.163-0.082l0.09-0.148l0.064-0.039
	l0.071,0.007l0.06,0.06l0.01,0.037l-0.015,0.063l0.01,0.048l0.024,0.042l0.058,0.046l0.021,0.034l0.023,0.023l0.093,0.062
	l0.038,0.034l0.023,0.036l0.041,0.085l0.024,0.037l0.029,0.026l0.037,0.028l0.037,0.02l0.022,0.006l0.028,0.014l0.065,0.048
	l0.008,0.075l-0.021,0.081l-0.112,0.108l-0.122,0.224l-0.027,0.222l-0.062,0.264l-0.063,0.527l-0.004,0.52l-0.041,0.148
	l-0.251,0.183l-0.256,0.311l-0.131,0.016l-0.083,0.132l-0.043,0.206l0.013,0.177l0.021,0.188l0.026,0.185l0.075,0.215l0.079,0.223
	l0.07,0.129l0.099,0.125l0.055,0.064l0.028,0.02l0.03,0.033l0.054,0.083l0.028,0.033l0.119,0.083l0.078,0.039l0.058,0.007
	l0.057,0.024l0.198,0.236l0.067,0.036l0.321,0.125l0.012,0.004l0.08,0.009l0.119-0.002l0.178-0.152l0.037-0.006l0.039,0.006
	l0.084,0.033l-0.015,0.069l0.013,0.089l0.05,0.077l0.063,0.042l0.164,0.012l0.354-0.006l0.131-0.07l0.132,0.042l0.086,0.077
	l-0.108,0.103l0.021,0.103l0.032,0.064l0.017,0.029l0.065,0.077l0.077,0.04l0.175-0.014l-0.059,0.119l0.02,0.12l0.024,0.109
	l0.084,0.174l-0.007,0.101l0.076,0.144l0.132,0.095l0.182,0.101l0.093,0.025l0.102,0.005l0.055,0.005l0.027,0.083l-0.094,0.042
	l-0.048,0.077l-0.013,0.156l-0.066,0.125l-0.012,0.11l-0.008,0.119l-0.043,0.084l0.07,0.108l0.035,0.13l-0.059,0.189l-0.105,0.119
	l-0.055,0.146l0.063,0.086l0.005,0.097l0.065,0.164l-0.102,0.156l-0.018,0.047l-0.015,0.026l-0.004,0.029l0.071,0.067l0.036,0.051
	l-0.104,0.107l-0.057,0.093l-0.063,0.165l-0.011,0.129l-0.043,0.088l-0.002,0.087l-0.035,0.09l-0.04,0.059l-0.202,0.168
	l-0.023,0.031l-0.002,0.033l0.011,0.045l0.004,0.058l-0.009,0.053l0.026,0.084l-0.007,0.057l0.022,0.074l-0.032,0.071l-0.063,0.068
	l-0.305,0.179l-0.093,0.11l-0.065,0.377l-0.151,0.11l-0.035,0.011l-0.038-0.002l-0.04,0.013l-0.036,0.031l-0.012,0.03l-0.004,0.03
	l-0.037,0.128l-0.021,0.04l-0.042,0.031l-0.136,0.137l-0.05,0.083l-0.117,0.109l-0.052,0.123l0.007,0.146l-0.027,0.297l-0.028,0.148
	l-0.042,0.035l-0.018,0.044h-0.002l-0.013,0.017l0.061,0.059l0.045,0.077l0.067,0.174l0.04,0.071l0.114,0.141l0.041,0.072
	l0.085,0.121l0.139,0.123l0.499,0.327l0.047,0.02l0.06,0.008l0.694,0.29l0.161,0.024l0.321,0.007l0.053-0.007l0.111-0.02
	l0.228-0.133l0.235-0.181l0.175-0.209l0.059-0.046l0.141,0.113l0.102,0.287l-0.068,0.129l-0.047,0.046l-0.021,0.074l0.011,0.077
	l0.046,0.057l0.139,0.106l0.066,0.03l0.083-0.007l0.135-0.091l0.202-0.268l0.111-0.089l0.049-0.05l0.028-0.087l-0.004-0.088
	l-0.051-0.063l-0.087-0.043l-0.023-0.032l0.07-0.125l0.053,0.013l0.048-0.011l0.029-0.034l0.004-0.055l0.024-0.01l0.07,0.015
	l0.173,0.007l0.077,0.014l0.069,0.038l0.194,0.135l0.028,0.035l0.099,0.198l-0.032,0.187l0.173,0.222l0.018,0.131l0.089-0.072
	l0.098,0.043l0.105,0.063l0.1,0.011l0.09-0.015l0.217,0.017l0.098-0.004l-0.016,0.027l-0.008,0.009l-0.013,0.01l-0.387,0.032
	l-0.177,0.05l0.011,0.146l0.055,0.034l0.074,0.022l0.078,0.037l0.06,0.079l0.049,0.028l0.077-0.033l0.142-0.091l0.161-0.03
	l0.339-0.013l0.153-0.065l0.042-0.063l-0.042-0.047l-0.079-0.025l-0.07,0.006l-0.051-0.012l-0.073-0.039l-0.077-0.033l0.406,0.091
	l0.229,0.011l0.025-0.004l0.002-0.001l0.079,0.183l0.059,0.432l0.016,0.067l0.092,0.229l0.052,0.305l0.197,0.416l0.124,0.453
	l0.095,0.226l0.137,0.129l0.327,0.131l0.143,0.114l0.082,0.167l-0.011,0.154l-0.043,0.098l-0.027,0.058l-0.179,0.266l-0.744,0.824
	l-0.886,0.972l-0.055,0.144l-0.013,0.388l-0.07,0.164l-0.098,0.132l-0.081,0.146l-0.061,0.049l-0.075,0.001l-0.078-0.01l-0.071,0.02
	l-0.046,0.118l0.102,0.343l0.007,0.157l-0.094,0.201l-0.004,0.169l-0.018,0.079l-0.032,0.074l-0.04,0.071l-0.165,0.157l-0.405,0.16
	l-0.126,0.223l-0.076,0.522l-0.131,0.347l-0.019,0.119l0.068,0.289l0.034,0.068l0.545,0.603l0.283,0.394l0.206,0.19l0.035,0.077
	l0.042,0.167l0.073,0.141l0.206,0.256l0.053,0.14l0.008,0.19l-0.043,0.554l-0.184,0.51l-0.145,0.772l-0.228,0.77l-0.071,0.093
	l-0.259,0.126l-0.097,0.072l-0.654,0.765l-0.28-0.42l-0.279-0.419l-0.279-0.42l-0.28-0.419l-0.279-0.42l-0.279-0.419l-0.278-0.42
	l-0.277-0.421l-0.278-0.42l-0.278-0.419l-0.277-0.42l-0.277-0.42l-0.276-0.421l-0.277-0.42l-0.275-0.42l-0.277-0.421l-0.026-0.04
	l-0.179-0.273l-0.071-0.064l-0.071-0.039l-0.771-0.193l-0.956-0.242l-0.73-0.188l-0.547-0.106l-0.138-0.069l-0.007-0.003
	l-0.093-0.121l-0.195-0.422l-0.266-0.573l-0.099-0.116l-0.571-0.42l-0.533-0.394l-0.098-0.017l-0.069,0.045l-0.077,0.023
	l-0.083,0.004l-0.082-0.008l-0.503-0.132l-0.148,0.005l-0.179,0.05l-0.146,0.011l-0.13-0.064l-0.125-0.178l-0.207-0.558
	l-0.007-0.017l-0.115-0.146l-0.444-0.367l-0.37-0.307l-0.069-0.097l-0.116-0.206l-0.174-0.158l-0.05-0.063l-0.134-0.214
	l-0.075-0.158l-0.077-0.45l-0.101-0.316l0.009-0.132l0.05-0.107l0.093-0.2l0.046-0.147l0.063-0.136l0.114-0.119l0.215-0.12
	l0.055-0.061l0.025-0.068l0.008-0.081l-0.046-0.548l0.017-0.174l0.104-0.151l0.26-0.248l0.111-0.158l0.282-0.277l0.021-0.036
	l0.099-0.184l0.066-0.08l0.018-0.039l0.005-0.035l-0.002-0.082l0.01-0.042l0.099-0.127l0.01-0.057l-0.144-0.106l-0.015-0.069
	l0.021-0.078l0.069-0.16l0.003-0.008l0.014-0.049l-0.012-0.061l-0.22-0.397l-0.063-0.154l-0.024-0.175l0.002-0.257l-0.052-0.33
	l-0.008-0.166l0.101-0.242l0.095-0.399l0.004-0.094l-0.154-0.047l-0.163,0.01l-0.156-0.013l-0.136-0.121l-0.085-0.162l-0.049-0.157
	l-0.016-0.159l0.016-0.345l-0.044-0.123l-0.163-0.336l-0.06-0.125l-0.109-0.115l-0.272-0.211l-0.096-0.131l-0.08-0.174l-0.102-0.339
	l-0.022-0.29l-0.005-0.055l-0.072-0.235l-0.04-0.334l0.013-0.084l0.003-0.092l-0.037-0.072l-0.054-0.067l-0.048-0.078l-0.046-0.179
	l-0.001-0.51l-0.006-0.023l-0.011-0.062l-0.059-0.174l-0.036-0.077l-0.058-0.067l-0.065-0.011l-0.072,0.005l-0.079-0.008
	l-0.314,0.071l-0.162-0.006l-0.002-0.001l-0.045-0.146l0.047-0.126l0.077-0.099l0.193-0.165l0.326-0.4l0.047-0.112l0.025-0.177
	l-0.025-0.158l-0.101-0.059l-0.144-0.019l-0.002-0.074l0.088-0.091l0.127-0.064l0.132-0.039l0.11-0.067l0.203-0.182l0.045-0.066
	l-0.016-0.052l-0.184-0.132l-0.027-0.039l-0.016-0.052l-0.052-0.106l0,0l0.054-0.049l0.207-0.189l0.079-0.048l0.293-0.107
	l0.066-0.055l0.097-0.17l0.087-0.085l0.021-0.022l0.049-0.1l0.059-0.166l0.031-0.238l0.033-0.047l0.028-0.027l0.058-0.135
	l0.028-0.035l0.087-0.08l0.231-0.21l0.032-0.04l0.028-0.141l0.049-0.055l0.447-0.175l0.11-0.1l0.049-0.119l0.037-0.048h0.052
	l0.043,0.009l0.034-0.021l0.03-0.031l0.091-0.062l0.065-0.066l0.054-0.074l0.03-0.065l0.084,0.013l0.057-0.035l0.094-0.13
	l0.057-0.063l0.052-0.038l0.147-0.059l0.063-0.059l0.039-0.022l0.043,0.009l0.037,0.015h0.04l0.291-0.104l0.006,0.012
	L1071.392,592.198z"/></svg>