<?xml version="1.0" encoding="utf-8"?>
<!-- Generator: Adobe Illustrator 15.0.0, SVG Export Plug-In . SVG Version: 6.00 Build 0)  -->
<!DOCTYPE svg PUBLIC "-//W3C//DTD SVG 1.1//EN" "http://www.w3.org/Graphics/SVG/1.1/DTD/svg11.dtd">
<svg version="1.1" id="Ebene_1" xmlns="http://www.w3.org/2000/svg" xmlns:xlink="http://www.w3.org/1999/xlink" x="0px" y="0px"
	 width="1920px" height="1080px" viewBox="0 0 1920 1080" enable-background="new 0 0 1920 1080" xml:space="preserve">

<path fill="#F4E0B6" stroke="#FFFFFF" d="M1067.698,595.374l0.052,0.106l0.016,0.052l0.027,0.039l0.184,0.132l0.016,0.052
	l-0.045,0.066l-0.203,0.182l-0.11,0.067l-0.132,0.039l-0.127,0.064l-0.088,0.091l0.002,0.074l0.144,0.019l0.101,0.059l0.025,0.158
	l-0.025,0.177l-0.047,0.112l-0.326,0.4l-0.193,0.165l-0.077,0.099l-0.047,0.126l0.045,0.146l0.002,0.001l0.162,0.006l0.314-0.071
	l0.079,0.008l0.072-0.005l0.065,0.011l0.058,0.067l0.036,0.077l0.059,0.174l0.011,0.062l0.006,0.023l0.001,0.51l0.046,0.179
	l0.048,0.078l0.054,0.067l0.037,0.072l-0.003,0.092l-0.013,0.084l0.04,0.334l0.072,0.235l0.005,0.055l0.022,0.29l0.102,0.339
	l0.08,0.174l0.096,0.131l0.272,0.211l0.109,0.115l0.06,0.125l0.163,0.336l0.044,0.123l-0.016,0.345l0.016,0.159l0.049,0.157
	l0.085,0.162l0.136,0.121l0.156,0.013l0.163-0.01l0.154,0.047l-0.004,0.094l-0.095,0.399l-0.101,0.242l0.008,0.166l0.052,0.33
	l-0.002,0.257l0.024,0.175l0.063,0.154l0.22,0.397l0.012,0.061l-0.014,0.049l-0.003,0.008l-0.069,0.16l-0.021,0.078l0.015,0.069
	l0.144,0.106l-0.01,0.057l-0.099,0.127l-0.01,0.042l0.002,0.082l-0.005,0.035l-0.018,0.039l-0.066,0.08l-0.099,0.184l-0.021,0.036
	l-0.282,0.277l-0.111,0.158l-0.26,0.248l-0.104,0.151l-0.017,0.174l0.046,0.548l-0.008,0.081l-0.025,0.068l-0.055,0.061l-0.215,0.12
	l-0.114,0.119l-0.063,0.136l-0.046,0.147l-0.093,0.2l-0.05,0.107l-0.009,0.132l0.101,0.316l0.077,0.45l0.075,0.158l0.134,0.214
	l0.05,0.063l0.174,0.158l0.116,0.206l0.069,0.097l0.37,0.307l0.444,0.367l0.115,0.146l0.007,0.017l0.207,0.558l0.125,0.178
	l0.13,0.064l0.146-0.011l0.179-0.05l0.148-0.005l0.503,0.132l0.082,0.008l0.083-0.004l0.077-0.023l0.069-0.045l0.098,0.017
	l0.533,0.394l0.571,0.42l0.099,0.116l0.266,0.573l0.195,0.422l0.093,0.121l0.007,0.003l0.138,0.069l0.547,0.106l0.73,0.188
	l0.956,0.242l0.771,0.193l0.071,0.039l0.071,0.064l0.179,0.273l0.026,0.04l0.277,0.421l0.275,0.42l0.277,0.42l0.276,0.421
	l0.277,0.42l0.277,0.42l0.278,0.419l0.278,0.42l0.277,0.421l0.278,0.42l0.279,0.419l0.279,0.42l0.28,0.419l0.279,0.42l0.279,0.419
	l0.28,0.42l-0.677,0.818l0.139,0.103l0.316,0.171l0.279,0.148l0.738,0.507l0.746,0.636l0.681,0.889l0.68,0.886l0.33,0.609
	l0.32,0.795l0.184,0.742l0.384,1.561l0.143,0.226l1.104,1.219l0.06,0.168l0.003,0.042l0.072,0.951l-0.031,0.111l-0.084,0.103
	l-0.065,0.106l0.046,0.083l0.092,0.072l0.071,0.073l0.001,0.094l-0.093,0.246l-0.019,0.114l0.047,0.271l0.002,0.193l0.009,0.075
	l0.024,0.073l0.757,0.997l0.245,0.413l0.067,0.067l0.057,0.021l0.206,0.022l0.08,0.026l0.038,0.055l0.08,0.494l0.046,0.152l0.09,0.1
	l0.043,0.087l0.054,0.615l-0.038,0.116l-1.095,1.222l0.027,0.087l0.014,0.079l-0.01,0.077l-0.083,0.18l-0.004,0.2l-0.027,0.091
	l-0.018,0.242l0.18,0.202l0.826,0.529l0.9,0.576l0.728,0.46l0.905,0.575l0.254,0.21l0.157,0.25l0.235,0.558l0.253,0.6l0.239,0.593
	l0.093,0.096l0.707,0.089l0.118,0.086l0.224,0.369l0.106,0.129l0.101,0.05l0.669,0.19l0.084-0.003l0.146-0.083l0.382-0.368
	l0.361-0.351l0.079-0.046l0.09-0.021l0.83-0.079l1.037-0.101l1.379-0.136l0.18-0.02l0.152,0.014l0.153,0.087l0.489,0.43l0.51,0.45
	l0.012,0.01l0.796,0.699l0.497,0.436l0.544,0.476l-0.19,0.292l-0.191,0.292l-0.19,0.292l-0.19,0.293l-0.192,0.291l-0.192,0.294
	l-0.191,0.291l-0.193,0.293l-0.193,0.293l-0.191,0.294l-0.195,0.294l-0.193,0.295l-0.195,0.292l-0.193,0.295l-0.195,0.294
	l-0.197,0.294l-0.195,0.294l-0.196,0.294l-0.197,0.296l-0.197,0.296l-0.196,0.294l-0.199,0.296l-0.197,0.297l-0.198,0.294
	l-0.199,0.297l-0.198,0.296l-0.2,0.295l-0.2,0.299l-0.201,0.295l-0.2,0.298l-0.2,0.297l-0.201,0.298l-0.202,0.297l-0.202,0.299
	l-0.203,0.297l-0.203,0.298l-0.203,0.299l-0.203,0.298l-0.205,0.299l-0.203,0.3l-0.205,0.298l-0.206,0.3l-0.205,0.3l-0.206,0.299
	l-0.206,0.301l-0.207,0.3l-0.208,0.3l-0.207,0.301l-0.208,0.302l-0.207,0.301l-0.21,0.302l-0.209,0.301l-0.209,0.301l-0.21,0.303
	l-0.211,0.303l-0.211,0.303l-0.211,0.301l-0.211,0.303l-0.212,0.304l-0.212,0.303l-0.212,0.304l-0.214,0.305l-0.213,0.304
	l-0.214,0.304l-0.413,0.587l-0.276,0.546l-0.2,0.395l-0.2,0.394l-0.201,0.395l-0.202,0.396l-0.219,0.431l-0.106,0.213l-0.158,0.334
	l-0.176,0.362l-0.176,0.364l-0.176,0.364l-0.177,0.363l-0.176,0.365l-0.178,0.365l-0.179,0.366l-0.176,0.365l-0.18,0.367
	l-0.179,0.367l-0.179,0.366l-0.181,0.367l-0.18,0.368l-0.181,0.369l-0.182,0.369l-0.182,0.369l-0.228,0.462l-0.139,0.214
	l-0.165,0.158l-0.511,0.354l-0.394,0.273l-0.872,0.601l-0.873,0.603l-0.398,0.274l-0.757,0.518l-0.759,0.521l-0.761,0.521
	l-0.765,0.52l-0.696,0.468l-0.698,0.468l-0.394,0.264l-0.305,0.205l-0.703,0.469l-0.431,0.287h-0.001l-0.328,0.239l-0.111,0.055
	l-0.067,0.018l-0.05-0.002l-0.125-0.023l-0.342-0.158l-0.231-0.007l-0.109-0.016l-0.109-0.034l-0.103-0.047l-0.108-0.08
	l-0.032-0.084l0.014-0.103l0.033-0.133l0.005-0.108l0.009-0.055l0.047-0.063l0.064-0.144l-0.006-0.091l-0.034-0.196l0.012-0.104
	l0.06-0.105l0.077-0.092l0.061-0.099l0.009-0.129l-0.044-0.101l-0.07-0.058l-0.077-0.049l-0.066-0.071l-0.012-0.046l-0.005-0.105
	l-0.008-0.032l-0.031-0.034l-0.028-0.008l-0.027-0.006l-0.032-0.02l-0.11-0.152l-0.062-0.183l-0.215-1l-0.037-0.059l-0.08-0.035
	l-0.079-0.007l-0.173,0.017l-0.083-0.006l-0.317-0.104l-0.632-0.024l-1.281,0.231l-0.244,0.088l-0.426,0.083l-0.049,0.016
	l-0.092,0.017l-0.186-0.026h-0.097l-0.112,0.018l-0.075,0.003l-0.067-0.032l-0.278-0.265l-0.2-0.148l-0.216-0.114l-0.336-0.114
	l-0.092-0.017l-0.087,0.012l-0.089,0.055l-0.081,0.108l-0.128,0.25l-0.101,0.098l-0.069,0.019l-0.308,0.011l-0.052-0.011
	l-0.045-0.017l-0.044-0.01l-0.055,0.015l-0.057,0.042l-0.055,0.104l-0.041,0.043l-0.099,0.035l-0.051-0.046l-0.042-0.086
	l-0.072-0.081l-0.084-0.026l-0.072,0.023l-0.076,0.043l-0.1,0.032l-0.105-0.008l-0.656-0.239l-0.065-0.054l-0.1-0.362l-0.076-0.161
	l-0.13-0.103l-0.348-0.11l-0.201-0.025l-0.172,0.039l-0.092-0.022l-0.09,0.007l-0.188,0.041l-0.209,0.014l-0.092-0.023l-0.094-0.066
	l-0.141-0.13l-0.077-0.028l-0.111,0.013l-0.093,0.038l-0.167,0.109l-0.093,0.039l-0.105,0.025h-0.069l-0.05-0.051l-0.045-0.115
	l-0.024-0.095l-0.023-0.475l-0.093-0.55l-0.039-0.102l-0.169-0.276l-0.084-0.075l-0.624-0.167l-0.461-0.125l-0.461-0.123
	l-0.461-0.125l-0.46-0.124l-0.461-0.126l-0.461-0.125l-0.462-0.127l-0.461-0.127l-0.461-0.126l-0.459-0.127l-0.462-0.128
	l-0.386-0.107l-0.074-0.02l-0.461-0.129l-0.461-0.129l-0.461-0.129l-0.46-0.131l-0.461-0.128l-0.461-0.132l-0.461-0.132l-0.46-0.13
	l-0.461-0.132l-0.46-0.132l-0.461-0.132l-0.46-0.135l-0.462-0.133l-0.46-0.133l-0.46-0.135l-0.461-0.135l-0.461-0.136l-0.46-0.134
	l-0.461-0.137l-0.461-0.136l-0.46-0.137l-0.46-0.138l-0.461-0.137l-0.461-0.138l-0.461-0.139l-0.46-0.139l-0.461-0.14l-0.461-0.139
	l-0.46-0.142l-0.461-0.142l-0.46-0.141l-0.461-0.141l-0.46-0.142l-0.461-0.144l-0.461-0.143l-0.461-0.143l-0.424-0.134l-0.425-0.133
	l-0.423-0.132l-0.424-0.134l-0.425-0.132l-0.423-0.136l-0.425-0.135l-0.423-0.135l-0.424-0.136l-0.424-0.136l-0.424-0.136
	l-0.425-0.136l-0.423-0.138l-0.424-0.136l-0.426-0.139l-0.423-0.137l-0.592-0.193l-0.403-0.124l-0.403-0.121l-0.404-0.124
	l-0.403-0.123l0,0l-0.002-0.001h-0.001l-0.917-0.274l-0.918-0.276l-0.916-0.278l-0.92-0.282l-0.636-0.179l-0.131-0.037l-0.752-0.214
	l-0.884-0.251l-0.883-0.255l-0.884-0.255l-1.043-0.304l-1.044-0.306l-1.045-0.31l-1.045-0.313l-1.046-0.312l-1.047-0.318
	l-1.046-0.319l-1.047-0.322l-1.048-0.323l-1.048-0.327l-1.05-0.329l-1.051-0.333l-0.074-0.477l-0.074-0.475l-0.075-0.475
	l-0.074-0.475l-0.048-0.303l-0.049-0.303l-0.047-0.303l-0.048-0.303l-0.047-0.301l-0.049-0.303l-0.047-0.301l-0.048-0.303
	l-0.047-0.302l-0.047-0.299l-0.049-0.302l-0.048-0.301l-0.047-0.302l-0.047-0.301l-0.048-0.3l-0.047-0.3l-0.036-0.229l-0.004-0.14
	l0.038-0.108l0.078-0.094l0.558-0.461l0.188-0.213l0.198-0.165l0.05-0.071l0.118-0.31l0.063-0.07l0.156-0.112l0.069-0.063
	l0.267-0.357l0.287-0.284l0.494-0.354l0.139-0.142l0.364-0.488l0.441-0.438l0.242-0.321l0.206-0.165l0.062-0.071l0.237-0.341
	l0.147-0.106l0.219-0.047l0.21-0.02l0.104-0.022l0.101-0.038l0.091-0.058l0.529-0.107l0.347-0.521l0.478-0.339l0.346-0.126l0.52-0.1
	l0.854,0.097l0.321-0.442l0.624-0.237l0.635-0.346l0.619-0.236l0.664-0.179l0.567-0.152l0.515-0.245l0.552-0.222l0.243,0.396
	l0.401,0.032l0.412-0.255l0.354-0.7l0.284-0.714l0.196-0.656l0.346-0.553l0.402-0.429l0.411-0.534l0.314-0.368l0.411-0.359
	l0.589-0.443l0.512-0.633l0.36-0.729l0.376-0.351l0.486-0.274l0.657-0.219l0.688-0.367l0.725-0.62l-0.096-0.287l-0.096-0.287
	l0.165-0.255l0.16-0.428l-0.31-0.287l-0.026-0.089l-0.037-0.079l-0.06-0.074l-0.061-0.029l-0.17-0.028l-0.091-0.047l-0.157-0.146
	l-0.074-0.043l-0.077,0.003l-0.057,0.049l-0.101,0.147l-0.069,0.052l-0.072,0.016l-0.061-0.028l-0.032-0.077l0.008-0.101
	l0.059-0.168l-0.015-0.111l-0.104-0.346l-0.001-0.091l0.04-0.079l0.2-0.226l0.31-0.106l-0.208-1.226l0.258-0.221l0.189-0.012
	l0.154-0.056l1.188-0.552l0.852-0.515l0.71-0.301l-0.28-0.405l-0.456-0.643l0.211-0.196l0.76-0.277l0.7-0.404l0.577-0.136
	l0.266-0.063l0.301-0.071l0.326-0.078l0.347-0.082l0.36-0.085l0.366-0.088l0.365-0.089l0.355-0.085l0.341-0.081l0.316-0.077
	l0.288-0.07l0.253-0.062l0.207-0.051l0.156-0.039l0.1-0.023l0.035-0.009l0.311-0.077l0.151-0.084l0.04-0.185l-0.045-0.09
	l-0.08-0.036l-0.091,0.001l-0.079,0.024l-0.137,0.101l-0.065,0.02l-0.037-0.07l0.009-0.033l0.055-0.071l0.02-0.031l0.013-0.056
	l-0.003-0.04l-0.012-0.037l-0.006-0.058l-0.038-0.436l0.012-0.181l0.021-0.093l0.045-0.101l0.058-0.052l0.162-0.073l0.136-0.104
	l0.11-0.136l0.172-0.319l-0.089-0.084l-1.342-0.5l-0.28-0.017l-0.161-0.069l-0.766-0.714l0.144-0.168l0.021-0.04l0.016-0.044
	l0.005-0.048l-0.001-0.049l-0.013-0.104l-0.026-0.107l-0.049-0.086l-0.083-0.044l-0.139-0.048l-0.128-0.063l-0.111-0.089
	l-0.09-0.127l-0.105-0.11l-0.252-0.131l-0.074-0.14l-0.109-0.448l0.013-0.128l0.028-0.13l0.014-0.276l0.039-0.102l0.02-0.139
	l-0.055-0.145l-0.282-0.361l-0.059-0.041l-0.082-0.03l-0.152-0.009l-0.071-0.023l-0.042-0.064l0.001-0.076l0.028-0.056l0.037-0.052
	l0.028-0.061l0.014-0.075l-0.008-0.053l-0.076-0.12l-0.091-0.214l-0.039-0.218l0.007-0.785l-0.013-0.094l-0.024-0.055l-0.026-0.062
	l-0.491-0.761l-0.151-0.176l-0.196-0.128l0.309-0.605l-0.052-0.013h-0.155l-0.596-0.336l0.014-0.087l0.135-0.361l0.047-0.232
	l0.043-0.051l0.006-0.038l-0.09-0.05l-0.479-0.138l-0.165-0.084l-0.241-0.067l-0.07-0.048l-0.035-0.057l-0.021-0.061l-0.029-0.049
	l-0.058-0.024l-0.185,0.031l-0.154-0.047l-0.151-0.076l-0.172-0.063l-0.133-0.011l-0.093-0.071l-0.067-0.11l-0.049-0.179
	l0.083-0.055h0.017l0.015-0.001l0.015,0.004l0.017,0.018l0.104-0.089l0.146-0.008l0.158,0.021l0.141-0.004l0.25-0.103l0.1,0.004
	l0.033-0.004l0.023-0.016l0.057-0.071l0.35-0.2l0.084-0.1l0.032-0.016l0.121-0.027l0.049-0.024l0.052-0.059l0.096-0.179l0.233-0.148
	l0.036-0.04l0.013-0.089l0.378-0.505l0.07-0.046l0.366-0.139l0.097-0.057l0.02-0.018l0.016-0.022l0.071-0.151l0.069-0.039
	l0.063-0.07l0.048-0.077l0.029-0.067l0.01-0.1l-0.007-0.227l0.021-0.094l0.027-0.081l0.053-0.376l0.016-0.055l0.041-0.033
	l0.09-0.029l0.016-0.026l0.067-0.163l0.034-0.04l0.075-0.089l0.094-0.14l0.028-0.081l0.021-0.035l0.135-0.07l0.063-0.067l0.05-0.068
	l0.05-0.054l0.086-0.05l0.049-0.01l0.032,0.033l0.023,0.012l0.043-0.031l0.127-0.123l0.055-0.18l0.086-0.049l0.036,0.009
	l0.037,0.022l0.042,0.022l0.055-0.002l0.04-0.006l0.082,0.003l0.045-0.007h0.049l0.03,0.028l0.028,0.035l0.043,0.023l0.04-0.001
	l0.146-0.049l0.066-0.037l0.069-0.058l0.053-0.069l0.014-0.139l0.045-0.021l0.058,0.002l0.042-0.008l0.035-0.033l0.02-0.038
	l0.085-0.407l-0.009-0.049l-0.012-0.01l-0.016-0.027l-0.01-0.027v-0.021l0.021-0.013l0.025,0.007l0.024,0.01l0.017,0.002
	l0.039-0.013l0.082-0.016l0.038-0.016l0.142-0.118l0.099-0.06l0.056,0.015l0.03,0.045l0.05,0.014l0.047,0.001l0.032,0.009
	l0.025,0.042l-0.007,0.068l0.022,0.044l0.08,0.049l0.113,0.02l0.291-0.022l0.183,0.021l0.087-0.007l0.036-0.02l0.111-0.058
	l0.149-0.133l0.13-0.155l0.091-0.147l0.066-0.3l0.01-0.123l0.053-0.319l0.006-0.112l-0.008-0.05l0.004-0.032l0.027-0.031
	l0.033-0.029l0.025-0.032l0.135-0.236l0.055-0.064l0.223-0.147l0.034-0.04l0.01-0.035l0.07-0.074l0.023-0.035l0.003-0.044
	l-0.011-0.111l0.008-0.042l0.059-0.055l0.088-0.045l0.166-0.055l0.083-0.039l0.054-0.06l0.042-0.066l0.23-0.26l0.134-0.081
	l0.05-0.073l0.042-0.078l0.052-0.061l0.067-0.037l0.287-0.106l0.047-0.018l0.052-0.043l0.103-0.12l0.221-0.129l0.047-0.061
	l0.028-0.054l0.07-0.081l0.032-0.052l0.007-0.039v-0.041l0.004-0.044l0.024-0.048l0.057-0.045l0.157-0.087l0.117-0.13l0.271-0.079
	l0.074-0.052l0.128-0.12l0.085-0.041l0.163-0.043l0.073-0.029l0.078-0.051l0.189-0.169l0.075-0.037l0.071-0.007l0.18,0.01
	l0.092-0.007l0.087-0.029l0.143-0.089l0.675-0.237l0.057-0.021l0.035-0.02l0.076-0.067l0.039-0.022l0.033-0.004l0.086-0.002
	l0.044-0.012l0.188-0.114l0.205-0.074l0.184-0.015l0.048-0.012l0.313-0.133l0.849-0.542l0.064-0.052l0.08-0.029l0.087-0.005
	l0.08,0.022l0.035,0.031l0.02,0.037l0.023,0.027l0.048-0.002l0.041-0.007l0.082-0.003l0.038-0.006l0.521-0.19l0.108-0.074
	l0.27-0.368l0.204-0.194l0.071-0.106l0.053-0.158l0.005-0.066l0.066-0.119l0.167-0.213l0.151-0.079l0.029-0.006l0.112-0.019
	l0.146,0.035l0.128,0.073l0.127,0.053l0.154,0.003l0.119-0.042l0.022-0.007l0.095-0.1l0.021-0.073l-0.002-0.069l-0.031-0.115
	l0.038-0.016l0.271,0.032l0.147-0.007l0.446-0.112l0.068-0.03l0.128-0.086l0.073-0.033l0.034-0.023l0.021-0.035l0.014-0.035
	l0.017-0.027l0.034-0.017l0.08-0.017l0.037-0.014l0.116-0.109l0.149-0.281l0.095-0.115l0.28-0.192l0.162-0.071l0.148-0.02
	l0.152,0.039l0.062-0.01l0.037-0.017l0.071-0.045l0.126-0.045l0.029-0.004l0.173-0.032l0.081,0.013l0.127-0.125l0.044-0.024
	l0.046-0.006l0.104,0.008l0.05-0.005l0.042-0.027l0.075-0.089l0.042-0.031l0.061-0.014l0.113,0.011l0.055-0.007l0.414-0.196
	l0.047-0.008h0.061l0.059,0.008l0.043,0.015l0.05,0.008l0.117-0.035l0.058,0.005l0.096-0.085l0.036-0.012l0.111-0.042l0.276-0.064
	l0.246-0.112l0.067-0.01l0.661,0.049l0.086,0.039l0.028,0.022l0.046-0.006l0.049-0.017l0.037-0.007l0.033,0.013l0.048,0.043
	l0.02,0.01l0.069,0.009h0.076l0.079-0.014l0.065-0.024l-0.003,0.232l0.041,0.063l0.125,0.04l0.489,0.07l0.128-0.012l0.128-0.036
	l0.232-0.115l0.18-0.121l0.019-0.015l0.111-0.036l0.013-0.016l0.027-0.068l0.018-0.029l0.125-0.102l0.053-0.075l-0.002-0.172
	l0.025-0.082l0.046-0.074l0.053-0.053l0.141-0.097l0.056-0.056l0.09-0.153l0.072-0.058l0.088-0.034l0.262-0.032l0.144-0.055
	l0.552-0.332l0.492-0.401l0.109-0.126l0.04-0.13l-0.025-0.091l-0.036-0.066l-0.025-0.067l0.017-0.094l0.018-0.036l0.105-0.152
	l0.031-0.073l0.023-0.043l0.095-0.1l0.141-0.094l0.162-0.061l0.158-0.001l0.158,0.052h0.022l0.018,0.042l0.018,0.029l0.025,0.013
	l0.035-0.004l0.051,0.017l0.092,0.148l0.081,0.052l0.045-0.039l0.069,0.002l0.082,0.013l0.075-0.005l0.539-0.154l0.051-0.002
	l0.075,0.016l0.075,0.027l0.053,0.033l0.023,0.068l0.117,0.002l0.142-0.035l0.093-0.038l0.278-0.202l0.078-0.088l0.063,0.004
	l0.096-0.008l0.085-0.026l0.024-0.045l0.017-0.052l0.104-0.176l0.04-0.042l0.015-0.026l0.013-0.056l0.005-0.061l-0.003-0.045
	l-0.023-0.045l-0.028-0.026l-0.188-0.096l-0.131-0.047l-0.01-0.025l0.036-0.02l0.06-0.045l0.037-0.016l0.039-0.001l0.077,0.014
	l0.035-0.004l0.008,0.001l0.015,0.002l0.02,0.01l0.018,0.002l0.016-0.023l0.015-0.039l0.012-0.016l0.018-0.008l0.037,0.001
	l0.079,0.014l0.037-0.004l0.026-0.02l0.072-0.08l0.046-0.017h0.012l0.008,0.017l0.038,0.028l0.031,0.042l0.032,0.02l0.052-0.006
	l0.069-0.023l0.034-0.002l0.037,0.009l0.045-0.055l0.055-0.042l0.158,0.046l0.142,0.07l0.145,0.045l0.166-0.026l0.031-0.02
	l0.024-0.027l0.03-0.021l0.047-0.009l0.045,0.005l0.044,0.01l0.04,0.015l0.038,0.022l0.161-0.075l0.03-0.026l0.038-0.092
	l0.022-0.042l0.004,0.096l-0.009,0.109l0.014,0.087l0.079,0.033l-0.018,0.143h0.001l0.158,0.047l0.217-0.015l0.153-0.032
	l0.446-0.294l0.064-0.069l0.047-0.086l0.399-0.412l0.075,0.018l0.083,0.04l0.079,0.009l0.152-0.064l0.081-0.021l0.074,0.009
	l0.044-0.039l0.051,0.003l0.058,0.02l0.059,0.008l0.123-0.033l0.114-0.055l0.304-0.279L1067.698,595.374z"/></svg>