<?xml version="1.0" encoding="utf-8"?>
<!-- Generator: Adobe Illustrator 15.0.0, SVG Export Plug-In . SVG Version: 6.00 Build 0)  -->
<!DOCTYPE svg PUBLIC "-//W3C//DTD SVG 1.1//EN" "http://www.w3.org/Graphics/SVG/1.1/DTD/svg11.dtd">
<svg version="1.1" id="Ebene_1" xmlns="http://www.w3.org/2000/svg" xmlns:xlink="http://www.w3.org/1999/xlink" x="0px" y="0px"
	 width="1920px" height="1080px" viewBox="0 0 1920 1080" enable-background="new 0 0 1920 1080" xml:space="preserve">

<path fill="#F4E0B6" stroke="#FFFFFF" d="M1139.372,776.896l-0.042,0.074l-0.07,0.035l-0.123-0.01l-0.1-0.044l-0.054-0.065
	l-0.044-0.077l-0.066-0.081l-0.06-0.032l-0.13-0.035l-0.064-0.049l-0.047-0.058l-0.022-0.046l-0.01-0.113l0.011-0.087l0.05-0.132
	l-0.005-0.081l0.069,0.036l0.037,0.042l0.004,0.043l-0.028,0.042l0.031,0.04l0.212-0.063l0.186,0.155l0.163,0.231l0.14,0.162
	L1139.372,776.896z M1135.97,766.762l-0.016,0.029l-0.021-0.012L1135.97,766.762z M1143.87,751.327l0.077-0.031l0.15-0.117
	l0.421-0.219l0.346-0.242l0.37-0.174l0.268-0.184l0.087-0.044l0.206-0.069l0.209-0.105l0.086-0.075l0.15-0.178l0.086-0.069
	l0.043-0.045l0.071-0.12l0.042-0.032l0.069-0.006l0.203,0.031l0.095-0.026l0.229-0.222l0.188-0.087l0.308-0.041l0.094-0.015
	l0.098-0.093l0.104,0.026l0.134-0.011l0.687-0.241l0.085-0.077l0.045-0.088l0.03-0.086l0.046-0.064l0.092-0.017l0.133-0.003
	l0.103-0.026l0.011-0.094l0.08-0.004l0.063-0.027l0.044-0.055l0.024-0.084l0.167-0.017l0.089-0.028l0.045-0.047l0.048-0.074
	l0.084-0.021l0.161-0.003l0.188-0.145l0.035-0.049l0.045-0.165l0.034-0.078l0.032-0.044l0.146-0.072l0.145-0.042l0.092,0.026
	l0.038-0.002l0.044-0.024l0.053-0.071l0.028-0.028l0.064-0.003l0.101,0.023l0.104,0.039l0.074,0.044l0.057,0.073l0.055,0.188
	l0.064,0.143l0.15,0.351l0.064,0.197l0.012,0.167l-0.117,0.21l-0.018,0.042l-0.035,0.165l-0.016,0.035l-0.034,0.046l0.02,0.051
	l0.074,0.094l0.016,0.065l-0.007,0.055l-0.016,0.054l-0.012,0.065l-0.003,0.087l0.008,0.109l-0.048,0.052l-0.008,0.038l0.105,0.07
	l0.083,0.084l0.043,0.03l0.05,0.058l0.034,0.1l0.042,0.243l0.002,0.109l-0.014,0.105l-0.041,0.077l0.077,0.082l0.03,0.111
	l0.016,0.129l0.035,0.134l0.143,0.254l0.046,0.151l-0.031,0.164l0.15,0.127l0.151,0.103l0.015-0.063l0.075,0.022l0.063,0.051
	l0.04,0.077l0.008,0.101l0.123,0.009l0.208,0.238l0.103,0.017l0.016,0.052l0.127,0.277l0.018,0.05l0.021,0.045l0.033,0.031
	l0.069,0.05l0.004,0.037l-0.021,0.038l0.007,0.144l-0.042,0.096l-0.066,0.081l-0.063,0.049l-0.02,0.062l0.018,0.093l-0.005,0.094
	l-0.084,0.063l0.07,0.026l0.069-0.004l0.061,0.013l0.051,0.074v0.001l0.053-0.021l0.089-0.074l0.17-0.077l0.088-0.081l0.065-0.097
	l0.029-0.186l0.081-0.066l0.067-0.071l-0.015-0.123l0.019-0.067l0.08-0.084l0.096-0.073l0.075-0.033l0.198-0.02l0.16-0.048
	l0.143-0.083l0.143-0.127l0.037-0.09l0.029-0.243l0.134-0.18l0.033-0.1l0.044-0.093l0.088-0.064l0.046-0.022l0.042-0.027l0.078-0.07
	l0.022-0.036l0.031-0.089l0.026-0.032l0.026-0.008l0.069,0.001l0.018-0.001l0.04-0.052l0.01-0.022l-0.004-0.175l-0.022-0.179
	l-0.008-0.03l0.058-0.058l0.935-0.402l0.09-0.023l0.114,0.016l0.106,0.046l0.104,0.023l0.103-0.049l0.133-0.176l0.072-0.077
	l0.1-0.042l0.212-0.042l0.057,0.011l0.048,0.022l0.05,0.013l0.062-0.019l0.021,0.029l0.021,0.027l0.055,0.011l0.065-0.003
	l0.072,0.02l0.058,0.051l0.232,0.329l0.08,0.147l0.192,0.449l0.104,0.129l0.128,0.081l0.284,0.003l0.116,0.084l0.209,0.262
	l0.112,0.109l0.125,0.091l0.13,0.074l0.136,0.051l0.145,0.007l0.056,0.027l0.028,0.086l-0.02,0.08l-0.037,0.074l-0.015,0.069
	l0.049,0.064l0.154,0.26l-0.053,0.338l-0.114,0.361l-0.026,0.328l0.121,0.314l0.025,0.147l-0.181,0.586l-0.004,0.042l-0.016,0.04
	l-0.05,0.067l-0.232,0.154l-0.282,0.113l-0.217,0.177l-0.033,0.336l0.108,0.095l0.084,0.107l0.036,0.136l-0.032,0.181l-0.244,0.449
	l-0.04,0.194l0.04,0.58l-0.027,0.401l0.041,0.158l0.091,0.14l0.129,0.161l0.087,0.136l0.212,0.43l0.05,0.022l0.056-0.029l0.064-0.02
	l0.069,0.054l0.021,0.068l-0.011,0.146l0.019,0.064l0.067,0.073l0.069,0.046l0.046,0.055l0.003,0.097l-0.011,0.081l0.006,0.122
	l0.022,0.446l0.047,0.163l0.108,0.152l0.437,0.167l0.047,0.007l0.024-0.023l0.044-0.063l0.003-0.035l-0.016-0.046l-0.009-0.045
	l0.026-0.036l0.187-0.076l0.062-0.007l0.065,0.015l0.072,0.031l0.135-0.15l0.216-0.079l0.243-0.004l0.224,0.063l0.214,0.137
	l0.216,0.178l0.195,0.2l0.154,0.193l0.046-0.094l0.055-0.075l0.082-0.048l0.114-0.01l0.093-0.025l0.053-0.068l0.044-0.083
	l0.071-0.061l0.163-0.033l0.245-0.016l0.242,0.02l0.22,0.097l0.294,0.038l0.108,0.035l0.298,0.191l0.158,0.134l0.093,0.19
	l0.147,0.575l0.068,0.145l0.096,0.13l0.129,0.115l0.137,0.148l0.029,0.143l-0.009,0.15l0.021,0.172l0.064,0.135l0.143,0.241
	l0.032,0.14l0.053,0.076l0.435,0.333l0.133,0.083l0.061,0.053l0.028,0.046l0.04,0.106l0.034,0.044l0.08,0.045l0.034,0.01l0.144,0.04
	l0.085,0.047l0.042,0.043l0.114,0.166l0.066,0.127l0.02,0.059l0.014,0.071l-0.002,0.062l-0.015,0.057l-0.005,0.056l0.029,0.066
	l0.1,0.082l0.127,0.039l0.252,0.025l0.105,0.093l0.01,0.08l-0.028,0.077l-0.012,0.089l0.019,0.058l0.085,0.131l0.05,0.183
	l0.11,0.033l0.119,0.063l0.06,0.077l-0.129,0.12l0.003,0.063l0.024,0.069l0.008,0.072l-0.019,0.062l-0.025,0.049l-0.068,0.094
	l-0.012,0.065l0.059,0.021l0.132,0.004l0.209,0.175l0.099-0.02l0.111-0.039l0.061,0.014l-0.056,0.138l-0.005,0.103l0.052,0.13
	l0.284,0.417l0.069,0.148l0.028,0.045l0.2,0.205l0.017,0.09l-0.067,0.146l-0.007,0.01l-0.369,0.549l-0.004,0.057l0.004,0.052
	l0.022,0.052l0.045,0.059l0.012,0.062l0.025,0.031l0.043,0.011l0.062,0.009l0.055,0.03l0.031,0.054l0.043,0.119l0.172,0.284
	l0.031,0.086l-0.005,0.053l-0.058,0.077l-0.007,0.039l0.032,0.054l0.096,0.074l0.026,0.039l-0.007,0.109l-0.111,0.156l-0.024,0.092
	l0.144,0.165l0.588,0.119l0.152,0.143l-0.029-0.003l-0.178,0.187l-0.029,0.049l-0.02,0.057l-0.028,0.134l-0.005,0.066l0.017,0.064
	l0.1,0.131v0.063l-0.015,0.065l-0.007,0.067l0.038,0.106l0.026,0.078l0.001,0.055l-0.037,0.031l-0.061,0.007l-0.104-0.004
	l-0.049,0.021l-0.025,0.024l-0.157,0.197l-0.036,0.02l-0.051-0.013l-0.082-0.084l-0.067-0.008l-0.045,0.026l-0.028,0.048l-0.04,0.1
	l-0.08,0.079l-0.118,0.061l-0.133,0.023l-0.129-0.027l-0.013-0.028l-0.142-0.197l0.002-0.064l0.056-0.109l-0.048-0.192l0.027-0.069
	l-0.004-0.044l-0.134-0.058l-0.075-0.01l-0.067,0.003l-0.063-0.016l-0.119-0.131l-0.068-0.032l-0.154-0.045l-0.126-0.06
	l-0.279-0.175l-0.198-0.185l-0.119-0.084l-0.128-0.063l-0.112-0.03l-0.079-0.01l-0.02,0.002l0.011,0.034l0.021,0.216l0.027,0.13
	l0.029,0.063l0.067,0.104l0.022,0.063l0.005,0.078l-0.074,0.583l0.008,0.07l0.066,0.114l0.013,0.058l-0.021,0.063l-0.081,0.104
	l-0.032,0.063l-0.013,0.071l0.002,0.134l-0.007,0.064l-0.066,0.203l-0.009,0.074l0.011,0.064l0.021,0.054l0.01,0.054l-0.026,0.059
	l-0.029,0.006l-0.085-0.039l-0.036,0.01l-0.048,0.059l-0.025,0.015l-0.113,0.041l-0.07,0.076l-0.091,0.038l-1.051,0.151
	l-0.054,0.015l-0.049,0.038l-0.046,0.109l-0.041,0.042l-0.116,0.031l-0.41,0.029l-0.132,0.045l-0.045,0.054l-0.016,0.142
	l-0.009,0.09l-0.061,0.042l-0.035-0.022l-0.012-0.062l0.016-0.078l-0.006-0.048l-0.013-0.053l-0.021-0.054l-0.03-0.045l-0.028-0.058
	l-0.005-0.056l0.005-0.068l-0.055-0.051l-0.025,0.009l-0.028,0.017l-0.063-0.019l-0.043-0.033l-0.127-0.122l-0.087-0.033
	l-0.204-0.104l-0.073-0.02l-0.065,0.131l-0.063,0.042l-0.089-0.078l-0.043-0.051l-0.044-0.025l-0.111-0.029l-0.036-0.026
	l-0.016-0.037l-0.01-0.05l-0.01-0.029l-0.007-0.045l-0.02-0.031l-0.105,0.026l-0.03-0.02l-0.019-0.033l-0.018-0.024l0.007-0.007
	l-0.106-0.104l-0.045-0.019l-0.131-0.035l-0.055-0.021l-0.123-0.084l-0.383-0.31l-0.147-0.093l-0.125-0.013l-0.25,0.048
	l-0.033-0.004l-0.494-0.063l-0.269,0.026l-0.225,0.144l-0.035,0.049l-0.102,0.304l-0.007,0.046l0.002,0.047l0.021,0.082l0.024,0.048
	l0.039,0.058l0.02,0.064l-0.033,0.071l-0.104,0.021l-0.167-0.051l-0.105-0.032l-0.062,0.019l0.034,0.079l0.459,0.525l0.196,0.183
	l0.222,0.104l0.25-0.017l0.047,0.1l0.025,0.193l0.024,0.097l0.049,0.08l0.193,0.19l0.077,0.163l0.072,0.212l0.09,0.184l0.138,0.08
	l-1.521,1.522l-0.158,0.069l-0.223-0.021l-0.322-0.118l-0.137-0.017l-0.071-0.003l-0.087,0.165l-0.144,0.186l-0.142,0.136
	l-0.068,0.106l-0.037,0.25l-0.041,0.095l-0.082,0.039l-0.123,0.003l-0.261-0.04l-0.07-0.023l-0.052-0.03l-0.059-0.022l-0.092,0.002
	l-0.297,0.063l-0.178,0.097l-0.009,0.009l0.04,0.121l0.329,0.234l0.103,0.1l0.183,0.298l0.07,0.087l0.118,0.084l0.275,0.133
	l0.132,0.087l0.124,0.112l0.08,0.105l0.058,0.116l0.056,0.152l0.122,0.794l0.02,0.042l0.103,0.219l0.114,0.103l0.068-0.062
	l0.078-0.254l0.099-0.122l0.118-0.022l0.146,0.047l0.354,0.154l0.664,0.19l0.157,0.074l0.081,0.106l-0.055,0.144l-0.099,0.076
	l-0.067,0.032l-0.024,0.06l0.034,0.16l0.045,0.101l0.261,0.345l0.015,0.032l0.022,0.015l0.073,0.02l0.058,0.007l0.352-0.041
	l0.146,0.004l0.312,0.054l0.234-0.016l0.267-0.065l0.247-0.017l0.172,0.129l0.02,0.143l-0.076,0.277l0.03,0.155l0.248,0.819
	l0.075,0.122l0.125,0.075l0.142,0.003l0.137-0.028l0.128-0.001l0.112,0.084l0.049,0.132l-0.001,0.151l-0.039,0.139l-0.055,0.081
	l-0.008,0.012l-0.087,0.047l-0.326,0.079l-0.101,0.045l-0.222,0.183l-0.128,0.025l-0.146-0.043l-0.852-0.409l-0.28-0.038
	l-0.258,0.104l-0.055,0.17l0.032,0.201l0.006,0.202l-0.126,0.168l-0.158,0.154l-0.072,0.187l-0.043,0.201l-0.073,0.202l-0.035,0.182
	l0.046,0.198l0.377,1.055l0.039,0.185l-0.137-0.007l-0.171-0.007l-0.42-0.114l-0.318-0.27l-0.111-0.063l-0.099-0.068l-0.093-0.087
	l-0.095-0.106l-0.186-0.056l-0.247-0.025l-0.968-0.17l-1.176-0.094l-0.213-0.197l-0.054-0.08l-0.041-0.101l-0.07-0.12l-0.094-0.083
	l-0.117-0.065l-0.113-0.019l-0.154-0.003l-0.22-0.028l-0.111,0.009l-0.094-0.085l-0.339-0.102l-0.123-0.04l-0.162-0.045l-0.24-0.066
	l-0.843-0.143l-0.99-0.132l-0.404-0.064l-0.982-0.104l-0.487-0.084l-0.591-0.072l-1.72-0.592l-0.259-0.132l0.143,0.019l0.259,0.071
	l0.146-0.006l0.12-0.053l0.03-0.081l-0.006-0.116l0.012-0.15l0.045,0.077l0.022,0.07l0.03,0.062l0.065,0.053l0.018-0.023
	l0.008-0.025l-0.003-0.029l-0.01-0.03l0.071,0.092l0.09,0.084l0.082,0.028l0.048-0.075l0.219-0.038l0.047,0.007l0.011-0.004
	l0.162,0.072l0.104,0.099l0.033-0.02l-0.031-0.055v-0.032l0.031-0.013l0.067,0.004l-0.01-0.021l-0.006-0.009l0.001-0.007l0.02-0.017
	l0.161,0.173l0.064,0.048l0.002-0.058l0.019-0.045l0.035-0.036l0.051-0.023l0.041,0.078l0.031,0.006l0.026-0.045l0.023-0.065
	l0.004-0.063l-0.038-0.113l-0.003-0.056l0.047-0.066l0.09-0.078l0.096-0.062l0.063-0.02l0.113-0.087l0.024-0.049l-0.024-0.079
	l-0.136-0.004l-0.047,0.009l-0.065-0.099l-0.132,0.005l-0.153,0.022l-0.129-0.047l-0.033,0.02l0.104,0.069l0.269,0.217l-0.075,0.029
	l-0.065-0.016l-0.055-0.024l-0.035-0.006l-0.056,0.001l-0.128-0.063l-0.056,0.001l-0.04,0.016l-0.077,0.011l-0.039,0.016
	l-0.007,0.024l0.026,0.027l0.031,0.029l0.015,0.027l-0.002,0.059l0.008,0.065l0.016,0.062l0.021,0.051l-0.091,0.009l-0.092-0.005
	l-0.024-0.063l-0.111-0.086l-0.03-0.058l0.024-0.049l0.057-0.03l0.044-0.032l-0.018-0.052l-0.095-0.016l-0.155,0.029l-0.15,0.055
	l-0.076,0.059l-0.292-0.167l-0.039-0.034l-0.078-0.006l-0.023,0.013l0.031,0.058l-0.016,0.014l-0.036,0.078l-0.002,0.015
	l-0.143,0.044l-0.041,0.159l-0.02,0.173l-0.085,0.097h-0.068l-0.08-0.02l-0.075-0.037l-0.063-0.052l-0.001-0.022l0.011-0.087
	l0.008-0.021l0.015-0.03l-0.062-0.011l-0.074,0.006l-0.021,0.013l-0.041-0.036l-0.025-0.045l-0.026-0.033l-0.046-0.005l-0.047,0.019
	l-0.027,0.021l-0.007,0.028l0.02,0.041l0.156,0.084l0.075,0.063l0.009,0.092l-0.104,0.01l-0.402-0.134l-0.129-0.008l0.103,0.046
	l0.214,0.071l0.1,0.045l-0.166-0.011l-0.232-0.055l-0.229-0.083l-0.153-0.1l-0.022-0.028l-0.13-0.094l-0.397-0.438l-0.096-0.054
	l-0.873-0.21h-0.19l-0.293-0.097l-0.115-0.016l-0.003-0.028l-0.021-0.062l-0.128,0.032l-0.131-0.053l-0.223-0.153l-0.371-0.089
	l-0.075-0.034l-0.027,0.005l-0.082-0.016l-0.079-0.024l-0.025-0.02l-0.071,0.006l-0.028-0.055l0.009-0.055l0.037,0.009l0.11,0.069
	l0.147,0.021l0.139-0.028l0.089-0.07l0.005,0.028l-0.002,0.007l-0.005,0.006l-0.003,0.02l0.085-0.01l0.012-0.047l-0.05-0.129
	l0.03-0.018l0.123,0.085l-0.02,0.027l-0.011,0.026l0.007,0.029l0.024,0.039l0.041,0.021l0.016-0.042l-0.007-0.054l-0.026-0.017
	l0.248-0.145l0.161-0.045l0.136,0.045l0.072,0.109l-0.033,0.155l0.112,0.032l0.052,0.009l0.036-0.006l0.112-0.052l0.032-0.009
	l0.038,0.022l0.069,0.089l0.037,0.033l0.153,0.012l0.022,0.021l0.073,0.048l0.06,0.025l-0.019-0.047l-0.006-0.033l0.046-0.067
	l0.002-0.025l-0.087-0.084l-0.112-0.081l-0.099-0.046l-0.044,0.029l-0.104-0.034l-0.186-0.015l-0.074-0.042l-0.017-0.124l0.02-0.059
	l-0.035-0.029l-0.387-0.19l-0.168-0.045l-0.009,0.077l-0.11-0.002l-0.044-0.008l0.021,0.058l0.038,0.047l0.109,0.103l-0.153-0.025
	l-0.313-0.164l-0.113,0.015l-0.009,0.053l0.025,0.074l0.033,0.066l0.011,0.032l-0.033,0.043l0.007,0.057l0.034,0.062l0.053,0.06
	l-0.065-0.017l-0.057-0.001l-0.052,0.013l-0.054,0.032l-0.025-0.134l-0.058-0.05l-0.179-0.021l-0.046,0.136l-0.095,0.016
	l-0.121-0.077l-0.137-0.143l-0.044-0.062l-0.052-0.101l-0.03-0.045l-0.172-0.21l-0.054-0.051l-0.135-0.088l-0.063-0.051l-0.123-0.16
	l-0.048-0.049l-0.253-0.162l-0.241-0.097l-0.509-0.135l-1.344-0.538l-0.119-0.062l-0.154-0.098l-0.135-0.09l-0.11-0.093l0.178,0.099
	l0.175,0.124l0.133,0.055l0.186,0.057l0.069-0.054l0.104-0.01l0.11,0.025l0.183,0.133l0.217,0.058l0.107,0.086l0.072,0.032
	l0.316,0.108l0.102,0.008l0.058,0.015l0.395,0.063l0.06-0.002l0.178-0.039l0.564,0.606l0.094,0.061l0.034-0.061l-0.028-0.061
	l-0.102-0.045l-0.016-0.044l0.025-0.045l0.053-0.002l0.061,0.026l0.046,0.04l0.002-0.131l0.058-0.136l0.094-0.119l0.109-0.078
	l0.037,0.095l0.064,0.09l0.086,0.058h0.106l-0.106-0.192l-0.07-0.082l-0.081-0.041l0.134-0.111l0.445-0.179l0.116-0.119
	l-0.265,0.035l-0.126-0.015l-0.141-0.069l-0.199-0.164l-0.097-0.107l-0.049-0.098l-0.049,0.011l-0.142-0.001l-0.024,0.01
	l-0.058,0.039l-0.024,0.033l0.024,0.034l0.082,0.064l0.035,0.057l0.005,0.035l-0.007,0.029l0.019,0.241l-0.042,0.15l-0.098,0.117
	l-0.147,0.106l-0.026,0.025l-0.021,0.029l-0.029,0.02l-0.054,0.003l-0.058-0.021l-0.073-0.079l-0.095-0.055l-0.043-0.044
	l-0.071-0.097l-0.041-0.013l-0.055,0.015l-0.051,0.021l-0.032,0.006l-0.073-0.075l-0.006-0.077l0.046-0.071l0.077-0.061l0.016-0.054
	l-0.049-0.074l-0.079-0.062l-0.077-0.013l-0.027-0.033l0.034-0.038l0.105-0.078l0.028-0.038l-0.002-0.073l-0.058-0.108l-0.046-0.195
	l-0.087-0.079l-0.234-0.127l0.001-0.046l-0.016-0.026l-0.037-0.012l-0.068-0.001l0.082,0.104l0.255,0.247l0.031,0.064l0.006,0.071
	l-0.018,0.065l-0.04,0.046l-0.057,0.009l-0.098-0.048l-0.048,0.002l-0.055,0.075l0.011,0.101l0.021,0.097l-0.021,0.064l-0.196,0.184
	l-0.089,0.035l-0.109-0.035l-0.104-0.1l-0.073-0.104l-0.023-0.052h-0.016l-0.06-0.013l-0.044-0.022l-0.016,0.022l-0.012,0.037
	l-0.031,0.049l0.008,0.025l-0.011,0.026l-0.072,0.025l-0.105-0.002l-0.281-0.035l-0.099,0.015h-0.088l-0.112-0.061l-0.097-0.098
	l-0.044-0.112l-0.032-0.01l-0.019-0.01l-0.041-0.028l0.035-0.127l-0.121-0.106l-0.185-0.072l-0.151-0.022l0.188,0.119l0.086,0.156
	l0.021,0.056l-0.035,0.013l-0.061-0.045l-0.295-0.296l-0.269-0.178l-1.027-0.372l0.231,0.052l0.101-0.005l0.052-0.068l-0.096,0.01
	l-0.027-0.087l-0.009-0.082l0.007-0.062l0.019-0.022l-0.08,0.005l-0.059,0.188l-0.104,0.027l-0.102-0.066l-0.136-0.107l-0.109-0.067
	l-0.021,0.062l-0.036,0.021l-0.194-0.158l-0.077-0.051l-0.186-0.088l-0.385-0.235l-0.262-0.129l-0.292-0.235l-0.322-0.118
	l-0.433-0.316l-0.023-0.149l0.067,0.018l0.039,0.125l0.092,0.016l0.186-0.063l0.019,0.061l0.021,0.035l0.029,0.021l0.048,0.023
	l0.104-0.064l0.179,0.083l0.188,0.153l0.203,0.206l0.09,0.06l0.098,0.033l0.089-0.016l0.067,0.013l0.074,0.071l0.083,0.058
	l0.101-0.021l-0.116-0.063l-0.066-0.091l-0.053-0.105l-0.069-0.112l-0.035-0.089l0.061-0.044l0.104-0.03l0.091-0.047l-0.029-0.035
	l-0.067,0.005l-0.085-0.012l-0.078-0.035l-0.05-0.062l0.009-0.056l0.051-0.024l0.168-0.01l0.108,0.047l0.11,0.065l0.08,0.071
	l0.121,0.082l0.322,0.072l0.133,0.059l0.088,0.104l0.116,0.202l0.092,0.056l0.034-0.02l-0.059-0.11l-0.247-0.32l-0.054-0.115
	l0.005-0.203l-0.044-0.103l-0.063-0.067l-0.032-0.026l-0.008-0.023l0.002-0.062l0.013-0.035l0.058-0.077l0.011-0.035l-0.031-0.063
	l-0.054-0.05l-0.032-0.049l0.036-0.061l0.182,0.102l-0.109-0.116l-0.126-0.051l-0.111-0.062l-0.071-0.16l0.066-0.446l-0.066-0.239
	l0.019-0.772l-0.044-0.273l-0.106-0.259l-0.56-0.679l-0.053-0.132l-0.083-0.302l-0.063-0.12l-0.042-0.061l-0.071-0.126l-0.048-0.065
	l-0.051-0.042l-0.167-0.104l-0.049-0.07l-0.036-0.071l-0.019-0.073l0.01-0.08l0.001-0.074l-0.03-0.05l-0.042-0.039l-0.03-0.042
	l-0.058-0.132l-0.633-1.106l-0.134-0.174l-0.006-0.066l-0.038-0.182l-0.004-0.041l0.014-0.032l0.09-0.271l0.046-0.047l0.066,0.017
	l0.089,0.1l0.079,0.143l0.04,0.136l0.042,0.264l0.037,0.068l0.049,0.058l0.023,0.05l-0.044,0.051l-0.016,0.042l0.015,0.069
	l0.032,0.071l0.037,0.049l0.023-0.076l0.005-0.072l0.013-0.063l0.048-0.052l0.162-0.093l0.031,0.008l0.059,0.065l0.191,0.088
	l0.094,0.099l0.109,0.23l0.045,0.019l0.054,0.01l0.033-0.021l-0.011-0.077l-0.132-0.257l-0.038-0.117l0.01-0.145l0.277-0.053
	l0.078,0.005l0.055,0.055l0.126,0.198l0.055,0.042l0.005-0.058l0.071-0.26l0.028-0.065l0.077-0.039l0.06,0.014l0.099,0.1
	l0.227-0.194l0.271,0.131l0.27,0.222l0.225,0.071l-0.345-0.32l-0.116-0.08l-0.054-0.096l0.075-0.111l0.129-0.066l0.113,0.045
	l0.041-0.082l0.033-0.206l0.026-0.097l0.12-0.241l0.051-0.063l0.081-0.044l0.169-0.016l0.088-0.024l0.07-0.05l0.166-0.197
	l-0.019-0.047l-0.244,0.148l-0.109,0.02l-0.136-0.045l-0.051,0.108l-0.07,0.109l-0.081,0.097l-0.369,0.248l-0.053,0.067l-0.26,0.03
	l-0.083-0.019l-0.108-0.043l-0.052-0.006l-0.152,0.097l-0.065-0.003l-0.323-0.091l-0.222-0.03l-0.106-0.054l-0.076-0.11l-0.034,0.02
	l0.001,0.094l-0.02,0.038l-0.066,0.022l-0.034,0.039l-0.086,0.126l-0.032,0.028l-0.067-0.05l-0.115-0.21l-0.071-0.017l-0.104-0.051
	l-0.503-0.56l-0.107-0.082l-0.213-0.12l-0.113-0.004l-0.084,0.058l-0.079,0.039l-0.103-0.062l-0.039-0.089l-0.112-0.359l0.005-0.097
	l0.103-0.074l0.101-0.095l0.044-0.06l0.071-0.132l0.042-0.055l0.062-0.049l0.048-0.009l0.053-0.003l0.07-0.026l0.037-0.036
	l0.042-0.097l0.074-0.097l0.053-0.106l0.069-0.099l0.099-0.04l0.119,0.056l0.093,0.123l0.031,0.141l-0.061,0.104l-0.236,0.065
	l-0.098,0.076l-0.02,0.167l0.097-0.111l0.148-0.069l0.146,0.014l0.094,0.149l0.05-0.057l0.026-0.069l0.001-0.078l-0.025-0.087
	l0.099,0.065l0.079,0.18l0.043,0.194l-0.006,0.119l0.115,0.153l0.061,0.03l0.094-0.023l-0.061-0.088l-0.048-0.128l-0.02-0.126
	l0.027-0.073l0.009-0.074l-0.055-0.301l0.002-0.123l-0.116-0.086l-0.065-0.12l-0.102-0.316l-0.334-0.713l-0.399-0.488l-0.071-0.141
	l-0.06-0.089l-0.066-0.04l-0.055-0.058l-0.024-0.141l0.011-0.166l0.04-0.1l0.065-0.059l0.088-0.051l0.074-0.08l0.02-0.103v-0.104
	l0.024-0.091l0.081-0.068l0.288-0.154l0.091-0.013l0.118,0.098l0.143,0.243l0.097,0.104l-0.001-0.127l-0.011-0.089l0.154-0.063
	l0.089-0.007l0.108,0.026l0.198,0.112l0.112,0.033l0.104-0.003l0.094-0.033l0.068-0.066l0.03-0.104l-0.014-0.091l-0.07-0.185
	l-0.01-0.105l0.09-0.07l0.132-0.104l0.534-0.301l1.348-0.762l0.111-0.063l1.456-0.822l1.098-0.622l0.354-0.198l1.448-0.82
	l-0.652-1.592l-0.648-1.583l-0.517-1.257l-0.129-0.315l-0.641-1.563l-0.195-0.477l-0.128-0.209l0.005-0.079l-0.009-0.08
	l-0.022-0.077l-0.029-0.074l-0.03-0.103l0.001-0.085l0.013-0.083l-0.005-0.1l-0.041-0.074l-0.052-0.065l-0.013-0.058l1.245-0.771
	l0.1-0.125l0.055-0.051l0.068-0.027l0.061,0.007l0.137,0.043L1143.87,751.327z"/></svg>