<?xml version="1.0" encoding="utf-8"?>
<!-- Generator: Adobe Illustrator 15.0.0, SVG Export Plug-In . SVG Version: 6.00 Build 0)  -->
<!DOCTYPE svg PUBLIC "-//W3C//DTD SVG 1.1//EN" "http://www.w3.org/Graphics/SVG/1.1/DTD/svg11.dtd">
<svg version="1.1" id="Ebene_1" xmlns="http://www.w3.org/2000/svg" xmlns:xlink="http://www.w3.org/1999/xlink" x="0px" y="0px"
	 width="1920px" height="1080px" viewBox="0 0 1920 1080" enable-background="new 0 0 1920 1080" xml:space="preserve">

<path fill="#F4E0B6" stroke="#FFFFFF" d="M691.631,603.095l0.039,0.071l0.056-0.052l0.042,0.01l0.023,0.054l0.001,0.074l-0.032,0.09
	l-0.048,0.046l-0.047-0.014l-0.03-0.092l-0.024-0.053l-0.041-0.052l-0.029-0.055l0.032-0.135l-0.03-0.091l-0.08-0.151l0.083-0.004
	l0.046,0.053l0.021,0.074l0.009,0.066l-0.002,0.107L691.631,603.095z M691.212,602.25l-0.027,0.035h-0.04l-0.032-0.019l-0.019-0.024
	l-0.005-0.034l-0.01-0.025l0.007-0.021l0.023,0.001l0.011,0.021l0.074,0.077l0.007-0.015l0.003-0.008l0.006-0.012V602.25z
	 M691.01,602.136l-0.058-0.035l-0.017-0.047l0.021-0.017l0.015,0.003l0.023,0.026l0.037,0.052L691.01,602.136z M691.78,602.233
	l-0.003,0.017l0.054,0.007l0.038,0.022l0.053,0.072l-0.088,0.021l-0.197-0.077l-0.088-0.003l-0.033-0.069l-0.049-0.063l0.069-0.001
	l0.147,0.059l0.086-0.009l0.014,0.021L691.78,602.233z M690.794,601.563l-0.102,0.009l-0.065-0.09l-0.028-0.122l0.004-0.088
	l0.082,0.033l0.051,0.084L690.794,601.563z M702.538,609.471l-0.021,0.055l-0.067-0.045l-0.094-0.111l-0.057-0.053l-0.034-0.066
	l-0.001-0.073l0.046-0.068l0.2,0.084l0.039,0.035l0.01,0.05l-0.02,0.132L702.538,609.471z M690.443,600.769l-0.037,0.047
	l0.181,0.121l0.036,0.081l-0.036,0.127l-0.027-0.02l-0.027-0.085l-0.229-0.206l-0.019-0.137l0.095-0.034l0.06-0.006l0.032,0.027
	l-0.006,0.039L690.443,600.769z M690.311,600.537l-0.038,0.004l0.009-0.03l-0.002-0.022l-0.068-0.083l-0.089-0.241l-0.005-0.069
	l0.051,0.025l0.062,0.05l0.046,0.058l0.005,0.045l0.028,0.045l0.076,0.07l0.049,0.069l-0.054,0.048L690.311,600.537z
	 M690.078,599.424l0.084,0.207l0.033,0.229l0.005,0.174l-0.016-0.016l-0.057-0.036l-0.007,0.029l-0.029,0.064l-0.062-0.122
	l-0.02-0.109l-0.012-0.228l0.021-0.027l0.043,0.067l0.013,0.074l0.003,0.077l0.014,0.074l0.013-0.107l-0.003-0.154l-0.031-0.139
	L690,599.417l-0.021,0.027l0.001,0.022l-0.002,0.01l-0.005,0.01l-0.006,0.027l-0.031-0.043l-0.02-0.043l-0.005-0.049l0.011-0.054
	L690.078,599.424z M689.853,598.654l0.026,0.242l-0.073-0.017l-0.061-0.04l-0.043-0.058l-0.02-0.069l0.022,0.019l0.075,0.051
	l0.016-0.051l-0.006-0.045l-0.025-0.025h-0.042l-0.04-0.131l-0.003-0.058l0.125,0.064L689.853,598.654z M681.382,589.865
	l-0.079-0.055l-0.006-0.021l0.055,0.018l0.119-0.005l0.048,0.019l0.051,0.004l0.05-0.01h0.036l0.133,0.038l0.043,0.029l0.056,0.01
	l0.057-0.006l0.035-0.017l0.018-0.013h0.01l0.003,0.048l-0.051,0.067l-0.102,0.004l-0.183-0.053l-0.147-0.028l-0.029-0.012
	l-0.029-0.001l-0.026,0.006L681.382,589.865z M682.38,590.178l-0.185,0.005l-0.063-0.045l-0.008-0.084l0.03-0.057l0.004,0.014
	l0.005,0.067l0.065,0.037l0.079-0.001l0.033-0.011l-0.014-0.012h0.017l0.145,0.034l0.03,0.01l0.055,0.026l-0.011,0.021l-0.086,0.002
	L682.38,590.178z M684.079,591.256l-0.432-0.023l-0.149-0.035l-0.126-0.076l0.059-0.071l0.049,0.005l0.088,0.089h0.062l0.079-0.029
	l0.068-0.017l0.031,0.042l0.03,0.055l0.063,0.025h0.066l0.041-0.016l0.074-0.048l0.088-0.007l0.169,0.013l0.038,0.011l0.01,0.031
	l-0.011,0.028l-0.02,0.004l-0.022-0.003L684.079,591.256z M679.766,586.49l0.231,0.285l0.155,0.203l0.04,0.074l0.015,0.075
	l-0.03,0.071l-0.07,0.058l-0.057,0.031l-0.032,0.043l0.002,0.1l0.054,0.243l0.05,0.032l0.021,0.045l-0.01,0.058l-0.021,0.059
	l-0.01,0.048l-0.023,0.029l-0.055,0.028l-0.099,0.039l-0.027-0.02l-0.007,0.045l-0.021,0.035l-0.034,0.026l-0.044,0.017l0.039,0.109
	l0.027,0.052l0.044,0.044l-0.023,0.026l-0.062,0.023l-0.011,0.069l0.02,0.076l0.023,0.053l-0.083,0.029l-0.137,0.021l-0.138,0.005
	l-0.09-0.021l-0.077-0.039l-0.645-0.119l-0.354-0.109l-0.277-0.162l-0.03-0.046l-0.002-0.059l-0.231-0.18l-0.026-0.036l-0.045-0.082
	l-0.033-0.042l-0.13-0.094l-0.021-0.039l0.01-0.235l-0.011-0.072l-0.046-0.139l-0.001-0.069l0.027-0.094l0.061-0.117l0.037-0.122
	l0.024-0.042l0.023,0.018l0.008,0.067l0.072,0.261l-0.02,0.067l0.019,0.087l0.043,0.081l0.05,0.056l0.148,0.112l0.025-0.007
	l0.171-0.009l0.086,0.009l0.047-0.004l0.037-0.02l0.008,0.011v0.035l-0.028,0.041l-0.077,0.024l0.004,0.042l0.163-0.065l0.018-0.056
	l-0.093-0.096l-0.008-0.07l0.132-0.742l0.081-0.177l0.172-0.128h0.247l0.061-0.034l0.063-0.014l0.113,0.006l0.115,0.021l0.07,0.032
	l-0.023-0.046l-0.033-0.038l-0.041-0.031l-0.025-0.052l0.004-0.008l0.03,0.008l0.054,0.002L679.766,586.49z M680.641,587.214
	l-0.101-0.069l-0.064-0.114l0.017-0.089l0.099,0.041l0.084,0.156l0.022,0.087L680.641,587.214z M677.339,584.473l0.04,0.059
	l0.009,0.007l0.017,0.014l-0.025-0.008l-0.071-0.051l-0.076-0.064l-0.034-0.064l0.051,0.009L677.339,584.473z M684.798,589.482
	l-0.033,0.058l-0.03-0.019l-0.019-0.049l-0.039-0.023l-0.018-0.022l0.003-0.034l0.015-0.035l0.025-0.029l0.034,0.002l0.032,0.039
	l0.021,0.043l0.007,0.025L684.798,589.482z M697.756,598.674l0.057,0.041l0.056,0.009l0.055-0.006l0.06,0.001l0.073,0.024
	l0.046,0.037l0.03,0.048l0.022,0.051l0.002,0.023l-0.006,0.073l0.007,0.021l0.036,0.015h0.077l0.033,0.01l0.024,0.043l0.058,0.151
	l0.03,0.042l0.065,0.009l0.053-0.012l0.037,0.02l0.016,0.103l-0.008,0.064l-0.028,0.051l-0.047,0.044l-0.204,0.114l-0.018,0.045
	l-0.006,0.088l-0.056-0.035l-0.054-0.014l-0.117,0.004l0.068-0.055v-0.046l-0.046-0.016l-0.074,0.041l0.001,0.018l-0.004,0.035
	l-0.018,0.028l-0.041-0.002l-0.016-0.02l0.001-0.027l0.005-0.031l0.002-0.088l0.01-0.047l0.004-0.049l-0.019-0.063l-0.069-0.013
	l-0.063-0.067l-0.048-0.089l-0.021-0.069l0.015-0.038l0.044-0.029l0.052-0.028l0.04-0.03l0.004-0.04l-0.025-0.044l-0.052-0.066
	l-0.007,0.045l-0.018,0.036l-0.03,0.028l-0.043,0.019l0.035-0.094l-0.022-0.016l-0.077,0.029l-0.069-0.025l-0.036-0.061l0.022-0.075
	l0.004-0.065l-0.024-0.092l0.003-0.092l0.083-0.073l-0.008-0.043l0.067,0.049l0.024,0.065l0.015,0.07L697.756,598.674z
	 M698.506,598.612l-0.086-0.056l-0.019-0.154l0.024-0.313l0.063-0.03l0.004-0.084l-0.025-0.092l-0.023-0.056l0.097,0.046l0.03,0.115
	l-0.016,0.132l-0.077,0.188l0.007,0.102l0.02,0.101V598.612z M697.867,597.834l0.02,0.033l0.096,0.048l0.032,0.043l-0.001,0.051
	L698,598.058l0.004,0.045l0.048,0.041l-0.024-0.06l0.032-0.014l0.032-0.008l0.031-0.006l0.032-0.002l-0.008,0.064l0.018,0.048
	l0.038,0.019l0.056-0.021l-0.02,0.084h-0.06l-0.074-0.03l-0.067-0.01l0.033,0.039l0.013,0.043l0.006,0.042l0.011,0.037l0.028,0.037
	l0.061,0.066l0.019,0.049l-0.199,0.101l-0.1,0.025l-0.009-0.065l-0.021-0.005l-0.049-0.017l-0.021-0.003l0.011-0.036l0.003-0.022
	l-0.003-0.051l0.042-0.085l-0.055-0.078l-0.081-0.012l-0.042,0.115l-0.03-0.052l-0.068-0.158l-0.009-0.038l0.018-0.073l-0.051-0.155
	l0.01-0.081l0.073,0.019l0.082-0.016l0.077-0.041l0.058-0.052l0.108-0.132l0.02-0.05l0.011-0.09l0.046,0.045l0.041,0.056
	l0.018,0.063l-0.023,0.064l-0.046,0.021l-0.066,0.01l-0.06,0.028L697.867,597.834z M697.703,596.574l-0.009,0.064l0.099,0.013
	l0.072,0.084l0.045,0.119l0.018,0.108l-0.002,0.069l-0.012,0.076l-0.021,0.074l-0.081,0.132l-0.014,0.05l0.011,0.135l0.029,0.022
	l0.035,0.052l0.039,0.036l-0.103,0.016l-0.066-0.081l-0.086-0.229l-0.065-0.067l-0.085-0.061l-0.074-0.08l-0.035-0.13l0.11,0.007
	l0.013-0.085l-0.043-0.087l-0.063,0.004l-0.031,0.03l-0.043,0.03l-0.042,0.007l-0.025-0.032l0.008-0.055l0.034-0.048l0.038-0.017
	l0.022,0.035l0.05-0.064l0.001-0.112l-0.055-0.094l-0.116-0.006l-0.002-0.032l-0.013-0.016l-0.018-0.01l-0.018-0.02l0.095-0.024
	l0.083,0.029l0.122,0.089l0.146,0.035L697.703,596.574z M696.145,594.877l-0.058,0.022l-0.027,0.017l-0.08-0.025l-0.031-0.022
	l0.011-0.027l0.046-0.063l0.027,0.009l0.038,0.048l0.036,0.02l0.026-0.025l0.017-0.004l0.015,0.03L696.145,594.877z
	 M697.465,595.804l-0.002,0.082l-0.008-0.015l-0.02-0.04l-0.022,0.06l0.051,0.4l-0.011,0.043l-0.039,0.027l-0.025-0.018l-0.02-0.037
	l-0.022-0.027l-0.51-0.209l0.018-0.022l0.016-0.007l0.016-0.002l0.019-0.011l0.026-0.026l0.021-0.006l0.021,0.017l0.021,0.022
	l0.017,0.006l0.03-0.032l0.015-0.045l-0.015-0.036l-0.065-0.01l-0.092-0.019l-0.104-0.055l-0.157-0.116l-0.062-0.078l-0.044-0.135
	l-0.124-0.129l-0.078-0.104l-0.028-0.084l0.082-0.006l-0.008-0.096l-0.113,0.002l-0.08-0.01l0.088-0.132l0.005,0.02l0.022,0.038
	l0.068-0.064l0.039,0.016l0.023,0.043l0.027,0.02l0.042,0.021l0.13,0.142l0.044,0.113l0.093,0.077l0.104,0.062l0.083,0.069
	l0.089,0.057l0.089-0.006l0.086-0.016l0.082,0.02l0.073,0.063l0.066,0.083L697.465,595.804z M682.925,585.097l-0.034,0.013
	l-0.004-0.026l0.201-0.223l0.017-0.036l0.015-0.021l0.016,0.007l0.004,0.028l-0.01,0.036l-0.007,0.02l-0.023,0.052l-0.06,0.093
	l-0.075,0.049L682.925,585.097z M694.716,593.384l-0.024-0.017l0.02-0.024l0.005-0.029l-0.02-0.03l0.04,0.01l0.141,0.091
	l-0.075,0.004L694.716,593.384z M695.643,593.904l-0.113-0.015l0.021-0.066l-0.036-0.055l-0.199-0.162l-0.024-0.041l-0.022-0.059
	l0.066,0.034l0.312,0.253l0.031,0.07L695.643,593.904z M693.97,591.814l0.022,0.331l0.027,0.113l0.123,0.165l0.047,0.198
	l0.101,0.156l0.013,0.121l-0.009,0.124l-0.021,0.089l-0.025-0.126l-0.021-0.028l-0.026-0.029l-0.02-0.037l-0.024-0.063l-0.015-0.083
	l-0.017-0.211l-0.08-0.022l-0.059-0.054l-0.037-0.072l-0.032-0.117l-0.017-0.023l-0.001-0.026l0.028-0.045l-0.001-0.023l-0.022-0.08
	l-0.01-0.021l-0.01-0.043l0.023-0.066l0.011-0.072l-0.047-0.07l-0.138-0.033l-0.044-0.037l0.048-0.069l0.122,0.042l0.074,0.048
	L693.97,591.814z M693.748,591.336l0.026,0.062l-0.001,0.039l-0.057,0.01l-0.062-0.029l-0.006-0.042l0.021-0.025v-0.02l-0.008-0.017
	l-0.021-0.012l-0.02-0.023l-0.03-0.095l-0.003-0.058l0.033-0.034l0.052,0.02l0.011-0.029l0.028-0.027h0.029l-0.01,0.059l-0.056,0.05
	l0.018,0.027l0.055,0.062l-0.003,0.047L693.748,591.336z M693.257,590.363l0.033,0.066l0.031,0.018l-0.042,0.048l-0.065,0.009
	l-0.038-0.1l-0.041-0.014l-0.076,0.022l-0.047-0.008l0.045-0.11l0.074,0.007l0.07,0.021L693.257,590.363z M693.361,590.755
	l-0.044-0.024l-0.022-0.053l0.004-0.05l0.028-0.014l0.036-0.001l0.023-0.013l-0.028-0.028l-0.019-0.039l0.079-0.031l0.095,0.038
	l0.033,0.044l-0.003,0.057l-0.017,0.029l-0.035,0.002l-0.052-0.017l-0.046,0.008v0.032l0.025,0.027l-0.011,0.023L693.361,590.755z
	 M692.13,589.43l0.02,0.037l0.005,0.037l-0.01,0.039l-0.027,0.036l-0.302-0.315l-0.021-0.078l0.034-0.001l0.028,0.007l0.021,0.021
	l0.012,0.042l0.234,0.044l0.084,0.048l0.031,0.085l-0.027-0.004l-0.057,0.004L692.13,589.43z M692.991,589.643l-0.013,0.037
	l-0.008,0.037l-0.024,0.059l-0.018,0.001l0.003-0.04l-0.003-0.029l-0.016-0.01l-0.026-0.012l-0.025-0.023l-0.007-0.032l0.004-0.029
	l0.008-0.007l0.009,0.011l0.021-0.016l0.042-0.039l0.044,0.019L692.991,589.643z M692.773,589.38l-0.096-0.02l-0.06-0.065
	l-0.092-0.174l0.038-0.03l0.039-0.015l0.045-0.01l0.05-0.02l0.026,0.02l-0.015,0.063l0.005,0.067l0.023,0.062l0.039,0.046
	l0.055,0.042l0.012,0.021l-0.022,0.008L692.773,589.38z M692.445,589.086l-0.021-0.011l-0.011-0.035l0.004-0.035l0.008-0.038
	l-0.021-0.03l-0.028-0.066l-0.01-0.017l0.007-0.021l0.001-0.013l-0.011-0.031l0.013-0.035l0.051,0.003l0.03,0.013l0.028,0.019
	l0.024,0.029l-0.018,0.02l0.004,0.045l0.015,0.081l-0.002,0.043v0.019l-0.006,0.035l-0.023,0.02L692.445,589.086z M692.166,588.521
	l-0.034-0.014l-0.025-0.021l-0.099-0.055l-0.055,0.002l-0.071-0.016l-0.058-0.023v-0.012l0.011-0.029l0.019,0.002l0.029,0.027
	l0.021-0.036l0.033-0.009l0.056,0.029l0.026,0.019l0.085,0.051l0.039,0.03l0.041,0.044L692.166,588.521z M690.637,587.226
	l0.016,0.086l0.04-0.049l0.027,0.018l-0.01,0.079l0.002,0.04l-0.014,0.017l-0.056,0.008l-0.085-0.01l-0.038-0.035l-0.022-0.045
	l-0.034-0.044l-0.121-0.071l-0.109-0.033l-0.241-0.042l0.073-0.015l0.321,0.021l0.073,0.033l0.065,0.051l0.061,0.071l0.003-0.029
	l0.011-0.053l0.001-0.03l0.042-0.005L690.637,587.226z M691.784,587.983l0.028,0.024l0.09,0.062l0.022,0.01l0.032,0.009l0.021,0.017
	l-0.012,0.032l-0.03,0.021h-0.033l-0.037-0.007l-0.046-0.001l-0.031-0.031l-0.04-0.07l-0.055-0.071l-0.068-0.03l0.004-0.031
	l-0.015-0.013l-0.061-0.008l0.054-0.042l0.047-0.013l0.049,0.013l0.061,0.036l0.008,0.019l0.001,0.052L691.784,587.983z
	 M691.333,587.602l-0.03,0.018l-0.015-0.012l-0.013-0.006l-0.024,0.023l-0.021-0.008l-0.033-0.038l-0.038-0.004l-0.027,0.018
	l-0.002-0.02l0.035-0.048l0.067-0.014l0.079,0.021l0.037,0.015v0.019L691.333,587.602z M689.074,586.809l0.073,0.154l0.068,0.052
	l0.043,0.007l0.055-0.02l0.103-0.022l0.041-0.017l0.11-0.062l0.033-0.007l0.043,0.026l0.085,0.035l0.025,0.013l0.124,0.13
	l0.025,0.019l0.019,0.002l-0.004,0.019l-0.045,0.058l-0.041,0.101l0.049,0.066l0.09,0.043l0.088,0.031l0.63,0.3l0.087,0.06
	l0.136,0.153l0.089,0.059l0.097,0.023l0.11-0.007l0.076-0.055l-0.007-0.117l0.063,0.013l0.051,0.03l0.037,0.038l0.02,0.043
	l-0.018,0.022l-0.052,0.006l-0.233,0.107l0.04,0.142l-0.002,0.012l-0.054,0.313l0.032,0.102l0.052,0.044l0.12,0.13l0.038,0.059
	l0.008,0.054l0.001,0.068l0.016,0.071l0.05,0.062l0.197,0.144l0.033,0.046l0.016,0.081l0.031,0.073l0.042,0.063l0.048,0.057
	l0.112,0.087l0.125,0.057l0.271,0.072l0.044-0.105l0.061,0.041l0.112,0.223l0.063,0.084l0.079,0.039l0.084-0.078l0.021,0.047
	l0.017,0.054l0.004,0.052l-0.016,0.045l-0.032,0.194l-0.011,0.029l0.072,0.171l0.016,0.016l0.065,0.042l0.018,0.026l-0.005,0.025
	l-0.012,0.019l-0.006,0.009l0.09,0.03l0.196-0.021l0.261,0.095l0.025,0.029l-0.021,0.028l-0.057,0.006l-0.099-0.005l-0.05-0.095
	l-0.063,0.001l-0.151,0.1l-0.008,0.086l0.003,0.039l0.015,0.046l0.03,0.036l0.133,0.116l0.045,0.064l0.092,0.29l-0.003,0.025
	l0.001,0.025l0.015,0.022l0.025,0.006l0.035-0.003l0.03-0.007l0.011-0.006l0.087,0.048l0.016,0.04l-0.21,0.433v0.003l0.039,0.055
	l0.026,0.052l0.014,0.058l0.006,0.07l-0.007,0.087l-0.042,0.146l-0.01,0.077l0.011,0.163l0.007,0.03l0.044,0.047l0.1,0.074
	l0.031,0.04l-0.018,0.207l-0.015,0.055l0.009,0.044l0.09,0.404l0.065,0.122l0.104,0.052l0.008,0.061l0.03,0.094l0.046,0.065
	l0.061-0.02l0.042,0.024l0.152,0.169l0.066,0.048h0.059l0.026-0.017l0.022-0.012l0.046,0.028l0.029,0.032l0.028,0.071l0.035,0.036
	l0.084,0.044l0.169,0.043l0.08,0.032l0.08,0.057l0.177,0.159l0.315,0.283l0.17,0.107l-0.011,0.051l-0.101,0.262h0.02l0.045,0.008
	l-0.002,0.072l0.056-0.006l0.146-0.079l0.004-0.095l-0.006-0.039l-0.015-0.037l0.02-0.027l0.093,0.089l0.026,0.188l0.278,0.403
	l0.023,0.069l-0.007,0.069l0.025,0.106l0.039,0.109l0.036,0.076l0.064,0.084l0.185,0.185l0.072,0.035l-0.021,0.023l-0.036,0.054
	l-0.021,0.023l0.05,0.009l0.021-0.002l-0.005,0.055l-0.022,0.095l0,0.05l0.014,0.045l0.038,0.077l0.009,0.042l0.017,0.033
	l0.034,0.025l0.039,0.022l0.032,0.025l0.083,0.133l0.042,0.052l0.165,0.136l0.019,0.038l-0.021,0.041l-0.03,0.045l-0.006,0.045
	l0.023,0.027l0.092,0.062l-0.017-0.002l-0.022,0.005l0.011,0.061l0.031,0.046l0.037,0.042l0.028,0.039l0.005,0.008l0.066,0.02
	l0.006,0.058l-0.029,0.13l0.02,0.11l-0.001,0.038l-0.029,0.084l-0.022,0.154l0.001,0.056l0.031,0.042l0.02,0.061l0.036,0.277
	l-0.011,0.038l-0.024,0.149l0.004,0.044l0.047,0.023l0.048-0.023l0.23-0.267l0.047-0.023l0.051,0.011l0.083,0.081l0.056,0.041
	l-0.061,0.017l-0.128-0.058l-0.048,0.015l-0.046,0.069l-0.024,0.061l-0.008,0.054l0.003,0.059l0.013,0.065l0.019,0.034l0.088,0.06
	l0.019,0.052l-0.018,0.076l-0.034,0.075l-0.028,0.047l-0.022,0.054l0.008,0.057l0.03,0.055l0.075,0.101l0.017,0.017l0.071,0.012
	l0.018,0.036l0.009,0.046l0.02,0.034l0.238,0.117l0.057,0.05l0.039,0.068l0.081,0.209l0.042-0.05l0.047-0.008l0.109,0.039
	l-0.023,0.042l0.007,0.032l0.029,0.026l0.045,0.021l0.003-0.019l0.011-0.033l0.002-0.019l0.037,0.051l0.019,0.071l0.015,0.124
	l-0.057-0.027l-0.019-0.047l-0.021-0.017l-0.062,0.056l-0.044,0.075l-0.037,0.152l-0.033,0.067l-0.011,0.052l0.034,0.046
	l0.097,0.087l0.051,0.103l0.018,0.022l0.041,0.017l0.031-0.006l0.023-0.011l0.015-0.002l0.015-0.021l0.014-0.059v-0.067
	l-0.061-0.105v-0.077l0.04-0.139l0.046-0.101l0.003-0.038l-0.013-0.03l-0.048-0.076l-0.006-0.021l0.025-0.044l0.021-0.062
	l-0.016-0.055l-0.085-0.011l-0.01-0.089l-0.081,0.012l-0.026-0.066l-0.006-0.182l-0.046-0.205l0.006-0.084l-0.02-0.021l-0.066-0.01
	l0.078-0.044l0.107-0.028l0.098,0.002l0.048,0.046l0.044,0.188l-0.009,0.039l-0.049,0.111l-0.003,0.026l0.171,0.529l0.045,0.084
	l0.138,0.18l0.023,0.07l0.011,0.085l0.047,0.18l0.033,0.049l0.091,0.3l0.033,0.063l0.037,0.048l0.052,0.038l0.077,0.026
	l-0.082,0.052l-0.015,0.058l0.011,0.058l-0.004,0.048l-0.068,0.065l-0.153,0.032l-0.073,0.048l-0.016-0.041l-0.01-0.11l-0.006-0.025
	l-0.149-0.261l-0.044-0.058l-0.062-0.052l-0.003,0.009l-0.019,0.007l-0.021,0.004h-0.009l-0.018,0.009l-0.013-0.019l-0.011-0.026
	l-0.021-0.036l-0.013-0.061l-0.022-0.033l-0.086-0.049l-0.057,0.018l-0.02,0.048l0.026,0.048l0.034,0.037l0.013,0.043l0.008,0.044
	l0.018,0.042l0.03,0.032l0.105,0.061l0.047,0.077l-0.029,0.074l-0.072,0.045l-0.084-0.016l-0.033,0.025l-0.029,0.083l-0.019,0.085
	l-0.003,0.036l0.035,0.037l0.088,0.04l0.051,0.045l-0.078,0.046l0.042,0.016l0.122,0.017l0.006-0.001l0.048,0.004l0.037,0.019
	l0.074-0.035l0.193-0.169l0.216-0.106l0.057-0.018l0.076,0.035l0.036,0.084l0.032,0.722l0.018,0.09l0.003,0.01l0.026,0.072
	l0.082,0.148l0.165,0.177l0.02,0.066l-0.063,0.034l0.072,0.051l-0.078,0.062l-0.058,0.02l-0.052-0.016l-0.132-0.078l-0.065-0.016
	l-0.063,0.013l-0.052,0.044l-0.021,0.126l0.252,0.03l-0.08,0.086h0.053l0.044-0.028l0.043-0.04L699.47,604l-0.025-0.018l0.105-0.039
	l0.043-0.027l0.04-0.041l0.162,0.225l0.021,0.012l0.04,0.003l0.011,0.018l0.03,0.079l0.079,0.09l0.036,0.028l0.037,0.06l0.008,0.087
	l-0.019,0.067l-0.044,0.006l-0.067-0.026l-0.266-0.045l0.057-0.048l-0.008-0.056l-0.034-0.025l-0.024,0.045l-0.062,0.046
	l0.029,0.058l0.063,0.061l0.041,0.06l0.022,0.079l0.039,0.068l0.057,0.061l0.072,0.056l0.018-0.023l-0.058-0.08l-0.01-0.032
	l0.004-0.048l0.017-0.07l0.02-0.022l0.089,0.02l0.063,0.04l0.064,0.085l0.043,0.101l0.002,0.09l0.021,0.014l0.06-0.078l0.023,0.017
	l-0.125,0.142l-0.078,0.021l-0.194-0.119l-0.02,0.025l0.073,0.049l-0.049-0.003l-0.019-0.004l-0.007,0.067l0.036,0.021l0.054,0.009
	l0.044,0.026l0.011,0.047l-0.014,0.09l0.024,0.034l0.024,0.005l0.039-0.003l0.037-0.006l0.022-0.013l0.018-0.006l0.021,0.013
	l0.02,0.019l0.021,0.011l0.15,0.012l0.053,0.011l-0.041-0.057l-0.104-0.094l-0.033-0.048l-0.005-0.079l0.033-0.069l0.063-0.034
	l0.081,0.024l0.415,0.301l0.066,0.087l0.021,0.075l0.082,0.122l0.004,0.017l0.032,0.125l0.026,0.067l0.271,0.399l0.058,0.151
	l-0.049,0.099l-0.012,0.04l-0.062,0.078l-0.018,0.056l0.005,0.063l0.026,0.014l0.063-0.014l0.081,0.007l0.046,0.019l0.042,0.047
	l0.02,0.047l0.005,0.043l-0.012,0.045l-0.035,0.048l0.022,0.016l0.021-0.015l0.024-0.011l0.021-0.012l-0.019,0.074l0.022,0.034
	l0.042-0.016l0.047-0.068l0.026,0.023l0.093,0.067l0.05,0.022h0.033l0.091-0.012l0.038,0.01l0.043,0.033l0.039,0.039l0.02,0.042
	l-0.019,0.085l0.025,0.026l0.031-0.004l0.007-0.046l0.28-0.009l0.016,0.02l0.036,0.06l0.003,0.018l-0.006,0.038l0.034,0.025
	l0.075,0.023l0.123,0.084l0.088,0.083l0.027,0.106l-0.064,0.152l0.162,0.064l0.042,0.108l-0.013,0.269l-0.186,0.106l-0.041,0.011
	l-0.065,0.008l-0.028,0.011l-0.024,0.02l-0.05,0.052l-0.023,0.017l-0.063,0.022l-0.085,0.018l-0.084-0.005l-0.058-0.04l0.009-0.048
	l0.029-0.067l0.004-0.052l-0.064-0.001l-0.015-0.038l-0.021-0.02l-0.027-0.007h-0.031l0.026,0.023l0.015,0.022l0.002,0.025
	l-0.012,0.029l-0.107-0.061l-0.031,0.048l-0.002,0.097l-0.017,0.085l0.022,0.016l0.083-0.033l0.115,0.035l0.11,0.067l0.07,0.063
	l0.093,0.175l0.009,0.032l-0.034,0.057l-0.015,0.05l0.013,0.042l0.049,0.032l-0.095,0.073l-0.049-0.035l-0.03-0.075l-0.031-0.057
	l-0.02-0.027l0.005-0.03l0.011-0.033l0.002-0.033l-0.012-0.04l-0.006-0.014l-0.218-0.1l-0.086-0.023l-0.214-0.184l-0.014,0.056
	l-0.04,0.047l-0.104,0.065l-0.014,0.025l-0.039,0.046l-0.042,0.038l-0.045,0.029l0.008,0.055l-0.019,0.11l0.08,0.17l0.042,0.056
	l0.054-0.022l0.101-0.057l0.275-0.028l0.09-0.052l0.024,0.084l-0.01,0.081l-0.04,0.07l-0.073,0.049l0.101,0.051l0.025,0.033
	l-0.045,0.031l-0.033,0.032l0.017,0.05l0.061,0.08l0.041-0.097l0.174,0.19l0.106-0.032l0.022,0.016l0.002,0.032l0.009,0.036
	l0.013,0.038l0.02,0.038l0.083-0.061l-0.042-0.064l-0.028-0.025l-0.038-0.021l0.087-0.03l0.104,0.032l0.094,0.061l0.064,0.055
	l0.043,0.068l0.04,0.096l-0.007,0.059l-0.097-0.039l-0.005,0.068l-0.021,0.064l0.025,0.017l0.017-0.014l0.045-0.022l-0.028,0.103
	l0.074,0.077l0.218,0.112l-0.032-0.083l-0.086-0.158l-0.057-0.066l0.081-0.018l0.104,0.035l0.095,0.063l0.053,0.063l-0.004-0.047
	l0.051,0.042l0.143,0.146l0.025,0.055l-0.006,0.034l-0.07-0.022l-0.02,0.025l0.081,0.092l0.013-0.002l0.005-0.006l0.006-0.003h0.018
	l0.02,0.059l0.073,0.025l0.057,0.042l-0.031,0.11l0.021-0.015l0.041-0.024l0.022-0.023l0.014,0.048l0.021,0.036l0.029,0.022
	l0.039,0.001l-0.015-0.085l0.314,0.154l0.054,0.069l0.02,0.042l0.03,0.032l0.019,0.034l-0.014,0.043l0.009,0.039l0.057,0.039
	l0.095,0.05l0.028,0.081l0.013,0.085l0.035,0.087l0.258,0.222l0.058,0.073l0.027,0.075l-0.051-0.004l-0.019-0.005l-0.014,0.126
	l-0.028,0.044l0.001,0.017l0.014,0.012l0.014,0.027l0.011,0.034l0.008,0.027l0.1,0.129l-0.024,0.061l0.03,0.101l0.087,0.212
	l0.004,0.053l-0.019,0.106l0.001,0.233l0.014,0.034l-0.006,0.032l0.043,0.302l0.021,0.039l0.044,0.038l0.062,0.075l0.055,0.122
	l0.024,0.13l-0.028,0.1l0.027,0.017l0.086-0.021l0.072,0.048l0.066,0.072l0.066,0.051l0.079,0.013l0.091,0.001l0.091,0.013
	l0.08,0.044l0.034,0.044l0.019,0.048l0.025,0.112l0.066,0.159l0.004,0.084l-0.016,0.083l-0.035,0.081l-0.044,0.08l-0.092,0.062
	l-0.108-0.003l-0.098-0.02l-0.087,0.021l-0.103-0.006l-0.031-0.009l-0.033,0.009l-0.118,0.123l-0.185,0.028l-0.132-0.093
	l-0.124-0.139l-0.162-0.114l-0.26-0.103l-0.162-0.088l-0.344-0.127l-0.12-0.116l-0.147-0.027l-0.2-0.187l-0.306-0.133l-0.094-0.049
	l-0.12-0.019l-0.1,0.011l-0.1,0.024l-0.097,0.008l-0.096-0.032l-0.085-0.053l-0.057-0.025l-0.051,0.012l-0.079,0.065l-0.125,0.053
	l-0.148-0.033l-0.14-0.07l0.014-0.058l-0.016-0.03l-0.023-0.007l-0.031,0.021l-0.025,0.035l-0.114-0.03l-0.012-0.009l0.207-0.284
	l-0.152-0.102l0.021-0.012l0.033-0.008l0.079-0.001l0.053,0.023l0.103-0.053l0.051-0.032l0.005-0.051l0.065-0.104l-0.083-0.033
	l-0.072,0.029l-0.051,0.023l-0.06,0.031l-0.017-0.038l-0.023-0.045l-0.07-0.014l-0.054,0.03l-0.035,0.032l-0.016,0.048l0.014,0.02
	l0.02,0.021l0.018,0.007l0.02-0.009l0.02-0.011l-0.005,0.022l-0.014,0.05l-0.062-0.004l-0.024,0.023l-0.067-0.044l-0.273,0.007
	l-0.118,0.134l0,0l-0.22-0.078l-0.372-0.214l-0.037-0.032l-0.101-0.106l-0.021-0.044l-0.022-0.02h-0.016l-0.055,0.016l-0.031-0.004
	l-0.107-0.053l-0.114-0.078l-0.093-0.094l-0.042-0.094l-0.133-0.062l-0.091-0.177l-0.071-0.207l-0.078-0.148l-0.072-0.063
	l-0.265-0.164l-0.062-0.054l-0.114-0.132l-0.066-0.058l-0.15-0.077l-0.087-0.028l-0.07-0.003l-0.059-0.026l-0.392-0.436
	l-0.297-0.256l-0.171-0.105l-0.345-0.116l-0.152-0.073l-0.263-0.176l-0.086-0.042l-0.19-0.051l-0.092-0.036l-0.439-0.339
	l-0.498-0.277l-0.103-0.013l-0.076-0.058l-0.067-0.07l-0.071-0.058l-0.074-0.014l-0.187,0.016l-0.105-0.015l-0.102-0.037
	l-0.483-0.296l-0.08-0.077l-0.126-0.194l-0.08-0.08l-0.078,0.003l-0.024-0.019l-0.007-0.042l-0.033-0.03l-0.047-0.009l-0.053,0.021
	l-0.069-0.093l-0.1-0.078l-0.112-0.041l-0.109,0.028l0.099,0.067l-0.02,0.026l-0.066-0.041l-0.131-0.029l-0.075-0.038l-0.343-0.22
	l-0.272-0.103l-0.14-0.075l-0.144-0.116l-0.27-0.094l-0.073-0.044l-0.042-0.042l-0.032-0.056l-0.014-0.062l0.008-0.058l0.057-0.067
	l0.164-0.078l0.031-0.032l0.033,0.01l0.05,0.026l0.036,0.004l0.042-0.005l0.055-0.022l0.037,0.001l0.02-0.048l0.04-0.018
	l0.115-0.014l0.165-0.057l0.021-0.014l0.034-0.021l0.291-0.035l0.018-0.039l-0.011-0.081l0.024-0.019l0.031,0.025l0.071,0.097
	l0.062-0.011l0.086,0.026l0.026-0.004l0.028-0.016l0.136-0.051h0.095l0.217,0.024l0.124-0.045l0.106-0.003l0.49,0.08l0.078,0.036
	l0.075,0.007l0.16-0.098l0.084-0.009l0.012,0.007l0.014,0.009l0.021,0.018l-0.054,0.03l0.005,0.036l0.044,0.033l0.063,0.022
	l0.073,0.003l0.073-0.022l0.068-0.039l0.055-0.055l0.043-0.003l0.217,0.009l0.149-0.175l0.044-0.01l0.046-0.006l0.148-0.1
	l0.023-0.255l-0.01-0.056l-0.048-0.131l-0.092-0.137l-0.031-0.028l-0.009,0.058l-0.042,0.011l-0.033-0.091l-0.036-0.064
	l-0.008-0.063l0.049-0.094l0.032-0.017l0.039,0.004l0.041,0.012l0.035,0.004l0.154-0.052l0.019-0.025l-0.068-0.171l-0.059-0.062
	l-0.078,0.054l-0.019-0.121l0.01-0.136l-0.007-0.13l-0.074-0.106l-0.11-0.061l-0.131-0.052l-0.125-0.023l-0.087,0.021l-0.017-0.045
	l-0.022-0.014l-0.025-0.001l-0.033-0.009l-0.045-0.016l-0.031-0.006l-0.029-0.01l-0.039-0.027l-0.055-0.054l-0.132-0.191
	l-0.195-0.022l-0.034-0.019l-0.022-0.075l-0.014-0.028l-0.023-0.023l-0.11-0.069l-0.026-0.022l-0.054-0.067l-0.013-0.03
	l-0.019-0.002l-0.049-0.027l-0.168-0.133l-0.046-0.061l-0.046-0.131l-0.052-0.065l-0.12-0.106l-0.092-0.035l-0.085,0.004
	l-0.078,0.012l-0.075-0.012l-0.237-0.155l-0.099-0.114l0.023-0.108l-0.027-0.019l-0.063,0.038l-0.013-0.218l-0.028-0.048
	l-0.065-0.07l-0.012-0.071l0.03-0.164l-0.005-0.068l-0.021-0.106l-0.038-0.094L693,602.449l-0.054-0.006l0.002-0.027l0.024-0.037
	l0.014-0.032l-0.003-0.08l0.005-0.052l0.015-0.039l0.016-0.071l-0.112-0.357l-0.038-0.048l-0.131-0.081l-0.026-0.056l0.005-0.084
	l0.024-0.136l-0.011-0.074l-0.055-0.19l-0.029-0.025l0.002-0.054l0.078-0.143l0.176-0.251l0.053-0.124l0.028-0.144l0.044-0.133
	l0.107-0.091l0.003,0.06l0.035,0.034l0.053-0.001l0.056-0.044l0.003-0.058l-0.085-0.117l-0.006-0.047l0.044-0.069l0.061-0.145
	l0.047-0.075l0.034-0.074l0.022-0.161l0.026-0.063l0.075-0.14l0.038-0.157l0.007-0.152l-0.017-0.127l-0.028-0.078l-0.039-0.061
	l-0.166-0.159l-0.033-0.046l0.005-0.038l0.063-0.035l0.022,0.051l0.039,0.037l0.099,0.067l0.028-0.007l0.011-0.052l0.002-0.09
	l-0.007-0.039l-0.017-0.052l-0.042-0.093l-0.04-0.052l-0.028-0.014l-0.035-0.001l-0.06-0.012l-0.193-0.078l-0.177-0.102
	l-0.023-0.005l-0.033,0.003l-0.032,0.008l-0.021,0.014l-0.023,0.006l-0.03-0.017l-0.103-0.083l-0.036-0.039l-0.036-0.029
	l-0.049-0.011l-0.002-0.047l-0.087-0.008l-0.076-0.031l-0.155-0.106l-0.079-0.036l-0.256-0.044l-0.177-0.064l-0.149-0.088
	l-0.134-0.115l-0.221-0.282l-0.031-0.076l-0.019-0.107l-0.044-0.042l-0.201-0.109l-0.07-0.049l-0.059-0.08l-0.018-0.044
	l-0.009-0.057l0.017-0.125l-0.005-0.056l-0.039,0.021l-0.04,0.031l-0.046,0.004l-0.039-0.02l-0.021-0.042l-0.009-0.055l-0.012-0.025
	l-0.12-0.149l-0.013-0.022l-0.01-0.045l0.007-0.049l0.016-0.054l0.003-0.053l-0.034-0.048l-0.245-0.186l-0.185-0.237l-0.093-0.063
	l-0.087,0.031l-0.077,0.046l-0.052-0.051l-0.047-0.097l-0.057-0.085l0.021-0.025l0.094,0.025l0.019-0.022l-0.045-0.054l0.021-0.049
	l0.045-0.049l0.027-0.054h-0.094l-0.078-0.026l-0.07-0.048l-0.069-0.069l-0.051-0.077l-0.034-0.039l-0.038-0.016l-0.03,0.02
	l0.002,0.042l0.021,0.044l0.023,0.026l-0.08,0.016l-0.041-0.079l-0.007-0.109l0.021-0.078l0.057-0.086l0.031-0.086l-0.002-0.08
	l-0.045-0.062l-0.064-0.066l-0.102-0.156l-0.124-0.141l-0.036-0.159l-0.138-0.189l-0.036-0.171l-0.062-0.68l0.006-0.02l0.016-0.02
	l0.014-0.023l0.001-0.029l-0.013-0.015l-0.047-0.023l-0.011-0.014l-0.012-0.062l0.009-0.031l0.036-0.043l0.042,0.046l0.063,0.042
	l0.076,0.025l0.078-0.005l-0.065-0.026l-0.027-0.004l0.041-0.022l0.044-0.017l0.04-0.02l0.023-0.031l-0.019-0.03l-0.051-0.021
	l-0.031-0.024l0.043-0.045l-0.07-0.051l-0.022-0.061l0.033-0.047l0.096-0.019l-0.043-0.112l-0.008-0.055l0.008-0.064l-0.055,0.021
	l-0.054-0.019l-0.047-0.045l-0.033-0.059l-0.083,0.064l-0.007,0.074l0.045,0.151l-0.004,0.106l-0.022,0.118l-0.05,0.104l-0.091,0.07
	l-0.107-0.164l-0.449-0.307l-0.411-0.346l-0.554-0.317l-0.283-0.253l-0.049-0.073l-0.08-0.162l-0.116-0.129l-0.024-0.076l0.01-0.082
	l0.062-0.251l0.016-0.046l0.046-0.06l0.154-0.136l-0.008-0.022l0.021-0.207l-0.022-0.063l-0.039-0.046l-0.05-0.016l-0.055,0.021
	l-0.036,0.046l-0.081,0.193l-0.363,0.445l-0.122,0.093l-0.069-0.06l0.116-0.042l0.081-0.127l0.036-0.144l-0.012-0.05l-0.127-0.037
	l-0.034-0.001l-0.037,0.022l-0.053,0.071l-0.038,0.017l-0.056-0.011l-0.018-0.035l-0.005-0.039l-0.022-0.029l-0.04-0.002
	l-0.026,0.022l-0.028,0.016l-0.053-0.022l-0.082-0.149l0.124-0.3l-0.088-0.153l-0.171-0.126l-0.031-0.04l-0.027-0.099l-0.029-0.039
	l-0.036-0.01l-0.091,0.012l-0.051-0.021l-0.012-0.002l-0.015,0.004l-0.019,0.001l-0.024-0.011l-0.006-0.014l0.018-0.04l-0.005-0.022
	l-0.108-0.155l-0.009-0.023l-0.027-0.049l-0.041-0.031l-0.053,0.026l-0.047-0.011l-0.08-0.055l-0.076-0.068l-0.031-0.058
	l-0.021-0.017l-0.046,0.039l-0.033-0.006l-0.06-0.059l0,0.022l-0.002,0.014l-0.013,0.033l-0.038-0.029l-0.149-0.141l-0.035-0.057
	l-0.009-0.161l0.01-0.074l0.032-0.062l-0.01-0.107l-0.338-0.563l-0.028-0.065l-0.019-0.083l-0.018-0.039l-0.063-0.061l-0.021-0.032
	v-0.033l0.016-0.097l0.009-0.017l-0.049-0.035l-0.057-0.057l-0.037-0.072l0.02-0.087l0.067-0.042l0.072-0.005l0.072,0.019
	l0.056,0.02l0.395,0.315l0.159,0.065l0.082,0.083l0.114,0.073l0.075,0.036l0.076,0.091l0.074,0.067l0.205,0.106l0.187,0.045
	l0.034,0.037l0.052,0.008l0.07,0.052l0.045,0.02l0.063,0.022l0.084-0.01l0.058-0.006l0.044,0.012l0.059-0.08l0.043-0.025
	l0.038-0.062l0.116-0.08l0.03-0.041l-0.037-0.054l-0.05-0.041l-0.03-0.151l-0.024-0.1l-0.047-0.179l-0.086-0.135l-0.224-0.339
	l-0.126-0.087l-0.302-0.186l-0.423-0.217l-0.074-0.132l-0.184-0.242l-0.267-0.198l-0.163-0.095l-0.084-0.049l-0.067-0.062
	l-0.087-0.112l-0.256-0.144l-0.149-0.181l-0.047-0.024l-0.097-0.017l-0.041-0.019l-0.135-0.156l-0.149-0.066l-0.291-0.372
	l-0.076-0.057l-0.104-0.02l-0.086,0.032l-0.072,0.061l-0.062,0.071l-0.077,0.049l-0.08-0.005l-0.152-0.053l-0.358,0.013
	l-0.065-0.007l-0.085-0.053l-0.068-0.024l-0.335-0.062l-0.179-0.013l-0.179,0.024l-0.518,0.214l-0.152,0.016l-0.125-0.074
	l-0.089-0.12l-0.044-0.04l-0.063-0.024l-0.009,0.008l-0.042,0.052l-0.018,0.009l-0.013-0.012l-0.012-0.017l-0.034-0.01l-0.012-0.017
	l-0.013-0.013l-0.018,0.011l-0.042,0.053l-0.01,0.008l-0.196-0.018l-0.083,0.012l-0.045,0.016l-0.019,0.016l-0.008,0.014
	l-0.019,0.015l-0.069,0.033l-0.037,0.01l-0.053-0.001l-0.002-0.02l0.005-0.016l-0.039,0.042l-0.046,0.004l0.012-0.05l-0.02-0.034
	l-0.034-0.02l-0.055,0.058l-0.111,0.016l-0.189-0.119l-0.165-0.161l-0.105-0.18l0.057-0.008l0.023-0.044l0.009-0.061l0.016-0.059
	l-0.024-0.018l-0.134,0.059l-0.165,0.021l-0.159-0.015l-0.119-0.051l0.019-0.007l0.029-0.02l0.02-0.008l-0.441-0.245l-0.017-0.018
	l-0.002-0.024l0.013-0.032l0.016-0.027l0.013-0.009l-0.051-0.019l-0.086,0.019l-0.062-0.028l-0.264-0.224l-0.092-0.046l-0.265,0.024
	l-0.028,0.024l-0.115,0.078l-0.047,0.024l-0.002,0.037l-0.015,0.025l-0.044,0.056l-0.012-0.063l-0.046-0.021l-0.059,0.019
	l-0.047,0.063l-0.016,0.068l0.02,0.045l0.05,0.021l0.074,0.002l-0.088,0.063l-0.199-0.007l-0.094,0.051l-0.002,0.027l0.006,0.038
	l-0.01,0.038l-0.046,0.022l-0.061,0.006l-0.064-0.002l-0.06-0.011l-0.05-0.025l-0.054-0.066l-0.076-0.171l-0.065-0.076l-0.093-0.042
	l-0.208-0.025l-0.09-0.022l-0.038-0.026l-0.07-0.063l-0.038-0.023l-0.053-0.016l-0.124-0.014l-0.14-0.054l-0.718,0.012l-0.224-0.039
	l-0.164-0.103l0.018-0.107l0.395-0.174l0.154-0.121l0.012-0.168l-0.123-0.133l-0.179-0.098l-0.355-0.141l-0.194-0.043l-0.566-0.052
	l-0.174-0.077l-0.154-0.124l-0.111-0.159l-0.016-0.076l0.016-0.074l0.045-0.065l0.067-0.051l0.033-0.014l0.044-0.014l0.044-0.006
	l0.032,0.009l0.01,0.022L672.332,581l-0.009,0.029l-0.004,0.025l0.009,0.039l0.02,0.033l0.028,0.028l0.035,0.022l0.083,0.022
	l0.078-0.009l0.043-0.045l-0.024-0.084l0.088,0.016l0.055,0.042l0.003,0.062l-0.065,0.073l0.426,0.077l0.325,0.127l0.42,0.105
	l0.313,0.016l0.038,0.008l0.051,0.032l0.038,0.039l0.008,0.032l-0.041,0.018l0.071,0.133l0.103,0.042l0.122,0.016l0.127,0.055
	l0.038,0.054l0.03,0.083l0.011,0.083l-0.015,0.056l-0.001,0.035l0.156,0.007l0.047,0.051l0.228-0.161l-0.083,0.013l-0.092,0.035
	l-0.071,0.001l-0.013-0.078l0.04-0.086l0.051-0.049l0.025-0.051l-0.042-0.088l0.101-0.052l0.039-0.01l-0.061-0.059l-0.051-0.079
	l-0.036-0.084l-0.014-0.067l0.016-0.072l0.03-0.078l0.008-0.073l-0.048-0.056l0.064-0.005l0.089-0.025l0.09-0.04l0.067-0.051
	l0.08-0.077l0.084-0.065l0.191-0.119l0.017-0.003l0.132-0.052l0.027,0.004l0.041,0.027l0.027,0.001l0.035-0.011l0.054-0.035
	l0.025-0.01l0.167-0.048l0.102-0.016l0.096,0.013l0.024-0.026l-0.073-0.057h0.103l0.176,0.092l0.098,0.014l0.091-0.022l0.115-0.046
	l0.085-0.066l-0.001-0.077l0.023-0.026l0.028,0.038l0.022,0.043l0.082,0.005l0.053,0.027l0.024,0.054l-0.01,0.067l0.15-0.111
	l0.049-0.02l0.047,0.013l0.098,0.062l0.034-0.001l0.034-0.034l0.066-0.054l0.063-0.022l0.03,0.052l0.022,0.064l0.054,0.011
	l0.068-0.014l0.068-0.005l0.009-0.062l-0.014-0.052l-0.038-0.046l-0.063-0.041l0.04-0.015l0.048-0.006l0.047,0.007l0.041,0.019
	l0.039,0.063l-0.008,0.067l-0.015,0.062l0.017,0.047l0.054,0.027l0.06,0.014l0.343,0.018l0.007,0.084l0.1-0.051l0.083,0.007
	l0.164,0.106l0.067,0.034l0.345,0.068l0.158,0.054l0.062,0.037l0.034,0.037l0.028,0.055l0.038,0.029l0.031,0.011l0.074,0.007
	l0.036,0.007l0.023-0.026l-0.035-0.008l-0.039-0.003l0.007-0.017l0.008-0.008v-0.007l-0.017-0.014l0.114,0.013l0.097,0.036
	l0.182,0.128l0.033-0.01l0.143-0.082l0.032,0.006l0.147,0.11l-0.031,0.019l-0.015,0.006l-0.021,0.007l0.059,0.064l0.073-0.006
	l0.076-0.035l0.067-0.02l0.071,0.02l0.027,0.047l0.016,0.063l0.038,0.068l-0.058,0.019l0.048,0.019l0.084,0.01l0.053-0.007
	l0.072-0.044l0.121-0.038l0.124-0.018l0.088,0.018l0.061,0.022l0.276,0.028l0.096,0.023l0.068,0.048l0.04,0.062l0.012,0.074
	l-0.02,0.022l-0.051-0.001l-0.051,0.033l-0.036,0.055l-0.012,0.066l0.026,0.05l0.056,0.007l0.061-0.014l0.046-0.006l-0.021-0.098
	l0.044-0.045l0.086-0.001l0.105,0.027l0.17,0.083l0.039,0.009l0.071,0.004l0.026,0.01l0.031,0.033l0.021,0.069l0.027,0.039
	l0.026,0.004l0.04-0.006l0.035,0.009l0.019,0.042l-0.01,0.053l-0.032-0.004l-0.04-0.022l-0.031,0.01l-0.018,0.048l0.01,0.029
	l0.038,0.009l0.064-0.015l-0.069,0.066l0.058,0.052l0.107,0.009l0.01,0.001l0.114-0.062l0.116-0.039l0.115,0.084l0.109,0.113
	l0.096,0.051l0.1,0.03l0.304,0.254l0.36,0.204l0.112,0.029l0.067,0.059l0.223,0.031l0.096,0.036l0.03,0.003l0.078-0.025l0.027,0.002
	l0.047,0.027l0.043,0.015l0.083,0.007l0.168,0.001l0.08,0.011l0.156,0.084l0.217,0.055l0.276,0.144l0.147,0.039l0.194,0.235
	l0.083,0.051l0.118,0.051l0.05,0.02l0.088,0.053l0.041,0.02l0.051,0.015l0.043,0.021l0.021,0.042l0.057,0.187l0.079,0.105
	l0.206,0.188l0.083,0.101l0.098,0.034l0.542,0.409l0.089,0.067l0.062,0.033l0.065,0.011l0.022,0.05l0.036,0.032l0.043,0.027
	l0.042,0.041l0.012,0.032l0.021,0.094l0.04,0.096l-0.048,0.082l-0.08,0.074l-0.068,0.049l-0.046,0.015l-0.033-0.002l-0.009,0.01
	l0.026,0.052l0.035,0.035l0.047,0.02l0.069,0.019l0.028-0.009l0.095-0.072l0.038-0.02l0.05-0.006l0.033,0.011l0.032,0.022
	l0.334,0.17l0.053,0.013l0.07-0.013l0.106,0.041l0.183,0.098l0.066,0.021l0.18,0.034h0.137l0.226,0.026l0.071,0.025l0.044,0.073
	l-0.083,0.004l-0.129-0.032l-0.19-0.077l-0.281-0.028l-0.083,0.006l-0.02,0.022l0.123,0.151L689.074,586.809z M691.158,587.48
	l-0.003,0.016l-0.021,0.02l-0.026-0.007l-0.015-0.033l-0.023-0.02l-0.035,0.011l-0.022-0.001l-0.047-0.086l-0.031-0.043
	l-0.021-0.021l-0.069-0.04l-0.036-0.031l-0.07-0.106l-0.028-0.033l0.002-0.052l-0.013-0.025l0.031-0.01l0.061,0.058l0.068,0.107
	l0.1,0.115L691.158,587.48z M690.657,586.731l0.048,0.126l0.025,0.017l0.012,0.016l-0.014,0.041l-0.051,0.01l-0.035-0.035
	l-0.029-0.041l-0.037-0.036l-0.025-0.045l0.004-0.038l-0.003-0.026l-0.023-0.033l0.042-0.004L690.657,586.731z"/></svg>