<?xml version="1.0" encoding="utf-8"?>
<!-- Generator: Adobe Illustrator 15.0.0, SVG Export Plug-In . SVG Version: 6.00 Build 0)  -->
<!DOCTYPE svg PUBLIC "-//W3C//DTD SVG 1.1//EN" "http://www.w3.org/Graphics/SVG/1.1/DTD/svg11.dtd">
<svg version="1.1" id="Ebene_1" xmlns="http://www.w3.org/2000/svg" xmlns:xlink="http://www.w3.org/1999/xlink" x="0px" y="0px"
	 width="1920px" height="1080px" viewBox="0 0 1920 1080" enable-background="new 0 0 1920 1080" xml:space="preserve">

<path fill="#F4E0B6" stroke="#FFFFFF" d="M1005.125,780.408l0.062,0.013l0.21-0.068l0.106,0.001l0.092,0.027l0.083,0.05l0.08,0.064
	l-0.052,0.057l0.012,0.065l0.079,0.154l0.011,0.105l-0.021,0.068l-0.033,0.07l-0.025,0.104l0.019,0.09l0.097,0.172l0.015,0.07
	l-0.053,0.085l-0.092,0.043l-0.098-0.008l-0.071-0.066l0.112-0.034l-0.112-0.117l-0.134-0.109l-0.138-0.073l-0.125-0.01
	l-0.081,0.017l-0.539,0.01l-0.203-0.042l-0.486,0.062l-0.605,0.009l-0.011-0.041l0.192-0.108l0.002-0.083l0.049-0.09l0.072-0.055
	l0.202-0.095l0.602-0.171l0.088-0.041l0.193-0.113l0.322-0.123l0.116-0.024l0.12,0.016L1005.125,780.408z M1009.584,765.323
	l0.059,0.054l0.481,0.142l0.286,0.154l0.262,0.196l0.199,0.216l0.117,0.172l0.048,0.045l0.036,0.01l0.099,0.007l0.044,0.02
	l0.037,0.037l0.077,0.139l0.055,0.042l0.169,0.058l0.068,0.04l0.032,0.041l0.07,0.146l0.054,0.042l0.065,0.01l0.052,0.024
	l0.016,0.082l0.008,0.15l0.05,0.094l0.084,0.065l0.106,0.069l0.102,0.032l0.021,0.027l-0.049,0.06l-0.04,0.065l0.075,0.003
	l0.1-0.023l0.034-0.021l0.056-0.007l0.06-0.02l0.055-0.003l0.094,0.08l0.082,0.041l0.087,0.027l0.064,0.01l0.294,0.139l0.025,0.069
	l-0.004,0.069l-0.016,0.072l-0.006,0.079l0.013,0.048l0.049,0.09l0.006,0.055l-0.026,0.078l-0.049,0.055l-0.055,0.046l-0.044,0.055
	l-0.052,0.206l0.006,0.262l0.094,0.193l0.217,0.003l0.228-0.075l0.226-0.044h0.14l0.08,0.035l0.016,0.035l0.015,0.032l0.006,0.014
	l0.004,0.36l0.027,0.204l0.12,0.409l0.024,0.054l0.093,0.145l0.009,0.024l0.01,0.062l0.009,0.02l0.023,0.018l0.048,0.016l0.02,0.008
	l0.31,0.239l0.1,0.037l0.046,0.045l0.324,0.252l-0.011,0.134l-0.046,0.132l-0.086,0.105l-0.125,0.046l-0.106,0.058l-0.082,0.12
	l-0.057,0.146l-0.045,0.19l-0.063,0.106l-0.021,0.079l0.008,0.079l0.019,0.066l-0.004,0.05l-0.058,0.025l0.05,0.51l-0.045,0.161
	l-0.069,0.149l-0.077,0.227l-0.007,0.202l0.138,0.065l-0.011-0.201l0.079-0.148l0.144-0.1l0.186-0.044l0.092,0.012l0.188,0.056
	l0.063-0.004l0.091-0.07l0.159-0.186l0.243-0.421l0.044-0.107l0.061-0.315l0.034-0.093l0.048-0.079l0.058-0.066l0.075-0.059
	l0.162-0.073l0.039-0.008l0.165,0.001l0.051,0.013l0.052,0.002l0.062-0.028l0.074,0.293l0.015,0.742l-0.041,0.242l0.022,0.132
	l0.083,0.146l0.074,0.1l0.012,0.109l-0.101,0.174l-0.091,0.094l-0.101,0.067l-0.109,0.049l-0.447,0.135l-0.107,0.049l-0.113,0.104
	l-0.055,0.126l-0.063,0.279l-0.044,0.074l-0.12,0.119l-0.039,0.057l-0.008,0.06l0.01,0.068l0.377,1.354l-0.122,0.058l-0.037,0.025
	l-0.223,0.22l-0.163,0.242l-0.498,1.122l-0.04,0.09l-0.048,0.067l-0.064,0.053l-0.199,0.11l-0.191,0.193l-0.648,0.894l-0.064,0.157
	l-0.237,0.568l-0.035,0.06l-0.4,0.339l-0.09,0.046l-0.11,0.36l-0.076,0.122l-0.012,0.026l0.031,0.053l0.112,0.106l0.038,0.064
	l0.001,0.052l-0.021,0.04l-0.038,0.026l-0.116,0.049l-0.008,0.042l0.05,0.106l0.01,0.087l-0.005,0.116l-0.03,0.107l-0.128,0.131
	l0.002,0.101l0.051,0.139l-0.036,0.038l-0.154,0.132l-0.112-0.048l-0.241,0.013l-0.127-0.027l-0.125-0.043l-0.102-0.051l0.047-0.021
	l0.022-0.021l0.012-0.024l0.011-0.042l-0.156,0.042l-0.064,0.029l-0.036,0.045l-0.035,0.01l-0.085-0.111l-0.098-0.059l-0.359-0.164
	l-0.904-0.232l-1.42-0.101l-1.474-0.151l-1.148-0.038l0.13-0.188l0.2-0.064l0.224,0.007l0.202,0.03l-0.022-0.047l-0.036-0.028
	l-0.047-0.01l-0.057,0.009h-0.046l-0.063-0.057l-0.053-0.021l-0.114-0.012l-0.06,0.012l-0.084,0.081l-0.053-0.01l-0.057-0.028
	l-0.052-0.009l-0.029-0.043l0.02-0.117l0.043-0.127l0.079-0.121l0.034-0.102l0.058-0.081l0.108,0.004l0.052-0.046l0.062-0.026
	l0.139-0.039l0.027-0.016l0.06-0.042l0.036-0.016h0.043l0.08,0.031l0.027,0.004l0.101-0.062l0.079-0.086l0.092-0.081l0.146-0.049
	l-0.017-0.016l-0.024-0.037l-0.015-0.018l0.093-0.059l0.098-0.043l0.064-0.063l-0.006-0.116l-0.041,0.013l-0.032,0.018l-0.036,0.014
	l-0.038,0.017l-0.03,0.032l-0.047-0.042l-0.014-0.019l-0.052,0.025l-0.063,0.02l-0.05,0.024l-0.012,0.039l-0.001,0.053l-0.03,0.034
	l-0.09,0.055l-0.058,0.049l-0.104,0.033l-0.051,0.028l-0.099,0.088l-0.114,0.058l-0.104,0.083l-0.063,0.036l-0.037,0.006
	l-0.116,0.007l-0.063,0.011l-0.138-0.011l-0.068-0.094l-0.061-0.11l-0.113-0.053l-0.01-0.034l0.021-0.034l0.006-0.036l-0.008-0.045
	l-0.021-0.053l-0.03,0.049l-0.034,0.039l-0.036,0.013l-0.04-0.022l-0.037,0.01l0.021,0.081l-0.168-0.094l0.019-0.207l0.133-0.356
	l0.102,0.022l0.037,0.02l0.025-0.047l-0.052-0.064l-0.026-0.076l0.016-0.068l0.072-0.042l-0.131-0.044l-0.077,0.117l-0.093,0.302
	l-0.229,0.25l-0.162,0.117l-0.097-0.042l-0.042,0.016l-0.371,0.033l-0.036,0.01l-0.036,0.003l-0.063-0.004l-0.26-0.094l-0.09-0.015
	l-0.081-0.032l-0.079-0.087l-0.045-0.098l-0.003-0.072l0.043-0.066l0.084-0.074l-0.095,0.044l-0.248,0.197l-0.306-0.097
	l-0.113-0.125l-0.066-0.046l-0.091-0.002l-0.067-0.01l-0.089-0.042l-0.154-0.104l0.102-0.054l0.158-0.159l0.097-0.055l0.09-0.015
	l0.1,0.003l0.203,0.027l-0.142-0.085l-0.166-0.057l-0.148-0.077l-0.166-0.245l-0.016-0.016l-0.03-0.011l-0.002-0.047l0.015-0.084
	l-0.009-0.082l0.015-0.089l0.029-0.085l0.041-0.076l-0.184,0.025l-0.092-0.048l-0.073-0.097l-0.123-0.116l-0.074-0.025l-0.081-0.01
	l-0.076-0.029l-0.05-0.082l-0.018-0.082l-0.008-0.076l0.005-0.076l0.019-0.075l-0.048,0.023l-0.025,0.031l-0.021,0.032l-0.035,0.032
	l-0.035,0.02l-0.024,0.005l-0.027,0.003l-0.045,0.01l-0.232,0.108l-0.112,0.085l-0.128,0.132l-0.108,0.146l-0.054,0.126l-0.034,0.01
	l-0.012-0.092l-0.076-0.232l-0.055-0.112l-0.022-0.068l0.011-0.07l-0.079-0.035l-0.273-0.255l-0.012,0.001l-0.018-0.017
	l-0.026,0.004l-0.028-0.004l-0.023-0.039l-0.043-0.051l-0.19-0.146l-0.046-0.015l-0.039-0.047l-0.047-0.044h-0.076l0.051-0.119
	l0.013-0.053l-0.012-0.074l-0.028-0.048l-0.101-0.084l-0.035-0.046l0.121-0.016l0.038,0.011l0.031-0.033l0.018,0.009l0.036,0.04
	l0.083-0.065l0.101-0.027l0.105,0.003l0.098,0.024l0.091,0.059l0.163,0.158l0.217,0.046l0.167,0.09l0.167,0.059l0.095-0.043
	l0.046-0.021l-0.011-0.037l-0.07,0.004l-0.064-0.011l-0.055-0.034l-0.039-0.059l0.075-0.022l-0.01-0.038l-0.172,0.01l-0.165-0.011
	l-0.104-0.062l0.018-0.148l0.051-0.067l0.147-0.112l0.061-0.061l0.026-0.067l0.017-0.071l0.035-0.043l0.081,0.013l-0.018-0.063
	l-0.002-0.067l0.013-0.063l0.021-0.059h0.058l0.371-0.079l0.11-0.001l0.063-0.01l0.04-0.029l0.09-0.109l0.045-0.039l-0.107,0.007
	l-0.113,0.048l-0.105,0.02l-0.029-0.06l-0.003,0.005l0.069-0.166l0.08-0.495l-0.092,0.208l-0.048,0.18l-0.076,0.146l-0.179,0.116
	l-0.101,0.024l-0.086,0.007l-0.072,0.021l-0.119,0.128l-0.097,0.037l-0.1-0.007l-0.077-0.06l0.117-0.06l0.047-0.087l0.034-0.096
	l0.08-0.09l-0.01-0.038l-0.052,0.007l-0.033-0.003l-0.024-0.015l-0.027-0.033l-0.034,0.011l-0.006,0.188l-0.021,0.078l-0.055,0.046
	l-0.097-0.001l-0.096-0.046l-0.136-0.105l-0.049,0.048l-0.044,0.006l-0.041-0.028l-0.036-0.055l-0.001,0.103l0.062,0.049
	l0.094,0.016l0.098,0.003l-0.065,0.062l0.183,0.069l0.042,0.124l-0.048,0.143l-0.091,0.133l0.035,0.041l0.013,0.05l-0.015,0.048
	l-0.052,0.031l-0.049-0.005l-0.045-0.032l-0.213-0.204l-0.064-0.077l-0.079-0.154l-0.07-0.089l-0.083-0.08l-0.068-0.051
	l-0.042-0.055l-0.029-0.09l-0.037-0.176l0.027-0.01l-0.187-0.587l0.105-0.221l0.059-0.032l0.029,0.013l0.028,0.031l0.055,0.022
	l0.42-0.125l0.085-0.04l0.099-0.082l0.153-0.062l0.317-0.084l-0.245-0.004l-0.032,0.026l-0.032,0.042l-0.096,0.028l-0.106,0.01
	l-0.074-0.013l-0.054,0.045l-0.083,0.042l-0.083,0.014l-0.049-0.046l-0.028-0.036h-0.041l-0.039,0.011h-0.022l-0.017-0.042
	l0.009-0.022l0.016-0.016l0.026-0.124l0.095-0.084l0.13-0.064l0.123-0.042l-0.011-0.042l-0.104-0.005l-0.118,0.06l-0.211,0.152
	l-0.124,0.051l-0.146,0.008l-0.13-0.048l-0.074-0.121l-0.016,0.03l-0.011,0.006l-0.003,0.011l0.01,0.044l-0.102-0.058l-0.03,0.016
	l-0.003,0.025l-0.009,0.022l-0.004,0.036l-0.144-0.063l-0.053-0.272l-0.116-0.077l-0.009-0.035l0.104-0.133l0.219-0.146l0.137-0.066
	l0.093-0.005l0.243,0.074l0.138,0.008l0.079-0.038l0.134-0.171l0.184-0.167l0.083-0.093l0.049-0.116l0.025-0.197l0.024-0.095
	l0.031-0.093l0.027-0.023l0.084-0.035l0.019-0.012l-0.019-0.045l-0.101-0.071l-0.039-0.051l-0.019-0.169l0.041-0.199l0.093-0.114
	l0.137,0.081l0.104-0.1l0.104-0.038l0.109-0.023l0.108-0.052l0.072-0.105l0.071-0.259l0.082-0.077l0.07-0.045l-0.009-0.043
	l-0.036-0.045l-0.012-0.045l0.028-0.071l0.022-0.037l0.079-0.081l0.024-0.003l0.034,0.012l0.028-0.002l0.012-0.042l0.005-0.039
	l0.013-0.025l0.029-0.044l0.016-0.043l0.023-0.665l-0.006-0.029l-0.018-0.022l-0.003-0.025l0.037-0.032l0.028-0.018l0.015-0.016
	l0.008-0.019l0.008-0.029l-0.001-0.2l0.013-0.054l0.046-0.034l0.056-0.009l0.043-0.017l0.009-0.057l-0.058-0.239l0.012-0.023
	l0.047-0.187l0.036-0.067l0.144-0.156l0.017-0.008l0.001-0.023l-0.02-0.068l0.004-0.031l0.027-0.008l0.029-0.005l0.013-0.018
	l-0.009-0.028l-0.038-0.058l-0.007-0.016l-0.039-0.441l-0.016-0.059l-0.018-0.036l-0.005-0.036l0.02-0.062l0.165-0.176l0.226-0.165
	l0.779-0.422l0.128-0.032l0.117,0.037l0.125,0.062l0.153,0.043l0.114,0.01l0.095-0.007l0.096-0.022l0.163-0.09l0.976-0.535
	l0.023-0.064l-0.065-0.353l2.344-0.706l1.171-0.355l0.144-0.027l0.203,0.003l0.078-0.017l0.076,0.036l0.074,0.113L1009.584,765.323z
	"/></svg>