<?xml version="1.0" encoding="utf-8"?>
<!-- Generator: Adobe Illustrator 15.0.0, SVG Export Plug-In . SVG Version: 6.00 Build 0)  -->
<!DOCTYPE svg PUBLIC "-//W3C//DTD SVG 1.1//EN" "http://www.w3.org/Graphics/SVG/1.1/DTD/svg11.dtd">
<svg version="1.1" id="Ebene_1" xmlns="http://www.w3.org/2000/svg" xmlns:xlink="http://www.w3.org/1999/xlink" x="0px" y="0px"
	 width="1920px" height="1080px" viewBox="0 0 1920 1080" enable-background="new 0 0 1920 1080" xml:space="preserve">

<path fill="#F4E0B6" stroke="#FFFFFF" d="M1389.206,126.9l0.158,0.094l0.24,0.004l0.526-0.119l0.221,0.072l0.053,0.086l0.02,0.115
	l-0.02,0.106l-0.094,0.092l-0.087,0.109l-0.025,0.026l-0.205,0.104l-0.035,0.031l-0.029,0.038l-0.022,0.042l-0.012,0.047
	l-0.063-0.039l-0.063-0.018l-0.073,0.004l-0.099,0.027l-0.045,0.025l-0.054,0.047l-0.044,0.048l-0.035,0.074l-0.045-0.012
	l-0.03-0.037l0.026-0.033l-0.017-0.076l-0.234-0.279l-0.077-0.057l-0.211-0.252l-0.066-0.041l-0.072-0.03l-0.086-0.019l-0.388,0.004
	l-0.07-0.014l-0.07-0.046l-0.063-0.075l-0.016-0.077l0.072-0.057l0.116-0.099l0.057-0.124l0.016-0.124l-0.005-0.101l0.064-0.023
	l0.156,0.034l0.266,0.092l0.2,0.142L1389.206,126.9z"/></svg>