<?xml version="1.0" encoding="utf-8"?>
<!-- Generator: Adobe Illustrator 15.0.0, SVG Export Plug-In . SVG Version: 6.00 Build 0)  -->
<!DOCTYPE svg PUBLIC "-//W3C//DTD SVG 1.1//EN" "http://www.w3.org/Graphics/SVG/1.1/DTD/svg11.dtd">
<svg version="1.1" id="Ebene_1" xmlns="http://www.w3.org/2000/svg" xmlns:xlink="http://www.w3.org/1999/xlink" x="0px" y="0px"
	 width="1920px" height="1080px" viewBox="0 0 1920 1080" enable-background="new 0 0 1920 1080" xml:space="preserve">

<path fill="#F4E0B6" stroke="#FFFFFF" d="M1039.559,541.285l0.002,0.071l0.006,0.065l0.024,0.132l0.007,0.002l0.018-0.007
	l0.007-0.002l-0.007,0.019l-0.01,0.06l0.039,0.01l0.032,0.031l0.05,0.088l0.009,0.054l0.025,0.032l0.077,0.062l0.088,0.115
	l0.038,0.032l0.01-0.07l0.079,0.065l0.176,0.203l0.063,0.034l0.116,0.015l0.052,0.016l0.022,0.021l0.022,0.027l0.034,0.041
	l0.009,0.014l0.024-0.004l0.034-0.038l0.027-0.007l0.062,0.017l0.112,0.057l0.062,0.017l0.057-0.001l0.142-0.04h0.101l0.013-0.001
	l0.021,0.013l-0.001-0.002l-0.004,0.009l0.013,0.038l-0.004,0.004l0.02,0.101l0.011,0.032l0.016,0.017l0.004,0.019l-0.02,0.032
	l0.012,0.042l0.02,0.034l0.024,0.027l0.03,0.022l-0.028-0.003l-0.012,0.012l-0.003,0.023l0.029,0.017l0.008,0.009l-0.17,0.199
	l-0.025,0.077l0.011,0.013l0.023,0.007l0.023,0.013l0.014,0.029l-0.001,0.022l-0.012,0.037l-0.009,0.069l-0.046,0.114l-0.021,0.081
	v0.055l0.048,0.142l0.01,0.045l0.03,0.15l0.056,0.132l0.011,0.033l-0.062,0.011l-0.095-0.021l-0.178-0.064l-0.006-0.003
	l-0.094-0.009l-0.089,0.016l-0.165,0.066l0.033,0.036l-0.082,0.03l-0.019,0.015l-0.005,0.03l0.008,0.028l0.003,0.026l-0.032,0.024
	l-0.014,0.05l-0.04,0.028l-0.25,0.085l-0.047,0.031l-0.084-0.116l-0.077-0.039l-0.205,0.007l-0.086-0.014l-0.069-0.032l-0.136-0.097
	l0.061-0.054l0.045-0.09l0.004-0.078l-0.06-0.014l0.023-0.039l0.009-0.052l0.003-0.114l0.015-0.033l0.021-0.035l0.005-0.045
	l-0.039-0.058l-0.027-0.013l-0.063,0.009l-0.026-0.009l-0.021-0.029l-0.002-0.018l0.004-0.018l-0.008-0.029l-0.004-0.024l0.01-0.021
	l0.005-0.021l-0.012-0.023l-0.004-0.01l-0.026-0.021l-0.02,0.002l-0.018,0.013h-0.018l-0.022-0.004l-0.046-0.001l-0.023-0.01
	l-0.002-0.012l-0.027-0.061l-0.013-0.02l-0.116-0.117l-0.029-0.022l-0.046-0.013l-0.034,0.004l-0.034-0.007l-0.05-0.043
	l-0.037-0.051l-0.022-0.053l-0.001-0.047l0.028-0.032l-0.038-0.02l-0.001-0.017l0.002-0.013v-0.014l-0.008-0.025l0.08-0.015
	l-0.041-0.031l-0.083-0.033l-0.04-0.007l-0.003-0.046l0.045-0.202l0.003-0.032l-0.001-0.024l0.004-0.027l0.012-0.034l0.018-0.021
	l0.04-0.022l0.017-0.029l0.013-0.071l-0.021-0.021l-0.029-0.02l-0.018-0.063l0.011-0.028l0.052-0.043l0.014-0.028l-0.004-0.038
	l-0.016-0.041l-0.02-0.051l0.008-0.034l0.031-0.047l0.009-0.031l-0.003-0.032l-0.019-0.075l0.001-0.031l0.035-0.058l0.093-0.082
	l0.028-0.058l0.002-0.07l-0.008-0.065l0.01-0.048l0.062-0.023l0.034-0.048l0.026,0.016l0.024,0.039l0.028,0.029l0.031,0.004
	l0.014,0.003l0.036-0.004l0.064-0.029l0.02-0.022l0.013-0.024l0.022-0.01l0.05,0.025l0.027,0.038l0.011,0.043l0.02,0.034
	L1039.559,541.285z"/></svg>