<?xml version="1.0" encoding="utf-8"?>
<!-- Generator: Adobe Illustrator 15.0.0, SVG Export Plug-In . SVG Version: 6.00 Build 0)  -->
<!DOCTYPE svg PUBLIC "-//W3C//DTD SVG 1.1//EN" "http://www.w3.org/Graphics/SVG/1.1/DTD/svg11.dtd">
<svg version="1.1" id="Ebene_1" xmlns="http://www.w3.org/2000/svg" xmlns:xlink="http://www.w3.org/1999/xlink" x="0px" y="0px"
	 width="1920px" height="1080px" viewBox="0 0 1920 1080" enable-background="new 0 0 1920 1080" xml:space="preserve">

<path fill="#F4E0B6" stroke="#FFFFFF" d="M1422.907,312.98l0.003,0.015l-0.004,0.049l0.033-0.023l0.016-0.003l0.026-0.002
	l0.011,0.116l0.059,0.003l0.082-0.043l0.071-0.024l-0.028,0.06l0.002,0.051l0.013,0.05l0.008,0.057l0.022,0.045l0.053,0.014
	l0.063,0.002l0.048,0.007l0.026-0.002l0.023-0.006l0.018,0.02l0.006,0.079l-0.024,0.021l-0.113,0.067l-0.034,0.014l-0.13-0.067
	l-0.142-0.145l-0.117-0.17l-0.063-0.141l0.01-0.02l0.01-0.015l0.02-0.009H1422.907z M1418.144,314.797l0.068-0.056l0.076-0.264
	l0.053-0.057l0.134,0.019l0.095,0.038l0.048,0.074l-0.006,0.125l-0.035-0.003l-0.101-0.033l-0.116,0.063l-0.102,0.096l-0.058,0.069
	l0.032,0.04l0.102-0.064l0.071-0.076l0.04-0.021l0.01,0.096l-0.049,0.046l-0.287,0.14l-0.166,0.107l-0.1,0.046l-0.09,0.014
	l-0.118,0.007l-0.086,0.035l-0.152,0.09l-0.033-0.033l0.027-0.008l0.018-0.015l0.03-0.037l0.374-0.2l0.259-0.208L1418.144,314.797z
	 M1417.021,313.084l0.046,0.046l-0.047,0.066l-0.205,0.099l-0.084,0.13l-0.235,0.203l-0.032-0.003l0.017-0.021l0.02-0.075
	l0.168-0.193l0.063-0.054l0.183-0.143L1417.021,313.084z M1414.957,311.974l0.013,0.07l-0.024,0.027l-0.069,0.035l-0.046,0.089
	l-0.144,0.614l-0.116,0.22l-0.004-0.074l0.08-0.155l0.035-0.126l0.024-0.55l0.04-0.1l0.031-0.106l0.031-0.039l0.071-0.01
	l0.042,0.034L1414.957,311.974z M1413.338,325.028l0.064-0.054l-0.038,0.032l0.415-0.306l0.091-0.007l0.566,0.063l0.514,0.247
	l0.293,0.097l0.146-0.071l0.112,0.048l0.066,0.006l0.058-0.013l0.095-0.005l-0.051,0.075l-0.026,0.017l-0.052,0.093l-0.239,0.038
	l-0.455,0.016l-0.406,0.084l-0.178,0.076l-0.127,0.126l-0.109,0.174l-0.071,0.054l-0.213,0.014l-0.06,0.011l-0.015-0.028l0.061-0.3
	l-0.002-0.095l-0.044-0.046l-0.024-0.014l-0.081-0.062l-0.018-0.021l-0.02-0.045l-0.051-0.022l-0.061-0.014l-0.051-0.022
	l-0.049-0.04l-0.04-0.052L1413.338,325.028z M1413.909,309.663l0.066-0.036l-0.015,0.026l-0.004,0.013l-0.006,0.009l-0.018,0.016
	v0.033l0.065,0.016l0.026,0.037l0.022,0.037l0.105,0.043l0.028,0.045l0.034,0.105l0.064,0.072l0.161,0.113l0.062,0.069l-0.265,0.043
	l-0.097-0.034l-0.049-0.199l-0.077-0.148l-0.031-0.032l-0.054-0.008l-0.067-0.019l-0.062-0.028l-0.038-0.04L1413.909,309.663z
	 M1413.51,310.849l0.16,0.035l0.268,0.125l0.001-0.035l-0.071-0.039l0.075-0.097l0.051-0.049l0.061-0.035l0.056,0.238l0.044,0.099
	l0.071,0.069l-0.001,0.035l-0.097-0.008l-0.074,0.016l-0.063,0.022l-0.059,0.011l-0.097-0.021l-0.112-0.083l-0.081-0.021
	l-0.001,0.035l0.075,0.006l-0.126,0.031l-0.077-0.049l-0.047-0.091l-0.034-0.103L1413.51,310.849z M1413.689,301.248l0.078,0.031
	l-0.01,0.097l-0.055,0.044l-0.084,0.016l-0.076-0.021l-0.036-0.065l0.077-0.073L1413.689,301.248z M1413.118,310.941l0.058-0.007
	l0.06-0.017h0.05l0.03,0.04l-0.019,0.024l-0.052,0.022l-0.109,0.034l-0.002,0.033l0.067-0.008l0.098-0.036l0.07-0.003l0.055,0.032
	l-0.02,0.062l-0.053,0.064l-0.044,0.036l-0.016,0.005l-0.085,0.041l-0.006,0.01l-0.047-0.014l-0.042-0.048l-0.038-0.013
	l-0.109-0.027l-0.05,0.011l-0.043,0.064l-0.032-0.002l-0.014-0.053l-0.007-0.063l0.007-0.048l0.038-0.005l0.084-0.104l0.045-0.021
	l0.014-0.02l0.011-0.021l0.01-0.011h0.04l0.021,0.014l0.013,0.019L1413.118,310.941z M1413.604,311.259l0.108-0.04l0.033,0.002
	l-0.023,0.076l-0.03,0.063l-0.016,0.057l0.029,0.064l0.016-0.026l0.001-0.007l-0.009-0.007l-0.006-0.025l0.077-0.067l0.111-0.044
	l0.1,0.013l0.039,0.093l-0.054,0.109l-0.122,0.108l-0.147,0.089l-0.126,0.046l-0.085,0.01l-0.063-0.003l-0.144-0.032l-0.004,0.006
	l-0.037,0.009l-0.086,0.008l-0.016-0.018l-0.013-0.081l-0.02-0.033l-0.132-0.046l-0.123,0.023l-0.223,0.11l0.002-0.109l0.019-0.043
	l0.046-0.039l0.079-0.037l0.032-0.024l0.045-0.126l0.065-0.055l0.083-0.021l0.076,0.006l0.033,0.036l0.036,0.026l0.06,0.014
	l0.022-0.009l0.087-0.046l0.02-0.016l0.035-0.046l0.074-0.015l0.064,0.042l0.005,0.117l0.035,0.002l0.007-0.075L1413.604,311.259z
	 M1404.853,299.024l0.018-0.035l0.024-0.027l0.03-0.017l0.035-0.011l0.02,0.023l0.037,0.052l0.011,0.025l-0.034,0.023l-0.021,0.029
	l-0.002,0.035l0.019,0.041l0.012-0.013l-0.001-0.005l0.004-0.005l0.021-0.006l-0.012,0.091l-0.051,0.082l-0.066,0.064l-0.053,0.04
	l-0.035-0.002l0.011-0.03l0.015-0.066l0.012-0.032l-0.018,0.001l-0.055-0.005l0.039-0.082L1404.853,299.024z M1403.068,298.567
	l0.066,0.026l-0.029,0.074l-0.133,0.162l-0.042,0.025l-0.036,0.026l-0.018,0.055l-0.041,0.049l-0.069-0.042l-0.013-0.121l0.02-0.104
	l0.022-0.064l0.052-0.031l0.061-0.01l0.099-0.03L1403.068,298.567z M1362.708,304.842l0.063,0.008l0.008,0.016l-0.031,0.019
	l-0.017,0.026l0.005,0.035l-0.026,0.042l-0.083,0.028l-0.066-0.001l0.002-0.016l0.063-0.046l0.019-0.053l0.035-0.046
	L1362.708,304.842z M1362.444,306.48l0.048-0.042l0.002-0.026l-0.078-0.011l-0.014-0.045l0.024-0.055l0.042-0.039l0.033,0.002
	l0.048,0.018l0.038-0.048l0.02-0.066l-0.003-0.04l0.001-0.03l0.032-0.013l0.026-0.017l0.024-0.021l0.02-0.028l-0.026,0.087
	l-0.014,0.027l0.034,0.002l0.017-0.02l0.013-0.011l0.034-0.022l-0.012,0.049l-0.032,0.028l-0.087,0.031l0.04,0.019l0.033,0.001
	l0.03-0.013l0.023-0.028l0.031,0.003l0.019,0.058l-0.002,0.041l-0.021,0.036l-0.037,0.04l0.101-0.014l0.083-0.124l0.083-0.019
	l-0.002,0.032l-0.032-0.003l-0.001,0.026l0.08,0.027l0.079,0.044l-0.102-0.009l0.01,0.033l0.008,0.012l0.015,0.019l-0.035-0.003
	l0.034,0.03l-0.026,0.017l-0.011,0.012l-0.029-0.003l0.005-0.089l-0.031-0.002l-0.012,0.017l-0.005,0.003h-0.005l-0.016,0.009
	l-0.001,0.027l0.035,0.002l-0.002,0.032l-0.022,0.012l-0.026,0.025l-0.021,0.014l-0.002,0.031l0.052-0.015l0.017-0.011l0.031,0.003
	l-0.064,0.08l-0.145,0.085l-0.06,0.048l-0.086,0.116l-0.068,0.042l-0.084-0.02l-0.031-0.103l-0.018-0.03l-0.03-0.019l-0.034-0.002
	l-0.035-0.009l-0.027-0.042l0.032,0.035l0.065-0.053L1362.444,306.48z M1362.35,304.978l0.012-0.021l-0.004-0.019l-0.005-0.044
	l0.007-0.069l0.017-0.042l0.028-0.01l0.019,0.011l0.013,0.014l0.011,0.001h0.01l0.011,0.01l0.023,0.059l0.003,0.029l-0.007,0.027
	l-0.024,0.027l-0.062,0.041l0.009,0.014l-0.009,0.021l-0.029,0.01l-0.023-0.007l-0.009-0.023L1362.35,304.978z M1362.28,307.125
	l0.065-0.018l0.215-0.136l0.119-0.011l0.028,0.058l-0.02,0.072l-0.022,0.035l-0.077,0.015l-0.19,0.069l-0.108,0.004l0.04,0.026
	l0.04,0.01l0.041-0.005l0.041-0.017l-0.003,0.031l-0.037,0.052l-0.017,0.063l-0.032,0.054l-0.085,0.014l-0.13-0.044l-0.117-0.061
	l0.081-0.16l0.062-0.043L1362.28,307.125z M1362.719,304.448v0.057l-0.16-0.081l-0.074-0.014l-0.055,0.043l-0.029-0.002v-0.087
	l-0.014-0.062l-0.037-0.047l-0.065-0.044l-0.207-0.119l-0.076-0.021l0.016-0.012l0.016-0.005l0.034-0.004l0.105,0.034l0.075,0.04
	l0.298,0.225l0.051,0.03l0.092,0.037L1362.719,304.448z M1361.957,303.052l0.029,0.001l-0.021,0.043l-0.012,0.012l-0.001,0.027
	l0.093-0.016l0.069,0.036l0.051,0.066l0.034,0.078l-0.151-0.091l-0.053-0.01l-0.029,0.02l-0.027,0.041l-0.044,0.021l-0.077-0.037
	l0.02-0.053L1361.957,303.052z M1361.979,302.907l0.003,0.041l-0.082-0.001l-0.087-0.045l-0.047-0.073l0.014-0.059l0.062,0.02
	l0.035,0.038L1361.979,302.907z M1361.681,304.133l0.096,0.007l-0.065-0.063l-0.015-0.026l0.018-0.024l0.061,0.021l0.161,0.078
	l0.161,0.056l0.065,0.033l0.057,0.048l0.032,0.063l0.014,0.07l0.006,0.104l0.04,0.194l0.008,0.073l-0.028-0.002l-0.05-0.128
	l-0.063-0.12l-0.073-0.103l-0.08-0.08l-0.053,0.007l-0.071-0.02l-0.13-0.063l0.013-0.018l0.022-0.043l-0.042-0.016L1361.681,304.133
	z M1361.843,303.904l0.114,0.052l-0.018,0.084l-0.016-0.046l-0.028-0.008l-0.042,0.008l-0.055,0.004l-0.045-0.018l-0.058-0.064
	l-0.052-0.018l-0.104-0.014l-0.039-0.011l-0.033-0.017l-0.021-0.018l-0.098-0.106l-0.019-0.031l0.007-0.016l0.032,0.003l0.33,0.177
	L1361.843,303.904z M1360.926,304.092l0.022-0.014l0.001-0.027l-0.018-0.03l-0.035-0.149l-0.029-0.099l0.01-0.011l0.055,0.023
	l0.055,0.051l0.092,0.146l0.068,0.048l-0.002,0.035l-0.018,0.061l0.09,0.092l0.195,0.157l0.024,0.048l0.035,0.105l0.028,0.056
	l0.119,0.154l-0.059,0.062l-0.103-0.036l-0.112-0.071l-0.09-0.042l-0.053-0.012l-0.129-0.047l-0.141-0.032l0.002-0.028l0.039-0.029
	l-0.002-0.012l-0.039-0.007l-0.024-0.023l-0.008-0.039l-0.033,0.016l-0.07-0.001l-0.119-0.016l-0.056-0.016l-0.028-0.013
	l-0.02-0.017l-0.006-0.017v-0.016l0.005-0.017l0.01-0.018l0.039-0.042l0.131-0.087l0.023-0.027l0.007-0.028l0.014-0.021l0.041-0.006
	l0.037,0.002l0.028-0.002L1360.926,304.092z M1360.317,302.862l0.163,0.425l-0.011-0.013l-0.06-0.053l-0.142-0.255l-0.024-0.071
	l0.013-0.055l0.011-0.009l0.019-0.009l0.019-0.003l0.008,0.01L1360.317,302.862z M1360.121,302.051l0.102,0.171l0.023,0.066
	l-0.04,0.031l-0.001,0.026l0.017,0.033l0.09,0.294l0.006,0.055l-0.048-0.013l-0.052-0.023l0.047-0.019l0.021-0.005l-0.037-0.021
	l-0.026-0.026l-0.018-0.034l-0.009,0.086l0.018,0.108l-0.027-0.002l-0.039-0.143l-0.017-0.037l-0.038-0.549L1360.121,302.051z
	 M1350.881,312.213l0.005-0.039l-0.009-0.033l-0.004-0.033l0.028-0.045l0.026-0.017l0.105-0.044l0,0l0,0l0.186-0.068l0.055-0.034
	l0.135-0.167l0.021-0.016l0.037-0.025l0.091-0.019l0.169,0.014l0.022,0.002l0.087-0.01l0.076-0.042l0.028-0.058l0.032-0.293
	l0.044-0.114l0.005-0.105l0.03-0.041l0.089-0.071l0.027-0.047l0.019-0.046l0.026-0.045l0.051-0.042l0,0l0.001-0.001l0,0l0.091-0.047
	l0.285-0.209l0.063-0.07l-0.013-0.036l-0.032-0.022l-0.035-0.019l-0.023-0.026l-0.004-0.044l0.025-0.069l0.007-0.039l-0.007-0.134
	l-0.018-0.07l-0.031-0.056l-0.136-0.08l-0.02-0.04l-0.007-0.328l0.043-0.223l0.05-0.154l0.096-0.126l0.163-0.071l0.171-0.001
	l0.054-0.025l0.049-0.084l0.021-0.087l0.004-0.082l-0.007-0.081l-0.126-0.605l-0.032-0.069l-0.103-0.027l-0.024-0.042l0.021-0.055
	l0.033-0.063l0.064-0.203l0.042-0.059l0.069-0.036l0.074-0.024l0.059-0.042l0.02-0.091l-0.016-0.032l-0.06-0.038l-0.011-0.038
	l0.013-0.043l0.029-0.026l0.063-0.04l0.107-0.115l0.123-0.058l0.012,0.004l0.006-0.061l-0.005-0.098l0.015-0.088l0.061-0.032
	l0.055,0.035l0.073,0.144l0.043,0.053l0.079,0.036l0.143,0.029l0.08,0.044l0.139,0.102l0.067,0.036l0.232,0.094l0.044,0.054
	l-0.004,0.091l-0.056,0.063l-0.081,0.038l-0.062,0.044l0.006,0.083l0.055,0.05l0.093,0.043l0.463,0.135l0.037,0.022l0.065,0.052
	l0.051,0.019l0.047,0.004l0.113-0.016l0.028-0.004l0.17,0.006l0.072-0.016l0.063-0.051l0.039-0.089l0.018-0.166l0.065-0.064
	l0.06-0.019l0.343-0.069l0.046,0.014l0.033,0.04l0.064,0.056l0.068-0.005l0.052-0.022l0.048-0.027l0.055-0.018l0.034,0.002
	l0.074,0.02l0.037,0.001l0.024-0.008l0.048-0.033l0.02-0.007l0.123,0.007l0.105,0.03l0.213,0.101l0.039,0.004l0.044-0.003
	l0.04-0.011l0.029-0.021l0.007-0.066l-0.045-0.066l-0.15-0.15l-0.005-0.027l0.024-0.056l0.02-0.022l0.05-0.029l0.021-0.019
	l0.052-0.082l0.016-0.073l0.005-0.173l0.031-0.1l0.053-0.046l0.065-0.031l0.075-0.051l0.055-0.086l-0.011-0.074l-0.038-0.07
	l-0.026-0.076l0.006-0.086l0.04-0.07l0.07-0.04l0.095,0.004l0.076,0.045l0.063,0.065l0.072,0.05l0.095-0.001l0.067-0.052
	l0.033-0.085l0.048-0.174l0.084-0.115l0.313-0.301l0.054-0.164l-0.039-0.137l-0.008-0.122l0.143-0.118l0.342-0.085l0.018-0.014
	l0.063-0.057l-0.083-0.153l-0.116-0.123l-0.028-0.07l0.028-0.081l0.074-0.041l0.162-0.004l0.029-0.052l0.033-0.071l0.015-0.042
	l0.001-0.036l-0.024-0.037l-0.072-0.04l-0.022-0.03l-0.007-0.076l0.032-0.174l0.005-0.085l-0.044-0.25l-0.028-0.079l-0.118-0.174
	l-0.022-0.067v-0.064l0.014-0.074l0.044-0.139l0.044-0.084l0.045-0.027l0.058-0.016l0.081-0.04l0.055-0.048l0.097-0.112l0.17-0.134
	l0.018-0.055l0.218-0.182l0.041,0.093l0.093,0.097l0.053,0.083l-0.075,0.051l-0.046-0.004l-0.029-0.022l-0.02-0.026l-0.016-0.012
	l-0.036,0.002l-0.024,0.008l-0.02,0.01l-0.015,0.004l-0.067,0.009l-0.044,0.035l-0.025,0.054l-0.015,0.061l0.034-0.005l0.02,0.006
	l0.039,0.035l-0.001,0.027l-0.078,0.019l0.042,0.031l0.126,0.043l0.02,0.052l-0.031,0.028l-0.065,0.007l-0.082-0.009v0.026
	l0.027,0.034l0.03,0.002l0.021-0.016l0.015-0.006l0.061-0.002l-0.001,0.032l-0.064,0.021l0.032,0.032l-0.093,0.009l-0.025,0.051
	l0.016,0.071l0.028,0.064l0.03,0.003l0.004-0.068l0.019-0.049l0.043-0.032l0.066-0.011l-0.028,0.055l0.03-0.007l0.066-0.008
	l0.03-0.008l-0.002,0.045l0.011,0.035l0.022,0.026l0.026,0.015l0.03-0.025l0.123,0.079l-0.006,0.077l0.002,0.037l0.015,0.019
	l0.039,0.027v0.057l-0.026,0.057l-0.038,0.03l-0.001,0.031l0.02,0.015l0.014,0.014l0.028,0.002l0.057-0.023l0.033,0.028l0.003,0.057
	l-0.033,0.062l0.027-0.008l0.01,0.001l0.009-0.001l0.016-0.019l0.035,0.003l0.018,0.036l0.02,0.014l0.024-0.009l0.033-0.033
	l0.004,0.028l0.023,0.063l0.009-0.017v-0.006l0.003,0l0.022-0.005l-0.011,0.019l-0.026,0.066l0.115,0.027l0.053,0.023l0.022,0.038
	l-0.009,0.071l-0.018,0.046l-0.031,0.033l-0.05,0.026l-0.055,0.014l-0.051,0.006l-0.038,0.019l-0.017,0.053l0.02,0.003l0.046-0.013
	l0.053-0.008l0.037,0.019l0.034,0.002l0.029-0.049l0.012,0.046l-0.003,0.094l-0.018,0.084l-0.001,0.01l-0.012,0.04l-0.028,0.043
	l-0.043,0.017l-0.012,0.024l-0.045,0.147l0.063,0.031l0.031-0.026l0.073-0.109l0.028,0.002l0.033,0.085l-0.011,0.135l0.028,0.104
	l0.031,0.003l0.037-0.023l0.025,0.012l0.023,0.028l0.04,0.021l0.166,0.021l0.053,0.023l0.029-0.031l0.021-0.035l0.005-0.038
	l-0.016-0.038l0.207,0.042l0.107,0.037l0.062,0.068l0.043-0.021l0.025-0.003l0.016,0.018l0.008,0.04l0.07-0.011l0.068-0.004
	l0.058-0.012l0.032-0.039l0.029,0.002l0.055,0.074l0.021,0.044l0.016,0.061l-0.002,0.097l-0.001,0.079l0.021,0.056l-0.023,0.053
	l0.001,0.09l0.018,0.092l0.024,0.056l0.012-0.021l0.009-0.013l0.009-0.018l0.005-0.031l0.032,0.003l0.015,0.07l0.1,0.1l0.07-0.01
	l0.001,0.064l0.013,0.048l0.003,0.042l-0.027,0.048l0.032,0.002l-0.067,0.061l-0.042,0.204l-0.037,0.077l-0.029-0.002l-0.159-0.137
	l-0.143-0.24l-0.032-0.002l0.001,0.056l0.009,0.057l0.017,0.051l0.024,0.043l0.029,0.021l0.032,0.009l0.026,0.015l0.009,0.038
	l-0.016,0.016l-0.033-0.009l-0.034-0.019l-0.018-0.011l-0.013,0.018l-0.003,0.001l-0.014,0.008l0.075,0.04l0.033,0.041l-0.021,0.022
	l-0.094-0.017v0.029l0.05,0.002l0.044,0.007l0.035,0.013l0.027,0.02l-0.066-0.009l-0.051,0.006l-0.035,0.025l-0.011,0.052
	l0.029,0.002l0.015-0.013l0.032-0.022l0.022-0.017v0.013l-0.004,0.044l0.067-0.052l-0.004,0.06l-0.022,0.04l-0.078,0.068
	l0.063,0.016l0.099-0.1l0.066-0.016l0.065,0.043l0.027,0.069l0.002,0.081l-0.01,0.077l-0.02,0.07l-0.026,0.062l-0.031,0.051
	l-0.033,0.041l-0.103,0.095l-0.021,0.046l0.051,0.03l-0.027,0.015l-0.008,0.014l0.003,0.027l0.154-0.111l0.046-0.049l0.052-0.085
	l0.017-0.022l0.032-0.016l0.038-0.005l0.037-0.016l0.024-0.043l0.032,0.002l-0.009,0.11l-0.021,0.064l-0.051,0.04l-0.092,0.034
	l-0.003,0.031l0.043-0.001l0.035-0.01l0.029-0.013l0.023-0.022l0.124,0.095l-0.033,0.032l-0.098,0.025l-0.069,0.075l-0.023-0.017
	l-0.006,0.004l-0.034,0.007l-0.001,0.029l0.021,0.088l-0.053,0.092l-0.072,0.04l-0.031-0.073l-0.001-0.076l-0.014-0.044
	l-0.029-0.019l-0.046,0.001l-0.024,0.026l-0.023,0.042l-0.031,0.013l-0.051-0.062l-0.031,0.024l-0.024,0.031l-0.015,0.036
	l-0.003,0.045l0.017-0.008l0.035-0.007l0.016-0.008l-0.014,0.097l-0.046,0.065l-0.029,0.063l0.041,0.09l0.03,0.003l0.003-0.032
	l0.034,0.003l-0.076,0.153l-0.025,0.089l0.018,0.072l0.012-0.035l0.004-0.008l0.061-0.124l0.029,0.003l-0.013,0.027l-0.022,0.085
	l0.028,0.002l0.045-0.038l0.05-0.012l0.052-0.004l0.049-0.018l0.03-0.042l0.012-0.106l0.048-0.09l0.002-0.052l0.02-0.037
	l0.083-0.009l0.06,0.015l0.059,0.044l0.055,0.017l-0.001,0.026l-0.101,0.079l0.093,0.083l0.058-0.028l0.048-0.078l0.062-0.07
	l0.11-0.027l0.099,0.025l0.04,0.057l-0.063,0.075l0.084-0.021l0.098-0.052l0.091-0.066l0.061-0.066l-0.034-0.029l0.076-0.037
	l0.251-0.052l-0.073,0.082l-0.043,0.035l-0.033,0.013l-0.026,0.021l0.018,0.05l0.03,0.048l0.02,0.016l0.004,0.038l0.011,0.031
	l0.01,0.038l-0.002,0.055l-0.042,0.118v0.056l0.032,0.003l0.052-0.103l0.049-0.061l0.056,0.003l0.071,0.093l0.029,0.059l0.022,0.069
	l0.011,0.072l-0.013,0.07l-0.028,0.034l-0.095,0.053l-0.041,0.045l0.072-0.019l0.007-0.004l0.039-0.021l0.079-0.058l0.019-0.021
	v-0.02l0.012-0.013l0.049,0l0.027,0.006l0.025,0.013l0.019,0.017l0.023,0.073l0.085,0.103l0.099,0.282l0.048-0.071l-0.001-0.062
	l-0.062-0.131l0.028,0.002l0.072,0.059l0.067-0.025l0.071-0.036l0.083,0.027l0.004,0.027l0.038,0.125l0.009,0.014l0.015,0.025
	l0.033,0.034l0.042,0.031l0.035,0.023l0.002-0.026l-0.039-0.061l-0.035-0.104l-0.009-0.098l0.048-0.038l0.202,0.033l0.106,0.036
	l0.059,0.052l-0.046,0.018l-0.021,0.005l0.017,0.001l0.012,0.005l0.003,0.011l-0.002,0.015l0.083-0.07l0.041-0.005l0.06-0.012
	l0.073-0.001l0.09-0.005l0.13-0.007l0.051,0.051l-0.109,0.085l-0.061,0.036l-0.051,0.053l-0.023,0.063l0.021,0.077l-0.002,0.027
	l0.037-0.019l0.015-0.007l0.016-0.033l-0.017-0.034l-0.045-0.021l0.084-0.095l0.023-0.016l0.042-0.01l0.081-0.038l0.068-0.02
	l0.068,0.018l0.03,0.069l-0.009,0.055l0.014,0.052l0.02,0.107l0.002,0.137l0.012,0.056l0.02,0.282l-0.035-0.003l0.002-0.028
	l-0.028-0.003l0.001,0.031l0.006,0.021l0.017,0.042l0.035,0.003l0.034-0.029l0.024,0.032l0.032,0.093l0.033,0.033l0.122,0.067
	l0.186,0.167l0.061,0.099l0.151,0.118l0.057,0.105l0.12,0.115l0.036,0.068l-0.103-0.049l-0.023-0.021l-0.035,0.029l0.063,0.037
	l0.138,0.064l0.051,0.039l0.035,0.069l0.035,0.161l0.042,0.078l-0.071,0.018l-0.074-0.021l-0.081-0.034l-0.093-0.025l-0.001,0.032
	l0.074,0.021l0.2,0.083l0.041,0.027l-0.021,0.062l-0.044,0.065l-0.056,0.054l-0.052,0.026l-0.003,0.03l0.062,0.029l0.056,0.054
	l0.169,0.206l0.044,0.041l0.069,0.033l0.045,0.004l0.075-0.024l0.045,0.003l0.124,0.103l0.068,0.021l0.132,0.012l0.055,0.021
	l-0.019,0.011l-0.049,0.041l0.047,0.032l0.042,0.066l0.061,0.124l0.036-0.023l-0.024-0.06l-0.007-0.125l-0.022-0.061l0.061,0.03
	l0.104,0.088l0.071,0.023l0.03,0.03l-0.007,0.061l0.003,0.062l0.059,0.033l0.077,0.028l0.151,0.111l0.073,0.04l0.074,0.015
	l0.13,0.013l0.052,0.026l-0.105-0.003l-0.018,0.057l0.042,0.061l0.075,0.003l-0.031-0.021l-0.038-0.035l-0.027-0.014l0.044-0.017
	l0.048-0.008l0.051,0.002l0.021-0.002l0.004-0.019l0.176,0.016l0.355,0.081l0.178-0.002l-0.038,0.057l0.126,0.072l-0.032,0.056
	l0.029,0.002l0.045-0.044l0.054-0.014l0.134-0.008l0.163-0.065l0.069-0.005l-0.07,0.084l0.047-0.006l0.055-0.014l-0.011-0.033
	l0.015-0.021l0.091,0.017l0.026,0.014l0.01,0.005l0.021,0.036v0.039l0.008,0.034l0.136,0.05v0.056l-0.013,0.059l0.024,0.014
	l0.289,0.08l0.172,0.022l0.122-0.02l0.05,0.115l0.026,0.045l0.043,0.032l-0.046,0.115l0.109,0.117l0.169,0.1l0.139,0.06l0.063,0.009
	l0.044-0.019l0.041-0.007l0.064,0.001l0.153-0.017l0.061-0.017l0.085-0.051l0.089-0.086l0.074-0.101l0.035-0.094l0.028,0.003
	l0.065,0.066l-0.043,0.014l-0.033,0.022l-0.021,0.033l-0.007,0.042l0.112-0.036l0.022-0.011l0.012-0.028l-0.004-0.076l0.016-0.031
	l0.108-0.081l0.075-0.041l0.069-0.019l0.193,0.083l0.031-0.016l0.041-0.036l0.092,0.002l0.098,0.021l0.063,0.024l-0.037-0.088
	l-0.112-0.009l-0.29-0.015l-0.016,0.009l0.061-0.078l0.137-0.014l0.139,0.008l0.064-0.013l0.055-0.024l0.345-0.073l0.408-0.196
	l0.188-0.141l0.019-0.148l0.089-0.004l0.096-0.021l0.088-0.031l0.063-0.037l0.084-0.094l0.035-0.03l0.229-0.145l0.213-0.212
	l0.072-0.046l0.062-0.003l0.016,0.083l0.036-0.039l-0.012-0.076l-0.029-0.098l-0.012-0.107l0.03-0.065l0.198-0.213l0.02-0.029
	l0.04-0.091l0.028-0.036l0.172-0.108l0.123-0.137l0.062-0.055l0.089-0.028l-0.002,0.032l-0.03,0.041l0.01,0.057l0.035,0.054
	l0.045,0.031l0.033-0.055l-0.015-0.02l-0.006-0.017l-0.006-0.058l0.057,0.031l0.046-0.004l0.096-0.037l-0.06-0.006l-0.055-0.017
	l-0.048-0.025l-0.031-0.028l-0.022-0.049l0.012-0.027l0.019-0.029v-0.048l-0.025-0.039l-0.102-0.093l0.025-0.052l0.049,0.01
	l0.088,0.057l0.104-0.015l0.102-0.041l0.473-0.31l0.037-0.025l0.029,0.003l0.057,0.096l0.069,0.094l0.058,0.049l0.059,0.041
	l0.039,0.052l-0.006,0.084l0.037,0.002l0.013-0.047l0.031-0.015l0.044,0.012l0.047,0.033l0.09-0.032l0.14-0.027l0.248-0.02
	l0.056-0.018l0.095-0.081l0.035-0.009l0.037,0.042l-0.006,0.047l-0.067,0.126l-0.115,0.048l-0.027,0.04l-0.013,0.066l-0.097,0.151
	l-0.046,0.296l-0.034,0.062l0.027,0.033l0.053-0.059l0.046-0.099l0.036-0.104l0.024-0.147l0.069-0.208l0.035,0.003v0.03
	l-0.043,0.084l0.056,0.091l0.098,0.024l0.083-0.122l-0.06,0.02l-0.021,0.01l-0.021,0.022l-0.042-0.103l0.027-0.142l0.065-0.137
	l0.07-0.091l0.064-0.041l0.208-0.09l0.148-0.105l0.391-0.183l0.157-0.036l0.08-0.032l0.008-0.015l0.077-0.081l0.019-0.003
	l0.014-0.018l0.088-0.048l0.471-0.35l0.664-0.754l0.221-0.253l0.376-0.432l0.142-0.058l0.198,0.042l0.044-0.046l0.375-0.21
	l0.042-0.06l0.034-0.011l0.023,0.015l0.015,0.033l0.021,0.033l0.041,0.018l0.02,0.028l0.086,0.166l0.033,0.003l0.006-0.113
	l-0.008-0.054l-0.022-0.051l-0.021-0.007l-0.034,0.004h-0.029l-0.06-0.085l-0.012-0.041l0.033-0.028l0.045-0.022l0.023-0.021
	l0.039-0.063l0.541-0.533l0.12-0.138l0.31-0.359l0.473-0.44l0.048-0.133l0.035,0.002l-0.06,0.17l-0.325,0.521l0.02,0.137
	l0.215-0.324l0.033-0.106l0.021-0.047l0.069-0.035l0.014-0.046l-0.006-0.051l-0.024-0.038l0.052-0.028l0.037-0.041l0.054-0.104
	l0.036,0.003l-0.028,0.046l-0.011,0.013l-0.001,0.031l0.017,0.01l0.016,0.008l0.037,0.015l0.005-0.066l-0.005-0.061l-0.025-0.12
	l0.03,0.029l0.032,0.023l0.037,0.015l0.047,0.007l-0.005-0.017l0.047-0.029l0.055-0.02l0.023,0.011l0.001-0.043l-0.02-0.024
	l-0.03-0.019l-0.032-0.024l-0.024-0.048l0.028-0.025l0.049-0.014l0.036-0.017l0.128-0.161l0.046-0.038l0.177-0.089l0.062-0.077
	l0.141-0.085l0.04-0.084l0.015,0.011l0.012,0.025l0.001,0.028l-0.015,0.028l-0.022,0.027l-0.023,0.031l-0.01,0.045l0.038,0.012
	l0.277-0.036l0.047-0.019l0.043-0.051l0.068-0.102l0.001-0.031l-0.028-0.042l0.011-0.039l0.037-0.026l0.052-0.01l-0.028-0.043
	l0.03-0.021l-0.127-0.173l-0.031-0.021l-0.154,0.019l-0.049,0.001l-0.015-0.07l0.164-0.189l0.031-0.095l-0.028-0.041l-0.044-0.023
	l-0.04-0.029l-0.016-0.054l0.031-0.002l0.169-0.031l0.086-0.031l0.257-0.128l-0.105,0.12l-0.026,0.061l0.071,0.031l0.058-0.031
	l0.036-0.077l0.013-0.083l-0.015-0.048l0.002-0.031l0.041-0.078l0.031-0.109l0.015-0.121l-0.006-0.115l0.024,0.021l0.062,0.054
	l0.13,0.164l0.107,0.063l0.143,0.007l0.079-0.071l0.063-0.094l0.097-0.063l-0.07-0.074l-0.022-0.037l0.011-0.032l0.17-0.025
	l0.015-0.007l0.073,0.029l0.068,0.05l0.055,0.061l0.034,0.058l-0.024-0.085l-0.045-0.085l-0.018-0.069l0.063-0.036l-0.252,0.026
	l-0.068,0.028h-0.073l-0.088-0.037l-0.07-0.002l-0.023,0.099l-0.037-0.003l-0.025-0.037l-0.03-0.028l-0.034-0.02l-0.039-0.016
	l0.017-0.031l0.01-0.006l-0.001-0.003l-0.023-0.02l0.001-0.031l0.044-0.036l0.044-0.049l0.037-0.062l0.016-0.074l-0.023-0.005
	l-0.044-0.031l-0.031-0.033l0.02-0.013l0.019-0.008l0.065-0.048l0.044,0.054l0.029,0.05l0.034,0.042l0.058,0.018l-0.037,0.04
	l0.021,0.115l-0.028,0.06l0.177,0.044l0.193-0.018l0.178-0.049l0.027-0.012l0.103-0.044l0.071-0.049l0.203-0.222l0.038-0.068
	l0.05-0.059l0.087-0.03l0.008,0.049l0.022,0.037l0.023,0.011l0.012-0.032l-0.016-0.027l-0.033-0.034l-0.023-0.034l0.009-0.032
	l0.067-0.018l0.303-0.021l0.293-0.12l1.092-0.661l0.08-0.12l-0.015-0.167l0.14,0.049l0.031,0.032l-0.07,0.047l0.016,0.053l0.03,0.07
	l0.057,0.042l0.095-0.03l0.088-0.101l-0.043-0.074l-0.207-0.114l0.002-0.027l0.101-0.019l0.122,0.002l0.039-0.023l0.1-0.101
	l0.033-0.022l0.021-0.02l0.056-0.078l0.014-0.019l0.036-0.03l0.058-0.003l0.058,0.01l0.059,0.002l0.06-0.024l0.024,0.018
	l0.015,0.007l0.029,0.011l0.001-0.031l-0.027-0.008l-0.072-0.031l0.006-0.031l0.003-0.037l-0.005-0.085l-0.033-0.002l-0.022,0.111
	l-0.088,0.029l-0.103-0.038l-0.06-0.088l-0.033-0.002l-0.016,0.025l-0.016,0.013l-0.042,0.021l0.02-0.034l0.01-0.03l-0.006-0.027
	l-0.02-0.031l0.075-0.019l0.195-0.016l0.041-0.027l0.02-0.034l0.095-0.103l0.039-0.021l0.183,0.019l0.064-0.021l0.115-0.108
	l0.035-0.052l0.014-0.035l0.008-0.06l0.014-0.027l0.064,0.04l0.047,0.051l0.022,0.062l-0.006,0.073l0.037,0.002l-0.004-0.045
	l0.007-0.028l0.023-0.013l0.044-0.003l-0.039,0.062l0.055,0.023l0.146,0.023l0.071,0.025l-0.035,0.071l0.004,0.061l0.034,0.028
	l0.061-0.03l0.001-0.028l-0.017-0.037l0.014-0.036l0.041-0.021l0.065,0.003l0.001-0.024l-0.041-0.005l-0.029-0.008l-0.061-0.025
	l0.439-0.015l0.391-0.082l0.705-0.242l0.009,0.092l0.03-0.02l0.046-0.098l0.044-0.017l0.149-0.083l0.031-0.027l0.242-0.155
	l0.071-0.02l0.239-0.026l-0.021,0.037l-0.032,0.025l-0.04,0.017h0.064l0.33-0.001l0.052-0.021l0.034-0.003l0.02,0.01l-0.003,0.043
	l0.051,0.029l0.023,0.031l0.032,0.018l0.065-0.024l-0.097-0.035l-0.04-0.007l0.451-0.125l0.118-0.073l0.069-0.016l0.271,0.021
	l0.069-0.005l0.083-0.019l0.143-0.052l0.173-0.134l0.068-0.038l0.068-0.014l0.209-0.017l0.076,0.05l0.174-0.055l0.27-0.138
	l-0.013,0.084l-0.049,0.032l-0.062,0.018l-0.056,0.043l-0.025,0.104l0.077,0.013l0.104-0.047l0.088-0.135l0.079-0.042l0.36-0.103
	l0.563-0.03l0.071-0.036l0.108-0.115l0.048-0.023l0.394,0.054l0.194-0.004l0.018,0.039l-0.004,0.118l-0.053,0.008l-0.292-0.043
	l-0.25,0.047l-0.086,0.032l0.055,0.061l0.05,0.016l0.189,0.029l0.093,0.053l0.035,0.008l-0.022-0.055l0.117-0.026l0.041-0.028
	l0.014-0.059l0.059,0.055l0.045,0.06l0.063,0.045l0.107,0.014l0.114-0.048l0.005-0.001l0.037-0.007l0.139,0.008l0.101-0.005
	l0.107-0.022l0.088-0.039l0.036-0.055l0.023-0.002l0.046-0.052l0.039-0.059l-0.001-0.021l0.048-0.013l0.032,0.003l0.019,0.025
	l0.003,0.053l0.034,0.002l0.021-0.02l0.016-0.006l0.066-0.002l-0.044,0.036l-0.194,0.09l-0.125,0.041l-0.155,0.114l-0.077,0.03
	l-0.001,0.034l0.081,0.009l0.037-0.023l0.021-0.038l0.038-0.035l0.055-0.02l0.101-0.013l0.053-0.015l0.06-0.057l0.026-0.04
	l0.03,0.006l0.022,0.02l-0.004,0.015l0.056-0.027l0.127-0.089l0.001-0.034l-0.028-0.02l-0.013-0.018l-0.026-0.059l0.05,0.019
	l0.058,0.042l0.043,0.011l0.066-0.011l0.042-0.037l0.011-0.05l-0.028-0.053l0.052-0.021l0.066,0.043l0.058-0.013l0.093,0.05
	l0.041,0.032l0.035,0.054l-0.055,0.034l-0.024,0.099l-0.048,0.017l-0.034-0.024l-0.02-0.049l-0.03-0.046l-0.066-0.015l-0.035,0.025
	l-0.109,0.14l0.002,0.044l0.016,0.037l0.043,0.033l0.077,0.033l0.042-0.022l0.039,0.013l0.041,0.004l0.052-0.045l0.035,0.037
	l0.05,0.019l0.085,0.014l0.045-0.076l0.118-0.072l0.047-0.06l-0.051-0.053l-0.008-0.038l0.062-0.034l0.059-0.003l0.038,0.016
	l0.016,0.036l-0.005,0.052l0.032,0.002l0.022-0.022l0.03-0.01l0.036-0.001l0.05,0.007l-0.019,0.021l-0.031,0.051l-0.02,0.021
	l0.045,0.024l0.003,0.01l0.018,0.035l0.176-0.052l0.072-0.037l0.069-0.055l-0.159-0.002l-0.06-0.02l-0.024-0.052l-0.031-0.002
	l-0.039,0.018l-0.028-0.004l-0.002-0.021l0.032-0.026l0.044-0.016l0.048-0.006l0.104,0.002l0.038,0.013l0.114,0.059l0.051,0.002
	l0.105-0.025l0.082,0.017l0.077,0.027l0.079,0.017l0.09-0.01l0.07-0.033l0.064-0.042l0.067-0.024l0.046,0.017l0.042-0.056
	l0.043-0.035l0.188-0.084l0.151-0.114l0.159-0.081l0.247-0.18l0.055-0.027l0.081-0.006l0.095,0.01l0.084,0.021l0.053,0.025
	l0.01,0.021l0.023,0.083l-0.002,0.024l-0.036,0.009l-0.022-0.025l-0.02-0.034l-0.021-0.019l-0.021-0.011l-0.021-0.017l-0.018,0.004
	l-0.012,0.048l0.068,0.101l0.025,0.017l0.079,0.032l0.029,0.022l0.016,0.039l0.002,0.04l0.002,0.009l0.008,0.033l0.038,0.043
	l0.043-0.029l0.063-0.001l0.07,0.008l0.072,0.001l0.438-0.181l0.089-0.065l0.004-0.07l0.071-0.08l0.021-0.012l0.039,0.013
	l0.014,0.028l0.008,0.032l0.025,0.029l0.076,0.015l0.209-0.004l0.063,0.008l0.03,0.054l-0.059,0.044l-0.152,0.05l-0.025,0.017
	l-0.015,0.02l-0.025,0.017l-0.055,0.004l-0.011-0.015l-0.078-0.085l-0.031-0.002l-0.181,0.085l0.049,0.012l0.024,0.026l0.006,0.04
	l-0.012,0.052l0.046-0.016l0.043-0.004l0.044,0.009l0.045,0.021l-0.053,0.023l-0.037,0.03l-0.02,0.042l-0.002,0.055l-0.127-0.09
	l-0.026-0.012l-0.014-0.021l-0.018-0.044l-0.026-0.044l-0.047-0.022l-0.081,0.011l-0.118,0.074l-0.063,0.026l-0.155-0.008
	l-0.022,0.016l0.012,0.051l0.03,0.018l0.04,0.008l0.038,0.025l0.11,0.166l0.044,0.047l0.149,0.123l0.065,0.069l0.027,0.062
	l0.032,0.042l0.204,0.145l0.049,0.004l0.199-0.004l0.033,0.037h0.079l0.083-0.011l0.049,0.003l0.005-0.013v-0.011l0.007-0.006
	l0.023,0.003l0.001-0.034l-0.052-0.019l-0.061-0.011l-0.046-0.023l-0.015-0.052l-0.032-0.002v0.032l-0.039-0.002l0.032-0.076
	l0.068,0.014l0.084,0.047l0.076,0.031l0.094-0.018l0.066-0.054l0.167-0.217l0.043-0.021l0.104,0.052l0.051-0.001l0.043-0.017
	l0.018-0.024l0.029-0.067l0.063-0.079l0.072-0.039l0.053,0.055l0.035-0.033l0.034,0.037l-0.073,0.051l0.046,0.035l0.087,0.035
	l0.045,0.057l-0.027,0.068l-0.061,0.043l-0.13,0.054l-0.248,0.187l-0.1,0.136l0.019,0.133l0.031-0.021l0.055-0.021l0.024-0.015
	l-0.024,0.046l-0.013,0.016l-0.001,0.032l0.07-0.02l0.086-0.068l0.058-0.027l-0.016-0.091l0.081-0.042l0.124-0.012l0.112,0.003
	l0.043-0.01l0.054-0.03l0.047-0.035l0.043-0.057l0.047,0.001l0.026,0.03l-0.028,0.051v0.029l0.033,0.021l0.137,0.054l-0.052,0.101
	l-0.021,0.025l0.046-0.023l0.039-0.041l0.063-0.087l0.077,0.035l0.061-0.017l0.054-0.037l0.056-0.03l-0.039,0.121l0.011,0.048
	l0.059,0.021l-0.03-0.033l-0.004,0.001l0.037-0.062l0.042-0.021l0.067-0.003l0.035-0.007l0.018,0.003l0.021-0.006l0.048-0.032
	l0.06-0.02l0.046,0.022l0.055,0.057l0.044,0.008l0.215-0.006l0.091-0.026l0.277-0.117l0.056-0.039l0.103-0.127l0.032,0.002
	l0.091,0.021l0.017,0.001l0.07,0.084l0.085,0.007l0.077-0.019l0.058-0.043l0.028-0.061l0.04,0.002l0.03,0.078l-0.006,0.077
	l-0.039,0.063l-0.064,0.036l0.01,0.016l0.013,0.035l0.01,0.017l-0.156,0.03l-0.375-0.05l-0.178,0.043l0.001-0.035l-0.307,0.088
	l-0.222,0.032l-0.063,0.04l0.089,0.068l0.123-0.053l0.02-0.02l0.019-0.005l0.145,0.033l0.053-0.022l0.112-0.103l0.083-0.02
	l0.149,0.022l0.146,0.053l0.135,0.086l0.114,0.125l0.013,0.09l0.167,0.063l0.174-0.017l0.035-0.146l-0.048-0.026l-0.101-0.074
	l-0.083-0.076l0.007-0.033l0.074,0.024l0.064,0.035l0.07,0.01l0.09-0.051l0.112,0.013l0.021,0.002l0.259-0.169l0.109,0.057
	l-0.039,0.032l0.038,0.035l0.104,0.047l0.11,0.089l0.046,0.014l0.051,0.005l0.076,0.023l0.035,0.029l0.077,0.09l0.042,0.021
	l0.059,0.016l0.056,0.03l0.081,0.063l-0.001,0.032l-0.053,0.054l-0.006,0.067l0.006,0.079l-0.024,0.087l-0.067,0.049l-0.182,0.025
	l-0.036,0.019l0.026,0.111l0.064-0.003l0.067-0.05l0.033-0.031l0.071,0.013l0.069,0.022l0.076,0.007l0.087-0.023l0.001,0.099
	l-0.003,0.032l0.133-0.065l0.225,0.011l0.353,0.063l0.202-0.002l0.061,0.024l0.063,0.063l0.102,0.124l0.044,0.071l0.023,0.07
	l-0.008,0.085l-0.105,0.199l-0.019,0.074l-0.003,0.083l0.016,0.085l0.034,0.081l0.116,0.165l0.063,0.064l0.063,0.046l0.095,0.045
	l0.264,0.074l0.089,0.042l0.042,0.044l0.012,0.057l-0.002,0.079l-0.014,0.047l-0.054,0.097l-0.009,0.061l0.011,0.047l0.044,0.099
	l0.012,0.052l-0.004,0.178l0.016,0.029l0.069,0.062l0.045,0.136l0.073,0.086l0.093,0.071l0.083,0.047l0.212,0.06l0.058,0.049
	l0.016,0.12l0.014,0.038l0.088,0.174l0.01,0.05l0.002,0.08l0.018,0.036l0.067,0.033l0.239,0.077l0.052,0.027l0.01,0.095l0.037,0.048
	l0.164,0.084v0.03l-0.162,0.029l-0.047,0.123l0.111,0.593l0.047,0.138l0.084,0.063l0.051,0.029l0.124,0.12l0.071,0.031l0.064,0.02
	l0.146,0.077l0.215,0.052l0.383,0.202l-0.001,0.033l-0.034,0.048l-0.073,0.206l-0.016,0.079l0.004,0.102l0.014,0.076l0.123,0.287
	l0.177,0.211l0.038,0.069l0.061,0.181l0.173,0.323l0.014,0.104l0.04,0.114l0.097,0.173l0.017,0.03l0.041,0.051l0.134,0.135
	l0.057,0.029l0.065,0.046l0.057,0.096l0.143,0.316l0.022,0.087l0.024,0.217l0.062,0.193l-0.019,0.05l0.059,0.044l0.138,0.151
	l0.194,0.133l-0.004,0.084l-0.125,0.171l-0.023,0.124l-0.046-0.027l-0.016-0.04l-0.012-0.042l-0.031-0.03l-0.048-0.001l-0.048,0.02
	l-0.039,0.028l-0.016,0.023l-0.02,0.021l-0.11,0.086l0.005,0.022l-0.002,0.05l-0.008,0.053l-0.018,0.036l0.075,0.006l-0.001,0.03
	l-0.074,0.054l-0.053,0.092l-0.013,0.1l0.056,0.079l-0.001,0.03l-0.046-0.018l-0.029-0.005l-0.07,0.011l0.104,0.053l0.045,0.039
	l0.028,0.055l-0.101,0.02l-0.044-0.001l0.036,0.073l0.028,0.038l0.04,0.031v0.03l-0.084-0.021l-0.041-0.05l-0.02-0.049l-0.004-0.008
	l-0.029-0.049l-0.057-0.038l-0.053-0.011l-0.379-0.02l-0.034,0.011l-0.075,0.057l-0.055,0.017l0.014-0.015l0.025-0.05h-0.021
	l-0.112-0.001l-0.088,0.042l-0.145,0.127l0.076,0.027l0.061-0.044l0.052-0.063l0.047-0.03l0.132,0.052l0.069,0.006l0.033-0.056
	l0.04-0.046l0.085,0.019l0.131,0.065l0.039-0.012l0.028-0.031l0.033-0.023l0.046,0.009l0.008,0.032l-0.029,0.042l-0.055,0.052
	l-0.035-0.038l-0.077,0.06l-0.033-0.003l-0.045-0.027l-0.063-0.014l-0.147-0.009l-0.001,0.03l0.148,0.043l0.158,0.017l0.143-0.026
	l0.1-0.084l0.021,0.039l0.024,0.045l0.201,0.124l0.039,0.044l-0.027,0.027l-0.047-0.01l-0.056-0.023l-0.055-0.009l-0.056,0.017
	l-0.024,0.021l-0.023,0.024l-0.047,0.024l-0.104,0.018l-0.096-0.011l-0.179-0.038l-0.239,0.232l-0.041,0.04l0.035,0.069l0.048,0.096
	l0.024,0.098l-0.06,0.038l-0.058,0.021l-0.08,0.056l-0.036,0.034l-0.036,0.034l-0.034,0.061l0.008,0.021l0.002,0.004l0.054,0.099
	l0.022,0.031l0.059,0.027l0.035-0.03l0.026-0.046l0.03-0.022l0.052-0.006l0.148-0.042l0.061,0.021l0.029,0.027l0.021,0.031
	l0.031,0.031l0.085,0.035l0.043,0.014l0.063,0.02l0.093,0.044l0.037,0.063l0.057,0.157l-0.005,0.079l-0.096,0.038l-0.001,0.033
	l0.079-0.01l0.031-0.013l0.036-0.026l0.012,0.053l0.027,0.057l0.039,0.043l0.107,0.046l0.03,0.051l0.024,0.066l0.043,0.064
	l-0.089-0.01l-0.067,0.007l-0.055,0.02l-0.049,0.031l0.187,0.006l0.075-0.018l0.032-0.048l-0.017-0.087l-0.048-0.074l-0.067-0.06
	l-0.079-0.043l0.001-0.033l0.074-0.018l0.086-0.003l0.062-0.03v-0.094l-0.041-0.043l-0.141-0.087l-0.03-0.053l0.034-0.078
	l0.078-0.044l0.092-0.031l0.075-0.038l0.08-0.055l0.078-0.023l0.459,0.003l0.116,0.032l0.05,0.077l-0.013,0.093l-0.07,0.243
	l-0.012,0.507l-0.085,0.343l-0.006,0.181l-0.027,0.091l-0.05,0.071l-0.031,0.068l0.023,0.075l0.2-0.261l0.465-1.117l0.019-0.023
	l0.077-0.071l0.018-0.028l0.013-0.024l0.025-0.021l0.025-0.031l0.013-0.049l0.005-0.048l0.014-0.034l0.028-0.019l0.05-0.003
	l0.12,0.02l0.081,0.035l0.293,0.285l0.046,0.083l-0.023,0.079l-0.041-0.029l-0.049-0.009l-0.051,0.005l-0.045,0.017l-0.001,0.036
	l0.091,0.03l0.021,0.012l0.068,0.069l0.044,0.031l0.046,0.016l0.016-0.017l0.046-0.03l0.05-0.019l0.021,0.023l0.008,0.076
	l0.024,0.019l0.035,0.002l0.052,0.038l0.04,0.016l0.017,0.013l0.004,0.021l-0.013,0.179l-0.033,0.076l-0.057,0.064l-0.074,0.061
	l-0.061,0.067l-0.116,0.229l-0.128,0.129l-0.166,0.109l-0.712,0.34l-0.157,0.124l-0.071,0.183l0.032-0.024l0.015-0.024l0.01-0.024
	l0.13-0.133l0.072-0.049l0.204-0.023l0.112-0.04l0.655-0.392l0.111-0.1l0.204-0.354l0.222-0.236l0.167-0.258l0.022-0.074l0.05-0.043
	l0.106,0.024l0.113,0.062l0.063,0.072l-0.039-0.004l-0.039-0.034l-0.048-0.011l-0.051,0.007l-0.042,0.023l-0.001,0.029l0.188,0.039
	l0.119,0.106l0.045,0.133l-0.035,0.115l-0.104,0.104l-0.35,0.254l-0.102,0.11l-0.282,0.384l-1.394,1.083l-0.032,0.038l-0.028,0.041
	l-0.007,0.029l0.013,0.016l0.021,0.025l0.027-0.02l0.024-0.043l0.025-0.035l0.136-0.098l0.077-0.032l0.18-0.018l0.08-0.037
	l0.069-0.048l0.11-0.095l0.127-0.14l0.147-0.165l0.048-0.038l0.048-0.025l0.09-0.033l0.047-0.025l0.264-0.223l0.018-0.025
	l0.132-0.083l0.393-0.385l0.152-0.109l0.176-0.07l0.214-0.025l0.061-0.044l0.024-0.119l0.045-0.055l0.102-0.014l0.11,0.005
	l0.274,0.048l0.184,0.075l0.155,0.108l0.115,0.132l0.066,0.109l0.015,0.062l-0.028,0.053l-0.016,0.043l0.021,0.052l0.048,0.074
	l-0.01,0.199l-0.035,0.061l-0.204,0.214l-0.261,0.398l-0.957,0.814l-0.639,0.398l-0.191,0.164l-0.117,0.128l-0.053,0.164
	l-0.11,0.141l-0.018,0.09l0.156-0.079l0.345-0.276l0.931-0.745l0.093-0.021l0.096-0.01l0.11-0.035l0.832-0.431l0.077-0.024
	l0.085-0.014l0.223,0.006l0.068,0.03l0.206,0.196l0.055-0.042l0.022-0.042l0.031-0.031l0.077-0.004l0.082,0.024l0.038,0.05
	l0.025,0.141l0.206,0.687l0.308,0.76l0.223,0.549l0.412,1.121l0.11,0.13l0.247,0.24l0.106,0.141l0.071,0.06l0.096,0.031l0.015,0.013
	l0.016,0.065l0.022,0.026l0.024,0.006l0.061-0.001l0.025,0.006l0.758,0.439l0.146,0.107l0.131,0.122l0.145,0.183l0.027,0.209
	l0.069,0.168l0.188,0.165l0.247,0.164l0.139,0.137l0.09,0.338l0.253,0.908l-0.024,0.114l-0.02,0.027l-0.025,0.021l-0.022,0.033
	l-0.062,0.303l-0.053,0.112l-0.018,0.025l-0.062,0.007l-0.014-0.04l0.026-0.058l-0.017-0.097l-0.17-0.26l-0.033-0.057l-0.013-0.045
	l-0.021-0.037l-0.056-0.026l-0.057,0.019l-0.03,0.048l-0.025,0.019l-0.042-0.07l0.006-0.063l0.08-0.318l-0.016-0.072l-0.041-0.086
	l-0.059-0.075l-0.064-0.04l0.059,0.124l0.042,0.161l-0.002,0.154l-0.077,0.105l-0.062,0.018l-0.03-0.025l-0.013-0.058l-0.008-0.081
	l0.004-0.12l-0.008-0.037l-0.063-0.089l-0.034-0.004l-0.094,0.039l-0.111,0.003l-0.102-0.037l0.144,0.33l0.049,0.208l-0.073,0.115
	l-0.188,0.065l-0.207-0.074l-0.191-0.074l-0.248-0.102l-0.21-0.006l-0.383-0.033l-0.476-0.068l-0.326-0.074l-0.799-0.114
	l-0.331-0.037l-0.613-0.097l-0.226-0.037l-0.979-0.204l-0.294-0.106l-0.31-0.132l0.016-0.226l-0.018-0.15l-0.093-0.043l-0.088-0.089
	l-0.234-0.323l-0.049-0.111l0.04-0.044l0.087-0.004l0.342-0.083l-0.075-0.007l-0.202,0.009l-0.237-0.023l-0.116,0.021l-0.123,0.049
	l-0.32,0.187l-0.205,0.17l-0.063,0.088l-0.018,0.095l0.046,0.196l-0.01,0.113l-0.105,0.145l-0.171,0.097l-0.183,0.077l-0.144,0.085
	l-0.11,0.148l-0.032,0.159l0.043,0.156l0.117,0.139l0.051,0.021l0.048,0.004l0.033,0.016l0.013,0.056l0.021,0.032l0.102,0.032
	l0.022,0.018l-0.016,0.168l0.01,0.016l-0.05,0.021l-0.034-0.013l-0.038-0.023l-0.063-0.004l-0.037,0.016l-0.081,0.056l-0.053,0.01
	l-0.146-0.016l-0.125,0.004l-0.076,0.038l-0.117,0.124l0.033,0.023l0.015,0.007l0.024,0.006l-0.003,0.039l-0.146-0.008l-0.105,0.037
	l-0.156,0.09l-0.07,0.015l-0.013-0.015l0.004-0.034l-0.03-0.044l-0.06-0.043l-0.052-0.03l-0.05-0.007l-0.057,0.021l-0.002,0.036
	l0.081,0.048l0.063,0.056l0.044,0.069l0.022,0.081l-0.01,0.077l-0.059-0.004l-0.086-0.022l-0.068,0.015l0.023-0.085l-0.01-0.07
	l-0.05-0.056l-0.314-0.236l-0.081-0.049l-0.077-0.055l-0.049-0.067l-0.017-0.078l-0.002-0.209l0.063-0.357l0.02-0.113l0.04-0.235
	l-0.002-0.218l-0.07-0.18l-0.126-0.13l-0.322-0.232l-0.066-0.063l-0.055-0.068l-0.245-0.499l-0.119-0.129l-0.171-0.015l-0.352,0.137
	l-0.202,0.055l-0.185-0.002l-0.081-0.039l-0.075-0.062l-0.044-0.05l-0.018-0.022l-0.047-0.068l-0.057-0.112l0.024-0.026l0.069-0.004
	l0.081-0.046l0.029-0.066l0.11-0.458l0.051-0.207l0.055-0.069l0.162-0.149l0.029-0.068l-0.048-0.051l-0.311-0.173l-0.239-0.219
	l-0.042-0.065l0.012-0.021l0.047-0.13l0.063-0.102l0.006-0.038l-0.047-0.244l-0.088-0.457l-0.014-0.073l-0.051-0.114l-0.06-0.096
	l-0.001-0.002l-0.069-0.118l-0.039-0.142l0.02-0.126l0.104-0.07l0.164-0.07l0.249-0.14l0.081-0.027l0.187-0.037l0.076-0.028
	l0.087-0.057l0.062-0.079l0.002-0.099l-0.051-0.049l-0.104-0.066l-0.113-0.055l-0.086-0.016l0.146-0.146l0.058-0.039l0.114-0.079
	l0.099-0.112l0.079-0.125l0.051-0.123l0.039-0.268l0.037-0.122l0.099-0.098l-0.512,0.078l-0.247,0.095l-0.086,0.017l-0.012-0.008
	l-0.134-0.019l-0.015,0.009l-0.052-0.032l-0.019-0.018l-0.009-0.085l0.008-0.101l0.003-0.049l-0.031-0.036l-0.105,0.043
	l-0.305,0.051l-0.092,0.046l-0.073,0.079l-0.018,0.081l0.046,0.077l0.111,0.065l-0.111,0.039l-0.087,0.055l-0.159,0.152
	l-0.091,0.064l-0.201,0.098l-0.073,0.063l-0.076,0.249l-0.083,0.09l-0.147,0.036h-0.001l-0.113,0.002l-0.044,0.059l-0.023,0.076
	l-0.055,0.056l-0.075-0.002l-0.391-0.115l-0.178-0.069l-0.077-0.021l-0.079,0.001l-0.279,0.047l-0.136-0.023l-0.07-0.002
	l-0.059,0.017l-0.045,0.048l-0.028,0.125l-0.036,0.054l-0.089,0.04l-0.024,0.01l-0.103-0.023l-0.091-0.063l-0.07-0.069l-0.013-0.015
	l-0.084-0.103l-0.015-0.082l0.098-0.217l0.012-0.133l-0.072-0.065l-0.107-0.053l-0.145-0.145l-0.063-0.033l-0.07-0.019l-0.072-0.01
	l-0.122-0.123l0.047-0.211l0.091-0.239l0.011-0.195l0.123-0.315l0.057-0.088l0.046-0.032l0.117-0.058l0.038-0.039l0.014-0.062
	l-0.065-0.272l-0.005-0.05l0.011-0.046l0.026-0.063l0.082-0.097l0.038-0.057v-0.062l-0.078-0.05l-0.005,0.001l-0.116,0.031
	l-0.243,0.107l-0.083-0.002l-0.07-0.031l-0.067-0.045l-0.073-0.039l-0.045-0.01l-0.098-0.011l-0.033-0.008l-0.121-0.08l-0.013-0.014
	l-0.129,0.016l-0.288,0.114l-0.121,0.028l-0.02,0.005l-0.028-0.113l-0.003-0.055l0.013-0.06l0.035-0.039l0.045-0.016l0.036-0.022
	l0.007-0.062l-0.106-0.154l0.011-0.225l0.074-0.4l-0.079,0.031l0.064-0.229l-0.025-0.102l-0.129-0.103l-0.167-0.069l-0.12-0.087
	l-0.065-0.112l-0.005-0.088l-0.004-0.059l0.041-0.355l-0.016-0.176l-0.068-0.18l-0.079-0.121l-0.337-0.349l-0.193-0.163
	l-0.092-0.133l-0.054-0.06l-0.072-0.038l-0.154-0.15l-0.139-0.29l-0.023-0.076l-0.069-0.232l-0.013-0.208l0.075-0.104l0.239-0.122
	l0.089-0.083l-0.003-0.107l-0.227-0.174l-0.081-0.12l-0.051-0.124l-0.09-0.077l-0.115-0.046l-0.126-0.033l-0.415-0.168l-0.12-0.009
	v0.001h-0.001l-0.066,0.027l-0.057-0.014l-0.054-0.033l-0.065-0.031l-0.155-0.028l-0.167-0.004l-0.566,0.074l-0.154-0.001
	l-0.137-0.014l-0.134,0.002l-0.146,0.052l-0.163,0.118l-0.062,0.027l-0.077,0.013l-0.155,0.005l-0.13,0.042l-0.058,0.006
	l-0.055-0.012l-0.049-0.031l-0.02-0.026l-0.028-0.014l-0.033-0.001l-0.037,0.01l-0.06,0.068l-0.074,0.006l-1.206-0.561l-0.158-0.074
	l-0.382-0.177l-0.154-0.027l-0.498-0.008l-0.187,0.019l-0.808,0.32l-0.126,0.072l-0.127,0.096l-0.022,0.007l-0.078,0.038
	l-0.115,0.079l-0.076,0.018l-0.054-0.005l-0.106-0.038l-0.045-0.009l-0.155,0.038l-0.083-0.027l-0.057-0.03l-0.058-0.017
	l-0.062,0.004l-0.025,0.002l-0.149,0.053l-0.046,0.001l-0.049-0.009l-0.049-0.001l-0.05,0.024l-0.03,0.069l0.012,0.173l-0.033,0.075
	l-0.095,0.045l-0.102-0.009l-0.104-0.024l-0.099,0.002l-0.089,0.044l-0.049,0.039l-0.06,0.016l-0.12-0.032l-0.47-0.191l-0.176-0.037
	l-0.046-0.004l-0.052,0.01l-0.098,0.033l-0.045,0.006l-0.102-0.017l-0.091-0.04l-0.173-0.106l-0.045-0.016l-0.044-0.011
	l-0.042-0.018l-0.035-0.039l-0.018-0.06l0.022-0.026l0.035-0.014l0.016-0.028l-0.021-0.089l-0.049-0.062l-0.074-0.046l-0.129-0.064
	l-0.068-0.023l-0.034-0.006l-0.067-0.026l-0.099-0.073l-0.055-0.027l-0.079-0.011l-0.148,0.006l-0.077-0.012l-0.249-0.125
	l-0.125-0.033l-0.134,0.044l-0.07-0.013l-0.048,0.031l-0.042,0.043l-0.05,0.026l-0.061-0.057l-0.073,0.018l-0.079,0.039l-0.076,0.01
	l-0.066-0.041l-0.188-0.205l-0.094-0.074l-0.051-0.016l-0.044,0.036l-0.234,0.255l-0.042,0.068l-0.044,0.05l-0.056,0.032
	l-0.067,0.014l-0.072-0.013l-0.081,0.025l-0.066-0.009l-0.042-0.046l-0.004-0.085l-0.037-0.133l-0.021-0.077l-0.005-0.074
	l0.026-0.122l-0.004-0.071l-0.053-0.053l-0.054-0.008l-0.091,0.035l-0.049-0.002l-0.036-0.024l-0.049-0.067l-0.028-0.03
	l-0.071-0.053l-0.094-0.033l-0.162-0.021l-0.045-0.021l-0.041-0.045l0.015-0.026l0.024-0.021l-0.009-0.03l-0.03-0.016l-0.232-0.051
	l-0.076-0.004l-0.07,0.024l-0.078,0.061l-0.169,0.188l-0.065,0.05l-0.089,0.023l-0.189-0.005l-0.018,0.005l-0.041,0.011
	l-0.024,0.077l0.024,0.196l-0.056,0.081l-0.09,0.012l-0.115-0.011l-0.1,0.005l-0.035,0.058l0.018,0.034v0.026l-0.021,0.019
	l-0.037,0.011l0,0l-0.062,0.02l-0.006,0.021l0.017,0.025l0.008,0.026l-0.027,0.088v0.032l0.033,0.048l0.043,0.032l0.019,0.033
	l-0.04,0.053l-0.465,0.203l-0.058,0.054l-0.099,0.164l-0.064,0.071l-0.07,0.037l-0.078,0.015l-0.205,0.005l-0.072,0.014
	l-0.053,0.042l-0.163,0.235l-0.074,0.046l-0.104-0.014l-0.261-0.134l-0.052-0.055l-0.012-0.055l0.017-0.045l0.022-0.041l0.01-0.04
	l-0.01-0.039l-0.201-0.327l-0.029-0.083l-0.026-0.173l-0.03-0.068l-0.079-0.074l-0.229-0.141l-0.058-0.07l-0.067-0.06l-0.044,0.002
	l-0.04,0.028l-0.057,0.016l-0.083-0.011l-0.01-0.002l-0.056-0.013l-0.024,0.019l-0.001,0.087l0.059,0.254l0.011,0.13l-0.045,0.123
	l-0.102,0.095l-0.23,0.148l-0.087,0.11l-0.024,0.068l-0.013,0.062l-0.021,0.059l-0.048,0.065l-0.055,0.051l-0.04,0.023l-0.018,0.01
	l-0.063,0.021l-0.263,0.027l-0.064,0.033l-0.07,0.081l-0.046,0.079l-0.005,0.011l-0.024,0.064l-0.028,0.172v0.153l-0.011,0.057
	l-0.037,0.045l-0.033,0.008l-0.11,0.006l-0.049,0.018l-0.029,0.027l-0.067,0.104l-0.071,0.072l-0.062,0.036l-0.134,0.043
	l0.002,0.017l0.016,0.029l0.01,0.031l-0.016,0.017l-0.027-0.002l-0.02-0.013l-0.016-0.016l-0.014-0.006l-0.161-0.033l-0.196-0.003
	l-0.13,0.067l-0.009,0.106l0.165,0.11l0.081,0.024l0.047,0.054l0.076,0.127l0.04,0.023l0.037,0.004l0.037,0.011l0.003,0.005
	l0.031,0.043l0.018,0.046l0.001,0.03l-0.022,0.012l-0.054-0.005l0.017,0.135l-0.084,0.092l-0.132,0.059l-0.196,0.047l-0.056,0.001
	l-0.259-0.043l-0.057,0.014l-0.036,0.065l-0.009,0.059l-0.041,0.087l-0.058,0.079l-0.123,0.092l-0.105,0.032l-0.12,0.015
	l-1.296-0.105l-0.107-0.008l-0.082,0.032l0.117,0.134l-0.038,0.1l-0.017,0.075l-0.038,0.083l-0.043,0.072l-0.036,0.036l0,0
	l-0.048,0.007l-0.045,0.018l-0.161,0.062l-0.021-0.005l-0.05-0.033l-0.028-0.005l-0.085,0.038l-0.22,0.195l-0.238,0.113
	l-0.074,0.018l-0.05-0.007l-0.075-0.043l-0.044-0.007l-0.029,0.014l-0.07,0.055l-0.034,0.02l-0.06,0.005l-0.051-0.01l-0.041,0.006
	l-0.026,0.051v0.056l0.028,0.026l0.041,0.014l0.039,0.022l0.066,0.071l0.032,0.054l-0.01,0.064l-0.06,0.092l-0.696,0.676
	l-0.509,0.34l0,0l-0.105,0.084l-0.405,0.251l-0.12,0.105l-0.105,0.135l-0.118,0.22l-0.048,0.05l-0.079,0.033l-0.187,0.039
	l-0.081,0.033l-0.146,0.084l-0.23,0.092l-0.174,0.155l-0.165,0.034l-0.362-0.087l-0.025,0.009l-0.13,0.047l0,0l-0.065,0.098
	l-0.036,0.027l-0.048,0.012l-0.11,0.005l-0.053,0.019l-0.039,0.034l-0.049,0.072l-0.035,0.033l-0.174,0.057l-0.015,0.016
	l-0.016,0.048l-0.018,0.019l-0.012-0.004l-0.018-0.013l-0.024-0.011l-0.029-0.001l-0.132,0.023l-0.045,0.022l-0.06,0.062
	l-0.042,0.084l-0.012,0.094l0.032,0.083l0.043,0.03l0.105,0.031l0.032,0.021l0.026,0.043l-0.007,0.011l-0.02,0.008l-0.02,0.031
	l-0.022,0.068l-0.04,0.077l-0.057,0.066l-0.072,0.04l-0.054-0.003l-0.114-0.039l-0.054,0.001l-0.053,0.024l-0.004,0.02l0.015,0.023
	l0.007,0.116l0.003,0.046l-0.018,0.045l-0.03,0.027l-0.076,0.031l-0.035,0.021l-0.151,0.201l-0.064,0.035l-0.099-0.007l-0.063-0.034
	l-0.058-0.008l-0.087,0.069l-0.112,0.127l-0.108,0.092l-0.136,0.034l-0.196-0.043l-0.261-0.093l-0.138-0.072l-0.083-0.072
	l-0.004-0.055l0.021-0.049l-0.004-0.045l-0.078-0.04l-0.017-0.001l-0.059-0.006l-0.041,0.025l-0.073,0.088l-0.223,0.103
	l-0.021,0.053l0.005,0.052l0.012,0.053v0.054l-0.045,0.102l-0.146,0.207l-0.021,0.07l0.018,0.076l-0.003,0.086l-0.025,0.075
	l-0.051,0.04l-0.121,0.032l-0.042,0.112l0.005,0.254l-0.01,0.06l-0.064,0.164l-0.037,0.177l-0.022,0.049l-0.032,0.031l-0.084,0.042
	l-0.026,0.021l-0.02,0.042l-0.013,0.083l-0.016,0.043l-0.051,0.061l-0.133,0.106l-0.054,0.058l-0.092,0.138l-0.053,0.046
	l-0.244,0.126l-0.059,0.047l-0.051,0.068l-0.027,0.08l0.007,0.138l-0.023,0.076l-0.047,0.049l-0.204,0.104l-0.074,0.066
	l-0.039,0.067l-0.029,0.072l-0.044,0.079l-0.062,0.063l-0.064,0.049l-0.055,0.058v0.002l-0.028,0.084l0.031,0.132l-0.042,0.034
	l-0.086-0.009l-0.096,0.005l-0.049,0.04l-0.136,0.162l-0.257,0.46l-0.027,0.087l-0.001,0.092l0.034,0.097v0.006l-0.105,0.118
	l-0.067,0.104l-0.024,0.028l-0.035,0.019l-0.116,0.045l-0.014,0.068l-0.004,0.08l-0.024,0.042l-0.079-0.046l-0.043-0.063
	l-0.06-0.166l-0.049-0.073l-0.129-0.102l-0.042-0.056l-0.017-0.095l-0.046-0.105l-0.032-0.108l-0.003-0.064l0.019-0.013
	l-0.002-0.002l-0.064-0.041l-0.047-0.021l-0.108-0.03l-0.049-0.034l-0.024-0.047l-0.008-0.047l-0.019-0.04l-0.055-0.025l0,0v0.001
	l-0.001-0.001l-0.067,0.043l-0.078,0.005l-0.082-0.003l-0.079,0.02l-0.046,0.044l-0.093,0.128l-0.071,0.042l-0.253,0.059
	l-0.06,0.004l-0.072-0.034l-0.016-0.042l0.018-0.048l0.125-0.196l0.034-0.079l-0.008-0.09l-0.026-0.039l-0.068-0.04l-0.03-0.033
	l-0.021-0.025l0.006-0.094l-0.039-0.188l-0.027-0.129l0.055-0.051l0.063-0.146l0.143-0.064l-0.12-0.217l-0.016-0.082l0.016-0.086
	l0.044-0.046l0.062-0.035l0.067-0.054l0.027-0.034l0.057-0.104l0.168-0.23l0.022-0.072l-0.007-0.103l-0.015-0.039l-0.042-0.072
	l-0.011-0.04l0.013-0.037l0.05-0.07l-0.002-0.04l-0.048-0.044l-0.369-0.177l-0.061-0.042l-0.06-0.063l-0.046-0.074l-0.013-0.055
	l-0.003-0.06l-0.021-0.085l-0.092-0.114l-0.043-0.111l-0.06-0.093l-0.146-0.059l-0.078-0.017l-0.043-0.003l-0.027,0.03l-0.035,0.079
	l-0.016,0.126l-0.026,0.02l-0.086-0.036l-0.102-0.093l-0.129-0.252l-0.071-0.104l-0.063-0.048l-0.041-0.012l-0.021-0.022
	l-0.008-0.083l0.022-0.126l-0.005-0.058l-0.036-0.047l-0.015-0.019l-0.063-0.022l-0.058,0.002l-0.058,0.007h-0.089l-0.041,0.007
	l-0.028-0.004l-0.011-0.017l-0.01-0.06l-0.018-0.016l-0.075,0.024l-0.122,0.155l-0.093,0.048l-0.105-0.004l-0.05-0.03l-0.035,0.001
	l-0.238,0.361l-0.002,0.175l0.054,0.202l0.027,0.188l-0.085,0.138l-0.063,0.011l-0.095-0.006l-0.095-0.016l-0.062-0.023l-0.026-0.04
	l0.005-0.035l-0.009-0.035l-0.062-0.036l-0.042-0.007l-0.055,0.001l-0.055,0.008l-0.038,0.011l-0.055,0.058l-0.076,0.157
	l-0.056,0.063l-0.147,0.084l-0.037,0.055l-0.027,0.618l-0.058,0.17l-0.098,0.128l-0.086-0.038l-0.157-0.266v-0.001l-0.178-0.11
	l0.094-0.098l0.028-0.11l-0.028-0.111l-0.07-0.102l-0.371-0.319l-0.109-0.042l-0.018-0.007l-0.07,0.055l-0.101,0.235l-0.124,0.209
	l-0.08,0.064l-0.149,0.025l-0.068,0.051l-0.017,0.086l-0.004,0.098l-0.033,0.084l-0.036,0.027l-0.084,0.027l-0.036,0.02
	l-0.025,0.031l-0.03,0.064l-0.028,0.033l-0.072,0.049l-0.149,0.053l-0.073,0.043l-0.03,0.029l-0.03,0.036l-0.024,0.039l-0.016,0.038
	l0.001,0.04l0.021,0.1v0.03l-0.024,0.014l-0.1,0.034l-0.038,0.021l-0.022,0.03l-0.055,0.118l-0.011,0.044l-0.009,0.097l-0.01,0.04
	l-0.021,0.034l-0.054,0.06l-0.02,0.026v0.155l0.224,0.224l0.016,0.159l-0.006,0.05l0.009,0.044l0.034,0.091l0.081,0.327l0.021,0.037
	l0.054,0.07l0.019,0.041l0.001,0.044l-0.019,0.085l0.014,0.049l0.048,0.048l0.084,0.055l0.092,0.047l0.075,0.024l0.096,0.001
	l0.046-0.009l0.031,0.021l0.051,0.093l0.015,0.055l0.003,0.038l0.016,0.029l0.06,0.028h0.046l0.093-0.034l0.038,0.003l0.022,0.027
	l0.021,0.05l0.015,0.054l0.002,0.039l-0.011,0.046l-0.014,0.018l-0.02,0.011l-0.092,0.084l-0.197,0.145l-0.056,0.078l-0.077,0.259
	l0,0l0,0l0,0l-0.006,0.044l-0.014,0.036l-0.022,0.032l-0.027,0.03l-0.063,0.039l-0.163,0.061l-0.058,0.046l-0.027,0.057l0.01,0.023
	l0.029,0.018l0.026,0.033l0.044,0.094l0.002,0.008l0.023,0.113l-0.002,0.023l-0.01,0.045l-0.051,0.114l-0.15,0.227l-0.025,0.068
	v0.039l0.013,0.056l0.007,0.032l-0.005,0.05l-0.018,0.04l-0.048,0.054l-0.022,0.034l-0.015,0.042l-0.018,0.076l-0.023,0.043
	l-0.023,0.025l-0.068,0.056l-0.166,0.104l-0.144,0.063l-0.311,0.098l-0.218,0.071l-0.084,0.056l-0.056,0.102l0.003,0.063
	l-0.018,0.033l-0.034,0.017l-0.043,0.014l-0.085,0.02l-0.182,0.019l-0.004,0.001l-0.082,0.038l-0.031,0.041l-0.004,0.035
	l-0.012,0.028l-0.048,0.021l-0.045-0.005l-0.091-0.049l-0.041-0.01l-0.058,0.016l-0.054,0.035l-0.044,0.051l-0.031,0.061
	l-0.011,0.095l0.003,0.082l-0.022,0.031l-0.086-0.06l-0.05-0.077l-0.026-0.15l-0.049-0.06l-0.077-0.025l-0.213-0.03l-0.095-0.03
	l-0.223-0.171l-0.053-0.012l-0.017,0.059l0.033,0.087l0.049,0.094l0.026,0.068l-0.31-0.234l-0.079-0.103l-0.189-0.186l-0.077-0.096
	l-0.014-0.005l-0.013-0.002h-0.014l-0.014,0.001l-0.104,0.03h-0.115l-0.318-0.043l-0.054,0.002l-0.052,0.011l-0.063,0.026
	l-0.011,0.022l0.015,0.025l0.112,0.327v0.075l-0.06,0.044l-0.091,0.002l-0.185-0.036l-0.215,0.011l-0.074,0.076l0.066,0.083
	l0.372,0.058l0.146,0.07l0.116,0.112l0.079,0.144l0.008,0.047l-0.015,0.227l0.009,0.019l-0.009,0.01l-0.049,0.026l-0.075,0.019
	l-0.106,0.008l-0.107-0.005l-0.271-0.055l-0.193,0.017l-0.35,0.103l-0.123,0.117l-0.079,0.181l-0.1,0.15l-0.179,0.027l-0.017-0.006
	l-0.018-0.01l-0.013-0.011l-0.013-0.014l-0.056-0.045l-0.063,0.057l-0.07,0.099l-0.077,0.079l-0.055,0.022l-0.118,0.027
	l-0.053,0.021l-0.04,0.035l-0.093,0.124l-0.329,0.266l-0.154,0.239l-0.085,0.072l-0.096,0.015l-0.064,0.054l-0.06,0.067
	l-0.074,0.052l-0.029,0.003l-0.054-0.021l-0.025-0.003l-0.021,0.011l-0.031,0.033l-0.018,0.009l-0.15,0.024l-0.048,0.02
	l-0.066,0.021l-0.058-0.051l-0.041-0.084l-0.014-0.077l0.028-0.091l0.047-0.067l0.013-0.061l-0.067-0.065l-0.077-0.033l-0.153-0.046
	l-0.081-0.053l-0.509-0.6l-0.059-0.04l-0.01,0.006l-0.04,0.012l-0.033,0.021l-0.029,0.036l-0.036,0.026l-0.052-0.005l-0.033-0.033
	v-0.045l0.008-0.048l-0.01-0.045l-0.055-0.06l-0.072-0.043l-0.159-0.065h-0.001l-0.084-0.084l-0.008-0.108l0.047-0.108l0.078-0.082
	l0.094-0.033h0.084l0.057-0.022l0.013-0.096l-0.019-0.034l-0.032-0.024l-0.029-0.029l-0.007-0.045l0.018-0.018l0.078-0.054
	l0.026-0.023l0.038-0.08l0.045-0.165l0.043-0.083l0.229-0.224l0.042-0.077l0.057-0.174l0.049-0.072l0.07-0.048l0.081-0.025
	l0.085-0.015l0.304-0.109l0.049-0.032l0.044-0.068l0.056-0.151l0.115-0.125l0.04-0.08l0.007-0.085l-0.042-0.074l-0.074-0.025
	l-0.075,0.009l-0.063-0.005l-0.036-0.065l-0.008-0.07l-0.025-0.075l-0.134-0.232l-0.034-0.021l-0.048-0.001l-0.068,0.043
	l-0.038,0.006l-0.131-0.066l-0.081-0.123l-0.113-0.27l-0.054-0.076l-0.043-0.038l-0.199-0.099l-0.285-0.203l-0.007-0.051l0.041-0.09
	l0.036-0.052l0.046-0.044l0.051-0.037l0.057-0.03l0.038-0.056l0.065-0.002l0.079,0.017l0.081,0.001l0.067-0.02l0.272-0.124
	l0.132-0.094l0.038-0.048l0.019-0.075l-0.023-0.048l-0.192-0.159l-0.041-0.024h-0.037h-0.197l-0.044-0.017l-0.104-0.102l-0.07-0.044
	l-0.067-0.032l-0.053-0.038l-0.033-0.063l-0.092-0.193l0.03-0.045l0.377-0.245l0.284-0.255l0.058-0.042l0.042-0.013l0.143-0.069
	l0.032-0.024l0.018-0.031l0.117-0.083l0.011-0.023l0.014-0.066l0.013-0.023l0.052-0.029l0.121-0.047l0.026-0.033l0.021-0.062
	l0.041-0.039l0.045-0.032l-0.032-0.065l-0.053-0.054l-0.058-0.015h-0.067l-0.071-0.008l-0.067-0.027l-0.134-0.071l-0.068-0.026
	l-0.277-0.058l-0.127-0.056l-0.113-0.101l-0.036-0.044l-0.09-0.061l-0.036-0.035l-0.037-0.061l-0.011-0.054l-0.001-0.123
	l-0.103-0.371l0.012-0.117l0.088,0.044l0.097,0.029l0.099,0.007l0.094-0.021l0.066-0.046l0.127-0.218l0.062-0.081l0.033-0.06
	l-0.006-0.065l-0.016-0.029l-0.215-0.391l-0.084-0.092l-0.208-0.295l-0.081-0.083l-0.013-0.011l0.01-0.036l0.021,0l0.024,0.008
	l0.021-0.012l0.019-0.022l0.02-0.015l0.018-0.019l0.011-0.037l-0.007-0.025l-0.05-0.048l-0.01-0.024l0.016-0.079l0.056-0.137v-0.085
	l-0.022-0.077l-0.037-0.065l-0.051-0.06l-0.199-0.167l-0.049-0.054l-0.114-0.219l-0.044-0.023l-0.093-0.006l-0.609,0.059
	l-0.045-0.061l-0.009-0.104l-0.083-0.115l-0.063-0.024l-0.072-0.013l-0.063-0.021l-0.035-0.048l0.012-0.058l0.074-0.102l0.011-0.059
	l-0.022-0.044l-0.129-0.166l-0.064-0.15l-0.083-0.138l-0.021-0.062l-0.073-0.349l-0.013-0.016l-0.019-0.01l-0.018-0.012
	l-0.008-0.022l0.006-0.011l0.025-0.028l0.006-0.012l0.011-0.032l0.016-0.023l0.013-0.029l-0.005-0.047l-0.048-0.074l-0.072-0.034
	l-0.086-0.025l-0.084-0.043l-0.045-0.044l-0.121-0.156l-0.03-0.06l0.009-0.076l0.053-0.028l0.083-0.01l0.087-0.023l0.066-0.043
	l0.063-0.059l0.05-0.063L1350.881,312.213z"/></svg>