<?xml version="1.0" encoding="utf-8"?>
<!-- Generator: Adobe Illustrator 15.0.0, SVG Export Plug-In . SVG Version: 6.00 Build 0)  -->
<!DOCTYPE svg PUBLIC "-//W3C//DTD SVG 1.1//EN" "http://www.w3.org/Graphics/SVG/1.1/DTD/svg11.dtd">
<svg version="1.1" id="Ebene_1" xmlns="http://www.w3.org/2000/svg" xmlns:xlink="http://www.w3.org/1999/xlink" x="0px" y="0px"
	 width="1920px" height="1080px" viewBox="0 0 1920 1080" enable-background="new 0 0 1920 1080" xml:space="preserve">

<path fill="#F4E0B6" stroke="#FFFFFF" d="M1054.763,551.604l-0.055,0.04l-0.194,0.031l-0.074,0.003l-0.02-0.04l0.018-0.057
	l0.028-0.062l0.007-0.067l-0.037-0.092l-0.051-0.06l-0.057-0.051l-0.051-0.064l-0.047-0.146l-0.004-0.163l0.018-0.1l0.042,0.031
	l0.068,0.029l0.003,0.066l0.027,0.033l0.043,0.028l0.048,0.05l0.01,0.032l-0.006,0.076l0.015,0.036l0.108,0.022l0.108,0.073
	l0.073,0.099l0.021,0.119L1054.763,551.604z"/></svg>