<?xml version="1.0" encoding="utf-8"?>
<!-- Generator: Adobe Illustrator 15.0.0, SVG Export Plug-In . SVG Version: 6.00 Build 0)  -->
<!DOCTYPE svg PUBLIC "-//W3C//DTD SVG 1.1//EN" "http://www.w3.org/Graphics/SVG/1.1/DTD/svg11.dtd">
<svg version="1.1" id="Ebene_1" xmlns="http://www.w3.org/2000/svg" xmlns:xlink="http://www.w3.org/1999/xlink" x="0px" y="0px"
	 width="1920px" height="1080px" viewBox="0 0 1920 1080" enable-background="new 0 0 1920 1080" xml:space="preserve">

<path fill="#F4E0B6" stroke="#FFFFFF" d="M1166.312,508.826l0.085,0.292l0.025,0.141l0.013,0.238l-0.007,0.069l-0.023,0.059
	l-0.048,0.057l-0.146,0.089l-0.05,0.06l-0.002,0.1l0.082,0.138l0.158,0.169l0.172,0.12l0.121-0.009l0.006-0.04l-0.016-0.043
	l-0.006-0.042l0.033-0.035l0.023,0.013l0.156,0.052l0.026,0.021l0.141,0.111l0.09,0.052l0.097,0.013l0.218-0.039l0.043-0.015
	l0.064-0.038l0.222-0.006l0.348-0.139l0.194-0.048l0.127,0.053l0.026-0.053l0.028-0.006l0.006-0.001l0.044,0.012l0.101,0.006
	l0.193,0.042l0.062,0.034l-0.004,0.011l-0.024,0.018l0.002,0.048l0.02,0.031l0.051,0.062l0.016,0.027l0.004,0.036l-0.005,0.065
	l0.005,0.035l0.058,0.115l0.093,0.127l0.08,0.128l0.003,0.034l0.01,0.083l-0.043,0.058l-0.062,0.034l-0.056,0.044l-0.023,0.086
	l0.021,0.083l0.033,0.065l0.009,0.058l-0.055,0.057l-0.071,0.018l-0.161-0.026l-0.076,0.004l-0.199,0.099l-0.083,0.021l-0.277,0.011
	l-0.16-0.02h-0.077l-0.061,0.029l-0.195,0.187l-0.045,0.068l-0.027,0.104l-0.029,0.108l-0.033,0.066l-0.059,0.066l-0.139,0.104
	l-0.508,0.23l-0.203,0.045l-0.076,0.018l-0.188,0.011l-0.149-0.037l-0.008-0.125l0.041-0.077l0.02-0.055l-0.023-0.017l-0.081,0.034
	l-0.2,0.126l-0.499,0.209l-0.155,0.002l-0.075-0.007l-0.044,0.029l-0.063,0.107l-0.047,0.053l-0.047,0.03l-0.183,0.054l-0.07,0.021
	l-0.088,0.075l-0.058,0.107l-0.104,0.688l-0.067,0.432l-0.013,0.05l-0.013,0.107l-0.012,0.052l-0.097,0.094l-0.284,0.194
	l-0.006,0.097l0.064,0.028l0.138-0.044l0.04,0.008l0.023,0.005l0.004,0.059l-0.059,0.073l-0.387,0.345l-0.147,0.059l-0.059,0.041
	l-0.034,0.077l0.007,0.075l0.016,0.083l-0.009,0.069l-0.067,0.034l-0.036-0.012l-0.041-0.027l-0.035-0.013l-0.028,0.027
	l-0.005,0.027l-0.002,0.106l-0.047,0.078l-0.062,0.049l-0.074,0.032l-0.213,0.044l-0.035,0.027l-0.022,0.038l-0.004,0.038v0.038
	l-0.01,0.04l-0.053,0.066l-0.064,0.025l-0.2,0.03l-0.097,0.036l-0.027,0.026l-0.012,0.049l0.016,0.032l0.023,0.03l0.016,0.046
	l-0.005,0.077l-0.028,0.074l-0.046,0.061l-0.137,0.069l-0.048,0.053l-0.063,0.143l-0.047,0.069v0.001l-0.046,0.066l-0.236,0.225
	l-0.071,0.147l-0.028,0.216l-0.034,0.067l-0.058,0.063l-0.478,0.326l-0.106,0.105l-0.092,0.184l-0.021,0.029l-0.026,0.022
	l-0.033,0.017l-0.046-0.115l-0.106-0.047l-0.128-0.001l-0.105,0.023l-0.102,0.052l-0.071,0.073l-0.182,0.283l-0.063,0.006
	l-0.193-0.096l-0.104-0.012l-0.057,0.041l-0.052,0.057l-0.09,0.041l0.08-0.197l0.009-0.068l-0.007-0.08l-0.019-0.015l-0.085,0.058
	l-0.112,0.034l-0.22,0.004l-0.303,0.041l-0.073-0.007l-0.201-0.075l-0.04-0.005l-0.031,0.011l-0.024-0.002l-0.023-0.006
	l-0.028-0.001l-0.099,0.043l-0.029,0.006l-0.055-0.02l-0.052-0.03l-0.037-0.006l-0.017,0.054v0.129l-0.063,0.028l-0.095-0.009
	l-0.101,0.02l-0.007-0.053l0.014-0.089v-0.044l-0.016-0.04l-0.024-0.038l-0.021-0.042l-0.007-0.05l-0.069,0.021l-0.389,0.292
	l-0.122,0.128l-0.036,0.062l-0.009,0.014l-0.002,0.004l-0.02,0.086l0.023,0.081l0.095,0.162l0.021,0.079l-0.005,0.109l0.02,0.186
	l-0.023,0.083l-0.029,0.029l-0.033,0.033l-0.605,0.225l-0.123,0.12l-0.066,0.05l-0.077-0.002l-0.055,0.01l-0.042,0.033l-0.062,0.096
	l-0.052,0.016l-0.041,0.026l-0.032,0.037l-0.023,0.05l-0.067,0.11l-0.245,0.092l-0.069,0.134l-0.014,0.059l0.017,0.188l-0.03,0.18
	l-0.013,0.036l-0.044,0.014l-0.184-0.006l-0.045,0.019l-0.083,0.058l-0.041,0.014l-0.028-0.012l-0.023-0.029l-0.02-0.028
	l-0.014-0.01l-0.021,0.017l-0.04,0.086l-0.073,0.074l-0.038,0.021l-0.374,0.124l-0.084-0.453l-0.01-0.169l0.071-0.239l-0.043-0.143
	l-0.044-0.305l-0.027-0.046l-0.026-0.032l-0.02-0.031l-0.009-0.044l-0.007-0.094l-0.01-0.042l-0.021-0.036l-0.233-0.28l0,0
	l-0.013-0.015l-0.213-0.19l-0.069-0.075l-0.052-0.039l-0.257-0.091l-0.193-0.069l-0.046,0.001l-0.051-0.005l-0.068-0.056
	l-0.103-0.113l-0.151-0.139l-0.531-0.355l-0.026-0.013l-0.04-0.009l-0.127-0.009l-0.029-0.017l-0.057-0.049l0,0l-0.806-0.698
	l-0.159-0.099l-0.16-0.06l-0.16-0.018l-0.155,0.031l-0.224,0.132l-0.061,0.014l-0.073-0.002l-0.09,0.019l-0.085,0.032l-0.058,0.037
	l-0.021,0.035l-0.025,0.076l-0.027,0.035l-0.041,0.006l-0.262-0.076l-0.235-0.164l-0.257-0.095l-0.127-0.062l-0.062,0.057
	l-0.062,0.133l-0.083,0.033l-0.172-0.051l-0.066,0.011l-0.016-0.018l-0.145-0.052l-0.029,0.001l-0.245,0.086l-0.285,0.184
	l-0.112,0.108l-0.065,0.091l-0.028,0.03l-0.038,0.014l-0.09-0.007l-0.035,0.011h-0.02l-0.082-0.009l-0.035,0.001l-0.033,0.012
	l-0.092,0.056l-0.285,0.075l-0.104,0.07l0.005,0.143l-0.049-0.006l-0.114-0.063l-0.06-0.024l-0.106-0.011l-0.056-0.016l-0.079-0.12
	l-0.123-0.069l-0.131-0.047l-0.082-0.017l-0.109,0.03l-0.174,0.076l-0.147-0.013l-0.05,0.013l-0.134,0.08l-0.104,0.034l-0.071,0.038
	l0,0l-0.035-0.072l-0.192-0.6l-0.01-0.085l0.026-0.091l0.134-0.192l0.174-0.148l0.814-0.298l0.109-0.074l0.062-0.09l0.094-0.227
	l0.082-0.089l0.105-0.026l0.037-0.002l0.205-0.012l0.333-0.132l0.121-0.022l0.575-0.02l0.094-0.049l0.234-0.264l0.101-0.056
	l0.116-0.03l0.132-0.003l0.119-0.039l0.151-0.193l0.103-0.037l0.051,0.014l0.103,0.05l0.053,0.015l0.061-0.004l0.167-0.074
	l0.1-0.018l0.209,0.018l0.1-0.022l0.099-0.073l0.164-0.188l0.102-0.071l0.204-0.098l0.086-0.063l0.158-0.176l0.077-0.062
	l0.091-0.044l0.112-0.03l0.1-0.047l0.085-0.068l0.067-0.088l0.104-0.29l0.009-0.02l0.047-0.078l0.395-0.417l0.023-0.015l0.17-0.115
	l0.226-0.031l0.123,0.007l0.121-0.008l0.229-0.053l0.057-0.033l0.022-0.047l0.014-0.125l0.026-0.06l0.078-0.074l0.086-0.142
	l0.104-0.089l0.118-0.062l0.108-0.018l0.129,0.003l0.114-0.019l0.285-0.114l0.038,0.045l0.03,0.074l0.04,0.063l0.055,0.014
	l0.198-0.025l0.493,0.01l0.072-0.019l0.07-0.018l0.604-0.306l0.294-0.149l0.116-0.064l0.248-0.075l0.074-0.002l0.213,0.029
	l0.072-0.013l0.286-0.159l0.097-0.028l0.065-0.02l0.115,0.074l0.015,0.137l-0.034,0.144l-0.01,0.136l0.08,0.108l0.149,0.022
	l0.142-0.075l0.132-0.104l0.126-0.068l0.097-0.01l0.054-0.005l0.068-0.021l0.041-0.052l0.009-0.068l-0.014-0.145l0.002-0.068
	l0.064-0.153l0.233-0.236l0.065-0.109l0.021-0.037l0.003-0.069l0.006-0.092l-0.039-0.14l-0.002-0.125l0.22-0.214l0.074-0.129
	l0.104-0.289l0.055-0.088l0.118-0.129l0.12-0.087l0.122-0.06l0.012-0.005l0.142-0.035l0.066-0.005l0.146,0.009l0.071,0.018
	l0.239,0.14l0.06,0.003l0.001-0.045l-0.126-0.226l-0.067-0.226l-0.033-0.069l-0.012-0.148l0.128-0.083l0.452-0.064l0.064-0.02
	l0.055-0.034l0.04-0.054l0.015-0.031l0.042-0.099l0.042-0.052l0.109-0.046l0.129-0.007l0.519,0.063l0.07,0.02l0.06,0.026
	l0.083,0.035l0.061,0.014l0.115-0.045l0.095-0.118l0.149-0.256l0.147-0.135l0.246-0.166l0.268-0.112l0.214,0.023l0.002,0.003
	l0.063,0.085l0.395,1.034l0.097,0.055l0.121-0.025l0.145-0.051l0.455-0.074l0.22-0.125h0.067l0.232,0.107l0.062,0.012l0.051-0.014
	l0.051-0.043l0.012-0.024l0.01-0.059l0.018-0.026l0.023-0.008l0.076-0.004l0.032-0.009l0.043-0.047l0.026-0.043l0.04-0.007
	l0.086,0.058l0.087-0.031l0.079-0.074l0.122-0.175v-0.001l0.002-0.001l0.016-0.027l0.02-0.024l0.022-0.019l0.032-0.017l0.115-0.011
	l0.232,0.023l0.103-0.038l0.163-0.135l0.095-0.025L1166.312,508.826z"/></svg>