<?xml version="1.0" encoding="utf-8"?>
<!-- Generator: Adobe Illustrator 15.0.0, SVG Export Plug-In . SVG Version: 6.00 Build 0)  -->
<!DOCTYPE svg PUBLIC "-//W3C//DTD SVG 1.1//EN" "http://www.w3.org/Graphics/SVG/1.1/DTD/svg11.dtd">
<svg version="1.1" id="Ebene_1" xmlns="http://www.w3.org/2000/svg" xmlns:xlink="http://www.w3.org/1999/xlink" x="0px" y="0px"
	 width="1920px" height="1080px" viewBox="0 0 1920 1080" enable-background="new 0 0 1920 1080" xml:space="preserve">

<path fill="#F4E0B6" stroke="#FFFFFF" d="M1045.72,515.114l0.165,0.061l0.053,0.007l0.063,0.023l0.148,0.148l0.078,0.019
	l0.068-0.006l0.571,0.112l-0.058-0.071l-0.05-0.039l-0.018-0.039l0.036-0.069l0.07-0.024l0.052-0.051l0.023-0.012l-0.043-0.041
	l-0.029-0.056l-0.02-0.059l-0.015-0.055l0.274,0.117l0.043,0.061l0.095,0.06l0.051,0.018l0.049-0.001l-0.016,0.034l-0.009,0.01
	l0.072,0.068l0.176,0.066l0.045,0.034l0.038,0.073l0.024,0.03l0.012,0.027l-0.006,0.062l-0.015,0.043l-0.022,0.021l-0.018,0.023
	v0.056l0.121,0.011l0.032,0.102L1047.72,516l-0.1,0.078l-0.443,0.045l-0.12,0.075l-0.099,0.102l-0.062,0.125l-0.063,0.01
	l-0.303-0.067l-0.217-0.088l-0.362-0.092l-0.143,0.014l-0.166-0.021l-0.155,0.012l-0.076-0.033l-0.055-0.061l-0.013-0.083
	l0.049-0.061l0.086-0.012l0.071-0.031l0.011-0.111l-0.05-0.002l-0.046-0.017l-0.21-0.13l-0.028-0.026l-0.032-0.078l0.006-0.084
	l0.056-0.168l0.045,0.007l0.343-0.2L1045.72,515.114z M1043.451,516.141l0.045,0.005l0.041-0.013l0.027-0.021l-0.003-0.041
	l-0.05-0.071l0.061,0.043l0.085,0.127l0.039,0.018l0.055-0.017l0.034-0.021l-0.008-0.04l-0.066-0.068l0.061,0.029l0.062,0.015
	l0.052,0.031l0.027,0.073l0.032,0.011l0.032,0.005l-0.188,0.113l-0.031,0.08l-0.026,0.025l-0.071-0.008l-0.649-0.359l-0.083-0.09
	l-0.044-0.067l0.056,0.032l0.273,0.056l0.088,0.04l0.102,0.08L1043.451,516.141z M1048.945,513.773l0.106,0.142l0.017,0.052
	l-0.013,0.036l-0.037,0.025l-0.06,0.024l-0.332,0.038l-0.088,0.045l-0.071,0.073l-0.057,0.104l-0.059,0.238l-0.036,0.046
	l-0.081,0.014l-0.199-0.027l-0.012-0.029l0.037-0.012l-0.031-0.043l-0.004-0.039l0.014-0.034l0.021-0.026l-0.019-0.009l-0.039-0.028
	l-0.02-0.007l0.029-0.086l0.026-0.029l0.042,0.01l0.005-0.04l-0.045-0.057l0.043-0.01l0.081,0.022l0.044,0.001l0.023-0.014
	l0.069-0.065l0.022-0.033l-0.032-0.04l-0.018-0.036v-0.032l0.018-0.023l-0.014-0.031l-0.11-0.033l-0.036-0.023l-0.031-0.042
	l-0.004-0.035l0.021-0.025l0.046-0.016l0.099,0.082l0.104,0.01l0.215-0.059l0.246-0.031L1048.945,513.773z M1041.656,515.745
	l0.23,0.14l0.101,0.021l0.124-0.018l0.104,0.026l0.099,0.06l0.104,0.083l0.067,0.061l0.228,0.286l0.015,0.047l-0.033,0.02
	l-0.076,0.022l-0.031,0.033l-0.035,0.056l-0.04,0.046l-0.044-0.002l-0.058-0.025l-0.138-0.002l-0.056-0.018l-0.013-0.031
	l0.057-0.057l0.097,0.01l0.107,0.034l0.086,0.011l-0.013-0.031l-0.17-0.073l-0.136-0.006l-0.03,0.005l-0.021,0.019l-0.024,0.05
	l-0.019,0.023l-0.105,0.026l-0.118-0.046l-0.099-0.105l-0.05-0.152l-0.017,0.004l-0.011-0.028l0.075,0.023l0.091,0.053l0.082,0.035
	l0.048-0.029l-0.018-0.012l-0.029-0.027l-0.021-0.026l0.005-0.017l0.011-0.016l-0.026-0.016l-0.141-0.045l-0.032-0.031l0.015-0.055
	l-0.013-0.032l-0.199,0.083l-0.038,0.006l-0.033-0.012l-0.034,0.005l-0.032-0.003l-0.03-0.038v-0.023l0.036-0.053v-0.041
	l-0.047,0.018l-0.038,0.03l-0.039,0.021l-0.055-0.014l-0.015-0.034l0.19-0.182l0.088-0.043L1041.656,515.745z M1044.658,515.548
	l0.085,0.93l-0.004,0.065l-0.028,0.031l-0.062,0.022l-0.049-0.034l-0.173-0.249l-0.049-0.041l-0.052-0.029l-0.108-0.042l0.062-0.025
	l0.034-0.031l0.019-0.049l0.014-0.082l-0.006-0.084l0.007-0.027l0.033,0.016l0.017,0.003l0.058-0.044l-0.023-0.044l-0.031-0.047
	l-0.017,0.027l-0.019,0.014h-0.025l-0.032-0.012l-0.006-0.123l0.022-0.1l0.078-0.218l0.045-0.067l0.062-0.265l-0.033-0.135
	l-0.003-0.256l0.031-0.208l0.069,0.009l0.102,0.607l0.011,0.167L1044.658,515.548z M1054.454,510.533l0.129,0.042l0.062-0.043
	l0.055-0.004l0.082,0.075l0.041,0.023l0.041,0.008l0.238,0.062l0.136-0.005l0.074,0.035l-0.002,0.027l0.002,0.018v0.014
	l-0.006,0.017l0.047,0.059l0.026,0.039l0.01,0.042l-0.001,0.064l-0.013,0.112l0.005,0.051l0.025,0.033l0.012,0.028l0.032,0.05
	l-0.02,0.063l-0.009,0.049l-0.02,0.048l-0.139,0.013l-0.105,0.032l-0.165-0.002l-0.223-0.043l-0.222,0.018l-0.279-0.092
	l-0.063-0.041l-0.01-0.108l-0.073-0.193l-0.112-0.279l-0.012-0.049v-0.058l0.008-0.109l-0.01-0.074l-0.018-0.085l0.002-0.055
	l0.045,0.011l0.168,0.112l0.053,0.026l0.084,0.039L1054.454,510.533z M1037.369,515.146l0.055,0.012l0.05-0.024l0.053,0.026
	l0.02,0.056l0.005,0.114l0.024,0.045l0.038,0.045l0.051,0.083l0.038,0.032l-0.056,0.045l-0.098-0.055l-0.103-0.097l-0.165-0.198
	l-0.056-0.097l0.001-0.074l0.082-0.049L1037.369,515.146z M1042.13,512.854l0.229,0.07l0.061,0.038l0.055,0.047l0.034,0.023
	l0.03,0.006l0.05-0.009l0.05,0.003l0.1,0.031l-0.049-0.004l-0.04,0.013l-0.021,0.033l0.009,0.059l0.018,0.017l0.052,0.019
	l0.015,0.027l0.003,0.042l-0.018,0.018l-0.024,0.01l-0.024,0.021l-0.04,0.172l0.072,0.064l0.091-0.033l0.011-0.12l0.031-0.001
	l0.134-0.141l0.086-0.063l0.005-0.018l-0.017-0.03l-0.025-0.028l-0.019-0.01l-0.024,0.001l-0.032-0.009l-0.028-0.014l-0.021-0.02
	l-0.009-0.043l0.039,0.005l0.049,0.026l0.022,0.016l0.013-0.062l-0.037-0.071l-0.059-0.073l-0.047-0.074l0.021,0.017l0.057,0.03
	l-0.03-0.078l-0.062-0.11l-0.013-0.031l0.048-0.019l0.111,0.063l0.204,0.168l0.016,0.028l0.02,0.041l0.021,0.034l0.02,0.012
	l0.011,0.008l0.077,0.039l0.043,0.058l0.008,0.04l-0.014,0.034l-0.056,0.073l-0.1,0.092l-0.187,0.039l-0.041,0.024l-0.02,0.038
	l0.01,0.063l0.035,0.021l0.043-0.011l0.028-0.036l-0.021-0.021l-0.008-0.014v-0.053l0.058-0.003l0.189-0.014l0.055,0.023
	l0.406,0.296l0.031,0.035l0.146,0.178l0.045,0.07l-0.02,0.006l-0.05-0.038l-0.061-0.017l-0.038,0.026l0.014,0.088l0.037,0.053
	l0.115,0.089l0.047,0.063l0.044,0.098l0.03,0.092l0.014,0.083l-0.003,0.106l0.007,0.037l0.034,0.094v0.027l-0.03,0.107l-0.001,0.064
	l0.003,0.058l-0.005,0.053l-0.028,0.048l-0.028,0.019l-0.106,0.024l-0.116,0.037l-0.042,0.021l-0.039,0.039l-0.031,0.049
	l-0.015,0.056l-0.028,0.063l-0.06,0.01l-0.126-0.025l-0.182,0.041l-0.063,0.001l-0.032-0.01l-0.027-0.014l-0.03-0.009l-0.034,0.002
	l-0.063,0.027l-0.036,0.007l-0.259-0.067l-0.078,0.017l-0.006,0.042l0.037,0.102l-0.052-0.019l-0.09-0.053l-0.054-0.013
	l-0.054,0.016l-0.09,0.055l-0.056-0.009l0.142-0.218l0.01-0.076l-0.071-0.051l-0.063-0.066l-0.058-0.05l-0.059-0.006l-0.034,0.023
	l-0.023,0.027l-0.026,0.021l-0.046,0.008l-0.084-0.043l-0.038-0.004l-0.017,0.051l0.036,0.07l0.146,0.112l0.021,0.08l-0.012,0.01
	l-0.097,0.012l-0.013-0.01l-0.003-0.021l-0.011-0.024l0.008,0v-0.02l-0.017-0.039l-0.078-0.09l-0.024-0.047l-0.014-0.052v-0.049
	l-0.018-0.036l-0.051-0.012l-0.115,0.006l-0.041-0.011l-0.04-0.017l-0.021-0.019l-0.015-0.024l-0.041-0.034l-0.016-0.027
	l-0.006-0.03l0.008-0.049l-0.005-0.028l-0.024-0.049l-0.055-0.073l-0.018-0.025l-0.053-0.163l-0.035-0.012l-0.042,0.009
	l-0.073,0.031l-0.04-0.003l-0.051-0.021l-0.095-0.064l0.037-0.03l0.047-0.021l0.035-0.03l0.008-0.06l-0.168-0.021l0.022-0.002
	l0.065-0.024l-0.047-0.046l-0.06-0.016l-0.108,0.018l-0.044-0.004l-0.132-0.085l-0.011-0.029l0.083,0.011l0.099,0.042l0.092,0.025
	l0.062-0.038l-0.35-0.154l-0.104,0.008l0.001-0.054l0.017-0.027l0.026-0.02l0.026-0.031l0.049-0.156l0.131-0.071l0.051-0.006
	l0.019,0.021l0.016,0.04l0.043,0.044l0.153,0.032l0.117-0.09l0.188-0.258l0.293-0.217l0.082-0.12l0.055-0.043l0.068-0.026
	l0.022-0.001l0.007,0.014l0.042,0.061l0.008,0.016l0.03-0.026l-0.004-0.038l-0.046-0.093l0.031-0.021L1042.13,512.854z
	 M1047.992,511.219l-0.047,0.036l-0.092-0.068l-0.088-0.113l-0.045-0.103l0.003-0.068l0.017-0.049l0.02-0.042l0.015-0.041
	l0.003-0.067l-0.005-0.13l0.015-0.057l0.022,0.024l0.009,0.011l0.013,0.019l0.306,0.327l0.011,0.019l-0.046,0.136l-0.033,0.025
	l-0.033,0.045l-0.028,0.051L1047.992,511.219z M1042.369,511.372l0.07,0.049l0.022-0.027l0.002-0.057l0.009-0.034l0.02,0.029
	l-0.01,0.081l-0.033,0.112l0.021,0.088l0.064,0.154l0.007,0.089l-0.053,0.105l-0.102,0.003l-0.111-0.087l-0.09-0.163l-0.022-0.099
	l0.011-0.047l0.029-0.032l0.03-0.051l0.013-0.07l-0.008-0.08l-0.035-0.078l-0.064-0.067l-0.06-0.02l-0.062-0.006l-0.054-0.04
	l-0.038-0.119l0.003-0.069l0.023-0.052h0.037l0.097,0.189l0.073,0.068l0.078,0.034h0.074l-0.006,0.054l0.011,0.052l0.021,0.048
	L1042.369,511.372z M1046.26,508.801l0.271,0.055l0.18-0.062l0.06,0.01l0.123,0.051l0.088,0.007l0.178,0.068l-0.003,0.084
	l-0.043,0.18l-0.004,0.09l0.008,0.208l-0.011,0.064l0.015,0.035l0.113,0.079l0.065,0.059l0.04,0.054l0.049,0.083l0.069,0.092
	l0.072,0.078l0.057,0.045l0.007,0.048l0.021,0.064l0.039,0.098l0.019,0.084l0.01,0.032l0.013,0.021l0.019,0.021l0.044,0.04
	l-0.024,0.089l-0.016,0.239l-0.068,0.102l0.008,0.062l-0.001,0.063l-0.048,0.039h-0.049l-0.041-0.015l-0.042-0.009l-0.052,0.017
	l-0.139,0.172l-0.027,0.069l-0.09,0.228v0.001l-0.017,0.313l0.168,0.218l0.171,0.071h0.051l0.162-0.043l0.05,0.005l0.151,0.058
	l0.088,0.051l0.054,0.059l0.036,0.078l0.04,0.062l0.088,0.111l-0.019,0.062l-0.008,0.019l-0.093,0.144l-0.483,0.313l-0.023,0.059
	l-0.048,0.065l-0.02,0.096l0.007,0.104l0.047,0.072l-0.003,0.046l-0.015,0.023l-0.024,0.004l-0.033-0.012l-0.021-0.105l-0.056-0.053
	l-0.059,0.001l-0.035,0.055l-0.014,0.03l-0.017,0.015l-0.007,0.021l0.013,0.048l0.022,0.014l0.099,0.034l0.224-0.055h0.112
	l0.065,0.099l0.005,0.051l-0.01,0.024l-0.015,0.016l-0.016,0.024l-0.039,0.048l-0.018,0.033l0.024,0.005l0.188,0.184l0.032,0.089
	l-0.014,0.058l-0.046,0.037l-0.058,0.023l-0.035,0.03l-0.058,0.098l-0.055,0.033l-0.106-0.008l-0.195-0.087l-0.095,0.013
	l0.009,0.022l0.006,0.004l0.006-0.003l0.01,0.002l-0.01,0.015l-0.004,0.012l-0.006,0.014l-0.017,0.011l0.047,0.083l0.002,0.059
	l-0.005,0.053l0.021,0.068l0.04,0.044l0.048,0.019l0.041-0.008l0.021-0.037l-0.014-0.015l-0.03-0.039l0.021-0.011l0.053-0.053
	l0.032,0.019l0.071,0.071l0.013,0.017l0.031,0.01l0.118,0.055l0.051,0.008l0.047-0.023l0.043-0.033l0.047-0.018l0.056,0.026
	l0.119,0.087l0.117,0.065l0.012,0.028l-0.15,0.27l-0.021,0.057l-0.02,0.232l0.002,0.042l-0.02,0.028l-0.033,0.109l-0.02,0.029
	l-0.012,0.076l0.058,0.145l0.136,0.248l0.061,0.166l-0.049,0.022l-0.083-0.051l-0.038-0.06l-0.059-0.039l-0.155-0.143l-0.043-0.05
	l-0.035-0.096l0.001-0.084l0.024-0.139l-0.058,0.006l-0.047-0.013l-0.028-0.044l-0.004-0.084l-0.036-0.007l-0.026-0.019
	l-0.046-0.043l-0.174-0.087l-0.019-0.018l-0.026-0.034l-0.021-0.035l-0.007-0.025l-0.011-0.024l-0.032-0.031l-0.066-0.038
	l-0.053-0.019l-0.047-0.035l-0.048-0.087l-0.034-0.083l-0.035-0.062l-0.045-0.036l-0.063-0.008l-0.015-0.033l0.067-0.114l0.02-0.018
	l0.044,0.001l0.075,0.046l0.034,0.004l0.021-0.027l0.032-0.084l0.015,0.003l0.026,0.02l0.028-0.033l0.03-0.072l-0.012-0.029
	l-0.042-0.027l-0.105-0.122l-0.049-0.036l-0.209-0.026l-0.054,0.007l-0.017-0.005l-0.053-0.032l-0.024-0.002l-0.168,0.045
	l-0.061-0.011l-0.059-0.026l-0.058-0.039l0.151-0.016l0.326,0.037l0.147-0.014l-0.101-0.087l-0.21-0.068l-0.113-0.093l0.205-0.117
	l0.008-0.022l-0.022-0.035l-0.075-0.029l-0.143,0.061l-0.069-0.045l0.021-0.055v-0.061l-0.024-0.051l-0.057-0.024l-0.058,0.021
	l-0.026,0.055l-0.017,0.063l-0.023,0.046l-0.036,0.008l-0.113-0.012l-0.214,0.014l-0.059-0.012l-0.027,0.031l-0.212-0.022
	l-0.031,0.019l-0.053,0.064l-0.033,0.026l-0.178,0.059l0.013,0.031l0.066,0.014l-0.091,0.026l-0.075-0.003l-0.066-0.051
	l-0.069-0.121l0.049,0.015l0.04-0.01l0.02-0.04l-0.01-0.069l-0.019,0.03l-0.023,0.019l-0.059,0.023l-0.019-0.022l-0.038-0.114
	l-0.026-0.02l-0.06-0.014l-0.194-0.087l-0.042-0.035l0.02-0.019l0.035-0.017l0.023-0.025l-0.013-0.048l-0.03-0.017l-0.041,0.001
	l-0.041,0.011l-0.024,0.013l-0.007,0.031l0.003,0.043l-0.007,0.036l-0.04,0.013l-0.024-0.016l-0.078-0.09l-0.014-0.034l0.072-0.017
	l0.036-0.015l0.018-0.028l0.011-0.037l0.02-0.035l0.026-0.027l0.028-0.016l0.044-0.043l0.003-0.063l-0.025-0.054l-0.042-0.016
	l-0.008-0.049l-0.063-0.097l-0.117-0.148l-0.057-0.046l-0.049-0.029l-0.048-0.008l-0.057,0.009l-0.033,0.048l-0.026,0.019
	l-0.022-0.021l-0.02-0.064l0.002-0.038l0.02-0.021l0.032-0.015l0.058-0.047l0.001-0.075l-0.042-0.085l-0.071-0.077l-0.172-0.109
	l-0.156-0.036l-0.313,0.014l-0.013-0.035l0.42-0.096l-0.074-0.064l-0.188-0.02l-0.079-0.021l-0.045-0.036l-0.028-0.03l-0.032-0.022
	l-0.051-0.008l-0.139,0.033l-0.051-0.011l-0.013-0.028l0.432-0.066l0.078-0.042l0.135-0.117l0.083-0.043l0.013,0.031l-0.03,0.005
	l-0.026,0.011l-0.022,0.019l-0.016,0.029l0.073,0.066l0.093,0.042l0.084-0.001l0.051-0.059l-0.145-0.061l0.02-0.046l0.035,0.017
	l0.047-0.003l0.092-0.031l0.035-0.031l0.062-0.093l0.079-0.048l0.031-0.036l0.014-0.054l-0.016-0.072l-0.012-0.037l-0.014-0.068
	l-0.01-0.031l-0.024-0.033l-0.071-0.052l-0.03-0.032l0.082,0.023l0.067-0.009l0.05-0.045l0.028-0.082l0.097-0.009l0.019-0.149
	l-0.061-0.187l-0.146-0.125l-0.086-0.007l-0.17,0.041l-0.236-0.013l-0.077-0.033l-0.058-0.074l0.393,0.054l0.06-0.039l0.419-0.066
	l0.066,0.03l0.103-0.041l0.157-0.115l0.069-0.09l0.047-0.028l0.047,0.03l0.007,0.051l-0.035,0.112v0.063l0.051,0.039l-0.005,0.036
	l-0.037,0.021l-0.052-0.008l-0.002-0.02l-0.008-0.049l-0.08,0.032l-0.025,0.029l-0.009,0.048l0.22,0.186l0.1,0.11l0.002,0.104
	l-0.036,0.019l-0.089,0.004l-0.031,0.028l-0.02,0.084l-0.02,0.035l-0.047,0.017l0.014,0.035h0.049l0.12-0.056l0.027-0.027
	l0.027-0.045l0.035-0.039l0.05-0.01l0.032,0.032l0.057,0.067l0.051,0.068l0.011,0.034l-0.189,0.107l-0.037,0.034l-0.007,0.035
	l0.047,0.027l0.039-0.007l0.111-0.047l0.021-0.019l0.009-0.03l0.062,0.03l0.101,0.073l0.043,0.055l0.008,0.023l-0.004,0.033
	l0.011,0.084l0.027-0.06l0.016-0.055l0.01-0.274l0.002-0.007l0.002-0.004l-0.02-0.031l-0.048-0.051l-0.013-0.015l-0.014-0.056
	l-0.007-0.073v-0.119l0.021-0.053l0.078-0.057l0.035-0.042l-0.013-0.145l-0.113-0.132l-0.116-0.115l-0.018-0.095l0.047-0.011
	l0.13,0.068l0.058,0.008l0.033,0.013l0.019,0.046l0.011,0.056l0.01,0.038l0.036,0.055l0.017,0.017l0.02,0.01l0.034,0.029
	l0.102,0.118l0.125,0.175l0.08,0.176l-0.024,0.121l-0.107-0.003l-0.041,0.021l0.013,0.083l0.004,0.058l-0.054,0.12l-0.006,0.075
	l0.057-0.005l0.059-0.06l0.033-0.083l-0.023-0.076l0.034-0.031l0.048-0.001l0.052,0.027l0.047,0.051l-0.092-0.001l-0.006,0.014
	l0.033,0.037l0.053,0.019l0.101,0.008l-0.018-0.104l-0.002-0.167l-0.035-0.105l-0.313-0.468l-0.067-0.164l-0.036-0.063l-0.161-0.226
	l-0.065-0.051l-0.057-0.009l-0.055,0.022l-0.161,0.146l-0.067,0.038l-0.06-0.027l-0.003-0.127l0.084-0.16l0.178-0.233l0.248-0.469
	l0.154-0.184L1046.26,508.801z M1043.314,506.854l-0.035,0.032l-0.055,0.011l-0.059-0.012l-0.052-0.04l-0.035-0.067l0.019-0.034
	l0.205-0.093l0.092-0.078l0.014,0.035l-0.011,0.004l-0.005,0.009l-0.006,0.026l-0.036,0.036l-0.016,0.059l-0.008,0.063
	L1043.314,506.854z M1036.014,507.619l0.007,0.037l0.012,0.02l0.05,0.058l0.022,0.04l-0.003,0.011l0.027,0.164l0.001,0.065
	l-0.004,0.025l-0.014,0.021l-0.021-0.056l-0.026-0.032l-0.028-0.018l-0.025-0.008l-0.041,0.068l-0.004,0.02l0.01,0.052l0.018,0.029
	l0.021,0.019l0.018,0.022l0.08,0.152l0.041,0.042l0.052,0.007l-0.007,0.029l-0.013,0.015l-0.018,0.007l-0.021,0.005l0.023,0.009
	l0.024,0.013l-0.014,0.063l0.001,0.119l-0.011,0.073l-0.017,0.054l-0.076,0.118l0.019,0.086l-0.186,0.115l-0.058,0.06l-0.031-0.006
	l-0.127-0.137l-0.043-0.032l-0.089-0.05l-0.074-0.014l-0.018,0.001l-0.068,0.054l-0.028,0.003l-0.013-0.059l0.005-0.028l0.011-0.024
	l0.019-0.022l0.021-0.013l0.005-0.024l-0.021-0.045l-0.026-0.042l-0.014-0.016l0.052-0.074l0.173-0.077l0.034-0.102l-0.032,0.012
	l-0.033,0.006l-0.035-0.002l-0.034-0.011l-0.003-0.049l0.026-0.084l0.004-0.056l-0.008,0.006l-0.021-0.037l-0.032-0.079l0.002-0.018
	l0.02-0.008l0.024-0.003l0.018-0.006l0.063-0.048l0.142-0.067l0.06-0.065l0.063,0.004l0.025-0.083l0.02-0.207l0.073,0.023
	l0.019-0.064l0.005-0.071l0.037,0.003v0.042L1036.014,507.619z M1041.109,504.142l0.041,0.053l0.018,0.05l-0.002,0.046l-0.061,0.005
	l-0.067-0.003l-0.173,0.108l0.055,0.023l0.057,0.062l0.023,0.078l-0.033,0.087l-0.012,0.068l0.006,0.071l-0.021,0.064l-0.07,0.043
	l-0.066-0.025l-0.116-0.107l-0.096,0.01l-0.086-0.017l-0.062-0.03l-0.059-0.035l-0.013-0.029l0.078-0.045l0.049-0.108l0.04-0.078
	l0.098-0.038l0.052-0.037l0.022-0.065l0.188-0.058l0.078-0.087l0.067-0.023l0.033,0.002L1041.109,504.142z M1038.71,503.261
	l0.036,0.309l0.156,0.193l0.203,0.158l0.186,0.202l0.01,0.231l0.1,0.247l0.244,0.469l-0.016,0.084l-0.09,0.137l-0.03,0.096
	l-0.015,0.219l0.01,0.141l0.053,0.212l0.025,0.247l-0.001,0.084l-0.008,0.04l-0.015,0.025l-0.024,0.017l-0.119,0.035l-0.034,0.021
	l-0.04,0.028l-0.27-0.083l-0.225-0.126l-0.122-0.012l-0.118-0.063l-0.071-0.002l-0.04,0.045l-0.026,0.141l-0.044,0.027l0.051-0.008
	l0.026-0.086l0.031-0.045l0.037-0.037l0.061,0.007l0.355,0.195l0.1,0.016l0.133,0.062l0.064,0.004l0.206-0.057l0.058,0.013
	l-0.035,0.112v0.043l0.012,0.066l0.035,0.133l0.006,0.037l0.049,0.071l0.122,0.233l0.086,0.186l0.056,0.095l0.141,0.181l0.034,0.025
	l0.036,0.021l0.019,0.029l-0.02,0.052l-0.02,0.007l-0.071-0.01l-0.036,0.001l-0.114,0.035l-0.032,0.031l-0.027,0.06l-0.062-0.034
	l-0.063-0.021l-0.06,0.005l-0.053,0.05l-0.037,0.063l-0.021,0.018l-0.038,0.021l-0.03,0.031l-0.054,0.089l-0.08,0.063l-0.082,0.124
	l-0.338,0.158l0.013,0.033l0.124-0.014l0.339-0.235l0.064-0.08l0.033-0.022l0.005-0.012l-0.008-0.022l-0.003-0.024l0.015-0.016
	h0.022l0.044,0.013l0.018,0.001l0.024-0.016l0.024-0.028l0.017-0.034l-0.001-0.034l-0.009-0.069l0.037-0.021l0.095,0.002v0.019
	l0.004,0.048l0.049-0.005l0.134-0.013l0.104-0.038l0.052-0.064l0.051-0.042l0.089,0.09l0.073,0.151l0.008,0.147l-0.119,0.187
	l-0.069,0.185l-0.02,0.017l0.042,0.159l0.008,0.045l0.04,0.048l0.015,0.071l-0.004,0.071l-0.017,0.047l0.077-0.027l0.021-0.034
	l-0.073-0.177l-0.042-0.132v-0.07l0.076-0.116l0.039-0.141l0.032-0.045l0.066,0.019l0.021,0.026l0.054,0.097l0.014,0.029
	l0.019,0.012l0.101,0.041l0.235,0.053l0.218-0.04l0.566-0.286l0.088-0.017l0.103,0.021l0.056,0.033l0.141,0.121l0.223,0.113
	l0.011,0.029l-0.034,0.078l0.012,0.117l0.037,0.128l0.04,0.111l0.015,0.113l-0.1,0.416l-0.085,0.121l-0.021,0.078l0.012,0.066
	l0.064,0.143l0.021,0.153l-0.075,0.042l-0.115-0.039l-0.103-0.089l0.062-0.032l0.016-0.034l-0.008-0.063l-0.032-0.061l-0.034-0.01
	l-0.036,0.004l-0.04-0.015l-0.069-0.003l-0.033,0.097l-0.018,0.12l-0.044,0.124l0.062,0.103l0.08,0.109l0.042,0.075l-0.013,0.04
	l-0.032,0.033l-0.042,0.02l-0.037-0.002l-0.04-0.031l-0.062-0.082l-0.037-0.04l0.013-0.029l0.031-0.045l0.02-0.018l-0.039-0.046
	l-0.032-0.018h-0.119l-0.021,0.013l-0.042,0.055l-0.067,0.037l-0.059-0.022l-0.064-0.053l-0.084-0.056l0.055-0.024l0.059-0.097
	l0.042-0.034l0.046,0.017l0.063,0.035l0.052,0.004l0.009-0.076l-0.073-0.061l-0.02-0.06l0.015-0.178l-0.034,0.011l-0.043-0.003
	l-0.046-0.018l-0.039-0.028l-0.036-0.011l-0.055,0.052l-0.046-0.019l0.015,0.065l0.002,0.044l-0.016,0.027l-0.033,0.017
	l-0.009,0.031l-0.009,0.175l-0.03,0.102l-0.094,0.159l-0.028,0.108l0.008,0.121l0.043,0.063l0.068,0.052l0.077,0.083l0.063,0.114
	l0.024,0.093v0.092l-0.011,0.107l0.051-0.05l0.043-0.02l0.025,0.029l-0.007,0.167l0.017,0.062l0.051,0.117l0.029,0.082l0.011,0.037
	l0.005,0.043l-0.029,0.101l0.002,0.036l-0.013,0.004l-0.021,0.027l-0.019,0.038l-0.007,0.034l0.018,0.008l0.037,0.04l0.028,0.046
	l-0.009,0.041v0.025l-0.005,0.026l-0.021,0.019l-0.034,0.001l-0.034-0.016l-0.064-0.052l-0.024-0.027l-0.021-0.032l-0.025-0.031
	l-0.035-0.024l-0.038-0.002l-0.247,0.088l-0.029,0.023l-0.01,0.033l-0.004,0.037l-0.009,0.029l-0.057,0.048l-0.141,0.033
	l-0.057,0.035l0.093,0.054l0.404-0.03l0.034,0.014l0.01,0.051l-0.006,0.109l0.01,0.087l0.02,0.034l0.041-0.002l0.066-0.022
	l0.012,0.032l-0.082,0.095l-0.01,0.062l0.059,0.067l-0.006,0.011l-0.015,0.034l-0.076-0.019l-0.253,0.171l-0.104,0.11l-0.074,0.03
	l-0.185-0.016l-0.125-0.054l-0.027-0.006l-0.271,0.079l-0.072-0.011l-0.002,0.02v0.015l0.002,0.015l0.008,0.023l0.064,0.009
	l0.188-0.052l0.042,0.01l0.189,0.101l0.05,0.047l0.038,0.044l0.039,0.028l0.058-0.001l0.251-0.075l-0.023,0.065l-0.093,0.149
	l-0.036,0.117l-0.027,0.035l-0.057,0.025l-0.016,0.027l0.014,0.045l0.016,0.044l-0.002,0.023l-0.149,0.091l-0.042,0.061
	l-0.033,0.022l-0.034,0.002l-0.068-0.008l-0.035,0.011l0.015,0.018l0.016,0.009l-0.017,0.066l-0.085,0.061l-0.029,0.055l0.058,0.015
	l0.049-0.019l0.116-0.072l0.018-0.021l0.022-0.016l0.184,0.038l0.031,0.049l0.013,0.067l-0.007,0.063l-0.027,0.036l-0.082,0.045
	l-0.03,0.032l0.034,0.047l0.059,0.061l0.024,0.034l0.012,0.054v0.045l0.018,0.033l0.067,0.019l0.044,0.021l0.047,0.034l0.026,0.043
	l-0.022,0.047l0.013,0.034l0.039,0.023l0.162,0.139l0.038,0.004l0.043,0.021l0.04,0.073l0.011,0.058l-0.005,0.039l-0.002,0.045
	l0.021,0.077l-0.003,0.038l-0.024,0.034l-0.036,0.027l-0.033,0.016l-0.167,0.019l-0.032,0.021l-0.013,0.031l-0.005,0.036
	l-0.012,0.037l-0.049,0.06l-0.032,0.027l-0.031,0.017l-0.014,0.026l0.016,0.041l0.034,0.028l0.046-0.013l0.012,0.032l-0.078,0.021
	l-0.033,0.02l-0.021,0.038l0.034,0.012l0.036-0.002l0.076-0.022l0.042,0.006l0.055,0.031l0.101,0.08l-0.034,0.111l-0.029,0.057
	l-0.039,0.042l-0.11,0.061l-0.034,0.05l0.047,0.06l0.033-0.009l0.128-0.106l0.068-0.016l0.021-0.011l0.012-0.021l0.011-0.028
	l0.015-0.026l0.027-0.018l0.066,0.007l0.151,0.086l0.073,0.03l0.159-0.004l0.047,0.016l0.046,0.062l0.193,0.332l0.015,0.02
	l0.001,0.016l-0.017,0.027l-0.04,0.014l-0.046-0.011l-0.032,0.005l0.002,0.064l0.036,0.001l0.039,0.01l0.037,0.02l0.03,0.028
	l0.025,0.036l0.025,0.052l0.008,0.051l-0.031,0.032l-0.039-0.01l-0.071-0.075l-0.03-0.013l-0.106,0.041l-0.037,0.002l-0.063-0.015
	l-0.003-0.02l0.015-0.024l-0.007-0.03l-0.072-0.055l-0.033-0.036l0.012-0.024l0.06-0.049l-0.034-0.048l-0.077-0.018l-0.067,0.045
	l-0.004,0.032l0.002,0.105l-0.011,0.06l-0.002,0.041l-0.007,0.019l-0.018,0.012l-0.046,0.007l-0.013,0.021l-0.023,0.068
	l-0.076,0.128l-0.014,0.068l0.02,0.103l0.004-0.001l-0.002,0.001l-0.034,0.025l-0.048,0.008l-0.072-0.035l-0.044,0.026l-0.02,0.035
	l-0.033,0.021l-0.016,0.035l-0.036,0.019l-0.196,0.057l-0.055-0.005l-0.04-0.049l-0.031-0.063l-0.03-0.042l-0.06-0.026l-0.616,0.032
	l-0.242-0.026l-0.228,0.026l-0.059,0.028l-0.156,0.12l-0.101,0.024l-0.105-0.003l0,0l-0.008-0.085l-0.03-0.027l-0.013-0.138
	l-0.067-0.112l-0.085-0.103l-0.069-0.11l-0.045-0.154l-0.015-0.133l-0.005-0.126l-0.017-0.129l-0.303,0.03l-0.029,0.013l0.005,0.042
	l0.059,0.182l-0.008,0.027l-0.023,0.013l-0.02,0.048l-0.018,0.063l-0.033,0.036l-0.045,0.002l-0.055-0.04l-0.073-0.108l-0.038-0.112
	l-0.024-0.117l-0.034-0.125l0.016-0.105l0.104-0.047l0.126,0.001l0.078,0.043l-0.033,0.02l-0.02,0.032l-0.023,0.075l0.028,0.049
	l0.167-0.021l0.158-0.007l0.046-0.038l-0.04-0.086l-0.107-0.145l-0.108-0.189l-0.094-0.194l-0.015-0.054l-0.001-0.073l-0.01-0.042
	l-0.026-0.058l-0.074-0.109l-0.102-0.203l-0.058-0.095l-0.071-0.08l-0.087-0.034l-0.104,0.003l-0.178,0.045l-0.143-0.004
	l-0.146-0.072l-0.375-0.293l-0.009-0.034l0.051-0.026l-0.011-0.029l-0.058-0.007l-0.063,0.013l-0.053,0.031l-0.032,0.053
	l-0.007,0.075l0.024,0.041l0.111,0.063l-0.023,0.014l-0.012,0.015l-0.017,0.057l0.066-0.006l0.089,0.028l0.086,0.052l0.055,0.074
	l-0.029,0.022l-0.416-0.177l-0.078-0.021l-0.167,0.015l-0.056-0.03l-0.028-0.069l0.003-0.442l-0.018-0.196l-0.037-0.203
	l-0.064-0.191l-0.465-0.892l-0.031-0.044l-0.012-0.007l-0.01-0.023l-0.005-0.022l0.004-0.012l0.017,0.001l0.012,0.01l0.01,0.01
	l0.009,0.003l0.026,0.021l0.198,0.343l0.093,0.112l0.026,0.05l0.01,0.047l-0.002,0.071l0.014,0.055l0.032,0.062l0.028,0.007
	l0.093-0.1l0.09-0.136l0.053-0.037l0.072-0.111l0.064-0.14l-0.014-0.081l-0.047-0.077l-0.065-0.07l-0.069-0.06l-0.146-0.102
	l-0.055-0.146l-0.092-0.161l-0.106-0.09l-0.116-0.041l-0.237-0.038l-0.059,0.008l-0.009,0.046l0.077,0.2l0.029,0.098l0.024,0.111
	l0.038,0.076l0.004,0.032l-0.044-0.001l-0.02-0.023l-0.029-0.045l-0.03-0.054l-0.138-0.34l-0.03-0.109l-0.045-0.313l-0.032-0.113
	l-0.629-1.634l-0.02-0.083l-0.011-0.087l-0.033-0.443l0.006-0.142l0.017-0.072l0.02,0.008l0.026,0.039l0.032,0.017l0.011,0.035
	l-0.001,0.169l-0.005,0.048l0.011,0.032l0.022,0.012l0.021,0.004l0.049-0.008l0.016,0.017l0.027,0.043l0.029,0.042l0.029,0.014
	l0.114-0.009l0.036,0.012l-0.028,0.033l0.025,0.042l0.021,0.078l0.031,0.041l0.031,0.012l0.016-0.017l-0.005-0.035l-0.029-0.035
	l-0.013-0.033l0.072-0.049l0.125-0.038l0.125-0.007l0.07,0.041l0.027,0.001l0.168,0.07l0.031-0.027l0.017-0.05l0.009-0.061
	l0.001-0.056l0.016-0.004l0.161,0.201l0.017,0.036l-0.004,0.023l0.021,0.044l0.034,0.039l0.056,0.023l0.075,0.053l0.037,0.011
	l0.044-0.014l0.146-0.08l0.014-0.013l0.005-0.027l-0.005-0.04l-0.012-0.045l-0.025-0.069l-0.014-0.048l-0.021-0.101l0.001-0.031
	l0.009-0.015v-0.017l-0.028-0.037l-0.104-0.042l-0.026,0.005l-0.023-0.006l-0.022-0.02l-0.018-0.041l-0.028-0.039l-0.052-0.012
	l-0.018-0.049l0.021-0.041l0.117-0.042l0.06-0.334l0.029-0.034l0.094-0.064l0.142-0.046v-0.012l-0.07-0.006l-0.114,0.028
	l-0.036-0.018l-0.008-0.092l0.01-0.085l0.016-0.048l0.059-0.085l0.077-0.156l0.043-0.025l0.031-0.002l0.057,0.011l0.03-0.003
	l0.027-0.017l0.008-0.024l0.004-0.025l0.015-0.024l0.045-0.014l0.066,0.003l0.065,0.024l0.045,0.052l0.057,0.105l0.062,0.056
	l0.058,0.035l0.052,0.044l0.072,0.091l-0.065,0.038l-0.029,0.145l-0.059,0.037l0.014,0.035l0.026,0.04l-0.012,0.049l-0.042,0.095
	v0.074l0.021,0.061l0.066,0.147l0.037,0.04l0.04-0.02l0.023-0.063l-0.024-0.165l0.035-0.021l0.049-0.004l0.038-0.021l-0.034-0.041
	l-0.026-0.01l-0.023,0.012l-0.018,0.029v-0.057l0.006-0.043l0.004-0.046l-0.012-0.068l0.018-0.005l0.024,0.111l0.073-0.003
	l0.086-0.043l0.061-0.008l0.045,0.015l0.035-0.02l0.037-0.006l0.047,0.053l0.01,0.048l-0.025,0.104v0.069l0.031,0.004l0.014,0.019
	l0.013,0.029l0.032,0.031l0.035,0.019l0.078,0.02l0.018,0.017l0.017,0.023l0.019,0.018l0.027-0.005l0.006-0.089l0.007-0.029
	l0.051,0.024l0.017-0.047l-0.023-0.06l-0.069-0.015l-0.062,0.072v0.016l-0.011,0.008l-0.027,0.005l-0.028-0.006l-0.011-0.027
	l-0.001-0.026l0.006-0.003l-0.063-0.177l-0.015-0.164l-0.028-0.141v-0.001l-0.098-0.106l-0.037-0.022l-0.017-0.007l-0.049,0.021
	l-0.085,0.08l-0.013,0.044l-0.041,0.053l-0.054,0.019l-0.045-0.054l0.008-0.066l0.09-0.108l-0.003-0.087l-0.01-0.07l-0.02-0.032
	l-0.072-0.004l-0.035-0.016l-0.034-0.025l-0.031-0.028l-0.024-0.028l-0.033-0.043l-0.03-0.055l-0.02-0.06l0.007-0.019l0.022-0.112
	v-0.024l0.003-0.028l-0.024-0.055l-0.032-0.051l-0.026-0.021l-0.031,0.002l-0.029-0.01l-0.059-0.033l0.003-0.133l0.013-0.108
	l0.022-0.091l0.049-0.106l0.013-0.016l0.019-0.012l0.02-0.008l0.008-0.02l-0.011-0.071l0.003-0.018l0.33-0.238l0.086-0.022
	l0.347,0.039l0.013,0.036l-0.024,0.032l0.01,0.03l0.03,0.021l0.041,0.008l0.034-0.014l0.016-0.032l0.035-0.178l0.009-0.098
	l0.021-0.082l0.086-0.067l0.063-0.08l0.135-0.003l0.259-0.113l-0.206-0.098l-0.087-0.007l-0.069-0.029l-0.031-0.002l-0.016,0.017
	l-0.041,0.15l-0.029,0.067l-0.044,0.042l-0.063-0.023l-0.063-0.034l-0.044,0.027l-0.058,0.11l-0.085,0.074l-0.22,0.068l-0.504,0.383
	l-0.05,0.02l-0.057-0.008l-0.38-0.165l0.04,0.059l-0.008,0.038l-0.071,0.06l-0.045,0.065l-0.027,0.025l-0.042,0.014l0.005-0.034
	l-0.058-0.018l-0.041,0.022l-0.03,0.048l-0.023,0.061l-0.044,0.007l-0.033,0.067l-0.022,0.07l-0.017,0.015l-0.046-0.058l-0.06-0.01
	l-0.057,0.022l-0.032,0.043l0.053,0.029l-0.061,0.115l-0.103,0.104l-0.102-0.002l-0.056,0.031l-0.05,0.044l-0.015,0.042l0.02,0.097
	l-0.014,0.065l-0.024,0.054l-0.015,0.063l0.036,0.14l0.001,0.011l0.012,0.042l-0.003,0.028l-0.011,0.023l-0.033,0.152l-0.058,0.021
	l-0.022,0.021l-0.002,0.031l-0.013,0.025l-0.036,0.029l-0.031,0.044l0.005,0.068l0.081,0.155l0.026,0.076l-0.022,0.054l0.01,0.03
	l0.1-0.04l0.028,0.004l0.04,0.052v0.045l-0.024,0.033l-0.031,0.018l-0.034-0.002l-0.077-0.027l-0.038-0.001l-0.027,0.018
	l-0.036,0.058l-0.028,0.021l0.013,0.035l0.111-0.068l0.042,0.001l0.069,0.028l0.03,0.003l0.152-0.131l0.044,0.005l0.021,0.033
	l0.026,0.092l0.016,0.041l0.063,0.052l0.034,0.04l-0.013,0.08l-0.015,0.042l-0.03,0.024l-0.033,0.017l-0.018,0.021l0.008,0.02
	l0.042,0.012l-0.053,0.015l-0.098-0.047l-0.096-0.07l-0.049-0.048l-0.049-0.065l-0.08-0.041l-0.086-0.017l-0.072,0.004l-0.056-0.013
	l-0.078-0.045l-0.077-0.06l-0.059-0.057l-0.092-0.164l-0.027-0.021l-0.04-0.003l-0.09-0.029l-0.044,0.008l0.102,0.165l0.05,0.1
	l0.018,0.066l-0.036,0.017l-0.056-0.094l-0.087-0.218l-0.041-0.206l0.004-0.163l0.183-0.893l0.085-0.185l0.086-0.401l0.053-0.101
	l0.093-0.023l0.242,0.018l0.123-0.026l0.213-0.119l0.083-0.083l0.07-0.173l0.037-0.034l0.677-0.086l0.222-0.095l0.197-0.154
	l0.161-0.212l0.108-0.274l0.149-1.19l0.039-0.174l0.099-0.25l0.02-0.197l0.024-0.034l0.024-0.108l0.113-0.061l0.238-0.052
	l0.21-0.106l0.168-0.156l0.126-0.187l0.178-0.416l0.115-0.179l0.057-0.047l0.072-0.031l0.079-0.004l0.079,0.032l-0.115,0.095
	l-0.078,0.167L1038.71,503.261z"/></svg>