<?xml version="1.0" encoding="utf-8"?>
<!-- Generator: Adobe Illustrator 15.0.0, SVG Export Plug-In . SVG Version: 6.00 Build 0)  -->
<!DOCTYPE svg PUBLIC "-//W3C//DTD SVG 1.1//EN" "http://www.w3.org/Graphics/SVG/1.1/DTD/svg11.dtd">
<svg version="1.1" id="Ebene_1" xmlns="http://www.w3.org/2000/svg" xmlns:xlink="http://www.w3.org/1999/xlink" x="0px" y="0px"
	 width="1920px" height="1080px" viewBox="0 0 1920 1080" enable-background="new 0 0 1920 1080" xml:space="preserve">

<path fill="#F4E0B6" stroke="#FFFFFF" d="M974.131,756.075l-0.102-0.051l-0.092-0.005l-0.025-0.038l0.01-0.054l0.018-0.094
	l-0.033-0.084l-0.182-0.253l-0.022-0.067l-0.06-0.273l-0.032-0.071l-0.051-0.067l-0.122-0.084l-0.045-0.07l0.018-0.104l-0.027-0.025
	l-0.087-0.116l0.032-0.074l0.012-0.194l0.048-0.052l0.062-0.035l0.06-0.061l0.048-0.068l0.21-0.496l0.106-0.158l0.028,0.055
	l0.041,0.034l0.056,0.02l0.063,0.012l0.082-0.081l0.096-0.03l0.094,0.01l0.075,0.046l0.056,0.096l-0.054,0.035l-0.089,0.032
	l-0.044,0.086l0.105,0.054l0.116,0.145l0.085,0.161l0.013,0.1l0.267,0.188l0.054,0.021l0.278-0.066h0.085l0.083,0.028l0.054,0.026
	l0.063,0.013l0.114-0.02l0.063,0.022l0.055,0.081l0.03,0.101l-0.011,0.09l0.082-0.123l0.048-0.017l0.086,0.036l-0.047-0.049
	l-0.128-0.077l-0.024-0.01l-0.034-0.068l-0.051-0.037l-0.064-0.004l-0.074,0.026l-0.011-0.037l0.162-0.044l0.071-0.032l0.057-0.053
	l0.085,0.099l0.056-0.043l0.053-0.101l0.076-0.07l0.093-0.062l0.163-0.195l0.101-0.062l0.166,0.006l0.053,0.108l0.012,0.139
	l0.042,0.098h0.104l0.121-0.078l0.158-0.158l-0.012-0.042l-0.059,0.023l-0.051,0.035l-0.041,0.046l-0.031,0.058l-0.041,0.055
	l-0.032-0.028l-0.068-0.149l-0.02-0.064l-0.026-0.054l-0.041-0.013l-0.03-0.007l-0.027-0.029l-0.022-0.042l-0.015-0.048
	l-0.012-0.109l0.026-0.085l0.167-0.251l0.028-0.056l0.001-0.066l0.017-0.035l0.055-0.005l0.1,0.013l0.774-0.176l0.273-0.155
	l0.101-0.039l0.061-0.014l0.032-0.005l0.027-0.005l0.048-0.025l0.037-0.029l0.022-0.034l0.015-0.029l0.014-0.017l0.117-0.042
	l0.362-0.058l0.108-0.045l0.29-0.193l0.043-0.045l0.083-0.104l0.046-0.029l0.059,0.003l0.1,0.062l0.059,0.004l0.076-0.024
	l0.055-0.024l0.045-0.039l0.05-0.063l0.032-0.071l0.05-0.165l0.042-0.054l0.063-0.021l0.074,0.002l0.072,0.019l0.059,0.025
	l0.063,0.011l0.056-0.027l0.051-0.039l0.047-0.027h0.111l0.085,0.052l0.073,0.064l0.074,0.042l0.204,0.012l0.243-0.054l0.173-0.142
	l-0.009-0.25l-0.028,0.008l-0.01,0.003h-0.002l0.013,0.09l-0.02,0.088l-0.042,0.071l-0.055,0.04l-0.105,0.017h-0.202l-0.087,0.013
	l-0.086-0.007l-0.107-0.041l-0.165-0.086l-0.055-0.008l-0.045,0.022l-0.042,0.035l-0.041,0.023l-0.053,0.002l-0.049-0.016
	l-0.041-0.017l-0.026-0.006l-0.08,0.004l-0.069-0.017l-0.077,0.006l-0.099,0.062l-0.043,0.062l-0.051,0.136l-0.043,0.051
	l-0.092,0.03l-0.167-0.028l-0.098,0.016l-0.093,0.052l-0.204,0.202l-0.178,0.117l-1.705,0.642l-0.19-0.015l-0.111,0.014
	l-0.097,0.052l-0.083,0.083l-0.122,0.162l-0.163,0.304l-0.041,0.057l-0.036,0.03l-0.032,0.046l-0.037,0.028l-0.055-0.022
	l-0.015-0.04v-0.066l-0.008-0.068l-0.04-0.061l-0.069,0.113l0.001,0.051l0.05,0.056l-0.046,0.045l-0.021,0.013l0.01,0.039
	l0.028,0.002l0.029,0.01l0.03,0.003l-0.093,0.088l-0.178,0.081l-0.186,0.06l-0.119,0.023l-0.451,0.013l-0.179,0.039l0.02-0.061
	l0.028-0.161l-0.005-0.063l-0.032-0.077l-0.084-0.1l-0.025-0.041l-0.033-0.033l-0.121-0.049l-0.051-0.055l-0.063-0.019l-0.017-0.018
	l-0.032-0.119l-0.019-0.255l-0.03-0.09l-0.051-0.067l-0.052-0.046l0,0l0.342-0.096l0.338-0.095l0.339-0.096l0.337-0.094l0.339-0.096
	l0.338-0.095l0.339-0.094l0.223-0.063l0.116-0.033l0.338-0.096l0.339-0.095l0.339-0.097l0.338-0.096l0.339-0.095l0.339-0.096
	l0.339-0.097l0.338-0.097l0.268-0.075l0.077-0.055l-0.051-0.232l-0.007-0.083l-0.004-0.04l0.008-0.141l0.024-0.136l0.034-0.116
	l0.118-0.239l0.185-0.242l0.225-0.173l0.247-0.029l0.063,0.036l0.146,0.113l0.055,0.024l0.109-0.062l0.338-0.393l0.356-0.268
	l0.118-0.028l0.38,0.019l0.655-0.213l0.242-0.01l0.131,0.054l0.111,0.046l0.091,0.084l0.066,0.1l0.158,0.384l0.049,0.033
	l0.277,0.062l0.093-0.001l0.078-0.055l0.38-0.371l0.255-0.167l0.267-0.078l0.285,0.025l0.134,0.053l0.095,0.078l0.071,0.104
	l0.108,0.253l0.049,0.073l0.07,0.048l0.056,0.017l0.493,0.161l0.16,0.014l0.118-0.028l0.108-0.068l0.365-0.275l0.336-0.357
	l0.116-0.1l0.361-0.222l0.282-0.263l0.126-0.081l0.068-0.03l0.11-0.03l0.066-0.037l0.072-0.062l0.122-0.126l0.084-0.045l0.135-0.027
	l0.167-0.005l0.158,0.021l0.114,0.048l0.038,0.045l0.051,0.109l0.038,0.041l0.014,0.006l0.049,0.022l0.15,0.032l0.069,0.028
	l0.179,0.252l0.007,0.345l-0.156,0.348l-0.303,0.259l-0.478,0.224l-0.25,0.169l-0.257,0.101l-0.266,0.204l-0.109,0.039l-0.093,0.082
	l-0.288,0.35l-0.134,0.123l-0.185,0.077l-0.354,0.067l-0.362,0.171l-0.175,0.054l-0.173,0.015l-0.244-0.033l-0.071-0.021
	l-0.065-0.033l-0.055-0.046l-0.079-0.049l-0.087,0.008l-0.204,0.068l-0.095,0.008l-0.087-0.02l-0.063-0.034l-0.196-0.104
	l-0.069-0.005l-0.164,0.099l-0.195,0.084l-0.206,0.033l-0.204-0.026l-0.189-0.097L984.351,751l-0.069-0.02l-0.117,0.01l-0.108-0.004
	l-0.214-0.063h-0.089l-0.214,0.041l-0.197,0.005l-0.407-0.086h-0.001l-0.001-0.001h-0.001l-0.326-0.125l-0.309-0.166l-0.177-0.06
	l-0.11,0.09l-0.081,0.154l-0.087,0.168l-0.042,0.151l0.074,0.362l0.01,0.17l-0.071,0.184l-0.127,0.152l-0.161,0.121l-0.168,0.084
	l-0.2,0.059l-0.63,0.04l-0.173,0.041l-0.114,0.087l-0.106,0.107l-0.148,0.104l-0.087,0.034l-0.376,0.069l-0.069,0.021l-0.223,0.151
	l-0.369,0.147l-0.055,0.053v0.087l0.102,0.412l0.021,0.091l0.1,0.413l-0.029,0.038l-0.204,0.056l-0.146,0.041l-0.352,0.097
	l-0.711,0.194l-1.208,0.334l-0.829,0.227l-0.897,0.245l-0.238,0.064l-0.178,0.097l-0.044,0.162l-0.001,0.062l-0.063,0.112
	l-0.021,0.057l-0.002,0.069L974.131,756.075z"/></svg>