<?xml version="1.0" encoding="utf-8"?>
<!-- Generator: Adobe Illustrator 15.0.0, SVG Export Plug-In . SVG Version: 6.00 Build 0)  -->
<!DOCTYPE svg PUBLIC "-//W3C//DTD SVG 1.1//EN" "http://www.w3.org/Graphics/SVG/1.1/DTD/svg11.dtd">
<svg version="1.1" id="Ebene_1" xmlns="http://www.w3.org/2000/svg" xmlns:xlink="http://www.w3.org/1999/xlink" x="0px" y="0px"
	 width="1920px" height="1080px" viewBox="0 0 1920 1080" enable-background="new 0 0 1920 1080" xml:space="preserve">

<path fill="#F4E0B6" stroke="#FFFFFF" d="M1217.045,983.736l-0.033,0.134l-0.163,0.088l-0.365,0.112l-0.026-0.02l-0.046-0.086
	l-0.004-0.045l0.025-0.055l0.109-0.161l0.043-0.033h0.049l0.131,0.045l0.054,0.011l0.112-0.021l0.047,0.003L1217.045,983.736z
	 M1197.783,982.22l-0.036,0.046l-0.175,0.029l-0.176,0.05l-0.011-0.064l-0.047-0.138l-0.013-0.071l-0.002-0.026l0.149-0.16
	l0.084-0.033l0.091-0.019l0.105-0.048l0.02,0.039l0.01,0.034l0.001,0.03l-0.006,0.031l0.014,0.197L1197.783,982.22z
	 M1134.973,889.097l0.113,0.033l0.09,0.035l0.069,0.049l0.048,0.066l0.029,0.091l-0.013,0.071l-0.029,0.07l-0.021,0.091
	l-0.034-0.013h-0.028l-0.025,0.007l-0.032,0.002l-0.003,0.1l-0.033,0.094l-0.067,0.065l-0.104,0.031l-0.096-0.016l-0.036-0.049
	l-0.018-0.066l-0.039-0.063l-0.037-0.077v-0.109l0.025-0.112l0.031-0.082l0.045-0.051l0.131-0.103L1134.973,889.097z
	 M1057.971,890.809l0.031,0.001l0.021-0.021l0.016-0.053l0.097,0.027l0.264-0.035l0.138,0.013l-0.017,0.068l-0.052,0.133
	l-0.014,0.076l-0.025,0.062l-0.109,0.117l-0.035,0.064l-0.087,0.038l-0.063-0.026l-0.058-0.046l-0.068-0.024l-0.017-0.106
	l-0.076-0.204l0.011-0.103L1057.971,890.809z"/></svg>