<?xml version="1.0" encoding="utf-8"?>
<!-- Generator: Adobe Illustrator 15.0.0, SVG Export Plug-In . SVG Version: 6.00 Build 0)  -->
<!DOCTYPE svg PUBLIC "-//W3C//DTD SVG 1.1//EN" "http://www.w3.org/Graphics/SVG/1.1/DTD/svg11.dtd">
<svg version="1.1" id="Ebene_1" xmlns="http://www.w3.org/2000/svg" xmlns:xlink="http://www.w3.org/1999/xlink" x="0px" y="0px"
	 width="1920px" height="1080px" viewBox="0 0 1920 1080" enable-background="new 0 0 1920 1080" xml:space="preserve">

<path fill="#222222" d="M1548.169,358.46l0.033,0.052l-0.018,0.054l-0.016,0.017l-0.028,0.011l-0.008-0.058l-0.028-0.04
	l-0.048-0.019l-0.063,0.003l0.061-0.036l0.062-0.007L1548.169,358.46z M1548.131,358.859l0.022-0.062l-0.033-0.072l0.029-0.038
	l0.062,0.111l-0.09,0.092l-0.15,0.064l-0.129,0.034l-0.004-0.034l0.053-0.01l0.043-0.016l0.083-0.043l0.06,0.009L1548.131,358.859z
	 M1536.8,316.786l0.131,0.013l0.106-0.01l0.08,0.032l0.129-0.021l0.063,0.02l0.008,0.076l-0.089,0.033l-0.083,0.038l-0.077,0.022
	l-0.027,0.074l-0.019,0.103l0.009,0.111l0.037,0.094l-0.061,0.02l-0.036-0.047l-0.096-0.026l-0.072,0.033l-0.068,0.006l0.021-0.065
	l0.053-0.101l0.001-0.131l-0.075-0.065l-0.086-0.068l-0.055-0.086l0.033-0.054l0.072,0.002L1536.8,316.786z"/></svg>